<svg width="16" height="17" viewBox="0 0 16 17" fill="none" xmlns="http://www.w3.org/2000/svg">
<path d="M8 16.3281C9.08854 16.3281 10.112 16.1198 11.0703 15.7031C12.0339 15.2865 12.8828 14.7109 13.6172 13.9766C14.3516 13.2422 14.9271 12.3958 15.3438 11.4375C15.7604 10.474 15.9688 9.44792 15.9688 8.35938C15.9688 7.27083 15.7604 6.2474 15.3438 5.28906C14.9271 4.32552 14.3516 3.47656 13.6172 2.74219C12.8828 2.00781 12.0339 1.43229 11.0703 1.01562C10.1068 0.598958 9.08073 0.390625 7.99219 0.390625C6.90365 0.390625 5.8776 0.598958 4.91406 1.01562C3.95573 1.43229 3.10938 2.00781 2.375 2.74219C1.64583 3.47656 1.07292 4.32552 0.65625 5.28906C0.239583 6.2474 0.03125 7.27083 0.03125 8.35938C0.03125 9.44792 0.239583 10.474 0.65625 11.4375C1.07292 12.3958 1.64844 13.2422 2.38281 13.9766C3.11719 14.7109 3.96354 15.2865 4.92188 15.7031C5.88542 16.1198 6.91146 16.3281 8 16.3281ZM8 15C7.07812 15 6.21615 14.8281 5.41406 14.4844C4.61198 14.1406 3.90625 13.6667 3.29688 13.0625C2.69271 12.4531 2.21875 11.7474 1.875 10.9453C1.53646 10.1432 1.36719 9.28125 1.36719 8.35938C1.36719 7.4375 1.53646 6.57552 1.875 5.77344C2.21875 4.97135 2.69271 4.26562 3.29688 3.65625C3.90104 3.04688 4.60417 2.57292 5.40625 2.23438C6.20833 1.89062 7.07031 1.71875 7.99219 1.71875C8.91406 1.71875 9.77604 1.89062 10.5781 2.23438C11.3854 2.57292 12.0911 3.04688 12.6953 3.65625C13.3047 4.26562 13.7812 4.97135 14.125 5.77344C14.4688 6.57552 14.6406 7.4375 14.6406 8.35938C14.6406 9.28125 14.4688 10.1432 14.125 10.9453C13.7865 11.7474 13.3125 12.4531 12.7031 13.0625C12.0938 13.6667 11.388 14.1406 10.5859 14.4844C9.78385 14.8281 8.92188 15 8 15ZM7.99219 12.0781C8.53906 12.0781 9.02083 11.9245 9.4375 11.6172C9.85417 11.3047 10.1771 10.8698 10.4062 10.3125C10.6354 9.75521 10.75 9.10417 10.75 8.35938C10.75 7.61458 10.6354 6.96354 10.4062 6.40625C10.1771 5.84896 9.85417 5.41667 9.4375 5.10938C9.02083 4.79688 8.53906 4.64062 7.99219 4.64062C7.4401 4.64062 6.95573 4.79688 6.53906 5.10938C6.1276 5.41667 5.80469 5.84896 5.57031 6.40625C5.34115 6.96354 5.22656 7.61458 5.22656 8.35938C5.22656 9.10417 5.34115 9.75521 5.57031 10.3125C5.80469 10.8698 6.1276 11.3047 6.53906 11.6172C6.95573 11.9245 7.4401 12.0781 7.99219 12.0781ZM7.99219 11.0781C7.52344 11.0781 7.14583 10.8281 6.85938 10.3281C6.57292 9.82812 6.42969 9.17188 6.42969 8.35938C6.42969 7.54167 6.57292 6.88542 6.85938 6.39062C7.14583 5.89062 7.52344 5.64062 7.99219 5.64062C8.45573 5.64062 8.83073 5.89062 9.11719 6.39062C9.40885 6.88542 9.55469 7.54167 9.55469 8.35938C9.55469 9.17188 9.40885 9.82812 9.11719 10.3281C8.83073 10.8281 8.45573 11.0781 7.99219 11.0781Z" fill="white"/>
</svg>
