<svg width="16" height="17" viewBox="0 0 16 17" fill="none" xmlns="http://www.w3.org/2000/svg">
<path d="M8 16.3281C9.08854 16.3281 10.112 16.1198 11.0703 15.7031C12.0339 15.2865 12.8828 14.7109 13.6172 13.9766C14.3516 13.2422 14.9271 12.3958 15.3438 11.4375C15.7604 10.474 15.9688 9.44792 15.9688 8.35938C15.9688 7.27083 15.7604 6.2474 15.3438 5.28906C14.9271 4.32552 14.3516 3.47656 13.6172 2.74219C12.8828 2.00781 12.0339 1.43229 11.0703 1.01562C10.1068 0.598958 9.08073 0.390625 7.99219 0.390625C6.90365 0.390625 5.8776 0.598958 4.91406 1.01562C3.95573 1.43229 3.10938 2.00781 2.375 2.74219C1.64583 3.47656 1.07292 4.32552 0.65625 5.28906C0.239583 6.2474 0.03125 7.27083 0.03125 8.35938C0.03125 9.44792 0.239583 10.474 0.65625 11.4375C1.07292 12.3958 1.64844 13.2422 2.38281 13.9766C3.11719 14.7109 3.96354 15.2865 4.92188 15.7031C5.88542 16.1198 6.91146 16.3281 8 16.3281ZM5.19531 11.8359C4.73177 11.8359 4.32812 11.6953 3.98438 11.4141C3.64062 11.1328 3.3724 10.7344 3.17969 10.2188C2.98698 9.69792 2.89062 9.07812 2.89062 8.35938C2.89062 7.64062 2.98698 7.02344 3.17969 6.50781C3.3724 5.98698 3.64062 5.58594 3.98438 5.30469C4.32812 5.02344 4.73177 4.88281 5.19531 4.88281C5.65885 4.88281 6.0625 5.02344 6.40625 5.30469C6.75521 5.58594 7.02344 5.98698 7.21094 6.50781C7.40365 7.02344 7.5 7.64062 7.5 8.35938C7.5 9.07812 7.40365 9.69792 7.21094 10.2188C7.02344 10.7344 6.75521 11.1328 6.40625 11.4141C6.0625 11.6953 5.65885 11.8359 5.19531 11.8359ZM5.19531 10.8516C5.58594 10.8516 5.89062 10.6302 6.10938 10.1875C6.32812 9.73958 6.4375 9.13021 6.4375 8.35938C6.4375 7.58854 6.32552 6.98177 6.10156 6.53906C5.88281 6.09115 5.58073 5.86719 5.19531 5.86719C4.8099 5.86719 4.50521 6.09115 4.28125 6.53906C4.0625 6.98177 3.95312 7.58854 3.95312 8.35938C3.95312 9.13021 4.0625 9.73958 4.28125 10.1875C4.50521 10.6302 4.8099 10.8516 5.19531 10.8516ZM10.7969 11.8359C10.3333 11.8359 9.92708 11.6953 9.57812 11.4141C9.23438 11.1328 8.96615 10.7344 8.77344 10.2188C8.58594 9.69792 8.49219 9.07812 8.49219 8.35938C8.49219 7.64062 8.58594 7.02344 8.77344 6.50781C8.96615 5.98698 9.23438 5.58594 9.57812 5.30469C9.92708 5.02344 10.3333 4.88281 10.7969 4.88281C11.2604 4.88281 11.6641 5.02344 12.0078 5.30469C12.3516 5.58594 12.6198 5.98698 12.8125 6.50781C13.0052 7.02344 13.1016 7.64062 13.1016 8.35938C13.1016 9.07812 13.0052 9.69792 12.8125 10.2188C12.6198 10.7344 12.3516 11.1328 12.0078 11.4141C11.6641 11.6953 11.2604 11.8359 10.7969 11.8359ZM10.7969 10.8516C11.1823 10.8516 11.4844 10.6302 11.7031 10.1875C11.9271 9.73958 12.0391 9.13021 12.0391 8.35938C12.0391 7.58854 11.9271 6.98177 11.7031 6.53906C11.4844 6.09115 11.1823 5.86719 10.7969 5.86719C10.4115 5.86719 10.1068 6.09115 9.88281 6.53906C9.66406 6.98177 9.55469 7.58854 9.55469 8.35938C9.55469 9.13021 9.66406 9.73958 9.88281 10.1875C10.1068 10.6302 10.4115 10.8516 10.7969 10.8516Z" fill="white"/>
</svg>
