<svg width="16" height="15" viewBox="0 0 16 15" fill="none" xmlns="http://www.w3.org/2000/svg">
<path d="M3.25781 14.5625H12.7344C13.5521 14.5625 14.1641 14.3594 14.5703 13.9531C14.9818 13.5521 15.1875 12.9479 15.1875 12.1406V2.60156C15.1875 1.79427 14.9818 1.1901 14.5703 0.789062C14.1641 0.382812 13.5521 0.179688 12.7344 0.179688H3.25781C2.4401 0.179688 1.82552 0.382812 1.41406 0.789062C1.00781 1.1901 0.804688 1.79427 0.804688 2.60156V12.1406C0.804688 12.9479 1.00781 13.5521 1.41406 13.9531C1.82552 14.3594 2.4401 14.5625 3.25781 14.5625ZM3.27344 13.3047C2.88281 13.3047 2.58333 13.2031 2.375 13C2.16667 12.7917 2.0625 12.4844 2.0625 12.0781V2.66406C2.0625 2.25781 2.16667 1.95312 2.375 1.75C2.58333 1.54167 2.88281 1.4375 3.27344 1.4375H12.7188C13.1042 1.4375 13.401 1.54167 13.6094 1.75C13.8229 1.95312 13.9297 2.25781 13.9297 2.66406V12.0781C13.9297 12.4844 13.8229 12.7917 13.6094 13C13.401 13.2031 13.1042 13.3047 12.7188 13.3047H3.27344ZM5.28125 10.7266C5.72917 10.7266 6.11979 10.5911 6.45312 10.3203C6.79167 10.0443 7.05208 9.65625 7.23438 9.15625C7.42188 8.65104 7.51562 8.05208 7.51562 7.35938C7.51562 6.66667 7.42188 6.06771 7.23438 5.5625C7.05208 5.05729 6.79167 4.66927 6.45312 4.39844C6.11979 4.1276 5.72917 3.99219 5.28125 3.99219C4.83333 3.99219 4.4401 4.1276 4.10156 4.39844C3.76823 4.66927 3.50781 5.05729 3.32031 5.5625C3.13802 6.06771 3.04688 6.66667 3.04688 7.35938C3.04688 8.05208 3.13802 8.65104 3.32031 9.15625C3.50781 9.65625 3.76823 10.0443 4.10156 10.3203C4.4401 10.5911 4.83333 10.7266 5.28125 10.7266ZM5.28125 9.78125C4.91146 9.78125 4.61719 9.5651 4.39844 9.13281C4.17969 8.70052 4.07031 8.10938 4.07031 7.35938C4.07031 6.60938 4.17969 6.01823 4.39844 5.58594C4.61719 5.15365 4.91146 4.9375 5.28125 4.9375C5.65625 4.9375 5.95052 5.15365 6.16406 5.58594C6.38281 6.01823 6.49219 6.60938 6.49219 7.35938C6.49219 8.10938 6.38281 8.70052 6.16406 9.13281C5.95052 9.5651 5.65625 9.78125 5.28125 9.78125ZM10.7109 10.7266C11.1589 10.7266 11.5495 10.5911 11.8828 10.3203C12.2214 10.0443 12.4818 9.65625 12.6641 9.15625C12.8516 8.65104 12.9453 8.05208 12.9453 7.35938C12.9453 6.66667 12.8516 6.06771 12.6641 5.5625C12.4818 5.05729 12.2214 4.66927 11.8828 4.39844C11.5495 4.1276 11.1589 3.99219 10.7109 3.99219C10.263 3.99219 9.86979 4.1276 9.53125 4.39844C9.19792 4.66927 8.9375 5.05729 8.75 5.5625C8.56771 6.06771 8.47656 6.66667 8.47656 7.35938C8.47656 8.05208 8.56771 8.65104 8.75 9.15625C8.9375 9.65625 9.19792 10.0443 9.53125 10.3203C9.86979 10.5911 10.263 10.7266 10.7109 10.7266ZM10.7109 9.78125C10.3411 9.78125 10.0469 9.5651 9.82812 9.13281C9.60938 8.70052 9.5 8.10938 9.5 7.35938C9.5 6.60938 9.60938 6.01823 9.82812 5.58594C10.0469 5.15365 10.3411 4.9375 10.7109 4.9375C11.0807 4.9375 11.375 5.15365 11.5938 5.58594C11.8125 6.01823 11.9219 6.60938 11.9219 7.35938C11.9219 8.10938 11.8125 8.70052 11.5938 9.13281C11.3802 9.5651 11.0859 9.78125 10.7109 9.78125Z" fill="white"/>
</svg>
