<svg width="116" height="116" viewBox="0 0 116 116" fill="none" xmlns="http://www.w3.org/2000/svg">
<path d="M20.5625 115.5H96.375C102.917 115.5 107.812 113.875 111.062 110.625C114.354 107.417 116 102.583 116 96.125V19.8125C116 13.3542 114.354 8.52083 111.062 5.3125C107.812 2.0625 102.917 0.4375 96.375 0.4375H20.5625C14.0208 0.4375 9.10417 2.0625 5.8125 5.3125C2.5625 8.52083 0.9375 13.3542 0.9375 19.8125V96.125C0.9375 102.583 2.5625 107.417 5.8125 110.625C9.10417 113.875 14.0208 115.5 20.5625 115.5ZM20.6875 105.438C17.5625 105.438 15.1667 104.625 13.5 103C11.8333 101.333 11 98.875 11 95.625V20.3125C11 17.0625 11.8333 14.625 13.5 13C15.1667 11.3333 17.5625 10.5 20.6875 10.5H96.25C99.3333 10.5 101.708 11.3333 103.375 13C105.083 14.625 105.938 17.0625 105.938 20.3125V95.625C105.938 98.875 105.083 101.333 103.375 103C101.708 104.625 99.3333 105.438 96.25 105.438H20.6875ZM36.75 84.8125C40.3333 84.8125 43.4583 83.7292 46.125 81.5625C48.8333 79.3542 50.9167 76.25 52.375 72.25C53.875 68.2083 54.625 63.4167 54.625 57.875C54.625 52.3333 53.875 47.5417 52.375 43.5C50.9167 39.4583 48.8333 36.3542 46.125 34.1875C43.4583 32.0208 40.3333 30.9375 36.75 30.9375C33.1667 30.9375 30.0208 32.0208 27.3125 34.1875C24.6458 36.3542 22.5625 39.4583 21.0625 43.5C19.6042 47.5417 18.875 52.3333 18.875 57.875C18.875 63.4167 19.6042 68.2083 21.0625 72.25C22.5625 76.25 24.6458 79.3542 27.3125 81.5625C30.0208 83.7292 33.1667 84.8125 36.75 84.8125ZM36.75 77.25C33.7917 77.25 31.4375 75.5208 29.6875 72.0625C27.9375 68.6042 27.0625 63.875 27.0625 57.875C27.0625 51.875 27.9375 47.1458 29.6875 43.6875C31.4375 40.2292 33.7917 38.5 36.75 38.5C39.75 38.5 42.1042 40.2292 43.8125 43.6875C45.5625 47.1458 46.4375 51.875 46.4375 57.875C46.4375 63.875 45.5625 68.6042 43.8125 72.0625C42.1042 75.5208 39.75 77.25 36.75 77.25ZM80.1875 84.8125C83.7708 84.8125 86.8958 83.7292 89.5625 81.5625C92.2708 79.3542 94.3542 76.25 95.8125 72.25C97.3125 68.2083 98.0625 63.4167 98.0625 57.875C98.0625 52.3333 97.3125 47.5417 95.8125 43.5C94.3542 39.4583 92.2708 36.3542 89.5625 34.1875C86.8958 32.0208 83.7708 30.9375 80.1875 30.9375C76.6042 30.9375 73.4583 32.0208 70.75 34.1875C68.0833 36.3542 66 39.4583 64.5 43.5C63.0417 47.5417 62.3125 52.3333 62.3125 57.875C62.3125 63.4167 63.0417 68.2083 64.5 72.25C66 76.25 68.0833 79.3542 70.75 81.5625C73.4583 83.7292 76.6042 84.8125 80.1875 84.8125ZM80.1875 77.25C77.2292 77.25 74.875 75.5208 73.125 72.0625C71.375 68.6042 70.5 63.875 70.5 57.875C70.5 51.875 71.375 47.1458 73.125 43.6875C74.875 40.2292 77.2292 38.5 80.1875 38.5C83.1458 38.5 85.5 40.2292 87.25 43.6875C89 47.1458 89.875 51.875 89.875 57.875C89.875 63.875 89 68.6042 87.25 72.0625C85.5417 75.5208 83.1875 77.25 80.1875 77.25Z" fill="white"/>
</svg>
