<svg width="16" height="15" viewBox="0 0 16 15" fill="none" xmlns="http://www.w3.org/2000/svg">
<path d="M3.25781 14.5625H12.7344C13.5521 14.5625 14.1641 14.3594 14.5703 13.9531C14.9818 13.5521 15.1875 12.9479 15.1875 12.1406V2.60156C15.1875 1.79427 14.9818 1.1901 14.5703 0.789062C14.1641 0.382812 13.5521 0.179688 12.7344 0.179688H3.25781C2.4401 0.179688 1.82552 0.382812 1.41406 0.789062C1.00781 1.1901 0.804688 1.79427 0.804688 2.60156V12.1406C0.804688 12.9479 1.00781 13.5521 1.41406 13.9531C1.82552 14.3594 2.4401 14.5625 3.25781 14.5625ZM5.85938 10.8359C5.39583 10.8359 4.99219 10.6953 4.64844 10.4141C4.30469 10.1328 4.03646 9.73438 3.84375 9.21875C3.65104 8.69792 3.55469 8.07812 3.55469 7.35938C3.55469 6.64062 3.65104 6.02344 3.84375 5.50781C4.03646 4.98698 4.30469 4.58594 4.64844 4.30469C4.99219 4.02344 5.39583 3.88281 5.85938 3.88281C6.32292 3.88281 6.72656 4.02344 7.07031 4.30469C7.41927 4.58594 7.6875 4.98698 7.875 5.50781C8.06771 6.02344 8.16406 6.64062 8.16406 7.35938C8.16406 8.07812 8.06771 8.69792 7.875 9.21875C7.6875 9.73438 7.41927 10.1328 7.07031 10.4141C6.72656 10.6953 6.32292 10.8359 5.85938 10.8359ZM5.85938 9.85156C6.25 9.85156 6.55469 9.63021 6.77344 9.1875C6.9974 8.73958 7.10938 8.13021 7.10938 7.35938C7.10938 6.58854 6.9974 5.98177 6.77344 5.53906C6.54948 5.09115 6.24479 4.86719 5.85938 4.86719C5.47917 4.86719 5.17708 5.09115 4.95312 5.53906C4.72917 5.98177 4.61719 6.58854 4.61719 7.35938C4.61719 8.13021 4.72917 8.73958 4.95312 9.1875C5.17708 9.63021 5.47917 9.85156 5.85938 9.85156ZM11.4609 10.7344C11.3099 10.7344 11.1875 10.6875 11.0938 10.5938C11.0052 10.5 10.9609 10.375 10.9609 10.2188V5.21875H10.9141L10.0547 5.85156C9.96094 5.92448 9.88802 5.96875 9.83594 5.98438C9.78385 6 9.72656 6.00781 9.66406 6.00781C9.54427 6.00781 9.4349 5.96094 9.33594 5.86719C9.24219 5.77344 9.19531 5.65885 9.19531 5.52344C9.19531 5.33594 9.28646 5.17708 9.46875 5.04688L10.6953 4.21094C10.8359 4.11198 10.9557 4.04167 11.0547 4C11.1536 3.95833 11.2708 3.9375 11.4062 3.9375C11.5729 3.9375 11.7083 3.99219 11.8125 4.10156C11.9219 4.21094 11.9766 4.34896 11.9766 4.51562V10.2188C11.9766 10.375 11.9297 10.5 11.8359 10.5938C11.7422 10.6875 11.6172 10.7344 11.4609 10.7344Z" fill="white"/>
</svg>
