<svg width="128" height="128" viewBox="0 0 128 128" fill="none" xmlns="http://www.w3.org/2000/svg">
<path d="M63.9375 127.562C72.6458 127.562 80.8333 125.896 88.5 122.562C96.2083 119.229 103 114.625 108.875 108.75C114.75 102.875 119.354 96.1042 122.688 88.4375C126.021 80.7292 127.688 72.5208 127.688 63.8125C127.688 55.1042 126.021 46.9167 122.688 39.25C119.354 31.5417 114.75 24.75 108.875 18.875C103 13 96.2083 8.39583 88.5 5.0625C80.7917 1.72917 72.5833 0.0625 63.875 0.0625C55.1667 0.0625 46.9583 1.72917 39.25 5.0625C31.5833 8.39583 24.8125 13 18.9375 18.875C13.1042 24.75 8.52083 31.5417 5.1875 39.25C1.85417 46.9167 0.1875 55.1042 0.1875 63.8125C0.1875 72.5208 1.85417 80.7292 5.1875 88.4375C8.52083 96.1042 13.125 102.875 19 108.75C24.875 114.625 31.6458 119.229 39.3125 122.562C47.0208 125.896 55.2292 127.562 63.9375 127.562ZM42.25 91.625C38.5417 91.625 35.3125 90.5 32.5625 88.25C29.8125 86 27.6667 82.8125 26.125 78.6875C24.5833 74.5208 23.8125 69.5625 23.8125 63.8125C23.8125 58.0625 24.5833 53.125 26.125 49C27.6667 44.8333 29.8125 41.625 32.5625 39.375C35.3125 37.125 38.5417 36 42.25 36C45.9583 36 49.1875 37.125 51.9375 39.375C54.7292 41.625 56.875 44.8333 58.375 49C59.9167 53.125 60.6875 58.0625 60.6875 63.8125C60.6875 69.5625 59.9167 74.5208 58.375 78.6875C56.875 82.8125 54.7292 86 51.9375 88.25C49.1875 90.5 45.9583 91.625 42.25 91.625ZM42.25 83.75C45.375 83.75 47.8125 81.9792 49.5625 78.4375C51.3542 74.8542 52.25 69.9792 52.25 63.8125C52.25 57.6458 51.3542 52.7917 49.5625 49.25C47.7708 45.6667 45.3333 43.875 42.25 43.875C39.2083 43.875 36.7917 45.6667 35 49.25C33.2083 52.7917 32.3125 57.6458 32.3125 63.8125C32.3125 69.9792 33.2083 74.8542 35 78.4375C36.7917 81.9792 39.2083 83.75 42.25 83.75ZM85.625 91.625C81.25 91.625 77.4792 90.4792 74.3125 88.1875C71.1875 85.8958 69.1875 83.2708 68.3125 80.3125C68.2292 79.8958 68.1458 79.5208 68.0625 79.1875C68.0208 78.8125 68 78.3958 68 77.9375C68 76.8125 68.3542 75.8958 69.0625 75.1875C69.7708 74.4375 70.6667 74.0625 71.75 74.0625C73.4167 74.0625 74.6458 75.0833 75.4375 77.125C76.3125 79.375 77.6042 81.1042 79.3125 82.3125C81.0625 83.5208 83.1875 84.125 85.6875 84.125C88.8125 84.125 91.3333 83.2917 93.25 81.625C95.2083 79.9583 96.1875 77.875 96.1875 75.375C96.1875 72.75 95.2708 70.6458 93.4375 69.0625C91.6458 67.4792 89.2292 66.6875 86.1875 66.6875H82.375C81.3333 66.6875 80.4792 66.3333 79.8125 65.625C79.1875 64.9167 78.875 64.0417 78.875 63C78.875 61.8333 79.1875 60.8958 79.8125 60.1875C80.4792 59.4792 81.3333 59.125 82.375 59.125H85.8125C88.3958 59.125 90.5 58.375 92.125 56.875C93.75 55.3333 94.5625 53.3958 94.5625 51.0625C94.5625 48.8125 93.75 47 92.125 45.625C90.5417 44.2083 88.4792 43.5 85.9375 43.5C83.3958 43.5 81.3333 44.1042 79.75 45.3125C78.2083 46.5208 77.0833 48.25 76.375 50.5C76.0417 51.5417 75.5833 52.3125 75 52.8125C74.4583 53.3125 73.7083 53.5625 72.75 53.5625C71.625 53.5625 70.7292 53.2083 70.0625 52.5C69.3958 51.75 69.0625 50.7917 69.0625 49.625C69.0625 48.6667 69.125 47.8958 69.25 47.3125C70.0833 44.1458 72 41.4792 75 39.3125C78.0417 37.1042 81.75 36 86.125 36C90.9167 36 94.8542 37.3125 97.9375 39.9375C101.021 42.5208 102.562 45.875 102.562 50C102.562 53.0417 101.625 55.75 99.75 58.125C97.9167 60.5 95.6667 61.8958 93 62.3125V62.6875C96.25 63.0208 98.9375 64.4167 101.062 66.875C103.229 69.3333 104.312 72.2917 104.312 75.75C104.312 80.375 102.562 84.1875 99.0625 87.1875C95.6042 90.1458 91.125 91.625 85.625 91.625Z" fill="white"/>
</svg>
