<?xml version="1.0" encoding="UTF-8"?>
<svg xmlns="http://www.w3.org/2000/svg" xmlns:xlink="http://www.w3.org/1999/xlink" width="24" height="25.5" viewBox="0 0 24 25.5" version="1.1">
<g id="surface1">
<path style=" stroke:none;fill-rule:nonzero;fill:rgb(100%,100%,100%);fill-opacity:1;" d="M 12 24.492188 C 13.632812 24.492188 15.167969 24.179688 16.605469 23.554688 C 18.050781 22.929688 19.324219 22.066406 20.425781 20.964844 C 21.527344 19.863281 22.390625 18.59375 23.015625 17.15625 C 23.640625 15.710938 23.953125 14.171875 23.953125 12.539062 C 23.953125 10.90625 23.640625 9.371094 23.015625 7.933594 C 22.390625 6.488281 21.527344 5.214844 20.425781 4.113281 C 19.324219 3.011719 18.050781 2.148438 16.605469 1.523438 C 15.160156 0.898438 13.621094 0.585938 11.988281 0.585938 C 10.355469 0.585938 8.816406 0.898438 7.371094 1.523438 C 5.933594 2.148438 4.664062 3.011719 3.5625 4.113281 C 2.46875 5.214844 1.609375 6.488281 0.984375 7.933594 C 0.359375 9.371094 0.046875 10.90625 0.046875 12.539062 C 0.046875 14.171875 0.359375 15.710938 0.984375 17.15625 C 1.609375 18.59375 2.472656 19.863281 3.574219 20.964844 C 4.675781 22.066406 5.945312 22.929688 7.382812 23.554688 C 8.828125 24.179688 10.367188 24.492188 12 24.492188 Z M 12 22.5 C 10.617188 22.5 9.324219 22.242188 8.121094 21.726562 C 6.917969 21.210938 5.859375 20.5 4.945312 19.59375 C 4.039062 18.679688 3.328125 17.621094 2.8125 16.417969 C 2.304688 15.214844 2.050781 13.921875 2.050781 12.539062 C 2.050781 11.15625 2.304688 9.863281 2.8125 8.660156 C 3.328125 7.457031 4.039062 6.398438 4.945312 5.484375 C 5.851562 4.570312 6.90625 3.859375 8.109375 3.351562 C 9.3125 2.835938 10.605469 2.578125 11.988281 2.578125 C 13.371094 2.578125 14.664062 2.835938 15.867188 3.351562 C 17.078125 3.859375 18.136719 4.570312 19.042969 5.484375 C 19.957031 6.398438 20.671875 7.457031 21.1875 8.660156 C 21.703125 9.863281 21.960938 11.15625 21.960938 12.539062 C 21.960938 13.921875 21.703125 15.214844 21.1875 16.417969 C 20.679688 17.621094 19.96875 18.679688 19.054688 19.59375 C 18.140625 20.5 17.082031 21.210938 15.878906 21.726562 C 14.675781 22.242188 13.382812 22.5 12 22.5 Z M 8.050781 17.589844 C 8.722656 17.589844 9.308594 17.386719 9.808594 16.980469 C 10.316406 16.566406 10.707031 15.984375 10.980469 15.234375 C 11.261719 14.476562 11.402344 13.578125 11.402344 12.539062 C 11.402344 11.5 11.261719 10.601562 10.980469 9.84375 C 10.707031 9.085938 10.316406 8.503906 9.808594 8.097656 C 9.308594 7.691406 8.722656 7.488281 8.050781 7.488281 C 7.378906 7.488281 6.789062 7.691406 6.28125 8.097656 C 5.78125 8.503906 5.390625 9.085938 5.109375 9.84375 C 4.835938 10.601562 4.699219 11.5 4.699219 12.539062 C 4.699219 13.578125 4.835938 14.476562 5.109375 15.234375 C 5.390625 15.984375 5.78125 16.566406 6.28125 16.980469 C 6.789062 17.386719 7.378906 17.589844 8.050781 17.589844 Z M 8.050781 16.171875 C 7.496094 16.171875 7.054688 15.847656 6.726562 15.199219 C 6.398438 14.550781 6.234375 13.664062 6.234375 12.539062 C 6.234375 11.414062 6.398438 10.527344 6.726562 9.878906 C 7.054688 9.230469 7.496094 8.90625 8.050781 8.90625 C 8.613281 8.90625 9.054688 9.230469 9.375 9.878906 C 9.703125 10.527344 9.867188 11.414062 9.867188 12.539062 C 9.867188 13.664062 9.703125 14.550781 9.375 15.199219 C 9.054688 15.847656 8.613281 16.171875 8.050781 16.171875 Z M 15.9375 17.589844 C 16.9375 17.589844 17.75 17.320312 18.375 16.78125 C 19.007812 16.242188 19.324219 15.550781 19.324219 14.707031 C 19.324219 14.082031 19.128906 13.546875 18.738281 13.101562 C 18.355469 12.648438 17.867188 12.394531 17.273438 12.339844 L 17.273438 12.269531 C 17.757812 12.191406 18.167969 11.9375 18.503906 11.507812 C 18.839844 11.070312 19.007812 10.578125 19.007812 10.03125 C 19.007812 9.28125 18.726562 8.671875 18.164062 8.203125 C 17.609375 7.726562 16.894531 7.488281 16.019531 7.488281 C 15.230469 7.488281 14.558594 7.6875 14.003906 8.085938 C 13.457031 8.484375 13.109375 8.96875 12.960938 9.539062 C 12.9375 9.648438 12.925781 9.789062 12.925781 9.960938 C 12.925781 10.171875 12.984375 10.34375 13.101562 10.476562 C 13.226562 10.609375 13.390625 10.675781 13.59375 10.675781 C 13.765625 10.675781 13.902344 10.628906 14.003906 10.535156 C 14.105469 10.441406 14.1875 10.300781 14.25 10.113281 C 14.375 9.699219 14.582031 9.382812 14.871094 9.164062 C 15.160156 8.945312 15.53125 8.835938 15.984375 8.835938 C 16.453125 8.835938 16.832031 8.964844 17.121094 9.222656 C 17.417969 9.472656 17.566406 9.804688 17.566406 10.21875 C 17.566406 10.648438 17.417969 11.003906 17.121094 11.285156 C 16.824219 11.558594 16.441406 11.695312 15.972656 11.695312 L 15.339844 11.695312 C 15.152344 11.695312 15 11.757812 14.882812 11.882812 C 14.765625 12.007812 14.707031 12.175781 14.707031 12.386719 C 14.707031 12.574219 14.765625 12.734375 14.882812 12.867188 C 15 12.992188 15.152344 13.054688 15.339844 13.054688 L 16.03125 13.054688 C 16.585938 13.054688 17.027344 13.199219 17.355469 13.488281 C 17.691406 13.777344 17.859375 14.160156 17.859375 14.636719 C 17.859375 15.089844 17.679688 15.472656 17.320312 15.785156 C 16.96875 16.089844 16.511719 16.242188 15.949219 16.242188 C 15.488281 16.242188 15.097656 16.132812 14.777344 15.914062 C 14.464844 15.6875 14.230469 15.371094 14.074219 14.964844 C 13.933594 14.589844 13.710938 14.402344 13.40625 14.402344 C 13.210938 14.402344 13.046875 14.46875 12.914062 14.601562 C 12.789062 14.734375 12.726562 14.902344 12.726562 15.105469 C 12.726562 15.191406 12.730469 15.265625 12.738281 15.328125 C 12.753906 15.390625 12.769531 15.460938 12.785156 15.539062 C 12.941406 16.078125 13.304688 16.554688 13.875 16.96875 C 14.453125 17.382812 15.140625 17.589844 15.9375 17.589844 Z M 15.9375 17.589844 "/>
</g>
</svg>
