<svg width="116" height="116" viewBox="0 0 116 116" fill="none" xmlns="http://www.w3.org/2000/svg">
<path d="M20.5625 115.5H96.375C102.917 115.5 107.812 113.875 111.062 110.625C114.354 107.417 116 102.583 116 96.125V19.8125C116 13.3542 114.354 8.52083 111.062 5.3125C107.812 2.0625 102.917 0.4375 96.375 0.4375H20.5625C14.0208 0.4375 9.10417 2.0625 5.8125 5.3125C2.5625 8.52083 0.9375 13.3542 0.9375 19.8125V96.125C0.9375 102.583 2.5625 107.417 5.8125 110.625C9.10417 113.875 14.0208 115.5 20.5625 115.5ZM36.8125 85.6875C33.1042 85.6875 29.875 84.5625 27.125 82.3125C24.375 80.0625 22.2292 76.875 20.6875 72.75C19.1458 68.5833 18.375 63.625 18.375 57.875C18.375 52.125 19.1458 47.1875 20.6875 43.0625C22.2292 38.8958 24.375 35.6875 27.125 33.4375C29.875 31.1875 33.1042 30.0625 36.8125 30.0625C40.5208 30.0625 43.75 31.1875 46.5 33.4375C49.2917 35.6875 51.4375 38.8958 52.9375 43.0625C54.4792 47.1875 55.25 52.125 55.25 57.875C55.25 63.625 54.4792 68.5833 52.9375 72.75C51.4375 76.875 49.2917 80.0625 46.5 82.3125C43.75 84.5625 40.5208 85.6875 36.8125 85.6875ZM36.8125 77.8125C39.9375 77.8125 42.375 76.0417 44.125 72.5C45.9167 68.9167 46.8125 64.0417 46.8125 57.875C46.8125 51.7083 45.9167 46.8542 44.125 43.3125C42.3333 39.7292 39.8958 37.9375 36.8125 37.9375C33.7708 37.9375 31.3542 39.7292 29.5625 43.3125C27.7708 46.8542 26.875 51.7083 26.875 57.875C26.875 64.0417 27.7708 68.9167 29.5625 72.5C31.3542 76.0417 33.7708 77.8125 36.8125 77.8125ZM80.1875 85.6875C75.8125 85.6875 72.0417 84.5417 68.875 82.25C65.75 79.9583 63.75 77.3333 62.875 74.375C62.7917 73.9583 62.7083 73.5833 62.625 73.25C62.5833 72.875 62.5625 72.4583 62.5625 72C62.5625 70.875 62.9167 69.9583 63.625 69.25C64.3333 68.5 65.2292 68.125 66.3125 68.125C67.9792 68.125 69.2083 69.1458 70 71.1875C70.875 73.4375 72.1667 75.1667 73.875 76.375C75.625 77.5833 77.75 78.1875 80.25 78.1875C83.375 78.1875 85.8958 77.3542 87.8125 75.6875C89.7708 74.0208 90.75 71.9375 90.75 69.4375C90.75 66.8125 89.8333 64.7083 88 63.125C86.2083 61.5417 83.7917 60.75 80.75 60.75H76.9375C75.8958 60.75 75.0417 60.3958 74.375 59.6875C73.75 58.9792 73.4375 58.1042 73.4375 57.0625C73.4375 55.8958 73.75 54.9583 74.375 54.25C75.0417 53.5417 75.8958 53.1875 76.9375 53.1875H80.375C82.9583 53.1875 85.0625 52.4375 86.6875 50.9375C88.3125 49.3958 89.125 47.4583 89.125 45.125C89.125 42.875 88.3125 41.0625 86.6875 39.6875C85.1042 38.2708 83.0417 37.5625 80.5 37.5625C77.9583 37.5625 75.8958 38.1667 74.3125 39.375C72.7708 40.5833 71.6458 42.3125 70.9375 44.5625C70.6042 45.6042 70.1458 46.375 69.5625 46.875C69.0208 47.375 68.2708 47.625 67.3125 47.625C66.1875 47.625 65.2917 47.2708 64.625 46.5625C63.9583 45.8125 63.625 44.8542 63.625 43.6875C63.625 42.7292 63.6875 41.9583 63.8125 41.375C64.6458 38.2083 66.5625 35.5417 69.5625 33.375C72.6042 31.1667 76.3125 30.0625 80.6875 30.0625C85.4792 30.0625 89.4167 31.375 92.5 34C95.5833 36.5833 97.125 39.9375 97.125 44.0625C97.125 47.1042 96.1875 49.8125 94.3125 52.1875C92.4792 54.5625 90.2292 55.9583 87.5625 56.375V56.75C90.8125 57.0833 93.5 58.4792 95.625 60.9375C97.7917 63.3958 98.875 66.3542 98.875 69.8125C98.875 74.4375 97.125 78.25 93.625 81.25C90.1667 84.2083 85.6875 85.6875 80.1875 85.6875Z" fill="white"/>
</svg>
