<?xml version="1.0" encoding="UTF-8"?>
<svg xmlns="http://www.w3.org/2000/svg" xmlns:xlink="http://www.w3.org/1999/xlink" width="24" height="22.5" viewBox="0 0 24 22.5" version="1.1">
<g id="surface1">
<path style=" stroke:none;fill-rule:nonzero;fill:rgb(100%,100%,100%);fill-opacity:1;" d="M 4.886719 21.84375 L 19.101562 21.84375 C 20.328125 21.84375 21.246094 21.539062 21.855469 20.929688 C 22.472656 20.328125 22.78125 19.421875 22.78125 18.210938 L 22.78125 3.902344 C 22.78125 2.691406 22.472656 1.785156 21.855469 1.183594 C 21.246094 0.574219 20.328125 0.269531 19.101562 0.269531 L 4.886719 0.269531 C 3.660156 0.269531 2.738281 0.574219 2.121094 1.183594 C 1.511719 1.785156 1.207031 2.691406 1.207031 3.902344 L 1.207031 18.210938 C 1.207031 19.421875 1.511719 20.328125 2.121094 20.929688 C 2.738281 21.539062 3.660156 21.84375 4.886719 21.84375 Z M 4.910156 19.957031 C 4.324219 19.957031 3.875 19.804688 3.5625 19.5 C 3.25 19.1875 3.09375 18.726562 3.09375 18.117188 L 3.09375 3.996094 C 3.09375 3.386719 3.25 2.929688 3.5625 2.625 C 3.875 2.3125 4.324219 2.15625 4.910156 2.15625 L 19.078125 2.15625 C 19.65625 2.15625 20.101562 2.3125 20.414062 2.625 C 20.734375 2.929688 20.894531 3.386719 20.894531 3.996094 L 20.894531 18.117188 C 20.894531 18.726562 20.734375 19.1875 20.414062 19.5 C 20.101562 19.804688 19.65625 19.957031 19.078125 19.957031 Z M 8.039062 16.089844 C 8.710938 16.089844 9.296875 15.886719 9.796875 15.480469 C 10.304688 15.066406 10.695312 14.484375 10.96875 13.734375 C 11.25 12.976562 11.390625 12.078125 11.390625 11.039062 C 11.390625 10 11.25 9.101562 10.96875 8.34375 C 10.695312 7.585938 10.304688 7.003906 9.796875 6.597656 C 9.296875 6.191406 8.710938 5.988281 8.039062 5.988281 C 7.367188 5.988281 6.777344 6.191406 6.269531 6.597656 C 5.769531 7.003906 5.378906 7.585938 5.097656 8.34375 C 4.824219 9.101562 4.6875 10 4.6875 11.039062 C 4.6875 12.078125 4.824219 12.976562 5.097656 13.734375 C 5.378906 14.484375 5.769531 15.066406 6.269531 15.480469 C 6.777344 15.886719 7.367188 16.089844 8.039062 16.089844 Z M 8.039062 14.671875 C 7.484375 14.671875 7.042969 14.347656 6.714844 13.699219 C 6.386719 13.050781 6.222656 12.164062 6.222656 11.039062 C 6.222656 9.914062 6.386719 9.027344 6.714844 8.378906 C 7.042969 7.730469 7.484375 7.40625 8.039062 7.40625 C 8.601562 7.40625 9.042969 7.730469 9.363281 8.378906 C 9.691406 9.027344 9.855469 9.914062 9.855469 11.039062 C 9.855469 12.164062 9.691406 13.050781 9.363281 13.699219 C 9.042969 14.347656 8.601562 14.671875 8.039062 14.671875 Z M 15.984375 16.089844 C 17.015625 16.089844 17.84375 15.792969 18.46875 15.199219 C 19.101562 14.605469 19.417969 13.792969 19.417969 12.761719 C 19.417969 11.863281 19.136719 11.121094 18.574219 10.535156 C 18.019531 9.941406 17.289062 9.644531 16.382812 9.644531 C 15.992188 9.644531 15.609375 9.730469 15.234375 9.902344 C 14.859375 10.074219 14.585938 10.292969 14.414062 10.558594 L 14.367188 10.558594 L 14.578125 7.546875 L 18.457031 7.546875 C 18.621094 7.546875 18.757812 7.484375 18.867188 7.359375 C 18.984375 7.234375 19.042969 7.078125 19.042969 6.890625 C 19.042969 6.703125 18.988281 6.546875 18.878906 6.421875 C 18.769531 6.296875 18.628906 6.234375 18.457031 6.234375 L 14.4375 6.234375 C 14.125 6.234375 13.871094 6.324219 13.675781 6.503906 C 13.488281 6.683594 13.386719 6.925781 13.371094 7.230469 L 13.078125 10.886719 C 13.0625 11.191406 13.128906 11.4375 13.277344 11.625 C 13.425781 11.804688 13.636719 11.894531 13.910156 11.894531 C 14.089844 11.894531 14.246094 11.867188 14.378906 11.8125 C 14.511719 11.757812 14.671875 11.652344 14.859375 11.496094 C 15.101562 11.285156 15.324219 11.132812 15.527344 11.039062 C 15.738281 10.945312 15.972656 10.898438 16.230469 10.898438 C 16.746094 10.898438 17.164062 11.082031 17.484375 11.449219 C 17.804688 11.808594 17.964844 12.257812 17.964844 12.796875 C 17.964844 13.40625 17.789062 13.886719 17.4375 14.238281 C 17.085938 14.589844 16.625 14.765625 16.054688 14.765625 C 15.65625 14.765625 15.292969 14.667969 14.964844 14.472656 C 14.644531 14.269531 14.402344 13.992188 14.238281 13.640625 C 14.152344 13.46875 14.050781 13.34375 13.933594 13.265625 C 13.816406 13.179688 13.691406 13.136719 13.558594 13.136719 C 13.363281 13.136719 13.203125 13.203125 13.078125 13.335938 C 12.960938 13.460938 12.902344 13.621094 12.902344 13.816406 C 12.902344 13.910156 12.910156 14.003906 12.925781 14.097656 C 12.949219 14.183594 12.976562 14.265625 13.007812 14.34375 C 13.179688 14.828125 13.535156 15.242188 14.074219 15.585938 C 14.613281 15.921875 15.25 16.089844 15.984375 16.089844 Z M 15.984375 16.089844 "/>
</g>
</svg>
