<svg width="116" height="116" viewBox="0 0 116 116" fill="none" xmlns="http://www.w3.org/2000/svg">
<path d="M20.5625 115.5H96.375C102.917 115.5 107.812 113.875 111.062 110.625C114.354 107.417 116 102.583 116 96.125V19.8125C116 13.3542 114.354 8.52083 111.062 5.3125C107.812 2.0625 102.917 0.4375 96.375 0.4375H20.5625C14.0208 0.4375 9.10417 2.0625 5.8125 5.3125C2.5625 8.52083 0.9375 13.3542 0.9375 19.8125V96.125C0.9375 102.583 2.5625 107.417 5.8125 110.625C9.10417 113.875 14.0208 115.5 20.5625 115.5ZM20.6875 105.438C17.5625 105.438 15.1667 104.625 13.5 103C11.8333 101.333 11 98.875 11 95.625V20.3125C11 17.0625 11.8333 14.625 13.5 13C15.1667 11.3333 17.5625 10.5 20.6875 10.5H96.25C99.3333 10.5 101.708 11.3333 103.375 13C105.083 14.625 105.938 17.0625 105.938 20.3125V95.625C105.938 98.875 105.083 101.333 103.375 103C101.708 104.625 99.3333 105.438 96.25 105.438H20.6875ZM37.375 84.8125C40.9583 84.8125 44.0833 83.7292 46.75 81.5625C49.4583 79.3542 51.5417 76.25 53 72.25C54.5 68.2083 55.25 63.4167 55.25 57.875C55.25 52.3333 54.5 47.5417 53 43.5C51.5417 39.4583 49.4583 36.3542 46.75 34.1875C44.0833 32.0208 40.9583 30.9375 37.375 30.9375C33.7917 30.9375 30.6458 32.0208 27.9375 34.1875C25.2708 36.3542 23.1875 39.4583 21.6875 43.5C20.2292 47.5417 19.5 52.3333 19.5 57.875C19.5 63.4167 20.2292 68.2083 21.6875 72.25C23.1875 76.25 25.2708 79.3542 27.9375 81.5625C30.6458 83.7292 33.7917 84.8125 37.375 84.8125ZM37.375 77.25C34.4167 77.25 32.0625 75.5208 30.3125 72.0625C28.5625 68.6042 27.6875 63.875 27.6875 57.875C27.6875 51.875 28.5625 47.1458 30.3125 43.6875C32.0625 40.2292 34.4167 38.5 37.375 38.5C40.375 38.5 42.7292 40.2292 44.4375 43.6875C46.1875 47.1458 47.0625 51.875 47.0625 57.875C47.0625 63.875 46.1875 68.6042 44.4375 72.0625C42.7292 75.5208 40.375 77.25 37.375 77.25ZM79.75 84.8125C85.25 84.8125 89.6667 83.2292 93 80.0625C96.375 76.8958 98.0625 72.5625 98.0625 67.0625C98.0625 62.2708 96.5625 58.3125 93.5625 55.1875C90.6042 52.0208 86.7083 50.4375 81.875 50.4375C79.7917 50.4375 77.75 50.8958 75.75 51.8125C73.75 52.7292 72.2917 53.8958 71.375 55.3125H71.125L72.25 39.25H92.9375C93.8125 39.25 94.5417 38.9167 95.125 38.25C95.75 37.5833 96.0625 36.75 96.0625 35.75C96.0625 34.75 95.7708 33.9167 95.1875 33.25C94.6042 32.5833 93.8542 32.25 92.9375 32.25H71.5C69.8333 32.25 68.4792 32.7292 67.4375 33.6875C66.4375 34.6458 65.8958 35.9375 65.8125 37.5625L64.25 57.0625C64.1667 58.6875 64.5208 60 65.3125 61C66.1042 61.9583 67.2292 62.4375 68.6875 62.4375C69.6458 62.4375 70.4792 62.2917 71.1875 62C71.8958 61.7083 72.75 61.1458 73.75 60.3125C75.0417 59.1875 76.2292 58.375 77.3125 57.875C78.4375 57.375 79.6875 57.125 81.0625 57.125C83.8125 57.125 86.0417 58.1042 87.75 60.0625C89.4583 61.9792 90.3125 64.375 90.3125 67.25C90.3125 70.5 89.375 73.0625 87.5 74.9375C85.625 76.8125 83.1667 77.75 80.125 77.75C78 77.75 76.0625 77.2292 74.3125 76.1875C72.6042 75.1042 71.3125 73.625 70.4375 71.75C69.9792 70.8333 69.4375 70.1667 68.8125 69.75C68.1875 69.2917 67.5208 69.0625 66.8125 69.0625C65.7708 69.0625 64.9167 69.4167 64.25 70.125C63.625 70.7917 63.3125 71.6458 63.3125 72.6875C63.3125 73.1875 63.3542 73.6875 63.4375 74.1875C63.5625 74.6458 63.7083 75.0833 63.875 75.5C64.7917 78.0833 66.6875 80.2917 69.5625 82.125C72.4375 83.9167 75.8333 84.8125 79.75 84.8125Z" fill="white"/>
</svg>
