<svg xmlns="http://www.w3.org/2000/svg" width="24" height="24"><path style="stroke:none;fill-rule:nonzero;fill:#fff;fill-opacity:1" d="M4.887 23.3h14.215c1.226 0 2.144-.323 2.753-.976.618-.64.926-1.605.926-2.898V4.164c0-1.293-.308-2.258-.926-2.898-.609-.653-1.527-.977-2.753-.977H4.887c-1.227 0-2.149.324-2.766.977-.61.64-.914 1.605-.914 2.898v15.262c0 1.293.305 2.258.914 2.902.617.649 1.54.973 2.766.973Zm.023-2.01c-.586 0-1.035-.165-1.348-.49-.312-.335-.468-.823-.468-1.476V4.262c0-.649.156-1.137.469-1.461.312-.336.761-.5 1.347-.5h14.168c.578 0 1.024.164 1.336.5.32.324.48.812.48 1.46v15.063c0 .653-.16 1.14-.48 1.477-.312.324-.758.488-1.336.488Zm3.13-4.126a2.6 2.6 0 0 0 1.757-.652c.508-.442.898-1.063 1.172-1.864.281-.804.422-1.765.422-2.875 0-1.105-.141-2.066-.422-2.875-.274-.808-.664-1.425-1.172-1.859a2.593 2.593 0 0 0-1.758-.652 2.622 2.622 0 0 0-1.77.652c-.5.434-.89 1.05-1.171 1.86-.274.808-.41 1.769-.41 2.874 0 1.11.136 2.07.41 2.875.28.801.672 1.422 1.172 1.864.5.43 1.128.66 1.77.652Zm0-1.516c-.556 0-.997-.343-1.325-1.035-.328-.691-.492-1.636-.492-2.84 0-1.199.164-2.144.492-2.835.328-.692.77-1.04 1.324-1.04.563 0 1.004.348 1.324 1.04.328.69.492 1.636.492 2.835 0 1.204-.164 2.149-.492 2.84-.32.692-.761 1.035-1.324 1.035Zm7.944 1.516c1.032 0 1.86-.316 2.485-.95.633-.636.949-1.503.949-2.6 0-.962-.281-1.75-.844-2.376-.554-.633-1.285-.949-2.191-.949-.39 0-.774.09-1.149.274-.375.183-.648.417-.82.699h-.047l.211-3.211h3.879c.164 0 .3-.067.41-.203a.729.729 0 0 0 .176-.496.753.753 0 0 0-.164-.504.533.533 0 0 0-.422-.2h-4.02c-.312 0-.566.098-.761.29-.188.19-.29.449-.305.773l-.293 3.902c-.015.325.05.586.2.785.148.196.359.29.632.29.18 0 .336-.032.469-.086a2.06 2.06 0 0 0 .48-.34c.243-.223.465-.387.668-.489.211-.097.446-.148.703-.148.516 0 .934.195 1.254.586.32.387.48.863.48 1.437 0 .653-.175 1.165-.526 1.54-.352.374-.813.562-1.383.562a1.975 1.975 0 0 1-1.09-.313 2.05 2.05 0 0 1-.727-.886.966.966 0 0 0-.304-.399.58.58 0 0 0-.375-.14.602.602 0 0 0-.48.215.743.743 0 0 0-.177.511c0 .098.008.2.024.301.023.09.05.18.082.262.172.515.527.957 1.066 1.324.54.36 1.176.54 1.91.54Zm0 0"/></svg>