<?xml version="1.0" encoding="UTF-8"?>
<svg xmlns="http://www.w3.org/2000/svg" xmlns:xlink="http://www.w3.org/1999/xlink" width="24" height="25.5" viewBox="0 0 24 25.5" version="1.1">
<g id="surface1">
<path style=" stroke:none;fill-rule:nonzero;fill:rgb(100%,100%,100%);fill-opacity:1;" d="M 12 24.492188 C 13.632812 24.492188 15.167969 24.179688 16.605469 23.554688 C 18.050781 22.929688 19.324219 22.066406 20.425781 20.964844 C 21.527344 19.863281 22.390625 18.59375 23.015625 17.15625 C 23.640625 15.710938 23.953125 14.171875 23.953125 12.539062 C 23.953125 10.90625 23.640625 9.371094 23.015625 7.933594 C 22.390625 6.488281 21.527344 5.214844 20.425781 4.113281 C 19.324219 3.011719 18.050781 2.148438 16.605469 1.523438 C 15.160156 0.898438 13.621094 0.585938 11.988281 0.585938 C 10.355469 0.585938 8.816406 0.898438 7.371094 1.523438 C 5.933594 2.148438 4.664062 3.011719 3.5625 4.113281 C 2.46875 5.214844 1.609375 6.488281 0.984375 7.933594 C 0.359375 9.371094 0.046875 10.90625 0.046875 12.539062 C 0.046875 14.171875 0.359375 15.710938 0.984375 17.15625 C 1.609375 18.59375 2.472656 19.863281 3.574219 20.964844 C 4.675781 22.066406 5.945312 22.929688 7.382812 23.554688 C 8.828125 24.179688 10.367188 24.492188 12 24.492188 Z M 12 22.5 C 10.617188 22.5 9.324219 22.242188 8.121094 21.726562 C 6.917969 21.210938 5.859375 20.5 4.945312 19.59375 C 4.039062 18.679688 3.328125 17.621094 2.8125 16.417969 C 2.304688 15.214844 2.050781 13.921875 2.050781 12.539062 C 2.050781 11.15625 2.304688 9.863281 2.8125 8.660156 C 3.328125 7.457031 4.039062 6.398438 4.945312 5.484375 C 5.851562 4.570312 6.90625 3.859375 8.109375 3.351562 C 9.3125 2.835938 10.605469 2.578125 11.988281 2.578125 C 13.371094 2.578125 14.664062 2.835938 15.867188 3.351562 C 17.078125 3.859375 18.136719 4.570312 19.042969 5.484375 C 19.957031 6.398438 20.671875 7.457031 21.1875 8.660156 C 21.703125 9.863281 21.960938 11.15625 21.960938 12.539062 C 21.960938 13.921875 21.703125 15.214844 21.1875 16.417969 C 20.679688 17.621094 19.96875 18.679688 19.054688 19.59375 C 18.140625 20.5 17.082031 21.210938 15.878906 21.726562 C 14.675781 22.242188 13.382812 22.5 12 22.5 Z M 8.015625 17.589844 C 8.6875 17.589844 9.273438 17.386719 9.773438 16.980469 C 10.28125 16.566406 10.671875 15.984375 10.945312 15.234375 C 11.226562 14.476562 11.367188 13.578125 11.367188 12.539062 C 11.367188 11.5 11.226562 10.601562 10.945312 9.84375 C 10.671875 9.085938 10.28125 8.503906 9.773438 8.097656 C 9.273438 7.691406 8.6875 7.488281 8.015625 7.488281 C 7.34375 7.488281 6.753906 7.691406 6.246094 8.097656 C 5.746094 8.503906 5.355469 9.085938 5.074219 9.84375 C 4.800781 10.601562 4.664062 11.5 4.664062 12.539062 C 4.664062 13.578125 4.800781 14.476562 5.074219 15.234375 C 5.355469 15.984375 5.746094 16.566406 6.246094 16.980469 C 6.753906 17.386719 7.34375 17.589844 8.015625 17.589844 Z M 8.015625 16.171875 C 7.460938 16.171875 7.019531 15.847656 6.691406 15.199219 C 6.363281 14.550781 6.199219 13.664062 6.199219 12.539062 C 6.199219 11.414062 6.363281 10.527344 6.691406 9.878906 C 7.019531 9.230469 7.460938 8.90625 8.015625 8.90625 C 8.578125 8.90625 9.019531 9.230469 9.339844 9.878906 C 9.667969 10.527344 9.832031 11.414062 9.832031 12.539062 C 9.832031 13.664062 9.667969 14.550781 9.339844 15.199219 C 9.019531 15.847656 8.578125 16.171875 8.015625 16.171875 Z M 16.183594 17.601562 C 17.136719 17.601562 17.917969 17.304688 18.527344 16.710938 C 19.136719 16.109375 19.441406 15.273438 19.441406 14.203125 C 19.441406 13.195312 19.148438 12.421875 18.5625 11.882812 C 17.976562 11.34375 17.300781 11.074219 16.535156 11.074219 C 15.917969 11.074219 15.410156 11.226562 15.011719 11.53125 C 14.621094 11.828125 14.355469 12.167969 14.214844 12.550781 L 14.132812 12.550781 C 14.132812 12.535156 14.132812 12.519531 14.132812 12.503906 C 14.132812 12.488281 14.132812 12.46875 14.132812 12.445312 C 14.132812 11.335938 14.335938 10.457031 14.742188 9.808594 C 15.148438 9.160156 15.683594 8.835938 16.347656 8.835938 C 16.683594 8.835938 16.96875 8.910156 17.203125 9.058594 C 17.445312 9.207031 17.640625 9.394531 17.789062 9.621094 C 17.890625 9.769531 17.992188 9.878906 18.09375 9.949219 C 18.195312 10.019531 18.328125 10.054688 18.492188 10.054688 C 18.65625 10.054688 18.792969 9.996094 18.902344 9.878906 C 19.011719 9.761719 19.066406 9.605469 19.066406 9.410156 C 19.066406 9.261719 19.039062 9.113281 18.984375 8.964844 C 18.882812 8.707031 18.710938 8.464844 18.46875 8.238281 C 18.234375 8.011719 17.941406 7.832031 17.589844 7.699219 C 17.246094 7.558594 16.851562 7.488281 16.40625 7.488281 C 15.273438 7.488281 14.382812 7.929688 13.734375 8.8125 C 13.085938 9.695312 12.761719 11.027344 12.761719 12.808594 C 12.761719 13.519531 12.816406 14.140625 12.925781 14.671875 C 13.035156 15.203125 13.1875 15.652344 13.382812 16.019531 C 13.6875 16.582031 14.082031 16.988281 14.566406 17.238281 C 15.050781 17.480469 15.589844 17.601562 16.183594 17.601562 Z M 16.113281 16.3125 C 15.566406 16.3125 15.121094 16.121094 14.777344 15.738281 C 14.433594 15.355469 14.261719 14.859375 14.261719 14.25 C 14.261719 13.671875 14.433594 13.199219 14.777344 12.832031 C 15.121094 12.464844 15.566406 12.28125 16.113281 12.28125 C 16.667969 12.28125 17.113281 12.464844 17.449219 12.832031 C 17.792969 13.199219 17.964844 13.675781 17.964844 14.261719 C 17.964844 14.886719 17.796875 15.386719 17.460938 15.761719 C 17.132812 16.128906 16.683594 16.3125 16.113281 16.3125 Z M 16.113281 16.3125 "/>
</g>
</svg>
