<svg xmlns="http://www.w3.org/2000/svg" width="24" height="24"><path style="stroke:none;fill-rule:nonzero;fill:#fff;fill-opacity:1" d="M12 23.05c1.633 0 3.168-.292 4.605-.882a12.22 12.22 0 0 0 3.82-2.438 11.467 11.467 0 0 0 2.59-3.582c.626-1.363.938-2.808.938-4.347a10.2 10.2 0 0 0-.937-4.332 11.53 11.53 0 0 0-2.59-3.598 12.361 12.361 0 0 0-3.82-2.437A12.166 12.166 0 0 0 11.987.55c-1.633 0-3.172.293-4.617.883A12.307 12.307 0 0 0 3.562 3.87 11.523 11.523 0 0 0 .985 7.465 10.2 10.2 0 0 0 .047 11.8c0 1.539.312 2.984.937 4.347a11.467 11.467 0 0 0 2.59 3.582 12.236 12.236 0 0 0 3.809 2.438c1.445.59 2.984.883 4.617.883Zm-4.102-6.34c-.695 0-1.3-.198-1.816-.597-.516-.398-.918-.96-1.207-1.699-.29-.734-.434-1.605-.434-2.613 0-1.016.145-1.887.434-2.614.29-.734.691-1.3 1.207-1.699.516-.398 1.121-.593 1.816-.593.696 0 1.301.195 1.817.593.523.399.926.965 1.207 1.7.289.726.433 1.597.433 2.613 0 1.008-.144 1.879-.433 2.613-.281.738-.684 1.3-1.207 1.7-.516.398-1.121.597-1.817.597Zm0-1.39c.586 0 1.043-.312 1.372-.937.328-.633.492-1.492.492-2.582 0-1.086-.168-1.946-.504-2.57-.328-.633-.781-.95-1.36-.95-.57 0-1.023.317-1.359.95-.336.624-.504 1.48-.504 2.57 0 1.086.168 1.949.504 2.582.336.625.79.937 1.36.937Zm8.426 1.403a3.847 3.847 0 0 1-1.676-.356c-.5-.242-.902-.64-1.207-1.191-.21-.352-.37-.785-.48-1.301a8.804 8.804 0 0 1-.164-1.809c0-1.734.336-3.027 1.008-3.882.672-.86 1.59-1.29 2.754-1.29.453 0 .859.067 1.218.196.368.133.672.312.914.531.243.223.414.457.516.707.063.14.094.285.094.442a.623.623 0 0 1-.176.46.593.593 0 0 1-.422.168.79.79 0 0 1-.41-.101 1.219 1.219 0 0 1-.316-.332 1.885 1.885 0 0 0-.598-.54c-.242-.14-.54-.21-.89-.21-.68 0-1.231.312-1.653.941-.414.625-.621 1.473-.621 2.547v.11h.082c.148-.376.422-.708.82-.993.406-.293.93-.441 1.57-.441.79 0 1.485.262 2.086.781.61.524.915 1.274.915 2.25 0 1.047-.317 1.86-.95 2.438-.633.582-1.437.875-2.414.875Zm-.07-1.258c.586 0 1.047-.184 1.383-.543.343-.36.515-.84.515-1.445 0-.567-.175-1.024-.527-1.38-.352-.359-.809-.538-1.371-.538-.563 0-1.024.18-1.383.539-.351.355-.527.812-.527 1.37 0 .587.176 1.067.527 1.442.36.367.82.555 1.383.555Zm0 0"/></svg>