<svg xmlns="http://www.w3.org/2000/svg" width="24" height="24"><path style="stroke:none;fill-rule:nonzero;fill:#fff;fill-opacity:1" d="M4.887 23.3h14.215c1.226 0 2.144-.323 2.753-.976.618-.64.926-1.605.926-2.898V4.164c0-1.293-.308-2.258-.926-2.898-.609-.653-1.527-.977-2.753-.977H4.887c-1.227 0-2.149.324-2.766.977-.61.64-.914 1.605-.914 2.898v15.262c0 1.293.305 2.258.914 2.902.617.649 1.54.973 2.766.973Zm.023-2.01c-.586 0-1.035-.165-1.348-.49-.312-.335-.468-.823-.468-1.476V4.262c0-.649.156-1.137.469-1.461.312-.336.761-.5 1.347-.5h14.168c.578 0 1.024.164 1.336.5.32.324.48.812.48 1.46v15.063c0 .653-.16 1.14-.48 1.477-.312.324-.758.488-1.336.488Zm3.13-4.126a2.6 2.6 0 0 0 1.757-.652c.508-.442.898-1.063 1.172-1.864.281-.804.422-1.765.422-2.875 0-1.105-.141-2.066-.422-2.875-.274-.808-.664-1.425-1.172-1.859a2.593 2.593 0 0 0-1.758-.652 2.622 2.622 0 0 0-1.77.652c-.5.434-.89 1.05-1.171 1.86-.274.808-.41 1.769-.41 2.874 0 1.11.136 2.07.41 2.875.28.801.672 1.422 1.172 1.864.5.43 1.128.66 1.77.652Zm0-1.516c-.556 0-.997-.343-1.325-1.035-.328-.691-.492-1.636-.492-2.84 0-1.199.164-2.144.492-2.835.328-.692.77-1.04 1.324-1.04.563 0 1.004.348 1.324 1.04.328.69.492 1.636.492 2.835 0 1.204-.164 2.149-.492 2.84-.32.692-.761 1.035-1.324 1.035Zm8.167 1.528c.953 0 1.734-.317 2.344-.95.61-.644.914-1.535.914-2.675 0-1.074-.293-1.903-.88-2.477-.585-.574-1.26-.863-2.026-.863-.618 0-1.125.164-1.524.488-.39.317-.656.68-.797 1.09h-.082v-.113c0-1.184.203-2.121.61-2.813.406-.691.941-1.039 1.605-1.039.336 0 .621.078.856.239.242.16.437.359.585.601.102.156.204.274.305.348a.66.66 0 0 0 .399.113c.164 0 .3-.063.41-.188a.736.736 0 0 0 .164-.5c0-.164-.027-.324-.082-.476a2.222 2.222 0 0 0-.516-.774 2.502 2.502 0 0 0-.879-.574 2.942 2.942 0 0 0-1.183-.226c-1.133 0-2.024.472-2.672 1.414-.649.941-.973 2.363-.973 4.261 0 .758.055 1.422.164 1.989.11.566.262 1.043.457 1.437.305.598.7 1.032 1.184 1.301a3.405 3.405 0 0 0 1.617.387Zm-.07-1.375c-.547 0-.992-.203-1.336-.614-.344-.41-.516-.937-.516-1.585 0-.618.172-1.122.516-1.516.344-.39.789-.586 1.336-.586.554 0 1 .195 1.336.586.343.394.515.902.515 1.527 0 .668-.168 1.2-.504 1.598-.328.394-.777.59-1.347.59Zm0 0"/></svg>