<svg width="128" height="128" viewBox="0 0 128 128" fill="none" xmlns="http://www.w3.org/2000/svg">
<path d="M63.9375 127.625C72.6458 127.625 80.8333 125.958 88.5 122.625C96.2083 119.292 103 114.688 108.875 108.812C114.75 102.938 119.354 96.1667 122.688 88.5C126.021 80.7917 127.688 72.5833 127.688 63.875C127.688 55.1667 126.021 46.9792 122.688 39.3125C119.354 31.6042 114.75 24.8125 108.875 18.9375C103 13.0625 96.2083 8.45833 88.5 5.125C80.7917 1.79167 72.5833 0.125 63.875 0.125C55.1667 0.125 46.9583 1.79167 39.25 5.125C31.5833 8.45833 24.8125 13.0625 18.9375 18.9375C13.1042 24.8125 8.52083 31.6042 5.1875 39.3125C1.85417 46.9792 0.1875 55.1667 0.1875 63.875C0.1875 72.5833 1.85417 80.7917 5.1875 88.5C8.52083 96.1667 13.125 102.938 19 108.812C24.875 114.688 31.6458 119.292 39.3125 122.625C47.0208 125.958 55.2292 127.625 63.9375 127.625ZM43.875 91.6875C40.1667 91.6875 36.9167 90.5625 34.125 88.3125C31.375 86.0625 29.2292 82.875 27.6875 78.75C26.1875 74.5833 25.4375 69.625 25.4375 63.875C25.4375 58.125 26.1875 53.1875 27.6875 49.0625C29.2292 44.8958 31.375 41.6875 34.125 39.4375C36.9167 37.1875 40.1667 36.0625 43.875 36.0625C47.5833 36.0625 50.8125 37.1875 53.5625 39.4375C56.3125 41.6875 58.4583 44.8958 60 49.0625C61.5417 53.1875 62.3125 58.125 62.3125 63.875C62.3125 69.625 61.5417 74.5833 60 78.75C58.4583 82.875 56.3125 86.0625 53.5625 88.3125C50.8125 90.5625 47.5833 91.6875 43.875 91.6875ZM43.875 83.8125C47 83.8125 49.4375 82.0417 51.1875 78.5C52.9375 74.9167 53.8125 70.0417 53.8125 63.875C53.8125 57.7083 52.9167 52.8542 51.125 49.3125C49.3333 45.7292 46.9167 43.9375 43.875 43.9375C40.7917 43.9375 38.3542 45.7292 36.5625 49.3125C34.8125 52.8542 33.9375 57.7083 33.9375 63.875C33.9375 70.0417 34.8125 74.9167 36.5625 78.5C38.3542 82.0417 40.7917 83.8125 43.875 83.8125ZM78.3125 90.9375C77.0625 90.9375 76.0208 90.5417 75.1875 89.75C74.3542 88.9583 73.9375 87.9583 73.9375 86.75C73.9375 85.5833 74.1875 84.5833 74.6875 83.75L94.625 45.125V44.625H72.0625C70.8958 44.625 69.9792 44.3125 69.3125 43.6875C68.6458 43.0208 68.3125 42.1458 68.3125 41.0625C68.3125 39.9375 68.6458 39.0417 69.3125 38.375C69.9792 37.7083 70.8958 37.375 72.0625 37.375H98C99.75 37.375 101.146 37.9375 102.188 39.0625C103.229 40.1458 103.75 41.4583 103.75 43C103.75 43.6667 103.667 44.3542 103.5 45.0625C103.375 45.7292 103.042 46.5833 102.5 47.625L82.4375 87.75C81.8542 88.875 81.2292 89.6875 80.5625 90.1875C79.9375 90.6875 79.1875 90.9375 78.3125 90.9375Z" fill="white"/>
</svg>
