<svg width="116" height="116" viewBox="0 0 116 116" fill="none" xmlns="http://www.w3.org/2000/svg">
<path d="M20.5625 115.5H96.375C102.917 115.5 107.812 113.875 111.062 110.625C114.354 107.417 116 102.583 116 96.125V19.8125C116 13.3542 114.354 8.52083 111.062 5.3125C107.812 2.0625 102.917 0.4375 96.375 0.4375H20.5625C14.0208 0.4375 9.10417 2.0625 5.8125 5.3125C2.5625 8.52083 0.9375 13.3542 0.9375 19.8125V96.125C0.9375 102.583 2.5625 107.417 5.8125 110.625C9.10417 113.875 14.0208 115.5 20.5625 115.5ZM20.6875 105.438C17.5625 105.438 15.1667 104.625 13.5 103C11.8333 101.333 11 98.875 11 95.625V20.3125C11 17.0625 11.8333 14.625 13.5 13C15.1667 11.3333 17.5625 10.5 20.6875 10.5H96.25C99.3333 10.5 101.708 11.3333 103.375 13C105.083 14.625 105.938 17.0625 105.938 20.3125V95.625C105.938 98.875 105.083 101.333 103.375 103C101.708 104.625 99.3333 105.438 96.25 105.438H20.6875ZM39.0625 84.8125C42.6458 84.8125 45.7708 83.7292 48.4375 81.5625C51.1458 79.3542 53.2292 76.25 54.6875 72.25C56.1875 68.2083 56.9375 63.4167 56.9375 57.875C56.9375 52.3333 56.1875 47.5417 54.6875 43.5C53.2292 39.4583 51.1458 36.3542 48.4375 34.1875C45.7708 32.0208 42.6458 30.9375 39.0625 30.9375C35.4792 30.9375 32.3333 32.0208 29.625 34.1875C26.9583 36.3542 24.875 39.4583 23.375 43.5C21.9167 47.5417 21.1875 52.3333 21.1875 57.875C21.1875 63.4167 21.9167 68.2083 23.375 72.25C24.875 76.25 26.9583 79.3542 29.625 81.5625C32.3333 83.7292 35.4792 84.8125 39.0625 84.8125ZM39.0625 77.25C36.1042 77.25 33.75 75.5208 32 72.0625C30.25 68.6042 29.375 63.875 29.375 57.875C29.375 51.875 30.25 47.1458 32 43.6875C33.75 40.2292 36.1042 38.5 39.0625 38.5C42.0625 38.5 44.4167 40.2292 46.125 43.6875C47.875 47.1458 48.75 51.875 48.75 57.875C48.75 63.875 47.875 68.6042 46.125 72.0625C44.4167 75.5208 42.0625 77.25 39.0625 77.25ZM72.4375 84.125C73.2708 84.125 74 83.8958 74.625 83.4375C75.2917 82.9375 75.8958 82.1458 76.4375 81.0625L95.9375 42.0625C96.4375 41.0625 96.75 40.25 96.875 39.625C97.0417 38.9583 97.125 38.2917 97.125 37.625C97.125 36.125 96.625 34.8542 95.625 33.8125C94.625 32.7292 93.2708 32.1875 91.5625 32.1875H66.375C65.2917 32.1875 64.4167 32.5208 63.75 33.1875C63.0833 33.8125 62.75 34.6667 62.75 35.75C62.75 36.7917 63.0833 37.625 63.75 38.25C64.4167 38.875 65.2917 39.1875 66.375 39.1875H88.3125V39.6875L68.9375 77.1875C68.4792 77.9792 68.25 78.9375 68.25 80.0625C68.25 81.2292 68.6458 82.2083 69.4375 83C70.2708 83.75 71.2708 84.125 72.4375 84.125Z" fill="white"/>
</svg>
