<svg width="128" height="128" viewBox="0 0 128 128" fill="none" xmlns="http://www.w3.org/2000/svg">
<path d="M63.9375 127.625C72.6458 127.625 80.8333 125.958 88.5 122.625C96.2083 119.292 103 114.688 108.875 108.812C114.75 102.938 119.354 96.1667 122.688 88.5C126.021 80.7917 127.688 72.5833 127.688 63.875C127.688 55.1667 126.021 46.9792 122.688 39.3125C119.354 31.6042 114.75 24.8125 108.875 18.9375C103 13.0625 96.2083 8.45833 88.5 5.125C80.7917 1.79167 72.5833 0.125 63.875 0.125C55.1667 0.125 46.9583 1.79167 39.25 5.125C31.5833 8.45833 24.8125 13.0625 18.9375 18.9375C13.1042 24.8125 8.52083 31.6042 5.1875 39.3125C1.85417 46.9792 0.1875 55.1667 0.1875 63.875C0.1875 72.5833 1.85417 80.7917 5.1875 88.5C8.52083 96.1667 13.125 102.938 19 108.812C24.875 114.688 31.6458 119.292 39.3125 122.625C47.0208 125.958 55.2292 127.625 63.9375 127.625ZM63.9375 117C56.5625 117 49.6667 115.625 43.25 112.875C36.8333 110.125 31.1875 106.333 26.3125 101.5C21.4792 96.625 17.6875 90.9792 14.9375 84.5625C12.2292 78.1458 10.875 71.25 10.875 63.875C10.875 56.5 12.2292 49.6042 14.9375 43.1875C17.6875 36.7708 21.4792 31.125 26.3125 26.25C31.1458 21.375 36.7708 17.5833 43.1875 14.875C49.6042 12.125 56.5 10.75 63.875 10.75C71.25 10.75 78.1458 12.125 84.5625 14.875C91.0208 17.5833 96.6667 21.375 101.5 26.25C106.375 31.125 110.188 36.7708 112.938 43.1875C115.688 49.6042 117.062 56.5 117.062 63.875C117.062 71.25 115.688 78.1458 112.938 84.5625C110.229 90.9792 106.438 96.625 101.562 101.5C96.6875 106.333 91.0417 110.125 84.625 112.875C78.2083 115.625 71.3125 117 63.9375 117ZM43 90.8125C46.5833 90.8125 49.7083 89.7292 52.375 87.5625C55.0833 85.3542 57.1667 82.25 58.625 78.25C60.125 74.2083 60.875 69.4167 60.875 63.875C60.875 58.3333 60.125 53.5417 58.625 49.5C57.1667 45.4583 55.0833 42.3542 52.375 40.1875C49.7083 38.0208 46.5833 36.9375 43 36.9375C39.4167 36.9375 36.2708 38.0208 33.5625 40.1875C30.8958 42.3542 28.8125 45.4583 27.3125 49.5C25.8542 53.5417 25.125 58.3333 25.125 63.875C25.125 69.4167 25.8542 74.2083 27.3125 78.25C28.8125 82.25 30.8958 85.3542 33.5625 87.5625C36.2708 89.7292 39.4167 90.8125 43 90.8125ZM43 83.25C40.0417 83.25 37.6875 81.5208 35.9375 78.0625C34.1875 74.6042 33.3125 69.875 33.3125 63.875C33.3125 57.875 34.1875 53.1458 35.9375 49.6875C37.6875 46.2292 40.0417 44.5 43 44.5C46 44.5 48.3542 46.2292 50.0625 49.6875C51.8125 53.1458 52.6875 57.875 52.6875 63.875C52.6875 69.875 51.8125 74.6042 50.0625 78.0625C48.3542 81.5208 46 83.25 43 83.25ZM85.5625 90.8125C90.9792 90.8125 95.375 89.3958 98.75 86.5625C102.125 83.7292 103.812 80.0417 103.812 75.5C103.812 72.2917 102.875 69.5 101 67.125C99.1667 64.75 96.5625 63.2292 93.1875 62.5625V62.1875C96.0625 61.4375 98.25 60.0208 99.75 57.9375C101.25 55.8125 102 53.3958 102 50.6875C102 46.6042 100.458 43.2917 97.375 40.75C94.3333 38.2083 90.4375 36.9375 85.6875 36.9375C80.8958 36.9375 76.9583 38.2083 73.875 40.75C70.8333 43.2917 69.3125 46.6042 69.3125 50.6875C69.3125 53.3958 70.0417 55.7917 71.5 57.875C73 59.9167 75.2083 61.3542 78.125 62.1875V62.5625C74.75 63.2292 72.125 64.7708 70.25 67.1875C68.4167 69.5625 67.5 72.3542 67.5 75.5625C67.5 80.1042 69.1458 83.7917 72.4375 86.625C75.7708 89.4167 80.1458 90.8125 85.5625 90.8125ZM85.75 84.3125C82.75 84.3125 80.2708 83.4583 78.3125 81.75C76.3958 80 75.4375 77.75 75.4375 75C75.4375 72.2917 76.3958 70.0625 78.3125 68.3125C80.2708 66.5625 82.75 65.6875 85.75 65.6875C88.75 65.6875 91.1875 66.5625 93.0625 68.3125C94.9792 70.0625 95.9375 72.2917 95.9375 75C95.9375 77.75 94.9583 80 93 81.75C91.0833 83.4583 88.6667 84.3125 85.75 84.3125ZM85.6875 59.6875C83.2292 59.6875 81.2083 58.9167 79.625 57.375C78.0833 55.7917 77.3125 53.8125 77.3125 51.4375C77.3125 49.0625 78.0833 47.1458 79.625 45.6875C81.2083 44.1875 83.2292 43.4375 85.6875 43.4375C88.1042 43.4375 90.0833 44.1875 91.625 45.6875C93.2083 47.1458 94 49.0625 94 51.4375C94 53.8125 93.2083 55.7917 91.625 57.375C90.0833 58.9167 88.1042 59.6875 85.6875 59.6875Z" fill="white"/>
</svg>
