<?xml version="1.0" encoding="UTF-8"?>
<svg xmlns="http://www.w3.org/2000/svg" xmlns:xlink="http://www.w3.org/1999/xlink" width="24" height="25.5" viewBox="0 0 24 25.5" version="1.1">
<g id="surface1">
<path style=" stroke:none;fill-rule:nonzero;fill:rgb(100%,100%,100%);fill-opacity:1;" d="M 12 24.492188 C 13.632812 24.492188 15.167969 24.179688 16.605469 23.554688 C 18.050781 22.929688 19.324219 22.066406 20.425781 20.964844 C 21.527344 19.863281 22.390625 18.59375 23.015625 17.15625 C 23.640625 15.710938 23.953125 14.171875 23.953125 12.539062 C 23.953125 10.90625 23.640625 9.371094 23.015625 7.933594 C 22.390625 6.488281 21.527344 5.214844 20.425781 4.113281 C 19.324219 3.011719 18.050781 2.148438 16.605469 1.523438 C 15.160156 0.898438 13.621094 0.585938 11.988281 0.585938 C 10.355469 0.585938 8.816406 0.898438 7.371094 1.523438 C 5.933594 2.148438 4.664062 3.011719 3.5625 4.113281 C 2.46875 5.214844 1.609375 6.488281 0.984375 7.933594 C 0.359375 9.371094 0.046875 10.90625 0.046875 12.539062 C 0.046875 14.171875 0.359375 15.710938 0.984375 17.15625 C 1.609375 18.59375 2.472656 19.863281 3.574219 20.964844 C 4.675781 22.066406 5.945312 22.929688 7.382812 23.554688 C 8.828125 24.179688 10.367188 24.492188 12 24.492188 Z M 12 22.5 C 10.617188 22.5 9.324219 22.242188 8.121094 21.726562 C 6.917969 21.210938 5.859375 20.5 4.945312 19.59375 C 4.039062 18.679688 3.328125 17.621094 2.8125 16.417969 C 2.304688 15.214844 2.050781 13.921875 2.050781 12.539062 C 2.050781 11.15625 2.304688 9.863281 2.8125 8.660156 C 3.328125 7.457031 4.039062 6.398438 4.945312 5.484375 C 5.851562 4.570312 6.90625 3.859375 8.109375 3.351562 C 9.3125 2.835938 10.605469 2.578125 11.988281 2.578125 C 13.371094 2.578125 14.664062 2.835938 15.867188 3.351562 C 17.078125 3.859375 18.136719 4.570312 19.042969 5.484375 C 19.957031 6.398438 20.671875 7.457031 21.1875 8.660156 C 21.703125 9.863281 21.960938 11.15625 21.960938 12.539062 C 21.960938 13.921875 21.703125 15.214844 21.1875 16.417969 C 20.679688 17.621094 19.96875 18.679688 19.054688 19.59375 C 18.140625 20.5 17.082031 21.210938 15.878906 21.726562 C 14.675781 22.242188 13.382812 22.5 12 22.5 Z M 8.074219 17.589844 C 8.746094 17.589844 9.332031 17.386719 9.832031 16.980469 C 10.339844 16.566406 10.730469 15.984375 11.003906 15.234375 C 11.285156 14.476562 11.425781 13.578125 11.425781 12.539062 C 11.425781 11.5 11.285156 10.601562 11.003906 9.84375 C 10.730469 9.085938 10.339844 8.503906 9.832031 8.097656 C 9.332031 7.691406 8.746094 7.488281 8.074219 7.488281 C 7.402344 7.488281 6.8125 7.691406 6.304688 8.097656 C 5.804688 8.503906 5.414062 9.085938 5.132812 9.84375 C 4.859375 10.601562 4.722656 11.5 4.722656 12.539062 C 4.722656 13.578125 4.859375 14.476562 5.132812 15.234375 C 5.414062 15.984375 5.804688 16.566406 6.304688 16.980469 C 6.8125 17.386719 7.402344 17.589844 8.074219 17.589844 Z M 8.074219 16.171875 C 7.519531 16.171875 7.078125 15.847656 6.75 15.199219 C 6.421875 14.550781 6.257812 13.664062 6.257812 12.539062 C 6.257812 11.414062 6.421875 10.527344 6.75 9.878906 C 7.078125 9.230469 7.519531 8.90625 8.074219 8.90625 C 8.636719 8.90625 9.078125 9.230469 9.398438 9.878906 C 9.726562 10.527344 9.890625 11.414062 9.890625 12.539062 C 9.890625 13.664062 9.726562 14.550781 9.398438 15.199219 C 9.078125 15.847656 8.636719 16.171875 8.074219 16.171875 Z M 16.054688 17.589844 C 17.070312 17.589844 17.894531 17.324219 18.527344 16.792969 C 19.160156 16.261719 19.476562 15.570312 19.476562 14.71875 C 19.476562 14.117188 19.300781 13.59375 18.949219 13.148438 C 18.605469 12.703125 18.117188 12.417969 17.484375 12.292969 L 17.484375 12.222656 C 18.023438 12.082031 18.433594 11.816406 18.714844 11.425781 C 18.996094 11.027344 19.136719 10.574219 19.136719 10.066406 C 19.136719 9.300781 18.847656 8.679688 18.269531 8.203125 C 17.699219 7.726562 16.96875 7.488281 16.078125 7.488281 C 15.179688 7.488281 14.441406 7.726562 13.863281 8.203125 C 13.292969 8.679688 13.007812 9.300781 13.007812 10.066406 C 13.007812 10.574219 13.144531 11.023438 13.417969 11.414062 C 13.699219 11.796875 14.113281 12.066406 14.660156 12.222656 L 14.660156 12.292969 C 14.027344 12.417969 13.535156 12.707031 13.183594 13.160156 C 12.839844 13.605469 12.667969 14.128906 12.667969 14.730469 C 12.667969 15.582031 12.976562 16.273438 13.59375 16.804688 C 14.21875 17.328125 15.039062 17.589844 16.054688 17.589844 Z M 16.089844 16.371094 C 15.527344 16.371094 15.0625 16.210938 14.695312 15.890625 C 14.335938 15.5625 14.15625 15.140625 14.15625 14.625 C 14.15625 14.117188 14.335938 13.699219 14.695312 13.371094 C 15.0625 13.042969 15.527344 12.878906 16.089844 12.878906 C 16.652344 12.878906 17.109375 13.042969 17.460938 13.371094 C 17.820312 13.699219 18 14.117188 18 14.625 C 18 15.140625 17.816406 15.5625 17.449219 15.890625 C 17.089844 16.210938 16.636719 16.371094 16.089844 16.371094 Z M 16.078125 11.753906 C 15.617188 11.753906 15.238281 11.609375 14.941406 11.320312 C 14.652344 11.023438 14.507812 10.652344 14.507812 10.207031 C 14.507812 9.761719 14.652344 9.402344 14.941406 9.128906 C 15.238281 8.847656 15.617188 8.707031 16.078125 8.707031 C 16.53125 8.707031 16.902344 8.847656 17.191406 9.128906 C 17.488281 9.402344 17.636719 9.761719 17.636719 10.207031 C 17.636719 10.652344 17.488281 11.023438 17.191406 11.320312 C 16.902344 11.609375 16.53125 11.753906 16.078125 11.753906 Z M 16.078125 11.753906 "/>
</g>
</svg>
