<svg width="16" height="17" viewBox="0 0 16 17" fill="none" xmlns="http://www.w3.org/2000/svg">
<path d="M8 16.3281C9.08854 16.3281 10.112 16.1198 11.0703 15.7031C12.0339 15.2865 12.8828 14.7109 13.6172 13.9766C14.3516 13.2422 14.9271 12.3958 15.3438 11.4375C15.7604 10.474 15.9688 9.44792 15.9688 8.35938C15.9688 7.27083 15.7604 6.2474 15.3438 5.28906C14.9271 4.32552 14.3516 3.47656 13.6172 2.74219C12.8828 2.00781 12.0339 1.43229 11.0703 1.01562C10.1068 0.598958 9.08073 0.390625 7.99219 0.390625C6.90365 0.390625 5.8776 0.598958 4.91406 1.01562C3.95573 1.43229 3.10938 2.00781 2.375 2.74219C1.64583 3.47656 1.07292 4.32552 0.65625 5.28906C0.239583 6.2474 0.03125 7.27083 0.03125 8.35938C0.03125 9.44792 0.239583 10.474 0.65625 11.4375C1.07292 12.3958 1.64844 13.2422 2.38281 13.9766C3.11719 14.7109 3.96354 15.2865 4.92188 15.7031C5.88542 16.1198 6.91146 16.3281 8 16.3281ZM5.30469 11.8359C4.84115 11.8359 4.4375 11.6953 4.09375 11.4141C3.75 11.1328 3.48177 10.7344 3.28906 10.2188C3.09635 9.69792 3 9.07812 3 8.35938C3 7.64062 3.09635 7.02344 3.28906 6.50781C3.48177 5.98698 3.75 5.58594 4.09375 5.30469C4.4375 5.02344 4.84115 4.88281 5.30469 4.88281C5.76823 4.88281 6.17188 5.02344 6.51562 5.30469C6.86458 5.58594 7.13281 5.98698 7.32031 6.50781C7.51302 7.02344 7.60938 7.64062 7.60938 8.35938C7.60938 9.07812 7.51302 9.69792 7.32031 10.2188C7.13281 10.7344 6.86458 11.1328 6.51562 11.4141C6.17188 11.6953 5.76823 11.8359 5.30469 11.8359ZM5.30469 10.8516C5.69531 10.8516 6 10.6302 6.21875 10.1875C6.4375 9.73958 6.54688 9.13021 6.54688 8.35938C6.54688 7.58854 6.4349 6.98177 6.21094 6.53906C5.99219 6.09115 5.6901 5.86719 5.30469 5.86719C4.92448 5.86719 4.6224 6.09115 4.39844 6.53906C4.17448 6.98177 4.0625 7.58854 4.0625 8.35938C4.0625 9.13021 4.17448 9.73958 4.39844 10.1875C4.6224 10.6302 4.92448 10.8516 5.30469 10.8516ZM10.7969 11.8359C10.0938 11.8359 9.52865 11.6562 9.10156 11.2969C8.67448 10.9323 8.46094 10.4557 8.46094 9.86719C8.46094 9.45573 8.58073 9.09635 8.82031 8.78906C9.0599 8.47656 9.39844 8.27604 9.83594 8.1875V8.14062C9.46094 8.03125 9.17708 7.84635 8.98438 7.58594C8.79167 7.32031 8.69531 7.01042 8.69531 6.65625C8.69531 6.13021 8.89323 5.70312 9.28906 5.375C9.6849 5.04688 10.1927 4.88281 10.8125 4.88281C11.4219 4.88281 11.9245 5.04688 12.3203 5.375C12.7161 5.70312 12.9141 6.13021 12.9141 6.65625C12.9141 7.01042 12.8151 7.32292 12.6172 7.59375C12.4245 7.85938 12.1432 8.04167 11.7734 8.14062V8.1875C12.2109 8.27604 12.5495 8.47396 12.7891 8.78125C13.0286 9.08854 13.1484 9.44792 13.1484 9.85938C13.1484 10.4479 12.9297 10.9245 12.4922 11.2891C12.0599 11.6536 11.4948 11.8359 10.7969 11.8359ZM10.8203 10.9922C11.1953 10.9922 11.5052 10.8828 11.75 10.6641C12 10.4401 12.125 10.151 12.125 9.79688C12.125 9.44271 12.0026 9.15365 11.7578 8.92969C11.513 8.70573 11.2005 8.59375 10.8203 8.59375C10.4349 8.59375 10.1172 8.70833 9.86719 8.9375C9.61719 9.16146 9.49219 9.44792 9.49219 9.79688C9.49219 10.151 9.61719 10.4401 9.86719 10.6641C10.1172 10.8828 10.4349 10.9922 10.8203 10.9922ZM10.8125 7.82031C11.125 7.82031 11.3802 7.72135 11.5781 7.52344C11.776 7.32031 11.875 7.0651 11.875 6.75781C11.875 6.45573 11.776 6.20833 11.5781 6.01562C11.3802 5.82292 11.125 5.72656 10.8125 5.72656C10.4896 5.72656 10.2292 5.82292 10.0312 6.01562C9.83333 6.20833 9.73438 6.45573 9.73438 6.75781C9.73438 7.0651 9.83333 7.32031 10.0312 7.52344C10.2344 7.72135 10.4948 7.82031 10.8125 7.82031Z" fill="white"/>
</svg>
