<svg xmlns="http://www.w3.org/2000/svg" width="24" height="24"><path style="stroke:none;fill-rule:nonzero;fill:#fff;fill-opacity:1" d="M4.887 23.3h14.215c1.226 0 2.144-.323 2.753-.976.618-.64.926-1.605.926-2.898V4.164c0-1.293-.308-2.258-.926-2.898-.609-.653-1.527-.977-2.753-.977H4.887c-1.227 0-2.149.324-2.766.977-.61.64-.914 1.605-.914 2.898v15.262c0 1.293.305 2.258.914 2.902.617.649 1.54.973 2.766.973Zm.023-2.01c-.586 0-1.035-.165-1.348-.49-.312-.335-.468-.823-.468-1.476V4.262c0-.649.156-1.137.469-1.461.312-.336.761-.5 1.347-.5h14.168c.578 0 1.024.164 1.336.5.32.324.48.812.48 1.46v15.063c0 .653-.16 1.14-.48 1.477-.312.324-.758.488-1.336.488Zm3.188-4.126a2.6 2.6 0 0 0 1.757-.652c.508-.442.899-1.063 1.172-1.864.282-.804.422-1.765.422-2.875 0-1.105-.14-2.066-.422-2.875-.273-.808-.664-1.425-1.172-1.859a2.593 2.593 0 0 0-1.757-.652 2.622 2.622 0 0 0-1.77.652c-.5.434-.89 1.05-1.172 1.86-.273.808-.41 1.769-.41 2.874 0 1.11.137 2.07.41 2.875.282.801.672 1.422 1.172 1.864.5.43 1.125.66 1.77.652Zm0-1.516c-.555 0-.996-.343-1.325-1.035-.328-.691-.492-1.636-.492-2.84 0-1.199.164-2.144.492-2.835.329-.692.77-1.04 1.325-1.04.562 0 1.004.348 1.324 1.04.328.69.492 1.636.492 2.835 0 1.204-.164 2.149-.492 2.84-.32.692-.762 1.035-1.324 1.035Zm7.757 1.516c1.165 0 2.055-.484 2.672-1.453.618-.973.926-2.402.926-4.285 0-1.64-.305-2.89-.914-3.75-.602-.86-1.453-1.29-2.555-1.29-.984 0-1.773.333-2.367.989-.594.652-.89 1.523-.89 2.625 0 .719.132 1.324.398 1.824.273.492.629.871 1.066 1.137.442.258.938.394 1.442.39.64 0 1.152-.16 1.535-.476a2.56 2.56 0 0 0 .82-1.113h.07c.008.824-.081 1.535-.269 2.125-.18.593-.437 1.047-.773 1.363-.325.313-.746.48-1.184.477-.336 0-.633-.086-.89-.25a1.816 1.816 0 0 1-.598-.676c-.172-.324-.41-.489-.715-.489a.558.558 0 0 0-.457.215.798.798 0 0 0-.164.524c0 .11.027.258.082.449.094.34.375.703.844 1.086.468.387 1.109.578 1.921.578Zm.211-5.102c-.554 0-1.003-.199-1.347-.601-.336-.399-.504-.91-.504-1.535 0-.66.168-1.184.504-1.574.336-.403.789-.602 1.36-.602.538 0 .98.203 1.323.613.352.407.528.938.528 1.586 0 .61-.172 1.114-.516 1.512-.344.402-.793.601-1.348.601Zm0 0"/></svg>