<svg width="16" height="15" viewBox="0 0 16 15" fill="none" xmlns="http://www.w3.org/2000/svg">
<path d="M3.25781 14.5625H12.7344C13.5521 14.5625 14.1641 14.3594 14.5703 13.9531C14.9818 13.5521 15.1875 12.9479 15.1875 12.1406V2.60156C15.1875 1.79427 14.9818 1.1901 14.5703 0.789062C14.1641 0.382812 13.5521 0.179688 12.7344 0.179688H3.25781C2.4401 0.179688 1.82552 0.382812 1.41406 0.789062C1.00781 1.1901 0.804688 1.79427 0.804688 2.60156V12.1406C0.804688 12.9479 1.00781 13.5521 1.41406 13.9531C1.82552 14.3594 2.4401 14.5625 3.25781 14.5625ZM8.41406 11.0234C8.21615 11.0234 8.0599 10.9609 7.94531 10.8359C7.83594 10.7057 7.78125 10.526 7.78125 10.2969V5.09375H7.72656L6.67969 5.77344C6.58594 5.84115 6.51302 5.88281 6.46094 5.89844C6.40885 5.91406 6.35156 5.92188 6.28906 5.92188C6.15885 5.92188 6.04948 5.8724 5.96094 5.77344C5.8724 5.67448 5.82812 5.5625 5.82812 5.4375C5.82812 5.33854 5.84635 5.25521 5.88281 5.1875C5.92448 5.11458 5.98958 5.04688 6.07812 4.98438L7.53125 4C7.69792 3.88021 7.84375 3.79948 7.96875 3.75781C8.09375 3.71094 8.23177 3.6875 8.38281 3.6875C8.60156 3.6875 8.77083 3.75 8.89062 3.875C9.01042 4 9.07031 4.17969 9.07031 4.41406V10.2969C9.07031 10.526 9.01302 10.7057 8.89844 10.8359C8.78906 10.9609 8.6276 11.0234 8.41406 11.0234Z" fill="white"/>
</svg>
