<?xml version="1.0" encoding="UTF-8"?>
<svg xmlns="http://www.w3.org/2000/svg" xmlns:xlink="http://www.w3.org/1999/xlink" width="24" height="25.5" viewBox="0 0 24 25.5" version="1.1">
<g id="surface1">
<path style=" stroke:none;fill-rule:nonzero;fill:rgb(100%,100%,100%);fill-opacity:1;" d="M 12 24.492188 C 13.632812 24.492188 15.167969 24.179688 16.605469 23.554688 C 18.050781 22.929688 19.324219 22.066406 20.425781 20.964844 C 21.527344 19.863281 22.390625 18.59375 23.015625 17.15625 C 23.640625 15.710938 23.953125 14.171875 23.953125 12.539062 C 23.953125 10.90625 23.640625 9.371094 23.015625 7.933594 C 22.390625 6.488281 21.527344 5.214844 20.425781 4.113281 C 19.324219 3.011719 18.050781 2.148438 16.605469 1.523438 C 15.160156 0.898438 13.621094 0.585938 11.988281 0.585938 C 10.355469 0.585938 8.816406 0.898438 7.371094 1.523438 C 5.933594 2.148438 4.664062 3.011719 3.5625 4.113281 C 2.46875 5.214844 1.609375 6.488281 0.984375 7.933594 C 0.359375 9.371094 0.046875 10.90625 0.046875 12.539062 C 0.046875 14.171875 0.359375 15.710938 0.984375 17.15625 C 1.609375 18.59375 2.472656 19.863281 3.574219 20.964844 C 4.675781 22.066406 5.945312 22.929688 7.382812 23.554688 C 8.828125 24.179688 10.367188 24.492188 12 24.492188 Z M 8.742188 17.601562 C 8.515625 17.601562 8.332031 17.53125 8.191406 17.390625 C 8.058594 17.25 7.992188 17.0625 7.992188 16.828125 L 7.992188 9.328125 L 7.921875 9.328125 L 6.644531 10.277344 C 6.503906 10.386719 6.390625 10.453125 6.304688 10.476562 C 6.226562 10.5 6.140625 10.511719 6.046875 10.511719 C 5.875 10.511719 5.714844 10.441406 5.566406 10.300781 C 5.425781 10.160156 5.355469 9.988281 5.355469 9.785156 C 5.355469 9.496094 5.492188 9.257812 5.765625 9.070312 L 7.59375 7.816406 C 7.8125 7.667969 7.992188 7.5625 8.132812 7.5 C 8.28125 7.4375 8.453125 7.40625 8.648438 7.40625 C 8.90625 7.40625 9.113281 7.488281 9.269531 7.652344 C 9.433594 7.816406 9.515625 8.023438 9.515625 8.273438 L 9.515625 16.828125 C 9.515625 17.0625 9.445312 17.25 9.304688 17.390625 C 9.164062 17.53125 8.976562 17.601562 8.742188 17.601562 Z M 15.140625 17.753906 C 14.445312 17.753906 13.835938 17.542969 13.3125 17.121094 C 12.796875 16.699219 12.394531 16.101562 12.105469 15.328125 C 11.824219 14.546875 11.683594 13.617188 11.683594 12.539062 C 11.683594 11.460938 11.824219 10.535156 12.105469 9.761719 C 12.394531 8.980469 12.796875 8.378906 13.3125 7.957031 C 13.835938 7.535156 14.445312 7.324219 15.140625 7.324219 C 15.835938 7.324219 16.441406 7.535156 16.957031 7.957031 C 17.480469 8.378906 17.882812 8.980469 18.164062 9.761719 C 18.453125 10.535156 18.597656 11.460938 18.597656 12.539062 C 18.597656 13.617188 18.453125 14.546875 18.164062 15.328125 C 17.882812 16.101562 17.480469 16.699219 16.957031 17.121094 C 16.441406 17.542969 15.835938 17.753906 15.140625 17.753906 Z M 15.140625 16.277344 C 15.71875 16.277344 16.175781 15.945312 16.511719 15.28125 C 16.847656 14.609375 17.015625 13.695312 17.015625 12.539062 C 17.015625 11.382812 16.847656 10.472656 16.511719 9.808594 C 16.175781 9.136719 15.71875 8.800781 15.140625 8.800781 C 14.570312 8.800781 14.117188 9.136719 13.78125 9.808594 C 13.445312 10.472656 13.277344 11.382812 13.277344 12.539062 C 13.277344 13.695312 13.445312 14.609375 13.78125 15.28125 C 14.117188 15.945312 14.570312 16.277344 15.140625 16.277344 Z M 15.140625 16.277344 "/>
</g>
</svg>
