<svg width="16" height="17" viewBox="0 0 16 17" fill="none" xmlns="http://www.w3.org/2000/svg">
<path d="M8 16.3281C9.08854 16.3281 10.112 16.1198 11.0703 15.7031C12.0339 15.2865 12.8828 14.7109 13.6172 13.9766C14.3516 13.2422 14.9271 12.3958 15.3438 11.4375C15.7604 10.474 15.9688 9.44792 15.9688 8.35938C15.9688 7.27083 15.7604 6.2474 15.3438 5.28906C14.9271 4.32552 14.3516 3.47656 13.6172 2.74219C12.8828 2.00781 12.0339 1.43229 11.0703 1.01562C10.1068 0.598958 9.08073 0.390625 7.99219 0.390625C6.90365 0.390625 5.8776 0.598958 4.91406 1.01562C3.95573 1.43229 3.10938 2.00781 2.375 2.74219C1.64583 3.47656 1.07292 4.32552 0.65625 5.28906C0.239583 6.2474 0.03125 7.27083 0.03125 8.35938C0.03125 9.44792 0.239583 10.474 0.65625 11.4375C1.07292 12.3958 1.64844 13.2422 2.38281 13.9766C3.11719 14.7109 3.96354 15.2865 4.92188 15.7031C5.88542 16.1198 6.91146 16.3281 8 16.3281ZM8 15C7.07812 15 6.21615 14.8281 5.41406 14.4844C4.61198 14.1406 3.90625 13.6667 3.29688 13.0625C2.69271 12.4531 2.21875 11.7474 1.875 10.9453C1.53646 10.1432 1.36719 9.28125 1.36719 8.35938C1.36719 7.4375 1.53646 6.57552 1.875 5.77344C2.21875 4.97135 2.69271 4.26562 3.29688 3.65625C3.90104 3.04688 4.60417 2.57292 5.40625 2.23438C6.20833 1.89062 7.07031 1.71875 7.99219 1.71875C8.91406 1.71875 9.77604 1.89062 10.5781 2.23438C11.3854 2.57292 12.0911 3.04688 12.6953 3.65625C13.3047 4.26562 13.7812 4.97135 14.125 5.77344C14.4688 6.57552 14.6406 7.4375 14.6406 8.35938C14.6406 9.28125 14.4688 10.1432 14.125 10.9453C13.7865 11.7474 13.3125 12.4531 12.7031 13.0625C12.0938 13.6667 11.388 14.1406 10.5859 14.4844C9.78385 14.8281 8.92188 15 8 15ZM5.88281 11.6328C6.21615 11.6328 6.38281 11.4661 6.38281 11.1328V5.60156C6.38281 5.4349 6.33073 5.29948 6.22656 5.19531C6.1276 5.09115 5.99479 5.03906 5.82812 5.03906C5.70312 5.03906 5.59115 5.0599 5.49219 5.10156C5.39844 5.14323 5.28385 5.21094 5.14844 5.30469L3.96094 6.11719C3.78385 6.24219 3.69531 6.39583 3.69531 6.57812C3.69531 6.70833 3.73958 6.82031 3.82812 6.91406C3.92188 7.0026 4.02604 7.04688 4.14062 7.04688C4.20312 7.04688 4.26042 7.04167 4.3125 7.03125C4.36458 7.01562 4.4349 6.97135 4.52344 6.89844L5.35938 6.28125H5.40625V11.1328C5.40625 11.4661 5.5651 11.6328 5.88281 11.6328ZM10.0234 11.7266C10.4714 11.7266 10.862 11.5911 11.1953 11.3203C11.5339 11.0443 11.7943 10.6562 11.9766 10.1562C12.1641 9.65104 12.2578 9.05208 12.2578 8.35938C12.2578 7.66667 12.1641 7.06771 11.9766 6.5625C11.7943 6.05729 11.5339 5.66927 11.1953 5.39844C10.862 5.1276 10.4714 4.99219 10.0234 4.99219C9.57552 4.99219 9.18229 5.1276 8.84375 5.39844C8.51042 5.66927 8.25 6.05729 8.0625 6.5625C7.88021 7.06771 7.78906 7.66667 7.78906 8.35938C7.78906 9.05208 7.88021 9.65104 8.0625 10.1562C8.25 10.6562 8.51042 11.0443 8.84375 11.3203C9.18229 11.5911 9.57552 11.7266 10.0234 11.7266ZM10.0234 10.7812C9.64844 10.7812 9.35156 10.5651 9.13281 10.1328C8.91927 9.70052 8.8125 9.10938 8.8125 8.35938C8.8125 7.60938 8.91927 7.01823 9.13281 6.58594C9.35156 6.15365 9.64844 5.9375 10.0234 5.9375C10.3932 5.9375 10.6875 6.15365 10.9062 6.58594C11.125 7.01823 11.2344 7.60938 11.2344 8.35938C11.2344 9.10938 11.125 9.70052 10.9062 10.1328C10.6927 10.5651 10.3984 10.7812 10.0234 10.7812Z" fill="white"/>
</svg>
