<?xml version="1.0" encoding="UTF-8"?>
<svg xmlns="http://www.w3.org/2000/svg" xmlns:xlink="http://www.w3.org/1999/xlink" width="24" height="22.5" viewBox="0 0 24 22.5" version="1.1">
<g id="surface1">
<path style=" stroke:none;fill-rule:nonzero;fill:rgb(100%,100%,100%);fill-opacity:1;" d="M 4.886719 21.84375 L 19.101562 21.84375 C 20.328125 21.84375 21.246094 21.539062 21.855469 20.929688 C 22.472656 20.328125 22.78125 19.421875 22.78125 18.210938 L 22.78125 3.902344 C 22.78125 2.691406 22.472656 1.785156 21.855469 1.183594 C 21.246094 0.574219 20.328125 0.269531 19.101562 0.269531 L 4.886719 0.269531 C 3.660156 0.269531 2.738281 0.574219 2.121094 1.183594 C 1.511719 1.785156 1.207031 2.691406 1.207031 3.902344 L 1.207031 18.210938 C 1.207031 19.421875 1.511719 20.328125 2.121094 20.929688 C 2.738281 21.539062 3.660156 21.84375 4.886719 21.84375 Z M 8.730469 16.101562 C 8.511719 16.101562 8.332031 16.035156 8.191406 15.902344 C 8.058594 15.761719 7.992188 15.570312 7.992188 15.328125 L 7.992188 7.839844 L 7.921875 7.839844 L 6.632812 8.789062 C 6.492188 8.898438 6.382812 8.964844 6.304688 8.988281 C 6.226562 9.003906 6.136719 9.011719 6.035156 9.011719 C 5.863281 9.011719 5.703125 8.941406 5.554688 8.800781 C 5.414062 8.660156 5.34375 8.488281 5.34375 8.285156 C 5.34375 8.003906 5.480469 7.765625 5.753906 7.570312 L 7.59375 6.316406 C 7.804688 6.167969 7.984375 6.0625 8.132812 6 C 8.28125 5.9375 8.453125 5.90625 8.648438 5.90625 C 8.898438 5.90625 9.101562 5.988281 9.257812 6.152344 C 9.421875 6.316406 9.503906 6.523438 9.503906 6.773438 L 9.503906 15.328125 C 9.503906 15.84375 9.246094 16.101562 8.730469 16.101562 Z M 12.667969 15.972656 C 12.449219 15.972656 12.273438 15.90625 12.140625 15.773438 C 12.015625 15.640625 11.953125 15.46875 11.953125 15.257812 C 11.953125 15.015625 12.042969 14.796875 12.222656 14.601562 L 15.410156 10.863281 C 15.699219 10.519531 15.972656 10.175781 16.230469 9.832031 C 16.488281 9.488281 16.617188 9.117188 16.617188 8.71875 C 16.617188 8.273438 16.472656 7.914062 16.183594 7.640625 C 15.894531 7.367188 15.503906 7.230469 15.011719 7.230469 C 14.582031 7.230469 14.214844 7.34375 13.910156 7.570312 C 13.613281 7.789062 13.390625 8.125 13.242188 8.578125 C 13.164062 8.757812 13.070312 8.898438 12.960938 9 C 12.859375 9.09375 12.722656 9.140625 12.550781 9.140625 C 12.339844 9.140625 12.171875 9.078125 12.046875 8.953125 C 11.929688 8.820312 11.871094 8.640625 11.871094 8.414062 C 11.871094 8.34375 11.875 8.273438 11.882812 8.203125 C 11.898438 8.132812 11.910156 8.058594 11.917969 7.980469 C 12.082031 7.363281 12.449219 6.851562 13.019531 6.445312 C 13.589844 6.039062 14.234375 5.835938 14.953125 5.835938 C 15.90625 5.835938 16.664062 6.085938 17.226562 6.585938 C 17.796875 7.078125 18.082031 7.746094 18.082031 8.589844 C 18.082031 9.191406 17.933594 9.730469 17.636719 10.207031 C 17.347656 10.683594 16.976562 11.183594 16.523438 11.707031 L 14.167969 14.460938 L 14.167969 14.542969 L 17.671875 14.542969 C 17.859375 14.542969 18.015625 14.605469 18.140625 14.730469 C 18.273438 14.855469 18.339844 15.027344 18.339844 15.246094 C 18.339844 15.464844 18.273438 15.640625 18.140625 15.773438 C 18.015625 15.90625 17.859375 15.972656 17.671875 15.972656 Z M 12.667969 15.972656 "/>
</g>
</svg>
