<svg width="149" height="116" viewBox="0 0 149 116" fill="none" xmlns="http://www.w3.org/2000/svg">
<path d="M20.5625 115.438H128.688C135.271 115.438 140.188 113.812 143.438 110.562C146.688 107.354 148.312 102.542 148.312 96.125V19.75C148.312 13.3333 146.688 8.5 143.438 5.25C140.188 2 135.271 0.375 128.688 0.375H20.5625C14.0208 0.375 9.10417 2 5.8125 5.25C2.5625 8.45833 0.9375 13.2917 0.9375 19.75V96.125C0.9375 102.542 2.5625 107.354 5.8125 110.562C9.10417 113.812 14.0208 115.438 20.5625 115.438ZM36.625 84.25C35.2917 84.25 34.2292 83.8125 33.4375 82.9375C32.6458 82.0625 32.25 80.875 32.25 79.375V40.5625H31.75L24.4375 45.375C23.7292 45.8333 23.1875 46.125 22.8125 46.25C22.4375 46.375 22.0208 46.4375 21.5625 46.4375C20.7708 46.4375 20.0625 46.125 19.4375 45.5C18.8542 44.8333 18.5625 44.0625 18.5625 43.1875C18.5625 41.9375 19.125 40.9375 20.25 40.1875L30.5 33.1875C31.7083 32.3958 32.7292 31.8333 33.5625 31.5C34.3958 31.1667 35.3542 31 36.4375 31C37.8958 31 39.0208 31.4375 39.8125 32.3125C40.6458 33.1458 41.0625 34.3542 41.0625 35.9375V79.375C41.0625 80.9167 40.6667 82.125 39.875 83C39.0833 83.8333 38 84.25 36.625 84.25ZM55 83.4375C53.75 83.4375 52.75 83.1042 52 82.4375C51.25 81.7708 50.875 80.8542 50.875 79.6875C50.875 78.5208 51.375 77.3958 52.375 76.3125L70.4375 57C72.0625 55.25 73.5625 53.5 74.9375 51.75C76.3542 49.9583 77.0625 48.0625 77.0625 46.0625C77.0625 43.7292 76.25 41.8542 74.625 40.4375C73 39.0208 70.875 38.3125 68.25 38.3125C65.5417 38.3125 63.4167 39.0625 61.875 40.5625C60.3333 42.0625 59.2083 43.6667 58.5 45.375C58 46.2083 57.4375 46.8958 56.8125 47.4375C56.1875 47.9792 55.375 48.25 54.375 48.25C53.2083 48.25 52.2917 47.9167 51.625 47.25C50.9583 46.5833 50.625 45.6875 50.625 44.5625C50.625 44.1458 50.6458 43.7708 50.6875 43.4375C50.7708 43.1042 50.875 42.7292 51 42.3125C51.9167 39.0625 53.9583 36.3542 57.125 34.1875C60.2917 32.0208 63.875 30.9375 67.875 30.9375C73.0833 30.9375 77.2708 32.2708 80.4375 34.9375C83.6042 37.5625 85.1875 41.0417 85.1875 45.375C85.1875 48.4583 84.375 51.2292 82.75 53.6875C81.1667 56.1458 79.125 58.7292 76.625 61.4375L63.3125 75.6875V75.9375H83.8125C84.9792 75.9375 85.9167 76.2917 86.625 77C87.3333 77.6667 87.6875 78.5417 87.6875 79.625C87.6875 80.7083 87.3333 81.625 86.625 82.375C85.9167 83.0833 84.9792 83.4375 83.8125 83.4375H55ZM110.812 84.3125C107.771 84.3125 104.958 83.8542 102.375 82.9375C99.8333 81.9792 97.6875 80.6667 95.9375 79C94.2292 77.3333 93.1458 75.3958 92.6875 73.1875C92.5625 72.4375 92.5 71.7917 92.5 71.25C92.5 70.125 92.8333 69.2083 93.5 68.5C94.2083 67.75 95.1667 67.375 96.375 67.375C98.2083 67.375 99.5208 68.3333 100.312 70.25C101.062 72.4583 102.354 74.1458 104.188 75.3125C106.021 76.4792 108.271 77.0625 110.938 77.0625C114.188 77.0625 116.792 76.2917 118.75 74.75C120.75 73.2083 121.75 71.2083 121.75 68.75C121.75 66.25 120.771 64.2292 118.812 62.6875C116.896 61.1458 114.375 60.375 111.25 60.375H107.312C106.312 60.375 105.479 60.0417 104.812 59.375C104.146 58.7083 103.812 57.8542 103.812 56.8125C103.812 55.7708 104.146 54.9375 104.812 54.3125C105.479 53.6458 106.312 53.3125 107.312 53.3125H110.875C113.5 53.3125 115.688 52.5625 117.438 51.0625C119.188 49.5625 120.062 47.6667 120.062 45.375C120.062 43.1667 119.25 41.4167 117.625 40.125C116 38.8333 113.833 38.1875 111.125 38.1875C108.667 38.1875 106.562 38.7917 104.812 40C103.062 41.1667 101.875 42.8125 101.25 44.9375C100.625 46.8958 99.3333 47.875 97.375 47.875C96.2083 47.875 95.2708 47.5417 94.5625 46.875C93.8542 46.1667 93.5 45.2708 93.5 44.1875C93.5 43.7292 93.5208 43.3542 93.5625 43.0625C93.6042 42.7292 93.6458 42.3542 93.6875 41.9375C94.4792 38.5625 96.4583 35.875 99.625 33.875C102.792 31.875 106.667 30.875 111.25 30.875C116.25 30.875 120.354 32.1667 123.562 34.75C126.771 37.2917 128.375 40.5208 128.375 44.4375C128.375 47.3958 127.417 50.0208 125.5 52.3125C123.625 54.5625 121.292 55.9167 118.5 56.375V56.5C121.875 56.875 124.667 58.25 126.875 60.625C129.083 62.9583 130.188 65.7708 130.188 69.0625C130.188 73.6458 128.396 77.3333 124.812 80.125C121.271 82.9167 116.604 84.3125 110.812 84.3125Z" fill="white"/>
</svg>
