<svg width="128" height="128" viewBox="0 0 128 128" fill="none" xmlns="http://www.w3.org/2000/svg">
<path d="M63.9375 127.625C72.6458 127.625 80.8333 125.958 88.5 122.625C96.2083 119.292 103 114.688 108.875 108.812C114.75 102.938 119.354 96.1667 122.688 88.5C126.021 80.7917 127.688 72.5833 127.688 63.875C127.688 55.1667 126.021 46.9792 122.688 39.3125C119.354 31.6042 114.75 24.8125 108.875 18.9375C103 13.0625 96.2083 8.45833 88.5 5.125C80.7917 1.79167 72.5833 0.125 63.875 0.125C55.1667 0.125 46.9583 1.79167 39.25 5.125C31.5833 8.45833 24.8125 13.0625 18.9375 18.9375C13.1042 24.8125 8.52083 31.6042 5.1875 39.3125C1.85417 46.9792 0.1875 55.1667 0.1875 63.875C0.1875 72.5833 1.85417 80.7917 5.1875 88.5C8.52083 96.1667 13.125 102.938 19 108.812C24.875 114.688 31.6458 119.292 39.3125 122.625C47.0208 125.958 55.2292 127.625 63.9375 127.625ZM46.375 90.875C45.2083 90.875 44.25 90.5 43.5 89.75C42.7917 89 42.4375 88 42.4375 86.75V46.75H42.0625L35.1875 51.8125C34.4375 52.3958 33.8542 52.75 33.4375 52.875C33.0208 53 32.5417 53.0625 32 53.0625C31.0833 53.0625 30.2292 52.6875 29.4375 51.9375C28.6875 51.1875 28.3125 50.2708 28.3125 49.1875C28.3125 47.6875 29.0417 46.4167 30.5 45.375L40.3125 38.6875C41.4375 37.8958 42.3958 37.3333 43.1875 37C43.9792 36.6667 44.8958 36.5 45.9375 36.5C47.2708 36.5 48.3542 36.9375 49.1875 37.8125C50.0625 38.6875 50.5 39.7917 50.5 41.125V86.75C50.5 88 50.125 89 49.375 89.75C48.625 90.5 47.625 90.875 46.375 90.875ZM78.8125 91.6875C74.3958 91.6875 70.6042 90.5417 67.4375 88.25C64.3125 85.9583 62.3125 83.3333 61.4375 80.375C61.3125 79.9583 61.2292 79.5833 61.1875 79.25C61.1458 78.875 61.125 78.4583 61.125 78C61.125 76.875 61.4792 75.9583 62.1875 75.25C62.8958 74.5 63.7917 74.125 64.875 74.125C66.5833 74.125 67.8125 75.1458 68.5625 77.1875C69.4375 79.4375 70.7292 81.1667 72.4375 82.375C74.1875 83.5833 76.3333 84.1875 78.875 84.1875C81.9583 84.1875 84.4583 83.3542 86.375 81.6875C88.3333 80.0208 89.3125 77.9375 89.3125 75.4375C89.3125 72.8125 88.3958 70.7083 86.5625 69.125C84.7708 67.5417 82.3542 66.75 79.3125 66.75H75.5C74.4583 66.75 73.6042 66.3958 72.9375 65.6875C72.2708 64.9792 71.9375 64.1042 71.9375 63.0625C71.9375 61.8958 72.2708 60.9583 72.9375 60.25C73.6042 59.5417 74.4583 59.1875 75.5 59.1875H79C81.5417 59.1875 83.625 58.4375 85.25 56.9375C86.9167 55.3958 87.75 53.4583 87.75 51.125C87.75 48.875 86.9375 47.0625 85.3125 45.6875C83.6875 44.2708 81.6042 43.5625 79.0625 43.5625C76.5625 43.5625 74.5208 44.1667 72.9375 45.375C71.3542 46.5833 70.2083 48.3125 69.5 50.5625C69.1667 51.6042 68.7292 52.375 68.1875 52.875C67.6458 53.375 66.8958 53.625 65.9375 53.625C64.7708 53.625 63.8542 53.2708 63.1875 52.5625C62.5625 51.8125 62.25 50.8542 62.25 49.6875C62.25 48.7292 62.2917 47.9583 62.375 47.375C63.2083 44.2083 65.125 41.5417 68.125 39.375C71.1667 37.1667 74.875 36.0625 79.25 36.0625C84.0833 36.0625 88.0208 37.375 91.0625 40C94.1042 42.5833 95.625 45.9375 95.625 50.0625C95.625 53.1042 94.7083 55.8125 92.875 58.1875C91.0417 60.5625 88.8125 61.9583 86.1875 62.375V62.75C89.4375 63.0833 92.1042 64.4792 94.1875 66.9375C96.3125 69.3958 97.375 72.3542 97.375 75.8125C97.375 80.4375 95.6458 84.25 92.1875 87.25C88.7292 90.2083 84.2708 91.6875 78.8125 91.6875Z" fill="white"/>
</svg>
