<svg xmlns="http://www.w3.org/2000/svg" width="24" height="24"><path style="stroke:none;fill-rule:nonzero;fill:#fff;fill-opacity:1" d="M12 23.05c1.633 0 3.168-.292 4.605-.882a12.22 12.22 0 0 0 3.82-2.438 11.467 11.467 0 0 0 2.59-3.582c.626-1.363.938-2.808.938-4.347a10.2 10.2 0 0 0-.937-4.332 11.53 11.53 0 0 0-2.59-3.598 12.361 12.361 0 0 0-3.82-2.437A12.166 12.166 0 0 0 11.987.55c-1.633 0-3.172.293-4.617.883A12.307 12.307 0 0 0 3.562 3.87 11.523 11.523 0 0 0 .985 7.465 10.2 10.2 0 0 0 .047 11.8c0 1.539.312 2.984.937 4.347a11.467 11.467 0 0 0 2.59 3.582 12.236 12.236 0 0 0 3.809 2.438c1.445.59 2.984.883 4.617.883Zm0-1.874a10.222 10.222 0 0 1-7.055-2.734 9.548 9.548 0 0 1-2.133-2.989 8.83 8.83 0 0 1-.761-3.652c0-1.301.254-2.52.761-3.649A9.52 9.52 0 0 1 4.946 5.16 9.82 9.82 0 0 1 8.11 3.156c1.204-.488 2.496-.73 3.88-.73 1.382 0 2.675.242 3.878.73a9.701 9.701 0 0 1 3.176 2.004 9.432 9.432 0 0 1 2.145 2.992 8.685 8.685 0 0 1 .773 3.649c0 1.3-.258 2.52-.773 3.652a9.22 9.22 0 0 1-2.133 2.988A10.222 10.222 0 0 1 12 21.176Zm-3.21-4.754c.5 0 .75-.235.75-.703V7.906a.741.741 0 0 0-.235-.574c-.149-.144-.348-.219-.598-.219-.187 0-.355.028-.504.086-.14.063-.312.156-.515.29L5.905 8.636c-.265.175-.398.394-.398.648 0 .184.066.344.199.477.14.125.297.187.469.187.094 0 .18-.008.258-.023a1.03 1.03 0 0 0 .316-.188l1.254-.87h.07v6.847c0 .473.239.707.715.707Zm5.894.133c.992 0 1.8-.254 2.425-.762.633-.508.95-1.156.95-1.95a2.16 2.16 0 0 0-.575-1.511 2.154 2.154 0 0 0-1.464-.719v-.066c.484-.074.89-.313 1.218-.715.336-.414.504-.875.504-1.39 0-.708-.277-1.282-.832-1.723-.555-.446-1.27-.672-2.144-.672-.797 0-1.47.187-2.016.562-.547.375-.898.832-1.055 1.368a2.798 2.798 0 0 0-.023.398c0 .2.058.36.176.484.125.125.289.188.492.188a.614.614 0 0 0 .41-.129c.117-.113.2-.25.246-.398.125-.391.332-.688.621-.895.29-.207.66-.309 1.113-.309.461 0 .84.121 1.137.364.297.234.445.547.445.937 0 .406-.148.738-.445 1.004-.297.258-.68.387-1.148.387h-.633a.661.661 0 0 0-.469.176.646.646 0 0 0-.176.476c0 .176.059.324.176.45a.623.623 0 0 0 .469.175h.691c.555 0 .996.137 1.325.41.335.274.503.633.503 1.082 0 .426-.18.786-.539 1.078-.351.29-.808.43-1.37.43-.462 0-.852-.101-1.173-.308a1.923 1.923 0 0 1-.703-.895c-.14-.352-.363-.527-.668-.527a.687.687 0 0 0-.492.187.645.645 0 0 0-.187.473c0 .082.004.152.011.21.016.06.032.126.047.2.156.508.52.957 1.09 1.348.578.386 1.266.582 2.063.582Zm0 0"/></svg>