<svg width="16" height="17" viewBox="0 0 16 17" fill="none" xmlns="http://www.w3.org/2000/svg">
<path d="M8 16.3281C9.08854 16.3281 10.112 16.1198 11.0703 15.7031C12.0339 15.2865 12.8828 14.7109 13.6172 13.9766C14.3516 13.2422 14.9271 12.3958 15.3438 11.4375C15.7604 10.474 15.9688 9.44792 15.9688 8.35938C15.9688 7.27083 15.7604 6.2474 15.3438 5.28906C14.9271 4.32552 14.3516 3.47656 13.6172 2.74219C12.8828 2.00781 12.0339 1.43229 11.0703 1.01562C10.1068 0.598958 9.08073 0.390625 7.99219 0.390625C6.90365 0.390625 5.8776 0.598958 4.91406 1.01562C3.95573 1.43229 3.10938 2.00781 2.375 2.74219C1.64583 3.47656 1.07292 4.32552 0.65625 5.28906C0.239583 6.2474 0.03125 7.27083 0.03125 8.35938C0.03125 9.44792 0.239583 10.474 0.65625 11.4375C1.07292 12.3958 1.64844 13.2422 2.38281 13.9766C3.11719 14.7109 3.96354 15.2865 4.92188 15.7031C5.88542 16.1198 6.91146 16.3281 8 16.3281ZM5.77344 11.7344C5.6276 11.7344 5.50781 11.6875 5.41406 11.5938C5.32552 11.5 5.28125 11.375 5.28125 11.2188V6.21875H5.23438L4.375 6.85156C4.28125 6.92448 4.20833 6.96875 4.15625 6.98438C4.10417 7 4.04688 7.00781 3.98438 7.00781C3.86458 7.00781 3.75521 6.96094 3.65625 6.86719C3.5625 6.77344 3.51562 6.65885 3.51562 6.52344C3.51562 6.33594 3.60938 6.17708 3.79688 6.04688L5.01562 5.21094C5.15625 5.11198 5.27604 5.04167 5.375 5C5.47396 4.95833 5.58854 4.9375 5.71875 4.9375C5.89062 4.9375 6.02865 4.99219 6.13281 5.10156C6.24219 5.21094 6.29688 5.34896 6.29688 5.51562V11.2188C6.29688 11.375 6.25 11.5 6.15625 11.5938C6.0625 11.6875 5.9349 11.7344 5.77344 11.7344ZM11.0625 11.8203C10.9062 11.8203 10.7865 11.7682 10.7031 11.6641C10.6198 11.5599 10.5781 11.4297 10.5781 11.2734V10.3281H8.22656C8.02344 10.3281 7.85677 10.2682 7.72656 10.1484C7.60156 10.0234 7.53906 9.85417 7.53906 9.64062C7.53906 9.53125 7.55208 9.42708 7.57812 9.32812C7.60417 9.22917 7.64844 9.11719 7.71094 8.99219C7.85156 8.7474 8.0026 8.48438 8.16406 8.20312C8.33073 7.91667 8.5026 7.61979 8.67969 7.3125C8.85677 7.00521 9.03385 6.69792 9.21094 6.39062C9.39323 6.08333 9.56771 5.78906 9.73438 5.50781C9.86979 5.28385 10.0156 5.125 10.1719 5.03125C10.3281 4.93229 10.5234 4.88281 10.7578 4.88281C10.9922 4.88281 11.1823 4.95312 11.3281 5.09375C11.4792 5.23438 11.5547 5.42188 11.5547 5.65625V9.42188H11.9922C12.1328 9.42188 12.2448 9.46354 12.3281 9.54688C12.4115 9.625 12.4531 9.73698 12.4531 9.88281C12.4531 10.0234 12.4115 10.1328 12.3281 10.2109C12.2448 10.2891 12.1328 10.3281 11.9922 10.3281H11.5547V11.2734C11.5547 11.4349 11.513 11.5677 11.4297 11.6719C11.3464 11.7708 11.224 11.8203 11.0625 11.8203ZM10.5781 9.42188V5.97656H10.5312C10.4062 6.19531 10.2734 6.42448 10.1328 6.66406C9.99219 6.90365 9.85156 7.14583 9.71094 7.39062C9.57031 7.63542 9.43229 7.8776 9.29688 8.11719C9.16146 8.35156 9.03385 8.57812 8.91406 8.79688C8.79427 9.01042 8.6875 9.20833 8.59375 9.39062V9.42188H10.5781Z" fill="white"/>
</svg>
