<svg xmlns="http://www.w3.org/2000/svg" width="24" height="24"><path style="stroke:none;fill-rule:nonzero;fill:#fff;fill-opacity:1" d="M4.887 23.3h14.215c1.226 0 2.144-.323 2.753-.976.618-.64.926-1.605.926-2.898V4.164c0-1.293-.308-2.258-.926-2.898-.609-.653-1.527-.977-2.753-.977H4.887c-1.227 0-2.149.324-2.766.977-.61.64-.914 1.605-.914 2.898v15.262c0 1.293.305 2.258.914 2.902.617.649 1.54.973 2.766.973Zm3.773-6.124a.7.7 0 0 1-.539-.227c-.133-.148-.2-.351-.2-.597v-8h-.07L6.564 9.363c-.141.117-.25.188-.329.211a.826.826 0 0 1-.257.04.678.678 0 0 1-.493-.227.783.783 0 0 1-.21-.551c0-.297.14-.555.421-.762l1.828-1.336c.211-.16.391-.27.54-.34.164-.066.34-.101.515-.097.258 0 .465.086.621.261a.926.926 0 0 1 .246.66v9.13c0 .25-.07.449-.21.597-.141.153-.333.227-.575.227Zm7.934.137c-.235 0-.414-.083-.54-.25a1.01 1.01 0 0 1-.187-.625v-1.512H12.34c-.305 0-.555-.098-.75-.29-.188-.198-.281-.468-.281-.812 0-.176.02-.34.058-.5.04-.156.106-.336.2-.535l.68-1.266c.25-.457.507-.93.773-1.421l.796-1.477.786-1.414c.203-.356.421-.61.656-.762.234-.156.527-.238.879-.238.351 0 .636.113.855.34.227.222.34.523.34.898v6.028h.656c.211 0 .38.066.504.199.125.125.188.304.188.535 0 .226-.063.402-.188.527s-.293.188-.504.188h-.656v1.511c.008.231-.059.454-.187.637-.125.16-.31.238-.551.238Zm-.727-3.836V7.96h-.07a91.84 91.84 0 0 1-.598 1.101c-.426.77-.844 1.547-1.254 2.325-.203.375-.394.738-.574 1.09-.18.34-.34.656-.48.949v.05Zm0 0"/></svg>