<svg width="16" height="15" viewBox="0 0 16 15" fill="none" xmlns="http://www.w3.org/2000/svg">
<path d="M3.25781 14.5625H12.7344C13.5521 14.5625 14.1641 14.3594 14.5703 13.9531C14.9818 13.5521 15.1875 12.9479 15.1875 12.1406V2.60156C15.1875 1.79427 14.9818 1.1901 14.5703 0.789062C14.1641 0.382812 13.5521 0.179688 12.7344 0.179688H3.25781C2.4401 0.179688 1.82552 0.382812 1.41406 0.789062C1.00781 1.1901 0.804688 1.79427 0.804688 2.60156V12.1406C0.804688 12.9479 1.00781 13.5521 1.41406 13.9531C1.82552 14.3594 2.4401 14.5625 3.25781 14.5625ZM3.27344 13.3047C2.88281 13.3047 2.58333 13.2031 2.375 13C2.16667 12.7917 2.0625 12.4844 2.0625 12.0781V2.66406C2.0625 2.25781 2.16667 1.95312 2.375 1.75C2.58333 1.54167 2.88281 1.4375 3.27344 1.4375H12.7188C13.1042 1.4375 13.401 1.54167 13.6094 1.75C13.8229 1.95312 13.9297 2.25781 13.9297 2.66406V12.0781C13.9297 12.4844 13.8229 12.7917 13.6094 13C13.401 13.2031 13.1042 13.3047 12.7188 13.3047H3.27344ZM5.84375 10.6328C6.17708 10.6328 6.34375 10.4661 6.34375 10.1328V4.60156C6.34375 4.4349 6.29167 4.29948 6.1875 4.19531C6.08854 4.09115 5.95573 4.03906 5.78906 4.03906C5.66406 4.03906 5.55208 4.0599 5.45312 4.10156C5.35938 4.14323 5.24479 4.21094 5.10938 4.30469L3.92188 5.11719C3.74479 5.24219 3.65625 5.39583 3.65625 5.57812C3.65625 5.70833 3.70052 5.82031 3.78906 5.91406C3.88281 6.0026 3.98698 6.04688 4.10156 6.04688C4.16406 6.04688 4.22135 6.04167 4.27344 6.03125C4.32552 6.01562 4.39583 5.97135 4.48438 5.89844L5.32031 5.28125H5.36719V10.1328C5.36719 10.4661 5.52604 10.6328 5.84375 10.6328ZM10.9688 10.7109C11.125 10.7109 11.2422 10.6615 11.3203 10.5625C11.4036 10.4635 11.4453 10.3385 11.4453 10.1875V9.26562H11.8672C12.1641 9.26562 12.3125 9.1224 12.3125 8.83594C12.3125 8.69531 12.2708 8.58594 12.1875 8.50781C12.1094 8.42969 12.0026 8.39062 11.8672 8.39062H11.4453V4.73438C11.4453 4.51042 11.3724 4.33073 11.2266 4.19531C11.0859 4.0599 10.901 3.99219 10.6719 3.99219C10.4479 3.99219 10.2604 4.03906 10.1094 4.13281C9.95833 4.22135 9.81771 4.375 9.6875 4.59375C9.52604 4.86979 9.35677 5.15625 9.17969 5.45312C9.00781 5.75 8.83333 6.04688 8.65625 6.34375C8.48438 6.64062 8.31771 6.92969 8.15625 7.21094C8 7.48698 7.85417 7.74219 7.71875 7.97656C7.65625 8.09635 7.61198 8.20312 7.58594 8.29688C7.5651 8.39062 7.55469 8.49219 7.55469 8.60156C7.55469 8.8099 7.61458 8.97396 7.73438 9.09375C7.85938 9.20833 8.02083 9.26562 8.21875 9.26562H10.5V10.1875C10.5 10.3385 10.5391 10.4635 10.6172 10.5625C10.6953 10.6615 10.8125 10.7109 10.9688 10.7109ZM10.5 8.39062H8.57031V8.35938C8.66406 8.18229 8.76823 7.98958 8.88281 7.78125C8.9974 7.56771 9.11979 7.34635 9.25 7.11719C9.38542 6.88802 9.52083 6.65625 9.65625 6.42188C9.79688 6.18229 9.9349 5.94792 10.0703 5.71875C10.2057 5.48438 10.3359 5.26042 10.4609 5.04688H10.5V8.39062Z" fill="white"/>
</svg>
