<svg width="16" height="17" viewBox="0 0 16 17" fill="none" xmlns="http://www.w3.org/2000/svg">
<path d="M8 16.3281C9.08854 16.3281 10.112 16.1198 11.0703 15.7031C12.0339 15.2865 12.8828 14.7109 13.6172 13.9766C14.3516 13.2422 14.9271 12.3958 15.3438 11.4375C15.7604 10.474 15.9688 9.44792 15.9688 8.35938C15.9688 7.27083 15.7604 6.2474 15.3438 5.28906C14.9271 4.32552 14.3516 3.47656 13.6172 2.74219C12.8828 2.00781 12.0339 1.43229 11.0703 1.01562C10.1068 0.598958 9.08073 0.390625 7.99219 0.390625C6.90365 0.390625 5.8776 0.598958 4.91406 1.01562C3.95573 1.43229 3.10938 2.00781 2.375 2.74219C1.64583 3.47656 1.07292 4.32552 0.65625 5.28906C0.239583 6.2474 0.03125 7.27083 0.03125 8.35938C0.03125 9.44792 0.239583 10.474 0.65625 11.4375C1.07292 12.3958 1.64844 13.2422 2.38281 13.9766C3.11719 14.7109 3.96354 15.2865 4.92188 15.7031C5.88542 16.1198 6.91146 16.3281 8 16.3281ZM5.82031 11.7344C5.66927 11.7344 5.54688 11.6875 5.45312 11.5938C5.36458 11.5 5.32031 11.375 5.32031 11.2188V6.21875H5.27344L4.42188 6.85156C4.32812 6.92448 4.2526 6.96875 4.19531 6.98438C4.14323 7 4.08594 7.00781 4.02344 7.00781C3.90885 7.00781 3.80208 6.96094 3.70312 6.86719C3.60938 6.77344 3.5625 6.65885 3.5625 6.52344C3.5625 6.33073 3.65365 6.17188 3.83594 6.04688L5.05469 5.21094C5.20052 5.11198 5.32031 5.04167 5.41406 5C5.51302 4.95312 5.6276 4.92969 5.75781 4.92969C5.92969 4.92969 6.06771 4.98698 6.17188 5.10156C6.28125 5.21094 6.33594 5.34896 6.33594 5.51562V11.2188C6.33594 11.375 6.28906 11.5 6.19531 11.5938C6.10156 11.6875 5.97656 11.7344 5.82031 11.7344ZM10.0234 11.8359C9.51823 11.8359 9.08073 11.7188 8.71094 11.4844C8.34115 11.25 8.09635 10.9661 7.97656 10.6328C7.95573 10.5807 7.9375 10.5234 7.92188 10.4609C7.91146 10.3984 7.90625 10.3333 7.90625 10.2656C7.90625 10.1302 7.94792 10.0182 8.03125 9.92969C8.11458 9.84115 8.22656 9.79688 8.36719 9.79688C8.46094 9.79688 8.54427 9.82552 8.61719 9.88281C8.69531 9.9401 8.76562 10.0286 8.82812 10.1484C8.94271 10.388 9.10938 10.5755 9.32812 10.7109C9.55208 10.8464 9.80208 10.9141 10.0781 10.9141C10.4635 10.9141 10.7786 10.7969 11.0234 10.5625C11.2682 10.3229 11.3906 9.99219 11.3906 9.57031C11.3906 9.20052 11.2786 8.89062 11.0547 8.64062C10.8359 8.39062 10.5521 8.26562 10.2031 8.26562C10.026 8.26562 9.86458 8.29948 9.71875 8.36719C9.57812 8.42969 9.42448 8.53125 9.25781 8.67188C9.13281 8.78125 9.02344 8.85417 8.92969 8.89062C8.83594 8.92708 8.72656 8.94531 8.60156 8.94531C8.41406 8.94531 8.26823 8.88281 8.16406 8.75781C8.0599 8.63281 8.01562 8.46354 8.03125 8.25L8.22656 5.74219C8.24219 5.52865 8.3151 5.36198 8.44531 5.24219C8.57552 5.11719 8.7474 5.05469 8.96094 5.05469H11.7344C11.849 5.05469 11.9427 5.09896 12.0156 5.1875C12.0885 5.27083 12.125 5.3776 12.125 5.50781C12.125 5.63802 12.0885 5.7474 12.0156 5.83594C11.9427 5.91927 11.849 5.96094 11.7344 5.96094H9.07031L8.91406 8.02344H8.94531C9.07031 7.84115 9.26042 7.69271 9.51562 7.57812C9.77083 7.45833 10.0339 7.39844 10.3047 7.39844C10.9245 7.39844 11.4271 7.60156 11.8125 8.00781C12.1979 8.41406 12.3906 8.92708 12.3906 9.54688C12.3906 10.2552 12.1745 10.8151 11.7422 11.2266C11.3099 11.6328 10.737 11.8359 10.0234 11.8359Z" fill="white"/>
</svg>
