<svg width="128" height="128" viewBox="0 0 128 128" fill="none" xmlns="http://www.w3.org/2000/svg">
<path d="M63.9375 127.625C72.6458 127.625 80.8333 125.958 88.5 122.625C96.2083 119.292 103 114.688 108.875 108.812C114.75 102.938 119.354 96.1667 122.688 88.5C126.021 80.7917 127.688 72.5833 127.688 63.875C127.688 55.1667 126.021 46.9792 122.688 39.3125C119.354 31.6042 114.75 24.8125 108.875 18.9375C103 13.0625 96.2083 8.45833 88.5 5.125C80.7917 1.79167 72.5833 0.125 63.875 0.125C55.1667 0.125 46.9583 1.79167 39.25 5.125C31.5833 8.45833 24.8125 13.0625 18.9375 18.9375C13.1042 24.8125 8.52083 31.6042 5.1875 39.3125C1.85417 46.9792 0.1875 55.1667 0.1875 63.875C0.1875 72.5833 1.85417 80.7917 5.1875 88.5C8.52083 96.1667 13.125 102.938 19 108.812C24.875 114.688 31.6458 119.292 39.3125 122.625C47.0208 125.958 55.2292 127.625 63.9375 127.625ZM63.9375 117C56.5625 117 49.6667 115.625 43.25 112.875C36.8333 110.125 31.1875 106.333 26.3125 101.5C21.4792 96.625 17.6875 90.9792 14.9375 84.5625C12.2292 78.1458 10.875 71.25 10.875 63.875C10.875 56.5 12.2292 49.6042 14.9375 43.1875C17.6875 36.7708 21.4792 31.125 26.3125 26.25C31.1458 21.375 36.7708 17.5833 43.1875 14.875C49.6042 12.125 56.5 10.75 63.875 10.75C71.25 10.75 78.1458 12.125 84.5625 14.875C91.0208 17.5833 96.6667 21.375 101.5 26.25C106.375 31.125 110.188 36.7708 112.938 43.1875C115.688 49.6042 117.062 56.5 117.062 63.875C117.062 71.25 115.688 78.1458 112.938 84.5625C110.229 90.9792 106.438 96.625 101.562 101.5C96.6875 106.333 91.0417 110.125 84.625 112.875C78.2083 115.625 71.3125 117 63.9375 117ZM46.125 90.0625C48.7917 90.0625 50.125 88.7292 50.125 86.0625V41.8125C50.125 40.4792 49.7083 39.3958 48.875 38.5625C48.0833 37.7292 47.0208 37.3125 45.6875 37.3125C44.6875 37.3125 43.7917 37.4792 43 37.8125C42.25 38.1458 41.3333 38.6875 40.25 39.4375L30.75 45.9375C29.3333 46.9375 28.625 48.1667 28.625 49.625C28.625 50.6667 28.9792 51.5625 29.6875 52.3125C30.4375 53.0208 31.2708 53.375 32.1875 53.375C32.6875 53.375 33.1458 53.3333 33.5625 53.25C33.9792 53.125 34.5417 52.7708 35.25 52.1875L41.9375 47.25H42.3125V86.0625C42.3125 88.7292 43.5833 90.0625 46.125 90.0625ZM78.75 90.8125C84.25 90.8125 88.6875 89.2292 92.0625 86.0625C95.4375 82.8958 97.125 78.5625 97.125 73.0625C97.125 68.2708 95.625 64.3125 92.625 61.1875C89.6667 58.0208 85.7708 56.4375 80.9375 56.4375C78.8542 56.4375 76.8125 56.8958 74.8125 57.8125C72.8125 58.7292 71.3333 59.8958 70.375 61.3125H70.125L71.3125 45.25H92C92.875 45.25 93.6042 44.9167 94.1875 44.25C94.7708 43.5833 95.0625 42.75 95.0625 41.75C95.0625 40.75 94.7708 39.9167 94.1875 39.25C93.6458 38.5833 92.9167 38.25 92 38.25H70.5C68.875 38.25 67.5417 38.7292 66.5 39.6875C65.5 40.6458 64.9375 41.9375 64.8125 43.5625L63.3125 63.0625C63.1875 64.6875 63.5208 66 64.3125 67C65.1458 67.9583 66.2708 68.4375 67.6875 68.4375C68.6458 68.4375 69.4792 68.2917 70.1875 68C70.9375 67.7083 71.7917 67.1458 72.75 66.3125C74.0417 65.1875 75.25 64.375 76.375 63.875C77.5 63.375 78.75 63.125 80.125 63.125C82.875 63.125 85.1042 64.1042 86.8125 66.0625C88.5208 67.9792 89.375 70.375 89.375 73.25C89.375 76.5 88.4167 79.0625 86.5 80.9375C84.625 82.8125 82.1875 83.75 79.1875 83.75C77.0208 83.75 75.0833 83.2292 73.375 82.1875C71.6667 81.1042 70.3542 79.625 69.4375 77.75C68.9792 76.8333 68.4375 76.1667 67.8125 75.75C67.2292 75.2917 66.5833 75.0625 65.875 75.0625C64.7917 75.0625 63.9167 75.4167 63.25 76.125C62.625 76.7917 62.3125 77.6458 62.3125 78.6875C62.3125 79.1875 62.3542 79.6875 62.4375 80.1875C62.5625 80.6458 62.7083 81.0833 62.875 81.5C63.8333 84.0833 65.7292 86.2917 68.5625 88.125C71.4375 89.9167 74.8333 90.8125 78.75 90.8125Z" fill="white"/>
</svg>
