<?xml version="1.0" encoding="UTF-8"?>
<svg xmlns="http://www.w3.org/2000/svg" xmlns:xlink="http://www.w3.org/1999/xlink" width="24" height="22.5" viewBox="0 0 24 22.5" version="1.1">
<g id="surface1">
<path style=" stroke:none;fill-rule:nonzero;fill:rgb(100%,100%,100%);fill-opacity:1;" d="M 4.886719 21.84375 L 19.101562 21.84375 C 20.328125 21.84375 21.246094 21.539062 21.855469 20.929688 C 22.472656 20.328125 22.78125 19.421875 22.78125 18.210938 L 22.78125 3.902344 C 22.78125 2.691406 22.472656 1.785156 21.855469 1.183594 C 21.246094 0.574219 20.328125 0.269531 19.101562 0.269531 L 4.886719 0.269531 C 3.660156 0.269531 2.738281 0.574219 2.121094 1.183594 C 1.511719 1.785156 1.207031 2.691406 1.207031 3.902344 L 1.207031 18.210938 C 1.207031 19.421875 1.511719 20.328125 2.121094 20.929688 C 2.738281 21.539062 3.660156 21.84375 4.886719 21.84375 Z M 8.730469 16.101562 C 8.503906 16.101562 8.320312 16.03125 8.179688 15.890625 C 8.046875 15.75 7.980469 15.5625 7.980469 15.328125 L 7.980469 7.828125 L 7.910156 7.828125 L 6.632812 8.777344 C 6.492188 8.886719 6.378906 8.953125 6.292969 8.976562 C 6.214844 9 6.128906 9.011719 6.035156 9.011719 C 5.863281 9.011719 5.703125 8.941406 5.554688 8.800781 C 5.414062 8.660156 5.34375 8.488281 5.34375 8.285156 C 5.34375 7.996094 5.480469 7.757812 5.753906 7.570312 L 7.582031 6.316406 C 7.800781 6.167969 7.980469 6.0625 8.121094 6 C 8.269531 5.929688 8.441406 5.894531 8.636719 5.894531 C 8.894531 5.894531 9.101562 5.980469 9.257812 6.152344 C 9.421875 6.316406 9.503906 6.523438 9.503906 6.773438 L 9.503906 15.328125 C 9.503906 15.5625 9.433594 15.75 9.292969 15.890625 C 9.152344 16.03125 8.964844 16.101562 8.730469 16.101562 Z M 15.035156 16.253906 C 14.277344 16.253906 13.621094 16.078125 13.066406 15.726562 C 12.511719 15.375 12.144531 14.949219 11.964844 14.449219 C 11.933594 14.371094 11.90625 14.285156 11.882812 14.191406 C 11.867188 14.097656 11.859375 14 11.859375 13.898438 C 11.859375 13.695312 11.921875 13.527344 12.046875 13.394531 C 12.171875 13.261719 12.339844 13.195312 12.550781 13.195312 C 12.691406 13.195312 12.816406 13.238281 12.925781 13.324219 C 13.042969 13.410156 13.148438 13.542969 13.242188 13.722656 C 13.414062 14.082031 13.664062 14.363281 13.992188 14.566406 C 14.328125 14.769531 14.703125 14.871094 15.117188 14.871094 C 15.695312 14.871094 16.167969 14.695312 16.535156 14.34375 C 16.902344 13.984375 17.085938 13.488281 17.085938 12.855469 C 17.085938 12.300781 16.917969 11.835938 16.582031 11.460938 C 16.253906 11.085938 15.828125 10.898438 15.304688 10.898438 C 15.039062 10.898438 14.796875 10.949219 14.578125 11.050781 C 14.367188 11.144531 14.136719 11.296875 13.886719 11.507812 C 13.699219 11.671875 13.535156 11.78125 13.394531 11.835938 C 13.253906 11.890625 13.089844 11.917969 12.902344 11.917969 C 12.621094 11.917969 12.402344 11.824219 12.246094 11.636719 C 12.089844 11.449219 12.023438 11.195312 12.046875 10.875 L 12.339844 7.113281 C 12.363281 6.792969 12.472656 6.542969 12.667969 6.363281 C 12.863281 6.175781 13.121094 6.082031 13.441406 6.082031 L 17.601562 6.082031 C 17.773438 6.082031 17.914062 6.148438 18.023438 6.28125 C 18.132812 6.40625 18.1875 6.566406 18.1875 6.761719 C 18.1875 6.957031 18.132812 7.121094 18.023438 7.253906 C 17.914062 7.378906 17.773438 7.441406 17.601562 7.441406 L 13.605469 7.441406 L 13.371094 10.535156 L 13.417969 10.535156 C 13.605469 10.261719 13.890625 10.039062 14.273438 9.867188 C 14.65625 9.6875 15.050781 9.597656 15.457031 9.597656 C 16.386719 9.597656 17.140625 9.902344 17.71875 10.511719 C 18.296875 11.121094 18.585938 11.890625 18.585938 12.820312 C 18.585938 13.882812 18.261719 14.722656 17.613281 15.339844 C 16.964844 15.949219 16.105469 16.253906 15.035156 16.253906 Z M 15.035156 16.253906 "/>
</g>
</svg>
