<svg width="16" height="15" viewBox="0 0 16 15" fill="none" xmlns="http://www.w3.org/2000/svg">
<path d="M3.25781 14.5625H12.7344C13.5521 14.5625 14.1641 14.3594 14.5703 13.9531C14.9818 13.5521 15.1875 12.9479 15.1875 12.1406V2.60156C15.1875 1.79427 14.9818 1.1901 14.5703 0.789062C14.1641 0.382812 13.5521 0.179688 12.7344 0.179688H3.25781C2.4401 0.179688 1.82552 0.382812 1.41406 0.789062C1.00781 1.1901 0.804688 1.79427 0.804688 2.60156V12.1406C0.804688 12.9479 1.00781 13.5521 1.41406 13.9531C1.82552 14.3594 2.4401 14.5625 3.25781 14.5625ZM5.82031 10.7344C5.66927 10.7344 5.54688 10.6875 5.45312 10.5938C5.36458 10.5 5.32031 10.375 5.32031 10.2188V5.21875H5.27344L4.42188 5.85156C4.32812 5.92448 4.2526 5.96875 4.19531 5.98438C4.14323 6 4.08594 6.00781 4.02344 6.00781C3.90885 6.00781 3.80208 5.96094 3.70312 5.86719C3.60938 5.77344 3.5625 5.65885 3.5625 5.52344C3.5625 5.33073 3.65365 5.17188 3.83594 5.04688L5.05469 4.21094C5.20052 4.11198 5.32031 4.04167 5.41406 4C5.51302 3.95312 5.6276 3.92969 5.75781 3.92969C5.92969 3.92969 6.06771 3.98698 6.17188 4.10156C6.28125 4.21094 6.33594 4.34896 6.33594 4.51562V10.2188C6.33594 10.375 6.28906 10.5 6.19531 10.5938C6.10156 10.6875 5.97656 10.7344 5.82031 10.7344ZM10.0234 10.8359C9.51823 10.8359 9.08073 10.7188 8.71094 10.4844C8.34115 10.25 8.09635 9.96615 7.97656 9.63281C7.95573 9.58073 7.9375 9.52344 7.92188 9.46094C7.91146 9.39844 7.90625 9.33333 7.90625 9.26562C7.90625 9.13021 7.94792 9.01823 8.03125 8.92969C8.11458 8.84115 8.22656 8.79688 8.36719 8.79688C8.46094 8.79688 8.54427 8.82552 8.61719 8.88281C8.69531 8.9401 8.76562 9.02865 8.82812 9.14844C8.94271 9.38802 9.10938 9.57552 9.32812 9.71094C9.55208 9.84635 9.80208 9.91406 10.0781 9.91406C10.4635 9.91406 10.7786 9.79688 11.0234 9.5625C11.2682 9.32292 11.3906 8.99219 11.3906 8.57031C11.3906 8.20052 11.2786 7.89062 11.0547 7.64062C10.8359 7.39062 10.5521 7.26562 10.2031 7.26562C10.026 7.26562 9.86458 7.29948 9.71875 7.36719C9.57812 7.42969 9.42448 7.53125 9.25781 7.67188C9.13281 7.78125 9.02344 7.85417 8.92969 7.89062C8.83594 7.92708 8.72656 7.94531 8.60156 7.94531C8.41406 7.94531 8.26823 7.88281 8.16406 7.75781C8.0599 7.63281 8.01562 7.46354 8.03125 7.25L8.22656 4.74219C8.24219 4.52865 8.3151 4.36198 8.44531 4.24219C8.57552 4.11719 8.7474 4.05469 8.96094 4.05469H11.7344C11.849 4.05469 11.9427 4.09896 12.0156 4.1875C12.0885 4.27083 12.125 4.3776 12.125 4.50781C12.125 4.63802 12.0885 4.7474 12.0156 4.83594C11.9427 4.91927 11.849 4.96094 11.7344 4.96094H9.07031L8.91406 7.02344H8.94531C9.07031 6.84115 9.26042 6.69271 9.51562 6.57812C9.77083 6.45833 10.0339 6.39844 10.3047 6.39844C10.9245 6.39844 11.4271 6.60156 11.8125 7.00781C12.1979 7.41406 12.3906 7.92708 12.3906 8.54688C12.3906 9.25521 12.1745 9.8151 11.7422 10.2266C11.3099 10.6328 10.737 10.8359 10.0234 10.8359Z" fill="white"/>
</svg>
