<svg width="16" height="15" viewBox="0 0 16 15" fill="none" xmlns="http://www.w3.org/2000/svg">
<path d="M3.25781 14.5625H12.7344C13.5521 14.5625 14.1641 14.3594 14.5703 13.9531C14.9818 13.5521 15.1875 12.9479 15.1875 12.1406V2.60156C15.1875 1.79427 14.9818 1.1901 14.5703 0.789062C14.1641 0.382812 13.5521 0.179688 12.7344 0.179688H3.25781C2.4401 0.179688 1.82552 0.382812 1.41406 0.789062C1.00781 1.1901 0.804688 1.79427 0.804688 2.60156V12.1406C0.804688 12.9479 1.00781 13.5521 1.41406 13.9531C1.82552 14.3594 2.4401 14.5625 3.25781 14.5625ZM5.9375 10.7344C5.79167 10.7344 5.67188 10.6875 5.57812 10.5938C5.48958 10.5 5.44531 10.375 5.44531 10.2188V5.21875H5.39844L4.53906 5.85938C4.44531 5.93229 4.3724 5.97656 4.32031 5.99219C4.26823 6.0026 4.20833 6.00781 4.14062 6.00781C4.02604 6.00781 3.91927 5.96094 3.82031 5.86719C3.72656 5.77344 3.67969 5.65885 3.67969 5.52344C3.67969 5.33594 3.77083 5.17708 3.95312 5.04688L5.17969 4.21094C5.32031 4.11198 5.4401 4.04167 5.53906 4C5.63802 3.95833 5.7526 3.9375 5.88281 3.9375C6.05469 3.9375 6.19271 3.99219 6.29688 4.10156C6.40625 4.21094 6.46094 4.34896 6.46094 4.51562V10.2188C6.46094 10.375 6.41406 10.5 6.32031 10.5938C6.22656 10.6875 6.09896 10.7344 5.9375 10.7344ZM9.03125 10.7422C8.88021 10.7422 8.7526 10.6927 8.64844 10.5938C8.54948 10.4948 8.5 10.3698 8.5 10.2188C8.5 10.1406 8.50521 10.0755 8.51562 10.0234C8.52604 9.96615 8.54688 9.90625 8.57812 9.84375L11.0781 5.02344V4.95312H8.25C8.10938 4.95312 7.99479 4.91406 7.90625 4.83594C7.82292 4.7526 7.78125 4.64323 7.78125 4.50781C7.78125 4.36719 7.82292 4.25521 7.90625 4.17188C7.99479 4.08854 8.10938 4.04688 8.25 4.04688H11.5C11.7188 4.04688 11.8932 4.11719 12.0234 4.25781C12.1536 4.39323 12.2188 4.55729 12.2188 4.75C12.2188 4.83333 12.2083 4.91927 12.1875 5.00781C12.1719 5.09115 12.1302 5.19792 12.0625 5.32812L9.55469 10.3516C9.48177 10.4922 9.40365 10.5938 9.32031 10.6562C9.23698 10.7135 9.14062 10.7422 9.03125 10.7422Z" fill="white"/>
</svg>
