<svg width="116" height="116" viewBox="0 0 116 116" fill="none" xmlns="http://www.w3.org/2000/svg">
<path d="M20.5625 115.5H96.375C102.917 115.5 107.812 113.875 111.062 110.625C114.354 107.417 116 102.583 116 96.125V19.8125C116 13.3542 114.354 8.52083 111.062 5.3125C107.812 2.0625 102.917 0.4375 96.375 0.4375H20.5625C14.0208 0.4375 9.10417 2.0625 5.8125 5.3125C2.5625 8.52083 0.9375 13.3542 0.9375 19.8125V96.125C0.9375 102.583 2.5625 107.417 5.8125 110.625C9.10417 113.875 14.0208 115.5 20.5625 115.5ZM20.6875 105.438C17.5625 105.438 15.1667 104.625 13.5 103C11.8333 101.333 11 98.875 11 95.625V20.3125C11 17.0625 11.8333 14.625 13.5 13C15.1667 11.3333 17.5625 10.5 20.6875 10.5H96.25C99.3333 10.5 101.708 11.3333 103.375 13C105.083 14.625 105.938 17.0625 105.938 20.3125V95.625C105.938 98.875 105.083 101.333 103.375 103C101.708 104.625 99.3333 105.438 96.25 105.438H20.6875ZM40.625 84.0625C43.2917 84.0625 44.625 82.7292 44.625 80.0625V35.8125C44.625 34.4792 44.2083 33.3958 43.375 32.5625C42.5833 31.7292 41.5208 31.3125 40.1875 31.3125C39.1875 31.3125 38.2917 31.4792 37.5 31.8125C36.75 32.1458 35.8333 32.6875 34.75 33.4375L25.25 39.9375C23.8333 40.9375 23.125 42.1667 23.125 43.625C23.125 44.6667 23.4792 45.5625 24.1875 46.3125C24.9375 47.0208 25.7708 47.375 26.6875 47.375C27.1875 47.375 27.6458 47.3333 28.0625 47.25C28.4792 47.125 29.0417 46.7708 29.75 46.1875L36.4375 41.25H36.8125V80.0625C36.8125 82.7292 38.0833 84.0625 40.625 84.0625ZM74.5625 84.8125C80.0208 84.8125 84.4375 83.3958 87.8125 80.5625C91.1875 77.7292 92.875 74.0417 92.875 69.5C92.875 66.2917 91.9375 63.5 90.0625 61.125C88.2292 58.75 85.625 57.2292 82.25 56.5625V56.1875C85.125 55.4375 87.3125 54.0208 88.8125 51.9375C90.3125 49.8125 91.0625 47.3958 91.0625 44.6875C91.0625 40.6042 89.5208 37.2917 86.4375 34.75C83.3958 32.2083 79.4792 30.9375 74.6875 30.9375C69.8958 30.9375 65.9792 32.2083 62.9375 34.75C59.8958 37.2917 58.375 40.6042 58.375 44.6875C58.375 47.3958 59.1042 49.7917 60.5625 51.875C62.0625 53.9167 64.2708 55.3542 67.1875 56.1875V56.5625C63.7708 57.2292 61.1458 58.7708 59.3125 61.1875C57.4792 63.5625 56.5625 66.3542 56.5625 69.5625C56.5625 74.1042 58.2083 77.7917 61.5 80.625C64.8333 83.4167 69.1875 84.8125 74.5625 84.8125ZM74.75 78.3125C71.7917 78.3125 69.3333 77.4583 67.375 75.75C65.4583 74 64.5 71.75 64.5 69C64.5 66.2917 65.4583 64.0625 67.375 62.3125C69.3333 60.5625 71.7917 59.6875 74.75 59.6875C77.7917 59.6875 80.25 60.5625 82.125 62.3125C84.0417 64.0625 85 66.2917 85 69C85 71.75 84.0208 74 82.0625 75.75C80.1458 77.4583 77.7083 78.3125 74.75 78.3125ZM74.6875 53.6875C72.2708 53.6875 70.2708 52.9167 68.6875 51.375C67.1458 49.7917 66.375 47.8125 66.375 45.4375C66.375 43.0625 67.1458 41.1458 68.6875 39.6875C70.2708 38.1875 72.2708 37.4375 74.6875 37.4375C77.1458 37.4375 79.1458 38.1875 80.6875 39.6875C82.2708 41.1458 83.0625 43.0625 83.0625 45.4375C83.0625 47.8125 82.2708 49.7917 80.6875 51.375C79.1458 52.9167 77.1458 53.6875 74.6875 53.6875Z" fill="white"/>
</svg>
