<?xml version="1.0" encoding="UTF-8"?>
<svg xmlns="http://www.w3.org/2000/svg" xmlns:xlink="http://www.w3.org/1999/xlink" width="24" height="25.5" viewBox="0 0 24 25.5" version="1.1">
<g id="surface1">
<path style=" stroke:none;fill-rule:nonzero;fill:rgb(100%,100%,100%);fill-opacity:1;" d="M 12 24.492188 C 13.632812 24.492188 15.167969 24.179688 16.605469 23.554688 C 18.050781 22.929688 19.324219 22.066406 20.425781 20.964844 C 21.527344 19.863281 22.390625 18.59375 23.015625 17.15625 C 23.640625 15.710938 23.953125 14.171875 23.953125 12.539062 C 23.953125 10.90625 23.640625 9.371094 23.015625 7.933594 C 22.390625 6.488281 21.527344 5.214844 20.425781 4.113281 C 19.324219 3.011719 18.050781 2.148438 16.605469 1.523438 C 15.160156 0.898438 13.621094 0.585938 11.988281 0.585938 C 10.355469 0.585938 8.816406 0.898438 7.371094 1.523438 C 5.933594 2.148438 4.664062 3.011719 3.5625 4.113281 C 2.46875 5.214844 1.609375 6.488281 0.984375 7.933594 C 0.359375 9.371094 0.046875 10.90625 0.046875 12.539062 C 0.046875 14.171875 0.359375 15.710938 0.984375 17.15625 C 1.609375 18.59375 2.472656 19.863281 3.574219 20.964844 C 4.675781 22.066406 5.945312 22.929688 7.382812 23.554688 C 8.828125 24.179688 10.367188 24.492188 12 24.492188 Z M 12 22.5 C 10.617188 22.5 9.324219 22.242188 8.121094 21.726562 C 6.917969 21.210938 5.859375 20.5 4.945312 19.59375 C 4.039062 18.679688 3.328125 17.621094 2.8125 16.417969 C 2.304688 15.214844 2.050781 13.921875 2.050781 12.539062 C 2.050781 11.15625 2.304688 9.863281 2.8125 8.660156 C 3.328125 7.457031 4.039062 6.398438 4.945312 5.484375 C 5.851562 4.570312 6.90625 3.859375 8.109375 3.351562 C 9.3125 2.835938 10.605469 2.578125 11.988281 2.578125 C 13.371094 2.578125 14.664062 2.835938 15.867188 3.351562 C 17.078125 3.859375 18.136719 4.570312 19.042969 5.484375 C 19.957031 6.398438 20.671875 7.457031 21.1875 8.660156 C 21.703125 9.863281 21.960938 11.15625 21.960938 12.539062 C 21.960938 13.921875 21.703125 15.214844 21.1875 16.417969 C 20.679688 17.621094 19.96875 18.679688 19.054688 19.59375 C 18.140625 20.5 17.082031 21.210938 15.878906 21.726562 C 14.675781 22.242188 13.382812 22.5 12 22.5 Z M 8.449219 17.449219 C 8.949219 17.449219 9.199219 17.199219 9.199219 16.699219 L 9.199219 8.402344 C 9.199219 8.152344 9.121094 7.949219 8.964844 7.792969 C 8.816406 7.636719 8.617188 7.558594 8.367188 7.558594 C 8.179688 7.558594 8.011719 7.589844 7.863281 7.652344 C 7.722656 7.714844 7.550781 7.816406 7.347656 7.957031 L 5.566406 9.175781 C 5.300781 9.363281 5.167969 9.59375 5.167969 9.867188 C 5.167969 10.0625 5.234375 10.230469 5.367188 10.371094 C 5.507812 10.503906 5.664062 10.570312 5.835938 10.570312 C 5.929688 10.570312 6.015625 10.5625 6.09375 10.546875 C 6.171875 10.523438 6.277344 10.457031 6.410156 10.347656 L 7.664062 9.421875 L 7.734375 9.421875 L 7.734375 16.699219 C 7.734375 17.199219 7.972656 17.449219 8.449219 17.449219 Z M 14.871094 17.589844 C 16.042969 17.589844 16.933594 17.136719 17.542969 16.230469 C 18.160156 15.316406 18.46875 13.976562 18.46875 12.210938 C 18.46875 10.671875 18.164062 9.5 17.554688 8.695312 C 16.953125 7.890625 16.101562 7.488281 15 7.488281 C 14.015625 7.488281 13.226562 7.796875 12.632812 8.414062 C 12.039062 9.023438 11.742188 9.84375 11.742188 10.875 C 11.742188 11.546875 11.878906 12.117188 12.152344 12.585938 C 12.425781 13.046875 12.78125 13.402344 13.21875 13.652344 C 13.664062 13.894531 14.140625 14.015625 14.648438 14.015625 C 15.289062 14.015625 15.800781 13.867188 16.183594 13.570312 C 16.574219 13.273438 16.847656 12.925781 17.003906 12.527344 L 17.074219 12.527344 C 17.082031 13.300781 16.992188 13.964844 16.804688 14.519531 C 16.625 15.074219 16.367188 15.5 16.03125 15.796875 C 15.695312 16.09375 15.304688 16.242188 14.859375 16.242188 C 14.515625 16.242188 14.214844 16.164062 13.957031 16.007812 C 13.699219 15.84375 13.5 15.632812 13.359375 15.375 C 13.1875 15.070312 12.949219 14.917969 12.644531 14.917969 C 12.464844 14.917969 12.316406 14.984375 12.199219 15.117188 C 12.082031 15.242188 12.023438 15.40625 12.023438 15.609375 C 12.023438 15.710938 12.054688 15.851562 12.117188 16.03125 C 12.210938 16.351562 12.492188 16.691406 12.960938 17.050781 C 13.429688 17.410156 14.066406 17.589844 14.871094 17.589844 Z M 15.09375 12.808594 C 14.539062 12.808594 14.089844 12.621094 13.746094 12.246094 C 13.402344 11.871094 13.230469 11.390625 13.230469 10.804688 C 13.230469 10.1875 13.398438 9.695312 13.734375 9.328125 C 14.078125 8.953125 14.53125 8.765625 15.09375 8.765625 C 15.632812 8.765625 16.074219 8.957031 16.417969 9.339844 C 16.769531 9.722656 16.945312 10.21875 16.945312 10.828125 C 16.945312 11.398438 16.773438 11.871094 16.429688 12.246094 C 16.085938 12.621094 15.640625 12.808594 15.09375 12.808594 Z M 15.09375 12.808594 "/>
</g>
</svg>
