<svg xmlns="http://www.w3.org/2000/svg" width="24" height="24"><path style="stroke:none;fill-rule:nonzero;fill:#fff;fill-opacity:1" d="M12 23.05c1.633 0 3.168-.292 4.605-.882a12.22 12.22 0 0 0 3.82-2.438 11.467 11.467 0 0 0 2.59-3.582c.626-1.363.938-2.808.938-4.347a10.2 10.2 0 0 0-.937-4.332 11.53 11.53 0 0 0-2.59-3.598 12.361 12.361 0 0 0-3.82-2.437A12.166 12.166 0 0 0 11.987.55c-1.633 0-3.172.293-4.617.883A12.307 12.307 0 0 0 3.562 3.87 11.523 11.523 0 0 0 .985 7.465 10.2 10.2 0 0 0 .047 11.8c0 1.539.312 2.984.937 4.347a11.467 11.467 0 0 0 2.59 3.582 12.236 12.236 0 0 0 3.809 2.438c1.445.59 2.984.883 4.617.883Zm-3.645-6.484a.746.746 0 0 1-.539-.199.713.713 0 0 1-.199-.527V8.777h-.07l-1.29.895c-.14.105-.25.168-.327.187-.086.024-.18.036-.27.036a.714.714 0 0 1-.48-.2.651.651 0 0 1-.211-.484c0-.266.136-.492.41-.676l1.84-1.18c.21-.136.39-.238.539-.296.164-.063.34-.09.515-.09.25 0 .454.078.61.234a.757.757 0 0 1 .246.582v8.055c0 .484-.258.726-.774.726Zm6.622.145c-.829 0-1.485-.176-1.97-.52-.484-.351-.773-.687-.866-1.003l-.07-.211a.81.81 0 0 1-.024-.196.686.686 0 0 1 .176-.488.596.596 0 0 1 .457-.188c.32 0 .57.149.75.442.14.25.343.453.61.61.273.152.581.23.925.23.46 0 .863-.145 1.207-.43.351-.289.621-.7.808-1.238.188-.535.278-1.18.27-1.926h-.082c-.156.379-.434.719-.832 1.012-.398.285-.93.43-1.594.43a3.118 3.118 0 0 1-1.465-.352 2.877 2.877 0 0 1-1.101-1.04c-.281-.452-.422-1.003-.422-1.652 0-1 .305-1.796.914-2.394.617-.602 1.434-.902 2.45-.902 1.132 0 2.01.39 2.636 1.18.625.777.937 1.913.937 3.405 0 1.715-.316 3.016-.949 3.907-.633.883-1.555 1.324-2.765 1.324Zm.234-4.656c.562 0 1.02-.18 1.371-.54.352-.359.527-.82.527-1.378 0-.59-.18-1.067-.539-1.434-.351-.375-.804-.562-1.36-.562-.577 0-1.042.18-1.394.539-.351.36-.527.84-.527 1.433 0 .567.176 1.035.527 1.403.352.359.817.539 1.395.539Zm0 0"/></svg>