<?xml version="1.0" encoding="UTF-8"?>
<svg xmlns="http://www.w3.org/2000/svg" xmlns:xlink="http://www.w3.org/1999/xlink" width="24" height="25.5" viewBox="0 0 24 25.5" version="1.1">
<g id="surface1">
<path style=" stroke:none;fill-rule:nonzero;fill:rgb(100%,100%,100%);fill-opacity:1;" d="M 12 24.492188 C 13.632812 24.492188 15.167969 24.179688 16.605469 23.554688 C 18.050781 22.929688 19.324219 22.066406 20.425781 20.964844 C 21.527344 19.863281 22.390625 18.59375 23.015625 17.15625 C 23.640625 15.710938 23.953125 14.171875 23.953125 12.539062 C 23.953125 10.90625 23.640625 9.371094 23.015625 7.933594 C 22.390625 6.488281 21.527344 5.214844 20.425781 4.113281 C 19.324219 3.011719 18.050781 2.148438 16.605469 1.523438 C 15.160156 0.898438 13.621094 0.585938 11.988281 0.585938 C 10.355469 0.585938 8.816406 0.898438 7.371094 1.523438 C 5.933594 2.148438 4.664062 3.011719 3.5625 4.113281 C 2.46875 5.214844 1.609375 6.488281 0.984375 7.933594 C 0.359375 9.371094 0.046875 10.90625 0.046875 12.539062 C 0.046875 14.171875 0.359375 15.710938 0.984375 17.15625 C 1.609375 18.59375 2.472656 19.863281 3.574219 20.964844 C 4.675781 22.066406 5.945312 22.929688 7.382812 23.554688 C 8.828125 24.179688 10.367188 24.492188 12 24.492188 Z M 8.355469 17.601562 C 8.136719 17.601562 7.957031 17.53125 7.816406 17.390625 C 7.683594 17.25 7.617188 17.0625 7.617188 16.828125 L 7.617188 9.328125 L 7.546875 9.328125 L 6.257812 10.277344 C 6.117188 10.386719 6.007812 10.453125 5.929688 10.476562 C 5.851562 10.5 5.761719 10.511719 5.660156 10.511719 C 5.488281 10.511719 5.328125 10.441406 5.179688 10.300781 C 5.039062 10.160156 4.96875 9.988281 4.96875 9.785156 C 4.96875 9.503906 5.105469 9.265625 5.378906 9.070312 L 7.21875 7.816406 C 7.429688 7.667969 7.609375 7.5625 7.757812 7.5 C 7.90625 7.4375 8.078125 7.40625 8.273438 7.40625 C 8.523438 7.40625 8.726562 7.488281 8.882812 7.652344 C 9.046875 7.816406 9.128906 8.023438 9.128906 8.273438 L 9.128906 16.828125 C 9.128906 17.34375 8.871094 17.601562 8.355469 17.601562 Z M 14.976562 17.753906 C 14.148438 17.753906 13.492188 17.570312 13.007812 17.203125 C 12.523438 16.828125 12.234375 16.472656 12.140625 16.136719 C 12.117188 16.066406 12.09375 15.992188 12.070312 15.914062 C 12.054688 15.835938 12.046875 15.765625 12.046875 15.703125 C 12.046875 15.492188 12.105469 15.320312 12.222656 15.1875 C 12.339844 15.054688 12.492188 14.988281 12.679688 14.988281 C 13 14.988281 13.25 15.144531 13.429688 15.457031 C 13.570312 15.722656 13.773438 15.9375 14.039062 16.101562 C 14.3125 16.265625 14.621094 16.347656 14.964844 16.347656 C 15.425781 16.347656 15.828125 16.195312 16.171875 15.890625 C 16.523438 15.585938 16.792969 15.148438 16.980469 14.578125 C 17.167969 14.007812 17.257812 13.324219 17.25 12.527344 L 17.167969 12.527344 C 17.011719 12.933594 16.734375 13.292969 16.335938 13.605469 C 15.9375 13.910156 15.40625 14.0625 14.742188 14.0625 C 14.21875 14.0625 13.730469 13.9375 13.277344 13.6875 C 12.824219 13.429688 12.457031 13.0625 12.175781 12.585938 C 11.894531 12.101562 11.753906 11.515625 11.753906 10.828125 C 11.753906 9.765625 12.058594 8.917969 12.667969 8.285156 C 13.285156 7.644531 14.101562 7.324219 15.117188 7.324219 C 16.25 7.324219 17.128906 7.742188 17.753906 8.578125 C 18.378906 9.40625 18.691406 10.613281 18.691406 12.199219 C 18.691406 14.019531 18.375 15.402344 17.742188 16.347656 C 17.109375 17.285156 16.1875 17.753906 14.976562 17.753906 Z M 15.210938 12.808594 C 15.773438 12.808594 16.230469 12.617188 16.582031 12.234375 C 16.933594 11.851562 17.109375 11.363281 17.109375 10.769531 C 17.109375 10.144531 16.929688 9.636719 16.570312 9.246094 C 16.21875 8.847656 15.765625 8.648438 15.210938 8.648438 C 14.632812 8.648438 14.167969 8.839844 13.816406 9.222656 C 13.464844 9.605469 13.289062 10.113281 13.289062 10.746094 C 13.289062 11.347656 13.464844 11.84375 13.816406 12.234375 C 14.167969 12.617188 14.632812 12.808594 15.210938 12.808594 Z M 15.210938 12.808594 "/>
</g>
</svg>
