<svg xmlns="http://www.w3.org/2000/svg" width="24" height="24"><path style="stroke:none;fill-rule:nonzero;fill:#fff;fill-opacity:1" d="M12 23.05c1.633 0 3.168-.292 4.605-.882a12.22 12.22 0 0 0 3.82-2.438 11.467 11.467 0 0 0 2.59-3.582c.626-1.363.938-2.808.938-4.347a10.2 10.2 0 0 0-.937-4.332 11.53 11.53 0 0 0-2.59-3.598 12.361 12.361 0 0 0-3.82-2.437A12.166 12.166 0 0 0 11.987.55c-1.633 0-3.172.293-4.617.883A12.307 12.307 0 0 0 3.562 3.87 11.523 11.523 0 0 0 .985 7.465 10.2 10.2 0 0 0 .047 11.8c0 1.539.312 2.984.937 4.347a11.467 11.467 0 0 0 2.59 3.582 12.236 12.236 0 0 0 3.809 2.438c1.445.59 2.984.883 4.617.883Zm-6.21-6.605a.726.726 0 0 1-.517-.187.656.656 0 0 1-.187-.485c0-.23.086-.433.258-.617l3.187-3.531c.29-.316.563-.637.82-.96.258-.325.387-.673.387-1.048 0-.418-.144-.758-.433-1.015-.29-.258-.68-.383-1.172-.383-.422 0-.785.105-1.09.32-.297.203-.523.52-.68.945-.078.172-.172.301-.281.399a.617.617 0 0 1-.41.133.698.698 0 0 1-.504-.188.7.7 0 0 1-.176-.496c0-.066.004-.133.012-.2.016-.066.031-.136.047-.21.156-.582.52-1.063 1.09-1.445a3.403 3.403 0 0 1 1.933-.582c.953 0 1.715.234 2.285.707.57.468.856 1.101.856 1.894 0 .566-.149 1.074-.445 1.524-.297.449-.672.918-1.125 1.41l-2.356 2.582v.086h3.504c.187 0 .344.058.469.175.133.114.199.274.199.489a.651.651 0 0 1-.2.496.649.649 0 0 1-.468.187Zm10.241.266c-.695 0-1.304-.2-1.828-.598-.515-.398-.918-.96-1.207-1.687-.281-.735-.422-1.61-.422-2.625 0-1.016.14-1.887.422-2.614.29-.734.691-1.3 1.207-1.699a2.93 2.93 0 0 1 1.828-.593c.688 0 1.29.195 1.805.593.523.399.93.965 1.219 1.7.289.726.433 1.597.433 2.613 0 1.015-.144 1.89-.433 2.625-.29.73-.696 1.289-1.22 1.687a2.891 2.891 0 0 1-1.804.598Zm0-1.39c.578 0 1.032-.313 1.36-.938.336-.633.504-1.492.504-2.582 0-1.086-.168-1.946-.504-2.57-.336-.633-.79-.946-1.36-.946-.578 0-1.035.313-1.37.945-.329.625-.493 1.485-.493 2.57 0 1.09.164 1.95.492 2.583.336.625.793.937 1.371.937Zm0 0"/></svg>