<svg xmlns="http://www.w3.org/2000/svg" width="24" height="24"><path style="stroke:none;fill-rule:nonzero;fill:#fff;fill-opacity:1" d="M12 23.05c1.633 0 3.168-.292 4.605-.882a12.22 12.22 0 0 0 3.82-2.438 11.467 11.467 0 0 0 2.59-3.582c.626-1.363.938-2.808.938-4.347a10.2 10.2 0 0 0-.937-4.332 11.53 11.53 0 0 0-2.59-3.598 12.361 12.361 0 0 0-3.82-2.437A12.166 12.166 0 0 0 11.987.55c-1.633 0-3.172.293-4.617.883A12.307 12.307 0 0 0 3.562 3.87 11.523 11.523 0 0 0 .985 7.465 10.2 10.2 0 0 0 .047 11.8c0 1.539.312 2.984.937 4.347a11.467 11.467 0 0 0 2.59 3.582 12.236 12.236 0 0 0 3.809 2.438c1.445.59 2.984.883 4.617.883Zm-6.2-6.605a.744.744 0 0 1-.515-.187.656.656 0 0 1-.187-.485c0-.23.086-.433.257-.617l3.188-3.52c.289-.323.562-.648.82-.972.258-.324.387-.672.387-1.047 0-.418-.145-.758-.434-1.015-.289-.258-.68-.383-1.171-.383-.43 0-.793.105-1.09.32-.297.203-.524.52-.68.945-.078.172-.172.301-.281.399a.593.593 0 0 1-.41.144.698.698 0 0 1-.504-.187c-.117-.125-.176-.297-.176-.508 0-.066.004-.133.012-.2l.046-.21c.157-.582.52-1.063 1.09-1.445a3.405 3.405 0 0 1 1.934-.575c.953 0 1.71.239 2.273.707.57.47.856 1.102.856 1.887 0 .566-.149 1.078-.445 1.535-.29.446-.66.914-1.114 1.399l-2.355 2.593v.075h3.504c.187 0 .343.058.468.175.133.122.2.282.2.489a.651.651 0 0 1-.2.496.642.642 0 0 1-.468.187Zm8.028 0a.737.737 0 0 1-.527-.187.656.656 0 0 1-.188-.485c0-.109.02-.218.059-.32a.99.99 0 0 1 .21-.297l3.188-3.52c.282-.323.551-.648.809-.972.266-.324.398-.672.398-1.047 0-.418-.148-.758-.445-1.015-.289-.258-.676-.383-1.16-.383-.43 0-.797.105-1.102.32-.297.203-.52.52-.668.945-.086.172-.18.301-.28.399a.593.593 0 0 1-.411.144.698.698 0 0 1-.504-.187c-.117-.125-.176-.297-.176-.508 0-.066.004-.133.012-.2.016-.066.027-.136.035-.21.156-.582.52-1.063 1.09-1.445a3.473 3.473 0 0 1 1.945-.575c.953 0 1.711.239 2.274.707.57.47.855 1.102.855 1.887 0 .566-.148 1.078-.445 1.535-.297.446-.668.914-1.113 1.399l-2.356 2.593v.075h3.504c.188 0 .344.058.469.175.133.122.199.282.199.489a.651.651 0 0 1-.2.496.649.649 0 0 1-.468.187Zm0 0"/></svg>