<svg width="116" height="116" viewBox="0 0 116 116" fill="none" xmlns="http://www.w3.org/2000/svg">
<path d="M20.5625 115.5H96.375C102.917 115.5 107.812 113.875 111.062 110.625C114.354 107.417 116 102.583 116 96.125V19.8125C116 13.3542 114.354 8.52083 111.062 5.3125C107.812 2.0625 102.917 0.4375 96.375 0.4375H20.5625C14.0208 0.4375 9.10417 2.0625 5.8125 5.3125C2.5625 8.52083 0.9375 13.3542 0.9375 19.8125V96.125C0.9375 102.583 2.5625 107.417 5.8125 110.625C9.10417 113.875 14.0208 115.5 20.5625 115.5ZM20.6875 105.438C17.5625 105.438 15.1667 104.625 13.5 103C11.8333 101.333 11 98.875 11 95.625V20.3125C11 17.0625 11.8333 14.625 13.5 13C15.1667 11.3333 17.5625 10.5 20.6875 10.5H96.25C99.3333 10.5 101.708 11.3333 103.375 13C105.083 14.625 105.938 17.0625 105.938 20.3125V95.625C105.938 98.875 105.083 101.333 103.375 103C101.708 104.625 99.3333 105.438 96.25 105.438H20.6875ZM26.4375 83.375H52.3125C53.3125 83.375 54.125 83.0417 54.75 82.375C55.4167 81.6667 55.75 80.75 55.75 79.625C55.75 78.5 55.4167 77.625 54.75 77C54.125 76.3333 53.3125 76 52.3125 76H34.125V75.5625L46.375 61.3125C48.7083 58.6458 50.625 56.0833 52.125 53.625C53.6667 51.125 54.4375 48.3125 54.4375 45.1875C54.4375 40.8542 52.9583 37.3958 50 34.8125C47.0833 32.2292 43.1667 30.9375 38.25 30.9375C34.5417 30.9375 31.2083 32 28.25 34.125C25.2917 36.25 23.4167 38.8958 22.625 42.0625C22.5417 42.4792 22.4583 42.875 22.375 43.25C22.3333 43.5833 22.3125 43.9375 22.3125 44.3125C22.3125 45.4375 22.625 46.3542 23.25 47.0625C23.875 47.7292 24.7292 48.0625 25.8125 48.0625C26.6875 48.0625 27.3958 47.8125 27.9375 47.3125C28.4792 46.7708 28.9583 46.0417 29.375 45.125C30.1667 42.7917 31.3333 41.0417 32.875 39.875C34.4583 38.7083 36.3542 38.125 38.5625 38.125C41.1042 38.125 43.125 38.8333 44.625 40.25C46.125 41.6667 46.875 43.5417 46.875 45.875C46.875 47.9167 46.2083 49.8333 44.875 51.625C43.5417 53.4167 42.125 55.1875 40.625 56.9375L24.125 76.3125C23.25 77.3125 22.8125 78.4375 22.8125 79.6875C22.8125 80.8125 23.125 81.7083 23.75 82.375C24.4167 83.0417 25.3125 83.375 26.4375 83.375ZM67.9375 83.375H93.8125C94.7708 83.375 95.5833 83.0417 96.25 82.375C96.9167 81.6667 97.25 80.75 97.25 79.625C97.25 78.5 96.9167 77.625 96.25 77C95.5833 76.3333 94.7708 76 93.8125 76H75.625V75.5625L87.875 61.3125C90.1667 58.6458 92.0833 56.0833 93.625 53.625C95.1667 51.125 95.9375 48.3125 95.9375 45.1875C95.9375 40.8542 94.4583 37.3958 91.5 34.8125C88.5833 32.2292 84.6667 30.9375 79.75 30.9375C76.0417 30.9375 72.7083 32 69.75 34.125C66.7917 36.25 64.8958 38.8958 64.0625 42.0625C64.0208 42.4792 63.9583 42.875 63.875 43.25C63.8333 43.5833 63.8125 43.9375 63.8125 44.3125C63.8125 45.4375 64.125 46.3542 64.75 47.0625C65.375 47.7292 66.2292 48.0625 67.3125 48.0625C68.1875 48.0625 68.8958 47.8125 69.4375 47.3125C69.9792 46.7708 70.4583 46.0417 70.875 45.125C71.6667 42.7917 72.8333 41.0417 74.375 39.875C75.9167 38.7083 77.8125 38.125 80.0625 38.125C82.6042 38.125 84.625 38.8333 86.125 40.25C87.625 41.6667 88.375 43.5417 88.375 45.875C88.375 47.9167 87.7083 49.8333 86.375 51.625C85.0417 53.4167 83.625 55.1875 82.125 56.9375L65.625 76.3125C64.7083 77.3125 64.25 78.4375 64.25 79.6875C64.25 80.8125 64.5833 81.7083 65.25 82.375C65.9167 83.0417 66.8125 83.375 67.9375 83.375Z" fill="white"/>
</svg>
