<svg width="16" height="17" viewBox="0 0 16 17" fill="none" xmlns="http://www.w3.org/2000/svg">
<path d="M8 16.3281C9.08854 16.3281 10.112 16.1198 11.0703 15.7031C12.0339 15.2865 12.8828 14.7109 13.6172 13.9766C14.3516 13.2422 14.9271 12.3958 15.3438 11.4375C15.7604 10.474 15.9688 9.44792 15.9688 8.35938C15.9688 7.27083 15.7604 6.2474 15.3438 5.28906C14.9271 4.32552 14.3516 3.47656 13.6172 2.74219C12.8828 2.00781 12.0339 1.43229 11.0703 1.01562C10.1068 0.598958 9.08073 0.390625 7.99219 0.390625C6.90365 0.390625 5.8776 0.598958 4.91406 1.01562C3.95573 1.43229 3.10938 2.00781 2.375 2.74219C1.64583 3.47656 1.07292 4.32552 0.65625 5.28906C0.239583 6.2474 0.03125 7.27083 0.03125 8.35938C0.03125 9.44792 0.239583 10.474 0.65625 11.4375C1.07292 12.3958 1.64844 13.2422 2.38281 13.9766C3.11719 14.7109 3.96354 15.2865 4.92188 15.7031C5.88542 16.1198 6.91146 16.3281 8 16.3281ZM3.85156 11.6484C3.71094 11.6484 3.59635 11.6042 3.50781 11.5156C3.42448 11.4271 3.38281 11.3125 3.38281 11.1719C3.38281 11 3.4401 10.8542 3.55469 10.7344L5.67969 8.23438C5.8724 8.01042 6.05469 7.78385 6.22656 7.55469C6.39844 7.32552 6.48438 7.07812 6.48438 6.8125C6.48438 6.51562 6.38542 6.27604 6.1875 6.09375C5.99479 5.91146 5.73698 5.82031 5.41406 5.82031C5.1276 5.82031 4.88542 5.89583 4.6875 6.04688C4.48958 6.19271 4.33854 6.41667 4.23438 6.71875C4.17708 6.83854 4.11458 6.93229 4.04688 7C3.97917 7.0625 3.88802 7.09375 3.77344 7.09375C3.63281 7.09375 3.52083 7.04948 3.4375 6.96094C3.35938 6.8724 3.32031 6.75521 3.32031 6.60938C3.32031 6.5625 3.32292 6.51562 3.32812 6.46875C3.33854 6.42188 3.34896 6.3724 3.35938 6.32031C3.46354 5.90885 3.70573 5.56771 4.08594 5.29688C4.46615 5.02083 4.89583 4.88281 5.375 4.88281C6.01042 4.88281 6.51562 5.04948 6.89062 5.38281C7.27083 5.71615 7.46094 6.16406 7.46094 6.72656C7.46094 7.1276 7.36198 7.48698 7.16406 7.80469C6.96615 8.1224 6.71875 8.45573 6.42188 8.80469L4.85156 10.6328V10.6953H7.1875C7.3125 10.6953 7.41667 10.737 7.5 10.8203C7.58854 10.8984 7.63281 11.013 7.63281 11.1641C7.63281 11.3099 7.58854 11.4271 7.5 11.5156C7.41667 11.6042 7.3125 11.6484 7.1875 11.6484H3.85156ZM10.8047 11.8359C10.2578 11.8359 9.78646 11.6927 9.39062 11.4062C8.99479 11.1198 8.74219 10.7917 8.63281 10.4219C8.61719 10.3698 8.60677 10.3229 8.60156 10.2812C8.59635 10.2344 8.59375 10.1823 8.59375 10.125C8.59375 9.98438 8.63802 9.86979 8.72656 9.78125C8.8151 9.6875 8.92708 9.64062 9.0625 9.64062C9.27604 9.64062 9.42969 9.76823 9.52344 10.0234C9.63281 10.3047 9.79427 10.5208 10.0078 10.6719C10.2266 10.8229 10.4948 10.8984 10.8125 10.8984C11.1979 10.8984 11.513 10.7943 11.7578 10.5859C12.0026 10.3776 12.125 10.1172 12.125 9.80469C12.125 9.47656 12.0104 9.21354 11.7812 9.01562C11.5521 8.81771 11.2474 8.71875 10.8672 8.71875H10.3984C10.263 8.71875 10.1536 8.67448 10.0703 8.58594C9.99219 8.4974 9.95312 8.38802 9.95312 8.25781C9.95312 8.11198 9.99219 7.99479 10.0703 7.90625C10.1536 7.81771 10.263 7.77344 10.3984 7.77344H10.8281C11.1458 7.77344 11.4062 7.67969 11.6094 7.49219C11.8125 7.29948 11.9141 7.05729 11.9141 6.76562C11.9141 6.48438 11.8125 6.25781 11.6094 6.08594C11.4115 5.90885 11.1536 5.82031 10.8359 5.82031C10.5234 5.82031 10.2682 5.89583 10.0703 6.04688C9.8776 6.19792 9.73438 6.41406 9.64062 6.69531C9.59896 6.82552 9.54427 6.92188 9.47656 6.98438C9.40885 7.04688 9.3151 7.07812 9.19531 7.07812C9.05469 7.07812 8.94271 7.03385 8.85938 6.94531C8.77604 6.85156 8.73438 6.73177 8.73438 6.58594C8.73438 6.46615 8.73958 6.36979 8.75 6.29688C8.85938 5.90104 9.10156 5.56771 9.47656 5.29688C9.85156 5.02083 10.3125 4.88281 10.8594 4.88281C11.4635 4.88281 11.9557 5.04688 12.3359 5.375C12.7161 5.69792 12.9062 6.11719 12.9062 6.63281C12.9062 7.01302 12.7917 7.35156 12.5625 7.64844C12.3333 7.94531 12.0547 8.11979 11.7266 8.17188V8.21875C12.1328 8.26042 12.4661 8.4349 12.7266 8.74219C12.9922 9.04948 13.125 9.41927 13.125 9.85156C13.125 10.4297 12.9089 10.9062 12.4766 11.2812C12.0443 11.651 11.487 11.8359 10.8047 11.8359Z" fill="white"/>
</svg>
