<?xml version="1.0" encoding="UTF-8"?>
<svg xmlns="http://www.w3.org/2000/svg" xmlns:xlink="http://www.w3.org/1999/xlink" width="24" height="22.5" viewBox="0 0 24 22.5" version="1.1">
<g id="surface1">
<path style=" stroke:none;fill-rule:nonzero;fill:rgb(100%,100%,100%);fill-opacity:1;" d="M 4.886719 21.84375 L 19.101562 21.84375 C 20.328125 21.84375 21.246094 21.539062 21.855469 20.929688 C 22.472656 20.328125 22.78125 19.421875 22.78125 18.210938 L 22.78125 3.902344 C 22.78125 2.691406 22.472656 1.785156 21.855469 1.183594 C 21.246094 0.574219 20.328125 0.269531 19.101562 0.269531 L 4.886719 0.269531 C 3.660156 0.269531 2.738281 0.574219 2.121094 1.183594 C 1.511719 1.785156 1.207031 2.691406 1.207031 3.902344 L 1.207031 18.210938 C 1.207031 19.421875 1.511719 20.328125 2.121094 20.929688 C 2.738281 21.539062 3.660156 21.84375 4.886719 21.84375 Z M 5.777344 15.972656 C 5.566406 15.972656 5.394531 15.90625 5.261719 15.773438 C 5.136719 15.640625 5.074219 15.46875 5.074219 15.257812 C 5.074219 15 5.160156 14.78125 5.332031 14.601562 L 8.519531 10.851562 C 8.808594 10.515625 9.082031 10.175781 9.339844 9.832031 C 9.597656 9.488281 9.726562 9.117188 9.726562 8.71875 C 9.726562 8.273438 9.578125 7.914062 9.28125 7.640625 C 8.992188 7.367188 8.605469 7.230469 8.121094 7.230469 C 7.691406 7.230469 7.328125 7.34375 7.03125 7.570312 C 6.734375 7.789062 6.507812 8.125 6.351562 8.578125 C 6.265625 8.757812 6.171875 8.898438 6.070312 9 C 5.96875 9.09375 5.832031 9.140625 5.660156 9.140625 C 5.449219 9.140625 5.28125 9.074219 5.15625 8.941406 C 5.039062 8.808594 4.980469 8.632812 4.980469 8.414062 C 4.980469 8.34375 4.984375 8.273438 4.992188 8.203125 C 5.007812 8.132812 5.023438 8.058594 5.039062 7.980469 C 5.195312 7.363281 5.558594 6.851562 6.128906 6.445312 C 6.699219 6.03125 7.34375 5.824219 8.0625 5.824219 C 9.015625 5.824219 9.773438 6.074219 10.335938 6.574219 C 10.90625 7.074219 11.191406 7.746094 11.191406 8.589844 C 11.191406 9.191406 11.042969 9.730469 10.746094 10.207031 C 10.449219 10.683594 10.078125 11.183594 9.632812 11.707031 L 7.277344 14.449219 L 7.277344 14.542969 L 10.78125 14.542969 C 10.96875 14.542969 11.125 14.605469 11.25 14.730469 C 11.382812 14.847656 11.449219 15.019531 11.449219 15.246094 C 11.449219 15.464844 11.382812 15.640625 11.25 15.773438 C 11.125 15.90625 10.96875 15.972656 10.78125 15.972656 Z M 16.207031 16.253906 C 15.386719 16.253906 14.679688 16.039062 14.085938 15.609375 C 13.492188 15.179688 13.113281 14.6875 12.949219 14.132812 C 12.925781 14.054688 12.910156 13.984375 12.902344 13.921875 C 12.894531 13.851562 12.890625 13.773438 12.890625 13.6875 C 12.890625 13.476562 12.957031 13.304688 13.089844 13.171875 C 13.222656 13.03125 13.390625 12.960938 13.59375 12.960938 C 13.914062 12.960938 14.144531 13.152344 14.285156 13.535156 C 14.449219 13.957031 14.691406 14.28125 15.011719 14.507812 C 15.339844 14.734375 15.742188 14.847656 16.21875 14.847656 C 16.796875 14.847656 17.269531 14.691406 17.636719 14.378906 C 18.003906 14.066406 18.1875 13.675781 18.1875 13.207031 C 18.1875 12.714844 18.015625 12.320312 17.671875 12.023438 C 17.328125 11.726562 16.871094 11.578125 16.300781 11.578125 L 15.597656 11.578125 C 15.394531 11.578125 15.230469 11.511719 15.105469 11.378906 C 14.988281 11.246094 14.929688 11.082031 14.929688 10.886719 C 14.929688 10.667969 14.988281 10.492188 15.105469 10.359375 C 15.230469 10.226562 15.394531 10.160156 15.597656 10.160156 L 16.242188 10.160156 C 16.71875 10.160156 17.109375 10.019531 17.414062 9.738281 C 17.71875 9.449219 17.871094 9.085938 17.871094 8.648438 C 17.871094 8.226562 17.71875 7.886719 17.414062 7.628906 C 17.117188 7.363281 16.730469 7.230469 16.253906 7.230469 C 15.785156 7.230469 15.402344 7.34375 15.105469 7.570312 C 14.816406 7.796875 14.601562 8.121094 14.460938 8.542969 C 14.398438 8.738281 14.316406 8.882812 14.214844 8.976562 C 14.113281 9.070312 13.972656 9.117188 13.792969 9.117188 C 13.582031 9.117188 13.414062 9.050781 13.289062 8.917969 C 13.164062 8.777344 13.101562 8.597656 13.101562 8.378906 C 13.101562 8.199219 13.109375 8.054688 13.125 7.945312 C 13.289062 7.351562 13.652344 6.851562 14.214844 6.445312 C 14.777344 6.03125 15.46875 5.824219 16.289062 5.824219 C 17.195312 5.824219 17.933594 6.070312 18.503906 6.5625 C 19.074219 7.046875 19.359375 7.675781 19.359375 8.449219 C 19.359375 9.019531 19.1875 9.527344 18.84375 9.972656 C 18.5 10.417969 18.082031 10.679688 17.589844 10.757812 L 17.589844 10.828125 C 18.199219 10.890625 18.699219 11.152344 19.089844 11.613281 C 19.488281 12.074219 19.6875 12.628906 19.6875 13.277344 C 19.6875 14.144531 19.363281 14.859375 18.714844 15.421875 C 18.066406 15.976562 17.230469 16.253906 16.207031 16.253906 Z M 16.207031 16.253906 "/>
</g>
</svg>
