<svg xmlns="http://www.w3.org/2000/svg" width="24" height="24"><path style="stroke:none;fill-rule:nonzero;fill:#fff;fill-opacity:1" d="M12 23.05c1.633 0 3.168-.292 4.605-.882a12.22 12.22 0 0 0 3.82-2.438 11.467 11.467 0 0 0 2.59-3.582c.626-1.363.938-2.808.938-4.347a10.2 10.2 0 0 0-.937-4.332 11.53 11.53 0 0 0-2.59-3.598 12.361 12.361 0 0 0-3.82-2.437A12.166 12.166 0 0 0 11.987.55c-1.633 0-3.172.293-4.617.883A12.307 12.307 0 0 0 3.562 3.87 11.523 11.523 0 0 0 .985 7.465 10.2 10.2 0 0 0 .047 11.8c0 1.539.312 2.984.937 4.347a11.467 11.467 0 0 0 2.59 3.582 12.236 12.236 0 0 0 3.809 2.438c1.445.59 2.984.883 4.617.883Zm0-1.874a10.222 10.222 0 0 1-7.055-2.734 9.548 9.548 0 0 1-2.133-2.989 8.83 8.83 0 0 1-.761-3.652c0-1.301.254-2.52.761-3.649A9.52 9.52 0 0 1 4.946 5.16 9.82 9.82 0 0 1 8.11 3.156c1.204-.488 2.496-.73 3.88-.73 1.382 0 2.675.242 3.878.73a9.701 9.701 0 0 1 3.176 2.004 9.432 9.432 0 0 1 2.145 2.992 8.685 8.685 0 0 1 .773 3.649c0 1.3-.258 2.52-.773 3.652a9.22 9.22 0 0 1-2.133 2.988A10.222 10.222 0 0 1 12 21.176ZM5.965 16.3h4.851c.188 0 .34-.059.457-.176a.65.65 0 0 0 .188-.484c0-.2-.063-.356-.188-.465a.612.612 0 0 0-.457-.176h-3.41v-.078l2.297-2.512a10.21 10.21 0 0 0 1.078-1.36c.29-.44.434-.937.434-1.488 0-.765-.277-1.374-.832-1.832-.547-.457-1.281-.683-2.203-.683-.696 0-1.32.187-1.875.562-.555.375-.907.844-1.055 1.403a9.177 9.177 0 0 1-.047.21 1.464 1.464 0 0 0-.012.188c0 .195.059.36.176.485a.65.65 0 0 0 .48.175.586.586 0 0 0 .4-.133c.1-.093.19-.222.269-.386.148-.41.367-.719.656-.926.297-.207.652-.309 1.066-.309.477 0 .856.125 1.137.375s.422.582.422.993c0 .359-.125.699-.375 1.015-.25.317-.516.63-.797.938l-3.094 3.418a.85.85 0 0 0-.246.597c0 .196.059.356.176.473.125.117.293.176.504.176Zm11.531.23c.234 0 .41-.066.527-.207a.765.765 0 0 0 .188-.531v-1.3h.644c.438 0 .657-.204.657-.606 0-.2-.063-.356-.188-.465a.658.658 0 0 0-.469-.164h-.644v-5.16c0-.317-.11-.57-.328-.762-.211-.191-.488-.29-.832-.29-.336 0-.617.067-.844.2-.227.125-.434.344-.621.652-.25.387-.508.793-.774 1.211-.257.422-.519.84-.785 1.258l-.75 1.223c-.234.39-.449.75-.644 1.082-.094.172-.16.32-.2.453-.038.133-.058.277-.058.43 0 .293.09.527.27.695.187.16.43.242.726.242h3.422v1.301a.8.8 0 0 0 .176.531c.117.14.293.207.527.207Zm-.703-3.273h-2.895v-.043c.141-.254.297-.524.47-.817.382-.644.769-1.285 1.16-1.921l.62-.993.586-.949h.059Zm0 0"/></svg>