<svg width="116" height="116" viewBox="0 0 116 116" fill="none" xmlns="http://www.w3.org/2000/svg">
<path d="M20.5625 115.5H96.375C102.917 115.5 107.812 113.875 111.062 110.625C114.354 107.417 116 102.583 116 96.125V19.8125C116 13.3542 114.354 8.52083 111.062 5.3125C107.812 2.0625 102.917 0.4375 96.375 0.4375H20.5625C14.0208 0.4375 9.10417 2.0625 5.8125 5.3125C2.5625 8.52083 0.9375 13.3542 0.9375 19.8125V96.125C0.9375 102.583 2.5625 107.417 5.8125 110.625C9.10417 113.875 14.0208 115.5 20.5625 115.5ZM25.375 84.1875C24.25 84.1875 23.3333 83.8333 22.625 83.125C21.9583 82.4167 21.625 81.5 21.625 80.375C21.625 79 22.0833 77.8333 23 76.875L40 56.875C41.5417 55.0833 43 53.2708 44.375 51.4375C45.75 49.6042 46.4375 47.625 46.4375 45.5C46.4375 43.125 45.6458 41.2083 44.0625 39.75C42.5208 38.2917 40.4583 37.5625 37.875 37.5625C35.5833 37.5625 33.6458 38.1667 32.0625 39.375C30.4792 40.5417 29.2708 42.3333 28.4375 44.75C27.9792 45.7083 27.4792 46.4583 26.9375 47C26.3958 47.5 25.6667 47.75 24.75 47.75C23.625 47.75 22.7292 47.3958 22.0625 46.6875C21.4375 45.9792 21.125 45.0417 21.125 43.875C21.125 43.5 21.1458 43.125 21.1875 42.75C21.2708 42.375 21.3542 41.9792 21.4375 41.5625C22.2708 38.2708 24.2083 35.5417 27.25 33.375C30.2917 31.1667 33.7292 30.0625 37.5625 30.0625C42.6458 30.0625 46.6875 31.3958 49.6875 34.0625C52.7292 36.7292 54.25 40.3125 54.25 44.8125C54.25 48.0208 53.4583 50.8958 51.875 53.4375C50.2917 55.9792 48.3125 58.6458 45.9375 61.4375L33.3125 76.0625V76.5625H52.0625C53.0625 76.5625 53.8958 76.8958 54.5625 77.5625C55.2708 78.1875 55.625 79.1042 55.625 80.3125C55.625 81.4792 55.2708 82.4167 54.5625 83.125C53.8958 83.8333 53.0625 84.1875 52.0625 84.1875H25.375ZM88.8125 85.5625C87.5208 85.5625 86.5417 85.1458 85.875 84.3125C85.25 83.4792 84.9375 82.4375 84.9375 81.1875V73.625H66.125C64.5 73.625 63.1667 73.1458 62.125 72.1875C61.125 71.1875 60.625 69.8333 60.625 68.125C60.625 67.25 60.7292 66.4167 60.9375 65.625C61.1458 64.8333 61.5208 63.9375 62.0625 62.9375C63.1458 60.9792 64.3333 58.875 65.625 56.625C66.9583 54.3333 68.3333 51.9583 69.75 49.5C71.1667 47.0417 72.5833 44.5833 74 42.125C75.4583 39.6667 76.875 37.3125 78.25 35.0625C79.2917 33.2708 80.4167 32 81.625 31.25C82.875 30.4583 84.4375 30.0625 86.3125 30.0625C88.2292 30.0625 89.7708 30.625 90.9375 31.75C92.1458 32.875 92.75 34.375 92.75 36.25V66.375H96.25C97.3333 66.375 98.2083 66.7083 98.875 67.375C99.5417 68 99.875 68.8958 99.875 70.0625C99.875 71.1875 99.5417 72.0625 98.875 72.6875C98.2083 73.3125 97.3333 73.625 96.25 73.625H92.75V81.1875C92.75 82.4792 92.4167 83.5417 91.75 84.375C91.0833 85.1667 90.1042 85.5625 88.8125 85.5625ZM84.9375 66.375V38.8125H84.5625C83.5208 40.5625 82.4375 42.3958 81.3125 44.3125C80.2292 46.2292 79.125 48.1667 78 50.125C76.875 52.0833 75.7708 54.0208 74.6875 55.9375C73.6042 57.8125 72.5833 59.625 71.625 61.375C70.7083 63.0833 69.8542 64.6667 69.0625 66.125V66.375H84.9375Z" fill="white"/>
</svg>
