<svg xmlns="http://www.w3.org/2000/svg" width="24" height="24"><path style="stroke:none;fill-rule:nonzero;fill:#fff;fill-opacity:1" d="M12 23.05c1.633 0 3.168-.292 4.605-.882a12.22 12.22 0 0 0 3.82-2.438 11.467 11.467 0 0 0 2.59-3.582c.626-1.363.938-2.808.938-4.347a10.2 10.2 0 0 0-.937-4.332 11.53 11.53 0 0 0-2.59-3.598 12.361 12.361 0 0 0-3.82-2.437A12.166 12.166 0 0 0 11.987.55c-1.633 0-3.172.293-4.617.883A12.307 12.307 0 0 0 3.562 3.87 11.523 11.523 0 0 0 .985 7.465 10.2 10.2 0 0 0 .047 11.8c0 1.539.312 2.984.937 4.347a11.467 11.467 0 0 0 2.59 3.582 12.236 12.236 0 0 0 3.809 2.438c1.445.59 2.984.883 4.617.883Zm-6.316-6.605a.726.726 0 0 1-.516-.187.656.656 0 0 1-.188-.485c0-.242.086-.449.258-.617l3.188-3.531c.289-.316.562-.637.82-.96.258-.325.387-.673.387-1.048 0-.418-.149-.758-.445-1.015-.29-.258-.676-.383-1.16-.383-.43 0-.794.105-1.09.32-.297.203-.524.52-.68.945-.078.172-.172.301-.281.399a.617.617 0 0 1-.41.133.698.698 0 0 1-.505-.188.7.7 0 0 1-.175-.496c0-.066.004-.133.011-.2.016-.066.032-.136.047-.21.157-.582.52-1.063 1.09-1.445a3.336 3.336 0 0 1 1.934-.582c.953 0 1.71.234 2.273.707.57.468.856 1.101.856 1.894 0 .566-.149 1.074-.446 1.524-.336.496-.707.964-1.113 1.41l-2.355 2.582v.086h3.503c.188 0 .344.058.47.175.132.114.198.274.198.489a.651.651 0 0 1-.199.496.649.649 0 0 1-.469.187Zm10.312.266c-.758 0-1.414-.168-1.969-.496-.554-.332-.922-.735-1.101-1.203a2.52 2.52 0 0 1-.082-.242 1.661 1.661 0 0 1-.024-.278.639.639 0 0 1 .68-.66c.14 0 .27.04.387.121a.943.943 0 0 1 .304.375c.18.336.434.606.762.805.336.191.711.285 1.125.285.586 0 1.059-.168 1.418-.508.36-.336.54-.805.54-1.398 0-.524-.165-.961-.493-1.313-.328-.355-.758-.531-1.29-.531-.265 0-.507.047-.726.145-.21.09-.437.23-.68.43-.152.128-.32.234-.503.32-.14.05-.305.078-.492.078-.274 0-.489-.09-.645-.266-.156-.184-.223-.426-.2-.727l.306-3.543c.015-.3.12-.535.316-.703.195-.18.453-.265.773-.265h4.149c.172 0 .312.062.422.187a.606.606 0 0 1 .175.453.646.646 0 0 1-.175.461.55.55 0 0 1-.422.176h-3.996l-.223 2.926h.047c.187-.258.473-.473.855-.64a2.856 2.856 0 0 1 1.184-.255c.937 0 1.691.285 2.262.86.578.574.867 1.297.867 2.172 0 1-.328 1.793-.985 2.37-.648.575-1.503.864-2.566.864Zm0 0"/></svg>