<svg xmlns="http://www.w3.org/2000/svg" width="24" height="24"><path style="stroke:none;fill-rule:nonzero;fill:#fff;fill-opacity:1" d="M4.887 23.3h14.215c1.226 0 2.144-.323 2.753-.976.618-.64.926-1.605.926-2.898V4.164c0-1.293-.308-2.258-.926-2.898-.609-.653-1.527-.977-2.753-.977H4.887c-1.227 0-2.149.324-2.766.977-.61.64-.914 1.605-.914 2.898v15.262c0 1.293.305 2.258.914 2.902.617.649 1.54.973 2.766.973Zm.691-6.26a.674.674 0 0 1-.516-.216.795.795 0 0 1-.187-.55 1.04 1.04 0 0 1 .258-.7l3.187-4a19.3 19.3 0 0 0 .82-1.086c.258-.367.387-.761.387-1.187 0-.477-.148-.86-.445-1.149-.289-.293-.676-.437-1.16-.437-.43 0-.793.117-1.09.36-.297.234-.523.593-.68 1.073-.086.196-.18.344-.28.454a.574.574 0 0 1-.411.148.65.65 0 0 1-.504-.215c-.117-.14-.176-.328-.176-.558 0-.079.004-.153.012-.227a8.68 8.68 0 0 0 .047-.238c.156-.657.52-1.203 1.09-1.637a3.06 3.06 0 0 1 1.933-.66c.953 0 1.711.265 2.274.797.57.535.855 1.25.855 2.152a3.35 3.35 0 0 1-.445 1.723 13.453 13.453 0 0 1-1.113 1.601l-2.356 2.926v.098h3.504c.188 0 .344.066.469.199.133.125.199.309.199.55a.785.785 0 0 1-.2.563.604.604 0 0 1-.468.215Zm10.559.312a3.502 3.502 0 0 1-1.676-.403c-.492-.273-.895-.722-1.207-1.347-.203-.403-.363-.895-.48-1.477-.118-.582-.176-1.266-.176-2.05 0-1.966.336-3.434 1.007-4.4.68-.976 1.602-1.46 2.766-1.46.453 0 .86.074 1.219.223.367.148.672.351.914.601s.414.516.516.797c.062.168.093.336.093.5a.77.77 0 0 1-.175.527.566.566 0 0 1-.422.188.77.77 0 0 1-.422-.114 1.493 1.493 0 0 1-.305-.374 1.992 1.992 0 0 0-.598-.614 1.588 1.588 0 0 0-.878-.238c-.68 0-1.231.355-1.653 1.066-.422.707-.633 1.668-.633 2.887v.125h.094c.14-.426.41-.8.809-1.125.406-.336.933-.5 1.582-.5.523 0 1.011.133 1.465.399.453.265.82.656 1.101 1.164.281.507.422 1.132.422 1.875 0 1.183-.316 2.101-.95 2.761-.632.657-1.437.989-2.413.989Zm-.07-1.426c.585 0 1.05-.207 1.394-.614.344-.406.516-.953.516-1.636 0-.64-.176-1.164-.528-1.563-.351-.41-.812-.613-1.383-.613-.562 0-1.02.203-1.37.613-.352.399-.528.918-.528 1.551 0 .664.176 1.211.527 1.637.36.414.817.625 1.371.625Zm0 0"/></svg>