<?xml version="1.0" encoding="UTF-8"?>
<svg xmlns="http://www.w3.org/2000/svg" xmlns:xlink="http://www.w3.org/1999/xlink" width="24" height="22.5" viewBox="0 0 24 22.5" version="1.1">
<g id="surface1">
<path style=" stroke:none;fill-rule:nonzero;fill:rgb(100%,100%,100%);fill-opacity:1;" d="M 4.886719 21.84375 L 19.101562 21.84375 C 20.328125 21.84375 21.246094 21.539062 21.855469 20.929688 C 22.472656 20.328125 22.78125 19.421875 22.78125 18.210938 L 22.78125 3.902344 C 22.78125 2.691406 22.472656 1.785156 21.855469 1.183594 C 21.246094 0.574219 20.328125 0.269531 19.101562 0.269531 L 4.886719 0.269531 C 3.660156 0.269531 2.738281 0.574219 2.121094 1.183594 C 1.511719 1.785156 1.207031 2.691406 1.207031 3.902344 L 1.207031 18.210938 C 1.207031 19.421875 1.511719 20.328125 2.121094 20.929688 C 2.738281 21.539062 3.660156 21.84375 4.886719 21.84375 Z M 5.578125 15.972656 C 5.367188 15.972656 5.195312 15.90625 5.0625 15.773438 C 4.9375 15.640625 4.875 15.46875 4.875 15.257812 C 4.875 15.132812 4.894531 15.019531 4.933594 14.917969 C 4.972656 14.808594 5.039062 14.703125 5.132812 14.601562 L 8.320312 10.851562 C 8.609375 10.515625 8.882812 10.175781 9.140625 9.832031 C 9.398438 9.488281 9.527344 9.117188 9.527344 8.71875 C 9.527344 8.273438 9.378906 7.914062 9.082031 7.640625 C 8.792969 7.367188 8.40625 7.230469 7.921875 7.230469 C 7.492188 7.230469 7.128906 7.34375 6.832031 7.570312 C 6.535156 7.789062 6.308594 8.125 6.152344 8.578125 C 6.066406 8.757812 5.972656 8.898438 5.871094 9 C 5.769531 9.09375 5.632812 9.140625 5.460938 9.140625 C 5.25 9.140625 5.082031 9.074219 4.957031 8.941406 C 4.839844 8.808594 4.78125 8.632812 4.78125 8.414062 C 4.78125 8.34375 4.785156 8.273438 4.792969 8.203125 C 4.808594 8.132812 4.824219 8.058594 4.839844 7.980469 C 4.996094 7.363281 5.359375 6.851562 5.929688 6.445312 C 6.5 6.03125 7.144531 5.824219 7.863281 5.824219 C 8.816406 5.824219 9.574219 6.074219 10.136719 6.574219 C 10.707031 7.074219 10.992188 7.746094 10.992188 8.589844 C 10.992188 9.191406 10.84375 9.730469 10.546875 10.207031 C 10.25 10.683594 9.878906 11.183594 9.433594 11.707031 L 7.078125 14.449219 L 7.078125 14.542969 L 10.582031 14.542969 C 10.769531 14.542969 10.925781 14.605469 11.050781 14.730469 C 11.183594 14.847656 11.25 15.019531 11.25 15.246094 C 11.25 15.464844 11.183594 15.640625 11.050781 15.773438 C 10.925781 15.90625 10.769531 15.972656 10.582031 15.972656 Z M 16.136719 16.265625 C 15.519531 16.265625 14.960938 16.140625 14.460938 15.890625 C 13.96875 15.632812 13.566406 15.210938 13.253906 14.625 C 13.050781 14.25 12.890625 13.789062 12.773438 13.242188 C 12.65625 12.695312 12.597656 12.054688 12.597656 11.320312 C 12.597656 9.476562 12.933594 8.101562 13.605469 7.195312 C 14.285156 6.28125 15.207031 5.824219 16.371094 5.824219 C 16.824219 5.824219 17.230469 5.894531 17.589844 6.035156 C 17.957031 6.175781 18.261719 6.363281 18.503906 6.597656 C 18.746094 6.832031 18.917969 7.082031 19.019531 7.347656 C 19.082031 7.503906 19.113281 7.660156 19.113281 7.816406 C 19.113281 8.019531 19.054688 8.183594 18.9375 8.308594 C 18.820312 8.425781 18.679688 8.484375 18.515625 8.484375 C 18.34375 8.484375 18.203125 8.449219 18.09375 8.378906 C 17.992188 8.300781 17.890625 8.183594 17.789062 8.027344 C 17.632812 7.792969 17.433594 7.601562 17.191406 7.453125 C 16.949219 7.304688 16.65625 7.230469 16.3125 7.230469 C 15.632812 7.230469 15.082031 7.5625 14.660156 8.226562 C 14.238281 8.890625 14.027344 9.792969 14.027344 10.933594 C 14.027344 10.957031 14.027344 10.980469 14.027344 11.003906 C 14.027344 11.019531 14.027344 11.035156 14.027344 11.050781 L 14.121094 11.050781 C 14.261719 10.652344 14.53125 10.300781 14.929688 9.996094 C 15.335938 9.683594 15.863281 9.527344 16.511719 9.527344 C 17.035156 9.527344 17.523438 9.652344 17.976562 9.902344 C 18.429688 10.152344 18.796875 10.515625 19.078125 10.992188 C 19.359375 11.46875 19.5 12.054688 19.5 12.75 C 19.5 13.859375 19.183594 14.722656 18.550781 15.339844 C 17.917969 15.957031 17.113281 16.265625 16.136719 16.265625 Z M 16.066406 14.929688 C 16.652344 14.929688 17.117188 14.738281 17.460938 14.355469 C 17.804688 13.972656 17.976562 13.460938 17.976562 12.820312 C 17.976562 12.21875 17.800781 11.730469 17.449219 11.355469 C 17.097656 10.972656 16.636719 10.78125 16.066406 10.78125 C 15.503906 10.78125 15.046875 10.972656 14.695312 11.355469 C 14.34375 11.730469 14.167969 12.214844 14.167969 12.808594 C 14.167969 13.433594 14.34375 13.945312 14.695312 14.34375 C 15.054688 14.734375 15.511719 14.929688 16.066406 14.929688 Z M 16.066406 14.929688 "/>
</g>
</svg>
