<?xml version="1.0" encoding="UTF-8"?>
<svg xmlns="http://www.w3.org/2000/svg" xmlns:xlink="http://www.w3.org/1999/xlink" width="24" height="25.5" viewBox="0 0 24 25.5" version="1.1">
<g id="surface1">
<path style=" stroke:none;fill-rule:nonzero;fill:rgb(100%,100%,100%);fill-opacity:1;" d="M 12 24.492188 C 13.632812 24.492188 15.167969 24.179688 16.605469 23.554688 C 18.050781 22.929688 19.324219 22.066406 20.425781 20.964844 C 21.527344 19.863281 22.390625 18.59375 23.015625 17.15625 C 23.640625 15.710938 23.953125 14.171875 23.953125 12.539062 C 23.953125 10.90625 23.640625 9.371094 23.015625 7.933594 C 22.390625 6.488281 21.527344 5.214844 20.425781 4.113281 C 19.324219 3.011719 18.050781 2.148438 16.605469 1.523438 C 15.160156 0.898438 13.621094 0.585938 11.988281 0.585938 C 10.355469 0.585938 8.816406 0.898438 7.371094 1.523438 C 5.933594 2.148438 4.664062 3.011719 3.5625 4.113281 C 2.46875 5.214844 1.609375 6.488281 0.984375 7.933594 C 0.359375 9.371094 0.046875 10.90625 0.046875 12.539062 C 0.046875 14.171875 0.359375 15.710938 0.984375 17.15625 C 1.609375 18.59375 2.472656 19.863281 3.574219 20.964844 C 4.675781 22.066406 5.945312 22.929688 7.382812 23.554688 C 8.828125 24.179688 10.367188 24.492188 12 24.492188 Z M 5.929688 17.472656 C 5.71875 17.472656 5.546875 17.40625 5.414062 17.273438 C 5.289062 17.140625 5.226562 16.96875 5.226562 16.757812 C 5.226562 16.523438 5.3125 16.304688 5.484375 16.101562 L 8.671875 12.363281 C 8.960938 12.019531 9.234375 11.675781 9.492188 11.332031 C 9.75 10.988281 9.878906 10.617188 9.878906 10.21875 C 9.878906 9.773438 9.734375 9.414062 9.445312 9.140625 C 9.15625 8.867188 8.765625 8.730469 8.273438 8.730469 C 7.851562 8.730469 7.488281 8.84375 7.183594 9.070312 C 6.886719 9.289062 6.660156 9.625 6.503906 10.078125 C 6.425781 10.257812 6.332031 10.398438 6.222656 10.5 C 6.121094 10.59375 5.984375 10.640625 5.8125 10.640625 C 5.601562 10.640625 5.433594 10.578125 5.308594 10.453125 C 5.191406 10.320312 5.132812 10.140625 5.132812 9.914062 C 5.132812 9.84375 5.136719 9.773438 5.144531 9.703125 C 5.160156 9.632812 5.175781 9.558594 5.191406 9.480469 C 5.347656 8.863281 5.710938 8.351562 6.28125 7.945312 C 6.859375 7.539062 7.503906 7.335938 8.214844 7.335938 C 9.167969 7.335938 9.929688 7.585938 10.5 8.085938 C 11.070312 8.578125 11.355469 9.246094 11.355469 10.089844 C 11.355469 10.691406 11.207031 11.230469 10.910156 11.707031 C 10.613281 12.183594 10.242188 12.683594 9.796875 13.207031 L 7.429688 15.949219 L 7.429688 16.042969 L 10.933594 16.042969 C 11.121094 16.042969 11.277344 16.105469 11.402344 16.230469 C 11.535156 16.347656 11.601562 16.519531 11.601562 16.746094 C 11.601562 16.964844 11.535156 17.140625 11.402344 17.273438 C 11.277344 17.40625 11.121094 17.472656 10.933594 17.472656 Z M 14.71875 17.613281 C 14.492188 17.613281 14.300781 17.539062 14.144531 17.390625 C 13.988281 17.242188 13.910156 17.054688 13.910156 16.828125 C 13.910156 16.617188 13.953125 16.429688 14.039062 16.265625 L 17.789062 9.035156 L 17.789062 8.929688 L 13.546875 8.929688 C 13.335938 8.929688 13.164062 8.871094 13.03125 8.753906 C 12.90625 8.628906 12.84375 8.464844 12.84375 8.261719 C 12.84375 8.050781 12.90625 7.882812 13.03125 7.757812 C 13.164062 7.632812 13.335938 7.570312 13.546875 7.570312 L 18.421875 7.570312 C 18.75 7.570312 19.011719 7.675781 19.207031 7.886719 C 19.402344 8.089844 19.5 8.335938 19.5 8.625 C 19.5 8.75 19.484375 8.878906 19.453125 9.011719 C 19.421875 9.136719 19.359375 9.296875 19.265625 9.492188 L 15.503906 17.027344 C 15.394531 17.238281 15.277344 17.390625 15.152344 17.484375 C 15.027344 17.570312 14.882812 17.613281 14.71875 17.613281 Z M 14.71875 17.613281 "/>
</g>
</svg>
