<svg width="16" height="15" viewBox="0 0 16 15" fill="none" xmlns="http://www.w3.org/2000/svg">
<path d="M3.25781 14.5625H12.7344C13.5521 14.5625 14.1641 14.3594 14.5703 13.9531C14.9818 13.5521 15.1875 12.9479 15.1875 12.1406V2.60156C15.1875 1.79427 14.9818 1.1901 14.5703 0.789062C14.1641 0.382812 13.5521 0.179688 12.7344 0.179688H3.25781C2.4401 0.179688 1.82552 0.382812 1.41406 0.789062C1.00781 1.1901 0.804688 1.79427 0.804688 2.60156V12.1406C0.804688 12.9479 1.00781 13.5521 1.41406 13.9531C1.82552 14.3594 2.4401 14.5625 3.25781 14.5625ZM3.74219 10.6484C3.60156 10.6484 3.48698 10.6042 3.39844 10.5156C3.3151 10.4271 3.27344 10.3125 3.27344 10.1719C3.27344 10.0885 3.28646 10.013 3.3125 9.94531C3.33854 9.8724 3.38281 9.80208 3.44531 9.73438L5.57031 7.23438C5.76302 7.01042 5.94531 6.78385 6.11719 6.55469C6.28906 6.32552 6.375 6.07812 6.375 5.8125C6.375 5.51562 6.27604 5.27604 6.07812 5.09375C5.88542 4.91146 5.6276 4.82031 5.30469 4.82031C5.01823 4.82031 4.77604 4.89583 4.57812 5.04688C4.38021 5.19271 4.22917 5.41667 4.125 5.71875C4.06771 5.83854 4.00521 5.93229 3.9375 6C3.86979 6.0625 3.77865 6.09375 3.66406 6.09375C3.52344 6.09375 3.41146 6.04948 3.32812 5.96094C3.25 5.8724 3.21094 5.75521 3.21094 5.60938C3.21094 5.5625 3.21354 5.51562 3.21875 5.46875C3.22917 5.42188 3.23958 5.3724 3.25 5.32031C3.35417 4.90885 3.59635 4.56771 3.97656 4.29688C4.35677 4.02083 4.78646 3.88281 5.26562 3.88281C5.90104 3.88281 6.40625 4.04948 6.78125 4.38281C7.16146 4.71615 7.35156 5.16406 7.35156 5.72656C7.35156 6.1276 7.2526 6.48698 7.05469 6.80469C6.85677 7.1224 6.60938 7.45573 6.3125 7.80469L4.73438 9.63281V9.69531H7.07812C7.20312 9.69531 7.30729 9.73698 7.39062 9.82031C7.47917 9.89844 7.52344 10.013 7.52344 10.1641C7.52344 10.3099 7.47917 10.4271 7.39062 10.5156C7.30729 10.6042 7.20312 10.6484 7.07812 10.6484H3.74219ZM10.7031 10.8359C10 10.8359 9.4349 10.6562 9.00781 10.2969C8.58594 9.93229 8.375 9.45573 8.375 8.86719C8.375 8.45573 8.49219 8.09635 8.72656 7.78906C8.96615 7.47656 9.30469 7.27604 9.74219 7.1875V7.14062C9.36719 7.03125 9.08594 6.84635 8.89844 6.58594C8.71094 6.32031 8.61719 6.01042 8.61719 5.65625C8.61719 5.13021 8.8125 4.70312 9.20312 4.375C9.59375 4.04688 10.099 3.88281 10.7188 3.88281C11.3333 3.88281 11.8359 4.04688 12.2266 4.375C12.6224 4.70312 12.8203 5.13021 12.8203 5.65625C12.8203 6.01042 12.724 6.32292 12.5312 6.59375C12.3385 6.85938 12.0573 7.04167 11.6875 7.14062V7.1875C12.1198 7.27604 12.4557 7.47396 12.6953 7.78125C12.9401 8.08854 13.0625 8.44792 13.0625 8.85938C13.0625 9.44792 12.8438 9.92448 12.4062 10.2891C11.974 10.6536 11.4062 10.8359 10.7031 10.8359ZM10.7266 9.99219C11.1068 9.99219 11.4193 9.88281 11.6641 9.66406C11.9141 9.4401 12.0391 9.15104 12.0391 8.79688C12.0391 8.44271 11.9167 8.15365 11.6719 7.92969C11.4271 7.70573 11.112 7.59375 10.7266 7.59375C10.3411 7.59375 10.0234 7.70833 9.77344 7.9375C9.52865 8.16146 9.40625 8.44792 9.40625 8.79688C9.40625 9.15104 9.52865 9.4401 9.77344 9.66406C10.0234 9.88281 10.3411 9.99219 10.7266 9.99219ZM10.7188 6.82031C11.0312 6.82031 11.2865 6.72135 11.4844 6.52344C11.6875 6.32031 11.7891 6.0651 11.7891 5.75781C11.7891 5.45573 11.6875 5.20833 11.4844 5.01562C11.2865 4.82292 11.0312 4.72656 10.7188 4.72656C10.401 4.72656 10.1406 4.82292 9.9375 5.01562C9.73958 5.20833 9.64062 5.45573 9.64062 5.75781C9.64062 6.0651 9.74219 6.32031 9.94531 6.52344C10.1484 6.72135 10.4062 6.82031 10.7188 6.82031Z" fill="white"/>
</svg>
