<svg width="116" height="116" viewBox="0 0 116 116" fill="none" xmlns="http://www.w3.org/2000/svg">
<path d="M20.5625 115.5H96.375C102.917 115.5 107.812 113.875 111.062 110.625C114.354 107.417 116 102.583 116 96.125V19.8125C116 13.3542 114.354 8.52083 111.062 5.3125C107.812 2.0625 102.917 0.4375 96.375 0.4375H20.5625C14.0208 0.4375 9.10417 2.0625 5.8125 5.3125C2.5625 8.52083 0.9375 13.3542 0.9375 19.8125V96.125C0.9375 102.583 2.5625 107.417 5.8125 110.625C9.10417 113.875 14.0208 115.5 20.5625 115.5ZM25 84.1875C23.875 84.1875 22.9583 83.8333 22.25 83.125C21.5833 82.4167 21.25 81.5 21.25 80.375C21.25 79.7083 21.3542 79.1042 21.5625 78.5625C21.7708 77.9792 22.125 77.4167 22.625 76.875L39.625 56.875C41.1667 55.0833 42.625 53.2708 44 51.4375C45.375 49.6042 46.0625 47.625 46.0625 45.5C46.0625 43.125 45.2708 41.2083 43.6875 39.75C42.1458 38.2917 40.0833 37.5625 37.5 37.5625C35.2083 37.5625 33.2708 38.1667 31.6875 39.375C30.1042 40.5417 28.8958 42.3333 28.0625 44.75C27.6042 45.7083 27.1042 46.4583 26.5625 47C26.0208 47.5 25.2917 47.75 24.375 47.75C23.25 47.75 22.3542 47.3958 21.6875 46.6875C21.0625 45.9792 20.75 45.0417 20.75 43.875C20.75 43.5 20.7708 43.125 20.8125 42.75C20.8958 42.375 20.9792 41.9792 21.0625 41.5625C21.8958 38.2708 23.8333 35.5417 26.875 33.375C29.9167 31.1667 33.3542 30.0625 37.1875 30.0625C42.2708 30.0625 46.3125 31.3958 49.3125 34.0625C52.3542 36.7292 53.875 40.3125 53.875 44.8125C53.875 48.0208 53.0833 50.8958 51.5 53.4375C49.9167 55.9792 47.9375 58.6458 45.5625 61.4375L33 76.0625V76.5625H51.6875C52.6875 76.5625 53.5208 76.8958 54.1875 77.5625C54.8958 78.1875 55.25 79.1042 55.25 80.3125C55.25 81.4792 54.8958 82.4167 54.1875 83.125C53.5208 83.8333 52.6875 84.1875 51.6875 84.1875H25ZM79.5625 85.6875C75.1042 85.6875 71.5833 84.7083 69 82.75C66.4167 80.75 64.875 78.8542 64.375 77.0625C64.25 76.6875 64.125 76.2917 64 75.875C63.9167 75.4583 63.875 75.0833 63.875 74.75C63.875 73.625 64.1875 72.7083 64.8125 72C65.4792 71.2917 66.3125 70.9375 67.3125 70.9375C69.0208 70.9375 70.3542 71.7708 71.3125 73.4375C72.1042 74.8542 73.1875 76 74.5625 76.875C75.9792 77.75 77.6042 78.1875 79.4375 78.1875C81.9375 78.1875 84.1042 77.375 85.9375 75.75C87.8125 74.125 89.25 71.7917 90.25 68.75C91.25 65.7083 91.7292 62.0625 91.6875 57.8125H91.3125C90.4375 59.9792 88.9375 61.8958 86.8125 63.5625C84.6875 65.1875 81.875 66 78.375 66C75.5417 66 72.9167 65.3333 70.5 64C68.0833 62.625 66.125 60.6667 64.625 58.125C63.125 55.5417 62.375 52.4167 62.375 48.75C62.375 43.0833 64 38.5625 67.25 35.1875C70.5 31.7708 74.8542 30.0625 80.3125 30.0625C86.3542 30.0625 91.0208 32.2917 94.3125 36.75C97.6458 41.1667 99.3125 47.6042 99.3125 56.0625C99.3125 65.7708 97.625 73.1458 94.25 78.1875C90.875 83.1875 85.9792 85.6875 79.5625 85.6875ZM80.75 59.3125C83.7917 59.3125 86.25 58.2917 88.125 56.25C90.0417 54.2083 91 51.6042 91 48.4375C91 45.1042 90.0417 42.3958 88.125 40.3125C86.2083 38.1875 83.7708 37.125 80.8125 37.125C77.6875 37.125 75.2083 38.1458 73.375 40.1875C71.5417 42.2292 70.625 44.9375 70.625 48.3125C70.625 51.5208 71.5417 54.1667 73.375 56.25C75.25 58.2917 77.7083 59.3125 80.75 59.3125Z" fill="white"/>
</svg>
