<svg width="128" height="128" viewBox="0 0 128 128" fill="none" xmlns="http://www.w3.org/2000/svg">
<path d="M63.9375 127.625C72.6458 127.625 80.8333 125.958 88.5 122.625C96.2083 119.292 103 114.688 108.875 108.812C114.75 102.938 119.354 96.1667 122.688 88.5C126.021 80.7917 127.688 72.5833 127.688 63.875C127.688 55.1667 126.021 46.9792 122.688 39.3125C119.354 31.6042 114.75 24.8125 108.875 18.9375C103 13.0625 96.2083 8.45833 88.5 5.125C80.7917 1.79167 72.5833 0.125 63.875 0.125C55.1667 0.125 46.9583 1.79167 39.25 5.125C31.5833 8.45833 24.8125 13.0625 18.9375 18.9375C13.1042 24.8125 8.52083 31.6042 5.1875 39.3125C1.85417 46.9792 0.1875 55.1667 0.1875 63.875C0.1875 72.5833 1.85417 80.7917 5.1875 88.5C8.52083 96.1667 13.125 102.938 19 108.812C24.875 114.688 31.6458 119.292 39.3125 122.625C47.0208 125.958 55.2292 127.625 63.9375 127.625ZM63.9375 117C56.5625 117 49.6667 115.625 43.25 112.875C36.8333 110.125 31.1875 106.333 26.3125 101.5C21.4792 96.625 17.6875 90.9792 14.9375 84.5625C12.2292 78.1458 10.875 71.25 10.875 63.875C10.875 56.5 12.2292 49.6042 14.9375 43.1875C17.6875 36.7708 21.4792 31.125 26.3125 26.25C31.1458 21.375 36.7708 17.5833 43.1875 14.875C49.6042 12.125 56.5 10.75 63.875 10.75C71.25 10.75 78.1458 12.125 84.5625 14.875C91.0208 17.5833 96.6667 21.375 101.5 26.25C106.375 31.125 110.188 36.7708 112.938 43.1875C115.688 49.6042 117.062 56.5 117.062 63.875C117.062 71.25 115.688 78.1458 112.938 84.5625C110.229 90.9792 106.438 96.625 101.562 101.5C96.6875 106.333 91.0417 110.125 84.625 112.875C78.2083 115.625 71.3125 117 63.9375 117ZM63.4375 93.625C70.1458 93.625 75.4375 92.0417 79.3125 88.875C83.1875 85.7083 85.125 81.6667 85.125 76.75C85.125 73.0833 83.875 69.9375 81.375 67.3125C78.9167 64.6458 75.7917 63.1458 72 62.8125V62.3125C75.125 61.8542 77.75 60.3542 79.875 57.8125C82.0417 55.2708 83.125 52.3542 83.125 49.0625C83.125 44.7292 81.3333 41.1667 77.75 38.375C74.1667 35.5417 69.5833 34.125 64 34.125C58.875 34.125 54.5417 35.2292 51 37.4375C47.4583 39.6042 45.2708 42.5417 44.4375 46.25C44.3542 46.7083 44.2708 47.125 44.1875 47.5C44.1458 47.8333 44.125 48.25 44.125 48.75C44.125 49.9583 44.5208 50.9583 45.3125 51.75C46.1458 52.5 47.1875 52.875 48.4375 52.875C50.5625 52.875 51.9792 51.7917 52.6875 49.625C53.3958 47.2917 54.6875 45.4375 56.5625 44.0625C58.4792 42.6875 60.8958 42 63.8125 42C66.9375 42 69.3958 42.7292 71.1875 44.1875C72.9792 45.6458 73.875 47.6458 73.875 50.1875C73.875 52.7708 72.8958 54.9167 70.9375 56.625C69.0208 58.2917 66.5625 59.125 63.5625 59.125H59.625C58.5 59.125 57.5625 59.4792 56.8125 60.1875C56.1042 60.8958 55.75 61.8333 55.75 63C55.75 64.0833 56.1042 65 56.8125 65.75C57.5625 66.4583 58.5 66.8125 59.625 66.8125H63.9375C67.4792 66.8125 70.3333 67.7083 72.5 69.5C74.7083 71.25 75.8125 73.5417 75.8125 76.375C75.8125 79.1667 74.6875 81.4167 72.4375 83.125C70.2292 84.8333 67.2917 85.6875 63.625 85.6875C60.25 85.6875 57.5833 84.9583 55.625 83.5C53.6667 82.0417 52.3125 80.2292 51.5625 78.0625C50.7292 75.9375 49.2917 74.875 47.25 74.875C46 74.875 44.9583 75.2708 44.125 76.0625C43.3333 76.8542 42.9375 77.875 42.9375 79.125C42.9375 79.9167 43.0417 80.7083 43.25 81.5C44.1667 85.125 46.4792 88.0625 50.1875 90.3125C53.9375 92.5208 58.3542 93.625 63.4375 93.625Z" fill="white"/>
</svg>
