<svg width="116" height="116" viewBox="0 0 116 116" fill="none" xmlns="http://www.w3.org/2000/svg">
<path d="M20.5625 115.5H96.375C102.917 115.5 107.812 113.875 111.062 110.625C114.354 107.417 116 102.583 116 96.125V19.8125C116 13.3542 114.354 8.52083 111.062 5.3125C107.812 2.0625 102.917 0.4375 96.375 0.4375H20.5625C14.0208 0.4375 9.10417 2.0625 5.8125 5.3125C2.5625 8.52083 0.9375 13.3542 0.9375 19.8125V96.125C0.9375 102.583 2.5625 107.417 5.8125 110.625C9.10417 113.875 14.0208 115.5 20.5625 115.5ZM58.0625 88.5625C52.7708 88.5625 48.2083 87.4167 44.375 85.125C40.5417 82.8333 38.1458 79.8125 37.1875 76.0625C36.9792 75.1875 36.875 74.375 36.875 73.625C36.875 72.3333 37.2917 71.2708 38.125 70.4375C38.9583 69.6042 40.0417 69.1875 41.375 69.1875C43.5 69.1875 44.9792 70.2917 45.8125 72.5C46.6042 74.7083 48 76.5625 50 78.0625C52 79.5625 54.75 80.3125 58.25 80.3125C62 80.3125 65.0208 79.4375 67.3125 77.6875C69.6458 75.9375 70.8125 73.625 70.8125 70.75C70.8125 67.8333 69.6667 65.4792 67.375 63.6875C65.125 61.8542 62.1875 60.9375 58.5625 60.9375H54.125C52.9583 60.9375 52 60.5625 51.25 59.8125C50.5 59.0625 50.125 58.125 50.125 57C50.125 55.7917 50.5 54.8125 51.25 54.0625C52 53.3125 52.9583 52.9375 54.125 52.9375H58.1875C61.2708 52.9375 63.8125 52.0833 65.8125 50.375C67.8125 48.625 68.8125 46.4167 68.8125 43.75C68.8125 41.1667 67.875 39.125 66 37.625C64.1667 36.125 61.6458 35.375 58.4375 35.375C55.4375 35.375 52.9583 36.0833 51 37.5C49.0417 38.9167 47.7083 40.8125 47 43.1875C46.25 45.4375 44.7708 46.5625 42.5625 46.5625C41.2708 46.5625 40.2083 46.1667 39.375 45.375C38.5417 44.5833 38.125 43.5417 38.125 42.25C38.125 41.75 38.1458 41.3125 38.1875 40.9375C38.2708 40.5625 38.3542 40.1458 38.4375 39.6875C39.3125 35.8542 41.5833 32.8125 45.25 30.5625C48.9167 28.3125 53.375 27.1875 58.625 27.1875C64.4167 27.1875 69.1458 28.6458 72.8125 31.5625C76.5208 34.4375 78.375 38.125 78.375 42.625C78.375 46 77.2708 49 75.0625 51.625C72.8542 54.25 70.125 55.7917 66.875 56.25V56.75C70.7917 57.125 74.0208 58.6667 76.5625 61.375C79.1458 64.0833 80.4375 67.3333 80.4375 71.125C80.4375 76.2083 78.4375 80.3958 74.4375 83.6875C70.4375 86.9375 64.9792 88.5625 58.0625 88.5625Z" fill="white"/>
</svg>
