<svg xmlns="http://www.w3.org/2000/svg" width="24" height="24"><path style="stroke:none;fill-rule:nonzero;fill:#fff;fill-opacity:1" d="M4.887 23.3h14.215c1.226 0 2.144-.323 2.753-.976.618-.64.926-1.605.926-2.898V4.164c0-1.293-.308-2.258-.926-2.898-.609-.653-1.527-.977-2.753-.977H4.887c-1.227 0-2.149.324-2.766.977-.61.64-.914 1.605-.914 2.898v15.262c0 1.293.305 2.258.914 2.902.617.649 1.54.973 2.766.973Zm2.988-5.964c-.82 0-1.527-.227-2.121-.688-.594-.457-.973-.98-1.137-1.574a1.38 1.38 0 0 1-.058-.472.77.77 0 0 1 .199-.551.65.65 0 0 1 .504-.227c.32 0 .55.203.691.614.164.449.406.796.727 1.039.328.238.73.359 1.207.359.578 0 1.05-.164 1.418-.5.367-.332.55-.75.55-1.25 0-.524-.171-.945-.515-1.262-.344-.316-.8-.472-1.371-.472h-.703a.625.625 0 0 1-.493-.215.808.808 0 0 1-.175-.524c0-.234.058-.422.175-.562a.63.63 0 0 1 .493-.215h.644c.477 0 .867-.149 1.172-.45.305-.308.457-.695.457-1.163 0-.446-.152-.809-.457-1.086-.297-.282-.684-.426-1.16-.426-.469 0-.852.121-1.149.363-.289.242-.503.59-.644 1.04-.063.206-.145.363-.246.46-.102.102-.242.153-.422.153a.65.65 0 0 1-.504-.215.862.862 0 0 1-.187-.575c0-.19.007-.343.023-.46.164-.633.527-1.168 1.09-1.602.562-.441 1.254-.66 2.074-.66.906 0 1.645.262 2.215.785.57.516.855 1.188.855 2.012 0 .61-.172 1.152-.515 1.625-.344.476-.762.754-1.254.84v.074c.61.066 1.11.344 1.5.836.398.492.597 1.086.597 1.777 0 .926-.324 1.684-.972 2.285-.649.594-1.485.887-2.508.887Zm8.367 0c-.828 0-1.539-.227-2.133-.688-.586-.457-.96-.98-1.125-1.574a1.38 1.38 0 0 1-.058-.472.77.77 0 0 1 .199-.551.65.65 0 0 1 .504-.227c.32 0 .55.203.691.614.164.449.407.796.727 1.039.32.238.723.359 1.207.359.578 0 1.047-.164 1.406-.5.367-.332.55-.75.55-1.25 0-.524-.17-.945-.515-1.262-.336-.316-.789-.472-1.36-.472h-.714a.627.627 0 0 1-.48-.215.763.763 0 0 1-.188-.524c0-.234.063-.422.188-.562.125-.14.3-.219.48-.215h.656c.477 0 .864-.149 1.16-.45.305-.308.458-.695.458-1.163 0-.446-.149-.809-.446-1.086-.297-.282-.683-.426-1.16-.426-.477 0-.863.121-1.16.363-.29.242-.504.59-.645 1.04-.054.206-.136.363-.246.46-.101.102-.242.153-.422.153a.65.65 0 0 1-.504-.215.862.862 0 0 1-.187-.575c0-.19.008-.343.023-.46.165-.633.528-1.168 1.09-1.602.57-.441 1.266-.66 2.086-.66.906 0 1.645.262 2.215.785.57.516.856 1.188.856 2.012 0 .61-.172 1.152-.516 1.625-.344.476-.766.754-1.266.84v.074a2.192 2.192 0 0 1 1.512.836c.398.492.598 1.086.598 1.777 0 .926-.325 1.684-.973 2.285-.648.594-1.484.887-2.508.887Zm0 0"/></svg>