<svg width="128" height="128" viewBox="0 0 128 128" fill="none" xmlns="http://www.w3.org/2000/svg">
<path d="M63.9375 127.625C72.6458 127.625 80.8333 125.958 88.5 122.625C96.2083 119.292 103 114.688 108.875 108.812C114.75 102.938 119.354 96.1667 122.688 88.5C126.021 80.7917 127.688 72.5833 127.688 63.875C127.688 55.1667 126.021 46.9792 122.688 39.3125C119.354 31.6042 114.75 24.8125 108.875 18.9375C103 13.0625 96.2083 8.45833 88.5 5.125C80.7917 1.79167 72.5833 0.125 63.875 0.125C55.1667 0.125 46.9583 1.79167 39.25 5.125C31.5833 8.45833 24.8125 13.0625 18.9375 18.9375C13.1042 24.8125 8.52083 31.6042 5.1875 39.3125C1.85417 46.9792 0.1875 55.1667 0.1875 63.875C0.1875 72.5833 1.85417 80.7917 5.1875 88.5C8.52083 96.1667 13.125 102.938 19 108.812C24.875 114.688 31.6458 119.292 39.3125 122.625C47.0208 125.958 55.2292 127.625 63.9375 127.625ZM41.8125 91.6875C37.3958 91.6875 33.6042 90.5417 30.4375 88.25C27.3125 85.9583 25.3125 83.3333 24.4375 80.375C24.3125 79.9583 24.2292 79.5833 24.1875 79.25C24.1458 78.875 24.125 78.4583 24.125 78C24.125 76.875 24.4792 75.9583 25.1875 75.25C25.8958 74.5 26.7917 74.125 27.875 74.125C29.5833 74.125 30.8125 75.1458 31.5625 77.1875C32.4375 79.4375 33.7292 81.1667 35.4375 82.375C37.1458 83.5833 39.2917 84.1875 41.875 84.1875C44.9583 84.1875 47.4583 83.3542 49.375 81.6875C51.3333 80.0208 52.3125 77.9375 52.3125 75.4375C52.3125 72.8125 51.3958 70.7083 49.5625 69.125C47.7708 67.5417 45.3542 66.75 42.3125 66.75H38.5C37.4583 66.75 36.6042 66.3958 35.9375 65.6875C35.2708 64.9792 34.9375 64.1042 34.9375 63.0625C34.9375 61.8958 35.2708 60.9583 35.9375 60.25C36.6042 59.5417 37.4583 59.1875 38.5 59.1875H42C44.5417 59.1875 46.625 58.4375 48.25 56.9375C49.875 55.3958 50.6875 53.4583 50.6875 51.125C50.6875 48.875 49.875 47.0625 48.25 45.6875C46.6667 44.2708 44.6042 43.5625 42.0625 43.5625C39.5625 43.5625 37.5208 44.1667 35.9375 45.375C34.3542 46.5833 33.2083 48.3125 32.5 50.5625C32.1667 51.6042 31.7292 52.375 31.1875 52.875C30.6458 53.375 29.8958 53.625 28.9375 53.625C27.7708 53.625 26.8542 53.2708 26.1875 52.5625C25.5208 51.8125 25.1875 50.8542 25.1875 49.6875C25.1875 49.2708 25.1875 48.8958 25.1875 48.5625C25.2292 48.1875 25.2917 47.7917 25.375 47.375C26.2083 44.2083 28.125 41.5417 31.125 39.375C34.1667 37.1667 37.875 36.0625 42.25 36.0625C47.0833 36.0625 51.0208 37.375 54.0625 40C57.1042 42.5833 58.625 45.9375 58.625 50.0625C58.625 53.1042 57.7083 55.8125 55.875 58.1875C54.0417 60.5625 51.8125 61.9583 49.1875 62.375V62.75C52.4375 63.0833 55.1042 64.4792 57.1875 66.9375C59.3125 69.3958 60.375 72.3542 60.375 75.8125C60.375 80.4375 58.6458 84.25 55.1875 87.25C51.7292 90.2083 47.2708 91.6875 41.8125 91.6875ZM94.9375 91.5625C93.6458 91.5625 92.6667 91.1458 92 90.3125C91.3333 89.4792 91 88.4375 91 87.1875V79.625H72.3125C70.6458 79.625 69.2917 79.1458 68.25 78.1875C67.25 77.1875 66.75 75.8333 66.75 74.125C66.75 73.25 66.8542 72.4167 67.0625 71.625C67.2708 70.8333 67.6458 69.9375 68.1875 68.9375C69.2708 66.9792 70.4583 64.875 71.75 62.625C73.0833 60.3333 74.4583 57.9583 75.875 55.5C77.2917 53.0417 78.7083 50.5833 80.125 48.125C81.5833 45.6667 83 43.3125 84.375 41.0625C85.4167 39.2708 86.5625 38 87.8125 37.25C89.0625 36.4583 90.625 36.0625 92.5 36.0625C94.375 36.0625 95.8958 36.625 97.0625 37.75C98.2708 38.875 98.875 40.375 98.875 42.25V72.375H102.375C103.458 72.375 104.333 72.7083 105 73.375C105.667 74 106 74.8958 106 76.0625C106 78.4375 104.792 79.625 102.375 79.625H98.875V87.1875C98.875 88.4792 98.5417 89.5417 97.875 90.375C97.2083 91.1667 96.2292 91.5625 94.9375 91.5625ZM91 72.375V44.8125H90.6875C89.6458 46.5625 88.5625 48.3958 87.4375 50.3125C86.3542 52.2292 85.25 54.1667 84.125 56.125C83 58.0833 81.8958 60.0208 80.8125 61.9375C79.7292 63.8125 78.7083 65.625 77.75 67.375C76.7917 69.0833 75.9375 70.6667 75.1875 72.125V72.375H91Z" fill="white"/>
</svg>
