<?xml version="1.0" encoding="UTF-8"?>
<svg xmlns="http://www.w3.org/2000/svg" xmlns:xlink="http://www.w3.org/1999/xlink" width="24" height="25.5" viewBox="0 0 24 25.5" version="1.1">
<g id="surface1">
<path style=" stroke:none;fill-rule:nonzero;fill:rgb(100%,100%,100%);fill-opacity:1;" d="M 12 24.492188 C 13.632812 24.492188 15.167969 24.179688 16.605469 23.554688 C 18.050781 22.929688 19.324219 22.066406 20.425781 20.964844 C 21.527344 19.863281 22.390625 18.59375 23.015625 17.15625 C 23.640625 15.710938 23.953125 14.171875 23.953125 12.539062 C 23.953125 10.90625 23.640625 9.371094 23.015625 7.933594 C 22.390625 6.488281 21.527344 5.214844 20.425781 4.113281 C 19.324219 3.011719 18.050781 2.148438 16.605469 1.523438 C 15.160156 0.898438 13.621094 0.585938 11.988281 0.585938 C 10.355469 0.585938 8.816406 0.898438 7.371094 1.523438 C 5.933594 2.148438 4.664062 3.011719 3.5625 4.113281 C 2.46875 5.214844 1.609375 6.488281 0.984375 7.933594 C 0.359375 9.371094 0.046875 10.90625 0.046875 12.539062 C 0.046875 14.171875 0.359375 15.710938 0.984375 17.15625 C 1.609375 18.59375 2.472656 19.863281 3.574219 20.964844 C 4.675781 22.066406 5.945312 22.929688 7.382812 23.554688 C 8.828125 24.179688 10.367188 24.492188 12 24.492188 Z M 12 22.5 C 10.617188 22.5 9.324219 22.242188 8.121094 21.726562 C 6.917969 21.210938 5.859375 20.5 4.945312 19.59375 C 4.039062 18.679688 3.328125 17.621094 2.8125 16.417969 C 2.304688 15.214844 2.050781 13.921875 2.050781 12.539062 C 2.050781 11.15625 2.304688 9.863281 2.8125 8.660156 C 3.328125 7.457031 4.039062 6.398438 4.945312 5.484375 C 5.851562 4.570312 6.90625 3.859375 8.109375 3.351562 C 9.3125 2.835938 10.605469 2.578125 11.988281 2.578125 C 13.371094 2.578125 14.664062 2.835938 15.867188 3.351562 C 17.078125 3.859375 18.136719 4.570312 19.042969 5.484375 C 19.957031 6.398438 20.671875 7.457031 21.1875 8.660156 C 21.703125 9.863281 21.960938 11.15625 21.960938 12.539062 C 21.960938 13.921875 21.703125 15.214844 21.1875 16.417969 C 20.679688 17.621094 19.96875 18.679688 19.054688 19.59375 C 18.140625 20.5 17.082031 21.210938 15.878906 21.726562 C 14.675781 22.242188 13.382812 22.5 12 22.5 Z M 8.121094 17.589844 C 9.113281 17.589844 9.921875 17.320312 10.546875 16.78125 C 11.179688 16.242188 11.496094 15.550781 11.496094 14.707031 C 11.496094 14.082031 11.300781 13.546875 10.910156 13.101562 C 10.527344 12.648438 10.042969 12.394531 9.457031 12.339844 L 9.457031 12.269531 C 9.941406 12.191406 10.347656 11.9375 10.675781 11.507812 C 11.011719 11.070312 11.179688 10.578125 11.179688 10.03125 C 11.179688 9.28125 10.902344 8.671875 10.347656 8.203125 C 9.792969 7.726562 9.078125 7.488281 8.203125 7.488281 C 7.40625 7.488281 6.734375 7.6875 6.1875 8.085938 C 5.640625 8.484375 5.289062 8.96875 5.132812 9.539062 C 5.117188 9.648438 5.109375 9.789062 5.109375 9.960938 C 5.109375 10.171875 5.167969 10.34375 5.285156 10.476562 C 5.410156 10.609375 5.574219 10.675781 5.777344 10.675781 C 5.949219 10.675781 6.085938 10.628906 6.1875 10.535156 C 6.289062 10.441406 6.367188 10.300781 6.421875 10.113281 C 6.554688 9.699219 6.761719 9.382812 7.042969 9.164062 C 7.332031 8.945312 7.707031 8.835938 8.167969 8.835938 C 8.628906 8.835938 9.003906 8.964844 9.292969 9.222656 C 9.589844 9.472656 9.738281 9.804688 9.738281 10.21875 C 9.738281 10.648438 9.589844 11.003906 9.292969 11.285156 C 9.003906 11.558594 8.625 11.695312 8.15625 11.695312 L 7.523438 11.695312 C 7.335938 11.695312 7.179688 11.757812 7.054688 11.882812 C 6.9375 12.007812 6.878906 12.175781 6.878906 12.386719 C 6.878906 12.574219 6.9375 12.734375 7.054688 12.867188 C 7.171875 12.992188 7.328125 13.054688 7.523438 13.054688 L 8.214844 13.054688 C 8.769531 13.054688 9.210938 13.199219 9.539062 13.488281 C 9.875 13.777344 10.042969 14.160156 10.042969 14.636719 C 10.042969 15.089844 9.863281 15.472656 9.503906 15.785156 C 9.152344 16.089844 8.695312 16.242188 8.132812 16.242188 C 7.671875 16.242188 7.28125 16.132812 6.960938 15.914062 C 6.648438 15.6875 6.414062 15.371094 6.257812 14.964844 C 6.117188 14.589844 5.894531 14.402344 5.589844 14.402344 C 5.394531 14.402344 5.230469 14.46875 5.097656 14.601562 C 4.972656 14.734375 4.910156 14.902344 4.910156 15.105469 C 4.910156 15.191406 4.914062 15.265625 4.921875 15.328125 C 4.929688 15.390625 4.945312 15.460938 4.96875 15.539062 C 5.125 16.078125 5.488281 16.554688 6.058594 16.96875 C 6.636719 17.382812 7.324219 17.589844 8.121094 17.589844 Z M 15.972656 17.589844 C 17.003906 17.589844 17.835938 17.292969 18.46875 16.699219 C 19.101562 16.105469 19.417969 15.292969 19.417969 14.261719 C 19.417969 13.363281 19.136719 12.621094 18.574219 12.035156 C 18.019531 11.441406 17.289062 11.144531 16.382812 11.144531 C 15.992188 11.144531 15.609375 11.230469 15.234375 11.402344 C 14.859375 11.574219 14.582031 11.792969 14.402344 12.058594 L 14.355469 12.058594 L 14.578125 9.046875 L 18.457031 9.046875 C 18.621094 9.046875 18.757812 8.984375 18.867188 8.859375 C 18.976562 8.734375 19.03125 8.578125 19.03125 8.390625 C 19.03125 8.203125 18.976562 8.046875 18.867188 7.921875 C 18.765625 7.796875 18.628906 7.734375 18.457031 7.734375 L 14.425781 7.734375 C 14.121094 7.734375 13.871094 7.824219 13.675781 8.003906 C 13.488281 8.183594 13.386719 8.425781 13.371094 8.730469 L 13.078125 12.386719 C 13.054688 12.691406 13.117188 12.9375 13.265625 13.125 C 13.421875 13.304688 13.632812 13.394531 13.898438 13.394531 C 14.078125 13.394531 14.234375 13.367188 14.367188 13.3125 C 14.507812 13.257812 14.671875 13.152344 14.859375 12.996094 C 15.101562 12.785156 15.324219 12.632812 15.527344 12.539062 C 15.738281 12.445312 15.972656 12.398438 16.230469 12.398438 C 16.746094 12.398438 17.164062 12.582031 17.484375 12.949219 C 17.804688 13.308594 17.964844 13.757812 17.964844 14.296875 C 17.964844 14.90625 17.785156 15.386719 17.425781 15.738281 C 17.074219 16.089844 16.617188 16.265625 16.054688 16.265625 C 15.65625 16.265625 15.292969 16.167969 14.964844 15.972656 C 14.644531 15.769531 14.398438 15.492188 14.226562 15.140625 C 14.140625 14.96875 14.039062 14.84375 13.921875 14.765625 C 13.8125 14.679688 13.691406 14.636719 13.558594 14.636719 C 13.363281 14.636719 13.203125 14.703125 13.078125 14.835938 C 12.960938 14.960938 12.902344 15.121094 12.902344 15.316406 C 12.902344 15.410156 12.910156 15.503906 12.925781 15.597656 C 12.941406 15.683594 12.964844 15.765625 12.996094 15.84375 C 13.175781 16.328125 13.53125 16.742188 14.0625 17.085938 C 14.601562 17.421875 15.238281 17.589844 15.972656 17.589844 Z M 15.972656 17.589844 "/>
</g>
</svg>
