<svg width="16" height="17" viewBox="0 0 16 17" fill="none" xmlns="http://www.w3.org/2000/svg">
<path d="M8 16.3281C9.08854 16.3281 10.112 16.1198 11.0703 15.7031C12.0339 15.2865 12.8828 14.7109 13.6172 13.9766C14.3516 13.2422 14.9271 12.3958 15.3438 11.4375C15.7604 10.474 15.9688 9.44792 15.9688 8.35938C15.9688 7.27083 15.7604 6.2474 15.3438 5.28906C14.9271 4.32552 14.3516 3.47656 13.6172 2.74219C12.8828 2.00781 12.0339 1.43229 11.0703 1.01562C10.1068 0.598958 9.08073 0.390625 7.99219 0.390625C6.90365 0.390625 5.8776 0.598958 4.91406 1.01562C3.95573 1.43229 3.10938 2.00781 2.375 2.74219C1.64583 3.47656 1.07292 4.32552 0.65625 5.28906C0.239583 6.2474 0.03125 7.27083 0.03125 8.35938C0.03125 9.44792 0.239583 10.474 0.65625 11.4375C1.07292 12.3958 1.64844 13.2422 2.38281 13.9766C3.11719 14.7109 3.96354 15.2865 4.92188 15.7031C5.88542 16.1198 6.91146 16.3281 8 16.3281ZM8 15C7.07812 15 6.21615 14.8281 5.41406 14.4844C4.61198 14.1406 3.90625 13.6667 3.29688 13.0625C2.69271 12.4531 2.21875 11.7474 1.875 10.9453C1.53646 10.1432 1.36719 9.28125 1.36719 8.35938C1.36719 7.4375 1.53646 6.57552 1.875 5.77344C2.21875 4.97135 2.69271 4.26562 3.29688 3.65625C3.90104 3.04688 4.60417 2.57292 5.40625 2.23438C6.20833 1.89062 7.07031 1.71875 7.99219 1.71875C8.91406 1.71875 9.77604 1.89062 10.5781 2.23438C11.3854 2.57292 12.0911 3.04688 12.6953 3.65625C13.3047 4.26562 13.7812 4.97135 14.125 5.77344C14.4688 6.57552 14.6406 7.4375 14.6406 8.35938C14.6406 9.28125 14.4688 10.1432 14.125 10.9453C13.7865 11.7474 13.3125 12.4531 12.7031 13.0625C12.0938 13.6667 11.388 14.1406 10.5859 14.4844C9.78385 14.8281 8.92188 15 8 15ZM5.27344 11.7266C5.9349 11.7266 6.47396 11.5469 6.89062 11.1875C7.3125 10.8281 7.52344 10.3672 7.52344 9.80469C7.52344 9.38802 7.39323 9.03125 7.13281 8.73438C6.8776 8.43229 6.55469 8.26302 6.16406 8.22656V8.17969C6.48698 8.1276 6.75781 7.95833 6.97656 7.67188C7.20052 7.38021 7.3125 7.05208 7.3125 6.6875C7.3125 6.1875 7.1276 5.78125 6.75781 5.46875C6.38802 5.15104 5.91146 4.99219 5.32812 4.99219C4.79688 4.99219 4.34896 5.125 3.98438 5.39062C3.61979 5.65625 3.38542 5.97917 3.28125 6.35938C3.27083 6.43229 3.26562 6.52604 3.26562 6.64062C3.26562 6.78125 3.30469 6.89583 3.38281 6.98438C3.46615 7.07292 3.57552 7.11719 3.71094 7.11719C3.82552 7.11719 3.91667 7.08594 3.98438 7.02344C4.05208 6.96094 4.10417 6.86719 4.14062 6.74219C4.22917 6.46615 4.36719 6.25521 4.55469 6.10938C4.7474 5.96354 4.9974 5.89062 5.30469 5.89062C5.61198 5.89062 5.86198 5.97656 6.05469 6.14844C6.2526 6.3151 6.35156 6.53646 6.35156 6.8125C6.35156 7.09896 6.2526 7.33594 6.05469 7.52344C5.86198 7.70573 5.60938 7.79688 5.29688 7.79688H4.875C4.75 7.79688 4.64583 7.83854 4.5625 7.92188C4.48438 8.00521 4.44531 8.11719 4.44531 8.25781C4.44531 8.38281 4.48438 8.48958 4.5625 8.57812C4.64062 8.66146 4.74479 8.70312 4.875 8.70312H5.33594C5.70573 8.70312 6 8.79948 6.21875 8.99219C6.44271 9.1849 6.55469 9.4401 6.55469 9.75781C6.55469 10.0599 6.4349 10.3151 6.19531 10.5234C5.96094 10.7266 5.65625 10.8281 5.28125 10.8281C4.97396 10.8281 4.71354 10.7552 4.5 10.6094C4.29167 10.4583 4.13542 10.2474 4.03125 9.97656C3.9375 9.72656 3.78906 9.60156 3.58594 9.60156C3.45573 9.60156 3.34635 9.64583 3.25781 9.73438C3.17448 9.82292 3.13281 9.9349 3.13281 10.0703C3.13281 10.1276 3.13542 10.1771 3.14062 10.2188C3.14583 10.2604 3.15625 10.3073 3.17188 10.3594C3.27604 10.7188 3.51823 11.0365 3.89844 11.3125C4.28385 11.5885 4.74219 11.7266 5.27344 11.7266ZM10.7422 11.7344C11.3776 11.7344 11.8984 11.5365 12.3047 11.1406C12.7109 10.7396 12.9141 10.1823 12.9141 9.46875C12.9141 8.79688 12.7188 8.28125 12.3281 7.92188C11.9375 7.5625 11.487 7.38281 10.9766 7.38281C10.5651 7.38281 10.2292 7.48438 9.96875 7.6875C9.70833 7.88542 9.52865 8.11198 9.42969 8.36719H9.375C9.375 8.35677 9.375 8.34635 9.375 8.33594C9.375 8.32552 9.375 8.3125 9.375 8.29688C9.375 7.55729 9.51042 6.97135 9.78125 6.53906C10.0521 6.10677 10.4089 5.89062 10.8516 5.89062C11.0755 5.89062 11.2656 5.9401 11.4219 6.03906C11.5833 6.13802 11.7135 6.26302 11.8125 6.41406C11.8802 6.51302 11.9479 6.58594 12.0156 6.63281C12.0833 6.67969 12.1719 6.70312 12.2812 6.70312C12.3906 6.70312 12.4818 6.66406 12.5547 6.58594C12.6276 6.50781 12.6641 6.40365 12.6641 6.27344C12.6641 6.17448 12.6458 6.07552 12.6094 5.97656C12.5417 5.80469 12.4297 5.64323 12.2734 5.49219C12.1172 5.34115 11.9219 5.22135 11.6875 5.13281C11.4531 5.03906 11.1875 4.99219 10.8906 4.99219C10.1406 4.99219 9.54688 5.28646 9.10938 5.875C8.67708 6.46354 8.46094 7.35156 8.46094 8.53906C8.46094 9.01302 8.4974 9.42708 8.57031 9.78125C8.64323 10.1354 8.74479 10.4349 8.875 10.6797C9.07812 11.0547 9.34115 11.3255 9.66406 11.4922C9.98698 11.6536 10.3464 11.7344 10.7422 11.7344ZM10.6953 10.875C10.3359 10.875 10.0391 10.7474 9.80469 10.4922C9.57552 10.237 9.46094 9.90625 9.46094 9.5C9.46094 9.11458 9.57552 8.79948 9.80469 8.55469C10.0339 8.3099 10.3333 8.1875 10.7031 8.1875C11.0677 8.1875 11.362 8.3099 11.5859 8.55469C11.8151 8.79948 11.9297 9.11719 11.9297 9.50781C11.9297 9.92448 11.8177 10.2578 11.5938 10.5078C11.375 10.7526 11.0755 10.875 10.6953 10.875Z" fill="white"/>
</svg>
