<?xml version="1.0" encoding="UTF-8"?>
<svg xmlns="http://www.w3.org/2000/svg" xmlns:xlink="http://www.w3.org/1999/xlink" width="24" height="25.5" viewBox="0 0 24 25.5" version="1.1">
<g id="surface1">
<path style=" stroke:none;fill-rule:nonzero;fill:rgb(100%,100%,100%);fill-opacity:1;" d="M 12 24.492188 C 13.632812 24.492188 15.167969 24.179688 16.605469 23.554688 C 18.050781 22.929688 19.324219 22.066406 20.425781 20.964844 C 21.527344 19.863281 22.390625 18.59375 23.015625 17.15625 C 23.640625 15.710938 23.953125 14.171875 23.953125 12.539062 C 23.953125 10.90625 23.640625 9.371094 23.015625 7.933594 C 22.390625 6.488281 21.527344 5.214844 20.425781 4.113281 C 19.324219 3.011719 18.050781 2.148438 16.605469 1.523438 C 15.160156 0.898438 13.621094 0.585938 11.988281 0.585938 C 10.355469 0.585938 8.816406 0.898438 7.371094 1.523438 C 5.933594 2.148438 4.664062 3.011719 3.5625 4.113281 C 2.46875 5.214844 1.609375 6.488281 0.984375 7.933594 C 0.359375 9.371094 0.046875 10.90625 0.046875 12.539062 C 0.046875 14.171875 0.359375 15.710938 0.984375 17.15625 C 1.609375 18.59375 2.472656 19.863281 3.574219 20.964844 C 4.675781 22.066406 5.945312 22.929688 7.382812 23.554688 C 8.828125 24.179688 10.367188 24.492188 12 24.492188 Z M 12 22.5 C 10.617188 22.5 9.324219 22.242188 8.121094 21.726562 C 6.917969 21.210938 5.859375 20.5 4.945312 19.59375 C 4.039062 18.679688 3.328125 17.621094 2.8125 16.417969 C 2.304688 15.214844 2.050781 13.921875 2.050781 12.539062 C 2.050781 11.15625 2.304688 9.863281 2.8125 8.660156 C 3.328125 7.457031 4.039062 6.398438 4.945312 5.484375 C 5.851562 4.570312 6.90625 3.859375 8.109375 3.351562 C 9.3125 2.835938 10.605469 2.578125 11.988281 2.578125 C 13.371094 2.578125 14.664062 2.835938 15.867188 3.351562 C 17.078125 3.859375 18.136719 4.570312 19.042969 5.484375 C 19.957031 6.398438 20.671875 7.457031 21.1875 8.660156 C 21.703125 9.863281 21.960938 11.15625 21.960938 12.539062 C 21.960938 13.921875 21.703125 15.214844 21.1875 16.417969 C 20.679688 17.621094 19.96875 18.679688 19.054688 19.59375 C 18.140625 20.5 17.082031 21.210938 15.878906 21.726562 C 14.675781 22.242188 13.382812 22.5 12 22.5 Z M 7.910156 17.589844 C 8.902344 17.589844 9.710938 17.320312 10.335938 16.78125 C 10.96875 16.242188 11.285156 15.550781 11.285156 14.707031 C 11.285156 14.082031 11.089844 13.546875 10.699219 13.101562 C 10.316406 12.648438 9.832031 12.394531 9.246094 12.339844 L 9.246094 12.269531 C 9.730469 12.191406 10.136719 11.9375 10.464844 11.507812 C 10.800781 11.070312 10.96875 10.578125 10.96875 10.03125 C 10.96875 9.28125 10.691406 8.671875 10.136719 8.203125 C 9.582031 7.726562 8.867188 7.488281 7.992188 7.488281 C 7.195312 7.488281 6.523438 7.6875 5.976562 8.085938 C 5.429688 8.484375 5.078125 8.96875 4.921875 9.539062 C 4.90625 9.648438 4.898438 9.789062 4.898438 9.960938 C 4.898438 10.171875 4.957031 10.34375 5.074219 10.476562 C 5.199219 10.609375 5.363281 10.675781 5.566406 10.675781 C 5.738281 10.675781 5.875 10.628906 5.976562 10.535156 C 6.078125 10.441406 6.15625 10.300781 6.210938 10.113281 C 6.34375 9.699219 6.550781 9.382812 6.832031 9.164062 C 7.121094 8.945312 7.496094 8.835938 7.957031 8.835938 C 8.417969 8.835938 8.792969 8.964844 9.082031 9.222656 C 9.378906 9.472656 9.527344 9.804688 9.527344 10.21875 C 9.527344 10.648438 9.378906 11.003906 9.082031 11.285156 C 8.792969 11.558594 8.414062 11.695312 7.945312 11.695312 L 7.3125 11.695312 C 7.125 11.695312 6.96875 11.757812 6.84375 11.882812 C 6.726562 12.007812 6.667969 12.175781 6.667969 12.386719 C 6.667969 12.574219 6.726562 12.734375 6.84375 12.867188 C 6.960938 12.992188 7.117188 13.054688 7.3125 13.054688 L 8.003906 13.054688 C 8.558594 13.054688 9 13.199219 9.328125 13.488281 C 9.664062 13.777344 9.832031 14.160156 9.832031 14.636719 C 9.832031 15.089844 9.652344 15.472656 9.292969 15.785156 C 8.941406 16.089844 8.484375 16.242188 7.921875 16.242188 C 7.460938 16.242188 7.070312 16.132812 6.75 15.914062 C 6.4375 15.6875 6.203125 15.371094 6.046875 14.964844 C 5.90625 14.589844 5.683594 14.402344 5.378906 14.402344 C 5.183594 14.402344 5.019531 14.46875 4.886719 14.601562 C 4.761719 14.734375 4.699219 14.902344 4.699219 15.105469 C 4.699219 15.191406 4.703125 15.265625 4.710938 15.328125 C 4.71875 15.390625 4.734375 15.460938 4.757812 15.539062 C 4.914062 16.078125 5.277344 16.554688 5.847656 16.96875 C 6.425781 17.382812 7.113281 17.589844 7.910156 17.589844 Z M 16.113281 17.601562 C 17.066406 17.601562 17.847656 17.304688 18.457031 16.710938 C 19.066406 16.109375 19.371094 15.273438 19.371094 14.203125 C 19.371094 13.195312 19.078125 12.421875 18.492188 11.882812 C 17.90625 11.34375 17.230469 11.074219 16.464844 11.074219 C 15.847656 11.074219 15.34375 11.226562 14.953125 11.53125 C 14.5625 11.828125 14.292969 12.167969 14.144531 12.550781 L 14.0625 12.550781 C 14.0625 12.535156 14.0625 12.519531 14.0625 12.503906 C 14.0625 12.488281 14.0625 12.46875 14.0625 12.445312 C 14.0625 11.335938 14.265625 10.457031 14.671875 9.808594 C 15.078125 9.160156 15.613281 8.835938 16.277344 8.835938 C 16.613281 8.835938 16.898438 8.910156 17.132812 9.058594 C 17.375 9.207031 17.570312 9.394531 17.71875 9.621094 C 17.820312 9.769531 17.921875 9.878906 18.023438 9.949219 C 18.125 10.019531 18.257812 10.054688 18.421875 10.054688 C 18.585938 10.054688 18.722656 9.996094 18.832031 9.878906 C 18.941406 9.761719 18.996094 9.605469 18.996094 9.410156 C 18.996094 9.261719 18.96875 9.113281 18.914062 8.964844 C 18.8125 8.707031 18.644531 8.464844 18.410156 8.238281 C 18.175781 8.011719 17.882812 7.832031 17.53125 7.699219 C 17.179688 7.558594 16.78125 7.488281 16.335938 7.488281 C 15.210938 7.488281 14.320312 7.929688 13.664062 8.8125 C 13.015625 9.695312 12.691406 11.027344 12.691406 12.808594 C 12.691406 13.519531 12.746094 14.140625 12.855469 14.671875 C 12.964844 15.203125 13.117188 15.652344 13.3125 16.019531 C 13.617188 16.582031 14.011719 16.988281 14.496094 17.238281 C 14.980469 17.480469 15.519531 17.601562 16.113281 17.601562 Z M 16.042969 16.3125 C 15.503906 16.3125 15.058594 16.121094 14.707031 15.738281 C 14.363281 15.355469 14.191406 14.859375 14.191406 14.25 C 14.191406 13.671875 14.363281 13.199219 14.707031 12.832031 C 15.050781 12.464844 15.5 12.28125 16.054688 12.28125 C 16.601562 12.28125 17.042969 12.464844 17.378906 12.832031 C 17.722656 13.199219 17.894531 13.675781 17.894531 14.261719 C 17.894531 14.886719 17.726562 15.386719 17.390625 15.761719 C 17.0625 16.128906 16.613281 16.3125 16.042969 16.3125 Z M 16.042969 16.3125 "/>
</g>
</svg>
