<?xml version="1.0" encoding="UTF-8"?>
<svg xmlns="http://www.w3.org/2000/svg" xmlns:xlink="http://www.w3.org/1999/xlink" width="24" height="25.5" viewBox="0 0 24 25.5" version="1.1">
<g id="surface1">
<path style=" stroke:none;fill-rule:nonzero;fill:rgb(100%,100%,100%);fill-opacity:1;" d="M 12 24.492188 C 13.632812 24.492188 15.167969 24.179688 16.605469 23.554688 C 18.050781 22.929688 19.324219 22.066406 20.425781 20.964844 C 21.527344 19.863281 22.390625 18.59375 23.015625 17.15625 C 23.640625 15.710938 23.953125 14.171875 23.953125 12.539062 C 23.953125 10.90625 23.640625 9.371094 23.015625 7.933594 C 22.390625 6.488281 21.527344 5.214844 20.425781 4.113281 C 19.324219 3.011719 18.050781 2.148438 16.605469 1.523438 C 15.160156 0.898438 13.621094 0.585938 11.988281 0.585938 C 10.355469 0.585938 8.816406 0.898438 7.371094 1.523438 C 5.933594 2.148438 4.664062 3.011719 3.5625 4.113281 C 2.46875 5.214844 1.609375 6.488281 0.984375 7.933594 C 0.359375 9.371094 0.046875 10.90625 0.046875 12.539062 C 0.046875 14.171875 0.359375 15.710938 0.984375 17.15625 C 1.609375 18.59375 2.472656 19.863281 3.574219 20.964844 C 4.675781 22.066406 5.945312 22.929688 7.382812 23.554688 C 8.828125 24.179688 10.367188 24.492188 12 24.492188 Z M 8.121094 17.753906 C 7.300781 17.753906 6.59375 17.539062 6 17.109375 C 5.414062 16.679688 5.039062 16.1875 4.875 15.632812 C 4.851562 15.554688 4.835938 15.484375 4.828125 15.421875 C 4.820312 15.351562 4.816406 15.273438 4.816406 15.1875 C 4.816406 14.976562 4.882812 14.804688 5.015625 14.671875 C 5.148438 14.53125 5.316406 14.460938 5.519531 14.460938 C 5.824219 14.460938 6.054688 14.652344 6.210938 15.035156 C 6.375 15.457031 6.617188 15.78125 6.9375 16.007812 C 7.257812 16.234375 7.660156 16.347656 8.144531 16.347656 C 8.722656 16.347656 9.191406 16.191406 9.550781 15.878906 C 9.917969 15.566406 10.101562 15.175781 10.101562 14.707031 C 10.101562 14.214844 9.929688 13.820312 9.585938 13.523438 C 9.242188 13.226562 8.789062 13.078125 8.226562 13.078125 L 7.511719 13.078125 C 7.316406 13.078125 7.15625 13.011719 7.03125 12.878906 C 6.90625 12.746094 6.84375 12.582031 6.84375 12.386719 C 6.84375 12.167969 6.90625 11.992188 7.03125 11.859375 C 7.15625 11.726562 7.316406 11.660156 7.511719 11.660156 L 8.167969 11.660156 C 8.644531 11.660156 9.03125 11.519531 9.328125 11.238281 C 9.632812 10.949219 9.785156 10.585938 9.785156 10.148438 C 9.785156 9.726562 9.636719 9.386719 9.339844 9.128906 C 9.042969 8.863281 8.65625 8.730469 8.179688 8.730469 C 7.703125 8.730469 7.316406 8.84375 7.019531 9.070312 C 6.730469 9.296875 6.515625 9.621094 6.375 10.042969 C 6.320312 10.238281 6.238281 10.382812 6.128906 10.476562 C 6.027344 10.570312 5.886719 10.617188 5.707031 10.617188 C 5.496094 10.617188 5.328125 10.550781 5.203125 10.417969 C 5.078125 10.277344 5.015625 10.097656 5.015625 9.878906 C 5.015625 9.699219 5.023438 9.554688 5.039062 9.445312 C 5.203125 8.851562 5.566406 8.351562 6.128906 7.945312 C 6.699219 7.53125 7.394531 7.324219 8.214844 7.324219 C 9.121094 7.324219 9.859375 7.570312 10.429688 8.0625 C 11 8.546875 11.285156 9.175781 11.285156 9.949219 C 11.285156 10.519531 11.113281 11.027344 10.769531 11.472656 C 10.425781 11.917969 10.003906 12.179688 9.503906 12.257812 L 9.503906 12.328125 C 10.113281 12.390625 10.617188 12.652344 11.015625 13.113281 C 11.414062 13.574219 11.613281 14.128906 11.613281 14.777344 C 11.613281 15.644531 11.289062 16.359375 10.640625 16.921875 C 9.992188 17.476562 9.152344 17.753906 8.121094 17.753906 Z M 14.71875 17.613281 C 14.484375 17.613281 14.289062 17.539062 14.132812 17.390625 C 13.976562 17.242188 13.898438 17.054688 13.898438 16.828125 C 13.898438 16.710938 13.90625 16.613281 13.921875 16.535156 C 13.945312 16.449219 13.984375 16.359375 14.039062 16.265625 L 17.765625 9.023438 L 17.765625 8.929688 L 13.535156 8.929688 C 13.324219 8.929688 13.152344 8.871094 13.019531 8.753906 C 12.894531 8.628906 12.832031 8.464844 12.832031 8.261719 C 12.832031 8.050781 12.894531 7.882812 13.019531 7.757812 C 13.152344 7.632812 13.324219 7.570312 13.535156 7.570312 L 18.410156 7.570312 C 18.730469 7.570312 18.988281 7.675781 19.183594 7.886719 C 19.378906 8.089844 19.476562 8.335938 19.476562 8.625 C 19.476562 8.75 19.460938 8.878906 19.429688 9.011719 C 19.40625 9.136719 19.351562 9.296875 19.265625 9.492188 L 15.480469 17.015625 C 15.378906 17.226562 15.265625 17.378906 15.140625 17.472656 C 15.015625 17.566406 14.875 17.613281 14.71875 17.613281 Z M 14.71875 17.613281 "/>
</g>
</svg>
