<svg width="128" height="128" viewBox="0 0 128 128" fill="none" xmlns="http://www.w3.org/2000/svg">
<path d="M63.9375 127.625C72.6458 127.625 80.8333 125.958 88.5 122.625C96.2083 119.292 103 114.688 108.875 108.812C114.75 102.938 119.354 96.1667 122.688 88.5C126.021 80.7917 127.688 72.5833 127.688 63.875C127.688 55.1667 126.021 46.9792 122.688 39.3125C119.354 31.6042 114.75 24.8125 108.875 18.9375C103 13.0625 96.2083 8.45833 88.5 5.125C80.7917 1.79167 72.5833 0.125 63.875 0.125C55.1667 0.125 46.9583 1.79167 39.25 5.125C31.5833 8.45833 24.8125 13.0625 18.9375 18.9375C13.1042 24.8125 8.52083 31.6042 5.1875 39.3125C1.85417 46.9792 0.1875 55.1667 0.1875 63.875C0.1875 72.5833 1.85417 80.7917 5.1875 88.5C8.52083 96.1667 13.125 102.938 19 108.812C24.875 114.688 31.6458 119.292 39.3125 122.625C47.0208 125.958 55.2292 127.625 63.9375 127.625ZM42.9375 90.8125C38.6875 90.8125 35.0208 89.7083 31.9375 87.5C28.8958 85.2917 26.9583 82.75 26.125 79.875C26 79.4583 25.9167 79.0833 25.875 78.75C25.8333 78.4167 25.8125 78.0208 25.8125 77.5625C25.8125 76.4792 26.1458 75.5833 26.8125 74.875C27.5208 74.1667 28.3958 73.8125 29.4375 73.8125C31.0625 73.8125 32.25 74.8125 33 76.8125C33.8333 78.9792 35.0833 80.6667 36.75 81.875C38.4583 83.0417 40.5417 83.625 43 83.625C46 83.625 48.4375 82.8125 50.3125 81.1875C52.2292 79.5208 53.1875 77.4792 53.1875 75.0625C53.1875 72.5208 52.2917 70.4792 50.5 68.9375C48.75 67.3958 46.3958 66.625 43.4375 66.625H39.75C38.7083 66.625 37.875 66.2917 37.25 65.625C36.625 64.9167 36.3125 64.0625 36.3125 63.0625C36.3125 61.9375 36.625 61.0417 37.25 60.375C37.9167 59.7083 38.75 59.375 39.75 59.375H43.125C45.625 59.375 47.6458 58.6458 49.1875 57.1875C50.7708 55.6875 51.5625 53.7917 51.5625 51.5C51.5625 49.2917 50.7708 47.5208 49.1875 46.1875C47.6458 44.8125 45.6458 44.125 43.1875 44.125C40.7292 44.125 38.7292 44.7083 37.1875 45.875C35.6875 47.0417 34.5833 48.7292 33.875 50.9375C33.5833 51.9375 33.1667 52.6875 32.625 53.1875C32.0833 53.6875 31.3542 53.9375 30.4375 53.9375C29.3542 53.9375 28.4792 53.5833 27.8125 52.875C27.1875 52.1667 26.875 51.25 26.875 50.125C26.875 49.2083 26.9167 48.4583 27 47.875C27.8333 44.8333 29.7083 42.25 32.625 40.125C35.5417 38 39.125 36.9375 43.375 36.9375C48.0417 36.9375 51.8542 38.2083 54.8125 40.75C57.7708 43.25 59.25 46.5 59.25 50.5C59.25 53.4167 58.3542 56.0417 56.5625 58.375C54.8125 60.6667 52.6458 62.0208 50.0625 62.4375V62.8125C53.1875 63.1042 55.7708 64.4583 57.8125 66.875C59.8958 69.25 60.9375 72.1042 60.9375 75.4375C60.9375 79.9375 59.25 83.625 55.875 86.5C52.5417 89.375 48.2292 90.8125 42.9375 90.8125ZM86.0625 90.8125C80.6458 90.8125 76.2708 89.4167 72.9375 86.625C69.6458 83.7917 68 80.1042 68 75.5625C68 72.3542 68.9167 69.5625 70.75 67.1875C72.625 64.7708 75.25 63.2292 78.625 62.5625V62.1875C75.7083 61.3542 73.5 59.9167 72 57.875C70.5417 55.7917 69.8125 53.3958 69.8125 50.6875C69.8125 46.6042 71.3333 43.2917 74.375 40.75C77.4583 38.2083 81.3958 36.9375 86.1875 36.9375C90.9792 36.9375 94.8958 38.2083 97.9375 40.75C100.979 43.2917 102.5 46.6042 102.5 50.6875C102.5 53.3958 101.75 55.8125 100.25 57.9375C98.75 60.0208 96.5625 61.4375 93.6875 62.1875V62.5625C97.0625 63.2292 99.6667 64.75 101.5 67.125C103.375 69.5 104.312 72.2917 104.312 75.5C104.312 80.0417 102.625 83.7292 99.25 86.5625C95.875 89.3958 91.4792 90.8125 86.0625 90.8125ZM86.25 84.3125C89.1667 84.3125 91.5833 83.4583 93.5 81.75C95.4583 80 96.4375 77.75 96.4375 75C96.4375 72.2917 95.4792 70.0625 93.5625 68.3125C91.6875 66.5625 89.25 65.6875 86.25 65.6875C83.25 65.6875 80.7708 66.5625 78.8125 68.3125C76.8958 70.0625 75.9375 72.2917 75.9375 75C75.9375 77.75 76.8958 80 78.8125 81.75C80.7708 83.4583 83.25 84.3125 86.25 84.3125ZM86.1875 59.6875C88.6042 59.6875 90.5833 58.9167 92.125 57.375C93.7083 55.7917 94.5 53.8125 94.5 51.4375C94.5 49.0625 93.7083 47.1458 92.125 45.6875C90.5833 44.1875 88.6042 43.4375 86.1875 43.4375C83.7292 43.4375 81.7083 44.1875 80.125 45.6875C78.5833 47.1458 77.8125 49.0625 77.8125 51.4375C77.8125 53.8125 78.5833 55.7917 80.125 57.375C81.7083 58.9167 83.7292 59.6875 86.1875 59.6875Z" fill="white"/>
</svg>
