<svg width="16" height="17" viewBox="0 0 16 17" fill="none" xmlns="http://www.w3.org/2000/svg">
<path d="M8 16.3281C9.08854 16.3281 10.112 16.1198 11.0703 15.7031C12.0339 15.2865 12.8828 14.7109 13.6172 13.9766C14.3516 13.2422 14.9271 12.3958 15.3438 11.4375C15.7604 10.474 15.9688 9.44792 15.9688 8.35938C15.9688 7.27083 15.7604 6.2474 15.3438 5.28906C14.9271 4.32552 14.3516 3.47656 13.6172 2.74219C12.8828 2.00781 12.0339 1.43229 11.0703 1.01562C10.1068 0.598958 9.08073 0.390625 7.99219 0.390625C6.90365 0.390625 5.8776 0.598958 4.91406 1.01562C3.95573 1.43229 3.10938 2.00781 2.375 2.74219C1.64583 3.47656 1.07292 4.32552 0.65625 5.28906C0.239583 6.2474 0.03125 7.27083 0.03125 8.35938C0.03125 9.44792 0.239583 10.474 0.65625 11.4375C1.07292 12.3958 1.64844 13.2422 2.38281 13.9766C3.11719 14.7109 3.96354 15.2865 4.92188 15.7031C5.88542 16.1198 6.91146 16.3281 8 16.3281ZM5.375 11.7266C4.84375 11.7266 4.38542 11.5885 4 11.3125C3.61979 11.0365 3.3776 10.7188 3.27344 10.3594C3.25781 10.3073 3.2474 10.2604 3.24219 10.2188C3.23698 10.1771 3.23438 10.1276 3.23438 10.0703C3.23438 9.9349 3.27604 9.82292 3.35938 9.73438C3.44792 9.64583 3.55729 9.60156 3.6875 9.60156C3.89062 9.60156 4.03906 9.72656 4.13281 9.97656C4.23698 10.2474 4.39323 10.4583 4.60156 10.6094C4.8151 10.7552 5.07552 10.8281 5.38281 10.8281C5.75781 10.8281 6.0625 10.7266 6.29688 10.5234C6.53646 10.3151 6.65625 10.0599 6.65625 9.75781C6.65625 9.4401 6.54427 9.1849 6.32031 8.99219C6.10156 8.79948 5.80729 8.70312 5.4375 8.70312H4.97656C4.84635 8.70312 4.74219 8.66146 4.66406 8.57812C4.58594 8.48958 4.54688 8.38281 4.54688 8.25781C4.54688 8.11719 4.58594 8.00521 4.66406 7.92188C4.7474 7.83854 4.85156 7.79688 4.97656 7.79688H5.39844C5.71094 7.79688 5.96354 7.70573 6.15625 7.52344C6.35417 7.33594 6.45312 7.09896 6.45312 6.8125C6.45312 6.53646 6.35417 6.3151 6.15625 6.14844C5.96354 5.97656 5.71354 5.89062 5.40625 5.89062C5.09896 5.89062 4.84896 5.96354 4.65625 6.10938C4.46875 6.25521 4.33073 6.46615 4.24219 6.74219C4.20573 6.86719 4.15365 6.96094 4.08594 7.02344C4.01823 7.08594 3.92708 7.11719 3.8125 7.11719C3.67708 7.11719 3.56771 7.07292 3.48438 6.98438C3.40625 6.89583 3.36719 6.78125 3.36719 6.64062C3.36719 6.52604 3.3724 6.43229 3.38281 6.35938C3.48698 5.97917 3.72135 5.65625 4.08594 5.39062C4.45052 5.125 4.89844 4.99219 5.42969 4.99219C6.01302 4.99219 6.48958 5.15104 6.85938 5.46875C7.22917 5.78125 7.41406 6.1875 7.41406 6.6875C7.41406 7.05208 7.30208 7.38021 7.07812 7.67188C6.85938 7.95833 6.58854 8.1276 6.26562 8.17969V8.22656C6.65625 8.26302 6.97917 8.43229 7.23438 8.73438C7.49479 9.03125 7.625 9.38802 7.625 9.80469C7.625 10.3672 7.41406 10.8281 6.99219 11.1875C6.57552 11.5469 6.03646 11.7266 5.375 11.7266ZM10.7656 11.7266C10.0885 11.7266 9.54167 11.5521 9.125 11.2031C8.71354 10.849 8.50781 10.388 8.50781 9.82031C8.50781 9.41927 8.6224 9.07031 8.85156 8.77344C9.08594 8.47135 9.41406 8.27865 9.83594 8.19531V8.14844C9.47135 8.04427 9.19531 7.86458 9.00781 7.60938C8.82552 7.34896 8.73438 7.04948 8.73438 6.71094C8.73438 6.20052 8.92448 5.78646 9.30469 5.46875C9.6901 5.15104 10.1823 4.99219 10.7812 4.99219C11.3802 4.99219 11.8698 5.15104 12.25 5.46875C12.6302 5.78646 12.8203 6.20052 12.8203 6.71094C12.8203 7.04948 12.7266 7.35156 12.5391 7.61719C12.3516 7.8776 12.0781 8.05469 11.7188 8.14844V8.19531C12.1406 8.27865 12.4661 8.46875 12.6953 8.76562C12.9297 9.0625 13.0469 9.41146 13.0469 9.8125C13.0469 10.3802 12.8359 10.8411 12.4141 11.1953C11.9922 11.5495 11.4427 11.7266 10.7656 11.7266ZM10.7891 10.9141C11.1536 10.9141 11.4557 10.8073 11.6953 10.5938C11.9401 10.375 12.0625 10.0938 12.0625 9.75C12.0625 9.41146 11.9427 9.13281 11.7031 8.91406C11.4688 8.69531 11.1641 8.58594 10.7891 8.58594C10.4141 8.58594 10.1042 8.69531 9.85938 8.91406C9.61979 9.13281 9.5 9.41146 9.5 9.75C9.5 10.0938 9.61979 10.375 9.85938 10.5938C10.1042 10.8073 10.4141 10.9141 10.7891 10.9141ZM10.7812 7.83594C11.0833 7.83594 11.3307 7.73958 11.5234 7.54688C11.7214 7.34896 11.8203 7.10156 11.8203 6.80469C11.8203 6.50781 11.7214 6.26823 11.5234 6.08594C11.3307 5.89844 11.0833 5.80469 10.7812 5.80469C10.474 5.80469 10.2214 5.89844 10.0234 6.08594C9.83073 6.26823 9.73438 6.50781 9.73438 6.80469C9.73438 7.10156 9.83073 7.34896 10.0234 7.54688C10.2214 7.73958 10.474 7.83594 10.7812 7.83594Z" fill="white"/>
</svg>
