<svg width="16" height="15" viewBox="0 0 16 15" fill="none" xmlns="http://www.w3.org/2000/svg">
<path d="M3.25781 14.5625H12.7344C13.5521 14.5625 14.1641 14.3594 14.5703 13.9531C14.9818 13.5521 15.1875 12.9479 15.1875 12.1406V2.60156C15.1875 1.79427 14.9818 1.1901 14.5703 0.789062C14.1641 0.382812 13.5521 0.179688 12.7344 0.179688H3.25781C2.4401 0.179688 1.82552 0.382812 1.41406 0.789062C1.00781 1.1901 0.804688 1.79427 0.804688 2.60156V12.1406C0.804688 12.9479 1.00781 13.5521 1.41406 13.9531C1.82552 14.3594 2.4401 14.5625 3.25781 14.5625ZM4.92969 8.85156C4.92969 8.76823 4.9401 8.6849 4.96094 8.60156C4.98177 8.51302 5.01562 8.42708 5.0625 8.34375C5.35417 7.83854 5.63542 7.34375 5.90625 6.85938C6.18229 6.375 6.45573 5.89323 6.72656 5.41406C7.0026 4.92969 7.28385 4.4375 7.57031 3.9375C7.64323 3.80208 7.72656 3.70312 7.82031 3.64062C7.91406 3.57812 8.02344 3.54688 8.14844 3.54688C8.33073 3.54688 8.47135 3.60677 8.57031 3.72656C8.66927 3.84115 8.71875 3.97917 8.71875 4.14062C8.71875 4.20312 8.70833 4.26562 8.6875 4.32812C8.66667 4.39062 8.64062 4.45573 8.60938 4.52344C8.35938 4.98177 8.11458 5.42708 7.875 5.85938C7.63542 6.28646 7.39583 6.71354 7.15625 7.14062C6.92188 7.56771 6.68229 8.00521 6.4375 8.45312H8.67188V6.71875C8.67188 6.50521 8.72396 6.33854 8.82812 6.21875C8.93229 6.09896 9.07552 6.03906 9.25781 6.03906C9.45052 6.03906 9.59896 6.09896 9.70312 6.21875C9.80729 6.33333 9.85938 6.5 9.85938 6.71875V8.45312H10.3984C10.5755 8.45312 10.7161 8.5 10.8203 8.59375C10.9245 8.6875 10.9766 8.8125 10.9766 8.96875C10.9766 9.13542 10.9245 9.27083 10.8203 9.375C10.7161 9.47396 10.5755 9.52344 10.3984 9.52344H9.85938V10.3516C9.85938 10.5703 9.80729 10.7396 9.70312 10.8594C9.59896 10.974 9.45052 11.0312 9.25781 11.0312C9.07552 11.0312 8.93229 10.9714 8.82812 10.8516C8.72396 10.7318 8.67188 10.5651 8.67188 10.3516V9.52344H5.64062C5.42188 9.52344 5.2474 9.46354 5.11719 9.34375C4.99219 9.21875 4.92969 9.05469 4.92969 8.85156Z" fill="white"/>
</svg>
