<svg xmlns="http://www.w3.org/2000/svg" width="24" height="24"><path style="stroke:none;fill-rule:nonzero;fill:#fff;fill-opacity:1" d="M4.887 23.3h14.215c1.226 0 2.144-.323 2.753-.976.618-.64.926-1.605.926-2.898V4.164c0-1.293-.308-2.258-.926-2.898-.609-.653-1.527-.977-2.753-.977H4.887c-1.227 0-2.149.324-2.766.977-.61.64-.914 1.605-.914 2.898v15.262c0 1.293.305 2.258.914 2.902.617.649 1.54.973 2.766.973Zm.023-2.01c-.586 0-1.035-.165-1.348-.49-.312-.335-.468-.823-.468-1.476V4.262c0-.649.156-1.137.469-1.461.312-.336.761-.5 1.347-.5h14.168c.578 0 1.024.164 1.336.5.32.324.48.812.48 1.46v15.063c0 .653-.16 1.14-.48 1.477-.312.324-.758.488-1.336.488Zm2.625-7.204c0 .316.09.57.27.766.187.183.441.273.761.273h4.407v1.29c0 .323.074.581.222.773.157.183.367.273.633.273.274 0 .488-.09.645-.273.156-.184.234-.442.234-.774v-1.289h.773c.266 0 .473-.078.622-.238a.88.88 0 0 0 .222-.625.75.75 0 0 0-.222-.563c-.149-.148-.356-.222-.622-.222h-.773v-2.7c0-.343-.078-.601-.234-.777-.157-.184-.371-.273-.645-.273-.265 0-.476.09-.633.273-.148.184-.222.441-.222.777v2.696H9.715c.351-.696.7-1.375 1.043-2.036l1.055-2c.351-.675.707-1.367 1.066-2.074.047-.101.086-.195.117-.289a.963.963 0 0 0 .047-.297c.004-.234-.07-.46-.211-.64-.14-.184-.348-.274-.621-.274a.753.753 0 0 0-.469.149 1.254 1.254 0 0 0-.363.453c-.414.773-.82 1.535-1.219 2.285L8.965 11c-.399.75-.809 1.516-1.23 2.3-.07.126-.122.255-.153.387a1.734 1.734 0 0 0-.047.399Zm0 0"/></svg>