<svg width="116" height="116" viewBox="0 0 116 116" fill="none" xmlns="http://www.w3.org/2000/svg">
<path d="M20.5625 115.5H96.375C102.917 115.5 107.812 113.875 111.062 110.625C114.354 107.417 116 102.583 116 96.125V19.8125C116 13.3542 114.354 8.52083 111.062 5.3125C107.812 2.0625 102.917 0.4375 96.375 0.4375H20.5625C14.0208 0.4375 9.10417 2.0625 5.8125 5.3125C2.5625 8.52083 0.9375 13.3542 0.9375 19.8125V96.125C0.9375 102.583 2.5625 107.417 5.8125 110.625C9.10417 113.875 14.0208 115.5 20.5625 115.5ZM20.6875 105.438C17.5625 105.438 15.1667 104.625 13.5 103C11.8333 101.333 11 98.875 11 95.625V20.3125C11 17.0625 11.8333 14.625 13.5 13C15.1667 11.3333 17.5625 10.5 20.6875 10.5H96.25C99.3333 10.5 101.708 11.3333 103.375 13C105.083 14.625 105.938 17.0625 105.938 20.3125V95.625C105.938 98.875 105.083 101.333 103.375 103C101.708 104.625 99.3333 105.438 96.25 105.438H20.6875ZM34.6875 69.4375C34.6875 71.0208 35.1667 72.2917 36.125 73.25C37.125 74.1667 38.4792 74.625 40.1875 74.625H63.6875V81.0625C63.6875 82.6875 64.0833 83.9792 64.875 84.9375C65.7083 85.8542 66.8333 86.3125 68.25 86.3125C69.7083 86.3125 70.8542 85.8542 71.6875 84.9375C72.5208 84.0208 72.9375 82.7292 72.9375 81.0625V74.625H77.0625C78.4792 74.625 79.5833 74.2292 80.375 73.4375C81.1667 72.6458 81.5625 71.6042 81.5625 70.3125C81.5625 69.1458 81.1667 68.2083 80.375 67.5C79.5833 66.75 78.4792 66.375 77.0625 66.375H72.9375V52.875C72.9375 51.1667 72.5208 49.875 71.6875 49C70.8542 48.0833 69.7083 47.625 68.25 47.625C66.8333 47.625 65.7083 48.0833 64.875 49C64.0833 49.9167 63.6875 51.2083 63.6875 52.875V66.375H46.3125C48.1875 62.875 50.0417 59.4792 51.875 56.1875C53.75 52.8542 55.625 49.5208 57.5 46.1875C59.375 42.8125 61.2708 39.3542 63.1875 35.8125C63.4375 35.3125 63.6458 34.8333 63.8125 34.375C63.9792 33.875 64.0625 33.375 64.0625 32.875C64.0625 31.625 63.6875 30.5625 62.9375 29.6875C62.1875 28.7708 61.0833 28.3125 59.625 28.3125C58.6667 28.3125 57.8333 28.5625 57.125 29.0625C56.4167 29.5208 55.7708 30.2708 55.1875 31.3125C52.9792 35.1875 50.8125 39 48.6875 42.75C46.5625 46.5 44.4375 50.25 42.3125 54C40.1875 57.75 38 61.5833 35.75 65.5C35.375 66.125 35.1042 66.7708 34.9375 67.4375C34.7708 68.1042 34.6875 68.7708 34.6875 69.4375Z" fill="white"/>
</svg>
