<?xml version="1.0" encoding="UTF-8"?>
<svg xmlns="http://www.w3.org/2000/svg" xmlns:xlink="http://www.w3.org/1999/xlink" width="24" height="25.5" viewBox="0 0 24 25.5" version="1.1">
<g id="surface1">
<path style=" stroke:none;fill-rule:nonzero;fill:rgb(100%,100%,100%);fill-opacity:1;" d="M 12 24.492188 C 13.632812 24.492188 15.167969 24.179688 16.605469 23.554688 C 18.050781 22.929688 19.324219 22.066406 20.425781 20.964844 C 21.527344 19.863281 22.390625 18.59375 23.015625 17.15625 C 23.640625 15.710938 23.953125 14.171875 23.953125 12.539062 C 23.953125 10.90625 23.640625 9.371094 23.015625 7.933594 C 22.390625 6.488281 21.527344 5.214844 20.425781 4.113281 C 19.324219 3.011719 18.050781 2.148438 16.605469 1.523438 C 15.160156 0.898438 13.621094 0.585938 11.988281 0.585938 C 10.355469 0.585938 8.816406 0.898438 7.371094 1.523438 C 5.933594 2.148438 4.664062 3.011719 3.5625 4.113281 C 2.46875 5.214844 1.609375 6.488281 0.984375 7.933594 C 0.359375 9.371094 0.046875 10.90625 0.046875 12.539062 C 0.046875 14.171875 0.359375 15.710938 0.984375 17.15625 C 1.609375 18.59375 2.472656 19.863281 3.574219 20.964844 C 4.675781 22.066406 5.945312 22.929688 7.382812 23.554688 C 8.828125 24.179688 10.367188 24.492188 12 24.492188 Z M 7.394531 14.777344 C 7.394531 14.652344 7.410156 14.527344 7.441406 14.402344 C 7.472656 14.269531 7.523438 14.140625 7.59375 14.015625 C 8.03125 13.257812 8.453125 12.515625 8.859375 11.789062 C 9.273438 11.0625 9.683594 10.339844 10.089844 9.621094 C 10.503906 8.894531 10.925781 8.15625 11.355469 7.40625 C 11.464844 7.203125 11.589844 7.054688 11.730469 6.960938 C 11.871094 6.867188 12.035156 6.820312 12.222656 6.820312 C 12.496094 6.820312 12.707031 6.910156 12.855469 7.089844 C 13.003906 7.261719 13.078125 7.46875 13.078125 7.710938 C 13.078125 7.804688 13.0625 7.898438 13.03125 7.992188 C 13 8.085938 12.960938 8.183594 12.914062 8.285156 C 12.539062 8.972656 12.171875 9.640625 11.8125 10.289062 C 11.453125 10.929688 11.09375 11.570312 10.734375 12.210938 C 10.382812 12.851562 10.023438 13.507812 9.65625 14.179688 L 13.007812 14.179688 L 13.007812 11.578125 C 13.007812 11.257812 13.085938 11.007812 13.242188 10.828125 C 13.398438 10.648438 13.613281 10.558594 13.886719 10.558594 C 14.175781 10.558594 14.398438 10.648438 14.554688 10.828125 C 14.710938 11 14.789062 11.25 14.789062 11.578125 L 14.789062 14.179688 L 15.597656 14.179688 C 15.863281 14.179688 16.074219 14.25 16.230469 14.390625 C 16.386719 14.53125 16.464844 14.71875 16.464844 14.953125 C 16.464844 15.203125 16.386719 15.40625 16.230469 15.5625 C 16.074219 15.710938 15.863281 15.785156 15.597656 15.785156 L 14.789062 15.785156 L 14.789062 17.027344 C 14.789062 17.355469 14.710938 17.609375 14.554688 17.789062 C 14.398438 17.960938 14.175781 18.046875 13.886719 18.046875 C 13.613281 18.046875 13.398438 17.957031 13.242188 17.777344 C 13.085938 17.597656 13.007812 17.347656 13.007812 17.027344 L 13.007812 15.785156 L 8.460938 15.785156 C 8.132812 15.785156 7.871094 15.695312 7.675781 15.515625 C 7.488281 15.328125 7.394531 15.082031 7.394531 14.777344 Z M 7.394531 14.777344 "/>
</g>
</svg>
