<?xml version="1.0" encoding="UTF-8"?>
<svg xmlns="http://www.w3.org/2000/svg" xmlns:xlink="http://www.w3.org/1999/xlink" width="24" height="25.5" viewBox="0 0 24 25.5" version="1.1">
<g id="surface1">
<path style=" stroke:none;fill-rule:nonzero;fill:rgb(100%,100%,100%);fill-opacity:1;" d="M 12 24.492188 C 13.632812 24.492188 15.167969 24.179688 16.605469 23.554688 C 18.050781 22.929688 19.324219 22.066406 20.425781 20.964844 C 21.527344 19.863281 22.390625 18.59375 23.015625 17.15625 C 23.640625 15.710938 23.953125 14.171875 23.953125 12.539062 C 23.953125 10.90625 23.640625 9.371094 23.015625 7.933594 C 22.390625 6.488281 21.527344 5.214844 20.425781 4.113281 C 19.324219 3.011719 18.050781 2.148438 16.605469 1.523438 C 15.160156 0.898438 13.621094 0.585938 11.988281 0.585938 C 10.355469 0.585938 8.816406 0.898438 7.371094 1.523438 C 5.933594 2.148438 4.664062 3.011719 3.5625 4.113281 C 2.46875 5.214844 1.609375 6.488281 0.984375 7.933594 C 0.359375 9.371094 0.046875 10.90625 0.046875 12.539062 C 0.046875 14.171875 0.359375 15.710938 0.984375 17.15625 C 1.609375 18.59375 2.472656 19.863281 3.574219 20.964844 C 4.675781 22.066406 5.945312 22.929688 7.382812 23.554688 C 8.828125 24.179688 10.367188 24.492188 12 24.492188 Z M 12 22.5 C 10.617188 22.5 9.324219 22.242188 8.121094 21.726562 C 6.917969 21.210938 5.859375 20.5 4.945312 19.59375 C 4.039062 18.679688 3.328125 17.621094 2.8125 16.417969 C 2.304688 15.214844 2.050781 13.921875 2.050781 12.539062 C 2.050781 11.15625 2.304688 9.863281 2.8125 8.660156 C 3.328125 7.457031 4.039062 6.398438 4.945312 5.484375 C 5.851562 4.570312 6.90625 3.859375 8.109375 3.351562 C 9.3125 2.835938 10.605469 2.578125 11.988281 2.578125 C 13.371094 2.578125 14.664062 2.835938 15.867188 3.351562 C 17.078125 3.859375 18.136719 4.570312 19.042969 5.484375 C 19.957031 6.398438 20.671875 7.457031 21.1875 8.660156 C 21.703125 9.863281 21.960938 11.15625 21.960938 12.539062 C 21.960938 13.921875 21.703125 15.214844 21.1875 16.417969 C 20.679688 17.621094 19.96875 18.679688 19.054688 19.59375 C 18.140625 20.5 17.082031 21.210938 15.878906 21.726562 C 14.675781 22.242188 13.382812 22.5 12 22.5 Z M 7.523438 14.707031 C 7.523438 15.003906 7.613281 15.242188 7.792969 15.421875 C 7.980469 15.59375 8.234375 15.679688 8.554688 15.679688 L 12.960938 15.679688 L 12.960938 16.886719 C 12.960938 17.191406 13.035156 17.433594 13.183594 17.613281 C 13.339844 17.785156 13.550781 17.871094 13.816406 17.871094 C 14.089844 17.871094 14.304688 17.785156 14.460938 17.613281 C 14.617188 17.441406 14.695312 17.199219 14.695312 16.886719 L 14.695312 15.679688 L 15.46875 15.679688 C 15.734375 15.679688 15.941406 15.605469 16.089844 15.457031 C 16.238281 15.308594 16.3125 15.113281 16.3125 14.871094 C 16.3125 14.652344 16.238281 14.476562 16.089844 14.34375 C 15.941406 14.203125 15.734375 14.132812 15.46875 14.132812 L 14.695312 14.132812 L 14.695312 11.601562 C 14.695312 11.28125 14.617188 11.039062 14.460938 10.875 C 14.304688 10.703125 14.089844 10.617188 13.816406 10.617188 C 13.550781 10.617188 13.339844 10.703125 13.183594 10.875 C 13.035156 11.046875 12.960938 11.289062 12.960938 11.601562 L 12.960938 14.132812 L 9.703125 14.132812 C 10.054688 13.476562 10.402344 12.839844 10.746094 12.222656 C 11.097656 11.597656 11.449219 10.972656 11.800781 10.347656 C 12.152344 9.714844 12.507812 9.066406 12.867188 8.402344 C 12.914062 8.308594 12.953125 8.21875 12.984375 8.132812 C 13.015625 8.039062 13.03125 7.945312 13.03125 7.851562 C 13.03125 7.617188 12.960938 7.417969 12.820312 7.253906 C 12.679688 7.082031 12.472656 6.996094 12.199219 6.996094 C 12.019531 6.996094 11.863281 7.042969 11.730469 7.136719 C 11.597656 7.222656 11.476562 7.363281 11.367188 7.558594 C 10.953125 8.285156 10.546875 9 10.148438 9.703125 C 9.75 10.40625 9.351562 11.109375 8.953125 11.8125 C 8.554688 12.515625 8.144531 13.234375 7.722656 13.96875 C 7.652344 14.085938 7.601562 14.207031 7.570312 14.332031 C 7.539062 14.457031 7.523438 14.582031 7.523438 14.707031 Z M 7.523438 14.707031 "/>
</g>
</svg>
