<svg width="116" height="116" viewBox="0 0 116 116" fill="none" xmlns="http://www.w3.org/2000/svg">
<path d="M20.5625 115.5H96.375C102.917 115.5 107.812 113.875 111.062 110.625C114.354 107.417 116 102.583 116 96.125V19.8125C116 13.3542 114.354 8.52083 111.062 5.3125C107.812 2.0625 102.917 0.4375 96.375 0.4375H20.5625C14.0208 0.4375 9.10417 2.0625 5.8125 5.3125C2.5625 8.52083 0.9375 13.3542 0.9375 19.8125V96.125C0.9375 102.583 2.5625 107.417 5.8125 110.625C9.10417 113.875 14.0208 115.5 20.5625 115.5ZM20.6875 105.438C17.5625 105.438 15.1667 104.625 13.5 103C11.8333 101.333 11 98.875 11 95.625V20.3125C11 17.0625 11.8333 14.625 13.5 13C15.1667 11.3333 17.5625 10.5 20.6875 10.5H96.25C99.3333 10.5 101.708 11.3333 103.375 13C105.083 14.625 105.938 17.0625 105.938 20.3125V95.625C105.938 98.875 105.083 101.333 103.375 103C101.708 104.625 99.3333 105.438 96.25 105.438H20.6875ZM66.6875 86.3125C68.1875 86.3125 69.3333 85.8542 70.125 84.9375C70.9583 84.0208 71.375 82.7292 71.375 81.0625V74.6875H76.125C77.3333 74.6875 78.3125 74.3125 79.0625 73.5625C79.8542 72.8125 80.25 71.8333 80.25 70.625C80.25 69.4167 79.875 68.4375 79.125 67.6875C78.375 66.8958 77.375 66.5 76.125 66.5H71.375V34.6875C71.375 32.7292 70.6667 31.1458 69.25 29.9375C67.875 28.7292 66.0833 28.125 63.875 28.125C61.6667 28.125 59.8333 28.5417 58.375 29.375C56.9167 30.2083 55.5625 31.5625 54.3125 33.4375C52.6875 35.8958 51 38.4167 49.25 41C47.5417 43.5833 45.8333 46.1667 44.125 48.75C42.4167 51.3333 40.7708 53.8542 39.1875 56.3125C37.6042 58.7292 36.1667 61 34.875 63.125C34.25 64.125 33.8125 65.0625 33.5625 65.9375C33.3125 66.7708 33.1875 67.6458 33.1875 68.5625C33.1875 70.3958 33.7708 71.875 34.9375 73C36.1042 74.125 37.6875 74.6875 39.6875 74.6875H62.125V81.0625C62.125 82.6875 62.5208 83.9792 63.3125 84.9375C64.1458 85.8542 65.2708 86.3125 66.6875 86.3125ZM62.125 66.5H42.375V66.125C43.3333 64.5 44.3958 62.75 45.5625 60.875C46.7708 58.9583 48.0417 56.9792 49.375 54.9375C50.7083 52.8542 52.0625 50.75 53.4375 48.625C54.8542 46.5 56.25 44.3958 57.625 42.3125C59.0417 40.2292 60.3958 38.1875 61.6875 36.1875H62.125V66.5Z" fill="white"/>
</svg>
