<svg width="128" height="128" viewBox="0 0 128 128" fill="none" xmlns="http://www.w3.org/2000/svg">
<path d="M63.9375 127.625C72.6458 127.625 80.8333 125.958 88.5 122.625C96.2083 119.292 103 114.688 108.875 108.812C114.75 102.938 119.354 96.1667 122.688 88.5C126.021 80.7917 127.688 72.5833 127.688 63.875C127.688 55.1667 126.021 46.9792 122.688 39.3125C119.354 31.6042 114.75 24.8125 108.875 18.9375C103 13.0625 96.2083 8.45833 88.5 5.125C80.7917 1.79167 72.5833 0.125 63.875 0.125C55.1667 0.125 46.9583 1.79167 39.25 5.125C31.5833 8.45833 24.8125 13.0625 18.9375 18.9375C13.1042 24.8125 8.52083 31.6042 5.1875 39.3125C1.85417 46.9792 0.1875 55.1667 0.1875 63.875C0.1875 72.5833 1.85417 80.7917 5.1875 88.5C8.52083 96.1667 13.125 102.938 19 108.812C24.875 114.688 31.6458 119.292 39.3125 122.625C47.0208 125.958 55.2292 127.625 63.9375 127.625ZM63.9375 117C56.5625 117 49.6667 115.625 43.25 112.875C36.8333 110.125 31.1875 106.333 26.3125 101.5C21.4792 96.625 17.6875 90.9792 14.9375 84.5625C12.2292 78.1458 10.875 71.25 10.875 63.875C10.875 56.5 12.2292 49.6042 14.9375 43.1875C17.6875 36.7708 21.4792 31.125 26.3125 26.25C31.1458 21.375 36.7708 17.5833 43.1875 14.875C49.6042 12.125 56.5 10.75 63.875 10.75C71.25 10.75 78.1458 12.125 84.5625 14.875C91.0208 17.5833 96.6667 21.375 101.5 26.25C106.375 31.125 110.188 36.7708 112.938 43.1875C115.688 49.6042 117.062 56.5 117.062 63.875C117.062 71.25 115.688 78.1458 112.938 84.5625C110.229 90.9792 106.438 96.625 101.562 101.5C96.6875 106.333 91.0417 110.125 84.625 112.875C78.2083 115.625 71.3125 117 63.9375 117ZM51.3125 90.6875C52.5625 90.6875 53.5208 90.2917 54.1875 89.5C54.8542 88.7083 55.1875 87.7083 55.1875 86.5V79.125H58.5625C60.8958 79.125 62.0625 77.9792 62.0625 75.6875C62.0625 74.5625 61.7292 73.6875 61.0625 73.0625C60.4375 72.4375 59.6042 72.125 58.5625 72.125H55.1875V42.875C55.1875 41.0833 54.6042 39.6458 53.4375 38.5625C52.2708 37.4792 50.7917 36.9375 49 36.9375C47.1667 36.9375 45.6458 37.3125 44.4375 38.0625C43.2292 38.7708 42.125 40 41.125 41.75C39.8333 43.9583 38.4792 46.25 37.0625 48.625C35.6458 51 34.25 53.375 32.875 55.75C31.5 58.125 30.1667 60.4375 28.875 62.6875C27.5833 64.8958 26.4167 66.9375 25.375 68.8125C24.875 69.7708 24.5208 70.625 24.3125 71.375C24.1042 72.125 24 72.9375 24 73.8125C24 75.4792 24.5 76.7917 25.5 77.75C26.5 78.6667 27.7917 79.125 29.375 79.125H47.625V86.5C47.625 87.7083 47.9375 88.7083 48.5625 89.5C49.1875 90.2917 50.1042 90.6875 51.3125 90.6875ZM47.625 72.125H32.1875V71.875C32.8958 70.4583 33.7083 68.9167 34.625 67.25C35.5833 65.5417 36.5833 63.7708 37.625 61.9375C38.6667 60.1042 39.7292 58.25 40.8125 56.375C41.9375 54.4583 43.0417 52.5833 44.125 50.75C45.2083 48.875 46.25 47.0833 47.25 45.375H47.625V72.125ZM86.0625 90.8125C89.6458 90.8125 92.7708 89.7292 95.4375 87.5625C98.1458 85.3542 100.229 82.25 101.688 78.25C103.188 74.2083 103.938 69.4167 103.938 63.875C103.938 58.3333 103.188 53.5417 101.688 49.5C100.229 45.4583 98.1458 42.3542 95.4375 40.1875C92.7708 38.0208 89.6458 36.9375 86.0625 36.9375C82.4792 36.9375 79.3333 38.0208 76.625 40.1875C73.9583 42.3542 71.875 45.4583 70.375 49.5C68.9167 53.5417 68.1875 58.3333 68.1875 63.875C68.1875 69.4167 68.9167 74.2083 70.375 78.25C71.875 82.25 73.9583 85.3542 76.625 87.5625C79.3333 89.7292 82.4792 90.8125 86.0625 90.8125ZM86.0625 83.25C83.1042 83.25 80.75 81.5208 79 78.0625C77.25 74.6042 76.375 69.875 76.375 63.875C76.375 57.875 77.25 53.1458 79 49.6875C80.75 46.2292 83.1042 44.5 86.0625 44.5C89.0625 44.5 91.4167 46.2292 93.125 49.6875C94.875 53.1458 95.75 57.875 95.75 63.875C95.75 69.875 94.875 74.6042 93.125 78.0625C91.4167 81.5208 89.0625 83.25 86.0625 83.25Z" fill="white"/>
</svg>
