<?xml version="1.0" encoding="UTF-8"?>
<svg xmlns="http://www.w3.org/2000/svg" xmlns:xlink="http://www.w3.org/1999/xlink" width="24" height="22.5" viewBox="0 0 24 22.5" version="1.1">
<g id="surface1">
<path style=" stroke:none;fill-rule:nonzero;fill:rgb(100%,100%,100%);fill-opacity:1;" d="M 4.886719 21.84375 L 19.101562 21.84375 C 20.328125 21.84375 21.246094 21.539062 21.855469 20.929688 C 22.472656 20.328125 22.78125 19.421875 22.78125 18.210938 L 22.78125 3.902344 C 22.78125 2.691406 22.472656 1.785156 21.855469 1.183594 C 21.246094 0.574219 20.328125 0.269531 19.101562 0.269531 L 4.886719 0.269531 C 3.660156 0.269531 2.738281 0.574219 2.121094 1.183594 C 1.511719 1.785156 1.207031 2.691406 1.207031 3.902344 L 1.207031 18.210938 C 1.207031 19.421875 1.511719 20.328125 2.121094 20.929688 C 2.738281 21.539062 3.660156 21.84375 4.886719 21.84375 Z M 9.574219 16.230469 C 9.332031 16.230469 9.152344 16.152344 9.035156 15.996094 C 8.917969 15.839844 8.859375 15.644531 8.859375 15.410156 L 8.859375 13.992188 L 5.332031 13.992188 C 5.019531 13.992188 4.765625 13.902344 4.570312 13.722656 C 4.382812 13.535156 4.289062 13.28125 4.289062 12.960938 C 4.289062 12.796875 4.308594 12.640625 4.347656 12.492188 C 4.386719 12.34375 4.457031 12.175781 4.558594 11.988281 C 4.761719 11.621094 4.984375 11.226562 5.226562 10.804688 C 5.476562 10.375 5.734375 9.929688 6 9.46875 C 6.265625 9.007812 6.53125 8.546875 6.796875 8.085938 C 7.070312 7.625 7.335938 7.183594 7.59375 6.761719 C 7.789062 6.425781 8.003906 6.1875 8.238281 6.046875 C 8.472656 5.898438 8.765625 5.824219 9.117188 5.824219 C 9.46875 5.824219 9.757812 5.929688 9.984375 6.140625 C 10.210938 6.351562 10.324219 6.632812 10.324219 6.984375 L 10.324219 12.632812 L 10.96875 12.632812 C 11.171875 12.632812 11.335938 12.695312 11.460938 12.820312 C 11.585938 12.9375 11.648438 13.105469 11.648438 13.324219 C 11.648438 13.769531 11.421875 13.992188 10.96875 13.992188 L 10.324219 13.992188 L 10.324219 15.410156 C 10.324219 15.652344 10.257812 15.851562 10.125 16.007812 C 10 16.15625 9.816406 16.230469 9.574219 16.230469 Z M 8.859375 12.632812 L 8.859375 7.464844 L 8.777344 7.464844 C 8.589844 7.792969 8.390625 8.136719 8.179688 8.496094 C 7.96875 8.855469 7.757812 9.21875 7.546875 9.585938 C 7.335938 9.953125 7.128906 10.316406 6.925781 10.675781 C 6.730469 11.027344 6.542969 11.367188 6.363281 11.695312 C 6.183594 12.015625 6.023438 12.3125 5.882812 12.585938 L 5.882812 12.632812 Z M 16.289062 16.253906 C 15.601562 16.253906 14.996094 16.042969 14.472656 15.621094 C 13.957031 15.199219 13.554688 14.601562 13.265625 13.828125 C 12.976562 13.046875 12.832031 12.117188 12.832031 11.039062 C 12.832031 9.960938 12.976562 9.035156 13.265625 8.261719 C 13.554688 7.480469 13.957031 6.878906 14.472656 6.457031 C 14.996094 6.035156 15.601562 5.824219 16.289062 5.824219 C 16.984375 5.824219 17.589844 6.035156 18.105469 6.457031 C 18.628906 6.878906 19.03125 7.480469 19.3125 8.261719 C 19.601562 9.035156 19.746094 9.960938 19.746094 11.039062 C 19.746094 12.117188 19.601562 13.046875 19.3125 13.828125 C 19.03125 14.601562 18.628906 15.199219 18.105469 15.621094 C 17.589844 16.042969 16.984375 16.253906 16.289062 16.253906 Z M 16.289062 14.777344 C 16.875 14.777344 17.332031 14.445312 17.660156 13.78125 C 17.988281 13.109375 18.152344 12.195312 18.152344 11.039062 C 18.152344 9.882812 17.984375 8.972656 17.648438 8.308594 C 17.320312 7.636719 16.867188 7.300781 16.289062 7.300781 C 15.710938 7.300781 15.253906 7.636719 14.917969 8.308594 C 14.589844 8.972656 14.425781 9.882812 14.425781 11.039062 C 14.425781 12.195312 14.589844 13.109375 14.917969 13.78125 C 15.253906 14.445312 15.710938 14.777344 16.289062 14.777344 Z M 16.289062 14.777344 "/>
</g>
</svg>
