<?xml version="1.0" encoding="UTF-8"?>
<svg xmlns="http://www.w3.org/2000/svg" xmlns:xlink="http://www.w3.org/1999/xlink" width="24" height="22.5" viewBox="0 0 24 22.5" version="1.1">
<g id="surface1">
<path style=" stroke:none;fill-rule:nonzero;fill:rgb(100%,100%,100%);fill-opacity:1;" d="M 4.886719 21.84375 L 19.101562 21.84375 C 20.328125 21.84375 21.246094 21.539062 21.855469 20.929688 C 22.472656 20.328125 22.78125 19.421875 22.78125 18.210938 L 22.78125 3.902344 C 22.78125 2.691406 22.472656 1.785156 21.855469 1.183594 C 21.246094 0.574219 20.328125 0.269531 19.101562 0.269531 L 4.886719 0.269531 C 3.660156 0.269531 2.738281 0.574219 2.121094 1.183594 C 1.511719 1.785156 1.207031 2.691406 1.207031 3.902344 L 1.207031 18.210938 C 1.207031 19.421875 1.511719 20.328125 2.121094 20.929688 C 2.738281 21.539062 3.660156 21.84375 4.886719 21.84375 Z M 4.910156 19.957031 C 4.324219 19.957031 3.875 19.804688 3.5625 19.5 C 3.25 19.1875 3.09375 18.726562 3.09375 18.117188 L 3.09375 3.996094 C 3.09375 3.386719 3.25 2.929688 3.5625 2.625 C 3.875 2.3125 4.324219 2.15625 4.910156 2.15625 L 19.078125 2.15625 C 19.65625 2.15625 20.101562 2.3125 20.414062 2.625 C 20.734375 2.929688 20.894531 3.386719 20.894531 3.996094 L 20.894531 18.117188 C 20.894531 18.726562 20.734375 19.1875 20.414062 19.5 C 20.101562 19.804688 19.65625 19.957031 19.078125 19.957031 Z M 9.644531 16.066406 C 9.878906 16.066406 10.058594 15.992188 10.183594 15.84375 C 10.308594 15.695312 10.371094 15.507812 10.371094 15.28125 L 10.371094 13.898438 L 11.003906 13.898438 C 11.441406 13.898438 11.660156 13.683594 11.660156 13.253906 C 11.660156 13.042969 11.597656 12.878906 11.472656 12.761719 C 11.355469 12.644531 11.199219 12.585938 11.003906 12.585938 L 10.371094 12.585938 L 10.371094 7.101562 C 10.371094 6.765625 10.261719 6.496094 10.042969 6.292969 C 9.824219 6.089844 9.546875 5.988281 9.210938 5.988281 C 8.867188 5.988281 8.582031 6.058594 8.355469 6.199219 C 8.128906 6.332031 7.921875 6.5625 7.734375 6.890625 C 7.492188 7.304688 7.238281 7.734375 6.972656 8.179688 C 6.707031 8.625 6.445312 9.070312 6.1875 9.515625 C 5.929688 9.960938 5.679688 10.394531 5.4375 10.816406 C 5.195312 11.230469 4.976562 11.613281 4.78125 11.964844 C 4.6875 12.144531 4.621094 12.304688 4.582031 12.445312 C 4.542969 12.585938 4.523438 12.738281 4.523438 12.902344 C 4.523438 13.214844 4.617188 13.460938 4.804688 13.640625 C 4.992188 13.8125 5.234375 13.898438 5.53125 13.898438 L 8.953125 13.898438 L 8.953125 15.28125 C 8.953125 15.507812 9.011719 15.695312 9.128906 15.84375 C 9.246094 15.992188 9.417969 16.066406 9.644531 16.066406 Z M 8.953125 12.585938 L 6.058594 12.585938 L 6.058594 12.539062 C 6.191406 12.273438 6.34375 11.984375 6.515625 11.671875 C 6.695312 11.351562 6.882812 11.019531 7.078125 10.675781 C 7.273438 10.332031 7.472656 9.984375 7.675781 9.632812 C 7.886719 9.273438 8.09375 8.921875 8.296875 8.578125 C 8.5 8.226562 8.695312 7.890625 8.882812 7.570312 L 8.953125 7.570312 Z M 16.160156 16.089844 C 16.832031 16.089844 17.417969 15.886719 17.917969 15.480469 C 18.425781 15.066406 18.816406 14.484375 19.089844 13.734375 C 19.371094 12.976562 19.511719 12.078125 19.511719 11.039062 C 19.511719 10 19.371094 9.101562 19.089844 8.34375 C 18.816406 7.585938 18.425781 7.003906 17.917969 6.597656 C 17.417969 6.191406 16.832031 5.988281 16.160156 5.988281 C 15.488281 5.988281 14.898438 6.191406 14.390625 6.597656 C 13.890625 7.003906 13.5 7.585938 13.21875 8.34375 C 12.945312 9.101562 12.808594 10 12.808594 11.039062 C 12.808594 12.078125 12.945312 12.976562 13.21875 13.734375 C 13.5 14.484375 13.890625 15.066406 14.390625 15.480469 C 14.898438 15.886719 15.488281 16.089844 16.160156 16.089844 Z M 16.160156 14.671875 C 15.605469 14.671875 15.164062 14.347656 14.835938 13.699219 C 14.507812 13.050781 14.34375 12.164062 14.34375 11.039062 C 14.34375 9.914062 14.507812 9.027344 14.835938 8.378906 C 15.164062 7.730469 15.605469 7.40625 16.160156 7.40625 C 16.722656 7.40625 17.164062 7.730469 17.484375 8.378906 C 17.8125 9.027344 17.976562 9.914062 17.976562 11.039062 C 17.976562 12.164062 17.8125 13.050781 17.484375 13.699219 C 17.164062 14.347656 16.722656 14.671875 16.160156 14.671875 Z M 16.160156 14.671875 "/>
</g>
</svg>
