<svg width="116" height="116" viewBox="0 0 116 116" fill="none" xmlns="http://www.w3.org/2000/svg">
<path d="M20.5625 115.5H96.375C102.917 115.5 107.812 113.875 111.062 110.625C114.354 107.417 116 102.583 116 96.125V19.8125C116 13.3542 114.354 8.52083 111.062 5.3125C107.812 2.0625 102.917 0.4375 96.375 0.4375H20.5625C14.0208 0.4375 9.10417 2.0625 5.8125 5.3125C2.5625 8.52083 0.9375 13.3542 0.9375 19.8125V96.125C0.9375 102.583 2.5625 107.417 5.8125 110.625C9.10417 113.875 14.0208 115.5 20.5625 115.5ZM20.6875 105.438C17.5625 105.438 15.1667 104.625 13.5 103C11.8333 101.333 11 98.875 11 95.625V20.3125C11 17.0625 11.8333 14.625 13.5 13C15.1667 11.3333 17.5625 10.5 20.6875 10.5H96.25C99.3333 10.5 101.708 11.3333 103.375 13C105.083 14.625 105.938 17.0625 105.938 20.3125V95.625C105.938 98.875 105.083 101.333 103.375 103C101.708 104.625 99.3333 105.438 96.25 105.438H20.6875ZM46.1875 84.6875C47.4375 84.6875 48.3958 84.2917 49.0625 83.5C49.7292 82.7083 50.0625 81.7083 50.0625 80.5V73.125H53.4375C55.7708 73.125 56.9375 71.9792 56.9375 69.6875C56.9375 68.5625 56.6042 67.6875 55.9375 67.0625C55.3125 66.4375 54.4792 66.125 53.4375 66.125H50.0625V36.875C50.0625 35.0833 49.4792 33.6458 48.3125 32.5625C47.1458 31.4792 45.6667 30.9375 43.875 30.9375C42.0417 30.9375 40.5208 31.3125 39.3125 32.0625C38.1042 32.7708 37 34 36 35.75C34.7083 37.9583 33.3542 40.25 31.9375 42.625C30.5208 45 29.125 47.375 27.75 49.75C26.375 52.125 25.0417 54.4375 23.75 56.6875C22.4583 58.8958 21.2917 60.9375 20.25 62.8125C19.75 63.7708 19.3958 64.625 19.1875 65.375C18.9792 66.125 18.875 66.9375 18.875 67.8125C18.875 69.4792 19.375 70.7917 20.375 71.75C21.375 72.6667 22.6667 73.125 24.25 73.125H42.5V80.5C42.5 81.7083 42.8125 82.7083 43.4375 83.5C44.0625 84.2917 44.9792 84.6875 46.1875 84.6875ZM42.5 66.125H27.0625V65.875C27.7708 64.4583 28.5833 62.9167 29.5 61.25C30.4583 59.5417 31.4583 57.7708 32.5 55.9375C33.5417 54.1042 34.6042 52.25 35.6875 50.375C36.8125 48.4583 37.9167 46.5833 39 44.75C40.0833 42.875 41.125 41.0833 42.125 39.375H42.5V66.125ZM67.1875 83.375H93.0625C94.0625 83.375 94.8958 83.0417 95.5625 82.375C96.2292 81.6667 96.5625 80.75 96.5625 79.625C96.5625 78.5 96.2292 77.625 95.5625 77C94.8958 76.3333 94.0625 76 93.0625 76H74.875V75.5625L87.125 61.3125C89.4583 58.6458 91.375 56.0833 92.875 53.625C94.4167 51.125 95.1875 48.3125 95.1875 45.1875C95.1875 40.8542 93.7083 37.3958 90.75 34.8125C87.8333 32.2292 83.9375 30.9375 79.0625 30.9375C75.3125 30.9375 71.9583 32 69 34.125C66.0417 36.25 64.1667 38.8958 63.375 42.0625C63.2917 42.4792 63.2083 42.875 63.125 43.25C63.0833 43.5833 63.0625 43.9375 63.0625 44.3125C63.0625 45.4375 63.375 46.3542 64 47.0625C64.625 47.7292 65.4792 48.0625 66.5625 48.0625C67.4792 48.0625 68.1875 47.8125 68.6875 47.3125C69.2292 46.7708 69.7083 46.0417 70.125 45.125C70.9167 42.7917 72.0833 41.0417 73.625 39.875C75.2083 38.7083 77.125 38.125 79.375 38.125C81.875 38.125 83.875 38.8333 85.375 40.25C86.875 41.6667 87.625 43.5417 87.625 45.875C87.625 47.9167 86.9583 49.8333 85.625 51.625C84.2917 53.4167 82.875 55.1875 81.375 56.9375L64.9375 76.3125C64.0208 77.3125 63.5625 78.4375 63.5625 79.6875C63.5625 80.8125 63.875 81.7083 64.5 82.375C65.1667 83.0417 66.0625 83.375 67.1875 83.375Z" fill="white"/>
</svg>
