<?xml version="1.0" encoding="UTF-8"?>
<svg xmlns="http://www.w3.org/2000/svg" xmlns:xlink="http://www.w3.org/1999/xlink" width="24" height="22.5" viewBox="0 0 24 22.5" version="1.1">
<g id="surface1">
<path style=" stroke:none;fill-rule:nonzero;fill:rgb(100%,100%,100%);fill-opacity:1;" d="M 4.886719 21.84375 L 19.101562 21.84375 C 20.328125 21.84375 21.246094 21.539062 21.855469 20.929688 C 22.472656 20.328125 22.78125 19.421875 22.78125 18.210938 L 22.78125 3.902344 C 22.78125 2.691406 22.472656 1.785156 21.855469 1.183594 C 21.246094 0.574219 20.328125 0.269531 19.101562 0.269531 L 4.886719 0.269531 C 3.660156 0.269531 2.738281 0.574219 2.121094 1.183594 C 1.511719 1.785156 1.207031 2.691406 1.207031 3.902344 L 1.207031 18.210938 C 1.207031 19.421875 1.511719 20.328125 2.121094 20.929688 C 2.738281 21.539062 3.660156 21.84375 4.886719 21.84375 Z M 9.65625 16.230469 C 9.414062 16.230469 9.234375 16.152344 9.117188 15.996094 C 9 15.839844 8.941406 15.644531 8.941406 15.410156 L 8.941406 13.992188 L 5.414062 13.992188 C 5.101562 13.992188 4.847656 13.902344 4.652344 13.722656 C 4.464844 13.535156 4.371094 13.28125 4.371094 12.960938 C 4.371094 12.796875 4.390625 12.640625 4.429688 12.492188 C 4.46875 12.34375 4.539062 12.175781 4.640625 11.988281 C 4.84375 11.621094 5.066406 11.226562 5.308594 10.804688 C 5.558594 10.375 5.816406 9.929688 6.082031 9.46875 C 6.347656 9.007812 6.613281 8.546875 6.878906 8.085938 C 7.152344 7.625 7.417969 7.183594 7.675781 6.761719 C 7.871094 6.425781 8.085938 6.1875 8.320312 6.046875 C 8.554688 5.898438 8.851562 5.824219 9.210938 5.824219 C 9.5625 5.824219 9.847656 5.929688 10.066406 6.140625 C 10.292969 6.351562 10.40625 6.632812 10.40625 6.984375 L 10.40625 12.632812 L 11.050781 12.632812 C 11.261719 12.632812 11.425781 12.695312 11.542969 12.820312 C 11.667969 12.9375 11.730469 13.105469 11.730469 13.324219 C 11.730469 13.535156 11.667969 13.699219 11.542969 13.816406 C 11.425781 13.933594 11.261719 13.992188 11.050781 13.992188 L 10.40625 13.992188 L 10.40625 15.410156 C 10.40625 15.652344 10.339844 15.851562 10.207031 16.007812 C 10.082031 16.15625 9.898438 16.230469 9.65625 16.230469 Z M 8.941406 12.632812 L 8.941406 7.464844 L 8.871094 7.464844 C 8.675781 7.792969 8.472656 8.136719 8.261719 8.496094 C 8.058594 8.855469 7.847656 9.21875 7.628906 9.585938 C 7.417969 9.953125 7.210938 10.316406 7.007812 10.675781 C 6.8125 11.027344 6.625 11.367188 6.445312 11.695312 C 6.265625 12.015625 6.105469 12.3125 5.964844 12.585938 L 5.964844 12.632812 Z M 16.148438 16.253906 C 15.320312 16.253906 14.609375 16.039062 14.015625 15.609375 C 13.421875 15.179688 13.046875 14.6875 12.890625 14.132812 C 12.867188 14.054688 12.847656 13.984375 12.832031 13.921875 C 12.824219 13.851562 12.820312 13.773438 12.820312 13.6875 C 12.820312 13.476562 12.886719 13.304688 13.019531 13.171875 C 13.152344 13.03125 13.320312 12.960938 13.523438 12.960938 C 13.84375 12.960938 14.074219 13.152344 14.214844 13.535156 C 14.378906 13.957031 14.621094 14.28125 14.941406 14.507812 C 15.269531 14.734375 15.675781 14.847656 16.160156 14.847656 C 16.730469 14.847656 17.195312 14.691406 17.554688 14.378906 C 17.921875 14.066406 18.105469 13.675781 18.105469 13.207031 C 18.105469 12.714844 17.9375 12.320312 17.601562 12.023438 C 17.265625 11.726562 16.808594 11.578125 16.230469 11.578125 L 15.515625 11.578125 C 15.320312 11.578125 15.160156 11.511719 15.035156 11.378906 C 14.917969 11.246094 14.859375 11.082031 14.859375 10.886719 C 14.859375 10.667969 14.917969 10.492188 15.035156 10.359375 C 15.160156 10.226562 15.320312 10.160156 15.515625 10.160156 L 16.171875 10.160156 C 16.65625 10.160156 17.050781 10.019531 17.355469 9.738281 C 17.660156 9.449219 17.8125 9.085938 17.8125 8.648438 C 17.8125 8.226562 17.660156 7.886719 17.355469 7.628906 C 17.050781 7.363281 16.660156 7.230469 16.183594 7.230469 C 15.714844 7.230469 15.332031 7.34375 15.035156 7.570312 C 14.738281 7.796875 14.527344 8.121094 14.402344 8.542969 C 14.339844 8.738281 14.253906 8.882812 14.144531 8.976562 C 14.042969 9.070312 13.902344 9.117188 13.722656 9.117188 C 13.511719 9.117188 13.34375 9.050781 13.21875 8.917969 C 13.09375 8.777344 13.03125 8.597656 13.03125 8.378906 C 13.03125 8.199219 13.042969 8.054688 13.066406 7.945312 C 13.214844 7.351562 13.574219 6.851562 14.144531 6.445312 C 14.714844 6.03125 15.40625 5.824219 16.21875 5.824219 C 17.125 5.824219 17.863281 6.070312 18.433594 6.5625 C 19.011719 7.046875 19.300781 7.675781 19.300781 8.449219 C 19.300781 9.019531 19.128906 9.527344 18.785156 9.972656 C 18.441406 10.417969 18.019531 10.679688 17.519531 10.757812 L 17.519531 10.828125 C 18.128906 10.890625 18.632812 11.152344 19.03125 11.613281 C 19.429688 12.074219 19.628906 12.628906 19.628906 13.277344 C 19.628906 14.144531 19.304688 14.859375 18.65625 15.421875 C 18.007812 15.976562 17.171875 16.253906 16.148438 16.253906 Z M 16.148438 16.253906 "/>
</g>
</svg>
