<?xml version="1.0" encoding="UTF-8"?>
<svg xmlns="http://www.w3.org/2000/svg" xmlns:xlink="http://www.w3.org/1999/xlink" width="24" height="25.5" viewBox="0 0 24 25.5" version="1.1">
<g id="surface1">
<path style=" stroke:none;fill-rule:nonzero;fill:rgb(100%,100%,100%);fill-opacity:1;" d="M 12 24.492188 C 13.632812 24.492188 15.167969 24.179688 16.605469 23.554688 C 18.050781 22.929688 19.324219 22.066406 20.425781 20.964844 C 21.527344 19.863281 22.390625 18.59375 23.015625 17.15625 C 23.640625 15.710938 23.953125 14.171875 23.953125 12.539062 C 23.953125 10.90625 23.640625 9.371094 23.015625 7.933594 C 22.390625 6.488281 21.527344 5.214844 20.425781 4.113281 C 19.324219 3.011719 18.050781 2.148438 16.605469 1.523438 C 15.160156 0.898438 13.621094 0.585938 11.988281 0.585938 C 10.355469 0.585938 8.816406 0.898438 7.371094 1.523438 C 5.933594 2.148438 4.664062 3.011719 3.5625 4.113281 C 2.46875 5.214844 1.609375 6.488281 0.984375 7.933594 C 0.359375 9.371094 0.046875 10.90625 0.046875 12.539062 C 0.046875 14.171875 0.359375 15.710938 0.984375 17.15625 C 1.609375 18.59375 2.472656 19.863281 3.574219 20.964844 C 4.675781 22.066406 5.945312 22.929688 7.382812 23.554688 C 8.828125 24.179688 10.367188 24.492188 12 24.492188 Z M 9.328125 17.730469 C 9.09375 17.730469 8.914062 17.652344 8.789062 17.496094 C 8.671875 17.339844 8.613281 17.144531 8.613281 16.910156 L 8.613281 15.492188 L 5.097656 15.492188 C 4.785156 15.492188 4.53125 15.402344 4.335938 15.222656 C 4.148438 15.035156 4.054688 14.78125 4.054688 14.460938 C 4.054688 14.296875 4.074219 14.140625 4.113281 13.992188 C 4.152344 13.84375 4.21875 13.675781 4.3125 13.488281 C 4.515625 13.121094 4.738281 12.726562 4.980469 12.304688 C 5.230469 11.875 5.488281 11.429688 5.753906 10.96875 C 6.027344 10.507812 6.296875 10.046875 6.5625 9.585938 C 6.835938 9.125 7.097656 8.683594 7.347656 8.261719 C 7.550781 7.925781 7.769531 7.6875 8.003906 7.546875 C 8.238281 7.398438 8.53125 7.324219 8.882812 7.324219 C 9.234375 7.324219 9.523438 7.429688 9.75 7.640625 C 9.976562 7.851562 10.089844 8.132812 10.089844 8.484375 L 10.089844 14.132812 L 10.734375 14.132812 C 10.9375 14.132812 11.101562 14.195312 11.226562 14.320312 C 11.351562 14.4375 11.414062 14.605469 11.414062 14.824219 C 11.414062 15.269531 11.1875 15.492188 10.734375 15.492188 L 10.089844 15.492188 L 10.089844 16.910156 C 10.089844 17.152344 10.023438 17.351562 9.890625 17.507812 C 9.765625 17.65625 9.578125 17.730469 9.328125 17.730469 Z M 8.613281 14.132812 L 8.613281 8.964844 L 8.542969 8.964844 C 8.347656 9.292969 8.144531 9.636719 7.933594 9.996094 C 7.730469 10.355469 7.519531 10.71875 7.300781 11.085938 C 7.089844 11.453125 6.882812 11.816406 6.679688 12.175781 C 6.484375 12.527344 6.296875 12.867188 6.117188 13.195312 C 5.9375 13.515625 5.777344 13.8125 5.636719 14.085938 L 5.636719 14.132812 Z M 17.660156 17.730469 C 17.425781 17.730469 17.246094 17.652344 17.121094 17.496094 C 17.003906 17.339844 16.945312 17.144531 16.945312 16.910156 L 16.945312 15.492188 L 13.417969 15.492188 C 13.105469 15.492188 12.851562 15.402344 12.65625 15.222656 C 12.46875 15.035156 12.375 14.78125 12.375 14.460938 C 12.375 14.296875 12.394531 14.140625 12.433594 13.992188 C 12.472656 13.84375 12.542969 13.675781 12.644531 13.488281 C 12.847656 13.121094 13.070312 12.726562 13.3125 12.304688 C 13.5625 11.875 13.820312 11.429688 14.085938 10.96875 C 14.359375 10.507812 14.628906 10.046875 14.894531 9.585938 C 15.167969 9.125 15.429688 8.683594 15.679688 8.261719 C 15.875 7.925781 16.089844 7.6875 16.324219 7.546875 C 16.558594 7.398438 16.855469 7.324219 17.214844 7.324219 C 17.566406 7.324219 17.851562 7.429688 18.070312 7.640625 C 18.296875 7.851562 18.410156 8.132812 18.410156 8.484375 L 18.410156 14.132812 L 19.054688 14.132812 C 19.265625 14.132812 19.429688 14.195312 19.546875 14.320312 C 19.671875 14.4375 19.734375 14.605469 19.734375 14.824219 C 19.734375 15.035156 19.671875 15.199219 19.546875 15.316406 C 19.429688 15.433594 19.265625 15.492188 19.054688 15.492188 L 18.410156 15.492188 L 18.410156 16.910156 C 18.410156 17.152344 18.34375 17.351562 18.210938 17.507812 C 18.085938 17.65625 17.902344 17.730469 17.660156 17.730469 Z M 16.945312 14.132812 L 16.945312 8.964844 L 16.875 8.964844 C 16.679688 9.292969 16.476562 9.636719 16.265625 9.996094 C 16.0625 10.355469 15.855469 10.71875 15.644531 11.085938 C 15.433594 11.453125 15.226562 11.816406 15.023438 12.175781 C 14.820312 12.527344 14.628906 12.867188 14.449219 13.195312 C 14.269531 13.515625 14.109375 13.8125 13.96875 14.085938 L 13.96875 14.132812 Z M 16.945312 14.132812 "/>
</g>
</svg>
