<?xml version="1.0" encoding="UTF-8"?>
<svg xmlns="http://www.w3.org/2000/svg" xmlns:xlink="http://www.w3.org/1999/xlink" width="24" height="25.5" viewBox="0 0 24 25.5" version="1.1">
<g id="surface1">
<path style=" stroke:none;fill-rule:nonzero;fill:rgb(100%,100%,100%);fill-opacity:1;" d="M 12 24.492188 C 13.632812 24.492188 15.167969 24.179688 16.605469 23.554688 C 18.050781 22.929688 19.324219 22.066406 20.425781 20.964844 C 21.527344 19.863281 22.390625 18.59375 23.015625 17.15625 C 23.640625 15.710938 23.953125 14.171875 23.953125 12.539062 C 23.953125 10.90625 23.640625 9.371094 23.015625 7.933594 C 22.390625 6.488281 21.527344 5.214844 20.425781 4.113281 C 19.324219 3.011719 18.050781 2.148438 16.605469 1.523438 C 15.160156 0.898438 13.621094 0.585938 11.988281 0.585938 C 10.355469 0.585938 8.816406 0.898438 7.371094 1.523438 C 5.933594 2.148438 4.664062 3.011719 3.5625 4.113281 C 2.46875 5.214844 1.609375 6.488281 0.984375 7.933594 C 0.359375 9.371094 0.046875 10.90625 0.046875 12.539062 C 0.046875 14.171875 0.359375 15.710938 0.984375 17.15625 C 1.609375 18.59375 2.472656 19.863281 3.574219 20.964844 C 4.675781 22.066406 5.945312 22.929688 7.382812 23.554688 C 8.828125 24.179688 10.367188 24.492188 12 24.492188 Z M 12 22.5 C 10.617188 22.5 9.324219 22.242188 8.121094 21.726562 C 6.917969 21.210938 5.859375 20.5 4.945312 19.59375 C 4.039062 18.679688 3.328125 17.621094 2.8125 16.417969 C 2.304688 15.214844 2.050781 13.921875 2.050781 12.539062 C 2.050781 11.15625 2.304688 9.863281 2.8125 8.660156 C 3.328125 7.457031 4.039062 6.398438 4.945312 5.484375 C 5.851562 4.570312 6.90625 3.859375 8.109375 3.351562 C 9.3125 2.835938 10.605469 2.578125 11.988281 2.578125 C 13.371094 2.578125 14.664062 2.835938 15.867188 3.351562 C 17.078125 3.859375 18.136719 4.570312 19.042969 5.484375 C 19.957031 6.398438 20.671875 7.457031 21.1875 8.660156 C 21.703125 9.863281 21.960938 11.15625 21.960938 12.539062 C 21.960938 13.921875 21.703125 15.214844 21.1875 16.417969 C 20.679688 17.621094 19.96875 18.679688 19.054688 19.59375 C 18.140625 20.5 17.082031 21.210938 15.878906 21.726562 C 14.675781 22.242188 13.382812 22.5 12 22.5 Z M 9.398438 17.566406 C 9.632812 17.566406 9.8125 17.492188 9.9375 17.34375 C 10.0625 17.195312 10.125 17.007812 10.125 16.78125 L 10.125 15.398438 L 10.757812 15.398438 C 11.195312 15.398438 11.414062 15.183594 11.414062 14.753906 C 11.414062 14.542969 11.351562 14.378906 11.226562 14.261719 C 11.109375 14.144531 10.953125 14.085938 10.757812 14.085938 L 10.125 14.085938 L 10.125 8.601562 C 10.125 8.265625 10.015625 7.996094 9.796875 7.792969 C 9.578125 7.589844 9.300781 7.488281 8.964844 7.488281 C 8.621094 7.488281 8.335938 7.558594 8.109375 7.699219 C 7.882812 7.832031 7.675781 8.0625 7.488281 8.390625 C 7.246094 8.804688 6.992188 9.234375 6.726562 9.679688 C 6.460938 10.125 6.199219 10.570312 5.941406 11.015625 C 5.683594 11.460938 5.433594 11.894531 5.191406 12.316406 C 4.949219 12.730469 4.730469 13.113281 4.535156 13.464844 C 4.441406 13.644531 4.375 13.804688 4.335938 13.945312 C 4.296875 14.085938 4.277344 14.238281 4.277344 14.402344 C 4.277344 14.714844 4.371094 14.960938 4.558594 15.140625 C 4.746094 15.3125 4.988281 15.398438 5.285156 15.398438 L 8.707031 15.398438 L 8.707031 16.78125 C 8.707031 17.007812 8.765625 17.195312 8.882812 17.34375 C 9 17.492188 9.171875 17.566406 9.398438 17.566406 Z M 8.707031 14.085938 L 5.8125 14.085938 L 5.8125 14.039062 C 5.945312 13.773438 6.097656 13.484375 6.269531 13.171875 C 6.449219 12.851562 6.636719 12.519531 6.832031 12.175781 C 7.027344 11.832031 7.226562 11.484375 7.429688 11.132812 C 7.640625 10.773438 7.847656 10.421875 8.050781 10.078125 C 8.253906 9.726562 8.449219 9.390625 8.636719 9.070312 L 8.707031 9.070312 Z M 17.472656 17.566406 C 17.714844 17.566406 17.894531 17.492188 18.011719 17.34375 C 18.136719 17.195312 18.199219 17.007812 18.199219 16.78125 L 18.199219 15.398438 L 18.832031 15.398438 C 19.269531 15.398438 19.488281 15.183594 19.488281 14.753906 C 19.488281 14.542969 19.429688 14.378906 19.3125 14.261719 C 19.195312 14.144531 19.035156 14.085938 18.832031 14.085938 L 18.199219 14.085938 L 18.199219 8.601562 C 18.199219 8.265625 18.089844 7.996094 17.871094 7.792969 C 17.660156 7.589844 17.382812 7.488281 17.039062 7.488281 C 16.703125 7.488281 16.421875 7.558594 16.195312 7.699219 C 15.96875 7.832031 15.757812 8.0625 15.5625 8.390625 C 15.320312 8.804688 15.066406 9.234375 14.800781 9.679688 C 14.542969 10.125 14.28125 10.570312 14.015625 11.015625 C 13.757812 11.460938 13.507812 11.894531 13.265625 12.316406 C 13.03125 12.730469 12.8125 13.113281 12.609375 13.464844 C 12.515625 13.644531 12.449219 13.804688 12.410156 13.945312 C 12.371094 14.085938 12.351562 14.238281 12.351562 14.402344 C 12.351562 14.714844 12.445312 14.960938 12.632812 15.140625 C 12.820312 15.3125 13.0625 15.398438 13.359375 15.398438 L 16.78125 15.398438 L 16.78125 16.78125 C 16.78125 17.007812 16.839844 17.195312 16.957031 17.34375 C 17.074219 17.492188 17.246094 17.566406 17.472656 17.566406 Z M 16.78125 14.085938 L 13.886719 14.085938 L 13.886719 14.039062 C 14.027344 13.773438 14.183594 13.484375 14.355469 13.171875 C 14.527344 12.851562 14.710938 12.519531 14.90625 12.175781 C 15.109375 11.832031 15.3125 11.484375 15.515625 11.132812 C 15.71875 10.773438 15.921875 10.421875 16.125 10.078125 C 16.328125 9.726562 16.523438 9.390625 16.710938 9.070312 L 16.78125 9.070312 Z M 16.78125 14.085938 "/>
</g>
</svg>
