<svg xmlns="http://www.w3.org/2000/svg" width="24" height="24"><path style="stroke:none;fill-rule:nonzero;fill:#fff;fill-opacity:1" d="M12 23.05c1.633 0 3.168-.292 4.605-.882a12.22 12.22 0 0 0 3.82-2.438 11.467 11.467 0 0 0 2.59-3.582c.626-1.363.938-2.808.938-4.347a10.2 10.2 0 0 0-.937-4.332 11.53 11.53 0 0 0-2.59-3.598 12.361 12.361 0 0 0-3.82-2.437A12.166 12.166 0 0 0 11.987.55c-1.633 0-3.172.293-4.617.883A12.307 12.307 0 0 0 3.562 3.87 11.523 11.523 0 0 0 .985 7.465 10.2 10.2 0 0 0 .047 11.8c0 1.539.312 2.984.937 4.347a11.467 11.467 0 0 0 2.59 3.582 12.236 12.236 0 0 0 3.809 2.438c1.445.59 2.984.883 4.617.883Zm0-1.874a10.222 10.222 0 0 1-7.055-2.734 9.548 9.548 0 0 1-2.133-2.989 8.83 8.83 0 0 1-.761-3.652c0-1.301.254-2.52.761-3.649A9.52 9.52 0 0 1 4.946 5.16 9.82 9.82 0 0 1 8.11 3.156c1.204-.488 2.496-.73 3.88-.73 1.382 0 2.675.242 3.878.73a9.701 9.701 0 0 1 3.176 2.004 9.432 9.432 0 0 1 2.145 2.992 8.685 8.685 0 0 1 .773 3.649c0 1.3-.258 2.52-.773 3.652a9.22 9.22 0 0 1-2.133 2.988A10.222 10.222 0 0 1 12 21.176ZM9.398 16.53c.235 0 .415-.066.54-.207a.765.765 0 0 0 .187-.531v-1.3h.633c.437 0 .656-.204.656-.606 0-.2-.062-.356-.187-.465a.658.658 0 0 0-.47-.164h-.632v-5.16c0-.317-.11-.57-.328-.762-.219-.191-.496-.29-.832-.29-.344 0-.63.067-.856.2-.226.125-.433.344-.62.652-.243.387-.497.793-.762 1.211-.266.422-.528.84-.786 1.258l-.75 1.223c-.242.39-.46.75-.656 1.082-.094.172-.16.32-.2.453-.038.133-.058.277-.058.43 0 .293.094.527.282.695.187.16.43.242.726.242h3.422v1.301a.8.8 0 0 0 .176.531c.117.14.289.207.515.207Zm-.691-3.273H5.812v-.043c.133-.254.286-.524.458-.817.382-.644.77-1.285 1.16-1.921l.62-.993.587-.949h.07Zm8.766 3.273c.242 0 .422-.066.539-.207a.765.765 0 0 0 .187-.531v-1.3h.633c.438 0 .656-.204.656-.606 0-.2-.058-.356-.175-.465-.118-.11-.278-.164-.481-.164h-.633v-5.16c0-.317-.11-.57-.328-.762-.21-.191-.488-.29-.832-.29-.336 0-.617.067-.844.2-.226.125-.437.344-.633.652-.242.387-.496.793-.761 1.211-.258.422-.52.84-.785 1.258-.473.77-.942 1.535-1.407 2.305-.093.172-.16.32-.199.453-.039.133-.058.277-.058.43 0 .293.093.527.28.695.188.16.43.242.727.242h3.422v1.301a.8.8 0 0 0 .176.531c.117.14.29.207.516.207Zm-.692-3.273h-2.894v-.043c.14-.254.297-.524.468-.817.172-.3.356-.613.551-.937.203-.324.406-.652.61-.984.203-.336.406-.668.609-.993l.586-.949h.07Zm0 0"/></svg>