<svg width="16" height="17" viewBox="0 0 16 17" fill="none" xmlns="http://www.w3.org/2000/svg">
<path d="M8 16.3281C9.08854 16.3281 10.112 16.1198 11.0703 15.7031C12.0339 15.2865 12.8828 14.7109 13.6172 13.9766C14.3516 13.2422 14.9271 12.3958 15.3438 11.4375C15.7604 10.474 15.9688 9.44792 15.9688 8.35938C15.9688 7.27083 15.7604 6.2474 15.3438 5.28906C14.9271 4.32552 14.3516 3.47656 13.6172 2.74219C12.8828 2.00781 12.0339 1.43229 11.0703 1.01562C10.1068 0.598958 9.08073 0.390625 7.99219 0.390625C6.90365 0.390625 5.8776 0.598958 4.91406 1.01562C3.95573 1.43229 3.10938 2.00781 2.375 2.74219C1.64583 3.47656 1.07292 4.32552 0.65625 5.28906C0.239583 6.2474 0.03125 7.27083 0.03125 8.35938C0.03125 9.44792 0.239583 10.474 0.65625 11.4375C1.07292 12.3958 1.64844 13.2422 2.38281 13.9766C3.11719 14.7109 3.96354 15.2865 4.92188 15.7031C5.88542 16.1198 6.91146 16.3281 8 16.3281ZM6.32031 11.8203C6.15885 11.8203 6.03906 11.7682 5.96094 11.6641C5.88281 11.5599 5.84375 11.4297 5.84375 11.2734V10.3281H3.49219C3.28385 10.3281 3.11458 10.2682 2.98438 10.1484C2.85938 10.0234 2.79688 9.85417 2.79688 9.64062C2.79688 9.53125 2.8099 9.42708 2.83594 9.32812C2.86198 9.22917 2.90885 9.11719 2.97656 8.99219C3.11198 8.7474 3.26042 8.48438 3.42188 8.20312C3.58854 7.91667 3.76042 7.61979 3.9375 7.3125C4.11458 7.00521 4.29167 6.69792 4.46875 6.39062C4.65104 6.08333 4.82812 5.78906 5 5.50781C5.13021 5.28385 5.27344 5.125 5.42969 5.03125C5.58594 4.93229 5.78125 4.88281 6.01562 4.88281C6.25521 4.88281 6.44792 4.95312 6.59375 5.09375C6.74479 5.23438 6.82031 5.42188 6.82031 5.65625V9.42188H7.25C7.39062 9.42188 7.5 9.46354 7.57812 9.54688C7.66146 9.625 7.70312 9.73698 7.70312 9.88281C7.70312 10.0234 7.66146 10.1328 7.57812 10.2109C7.5 10.2891 7.39062 10.3281 7.25 10.3281H6.82031V11.2734C6.82031 11.4349 6.77604 11.5677 6.6875 11.6719C6.60417 11.7708 6.48177 11.8203 6.32031 11.8203ZM5.84375 9.42188V5.97656H5.78906C5.66406 6.19531 5.53125 6.42448 5.39062 6.66406C5.25 6.90365 5.10938 7.14583 4.96875 7.39062C4.82812 7.63542 4.6901 7.8776 4.55469 8.11719C4.42448 8.35156 4.29948 8.57812 4.17969 8.79688C4.0599 9.01042 3.95312 9.20833 3.85938 9.39062V9.42188H5.84375ZM10.6328 11.8359C10.1276 11.8359 9.6901 11.7188 9.32031 11.4844C8.95052 11.25 8.70573 10.9661 8.58594 10.6328C8.5599 10.5807 8.53906 10.5234 8.52344 10.4609C8.51302 10.3984 8.50781 10.3333 8.50781 10.2656C8.50781 10.1302 8.54948 10.0182 8.63281 9.92969C8.71615 9.84115 8.82552 9.79688 8.96094 9.79688C9.05469 9.79688 9.14062 9.82552 9.21875 9.88281C9.30208 9.9401 9.3724 10.0286 9.42969 10.1484C9.54427 10.388 9.71354 10.5781 9.9375 10.7188C10.1615 10.8542 10.4089 10.9219 10.6797 10.9219C11.0703 10.9219 11.3854 10.8021 11.625 10.5625C11.8646 10.3229 11.9844 9.99219 11.9844 9.57031C11.9844 9.20052 11.875 8.89062 11.6562 8.64062C11.4375 8.39062 11.151 8.26562 10.7969 8.26562C10.6198 8.26562 10.4609 8.29948 10.3203 8.36719C10.1797 8.42969 10.026 8.53125 9.85938 8.67188C9.72917 8.78125 9.61719 8.85677 9.52344 8.89844C9.42969 8.9349 9.32292 8.95312 9.20312 8.95312C9.02083 8.95312 8.8776 8.89062 8.77344 8.76562C8.66927 8.63542 8.6224 8.46354 8.63281 8.25L8.82812 5.74219C8.86458 5.28385 9.11198 5.05469 9.57031 5.05469H12.3281C12.4479 5.05469 12.5443 5.09896 12.6172 5.1875C12.6953 5.27083 12.7344 5.3776 12.7344 5.50781C12.7344 5.63802 12.6953 5.7474 12.6172 5.83594C12.5391 5.91927 12.4427 5.96094 12.3281 5.96094H9.66406L9.52344 8.03125H9.55469C9.67448 7.84896 9.86198 7.69792 10.1172 7.57812C10.3776 7.45833 10.6406 7.39844 10.9062 7.39844C11.5312 7.39844 12.0339 7.60156 12.4141 8.00781C12.7995 8.41406 12.9922 8.92708 12.9922 9.54688C12.9922 10.2552 12.776 10.8151 12.3438 11.2266C11.9115 11.6328 11.3411 11.8359 10.6328 11.8359Z" fill="white"/>
</svg>
