<?xml version="1.0" encoding="UTF-8"?>
<svg xmlns="http://www.w3.org/2000/svg" xmlns:xlink="http://www.w3.org/1999/xlink" width="24" height="22.5" viewBox="0 0 24 22.5" version="1.1">
<g id="surface1">
<path style=" stroke:none;fill-rule:nonzero;fill:rgb(100%,100%,100%);fill-opacity:1;" d="M 4.886719 21.84375 L 19.101562 21.84375 C 20.328125 21.84375 21.246094 21.539062 21.855469 20.929688 C 22.472656 20.328125 22.78125 19.421875 22.78125 18.210938 L 22.78125 3.902344 C 22.78125 2.691406 22.472656 1.785156 21.855469 1.183594 C 21.246094 0.574219 20.328125 0.269531 19.101562 0.269531 L 4.886719 0.269531 C 3.660156 0.269531 2.738281 0.574219 2.121094 1.183594 C 1.511719 1.785156 1.207031 2.691406 1.207031 3.902344 L 1.207031 18.210938 C 1.207031 19.421875 1.511719 20.328125 2.121094 20.929688 C 2.738281 21.539062 3.660156 21.84375 4.886719 21.84375 Z M 4.910156 19.957031 C 4.324219 19.957031 3.875 19.804688 3.5625 19.5 C 3.25 19.1875 3.09375 18.726562 3.09375 18.117188 L 3.09375 3.996094 C 3.09375 3.386719 3.25 2.929688 3.5625 2.625 C 3.875 2.3125 4.324219 2.15625 4.910156 2.15625 L 19.078125 2.15625 C 19.65625 2.15625 20.101562 2.3125 20.414062 2.625 C 20.734375 2.929688 20.894531 3.386719 20.894531 3.996094 L 20.894531 18.117188 C 20.894531 18.726562 20.734375 19.1875 20.414062 19.5 C 20.101562 19.804688 19.65625 19.957031 19.078125 19.957031 Z M 9.550781 16.066406 C 9.785156 16.066406 9.964844 15.992188 10.089844 15.84375 C 10.214844 15.695312 10.277344 15.507812 10.277344 15.28125 L 10.277344 13.898438 L 10.910156 13.898438 C 11.347656 13.898438 11.566406 13.683594 11.566406 13.253906 C 11.566406 13.042969 11.503906 12.878906 11.378906 12.761719 C 11.261719 12.644531 11.105469 12.585938 10.910156 12.585938 L 10.277344 12.585938 L 10.277344 7.101562 C 10.277344 6.765625 10.167969 6.496094 9.949219 6.292969 C 9.730469 6.089844 9.453125 5.988281 9.117188 5.988281 C 8.773438 5.988281 8.488281 6.058594 8.261719 6.199219 C 8.035156 6.332031 7.828125 6.5625 7.640625 6.890625 C 7.398438 7.304688 7.144531 7.734375 6.878906 8.179688 C 6.613281 8.625 6.351562 9.070312 6.09375 9.515625 C 5.835938 9.960938 5.585938 10.394531 5.34375 10.816406 C 5.101562 11.230469 4.882812 11.613281 4.6875 11.964844 C 4.59375 12.144531 4.527344 12.304688 4.488281 12.445312 C 4.449219 12.585938 4.429688 12.738281 4.429688 12.902344 C 4.429688 13.214844 4.523438 13.460938 4.710938 13.640625 C 4.898438 13.8125 5.140625 13.898438 5.4375 13.898438 L 8.859375 13.898438 L 8.859375 15.28125 C 8.859375 15.507812 8.917969 15.695312 9.035156 15.84375 C 9.152344 15.992188 9.324219 16.066406 9.550781 16.066406 Z M 8.859375 12.585938 L 5.964844 12.585938 L 5.964844 12.539062 C 6.097656 12.273438 6.25 11.984375 6.421875 11.671875 C 6.601562 11.351562 6.789062 11.019531 6.984375 10.675781 C 7.179688 10.332031 7.378906 9.984375 7.582031 9.632812 C 7.792969 9.273438 8 8.921875 8.203125 8.578125 C 8.40625 8.226562 8.601562 7.890625 8.789062 7.570312 L 8.859375 7.570312 Z M 15.820312 16.089844 C 16.851562 16.089844 17.679688 15.792969 18.304688 15.199219 C 18.9375 14.605469 19.253906 13.792969 19.253906 12.761719 C 19.253906 11.863281 18.972656 11.121094 18.410156 10.535156 C 17.855469 9.941406 17.125 9.644531 16.21875 9.644531 C 15.828125 9.644531 15.445312 9.730469 15.070312 9.902344 C 14.695312 10.074219 14.421875 10.292969 14.25 10.558594 L 14.203125 10.558594 L 14.414062 7.546875 L 18.292969 7.546875 C 18.457031 7.546875 18.59375 7.484375 18.703125 7.359375 C 18.820312 7.234375 18.878906 7.078125 18.878906 6.890625 C 18.878906 6.703125 18.824219 6.546875 18.714844 6.421875 C 18.605469 6.296875 18.464844 6.234375 18.292969 6.234375 L 14.273438 6.234375 C 13.960938 6.234375 13.707031 6.324219 13.511719 6.503906 C 13.324219 6.683594 13.222656 6.925781 13.207031 7.230469 L 12.914062 10.886719 C 12.898438 11.191406 12.964844 11.4375 13.113281 11.625 C 13.261719 11.804688 13.472656 11.894531 13.746094 11.894531 C 13.925781 11.894531 14.082031 11.867188 14.214844 11.8125 C 14.347656 11.757812 14.507812 11.652344 14.695312 11.496094 C 14.9375 11.285156 15.160156 11.132812 15.363281 11.039062 C 15.574219 10.945312 15.808594 10.898438 16.066406 10.898438 C 16.582031 10.898438 17 11.082031 17.320312 11.449219 C 17.640625 11.808594 17.800781 12.257812 17.800781 12.796875 C 17.800781 13.40625 17.625 13.886719 17.273438 14.238281 C 16.921875 14.589844 16.460938 14.765625 15.890625 14.765625 C 15.492188 14.765625 15.128906 14.667969 14.800781 14.472656 C 14.480469 14.269531 14.238281 13.992188 14.074219 13.640625 C 13.988281 13.46875 13.886719 13.34375 13.769531 13.265625 C 13.660156 13.179688 13.535156 13.136719 13.394531 13.136719 C 13.199219 13.136719 13.039062 13.203125 12.914062 13.335938 C 12.796875 13.460938 12.738281 13.621094 12.738281 13.816406 C 12.738281 13.910156 12.746094 14.003906 12.761719 14.097656 C 12.785156 14.183594 12.8125 14.265625 12.84375 14.34375 C 13.015625 14.828125 13.371094 15.242188 13.910156 15.585938 C 14.449219 15.921875 15.085938 16.089844 15.820312 16.089844 Z M 15.820312 16.089844 "/>
</g>
</svg>
