<svg xmlns="http://www.w3.org/2000/svg" width="24" height="24"><path style="stroke:none;fill-rule:nonzero;fill:#fff;fill-opacity:1" d="M4.887 23.3h14.215c1.226 0 2.144-.323 2.753-.976.618-.64.926-1.605.926-2.898V4.164c0-1.293-.308-2.258-.926-2.898-.609-.653-1.527-.977-2.753-.977H4.887c-1.227 0-2.149.324-2.766.977-.61.64-.914 1.605-.914 2.898v15.262c0 1.293.305 2.258.914 2.902.617.649 1.54.973 2.766.973Zm4.699-5.988c-.242 0-.422-.082-.54-.25a1.069 1.069 0 0 1-.175-.625v-1.511H5.344c-.313 0-.567-.098-.762-.29-.187-.198-.281-.468-.281-.812 0-.176.02-.34.058-.5.04-.156.11-.336.211-.535.203-.394.426-.812.668-1.266l.774-1.421.797-1.477c.273-.492.539-.96.796-1.414.196-.356.41-.61.645-.762.234-.156.531-.238.89-.238.352 0 .637.113.856.34.227.222.34.523.34.898v6.028h.644c.211 0 .375.066.493.199.125.125.187.304.187.535 0 .226-.062.402-.187.527-.118.125-.282.188-.493.188h-.644v1.511a.998.998 0 0 1-.2.637c-.124.16-.308.238-.55.238Zm-.715-3.835V7.96h-.07c-.196.351-.399.719-.61 1.101-.203.383-.414.77-.632 1.165-.211.39-.418.777-.622 1.16-.195.375-.382.738-.562 1.09-.18.34-.34.656-.48.949v.05Zm7.371 3.875c-.61 0-1.164-.133-1.664-.403-.5-.273-.902-.722-1.207-1.347-.21-.403-.375-.895-.492-1.477a11.262 11.262 0 0 1-.164-2.05c0-1.966.336-3.434 1.008-4.4.672-.976 1.59-1.46 2.754-1.46a3.2 3.2 0 0 1 1.23.223c.36.148.66.351.902.601.25.25.426.516.528.797.062.168.093.336.093.5a.77.77 0 0 1-.175.527.577.577 0 0 1-.434.188.732.732 0 0 1-.41-.114 1.492 1.492 0 0 1-.305-.374 1.944 1.944 0 0 0-.61-.614 1.588 1.588 0 0 0-.878-.238c-.68 0-1.23.355-1.652 1.066-.422.707-.633 1.668-.633 2.887v.125h.094c.148-.426.421-.8.82-1.125.406-.336.93-.5 1.57-.5.781 0 1.477.293 2.086.887.61.59.914 1.441.914 2.55 0 1.184-.316 2.102-.949 2.762-.633.657-1.441.989-2.426.989Zm-.058-1.426c.578 0 1.035-.207 1.37-.614.344-.406.516-.953.516-1.636 0-.64-.172-1.164-.515-1.563-.344-.41-.801-.613-1.371-.613s-1.032.203-1.383.613c-.352.399-.528.918-.528 1.551 0 .664.176 1.211.528 1.637.36.414.82.625 1.383.625Zm0 0"/></svg>