<svg width="16" height="15" viewBox="0 0 16 15" fill="none" xmlns="http://www.w3.org/2000/svg">
<path d="M3.25781 14.5625H12.7344C13.5521 14.5625 14.1641 14.3594 14.5703 13.9531C14.9818 13.5521 15.1875 12.9479 15.1875 12.1406V2.60156C15.1875 1.79427 14.9818 1.1901 14.5703 0.789062C14.1641 0.382812 13.5521 0.179688 12.7344 0.179688H3.25781C2.4401 0.179688 1.82552 0.382812 1.41406 0.789062C1.00781 1.1901 0.804688 1.79427 0.804688 2.60156V12.1406C0.804688 12.9479 1.00781 13.5521 1.41406 13.9531C1.82552 14.3594 2.4401 14.5625 3.25781 14.5625ZM3.27344 13.3047C2.88281 13.3047 2.58333 13.2031 2.375 13C2.16667 12.7917 2.0625 12.4844 2.0625 12.0781V2.66406C2.0625 2.25781 2.16667 1.95312 2.375 1.75C2.58333 1.54167 2.88281 1.4375 3.27344 1.4375H12.7188C13.1042 1.4375 13.401 1.54167 13.6094 1.75C13.8229 1.95312 13.9297 2.25781 13.9297 2.66406V12.0781C13.9297 12.4844 13.8229 12.7917 13.6094 13C13.401 13.2031 13.1042 13.3047 12.7188 13.3047H3.27344ZM6.40625 10.7109C6.5625 10.7109 6.68229 10.6615 6.76562 10.5625C6.84896 10.4635 6.89062 10.3385 6.89062 10.1875V9.26562H7.3125C7.60417 9.26562 7.75 9.1224 7.75 8.83594C7.75 8.69531 7.70833 8.58594 7.625 8.50781C7.54688 8.42969 7.44271 8.39062 7.3125 8.39062H6.89062V4.73438C6.89062 4.51042 6.81771 4.33073 6.67188 4.19531C6.52604 4.0599 6.34115 3.99219 6.11719 3.99219C5.88802 3.99219 5.69792 4.03906 5.54688 4.13281C5.39583 4.22135 5.25781 4.375 5.13281 4.59375C4.97135 4.86979 4.80208 5.15625 4.625 5.45312C4.44792 5.75 4.27344 6.04688 4.10156 6.34375C3.92969 6.64062 3.76302 6.92969 3.60156 7.21094C3.4401 7.48698 3.29427 7.74219 3.16406 7.97656C3.10156 8.09635 3.05729 8.20312 3.03125 8.29688C3.00521 8.39062 2.99219 8.49219 2.99219 8.60156C2.99219 8.8099 3.05469 8.97396 3.17969 9.09375C3.30469 9.20833 3.46615 9.26562 3.66406 9.26562H5.94531V10.1875C5.94531 10.3385 5.98438 10.4635 6.0625 10.5625C6.14062 10.6615 6.25521 10.7109 6.40625 10.7109ZM5.94531 8.39062H4.01562V8.35938C4.10417 8.18229 4.20573 7.98958 4.32031 7.78125C4.4401 7.56771 4.5651 7.34635 4.69531 7.11719C4.82552 6.88802 4.95833 6.65625 5.09375 6.42188C5.23438 6.18229 5.3724 5.94792 5.50781 5.71875C5.64323 5.48438 5.77344 5.26042 5.89844 5.04688H5.94531V8.39062ZM9.6875 10.6406C9.79167 10.6406 9.88281 10.612 9.96094 10.5547C10.0443 10.4922 10.1198 10.3932 10.1875 10.2578L12.625 5.38281C12.6875 5.25781 12.7266 5.15625 12.7422 5.07812C12.763 4.99479 12.7734 4.91146 12.7734 4.82812C12.7734 4.64062 12.7109 4.48177 12.5859 4.35156C12.4609 4.21615 12.2917 4.14844 12.0781 4.14844H8.92969C8.79427 4.14844 8.6849 4.1901 8.60156 4.27344C8.51823 4.35156 8.47656 4.45833 8.47656 4.59375C8.47656 4.72396 8.51823 4.82812 8.60156 4.90625C8.6849 4.98438 8.79427 5.02344 8.92969 5.02344H11.6719V5.08594L9.25 9.77344C9.19271 9.8724 9.16406 9.99219 9.16406 10.1328C9.16406 10.2786 9.21354 10.401 9.3125 10.5C9.41667 10.5938 9.54167 10.6406 9.6875 10.6406Z" fill="white"/>
</svg>
