<svg width="16" height="17" viewBox="0 0 16 17" fill="none" xmlns="http://www.w3.org/2000/svg">
<path d="M8 16.3281C9.08854 16.3281 10.112 16.1198 11.0703 15.7031C12.0339 15.2865 12.8828 14.7109 13.6172 13.9766C14.3516 13.2422 14.9271 12.3958 15.3438 11.4375C15.7604 10.474 15.9688 9.44792 15.9688 8.35938C15.9688 7.27083 15.7604 6.2474 15.3438 5.28906C14.9271 4.32552 14.3516 3.47656 13.6172 2.74219C12.8828 2.00781 12.0339 1.43229 11.0703 1.01562C10.1068 0.598958 9.08073 0.390625 7.99219 0.390625C6.90365 0.390625 5.8776 0.598958 4.91406 1.01562C3.95573 1.43229 3.10938 2.00781 2.375 2.74219C1.64583 3.47656 1.07292 4.32552 0.65625 5.28906C0.239583 6.2474 0.03125 7.27083 0.03125 8.35938C0.03125 9.44792 0.239583 10.474 0.65625 11.4375C1.07292 12.3958 1.64844 13.2422 2.38281 13.9766C3.11719 14.7109 3.96354 15.2865 4.92188 15.7031C5.88542 16.1198 6.91146 16.3281 8 16.3281ZM8 15C7.07812 15 6.21615 14.8281 5.41406 14.4844C4.61198 14.1406 3.90625 13.6667 3.29688 13.0625C2.69271 12.4531 2.21875 11.7474 1.875 10.9453C1.53646 10.1432 1.36719 9.28125 1.36719 8.35938C1.36719 7.4375 1.53646 6.57552 1.875 5.77344C2.21875 4.97135 2.69271 4.26562 3.29688 3.65625C3.90104 3.04688 4.60417 2.57292 5.40625 2.23438C6.20833 1.89062 7.07031 1.71875 7.99219 1.71875C8.91406 1.71875 9.77604 1.89062 10.5781 2.23438C11.3854 2.57292 12.0911 3.04688 12.6953 3.65625C13.3047 4.26562 13.7812 4.97135 14.125 5.77344C14.4688 6.57552 14.6406 7.4375 14.6406 8.35938C14.6406 9.28125 14.4688 10.1432 14.125 10.9453C13.7865 11.7474 13.3125 12.4531 12.7031 13.0625C12.0938 13.6667 11.388 14.1406 10.5859 14.4844C9.78385 14.8281 8.92188 15 8 15ZM6.35938 11.7109C6.51562 11.7109 6.63542 11.6615 6.71875 11.5625C6.80208 11.4635 6.84375 11.3385 6.84375 11.1875V10.2656H7.26562C7.55729 10.2656 7.70312 10.1224 7.70312 9.83594C7.70312 9.69531 7.66146 9.58594 7.57812 9.50781C7.5 9.42969 7.39583 9.39062 7.26562 9.39062H6.84375V5.73438C6.84375 5.51042 6.77083 5.33073 6.625 5.19531C6.47917 5.0599 6.29427 4.99219 6.07031 4.99219C5.84115 4.99219 5.65104 5.03906 5.5 5.13281C5.34896 5.22135 5.21094 5.375 5.08594 5.59375C4.92448 5.86979 4.75521 6.15625 4.57812 6.45312C4.40104 6.75 4.22656 7.04688 4.05469 7.34375C3.88281 7.64062 3.71615 7.92969 3.55469 8.21094C3.39323 8.48698 3.2474 8.74219 3.11719 8.97656C3.05469 9.09635 3.01042 9.20312 2.98438 9.29688C2.95833 9.39062 2.94531 9.49219 2.94531 9.60156C2.94531 9.8099 3.00781 9.97396 3.13281 10.0938C3.25781 10.2083 3.41927 10.2656 3.61719 10.2656H5.89844V11.1875C5.89844 11.3385 5.9375 11.4635 6.01562 11.5625C6.09375 11.6615 6.20833 11.7109 6.35938 11.7109ZM5.89844 9.39062H3.96875V9.35938C4.05729 9.18229 4.15885 8.98958 4.27344 8.78125C4.39323 8.56771 4.51823 8.34635 4.64844 8.11719C4.77865 7.88802 4.91146 7.65625 5.04688 7.42188C5.1875 7.18229 5.32552 6.94792 5.46094 6.71875C5.59635 6.48438 5.72656 6.26042 5.85156 6.04688H5.89844V9.39062ZM10.7656 11.7266C11.4427 11.7266 11.9922 11.5495 12.4141 11.1953C12.8411 10.8411 13.0547 10.3802 13.0547 9.8125C13.0547 9.41146 12.9375 9.0625 12.7031 8.76562C12.4688 8.46875 12.1432 8.27865 11.7266 8.19531V8.14844C12.0859 8.05469 12.3568 7.8776 12.5391 7.61719C12.7266 7.35156 12.8203 7.04948 12.8203 6.71094C12.8203 6.20052 12.6302 5.78646 12.25 5.46875C11.8698 5.15104 11.3802 4.99219 10.7812 4.99219C10.1823 4.99219 9.69271 5.15104 9.3125 5.46875C8.93229 5.78646 8.74219 6.20052 8.74219 6.71094C8.74219 7.04948 8.83333 7.34896 9.01562 7.60938C9.20312 7.86458 9.47656 8.04427 9.83594 8.14844V8.19531C9.41406 8.27865 9.08594 8.47135 8.85156 8.77344C8.6224 9.07031 8.50781 9.41927 8.50781 9.82031C8.50781 10.388 8.71354 10.849 9.125 11.2031C9.54167 11.5521 10.0885 11.7266 10.7656 11.7266ZM10.7891 10.9141C10.4193 10.9141 10.112 10.8073 9.86719 10.5938C9.6276 10.375 9.50781 10.0938 9.50781 9.75C9.50781 9.41146 9.6276 9.13281 9.86719 8.91406C10.112 8.69531 10.4193 8.58594 10.7891 8.58594C11.1641 8.58594 11.4688 8.69531 11.7031 8.91406C11.9427 9.13281 12.0625 9.41146 12.0625 9.75C12.0625 10.0938 11.9427 10.375 11.7031 10.5938C11.4635 10.8073 11.1589 10.9141 10.7891 10.9141ZM10.7812 7.83594C10.474 7.83594 10.2214 7.73958 10.0234 7.54688C9.83073 7.34896 9.73438 7.10156 9.73438 6.80469C9.73438 6.50781 9.83073 6.26823 10.0234 6.08594C10.2214 5.89844 10.474 5.80469 10.7812 5.80469C11.0885 5.80469 11.3385 5.89844 11.5312 6.08594C11.7292 6.26823 11.8281 6.50781 11.8281 6.80469C11.8281 7.10156 11.7292 7.34896 11.5312 7.54688C11.3385 7.73958 11.0885 7.83594 10.7812 7.83594Z" fill="white"/>
</svg>
