<?xml version="1.0" encoding="UTF-8"?>
<svg xmlns="http://www.w3.org/2000/svg" xmlns:xlink="http://www.w3.org/1999/xlink" width="24" height="22.5" viewBox="0 0 24 22.5" version="1.1">
<g id="surface1">
<path style=" stroke:none;fill-rule:nonzero;fill:rgb(100%,100%,100%);fill-opacity:1;" d="M 4.886719 21.84375 L 19.101562 21.84375 C 20.328125 21.84375 21.246094 21.539062 21.855469 20.929688 C 22.472656 20.328125 22.78125 19.421875 22.78125 18.210938 L 22.78125 3.902344 C 22.78125 2.691406 22.472656 1.785156 21.855469 1.183594 C 21.246094 0.574219 20.328125 0.269531 19.101562 0.269531 L 4.886719 0.269531 C 3.660156 0.269531 2.738281 0.574219 2.121094 1.183594 C 1.511719 1.785156 1.207031 2.691406 1.207031 3.902344 L 1.207031 18.210938 C 1.207031 19.421875 1.511719 20.328125 2.121094 20.929688 C 2.738281 21.539062 3.660156 21.84375 4.886719 21.84375 Z M 9.46875 16.230469 C 9.234375 16.230469 9.054688 16.152344 8.929688 15.996094 C 8.8125 15.839844 8.753906 15.644531 8.753906 15.410156 L 8.753906 13.992188 L 5.238281 13.992188 C 4.925781 13.992188 4.671875 13.902344 4.476562 13.722656 C 4.289062 13.535156 4.195312 13.28125 4.195312 12.960938 C 4.195312 12.796875 4.214844 12.640625 4.253906 12.492188 C 4.292969 12.34375 4.359375 12.175781 4.453125 11.988281 C 4.65625 11.621094 4.878906 11.226562 5.121094 10.804688 C 5.371094 10.375 5.628906 9.929688 5.894531 9.46875 C 6.167969 9.007812 6.4375 8.546875 6.703125 8.085938 C 6.976562 7.625 7.238281 7.183594 7.488281 6.761719 C 7.691406 6.425781 7.910156 6.1875 8.144531 6.046875 C 8.378906 5.898438 8.671875 5.824219 9.023438 5.824219 C 9.375 5.824219 9.664062 5.929688 9.890625 6.140625 C 10.117188 6.351562 10.230469 6.632812 10.230469 6.984375 L 10.230469 12.632812 L 10.875 12.632812 C 11.078125 12.632812 11.242188 12.695312 11.367188 12.820312 C 11.492188 12.9375 11.554688 13.105469 11.554688 13.324219 C 11.554688 13.535156 11.492188 13.699219 11.367188 13.816406 C 11.242188 13.933594 11.078125 13.992188 10.875 13.992188 L 10.230469 13.992188 L 10.230469 15.410156 C 10.230469 15.652344 10.164062 15.851562 10.03125 16.007812 C 9.90625 16.15625 9.71875 16.230469 9.46875 16.230469 Z M 8.753906 12.632812 L 8.753906 7.464844 L 8.683594 7.464844 C 8.488281 7.792969 8.285156 8.136719 8.074219 8.496094 C 7.871094 8.855469 7.660156 9.21875 7.441406 9.585938 C 7.230469 9.953125 7.023438 10.316406 6.820312 10.675781 C 6.625 11.027344 6.4375 11.367188 6.257812 11.695312 C 6.078125 12.015625 5.917969 12.3125 5.777344 12.585938 L 5.777344 12.632812 Z M 16.289062 16.253906 C 15.25 16.253906 14.40625 15.984375 13.757812 15.445312 C 13.117188 14.898438 12.796875 14.183594 12.796875 13.300781 C 12.796875 12.683594 12.976562 12.144531 13.335938 11.683594 C 13.695312 11.214844 14.199219 10.914062 14.847656 10.78125 L 14.847656 10.710938 C 14.285156 10.546875 13.863281 10.269531 13.582031 9.878906 C 13.300781 9.480469 13.160156 9.015625 13.160156 8.484375 C 13.160156 7.695312 13.453125 7.054688 14.039062 6.5625 C 14.625 6.070312 15.382812 5.824219 16.3125 5.824219 C 17.242188 5.824219 18 6.070312 18.585938 6.5625 C 19.171875 7.054688 19.464844 7.695312 19.464844 8.484375 C 19.464844 9.015625 19.320312 9.484375 19.03125 9.890625 C 18.75 10.289062 18.332031 10.5625 17.777344 10.710938 L 17.777344 10.78125 C 18.425781 10.914062 18.929688 11.210938 19.289062 11.671875 C 19.648438 12.132812 19.828125 12.671875 19.828125 13.289062 C 19.828125 14.171875 19.5 14.886719 18.84375 15.433594 C 18.195312 15.980469 17.34375 16.253906 16.289062 16.253906 Z M 16.324219 14.988281 C 16.894531 14.988281 17.363281 14.824219 17.730469 14.496094 C 18.105469 14.160156 18.292969 13.726562 18.292969 13.195312 C 18.292969 12.664062 18.109375 12.230469 17.742188 11.894531 C 17.382812 11.558594 16.910156 11.390625 16.324219 11.390625 C 15.753906 11.390625 15.28125 11.5625 14.90625 11.90625 C 14.539062 12.242188 14.355469 12.671875 14.355469 13.195312 C 14.355469 13.726562 14.539062 14.160156 14.90625 14.496094 C 15.28125 14.824219 15.753906 14.988281 16.324219 14.988281 Z M 16.3125 10.230469 C 16.78125 10.230469 17.167969 10.082031 17.472656 9.785156 C 17.777344 9.480469 17.929688 9.097656 17.929688 8.636719 C 17.929688 8.183594 17.777344 7.8125 17.472656 7.523438 C 17.167969 7.234375 16.78125 7.089844 16.3125 7.089844 C 15.84375 7.089844 15.457031 7.234375 15.152344 7.523438 C 14.855469 7.8125 14.707031 8.183594 14.707031 8.636719 C 14.707031 9.097656 14.855469 9.480469 15.152344 9.785156 C 15.457031 10.082031 15.84375 10.230469 16.3125 10.230469 Z M 16.3125 10.230469 "/>
</g>
</svg>
