<svg xmlns="http://www.w3.org/2000/svg" width="24" height="24"><path style="stroke:none;fill-rule:nonzero;fill:#fff;fill-opacity:1" d="M4.887 23.3h14.215c1.226 0 2.144-.323 2.753-.976.618-.64.926-1.605.926-2.898V4.164c0-1.293-.308-2.258-.926-2.898-.609-.653-1.527-.977-2.753-.977H4.887c-1.227 0-2.149.324-2.766.977-.61.64-.914 1.605-.914 2.898v15.262c0 1.293.305 2.258.914 2.902.617.649 1.54.973 2.766.973Zm.023-2.01c-.586 0-1.035-.165-1.348-.49-.312-.335-.468-.823-.468-1.476V4.262c0-.649.156-1.137.469-1.461.312-.336.761-.5 1.347-.5h14.168c.578 0 1.024.164 1.336.5.32.324.48.812.48 1.46v15.063c0 .653-.16 1.14-.48 1.477-.312.324-.758.488-1.336.488Zm4.64-4.153c.235 0 .415-.078.54-.239a.932.932 0 0 0 .187-.597v-1.477h.633c.438 0 .656-.226.656-.687 0-.223-.062-.399-.187-.524a.616.616 0 0 0-.469-.187h-.633V7.574c0-.355-.109-.644-.328-.863a1.14 1.14 0 0 0-.832-.324c-.344 0-.629.074-.855.226-.227.14-.434.387-.621.739-.243.441-.496.898-.762 1.375-.266.472-.527.949-.785 1.425-.258.473-.508.938-.75 1.383-.242.445-.461.852-.657 1.227a2.83 2.83 0 0 0-.199.511c-.039.153-.058.313-.058.489 0 .336.093.597.28.789.188.183.43.273.728.273h3.421v1.477a.978.978 0 0 0 .176.597c.117.16.29.239.516.239Zm-.69-3.711H5.964v-.051c.133-.285.285-.594.457-.926.383-.726.77-1.453 1.16-2.176l.621-1.125.586-1.074h.07Zm7.3 3.738c1.016 0 1.84-.285 2.473-.852.64-.566.96-1.304.96-2.21 0-.645-.175-1.204-.527-1.676-.351-.477-.84-.781-1.464-.914v-.075c.539-.148.945-.433 1.218-.851.282-.422.43-.93.422-1.45 0-.816-.285-1.476-.855-1.988-.57-.507-1.305-.761-2.203-.761-.899 0-1.633.254-2.204.761-.57.512-.855 1.172-.855 1.989 0 .543.137 1.02.41 1.437.281.41.692.696 1.23.864v.074c-.632.133-1.124.441-1.476.925-.344.473-.516 1.036-.516 1.676 0 .907.309 1.645.926 2.211.625.559 1.446.84 2.461.84Zm.035-1.3c-.554 0-1.015-.173-1.383-.512-.359-.352-.539-.801-.539-1.352 0-.543.18-.988.54-1.336.367-.351.828-.527 1.382-.527.563 0 1.02.175 1.371.527.36.348.54.793.54 1.336 0 .55-.18 1-.54 1.352-.359.34-.816.511-1.37.511Zm-.011-4.927c-.461 0-.84-.156-1.137-.46-.29-.32-.434-.715-.434-1.188 0-.476.145-.86.434-1.152.297-.301.676-.45 1.137-.45.46 0 .836.149 1.125.45.296.293.445.675.445 1.152 0 .473-.149.867-.445 1.188-.29.308-.664.46-1.125.46Zm0 0"/></svg>