<?xml version="1.0" encoding="UTF-8"?>
<svg xmlns="http://www.w3.org/2000/svg" xmlns:xlink="http://www.w3.org/1999/xlink" width="24" height="25.5" viewBox="0 0 24 25.5" version="1.1">
<g id="surface1">
<path style=" stroke:none;fill-rule:nonzero;fill:rgb(100%,100%,100%);fill-opacity:1;" d="M 12 24.492188 C 13.632812 24.492188 15.167969 24.179688 16.605469 23.554688 C 18.050781 22.929688 19.324219 22.066406 20.425781 20.964844 C 21.527344 19.863281 22.390625 18.59375 23.015625 17.15625 C 23.640625 15.710938 23.953125 14.171875 23.953125 12.539062 C 23.953125 10.90625 23.640625 9.371094 23.015625 7.933594 C 22.390625 6.488281 21.527344 5.214844 20.425781 4.113281 C 19.324219 3.011719 18.050781 2.148438 16.605469 1.523438 C 15.160156 0.898438 13.621094 0.585938 11.988281 0.585938 C 10.355469 0.585938 8.816406 0.898438 7.371094 1.523438 C 5.933594 2.148438 4.664062 3.011719 3.5625 4.113281 C 2.46875 5.214844 1.609375 6.488281 0.984375 7.933594 C 0.359375 9.371094 0.046875 10.90625 0.046875 12.539062 C 0.046875 14.171875 0.359375 15.710938 0.984375 17.15625 C 1.609375 18.59375 2.472656 19.863281 3.574219 20.964844 C 4.675781 22.066406 5.945312 22.929688 7.382812 23.554688 C 8.828125 24.179688 10.367188 24.492188 12 24.492188 Z M 12 22.5 C 10.617188 22.5 9.324219 22.242188 8.121094 21.726562 C 6.917969 21.210938 5.859375 20.5 4.945312 19.59375 C 4.039062 18.679688 3.328125 17.621094 2.8125 16.417969 C 2.304688 15.214844 2.050781 13.921875 2.050781 12.539062 C 2.050781 11.15625 2.304688 9.863281 2.8125 8.660156 C 3.328125 7.457031 4.039062 6.398438 4.945312 5.484375 C 5.851562 4.570312 6.90625 3.859375 8.109375 3.351562 C 9.3125 2.835938 10.605469 2.578125 11.988281 2.578125 C 13.371094 2.578125 14.664062 2.835938 15.867188 3.351562 C 17.078125 3.859375 18.136719 4.570312 19.042969 5.484375 C 19.957031 6.398438 20.671875 7.457031 21.1875 8.660156 C 21.703125 9.863281 21.960938 11.15625 21.960938 12.539062 C 21.960938 13.921875 21.703125 15.214844 21.1875 16.417969 C 20.679688 17.621094 19.96875 18.679688 19.054688 19.59375 C 18.140625 20.5 17.082031 21.210938 15.878906 21.726562 C 14.675781 22.242188 13.382812 22.5 12 22.5 Z M 8.097656 17.601562 C 9.128906 17.601562 9.957031 17.304688 10.582031 16.710938 C 11.214844 16.117188 11.53125 15.304688 11.53125 14.273438 C 11.53125 13.375 11.25 12.632812 10.6875 12.046875 C 10.132812 11.453125 9.402344 11.15625 8.496094 11.15625 C 8.105469 11.15625 7.722656 11.242188 7.347656 11.414062 C 6.972656 11.585938 6.699219 11.804688 6.527344 12.070312 L 6.480469 12.070312 L 6.691406 9.058594 L 10.570312 9.058594 C 10.734375 9.058594 10.871094 8.996094 10.980469 8.871094 C 11.097656 8.746094 11.15625 8.589844 11.15625 8.402344 C 11.15625 8.214844 11.101562 8.058594 10.992188 7.933594 C 10.882812 7.808594 10.742188 7.746094 10.570312 7.746094 L 6.550781 7.746094 C 6.238281 7.746094 5.984375 7.835938 5.789062 8.015625 C 5.601562 8.195312 5.5 8.4375 5.484375 8.742188 L 5.191406 12.398438 C 5.175781 12.703125 5.242188 12.949219 5.390625 13.136719 C 5.539062 13.316406 5.75 13.40625 6.023438 13.40625 C 6.203125 13.40625 6.359375 13.378906 6.492188 13.324219 C 6.625 13.269531 6.785156 13.164062 6.972656 13.007812 C 7.214844 12.796875 7.4375 12.644531 7.640625 12.550781 C 7.851562 12.457031 8.085938 12.410156 8.34375 12.410156 C 8.859375 12.410156 9.277344 12.59375 9.597656 12.960938 C 9.917969 13.320312 10.078125 13.769531 10.078125 14.308594 C 10.078125 14.917969 9.902344 15.398438 9.550781 15.75 C 9.199219 16.101562 8.738281 16.277344 8.167969 16.277344 C 7.769531 16.277344 7.40625 16.179688 7.078125 15.984375 C 6.757812 15.78125 6.515625 15.503906 6.351562 15.152344 C 6.265625 14.980469 6.164062 14.855469 6.046875 14.777344 C 5.9375 14.691406 5.8125 14.648438 5.671875 14.648438 C 5.476562 14.648438 5.316406 14.714844 5.191406 14.847656 C 5.074219 14.972656 5.015625 15.132812 5.015625 15.328125 C 5.015625 15.421875 5.023438 15.515625 5.039062 15.609375 C 5.0625 15.695312 5.089844 15.777344 5.121094 15.855469 C 5.292969 16.339844 5.648438 16.753906 6.1875 17.097656 C 6.726562 17.433594 7.363281 17.601562 8.097656 17.601562 Z M 16.148438 17.601562 C 16.820312 17.601562 17.40625 17.398438 17.90625 16.992188 C 18.414062 16.578125 18.804688 15.996094 19.078125 15.246094 C 19.359375 14.488281 19.5 13.589844 19.5 12.550781 C 19.5 11.511719 19.359375 10.613281 19.078125 9.855469 C 18.804688 9.097656 18.414062 8.515625 17.90625 8.109375 C 17.40625 7.703125 16.820312 7.5 16.148438 7.5 C 15.476562 7.5 14.886719 7.703125 14.378906 8.109375 C 13.878906 8.515625 13.488281 9.097656 13.207031 9.855469 C 12.933594 10.613281 12.796875 11.511719 12.796875 12.550781 C 12.796875 13.589844 12.933594 14.488281 13.207031 15.246094 C 13.488281 15.996094 13.878906 16.578125 14.378906 16.992188 C 14.886719 17.398438 15.476562 17.601562 16.148438 17.601562 Z M 16.148438 16.183594 C 15.59375 16.183594 15.152344 15.859375 14.824219 15.210938 C 14.496094 14.5625 14.332031 13.675781 14.332031 12.550781 C 14.332031 11.425781 14.496094 10.539062 14.824219 9.890625 C 15.152344 9.242188 15.59375 8.917969 16.148438 8.917969 C 16.710938 8.917969 17.152344 9.242188 17.472656 9.890625 C 17.800781 10.539062 17.964844 11.425781 17.964844 12.550781 C 17.964844 13.675781 17.800781 14.5625 17.472656 15.210938 C 17.152344 15.859375 16.710938 16.183594 16.148438 16.183594 Z M 16.148438 16.183594 "/>
</g>
</svg>
