<svg width="116" height="116" viewBox="0 0 116 116" fill="none" xmlns="http://www.w3.org/2000/svg">
<path d="M20.5625 115.5H96.375C102.917 115.5 107.812 113.875 111.062 110.625C114.354 107.417 116 102.583 116 96.125V19.8125C116 13.3542 114.354 8.52083 111.062 5.3125C107.812 2.0625 102.917 0.4375 96.375 0.4375H20.5625C14.0208 0.4375 9.10417 2.0625 5.8125 5.3125C2.5625 8.52083 0.9375 13.3542 0.9375 19.8125V96.125C0.9375 102.583 2.5625 107.417 5.8125 110.625C9.10417 113.875 14.0208 115.5 20.5625 115.5ZM37.1875 85.75C33.1458 85.75 29.6458 84.8125 26.6875 82.9375C23.7292 81.0625 21.7708 78.7917 20.8125 76.125C20.6458 75.7083 20.5 75.25 20.375 74.75C20.2917 74.25 20.25 73.7292 20.25 73.1875C20.25 72.1042 20.5625 71.2083 21.1875 70.5C21.8542 69.7917 22.75 69.4375 23.875 69.4375C24.625 69.4375 25.3125 69.6667 25.9375 70.125C26.5625 70.5833 27.125 71.2917 27.625 72.25C28.5417 74.1667 29.875 75.6875 31.625 76.8125C33.4167 77.8958 35.3958 78.4375 37.5625 78.4375C40.6875 78.4375 43.2083 77.4792 45.125 75.5625C47.0833 73.6458 48.0625 71 48.0625 67.625C48.0625 64.6667 47.1875 62.1875 45.4375 60.1875C43.6875 58.1875 41.3958 57.1875 38.5625 57.1875C37.1458 57.1875 35.875 57.4583 34.75 58C33.625 58.5 32.3958 59.3125 31.0625 60.4375C30.0208 61.3125 29.125 61.9167 28.375 62.25C27.625 62.5417 26.7708 62.6875 25.8125 62.6875C24.3125 62.6875 23.1458 62.1875 22.3125 61.1875C21.4792 60.1458 21.1042 58.7708 21.1875 57.0625L22.8125 37C22.8958 35.2917 23.4583 33.9583 24.5 33C25.5833 32 26.9792 31.5 28.6875 31.5H50.8125C51.7708 31.5 52.5417 31.8542 53.125 32.5625C53.7083 33.2292 54 34.0833 54 35.125C54 36.1667 53.6875 37.0417 53.0625 37.75C52.4792 38.4167 51.7292 38.75 50.8125 38.75H29.5L28.3125 55.3125H28.5625C29.5208 53.8542 31.0208 52.6458 33.0625 51.6875C35.1458 50.7292 37.25 50.25 39.375 50.25C44.375 50.25 48.3958 51.875 51.4375 55.125C54.5208 58.375 56.0625 62.4792 56.0625 67.4375C56.0625 73.1042 54.3333 77.5833 50.875 80.875C47.4167 84.125 42.8542 85.75 37.1875 85.75ZM81.4375 85.75C77.7292 85.75 74.5 84.625 71.75 82.375C69 80.125 66.8542 76.9375 65.3125 72.8125C63.7708 68.6458 63 63.6875 63 57.9375C63 52.1875 63.7708 47.25 65.3125 43.125C66.8542 38.9583 69 35.75 71.75 33.5C74.5 31.25 77.7292 30.125 81.4375 30.125C85.1458 30.125 88.375 31.25 91.125 33.5C93.9167 35.75 96.0625 38.9583 97.5625 43.125C99.1042 47.25 99.875 52.1875 99.875 57.9375C99.875 63.6875 99.1042 68.6458 97.5625 72.8125C96.0625 76.9375 93.9167 80.125 91.125 82.375C88.375 84.625 85.1458 85.75 81.4375 85.75ZM81.4375 77.875C84.5625 77.875 87 76.1042 88.75 72.5625C90.5417 68.9792 91.4375 64.1042 91.4375 57.9375C91.4375 51.7708 90.5417 46.9167 88.75 43.375C86.9583 39.7917 84.5208 38 81.4375 38C78.3958 38 75.9792 39.7917 74.1875 43.375C72.3958 46.9167 71.5 51.7708 71.5 57.9375C71.5 64.1042 72.3958 68.9792 74.1875 72.5625C75.9792 76.1042 78.3958 77.875 81.4375 77.875Z" fill="white"/>
</svg>
