<svg width="16" height="15" viewBox="0 0 16 15" fill="none" xmlns="http://www.w3.org/2000/svg">
<path d="M3.25781 14.5625H12.7344C13.5521 14.5625 14.1641 14.3594 14.5703 13.9531C14.9818 13.5521 15.1875 12.9479 15.1875 12.1406V2.60156C15.1875 1.79427 14.9818 1.1901 14.5703 0.789062C14.1641 0.382812 13.5521 0.179688 12.7344 0.179688H3.25781C2.4401 0.179688 1.82552 0.382812 1.41406 0.789062C1.00781 1.1901 0.804688 1.79427 0.804688 2.60156V12.1406C0.804688 12.9479 1.00781 13.5521 1.41406 13.9531C1.82552 14.3594 2.4401 14.5625 3.25781 14.5625ZM3.27344 13.3047C2.88281 13.3047 2.58333 13.2031 2.375 13C2.16667 12.7917 2.0625 12.4844 2.0625 12.0781V2.66406C2.0625 2.25781 2.16667 1.95312 2.375 1.75C2.58333 1.54167 2.88281 1.4375 3.27344 1.4375H12.7188C13.1042 1.4375 13.401 1.54167 13.6094 1.75C13.8229 1.95312 13.9297 2.25781 13.9297 2.66406V12.0781C13.9297 12.4844 13.8229 12.7917 13.6094 13C13.401 13.2031 13.1042 13.3047 12.7188 13.3047H3.27344ZM5.41406 10.7344C6.10156 10.7344 6.65365 10.5365 7.07031 10.1406C7.49219 9.74479 7.70312 9.20312 7.70312 8.51562C7.70312 7.91667 7.51562 7.42188 7.14062 7.03125C6.77083 6.63542 6.28385 6.4375 5.67969 6.4375C5.41927 6.4375 5.16406 6.49479 4.91406 6.60938C4.66406 6.72396 4.48177 6.86979 4.36719 7.04688H4.33594L4.47656 5.03906H7.0625C7.17188 5.03906 7.26302 4.9974 7.33594 4.91406C7.41406 4.83073 7.45312 4.72656 7.45312 4.60156C7.45312 4.47656 7.41667 4.3724 7.34375 4.28906C7.27083 4.20573 7.17708 4.16406 7.0625 4.16406H4.38281C4.17448 4.16406 4.00521 4.22396 3.875 4.34375C3.75 4.46354 3.68229 4.625 3.67188 4.82812L3.47656 7.26562C3.46615 7.46875 3.51042 7.63281 3.60938 7.75781C3.70833 7.8776 3.84896 7.9375 4.03125 7.9375C4.15104 7.9375 4.25521 7.91927 4.34375 7.88281C4.43229 7.84635 4.53906 7.77604 4.66406 7.67188C4.82552 7.53125 4.97396 7.42969 5.10938 7.36719C5.25 7.30469 5.40625 7.27344 5.57812 7.27344C5.92188 7.27344 6.20052 7.39583 6.41406 7.64062C6.6276 7.88021 6.73438 8.17969 6.73438 8.53906C6.73438 8.94531 6.61719 9.26562 6.38281 9.5C6.14844 9.73438 5.84115 9.85156 5.46094 9.85156C5.19531 9.85156 4.95312 9.78646 4.73438 9.65625C4.52083 9.52083 4.35938 9.33594 4.25 9.10156C4.19271 8.98698 4.125 8.90365 4.04688 8.85156C3.97396 8.79427 3.89062 8.76562 3.79688 8.76562C3.66667 8.76562 3.5599 8.8099 3.47656 8.89844C3.39844 8.98177 3.35938 9.08854 3.35938 9.21875C3.35938 9.28125 3.36458 9.34375 3.375 9.40625C3.39062 9.46354 3.40885 9.51823 3.42969 9.57031C3.54427 9.89323 3.78125 10.1693 4.14062 10.3984C4.5 10.6224 4.92448 10.7344 5.41406 10.7344ZM10.7812 10.7344C11.2292 10.7344 11.6198 10.599 11.9531 10.3281C12.2917 10.0521 12.5521 9.66406 12.7344 9.16406C12.9219 8.65885 13.0156 8.0599 13.0156 7.36719C13.0156 6.67448 12.9219 6.07552 12.7344 5.57031C12.5521 5.0651 12.2917 4.67708 11.9531 4.40625C11.6198 4.13542 11.2292 4 10.7812 4C10.3333 4 9.9401 4.13542 9.60156 4.40625C9.26823 4.67708 9.00781 5.0651 8.82031 5.57031C8.63802 6.07552 8.54688 6.67448 8.54688 7.36719C8.54688 8.0599 8.63802 8.65885 8.82031 9.16406C9.00781 9.66406 9.26823 10.0521 9.60156 10.3281C9.9401 10.599 10.3333 10.7344 10.7812 10.7344ZM10.7812 9.78906C10.4115 9.78906 10.1172 9.57292 9.89844 9.14062C9.67969 8.70833 9.57031 8.11719 9.57031 7.36719C9.57031 6.61719 9.67969 6.02604 9.89844 5.59375C10.1172 5.16146 10.4115 4.94531 10.7812 4.94531C11.1562 4.94531 11.4505 5.16146 11.6641 5.59375C11.8828 6.02604 11.9922 6.61719 11.9922 7.36719C11.9922 8.11719 11.8828 8.70833 11.6641 9.14062C11.4505 9.57292 11.1562 9.78906 10.7812 9.78906Z" fill="white"/>
</svg>
