<svg width="16" height="17" viewBox="0 0 16 17" fill="none" xmlns="http://www.w3.org/2000/svg">
<path d="M8 16.3281C9.08854 16.3281 10.112 16.1198 11.0703 15.7031C12.0339 15.2865 12.8828 14.7109 13.6172 13.9766C14.3516 13.2422 14.9271 12.3958 15.3438 11.4375C15.7604 10.474 15.9688 9.44792 15.9688 8.35938C15.9688 7.27083 15.7604 6.2474 15.3438 5.28906C14.9271 4.32552 14.3516 3.47656 13.6172 2.74219C12.8828 2.00781 12.0339 1.43229 11.0703 1.01562C10.1068 0.598958 9.08073 0.390625 7.99219 0.390625C6.90365 0.390625 5.8776 0.598958 4.91406 1.01562C3.95573 1.43229 3.10938 2.00781 2.375 2.74219C1.64583 3.47656 1.07292 4.32552 0.65625 5.28906C0.239583 6.2474 0.03125 7.27083 0.03125 8.35938C0.03125 9.44792 0.239583 10.474 0.65625 11.4375C1.07292 12.3958 1.64844 13.2422 2.38281 13.9766C3.11719 14.7109 3.96354 15.2865 4.92188 15.7031C5.88542 16.1198 6.91146 16.3281 8 16.3281ZM8 15C7.07812 15 6.21615 14.8281 5.41406 14.4844C4.61198 14.1406 3.90625 13.6667 3.29688 13.0625C2.69271 12.4531 2.21875 11.7474 1.875 10.9453C1.53646 10.1432 1.36719 9.28125 1.36719 8.35938C1.36719 7.4375 1.53646 6.57552 1.875 5.77344C2.21875 4.97135 2.69271 4.26562 3.29688 3.65625C3.90104 3.04688 4.60417 2.57292 5.40625 2.23438C6.20833 1.89062 7.07031 1.71875 7.99219 1.71875C8.91406 1.71875 9.77604 1.89062 10.5781 2.23438C11.3854 2.57292 12.0911 3.04688 12.6953 3.65625C13.3047 4.26562 13.7812 4.97135 14.125 5.77344C14.4688 6.57552 14.6406 7.4375 14.6406 8.35938C14.6406 9.28125 14.4688 10.1432 14.125 10.9453C13.7865 11.7474 13.3125 12.4531 12.7031 13.0625C12.0938 13.6667 11.388 14.1406 10.5859 14.4844C9.78385 14.8281 8.92188 15 8 15ZM8.00781 12.0781C8.54427 12.0781 9.01562 11.974 9.42188 11.7656C9.82812 11.5521 10.1458 11.2578 10.375 10.8828C10.6042 10.5078 10.7188 10.0781 10.7188 9.59375C10.7188 8.94792 10.5 8.41146 10.0625 7.98438C9.625 7.55729 9.0651 7.34375 8.38281 7.34375C8.11719 7.34375 7.85938 7.38802 7.60938 7.47656C7.36458 7.5651 7.17969 7.67708 7.05469 7.8125L6.97656 7.78906C7.01302 7.72656 7.0625 7.65365 7.125 7.57031C7.1875 7.48177 7.27865 7.35938 7.39844 7.20312C7.4974 7.07292 7.60156 6.9375 7.71094 6.79688C7.82031 6.65625 7.93229 6.51562 8.04688 6.375C8.16146 6.22917 8.27344 6.08854 8.38281 5.95312C8.49219 5.8125 8.59635 5.67969 8.69531 5.55469C8.8151 5.39844 8.875 5.25521 8.875 5.125C8.875 5.00521 8.83333 4.89583 8.75 4.79688C8.66667 4.69792 8.53125 4.64844 8.34375 4.64844C8.21875 4.64844 8.11458 4.68229 8.03125 4.75C7.95312 4.81771 7.88281 4.89062 7.82031 4.96875C7.6901 5.13542 7.5625 5.29948 7.4375 5.46094C7.31771 5.61719 7.20052 5.77083 7.08594 5.92188C6.97135 6.07292 6.85938 6.22135 6.75 6.36719C6.64062 6.50781 6.53385 6.64583 6.42969 6.78125C6.02865 7.3125 5.73698 7.80208 5.55469 8.25C5.3724 8.69271 5.28125 9.125 5.28125 9.54688C5.28125 10.2969 5.53125 10.9062 6.03125 11.375C6.53646 11.8438 7.19531 12.0781 8.00781 12.0781ZM8.00781 11.0938C7.54427 11.0938 7.15625 10.9557 6.84375 10.6797C6.53646 10.3984 6.38281 10.0521 6.38281 9.64062C6.38281 9.23438 6.53646 8.89844 6.84375 8.63281C7.15104 8.36198 7.53646 8.22656 8 8.22656C8.46875 8.22656 8.85677 8.36198 9.16406 8.63281C9.47135 8.90365 9.625 9.24479 9.625 9.65625C9.625 10.0625 9.47135 10.4036 9.16406 10.6797C8.85677 10.9557 8.47135 11.0938 8.00781 11.0938Z" fill="white"/>
</svg>
