<?xml version="1.0" encoding="UTF-8"?>
<svg xmlns="http://www.w3.org/2000/svg" xmlns:xlink="http://www.w3.org/1999/xlink" width="24" height="25.5" viewBox="0 0 24 25.5" version="1.1">
<g id="surface1">
<path style=" stroke:none;fill-rule:nonzero;fill:rgb(100%,100%,100%);fill-opacity:1;" d="M 12 24.492188 C 13.632812 24.492188 15.167969 24.179688 16.605469 23.554688 C 18.050781 22.929688 19.324219 22.066406 20.425781 20.964844 C 21.527344 19.863281 22.390625 18.59375 23.015625 17.15625 C 23.640625 15.710938 23.953125 14.171875 23.953125 12.539062 C 23.953125 10.90625 23.640625 9.371094 23.015625 7.933594 C 22.390625 6.488281 21.527344 5.214844 20.425781 4.113281 C 19.324219 3.011719 18.050781 2.148438 16.605469 1.523438 C 15.160156 0.898438 13.621094 0.585938 11.988281 0.585938 C 10.355469 0.585938 8.816406 0.898438 7.371094 1.523438 C 5.933594 2.148438 4.664062 3.011719 3.5625 4.113281 C 2.46875 5.214844 1.609375 6.488281 0.984375 7.933594 C 0.359375 9.371094 0.046875 10.90625 0.046875 12.539062 C 0.046875 14.171875 0.359375 15.710938 0.984375 17.15625 C 1.609375 18.59375 2.472656 19.863281 3.574219 20.964844 C 4.675781 22.066406 5.945312 22.929688 7.382812 23.554688 C 8.828125 24.179688 10.367188 24.492188 12 24.492188 Z M 12.023438 18.292969 C 10.765625 18.292969 9.746094 17.933594 8.964844 17.214844 C 8.191406 16.488281 7.804688 15.542969 7.804688 14.378906 C 7.804688 13.722656 7.945312 13.050781 8.226562 12.363281 C 8.507812 11.675781 8.957031 10.917969 9.574219 10.089844 C 9.730469 9.886719 9.894531 9.675781 10.066406 9.457031 C 10.238281 9.230469 10.414062 9 10.59375 8.765625 C 10.773438 8.53125 10.957031 8.292969 11.144531 8.050781 C 11.339844 7.808594 11.535156 7.554688 11.730469 7.289062 C 11.824219 7.171875 11.933594 7.0625 12.058594 6.960938 C 12.191406 6.851562 12.351562 6.796875 12.539062 6.796875 C 12.835938 6.796875 13.046875 6.875 13.171875 7.03125 C 13.304688 7.179688 13.371094 7.347656 13.371094 7.535156 C 13.371094 7.722656 13.277344 7.945312 13.089844 8.203125 C 12.941406 8.390625 12.78125 8.59375 12.609375 8.8125 C 12.4375 9.023438 12.261719 9.242188 12.082031 9.46875 C 11.910156 9.6875 11.738281 9.90625 11.566406 10.125 C 11.402344 10.34375 11.242188 10.550781 11.085938 10.746094 C 10.898438 10.988281 10.757812 11.175781 10.664062 11.308594 C 10.570312 11.441406 10.492188 11.558594 10.429688 11.660156 L 10.558594 11.695312 C 10.753906 11.484375 11.042969 11.3125 11.425781 11.179688 C 11.808594 11.039062 12.203125 10.96875 12.609375 10.96875 C 13.3125 10.96875 13.933594 11.121094 14.472656 11.425781 C 15.019531 11.730469 15.445312 12.144531 15.75 12.667969 C 16.0625 13.191406 16.21875 13.785156 16.21875 14.449219 C 16.21875 15.199219 16.039062 15.863281 15.679688 16.441406 C 15.328125 17.019531 14.835938 17.472656 14.203125 17.800781 C 13.578125 18.128906 12.851562 18.292969 12.023438 18.292969 Z M 12.023438 16.769531 C 12.742188 16.769531 13.335938 16.554688 13.804688 16.125 C 14.28125 15.695312 14.519531 15.167969 14.519531 14.542969 C 14.519531 13.902344 14.28125 13.375 13.804688 12.960938 C 13.328125 12.546875 12.730469 12.339844 12.011719 12.339844 C 11.300781 12.339844 10.707031 12.546875 10.230469 12.960938 C 9.753906 13.375 9.515625 13.894531 9.515625 14.519531 C 9.515625 15.160156 9.753906 15.695312 10.230469 16.125 C 10.714844 16.554688 11.3125 16.769531 12.023438 16.769531 Z M 12.023438 16.769531 "/>
</g>
</svg>
