<?xml version="1.0" encoding="UTF-8"?>
<svg xmlns="http://www.w3.org/2000/svg" xmlns:xlink="http://www.w3.org/1999/xlink" width="24" height="25.5" viewBox="0 0 24 25.5" version="1.1">
<g id="surface1">
<path style=" stroke:none;fill-rule:nonzero;fill:rgb(100%,100%,100%);fill-opacity:1;" d="M 12 24.492188 C 13.632812 24.492188 15.167969 24.179688 16.605469 23.554688 C 18.050781 22.929688 19.324219 22.066406 20.425781 20.964844 C 21.527344 19.863281 22.390625 18.59375 23.015625 17.15625 C 23.640625 15.710938 23.953125 14.171875 23.953125 12.539062 C 23.953125 10.90625 23.640625 9.371094 23.015625 7.933594 C 22.390625 6.488281 21.527344 5.214844 20.425781 4.113281 C 19.324219 3.011719 18.050781 2.148438 16.605469 1.523438 C 15.160156 0.898438 13.621094 0.585938 11.988281 0.585938 C 10.355469 0.585938 8.816406 0.898438 7.371094 1.523438 C 5.933594 2.148438 4.664062 3.011719 3.5625 4.113281 C 2.46875 5.214844 1.609375 6.488281 0.984375 7.933594 C 0.359375 9.371094 0.046875 10.90625 0.046875 12.539062 C 0.046875 14.171875 0.359375 15.710938 0.984375 17.15625 C 1.609375 18.59375 2.472656 19.863281 3.574219 20.964844 C 4.675781 22.066406 5.945312 22.929688 7.382812 23.554688 C 8.828125 24.179688 10.367188 24.492188 12 24.492188 Z M 12 22.5 C 10.617188 22.5 9.324219 22.242188 8.121094 21.726562 C 6.917969 21.210938 5.859375 20.5 4.945312 19.59375 C 4.039062 18.679688 3.328125 17.621094 2.8125 16.417969 C 2.304688 15.214844 2.050781 13.921875 2.050781 12.539062 C 2.050781 11.15625 2.304688 9.863281 2.8125 8.660156 C 3.328125 7.457031 4.039062 6.398438 4.945312 5.484375 C 5.851562 4.570312 6.90625 3.859375 8.109375 3.351562 C 9.3125 2.835938 10.605469 2.578125 11.988281 2.578125 C 13.371094 2.578125 14.664062 2.835938 15.867188 3.351562 C 17.078125 3.859375 18.136719 4.570312 19.042969 5.484375 C 19.957031 6.398438 20.671875 7.457031 21.1875 8.660156 C 21.703125 9.863281 21.960938 11.15625 21.960938 12.539062 C 21.960938 13.921875 21.703125 15.214844 21.1875 16.417969 C 20.679688 17.621094 19.96875 18.679688 19.054688 19.59375 C 18.140625 20.5 17.082031 21.210938 15.878906 21.726562 C 14.675781 22.242188 13.382812 22.5 12 22.5 Z M 12.082031 18.117188 C 13.261719 18.117188 14.226562 17.789062 14.976562 17.132812 C 15.726562 16.46875 16.101562 15.539062 16.101562 14.34375 C 16.101562 13.601562 15.933594 12.972656 15.597656 12.457031 C 15.269531 11.941406 14.835938 11.550781 14.296875 11.285156 C 13.757812 11.011719 13.179688 10.875 12.5625 10.875 C 11.773438 10.875 11.144531 11.042969 10.675781 11.378906 C 10.214844 11.714844 9.890625 12.09375 9.703125 12.515625 C 9.6875 12.515625 9.671875 12.515625 9.65625 12.515625 C 9.640625 12.515625 9.625 12.515625 9.609375 12.515625 C 9.609375 12.492188 9.609375 12.472656 9.609375 12.457031 C 9.609375 12.441406 9.609375 12.421875 9.609375 12.398438 C 9.609375 11.195312 9.859375 10.238281 10.359375 9.527344 C 10.859375 8.808594 11.507812 8.449219 12.304688 8.449219 C 12.710938 8.449219 13.039062 8.527344 13.289062 8.683594 C 13.546875 8.839844 13.757812 9.019531 13.921875 9.222656 C 14.109375 9.410156 14.273438 9.554688 14.414062 9.65625 C 14.554688 9.75 14.726562 9.796875 14.929688 9.796875 C 15.125 9.796875 15.289062 9.734375 15.421875 9.609375 C 15.5625 9.476562 15.632812 9.308594 15.632812 9.105469 C 15.632812 9.011719 15.625 8.925781 15.609375 8.847656 C 15.59375 8.761719 15.566406 8.675781 15.527344 8.589844 C 15.402344 8.300781 15.1875 8.035156 14.882812 7.792969 C 14.578125 7.542969 14.210938 7.34375 13.78125 7.195312 C 13.351562 7.039062 12.882812 6.960938 12.375 6.960938 C 10.992188 6.960938 9.898438 7.449219 9.09375 8.425781 C 8.289062 9.394531 7.886719 10.851562 7.886719 12.796875 C 7.886719 13.609375 7.953125 14.3125 8.085938 14.90625 C 8.226562 15.492188 8.417969 15.980469 8.660156 16.371094 C 9.042969 16.996094 9.535156 17.445312 10.136719 17.71875 C 10.746094 17.984375 11.394531 18.117188 12.082031 18.117188 Z M 12 16.710938 C 11.351562 16.710938 10.816406 16.496094 10.394531 16.066406 C 9.972656 15.628906 9.761719 15.078125 9.761719 14.414062 C 9.761719 13.773438 9.96875 13.246094 10.382812 12.832031 C 10.804688 12.417969 11.347656 12.210938 12.011719 12.210938 C 12.675781 12.210938 13.214844 12.417969 13.628906 12.832031 C 14.050781 13.238281 14.261719 13.769531 14.261719 14.425781 C 14.261719 15.113281 14.058594 15.667969 13.652344 16.089844 C 13.246094 16.503906 12.695312 16.710938 12 16.710938 Z M 12 16.710938 "/>
</g>
</svg>
