<?xml version="1.0" encoding="UTF-8"?>
<svg xmlns="http://www.w3.org/2000/svg" xmlns:xlink="http://www.w3.org/1999/xlink" width="24" height="22.5" viewBox="0 0 24 22.5" version="1.1">
<g id="surface1">
<path style=" stroke:none;fill-rule:nonzero;fill:rgb(100%,100%,100%);fill-opacity:1;" d="M 4.886719 21.84375 L 19.101562 21.84375 C 20.328125 21.84375 21.246094 21.539062 21.855469 20.929688 C 22.472656 20.328125 22.78125 19.421875 22.78125 18.210938 L 22.78125 3.902344 C 22.78125 2.691406 22.472656 1.785156 21.855469 1.183594 C 21.246094 0.574219 20.328125 0.269531 19.101562 0.269531 L 4.886719 0.269531 C 3.660156 0.269531 2.738281 0.574219 2.121094 1.183594 C 1.511719 1.785156 1.207031 2.691406 1.207031 3.902344 L 1.207031 18.210938 C 1.207031 19.421875 1.511719 20.328125 2.121094 20.929688 C 2.738281 21.539062 3.660156 21.84375 4.886719 21.84375 Z M 12.09375 16.792969 C 11.382812 16.792969 10.714844 16.65625 10.089844 16.382812 C 9.472656 16.101562 8.964844 15.636719 8.566406 14.988281 C 8.316406 14.582031 8.121094 14.078125 7.980469 13.476562 C 7.839844 12.867188 7.769531 12.144531 7.769531 11.308594 C 7.769531 9.292969 8.183594 7.785156 9.011719 6.785156 C 9.839844 5.785156 10.96875 5.285156 12.398438 5.285156 C 12.921875 5.285156 13.40625 5.363281 13.851562 5.519531 C 14.296875 5.675781 14.675781 5.882812 14.988281 6.140625 C 15.308594 6.390625 15.53125 6.664062 15.65625 6.960938 C 15.695312 7.054688 15.722656 7.144531 15.738281 7.230469 C 15.753906 7.308594 15.761719 7.398438 15.761719 7.5 C 15.761719 7.710938 15.691406 7.882812 15.550781 8.015625 C 15.410156 8.148438 15.238281 8.214844 15.035156 8.214844 C 14.824219 8.214844 14.644531 8.164062 14.496094 8.0625 C 14.355469 7.953125 14.1875 7.804688 13.992188 7.617188 C 13.820312 7.40625 13.605469 7.222656 13.347656 7.066406 C 13.089844 6.910156 12.75 6.832031 12.328125 6.832031 C 11.507812 6.832031 10.839844 7.199219 10.324219 7.933594 C 9.808594 8.667969 9.550781 9.652344 9.550781 10.886719 C 9.550781 10.910156 9.550781 10.929688 9.550781 10.945312 C 9.550781 10.960938 9.550781 10.984375 9.550781 11.015625 C 9.566406 11.015625 9.582031 11.015625 9.597656 11.015625 C 9.613281 11.015625 9.628906 11.015625 9.644531 11.015625 C 9.839844 10.570312 10.175781 10.175781 10.652344 9.832031 C 11.136719 9.488281 11.785156 9.316406 12.597656 9.316406 C 13.238281 9.316406 13.832031 9.457031 14.378906 9.738281 C 14.933594 10.011719 15.382812 10.417969 15.726562 10.957031 C 16.070312 11.488281 16.242188 12.136719 16.242188 12.902344 C 16.242188 14.136719 15.855469 15.09375 15.082031 15.773438 C 14.308594 16.453125 13.3125 16.792969 12.09375 16.792969 Z M 12.011719 15.339844 C 12.722656 15.339844 13.289062 15.125 13.710938 14.695312 C 14.132812 14.265625 14.34375 13.695312 14.34375 12.984375 C 14.34375 12.3125 14.128906 11.765625 13.699219 11.34375 C 13.269531 10.914062 12.710938 10.699219 12.023438 10.699219 C 11.34375 10.699219 10.785156 10.914062 10.347656 11.34375 C 9.917969 11.765625 9.703125 12.308594 9.703125 12.972656 C 9.703125 13.652344 9.917969 14.21875 10.347656 14.671875 C 10.785156 15.117188 11.339844 15.339844 12.011719 15.339844 Z M 12.011719 15.339844 "/>
</g>
</svg>
