<svg width="16" height="15" viewBox="0 0 16 15" fill="none" xmlns="http://www.w3.org/2000/svg">
<path d="M3.25781 14.5625H12.7344C13.5521 14.5625 14.1641 14.3594 14.5703 13.9531C14.9818 13.5521 15.1875 12.9479 15.1875 12.1406V2.60156C15.1875 1.79427 14.9818 1.1901 14.5703 0.789062C14.1641 0.382812 13.5521 0.179688 12.7344 0.179688H3.25781C2.4401 0.179688 1.82552 0.382812 1.41406 0.789062C1.00781 1.1901 0.804688 1.79427 0.804688 2.60156V12.1406C0.804688 12.9479 1.00781 13.5521 1.41406 13.9531C1.82552 14.3594 2.4401 14.5625 3.25781 14.5625ZM3.27344 13.3047C2.88281 13.3047 2.58333 13.2031 2.375 13C2.16667 12.7917 2.0625 12.4844 2.0625 12.0781V2.66406C2.0625 2.25781 2.16667 1.95312 2.375 1.75C2.58333 1.54167 2.88281 1.4375 3.27344 1.4375H12.7188C13.1042 1.4375 13.401 1.54167 13.6094 1.75C13.8229 1.95312 13.9297 2.25781 13.9297 2.66406V12.0781C13.9297 12.4844 13.8229 12.7917 13.6094 13C13.401 13.2031 13.1042 13.3047 12.7188 13.3047H3.27344ZM8.0625 11.0781C8.84896 11.0781 9.49219 10.8594 9.99219 10.4219C10.4922 9.97917 10.7422 9.35938 10.7422 8.5625C10.7422 8.06771 10.6302 7.64844 10.4062 7.30469C10.1875 6.96094 9.89844 6.70052 9.53906 6.52344C9.17969 6.34115 8.79427 6.25 8.38281 6.25C7.85677 6.25 7.4375 6.36198 7.125 6.58594C6.81771 6.8099 6.60156 7.0625 6.47656 7.34375C6.46615 7.34375 6.45573 7.34375 6.44531 7.34375C6.4349 7.34375 6.42448 7.34375 6.41406 7.34375C6.41406 7.32812 6.41406 7.3151 6.41406 7.30469C6.41406 7.29427 6.41406 7.28125 6.41406 7.26562C6.41406 6.46354 6.58073 5.82552 6.91406 5.35156C7.2474 4.8724 7.67969 4.63281 8.21094 4.63281C8.48177 4.63281 8.70052 4.6849 8.86719 4.78906C9.03906 4.89323 9.17969 5.01302 9.28906 5.14844C9.41406 5.27344 9.52344 5.36979 9.61719 5.4375C9.71094 5.5 9.82552 5.53125 9.96094 5.53125C10.0911 5.53125 10.2005 5.48958 10.2891 5.40625C10.3828 5.31771 10.4297 5.20573 10.4297 5.07031C10.4297 5.00781 10.4245 4.95052 10.4141 4.89844C10.4036 4.84115 10.3854 4.78385 10.3594 4.72656C10.276 4.53385 10.1328 4.35677 9.92969 4.19531C9.72656 4.02865 9.48177 3.89583 9.19531 3.79688C8.90885 3.69271 8.59635 3.64062 8.25781 3.64062C7.33594 3.64062 6.60677 3.96615 6.07031 4.61719C5.53385 5.26302 5.26562 6.23438 5.26562 7.53125C5.26562 8.07292 5.3099 8.54167 5.39844 8.9375C5.49219 9.32812 5.61979 9.65365 5.78125 9.91406C6.03646 10.3307 6.36458 10.6302 6.76562 10.8125C7.17188 10.9896 7.60417 11.0781 8.0625 11.0781ZM8.00781 10.1406C7.57552 10.1406 7.21875 9.9974 6.9375 9.71094C6.65625 9.41927 6.51562 9.05208 6.51562 8.60938C6.51562 8.18229 6.65365 7.83073 6.92969 7.55469C7.21094 7.27865 7.57292 7.14062 8.01562 7.14062C8.45833 7.14062 8.81771 7.27865 9.09375 7.55469C9.375 7.82552 9.51562 8.17969 9.51562 8.61719C9.51562 9.07552 9.38021 9.44531 9.10938 9.72656C8.83854 10.0026 8.47135 10.1406 8.00781 10.1406Z" fill="white"/>
</svg>
