<svg width="16" height="17" viewBox="0 0 16 17" fill="none" xmlns="http://www.w3.org/2000/svg">
<path d="M8 16.3281C9.08854 16.3281 10.112 16.1198 11.0703 15.7031C12.0339 15.2865 12.8828 14.7109 13.6172 13.9766C14.3516 13.2422 14.9271 12.3958 15.3438 11.4375C15.7604 10.474 15.9688 9.44792 15.9688 8.35938C15.9688 7.27083 15.7604 6.2474 15.3438 5.28906C14.9271 4.32552 14.3516 3.47656 13.6172 2.74219C12.8828 2.00781 12.0339 1.43229 11.0703 1.01562C10.1068 0.598958 9.08073 0.390625 7.99219 0.390625C6.90365 0.390625 5.8776 0.598958 4.91406 1.01562C3.95573 1.43229 3.10938 2.00781 2.375 2.74219C1.64583 3.47656 1.07292 4.32552 0.65625 5.28906C0.239583 6.2474 0.03125 7.27083 0.03125 8.35938C0.03125 9.44792 0.239583 10.474 0.65625 11.4375C1.07292 12.3958 1.64844 13.2422 2.38281 13.9766C3.11719 14.7109 3.96354 15.2865 4.92188 15.7031C5.88542 16.1198 6.91146 16.3281 8 16.3281ZM8 15C7.07812 15 6.21615 14.8281 5.41406 14.4844C4.61198 14.1406 3.90625 13.6667 3.29688 13.0625C2.69271 12.4531 2.21875 11.7474 1.875 10.9453C1.53646 10.1432 1.36719 9.28125 1.36719 8.35938C1.36719 7.4375 1.53646 6.57552 1.875 5.77344C2.21875 4.97135 2.69271 4.26562 3.29688 3.65625C3.90104 3.04688 4.60417 2.57292 5.40625 2.23438C6.20833 1.89062 7.07031 1.71875 7.99219 1.71875C8.91406 1.71875 9.77604 1.89062 10.5781 2.23438C11.3854 2.57292 12.0911 3.04688 12.6953 3.65625C13.3047 4.26562 13.7812 4.97135 14.125 5.77344C14.4688 6.57552 14.6406 7.4375 14.6406 8.35938C14.6406 9.28125 14.4688 10.1432 14.125 10.9453C13.7865 11.7474 13.3125 12.4531 12.7031 13.0625C12.0938 13.6667 11.388 14.1406 10.5859 14.4844C9.78385 14.8281 8.92188 15 8 15ZM6.94531 12.0703C7.08073 12.0703 7.19531 12.0391 7.28906 11.9766C7.38802 11.9089 7.47656 11.7969 7.55469 11.6406L10.4688 6.17969C10.5417 6.03906 10.5911 5.92448 10.6172 5.83594C10.6432 5.74219 10.6562 5.65365 10.6562 5.57031C10.6562 5.35677 10.5781 5.17969 10.4219 5.03906C10.2656 4.89323 10.0599 4.82031 9.80469 4.82031H5.99219C5.85156 4.82031 5.73698 4.86458 5.64844 4.95312C5.5651 5.04167 5.52344 5.15625 5.52344 5.29688C5.52344 5.4375 5.56771 5.55469 5.65625 5.64844C5.74479 5.73698 5.85677 5.78125 5.99219 5.78125H9.30469V5.84375L6.42969 11.1094C6.35677 11.2396 6.32031 11.3724 6.32031 11.5078C6.32031 11.6745 6.38021 11.8099 6.5 11.9141C6.625 12.0182 6.77344 12.0703 6.94531 12.0703Z" fill="white"/>
</svg>
