<svg width="128" height="128" viewBox="0 0 128 128" fill="none" xmlns="http://www.w3.org/2000/svg">
<path d="M63.9375 127.625C72.6458 127.625 80.8333 125.958 88.5 122.625C96.2083 119.292 103 114.688 108.875 108.812C114.75 102.938 119.354 96.1667 122.688 88.5C126.021 80.7917 127.688 72.5833 127.688 63.875C127.688 55.1667 126.021 46.9792 122.688 39.3125C119.354 31.6042 114.75 24.8125 108.875 18.9375C103 13.0625 96.2083 8.45833 88.5 5.125C80.7917 1.79167 72.5833 0.125 63.875 0.125C55.1667 0.125 46.9583 1.79167 39.25 5.125C31.5833 8.45833 24.8125 13.0625 18.9375 18.9375C13.1042 24.8125 8.52083 31.6042 5.1875 39.3125C1.85417 46.9792 0.1875 55.1667 0.1875 63.875C0.1875 72.5833 1.85417 80.7917 5.1875 88.5C8.52083 96.1667 13.125 102.938 19 108.812C24.875 114.688 31.6458 119.292 39.3125 122.625C47.0208 125.958 55.2292 127.625 63.9375 127.625ZM63.9375 117C56.5625 117 49.6667 115.625 43.25 112.875C36.8333 110.125 31.1875 106.333 26.3125 101.5C21.4792 96.625 17.6875 90.9792 14.9375 84.5625C12.2292 78.1458 10.875 71.25 10.875 63.875C10.875 56.5 12.2292 49.6042 14.9375 43.1875C17.6875 36.7708 21.4792 31.125 26.3125 26.25C31.1458 21.375 36.7708 17.5833 43.1875 14.875C49.6042 12.125 56.5 10.75 63.875 10.75C71.25 10.75 78.1458 12.125 84.5625 14.875C91.0208 17.5833 96.6667 21.375 101.5 26.25C106.375 31.125 110.188 36.7708 112.938 43.1875C115.688 49.6042 117.062 56.5 117.062 63.875C117.062 71.25 115.688 78.1458 112.938 84.5625C110.229 90.9792 106.438 96.625 101.562 101.5C96.6875 106.333 91.0417 110.125 84.625 112.875C78.2083 115.625 71.3125 117 63.9375 117ZM55.5 93.5625C56.5833 93.5625 57.5 93.3125 58.25 92.8125C59.0417 92.2708 59.75 91.375 60.375 90.125L83.6875 46.4375C84.2708 45.3125 84.6667 44.3958 84.875 43.6875C85.0833 42.9375 85.1875 42.2292 85.1875 41.5625C85.1875 39.8542 84.5625 38.4375 83.3125 37.3125C82.0625 36.1458 80.4167 35.5625 78.375 35.5625H47.875C46.75 35.5625 45.8333 35.9167 45.125 36.625C44.4583 37.3333 44.125 38.25 44.125 39.375C44.125 40.5 44.4792 41.4375 45.1875 42.1875C45.8958 42.8958 46.7917 43.25 47.875 43.25H74.375V43.75L51.375 85.875C50.7917 86.9167 50.5 87.9792 50.5 89.0625C50.5 90.3958 50.9792 91.4792 51.9375 92.3125C52.9375 93.1458 54.125 93.5625 55.5 93.5625Z" fill="white"/>
</svg>
