<svg width="16" height="15" viewBox="0 0 16 15" fill="none" xmlns="http://www.w3.org/2000/svg">
<path d="M3.25781 14.5625H12.7344C13.5521 14.5625 14.1641 14.3594 14.5703 13.9531C14.9818 13.5521 15.1875 12.9479 15.1875 12.1406V2.60156C15.1875 1.79427 14.9818 1.1901 14.5703 0.789062C14.1641 0.382812 13.5521 0.179688 12.7344 0.179688H3.25781C2.4401 0.179688 1.82552 0.382812 1.41406 0.789062C1.00781 1.1901 0.804688 1.79427 0.804688 2.60156V12.1406C0.804688 12.9479 1.00781 13.5521 1.41406 13.9531C1.82552 14.3594 2.4401 14.5625 3.25781 14.5625ZM3.27344 13.3047C2.88281 13.3047 2.58333 13.2031 2.375 13C2.16667 12.7917 2.0625 12.4844 2.0625 12.0781V2.66406C2.0625 2.25781 2.16667 1.95312 2.375 1.75C2.58333 1.54167 2.88281 1.4375 3.27344 1.4375H12.7188C13.1042 1.4375 13.401 1.54167 13.6094 1.75C13.8229 1.95312 13.9297 2.25781 13.9297 2.66406V12.0781C13.9297 12.4844 13.8229 12.7917 13.6094 13C13.401 13.2031 13.1042 13.3047 12.7188 13.3047H3.27344ZM7.98438 11.0781C8.8125 11.0781 9.48438 10.8828 10 10.4922C10.5156 10.1016 10.7734 9.59115 10.7734 8.96094C10.7734 8.52865 10.6276 8.14844 10.3359 7.82031C10.0495 7.49219 9.67188 7.28125 9.20312 7.1875V7.14062C9.59375 7.02604 9.90365 6.82552 10.1328 6.53906C10.362 6.2474 10.4766 5.91146 10.4766 5.53125C10.4766 4.97396 10.2448 4.52083 9.78125 4.17188C9.31771 3.81771 8.72396 3.64062 8 3.64062C7.27083 3.64062 6.67448 3.81771 6.21094 4.17188C5.7474 4.52083 5.51562 4.97396 5.51562 5.53125C5.51562 5.91146 5.6276 6.24479 5.85156 6.53125C6.08073 6.81771 6.39323 7.02083 6.78906 7.14062V7.1875C6.32031 7.28125 5.9401 7.49479 5.64844 7.82812C5.36198 8.15625 5.21875 8.53646 5.21875 8.96875C5.21875 9.59896 5.47135 10.1094 5.97656 10.5C6.48698 10.8854 7.15625 11.0781 7.98438 11.0781ZM8.00781 10.2188C7.54427 10.2188 7.16146 10.0964 6.85938 9.85156C6.55729 9.60156 6.40625 9.28646 6.40625 8.90625C6.40625 8.53646 6.55729 8.22917 6.85938 7.98438C7.16667 7.73438 7.54948 7.60938 8.00781 7.60938C8.47135 7.60938 8.85156 7.73177 9.14844 7.97656C9.44531 8.22135 9.59375 8.53125 9.59375 8.90625C9.59375 9.28646 9.44271 9.60156 9.14062 9.85156C8.84375 10.0964 8.46615 10.2188 8.00781 10.2188ZM8 6.78906C7.60938 6.78906 7.28906 6.67969 7.03906 6.46094C6.78906 6.24219 6.66406 5.96615 6.66406 5.63281C6.66406 5.30469 6.78906 5.03385 7.03906 4.82031C7.28906 4.60677 7.60938 4.5 8 4.5C8.39062 4.5 8.70833 4.60677 8.95312 4.82031C9.20312 5.03385 9.32812 5.30469 9.32812 5.63281C9.32812 5.96615 9.20312 6.24219 8.95312 6.46094C8.70312 6.67969 8.38542 6.78906 8 6.78906Z" fill="white"/>
</svg>
