<svg width="16" height="15" viewBox="0 0 16 15" fill="none" xmlns="http://www.w3.org/2000/svg">
<path d="M3.25781 14.5625H12.7344C13.5521 14.5625 14.1641 14.3594 14.5703 13.9531C14.9818 13.5521 15.1875 12.9479 15.1875 12.1406V2.60156C15.1875 1.79427 14.9818 1.1901 14.5703 0.789062C14.1641 0.382812 13.5521 0.179688 12.7344 0.179688H3.25781C2.4401 0.179688 1.82552 0.382812 1.41406 0.789062C1.00781 1.1901 0.804688 1.79427 0.804688 2.60156V12.1406C0.804688 12.9479 1.00781 13.5521 1.41406 13.9531C1.82552 14.3594 2.4401 14.5625 3.25781 14.5625ZM3.27344 13.3047C2.88281 13.3047 2.58333 13.2031 2.375 13C2.16667 12.7917 2.0625 12.4844 2.0625 12.0781V2.66406C2.0625 2.25781 2.16667 1.95312 2.375 1.75C2.58333 1.54167 2.88281 1.4375 3.27344 1.4375H12.7188C13.1042 1.4375 13.401 1.54167 13.6094 1.75C13.8229 1.95312 13.9297 2.25781 13.9297 2.66406V12.0781C13.9297 12.4844 13.8229 12.7917 13.6094 13C13.401 13.2031 13.1042 13.3047 12.7188 13.3047H3.27344ZM5.28906 6.125C5.28906 6.78125 5.51042 7.32292 5.95312 7.75C6.39583 8.17708 6.95573 8.39062 7.63281 8.39062C7.89323 8.39062 8.14844 8.34896 8.39844 8.26562C8.64844 8.17708 8.83854 8.0651 8.96875 7.92969H9.07031C9.03906 7.98698 8.99219 8.05729 8.92969 8.14062C8.8724 8.22396 8.80208 8.31771 8.71875 8.42188C8.50521 8.69792 8.27344 8.98698 8.02344 9.28906C7.77865 9.58594 7.53906 9.8776 7.30469 10.1641C7.24219 10.237 7.19531 10.3125 7.16406 10.3906C7.13281 10.4635 7.11719 10.5365 7.11719 10.6094C7.11719 10.7292 7.16406 10.8359 7.25781 10.9297C7.35156 11.0234 7.47656 11.0703 7.63281 11.0703C7.78385 11.0703 7.90104 11.0286 7.98438 10.9453C8.06771 10.862 8.16406 10.75 8.27344 10.6094C8.41406 10.4427 8.56771 10.2526 8.73438 10.0391C8.90104 9.82552 9.06771 9.61198 9.23438 9.39844C9.40104 9.17969 9.55208 8.97656 9.6875 8.78906C10.0521 8.3099 10.3203 7.86198 10.4922 7.44531C10.6693 7.02865 10.7578 6.60938 10.7578 6.1875C10.7578 5.42708 10.5026 4.8125 9.99219 4.34375C9.48698 3.875 8.83073 3.64062 8.02344 3.64062C7.21094 3.64062 6.55208 3.8724 6.04688 4.33594C5.54167 4.79948 5.28906 5.39583 5.28906 6.125ZM6.39062 6.07812C6.39062 5.66146 6.54427 5.31771 6.85156 5.04688C7.16406 4.77083 7.55208 4.63281 8.01562 4.63281C8.47917 4.63281 8.86719 4.77083 9.17969 5.04688C9.49219 5.32292 9.64844 5.66667 9.64844 6.07812C9.64844 6.49479 9.49219 6.83854 9.17969 7.10938C8.8724 7.38021 8.48698 7.51562 8.02344 7.51562C7.55469 7.51562 7.16406 7.38021 6.85156 7.10938C6.54427 6.83854 6.39062 6.49479 6.39062 6.07812Z" fill="white"/>
</svg>
