<svg width="128" height="128" viewBox="0 0 128 128" fill="none" xmlns="http://www.w3.org/2000/svg">
<path d="M63.9375 127.625C72.6458 127.625 80.8333 125.958 88.5 122.625C96.2083 119.292 103 114.688 108.875 108.812C114.75 102.938 119.354 96.1667 122.688 88.5C126.021 80.7917 127.688 72.5833 127.688 63.875C127.688 55.1667 126.021 46.9792 122.688 39.3125C119.354 31.6042 114.75 24.8125 108.875 18.9375C103 13.0625 96.2083 8.45833 88.5 5.125C80.7917 1.79167 72.5833 0.125 63.875 0.125C55.1667 0.125 46.9583 1.79167 39.25 5.125C31.5833 8.45833 24.8125 13.0625 18.9375 18.9375C13.1042 24.8125 8.52083 31.6042 5.1875 39.3125C1.85417 46.9792 0.1875 55.1667 0.1875 63.875C0.1875 72.5833 1.85417 80.7917 5.1875 88.5C8.52083 96.1667 13.125 102.938 19 108.812C24.875 114.688 31.6458 119.292 39.3125 122.625C47.0208 125.958 55.2292 127.625 63.9375 127.625ZM41.5625 53.6875C41.5625 49.6875 42.5 46.1458 44.375 43.0625C46.2917 39.9792 48.9375 37.5625 52.3125 35.8125C55.7292 34.0625 59.6667 33.1875 64.125 33.1875C70.7917 33.1875 76.2083 35.125 80.375 39C84.5833 42.875 86.6875 47.9375 86.6875 54.1875C86.6875 57.6875 85.9583 61.1667 84.5 64.625C83.0833 68.0417 80.875 71.7292 77.875 75.6875C76.75 77.2292 75.5 78.8958 74.125 80.6875C72.75 82.4792 71.375 84.25 70 86C68.625 87.75 67.375 89.3125 66.25 90.6875C65.3333 91.8542 64.5208 92.7917 63.8125 93.5C63.1458 94.1667 62.1875 94.5 60.9375 94.5C59.6042 94.5 58.5417 94.1042 57.75 93.3125C57 92.5208 56.625 91.6458 56.625 90.6875C56.625 90.0625 56.75 89.4583 57 88.875C57.25 88.25 57.6458 87.625 58.1875 87C60.1042 84.6667 62.0625 82.2708 64.0625 79.8125C66.1042 77.3125 68.0208 74.9167 69.8125 72.625C70.5208 71.7917 71.125 71.0417 71.625 70.375C72.125 69.6667 72.5 69.0833 72.75 68.625H71.875C70.7917 69.75 69.2292 70.6667 67.1875 71.375C65.1458 72.0417 63.0417 72.375 60.875 72.375C57.1667 72.375 53.8542 71.5833 50.9375 70C48.0208 68.375 45.7292 66.1458 44.0625 63.3125C42.3958 60.4792 41.5625 57.2708 41.5625 53.6875ZM50.6875 53.3125C50.6875 56.7292 51.9583 59.5625 54.5 61.8125C57.0833 64.0208 60.2917 65.125 64.125 65.125C67.9167 65.125 71.0833 64.0208 73.625 61.8125C76.2083 59.5625 77.5 56.7292 77.5 53.3125C77.5 49.9375 76.2083 47.125 73.625 44.875C71.0417 42.5833 67.8542 41.4375 64.0625 41.4375C60.2708 41.4375 57.0833 42.5625 54.5 44.8125C51.9583 47.0625 50.6875 49.8958 50.6875 53.3125Z" fill="white"/>
</svg>
