<svg width="128" height="128" viewBox="0 0 128 128" fill="none" xmlns="http://www.w3.org/2000/svg">
<path d="M63.9375 127.625C72.6458 127.625 80.8333 125.958 88.5 122.625C96.2083 119.292 103 114.688 108.875 108.812C114.75 102.938 119.354 96.1667 122.688 88.5C126.021 80.7917 127.688 72.5833 127.688 63.875C127.688 55.1667 126.021 46.9792 122.688 39.3125C119.354 31.6042 114.75 24.8125 108.875 18.9375C103 13.0625 96.2083 8.45833 88.5 5.125C80.7917 1.79167 72.5833 0.125 63.875 0.125C55.1667 0.125 46.9583 1.79167 39.25 5.125C31.5833 8.45833 24.8125 13.0625 18.9375 18.9375C13.1042 24.8125 8.52083 31.6042 5.1875 39.3125C1.85417 46.9792 0.1875 55.1667 0.1875 63.875C0.1875 72.5833 1.85417 80.7917 5.1875 88.5C8.52083 96.1667 13.125 102.938 19 108.812C24.875 114.688 31.6458 119.292 39.3125 122.625C47.0208 125.958 55.2292 127.625 63.9375 127.625ZM63.9375 117C56.5625 117 49.6667 115.625 43.25 112.875C36.8333 110.125 31.1875 106.333 26.3125 101.5C21.4792 96.625 17.6875 90.9792 14.9375 84.5625C12.2292 78.1458 10.875 71.25 10.875 63.875C10.875 56.5 12.2292 49.6042 14.9375 43.1875C17.6875 36.7708 21.4792 31.125 26.3125 26.25C31.1458 21.375 36.7708 17.5833 43.1875 14.875C49.6042 12.125 56.5 10.75 63.875 10.75C71.25 10.75 78.1458 12.125 84.5625 14.875C91.0208 17.5833 96.6667 21.375 101.5 26.25C106.375 31.125 110.188 36.7708 112.938 43.1875C115.688 49.6042 117.062 56.5 117.062 63.875C117.062 71.25 115.688 78.1458 112.938 84.5625C110.229 90.9792 106.438 96.625 101.562 101.5C96.6875 106.333 91.0417 110.125 84.625 112.875C78.2083 115.625 71.3125 117 63.9375 117ZM62.3125 93.625C69.8542 93.625 75.625 90.9583 79.625 85.625C83.625 80.25 85.625 72.3333 85.625 61.875C85.625 52.875 83.6875 46 79.8125 41.25C75.9375 36.5 70.4792 34.125 63.4375 34.125C59.1458 34.125 55.3958 34.9583 52.1875 36.625C49.0208 38.25 46.5625 40.5625 44.8125 43.5625C43.0625 46.5208 42.1875 50.0208 42.1875 54.0625C42.1875 57.9792 43.0625 61.3125 44.8125 64.0625C46.5625 66.8125 48.8542 68.9167 51.6875 70.375C54.5625 71.7917 57.625 72.5 60.875 72.5C65.0417 72.5 68.375 71.625 70.875 69.875C73.375 68.0833 75.125 66.0417 76.125 63.75H76.5625C76.6458 70.625 75.3542 76 72.6875 79.875C70.0625 83.75 66.5833 85.6875 62.25 85.6875C60.0833 85.6875 58.2292 85.25 56.6875 84.375C55.1458 83.4583 53.7292 82.125 52.4375 80.375C51.8958 79.6667 51.2917 79.0833 50.625 78.625C50 78.125 49.1875 77.875 48.1875 77.875C46.9792 77.875 45.9792 78.25 45.1875 79C44.4375 79.75 44.0625 80.7292 44.0625 81.9375C44.0625 82.3125 44.0833 82.6667 44.125 83C44.2083 83.3333 44.3125 83.6875 44.4375 84.0625C44.9375 85.5208 45.9167 86.9792 47.375 88.4375C48.875 89.8958 50.8542 91.125 53.3125 92.125C55.8125 93.125 58.8125 93.625 62.3125 93.625ZM63.8125 65.4375C60.2708 65.4375 57.3958 64.3333 55.1875 62.125C52.9792 59.875 51.875 57.0417 51.875 53.625C51.875 50 52.9583 47.0833 55.125 44.875C57.3333 42.6667 60.25 41.5625 63.875 41.5625C67.2917 41.5625 70.125 42.7083 72.375 45C74.6667 47.2917 75.8125 50.2083 75.8125 53.75C75.8125 57.125 74.6875 59.9167 72.4375 62.125C70.1875 64.3333 67.3125 65.4375 63.8125 65.4375Z" fill="white"/>
</svg>
