<svg width="116" height="116" viewBox="0 0 116 116" fill="none" xmlns="http://www.w3.org/2000/svg">
<path d="M20.5625 115.5H96.375C102.917 115.5 107.812 113.875 111.062 110.625C114.354 107.417 116 102.583 116 96.125V19.8125C116 13.3542 114.354 8.52083 111.062 5.3125C107.812 2.0625 102.917 0.4375 96.375 0.4375H20.5625C14.0208 0.4375 9.10417 2.0625 5.8125 5.3125C2.5625 8.52083 0.9375 13.3542 0.9375 19.8125V96.125C0.9375 102.583 2.5625 107.417 5.8125 110.625C9.10417 113.875 14.0208 115.5 20.5625 115.5ZM20.6875 105.438C17.5625 105.438 15.1667 104.625 13.5 103C11.8333 101.333 11 98.875 11 95.625V20.3125C11 17.0625 11.8333 14.625 13.5 13C15.1667 11.3333 17.5625 10.5 20.6875 10.5H96.25C99.3333 10.5 101.708 11.3333 103.375 13C105.083 14.625 105.938 17.0625 105.938 20.3125V95.625C105.938 98.875 105.083 101.333 103.375 103C101.708 104.625 99.3333 105.438 96.25 105.438H20.6875ZM56.9375 87.625C64.4792 87.625 70.25 84.9583 74.25 79.625C78.25 74.25 80.25 66.3333 80.25 55.875C80.25 46.875 78.3125 40 74.4375 35.25C70.5625 30.5 65.1042 28.125 58.0625 28.125C53.7708 28.125 50.0208 28.9583 46.8125 30.625C43.6458 32.25 41.1875 34.5625 39.4375 37.5625C37.6875 40.5208 36.8125 44.0208 36.8125 48.0625C36.8125 51.9792 37.6875 55.3125 39.4375 58.0625C41.1875 60.8125 43.4792 62.9167 46.3125 64.375C49.1875 65.7917 52.25 66.5 55.5 66.5C59.6667 66.5 63 65.625 65.5 63.875C68 62.0833 69.75 60.0417 70.75 57.75H71.1875C71.2708 64.625 69.9792 70 67.3125 73.875C64.6875 77.75 61.2083 79.6875 56.875 79.6875C54.7083 79.6875 52.8542 79.25 51.3125 78.375C49.7708 77.4583 48.3542 76.125 47.0625 74.375C46.5208 73.6667 45.9167 73.0833 45.25 72.625C44.625 72.125 43.8125 71.875 42.8125 71.875C41.6042 71.875 40.6042 72.25 39.8125 73C39.0625 73.75 38.6875 74.7292 38.6875 75.9375C38.6875 76.3125 38.7083 76.6667 38.75 77C38.8333 77.3333 38.9375 77.6875 39.0625 78.0625C39.5625 79.5208 40.5417 80.9792 42 82.4375C43.5 83.8958 45.4792 85.125 47.9375 86.125C50.4375 87.125 53.4375 87.625 56.9375 87.625ZM58.4375 59.4375C54.8958 59.4375 52.0208 58.3333 49.8125 56.125C47.6042 53.875 46.5 51.0417 46.5 47.625C46.5 44 47.5833 41.0833 49.75 38.875C51.9583 36.6667 54.875 35.5625 58.5 35.5625C61.9167 35.5625 64.75 36.7083 67 39C69.2917 41.2917 70.4375 44.2083 70.4375 47.75C70.4375 51.125 69.3125 53.9167 67.0625 56.125C64.8125 58.3333 61.9375 59.4375 58.4375 59.4375Z" fill="white"/>
</svg>
