<svg xmlns="http://www.w3.org/2000/svg" width="24" height="24"><path style="stroke:none;fill-rule:nonzero;fill:#fff;fill-opacity:1" d="M12 23.05c1.633 0 3.168-.292 4.605-.882a12.22 12.22 0 0 0 3.82-2.438 11.467 11.467 0 0 0 2.59-3.582c.626-1.363.938-2.808.938-4.347a10.2 10.2 0 0 0-.937-4.332 11.53 11.53 0 0 0-2.59-3.598 12.361 12.361 0 0 0-3.82-2.437A12.166 12.166 0 0 0 11.987.55c-1.633 0-3.172.293-4.617.883A12.307 12.307 0 0 0 3.562 3.87 11.523 11.523 0 0 0 .985 7.465 10.2 10.2 0 0 0 .047 11.8c0 1.539.312 2.984.937 4.347a11.467 11.467 0 0 0 2.59 3.582 12.236 12.236 0 0 0 3.809 2.438c1.445.59 2.984.883 4.617.883ZM8.027 17.13c-.273 0-.492-.074-.656-.219a.723.723 0 0 1-.246-.562c0-.207.043-.41.129-.598l3.387-8.582c.242-.602.691-.902 1.347-.902.664 0 1.117.3 1.36.902l3.398 8.582c.047.125.078.234.094.332.015.09.023.176.023.266a.723.723 0 0 1-.246.562c-.164.145-.379.219-.644.219a.95.95 0 0 1-.563-.164c-.156-.11-.281-.297-.375-.563l-.89-2.418H9.844l-.88 2.418c-.093.274-.218.461-.374.575a.977.977 0 0 1-.563.152Zm2.297-4.52h3.34L12.06 8.215h-.13Zm0 0"/></svg>