<svg width="16" height="17" viewBox="0 0 16 17" fill="none" xmlns="http://www.w3.org/2000/svg">
<path d="M8 16.3281C9.08854 16.3281 10.112 16.1198 11.0703 15.7031C12.0339 15.2865 12.8828 14.7109 13.6172 13.9766C14.3516 13.2422 14.9271 12.3958 15.3438 11.4375C15.7604 10.474 15.9688 9.44792 15.9688 8.35938C15.9688 7.27083 15.7604 6.2474 15.3438 5.28906C14.9271 4.32552 14.3516 3.47656 13.6172 2.74219C12.8828 2.00781 12.0339 1.43229 11.0703 1.01562C10.1068 0.598958 9.08073 0.390625 7.99219 0.390625C6.90365 0.390625 5.8776 0.598958 4.91406 1.01562C3.95573 1.43229 3.10938 2.00781 2.375 2.74219C1.64583 3.47656 1.07292 4.32552 0.65625 5.28906C0.239583 6.2474 0.03125 7.27083 0.03125 8.35938C0.03125 9.44792 0.239583 10.474 0.65625 11.4375C1.07292 12.3958 1.64844 13.2422 2.38281 13.9766C3.11719 14.7109 3.96354 15.2865 4.92188 15.7031C5.88542 16.1198 6.91146 16.3281 8 16.3281ZM5.35156 12.1328C5.16927 12.1328 5.02344 12.0807 4.91406 11.9766C4.80469 11.8724 4.75 11.7396 4.75 11.5781C4.75 11.5156 4.75521 11.4531 4.76562 11.3906C4.77604 11.3229 4.79948 11.2448 4.83594 11.1562L7.09375 5.07812C7.25521 4.65104 7.55469 4.4375 7.99219 4.4375C8.4349 4.4375 8.73698 4.65104 8.89844 5.07812L11.1641 11.1562C11.1953 11.2448 11.2161 11.3229 11.2266 11.3906C11.237 11.4531 11.2422 11.5156 11.2422 11.5781C11.2422 11.7396 11.1875 11.8724 11.0781 11.9766C10.9688 12.0807 10.8255 12.1328 10.6484 12.1328C10.5026 12.1328 10.3776 12.0938 10.2734 12.0156C10.1693 11.9375 10.0859 11.8047 10.0234 11.6172L9.42969 9.90625H6.5625L5.97656 11.6172C5.91406 11.8099 5.83073 11.9453 5.72656 12.0234C5.6224 12.0964 5.4974 12.1328 5.35156 12.1328ZM6.88281 8.92969H9.10938L8.03906 5.82031H7.95312L6.88281 8.92969Z" fill="white"/>
</svg>
