<svg width="16" height="17" viewBox="0 0 16 17" fill="none" xmlns="http://www.w3.org/2000/svg">
<path d="M8 16.3281C9.08854 16.3281 10.112 16.1198 11.0703 15.7031C12.0339 15.2865 12.8828 14.7109 13.6172 13.9766C14.3516 13.2422 14.9271 12.3958 15.3438 11.4375C15.7604 10.474 15.9688 9.44792 15.9688 8.35938C15.9688 7.27083 15.7604 6.2474 15.3438 5.28906C14.9271 4.32552 14.3516 3.47656 13.6172 2.74219C12.8828 2.00781 12.0339 1.43229 11.0703 1.01562C10.1068 0.598958 9.08073 0.390625 7.99219 0.390625C6.90365 0.390625 5.8776 0.598958 4.91406 1.01562C3.95573 1.43229 3.10938 2.00781 2.375 2.74219C1.64583 3.47656 1.07292 4.32552 0.65625 5.28906C0.239583 6.2474 0.03125 7.27083 0.03125 8.35938C0.03125 9.44792 0.239583 10.474 0.65625 11.4375C1.07292 12.3958 1.64844 13.2422 2.38281 13.9766C3.11719 14.7109 3.96354 15.2865 4.92188 15.7031C5.88542 16.1198 6.91146 16.3281 8 16.3281ZM8 15C7.07812 15 6.21615 14.8281 5.41406 14.4844C4.61198 14.1406 3.90625 13.6667 3.29688 13.0625C2.69271 12.4531 2.21875 11.7474 1.875 10.9453C1.53646 10.1432 1.36719 9.28125 1.36719 8.35938C1.36719 7.4375 1.53646 6.57552 1.875 5.77344C2.21875 4.97135 2.69271 4.26562 3.29688 3.65625C3.90104 3.04688 4.60417 2.57292 5.40625 2.23438C6.20833 1.89062 7.07031 1.71875 7.99219 1.71875C8.91406 1.71875 9.77604 1.89062 10.5781 2.23438C11.3854 2.57292 12.0911 3.04688 12.6953 3.65625C13.3047 4.26562 13.7812 4.97135 14.125 5.77344C14.4688 6.57552 14.6406 7.4375 14.6406 8.35938C14.6406 9.28125 14.4688 10.1432 14.125 10.9453C13.7865 11.7474 13.3125 12.4531 12.7031 13.0625C12.0938 13.6667 11.388 14.1406 10.5859 14.4844C9.78385 14.8281 8.92188 15 8 15ZM5.42188 12.0391C5.5625 12.0391 5.68229 12.0026 5.78125 11.9297C5.88021 11.8516 5.96094 11.7214 6.02344 11.5391L6.59375 9.875H9.38281L9.96094 11.5391C10.0703 11.8724 10.2708 12.0391 10.5625 12.0391C10.7344 12.0391 10.8724 11.9896 10.9766 11.8906C11.0807 11.7865 11.1328 11.6562 11.1328 11.5C11.1328 11.3906 11.1068 11.2552 11.0547 11.0938L8.85938 5.19531C8.70833 4.78385 8.41667 4.57812 7.98438 4.57812C7.55729 4.57812 7.26823 4.78385 7.11719 5.19531L4.92969 11.0938C4.8724 11.2552 4.84375 11.3906 4.84375 11.5C4.84375 11.6615 4.89583 11.7917 5 11.8906C5.10417 11.9896 5.24479 12.0391 5.42188 12.0391ZM6.90625 8.9375L7.94531 5.91406H8.03125L9.07031 8.9375H6.90625Z" fill="white"/>
</svg>
