<svg width="152" height="122" viewBox="0 0 152 122" fill="none" xmlns="http://www.w3.org/2000/svg">
<path d="M90.9375 121.438C99.2292 121.438 107.021 119.854 114.312 116.688C121.604 113.521 128.042 109.146 133.625 103.562C139.208 97.9792 143.583 91.5417 146.75 84.25C149.917 76.9167 151.5 69.125 151.5 60.875C151.5 52.625 149.896 44.8542 146.688 37.5625C143.521 30.2292 139.146 23.7708 133.562 18.1875C127.979 12.6042 121.521 8.22917 114.188 5.0625C106.896 1.89583 99.125 0.3125 90.875 0.3125C82.625 0.3125 74.8333 1.89583 67.5 5.0625C60.2083 8.22917 53.7708 12.6042 48.1875 18.1875C42.6458 23.7708 38.2917 30.2083 35.125 37.5C31.9583 44.7917 30.375 52.5833 30.375 60.875C30.375 69.125 31.9583 76.9167 35.125 84.25C38.2917 91.5417 42.6667 97.9792 48.25 103.562C53.8333 109.146 60.2708 113.521 67.5625 116.688C74.8958 119.854 82.6875 121.438 90.9375 121.438ZM90.9375 111.25C83.9375 111.25 77.3958 109.958 71.3125 107.375C65.2292 104.792 59.875 101.208 55.25 96.625C50.6667 92 47.0833 86.6458 44.5 80.5625C41.9167 74.4375 40.625 67.875 40.625 60.875C40.625 53.875 41.9167 47.3333 44.5 41.25C47.0833 35.125 50.6667 29.7708 55.25 25.1875C59.8333 20.5625 65.1667 16.9583 71.25 14.375C77.3333 11.75 83.875 10.4375 90.875 10.4375C97.875 10.4375 104.417 11.75 110.5 14.375C116.625 16.9583 121.979 20.5625 126.562 25.1875C131.188 29.7708 134.792 35.125 137.375 41.25C140 47.3333 141.333 53.875 141.375 60.875C141.375 67.875 140.083 74.4375 137.5 80.5625C134.917 86.6458 131.312 92 126.688 96.625C122.104 101.208 116.75 104.792 110.625 107.375C104.5 109.958 97.9375 111.25 90.9375 111.25ZM48.5625 100L44.3125 93.875C42.3542 95.0417 40.2292 95.9375 37.9375 96.5625C35.6458 97.1875 33.2292 97.5 30.6875 97.5C27.1042 97.5 23.9583 96.8958 21.25 95.6875C18.5417 94.4792 16.4375 92.7917 14.9375 90.625C13.4375 88.4583 12.6875 85.9167 12.6875 83C12.6875 78.75 14.3333 75.3333 17.625 72.75C20.9583 70.1667 25.7083 68.6667 31.875 68.25L36.4375 67.9375L34.5625 58.875L30.5 59.25C21.0417 60.0833 13.75 62.5208 8.625 66.5625C3.5 70.6042 0.9375 76.125 0.9375 83.125C0.9375 87.9583 2.08333 92.1875 4.375 95.8125C6.66667 99.4375 9.85417 102.271 13.9375 104.312C18.0208 106.354 22.7708 107.375 28.1875 107.375C31.9792 107.375 35.625 106.729 39.125 105.438C42.6667 104.104 45.8125 102.292 48.5625 100ZM43.3125 33.5625L49.5 24.5625C45.5833 23.1875 41.1458 22.5 36.1875 22.5C31.5625 22.5 27.25 23.1667 23.25 24.5C19.25 25.8333 15.7708 27.7083 12.8125 30.125C9.89583 32.5 7.70833 35.2708 6.25 38.4375C5.79167 39.3542 5.41667 40.2917 5.125 41.25C4.875 42.1667 4.75 43.0208 4.75 43.8125C4.75 45.3958 5.22917 46.6667 6.1875 47.625C7.14583 48.5833 8.375 49.0625 9.875 49.0625C12.0833 49.0625 13.6875 48.0625 14.6875 46.0625C16.8125 41.3542 19.625 37.9583 23.125 35.875C26.625 33.75 30.8958 32.6875 35.9375 32.6875C38.4792 32.6875 40.9375 32.9792 43.3125 33.5625ZM94.5625 115.812L107.938 115.688V43.9375C107.938 37.8125 106.708 32.4167 104.25 27.75C101.833 23.0417 98.3125 19.2083 93.6875 16.25C89.1042 13.2917 83.6042 11.375 77.1875 10.5C75.9792 10.3333 74.7292 10.2083 73.4375 10.125C72.1875 10.0417 70.9167 9.97917 69.625 9.9375L56.125 23.6875C57.375 23.3125 58.6458 23.0208 59.9375 22.8125C61.2708 22.5625 62.6458 22.375 64.0625 22.25C65.4792 22.125 67 22.0625 68.625 22.0625C76.5417 22.0625 82.7083 24.125 87.125 28.25C91.5833 32.3333 93.8125 38.0417 93.8125 45.375V54.5625L61.6875 56.5C52.3542 57.0833 44.7083 59.125 38.75 62.625L41.3125 77.25C42.6042 75.375 44.2917 73.75 46.375 72.375C48.5 71 50.9792 69.8958 53.8125 69.0625C56.6875 68.2292 59.8958 67.6875 63.4375 67.4375L93.8125 65.4375V76.4375C93.8125 80.2292 93.0833 83.7917 91.625 87.125C90.2083 90.4167 88.2083 93.3542 85.625 95.9375C83.0833 98.5208 80.0625 100.625 76.5625 102.25C73.1042 103.833 69.3542 104.812 65.3125 105.188L75.625 114C79.75 112.417 83.375 110.312 86.5 107.688C89.6667 105.062 92.0833 102.083 93.75 98.75H94.5625V115.812Z" fill="white"/>
</svg>
