<svg xmlns="http://www.w3.org/2000/svg" width="24" height="24"><path style="stroke:none;fill-rule:nonzero;fill:#fff;fill-opacity:1" d="M4.887 23.3h14.215c1.226 0 2.144-.323 2.753-.976.618-.64.926-1.605.926-2.898V4.164c0-1.293-.308-2.258-.926-2.898-.609-.653-1.527-.977-2.753-.977H4.887c-1.227 0-2.149.324-2.766.977-.61.64-.914 1.605-.914 2.898v15.262c0 1.293.305 2.258.914 2.902.617.649 1.54.973 2.766.973Zm3.14-5.488c-.273 0-.492-.082-.656-.25a.865.865 0 0 1-.246-.636c0-.235.043-.465.129-.676l3.387-9.727c.242-.68.691-1.023 1.347-1.023.664 0 1.117.344 1.36 1.023l3.398 9.727c.047.14.078.266.094.375.015.102.023.2.023.3a.865.865 0 0 1-.246.637c-.164.168-.379.25-.644.25a.873.873 0 0 1-.563-.187c-.156-.125-.281-.336-.375-.637l-.89-2.738H9.844l-.88 2.738c-.093.309-.218.524-.374.649a.892.892 0 0 1-.563.175Zm2.297-5.125h3.34L12.06 7.712h-.13Zm0 0"/></svg>