<svg width="116" height="116" viewBox="0 0 116 116" fill="none" xmlns="http://www.w3.org/2000/svg">
<path d="M20.5625 115.5H96.375C102.917 115.5 107.812 113.875 111.062 110.625C114.354 107.417 116 102.583 116 96.125V19.8125C116 13.3542 114.354 8.52083 111.062 5.3125C107.812 2.0625 102.917 0.4375 96.375 0.4375H20.5625C14.0208 0.4375 9.10417 2.0625 5.8125 5.3125C2.5625 8.52083 0.9375 13.3542 0.9375 19.8125V96.125C0.9375 102.583 2.5625 107.417 5.8125 110.625C9.10417 113.875 14.0208 115.5 20.5625 115.5ZM20.6875 105.438C17.5625 105.438 15.1667 104.625 13.5 103C11.8333 101.333 11 98.875 11 95.625V20.3125C11 17.0625 11.8333 14.625 13.5 13C15.1667 11.3333 17.5625 10.5 20.6875 10.5H96.25C99.3333 10.5 101.708 11.3333 103.375 13C105.083 14.625 105.938 17.0625 105.938 20.3125V95.625C105.938 98.875 105.083 101.333 103.375 103C101.708 104.625 99.3333 105.438 96.25 105.438H20.6875ZM37.9375 87.3125C39.0625 87.3125 40.0208 87.0208 40.8125 86.4375C41.6042 85.8125 42.25 84.7708 42.75 83.3125L47.3125 70H69.625L74.25 83.3125C75.125 85.9792 76.7292 87.3125 79.0625 87.3125C80.4375 87.3125 81.5417 86.9167 82.375 86.125C83.2083 85.2917 83.625 84.25 83.625 83C83.625 82.125 83.4167 81.0417 83 79.75L65.4375 32.5625C64.2292 29.2708 61.8958 27.625 58.4375 27.625C55.0208 27.625 52.7083 29.2708 51.5 32.5625L34 79.75C33.5417 81.0417 33.3125 82.125 33.3125 83C33.3125 84.2917 33.7292 85.3333 34.5625 86.125C35.3958 86.9167 36.5208 87.3125 37.9375 87.3125ZM49.8125 62.5L58.125 38.3125H58.8125L67.125 62.5H49.8125Z" fill="white"/>
</svg>
