<svg width="32" height="13" viewBox="0 0 32 13" fill="none" xmlns="http://www.w3.org/2000/svg">
<path d="M1.45312 12.1562C1.66146 12.1562 1.82292 12.1068 1.9375 12.0078C2.05208 11.9141 2.14583 11.7604 2.21875 11.5469L3.22656 8.78125H7.83594L8.84375 11.5469C8.91667 11.7604 9.01042 11.9141 9.125 12.0078C9.23958 12.1068 9.39844 12.1562 9.60156 12.1562C9.8099 12.1562 9.97396 12.0964 10.0938 11.9766C10.2188 11.8516 10.2812 11.6901 10.2812 11.4922C10.2812 11.3724 10.2526 11.2318 10.1953 11.0703L6.53125 1.32031C6.4375 1.07552 6.3099 0.890625 6.14844 0.765625C5.98698 0.635417 5.78125 0.570312 5.53125 0.570312C5.05729 0.570312 4.72917 0.817708 4.54688 1.3125L0.882812 11.0781C0.825521 11.2396 0.796875 11.3802 0.796875 11.5C0.796875 11.6979 0.854167 11.8568 0.96875 11.9766C1.08854 12.0964 1.25 12.1562 1.45312 12.1562ZM3.60938 7.60156L5.50781 2.34375H5.54688L7.44531 7.60156H3.60938ZM12.3984 11.9297H16.1953C17.0234 11.9297 17.7318 11.8021 18.3203 11.5469C18.9141 11.2917 19.3698 10.9349 19.6875 10.4766C20.0052 10.0182 20.1641 9.47917 20.1641 8.85938C20.1641 8.34375 20.0469 7.88542 19.8125 7.48438C19.5833 7.07812 19.263 6.75 18.8516 6.5C18.4453 6.25 17.974 6.09635 17.4375 6.03906V5.98438C17.849 5.91667 18.2161 5.76302 18.5391 5.52344C18.862 5.27865 19.1146 4.97656 19.2969 4.61719C19.4844 4.2526 19.5781 3.86198 19.5781 3.44531C19.5781 2.91927 19.4349 2.45573 19.1484 2.05469C18.862 1.64844 18.4635 1.33073 17.9531 1.10156C17.4427 0.867188 16.8438 0.75 16.1562 0.75H12.3984C12.1797 0.75 12.0052 0.817708 11.875 0.953125C11.7448 1.08333 11.6797 1.26042 11.6797 1.48438V11.1953C11.6797 11.4193 11.7448 11.599 11.875 11.7344C12.0052 11.8646 12.1797 11.9297 12.3984 11.9297ZM13.1562 5.58594V2H15.8203C16.5339 2 17.0938 2.15365 17.5 2.46094C17.9062 2.76302 18.1094 3.16146 18.1094 3.65625C18.1094 4.26562 17.8802 4.73958 17.4219 5.07812C16.9635 5.41667 16.3229 5.58594 15.5 5.58594H13.1562ZM13.1562 10.6875V6.75H15.7891C16.7161 6.75 17.4245 6.92448 17.9141 7.27344C18.4089 7.61719 18.6562 8.11719 18.6562 8.77344C18.6562 9.36719 18.4193 9.83594 17.9453 10.1797C17.4766 10.5182 16.8021 10.6875 15.9219 10.6875H13.1562ZM26.6016 12.1172C27.2682 12.1172 27.8802 12.026 28.4375 11.8438C28.9948 11.6562 29.4844 11.388 29.9062 11.0391C30.3281 10.6901 30.6667 10.2656 30.9219 9.76562C31 9.61458 31.0599 9.46354 31.1016 9.3125C31.1484 9.16146 31.1719 9.01562 31.1719 8.875C31.1719 8.68229 31.1094 8.52865 30.9844 8.41406C30.8594 8.29427 30.7031 8.23438 30.5156 8.23438C30.3594 8.23438 30.2318 8.27344 30.1328 8.35156C30.0339 8.42448 29.9401 8.55729 29.8516 8.75C29.6745 9.19271 29.4323 9.56771 29.125 9.875C28.8229 10.1823 28.4583 10.4167 28.0312 10.5781C27.6094 10.7344 27.1328 10.8125 26.6016 10.8125C25.8411 10.8125 25.1823 10.6302 24.625 10.2656C24.0677 9.90104 23.6354 9.38281 23.3281 8.71094C23.026 8.03906 22.875 7.23958 22.875 6.3125C22.875 5.40104 23.026 4.61198 23.3281 3.94531C23.6354 3.27865 24.0677 2.76562 24.625 2.40625C25.1875 2.04688 25.8464 1.86719 26.6016 1.86719C27.1016 1.86719 27.5625 1.95833 27.9844 2.14062C28.4115 2.32292 28.7812 2.58333 29.0938 2.92188C29.4115 3.25521 29.6536 3.64583 29.8203 4.09375C29.9089 4.28646 30.0104 4.42708 30.125 4.51562C30.2396 4.60417 30.3802 4.64844 30.5469 4.64844C30.7396 4.64844 30.8958 4.59115 31.0156 4.47656C31.1354 4.35677 31.1953 4.20052 31.1953 4.00781C31.1953 3.80469 31.151 3.58073 31.0625 3.33594C30.8594 2.76302 30.5365 2.26823 30.0938 1.85156C29.651 1.4349 29.1276 1.11719 28.5234 0.898438C27.9245 0.674479 27.2839 0.5625 26.6016 0.5625C25.5391 0.5625 24.6172 0.796875 23.8359 1.26562C23.0599 1.72917 22.4583 2.39323 22.0312 3.25781C21.6094 4.11719 21.3984 5.13802 21.3984 6.32031C21.3984 7.51302 21.6094 8.54427 22.0312 9.41406C22.4583 10.2786 23.0599 10.9453 23.8359 11.4141C24.6172 11.8828 25.5391 12.1172 26.6016 12.1172Z" fill="white"/>
</svg>
