<svg xmlns="http://www.w3.org/2000/svg" width="24" height="24"><path style="stroke:none;fill-rule:nonzero;fill:#fff;fill-opacity:1" d="M12 23.965c1.043 0 2.02-.3 2.938-.902.91-.579 1.734-1.415 2.43-2.461.698-1.047 1.26-2.286 1.655-3.645.403-1.395.61-2.898.602-4.418 0-1.566-.2-3.031-.602-4.406-.394-1.363-.953-2.598-1.656-3.645-.695-1.05-1.52-1.89-2.43-2.472-.93-.606-1.933-.914-2.945-.903-1.043 0-2.02.301-2.937.89-.907.583-1.735 1.423-2.43 2.474C5.93 5.53 5.367 6.77 4.977 8.133a15.937 15.937 0 0 0-.594 4.406c0 1.563.199 3.035.594 4.418.402 1.379.949 2.59 1.648 3.645.7 1.046 1.523 1.878 2.43 2.46.93.606 1.933.915 2.945.903Zm0-1.992a4.47 4.47 0 0 1-2.445-.727c-.75-.473-1.43-1.156-2.008-2.016-.574-.867-1.027-1.886-1.344-3.011a13.49 13.49 0 0 1-.484-3.68c0-1.312.16-2.535.484-3.68.317-1.12.774-2.14 1.344-3 .574-.863 1.254-1.55 2-2.023.773-.5 1.605-.75 2.445-.742.844-.008 1.68.242 2.453.742.75.473 1.43 1.16 2 2.023.578.86 1.035 1.88 1.352 3 .328 1.145.496 2.368.5 3.68 0 1.309-.16 2.527-.485 3.672-.316 1.125-.773 2.148-1.351 3.012-.574.863-1.258 1.55-2.008 2.023-.773.492-1.61.738-2.453.727ZM.852 12.539c0 1.852.191 3.617.57 5.3.379 1.68.91 3.216 1.594 4.602.12.254.27.387.453.41.187.032.36-.042.515-.234.133-.16.22-.398.235-.652a1.415 1.415 0 0 0-.14-.742 18.432 18.432 0 0 1-1.391-4.032 21.09 21.09 0 0 1-.5-4.652c0-1.633.167-3.18.5-4.652a18.577 18.577 0 0 1 1.39-4.051c.11-.207.164-.469.149-.73a1.131 1.131 0 0 0-.243-.657c-.144-.18-.328-.261-.515-.23-.184.031-.348.18-.453.406A20.725 20.725 0 0 0 1.422 7.23a24.193 24.193 0 0 0-.57 5.313Zm22.296 0a24.158 24.158 0 0 0-.57-5.309 20.725 20.725 0 0 0-1.594-4.605c-.105-.227-.273-.379-.46-.406-.184-.031-.368.05-.508.23-.137.16-.227.399-.243.656-.011.262.043.52.149.73a18.265 18.265 0 0 1 1.39 4.052c.333 1.472.5 3.02.5 4.652a21.09 21.09 0 0 1-.5 4.652 17.964 17.964 0 0 1-1.39 4.032 1.504 1.504 0 0 0-.14.742c.015.254.1.492.234.652.14.18.324.266.507.235.188-.024.356-.172.461-.41a20.623 20.623 0 0 0 1.594-4.602c.379-1.684.57-3.45.57-5.3ZM6.86 15.105a1.16 1.16 0 0 0 .055.645c.078.18.203.27.375.27.098 0 .191-.04.274-.118a.611.611 0 0 0 .156-.351l.195-1.23h1.188l.187 1.23c.02.148.074.265.164.34.09.074.18.117.274.117.144.008.277-.082.367-.246.09-.164.11-.38.062-.657L9.22 9.68a1.053 1.053 0 0 0-.274-.598c-.254-.281-.597-.281-.851 0a1.157 1.157 0 0 0-.266.598Zm1.196-1.793.437-2.976h.031l.446 2.976Zm2.648 1.641c0 .281.059.512.172.68.125.172.293.265.46.258h1.048c.437 0 .777-.172 1.023-.516.246-.352.367-.824.367-1.418 0-.477-.085-.867-.257-1.172-.164-.308-.407-.5-.672-.527v-.047c.234-.066.441-.27.578-.563.129-.289.195-.617.195-.988 0-.555-.117-.976-.351-1.273-.23-.301-.532-.446-.907-.446h-1.023c-.168-.011-.336.082-.461.258a1.2 1.2 0 0 0-.172.68Zm.93-.07v-2.11h.484c.23 0 .406.086.531.27.125.18.188.437.188.785 0 .352-.059.617-.18.797-.113.168-.289.258-.523.258Zm0-3.024V9.961h.492c.203 0 .352.082.445.246.098.156.149.383.149.68 0 .324-.055.562-.164.726a.543.543 0 0 1-.485.246Zm4.031 4.16c.457 0 .824-.18 1.102-.539.277-.37.414-.867.414-1.5 0-.609-.121-1.066-.367-1.37-.247-.305-.575-.579-.993-.833a2.685 2.685 0 0 1-.523-.41c-.125-.14-.188-.355-.188-.644 0-.243.051-.434.149-.575.113-.148.258-.222.406-.21.316 0 .508.238.57.714a.59.59 0 0 0 .157.328c.172.149.386.137.547-.035a.63.63 0 0 0 .14-.445c0-.047-.004-.094-.008-.14a.88.88 0 0 0-.023-.141c-.067-.399-.223-.754-.445-.996-.235-.274-.551-.41-.946-.41-.441 0-.8.18-1.07.55-.266.367-.399.852-.399 1.442 0 .601.114 1.05.336 1.336.23.285.5.527.813.714.3.172.535.344.695.528.16.183.242.414.242.703a.969.969 0 0 1-.171.61c-.122.144-.274.222-.43.21a.555.555 0 0 1-.445-.199 1.243 1.243 0 0 1-.227-.574.576.576 0 0 0-.156-.34c-.164-.172-.387-.152-.54.047-.09.101-.132.254-.132.457 0 .07.004.14.015.21.012.071.024.15.04.223.09.399.253.715.5.95.25.226.562.34.937.34Zm0 0"/></svg>