<?xml version="1.0" encoding="UTF-8"?>
<svg xmlns="http://www.w3.org/2000/svg" xmlns:xlink="http://www.w3.org/1999/xlink" width="24" height="16" viewBox="0 0 24 16" version="1.1">
<g id="surface1">
<path style=" stroke:none;fill-rule:nonzero;fill:rgb(100%,100%,100%);fill-opacity:1;" d="M 12 15.976562 C 13.042969 15.976562 14.019531 15.777344 14.9375 15.375 C 15.859375 14.980469 16.667969 14.433594 17.367188 13.734375 C 18.070312 13.03125 18.621094 12.222656 19.023438 11.304688 C 19.425781 10.382812 19.625 9.402344 19.625 8.359375 C 19.625 7.316406 19.425781 6.339844 19.023438 5.421875 C 18.621094 4.5 18.070312 3.691406 17.367188 2.992188 C 16.667969 2.289062 15.859375 1.738281 14.9375 1.34375 C 14.015625 0.941406 13.035156 0.742188 11.992188 0.742188 C 10.949219 0.742188 9.972656 0.941406 9.054688 1.335938 C 8.136719 1.730469 7.328125 2.28125 6.625 2.984375 C 5.925781 3.6875 5.378906 4.5 4.976562 5.421875 C 4.582031 6.339844 4.382812 7.316406 4.382812 8.359375 C 4.382812 9.402344 4.582031 10.382812 4.976562 11.304688 C 5.378906 12.222656 5.925781 13.03125 6.625 13.734375 C 7.328125 14.433594 8.136719 14.980469 9.054688 15.375 C 9.976562 15.777344 10.957031 15.976562 12 15.976562 Z M 12 14.648438 C 11.128906 14.648438 10.316406 14.488281 9.554688 14.164062 C 8.792969 13.839844 8.125 13.394531 7.546875 12.820312 C 6.972656 12.242188 6.527344 11.574219 6.203125 10.8125 C 5.878906 10.050781 5.71875 9.234375 5.71875 8.359375 C 5.71875 7.484375 5.878906 6.667969 6.203125 5.90625 C 6.527344 5.144531 6.972656 4.480469 7.546875 3.90625 C 8.121094 3.328125 8.785156 2.878906 9.546875 2.554688 C 10.308594 2.226562 11.121094 2.0625 11.992188 2.0625 C 12.867188 2.0625 13.683594 2.226562 14.445312 2.554688 C 15.207031 2.878906 15.871094 3.328125 16.445312 3.90625 C 17.023438 4.480469 17.472656 5.144531 17.796875 5.90625 C 18.125 6.667969 18.292969 7.484375 18.296875 8.359375 C 18.296875 9.230469 18.136719 10.042969 17.8125 10.804688 C 17.488281 11.566406 17.039062 12.234375 16.460938 12.8125 C 15.882812 13.390625 15.214844 13.839844 14.453125 14.164062 C 13.691406 14.488281 12.875 14.648438 12 14.648438 Z M 0.851562 8.359375 C 0.851562 9.59375 1.042969 10.769531 1.421875 11.890625 C 1.800781 13.011719 2.332031 14.035156 3.015625 14.960938 C 3.136719 15.128906 3.285156 15.21875 3.46875 15.234375 C 3.65625 15.253906 3.828125 15.203125 3.984375 15.078125 C 4.125 14.957031 4.203125 14.8125 4.21875 14.640625 C 4.238281 14.46875 4.191406 14.304688 4.078125 14.148438 C 3.484375 13.339844 3.019531 12.445312 2.6875 11.460938 C 2.355469 10.476562 2.1875 9.441406 2.1875 8.359375 C 2.1875 7.269531 2.355469 6.238281 2.6875 5.257812 C 3.019531 4.273438 3.484375 3.371094 4.078125 2.554688 C 4.191406 2.402344 4.242188 2.242188 4.226562 2.070312 C 4.210938 1.898438 4.128906 1.753906 3.984375 1.632812 C 3.828125 1.507812 3.65625 1.457031 3.46875 1.476562 C 3.285156 1.496094 3.136719 1.589844 3.015625 1.75 C 2.332031 2.675781 1.800781 3.699219 1.421875 4.820312 C 1.042969 5.941406 0.851562 7.121094 0.851562 8.359375 Z M 23.148438 8.359375 C 23.148438 7.121094 22.957031 5.941406 22.578125 4.820312 C 22.199219 3.699219 21.667969 2.675781 20.984375 1.75 C 20.863281 1.589844 20.710938 1.496094 20.523438 1.476562 C 20.339844 1.457031 20.171875 1.507812 20.015625 1.632812 C 19.871094 1.753906 19.789062 1.898438 19.773438 2.070312 C 19.761719 2.242188 19.8125 2.402344 19.921875 2.554688 C 20.519531 3.371094 20.984375 4.273438 21.3125 5.257812 C 21.644531 6.238281 21.8125 7.269531 21.8125 8.359375 C 21.8125 9.441406 21.644531 10.476562 21.3125 11.460938 C 20.984375 12.445312 20.519531 13.339844 19.921875 14.148438 C 19.8125 14.304688 19.765625 14.46875 19.78125 14.640625 C 19.796875 14.8125 19.875 14.957031 20.015625 15.078125 C 20.171875 15.203125 20.339844 15.253906 20.523438 15.234375 C 20.710938 15.21875 20.863281 15.128906 20.984375 14.960938 C 21.667969 14.035156 22.199219 13.011719 22.578125 11.890625 C 22.957031 10.769531 23.148438 9.59375 23.148438 8.359375 Z M 6.859375 10.070312 C 6.816406 10.238281 6.835938 10.378906 6.914062 10.5 C 6.992188 10.621094 7.117188 10.679688 7.289062 10.679688 C 7.386719 10.679688 7.480469 10.652344 7.5625 10.601562 C 7.644531 10.542969 7.699219 10.464844 7.71875 10.367188 L 7.914062 9.546875 L 9.101562 9.546875 L 9.289062 10.367188 C 9.308594 10.464844 9.363281 10.542969 9.453125 10.59375 C 9.542969 10.644531 9.632812 10.671875 9.726562 10.671875 C 9.882812 10.671875 10.003906 10.617188 10.09375 10.507812 C 10.183594 10.398438 10.203125 10.253906 10.15625 10.070312 L 9.21875 6.453125 C 9.171875 6.277344 9.082031 6.144531 8.945312 6.054688 C 8.816406 5.960938 8.671875 5.914062 8.515625 5.914062 C 8.371094 5.914062 8.230469 5.960938 8.09375 6.054688 C 7.964844 6.144531 7.875 6.277344 7.828125 6.453125 Z M 8.054688 8.875 L 8.492188 6.890625 L 8.523438 6.890625 L 8.96875 8.875 Z M 10.703125 9.96875 C 10.703125 10.15625 10.761719 10.308594 10.875 10.421875 C 10.996094 10.535156 11.148438 10.59375 11.335938 10.59375 L 12.382812 10.59375 C 12.820312 10.59375 13.160156 10.480469 13.40625 10.25 C 13.652344 10.015625 13.773438 9.699219 13.773438 9.304688 C 13.773438 8.988281 13.6875 8.726562 13.515625 8.523438 C 13.347656 8.316406 13.125 8.199219 12.84375 8.171875 L 12.84375 8.140625 C 13.097656 8.082031 13.292969 7.957031 13.421875 7.765625 C 13.550781 7.574219 13.617188 7.355469 13.617188 7.109375 C 13.617188 6.738281 13.5 6.457031 13.265625 6.257812 C 13.035156 6.058594 12.734375 5.960938 12.359375 5.960938 L 11.335938 5.960938 C 11.148438 5.960938 10.996094 6.019531 10.875 6.132812 C 10.761719 6.246094 10.703125 6.398438 10.703125 6.585938 Z M 11.632812 9.921875 L 11.632812 8.515625 L 12.117188 8.515625 C 12.347656 8.515625 12.523438 8.574219 12.648438 8.695312 C 12.773438 8.816406 12.835938 8.988281 12.835938 9.21875 C 12.835938 9.453125 12.777344 9.628906 12.65625 9.75 C 12.542969 9.863281 12.367188 9.921875 12.132812 9.921875 Z M 11.632812 7.90625 L 11.632812 6.640625 L 12.125 6.640625 C 12.328125 6.640625 12.476562 6.695312 12.570312 6.804688 C 12.667969 6.910156 12.71875 7.058594 12.71875 7.257812 C 12.71875 7.472656 12.664062 7.632812 12.554688 7.742188 C 12.445312 7.851562 12.285156 7.90625 12.070312 7.90625 Z M 15.664062 10.679688 C 16.121094 10.679688 16.488281 10.558594 16.765625 10.320312 C 17.042969 10.074219 17.179688 9.742188 17.179688 9.320312 C 17.179688 8.914062 17.058594 8.609375 16.8125 8.40625 C 16.566406 8.203125 16.238281 8.019531 15.820312 7.851562 C 15.597656 7.757812 15.421875 7.667969 15.296875 7.578125 C 15.171875 7.484375 15.109375 7.339844 15.109375 7.148438 C 15.109375 6.988281 15.160156 6.859375 15.257812 6.765625 C 15.355469 6.671875 15.492188 6.625 15.664062 6.625 C 15.980469 6.625 16.171875 6.785156 16.234375 7.101562 C 16.261719 7.199219 16.3125 7.273438 16.390625 7.320312 C 16.46875 7.367188 16.550781 7.390625 16.640625 7.390625 C 16.75 7.390625 16.847656 7.359375 16.9375 7.296875 C 17.03125 7.230469 17.078125 7.128906 17.078125 7 C 17.078125 6.96875 17.074219 6.9375 17.070312 6.90625 C 17.066406 6.875 17.058594 6.84375 17.046875 6.8125 C 16.984375 6.550781 16.835938 6.332031 16.601562 6.148438 C 16.367188 5.964844 16.050781 5.875 15.65625 5.875 C 15.214844 5.875 14.855469 5.996094 14.585938 6.242188 C 14.320312 6.488281 14.1875 6.808594 14.1875 7.203125 C 14.1875 7.605469 14.300781 7.902344 14.523438 8.09375 C 14.753906 8.285156 15.023438 8.445312 15.335938 8.570312 C 15.636719 8.683594 15.871094 8.800781 16.03125 8.921875 C 16.191406 9.042969 16.273438 9.199219 16.273438 9.390625 C 16.273438 9.5625 16.214844 9.699219 16.101562 9.796875 C 15.992188 9.890625 15.847656 9.9375 15.671875 9.9375 C 15.488281 9.9375 15.339844 9.894531 15.226562 9.804688 C 15.117188 9.714844 15.042969 9.589844 15 9.421875 C 14.972656 9.316406 14.921875 9.242188 14.84375 9.195312 C 14.765625 9.144531 14.683594 9.117188 14.59375 9.117188 C 14.488281 9.117188 14.394531 9.152344 14.304688 9.226562 C 14.214844 9.292969 14.171875 9.394531 14.171875 9.53125 C 14.171875 9.578125 14.175781 9.625 14.1875 9.671875 C 14.199219 9.71875 14.210938 9.769531 14.226562 9.820312 C 14.316406 10.085938 14.480469 10.296875 14.726562 10.453125 C 14.976562 10.605469 15.289062 10.679688 15.664062 10.679688 Z M 15.664062 10.679688 "/>
</g>
</svg>
