<svg width="124" height="148" viewBox="0 0 124 148" fill="none" xmlns="http://www.w3.org/2000/svg">
<path d="M20.25 136.312H76.625C83 136.312 87.7917 134.708 91 131.5C94.25 128.292 95.875 123.542 95.875 117.25V19.375C95.875 13.0833 94.2292 8.35417 90.9375 5.1875C87.6875 1.97917 82.9167 0.375 76.625 0.375H20.25C13.9167 0.375 9.10417 1.97917 5.8125 5.1875C2.5625 8.35417 0.9375 13.0833 0.9375 19.375V117.25C0.9375 123.542 2.5625 128.292 5.8125 131.5C9.0625 134.708 13.875 136.312 20.25 136.312ZM26.25 35C23.75 35 21.6042 34.1042 19.8125 32.3125C18.0625 30.5208 17.1875 28.3542 17.1875 25.8125C17.1875 23.3542 18.0625 21.25 19.8125 19.5C21.6042 17.7083 23.75 16.8125 26.25 16.8125C28.75 16.8125 30.8958 17.7083 32.6875 19.5C34.4792 21.25 35.375 23.3542 35.375 25.8125C35.375 28.3542 34.4792 30.5208 32.6875 32.3125C30.8958 34.1042 28.75 35 26.25 35ZM20.875 87.3125C19.75 87.3125 18.7917 86.9375 18 86.1875C17.2083 85.3958 16.8125 84.4167 16.8125 83.25C16.8125 82.125 17.2083 81.1667 18 80.375C18.7917 79.5833 19.75 79.1875 20.875 79.1875H39.625C40.7917 79.1875 41.7708 79.5833 42.5625 80.375C43.3542 81.1667 43.75 82.125 43.75 83.25C43.75 84.4167 43.3542 85.3958 42.5625 86.1875C41.7708 86.9375 40.7917 87.3125 39.625 87.3125H20.875ZM20.875 103.438C19.75 103.438 18.7917 103.042 18 102.25C17.2083 101.458 16.8125 100.5 16.8125 99.375C16.8125 98.2083 17.2083 97.25 18 96.5C18.7917 95.7083 19.75 95.3125 20.875 95.3125H39.625C40.7917 95.3125 41.7708 95.7083 42.5625 96.5C43.3542 97.25 43.75 98.2083 43.75 99.375C43.75 100.5 43.3542 101.458 42.5625 102.25C41.7708 103.042 40.7917 103.438 39.625 103.438H20.875ZM20.875 119.562C19.75 119.562 18.7917 119.167 18 118.375C17.2083 117.583 16.8125 116.625 16.8125 115.5C16.8125 114.333 17.2083 113.354 18 112.562C18.7917 111.771 19.75 111.375 20.875 111.375H39.625C40.7917 111.375 41.7708 111.771 42.5625 112.562C43.3542 113.354 43.75 114.333 43.75 115.5C43.75 116.625 43.3542 117.583 42.5625 118.375C41.7708 119.167 40.7917 119.562 39.625 119.562H20.875ZM57.1875 87.3125C56.0208 87.3125 55.0417 86.9375 54.25 86.1875C53.4583 85.3958 53.0625 84.4167 53.0625 83.25C53.0625 82.125 53.4583 81.1667 54.25 80.375C55.0417 79.5833 56.0208 79.1875 57.1875 79.1875H75.9375C77.0625 79.1875 78.0208 79.5833 78.8125 80.375C79.6042 81.1667 80 82.125 80 83.25C80 84.4167 79.6042 85.3958 78.8125 86.1875C78.0208 86.9375 77.0625 87.3125 75.9375 87.3125H57.1875ZM57.1875 103.438C56.0208 103.438 55.0417 103.042 54.25 102.25C53.4583 101.458 53.0625 100.5 53.0625 99.375C53.0625 98.2083 53.4583 97.25 54.25 96.5C55.0417 95.7083 56.0208 95.3125 57.1875 95.3125H75.9375C77.0625 95.3125 78.0208 95.7083 78.8125 96.5C79.6042 97.25 80 98.2083 80 99.375C80 100.5 79.6042 101.458 78.8125 102.25C78.0208 103.042 77.0625 103.438 75.9375 103.438H57.1875ZM57.1875 119.562C56.0208 119.562 55.0417 119.167 54.25 118.375C53.4583 117.583 53.0625 116.625 53.0625 115.5C53.0625 114.333 53.4583 113.354 54.25 112.562C55.0417 111.771 56.0208 111.375 57.1875 111.375H75.9375C77.0625 111.375 78.0208 111.771 78.8125 112.562C79.6042 113.354 80 114.333 80 115.5C80 116.625 79.6042 117.583 78.8125 118.375C78.0208 119.167 77.0625 119.562 75.9375 119.562H57.1875ZM67.5 33C65.125 33 62.7917 32.7083 60.5 32.125C58.25 31.5417 56.1042 30.625 54.0625 29.375C52.7292 28.625 51.9792 27.6667 51.8125 26.5C51.6458 25.2917 51.8542 24.25 52.4375 23.375C52.9375 22.5833 53.6667 22.0417 54.625 21.75C55.5833 21.4167 56.6042 21.5417 57.6875 22.125C59.4792 23.1667 61.1458 23.8958 62.6875 24.3125C64.2292 24.7292 65.8333 24.9375 67.5 24.9375C71.0833 24.9375 74.3958 24.25 77.4375 22.875C80.4792 21.5 83.5 19.9167 86.5 18.125C89.5 16.3333 92.6667 14.75 96 13.375C99.375 12 103.188 11.3125 107.438 11.3125C112.229 11.3125 116.708 12.5208 120.875 14.9375C122.25 15.6875 123.021 16.6667 123.188 17.875C123.354 19.0833 123.125 20.1458 122.5 21.0625C122 21.7708 121.271 22.2917 120.312 22.625C119.396 22.9167 118.375 22.75 117.25 22.125C115.458 21.125 113.792 20.4375 112.25 20.0625C110.75 19.6458 109.146 19.4375 107.438 19.4375C103.812 19.4375 100.458 20.125 97.375 21.5C94.2917 22.8333 91.25 24.3958 88.25 26.1875C85.2917 27.9792 82.125 29.5625 78.75 30.9375C75.4167 32.3125 71.6667 33 67.5 33ZM67.5625 50.4375C65.1875 50.4375 62.8542 50.1458 60.5625 49.5625C58.3125 48.9792 56.1667 48.0625 54.125 46.8125C52.7917 46.0625 52.0208 45.1042 51.8125 43.9375C51.6458 42.7292 51.8542 41.6875 52.4375 40.8125C52.9375 39.9792 53.6667 39.4167 54.625 39.125C55.625 38.7917 56.6667 38.9375 57.75 39.5625C59.5417 40.5625 61.1875 41.2917 62.6875 41.75C64.2292 42.1667 65.8542 42.375 67.5625 42.375C71.1458 42.375 74.4583 41.6875 77.5 40.3125C80.5417 38.9375 83.5417 37.3542 86.5 35.5625C89.5 33.7292 92.6875 32.125 96.0625 30.75C99.4375 29.375 103.229 28.6875 107.438 28.6875C112.271 28.6875 116.792 29.8958 121 32.3125C122.333 33.1042 123.062 34.1042 123.188 35.3125C123.354 36.5208 123.146 37.5625 122.562 38.4375C122.062 39.1875 121.333 39.7292 120.375 40.0625C119.417 40.3542 118.396 40.1875 117.312 39.5625C115.521 38.5625 113.854 37.8542 112.312 37.4375C110.771 37.0208 109.146 36.8125 107.438 36.8125C103.812 36.8125 100.458 37.5 97.375 38.875C94.3333 40.25 91.3125 41.8333 88.3125 43.625C85.3125 45.4167 82.1458 47 78.8125 48.375C75.4792 49.75 71.7292 50.4375 67.5625 50.4375ZM67.5 67.8125C65.125 67.8125 62.7917 67.5417 60.5 67C58.25 66.4167 56.1042 65.4792 54.0625 64.1875C52.7292 63.4375 51.9792 62.4792 51.8125 61.3125C51.6458 60.1042 51.8542 59.0625 52.4375 58.1875C52.9375 57.3958 53.6667 56.8542 54.625 56.5625C55.5833 56.2292 56.6042 56.3542 57.6875 56.9375C59.4792 57.9792 61.1458 58.7083 62.6875 59.125C64.2292 59.5417 65.8333 59.75 67.5 59.75C71.0833 59.75 74.3958 59.0625 77.4375 57.6875C80.4792 56.3125 83.5 54.7292 86.5 52.9375C89.5 51.1458 92.6667 49.5625 96 48.1875C99.375 46.8125 103.188 46.125 107.438 46.125C112.229 46.125 116.708 47.3333 120.875 49.75C122.25 50.5 123.021 51.4792 123.188 52.6875C123.354 53.8958 123.125 54.9583 122.5 55.875C122 56.5833 121.271 57.1042 120.312 57.4375C119.396 57.7292 118.375 57.5625 117.25 56.9375C115.458 55.9375 113.792 55.25 112.25 54.875C110.75 54.4583 109.146 54.25 107.438 54.25C103.812 54.25 100.458 54.9375 97.375 56.3125C94.2917 57.6458 91.25 59.2083 88.25 61C85.2917 62.7917 82.125 64.375 78.75 65.75C75.4167 67.125 71.6667 67.8125 67.5 67.8125ZM19.0625 147.312C20.5625 147.312 21.7708 146.833 22.6875 145.875C23.6042 144.958 24.0625 143.75 24.0625 142.25V130H14V142.25C14 143.75 14.4583 144.958 15.375 145.875C16.3333 146.833 17.5625 147.312 19.0625 147.312ZM77.75 147.312C79.25 147.312 80.4583 146.833 81.375 145.875C82.3333 144.958 82.8125 143.75 82.8125 142.25V130H72.75V142.25C72.75 143.75 73.2083 144.958 74.125 145.875C75.0417 146.833 76.25 147.312 77.75 147.312Z" fill="white"/>
</svg>
