<svg xmlns="http://www.w3.org/2000/svg" width="24" height="24"><path style="stroke:none;fill-rule:nonzero;fill:#fff;fill-opacity:1" d="M.73 2.367v6.121c0 .676.192 1.219.575 1.625.379.41.886.614 1.515.614h18.348c.633 0 1.137-.204 1.52-.614.382-.406.57-.949.57-1.625v-6.12c0-.677-.188-1.22-.57-1.63-.383-.406-.887-.61-1.52-.61H2.82c-.629 0-1.136.204-1.515.61-.383.41-.575.953-.575 1.63Zm15.215 5.656a.49.49 0 0 1 .5-.516h3.813c.14 0 .254.052.347.15a.492.492 0 0 1 .153.366c0 .145-.051.266-.153.364a.458.458 0 0 1-.347.148h-3.813a.495.495 0 0 1-.5-.512Zm0-2.093c0-.149.047-.278.14-.375a.485.485 0 0 1 .36-.157h3.813c.14 0 .254.055.347.157a.5.5 0 0 1 .153.375c0 .14-.051.258-.153.36a.455.455 0 0 1-.347.144h-3.813a.502.502 0 0 1-.36-.145.492.492 0 0 1-.14-.36ZM9.63 8.02c0-.145.047-.266.14-.364a.481.481 0 0 1 .356-.148h3.816c.13-.004.25.05.336.148a.484.484 0 0 1 .153.364c0 .144-.051.27-.153.367a.441.441 0 0 1-.336.148h-3.816a.497.497 0 0 1-.355-.148.538.538 0 0 1-.141-.367Zm0-2.09a.538.538 0 0 1 .14-.38.479.479 0 0 1 .356-.152h3.816c.13 0 .243.051.336.157a.49.49 0 0 1 .153.375c0 .14-.051.258-.153.355a.441.441 0 0 1-.336.149h-3.816a.481.481 0 0 1-.355-.149.516.516 0 0 1-.141-.355Zm-6.34 2.09c0-.145.047-.266.14-.364a.48.48 0 0 1 .348-.148h3.817c.136 0 .254.05.347.148a.495.495 0 0 1 .149.364c0 .144-.05.27-.149.367a.464.464 0 0 1-.347.148H3.777a.495.495 0 0 1-.488-.515Zm0-2.09a.542.542 0 0 1 .137-.375.49.49 0 0 1 .351-.157h3.817c.136 0 .254.051.347.157.098.097.153.23.149.375 0 .14-.05.258-.149.355a.464.464 0 0 1-.347.149H3.777a.48.48 0 0 1-.347-.149.516.516 0 0 1-.14-.355Zm9.836 8.695c0 .527.07 1.008.207 1.45.137.44.305.855.504 1.253l.61 1.145c.202.375.37.761.507 1.164.137.402.207.832.207 1.293 0 .261-.031.511-.094.75-.058.242-.16.508-.308.789-.094.18-.121.34-.078.484.043.14.125.262.234.356.14.09.297.125.48.097.18-.027.329-.144.442-.363a4.32 4.32 0 0 0 .543-2.113c0-.54-.07-1.032-.207-1.48a6.936 6.936 0 0 0-.516-1.243c-.199-.395-.402-.781-.61-1.156a8.236 8.236 0 0 1-.507-1.156 3.875 3.875 0 0 1-.203-1.27c0-.27.031-.523.094-.762.062-.242.172-.508.328-.797a.583.583 0 0 0 .055-.476.65.65 0 0 0-.243-.356.682.682 0 0 0-.468-.09c-.176.028-.32.145-.434.348a3.901 3.901 0 0 0-.422 1.035c-.082.36-.121.723-.121 1.098Zm-2.758.008c0 .527.07 1.012.207 1.453.137.434.309.844.508 1.242.2.39.398.77.598 1.152.207.375.379.762.515 1.157.14.402.207.832.207 1.293 0 .27-.03.523-.093.758-.055.242-.16.507-.317.789-.09.18-.11.343-.066.488.05.152.129.265.234.351.14.09.305.125.469.098.18-.02.332-.133.45-.352.358-.648.546-1.386.542-2.132a4.89 4.89 0 0 0-.207-1.47 7.095 7.095 0 0 0-.516-1.245c-.199-.395-.402-.777-.609-1.152a9.02 9.02 0 0 1-.504-1.157 3.8 3.8 0 0 1-.207-1.273 3.1 3.1 0 0 1 .094-.77c.062-.242.168-.504.32-.789a.558.558 0 0 0 .063-.472.64.64 0 0 0-.242-.368.682.682 0 0 0-.47-.09c-.179.028-.323.149-.429.36a3.657 3.657 0 0 0-.422 1.035c-.082.36-.125.727-.125 1.094Zm-2.754-.008c0 .527.067 1.008.207 1.45.137.44.305.855.504 1.253.2.39.403.77.602 1.145.207.375.379.761.515 1.164.137.402.207.832.207 1.293 0 .261-.03.511-.093.75a3.19 3.19 0 0 1-.32.789c-.094.18-.118.34-.075.484.05.149.13.27.242.356.133.09.29.125.47.097.183-.027.331-.144.448-.363.364-.652.547-1.36.547-2.113 0-.54-.07-1.032-.207-1.48a6.936 6.936 0 0 0-.515-1.243 35.55 35.55 0 0 0-.61-1.156 8.236 8.236 0 0 1-.508-1.156 3.778 3.778 0 0 1-.207-1.27c0-.27.032-.523.094-.762.078-.277.184-.543.32-.797a.57.57 0 0 0 .067-.476.637.637 0 0 0-.246-.356.662.662 0 0 0-.47-.09c-.179.028-.327.145-.437.348a3.88 3.88 0 0 0-.414 1.035c-.082.36-.12.723-.12 1.098Zm8.426.453c0 .106.04.192.113.266a.33.33 0 0 0 .282.09l.777-.047-.438.675a.436.436 0 0 0-.046.297c.015.11.07.192.156.246a.326.326 0 0 0 .293.04.336.336 0 0 0 .215-.215l.347-.739.356.758c.05.094.12.156.215.2.101.03.199.019.293-.032a.325.325 0 0 0 .156-.246.397.397 0 0 0-.055-.316l-.441-.668.777.054c.098.016.2-.02.273-.09a.345.345 0 0 0 .122-.273.35.35 0 0 0-.114-.285.304.304 0 0 0-.27-.09l-.796.05.45-.69a.418.418 0 0 0 .054-.297.293.293 0 0 0-.156-.239.338.338 0 0 0-.293-.039.384.384 0 0 0-.215.2l-.356.738-.34-.73a.345.345 0 0 0-.222-.208.313.313 0 0 0-.293.032.394.394 0 0 0-.168.246c-.02.101 0 .21.058.296l.438.692-.777-.043a.378.378 0 0 0-.282.098.343.343 0 0 0-.113.27Zm-11.406 5.39c0 .114.035.212.11.282a.326.326 0 0 0 .273.094l.789-.051-.453.691c-.055.09-.075.184-.055.282.02.109.07.187.16.238a.323.323 0 0 0 .285.043.356.356 0 0 0 .219-.2l.36-.738.355.727c.031.102.11.184.207.21.097.04.207.032.297-.019a.34.34 0 0 0 .16-.25.355.355 0 0 0-.047-.293l-.441-.691.78.035a.32.32 0 0 0 .27-.098.327.327 0 0 0 .114-.261.357.357 0 0 0-.114-.27.315.315 0 0 0-.27-.09l-.788.051.441-.68c.055-.085.074-.19.055-.296a.356.356 0 0 0-.16-.247.277.277 0 0 0-.29-.039.384.384 0 0 0-.226.215l-.344.73-.36-.75a.352.352 0 0 0-.214-.187.328.328 0 0 0-.289.02c-.082.043-.137.125-.16.246-.02.121 0 .226.055.316l.441.672-.77-.058a.369.369 0 0 0-.28.085.377.377 0 0 0-.11.282Zm0 0"/></svg>