<?xml version="1.0" encoding="UTF-8"?>
<svg xmlns="http://www.w3.org/2000/svg" xmlns:xlink="http://www.w3.org/1999/xlink" width="24" height="28.5" viewBox="0 0 24 28.5" version="1.1">
<g id="surface1">
<path style=" stroke:none;fill-rule:nonzero;fill:rgb(100%,100%,100%);fill-opacity:1;" d="M 3.714844 25.746094 L 14.285156 25.746094 C 15.480469 25.746094 16.378906 25.445312 16.980469 24.84375 C 17.589844 24.242188 17.894531 23.351562 17.894531 22.171875 L 17.894531 13.335938 C 17.683594 13.460938 17.472656 13.582031 17.261719 13.699219 C 17.050781 13.808594 16.839844 13.914062 16.628906 14.015625 C 16.425781 14.117188 16.21875 14.214844 16.007812 14.308594 L 16.007812 22.078125 C 16.007812 22.65625 15.851562 23.097656 15.539062 23.402344 C 15.234375 23.707031 14.804688 23.859375 14.25 23.859375 L 3.738281 23.859375 C 3.183594 23.859375 2.75 23.707031 2.4375 23.402344 C 2.132812 23.097656 1.980469 22.65625 1.980469 22.078125 L 1.980469 3.925781 C 1.980469 3.347656 2.132812 2.90625 2.4375 2.601562 C 2.75 2.296875 3.183594 2.144531 3.738281 2.144531 L 14.507812 2.144531 C 14.851562 1.933594 15.203125 1.738281 15.5625 1.558594 C 15.921875 1.371094 16.28125 1.203125 16.640625 1.054688 C 16.109375 0.523438 15.300781 0.257812 14.214844 0.257812 L 3.714844 0.257812 C 2.519531 0.257812 1.617188 0.558594 1.007812 1.160156 C 0.398438 1.753906 0.09375 2.640625 0.09375 3.820312 L 0.09375 22.171875 C 0.09375 23.351562 0.398438 24.242188 1.007812 24.84375 C 1.617188 25.445312 2.519531 25.746094 3.714844 25.746094 Z M 5.085938 7.054688 C 5.539062 7.054688 5.925781 6.894531 6.246094 6.574219 C 6.574219 6.246094 6.738281 5.851562 6.738281 5.390625 C 6.738281 4.945312 6.574219 4.5625 6.246094 4.242188 C 5.925781 3.914062 5.539062 3.75 5.085938 3.75 C 4.632812 3.75 4.242188 3.914062 3.914062 4.242188 C 3.59375 4.5625 3.433594 4.945312 3.433594 5.390625 C 3.433594 5.851562 3.59375 6.246094 3.914062 6.574219 C 4.242188 6.894531 4.632812 7.054688 5.085938 7.054688 Z M 4.101562 16.335938 L 7.511719 16.335938 C 7.722656 16.335938 7.898438 16.265625 8.039062 16.125 C 8.1875 15.984375 8.261719 15.808594 8.261719 15.597656 C 8.261719 15.386719 8.1875 15.210938 8.039062 15.070312 C 7.898438 14.929688 7.722656 14.859375 7.511719 14.859375 L 4.101562 14.859375 C 3.898438 14.859375 3.722656 14.929688 3.574219 15.070312 C 3.433594 15.210938 3.363281 15.386719 3.363281 15.597656 C 3.363281 15.808594 3.433594 15.984375 3.574219 16.125 C 3.722656 16.265625 3.898438 16.335938 4.101562 16.335938 Z M 4.101562 19.265625 L 7.511719 19.265625 C 7.722656 19.265625 7.898438 19.195312 8.039062 19.054688 C 8.1875 18.914062 8.261719 18.738281 8.261719 18.527344 C 8.261719 18.316406 8.1875 18.140625 8.039062 18 C 7.898438 17.859375 7.722656 17.789062 7.511719 17.789062 L 4.101562 17.789062 C 3.898438 17.789062 3.722656 17.859375 3.574219 18 C 3.433594 18.140625 3.363281 18.316406 3.363281 18.527344 C 3.363281 18.738281 3.433594 18.914062 3.574219 19.054688 C 3.722656 19.195312 3.898438 19.265625 4.101562 19.265625 Z M 4.101562 22.195312 L 7.511719 22.195312 C 7.722656 22.195312 7.898438 22.125 8.039062 21.984375 C 8.1875 21.835938 8.261719 21.660156 8.261719 21.457031 C 8.261719 21.246094 8.1875 21.070312 8.039062 20.929688 C 7.898438 20.78125 7.722656 20.707031 7.511719 20.707031 L 4.101562 20.707031 C 3.898438 20.707031 3.722656 20.78125 3.574219 20.929688 C 3.433594 21.070312 3.363281 21.246094 3.363281 21.457031 C 3.363281 21.660156 3.433594 21.835938 3.574219 21.984375 C 3.722656 22.125 3.898438 22.195312 4.101562 22.195312 Z M 10.476562 16.335938 L 13.886719 16.335938 C 14.097656 16.335938 14.273438 16.265625 14.414062 16.125 C 14.554688 15.984375 14.625 15.808594 14.625 15.597656 C 14.625 15.386719 14.554688 15.210938 14.414062 15.070312 C 14.273438 14.929688 14.097656 14.859375 13.886719 14.859375 L 10.476562 14.859375 C 10.265625 14.859375 10.085938 14.929688 9.9375 15.070312 C 9.796875 15.210938 9.726562 15.386719 9.726562 15.597656 C 9.726562 15.808594 9.796875 15.984375 9.9375 16.125 C 10.085938 16.265625 10.265625 16.335938 10.476562 16.335938 Z M 10.476562 19.265625 L 13.886719 19.265625 C 14.097656 19.265625 14.273438 19.195312 14.414062 19.054688 C 14.554688 18.914062 14.625 18.738281 14.625 18.527344 C 14.625 18.316406 14.554688 18.140625 14.414062 18 C 14.273438 17.859375 14.097656 17.789062 13.886719 17.789062 L 10.476562 17.789062 C 10.265625 17.789062 10.085938 17.859375 9.9375 18 C 9.796875 18.140625 9.726562 18.316406 9.726562 18.527344 C 9.726562 18.738281 9.796875 18.914062 9.9375 19.054688 C 10.085938 19.195312 10.265625 19.265625 10.476562 19.265625 Z M 10.476562 22.195312 L 13.886719 22.195312 C 14.097656 22.195312 14.273438 22.125 14.414062 21.984375 C 14.554688 21.835938 14.625 21.660156 14.625 21.457031 C 14.625 21.246094 14.554688 21.070312 14.414062 20.929688 C 14.273438 20.78125 14.097656 20.707031 13.886719 20.707031 L 10.476562 20.707031 C 10.265625 20.707031 10.085938 20.78125 9.9375 20.929688 C 9.796875 21.070312 9.726562 21.246094 9.726562 21.457031 C 9.726562 21.660156 9.796875 21.835938 9.9375 21.984375 C 10.085938 22.125 10.265625 22.195312 10.476562 22.195312 Z M 3.492188 27.808594 C 3.773438 27.808594 4 27.71875 4.171875 27.539062 C 4.34375 27.367188 4.429688 27.140625 4.429688 26.859375 L 4.429688 24.5625 L 2.542969 24.5625 L 2.542969 26.859375 C 2.542969 27.140625 2.628906 27.367188 2.800781 27.539062 C 2.980469 27.71875 3.210938 27.808594 3.492188 27.808594 Z M 14.496094 27.808594 C 14.777344 27.808594 15.003906 27.71875 15.175781 27.539062 C 15.355469 27.367188 15.445312 27.140625 15.445312 26.859375 L 15.445312 24.5625 L 13.558594 24.5625 L 13.558594 26.859375 C 13.558594 27.140625 13.644531 27.367188 13.816406 27.539062 C 13.988281 27.71875 14.214844 27.808594 14.496094 27.808594 Z M 12.574219 6.375 C 13.355469 6.375 14.058594 6.246094 14.683594 5.988281 C 15.316406 5.730469 15.910156 5.433594 16.464844 5.097656 C 17.027344 4.761719 17.597656 4.46875 18.175781 4.21875 C 18.753906 3.960938 19.382812 3.832031 20.0625 3.832031 C 20.382812 3.832031 20.683594 3.871094 20.964844 3.949219 C 21.253906 4.019531 21.566406 4.148438 21.902344 4.335938 C 22.113281 4.453125 22.304688 4.484375 22.476562 4.429688 C 22.65625 4.367188 22.792969 4.269531 22.886719 4.136719 C 23.003906 3.964844 23.046875 3.765625 23.015625 3.539062 C 22.984375 3.3125 22.839844 3.128906 22.582031 2.988281 C 21.800781 2.535156 20.960938 2.308594 20.0625 2.308594 C 19.265625 2.308594 18.550781 2.4375 17.917969 2.695312 C 17.292969 2.953125 16.699219 3.25 16.136719 3.585938 C 15.574219 3.921875 15.007812 4.21875 14.4375 4.476562 C 13.867188 4.734375 13.246094 4.863281 12.574219 4.863281 C 12.261719 4.863281 11.960938 4.824219 11.671875 4.746094 C 11.382812 4.667969 11.070312 4.53125 10.734375 4.335938 C 10.53125 4.226562 10.339844 4.203125 10.160156 4.265625 C 9.980469 4.320312 9.84375 4.421875 9.75 4.570312 C 9.640625 4.734375 9.601562 4.929688 9.632812 5.15625 C 9.664062 5.375 9.804688 5.554688 10.054688 5.695312 C 10.4375 5.929688 10.839844 6.101562 11.261719 6.210938 C 11.691406 6.320312 12.128906 6.375 12.574219 6.375 Z M 12.585938 9.644531 C 13.367188 9.644531 14.070312 9.515625 14.695312 9.257812 C 15.320312 9 15.914062 8.703125 16.476562 8.367188 C 17.039062 8.03125 17.605469 7.734375 18.175781 7.476562 C 18.753906 7.21875 19.382812 7.089844 20.0625 7.089844 C 20.382812 7.089844 20.6875 7.128906 20.976562 7.207031 C 21.265625 7.285156 21.578125 7.417969 21.914062 7.605469 C 22.117188 7.722656 22.308594 7.753906 22.488281 7.699219 C 22.667969 7.636719 22.804688 7.535156 22.898438 7.394531 C 23.007812 7.230469 23.046875 7.035156 23.015625 6.808594 C 22.992188 6.582031 22.855469 6.394531 22.605469 6.246094 C 21.816406 5.792969 20.96875 5.566406 20.0625 5.566406 C 19.273438 5.566406 18.5625 5.695312 17.929688 5.953125 C 17.296875 6.210938 16.699219 6.511719 16.136719 6.855469 C 15.582031 7.191406 15.019531 7.488281 14.449219 7.746094 C 13.878906 8.003906 13.257812 8.132812 12.585938 8.132812 C 12.265625 8.132812 11.960938 8.09375 11.671875 8.015625 C 11.390625 7.929688 11.082031 7.792969 10.746094 7.605469 C 10.542969 7.488281 10.347656 7.460938 10.160156 7.523438 C 9.980469 7.578125 9.84375 7.683594 9.75 7.839844 C 9.640625 8.003906 9.601562 8.199219 9.632812 8.425781 C 9.671875 8.644531 9.816406 8.824219 10.066406 8.964844 C 10.449219 9.199219 10.851562 9.371094 11.273438 9.480469 C 11.703125 9.589844 12.140625 9.644531 12.585938 9.644531 Z M 12.574219 12.902344 C 13.355469 12.902344 14.058594 12.773438 14.683594 12.515625 C 15.316406 12.257812 15.910156 11.960938 16.464844 11.625 C 17.027344 11.289062 17.597656 10.996094 18.175781 10.746094 C 18.753906 10.488281 19.382812 10.359375 20.0625 10.359375 C 20.382812 10.359375 20.683594 10.398438 20.964844 10.476562 C 21.253906 10.546875 21.566406 10.675781 21.902344 10.863281 C 22.113281 10.980469 22.304688 11.011719 22.476562 10.957031 C 22.65625 10.894531 22.792969 10.796875 22.886719 10.664062 C 23.003906 10.492188 23.046875 10.292969 23.015625 10.066406 C 22.984375 9.839844 22.839844 9.65625 22.582031 9.515625 C 21.800781 9.0625 20.960938 8.835938 20.0625 8.835938 C 19.265625 8.835938 18.550781 8.964844 17.917969 9.222656 C 17.292969 9.480469 16.699219 9.777344 16.136719 10.113281 C 15.574219 10.449219 15.007812 10.746094 14.4375 11.003906 C 13.867188 11.261719 13.246094 11.390625 12.574219 11.390625 C 12.261719 11.390625 11.960938 11.351562 11.671875 11.273438 C 11.382812 11.195312 11.070312 11.058594 10.734375 10.863281 C 10.53125 10.753906 10.339844 10.730469 10.160156 10.792969 C 9.980469 10.847656 9.84375 10.949219 9.75 11.097656 C 9.640625 11.261719 9.601562 11.457031 9.632812 11.683594 C 9.664062 11.902344 9.804688 12.082031 10.054688 12.222656 C 10.4375 12.464844 10.839844 12.640625 11.261719 12.75 C 11.691406 12.851562 12.128906 12.902344 12.574219 12.902344 Z M 12.574219 12.902344 "/>
</g>
</svg>
