<svg width="20" height="19" viewBox="0 0 20 19" fill="none" xmlns="http://www.w3.org/2000/svg">
<path d="M0.609375 1.875V6.71875C0.609375 7.25521 0.768229 7.6849 1.08594 8.00781C1.40365 8.33073 1.82552 8.49219 2.35156 8.49219H17.6406C18.1667 8.49219 18.5885 8.33073 18.9062 8.00781C19.224 7.6849 19.3828 7.25521 19.3828 6.71875V1.875C19.3828 1.33854 19.224 0.908854 18.9062 0.585938C18.5885 0.263021 18.1667 0.101562 17.6406 0.101562H2.35156C1.82552 0.101562 1.40365 0.263021 1.08594 0.585938C0.768229 0.908854 0.609375 1.33854 0.609375 1.875ZM13.2891 6.35156C13.2891 6.23698 13.3281 6.14062 13.4062 6.0625C13.4896 5.98438 13.5885 5.94531 13.7031 5.94531H16.8828C16.9974 5.94531 17.0938 5.98438 17.1719 6.0625C17.2552 6.14062 17.2969 6.23698 17.2969 6.35156C17.2969 6.46615 17.2552 6.5625 17.1719 6.64062C17.0938 6.71875 16.9974 6.75781 16.8828 6.75781H13.7031C13.5885 6.75781 13.4896 6.71875 13.4062 6.64062C13.3281 6.5625 13.2891 6.46615 13.2891 6.35156ZM13.2891 4.69531C13.2891 4.57552 13.3281 4.47656 13.4062 4.39844C13.4896 4.3151 13.5885 4.27344 13.7031 4.27344H16.8828C16.9974 4.27344 17.0938 4.3151 17.1719 4.39844C17.2552 4.47656 17.2969 4.57552 17.2969 4.69531C17.2969 4.80469 17.2552 4.89844 17.1719 4.97656C17.0938 5.05469 16.9974 5.09375 16.8828 5.09375H13.7031C13.5885 5.09375 13.4896 5.05469 13.4062 4.97656C13.3281 4.89844 13.2891 4.80469 13.2891 4.69531ZM8.02344 6.35156C8.02344 6.23698 8.0625 6.14062 8.14062 6.0625C8.22396 5.98438 8.32292 5.94531 8.4375 5.94531H11.6172C11.7266 5.94531 11.8203 5.98438 11.8984 6.0625C11.9818 6.14062 12.0234 6.23698 12.0234 6.35156C12.0234 6.46615 11.9818 6.5625 11.8984 6.64062C11.8203 6.71875 11.7266 6.75781 11.6172 6.75781H8.4375C8.32292 6.75781 8.22396 6.71875 8.14062 6.64062C8.0625 6.5625 8.02344 6.46615 8.02344 6.35156ZM8.02344 4.69531C8.02344 4.57552 8.0625 4.47656 8.14062 4.39844C8.22396 4.3151 8.32292 4.27344 8.4375 4.27344H11.6172C11.7266 4.27344 11.8203 4.3151 11.8984 4.39844C11.9818 4.47656 12.0234 4.57552 12.0234 4.69531C12.0234 4.80469 11.9818 4.89844 11.8984 4.97656C11.8203 5.05469 11.7266 5.09375 11.6172 5.09375H8.4375C8.32292 5.09375 8.22396 5.05469 8.14062 4.97656C8.0625 4.89844 8.02344 4.80469 8.02344 4.69531ZM2.74219 6.35156C2.74219 6.23698 2.78125 6.14062 2.85938 6.0625C2.94271 5.98438 3.03906 5.94531 3.14844 5.94531H6.32812C6.44271 5.94531 6.53906 5.98438 6.61719 6.0625C6.70052 6.14062 6.74219 6.23698 6.74219 6.35156C6.74219 6.46615 6.70052 6.5625 6.61719 6.64062C6.53906 6.71875 6.44271 6.75781 6.32812 6.75781H3.14844C3.03906 6.75781 2.94271 6.71875 2.85938 6.64062C2.78125 6.5625 2.74219 6.46615 2.74219 6.35156ZM2.74219 4.69531C2.74219 4.57552 2.78125 4.47656 2.85938 4.39844C2.94271 4.3151 3.03906 4.27344 3.14844 4.27344H6.32812C6.44271 4.27344 6.53906 4.3151 6.61719 4.39844C6.70052 4.47656 6.74219 4.57552 6.74219 4.69531C6.74219 4.80469 6.70052 4.89844 6.61719 4.97656C6.53906 5.05469 6.44271 5.09375 6.32812 5.09375H3.14844C3.03906 5.09375 2.94271 5.05469 2.85938 4.97656C2.78125 4.89844 2.74219 4.80469 2.74219 4.69531ZM10.9375 11.5781C10.9375 11.9948 10.9948 12.3776 11.1094 12.7266C11.224 13.0755 11.3646 13.4062 11.5312 13.7188C11.7031 14.026 11.8724 14.3281 12.0391 14.625C12.2057 14.9219 12.3464 15.2292 12.4609 15.5469C12.5755 15.8646 12.6328 16.2057 12.6328 16.5703C12.6328 16.7786 12.6068 16.9766 12.5547 17.1641C12.5078 17.3568 12.4219 17.5651 12.2969 17.7891C12.2188 17.9297 12.1979 18.0573 12.2344 18.1719C12.276 18.2917 12.3411 18.3854 12.4297 18.4531C12.5443 18.526 12.6771 18.5521 12.8281 18.5312C12.9792 18.5104 13.1016 18.4141 13.1953 18.2422C13.4974 17.7266 13.6484 17.1693 13.6484 16.5703C13.6484 16.1432 13.5911 15.7526 13.4766 15.3984C13.362 15.0495 13.2188 14.7214 13.0469 14.4141C12.8802 14.1016 12.7109 13.7969 12.5391 13.5C12.3724 13.2031 12.2318 12.8984 12.1172 12.5859C12.0026 12.2734 11.9453 11.9375 11.9453 11.5781C11.9453 11.3646 11.9714 11.1641 12.0234 10.9766C12.0755 10.7839 12.1667 10.5729 12.2969 10.3438C12.3698 10.2135 12.3854 10.0885 12.3438 9.96875C12.3073 9.84896 12.2396 9.75521 12.1406 9.6875C12.0312 9.61979 11.901 9.59635 11.75 9.61719C11.6042 9.63802 11.4844 9.72917 11.3906 9.89062C11.2292 10.151 11.112 10.4245 11.0391 10.7109C10.9714 10.9922 10.9375 11.2812 10.9375 11.5781ZM8.64062 11.5859C8.64062 12.0026 8.69792 12.3854 8.8125 12.7344C8.92708 13.0781 9.06771 13.4062 9.23438 13.7188C9.40104 14.026 9.56771 14.3307 9.73438 14.6328C9.90625 14.9297 10.0495 15.2344 10.1641 15.5469C10.2786 15.8646 10.3359 16.2057 10.3359 16.5703C10.3359 16.7839 10.3099 16.9844 10.2578 17.1719C10.2109 17.3646 10.1224 17.5729 9.99219 17.7969C9.91927 17.9375 9.90104 18.0651 9.9375 18.1797C9.97917 18.2995 10.0443 18.3932 10.1328 18.4609C10.2422 18.5286 10.3724 18.5547 10.5234 18.5391C10.6745 18.5234 10.7995 18.4297 10.8984 18.2578C11.2005 17.7318 11.3516 17.1693 11.3516 16.5703C11.3516 16.1484 11.2943 15.7604 11.1797 15.4062C11.0651 15.0573 10.9219 14.7292 10.75 14.4219C10.5833 14.1094 10.4141 13.8047 10.2422 13.5078C10.0755 13.2057 9.9349 12.901 9.82031 12.5938C9.70573 12.2812 9.64844 11.9453 9.64844 11.5859C9.64844 11.3724 9.67448 11.1693 9.72656 10.9766C9.77865 10.7839 9.86719 10.5755 9.99219 10.3516C10.0703 10.2214 10.0885 10.0964 10.0469 9.97656C10.0104 9.85156 9.94271 9.75521 9.84375 9.6875C9.73438 9.61979 9.60417 9.59635 9.45312 9.61719C9.30208 9.63802 9.18229 9.73177 9.09375 9.89844C8.93229 10.1589 8.8151 10.4323 8.74219 10.7188C8.67448 11 8.64062 11.2891 8.64062 11.5859ZM6.34375 11.5781C6.34375 11.9948 6.40104 12.3776 6.51562 12.7266C6.63021 13.0755 6.77083 13.4062 6.9375 13.7188C7.10417 14.026 7.27083 14.3281 7.4375 14.625C7.60938 14.9219 7.7526 15.2292 7.86719 15.5469C7.98177 15.8646 8.03906 16.2057 8.03906 16.5703C8.03906 16.7786 8.01302 16.9766 7.96094 17.1641C7.91406 17.3568 7.82552 17.5651 7.69531 17.7891C7.61719 17.9297 7.59635 18.0573 7.63281 18.1719C7.67448 18.2917 7.74219 18.3854 7.83594 18.4531C7.94531 18.526 8.07552 18.5521 8.22656 18.5312C8.3776 18.5104 8.5026 18.4141 8.60156 18.2422C8.90365 17.7266 9.05469 17.1693 9.05469 16.5703C9.05469 16.1432 8.9974 15.7526 8.88281 15.3984C8.76823 15.0495 8.625 14.7214 8.45312 14.4141C8.28646 14.1016 8.11719 13.7969 7.94531 13.5C7.77865 13.2031 7.63802 12.8984 7.52344 12.5859C7.40885 12.2734 7.35156 11.9375 7.35156 11.5781C7.35156 11.3646 7.3776 11.1641 7.42969 10.9766C7.48177 10.7839 7.57031 10.5729 7.69531 10.3438C7.77344 10.2135 7.79167 10.0885 7.75 9.96875C7.71354 9.84896 7.64583 9.75521 7.54688 9.6875C7.4375 9.61979 7.30729 9.59635 7.15625 9.61719C7.00521 9.63802 6.88281 9.72917 6.78906 9.89062C6.63281 10.151 6.51823 10.4245 6.44531 10.7109C6.3776 10.9922 6.34375 11.2812 6.34375 11.5781ZM13.3672 11.9375C13.3672 12.0208 13.3984 12.0911 13.4609 12.1484C13.5286 12.2057 13.6068 12.2292 13.6953 12.2188L14.3438 12.1797L13.9766 12.7188C13.9349 12.7865 13.9219 12.8646 13.9375 12.9531C13.9531 13.0365 13.9974 13.1016 14.0703 13.1484C14.1432 13.1953 14.224 13.2057 14.3125 13.1797C14.401 13.1484 14.4609 13.0911 14.4922 13.0078L14.7812 12.4219L15.0781 13.0234C15.1198 13.0964 15.1797 13.1484 15.2578 13.1797C15.3411 13.2057 15.4219 13.1979 15.5 13.1562C15.5729 13.1146 15.6172 13.0495 15.6328 12.9609C15.6536 12.8672 15.638 12.7839 15.5859 12.7109L15.2188 12.1797L15.8672 12.2266C15.9505 12.237 16.026 12.2135 16.0938 12.1562C16.1615 12.099 16.1953 12.026 16.1953 11.9375C16.1953 11.8438 16.1641 11.7682 16.1016 11.7109C16.0391 11.6536 15.9635 11.6302 15.875 11.6406L15.2109 11.6797L15.5859 11.1328C15.6328 11.0599 15.6484 10.9818 15.6328 10.8984C15.6224 10.8151 15.5781 10.7526 15.5 10.7109C15.4219 10.6641 15.3411 10.6536 15.2578 10.6797C15.1797 10.7057 15.1198 10.7578 15.0781 10.8359L14.7812 11.4219L14.5 10.8438C14.4635 10.7604 14.401 10.7057 14.3125 10.6797C14.2292 10.6484 14.1484 10.6562 14.0703 10.7031C13.9974 10.7448 13.9505 10.8099 13.9297 10.8984C13.9141 10.9818 13.9297 11.0599 13.9766 11.1328L14.3438 11.6797L13.6953 11.6484C13.6016 11.6432 13.5234 11.6693 13.4609 11.7266C13.3984 11.7786 13.3672 11.849 13.3672 11.9375ZM3.85938 16.2031C3.85938 16.2969 3.89062 16.3724 3.95312 16.4297C4.01562 16.487 4.09115 16.5104 4.17969 16.5L4.83594 16.4609L4.46094 17.0078C4.41406 17.0807 4.39844 17.1562 4.41406 17.2344C4.42969 17.3177 4.47396 17.3802 4.54688 17.4219C4.63021 17.4688 4.71094 17.4792 4.78906 17.4531C4.8724 17.4271 4.93229 17.375 4.96875 17.2969L5.26562 16.7109L5.5625 17.2891C5.59375 17.3724 5.65104 17.4271 5.73438 17.4531C5.81771 17.4844 5.90104 17.4792 5.98438 17.4375C6.05729 17.3958 6.10156 17.3307 6.11719 17.2422C6.13802 17.1589 6.125 17.0807 6.07812 17.0078L5.71094 16.4609L6.35938 16.4922C6.44792 16.4974 6.52344 16.4714 6.58594 16.4141C6.64844 16.362 6.67969 16.2917 6.67969 16.2031C6.67969 16.1198 6.64844 16.0495 6.58594 15.9922C6.52344 15.9349 6.44792 15.9115 6.35938 15.9219L5.70312 15.9609L6.07031 15.4219C6.11719 15.3542 6.13281 15.276 6.11719 15.1875C6.10156 15.1042 6.05729 15.0391 5.98438 14.9922C5.91146 14.9401 5.83073 14.9297 5.74219 14.9609C5.65365 14.9922 5.59115 15.0495 5.55469 15.1328L5.26562 15.7109L4.96875 15.1172C4.93229 15.0443 4.8724 14.9948 4.78906 14.9688C4.71094 14.9375 4.63021 14.9427 4.54688 14.9844C4.47917 15.0208 4.4349 15.0859 4.41406 15.1797C4.39844 15.2734 4.41406 15.3568 4.46094 15.4297L4.82812 15.9609L4.1875 15.9141C4.09896 15.9036 4.02083 15.9271 3.95312 15.9844C3.89062 16.0417 3.85938 16.1146 3.85938 16.2031Z" fill="white"/>
</svg>
