<?xml version="1.0" encoding="UTF-8"?>
<svg xmlns="http://www.w3.org/2000/svg" xmlns:xlink="http://www.w3.org/1999/xlink" width="24" height="22.8" viewBox="0 0 24 22.8" version="1.1">
<g id="surface1">
<path style=" stroke:none;fill-rule:nonzero;fill:rgb(100%,100%,100%);fill-opacity:1;" d="M 0.730469 2.25 L 0.730469 8.0625 C 0.730469 8.707031 0.921875 9.222656 1.304688 9.609375 C 1.683594 9.996094 2.191406 10.191406 2.820312 10.191406 L 21.167969 10.191406 C 21.800781 10.191406 22.304688 9.996094 22.6875 9.609375 C 23.070312 9.222656 23.257812 8.707031 23.257812 8.0625 L 23.257812 2.25 C 23.257812 1.605469 23.070312 1.089844 22.6875 0.703125 C 22.304688 0.316406 21.800781 0.121094 21.167969 0.121094 L 2.820312 0.121094 C 2.191406 0.121094 1.683594 0.316406 1.304688 0.703125 C 0.921875 1.089844 0.730469 1.605469 0.730469 2.25 Z M 15.945312 7.621094 C 15.945312 7.484375 15.992188 7.367188 16.085938 7.273438 C 16.1875 7.179688 16.304688 7.132812 16.445312 7.132812 L 20.257812 7.132812 C 20.398438 7.132812 20.511719 7.179688 20.605469 7.273438 C 20.707031 7.367188 20.757812 7.484375 20.757812 7.621094 C 20.757812 7.757812 20.707031 7.875 20.605469 7.96875 C 20.511719 8.0625 20.398438 8.109375 20.257812 8.109375 L 16.445312 8.109375 C 16.304688 8.109375 16.1875 8.0625 16.085938 7.96875 C 15.992188 7.875 15.945312 7.757812 15.945312 7.621094 Z M 15.945312 5.632812 C 15.945312 5.492188 15.992188 5.371094 16.085938 5.277344 C 16.1875 5.179688 16.304688 5.128906 16.445312 5.128906 L 20.257812 5.128906 C 20.398438 5.128906 20.511719 5.179688 20.605469 5.277344 C 20.707031 5.371094 20.757812 5.492188 20.757812 5.632812 C 20.757812 5.765625 20.707031 5.878906 20.605469 5.972656 C 20.511719 6.066406 20.398438 6.113281 20.257812 6.113281 L 16.445312 6.113281 C 16.304688 6.113281 16.1875 6.066406 16.085938 5.972656 C 15.992188 5.878906 15.945312 5.765625 15.945312 5.632812 Z M 9.628906 7.621094 C 9.628906 7.484375 9.675781 7.367188 9.769531 7.273438 C 9.867188 7.179688 9.988281 7.132812 10.125 7.132812 L 13.941406 7.132812 C 14.070312 7.132812 14.183594 7.179688 14.277344 7.273438 C 14.378906 7.367188 14.429688 7.484375 14.429688 7.621094 C 14.429688 7.757812 14.378906 7.875 14.277344 7.96875 C 14.183594 8.0625 14.070312 8.109375 13.941406 8.109375 L 10.125 8.109375 C 9.988281 8.109375 9.867188 8.0625 9.769531 7.96875 C 9.675781 7.875 9.628906 7.757812 9.628906 7.621094 Z M 9.628906 5.632812 C 9.628906 5.492188 9.675781 5.371094 9.769531 5.277344 C 9.867188 5.179688 9.988281 5.128906 10.125 5.128906 L 13.941406 5.128906 C 14.070312 5.128906 14.183594 5.179688 14.277344 5.277344 C 14.378906 5.371094 14.429688 5.492188 14.429688 5.632812 C 14.429688 5.765625 14.378906 5.878906 14.277344 5.972656 C 14.183594 6.066406 14.070312 6.113281 13.941406 6.113281 L 10.125 6.113281 C 9.988281 6.113281 9.867188 6.066406 9.769531 5.972656 C 9.675781 5.878906 9.628906 5.765625 9.628906 5.632812 Z M 3.289062 7.621094 C 3.289062 7.484375 3.335938 7.367188 3.429688 7.273438 C 3.53125 7.179688 3.648438 7.132812 3.777344 7.132812 L 7.59375 7.132812 C 7.730469 7.132812 7.847656 7.179688 7.941406 7.273438 C 8.039062 7.367188 8.089844 7.484375 8.089844 7.621094 C 8.089844 7.757812 8.039062 7.875 7.941406 7.96875 C 7.847656 8.0625 7.730469 8.109375 7.59375 8.109375 L 3.777344 8.109375 C 3.648438 8.109375 3.53125 8.0625 3.429688 7.96875 C 3.335938 7.875 3.289062 7.757812 3.289062 7.621094 Z M 3.289062 5.632812 C 3.289062 5.492188 3.335938 5.371094 3.429688 5.277344 C 3.53125 5.179688 3.648438 5.128906 3.777344 5.128906 L 7.59375 5.128906 C 7.730469 5.128906 7.847656 5.179688 7.941406 5.277344 C 8.039062 5.371094 8.089844 5.492188 8.089844 5.632812 C 8.089844 5.765625 8.039062 5.878906 7.941406 5.972656 C 7.847656 6.066406 7.730469 6.113281 7.59375 6.113281 L 3.777344 6.113281 C 3.648438 6.113281 3.53125 6.066406 3.429688 5.972656 C 3.335938 5.878906 3.289062 5.765625 3.289062 5.632812 Z M 13.125 13.894531 C 13.125 14.394531 13.195312 14.851562 13.332031 15.273438 C 13.46875 15.691406 13.636719 16.085938 13.835938 16.460938 C 14.042969 16.832031 14.246094 17.195312 14.445312 17.550781 C 14.648438 17.90625 14.816406 18.273438 14.953125 18.65625 C 15.089844 19.039062 15.160156 19.445312 15.160156 19.882812 C 15.160156 20.132812 15.128906 20.371094 15.066406 20.597656 C 15.007812 20.828125 14.90625 21.078125 14.757812 21.347656 C 14.664062 21.515625 14.636719 21.667969 14.679688 21.804688 C 14.730469 21.949219 14.808594 22.0625 14.914062 22.144531 C 15.054688 22.230469 15.210938 22.261719 15.394531 22.238281 C 15.574219 22.210938 15.722656 22.097656 15.835938 21.890625 C 16.195312 21.273438 16.378906 20.601562 16.378906 19.882812 C 16.378906 19.371094 16.308594 18.902344 16.171875 18.476562 C 16.035156 18.058594 15.863281 17.664062 15.65625 17.296875 C 15.457031 16.921875 15.253906 16.554688 15.046875 16.199219 C 14.847656 15.84375 14.679688 15.476562 14.539062 15.101562 C 14.402344 14.726562 14.335938 14.324219 14.335938 13.894531 C 14.335938 13.636719 14.367188 13.398438 14.429688 13.171875 C 14.492188 12.941406 14.601562 12.6875 14.757812 12.414062 C 14.84375 12.257812 14.863281 12.105469 14.8125 11.960938 C 14.769531 11.820312 14.6875 11.707031 14.570312 11.625 C 14.4375 11.542969 14.28125 11.515625 14.101562 11.539062 C 13.925781 11.566406 13.78125 11.675781 13.667969 11.867188 C 13.476562 12.179688 13.335938 12.507812 13.246094 12.851562 C 13.164062 13.191406 13.125 13.539062 13.125 13.894531 Z M 10.367188 13.902344 C 10.367188 14.402344 10.4375 14.863281 10.574219 15.28125 C 10.710938 15.695312 10.882812 16.085938 11.082031 16.460938 C 11.28125 16.832031 11.480469 17.195312 11.679688 17.558594 C 11.886719 17.914062 12.058594 18.28125 12.195312 18.65625 C 12.335938 19.039062 12.402344 19.445312 12.402344 19.882812 C 12.402344 20.140625 12.371094 20.382812 12.308594 20.605469 C 12.253906 20.835938 12.148438 21.085938 11.992188 21.355469 C 11.902344 21.523438 11.882812 21.679688 11.925781 21.816406 C 11.976562 21.960938 12.054688 22.070312 12.160156 22.152344 C 12.289062 22.234375 12.445312 22.265625 12.628906 22.246094 C 12.808594 22.226562 12.960938 22.117188 13.078125 21.910156 C 13.441406 21.277344 13.621094 20.601562 13.621094 19.882812 C 13.621094 19.378906 13.554688 18.914062 13.414062 18.488281 C 13.277344 18.070312 13.105469 17.675781 12.898438 17.304688 C 12.699219 16.929688 12.496094 16.566406 12.289062 16.210938 C 12.089844 15.847656 11.921875 15.480469 11.785156 15.113281 C 11.648438 14.738281 11.578125 14.335938 11.578125 13.902344 C 11.578125 13.648438 11.609375 13.402344 11.671875 13.171875 C 11.734375 12.941406 11.839844 12.691406 11.992188 12.421875 C 12.085938 12.265625 12.105469 12.117188 12.054688 11.972656 C 12.011719 11.820312 11.929688 11.707031 11.8125 11.625 C 11.679688 11.542969 11.523438 11.515625 11.34375 11.539062 C 11.164062 11.566406 11.019531 11.679688 10.914062 11.878906 C 10.71875 12.191406 10.578125 12.519531 10.492188 12.863281 C 10.410156 13.199219 10.367188 13.546875 10.367188 13.902344 Z M 7.613281 13.894531 C 7.613281 14.394531 7.679688 14.851562 7.820312 15.273438 C 7.957031 15.691406 8.125 16.085938 8.324219 16.460938 C 8.523438 16.832031 8.726562 17.195312 8.925781 17.550781 C 9.132812 17.90625 9.304688 18.273438 9.441406 18.65625 C 9.578125 19.039062 9.648438 19.445312 9.648438 19.882812 C 9.648438 20.132812 9.617188 20.371094 9.554688 20.597656 C 9.496094 20.828125 9.390625 21.078125 9.234375 21.347656 C 9.140625 21.515625 9.117188 21.667969 9.160156 21.804688 C 9.210938 21.949219 9.289062 22.0625 9.402344 22.144531 C 9.535156 22.230469 9.691406 22.261719 9.871094 22.238281 C 10.054688 22.210938 10.203125 22.097656 10.320312 21.890625 C 10.683594 21.273438 10.867188 20.601562 10.867188 19.882812 C 10.867188 19.371094 10.796875 18.902344 10.660156 18.476562 C 10.523438 18.058594 10.351562 17.664062 10.144531 17.296875 C 9.945312 16.921875 9.742188 16.554688 9.535156 16.199219 C 9.335938 15.84375 9.164062 15.476562 9.027344 15.101562 C 8.890625 14.726562 8.820312 14.324219 8.820312 13.894531 C 8.820312 13.636719 8.851562 13.398438 8.914062 13.171875 C 8.976562 12.941406 9.085938 12.6875 9.234375 12.414062 C 9.328125 12.257812 9.351562 12.105469 9.300781 11.960938 C 9.257812 11.820312 9.175781 11.707031 9.054688 11.625 C 8.925781 11.542969 8.769531 11.515625 8.585938 11.539062 C 8.40625 11.566406 8.257812 11.675781 8.148438 11.867188 C 7.960938 12.179688 7.820312 12.507812 7.734375 12.851562 C 7.652344 13.191406 7.613281 13.539062 7.613281 13.894531 Z M 16.039062 14.324219 C 16.039062 14.425781 16.078125 14.507812 16.152344 14.578125 C 16.234375 14.648438 16.328125 14.675781 16.433594 14.664062 L 17.210938 14.617188 L 16.773438 15.261719 C 16.722656 15.34375 16.707031 15.4375 16.726562 15.542969 C 16.742188 15.644531 16.796875 15.722656 16.882812 15.777344 C 16.972656 15.835938 17.070312 15.847656 17.175781 15.816406 C 17.28125 15.777344 17.351562 15.710938 17.390625 15.609375 L 17.738281 14.90625 L 18.09375 15.628906 C 18.144531 15.714844 18.214844 15.777344 18.308594 15.816406 C 18.410156 15.847656 18.507812 15.835938 18.601562 15.789062 C 18.6875 15.738281 18.742188 15.660156 18.757812 15.554688 C 18.785156 15.441406 18.765625 15.339844 18.703125 15.253906 L 18.261719 14.617188 L 19.039062 14.671875 C 19.140625 14.683594 19.230469 14.65625 19.3125 14.585938 C 19.394531 14.519531 19.433594 14.429688 19.433594 14.324219 C 19.433594 14.210938 19.398438 14.121094 19.320312 14.054688 C 19.246094 13.984375 19.15625 13.957031 19.050781 13.96875 L 18.253906 14.015625 L 18.703125 13.359375 C 18.757812 13.273438 18.777344 13.179688 18.757812 13.078125 C 18.746094 12.976562 18.695312 12.902344 18.601562 12.851562 C 18.507812 12.796875 18.410156 12.785156 18.308594 12.816406 C 18.214844 12.847656 18.144531 12.910156 18.09375 13.003906 L 17.738281 13.707031 L 17.398438 13.011719 C 17.355469 12.914062 17.28125 12.847656 17.175781 12.816406 C 17.074219 12.777344 16.976562 12.789062 16.882812 12.84375 C 16.796875 12.894531 16.742188 12.972656 16.714844 13.078125 C 16.695312 13.179688 16.714844 13.273438 16.773438 13.359375 L 17.210938 14.015625 L 16.433594 13.976562 C 16.320312 13.972656 16.226562 14.003906 16.152344 14.070312 C 16.078125 14.132812 16.039062 14.21875 16.039062 14.324219 Z M 4.632812 19.445312 C 4.632812 19.554688 4.667969 19.648438 4.742188 19.714844 C 4.820312 19.785156 4.910156 19.8125 5.015625 19.800781 L 5.804688 19.753906 L 5.351562 20.410156 C 5.296875 20.496094 5.277344 20.585938 5.296875 20.679688 C 5.316406 20.78125 5.367188 20.855469 5.457031 20.90625 C 5.554688 20.960938 5.652344 20.976562 5.746094 20.945312 C 5.847656 20.914062 5.917969 20.851562 5.960938 20.757812 L 6.320312 20.054688 L 6.675781 20.746094 C 6.710938 20.847656 6.78125 20.914062 6.882812 20.945312 C 6.980469 20.980469 7.082031 20.976562 7.179688 20.925781 C 7.269531 20.875 7.320312 20.796875 7.339844 20.691406 C 7.367188 20.589844 7.351562 20.496094 7.292969 20.410156 L 6.851562 19.753906 L 7.632812 19.789062 C 7.738281 19.796875 7.828125 19.765625 7.902344 19.695312 C 7.976562 19.632812 8.015625 19.550781 8.015625 19.445312 C 8.015625 19.34375 7.976562 19.257812 7.902344 19.191406 C 7.828125 19.121094 7.738281 19.09375 7.632812 19.105469 L 6.84375 19.152344 L 7.285156 18.507812 C 7.339844 18.425781 7.359375 18.332031 7.339844 18.226562 C 7.320312 18.125 7.269531 18.046875 7.179688 17.992188 C 7.09375 17.929688 6.996094 17.914062 6.890625 17.953125 C 6.785156 17.992188 6.710938 18.058594 6.664062 18.160156 L 6.320312 18.851562 L 5.960938 18.140625 C 5.917969 18.054688 5.847656 17.992188 5.746094 17.960938 C 5.652344 17.925781 5.554688 17.929688 5.457031 17.980469 C 5.375 18.023438 5.320312 18.101562 5.296875 18.214844 C 5.277344 18.328125 5.296875 18.429688 5.351562 18.515625 L 5.792969 19.152344 L 5.023438 19.097656 C 4.917969 19.085938 4.824219 19.113281 4.742188 19.179688 C 4.667969 19.25 4.632812 19.335938 4.632812 19.445312 Z M 4.632812 19.445312 "/>
</g>
</svg>
