<?xml version="1.0" encoding="UTF-8"?>
<svg xmlns="http://www.w3.org/2000/svg" xmlns:xlink="http://www.w3.org/1999/xlink" width="24" height="25.5" viewBox="0 0 24 25.5" version="1.1">
<g id="surface1">
<path style=" stroke:none;fill-rule:nonzero;fill:rgb(100%,100%,100%);fill-opacity:1;" d="M 12 24.503906 C 13.632812 24.503906 15.167969 24.191406 16.605469 23.566406 C 18.050781 22.941406 19.324219 22.078125 20.425781 20.976562 C 21.527344 19.875 22.390625 18.605469 23.015625 17.167969 C 23.640625 15.722656 23.953125 14.183594 23.953125 12.550781 C 23.953125 10.917969 23.640625 9.382812 23.015625 7.945312 C 22.390625 6.5 21.527344 5.226562 20.425781 4.125 C 19.324219 3.023438 18.050781 2.160156 16.605469 1.535156 C 15.160156 0.910156 13.621094 0.597656 11.988281 0.597656 C 10.355469 0.597656 8.816406 0.910156 7.371094 1.535156 C 5.933594 2.160156 4.664062 3.023438 3.5625 4.125 C 2.46875 5.226562 1.609375 6.5 0.984375 7.945312 C 0.359375 9.382812 0.046875 10.917969 0.046875 12.550781 C 0.046875 14.183594 0.359375 15.722656 0.984375 17.167969 C 1.609375 18.605469 2.472656 19.875 3.574219 20.976562 C 4.675781 22.078125 5.945312 22.941406 7.382812 23.566406 C 8.828125 24.191406 10.367188 24.503906 12 24.503906 Z M 12 6.363281 C 12.851562 6.363281 13.648438 6.527344 14.390625 6.855469 C 15.140625 7.175781 15.800781 7.621094 16.371094 8.191406 C 16.941406 8.753906 17.386719 9.410156 17.707031 10.160156 C 18.027344 10.902344 18.1875 11.699219 18.1875 12.550781 C 18.1875 13.371094 18.027344 14.160156 17.707031 14.917969 C 17.394531 15.667969 16.949219 16.328125 16.371094 16.898438 L 15.726562 16.171875 C 16.195312 15.6875 16.558594 15.128906 16.816406 14.496094 C 17.074219 13.863281 17.203125 13.214844 17.203125 12.550781 C 17.203125 11.605469 16.964844 10.738281 16.488281 9.949219 C 16.019531 9.160156 15.390625 8.53125 14.601562 8.0625 C 13.820312 7.585938 12.953125 7.347656 12 7.347656 C 11.054688 7.347656 10.1875 7.585938 9.398438 8.0625 C 8.617188 8.53125 7.992188 9.160156 7.523438 9.949219 C 7.054688 10.738281 6.820312 11.605469 6.820312 12.550781 C 6.820312 13.214844 6.945312 13.863281 7.195312 14.496094 C 7.453125 15.128906 7.816406 15.6875 8.285156 16.171875 L 7.640625 16.898438 C 7.0625 16.328125 6.617188 15.667969 6.304688 14.917969 C 5.992188 14.160156 5.835938 13.371094 5.835938 12.550781 C 5.835938 11.417969 6.113281 10.382812 6.667969 9.445312 C 7.230469 8.507812 7.976562 7.761719 8.90625 7.207031 C 9.84375 6.644531 10.875 6.363281 12 6.363281 Z M 12 8.085938 C 12.820312 8.085938 13.566406 8.289062 14.238281 8.695312 C 14.917969 9.09375 15.460938 9.632812 15.867188 10.3125 C 16.273438 10.984375 16.476562 11.730469 16.476562 12.550781 C 16.476562 13.121094 16.367188 13.667969 16.148438 14.191406 C 15.9375 14.714844 15.636719 15.191406 15.246094 15.621094 L 14.566406 14.859375 C 14.863281 14.546875 15.089844 14.191406 15.246094 13.792969 C 15.402344 13.394531 15.480469 12.980469 15.480469 12.550781 C 15.480469 11.910156 15.320312 11.328125 15 10.804688 C 14.6875 10.273438 14.265625 9.851562 13.734375 9.539062 C 13.210938 9.226562 12.632812 9.070312 12 9.070312 C 11.375 9.070312 10.796875 9.226562 10.265625 9.539062 C 9.742188 9.851562 9.324219 10.273438 9.011719 10.804688 C 8.699219 11.328125 8.542969 11.910156 8.542969 12.550781 C 8.542969 12.980469 8.617188 13.394531 8.765625 13.792969 C 8.921875 14.191406 9.144531 14.550781 9.433594 14.871094 L 8.765625 15.621094 C 8.367188 15.199219 8.0625 14.726562 7.851562 14.203125 C 7.648438 13.671875 7.546875 13.121094 7.546875 12.550781 C 7.546875 11.730469 7.746094 10.984375 8.144531 10.3125 C 8.550781 9.632812 9.089844 9.09375 9.761719 8.695312 C 10.441406 8.289062 11.1875 8.085938 12 8.085938 Z M 12 9.796875 C 12.507812 9.796875 12.96875 9.921875 13.382812 10.171875 C 13.796875 10.421875 14.128906 10.757812 14.378906 11.179688 C 14.628906 11.59375 14.753906 12.050781 14.753906 12.550781 C 14.753906 13.214844 14.535156 13.804688 14.097656 14.320312 L 13.417969 13.546875 C 13.644531 13.257812 13.757812 12.925781 13.757812 12.550781 C 13.757812 12.066406 13.585938 11.652344 13.242188 11.308594 C 12.898438 10.964844 12.484375 10.792969 12 10.792969 C 11.523438 10.792969 11.113281 10.964844 10.769531 11.308594 C 10.433594 11.652344 10.265625 12.066406 10.265625 12.550781 C 10.265625 12.925781 10.375 13.261719 10.59375 13.558594 L 9.914062 14.332031 C 9.703125 14.082031 9.542969 13.808594 9.433594 13.511719 C 9.324219 13.214844 9.269531 12.894531 9.269531 12.550781 C 9.269531 12.050781 9.390625 11.59375 9.632812 11.179688 C 9.882812 10.757812 10.214844 10.421875 10.628906 10.171875 C 11.042969 9.921875 11.5 9.796875 12 9.796875 Z M 8.484375 18.621094 C 8.289062 18.621094 8.152344 18.535156 8.074219 18.363281 C 8.003906 18.191406 8.035156 18.035156 8.167969 17.894531 L 11.660156 13.957031 C 11.753906 13.855469 11.871094 13.804688 12.011719 13.804688 C 12.160156 13.804688 12.277344 13.855469 12.363281 13.957031 L 15.84375 17.894531 C 15.976562 18.035156 16.003906 18.191406 15.925781 18.363281 C 15.855469 18.535156 15.722656 18.621094 15.527344 18.621094 Z M 8.484375 18.621094 "/>
</g>
</svg>
