<?xml version="1.0" encoding="UTF-8"?>
<svg xmlns="http://www.w3.org/2000/svg" xmlns:xlink="http://www.w3.org/1999/xlink" width="24" height="20" viewBox="0 0 24 20" version="1.1">
<g id="surface1">
<path style=" stroke:none;fill-rule:nonzero;fill:rgb(100%,100%,100%);fill-opacity:1;" d="M 6.519531 18.894531 L 17.480469 18.894531 C 19.605469 18.894531 21.1875 18.378906 22.230469 17.34375 C 23.269531 16.308594 23.792969 14.734375 23.792969 12.613281 L 23.792969 7.667969 L 17.34375 7.667969 C 17.253906 7.902344 17.105469 8.089844 16.894531 8.230469 C 16.695312 8.367188 16.453125 8.4375 16.175781 8.4375 L 7.832031 8.4375 C 7.5625 8.4375 7.320312 8.367188 7.105469 8.230469 C 6.894531 8.089844 6.75 7.902344 6.667969 7.667969 L 0.207031 7.667969 L 0.207031 12.613281 C 0.207031 14.734375 0.730469 16.308594 1.769531 17.34375 C 2.8125 18.378906 4.394531 18.894531 6.519531 18.894531 Z M 12 12.40625 C 11.742188 12.414062 11.519531 12.324219 11.332031 12.136719 C 11.144531 11.941406 11.050781 11.71875 11.050781 11.46875 C 11.050781 11.203125 11.144531 10.980469 11.332031 10.792969 C 11.519531 10.605469 11.742188 10.511719 12 10.511719 C 12.265625 10.511719 12.488281 10.605469 12.675781 10.792969 C 12.863281 10.980469 12.957031 11.203125 12.957031 11.46875 C 12.957031 11.710938 12.863281 11.925781 12.675781 12.113281 C 12.488281 12.300781 12.265625 12.398438 12 12.40625 Z M 0.207031 6.71875 L 6.644531 6.71875 C 6.730469 6.484375 6.875 6.296875 7.082031 6.15625 C 7.296875 6.015625 7.542969 5.949219 7.8125 5.949219 L 16.167969 5.949219 C 16.4375 5.949219 16.675781 6.015625 16.886719 6.15625 C 17.09375 6.296875 17.238281 6.484375 17.324219 6.71875 L 23.761719 6.71875 L 23.761719 6.386719 C 23.761719 4.484375 23.214844 3.066406 22.125 2.136719 C 21.035156 1.199219 19.476562 0.730469 17.449219 0.730469 L 6.519531 0.730469 C 4.492188 0.730469 2.933594 1.199219 1.84375 2.136719 C 0.753906 3.066406 0.207031 4.484375 0.207031 6.386719 Z M 0.207031 6.71875 "/>
</g>
</svg>
