<svg width="14" height="17" viewBox="0 0 14 17" fill="none" xmlns="http://www.w3.org/2000/svg">
<path d="M3.01562 16.6328H10.9766C11.7891 16.6328 12.401 16.4297 12.8125 16.0234C13.224 15.6224 13.4297 15.0208 13.4297 14.2188V2.53906C13.4297 1.73177 13.224 1.1276 12.8125 0.726562C12.401 0.320312 11.7891 0.117188 10.9766 0.117188H3.01562C2.19792 0.117188 1.58333 0.320312 1.17188 0.726562C0.765625 1.1276 0.5625 1.73177 0.5625 2.53906V14.2188C0.5625 15.0208 0.765625 15.6224 1.17188 16.0234C1.58333 16.4297 2.19792 16.6328 3.01562 16.6328ZM3.03125 15.375C2.22396 15.375 1.82031 14.9661 1.82031 14.1484V2.60938C1.82031 1.78646 2.22396 1.375 3.03125 1.375H10.9609C11.7682 1.375 12.1719 1.78646 12.1719 2.60938V14.1484C12.1719 14.9661 11.7682 15.375 10.9609 15.375H3.03125ZM0.71875 5.85938H3.59375C4.79167 5.85938 5.39062 5.27083 5.39062 4.09375V0.359375H4.44531V4.03125C4.44531 4.61979 4.15365 4.91406 3.57031 4.91406H0.71875V5.85938Z" fill="white"/>
</svg>
