<svg xmlns="http://www.w3.org/2000/svg" width="24" height="24"><path style="stroke:none;fill-rule:nonzero;fill:#fff;fill-opacity:1" d="M12 13.441a1.32 1.32 0 0 1-.871-.293c-.234-.187-.363-.441-.36-.71 0-.274.118-.516.36-.711.242-.2.531-.301.871-.301.34 0 .629.101.871.3.242.196.36.438.36.711 0 .258-.118.493-.36.696a1.346 1.346 0 0 1-.871.308Zm-4.137 9.313h8.274c2.277 0 3.968-.461 5.078-1.375 1.117-.914 1.672-2.309 1.672-4.184V8.191h-5.664a1.294 1.294 0 0 1-.575.543c-.27.141-.582.211-.937.211H8.289c-.34 0-.644-.07-.922-.21a1.302 1.302 0 0 1-.578-.544H1.113v9.004c0 1.875.551 3.27 1.66 4.18 1.114.918 2.813 1.379 5.09 1.379ZM1.113 7.082H6.79a1.26 1.26 0 0 1 .578-.55c.278-.141.582-.212.922-.212h7.422c.355 0 .668.07.937.211.266.137.457.32.575.551h5.664v-.676c0-1.875-.555-3.265-1.672-4.18-1.11-.917-2.8-1.378-5.078-1.378H7.863c-2.277 0-3.976.46-5.09 1.379-1.109.914-1.66 2.304-1.66 4.18Zm0 0"/></svg>