<svg width="14" height="17" viewBox="0 0 14 17" fill="none" xmlns="http://www.w3.org/2000/svg">
<path d="M4.58594 16.1172H9.41406C10.7422 16.1172 11.7292 15.7917 12.375 15.1406C13.026 14.4948 13.3516 13.5078 13.3516 12.1797V5.80469H10.0469C9.97917 5.96094 9.86719 6.08854 9.71094 6.1875C9.55469 6.28646 9.3724 6.33594 9.16406 6.33594H4.83594C4.63802 6.33594 4.45833 6.28646 4.29688 6.1875C4.14062 6.08854 4.02865 5.96094 3.96094 5.80469H0.648438V12.1797C0.648438 13.5078 0.971354 14.4948 1.61719 15.1406C2.26823 15.7917 3.25781 16.1172 4.58594 16.1172ZM0.648438 5.01562H3.96094C4.02865 4.85417 4.14062 4.72396 4.29688 4.625C4.45833 4.52604 4.63802 4.47656 4.83594 4.47656H9.16406C9.3724 4.47656 9.55469 4.52604 9.71094 4.625C9.86719 4.72396 9.97917 4.85417 10.0469 5.01562H13.3516V4.53906C13.3516 3.21094 13.026 2.22396 12.375 1.57812C11.7292 0.927083 10.7422 0.601562 9.41406 0.601562H4.58594C3.25781 0.601562 2.26823 0.927083 1.61719 1.57812C0.971354 2.22396 0.648438 3.21094 0.648438 4.53906V5.01562Z" fill="white"/>
</svg>
