<svg width="83" height="112" viewBox="0 0 83 112" fill="none" xmlns="http://www.w3.org/2000/svg">
<path d="M25.9375 0.625C21.3542 0.666667 17.1667 1.66667 13.375 3.625C9.58333 5.58333 6.5625 8.4375 4.3125 12.1875C2.0625 15.8958 0.9375 20.4167 0.9375 25.75C0.9375 32.6667 2.70833 38.5625 6.25 43.4375C9.83333 48.2708 14.2083 52.1667 19.375 55.125C21.7083 56.4583 24.2708 57.6042 27.0625 58.5625C29.8542 59.4792 33.3125 60.2292 37.4375 60.8125C36.0625 57.6042 35.375 54.125 35.375 50.375C35.375 45.9167 36.4792 41.7292 38.6875 37.8125C40.8958 33.8542 43.8542 30.5208 47.5625 27.8125C51.2708 25.1042 55.3958 23.3542 59.9375 22.5625C59.3542 21.3125 58.7917 20.25 58.25 19.375C57.7083 18.4583 57.1458 17.625 56.5625 16.875C53.9375 13.1667 50.9167 10.1042 47.5 7.6875C44.125 5.27083 40.5833 3.47917 36.875 2.3125C33.1667 1.14583 29.5208 0.583333 25.9375 0.625ZM23.5625 27.4375L14.3125 19.6875C13.6458 19.1458 13.2917 18.4792 13.25 17.6875C13.2083 16.8542 13.4583 16.125 14 15.5C14.5417 14.8333 15.2083 14.4583 16 14.375C16.8333 14.2917 17.5625 14.5208 18.1875 15.0625L27.375 22.8125C28.0417 23.3542 28.3958 24.0417 28.4375 24.875C28.5208 25.6667 28.3125 26.3958 27.8125 27.0625C27.2708 27.7292 26.5833 28.1042 25.75 28.1875C24.9167 28.2292 24.1875 27.9792 23.5625 27.4375ZM59.6875 68.5C63.4375 68.5 67.0417 67.5833 70.5 65.75C74 63.875 76.8542 61.25 79.0625 57.875C81.3125 54.5 82.4375 50.5625 82.4375 46.0625C82.4375 43.0208 81.75 40.1458 80.375 37.4375C79 34.6875 77 32.4583 74.375 30.75C71.75 29 68.5625 28.125 64.8125 28.125C60.3958 28.125 56.4167 29.2292 52.875 31.4375C49.375 33.6458 46.5833 36.4583 44.5 39.875C42.4583 43.25 41.4375 46.75 41.4375 50.375C41.4375 54.4167 42.2708 57.7917 43.9375 60.5C45.6458 63.1667 47.8958 65.1667 50.6875 66.5C53.4792 67.8333 56.4792 68.5 59.6875 68.5ZM62.8125 59C61.9375 58.25 61.7292 57.125 62.1875 55.625C62.6875 54.125 63.8125 52.2292 65.5625 49.9375C67.4375 47.6875 69.0833 46.2083 70.5 45.5C71.9583 44.75 73.1458 44.7708 74.0625 45.5625C74.9375 46.3125 75.1458 47.4583 74.6875 49C74.2292 50.5 73.0833 52.3542 71.25 54.5625C69.4167 56.7708 67.7708 58.2708 66.3125 59.0625C64.8542 59.8125 63.6875 59.7917 62.8125 59ZM35 111.188C36.9583 111.188 38.5208 110.688 39.6875 109.688C40.8542 108.688 41.4375 107.229 41.4375 105.312V67.6875C38.1875 67.4792 35.0833 67.0833 32.125 66.5C29.1667 65.875 26.3542 65.0833 23.6875 64.125V105.312C23.6875 107.229 24.2708 108.688 25.4375 109.688C26.6042 110.688 28.1458 111.188 30.0625 111.188H35Z" fill="white"/>
</svg>
