<svg xmlns="http://www.w3.org/2000/svg" width="24" height="24"><path style="stroke:none;fill-rule:nonzero;fill:#fff;fill-opacity:1" d="M23.656 11.8c0-.425-.168-.804-.5-1.132-.332-.34-.777-.605-1.332-.793a5.29 5.29 0 0 0-1.824-.3h-4.2c-.288 0-.51-.036-.663-.102-.149-.075-.309-.215-.48-.418l-7-8.082C7.425.707 7.16.574 6.854.574h-1.21a.343.343 0 0 0-.301.164c-.063.11-.059.242.011.399l3.602 8.437-5.289.637-1.887-3.66c-.14-.262-.375-.395-.707-.395H.625a.428.428 0 0 0-.324.133.455.455 0 0 0-.125.34v10.348c0 .136.043.25.125.34a.46.46 0 0 0 .324.12h.45c.331 0 .566-.128.706-.386l1.887-3.664 5.289.64-3.602 8.442c-.07.152-.074.285-.011.394.066.11.18.172.3.164h1.211c.305 0 .57-.129.801-.394l7-8.094c.172-.207.332-.344.48-.41.153-.066.376-.102.665-.102H20c.66 0 1.266-.093 1.824-.285.555-.195 1-.46 1.332-.793.332-.34.5-.722.5-1.148Zm0 0"/></svg>