<?xml version="1.0" encoding="UTF-8"?>
<svg xmlns="http://www.w3.org/2000/svg" xmlns:xlink="http://www.w3.org/1999/xlink" width="24" height="29.142857" viewBox="0 0 24 29.142857" version="1.1">
<g id="surface1">
<path style=" stroke:none;fill-rule:nonzero;fill:rgb(100%,100%,100%);fill-opacity:1;" d="M 12 16.324219 C 11.660156 16.324219 11.371094 16.207031 11.128906 15.964844 C 10.886719 15.722656 10.769531 15.4375 10.769531 15.105469 C 10.769531 14.769531 10.886719 14.476562 11.128906 14.238281 C 11.371094 13.996094 11.660156 13.875 12 13.875 C 12.339844 13.875 12.628906 13.996094 12.871094 14.238281 C 13.113281 14.476562 13.230469 14.769531 13.230469 15.105469 C 13.230469 15.417969 13.113281 15.699219 12.871094 15.949219 C 12.628906 16.191406 12.339844 16.316406 12 16.324219 Z M 7.863281 27.628906 L 16.136719 27.628906 C 18.414062 27.628906 20.105469 27.070312 21.214844 25.957031 C 22.332031 24.847656 22.886719 23.15625 22.886719 20.878906 L 22.886719 9.949219 L 17.222656 9.949219 C 17.105469 10.21875 16.914062 10.4375 16.648438 10.605469 C 16.378906 10.777344 16.066406 10.863281 15.710938 10.863281 L 8.289062 10.863281 C 7.949219 10.863281 7.644531 10.777344 7.367188 10.605469 C 7.097656 10.4375 6.90625 10.21875 6.789062 9.949219 L 1.113281 9.949219 L 1.113281 20.878906 C 1.113281 23.15625 1.664062 24.847656 2.773438 25.957031 C 3.886719 27.070312 5.585938 27.628906 7.863281 27.628906 Z M 1.113281 8.597656 L 6.789062 8.597656 C 6.90625 8.320312 7.097656 8.097656 7.367188 7.929688 C 7.644531 7.757812 7.949219 7.675781 8.289062 7.675781 L 15.710938 7.675781 C 16.066406 7.675781 16.378906 7.757812 16.648438 7.929688 C 16.914062 8.097656 17.105469 8.320312 17.222656 8.597656 L 22.886719 8.597656 L 22.886719 7.78125 C 22.886719 5.503906 22.332031 3.8125 21.214844 2.707031 C 20.105469 1.589844 18.414062 1.03125 16.136719 1.03125 L 7.863281 1.03125 C 5.585938 1.03125 3.886719 1.589844 2.773438 2.707031 C 1.664062 3.8125 1.113281 5.503906 1.113281 7.78125 Z M 1.113281 8.597656 "/>
</g>
</svg>
