<svg width="18" height="15" viewBox="0 0 18 15" fill="none" xmlns="http://www.w3.org/2000/svg">
<path d="M5.82031 14.25H12.1797C13.8307 14.25 15.0547 13.8516 15.8516 13.0547C16.6484 12.2578 17.0469 11.0339 17.0469 9.38281V5.80469H13.1172C13.0443 5.98698 12.9245 6.13281 12.7578 6.24219C12.5911 6.34635 12.3984 6.39844 12.1797 6.39844H5.82031C5.60677 6.39844 5.41667 6.34635 5.25 6.24219C5.08333 6.13281 4.96354 5.98698 4.89062 5.80469H0.953125V9.38281C0.953125 11.0339 1.35156 12.2578 2.14844 13.0547C2.94531 13.8516 4.16927 14.25 5.82031 14.25ZM9 9.53125C8.79688 9.53646 8.61979 9.46615 8.46875 9.32031C8.32292 9.16927 8.25 8.99479 8.25 8.79688C8.25 8.58854 8.32292 8.41146 8.46875 8.26562C8.61979 8.11979 8.79688 8.04688 9 8.04688C9.20312 8.04688 9.3776 8.11979 9.52344 8.26562C9.67448 8.41146 9.75 8.58854 9.75 8.79688C9.75 8.98438 9.67448 9.15365 9.52344 9.30469C9.3776 9.45052 9.20312 9.52604 9 9.53125ZM0.953125 5.00781H4.875C4.94271 4.82031 5.0599 4.67448 5.22656 4.57031C5.39323 4.46094 5.58333 4.40625 5.79688 4.40625H12.1719C12.3854 4.40625 12.5755 4.46094 12.7422 4.57031C12.9089 4.67448 13.0286 4.82031 13.1016 5.00781H17.0156V4.73438C17.0156 3.29688 16.5938 2.22656 15.75 1.52344C14.9062 0.820312 13.7057 0.46875 12.1484 0.46875H5.82031C4.26302 0.46875 3.0625 0.820312 2.21875 1.52344C1.375 2.22656 0.953125 3.29688 0.953125 4.73438V5.00781Z" fill="white"/>
</svg>
