<?xml version="1.0" encoding="UTF-8"?>
<svg xmlns="http://www.w3.org/2000/svg" xmlns:xlink="http://www.w3.org/1999/xlink" width="24" height="48" viewBox="0 0 24 48" version="1.1">
<g id="surface1">
<path style=" stroke:none;fill-rule:nonzero;fill:rgb(100%,100%,100%);fill-opacity:1;" d="M 12.09375 21.234375 C 13.46875 21.25 14.765625 21.015625 15.984375 20.53125 C 17.21875 20.03125 18.304688 19.34375 19.242188 18.46875 C 20.179688 17.578125 20.914062 16.554688 21.445312 15.398438 C 21.976562 14.242188 22.234375 13.007812 22.21875 11.695312 C 22.203125 9.960938 21.726562 8.382812 20.789062 6.960938 C 19.867188 5.523438 18.640625 4.375 17.109375 3.515625 C 15.59375 2.65625 13.921875 2.226562 12.09375 2.226562 C 10.40625 2.226562 8.929688 2.515625 7.664062 3.09375 C 6.414062 3.671875 5.359375 4.375 4.5 5.203125 C 3.640625 6.015625 2.96875 6.789062 2.484375 7.523438 C 2.015625 8.226562 1.78125 9.054688 1.78125 10.007812 L 1.78125 13.453125 C 1.78125 14.375 2.015625 15.203125 2.484375 15.9375 C 2.953125 16.65625 3.617188 17.429688 4.476562 18.257812 C 5.351562 19.070312 6.414062 19.765625 7.664062 20.34375 C 8.929688 20.90625 10.40625 21.203125 12.09375 21.234375 Z M 6.046875 15.445312 C 5.734375 15.445312 5.46875 15.34375 5.25 15.140625 C 5.046875 14.921875 4.945312 14.648438 4.945312 14.320312 L 4.945312 9.117188 C 4.945312 8.804688 5.046875 8.539062 5.25 8.320312 C 5.46875 8.101562 5.734375 7.992188 6.046875 7.992188 C 6.375 7.992188 6.640625 8.101562 6.84375 8.320312 C 7.0625 8.539062 7.171875 8.804688 7.171875 9.117188 L 7.171875 14.320312 C 7.171875 14.648438 7.0625 14.921875 6.84375 15.140625 C 6.640625 15.34375 6.375 15.445312 6.046875 15.445312 Z M 13.289062 40.148438 L 19.898438 40.148438 L 19.898438 20.882812 C 18.976562 21.601562 17.945312 22.1875 16.804688 22.640625 C 15.679688 23.078125 14.507812 23.34375 13.289062 23.4375 Z M 15.585938 47.882812 L 17.578125 47.882812 C 18.296875 47.882812 18.859375 47.703125 19.265625 47.34375 C 19.6875 47 19.898438 46.484375 19.898438 45.796875 L 19.898438 42.492188 L 13.289062 42.492188 L 13.289062 45.796875 C 13.289062 46.484375 13.492188 47 13.898438 47.34375 C 14.320312 47.703125 14.882812 47.882812 15.585938 47.882812 Z M 15.585938 47.882812 "/>
</g>
</svg>
