<?xml version="1.0" encoding="UTF-8"?>
<svg xmlns="http://www.w3.org/2000/svg" xmlns:xlink="http://www.w3.org/1999/xlink" width="24" height="20" viewBox="0 0 24 20" version="1.1">
<g id="surface1">
<path style=" stroke:none;fill-rule:nonzero;fill:rgb(100%,100%,100%);fill-opacity:1;" d="M 6.519531 18.894531 L 17.480469 18.894531 C 19.605469 18.894531 21.1875 18.378906 22.230469 17.34375 C 23.269531 16.308594 23.792969 14.734375 23.792969 12.613281 L 23.792969 7.011719 C 23.792969 4.890625 23.269531 3.316406 22.230469 2.28125 C 21.1875 1.246094 19.605469 0.730469 17.480469 0.730469 L 6.519531 0.730469 C 4.394531 0.730469 2.8125 1.246094 1.769531 2.28125 C 0.730469 3.316406 0.207031 4.890625 0.207031 7.011719 L 0.207031 12.613281 C 0.207031 14.734375 0.730469 16.308594 1.769531 17.34375 C 2.8125 18.378906 4.394531 18.894531 6.519531 18.894531 Z M 6.519531 17.21875 C 4.921875 17.21875 3.75 16.851562 3 16.113281 C 2.257812 15.371094 1.886719 14.203125 1.886719 12.613281 L 1.886719 7.011719 C 1.886719 5.421875 2.257812 4.257812 3 3.519531 C 3.75 2.777344 4.921875 2.40625 6.519531 2.40625 L 17.480469 2.40625 C 19.082031 2.40625 20.257812 2.777344 21 3.519531 C 21.742188 4.257812 22.113281 5.421875 22.113281 7.011719 L 22.113281 12.613281 C 22.113281 14.203125 21.742188 15.371094 21 16.113281 C 20.257812 16.851562 19.082031 17.21875 17.480469 17.21875 Z M 1.050781 7.71875 L 22.949219 7.71875 L 22.949219 6.667969 L 1.050781 6.667969 Z M 7.832031 8.4375 L 16.175781 8.4375 C 16.539062 8.4375 16.835938 8.324219 17.074219 8.09375 C 17.308594 7.859375 17.425781 7.554688 17.425781 7.1875 C 17.425781 6.828125 17.308594 6.53125 17.074219 6.300781 C 16.835938 6.066406 16.539062 5.949219 16.175781 5.949219 L 7.832031 5.949219 C 7.480469 5.949219 7.179688 6.066406 6.9375 6.300781 C 6.695312 6.53125 6.574219 6.828125 6.574219 7.1875 C 6.574219 7.554688 6.695312 7.859375 6.9375 8.09375 C 7.179688 8.324219 7.480469 8.4375 7.832031 8.4375 Z M 12 11.988281 C 12.277344 11.984375 12.515625 11.882812 12.707031 11.6875 C 12.910156 11.484375 13.011719 11.257812 13.011719 11 C 13.011719 10.722656 12.910156 10.484375 12.707031 10.292969 C 12.515625 10.089844 12.277344 9.988281 12 9.988281 C 11.722656 9.988281 11.484375 10.089844 11.292969 10.292969 C 11.097656 10.484375 11 10.722656 11 11 C 11 11.269531 11.097656 11.507812 11.292969 11.707031 C 11.484375 11.902344 11.722656 11.996094 12 11.988281 Z M 12 11.988281 "/>
</g>
</svg>
