<svg width="14" height="17" viewBox="0 0 14 17" fill="none" xmlns="http://www.w3.org/2000/svg">
<path d="M4.58594 16.1172H9.41406C10.7422 16.1172 11.7292 15.7917 12.375 15.1406C13.026 14.4948 13.3516 13.5078 13.3516 12.1797V4.53906C13.3516 3.21094 13.026 2.22396 12.375 1.57812C11.7292 0.927083 10.7422 0.601562 9.41406 0.601562H4.58594C3.25781 0.601562 2.26823 0.927083 1.61719 1.57812C0.971354 2.22396 0.648438 3.21094 0.648438 4.53906V12.1797C0.648438 13.5078 0.971354 14.4948 1.61719 15.1406C2.26823 15.7917 3.25781 16.1172 4.58594 16.1172ZM4.58594 14.8594C3.65365 14.8594 2.97396 14.6458 2.54688 14.2188C2.11979 13.7917 1.90625 13.112 1.90625 12.1797V4.53906C1.90625 3.60677 2.11979 2.92708 2.54688 2.5C2.97396 2.07292 3.65365 1.85938 4.58594 1.85938H9.41406C10.3464 1.85938 11.026 2.07292 11.4531 2.5C11.8802 2.92708 12.0938 3.60677 12.0938 4.53906V12.1797C12.0938 13.112 11.8802 13.7917 11.4531 14.2188C11.026 14.6458 10.3464 14.8594 9.41406 14.8594H4.58594ZM1.28125 5.80469H12.7188V5.01562H1.28125V5.80469ZM4.83594 6.33594H9.16406C9.4349 6.33594 9.65885 6.25 9.83594 6.07812C10.013 5.90625 10.1016 5.68229 10.1016 5.40625C10.1016 5.13021 10.013 4.90625 9.83594 4.73438C9.65885 4.5625 9.4349 4.47656 9.16406 4.47656H4.83594C4.57552 4.47656 4.35417 4.5625 4.17188 4.73438C3.98958 4.90625 3.89844 5.13021 3.89844 5.40625C3.89844 5.68229 3.98958 5.90625 4.17188 6.07812C4.35417 6.25 4.57552 6.33594 4.83594 6.33594Z" fill="white"/>
</svg>
