<svg width="12" height="15" viewBox="0 0 12 15" fill="none" xmlns="http://www.w3.org/2000/svg">
<path d="M7.96875 0.453125C7.52083 0.447917 7.0651 0.518229 6.60156 0.664062C6.13802 0.809896 5.69531 1.03385 5.27344 1.33594C4.85156 1.63802 4.47396 2.02083 4.14062 2.48438C4.06771 2.57812 3.9974 2.68229 3.92969 2.79688C3.86198 2.90625 3.79167 3.03906 3.71875 3.19531C4.28646 3.29427 4.80208 3.51302 5.26562 3.85156C5.72917 4.1901 6.09896 4.60677 6.375 5.10156C6.65104 5.59115 6.78906 6.11458 6.78906 6.67188C6.78906 7.14062 6.70312 7.57552 6.53125 7.97656C7.04688 7.90365 7.47917 7.8099 7.82812 7.69531C8.17708 7.57552 8.4974 7.43229 8.78906 7.26562C9.4349 6.89583 9.97917 6.40885 10.4219 5.80469C10.8698 5.19531 11.0938 4.45833 11.0938 3.59375C11.0938 2.92708 10.9531 2.36198 10.6719 1.89844C10.3906 1.42969 10.013 1.07292 9.53906 0.828125C9.0651 0.583333 8.54167 0.458333 7.96875 0.453125ZM8.26562 3.80469C8.1875 3.8724 8.09635 3.90365 7.99219 3.89844C7.88802 3.88802 7.80469 3.84115 7.74219 3.75781C7.67448 3.67448 7.64323 3.58333 7.64844 3.48438C7.65885 3.38021 7.70573 3.29427 7.78906 3.22656L8.9375 2.25781C9.01562 2.1901 9.10417 2.16146 9.20312 2.17188C9.30729 2.18229 9.39323 2.22917 9.46094 2.3125C9.52865 2.39062 9.5599 2.48177 9.55469 2.58594C9.54948 2.6849 9.50521 2.76823 9.42188 2.83594L8.26562 3.80469ZM3.75 8.9375C4.15104 8.9375 4.52604 8.85417 4.875 8.6875C5.22396 8.52083 5.50521 8.27083 5.71875 7.9375C5.93229 7.59896 6.03906 7.17708 6.03906 6.67188C6.03906 6.21875 5.90885 5.78125 5.64844 5.35938C5.39323 4.93229 5.04427 4.58073 4.60156 4.30469C4.15885 4.02865 3.66146 3.89062 3.10938 3.89062C2.64062 3.89062 2.24219 4 1.91406 4.21875C1.58594 4.43229 1.33594 4.71094 1.16406 5.05469C0.992188 5.39323 0.90625 5.7526 0.90625 6.13281C0.90625 6.69531 1.04427 7.1875 1.32031 7.60938C1.60156 8.03125 1.95833 8.35938 2.39062 8.59375C2.82812 8.82292 3.28125 8.9375 3.75 8.9375ZM3.35938 7.75C3.25 7.84896 3.10417 7.85156 2.92188 7.75781C2.73958 7.65885 2.53385 7.47135 2.30469 7.19531C2.07552 6.91927 1.93229 6.6875 1.875 6.5C1.81771 6.30729 1.84375 6.16406 1.95312 6.07031C2.06771 5.97135 2.21354 5.96875 2.39062 6.0625C2.57292 6.15104 2.78125 6.33594 3.01562 6.61719C3.23438 6.90365 3.3724 7.14062 3.42969 7.32812C3.49219 7.51562 3.46875 7.65625 3.35938 7.75ZM6.84375 14.2734H7.45312C7.69271 14.2734 7.88542 14.2109 8.03125 14.0859C8.17708 13.9609 8.25 13.7786 8.25 13.5391V8.39062C7.91667 8.51042 7.5651 8.60938 7.19531 8.6875C6.82552 8.76042 6.4375 8.8099 6.03125 8.83594V13.5391C6.03125 13.7786 6.10417 13.9609 6.25 14.0859C6.40104 14.2109 6.59896 14.2734 6.84375 14.2734Z" fill="white"/>
</svg>
