<svg xmlns="http://www.w3.org/2000/svg" width="24" height="24"><path style="stroke:none;fill-rule:nonzero;fill:#fff;fill-opacity:1" d="M14.27.875c-1.153 0-2.32.137-3.508.41-1.211.285-2.356.676-3.41 1.164a15.45 15.45 0 0 0-2.926 1.703c-.824.61-1.508 1.301-2.028 2.047-.5.727-.75 1.461-.75 2.203 0 .766.258 1.48.77 2.149.504.656 1.184 1.25 2.008 1.75a11.12 11.12 0 0 0 2.699 1.172c.988.277 1.945.414 2.867.414 1.04 0 2.125-.145 3.266-.438a19.827 19.827 0 0 0 3.316-1.199 17.1 17.1 0 0 0 2.906-1.7c.875-.632 1.57-1.296 2.082-1.988.524-.699.79-1.382.79-2.05 0-1.082-.375-2.047-1.125-2.887-.739-.848-1.72-1.516-2.946-2-1.21-.488-2.597-.75-4.011-.75ZM8.21 12.16c-.523 0-1.14-.187-1.855-.57A6.988 6.988 0 0 1 4.54 10.2c-.5-.56-.746-1.028-.734-1.403.027-.383.3-.574.828-.574.512 0 1.125.191 1.836.574.73.39 1.347.867 1.82 1.402.5.543.734 1.004.711 1.39-.012.38-.273.571-.79.571Zm5.235-5.57c-.3-.285-.406-.59-.32-.914.086-.336.336-.598.75-.79l2.605-1.261c.415-.2.864-.27 1.352-.215.488.063.875.23 1.16.516.313.273.434.574.36.898-.079.328-.32.586-.735.79l-2.605 1.234c-.407.195-.91.277-1.407.226-.472-.043-.894-.219-1.16-.484Zm1.742 16.187h2.344c.586 0 1.055-.101 1.407-.304.351-.188.523-.477.523-.86v-9.336a21.55 21.55 0 0 1-2.98 1.461c-1.016.407-2.098.73-3.223.977v6.898c0 .383.172.672.523.86.352.203.82.304 1.406.304Zm0 0"/></svg>