<?xml version="1.0" encoding="UTF-8"?>
<svg xmlns="http://www.w3.org/2000/svg" xmlns:xlink="http://www.w3.org/1999/xlink" width="24" height="29.142857" viewBox="0 0 24 29.142857" version="1.1">
<g id="surface1">
<path style=" stroke:none;fill-rule:nonzero;fill:rgb(100%,100%,100%);fill-opacity:1;" d="M 5.167969 28.511719 L 18.816406 28.511719 C 20.210938 28.511719 21.257812 28.164062 21.964844 27.46875 C 22.667969 26.78125 23.023438 25.75 23.023438 24.375 L 23.023438 4.351562 C 23.023438 2.96875 22.667969 1.933594 21.964844 1.246094 C 21.257812 0.550781 20.210938 0.199219 18.816406 0.199219 L 5.167969 0.199219 C 3.769531 0.199219 2.714844 0.550781 2.007812 1.246094 C 1.3125 1.933594 0.964844 2.96875 0.964844 4.351562 L 0.964844 24.375 C 0.964844 25.75 1.3125 26.78125 2.007812 27.46875 C 2.714844 28.164062 3.769531 28.511719 5.167969 28.511719 Z M 5.195312 26.355469 C 3.8125 26.355469 3.121094 25.65625 3.121094 24.253906 L 3.121094 4.472656 C 3.121094 3.0625 3.8125 2.355469 5.195312 2.355469 L 18.789062 2.355469 C 20.175781 2.355469 20.867188 3.0625 20.867188 4.472656 L 20.867188 24.253906 C 20.867188 25.65625 20.175781 26.355469 18.789062 26.355469 Z M 1.230469 10.042969 L 6.160156 10.042969 C 8.214844 10.042969 9.242188 9.035156 9.242188 7.019531 L 9.242188 0.617188 L 7.621094 0.617188 L 7.621094 6.910156 C 7.621094 7.917969 7.121094 8.425781 6.121094 8.425781 L 1.230469 8.425781 Z M 1.230469 10.042969 "/>
</g>
</svg>
