<svg width="130" height="138" viewBox="0 0 130 138" fill="none" xmlns="http://www.w3.org/2000/svg">
<path d="M5.125 78.5625H10.8125V66H5.125V78.5625ZM34.6875 137.438C37.2708 137.438 39.3542 136.729 40.9375 135.312C42.5208 133.896 43.4167 132.062 43.625 129.812C43.875 127.562 43.2917 125.167 41.875 122.625L18.5 81.3125C16.5833 77.9792 13.6667 76.3125 9.75 76.3125C7.79167 76.3125 6.14583 76.7708 4.8125 77.6875C3.47917 78.5625 2.5 79.7708 1.875 81.3125C1.25 82.8125 1.02083 84.5417 1.1875 86.5C1.60417 88.9583 2.39583 91.8333 3.5625 95.125C4.72917 98.4167 6.16667 101.833 7.875 105.375C9.58333 108.917 11.4583 112.312 13.5 115.562C18.25 123.688 22.2083 129.354 25.375 132.562C28.5417 135.812 31.6458 137.438 34.6875 137.438ZM53.375 125.062C55.375 123.896 56.6042 122.167 57.0625 119.875C57.5625 117.583 57.1667 115.333 55.875 113.125L34.8125 75.9375C33.5208 73.7292 31.7708 72.2708 29.5625 71.5625C27.3542 70.8125 25.2708 71.0208 23.3125 72.1875C22.1042 72.8542 21.3542 73.7083 21.0625 74.75C20.7708 75.7917 20.9375 76.875 21.5625 78L47.4375 123.5C48.8542 125.958 50.8333 126.479 53.375 125.062ZM125.812 78.5625V66H120.125V78.5625H125.812ZM96.25 137.438C99.2917 137.438 102.375 135.812 105.5 132.562C108.667 129.354 112.646 123.688 117.438 115.562C119.438 112.312 121.292 108.917 123 105.375C124.708 101.833 126.146 98.4167 127.312 95.125C128.521 91.8333 129.333 88.9583 129.75 86.5C129.917 84.5417 129.688 82.8125 129.062 81.3125C128.438 79.7708 127.458 78.5625 126.125 77.6875C124.792 76.7708 123.146 76.3125 121.188 76.3125C117.271 76.3125 114.354 77.9792 112.438 81.3125L89.0625 122.625C87.6458 125.167 87.0417 127.562 87.25 129.812C87.5 132.062 88.3958 133.896 89.9375 135.312C91.5208 136.729 93.625 137.438 96.25 137.438ZM77.5625 125.062C80.1042 126.479 82.0625 125.958 83.4375 123.5L109.312 78C109.979 76.875 110.167 75.7917 109.875 74.75C109.583 73.7083 108.833 72.8542 107.625 72.1875C105.625 71.0208 103.521 70.8125 101.312 71.5625C99.1042 72.2708 97.3542 73.7292 96.0625 75.9375L75 113.125C73.75 115.333 73.3542 117.583 73.8125 119.875C74.3125 122.167 75.5625 123.896 77.5625 125.062ZM3 64.9375C3 66.3958 3.41667 67.5625 4.25 68.4375C5.125 69.2708 6.3125 69.6875 7.8125 69.6875C9.27083 69.6875 10.4167 69.2708 11.25 68.4375C12.0833 67.5625 12.5 66.3958 12.5 64.9375C12.625 53.6875 14.8333 43.9583 19.125 35.75C23.4167 27.5 29.4792 21.125 37.3125 16.625C45.1875 12.125 54.5625 9.875 65.4375 9.875C76.3125 9.875 85.6875 12.125 93.5625 16.625C101.438 21.125 107.521 27.5 111.812 35.75C116.104 43.9583 118.292 53.6875 118.375 64.9375C118.375 66.3958 118.792 67.5625 119.625 68.4375C120.5 69.2708 121.667 69.6875 123.125 69.6875C124.583 69.6875 125.729 69.2708 126.562 68.4375C127.438 67.5625 127.875 66.3958 127.875 64.9375C127.875 55.3542 126.458 46.625 123.625 38.75C120.792 30.8333 116.667 24.0208 111.25 18.3125C105.833 12.5625 99.2708 8.125 91.5625 5C83.8958 1.875 75.1875 0.3125 65.4375 0.3125C55.7292 0.3125 47.0208 1.875 39.3125 5C31.6042 8.125 25.0417 12.5625 19.625 18.3125C14.25 24.0208 10.125 30.8333 7.25 38.75C4.41667 46.625 3 55.3542 3 64.9375ZM28.9375 31.625C34.0625 28.8333 39.6458 26.75 45.6875 25.375C51.7292 24 58.3125 23.3125 65.4375 23.3125C72.6042 23.3125 79.2083 24 85.25 25.375C91.2917 26.75 96.8542 28.8333 101.938 31.625C97.8542 26.375 92.8125 22.4375 86.8125 19.8125C80.8542 17.1875 73.7292 15.875 65.4375 15.875C57.1458 15.875 50.0208 17.1875 44.0625 19.8125C38.1042 22.4375 33.0625 26.375 28.9375 31.625Z" fill="white"/>
</svg>
