<svg xmlns="http://www.w3.org/2000/svg" width="24" height="24"><path style="stroke:none;fill-rule:nonzero;fill:#fff;fill-opacity:1" d="M7.762 22.8h8.476c2.203 0 3.836-.636 4.899-1.913 1.062-1.274 1.593-3.235 1.593-5.871v-5.73h-5.242a1.46 1.46 0 0 1-.476.702c-.235.168-.5.254-.774.25H7.762c-.285 0-.54-.086-.762-.25a1.44 1.44 0 0 1-.48-.703H1.27v5.73c0 2.637.53 4.598 1.593 5.872C3.926 22.164 5.56 22.8 7.762 22.8ZM12 15.25a.866.866 0 0 1-.707-.34 1.288 1.288 0 0 1-.293-.836c0-.316.102-.625.29-.847a.932.932 0 0 1 .71-.352c.27 0 .504.117.7.348.198.234.3.52.3.851 0 .301-.102.57-.3.813a.91.91 0 0 1-.7.363ZM1.27 8.012H6.5c.09-.301.246-.532.469-.7a1.21 1.21 0 0 1 .761-.261h8.5c.286 0 .536.09.758.261.223.168.383.399.48.7h5.22v-.438c0-2.3-.563-4.011-1.688-5.136C19.875 1.312 18.273.75 16.2.75H7.761c-2.078 0-3.68.563-4.805 1.688C1.832 3.562 1.27 5.272 1.27 7.574Zm0 0"/></svg>