<svg width="128" height="128" viewBox="0 0 128 128" fill="none" xmlns="http://www.w3.org/2000/svg">
<path d="M63.9375 127.625C72.6458 127.625 80.8333 125.958 88.5 122.625C96.2083 119.292 103 114.688 108.875 108.812C114.75 102.938 119.354 96.1667 122.688 88.5C126.021 80.7917 127.688 72.5833 127.688 63.875C127.688 55.1667 126.021 46.9792 122.688 39.3125C119.354 31.6042 114.75 24.8125 108.875 18.9375C103 13.0625 96.2083 8.45833 88.5 5.125C80.7917 1.79167 72.5833 0.125 63.875 0.125C55.1667 0.125 46.9583 1.79167 39.25 5.125C31.5833 8.45833 24.8125 13.0625 18.9375 18.9375C13.1042 24.8125 8.52083 31.6042 5.1875 39.3125C1.85417 46.9792 0.1875 55.1667 0.1875 63.875C0.1875 72.5833 1.85417 80.7917 5.1875 88.5C8.52083 96.1667 13.125 102.938 19 108.812C24.875 114.688 31.6458 119.292 39.3125 122.625C47.0208 125.958 55.2292 127.625 63.9375 127.625ZM63.9375 116.625C56.6042 116.625 49.75 115.271 43.375 112.562C37 109.854 31.3958 106.083 26.5625 101.25C21.7708 96.4167 18.0208 90.8125 15.3125 84.4375C12.6042 78.0625 11.25 71.2083 11.25 63.875C11.25 56.5417 12.6042 49.6875 15.3125 43.3125C18.0208 36.9375 21.7708 31.3333 26.5625 26.5C31.3958 21.6667 36.9792 17.8958 43.3125 15.1875C49.6875 12.4375 56.5417 11.0625 63.875 11.0625C71.2083 11.0625 78.0625 12.4375 84.4375 15.1875C90.8125 17.8958 96.4167 21.6667 101.25 26.5C106.083 31.3333 109.854 36.9375 112.562 43.3125C115.312 49.6875 116.708 56.5417 116.75 63.875C116.75 71.2083 115.375 78.0625 112.625 84.4375C109.917 90.8125 106.146 96.4167 101.312 101.25C96.4792 106.083 90.875 109.854 84.5 112.562C78.125 115.271 71.2708 116.625 63.9375 116.625ZM63.9375 110.625C70.4375 110.625 76.5 109.417 82.125 107C87.7917 104.583 92.7708 101.229 97.0625 96.9375C101.354 92.6458 104.688 87.6875 107.062 82.0625C109.479 76.3958 110.688 70.3333 110.688 63.875C110.688 57.375 109.479 51.3125 107.062 45.6875C104.646 40.0208 101.292 35.0625 97 30.8125C92.7083 26.5208 87.7292 23.1667 82.0625 20.75C76.4375 18.3333 70.375 17.125 63.875 17.125C57.4167 17.125 51.3542 18.3333 45.6875 20.75C40.0625 23.1667 35.1042 26.5208 30.8125 30.8125C26.5625 35.0625 23.2292 40.0208 20.8125 45.6875C18.4375 51.3125 17.25 57.375 17.25 63.875C17.25 70.375 18.4583 76.4583 20.875 82.125C23.2917 87.75 26.625 92.7083 30.875 97C35.1667 101.25 40.125 104.583 45.75 107C51.4167 109.417 57.4792 110.625 63.9375 110.625ZM63.9375 104.938C58.2292 104.938 52.8958 103.875 47.9375 101.75C42.9792 99.625 38.625 96.6875 34.875 92.9375C31.1667 89.1875 28.25 84.8333 26.125 79.875C24 74.9167 22.9375 69.5833 22.9375 63.875C22.9375 58.1667 23.9792 52.8333 26.0625 47.875C28.1875 42.9167 31.125 38.5625 34.875 34.8125C38.625 31.0208 42.9583 28.0833 47.875 26C52.8333 23.875 58.1667 22.8125 63.875 22.8125C69.5833 22.8125 74.9167 23.875 79.875 26C84.8333 28.0833 89.1875 31.0208 92.9375 34.8125C96.7292 38.5625 99.6875 42.9167 101.812 47.875C103.938 52.8333 105 58.1667 105 63.875C105 69.5417 103.938 74.875 101.812 79.875C99.7292 84.8333 96.8125 89.1875 93.0625 92.9375C89.3125 96.6875 84.9375 99.625 79.9375 101.75C74.9792 103.875 69.6458 104.938 63.9375 104.938ZM64.4375 80.75C66.2292 80.75 67.5208 81.0625 68.3125 81.6875C69.1458 82.2708 70.3333 82.5625 71.875 82.5625C73.375 82.5625 74.6875 81.9792 75.8125 80.8125C76.9375 79.6458 77.9792 78.375 78.9375 77C80.0208 75.4167 80.7917 73.9792 81.25 72.6875C81.75 71.3542 82 70.6667 82 70.625C81.9583 70.5833 81.4375 70.2708 80.4375 69.6875C79.4375 69.1042 78.4375 68.1458 77.4375 66.8125C76.4792 65.4792 76 63.6875 76 61.4375C76 59.5208 76.375 57.9375 77.125 56.6875C77.9167 55.4375 78.7083 54.5 79.5 53.875C80.2917 53.25 80.7292 52.8958 80.8125 52.8125C79.8125 51.3542 78.6875 50.3125 77.4375 49.6875C76.2292 49.0625 75.1042 48.6875 74.0625 48.5625C73.0208 48.4375 72.2917 48.375 71.875 48.375C70.1667 48.375 68.625 48.7292 67.25 49.4375C65.9167 50.1042 64.7917 50.4375 63.875 50.4375C62.9583 50.4375 61.875 50.1042 60.625 49.4375C59.4167 48.7708 58.0625 48.4375 56.5625 48.4375C53.7292 48.4375 51.125 49.5833 48.75 51.875C46.375 54.1667 45.1875 57.5 45.1875 61.875C45.1875 64.6667 45.6458 67.4167 46.5625 70.125C47.5208 72.7917 48.6458 75.0417 49.9375 76.875C51.0625 78.4583 52.1458 79.8125 53.1875 80.9375C54.2708 82.0625 55.5417 82.625 57 82.625C58.375 82.625 59.5208 82.3125 60.4375 81.6875C61.3958 81.0625 62.7292 80.75 64.4375 80.75ZM70.3125 44.625C70.9792 43.75 71.5417 42.7708 72 41.6875C72.4583 40.6042 72.6875 39.4583 72.6875 38.25C72.6875 37.8333 72.6667 37.5417 72.625 37.375C71.4583 37.4167 70.25 37.7708 69 38.4375C67.7917 39.0625 66.7708 39.8542 65.9375 40.8125C65.3125 41.6042 64.7292 42.5417 64.1875 43.625C63.6875 44.6667 63.4375 45.7917 63.4375 47C63.4375 47.1667 63.4375 47.3333 63.4375 47.5C63.4792 47.625 63.5 47.7292 63.5 47.8125C63.5833 47.8125 63.6667 47.8333 63.75 47.875C63.875 47.875 64 47.875 64.125 47.875C65.1667 47.875 66.25 47.5625 67.375 46.9375C68.5417 46.3125 69.5208 45.5417 70.3125 44.625Z" fill="white"/>
</svg>
