<svg width="16" height="17" viewBox="0 0 16 17" fill="none" xmlns="http://www.w3.org/2000/svg">
<path d="M8 16.3281C9.08854 16.3281 10.112 16.1198 11.0703 15.7031C12.0339 15.2865 12.8828 14.7109 13.6172 13.9766C14.3516 13.2422 14.9271 12.3958 15.3438 11.4375C15.7604 10.474 15.9688 9.44792 15.9688 8.35938C15.9688 7.27083 15.7604 6.2474 15.3438 5.28906C14.9271 4.32552 14.3516 3.47656 13.6172 2.74219C12.8828 2.00781 12.0339 1.43229 11.0703 1.01562C10.1068 0.598958 9.08073 0.390625 7.99219 0.390625C6.90365 0.390625 5.8776 0.598958 4.91406 1.01562C3.95573 1.43229 3.10938 2.00781 2.375 2.74219C1.64583 3.47656 1.07292 4.32552 0.65625 5.28906C0.239583 6.2474 0.03125 7.27083 0.03125 8.35938C0.03125 9.44792 0.239583 10.474 0.65625 11.4375C1.07292 12.3958 1.64844 13.2422 2.38281 13.9766C3.11719 14.7109 3.96354 15.2865 4.92188 15.7031C5.88542 16.1198 6.91146 16.3281 8 16.3281ZM8 14.9531C7.08333 14.9531 6.22656 14.7839 5.42969 14.4453C4.63281 14.1068 3.93229 13.6354 3.32812 13.0312C2.72917 12.4271 2.26042 11.7266 1.92188 10.9297C1.58333 10.1328 1.41406 9.27604 1.41406 8.35938C1.41406 7.44271 1.58333 6.58594 1.92188 5.78906C2.26042 4.99219 2.72917 4.29167 3.32812 3.6875C3.93229 3.08333 4.63021 2.61198 5.42188 2.27344C6.21875 1.92969 7.07552 1.75781 7.99219 1.75781C8.90885 1.75781 9.76562 1.92969 10.5625 2.27344C11.3594 2.61198 12.0599 3.08333 12.6641 3.6875C13.2682 4.29167 13.7396 4.99219 14.0781 5.78906C14.4219 6.58594 14.5964 7.44271 14.6016 8.35938C14.6016 9.27604 14.4297 10.1328 14.0859 10.9297C13.7474 11.7266 13.276 12.4271 12.6719 13.0312C12.0677 13.6354 11.3672 14.1068 10.5703 14.4453C9.77344 14.7839 8.91667 14.9531 8 14.9531ZM8 14.2031C8.8125 14.2031 9.57031 14.0521 10.2734 13.75C10.9818 13.4479 11.6042 13.0286 12.1406 12.4922C12.6771 11.9557 13.0938 11.3359 13.3906 10.6328C13.6927 9.92448 13.8438 9.16667 13.8438 8.35938C13.8438 7.54688 13.6927 6.78906 13.3906 6.08594C13.0885 5.3776 12.6693 4.75781 12.1328 4.22656C11.5964 3.6901 10.974 3.27083 10.2656 2.96875C9.5625 2.66667 8.80469 2.51562 7.99219 2.51562C7.1849 2.51562 6.42708 2.66667 5.71875 2.96875C5.01562 3.27083 4.39583 3.6901 3.85938 4.22656C3.32812 4.75781 2.91146 5.3776 2.60938 6.08594C2.3125 6.78906 2.16406 7.54688 2.16406 8.35938C2.16406 9.17188 2.3151 9.93229 2.61719 10.6406C2.91927 11.3438 3.33594 11.9635 3.86719 12.5C4.40365 13.0312 5.02344 13.4479 5.72656 13.75C6.4349 14.0521 7.19271 14.2031 8 14.2031ZM8 13.4922C7.28646 13.4922 6.61979 13.3594 6 13.0938C5.38021 12.8281 4.83594 12.4609 4.36719 11.9922C3.90365 11.5234 3.53906 10.9792 3.27344 10.3594C3.00781 9.73958 2.875 9.07292 2.875 8.35938C2.875 7.64583 3.00521 6.97917 3.26562 6.35938C3.53125 5.73958 3.89844 5.19531 4.36719 4.72656C4.83594 4.2526 5.3776 3.88542 5.99219 3.625C6.61198 3.35938 7.27865 3.22656 7.99219 3.22656C8.70573 3.22656 9.3724 3.35938 9.99219 3.625C10.612 3.88542 11.1562 4.2526 11.625 4.72656C12.099 5.19531 12.4688 5.73958 12.7344 6.35938C13 6.97917 13.1328 7.64583 13.1328 8.35938C13.1328 9.06771 13 9.73438 12.7344 10.3594C12.474 10.9792 12.1094 11.5234 11.6406 11.9922C11.1719 12.4609 10.625 12.8281 10 13.0938C9.38021 13.3594 8.71354 13.4922 8 13.4922ZM8.0625 10.4688C8.28646 10.4688 8.44792 10.5078 8.54688 10.5859C8.65104 10.6589 8.79948 10.6953 8.99219 10.6953C9.17969 10.6953 9.34375 10.6224 9.48438 10.4766C9.625 10.3307 9.75521 10.1719 9.875 10C10.0104 9.80208 10.1068 9.6224 10.1641 9.46094C10.2266 9.29427 10.2578 9.20833 10.2578 9.20312C10.2526 9.19792 10.1875 9.15885 10.0625 9.08594C9.9375 9.01302 9.8125 8.89323 9.6875 8.72656C9.56771 8.5599 9.50781 8.33594 9.50781 8.05469C9.50781 7.8151 9.55469 7.61719 9.64844 7.46094C9.7474 7.30469 9.84635 7.1875 9.94531 7.10938C10.0443 7.03125 10.099 6.98698 10.1094 6.97656C9.98438 6.79427 9.84375 6.66406 9.6875 6.58594C9.53646 6.50781 9.39583 6.46094 9.26562 6.44531C9.13542 6.42969 9.04427 6.42188 8.99219 6.42188C8.77865 6.42188 8.58594 6.46615 8.41406 6.55469C8.2474 6.63802 8.10677 6.67969 7.99219 6.67969C7.8776 6.67969 7.74219 6.63802 7.58594 6.55469C7.4349 6.47135 7.26562 6.42969 7.07812 6.42969C6.72396 6.42969 6.39844 6.57292 6.10156 6.85938C5.80469 7.14583 5.65625 7.5625 5.65625 8.10938C5.65625 8.45833 5.71354 8.80208 5.82812 9.14062C5.94792 9.47396 6.08854 9.75521 6.25 9.98438C6.39062 10.1823 6.52604 10.3516 6.65625 10.4922C6.79167 10.6328 6.95052 10.7031 7.13281 10.7031C7.30469 10.7031 7.44792 10.6641 7.5625 10.5859C7.68229 10.5078 7.84896 10.4688 8.0625 10.4688ZM8.79688 5.95312C8.88021 5.84375 8.95052 5.72135 9.00781 5.58594C9.0651 5.45052 9.09375 5.30729 9.09375 5.15625C9.09375 5.10417 9.09115 5.06771 9.08594 5.04688C8.9401 5.05208 8.78906 5.09635 8.63281 5.17969C8.48177 5.25781 8.35417 5.35677 8.25 5.47656C8.17188 5.57552 8.09896 5.69271 8.03125 5.82812C7.96875 5.95833 7.9375 6.09896 7.9375 6.25C7.9375 6.27083 7.9375 6.29167 7.9375 6.3125C7.94271 6.32812 7.94531 6.34115 7.94531 6.35156C7.95573 6.35156 7.96615 6.35417 7.97656 6.35938C7.99219 6.35938 8.00781 6.35938 8.02344 6.35938C8.15365 6.35938 8.28906 6.32031 8.42969 6.24219C8.57552 6.16406 8.69792 6.06771 8.79688 5.95312Z" fill="white"/>
</svg>
