<svg width="16" height="17" viewBox="0 0 16 17" fill="none" xmlns="http://www.w3.org/2000/svg">
<path d="M8 16.3359C9.08854 16.3359 10.112 16.1276 11.0703 15.7109C12.0339 15.2943 12.8828 14.7188 13.6172 13.9844C14.3516 13.25 14.9271 12.4036 15.3438 11.4453C15.7604 10.4818 15.9688 9.45573 15.9688 8.36719C15.9688 7.27865 15.7604 6.25521 15.3438 5.29688C14.9271 4.33333 14.3516 3.48438 13.6172 2.75C12.8828 2.01562 12.0339 1.4401 11.0703 1.02344C10.1068 0.606771 9.08073 0.398438 7.99219 0.398438C6.90365 0.398438 5.8776 0.606771 4.91406 1.02344C3.95573 1.4401 3.10938 2.01562 2.375 2.75C1.64583 3.48438 1.07292 4.33333 0.65625 5.29688C0.239583 6.25521 0.03125 7.27865 0.03125 8.36719C0.03125 9.45573 0.239583 10.4818 0.65625 11.4453C1.07292 12.4036 1.64844 13.25 2.38281 13.9844C3.11719 14.7188 3.96354 15.2943 4.92188 15.7109C5.88542 16.1276 6.91146 16.3359 8 16.3359ZM8 14.7734C7.10938 14.7734 6.27604 14.6068 5.5 14.2734C4.72917 13.9453 4.04948 13.4896 3.46094 12.9062C2.8776 12.3177 2.41927 11.6354 2.08594 10.8594C1.75781 10.0833 1.59375 9.25 1.59375 8.35938C1.59375 7.46875 1.75781 6.63542 2.08594 5.85938C2.41406 5.08333 2.86979 4.40365 3.45312 3.82031C4.04167 3.23177 4.72135 2.77344 5.49219 2.44531C6.26823 2.11198 7.10156 1.94531 7.99219 1.94531C8.88281 1.94531 9.71615 2.11198 10.4922 2.44531C11.2682 2.77344 11.9505 3.23177 12.5391 3.82031C13.1276 4.40365 13.5859 5.08333 13.9141 5.85938C14.2474 6.63542 14.4141 7.46875 14.4141 8.35938C14.4193 9.25 14.2552 10.0833 13.9219 10.8594C13.5938 11.6302 13.1354 12.3099 12.5469 12.8984C11.9583 13.487 11.276 13.9453 10.5 14.2734C9.72396 14.6068 8.89062 14.7734 8 14.7734ZM8 14.0625C8.79167 14.0625 9.53125 13.9167 10.2188 13.625C10.9115 13.3281 11.5182 12.9193 12.0391 12.3984C12.5651 11.8724 12.974 11.2656 13.2656 10.5781C13.5573 9.88542 13.7031 9.14583 13.7031 8.35938C13.7031 7.5625 13.5547 6.82031 13.2578 6.13281C12.9609 5.4401 12.5521 4.83333 12.0312 4.3125C11.5104 3.79167 10.9036 3.38542 10.2109 3.09375C9.52344 2.80208 8.78385 2.65625 7.99219 2.65625C7.20052 2.65625 6.46094 2.80208 5.77344 3.09375C5.08594 3.38542 4.48177 3.79427 3.96094 4.32031C3.4401 4.84115 3.03385 5.44531 2.74219 6.13281C2.45052 6.82031 2.30469 7.5625 2.30469 8.35938C2.30469 9.15104 2.45052 9.89323 2.74219 10.5859C3.03906 11.2734 3.44531 11.8776 3.96094 12.3984C4.48177 12.9193 5.08594 13.3281 5.77344 13.625C6.46615 13.9167 7.20833 14.0625 8 14.0625ZM8.07031 10.5312C7.84635 10.5312 7.67448 10.5729 7.55469 10.6562C7.4349 10.7344 7.28646 10.7734 7.10938 10.7734C6.92188 10.7734 6.75781 10.7031 6.61719 10.5625C6.48177 10.4167 6.34115 10.2422 6.19531 10.0391C6.03385 9.79427 5.89062 9.5 5.76562 9.15625C5.64583 8.8125 5.58594 8.46094 5.58594 8.10156C5.58594 7.53906 5.73958 7.10938 6.04688 6.8125C6.35417 6.51562 6.6901 6.36719 7.05469 6.36719C7.2474 6.36719 7.42188 6.41146 7.57812 6.5C7.73438 6.58333 7.8724 6.625 7.99219 6.625C8.11198 6.625 8.25781 6.58073 8.42969 6.49219C8.60677 6.40365 8.80469 6.35938 9.02344 6.35938C9.08073 6.35938 9.17448 6.36979 9.30469 6.39062C9.4401 6.40625 9.58594 6.45312 9.74219 6.53125C9.90365 6.60938 10.0495 6.74219 10.1797 6.92969C10.1693 6.94531 10.112 6.99479 10.0078 7.07812C9.90365 7.15625 9.80208 7.27604 9.70312 7.4375C9.60417 7.59375 9.55469 7.79688 9.55469 8.04688C9.55469 8.33333 9.61719 8.5625 9.74219 8.73438C9.8724 8.90625 10 9.03125 10.125 9.10938C10.2552 9.1875 10.3255 9.22656 10.3359 9.22656C10.3359 9.23698 10.3047 9.32812 10.2422 9.5C10.1797 9.66667 10.0781 9.85156 9.9375 10.0547C9.8125 10.2318 9.67708 10.3958 9.53125 10.5469C9.39062 10.6927 9.22135 10.7656 9.02344 10.7656C8.82552 10.7656 8.67448 10.7266 8.57031 10.6484C8.46615 10.5703 8.29948 10.5312 8.07031 10.5312ZM8.82031 5.875C8.72135 5.99479 8.59635 6.09635 8.44531 6.17969C8.29948 6.25781 8.16146 6.29688 8.03125 6.29688C8.01042 6.29688 7.99479 6.29688 7.98438 6.29688C7.97396 6.29167 7.96094 6.28906 7.94531 6.28906C7.94531 6.27865 7.94271 6.26302 7.9375 6.24219C7.9375 6.22135 7.9375 6.20312 7.9375 6.1875C7.9375 6.03125 7.97135 5.88542 8.03906 5.75C8.10677 5.60938 8.17969 5.48958 8.25781 5.39062C8.36719 5.26562 8.5 5.16146 8.65625 5.07812C8.81771 4.99479 8.97135 4.95312 9.11719 4.95312C9.1224 4.97396 9.125 5.01042 9.125 5.0625C9.125 5.21354 9.09635 5.35938 9.03906 5.5C8.98177 5.64062 8.90885 5.76562 8.82031 5.875Z" fill="white"/>
</svg>
