<svg width="168" height="112" viewBox="0 0 168 112" fill="none" xmlns="http://www.w3.org/2000/svg">
<path d="M55.375 111.062C62.9167 111.062 70 109.604 76.625 106.688C83.2917 103.812 89.1667 99.8333 94.25 94.75C99.3333 89.6667 103.312 83.8125 106.188 77.1875C109.104 70.5208 110.562 63.4167 110.562 55.875C110.562 48.3333 109.104 41.25 106.188 34.625C103.312 27.9583 99.3333 22.0833 94.25 17C89.2083 11.9167 83.3542 7.9375 76.6875 5.0625C70.0625 2.14583 62.9792 0.6875 55.4375 0.6875C47.8958 0.6875 40.7917 2.14583 34.125 5.0625C27.4583 7.9375 21.5833 11.9167 16.5 17C11.4167 22.0833 7.41667 27.9583 4.5 34.625C1.625 41.25 0.1875 48.3333 0.1875 55.875C0.1875 63.4167 1.625 70.5208 4.5 77.1875C7.41667 83.8125 11.4167 89.6667 16.5 94.75C21.5833 99.8333 27.4375 103.812 34.0625 106.688C40.7292 109.604 47.8333 111.062 55.375 111.062ZM55.4375 101.062C49.1458 101.062 43.2708 99.8958 37.8125 97.5625C32.3542 95.2292 27.5625 92 23.4375 87.875C19.3125 83.75 16.0833 78.9583 13.75 73.5C11.4583 68 10.3125 62.125 10.3125 55.875C10.3125 49.5833 11.4792 43.7083 13.8125 38.25C16.1458 32.7917 19.375 28 23.5 23.875C27.625 19.75 32.4167 16.5417 37.875 14.25C43.3333 11.9167 49.2083 10.75 55.5 10.75C61.75 10.75 67.5833 11.9167 73 14.25C78.4583 16.5417 83.2292 19.75 87.3125 23.875C91.4375 28 94.6667 32.7917 97 38.25C99.3333 43.7083 100.5 49.5833 100.5 55.875C100.5 62.125 99.3333 68 97 73.5C94.7083 78.9583 91.5 83.75 87.375 87.875C83.25 92 78.4583 95.2292 73 97.5625C67.5417 99.8958 61.6875 101.062 55.4375 101.062ZM125.688 80.8125C126.729 81.9792 128.042 82.5625 129.625 82.5625C131.25 82.5208 132.604 81.7917 133.688 80.375C136.396 77 138.5 73.2292 140 69.0625C141.542 64.8542 142.312 60.4583 142.312 55.875C142.312 51.2917 141.542 46.9167 140 42.75C138.5 38.5417 136.396 34.75 133.688 31.375C132.604 29.9583 131.25 29.25 129.625 29.25C128.042 29.2083 126.729 29.7708 125.688 30.9375C124.688 32.0625 124.312 33.2917 124.562 34.625C124.854 35.9583 125.5 37.3125 126.5 38.6875C128.375 41.0208 129.771 43.6667 130.688 46.625C131.646 49.5417 132.125 52.625 132.125 55.875C132.125 59.125 131.646 62.2292 130.688 65.1875C129.771 68.1042 128.375 70.7292 126.5 73.0625C125.5 74.3958 124.854 75.75 124.562 77.125C124.312 78.4583 124.688 79.6875 125.688 80.8125ZM143.188 98.625C144.188 99.7917 145.458 100.354 147 100.312C148.542 100.271 149.896 99.6042 151.062 98.3125C156.271 92.6458 160.271 86.1875 163.062 78.9375C165.896 71.6458 167.312 63.9583 167.312 55.875C167.312 47.7917 165.896 40.1042 163.062 32.8125C160.271 25.5208 156.271 19.0625 151.062 13.4375C149.896 12.1042 148.542 11.4375 147 11.4375C145.458 11.3958 144.188 11.9583 143.188 13.125C142.188 14.25 141.792 15.5 142 16.875C142.25 18.25 142.938 19.5833 144.062 20.875C148.271 25.5417 151.5 30.8542 153.75 36.8125C156 42.7708 157.125 49.125 157.125 55.875C157.125 62.5833 156 68.9375 153.75 74.9375C151.5 80.8958 148.271 86.2083 144.062 90.875C142.938 92.1667 142.25 93.5 142 94.875C141.792 96.25 142.188 97.5 143.188 98.625ZM55.875 73.875C57.75 73.875 59.1042 74.1875 59.9375 74.8125C60.8125 75.4375 62.0417 75.75 63.625 75.75C65.25 75.75 66.625 75.1458 67.75 73.9375C68.9167 72.6875 70 71.3542 71 69.9375C72.1667 68.2708 73 66.75 73.5 65.375C74 64 74.25 63.2917 74.25 63.25C74.1667 63.2083 73.6042 62.8958 72.5625 62.3125C71.5208 61.6875 70.4792 60.6875 69.4375 59.3125C68.4375 57.8958 67.9375 56.0208 67.9375 53.6875C67.9375 51.6458 68.3333 49.9792 69.125 48.6875C69.9583 47.3958 70.7917 46.4167 71.625 45.75C72.4583 45.0833 72.9167 44.7083 73 44.625C71.9583 43.125 70.7917 42.0625 69.5 41.4375C68.2083 40.7708 67.0208 40.375 65.9375 40.25C64.8542 40.0833 64.0833 40 63.625 40C61.875 40 60.2917 40.3542 58.875 41.0625C57.4583 41.7708 56.2708 42.125 55.3125 42.125C54.3125 42.125 53.1667 41.7917 51.875 41.125C50.625 40.4167 49.2083 40.0625 47.625 40.0625C44.7083 40.0625 42 41.2708 39.5 43.6875C37.0417 46.0625 35.8125 49.5417 35.8125 54.125C35.8125 57 36.2917 59.8542 37.25 62.6875C38.2083 65.4792 39.3542 67.8542 40.6875 69.8125C41.8958 71.4792 43.0625 72.8958 44.1875 74.0625C45.3125 75.2292 46.625 75.8125 48.125 75.8125C49.5417 75.8125 50.7292 75.5 51.6875 74.875C52.6875 74.2083 54.0833 73.875 55.875 73.875ZM62 36.0625C62.7083 35.1875 63.2917 34.1875 63.75 33.0625C64.25 31.8958 64.5 30.6875 64.5 29.4375C64.5 29.0208 64.4792 28.7292 64.4375 28.5625C63.2292 28.5625 61.9792 28.9167 60.6875 29.625C59.3958 30.2917 58.3333 31.125 57.5 32.125C56.8333 32.9167 56.2292 33.875 55.6875 35C55.1458 36.125 54.875 37.3125 54.875 38.5625C54.875 38.7292 54.875 38.8958 54.875 39.0625C54.9167 39.2292 54.9375 39.3333 54.9375 39.375C55.0208 39.375 55.1042 39.3958 55.1875 39.4375C55.3125 39.4375 55.4375 39.4375 55.5625 39.4375C56.6458 39.4375 57.7917 39.125 59 38.5C60.2083 37.875 61.2083 37.0625 62 36.0625Z" fill="white"/>
</svg>
