<?xml version="1.0" encoding="UTF-8"?>
<svg xmlns="http://www.w3.org/2000/svg" xmlns:xlink="http://www.w3.org/1999/xlink" width="24" height="16.363636" viewBox="0 0 24 16.363636" version="1.1">
<g id="surface1">
<path style=" stroke:none;fill-rule:nonzero;fill:rgb(100%,100%,100%);fill-opacity:1;" d="M 8.128906 15.554688 C 9.160156 15.554688 10.125 15.355469 11.027344 14.957031 C 11.9375 14.566406 12.738281 14.023438 13.433594 13.328125 C 14.125 12.636719 14.667969 11.839844 15.058594 10.933594 C 15.457031 10.027344 15.65625 9.058594 15.65625 8.027344 C 15.65625 7 15.457031 6.035156 15.058594 5.128906 C 14.667969 4.222656 14.125 3.421875 13.433594 2.726562 C 12.746094 2.035156 11.945312 1.492188 11.035156 1.097656 C 10.132812 0.703125 9.167969 0.503906 8.140625 0.503906 C 7.109375 0.503906 6.140625 0.703125 5.234375 1.097656 C 4.324219 1.492188 3.523438 2.035156 2.828125 2.726562 C 2.136719 3.421875 1.589844 4.222656 1.191406 5.128906 C 0.800781 6.035156 0.605469 7 0.605469 8.027344 C 0.605469 9.058594 0.800781 10.027344 1.191406 10.933594 C 1.589844 11.839844 2.136719 12.636719 2.828125 13.328125 C 3.523438 14.023438 4.320312 14.566406 5.222656 14.957031 C 6.132812 15.355469 7.101562 15.554688 8.128906 15.554688 Z M 17.71875 11.429688 C 17.859375 11.589844 18.039062 11.667969 18.253906 11.667969 C 18.476562 11.660156 18.660156 11.5625 18.808594 11.371094 C 19.179688 10.910156 19.464844 10.394531 19.671875 9.828125 C 19.878906 9.253906 19.984375 8.652344 19.984375 8.027344 C 19.984375 7.402344 19.878906 6.808594 19.671875 6.238281 C 19.464844 5.664062 19.179688 5.148438 18.808594 4.6875 C 18.660156 4.496094 18.476562 4.398438 18.253906 4.398438 C 18.039062 4.390625 17.859375 4.46875 17.71875 4.628906 C 17.582031 4.78125 17.53125 4.949219 17.566406 5.128906 C 17.605469 5.3125 17.691406 5.496094 17.828125 5.683594 C 18.085938 6.003906 18.277344 6.363281 18.402344 6.765625 C 18.53125 7.164062 18.597656 7.585938 18.597656 8.027344 C 18.597656 8.472656 18.53125 8.894531 18.402344 9.296875 C 18.277344 9.695312 18.085938 10.054688 17.828125 10.371094 C 17.691406 10.554688 17.605469 10.738281 17.566406 10.925781 C 17.53125 11.109375 17.582031 11.277344 17.71875 11.429688 Z M 20.105469 13.859375 C 20.242188 14.015625 20.414062 14.09375 20.625 14.089844 C 20.835938 14.082031 21.019531 13.992188 21.179688 13.816406 C 21.890625 13.042969 22.433594 12.160156 22.816406 11.171875 C 23.203125 10.179688 23.394531 9.128906 23.394531 8.027344 C 23.394531 6.925781 23.203125 5.878906 22.816406 4.882812 C 22.433594 3.890625 21.890625 3.007812 21.179688 2.242188 C 21.019531 2.058594 20.835938 1.96875 20.625 1.96875 C 20.414062 1.964844 20.242188 2.039062 20.105469 2.199219 C 19.96875 2.351562 19.914062 2.523438 19.941406 2.710938 C 19.976562 2.898438 20.070312 3.078125 20.222656 3.253906 C 20.796875 3.890625 21.238281 4.617188 21.546875 5.429688 C 21.851562 6.242188 22.003906 7.109375 22.003906 8.027344 C 22.003906 8.941406 21.851562 9.808594 21.546875 10.628906 C 21.238281 11.441406 20.796875 12.164062 20.222656 12.800781 C 20.070312 12.976562 19.976562 13.160156 19.941406 13.347656 C 19.914062 13.535156 19.96875 13.703125 20.105469 13.859375 Z M 8.207031 10.585938 C 7.953125 10.585938 7.753906 10.628906 7.621094 10.722656 C 7.484375 10.8125 7.3125 10.859375 7.109375 10.859375 C 6.898438 10.859375 6.714844 10.777344 6.554688 10.621094 C 6.394531 10.453125 6.234375 10.253906 6.066406 10.023438 C 5.878906 9.746094 5.71875 9.410156 5.582031 9.015625 C 5.445312 8.625 5.378906 8.222656 5.378906 7.816406 C 5.378906 7.390625 5.457031 7.027344 5.617188 6.734375 C 5.78125 6.4375 5.992188 6.214844 6.246094 6.066406 C 6.503906 5.914062 6.769531 5.839844 7.046875 5.839844 C 7.265625 5.839844 7.464844 5.890625 7.644531 5.992188 C 7.828125 6.089844 7.984375 6.136719 8.121094 6.136719 C 8.253906 6.136719 8.417969 6.085938 8.617188 5.984375 C 8.816406 5.878906 9.039062 5.828125 9.289062 5.828125 C 9.351562 5.828125 9.460938 5.839844 9.613281 5.863281 C 9.765625 5.878906 9.933594 5.933594 10.117188 6.027344 C 10.296875 6.117188 10.464844 6.265625 10.609375 6.476562 C 10.597656 6.496094 10.535156 6.546875 10.414062 6.640625 C 10.296875 6.730469 10.179688 6.867188 10.066406 7.046875 C 9.953125 7.230469 9.894531 7.464844 9.894531 7.753906 C 9.894531 8.078125 9.964844 8.339844 10.109375 8.539062 C 10.253906 8.734375 10.402344 8.875 10.550781 8.964844 C 10.699219 9.050781 10.777344 9.097656 10.78125 9.101562 C 10.78125 9.109375 10.746094 9.207031 10.671875 9.402344 C 10.601562 9.59375 10.488281 9.808594 10.328125 10.039062 C 10.1875 10.238281 10.035156 10.421875 9.871094 10.59375 C 9.710938 10.765625 9.515625 10.847656 9.289062 10.847656 C 9.136719 10.847656 9.011719 10.828125 8.914062 10.789062 C 8.824219 10.746094 8.726562 10.699219 8.625 10.652344 C 8.523438 10.609375 8.382812 10.585938 8.207031 10.585938 Z M 9.058594 5.277344 C 8.945312 5.410156 8.804688 5.527344 8.632812 5.617188 C 8.46875 5.707031 8.308594 5.753906 8.15625 5.753906 C 8.140625 5.753906 8.121094 5.753906 8.105469 5.753906 C 8.09375 5.746094 8.078125 5.746094 8.0625 5.746094 C 8.0625 5.734375 8.058594 5.714844 8.054688 5.691406 C 8.054688 5.671875 8.054688 5.648438 8.054688 5.625 C 8.054688 5.449219 8.089844 5.285156 8.164062 5.128906 C 8.246094 4.972656 8.328125 4.835938 8.421875 4.722656 C 8.546875 4.578125 8.695312 4.464844 8.871094 4.371094 C 9.054688 4.277344 9.230469 4.222656 9.402344 4.21875 C 9.40625 4.242188 9.410156 4.285156 9.410156 4.347656 C 9.410156 4.523438 9.375 4.691406 9.308594 4.847656 C 9.246094 5.007812 9.160156 5.152344 9.058594 5.277344 Z M 9.058594 5.277344 "/>
</g>
</svg>
