<svg width="16" height="17" viewBox="0 0 16 17" fill="none" xmlns="http://www.w3.org/2000/svg">
<path d="M8 16.7969C9.03125 16.7969 9.9974 16.6016 10.8984 16.2109C11.8047 15.8255 12.599 15.2917 13.2812 14.6094C13.9688 13.9219 14.5052 13.1276 14.8906 12.2266C15.276 11.3255 15.4688 10.3594 15.4688 9.32812C15.4688 8.29688 15.276 7.33073 14.8906 6.42969C14.5052 5.52344 13.9688 4.72917 13.2812 4.04688C12.599 3.35938 11.8047 2.82292 10.8984 2.4375C9.9974 2.04688 9.03125 1.85156 8 1.85156C6.96875 1.85156 6.0026 2.04688 5.10156 2.4375C4.20052 2.82292 3.40625 3.35938 2.71875 4.04688C2.03646 4.72917 1.5 5.52344 1.10938 6.42969C0.723958 7.33073 0.53125 8.29688 0.53125 9.32812C0.53125 10.3594 0.723958 11.3255 1.10938 12.2266C1.5 13.1276 2.03646 13.9219 2.71875 14.6094C3.40625 15.2917 4.20052 15.8255 5.10156 16.2109C6.0026 16.6016 6.96875 16.7969 8 16.7969ZM8 15.4609C7.15104 15.4609 6.35677 15.3021 5.61719 14.9844C4.8776 14.6667 4.22656 14.2266 3.66406 13.6641C3.10156 13.1016 2.66146 12.4505 2.34375 11.7109C2.02604 10.9661 1.86719 10.1719 1.86719 9.32812C1.86719 8.47917 2.02604 7.6849 2.34375 6.94531C2.66146 6.20573 3.10156 5.55469 3.66406 4.99219C4.22656 4.42969 4.8776 3.98958 5.61719 3.67188C6.35677 3.35417 7.15104 3.19531 8 3.19531C8.84375 3.19531 9.63542 3.35417 10.375 3.67188C11.1198 3.98958 11.7734 4.42969 12.3359 4.99219C12.8984 5.55469 13.3385 6.20573 13.6562 6.94531C13.974 7.6849 14.1328 8.47917 14.1328 9.32812C14.1328 10.1719 13.974 10.9661 13.6562 11.7109C13.3385 12.4505 12.8984 13.1016 12.3359 13.6641C11.7734 14.2266 11.1198 14.6667 10.375 14.9844C9.63542 15.3021 8.84375 15.4609 8 15.4609ZM1.58594 3.85938C1.64323 3.85938 1.69531 3.85417 1.74219 3.84375C1.78906 3.82812 1.84115 3.79948 1.89844 3.75781L4.51562 1.78125C4.64583 1.68229 4.71094 1.5651 4.71094 1.42969C4.71094 1.27865 4.64062 1.13802 4.5 1.00781C4.34896 0.872396 4.15365 0.770833 3.91406 0.703125C3.67448 0.630208 3.4375 0.59375 3.20312 0.59375C2.79688 0.59375 2.42708 0.692708 2.09375 0.890625C1.76042 1.08854 1.49479 1.35417 1.29688 1.6875C1.10417 2.01562 1.00781 2.38281 1.00781 2.78906C1.00781 2.9349 1.01823 3.07552 1.03906 3.21094C1.0651 3.34635 1.09896 3.45833 1.14062 3.54688C1.18229 3.64583 1.24219 3.72396 1.32031 3.78125C1.39844 3.83333 1.48698 3.85938 1.58594 3.85938ZM14.4141 3.85938C14.513 3.85938 14.6016 3.83073 14.6797 3.77344C14.7578 3.71615 14.8203 3.64062 14.8672 3.54688C14.9089 3.46354 14.9401 3.35417 14.9609 3.21875C14.9818 3.07812 14.9922 2.9349 14.9922 2.78906C14.9922 2.38281 14.8932 2.01562 14.6953 1.6875C14.5026 1.35417 14.2396 1.08854 13.9062 0.890625C13.5729 0.692708 13.2031 0.59375 12.7969 0.59375C12.5625 0.59375 12.3255 0.630208 12.0859 0.703125C11.8464 0.770833 11.651 0.872396 11.5 1.00781C11.3594 1.13802 11.2891 1.27865 11.2891 1.42969C11.2891 1.5651 11.3568 1.68229 11.4922 1.78125L14.1016 3.75781C14.1589 3.79948 14.2109 3.82812 14.2578 3.84375C14.3047 3.85417 14.3568 3.85938 14.4141 3.85938ZM1.46875 16.5703C1.58333 16.6901 1.72396 16.75 1.89062 16.75C2.0625 16.75 2.20833 16.6875 2.32812 16.5625L3.80469 15.0938L2.96094 14.2578L1.47656 15.7266C1.35677 15.8464 1.29688 15.9896 1.29688 16.1562C1.29688 16.3229 1.35417 16.4609 1.46875 16.5703ZM14.5312 16.5703C14.6458 16.4609 14.7031 16.3229 14.7031 16.1562C14.7083 15.9896 14.6484 15.8464 14.5234 15.7266L13.0391 14.2578L12.2031 15.0938L13.6719 16.5625C13.7917 16.6875 13.9349 16.75 14.1016 16.75C14.2734 16.75 14.4167 16.6901 14.5312 16.5703ZM4.44531 10.1875H7.99219C8.14844 10.1875 8.27865 10.1354 8.38281 10.0312C8.48698 9.92708 8.53906 9.79948 8.53906 9.64844V4.91406C8.53906 4.75781 8.48698 4.6276 8.38281 4.52344C8.27865 4.41927 8.14844 4.36719 7.99219 4.36719C7.84115 4.36719 7.71354 4.41927 7.60938 4.52344C7.50521 4.6276 7.45312 4.75781 7.45312 4.91406V9.10156H4.44531C4.29427 9.10156 4.16667 9.15365 4.0625 9.25781C3.95833 9.36198 3.90625 9.49219 3.90625 9.64844C3.90625 9.79948 3.95833 9.92708 4.0625 10.0312C4.16667 10.1354 4.29427 10.1875 4.44531 10.1875Z" fill="white"/>
</svg>
