<?xml version="1.0" encoding="UTF-8"?>
<svg xmlns="http://www.w3.org/2000/svg" xmlns:xlink="http://www.w3.org/1999/xlink" width="24" height="25.5" viewBox="0 0 24 25.5" version="1.1">
<g id="surface1">
<path style=" stroke:none;fill-rule:nonzero;fill:rgb(100%,100%,100%);fill-opacity:1;" d="M 12 25.195312 C 13.546875 25.195312 14.996094 24.902344 16.347656 24.316406 C 17.707031 23.738281 18.898438 22.9375 19.921875 21.914062 C 20.953125 20.882812 21.757812 19.691406 22.335938 18.339844 C 22.914062 16.988281 23.203125 15.539062 23.203125 13.992188 C 23.203125 12.445312 22.914062 10.996094 22.335938 9.644531 C 21.757812 8.285156 20.953125 7.09375 19.921875 6.070312 C 18.898438 5.039062 17.707031 4.234375 16.347656 3.65625 C 14.996094 3.070312 13.546875 2.777344 12 2.777344 C 10.453125 2.777344 9.003906 3.070312 7.652344 3.65625 C 6.300781 4.234375 5.109375 5.039062 4.078125 6.070312 C 3.054688 7.09375 2.25 8.285156 1.664062 9.644531 C 1.085938 10.996094 0.796875 12.445312 0.796875 13.992188 C 0.796875 15.539062 1.085938 16.988281 1.664062 18.339844 C 2.25 19.691406 3.054688 20.882812 4.078125 21.914062 C 5.109375 22.9375 6.300781 23.738281 7.652344 24.316406 C 9.003906 24.902344 10.453125 25.195312 12 25.195312 Z M 6.667969 15.28125 C 6.441406 15.28125 6.25 15.203125 6.09375 15.046875 C 5.9375 14.890625 5.859375 14.699219 5.859375 14.472656 C 5.859375 14.238281 5.9375 14.042969 6.09375 13.886719 C 6.25 13.730469 6.441406 13.652344 6.667969 13.652344 L 11.179688 13.652344 L 11.179688 7.371094 C 11.179688 7.136719 11.257812 6.941406 11.414062 6.785156 C 11.570312 6.628906 11.761719 6.550781 11.988281 6.550781 C 12.222656 6.550781 12.417969 6.628906 12.574219 6.785156 C 12.730469 6.941406 12.808594 7.136719 12.808594 7.371094 L 12.808594 14.472656 C 12.808594 14.699219 12.730469 14.890625 12.574219 15.046875 C 12.417969 15.203125 12.222656 15.28125 11.988281 15.28125 Z M 2.378906 5.789062 C 2.464844 5.789062 2.542969 5.78125 2.613281 5.765625 C 2.683594 5.742188 2.761719 5.699219 2.847656 5.636719 L 6.773438 2.671875 C 6.96875 2.523438 7.066406 2.347656 7.066406 2.144531 C 7.066406 1.917969 6.960938 1.707031 6.75 1.511719 C 6.523438 1.308594 6.230469 1.15625 5.871094 1.054688 C 5.511719 0.945312 5.15625 0.890625 4.804688 0.890625 C 4.195312 0.890625 3.640625 1.039062 3.140625 1.335938 C 2.640625 1.632812 2.242188 2.03125 1.945312 2.53125 C 1.65625 3.023438 1.511719 3.574219 1.511719 4.183594 C 1.511719 4.402344 1.527344 4.613281 1.558594 4.816406 C 1.597656 5.019531 1.648438 5.1875 1.710938 5.320312 C 1.773438 5.46875 1.863281 5.585938 1.980469 5.671875 C 2.097656 5.75 2.230469 5.789062 2.378906 5.789062 Z M 21.621094 5.789062 C 21.769531 5.789062 21.902344 5.746094 22.019531 5.660156 C 22.136719 5.574219 22.230469 5.460938 22.300781 5.320312 C 22.363281 5.195312 22.410156 5.03125 22.441406 4.828125 C 22.472656 4.617188 22.488281 4.402344 22.488281 4.183594 C 22.488281 3.574219 22.339844 3.023438 22.042969 2.53125 C 21.753906 2.03125 21.359375 1.632812 20.859375 1.335938 C 20.359375 1.039062 19.804688 0.890625 19.195312 0.890625 C 18.84375 0.890625 18.488281 0.945312 18.128906 1.054688 C 17.769531 1.15625 17.476562 1.308594 17.25 1.511719 C 17.039062 1.707031 16.933594 1.917969 16.933594 2.144531 C 16.933594 2.347656 17.035156 2.523438 17.238281 2.671875 L 21.152344 5.636719 C 21.238281 5.699219 21.316406 5.742188 21.386719 5.765625 C 21.457031 5.78125 21.535156 5.789062 21.621094 5.789062 Z M 2.203125 24.855469 C 2.375 25.035156 2.585938 25.125 2.835938 25.125 C 3.09375 25.125 3.3125 25.03125 3.492188 24.84375 L 5.707031 22.640625 L 4.441406 21.386719 L 2.214844 23.589844 C 2.035156 23.769531 1.945312 23.984375 1.945312 24.234375 C 1.945312 24.484375 2.03125 24.691406 2.203125 24.855469 Z M 21.796875 24.855469 C 21.96875 24.691406 22.054688 24.484375 22.054688 24.234375 C 22.0625 23.984375 21.972656 23.769531 21.785156 23.589844 L 19.558594 21.386719 L 18.304688 22.640625 L 20.507812 24.84375 C 20.6875 25.03125 20.902344 25.125 21.152344 25.125 C 21.410156 25.125 21.625 25.035156 21.796875 24.855469 Z M 21.796875 24.855469 "/>
</g>
</svg>
