<?xml version="1.0" encoding="UTF-8"?>
<svg xmlns="http://www.w3.org/2000/svg" xmlns:xlink="http://www.w3.org/1999/xlink" width="24" height="22.8" viewBox="0 0 24 22.8" version="1.1">
<g id="surface1">
<path style=" stroke:none;fill-rule:nonzero;fill:rgb(100%,100%,100%);fill-opacity:1;" d="M 1.789062 2.054688 L 22.21875 2.054688 C 22.398438 2.054688 22.554688 1.984375 22.679688 1.847656 C 22.804688 1.710938 22.867188 1.550781 22.867188 1.367188 C 22.867188 1.179688 22.804688 1.019531 22.679688 0.882812 C 22.554688 0.742188 22.398438 0.675781 22.21875 0.675781 L 1.789062 0.675781 C 1.601562 0.675781 1.445312 0.742188 1.320312 0.882812 C 1.195312 1.019531 1.132812 1.179688 1.132812 1.367188 C 1.132812 1.550781 1.195312 1.710938 1.320312 1.847656 C 1.445312 1.984375 1.601562 2.054688 1.789062 2.054688 Z M 5.726562 21.816406 L 8.992188 21.816406 C 9.671875 21.816406 10.195312 21.632812 10.554688 21.261719 C 10.917969 20.898438 11.101562 20.367188 11.101562 19.667969 L 11.101562 5.953125 C 11.101562 5.257812 10.917969 4.726562 10.554688 4.359375 C 10.195312 3.992188 9.671875 3.804688 8.992188 3.804688 L 5.726562 3.804688 C 5.046875 3.804688 4.523438 3.992188 4.164062 4.359375 C 3.800781 4.726562 3.617188 5.257812 3.617188 5.953125 L 3.617188 19.667969 C 3.617188 20.367188 3.800781 20.898438 4.164062 21.261719 C 4.523438 21.632812 5.046875 21.816406 5.726562 21.816406 Z M 5.8125 20.398438 C 5.5625 20.398438 5.367188 20.335938 5.230469 20.203125 C 5.101562 20.070312 5.035156 19.882812 5.035156 19.640625 L 5.035156 5.980469 C 5.035156 5.738281 5.101562 5.550781 5.230469 5.417969 C 5.367188 5.289062 5.5625 5.222656 5.8125 5.222656 L 8.90625 5.222656 C 9.164062 5.222656 9.355469 5.289062 9.488281 5.417969 C 9.617188 5.550781 9.683594 5.738281 9.683594 5.980469 L 9.683594 19.640625 C 9.683594 19.882812 9.617188 20.070312 9.488281 20.203125 C 9.355469 20.335938 9.164062 20.398438 8.90625 20.398438 Z M 15.027344 15.179688 L 18.289062 15.179688 C 18.972656 15.179688 19.492188 14.992188 19.855469 14.625 C 20.21875 14.257812 20.398438 13.726562 20.398438 13.03125 L 20.398438 5.953125 C 20.398438 5.257812 20.21875 4.726562 19.855469 4.359375 C 19.492188 3.992188 18.972656 3.804688 18.289062 3.804688 L 15.027344 3.804688 C 14.339844 3.804688 13.816406 3.992188 13.453125 4.359375 C 13.089844 4.726562 12.910156 5.257812 12.910156 5.953125 L 12.910156 13.03125 C 12.910156 13.726562 13.089844 14.257812 13.453125 14.625 C 13.816406 14.992188 14.339844 15.179688 15.027344 15.179688 Z M 15.101562 13.761719 C 14.851562 13.761719 14.660156 13.695312 14.523438 13.566406 C 14.390625 13.433594 14.324219 13.246094 14.324219 13.003906 L 14.324219 5.980469 C 14.324219 5.738281 14.390625 5.550781 14.523438 5.417969 C 14.660156 5.289062 14.851562 5.222656 15.101562 5.222656 L 18.207031 5.222656 C 18.457031 5.222656 18.648438 5.289062 18.777344 5.417969 C 18.914062 5.550781 18.984375 5.738281 18.984375 5.980469 L 18.984375 13.003906 C 18.984375 13.246094 18.914062 13.433594 18.777344 13.566406 C 18.648438 13.695312 18.457031 13.761719 18.207031 13.761719 Z M 15.101562 13.761719 "/>
</g>
</svg>
