<?xml version="1.0" encoding="UTF-8"?>
<svg xmlns="http://www.w3.org/2000/svg" xmlns:xlink="http://www.w3.org/1999/xlink" width="24" height="19.2" viewBox="0 0 24 19.2" version="1.1">
<g id="surface1">
<path style=" stroke:none;fill-rule:nonzero;fill:rgb(100%,100%,100%);fill-opacity:1;" d="M 1.789062 10.742188 L 4.210938 10.742188 L 4.210938 9.367188 L 1.789062 9.367188 C 1.601562 9.367188 1.445312 9.433594 1.320312 9.570312 C 1.195312 9.710938 1.132812 9.867188 1.132812 10.050781 C 1.132812 10.230469 1.195312 10.394531 1.320312 10.539062 C 1.445312 10.675781 1.601562 10.742188 1.789062 10.742188 Z M 5.726562 19.070312 L 8.992188 19.070312 C 9.671875 19.070312 10.195312 18.882812 10.554688 18.507812 C 10.917969 18.136719 11.101562 17.601562 11.101562 16.902344 L 11.101562 3.195312 C 11.101562 2.496094 10.917969 1.964844 10.554688 1.601562 C 10.195312 1.234375 9.671875 1.050781 8.992188 1.050781 L 5.726562 1.050781 C 5.046875 1.050781 4.523438 1.234375 4.164062 1.601562 C 3.800781 1.964844 3.617188 2.496094 3.617188 3.195312 L 3.617188 16.902344 C 3.617188 17.601562 3.800781 18.136719 4.164062 18.507812 C 4.523438 18.882812 5.046875 19.070312 5.726562 19.070312 Z M 10.332031 10.742188 L 13.648438 10.742188 L 13.648438 9.367188 L 10.332031 9.367188 Z M 15.027344 15.730469 L 18.289062 15.730469 C 18.972656 15.730469 19.492188 15.550781 19.855469 15.1875 C 20.21875 14.820312 20.398438 14.285156 20.398438 13.585938 L 20.398438 6.515625 C 20.398438 5.816406 20.21875 5.285156 19.855469 4.921875 C 19.492188 4.554688 18.972656 4.367188 18.289062 4.367188 L 15.027344 4.367188 C 14.339844 4.367188 13.816406 4.554688 13.453125 4.921875 C 13.089844 5.285156 12.910156 5.816406 12.910156 6.515625 L 12.910156 13.585938 C 12.910156 14.285156 13.089844 14.820312 13.453125 15.1875 C 13.816406 15.550781 14.339844 15.730469 15.027344 15.730469 Z M 19.828125 10.742188 L 22.21875 10.742188 C 22.398438 10.742188 22.554688 10.675781 22.679688 10.539062 C 22.804688 10.394531 22.867188 10.230469 22.867188 10.050781 C 22.867188 9.867188 22.804688 9.710938 22.679688 9.570312 C 22.554688 9.433594 22.398438 9.367188 22.21875 9.367188 L 19.828125 9.367188 Z M 19.828125 10.742188 "/>
</g>
</svg>
