<?xml version="1.0" encoding="UTF-8"?>
<svg xmlns="http://www.w3.org/2000/svg" xmlns:xlink="http://www.w3.org/1999/xlink" width="24" height="25.333333" viewBox="0 0 24 25.333333" version="1.1">
<g id="surface1">
<path style=" stroke:none;fill-rule:nonzero;fill:rgb(100%,100%,100%);fill-opacity:1;" d="M 22.96875 24.542969 C 23.171875 24.542969 23.347656 24.472656 23.5 24.332031 C 23.652344 24.195312 23.730469 24.023438 23.730469 23.824219 L 23.730469 1.113281 C 23.730469 0.914062 23.652344 0.742188 23.5 0.605469 C 23.347656 0.464844 23.171875 0.394531 22.96875 0.394531 C 22.761719 0.394531 22.578125 0.464844 22.425781 0.605469 C 22.273438 0.742188 22.199219 0.914062 22.199219 1.113281 L 22.199219 23.824219 C 22.199219 24.023438 22.273438 24.195312 22.425781 24.332031 C 22.578125 24.472656 22.761719 24.542969 22.96875 24.542969 Z M 17.894531 11.46875 C 18.667969 11.46875 19.257812 11.265625 19.667969 10.863281 C 20.078125 10.460938 20.28125 9.882812 20.28125 9.125 L 20.28125 5.5 C 20.28125 4.742188 20.078125 4.164062 19.667969 3.761719 C 19.257812 3.359375 18.667969 3.15625 17.894531 3.15625 L 10.03125 3.15625 C 9.261719 3.15625 8.671875 3.359375 8.261719 3.761719 C 7.851562 4.164062 7.644531 4.742188 7.644531 5.5 L 7.644531 9.125 C 7.644531 9.882812 7.851562 10.460938 8.261719 10.863281 C 8.671875 11.265625 9.261719 11.46875 10.03125 11.46875 Z M 17.863281 9.894531 L 10.0625 9.894531 C 9.792969 9.894531 9.582031 9.824219 9.4375 9.675781 C 9.292969 9.523438 9.21875 9.308594 9.21875 9.03125 L 9.21875 5.582031 C 9.21875 5.304688 9.292969 5.09375 9.4375 4.949219 C 9.582031 4.800781 9.792969 4.730469 10.0625 4.730469 L 17.863281 4.730469 C 18.136719 4.730469 18.34375 4.800781 18.488281 4.949219 C 18.636719 5.09375 18.707031 5.304688 18.707031 5.582031 L 18.707031 9.03125 C 18.707031 9.308594 18.636719 9.523438 18.488281 9.675781 C 18.34375 9.824219 18.136719 9.894531 17.863281 9.894531 Z M 17.894531 21.792969 C 18.667969 21.792969 19.257812 21.589844 19.667969 21.1875 C 20.078125 20.792969 20.28125 20.210938 20.28125 19.449219 L 20.28125 15.824219 C 20.28125 15.066406 20.078125 14.484375 19.667969 14.082031 C 19.257812 13.679688 18.667969 13.480469 17.894531 13.480469 L 2.65625 13.480469 C 1.886719 13.480469 1.296875 13.679688 0.886719 14.082031 C 0.476562 14.484375 0.269531 15.066406 0.269531 15.824219 L 0.269531 19.449219 C 0.269531 20.210938 0.476562 20.792969 0.886719 21.1875 C 1.296875 21.589844 1.886719 21.792969 2.65625 21.792969 Z M 17.863281 20.21875 L 2.6875 20.21875 C 2.417969 20.21875 2.207031 20.144531 2.0625 20 C 1.917969 19.855469 1.84375 19.640625 1.84375 19.363281 L 1.84375 15.917969 C 1.84375 15.640625 1.917969 15.425781 2.0625 15.28125 C 2.207031 15.128906 2.417969 15.050781 2.6875 15.050781 L 17.863281 15.050781 C 18.136719 15.050781 18.34375 15.128906 18.488281 15.28125 C 18.636719 15.425781 18.707031 15.640625 18.707031 15.917969 L 18.707031 19.363281 C 18.707031 19.640625 18.636719 19.855469 18.488281 20 C 18.34375 20.144531 18.136719 20.21875 17.863281 20.21875 Z M 17.863281 20.21875 "/>
</g>
</svg>
