<svg width="20" height="19" viewBox="0 0 20 19" fill="none" xmlns="http://www.w3.org/2000/svg">
<path d="M4.77344 15.5703H7.49219C8.0599 15.5703 8.49479 15.4167 8.79688 15.1094C9.09896 14.8021 9.25 14.3594 9.25 13.7812V2.35156C9.25 1.77344 9.09896 1.33073 8.79688 1.02344C8.49479 0.716146 8.0599 0.5625 7.49219 0.5625H4.77344C4.20573 0.5625 3.77083 0.716146 3.46875 1.02344C3.16667 1.33073 3.01562 1.77344 3.01562 2.35156V13.7812C3.01562 14.3594 3.16667 14.8021 3.46875 15.1094C3.77083 15.4167 4.20573 15.5703 4.77344 15.5703ZM4.84375 14.3906C4.63542 14.3906 4.47396 14.3359 4.35938 14.2266C4.25 14.1172 4.19531 13.9609 4.19531 13.7578V2.375C4.19531 2.17188 4.25 2.01562 4.35938 1.90625C4.47396 1.79688 4.63542 1.74219 4.84375 1.74219H7.42188C7.63542 1.74219 7.79688 1.79688 7.90625 1.90625C8.01562 2.01562 8.07031 2.17188 8.07031 2.375V13.7578C8.07031 13.9609 8.01562 14.1172 7.90625 14.2266C7.79688 14.3359 7.63542 14.3906 7.42188 14.3906H4.84375ZM12.5234 15.5703H15.2422C15.8099 15.5703 16.2448 15.4167 16.5469 15.1094C16.849 14.8021 17 14.3594 17 13.7812V7.88281C17 7.30469 16.849 6.86198 16.5469 6.55469C16.2448 6.2474 15.8099 6.09375 15.2422 6.09375H12.5234C11.9505 6.09375 11.513 6.2474 11.2109 6.55469C10.9089 6.86198 10.7578 7.30469 10.7578 7.88281V13.7812C10.7578 14.3594 10.9089 14.8021 11.2109 15.1094C11.513 15.4167 11.9505 15.5703 12.5234 15.5703ZM12.5859 14.3906C12.3776 14.3906 12.2161 14.3359 12.1016 14.2266C11.9922 14.1172 11.9375 13.9609 11.9375 13.7578V7.90625C11.9375 7.70312 11.9922 7.54688 12.1016 7.4375C12.2161 7.32812 12.3776 7.27344 12.5859 7.27344H15.1719C15.3802 7.27344 15.5391 7.32812 15.6484 7.4375C15.763 7.54688 15.8203 7.70312 15.8203 7.90625V13.7578C15.8203 13.9609 15.763 14.1172 15.6484 14.2266C15.5391 14.3359 15.3802 14.3906 15.1719 14.3906H12.5859ZM1.49219 18.1797H18.5156C18.6667 18.1797 18.7943 18.1224 18.8984 18.0078C19.0026 17.8932 19.0547 17.7604 19.0547 17.6094C19.0547 17.4531 19.0026 17.3177 18.8984 17.2031C18.7943 17.0885 18.6667 17.0312 18.5156 17.0312H1.49219C1.33594 17.0312 1.20573 17.0885 1.10156 17.2031C0.997396 17.3177 0.945312 17.4531 0.945312 17.6094C0.945312 17.7604 0.997396 17.8932 1.10156 18.0078C1.20573 18.1224 1.33594 18.1797 1.49219 18.1797Z" fill="white"/>
</svg>
