<svg width="142" height="146" viewBox="0 0 142 146" fill="none" xmlns="http://www.w3.org/2000/svg">
<path d="M5.5 145.25C6.75 145.25 7.83333 144.833 8.75 144C9.66667 143.167 10.125 142.146 10.125 140.938V4.6875C10.125 3.47917 9.66667 2.45833 8.75 1.625C7.83333 0.791667 6.75 0.375 5.5 0.375C4.29167 0.375 3.22917 0.791667 2.3125 1.625C1.39583 2.45833 0.9375 3.47917 0.9375 4.6875V140.938C0.9375 142.146 1.39583 143.167 2.3125 144C3.22917 144.833 4.29167 145.25 5.5 145.25ZM35.9375 66.8125H83.125C87.75 66.8125 91.2917 65.6042 93.75 63.1875C96.2083 60.7708 97.4375 57.2917 97.4375 52.75V31C97.4375 26.4583 96.2083 22.9792 93.75 20.5625C91.2917 18.1458 87.75 16.9375 83.125 16.9375H35.9375C31.3125 16.9375 27.7708 18.1458 25.3125 20.5625C22.8542 22.9792 21.625 26.4583 21.625 31V52.75C21.625 57.2917 22.8542 60.7708 25.3125 63.1875C27.7708 65.6042 31.3125 66.8125 35.9375 66.8125ZM36.125 57.375C34.5 57.375 33.25 56.9375 32.375 56.0625C31.5 55.1458 31.0625 53.8542 31.0625 52.1875V31.5C31.0625 29.8333 31.5 28.5625 32.375 27.6875C33.25 26.8125 34.5 26.375 36.125 26.375H82.9375C84.5625 26.375 85.8125 26.8125 86.6875 27.6875C87.5625 28.5625 88 29.8333 88 31.5V52.1875C88 53.8542 87.5625 55.1458 86.6875 56.0625C85.8125 56.9375 84.5625 57.375 82.9375 57.375H36.125ZM35.9375 128.75H127.375C132.042 128.75 135.583 127.542 138 125.125C140.458 122.75 141.688 119.271 141.688 114.688V92.9375C141.688 88.3958 140.458 84.9167 138 82.5C135.583 80.0833 132.042 78.875 127.375 78.875H35.9375C31.3125 78.875 27.7708 80.0833 25.3125 82.5C22.8542 84.9167 21.625 88.3958 21.625 92.9375V114.688C21.625 119.271 22.8542 122.75 25.3125 125.125C27.7708 127.542 31.3125 128.75 35.9375 128.75ZM36.125 119.312C34.5 119.312 33.25 118.875 32.375 118C31.5 117.125 31.0625 115.854 31.0625 114.188V93.5C31.0625 91.8333 31.5 90.5625 32.375 89.6875C33.25 88.7708 34.5 88.3125 36.125 88.3125H127.188C128.812 88.3125 130.062 88.7708 130.938 89.6875C131.812 90.5625 132.25 91.8333 132.25 93.5V114.188C132.25 115.854 131.812 117.125 130.938 118C130.062 118.875 128.812 119.312 127.188 119.312H36.125Z" fill="white"/>
</svg>
