<svg width="146" height="142" viewBox="0 0 146 142" fill="none" xmlns="http://www.w3.org/2000/svg">
<path d="M5.3125 9.6875H141.5C142.708 9.6875 143.729 9.22917 144.562 8.3125C145.396 7.39583 145.812 6.33333 145.812 5.125C145.812 3.875 145.396 2.79167 144.562 1.875C143.729 0.958333 142.708 0.5 141.5 0.5H5.3125C4.0625 0.5 3.02083 0.958333 2.1875 1.875C1.35417 2.79167 0.9375 3.875 0.9375 5.125C0.9375 6.33333 1.35417 7.39583 2.1875 8.3125C3.02083 9.22917 4.0625 9.6875 5.3125 9.6875ZM31.5625 141.438H53.3125C57.8542 141.438 61.3333 140.208 63.75 137.75C66.1667 135.333 67.375 131.792 67.375 127.125V35.6875C67.375 31.0625 66.1667 27.5208 63.75 25.0625C61.3333 22.6042 57.8542 21.375 53.3125 21.375H31.5625C27.0208 21.375 23.5417 22.6042 21.125 25.0625C18.7083 27.5208 17.5 31.0625 17.5 35.6875V127.125C17.5 131.792 18.7083 135.333 21.125 137.75C23.5417 140.208 27.0208 141.438 31.5625 141.438ZM32.125 132C30.4583 132 29.1667 131.562 28.25 130.688C27.375 129.812 26.9375 128.562 26.9375 126.938V35.875C26.9375 34.25 27.375 33 28.25 32.125C29.1667 31.25 30.4583 30.8125 32.125 30.8125H52.75C54.4583 30.8125 55.75 31.25 56.625 32.125C57.5 33 57.9375 34.25 57.9375 35.875V126.938C57.9375 128.562 57.5 129.812 56.625 130.688C55.75 131.562 54.4583 132 52.75 132H32.125ZM93.5625 97.1875H115.312C119.854 97.1875 123.333 95.9583 125.75 93.5C128.167 91.0417 129.375 87.5 129.375 82.875V35.6875C129.375 31.0625 128.167 27.5208 125.75 25.0625C123.333 22.6042 119.854 21.375 115.312 21.375H93.5625C88.9792 21.375 85.4792 22.6042 83.0625 25.0625C80.6458 27.5208 79.4375 31.0625 79.4375 35.6875V82.875C79.4375 87.5 80.6458 91.0417 83.0625 93.5C85.4792 95.9583 88.9792 97.1875 93.5625 97.1875ZM94.0625 87.75C92.3958 87.75 91.1042 87.3125 90.1875 86.4375C89.3125 85.5625 88.875 84.3125 88.875 82.6875V35.875C88.875 34.25 89.3125 33 90.1875 32.125C91.1042 31.25 92.3958 30.8125 94.0625 30.8125H114.75C116.417 30.8125 117.688 31.25 118.562 32.125C119.479 33 119.938 34.25 119.938 35.875V82.6875C119.938 84.3125 119.479 85.5625 118.562 86.4375C117.688 87.3125 116.417 87.75 114.75 87.75H94.0625Z" fill="white"/>
</svg>
