<svg width="20" height="16" viewBox="0 0 20 16" fill="none" xmlns="http://www.w3.org/2000/svg">
<path d="M1.49219 8.95312H3.50781V7.80469H1.49219C1.33594 7.80469 1.20573 7.86198 1.10156 7.97656C0.997396 8.09115 0.945312 8.22396 0.945312 8.375C0.945312 8.52604 0.997396 8.66146 1.10156 8.78125C1.20573 8.89583 1.33594 8.95312 1.49219 8.95312ZM4.77344 15.8906H7.49219C8.0599 15.8906 8.49479 15.7344 8.79688 15.4219C9.09896 15.1146 9.25 14.6693 9.25 14.0859V2.66406C9.25 2.08073 9.09896 1.63802 8.79688 1.33594C8.49479 1.02865 8.0599 0.875 7.49219 0.875H4.77344C4.20573 0.875 3.77083 1.02865 3.46875 1.33594C3.16667 1.63802 3.01562 2.08073 3.01562 2.66406V14.0859C3.01562 14.6693 3.16667 15.1146 3.46875 15.4219C3.77083 15.7344 4.20573 15.8906 4.77344 15.8906ZM4.84375 14.7031C4.63542 14.7031 4.47396 14.6458 4.35938 14.5312C4.25 14.4219 4.19531 14.2682 4.19531 14.0703V2.67969C4.19531 2.48177 4.25 2.32812 4.35938 2.21875C4.47396 2.10938 4.63542 2.05469 4.84375 2.05469H7.42188C7.63542 2.05469 7.79688 2.10938 7.90625 2.21875C8.01562 2.32812 8.07031 2.48177 8.07031 2.67969V14.0703C8.07031 14.2682 8.01562 14.4219 7.90625 14.5312C7.79688 14.6458 7.63542 14.7031 7.42188 14.7031H4.84375ZM8.60938 8.95312H11.375V7.80469H8.60938V8.95312ZM12.5234 13.1094H15.2422C15.8099 13.1094 16.2448 12.9583 16.5469 12.6562C16.849 12.349 17 11.9036 17 11.3203V5.42969C17 4.84635 16.849 4.40365 16.5469 4.10156C16.2448 3.79427 15.8099 3.64062 15.2422 3.64062H12.5234C11.9505 3.64062 11.513 3.79427 11.2109 4.10156C10.9089 4.40365 10.7578 4.84635 10.7578 5.42969V11.3203C10.7578 11.9036 10.9089 12.349 11.2109 12.6562C11.513 12.9583 11.9505 13.1094 12.5234 13.1094ZM12.5859 11.9297C12.3776 11.9297 12.2161 11.875 12.1016 11.7656C11.9922 11.6562 11.9375 11.5026 11.9375 11.3047V5.45312C11.9375 5.25 11.9922 5.09375 12.1016 4.98438C12.2161 4.875 12.3776 4.82031 12.5859 4.82031H15.1719C15.3802 4.82031 15.5391 4.875 15.6484 4.98438C15.763 5.09375 15.8203 5.25 15.8203 5.45312V11.3047C15.8203 11.5026 15.763 11.6562 15.6484 11.7656C15.5391 11.875 15.3802 11.9297 15.1719 11.9297H12.5859ZM16.5234 8.95312H18.5156C18.6667 8.95312 18.7943 8.89583 18.8984 8.78125C19.0026 8.66146 19.0547 8.52604 19.0547 8.375C19.0547 8.22396 19.0026 8.09115 18.8984 7.97656C18.7943 7.86198 18.6667 7.80469 18.5156 7.80469H16.5234V8.95312Z" fill="white"/>
</svg>
