<svg xmlns="http://www.w3.org/2000/svg" width="24" height="24"><path style="stroke:none;fill-rule:nonzero;fill:#fff;fill-opacity:1" d="M1.137 23.238h5.648c.48.008.95-.14 1.348-.425.398-.274.699-.657.902-1.137l7.688-18.488c.18-.399.496-.602.949-.602h5.191c.305 0 .563-.106.774-.324.21-.207.332-.504.328-.813.004-.3-.117-.586-.328-.785a1.028 1.028 0 0 0-.774-.34h-5.718c-.54 0-.993.125-1.36.375-.36.25-.648.637-.867 1.164l-7.723 18.5a.962.962 0 0 1-.363.45.896.896 0 0 1-.539.164H1.137c-.305 0-.567.105-.785.324-.211.222-.317.496-.317.812-.004.301.11.594.317.797.218.219.48.328.785.328Zm14.144 0h7.582c.305 0 .563-.11.774-.328.207-.2.324-.488.316-.785.004-.3-.11-.594-.316-.8a1.033 1.033 0 0 0-.774-.325h-7.582c-.312 0-.574.11-.785.324-.207.207-.32.5-.316.801 0 .316.105.578.316.785.211.219.473.328.785.328Zm0 0"/></svg>