<svg width="106" height="150" viewBox="0 0 106 150" fill="none" xmlns="http://www.w3.org/2000/svg">
<path d="M53 149.312C57.4167 149.312 61.6042 148.229 65.5625 146.062C69.5625 143.938 73.1042 141 76.1875 137.25C79.2708 133.542 81.6875 129.333 83.4375 124.625C85.2292 119.917 86.125 115 86.125 109.875C86.125 108.292 85.9792 106.833 85.6875 105.5C85.3958 104.167 84.9792 102.938 84.4375 101.812C85.3542 102.062 86.25 102.312 87.125 102.562C88.0417 102.771 88.9375 103 89.8125 103.25C91.9792 103.833 93.4167 104.625 94.125 105.625C94.875 106.583 95.1042 108 94.8125 109.875L90.25 139.812C89.9583 141.604 90.2708 143 91.1875 144C92.1458 145 93.3542 145.5 94.8125 145.5C96.3542 145.5 97.5 145.042 98.25 144.125C99 143.25 99.5 142.042 99.75 140.5L104.875 108.062C105.458 104.396 104.958 101.521 103.375 99.4375C101.833 97.3125 99.0625 95.7917 95.0625 94.875L66.875 88.3125L66.8125 87.6875C68.1875 87.0208 69.3125 86.1042 70.1875 84.9375C71.0625 83.7292 71.7083 82.4167 72.125 81L91.3125 78.25C95.2292 77.7083 98.0833 76.3542 99.875 74.1875C101.708 72.0208 102.625 69 102.625 65.125V43.5C102.625 42 102.208 40.8333 101.375 40C100.542 39.125 99.375 38.6875 97.875 38.6875C96.375 38.6875 95.2083 39.125 94.375 40C93.5417 40.8333 93.125 42 93.125 43.5V63.1875C93.125 65.3958 92.5625 66.9583 91.4375 67.875C90.3125 68.75 88.7292 69.3333 86.6875 69.625L72.375 71.5625C72.0417 70.6042 71.5625 69.7083 70.9375 68.875C70.3125 68.0417 69.5833 67.3333 68.75 66.75V66.125C74.0833 65.1667 78.1875 63.1458 81.0625 60.0625C83.9375 56.9375 85.375 53 85.375 48.25C85.375 44.25 84.6667 40.4583 83.25 36.875C81.875 33.2917 79.9583 30.1042 77.5 27.3125L78.0625 26.875C81.1042 24.7083 82.8958 22.0833 83.4375 19C83.9792 15.875 83.2708 12.5833 81.3125 9.125L77.625 3.0625C76.4583 1.02083 74.9583 0 73.125 0C71.8333 0 70.75 0.416667 69.875 1.25C69.0417 2.08333 68.625 3.10417 68.625 4.3125C68.625 4.85417 68.6667 5.33333 68.75 5.75C68.875 6.16667 69.125 6.6875 69.5 7.3125L72.75 12.25C73.75 13.875 74.2292 15.3958 74.1875 16.8125C74.1458 18.1875 73.4792 19.4375 72.1875 20.5625C72.0208 20.6875 71.8542 20.8333 71.6875 21C71.5208 21.125 71.3333 21.25 71.125 21.375C68.5417 19.625 65.7083 18.2708 62.625 17.3125C59.5417 16.3125 56.3333 15.8125 53 15.8125C49.7083 15.8125 46.5417 16.3125 43.5 17.3125C40.4583 18.2708 37.6667 19.6042 35.125 21.3125C34.9583 21.2292 34.7708 21.1042 34.5625 20.9375C34.3958 20.7708 34.2292 20.625 34.0625 20.5C32.8125 19.375 32.1458 18.125 32.0625 16.75C32.0208 15.375 32.5208 13.875 33.5625 12.25L36.8125 7.3125C37.1458 6.6875 37.375 6.16667 37.5 5.75C37.625 5.33333 37.6875 4.85417 37.6875 4.3125C37.6875 3.10417 37.25 2.08333 36.375 1.25C35.5417 0.416667 34.4792 0 33.1875 0C31.3125 0 29.8125 1.02083 28.6875 3.0625L25 9.125C23.0417 12.5833 22.3333 15.875 22.875 19C23.4167 22.0833 25.2083 24.7083 28.25 26.875L28.6875 27.1875C26.1875 29.9792 24.2083 33.1875 22.75 36.8125C21.3333 40.4375 20.625 44.25 20.625 48.25C20.625 53 22.0625 56.9375 24.9375 60.0625C27.8542 63.1458 31.9792 65.1667 37.3125 66.125V66.75C36.4375 67.3333 35.6875 68.0417 35.0625 68.875C34.4792 69.7083 34.0208 70.6042 33.6875 71.5625L19.375 69.625C17.3333 69.3333 15.75 68.75 14.625 67.875C13.5 66.9583 12.9375 65.3958 12.9375 63.1875V43.5C12.9375 42 12.5208 40.8333 11.6875 40C10.8542 39.125 9.6875 38.6875 8.1875 38.6875C6.6875 38.6875 5.52083 39.125 4.6875 40C3.85417 40.8333 3.4375 42 3.4375 43.5V65.125C3.4375 69 4.33333 72.0208 6.125 74.1875C7.95833 76.3542 10.8333 77.7083 14.75 78.25L33.9375 81C34.3542 82.4167 35 83.7292 35.875 84.9375C36.75 86.1042 37.875 87.0208 39.25 87.6875V88.3125L11 94.875C6.95833 95.7917 4.16667 97.3125 2.625 99.4375C1.08333 101.521 0.604167 104.396 1.1875 108.062L6.3125 140.5C6.52083 142.042 7 143.25 7.75 144.125C8.54167 145.042 9.70833 145.5 11.25 145.5C12.7083 145.5 13.8958 145 14.8125 144C15.7708 143 16.1042 141.604 15.8125 139.812L11.25 109.875C10.9583 108 11.1667 106.583 11.875 105.625C12.625 104.625 14.0833 103.833 16.25 103.25C17.125 103 18 102.771 18.875 102.562C19.7917 102.312 20.6875 102.062 21.5625 101.812C21.0208 102.938 20.6042 104.167 20.3125 105.5C20.0625 106.833 19.9375 108.292 19.9375 109.875C19.9375 115 20.8125 119.917 22.5625 124.625C24.3542 129.333 26.7917 133.542 29.875 137.25C32.9583 141 36.4792 143.938 40.4375 146.062C44.3958 148.229 48.5833 149.312 53 149.312Z" fill="white"/>
</svg>
