<svg width="128" height="128" viewBox="0 0 128 128" fill="none" xmlns="http://www.w3.org/2000/svg">
<path d="M63.9375 127.688C72.6458 127.688 80.8333 126.021 88.5 122.688C96.2083 119.354 103 114.75 108.875 108.875C114.75 103 119.354 96.2292 122.688 88.5625C126.021 80.8542 127.688 72.6458 127.688 63.9375C127.688 55.2292 126.021 47.0417 122.688 39.375C119.354 31.6667 114.75 24.875 108.875 19C103 13.125 96.2083 8.52083 88.5 5.1875C80.7917 1.85417 72.5833 0.1875 63.875 0.1875C55.1667 0.1875 46.9583 1.85417 39.25 5.1875C31.5833 8.52083 24.8125 13.125 18.9375 19C13.1042 24.875 8.52083 31.6667 5.1875 39.375C1.85417 47.0417 0.1875 55.2292 0.1875 63.9375C0.1875 72.6458 1.85417 80.8542 5.1875 88.5625C8.52083 96.2292 13.125 103 19 108.875C24.875 114.75 31.6458 119.354 39.3125 122.688C47.0208 126.021 55.2292 127.688 63.9375 127.688ZM23.4375 61.8125C23.4375 56.9792 24.2917 52.3333 26 47.875C27.75 43.4167 30.2292 39.4375 33.4375 35.9375C34.2708 34.9792 35.25 34.4792 36.375 34.4375C37.5 34.3958 38.4583 34.8333 39.25 35.75C39.9167 36.5 40.2083 37.3958 40.125 38.4375C40.0417 39.4375 39.5833 40.4375 38.75 41.4375C36.25 44.1458 34.3333 47.25 33 50.75C31.6667 54.25 31 57.9375 31 61.8125C31 69.8542 33.5833 76.7083 38.75 82.375C40.5417 84.5 40.6875 86.3958 39.1875 88.0625C38.3958 88.9375 37.4375 89.3542 36.3125 89.3125C35.2292 89.2292 34.2708 88.75 33.4375 87.875C30.1875 84.3333 27.7083 80.3333 26 75.875C24.2917 71.4167 23.4375 66.7292 23.4375 61.8125ZM39.25 61.8125C39.25 56.1458 41 51.125 44.5 46.75C45.2917 45.7083 46.2708 45.1667 47.4375 45.125C48.6458 45.0833 49.6667 45.5208 50.5 46.4375C51.125 47.1875 51.3958 48.0417 51.3125 49C51.2292 49.9167 50.7917 50.9167 50 52C49 53.4167 48.2083 54.9583 47.625 56.625C47.0833 58.2917 46.8125 60.0208 46.8125 61.8125C46.8125 65.6875 47.875 69 50 71.75C50.7917 72.8333 51.2292 73.8542 51.3125 74.8125C51.3958 75.7292 51.125 76.5833 50.5 77.375C49.7083 78.25 48.7083 78.6667 47.5 78.625C46.2917 78.5417 45.2917 78.0208 44.5 77.0625C41 72.6458 39.25 67.5625 39.25 61.8125ZM56.5 61.8125C56.5 59.7292 57.2292 57.9792 58.6875 56.5625C60.1458 55.1042 61.8958 54.375 63.9375 54.375C66.0208 54.375 67.7917 55.1042 69.25 56.5625C70.7083 57.9792 71.4375 59.7292 71.4375 61.8125C71.4375 63.2292 71.0833 64.5208 70.375 65.6875C69.6667 66.8125 68.7292 67.6875 67.5625 68.3125V101.75C67.5625 102.917 67.2292 103.875 66.5625 104.625C65.8958 105.333 65.0208 105.688 63.9375 105.688C62.9375 105.688 62.0833 105.312 61.375 104.562C60.7083 103.812 60.375 102.875 60.375 101.75V68.375C59.2083 67.75 58.2708 66.8542 57.5625 65.6875C56.8542 64.5208 56.5 63.2292 56.5 61.8125ZM81.125 61.8125C81.125 60.0208 80.8333 58.2917 80.25 56.625C79.7083 54.9583 78.9375 53.4167 77.9375 52C77.1458 50.9167 76.7083 49.9167 76.625 49C76.5417 48.0417 76.8125 47.1875 77.4375 46.4375C78.2708 45.5208 79.2708 45.0833 80.4375 45.125C81.6458 45.1667 82.6458 45.7083 83.4375 46.75C86.9375 51.125 88.6875 56.1458 88.6875 61.8125C88.6875 67.5625 86.9375 72.6458 83.4375 77.0625C82.6458 78.0208 81.6458 78.5417 80.4375 78.625C79.2292 78.6667 78.2292 78.25 77.4375 77.375C76.1458 75.7917 76.3125 73.9167 77.9375 71.75C78.9792 70.4167 79.7708 68.9167 80.3125 67.25C80.8542 65.5833 81.125 63.7708 81.125 61.8125ZM96.9375 61.8125C96.9375 57.9375 96.2708 54.25 94.9375 50.75C93.6042 47.25 91.6875 44.1458 89.1875 41.4375C88.3542 40.4375 87.8958 39.4375 87.8125 38.4375C87.7292 37.3958 88.0208 36.5 88.6875 35.75C89.4792 34.8333 90.4375 34.3958 91.5625 34.4375C92.6875 34.4792 93.6667 34.9792 94.5 35.9375C97.7083 39.4375 100.167 43.4167 101.875 47.875C103.625 52.3333 104.5 56.9792 104.5 61.8125C104.5 66.7292 103.646 71.4167 101.938 75.875C100.229 80.3333 97.75 84.3333 94.5 87.875C93.6667 88.75 92.6875 89.2292 91.5625 89.3125C90.4792 89.3542 89.5417 88.9375 88.75 88.0625C87.25 86.3958 87.3958 84.5 89.1875 82.375C94.3542 76.7083 96.9375 69.8542 96.9375 61.8125Z" fill="white"/>
</svg>
