<svg width="128" height="128" viewBox="0 0 128 128" fill="none" xmlns="http://www.w3.org/2000/svg">
<path d="M63.9375 127.625C72.6458 127.625 80.8333 125.958 88.5 122.625C96.2083 119.292 103 114.688 108.875 108.812C114.75 102.938 119.354 96.1667 122.688 88.5C126.021 80.7917 127.688 72.5833 127.688 63.875C127.688 55.1667 126.021 46.9792 122.688 39.3125C119.354 31.6042 114.75 24.8125 108.875 18.9375C103 13.0625 96.2083 8.45833 88.5 5.125C80.7917 1.79167 72.5833 0.125 63.875 0.125C55.1667 0.125 46.9583 1.79167 39.25 5.125C31.5833 8.45833 24.8125 13.0625 18.9375 18.9375C13.1042 24.8125 8.52083 31.6042 5.1875 39.3125C1.85417 46.9792 0.1875 55.1667 0.1875 63.875C0.1875 72.5833 1.85417 80.7917 5.1875 88.5C8.52083 96.1667 13.125 102.938 19 108.812C24.875 114.688 31.6458 119.292 39.3125 122.625C47.0208 125.958 55.2292 127.625 63.9375 127.625ZM63.9375 117C56.5625 117 49.6667 115.625 43.25 112.875C36.8333 110.125 31.1875 106.333 26.3125 101.5C21.4792 96.625 17.6875 90.9792 14.9375 84.5625C12.2292 78.1458 10.875 71.25 10.875 63.875C10.875 56.5 12.2292 49.6042 14.9375 43.1875C17.6875 36.7708 21.4792 31.125 26.3125 26.25C31.1458 21.375 36.7708 17.5833 43.1875 14.875C49.6042 12.125 56.5 10.75 63.875 10.75C71.25 10.75 78.1458 12.125 84.5625 14.875C91.0208 17.5833 96.6667 21.375 101.5 26.25C106.375 31.125 110.188 36.7708 112.938 43.1875C115.688 49.6042 117.062 56.5 117.062 63.875C117.062 71.25 115.688 78.1458 112.938 84.5625C110.229 90.9792 106.438 96.625 101.562 101.5C96.6875 106.333 91.0417 110.125 84.625 112.875C78.2083 115.625 71.3125 117 63.9375 117ZM24.625 61.9375C24.625 71.7708 27.8542 80.1875 34.3125 87.1875C35.1042 88.0625 36.0417 88.5208 37.125 88.5625C38.2083 88.6042 39.125 88.2083 39.875 87.375C41.2917 85.75 41.1458 83.9167 39.4375 81.875C34.4375 76.4583 31.9375 69.8125 31.9375 61.9375C31.9375 54.1458 34.4375 47.5417 39.4375 42.125C40.2292 41.1667 40.6667 40.2083 40.75 39.25C40.8333 38.25 40.5625 37.375 39.9375 36.625C39.1875 35.75 38.25 35.3333 37.125 35.375C36.0417 35.4167 35.1042 35.8958 34.3125 36.8125C31.1875 40.1875 28.7917 44.0417 27.125 48.375C25.4583 52.7083 24.625 57.2292 24.625 61.9375ZM39.9375 61.9375C39.9375 67.5208 41.6458 72.4375 45.0625 76.6875C45.8125 77.6458 46.7708 78.1458 47.9375 78.1875C49.1042 78.2292 50.0625 77.8333 50.8125 77C51.4375 76.25 51.7083 75.4167 51.625 74.5C51.5417 73.5833 51.125 72.6042 50.375 71.5625C48.2917 68.9792 47.25 65.7708 47.25 61.9375C47.25 60.1875 47.5208 58.5 48.0625 56.875C48.6042 55.25 49.375 53.75 50.375 52.375C51.125 51.3333 51.5417 50.3542 51.625 49.4375C51.7083 48.5208 51.4375 47.7083 50.8125 47C50.0208 46.0833 49.0417 45.6667 47.875 45.75C46.75 45.7917 45.8125 46.3125 45.0625 47.3125C41.6458 51.5625 39.9375 56.4375 39.9375 61.9375ZM56.6875 61.9375C56.6875 63.3542 57.0208 64.6042 57.6875 65.6875C58.3958 66.7708 59.3125 67.625 60.4375 68.25V100.688C60.4375 101.812 60.75 102.729 61.375 103.438C62.0417 104.146 62.875 104.5 63.875 104.5C64.9167 104.5 65.75 104.146 66.375 103.438C67.0417 102.729 67.375 101.812 67.375 100.688V68.25C68.5 67.625 69.3958 66.7708 70.0625 65.6875C70.7708 64.5625 71.125 63.3125 71.125 61.9375C71.125 59.9375 70.4167 58.25 69 56.875C67.625 55.4583 65.9167 54.75 63.875 54.75C61.875 54.75 60.1667 55.4583 58.75 56.875C57.375 58.25 56.6875 59.9375 56.6875 61.9375ZM80.5625 61.9375C80.5625 63.8125 80.2917 65.5625 79.75 67.1875C79.25 68.8125 78.4792 70.2708 77.4375 71.5625C76.6875 72.6042 76.2708 73.5833 76.1875 74.5C76.1042 75.4167 76.375 76.25 77 77C77.75 77.8333 78.7083 78.2292 79.875 78.1875C81.0417 78.1458 82 77.6458 82.75 76.6875C86.1667 72.4375 87.875 67.5208 87.875 61.9375C87.875 56.4375 86.1667 51.5625 82.75 47.3125C82 46.3125 81.0417 45.7917 79.875 45.75C78.75 45.6667 77.7917 46.0833 77 47C76.375 47.7083 76.1042 48.5208 76.1875 49.4375C76.2708 50.3542 76.6875 51.3333 77.4375 52.375C78.4375 53.75 79.2083 55.25 79.75 56.875C80.2917 58.5 80.5625 60.1875 80.5625 61.9375ZM95.875 61.9375C95.875 69.8125 93.375 76.4583 88.375 81.875C86.6667 83.9167 86.5208 85.75 87.9375 87.375C88.6875 88.2083 89.6042 88.6042 90.6875 88.5625C91.7708 88.5208 92.7083 88.0625 93.5 87.1875C99.9583 80.1875 103.188 71.7708 103.188 61.9375C103.188 57.2292 102.354 52.7083 100.688 48.375C99.0208 44.0417 96.625 40.1875 93.5 36.8125C92.7083 35.8958 91.75 35.4167 90.625 35.375C89.5417 35.3333 88.625 35.75 87.875 36.625C87.25 37.375 86.9792 38.25 87.0625 39.25C87.1458 40.2083 87.5833 41.1667 88.375 42.125C93.375 47.5417 95.875 54.1458 95.875 61.9375Z" fill="white"/>
</svg>
