<svg width="117" height="116" viewBox="0 0 117 116" fill="none" xmlns="http://www.w3.org/2000/svg">
<path d="M8.25 8C5.20833 11.0417 3.22917 14.6667 2.3125 18.875C1.39583 23.0417 0.9375 27.6667 0.9375 32.75V33.375H11V32.375C11 29.0833 11.2917 25.8958 11.875 22.8125C12.4583 19.6875 13.6875 17.1875 15.5625 15.3125C17.4375 13.3958 19.9375 12.1458 23.0625 11.5625C26.2292 10.9792 29.4583 10.6875 32.75 10.6875H33.875V0.625H33.125C28.0833 0.625 23.4375 1.08333 19.1875 2C14.9792 2.91667 11.3333 4.91667 8.25 8ZM42.4375 10.6875H74.6875V0.625H42.4375V10.6875ZM108.875 8C105.75 4.875 102.083 2.875 97.875 2C93.6667 1.08333 88.9792 0.625 83.8125 0.625H83.1875V10.6875H84.5625C87.7708 10.6875 90.9167 11 94 11.625C97.125 12.2083 99.625 13.4375 101.5 15.3125C103.417 17.2292 104.667 19.7292 105.25 22.8125C105.833 25.8542 106.125 28.9792 106.125 32.1875V33.375H116.188V32.9375C116.188 27.7292 115.729 23.0417 114.812 18.875C113.896 14.6667 111.917 11.0417 108.875 8ZM106.125 74H116.188V41.9375H106.125V74ZM108.875 107.938C111.917 104.896 113.896 101.271 114.812 97.0625C115.729 92.8542 116.188 88.1667 116.188 83V82.5625H106.125V83.6875C106.125 86.9375 105.812 90.1042 105.188 93.1875C104.604 96.2292 103.375 98.7083 101.5 100.625C99.625 102.5 97.125 103.729 94 104.312C90.9167 104.938 87.7708 105.25 84.5625 105.25H83.1875V115.312H83.8125C88.9792 115.312 93.6667 114.854 97.875 113.938C102.125 113.021 105.792 111.021 108.875 107.938ZM42.4375 115.312H74.6875V105.25H42.4375V115.312ZM8.25 107.938C11.3333 111.021 14.9792 113.021 19.1875 113.938C23.4375 114.854 28.125 115.312 33.25 115.312H33.875V105.25H32.5625C29.3542 105.25 26.1875 104.938 23.0625 104.312C19.9792 103.729 17.4792 102.5 15.5625 100.625C13.6875 98.7083 12.4583 96.2292 11.875 93.1875C11.2917 90.1042 11 86.9375 11 83.6875V82.5625H0.9375V83C0.9375 88.1667 1.375 92.8542 2.25 97.0625C3.16667 101.271 5.16667 104.896 8.25 107.938ZM0.9375 74H11V41.9375H0.9375V74Z" fill="white"/>
</svg>
