<?xml version="1.0" encoding="UTF-8"?>
<svg xmlns="http://www.w3.org/2000/svg" xmlns:xlink="http://www.w3.org/1999/xlink" width="24" height="27.428571" viewBox="0 0 24 27.428571" version="1.1">
<g id="surface1">
<path style=" stroke:none;fill-rule:nonzero;fill:rgb(100%,100%,100%);fill-opacity:1;" d="M 17.0625 6.75 C 16.394531 6.75 15.769531 6.851562 15.1875 7.058594 C 14.617188 7.261719 14.09375 7.46875 13.621094 7.675781 C 13.148438 7.871094 12.738281 7.96875 12.386719 7.96875 C 12.023438 7.96875 11.617188 7.875 11.167969 7.6875 C 10.722656 7.492188 10.242188 7.300781 9.722656 7.113281 C 9.214844 6.925781 8.667969 6.832031 8.089844 6.832031 C 6.992188 6.832031 5.933594 7.128906 4.914062 7.726562 C 3.898438 8.324219 3.0625 9.210938 2.410156 10.378906 C 1.757812 11.550781 1.433594 12.992188 1.433594 14.707031 C 1.433594 15.777344 1.558594 16.847656 1.808594 17.917969 C 2.058594 18.992188 2.394531 20.003906 2.8125 20.960938 C 3.230469 21.914062 3.695312 22.757812 4.207031 23.492188 C 4.867188 24.410156 5.507812 25.199219 6.132812 25.863281 C 6.769531 26.523438 7.5 26.851562 8.332031 26.851562 C 8.875 26.851562 9.347656 26.761719 9.75 26.585938 C 10.152344 26.40625 10.574219 26.222656 11.023438 26.035156 C 11.476562 25.855469 12.042969 25.769531 12.722656 25.769531 C 13.242188 25.769531 13.675781 25.820312 14.023438 25.929688 C 14.371094 26.035156 14.6875 26.15625 14.972656 26.289062 C 15.269531 26.433594 15.574219 26.558594 15.898438 26.664062 C 16.21875 26.773438 16.605469 26.824219 17.0625 26.824219 C 17.660156 26.824219 18.195312 26.664062 18.667969 26.34375 C 19.152344 26.03125 19.59375 25.625 19.996094 25.125 C 20.40625 24.625 20.804688 24.101562 21.1875 23.558594 C 21.605469 22.941406 21.945312 22.351562 22.207031 21.789062 C 22.472656 21.21875 22.667969 20.753906 22.792969 20.398438 C 22.917969 20.03125 22.988281 19.832031 22.996094 19.792969 C 22.96875 19.785156 22.773438 19.6875 22.40625 19.5 C 22.050781 19.304688 21.636719 18.996094 21.175781 18.574219 C 20.71875 18.15625 20.316406 17.605469 19.96875 16.929688 C 19.628906 16.25 19.460938 15.417969 19.460938 14.4375 C 19.460938 13.582031 19.59375 12.84375 19.863281 12.226562 C 20.136719 11.601562 20.460938 11.089844 20.824219 10.6875 C 21.191406 10.277344 21.519531 9.964844 21.804688 9.75 C 22.097656 9.535156 22.269531 9.414062 22.3125 9.386719 C 21.867188 8.746094 21.378906 8.246094 20.851562 7.886719 C 20.324219 7.53125 19.808594 7.273438 19.300781 7.113281 C 18.789062 6.949219 18.335938 6.851562 17.933594 6.816406 C 17.539062 6.773438 17.25 6.75 17.0625 6.75 Z M 16.125 4.582031 C 16.535156 4.089844 16.871094 3.523438 17.128906 2.878906 C 17.386719 2.226562 17.519531 1.558594 17.519531 0.871094 C 17.519531 0.675781 17.503906 0.5 17.476562 0.347656 C 16.808594 0.375 16.105469 0.574219 15.375 0.949219 C 14.652344 1.324219 14.054688 1.792969 13.582031 2.355469 C 13.195312 2.785156 12.855469 3.320312 12.5625 3.964844 C 12.269531 4.605469 12.121094 5.269531 12.121094 5.945312 C 12.121094 6.054688 12.125 6.152344 12.132812 6.242188 C 12.152344 6.332031 12.164062 6.394531 12.175781 6.429688 C 12.289062 6.457031 12.410156 6.46875 12.535156 6.46875 C 13.132812 6.46875 13.769531 6.289062 14.4375 5.933594 C 15.117188 5.574219 15.679688 5.125 16.125 4.582031 Z M 16.125 4.582031 "/>
</g>
</svg>
