<svg width="15" height="16" viewBox="0 0 15 16" fill="none" xmlns="http://www.w3.org/2000/svg">
<path d="M2.8125 12.4219C2.8125 12.7656 2.90625 13.0365 3.09375 13.2344C3.28125 13.4323 3.53906 13.5312 3.86719 13.5312H10.1406C10.4635 13.5312 10.7188 13.4323 10.9062 13.2344C11.0938 13.0365 11.1875 12.7656 11.1875 12.4219V4.32031C11.1875 3.98177 11.0911 3.71094 10.8984 3.50781C10.7057 3.30469 10.4531 3.20312 10.1406 3.20312H3.86719C3.54948 3.20312 3.29427 3.30469 3.10156 3.50781C2.90885 3.71094 2.8125 3.98177 2.8125 4.32031V12.4219ZM4.02344 15.8359H9.97656C10.7057 15.8359 11.3307 15.6927 11.8516 15.4062C12.3776 15.1198 12.7812 14.7109 13.0625 14.1797C13.3438 13.6484 13.4844 13.0104 13.4844 12.2656V4.47656C13.4844 3.73177 13.3438 3.09375 13.0625 2.5625C12.7812 2.03125 12.3776 1.625 11.8516 1.34375C11.3307 1.05729 10.7057 0.914062 9.97656 0.914062H4.02344C3.29427 0.914062 2.66667 1.05729 2.14062 1.34375C1.61979 1.625 1.21875 2.03125 0.9375 2.5625C0.65625 3.09375 0.515625 3.73177 0.515625 4.47656V12.2656C0.515625 13.0104 0.65625 13.6484 0.9375 14.1797C1.21875 14.7109 1.61979 15.1198 2.14062 15.4062C2.66667 15.6927 3.29427 15.8359 4.02344 15.8359ZM3.96875 14.5781C3.28125 14.5781 2.74219 14.3802 2.35156 13.9844C1.96615 13.5833 1.77344 13.0286 1.77344 12.3203V4.46094C1.77344 3.7526 1.96615 3.20052 2.35156 2.80469C2.74219 2.40885 3.28125 2.21094 3.96875 2.21094H10.0312C10.7188 2.21094 11.2552 2.40885 11.6406 2.80469C12.0312 3.20052 12.2266 3.7526 12.2266 4.46094V12.3203C12.2266 13.0286 12.0312 13.5833 11.6406 13.9844C11.2552 14.3802 10.7188 14.5781 10.0312 14.5781H3.96875ZM13.3438 7.55469H13.6953C13.9453 7.55469 14.1432 7.47656 14.2891 7.32031C14.4401 7.15885 14.5156 6.94271 14.5156 6.67188V5.36719C14.5156 5.09115 14.4401 4.8724 14.2891 4.71094C14.1432 4.54948 13.9453 4.46875 13.6953 4.46875H13.3438V7.55469Z" fill="white"/>
</svg>
