<svg width="126" height="126" viewBox="0 0 126 126" fill="none" xmlns="http://www.w3.org/2000/svg">
<path d="M34.375 48.875C34.3333 46.4583 35.1667 44.2708 36.875 42.3125C38.5833 40.3125 40.7292 39.25 43.3125 39.125C43.4375 40.6667 43.1042 42.2292 42.3125 43.8125C41.5625 45.3958 40.4792 46.6875 39.0625 47.6875C37.6875 48.6458 36.125 49.0417 34.375 48.875ZM52.1875 71.1875C51.7292 72.8542 50.9583 74.5833 49.875 76.375C48.8333 78.1667 47.625 79.7708 46.25 81.1875C45.7917 81.5625 45.25 81.8958 44.625 82.1875C44 82.4375 43.2917 82.5625 42.5 82.5625C41.75 82.5625 41.1042 82.4583 40.5625 82.25C40.0625 82 39.4792 81.7708 38.8125 81.5625C38.3958 81.4375 37.8958 81.2708 37.3125 81.0625C36.7708 80.8542 36.1458 80.75 35.4375 80.75C33.8542 80.75 32.5833 81.0833 31.625 81.75C30.6667 82.375 29.5208 82.6875 28.1875 82.6875C26.6875 82.6875 24.9583 81.6042 23 79.4375C21.1667 77.3958 19.6875 74.875 18.5625 71.875C17.4375 68.875 16.875 65.9583 16.875 63.125C16.875 61.4167 17.1042 59.7708 17.5625 58.1875C18.0625 56.5625 18.8542 55.0833 19.9375 53.75C21.8542 51.25 24.5208 50 27.9375 50C29.5208 50 30.8125 50.3333 31.8125 51C32.8542 51.6667 33.7917 52 34.625 52C35.625 52 36.75 51.6667 38 51C39.25 50.2917 40.8542 49.9375 42.8125 49.9375C46.4792 49.9375 49.25 51.3333 51.125 54.125C49.875 54.8333 48.9583 55.625 48.375 56.5C47.8333 57.3333 47.4375 58.125 47.1875 58.875C46.7708 59.9583 46.5417 61.125 46.5 62.375C46.4583 63.625 46.6875 64.8958 47.1875 66.1875C47.6875 67.3542 48.3333 68.3333 49.125 69.125C49.9167 69.9167 50.9375 70.6042 52.1875 71.1875ZM69.8125 42.3125V49.9375H76V55.0625H69.8125V73C69.8125 75.7083 71.1042 77.0625 73.6875 77.0625C74.0208 77.0625 74.4375 77.0625 74.9375 77.0625C75.4375 77.0208 75.75 76.9583 75.875 76.875V82.3125C75.5833 82.3542 75.0833 82.4167 74.375 82.5C73.7083 82.5417 73 82.5625 72.25 82.5625C68.9583 82.5625 66.6042 81.9167 65.1875 80.625C63.8125 79.2917 63.125 77 63.125 73.75V55.0625H58.5V49.9375H63.125V42.3125H69.8125ZM97.875 82.3125H90.875L79 49.9375H86.0625L94.4375 75.9375L102.312 49.9375H109.562L97.875 82.3125ZM34.25 125.125H92.375C97.7083 125.125 102.583 124.688 107 123.812C111.417 122.938 115.229 120.917 118.438 117.75C121.604 114.542 123.604 110.75 124.438 106.375C125.312 102 125.75 97.125 125.75 91.75V34.125C125.75 28.7917 125.312 23.9375 124.438 19.5625C123.604 15.1458 121.604 11.3542 118.438 8.1875C115.229 5.02083 111.417 3 107 2.125C102.583 1.25 97.7083 0.8125 92.375 0.8125H34.125C28.875 0.8125 24.0417 1.25 19.625 2.125C15.25 3 11.4583 5.02083 8.25 8.1875C5.08333 11.3958 3.0625 15.1875 2.1875 19.5625C1.35417 23.9375 0.9375 28.75 0.9375 34V91.75C0.9375 97.125 1.35417 102 2.1875 106.375C3.02083 110.75 5.04167 114.542 8.25 117.75C11.4583 120.917 15.25 122.938 19.625 123.812C24.0417 124.688 28.9167 125.125 34.25 125.125Z" fill="white"/>
</svg>
