<svg xmlns="http://www.w3.org/2000/svg" width="24" height="24"><path style="stroke:none;fill-rule:nonzero;fill:#fff;fill-opacity:1" d="M17.063 5.906c-.668 0-1.293.09-1.875.27-.57.18-1.094.36-1.567.539-.473.172-.883.258-1.234.258-.364 0-.77-.082-1.219-.246a26.32 26.32 0 0 0-1.445-.504 5.337 5.337 0 0 0-1.633-.246 6.869 6.869 0 0 0-3.176.785c-1.016.523-1.851 1.297-2.504 2.32-.652 1.023-.976 2.285-.976 3.785 0 .938.125 1.875.375 2.813.25.937.586 1.824 1.004 2.66.417.836.882 1.574 1.394 2.215.66.804 1.3 1.492 1.926 2.074.637.578 1.367.867 2.199.867.543 0 1.016-.078 1.418-.234.402-.157.824-.317 1.273-.48.454-.157 1.02-.235 1.7-.235.52 0 .953.047 1.3.14.348.094.665.2.95.317.297.125.601.234.925.328.32.094.707.137 1.165.137.597 0 1.132-.137 1.605-.418a5.46 5.46 0 0 0 1.328-1.067c.41-.437.809-.894 1.192-1.37.417-.54.757-1.055 1.019-1.548.266-.5.461-.906.586-1.218.125-.32.195-.496.203-.528-.2-.082-.394-.168-.59-.258-.355-.171-.77-.44-1.23-.808-.457-.367-.86-.852-1.207-1.442-.34-.593-.508-1.32-.508-2.18 0-.75.133-1.394.402-1.933.274-.547.598-.996.961-1.347.367-.36.696-.633.98-.82.294-.188.466-.294.509-.317-.446-.563-.934-1-1.461-1.313-.477-.293-1-.52-1.551-.68a7.283 7.283 0 0 0-1.367-.257c-.29-.031-.579-.05-.872-.059Zm-.938-1.898c.422-.446.762-.95 1.004-1.488a4.23 4.23 0 0 0 .39-1.758c0-.172-.015-.325-.042-.457-.668.023-1.372.199-2.102.527-.684.3-1.293.719-1.793 1.23a5.434 5.434 0 0 0-1.02 1.407 3.726 3.726 0 0 0-.44 1.734c0 .094.003.18.01.258.02.078.032.133.044.164.113.023.234.035.36.035.597 0 1.234-.156 1.902-.469a5.262 5.262 0 0 0 1.687-1.183Zm0 0"/></svg>