<svg width="10" height="18" viewBox="0 0 10 18" fill="none" xmlns="http://www.w3.org/2000/svg">
<path d="M0.789062 16.2812C0.789062 16.7969 0.947917 17.2057 1.26562 17.5078C1.58854 17.8151 2.02344 17.9688 2.57031 17.9688H7.42969C7.97656 17.9688 8.40885 17.8151 8.72656 17.5078C9.04948 17.2057 9.21094 16.7969 9.21094 16.2812V2.39844C9.21094 1.88802 9.04948 1.47917 8.72656 1.17188C8.40885 0.864583 7.97656 0.710938 7.42969 0.710938H2.57031C2.02344 0.710938 1.58854 0.864583 1.26562 1.17188C0.947917 1.47917 0.789062 1.88802 0.789062 2.39844V16.2812ZM1.94531 16.1172V2.5625C1.94531 2.34375 2.01302 2.17188 2.14844 2.04688C2.28385 1.91667 2.46875 1.85156 2.70312 1.85156H7.29688C7.53646 1.85156 7.72135 1.91667 7.85156 2.04688C7.98698 2.17188 8.05469 2.34375 8.05469 2.5625V16.1172C8.05469 16.3359 7.98698 16.5078 7.85156 16.6328C7.72135 16.763 7.53646 16.8281 7.29688 16.8281H2.70312C2.46875 16.8281 2.28385 16.763 2.14844 16.6328C2.01302 16.5078 1.94531 16.3359 1.94531 16.1172ZM5 8.1875C5.45312 8.1875 5.86458 8.07812 6.23438 7.85938C6.60938 7.63542 6.90885 7.33854 7.13281 6.96875C7.35677 6.59375 7.46875 6.17969 7.46875 5.72656C7.46875 5.27344 7.35677 4.85938 7.13281 4.48438C6.90885 4.10938 6.60938 3.8125 6.23438 3.59375C5.86458 3.36979 5.45312 3.25781 5 3.25781C4.54688 3.25781 4.13281 3.36979 3.75781 3.59375C3.38802 3.8125 3.09115 4.10938 2.86719 4.48438C2.64844 4.85938 2.53906 5.27344 2.53906 5.72656C2.53906 6.17969 2.64844 6.59375 2.86719 6.96875C3.09115 7.33854 3.38802 7.63542 3.75781 7.85938C4.13281 8.07812 4.54688 8.1875 5 8.1875ZM5 6.71875C4.72396 6.71875 4.48958 6.6224 4.29688 6.42969C4.10417 6.23698 4.00781 6.0026 4.00781 5.72656C4.00781 5.45052 4.10417 5.21615 4.29688 5.02344C4.48958 4.82552 4.72396 4.72656 5 4.72656C5.28125 4.72656 5.51823 4.82552 5.71094 5.02344C5.90365 5.21615 6 5.45052 6 5.72656C6 6.0026 5.90365 6.23698 5.71094 6.42969C5.51823 6.6224 5.28125 6.71875 5 6.71875ZM5 10.8516C5.25 10.8516 5.46354 10.763 5.64062 10.5859C5.82292 10.4089 5.91406 10.1953 5.91406 9.94531C5.91406 9.6901 5.82292 9.47396 5.64062 9.29688C5.46354 9.11979 5.25 9.03125 5 9.03125C4.75 9.03125 4.53385 9.11979 4.35156 9.29688C4.17448 9.47396 4.08594 9.6901 4.08594 9.94531C4.08594 10.1953 4.17448 10.4089 4.35156 10.5859C4.53385 10.763 4.75 10.8516 5 10.8516Z" fill="white"/>
</svg>
