<svg width="26" height="17" viewBox="0 0 26 17" fill="none" xmlns="http://www.w3.org/2000/svg">
<path d="M3.52344 13.7031C3.64844 13.5625 3.69531 13.4062 3.66406 13.2344C3.63802 13.0625 3.55469 12.8958 3.41406 12.7344C2.88802 12.151 2.48438 11.487 2.20312 10.7422C1.92188 9.99219 1.78125 9.19792 1.78125 8.35938C1.78125 7.51562 1.92188 6.72135 2.20312 5.97656C2.48438 5.23177 2.88802 4.56771 3.41406 3.98438C3.55469 3.82292 3.63802 3.65625 3.66406 3.48438C3.69531 3.3125 3.64844 3.15625 3.52344 3.01562C3.39844 2.86979 3.23958 2.79948 3.04688 2.80469C2.85938 2.80469 2.6901 2.88802 2.53906 3.05469C1.88802 3.75781 1.38542 4.5651 1.03125 5.47656C0.682292 6.38802 0.507812 7.34896 0.507812 8.35938C0.507812 9.36979 0.682292 10.3307 1.03125 11.2422C1.38542 12.1484 1.88802 12.9557 2.53906 13.6641C2.6901 13.8255 2.85938 13.9089 3.04688 13.9141C3.23958 13.9193 3.39844 13.849 3.52344 13.7031ZM5.71094 11.4766C5.83594 11.3359 5.88021 11.1823 5.84375 11.0156C5.8125 10.8438 5.73438 10.6745 5.60938 10.5078C5.375 10.2161 5.20052 9.88802 5.08594 9.52344C4.97135 9.15365 4.91406 8.76562 4.91406 8.35938C4.91406 7.95312 4.97135 7.56771 5.08594 7.20312C5.20052 6.83333 5.375 6.5026 5.60938 6.21094C5.73438 6.03906 5.8125 5.86979 5.84375 5.70312C5.88021 5.53646 5.83594 5.38281 5.71094 5.24219C5.58073 5.09635 5.41406 5.02604 5.21094 5.03125C5.01302 5.03125 4.84635 5.11979 4.71094 5.29688C4.3724 5.71875 4.10938 6.19271 3.92188 6.71875C3.73438 7.23958 3.64062 7.78646 3.64062 8.35938C3.64062 8.93229 3.73438 9.48177 3.92188 10.0078C4.10938 10.5286 4.3724 11 4.71094 11.4219C4.84635 11.599 5.01302 11.6901 5.21094 11.6953C5.41406 11.6953 5.58073 11.6224 5.71094 11.4766ZM22.4766 13.7031C22.6016 13.849 22.7604 13.9193 22.9531 13.9141C23.1458 13.9089 23.3177 13.8255 23.4688 13.6641C24.1146 12.9557 24.612 12.1484 24.9609 11.2422C25.3151 10.3307 25.4922 9.36979 25.4922 8.35938C25.4922 7.34896 25.3151 6.38802 24.9609 5.47656C24.612 4.5651 24.1146 3.75781 23.4688 3.05469C23.3177 2.88802 23.1458 2.80469 22.9531 2.80469C22.7604 2.79948 22.6016 2.86979 22.4766 3.01562C22.3516 3.15625 22.3021 3.3125 22.3281 3.48438C22.3594 3.65625 22.4453 3.82292 22.5859 3.98438C23.112 4.56771 23.5156 5.23177 23.7969 5.97656C24.0781 6.72135 24.2188 7.51562 24.2188 8.35938C24.2188 9.19792 24.0781 9.99219 23.7969 10.7422C23.5156 11.487 23.112 12.151 22.5859 12.7344C22.4453 12.8958 22.3594 13.0625 22.3281 13.2344C22.3021 13.4062 22.3516 13.5625 22.4766 13.7031ZM20.2891 11.4766C20.4193 11.6224 20.5833 11.6953 20.7812 11.6953C20.9844 11.6901 21.1536 11.599 21.2891 11.4219C21.6328 11 21.8984 10.5286 22.0859 10.0078C22.2734 9.48177 22.3672 8.93229 22.3672 8.35938C22.3672 7.78646 22.2734 7.23958 22.0859 6.71875C21.8984 6.19271 21.6328 5.71875 21.2891 5.29688C21.1536 5.11979 20.9844 5.03125 20.7812 5.03125C20.5833 5.02604 20.4193 5.09635 20.2891 5.24219C20.1641 5.38281 20.1172 5.53646 20.1484 5.70312C20.1849 5.86979 20.2656 6.03906 20.3906 6.21094C20.625 6.5026 20.7995 6.83333 20.9141 7.20312C21.0339 7.56771 21.0938 7.95312 21.0938 8.35938C21.0938 8.76562 21.0339 9.15365 20.9141 9.52344C20.7995 9.88802 20.625 10.2161 20.3906 10.5078C20.2656 10.6745 20.1849 10.8438 20.1484 11.0156C20.1172 11.1823 20.1641 11.3359 20.2891 11.4766ZM7.50781 11.5312C7.50781 12.1354 7.6224 12.6562 7.85156 13.0938C8.08594 13.5312 8.42448 13.8724 8.86719 14.1172C9.08073 14.2318 9.2526 14.3672 9.38281 14.5234C9.51823 14.6849 9.625 14.8958 9.70312 15.1562L9.95312 15.9922C10.099 16.487 10.4401 16.7344 10.9766 16.7344H14.5859C15.1172 16.7344 15.4557 16.487 15.6016 15.9922L15.8594 15.1562C15.9375 14.8958 16.0417 14.6849 16.1719 14.5234C16.3073 14.3672 16.4818 14.2318 16.6953 14.1172C17.138 13.8724 17.474 13.5312 17.7031 13.0938C17.9375 12.6562 18.0547 12.1354 18.0547 11.5312V5.21094C18.0547 4.60677 17.9375 4.08594 17.7031 3.64844C17.474 3.21094 17.138 2.86979 16.6953 2.625C16.4818 2.51042 16.3073 2.375 16.1719 2.21875C16.0417 2.05729 15.9375 1.84896 15.8594 1.59375L15.6016 0.75C15.4661 0.255208 15.1276 0.0078125 14.5859 0.0078125H10.9766C10.4401 0.0078125 10.099 0.255208 9.95312 0.75L9.70312 1.59375C9.63021 1.84896 9.52604 2.05729 9.39062 2.21875C9.26042 2.38021 9.08594 2.51562 8.86719 2.625C8.42969 2.85938 8.09375 3.19792 7.85938 3.64062C7.625 4.07812 7.50781 4.60156 7.50781 5.21094V11.5312ZM8.64844 11.3672V5.38281C8.64844 4.79948 8.80729 4.34375 9.125 4.01562C9.44792 3.68229 9.89583 3.51562 10.4688 3.51562H15.0938C15.6667 3.51562 16.112 3.68229 16.4297 4.01562C16.7526 4.34375 16.9141 4.79948 16.9141 5.38281V11.3672C16.9141 11.9453 16.7526 12.401 16.4297 12.7344C16.112 13.0625 15.6667 13.2266 15.0938 13.2266H10.4688C9.89583 13.2266 9.44792 13.0625 9.125 12.7344C8.80729 12.401 8.64844 11.9453 8.64844 11.3672ZM17.8828 7.82031H18.1641C18.3672 7.82031 18.5286 7.75781 18.6484 7.63281C18.7734 7.5026 18.8359 7.32552 18.8359 7.10156V6.04688C18.8359 5.82292 18.7734 5.64844 18.6484 5.52344C18.5286 5.39323 18.3672 5.32812 18.1641 5.32812H17.8828V7.82031Z" fill="white"/>
</svg>
