<svg width="8" height="18" viewBox="0 0 8 18" fill="none" xmlns="http://www.w3.org/2000/svg">
<path d="M0.078125 16.2812C0.078125 16.7969 0.236979 17.2057 0.554688 17.5078C0.877604 17.8151 1.3125 17.9688 1.85938 17.9688H6.14062C6.68229 17.9688 7.11458 17.8151 7.4375 17.5078C7.76042 17.2057 7.92188 16.7969 7.92188 16.2812V2.39844C7.92188 1.88802 7.76042 1.47917 7.4375 1.17188C7.11458 0.864583 6.68229 0.710938 6.14062 0.710938H1.85938C1.3125 0.710938 0.877604 0.864583 0.554688 1.17188C0.236979 1.47917 0.078125 1.88802 0.078125 2.39844V16.2812ZM1.23438 16.1172V2.5625C1.23438 2.34375 1.30208 2.17188 1.4375 2.04688C1.57292 1.91667 1.75781 1.85156 1.99219 1.85156H6.00781C6.24219 1.85156 6.42708 1.91667 6.5625 2.04688C6.69792 2.17188 6.76562 2.34375 6.76562 2.5625V16.1172C6.76562 16.3359 6.69792 16.5078 6.5625 16.6328C6.42708 16.763 6.24219 16.8281 6.00781 16.8281H1.99219C1.75781 16.8281 1.57292 16.763 1.4375 16.6328C1.30208 16.5078 1.23438 16.3359 1.23438 16.1172ZM2.74219 9.97656C2.99219 9.97656 3.20573 9.88802 3.38281 9.71094C3.5651 9.52865 3.65625 9.3125 3.65625 9.0625C3.65625 8.8125 3.5651 8.59896 3.38281 8.42188C3.20573 8.23958 2.99219 8.14844 2.74219 8.14844C2.49219 8.14844 2.27604 8.23958 2.09375 8.42188C1.91667 8.59896 1.82812 8.8125 1.82812 9.0625C1.82812 9.3125 1.91667 9.52865 2.09375 9.71094C2.27604 9.88802 2.49219 9.97656 2.74219 9.97656ZM5.25781 9.97656C5.50781 9.97656 5.72135 9.88802 5.89844 9.71094C6.08073 9.52865 6.17188 9.3125 6.17188 9.0625C6.17188 8.8125 6.08073 8.59896 5.89844 8.42188C5.72135 8.23958 5.50781 8.14844 5.25781 8.14844C5.00781 8.14844 4.79167 8.23958 4.60938 8.42188C4.43229 8.59896 4.34375 8.8125 4.34375 9.0625C4.34375 9.3125 4.43229 9.52865 4.60938 9.71094C4.79167 9.88802 5.00781 9.97656 5.25781 9.97656ZM4 7.17188C4.40104 7.17188 4.76562 7.07552 5.09375 6.88281C5.42188 6.6849 5.68229 6.42188 5.875 6.09375C6.07292 5.76562 6.17188 5.40104 6.17188 5C6.17188 4.59896 6.07292 4.23438 5.875 3.90625C5.68229 3.57812 5.42188 3.31771 5.09375 3.125C4.76562 2.92708 4.40104 2.82812 4 2.82812C3.59896 2.82812 3.23438 2.92708 2.90625 3.125C2.57812 3.31771 2.3151 3.57812 2.11719 3.90625C1.92448 4.23438 1.82812 4.59896 1.82812 5C1.82812 5.40104 1.92448 5.76562 2.11719 6.09375C2.3151 6.42188 2.57812 6.6849 2.90625 6.88281C3.23438 7.07552 3.59896 7.17188 4 7.17188ZM4 5.875C3.76042 5.875 3.55469 5.78906 3.38281 5.61719C3.21094 5.44531 3.125 5.23958 3.125 5C3.125 4.76042 3.21094 4.55469 3.38281 4.38281C3.55469 4.21094 3.76042 4.125 4 4.125C4.24479 4.125 4.45052 4.21094 4.61719 4.38281C4.78906 4.55469 4.875 4.76042 4.875 5C4.875 5.23958 4.78906 5.44531 4.61719 5.61719C4.45052 5.78906 4.24479 5.875 4 5.875Z" fill="white"/>
</svg>
