<svg width="102" height="125" viewBox="0 0 102 125" fill="none" xmlns="http://www.w3.org/2000/svg">
<path d="M73.5 30.5C70.375 30.5 67.4583 30.9792 64.75 31.9375C62.0833 32.8958 59.6458 33.8542 57.4375 34.8125C55.2292 35.7292 53.3125 36.1875 51.6875 36.1875C49.9792 36.1875 48.0833 35.75 46 34.875C43.9167 33.9583 41.6667 33.0625 39.25 32.1875C36.875 31.3125 34.3333 30.875 31.625 30.875C26.5 30.875 21.5625 32.2708 16.8125 35.0625C12.0625 37.8542 8.16667 41.9792 5.125 47.4375C2.08333 52.8958 0.5625 59.625 0.5625 67.625C0.5625 72.625 1.14583 77.625 2.3125 82.625C3.47917 87.625 5.04167 92.3542 7 96.8125C8.95833 101.271 11.125 105.208 13.5 108.625C16.5833 112.917 19.5833 116.604 22.5 119.688C25.4583 122.771 28.875 124.312 32.75 124.312C35.2917 124.312 37.5 123.896 39.375 123.062C41.25 122.229 43.2292 121.375 45.3125 120.5C47.4375 119.667 50.0833 119.25 53.25 119.25C55.6667 119.25 57.6875 119.5 59.3125 120C60.9375 120.5 62.4167 121.062 63.75 121.688C65.125 122.354 66.5625 122.938 68.0625 123.438C69.5625 123.938 71.375 124.188 73.5 124.188C76.2917 124.188 78.7917 123.438 81 121.938C83.25 120.479 85.3125 118.583 87.1875 116.25C89.1042 113.917 90.9583 111.479 92.75 108.938C94.7083 106.062 96.2917 103.312 97.5 100.688C98.75 98.0208 99.6667 95.8542 100.25 94.1875C100.833 92.4792 101.146 91.5417 101.188 91.375C101.062 91.3333 100.146 90.875 98.4375 90C96.7708 89.0833 94.8542 87.6458 92.6875 85.6875C90.5625 83.7292 88.6875 81.1667 87.0625 78C85.4792 74.8333 84.6875 70.9583 84.6875 66.375C84.6875 62.375 85.3125 58.9375 86.5625 56.0625C87.8542 53.1458 89.3542 50.75 91.0625 48.875C92.7708 46.9583 94.2917 45.5 95.625 44.5C97 43.5 97.7917 42.9375 98 42.8125C95.9167 39.8125 93.6458 37.4792 91.1875 35.8125C88.7292 34.1458 86.3125 32.9375 83.9375 32.1875C81.5625 31.4375 79.4375 30.9792 77.5625 30.8125C75.7292 30.6042 74.375 30.5 73.5 30.5ZM69.125 20.375C71.0417 18.0833 72.6042 15.4375 73.8125 12.4375C75.0208 9.39583 75.625 6.27083 75.625 3.0625C75.625 2.14583 75.5625 1.33333 75.4375 0.625C72.3125 0.75 69.0417 1.6875 65.625 3.4375C62.25 5.1875 59.4583 7.375 57.25 10C55.4583 12 53.875 14.5 52.5 17.5C51.125 20.5 50.4375 23.5833 50.4375 26.75C50.4375 27.25 50.4583 27.7083 50.5 28.125C50.5833 28.5417 50.6458 28.8333 50.6875 29C51.2292 29.125 51.7917 29.1875 52.375 29.1875C55.1667 29.1875 58.125 28.3542 61.25 26.6875C64.4167 25.0208 67.0417 22.9167 69.125 20.375Z" fill="white"/>
</svg>
