<svg width="100" height="100" viewBox="0 0 100 100" fill="none" xmlns="http://www.w3.org/2000/svg">
<path d="M0.625 96.75C0.291667 97.375 0.25 97.9167 0.5 98.375C0.75 98.875 1.125 99.2292 1.625 99.4375C2.125 99.6875 2.625 99.6667 3.125 99.375L12.5 94.5L5.6875 87.6875L0.625 96.75ZM8.5625 82.4375L17.875 91.75L21.5625 89.8125L97.625 14.125C99.1667 12.5833 99.9375 10.75 99.9375 8.625C99.9375 6.45833 99.1667 4.625 97.625 3.125C96.125 1.625 94.2917 0.875 92.125 0.875C90 0.875 88.1875 1.60417 86.6875 3.0625L10.5625 78.8125L8.5625 82.4375Z" fill="white"/>
</svg>
