<svg width="14" height="16" viewBox="0 0 14 16" fill="none" xmlns="http://www.w3.org/2000/svg">
<path d="M9.95312 3.9375C9.5625 3.9375 9.19792 3.9974 8.85938 4.11719C8.52604 4.23698 8.22135 4.35677 7.94531 4.47656C7.66927 4.59115 7.42969 4.64844 7.22656 4.64844C7.01302 4.64844 6.77604 4.59375 6.51562 4.48438C6.25521 4.36979 5.97396 4.25781 5.67188 4.14844C5.375 4.03906 5.05729 3.98438 4.71875 3.98438C4.07812 3.98438 3.46094 4.15885 2.86719 4.50781C2.27344 4.85677 1.78646 5.3724 1.40625 6.05469C1.02604 6.73698 0.835938 7.57812 0.835938 8.57812C0.835938 9.20312 0.908854 9.82812 1.05469 10.4531C1.20052 11.0781 1.39583 11.6693 1.64062 12.2266C1.88542 12.7839 2.15625 13.276 2.45312 13.7031C2.83854 14.2396 3.21354 14.7005 3.57812 15.0859C3.94792 15.4714 4.375 15.6641 4.85938 15.6641C5.17708 15.6641 5.45312 15.612 5.6875 15.5078C5.92188 15.4036 6.16927 15.2969 6.42969 15.1875C6.69531 15.0833 7.02604 15.0312 7.42188 15.0312C7.72396 15.0312 7.97656 15.0625 8.17969 15.125C8.38281 15.1875 8.56771 15.2578 8.73438 15.3359C8.90625 15.4193 9.08594 15.4922 9.27344 15.5547C9.46094 15.6172 9.6875 15.6484 9.95312 15.6484C10.3021 15.6484 10.6146 15.5547 10.8906 15.3672C11.1719 15.1849 11.4297 14.9479 11.6641 14.6562C11.9036 14.3646 12.1354 14.0599 12.3594 13.7422C12.6042 13.3828 12.8021 13.0391 12.9531 12.7109C13.1094 12.3776 13.224 12.1068 13.2969 11.8984C13.3698 11.6849 13.4089 11.5677 13.4141 11.5469C13.3984 11.5417 13.2839 11.4844 13.0703 11.375C12.862 11.2604 12.6224 11.0807 12.3516 10.8359C12.0859 10.5911 11.8516 10.2708 11.6484 9.875C11.4505 9.47917 11.3516 8.99479 11.3516 8.42188C11.3516 7.92188 11.4297 7.49219 11.5859 7.13281C11.7474 6.76823 11.9349 6.46875 12.1484 6.23438C12.362 5.99479 12.5521 5.8125 12.7188 5.6875C12.8906 5.5625 12.9896 5.49219 13.0156 5.47656C12.7552 5.10156 12.4714 4.8099 12.1641 4.60156C11.8568 4.39323 11.5547 4.24219 11.2578 4.14844C10.9609 4.05469 10.6953 3.9974 10.4609 3.97656C10.2318 3.95052 10.0625 3.9375 9.95312 3.9375ZM9.40625 2.67188C9.64583 2.38542 9.84115 2.05469 9.99219 1.67969C10.1432 1.29948 10.2188 0.908854 10.2188 0.507812C10.2188 0.393229 10.2109 0.291667 10.1953 0.203125C9.80469 0.21875 9.39583 0.335938 8.96875 0.554688C8.54688 0.773438 8.19792 1.04688 7.92188 1.375C7.69792 1.625 7.5 1.9375 7.32812 2.3125C7.15625 2.6875 7.07031 3.07292 7.07031 3.46875C7.07031 3.53125 7.07292 3.58854 7.07812 3.64062C7.08854 3.69271 7.09635 3.72917 7.10156 3.75C7.16927 3.76562 7.23958 3.77344 7.3125 3.77344C7.66146 3.77344 8.03125 3.66927 8.42188 3.46094C8.81771 3.2526 9.14583 2.98958 9.40625 2.67188Z" fill="white"/>
</svg>
