<?xml version="1.0" encoding="UTF-8"?>
<svg xmlns="http://www.w3.org/2000/svg" xmlns:xlink="http://www.w3.org/1999/xlink" width="24" height="32.571429" viewBox="0 0 24 32.571429" version="1.1">
<g id="surface1">
<path style=" stroke:none;fill-rule:nonzero;fill:rgb(100%,100%,100%);fill-opacity:1;" d="M 4.511719 31.125 L 19.472656 31.125 C 20.582031 31.125 21.472656 30.800781 22.152344 30.148438 C 22.839844 29.496094 23.183594 28.644531 23.183594 27.589844 L 23.183594 4.5 C 23.183594 3.4375 22.839844 2.582031 22.152344 1.929688 C 21.472656 1.277344 20.582031 0.949219 19.472656 0.949219 L 4.511719 0.949219 C 3.40625 0.949219 2.507812 1.277344 1.820312 1.929688 C 1.144531 2.582031 0.804688 3.4375 0.804688 4.5 L 0.804688 27.589844 C 0.804688 28.644531 1.144531 29.496094 1.820312 30.148438 C 2.507812 30.800781 3.40625 31.125 4.511719 31.125 Z M 4.78125 28.96875 C 4.210938 28.96875 3.761719 28.8125 3.441406 28.5 C 3.121094 28.195312 2.960938 27.773438 2.960938 27.226562 L 2.960938 4.863281 C 2.960938 4.308594 3.121094 3.878906 3.441406 3.574219 C 3.761719 3.261719 4.210938 3.105469 4.78125 3.105469 L 19.207031 3.105469 C 19.777344 3.105469 20.222656 3.261719 20.542969 3.574219 C 20.867188 3.878906 21.027344 4.308594 21.027344 4.863281 L 21.027344 27.226562 C 21.027344 27.773438 20.867188 28.195312 20.542969 28.5 C 20.222656 28.8125 19.777344 28.96875 19.207031 28.96875 Z M 5.894531 7.902344 L 7.058594 7.902344 C 7.238281 7.902344 7.382812 7.847656 7.5 7.742188 C 7.625 7.632812 7.6875 7.5 7.6875 7.339844 L 7.6875 6.121094 C 7.6875 5.949219 7.625 5.8125 7.5 5.707031 C 7.382812 5.597656 7.238281 5.542969 7.058594 5.542969 L 5.894531 5.542969 C 5.730469 5.542969 5.597656 5.601562 5.492188 5.71875 C 5.382812 5.824219 5.332031 5.960938 5.332031 6.121094 L 5.332031 7.339844 C 5.332031 7.492188 5.382812 7.625 5.492188 7.742188 C 5.597656 7.847656 5.730469 7.902344 5.894531 7.902344 Z M 9.574219 7.902344 L 10.742188 7.902344 C 10.917969 7.902344 11.0625 7.847656 11.167969 7.742188 C 11.285156 7.632812 11.34375 7.5 11.34375 7.339844 L 11.34375 6.121094 C 11.34375 5.949219 11.285156 5.8125 11.167969 5.707031 C 11.0625 5.597656 10.917969 5.542969 10.742188 5.542969 L 9.574219 5.542969 C 9.414062 5.542969 9.277344 5.601562 9.160156 5.71875 C 9.054688 5.824219 9 5.960938 9 6.121094 L 9 7.339844 C 9 7.492188 9.054688 7.625 9.160156 7.742188 C 9.277344 7.847656 9.414062 7.902344 9.574219 7.902344 Z M 13.230469 7.902344 L 14.410156 7.902344 C 14.582031 7.902344 14.722656 7.847656 14.839844 7.742188 C 14.964844 7.632812 15.027344 7.5 15.027344 7.339844 L 15.027344 6.121094 C 15.027344 5.949219 14.964844 5.8125 14.839844 5.707031 C 14.722656 5.597656 14.582031 5.542969 14.410156 5.542969 L 13.230469 5.542969 C 13.070312 5.542969 12.9375 5.601562 12.832031 5.71875 C 12.722656 5.824219 12.667969 5.960938 12.667969 6.121094 L 12.667969 7.339844 C 12.667969 7.492188 12.722656 7.625 12.832031 7.742188 C 12.9375 7.847656 13.070312 7.902344 13.230469 7.902344 Z M 16.902344 7.902344 L 18.082031 7.902344 C 18.257812 7.902344 18.402344 7.847656 18.507812 7.742188 C 18.625 7.632812 18.683594 7.5 18.683594 7.339844 L 18.683594 6.121094 C 18.683594 5.949219 18.625 5.8125 18.507812 5.707031 C 18.402344 5.597656 18.257812 5.542969 18.082031 5.542969 L 16.902344 5.542969 C 16.742188 5.542969 16.605469 5.601562 16.5 5.71875 C 16.394531 5.824219 16.339844 5.960938 16.339844 6.121094 L 16.339844 7.339844 C 16.339844 7.492188 16.394531 7.625 16.5 7.742188 C 16.605469 7.847656 16.742188 7.902344 16.902344 7.902344 Z M 5.894531 11.519531 L 7.058594 11.519531 C 7.238281 11.519531 7.382812 11.464844 7.5 11.355469 C 7.625 11.242188 7.6875 11.097656 7.6875 10.929688 L 7.6875 9.722656 C 7.6875 9.5625 7.625 9.429688 7.5 9.320312 C 7.382812 9.214844 7.238281 9.160156 7.058594 9.160156 L 5.894531 9.160156 C 5.730469 9.160156 5.597656 9.214844 5.492188 9.320312 C 5.382812 9.429688 5.332031 9.5625 5.332031 9.722656 L 5.332031 10.929688 C 5.332031 11.097656 5.382812 11.242188 5.492188 11.355469 C 5.597656 11.464844 5.730469 11.519531 5.894531 11.519531 Z M 9.574219 11.519531 L 10.742188 11.519531 C 10.917969 11.519531 11.0625 11.464844 11.167969 11.355469 C 11.285156 11.242188 11.34375 11.097656 11.34375 10.929688 L 11.34375 9.722656 C 11.34375 9.5625 11.285156 9.429688 11.167969 9.320312 C 11.0625 9.214844 10.917969 9.160156 10.742188 9.160156 L 9.574219 9.160156 C 9.414062 9.160156 9.277344 9.214844 9.160156 9.320312 C 9.042969 9.429688 8.988281 9.5625 8.988281 9.722656 L 8.988281 10.929688 C 8.988281 11.097656 9.042969 11.242188 9.160156 11.355469 C 9.277344 11.464844 9.414062 11.519531 9.574219 11.519531 Z M 13.230469 11.519531 L 14.410156 11.519531 C 14.582031 11.519531 14.722656 11.464844 14.839844 11.355469 C 14.964844 11.242188 15.027344 11.101562 15.027344 10.941406 L 15.027344 9.722656 C 15.027344 9.5625 14.964844 9.429688 14.839844 9.320312 C 14.722656 9.214844 14.582031 9.160156 14.410156 9.160156 L 13.230469 9.160156 C 13.070312 9.160156 12.9375 9.214844 12.832031 9.320312 C 12.722656 9.429688 12.667969 9.5625 12.667969 9.722656 L 12.667969 10.941406 C 12.667969 11.101562 12.722656 11.242188 12.832031 11.355469 C 12.9375 11.464844 13.070312 11.519531 13.230469 11.519531 Z M 16.902344 11.519531 L 18.082031 11.519531 C 18.257812 11.519531 18.402344 11.464844 18.507812 11.355469 C 18.625 11.242188 18.683594 11.101562 18.683594 10.941406 L 18.683594 9.722656 C 18.683594 9.5625 18.625 9.429688 18.507812 9.320312 C 18.402344 9.214844 18.257812 9.160156 18.082031 9.160156 L 16.902344 9.160156 C 16.742188 9.160156 16.605469 9.214844 16.5 9.320312 C 16.394531 9.429688 16.339844 9.5625 16.339844 9.722656 L 16.339844 10.941406 C 16.339844 11.101562 16.394531 11.242188 16.5 11.355469 C 16.605469 11.464844 16.742188 11.519531 16.902344 11.519531 Z M 5.894531 15.121094 L 7.058594 15.121094 C 7.238281 15.121094 7.382812 15.066406 7.5 14.960938 C 7.625 14.851562 7.6875 14.71875 7.6875 14.558594 L 7.6875 13.351562 C 7.6875 13.183594 7.625 13.042969 7.5 12.9375 C 7.382812 12.820312 7.238281 12.761719 7.058594 12.761719 L 5.894531 12.761719 C 5.730469 12.761719 5.597656 12.820312 5.492188 12.9375 C 5.382812 13.042969 5.332031 13.183594 5.332031 13.351562 L 5.332031 14.558594 C 5.332031 14.71875 5.382812 14.851562 5.492188 14.960938 C 5.597656 15.066406 5.730469 15.121094 5.894531 15.121094 Z M 9.574219 15.121094 L 10.742188 15.121094 C 10.917969 15.121094 11.0625 15.066406 11.167969 14.960938 C 11.285156 14.851562 11.34375 14.71875 11.34375 14.558594 L 11.34375 13.351562 C 11.34375 13.183594 11.285156 13.042969 11.167969 12.9375 C 11.0625 12.820312 10.917969 12.761719 10.742188 12.761719 L 9.574219 12.761719 C 9.414062 12.761719 9.277344 12.820312 9.160156 12.9375 C 9.042969 13.042969 8.988281 13.183594 8.988281 13.351562 L 8.988281 14.558594 C 8.988281 14.71875 9.042969 14.851562 9.160156 14.960938 C 9.277344 15.066406 9.414062 15.121094 9.574219 15.121094 Z M 5.894531 26.53125 L 7.058594 26.53125 C 7.238281 26.53125 7.382812 26.476562 7.5 26.371094 C 7.625 26.273438 7.6875 26.136719 7.6875 25.96875 L 7.6875 24.75 C 7.6875 24.589844 7.625 24.457031 7.5 24.347656 C 7.382812 24.242188 7.238281 24.1875 7.058594 24.1875 L 5.894531 24.1875 C 5.730469 24.1875 5.597656 24.242188 5.492188 24.347656 C 5.382812 24.457031 5.332031 24.589844 5.332031 24.75 L 5.332031 25.96875 C 5.332031 26.128906 5.382812 26.261719 5.492188 26.371094 C 5.597656 26.476562 5.730469 26.53125 5.894531 26.53125 Z M 9.574219 26.53125 L 10.742188 26.53125 C 10.917969 26.53125 11.0625 26.476562 11.167969 26.371094 C 11.285156 26.273438 11.34375 26.136719 11.34375 25.96875 L 11.34375 24.75 C 11.34375 24.589844 11.285156 24.457031 11.167969 24.347656 C 11.0625 24.242188 10.917969 24.1875 10.742188 24.1875 L 9.574219 24.1875 C 9.414062 24.1875 9.277344 24.242188 9.160156 24.347656 C 9.042969 24.457031 8.988281 24.589844 8.988281 24.75 L 8.988281 25.96875 C 8.988281 26.128906 9.042969 26.261719 9.160156 26.371094 C 9.277344 26.476562 9.414062 26.53125 9.574219 26.53125 Z M 13.230469 26.53125 L 14.425781 26.53125 C 14.59375 26.53125 14.738281 26.476562 14.851562 26.371094 C 14.96875 26.273438 15.027344 26.136719 15.027344 25.96875 L 15.027344 24.75 C 15.027344 24.589844 14.96875 24.457031 14.851562 24.347656 C 14.738281 24.242188 14.59375 24.1875 14.425781 24.1875 L 13.230469 24.1875 C 13.070312 24.1875 12.9375 24.242188 12.832031 24.347656 C 12.722656 24.457031 12.667969 24.589844 12.667969 24.75 L 12.667969 25.96875 C 12.667969 26.128906 12.722656 26.261719 12.832031 26.371094 C 12.9375 26.476562 13.070312 26.53125 13.230469 26.53125 Z M 16.902344 26.53125 L 18.082031 26.53125 C 18.257812 26.53125 18.402344 26.476562 18.507812 26.371094 C 18.625 26.273438 18.683594 26.136719 18.683594 25.96875 L 18.683594 24.75 C 18.683594 24.589844 18.625 24.457031 18.507812 24.347656 C 18.402344 24.242188 18.257812 24.1875 18.082031 24.1875 L 16.902344 24.1875 C 16.742188 24.1875 16.605469 24.242188 16.5 24.347656 C 16.402344 24.457031 16.351562 24.589844 16.351562 24.75 L 16.351562 25.96875 C 16.351562 26.128906 16.402344 26.261719 16.5 26.371094 C 16.605469 26.476562 16.742188 26.53125 16.902344 26.53125 Z M 16.902344 26.53125 "/>
</g>
</svg>
