<svg width="14" height="19" viewBox="0 0 14 19" fill="none" xmlns="http://www.w3.org/2000/svg">
<path d="M2.63281 18.1562H11.3594C12.0052 18.1562 12.526 17.9661 12.9219 17.5859C13.3229 17.2057 13.5234 16.7083 13.5234 16.0938V2.625C13.5234 2.00521 13.3229 1.50521 12.9219 1.125C12.526 0.744792 12.0052 0.554688 11.3594 0.554688H2.63281C1.98698 0.554688 1.46354 0.744792 1.0625 1.125C0.666667 1.50521 0.46875 2.00521 0.46875 2.625V16.0938C0.46875 16.7083 0.666667 17.2057 1.0625 17.5859C1.46354 17.9661 1.98698 18.1562 2.63281 18.1562ZM2.78906 16.8984C2.45573 16.8984 2.19531 16.8073 2.00781 16.625C1.82031 16.4479 1.72656 16.2005 1.72656 15.8828V2.83594C1.72656 2.51302 1.82031 2.26302 2.00781 2.08594C2.19531 1.90365 2.45573 1.8125 2.78906 1.8125H11.2031C11.5365 1.8125 11.7969 1.90365 11.9844 2.08594C12.1719 2.26302 12.2656 2.51302 12.2656 2.83594V15.8828C12.2656 16.2005 12.1719 16.4479 11.9844 16.625C11.7969 16.8073 11.5365 16.8984 11.2031 16.8984H2.78906ZM3.4375 4.60938H4.11719C4.22135 4.60938 4.30729 4.57812 4.375 4.51562C4.44792 4.45312 4.48438 4.375 4.48438 4.28125V3.57031C4.48438 3.47135 4.44792 3.39062 4.375 3.32812C4.30729 3.26562 4.22135 3.23438 4.11719 3.23438H3.4375C3.34375 3.23438 3.26562 3.26823 3.20312 3.33594C3.14062 3.39844 3.10938 3.47656 3.10938 3.57031V4.28125C3.10938 4.36979 3.14062 4.44792 3.20312 4.51562C3.26562 4.57812 3.34375 4.60938 3.4375 4.60938ZM5.58594 4.60938H6.26562C6.36979 4.60938 6.45312 4.57812 6.51562 4.51562C6.58333 4.45312 6.61719 4.375 6.61719 4.28125V3.57031C6.61719 3.47135 6.58333 3.39062 6.51562 3.32812C6.45312 3.26562 6.36979 3.23438 6.26562 3.23438H5.58594C5.49219 3.23438 5.41146 3.26823 5.34375 3.33594C5.28125 3.39844 5.25 3.47656 5.25 3.57031V4.28125C5.25 4.36979 5.28125 4.44792 5.34375 4.51562C5.41146 4.57812 5.49219 4.60938 5.58594 4.60938ZM7.71875 4.60938H8.40625C8.50521 4.60938 8.58854 4.57812 8.65625 4.51562C8.72917 4.45312 8.76562 4.375 8.76562 4.28125V3.57031C8.76562 3.47135 8.72917 3.39062 8.65625 3.32812C8.58854 3.26562 8.50521 3.23438 8.40625 3.23438H7.71875C7.625 3.23438 7.54688 3.26823 7.48438 3.33594C7.42188 3.39844 7.39062 3.47656 7.39062 3.57031V4.28125C7.39062 4.36979 7.42188 4.44792 7.48438 4.51562C7.54688 4.57812 7.625 4.60938 7.71875 4.60938ZM9.85938 4.60938H10.5469C10.651 4.60938 10.7344 4.57812 10.7969 4.51562C10.8646 4.45312 10.8984 4.375 10.8984 4.28125V3.57031C10.8984 3.47135 10.8646 3.39062 10.7969 3.32812C10.7344 3.26562 10.651 3.23438 10.5469 3.23438H9.85938C9.76562 3.23438 9.6875 3.26823 9.625 3.33594C9.5625 3.39844 9.53125 3.47656 9.53125 3.57031V4.28125C9.53125 4.36979 9.5625 4.44792 9.625 4.51562C9.6875 4.57812 9.76562 4.60938 9.85938 4.60938ZM3.4375 6.71875H4.11719C4.22135 6.71875 4.30729 6.6875 4.375 6.625C4.44792 6.55729 4.48438 6.47396 4.48438 6.375V5.67188C4.48438 5.57812 4.44792 5.5 4.375 5.4375C4.30729 5.375 4.22135 5.34375 4.11719 5.34375H3.4375C3.34375 5.34375 3.26562 5.375 3.20312 5.4375C3.14062 5.5 3.10938 5.57812 3.10938 5.67188V6.375C3.10938 6.47396 3.14062 6.55729 3.20312 6.625C3.26562 6.6875 3.34375 6.71875 3.4375 6.71875ZM5.58594 6.71875H6.26562C6.36979 6.71875 6.45312 6.6875 6.51562 6.625C6.58333 6.55729 6.61719 6.47396 6.61719 6.375V5.67188C6.61719 5.57812 6.58333 5.5 6.51562 5.4375C6.45312 5.375 6.36979 5.34375 6.26562 5.34375H5.58594C5.49219 5.34375 5.41146 5.375 5.34375 5.4375C5.27604 5.5 5.24219 5.57812 5.24219 5.67188V6.375C5.24219 6.47396 5.27604 6.55729 5.34375 6.625C5.41146 6.6875 5.49219 6.71875 5.58594 6.71875ZM7.71875 6.71875H8.40625C8.50521 6.71875 8.58854 6.6875 8.65625 6.625C8.72917 6.55729 8.76562 6.47656 8.76562 6.38281V5.67188C8.76562 5.57812 8.72917 5.5 8.65625 5.4375C8.58854 5.375 8.50521 5.34375 8.40625 5.34375H7.71875C7.625 5.34375 7.54688 5.375 7.48438 5.4375C7.42188 5.5 7.39062 5.57812 7.39062 5.67188V6.38281C7.39062 6.47656 7.42188 6.55729 7.48438 6.625C7.54688 6.6875 7.625 6.71875 7.71875 6.71875ZM9.85938 6.71875H10.5469C10.651 6.71875 10.7344 6.6875 10.7969 6.625C10.8646 6.55729 10.8984 6.47656 10.8984 6.38281V5.67188C10.8984 5.57812 10.8646 5.5 10.7969 5.4375C10.7344 5.375 10.651 5.34375 10.5469 5.34375H9.85938C9.76562 5.34375 9.6875 5.375 9.625 5.4375C9.5625 5.5 9.53125 5.57812 9.53125 5.67188V6.38281C9.53125 6.47656 9.5625 6.55729 9.625 6.625C9.6875 6.6875 9.76562 6.71875 9.85938 6.71875ZM3.4375 8.82031H4.11719C4.22135 8.82031 4.30729 8.78906 4.375 8.72656C4.44792 8.66406 4.48438 8.58594 4.48438 8.49219V7.78906C4.48438 7.6901 4.44792 7.60938 4.375 7.54688C4.30729 7.47917 4.22135 7.44531 4.11719 7.44531H3.4375C3.34375 7.44531 3.26562 7.47917 3.20312 7.54688C3.14062 7.60938 3.10938 7.6901 3.10938 7.78906V8.49219C3.10938 8.58594 3.14062 8.66406 3.20312 8.72656C3.26562 8.78906 3.34375 8.82031 3.4375 8.82031ZM5.58594 8.82031H6.26562C6.36979 8.82031 6.45312 8.78906 6.51562 8.72656C6.58333 8.66406 6.61719 8.58594 6.61719 8.49219V7.78906C6.61719 7.6901 6.58333 7.60938 6.51562 7.54688C6.45312 7.47917 6.36979 7.44531 6.26562 7.44531H5.58594C5.49219 7.44531 5.41146 7.47917 5.34375 7.54688C5.27604 7.60938 5.24219 7.6901 5.24219 7.78906V8.49219C5.24219 8.58594 5.27604 8.66406 5.34375 8.72656C5.41146 8.78906 5.49219 8.82031 5.58594 8.82031ZM3.4375 15.4766H4.11719C4.22135 15.4766 4.30729 15.4453 4.375 15.3828C4.44792 15.3255 4.48438 15.2474 4.48438 15.1484V14.4375C4.48438 14.3438 4.44792 14.2656 4.375 14.2031C4.30729 14.1406 4.22135 14.1094 4.11719 14.1094H3.4375C3.34375 14.1094 3.26562 14.1406 3.20312 14.2031C3.14062 14.2656 3.10938 14.3438 3.10938 14.4375V15.1484C3.10938 15.2422 3.14062 15.3203 3.20312 15.3828C3.26562 15.4453 3.34375 15.4766 3.4375 15.4766ZM5.58594 15.4766H6.26562C6.36979 15.4766 6.45312 15.4453 6.51562 15.3828C6.58333 15.3255 6.61719 15.2474 6.61719 15.1484V14.4375C6.61719 14.3438 6.58333 14.2656 6.51562 14.2031C6.45312 14.1406 6.36979 14.1094 6.26562 14.1094H5.58594C5.49219 14.1094 5.41146 14.1406 5.34375 14.2031C5.27604 14.2656 5.24219 14.3438 5.24219 14.4375V15.1484C5.24219 15.2422 5.27604 15.3203 5.34375 15.3828C5.41146 15.4453 5.49219 15.4766 5.58594 15.4766ZM7.71875 15.4766H8.41406C8.51302 15.4766 8.59635 15.4453 8.66406 15.3828C8.73177 15.3255 8.76562 15.2474 8.76562 15.1484V14.4375C8.76562 14.3438 8.73177 14.2656 8.66406 14.2031C8.59635 14.1406 8.51302 14.1094 8.41406 14.1094H7.71875C7.625 14.1094 7.54688 14.1406 7.48438 14.2031C7.42188 14.2656 7.39062 14.3438 7.39062 14.4375V15.1484C7.39062 15.2422 7.42188 15.3203 7.48438 15.3828C7.54688 15.4453 7.625 15.4766 7.71875 15.4766ZM9.85938 15.4766H10.5469C10.651 15.4766 10.7344 15.4453 10.7969 15.3828C10.8646 15.3255 10.8984 15.2474 10.8984 15.1484V14.4375C10.8984 14.3438 10.8646 14.2656 10.7969 14.2031C10.7344 14.1406 10.651 14.1094 10.5469 14.1094H9.85938C9.76562 14.1094 9.6875 14.1406 9.625 14.2031C9.56771 14.2656 9.53906 14.3438 9.53906 14.4375V15.1484C9.53906 15.2422 9.56771 15.3203 9.625 15.3828C9.6875 15.4453 9.76562 15.4766 9.85938 15.4766Z" fill="white"/>
</svg>
