<svg width="20" height="15" viewBox="0 0 20 15" fill="none" xmlns="http://www.w3.org/2000/svg">
<path d="M3.24219 14.5625H16.7578C17.5807 14.5625 18.1953 14.3594 18.6016 13.9531C19.0078 13.5521 19.2109 12.9479 19.2109 12.1406V2.60156C19.2109 1.79427 19.0078 1.1901 18.6016 0.789062C18.1953 0.382812 17.5807 0.179688 16.7578 0.179688H3.24219C2.42448 0.179688 1.8099 0.382812 1.39844 0.789062C0.992188 1.1901 0.789062 1.79427 0.789062 2.60156V12.1406C0.789062 12.9479 0.992188 13.5521 1.39844 13.9531C1.8099 14.3594 2.42448 14.5625 3.24219 14.5625ZM3.25781 13.3047C2.86719 13.3047 2.56771 13.2031 2.35938 13C2.15104 12.7917 2.04688 12.4844 2.04688 12.0781V2.66406C2.04688 2.25781 2.15104 1.95312 2.35938 1.75C2.56771 1.54167 2.86719 1.4375 3.25781 1.4375H16.7422C17.1276 1.4375 17.4245 1.54167 17.6328 1.75C17.8464 1.95312 17.9531 2.25781 17.9531 2.66406V12.0781C17.9531 12.4844 17.8464 12.7917 17.6328 13C17.4245 13.2031 17.1276 13.3047 16.7422 13.3047H3.25781ZM3.97656 4.46875H4.75C4.86458 4.46875 4.96094 4.4349 5.03906 4.36719C5.11719 4.29427 5.15625 4.20312 5.15625 4.09375V3.29688C5.15625 3.18229 5.11719 3.09115 5.03906 3.02344C4.96094 2.95573 4.86458 2.92188 4.75 2.92188H3.97656C3.8724 2.92188 3.78385 2.95833 3.71094 3.03125C3.63802 3.09896 3.60156 3.1875 3.60156 3.29688V4.09375C3.60156 4.20312 3.63802 4.29427 3.71094 4.36719C3.78385 4.4349 3.8724 4.46875 3.97656 4.46875ZM6.78906 4.46875H7.5625C7.67708 4.46875 7.77344 4.4349 7.85156 4.36719C7.92969 4.29427 7.96875 4.20312 7.96875 4.09375V3.29688C7.96875 3.18229 7.92969 3.09115 7.85156 3.02344C7.77344 2.95573 7.67708 2.92188 7.5625 2.92188H6.78906C6.67969 2.92188 6.58854 2.95833 6.51562 3.03125C6.44792 3.09896 6.41406 3.1875 6.41406 3.29688V4.09375C6.41406 4.20312 6.44792 4.29427 6.51562 4.36719C6.58854 4.4349 6.67969 4.46875 6.78906 4.46875ZM9.60156 4.46875H10.375C10.4896 4.46875 10.5833 4.4349 10.6562 4.36719C10.7344 4.29427 10.7734 4.20312 10.7734 4.09375V3.29688C10.7734 3.18229 10.7344 3.09115 10.6562 3.02344C10.5833 2.95573 10.4896 2.92188 10.375 2.92188H9.60156C9.49219 2.92188 9.40104 2.95833 9.32812 3.03125C9.26042 3.09896 9.22656 3.1875 9.22656 3.29688V4.09375C9.22656 4.20312 9.26042 4.29427 9.32812 4.36719C9.40104 4.4349 9.49219 4.46875 9.60156 4.46875ZM12.4062 4.46875H13.1797C13.2943 4.46875 13.3906 4.4349 13.4688 4.36719C13.5469 4.29427 13.5859 4.20312 13.5859 4.09375V3.29688C13.5859 3.18229 13.5469 3.09115 13.4688 3.02344C13.3906 2.95573 13.2943 2.92188 13.1797 2.92188H12.4062C12.3021 2.92188 12.2135 2.95833 12.1406 3.03125C12.0677 3.09896 12.0312 3.1875 12.0312 3.29688V4.09375C12.0312 4.20312 12.0677 4.29427 12.1406 4.36719C12.2135 4.4349 12.3021 4.46875 12.4062 4.46875ZM15.2188 4.46875H15.9922C16.1068 4.46875 16.2005 4.4349 16.2734 4.36719C16.3516 4.29427 16.3906 4.20312 16.3906 4.09375V3.29688C16.3906 3.18229 16.3516 3.09115 16.2734 3.02344C16.2005 2.95573 16.1068 2.92188 15.9922 2.92188H15.2188C15.1094 2.92188 15.0182 2.95833 14.9453 3.03125C14.8776 3.09896 14.8438 3.1875 14.8438 3.29688V4.09375C14.8438 4.20312 14.8776 4.29427 14.9453 4.36719C15.0182 4.4349 15.1094 4.46875 15.2188 4.46875ZM3.97656 7.04688H4.75C4.86458 7.04688 4.96094 7.01302 5.03906 6.94531C5.11719 6.8724 5.15625 6.78125 5.15625 6.67188V5.875C5.15625 5.76042 5.11719 5.66927 5.03906 5.60156C4.96094 5.53385 4.86458 5.5 4.75 5.5H3.97656C3.8724 5.5 3.78385 5.53646 3.71094 5.60938C3.63802 5.67708 3.60156 5.76562 3.60156 5.875V6.67188C3.60156 6.78125 3.63802 6.8724 3.71094 6.94531C3.78385 7.01302 3.8724 7.04688 3.97656 7.04688ZM6.78906 7.04688H7.5625C7.67708 7.04688 7.77344 7.01302 7.85156 6.94531C7.92969 6.8724 7.96875 6.78125 7.96875 6.67188V5.875C7.96875 5.76042 7.92969 5.66927 7.85156 5.60156C7.77344 5.53385 7.67708 5.5 7.5625 5.5H6.78906C6.67969 5.5 6.58854 5.53646 6.51562 5.60938C6.44792 5.67708 6.41406 5.76562 6.41406 5.875V6.67188C6.41406 6.78125 6.44792 6.8724 6.51562 6.94531C6.58854 7.01302 6.67969 7.04688 6.78906 7.04688ZM9.60156 7.04688H10.375C10.4896 7.04688 10.5833 7.01302 10.6562 6.94531C10.7344 6.8724 10.7734 6.78125 10.7734 6.67188V5.875C10.7734 5.76042 10.7344 5.66927 10.6562 5.60156C10.5833 5.53385 10.4896 5.5 10.375 5.5H9.60156C9.49219 5.5 9.40104 5.53646 9.32812 5.60938C9.26042 5.67708 9.22656 5.76562 9.22656 5.875V6.67188C9.22656 6.78125 9.26042 6.8724 9.32812 6.94531C9.40104 7.01302 9.49219 7.04688 9.60156 7.04688ZM12.4062 7.04688H13.1797C13.2943 7.04688 13.3906 7.01302 13.4688 6.94531C13.5469 6.8724 13.5859 6.78125 13.5859 6.67188V5.875C13.5859 5.76042 13.5469 5.66927 13.4688 5.60156C13.3906 5.53385 13.2943 5.5 13.1797 5.5H12.4062C12.3021 5.5 12.2135 5.53646 12.1406 5.60938C12.0677 5.67708 12.0312 5.76562 12.0312 5.875V6.67188C12.0312 6.78125 12.0677 6.8724 12.1406 6.94531C12.2135 7.01302 12.3021 7.04688 12.4062 7.04688ZM3.97656 11.8203H4.75C4.86458 11.8203 4.96094 11.7865 5.03906 11.7188C5.11719 11.6458 5.15625 11.5547 5.15625 11.4453V10.6484C5.15625 10.5339 5.11719 10.4427 5.03906 10.375C4.96094 10.3021 4.86458 10.2656 4.75 10.2656H3.97656C3.8724 10.2656 3.78385 10.3021 3.71094 10.375C3.63802 10.4479 3.60156 10.5391 3.60156 10.6484V11.4453C3.60156 11.5547 3.63802 11.6458 3.71094 11.7188C3.78385 11.7865 3.8724 11.8203 3.97656 11.8203ZM6.78906 11.8203H7.5625C7.67708 11.8203 7.77344 11.7865 7.85156 11.7188C7.92969 11.6458 7.96875 11.5547 7.96875 11.4453V10.6484C7.96875 10.5339 7.92969 10.4427 7.85156 10.375C7.77344 10.3021 7.67708 10.2656 7.5625 10.2656H6.78906C6.67969 10.2656 6.58854 10.3021 6.51562 10.375C6.44792 10.4479 6.41406 10.5391 6.41406 10.6484V11.4453C6.41406 11.5547 6.44792 11.6458 6.51562 11.7188C6.58854 11.7865 6.67969 11.8203 6.78906 11.8203ZM9.60156 11.8203H10.375C10.4896 11.8203 10.5833 11.7865 10.6562 11.7188C10.7344 11.6458 10.7734 11.5547 10.7734 11.4453V10.6484C10.7734 10.5339 10.7344 10.4427 10.6562 10.375C10.5833 10.3021 10.4896 10.2656 10.375 10.2656H9.60156C9.49219 10.2656 9.40104 10.3021 9.32812 10.375C9.26042 10.4479 9.22656 10.5391 9.22656 10.6484V11.4453C9.22656 11.5547 9.26042 11.6458 9.32812 11.7188C9.40104 11.7865 9.49219 11.8203 9.60156 11.8203ZM12.4062 11.8203H13.1797C13.2943 11.8203 13.3906 11.7865 13.4688 11.7188C13.5469 11.6458 13.5859 11.5547 13.5859 11.4453V10.6484C13.5859 10.5339 13.5469 10.4427 13.4688 10.375C13.3906 10.3021 13.2943 10.2656 13.1797 10.2656H12.4062C12.3021 10.2656 12.2135 10.3021 12.1406 10.375C12.0677 10.4479 12.0312 10.5391 12.0312 10.6484V11.4453C12.0312 11.5547 12.0677 11.6458 12.1406 11.7188C12.2135 11.7865 12.3021 11.8203 12.4062 11.8203ZM15.2188 11.8203H15.9922C16.1068 11.8203 16.2005 11.7865 16.2734 11.7188C16.3516 11.6458 16.3906 11.5547 16.3906 11.4453V10.6484C16.3906 10.5339 16.3516 10.4427 16.2734 10.375C16.2005 10.3021 16.1068 10.2656 15.9922 10.2656H15.2188C15.1094 10.2656 15.0182 10.3021 14.9453 10.375C14.8776 10.4479 14.8438 10.5391 14.8438 10.6484V11.4453C14.8438 11.5547 14.8776 11.6458 14.9453 11.7188C15.0182 11.7865 15.1094 11.8203 15.2188 11.8203Z" fill="white"/>
</svg>
