<svg width="164" height="156" viewBox="0 0 164 156" fill="none" xmlns="http://www.w3.org/2000/svg">
<path d="M68.6875 16.75C71.0208 16.75 72.9792 15.9583 74.5625 14.375C76.1458 12.7917 76.9375 10.8542 76.9375 8.5625C76.9375 6.27083 76.125 4.33333 74.5 2.75C72.9167 1.125 70.9792 0.3125 68.6875 0.3125C66.4792 0.3125 64.5625 1.125 62.9375 2.75C61.3125 4.375 60.5 6.3125 60.5 8.5625C60.5 10.8125 61.2917 12.75 62.875 14.375C64.5 15.9583 66.4375 16.75 68.6875 16.75ZM38.875 34C41.2083 34 43.1458 33.2083 44.6875 31.625C46.2708 30.0417 47.0625 28.0833 47.0625 25.75C47.0625 23.4583 46.2708 21.5208 44.6875 19.9375C43.1042 18.3542 41.1667 17.5625 38.875 17.5625C36.625 17.5625 34.6875 18.375 33.0625 20C31.4792 21.5833 30.6875 23.5 30.6875 25.75C30.6875 28.0417 31.4792 30 33.0625 31.625C34.6458 33.2083 36.5833 34 38.875 34ZM98.5625 34C100.896 34 102.833 33.2083 104.375 31.625C105.958 30.0417 106.75 28.0833 106.75 25.75C106.75 23.4583 105.958 21.5208 104.375 19.9375C102.792 18.3542 100.854 17.5625 98.5625 17.5625C96.3125 17.5625 94.375 18.375 92.75 20C91.1667 21.5833 90.375 23.5 90.375 25.75C90.375 28.0417 91.1667 30 92.75 31.625C94.3333 33.2083 96.2708 34 98.5625 34ZM9.0625 51.4375C11.3542 51.4375 13.2917 50.6458 14.875 49.0625C16.4583 47.4792 17.25 45.5208 17.25 43.1875C17.25 40.9375 16.4375 39.0208 14.8125 37.4375C13.2292 35.8125 11.3125 35 9.0625 35C6.8125 35 4.875 35.8125 3.25 37.4375C1.625 39.0208 0.8125 40.9375 0.8125 43.1875C0.8125 45.4792 1.60417 47.4375 3.1875 49.0625C4.8125 50.6458 6.77083 51.4375 9.0625 51.4375ZM68.6875 53.75C71.6458 53.75 74.1458 52.7292 76.1875 50.6875C78.2292 48.6458 79.25 46.1458 79.25 43.1875C79.25 40.3125 78.2083 37.8542 76.125 35.8125C74.0833 33.7292 71.6042 32.6875 68.6875 32.6875C66.8125 32.6875 65.0625 33.1667 63.4375 34.125C61.8542 35.0833 60.5833 36.375 59.625 38C58.6667 39.5833 58.1875 41.3125 58.1875 43.1875C58.1875 46.1042 59.2083 48.6042 61.25 50.6875C63.3333 52.7292 65.8125 53.75 68.6875 53.75ZM128.188 51.4375C130.479 51.4375 132.417 50.6458 134 49.0625C135.583 47.4792 136.375 45.5208 136.375 43.1875C136.375 40.8958 135.583 38.9583 134 37.375C132.417 35.7917 130.479 35 128.188 35C125.938 35 124 35.8125 122.375 37.4375C120.75 39.0625 119.938 40.9792 119.938 43.1875C119.938 45.4792 120.729 47.4375 122.312 49.0625C123.938 50.6458 125.896 51.4375 128.188 51.4375ZM38.875 71C41.8333 71 44.3125 69.9792 46.3125 67.9375C48.3542 65.8958 49.375 63.4167 49.375 60.5C49.375 57.5833 48.3333 55.1042 46.25 53.0625C44.2083 51.0208 41.75 50 38.875 50C36.9583 50 35.2083 50.4792 33.625 51.4375C32.0417 52.3958 30.7708 53.6667 29.8125 55.25C28.8542 56.8333 28.375 58.5833 28.375 60.5C28.375 63.375 29.3958 65.8542 31.4375 67.9375C33.4792 69.9792 35.9583 71 38.875 71ZM98.5625 71C101.521 71 104 69.9792 106 67.9375C108.042 65.8958 109.062 63.4167 109.062 60.5C109.062 57.5833 108.021 55.1042 105.938 53.0625C103.896 51.0208 101.438 50 98.5625 50C96.6458 50 94.8958 50.4792 93.3125 51.4375C91.7292 52.3958 90.4583 53.6667 89.5 55.25C88.5417 56.8333 88.0625 58.5833 88.0625 60.5C88.0625 63.375 89.0833 65.8542 91.125 67.9375C93.1667 69.9792 95.6458 71 98.5625 71ZM9.0625 86.0625C11.3542 86.0625 13.2917 85.2708 14.875 83.6875C16.4583 82.1042 17.25 80.1667 17.25 77.875C17.25 75.5833 16.4375 73.6458 14.8125 72.0625C13.2292 70.4792 11.3125 69.6875 9.0625 69.6875C6.8125 69.6875 4.875 70.5 3.25 72.125C1.625 73.7083 0.8125 75.625 0.8125 77.875C0.8125 80.1667 1.60417 82.1042 3.1875 83.6875C4.8125 85.2708 6.77083 86.0625 9.0625 86.0625ZM68.6875 89.875C70.9375 89.875 72.9583 89.3542 74.75 88.3125C76.5833 87.2292 78.0417 85.7708 79.125 83.9375C80.2083 82.1042 80.75 80.0833 80.75 77.875C80.75 75.6667 80.2083 73.6667 79.125 71.875C78.0417 70.0417 76.5833 68.5833 74.75 67.5C72.9167 66.4167 70.8958 65.875 68.6875 65.875C66.5208 65.875 64.5208 66.4167 62.6875 67.5C60.8958 68.5833 59.4375 70.0417 58.3125 71.875C57.2292 73.7083 56.6875 75.7083 56.6875 77.875C56.6875 80.0833 57.2292 82.1042 58.3125 83.9375C59.3958 85.7292 60.8542 87.1667 62.6875 88.25C64.5208 89.3333 66.5208 89.875 68.6875 89.875ZM135.688 81.125C136.146 80 136.375 78.9167 136.375 77.875C136.375 75.5833 135.583 73.6458 134 72.0625C132.417 70.4792 130.479 69.6875 128.188 69.6875C125.938 69.6875 124 70.5 122.375 72.125C120.75 73.7083 119.938 75.625 119.938 77.875C119.938 78.9167 120.167 79.9792 120.625 81.0625C123.042 79.8958 125.562 79.3125 128.188 79.3125C130.812 79.3125 133.312 79.9167 135.688 81.125ZM38.875 105.75C41.7917 105.75 44.2708 104.729 46.3125 102.688C48.3542 100.646 49.375 98.1667 49.375 95.25C49.375 92.3333 48.3333 89.8542 46.25 87.8125C44.2083 85.7292 41.75 84.6875 38.875 84.6875C36.9583 84.6875 35.2083 85.1875 33.625 86.1875C32.0417 87.1458 30.7708 88.4167 29.8125 90C28.8542 91.5833 28.375 93.3333 28.375 95.25C28.375 98.125 29.3958 100.604 31.4375 102.688C33.5208 104.729 36 105.75 38.875 105.75ZM98.5625 105.75C100.229 105.75 101.771 105.375 103.188 104.625L108.938 94.25V93.9375C108.646 91.3542 107.5 89.1667 105.5 87.375C103.542 85.5833 101.229 84.6875 98.5625 84.6875C95.6875 84.6875 93.2083 85.7292 91.125 87.8125C89.0833 89.8958 88.0625 92.375 88.0625 95.25C88.0625 98.125 89.0833 100.604 91.125 102.688C93.2083 104.729 95.6875 105.75 98.5625 105.75ZM9.0625 120.75C11.3542 120.75 13.2917 119.958 14.875 118.375C16.4583 116.792 17.25 114.833 17.25 112.5C17.25 110.25 16.4375 108.333 14.8125 106.75C13.2292 105.125 11.3125 104.312 9.0625 104.312C6.8125 104.312 4.875 105.125 3.25 106.75C1.625 108.375 0.8125 110.292 0.8125 112.5C0.8125 114.792 1.60417 116.75 3.1875 118.375C4.8125 119.958 6.77083 120.75 9.0625 120.75ZM68.6875 123.062C71.6458 123.062 74.1458 122.042 76.1875 120C78.2292 117.958 79.25 115.458 79.25 112.5C79.25 109.625 78.2083 107.167 76.125 105.125C74.0833 103.042 71.6042 102 68.6875 102C66.8125 102 65.0625 102.479 63.4375 103.438C61.8542 104.396 60.5833 105.688 59.625 107.312C58.6667 108.896 58.1875 110.625 58.1875 112.5C58.1875 115.417 59.2083 117.917 61.25 120C63.3333 122.042 65.8125 123.062 68.6875 123.062ZM38.875 138.188C41.2083 138.188 43.1458 137.396 44.6875 135.812C46.2708 134.229 47.0625 132.292 47.0625 130C47.0625 127.708 46.2708 125.75 44.6875 124.125C43.1042 122.542 41.1667 121.75 38.875 121.75C36.625 121.75 34.6875 122.562 33.0625 124.188C31.4792 125.812 30.6875 127.75 30.6875 130C30.6875 132.25 31.4792 134.167 33.0625 135.75C34.6458 137.375 36.5833 138.188 38.875 138.188ZM68.6875 155.375C71.0208 155.375 72.9792 154.583 74.5625 153C76.1458 151.458 76.9375 149.521 76.9375 147.188C76.9375 144.896 76.125 142.958 74.5 141.375C72.9167 139.792 70.9792 139 68.6875 139C66.4792 139 64.5625 139.792 62.9375 141.375C61.3125 143 60.5 144.938 60.5 147.188C60.5 149.479 61.2917 151.417 62.875 153C64.5 154.583 66.4375 155.375 68.6875 155.375ZM101.062 153.062H155.188C157.771 153.062 159.833 152.25 161.375 150.625C162.917 149.042 163.688 147.062 163.688 144.688C163.688 143.229 163.292 141.833 162.5 140.5L135.375 92.125C134.583 90.7083 133.521 89.6458 132.188 88.9375C130.896 88.2292 129.562 87.875 128.188 87.875C126.729 87.875 125.333 88.2292 124 88.9375C122.667 89.6458 121.625 90.7083 120.875 92.125L93.8125 140.562C93.0208 141.854 92.625 143.229 92.625 144.688C92.625 147.062 93.375 149.042 94.875 150.625C96.4167 152.25 98.4792 153.062 101.062 153.062ZM128.125 143.562C126.708 143.562 125.479 143.042 124.438 142C123.396 140.958 122.875 139.708 122.875 138.25C122.875 136.833 123.396 135.604 124.438 134.562C125.479 133.521 126.708 133 128.125 133C129.625 133 130.875 133.521 131.875 134.562C132.917 135.604 133.438 136.833 133.438 138.25C133.438 139.708 132.917 140.958 131.875 142C130.833 143.042 129.583 143.562 128.125 143.562ZM128.188 128.625C127.062 128.625 126.146 128.292 125.438 127.625C124.771 126.958 124.417 126.083 124.375 125L123.875 107.188C123.833 105.896 124.208 104.854 125 104.062C125.792 103.271 126.854 102.875 128.188 102.875C129.479 102.875 130.521 103.271 131.312 104.062C132.104 104.854 132.479 105.896 132.438 107.188L131.938 125C131.896 126.083 131.521 126.958 130.812 127.625C130.146 128.292 129.271 128.625 128.188 128.625Z" fill="white"/>
</svg>
