<?xml version="1.0" encoding="UTF-8"?>
<svg xmlns="http://www.w3.org/2000/svg" xmlns:xlink="http://www.w3.org/1999/xlink" width="24" height="25.5" viewBox="0 0 24 25.5" version="1.1">
<g id="surface1">
<path style=" stroke:none;fill-rule:nonzero;fill:rgb(100%,100%,100%);fill-opacity:1;" d="M 2.683594 11.414062 L 9.1875 11.414062 C 9.789062 11.414062 10.253906 11.25 10.582031 10.921875 C 10.910156 10.585938 11.074219 10.117188 11.074219 9.515625 L 11.074219 3.023438 C 11.074219 2.71875 10.972656 2.460938 10.769531 2.25 C 10.566406 2.039062 10.308594 1.933594 9.996094 1.933594 C 9.683594 1.933594 9.425781 2.039062 9.222656 2.25 C 9.027344 2.453125 8.929688 2.710938 8.929688 3.023438 L 8.929688 4.007812 L 9.175781 8.097656 L 6.082031 4.851562 L 2.484375 1.21875 C 2.28125 1.007812 2.03125 0.902344 1.734375 0.902344 C 1.398438 0.902344 1.121094 1.003906 0.902344 1.207031 C 0.683594 1.410156 0.574219 1.675781 0.574219 2.003906 C 0.574219 2.160156 0.601562 2.308594 0.65625 2.449219 C 0.710938 2.582031 0.792969 2.703125 0.902344 2.8125 L 4.511719 6.421875 L 7.757812 9.503906 L 3.667969 9.269531 L 2.683594 9.269531 C 2.371094 9.269531 2.109375 9.371094 1.898438 9.574219 C 1.6875 9.769531 1.582031 10.023438 1.582031 10.335938 C 1.582031 10.648438 1.6875 10.90625 1.898438 11.109375 C 2.109375 11.3125 2.371094 11.414062 2.683594 11.414062 Z M 13.921875 23.308594 C 14.226562 23.308594 14.480469 23.203125 14.683594 22.992188 C 14.886719 22.789062 14.988281 22.53125 14.988281 22.21875 L 14.988281 21.105469 L 14.742188 17.027344 L 17.835938 20.273438 L 21.515625 23.976562 C 21.710938 24.1875 21.960938 24.292969 22.265625 24.292969 C 22.59375 24.292969 22.867188 24.191406 23.085938 23.988281 C 23.304688 23.785156 23.414062 23.519531 23.414062 23.191406 C 23.414062 23.035156 23.386719 22.886719 23.332031 22.746094 C 23.277344 22.613281 23.199219 22.492188 23.097656 22.382812 L 19.40625 18.691406 L 16.148438 15.609375 L 20.25 15.84375 L 21.363281 15.84375 C 21.675781 15.84375 21.9375 15.746094 22.148438 15.550781 C 22.359375 15.355469 22.464844 15.101562 22.464844 14.789062 C 22.464844 14.46875 22.359375 14.210938 22.148438 14.015625 C 21.9375 13.8125 21.675781 13.710938 21.363281 13.710938 L 14.730469 13.710938 C 14.128906 13.710938 13.664062 13.875 13.335938 14.203125 C 13.007812 14.53125 12.84375 14.996094 12.84375 15.597656 L 12.84375 22.21875 C 12.84375 22.53125 12.945312 22.789062 13.148438 22.992188 C 13.351562 23.203125 13.609375 23.308594 13.921875 23.308594 Z M 13.921875 23.308594 "/>
</g>
</svg>
