<svg xmlns="http://www.w3.org/2000/svg" width="24" height="24"><path style="stroke:none;fill-rule:nonzero;fill:#fff;fill-opacity:1" d="M3.89 23.285h16.22c.988 0 1.726-.32 2.21-.973.489-.64.735-1.605.735-2.886V4.152c0-1.289-.246-2.25-.735-2.902-.484-.652-1.222-.973-2.21-.973H3.89c-.98 0-1.718.32-2.21.973-.489.64-.735 1.61-.735 2.902v15.274c0 1.281.246 2.246.735 2.887.492.652 1.23.972 2.21.972Zm.02-2.008c-.469 0-.828-.164-1.078-.492-.25-.332-.375-.82-.375-1.473V4.262c0-.649.125-1.14.375-1.477.25-.332.61-.5 1.078-.5h16.18c.465 0 .82.168 1.07.5.254.336.383.828.383 1.477v15.05c0 .653-.129 1.141-.383 1.473-.25.328-.605.492-1.07.492Zm.442-7.652c0 .242.062.453.195.637.137.183.297.273.476.273.172 0 .34-.11.508-.336l3.957-5.273.676-.977-.094 2.926v1.215c0 .265.059.484.176.66.125.168.29.25.488.25.176.012.348-.082.47-.25a1.11 1.11 0 0 0 .187-.66V6.063a1.034 1.034 0 0 0-.196-.66c-.129-.173-.308-.262-.488-.25h-4.66c-.2 0-.363.081-.488.25a.982.982 0 0 0-.188.632c-.008.238.063.473.188.64a.6.6 0 0 0 .488.235h.918L9.28 6.8l-.722.876-3.957 5.27c-.168.23-.25.452-.25.679Zm15.43-3.7a.98.98 0 0 0-.208-.624c-.117-.176-.289-.278-.469-.274-.168 0-.335.11-.503.32l-3.957 5.29-.668.976.085-2.937v-1.211c0-.266-.062-.485-.187-.652-.125-.172-.297-.262-.477-.25-.18-.008-.351.082-.48.25-.121.175-.184.41-.176.652V17.5c0 .266.063.484.188.652a.605.605 0 0 0 .496.25h4.66c.2 0 .36-.078.484-.242.125-.168.192-.398.188-.633 0-.265-.063-.48-.195-.64-.125-.168-.297-.258-.477-.25h-.922l-2.312.125.718-.887 3.957-5.277c.168-.223.254-.446.254-.672Zm0 0"/></svg>