<svg width="128" height="128" viewBox="0 0 128 128" fill="none" xmlns="http://www.w3.org/2000/svg">
<path d="M63.9375 127.625C72.6458 127.625 80.8333 125.958 88.5 122.625C96.2083 119.292 103 114.688 108.875 108.812C114.75 102.938 119.354 96.1667 122.688 88.5C126.021 80.7917 127.688 72.5833 127.688 63.875C127.688 55.1667 126.021 46.9792 122.688 39.3125C119.354 31.6042 114.75 24.8125 108.875 18.9375C103 13.0625 96.2083 8.45833 88.5 5.125C80.7917 1.79167 72.5833 0.125 63.875 0.125C55.1667 0.125 46.9583 1.79167 39.25 5.125C31.5833 8.45833 24.8125 13.0625 18.9375 18.9375C13.1042 24.8125 8.52083 31.6042 5.1875 39.3125C1.85417 46.9792 0.1875 55.1667 0.1875 63.875C0.1875 72.5833 1.85417 80.7917 5.1875 88.5C8.52083 96.1667 13.125 102.938 19 108.812C24.875 114.688 31.6458 119.292 39.3125 122.625C47.0208 125.958 55.2292 127.625 63.9375 127.625ZM63.9375 117C56.5625 117 49.6667 115.625 43.25 112.875C36.8333 110.125 31.1875 106.333 26.3125 101.5C21.4792 96.625 17.6875 90.9792 14.9375 84.5625C12.2292 78.1458 10.875 71.25 10.875 63.875C10.875 56.5 12.2292 49.6042 14.9375 43.1875C17.6875 36.7708 21.4792 31.125 26.3125 26.25C31.1458 21.375 36.7708 17.5833 43.1875 14.875C49.6042 12.125 56.5 10.75 63.875 10.75C71.25 10.75 78.1458 12.125 84.5625 14.875C91.0208 17.5833 96.6667 21.375 101.5 26.25C106.375 31.125 110.188 36.7708 112.938 43.1875C115.688 49.6042 117.062 56.5 117.062 63.875C117.062 71.25 115.688 78.1458 112.938 84.5625C110.229 90.9792 106.438 96.625 101.562 101.5C96.6875 106.333 91.0417 110.125 84.625 112.875C78.2083 115.625 71.3125 117 63.9375 117ZM63.8125 83.75C64.9375 83.75 65.9792 83.2708 66.9375 82.3125L88.0625 60.8125C88.5625 60.3542 88.9167 59.8542 89.125 59.3125C89.3333 58.7708 89.4375 58.2083 89.4375 57.625C89.4375 56.5 89.0625 55.5417 88.3125 54.75C87.5625 53.9583 86.6042 53.5625 85.4375 53.5625C84.8958 53.5625 84.3542 53.6667 83.8125 53.875C83.2708 54.0417 82.7917 54.3542 82.375 54.8125L78.4375 58.75L67.3125 71.375L67.9375 60V31.3125C67.9375 30.1042 67.5417 29.1042 66.75 28.3125C65.9583 27.5208 64.9792 27.125 63.8125 27.125C62.5208 27.125 61.4792 27.5208 60.6875 28.3125C59.9375 29.1042 59.5625 30.1042 59.5625 31.3125V60L60.3125 71.4375L48.9375 58.75L45.3125 54.8125C44.9375 54.3542 44.5 54.0417 44 53.875C43.5 53.6667 42.9375 53.5625 42.3125 53.5625C41.1042 53.5625 40.125 53.9583 39.375 54.75C38.625 55.5 38.25 56.4792 38.25 57.6875C38.25 58.1458 38.375 58.6875 38.625 59.3125C38.875 59.8958 39.1875 60.375 39.5625 60.75L60.6875 82.3125C61.5625 83.2708 62.6042 83.75 63.8125 83.75ZM40.375 96.9375H87.3125C88.5208 96.9375 89.5 96.5417 90.25 95.75C91.0417 94.9167 91.4375 93.8958 91.4375 92.6875C91.4375 91.4792 91.0417 90.5 90.25 89.75C89.5 88.9583 88.5208 88.5625 87.3125 88.5625H40.375C39.1667 88.5625 38.1667 88.9583 37.375 89.75C36.625 90.5 36.25 91.4792 36.25 92.6875C36.25 93.8958 36.625 94.9167 37.375 95.75C38.1667 96.5417 39.1667 96.9375 40.375 96.9375Z" fill="white"/>
</svg>
