<svg width="16" height="15" viewBox="0 0 16 15" fill="none" xmlns="http://www.w3.org/2000/svg">
<path d="M3.25781 14.5625H12.7344C13.5521 14.5625 14.1641 14.3594 14.5703 13.9531C14.9818 13.5521 15.1875 12.9479 15.1875 12.1406V2.60156C15.1875 1.79427 14.9818 1.1901 14.5703 0.789062C14.1641 0.382812 13.5521 0.179688 12.7344 0.179688H3.25781C2.4401 0.179688 1.82552 0.382812 1.41406 0.789062C1.00781 1.1901 0.804688 1.79427 0.804688 2.60156V12.1406C0.804688 12.9479 1.00781 13.5521 1.41406 13.9531C1.82552 14.3594 2.4401 14.5625 3.25781 14.5625ZM5.46875 5.35938C5.65104 5.35938 5.79688 5.41667 5.90625 5.53125C6.01562 5.64062 6.07031 5.79427 6.07031 5.99219V7.375L5.95312 8.625L7.11719 7.39062L10.0625 4.42969C10.1198 4.3724 10.1875 4.32812 10.2656 4.29688C10.3438 4.26042 10.4323 4.24219 10.5312 4.24219C10.7083 4.24219 10.849 4.29688 10.9531 4.40625C11.0625 4.51562 11.1172 4.66406 11.1172 4.85156C11.1172 5.00781 11.0521 5.15104 10.9219 5.28125L7.96875 8.23438L6.71094 9.40625L7.90625 9.28125H9.35938C9.55208 9.28125 9.70573 9.33594 9.82031 9.44531C9.9401 9.55469 10 9.69792 10 9.875C10 10.0521 9.94271 10.1953 9.82812 10.3047C9.71354 10.4141 9.5625 10.4688 9.375 10.4688H5.55469C5.34635 10.4688 5.18229 10.4167 5.0625 10.3125C4.94271 10.2083 4.88281 10.0365 4.88281 9.79688V6.00781C4.88281 5.8151 4.9349 5.65885 5.03906 5.53906C5.14844 5.41927 5.29167 5.35938 5.46875 5.35938Z" fill="white"/>
</svg>
