<svg width="116" height="116" viewBox="0 0 116 116" fill="none" xmlns="http://www.w3.org/2000/svg">
<path d="M20.5625 115.5H96.375C102.917 115.5 107.812 113.875 111.062 110.625C114.354 107.417 116 102.583 116 96.125V19.8125C116 13.3542 114.354 8.52083 111.062 5.3125C107.812 2.0625 102.917 0.4375 96.375 0.4375H20.5625C14.0208 0.4375 9.10417 2.0625 5.8125 5.3125C2.5625 8.52083 0.9375 13.3542 0.9375 19.8125V96.125C0.9375 102.583 2.5625 107.417 5.8125 110.625C9.10417 113.875 14.0208 115.5 20.5625 115.5ZM20.6875 105.438C17.5625 105.438 15.1667 104.625 13.5 103C11.8333 101.333 11 98.875 11 95.625V20.3125C11 17.0625 11.8333 14.625 13.5 13C15.1667 11.3333 17.5625 10.5 20.6875 10.5H96.25C99.3333 10.5 101.708 11.3333 103.375 13C105.083 14.625 105.938 17.0625 105.938 20.3125V95.625C105.938 98.875 105.083 101.333 103.375 103C101.708 104.625 99.3333 105.438 96.25 105.438H20.6875ZM90.6875 57.75C90.6875 56.5417 90.0833 55.3333 88.875 54.125L67.8125 32.9375C66.9792 32.1042 65.875 31.6875 64.5 31.6875C63.25 31.6875 62.1875 32.125 61.3125 33C60.4375 33.8333 60 34.8958 60 36.1875C60 37.4792 60.4792 38.5833 61.4375 39.5L69.25 47.25L76.75 53.5625L63.5625 53.0625H31C29.625 53.0625 28.5 53.5208 27.625 54.4375C26.75 55.3125 26.3125 56.4167 26.3125 57.75C26.3125 59.125 26.75 60.25 27.625 61.125C28.5 62 29.625 62.4375 31 62.4375H63.5625L76.8125 61.9375L69.25 68.3125L61.4375 76C60.4792 76.875 60 78 60 79.375C60 80.625 60.4375 81.7083 61.3125 82.625C62.1875 83.5 63.25 83.9375 64.5 83.9375C65.8333 83.9375 66.9375 83.5 67.8125 82.625L88.875 61.4375C90.0833 60.2292 90.6875 59 90.6875 57.75Z" fill="white"/>
</svg>
