<svg width="16" height="17" viewBox="0 0 16 17" fill="none" xmlns="http://www.w3.org/2000/svg">
<path d="M8 16.3281C9.08854 16.3281 10.112 16.1198 11.0703 15.7031C12.0339 15.2865 12.8828 14.7109 13.6172 13.9766C14.3516 13.2422 14.9271 12.3958 15.3438 11.4375C15.7604 10.474 15.9688 9.44792 15.9688 8.35938C15.9688 7.27083 15.7604 6.2474 15.3438 5.28906C14.9271 4.32552 14.3516 3.47656 13.6172 2.74219C12.8828 2.00781 12.0339 1.43229 11.0703 1.01562C10.1068 0.598958 9.08073 0.390625 7.99219 0.390625C6.90365 0.390625 5.8776 0.598958 4.91406 1.01562C3.95573 1.43229 3.10938 2.00781 2.375 2.74219C1.64583 3.47656 1.07292 4.32552 0.65625 5.28906C0.239583 6.2474 0.03125 7.27083 0.03125 8.35938C0.03125 9.44792 0.239583 10.474 0.65625 11.4375C1.07292 12.3958 1.64844 13.2422 2.38281 13.9766C3.11719 14.7109 3.96354 15.2865 4.92188 15.7031C5.88542 16.1198 6.91146 16.3281 8 16.3281ZM8 15C7.07812 15 6.21615 14.8281 5.41406 14.4844C4.61198 14.1406 3.90625 13.6667 3.29688 13.0625C2.69271 12.4531 2.21875 11.7474 1.875 10.9453C1.53646 10.1432 1.36719 9.28125 1.36719 8.35938C1.36719 7.4375 1.53646 6.57552 1.875 5.77344C2.21875 4.97135 2.69271 4.26562 3.29688 3.65625C3.90104 3.04688 4.60417 2.57292 5.40625 2.23438C6.20833 1.89062 7.07031 1.71875 7.99219 1.71875C8.91406 1.71875 9.77604 1.89062 10.5781 2.23438C11.3854 2.57292 12.0911 3.04688 12.6953 3.65625C13.3047 4.26562 13.7812 4.97135 14.125 5.77344C14.4688 6.57552 14.6406 7.4375 14.6406 8.35938C14.6406 9.28125 14.4688 10.1432 14.125 10.9453C13.7865 11.7474 13.3125 12.4531 12.7031 13.0625C12.0938 13.6667 11.388 14.1406 10.5859 14.4844C9.78385 14.8281 8.92188 15 8 15ZM8.00781 3.5C7.85156 3.5 7.69792 3.57292 7.54688 3.71875L5.28906 5.97656C5.23698 6.02865 5.19531 6.08854 5.16406 6.15625C5.13802 6.22396 5.125 6.29948 5.125 6.38281C5.125 6.54427 5.17969 6.67969 5.28906 6.78906C5.39844 6.89323 5.53385 6.94531 5.69531 6.94531C5.77865 6.94531 5.85417 6.92969 5.92188 6.89844C5.99479 6.86719 6.05729 6.82552 6.10938 6.77344L6.6875 6.17969L7.48438 5.22656L7.42188 6.88281V9.82812L7.48438 11.4844L6.6875 10.5312L6.10938 9.9375C6.05729 9.88542 5.99479 9.84375 5.92188 9.8125C5.85417 9.78125 5.77865 9.76562 5.69531 9.76562C5.53385 9.76562 5.39844 9.82031 5.28906 9.92969C5.17969 10.0339 5.125 10.1667 5.125 10.3281C5.125 10.4115 5.13802 10.487 5.16406 10.5547C5.19531 10.6224 5.23698 10.6823 5.28906 10.7344L7.54688 12.9922C7.69792 13.138 7.85156 13.2109 8.00781 13.2109C8.15365 13.2109 8.30469 13.138 8.46094 12.9922L10.7266 10.7344C10.7786 10.6823 10.8177 10.6224 10.8438 10.5547C10.8698 10.487 10.8828 10.4115 10.8828 10.3281C10.8828 10.1667 10.8281 10.0339 10.7188 9.92969C10.6146 9.82031 10.4818 9.76562 10.3203 9.76562C10.237 9.76562 10.1589 9.78125 10.0859 9.8125C10.0182 9.84375 9.95833 9.88542 9.90625 9.9375L9.32031 10.5312L8.53125 11.4766L8.59375 9.82812V6.88281L8.53125 5.23438L9.32031 6.17969L9.90625 6.77344C9.95833 6.82552 10.0182 6.86719 10.0859 6.89844C10.1589 6.92969 10.237 6.94531 10.3203 6.94531C10.4818 6.94531 10.6146 6.89323 10.7188 6.78906C10.8281 6.67969 10.8828 6.54427 10.8828 6.38281C10.8828 6.29948 10.8698 6.22396 10.8438 6.15625C10.8177 6.08854 10.7786 6.02865 10.7266 5.97656L8.46094 3.71875C8.30469 3.57292 8.15365 3.5 8.00781 3.5Z" fill="white"/>
</svg>
