<svg width="128" height="128" viewBox="0 0 128 128" fill="none" xmlns="http://www.w3.org/2000/svg">
<path d="M63.9375 127.625C72.6458 127.625 80.8333 125.958 88.5 122.625C96.2083 119.292 103 114.688 108.875 108.812C114.75 102.938 119.354 96.1667 122.688 88.5C126.021 80.7917 127.688 72.5833 127.688 63.875C127.688 55.1667 126.021 46.9792 122.688 39.3125C119.354 31.6042 114.75 24.8125 108.875 18.9375C103 13.0625 96.2083 8.45833 88.5 5.125C80.7917 1.79167 72.5833 0.125 63.875 0.125C55.1667 0.125 46.9583 1.79167 39.25 5.125C31.5833 8.45833 24.8125 13.0625 18.9375 18.9375C13.1042 24.8125 8.52083 31.6042 5.1875 39.3125C1.85417 46.9792 0.1875 55.1667 0.1875 63.875C0.1875 72.5833 1.85417 80.7917 5.1875 88.5C8.52083 96.1667 13.125 102.938 19 108.812C24.875 114.688 31.6458 119.292 39.3125 122.625C47.0208 125.958 55.2292 127.625 63.9375 127.625ZM23.4375 63.875C23.4375 62.6667 23.8333 61.6667 24.625 60.875C25.4583 60.0417 26.5208 59.625 27.8125 59.625H57.3125L69.0625 60.25L55.9375 48.625L51.9375 44.75C51.4792 44.3333 51.1458 43.8542 50.9375 43.3125C50.7708 42.7292 50.6875 42.1458 50.6875 41.5625C50.6875 40.3542 51.1042 39.375 51.9375 38.625C52.7708 37.8333 53.7708 37.4375 54.9375 37.4375C56.2292 37.4375 57.2917 37.875 58.125 38.75L80.375 60.625C80.8333 61.0833 81.1875 61.6042 81.4375 62.1875C81.7292 62.7292 81.875 63.2917 81.875 63.875C81.875 64.5 81.75 65.0833 81.5 65.625C81.25 66.1667 80.875 66.6667 80.375 67.125L58.1875 88.8125C57.7708 89.2292 57.25 89.5833 56.625 89.875C56.0417 90.125 55.4792 90.25 54.9375 90.25C53.6875 90.25 52.6667 89.8542 51.875 89.0625C51.0833 88.2708 50.6875 87.2708 50.6875 86.0625C50.6875 85.3958 50.7708 84.8125 50.9375 84.3125C51.1458 83.7708 51.4792 83.3125 51.9375 82.9375L56 79.1875L69.125 67.5L57.3125 68.3125H27.8125C26.5208 68.3125 25.4583 67.9167 24.625 67.125C23.8333 66.2917 23.4375 65.2083 23.4375 63.875ZM91.0625 92.3125C89.8542 92.3125 88.8333 91.9167 88 91.125C87.2083 90.3333 86.8125 89.3125 86.8125 88.0625V39.625C86.8125 38.375 87.2083 37.3542 88 36.5625C88.8333 35.7292 89.8542 35.3125 91.0625 35.3125C92.3542 35.3125 93.3958 35.7292 94.1875 36.5625C95.0208 37.3542 95.4375 38.375 95.4375 39.625V88.0625C95.4375 89.3125 95.0208 90.3333 94.1875 91.125C93.3958 91.9167 92.3542 92.3125 91.0625 92.3125Z" fill="white"/>
</svg>
