<svg width="111" height="135" viewBox="0 0 111 135" fill="none" xmlns="http://www.w3.org/2000/svg">
<path d="M0.1875 79.375C0.1875 87.0833 1.60417 94.2917 4.4375 101C7.3125 107.667 11.2708 113.542 16.3125 118.625C21.3542 123.667 27.2083 127.604 33.875 130.438C40.5833 133.271 47.7708 134.688 55.4375 134.688C63.0625 134.688 70.2083 133.271 76.875 130.438C83.5833 127.604 89.4583 123.667 94.5 118.625C99.5833 113.542 103.542 107.667 106.375 101C109.208 94.2917 110.625 87.0833 110.625 79.375C110.625 77.875 110.146 76.6458 109.188 75.6875C108.229 74.6875 106.979 74.1875 105.438 74.1875C103.938 74.1875 102.75 74.6875 101.875 75.6875C101 76.6458 100.562 77.875 100.562 79.375C100.562 85.6667 99.3958 91.5625 97.0625 97.0625C94.7292 102.521 91.5 107.333 87.375 111.5C83.25 115.625 78.4583 118.833 73 121.125C67.5417 123.458 61.6875 124.625 55.4375 124.625C49.1458 124.625 43.2708 123.458 37.8125 121.125C32.3542 118.833 27.5625 115.625 23.4375 111.5C19.3125 107.333 16.0833 102.521 13.75 97.0625C11.4167 91.5625 10.25 85.6667 10.25 79.375C10.25 73.125 11.4167 67.2708 13.75 61.8125C16.0833 56.3542 19.3125 51.5625 23.4375 47.4375C27.5625 43.3125 32.3542 40.0833 37.8125 37.75C43.2708 35.4167 49.1458 34.25 55.4375 34.25C57.8125 34.25 60.0833 34.3542 62.25 34.5625C64.4583 34.7708 66.4792 35.0833 68.3125 35.5L49.625 54C49.1667 54.5 48.8125 55.0625 48.5625 55.6875C48.3125 56.2708 48.1875 56.8958 48.1875 57.5625C48.1875 58.9792 48.6667 60.1667 49.625 61.125C50.5833 62.0833 51.75 62.5625 53.125 62.5625C54.6667 62.5625 55.875 62.0833 56.75 61.125L82.5 35.25C83.0417 34.7083 83.4375 34.125 83.6875 33.5C83.9375 32.875 84.0625 32.2083 84.0625 31.5C84.0625 30.0833 83.5417 28.8333 82.5 27.75L56.75 1.625C55.8333 0.625 54.625 0.125 53.125 0.125C51.7083 0.125 50.5208 0.625 49.5625 1.625C48.6458 2.58333 48.1875 3.79167 48.1875 5.25C48.1875 5.875 48.2917 6.5 48.5 7.125C48.75 7.75 49.1042 8.3125 49.5625 8.8125L66.1875 25.25C64.5625 24.9167 62.8333 24.6667 61 24.5C59.2083 24.2917 57.3542 24.1875 55.4375 24.1875C47.7708 24.1875 40.5833 25.625 33.875 28.5C27.2083 31.3333 21.3542 35.2708 16.3125 40.3125C11.2708 45.3542 7.3125 51.2292 4.4375 57.9375C1.60417 64.6042 0.1875 71.75 0.1875 79.375Z" fill="white"/>
</svg>
