<?xml version="1.0" encoding="UTF-8"?>
<svg xmlns="http://www.w3.org/2000/svg" xmlns:xlink="http://www.w3.org/1999/xlink" width="24" height="20.4" viewBox="0 0 24 20.4" version="1.1">
<g id="surface1">
<path style=" stroke:none;fill-rule:nonzero;fill:rgb(100%,100%,100%);fill-opacity:1;" d="M 0.945312 16.96875 C 0.945312 17.9375 1.191406 18.664062 1.679688 19.144531 C 2.171875 19.632812 2.910156 19.875 3.890625 19.875 L 20.109375 19.875 C 21.097656 19.875 21.835938 19.632812 22.320312 19.144531 C 22.808594 18.664062 23.054688 17.9375 23.054688 16.96875 L 23.054688 5.523438 C 23.054688 4.554688 22.808594 3.828125 22.320312 3.347656 C 21.835938 2.859375 21.097656 2.617188 20.109375 2.617188 L 13.546875 2.617188 C 13.339844 2.617188 13.164062 2.691406 13.011719 2.839844 C 12.863281 2.984375 12.789062 3.160156 12.789062 3.367188 C 12.789062 3.570312 12.863281 3.75 13.011719 3.898438 C 13.164062 4.050781 13.339844 4.125 13.546875 4.125 L 20.089844 4.125 C 20.554688 4.125 20.910156 4.25 21.160156 4.5 C 21.414062 4.742188 21.542969 5.109375 21.542969 5.597656 L 21.542969 16.894531 C 21.542969 17.382812 21.414062 17.75 21.160156 18 C 20.910156 18.242188 20.554688 18.367188 20.089844 18.367188 L 3.910156 18.367188 C 3.441406 18.367188 3.082031 18.242188 2.832031 18 C 2.582031 17.75 2.457031 17.382812 2.457031 16.894531 L 2.457031 5.597656 C 2.457031 5.109375 2.582031 4.742188 2.832031 4.5 C 3.082031 4.25 3.441406 4.125 3.910156 4.125 L 6.289062 4.125 L 6.289062 5.511719 C 6.289062 5.84375 6.386719 6.054688 6.582031 6.140625 C 6.78125 6.222656 7.007812 6.171875 7.265625 5.992188 L 10.257812 3.890625 C 10.46875 3.742188 10.574219 3.566406 10.574219 3.367188 C 10.582031 3.164062 10.476562 2.992188 10.257812 2.839844 L 7.273438 0.742188 C 7.011719 0.554688 6.78125 0.503906 6.582031 0.589844 C 6.386719 0.671875 6.289062 0.882812 6.289062 1.21875 L 6.289062 2.617188 L 3.890625 2.617188 C 2.910156 2.617188 2.171875 2.859375 1.679688 3.347656 C 1.191406 3.828125 0.945312 4.554688 0.945312 5.523438 Z M 0.945312 16.96875 "/>
</g>
</svg>
