<?xml version="1.0" encoding="UTF-8"?>
<svg xmlns="http://www.w3.org/2000/svg" xmlns:xlink="http://www.w3.org/1999/xlink" width="24" height="22.5" viewBox="0 0 24 22.5" version="1.1">
<g id="surface1">
<path style=" stroke:none;fill-rule:nonzero;fill:rgb(100%,100%,100%);fill-opacity:1;" d="M 4.886719 21.84375 L 19.101562 21.84375 C 20.328125 21.84375 21.246094 21.539062 21.855469 20.929688 C 22.472656 20.328125 22.78125 19.421875 22.78125 18.210938 L 22.78125 3.902344 C 22.78125 2.691406 22.472656 1.785156 21.855469 1.183594 C 21.246094 0.574219 20.328125 0.269531 19.101562 0.269531 L 4.886719 0.269531 C 3.660156 0.269531 2.738281 0.574219 2.121094 1.183594 C 1.511719 1.785156 1.207031 2.691406 1.207031 3.902344 L 1.207031 18.210938 C 1.207031 19.421875 1.511719 20.328125 2.121094 20.929688 C 2.738281 21.539062 3.660156 21.84375 4.886719 21.84375 Z M 4.910156 19.957031 C 4.324219 19.957031 3.875 19.804688 3.5625 19.5 C 3.25 19.1875 3.09375 18.726562 3.09375 18.117188 L 3.09375 3.996094 C 3.09375 3.386719 3.25 2.929688 3.5625 2.625 C 3.875 2.3125 4.324219 2.15625 4.910156 2.15625 L 19.078125 2.15625 C 19.65625 2.15625 20.101562 2.3125 20.414062 2.625 C 20.734375 2.929688 20.894531 3.386719 20.894531 3.996094 L 20.894531 18.117188 C 20.894531 18.726562 20.734375 19.1875 20.414062 19.5 C 20.101562 19.804688 19.65625 19.957031 19.078125 19.957031 Z M 12.023438 5.0625 C 11.765625 5.0625 11.554688 5.144531 11.390625 5.308594 C 11.226562 5.472656 11.144531 5.683594 11.144531 5.941406 L 11.144531 11.800781 L 11.226562 14.273438 L 10.054688 12.867188 L 8.660156 11.460938 C 8.488281 11.289062 8.28125 11.203125 8.039062 11.203125 C 7.796875 11.203125 7.59375 11.285156 7.429688 11.449219 C 7.273438 11.613281 7.195312 11.8125 7.195312 12.046875 C 7.195312 12.304688 7.273438 12.507812 7.429688 12.65625 L 11.34375 16.558594 C 11.5625 16.777344 11.789062 16.886719 12.023438 16.886719 C 12.257812 16.886719 12.484375 16.777344 12.703125 16.558594 L 16.617188 12.65625 C 16.773438 12.5 16.851562 12.296875 16.851562 12.046875 C 16.851562 11.8125 16.769531 11.613281 16.605469 11.449219 C 16.441406 11.285156 16.238281 11.203125 15.996094 11.203125 C 15.738281 11.203125 15.53125 11.289062 15.375 11.460938 L 13.992188 12.867188 L 12.808594 14.285156 L 12.890625 11.800781 L 12.890625 5.941406 C 12.890625 5.683594 12.808594 5.472656 12.644531 5.308594 C 12.480469 5.144531 12.273438 5.0625 12.023438 5.0625 Z M 12.023438 5.0625 "/>
</g>
</svg>
