<?xml version="1.0" encoding="UTF-8"?>
<svg xmlns="http://www.w3.org/2000/svg" xmlns:xlink="http://www.w3.org/1999/xlink" width="24" height="25.5" viewBox="0 0 24 25.5" version="1.1">
<g id="surface1">
<path style=" stroke:none;fill-rule:nonzero;fill:rgb(100%,100%,100%);fill-opacity:1;" d="M 12 24.492188 C 13.632812 24.492188 15.167969 24.179688 16.605469 23.554688 C 18.050781 22.929688 19.324219 22.066406 20.425781 20.964844 C 21.527344 19.863281 22.390625 18.59375 23.015625 17.15625 C 23.640625 15.710938 23.953125 14.171875 23.953125 12.539062 C 23.953125 10.90625 23.640625 9.371094 23.015625 7.933594 C 22.390625 6.488281 21.527344 5.214844 20.425781 4.113281 C 19.324219 3.011719 18.050781 2.148438 16.605469 1.523438 C 15.160156 0.898438 13.621094 0.585938 11.988281 0.585938 C 10.355469 0.585938 8.816406 0.898438 7.371094 1.523438 C 5.933594 2.148438 4.664062 3.011719 3.5625 4.113281 C 2.46875 5.214844 1.609375 6.488281 0.984375 7.933594 C 0.359375 9.371094 0.046875 10.90625 0.046875 12.539062 C 0.046875 14.171875 0.359375 15.710938 0.984375 17.15625 C 1.609375 18.59375 2.472656 19.863281 3.574219 20.964844 C 4.675781 22.066406 5.945312 22.929688 7.382812 23.554688 C 8.828125 24.179688 10.367188 24.492188 12 24.492188 Z M 12 22.5 C 10.617188 22.5 9.324219 22.242188 8.121094 21.726562 C 6.917969 21.210938 5.859375 20.5 4.945312 19.59375 C 4.039062 18.679688 3.328125 17.621094 2.8125 16.417969 C 2.304688 15.214844 2.050781 13.921875 2.050781 12.539062 C 2.050781 11.15625 2.304688 9.863281 2.8125 8.660156 C 3.328125 7.457031 4.039062 6.398438 4.945312 5.484375 C 5.851562 4.570312 6.90625 3.859375 8.109375 3.351562 C 9.3125 2.835938 10.605469 2.578125 11.988281 2.578125 C 13.371094 2.578125 14.664062 2.835938 15.867188 3.351562 C 17.078125 3.859375 18.136719 4.570312 19.042969 5.484375 C 19.957031 6.398438 20.671875 7.457031 21.1875 8.660156 C 21.703125 9.863281 21.960938 11.15625 21.960938 12.539062 C 21.960938 13.921875 21.703125 15.214844 21.1875 16.417969 C 20.679688 17.621094 19.96875 18.679688 19.054688 19.59375 C 18.140625 20.5 17.082031 21.210938 15.878906 21.726562 C 14.675781 22.242188 13.382812 22.5 12 22.5 Z M 6.820312 12.375 L 10.875 12.375 C 11.179688 12.375 11.417969 12.300781 11.589844 12.152344 C 11.761719 12.003906 11.847656 11.757812 11.847656 11.414062 L 11.847656 7.335938 C 11.847656 7.101562 11.765625 6.90625 11.601562 6.75 C 11.445312 6.585938 11.25 6.503906 11.015625 6.503906 C 10.789062 6.503906 10.59375 6.585938 10.429688 6.75 C 10.273438 6.90625 10.195312 7.101562 10.195312 7.335938 L 10.195312 7.898438 L 10.3125 9.761719 L 7.265625 6.574219 C 7.09375 6.394531 6.882812 6.304688 6.632812 6.304688 C 6.390625 6.304688 6.183594 6.390625 6.011719 6.5625 C 5.847656 6.734375 5.765625 6.945312 5.765625 7.195312 C 5.773438 7.4375 5.859375 7.640625 6.023438 7.804688 L 9.1875 10.851562 L 7.394531 10.734375 L 6.820312 10.722656 C 6.59375 10.722656 6.398438 10.804688 6.234375 10.96875 C 6.070312 11.132812 5.988281 11.328125 5.988281 11.554688 C 5.988281 11.78125 6.070312 11.976562 6.234375 12.140625 C 6.398438 12.296875 6.59375 12.375 6.820312 12.375 Z M 12.960938 18.550781 C 13.195312 18.550781 13.390625 18.472656 13.546875 18.316406 C 13.710938 18.152344 13.792969 17.953125 13.792969 17.71875 L 13.792969 17.15625 L 13.664062 15.292969 L 16.722656 18.480469 C 16.894531 18.660156 17.101562 18.75 17.34375 18.75 C 17.585938 18.75 17.792969 18.664062 17.964844 18.492188 C 18.136719 18.320312 18.21875 18.113281 18.210938 17.871094 C 18.210938 17.621094 18.125 17.414062 17.953125 17.25 L 14.800781 14.203125 L 16.59375 14.320312 L 17.167969 14.332031 C 17.394531 14.332031 17.585938 14.25 17.742188 14.085938 C 17.90625 13.921875 17.988281 13.726562 17.988281 13.5 C 17.988281 13.273438 17.90625 13.082031 17.742188 12.925781 C 17.585938 12.761719 17.394531 12.679688 17.167969 12.679688 L 13.101562 12.679688 C 12.796875 12.679688 12.558594 12.753906 12.386719 12.902344 C 12.222656 13.050781 12.140625 13.296875 12.140625 13.640625 L 12.140625 17.71875 C 12.140625 17.953125 12.21875 18.152344 12.375 18.316406 C 12.539062 18.472656 12.734375 18.550781 12.960938 18.550781 Z M 12.960938 18.550781 "/>
</g>
</svg>
