<svg width="16" height="17" viewBox="0 0 16 17" fill="none" xmlns="http://www.w3.org/2000/svg">
<path d="M8 16.3281C9.08854 16.3281 10.112 16.1198 11.0703 15.7031C12.0339 15.2865 12.8828 14.7109 13.6172 13.9766C14.3516 13.2422 14.9271 12.3958 15.3438 11.4375C15.7604 10.474 15.9688 9.44792 15.9688 8.35938C15.9688 7.27083 15.7604 6.2474 15.3438 5.28906C14.9271 4.32552 14.3516 3.47656 13.6172 2.74219C12.8828 2.00781 12.0339 1.43229 11.0703 1.01562C10.1068 0.598958 9.08073 0.390625 7.99219 0.390625C6.90365 0.390625 5.8776 0.598958 4.91406 1.01562C3.95573 1.43229 3.10938 2.00781 2.375 2.74219C1.64583 3.47656 1.07292 4.32552 0.65625 5.28906C0.239583 6.2474 0.03125 7.27083 0.03125 8.35938C0.03125 9.44792 0.239583 10.474 0.65625 11.4375C1.07292 12.3958 1.64844 13.2422 2.38281 13.9766C3.11719 14.7109 3.96354 15.2865 4.92188 15.7031C5.88542 16.1198 6.91146 16.3281 8 16.3281ZM8 15C7.07812 15 6.21615 14.8281 5.41406 14.4844C4.61198 14.1406 3.90625 13.6667 3.29688 13.0625C2.69271 12.4531 2.21875 11.7474 1.875 10.9453C1.53646 10.1432 1.36719 9.28125 1.36719 8.35938C1.36719 7.4375 1.53646 6.57552 1.875 5.77344C2.21875 4.97135 2.69271 4.26562 3.29688 3.65625C3.90104 3.04688 4.60417 2.57292 5.40625 2.23438C6.20833 1.89062 7.07031 1.71875 7.99219 1.71875C8.91406 1.71875 9.77604 1.89062 10.5781 2.23438C11.3854 2.57292 12.0911 3.04688 12.6953 3.65625C13.3047 4.26562 13.7812 4.97135 14.125 5.77344C14.4688 6.57552 14.6406 7.4375 14.6406 8.35938C14.6406 9.28125 14.4688 10.1432 14.125 10.9453C13.7865 11.7474 13.3125 12.4531 12.7031 13.0625C12.0938 13.6667 11.388 14.1406 10.5859 14.4844C9.78385 14.8281 8.92188 15 8 15ZM8.71875 4.33594C8.09375 4.33594 7.55469 4.47656 7.10156 4.75781C6.65365 5.03385 6.30729 5.41146 6.0625 5.89062C5.82292 6.36979 5.70312 6.91146 5.70312 7.51562V9.85156L5.73438 10.7734L5.25 10.1562L4.46094 9.35156C4.35677 9.23177 4.22396 9.17188 4.0625 9.17188C3.90104 9.17188 3.76562 9.22656 3.65625 9.33594C3.54688 9.44531 3.49219 9.57812 3.49219 9.73438C3.49219 9.89583 3.54948 10.0286 3.66406 10.1328L5.77344 12.2109C5.90885 12.3516 6.06771 12.4219 6.25 12.4219C6.42188 12.4219 6.57812 12.3516 6.71875 12.2109L8.85156 10.125C8.96094 10.0156 9.01562 9.88281 9.01562 9.72656C9.01562 9.57031 8.96094 9.4401 8.85156 9.33594C8.74219 9.22656 8.60677 9.17188 8.44531 9.17188C8.27865 9.17188 8.14323 9.22917 8.03906 9.34375L7.10156 10.3203L6.76562 10.7734L6.79688 9.85156V7.51562C6.79688 6.94271 6.95573 6.46094 7.27344 6.07031C7.59635 5.67969 8.05729 5.48438 8.65625 5.48438C9.27604 5.48438 9.76302 5.67708 10.1172 6.0625C10.4766 6.44792 10.6562 6.9349 10.6562 7.52344C10.6562 7.55469 10.6562 7.65885 10.6562 7.83594C10.6562 8.00781 10.6562 8.17708 10.6562 8.34375C10.6562 8.51042 10.6562 8.59896 10.6562 8.60938C10.6562 8.77604 10.7031 8.91667 10.7969 9.03125C10.8906 9.14583 11.0286 9.20312 11.2109 9.20312C11.3932 9.20312 11.5312 9.14583 11.625 9.03125C11.724 8.91667 11.7734 8.77083 11.7734 8.59375C11.7734 8.58333 11.7734 8.4974 11.7734 8.33594C11.7734 8.16927 11.7734 8 11.7734 7.82812C11.7734 7.65625 11.7734 7.55469 11.7734 7.52344C11.7734 6.91927 11.6484 6.3776 11.3984 5.89844C11.1536 5.41406 10.8021 5.03385 10.3438 4.75781C9.89062 4.47656 9.34896 4.33594 8.71875 4.33594Z" fill="white"/>
</svg>
