<svg width="131" height="96" viewBox="0 0 131 96" fill="none" xmlns="http://www.w3.org/2000/svg">
<path d="M71.5625 95.0625C73.0625 95.0625 74.4167 94.5 75.625 93.375L117.188 51.875C117.812 51.2917 118.271 50.6458 118.562 49.9375C118.896 49.2292 119.062 48.4792 119.062 47.6875C119.062 46.9375 118.896 46.2083 118.562 45.5C118.271 44.7917 117.812 44.125 117.188 43.5L75.625 2.0625C74.4167 0.895833 73.0625 0.3125 71.5625 0.3125C70.0208 0.3125 68.7292 0.833333 67.6875 1.875C66.6458 2.875 66.125 4.14583 66.125 5.6875C66.125 6.4375 66.25 7.16667 66.5 7.875C66.75 8.58333 67.125 9.1875 67.625 9.6875L81.625 23.875L106.188 46.3125L107.438 42.8125L88.8125 42.125H6.4375C4.8125 42.125 3.47917 42.6458 2.4375 43.6875C1.4375 44.7292 0.9375 46.0625 0.9375 47.6875C0.9375 49.3125 1.4375 50.6667 2.4375 51.75C3.47917 52.7917 4.8125 53.3125 6.4375 53.3125H88.8125L107.438 52.625L106.188 49.1875L81.625 71.5L67.625 85.75C67.125 86.25 66.75 86.8542 66.5 87.5625C66.25 88.2708 66.125 88.9792 66.125 89.6875C66.125 91.2708 66.6458 92.5625 67.6875 93.5625C68.7292 94.5625 70.0208 95.0625 71.5625 95.0625ZM124.625 95.0625C126.25 95.0625 127.583 94.5625 128.625 93.5625C129.708 92.5625 130.25 91.2708 130.25 89.6875V5.875C130.25 4.25 129.708 2.91667 128.625 1.875C127.583 0.833333 126.25 0.3125 124.625 0.3125C123 0.3125 121.667 0.833333 120.625 1.875C119.583 2.91667 119.062 4.25 119.062 5.875V89.6875C119.062 91.2708 119.583 92.5625 120.625 93.5625C121.667 94.5625 123 95.0625 124.625 95.0625Z" fill="white"/>
</svg>
