<svg width="16" height="17" viewBox="0 0 16 17" fill="none" xmlns="http://www.w3.org/2000/svg">
<path d="M8 16.3281C9.08854 16.3281 10.112 16.1198 11.0703 15.7031C12.0339 15.2865 12.8828 14.7109 13.6172 13.9766C14.3516 13.2422 14.9271 12.3958 15.3438 11.4375C15.7604 10.474 15.9688 9.44792 15.9688 8.35938C15.9688 7.27083 15.7604 6.2474 15.3438 5.28906C14.9271 4.32552 14.3516 3.47656 13.6172 2.74219C12.8828 2.00781 12.0339 1.43229 11.0703 1.01562C10.1068 0.598958 9.08073 0.390625 7.99219 0.390625C6.90365 0.390625 5.8776 0.598958 4.91406 1.01562C3.95573 1.43229 3.10938 2.00781 2.375 2.74219C1.64583 3.47656 1.07292 4.32552 0.65625 5.28906C0.239583 6.2474 0.03125 7.27083 0.03125 8.35938C0.03125 9.44792 0.239583 10.474 0.65625 11.4375C1.07292 12.3958 1.64844 13.2422 2.38281 13.9766C3.11719 14.7109 3.96354 15.2865 4.92188 15.7031C5.88542 16.1198 6.91146 16.3281 8 16.3281ZM8 15C7.07812 15 6.21615 14.8281 5.41406 14.4844C4.61198 14.1406 3.90625 13.6667 3.29688 13.0625C2.69271 12.4531 2.21875 11.7474 1.875 10.9453C1.53646 10.1432 1.36719 9.28125 1.36719 8.35938C1.36719 7.4375 1.53646 6.57552 1.875 5.77344C2.21875 4.97135 2.69271 4.26562 3.29688 3.65625C3.90104 3.04688 4.60417 2.57292 5.40625 2.23438C6.20833 1.89062 7.07031 1.71875 7.99219 1.71875C8.91406 1.71875 9.77604 1.89062 10.5781 2.23438C11.3854 2.57292 12.0911 3.04688 12.6953 3.65625C13.3047 4.26562 13.7812 4.97135 14.125 5.77344C14.4688 6.57552 14.6406 7.4375 14.6406 8.35938C14.6406 9.28125 14.4688 10.1432 14.125 10.9453C13.7865 11.7474 13.3125 12.4531 12.7031 13.0625C12.0938 13.6667 11.388 14.1406 10.5859 14.4844C9.78385 14.8281 8.92188 15 8 15ZM6.89844 12.3828C7.52344 12.3828 8.0599 12.2448 8.50781 11.9688C8.96094 11.6927 9.30729 11.3151 9.54688 10.8359C9.79167 10.3568 9.91406 9.8125 9.91406 9.20312V6.875L9.89062 5.94531L10.375 6.5625L11.1562 7.375C11.2656 7.48958 11.401 7.54688 11.5625 7.54688C11.724 7.54688 11.8594 7.49479 11.9688 7.39062C12.0781 7.28125 12.1328 7.14583 12.1328 6.98438C12.1328 6.82292 12.0755 6.6901 11.9609 6.58594L9.85156 4.50781C9.71094 4.3724 9.55208 4.30469 9.375 4.30469C9.19792 4.30469 9.03906 4.3724 8.89844 4.50781L6.77344 6.59375C6.66406 6.70312 6.60938 6.83594 6.60938 6.99219C6.60938 7.14844 6.66406 7.28125 6.77344 7.39062C6.88281 7.49479 7.01823 7.54688 7.17969 7.54688C7.34115 7.54688 7.47396 7.49219 7.57812 7.38281L8.51562 6.39844L8.85938 5.94531L8.82031 6.875V9.20312C8.82031 9.77604 8.65885 10.2578 8.33594 10.6484C8.01823 11.0391 7.5599 11.2344 6.96094 11.2344C6.34635 11.2344 5.85938 11.0417 5.5 10.6562C5.14583 10.2708 4.96875 9.78385 4.96875 9.19531C4.96875 9.16406 4.96875 9.0625 4.96875 8.89062C4.96875 8.71354 4.96875 8.54167 4.96875 8.375C4.96875 8.20833 4.96875 8.11979 4.96875 8.10938C4.96875 7.94271 4.91927 7.80208 4.82031 7.6875C4.72656 7.57292 4.59115 7.51562 4.41406 7.51562C4.23177 7.51562 4.09115 7.57552 3.99219 7.69531C3.89844 7.8099 3.85156 7.95312 3.85156 8.125C3.85156 8.13542 3.85156 8.22396 3.85156 8.39062C3.85156 8.55729 3.85156 8.72656 3.85156 8.89844C3.85156 9.0651 3.85156 9.16406 3.85156 9.19531C3.85156 9.80469 3.97396 10.349 4.21875 10.8281C4.46875 11.3073 4.82031 11.6875 5.27344 11.9688C5.73177 12.2448 6.27344 12.3828 6.89844 12.3828Z" fill="white"/>
</svg>
