<svg width="16" height="17" viewBox="0 0 16 17" fill="none" xmlns="http://www.w3.org/2000/svg">
<path d="M8 16.3281C9.08854 16.3281 10.112 16.1198 11.0703 15.7031C12.0339 15.2865 12.8828 14.7109 13.6172 13.9766C14.3516 13.2422 14.9271 12.3958 15.3438 11.4375C15.7604 10.474 15.9688 9.44792 15.9688 8.35938C15.9688 7.27083 15.7604 6.2474 15.3438 5.28906C14.9271 4.32552 14.3516 3.47656 13.6172 2.74219C12.8828 2.00781 12.0339 1.43229 11.0703 1.01562C10.1068 0.598958 9.08073 0.390625 7.99219 0.390625C6.90365 0.390625 5.8776 0.598958 4.91406 1.01562C3.95573 1.43229 3.10938 2.00781 2.375 2.74219C1.64583 3.47656 1.07292 4.32552 0.65625 5.28906C0.239583 6.2474 0.03125 7.27083 0.03125 8.35938C0.03125 9.44792 0.239583 10.474 0.65625 11.4375C1.07292 12.3958 1.64844 13.2422 2.38281 13.9766C3.11719 14.7109 3.96354 15.2865 4.92188 15.7031C5.88542 16.1198 6.91146 16.3281 8 16.3281ZM10.5234 6.35938C10.7005 6.35938 10.8411 6.41927 10.9453 6.53906C11.0547 6.65885 11.1094 6.8151 11.1094 7.00781V10.7969C11.1094 11.0365 11.0495 11.2083 10.9297 11.3125C10.8099 11.4167 10.6458 11.4688 10.4375 11.4688H6.61719C6.42969 11.4688 6.27865 11.4141 6.16406 11.3047C6.04948 11.1953 5.99219 11.0521 5.99219 10.875C5.99219 10.6979 6.04948 10.5547 6.16406 10.4453C6.28385 10.3359 6.4401 10.2812 6.63281 10.2812H8.08594L9.28125 10.4062L8.03125 9.23438L5.07031 6.28125C4.9401 6.15104 4.875 6.00781 4.875 5.85156C4.875 5.66406 4.92969 5.51562 5.03906 5.40625C5.14844 5.29688 5.28906 5.24219 5.46094 5.24219C5.5599 5.24219 5.64844 5.26042 5.72656 5.29688C5.80469 5.32812 5.8724 5.3724 5.92969 5.42969L8.88281 8.39062L10.0391 9.625L9.92188 8.375V6.99219C9.92188 6.79427 9.97656 6.64062 10.0859 6.53125C10.1953 6.41667 10.3411 6.35938 10.5234 6.35938Z" fill="white"/>
</svg>
