<svg xmlns="http://www.w3.org/2000/svg" width="24" height="24"><path style="stroke:none;fill-rule:nonzero;fill:#fff;fill-opacity:1" d="M7.828 12.777c0-.726.152-1.398.457-2.015a4.59 4.59 0 0 1 1.242-1.54 3.614 3.614 0 0 1 1.723-.773V7.402c0-.242.094-.402.281-.476.196-.074.38-.035.551.125l1.957 1.773c.164.153.246.32.246.512a.676.676 0 0 1-.246.512l-1.957 1.8c-.172.16-.355.2-.55.125-.188-.074-.282-.23-.282-.472v-1.239a2.7 2.7 0 0 0-1.383 1.012 2.853 2.853 0 0 0-.55 1.727c0 .531.12 1.015.363 1.449.242.434.566.781.972 1.04.407.245.856.374 1.348.374.5 0 .953-.129 1.36-.375.406-.258.726-.605.96-1.039.242-.441.364-.926.364-1.45 0-.21.078-.417.222-.562a.699.699 0 0 1 .52-.238.7.7 0 0 1 .523.238.791.791 0 0 1 .223.563c0 .824-.188 1.578-.563 2.261a4.384 4.384 0 0 1-1.511 1.614c-.633.402-1.36.61-2.098.597a3.831 3.831 0 0 1-2.11-.597 4.58 4.58 0 0 1-1.5-1.625 4.638 4.638 0 0 1-.562-2.274Zm4.266 10.672a.95.95 0 0 0 .422-.113c.152-.059.296-.133.433-.223 2.203-1.5 4.11-3.07 5.719-4.715 1.617-1.648 2.867-3.34 3.75-5.074.883-1.742 1.324-3.5 1.324-5.273 0-1.11-.168-2.121-.504-3.04a7.268 7.268 0 0 0-1.383-2.398 6.158 6.158 0 0 0-2.085-1.562A6.021 6.021 0 0 0 17.203.5c-1.14 0-2.144.313-3.012.938-.867.617-1.566 1.44-2.097 2.476a6.801 6.801 0 0 0-2.086-2.477C9.14.813 8.133.5 6.984.5a6.034 6.034 0 0 0-2.566.55c-.79.368-1.48.887-2.074 1.563A7.478 7.478 0 0 0 .949 5.012C.621 5.93.457 6.942.457 8.05c0 1.773.441 3.531 1.324 5.273.883 1.735 2.13 3.426 3.739 5.074 1.617 1.645 3.527 3.215 5.73 4.715.125.082.266.157.422.223.164.078.305.113.422.113Zm0 0"/></svg>