<svg width="117" height="96" viewBox="0 0 117 96" fill="none" xmlns="http://www.w3.org/2000/svg">
<path d="M117 47.875C117 46.2917 116.375 44.8958 115.125 43.6875L73.6875 2.375C73.0208 1.70833 72.3333 1.22917 71.625 0.9375C70.9583 0.645833 70.25 0.5 69.5 0.5C67.9583 0.5 66.6667 1.02083 65.625 2.0625C64.5833 3.0625 64.0625 4.33333 64.0625 5.875C64.0625 6.625 64.1875 7.35417 64.4375 8.0625C64.6875 8.72917 65.0625 9.3125 65.5625 9.8125L79.5625 24.0625L104.375 46.6875L105.625 43.5625L85.5 42.3125H6.4375C4.8125 42.3125 3.47917 42.8333 2.4375 43.875C1.4375 44.9167 0.9375 46.25 0.9375 47.875C0.9375 49.5 1.4375 50.8333 2.4375 51.875C3.47917 52.9167 4.8125 53.4375 6.4375 53.4375H85.5L105.625 52.1875L104.375 49.125L79.5625 71.6875L65.5625 85.9375C65.0625 86.4375 64.6875 87.0417 64.4375 87.75C64.1875 88.4167 64.0625 89.125 64.0625 89.875C64.0625 91.4167 64.5833 92.6875 65.625 93.6875C66.6667 94.7292 67.9583 95.25 69.5 95.25C71 95.25 72.3542 94.6667 73.5625 93.5L115.125 52.0625C116.375 50.8542 117 49.4583 117 47.875Z" fill="white"/>
</svg>
