<svg width="14" height="13" viewBox="0 0 14 13" fill="none" xmlns="http://www.w3.org/2000/svg">
<path d="M0.117188 6.21875C0.117188 6.42188 0.179688 6.58854 0.304688 6.71875C0.434896 6.84896 0.601562 6.91406 0.804688 6.91406H8.70312L10.375 6.85938L7.80469 9.20312L6.07812 10.9531C6.01562 11.0208 5.96615 11.099 5.92969 11.1875C5.89844 11.276 5.88281 11.3672 5.88281 11.4609C5.88281 11.6536 5.94792 11.8151 6.07812 11.9453C6.20833 12.0703 6.36979 12.1328 6.5625 12.1328C6.66146 12.1328 6.7526 12.1146 6.83594 12.0781C6.92448 12.0417 7.00781 11.9844 7.08594 11.9062L12.2656 6.74219C12.3438 6.66406 12.4036 6.58073 12.4453 6.49219C12.487 6.40365 12.5078 6.3125 12.5078 6.21875C12.5078 6.11979 12.487 6.02604 12.4453 5.9375C12.4036 5.84896 12.3438 5.76562 12.2656 5.6875L7.08594 0.523438C7.00781 0.445312 6.92448 0.388021 6.83594 0.351562C6.7526 0.309896 6.66146 0.289062 6.5625 0.289062C6.36979 0.289062 6.20833 0.354167 6.07812 0.484375C5.94792 0.614583 5.88281 0.776042 5.88281 0.96875C5.88281 1.0625 5.89844 1.15365 5.92969 1.24219C5.96615 1.33073 6.01562 1.40625 6.07812 1.46875L7.80469 3.22656L10.3672 5.57812L8.70312 5.51562H0.804688C0.601562 5.51562 0.434896 5.58073 0.304688 5.71094C0.179688 5.84115 0.117188 6.01042 0.117188 6.21875ZM12.4844 11.4922C12.4844 11.6901 12.5495 11.8516 12.6797 11.9766C12.8099 12.1016 12.9792 12.1641 13.1875 12.1641C13.3906 12.1641 13.5573 12.1016 13.6875 11.9766C13.8177 11.8516 13.8828 11.6901 13.8828 11.4922V0.953125C13.8828 0.75 13.8177 0.585938 13.6875 0.460938C13.5573 0.330729 13.3906 0.265625 13.1875 0.265625C12.9792 0.265625 12.8099 0.330729 12.6797 0.460938C12.5495 0.585938 12.4844 0.75 12.4844 0.953125V11.4922Z" fill="white"/>
</svg>
