<svg width="116" height="116" viewBox="0 0 116 116" fill="none" xmlns="http://www.w3.org/2000/svg">
<path d="M20.5625 115.5H96.375C102.917 115.5 107.812 113.875 111.062 110.625C114.354 107.417 116 102.583 116 96.125V19.8125C116 13.3542 114.354 8.52083 111.062 5.3125C107.812 2.0625 102.917 0.4375 96.375 0.4375H20.5625C14.0208 0.4375 9.10417 2.0625 5.8125 5.3125C2.5625 8.52083 0.9375 13.3542 0.9375 19.8125V96.125C0.9375 102.583 2.5625 107.417 5.8125 110.625C9.10417 113.875 14.0208 115.5 20.5625 115.5ZM78.75 73.8125C77.2917 73.8125 76.125 73.375 75.25 72.5C74.375 71.5833 73.9375 70.3333 73.9375 68.75V57.6875L74.875 47.6875L65.625 57.5625L42 81.25C41.5417 81.7083 41 82.0833 40.375 82.375C39.75 82.625 39.0417 82.75 38.25 82.75C36.875 82.75 35.75 82.3125 34.875 81.4375C34 80.5625 33.5625 79.375 33.5625 77.875C33.5625 76.625 34.0833 75.4792 35.125 74.4375L58.8125 50.8125L68.8125 41.4375L59.25 42.4375H47.625C46.0833 42.4375 44.8333 42 43.875 41.125C42.9583 40.25 42.5 39.1042 42.5 37.6875C42.5 36.2708 42.9583 35.125 43.875 34.25C44.7917 33.375 46 32.9375 47.5 32.9375H78.0625C79.7292 32.9375 81.0417 33.3542 82 34.1875C82.9583 35.0208 83.4375 36.3958 83.4375 38.3125V68.625C83.4375 70.1667 83 71.4167 82.125 72.375C81.2917 73.3333 80.1667 73.8125 78.75 73.8125Z" fill="white"/>
</svg>
