<?xml version="1.0" encoding="UTF-8"?>
<svg xmlns="http://www.w3.org/2000/svg" xmlns:xlink="http://www.w3.org/1999/xlink" width="24" height="25.5" viewBox="0 0 24 25.5" version="1.1">
<g id="surface1">
<path style=" stroke:none;fill-rule:nonzero;fill:rgb(100%,100%,100%);fill-opacity:1;" d="M 12 24.492188 C 13.632812 24.492188 15.167969 24.179688 16.605469 23.554688 C 18.050781 22.929688 19.324219 22.066406 20.425781 20.964844 C 21.527344 19.863281 22.390625 18.59375 23.015625 17.15625 C 23.640625 15.710938 23.953125 14.171875 23.953125 12.539062 C 23.953125 10.90625 23.640625 9.371094 23.015625 7.933594 C 22.390625 6.488281 21.527344 5.214844 20.425781 4.113281 C 19.324219 3.011719 18.050781 2.148438 16.605469 1.523438 C 15.160156 0.898438 13.621094 0.585938 11.988281 0.585938 C 10.355469 0.585938 8.816406 0.898438 7.371094 1.523438 C 5.933594 2.148438 4.664062 3.011719 3.5625 4.113281 C 2.46875 5.214844 1.609375 6.488281 0.984375 7.933594 C 0.359375 9.371094 0.046875 10.90625 0.046875 12.539062 C 0.046875 14.171875 0.359375 15.710938 0.984375 17.15625 C 1.609375 18.59375 2.472656 19.863281 3.574219 20.964844 C 4.675781 22.066406 5.945312 22.929688 7.382812 23.554688 C 8.828125 24.179688 10.367188 24.492188 12 24.492188 Z M 6.925781 17.871094 C 6.683594 17.871094 6.484375 17.796875 6.328125 17.648438 C 6.171875 17.5 6.09375 17.308594 6.09375 17.074219 L 6.09375 7.992188 C 6.09375 7.757812 6.171875 7.566406 6.328125 7.417969 C 6.484375 7.261719 6.683594 7.183594 6.925781 7.183594 C 7.152344 7.183594 7.339844 7.261719 7.488281 7.417969 C 7.644531 7.566406 7.722656 7.757812 7.722656 7.992188 L 7.722656 17.074219 C 7.722656 17.308594 7.644531 17.5 7.488281 17.648438 C 7.339844 17.796875 7.152344 17.871094 6.925781 17.871094 Z M 19.59375 12.539062 C 19.59375 12.789062 19.515625 12.992188 19.359375 13.148438 C 19.210938 13.296875 19.019531 13.371094 18.785156 13.371094 L 13.253906 13.371094 L 11.027344 13.21875 L 13.488281 15.410156 L 14.25 16.113281 C 14.335938 16.183594 14.394531 16.269531 14.425781 16.371094 C 14.464844 16.464844 14.484375 16.574219 14.484375 16.699219 C 14.484375 16.925781 14.410156 17.113281 14.261719 17.261719 C 14.113281 17.410156 13.921875 17.484375 13.6875 17.484375 C 13.59375 17.484375 13.488281 17.460938 13.371094 17.414062 C 13.253906 17.359375 13.15625 17.292969 13.078125 17.214844 L 8.917969 13.148438 C 8.824219 13.0625 8.753906 12.96875 8.707031 12.867188 C 8.660156 12.765625 8.636719 12.65625 8.636719 12.539062 C 8.636719 12.429688 8.664062 12.324219 8.71875 12.222656 C 8.773438 12.113281 8.839844 12.015625 8.917969 11.929688 L 13.089844 7.828125 C 13.246094 7.664062 13.445312 7.582031 13.6875 7.582031 C 13.914062 7.582031 14.101562 7.65625 14.25 7.804688 C 14.40625 7.945312 14.484375 8.128906 14.484375 8.355469 C 14.484375 8.464844 14.464844 8.574219 14.425781 8.683594 C 14.394531 8.785156 14.335938 8.875 14.25 8.953125 L 13.5 9.679688 L 11.039062 11.859375 L 13.253906 11.742188 L 18.785156 11.742188 C 19.019531 11.742188 19.210938 11.820312 19.359375 11.976562 C 19.515625 12.125 19.59375 12.3125 19.59375 12.539062 Z M 19.59375 12.539062 "/>
</g>
</svg>
