<svg xmlns="http://www.w3.org/2000/svg" width="24" height="24"><path style="stroke:none;fill-rule:nonzero;fill:#fff;fill-opacity:1" d="M12 23.05c1.633 0 3.168-.292 4.605-.882a12.22 12.22 0 0 0 3.82-2.438 11.467 11.467 0 0 0 2.59-3.582c.626-1.363.938-2.808.938-4.347a10.2 10.2 0 0 0-.937-4.332 11.53 11.53 0 0 0-2.59-3.598 12.361 12.361 0 0 0-3.82-2.437A12.166 12.166 0 0 0 11.987.55c-1.633 0-3.172.293-4.617.883A12.307 12.307 0 0 0 3.562 3.87 11.523 11.523 0 0 0 .985 7.465 10.2 10.2 0 0 0 .047 11.8c0 1.539.312 2.984.937 4.347a11.467 11.467 0 0 0 2.59 3.582 12.236 12.236 0 0 0 3.809 2.438c1.445.59 2.984.883 4.617.883Zm6.21-11.269c0 .227-.116.45-.35.672l-4.067 3.848a.903.903 0 0 1-.645.242.905.905 0 0 1-.632-.238.796.796 0 0 1-.246-.598.8.8 0 0 1 .28-.617l1.5-1.39 1.466-1.157-2.567.098H6.68a.93.93 0 0 1-.656-.243.815.815 0 0 1-.257-.617c0-.25.086-.457.257-.62a.937.937 0 0 1 .657-.243h6.27l2.554.102L14.05 9.87l-1.5-1.402c-.188-.184-.281-.383-.281-.606a.798.798 0 0 1 .25-.59.902.902 0 0 1 .628-.238c.266 0 .48.078.645.235l4.066 3.847c.235.223.352.442.352.664Zm0 0"/></svg>