<?xml version="1.0" encoding="UTF-8"?>
<svg xmlns="http://www.w3.org/2000/svg" xmlns:xlink="http://www.w3.org/1999/xlink" width="24" height="25.5" viewBox="0 0 24 25.5" version="1.1">
<g id="surface1">
<path style=" stroke:none;fill-rule:nonzero;fill:rgb(100%,100%,100%);fill-opacity:1;" d="M 12 24.492188 C 13.632812 24.492188 15.167969 24.179688 16.605469 23.554688 C 18.050781 22.929688 19.324219 22.066406 20.425781 20.964844 C 21.527344 19.863281 22.390625 18.59375 23.015625 17.15625 C 23.640625 15.710938 23.953125 14.171875 23.953125 12.539062 C 23.953125 10.90625 23.640625 9.371094 23.015625 7.933594 C 22.390625 6.488281 21.527344 5.214844 20.425781 4.113281 C 19.324219 3.011719 18.050781 2.148438 16.605469 1.523438 C 15.160156 0.898438 13.621094 0.585938 11.988281 0.585938 C 10.355469 0.585938 8.816406 0.898438 7.371094 1.523438 C 5.933594 2.148438 4.664062 3.011719 3.5625 4.113281 C 2.46875 5.214844 1.609375 6.488281 0.984375 7.933594 C 0.359375 9.371094 0.046875 10.90625 0.046875 12.539062 C 0.046875 14.171875 0.359375 15.710938 0.984375 17.15625 C 1.609375 18.59375 2.472656 19.863281 3.574219 20.964844 C 4.675781 22.066406 5.945312 22.929688 7.382812 23.554688 C 8.828125 24.179688 10.367188 24.492188 12 24.492188 Z M 6.609375 12.539062 C 6.367188 12.539062 6.160156 12.453125 5.988281 12.28125 C 5.816406 12.109375 5.730469 11.898438 5.730469 11.648438 L 5.730469 7.300781 C 5.730469 6.933594 5.820312 6.671875 6 6.515625 C 6.179688 6.351562 6.433594 6.269531 6.761719 6.269531 L 11.097656 6.269531 C 11.339844 6.269531 11.546875 6.355469 11.71875 6.527344 C 11.890625 6.699219 11.976562 6.90625 11.976562 7.148438 C 11.976562 7.398438 11.890625 7.609375 11.71875 7.78125 C 11.546875 7.953125 11.339844 8.039062 11.097656 8.039062 L 10.488281 8.027344 L 8.589844 7.910156 L 11.378906 10.582031 C 11.566406 10.753906 11.660156 10.972656 11.660156 11.238281 C 11.667969 11.503906 11.578125 11.730469 11.390625 11.917969 C 11.210938 12.097656 10.988281 12.191406 10.722656 12.199219 C 10.464844 12.199219 10.242188 12.101562 10.054688 11.90625 L 7.382812 9.082031 L 7.5 11.050781 L 7.5 11.648438 C 7.5 11.898438 7.414062 12.109375 7.242188 12.28125 C 7.070312 12.453125 6.859375 12.539062 6.609375 12.539062 Z M 12.914062 18.820312 C 12.664062 18.820312 12.453125 18.734375 12.28125 18.5625 C 12.109375 18.390625 12.023438 18.183594 12.023438 17.941406 C 12.023438 17.691406 12.109375 17.480469 12.28125 17.308594 C 12.453125 17.136719 12.664062 17.050781 12.914062 17.050781 L 13.523438 17.0625 L 15.421875 17.179688 L 12.632812 14.507812 C 12.445312 14.335938 12.347656 14.117188 12.339844 13.851562 C 12.339844 13.585938 12.433594 13.359375 12.621094 13.171875 C 12.800781 12.992188 13.019531 12.902344 13.277344 12.902344 C 13.542969 12.894531 13.769531 12.988281 13.957031 13.183594 L 16.628906 16.007812 L 16.511719 14.039062 L 16.511719 13.441406 C 16.511719 13.191406 16.597656 12.980469 16.769531 12.808594 C 16.941406 12.636719 17.148438 12.550781 17.390625 12.550781 C 17.640625 12.550781 17.851562 12.636719 18.023438 12.808594 C 18.195312 12.980469 18.28125 13.191406 18.28125 13.441406 L 18.28125 17.789062 C 18.28125 18.15625 18.1875 18.421875 18 18.585938 C 17.820312 18.742188 17.566406 18.820312 17.238281 18.820312 Z M 12.914062 18.820312 "/>
</g>
</svg>
