<svg width="16" height="16" viewBox="0 0 16 16" fill="none" xmlns="http://www.w3.org/2000/svg">
<path d="M10.3047 0.9375C9.3099 0.9375 8.43229 1.15625 7.67188 1.59375C6.91667 2.03125 6.32552 2.66667 5.89844 3.5C5.47135 4.32812 5.25781 5.33854 5.25781 6.53125V11.8125L5.36719 14.2344L5.72656 14.0938L4.07812 12.1641L1.875 9.91406C1.8125 9.85156 1.74219 9.80469 1.66406 9.77344C1.58594 9.73698 1.4974 9.71875 1.39844 9.71875C1.19531 9.71875 1.02865 9.78385 0.898438 9.91406C0.773438 10.0391 0.710938 10.2057 0.710938 10.4141C0.710938 10.6068 0.783854 10.776 0.929688 10.9219L5.4375 15.5156C5.51042 15.5938 5.59115 15.651 5.67969 15.6875C5.76823 15.724 5.86198 15.7422 5.96094 15.7422C6.05469 15.7422 6.14583 15.724 6.23438 15.6875C6.32292 15.651 6.40365 15.5938 6.47656 15.5156L10.9844 10.9219C11.1302 10.776 11.2031 10.6068 11.2031 10.4141C11.2031 10.2057 11.138 10.0391 11.0078 9.91406C10.8828 9.78385 10.7188 9.71875 10.5156 9.71875C10.4167 9.71875 10.3281 9.73698 10.25 9.77344C10.1719 9.80469 10.1016 9.85156 10.0391 9.91406L7.84375 12.1641L6.1875 14.0938L6.54688 14.2344L6.65625 11.8125V6.40625C6.65625 5.52083 6.80729 4.77604 7.10938 4.17188C7.41146 3.5625 7.83073 3.10417 8.36719 2.79688C8.90885 2.48958 9.52865 2.33594 10.2266 2.33594C10.9297 2.33594 11.5573 2.48958 12.1094 2.79688C12.6615 3.10417 13.0964 3.5625 13.4141 4.17188C13.737 4.77604 13.8984 5.52083 13.8984 6.40625V8.20312C13.8984 8.42188 13.9661 8.59635 14.1016 8.72656C14.237 8.85156 14.401 8.91406 14.5938 8.91406C14.7865 8.91406 14.9505 8.84896 15.0859 8.71875C15.2214 8.58854 15.2891 8.41667 15.2891 8.20312V6.40625C15.2891 5.23958 15.0807 4.25 14.6641 3.4375C14.2526 2.61979 13.6719 2 12.9219 1.57812C12.1771 1.15104 11.3047 0.9375 10.3047 0.9375Z" fill="white"/>
</svg>
