<svg xmlns="http://www.w3.org/2000/svg" width="24" height="24"><path style="stroke:none;fill-rule:nonzero;fill:#fff;fill-opacity:1" d="M.457 11.695c0 .203.027.403.082.594.055.195.14.375.258.547l6.258 8.914c.218.309.472.46.761.46.313 0 .563-.136.75-.41.196-.284.293-.648.293-1.09 0-.198-.027-.398-.082-.577a1.536 1.536 0 0 0-.21-.465l-2.743-3.867-2.191-2.762 2.719.172h11.285l2.718-.172-2.19 2.762-2.743 3.867a1.765 1.765 0 0 0-.223.465 2.17 2.17 0 0 0-.07.578c0 .441.094.805.281 1.09.195.273.45.41.762.41.289 0 .543-.152.762-.461l6.257-8.914c.118-.172.204-.352.258-.547.11-.387.11-.82 0-1.21a1.702 1.702 0 0 0-.258-.528l-6.257-8.914c-.2-.305-.473-.477-.762-.477-.313 0-.567.14-.762.426-.187.273-.281.629-.281 1.074 0 .215.023.406.07.578.055.172.13.325.223.461l2.742 3.887 2.191 2.746-2.718-.156H6.352l-2.72.156 2.192-2.746 2.742-3.887c.09-.133.164-.289.211-.46.055-.18.086-.38.082-.579 0-.445-.097-.8-.293-1.074-.187-.285-.437-.426-.75-.426-.289 0-.543.16-.761.477L.797 10.55c-.223.293-.344.707-.34 1.14Zm0 0"/></svg>