<svg width="12" height="13" viewBox="0 0 12 13" fill="none" xmlns="http://www.w3.org/2000/svg">
<path d="M11.7656 9.22656L11.7578 1.36719C11.7578 1.14323 11.6901 0.960938 11.5547 0.820312C11.4193 0.679688 11.2344 0.609375 11 0.609375H3.14062C2.92188 0.609375 2.74479 0.682292 2.60938 0.828125C2.47396 0.96875 2.40625 1.13281 2.40625 1.32031C2.40625 1.50781 2.47656 1.67188 2.61719 1.8125C2.76302 1.94792 2.92708 2.01562 3.10938 2.01562H5.82812L9.64062 1.89062L8.1875 3.16406L0.445312 10.9219C0.299479 11.0677 0.226562 11.2318 0.226562 11.4141C0.226562 11.5391 0.260417 11.6589 0.328125 11.7734C0.395833 11.8828 0.484375 11.9714 0.59375 12.0391C0.703125 12.1068 0.822917 12.1406 0.953125 12.1406C1.14062 12.1406 1.30469 12.0703 1.44531 11.9297L9.20312 4.17969L10.4922 2.71875L10.3516 6.36719V9.25781C10.3516 9.4401 10.4193 9.60417 10.5547 9.75C10.6953 9.89583 10.862 9.96875 11.0547 9.96875C11.2422 9.96875 11.4062 9.89844 11.5469 9.75781C11.6927 9.61719 11.7656 9.4401 11.7656 9.22656Z" fill="white"/>
</svg>
