<svg width="18" height="15" viewBox="0 0 18 15" fill="none" xmlns="http://www.w3.org/2000/svg">
<path d="M7.85156 14.5234C8.11719 14.5234 8.33594 14.4375 8.50781 14.2656C8.67969 14.0938 8.76562 13.875 8.76562 13.6094V10.625H8.99219C10.0026 10.625 10.8958 10.724 11.6719 10.9219C12.4479 11.1198 13.1328 11.4609 13.7266 11.9453C14.3203 12.4245 14.8438 13.0911 15.2969 13.9453C15.4323 14.1953 15.5833 14.3542 15.75 14.4219C15.9219 14.4896 16.0911 14.5234 16.2578 14.5234C16.4661 14.5234 16.651 14.4323 16.8125 14.25C16.9792 14.0729 17.0625 13.8151 17.0625 13.4766C17.0625 12.0339 16.9036 10.737 16.5859 9.58594C16.2734 8.42969 15.7891 7.44271 15.1328 6.625C14.4818 5.80729 13.6458 5.18229 12.625 4.75C11.6094 4.31771 10.3984 4.10156 8.99219 4.10156H8.76562V1.14844C8.76562 0.888021 8.67969 0.664062 8.50781 0.476562C8.33594 0.289062 8.11198 0.195312 7.83594 0.195312C7.64323 0.195312 7.47135 0.239583 7.32031 0.328125C7.16927 0.411458 6.98958 0.552083 6.78125 0.75L0.617188 6.51562C0.466146 6.65625 0.361979 6.79948 0.304688 6.94531C0.247396 7.09115 0.21875 7.22917 0.21875 7.35938C0.21875 7.48438 0.247396 7.61979 0.304688 7.76562C0.361979 7.91146 0.466146 8.05469 0.617188 8.19531L6.78125 14.0156C6.96875 14.1927 7.14583 14.3203 7.3125 14.3984C7.47917 14.4818 7.65885 14.5234 7.85156 14.5234Z" fill="white"/>
</svg>
