<svg xmlns="http://www.w3.org/2000/svg" width="24" height="24"><path style="stroke:none;fill-rule:nonzero;fill:#fff;fill-opacity:1" d="M2.684 10.742h6.504c.601 0 1.066-.152 1.394-.46.328-.317.492-.759.492-1.325V2.844a.98.98 0 0 0-.304-.727c-.2-.199-.48-.304-.774-.297-.312 0-.57.098-.773.297a.987.987 0 0 0-.293.727v.93l.246 3.847-3.094-3.055-3.598-3.418a1.038 1.038 0 0 0-.75-.3c-.336 0-.613.097-.832.289a.95.95 0 0 0-.328.75c0 .144.028.285.082.418.055.125.137.238.246.343l3.61 3.395 3.246 2.902-4.09-.218h-.984c-.313 0-.575.093-.786.285a.9.9 0 0 0-.316.715c0 .296.105.539.316.73.211.191.473.285.786.285Zm11.238 11.195c.305 0 .558-.097.762-.296a.955.955 0 0 0 .304-.727v-1.05l-.246-3.837 3.094 3.055 3.68 3.484c.195.2.445.297.75.297.328 0 .601-.093.82-.285a.95.95 0 0 0 .328-.75c0-.148-.027-.285-.082-.418a1.143 1.143 0 0 0-.234-.344l-3.692-3.472-3.258-2.903 4.102.223h1.113c.313 0 .575-.094.785-.277a.9.9 0 0 0 .317-.715.919.919 0 0 0-.317-.73 1.12 1.12 0 0 0-.785-.286H14.73c-.601 0-1.066.153-1.394.461-.328.309-.492.746-.492 1.313v6.23c0 .297.101.54.304.73.204.2.461.297.774.297Zm0 0"/></svg>