<svg width="135" height="116" viewBox="0 0 135 116" fill="none" xmlns="http://www.w3.org/2000/svg">
<path d="M0.125 57.875C0.125 58.875 0.354167 59.9583 0.8125 61.125C1.27083 62.2917 2.10417 63.4375 3.3125 64.5625L52.625 111.125C54.125 112.542 55.5417 113.562 56.875 114.188C58.2083 114.854 59.6458 115.188 61.1875 115.188C63.3125 115.188 65.0625 114.5 66.4375 113.125C67.8125 111.75 68.5 110 68.5 107.875V84H119.25C124.208 84 128.042 82.6667 130.75 80C133.5 77.2917 134.875 73.5208 134.875 68.6875V47.125C134.875 42.2917 133.5 38.5417 130.75 35.875C128.042 33.1667 124.208 31.8125 119.25 31.8125H68.5V8.1875C68.5 6.10417 67.8125 4.3125 66.4375 2.8125C65.0625 1.3125 63.2708 0.5625 61.0625 0.5625C59.5208 0.5625 58.1458 0.916667 56.9375 1.625C55.7292 2.29167 54.2917 3.41667 52.625 5L3.3125 51.125C2.10417 52.25 1.27083 53.3958 0.8125 54.5625C0.354167 55.7292 0.125 56.8333 0.125 57.875ZM11.3125 57.875C11.3125 57.5 11.5417 57.1042 12 56.6875L56.5 14C56.6667 13.875 56.8333 13.7708 57 13.6875C57.1667 13.5625 57.3542 13.5 57.5625 13.5C58.1458 13.5 58.4375 13.7917 58.4375 14.375V39.1875C58.4375 40.5625 59.1458 41.25 60.5625 41.25H119.125C121.125 41.25 122.667 41.8125 123.75 42.9375C124.875 44.0208 125.438 45.5833 125.438 47.625V68.1875C125.438 72.4375 123.333 74.5625 119.125 74.5625H60.5625C59.1458 74.5625 58.4375 75.25 58.4375 76.625V100.812C58.4375 101.438 58.1667 101.75 57.625 101.75C57.25 101.75 56.8958 101.562 56.5625 101.188L12 59.0625C11.75 58.8125 11.5625 58.6042 11.4375 58.4375C11.3542 58.2292 11.3125 58.0417 11.3125 57.875Z" fill="white"/>
</svg>
