<?xml version="1.0" encoding="UTF-8"?>
<svg xmlns="http://www.w3.org/2000/svg" xmlns:xlink="http://www.w3.org/1999/xlink" width="24" height="19.5" viewBox="0 0 24 19.5" version="1.1">
<g id="surface1">
<path style=" stroke:none;fill-rule:nonzero;fill:rgb(100%,100%,100%);fill-opacity:1;" d="M 1.113281 9.539062 C 1.113281 9.835938 1.234375 10.097656 1.476562 10.324219 L 9.257812 18.09375 C 9.484375 18.3125 9.738281 18.421875 10.019531 18.421875 C 10.308594 18.421875 10.550781 18.324219 10.746094 18.128906 C 10.949219 17.941406 11.050781 17.703125 11.050781 17.414062 C 11.050781 17.273438 11.023438 17.140625 10.96875 17.015625 C 10.921875 16.882812 10.851562 16.769531 10.757812 16.675781 L 8.132812 14.003906 L 3.492188 9.773438 L 3.246094 10.347656 L 7.019531 10.582031 L 21.84375 10.582031 C 22.148438 10.582031 22.394531 10.484375 22.582031 10.289062 C 22.777344 10.09375 22.875 9.84375 22.875 9.539062 C 22.875 9.234375 22.777344 8.984375 22.582031 8.789062 C 22.394531 8.59375 22.148438 8.496094 21.84375 8.496094 L 7.019531 8.496094 L 3.246094 8.730469 L 3.492188 9.316406 L 8.132812 5.074219 L 10.757812 2.402344 C 10.851562 2.308594 10.921875 2.199219 10.96875 2.074219 C 11.023438 1.941406 11.050781 1.804688 11.050781 1.664062 C 11.050781 1.375 10.949219 1.136719 10.746094 0.949219 C 10.550781 0.753906 10.308594 0.65625 10.019531 0.65625 C 9.878906 0.65625 9.742188 0.683594 9.609375 0.738281 C 9.484375 0.792969 9.359375 0.882812 9.234375 1.007812 L 1.476562 8.753906 C 1.234375 8.980469 1.113281 9.242188 1.113281 9.539062 Z M 1.113281 9.539062 "/>
</g>
</svg>
