<svg width="136" height="116" viewBox="0 0 136 116" fill="none" xmlns="http://www.w3.org/2000/svg">
<path d="M74.5 115.188C76 115.188 77.4167 114.854 78.75 114.188C80.125 113.562 81.5625 112.542 83.0625 111.125L132.375 64.5625C133.583 63.4375 134.417 62.2917 134.875 61.125C135.333 59.9583 135.562 58.875 135.562 57.875C135.562 56.8333 135.333 55.7292 134.875 54.5625C134.417 53.3958 133.583 52.25 132.375 51.125L83.0625 5C81.3958 3.41667 79.9375 2.29167 78.6875 1.625C77.4792 0.916667 76.125 0.5625 74.625 0.5625C72.4167 0.5625 70.6042 1.3125 69.1875 2.8125C67.8125 4.3125 67.125 6.10417 67.125 8.1875V31.8125H65.3125C54.1042 31.8125 44.4167 33.5417 36.25 37C28.125 40.4583 21.4375 45.4583 16.1875 52C10.9792 58.5417 7.10417 66.4375 4.5625 75.6875C2.0625 84.8958 0.8125 95.2708 0.8125 106.812C0.8125 109.521 1.45833 111.583 2.75 113C4.08333 114.458 5.58333 115.188 7.25 115.188C8.58333 115.188 9.91667 114.917 11.25 114.375C12.625 113.833 13.8542 112.562 14.9375 110.562C18.5625 103.729 22.75 98.3958 27.5 94.5625C32.25 90.6875 37.7292 87.9583 43.9375 86.375C50.1458 84.7917 57.2708 84 65.3125 84H67.125V107.875C67.125 110 67.8125 111.75 69.1875 113.125C70.6042 114.5 72.375 115.188 74.5 115.188Z" fill="white"/>
</svg>
