<?xml version="1.0" encoding="UTF-8"?>
<svg xmlns="http://www.w3.org/2000/svg" xmlns:xlink="http://www.w3.org/1999/xlink" width="24" height="26" viewBox="0 0 24 26" version="1.1">
<g id="surface1">
<path style=" stroke:none;fill-rule:nonzero;fill:rgb(100%,100%,100%);fill-opacity:1;" d="M 0.453125 18.453125 C 0.453125 18.878906 0.59375 19.234375 0.875 19.515625 C 1.167969 19.796875 1.5 19.9375 1.875 19.9375 C 2.261719 19.9375 2.589844 19.792969 2.859375 19.5 C 3.140625 19.207031 3.28125 18.878906 3.28125 18.515625 L 3.28125 12.734375 L 3 5.4375 L 5.578125 8.359375 L 21.078125 23.859375 C 21.359375 24.140625 21.6875 24.28125 22.0625 24.28125 C 22.324219 24.28125 22.5625 24.214844 22.78125 24.078125 C 23.011719 23.941406 23.191406 23.765625 23.328125 23.546875 C 23.464844 23.316406 23.53125 23.078125 23.53125 22.828125 C 23.53125 22.464844 23.386719 22.136719 23.09375 21.84375 L 7.609375 6.328125 L 4.703125 3.78125 L 12.328125 4.03125 L 17.765625 4.03125 C 18.128906 4.03125 18.453125 3.894531 18.734375 3.625 C 19.027344 3.34375 19.171875 3.015625 19.171875 2.640625 C 19.171875 2.265625 19.035156 1.9375 18.765625 1.65625 C 18.496094 1.363281 18.140625 1.21875 17.703125 1.21875 L 1.984375 1.21875 C 1.515625 1.21875 1.144531 1.359375 0.875 1.640625 C 0.605469 1.921875 0.46875 2.285156 0.46875 2.734375 Z M 0.453125 18.453125 "/>
</g>
</svg>
