<svg width="12" height="16" viewBox="0 0 12 16" fill="none" xmlns="http://www.w3.org/2000/svg">
<path d="M6 15.7422C6.20312 15.7422 6.36979 15.6771 6.5 15.5469C6.63021 15.4219 6.69531 15.2578 6.69531 15.0547V4.76562L6.61719 2.4375L6.17188 2.59375L8.97656 5.66406L10.7578 7.41406C10.8203 7.47656 10.8932 7.52344 10.9766 7.55469C11.0651 7.58594 11.1562 7.60156 11.25 7.60156C11.4427 7.60156 11.6016 7.53646 11.7266 7.40625C11.8568 7.27604 11.9219 7.11458 11.9219 6.92188C11.9219 6.73438 11.8516 6.5651 11.7109 6.41406L6.52344 1.21875C6.45052 1.14062 6.36979 1.08333 6.28125 1.04688C6.19271 1.00521 6.09896 0.984375 6 0.984375C5.90625 0.984375 5.8151 1.00521 5.72656 1.04688C5.63802 1.08333 5.55469 1.14062 5.47656 1.21875L0.296875 6.41406C0.151042 6.5651 0.078125 6.73438 0.078125 6.92188C0.078125 7.11458 0.140625 7.27604 0.265625 7.40625C0.395833 7.53646 0.557292 7.60156 0.75 7.60156C0.84375 7.60156 0.932292 7.58594 1.01562 7.55469C1.10417 7.52344 1.17969 7.47656 1.24219 7.41406L3.02344 5.66406L5.82031 2.59375L5.38281 2.4375L5.30469 4.76562V15.0547C5.30469 15.2578 5.36979 15.4219 5.5 15.5469C5.63021 15.6771 5.79688 15.7422 6 15.7422Z" fill="white"/>
</svg>
