<svg xmlns="http://www.w3.org/2000/svg" width="24" height="24"><path style="stroke:none;fill-rule:nonzero;fill:#fff;fill-opacity:1" d="M4.367 1.477c-.387 0-.734.007-1.047.023-.312.008-.57.027-.777.059-.172.03-.34.086-.492.164a1.012 1.012 0 0 0-.375.328.88.88 0 0 0-.137.504c0 .304.113.547.336.726.223.18.508.27.855.27.235 0 .465-.004.7-.012.23-.008.504-.012.816-.012 1.59 0 2.887.18 3.899.54 1.015.351 1.765.94 2.25 1.769.48.816.718 1.937.707 3.351l-.012 8.016.12 3.188-2.69-2.582-4.383-3.84a1.065 1.065 0 0 0-.387-.211 1.585 1.585 0 0 0-.469-.07c-.332 0-.605.097-.832.292a.954.954 0 0 0-.32.727c0 .281.125.535.375.762l8.894 7.793a1.304 1.304 0 0 0 1.781 0l8.891-7.793c.25-.227.375-.48.375-.762 0-.289-.11-.531-.332-.727-.215-.195-.492-.293-.832-.293a1.49 1.49 0 0 0-.457.07 1.065 1.065 0 0 0-.387.212l-4.394 3.84-2.664 2.57.11-3.176V9.082c0-2.727-.747-4.676-2.239-5.848-1.492-1.171-3.785-1.757-6.883-1.757Zm0 0"/></svg>