<svg width="128" height="128" viewBox="0 0 128 128" fill="none" xmlns="http://www.w3.org/2000/svg">
<path d="M63.9375 127.625C72.6458 127.625 80.8333 125.958 88.5 122.625C96.2083 119.292 103 114.688 108.875 108.812C114.75 102.938 119.354 96.1667 122.688 88.5C126.021 80.7917 127.688 72.5833 127.688 63.875C127.688 55.1667 126.021 46.9792 122.688 39.3125C119.354 31.6042 114.75 24.8125 108.875 18.9375C103 13.0625 96.2083 8.45833 88.5 5.125C80.7917 1.79167 72.5833 0.125 63.875 0.125C55.1667 0.125 46.9583 1.79167 39.25 5.125C31.5833 8.45833 24.8125 13.0625 18.9375 18.9375C13.1042 24.8125 8.52083 31.6042 5.1875 39.3125C1.85417 46.9792 0.1875 55.1667 0.1875 63.875C0.1875 72.5833 1.85417 80.7917 5.1875 88.5C8.52083 96.1667 13.125 102.938 19 108.812C24.875 114.688 31.6458 119.292 39.3125 122.625C47.0208 125.958 55.2292 127.625 63.9375 127.625ZM63.9375 117C56.5625 117 49.6667 115.625 43.25 112.875C36.8333 110.125 31.1875 106.333 26.3125 101.5C21.4792 96.625 17.6875 90.9792 14.9375 84.5625C12.2292 78.1458 10.875 71.25 10.875 63.875C10.875 56.5 12.2292 49.6042 14.9375 43.1875C17.6875 36.7708 21.4792 31.125 26.3125 26.25C31.1458 21.375 36.7708 17.5833 43.1875 14.875C49.6042 12.125 56.5 10.75 63.875 10.75C71.25 10.75 78.1458 12.125 84.5625 14.875C91.0208 17.5833 96.6667 21.375 101.5 26.25C106.375 31.125 110.188 36.7708 112.938 43.1875C115.688 49.6042 117.062 56.5 117.062 63.875C117.062 71.25 115.688 78.1458 112.938 84.5625C110.229 90.9792 106.438 96.625 101.562 101.5C96.6875 106.333 91.0417 110.125 84.625 112.875C78.2083 115.625 71.3125 117 63.9375 117ZM36.75 83.5C36.75 85.2917 37.1875 86.6875 38.0625 87.6875C38.9375 88.6875 40.1667 89.1875 41.75 89.1875C43.375 89.1458 44.6042 88.6458 45.4375 87.6875C46.3125 86.6875 46.75 85.2917 46.75 83.5V66.125C46.75 63.2917 47.4167 61.2083 48.75 59.875C50.125 58.5417 52.1667 57.875 54.875 57.875H71.1875V67.6875C71.1875 69.6875 72.0833 71.0625 73.875 71.8125C75.7083 72.5208 77.4792 72.125 79.1875 70.625L94.0625 57.75C95.9375 56.125 96.875 54.5 96.875 52.875C96.875 51.2083 95.9375 49.5625 94.0625 47.9375L79.1875 35C78.0208 34 76.8125 33.5208 75.5625 33.5625C74.3542 33.6042 73.3125 34.0208 72.4375 34.8125C71.6042 35.6042 71.1875 36.6667 71.1875 38V47.8125H54.6875C48.6458 47.8125 44.1458 49.2917 41.1875 52.25C38.2292 55.1667 36.75 59.625 36.75 65.625V83.5Z" fill="white"/>
</svg>
