<svg width="128" height="128" viewBox="0 0 128 128" fill="none" xmlns="http://www.w3.org/2000/svg">
<path d="M63.9375 127.625C72.6458 127.625 80.8333 125.958 88.5 122.625C96.2083 119.292 103 114.688 108.875 108.812C114.75 102.938 119.354 96.1667 122.688 88.5C126.021 80.7917 127.688 72.5833 127.688 63.875C127.688 55.1667 126.021 46.9792 122.688 39.3125C119.354 31.6042 114.75 24.8125 108.875 18.9375C103 13.0625 96.2083 8.45833 88.5 5.125C80.7917 1.79167 72.5833 0.125 63.875 0.125C55.1667 0.125 46.9583 1.79167 39.25 5.125C31.5833 8.45833 24.8125 13.0625 18.9375 18.9375C13.1042 24.8125 8.52083 31.6042 5.1875 39.3125C1.85417 46.9792 0.1875 55.1667 0.1875 63.875C0.1875 72.5833 1.85417 80.7917 5.1875 88.5C8.52083 96.1667 13.125 102.938 19 108.812C24.875 114.688 31.6458 119.292 39.3125 122.625C47.0208 125.958 55.2292 127.625 63.9375 127.625ZM63.9375 117C56.5625 117 49.6667 115.625 43.25 112.875C36.8333 110.125 31.1875 106.333 26.3125 101.5C21.4792 96.625 17.6875 90.9792 14.9375 84.5625C12.2292 78.1458 10.875 71.25 10.875 63.875C10.875 56.5 12.2292 49.6042 14.9375 43.1875C17.6875 36.7708 21.4792 31.125 26.3125 26.25C31.1458 21.375 36.7708 17.5833 43.1875 14.875C49.6042 12.125 56.5 10.75 63.875 10.75C71.25 10.75 78.1458 12.125 84.5625 14.875C91.0208 17.5833 96.6667 21.375 101.5 26.25C106.375 31.125 110.188 36.7708 112.938 43.1875C115.688 49.6042 117.062 56.5 117.062 63.875C117.062 71.25 115.688 78.1458 112.938 84.5625C110.229 90.9792 106.438 96.625 101.562 101.5C96.6875 106.333 91.0417 110.125 84.625 112.875C78.2083 115.625 71.3125 117 63.9375 117ZM96.125 71.5C96.125 66.4583 95.0208 62.1458 92.8125 58.5625C90.6042 54.9375 87.5833 52.1667 83.75 50.25C79.9167 48.2917 75.5625 47.3125 70.6875 47.3125H52.0625L44.625 47.5625L49.5625 43.6875L56.0625 37.4375C56.9792 36.5625 57.4375 35.4792 57.4375 34.1875C57.4375 32.8958 57 31.8125 56.125 30.9375C55.2917 30.0625 54.25 29.625 53 29.625C51.7083 29.625 50.625 30.0833 49.75 31L33.1875 47.875C32.0625 48.9583 31.5 50.2292 31.5 51.6875C31.5 53.1042 32.0625 54.3542 33.1875 55.4375L49.8125 72.5C50.6875 73.375 51.7708 73.8125 53.0625 73.8125C54.2708 73.8125 55.2917 73.375 56.125 72.5C57 71.625 57.4375 70.5417 57.4375 69.25C57.4375 67.9167 57 66.8333 56.125 66L48.3125 58.5L44.625 55.8125L52.0625 56.0625H70.6875C75.3125 56.0625 79.1667 57.3542 82.25 59.9375C85.375 62.4792 86.9375 66.1667 86.9375 71C86.9375 75.9167 85.3958 79.8125 82.3125 82.6875C79.2708 85.5208 75.375 86.9375 70.625 86.9375C70.375 86.9375 69.5625 86.9375 68.1875 86.9375C66.8125 86.9375 65.4375 86.9375 64.0625 86.9375C62.7292 86.9375 62.0208 86.9375 61.9375 86.9375C60.6458 86.9375 59.5417 87.3125 58.625 88.0625C57.7083 88.8125 57.25 89.9167 57.25 91.375C57.25 92.8333 57.7083 93.9583 58.625 94.75C59.5417 95.5 60.6875 95.875 62.0625 95.875C62.1875 95.875 62.8958 95.875 64.1875 95.875C65.5208 95.875 66.8542 95.875 68.1875 95.875C69.5625 95.875 70.375 95.875 70.625 95.875C75.5 95.875 79.8542 94.8958 83.6875 92.9375C87.5625 90.9375 90.6042 88.125 92.8125 84.5C95.0208 80.8333 96.125 76.5 96.125 71.5Z" fill="white"/>
</svg>
