<svg xmlns="http://www.w3.org/2000/svg" width="24" height="24"><path style="stroke:none;fill-rule:nonzero;fill:#fff;fill-opacity:1" d="M4.887 23.3h14.215c1.226 0 2.144-.323 2.753-.976.618-.64.926-1.605.926-2.898V4.164c0-1.293-.308-2.258-.926-2.898-.609-.653-1.527-.977-2.753-.977H4.887c-1.227 0-2.149.324-2.766.977-.61.64-.914 1.605-.914 2.898v15.262c0 1.293.305 2.258.914 2.902.617.649 1.54.973 2.766.973Zm.023-2.01c-.586 0-1.035-.165-1.348-.49-.312-.335-.468-.823-.468-1.476V4.262c0-.649.156-1.137.469-1.461.312-.336.761-.5 1.347-.5h14.168c.578 0 1.024.164 1.336.5.32.324.48.812.48 1.46v15.063c0 .653-.16 1.14-.48 1.477-.312.324-.758.488-1.336.488Zm7.113-3.278c.25 0 .457-.086.622-.262a.94.94 0 0 0 .246-.676v-6.25l-.082-2.648 1.183 1.511 1.383 1.5c.16.184.387.286.621.274a.81.81 0 0 0 .61-.25.892.892 0 0 0 .246-.649.923.923 0 0 0-.235-.648l-3.914-4.152c-.219-.242-.445-.36-.68-.36-.234 0-.46.118-.68.36L7.43 9.91a.921.921 0 0 0-.235.652.923.923 0 0 0 .235.649.81.81 0 0 0 .61.25c.241 0 .448-.09.62-.274l1.395-1.5 1.172-1.5-.082 2.637v6.25c0 .274.082.5.246.676.168.176.398.27.632.262Zm0 0"/></svg>