<svg xmlns="http://www.w3.org/2000/svg" width="24" height="24"><path style="stroke:none;fill-rule:nonzero;fill:#fff;fill-opacity:1" d="M12 23.05c1.633 0 3.168-.292 4.605-.882a12.22 12.22 0 0 0 3.82-2.438 11.467 11.467 0 0 0 2.59-3.582c.626-1.363.938-2.808.938-4.347a10.2 10.2 0 0 0-.937-4.332 11.53 11.53 0 0 0-2.59-3.598 12.361 12.361 0 0 0-3.82-2.437A12.166 12.166 0 0 0 11.987.55c-1.633 0-3.172.293-4.617.883A12.307 12.307 0 0 0 3.562 3.87 11.523 11.523 0 0 0 .985 7.465 10.2 10.2 0 0 0 .047 11.8c0 1.539.312 2.984.937 4.347a11.467 11.467 0 0 0 2.59 3.582 12.236 12.236 0 0 0 3.809 2.438c1.445.59 2.984.883 4.617.883Zm3.785-14.07c.266 0 .477.082.633.254.164.168.246.387.246.66v5.348c0 .34-.09.582-.27.73-.18.145-.425.22-.738.22h-5.73c-.281 0-.508-.079-.68-.231a.767.767 0 0 1-.258-.61.777.777 0 0 1 .258-.605c.18-.152.414-.23.703-.23h2.18l1.793.175-1.875-1.652-4.442-4.172c-.195-.183-.293-.383-.293-.605 0-.262.083-.473.247-.63a.888.888 0 0 1 .632-.23c.149 0 .282.028.399.078.113.04.219.106.305.188l4.43 4.176 1.734 1.746-.176-1.766V9.871c0-.277.082-.496.246-.648.164-.164.383-.243.656-.243Zm0 0"/></svg>