<?xml version="1.0" encoding="UTF-8"?>
<svg xmlns="http://www.w3.org/2000/svg" xmlns:xlink="http://www.w3.org/1999/xlink" width="24" height="22.5" viewBox="0 0 24 22.5" version="1.1">
<g id="surface1">
<path style=" stroke:none;fill-rule:nonzero;fill:rgb(100%,100%,100%);fill-opacity:1;" d="M 4.886719 21.84375 L 19.101562 21.84375 C 20.328125 21.84375 21.246094 21.539062 21.855469 20.929688 C 22.472656 20.328125 22.78125 19.421875 22.78125 18.210938 L 22.78125 3.902344 C 22.78125 2.691406 22.472656 1.785156 21.855469 1.183594 C 21.246094 0.574219 20.328125 0.269531 19.101562 0.269531 L 4.886719 0.269531 C 3.660156 0.269531 2.738281 0.574219 2.121094 1.183594 C 1.511719 1.785156 1.207031 2.691406 1.207031 3.902344 L 1.207031 18.210938 C 1.207031 19.421875 1.511719 20.328125 2.121094 20.929688 C 2.738281 21.539062 3.660156 21.84375 4.886719 21.84375 Z M 9.773438 15.761719 C 9.492188 15.933594 9.21875 15.964844 8.953125 15.855469 C 8.695312 15.738281 8.566406 15.535156 8.566406 15.246094 L 8.566406 6.84375 C 8.566406 6.554688 8.703125 6.359375 8.976562 6.257812 C 9.25 6.15625 9.515625 6.179688 9.773438 6.328125 L 16.664062 10.40625 C 16.90625 10.554688 17.027344 10.769531 17.027344 11.050781 C 17.035156 11.332031 16.914062 11.550781 16.664062 11.707031 Z M 9.773438 15.761719 "/>
</g>
</svg>
