<svg width="117" height="116" viewBox="0 0 117 116" fill="none" xmlns="http://www.w3.org/2000/svg">
<path d="M108.875 8C105.667 4.79167 101.854 2.77083 97.4375 1.9375C93.0208 1.0625 88.1458 0.625 82.8125 0.625H34.125C28.875 0.625 24.0417 1.0625 19.625 1.9375C15.25 2.77083 11.4583 4.79167 8.25 8C5.08333 11.1667 3.0625 14.9375 2.1875 19.3125C1.35417 23.6875 0.9375 28.5 0.9375 33.75V82C0.9375 87.3333 1.35417 92.2083 2.1875 96.625C3.02083 101 5.04167 104.771 8.25 107.938C11.4583 111.146 15.25 113.167 19.625 114C24.0417 114.875 28.9167 115.312 34.25 115.312H82.8125C88.1458 115.312 93.0208 114.875 97.4375 114C101.854 113.167 105.667 111.146 108.875 107.938C112.042 104.771 114.042 101 114.875 96.625C115.75 92.2083 116.188 87.3333 116.188 82V33.9375C116.188 28.6042 115.75 23.75 114.875 19.375C114.042 14.9583 112.042 11.1667 108.875 8ZM106.125 32.1875V83.6875C106.125 86.9375 105.812 90.1042 105.188 93.1875C104.604 96.2292 103.375 98.7083 101.5 100.625C99.625 102.5 97.125 103.729 94 104.312C90.9167 104.938 87.7708 105.25 84.5625 105.25H32.5625C29.3542 105.25 26.1875 104.938 23.0625 104.312C19.9792 103.729 17.4792 102.5 15.5625 100.625C13.6875 98.7083 12.4583 96.2292 11.875 93.1875C11.2917 90.1042 11 86.9375 11 83.6875V32.375C11 29.0833 11.2917 25.8958 11.875 22.8125C12.4583 19.6875 13.6875 17.1875 15.5625 15.3125C17.4375 13.3958 19.9375 12.1458 23.0625 11.5625C26.2292 10.9792 29.4583 10.6875 32.75 10.6875H84.5625C87.7708 10.6875 90.9167 11 94 11.625C97.125 12.2083 99.625 13.4375 101.5 15.3125C103.417 17.2292 104.667 19.7292 105.25 22.8125C105.833 25.8542 106.125 28.9792 106.125 32.1875ZM78.1875 73.3125C79.5625 73.3125 80.6667 72.8542 81.5 71.9375C82.3333 70.9792 82.75 69.7708 82.75 68.3125V38.875C82.75 37 82.2708 35.6667 81.3125 34.875C80.3958 34.0833 79.1458 33.6875 77.5625 33.6875H47.875C46.4167 33.6875 45.25 34.1042 44.375 34.9375C43.5 35.7708 43.0625 36.875 43.0625 38.25C43.0625 39.6667 43.5 40.7917 44.375 41.625C45.2917 42.4583 46.5 42.875 48 42.875H59.375L68.625 41.875L58.9375 50.9375L35.875 74C34.875 75 34.375 76.1042 34.375 77.3125C34.375 78.7292 34.7917 79.875 35.625 80.75C36.4583 81.5833 37.5625 82 38.9375 82C40.3542 82 41.5417 81.5208 42.5 80.5625L65.5625 57.5L74.5 47.9375L73.5625 57.625V68.4375C73.5625 69.9375 73.9792 71.125 74.8125 72C75.6875 72.875 76.8125 73.3125 78.1875 73.3125Z" fill="white"/>
</svg>
