<?xml version="1.0" encoding="UTF-8"?>
<svg xmlns="http://www.w3.org/2000/svg" xmlns:xlink="http://www.w3.org/1999/xlink" width="24" height="25.5" viewBox="0 0 24 25.5" version="1.1">
<g id="surface1">
<path style=" stroke:none;fill-rule:nonzero;fill:rgb(100%,100%,100%);fill-opacity:1;" d="M 12 24.492188 C 13.632812 24.492188 15.167969 24.179688 16.605469 23.554688 C 18.050781 22.929688 19.324219 22.066406 20.425781 20.964844 C 21.527344 19.863281 22.390625 18.59375 23.015625 17.15625 C 23.640625 15.710938 23.953125 14.171875 23.953125 12.539062 C 23.953125 10.90625 23.640625 9.371094 23.015625 7.933594 C 22.390625 6.488281 21.527344 5.214844 20.425781 4.113281 C 19.324219 3.011719 18.050781 2.148438 16.605469 1.523438 C 15.160156 0.898438 13.621094 0.585938 11.988281 0.585938 C 10.355469 0.585938 8.816406 0.898438 7.371094 1.523438 C 5.933594 2.148438 4.664062 3.011719 3.5625 4.113281 C 2.46875 5.214844 1.609375 6.488281 0.984375 7.933594 C 0.359375 9.371094 0.046875 10.90625 0.046875 12.539062 C 0.046875 14.171875 0.359375 15.710938 0.984375 17.15625 C 1.609375 18.59375 2.472656 19.863281 3.574219 20.964844 C 4.675781 22.066406 5.945312 22.929688 7.382812 23.554688 C 8.828125 24.179688 10.367188 24.492188 12 24.492188 Z M 12 22.5 C 10.617188 22.5 9.324219 22.242188 8.121094 21.726562 C 6.917969 21.210938 5.859375 20.5 4.945312 19.59375 C 4.039062 18.679688 3.328125 17.621094 2.8125 16.417969 C 2.304688 15.214844 2.050781 13.921875 2.050781 12.539062 C 2.050781 11.15625 2.304688 9.863281 2.8125 8.660156 C 3.328125 7.457031 4.039062 6.398438 4.945312 5.484375 C 5.851562 4.570312 6.90625 3.859375 8.109375 3.351562 C 9.3125 2.835938 10.605469 2.578125 11.988281 2.578125 C 13.371094 2.578125 14.664062 2.835938 15.867188 3.351562 C 17.078125 3.859375 18.136719 4.570312 19.042969 5.484375 C 19.957031 6.398438 20.671875 7.457031 21.1875 8.660156 C 21.703125 9.863281 21.960938 11.15625 21.960938 12.539062 C 21.960938 13.921875 21.703125 15.214844 21.1875 16.417969 C 20.679688 17.621094 19.96875 18.679688 19.054688 19.59375 C 18.140625 20.5 17.082031 21.210938 15.878906 21.726562 C 14.675781 22.242188 13.382812 22.5 12 22.5 Z M 5.917969 13.96875 C 5.917969 14.90625 6.125 15.71875 6.539062 16.40625 C 6.960938 17.085938 7.53125 17.613281 8.25 17.988281 C 8.96875 18.355469 9.785156 18.539062 10.699219 18.539062 C 10.746094 18.539062 10.894531 18.539062 11.144531 18.539062 C 11.402344 18.539062 11.652344 18.539062 11.894531 18.539062 C 12.144531 18.539062 12.28125 18.539062 12.304688 18.539062 C 12.5625 18.539062 12.777344 18.46875 12.949219 18.328125 C 13.121094 18.179688 13.207031 17.96875 13.207031 17.695312 C 13.207031 17.421875 13.121094 17.214844 12.949219 17.074219 C 12.785156 16.933594 12.578125 16.863281 12.328125 16.863281 C 12.3125 16.863281 12.179688 16.863281 11.929688 16.863281 C 11.679688 16.863281 11.421875 16.863281 11.15625 16.863281 C 10.898438 16.863281 10.746094 16.863281 10.699219 16.863281 C 9.816406 16.863281 9.085938 16.597656 8.507812 16.066406 C 7.929688 15.527344 7.640625 14.796875 7.640625 13.875 C 7.640625 12.96875 7.933594 12.277344 8.519531 11.800781 C 9.105469 11.316406 9.828125 11.074219 10.6875 11.074219 L 14.179688 11.074219 L 15.574219 11.027344 L 14.894531 11.53125 L 13.417969 12.9375 C 13.253906 13.09375 13.171875 13.296875 13.171875 13.546875 C 13.171875 13.789062 13.25 13.992188 13.40625 14.15625 C 13.570312 14.320312 13.765625 14.402344 13.992188 14.402344 C 14.234375 14.402344 14.4375 14.320312 14.601562 14.15625 L 17.71875 10.957031 C 17.929688 10.753906 18.035156 10.519531 18.035156 10.253906 C 18.035156 9.980469 17.929688 9.742188 17.71875 9.539062 L 14.613281 6.375 C 14.449219 6.203125 14.246094 6.117188 14.003906 6.117188 C 13.769531 6.117188 13.570312 6.199219 13.40625 6.363281 C 13.25 6.527344 13.171875 6.730469 13.171875 6.972656 C 13.171875 7.214844 13.257812 7.417969 13.429688 7.582031 L 14.648438 8.753906 L 15.574219 9.480469 L 14.179688 9.433594 L 10.6875 9.433594 C 9.773438 9.433594 8.957031 9.617188 8.238281 9.984375 C 7.519531 10.34375 6.953125 10.863281 6.539062 11.542969 C 6.125 12.214844 5.917969 13.023438 5.917969 13.96875 Z M 5.917969 13.96875 "/>
</g>
</svg>
