<?xml version="1.0" encoding="UTF-8"?>
<svg xmlns="http://www.w3.org/2000/svg" xmlns:xlink="http://www.w3.org/1999/xlink" width="24" height="22.5" viewBox="0 0 24 22.5" version="1.1">
<g id="surface1">
<path style=" stroke:none;fill-rule:nonzero;fill:rgb(100%,100%,100%);fill-opacity:1;" d="M 4.886719 21.679688 L 19.101562 21.679688 C 20.328125 21.679688 21.246094 21.375 21.855469 20.765625 C 22.472656 20.164062 22.78125 19.257812 22.78125 18.046875 L 22.78125 3.738281 C 22.78125 2.527344 22.472656 1.621094 21.855469 1.019531 C 21.246094 0.410156 20.328125 0.105469 19.101562 0.105469 L 4.886719 0.105469 C 3.660156 0.105469 2.738281 0.410156 2.121094 1.019531 C 1.511719 1.621094 1.207031 2.527344 1.207031 3.738281 L 1.207031 18.046875 C 1.207031 19.257812 1.511719 20.164062 2.121094 20.765625 C 2.738281 21.375 3.660156 21.679688 4.886719 21.679688 Z M 5.988281 12.1875 C 5.988281 11.304688 6.183594 10.53125 6.574219 9.867188 C 6.972656 9.203125 7.523438 8.6875 8.226562 8.320312 C 8.9375 7.953125 9.765625 7.769531 10.710938 7.769531 L 14.132812 7.769531 L 15.339844 7.828125 L 14.542969 7.195312 L 13.359375 6.046875 C 13.179688 5.882812 13.089844 5.675781 13.089844 5.425781 C 13.089844 5.167969 13.171875 4.953125 13.335938 4.78125 C 13.5 4.609375 13.707031 4.523438 13.957031 4.523438 C 14.214844 4.523438 14.429688 4.609375 14.601562 4.78125 L 17.660156 7.886719 C 17.871094 8.113281 17.976562 8.363281 17.976562 8.636719 C 17.976562 8.917969 17.871094 9.164062 17.660156 9.375 L 14.589844 12.515625 C 14.425781 12.6875 14.210938 12.773438 13.945312 12.773438 C 13.703125 12.773438 13.5 12.6875 13.335938 12.515625 C 13.171875 12.335938 13.089844 12.121094 13.089844 11.871094 C 13.089844 11.628906 13.179688 11.414062 13.359375 11.226562 L 14.777344 9.855469 L 15.328125 9.46875 L 14.132812 9.515625 L 10.710938 9.515625 C 9.8125 9.515625 9.089844 9.761719 8.542969 10.253906 C 8.003906 10.746094 7.734375 11.390625 7.734375 12.1875 C 7.734375 13.054688 8.007812 13.753906 8.554688 14.285156 C 9.109375 14.808594 9.832031 15.070312 10.722656 15.070312 L 12.316406 15.070312 C 12.589844 15.070312 12.808594 15.152344 12.972656 15.316406 C 13.144531 15.472656 13.230469 15.679688 13.230469 15.9375 C 13.230469 16.203125 13.144531 16.417969 12.972656 16.582031 C 12.800781 16.738281 12.574219 16.816406 12.292969 16.816406 L 10.722656 16.816406 C 9.777344 16.816406 8.949219 16.625 8.238281 16.242188 C 7.527344 15.859375 6.972656 15.320312 6.574219 14.625 C 6.183594 13.929688 5.988281 13.117188 5.988281 12.1875 Z M 5.988281 12.1875 "/>
</g>
</svg>
