<svg width="149" height="116" viewBox="0 0 149 116" fill="none" xmlns="http://www.w3.org/2000/svg">
<path d="M20.5625 115.438H128.688C135.271 115.438 140.188 113.812 143.438 110.562C146.688 107.354 148.312 102.542 148.312 96.125V19.75C148.312 13.3333 146.688 8.5 143.438 5.25C140.188 2 135.271 0.375 128.688 0.375H20.5625C14.0208 0.375 9.10417 2 5.8125 5.25C2.5625 8.45833 0.9375 13.2917 0.9375 19.75V96.125C0.9375 102.542 2.5625 107.354 5.8125 110.562C9.10417 113.812 14.0208 115.438 20.5625 115.438ZM22 67.5C22 66.2917 22.5833 65.125 23.75 64L50.9375 36.8125L55.875 32.3125L40 32.875H33.6875C32.3958 32.875 31.2917 32.4583 30.375 31.625C29.4583 30.7917 29 29.7083 29 28.375C29 26.9583 29.4375 25.8333 30.3125 25C31.1875 24.1667 32.3125 23.75 33.6875 23.75H65.6875C67.1042 23.75 68.25 24.1875 69.125 25.0625C70 25.9375 70.4375 27.0833 70.4375 28.5V59.5625C70.4375 60.9792 70.0208 62.125 69.1875 63C68.3542 63.875 67.2708 64.3125 65.9375 64.3125C64.5625 64.3125 63.4375 63.875 62.5625 63C61.7292 62.125 61.3125 60.9792 61.3125 59.5625V53.3125L61.9375 38.25L57.375 43.25L30.1875 70.4375C29.0208 71.6042 27.8542 72.1875 26.6875 72.1875C25.3958 72.1875 24.2917 71.7292 23.375 70.8125C22.4583 69.8542 22 68.75 22 67.5ZM128.125 48.375C128.125 49.625 127.542 50.7917 126.375 51.875L99.1875 79.0625L94.25 83.625L110.125 83H116.438C117.729 83 118.833 83.4167 119.75 84.25C120.667 85.0833 121.125 86.1875 121.125 87.5625C121.125 88.9375 120.688 90.0417 119.812 90.875C118.938 91.7083 117.812 92.125 116.438 92.125H84.4375C83.0208 92.125 81.875 91.7083 81 90.875C80.125 90 79.6875 88.8542 79.6875 87.4375V56.3125C79.6875 54.8958 80.1042 53.7708 80.9375 52.9375C81.7708 52.0625 82.8542 51.625 84.1875 51.625C85.5625 51.625 86.6667 52.0625 87.5 52.9375C88.375 53.7708 88.8125 54.8958 88.8125 56.3125V62.5625L88.25 77.6875L92.75 72.6875L119.938 45.4375C121.104 44.3125 122.271 43.75 123.438 43.75C124.729 43.75 125.833 44.2292 126.75 45.1875C127.667 46.1042 128.125 47.1667 128.125 48.375Z" fill="white"/>
</svg>
