<svg width="24" height="16" viewBox="0 0 24 16" fill="none" xmlns="http://www.w3.org/2000/svg">
<path d="M0.109375 8.21875C0.109375 8.42188 0.171875 8.58854 0.296875 8.71875C0.427083 8.84896 0.59375 8.91406 0.796875 8.91406H6.125L7.67969 8.86719L5.10156 11.3516C5.03385 11.4141 4.98438 11.4896 4.95312 11.5781C4.92188 11.6667 4.90625 11.7578 4.90625 11.8516C4.90625 12.0495 4.97135 12.2135 5.10156 12.3438C5.23698 12.4688 5.40104 12.5312 5.59375 12.5312C5.6875 12.5312 5.77865 12.513 5.86719 12.4766C5.95573 12.4401 6.03906 12.3828 6.11719 12.3047L9.6875 8.74219C9.76042 8.66406 9.81771 8.58073 9.85938 8.49219C9.90625 8.40365 9.92969 8.3125 9.92969 8.21875C9.92969 8.11979 9.90625 8.02604 9.85938 7.9375C9.81771 7.84896 9.76042 7.76562 9.6875 7.6875L6.11719 4.125C6.03906 4.04688 5.95573 3.98958 5.86719 3.95312C5.77865 3.91667 5.6875 3.89844 5.59375 3.89844C5.40104 3.89844 5.23698 3.96354 5.10156 4.09375C4.97135 4.21875 4.90625 4.38021 4.90625 4.57812C4.90625 4.66667 4.92188 4.75521 4.95312 4.84375C4.98438 4.93229 5.03385 5.01042 5.10156 5.07812L7.67969 7.57031L6.125 7.51562H0.796875C0.59375 7.51562 0.427083 7.58073 0.296875 7.71094C0.171875 7.84115 0.109375 8.01042 0.109375 8.21875ZM12 15.7891C12.2031 15.7891 12.3698 15.724 12.5 15.5938C12.6302 15.4635 12.6953 15.2969 12.6953 15.0938V1.61719C12.6953 1.41927 12.6302 1.25781 12.5 1.13281C12.3698 1.0026 12.2031 0.9375 12 0.9375C11.7969 0.9375 11.6276 1.0026 11.4922 1.13281C11.362 1.25781 11.2969 1.41927 11.2969 1.61719V15.0938C11.2969 15.2969 11.362 15.4635 11.4922 15.5938C11.6276 15.724 11.7969 15.7891 12 15.7891ZM23.8906 8.21875C23.8906 8.01042 23.8255 7.84115 23.6953 7.71094C23.5651 7.58073 23.3984 7.51562 23.1953 7.51562H17.875L16.3125 7.57031L18.8906 5.07812C18.9583 5.01042 19.0078 4.93229 19.0391 4.84375C19.0703 4.75521 19.0859 4.66667 19.0859 4.57812C19.0859 4.38021 19.0208 4.21875 18.8906 4.09375C18.7604 3.96354 18.599 3.89844 18.4062 3.89844C18.3073 3.89844 18.2135 3.91667 18.125 3.95312C18.0365 3.98958 17.9531 4.04688 17.875 4.125L14.3047 7.6875C14.2318 7.76562 14.1745 7.84896 14.1328 7.9375C14.0911 8.02604 14.0703 8.11979 14.0703 8.21875C14.0703 8.3125 14.0911 8.40365 14.1328 8.49219C14.1745 8.58073 14.2318 8.66406 14.3047 8.74219L17.875 12.3047C17.9531 12.3828 18.0365 12.4401 18.125 12.4766C18.2135 12.513 18.3073 12.5312 18.4062 12.5312C18.599 12.5312 18.7604 12.4688 18.8906 12.3438C19.0208 12.2135 19.0859 12.0495 19.0859 11.8516C19.0859 11.7578 19.0703 11.6667 19.0391 11.5781C19.0078 11.4896 18.9583 11.4141 18.8906 11.3516L16.3125 8.86719L17.875 8.91406H23.1953C23.3984 8.91406 23.5651 8.84896 23.6953 8.71875C23.8255 8.58854 23.8906 8.42188 23.8906 8.21875Z" fill="white"/>
</svg>
