<svg width="16" height="17" viewBox="0 0 16 17" fill="none" xmlns="http://www.w3.org/2000/svg">
<path d="M8 16.3281C9.08854 16.3281 10.112 16.1198 11.0703 15.7031C12.0339 15.2865 12.8828 14.7109 13.6172 13.9766C14.3516 13.2422 14.9271 12.3958 15.3438 11.4375C15.7604 10.474 15.9688 9.44792 15.9688 8.35938C15.9688 7.27083 15.7604 6.2474 15.3438 5.28906C14.9271 4.32552 14.3516 3.47656 13.6172 2.74219C12.8828 2.00781 12.0339 1.43229 11.0703 1.01562C10.1068 0.598958 9.08073 0.390625 7.99219 0.390625C6.90365 0.390625 5.8776 0.598958 4.91406 1.01562C3.95573 1.43229 3.10938 2.00781 2.375 2.74219C1.64583 3.47656 1.07292 4.32552 0.65625 5.28906C0.239583 6.2474 0.03125 7.27083 0.03125 8.35938C0.03125 9.44792 0.239583 10.474 0.65625 11.4375C1.07292 12.3958 1.64844 13.2422 2.38281 13.9766C3.11719 14.7109 3.96354 15.2865 4.92188 15.7031C5.88542 16.1198 6.91146 16.3281 8 16.3281ZM8 15C7.07812 15 6.21615 14.8281 5.41406 14.4844C4.61198 14.1406 3.90625 13.6667 3.29688 13.0625C2.69271 12.4531 2.21875 11.7474 1.875 10.9453C1.53646 10.1432 1.36719 9.28125 1.36719 8.35938C1.36719 7.4375 1.53646 6.57552 1.875 5.77344C2.21875 4.97135 2.69271 4.26562 3.29688 3.65625C3.90104 3.04688 4.60417 2.57292 5.40625 2.23438C6.20833 1.89062 7.07031 1.71875 7.99219 1.71875C8.91406 1.71875 9.77604 1.89062 10.5781 2.23438C11.3854 2.57292 12.0911 3.04688 12.6953 3.65625C13.3047 4.26562 13.7812 4.97135 14.125 5.77344C14.4688 6.57552 14.6406 7.4375 14.6406 8.35938C14.6406 9.28125 14.4688 10.1432 14.125 10.9453C13.7865 11.7474 13.3125 12.4531 12.7031 13.0625C12.0938 13.6667 11.388 14.1406 10.5859 14.4844C9.78385 14.8281 8.92188 15 8 15ZM6.21875 11.5703C6.35938 11.5703 6.47396 11.5339 6.5625 11.4609C6.65104 11.388 6.69531 11.3073 6.69531 11.2188V11.0234L4.125 8.65625C4 8.54167 3.90365 8.41406 3.83594 8.27344C3.77344 8.13281 3.74219 7.98698 3.74219 7.83594C3.74219 7.67969 3.77344 7.53385 3.83594 7.39844C3.90365 7.25781 4 7.1276 4.125 7.00781L6.69531 4.65625V4.46094C6.69531 4.36719 6.65104 4.28385 6.5625 4.21094C6.47396 4.13281 6.35677 4.09375 6.21094 4.09375C6.11198 4.09375 6.02344 4.11719 5.94531 4.16406C5.86719 4.20573 5.77604 4.27865 5.67188 4.38281L2.44531 7.39844C2.36719 7.47135 2.3125 7.54427 2.28125 7.61719C2.25521 7.6901 2.24219 7.76302 2.24219 7.83594C2.24219 7.90365 2.25521 7.97396 2.28125 8.04688C2.3125 8.11979 2.36719 8.19271 2.44531 8.26562L5.67188 11.2969C5.77083 11.3906 5.86198 11.4609 5.94531 11.5078C6.02865 11.5495 6.11979 11.5703 6.21875 11.5703ZM8.28125 11.5703C8.41667 11.5703 8.52865 11.526 8.61719 11.4375C8.70573 11.3438 8.75 11.2266 8.75 11.0859V9.53125H8.875C9.66667 9.53125 10.3281 9.65365 10.8594 9.89844C11.3906 10.1432 11.8281 10.599 12.1719 11.2656C12.2396 11.3906 12.3177 11.474 12.4062 11.5156C12.4948 11.5521 12.5833 11.5703 12.6719 11.5703C12.7865 11.5703 12.8828 11.5234 12.9609 11.4297C13.0443 11.3359 13.0859 11.2031 13.0859 11.0312C13.0859 10.0208 12.9375 9.15104 12.6406 8.42188C12.3438 7.69271 11.8854 7.13281 11.2656 6.74219C10.6458 6.34635 9.84896 6.14844 8.875 6.14844H8.75V4.59375C8.75 4.45833 8.70573 4.34115 8.61719 4.24219C8.52865 4.14323 8.41406 4.09375 8.27344 4.09375C8.17448 4.09375 8.08594 4.11719 8.00781 4.16406C7.92969 4.21094 7.83854 4.28385 7.73438 4.38281L4.51562 7.39844C4.43229 7.47656 4.375 7.55208 4.34375 7.625C4.31771 7.69271 4.30469 7.76302 4.30469 7.83594C4.30469 7.90365 4.31771 7.97396 4.34375 8.04688C4.375 8.11458 4.43229 8.1875 4.51562 8.26562L7.73438 11.2969C7.83333 11.3906 7.92448 11.4609 8.00781 11.5078C8.09635 11.5495 8.1875 11.5703 8.28125 11.5703Z" fill="white"/>
</svg>
