<?xml version="1.0" encoding="UTF-8"?>
<svg xmlns="http://www.w3.org/2000/svg" xmlns:xlink="http://www.w3.org/1999/xlink" width="24" height="25.5" viewBox="0 0 24 25.5" version="1.1">
<g id="surface1">
<path style=" stroke:none;fill-rule:nonzero;fill:rgb(100%,100%,100%);fill-opacity:1;" d="M 12 24.492188 C 13.632812 24.492188 15.167969 24.179688 16.605469 23.554688 C 18.050781 22.929688 19.324219 22.066406 20.425781 20.964844 C 21.527344 19.863281 22.390625 18.59375 23.015625 17.15625 C 23.640625 15.710938 23.953125 14.171875 23.953125 12.539062 C 23.953125 10.90625 23.640625 9.371094 23.015625 7.933594 C 22.390625 6.488281 21.527344 5.214844 20.425781 4.113281 C 19.324219 3.011719 18.050781 2.148438 16.605469 1.523438 C 15.160156 0.898438 13.621094 0.585938 11.988281 0.585938 C 10.355469 0.585938 8.816406 0.898438 7.371094 1.523438 C 5.933594 2.148438 4.664062 3.011719 3.5625 4.113281 C 2.46875 5.214844 1.609375 6.488281 0.984375 7.933594 C 0.359375 9.371094 0.046875 10.90625 0.046875 12.539062 C 0.046875 14.171875 0.359375 15.710938 0.984375 17.15625 C 1.609375 18.59375 2.472656 19.863281 3.574219 20.964844 C 4.675781 22.066406 5.945312 22.929688 7.382812 23.554688 C 8.828125 24.179688 10.367188 24.492188 12 24.492188 Z M 12 22.5 C 10.617188 22.5 9.324219 22.242188 8.121094 21.726562 C 6.917969 21.210938 5.859375 20.5 4.945312 19.59375 C 4.039062 18.679688 3.328125 17.621094 2.8125 16.417969 C 2.304688 15.214844 2.050781 13.921875 2.050781 12.539062 C 2.050781 11.15625 2.304688 9.863281 2.8125 8.660156 C 3.328125 7.457031 4.039062 6.398438 4.945312 5.484375 C 5.851562 4.570312 6.90625 3.859375 8.109375 3.351562 C 9.3125 2.835938 10.605469 2.578125 11.988281 2.578125 C 13.371094 2.578125 14.664062 2.835938 15.867188 3.351562 C 17.078125 3.859375 18.136719 4.570312 19.042969 5.484375 C 19.957031 6.398438 20.671875 7.457031 21.1875 8.660156 C 21.703125 9.863281 21.960938 11.15625 21.960938 12.539062 C 21.960938 13.921875 21.703125 15.214844 21.1875 16.417969 C 20.679688 17.621094 19.96875 18.679688 19.054688 19.59375 C 18.140625 20.5 17.082031 21.210938 15.878906 21.726562 C 14.675781 22.242188 13.382812 22.5 12 22.5 Z M 18.035156 13.96875 C 18.035156 13.023438 17.828125 12.214844 17.414062 11.542969 C 17 10.863281 16.433594 10.34375 15.714844 9.984375 C 14.996094 9.617188 14.179688 9.433594 13.265625 9.433594 L 9.773438 9.433594 L 8.378906 9.480469 L 9.304688 8.753906 L 10.523438 7.582031 C 10.695312 7.417969 10.78125 7.214844 10.78125 6.972656 C 10.78125 6.730469 10.699219 6.527344 10.535156 6.363281 C 10.378906 6.199219 10.183594 6.117188 9.949219 6.117188 C 9.707031 6.117188 9.503906 6.203125 9.339844 6.375 L 6.234375 9.539062 C 6.023438 9.742188 5.917969 9.980469 5.917969 10.253906 C 5.917969 10.519531 6.023438 10.753906 6.234375 10.957031 L 9.351562 14.15625 C 9.515625 14.320312 9.71875 14.402344 9.960938 14.402344 C 10.1875 14.402344 10.378906 14.320312 10.535156 14.15625 C 10.699219 13.992188 10.78125 13.789062 10.78125 13.546875 C 10.78125 13.296875 10.699219 13.09375 10.535156 12.9375 L 9.070312 11.53125 L 8.378906 11.027344 L 9.773438 11.074219 L 13.265625 11.074219 C 14.132812 11.074219 14.855469 11.316406 15.433594 11.800781 C 16.019531 12.277344 16.3125 12.96875 16.3125 13.875 C 16.3125 14.796875 16.023438 15.527344 15.445312 16.066406 C 14.875 16.597656 14.144531 16.863281 13.253906 16.863281 C 13.207031 16.863281 13.054688 16.863281 12.796875 16.863281 C 12.539062 16.863281 12.28125 16.863281 12.023438 16.863281 C 11.773438 16.863281 11.640625 16.863281 11.625 16.863281 C 11.382812 16.863281 11.175781 16.933594 11.003906 17.074219 C 10.832031 17.214844 10.746094 17.421875 10.746094 17.695312 C 10.746094 17.96875 10.832031 18.179688 11.003906 18.328125 C 11.175781 18.46875 11.390625 18.539062 11.648438 18.539062 C 11.671875 18.539062 11.804688 18.539062 12.046875 18.539062 C 12.296875 18.539062 12.546875 18.539062 12.796875 18.539062 C 13.054688 18.539062 13.207031 18.539062 13.253906 18.539062 C 14.167969 18.539062 14.984375 18.355469 15.703125 17.988281 C 16.429688 17.613281 17 17.085938 17.414062 16.40625 C 17.828125 15.71875 18.035156 14.90625 18.035156 13.96875 Z M 18.035156 13.96875 "/>
</g>
</svg>
