<svg xmlns="http://www.w3.org/2000/svg" width="24" height="24"><path style="stroke:none;fill-rule:nonzero;fill:#fff;fill-opacity:1" d="M12 23.05c1.633 0 3.168-.292 4.605-.882a12.22 12.22 0 0 0 3.82-2.438 11.467 11.467 0 0 0 2.59-3.582c.626-1.363.938-2.808.938-4.347a10.2 10.2 0 0 0-.937-4.332 11.53 11.53 0 0 0-2.59-3.598 12.361 12.361 0 0 0-3.82-2.437A12.166 12.166 0 0 0 11.987.55c-1.633 0-3.172.293-4.617.883A12.307 12.307 0 0 0 3.562 3.87 11.523 11.523 0 0 0 .985 7.465 10.2 10.2 0 0 0 .047 11.8c0 1.539.312 2.984.937 4.347a11.467 11.467 0 0 0 2.59 3.582 12.236 12.236 0 0 0 3.809 2.438c1.445.59 2.984.883 4.617.883Zm0-1.874a10.222 10.222 0 0 1-7.055-2.734 9.548 9.548 0 0 1-2.133-2.989 8.83 8.83 0 0 1-.761-3.652c0-1.301.254-2.52.761-3.649A9.52 9.52 0 0 1 4.946 5.16 9.82 9.82 0 0 1 8.11 3.156c1.204-.488 2.496-.73 3.88-.73 1.382 0 2.675.242 3.878.73a9.701 9.701 0 0 1 3.176 2.004 9.432 9.432 0 0 1 2.145 2.992 8.685 8.685 0 0 1 .773 3.649c0 1.3-.258 2.52-.773 3.652a9.22 9.22 0 0 1-2.133 2.988A10.222 10.222 0 0 1 12 21.176Zm-.023-5.867c.21 0 .406-.086.585-.254l3.961-3.793a.733.733 0 0 0 .2-.266.774.774 0 0 0 .058-.297.69.69 0 0 0-.21-.508.74.74 0 0 0-.54-.21.813.813 0 0 0-.304.058.6.6 0 0 0-.27.164l-.738.695-2.086 2.227.117-2.008V6.055a.688.688 0 0 0-.219-.524.779.779 0 0 0-.554-.215.817.817 0 0 0-.586.211.71.71 0 0 0-.211.528v5.062l.14 2.02-2.133-2.239-.68-.695a.545.545 0 0 0-.245-.168.962.962 0 0 0-.317-.055.757.757 0 0 0-.547.211.674.674 0 0 0-.214.516c0 .082.023.18.07.29a.815.815 0 0 0 .176.253l3.96 3.805c.165.168.36.254.587.254Zm-4.395 2.328h8.8a.745.745 0 0 0 .774-.75.67.67 0 0 0-.222-.52.766.766 0 0 0-.551-.21H7.582a.794.794 0 0 0-.562.21.692.692 0 0 0-.211.52c0 .21.07.39.21.539.149.14.352.215.563.21Zm0 0"/></svg>