<svg xmlns="http://www.w3.org/2000/svg" width="24" height="24"><path style="stroke:none;fill-rule:nonzero;fill:#fff;fill-opacity:1" d="M4.887 23.3h14.215c1.226 0 2.144-.323 2.753-.976.618-.64.926-1.605.926-2.898V4.164c0-1.293-.308-2.258-.926-2.898-.609-.653-1.527-.977-2.753-.977H4.887c-1.227 0-2.149.324-2.766.977-.61.64-.914 1.605-.914 2.898v15.262c0 1.293.305 2.258.914 2.902.617.649 1.54.973 2.766.973Zm7.136-19.55c.227 0 .461.121.704.363l3.503 3.723c.165.16.247.387.247.676a.94.94 0 0 1-.258.664.813.813 0 0 1-.621.261.883.883 0 0 1-.645-.273l-.902-.976-1.219-1.563.105 2.727v4.835l-.105 2.723 1.219-1.562.902-.973a.858.858 0 0 1 .645-.277c.25 0 .457.093.62.277a.896.896 0 0 1 .259.648c0 .293-.082.516-.247.676l-3.503 3.727c-.243.242-.477.36-.704.36-.242 0-.48-.118-.714-.36l-3.493-3.727c-.171-.168-.257-.39-.257-.676a.89.89 0 0 1 .257-.648.833.833 0 0 1 .633-.277c.242 0 .473.097.645.277l.89.973 1.23 1.574-.105-2.735V9.352l.106-2.739-1.23 1.574-.891.977a.854.854 0 0 1-.645.274.852.852 0 0 1-.633-.262.94.94 0 0 1-.257-.664c0-.282.086-.508.257-.676l3.493-3.723c.234-.242.472-.363.714-.363Zm0 0"/></svg>