<svg xmlns="http://www.w3.org/2000/svg" width="24" height="24"><path style="stroke:none;fill-rule:nonzero;fill:#fff;fill-opacity:1" d="M4.887 23.3h14.215c1.226 0 2.144-.323 2.753-.976.618-.64.926-1.605.926-2.898V4.164c0-1.293-.308-2.258-.926-2.898-.609-.653-1.527-.977-2.753-.977H4.887c-1.227 0-2.149.324-2.766.977-.61.64-.914 1.605-.914 2.898v15.262c0 1.293.305 2.258.914 2.902.617.649 1.54.973 2.766.973Zm2.906-7.55c-.29 0-.484-.145-.586-.438a1.008 1.008 0 0 1 .07-.847l4.078-7.34a.726.726 0 0 1 .645-.41c.29-.012.512.129.668.41l4.043 7.34c.164.297.191.59.082.875-.102.273-.297.41-.586.41Zm0 0"/></svg>