<svg xmlns="http://www.w3.org/2000/svg" width="24" height="24"><path style="stroke:none;fill-rule:nonzero;fill:#fff;fill-opacity:1" d="M4.313 23.305c.312 0 .722-.082 1.23-.242a14.634 14.634 0 0 0 1.633-.649c.59-.273 1.172-.574 1.742-.906a12.972 12.972 0 0 0 1.531-.992.994.994 0 0 1 .25-.145.606.606 0 0 1 .219-.043c.066.004.137.008.207.008.07.008.137.012.2.012 1.5 0 2.89-.168 4.175-.508 1.285-.336 2.438-.813 3.457-1.43 1.027-.62 1.902-1.344 2.625-2.176a9.213 9.213 0 0 0 1.656-2.754c.383-1 .578-2.066.575-3.144a8.54 8.54 0 0 0-.918-3.906 9.814 9.814 0 0 0-2.532-3.188c-1.074-.918-2.328-1.637-3.758-2.152C15.172.57 13.641.309 12 .309c-1.64 0-3.172.261-4.605.78-1.43.516-2.688 1.235-3.77 2.153A10.026 10.026 0 0 0 1.094 6.43a8.64 8.64 0 0 0-.907 3.906c0 1.176.215 2.293.645 3.351a9.763 9.763 0 0 0 1.867 2.91 12.04 12.04 0 0 0 2.883 2.262c.07.04.125.106.148.188a.27.27 0 0 1-.023.23c-.191.34-.422.692-.687 1.051-.262.36-.52.692-.77.992-.242.309-.43.555-.563.739-.203.28-.25.554-.144.824.11.281.367.422.77.422Zm7.707-18.66c.238 0 .43.078.574.238.152.164.23.37.23.62v5.661l-.086 2.422 1.086-1.375 1.258-1.36a.726.726 0 0 1 .574-.25c.223 0 .41.079.563.239.152.156.23.351.23.586a.87.87 0 0 1-.219.597l-3.585 3.778c-.2.219-.41.324-.625.324-.215 0-.422-.105-.625-.32l-3.582-3.782a.828.828 0 0 1-.22-.597.836.836 0 0 1 .223-.59.736.736 0 0 1 .559-.234c.223 0 .414.082.574.25l1.27 1.359 1.074 1.367-.086-2.414v-5.66c0-.25.078-.457.23-.621a.775.775 0 0 1 .583-.238Zm0 0"/></svg>