<svg xmlns="http://www.w3.org/2000/svg" width="24" height="24"><path style="stroke:none;fill-rule:nonzero;fill:#fff;fill-opacity:1" d="M.293 11.777a1.948 1.948 0 0 0 .531 1.332l8.219 9.317c.25.281.484.488.707.613.223.133.46.195.719.195.355 0 .644-.132.875-.41.23-.273.344-.625.344-1.05V17h8.457c.828 0 1.464-.266 1.918-.8.457-.544.687-1.294.687-2.262V9.625c0-.969-.23-1.719-.688-2.25-.453-.54-1.09-.813-1.917-.813h-8.457V1.837a1.708 1.708 0 0 0-.344-1.074 1.084 1.084 0 0 0-.895-.45c-.258 0-.488.07-.687.211-.203.133-.442.356-.719.676L.824 10.426c-.203.222-.34.453-.418.687-.074.211-.113.434-.113.66Zm1.863 0c0-.078.04-.156.114-.242L9.687 3a.394.394 0 0 1 .083-.059c.027-.027.058-.043.093-.039.098 0 .149.055.149.172V8.04c0 .274.117.414.351.414h9.762c.332 0 .59.113.77.336.187.219.28.531.28.938v4.113c0 .848-.347 1.273-1.05 1.273h-9.762c-.234 0-.351.137-.351.414v4.836c0 .125-.047.188-.137.188-.063 0-.121-.035-.176-.113l-7.43-8.422-.093-.13a.359.359 0 0 1-.02-.109Zm0 0"/></svg>