<svg width="128" height="128" viewBox="0 0 128 128" fill="none" xmlns="http://www.w3.org/2000/svg">
<path d="M63.9375 127.625C72.6458 127.625 80.8333 125.958 88.5 122.625C96.2083 119.292 103 114.688 108.875 108.812C114.75 102.938 119.354 96.1667 122.688 88.5C126.021 80.7917 127.688 72.5833 127.688 63.875C127.688 55.1667 126.021 46.9792 122.688 39.3125C119.354 31.6042 114.75 24.8125 108.875 18.9375C103 13.0625 96.2083 8.45833 88.5 5.125C80.7917 1.79167 72.5833 0.125 63.875 0.125C55.1667 0.125 46.9583 1.79167 39.25 5.125C31.5833 8.45833 24.8125 13.0625 18.9375 18.9375C13.1042 24.8125 8.52083 31.6042 5.1875 39.3125C1.85417 46.9792 0.1875 55.1667 0.1875 63.875C0.1875 72.5833 1.85417 80.7917 5.1875 88.5C8.52083 96.1667 13.125 102.938 19 108.812C24.875 114.688 31.6458 119.292 39.3125 122.625C47.0208 125.958 55.2292 127.625 63.9375 127.625ZM41.5 83.75C39.9583 83.75 38.9167 83.0208 38.375 81.5625C37.8333 80.1042 37.9583 78.6875 38.75 77.3125L60.5 40.625C61.2917 39.2917 62.4375 38.6042 63.9375 38.5625C65.4792 38.5208 66.6667 39.2083 67.5 40.625L89.0625 77.3125C89.9375 78.8125 90.0833 80.2708 89.5 81.6875C88.9583 83.0625 87.9167 83.75 86.375 83.75H41.5Z" fill="white"/>
</svg>
