<svg width="128" height="128" viewBox="0 0 128 128" fill="none" xmlns="http://www.w3.org/2000/svg">
<path d="M63.9375 127.625C72.6458 127.625 80.8333 125.958 88.5 122.625C96.2083 119.292 103 114.688 108.875 108.812C114.75 102.938 119.354 96.1667 122.688 88.5C126.021 80.7917 127.688 72.5833 127.688 63.875C127.688 55.1667 126.021 46.9792 122.688 39.3125C119.354 31.6042 114.75 24.8125 108.875 18.9375C103 13.0625 96.2083 8.45833 88.5 5.125C80.7917 1.79167 72.5833 0.125 63.875 0.125C55.1667 0.125 46.9583 1.79167 39.25 5.125C31.5833 8.45833 24.8125 13.0625 18.9375 18.9375C13.1042 24.8125 8.52083 31.6042 5.1875 39.3125C1.85417 46.9792 0.1875 55.1667 0.1875 63.875C0.1875 72.5833 1.85417 80.7917 5.1875 88.5C8.52083 96.1667 13.125 102.938 19 108.812C24.875 114.688 31.6458 119.292 39.3125 122.625C47.0208 125.958 55.2292 127.625 63.9375 127.625ZM35.1875 63.875C33.8958 63.875 32.7917 63.4167 31.875 62.5C30.9583 61.5833 30.5 60.4583 30.5 59.125V35.9375C30.5 33.9792 30.9792 32.5833 31.9375 31.75C32.8958 30.875 34.25 30.4375 36 30.4375H59.125C60.4167 30.4375 61.5208 30.8958 62.4375 31.8125C63.3542 32.7292 63.8125 33.8333 63.8125 35.125C63.8125 36.4583 63.3542 37.5833 62.4375 38.5C61.5208 39.4167 60.4167 39.875 59.125 39.875L55.875 39.8125L45.75 39.1875L60.625 53.4375C61.625 54.3542 62.125 55.5208 62.125 56.9375C62.1667 58.3542 61.6875 59.5625 60.6875 60.5625C59.7292 61.5208 58.5417 62.0208 57.125 62.0625C55.75 62.0625 54.5625 61.5417 53.5625 60.5L39.3125 45.4375L39.9375 55.9375V59.125C39.9375 60.4583 39.4792 61.5833 38.5625 62.5C37.6458 63.4167 36.5208 63.875 35.1875 63.875ZM68.8125 97.375C67.4792 97.375 66.3542 96.9167 65.4375 96C64.5208 95.0833 64.0625 93.9792 64.0625 92.6875C64.0625 91.3542 64.5208 90.2292 65.4375 89.3125C66.3542 88.3958 67.4792 87.9375 68.8125 87.9375L72.0625 88L82.1875 88.625L67.3125 74.375C66.3125 73.4583 65.7917 72.2917 65.75 70.875C65.75 69.4583 66.25 68.25 67.25 67.25C68.2083 66.2917 69.375 65.8125 70.75 65.8125C72.1667 65.7708 73.375 66.2708 74.375 67.3125L88.625 82.375L88 71.875V68.6875C88 67.3542 88.4583 66.2292 89.375 65.3125C90.2917 64.3958 91.3958 63.9375 92.6875 63.9375C94.0208 63.9375 95.1458 64.3958 96.0625 65.3125C96.9792 66.2292 97.4375 67.3542 97.4375 68.6875V91.875C97.4375 93.8333 96.9375 95.25 95.9375 96.125C94.9792 96.9583 93.625 97.375 91.875 97.375H68.8125Z" fill="white"/>
</svg>
