<svg width="158" height="110" viewBox="0 0 158 110" fill="none" xmlns="http://www.w3.org/2000/svg">
<path d="M123.688 109.125C128.396 109.125 132.792 108.312 136.875 106.688C140.958 105.104 144.521 102.896 147.562 100.062C150.646 97.2292 153.042 93.9375 154.75 90.1875C156.458 86.4375 157.312 82.4167 157.312 78.125C157.312 73.75 156.521 69.6458 154.938 65.8125C153.354 61.9375 151.083 58.5208 148.125 55.5625C145.167 52.5625 141.646 50.2083 137.562 48.5C137.562 41.5417 136.417 35.1458 134.125 29.3125C131.833 23.4375 128.604 18.3542 124.438 14.0625C120.312 9.72917 115.479 6.39583 109.938 4.0625C104.438 1.6875 98.4792 0.5 92.0625 0.5C86.3958 0.5 81.2708 1.41667 76.6875 3.25C72.1458 5.04167 68.1042 7.45833 64.5625 10.5C61.0625 13.5 58.0625 16.8333 55.5625 20.5C51.7292 19.375 47.8958 19.2083 44.0625 20C40.2708 20.75 36.8125 22.2917 33.6875 24.625C30.5625 26.9167 28.0417 29.8333 26.125 33.375C24.2083 36.875 23.2083 40.8125 23.125 45.1875C18.4167 45.9375 14.3333 47.7292 10.875 50.5625C7.45833 53.3958 4.8125 56.9583 2.9375 61.25C1.10417 65.5417 0.1875 70.2292 0.1875 75.3125C0.1875 79.8958 1.125 84.2292 3 88.3125C4.875 92.3958 7.5 96 10.875 99.125C14.2917 102.208 18.2708 104.646 22.8125 106.438C27.3542 108.229 32.2917 109.125 37.625 109.125H123.688ZM123.688 99.0625H37.625C32.375 99.0625 27.6875 97.9792 23.5625 95.8125C19.4375 93.6042 16.1875 90.7083 13.8125 87.125C11.4375 83.5 10.25 79.5625 10.25 75.3125C10.25 71.1458 11.0625 67.375 12.6875 64C14.3125 60.5833 16.6667 57.875 19.75 55.875C22.875 53.875 26.6458 52.875 31.0625 52.875C31.8542 52.875 32.25 52.4583 32.25 51.625C32.25 46.7917 33.0208 42.8125 34.5625 39.6875C36.1458 36.5208 38.2292 34.125 40.8125 32.5C43.3958 30.8333 46.25 29.8958 49.375 29.6875C52.5417 29.4375 55.7292 29.8333 58.9375 30.875C59.6458 31.0833 60.1667 30.875 60.5 30.25C62.5417 26.6667 64.9792 23.375 67.8125 20.375C70.6458 17.375 74.0417 15 78 13.25C82 11.4583 86.6875 10.5625 92.0625 10.5625C98.8958 10.5625 104.938 12.1875 110.188 15.4375C115.438 18.6458 119.604 22.8958 122.688 28.1875C125.771 33.4792 127.479 39.2083 127.812 45.375C127.896 46.8333 127.896 48.375 127.812 50C127.771 51.5833 127.688 53.1042 127.562 54.5625C127.479 55.3542 127.812 55.8333 128.562 56C134.229 57.25 138.75 59.8333 142.125 63.75C145.542 67.6667 147.25 72.4583 147.25 78.125C147.25 82 146.208 85.5208 144.125 88.6875C142.042 91.8542 139.208 94.375 135.625 96.25C132.083 98.125 128.104 99.0625 123.688 99.0625ZM105.25 62.5C105.25 57.875 104.125 53.7083 101.875 50C99.625 46.25 96.6667 43.2917 93 41.125C89.3333 38.9167 85.375 37.8125 81.125 37.8125C80.875 37.8125 80.625 37.8333 80.375 37.875C80.125 37.875 79.875 37.8958 79.625 37.9375L83.5625 33.875C83.8958 33.5417 84.1458 33.1458 84.3125 32.6875C84.5208 32.2292 84.625 31.7708 84.625 31.3125C84.625 30.3125 84.2708 29.4583 83.5625 28.75C82.8958 28 82.0625 27.625 81.0625 27.625C80.5625 27.625 80.0833 27.7292 79.625 27.9375C79.1667 28.1458 78.7708 28.4375 78.4375 28.8125L67.625 39.8125C66.9583 40.4792 66.6042 41.3542 66.5625 42.4375C66.5625 43.4792 66.9167 44.3542 67.625 45.0625L78.5625 56C79.2292 56.6667 80.0417 57 81 57C82 57 82.8542 56.6667 83.5625 56C84.2708 55.2917 84.625 54.4375 84.625 53.4375C84.625 52.4792 84.25 51.625 83.5 50.875L78.0625 45.5C78.3542 45.4583 78.6667 45.4167 79 45.375C79.375 45.3333 79.7292 45.3125 80.0625 45.3125C83.3125 45.3125 86.25 46.1042 88.875 47.6875C91.5 49.2292 93.5833 51.3125 95.125 53.9375C96.7083 56.5625 97.5 59.4792 97.5 62.6875C97.5 65.9375 96.7083 68.8958 95.125 71.5625C93.5833 74.1875 91.5 76.2917 88.875 77.875C86.25 79.4167 83.3125 80.1875 80.0625 80.1875C76.8542 80.1875 73.9375 79.4167 71.3125 77.875C68.6875 76.2917 66.5833 74.1875 65 71.5625C63.4583 68.8958 62.6875 65.9375 62.6875 62.6875C62.6875 61.6458 62.2917 60.75 61.5 60C60.75 59.25 59.8542 58.875 58.8125 58.875C57.7708 58.875 56.8542 59.25 56.0625 60C55.3125 60.75 54.9375 61.6458 54.9375 62.6875C54.9375 67.3542 56.0625 71.6042 58.3125 75.4375C60.5625 79.2292 63.5833 82.2708 67.375 84.5625C71.2083 86.8125 75.4375 87.9375 80.0625 87.9375C84.7292 87.9375 88.9583 86.8125 92.75 84.5625C96.5833 82.2708 99.625 79.2083 101.875 75.375C104.125 71.5417 105.25 67.25 105.25 62.5Z" fill="white"/>
</svg>
