<svg width="116" height="116" viewBox="0 0 116 116" fill="none" xmlns="http://www.w3.org/2000/svg">
<path d="M20.5625 115.5H96.375C102.917 115.5 107.812 113.875 111.062 110.625C114.354 107.417 116 102.583 116 96.125V19.8125C116 13.3542 114.354 8.52083 111.062 5.3125C107.812 2.0625 102.917 0.4375 96.375 0.4375H20.5625C14.0208 0.4375 9.10417 2.0625 5.8125 5.3125C2.5625 8.52083 0.9375 13.3542 0.9375 19.8125V96.125C0.9375 102.583 2.5625 107.417 5.8125 110.625C9.10417 113.875 14.0208 115.5 20.5625 115.5ZM25.4375 57.75C25.4375 56.5 26.0625 55.25 27.3125 54L49.0625 32.1875C49.8958 31.3125 51.0208 30.875 52.4375 30.875C53.7708 30.875 54.875 31.3333 55.75 32.25C56.6667 33.125 57.125 34.2292 57.125 35.5625C57.125 36.8125 56.625 37.9583 55.625 39L47.625 46.9375L39.875 53.4375L53.5 52.875H86.9375C88.3542 52.875 89.5208 53.3333 90.4375 54.25C91.3542 55.1667 91.8125 56.3333 91.8125 57.75C91.8125 59.1667 91.3542 60.3333 90.4375 61.25C89.5208 62.1667 88.3542 62.625 86.9375 62.625H53.5L39.8125 62.0625L47.625 68.625L55.625 76.5C56.625 77.4583 57.125 78.625 57.125 80C57.125 81.3333 56.6667 82.4583 55.75 83.375C54.875 84.2917 53.7708 84.75 52.4375 84.75C51.0625 84.75 49.9375 84.2917 49.0625 83.375L27.3125 61.5625C26.0625 60.3125 25.4375 59.0417 25.4375 57.75Z" fill="white"/>
</svg>
