<svg width="20" height="15" viewBox="0 0 20 15" fill="none" xmlns="http://www.w3.org/2000/svg">
<path d="M15.6172 14.5156C16.2057 14.5156 16.7552 14.4141 17.2656 14.2109C17.776 14.013 18.2214 13.737 18.6016 13.3828C18.987 13.0286 19.2865 12.6172 19.5 12.1484C19.7135 11.6797 19.8203 11.1771 19.8203 10.6406C19.8203 10.0938 19.7214 9.58073 19.5234 9.10156C19.3255 8.61719 19.0417 8.1901 18.6719 7.82031C18.3021 7.44531 17.862 7.15104 17.3516 6.9375C17.3516 6.06771 17.2083 5.26823 16.9219 4.53906C16.6354 3.80469 16.2318 3.16927 15.7109 2.63281C15.1953 2.09115 14.5911 1.67448 13.8984 1.38281C13.2109 1.08594 12.4661 0.9375 11.6641 0.9375C10.9557 0.9375 10.3151 1.05208 9.74219 1.28125C9.17448 1.50521 8.66927 1.80729 8.22656 2.1875C7.78906 2.5625 7.41406 2.97917 7.10156 3.4375C6.6224 3.29688 6.14323 3.27604 5.66406 3.375C5.1901 3.46875 4.75781 3.66146 4.36719 3.95312C3.97656 4.23958 3.66146 4.60417 3.42188 5.04688C3.18229 5.48438 3.05729 5.97656 3.04688 6.52344C2.45833 6.61719 1.94792 6.84115 1.51562 7.19531C1.08854 7.54948 0.757812 7.99479 0.523438 8.53125C0.294271 9.06771 0.179688 9.65365 0.179688 10.2891C0.179688 10.862 0.296875 11.4036 0.53125 11.9141C0.765625 12.4245 1.09375 12.875 1.51562 13.2656C1.94271 13.651 2.4401 13.9557 3.00781 14.1797C3.57552 14.4036 4.19271 14.5156 4.85938 14.5156H15.6172ZM15.6172 13.2578H4.85938C4.20312 13.2578 3.61719 13.1224 3.10156 12.8516C2.58594 12.5755 2.17969 12.2135 1.88281 11.7656C1.58594 11.3125 1.4375 10.8203 1.4375 10.2891C1.4375 9.76823 1.53906 9.29688 1.74219 8.875C1.94531 8.44792 2.23958 8.10938 2.625 7.85938C3.01562 7.60938 3.48698 7.48438 4.03906 7.48438C4.13802 7.48438 4.1875 7.43229 4.1875 7.32812C4.1875 6.72396 4.28385 6.22656 4.47656 5.83594C4.67448 5.4401 4.9349 5.14062 5.25781 4.9375C5.58073 4.72917 5.9375 4.61198 6.32812 4.58594C6.72396 4.55469 7.1224 4.60417 7.52344 4.73438C7.61198 4.76042 7.67708 4.73438 7.71875 4.65625C7.97396 4.20833 8.27865 3.79688 8.63281 3.42188C8.98698 3.04688 9.41146 2.75 9.90625 2.53125C10.4062 2.30729 10.9922 2.19531 11.6641 2.19531C12.5182 2.19531 13.2734 2.39844 13.9297 2.80469C14.5859 3.20573 15.1068 3.73698 15.4922 4.39844C15.8776 5.0599 16.0911 5.77604 16.1328 6.54688C16.1432 6.72917 16.1432 6.92188 16.1328 7.125C16.1276 7.32292 16.1172 7.51302 16.1016 7.69531C16.0911 7.79427 16.1328 7.85417 16.2266 7.875C16.9349 8.03125 17.5 8.35417 17.9219 8.84375C18.349 9.33333 18.5625 9.93229 18.5625 10.6406C18.5625 11.125 18.4323 11.5651 18.1719 11.9609C17.9115 12.3568 17.5573 12.6719 17.1094 12.9062C16.6667 13.1406 16.1693 13.2578 15.6172 13.2578ZM13.3125 8.6875C13.3125 8.10938 13.1719 7.58854 12.8906 7.125C12.6094 6.65625 12.2396 6.28646 11.7812 6.01562C11.3229 5.73958 10.8281 5.60156 10.2969 5.60156C10.2656 5.60156 10.2344 5.60417 10.2031 5.60938C10.1719 5.60938 10.1406 5.61198 10.1094 5.61719L10.6016 5.10938C10.6432 5.06771 10.6745 5.01823 10.6953 4.96094C10.7214 4.90365 10.7344 4.84635 10.7344 4.78906C10.7344 4.66406 10.6901 4.55729 10.6016 4.46875C10.5182 4.375 10.4141 4.32812 10.2891 4.32812C10.2266 4.32812 10.1667 4.34115 10.1094 4.36719C10.0521 4.39323 10.0026 4.42969 9.96094 4.47656L8.60938 5.85156C8.52604 5.9349 8.48177 6.04427 8.47656 6.17969C8.47656 6.3099 8.52083 6.41927 8.60938 6.50781L9.97656 7.875C10.0599 7.95833 10.1615 8 10.2812 8C10.4062 8 10.513 7.95833 10.6016 7.875C10.6901 7.78646 10.7344 7.67969 10.7344 7.55469C10.7344 7.4349 10.6875 7.32812 10.5938 7.23438L9.91406 6.5625C9.95052 6.55729 9.98958 6.55208 10.0312 6.54688C10.0781 6.54167 10.1224 6.53906 10.1641 6.53906C10.5703 6.53906 10.9375 6.63802 11.2656 6.83594C11.5938 7.02865 11.8542 7.28906 12.0469 7.61719C12.2448 7.94531 12.3438 8.3099 12.3438 8.71094C12.3438 9.11719 12.2448 9.48698 12.0469 9.82031C11.8542 10.1484 11.5938 10.4115 11.2656 10.6094C10.9375 10.8021 10.5703 10.8984 10.1641 10.8984C9.76302 10.8984 9.39844 10.8021 9.07031 10.6094C8.74219 10.4115 8.47917 10.1484 8.28125 9.82031C8.08854 9.48698 7.99219 9.11719 7.99219 8.71094C7.99219 8.58073 7.94271 8.46875 7.84375 8.375C7.75 8.28125 7.63802 8.23438 7.50781 8.23438C7.3776 8.23438 7.26302 8.28125 7.16406 8.375C7.07031 8.46875 7.02344 8.58073 7.02344 8.71094C7.02344 9.29427 7.16406 9.82552 7.44531 10.3047C7.72656 10.7786 8.10417 11.1589 8.57812 11.4453C9.05729 11.7266 9.58594 11.8672 10.1641 11.8672C10.7474 11.8672 11.276 11.7266 11.75 11.4453C12.2292 11.1589 12.6094 10.776 12.8906 10.2969C13.1719 9.81771 13.3125 9.28125 13.3125 8.6875Z" fill="white"/>
</svg>
