<?xml version="1.0" encoding="UTF-8"?>
<svg xmlns="http://www.w3.org/2000/svg" xmlns:xlink="http://www.w3.org/1999/xlink" width="24" height="20" viewBox="0 0 24 20" version="1.1">
<g id="surface1">
<path style=" stroke:none;fill-rule:nonzero;fill:rgb(100%,100%,100%);fill-opacity:1;" d="M 23.699219 9.8125 C 23.699219 9.640625 23.660156 9.453125 23.582031 9.261719 C 23.507812 9.066406 23.367188 8.875 23.167969 8.6875 L 14.949219 1 C 14.671875 0.734375 14.425781 0.546875 14.21875 0.4375 C 14.015625 0.320312 13.792969 0.261719 13.542969 0.261719 C 13.171875 0.261719 12.871094 0.386719 12.636719 0.636719 C 12.40625 0.886719 12.292969 1.183594 12.292969 1.53125 L 12.292969 5.46875 L 3.84375 5.46875 C 3.015625 5.46875 2.375 5.695312 1.917969 6.144531 C 1.464844 6.589844 1.238281 7.214844 1.238281 8.019531 L 1.238281 11.613281 C 1.238281 12.421875 1.464844 13.046875 1.917969 13.5 C 2.375 13.945312 3.015625 14.167969 3.84375 14.167969 L 12.292969 14.167969 L 12.292969 18.144531 C 12.292969 18.5 12.40625 18.792969 12.636719 19.019531 C 12.871094 19.25 13.167969 19.363281 13.519531 19.363281 C 13.769531 19.363281 14.007812 19.308594 14.230469 19.199219 C 14.457031 19.09375 14.699219 18.921875 14.949219 18.6875 L 23.167969 10.925781 C 23.367188 10.738281 23.507812 10.546875 23.582031 10.355469 C 23.660156 10.160156 23.699219 9.980469 23.699219 9.8125 Z M 21.824219 9.8125 C 21.824219 9.839844 21.816406 9.871094 21.800781 9.90625 C 21.789062 9.933594 21.761719 9.96875 21.71875 10.011719 L 14.292969 17.03125 C 14.234375 17.09375 14.175781 17.125 14.113281 17.125 C 14.015625 17.125 13.96875 17.074219 13.96875 16.96875 L 13.96875 12.9375 C 13.96875 12.707031 13.855469 12.59375 13.625 12.59375 L 3.863281 12.59375 C 3.164062 12.59375 2.8125 12.238281 2.8125 11.53125 L 2.8125 8.105469 C 2.8125 7.765625 2.902344 7.503906 3.082031 7.324219 C 3.269531 7.136719 3.53125 7.042969 3.863281 7.042969 L 13.625 7.042969 C 13.855469 7.042969 13.96875 6.925781 13.96875 6.699219 L 13.96875 2.5625 C 13.96875 2.464844 14.019531 2.417969 14.125 2.417969 C 14.152344 2.417969 14.179688 2.425781 14.207031 2.449219 C 14.242188 2.460938 14.273438 2.480469 14.300781 2.5 L 21.71875 9.613281 C 21.789062 9.683594 21.824219 9.75 21.824219 9.8125 Z M 21.824219 9.8125 "/>
</g>
</svg>
