<svg width="116" height="116" viewBox="0 0 116 116" fill="none" xmlns="http://www.w3.org/2000/svg">
<path d="M20.5625 115.5H96.375C102.917 115.5 107.812 113.875 111.062 110.625C114.354 107.417 116 102.583 116 96.125V19.8125C116 13.3542 114.354 8.52083 111.062 5.3125C107.812 2.0625 102.917 0.4375 96.375 0.4375H20.5625C14.0208 0.4375 9.10417 2.0625 5.8125 5.3125C2.5625 8.52083 0.9375 13.3542 0.9375 19.8125V96.125C0.9375 102.583 2.5625 107.417 5.8125 110.625C9.10417 113.875 14.0208 115.5 20.5625 115.5ZM38.25 41.875C39.7083 41.875 40.875 42.3333 41.75 43.25C42.625 44.125 43.0625 45.3542 43.0625 46.9375V58L42.125 68L51.4375 58.125L75 34.4375C75.4583 33.9792 76 33.625 76.625 33.375C77.25 33.0833 77.9583 32.9375 78.75 32.9375C80.1667 32.9375 81.2917 33.375 82.125 34.25C83 35.125 83.4375 36.3125 83.4375 37.8125C83.4375 39.0625 82.9167 40.2083 81.875 41.25L58.25 64.875L48.1875 74.25L57.75 73.25H69.375C70.9167 73.25 72.1458 73.6875 73.0625 74.5625C74.0208 75.4375 74.5 76.5833 74.5 78C74.5 79.4167 74.0417 80.5625 73.125 81.4375C72.2083 82.3125 71 82.75 69.5 82.75H38.9375C37.2708 82.75 35.9583 82.3333 35 81.5C34.0417 80.6667 33.5625 79.2917 33.5625 77.375V47.0625C33.5625 45.5208 33.9792 44.2708 34.8125 43.3125C35.6875 42.3542 36.8333 41.875 38.25 41.875Z" fill="white"/>
</svg>
