<svg width="128" height="128" viewBox="0 0 128 128" fill="none" xmlns="http://www.w3.org/2000/svg">
<path d="M63.9375 127.625C72.6458 127.625 80.8333 125.958 88.5 122.625C96.2083 119.292 103 114.688 108.875 108.812C114.75 102.938 119.354 96.1667 122.688 88.5C126.021 80.7917 127.688 72.5833 127.688 63.875C127.688 55.1667 126.021 46.9792 122.688 39.3125C119.354 31.6042 114.75 24.8125 108.875 18.9375C103 13.0625 96.2083 8.45833 88.5 5.125C80.7917 1.79167 72.5833 0.125 63.875 0.125C55.1667 0.125 46.9583 1.79167 39.25 5.125C31.5833 8.45833 24.8125 13.0625 18.9375 18.9375C13.1042 24.8125 8.52083 31.6042 5.1875 39.3125C1.85417 46.9792 0.1875 55.1667 0.1875 63.875C0.1875 72.5833 1.85417 80.7917 5.1875 88.5C8.52083 96.1667 13.125 102.938 19 108.812C24.875 114.688 31.6458 119.292 39.3125 122.625C47.0208 125.958 55.2292 127.625 63.9375 127.625ZM84.125 47.875C85.5417 47.875 86.6667 48.3542 87.5 49.3125C88.375 50.2708 88.8125 51.5208 88.8125 53.0625V83.375C88.8125 85.2917 88.3333 86.6667 87.375 87.5C86.4167 88.3333 85.1042 88.75 83.4375 88.75H52.875C51.375 88.75 50.1667 88.3125 49.25 87.4375C48.3333 86.5625 47.875 85.4167 47.875 84C47.875 82.5833 48.3333 81.4375 49.25 80.5625C50.2083 79.6875 51.4583 79.25 53 79.25H64.625L74.1875 80.25L64.1875 70.875L40.5 47.25C39.4583 46.2083 38.9375 45.0625 38.9375 43.8125C38.9375 42.3125 39.375 41.125 40.25 40.25C41.125 39.375 42.25 38.9375 43.625 38.9375C44.4167 38.9375 45.125 39.0833 45.75 39.375C46.375 39.625 46.9167 39.9792 47.375 40.4375L71 64.125L80.25 74L79.3125 64V52.9375C79.3125 51.3542 79.75 50.125 80.625 49.25C81.5 48.3333 82.6667 47.875 84.125 47.875Z" fill="white"/>
</svg>
