<svg width="128" height="128" viewBox="0 0 128 128" fill="none" xmlns="http://www.w3.org/2000/svg">
<path d="M63.9375 127.625C72.6458 127.625 80.8333 125.958 88.5 122.625C96.2083 119.292 103 114.688 108.875 108.812C114.75 102.938 119.354 96.1667 122.688 88.5C126.021 80.7917 127.688 72.5833 127.688 63.875C127.688 55.1667 126.021 46.9792 122.688 39.3125C119.354 31.6042 114.75 24.8125 108.875 18.9375C103 13.0625 96.2083 8.45833 88.5 5.125C80.7917 1.79167 72.5833 0.125 63.875 0.125C55.1667 0.125 46.9583 1.79167 39.25 5.125C31.5833 8.45833 24.8125 13.0625 18.9375 18.9375C13.1042 24.8125 8.52083 31.6042 5.1875 39.3125C1.85417 46.9792 0.1875 55.1667 0.1875 63.875C0.1875 72.5833 1.85417 80.7917 5.1875 88.5C8.52083 96.1667 13.125 102.938 19 108.812C24.875 114.688 31.6458 119.292 39.3125 122.625C47.0208 125.958 55.2292 127.625 63.9375 127.625ZM43.625 79.8125C42.2083 79.8125 41.0625 79.3333 40.1875 78.375C39.3542 77.4167 38.9375 76.1667 38.9375 74.625V44.3125C38.9375 42.3958 39.4167 41.0208 40.375 40.1875C41.3333 39.3542 42.6458 38.9375 44.3125 38.9375H74.875C76.375 38.9375 77.5833 39.375 78.5 40.25C79.4167 41.125 79.875 42.2708 79.875 43.6875C79.875 45.1042 79.3958 46.25 78.4375 47.125C77.5208 48 76.2917 48.4375 74.75 48.4375H63.125L53.5625 47.4375L63.625 56.8125L87.25 80.4375C88.2917 81.4792 88.8125 82.625 88.8125 83.875C88.8125 85.375 88.375 86.5625 87.5 87.4375C86.6667 88.3125 85.5417 88.75 84.125 88.75C83.3333 88.75 82.625 88.625 82 88.375C81.375 88.0833 80.8333 87.7083 80.375 87.25L56.8125 63.5625L47.5 53.6875L48.4375 63.6875V74.75C48.4375 76.3333 48 77.5833 47.125 78.5C46.25 79.375 45.0833 79.8125 43.625 79.8125Z" fill="white"/>
</svg>
