<svg xmlns="http://www.w3.org/2000/svg" width="24" height="24"><path style="stroke:none;fill-rule:nonzero;fill:#fff;fill-opacity:1" d="M12.988 22.398c.25 0 .477-.128.68-.39l6.926-9.574c.097-.125.176-.278.23-.45.11-.324.11-.695 0-1.02a1.522 1.522 0 0 0-.23-.464L13.668.937c-.18-.253-.426-.398-.68-.402-.242-.008-.472.121-.644.36-.172.226-.266.546-.262.878 0 .172.023.34.063.504.039.157.105.301.187.422l2.336 3.27 4.094 5.18.207-.805-3.106-.16H2.137c-.25-.012-.489.117-.668.359-.168.25-.258.582-.25.922 0 .375.082.687.25.937.172.243.394.364.668.364h13.726l3.106-.16-.207-.793-4.094 5.148-2.336 3.289a1.293 1.293 0 0 0-.187.414 2.24 2.24 0 0 0-.063.496c0 .367.09.664.262.89.172.231.406.356.644.348Zm8.844 0a.79.79 0 0 0 .668-.347c.18-.227.277-.555.27-.89V1.815c.007-.343-.09-.68-.27-.921-.176-.243-.418-.375-.668-.36-.246-.012-.488.117-.664.36-.176.242-.27.578-.262.921V21.16c0 .367.086.664.262.89a.788.788 0 0 0 .664.348Zm0 0"/></svg>