<svg width="18" height="15" viewBox="0 0 18 15" fill="none" xmlns="http://www.w3.org/2000/svg">
<path d="M17.7734 7.35938C17.7734 7.22917 17.7448 7.09115 17.6875 6.94531C17.6302 6.79948 17.526 6.65625 17.375 6.51562L11.2109 0.75C11.0026 0.552083 10.8203 0.411458 10.6641 0.328125C10.513 0.239583 10.3438 0.195312 10.1562 0.195312C9.88021 0.195312 9.65365 0.289062 9.47656 0.476562C9.30469 0.664062 9.21875 0.888021 9.21875 1.14844V4.28125H2.72656C2.15885 4.28125 1.71615 4.4349 1.39844 4.74219C1.08594 5.04948 0.929688 5.48177 0.929688 6.03906V8.6875C0.929688 9.24479 1.08594 9.67708 1.39844 9.98438C1.71615 10.2917 2.15885 10.4453 2.72656 10.4453H9.21875V13.6094C9.21875 13.875 9.30469 14.0938 9.47656 14.2656C9.65365 14.4375 9.875 14.5234 10.1406 14.5234C10.3281 14.5234 10.5052 14.4818 10.6719 14.3984C10.8438 14.3203 11.0234 14.1927 11.2109 14.0156L17.375 8.19531C17.526 8.05469 17.6302 7.91146 17.6875 7.76562C17.7448 7.61979 17.7734 7.48438 17.7734 7.35938Z" fill="white"/>
</svg>
