<svg width="116" height="116" viewBox="0 0 116 116" fill="none" xmlns="http://www.w3.org/2000/svg">
<path d="M20.5625 115.5H96.375C102.917 115.5 107.812 113.875 111.062 110.625C114.354 107.417 116 102.583 116 96.125V19.8125C116 13.3542 114.354 8.52083 111.062 5.3125C107.812 2.0625 102.917 0.4375 96.375 0.4375H20.5625C14.0208 0.4375 9.10417 2.0625 5.8125 5.3125C2.5625 8.52083 0.9375 13.3542 0.9375 19.8125V96.125C0.9375 102.583 2.5625 107.417 5.8125 110.625C9.10417 113.875 14.0208 115.5 20.5625 115.5ZM20.6875 105.438C17.5625 105.438 15.1667 104.625 13.5 103C11.8333 101.333 11 98.875 11 95.625V20.3125C11 17.0625 11.8333 14.625 13.5 13C15.1667 11.3333 17.5625 10.5 20.6875 10.5H96.25C99.3333 10.5 101.708 11.3333 103.375 13C105.083 14.625 105.938 17.0625 105.938 20.3125V95.625C105.938 98.875 105.083 101.333 103.375 103C101.708 104.625 99.3333 105.438 96.25 105.438H20.6875ZM55.1875 81.4375C55.9792 82.7292 57.1042 83.3958 58.5625 83.4375C60.0208 83.4375 61.1458 82.7708 61.9375 81.4375L82.9375 45.875C83.8125 44.375 83.9583 42.9583 83.375 41.625C82.8333 40.25 81.8125 39.5625 80.3125 39.5625H36.8125C35.2708 39.5625 34.2292 40.2708 33.6875 41.6875C33.1875 43.1042 33.3333 44.5 34.125 45.875L55.1875 81.4375Z" fill="white"/>
</svg>
