<svg xmlns="http://www.w3.org/2000/svg" width="24" height="24"><path style="stroke:none;fill-rule:nonzero;fill:#fff;fill-opacity:1" d="M2.145 22.398a.81.81 0 0 0 .68-.347 1.42 1.42 0 0 0 .257-.89V1.815a1.568 1.568 0 0 0-.258-.921c-.183-.243-.43-.372-.68-.36-.246-.012-.488.117-.664.36-.175.242-.27.578-.261.921V21.16c0 .367.086.664.261.89a.788.788 0 0 0 .665.348Zm8.843 0c.242.008.477-.117.649-.347.18-.227.281-.555.27-.89 0-.173-.028-.337-.075-.493a1.296 1.296 0 0 0-.176-.418l-2.332-3.29-4.094-5.148-.21.793 3.105.16h13.73c.247.008.485-.12.657-.363.172-.254.265-.59.258-.937a1.568 1.568 0 0 0-.258-.922c-.176-.238-.41-.367-.657-.36H8.125l-3.105.16.21.805 4.094-5.175 2.332-3.274c.078-.12.14-.265.176-.422.05-.156.074-.328.074-.504a1.401 1.401 0 0 0-.27-.878c-.171-.235-.406-.368-.648-.356-.242 0-.465.133-.664.398L3.394 10.5c-.097.133-.18.293-.238.465-.11.324-.11.7 0 1.023.055.16.137.313.239.446l6.93 9.578c.175.242.413.383.663.386Zm0 0"/></svg>