<svg width="16" height="17" viewBox="0 0 16 17" fill="none" xmlns="http://www.w3.org/2000/svg">
<path d="M8 16.3359C9.08854 16.3359 10.112 16.1276 11.0703 15.7109C12.0339 15.2943 12.8828 14.7188 13.6172 13.9844C14.3516 13.25 14.9271 12.4036 15.3438 11.4453C15.7604 10.4818 15.9688 9.45573 15.9688 8.36719C15.9688 7.27865 15.7604 6.25521 15.3438 5.29688C14.9271 4.33333 14.3516 3.48438 13.6172 2.75C12.8828 2.01562 12.0339 1.4401 11.0703 1.02344C10.1068 0.606771 9.08073 0.398438 7.99219 0.398438C6.90365 0.398438 5.8776 0.606771 4.91406 1.02344C3.95573 1.4401 3.10938 2.01562 2.375 2.75C1.64583 3.48438 1.07292 4.33333 0.65625 5.29688C0.239583 6.25521 0.03125 7.27865 0.03125 8.36719C0.03125 9.45573 0.239583 10.4818 0.65625 11.4453C1.07292 12.4036 1.64844 13.25 2.38281 13.9844C3.11719 14.7188 3.96354 15.2943 4.92188 15.7109C5.88542 16.1276 6.91146 16.3359 8 16.3359ZM7.25781 11.8438C7.15365 11.8438 7.05469 11.8203 6.96094 11.7734C6.8724 11.7266 6.77865 11.6562 6.67969 11.5625L3.25 8.34375C3.16667 8.26562 3.10938 8.1875 3.07812 8.10938C3.04688 8.03125 3.03125 7.95573 3.03125 7.88281C3.03125 7.80469 3.04688 7.72656 3.07812 7.64844C3.10938 7.57031 3.16667 7.49219 3.25 7.41406L6.67969 4.21875C6.78906 4.11458 6.88542 4.03906 6.96875 3.99219C7.05208 3.9401 7.14583 3.91406 7.25 3.91406C7.40625 3.91406 7.53125 3.96615 7.625 4.07031C7.72396 4.17448 7.77344 4.29688 7.77344 4.4375V6.08594H7.89844C8.92969 6.08594 9.77344 6.29688 10.4297 6.71875C11.0911 7.13542 11.5781 7.73177 11.8906 8.50781C12.2083 9.28385 12.3672 10.2057 12.3672 11.2734C12.3672 11.4609 12.3203 11.6042 12.2266 11.7031C12.1328 11.7969 12.0286 11.8438 11.9141 11.8438C11.8203 11.8438 11.7266 11.8255 11.6328 11.7891C11.5391 11.7526 11.4557 11.6641 11.3828 11.5234C11.0078 10.8203 10.5417 10.3385 9.98438 10.0781C9.43229 9.81771 8.73698 9.6875 7.89844 9.6875H7.77344V11.3438C7.77344 11.4844 7.72396 11.6042 7.625 11.7031C7.53125 11.7969 7.40885 11.8438 7.25781 11.8438Z" fill="white"/>
</svg>
