<svg width="128" height="128" viewBox="0 0 128 128" fill="none" xmlns="http://www.w3.org/2000/svg">
<path d="M63.9375 127.625C72.6458 127.625 80.8333 125.958 88.5 122.625C96.2083 119.292 103 114.688 108.875 108.812C114.75 102.938 119.354 96.1667 122.688 88.5C126.021 80.7917 127.688 72.5833 127.688 63.875C127.688 55.1667 126.021 46.9792 122.688 39.3125C119.354 31.6042 114.75 24.8125 108.875 18.9375C103 13.0625 96.2083 8.45833 88.5 5.125C80.7917 1.79167 72.5833 0.125 63.875 0.125C55.1667 0.125 46.9583 1.79167 39.25 5.125C31.5833 8.45833 24.8125 13.0625 18.9375 18.9375C13.1042 24.8125 8.52083 31.6042 5.1875 39.3125C1.85417 46.9792 0.1875 55.1667 0.1875 63.875C0.1875 72.5833 1.85417 80.7917 5.1875 88.5C8.52083 96.1667 13.125 102.938 19 108.812C24.875 114.688 31.6458 119.292 39.3125 122.625C47.0208 125.958 55.2292 127.625 63.9375 127.625ZM97.0625 63.75C97.0625 65.0417 96.4375 66.3125 95.1875 67.5625L73.5 89.375C72.5833 90.2917 71.4375 90.75 70.0625 90.75C68.7292 90.75 67.6042 90.2917 66.6875 89.375C65.8125 88.4583 65.375 87.3333 65.375 86C65.375 84.625 65.875 83.4583 66.875 82.5L74.875 74.625L82.6875 68.0625L69 68.625H35.5625C34.1458 68.625 32.9792 68.1667 32.0625 67.25C31.1458 66.3333 30.6875 65.1667 30.6875 63.75C30.6875 62.3333 31.1458 61.1667 32.0625 60.25C32.9792 59.3333 34.1458 58.875 35.5625 58.875H69L82.625 59.4375L74.875 52.9375L66.875 45C65.875 43.9583 65.375 42.8125 65.375 41.5625C65.375 40.2292 65.8125 39.125 66.6875 38.25C67.6042 37.3333 68.7292 36.875 70.0625 36.875C71.4792 36.875 72.625 37.3125 73.5 38.1875L95.1875 60C96.4375 61.25 97.0625 62.5 97.0625 63.75Z" fill="white"/>
</svg>
