<svg xmlns="http://www.w3.org/2000/svg" width="24" height="24"><path style="stroke:none;fill-rule:nonzero;fill:#fff;fill-opacity:1" d="M12 23.05c1.633 0 3.168-.292 4.605-.882a12.22 12.22 0 0 0 3.82-2.438 11.467 11.467 0 0 0 2.59-3.582c.626-1.363.938-2.808.938-4.347a10.2 10.2 0 0 0-.937-4.332 11.53 11.53 0 0 0-2.59-3.598 12.361 12.361 0 0 0-3.82-2.437A12.166 12.166 0 0 0 11.987.55c-1.633 0-3.172.293-4.617.883A12.307 12.307 0 0 0 3.562 3.87 11.523 11.523 0 0 0 .985 7.465 10.2 10.2 0 0 0 .047 11.8c0 1.539.312 2.984.937 4.347a11.467 11.467 0 0 0 2.59 3.582 12.236 12.236 0 0 0 3.809 2.438c1.445.59 2.984.883 4.617.883ZM7.676 6.497a.789.789 0 0 1 .586-.23.83.83 0 0 1 .562.23l2.965 2.856a.68.68 0 0 1 .246.53.717.717 0 0 1-.223.54.758.758 0 0 1-.539.2.778.778 0 0 1-.562-.212L9.469 9.187l-.457-.46.035.539v7.367a.67.67 0 0 1-.223.515.848.848 0 0 1-.574.204.834.834 0 0 1-.563-.2.683.683 0 0 1-.222-.52V9.274l.023-.546-.457.46-1.242 1.204a.77.77 0 0 1-.55.23.778.778 0 0 1-.563-.21.68.68 0 0 1-.223-.528c0-.082.024-.168.07-.266.047-.094.106-.183.176-.265Zm8.66 10.633a.873.873 0 0 1-.598.223.837.837 0 0 1-.586-.223l-2.964-2.844a.801.801 0 0 1-.235-.543c0-.21.07-.387.211-.52a.759.759 0 0 1 .563-.206c.226 0 .41.074.55.218l1.243 1.192.457.476-.036-.53v-7.38c0-.207.075-.379.223-.52a.83.83 0 0 1 .586-.206c.219 0 .402.07.55.207a.698.698 0 0 1 .223.52v7.366l-.011.532.457-.465 1.242-1.192a.762.762 0 0 1 .539-.218c.234 0 .426.07.574.207a.668.668 0 0 1 .223.52c0 .183-.086.362-.258.542Zm0 0"/></svg>