<svg xmlns="http://www.w3.org/2000/svg" width="24" height="24"><path style="stroke:none;fill-rule:nonzero;fill:#fff;fill-opacity:1" d="M22.648 3.32c0-.488-.175-.879-.523-1.164-.348-.293-.816-.441-1.406-.441L3.254 1.699c-.578 0-1.043.149-1.39.446-.352.285-.524.671-.524 1.164 0 .265.047.523.148.761.106.235.227.492.36.778l8.359 17.21c.273.57.55.965.828 1.18.285.211.602.32.953.32.356 0 .672-.109.95-.32.277-.215.558-.61.843-1.18l8.344-17.21c.145-.278.262-.532.363-.762.106-.242.16-.496.16-.766Zm0 0"/></svg>