<svg width="16" height="17" viewBox="0 0 16 17" fill="none" xmlns="http://www.w3.org/2000/svg">
<path d="M8 16.3281C9.08854 16.3281 10.112 16.1198 11.0703 15.7031C12.0339 15.2865 12.8828 14.7109 13.6172 13.9766C14.3516 13.2422 14.9271 12.3958 15.3438 11.4375C15.7604 10.474 15.9688 9.44792 15.9688 8.35938C15.9688 7.27083 15.7604 6.2474 15.3438 5.28906C14.9271 4.32552 14.3516 3.47656 13.6172 2.74219C12.8828 2.00781 12.0339 1.43229 11.0703 1.01562C10.1068 0.598958 9.08073 0.390625 7.99219 0.390625C6.90365 0.390625 5.8776 0.598958 4.91406 1.01562C3.95573 1.43229 3.10938 2.00781 2.375 2.74219C1.64583 3.47656 1.07292 4.32552 0.65625 5.28906C0.239583 6.2474 0.03125 7.27083 0.03125 8.35938C0.03125 9.44792 0.239583 10.474 0.65625 11.4375C1.07292 12.3958 1.64844 13.2422 2.38281 13.9766C3.11719 14.7109 3.96354 15.2865 4.92188 15.7031C5.88542 16.1198 6.91146 16.3281 8 16.3281ZM8.01562 12.3828C7.83854 12.3828 7.69271 12.3281 7.57812 12.2188C7.46354 12.1042 7.40625 11.9557 7.40625 11.7734V7.76562L7.46875 6.05469L6.66406 7.02344L5.71094 7.98438C5.59115 8.10417 5.44792 8.16406 5.28125 8.16406C5.11458 8.16406 4.97396 8.10938 4.85938 8C4.75 7.88542 4.69531 7.74479 4.69531 7.57812C4.69531 7.40625 4.75 7.26562 4.85938 7.15625L7.54688 4.48438C7.69792 4.32812 7.85417 4.25 8.01562 4.25C8.17708 4.25 8.33333 4.32812 8.48438 4.48438L11.1719 7.15625C11.2812 7.27083 11.3359 7.41146 11.3359 7.57812C11.3359 7.74479 11.2786 7.88542 11.1641 8C11.0495 8.10938 10.9089 8.16406 10.7422 8.16406C10.5651 8.16406 10.4219 8.10417 10.3125 7.98438L9.36719 7.02344L8.55469 6.04688L8.61719 7.76562V11.7734C8.61719 11.9557 8.5599 12.1042 8.44531 12.2188C8.33594 12.3281 8.19271 12.3828 8.01562 12.3828Z" fill="white"/>
</svg>
