<svg width="128" height="128" viewBox="0 0 128 128" fill="none" xmlns="http://www.w3.org/2000/svg">
<path d="M63.9375 127.625C72.6458 127.625 80.8333 125.958 88.5 122.625C96.2083 119.292 103 114.688 108.875 108.812C114.75 102.938 119.354 96.1667 122.688 88.5C126.021 80.7917 127.688 72.5833 127.688 63.875C127.688 55.1667 126.021 46.9792 122.688 39.3125C119.354 31.6042 114.75 24.8125 108.875 18.9375C103 13.0625 96.2083 8.45833 88.5 5.125C80.7917 1.79167 72.5833 0.125 63.875 0.125C55.1667 0.125 46.9583 1.79167 39.25 5.125C31.5833 8.45833 24.8125 13.0625 18.9375 18.9375C13.1042 24.8125 8.52083 31.6042 5.1875 39.3125C1.85417 46.9792 0.1875 55.1667 0.1875 63.875C0.1875 72.5833 1.85417 80.7917 5.1875 88.5C8.52083 96.1667 13.125 102.938 19 108.812C24.875 114.688 31.6458 119.292 39.3125 122.625C47.0208 125.958 55.2292 127.625 63.9375 127.625ZM63.9375 117C56.5625 117 49.6667 115.625 43.25 112.875C36.8333 110.125 31.1875 106.333 26.3125 101.5C21.4792 96.625 17.6875 90.9792 14.9375 84.5625C12.2292 78.1458 10.875 71.25 10.875 63.875C10.875 56.5 12.2292 49.6042 14.9375 43.1875C17.6875 36.7708 21.4792 31.125 26.3125 26.25C31.1458 21.375 36.7708 17.5833 43.1875 14.875C49.6042 12.125 56.5 10.75 63.875 10.75C71.25 10.75 78.1458 12.125 84.5625 14.875C91.0208 17.5833 96.6667 21.375 101.5 26.25C106.375 31.125 110.188 36.7708 112.938 43.1875C115.688 49.6042 117.062 56.5 117.062 63.875C117.062 71.25 115.688 78.1458 112.938 84.5625C110.229 90.9792 106.438 96.625 101.562 101.5C96.6875 106.333 91.0417 110.125 84.625 112.875C78.2083 115.625 71.3125 117 63.9375 117ZM31.5 71.5C31.5 76.5 32.6042 80.8333 34.8125 84.5C37.0625 88.125 40.1042 90.9375 43.9375 92.9375C47.7708 94.8958 52.125 95.875 57 95.875C57.25 95.875 58.0417 95.875 59.375 95.875C60.75 95.875 62.0833 95.875 63.375 95.875C64.7083 95.875 65.4375 95.875 65.5625 95.875C66.9375 95.875 68.0833 95.5 69 94.75C69.9167 93.9583 70.375 92.8333 70.375 91.375C70.375 89.9167 69.9167 88.8125 69 88.0625C68.125 87.3125 67.0208 86.9375 65.6875 86.9375C65.6042 86.9375 64.8958 86.9375 63.5625 86.9375C62.2292 86.9375 60.8542 86.9375 59.4375 86.9375C58.0625 86.9375 57.25 86.9375 57 86.9375C52.2917 86.9375 48.3958 85.5208 45.3125 82.6875C42.2292 79.8125 40.6875 75.9167 40.6875 71C40.6875 66.1667 42.25 62.4792 45.375 59.9375C48.5 57.3542 52.3542 56.0625 56.9375 56.0625H75.5625L83 55.8125L79.375 58.5L71.5 66C70.625 66.8333 70.1875 67.9167 70.1875 69.25C70.1875 70.5417 70.6042 71.625 71.4375 72.5C72.3125 73.375 73.3542 73.8125 74.5625 73.8125C75.8542 73.8125 76.9375 73.375 77.8125 72.5L94.4375 55.4375C95.5625 54.3542 96.125 53.1042 96.125 51.6875C96.125 50.2292 95.5625 48.9583 94.4375 47.875L77.875 31C77 30.0833 75.9167 29.625 74.625 29.625C73.375 29.625 72.3125 30.0625 71.4375 30.9375C70.6042 31.8125 70.1875 32.8958 70.1875 34.1875C70.1875 35.4792 70.6458 36.5625 71.5625 37.4375L78.0625 43.6875L83 47.5625L75.5625 47.3125H56.9375C52.0625 47.3125 47.7083 48.2917 43.875 50.25C40.0417 52.1667 37.0208 54.9375 34.8125 58.5625C32.6042 62.1458 31.5 66.4583 31.5 71.5Z" fill="white"/>
</svg>
