<svg width="18" height="15" viewBox="0 0 18 15" fill="none" xmlns="http://www.w3.org/2000/svg">
<path d="M10.1406 14.5234C10.3281 14.5234 10.5052 14.4818 10.6719 14.3984C10.8438 14.3203 11.0234 14.1927 11.2109 14.0156L17.375 8.19531C17.526 8.05469 17.6302 7.91146 17.6875 7.76562C17.7448 7.61979 17.7734 7.48438 17.7734 7.35938C17.7734 7.22917 17.7448 7.09115 17.6875 6.94531C17.6302 6.79948 17.526 6.65625 17.375 6.51562L11.2109 0.75C11.0026 0.552083 10.8203 0.411458 10.6641 0.328125C10.513 0.239583 10.3438 0.195312 10.1562 0.195312C9.88021 0.195312 9.65365 0.289062 9.47656 0.476562C9.30469 0.664062 9.21875 0.888021 9.21875 1.14844V4.10156H8.99219C7.59115 4.10156 6.38021 4.31771 5.35938 4.75C4.34375 5.18229 3.50781 5.80729 2.85156 6.625C2.20052 7.44271 1.71615 8.42969 1.39844 9.58594C1.08594 10.737 0.929688 12.0339 0.929688 13.4766C0.929688 13.8151 1.01042 14.0729 1.17188 14.25C1.33854 14.4323 1.52604 14.5234 1.73438 14.5234C1.90104 14.5234 2.06771 14.4896 2.23438 14.4219C2.40625 14.3542 2.5599 14.1953 2.69531 13.9453C3.14844 13.0911 3.67188 12.4245 4.26562 11.9453C4.85938 11.4609 5.54427 11.1198 6.32031 10.9219C7.09635 10.724 7.98698 10.625 8.99219 10.625H9.21875V13.6094C9.21875 13.875 9.30469 14.0938 9.47656 14.2656C9.65365 14.4375 9.875 14.5234 10.1406 14.5234Z" fill="white"/>
</svg>
