<?xml version="1.0" encoding="UTF-8"?>
<svg xmlns="http://www.w3.org/2000/svg" xmlns:xlink="http://www.w3.org/1999/xlink" width="24" height="22.5" viewBox="0 0 24 22.5" version="1.1">
<g id="surface1">
<path style=" stroke:none;fill-rule:nonzero;fill:rgb(100%,100%,100%);fill-opacity:1;" d="M 4.886719 21.84375 L 19.101562 21.84375 C 20.328125 21.84375 21.246094 21.539062 21.855469 20.929688 C 22.472656 20.328125 22.78125 19.421875 22.78125 18.210938 L 22.78125 3.902344 C 22.78125 2.691406 22.472656 1.785156 21.855469 1.183594 C 21.246094 0.574219 20.328125 0.269531 19.101562 0.269531 L 4.886719 0.269531 C 3.660156 0.269531 2.738281 0.574219 2.121094 1.183594 C 1.511719 1.785156 1.207031 2.691406 1.207031 3.902344 L 1.207031 18.210938 C 1.207031 19.421875 1.511719 20.328125 2.121094 20.929688 C 2.738281 21.539062 3.660156 21.84375 4.886719 21.84375 Z M 4.910156 19.957031 C 4.324219 19.957031 3.875 19.804688 3.5625 19.5 C 3.25 19.1875 3.09375 18.726562 3.09375 18.117188 L 3.09375 3.996094 C 3.09375 3.386719 3.25 2.929688 3.5625 2.625 C 3.875 2.3125 4.324219 2.15625 4.910156 2.15625 L 19.078125 2.15625 C 19.65625 2.15625 20.101562 2.3125 20.414062 2.625 C 20.734375 2.929688 20.894531 3.386719 20.894531 3.996094 L 20.894531 18.117188 C 20.894531 18.726562 20.734375 19.1875 20.414062 19.5 C 20.101562 19.804688 19.65625 19.957031 19.078125 19.957031 Z M 12.023438 3.75 C 11.789062 3.75 11.558594 3.859375 11.332031 4.078125 L 7.945312 7.464844 C 7.867188 7.542969 7.804688 7.632812 7.757812 7.734375 C 7.71875 7.835938 7.699219 7.949219 7.699219 8.074219 C 7.699219 8.316406 7.78125 8.519531 7.945312 8.683594 C 8.109375 8.839844 8.3125 8.917969 8.554688 8.917969 C 8.679688 8.917969 8.792969 8.894531 8.894531 8.847656 C 9.003906 8.800781 9.097656 8.738281 9.175781 8.660156 L 10.042969 7.769531 L 11.238281 6.339844 L 11.144531 8.824219 L 11.144531 13.242188 L 11.238281 15.726562 L 10.042969 14.296875 L 9.175781 13.40625 C 9.097656 13.328125 9.003906 13.265625 8.894531 13.21875 C 8.792969 13.171875 8.679688 13.148438 8.554688 13.148438 C 8.3125 13.148438 8.109375 13.230469 7.945312 13.394531 C 7.78125 13.550781 7.699219 13.75 7.699219 13.992188 C 7.699219 14.117188 7.71875 14.230469 7.757812 14.332031 C 7.804688 14.433594 7.867188 14.523438 7.945312 14.601562 L 11.332031 17.988281 C 11.558594 18.207031 11.789062 18.316406 12.023438 18.316406 C 12.242188 18.316406 12.46875 18.207031 12.703125 17.988281 L 16.101562 14.601562 C 16.179688 14.523438 16.238281 14.433594 16.277344 14.332031 C 16.316406 14.230469 16.335938 14.117188 16.335938 13.992188 C 16.335938 13.75 16.253906 13.550781 16.089844 13.394531 C 15.933594 13.230469 15.734375 13.148438 15.492188 13.148438 C 15.367188 13.148438 15.25 13.171875 15.140625 13.21875 C 15.039062 13.265625 14.949219 13.328125 14.871094 13.40625 L 13.992188 14.296875 L 12.808594 15.714844 L 12.902344 13.242188 L 12.902344 8.824219 L 12.808594 6.351562 L 13.992188 7.769531 L 14.871094 8.660156 C 14.949219 8.738281 15.039062 8.800781 15.140625 8.847656 C 15.25 8.894531 15.367188 8.917969 15.492188 8.917969 C 15.734375 8.917969 15.933594 8.839844 16.089844 8.683594 C 16.253906 8.519531 16.335938 8.316406 16.335938 8.074219 C 16.335938 7.949219 16.316406 7.835938 16.277344 7.734375 C 16.238281 7.632812 16.179688 7.542969 16.101562 7.464844 L 12.703125 4.078125 C 12.46875 3.859375 12.242188 3.75 12.023438 3.75 Z M 12.023438 3.75 "/>
</g>
</svg>
