<svg width="117" height="96" viewBox="0 0 117 96" fill="none" xmlns="http://www.w3.org/2000/svg">
<path d="M0.9375 47.875C0.9375 49.4583 1.58333 50.8542 2.875 52.0625L44.375 93.5C45.5833 94.6667 46.9375 95.25 48.4375 95.25C49.9792 95.25 51.2708 94.7292 52.3125 93.6875C53.3958 92.6875 53.9375 91.4167 53.9375 89.875C53.9375 89.125 53.7917 88.4167 53.5 87.75C53.25 87.0417 52.875 86.4375 52.375 85.9375L38.375 71.6875L13.625 49.125L12.3125 52.1875L32.4375 53.4375H111.5C113.125 53.4375 114.438 52.9167 115.438 51.875C116.479 50.8333 117 49.5 117 47.875C117 46.25 116.479 44.9167 115.438 43.875C114.438 42.8333 113.125 42.3125 111.5 42.3125H32.4375L12.3125 43.5625L13.625 46.6875L38.375 24.0625L52.375 9.8125C52.875 9.3125 53.25 8.72917 53.5 8.0625C53.7917 7.35417 53.9375 6.625 53.9375 5.875C53.9375 4.33333 53.3958 3.0625 52.3125 2.0625C51.2708 1.02083 49.9792 0.5 48.4375 0.5C47.6875 0.5 46.9583 0.645833 46.25 0.9375C45.5833 1.22917 44.9167 1.70833 44.25 2.375L2.875 43.6875C1.58333 44.8958 0.9375 46.2917 0.9375 47.875Z" fill="white"/>
</svg>
