<svg width="192" height="120" viewBox="0 0 192 120" fill="none" xmlns="http://www.w3.org/2000/svg">
<path d="M0.9375 58.75C0.9375 60.375 1.4375 61.7083 2.4375 62.75C3.47917 63.7917 4.8125 64.3125 6.4375 64.3125H49.0625L61.5 63.9375L40.875 83.8125C40.3333 84.3125 39.9375 84.9167 39.6875 85.625C39.4375 86.3333 39.3125 87.0625 39.3125 87.8125C39.3125 89.3958 39.8333 90.7083 40.875 91.75C41.9583 92.75 43.2708 93.25 44.8125 93.25C45.5625 93.25 46.2917 93.1042 47 92.8125C47.7083 92.5208 48.375 92.0625 49 91.4375L77.5625 62.9375C78.1458 62.3125 78.6042 61.6458 78.9375 60.9375C79.3125 60.2292 79.5 59.5 79.5 58.75C79.5 57.9583 79.3125 57.2083 78.9375 56.5C78.6042 55.7917 78.1458 55.125 77.5625 54.5L49 26C48.375 25.375 47.7083 24.9167 47 24.625C46.2917 24.3333 45.5625 24.1875 44.8125 24.1875C43.2708 24.1875 41.9583 24.7083 40.875 25.75C39.8333 26.75 39.3125 28.0417 39.3125 29.625C39.3125 30.3333 39.4375 31.0417 39.6875 31.75C39.9375 32.4583 40.3333 33.0833 40.875 33.625L61.5 53.5625L49.0625 53.125H6.4375C4.8125 53.125 3.47917 53.6458 2.4375 54.6875C1.4375 55.7292 0.9375 57.0833 0.9375 58.75ZM96.0625 119.312C97.6875 119.312 99.0208 118.792 100.062 117.75C101.104 116.708 101.625 115.375 101.625 113.75V5.9375C101.625 4.35417 101.104 3.0625 100.062 2.0625C99.0208 1.02083 97.6875 0.5 96.0625 0.5C94.4375 0.5 93.0833 1.02083 92 2.0625C90.9583 3.0625 90.4375 4.35417 90.4375 5.9375V113.75C90.4375 115.375 90.9583 116.708 92 117.75C93.0833 118.792 94.4375 119.312 96.0625 119.312ZM191.188 58.75C191.188 57.0833 190.667 55.7292 189.625 54.6875C188.583 53.6458 187.25 53.125 185.625 53.125H143.062L130.562 53.5625L151.188 33.625C151.729 33.0833 152.125 32.4583 152.375 31.75C152.625 31.0417 152.75 30.3333 152.75 29.625C152.75 28.0417 152.229 26.75 151.188 25.75C150.146 24.7083 148.854 24.1875 147.312 24.1875C146.521 24.1875 145.771 24.3333 145.062 24.625C144.354 24.9167 143.688 25.375 143.062 26L114.5 54.5C113.917 55.125 113.458 55.7917 113.125 56.5C112.792 57.2083 112.625 57.9583 112.625 58.75C112.625 59.5 112.792 60.2292 113.125 60.9375C113.458 61.6458 113.917 62.3125 114.5 62.9375L143.062 91.4375C143.688 92.0625 144.354 92.5208 145.062 92.8125C145.771 93.1042 146.521 93.25 147.312 93.25C148.854 93.25 150.146 92.75 151.188 91.75C152.229 90.7083 152.75 89.3958 152.75 87.8125C152.75 87.0625 152.625 86.3333 152.375 85.625C152.125 84.9167 151.729 84.3125 151.188 83.8125L130.562 63.9375L143.062 64.3125H185.625C187.25 64.3125 188.583 63.7917 189.625 62.75C190.667 61.7083 191.188 60.375 191.188 58.75Z" fill="white"/>
</svg>
