<svg width="18" height="15" viewBox="0 0 18 15" fill="none" xmlns="http://www.w3.org/2000/svg">
<path d="M17.7734 7.35938C17.7734 7.22917 17.7448 7.09115 17.6875 6.94531C17.6302 6.79948 17.526 6.65625 17.375 6.51562L11.2109 0.75C11.0026 0.552083 10.8203 0.411458 10.6641 0.328125C10.513 0.239583 10.3438 0.195312 10.1562 0.195312C9.88021 0.195312 9.65365 0.289062 9.47656 0.476562C9.30469 0.664062 9.21875 0.888021 9.21875 1.14844V4.10156H2.88281C2.26302 4.10156 1.78125 4.27083 1.4375 4.60938C1.09896 4.94271 0.929688 5.41146 0.929688 6.01562V8.71094C0.929688 9.3151 1.09896 9.78646 1.4375 10.125C1.78125 10.4583 2.26302 10.625 2.88281 10.625H9.21875V13.6094C9.21875 13.875 9.30469 14.0938 9.47656 14.2656C9.65365 14.4375 9.875 14.5234 10.1406 14.5234C10.3281 14.5234 10.5052 14.4818 10.6719 14.3984C10.8438 14.3203 11.0234 14.1927 11.2109 14.0156L17.375 8.19531C17.526 8.05469 17.6302 7.91146 17.6875 7.76562C17.7448 7.61979 17.7734 7.48438 17.7734 7.35938ZM16.3672 7.35938C16.3672 7.38021 16.362 7.40365 16.3516 7.42969C16.3411 7.45052 16.3203 7.47656 16.2891 7.50781L10.7188 12.7734C10.6771 12.8203 10.6328 12.8438 10.5859 12.8438C10.513 12.8438 10.4766 12.8047 10.4766 12.7266V9.70312C10.4766 9.53125 10.3906 9.44531 10.2188 9.44531H2.89844C2.3724 9.44531 2.10938 9.17969 2.10938 8.64844V6.07812C2.10938 5.82292 2.17708 5.6276 2.3125 5.49219C2.45312 5.35156 2.64844 5.28125 2.89844 5.28125H10.2188C10.3906 5.28125 10.4766 5.19531 10.4766 5.02344V1.92188C10.4766 1.84896 10.5156 1.8125 10.5938 1.8125C10.6146 1.8125 10.6354 1.82031 10.6562 1.83594C10.6823 1.84635 10.7057 1.85938 10.7266 1.875L16.2891 7.21094C16.3411 7.26302 16.3672 7.3125 16.3672 7.35938Z" fill="white"/>
</svg>
