<?xml version="1.0" encoding="UTF-8"?>
<svg xmlns="http://www.w3.org/2000/svg" xmlns:xlink="http://www.w3.org/1999/xlink" width="24" height="20" viewBox="0 0 24 20" version="1.1">
<g id="surface1">
<path style=" stroke:none;fill-rule:nonzero;fill:rgb(100%,100%,100%);fill-opacity:1;" d="M 10.46875 19.363281 C 10.824219 19.363281 11.113281 19.25 11.34375 19.019531 C 11.574219 18.792969 11.6875 18.5 11.6875 18.144531 L 11.6875 14.167969 L 11.988281 14.167969 C 13.335938 14.167969 14.527344 14.296875 15.5625 14.5625 C 16.597656 14.828125 17.511719 15.28125 18.300781 15.925781 C 19.09375 16.566406 19.792969 17.453125 20.394531 18.59375 C 20.578125 18.925781 20.777344 19.140625 21 19.230469 C 21.230469 19.320312 21.453125 19.363281 21.675781 19.363281 C 21.953125 19.363281 22.203125 19.242188 22.417969 19 C 22.640625 18.765625 22.75 18.421875 22.75 17.96875 C 22.75 16.046875 22.539062 14.316406 22.113281 12.78125 C 21.699219 11.238281 21.050781 9.921875 20.175781 8.832031 C 19.308594 7.742188 18.195312 6.910156 16.832031 6.332031 C 15.480469 5.757812 13.863281 5.46875 11.988281 5.46875 L 11.6875 5.46875 L 11.6875 1.53125 C 11.6875 1.183594 11.574219 0.886719 11.34375 0.636719 C 11.113281 0.386719 10.816406 0.261719 10.449219 0.261719 C 10.191406 0.261719 9.960938 0.320312 9.761719 0.4375 C 9.558594 0.546875 9.320312 0.734375 9.042969 1 L 0.824219 8.6875 C 0.621094 8.875 0.484375 9.066406 0.40625 9.261719 C 0.328125 9.453125 0.292969 9.640625 0.292969 9.8125 C 0.292969 9.980469 0.328125 10.160156 0.40625 10.355469 C 0.484375 10.546875 0.621094 10.738281 0.824219 10.925781 L 9.042969 18.6875 C 9.292969 18.921875 9.527344 19.09375 9.75 19.199219 C 9.972656 19.308594 10.210938 19.363281 10.46875 19.363281 Z M 10.46875 19.363281 "/>
</g>
</svg>
