<svg xmlns="http://www.w3.org/2000/svg" width="24" height="24"><path style="stroke:none;fill-rule:nonzero;fill:#fff;fill-opacity:1" d="M12 23.05c1.633 0 3.168-.292 4.605-.882a12.22 12.22 0 0 0 3.82-2.438 11.467 11.467 0 0 0 2.59-3.582c.626-1.363.938-2.808.938-4.347a10.2 10.2 0 0 0-.937-4.332 11.53 11.53 0 0 0-2.59-3.598 12.361 12.361 0 0 0-3.82-2.437A12.166 12.166 0 0 0 11.987.55c-1.633 0-3.172.293-4.617.883A12.307 12.307 0 0 0 3.562 3.87 11.523 11.523 0 0 0 .985 7.465 10.2 10.2 0 0 0 .047 11.8c0 1.539.312 2.984.937 4.347a11.467 11.467 0 0 0 2.59 3.582 12.236 12.236 0 0 0 3.809 2.438c1.445.59 2.984.883 4.617.883Zm0-1.874a10.222 10.222 0 0 1-7.055-2.734 9.548 9.548 0 0 1-2.133-2.989 8.83 8.83 0 0 1-.761-3.652c0-1.301.254-2.52.761-3.649A9.52 9.52 0 0 1 4.946 5.16 9.82 9.82 0 0 1 8.11 3.156c1.204-.488 2.496-.73 3.88-.73 1.382 0 2.675.242 3.878.73a9.701 9.701 0 0 1 3.176 2.004 9.432 9.432 0 0 1 2.145 2.992 8.685 8.685 0 0 1 .773 3.649c0 1.3-.258 2.52-.773 3.652a9.22 9.22 0 0 1-2.133 2.988A10.222 10.222 0 0 1 12 21.176Zm-1.102-4.645c.211 0 .387-.062.528-.187a.647.647 0 0 0 .21-.496v-2.27h.188c1.219 0 2.23.176 3.035.527.813.356 1.493 1.016 2.04 1.989.109.191.23.312.363.363.14.05.277.074.41.074a.624.624 0 0 0 .457-.195c.133-.133.2-.328.2-.586 0-1.465-.231-2.723-.692-3.785-.453-1.063-1.16-1.883-2.121-2.457-.961-.574-2.192-.86-3.692-.86h-.187V6.387a.67.67 0 0 0-.211-.496.722.722 0 0 0-.54-.223.79.79 0 0 0-.41.102 2.497 2.497 0 0 0-.421.32l-4.992 4.375a.838.838 0 0 0-.317.64c0 .094.024.2.07.31.047.108.13.218.247.32l4.992 4.41c.148.132.285.234.41.3.133.059.277.086.433.086Zm0 0"/></svg>