<?xml version="1.0" encoding="UTF-8"?>
<svg xmlns="http://www.w3.org/2000/svg" xmlns:xlink="http://www.w3.org/1999/xlink" width="24" height="27.428571" viewBox="0 0 24 27.428571" version="1.1">
<g id="surface1">
<path style=" stroke:none;fill-rule:nonzero;fill:rgb(100%,100%,100%);fill-opacity:1;" d="M 4.367188 26.988281 C 7.464844 26.988281 9.757812 26.316406 11.25 24.976562 C 12.742188 23.636719 13.488281 21.410156 13.488281 18.292969 L 13.488281 9.011719 L 13.378906 5.382812 L 16.042969 8.316406 L 20.4375 12.710938 C 20.542969 12.816406 20.675781 12.898438 20.824219 12.949219 C 20.976562 13.003906 21.128906 13.03125 21.28125 13.03125 C 21.621094 13.03125 21.898438 12.917969 22.113281 12.695312 C 22.335938 12.472656 22.445312 12.195312 22.445312 11.867188 C 22.445312 11.542969 22.320312 11.253906 22.070312 10.996094 L 13.179688 2.089844 C 12.917969 1.820312 12.621094 1.6875 12.28125 1.6875 C 11.949219 1.6875 11.65625 1.820312 11.398438 2.089844 L 2.503906 10.996094 C 2.253906 11.253906 2.128906 11.542969 2.128906 11.867188 C 2.128906 12.195312 2.238281 12.472656 2.449219 12.695312 C 2.675781 12.917969 2.949219 13.03125 3.28125 13.03125 C 3.441406 13.03125 3.597656 13.003906 3.75 12.949219 C 3.902344 12.898438 4.03125 12.816406 4.136719 12.710938 L 8.519531 8.316406 L 11.210938 5.371094 L 11.089844 9.011719 L 11.101562 18.175781 C 11.113281 19.789062 10.875 21.070312 10.394531 22.019531 C 9.910156 22.957031 9.160156 23.625 8.144531 24.027344 C 7.132812 24.4375 5.835938 24.644531 4.246094 24.644531 C 3.933594 24.644531 3.660156 24.636719 3.429688 24.628906 C 3.195312 24.621094 2.964844 24.617188 2.730469 24.617188 C 2.382812 24.617188 2.097656 24.71875 1.875 24.925781 C 1.652344 25.128906 1.539062 25.40625 1.539062 25.753906 C 1.539062 25.988281 1.585938 26.179688 1.675781 26.332031 C 1.773438 26.480469 1.898438 26.601562 2.050781 26.691406 C 2.199219 26.789062 2.367188 26.855469 2.542969 26.894531 C 2.75 26.9375 3.007812 26.964844 3.320312 26.972656 C 3.632812 26.980469 3.980469 26.988281 4.367188 26.988281 Z M 4.367188 26.988281 "/>
</g>
</svg>
