<svg width="149" height="132" viewBox="0 0 149 132" fill="none" xmlns="http://www.w3.org/2000/svg">
<path d="M10.375 131.438H60.0625C63.7708 131.438 66.5 130.562 68.25 128.812C70 127.104 70.875 124.396 70.875 120.688V46C70.875 44.1667 70.4583 42.625 69.625 41.375C68.8333 40.125 67.7917 39.1875 66.5 38.5625C65.2083 37.8958 63.8125 37.5625 62.3125 37.5625C60.8125 37.5625 59.375 37.9167 58 38.625C56.625 39.2917 55.4167 40.3542 54.375 41.8125L2.875 116.562C2.20833 117.562 1.70833 118.604 1.375 119.688C1.08333 120.812 0.9375 121.917 0.9375 123C0.9375 125.292 1.70833 127.271 3.25 128.938C4.79167 130.604 7.16667 131.438 10.375 131.438ZM14.3125 121.25C13.8125 121.25 13.5625 121.042 13.5625 120.625C13.5625 120.417 13.625 120.188 13.75 119.938L59.5625 51.25C59.7292 51 59.9167 50.875 60.125 50.875C60.4583 50.875 60.625 51.0833 60.625 51.5V119.438C60.625 120.146 60.4792 120.625 60.1875 120.875C59.9375 121.125 59.4583 121.25 58.75 121.25H14.3125ZM88.9375 131.438H138.562C141.812 131.438 144.208 130.604 145.75 128.938C147.292 127.271 148.062 125.292 148.062 123C148.062 121.917 147.896 120.812 147.562 119.688C147.271 118.604 146.771 117.562 146.062 116.562L94.5625 41.8125C93.5625 40.3542 92.3542 39.2917 90.9375 38.625C89.5625 37.9167 88.125 37.5625 86.625 37.5625C85.1667 37.5625 83.7917 37.8958 82.5 38.5625C81.2083 39.1875 80.1458 40.125 79.3125 41.375C78.5208 42.625 78.125 44.1667 78.125 46V120.688C78.125 124.396 78.9792 127.104 80.6875 128.812C82.4375 130.562 85.1875 131.438 88.9375 131.438ZM90.25 121.25C89.5 121.25 89 121.125 88.75 120.875C88.5 120.625 88.375 120.146 88.375 119.438V51.5625C88.375 51.1042 88.5208 50.875 88.8125 50.875C89.0625 50.875 89.2708 51.0208 89.4375 51.3125L135.188 119.938C135.354 120.188 135.438 120.417 135.438 120.625C135.438 121.042 135.167 121.25 134.625 121.25H90.25ZM10.625 21.9375L27.375 34.375C29.0833 35.6667 30.7708 36 32.4375 35.375C34.1042 34.7083 34.9375 33.2917 34.9375 31.125V22.1875H114V31.125C114 33.2917 114.833 34.7083 116.5 35.375C118.167 36 119.875 35.6667 121.625 34.375L138.375 21.9375C139.5 21.0625 140.062 19.9583 140.062 18.625C140.062 17.2917 139.5 16.1875 138.375 15.3125L121.625 2.8125C119.958 1.5625 118.271 1.25 116.562 1.875C114.854 2.45833 114 3.875 114 6.125V14.9375H34.9375V6.125C34.9375 3.95833 34.1042 2.54167 32.4375 1.875C30.7708 1.20833 29.0833 1.52083 27.375 2.8125L10.625 15.3125C9.45833 16.1875 8.875 17.3125 8.875 18.6875C8.91667 20.0208 9.5 21.1042 10.625 21.9375Z" fill="white"/>
</svg>
