<svg width="128" height="128" viewBox="0 0 128 128" fill="none" xmlns="http://www.w3.org/2000/svg">
<path d="M63.9375 127.625C72.6458 127.625 80.8333 125.958 88.5 122.625C96.2083 119.292 103 114.688 108.875 108.812C114.75 102.938 119.354 96.1667 122.688 88.5C126.021 80.7917 127.688 72.5833 127.688 63.875C127.688 55.1667 126.021 46.9792 122.688 39.3125C119.354 31.6042 114.75 24.8125 108.875 18.9375C103 13.0625 96.2083 8.45833 88.5 5.125C80.7917 1.79167 72.5833 0.125 63.875 0.125C55.1667 0.125 46.9583 1.79167 39.25 5.125C31.5833 8.45833 24.8125 13.0625 18.9375 18.9375C13.1042 24.8125 8.52083 31.6042 5.1875 39.3125C1.85417 46.9792 0.1875 55.1667 0.1875 63.875C0.1875 72.5833 1.85417 80.7917 5.1875 88.5C8.52083 96.1667 13.125 102.938 19 108.812C24.875 114.688 31.6458 119.292 39.3125 122.625C47.0208 125.958 55.2292 127.625 63.9375 127.625ZM36.875 92.3125C35.5833 92.3125 34.5208 91.9167 33.6875 91.125C32.8542 90.3333 32.4375 89.3125 32.4375 88.0625V39.625C32.4375 38.375 32.8542 37.3542 33.6875 36.5625C34.5208 35.7292 35.5833 35.3125 36.875 35.3125C38.0833 35.3125 39.0833 35.7292 39.875 36.5625C40.7083 37.3542 41.125 38.375 41.125 39.625V88.0625C41.125 89.3125 40.7083 90.3333 39.875 91.125C39.0833 91.9167 38.0833 92.3125 36.875 92.3125ZM104.438 63.875C104.438 65.2083 104.021 66.2917 103.188 67.125C102.396 67.9167 101.375 68.3125 100.125 68.3125H70.625L58.75 67.5L71.875 79.1875L75.9375 82.9375C76.3958 83.3125 76.7083 83.7708 76.875 84.3125C77.0833 84.8125 77.1875 85.3958 77.1875 86.0625C77.1875 87.2708 76.7917 88.2708 76 89.0625C75.2083 89.8542 74.1875 90.25 72.9375 90.25C72.4375 90.25 71.875 90.125 71.25 89.875C70.625 89.5833 70.1042 89.2292 69.6875 88.8125L47.5 67.125C47 66.6667 46.625 66.1667 46.375 65.625C46.125 65.0833 46 64.5 46 63.875C46 63.2917 46.1458 62.7292 46.4375 62.1875C46.7292 61.6042 47.0833 61.0833 47.5 60.625L69.75 38.75C70.5833 37.875 71.6458 37.4375 72.9375 37.4375C74.1458 37.4375 75.1458 37.8333 75.9375 38.625C76.7708 39.375 77.1875 40.3542 77.1875 41.5625C77.1875 42.1458 77.0833 42.7292 76.875 43.3125C76.7083 43.8542 76.3958 44.3333 75.9375 44.75L71.9375 48.625L58.8125 60.25L70.625 59.625H100.125C101.375 59.625 102.396 60.0417 103.188 60.875C104.021 61.6667 104.438 62.6667 104.438 63.875Z" fill="white"/>
</svg>
