<?xml version="1.0" encoding="UTF-8"?>
<svg xmlns="http://www.w3.org/2000/svg" xmlns:xlink="http://www.w3.org/1999/xlink" width="24" height="22.285714" viewBox="0 0 24 22.285714" version="1.1">
<g id="surface1">
<path style=" stroke:none;fill-rule:nonzero;fill:rgb(100%,100%,100%);fill-opacity:1;" d="M 3.027344 21.5625 C 3.292969 21.5625 3.542969 21.511719 3.777344 21.414062 C 4.019531 21.316406 4.277344 21.195312 4.554688 21.054688 L 21.761719 12.710938 C 22.335938 12.425781 22.726562 12.144531 22.941406 11.867188 C 23.15625 11.589844 23.261719 11.273438 23.261719 10.914062 C 23.261719 10.558594 23.15625 10.242188 22.941406 9.964844 C 22.726562 9.6875 22.335938 9.410156 21.761719 9.132812 L 4.554688 0.777344 C 4.269531 0.644531 4.003906 0.527344 3.761719 0.429688 C 3.53125 0.320312 3.28125 0.269531 3.011719 0.269531 C 2.523438 0.269531 2.128906 0.441406 1.835938 0.789062 C 1.550781 1.136719 1.40625 1.601562 1.40625 2.183594 L 1.417969 19.648438 C 1.417969 20.226562 1.5625 20.691406 1.847656 21.039062 C 2.144531 21.386719 2.535156 21.5625 3.027344 21.5625 Z M 3.027344 21.5625 "/>
</g>
</svg>
