<?xml version="1.0" encoding="UTF-8"?>
<svg xmlns="http://www.w3.org/2000/svg" xmlns:xlink="http://www.w3.org/1999/xlink" width="24" height="22.5" viewBox="0 0 24 22.5" version="1.1">
<g id="surface1">
<path style=" stroke:none;fill-rule:nonzero;fill:rgb(100%,100%,100%);fill-opacity:1;" d="M 4.886719 21.84375 L 19.101562 21.84375 C 20.328125 21.84375 21.246094 21.539062 21.855469 20.929688 C 22.472656 20.328125 22.78125 19.421875 22.78125 18.210938 L 22.78125 3.902344 C 22.78125 2.691406 22.472656 1.785156 21.855469 1.183594 C 21.246094 0.574219 20.328125 0.269531 19.101562 0.269531 L 4.886719 0.269531 C 3.660156 0.269531 2.738281 0.574219 2.121094 1.183594 C 1.511719 1.785156 1.207031 2.691406 1.207031 3.902344 L 1.207031 18.210938 C 1.207031 19.421875 1.511719 20.328125 2.121094 20.929688 C 2.738281 21.539062 3.660156 21.84375 4.886719 21.84375 Z M 4.910156 19.957031 C 4.324219 19.957031 3.875 19.804688 3.5625 19.5 C 3.25 19.1875 3.09375 18.726562 3.09375 18.117188 L 3.09375 3.996094 C 3.09375 3.386719 3.25 2.929688 3.5625 2.625 C 3.875 2.3125 4.324219 2.15625 4.910156 2.15625 L 19.078125 2.15625 C 19.65625 2.15625 20.101562 2.3125 20.414062 2.625 C 20.734375 2.929688 20.894531 3.386719 20.894531 3.996094 L 20.894531 18.117188 C 20.894531 18.726562 20.734375 19.1875 20.414062 19.5 C 20.101562 19.804688 19.65625 19.957031 19.078125 19.957031 Z M 6.515625 6.972656 C 6.359375 7.121094 6.28125 7.3125 6.28125 7.546875 C 6.28125 7.773438 6.359375 7.960938 6.515625 8.109375 L 9.457031 10.992188 C 9.628906 11.140625 9.8125 11.214844 10.007812 11.214844 C 10.226562 11.214844 10.40625 11.148438 10.546875 11.015625 C 10.6875 10.875 10.757812 10.695312 10.757812 10.476562 C 10.757812 10.265625 10.683594 10.085938 10.535156 9.9375 L 9.292969 8.730469 L 8.800781 8.273438 L 9.351562 8.308594 L 16.957031 8.308594 C 17.175781 8.308594 17.355469 8.234375 17.496094 8.085938 C 17.644531 7.9375 17.71875 7.753906 17.71875 7.535156 C 17.71875 7.324219 17.644531 7.148438 17.496094 7.007812 C 17.355469 6.859375 17.175781 6.785156 16.957031 6.785156 L 9.363281 6.785156 L 8.8125 6.796875 L 9.292969 6.363281 L 10.535156 5.15625 C 10.683594 5.015625 10.757812 4.835938 10.757812 4.617188 C 10.757812 4.398438 10.6875 4.21875 10.546875 4.078125 C 10.40625 3.9375 10.226562 3.867188 10.007812 3.867188 C 9.804688 3.867188 9.621094 3.949219 9.457031 4.113281 Z M 17.484375 15.117188 C 17.640625 14.960938 17.714844 14.777344 17.707031 14.566406 C 17.707031 14.347656 17.632812 14.164062 17.484375 14.015625 L 14.53125 11.132812 C 14.375 10.976562 14.191406 10.898438 13.980469 10.898438 C 13.761719 10.898438 13.582031 10.96875 13.441406 11.109375 C 13.300781 11.25 13.230469 11.425781 13.230469 11.636719 C 13.230469 11.847656 13.304688 12.027344 13.453125 12.175781 L 14.71875 13.382812 L 15.199219 13.839844 L 14.636719 13.804688 L 7.03125 13.804688 C 6.820312 13.804688 6.640625 13.878906 6.492188 14.027344 C 6.351562 14.167969 6.28125 14.347656 6.28125 14.566406 C 6.28125 14.785156 6.351562 14.96875 6.492188 15.117188 C 6.632812 15.257812 6.8125 15.328125 7.03125 15.328125 L 14.625 15.328125 L 15.199219 15.316406 L 14.71875 15.75 L 13.464844 16.957031 C 13.308594 17.121094 13.230469 17.300781 13.230469 17.496094 C 13.230469 17.714844 13.300781 17.894531 13.441406 18.035156 C 13.589844 18.175781 13.769531 18.246094 13.980469 18.246094 C 14.167969 18.246094 14.351562 18.167969 14.53125 18.011719 Z M 17.484375 15.117188 "/>
</g>
</svg>
