<?xml version="1.0" encoding="UTF-8"?>
<svg xmlns="http://www.w3.org/2000/svg" xmlns:xlink="http://www.w3.org/1999/xlink" width="24" height="22.5" viewBox="0 0 24 22.5" version="1.1">
<g id="surface1">
<path style=" stroke:none;fill-rule:nonzero;fill:rgb(100%,100%,100%);fill-opacity:1;" d="M 4.886719 21.84375 L 19.101562 21.84375 C 20.328125 21.84375 21.246094 21.539062 21.855469 20.929688 C 22.472656 20.328125 22.78125 19.421875 22.78125 18.210938 L 22.78125 3.902344 C 22.78125 2.691406 22.472656 1.785156 21.855469 1.183594 C 21.246094 0.574219 20.328125 0.269531 19.101562 0.269531 L 4.886719 0.269531 C 3.660156 0.269531 2.738281 0.574219 2.121094 1.183594 C 1.511719 1.785156 1.207031 2.691406 1.207031 3.902344 L 1.207031 18.210938 C 1.207031 19.421875 1.511719 20.328125 2.121094 20.929688 C 2.738281 21.539062 3.660156 21.84375 4.886719 21.84375 Z M 4.910156 19.957031 C 4.324219 19.957031 3.875 19.804688 3.5625 19.5 C 3.25 19.1875 3.09375 18.726562 3.09375 18.117188 L 3.09375 3.996094 C 3.09375 3.386719 3.25 2.929688 3.5625 2.625 C 3.875 2.3125 4.324219 2.15625 4.910156 2.15625 L 19.078125 2.15625 C 19.65625 2.15625 20.101562 2.3125 20.414062 2.625 C 20.734375 2.929688 20.894531 3.386719 20.894531 3.996094 L 20.894531 18.117188 C 20.894531 18.726562 20.734375 19.1875 20.414062 19.5 C 20.101562 19.804688 19.65625 19.957031 19.078125 19.957031 Z M 15.679688 8.132812 C 15.421875 8.132812 15.210938 8.214844 15.046875 8.378906 C 14.890625 8.542969 14.8125 8.765625 14.8125 9.046875 L 14.8125 11.074219 L 14.988281 12.890625 L 13.3125 11.097656 L 8.988281 6.773438 C 8.808594 6.59375 8.585938 6.503906 8.320312 6.503906 C 8.0625 6.503906 7.855469 6.585938 7.699219 6.75 C 7.542969 6.90625 7.464844 7.117188 7.464844 7.382812 C 7.464844 7.609375 7.558594 7.816406 7.746094 8.003906 L 12.070312 12.328125 L 13.886719 14.027344 L 12.152344 13.839844 L 10.019531 13.839844 C 9.738281 13.839844 9.511719 13.917969 9.339844 14.074219 C 9.175781 14.230469 9.09375 14.441406 9.09375 14.707031 C 9.09375 14.964844 9.175781 15.171875 9.339844 15.328125 C 9.503906 15.484375 9.722656 15.5625 9.996094 15.5625 L 15.5625 15.5625 C 15.859375 15.5625 16.09375 15.488281 16.265625 15.339844 C 16.445312 15.191406 16.535156 14.941406 16.535156 14.589844 L 16.535156 9.070312 C 16.535156 8.796875 16.457031 8.574219 16.300781 8.402344 C 16.144531 8.222656 15.9375 8.132812 15.679688 8.132812 Z M 15.679688 8.132812 "/>
</g>
</svg>
