<svg xmlns="http://www.w3.org/2000/svg" width="24" height="24"><path style="stroke:none;fill-rule:nonzero;fill:#fff;fill-opacity:1" d="M4.887 23.3h14.215c1.226 0 2.144-.323 2.753-.976.618-.64.926-1.605.926-2.898V4.164c0-1.293-.308-2.258-.926-2.898-.609-.653-1.527-.977-2.753-.977H4.887c-1.227 0-2.149.324-2.766.977-.61.64-.914 1.605-.914 2.898v15.262c0 1.293.305 2.258.914 2.902.617.649 1.54.973 2.766.973Zm10.91-8.34c-.274 0-.492-.085-.656-.26-.164-.184-.246-.434-.246-.75v-2.212l.175-2-1.734 1.973-4.43 4.738c-.09.094-.191.168-.304.227a.993.993 0 0 1-.399.074.838.838 0 0 1-.633-.262c-.164-.175-.246-.414-.246-.715 0-.25.098-.476.293-.683l4.442-4.727 1.875-1.875-1.793.2H9.96c-.29 0-.524-.086-.703-.262A.939.939 0 0 1 9 7.738a.939.939 0 0 1 .258-.687c.172-.176.398-.262.68-.262h5.73c.312 0 .559.082.738.25.18.164.27.441.27.824v6.063c0 .308-.082.558-.246.75a.776.776 0 0 1-.633.289Zm0 0"/></svg>