<svg xmlns="http://www.w3.org/2000/svg" width="24" height="24"><path style="stroke:none;fill-rule:nonzero;fill:#fff;fill-opacity:1" d="M12 23.031c1.633 0 3.168-.297 4.605-.883a12.361 12.361 0 0 0 3.82-2.437 11.482 11.482 0 0 0 2.59-3.586c.626-1.36.938-2.809.938-4.344 0-1.539-.312-2.984-.937-4.336a11.53 11.53 0 0 0-2.59-3.597 12.361 12.361 0 0 0-3.82-2.438 12.165 12.165 0 0 0-4.618-.883c-1.633 0-3.172.297-4.617.883a12.307 12.307 0 0 0-3.809 2.438A11.539 11.539 0 0 0 .985 7.445a10.233 10.233 0 0 0-.937 4.336c0 1.535.312 2.985.937 4.344a11.482 11.482 0 0 0 2.59 3.586 12.307 12.307 0 0 0 3.809 2.437c1.445.586 2.984.883 4.617.883Zm-1.23-5.75c-.93 0-1.743-.183-2.438-.55a4.03 4.03 0 0 1-1.617-1.567c-.383-.668-.574-1.445-.574-2.324v-1.488c0-.266.078-.48.234-.641a.853.853 0 0 1 .633-.242c.265 0 .476.078.633.242.164.152.246.36.246.617v1.512c0 .828.261 1.504.785 2.027.531.516 1.23.774 2.098.774.796 0 1.44-.254 1.933-.762.492-.516.738-1.191.738-2.031v-3.23l.047-1.126-.386.52-1.372 1.336a.884.884 0 0 1-.644.261.96.96 0 0 1-.645-.23.768.768 0 0 1-.257-.582.78.78 0 0 1 .257-.61l3.141-2.886c.211-.2.457-.301.738-.301.274 0 .524.102.75.297l3.106 2.879c.172.16.265.383.258.61 0 .234-.09.433-.27.593a.905.905 0 0 1-.633.23.804.804 0 0 1-.62-.261l-1.15-1.114-.632-.75.059 1.133v3.235c0 .882-.184 1.656-.551 2.324a3.972 3.972 0 0 1-1.547 1.554c-.664.372-1.438.555-2.32.555Zm0 0"/></svg>