<svg width="126" height="116" viewBox="0 0 126 116" fill="none" xmlns="http://www.w3.org/2000/svg">
<path d="M40.9375 62.625C40.9375 66.6667 41.8958 70.3333 43.8125 73.625C45.7708 76.9167 48.375 79.5417 51.625 81.5C54.875 83.4583 58.5 84.4375 62.5 84.4375C66.5 84.4375 70.125 83.4792 73.375 81.5625C76.625 79.6042 79.2083 76.9792 81.125 73.6875C83.0833 70.3958 84.0625 66.75 84.0625 62.75C84.0625 61.7083 83.6667 60.8125 82.875 60.0625C82.125 59.3125 81.25 58.9375 80.25 58.9375C79.2083 58.9375 78.2917 59.3125 77.5 60.0625C76.75 60.8125 76.375 61.7083 76.375 62.75C76.375 65.3333 75.75 67.6875 74.5 69.8125C73.2917 71.8958 71.625 73.5625 69.5 74.8125C67.4167 76.0625 65.0833 76.6875 62.5 76.6875C59.9167 76.6875 57.5833 76.0625 55.5 74.8125C53.4167 73.5625 51.75 71.8958 50.5 69.8125C49.25 67.6875 48.625 65.3333 48.625 62.75C48.625 59.5833 49.5625 56.7917 51.4375 54.375C53.3542 51.9583 55.75 50.3333 58.625 49.5V55.5C58.625 56.6667 59.1042 57.4375 60.0625 57.8125C61.0625 58.1458 62 57.9375 62.875 57.1875L73.0625 48.4375C73.8958 47.6875 74.3125 46.8542 74.3125 45.9375C74.3125 45.0208 73.8958 44.2083 73.0625 43.5L62.875 34.875C62 34.125 61.0625 33.9375 60.0625 34.3125C59.1042 34.6458 58.625 35.3958 58.625 36.5625V41.6875C55.3333 42.1875 52.3542 43.4375 49.6875 45.4375C47.0208 47.4375 44.8958 49.9375 43.3125 52.9375C41.7292 55.8958 40.9375 59.125 40.9375 62.625ZM0.9375 38.1875C0.9375 47.0625 3.29167 55.8542 8 64.5625C12.7083 73.2292 19.3542 81.6875 27.9375 89.9375C36.5625 98.1458 46.75 106 58.5 113.5C59.1667 113.917 59.9167 114.292 60.75 114.625C61.625 115 62.375 115.188 63 115.188C63.6667 115.188 64.4167 115 65.25 114.625C66.125 114.292 66.8958 113.917 67.5625 113.5C79.3125 106 89.4792 98.1458 98.0625 89.9375C106.688 81.6875 113.354 73.2292 118.062 64.5625C122.771 55.8542 125.125 47.0625 125.125 38.1875C125.125 32.6458 124.229 27.5833 122.438 23C120.646 18.375 118.146 14.375 114.938 11C111.771 7.625 108.021 5.02083 103.688 3.1875C99.3958 1.35417 94.7083 0.4375 89.625 0.4375C83.8333 0.4375 78.6458 1.70833 74.0625 4.25C69.5208 6.79167 65.8333 10.1667 63 14.375C60.2083 10.1667 56.5208 6.79167 51.9375 4.25C47.3542 1.70833 42.1667 0.4375 36.375 0.4375C31.3333 0.4375 26.6458 1.35417 22.3125 3.1875C18.0208 5.02083 14.2708 7.625 11.0625 11C7.85417 14.375 5.35417 18.375 3.5625 23C1.8125 27.5833 0.9375 32.6458 0.9375 38.1875ZM11 38.1875C11 32.6458 12.1042 27.8125 14.3125 23.6875C16.5208 19.5208 19.5208 16.2917 23.3125 14C27.1042 11.6667 31.4167 10.5 36.25 10.5C40.2083 10.5 43.6042 11.2083 46.4375 12.625C49.3125 14 51.75 15.7292 53.75 17.8125C55.75 19.8958 57.4375 21.9792 58.8125 24.0625C59.6458 25.3125 60.375 26.1667 61 26.625C61.625 27.0417 62.2917 27.25 63 27.25C63.75 27.25 64.4167 27.0208 65 26.5625C65.5833 26.1042 66.3333 25.2708 67.25 24.0625C68.7083 22.0208 70.4375 19.9583 72.4375 17.875C74.4375 15.75 76.8542 14 79.6875 12.625C82.5208 11.2083 85.875 10.5 89.75 10.5C94.625 10.5 98.9583 11.6667 102.75 14C106.542 16.2917 109.542 19.5208 111.75 23.6875C113.958 27.8125 115.062 32.6458 115.062 38.1875C115.062 43.9792 113.667 49.8542 110.875 55.8125C108.083 61.7292 104.292 67.5417 99.5 73.25C94.7083 78.9583 89.2708 84.4167 83.1875 89.625C77.1458 94.7917 70.8542 99.5417 64.3125 103.875C63.6042 104.375 63.1667 104.625 63 104.625C62.875 104.625 62.4583 104.375 61.75 103.875C55.2083 99.5417 48.8958 94.7917 42.8125 89.625C36.7708 84.4167 31.3542 78.9583 26.5625 73.25C21.7708 67.5417 17.9792 61.7292 15.1875 55.8125C12.3958 49.8542 11 43.9792 11 38.1875Z" fill="white"/>
</svg>
