<svg xmlns="http://www.w3.org/2000/svg" width="24" height="24"><path style="stroke:none;fill-rule:nonzero;fill:#fff;fill-opacity:1" d="M12 23.063c1.633 0 3.168-.293 4.605-.883a12.29 12.29 0 0 0 3.82-2.438 11.482 11.482 0 0 0 2.59-3.586c.626-1.36.938-2.804.938-4.343 0-1.536-.312-2.981-.937-4.336a11.514 11.514 0 0 0-2.59-3.594 12.22 12.22 0 0 0-3.82-2.438 12.166 12.166 0 0 0-4.618-.883c-1.633 0-3.172.293-4.617.883a12.307 12.307 0 0 0-3.809 2.438A11.523 11.523 0 0 0 .985 7.477a10.187 10.187 0 0 0-.937 4.335c0 1.54.312 2.985.937 4.344a11.438 11.438 0 0 0 2.59 3.586 12.307 12.307 0 0 0 3.809 2.438c1.445.59 2.984.883 4.617.883Zm5.39-10.731c0 .945-.242 1.813-.726 2.59a5.368 5.368 0 0 1-1.957 1.863c-.812.457-1.715.684-2.707.684-1 0-1.906-.227-2.719-.684a5.398 5.398 0 0 1-1.945-1.851 4.707 4.707 0 0 1-.727-2.559.69.69 0 0 1 .246-.54.824.824 0 0 1 .586-.233.83.83 0 0 1 .586.234.671.671 0 0 1 .258.539c0 .656.164 1.246.492 1.777.328.52.793.957 1.348 1.266.566.32 1.215.484 1.875.477a3.76 3.76 0 0 0 1.875-.477 3.588 3.588 0 0 0 1.336-1.266c.34-.539.512-1.152.504-1.777a3.23 3.23 0 0 0-.504-1.766 3.598 3.598 0 0 0-1.336-1.257A3.758 3.758 0 0 0 12 8.879c-.18 0-.324.008-.434.023l1.172 1.09c.157.149.235.32.235.52a.687.687 0 0 1-.227.52.771.771 0 0 1-.559.206.717.717 0 0 1-.515-.218L9.328 8.813a.67.67 0 0 1-.223-.52c0-.195.079-.383.223-.527l2.32-2.23a.77.77 0 0 1 .551-.231.754.754 0 0 1 .551.222.673.673 0 0 1 .152.805.815.815 0 0 1-.152.23l-.844.817a1 1 0 0 1 .153-.012c.062-.008.12-.012.175-.012.907 0 1.75.223 2.532.665a5.34 5.34 0 0 1 1.898 1.796c.484.75.727 1.586.727 2.516Zm0 0"/></svg>