<svg xmlns="http://www.w3.org/2000/svg" width="24" height="24"><path style="stroke:none;fill-rule:nonzero;fill:#fff;fill-opacity:1" d="M12 23.05c1.633 0 3.168-.292 4.605-.882a12.22 12.22 0 0 0 3.82-2.438 11.467 11.467 0 0 0 2.59-3.582c.626-1.363.938-2.808.938-4.347a10.2 10.2 0 0 0-.937-4.332 11.53 11.53 0 0 0-2.59-3.598 12.361 12.361 0 0 0-3.82-2.437A12.166 12.166 0 0 0 11.987.55c-1.633 0-3.172.293-4.617.883A12.307 12.307 0 0 0 3.562 3.87 11.523 11.523 0 0 0 .985 7.465 10.2 10.2 0 0 0 .047 11.8c0 1.539.312 2.984.937 4.347a11.467 11.467 0 0 0 2.59 3.582 12.236 12.236 0 0 0 3.809 2.438c1.445.59 2.984.883 4.617.883Zm.023-18.327c.227 0 .461.105.704.316l3.503 3.29c.165.14.247.335.247.593a.77.77 0 0 1-.258.586.86.86 0 0 1-.621.23.937.937 0 0 1-.645-.242l-.902-.86-1.219-1.378.105 2.406v4.266l-.105 2.402 1.219-1.375.902-.863a.92.92 0 0 1 .645-.242c.25 0 .457.082.62.242a.746.746 0 0 1 .259.574c0 .258-.082.457-.247.598l-3.503 3.285c-.243.215-.477.32-.704.32-.242 0-.48-.105-.714-.32l-3.493-3.285a.75.75 0 0 1-.257-.598c0-.227.086-.418.257-.574a.891.891 0 0 1 .633-.242c.242 0 .473.085.645.242l.89.863 1.23 1.387-.105-2.414V9.66l.106-2.414-1.23 1.39-.891.86a.92.92 0 0 1-.645.242.923.923 0 0 1-.633-.23.783.783 0 0 1-.257-.586c0-.25.086-.45.257-.594L11.31 5.04c.234-.21.472-.32.714-.32Zm0 0"/></svg>