<?xml version="1.0" encoding="UTF-8"?>
<svg xmlns="http://www.w3.org/2000/svg" xmlns:xlink="http://www.w3.org/1999/xlink" width="24" height="17" viewBox="0 0 24 17" version="1.1">
<g id="surface1">
<path style=" stroke:none;fill-rule:nonzero;fill:rgb(100%,100%,100%);fill-opacity:1;" d="M 0.945312 9.289062 L 6.859375 12.914062 C 7.125 13.074219 7.378906 13.148438 7.617188 13.132812 C 7.855469 13.113281 8.050781 13.011719 8.203125 12.835938 C 8.359375 12.660156 8.4375 12.410156 8.4375 12.09375 L 8.4375 4.640625 C 8.4375 4.332031 8.363281 4.089844 8.210938 3.914062 C 8.058594 3.730469 7.863281 3.628906 7.625 3.609375 C 7.386719 3.589844 7.128906 3.660156 6.859375 3.828125 L 0.945312 7.453125 C 0.679688 7.609375 0.503906 7.800781 0.421875 8.03125 C 0.339844 8.261719 0.339844 8.488281 0.421875 8.71875 C 0.511719 8.941406 0.683594 9.132812 0.945312 9.289062 Z M 12 16.539062 C 12.152344 16.539062 12.285156 16.488281 12.398438 16.382812 C 12.519531 16.277344 12.578125 16.148438 12.578125 15.992188 L 12.578125 0.742188 C 12.578125 0.589844 12.519531 0.464844 12.398438 0.359375 C 12.285156 0.253906 12.152344 0.203125 12 0.203125 C 11.847656 0.203125 11.714844 0.253906 11.601562 0.359375 C 11.488281 0.464844 11.429688 0.589844 11.429688 0.742188 L 11.429688 15.992188 C 11.429688 16.148438 11.488281 16.277344 11.601562 16.382812 C 11.714844 16.488281 11.847656 16.539062 12 16.539062 Z M 17.140625 12.914062 L 23.0625 9.289062 C 23.316406 9.132812 23.488281 8.941406 23.570312 8.71875 C 23.660156 8.488281 23.660156 8.261719 23.578125 8.03125 C 23.496094 7.800781 23.324219 7.609375 23.0625 7.453125 L 17.140625 3.828125 C 16.871094 3.660156 16.613281 3.589844 16.375 3.609375 C 16.136719 3.628906 15.941406 3.730469 15.789062 3.914062 C 15.636719 4.089844 15.5625 4.332031 15.5625 4.640625 L 15.5625 12.09375 C 15.5625 12.410156 15.636719 12.660156 15.789062 12.835938 C 15.945312 13.011719 16.144531 13.113281 16.382812 13.132812 C 16.621094 13.148438 16.875 13.074219 17.140625 12.914062 Z M 17.140625 12.914062 "/>
</g>
</svg>
