<svg width="16" height="17" viewBox="0 0 16 17" fill="none" xmlns="http://www.w3.org/2000/svg">
<path d="M8 16.3359C9.08854 16.3359 10.112 16.1276 11.0703 15.7109C12.0339 15.2943 12.8828 14.7188 13.6172 13.9844C14.3516 13.25 14.9271 12.4036 15.3438 11.4453C15.7604 10.4818 15.9688 9.45573 15.9688 8.36719C15.9688 7.27865 15.7604 6.25521 15.3438 5.29688C14.9271 4.33333 14.3516 3.48438 13.6172 2.75C12.8828 2.01562 12.0339 1.4401 11.0703 1.02344C10.1068 0.606771 9.08073 0.398438 7.99219 0.398438C6.90365 0.398438 5.8776 0.606771 4.91406 1.02344C3.95573 1.4401 3.10938 2.01562 2.375 2.75C1.64583 3.48438 1.07292 4.33333 0.65625 5.29688C0.239583 6.25521 0.03125 7.27865 0.03125 8.36719C0.03125 9.45573 0.239583 10.4818 0.65625 11.4453C1.07292 12.4036 1.64844 13.25 2.38281 13.9844C3.11719 14.7188 3.96354 15.2943 4.92188 15.7109C5.88542 16.1276 6.91146 16.3359 8 16.3359ZM11.5938 8.73438C11.5938 9.40625 11.4323 10.0182 11.1094 10.5703C10.7865 11.1224 10.3516 11.5625 9.80469 11.8906C9.26302 12.2135 8.66146 12.375 8 12.375C7.33333 12.375 6.72917 12.2135 6.1875 11.8906C5.64583 11.5625 5.21354 11.125 4.89062 10.5781C4.56771 10.0312 4.40625 9.42708 4.40625 8.76562C4.40625 8.61458 4.46094 8.48698 4.57031 8.38281C4.67969 8.27344 4.8099 8.21875 4.96094 8.21875C5.11198 8.21875 5.24219 8.27344 5.35156 8.38281C5.46615 8.48698 5.52344 8.61458 5.52344 8.76562C5.52344 9.22917 5.63281 9.64844 5.85156 10.0234C6.07552 10.3984 6.375 10.6979 6.75 10.9219C7.125 11.1458 7.54167 11.2578 8 11.2578C8.45833 11.2578 8.875 11.1458 9.25 10.9219C9.625 10.6979 9.92188 10.3984 10.1406 10.0234C10.3646 9.64844 10.4766 9.22917 10.4766 8.76562C10.4766 8.30729 10.3646 7.89062 10.1406 7.51562C9.92188 7.14062 9.625 6.84375 9.25 6.625C8.875 6.40104 8.45833 6.28906 8 6.28906C7.88021 6.28906 7.78385 6.29427 7.71094 6.30469L8.49219 7.07812C8.59635 7.18229 8.64844 7.30469 8.64844 7.44531C8.64844 7.59115 8.59896 7.71354 8.5 7.8125C8.40104 7.91146 8.27604 7.96094 8.125 7.96094C7.99479 7.96094 7.88021 7.90885 7.78125 7.80469L6.21875 6.24219C6.11979 6.14844 6.07031 6.02604 6.07031 5.875C6.07552 5.72396 6.125 5.59896 6.21875 5.5L7.76562 3.92188C7.80729 3.875 7.85938 3.83594 7.92188 3.80469C7.98958 3.77344 8.0599 3.75781 8.13281 3.75781C8.27865 3.75781 8.40104 3.8099 8.5 3.91406C8.59896 4.01302 8.64844 4.13281 8.64844 4.27344C8.64844 4.34635 8.63281 4.41667 8.60156 4.48438C8.57552 4.54688 8.54167 4.60156 8.5 4.64844L7.9375 5.22656C7.96875 5.22135 8.0026 5.21875 8.03906 5.21875C8.08073 5.21354 8.11979 5.21094 8.15625 5.21094C8.76042 5.21094 9.32292 5.36719 9.84375 5.67969C10.3646 5.99219 10.7865 6.41667 11.1094 6.95312C11.4323 7.48438 11.5938 8.07812 11.5938 8.73438Z" fill="white"/>
</svg>
