<svg width="128" height="128" viewBox="0 0 128 128" fill="none" xmlns="http://www.w3.org/2000/svg">
<path d="M63.9375 127.625C72.6458 127.625 80.8333 125.958 88.5 122.625C96.2083 119.292 103 114.688 108.875 108.812C114.75 102.938 119.354 96.1667 122.688 88.5C126.021 80.7917 127.688 72.5833 127.688 63.875C127.688 55.1667 126.021 46.9792 122.688 39.3125C119.354 31.6042 114.75 24.8125 108.875 18.9375C103 13.0625 96.2083 8.45833 88.5 5.125C80.7917 1.79167 72.5833 0.125 63.875 0.125C55.1667 0.125 46.9583 1.79167 39.25 5.125C31.5833 8.45833 24.8125 13.0625 18.9375 18.9375C13.1042 24.8125 8.52083 31.6042 5.1875 39.3125C1.85417 46.9792 0.1875 55.1667 0.1875 63.875C0.1875 72.5833 1.85417 80.7917 5.1875 88.5C8.52083 96.1667 13.125 102.938 19 108.812C24.875 114.688 31.6458 119.292 39.3125 122.625C47.0208 125.958 55.2292 127.625 63.9375 127.625ZM43.625 47.875C45.0833 47.875 46.25 48.3333 47.125 49.25C48 50.125 48.4375 51.3542 48.4375 52.9375V64L47.5 74L56.8125 64.125L80.375 40.4375C80.8333 39.9792 81.375 39.625 82 39.375C82.625 39.0833 83.3333 38.9375 84.125 38.9375C85.5417 38.9375 86.6667 39.375 87.5 40.25C88.375 41.125 88.8125 42.3125 88.8125 43.8125C88.8125 45.0625 88.2917 46.2083 87.25 47.25L63.625 70.875L53.5625 80.25L63.125 79.25H74.75C76.2917 79.25 77.5208 79.6875 78.4375 80.5625C79.3958 81.4375 79.875 82.5833 79.875 84C79.875 85.4167 79.4167 86.5625 78.5 87.4375C77.5833 88.3125 76.375 88.75 74.875 88.75H44.3125C42.6458 88.75 41.3333 88.3333 40.375 87.5C39.4167 86.6667 38.9375 85.2917 38.9375 83.375V53.0625C38.9375 51.5208 39.3542 50.2708 40.1875 49.3125C41.0625 48.3542 42.2083 47.875 43.625 47.875Z" fill="white"/>
</svg>
