<svg width="14" height="13" viewBox="0 0 14 13" fill="none" xmlns="http://www.w3.org/2000/svg">
<path d="M12.2344 0.15625C12.0781 0.15625 11.9297 0.1875 11.7891 0.25C11.6536 0.307292 11.5052 0.375 11.3438 0.453125L1.30469 5.32812C0.971354 5.48958 0.742188 5.65104 0.617188 5.8125C0.492188 5.97396 0.429688 6.15885 0.429688 6.36719C0.429688 6.57552 0.492188 6.76042 0.617188 6.92188C0.742188 7.08333 0.971354 7.2474 1.30469 7.41406L11.3438 12.2812C11.5104 12.3646 11.6615 12.4349 11.7969 12.4922C11.9375 12.5495 12.0859 12.5781 12.2422 12.5781C12.5286 12.5781 12.7552 12.4766 12.9219 12.2734C13.0885 12.0703 13.1719 11.7995 13.1719 11.4609V1.27344C13.1719 0.934896 13.0859 0.664062 12.9141 0.460938C12.7474 0.257812 12.5208 0.15625 12.2344 0.15625Z" fill="white"/>
</svg>
