<?xml version="1.0" encoding="UTF-8"?>
<svg xmlns="http://www.w3.org/2000/svg" xmlns:xlink="http://www.w3.org/1999/xlink" width="24" height="22.666667" viewBox="0 0 24 22.666667" version="1.1">
<g id="surface1">
<path style=" stroke:none;fill-rule:nonzero;fill:rgb(100%,100%,100%);fill-opacity:1;" d="M 4.3125 22.011719 C 4.625 22.011719 5.035156 21.933594 5.542969 21.78125 C 6.046875 21.628906 6.59375 21.421875 7.175781 21.167969 C 7.765625 20.910156 8.347656 20.625 8.917969 20.3125 C 9.492188 20.007812 10.003906 19.695312 10.449219 19.375 C 10.539062 19.3125 10.621094 19.265625 10.699219 19.238281 C 10.773438 19.210938 10.847656 19.199219 10.917969 19.199219 C 10.984375 19.203125 11.054688 19.207031 11.125 19.207031 C 11.195312 19.214844 11.261719 19.21875 11.324219 19.21875 C 12.824219 19.21875 14.214844 19.058594 15.5 18.738281 C 16.785156 18.421875 17.9375 17.96875 18.957031 17.386719 C 19.984375 16.800781 20.859375 16.117188 21.582031 15.332031 C 22.304688 14.542969 22.859375 13.671875 23.238281 12.730469 C 23.621094 11.785156 23.8125 10.796875 23.8125 9.761719 C 23.8125 8.449219 23.507812 7.21875 22.894531 6.074219 C 22.292969 4.925781 21.449219 3.921875 20.363281 3.0625 C 19.289062 2.195312 18.035156 1.515625 16.605469 1.03125 C 15.171875 0.539062 13.640625 0.292969 12 0.292969 C 10.359375 0.292969 8.828125 0.539062 7.394531 1.03125 C 5.964844 1.515625 4.707031 2.195312 3.625 3.0625 C 2.546875 3.921875 1.703125 4.925781 1.09375 6.074219 C 0.488281 7.21875 0.1875 8.449219 0.1875 9.761719 C 0.1875 10.871094 0.402344 11.925781 0.832031 12.925781 C 1.269531 13.925781 1.890625 14.84375 2.699219 15.675781 C 3.511719 16.503906 4.472656 17.214844 5.582031 17.8125 C 5.660156 17.855469 5.707031 17.914062 5.730469 17.988281 C 5.757812 18.058594 5.75 18.132812 5.707031 18.207031 C 5.515625 18.527344 5.285156 18.859375 5.019531 19.199219 C 4.757812 19.539062 4.5 19.851562 4.25 20.136719 C 4.007812 20.425781 3.820312 20.660156 3.6875 20.832031 C 3.484375 21.097656 3.4375 21.359375 3.542969 21.613281 C 3.652344 21.878906 3.910156 22.011719 4.3125 22.011719 Z M 12.019531 15.230469 C 11.785156 15.230469 11.589844 15.15625 11.4375 15.011719 C 11.285156 14.859375 11.207031 14.660156 11.207031 14.417969 L 11.207031 9.074219 L 11.292969 6.792969 L 10.21875 8.082031 L 8.949219 9.363281 C 8.789062 9.523438 8.597656 9.605469 8.375 9.605469 C 8.152344 9.605469 7.964844 9.53125 7.8125 9.386719 C 7.667969 9.234375 7.59375 9.046875 7.59375 8.824219 C 7.59375 8.59375 7.667969 8.40625 7.8125 8.261719 L 11.394531 4.699219 C 11.597656 4.488281 11.804688 4.386719 12.019531 4.386719 C 12.234375 4.386719 12.445312 4.488281 12.644531 4.699219 L 16.230469 8.261719 C 16.375 8.414062 16.449219 8.601562 16.449219 8.824219 C 16.449219 9.046875 16.371094 9.234375 16.21875 9.386719 C 16.066406 9.53125 15.878906 9.605469 15.65625 9.605469 C 15.421875 9.605469 15.230469 9.523438 15.082031 9.363281 L 13.824219 8.082031 L 12.738281 6.78125 L 12.824219 9.074219 L 12.824219 14.417969 C 12.824219 14.660156 12.746094 14.859375 12.59375 15.011719 C 12.449219 15.15625 12.257812 15.230469 12.019531 15.230469 Z M 12.019531 15.230469 "/>
</g>
</svg>
