<svg width="10" height="14" viewBox="0 0 10 14" fill="none" xmlns="http://www.w3.org/2000/svg">
<path d="M1.01562 13.1797C1.22396 13.1797 1.42448 13.1146 1.61719 12.9844L2.02344 12.7109C2.29427 12.5286 2.58594 12.2995 2.89844 12.0234C3.21094 11.7422 3.51302 11.4479 3.80469 11.1406C4.09635 10.8281 4.34896 10.5286 4.5625 10.2422C4.77604 9.95052 4.91667 9.70052 4.98438 9.49219H5.00781C5.07552 9.70052 5.21354 9.94792 5.42188 10.2344C5.63542 10.5208 5.88802 10.8203 6.17969 11.1328C6.47135 11.4453 6.77344 11.7422 7.08594 12.0234C7.39844 12.2995 7.69271 12.5286 7.96875 12.7109L8.375 12.9844C8.56771 13.1146 8.76562 13.1797 8.96875 13.1797C9.16667 13.1797 9.32552 13.1198 9.44531 13C9.57031 12.875 9.63281 12.7161 9.63281 12.5234C9.63281 12.263 9.52083 12.0625 9.29688 11.9219L8.67969 11.5234C8.40885 11.3411 8.10156 11.099 7.75781 10.7969C7.41406 10.4948 7.08333 10.1458 6.76562 9.75C6.45312 9.35417 6.19271 8.92969 5.98438 8.47656C5.78125 8.02344 5.67969 7.55729 5.67969 7.07812V3.09375H4.3125V7.07812C4.3125 7.55729 4.20833 8.02344 4 8.47656C3.79688 8.92969 3.53646 9.35417 3.21875 9.75C2.90104 10.1406 2.57031 10.4896 2.22656 10.7969C1.88802 11.099 1.58333 11.3411 1.3125 11.5234L0.695312 11.9219C0.471354 12.0625 0.359375 12.2656 0.359375 12.5312C0.359375 12.7083 0.419271 12.862 0.539062 12.9922C0.658854 13.1172 0.817708 13.1797 1.01562 13.1797ZM3.20312 4.14844H6.78906C7.0651 4.14844 7.23698 4.06771 7.30469 3.90625C7.3776 3.73958 7.33594 3.54948 7.17969 3.33594L5.4375 0.84375C5.3125 0.666667 5.16667 0.578125 5 0.578125C4.83333 0.572917 4.6849 0.661458 4.55469 0.84375L2.80469 3.32812C2.65365 3.54688 2.61198 3.73958 2.67969 3.90625C2.7474 4.06771 2.92188 4.14844 3.20312 4.14844Z" fill="white"/>
</svg>
