<svg xmlns="http://www.w3.org/2000/svg" width="24" height="24"><path style="stroke:none;fill-rule:nonzero;fill:#fff;fill-opacity:1" d="M4.887 23.3h14.215c1.226 0 2.144-.323 2.753-.976.618-.64.926-1.605.926-2.898V4.164c0-1.293-.308-2.258-.926-2.898-.609-.653-1.527-.977-2.753-.977H4.887c-1.227 0-2.149.324-2.766.977-.61.64-.914 1.605-.914 2.898v15.262c0 1.293.305 2.258.914 2.902.617.649 1.54.973 2.766.973Zm.023-2.01c-.586 0-1.035-.165-1.348-.49-.312-.335-.468-.823-.468-1.476V4.262c0-.649.156-1.137.469-1.461.312-.336.761-.5 1.347-.5h14.168c.578 0 1.024.164 1.336.5.32.324.48.812.48 1.46v15.063c0 .653-.16 1.14-.48 1.477-.312.324-.758.488-1.336.488Zm3.41-6.427a.789.789 0 0 0 .621-.261c.164-.176.246-.415.246-.715v-2.16l-.175-1.938 1.687 1.91 4.313 4.614c.18.19.402.289.668.289a.82.82 0 0 0 .62-.25c.157-.176.235-.407.235-.688a.95.95 0 0 0-.281-.664l-4.313-4.613-1.828-1.813 1.735.203h2.132c.282 0 .504-.086.668-.25.172-.168.258-.394.258-.675 0-.274-.082-.497-.246-.665-.164-.164-.383-.25-.656-.25H8.438c-.297 0-.536.083-.715.239-.172.16-.258.426-.258.8v5.887c0 .293.078.535.234.727.16.183.387.285.621.273Zm0 0"/></svg>