<svg width="14" height="14" viewBox="0 0 14 14" fill="none" xmlns="http://www.w3.org/2000/svg">
<path d="M13.2109 1.9375C13.2109 1.65104 13.1094 1.42448 12.9062 1.25781C12.7031 1.08594 12.4297 1 12.0859 1L1.89844 0.992188C1.5599 0.992188 1.28906 1.07812 1.08594 1.25C0.882812 1.41667 0.78125 1.64323 0.78125 1.92969C0.78125 2.08594 0.809896 2.23438 0.867188 2.375C0.929688 2.51042 1 2.66146 1.07812 2.82812L5.95312 12.8672C6.11458 13.2005 6.27604 13.4297 6.4375 13.5547C6.60417 13.6797 6.78906 13.7422 6.99219 13.7422C7.20052 13.7422 7.38542 13.6797 7.54688 13.5547C7.70833 13.4297 7.8724 13.2005 8.03906 12.8672L12.9062 2.82812C12.9896 2.66667 13.0599 2.51823 13.1172 2.38281C13.1797 2.24219 13.2109 2.09375 13.2109 1.9375ZM11.7188 2.33594C11.7188 2.35156 11.7135 2.36719 11.7031 2.38281C11.6979 2.39844 11.6927 2.41667 11.6875 2.4375L7.08594 11.9922C7.07552 12.013 7.0625 12.0312 7.04688 12.0469C7.03125 12.0573 7.01302 12.0625 6.99219 12.0625C6.97135 12.0625 6.95312 12.0573 6.9375 12.0469C6.92708 12.0312 6.91667 12.013 6.90625 11.9922L2.30469 2.42969C2.29427 2.40885 2.28646 2.39062 2.28125 2.375C2.27604 2.35938 2.27344 2.34375 2.27344 2.32812C2.27344 2.27604 2.30208 2.25 2.35938 2.25L11.625 2.25781C11.6875 2.25781 11.7188 2.28385 11.7188 2.33594Z" fill="white"/>
</svg>
