<svg xmlns="http://www.w3.org/2000/svg" width="24" height="24"><path style="stroke:none;fill-rule:nonzero;fill:#fff;fill-opacity:1" d="M21.89 1.367a.951.951 0 0 0-.75.332c-.195.215-.292.496-.292.848 0 .238.004.48.011.719.008.234.012.511.012.832 0 1.652-.187 2.992-.562 4.02-.368 1.027-.977 1.78-1.829 2.26-.843.474-1.984.712-3.421.712H6.973l-2.883.203 3.96-4.14 2.602-3.028c.094-.105.164-.234.211-.375.047-.152.07-.309.07-.469a1.173 1.173 0 0 0-.292-.816.922.922 0 0 0-.727-.336c-.281 0-.539.121-.773.363l-7.782 8.89a1.274 1.274 0 0 0-.363.9c0 .34.121.644.363.91l7.758 8.851c.25.27.516.402.797.402a.94.94 0 0 0 .727-.32c.195-.219.3-.52.293-.832a1.56 1.56 0 0 0-.07-.465 1.05 1.05 0 0 0-.212-.39L8.051 17.41 4.1 13.3l2.872.188h8.191c2.781 0 4.781-.734 6-2.199 1.219-1.473 1.828-3.828 1.828-7.07 0-.39-.008-.75-.023-1.07a5.389 5.389 0 0 0-.07-.794 1.945 1.945 0 0 0-.176-.492.898.898 0 0 0-.328-.363.859.859 0 0 0-.504-.133Zm0 0"/></svg>