<svg width="16" height="15" viewBox="0 0 16 15" fill="none" xmlns="http://www.w3.org/2000/svg">
<path d="M3.25781 14.5625H12.7344C13.5521 14.5625 14.1641 14.3594 14.5703 13.9531C14.9818 13.5521 15.1875 12.9479 15.1875 12.1406V2.60156C15.1875 1.79427 14.9818 1.1901 14.5703 0.789062C14.1641 0.382812 13.5521 0.179688 12.7344 0.179688H3.25781C2.4401 0.179688 1.82552 0.382812 1.41406 0.789062C1.00781 1.1901 0.804688 1.79427 0.804688 2.60156V12.1406C0.804688 12.9479 1.00781 13.5521 1.41406 13.9531C1.82552 14.3594 2.4401 14.5625 3.25781 14.5625ZM5.46875 9.35156C5.29167 9.35156 5.14844 9.29167 5.03906 9.17188C4.9349 9.05208 4.88281 8.89583 4.88281 8.70312V4.91406C4.88281 4.67448 4.94271 4.5026 5.0625 4.39844C5.18229 4.29427 5.34635 4.24219 5.55469 4.24219H9.375C9.5625 4.24219 9.71354 4.29688 9.82812 4.40625C9.94271 4.51562 10 4.65885 10 4.83594C10 5.01302 9.9401 5.15625 9.82031 5.26562C9.70573 5.375 9.55208 5.42969 9.35938 5.42969H7.90625L6.71094 5.30469L7.96875 6.47656L10.9219 9.42969C11.0521 9.5599 11.1172 9.70312 11.1172 9.85938C11.1172 10.0469 11.0625 10.1953 10.9531 10.3047C10.849 10.4141 10.7083 10.4688 10.5312 10.4688C10.4323 10.4688 10.3438 10.4531 10.2656 10.4219C10.1875 10.3854 10.1198 10.3385 10.0625 10.2812L7.11719 7.32031L5.95312 6.08594L6.07031 7.33594V8.71875C6.07031 8.91667 6.01562 9.07292 5.90625 9.1875C5.79688 9.29688 5.65104 9.35156 5.46875 9.35156Z" fill="white"/>
</svg>
