<svg width="16" height="17" viewBox="0 0 16 17" fill="none" xmlns="http://www.w3.org/2000/svg">
<path d="M8 16.3281C9.08854 16.3281 10.112 16.1198 11.0703 15.7031C12.0339 15.2865 12.8828 14.7109 13.6172 13.9766C14.3516 13.2422 14.9271 12.3958 15.3438 11.4375C15.7604 10.474 15.9688 9.44792 15.9688 8.35938C15.9688 7.27083 15.7604 6.2474 15.3438 5.28906C14.9271 4.32552 14.3516 3.47656 13.6172 2.74219C12.8828 2.00781 12.0339 1.43229 11.0703 1.01562C10.1068 0.598958 9.08073 0.390625 7.99219 0.390625C6.90365 0.390625 5.8776 0.598958 4.91406 1.01562C3.95573 1.43229 3.10938 2.00781 2.375 2.74219C1.64583 3.47656 1.07292 4.32552 0.65625 5.28906C0.239583 6.2474 0.03125 7.27083 0.03125 8.35938C0.03125 9.44792 0.239583 10.474 0.65625 11.4375C1.07292 12.3958 1.64844 13.2422 2.38281 13.9766C3.11719 14.7109 3.96354 15.2865 4.92188 15.7031C5.88542 16.1198 6.91146 16.3281 8 16.3281ZM8 15C7.07812 15 6.21615 14.8281 5.41406 14.4844C4.61198 14.1406 3.90625 13.6667 3.29688 13.0625C2.69271 12.4531 2.21875 11.7474 1.875 10.9453C1.53646 10.1432 1.36719 9.28125 1.36719 8.35938C1.36719 7.4375 1.53646 6.57552 1.875 5.77344C2.21875 4.97135 2.69271 4.26562 3.29688 3.65625C3.90104 3.04688 4.60417 2.57292 5.40625 2.23438C6.20833 1.89062 7.07031 1.71875 7.99219 1.71875C8.91406 1.71875 9.77604 1.89062 10.5781 2.23438C11.3854 2.57292 12.0911 3.04688 12.6953 3.65625C13.3047 4.26562 13.7812 4.97135 14.125 5.77344C14.4688 6.57552 14.6406 7.4375 14.6406 8.35938C14.6406 9.28125 14.4688 10.1432 14.125 10.9453C13.7865 11.7474 13.3125 12.4531 12.7031 13.0625C12.0938 13.6667 11.388 14.1406 10.5859 14.4844C9.78385 14.8281 8.92188 15 8 15ZM11.4766 8.71094C11.4766 8.07031 11.3203 7.49219 11.0078 6.97656C10.6953 6.46094 10.2839 6.05208 9.77344 5.75C9.26823 5.44271 8.72396 5.28906 8.14062 5.28906C8.10417 5.28906 8.0651 5.29167 8.02344 5.29688C7.98698 5.29688 7.95312 5.29948 7.92188 5.30469L8.47656 4.74219C8.51823 4.69531 8.55208 4.64062 8.57812 4.57812C8.60417 4.51562 8.61719 4.45052 8.61719 4.38281C8.61719 4.2474 8.56771 4.13021 8.46875 4.03125C8.375 3.93229 8.26042 3.88281 8.125 3.88281C8.05208 3.88281 7.98438 3.89844 7.92188 3.92969C7.85938 3.95573 7.80729 3.99219 7.76562 4.03906L6.26562 5.57031C6.17188 5.66406 6.1224 5.78385 6.11719 5.92969C6.11719 6.07552 6.16667 6.19531 6.26562 6.28906L7.78125 7.80469C7.875 7.90365 7.98958 7.95312 8.125 7.95312C8.26042 7.95312 8.375 7.90625 8.46875 7.8125C8.56771 7.71354 8.61719 7.59635 8.61719 7.46094C8.61719 7.32031 8.56771 7.20052 8.46875 7.10156L7.70312 6.35156C7.77604 6.34115 7.8724 6.33594 7.99219 6.33594C8.4349 6.33594 8.83854 6.44271 9.20312 6.65625C9.56771 6.86979 9.85677 7.15885 10.0703 7.52344C10.2891 7.88802 10.3984 8.29167 10.3984 8.73438C10.3984 9.18229 10.2891 9.59115 10.0703 9.96094C9.85677 10.3255 9.56771 10.6172 9.20312 10.8359C8.83854 11.0495 8.4349 11.1562 7.99219 11.1562C7.54427 11.1562 7.13802 11.0495 6.77344 10.8359C6.40885 10.6172 6.11979 10.3255 5.90625 9.96094C5.69271 9.59115 5.58594 9.18229 5.58594 8.73438C5.58594 8.59375 5.53125 8.47135 5.42188 8.36719C5.31771 8.26302 5.19271 8.21094 5.04688 8.21094C4.90104 8.21094 4.77344 8.26302 4.66406 8.36719C4.5599 8.47135 4.50781 8.59375 4.50781 8.73438C4.50781 9.38021 4.66406 9.96875 4.97656 10.5C5.28906 11.026 5.70833 11.4479 6.23438 11.7656C6.76042 12.0781 7.34635 12.2344 7.99219 12.2344C8.63281 12.2344 9.21615 12.0781 9.74219 11.7656C10.2682 11.4479 10.6875 11.0234 11 10.4922C11.3177 9.95573 11.4766 9.36198 11.4766 8.71094Z" fill="white"/>
</svg>
