<?xml version="1.0" encoding="UTF-8"?>
<svg xmlns="http://www.w3.org/2000/svg" xmlns:xlink="http://www.w3.org/1999/xlink" width="24" height="25.5" viewBox="0 0 24 25.5" version="1.1">
<g id="surface1">
<path style=" stroke:none;fill-rule:nonzero;fill:rgb(100%,100%,100%);fill-opacity:1;" d="M 12 24.363281 C 13.632812 24.363281 15.167969 24.050781 16.605469 23.425781 C 18.050781 22.800781 19.324219 21.9375 20.425781 20.835938 C 21.527344 19.734375 22.390625 18.464844 23.015625 17.027344 C 23.640625 15.582031 23.953125 14.042969 23.953125 12.410156 C 23.953125 10.777344 23.640625 9.242188 23.015625 7.804688 C 22.390625 6.359375 21.527344 5.085938 20.425781 3.984375 C 19.324219 2.882812 18.050781 2.019531 16.605469 1.394531 C 15.160156 0.769531 13.621094 0.457031 11.988281 0.457031 C 10.355469 0.457031 8.816406 0.769531 7.371094 1.394531 C 5.933594 2.019531 4.664062 2.882812 3.5625 3.984375 C 2.46875 5.085938 1.609375 6.359375 0.984375 7.804688 C 0.359375 9.242188 0.046875 10.777344 0.046875 12.410156 C 0.046875 14.042969 0.359375 15.582031 0.984375 17.027344 C 1.609375 18.464844 2.472656 19.734375 3.574219 20.835938 C 4.675781 21.9375 5.945312 22.800781 7.382812 23.425781 C 8.828125 24.050781 10.367188 24.363281 12 24.363281 Z M 17.976562 13.722656 C 17.976562 14.652344 17.777344 15.464844 17.378906 16.160156 C 16.988281 16.855469 16.4375 17.394531 15.726562 17.777344 C 15.015625 18.160156 14.191406 18.351562 13.253906 18.351562 L 11.671875 18.351562 C 11.390625 18.351562 11.164062 18.273438 10.992188 18.117188 C 10.820312 17.953125 10.734375 17.738281 10.734375 17.472656 C 10.734375 17.214844 10.816406 17.007812 10.980469 16.851562 C 11.152344 16.6875 11.375 16.605469 11.648438 16.605469 L 13.253906 16.605469 C 14.136719 16.605469 14.851562 16.34375 15.398438 15.820312 C 15.953125 15.289062 16.230469 14.589844 16.230469 13.722656 C 16.230469 12.925781 15.957031 12.28125 15.410156 11.789062 C 14.871094 11.296875 14.15625 11.050781 13.265625 11.050781 L 9.84375 11.050781 L 8.636719 11.003906 L 9.1875 11.390625 L 10.605469 12.761719 C 10.792969 12.949219 10.886719 13.164062 10.886719 13.40625 C 10.886719 13.65625 10.800781 13.871094 10.628906 14.050781 C 10.464844 14.222656 10.261719 14.308594 10.019531 14.308594 C 9.753906 14.308594 9.539062 14.222656 9.375 14.050781 L 6.304688 10.910156 C 6.09375 10.699219 5.988281 10.453125 5.988281 10.171875 C 5.988281 9.898438 6.09375 9.648438 6.304688 9.421875 L 9.363281 6.316406 C 9.535156 6.144531 9.75 6.058594 10.007812 6.058594 C 10.257812 6.058594 10.464844 6.144531 10.628906 6.316406 C 10.800781 6.488281 10.886719 6.703125 10.886719 6.960938 C 10.886719 7.210938 10.792969 7.417969 10.605469 7.582031 L 9.421875 8.730469 L 8.625 9.363281 L 9.84375 9.304688 L 13.265625 9.304688 C 14.203125 9.304688 15.027344 9.488281 15.738281 9.855469 C 16.449219 10.222656 17 10.738281 17.390625 11.402344 C 17.78125 12.066406 17.976562 12.839844 17.976562 13.722656 Z M 17.976562 13.722656 "/>
</g>
</svg>
