<svg width="167" height="117" viewBox="0 0 167 117" fill="none" xmlns="http://www.w3.org/2000/svg">
<path d="M55.8125 116.062C57.1875 116.062 58.3125 115.729 59.1875 115.062C60.0625 114.396 60.6458 113.438 60.9375 112.188C63.1875 105.229 65.9167 99.6875 69.125 95.5625C72.375 91.4375 76.2083 88.4792 80.625 86.6875C85.0833 84.8542 90.2708 83.9375 96.1875 83.9375L98.4375 84V107.875C98.4375 110 99.125 111.75 100.5 113.125C101.875 114.5 103.625 115.188 105.75 115.188C107.292 115.188 108.729 114.854 110.062 114.188C111.396 113.521 112.812 112.5 114.312 111.125L163.688 64.5625C164.854 63.4375 165.667 62.2917 166.125 61.125C166.583 59.9583 166.812 58.875 166.812 57.875C166.812 56.7917 166.583 55.6875 166.125 54.5625C165.667 53.3958 164.854 52.25 163.688 51.125L114.312 5C112.646 3.41667 111.208 2.27083 110 1.5625C108.792 0.854167 107.417 0.5 105.875 0.5C103.708 0.5 101.917 1.27083 100.5 2.8125C99.125 4.3125 98.4375 6.10417 98.4375 8.1875V31.8125H96.625C90.0833 31.8125 83.9792 33.1042 78.3125 35.6875C72.6458 38.2708 67.8333 42.1667 63.875 47.375C59.9583 52.5417 57.3542 59.0208 56.0625 66.8125H55.375C53.9167 58.1875 51.1667 51.3333 47.125 46.25C43.125 41.125 38.4167 37.4375 33 35.1875C27.625 32.9375 22.125 31.8125 16.5 31.8125C16.3333 31.8125 15.9792 31.8125 15.4375 31.8125C14.9375 31.8125 14.125 31.8125 13 31.8125C8.70833 31.8125 5.625 32.75 3.75 34.625C1.875 36.4583 0.9375 39.7083 0.9375 44.375V74.25C0.9375 77.7917 1.83333 80.3542 3.625 81.9375C5.45833 83.5208 8.39583 84.3125 12.4375 84.3125C13.3958 84.3125 14.3125 84.3125 15.1875 84.3125C16.0625 84.3125 16.9792 84.3125 17.9375 84.3125C23.6458 84.3125 28.6667 85.5 33 87.875C37.375 90.2083 41.0417 93.4792 44 97.6875C47 101.854 49.25 106.667 50.75 112.125C51.0417 113.417 51.6042 114.396 52.4375 115.062C53.2708 115.729 54.3958 116.062 55.8125 116.062ZM52.5 98.125C50.1667 92.2083 47.2292 87.5417 43.6875 84.125C40.1875 80.7083 36.1875 78.2708 31.6875 76.8125C27.2292 75.3125 22.3958 74.5417 17.1875 74.5C16.5625 74.5 15.9167 74.5 15.25 74.5C14.625 74.5 14.0208 74.5 13.4375 74.5C11.8125 74.5 11 73.5833 11 71.75V44.375C11 42.5 11.8542 41.5625 13.5625 41.5625C14.1875 41.5625 14.7708 41.5625 15.3125 41.5625C15.8542 41.5625 16.4375 41.5625 17.0625 41.5625C21.7708 41.6458 26.2292 42.6458 30.4375 44.5625C34.6875 46.4375 38.4583 49.5417 41.75 53.875C45.0417 58.1667 47.6875 63.9375 49.6875 71.1875C51.7292 78.3958 52.8958 87.375 53.1875 98.125H52.5ZM109.375 101.75C108.792 101.75 108.5 101.438 108.5 100.812V76.625C108.5 75.25 107.792 74.5625 106.375 74.5625L95.875 74.5C89.7917 74.5 84.3958 75.3542 79.6875 77.0625C74.9792 78.7292 70.9167 81.3125 67.5 84.8125C64.0833 88.2708 61.3125 92.7083 59.1875 98.125H58.5C58.8333 85.375 60.5625 74.7917 63.6875 66.375C66.8125 57.9583 71.1667 51.6667 76.75 47.5C82.375 43.3333 89.1042 41.25 96.9375 41.25H106.375C107.792 41.25 108.5 40.5625 108.5 39.1875V14.375C108.5 13.7917 108.792 13.5 109.375 13.5C109.583 13.5 109.771 13.5625 109.938 13.6875C110.104 13.7708 110.271 13.875 110.438 14L154.938 56.6875C155.396 57.1042 155.625 57.5 155.625 57.875C155.625 58.0417 155.562 58.2292 155.438 58.4375C155.354 58.6042 155.188 58.8125 154.938 59.0625L110.438 101.188C110.062 101.562 109.708 101.75 109.375 101.75Z" fill="white"/>
</svg>
