<?xml version="1.0" encoding="UTF-8"?>
<svg xmlns="http://www.w3.org/2000/svg" xmlns:xlink="http://www.w3.org/1999/xlink" width="24" height="25.5" viewBox="0 0 24 25.5" version="1.1">
<g id="surface1">
<path style=" stroke:none;fill-rule:nonzero;fill:rgb(100%,100%,100%);fill-opacity:1;" d="M 12 24.46875 C 13.632812 24.46875 15.167969 24.15625 16.605469 23.53125 C 18.050781 22.90625 19.324219 22.042969 20.425781 20.941406 C 21.527344 19.839844 22.390625 18.570312 23.015625 17.132812 C 23.640625 15.6875 23.953125 14.148438 23.953125 12.515625 C 23.953125 10.882812 23.640625 9.347656 23.015625 7.910156 C 22.390625 6.464844 21.527344 5.191406 20.425781 4.089844 C 19.324219 2.988281 18.050781 2.125 16.605469 1.5 C 15.160156 0.875 13.621094 0.5625 11.988281 0.5625 C 10.355469 0.5625 8.816406 0.875 7.371094 1.5 C 5.933594 2.125 4.664062 2.988281 3.5625 4.089844 C 2.46875 5.191406 1.609375 6.464844 0.984375 7.910156 C 0.359375 9.347656 0.046875 10.882812 0.046875 12.515625 C 0.046875 14.148438 0.359375 15.6875 0.984375 17.132812 C 1.609375 18.570312 2.472656 19.839844 3.574219 20.941406 C 4.675781 22.042969 5.945312 22.90625 7.382812 23.53125 C 8.828125 24.15625 10.367188 24.46875 12 24.46875 Z M 10.769531 18.363281 C 9.839844 18.363281 9.027344 18.167969 8.332031 17.777344 C 7.636719 17.378906 7.097656 16.824219 6.714844 16.113281 C 6.332031 15.402344 6.140625 14.578125 6.140625 13.640625 L 6.140625 12.058594 C 6.140625 11.777344 6.21875 11.550781 6.375 11.378906 C 6.539062 11.207031 6.75 11.121094 7.007812 11.121094 C 7.273438 11.121094 7.484375 11.207031 7.640625 11.378906 C 7.804688 11.542969 7.886719 11.761719 7.886719 12.035156 L 7.886719 13.640625 C 7.886719 14.523438 8.148438 15.242188 8.671875 15.796875 C 9.203125 16.34375 9.902344 16.617188 10.769531 16.617188 C 11.566406 16.617188 12.210938 16.347656 12.703125 15.808594 C 13.195312 15.261719 13.441406 14.542969 13.441406 13.652344 L 13.441406 10.21875 L 13.488281 9.023438 L 13.101562 9.574219 L 11.730469 10.992188 C 11.550781 11.179688 11.335938 11.273438 11.085938 11.273438 C 10.835938 11.273438 10.621094 11.191406 10.441406 11.027344 C 10.269531 10.855469 10.183594 10.648438 10.183594 10.40625 C 10.183594 10.140625 10.269531 9.925781 10.441406 9.761719 L 13.582031 6.691406 C 13.792969 6.480469 14.039062 6.375 14.320312 6.375 C 14.59375 6.375 14.84375 6.480469 15.070312 6.691406 L 18.175781 9.75 C 18.347656 9.921875 18.433594 10.136719 18.433594 10.394531 C 18.433594 10.644531 18.34375 10.855469 18.164062 11.027344 C 17.992188 11.191406 17.78125 11.273438 17.53125 11.273438 C 17.28125 11.273438 17.074219 11.179688 16.910156 10.992188 L 15.761719 9.808594 L 15.128906 9.011719 L 15.1875 10.21875 L 15.1875 13.652344 C 15.1875 14.589844 15.003906 15.414062 14.636719 16.125 C 14.269531 16.828125 13.753906 17.378906 13.089844 17.777344 C 12.425781 18.167969 11.652344 18.363281 10.769531 18.363281 Z M 10.769531 18.363281 "/>
</g>
</svg>
