<svg width="128" height="128" viewBox="0 0 128 128" fill="none" xmlns="http://www.w3.org/2000/svg">
<path d="M63.9375 127.625C72.6458 127.625 80.8333 125.958 88.5 122.625C96.2083 119.292 103 114.688 108.875 108.812C114.75 102.938 119.354 96.1667 122.688 88.5C126.021 80.7917 127.688 72.5833 127.688 63.875C127.688 55.1667 126.021 46.9792 122.688 39.3125C119.354 31.6042 114.75 24.8125 108.875 18.9375C103 13.0625 96.2083 8.45833 88.5 5.125C80.7917 1.79167 72.5833 0.125 63.875 0.125C55.1667 0.125 46.9583 1.79167 39.25 5.125C31.5833 8.45833 24.8125 13.0625 18.9375 18.9375C13.1042 24.8125 8.52083 31.6042 5.1875 39.3125C1.85417 46.9792 0.1875 55.1667 0.1875 63.875C0.1875 72.5833 1.85417 80.7917 5.1875 88.5C8.52083 96.1667 13.125 102.938 19 108.812C24.875 114.688 31.6458 119.292 39.3125 122.625C47.0208 125.958 55.2292 127.625 63.9375 127.625ZM63.9375 117C56.5625 117 49.6667 115.625 43.25 112.875C36.8333 110.125 31.1875 106.333 26.3125 101.5C21.4792 96.625 17.6875 90.9792 14.9375 84.5625C12.2292 78.1458 10.875 71.25 10.875 63.875C10.875 56.5 12.2292 49.6042 14.9375 43.1875C17.6875 36.7708 21.4792 31.125 26.3125 26.25C31.1458 21.375 36.7708 17.5833 43.1875 14.875C49.6042 12.125 56.5 10.75 63.875 10.75C71.25 10.75 78.1458 12.125 84.5625 14.875C91.0208 17.5833 96.6667 21.375 101.5 26.25C106.375 31.125 110.188 36.7708 112.938 43.1875C115.688 49.6042 117.062 56.5 117.062 63.875C117.062 71.25 115.688 78.1458 112.938 84.5625C110.229 90.9792 106.438 96.625 101.562 101.5C96.6875 106.333 91.0417 110.125 84.625 112.875C78.2083 115.625 71.3125 117 63.9375 117ZM83.4375 79.3125C84.8125 79.3125 85.9167 78.8542 86.75 77.9375C87.5833 76.9792 88 75.7708 88 74.3125V44.875C88 43 87.5208 41.6667 86.5625 40.875C85.6458 40.0833 84.3958 39.6875 82.8125 39.6875H53.125C51.6667 39.6875 50.5 40.1042 49.625 40.9375C48.75 41.7708 48.3125 42.875 48.3125 44.25C48.3125 45.6667 48.75 46.7917 49.625 47.625C50.5417 48.4583 51.75 48.875 53.25 48.875H64.625L73.875 47.875L64.1875 56.9375L41.125 80C40.125 81 39.625 82.1042 39.625 83.3125C39.625 84.7292 40.0417 85.875 40.875 86.75C41.7083 87.5833 42.8125 88 44.1875 88C45.6042 88 46.7917 87.5208 47.75 86.5625L70.8125 63.5L79.75 53.9375L78.8125 63.625V74.4375C78.8125 75.9375 79.2292 77.125 80.0625 78C80.9375 78.875 82.0625 79.3125 83.4375 79.3125Z" fill="white"/>
</svg>
