<svg width="116" height="116" viewBox="0 0 116 116" fill="none" xmlns="http://www.w3.org/2000/svg">
<path d="M20.5625 115.5H96.375C102.917 115.5 107.812 113.875 111.062 110.625C114.354 107.417 116 102.583 116 96.125V19.8125C116 13.3542 114.354 8.52083 111.062 5.3125C107.812 2.0625 102.917 0.4375 96.375 0.4375H20.5625C14.0208 0.4375 9.10417 2.0625 5.8125 5.3125C2.5625 8.52083 0.9375 13.3542 0.9375 19.8125V96.125C0.9375 102.583 2.5625 107.417 5.8125 110.625C9.10417 113.875 14.0208 115.5 20.5625 115.5ZM20.6875 105.438C17.5625 105.438 15.1667 104.625 13.5 103C11.8333 101.333 11 98.875 11 95.625V20.3125C11 17.0625 11.8333 14.625 13.5 13C15.1667 11.3333 17.5625 10.5 20.6875 10.5H96.25C99.3333 10.5 101.708 11.3333 103.375 13C105.083 14.625 105.938 17.0625 105.938 20.3125V95.625C105.938 98.875 105.083 101.333 103.375 103C101.708 104.625 99.3333 105.438 96.25 105.438H20.6875ZM58.625 89.0625C59.9583 89.0625 61.0625 88.625 61.9375 87.75C62.8125 86.875 63.25 85.75 63.25 84.375V53.125L62.8125 39.875L69.125 47.4375L76.5 54.9375C77.3333 55.8542 78.4375 56.3125 79.8125 56.3125C81.1042 56.3125 82.1875 55.8958 83.0625 55.0625C83.9375 54.1875 84.375 53.1042 84.375 51.8125C84.375 50.5208 83.9583 49.4375 83.125 48.5625L62.25 27.8125C61.0833 26.6042 59.875 26 58.625 26C57.375 26 56.1667 26.6042 55 27.8125L34.125 48.5625C33.2917 49.3958 32.875 50.4792 32.875 51.8125C32.875 53.1042 33.2917 54.1875 34.125 55.0625C35 55.8958 36.0833 56.3125 37.375 56.3125C38.6667 56.3125 39.7708 55.8542 40.6875 54.9375L48.125 47.4375L54.375 39.9375L53.9375 53.125V84.375C53.9375 85.75 54.375 86.875 55.25 87.75C56.125 88.625 57.25 89.0625 58.625 89.0625Z" fill="white"/>
</svg>
