<svg width="20" height="15" viewBox="0 0 20 15" fill="none" xmlns="http://www.w3.org/2000/svg">
<path d="M5.89062 14.5625H14.0938C14.8646 14.5625 15.4245 14.3646 15.7734 13.9688C16.1276 13.5729 16.362 12.9948 16.4766 12.2344L17.5859 4.79688H2.39844L3.51562 12.2344C3.63021 13 3.86198 13.5781 4.21094 13.9688C4.5651 14.3646 5.125 14.5625 5.89062 14.5625ZM2.03125 3.73438H17.9609C18.3984 3.73438 18.7292 3.61198 18.9531 3.36719C19.1771 3.11719 19.2891 2.77344 19.2891 2.33594V1.57812C19.2891 1.14062 19.1771 0.799479 18.9531 0.554688C18.7292 0.304688 18.3984 0.179688 17.9609 0.179688H2.03125C1.61458 0.179688 1.28906 0.304688 1.05469 0.554688C0.820312 0.799479 0.703125 1.14062 0.703125 1.57812V2.33594C0.703125 2.77344 0.8125 3.11719 1.03125 3.36719C1.25521 3.61198 1.58854 3.73438 2.03125 3.73438ZM10.625 12.1719C10.625 12.3385 10.5625 12.4792 10.4375 12.5938C10.3177 12.7083 10.1719 12.7656 10 12.7656C9.83333 12.7656 9.6875 12.7083 9.5625 12.5938C9.44271 12.4792 9.38281 12.3385 9.38281 12.1719V9.28125L9.42969 7.97656L8.75781 8.67188L8.05469 9.39062C7.9974 9.45312 7.92969 9.5 7.85156 9.53125C7.77344 9.5625 7.69531 9.57812 7.61719 9.57812C7.45052 9.57812 7.3125 9.52604 7.20312 9.42188C7.09896 9.31771 7.04688 9.18229 7.04688 9.01562C7.04688 8.92708 7.0651 8.84896 7.10156 8.78125C7.13802 8.70833 7.1875 8.64323 7.25 8.58594L9.54688 6.47656C9.63542 6.39844 9.71354 6.34375 9.78125 6.3125C9.84896 6.28125 9.92188 6.26562 10 6.26562C10.0833 6.26562 10.1589 6.28125 10.2266 6.3125C10.2943 6.34375 10.3698 6.39844 10.4531 6.47656L12.75 8.58594C12.8125 8.64323 12.862 8.70833 12.8984 8.78125C12.9401 8.84896 12.9609 8.92708 12.9609 9.01562C12.9609 9.18229 12.9036 9.31771 12.7891 9.42188C12.6797 9.52604 12.5443 9.57812 12.3828 9.57812C12.3047 9.57812 12.2266 9.5625 12.1484 9.53125C12.0755 9.5 12.0104 9.45312 11.9531 9.39062L11.2422 8.67188L10.5703 7.97656L10.625 9.28125V12.1719Z" fill="white"/>
</svg>
