<svg width="119" height="99" viewBox="0 0 119 99" fill="none" xmlns="http://www.w3.org/2000/svg">
<path d="M112.375 0.375C110.75 0.375 109.417 0.895833 108.375 1.9375C107.333 2.9375 106.812 4.25 106.812 5.875C106.812 7 106.833 8.125 106.875 9.25C106.917 10.3333 106.938 11.625 106.938 13.125C106.938 20.8333 105.938 27.0833 103.938 31.875C101.979 36.6667 98.7292 40.1875 94.1875 42.4375C89.6875 44.6458 83.6042 45.75 75.9375 45.75H32.8125L17.4375 46.6875L38.5625 27.375L52.4375 13.25C52.9375 12.75 53.3125 12.1667 53.5625 11.5C53.8125 10.7917 53.9375 10.0625 53.9375 9.3125C53.9375 7.77083 53.4167 6.5 52.375 5.5C51.3333 4.45833 50.0417 3.9375 48.5 3.9375C47 3.9375 45.625 4.5 44.375 5.625L2.875 47.125C1.58333 48.3333 0.9375 49.7292 0.9375 51.3125C0.9375 52.8958 1.58333 54.3125 2.875 55.5625L44.25 96.875C45.5833 98.125 47 98.75 48.5 98.75C50.0417 98.75 51.3333 98.25 52.375 97.25C53.4167 96.2083 53.9375 94.9167 53.9375 93.375C53.9375 92.625 53.8125 91.8958 53.5625 91.1875C53.3125 90.4792 52.9375 89.875 52.4375 89.375L38.5625 75.25L17.5 56.0625L32.8125 56.9375H76.5C91.3333 56.9375 102 53.5208 108.5 46.6875C115 39.8125 118.25 28.8125 118.25 13.6875C118.25 11.8542 118.208 10.1875 118.125 8.6875C118.083 7.1875 117.958 5.95833 117.75 5C117.542 4.16667 117.229 3.39583 116.812 2.6875C116.396 1.97917 115.812 1.41667 115.062 1C114.354 0.583333 113.458 0.375 112.375 0.375Z" fill="white"/>
</svg>
