<svg xmlns="http://www.w3.org/2000/svg" width="24" height="24"><path style="stroke:none;fill-rule:nonzero;fill:#fff;fill-opacity:1" d="M12.988 23.238c.29 0 .528-.14.715-.414.188-.277.29-.656.281-1.047V17h.25c1.102 0 2.075.16 2.922.473.848.316 1.594.867 2.242 1.64.649.766 1.22 1.832 1.711 3.203.149.395.313.653.496.762.188.11.372.16.555.16.227 0 .43-.144.606-.437.18-.285.27-.7.27-1.238 0-2.31-.173-4.383-.52-6.227-.34-1.852-.868-3.426-1.582-4.738-.711-1.305-1.625-2.309-2.739-2.996-1.105-.692-2.43-1.043-3.96-1.043h-.25V1.836c0-.414-.094-.777-.282-1.074-.187-.297-.453-.461-.73-.446a.821.821 0 0 0-.563.211c-.164.133-.363.356-.59.668L5.098 10.43a2.029 2.029 0 0 0-.344.687c-.059.207-.09.43-.094.656 0 .204.031.422.094.657.062.226.18.457.344.683l6.722 9.313c.207.285.399.484.582.613.18.129.375.2.586.2Zm-.484-2.687c-.05 0-.102-.043-.156-.113L6.28 12.011a1.346 1.346 0 0 1-.078-.125.403.403 0 0 1-.016-.117c0-.07.032-.153.094-.235L12.348 3a.27.27 0 0 1 .07-.063c.02-.027.047-.042.078-.039.078 0 .117.059.117.176V8.04c0 .274.098.41.29.41h1.144c1.168 0 2.183.219 3.043.664a6.226 6.226 0 0 1 2.172 1.813c.582.754 1.066 1.656 1.43 2.664.367 1.02.64 2.11.812 3.238.18 1.137.289 2.297.324 3.469 0 .094-.023.14-.07.14a.054.054 0 0 1-.043-.023.302.302 0 0 1-.031-.105 7.73 7.73 0 0 0-1.528-2.735 6.782 6.782 0 0 0-2.558-1.812c-1.02-.43-2.207-.649-3.551-.649h-1.145c-.191 0-.289.137-.289.41v4.836c0 .13-.035.192-.11.192Zm-3.758 2.687c.29 0 .527-.14.715-.414.187-.277.289-.656.281-1.047v-3.215l-1.37-1.597v3.394c0 .13-.044.192-.122.192-.047 0-.094-.043-.145-.113l-6.07-8.426c-.031-.051-.058-.09-.074-.125a.368.368 0 0 1-.02-.117c0-.07.032-.153.094-.235L8.105 3c.024-.027.047-.043.067-.063a.101.101 0 0 1 .078-.039c.078 0 .121.059.121.176V6.56l1.371-1.586V1.84c0-.418-.097-.781-.289-1.078C9.266.465 9 .3 8.727.316a.821.821 0 0 0-.563.211c-.164.133-.36.356-.586.668L.844 10.43a2.023 2.023 0 0 0-.34.687 2.63 2.63 0 0 0-.086.656c0 .204.031.422.094.657.062.226.172.457.332.683l6.734 9.313c.2.285.387.484.57.613.188.129.387.2.598.2Zm0 0"/></svg>