<?xml version="1.0" encoding="UTF-8"?>
<svg xmlns="http://www.w3.org/2000/svg" xmlns:xlink="http://www.w3.org/1999/xlink" width="24" height="22.5" viewBox="0 0 24 22.5" version="1.1">
<g id="surface1">
<path style=" stroke:none;fill-rule:nonzero;fill:rgb(100%,100%,100%);fill-opacity:1;" d="M 4.886719 21.84375 L 19.101562 21.84375 C 20.328125 21.84375 21.246094 21.539062 21.855469 20.929688 C 22.472656 20.328125 22.78125 19.421875 22.78125 18.210938 L 22.78125 3.902344 C 22.78125 2.691406 22.472656 1.785156 21.855469 1.183594 C 21.246094 0.574219 20.328125 0.269531 19.101562 0.269531 L 4.886719 0.269531 C 3.660156 0.269531 2.738281 0.574219 2.121094 1.183594 C 1.511719 1.785156 1.207031 2.691406 1.207031 3.902344 L 1.207031 18.210938 C 1.207031 19.421875 1.511719 20.328125 2.121094 20.929688 C 2.738281 21.539062 3.660156 21.84375 4.886719 21.84375 Z M 6.339844 6.84375 L 9.375 3.902344 C 9.546875 3.730469 9.738281 3.644531 9.949219 3.644531 C 10.175781 3.644531 10.359375 3.71875 10.5 3.867188 C 10.648438 4.007812 10.722656 4.191406 10.722656 4.417969 C 10.722656 4.644531 10.644531 4.832031 10.488281 4.980469 L 9.210938 6.222656 L 8.730469 6.65625 L 9.292969 6.644531 L 17.109375 6.644531 C 17.335938 6.644531 17.523438 6.71875 17.671875 6.867188 C 17.820312 7.015625 17.894531 7.203125 17.894531 7.429688 C 17.894531 7.65625 17.820312 7.847656 17.671875 8.003906 C 17.523438 8.152344 17.335938 8.226562 17.109375 8.226562 L 9.28125 8.226562 L 8.71875 8.191406 L 9.210938 8.660156 L 10.488281 9.890625 C 10.644531 10.046875 10.722656 10.234375 10.722656 10.453125 C 10.722656 10.679688 10.648438 10.863281 10.5 11.003906 C 10.359375 11.144531 10.175781 11.214844 9.949219 11.214844 C 9.746094 11.214844 9.554688 11.140625 9.375 10.992188 L 6.339844 8.015625 C 6.183594 7.859375 6.105469 7.664062 6.105469 7.429688 C 6.105469 7.195312 6.183594 7 6.339844 6.84375 Z M 17.636719 15.246094 L 14.613281 18.222656 C 14.425781 18.386719 14.234375 18.46875 14.039062 18.46875 C 13.820312 18.46875 13.636719 18.394531 13.488281 18.246094 C 13.339844 18.097656 13.265625 17.914062 13.265625 17.695312 C 13.265625 17.492188 13.347656 17.304688 13.511719 17.132812 L 14.777344 15.890625 L 15.28125 15.457031 L 14.695312 15.46875 L 6.878906 15.46875 C 6.660156 15.46875 6.476562 15.394531 6.328125 15.246094 C 6.179688 15.097656 6.105469 14.90625 6.105469 14.671875 C 6.105469 14.445312 6.179688 14.257812 6.328125 14.109375 C 6.476562 13.960938 6.660156 13.886719 6.878906 13.886719 L 14.707031 13.886719 L 15.28125 13.921875 L 14.777344 13.453125 L 13.488281 12.222656 C 13.339844 12.066406 13.265625 11.878906 13.265625 11.660156 C 13.265625 11.441406 13.335938 11.261719 13.476562 11.121094 C 13.625 10.972656 13.8125 10.898438 14.039062 10.898438 C 14.257812 10.898438 14.449219 10.976562 14.613281 11.132812 L 17.636719 14.109375 C 17.800781 14.265625 17.882812 14.453125 17.882812 14.671875 C 17.890625 14.890625 17.808594 15.082031 17.636719 15.246094 Z M 17.636719 15.246094 "/>
</g>
</svg>
