<?xml version="1.0" encoding="UTF-8"?>
<svg xmlns="http://www.w3.org/2000/svg" xmlns:xlink="http://www.w3.org/1999/xlink" width="24" height="20" viewBox="0 0 24 20" version="1.1">
<g id="surface1">
<path style=" stroke:none;fill-rule:nonzero;fill:rgb(100%,100%,100%);fill-opacity:1;" d="M 23.699219 9.8125 C 23.699219 9.640625 23.660156 9.453125 23.582031 9.261719 C 23.507812 9.066406 23.367188 8.875 23.167969 8.6875 L 14.949219 1 C 14.671875 0.734375 14.425781 0.546875 14.21875 0.4375 C 14.015625 0.320312 13.792969 0.261719 13.542969 0.261719 C 13.171875 0.261719 12.871094 0.386719 12.636719 0.636719 C 12.40625 0.886719 12.292969 1.183594 12.292969 1.53125 L 12.292969 5.707031 L 3.636719 5.707031 C 2.878906 5.707031 2.289062 5.914062 1.863281 6.324219 C 1.449219 6.734375 1.238281 7.308594 1.238281 8.050781 L 1.238281 11.582031 C 1.238281 12.328125 1.449219 12.902344 1.863281 13.3125 C 2.289062 13.722656 2.878906 13.925781 3.636719 13.925781 L 12.292969 13.925781 L 12.292969 18.144531 C 12.292969 18.5 12.40625 18.792969 12.636719 19.019531 C 12.871094 19.25 13.167969 19.363281 13.519531 19.363281 C 13.769531 19.363281 14.007812 19.308594 14.230469 19.199219 C 14.457031 19.09375 14.699219 18.921875 14.949219 18.6875 L 23.167969 10.925781 C 23.367188 10.738281 23.507812 10.546875 23.582031 10.355469 C 23.660156 10.160156 23.699219 9.980469 23.699219 9.8125 Z M 23.699219 9.8125 "/>
</g>
</svg>
