<?xml version="1.0" encoding="UTF-8"?>
<svg xmlns="http://www.w3.org/2000/svg" xmlns:xlink="http://www.w3.org/1999/xlink" width="24" height="25.5" viewBox="0 0 24 25.5" version="1.1">
<g id="surface1">
<path style=" stroke:none;fill-rule:nonzero;fill:rgb(100%,100%,100%);fill-opacity:1;" d="M 12 24.503906 C 13.632812 24.503906 15.167969 24.191406 16.605469 23.566406 C 18.050781 22.941406 19.324219 22.078125 20.425781 20.976562 C 21.527344 19.875 22.390625 18.605469 23.015625 17.167969 C 23.640625 15.722656 23.953125 14.183594 23.953125 12.550781 C 23.953125 10.917969 23.640625 9.382812 23.015625 7.945312 C 22.390625 6.5 21.527344 5.226562 20.425781 4.125 C 19.324219 3.023438 18.050781 2.160156 16.605469 1.535156 C 15.160156 0.910156 13.621094 0.597656 11.988281 0.597656 C 10.355469 0.597656 8.816406 0.910156 7.371094 1.535156 C 5.933594 2.160156 4.664062 3.023438 3.5625 4.125 C 2.46875 5.226562 1.609375 6.5 0.984375 7.945312 C 0.359375 9.382812 0.046875 10.917969 0.046875 12.550781 C 0.046875 14.183594 0.359375 15.722656 0.984375 17.167969 C 1.609375 18.605469 2.472656 19.875 3.574219 20.976562 C 4.675781 22.078125 5.945312 22.941406 7.382812 23.566406 C 8.828125 24.191406 10.367188 24.503906 12 24.503906 Z M 9.269531 17.542969 C 9.113281 17.542969 8.972656 17.507812 8.847656 17.4375 C 8.722656 17.367188 8.582031 17.261719 8.425781 17.121094 L 3.433594 12.433594 C 3.316406 12.316406 3.234375 12.203125 3.1875 12.09375 C 3.148438 11.976562 3.128906 11.867188 3.128906 11.765625 C 3.128906 11.648438 3.148438 11.535156 3.1875 11.425781 C 3.234375 11.316406 3.316406 11.203125 3.433594 11.085938 L 8.425781 6.421875 C 8.589844 6.265625 8.730469 6.152344 8.847656 6.082031 C 8.964844 6.011719 9.101562 5.976562 9.257812 5.976562 C 9.484375 5.976562 9.664062 6.035156 9.796875 6.152344 C 9.9375 6.269531 10.007812 6.402344 10.007812 6.550781 L 10.007812 6.84375 L 6.035156 10.488281 C 5.839844 10.667969 5.691406 10.867188 5.589844 11.085938 C 5.488281 11.304688 5.4375 11.53125 5.4375 11.765625 C 5.4375 12 5.488281 12.226562 5.589844 12.445312 C 5.691406 12.664062 5.839844 12.859375 6.035156 13.03125 L 10.007812 16.699219 L 10.007812 16.992188 C 10.007812 17.132812 9.941406 17.261719 9.808594 17.378906 C 9.675781 17.488281 9.496094 17.542969 9.269531 17.542969 Z M 12.457031 17.542969 C 12.316406 17.542969 12.175781 17.507812 12.035156 17.4375 C 11.902344 17.367188 11.761719 17.261719 11.613281 17.121094 L 6.632812 12.433594 C 6.507812 12.308594 6.421875 12.191406 6.375 12.082031 C 6.335938 11.972656 6.316406 11.867188 6.316406 11.765625 C 6.316406 11.648438 6.335938 11.539062 6.375 11.4375 C 6.421875 11.328125 6.507812 11.210938 6.632812 11.085938 L 11.613281 6.421875 C 11.777344 6.273438 11.917969 6.164062 12.035156 6.09375 C 12.160156 6.015625 12.296875 5.976562 12.445312 5.976562 C 12.664062 5.976562 12.84375 6.054688 12.984375 6.210938 C 13.125 6.367188 13.195312 6.546875 13.195312 6.75 L 13.195312 9.152344 L 13.382812 9.152344 C 14.890625 9.152344 16.121094 9.457031 17.074219 10.066406 C 18.035156 10.675781 18.742188 11.546875 19.195312 12.679688 C 19.65625 13.804688 19.886719 15.144531 19.886719 16.699219 C 19.886719 16.972656 19.824219 17.183594 19.699219 17.332031 C 19.574219 17.472656 19.425781 17.542969 19.253906 17.542969 C 19.113281 17.542969 18.972656 17.515625 18.832031 17.460938 C 18.699219 17.398438 18.578125 17.269531 18.46875 17.074219 C 17.9375 16.042969 17.261719 15.339844 16.441406 14.964844 C 15.628906 14.582031 14.609375 14.390625 13.382812 14.390625 L 13.195312 14.390625 L 13.195312 16.792969 C 13.195312 17.011719 13.125 17.191406 12.984375 17.332031 C 12.84375 17.472656 12.667969 17.542969 12.457031 17.542969 Z M 12.457031 17.542969 "/>
</g>
</svg>
