<?xml version="1.0" encoding="UTF-8"?>
<svg xmlns="http://www.w3.org/2000/svg" xmlns:xlink="http://www.w3.org/1999/xlink" width="24" height="20" viewBox="0 0 24 20" version="1.1">
<g id="surface1">
<path style=" stroke:none;fill-rule:nonzero;fill:rgb(100%,100%,100%);fill-opacity:1;" d="M 0.292969 9.8125 C 0.292969 9.980469 0.328125 10.160156 0.40625 10.355469 C 0.484375 10.546875 0.621094 10.738281 0.824219 10.925781 L 9.042969 18.6875 C 9.292969 18.921875 9.527344 19.09375 9.75 19.199219 C 9.972656 19.308594 10.210938 19.363281 10.46875 19.363281 C 10.824219 19.363281 11.113281 19.25 11.34375 19.019531 C 11.574219 18.792969 11.6875 18.5 11.6875 18.144531 L 11.6875 13.925781 L 20.355469 13.925781 C 21.109375 13.925781 21.699219 13.722656 22.113281 13.3125 C 22.539062 12.902344 22.75 12.328125 22.75 11.582031 L 22.75 8.050781 C 22.75 7.308594 22.539062 6.734375 22.113281 6.324219 C 21.699219 5.914062 21.109375 5.707031 20.355469 5.707031 L 11.6875 5.707031 L 11.6875 1.53125 C 11.6875 1.183594 11.574219 0.886719 11.34375 0.636719 C 11.113281 0.386719 10.816406 0.261719 10.449219 0.261719 C 10.191406 0.261719 9.960938 0.320312 9.761719 0.4375 C 9.558594 0.546875 9.320312 0.734375 9.042969 1 L 0.824219 8.6875 C 0.621094 8.875 0.484375 9.066406 0.40625 9.261719 C 0.328125 9.453125 0.292969 9.640625 0.292969 9.8125 Z M 0.292969 9.8125 "/>
</g>
</svg>
