<?xml version="1.0" encoding="UTF-8"?>
<svg xmlns="http://www.w3.org/2000/svg" xmlns:xlink="http://www.w3.org/1999/xlink" width="24" height="32" viewBox="0 0 24 32" version="1.1">
<g id="surface1">
<path style=" stroke:none;fill-rule:nonzero;fill:rgb(100%,100%,100%);fill-opacity:1;" d="M 12 31.484375 C 12.40625 31.484375 12.738281 31.355469 13 31.09375 C 13.261719 30.84375 13.390625 30.515625 13.390625 30.109375 L 13.390625 9.53125 L 13.234375 4.875 L 12.34375 5.1875 L 17.953125 11.328125 L 21.515625 14.828125 C 21.640625 14.953125 21.785156 15.046875 21.953125 15.109375 C 22.128906 15.171875 22.3125 15.203125 22.5 15.203125 C 22.886719 15.203125 23.203125 15.074219 23.453125 14.8125 C 23.714844 14.550781 23.84375 14.230469 23.84375 13.84375 C 23.84375 13.46875 23.703125 13.128906 23.421875 12.828125 L 13.046875 2.4375 C 12.902344 2.28125 12.738281 2.167969 12.5625 2.09375 C 12.386719 2.011719 12.199219 1.96875 12 1.96875 C 11.8125 1.96875 11.628906 2.011719 11.453125 2.09375 C 11.277344 2.167969 11.109375 2.28125 10.953125 2.4375 L 0.59375 12.828125 C 0.300781 13.128906 0.15625 13.46875 0.15625 13.84375 C 0.15625 14.230469 0.28125 14.550781 0.53125 14.8125 C 0.792969 15.074219 1.113281 15.203125 1.5 15.203125 C 1.6875 15.203125 1.863281 15.171875 2.03125 15.109375 C 2.207031 15.046875 2.359375 14.953125 2.484375 14.828125 L 6.046875 11.328125 L 11.640625 5.1875 L 10.765625 4.875 L 10.609375 9.53125 L 10.609375 30.109375 C 10.609375 30.515625 10.738281 30.84375 11 31.09375 C 11.261719 31.355469 11.59375 31.484375 12 31.484375 Z M 12 31.484375 "/>
</g>
</svg>
