<?xml version="1.0" encoding="UTF-8"?>
<svg xmlns="http://www.w3.org/2000/svg" xmlns:xlink="http://www.w3.org/1999/xlink" width="24" height="22.5" viewBox="0 0 24 22.5" version="1.1">
<g id="surface1">
<path style=" stroke:none;fill-rule:nonzero;fill:rgb(100%,100%,100%);fill-opacity:1;" d="M 4.886719 21.84375 L 19.101562 21.84375 C 20.328125 21.84375 21.246094 21.539062 21.855469 20.929688 C 22.472656 20.328125 22.78125 19.421875 22.78125 18.210938 L 22.78125 3.902344 C 22.78125 2.691406 22.472656 1.785156 21.855469 1.183594 C 21.246094 0.574219 20.328125 0.269531 19.101562 0.269531 L 4.886719 0.269531 C 3.660156 0.269531 2.738281 0.574219 2.121094 1.183594 C 1.511719 1.785156 1.207031 2.691406 1.207031 3.902344 L 1.207031 18.210938 C 1.207031 19.421875 1.511719 20.328125 2.121094 20.929688 C 2.738281 21.539062 3.660156 21.84375 4.886719 21.84375 Z M 4.910156 19.957031 C 4.324219 19.957031 3.875 19.804688 3.5625 19.5 C 3.25 19.1875 3.09375 18.726562 3.09375 18.117188 L 3.09375 3.996094 C 3.09375 3.386719 3.25 2.929688 3.5625 2.625 C 3.875 2.3125 4.324219 2.15625 4.910156 2.15625 L 19.078125 2.15625 C 19.65625 2.15625 20.101562 2.3125 20.414062 2.625 C 20.734375 2.929688 20.894531 3.386719 20.894531 3.996094 L 20.894531 18.117188 C 20.894531 18.726562 20.734375 19.1875 20.414062 19.5 C 20.101562 19.804688 19.65625 19.957031 19.078125 19.957031 Z M 7.277344 11.683594 L 13.957031 15.621094 C 14.230469 15.785156 14.492188 15.816406 14.742188 15.714844 C 15 15.605469 15.128906 15.40625 15.128906 15.117188 L 15.128906 6.972656 C 15.128906 6.691406 14.996094 6.5 14.730469 6.398438 C 14.464844 6.296875 14.207031 6.320312 13.957031 6.46875 L 7.277344 10.429688 C 7.035156 10.5625 6.914062 10.769531 6.914062 11.050781 C 6.914062 11.324219 7.035156 11.535156 7.277344 11.683594 Z M 7.277344 11.683594 "/>
</g>
</svg>
