<svg width="22" height="15" viewBox="0 0 22 15" fill="none" xmlns="http://www.w3.org/2000/svg">
<path d="M7.6875 14.6328C7.85938 14.6328 8 14.5911 8.10938 14.5078C8.21875 14.4245 8.29167 14.3047 8.32812 14.1484C8.60938 13.2786 8.95052 12.5859 9.35156 12.0703C9.75781 11.5547 10.237 11.1849 10.7891 10.9609C11.3464 10.7318 11.9948 10.6172 12.7344 10.6172L13.0156 10.625V13.6094C13.0156 13.875 13.1016 14.0938 13.2734 14.2656C13.4453 14.4375 13.6641 14.5234 13.9297 14.5234C14.1224 14.5234 14.3021 14.4818 14.4688 14.3984C14.6354 14.3151 14.8125 14.1875 15 14.0156L21.1719 8.19531C21.3177 8.05469 21.4193 7.91146 21.4766 7.76562C21.5339 7.61979 21.5625 7.48438 21.5625 7.35938C21.5625 7.22396 21.5339 7.08594 21.4766 6.94531C21.4193 6.79948 21.3177 6.65625 21.1719 6.51562L15 0.75C14.7917 0.552083 14.612 0.408854 14.4609 0.320312C14.3099 0.231771 14.138 0.1875 13.9453 0.1875C13.6745 0.1875 13.4505 0.283854 13.2734 0.476562C13.1016 0.664062 13.0156 0.888021 13.0156 1.14844V4.10156H12.7891C11.9714 4.10156 11.2083 4.26302 10.5 4.58594C9.79167 4.90885 9.1901 5.39583 8.69531 6.04688C8.20573 6.69271 7.88021 7.5026 7.71875 8.47656H7.63281C7.45052 7.39844 7.10677 6.54167 6.60156 5.90625C6.10156 5.26562 5.51302 4.80469 4.83594 4.52344C4.16406 4.24219 3.47656 4.10156 2.77344 4.10156C2.7526 4.10156 2.70833 4.10156 2.64062 4.10156C2.57812 4.10156 2.47656 4.10156 2.33594 4.10156C1.79948 4.10156 1.41406 4.21875 1.17969 4.45312C0.945312 4.68229 0.828125 5.08854 0.828125 5.67188V9.40625C0.828125 9.84896 0.940104 10.1693 1.16406 10.3672C1.39323 10.5651 1.76042 10.6641 2.26562 10.6641C2.38542 10.6641 2.5 10.6641 2.60938 10.6641C2.71875 10.6641 2.83333 10.6641 2.95312 10.6641C3.66667 10.6641 4.29427 10.8125 4.83594 11.1094C5.38281 11.401 5.84115 11.8099 6.21094 12.3359C6.58594 12.8568 6.86719 13.4583 7.05469 14.1406C7.09115 14.3021 7.16146 14.4245 7.26562 14.5078C7.36979 14.5911 7.51042 14.6328 7.6875 14.6328ZM7.27344 12.3906C6.98177 11.651 6.61458 11.0677 6.17188 10.6406C5.73438 10.2135 5.23438 9.90885 4.67188 9.72656C4.11458 9.53906 3.51042 9.44271 2.85938 9.4375C2.78125 9.4375 2.70052 9.4375 2.61719 9.4375C2.53906 9.4375 2.46354 9.4375 2.39062 9.4375C2.1875 9.4375 2.08594 9.32292 2.08594 9.09375V5.67188C2.08594 5.4375 2.19271 5.32031 2.40625 5.32031C2.48438 5.32031 2.55729 5.32031 2.625 5.32031C2.69271 5.32031 2.76562 5.32031 2.84375 5.32031C3.43229 5.33073 3.98958 5.45573 4.51562 5.69531C5.04688 5.92969 5.51823 6.31771 5.92969 6.85938C6.34115 7.39583 6.67188 8.11719 6.92188 9.02344C7.17708 9.92448 7.32292 11.0469 7.35938 12.3906H7.27344ZM14.3828 12.8438C14.3099 12.8438 14.2734 12.8047 14.2734 12.7266V9.70312C14.2734 9.53125 14.1849 9.44531 14.0078 9.44531L12.6953 9.4375C11.9349 9.4375 11.2604 9.54427 10.6719 9.75781C10.0833 9.96615 9.57552 10.2891 9.14844 10.7266C8.72135 11.1589 8.375 11.7135 8.10938 12.3906H8.02344C8.0651 10.7969 8.28125 9.47396 8.67188 8.42188C9.0625 7.36979 9.60677 6.58333 10.3047 6.0625C11.0078 5.54167 11.849 5.28125 12.8281 5.28125H14.0078C14.1849 5.28125 14.2734 5.19531 14.2734 5.02344V1.92188C14.2734 1.84896 14.3099 1.8125 14.3828 1.8125C14.4089 1.8125 14.4323 1.82031 14.4531 1.83594C14.474 1.84635 14.4948 1.85938 14.5156 1.875L20.0781 7.21094C20.1354 7.26302 20.1641 7.3125 20.1641 7.35938C20.1641 7.38021 20.1562 7.40365 20.1406 7.42969C20.1302 7.45052 20.1094 7.47656 20.0781 7.50781L14.5156 12.7734C14.4688 12.8203 14.4245 12.8438 14.3828 12.8438Z" fill="white"/>
</svg>
