<svg width="16" height="16" viewBox="0 0 16 16" fill="none" xmlns="http://www.w3.org/2000/svg">
<path d="M0.617188 10.4531C0.617188 11.4531 0.828125 12.3255 1.25 13.0703C1.67708 13.8203 2.29688 14.401 3.10938 14.8125C3.92188 15.2292 4.91146 15.4375 6.07812 15.4375H7.88281C8.09635 15.4375 8.26823 15.3698 8.39844 15.2344C8.52865 15.099 8.59375 14.9349 8.59375 14.7422C8.59375 14.5495 8.52865 14.3854 8.39844 14.25C8.26823 14.1146 8.09635 14.0469 7.88281 14.0469H6.08594C5.19531 14.0469 4.44792 13.8854 3.84375 13.5625C3.23958 13.2448 2.78125 12.8099 2.46875 12.2578C2.16146 11.7057 2.00781 11.0781 2.00781 10.375C2.00781 9.67708 2.16146 9.0599 2.46875 8.52344C2.78125 7.98177 3.23958 7.5599 3.84375 7.25781C4.44792 6.95573 5.19531 6.80469 6.08594 6.80469H11.4453L13.875 6.69531L13.7344 6.33594L11.7969 7.99219L9.54688 10.1875C9.48438 10.25 9.4375 10.3203 9.40625 10.3984C9.375 10.4766 9.35938 10.5651 9.35938 10.6641C9.35938 10.8672 9.42188 11.0339 9.54688 11.1641C9.67188 11.2891 9.83854 11.3516 10.0469 11.3516C10.2448 11.3516 10.4141 11.2786 10.5547 11.1328L15.1484 6.625C15.2266 6.55208 15.2839 6.47135 15.3203 6.38281C15.362 6.29427 15.3828 6.20312 15.3828 6.10938C15.3828 6.01042 15.362 5.91667 15.3203 5.82812C15.2839 5.73958 15.2266 5.65885 15.1484 5.58594L10.5547 1.07812C10.4141 0.932292 10.2448 0.859375 10.0469 0.859375C9.83854 0.859375 9.67188 0.924479 9.54688 1.05469C9.42188 1.17969 9.35938 1.34375 9.35938 1.54688C9.35938 1.64583 9.375 1.73438 9.40625 1.8125C9.4375 1.89062 9.48438 1.96094 9.54688 2.02344L11.7969 4.22656L13.7344 5.875L13.875 5.51562L11.4453 5.40625H6.20312C5.01562 5.40625 4.00521 5.61979 3.17188 6.04688C2.33854 6.47396 1.70312 7.06771 1.26562 7.82812C0.833333 8.58333 0.617188 9.45833 0.617188 10.4531Z" fill="white"/>
</svg>
