<svg xmlns="http://www.w3.org/2000/svg" width="24" height="24"><path style="stroke:none;fill-rule:nonzero;fill:#fff;fill-opacity:1" d="M22.875 11.742c0-.367-.117-.691-.352-.969l-7.77-9.53a1.195 1.195 0 0 0-.386-.333.767.767 0 0 0-.398-.101c-.274-.008-.535.12-.727.359-.195.23-.3.547-.293.879 0 .172.024.344.07.504.047.152.118.293.211.406l2.625 3.29 4.653 5.218.234-.719-3.773-.289H2.145a.929.929 0 0 0-.75.36c-.188.242-.282.546-.282.925 0 .375.094.68.282.922.195.238.445.36.75.36h14.824l3.773-.29-.234-.707-4.653 5.207-2.625 3.29a1.172 1.172 0 0 0-.21.417c-.047.157-.07.317-.07.493 0 .355.097.648.292.878.192.239.453.372.727.36.281 0 .535-.133.761-.402l7.793-9.563c.235-.277.352-.602.352-.965Zm0 0"/></svg>