<svg xmlns="http://www.w3.org/2000/svg" width="24" height="24"><path style="stroke:none;fill-rule:nonzero;fill:#fff;fill-opacity:1" d="M12 23.05c1.633 0 3.168-.292 4.605-.882a12.22 12.22 0 0 0 3.82-2.438 11.467 11.467 0 0 0 2.59-3.582c.626-1.363.938-2.808.938-4.347a10.2 10.2 0 0 0-.937-4.332 11.53 11.53 0 0 0-2.59-3.598 12.361 12.361 0 0 0-3.82-2.437A12.166 12.166 0 0 0 11.987.55c-1.633 0-3.172.293-4.617.883A12.307 12.307 0 0 0 3.562 3.87 11.523 11.523 0 0 0 .985 7.465 10.2 10.2 0 0 0 .047 11.8c0 1.539.312 2.984.937 4.347a11.467 11.467 0 0 0 2.59 3.582 12.236 12.236 0 0 0 3.809 2.438c1.445.59 2.984.883 4.617.883Zm3.785-8.437c-.273 0-.492-.078-.656-.23-.164-.164-.246-.383-.246-.664v-1.95l.176-1.765-1.735 1.742-4.43 4.18a1.14 1.14 0 0 1-.304.199c-.117.043-.25.066-.399.066a.905.905 0 0 1-.632-.23c-.164-.156-.247-.367-.247-.629 0-.223.098-.426.293-.605l4.442-4.172 1.875-1.653-1.793.176h-2.18c-.289 0-.523-.078-.703-.234a.772.772 0 0 1-.258-.606.759.759 0 0 1 .258-.605c.172-.156.399-.23.68-.23h5.73c.313 0 .559.07.739.218.18.149.27.39.27.727v5.351c0 .274-.083.492-.247.66-.156.172-.367.254-.633.254Zm0 0"/></svg>