<svg xmlns="http://www.w3.org/2000/svg" width="24" height="24"><path style="stroke:none;fill-rule:nonzero;fill:#fff;fill-opacity:1" d="M12 23.05c1.633 0 3.168-.292 4.605-.882a12.22 12.22 0 0 0 3.82-2.438 11.467 11.467 0 0 0 2.59-3.582c.626-1.363.938-2.808.938-4.347a10.2 10.2 0 0 0-.937-4.332 11.53 11.53 0 0 0-2.59-3.598 12.361 12.361 0 0 0-3.82-2.437A12.166 12.166 0 0 0 11.987.55c-1.633 0-3.172.293-4.617.883A12.307 12.307 0 0 0 3.562 3.87 11.523 11.523 0 0 0 .985 7.465 10.2 10.2 0 0 0 .047 11.8c0 1.539.312 2.984.937 4.347a11.467 11.467 0 0 0 2.59 3.582 12.236 12.236 0 0 0 3.809 2.438c1.445.59 2.984.883 4.617.883Zm0-1.874a10.222 10.222 0 0 1-7.055-2.734 9.548 9.548 0 0 1-2.133-2.989 8.83 8.83 0 0 1-.761-3.652c0-1.301.254-2.52.761-3.649A9.52 9.52 0 0 1 4.946 5.16 9.82 9.82 0 0 1 8.11 3.156c1.204-.488 2.496-.73 3.88-.73 1.382 0 2.675.242 3.878.73a9.701 9.701 0 0 1 3.176 2.004 9.432 9.432 0 0 1 2.145 2.992 8.685 8.685 0 0 1 .773 3.649c0 1.3-.258 2.52-.773 3.652a9.22 9.22 0 0 1-2.133 2.988A10.222 10.222 0 0 1 12 21.176Zm6.035-8.028c0-.89-.207-1.652-.62-2.285a3.984 3.984 0 0 0-1.7-1.465c-.719-.347-1.535-.52-2.45-.52H9.774l-1.394.044.926-.684 1.218-1.101a.752.752 0 0 0 .258-.574.747.747 0 0 0-.246-.575.804.804 0 0 0-.586-.23.83.83 0 0 0-.61.242L6.235 8.977a.874.874 0 0 0-.316.668c0 .253.113.5.316.668l3.118 3.011c.16.153.382.235.609.23a.793.793 0 0 0 .574-.23.747.747 0 0 0 .246-.574.741.741 0 0 0-.246-.574L9.07 10.852l-.691-.473 1.394.043h3.493c.867 0 1.59.226 2.168.683.586.45.879 1.102.879 1.954 0 .867-.29 1.554-.868 2.062-.57.5-1.3.75-2.191.75h-1.629a.955.955 0 0 0-.621.2c-.172.128-.258.324-.258.581 0 .258.086.457.258.598.172.129.387.2.644.2h1.606c.914 0 1.73-.177 2.45-.52a4.143 4.143 0 0 0 1.71-1.489c.414-.648.621-1.414.621-2.296Zm0 0"/></svg>