<svg xmlns="http://www.w3.org/2000/svg" width="24" height="24"><path style="stroke:none;fill-rule:nonzero;fill:#fff;fill-opacity:1" d="M4.887 23.3h14.215c1.226 0 2.144-.323 2.753-.976.618-.64.926-1.605.926-2.898V4.164c0-1.293-.308-2.258-.926-2.898-.609-.653-1.527-.977-2.753-.977H4.887c-1.227 0-2.149.324-2.766.977-.61.64-.914 1.605-.914 2.898v15.262c0 1.293.305 2.258.914 2.902.617.649 1.54.973 2.766.973ZM5.8 11.75c0-.25.117-.5.351-.75l4.078-4.363a.816.816 0 0 1 .633-.262c.25 0 .457.09.621.273a.933.933 0 0 1 .258.665c0 .25-.094.48-.281.687l-1.5 1.586-1.453 1.3 2.555-.109h6.269c.266 0 .484.09.656.274a.978.978 0 0 1 .258.699.983.983 0 0 1-.258.7.875.875 0 0 1-.656.277h-6.27l-2.566-.114 1.465 1.313 1.5 1.574a.964.964 0 0 1 .281.7.96.96 0 0 1-.258.675.8.8 0 0 1-.62.273.798.798 0 0 1-.634-.273l-4.078-4.363c-.234-.25-.351-.504-.351-.762Zm0 0"/></svg>