<svg width="121" height="120" viewBox="0 0 121 120" fill="none" xmlns="http://www.w3.org/2000/svg">
<path d="M0.9375 33.875C0.9375 35.7083 1.47917 37.0833 2.5625 38C3.64583 38.875 4.91667 39.2708 6.375 39.1875C7.83333 39.0625 9.14583 38.3958 10.3125 37.1875L38 9.5C39.2083 8.29167 39.8542 6.95833 39.9375 5.5C40.0625 4.04167 39.6667 2.79167 38.75 1.75C37.875 0.666667 36.5208 0.125 34.6875 0.125H6.625C4.875 0.125 3.47917 0.666667 2.4375 1.75C1.4375 2.79167 0.9375 4.16667 0.9375 5.875V33.875ZM17.0625 24.125L96.25 103.375L104.188 95.5625L25 16.25L17.0625 24.125ZM120.375 85.8125C120.375 83.9792 119.833 82.625 118.75 81.75C117.667 80.8333 116.396 80.4375 114.938 80.5625C113.479 80.6458 112.146 81.2708 110.938 82.4375L83.25 110.125C82.0833 111.333 81.4375 112.667 81.3125 114.125C81.2292 115.583 81.625 116.854 82.5 117.938C83.4167 119.021 84.7917 119.562 86.625 119.562H114.688C116.438 119.562 117.812 119.021 118.812 117.938C119.854 116.854 120.375 115.479 120.375 113.812V85.8125ZM120.375 33.875V5.875C120.375 4.16667 119.854 2.79167 118.812 1.75C117.812 0.666667 116.438 0.125 114.688 0.125H86.625C84.7917 0.125 83.4167 0.666667 82.5 1.75C81.625 2.79167 81.2292 4.04167 81.3125 5.5C81.4375 6.95833 82.0833 8.29167 83.25 9.5L110.938 37.1875C112.146 38.3958 113.479 39.0625 114.938 39.1875C116.396 39.2708 117.667 38.875 118.75 38C119.833 37.0833 120.375 35.7083 120.375 33.875ZM25 103.375L104.25 24.125L96.3125 16.25L17.0625 95.5L25 103.375ZM0.9375 85.8125V113.812C0.9375 115.479 1.4375 116.854 2.4375 117.938C3.47917 119.021 4.875 119.562 6.625 119.562H34.6875C36.5208 119.562 37.875 119.021 38.75 117.938C39.6667 116.854 40.0625 115.583 39.9375 114.125C39.8542 112.667 39.2083 111.333 38 110.125L10.3125 82.4375C9.14583 81.2708 7.83333 80.6458 6.375 80.5625C4.91667 80.4375 3.64583 80.8333 2.5625 81.75C1.47917 82.625 0.9375 83.9792 0.9375 85.8125Z" fill="white"/>
</svg>
