<svg xmlns="http://www.w3.org/2000/svg" width="24" height="24"><path style="stroke:none;fill-rule:nonzero;fill:#fff;fill-opacity:1" d="m1.5 12.523 3 2.993c.21.207.43.304.656.28a.802.802 0 0 0 .57-.304c.16-.191.243-.441.235-.699v-2.094h5.203v5.5H9.168a.92.92 0 0 0-.664.246.854.854 0 0 0-.293.594c-.016.242.074.473.273.688l2.84 3.16c.2.222.43.328.684.324a.91.91 0 0 0 .676-.336l2.832-3.148c.199-.215.289-.446.273-.688a.817.817 0 0 0-.293-.594.92.92 0 0 0-.664-.246h-1.988v-5.5h5.195v2.094c0 .281.078.516.234.7.141.179.348.288.57.304.227.023.446-.074.657-.281l2.992-2.985c.2-.203.301-.437.309-.71a.967.967 0 0 0-.301-.72l-3-2.988c-.21-.21-.43-.308-.656-.289a.82.82 0 0 0-.57.309c-.157.18-.235.414-.235.699v2.102h-5.195V5.43h1.988c.27 0 .488-.086.664-.25a.847.847 0 0 0 .293-.598c.016-.238-.074-.465-.273-.684l-2.84-3.16c-.2-.218-.43-.332-.684-.324-.25.004-.476.121-.676.336L8.484 3.898c-.199.22-.289.446-.273.684.02.23.125.45.293.598a.92.92 0 0 0 .664.246h1.996v5.508H5.961V8.832c0-.281-.078-.516-.234-.7a.816.816 0 0 0-.57-.304c-.227-.023-.446.074-.657.285l-2.992 2.98c-.2.204-.301.442-.309.708a.974.974 0 0 0 .301.722Zm0 0"/></svg>