<svg xmlns="http://www.w3.org/2000/svg" width="24" height="24"><path style="stroke:none;fill-rule:nonzero;fill:#fff;fill-opacity:1" d="M3.074 23.45h10.07c.942 0 1.68-.4 2.211-1.196.532-.8.797-1.922.797-3.371V4.586c0-1.441-.25-2.563-.75-3.36-.5-.8-1.222-1.195-2.164-1.195H3.074c-.898 0-1.629.395-2.183 1.196-.551.8-.825 1.918-.825 3.359v14.297c0 1.449.266 2.57.797 3.37.532.802 1.27 1.196 2.211 1.196Zm14.356-7.454 3.41 4.547c.164.207.332.383.508.516.18.125.355.187.523.187.363 0 .652-.183.871-.55.227-.372.34-.856.34-1.454v-15c0-.597-.113-1.082-.34-1.441-.219-.38-.508-.567-.87-.567a.923.923 0 0 0-.524.188 2.404 2.404 0 0 0-.508.523L17.43 7.47ZM11.336 5.758c.191-.012.375.097.516.3.14.192.214.438.214.731a1.57 1.57 0 0 1-.246.844l-3.945 6.082-1.633 2.293 2.766-.258h1.312c.196 0 .36.098.5.29.133.183.207.448.203.722 0 .304-.066.57-.203.793-.129.21-.312.324-.5.316H4.941c-.261 0-.457-.094-.582-.285-.125-.207-.187-.508-.187-.898V8.425c0-.301.07-.555.207-.75.137-.211.324-.324.516-.32.187 0 .343.109.468.332.121.199.188.46.188.738v1.988l-.16 4.254 1.492-2.492 3.945-6.09a.812.812 0 0 1 .227-.246.446.446 0 0 1 .28-.082Zm0 0"/></svg>