<svg xmlns="http://www.w3.org/2000/svg" width="24" height="24"><path style="stroke:none;fill-rule:nonzero;fill:#fff;fill-opacity:1" d="M1.113 11.742c0 .363.121.688.364.965l7.78 9.563c.227.27.481.402.763.402.289 0 .53-.121.726-.36.2-.222.313-.546.305-.878 0-.168-.028-.336-.082-.493a1.172 1.172 0 0 0-.211-.418l-2.625-3.289-4.64-5.203-.247.703 3.774.29h14.824c.304 0 .55-.122.738-.36.195-.242.293-.547.293-.922 0-.379-.098-.683-.293-.926a.896.896 0 0 0-.738-.359H7.02l-3.774.29.246.718 4.64-5.219 2.626-3.289c.094-.113.164-.254.21-.406.055-.16.083-.332.083-.504a1.289 1.289 0 0 0-.305-.879c-.191-.238-.453-.367-.726-.36a.91.91 0 0 0-.41.102c-.141.078-.27.192-.376.332l-7.757 9.531a1.43 1.43 0 0 0-.364.97Zm0 0"/></svg>