<svg xmlns="http://www.w3.org/2000/svg" width="24" height="24"><path style="stroke:none;fill-rule:nonzero;fill:#fff;fill-opacity:1" d="M12 23.05c1.633 0 3.168-.292 4.605-.882a12.22 12.22 0 0 0 3.82-2.438 11.467 11.467 0 0 0 2.59-3.582c.626-1.363.938-2.808.938-4.347a10.2 10.2 0 0 0-.937-4.332 11.53 11.53 0 0 0-2.59-3.598 12.361 12.361 0 0 0-3.82-2.437A12.166 12.166 0 0 0 11.987.55c-1.633 0-3.172.293-4.617.883A12.307 12.307 0 0 0 3.562 3.87 11.523 11.523 0 0 0 .985 7.465 10.2 10.2 0 0 0 .047 11.8c0 1.539.312 2.984.937 4.347a11.467 11.467 0 0 0 2.59 3.582 12.236 12.236 0 0 0 3.809 2.438c1.445.59 2.984.883 4.617.883ZM8.191 8.98c.274 0 .493.079.657.243.164.152.246.37.246.648v1.953l-.176 1.766 1.746-1.742 4.418-4.18a.847.847 0 0 1 .305-.188.93.93 0 0 1 .398-.078c.266 0 .477.078.633.23.164.157.246.364.246.63 0 .222-.098.422-.293.605l-4.43 4.172-1.886 1.652 1.793-.175h2.18c.288 0 .519.078.69.23.18.156.27.36.27.61a.79.79 0 0 1-.258.605c-.171.152-.398.23-.68.23H8.32c-.312 0-.558-.074-.738-.218-.18-.149-.27-.391-.27-.73V9.894c0-.274.079-.493.235-.66a.834.834 0 0 1 .644-.255Zm0 0"/></svg>