<svg width="16" height="17" viewBox="0 0 16 17" fill="none" xmlns="http://www.w3.org/2000/svg">
<path d="M8 16.3281C9.08854 16.3281 10.112 16.1198 11.0703 15.7031C12.0339 15.2865 12.8828 14.7109 13.6172 13.9766C14.3516 13.2422 14.9271 12.3958 15.3438 11.4375C15.7604 10.474 15.9688 9.44792 15.9688 8.35938C15.9688 7.27083 15.7604 6.2474 15.3438 5.28906C14.9271 4.32552 14.3516 3.47656 13.6172 2.74219C12.8828 2.00781 12.0339 1.43229 11.0703 1.01562C10.1068 0.598958 9.08073 0.390625 7.99219 0.390625C6.90365 0.390625 5.8776 0.598958 4.91406 1.01562C3.95573 1.43229 3.10938 2.00781 2.375 2.74219C1.64583 3.47656 1.07292 4.32552 0.65625 5.28906C0.239583 6.2474 0.03125 7.27083 0.03125 8.35938C0.03125 9.44792 0.239583 10.474 0.65625 11.4375C1.07292 12.3958 1.64844 13.2422 2.38281 13.9766C3.11719 14.7109 3.96354 15.2865 4.92188 15.7031C5.88542 16.1198 6.91146 16.3281 8 16.3281ZM8 15C7.07812 15 6.21615 14.8281 5.41406 14.4844C4.61198 14.1406 3.90625 13.6667 3.29688 13.0625C2.69271 12.4531 2.21875 11.7474 1.875 10.9453C1.53646 10.1432 1.36719 9.28125 1.36719 8.35938C1.36719 7.4375 1.53646 6.57552 1.875 5.77344C2.21875 4.97135 2.69271 4.26562 3.29688 3.65625C3.90104 3.04688 4.60417 2.57292 5.40625 2.23438C6.20833 1.89062 7.07031 1.71875 7.99219 1.71875C8.91406 1.71875 9.77604 1.89062 10.5781 2.23438C11.3854 2.57292 12.0911 3.04688 12.6953 3.65625C13.3047 4.26562 13.7812 4.97135 14.125 5.77344C14.4688 6.57552 14.6406 7.4375 14.6406 8.35938C14.6406 9.28125 14.4688 10.1432 14.125 10.9453C13.7865 11.7474 13.3125 12.4531 12.7031 13.0625C12.0938 13.6667 11.388 14.1406 10.5859 14.4844C9.78385 14.8281 8.92188 15 8 15ZM4.625 8.35156C4.77604 8.35156 4.90365 8.29948 5.00781 8.19531C5.11719 8.08594 5.17188 7.95312 5.17188 7.79688V7.42188L5.09375 6.17969L6.78125 7.96094C6.89583 8.08073 7.03385 8.14062 7.19531 8.14062C7.35677 8.14062 7.49479 8.08333 7.60938 7.96875C7.72396 7.85417 7.77865 7.71615 7.77344 7.55469C7.77344 7.38802 7.71615 7.25 7.60156 7.14062L5.84375 5.45312L7.03906 5.53125L7.42188 5.53906C7.57292 5.53906 7.70052 5.48438 7.80469 5.375C7.91406 5.26562 7.96875 5.13542 7.96875 4.98438C7.96875 4.83333 7.91406 4.70573 7.80469 4.60156C7.70052 4.49219 7.57292 4.4375 7.42188 4.4375H4.71094C4.50781 4.4375 4.34896 4.48698 4.23438 4.58594C4.125 4.6849 4.07031 4.84896 4.07031 5.07812V7.79688C4.07031 7.95312 4.1224 8.08594 4.22656 8.19531C4.33594 8.29948 4.46875 8.35156 4.625 8.35156ZM8.57031 12.2891H11.2734C11.4766 12.2891 11.6354 12.2396 11.75 12.1406C11.8646 12.0417 11.9219 11.8776 11.9219 11.6484V8.92969C11.9219 8.77344 11.8672 8.64323 11.7578 8.53906C11.6536 8.42969 11.5234 8.375 11.3672 8.375C11.2161 8.375 11.0859 8.42969 10.9766 8.53906C10.8724 8.64323 10.8203 8.77344 10.8203 8.92969V9.30469L10.8984 10.5469L9.21094 8.76562C9.09635 8.64583 8.95833 8.58594 8.79688 8.58594C8.63542 8.58594 8.4974 8.64323 8.38281 8.75781C8.26823 8.8724 8.21094 9.01302 8.21094 9.17969C8.21615 9.34115 8.27604 9.47656 8.39062 9.58594L10.1484 11.2734L8.95312 11.1953L8.57031 11.1875C8.41927 11.1875 8.28906 11.2422 8.17969 11.3516C8.07031 11.4609 8.01562 11.5911 8.01562 11.7422C8.01562 11.8932 8.07031 12.0234 8.17969 12.1328C8.28906 12.237 8.41927 12.2891 8.57031 12.2891Z" fill="white"/>
</svg>
