<svg width="16" height="15" viewBox="0 0 16 15" fill="none" xmlns="http://www.w3.org/2000/svg">
<path d="M3.25781 14.5625H12.7344C13.5521 14.5625 14.1641 14.3594 14.5703 13.9531C14.9818 13.5521 15.1875 12.9479 15.1875 12.1406V2.60156C15.1875 1.79427 14.9818 1.1901 14.5703 0.789062C14.1641 0.382812 13.5521 0.179688 12.7344 0.179688H3.25781C2.4401 0.179688 1.82552 0.382812 1.41406 0.789062C1.00781 1.1901 0.804688 1.79427 0.804688 2.60156V12.1406C0.804688 12.9479 1.00781 13.5521 1.41406 13.9531C1.82552 14.3594 2.4401 14.5625 3.25781 14.5625ZM3.86719 7.34375C3.86719 7.1875 3.94531 7.03125 4.10156 6.875L6.82031 4.14844C6.92448 4.03906 7.0651 3.98438 7.24219 3.98438C7.40885 3.98438 7.54688 4.04167 7.65625 4.15625C7.77083 4.26562 7.82812 4.40365 7.82812 4.57031C7.82812 4.72656 7.76562 4.86979 7.64062 5L6.64062 5.99219L5.67188 6.80469L7.375 6.73438H11.5547C11.7318 6.73438 11.8776 6.79167 11.9922 6.90625C12.1068 7.02083 12.1641 7.16667 12.1641 7.34375C12.1641 7.52083 12.1068 7.66667 11.9922 7.78125C11.8776 7.89583 11.7318 7.95312 11.5547 7.95312H7.375L5.66406 7.88281L6.64062 8.70312L7.64062 9.6875C7.76562 9.80729 7.82812 9.95312 7.82812 10.125C7.82812 10.2917 7.77083 10.4323 7.65625 10.5469C7.54688 10.6615 7.40885 10.7188 7.24219 10.7188C7.07031 10.7188 6.92969 10.6615 6.82031 10.5469L4.10156 7.82031C3.94531 7.66406 3.86719 7.50521 3.86719 7.34375Z" fill="white"/>
</svg>
