<?xml version="1.0" encoding="UTF-8"?>
<svg xmlns="http://www.w3.org/2000/svg" xmlns:xlink="http://www.w3.org/1999/xlink" width="24" height="25.5" viewBox="0 0 24 25.5" version="1.1">
<g id="surface1">
<path style=" stroke:none;fill-rule:nonzero;fill:rgb(100%,100%,100%);fill-opacity:1;" d="M 12 24.492188 C 13.632812 24.492188 15.167969 24.179688 16.605469 23.554688 C 18.050781 22.929688 19.324219 22.066406 20.425781 20.964844 C 21.527344 19.863281 22.390625 18.59375 23.015625 17.15625 C 23.640625 15.710938 23.953125 14.171875 23.953125 12.539062 C 23.953125 10.90625 23.640625 9.371094 23.015625 7.933594 C 22.390625 6.488281 21.527344 5.214844 20.425781 4.113281 C 19.324219 3.011719 18.050781 2.148438 16.605469 1.523438 C 15.160156 0.898438 13.621094 0.585938 11.988281 0.585938 C 10.355469 0.585938 8.816406 0.898438 7.371094 1.523438 C 5.933594 2.148438 4.664062 3.011719 3.5625 4.113281 C 2.46875 5.214844 1.609375 6.488281 0.984375 7.933594 C 0.359375 9.371094 0.046875 10.90625 0.046875 12.539062 C 0.046875 14.171875 0.359375 15.710938 0.984375 17.15625 C 1.609375 18.59375 2.472656 19.863281 3.574219 20.964844 C 4.675781 22.066406 5.945312 22.929688 7.382812 23.554688 C 8.828125 24.179688 10.367188 24.492188 12 24.492188 Z M 8.191406 9.539062 C 8.464844 9.539062 8.683594 9.625 8.847656 9.796875 C 9.011719 9.960938 9.09375 10.191406 9.09375 10.488281 L 9.09375 12.5625 L 8.917969 14.4375 L 10.664062 12.585938 L 15.082031 8.144531 C 15.167969 8.058594 15.269531 7.992188 15.386719 7.945312 C 15.503906 7.890625 15.636719 7.863281 15.785156 7.863281 C 16.050781 7.863281 16.261719 7.945312 16.417969 8.109375 C 16.582031 8.273438 16.664062 8.496094 16.664062 8.777344 C 16.664062 9.011719 16.566406 9.226562 16.371094 9.421875 L 11.941406 13.851562 L 10.054688 15.609375 L 11.847656 15.421875 L 14.027344 15.421875 C 14.316406 15.421875 14.546875 15.503906 14.71875 15.667969 C 14.898438 15.832031 14.988281 16.046875 14.988281 16.3125 C 14.988281 16.578125 14.902344 16.792969 14.730469 16.957031 C 14.558594 17.121094 14.332031 17.203125 14.050781 17.203125 L 8.320312 17.203125 C 8.007812 17.203125 7.761719 17.125 7.582031 16.96875 C 7.402344 16.8125 7.3125 16.554688 7.3125 16.195312 L 7.3125 10.511719 C 7.3125 10.222656 7.390625 9.988281 7.546875 9.808594 C 7.710938 9.628906 7.925781 9.539062 8.191406 9.539062 Z M 8.191406 9.539062 "/>
</g>
</svg>
