<svg width="16" height="17" viewBox="0 0 16 17" fill="none" xmlns="http://www.w3.org/2000/svg">
<path d="M8 16.3281C9.08854 16.3281 10.112 16.1198 11.0703 15.7031C12.0339 15.2865 12.8828 14.7109 13.6172 13.9766C14.3516 13.2422 14.9271 12.3958 15.3438 11.4375C15.7604 10.474 15.9688 9.44792 15.9688 8.35938C15.9688 7.27083 15.7604 6.2474 15.3438 5.28906C14.9271 4.32552 14.3516 3.47656 13.6172 2.74219C12.8828 2.00781 12.0339 1.43229 11.0703 1.01562C10.1068 0.598958 9.08073 0.390625 7.99219 0.390625C6.90365 0.390625 5.8776 0.598958 4.91406 1.01562C3.95573 1.43229 3.10938 2.00781 2.375 2.74219C1.64583 3.47656 1.07292 4.32552 0.65625 5.28906C0.239583 6.2474 0.03125 7.27083 0.03125 8.35938C0.03125 9.44792 0.239583 10.474 0.65625 11.4375C1.07292 12.3958 1.64844 13.2422 2.38281 13.9766C3.11719 14.7109 3.96354 15.2865 4.92188 15.7031C5.88542 16.1198 6.91146 16.3281 8 16.3281ZM5.46094 10.3516C5.28385 10.3516 5.14062 10.2917 5.03125 10.1719C4.92708 10.0521 4.875 9.89583 4.875 9.70312V5.91406C4.875 5.67448 4.9349 5.5026 5.05469 5.39844C5.17448 5.29427 5.33854 5.24219 5.54688 5.24219H9.36719C9.55469 5.24219 9.70573 5.29688 9.82031 5.40625C9.9349 5.51562 9.99219 5.65885 9.99219 5.83594C9.99219 6.01302 9.93229 6.15625 9.8125 6.26562C9.69792 6.375 9.54427 6.42969 9.35156 6.42969H7.89844L6.70312 6.30469L7.96094 7.47656L10.9141 10.4297C11.0443 10.5599 11.1094 10.7031 11.1094 10.8594C11.1094 11.0469 11.0547 11.1953 10.9453 11.3047C10.8411 11.4141 10.7005 11.4688 10.5234 11.4688C10.4245 11.4688 10.3359 11.4531 10.2578 11.4219C10.1797 11.3854 10.112 11.3385 10.0547 11.2812L7.10938 8.32031L5.94531 7.08594L6.0625 8.33594V9.71875C6.0625 9.91667 6.00781 10.0729 5.89844 10.1875C5.78906 10.2969 5.64323 10.3516 5.46094 10.3516Z" fill="white"/>
</svg>
