<svg width="18" height="19" viewBox="0 0 18 19" fill="none" xmlns="http://www.w3.org/2000/svg">
<path d="M1.01562 11.0859L7.27344 17.3438C7.85156 17.9219 8.42708 18.2135 9 18.2188C9.57292 18.224 10.1458 17.9401 10.7188 17.3672L17.0078 11.0703C17.5807 10.5026 17.8646 9.93229 17.8594 9.35938C17.8542 8.78125 17.5625 8.20312 16.9844 7.625L10.7344 1.375C10.1562 0.796875 9.58073 0.505208 9.00781 0.5C8.4349 0.494792 7.86198 0.778646 7.28906 1.35156L0.992188 7.64062C0.419271 8.21875 0.135417 8.79427 0.140625 9.36719C0.145833 9.9349 0.4375 10.5078 1.01562 11.0859ZM5.5 11.6406V9.58594C5.5 8.80469 5.6901 8.22656 6.07031 7.85156C6.45052 7.47135 7.03125 7.28125 7.8125 7.28125H10.0391V6.24219C10.0391 5.98177 10.1458 5.80729 10.3594 5.71875C10.5729 5.625 10.7812 5.65885 10.9844 5.82031L12.8906 7.29688C13.1406 7.49479 13.2656 7.70833 13.2656 7.9375C13.2656 8.16146 13.1406 8.3724 12.8906 8.57031L10.9844 10.0547C10.7812 10.2109 10.5729 10.2448 10.3594 10.1562C10.1458 10.0625 10.0391 9.88281 10.0391 9.61719V8.58594H7.83594C7.49219 8.58594 7.23177 8.67448 7.05469 8.85156C6.88281 9.02344 6.79688 9.28906 6.79688 9.64844V11.6406C6.79688 11.875 6.73958 12.0547 6.625 12.1797C6.51042 12.3047 6.35156 12.3698 6.14844 12.375C5.9401 12.375 5.77865 12.3125 5.66406 12.1875C5.55469 12.0573 5.5 11.875 5.5 11.6406Z" fill="white"/>
</svg>
