<svg width="16" height="17" viewBox="0 0 16 17" fill="none" xmlns="http://www.w3.org/2000/svg">
<path d="M8 16.3281C9.08854 16.3281 10.112 16.1198 11.0703 15.7031C12.0339 15.2865 12.8828 14.7109 13.6172 13.9766C14.3516 13.2422 14.9271 12.3958 15.3438 11.4375C15.7604 10.474 15.9688 9.44792 15.9688 8.35938C15.9688 7.27083 15.7604 6.2474 15.3438 5.28906C14.9271 4.32552 14.3516 3.47656 13.6172 2.74219C12.8828 2.00781 12.0339 1.43229 11.0703 1.01562C10.1068 0.598958 9.08073 0.390625 7.99219 0.390625C6.90365 0.390625 5.8776 0.598958 4.91406 1.01562C3.95573 1.43229 3.10938 2.00781 2.375 2.74219C1.64583 3.47656 1.07292 4.32552 0.65625 5.28906C0.239583 6.2474 0.03125 7.27083 0.03125 8.35938C0.03125 9.44792 0.239583 10.474 0.65625 11.4375C1.07292 12.3958 1.64844 13.2422 2.38281 13.9766C3.11719 14.7109 3.96354 15.2865 4.92188 15.7031C5.88542 16.1198 6.91146 16.3281 8 16.3281ZM12.1406 8.34375C12.1406 8.50521 12.0625 8.66406 11.9062 8.82031L9.19531 11.5469C9.08073 11.6615 8.9375 11.7188 8.76562 11.7188C8.59896 11.7188 8.45833 11.6615 8.34375 11.5469C8.23438 11.4323 8.17969 11.2917 8.17969 11.125C8.17969 10.9531 8.24219 10.8073 8.36719 10.6875L9.36719 9.70312L10.3438 8.88281L8.63281 8.95312H4.45312C4.27604 8.95312 4.13021 8.89583 4.01562 8.78125C3.90104 8.66667 3.84375 8.52083 3.84375 8.34375C3.84375 8.16667 3.90104 8.02083 4.01562 7.90625C4.13021 7.79167 4.27604 7.73438 4.45312 7.73438H8.63281L10.3359 7.80469L9.36719 6.99219L8.36719 6C8.24219 5.86979 8.17969 5.72656 8.17969 5.57031C8.17969 5.40365 8.23438 5.26562 8.34375 5.15625C8.45833 5.04167 8.59896 4.98438 8.76562 4.98438C8.94271 4.98438 9.08594 5.03906 9.19531 5.14844L11.9062 7.875C12.0625 8.03125 12.1406 8.1875 12.1406 8.34375Z" fill="white"/>
</svg>
