<svg width="16" height="15" viewBox="0 0 16 15" fill="none" xmlns="http://www.w3.org/2000/svg">
<path d="M3.25781 14.5625H12.7344C13.5521 14.5625 14.1641 14.3594 14.5703 13.9531C14.9818 13.5521 15.1875 12.9479 15.1875 12.1406V2.60156C15.1875 1.79427 14.9818 1.1901 14.5703 0.789062C14.1641 0.382812 13.5521 0.179688 12.7344 0.179688H3.25781C2.4401 0.179688 1.82552 0.382812 1.41406 0.789062C1.00781 1.1901 0.804688 1.79427 0.804688 2.60156V12.1406C0.804688 12.9479 1.00781 13.5521 1.41406 13.9531C1.82552 14.3594 2.4401 14.5625 3.25781 14.5625ZM3.27344 13.3047C2.88281 13.3047 2.58333 13.2031 2.375 13C2.16667 12.7917 2.0625 12.4844 2.0625 12.0781V2.66406C2.0625 2.25781 2.16667 1.95312 2.375 1.75C2.58333 1.54167 2.88281 1.4375 3.27344 1.4375H12.7188C13.1042 1.4375 13.401 1.54167 13.6094 1.75C13.8229 1.95312 13.9297 2.25781 13.9297 2.66406V12.0781C13.9297 12.4844 13.8229 12.7917 13.6094 13C13.401 13.2031 13.1042 13.3047 12.7188 13.3047H3.27344ZM8.01562 2.5C7.85938 2.5 7.70573 2.57292 7.55469 2.71875L5.29688 4.97656C5.24479 5.02865 5.20312 5.08854 5.17188 5.15625C5.14583 5.22396 5.13281 5.29948 5.13281 5.38281C5.13281 5.54427 5.1875 5.67969 5.29688 5.78906C5.40625 5.89323 5.54167 5.94531 5.70312 5.94531C5.78646 5.94531 5.86198 5.92969 5.92969 5.89844C6.0026 5.86719 6.0651 5.82552 6.11719 5.77344L6.69531 5.17969L7.49219 4.22656L7.42969 5.88281V8.82812L7.49219 10.4844L6.69531 9.53125L6.11719 8.9375C6.0651 8.88542 6.0026 8.84375 5.92969 8.8125C5.86198 8.78125 5.78646 8.76562 5.70312 8.76562C5.54167 8.76562 5.40625 8.82031 5.29688 8.92969C5.1875 9.03385 5.13281 9.16667 5.13281 9.32812C5.13281 9.41146 5.14583 9.48698 5.17188 9.55469C5.20312 9.6224 5.24479 9.68229 5.29688 9.73438L7.55469 11.9922C7.70573 12.138 7.85938 12.2109 8.01562 12.2109C8.16146 12.2109 8.3125 12.138 8.46875 11.9922L10.7344 9.73438C10.7865 9.68229 10.8255 9.6224 10.8516 9.55469C10.8776 9.48698 10.8906 9.41146 10.8906 9.32812C10.8906 9.16667 10.8359 9.03385 10.7266 8.92969C10.6224 8.82031 10.4896 8.76562 10.3281 8.76562C10.2448 8.76562 10.1667 8.78125 10.0938 8.8125C10.026 8.84375 9.96615 8.88542 9.91406 8.9375L9.32812 9.53125L8.53906 10.4766L8.60156 8.82812V5.88281L8.53906 4.23438L9.32812 5.17969L9.91406 5.77344C9.96615 5.82552 10.026 5.86719 10.0938 5.89844C10.1667 5.92969 10.2448 5.94531 10.3281 5.94531C10.4896 5.94531 10.6224 5.89323 10.7266 5.78906C10.8359 5.67969 10.8906 5.54427 10.8906 5.38281C10.8906 5.29948 10.8776 5.22396 10.8516 5.15625C10.8255 5.08854 10.7865 5.02865 10.7344 4.97656L8.46875 2.71875C8.3125 2.57292 8.16146 2.5 8.01562 2.5Z" fill="white"/>
</svg>
