<svg width="128" height="128" viewBox="0 0 128 128" fill="none" xmlns="http://www.w3.org/2000/svg">
<path d="M63.9375 127.938C72.6458 127.938 80.8333 126.271 88.5 122.938C96.2083 119.604 103 115 108.875 109.125C114.75 103.25 119.354 96.4792 122.688 88.8125C126.021 81.1042 127.688 72.8958 127.688 64.1875C127.688 55.4792 126.021 47.2917 122.688 39.625C119.354 31.9167 114.75 25.125 108.875 19.25C103 13.375 96.2083 8.77083 88.5 5.4375C80.7917 2.10417 72.5833 0.4375 63.875 0.4375C55.1667 0.4375 46.9583 2.10417 39.25 5.4375C31.5833 8.77083 24.8125 13.375 18.9375 19.25C13.1042 25.125 8.52083 31.9167 5.1875 39.625C1.85417 47.2917 0.1875 55.4792 0.1875 64.1875C0.1875 72.8958 1.85417 81.1042 5.1875 88.8125C8.52083 96.4792 13.125 103.25 19 109.125C24.875 115 31.6458 119.604 39.3125 122.938C47.0208 126.271 55.2292 127.938 63.9375 127.938ZM95.8125 71.1875C95.8125 76.1458 94.75 80.4792 92.625 84.1875C90.5417 87.8958 87.6042 90.7708 83.8125 92.8125C80.0208 94.8542 75.625 95.875 70.625 95.875H62.1875C60.6875 95.875 59.4792 95.4583 58.5625 94.625C57.6458 93.75 57.1875 92.6042 57.1875 91.1875C57.1875 89.8125 57.625 88.7083 58.5 87.875C59.4167 87 60.6042 86.5625 62.0625 86.5625H70.625C75.3333 86.5625 79.1458 85.1667 82.0625 82.375C85.0208 79.5417 86.5 75.8125 86.5 71.1875C86.5 66.9375 85.0417 63.5 82.125 60.875C79.25 58.25 75.4375 56.9375 70.6875 56.9375H52.4375L46 56.6875L48.9375 58.75L56.5 66.0625C57.5 67.0625 58 68.2083 58 69.5C58 70.8333 57.5417 71.9792 56.625 72.9375C55.75 73.8542 54.6667 74.3125 53.375 74.3125C51.9583 74.3125 50.8125 73.8542 49.9375 72.9375L33.5625 56.1875C32.4375 55.0625 31.875 53.75 31.875 52.25C31.875 50.7917 32.4375 49.4583 33.5625 48.25L49.875 31.6875C50.7917 30.7708 51.9375 30.3125 53.3125 30.3125C54.6458 30.3125 55.75 30.7708 56.625 31.6875C57.5417 32.6042 58 33.75 58 35.125C58 36.4583 57.5 37.5625 56.5 38.4375L50.1875 44.5625L45.9375 47.9375L52.4375 47.625H70.6875C75.6875 47.625 80.0833 48.6042 83.875 50.5625C87.6667 52.5208 90.6042 55.2708 92.6875 58.8125C94.7708 62.3542 95.8125 66.4792 95.8125 71.1875Z" fill="white"/>
</svg>
