<svg width="128" height="128" viewBox="0 0 128 128" fill="none" xmlns="http://www.w3.org/2000/svg">
<path d="M63.9375 127.625C72.6458 127.625 80.8333 125.958 88.5 122.625C96.2083 119.292 103 114.688 108.875 108.812C114.75 102.938 119.354 96.1667 122.688 88.5C126.021 80.7917 127.688 72.5833 127.688 63.875C127.688 55.1667 126.021 46.9792 122.688 39.3125C119.354 31.6042 114.75 24.8125 108.875 18.9375C103 13.0625 96.2083 8.45833 88.5 5.125C80.7917 1.79167 72.5833 0.125 63.875 0.125C55.1667 0.125 46.9583 1.79167 39.25 5.125C31.5833 8.45833 24.8125 13.0625 18.9375 18.9375C13.1042 24.8125 8.52083 31.6042 5.1875 39.3125C1.85417 46.9792 0.1875 55.1667 0.1875 63.875C0.1875 72.5833 1.85417 80.7917 5.1875 88.5C8.52083 96.1667 13.125 102.938 19 108.812C24.875 114.688 31.6458 119.292 39.3125 122.625C47.0208 125.958 55.2292 127.625 63.9375 127.625ZM63.9375 117C56.5625 117 49.6667 115.625 43.25 112.875C36.8333 110.125 31.1875 106.333 26.3125 101.5C21.4792 96.625 17.6875 90.9792 14.9375 84.5625C12.2292 78.1458 10.875 71.25 10.875 63.875C10.875 56.5 12.2292 49.6042 14.9375 43.1875C17.6875 36.7708 21.4792 31.125 26.3125 26.25C31.1458 21.375 36.7708 17.5833 43.1875 14.875C49.6042 12.125 56.5 10.75 63.875 10.75C71.25 10.75 78.1458 12.125 84.5625 14.875C91.0208 17.5833 96.6667 21.375 101.5 26.25C106.375 31.125 110.188 36.7708 112.938 43.1875C115.688 49.6042 117.062 56.5 117.062 63.875C117.062 71.25 115.688 78.1458 112.938 84.5625C110.229 90.9792 106.438 96.625 101.562 101.5C96.6875 106.333 91.0417 110.125 84.625 112.875C78.2083 115.625 71.3125 117 63.9375 117ZM58.0625 90.6875C59.1875 90.6875 60.125 90.3333 60.875 89.625C61.625 88.875 62 87.9375 62 86.8125V73.9375H63C69.5 73.9375 74.8958 74.9375 79.1875 76.9375C83.5208 78.9375 87.1458 82.6875 90.0625 88.1875C90.6458 89.2708 91.2917 89.9583 92 90.25C92.75 90.5417 93.4792 90.6875 94.1875 90.6875C95.1042 90.6875 95.9167 90.3125 96.625 89.5625C97.3333 88.8125 97.6875 87.7083 97.6875 86.25C97.6875 77.9583 96.4583 70.8125 94 64.8125C91.5833 58.7708 87.8125 54.125 82.6875 50.875C77.5625 47.625 71 46 63 46H62V33.1875C62 32.1042 61.625 31.1667 60.875 30.375C60.125 29.5417 59.1667 29.125 58 29.125C57.1667 29.125 56.4375 29.3125 55.8125 29.6875C55.1875 30.0625 54.4375 30.6667 53.5625 31.5L26.9375 56.3125C26.3125 56.8958 25.875 57.5 25.625 58.125C25.375 58.75 25.25 59.3542 25.25 59.9375C25.25 60.4792 25.375 61.0625 25.625 61.6875C25.875 62.3125 26.3125 62.9167 26.9375 63.5L53.5625 88.5C54.3542 89.25 55.0833 89.8125 55.75 90.1875C56.4583 90.5208 57.2292 90.6875 58.0625 90.6875Z" fill="white"/>
</svg>
