<svg xmlns="http://www.w3.org/2000/svg" width="24" height="24"><path style="stroke:none;fill-rule:nonzero;fill:#fff;fill-opacity:1" d="M12 23.063c1.633 0 3.168-.293 4.605-.883a12.29 12.29 0 0 0 3.82-2.438 11.482 11.482 0 0 0 2.59-3.586c.626-1.36.938-2.804.938-4.343 0-1.536-.312-2.981-.937-4.336a11.514 11.514 0 0 0-2.59-3.594 12.22 12.22 0 0 0-3.82-2.438 12.166 12.166 0 0 0-4.618-.883c-1.633 0-3.172.293-4.617.883a12.307 12.307 0 0 0-3.809 2.438A11.523 11.523 0 0 0 .985 7.477a10.187 10.187 0 0 0-.937 4.335c0 1.54.312 2.985.937 4.344a11.438 11.438 0 0 0 2.59 3.586 12.307 12.307 0 0 0 3.809 2.438c1.445.59 2.984.883 4.617.883Zm-1.113-6.34a1.02 1.02 0 0 1-.446-.102 2.002 2.002 0 0 1-.421-.297l-5.145-4.543a.843.843 0 0 1-.328-.652c0-.113.023-.227.07-.332a.95.95 0 0 1 .258-.328l5.145-4.512c.164-.148.308-.254.433-.32a.792.792 0 0 1 .422-.11.728.728 0 0 1 .563.22.71.71 0 0 1 .222.519v2.328h.188c1.547 0 2.812.297 3.797.894.992.586 1.722 1.43 2.19 2.524.477 1.097.716 2.398.716 3.906 0 .262-.07.465-.211.605a.669.669 0 0 1-.469.2c-.14 0-.281-.028-.422-.078-.14-.051-.265-.176-.375-.375-.562-.993-1.262-1.672-2.097-2.04-.829-.367-1.872-.554-3.13-.554h-.187v2.34a.69.69 0 0 1-.226.507.77.77 0 0 1-.547.2Zm0 0"/></svg>