<svg width="161" height="135" viewBox="0 0 161 135" fill="none" xmlns="http://www.w3.org/2000/svg">
<path d="M2.4375 57.3125C1.39583 58.4792 0.895833 59.7083 0.9375 61C0.979167 62.2917 1.4375 63.375 2.3125 64.25C3.22917 65.125 4.45833 65.5625 6 65.5625H16.625V92.9375C16.625 94.3125 17.0833 95.4792 18 96.4375C18.9583 97.3542 20.1458 97.8125 21.5625 97.8125C22.8958 97.8125 24.0208 97.3542 24.9375 96.4375C25.8958 95.4792 26.375 94.3125 26.375 92.9375V65.5625H36.875C38.5417 65.5625 39.8125 65.1042 40.6875 64.1875C41.5625 63.2708 42 62.1875 42 60.9375C42 59.6458 41.5 58.4375 40.5 57.3125L25 39.8125C23.9583 38.6458 22.7708 38.0625 21.4375 38.0625C20.1458 38.0208 18.9583 38.6042 17.875 39.8125L2.4375 57.3125ZM55.4375 115.312C55.4375 121.854 57.0417 126.75 60.25 130C63.5 133.25 68.3542 134.875 74.8125 134.875H141.188C147.646 134.875 152.479 133.25 155.688 130C158.938 126.75 160.562 121.854 160.562 115.312V20.5C160.562 14 158.938 9.10417 155.688 5.8125C152.479 2.52083 147.646 0.875 141.188 0.875H74.8125C68.3542 0.875 63.5 2.52083 60.25 5.8125C57.0417 9.10417 55.4375 14 55.4375 20.5V115.312ZM65.5 115.125V20.6875C65.5 17.5625 66.3333 15.1667 68 13.5C69.6667 11.7917 72.125 10.9375 75.375 10.9375H140.688C143.938 10.9375 146.375 11.7917 148 13.5C149.667 15.1667 150.5 17.5625 150.5 20.6875V115.125C150.5 118.25 149.667 120.646 148 122.312C146.375 123.979 143.938 124.812 140.688 124.812H75.375C72.125 124.812 69.6667 123.979 68 122.312C66.3333 120.646 65.5 118.25 65.5 115.125ZM79.4375 99.5625H136.562C137.812 99.5625 138.729 99.2083 139.312 98.5C139.938 97.75 140.25 96.7917 140.25 95.625C140.25 93.9167 139.604 91.7083 138.312 89C137.021 86.25 135.042 83.5208 132.375 80.8125C129.708 78.0625 126.354 75.75 122.312 73.875C118.271 72 113.5 71.0625 108 71.0625C102.542 71.0625 97.7708 72 93.6875 73.875C89.6458 75.75 86.2917 78.0625 83.625 80.8125C81 83.5208 79.0208 86.25 77.6875 89C76.3958 91.7083 75.75 93.9167 75.75 95.625C75.75 96.7917 76.0625 97.75 76.6875 98.5C77.3125 99.2083 78.2292 99.5625 79.4375 99.5625ZM108 65.9375C110.958 65.9792 113.646 65.2292 116.062 63.6875C118.521 62.1458 120.458 60.0625 121.875 57.4375C123.333 54.7708 124.062 51.7708 124.062 48.4375C124.062 45.3125 123.333 42.4583 121.875 39.875C120.458 37.25 118.521 35.1667 116.062 33.625C113.646 32.0417 110.958 31.25 108 31.25C105.042 31.25 102.354 32.0417 99.9375 33.625C97.5208 35.1667 95.5833 37.25 94.125 39.875C92.7083 42.4583 92 45.3125 92 48.4375C92 51.7708 92.7083 54.75 94.125 57.375C95.5833 60 97.5208 62.0833 99.9375 63.625C102.354 65.1667 105.042 65.9375 108 65.9375Z" fill="white"/>
</svg>
