<svg width="16" height="17" viewBox="0 0 16 17" fill="none" xmlns="http://www.w3.org/2000/svg">
<path d="M8 16.3281C9.08854 16.3281 10.112 16.1198 11.0703 15.7031C12.0339 15.2865 12.8828 14.7109 13.6172 13.9766C14.3516 13.2422 14.9271 12.3958 15.3438 11.4375C15.7604 10.474 15.9688 9.44792 15.9688 8.35938C15.9688 7.27083 15.7604 6.2474 15.3438 5.28906C14.9271 4.32552 14.3516 3.47656 13.6172 2.74219C12.8828 2.00781 12.0339 1.43229 11.0703 1.01562C10.1068 0.598958 9.08073 0.390625 7.99219 0.390625C6.90365 0.390625 5.8776 0.598958 4.91406 1.01562C3.95573 1.43229 3.10938 2.00781 2.375 2.74219C1.64583 3.47656 1.07292 4.32552 0.65625 5.28906C0.239583 6.2474 0.03125 7.27083 0.03125 8.35938C0.03125 9.44792 0.239583 10.474 0.65625 11.4375C1.07292 12.3958 1.64844 13.2422 2.38281 13.9766C3.11719 14.7109 3.96354 15.2865 4.92188 15.7031C5.88542 16.1198 6.91146 16.3281 8 16.3281ZM13.0156 8.35938C13.0156 8.51042 12.9375 8.66667 12.7812 8.82812L10.4609 11.1641C10.3568 11.2734 10.2135 11.3281 10.0312 11.3281C9.86979 11.3281 9.73438 11.2734 9.625 11.1641C9.51562 11.0495 9.46094 10.9089 9.46094 10.7422C9.46094 10.6536 9.47656 10.5729 9.50781 10.5C9.53906 10.4271 9.58073 10.3646 9.63281 10.3125L10.2422 9.71094L11.2109 8.89844L9.50781 8.96875H6.49219L4.78906 8.89844L5.75781 9.71094L6.36719 10.3125C6.41927 10.3646 6.46094 10.4271 6.49219 10.5C6.52344 10.5729 6.53906 10.6536 6.53906 10.7422C6.53906 10.9089 6.48438 11.0495 6.375 11.1641C6.26562 11.2734 6.1276 11.3281 5.96094 11.3281C5.78385 11.3281 5.64323 11.2734 5.53906 11.1641L3.21875 8.82812C3.0625 8.66667 2.98438 8.51042 2.98438 8.35938C2.98438 8.19792 3.0625 8.03906 3.21875 7.88281L5.53906 5.55469C5.64844 5.4401 5.78906 5.38281 5.96094 5.38281C6.1276 5.38281 6.26562 5.4401 6.375 5.55469C6.48438 5.66927 6.53906 5.8099 6.53906 5.97656C6.53906 6.0651 6.52344 6.14583 6.49219 6.21875C6.46615 6.28646 6.42448 6.34896 6.36719 6.40625L5.75781 7L4.78125 7.82031L6.49219 7.75H9.50781L11.2188 7.82031L10.2422 7L9.63281 6.40625C9.57552 6.34896 9.53125 6.28646 9.5 6.21875C9.47396 6.14583 9.46094 6.0651 9.46094 5.97656C9.46094 5.8099 9.51562 5.66927 9.625 5.55469C9.73438 5.4401 9.86979 5.38281 10.0312 5.38281C10.2083 5.38281 10.3516 5.4401 10.4609 5.55469L12.7812 7.88281C12.9375 8.03906 13.0156 8.19792 13.0156 8.35938Z" fill="white"/>
</svg>
