<svg xmlns="http://www.w3.org/2000/svg" width="24" height="24"><path style="stroke:none;fill-rule:nonzero;fill:#fff;fill-opacity:1" d="M.945 13.117 6.86 18.23c.266.227.52.332.758.31.227-.02.438-.173.586-.419.156-.25.235-.601.235-1.047V6.551c0-.438-.075-.778-.227-1.028-.145-.253-.356-.41-.586-.43-.238-.027-.496.071-.766.31L.945 10.52a1.536 1.536 0 0 0-.523.816c-.082.312-.082.66 0 .973.09.312.262.582.523.804ZM12 23.352c.152 0 .285-.075.398-.223a.827.827 0 0 0 .18-.55V1.046a.806.806 0 0 0-.18-.543C12.29.364 12.148.28 12 .285c-.148 0-.29.078-.398.223a.872.872 0 0 0-.172.539v21.531c0 .219.058.402.172.55.105.145.25.224.398.22Zm5.14-5.122 5.922-5.117c.254-.218.426-.492.508-.804.09-.309.09-.657.008-.973a1.521 1.521 0 0 0-.515-.813l-5.922-5.12c-.27-.235-.528-.337-.766-.31-.23.024-.441.18-.586.434-.152.246-.226.59-.226 1.024v10.523c0 .446.074.797.226 1.047.149.246.363.399.594.418.238.023.492-.082.758-.309Zm0 0"/></svg>