<svg width="161" height="135" viewBox="0 0 161 135" fill="none" xmlns="http://www.w3.org/2000/svg">
<path d="M2.4375 57.3125C1.39583 58.4792 0.895833 59.7083 0.9375 61C0.979167 62.2917 1.4375 63.375 2.3125 64.25C3.22917 65.125 4.45833 65.5625 6 65.5625H16.625V92.9375C16.625 94.3125 17.0833 95.4792 18 96.4375C18.9583 97.3542 20.1458 97.8125 21.5625 97.8125C22.8958 97.8125 24.0208 97.3542 24.9375 96.4375C25.8958 95.4792 26.375 94.3125 26.375 92.9375V65.5625H36.875C38.5417 65.5625 39.8125 65.1042 40.6875 64.1875C41.5625 63.2708 42 62.1875 42 60.9375C42 59.6458 41.5 58.4375 40.5 57.3125L25 39.8125C23.9583 38.6458 22.7708 38.0625 21.4375 38.0625C20.1458 38.0208 18.9583 38.6042 17.875 39.8125L2.4375 57.3125ZM55.4375 115.312C55.4375 121.854 57.0417 126.75 60.25 130C63.5 133.25 68.3542 134.875 74.8125 134.875H141.188C147.646 134.875 152.479 133.25 155.688 130C158.938 126.75 160.562 121.854 160.562 115.312V20.5C160.562 14 158.938 9.10417 155.688 5.8125C152.479 2.52083 147.646 0.875 141.188 0.875H74.8125C68.3542 0.875 63.5 2.52083 60.25 5.8125C57.0417 9.10417 55.4375 14 55.4375 20.5V115.312ZM65.5 115.125V20.6875C65.5 17.5625 66.3333 15.1667 68 13.5C69.6667 11.7917 72.125 10.9375 75.375 10.9375H140.688C143.938 10.9375 146.375 11.7917 148 13.5C149.667 15.1667 150.5 17.5625 150.5 20.6875V115.125C150.5 118.25 149.667 120.646 148 122.312C146.375 123.979 143.938 124.812 140.688 124.812H75.375C72.125 124.812 69.6667 123.979 68 122.312C66.3333 120.646 65.5 118.25 65.5 115.125ZM77.8125 97.6875C79.5208 97.6875 81.7292 97.0417 84.4375 95.75C87.1875 94.4167 89.9167 92.4375 92.625 89.8125C95.375 87.1458 97.6875 83.7917 99.5625 79.75C101.438 75.6667 102.375 70.8958 102.375 65.4375C102.375 59.9375 101.438 55.1667 99.5625 51.125C97.6875 47.0833 95.375 43.7292 92.625 41.0625C89.9167 38.3958 87.1875 36.4167 84.4375 35.125C81.7292 33.8333 79.5208 33.1875 77.8125 33.1875C76.6458 33.1875 75.6875 33.5 74.9375 34.125C74.2292 34.7083 73.875 35.625 73.875 36.875V94C73.875 95.2083 74.2292 96.125 74.9375 96.75C75.6875 97.375 76.6458 97.6875 77.8125 97.6875ZM125 81.4375C128.125 81.4375 130.979 80.7292 133.562 79.3125C136.188 77.8542 138.271 75.9167 139.812 73.5C141.396 71.0833 142.188 68.3958 142.188 65.4375C142.188 62.4792 141.396 59.7917 139.812 57.375C138.271 54.9167 136.188 52.9792 133.562 51.5625C130.979 50.1042 128.125 49.375 125 49.375C121.667 49.375 118.688 50.1042 116.062 51.5625C113.438 52.9792 111.354 54.9167 109.812 57.375C108.271 59.7917 107.5 62.4792 107.5 65.4375C107.458 68.3958 108.208 71.0833 109.75 73.5C111.292 75.9167 113.375 77.8542 116 79.3125C118.667 80.7292 121.667 81.4375 125 81.4375Z" fill="white"/>
</svg>
