<svg xmlns="http://www.w3.org/2000/svg" width="24" height="24"><path style="stroke:none;fill-rule:nonzero;fill:#fff;fill-opacity:1" d="M4.887 23.3h14.215c1.226 0 2.144-.323 2.753-.976.618-.64.926-1.605.926-2.898V4.164c0-1.293-.308-2.258-.926-2.898-.609-.653-1.527-.977-2.753-.977H4.887c-1.227 0-2.149.324-2.766.977-.61.64-.914 1.605-.914 2.898v15.262c0 1.293.305 2.258.914 2.902.617.649 1.54.973 2.766.973Zm7.136-5.09a.86.86 0 0 1-.656-.26.977.977 0 0 1-.258-.712v-6.414l.094-2.738-1.207 1.55-1.43 1.54a.863.863 0 0 1-.644.289.856.856 0 0 1-.633-.266.975.975 0 0 1-.246-.676c0-.273.082-.5.246-.675l4.031-4.274c.227-.25.461-.375.703-.375.243 0 .477.125.704.375l4.03 4.274c.165.183.25.425.247.675a.964.964 0 0 1-.254.676.844.844 0 0 1-.637.266.818.818 0 0 1-.644-.29L14.05 9.638l-1.219-1.563.094 2.75v6.414a.978.978 0 0 1-.258.711.84.84 0 0 1-.645.262Zm0 0"/></svg>