<?xml version="1.0" encoding="UTF-8"?>
<svg xmlns="http://www.w3.org/2000/svg" xmlns:xlink="http://www.w3.org/1999/xlink" width="24" height="22.5" viewBox="0 0 24 22.5" version="1.1">
<g id="surface1">
<path style=" stroke:none;fill-rule:nonzero;fill:rgb(100%,100%,100%);fill-opacity:1;" d="M 4.886719 21.84375 L 19.101562 21.84375 C 20.328125 21.84375 21.246094 21.539062 21.855469 20.929688 C 22.472656 20.328125 22.78125 19.421875 22.78125 18.210938 L 22.78125 3.902344 C 22.78125 2.691406 22.472656 1.785156 21.855469 1.183594 C 21.246094 0.574219 20.328125 0.269531 19.101562 0.269531 L 4.886719 0.269531 C 3.660156 0.269531 2.738281 0.574219 2.121094 1.183594 C 1.511719 1.785156 1.207031 2.691406 1.207031 3.902344 L 1.207031 18.210938 C 1.207031 19.421875 1.511719 20.328125 2.121094 20.929688 C 2.738281 21.539062 3.660156 21.84375 4.886719 21.84375 Z M 5.800781 11.015625 C 5.800781 10.78125 5.917969 10.546875 6.152344 10.3125 L 10.230469 6.222656 C 10.386719 6.058594 10.597656 5.976562 10.863281 5.976562 C 11.113281 5.976562 11.320312 6.0625 11.484375 6.234375 C 11.65625 6.398438 11.742188 6.605469 11.742188 6.855469 C 11.742188 7.089844 11.648438 7.304688 11.460938 7.5 L 9.960938 8.988281 L 8.507812 10.207031 L 11.0625 10.101562 L 17.332031 10.101562 C 17.597656 10.101562 17.816406 10.1875 17.988281 10.359375 C 18.160156 10.53125 18.246094 10.75 18.246094 11.015625 C 18.246094 11.28125 18.160156 11.5 17.988281 11.671875 C 17.816406 11.84375 17.597656 11.929688 17.332031 11.929688 L 11.0625 11.929688 L 8.496094 11.824219 L 9.960938 13.054688 L 11.460938 14.53125 C 11.648438 14.710938 11.742188 14.929688 11.742188 15.1875 C 11.742188 15.4375 11.65625 15.648438 11.484375 15.820312 C 11.320312 15.992188 11.113281 16.078125 10.863281 16.078125 C 10.605469 16.078125 10.394531 15.992188 10.230469 15.820312 L 6.152344 11.730469 C 5.917969 11.496094 5.800781 11.257812 5.800781 11.015625 Z M 5.800781 11.015625 "/>
</g>
</svg>
