<svg width="16" height="13" viewBox="0 0 16 13" fill="none" xmlns="http://www.w3.org/2000/svg">
<path d="M0.742188 6.35938C0.742188 6.55729 0.822917 6.73177 0.984375 6.88281L6.17188 12.0625C6.32292 12.2083 6.49219 12.2812 6.67969 12.2812C6.8724 12.2812 7.03385 12.2161 7.16406 12.0859C7.29948 11.9609 7.36719 11.8021 7.36719 11.6094C7.36719 11.5156 7.34896 11.4271 7.3125 11.3438C7.28125 11.2552 7.23438 11.1797 7.17188 11.1172L5.42188 9.33594L2.32812 6.51562L2.16406 6.89844L4.67969 7.05469H14.5625C14.7656 7.05469 14.9297 6.98958 15.0547 6.85938C15.1849 6.72917 15.25 6.5625 15.25 6.35938C15.25 6.15625 15.1849 5.98958 15.0547 5.85938C14.9297 5.72917 14.7656 5.66406 14.5625 5.66406H4.67969L2.16406 5.82031L2.32812 6.21094L5.42188 3.38281L7.17188 1.60156C7.23438 1.53906 7.28125 1.46615 7.3125 1.38281C7.34896 1.29427 7.36719 1.20312 7.36719 1.10938C7.36719 0.916667 7.29948 0.757812 7.16406 0.632812C7.03385 0.502604 6.8724 0.4375 6.67969 0.4375C6.58594 0.4375 6.49479 0.455729 6.40625 0.492188C6.32292 0.528646 6.23958 0.588542 6.15625 0.671875L0.984375 5.83594C0.822917 5.98698 0.742188 6.16146 0.742188 6.35938Z" fill="white"/>
</svg>
