<svg width="16" height="20" viewBox="0 0 16 20" fill="none" xmlns="http://www.w3.org/2000/svg">
<path d="M8 8.71094C8.20312 8.71094 8.36979 8.64844 8.5 8.52344C8.63021 8.39323 8.69531 8.22396 8.69531 8.01562V4.71875L8.64844 3.10156L10.7188 5.3125C10.7865 5.38542 10.862 5.4375 10.9453 5.46875C11.0339 5.49479 11.125 5.50781 11.2188 5.50781C11.4167 5.50781 11.5781 5.44271 11.7031 5.3125C11.8333 5.18229 11.8984 5.02083 11.8984 4.82812C11.8984 4.72917 11.8776 4.63802 11.8359 4.55469C11.7995 4.46615 11.7422 4.38281 11.6641 4.30469L8.52344 1.14844C8.45052 1.07031 8.36719 1.01302 8.27344 0.976562C8.1849 0.934896 8.09375 0.914062 8 0.914062C7.90104 0.914062 7.80729 0.934896 7.71875 0.976562C7.63021 1.01302 7.54948 1.07031 7.47656 1.14844L4.33594 4.30469C4.25781 4.38281 4.19792 4.46615 4.15625 4.55469C4.11979 4.63802 4.10156 4.72917 4.10156 4.82812C4.10156 5.02083 4.16406 5.18229 4.28906 5.3125C4.41927 5.44271 4.58333 5.50781 4.78125 5.50781C4.875 5.50781 4.96354 5.49479 5.04688 5.46875C5.13542 5.4375 5.21354 5.38542 5.28125 5.3125L7.35156 3.10156L7.29688 4.71875V8.01562C7.29688 8.22396 7.36198 8.39323 7.49219 8.52344C7.6276 8.64844 7.79688 8.71094 8 8.71094ZM0.710938 10.2188C0.710938 10.4219 0.773438 10.5885 0.898438 10.7188C1.02865 10.849 1.19531 10.9141 1.39844 10.9141H14.6016C14.7995 10.9141 14.9609 10.849 15.0859 10.7188C15.2161 10.5885 15.2812 10.4219 15.2812 10.2188C15.2812 10.0156 15.2161 9.84896 15.0859 9.71875C14.9609 9.58333 14.7995 9.51562 14.6016 9.51562H1.39844C1.19531 9.51562 1.02865 9.58333 0.898438 9.71875C0.773438 9.84896 0.710938 10.0156 0.710938 10.2188ZM8 11.7188C7.79688 11.7188 7.6276 11.7839 7.49219 11.9141C7.36198 12.0443 7.29688 12.2109 7.29688 12.4141V15.7188L7.35156 17.3281L5.28125 15.1172C5.21354 15.0443 5.13542 14.9948 5.04688 14.9688C4.96354 14.9375 4.875 14.9219 4.78125 14.9219C4.58333 14.9219 4.41927 14.987 4.28906 15.1172C4.16406 15.2474 4.10156 15.4089 4.10156 15.6016C4.10156 15.7005 4.11979 15.7943 4.15625 15.8828C4.19792 15.9661 4.25781 16.0495 4.33594 16.1328L7.47656 19.2812C7.54948 19.3594 7.63021 19.4193 7.71875 19.4609C7.80729 19.5026 7.90104 19.5234 8 19.5234C8.09375 19.5234 8.1849 19.5026 8.27344 19.4609C8.36719 19.4193 8.45052 19.3594 8.52344 19.2812L11.6641 16.1328C11.7422 16.0495 11.7995 15.9661 11.8359 15.8828C11.8776 15.7943 11.8984 15.7005 11.8984 15.6016C11.8984 15.4089 11.8333 15.2474 11.7031 15.1172C11.5781 14.987 11.4167 14.9219 11.2188 14.9219C11.125 14.9219 11.0339 14.9375 10.9453 14.9688C10.862 14.9948 10.7865 15.0443 10.7188 15.1172L8.64844 17.3281L8.69531 15.7188V12.4141C8.69531 12.2109 8.63021 12.0443 8.5 11.9141C8.36979 11.7839 8.20312 11.7188 8 11.7188Z" fill="white"/>
</svg>
