<svg xmlns="http://www.w3.org/2000/svg" width="24" height="24"><path style="stroke:none;fill-rule:nonzero;fill:#fff;fill-opacity:1" d="M2.598 21.215V1.758c0-.375-.11-.68-.336-.91C2.039.609 1.75.492 1.395.492c-.352 0-.637.117-.86.36-.223.23-.336.53-.336.906v19.457c0 .367.113.664.336.894.223.23.508.344.86.344.355 0 .644-.113.867-.344.226-.23.336-.527.336-.894ZM23.8 11.48c0-.382-.113-.699-.336-.937-.215-.242-.496-.36-.844-.36H9.094l-2.867.114 4.394-4.34 2.961-3.242c.113-.121.2-.258.254-.422.062-.164.094-.332.094-.504 0-.355-.117-.652-.348-.894a1.077 1.077 0 0 0-.832-.36c-.164 0-.328.04-.48.113a1.331 1.331 0 0 0-.418.32L2.972 10.5c-.124.133-.23.293-.308.465-.14.324-.14.695 0 1.02.074.163.176.32.309.464l8.879 9.531c.136.141.273.254.418.32.148.067.312.102.48.102.332 0 .605-.12.832-.351.23-.238.348-.54.348-.89 0-.173-.032-.34-.094-.505a1.178 1.178 0 0 0-.254-.433l-2.96-3.23-4.407-4.333 2.879.102H22.62c.348 0 .629-.117.844-.356.223-.246.336-.55.336-.926Zm0 0"/></svg>