<svg width="16" height="17" viewBox="0 0 16 17" fill="none" xmlns="http://www.w3.org/2000/svg">
<path d="M8 16.2422C9.08854 16.2422 10.112 16.0339 11.0703 15.6172C12.0339 15.2005 12.8828 14.625 13.6172 13.8906C14.3516 13.1562 14.9271 12.3099 15.3438 11.3516C15.7604 10.388 15.9688 9.36198 15.9688 8.27344C15.9688 7.1849 15.7604 6.16146 15.3438 5.20312C14.9271 4.23958 14.3516 3.39062 13.6172 2.65625C12.8828 1.92188 12.0339 1.34635 11.0703 0.929688C10.1068 0.513021 9.08073 0.304688 7.99219 0.304688C6.90365 0.304688 5.8776 0.513021 4.91406 0.929688C3.95573 1.34635 3.10938 1.92188 2.375 2.65625C1.64583 3.39062 1.07292 4.23958 0.65625 5.20312C0.239583 6.16146 0.03125 7.1849 0.03125 8.27344C0.03125 9.36198 0.239583 10.388 0.65625 11.3516C1.07292 12.3099 1.64844 13.1562 2.38281 13.8906C3.11719 14.625 3.96354 15.2005 4.92188 15.6172C5.88542 16.0339 6.91146 16.2422 8 16.2422ZM11.9844 9.14844C11.9844 9.76823 11.8516 10.3099 11.5859 10.7734C11.3255 11.237 10.9583 11.5964 10.4844 11.8516C10.0104 12.1068 9.46094 12.2344 8.83594 12.2344H7.78125C7.59375 12.2344 7.44271 12.1823 7.32812 12.0781C7.21354 11.9688 7.15625 11.8255 7.15625 11.6484C7.15625 11.4766 7.21094 11.3385 7.32031 11.2344C7.4349 11.125 7.58333 11.0703 7.76562 11.0703H8.83594C9.42448 11.0703 9.90104 10.8958 10.2656 10.5469C10.6354 10.1927 10.8203 9.72656 10.8203 9.14844C10.8203 8.61719 10.638 8.1875 10.2734 7.85938C9.91406 7.53125 9.4375 7.36719 8.84375 7.36719H6.5625L5.75781 7.33594L6.125 7.59375L7.07031 8.50781C7.19531 8.63281 7.25781 8.77604 7.25781 8.9375C7.25781 9.10417 7.20052 9.2474 7.08594 9.36719C6.97656 9.48177 6.84115 9.53906 6.67969 9.53906C6.5026 9.53906 6.35938 9.48177 6.25 9.36719L4.20312 7.27344C4.0625 7.13281 3.99219 6.96875 3.99219 6.78125C3.99219 6.59896 4.0625 6.43229 4.20312 6.28125L6.24219 4.21094C6.35677 4.09635 6.5 4.03906 6.67188 4.03906C6.83854 4.03906 6.97656 4.09635 7.08594 4.21094C7.20052 4.32552 7.25781 4.46875 7.25781 4.64062C7.25781 4.80729 7.19531 4.94531 7.07031 5.05469L6.28125 5.82031L5.75 6.24219L6.5625 6.20312H8.84375C9.46875 6.20312 10.0182 6.32552 10.4922 6.57031C10.9661 6.8151 11.3333 7.15885 11.5938 7.60156C11.8542 8.04427 11.9844 8.5599 11.9844 9.14844Z" fill="white"/>
</svg>
