<?xml version="1.0" encoding="UTF-8"?>
<svg xmlns="http://www.w3.org/2000/svg" xmlns:xlink="http://www.w3.org/1999/xlink" width="24" height="25.5" viewBox="0 0 24 25.5" version="1.1">
<g id="surface1">
<path style=" stroke:none;fill-rule:nonzero;fill:rgb(100%,100%,100%);fill-opacity:1;" d="M 12 24.492188 C 13.632812 24.492188 15.167969 24.179688 16.605469 23.554688 C 18.050781 22.929688 19.324219 22.066406 20.425781 20.964844 C 21.527344 19.863281 22.390625 18.59375 23.015625 17.15625 C 23.640625 15.710938 23.953125 14.171875 23.953125 12.539062 C 23.953125 10.90625 23.640625 9.371094 23.015625 7.933594 C 22.390625 6.488281 21.527344 5.214844 20.425781 4.113281 C 19.324219 3.011719 18.050781 2.148438 16.605469 1.523438 C 15.160156 0.898438 13.621094 0.585938 11.988281 0.585938 C 10.355469 0.585938 8.816406 0.898438 7.371094 1.523438 C 5.933594 2.148438 4.664062 3.011719 3.5625 4.113281 C 2.46875 5.214844 1.609375 6.488281 0.984375 7.933594 C 0.359375 9.371094 0.046875 10.90625 0.046875 12.539062 C 0.046875 14.171875 0.359375 15.710938 0.984375 17.15625 C 1.609375 18.59375 2.472656 19.863281 3.574219 20.964844 C 4.675781 22.066406 5.945312 22.929688 7.382812 23.554688 C 8.828125 24.179688 10.367188 24.492188 12 24.492188 Z M 4.40625 12.539062 C 4.40625 12.3125 4.480469 12.125 4.628906 11.976562 C 4.785156 11.820312 4.984375 11.742188 5.226562 11.742188 L 10.757812 11.742188 L 12.960938 11.859375 L 10.5 9.679688 L 9.75 8.953125 C 9.664062 8.875 9.601562 8.785156 9.5625 8.683594 C 9.53125 8.574219 9.515625 8.464844 9.515625 8.355469 C 9.515625 8.128906 9.59375 7.945312 9.75 7.804688 C 9.90625 7.65625 10.09375 7.582031 10.3125 7.582031 C 10.554688 7.582031 10.753906 7.664062 10.910156 7.828125 L 15.082031 11.929688 C 15.167969 12.015625 15.234375 12.113281 15.28125 12.222656 C 15.335938 12.324219 15.363281 12.429688 15.363281 12.539062 C 15.363281 12.65625 15.339844 12.765625 15.292969 12.867188 C 15.246094 12.96875 15.175781 13.0625 15.082031 13.148438 L 10.921875 17.214844 C 10.84375 17.292969 10.746094 17.359375 10.628906 17.414062 C 10.519531 17.460938 10.414062 17.484375 10.3125 17.484375 C 10.078125 17.484375 9.886719 17.410156 9.738281 17.261719 C 9.589844 17.113281 9.515625 16.925781 9.515625 16.699219 C 9.515625 16.574219 9.53125 16.464844 9.5625 16.371094 C 9.601562 16.269531 9.664062 16.183594 9.75 16.113281 L 10.511719 15.410156 L 12.972656 13.21875 L 10.757812 13.371094 L 5.226562 13.371094 C 4.984375 13.371094 4.785156 13.296875 4.628906 13.148438 C 4.480469 12.992188 4.40625 12.789062 4.40625 12.539062 Z M 17.085938 17.871094 C 16.859375 17.871094 16.667969 17.796875 16.511719 17.648438 C 16.363281 17.5 16.289062 17.308594 16.289062 17.074219 L 16.289062 7.992188 C 16.289062 7.757812 16.363281 7.566406 16.511719 7.417969 C 16.667969 7.261719 16.859375 7.183594 17.085938 7.183594 C 17.328125 7.183594 17.523438 7.261719 17.671875 7.417969 C 17.828125 7.566406 17.90625 7.757812 17.90625 7.992188 L 17.90625 17.074219 C 17.90625 17.308594 17.828125 17.5 17.671875 17.648438 C 17.523438 17.796875 17.328125 17.871094 17.085938 17.871094 Z M 17.085938 17.871094 "/>
</g>
</svg>
