<svg width="16" height="17" viewBox="0 0 16 17" fill="none" xmlns="http://www.w3.org/2000/svg">
<path d="M8 16.3281C9.08854 16.3281 10.112 16.1198 11.0703 15.7031C12.0339 15.2865 12.8828 14.7109 13.6172 13.9766C14.3516 13.2422 14.9271 12.3958 15.3438 11.4375C15.7604 10.474 15.9688 9.44792 15.9688 8.35938C15.9688 7.27083 15.7604 6.2474 15.3438 5.28906C14.9271 4.32552 14.3516 3.47656 13.6172 2.74219C12.8828 2.00781 12.0339 1.43229 11.0703 1.01562C10.1068 0.598958 9.08073 0.390625 7.99219 0.390625C6.90365 0.390625 5.8776 0.598958 4.91406 1.01562C3.95573 1.43229 3.10938 2.00781 2.375 2.74219C1.64583 3.47656 1.07292 4.32552 0.65625 5.28906C0.239583 6.2474 0.03125 7.27083 0.03125 8.35938C0.03125 9.44792 0.239583 10.474 0.65625 11.4375C1.07292 12.3958 1.64844 13.2422 2.38281 13.9766C3.11719 14.7109 3.96354 15.2865 4.92188 15.7031C5.88542 16.1198 6.91146 16.3281 8 16.3281ZM4.40625 8.35938C4.24479 8.35938 4.10677 8.30208 3.99219 8.1875C3.8776 8.07292 3.82031 7.93229 3.82031 7.76562V4.86719C3.82031 4.6224 3.88021 4.44792 4 4.34375C4.11979 4.23438 4.28906 4.17969 4.50781 4.17969H7.39844C7.5599 4.17969 7.69792 4.23698 7.8125 4.35156C7.92708 4.46615 7.98438 4.60417 7.98438 4.76562C7.98438 4.93229 7.92708 5.07292 7.8125 5.1875C7.69792 5.30208 7.5599 5.35938 7.39844 5.35938L6.99219 5.35156L5.72656 5.27344L7.58594 7.05469C7.71094 7.16927 7.77344 7.3151 7.77344 7.49219C7.77865 7.66927 7.71875 7.82031 7.59375 7.94531C7.47396 8.0651 7.32552 8.1276 7.14844 8.13281C6.97656 8.13281 6.82812 8.06771 6.70312 7.9375L4.92188 6.05469L5 7.36719V7.76562C5 7.93229 4.94271 8.07292 4.82812 8.1875C4.71354 8.30208 4.57292 8.35938 4.40625 8.35938ZM8.60938 12.5469C8.44271 12.5469 8.30208 12.4896 8.1875 12.375C8.07292 12.2604 8.01562 12.1224 8.01562 11.9609C8.01562 11.7943 8.07292 11.6536 8.1875 11.5391C8.30208 11.4245 8.44271 11.3672 8.60938 11.3672L9.01562 11.375L10.2812 11.4531L8.42188 9.67188C8.29688 9.55729 8.23177 9.41146 8.22656 9.23438C8.22656 9.05729 8.28906 8.90625 8.41406 8.78125C8.53385 8.66146 8.67969 8.60156 8.85156 8.60156C9.02865 8.59635 9.17969 8.65885 9.30469 8.78906L11.0859 10.6719L11.0078 9.35938V8.96094C11.0078 8.79427 11.0651 8.65365 11.1797 8.53906C11.2943 8.42448 11.4323 8.36719 11.5938 8.36719C11.7604 8.36719 11.901 8.42448 12.0156 8.53906C12.1302 8.65365 12.1875 8.79427 12.1875 8.96094V11.8594C12.1875 12.1042 12.125 12.2812 12 12.3906C11.8802 12.4948 11.7109 12.5469 11.4922 12.5469H8.60938Z" fill="white"/>
</svg>
