<svg xmlns="http://www.w3.org/2000/svg" width="24" height="24"><path style="stroke:none;fill-rule:nonzero;fill:#fff;fill-opacity:1" d="M12 23.063c1.633 0 3.168-.293 4.605-.883a12.29 12.29 0 0 0 3.82-2.438 11.482 11.482 0 0 0 2.59-3.586c.626-1.36.938-2.804.938-4.343 0-1.536-.312-2.981-.937-4.336a11.514 11.514 0 0 0-2.59-3.594 12.22 12.22 0 0 0-3.82-2.438 12.166 12.166 0 0 0-4.618-.883c-1.633 0-3.172.293-4.617.883a12.307 12.307 0 0 0-3.809 2.438A11.523 11.523 0 0 0 .985 7.477a10.187 10.187 0 0 0-.937 4.335c0 1.54.312 2.985.937 4.344a11.438 11.438 0 0 0 2.59 3.586 12.307 12.307 0 0 0 3.809 2.438c1.445.59 2.984.883 4.617.883Zm-6.012-6.34a.655.655 0 0 1-.457-.2c-.14-.14-.21-.343-.21-.609 0-1.504.234-2.809.702-3.902.47-1.098 1.196-1.938 2.18-2.528.992-.593 2.266-.894 3.82-.894h.188V6.266c0-.2.07-.371.21-.52a.756.756 0 0 1 .563-.219c.164 0 .305.035.422.11.125.066.274.172.446.32l5.132 4.512c.118.09.207.203.27.332.047.101.07.215.07.328a.71.71 0 0 1-.082.32.967.967 0 0 1-.258.332l-5.132 4.543a1.83 1.83 0 0 1-.434.297.968.968 0 0 1-.445.102.805.805 0 0 1-.551-.2.688.688 0 0 1-.211-.507v-2.34h-.188c-1.257 0-2.304.187-3.14.554-.828.368-1.528 1.047-2.098 2.04-.101.199-.226.324-.375.375-.14.05-.281.078-.422.078Zm0 0"/></svg>