<svg width="16" height="17" viewBox="0 0 16 17" fill="none" xmlns="http://www.w3.org/2000/svg">
<path d="M8 16.3281C9.08854 16.3281 10.112 16.1198 11.0703 15.7031C12.0339 15.2865 12.8828 14.7109 13.6172 13.9766C14.3516 13.2422 14.9271 12.3958 15.3438 11.4375C15.7604 10.474 15.9688 9.44792 15.9688 8.35938C15.9688 7.27083 15.7604 6.2474 15.3438 5.28906C14.9271 4.32552 14.3516 3.47656 13.6172 2.74219C12.8828 2.00781 12.0339 1.43229 11.0703 1.01562C10.1068 0.598958 9.08073 0.390625 7.99219 0.390625C6.90365 0.390625 5.8776 0.598958 4.91406 1.01562C3.95573 1.43229 3.10938 2.00781 2.375 2.74219C1.64583 3.47656 1.07292 4.32552 0.65625 5.28906C0.239583 6.2474 0.03125 7.27083 0.03125 8.35938C0.03125 9.44792 0.239583 10.474 0.65625 11.4375C1.07292 12.3958 1.64844 13.2422 2.38281 13.9766C3.11719 14.7109 3.96354 15.2865 4.92188 15.7031C5.88542 16.1198 6.91146 16.3281 8 16.3281ZM5.46094 6.35938C5.64323 6.35938 5.78906 6.41667 5.89844 6.53125C6.00781 6.64062 6.0625 6.79427 6.0625 6.99219V8.375L5.94531 9.625L7.10938 8.39062L10.0547 5.42969C10.112 5.3724 10.1797 5.32812 10.2578 5.29688C10.3359 5.26042 10.4245 5.24219 10.5234 5.24219C10.7005 5.24219 10.8411 5.29688 10.9453 5.40625C11.0547 5.51562 11.1094 5.66406 11.1094 5.85156C11.1094 6.00781 11.0443 6.15104 10.9141 6.28125L7.96094 9.23438L6.70312 10.4062L7.89844 10.2812H9.35156C9.54427 10.2812 9.69792 10.3359 9.8125 10.4453C9.93229 10.5547 9.99219 10.6979 9.99219 10.875C9.99219 11.0521 9.9349 11.1953 9.82031 11.3047C9.70573 11.4141 9.55469 11.4688 9.36719 11.4688H5.54688C5.33854 11.4688 5.17448 11.4167 5.05469 11.3125C4.9349 11.2083 4.875 11.0365 4.875 10.7969V7.00781C4.875 6.8151 4.92708 6.65885 5.03125 6.53906C5.14062 6.41927 5.28385 6.35938 5.46094 6.35938Z" fill="white"/>
</svg>
