<svg width="12" height="17" viewBox="0 0 12 17" fill="none" xmlns="http://www.w3.org/2000/svg">
<path d="M11.9219 9.125C11.9219 8.93229 11.8568 8.77083 11.7266 8.64062C11.6016 8.51042 11.4427 8.44531 11.25 8.44531C11.1562 8.44531 11.0651 8.46094 10.9766 8.49219C10.8932 8.52344 10.8203 8.57031 10.7578 8.63281L8.97656 10.3828L6.17969 13.4531L6.61719 13.6094L6.69531 11.2812V0.984375C6.69531 0.786458 6.63021 0.622396 6.5 0.492188C6.36979 0.361979 6.20312 0.296875 6 0.296875C5.79688 0.296875 5.63021 0.361979 5.5 0.492188C5.36979 0.622396 5.30469 0.786458 5.30469 0.984375V11.2812L5.38281 13.6094L5.82812 13.4531L3.02344 10.3828L1.24219 8.63281C1.17969 8.57031 1.10417 8.52344 1.01562 8.49219C0.932292 8.46094 0.84375 8.44531 0.75 8.44531C0.557292 8.44531 0.395833 8.51042 0.265625 8.64062C0.140625 8.77083 0.078125 8.93229 0.078125 9.125C0.078125 9.3125 0.151042 9.48177 0.296875 9.63281L5.47656 14.8281C5.55469 14.9062 5.63802 14.9635 5.72656 15C5.8151 15.0417 5.90625 15.0625 6 15.0625C6.09896 15.0625 6.19271 15.0417 6.28125 15C6.36979 14.9635 6.45052 14.9062 6.52344 14.8281L11.7109 9.63281C11.8516 9.48177 11.9219 9.3125 11.9219 9.125ZM11.9219 15.7578C11.9219 15.5547 11.8594 15.388 11.7344 15.2578C11.6094 15.1276 11.4479 15.0625 11.25 15.0625H0.765625C0.5625 15.0625 0.395833 15.1276 0.265625 15.2578C0.140625 15.388 0.078125 15.5547 0.078125 15.7578C0.078125 15.9609 0.140625 16.1276 0.265625 16.2578C0.395833 16.3932 0.5625 16.4609 0.765625 16.4609H11.25C11.4479 16.4609 11.6094 16.3932 11.7344 16.2578C11.8594 16.1276 11.9219 15.9609 11.9219 15.7578Z" fill="white"/>
</svg>
