<svg width="172" height="132" viewBox="0 0 172 132" fill="none" xmlns="http://www.w3.org/2000/svg">
<path d="M60.5 73.3125C62.5417 72.0625 63.9167 70.5417 64.625 68.75C65.3333 66.9167 65.3333 65.0833 64.625 63.25C63.9583 61.4167 62.5833 59.875 60.5 58.625L13.125 29.625C11.125 28.375 9.14583 27.8333 7.1875 28C5.27083 28.1667 3.6875 28.9583 2.4375 30.375C1.1875 31.75 0.5625 33.6667 0.5625 36.125V95.75C0.5625 98.2917 1.1875 100.271 2.4375 101.688C3.72917 103.062 5.33333 103.812 7.25 103.938C9.20833 104.062 11.1667 103.521 13.125 102.312L60.5 73.3125ZM53.8125 67.25L11.875 93.25C11.5 93.4583 11.0208 93.5208 10.4375 93.4375C9.89583 93.3542 9.625 92.9375 9.625 92.1875V39.75C9.625 38.9167 9.91667 38.4792 10.5 38.4375C11.0833 38.3958 11.5417 38.4792 11.875 38.6875L53.75 64.625C54.5417 65.125 54.8542 65.625 54.6875 66.125C54.5625 66.5833 54.2708 66.9583 53.8125 67.25ZM85.875 131.312C87.125 131.312 88.2083 130.896 89.125 130.062C90.0417 129.229 90.5 128.188 90.5 126.938V4.9375C90.5 3.72917 90.0417 2.70833 89.125 1.875C88.2083 1.04167 87.125 0.625 85.875 0.625C84.6667 0.625 83.6042 1.04167 82.6875 1.875C81.7708 2.70833 81.3125 3.72917 81.3125 4.9375V126.938C81.3125 128.188 81.7708 129.229 82.6875 130.062C83.6042 130.896 84.6667 131.312 85.875 131.312ZM158.625 102.312C160.625 103.521 162.583 104.062 164.5 103.938C166.417 103.812 168.021 103.062 169.312 101.688C170.604 100.271 171.25 98.2917 171.25 95.75V36.125C171.25 33.6667 170.604 31.75 169.312 30.375C168.062 28.9583 166.479 28.1667 164.562 28C162.646 27.8333 160.667 28.375 158.625 29.625L111.25 58.625C109.167 59.875 107.792 61.4167 107.125 63.25C106.458 65.0833 106.458 66.9167 107.125 68.75C107.833 70.5417 109.208 72.0625 111.25 73.3125L158.625 102.312ZM159.875 93.25L118 67.25C117.5 66.9583 117.188 66.5833 117.062 66.125C116.938 65.625 117.25 65.125 118 64.625L159.875 38.6875C160.208 38.4792 160.667 38.3958 161.25 38.4375C161.833 38.4792 162.125 38.9167 162.125 39.75V92.1875C162.125 92.9375 161.854 93.3542 161.312 93.4375C160.771 93.5208 160.292 93.4583 159.875 93.25Z" fill="white"/>
</svg>
