<?xml version="1.0" encoding="UTF-8"?>
<svg xmlns="http://www.w3.org/2000/svg" xmlns:xlink="http://www.w3.org/1999/xlink" width="24" height="24" viewBox="0 0 24 24" version="1.1">
<g id="surface1">
<path style=" stroke:none;fill-rule:nonzero;fill:rgb(100%,100%,100%);fill-opacity:1;" d="M 0.796875 7.664062 C 0.796875 8.007812 0.898438 8.265625 1.101562 8.4375 C 1.304688 8.601562 1.542969 8.675781 1.816406 8.660156 C 2.089844 8.636719 2.335938 8.511719 2.554688 8.285156 L 7.746094 3.09375 C 7.972656 2.867188 8.09375 2.617188 8.109375 2.34375 C 8.132812 2.070312 8.058594 1.835938 7.886719 1.640625 C 7.722656 1.4375 7.46875 1.335938 7.125 1.335938 L 1.863281 1.335938 C 1.535156 1.335938 1.273438 1.4375 1.078125 1.640625 C 0.890625 1.835938 0.796875 2.09375 0.796875 2.414062 Z M 3.820312 5.835938 L 18.667969 20.695312 L 20.15625 19.230469 L 5.308594 4.359375 Z M 23.191406 17.402344 C 23.191406 17.058594 23.089844 16.804688 22.886719 16.640625 C 22.683594 16.46875 22.445312 16.394531 22.171875 16.417969 C 21.898438 16.433594 21.648438 16.550781 21.421875 16.769531 L 16.230469 21.960938 C 16.011719 22.1875 15.890625 22.4375 15.867188 22.710938 C 15.851562 22.984375 15.925781 23.222656 16.089844 23.425781 C 16.261719 23.628906 16.519531 23.730469 16.863281 23.730469 L 22.125 23.730469 C 22.453125 23.730469 22.710938 23.628906 22.898438 23.425781 C 23.09375 23.222656 23.191406 22.964844 23.191406 22.652344 Z M 23.191406 7.664062 L 23.191406 2.414062 C 23.191406 2.09375 23.09375 1.835938 22.898438 1.640625 C 22.710938 1.4375 22.453125 1.335938 22.125 1.335938 L 16.863281 1.335938 C 16.519531 1.335938 16.261719 1.4375 16.089844 1.640625 C 15.925781 1.835938 15.851562 2.070312 15.867188 2.34375 C 15.890625 2.617188 16.011719 2.867188 16.230469 3.09375 L 21.421875 8.285156 C 21.648438 8.511719 21.898438 8.636719 22.171875 8.660156 C 22.445312 8.675781 22.683594 8.601562 22.886719 8.4375 C 23.089844 8.265625 23.191406 8.007812 23.191406 7.664062 Z M 5.308594 20.695312 L 20.167969 5.835938 L 18.679688 4.359375 L 3.820312 19.21875 Z M 0.796875 17.402344 L 0.796875 22.652344 C 0.796875 22.964844 0.890625 23.222656 1.078125 23.425781 C 1.273438 23.628906 1.535156 23.730469 1.863281 23.730469 L 7.125 23.730469 C 7.46875 23.730469 7.722656 23.628906 7.886719 23.425781 C 8.058594 23.222656 8.132812 22.984375 8.109375 22.710938 C 8.09375 22.4375 7.972656 22.1875 7.746094 21.960938 L 2.554688 16.769531 C 2.335938 16.550781 2.089844 16.433594 1.816406 16.417969 C 1.542969 16.394531 1.304688 16.46875 1.101562 16.640625 C 0.898438 16.804688 0.796875 17.058594 0.796875 17.402344 Z M 0.796875 17.402344 "/>
</g>
</svg>
