<?xml version="1.0" encoding="UTF-8"?>
<svg xmlns="http://www.w3.org/2000/svg" xmlns:xlink="http://www.w3.org/1999/xlink" width="24" height="25.5" viewBox="0 0 24 25.5" version="1.1">
<g id="surface1">
<path style=" stroke:none;fill-rule:nonzero;fill:rgb(100%,100%,100%);fill-opacity:1;" d="M 12 24.492188 C 13.632812 24.492188 15.167969 24.179688 16.605469 23.554688 C 18.050781 22.929688 19.324219 22.066406 20.425781 20.964844 C 21.527344 19.863281 22.390625 18.59375 23.015625 17.15625 C 23.640625 15.710938 23.953125 14.171875 23.953125 12.539062 C 23.953125 10.90625 23.640625 9.371094 23.015625 7.933594 C 22.390625 6.488281 21.527344 5.214844 20.425781 4.113281 C 19.324219 3.011719 18.050781 2.148438 16.605469 1.523438 C 15.160156 0.898438 13.621094 0.585938 11.988281 0.585938 C 10.355469 0.585938 8.816406 0.898438 7.371094 1.523438 C 5.933594 2.148438 4.664062 3.011719 3.5625 4.113281 C 2.46875 5.214844 1.609375 6.488281 0.984375 7.933594 C 0.359375 9.371094 0.046875 10.90625 0.046875 12.539062 C 0.046875 14.171875 0.359375 15.710938 0.984375 17.15625 C 1.609375 18.59375 2.472656 19.863281 3.574219 20.964844 C 4.675781 22.066406 5.945312 22.929688 7.382812 23.554688 C 8.828125 24.179688 10.367188 24.492188 12 24.492188 Z M 12.023438 18.574219 C 11.757812 18.574219 11.539062 18.492188 11.367188 18.328125 C 11.195312 18.15625 11.109375 17.933594 11.109375 17.660156 L 11.109375 11.648438 L 11.203125 9.082031 L 9.996094 10.535156 L 8.566406 11.976562 C 8.386719 12.15625 8.171875 12.246094 7.921875 12.246094 C 7.671875 12.246094 7.460938 12.164062 7.289062 12 C 7.125 11.828125 7.042969 11.617188 7.042969 11.367188 C 7.042969 11.109375 7.125 10.898438 7.289062 10.734375 L 11.320312 6.726562 C 11.546875 6.492188 11.78125 6.375 12.023438 6.375 C 12.265625 6.375 12.5 6.492188 12.726562 6.726562 L 16.757812 10.734375 C 16.921875 10.90625 17.003906 11.117188 17.003906 11.367188 C 17.003906 11.617188 16.917969 11.828125 16.746094 12 C 16.574219 12.164062 16.363281 12.246094 16.113281 12.246094 C 15.847656 12.246094 15.632812 12.15625 15.46875 11.976562 L 14.050781 10.535156 L 12.832031 9.070312 L 12.925781 11.648438 L 12.925781 17.660156 C 12.925781 17.933594 12.839844 18.15625 12.667969 18.328125 C 12.503906 18.492188 12.289062 18.574219 12.023438 18.574219 Z M 12.023438 18.574219 "/>
</g>
</svg>
