<svg width="16" height="17" viewBox="0 0 16 17" fill="none" xmlns="http://www.w3.org/2000/svg">
<path d="M8 16.3281C9.08854 16.3281 10.112 16.1198 11.0703 15.7031C12.0339 15.2865 12.8828 14.7109 13.6172 13.9766C14.3516 13.2422 14.9271 12.3958 15.3438 11.4375C15.7604 10.474 15.9688 9.44792 15.9688 8.35938C15.9688 7.27083 15.7604 6.2474 15.3438 5.28906C14.9271 4.32552 14.3516 3.47656 13.6172 2.74219C12.8828 2.00781 12.0339 1.43229 11.0703 1.01562C10.1068 0.598958 9.08073 0.390625 7.99219 0.390625C6.90365 0.390625 5.8776 0.598958 4.91406 1.01562C3.95573 1.43229 3.10938 2.00781 2.375 2.74219C1.64583 3.47656 1.07292 4.32552 0.65625 5.28906C0.239583 6.2474 0.03125 7.27083 0.03125 8.35938C0.03125 9.44792 0.239583 10.474 0.65625 11.4375C1.07292 12.3958 1.64844 13.2422 2.38281 13.9766C3.11719 14.7109 3.96354 15.2865 4.92188 15.7031C5.88542 16.1198 6.91146 16.3281 8 16.3281ZM8 15C7.07812 15 6.21615 14.8281 5.41406 14.4844C4.61198 14.1406 3.90625 13.6667 3.29688 13.0625C2.69271 12.4531 2.21875 11.7474 1.875 10.9453C1.53646 10.1432 1.36719 9.28125 1.36719 8.35938C1.36719 7.4375 1.53646 6.57552 1.875 5.77344C2.21875 4.97135 2.69271 4.26562 3.29688 3.65625C3.90104 3.04688 4.60417 2.57292 5.40625 2.23438C6.20833 1.89062 7.07031 1.71875 7.99219 1.71875C8.91406 1.71875 9.77604 1.89062 10.5781 2.23438C11.3854 2.57292 12.0911 3.04688 12.6953 3.65625C13.3047 4.26562 13.7812 4.97135 14.125 5.77344C14.4688 6.57552 14.6406 7.4375 14.6406 8.35938C14.6406 9.28125 14.4688 10.1432 14.125 10.9453C13.7865 11.7474 13.3125 12.4531 12.7031 13.0625C12.0938 13.6667 11.388 14.1406 10.5859 14.4844C9.78385 14.8281 8.92188 15 8 15ZM12.0234 9.3125C12.0234 8.68229 11.8854 8.14323 11.6094 7.69531C11.3333 7.24219 10.9557 6.89583 10.4766 6.65625C9.9974 6.41146 9.45312 6.28906 8.84375 6.28906H6.51562L5.58594 6.32031L6.20312 5.83594L7.01562 5.05469C7.13021 4.94531 7.1875 4.8099 7.1875 4.64844C7.1875 4.48698 7.13281 4.35156 7.02344 4.24219C6.91927 4.13281 6.78906 4.07812 6.63281 4.07812C6.47135 4.07812 6.33594 4.13542 6.22656 4.25L4.15625 6.35938C4.01562 6.49479 3.94531 6.65365 3.94531 6.83594C3.94531 7.01302 4.01562 7.16927 4.15625 7.30469L6.23438 9.4375C6.34375 9.54688 6.47917 9.60156 6.64062 9.60156C6.79167 9.60156 6.91927 9.54688 7.02344 9.4375C7.13281 9.32812 7.1875 9.19271 7.1875 9.03125C7.1875 8.86458 7.13281 8.72917 7.02344 8.625L6.04688 7.6875L5.58594 7.35156L6.51562 7.38281H8.84375C9.42188 7.38281 9.90365 7.54427 10.2891 7.86719C10.6797 8.1849 10.875 8.64583 10.875 9.25C10.875 9.86458 10.6823 10.3516 10.2969 10.7109C9.91667 11.0651 9.42969 11.2422 8.83594 11.2422C8.80469 11.2422 8.70312 11.2422 8.53125 11.2422C8.35938 11.2422 8.1875 11.2422 8.01562 11.2422C7.84896 11.2422 7.76042 11.2422 7.75 11.2422C7.58854 11.2422 7.45052 11.2891 7.33594 11.3828C7.22135 11.4766 7.16406 11.6146 7.16406 11.7969C7.16406 11.9792 7.22135 12.1198 7.33594 12.2188C7.45052 12.3125 7.59375 12.3594 7.76562 12.3594C7.78125 12.3594 7.86979 12.3594 8.03125 12.3594C8.19792 12.3594 8.36458 12.3594 8.53125 12.3594C8.70312 12.3594 8.80469 12.3594 8.83594 12.3594C9.44531 12.3594 9.98958 12.237 10.4688 11.9922C10.9531 11.7422 11.3333 11.3906 11.6094 10.9375C11.8854 10.4792 12.0234 9.9375 12.0234 9.3125Z" fill="white"/>
</svg>
