<svg width="116" height="116" viewBox="0 0 116 116" fill="none" xmlns="http://www.w3.org/2000/svg">
<path d="M20.5625 115.5H96.375C102.917 115.5 107.812 113.875 111.062 110.625C114.354 107.417 116 102.583 116 96.125V19.8125C116 13.3542 114.354 8.52083 111.062 5.3125C107.812 2.0625 102.917 0.4375 96.375 0.4375H20.5625C14.0208 0.4375 9.10417 2.0625 5.8125 5.3125C2.5625 8.52083 0.9375 13.3542 0.9375 19.8125V96.125C0.9375 102.583 2.5625 107.417 5.8125 110.625C9.10417 113.875 14.0208 115.5 20.5625 115.5ZM20.6875 105.438C17.5625 105.438 15.1667 104.625 13.5 103C11.8333 101.333 11 98.875 11 95.625V20.3125C11 17.0625 11.8333 14.625 13.5 13C15.1667 11.3333 17.5625 10.5 20.6875 10.5H96.25C99.3333 10.5 101.708 11.3333 103.375 13C105.083 14.625 105.938 17.0625 105.938 20.3125V95.625C105.938 98.875 105.083 101.333 103.375 103C101.708 104.625 99.3333 105.438 96.25 105.438H20.6875ZM38.875 73.3125C40.25 73.3125 41.3542 72.875 42.1875 72C43.0625 71.125 43.5 69.9375 43.5 68.4375V57.625L42.5625 47.9375L51.5625 57.5L74.5625 80.5625C75.5208 81.5208 76.7083 82 78.125 82C79.5 82 80.6042 81.5833 81.4375 80.75C82.2708 79.875 82.6875 78.7292 82.6875 77.3125C82.6875 76.1042 82.1875 75 81.1875 74L58.1875 50.9375L48.4375 41.875L57.6875 42.875H69.0625C70.5625 42.875 71.75 42.4583 72.625 41.625C73.5417 40.7917 74 39.6667 74 38.25C74 36.875 73.5625 35.7708 72.6875 34.9375C71.8125 34.1042 70.6458 33.6875 69.1875 33.6875H39.5C37.9167 33.6875 36.6458 34.0833 35.6875 34.875C34.7708 35.6667 34.3125 37 34.3125 38.875V68.3125C34.3125 69.7708 34.7292 70.9792 35.5625 71.9375C36.3958 72.8542 37.5 73.3125 38.875 73.3125Z" fill="white"/>
</svg>
