<svg xmlns="http://www.w3.org/2000/svg" width="24" height="24"><path style="stroke:none;fill-rule:nonzero;fill:#fff;fill-opacity:1" d="M3.027 23.223c.266 0 .516-.055.75-.16.243-.106.5-.239.778-.391l17.207-8.985c.574-.304.965-.609 1.18-.906.214-.293.324-.656.32-1.027 0-.383-.106-.723-.32-1.024-.215-.296-.606-.597-1.18-.894l-17.207-9c-.285-.14-.551-.27-.793-.371a1.583 1.583 0 0 0-.75-.176c-.489 0-.883.188-1.176.563-.285.37-.43.875-.43 1.5l.012 18.808c0 .621.145 1.121.43 1.496.297.375.687.563 1.18.563Zm0 0"/></svg>