<?xml version="1.0" encoding="UTF-8"?>
<svg xmlns="http://www.w3.org/2000/svg" xmlns:xlink="http://www.w3.org/1999/xlink" width="24" height="24" viewBox="0 0 24 24" version="1.1">
<g id="surface1">
<path style=" stroke:none;fill-rule:nonzero;fill:rgb(100%,100%,100%);fill-opacity:1;" d="M 22.648438 3.320312 C 22.648438 2.832031 22.472656 2.441406 22.125 2.15625 C 21.777344 1.863281 21.308594 1.714844 20.71875 1.714844 L 3.253906 1.699219 C 2.675781 1.699219 2.210938 1.847656 1.863281 2.144531 C 1.511719 2.429688 1.339844 2.816406 1.339844 3.308594 C 1.339844 3.574219 1.386719 3.832031 1.488281 4.070312 C 1.59375 4.304688 1.714844 4.5625 1.847656 4.847656 L 10.207031 22.058594 C 10.480469 22.628906 10.757812 23.023438 11.035156 23.238281 C 11.320312 23.449219 11.636719 23.558594 11.988281 23.558594 C 12.34375 23.558594 12.660156 23.449219 12.9375 23.238281 C 13.214844 23.023438 13.496094 22.628906 13.78125 22.058594 L 22.125 4.847656 C 22.269531 4.570312 22.386719 4.316406 22.488281 4.085938 C 22.59375 3.84375 22.648438 3.589844 22.648438 3.320312 Z M 20.089844 4.003906 C 20.089844 4.03125 20.082031 4.058594 20.0625 4.085938 C 20.054688 4.113281 20.042969 4.144531 20.035156 4.179688 L 12.148438 20.558594 C 12.128906 20.59375 12.105469 20.625 12.082031 20.652344 C 12.054688 20.667969 12.023438 20.679688 11.988281 20.679688 C 11.949219 20.679688 11.917969 20.667969 11.894531 20.652344 C 11.875 20.625 11.855469 20.59375 11.839844 20.558594 L 3.949219 4.164062 C 3.933594 4.128906 3.917969 4.097656 3.910156 4.070312 C 3.902344 4.042969 3.898438 4.019531 3.898438 3.992188 C 3.898438 3.902344 3.945312 3.855469 4.042969 3.855469 L 19.929688 3.871094 C 20.035156 3.871094 20.089844 3.914062 20.089844 4.003906 Z M 20.089844 4.003906 "/>
</g>
</svg>
