<svg width="103" height="100" viewBox="0 0 103 100" fill="none" xmlns="http://www.w3.org/2000/svg">
<path d="M95.1875 0.25C93.9375 0.25 92.75 0.5 91.625 1C90.5417 1.45833 89.3542 2 88.0625 2.625L7.75 41.625C5.08333 42.9167 3.25 44.2083 2.25 45.5C1.25 46.7917 0.75 48.2708 0.75 49.9375C0.75 51.6042 1.25 53.0833 2.25 54.375C3.25 55.6667 5.08333 56.9792 7.75 58.3125L88.0625 97.25C89.3958 97.9167 90.6042 98.4792 91.6875 98.9375C92.8125 99.3958 94 99.625 95.25 99.625C97.5417 99.625 99.3542 98.8125 100.688 97.1875C102.021 95.5625 102.688 93.3958 102.688 90.6875V9.1875C102.688 6.47917 102 4.3125 100.625 2.6875C99.2917 1.0625 97.4792 0.25 95.1875 0.25ZM92 12.125C92.4167 12.125 92.625 12.375 92.625 12.875L92.6875 87C92.6875 87.5 92.4792 87.75 92.0625 87.75C91.9375 87.75 91.8125 87.7292 91.6875 87.6875C91.5625 87.6042 91.4375 87.5417 91.3125 87.5L14.75 50.625C14.5833 50.5833 14.4375 50.5 14.3125 50.375C14.2292 50.25 14.1875 50.1042 14.1875 49.9375C14.1875 49.7708 14.2292 49.6458 14.3125 49.5625C14.4375 49.4375 14.5833 49.3333 14.75 49.25L91.25 12.4375C91.375 12.3542 91.5 12.2917 91.625 12.25C91.75 12.1667 91.875 12.125 92 12.125Z" fill="white"/>
</svg>
