<svg width="128" height="128" viewBox="0 0 128 128" fill="none" xmlns="http://www.w3.org/2000/svg">
<path d="M63.9375 127.625C72.6458 127.625 80.8333 125.958 88.5 122.625C96.2083 119.292 103 114.688 108.875 108.812C114.75 102.938 119.354 96.1667 122.688 88.5C126.021 80.7917 127.688 72.5833 127.688 63.875C127.688 55.1667 126.021 46.9792 122.688 39.3125C119.354 31.6042 114.75 24.8125 108.875 18.9375C103 13.0625 96.2083 8.45833 88.5 5.125C80.7917 1.79167 72.5833 0.125 63.875 0.125C55.1667 0.125 46.9583 1.79167 39.25 5.125C31.5833 8.45833 24.8125 13.0625 18.9375 18.9375C13.1042 24.8125 8.52083 31.6042 5.1875 39.3125C1.85417 46.9792 0.1875 55.1667 0.1875 63.875C0.1875 72.5833 1.85417 80.7917 5.1875 88.5C8.52083 96.1667 13.125 102.938 19 108.812C24.875 114.688 31.6458 119.292 39.3125 122.625C47.0208 125.958 55.2292 127.625 63.9375 127.625ZM63.9375 117C56.5625 117 49.6667 115.625 43.25 112.875C36.8333 110.125 31.1875 106.333 26.3125 101.5C21.4792 96.625 17.6875 90.9792 14.9375 84.5625C12.2292 78.1458 10.875 71.25 10.875 63.875C10.875 56.5 12.2292 49.6042 14.9375 43.1875C17.6875 36.7708 21.4792 31.125 26.3125 26.25C31.1458 21.375 36.7708 17.5833 43.1875 14.875C49.6042 12.125 56.5 10.75 63.875 10.75C71.25 10.75 78.1458 12.125 84.5625 14.875C91.0208 17.5833 96.6667 21.375 101.5 26.25C106.375 31.125 110.188 36.7708 112.938 43.1875C115.688 49.6042 117.062 56.5 117.062 63.875C117.062 71.25 115.688 78.1458 112.938 84.5625C110.229 90.9792 106.438 96.625 101.562 101.5C96.6875 106.333 91.0417 110.125 84.625 112.875C78.2083 115.625 71.3125 117 63.9375 117ZM36.9375 63.8125C38.1458 63.8125 39.1667 63.3958 40 62.5625C40.875 61.6875 41.3125 60.625 41.3125 59.375V56.375L40.6875 46.4375L54.1875 60.6875C55.1042 61.6458 56.2083 62.125 57.5 62.125C58.7917 62.125 59.8958 61.6667 60.8125 60.75C61.7292 59.8333 62.1667 58.7292 62.125 57.4375C62.125 56.1042 61.6667 55 60.75 54.125L46.6875 40.625L56.25 41.25L59.3125 41.3125C60.5208 41.3125 61.5417 40.875 62.375 40C63.25 39.125 63.6875 38.0833 63.6875 36.875C63.6875 35.6667 63.25 34.6458 62.375 33.8125C61.5417 32.9375 60.5208 32.5 59.3125 32.5H37.625C36 32.5 34.7292 32.8958 33.8125 33.6875C32.9375 34.4792 32.5 35.7917 32.5 37.625V59.375C32.5 60.625 32.9167 61.6875 33.75 62.5625C34.625 63.3958 35.6875 63.8125 36.9375 63.8125ZM68.5 95.3125H90.125C91.75 95.3125 93.0208 94.9167 93.9375 94.125C94.8542 93.3333 95.3125 92.0208 95.3125 90.1875V68.4375C95.3125 67.1875 94.875 66.1458 94 65.3125C93.1667 64.4375 92.125 64 90.875 64C89.6667 64 88.625 64.4375 87.75 65.3125C86.9167 66.1458 86.5 67.1875 86.5 68.4375V71.4375L87.125 81.375L73.625 67.125C72.7083 66.1667 71.6042 65.6875 70.3125 65.6875C69.0208 65.6875 67.9167 66.1458 67 67.0625C66.0833 67.9792 65.625 69.1042 65.625 70.4375C65.6667 71.7292 66.1458 72.8125 67.0625 73.6875L81.125 87.1875L71.5625 86.5625L68.5 86.5C67.2917 86.5 66.25 86.9375 65.375 87.8125C64.5 88.6875 64.0625 89.7292 64.0625 90.9375C64.0625 92.1458 64.5 93.1875 65.375 94.0625C66.25 94.8958 67.2917 95.3125 68.5 95.3125Z" fill="white"/>
</svg>
