<svg xmlns="http://www.w3.org/2000/svg" width="24" height="24"><path style="stroke:none;fill-rule:nonzero;fill:#fff;fill-opacity:1" d="M12 23.05c1.633 0 3.168-.292 4.605-.882a12.22 12.22 0 0 0 3.82-2.438 11.467 11.467 0 0 0 2.59-3.582c.626-1.363.938-2.808.938-4.347a10.2 10.2 0 0 0-.937-4.332 11.53 11.53 0 0 0-2.59-3.598 12.361 12.361 0 0 0-3.82-2.437A12.166 12.166 0 0 0 11.987.55c-1.633 0-3.172.293-4.617.883A12.307 12.307 0 0 0 3.562 3.87 11.523 11.523 0 0 0 .985 7.465 10.2 10.2 0 0 0 .047 11.8c0 1.539.312 2.984.937 4.347a11.467 11.467 0 0 0 2.59 3.582 12.236 12.236 0 0 0 3.809 2.438c1.445.59 2.984.883 4.617.883Zm0-1.874a10.222 10.222 0 0 1-7.055-2.734 9.548 9.548 0 0 1-2.133-2.989 8.83 8.83 0 0 1-.761-3.652c0-1.301.254-2.52.761-3.649A9.52 9.52 0 0 1 4.946 5.16 9.82 9.82 0 0 1 8.11 3.156c1.204-.488 2.496-.73 3.88-.73 1.382 0 2.675.242 3.878.73a9.701 9.701 0 0 1 3.176 2.004 9.432 9.432 0 0 1 2.145 2.992 8.685 8.685 0 0 1 .773 3.649c0 1.3-.258 2.52-.773 3.652a9.22 9.22 0 0 1-2.133 2.988A10.222 10.222 0 0 1 12 21.176Zm.012-16.235c-.235 0-.465.102-.692.309L7.934 8.438a.91.91 0 0 0-.188.253.817.817 0 0 0-.059.32c0 .227.083.419.247.575a.88.88 0 0 0 .609.219.777.777 0 0 0 .34-.067c.105-.039.199-.101.281-.175l.867-.836 1.196-1.348-.094 2.336v4.16l.094 2.34-1.196-1.348-.867-.836a.887.887 0 0 0-.621-.242.843.843 0 0 0-.61.23.712.712 0 0 0-.245.563c0 .117.019.223.058.32a.91.91 0 0 0 .188.254l3.386 3.184c.227.207.457.308.692.308.218 0 .445-.101.68-.308l3.398-3.184a.743.743 0 0 0 .234-.574.712.712 0 0 0-.246-.562.819.819 0 0 0-.598-.235.97.97 0 0 0-.351.067.973.973 0 0 0-.27.175l-.879.84-1.183 1.336.094-2.328v-4.16l-.094-2.324 1.183 1.336.88.835a.88.88 0 0 0 .621.242.834.834 0 0 0 .597-.218.76.76 0 0 0 .246-.574c0-.11-.02-.219-.058-.32a.676.676 0 0 0-.176-.255L12.69 5.25c-.234-.207-.46-.309-.68-.309Zm0 0"/></svg>