<?xml version="1.0" encoding="UTF-8"?>
<svg xmlns="http://www.w3.org/2000/svg" xmlns:xlink="http://www.w3.org/1999/xlink" width="24" height="19.5" viewBox="0 0 24 19.5" version="1.1">
<g id="surface1">
<path style=" stroke:none;fill-rule:nonzero;fill:rgb(100%,100%,100%);fill-opacity:1;" d="M 22.875 9.539062 C 22.875 9.242188 22.757812 8.980469 22.523438 8.753906 L 14.753906 1.007812 C 14.628906 0.882812 14.5 0.792969 14.367188 0.738281 C 14.242188 0.683594 14.109375 0.65625 13.96875 0.65625 C 13.679688 0.65625 13.4375 0.753906 13.242188 0.949219 C 13.046875 1.136719 12.949219 1.375 12.949219 1.664062 C 12.949219 1.804688 12.972656 1.941406 13.019531 2.074219 C 13.066406 2.199219 13.136719 2.308594 13.230469 2.402344 L 15.855469 5.074219 L 20.507812 9.316406 L 20.742188 8.730469 L 16.96875 8.496094 L 2.144531 8.496094 C 1.839844 8.496094 1.589844 8.59375 1.394531 8.789062 C 1.207031 8.984375 1.113281 9.234375 1.113281 9.539062 C 1.113281 9.84375 1.207031 10.09375 1.394531 10.289062 C 1.589844 10.484375 1.839844 10.582031 2.144531 10.582031 L 16.96875 10.582031 L 20.742188 10.347656 L 20.507812 9.773438 L 15.855469 14.003906 L 13.230469 16.675781 C 13.136719 16.769531 13.066406 16.882812 13.019531 17.015625 C 12.972656 17.140625 12.949219 17.273438 12.949219 17.414062 C 12.949219 17.703125 13.046875 17.941406 13.242188 18.128906 C 13.4375 18.324219 13.679688 18.421875 13.96875 18.421875 C 14.25 18.421875 14.503906 18.3125 14.730469 18.09375 L 22.523438 10.324219 C 22.757812 10.097656 22.875 9.835938 22.875 9.539062 Z M 22.875 9.539062 "/>
</g>
</svg>
