<svg width="16" height="15" viewBox="0 0 16 15" fill="none" xmlns="http://www.w3.org/2000/svg">
<path d="M3.25781 14.5625H12.7344C13.5521 14.5625 14.1641 14.3594 14.5703 13.9531C14.9818 13.5521 15.1875 12.9479 15.1875 12.1406V2.60156C15.1875 1.79427 14.9818 1.1901 14.5703 0.789062C14.1641 0.382812 13.5521 0.179688 12.7344 0.179688H3.25781C2.4401 0.179688 1.82552 0.382812 1.41406 0.789062C1.00781 1.1901 0.804688 1.79427 0.804688 2.60156V12.1406C0.804688 12.9479 1.00781 13.5521 1.41406 13.9531C1.82552 14.3594 2.4401 14.5625 3.25781 14.5625ZM3.27344 13.3047C2.88281 13.3047 2.58333 13.2031 2.375 13C2.16667 12.7917 2.0625 12.4844 2.0625 12.0781V2.66406C2.0625 2.25781 2.16667 1.95312 2.375 1.75C2.58333 1.54167 2.88281 1.4375 3.27344 1.4375H12.7188C13.1042 1.4375 13.401 1.54167 13.6094 1.75C13.8229 1.95312 13.9297 2.25781 13.9297 2.66406V12.0781C13.9297 12.4844 13.8229 12.7917 13.6094 13C13.401 13.2031 13.1042 13.3047 12.7188 13.3047H3.27344ZM5.54688 9.28906C5.71875 9.28906 5.85677 9.23438 5.96094 9.125C6.07031 9.01562 6.125 8.86719 6.125 8.67969V7.32812L6.00781 6.11719L7.13281 7.3125L10.0078 10.1953C10.1276 10.3151 10.276 10.375 10.4531 10.375C10.625 10.375 10.763 10.3229 10.8672 10.2188C10.9714 10.1094 11.0234 9.96615 11.0234 9.78906C11.0234 9.63802 10.9609 9.5 10.8359 9.375L7.96094 6.49219L6.74219 5.35938L7.89844 5.48438H9.32031C9.50781 5.48438 9.65625 5.43229 9.76562 5.32812C9.88021 5.22396 9.9375 5.08333 9.9375 4.90625C9.9375 4.73438 9.88281 4.59635 9.77344 4.49219C9.66406 4.38802 9.51823 4.33594 9.33594 4.33594H5.625C5.42708 4.33594 5.26823 4.38542 5.14844 4.48438C5.03385 4.58333 4.97656 4.75 4.97656 4.98438V8.66406C4.97656 8.84635 5.02865 8.9974 5.13281 9.11719C5.23698 9.23177 5.375 9.28906 5.54688 9.28906Z" fill="white"/>
</svg>
