<svg width="94" height="94" viewBox="0 0 94 94" fill="none" xmlns="http://www.w3.org/2000/svg">
<path d="M93.25 24.25C93.25 22.5417 92.6667 21.125 91.5 20C90.375 18.875 89.0625 18.3125 87.5625 18.3125C86.0208 18.3125 84.6875 18.8958 83.5625 20.0625C82.4792 21.1875 81.9375 22.5 81.9375 24V47.0625L83.0625 76.25L72.75 64.625L10.6875 2.5625C9.5625 1.4375 8.25 0.875 6.75 0.875C5.70833 0.875 4.75 1.16667 3.875 1.75C3 2.29167 2.29167 3.02083 1.75 3.9375C1.20833 4.8125 0.9375 5.75 0.9375 6.75C0.9375 8.20833 1.52083 9.52083 2.6875 10.6875L64.625 72.6875L76.25 82.9375L45.75 81.9375H24C22.5417 81.9375 21.2292 82.5 20.0625 83.625C18.9375 84.7083 18.375 86 18.375 87.5C18.375 89 18.9167 90.3125 20 91.4375C21.0833 92.5625 22.5 93.125 24.25 93.125H87.125C89 93.125 90.4792 92.5833 91.5625 91.5C92.6458 90.375 93.1875 88.9167 93.1875 87.125L93.25 24.25Z" fill="white"/>
</svg>
