<svg width="18" height="19" viewBox="0 0 18 19" fill="none" xmlns="http://www.w3.org/2000/svg">
<path d="M1.01562 11.0859L7.27344 17.3438C7.85156 17.9219 8.42708 18.2135 9 18.2188C9.57292 18.224 10.1458 17.9401 10.7188 17.3672L17.0078 11.0703C17.5807 10.5026 17.8646 9.93229 17.8594 9.35938C17.8542 8.78125 17.5625 8.20312 16.9844 7.625L10.7344 1.375C10.1562 0.796875 9.58073 0.505208 9.00781 0.5C8.4349 0.494792 7.86198 0.778646 7.28906 1.35156L0.992188 7.64062C0.419271 8.21875 0.135417 8.79427 0.140625 9.36719C0.145833 9.9349 0.4375 10.5078 1.01562 11.0859ZM1.92188 10.2188C1.64583 9.9375 1.50521 9.65104 1.5 9.35938C1.49479 9.06771 1.63802 8.77865 1.92969 8.49219L8.13281 2.28906C8.41927 2.0026 8.70833 1.85938 9 1.85938C9.29167 1.85938 9.57812 2 9.85938 2.28125L16.0781 8.5C16.3542 8.77604 16.4948 9.0625 16.5 9.35938C16.5052 9.65104 16.362 9.9401 16.0703 10.2266L9.86719 16.4297C9.57552 16.7161 9.28385 16.8594 8.99219 16.8594C8.70052 16.8594 8.41667 16.7214 8.14062 16.4453L1.92188 10.2188ZM5.60938 11.8125C5.60938 12.0365 5.66406 12.2109 5.77344 12.3359C5.88281 12.4609 6.03646 12.5234 6.23438 12.5234C6.4375 12.5182 6.59115 12.4557 6.69531 12.3359C6.80469 12.2109 6.85938 12.0365 6.85938 11.8125V9.64062C6.85938 9.28646 6.94271 9.02604 7.10938 8.85938C7.28125 8.69271 7.53646 8.60938 7.875 8.60938H9.91406V9.83594C9.91406 10.0859 10.026 10.2578 10.25 10.3516C10.4792 10.4401 10.7005 10.3906 10.9141 10.2031L12.7734 8.59375C13.0078 8.39062 13.125 8.1875 13.125 7.98438C13.125 7.77604 13.0078 7.57031 12.7734 7.36719L10.9141 5.75C10.7682 5.625 10.6172 5.5651 10.4609 5.57031C10.3099 5.57552 10.1797 5.6276 10.0703 5.72656C9.96615 5.82552 9.91406 5.95833 9.91406 6.125V7.35156H7.85156C7.09635 7.35156 6.53385 7.53646 6.16406 7.90625C5.79427 8.27083 5.60938 8.82812 5.60938 9.57812V11.8125Z" fill="white"/>
</svg>
