<svg xmlns="http://www.w3.org/2000/svg" width="24" height="24"><path style="stroke:none;fill-rule:nonzero;fill:#fff;fill-opacity:1" d="M9.93 12.328a1.352 1.352 0 0 0-.196-.762c-.129-.195-.308-.304-.492-.293H3.914l-1.555.082 2.579-3.738c.066-.097.117-.219.148-.351.031-.13.047-.262.047-.399 0-.3-.067-.539-.203-.726-.125-.192-.301-.301-.485-.293-.195.004-.386.125-.523.34L.352 11.53a1.84 1.84 0 0 0-.18.375c-.082.262-.082.57 0 .832.047.133.105.258.18.375l3.57 5.344c.137.215.324.336.523.34.18.008.356-.094.485-.281.136-.192.21-.461.203-.739 0-.14-.016-.277-.047-.41a.998.998 0 0 0-.149-.34L2.36 13.301l1.555.07h5.328c.184.012.363-.098.492-.293.133-.2.204-.469.196-.75ZM12 23.684c.188.007.367-.098.5-.293.129-.2.203-.47.195-.75V2.426c0-.297-.066-.54-.195-.727-.133-.195-.313-.304-.5-.293-.188-.008-.371.098-.508.293a1.257 1.257 0 0 0-.195.727V22.64c-.008.28.062.55.195.75.137.195.32.3.508.293Zm2.07-11.356c-.008.277.059.547.188.75.133.195.312.3.5.293h5.32l1.563-.07-2.578 3.726a.998.998 0 0 0-.149.34c-.031.133-.047.27-.047.41 0 .301.067.547.195.739.13.187.305.289.485.28a.571.571 0 0 0 .281-.081.792.792 0 0 0 .25-.258l3.57-5.344c.07-.11.13-.238.172-.375a1.266 1.266 0 0 0 0-.832 1.503 1.503 0 0 0-.172-.375l-3.57-5.344c-.14-.218-.332-.34-.531-.34-.18-.007-.356.102-.485.294a1.228 1.228 0 0 0-.195.726c0 .137.016.266.047.399.031.136.082.254.148.351l2.579 3.738-1.563-.082h-5.32c-.188-.007-.367.098-.5.293a1.39 1.39 0 0 0-.188.762Zm0 0"/></svg>