<svg width="128" height="128" viewBox="0 0 128 128" fill="none" xmlns="http://www.w3.org/2000/svg">
<path d="M63.9375 127.688C72.6458 127.688 80.8333 126.021 88.5 122.688C96.2083 119.354 103 114.75 108.875 108.875C114.75 103 119.354 96.2292 122.688 88.5625C126.021 80.8542 127.688 72.6458 127.688 63.9375C127.688 55.2292 126.021 47.0417 122.688 39.375C119.354 31.6667 114.75 24.875 108.875 19C103 13.125 96.2083 8.52083 88.5 5.1875C80.7917 1.85417 72.5833 0.1875 63.875 0.1875C55.1667 0.1875 46.9583 1.85417 39.25 5.1875C31.5833 8.52083 24.8125 13.125 18.9375 19C13.1042 24.875 8.52083 31.6667 5.1875 39.375C1.85417 47.0417 0.1875 55.2292 0.1875 63.9375C0.1875 72.6458 1.85417 80.8542 5.1875 88.5625C8.52083 96.2292 13.125 103 19 108.875C24.875 114.75 31.6458 119.354 39.3125 122.688C47.0208 126.021 55.2292 127.688 63.9375 127.688ZM49.375 90.5625C48.5417 90.5625 47.7917 90.375 47.125 90C46.4583 89.625 45.7083 89.0625 44.875 88.3125L18.25 63.3125C17.625 62.6875 17.1875 62.0833 16.9375 61.5C16.7292 60.875 16.625 60.2917 16.625 59.75C16.625 59.125 16.7292 58.5208 16.9375 57.9375C17.1875 57.3542 17.625 56.75 18.25 56.125L44.875 31.25C45.75 30.4167 46.5 29.8125 47.125 29.4375C47.75 29.0625 48.4792 28.875 49.3125 28.875C50.5208 28.875 51.4792 29.1875 52.1875 29.8125C52.9375 30.4375 53.3125 31.1458 53.3125 31.9375V33.5L32.125 52.9375C31.0833 53.8958 30.2917 54.9583 29.75 56.125C29.2083 57.2917 28.9375 58.5 28.9375 59.75C28.9375 61 29.2083 62.2083 29.75 63.375C30.2917 64.5417 31.0833 65.5833 32.125 66.5L53.3125 86.0625V87.625C53.3125 88.375 52.9583 89.0625 52.25 89.6875C51.5417 90.2708 50.5833 90.5625 49.375 90.5625ZM66.375 90.5625C65.625 90.5625 64.875 90.375 64.125 90C63.4167 89.625 62.6667 89.0625 61.875 88.3125L35.3125 63.3125C34.6458 62.6458 34.1875 62.0208 33.9375 61.4375C33.7292 60.8542 33.625 60.2917 33.625 59.75C33.625 59.125 33.7292 58.5417 33.9375 58C34.1875 57.4167 34.6458 56.7917 35.3125 56.125L61.875 31.25C62.75 30.4583 63.5 29.875 64.125 29.5C64.7917 29.0833 65.5208 28.875 66.3125 28.875C67.4792 28.875 68.4375 29.2917 69.1875 30.125C69.9375 30.9583 70.3125 31.9167 70.3125 33V45.8125H71.3125C79.3542 45.8125 85.9167 47.4375 91 50.6875C96.125 53.9375 99.8958 58.5833 102.312 64.625C104.771 70.625 106 77.7708 106 86.0625C106 87.5208 105.667 88.6458 105 89.4375C104.333 90.1875 103.542 90.5625 102.625 90.5625C101.875 90.5625 101.125 90.4167 100.375 90.125C99.6667 89.7917 99.0208 89.1042 98.4375 88.0625C95.6042 82.5625 92 78.8125 87.625 76.8125C83.2917 74.7708 77.8542 73.75 71.3125 73.75H70.3125V86.5625C70.3125 87.7292 69.9375 88.6875 69.1875 89.4375C68.4375 90.1875 67.5 90.5625 66.375 90.5625Z" fill="white"/>
</svg>
