<svg width="18" height="15" viewBox="0 0 18 15" fill="none" xmlns="http://www.w3.org/2000/svg">
<path d="M0.21875 7.35938C0.21875 7.48438 0.247396 7.61979 0.304688 7.76562C0.361979 7.91146 0.466146 8.05469 0.617188 8.19531L6.78125 14.0156C6.96875 14.1927 7.14583 14.3203 7.3125 14.3984C7.47917 14.4818 7.65885 14.5234 7.85156 14.5234C8.11719 14.5234 8.33594 14.4375 8.50781 14.2656C8.67969 14.0938 8.76562 13.875 8.76562 13.6094V10.625H15.1094C15.7292 10.625 16.2083 10.4583 16.5469 10.125C16.8906 9.78646 17.0625 9.3151 17.0625 8.71094V6.01562C17.0625 5.41146 16.8906 4.94271 16.5469 4.60938C16.2083 4.27083 15.7292 4.10156 15.1094 4.10156H8.76562V1.14844C8.76562 0.888021 8.67969 0.664062 8.50781 0.476562C8.33594 0.289062 8.11198 0.195312 7.83594 0.195312C7.64323 0.195312 7.47135 0.239583 7.32031 0.328125C7.16927 0.411458 6.98958 0.552083 6.78125 0.75L0.617188 6.51562C0.466146 6.65625 0.361979 6.79948 0.304688 6.94531C0.247396 7.09115 0.21875 7.22917 0.21875 7.35938ZM1.61719 7.35938C1.61719 7.3125 1.64583 7.26302 1.70312 7.21094L7.26562 1.875C7.28646 1.85938 7.30729 1.84635 7.32812 1.83594C7.34896 1.82031 7.3724 1.8125 7.39844 1.8125C7.47135 1.8125 7.50781 1.84896 7.50781 1.92188V5.02344C7.50781 5.19531 7.59635 5.28125 7.77344 5.28125H15.0938C15.3438 5.28125 15.5365 5.35156 15.6719 5.49219C15.8125 5.6276 15.8828 5.82292 15.8828 6.07812V8.64844C15.8828 9.17969 15.6198 9.44531 15.0938 9.44531H7.77344C7.59635 9.44531 7.50781 9.53125 7.50781 9.70312V12.7266C7.50781 12.8047 7.47396 12.8438 7.40625 12.8438C7.35938 12.8438 7.3151 12.8203 7.27344 12.7734L1.70312 7.50781C1.67188 7.47656 1.64844 7.45052 1.63281 7.42969C1.6224 7.40365 1.61719 7.38021 1.61719 7.35938Z" fill="white"/>
</svg>
