<svg xmlns="http://www.w3.org/2000/svg" width="24" height="24"><path style="stroke:none;fill-rule:nonzero;fill:#fff;fill-opacity:1" d="M.453 17.035c0 .39.14.719.422.98.293.258.625.391 1 .391.387 0 .715-.136.984-.406.282-.27.422-.574.422-.91v-5.336L3 5.02l2.578 2.695 15.5 14.308c.281.262.61.391.985.391.261 0 .5-.062.718-.187.23-.13.41-.29.547-.493.137-.21.203-.43.203-.664 0-.332-.144-.636-.437-.906L7.609 5.84 4.703 3.488l7.625.235h5.438c.363 0 .687-.13.968-.375.293-.262.438-.567.438-.91a1.225 1.225 0 0 0-.406-.91c-.27-.27-.625-.403-1.063-.403H1.984c-.468 0-.84.129-1.109.39-.27.258-.406.594-.406 1.008Zm0 0"/></svg>