<svg xmlns="http://www.w3.org/2000/svg" width="24" height="24"><path style="stroke:none;fill-rule:nonzero;fill:#fff;fill-opacity:1" d="M21.293 1.875A3.967 3.967 0 0 0 19.148.66a13.48 13.48 0 0 0-2.742-.262H7.56c-.985 0-1.891.09-2.72.262a3.974 3.974 0 0 0-2.132 1.215A4.442 4.442 0 0 0 1.57 4.137a16.454 16.454 0 0 0-.234 2.886v9.454c0 1.066.078 2.039.234 2.921a4.31 4.31 0 0 0 1.137 2.262 3.974 3.974 0 0 0 2.133 1.215c.828.172 1.742.262 2.742.262h8.824c1 0 1.914-.09 2.742-.262a3.929 3.929 0 0 0 2.145-1.215 4.351 4.351 0 0 0 1.125-2.262c.164-.882.246-1.859.246-2.925v-9.41a15.8 15.8 0 0 0-.246-2.91 4.34 4.34 0 0 0-1.125-2.278Zm-5.496 13.09c-.274 0-.492-.09-.656-.266-.164-.183-.246-.433-.246-.75v-2.21l.175-2-1.734 1.972-4.43 4.738c-.09.094-.191.168-.304.227a.993.993 0 0 1-.399.074.838.838 0 0 1-.633-.262c-.164-.175-.246-.414-.246-.715 0-.25.098-.476.293-.683l4.442-4.727 1.875-1.875-1.793.2H9.96c-.29 0-.524-.086-.703-.262A.939.939 0 0 1 9 7.738a.939.939 0 0 1 .258-.687c.172-.176.398-.262.68-.262h5.73c.312 0 .559.082.738.25.18.164.27.441.27.824v6.063c0 .308-.082.558-.246.75a.776.776 0 0 1-.633.289Zm0 0"/></svg>