<?xml version="1.0" encoding="UTF-8"?>
<svg xmlns="http://www.w3.org/2000/svg" xmlns:xlink="http://www.w3.org/1999/xlink" width="24" height="22.5" viewBox="0 0 24 22.5" version="1.1">
<g id="surface1">
<path style=" stroke:none;fill-rule:nonzero;fill:rgb(100%,100%,100%);fill-opacity:1;" d="M 4.886719 21.84375 L 19.101562 21.84375 C 20.328125 21.84375 21.246094 21.539062 21.855469 20.929688 C 22.472656 20.328125 22.78125 19.421875 22.78125 18.210938 L 22.78125 3.902344 C 22.78125 2.691406 22.472656 1.785156 21.855469 1.183594 C 21.246094 0.574219 20.328125 0.269531 19.101562 0.269531 L 4.886719 0.269531 C 3.660156 0.269531 2.738281 0.574219 2.121094 1.183594 C 1.511719 1.785156 1.207031 2.691406 1.207031 3.902344 L 1.207031 18.210938 C 1.207031 19.421875 1.511719 20.328125 2.121094 20.929688 C 2.738281 21.539062 3.660156 21.84375 4.886719 21.84375 Z M 8.203125 14.027344 C 7.9375 14.027344 7.722656 13.9375 7.558594 13.757812 C 7.402344 13.578125 7.324219 13.34375 7.324219 13.054688 L 7.324219 7.371094 C 7.324219 7.011719 7.414062 6.753906 7.59375 6.597656 C 7.773438 6.441406 8.019531 6.363281 8.332031 6.363281 L 14.0625 6.363281 C 14.34375 6.363281 14.570312 6.445312 14.742188 6.609375 C 14.914062 6.773438 15 6.988281 15 7.253906 C 15 7.519531 14.910156 7.734375 14.730469 7.898438 C 14.558594 8.0625 14.328125 8.144531 14.039062 8.144531 L 11.859375 8.144531 L 10.066406 7.957031 L 11.953125 9.714844 L 16.382812 14.144531 C 16.578125 14.339844 16.675781 14.554688 16.675781 14.789062 C 16.675781 15.070312 16.59375 15.292969 16.429688 15.457031 C 16.273438 15.621094 16.0625 15.703125 15.796875 15.703125 C 15.648438 15.703125 15.515625 15.679688 15.398438 15.632812 C 15.28125 15.578125 15.179688 15.507812 15.09375 15.421875 L 10.675781 10.980469 L 8.929688 9.128906 L 9.105469 11.003906 L 9.105469 13.078125 C 9.105469 13.375 9.023438 13.609375 8.859375 13.78125 C 8.695312 13.945312 8.476562 14.027344 8.203125 14.027344 Z M 8.203125 14.027344 "/>
</g>
</svg>
