<svg width="128" height="128" viewBox="0 0 128 128" fill="none" xmlns="http://www.w3.org/2000/svg">
<path d="M63.9375 127.625C72.6458 127.625 80.8333 125.958 88.5 122.625C96.2083 119.292 103 114.688 108.875 108.812C114.75 102.938 119.354 96.1667 122.688 88.5C126.021 80.7917 127.688 72.5833 127.688 63.875C127.688 55.1667 126.021 46.9792 122.688 39.3125C119.354 31.6042 114.75 24.8125 108.875 18.9375C103 13.0625 96.2083 8.45833 88.5 5.125C80.7917 1.79167 72.5833 0.125 63.875 0.125C55.1667 0.125 46.9583 1.79167 39.25 5.125C31.5833 8.45833 24.8125 13.0625 18.9375 18.9375C13.1042 24.8125 8.52083 31.6042 5.1875 39.3125C1.85417 46.9792 0.1875 55.1667 0.1875 63.875C0.1875 72.5833 1.85417 80.7917 5.1875 88.5C8.52083 96.1667 13.125 102.938 19 108.812C24.875 114.688 31.6458 119.292 39.3125 122.625C47.0208 125.958 55.2292 127.625 63.9375 127.625ZM38.0625 67.4375C36.7292 66.6042 36.0625 65.4375 36.0625 63.9375C36.0625 62.3958 36.7292 61.25 38.0625 60.5L74.75 38.75C76.125 37.9167 77.5417 37.7917 79 38.375C80.5 38.9167 81.25 39.9583 81.25 41.5V86.3125C81.25 87.8542 80.5417 88.9375 79.125 89.5625C77.7083 90.1458 76.25 89.9792 74.75 89.0625L38.0625 67.4375Z" fill="white"/>
</svg>
