<?xml version="1.0" encoding="UTF-8"?>
<svg xmlns="http://www.w3.org/2000/svg" xmlns:xlink="http://www.w3.org/1999/xlink" width="24" height="20" viewBox="0 0 24 20" version="1.1">
<g id="surface1">
<path style=" stroke:none;fill-rule:nonzero;fill:rgb(100%,100%,100%);fill-opacity:1;" d="M 13.519531 19.363281 C 13.769531 19.363281 14.007812 19.308594 14.230469 19.199219 C 14.457031 19.09375 14.699219 18.921875 14.949219 18.6875 L 23.167969 10.925781 C 23.367188 10.738281 23.507812 10.546875 23.582031 10.355469 C 23.660156 10.160156 23.699219 9.980469 23.699219 9.8125 C 23.699219 9.640625 23.660156 9.453125 23.582031 9.261719 C 23.507812 9.066406 23.367188 8.875 23.167969 8.6875 L 14.949219 1 C 14.671875 0.734375 14.425781 0.546875 14.21875 0.4375 C 14.015625 0.320312 13.792969 0.261719 13.542969 0.261719 C 13.171875 0.261719 12.871094 0.386719 12.636719 0.636719 C 12.40625 0.886719 12.292969 1.183594 12.292969 1.53125 L 12.292969 5.46875 L 11.988281 5.46875 C 10.121094 5.46875 8.507812 5.757812 7.144531 6.332031 C 5.792969 6.910156 4.675781 7.742188 3.800781 8.832031 C 2.933594 9.921875 2.289062 11.238281 1.863281 12.78125 C 1.449219 14.316406 1.238281 16.046875 1.238281 17.96875 C 1.238281 18.421875 1.347656 18.765625 1.5625 19 C 1.785156 19.242188 2.035156 19.363281 2.3125 19.363281 C 2.535156 19.363281 2.757812 19.320312 2.980469 19.230469 C 3.207031 19.140625 3.414062 18.925781 3.59375 18.59375 C 4.199219 17.453125 4.894531 16.566406 5.6875 15.925781 C 6.480469 15.28125 7.390625 14.828125 8.425781 14.5625 C 9.460938 14.296875 10.648438 14.167969 11.988281 14.167969 L 12.292969 14.167969 L 12.292969 18.144531 C 12.292969 18.5 12.40625 18.792969 12.636719 19.019531 C 12.871094 19.25 13.167969 19.363281 13.519531 19.363281 Z M 14.113281 17.125 C 14.015625 17.125 13.96875 17.074219 13.96875 16.96875 L 13.96875 12.9375 C 13.96875 12.707031 13.855469 12.59375 13.625 12.59375 L 12.230469 12.59375 C 9.757812 12.59375 7.734375 12.988281 6.167969 13.78125 C 4.597656 14.574219 3.507812 15.621094 2.894531 16.925781 C 2.882812 16.960938 2.867188 16.988281 2.855469 17.011719 C 2.839844 17.023438 2.820312 17.03125 2.792969 17.03125 C 2.742188 17.03125 2.71875 16.992188 2.71875 16.917969 C 2.761719 15.9375 2.890625 14.972656 3.105469 14.019531 C 3.320312 13.0625 3.648438 12.164062 4.09375 11.324219 C 4.546875 10.484375 5.132812 9.742188 5.855469 9.105469 C 6.578125 8.457031 7.460938 7.953125 8.511719 7.59375 C 9.558594 7.226562 10.796875 7.042969 12.230469 7.042969 L 13.625 7.042969 C 13.855469 7.042969 13.96875 6.925781 13.96875 6.699219 L 13.96875 2.5625 C 13.96875 2.464844 14.019531 2.417969 14.125 2.417969 C 14.152344 2.417969 14.179688 2.425781 14.207031 2.449219 C 14.242188 2.460938 14.273438 2.480469 14.300781 2.5 L 21.71875 9.613281 C 21.789062 9.683594 21.824219 9.75 21.824219 9.8125 C 21.824219 9.839844 21.816406 9.871094 21.800781 9.90625 C 21.789062 9.933594 21.761719 9.96875 21.71875 10.011719 L 14.292969 17.03125 C 14.234375 17.09375 14.175781 17.125 14.113281 17.125 Z M 14.113281 17.125 "/>
</g>
</svg>
