<svg width="128" height="128" viewBox="0 0 128 128" fill="none" xmlns="http://www.w3.org/2000/svg">
<path d="M63.9375 127.688C72.6458 127.688 80.8333 126.021 88.5 122.688C96.2083 119.354 103 114.75 108.875 108.875C114.75 103 119.354 96.2292 122.688 88.5625C126.021 80.8542 127.688 72.6458 127.688 63.9375C127.688 55.2292 126.021 47.0417 122.688 39.375C119.354 31.6667 114.75 24.875 108.875 19C103 13.125 96.2083 8.52083 88.5 5.1875C80.7917 1.85417 72.5833 0.1875 63.875 0.1875C55.1667 0.1875 46.9583 1.85417 39.25 5.1875C31.5833 8.52083 24.8125 13.125 18.9375 19C13.1042 24.875 8.52083 31.6667 5.1875 39.375C1.85417 47.0417 0.1875 55.2292 0.1875 63.9375C0.1875 72.6458 1.85417 80.8542 5.1875 88.5625C8.52083 96.2292 13.125 103 19 108.875C24.875 114.75 31.6458 119.354 39.3125 122.688C47.0208 126.021 55.2292 127.688 63.9375 127.688ZM92.6875 66.875C92.6875 72.25 91.3958 77.1458 88.8125 81.5625C86.2292 85.9792 82.75 89.5 78.375 92.125C74.0417 94.7083 69.2292 96 63.9375 96C58.6042 96 53.7708 94.7083 49.4375 92.125C45.1042 89.5 41.6458 86 39.0625 81.625C36.4792 77.25 35.1875 72.4167 35.1875 67.125C35.1875 65.9167 35.625 64.8958 36.5 64.0625C37.375 63.1875 38.4167 62.75 39.625 62.75C40.8333 62.75 41.875 63.1875 42.75 64.0625C43.6667 64.8958 44.125 65.9167 44.125 67.125C44.125 70.8333 45 74.1875 46.75 77.1875C48.5417 80.1875 50.9375 82.5833 53.9375 84.375C56.9375 86.1667 60.2708 87.0625 63.9375 87.0625C67.6042 87.0625 70.9375 86.1667 73.9375 84.375C76.9375 82.5833 79.3125 80.1875 81.0625 77.1875C82.8542 74.1875 83.75 70.8333 83.75 67.125C83.75 63.4583 82.8542 60.125 81.0625 57.125C79.3125 54.125 76.9375 51.75 73.9375 50C70.9375 48.2083 67.6042 47.3125 63.9375 47.3125C62.9792 47.3125 62.2083 47.3542 61.625 47.4375L67.875 53.625C68.7083 54.4583 69.125 55.4375 69.125 56.5625C69.125 57.7292 68.7292 58.7083 67.9375 59.5C67.1458 60.2917 66.1458 60.6875 64.9375 60.6875C63.8958 60.6875 62.9792 60.2708 62.1875 59.4375L49.6875 46.9375C48.8958 46.1875 48.5 45.2083 48.5 44C48.5417 42.7917 48.9375 41.7917 49.6875 41L62.0625 28.375C62.3958 28 62.8125 27.6875 63.3125 27.4375C63.8542 27.1875 64.4167 27.0625 65 27.0625C66.1667 27.0625 67.1458 27.4792 67.9375 28.3125C68.7292 29.1042 69.125 30.0625 69.125 31.1875C69.125 31.7708 69 32.3333 68.75 32.875C68.5417 33.375 68.2708 33.8125 67.9375 34.1875L63.4375 38.8125C63.6875 38.7708 63.9583 38.75 64.25 38.75C64.5833 38.7083 64.8958 38.6875 65.1875 38.6875C70.0208 38.6875 74.5208 39.9375 78.6875 42.4375C82.8542 44.9375 86.2292 48.3333 88.8125 52.625C91.3958 56.875 92.6875 61.625 92.6875 66.875Z" fill="white"/>
</svg>
