<svg width="128" height="128" viewBox="0 0 128 128" fill="none" xmlns="http://www.w3.org/2000/svg">
<path d="M63.9375 127.625C72.6458 127.625 80.8333 125.958 88.5 122.625C96.2083 119.292 103 114.688 108.875 108.812C114.75 102.938 119.354 96.1667 122.688 88.5C126.021 80.7917 127.688 72.5833 127.688 63.875C127.688 55.1667 126.021 46.9792 122.688 39.3125C119.354 31.6042 114.75 24.8125 108.875 18.9375C103 13.0625 96.2083 8.45833 88.5 5.125C80.7917 1.79167 72.5833 0.125 63.875 0.125C55.1667 0.125 46.9583 1.79167 39.25 5.125C31.5833 8.45833 24.8125 13.0625 18.9375 18.9375C13.1042 24.8125 8.52083 31.6042 5.1875 39.3125C1.85417 46.9792 0.1875 55.1667 0.1875 63.875C0.1875 72.5833 1.85417 80.7917 5.1875 88.5C8.52083 96.1667 13.125 102.938 19 108.812C24.875 114.688 31.6458 119.292 39.3125 122.625C47.0208 125.958 55.2292 127.625 63.9375 127.625ZM52.0625 89.0625C50.5625 89.9792 49.1042 90.1458 47.6875 89.5625C46.3125 88.9375 45.625 87.8542 45.625 86.3125V41.5C45.625 39.9583 46.3542 38.9167 47.8125 38.375C49.2708 37.8333 50.6875 37.9583 52.0625 38.75L88.8125 60.5C90.1042 61.2917 90.75 62.4375 90.75 63.9375C90.7917 65.4375 90.1458 66.6042 88.8125 67.4375L52.0625 89.0625Z" fill="white"/>
</svg>
