<svg width="128" height="128" viewBox="0 0 128 128" fill="none" xmlns="http://www.w3.org/2000/svg">
<path d="M63.9375 127.688C72.6458 127.688 80.8333 126.021 88.5 122.688C96.2083 119.354 103 114.75 108.875 108.875C114.75 103 119.354 96.2292 122.688 88.5625C126.021 80.8542 127.688 72.6458 127.688 63.9375C127.688 55.2292 126.021 47.0417 122.688 39.375C119.354 31.6667 114.75 24.875 108.875 19C103 13.125 96.2083 8.52083 88.5 5.1875C80.7917 1.85417 72.5833 0.1875 63.875 0.1875C55.1667 0.1875 46.9583 1.85417 39.25 5.1875C31.5833 8.52083 24.8125 13.125 18.9375 19C13.1042 24.875 8.52083 31.6667 5.1875 39.375C1.85417 47.0417 0.1875 55.2292 0.1875 63.9375C0.1875 72.6458 1.85417 80.8542 5.1875 88.5625C8.52083 96.2292 13.125 103 19 108.875C24.875 114.75 31.6458 119.354 39.3125 122.688C47.0208 126.021 55.2292 127.688 63.9375 127.688ZM31.875 91.75C31 91.75 30.1875 91.375 29.4375 90.625C28.6875 89.8333 28.3125 88.6875 28.3125 87.1875C28.3125 78.6458 29.5625 71.2708 32.0625 65.0625C34.5625 58.8542 38.4375 54.0833 43.6875 50.75C48.9792 47.375 55.7708 45.6875 64.0625 45.6875H65.0625V32.5C65.0625 31.375 65.4375 30.3958 66.1875 29.5625C66.9792 28.7292 67.9792 28.3125 69.1875 28.3125C70.0625 28.3125 70.8125 28.5208 71.4375 28.9375C72.1042 29.3125 72.8958 29.9167 73.8125 30.75L101.188 56.3125C101.896 56.9375 102.375 57.5625 102.625 58.1875C102.875 58.8125 103 59.4375 103 60.0625C103 60.6458 102.854 61.25 102.562 61.875C102.312 62.5 101.854 63.125 101.188 63.75L73.8125 89.5C73.0208 90.25 72.25 90.8125 71.5 91.1875C70.7917 91.5625 70 91.75 69.125 91.75C67.9583 91.75 66.9792 91.375 66.1875 90.625C65.4375 89.8333 65.0625 88.875 65.0625 87.75V74.5H64.0625C57.3542 74.5 51.7708 75.5417 47.3125 77.625C42.8958 79.7083 39.1667 83.5625 36.125 89.1875C35.5833 90.3125 34.9167 91.0208 34.125 91.3125C33.375 91.6042 32.625 91.75 31.875 91.75Z" fill="white"/>
</svg>
