<?xml version="1.0" encoding="UTF-8"?>
<svg xmlns="http://www.w3.org/2000/svg" xmlns:xlink="http://www.w3.org/1999/xlink" width="24" height="25.5" viewBox="0 0 24 25.5" version="1.1">
<g id="surface1">
<path style=" stroke:none;fill-rule:nonzero;fill:rgb(100%,100%,100%);fill-opacity:1;" d="M 12 24.492188 C 13.632812 24.492188 15.167969 24.179688 16.605469 23.554688 C 18.050781 22.929688 19.324219 22.066406 20.425781 20.964844 C 21.527344 19.863281 22.390625 18.59375 23.015625 17.15625 C 23.640625 15.710938 23.953125 14.171875 23.953125 12.539062 C 23.953125 10.90625 23.640625 9.371094 23.015625 7.933594 C 22.390625 6.488281 21.527344 5.214844 20.425781 4.113281 C 19.324219 3.011719 18.050781 2.148438 16.605469 1.523438 C 15.160156 0.898438 13.621094 0.585938 11.988281 0.585938 C 10.355469 0.585938 8.816406 0.898438 7.371094 1.523438 C 5.933594 2.148438 4.664062 3.011719 3.5625 4.113281 C 2.46875 5.214844 1.609375 6.488281 0.984375 7.933594 C 0.359375 9.371094 0.046875 10.90625 0.046875 12.539062 C 0.046875 14.171875 0.359375 15.710938 0.984375 17.15625 C 1.609375 18.59375 2.472656 19.863281 3.574219 20.964844 C 4.675781 22.066406 5.945312 22.929688 7.382812 23.554688 C 8.828125 24.179688 10.367188 24.492188 12 24.492188 Z M 15.785156 9.539062 C 16.050781 9.539062 16.261719 9.628906 16.417969 9.808594 C 16.582031 9.988281 16.664062 10.222656 16.664062 10.511719 L 16.664062 16.195312 C 16.664062 16.554688 16.574219 16.8125 16.394531 16.96875 C 16.214844 17.125 15.96875 17.203125 15.65625 17.203125 L 9.925781 17.203125 C 9.644531 17.203125 9.417969 17.121094 9.246094 16.957031 C 9.074219 16.792969 8.988281 16.578125 8.988281 16.3125 C 8.988281 16.046875 9.074219 15.832031 9.246094 15.667969 C 9.425781 15.503906 9.660156 15.421875 9.949219 15.421875 L 12.128906 15.421875 L 13.921875 15.609375 L 12.046875 13.851562 L 7.605469 9.421875 C 7.410156 9.226562 7.3125 9.011719 7.3125 8.777344 C 7.3125 8.496094 7.394531 8.273438 7.558594 8.109375 C 7.722656 7.945312 7.933594 7.863281 8.191406 7.863281 C 8.339844 7.863281 8.472656 7.890625 8.589844 7.945312 C 8.707031 7.992188 8.808594 8.058594 8.894531 8.144531 L 13.324219 12.585938 L 15.058594 14.4375 L 14.882812 12.5625 L 14.882812 10.488281 C 14.882812 10.191406 14.964844 9.960938 15.128906 9.796875 C 15.292969 9.625 15.511719 9.539062 15.785156 9.539062 Z M 15.785156 9.539062 "/>
</g>
</svg>
