<?xml version="1.0" encoding="UTF-8"?>
<svg xmlns="http://www.w3.org/2000/svg" xmlns:xlink="http://www.w3.org/1999/xlink" width="24" height="25.5" viewBox="0 0 24 25.5" version="1.1">
<g id="surface1">
<path style=" stroke:none;fill-rule:nonzero;fill:rgb(100%,100%,100%);fill-opacity:1;" d="M 12 24.363281 C 13.632812 24.363281 15.167969 24.050781 16.605469 23.425781 C 18.050781 22.800781 19.324219 21.9375 20.425781 20.835938 C 21.527344 19.734375 22.390625 18.464844 23.015625 17.027344 C 23.640625 15.582031 23.953125 14.042969 23.953125 12.410156 C 23.953125 10.777344 23.640625 9.242188 23.015625 7.804688 C 22.390625 6.359375 21.527344 5.085938 20.425781 3.984375 C 19.324219 2.882812 18.050781 2.019531 16.605469 1.394531 C 15.160156 0.769531 13.621094 0.457031 11.988281 0.457031 C 10.355469 0.457031 8.816406 0.769531 7.371094 1.394531 C 5.933594 2.019531 4.664062 2.882812 3.5625 3.984375 C 2.46875 5.085938 1.609375 6.359375 0.984375 7.804688 C 0.359375 9.242188 0.046875 10.777344 0.046875 12.410156 C 0.046875 14.042969 0.359375 15.582031 0.984375 17.027344 C 1.609375 18.464844 2.472656 19.734375 3.574219 20.835938 C 4.675781 21.9375 5.945312 22.800781 7.382812 23.425781 C 8.828125 24.050781 10.367188 24.363281 12 24.363281 Z M 5.988281 13.722656 C 5.988281 12.839844 6.183594 12.066406 6.574219 11.402344 C 6.972656 10.738281 7.523438 10.222656 8.226562 9.855469 C 8.9375 9.488281 9.765625 9.304688 10.710938 9.304688 L 14.132812 9.304688 L 15.339844 9.363281 L 14.542969 8.730469 L 13.359375 7.582031 C 13.179688 7.417969 13.089844 7.210938 13.089844 6.960938 C 13.089844 6.703125 13.171875 6.488281 13.335938 6.316406 C 13.5 6.144531 13.707031 6.058594 13.957031 6.058594 C 14.214844 6.058594 14.429688 6.144531 14.601562 6.316406 L 17.660156 9.421875 C 17.871094 9.648438 17.976562 9.898438 17.976562 10.171875 C 17.976562 10.453125 17.871094 10.699219 17.660156 10.910156 L 14.589844 14.050781 C 14.425781 14.222656 14.210938 14.308594 13.945312 14.308594 C 13.703125 14.308594 13.5 14.222656 13.335938 14.050781 C 13.171875 13.871094 13.089844 13.65625 13.089844 13.40625 C 13.089844 13.164062 13.179688 12.949219 13.359375 12.761719 L 14.777344 11.390625 L 15.328125 11.003906 L 14.132812 11.050781 L 10.710938 11.050781 C 9.8125 11.050781 9.089844 11.296875 8.542969 11.789062 C 8.003906 12.28125 7.734375 12.925781 7.734375 13.722656 C 7.734375 14.589844 8.007812 15.289062 8.554688 15.820312 C 9.109375 16.34375 9.832031 16.605469 10.722656 16.605469 L 12.316406 16.605469 C 12.589844 16.605469 12.808594 16.6875 12.972656 16.851562 C 13.144531 17.007812 13.230469 17.214844 13.230469 17.472656 C 13.230469 17.738281 13.144531 17.953125 12.972656 18.117188 C 12.800781 18.273438 12.574219 18.351562 12.292969 18.351562 L 10.722656 18.351562 C 9.777344 18.351562 8.949219 18.160156 8.238281 17.777344 C 7.527344 17.394531 6.972656 16.855469 6.574219 16.160156 C 6.183594 15.464844 5.988281 14.652344 5.988281 13.722656 Z M 5.988281 13.722656 "/>
</g>
</svg>
