<svg width="94" height="94" viewBox="0 0 94 94" fill="none" xmlns="http://www.w3.org/2000/svg">
<path d="M93.25 69.8125L93.1875 6.9375C93.1875 5.14583 92.6458 3.6875 91.5625 2.5625C90.4792 1.4375 89 0.875 87.125 0.875H24.25C22.5 0.875 21.0833 1.45833 20 2.625C18.9167 3.75 18.375 5.0625 18.375 6.5625C18.375 8.0625 18.9375 9.375 20.0625 10.5C21.2292 11.5833 22.5417 12.125 24 12.125H45.75L76.25 11.125L64.625 21.3125L2.6875 83.375C1.52083 84.5417 0.9375 85.8542 0.9375 87.3125C0.9375 88.3125 1.20833 89.2708 1.75 90.1875C2.29167 91.0625 3 91.7708 3.875 92.3125C4.75 92.8542 5.70833 93.125 6.75 93.125C8.25 93.125 9.5625 92.5625 10.6875 91.4375L72.75 29.4375L83.0625 17.75L81.9375 46.9375V70.0625C81.9375 71.5208 82.4792 72.8333 83.5625 74C84.6875 75.1667 86.0208 75.75 87.5625 75.75C89.0625 75.75 90.375 75.1875 91.5 74.0625C92.6667 72.9375 93.25 71.5208 93.25 69.8125Z" fill="white"/>
</svg>
