<svg width="16" height="17" viewBox="0 0 16 17" fill="none" xmlns="http://www.w3.org/2000/svg">
<path d="M8 16.3281C9.08854 16.3281 10.112 16.1198 11.0703 15.7031C12.0339 15.2865 12.8828 14.7109 13.6172 13.9766C14.3516 13.2422 14.9271 12.3958 15.3438 11.4375C15.7604 10.474 15.9688 9.44792 15.9688 8.35938C15.9688 7.27083 15.7604 6.2474 15.3438 5.28906C14.9271 4.32552 14.3516 3.47656 13.6172 2.74219C12.8828 2.00781 12.0339 1.43229 11.0703 1.01562C10.1068 0.598958 9.08073 0.390625 7.99219 0.390625C6.90365 0.390625 5.8776 0.598958 4.91406 1.01562C3.95573 1.43229 3.10938 2.00781 2.375 2.74219C1.64583 3.47656 1.07292 4.32552 0.65625 5.28906C0.239583 6.2474 0.03125 7.27083 0.03125 8.35938C0.03125 9.44792 0.239583 10.474 0.65625 11.4375C1.07292 12.3958 1.64844 13.2422 2.38281 13.9766C3.11719 14.7109 3.96354 15.2865 4.92188 15.7031C5.88542 16.1198 6.91146 16.3281 8 16.3281ZM8.01562 12.5078C7.80208 12.5078 7.63542 12.4479 7.51562 12.3281C7.39583 12.2031 7.33594 12.0339 7.33594 11.8203L7.40625 9.40625L5.22656 10.8203C5.10677 10.8984 4.96615 10.9375 4.80469 10.9375C4.63802 10.9375 4.48958 10.8776 4.35938 10.7578C4.22917 10.638 4.16406 10.474 4.16406 10.2656C4.16406 10.0156 4.29427 9.82031 4.55469 9.67969L6.82812 8.39844L4.55469 7.14844C4.42448 7.07031 4.32552 6.98438 4.25781 6.89062C4.19531 6.79688 4.16406 6.68229 4.16406 6.54688C4.16406 6.33854 4.22917 6.17448 4.35938 6.05469C4.49479 5.9349 4.64323 5.875 4.80469 5.875C4.96615 5.875 5.10677 5.91406 5.22656 5.99219L7.40625 7.38281L7.33594 4.89844C7.33594 4.6849 7.39583 4.51562 7.51562 4.39062C7.63542 4.26042 7.80208 4.19531 8.01562 4.19531C8.22917 4.19531 8.39062 4.25781 8.5 4.38281C8.61458 4.5026 8.66927 4.67448 8.66406 4.89844L8.59375 7.38281L10.7734 5.98438C10.8932 5.90625 11.0339 5.86719 11.1953 5.86719C11.362 5.86719 11.5104 5.92708 11.6406 6.04688C11.7708 6.16667 11.8359 6.33073 11.8359 6.53906C11.8359 6.66927 11.8047 6.78385 11.7422 6.88281C11.6797 6.97656 11.5807 7.0625 11.4453 7.14062L9.15625 8.39844L11.4453 9.6875C11.5755 9.75521 11.6719 9.83594 11.7344 9.92969C11.8021 10.0234 11.8359 10.138 11.8359 10.2734C11.8359 10.4818 11.7682 10.6458 11.6328 10.7656C11.5026 10.8854 11.3568 10.9453 11.1953 10.9453C11.0339 10.9453 10.8932 10.9062 10.7734 10.8281L8.59375 9.40625L8.66406 11.8203C8.66927 12.0391 8.61458 12.2083 8.5 12.3281C8.39062 12.4479 8.22917 12.5078 8.01562 12.5078Z" fill="white"/>
</svg>
