<svg width="128" height="128" viewBox="0 0 128 128" fill="none" xmlns="http://www.w3.org/2000/svg">
<path d="M63.9375 127.562C72.6458 127.562 80.8333 125.896 88.5 122.562C96.2083 119.229 103 114.625 108.875 108.75C114.75 102.875 119.354 96.1042 122.688 88.4375C126.021 80.7292 127.688 72.5208 127.688 63.8125C127.688 55.1042 126.021 46.9167 122.688 39.25C119.354 31.5417 114.75 24.75 108.875 18.875C103 13 96.2083 8.39583 88.5 5.0625C80.7917 1.72917 72.5833 0.0625 63.875 0.0625C55.1667 0.0625 46.9583 1.72917 39.25 5.0625C31.5833 8.39583 24.8125 13 18.9375 18.875C13.1042 24.75 8.52083 31.5417 5.1875 39.25C1.85417 46.9167 0.1875 55.1042 0.1875 63.8125C0.1875 72.5208 1.85417 80.7292 5.1875 88.4375C8.52083 96.1042 13.125 102.875 19 108.75C24.875 114.625 31.6458 119.229 39.3125 122.562C47.0208 125.896 55.2292 127.562 63.9375 127.562ZM63.9375 116.938C56.5625 116.938 49.6667 115.562 43.25 112.812C36.8333 110.062 31.1875 106.271 26.3125 101.438C21.4792 96.5625 17.6875 90.9167 14.9375 84.5C12.2292 78.0833 10.875 71.1875 10.875 63.8125C10.875 56.4375 12.2292 49.5417 14.9375 43.125C17.6875 36.7083 21.4792 31.0625 26.3125 26.1875C31.1458 21.3125 36.7708 17.5208 43.1875 14.8125C49.6042 12.0625 56.5 10.6875 63.875 10.6875C71.25 10.6875 78.1458 12.0625 84.5625 14.8125C91.0208 17.5208 96.6667 21.3125 101.5 26.1875C106.375 31.0625 110.188 36.7083 112.938 43.125C115.688 49.5417 117.062 56.4375 117.062 63.8125C117.062 71.1875 115.688 78.0833 112.938 84.5C110.229 90.9167 106.438 96.5625 101.562 101.438C96.6875 106.271 91.0417 110.062 84.625 112.812C78.2083 115.562 71.3125 116.938 63.9375 116.938ZM64 96C65.625 96 66.875 95.5417 67.75 94.625C68.625 93.7083 69.0417 92.3958 69 90.6875L68.4375 71.9375L85.375 83C86.375 83.5833 87.4583 83.875 88.625 83.875C89.9167 83.875 91.0625 83.4167 92.0625 82.5C93.0625 81.5833 93.5625 80.3125 93.5625 78.6875C93.5625 77.6875 93.3125 76.8333 92.8125 76.125C92.3542 75.375 91.6042 74.7292 90.5625 74.1875L72.8125 64.1875L90.5625 54.375C91.6042 53.7917 92.3542 53.125 92.8125 52.375C93.3125 51.625 93.5625 50.75 93.5625 49.75C93.5625 48.1667 93.0625 46.9167 92.0625 46C91.0625 45.0417 89.9167 44.5625 88.625 44.5625C87.4167 44.5625 86.3333 44.875 85.375 45.5L68.4375 56.3125L69 37.0625C69.0417 35.3542 68.625 34.0208 67.75 33.0625C66.875 32.1042 65.625 31.625 64 31.625C62.375 31.625 61.0833 32.125 60.125 33.125C59.2083 34.0833 58.75 35.3958 58.75 37.0625L59.3125 56.3125L42.375 45.5625C41.4167 44.9375 40.3333 44.625 39.125 44.625C37.8333 44.625 36.6875 45.1042 35.6875 46.0625C34.6875 46.9792 34.1875 48.2292 34.1875 49.8125C34.1875 50.8542 34.4167 51.75 34.875 52.5C35.375 53.2083 36.1458 53.8542 37.1875 54.4375L54.8125 64.1875L37.1875 74.125C35.1875 75.1667 34.1875 76.6667 34.1875 78.625C34.1875 80.25 34.6875 81.5208 35.6875 82.4375C36.6875 83.3542 37.8333 83.8125 39.125 83.8125C40.2917 83.8125 41.375 83.5208 42.375 82.9375L59.3125 71.9375L58.75 90.6875C58.75 92.3125 59.2083 93.6042 60.125 94.5625C61.0833 95.5208 62.375 96 64 96Z" fill="white"/>
</svg>
