<svg width="16" height="17" viewBox="0 0 16 17" fill="none" xmlns="http://www.w3.org/2000/svg">
<path d="M8 16.3281C9.08854 16.3281 10.112 16.1198 11.0703 15.7031C12.0339 15.2865 12.8828 14.7109 13.6172 13.9766C14.3516 13.2422 14.9271 12.3958 15.3438 11.4375C15.7604 10.474 15.9688 9.44792 15.9688 8.35938C15.9688 7.27083 15.7604 6.2474 15.3438 5.28906C14.9271 4.32552 14.3516 3.47656 13.6172 2.74219C12.8828 2.00781 12.0339 1.43229 11.0703 1.01562C10.1068 0.598958 9.08073 0.390625 7.99219 0.390625C6.90365 0.390625 5.8776 0.598958 4.91406 1.01562C3.95573 1.43229 3.10938 2.00781 2.375 2.74219C1.64583 3.47656 1.07292 4.32552 0.65625 5.28906C0.239583 6.2474 0.03125 7.27083 0.03125 8.35938C0.03125 9.44792 0.239583 10.474 0.65625 11.4375C1.07292 12.3958 1.64844 13.2422 2.38281 13.9766C3.11719 14.7109 3.96354 15.2865 4.92188 15.7031C5.88542 16.1198 6.91146 16.3281 8 16.3281ZM8 15C7.07812 15 6.21615 14.8281 5.41406 14.4844C4.61198 14.1406 3.90625 13.6667 3.29688 13.0625C2.69271 12.4531 2.21875 11.7474 1.875 10.9453C1.53646 10.1432 1.36719 9.28125 1.36719 8.35938C1.36719 7.4375 1.53646 6.57552 1.875 5.77344C2.21875 4.97135 2.69271 4.26562 3.29688 3.65625C3.90104 3.04688 4.60417 2.57292 5.40625 2.23438C6.20833 1.89062 7.07031 1.71875 7.99219 1.71875C8.91406 1.71875 9.77604 1.89062 10.5781 2.23438C11.3854 2.57292 12.0911 3.04688 12.6953 3.65625C13.3047 4.26562 13.7812 4.97135 14.125 5.77344C14.4688 6.57552 14.6406 7.4375 14.6406 8.35938C14.6406 9.28125 14.4688 10.1432 14.125 10.9453C13.7865 11.7474 13.3125 12.4531 12.7031 13.0625C12.0938 13.6667 11.388 14.1406 10.5859 14.4844C9.78385 14.8281 8.92188 15 8 15ZM8.10156 13.0312C8.45573 13.0312 8.79427 13.013 9.11719 12.9766C9.44531 12.9349 9.72135 12.875 9.94531 12.7969C10.2839 12.6927 10.4531 12.5052 10.4531 12.2344C10.4531 12.1042 10.4089 11.9974 10.3203 11.9141C10.2318 11.8255 10.1224 11.7812 9.99219 11.7812C9.96094 11.7812 9.92448 11.7865 9.88281 11.7969C9.84115 11.8021 9.79688 11.8099 9.75 11.8203C9.49479 11.8828 9.25 11.9323 9.01562 11.9688C8.78646 12.0052 8.52604 12.0234 8.23438 12.0234C7.46354 12.0234 6.79948 11.8776 6.24219 11.5859C5.6849 11.2891 5.25521 10.8698 4.95312 10.3281C4.65104 9.78646 4.5 9.14062 4.5 8.39062C4.5 7.65104 4.64844 7.0026 4.94531 6.44531C5.2474 5.88281 5.66667 5.44531 6.20312 5.13281C6.73958 4.8151 7.36458 4.65625 8.07812 4.65625C8.77083 4.65625 9.3776 4.79427 9.89844 5.07031C10.4245 5.34115 10.8333 5.72135 11.125 6.21094C11.4167 6.70052 11.5625 7.27344 11.5625 7.92969C11.5625 8.53385 11.4714 9.01562 11.2891 9.375C11.112 9.73438 10.8802 9.91406 10.5938 9.91406C10.4115 9.91406 10.2734 9.86458 10.1797 9.76562C10.0859 9.66667 10.0391 9.52604 10.0391 9.34375V6.46094C10.0391 6.29948 9.98958 6.16927 9.89062 6.07031C9.79688 5.96615 9.67188 5.91406 9.51562 5.91406C9.36979 5.91406 9.25 5.96354 9.15625 6.0625C9.06771 6.15625 9.02344 6.25 9.02344 6.34375V6.49219C8.8776 6.32552 8.69271 6.1875 8.46875 6.07812C8.24479 5.96875 8.00781 5.91406 7.75781 5.91406C7.16406 5.91406 6.67448 6.14583 6.28906 6.60938C5.90885 7.06771 5.71875 7.65625 5.71875 8.375C5.71875 9.10417 5.90885 9.70052 6.28906 10.1641C6.67448 10.6276 7.17188 10.8594 7.78125 10.8594C8.38542 10.8594 8.84896 10.612 9.17188 10.1172C9.28125 10.3464 9.45052 10.5286 9.67969 10.6641C9.90885 10.7995 10.1771 10.8672 10.4844 10.8672C11.1146 10.8672 11.6224 10.5938 12.0078 10.0469C12.3932 9.49479 12.5859 8.77865 12.5859 7.89844C12.5859 7.0599 12.3958 6.32292 12.0156 5.6875C11.6354 5.04688 11.1068 4.54948 10.4297 4.19531C9.7526 3.83594 8.97135 3.65625 8.08594 3.65625C7.16406 3.65625 6.35156 3.85677 5.64844 4.25781C4.95052 4.65365 4.40365 5.20573 4.00781 5.91406C3.61719 6.61719 3.42188 7.4349 3.42188 8.36719C3.42188 9.29948 3.61719 10.1172 4.00781 10.8203C4.39844 11.5182 4.94531 12.0625 5.64844 12.4531C6.35156 12.8385 7.16927 13.0312 8.10156 13.0312ZM7.96094 9.82031C7.63281 9.82031 7.36979 9.6901 7.17188 9.42969C6.97917 9.16927 6.88281 8.8099 6.88281 8.35156C6.88281 7.90365 6.98177 7.54948 7.17969 7.28906C7.3776 7.02865 7.64062 6.89844 7.96875 6.89844C8.30729 6.89844 8.57552 7.02604 8.77344 7.28125C8.97135 7.53646 9.07031 7.88542 9.07031 8.32812C9.07031 8.79167 8.96875 9.15625 8.76562 9.42188C8.56771 9.6875 8.29948 9.82031 7.96094 9.82031Z" fill="white"/>
</svg>
