<svg xmlns="http://www.w3.org/2000/svg" width="24" height="24"><path style="stroke:none;fill-rule:nonzero;fill:#fff;fill-opacity:1" d="M1.2 12.32c0 1.817.269 3.446.812 4.887.547 1.438 1.316 2.664 2.312 3.672a10.02 10.02 0 0 0 3.5 2.316c1.348.535 2.817.805 4.414.805.864 0 1.684-.063 2.461-.176.785-.113 1.43-.254 1.938-.43.36-.117.605-.273.738-.464a.945.945 0 0 0 .207-.582.708.708 0 0 0-.195-.508.652.652 0 0 0-.492-.215c-.063 0-.133.008-.22.016-.09.02-.179.039-.269.066-.64.16-1.254.293-1.843.395-.59.105-1.254.156-1.989.156-1.426 0-2.722-.223-3.898-.664a8.415 8.415 0 0 1-3.031-1.926 8.84 8.84 0 0 1-1.97-3.113c-.456-1.22-.687-2.61-.687-4.168 0-1.492.219-2.86.657-4.094.437-1.234 1.058-2.3 1.867-3.2A8.381 8.381 0 0 1 8.418 3c1.125-.492 2.379-.738 3.758-.738 1.222 0 2.37.195 3.449.582a8.414 8.414 0 0 1 2.863 1.722 7.772 7.772 0 0 1 1.95 2.801c.472 1.102.707 2.371.707 3.805 0 1.113-.114 2.086-.344 2.922-.223.84-.54 1.492-.957 1.965-.418.468-.91.703-1.48.703-.567 0-1.009-.164-1.321-.496-.313-.332-.469-.805-.469-1.41V7.378c0-.293-.078-.524-.23-.695-.145-.176-.352-.266-.614-.266-.265 0-.472.09-.625.266-.148.171-.218.402-.218.695v1.258h-.094a3.403 3.403 0 0 0-1.324-1.61 3.616 3.616 0 0 0-2.063-.609c-.894 0-1.691.254-2.386.766-.688.5-1.227 1.195-1.625 2.093-.387.891-.582 1.914-.582 3.078 0 1.176.195 2.22.582 3.118.398.898.94 1.601 1.636 2.109.696.504 1.5.762 2.418.762.805 0 1.504-.223 2.102-.66.605-.446 1.058-1.055 1.367-1.832h.094c.097.773.425 1.378.988 1.832.57.445 1.266.668 2.094.668.972 0 1.808-.305 2.511-.926.7-.625 1.243-1.48 1.625-2.57.38-1.094.57-2.348.57-3.758 0-1.598-.26-3.04-.788-4.336a9.51 9.51 0 0 0-2.211-3.34 9.487 9.487 0 0 0-3.352-2.145c-1.293-.5-2.71-.746-4.25-.746-1.62 0-3.101.281-4.449.836-1.34.559-2.5 1.36-3.48 2.395C3.293 4.797 2.535 6.039 2 7.488c-.535 1.45-.8 3.059-.8 4.832Zm10.53 4.278c-.625 0-1.168-.168-1.625-.516-.453-.352-.804-.844-1.054-1.477-.25-.64-.375-1.394-.375-2.265 0-.852.125-1.594.375-2.227.258-.633.613-1.12 1.062-1.465.461-.347 1-.52 1.625-.52.961 0 1.719.376 2.282 1.122.562.754.843 1.77.843 3.047 0 .867-.129 1.625-.394 2.273-.258.637-.621 1.137-1.094 1.5-.465.356-1.016.528-1.645.528Zm0 0"/></svg>