<svg width="16" height="17" viewBox="0 0 16 17" fill="none" xmlns="http://www.w3.org/2000/svg">
<path d="M8 16.3281C9.08854 16.3281 10.112 16.1198 11.0703 15.7031C12.0339 15.2865 12.8828 14.7109 13.6172 13.9766C14.3516 13.2422 14.9271 12.3958 15.3438 11.4375C15.7604 10.474 15.9688 9.44792 15.9688 8.35938C15.9688 7.27083 15.7604 6.2474 15.3438 5.28906C14.9271 4.32552 14.3516 3.47656 13.6172 2.74219C12.8828 2.00781 12.0339 1.43229 11.0703 1.01562C10.1068 0.598958 9.08073 0.390625 7.99219 0.390625C6.90365 0.390625 5.8776 0.598958 4.91406 1.01562C3.95573 1.43229 3.10938 2.00781 2.375 2.74219C1.64583 3.47656 1.07292 4.32552 0.65625 5.28906C0.239583 6.2474 0.03125 7.27083 0.03125 8.35938C0.03125 9.44792 0.239583 10.474 0.65625 11.4375C1.07292 12.3958 1.64844 13.2422 2.38281 13.9766C3.11719 14.7109 3.96354 15.2865 4.92188 15.7031C5.88542 16.1198 6.91146 16.3281 8 16.3281ZM4.71875 10.0234C4.71875 9.90885 4.7526 9.8125 4.82031 9.73438C4.89323 9.65625 4.98958 9.61719 5.10938 9.61719H5.80469L6.03125 8.9375H5.10938C4.98958 8.9375 4.89323 8.90104 4.82031 8.82812C4.7526 8.75 4.71875 8.65365 4.71875 8.53906C4.71875 8.42969 4.7526 8.33594 4.82031 8.25781C4.89323 8.17969 4.98958 8.14062 5.10938 8.14062H6.29688L7.35938 4.91406C7.41146 4.76823 7.48698 4.65365 7.58594 4.57031C7.6901 4.48698 7.82552 4.44531 7.99219 4.44531C8.15885 4.44531 8.29167 4.48958 8.39062 4.57812C8.49479 4.66146 8.57031 4.77344 8.61719 4.91406L9.6875 8.14062H10.8828C11.0026 8.14062 11.0964 8.17969 11.1641 8.25781C11.237 8.33594 11.2734 8.42969 11.2734 8.53906C11.2734 8.65365 11.237 8.75 11.1641 8.82812C11.0964 8.90104 11.0026 8.9375 10.8828 8.9375H9.95312L10.1797 9.61719H10.8828C11.0026 9.61719 11.0964 9.65625 11.1641 9.73438C11.237 9.8125 11.2734 9.90885 11.2734 10.0234C11.2734 10.138 11.237 10.2318 11.1641 10.3047C11.0964 10.3776 11.0026 10.4141 10.8828 10.4141H10.4375L10.8281 11.5938C10.8698 11.7344 10.8906 11.8255 10.8906 11.8672C10.8906 12.0026 10.8411 12.1172 10.7422 12.2109C10.6432 12.2995 10.5156 12.3438 10.3594 12.3438C10.224 12.3438 10.1146 12.3125 10.0312 12.25C9.95312 12.1875 9.89323 12.0885 9.85156 11.9531L9.36719 10.4141H6.625L6.14062 11.9453C6.09896 12.0807 6.03385 12.1823 5.94531 12.25C5.86198 12.3125 5.75781 12.3438 5.63281 12.3438C5.47656 12.3438 5.34896 12.2995 5.25 12.2109C5.15104 12.1172 5.10156 12.0026 5.10156 11.8672C5.10156 11.8307 5.10417 11.7917 5.10938 11.75C5.11979 11.7083 5.13542 11.6562 5.15625 11.5938L5.54688 10.4141H5.10938C4.98958 10.4141 4.89323 10.3776 4.82031 10.3047C4.7526 10.2318 4.71875 10.138 4.71875 10.0234ZM6.86719 9.61719H9.125L8.90625 8.9375H7.07812L6.86719 9.61719ZM7.32031 8.14062H8.66406L7.99219 5.98438L7.32031 8.14062Z" fill="white"/>
</svg>
