<?xml version="1.0" encoding="UTF-8"?>
<svg xmlns="http://www.w3.org/2000/svg" xmlns:xlink="http://www.w3.org/1999/xlink" width="24" height="45.6" viewBox="0 0 24 45.6" version="1.1">
<g id="surface1">
<path style=" stroke:none;fill-rule:nonzero;fill:rgb(100%,100%,100%);fill-opacity:1;" d="M 6.1875 44.4375 L 17.8125 44.4375 C 19.3125 44.4375 20.5 44.011719 21.375 43.164062 C 22.261719 42.324219 22.707031 41.195312 22.707031 39.769531 L 22.707031 5.15625 C 22.707031 3.742188 22.261719 2.617188 21.375 1.78125 C 20.5 0.929688 19.3125 0.507812 17.8125 0.507812 L 6.1875 0.507812 C 4.6875 0.507812 3.492188 0.929688 2.605469 1.78125 C 1.730469 2.617188 1.292969 3.742188 1.292969 5.15625 L 1.292969 39.769531 C 1.292969 41.195312 1.730469 42.324219 2.605469 43.164062 C 3.492188 44.011719 4.6875 44.4375 6.1875 44.4375 Z M 13.179688 7.273438 C 12.84375 7.273438 12.554688 7.164062 12.320312 6.9375 C 12.082031 6.699219 11.960938 6.414062 11.960938 6.074219 C 11.960938 5.738281 12.082031 5.449219 12.320312 5.210938 C 12.554688 4.976562 12.84375 4.855469 13.179688 4.855469 L 17.304688 4.855469 C 17.644531 4.855469 17.925781 4.976562 18.148438 5.210938 C 18.386719 5.449219 18.507812 5.738281 18.507812 6.074219 C 18.507812 6.414062 18.386719 6.699219 18.148438 6.9375 C 17.925781 7.164062 17.644531 7.273438 17.304688 7.273438 Z M 7.273438 14.476562 C 6.75 14.476562 6.304688 14.292969 5.945312 13.929688 C 5.582031 13.570312 5.398438 13.117188 5.398438 12.582031 C 5.398438 12.082031 5.582031 11.644531 5.945312 11.269531 C 6.304688 10.894531 6.75 10.707031 7.273438 10.707031 C 7.800781 10.707031 8.242188 10.894531 8.605469 11.269531 C 8.980469 11.644531 9.167969 12.082031 9.167969 12.582031 C 9.167969 13.117188 8.980469 13.570312 8.605469 13.929688 C 8.242188 14.292969 7.800781 14.476562 7.273438 14.476562 Z M 12 14.476562 C 11.476562 14.476562 11.03125 14.292969 10.667969 13.929688 C 10.304688 13.570312 10.125 13.117188 10.125 12.582031 C 10.125 12.082031 10.304688 11.644531 10.667969 11.269531 C 11.03125 10.894531 11.476562 10.707031 12 10.707031 C 12.523438 10.707031 12.96875 10.894531 13.332031 11.269531 C 13.695312 11.644531 13.875 12.082031 13.875 12.582031 C 13.875 13.117188 13.695312 13.570312 13.332031 13.929688 C 12.96875 14.292969 12.523438 14.476562 12 14.476562 Z M 16.742188 14.476562 C 16.21875 14.476562 15.773438 14.292969 15.414062 13.929688 C 15.050781 13.570312 14.867188 13.117188 14.867188 12.582031 C 14.867188 12.082031 15.050781 11.644531 15.414062 11.269531 C 15.773438 10.894531 16.21875 10.707031 16.742188 10.707031 C 17.269531 10.707031 17.710938 10.894531 18.074219 11.269531 C 18.4375 11.644531 18.617188 12.082031 18.617188 12.582031 C 18.617188 13.117188 18.4375 13.570312 18.074219 13.929688 C 17.710938 14.292969 17.269531 14.476562 16.742188 14.476562 Z M 7.273438 19.875 C 6.75 19.875 6.304688 19.695312 5.945312 19.332031 C 5.582031 18.96875 5.398438 18.523438 5.398438 18 C 5.398438 17.488281 5.582031 17.050781 5.945312 16.6875 C 6.304688 16.3125 6.75 16.125 7.273438 16.125 C 7.800781 16.125 8.242188 16.3125 8.605469 16.6875 C 8.980469 17.050781 9.167969 17.488281 9.167969 18 C 9.167969 18.523438 8.980469 18.96875 8.605469 19.332031 C 8.242188 19.695312 7.800781 19.875 7.273438 19.875 Z M 12 19.875 C 11.476562 19.875 11.03125 19.695312 10.667969 19.332031 C 10.304688 18.96875 10.125 18.523438 10.125 18 C 10.125 17.488281 10.304688 17.050781 10.667969 16.6875 C 11.03125 16.3125 11.476562 16.125 12 16.125 C 12.523438 16.125 12.96875 16.3125 13.332031 16.6875 C 13.695312 17.050781 13.875 17.488281 13.875 18 C 13.875 18.523438 13.695312 18.96875 13.332031 19.332031 C 12.96875 19.695312 12.523438 19.875 12 19.875 Z M 16.742188 19.875 C 16.21875 19.875 15.773438 19.695312 15.414062 19.332031 C 15.050781 18.96875 14.867188 18.523438 14.867188 18 C 14.867188 17.488281 15.050781 17.050781 15.414062 16.6875 C 15.773438 16.3125 16.21875 16.125 16.742188 16.125 C 17.269531 16.125 17.710938 16.3125 18.074219 16.6875 C 18.4375 17.050781 18.617188 17.488281 18.617188 18 C 18.617188 18.523438 18.4375 18.96875 18.074219 19.332031 C 17.710938 19.695312 17.269531 19.875 16.742188 19.875 Z M 7.273438 25.273438 C 6.75 25.273438 6.304688 25.101562 5.945312 24.75 C 5.582031 24.386719 5.398438 23.9375 5.398438 23.398438 C 5.398438 22.886719 5.582031 22.449219 5.945312 22.085938 C 6.304688 21.710938 6.75 21.523438 7.273438 21.523438 C 7.800781 21.523438 8.242188 21.710938 8.605469 22.085938 C 8.980469 22.449219 9.167969 22.886719 9.167969 23.398438 C 9.167969 23.9375 8.980469 24.386719 8.605469 24.75 C 8.242188 25.101562 7.800781 25.273438 7.273438 25.273438 Z M 12 25.273438 C 11.476562 25.273438 11.03125 25.09375 10.667969 24.730469 C 10.304688 24.367188 10.125 23.925781 10.125 23.398438 C 10.125 22.875 10.304688 22.429688 10.667969 22.070312 C 11.03125 21.707031 11.476562 21.523438 12 21.523438 C 12.523438 21.523438 12.96875 21.707031 13.332031 22.070312 C 13.695312 22.429688 13.875 22.875 13.875 23.398438 C 13.875 23.925781 13.695312 24.367188 13.332031 24.730469 C 12.96875 25.09375 12.523438 25.273438 12 25.273438 Z M 16.742188 25.273438 C 16.21875 25.273438 15.773438 25.09375 15.414062 24.730469 C 15.050781 24.367188 14.867188 23.925781 14.867188 23.398438 C 14.867188 22.875 15.050781 22.429688 15.414062 22.070312 C 15.773438 21.707031 16.21875 21.523438 16.742188 21.523438 C 17.269531 21.523438 17.710938 21.707031 18.074219 22.070312 C 18.4375 22.429688 18.617188 22.875 18.617188 23.398438 C 18.617188 23.925781 18.4375 24.367188 18.074219 24.730469 C 17.710938 25.09375 17.269531 25.273438 16.742188 25.273438 Z M 6.863281 38.117188 C 6.449219 38.117188 6.101562 37.976562 5.8125 37.6875 C 5.539062 37.398438 5.398438 37.054688 5.398438 36.65625 L 5.398438 29.8125 C 5.398438 29.414062 5.539062 29.074219 5.8125 28.800781 C 6.101562 28.511719 6.449219 28.367188 6.863281 28.367188 C 7.261719 28.367188 7.601562 28.511719 7.875 28.800781 C 8.164062 29.074219 8.304688 29.414062 8.304688 29.8125 L 8.304688 36.65625 C 8.304688 37.054688 8.164062 37.398438 7.875 37.6875 C 7.601562 37.976562 7.261719 38.117188 6.863281 38.117188 Z M 11.042969 32.511719 C 10.730469 32.511719 10.488281 32.425781 10.3125 32.25 C 10.136719 32.0625 10.050781 31.8125 10.050781 31.5 L 10.050781 30.242188 C 10.050781 29.917969 10.136719 29.667969 10.3125 29.492188 C 10.488281 29.304688 10.730469 29.210938 11.042969 29.210938 L 12.9375 29.210938 C 13.273438 29.210938 13.523438 29.304688 13.6875 29.492188 C 13.863281 29.667969 13.949219 29.917969 13.949219 30.242188 L 13.949219 31.5 C 13.949219 31.8125 13.863281 32.0625 13.6875 32.25 C 13.523438 32.425781 13.273438 32.511719 12.9375 32.511719 Z M 11.042969 37.238281 C 10.730469 37.238281 10.488281 37.148438 10.3125 36.976562 C 10.136719 36.800781 10.050781 36.554688 10.050781 36.242188 L 10.050781 34.988281 C 10.050781 34.3125 10.382812 33.976562 11.042969 33.976562 L 12.9375 33.976562 C 13.613281 33.976562 13.949219 34.3125 13.949219 34.988281 L 13.949219 36.242188 C 13.949219 36.90625 13.613281 37.238281 12.9375 37.238281 Z M 17.15625 38.117188 C 16.757812 38.117188 16.414062 37.976562 16.125 37.6875 C 15.851562 37.398438 15.710938 37.054688 15.710938 36.65625 L 15.710938 29.8125 C 15.710938 29.414062 15.851562 29.074219 16.125 28.800781 C 16.414062 28.511719 16.757812 28.367188 17.15625 28.367188 C 17.570312 28.367188 17.914062 28.511719 18.1875 28.800781 C 18.476562 29.074219 18.617188 29.414062 18.617188 29.8125 L 18.617188 36.65625 C 18.617188 37.054688 18.476562 37.398438 18.1875 37.6875 C 17.914062 37.976562 17.570312 38.117188 17.15625 38.117188 Z M 17.15625 38.117188 "/>
</g>
</svg>
