<svg width="73" height="148" viewBox="0 0 73 148" fill="none" xmlns="http://www.w3.org/2000/svg">
<path d="M17.25 147.125H56C61 147.125 64.9583 145.708 67.875 142.875C70.8333 140.083 72.3125 136.312 72.3125 131.562V16.1875C72.3125 11.4792 70.8333 7.72917 67.875 4.9375C64.9583 2.10417 61 0.6875 56 0.6875H17.25C12.25 0.6875 8.27083 2.10417 5.3125 4.9375C2.39583 7.72917 0.9375 11.4792 0.9375 16.1875V131.562C0.9375 136.312 2.39583 140.083 5.3125 142.875C8.27083 145.708 12.25 147.125 17.25 147.125ZM40.5625 23.25C39.4375 23.25 38.4792 22.875 37.6875 22.125C36.8958 21.3333 36.5 20.375 36.5 19.25C36.5 18.125 36.8958 17.1667 37.6875 16.375C38.4792 15.5833 39.4375 15.1875 40.5625 15.1875H54.3125C55.4375 15.1875 56.375 15.5833 57.125 16.375C57.9167 17.1667 58.3125 18.125 58.3125 19.25C58.3125 20.375 57.9167 21.3333 57.125 22.125C56.375 22.875 55.4375 23.25 54.3125 23.25H40.5625ZM20.875 47.25C19.125 47.25 17.6458 46.6458 16.4375 45.4375C15.2292 44.2292 14.625 42.7292 14.625 40.9375C14.625 39.2708 15.2292 37.8125 16.4375 36.5625C17.6458 35.3125 19.125 34.6875 20.875 34.6875C22.625 34.6875 24.1042 35.3125 25.3125 36.5625C26.5625 37.8125 27.1875 39.2708 27.1875 40.9375C27.1875 42.7292 26.5625 44.2292 25.3125 45.4375C24.1042 46.6458 22.625 47.25 20.875 47.25ZM36.625 47.25C34.875 47.25 33.3958 46.6458 32.1875 45.4375C30.9792 44.2292 30.375 42.7292 30.375 40.9375C30.375 39.2708 30.9792 37.8125 32.1875 36.5625C33.3958 35.3125 34.875 34.6875 36.625 34.6875C38.375 34.6875 39.8542 35.3125 41.0625 36.5625C42.2708 37.8125 42.875 39.2708 42.875 40.9375C42.875 42.7292 42.2708 44.2292 41.0625 45.4375C39.8542 46.6458 38.375 47.25 36.625 47.25ZM52.4375 47.25C50.6875 47.25 49.2083 46.6458 48 45.4375C46.7917 44.2292 46.1875 42.7292 46.1875 40.9375C46.1875 39.2708 46.7917 37.8125 48 36.5625C49.2083 35.3125 50.6875 34.6875 52.4375 34.6875C54.1875 34.6875 55.6667 35.3125 56.875 36.5625C58.0833 37.8125 58.6875 39.2708 58.6875 40.9375C58.6875 42.7292 58.0833 44.2292 56.875 45.4375C55.6667 46.6458 54.1875 47.25 52.4375 47.25ZM20.875 65.25C19.125 65.25 17.6458 64.6458 16.4375 63.4375C15.2292 62.2292 14.625 60.75 14.625 59C14.625 57.2917 15.2292 55.8333 16.4375 54.625C17.6458 53.375 19.125 52.75 20.875 52.75C22.625 52.75 24.1042 53.375 25.3125 54.625C26.5625 55.8333 27.1875 57.2917 27.1875 59C27.1875 60.75 26.5625 62.2292 25.3125 63.4375C24.1042 64.6458 22.625 65.25 20.875 65.25ZM36.625 65.25C34.875 65.25 33.3958 64.6458 32.1875 63.4375C30.9792 62.2292 30.375 60.75 30.375 59C30.375 57.2917 30.9792 55.8333 32.1875 54.625C33.3958 53.375 34.875 52.75 36.625 52.75C38.375 52.75 39.8542 53.375 41.0625 54.625C42.2708 55.8333 42.875 57.2917 42.875 59C42.875 60.75 42.2708 62.2292 41.0625 63.4375C39.8542 64.6458 38.375 65.25 36.625 65.25ZM52.4375 65.25C50.6875 65.25 49.2083 64.6458 48 63.4375C46.7917 62.2292 46.1875 60.75 46.1875 59C46.1875 57.2917 46.7917 55.8333 48 54.625C49.2083 53.375 50.6875 52.75 52.4375 52.75C54.1875 52.75 55.6667 53.375 56.875 54.625C58.0833 55.8333 58.6875 57.2917 58.6875 59C58.6875 60.75 58.0833 62.2292 56.875 63.4375C55.6667 64.6458 54.1875 65.25 52.4375 65.25ZM20.875 83.25C19.125 83.25 17.6458 82.6667 16.4375 81.5C15.2292 80.2917 14.625 78.7917 14.625 77C14.625 75.2917 15.2292 73.8333 16.4375 72.625C17.6458 71.375 19.125 70.75 20.875 70.75C22.625 70.75 24.1042 71.375 25.3125 72.625C26.5625 73.8333 27.1875 75.2917 27.1875 77C27.1875 78.7917 26.5625 80.2917 25.3125 81.5C24.1042 82.6667 22.625 83.25 20.875 83.25ZM36.625 83.25C34.875 83.25 33.3958 82.6458 32.1875 81.4375C30.9792 80.2292 30.375 78.75 30.375 77C30.375 75.25 30.9792 73.7708 32.1875 72.5625C33.3958 71.3542 34.875 70.75 36.625 70.75C38.375 70.75 39.8542 71.3542 41.0625 72.5625C42.2708 73.7708 42.875 75.25 42.875 77C42.875 78.75 42.2708 80.2292 41.0625 81.4375C39.8542 82.6458 38.375 83.25 36.625 83.25ZM52.4375 83.25C50.6875 83.25 49.2083 82.6458 48 81.4375C46.7917 80.2292 46.1875 78.75 46.1875 77C46.1875 75.25 46.7917 73.7708 48 72.5625C49.2083 71.3542 50.6875 70.75 52.4375 70.75C54.1875 70.75 55.6667 71.3542 56.875 72.5625C58.0833 73.7708 58.6875 75.25 58.6875 77C58.6875 78.75 58.0833 80.2292 56.875 81.4375C55.6667 82.6458 54.1875 83.25 52.4375 83.25ZM19.5 126.062C18.125 126.062 16.9583 125.583 16 124.625C15.0833 123.667 14.625 122.521 14.625 121.188V98.375C14.625 97.0417 15.0833 95.9167 16 95C16.9583 94.0417 18.125 93.5625 19.5 93.5625C20.8333 93.5625 21.9583 94.0417 22.875 95C23.8333 95.9167 24.3125 97.0417 24.3125 98.375V121.188C24.3125 122.521 23.8333 123.667 22.875 124.625C21.9583 125.583 20.8333 126.062 19.5 126.062ZM33.4375 107.375C32.3958 107.375 31.5833 107.083 31 106.5C30.4167 105.875 30.125 105.042 30.125 104V99.8125C30.125 98.7292 30.4167 97.8958 31 97.3125C31.5833 96.6875 32.3958 96.375 33.4375 96.375H39.75C40.875 96.375 41.7083 96.6875 42.25 97.3125C42.8333 97.8958 43.125 98.7292 43.125 99.8125V104C43.125 105.042 42.8333 105.875 42.25 106.5C41.7083 107.083 40.875 107.375 39.75 107.375H33.4375ZM33.4375 123.125C32.3958 123.125 31.5833 122.833 31 122.25C30.4167 121.667 30.125 120.854 30.125 119.812V115.625C30.125 113.375 31.2292 112.25 33.4375 112.25H39.75C42 112.25 43.125 113.375 43.125 115.625V119.812C43.125 122.021 42 123.125 39.75 123.125H33.4375ZM53.8125 126.062C52.4792 126.062 51.3333 125.583 50.375 124.625C49.4583 123.667 49 122.521 49 121.188V98.375C49 97.0417 49.4583 95.9167 50.375 95C51.3333 94.0417 52.4792 93.5625 53.8125 93.5625C55.1875 93.5625 56.3333 94.0417 57.25 95C58.2083 95.9167 58.6875 97.0417 58.6875 98.375V121.188C58.6875 122.521 58.2083 123.667 57.25 124.625C56.3333 125.583 55.1875 126.062 53.8125 126.062Z" fill="white"/>
</svg>
