<svg xmlns="http://www.w3.org/2000/svg" width="24" height="24"><path style="stroke:none;fill-rule:nonzero;fill:#fff;fill-opacity:1" d="M6.188 23.387h11.625c1.5 0 2.687-.223 3.562-.668.887-.442 1.332-1.04 1.332-1.79V2.716c0-.746-.445-1.336-1.332-1.777-.875-.45-2.063-.672-3.563-.672H6.188c-1.5 0-2.695.222-3.582.671-.875.442-1.312 1.032-1.312 1.778V20.93c0 .75.437 1.347 1.312 1.789.887.445 2.083.668 3.583.668ZM13.18 3.828a1.914 1.914 0 0 1-.864-.18c-.23-.117-.359-.28-.355-.453 0-.175.121-.328.36-.453.234-.12.523-.187.859-.187h4.125c.34 0 .62.066.843.187.239.125.36.278.36.453 0 .18-.121.332-.36.457-.222.118-.503.176-.843.176ZM7.273 7.621c-.5.004-.98-.101-1.328-.289-.363-.191-.547-.43-.547-.71 0-.263.184-.493.547-.692.36-.196.805-.293 1.328-.293.528 0 .97.097 1.332.293.375.199.563.43.563.691 0 .281-.188.52-.563.711-.351.188-.832.293-1.332.29Zm4.727 0c-.523 0-.969-.098-1.332-.289-.363-.191-.543-.43-.543-.71 0-.263.18-.493.543-.692.344-.192.828-.301 1.332-.293.523 0 .969.097 1.332.293.363.199.543.43.543.691 0 .281-.18.52-.543.711-.352.188-.832.293-1.332.29Zm4.742 0c-.5.004-.98-.101-1.328-.289-.363-.191-.547-.43-.547-.71 0-.263.184-.493.547-.692.36-.196.805-.293 1.328-.293.528 0 .969.097 1.332.293.363.199.543.43.543.691 0 .281-.18.52-.543.711-.347.188-.832.293-1.332.29Zm-9.469 2.84c-.523 0-.968-.094-1.328-.285-.36-.184-.554-.438-.547-.703 0-.27.184-.5.547-.692.36-.195.805-.293 1.328-.293.528 0 .97.098 1.332.293.375.192.563.422.563.692 0 .277-.188.511-.563.703-.351.187-.832.289-1.332.285Zm4.727 0c-.523 0-.969-.094-1.332-.285-.355-.184-.555-.438-.543-.703 0-.27.18-.5.543-.692.344-.191.828-.3 1.332-.293.523 0 .969.098 1.332.293.363.192.543.422.543.692 0 .277-.18.511-.543.703-.352.187-.832.289-1.332.285Zm4.742 0c-.523 0-.969-.094-1.328-.285-.36-.184-.555-.438-.547-.703 0-.27.184-.5.547-.692.36-.195.805-.293 1.328-.293.528 0 .969.098 1.332.293.363.192.543.422.543.692 0 .277-.18.511-.543.703-.351.187-.832.289-1.332.285ZM7.273 13.3c-.523 0-.968-.09-1.328-.274-.363-.187-.558-.445-.547-.71 0-.27.184-.5.547-.692.36-.2.805-.297 1.328-.297.528 0 .97.098 1.332.297.375.191.563.422.563.691 0 .282-.188.52-.563.711-.363.184-.804.274-1.332.274Zm4.727 0c-.523 0-.969-.094-1.332-.285-.36-.184-.555-.438-.543-.7 0-.277.18-.511.543-.699.352-.191.832-.293 1.332-.289.523 0 .969.098 1.332.29.363.187.543.421.543.698 0 .278-.18.508-.543.7-.352.187-.832.293-1.332.285Zm4.742 0c-.523 0-.969-.094-1.328-.285-.36-.184-.559-.438-.547-.7-.012-.265.188-.52.547-.699.348-.191.828-.293 1.328-.289.528 0 .969.098 1.332.29.363.187.543.421.543.698 0 .278-.18.508-.543.7-.351.187-.832.293-1.332.285Zm-9.879 6.761c-.414 0-.761-.074-1.05-.226-.27-.145-.418-.34-.415-.543v-3.602c0-.21.141-.39.415-.53.289-.157.636-.231 1.05-.231.399 0 .739.078 1.012.23.29.14.43.32.43.531v3.602c0 .21-.14.39-.43.543-.273.152-.613.227-1.012.227Zm4.18-2.949c-.313 0-.555-.047-.73-.14-.176-.098-.262-.23-.262-.395v-.66c0-.172.086-.305.261-.395.176-.101.418-.148.731-.148h1.895c.335 0 .585.047.75.148.175.09.261.223.261.395v.66c0 .164-.086.297-.261.395-.165.093-.415.14-.75.14Zm0 2.485c-.313 0-.555-.047-.73-.137-.176-.094-.262-.223-.262-.387v-.66c0-.355.332-.531.992-.531h1.895c.675 0 1.011.176 1.011.531v.66c0 .352-.336.524-1.011.524Zm6.113.465c-.398 0-.742-.075-1.031-.227-.27-.145-.418-.34-.414-.543v-3.602c0-.21.14-.39.414-.53.29-.157.633-.231 1.031-.231.414 0 .758.078 1.032.23.289.14.43.32.43.531v3.602c0 .21-.141.39-.43.543-.274.152-.618.227-1.032.227Zm0 0"/></svg>