<?xml version="1.0" encoding="UTF-8"?>
<svg xmlns="http://www.w3.org/2000/svg" xmlns:xlink="http://www.w3.org/1999/xlink" width="24" height="25.5" viewBox="0 0 24 25.5" version="1.1">
<g id="surface1">
<path style=" stroke:none;fill-rule:nonzero;fill:rgb(100%,100%,100%);fill-opacity:1;" d="M 12 24.492188 C 13.632812 24.492188 15.167969 24.179688 16.605469 23.554688 C 18.050781 22.929688 19.324219 22.066406 20.425781 20.964844 C 21.527344 19.863281 22.390625 18.59375 23.015625 17.15625 C 23.640625 15.710938 23.953125 14.171875 23.953125 12.539062 C 23.953125 10.90625 23.640625 9.371094 23.015625 7.933594 C 22.390625 6.488281 21.527344 5.214844 20.425781 4.113281 C 19.324219 3.011719 18.050781 2.148438 16.605469 1.523438 C 15.160156 0.898438 13.621094 0.585938 11.988281 0.585938 C 10.355469 0.585938 8.816406 0.898438 7.371094 1.523438 C 5.933594 2.148438 4.664062 3.011719 3.5625 4.113281 C 2.46875 5.214844 1.609375 6.488281 0.984375 7.933594 C 0.359375 9.371094 0.046875 10.90625 0.046875 12.539062 C 0.046875 14.171875 0.359375 15.710938 0.984375 17.15625 C 1.609375 18.59375 2.472656 19.863281 3.574219 20.964844 C 4.675781 22.066406 5.945312 22.929688 7.382812 23.554688 C 8.828125 24.179688 10.367188 24.492188 12 24.492188 Z M 9.117188 17.953125 C 8.78125 17.953125 8.515625 17.859375 8.320312 17.671875 C 8.132812 17.476562 8.039062 17.210938 8.039062 16.875 L 8.039062 7.992188 C 8.039062 7.265625 8.398438 6.902344 9.117188 6.902344 L 12.667969 6.902344 C 13.707031 6.902344 14.539062 7.152344 15.164062 7.652344 C 15.789062 8.144531 16.101562 8.804688 16.101562 9.632812 C 16.101562 10.234375 15.925781 10.753906 15.574219 11.191406 C 15.230469 11.628906 14.757812 11.921875 14.15625 12.070312 L 14.15625 12.140625 C 14.960938 12.242188 15.59375 12.535156 16.054688 13.019531 C 16.523438 13.496094 16.757812 14.105469 16.757812 14.847656 C 16.757812 15.792969 16.382812 16.546875 15.632812 17.109375 C 14.890625 17.671875 13.894531 17.953125 12.644531 17.953125 Z M 9.914062 11.601562 L 11.730469 11.601562 C 12.542969 11.601562 13.164062 11.457031 13.59375 11.167969 C 14.023438 10.878906 14.238281 10.46875 14.238281 9.9375 C 14.238281 9.4375 14.0625 9.046875 13.710938 8.765625 C 13.367188 8.476562 12.890625 8.332031 12.28125 8.332031 L 9.914062 8.332031 Z M 9.914062 16.523438 L 11.882812 16.523438 C 12.890625 16.523438 13.632812 16.382812 14.109375 16.101562 C 14.585938 15.8125 14.824219 15.367188 14.824219 14.765625 C 14.824219 14.1875 14.617188 13.738281 14.203125 13.417969 C 13.796875 13.097656 13.222656 12.9375 12.480469 12.9375 L 9.914062 12.9375 Z M 9.914062 16.523438 "/>
</g>
</svg>
