<?xml version="1.0" encoding="UTF-8"?>
<svg xmlns="http://www.w3.org/2000/svg" xmlns:xlink="http://www.w3.org/1999/xlink" width="24" height="22.5" viewBox="0 0 24 22.5" version="1.1">
<g id="surface1">
<path style=" stroke:none;fill-rule:nonzero;fill:rgb(100%,100%,100%);fill-opacity:1;" d="M 4.886719 21.84375 L 19.101562 21.84375 C 20.328125 21.84375 21.246094 21.539062 21.855469 20.929688 C 22.472656 20.328125 22.78125 19.421875 22.78125 18.210938 L 22.78125 3.902344 C 22.78125 2.691406 22.472656 1.785156 21.855469 1.183594 C 21.246094 0.574219 20.328125 0.269531 19.101562 0.269531 L 4.886719 0.269531 C 3.660156 0.269531 2.738281 0.574219 2.121094 1.183594 C 1.511719 1.785156 1.207031 2.691406 1.207031 3.902344 L 1.207031 18.210938 C 1.207031 19.421875 1.511719 20.328125 2.121094 20.929688 C 2.738281 21.539062 3.660156 21.84375 4.886719 21.84375 Z M 9.117188 16.453125 C 8.78125 16.453125 8.515625 16.359375 8.320312 16.171875 C 8.132812 15.976562 8.039062 15.710938 8.039062 15.375 L 8.039062 6.492188 C 8.039062 5.765625 8.398438 5.402344 9.117188 5.402344 L 12.667969 5.402344 C 13.707031 5.402344 14.539062 5.652344 15.164062 6.152344 C 15.789062 6.644531 16.101562 7.304688 16.101562 8.132812 C 16.101562 8.734375 15.925781 9.253906 15.574219 9.691406 C 15.230469 10.128906 14.757812 10.421875 14.15625 10.570312 L 14.15625 10.640625 C 14.960938 10.742188 15.59375 11.035156 16.054688 11.519531 C 16.523438 11.996094 16.757812 12.605469 16.757812 13.347656 C 16.757812 14.292969 16.382812 15.046875 15.632812 15.609375 C 14.890625 16.171875 13.894531 16.453125 12.644531 16.453125 Z M 9.914062 10.101562 L 11.730469 10.101562 C 12.542969 10.101562 13.164062 9.957031 13.59375 9.667969 C 14.023438 9.378906 14.238281 8.96875 14.238281 8.4375 C 14.238281 7.9375 14.0625 7.546875 13.710938 7.265625 C 13.367188 6.976562 12.890625 6.832031 12.28125 6.832031 L 9.914062 6.832031 Z M 9.914062 15.023438 L 11.882812 15.023438 C 12.890625 15.023438 13.632812 14.882812 14.109375 14.601562 C 14.585938 14.3125 14.824219 13.867188 14.824219 13.265625 C 14.824219 12.6875 14.617188 12.238281 14.203125 11.917969 C 13.796875 11.597656 13.222656 11.4375 12.480469 11.4375 L 9.914062 11.4375 Z M 9.914062 15.023438 "/>
</g>
</svg>
