<svg xmlns="http://www.w3.org/2000/svg" width="24" height="24"><path style="stroke:none;fill-rule:nonzero;fill:#fff;fill-opacity:1" d="M2.613 23.496h2.672c.508 0 .895-.164 1.16-.492.266-.324.399-.809.399-1.442V1.919c0-.652-.133-1.133-.399-1.441C6.18.16 5.793 0 5.285 0H2.613c-.515 0-.906.164-1.172.488-.257.328-.386.805-.386 1.43v19.645c0 .632.129 1.117.386 1.44.266.329.657.493 1.172.493Zm18.645-.433c.46 0 .855-.211 1.183-.633.336-.414.504-1.024.504-1.836V2.887c0-.809-.168-1.426-.504-1.848-.304-.41-.734-.64-1.183-.637-.235 0-.457.051-.668.145-.211.086-.438.219-.68.39L7.97 9.59c-.414.308-.715.64-.903.996a2.468 2.468 0 0 0-.28 1.156c0 .41.093.797.28 1.153.188.355.489.687.903.996l11.941 8.636c.242.176.469.305.68.391.21.098.433.145.668.145Zm0 0"/></svg>