<svg width="204" height="102" viewBox="0 0 204 102" fill="none" xmlns="http://www.w3.org/2000/svg">
<path d="M9.25 101.812H23.5C26.2083 101.812 28.2708 101.104 29.6875 99.6875C31.1042 98.2708 31.8125 96.1875 31.8125 93.4375V8.3125C31.8125 5.47917 31.1042 3.39583 29.6875 2.0625C28.2708 0.6875 26.2083 0 23.5 0H9.25C6.5 0 4.41667 0.708333 3 2.125C1.625 3.54167 0.9375 5.60417 0.9375 8.3125V93.4375C0.9375 96.1875 1.625 98.2708 3 99.6875C4.41667 101.104 6.5 101.812 9.25 101.812ZM108.688 99.9375C111.146 99.9375 113.25 99.0208 115 97.1875C116.792 95.3958 117.688 92.75 117.688 89.25V12.5C117.688 9 116.792 6.33333 115 4.5C113.25 2.66667 111.146 1.75 108.688 1.75C107.438 1.75 106.25 1.95833 105.125 2.375C104 2.75 102.792 3.3125 101.5 4.0625L37.8125 41.5625C35.6042 42.8958 34 44.3333 33 45.875C32 47.4167 31.5 49.0833 31.5 50.875C31.5 52.6667 32 54.3333 33 55.875C34 57.4167 35.6042 58.8542 37.8125 60.1875L101.5 97.625C102.792 98.375 104 98.9375 105.125 99.3125C106.25 99.7292 107.438 99.9375 108.688 99.9375ZM194.562 99.9375C197.021 99.9375 199.125 99.0208 200.875 97.1875C202.667 95.3958 203.562 92.75 203.562 89.25V12.5C203.562 9 202.667 6.33333 200.875 4.5C199.125 2.66667 197.021 1.75 194.562 1.75C193.312 1.75 192.125 1.95833 191 2.375C189.875 2.75 188.667 3.3125 187.375 4.0625L123.688 41.5625C121.479 42.8958 119.875 44.3333 118.875 45.875C117.875 47.4167 117.375 49.0833 117.375 50.875C117.375 52.6667 117.875 54.3333 118.875 55.875C119.875 57.4167 121.479 58.8542 123.688 60.1875L187.375 97.625C188.667 98.375 189.875 98.9375 191 99.3125C192.125 99.7292 193.312 99.9375 194.562 99.9375Z" fill="white"/>
</svg>
