<svg width="98" height="104" viewBox="0 0 98 104" fill="none" xmlns="http://www.w3.org/2000/svg">
<path d="M6.25 103.562C7.75 103.562 9.02083 103.062 10.0625 102.062C11.1042 101.062 11.625 99.8333 11.625 98.375V5.5625C11.625 4.0625 11.1042 2.8125 10.0625 1.8125C9.02083 0.8125 7.75 0.3125 6.25 0.3125C4.79167 0.3125 3.54167 0.8125 2.5 1.8125C1.45833 2.8125 0.9375 4.0625 0.9375 5.5625V98.375C0.9375 99.8333 1.45833 101.062 2.5 102.062C3.54167 103.062 4.79167 103.562 6.25 103.562ZM88.5 101.062C90.9583 101.062 93.0625 100.146 94.8125 98.3125C96.6042 96.4792 97.5 93.8125 97.5 90.3125V13.5625C97.5 10.0625 96.6042 7.39583 94.8125 5.5625C93.0625 3.72917 90.9583 2.8125 88.5 2.8125C87.25 2.8125 86.0625 3.02083 84.9375 3.4375C83.8125 3.8125 82.6042 4.375 81.3125 5.125L17.625 42.625C15.4167 43.9583 13.8125 45.3958 12.8125 46.9375C11.8125 48.4792 11.3125 50.1458 11.3125 51.9375C11.3125 53.7292 11.8125 55.3958 12.8125 56.9375C13.8125 58.4792 15.4167 59.9167 17.625 61.25L81.3125 98.75C82.6042 99.5 83.8125 100.062 84.9375 100.438C86.0625 100.854 87.25 101.062 88.5 101.062ZM85.8125 89.5C85.6042 89.5 85.3542 89.4583 85.0625 89.375C84.8125 89.2917 84.5417 89.1458 84.25 88.9375L24.875 53.6875C23.9583 53.1875 23.5 52.6042 23.5 51.9375C23.5 51.2708 23.9583 50.6875 24.875 50.1875L84.25 14.9375C84.5833 14.7292 84.875 14.5833 85.125 14.5C85.375 14.4167 85.6042 14.375 85.8125 14.375C86.2292 14.375 86.6042 14.5417 86.9375 14.875C87.3125 15.1667 87.5 15.625 87.5 16.25V87.625C87.5 88.25 87.3125 88.7292 86.9375 89.0625C86.6042 89.3542 86.2292 89.5 85.8125 89.5Z" fill="white"/>
</svg>
