<svg xmlns="http://www.w3.org/2000/svg" width="24" height="24"><path style="stroke:none;fill-rule:nonzero;fill:#fff;fill-opacity:1" d="M13.262 23.063c.41 0 .758-.211 1.05-.633.297-.414.45-1.028.45-1.832V2.883c0-.805-.153-1.422-.45-1.844-.269-.41-.652-.64-1.05-.633a1.34 1.34 0 0 0-.606.14c-.18.087-.379.216-.594.388L1.45 9.59a2.98 2.98 0 0 0-.804.996c-.165.355-.25.742-.25 1.156 0 .414.085.797.25 1.153.167.359.433.687.804.996l10.614 8.64c.207.172.406.301.593.387.188.098.39.145.606.145Zm6.133.433h2.367c.457 0 .804-.16 1.039-.492.238-.324.355-.809.355-1.442V1.922c0-.656-.117-1.137-.355-1.445C22.566.157 22.219 0 21.76 0h-2.366c-.457 0-.805.16-1.04.492-.23.324-.343.801-.343 1.43v19.64c0 .633.113 1.118.343 1.442.235.332.582.492 1.04.492Zm0 0"/></svg>