<svg width="112" height="129" viewBox="0 0 112 129" fill="none" xmlns="http://www.w3.org/2000/svg">
<path d="M0.9375 109.125C0.9375 115.583 2.5625 120.417 5.8125 123.625C9.10417 126.875 14.0208 128.5 20.5625 128.5H94.125C99.7083 128.5 104.062 126.875 107.188 123.625C110.312 120.417 111.875 115.583 111.875 109.125V44.4375C111.875 37.9792 110.229 33.1458 106.938 29.9375C103.646 26.6875 98.75 25.0625 92.25 25.0625H82.25C82.1667 20.6875 80.9375 16.6667 78.5625 13C76.2292 9.29167 73.125 6.33333 69.25 4.125C65.375 1.875 61.0833 0.75 56.375 0.75C51.6667 0.75 47.375 1.875 43.5 4.125C39.625 6.33333 36.5208 9.29167 34.1875 13C31.8542 16.6667 30.625 20.6875 30.5 25.0625H20.5625C14.0208 25.0625 9.10417 26.6875 5.8125 29.9375C2.5625 33.1458 0.9375 37.9792 0.9375 44.4375V109.125ZM11 108.625V44.9375C11 41.6875 11.8333 39.25 13.5 37.625C15.1667 35.9583 17.5625 35.125 20.6875 35.125H92.0625C95.1458 35.125 97.5417 35.9583 99.25 37.625C100.958 39.25 101.812 41.6875 101.812 44.9375V108.625C101.812 111.875 101.042 114.333 99.5 116C97.9583 117.625 96.1042 118.438 93.9375 118.438H20.6875C17.5625 118.438 15.1667 117.625 13.5 116C11.8333 114.333 11 111.875 11 108.625ZM40.5625 25.0625C40.6458 22.3542 41.3958 19.875 42.8125 17.625C44.2292 15.375 46.1042 13.5833 48.4375 12.25C50.8125 10.9167 53.4583 10.25 56.375 10.25C59.3333 10.25 61.9792 10.9167 64.3125 12.25C66.6875 13.5833 68.5625 15.375 69.9375 17.625C71.3542 19.875 72.1042 22.3542 72.1875 25.0625H40.5625Z" fill="white"/>
</svg>
