<svg xmlns="http://www.w3.org/2000/svg" width="24" height="24"><path style="stroke:none;fill-rule:nonzero;fill:#fff;fill-opacity:1" d="M4.887 23.3h14.215c1.226 0 2.144-.323 2.753-.976.618-.64.926-1.605.926-2.898V4.164c0-1.293-.308-2.258-.926-2.898-.609-.653-1.527-.977-2.753-.977H4.887c-1.227 0-2.149.324-2.766.977-.61.64-.914 1.605-.914 2.898v15.262c0 1.293.305 2.258.914 2.902.617.649 1.54.973 2.766.973Zm7.312-3.913a.567.567 0 0 1-.422-.176.675.675 0 0 1-.164-.461v-.863H9.797a.918.918 0 0 1-.692-.274 1.068 1.068 0 0 1-.257-.738V6.91c0-.305.086-.555.257-.734.18-.192.41-.29.692-.29h1.816V4.91a.62.62 0 0 1 .164-.445.567.567 0 0 1 .422-.176c.172 0 .313.055.422.176a.62.62 0 0 1 .164.445v.977h.164c.93 0 1.68.293 2.25.875.578.574.867 1.308.867 2.199 0 .55-.14 1.059-.421 1.527a2.75 2.75 0 0 1-1.09 1.047 2.92 2.92 0 0 1 1.5 1.078c.375.516.562 1.14.562 1.875 0 1.043-.332 1.871-.996 2.489-.656.605-1.547.91-2.672.91h-.164v.863a.675.675 0 0 1-.164.46.54.54 0 0 1-.422.177Zm-1.793-3.012 1.207-.012v-3.898h-1.207Zm2.38-.023c.757-.036 1.327-.215 1.71-.54.383-.332.574-.8.574-1.398 0-.594-.191-1.05-.574-1.379-.383-.332-.953-.52-1.71-.558Zm-2.391-5.387h1.218V7.387h-1.207Zm2.39-.078c.57-.082 1-.274 1.29-.575.288-.308.433-.714.433-1.222 0-.492-.149-.883-.445-1.164-.29-.285-.715-.45-1.278-.5Zm0 0"/></svg>