<?xml version="1.0" encoding="UTF-8"?>
<svg xmlns="http://www.w3.org/2000/svg" xmlns:xlink="http://www.w3.org/1999/xlink" width="24" height="44" viewBox="0 0 24 44" version="1.1">
<g id="surface1">
<path style=" stroke:none;fill-rule:nonzero;fill:rgb(100%,100%,100%);fill-opacity:1;" d="M 11.984375 25.296875 C 13.402344 25.296875 14.71875 24.949219 15.9375 24.25 C 17.167969 23.550781 18.238281 22.582031 19.15625 21.34375 C 20.074219 20.105469 20.785156 18.667969 21.296875 17.03125 C 21.816406 15.386719 22.078125 13.621094 22.078125 11.734375 C 22.078125 10.253906 21.832031 8.886719 21.34375 7.625 C 20.863281 6.363281 20.171875 5.265625 19.265625 4.328125 C 18.371094 3.390625 17.300781 2.660156 16.0625 2.140625 C 14.832031 1.621094 13.472656 1.359375 11.984375 1.359375 C 10.496094 1.359375 9.128906 1.621094 7.890625 2.140625 C 6.660156 2.660156 5.597656 3.390625 4.703125 4.328125 C 3.808594 5.265625 3.113281 6.363281 2.625 7.625 C 2.144531 8.886719 1.90625 10.253906 1.90625 11.734375 C 1.90625 13.621094 2.160156 15.386719 2.671875 17.03125 C 3.191406 18.667969 3.910156 20.105469 4.828125 21.34375 C 5.746094 22.582031 6.8125 23.550781 8.03125 24.25 C 9.25 24.949219 10.566406 25.296875 11.984375 25.296875 Z M 11.984375 22.953125 C 10.890625 22.953125 9.875 22.660156 8.9375 22.078125 C 8 21.484375 7.183594 20.671875 6.484375 19.640625 C 5.785156 18.609375 5.238281 17.417969 4.84375 16.0625 C 4.457031 14.707031 4.265625 13.265625 4.265625 11.734375 C 4.265625 10.246094 4.59375 8.894531 5.25 7.6875 C 5.90625 6.46875 6.8125 5.503906 7.96875 4.796875 C 9.136719 4.078125 10.472656 3.71875 11.984375 3.71875 C 13.496094 3.71875 14.828125 4.078125 15.984375 4.796875 C 17.152344 5.503906 18.066406 6.46875 18.734375 7.6875 C 19.402344 8.894531 19.734375 10.246094 19.734375 11.734375 C 19.734375 13.265625 19.535156 14.707031 19.140625 16.0625 C 18.746094 17.417969 18.191406 18.609375 17.484375 19.640625 C 16.777344 20.671875 15.953125 21.484375 15.015625 22.078125 C 14.078125 22.660156 13.066406 22.953125 11.984375 22.953125 Z M 9.796875 24.21875 L 9.0625 27.03125 C 8.96875 27.34375 9.003906 27.640625 9.171875 27.921875 C 9.347656 28.191406 9.636719 28.328125 10.03125 28.328125 L 13.953125 28.328125 C 14.347656 28.328125 14.628906 28.191406 14.796875 27.921875 C 14.964844 27.640625 15.003906 27.34375 14.921875 27.03125 L 14.15625 24.21875 Z M 11.796875 43.875 C 12.097656 43.875 12.359375 43.761719 12.578125 43.53125 C 12.796875 43.3125 12.90625 43.050781 12.90625 42.75 C 12.90625 41.894531 13.0625 41.171875 13.375 40.578125 C 13.6875 39.984375 14.046875 39.433594 14.453125 38.921875 C 14.871094 38.410156 15.234375 37.855469 15.546875 37.25 C 15.859375 36.65625 16.015625 35.925781 16.015625 35.0625 C 16.015625 34.355469 15.910156 33.746094 15.703125 33.234375 C 15.503906 32.714844 15.253906 32.25 14.953125 31.84375 C 14.660156 31.425781 14.363281 31.019531 14.0625 30.625 C 13.769531 30.230469 13.527344 29.800781 13.328125 29.34375 C 13.128906 28.886719 13.035156 28.34375 13.046875 27.71875 L 10.828125 27.71875 C 10.816406 28.574219 10.910156 29.296875 11.109375 29.890625 C 11.316406 30.484375 11.566406 31 11.859375 31.4375 C 12.160156 31.875 12.457031 32.277344 12.75 32.640625 C 13.050781 33.003906 13.300781 33.378906 13.5 33.765625 C 13.707031 34.140625 13.8125 34.574219 13.8125 35.0625 C 13.8125 35.5625 13.707031 35.996094 13.5 36.359375 C 13.292969 36.734375 13.03125 37.097656 12.71875 37.453125 C 12.40625 37.816406 12.09375 38.222656 11.78125 38.671875 C 11.480469 39.128906 11.21875 39.683594 11 40.328125 C 10.792969 40.984375 10.6875 41.792969 10.6875 42.75 C 10.6875 43.050781 10.796875 43.3125 11.015625 43.53125 C 11.234375 43.761719 11.496094 43.875 11.796875 43.875 Z M 11.796875 43.875 "/>
</g>
</svg>
