<svg xmlns="http://www.w3.org/2000/svg" width="24" height="24"><path style="stroke:none;fill-rule:nonzero;fill:#fff;fill-opacity:1" d="M1.465 8.04c.633 0 .95-.302.95-.903V4.53c0-.57.155-1 .468-1.289.312-.293.762-.441 1.347-.441h2.836c.641 0 .961-.297.961-.895 0-.586-.32-.879-.96-.879h-2.86c-1.227 0-2.148.286-2.766.86C.832 2.453.527 3.3.527 4.434v2.703c0 .601.313.902.938.902Zm21.058 0c.633 0 .95-.302.95-.903V4.434c0-1.133-.309-1.98-.926-2.547-.61-.575-1.527-.86-2.754-.86h-2.871c-.633 0-.95.293-.95.88 0 .597.317.894.95.894h2.836c.578 0 1.027.148 1.347.441.32.29.48.719.48 1.29v2.605c0 .601.313.902.938.902ZM4.207 22.61h2.86c.64 0 .96-.294.96-.883 0-.594-.32-.895-.96-.895H4.23c-.585 0-1.035-.145-1.347-.437-.313-.29-.469-.72-.469-1.293V16.5c0-.605-.316-.906-.95-.906-.624 0-.937.3-.937.906v2.691c0 1.137.305 1.993.914 2.559.618.574 1.54.86 2.766.86Zm12.715 0h2.871c1.227 0 2.145-.286 2.754-.86.617-.566.926-1.418.926-2.559V16.5c0-.602-.317-.902-.95-.902-.625 0-.937.3-.937.902v2.602c0 .574-.16 1.003-.48 1.293-.32.293-.77.44-1.348.44h-2.836c-.633 0-.95.298-.95.892 0 .59.317.882.95.882ZM6.645 16.3h.843V7.337h-.843Zm1.898 0h1.582V7.337H8.543Zm2.285 0h.985V7.337h-.985Zm1.887 0h1.535V7.337h-1.535Zm2.168 0h1.23V7.337h-1.23Zm1.676 0h.785V7.337h-.785Zm0 0"/></svg>