<?xml version="1.0" encoding="UTF-8"?>
<svg xmlns="http://www.w3.org/2000/svg" xmlns:xlink="http://www.w3.org/1999/xlink" width="24" height="25.5" viewBox="0 0 24 25.5" version="1.1">
<g id="surface1">
<path style=" stroke:none;fill-rule:nonzero;fill:rgb(100%,100%,100%);fill-opacity:1;" d="M 11.964844 15.140625 C 12.441406 15.140625 12.875 15.023438 13.265625 14.789062 C 13.664062 14.554688 13.980469 14.242188 14.214844 13.851562 C 14.449219 13.453125 14.566406 13.015625 14.566406 12.539062 C 14.566406 12.0625 14.449219 11.628906 14.214844 11.238281 C 13.980469 10.839844 13.664062 10.523438 13.265625 10.289062 C 12.875 10.054688 12.441406 9.9375 11.964844 9.9375 C 11.488281 9.9375 11.050781 10.054688 10.652344 10.289062 C 10.261719 10.523438 9.949219 10.839844 9.714844 11.238281 C 9.480469 11.628906 9.363281 12.0625 9.363281 12.539062 C 9.363281 13.015625 9.480469 13.453125 9.714844 13.851562 C 9.949219 14.242188 10.261719 14.554688 10.652344 14.789062 C 11.050781 15.023438 11.488281 15.140625 11.964844 15.140625 Z M 11.964844 13.664062 C 11.652344 13.664062 11.386719 13.554688 11.167969 13.335938 C 10.949219 13.117188 10.839844 12.851562 10.839844 12.539062 C 10.839844 12.226562 10.949219 11.960938 11.167969 11.742188 C 11.386719 11.523438 11.652344 11.414062 11.964844 11.414062 C 12.277344 11.414062 12.542969 11.523438 12.761719 11.742188 C 12.980469 11.960938 13.089844 12.226562 13.089844 12.539062 C 13.089844 12.851562 12.980469 13.117188 12.761719 13.335938 C 12.542969 13.554688 12.277344 13.664062 11.964844 13.664062 Z M 11.4375 14.4375 L 10.101562 13.101562 L 8.378906 14.824219 C 8.199219 15.011719 8.109375 15.238281 8.109375 15.503906 C 8.109375 15.761719 8.199219 15.980469 8.378906 16.160156 C 8.558594 16.339844 8.777344 16.429688 9.035156 16.429688 C 9.300781 16.429688 9.527344 16.339844 9.714844 16.160156 Z M 12.550781 10.664062 L 13.886719 11.976562 L 18.035156 7.828125 C 18.222656 7.648438 18.316406 7.429688 18.316406 7.171875 C 18.316406 6.90625 18.222656 6.679688 18.035156 6.492188 C 17.855469 6.3125 17.632812 6.222656 17.367188 6.222656 C 17.109375 6.222656 16.890625 6.3125 16.710938 6.492188 Z M 12 24.492188 C 13.632812 24.492188 15.167969 24.179688 16.605469 23.554688 C 18.050781 22.929688 19.324219 22.066406 20.425781 20.964844 C 21.527344 19.863281 22.390625 18.59375 23.015625 17.15625 C 23.640625 15.710938 23.953125 14.171875 23.953125 12.539062 C 23.953125 10.90625 23.640625 9.371094 23.015625 7.933594 C 22.390625 6.488281 21.527344 5.214844 20.425781 4.113281 C 19.324219 3.011719 18.050781 2.148438 16.605469 1.523438 C 15.160156 0.898438 13.621094 0.585938 11.988281 0.585938 C 10.355469 0.585938 8.816406 0.898438 7.371094 1.523438 C 5.933594 2.148438 4.664062 3.011719 3.5625 4.113281 C 2.46875 5.214844 1.609375 6.488281 0.984375 7.933594 C 0.359375 9.371094 0.046875 10.90625 0.046875 12.539062 C 0.046875 14.171875 0.359375 15.710938 0.984375 17.15625 C 1.609375 18.59375 2.472656 19.863281 3.574219 20.964844 C 4.675781 22.066406 5.945312 22.929688 7.382812 23.554688 C 8.828125 24.179688 10.367188 24.492188 12 24.492188 Z M 12 22.5 C 10.617188 22.5 9.324219 22.242188 8.121094 21.726562 C 6.917969 21.210938 5.859375 20.5 4.945312 19.59375 C 4.039062 18.679688 3.328125 17.621094 2.8125 16.417969 C 2.304688 15.214844 2.050781 13.921875 2.050781 12.539062 C 2.050781 11.15625 2.304688 9.863281 2.8125 8.660156 C 3.328125 7.457031 4.039062 6.398438 4.945312 5.484375 C 5.851562 4.570312 6.90625 3.859375 8.109375 3.351562 C 9.3125 2.835938 10.605469 2.578125 11.988281 2.578125 C 13.371094 2.578125 14.664062 2.835938 15.867188 3.351562 C 17.078125 3.859375 18.136719 4.570312 19.042969 5.484375 C 19.957031 6.398438 20.671875 7.457031 21.1875 8.660156 C 21.703125 9.863281 21.960938 11.15625 21.960938 12.539062 C 21.960938 13.921875 21.703125 15.214844 21.1875 16.417969 C 20.679688 17.621094 19.96875 18.679688 19.054688 19.59375 C 18.140625 20.5 17.082031 21.210938 15.878906 21.726562 C 14.675781 22.242188 13.382812 22.5 12 22.5 Z M 12 22.5 "/>
</g>
</svg>
