<svg width="128" height="128" viewBox="0 0 128 128" fill="none" xmlns="http://www.w3.org/2000/svg">
<path d="M0.1875 63.875C0.1875 71.25 1.39583 78.2708 3.8125 84.9375C6.22917 91.6042 9.60417 97.6875 13.9375 103.188C18.3125 108.646 23.4167 113.312 29.25 117.188C35.125 121.062 41.5 123.875 48.375 125.625C49.3333 123 50.125 120.271 50.75 117.438C51.375 114.646 51.7708 111.833 51.9375 109L49.3125 108.875C48.4792 108.875 47.7708 108.583 47.1875 108C46.6458 107.375 46.375 106.667 46.375 105.875C46.4167 105.042 46.7292 104.354 47.3125 103.812C47.8958 103.271 48.6042 103 49.4375 103L52.0625 103.125C52.0208 101.417 51.9167 99.7292 51.75 98.0625C51.5833 96.3958 51.3333 94.7292 51 93.0625L48.375 93.75C47.5417 93.9583 46.7917 93.8542 46.125 93.4375C45.4583 92.9792 45 92.3542 44.75 91.5625C44.5833 90.8125 44.6875 90.0833 45.0625 89.375C45.4792 88.6667 46.0833 88.2083 46.875 88L49.5 87.3125C49 85.6875 48.4167 84.0833 47.75 82.5C47.125 80.875 46.4167 79.2708 45.625 77.6875L43.5625 78.8125C42.8125 79.1875 42.0625 79.2708 41.3125 79.0625C40.6042 78.8542 40.0417 78.375 39.625 77.625C39.1667 76.9583 39.0208 76.2292 39.1875 75.4375C39.3958 74.6042 39.875 73.9792 40.625 73.5625L42.625 72.5C41.625 70.9583 40.5625 69.4792 39.4375 68.0625C38.3125 66.6458 37.125 65.2917 35.875 64L34.4375 65.5625C33.8125 66.1458 33.1042 66.4375 32.3125 66.4375C31.5625 66.3958 30.875 66.0833 30.25 65.5C29.6667 64.9583 29.3542 64.2917 29.3125 63.5C29.2708 62.6667 29.5625 61.9583 30.1875 61.375L31.625 59.875C30.4167 58.8333 29.1667 57.8542 27.875 56.9375C26.625 56.0208 25.3333 55.1458 24 54.3125L22.625 57C22.2083 57.75 21.625 58.2292 20.875 58.4375C20.125 58.6458 19.3958 58.5417 18.6875 58.125C17.9375 57.75 17.4375 57.1667 17.1875 56.375C16.9792 55.5833 17.0833 54.8125 17.5 54.0625L18.875 51.4375C16.3333 50.1875 13.6875 49.125 10.9375 48.25C8.22917 47.375 5.5 46.7083 2.75 46.25C1.04167 51.875 0.1875 57.75 0.1875 63.875ZM63.9375 127.625C72.7708 127.625 81.0833 125.896 88.875 122.438C96.6667 119.021 103.521 114.312 109.438 108.312C115.354 102.271 119.875 95.3542 123 87.5625C120 87.0208 117.042 86.2708 114.125 85.3125C111.208 84.3542 108.375 83.2083 105.625 81.875L104.188 84.5C103.812 85.25 103.229 85.7292 102.438 85.9375C101.646 86.1458 100.896 86.0625 100.188 85.6875C99.4792 85.2708 99 84.6667 98.75 83.875C98.5417 83.0833 98.6667 82.3333 99.125 81.625L100.5 79.125C98.7917 78.0833 97.125 77 95.5 75.875C93.875 74.7083 92.2917 73.4792 90.75 72.1875L88.75 74.1875C88.2083 74.7708 87.5208 75.0625 86.6875 75.0625C85.8958 75.0625 85.2292 74.7708 84.6875 74.1875C84.0625 73.6042 83.7292 72.9167 83.6875 72.125C83.6875 71.3333 83.9792 70.6667 84.5625 70.125L86.5625 68.0625C85.1458 66.6042 83.7917 65.0833 82.5 63.5C81.25 61.875 80.0625 60.1667 78.9375 58.375L76.0625 60C75.3542 60.4583 74.6042 60.5625 73.8125 60.3125C73.0625 60.0625 72.5208 59.6042 72.1875 58.9375C71.7708 58.2292 71.6458 57.4792 71.8125 56.6875C72.0208 55.8958 72.4792 55.3125 73.1875 54.9375L76 53.3125C75 51.3958 74.1042 49.4583 73.3125 47.5C72.5625 45.5417 71.8958 43.5625 71.3125 41.5625L67.875 42.375C67.0417 42.625 66.2917 42.5417 65.625 42.125C64.9583 41.7083 64.5625 41.1042 64.4375 40.3125C64.1875 39.5208 64.2292 38.7917 64.5625 38.125C64.9375 37.4167 65.5417 36.9375 66.375 36.6875L69.9375 35.8125C69.5625 33.9375 69.2708 32.0625 69.0625 30.1875C68.8958 28.3125 68.7917 26.4375 68.75 24.5625L65.9375 24.4375C65.1042 24.4375 64.3958 24.1667 63.8125 23.625C63.2708 23.0417 63.0417 22.3542 63.125 21.5625C63.125 20.7292 63.3958 20.0208 63.9375 19.4375C64.5208 18.8542 65.2292 18.5417 66.0625 18.5L68.875 18.625C69.1667 15.5833 69.6042 12.5625 70.1875 9.5625C70.8125 6.5625 71.6667 3.625 72.75 0.75C69.7083 0.333333 66.75 0.125 63.875 0.125C55.0417 0.125 46.7292 1.83333 38.9375 5.25C31.1875 8.66667 24.375 13.3958 18.5 19.4375C12.625 25.4375 8.08333 32.3125 4.875 40.0625C7.83333 40.6042 10.75 41.3333 13.625 42.25C16.5417 43.1667 19.3542 44.3125 22.0625 45.6875L23.4375 43.25C23.8125 42.5 24.3958 42.0417 25.1875 41.875C25.9792 41.7083 26.75 41.8333 27.5 42.25C28.2083 42.625 28.6667 43.1875 28.875 43.9375C29.0833 44.6875 28.9792 45.4167 28.5625 46.125L27.25 48.5C30.4583 50.4167 33.5 52.6042 36.375 55.0625L38.875 52.5C39.4583 51.9167 40.1458 51.6458 40.9375 51.6875C41.7292 51.7292 42.4375 52.0625 43.0625 52.6875C43.6042 53.2292 43.8958 53.8958 43.9375 54.6875C43.9792 55.4375 43.6875 56.125 43.0625 56.75L40.625 59.1875C42.125 60.6875 43.5208 62.2708 44.8125 63.9375C46.1458 65.6042 47.3958 67.3333 48.5625 69.125L51.4375 67.5625C52.1875 67.1458 52.9375 67.0625 53.6875 67.3125C54.4375 67.5625 55.0208 68.0208 55.4375 68.6875C55.8542 69.3542 55.9583 70.0833 55.75 70.875C55.5833 71.6667 55.1042 72.2708 54.3125 72.6875L51.5 74.25C52.4583 76.0833 53.3125 77.9583 54.0625 79.875C54.8542 81.75 55.5417 83.6458 56.125 85.5625L58.8125 84.875C59.6458 84.6667 60.3958 84.7708 61.0625 85.1875C61.7708 85.6042 62.2292 86.2083 62.4375 87C62.6875 87.7917 62.6042 88.5417 62.1875 89.25C61.7708 89.9583 61.1667 90.4167 60.375 90.625L57.5625 91.375C58.3125 95.2083 58.7083 99.1458 58.75 103.188L61.75 103.312C62.5833 103.312 63.2708 103.604 63.8125 104.188C64.3958 104.771 64.6667 105.458 64.625 106.25C64.625 107.083 64.3333 107.792 63.75 108.375C63.1667 108.917 62.4583 109.188 61.625 109.188L58.5625 109.062C58.3542 112.104 57.9167 115.125 57.25 118.125C56.625 121.125 55.7917 124.062 54.75 126.938C57.875 127.396 60.9375 127.625 63.9375 127.625ZM127.688 63.875C127.688 56.4583 126.458 49.4167 124 42.75C121.583 36.0417 118.167 29.9375 113.75 24.4375C109.333 18.9375 104.167 14.2708 98.25 10.4375C92.375 6.5625 85.9792 3.75 79.0625 2C78.1042 4.66667 77.3125 7.41667 76.6875 10.25C76.1042 13.0833 75.7083 15.9167 75.5 18.75L78.375 18.875C79.1667 18.9167 79.8542 19.2292 80.4375 19.8125C81.0208 20.3958 81.2917 21.1042 81.25 21.9375C81.25 22.8125 80.9583 23.5208 80.375 24.0625C79.8333 24.5625 79.1458 24.7917 78.3125 24.75L75.4375 24.625C75.4792 26.2083 75.5833 27.7917 75.75 29.375C75.9167 30.9583 76.1458 32.5208 76.4375 34.0625L78.375 33.625C79.1667 33.4167 79.8958 33.5208 80.5625 33.9375C81.2292 34.3542 81.6667 34.9583 81.875 35.75C82.0417 36.5417 81.9583 37.2917 81.625 38C81.2917 38.6667 80.7083 39.1042 79.875 39.3125L77.875 39.75C78.375 41.5 78.9583 43.2083 79.625 44.875C80.2917 46.5417 81.0625 48.2083 81.9375 49.875L84 48.75C84.7083 48.2917 85.4375 48.1875 86.1875 48.4375C86.9792 48.6875 87.5625 49.1667 87.9375 49.875C88.3542 50.6667 88.4583 51.4375 88.25 52.1875C88.0417 52.8958 87.5833 53.4583 86.875 53.875L84.8125 55C85.8125 56.5 86.8542 57.9375 87.9375 59.3125C89.0208 60.6875 90.125 62 91.25 63.25L93.25 61.25C93.875 60.6667 94.5833 60.375 95.375 60.375C96.1667 60.375 96.8542 60.6458 97.4375 61.1875C98.0208 61.7708 98.3125 62.4792 98.3125 63.3125C98.3542 64.1042 98.0833 64.8333 97.5 65.5L95.5625 67.4375C96.8542 68.5625 98.1667 69.625 99.5 70.625C100.875 71.5833 102.292 72.5 103.75 73.375L105.062 70.8125C105.396 70.1042 105.958 69.6458 106.75 69.4375C107.542 69.1875 108.292 69.25 109 69.625C109.708 70.0833 110.167 70.7083 110.375 71.5C110.625 72.25 110.562 73 110.188 73.75L108.875 76.25C113.958 78.7083 119.396 80.3958 125.188 81.3125C126.021 78.5208 126.646 75.6875 127.062 72.8125C127.479 69.8958 127.688 66.9167 127.688 63.875Z" fill="white"/>
</svg>
