<svg width="128" height="128" viewBox="0 0 128 128" fill="none" xmlns="http://www.w3.org/2000/svg">
<path d="M63.9375 127.625C72.6458 127.625 80.8333 125.958 88.5 122.625C96.2083 119.292 103 114.688 108.875 108.812C114.75 102.938 119.354 96.1667 122.688 88.5C126.021 80.7917 127.688 72.5833 127.688 63.875C127.688 55.1667 126.021 46.9792 122.688 39.3125C119.354 31.6042 114.75 24.8125 108.875 18.9375C103 13.0625 96.2083 8.45833 88.5 5.125C80.7917 1.79167 72.5833 0.125 63.875 0.125C55.1667 0.125 46.9583 1.79167 39.25 5.125C31.5833 8.45833 24.8125 13.0625 18.9375 18.9375C13.1042 24.8125 8.52083 31.6042 5.1875 39.3125C1.85417 46.9792 0.1875 55.1667 0.1875 63.875C0.1875 72.5833 1.85417 80.7917 5.1875 88.5C8.52083 96.1667 13.125 102.938 19 108.812C24.875 114.688 31.6458 119.292 39.3125 122.625C47.0208 125.958 55.2292 127.625 63.9375 127.625ZM63.9375 117C56.5625 117 49.6667 115.625 43.25 112.875C36.8333 110.125 31.1875 106.333 26.3125 101.5C21.4792 96.625 17.6875 90.9792 14.9375 84.5625C12.2292 78.1458 10.875 71.25 10.875 63.875C10.875 56.5 12.2292 49.6042 14.9375 43.1875C17.6875 36.7708 21.4792 31.125 26.3125 26.25C31.1458 21.375 36.7708 17.5833 43.1875 14.875C49.6042 12.125 56.5 10.75 63.875 10.75C71.25 10.75 78.1458 12.125 84.5625 14.875C91.0208 17.5833 96.6667 21.375 101.5 26.25C106.375 31.125 110.188 36.7708 112.938 43.1875C115.688 49.6042 117.062 56.5 117.062 63.875C117.062 71.25 115.688 78.1458 112.938 84.5625C110.229 90.9792 106.438 96.625 101.562 101.5C96.6875 106.333 91.0417 110.125 84.625 112.875C78.2083 115.625 71.3125 117 63.9375 117ZM30.4375 62.375C31.8958 60.5417 33.4375 58.8125 35.0625 57.1875C36.7292 55.5208 38.5 53.9792 40.375 52.5625C40.3333 51.3542 39.9583 49.875 39.25 48.125C38.5417 46.3333 37.5833 45.2708 36.375 44.9375C34.625 47.4375 33.2083 50.2708 32.125 53.4375C31.0417 56.5625 30.4792 59.5417 30.4375 62.375ZM44.125 49.875C44.625 49.5417 45.125 49.2292 45.625 48.9375C46.125 48.6458 46.6458 48.3542 47.1875 48.0625C46.8958 45.2708 46.7708 42.75 46.8125 40.5C46.8958 38.25 47.125 36.3333 47.5 34.75C44.2917 36.5833 41.3958 38.9375 38.8125 41.8125C40.2292 42.3542 41.375 43.4583 42.25 45.125C43.1667 46.75 43.7917 48.3333 44.125 49.875ZM51 46.1875C51.75 45.8125 52.5417 45.4792 53.375 45.1875C54.2083 44.8542 55.0208 44.5208 55.8125 44.1875C55.7708 43.8958 55.75 43.5833 55.75 43.25C55.75 42.9167 55.75 42.5833 55.75 42.25C55.75 39.8333 56.2917 37.6042 57.375 35.5625C58.5 33.5208 60.0417 31.8125 62 30.4375C60.6667 30.4792 59.0208 30.7083 57.0625 31.125C55.1458 31.5 53.3542 32.0208 51.6875 32.6875C51.3542 33.9792 51.0625 35.7708 50.8125 38.0625C50.6042 40.3125 50.6667 43.0208 51 46.1875ZM59.9375 43.0625C63.9375 41.9792 68.25 41.4375 72.875 41.4375C76.0833 41.4375 79.25 41.7292 82.375 42.3125C85.5 42.8542 88.4583 43.6667 91.25 44.75C88.7917 41.25 85.7292 38.2917 82.0625 35.875C78.3958 33.4167 74.3958 31.7708 70.0625 30.9375C66.7708 32.0625 64.2083 33.625 62.375 35.625C60.5417 37.5833 59.7292 40.0625 59.9375 43.0625ZM30.8125 68.9375C31.3542 72.5208 32.4583 75.8958 34.125 79.0625C35.8333 82.2292 37.9375 85.0625 40.4375 87.5625C39.3958 84.5208 38.8542 81.3333 38.8125 78C38.8125 74.625 39.0208 71.2292 39.4375 67.8125C39.8542 64.3542 40.1458 61.0417 40.3125 57.875C38.5208 59.5 36.8125 61.2292 35.1875 63.0625C33.6042 64.8958 32.1458 66.8542 30.8125 68.9375ZM44.5 54.5625C44.5 58.2708 44.25 62.0417 43.75 65.875C43.2917 69.6667 43.0417 73.3542 43 76.9375C42.9583 80.5208 43.5417 83.8333 44.75 86.875C46 89.875 48.3333 92.4375 51.75 94.5625C53.5833 95.4375 55.5208 96.125 57.5625 96.625C59.6042 97.125 61.7292 97.375 63.9375 97.375C64.7292 97.375 65.5208 97.3542 66.3125 97.3125C67.1458 97.2708 67.9792 97.1875 68.8125 97.0625C62.6042 89.3542 57.8333 81.6042 54.5 73.8125C51.2083 65.9792 48.9792 58.8542 47.8125 52.4375C47.2292 52.7292 46.6667 53.0625 46.125 53.4375C45.5833 53.8125 45.0417 54.1875 44.5 54.5625ZM51.4375 50.4375C52.4792 56.6875 54.6875 63.8542 58.0625 71.9375C61.4792 79.9792 66.5208 88.0208 73.1875 96.0625C76.8958 94.9792 80.2917 93.3125 83.375 91.0625C86.5 88.7708 89.1458 86.0625 91.3125 82.9375C91.0625 79.7708 89.9167 76.9792 87.875 74.5625C85.875 72.1458 83.3958 69.9375 80.4375 67.9375C77.5208 65.8958 74.4792 63.8958 71.3125 61.9375C68.1458 59.9792 65.2708 57.8958 62.6875 55.6875C60.1042 53.4792 58.1875 50.9792 56.9375 48.1875C56.0208 48.4792 55.1042 48.8125 54.1875 49.1875C53.2708 49.5625 52.3542 49.9792 51.4375 50.4375ZM60.9375 46.9375C62.0208 49.0625 63.6667 51.0208 65.875 52.8125C68.0833 54.5625 70.5833 56.2917 73.375 58C76.1667 59.7083 78.9583 61.5 81.75 63.375C84.5417 65.25 87.0625 67.3542 89.3125 69.6875C91.5625 71.9792 93.25 74.6458 94.375 77.6875C95.3333 75.5625 96.0833 73.3542 96.625 71.0625C97.1667 68.7292 97.4375 66.3333 97.4375 63.875C97.4375 61.5833 97.1875 59.3333 96.6875 57.125C96.2292 54.9167 95.5417 52.7917 94.625 50.75C91.2083 49 87.7083 47.6875 84.125 46.8125C80.5833 45.9375 76.8333 45.5 72.875 45.5C70.8333 45.5 68.8125 45.625 66.8125 45.875C64.8125 46.125 62.8542 46.4792 60.9375 46.9375Z" fill="white"/>
</svg>
