<?xml version="1.0" encoding="UTF-8"?>
<svg xmlns="http://www.w3.org/2000/svg" xmlns:xlink="http://www.w3.org/1999/xlink" width="24" height="25.5" viewBox="0 0 24 25.5" version="1.1">
<g id="surface1">
<path style=" stroke:none;fill-rule:nonzero;fill:rgb(100%,100%,100%);fill-opacity:1;" d="M 12 24.492188 C 13.632812 24.492188 15.167969 24.179688 16.605469 23.554688 C 18.050781 22.929688 19.324219 22.066406 20.425781 20.964844 C 21.527344 19.863281 22.390625 18.59375 23.015625 17.15625 C 23.640625 15.710938 23.953125 14.171875 23.953125 12.539062 C 23.953125 10.90625 23.640625 9.371094 23.015625 7.933594 C 22.390625 6.488281 21.527344 5.214844 20.425781 4.113281 C 19.324219 3.011719 18.050781 2.148438 16.605469 1.523438 C 15.160156 0.898438 13.621094 0.585938 11.988281 0.585938 C 10.355469 0.585938 8.816406 0.898438 7.371094 1.523438 C 5.933594 2.148438 4.664062 3.011719 3.5625 4.113281 C 2.46875 5.214844 1.609375 6.488281 0.984375 7.933594 C 0.359375 9.371094 0.046875 10.90625 0.046875 12.539062 C 0.046875 14.171875 0.359375 15.710938 0.984375 17.15625 C 1.609375 18.59375 2.472656 19.863281 3.574219 20.964844 C 4.675781 22.066406 5.945312 22.929688 7.382812 23.554688 C 8.828125 24.179688 10.367188 24.492188 12 24.492188 Z M 5.53125 12.246094 C 5.539062 11.707031 5.648438 11.132812 5.859375 10.523438 C 6.070312 9.90625 6.34375 9.355469 6.679688 8.871094 C 6.914062 8.941406 7.097656 9.140625 7.230469 9.46875 C 7.371094 9.796875 7.445312 10.089844 7.453125 10.347656 C 7.085938 10.628906 6.742188 10.925781 6.421875 11.238281 C 6.109375 11.550781 5.8125 11.886719 5.53125 12.246094 Z M 8.179688 9.832031 C 8.117188 9.535156 8 9.226562 7.828125 8.90625 C 7.65625 8.585938 7.429688 8.375 7.148438 8.273438 C 7.664062 7.710938 8.226562 7.253906 8.835938 6.902344 C 8.765625 7.214844 8.722656 7.589844 8.707031 8.027344 C 8.691406 8.457031 8.714844 8.941406 8.777344 9.480469 C 8.675781 9.535156 8.574219 9.59375 8.472656 9.65625 C 8.378906 9.710938 8.28125 9.769531 8.179688 9.832031 Z M 9.515625 9.117188 C 9.445312 8.5 9.433594 7.972656 9.480469 7.535156 C 9.527344 7.097656 9.582031 6.753906 9.644531 6.503906 C 9.964844 6.386719 10.289062 6.289062 10.617188 6.210938 C 10.945312 6.132812 11.285156 6.085938 11.636719 6.070312 C 11.261719 6.34375 10.964844 6.675781 10.746094 7.066406 C 10.535156 7.457031 10.429688 7.886719 10.429688 8.355469 C 10.429688 8.425781 10.429688 8.492188 10.429688 8.554688 C 10.429688 8.617188 10.433594 8.675781 10.441406 8.730469 C 10.285156 8.792969 10.125 8.855469 9.960938 8.917969 C 9.804688 8.980469 9.65625 9.046875 9.515625 9.117188 Z M 11.238281 8.519531 C 11.222656 7.878906 11.382812 7.382812 11.71875 7.03125 C 12.054688 6.679688 12.550781 6.390625 13.207031 6.164062 C 14.042969 6.328125 14.8125 6.648438 15.515625 7.125 C 16.226562 7.59375 16.820312 8.167969 17.296875 8.847656 C 16.75 8.636719 16.175781 8.476562 15.574219 8.367188 C 14.972656 8.257812 14.359375 8.203125 13.734375 8.203125 C 13.304688 8.203125 12.878906 8.230469 12.457031 8.285156 C 12.042969 8.332031 11.636719 8.410156 11.238281 8.519531 Z M 5.601562 13.523438 C 5.859375 13.117188 6.140625 12.738281 6.445312 12.386719 C 6.757812 12.027344 7.089844 11.691406 7.441406 11.378906 C 7.410156 11.996094 7.355469 12.636719 7.277344 13.300781 C 7.199219 13.957031 7.160156 14.613281 7.160156 15.269531 C 7.160156 15.917969 7.261719 16.535156 7.464844 17.121094 C 6.988281 16.644531 6.585938 16.097656 6.257812 15.480469 C 5.929688 14.863281 5.710938 14.210938 5.601562 13.523438 Z M 8.25 10.734375 C 8.359375 10.664062 8.464844 10.59375 8.566406 10.523438 C 8.667969 10.453125 8.777344 10.386719 8.894531 10.324219 C 9.113281 11.566406 9.542969 12.945312 10.183594 14.460938 C 10.832031 15.96875 11.757812 17.46875 12.960938 18.960938 C 12.804688 18.984375 12.644531 19 12.480469 19.007812 C 12.324219 19.015625 12.167969 19.019531 12.011719 19.019531 C 11.589844 19.019531 11.179688 18.972656 10.78125 18.878906 C 10.390625 18.785156 10.019531 18.652344 9.667969 18.480469 C 9.003906 18.074219 8.550781 17.578125 8.308594 16.992188 C 8.074219 16.40625 7.960938 15.765625 7.96875 15.070312 C 7.976562 14.375 8.023438 13.660156 8.109375 12.925781 C 8.203125 12.183594 8.25 11.453125 8.25 10.734375 Z M 9.597656 9.9375 C 9.777344 9.851562 9.953125 9.773438 10.125 9.703125 C 10.304688 9.632812 10.480469 9.566406 10.652344 9.503906 C 10.894531 10.042969 11.265625 10.527344 11.765625 10.957031 C 12.273438 11.378906 12.832031 11.78125 13.441406 12.164062 C 14.050781 12.546875 14.640625 12.933594 15.210938 13.324219 C 15.789062 13.714844 16.269531 14.144531 16.652344 14.613281 C 17.042969 15.082031 17.261719 15.621094 17.308594 16.230469 C 16.886719 16.832031 16.375 17.351562 15.773438 17.789062 C 15.171875 18.226562 14.515625 18.550781 13.804688 18.761719 C 12.515625 17.207031 11.542969 15.652344 10.886719 14.097656 C 10.230469 12.535156 9.800781 11.148438 9.597656 9.9375 Z M 11.4375 9.269531 C 11.804688 9.175781 12.179688 9.105469 12.5625 9.058594 C 12.953125 9.011719 13.34375 8.988281 13.734375 8.988281 C 14.492188 8.988281 15.21875 9.074219 15.914062 9.246094 C 16.609375 9.417969 17.289062 9.671875 17.953125 10.007812 C 18.125 10.398438 18.257812 10.808594 18.351562 11.238281 C 18.445312 11.660156 18.492188 12.09375 18.492188 12.539062 C 18.492188 13.015625 18.4375 13.476562 18.328125 13.921875 C 18.226562 14.367188 18.082031 14.796875 17.894531 15.210938 C 17.675781 14.625 17.347656 14.109375 16.910156 13.664062 C 16.480469 13.210938 15.996094 12.804688 15.457031 12.445312 C 14.917969 12.078125 14.378906 11.730469 13.839844 11.402344 C 13.300781 11.074219 12.816406 10.742188 12.386719 10.40625 C 11.957031 10.0625 11.640625 9.683594 11.4375 9.269531 Z M 11.4375 9.269531 "/>
</g>
</svg>
