<svg xmlns="http://www.w3.org/2000/svg" width="24" height="24"><path style="stroke:none;fill-rule:nonzero;fill:#fff;fill-opacity:1" d="M12 23.05c1.633 0 3.168-.292 4.605-.882a12.22 12.22 0 0 0 3.82-2.438 11.467 11.467 0 0 0 2.59-3.582c.626-1.363.938-2.808.938-4.347a10.2 10.2 0 0 0-.937-4.332 11.53 11.53 0 0 0-2.59-3.598 12.361 12.361 0 0 0-3.82-2.437A12.166 12.166 0 0 0 11.987.55c-1.633 0-3.172.293-4.617.883A12.307 12.307 0 0 0 3.562 3.87 11.523 11.523 0 0 0 .985 7.465 10.2 10.2 0 0 0 .047 11.8c0 1.539.312 2.984.937 4.347a11.467 11.467 0 0 0 2.59 3.582 12.236 12.236 0 0 0 3.809 2.438c1.445.59 2.984.883 4.617.883Zm0-1.874a10.222 10.222 0 0 1-7.055-2.734 9.548 9.548 0 0 1-2.133-2.989 8.83 8.83 0 0 1-.761-3.652c0-1.301.254-2.52.761-3.649A9.52 9.52 0 0 1 4.946 5.16 9.82 9.82 0 0 1 8.11 3.156c1.204-.488 2.496-.73 3.88-.73 1.382 0 2.675.242 3.878.73a9.701 9.701 0 0 1 3.176 2.004 9.432 9.432 0 0 1 2.145 2.992 8.685 8.685 0 0 1 .773 3.649c0 1.3-.258 2.52-.773 3.652a9.22 9.22 0 0 1-2.133 2.988A10.222 10.222 0 0 1 12 21.176Zm-6.281-9.64c.273-.321.562-.626.867-.915.312-.293.644-.566.996-.816-.008-.215-.078-.473-.21-.782-.134-.316-.313-.503-.54-.562a5.844 5.844 0 0 0-.797 1.5c-.195.504-.3 1.039-.316 1.574Zm2.566-2.204c.094-.059.188-.113.281-.168.094-.05.192-.101.293-.152-.05-.446-.074-.89-.07-1.336.008-.34.05-.68.129-1.016-.61.332-1.16.754-1.629 1.246.266.098.48.293.645.586.171.285.289.567.351.84Zm1.29-.652c.14-.067.288-.125.445-.176.156-.059.308-.117.457-.176a1.173 1.173 0 0 1-.012-.168v-.176c0-.425.101-.816.305-1.18.21-.359.5-.66.867-.902a5.667 5.667 0 0 0-.926.121c-.36.063-.695.157-1.008.274a6.518 6.518 0 0 0-.164.95 6.99 6.99 0 0 0 .035 1.433Zm1.675-.551a9.742 9.742 0 0 1 2.426-.285c.601 0 1.195.05 1.781.152.57.09 1.125.234 1.664.43a6.179 6.179 0 0 0-1.723-1.567 6.297 6.297 0 0 0-2.25-.87c-.617.199-1.097.476-1.441.827-.344.344-.496.782-.457 1.313Zm-5.46 4.566c.1.633.308 1.227.62 1.785a6.47 6.47 0 0 0 1.184 1.5 5.091 5.091 0 0 1-.305-1.687c0-.594.04-1.195.117-1.797.078-.61.133-1.195.164-1.754-.336.29-.656.594-.96.918-.298.32-.57.668-.82 1.035Zm2.565-2.539a14.6 14.6 0 0 1-.14 2 16.896 16.896 0 0 0-.14 1.95 4.295 4.295 0 0 0 .327 1.753c.235.532.672.985 1.313 1.36.344.152.707.273 1.09.363.383.086.78.133 1.195.133.148 0 .297-.004.445-.012.157-.008.313-.023.47-.043-1.165-1.363-2.06-2.73-2.685-4.105-.617-1.383-1.035-2.64-1.253-3.77-.11.05-.215.11-.317.176Zm1.301-.726c.196 1.101.61 2.367 1.242 3.793.641 1.422 1.586 2.84 2.836 4.257a6.263 6.263 0 0 0 1.91-.882 6.112 6.112 0 0 0 1.489-1.434 2.451 2.451 0 0 0-.645-1.476 6.386 6.386 0 0 0-1.394-1.168 34.688 34.688 0 0 0-1.711-1.06 13.13 13.13 0 0 1-1.617-1.105 3.777 3.777 0 0 1-1.079-1.32c-.355.106-.699.238-1.03.395Zm1.781-.617c.204.374.512.718.926 1.035.414.308.883.617 1.407.918.523.3 1.046.617 1.57.949.512.32.988.695 1.418 1.113.422.402.738.875.949 1.41.18-.375.32-.765.422-1.168.2-.808.203-1.648.012-2.46a5.323 5.323 0 0 0-.387-1.126 9.582 9.582 0 0 0-1.969-.695 9.333 9.333 0 0 0-2.11-.23 10.126 10.126 0 0 0-2.238.254Zm0 0"/></svg>