<svg width="148" height="136" viewBox="0 0 148 136" fill="none" xmlns="http://www.w3.org/2000/svg">
<path d="M0.9375 62.875C0.9375 65.8333 1.79167 68.1667 3.5 69.875C5.20833 71.5833 7.54167 72.4375 10.5 72.4375H137.688C140.646 72.4375 142.979 71.5833 144.688 69.875C146.438 68.1667 147.312 65.8333 147.312 62.875V53.8125C147.312 50.8958 146.438 48.5625 144.688 46.8125C142.979 45.0625 140.646 44.1875 137.688 44.1875H10.5C7.54167 44.1875 5.20833 45.0625 3.5 46.8125C1.79167 48.5625 0.9375 50.8958 0.9375 53.8125V62.875ZM12.9375 54.125H135.25C136.708 54.125 137.438 54.8542 137.438 56.3125V60.3125C137.438 61.8125 136.708 62.5625 135.25 62.5625H12.9375C11.5208 62.5625 10.8125 61.8125 10.8125 60.3125V56.3125C10.8125 54.8542 11.5208 54.125 12.9375 54.125ZM40.6875 135.062H107.562C112.354 135.062 116.146 134.229 118.938 132.562C121.771 130.896 123.875 128.729 125.25 126.062C126.667 123.396 127.688 120.562 128.312 117.562L138.25 69.9375L128.438 68.25L119.125 113.75C118.542 116.417 117.792 118.583 116.875 120.25C116 121.917 114.688 123.125 112.938 123.875C111.229 124.667 108.854 125.062 105.812 125.062H42.4375C39.3958 125.062 37 124.667 35.25 123.875C33.5417 123.125 32.2292 121.917 31.3125 120.25C30.4375 118.583 29.7083 116.417 29.125 113.75L19.8125 68.25L10 69.9375L19.9375 117.562C20.5625 120.562 21.5625 123.396 22.9375 126.062C24.3542 128.729 26.4583 130.896 29.25 132.562C32.0833 134.229 35.8958 135.062 40.6875 135.062ZM47.5 118.25C48.6667 118.083 49.5417 117.604 50.125 116.812C50.7083 116.062 50.9167 115.188 50.75 114.188L45.5625 81.5C45.3958 80.5 44.8958 79.7292 44.0625 79.1875C43.2708 78.6458 42.3125 78.4583 41.1875 78.625C40.0208 78.8333 39.125 79.3125 38.5 80.0625C37.9167 80.8125 37.7292 81.6875 37.9375 82.6875L43.125 115.375C43.3333 116.417 43.8333 117.208 44.625 117.75C45.4167 118.292 46.375 118.458 47.5 118.25ZM65.4375 117.875C66.5625 117.833 67.4583 117.458 68.125 116.75C68.7917 116.042 69.1042 115.188 69.0625 114.188L67.0625 81.8125C66.9792 80.7708 66.5625 79.9375 65.8125 79.3125C65.1042 78.6458 64.1667 78.3542 63 78.4375C61.875 78.5208 60.9583 78.9167 60.25 79.625C59.5833 80.3333 59.2917 81.2083 59.375 82.25L61.375 114.562C61.4583 115.604 61.875 116.438 62.625 117.062C63.375 117.688 64.3125 117.958 65.4375 117.875ZM82.875 117.875C84 117.958 84.9375 117.688 85.6875 117.062C86.4375 116.438 86.8542 115.604 86.9375 114.562L88.9375 82.25C89.0208 81.2083 88.7083 80.3333 88 79.625C87.3333 78.9167 86.4375 78.5208 85.3125 78.4375C84.1458 78.3542 83.1875 78.6458 82.4375 79.3125C81.7292 79.9375 81.3333 80.7708 81.25 81.8125L79.25 114.188C79.2083 115.188 79.5208 116.042 80.1875 116.75C80.8542 117.458 81.75 117.833 82.875 117.875ZM100.75 118.25C101.875 118.458 102.833 118.292 103.625 117.75C104.458 117.208 104.958 116.417 105.125 115.375L110.375 82.6875C110.542 81.6875 110.312 80.8125 109.688 80.0625C109.104 79.3125 108.229 78.8333 107.062 78.625C105.938 78.4583 104.979 78.6458 104.188 79.1875C103.396 79.7292 102.896 80.5 102.688 81.5L97.5 114.188C97.3333 115.188 97.5417 116.062 98.125 116.812C98.7083 117.604 99.5833 118.083 100.75 118.25ZM21.125 46.75H33.6875L55.5625 8.6875C56.3958 7.1875 56.5417 5.83333 56 4.625C55.5 3.375 54.6875 2.4375 53.5625 1.8125C52.4375 1.1875 51.2083 0.979167 49.875 1.1875C48.5417 1.39583 47.4583 2.20833 46.625 3.625L21.125 46.75ZM114.562 46.75H127.125L101.625 3.625C100.833 2.25 99.7708 1.45833 98.4375 1.25C97.1042 1.04167 95.8542 1.22917 94.6875 1.8125C93.5625 2.4375 92.7292 3.375 92.1875 4.625C91.6875 5.83333 91.8542 7.1875 92.6875 8.6875L114.562 46.75Z" fill="white"/>
</svg>
