<svg xmlns="http://www.w3.org/2000/svg" width="24" height="24"><path style="stroke:none;fill-rule:nonzero;fill:#fff;fill-opacity:1" d="M1.082 2.234c0 .524.11.965.324 1.329.215.363.477.55.785.55h19.61c.308 0 .57-.187.785-.55.223-.364.332-.805.332-1.329 0-.515-.11-.957-.332-1.328-.207-.355-.492-.554-.785-.543H2.19c-.308 0-.57.18-.785.543-.215.371-.324.813-.324 1.328Zm5.992 17.438h9.844c1.61 0 2.82-.66 3.64-1.977.82-1.312 1.235-3.265 1.235-5.843V6.074H2.207v5.778c0 2.578.41 4.53 1.227 5.843.824 1.317 2.039 1.977 3.64 1.977ZM4.695 22.89c.184.113.36.101.528-.043.168-.121.3-.356.359-.649l.727-3.394-1.29-.79-.722 3.387c-.063.29-.055.606.023.883.07.281.207.5.375.61Zm14.602 0c.172-.102.312-.325.383-.606.078-.277.086-.594.023-.883l-.723-3.386-1.296.789.726 3.394c.063.285.192.52.356.649.164.14.359.156.53.043Zm0 0"/></svg>