<svg width="22" height="13" viewBox="0 0 22 13" fill="none" xmlns="http://www.w3.org/2000/svg">
<path d="M0.992188 1.21094C0.992188 1.49219 1.09115 1.73177 1.28906 1.92969C1.48698 2.1276 1.72656 2.22656 2.00781 2.22656H19.9844C20.2656 2.22656 20.5052 2.1276 20.7031 1.92969C20.9062 1.73177 21.0078 1.49219 21.0078 1.21094C21.0078 0.929688 20.9062 0.690104 20.7031 0.492188C20.5052 0.294271 20.2656 0.195312 19.9844 0.195312H2.00781C1.72656 0.195312 1.48698 0.294271 1.28906 0.492188C1.09115 0.690104 0.992188 0.929688 0.992188 1.21094ZM6.48438 10.6562H15.5078C16.9818 10.6562 18.0938 10.2995 18.8438 9.58594C19.599 8.8724 19.9766 7.81771 19.9766 6.42188V3.28906H2.02344V6.42188C2.02344 7.81771 2.39844 8.8724 3.14844 9.58594C3.90365 10.2995 5.01562 10.6562 6.48438 10.6562ZM4.30469 12.3984C4.47135 12.4609 4.63281 12.4531 4.78906 12.375C4.95052 12.3021 5.0599 12.1849 5.11719 12.0234L5.78125 10.1875L4.60156 9.75781L3.9375 11.5938C3.88021 11.7552 3.88802 11.9141 3.96094 12.0703C4.03385 12.2318 4.14844 12.3411 4.30469 12.3984ZM17.6875 12.3984C17.849 12.3411 17.9661 12.2318 18.0391 12.0703C18.112 11.9141 18.1198 11.7552 18.0625 11.5938L17.3984 9.75781L16.2109 10.1875L16.875 12.0234C16.9375 12.1849 17.0469 12.3021 17.2031 12.375C17.3646 12.4531 17.526 12.4609 17.6875 12.3984Z" fill="white"/>
</svg>
