<svg width="24" height="11" viewBox="0 0 24 11" fill="none" xmlns="http://www.w3.org/2000/svg">
<path d="M4.60156 10.6484H16.8828C17.5495 10.6484 18.1589 10.5964 18.7109 10.4922C19.263 10.3828 19.7396 10.1276 20.1406 9.72656C20.5365 9.33073 20.7865 8.85938 20.8906 8.3125C21 7.76042 21.0547 7.15104 21.0547 6.48438V4.24219C21.0547 3.57552 21 2.96875 20.8906 2.42188C20.7865 1.86979 20.5365 1.39583 20.1406 1C19.7396 0.598958 19.263 0.346354 18.7109 0.242188C18.1589 0.132812 17.5495 0.078125 16.8828 0.078125H4.58594C3.92969 0.078125 3.32552 0.132812 2.77344 0.242188C2.22656 0.351562 1.7526 0.604167 1.35156 1C0.955729 1.40104 0.703125 1.875 0.59375 2.42188C0.489583 2.96875 0.4375 3.56771 0.4375 4.21875V6.48438C0.4375 7.15104 0.489583 7.76042 0.59375 8.3125C0.697917 8.85938 0.950521 9.33073 1.35156 9.72656C1.7526 10.1276 2.22656 10.3828 2.77344 10.4922C3.32552 10.5964 3.9349 10.6484 4.60156 10.6484ZM4.39062 9.39062C3.98958 9.39062 3.59375 9.35417 3.20312 9.28125C2.81771 9.20312 2.50521 9.04688 2.26562 8.8125C2.03125 8.57292 1.8776 8.26302 1.80469 7.88281C1.73177 7.4974 1.69531 7.10156 1.69531 6.69531V4.04688C1.69531 3.63542 1.73177 3.23698 1.80469 2.85156C1.8776 2.46094 2.03125 2.14844 2.26562 1.91406C2.5 1.67448 2.8125 1.51823 3.20312 1.44531C3.59896 1.3724 4.0026 1.33594 4.41406 1.33594H17.1016C17.5026 1.33594 17.8958 1.375 18.2812 1.45312C18.6719 1.52604 18.9844 1.67969 19.2188 1.91406C19.4583 2.15365 19.6146 2.46615 19.6875 2.85156C19.7604 3.23177 19.7969 3.6224 19.7969 4.02344V6.69531C19.7969 7.10156 19.7604 7.4974 19.6875 7.88281C19.6146 8.26302 19.4583 8.57292 19.2188 8.8125C18.9844 9.04688 18.6719 9.20312 18.2812 9.28125C17.8958 9.35417 17.5026 9.39062 17.1016 9.39062H4.39062ZM22.1172 7.38281C22.3255 7.36719 22.5417 7.27604 22.7656 7.10938C22.9896 6.9375 23.1771 6.70312 23.3281 6.40625C23.4844 6.10938 23.5625 5.76042 23.5625 5.35938C23.5625 4.96354 23.4844 4.61719 23.3281 4.32031C23.1771 4.02344 22.9896 3.78906 22.7656 3.61719C22.5417 3.44531 22.3255 3.35417 22.1172 3.34375V7.38281ZM3.97656 8.48438H9.375C9.64583 8.48438 9.86458 8.46354 10.0312 8.42188C10.1979 8.375 10.3359 8.29688 10.4453 8.1875C10.6484 7.98438 10.75 7.6276 10.75 7.11719V3.60938C10.75 3.33854 10.7266 3.11979 10.6797 2.95312C10.6328 2.78646 10.5547 2.64844 10.4453 2.53906C10.3359 2.42969 10.1953 2.35417 10.0234 2.3125C9.85677 2.26562 9.64062 2.24219 9.375 2.24219H4C3.71875 2.24219 3.49219 2.26562 3.32031 2.3125C3.15365 2.35417 3.01562 2.42969 2.90625 2.53906C2.79688 2.64844 2.71875 2.78906 2.67188 2.96094C2.63021 3.1276 2.60938 3.34896 2.60938 3.625V7.11719C2.60938 7.38802 2.63021 7.60677 2.67188 7.77344C2.71875 7.9401 2.79688 8.07812 2.90625 8.1875C3.01562 8.29688 3.15365 8.375 3.32031 8.42188C3.49219 8.46354 3.71094 8.48438 3.97656 8.48438Z" fill="white"/>
</svg>
