<?xml version="1.0" encoding="UTF-8"?>
<svg xmlns="http://www.w3.org/2000/svg" xmlns:xlink="http://www.w3.org/1999/xlink" width="24" height="12.923077" viewBox="0 0 24 12.923077" version="1.1">
<g id="surface1">
<path style=" stroke:none;fill-rule:nonzero;fill:rgb(100%,100%,100%);fill-opacity:1;" d="M 0.597656 6.792969 C 0.597656 8.097656 0.898438 9.203125 1.5 10.109375 C 2.101562 11.019531 2.972656 11.710938 4.117188 12.1875 C 5.265625 12.664062 6.664062 12.902344 8.308594 12.902344 L 15.683594 12.902344 C 17.324219 12.902344 18.71875 12.664062 19.867188 12.1875 C 21.015625 11.710938 21.890625 11.019531 22.492188 10.109375 C 23.09375 9.203125 23.394531 8.097656 23.394531 6.792969 C 23.394531 5.492188 23.09375 4.382812 22.492188 3.476562 C 21.890625 2.5625 21.015625 1.867188 19.867188 1.390625 C 18.71875 0.914062 17.324219 0.679688 15.683594 0.679688 L 8.308594 0.679688 C 6.664062 0.679688 5.265625 0.914062 4.117188 1.390625 C 2.972656 1.867188 2.101562 2.5625 1.5 3.476562 C 0.898438 4.382812 0.597656 5.492188 0.597656 6.792969 Z M 1.757812 6.792969 C 1.757812 5.734375 2.015625 4.839844 2.523438 4.101562 C 3.035156 3.363281 3.773438 2.800781 4.746094 2.414062 C 5.722656 2.03125 6.910156 1.839844 8.308594 1.839844 L 15.683594 1.839844 C 17.078125 1.839844 18.265625 2.03125 19.242188 2.414062 C 20.214844 2.800781 20.960938 3.363281 21.46875 4.101562 C 21.976562 4.839844 22.234375 5.734375 22.234375 6.792969 C 22.234375 7.851562 21.976562 8.75 21.46875 9.492188 C 20.960938 10.226562 20.214844 10.785156 19.242188 11.171875 C 18.265625 11.550781 17.078125 11.742188 15.683594 11.742188 L 8.308594 11.742188 C 6.910156 11.742188 5.722656 11.550781 4.746094 11.171875 C 3.773438 10.785156 3.035156 10.226562 2.523438 9.492188 C 2.015625 8.75 1.757812 7.851562 1.757812 6.792969 Z M 1.191406 6.785156 L 22.804688 6.785156 L 22.804688 6.058594 L 1.191406 6.058594 Z M 6.867188 7.285156 L 17.121094 7.285156 C 17.375 7.285156 17.585938 7.203125 17.746094 7.046875 C 17.910156 6.886719 17.992188 6.679688 17.992188 6.425781 C 17.992188 6.171875 17.910156 5.964844 17.746094 5.804688 C 17.585938 5.640625 17.375 5.558594 17.121094 5.558594 L 6.867188 5.558594 C 6.621094 5.558594 6.414062 5.640625 6.246094 5.804688 C 6.082031 5.964844 6 6.171875 6 6.425781 C 6 6.679688 6.082031 6.886719 6.246094 7.046875 C 6.414062 7.203125 6.621094 7.285156 6.867188 7.285156 Z M 11.992188 9.441406 C 12.195312 9.441406 12.367188 9.367188 12.511719 9.222656 C 12.65625 9.074219 12.726562 8.90625 12.726562 8.71875 C 12.726562 8.515625 12.65625 8.34375 12.511719 8.199219 C 12.367188 8.054688 12.195312 7.984375 11.992188 7.984375 C 11.789062 7.984375 11.617188 8.054688 11.472656 8.199219 C 11.328125 8.34375 11.257812 8.515625 11.257812 8.71875 C 11.257812 8.914062 11.328125 9.085938 11.472656 9.230469 C 11.617188 9.375 11.789062 9.445312 11.992188 9.441406 Z M 11.992188 9.441406 "/>
</g>
</svg>
