<svg width="198" height="102" viewBox="0 0 198 102" fill="none" xmlns="http://www.w3.org/2000/svg">
<path d="M73.125 74C75.6667 74 78.1458 73.5 80.5625 72.5C83.0208 71.5 85.1458 69.9583 86.9375 67.875C88.7708 65.7917 89.9792 63.1458 90.5625 59.9375L93.625 43.5C94.6667 37.7917 94.0208 32.5833 91.6875 27.875C89.3958 23.1667 85.7708 19.0208 80.8125 15.4375C75.8542 11.8125 69.8958 8.79167 62.9375 6.375C56.7708 4.20833 50.6458 2.625 44.5625 1.625C38.4792 0.625 32.3958 0.125 26.3125 0.125C24.4792 0.125 23.1875 0.4375 22.4375 1.0625C21.7292 1.6875 21.375 2.60417 21.375 3.8125C21.375 6.77083 22.125 9.27083 23.625 11.3125C25.1667 13.3542 27.4167 14.5833 30.375 15C35.2083 15.7917 39.5625 16.7292 43.4375 17.8125C47.3542 18.8542 51.25 20.2917 55.125 22.125C56.6667 22.8333 57.7292 23.75 58.3125 24.875C58.9375 25.9583 59.1042 27.2708 58.8125 28.8125L55.125 51.3125C54.4167 55.6042 54.7917 59.4583 56.25 62.875C57.7083 66.2917 59.9167 69 62.875 71C65.875 73 69.2917 74 73.125 74ZM73.125 65.25C70.4583 65.25 68.1875 64.3333 66.3125 62.5C64.4792 60.625 63.5625 58.3542 63.5625 55.6875C63.5625 53.0625 64.4792 50.8125 66.3125 48.9375C68.1875 47.0625 70.4583 46.125 73.125 46.125C75.8333 46.125 78.1042 47.0625 79.9375 48.9375C81.8125 50.7708 82.75 53.0208 82.75 55.6875C82.75 58.3958 81.8125 60.6667 79.9375 62.5C78.1042 64.3333 75.8333 65.25 73.125 65.25ZM73.125 61.1875C74.7083 61.1875 76.0208 60.6667 77.0625 59.625C78.1042 58.5833 78.625 57.2708 78.625 55.6875C78.625 54.1458 78.1042 52.8542 77.0625 51.8125C76.0208 50.7292 74.7083 50.1875 73.125 50.1875C71.5833 50.1875 70.2708 50.7292 69.1875 51.8125C68.1458 52.8542 67.625 54.1458 67.625 55.6875C67.625 57.2708 68.1458 58.5833 69.1875 59.625C70.2708 60.6667 71.5833 61.1875 73.125 61.1875ZM73.125 79.5625C69.2917 79.5625 65.7917 78.7917 62.625 77.25C59.5 75.7083 56.8333 73.6042 54.625 70.9375C52.4583 68.2292 50.9167 65.125 50 61.625C49.0833 58.125 48.9792 54.3958 49.6875 50.4375L51.875 36.875C45.7917 38.4583 40.5833 40.5833 36.25 43.25C31.9583 45.9167 28.875 49.25 27 53.25C30.2917 67.75 35.6042 81.375 42.9375 94.125C44.7292 95.0417 46.625 95.6875 48.625 96.0625C50.625 96.4792 52.8958 96.6875 55.4375 96.6875C60.3542 96.6875 65.0208 96.0833 69.4375 94.875C73.8542 93.6667 77.8125 91.875 81.3125 89.5C84.8542 87.125 87.6875 84.1667 89.8125 80.625C91.9792 77.0417 93.2083 72.8542 93.5 68.0625C91.5 71.6042 88.7083 74.4167 85.125 76.5C81.5417 78.5417 77.5417 79.5625 73.125 79.5625ZM0.0625 77.1875C0.0625 82.0625 1.0625 86.3333 3.0625 90C5.10417 93.625 7.9375 96.4583 11.5625 98.5C15.1875 100.542 19.4167 101.562 24.25 101.562C27.1667 101.562 29.8542 101.146 32.3125 100.312C34.8125 99.5208 36.875 98.5625 38.5 97.4375C34.5 90.6458 31.0833 83.625 28.25 76.375C25.4583 69.125 23.1875 61.625 21.4375 53.875C17.8125 54.2083 14.375 55.375 11.125 57.375C7.875 59.375 5.20833 62.0833 3.125 65.5C1.08333 68.875 0.0625 72.7708 0.0625 77.1875ZM124.125 74C127.958 74 131.354 73 134.312 71C137.312 69 139.542 66.2917 141 62.875C142.458 59.4583 142.833 55.6042 142.125 51.3125L138.375 28.8125C138.125 27.2708 138.292 25.9583 138.875 24.875C139.5 23.75 140.583 22.8333 142.125 22.125C146.042 20.2917 149.938 18.8542 153.812 17.8125C157.729 16.7292 162.083 15.7917 166.875 15C169.875 14.5833 172.125 13.3542 173.625 11.3125C175.125 9.27083 175.875 6.77083 175.875 3.8125C175.875 2.60417 175.521 1.6875 174.812 1.0625C174.104 0.4375 172.812 0.125 170.938 0.125C164.854 0.125 158.771 0.625 152.688 1.625C146.604 2.625 140.458 4.20833 134.25 6.375C127.333 8.79167 121.375 11.8125 116.375 15.4375C111.417 19.0208 107.792 23.1667 105.5 27.875C103.208 32.5833 102.583 37.7917 103.625 43.5L106.688 59.9375C107.271 63.1458 108.458 65.7917 110.25 67.875C112.042 69.9583 114.167 71.5 116.625 72.5C119.125 73.5 121.625 74 124.125 74ZM124.125 65.25C121.417 65.25 119.125 64.3333 117.25 62.5C115.417 60.6667 114.5 58.3958 114.5 55.6875C114.5 53.0208 115.417 50.7708 117.25 48.9375C119.125 47.0625 121.417 46.125 124.125 46.125C126.75 46.125 128.979 47.0625 130.812 48.9375C132.688 50.8125 133.625 53.0625 133.625 55.6875C133.625 58.3542 132.688 60.625 130.812 62.5C128.979 64.3333 126.75 65.25 124.125 65.25ZM124.125 61.1875C125.667 61.1875 126.958 60.6667 128 59.625C129.042 58.5833 129.562 57.2708 129.562 55.6875C129.562 54.1458 129.042 52.8542 128 51.8125C126.958 50.7292 125.667 50.1875 124.125 50.1875C122.583 50.1875 121.271 50.7292 120.188 51.8125C119.104 52.8542 118.562 54.1458 118.562 55.6875C118.562 57.2708 119.104 58.5833 120.188 59.625C121.271 60.6667 122.583 61.1875 124.125 61.1875ZM124.125 79.5625C119.708 79.5625 115.708 78.5417 112.125 76.5C108.542 74.4167 105.771 71.6042 103.812 68.0625C104.062 72.8542 105.25 77.0417 107.375 80.625C109.542 84.1667 112.375 87.125 115.875 89.5C119.417 91.875 123.396 93.6667 127.812 94.875C132.229 96.0833 136.896 96.6875 141.812 96.6875C144.354 96.6875 146.604 96.4792 148.562 96.0625C150.562 95.6875 152.479 95.0417 154.312 94.125C161.604 81.375 166.917 67.75 170.25 53.25C168.333 49.25 165.229 45.9167 160.938 43.25C156.688 40.5833 151.479 38.4583 145.312 36.875L147.625 50.4375C148.292 54.3958 148.167 58.125 147.25 61.625C146.333 65.125 144.771 68.2292 142.562 70.9375C140.396 73.6042 137.729 75.7083 134.562 77.25C131.438 78.7917 127.958 79.5625 124.125 79.5625ZM197.188 77.1875C197.188 72.7708 196.146 68.875 194.062 65.5C192.021 62.0833 189.354 59.375 186.062 57.375C182.812 55.375 179.396 54.2083 175.812 53.875C174.062 61.625 171.771 69.125 168.938 76.375C166.104 83.625 162.708 90.6458 158.75 97.4375C160.333 98.5625 162.375 99.5208 164.875 100.312C167.375 101.146 170.062 101.562 172.938 101.562C177.812 101.562 182.062 100.542 185.688 98.5C189.354 96.4583 192.188 93.625 194.188 90C196.188 86.3333 197.188 82.0625 197.188 77.1875Z" fill="white"/>
</svg>
