<svg xmlns="http://www.w3.org/2000/svg" width="24" height="24"><path style="stroke:none;fill-rule:nonzero;fill:#fff;fill-opacity:1" d="M10.3 14.77a3.29 3.29 0 0 0 1.9.285 3.758 3.758 0 0 0 1.757-.778 4.035 4.035 0 0 0 1.203-1.629l2.707-6.632a4.044 4.044 0 0 0 .266-2.047 4.11 4.11 0 0 0-.707-1.906A3.595 3.595 0 0 0 15.91.766c-.633-.29-1.273-.387-1.914-.29-.64.094-1.25.364-1.77.778a3.921 3.921 0 0 0-1.203 1.644L8.332 9.531a4.015 4.015 0 0 0-.281 2.067c.086.691.324 1.32.707 1.886.394.559.906.989 1.543 1.286Zm1.352-1.184a2.119 2.119 0 0 1-1.632-.723c-.438-.48-.657-1.062-.657-1.758 0-.68.223-1.265.668-1.746a2.127 2.127 0 0 1 1.621-.734c.653 0 1.2.246 1.649.734.445.48.668 1.067.668 1.746 0 .696-.223 1.278-.668 1.758-.45.485-.996.723-1.649.723Zm0-1.024c.391 0 .715-.14.965-.417a1.51 1.51 0 0 0 .387-1.04c0-.394-.129-.734-.387-1.023a1.221 1.221 0 0 0-.965-.434c-.382 0-.707.145-.964.434-.25.29-.376.629-.376 1.023 0 .403.126.75.376 1.04.257.277.582.418.964.418Zm11.586-2.035c-.234-.828-.558-1.53-.98-2.105a8.537 8.537 0 0 0-1.406-1.543c-.508-.45-1.004-.899-1.485-1.34a6.245 6.245 0 0 1-.324 1.035l-2.703 6.64a5.356 5.356 0 0 1-1.633 2.192c-.7.551-1.512.91-2.371 1.04a4.525 4.525 0 0 1-2.559-.395 4.941 4.941 0 0 1-2.007-1.684 5.773 5.773 0 0 1-.98-2.453 5.536 5.536 0 0 1 .269-2.684c-.618.797-.989 1.782-1.114 2.957-.113 1.165.059 2.426.524 3.793.562 1.692 1.375 2.946 2.437 3.766a6.231 6.231 0 0 0 3.602 1.297c1.347.05 2.722-.223 4.125-.82l2.531-1.082c1.145-.493 2.078-1.176 2.8-2.051a6.643 6.643 0 0 0 1.419-2.996c.234-1.137.183-2.324-.145-3.567ZM5.25 16.457a11.283 11.283 0 0 1-.574-2.738 9.73 9.73 0 0 1 .16-2.715c-.84.25-1.59.676-2.25 1.27a6.486 6.486 0 0 0-1.566 2.164 6.7 6.7 0 0 0-.563 2.738c0 1.172.262 2.246.79 3.219a6.28 6.28 0 0 0 2.14 2.308 5.403 5.403 0 0 0 2.976.863c.75 0 1.453-.14 2.114-.418.66-.27 1.25-.656 1.77-1.152a7.378 7.378 0 0 1-3-1.992c-.86-.945-1.524-2.125-1.997-3.547Zm0 0"/></svg>