<svg xmlns="http://www.w3.org/2000/svg" width="24" height="24"><path style="stroke:none;fill-rule:nonzero;fill:#fff;fill-opacity:1" d="M9.07 17.078c.297 0 .582-.117.86-.344.285-.234.535-.601.734-1.07.215-.484.352-1.094.422-1.836l.351-3.789c.122-1.32.047-2.523-.222-3.61-.266-1.085-.684-2.038-1.254-2.867A8.215 8.215 0 0 0 7.898 1.47 8.32 8.32 0 0 0 5.778.375 6.675 6.675 0 0 0 3.671.031c-.211 0-.363.07-.45.211-.081.149-.12.36-.12.64 0 .68.086 1.259.257 1.727.18.47.438.758.782.852.554.18 1.058.398 1.507.648.45.243.899.57 1.348 1 .152.121.281.344.367.633.07.25.09.555.059.906l-.426 5.196c-.082.984-.039 1.875.129 2.664.168.789.422 1.414.766 1.875.343.46.738.695 1.18.695Zm0-2.023c-.293.011-.578-.215-.785-.633-.21-.414-.324-.985-.316-1.57 0-.61.105-1.125.316-1.555.219-.438.48-.656.785-.656.313 0 .578.218.79.656.214.422.324.937.324 1.555 0 .625-.11 1.148-.325 1.57-.21.422-.476.633-.789.633Zm0-.938c.168.012.332-.117.453-.36.122-.237.188-.566.184-.905.004-.336-.059-.665-.18-.899-.12-.25-.285-.387-.457-.375-.172-.004-.336.133-.453.375-.12.238-.183.563-.18.899-.007.34.06.668.18.906.125.242.278.36.453.36Zm0 4.242c-.441 0-.843-.18-1.21-.53-.356-.352-.669-.849-.923-1.462a8.695 8.695 0 0 1-.535-2.148 11.848 11.848 0 0 1-.035-2.578l.254-3.133a5.687 5.687 0 0 0-1.805 1.476c-.496.61-.851 1.383-1.066 2.305.371 3.313.992 6.488 1.84 9.43.207.21.426.36.656.453.23.094.492.14.785.14a3.31 3.31 0 0 0 1.617-.421c.489-.254.95-.672 1.368-1.235.398-.527.734-1.226.98-2.047.25-.828.395-1.797.426-2.906-.23.82-.55 1.469-.965 1.953-.422.473-.902.719-1.387.703Zm-8.43-.547c0 1.13.118 2.114.348 2.958.235.843.563 1.492.98 1.964.419.473.907.707 1.466.707.336 0 .644-.093.93-.293.288-.18.527-.406.714-.664a53.874 53.874 0 0 1-1.183-4.859 64.281 64.281 0 0 1-.786-5.191c-.418.078-.816.351-1.191.808-.375.461-.684 1.086-.922 1.88-.238.769-.355 1.679-.355 2.69Zm14.317-.734c.441 0 .832-.23 1.176-.695.344-.457.601-1.086.77-1.871.167-.793.214-1.684.132-2.664l-.433-5.2a2.595 2.595 0 0 1 .058-.906c.086-.285.219-.508.375-.629.434-.418.883-.75 1.348-1 .453-.25.953-.472 1.508-.652.343-.09.605-.379.777-.848.172-.472.262-1.05.262-1.73 0-.278-.043-.492-.125-.64-.082-.138-.23-.208-.446-.208-1.441-.004-2.875.48-4.234 1.434a8.476 8.476 0 0 0-2.063 2.093c-.57.829-.992 1.782-1.253 2.872-.266 1.086-.336 2.285-.22 3.609l.356 3.785c.067.742.203 1.356.41 1.836.207.477.454.84.735 1.07.289.227.578.344.867.344Zm0-2.023c-.297.015-.582-.215-.793-.63-.21-.413-.324-.984-.316-1.57 0-.62.105-1.136.316-1.558.207-.43.496-.668.793-.656.3 0 .559.222.77.656.218.43.328.945.328 1.558 0 .614-.11 1.137-.328 1.57-.204.41-.48.641-.77.63Zm0-.934c.168.008.328-.121.445-.36.121-.238.188-.566.184-.906.004-.34-.063-.664-.184-.902-.113-.246-.277-.383-.445-.375-.172-.004-.336.133-.453.379-.125.23-.191.559-.188.898 0 .364.063.665.188.907s.273.36.453.36Zm0 4.238c-.512 0-.973-.234-1.387-.699-.402-.465-.734-1.14-.957-1.953.028 1.105.164 2.078.41 2.906.25.813.579 1.5.98 2.043.411.551.868.961 1.38 1.235a3.284 3.284 0 0 0 1.613.422c.293 0 .555-.043.781-.137.23-.098.45-.242.664-.457.84-2.942 1.461-6.121 1.836-9.426-.218-.922-.578-1.695-1.074-2.309a5.504 5.504 0 0 0-1.8-1.472l.265 3.129c.078.914.062 1.773-.043 2.582a8.824 8.824 0 0 1-.54 2.148c-.519 1.277-1.304 2.012-2.128 1.992Zm8.43-.547c0-1.015-.121-1.917-.36-2.69-.226-.77-.543-1.415-.925-1.88-.356-.449-.762-.726-1.18-.808a66.435 66.435 0 0 1-.793 5.195 55.918 55.918 0 0 1-1.176 4.86c.18.253.418.48.707.66.285.199.598.292.93.292.562 0 1.05-.234 1.469-.707.425-.472.75-1.12.98-1.964.234-.844.348-1.829.348-2.957Zm0 0"/></svg>