<svg width="171" height="116" viewBox="0 0 171 116" fill="none" xmlns="http://www.w3.org/2000/svg">
<path d="M53.0625 0.375C47.2292 0.375 41.6667 1.64583 36.375 4.1875C31.0833 6.6875 26.2292 10.2292 21.8125 14.8125C17.3958 19.3542 13.5417 24.7292 10.25 30.9375C7 37.1458 4.47917 43.9583 2.6875 51.375C0.895833 58.7917 0 66.6042 0 74.8125C0 79.6458 0.291667 84.4583 0.875 89.25C1.45833 94.0417 2.27083 98.4167 3.3125 102.375C4.39583 106.292 5.625 109.438 7 111.812C8.375 114.188 9.85417 115.375 11.4375 115.375C13.0208 115.375 14.4792 114.75 15.8125 113.5C17.1458 112.25 18.25 110.625 19.125 108.625C20 106.667 20.5208 104.625 20.6875 102.5C17.5208 101.542 14.6667 100 12.125 97.875C9.625 95.7083 7.64583 93.125 6.1875 90.125C4.77083 87.0833 4.0625 83.8542 4.0625 80.4375C4.0625 77.2708 4.64583 74.3125 5.8125 71.5625C7.02083 68.8125 8.72917 66.3542 10.9375 64.1875C11.4375 57.1042 12.8958 50.375 15.3125 44C17.7292 37.625 20.8125 31.9792 24.5625 27.0625C28.3542 22.1042 32.625 18.2083 37.375 15.375C42.1667 12.5 47.1875 11.0625 52.4375 11.0625C58.7292 11.0625 63.3542 13.3542 66.3125 17.9375C69.3125 22.5208 70.8125 29.1875 70.8125 37.9375L20.5 64.1875C16.8333 66.0625 14.125 68.4375 12.375 71.3125C10.6667 74.1458 9.8125 77.1875 9.8125 80.4375C9.8125 83.5625 10.5833 86.4167 12.125 89C13.6667 91.5833 15.7292 93.6667 18.3125 95.25C20.9375 96.8333 23.8125 97.625 26.9375 97.625C29.2292 97.625 31.3542 97.2708 33.3125 96.5625C35.2708 95.8542 37.8958 94.625 41.1875 92.875L66.4375 79C70.1458 76.9583 73.0833 74.6875 75.25 72.1875C77.4167 69.6875 78.9792 66.6667 79.9375 63.125C80.9375 59.5417 81.4375 55.1458 81.4375 49.9375V36.0625C81.4375 25.1042 79.0417 16.4167 74.25 10C69.5 3.58333 62.4375 0.375 53.0625 0.375ZM26.5 91.1875C23.5417 91.1875 21 90.125 18.875 88C16.75 85.875 15.6875 83.3333 15.6875 80.375C15.6875 77.375 16.75 74.8125 18.875 72.6875C21 70.5625 23.5417 69.5 26.5 69.5C29.5 69.5 32.0625 70.5625 34.1875 72.6875C36.3125 74.8125 37.375 77.375 37.375 80.375C37.375 83.3333 36.3125 85.875 34.1875 88C32.0625 90.125 29.5 91.1875 26.5 91.1875ZM26.5 86.9375C28.3333 86.9375 29.8958 86.2917 31.1875 85C32.4792 83.7083 33.125 82.1667 33.125 80.375C33.125 78.5833 32.4792 77.0417 31.1875 75.75C29.8958 74.4167 28.3333 73.75 26.5 73.75C24.7083 73.75 23.1667 74.4167 21.875 75.75C20.5833 77.0417 19.9375 78.5833 19.9375 80.375C19.9375 82.1667 20.5833 83.7083 21.875 85C23.1667 86.2917 24.7083 86.9375 26.5 86.9375ZM117.875 0.375C108.5 0.375 101.417 3.58333 96.625 10C91.875 16.4167 89.5 25.1042 89.5 36.0625V49.9375C89.5 55.1458 89.9583 59.5417 90.875 63.125C91.8333 66.6667 93.4167 69.6875 95.625 72.1875C97.8333 74.6875 100.792 76.9583 104.5 79L129.75 92.875C133 94.625 135.604 95.8542 137.562 96.5625C139.521 97.2708 141.646 97.625 143.938 97.625C147.062 97.625 149.938 96.8333 152.562 95.25C155.188 93.6667 157.271 91.5833 158.812 89C160.354 86.4167 161.125 83.5625 161.125 80.4375C161.125 77.1875 160.25 74.1458 158.5 71.3125C156.75 68.4375 154.062 66.0625 150.438 64.1875L100.125 37.9375C100.125 29.1875 101.604 22.5208 104.562 17.9375C107.521 13.3542 112.146 11.0625 118.438 11.0625C123.729 11.0625 128.75 12.5 133.5 15.375C138.292 18.2083 142.562 22.1042 146.312 27.0625C150.104 31.9792 153.208 37.625 155.625 44C158.042 50.375 159.5 57.1042 160 64.1875C162.208 66.3542 163.896 68.8125 165.062 71.5625C166.271 74.3125 166.875 77.2708 166.875 80.4375C166.875 83.8542 166.146 87.0833 164.688 90.125C163.271 93.125 161.292 95.7083 158.75 97.875C156.25 100 153.417 101.542 150.25 102.5C150.417 104.625 150.917 106.667 151.75 108.625C152.625 110.625 153.729 112.25 155.062 113.5C156.396 114.75 157.875 115.375 159.5 115.375C161.042 115.375 162.5 114.188 163.875 111.812C165.292 109.438 166.521 106.292 167.562 102.375C168.646 98.4167 169.479 94.0417 170.062 89.25C170.646 84.4583 170.938 79.6458 170.938 74.8125C170.938 66.6042 170.021 58.7917 168.188 51.375C166.396 43.9583 163.875 37.1458 160.625 30.9375C157.375 24.7292 153.542 19.3542 149.125 14.8125C144.708 10.2292 139.854 6.6875 134.562 4.1875C129.271 1.64583 123.708 0.375 117.875 0.375ZM144.375 91.1875C141.417 91.1875 138.875 90.125 136.75 88C134.625 85.875 133.562 83.3333 133.562 80.375C133.562 77.375 134.625 74.8125 136.75 72.6875C138.875 70.5625 141.417 69.5 144.375 69.5C147.375 69.5 149.938 70.5625 152.062 72.6875C154.188 74.8125 155.25 77.375 155.25 80.375C155.25 83.3333 154.188 85.875 152.062 88C149.938 90.125 147.375 91.1875 144.375 91.1875ZM144.375 86.9375C146.208 86.9375 147.771 86.2917 149.062 85C150.354 83.7083 151 82.1667 151 80.375C151 78.5833 150.354 77.0417 149.062 75.75C147.771 74.4167 146.208 73.75 144.375 73.75C142.583 73.75 141.042 74.4167 139.75 75.75C138.458 77.0417 137.812 78.5833 137.812 80.375C137.812 82.1667 138.458 83.7083 139.75 85C141.042 86.2917 142.583 86.9375 144.375 86.9375Z" fill="white"/>
</svg>
