<?xml version="1.0" encoding="UTF-8"?>
<svg xmlns="http://www.w3.org/2000/svg" xmlns:xlink="http://www.w3.org/1999/xlink" width="24" height="22.285714" viewBox="0 0 24 22.285714" version="1.1">
<g id="surface1">
<path style=" stroke:none;fill-rule:nonzero;fill:rgb(100%,100%,100%);fill-opacity:1;" d="M 13.6875 13.714844 C 14.320312 13.4375 14.832031 13.039062 15.214844 12.523438 C 15.605469 11.996094 15.847656 11.410156 15.9375 10.769531 C 16.027344 10.117188 15.933594 9.476562 15.65625 8.851562 L 12.964844 2.691406 C 12.6875 2.058594 12.28125 1.550781 11.746094 1.164062 C 11.21875 0.773438 10.632812 0.53125 9.992188 0.441406 C 9.347656 0.351562 8.710938 0.441406 8.074219 0.710938 C 7.449219 0.976562 6.941406 1.378906 6.550781 1.914062 C 6.164062 2.441406 5.929688 3.03125 5.839844 3.683594 C 5.75 4.335938 5.84375 4.96875 6.121094 5.585938 L 8.824219 11.746094 C 9.101562 12.363281 9.503906 12.867188 10.03125 13.257812 C 10.558594 13.644531 11.144531 13.882812 11.785156 13.980469 C 12.429688 14.070312 13.0625 13.980469 13.6875 13.714844 Z M 12.335938 12.617188 C 11.683594 12.617188 11.132812 12.394531 10.6875 11.945312 C 10.242188 11.5 10.019531 10.957031 10.019531 10.3125 C 10.019531 9.679688 10.242188 9.136719 10.6875 8.691406 C 11.132812 8.238281 11.683594 8.007812 12.335938 8.007812 C 12.96875 8.007812 13.507812 8.238281 13.957031 8.691406 C 14.402344 9.136719 14.625 9.679688 14.625 10.3125 C 14.625 10.957031 14.402344 11.5 13.957031 11.945312 C 13.519531 12.394531 12.976562 12.617188 12.335938 12.617188 Z M 12.335938 11.664062 C 12.710938 11.664062 13.027344 11.535156 13.285156 11.277344 C 13.542969 11.007812 13.675781 10.6875 13.675781 10.3125 C 13.675781 9.945312 13.542969 9.628906 13.285156 9.363281 C 13.027344 9.09375 12.710938 8.960938 12.335938 8.960938 C 11.941406 8.960938 11.617188 9.09375 11.355469 9.363281 C 11.097656 9.628906 10.96875 9.945312 10.96875 10.3125 C 10.96875 10.6875 11.097656 11.007812 11.355469 11.277344 C 11.617188 11.535156 11.941406 11.664062 12.335938 11.664062 Z M 0.75 9.777344 C 0.410156 10.929688 0.355469 12.03125 0.589844 13.085938 C 0.820312 14.128906 1.300781 15.058594 2.023438 15.871094 C 2.746094 16.683594 3.679688 17.316406 4.820312 17.773438 L 7.351562 18.777344 C 8.753906 19.332031 10.125 19.585938 11.464844 19.539062 C 12.8125 19.488281 14.019531 19.085938 15.082031 18.335938 C 16.144531 17.574219 16.957031 16.410156 17.519531 14.839844 C 17.972656 13.570312 18.144531 12.398438 18.027344 11.316406 C 17.910156 10.226562 17.542969 9.3125 16.929688 8.570312 C 17.242188 9.394531 17.332031 10.222656 17.195312 11.0625 C 17.0625 11.894531 16.738281 12.652344 16.21875 13.339844 C 15.699219 14.027344 15.03125 14.550781 14.210938 14.90625 C 13.371094 15.261719 12.511719 15.382812 11.636719 15.269531 C 10.773438 15.144531 9.980469 14.820312 9.269531 14.304688 C 8.554688 13.785156 8.011719 13.105469 7.648438 12.269531 L 4.941406 6.105469 C 4.800781 5.777344 4.691406 5.457031 4.621094 5.144531 C 4.128906 5.554688 3.628906 5.96875 3.121094 6.386719 C 2.613281 6.800781 2.148438 7.277344 1.726562 7.820312 C 1.308594 8.355469 0.980469 9.007812 0.75 9.777344 Z M 18.738281 15.28125 C 18.261719 16.601562 17.59375 17.699219 16.726562 18.574219 C 15.871094 19.441406 14.875 20.058594 13.742188 20.425781 C 14.257812 20.886719 14.847656 21.246094 15.507812 21.496094 C 16.167969 21.753906 16.871094 21.882812 17.613281 21.882812 C 18.699219 21.882812 19.691406 21.617188 20.585938 21.082031 C 21.488281 20.554688 22.199219 19.839844 22.726562 18.9375 C 23.261719 18.035156 23.53125 17.039062 23.53125 15.949219 C 23.53125 15.039062 23.339844 14.191406 22.957031 13.40625 C 22.582031 12.621094 22.0625 11.949219 21.402344 11.398438 C 20.742188 10.84375 19.992188 10.449219 19.152344 10.21875 C 19.332031 11.050781 19.382812 11.886719 19.3125 12.738281 C 19.242188 13.574219 19.050781 14.425781 18.738281 15.28125 Z M 18.738281 15.28125 "/>
</g>
</svg>
