<svg width="20" height="16" viewBox="0 0 20 16" fill="none" xmlns="http://www.w3.org/2000/svg">
<path d="M6.11719 7.67969C6.75781 7.67969 7.33854 7.52344 7.85938 7.21094C8.38542 6.89323 8.80208 6.47396 9.10938 5.95312C9.42188 5.42708 9.57812 4.85156 9.57812 4.22656C9.57812 3.59115 9.41927 3.01302 9.10156 2.49219C8.78906 1.96615 8.36979 1.54948 7.84375 1.24219C7.31771 0.929688 6.74219 0.773438 6.11719 0.773438C5.95052 0.773438 5.79167 0.783854 5.64062 0.804688C5.48958 0.820312 5.34635 0.848958 5.21094 0.890625V2.84375C5.48698 2.64062 5.78906 2.53906 6.11719 2.53906C6.41927 2.53906 6.69531 2.61719 6.94531 2.77344C7.19531 2.92448 7.39583 3.1276 7.54688 3.38281C7.70312 3.63802 7.78125 3.91927 7.78125 4.22656C7.78125 4.52865 7.70573 4.80469 7.55469 5.05469C7.40365 5.29948 7.20312 5.4974 6.95312 5.64844C6.70312 5.79427 6.42448 5.86719 6.11719 5.86719C5.65365 5.86719 5.26042 5.70833 4.9375 5.39062C4.61979 5.07292 4.46094 4.6849 4.46094 4.22656V1.17969C3.90885 1.49219 3.47135 1.91667 3.14844 2.45312C2.82552 2.98958 2.66406 3.58073 2.66406 4.22656C2.66406 4.86719 2.81771 5.44792 3.125 5.96875C3.4375 6.48958 3.85417 6.90625 4.375 7.21875C4.90104 7.52604 5.48177 7.67969 6.11719 7.67969ZM6.11719 5.14062C6.36198 5.14062 6.57292 5.04948 6.75 4.86719C6.93229 4.67969 7.02344 4.46615 7.02344 4.22656C7.02344 3.99219 6.93229 3.78385 6.75 3.60156C6.56771 3.41406 6.35677 3.32031 6.11719 3.32031C5.88281 3.32031 5.67448 3.41146 5.49219 3.59375C5.3099 3.77083 5.21875 3.98177 5.21875 4.22656C5.21875 4.47135 5.30729 4.6849 5.48438 4.86719C5.66146 5.04948 5.8724 5.14062 6.11719 5.14062ZM4.83594 6.91406V8.74219C4.83594 8.97135 4.90365 9.14583 5.03906 9.26562C5.17969 9.38021 5.36719 9.4375 5.60156 9.4375H6.63281C6.8724 9.4375 7.0599 9.38021 7.19531 9.26562C7.33594 9.14583 7.40625 8.97135 7.40625 8.74219V6.91406H4.83594ZM5.53125 15.9609H6.71094V8.63281H5.53125V15.9609ZM2.0625 4.23438C2.0625 3.55208 2.21875 2.92188 2.53125 2.34375C2.84375 1.76562 3.25781 1.29427 3.77344 0.929688C3.14323 0.940104 2.57552 1.09115 2.07031 1.38281C1.5651 1.67448 1.16406 2.06771 0.867188 2.5625C0.575521 3.05729 0.429688 3.61458 0.429688 4.23438C0.429688 4.84375 0.575521 5.39583 0.867188 5.89062C1.15885 6.38542 1.55469 6.78125 2.05469 7.07812C2.5599 7.375 3.13281 7.52865 3.77344 7.53906C3.25781 7.17448 2.84375 6.70312 2.53125 6.125C2.21875 5.54688 2.0625 4.91667 2.0625 4.23438ZM13.875 7.67969C14.5156 7.67969 15.0964 7.52344 15.6172 7.21094C16.1432 6.89323 16.5599 6.47396 16.8672 5.95312C17.1797 5.42708 17.3359 4.85156 17.3359 4.22656C17.3359 3.59115 17.1771 3.01302 16.8594 2.49219C16.5469 1.96615 16.1276 1.54948 15.6016 1.24219C15.0755 0.929688 14.5 0.773438 13.875 0.773438C13.7083 0.773438 13.5469 0.783854 13.3906 0.804688C13.2396 0.820312 13.099 0.848958 12.9688 0.890625V2.84375C13.2448 2.64062 13.5469 2.53906 13.875 2.53906C14.1771 2.53906 14.4531 2.61719 14.7031 2.77344C14.9531 2.92448 15.1536 3.1276 15.3047 3.38281C15.4609 3.63802 15.5391 3.91927 15.5391 4.22656C15.5391 4.52865 15.4635 4.80469 15.3125 5.05469C15.1615 5.29948 14.9609 5.4974 14.7109 5.64844C14.4609 5.79427 14.1823 5.86719 13.875 5.86719C13.4115 5.86719 13.0182 5.70833 12.6953 5.39062C12.3776 5.07292 12.2188 4.6849 12.2188 4.22656V1.17969C11.6667 1.49219 11.2292 1.91667 10.9062 2.45312C10.5833 2.98958 10.4219 3.58073 10.4219 4.22656C10.4219 4.86719 10.5755 5.44792 10.8828 5.96875C11.1953 6.48958 11.612 6.90625 12.1328 7.21875C12.6589 7.52604 13.2396 7.67969 13.875 7.67969ZM13.875 5.14062C14.1198 5.14062 14.3307 5.04948 14.5078 4.86719C14.6901 4.67969 14.7812 4.46615 14.7812 4.22656C14.7812 3.99219 14.6901 3.78385 14.5078 3.60156C14.3255 3.41406 14.1146 3.32031 13.875 3.32031C13.6406 3.32031 13.4323 3.41146 13.25 3.59375C13.0677 3.77083 12.9766 3.98177 12.9766 4.22656C12.9766 4.47135 13.0651 4.6849 13.2422 4.86719C13.4193 5.04948 13.6302 5.14062 13.875 5.14062ZM15.1641 6.91406H12.5938V8.74219C12.5938 8.97135 12.6615 9.14583 12.7969 9.26562C12.9323 9.38021 13.1198 9.4375 13.3594 9.4375H14.3984C14.6276 9.4375 14.8125 9.38021 14.9531 9.26562C15.0938 9.14583 15.1641 8.97135 15.1641 8.74219V6.91406ZM14.4688 15.9609V8.63281H13.2891V15.9609H14.4688ZM17.9375 4.23438C17.9375 4.91667 17.7812 5.54688 17.4688 6.125C17.1562 6.70312 16.7422 7.17448 16.2266 7.53906C16.8568 7.52865 17.4245 7.3776 17.9297 7.08594C18.4349 6.78906 18.8333 6.39323 19.125 5.89844C19.4219 5.40365 19.5703 4.84896 19.5703 4.23438C19.5703 3.61979 19.4245 3.0651 19.1328 2.57031C18.8411 2.07552 18.4427 1.68229 17.9375 1.39062C17.4375 1.09375 16.8672 0.940104 16.2266 0.929688C16.7422 1.29427 17.1562 1.76562 17.4688 2.34375C17.7812 2.92188 17.9375 3.55208 17.9375 4.23438Z" fill="white"/>
</svg>
