<svg width="20" height="15" viewBox="0 0 20 15" fill="none" xmlns="http://www.w3.org/2000/svg">
<path d="M8.85938 14.5547H11.1406C12.2396 14.5547 13.1953 14.4844 14.0078 14.3438C14.8203 14.2083 15.5365 13.9896 16.1562 13.6875C17.0208 13.2708 17.737 12.737 18.3047 12.0859C18.8724 11.4297 19.2969 10.6979 19.5781 9.89062C19.8594 9.08333 20 8.23958 20 7.35938C20 6.27604 19.7969 5.27344 19.3906 4.35156H0.609375C0.203125 5.27344 0 6.27604 0 7.35938C0 8.23958 0.140625 9.08333 0.421875 9.89062C0.703125 10.6979 1.1276 11.4297 1.69531 12.0859C2.26302 12.737 2.97917 13.2708 3.84375 13.6875C4.46354 13.9896 5.17969 14.2083 5.99219 14.3438C6.80469 14.4844 7.76042 14.5547 8.85938 14.5547ZM10.0078 10.2266C9.54427 10.2266 9.15625 10.0729 8.84375 9.76562C8.53125 9.45312 8.375 9.07292 8.375 8.625V6.26562L9.10938 5.94531V7.25C9.375 7.05729 9.67448 6.96094 10.0078 6.96094C10.2995 6.96094 10.5703 7.03646 10.8203 7.1875C11.0703 7.33854 11.2708 7.54167 11.4219 7.79688C11.5729 8.04688 11.6484 8.32292 11.6484 8.625C11.6484 8.91667 11.5729 9.1849 11.4219 9.42969C11.276 9.66927 11.0781 9.86198 10.8281 10.0078C10.5833 10.1536 10.3099 10.2266 10.0078 10.2266ZM10.0078 9.5C10.2474 9.5 10.4531 9.41406 10.625 9.24219C10.8021 9.0651 10.8906 8.85938 10.8906 8.625C10.8906 8.38021 10.8021 8.16927 10.625 7.99219C10.4531 7.8151 10.2474 7.72656 10.0078 7.72656C9.76823 7.72656 9.55729 7.8151 9.375 7.99219C9.19792 8.16406 9.10938 8.375 9.10938 8.625C9.10938 8.85938 9.19792 9.0651 9.375 9.24219C9.55208 9.41406 9.76302 9.5 10.0078 9.5ZM1.02344 3.5625H18.9766C18.6589 3.03646 18.2656 2.5599 17.7969 2.13281C17.3281 1.70052 16.7812 1.33594 16.1562 1.03906C15.5365 0.736979 14.8203 0.518229 14.0078 0.382812C13.1953 0.242188 12.2396 0.171875 11.1406 0.171875H8.85938C7.76042 0.171875 6.80469 0.242188 5.99219 0.382812C5.17969 0.518229 4.46354 0.736979 3.84375 1.03906C3.21875 1.33594 2.67188 1.70052 2.20312 2.13281C1.73438 2.5599 1.34115 3.03646 1.02344 3.5625Z" fill="white"/>
</svg>
