<?xml version="1.0" encoding="UTF-8"?>
<svg xmlns="http://www.w3.org/2000/svg" xmlns:xlink="http://www.w3.org/1999/xlink" width="24" height="11.142857" viewBox="0 0 24 11.142857" version="1.1">
<g id="surface1">
<path style=" stroke:none;fill-rule:nonzero;fill:rgb(100%,100%,100%);fill-opacity:1;" d="M 5.285156 6.796875 C 5.578125 6.921875 5.878906 6.960938 6.179688 6.917969 C 6.488281 6.871094 6.769531 6.757812 7.019531 6.574219 C 7.273438 6.386719 7.464844 6.148438 7.59375 5.859375 L 8.878906 2.925781 C 9.007812 2.632812 9.054688 2.332031 9.011719 2.023438 C 8.972656 1.710938 8.859375 1.429688 8.671875 1.179688 C 8.488281 0.925781 8.246094 0.730469 7.949219 0.601562 C 7.648438 0.476562 7.347656 0.4375 7.039062 0.480469 C 6.734375 0.523438 6.457031 0.632812 6.199219 0.816406 C 5.945312 1 5.753906 1.242188 5.625 1.546875 L 4.347656 4.480469 C 4.210938 4.777344 4.164062 5.082031 4.207031 5.390625 C 4.25 5.699219 4.363281 5.976562 4.546875 6.226562 C 4.734375 6.472656 4.980469 6.664062 5.285156 6.796875 Z M 5.925781 6.269531 C 5.617188 6.269531 5.359375 6.164062 5.148438 5.953125 C 4.941406 5.738281 4.835938 5.480469 4.835938 5.175781 C 4.835938 4.871094 4.941406 4.613281 5.148438 4.398438 C 5.363281 4.183594 5.621094 4.078125 5.925781 4.078125 C 6.234375 4.078125 6.492188 4.183594 6.703125 4.398438 C 6.917969 4.613281 7.023438 4.871094 7.023438 5.175781 C 7.023438 5.480469 6.917969 5.738281 6.703125 5.953125 C 6.492188 6.164062 6.234375 6.269531 5.925781 6.269531 Z M 5.925781 5.820312 C 6.113281 5.820312 6.269531 5.757812 6.386719 5.632812 C 6.507812 5.507812 6.570312 5.355469 6.570312 5.175781 C 6.570312 5.003906 6.507812 4.851562 6.386719 4.726562 C 6.269531 4.597656 6.113281 4.535156 5.925781 4.535156 C 5.742188 4.535156 5.589844 4.597656 5.464844 4.726562 C 5.34375 4.851562 5.285156 5.003906 5.285156 5.175781 C 5.285156 5.355469 5.34375 5.507812 5.464844 5.632812 C 5.589844 5.757812 5.742188 5.820312 5.925781 5.820312 Z M 11.4375 4.921875 C 11.324219 4.554688 11.167969 4.246094 10.96875 3.992188 C 10.773438 3.730469 10.550781 3.503906 10.304688 3.308594 C 10.058594 3.105469 9.824219 2.910156 9.597656 2.710938 C 9.558594 2.863281 9.507812 3.019531 9.441406 3.175781 L 8.15625 6.105469 C 7.976562 6.503906 7.71875 6.828125 7.378906 7.078125 C 7.042969 7.324219 6.667969 7.476562 6.253906 7.535156 C 5.839844 7.585938 5.429688 7.527344 5.027344 7.359375 C 4.640625 7.191406 4.320312 6.941406 4.070312 6.617188 C 3.824219 6.289062 3.671875 5.929688 3.609375 5.53125 C 3.546875 5.132812 3.589844 4.738281 3.738281 4.347656 C 3.441406 4.699219 3.265625 5.132812 3.207031 5.652344 C 3.152344 6.164062 3.238281 6.726562 3.457031 7.332031 C 3.722656 8.078125 4.109375 8.632812 4.613281 8.992188 C 5.121094 9.351562 5.695312 9.539062 6.335938 9.5625 C 6.972656 9.585938 7.628906 9.464844 8.296875 9.199219 L 9.503906 8.726562 C 10.046875 8.507812 10.492188 8.207031 10.835938 7.820312 C 11.179688 7.433594 11.402344 6.988281 11.511719 6.488281 C 11.617188 5.988281 11.59375 5.464844 11.4375 4.921875 Z M 2.878906 7.539062 C 2.726562 7.132812 2.632812 6.730469 2.597656 6.328125 C 2.566406 5.925781 2.59375 5.527344 2.679688 5.128906 C 2.28125 5.242188 1.925781 5.429688 1.605469 5.691406 C 1.292969 5.957031 1.046875 6.273438 0.863281 6.648438 C 0.683594 7.019531 0.597656 7.425781 0.597656 7.863281 C 0.597656 8.378906 0.722656 8.851562 0.972656 9.28125 C 1.226562 9.710938 1.566406 10.050781 1.988281 10.300781 C 2.417969 10.554688 2.890625 10.679688 3.410156 10.679688 C 3.765625 10.679688 4.101562 10.621094 4.414062 10.5 C 4.726562 10.378906 5.007812 10.210938 5.257812 9.992188 C 4.714844 9.8125 4.242188 9.519531 3.832031 9.105469 C 3.417969 8.691406 3.101562 8.167969 2.878906 7.539062 Z M 18.710938 6.796875 C 19.011719 6.664062 19.257812 6.472656 19.441406 6.226562 C 19.628906 5.976562 19.742188 5.699219 19.78125 5.390625 C 19.824219 5.082031 19.78125 4.777344 19.648438 4.480469 L 18.367188 1.546875 C 18.234375 1.242188 18.039062 1 17.785156 0.816406 C 17.535156 0.632812 17.257812 0.523438 16.949219 0.480469 C 16.644531 0.4375 16.339844 0.476562 16.039062 0.601562 C 15.742188 0.730469 15.503906 0.925781 15.316406 1.179688 C 15.132812 1.429688 15.019531 1.710938 14.972656 2.023438 C 14.933594 2.332031 14.976562 2.632812 15.105469 2.925781 L 16.398438 5.859375 C 16.527344 6.148438 16.71875 6.386719 16.96875 6.574219 C 17.222656 6.757812 17.503906 6.871094 17.804688 6.917969 C 18.113281 6.960938 18.414062 6.921875 18.710938 6.796875 Z M 18.066406 6.269531 C 17.757812 6.269531 17.496094 6.164062 17.285156 5.953125 C 17.074219 5.738281 16.96875 5.480469 16.96875 5.175781 C 16.96875 4.871094 17.074219 4.613281 17.285156 4.398438 C 17.496094 4.183594 17.757812 4.078125 18.066406 4.078125 C 18.371094 4.078125 18.628906 4.183594 18.835938 4.398438 C 19.050781 4.613281 19.160156 4.871094 19.160156 5.175781 C 19.160156 5.480469 19.054688 5.738281 18.84375 5.953125 C 18.632812 6.164062 18.375 6.269531 18.066406 6.269531 Z M 18.066406 5.820312 C 18.246094 5.820312 18.394531 5.757812 18.515625 5.632812 C 18.640625 5.507812 18.703125 5.355469 18.703125 5.175781 C 18.703125 5.003906 18.640625 4.851562 18.515625 4.726562 C 18.394531 4.597656 18.246094 4.535156 18.066406 4.535156 C 17.878906 4.535156 17.722656 4.597656 17.597656 4.726562 C 17.476562 4.851562 17.417969 5.003906 17.417969 5.175781 C 17.417969 5.355469 17.476562 5.507812 17.597656 5.632812 C 17.722656 5.757812 17.878906 5.820312 18.066406 5.820312 Z M 12.554688 4.921875 C 12.394531 5.464844 12.367188 5.988281 12.476562 6.488281 C 12.585938 6.988281 12.816406 7.433594 13.160156 7.820312 C 13.503906 8.207031 13.945312 8.507812 14.492188 8.726562 L 15.695312 9.199219 C 16.367188 9.464844 17.019531 9.585938 17.660156 9.5625 C 18.296875 9.539062 18.867188 9.351562 19.371094 8.992188 C 19.882812 8.632812 20.269531 8.078125 20.539062 7.332031 C 20.753906 6.726562 20.832031 6.164062 20.773438 5.652344 C 20.71875 5.132812 20.546875 4.699219 20.257812 4.347656 C 20.402344 4.738281 20.445312 5.132812 20.382812 5.53125 C 20.320312 5.929688 20.164062 6.289062 19.914062 6.617188 C 19.667969 6.941406 19.351562 7.191406 18.957031 7.359375 C 18.558594 7.527344 18.152344 7.585938 17.738281 7.535156 C 17.324219 7.476562 16.945312 7.324219 16.605469 7.078125 C 16.269531 6.828125 16.011719 6.503906 15.835938 6.105469 L 14.550781 3.175781 C 14.480469 3.019531 14.429688 2.863281 14.398438 2.710938 C 14.160156 2.910156 13.921875 3.105469 13.679688 3.308594 C 13.441406 3.503906 13.21875 3.730469 13.019531 3.992188 C 12.816406 4.246094 12.664062 4.554688 12.554688 4.921875 Z M 21.113281 7.539062 C 20.890625 8.167969 20.574219 8.691406 20.164062 9.105469 C 19.753906 9.519531 19.277344 9.8125 18.738281 9.992188 C 18.980469 10.210938 19.261719 10.378906 19.574219 10.5 C 19.890625 10.621094 20.226562 10.679688 20.578125 10.679688 C 21.097656 10.679688 21.570312 10.554688 21.996094 10.300781 C 22.425781 10.050781 22.765625 9.710938 23.015625 9.28125 C 23.269531 8.851562 23.398438 8.378906 23.398438 7.863281 C 23.398438 7.425781 23.304688 7.019531 23.121094 6.648438 C 22.945312 6.273438 22.695312 5.957031 22.378906 5.691406 C 22.066406 5.429688 21.710938 5.242188 21.316406 5.128906 C 21.398438 5.527344 21.425781 5.925781 21.386719 6.328125 C 21.355469 6.730469 21.265625 7.132812 21.113281 7.539062 Z M 21.113281 7.539062 "/>
</g>
</svg>
