<?xml version="1.0" encoding="UTF-8"?>
<svg xmlns="http://www.w3.org/2000/svg" xmlns:xlink="http://www.w3.org/1999/xlink" width="24" height="22.285714" viewBox="0 0 24 22.285714" version="1.1">
<g id="surface1">
<path style=" stroke:none;fill-rule:nonzero;fill:rgb(100%,100%,100%);fill-opacity:1;" d="M 10.300781 13.714844 C 10.925781 13.980469 11.558594 14.070312 12.199219 13.980469 C 12.84375 13.882812 13.429688 13.644531 13.957031 13.257812 C 14.480469 12.867188 14.882812 12.363281 15.160156 11.746094 L 17.867188 5.585938 C 18.132812 4.96875 18.222656 4.335938 18.132812 3.683594 C 18.054688 3.03125 17.816406 2.441406 17.425781 1.914062 C 17.039062 1.378906 16.535156 0.976562 15.910156 0.710938 C 15.277344 0.441406 14.636719 0.351562 13.996094 0.441406 C 13.351562 0.53125 12.761719 0.773438 12.226562 1.164062 C 11.699219 1.550781 11.300781 2.058594 11.023438 2.691406 L 8.332031 8.851562 C 8.054688 9.476562 7.960938 10.117188 8.050781 10.769531 C 8.136719 11.410156 8.375 11.996094 8.757812 12.523438 C 9.152344 13.039062 9.664062 13.4375 10.300781 13.714844 Z M 11.652344 12.617188 C 11.007812 12.617188 10.464844 12.394531 10.019531 11.945312 C 9.582031 11.5 9.363281 10.957031 9.363281 10.3125 C 9.363281 9.679688 9.585938 9.136719 10.03125 8.691406 C 10.476562 8.238281 11.019531 8.007812 11.652344 8.007812 C 12.304688 8.007812 12.851562 8.238281 13.300781 8.691406 C 13.746094 9.136719 13.96875 9.679688 13.96875 10.3125 C 13.96875 10.957031 13.746094 11.5 13.300781 11.945312 C 12.851562 12.394531 12.304688 12.617188 11.652344 12.617188 Z M 11.652344 11.664062 C 12.042969 11.664062 12.367188 11.535156 12.617188 11.277344 C 12.875 11.007812 13.003906 10.6875 13.003906 10.3125 C 13.003906 9.945312 12.875 9.628906 12.617188 9.363281 C 12.367188 9.09375 12.042969 8.960938 11.652344 8.960938 C 11.269531 8.960938 10.945312 9.09375 10.6875 9.363281 C 10.4375 9.628906 10.3125 9.945312 10.3125 10.3125 C 10.3125 10.6875 10.4375 11.007812 10.6875 11.277344 C 10.945312 11.535156 11.269531 11.664062 11.652344 11.664062 Z M 23.238281 9.777344 C 23.003906 9.007812 22.679688 8.355469 22.257812 7.820312 C 21.839844 7.277344 21.371094 6.800781 20.851562 6.386719 C 20.34375 5.96875 19.847656 5.554688 19.367188 5.144531 C 19.292969 5.457031 19.1875 5.777344 19.042969 6.105469 L 16.339844 12.269531 C 15.964844 13.105469 15.417969 13.785156 14.707031 14.304688 C 14 14.820312 13.210938 15.144531 12.335938 15.269531 C 11.46875 15.382812 10.617188 15.261719 9.777344 14.90625 C 8.957031 14.550781 8.285156 14.027344 7.769531 13.339844 C 7.25 12.652344 6.925781 11.894531 6.789062 11.0625 C 6.65625 10.222656 6.746094 9.394531 7.058594 8.570312 C 6.441406 9.3125 6.070312 10.226562 5.945312 11.316406 C 5.832031 12.398438 6.003906 13.570312 6.46875 14.839844 C 7.03125 16.410156 7.84375 17.574219 8.90625 18.335938 C 9.96875 19.085938 11.167969 19.488281 12.507812 19.539062 C 13.855469 19.585938 15.230469 19.332031 16.632812 18.777344 L 19.164062 17.773438 C 20.308594 17.316406 21.242188 16.683594 21.964844 15.871094 C 22.6875 15.058594 23.160156 14.128906 23.382812 13.085938 C 23.617188 12.03125 23.566406 10.929688 23.238281 9.777344 Z M 5.25 15.28125 C 4.9375 14.425781 4.746094 13.574219 4.675781 12.738281 C 4.601562 11.886719 4.65625 11.050781 4.835938 10.21875 C 3.996094 10.449219 3.246094 10.84375 2.585938 11.398438 C 1.925781 11.949219 1.402344 12.621094 1.019531 13.40625 C 0.644531 14.191406 0.457031 15.039062 0.457031 15.949219 C 0.457031 17.039062 0.71875 18.035156 1.246094 18.9375 C 1.78125 19.839844 2.496094 20.554688 3.386719 21.082031 C 4.289062 21.617188 5.28125 21.882812 6.363281 21.882812 C 7.113281 21.882812 7.816406 21.753906 8.476562 21.496094 C 9.136719 21.246094 9.726562 20.886719 10.246094 20.425781 C 9.113281 20.058594 8.113281 19.441406 7.246094 18.574219 C 6.386719 17.699219 5.722656 16.601562 5.25 15.28125 Z M 5.25 15.28125 "/>
</g>
</svg>
