<svg width="20" height="14" viewBox="0 0 20 14" fill="none" xmlns="http://www.w3.org/2000/svg">
<path d="M0.101562 13.2812C0.101562 13.4844 0.161458 13.6458 0.28125 13.7656C0.401042 13.8854 0.5625 13.9453 0.765625 13.9453H1.23438C1.43229 13.9453 1.59115 13.8854 1.71094 13.7656C1.83594 13.6458 1.89844 13.4844 1.89844 13.2812V12.125C1.94531 12.1354 2.02083 12.1458 2.125 12.1562C2.23438 12.1615 2.33594 12.1641 2.42969 12.1641H17.5703C17.6641 12.1641 17.7656 12.1615 17.875 12.1562C17.9844 12.1458 18.0599 12.1354 18.1016 12.125V13.2812C18.1016 13.4844 18.1615 13.6458 18.2812 13.7656C18.4062 13.8854 18.5677 13.9453 18.7656 13.9453H19.2344C19.4375 13.9453 19.599 13.8854 19.7188 13.7656C19.8385 13.6458 19.8984 13.4844 19.8984 13.2812V8.625C19.8984 7.88021 19.6979 7.3099 19.2969 6.91406C18.901 6.51302 18.3281 6.3125 17.5781 6.3125H2.42188C1.67708 6.3125 1.10417 6.51302 0.703125 6.91406C0.302083 7.3099 0.101562 7.88021 0.101562 8.625V13.2812ZM1.97656 5.19531H3.96094V4.07031C3.96094 3.70573 4.0599 3.42708 4.25781 3.23438C4.45573 3.04167 4.73958 2.94531 5.10938 2.94531H8.02344C8.39323 2.94531 8.67448 3.04167 8.86719 3.23438C9.0651 3.42708 9.16406 3.70573 9.16406 4.07031V5.19531H10.9375V4.07031C10.9375 3.70573 11.0365 3.42708 11.2344 3.23438C11.4375 3.04167 11.7344 2.94531 12.125 2.94531H14.8594C15.25 2.94531 15.5443 3.04167 15.7422 3.23438C15.9453 3.42708 16.0469 3.70573 16.0469 4.07031V5.19531H18.0391V2.95312C18.0391 2.22917 17.849 1.6849 17.4688 1.32031C17.0938 0.950521 16.5573 0.765625 15.8594 0.765625H4.15625C3.45312 0.765625 2.91406 0.950521 2.53906 1.32031C2.16406 1.6849 1.97656 2.22917 1.97656 2.95312V5.19531Z" fill="white"/>
</svg>
