<svg width="16" height="17" viewBox="0 0 16 17" fill="none" xmlns="http://www.w3.org/2000/svg">
<path d="M8 16.3359C9.08854 16.3359 10.112 16.1276 11.0703 15.7109C12.0339 15.2943 12.8828 14.7188 13.6172 13.9844C14.3516 13.25 14.9271 12.4036 15.3438 11.4453C15.7604 10.4818 15.9688 9.45573 15.9688 8.36719C15.9688 7.27865 15.7604 6.25521 15.3438 5.29688C14.9271 4.33333 14.3516 3.48438 13.6172 2.75C12.8828 2.01562 12.0339 1.4401 11.0703 1.02344C10.1068 0.606771 9.08073 0.398438 7.99219 0.398438C6.90365 0.398438 5.8776 0.606771 4.91406 1.02344C3.95573 1.4401 3.10938 2.01562 2.375 2.75C1.64583 3.48438 1.07292 4.33333 0.65625 5.29688C0.239583 6.25521 0.03125 7.27865 0.03125 8.36719C0.03125 9.45573 0.239583 10.4818 0.65625 11.4453C1.07292 12.4036 1.64844 13.25 2.38281 13.9844C3.11719 14.7188 3.96354 15.2943 4.92188 15.7109C5.88542 16.1276 6.91146 16.3359 8 16.3359ZM3.13281 11.2656V8.98438C3.13281 8.61979 3.23177 8.33854 3.42969 8.14062C3.6276 7.94271 3.90885 7.84375 4.27344 7.84375H11.7188C12.0885 7.84375 12.3698 7.94271 12.5625 8.14062C12.7604 8.33854 12.8594 8.61979 12.8594 8.98438V11.2656C12.8594 11.4844 12.75 11.5938 12.5312 11.5938H12.3125C12.0885 11.5938 11.9766 11.4844 11.9766 11.2656V10.7031C11.9557 10.7083 11.9193 10.7109 11.8672 10.7109C11.8151 10.7109 11.7656 10.7109 11.7188 10.7109H4.28125C4.23438 10.7109 4.18229 10.7109 4.125 10.7109C4.07292 10.7109 4.03646 10.7083 4.01562 10.7031V11.2656C4.01562 11.4844 3.90365 11.5938 3.67969 11.5938H3.46875C3.24479 11.5938 3.13281 11.4844 3.13281 11.2656ZM4.05469 7.29688V6.20312C4.05469 5.84896 4.14583 5.58333 4.32812 5.40625C4.51562 5.22396 4.78125 5.13281 5.125 5.13281H10.875C11.2135 5.13281 11.474 5.22396 11.6562 5.40625C11.8438 5.58333 11.9375 5.84896 11.9375 6.20312V7.29688H10.9609V6.75781C10.9609 6.3776 10.7656 6.1875 10.375 6.1875H9.03906C8.65365 6.1875 8.46094 6.3776 8.46094 6.75781V7.29688H7.58594V6.75781C7.58594 6.57552 7.53646 6.4349 7.4375 6.33594C7.34375 6.23698 7.20573 6.1875 7.02344 6.1875H5.60156C5.41406 6.1875 5.27083 6.23698 5.17188 6.33594C5.07812 6.4349 5.03125 6.57552 5.03125 6.75781V7.29688H4.05469Z" fill="white"/>
</svg>
