<?xml version="1.0" encoding="UTF-8"?>
<svg xmlns="http://www.w3.org/2000/svg" xmlns:xlink="http://www.w3.org/1999/xlink" width="24" height="14.571429" viewBox="0 0 24 14.571429" version="1.1">
<g id="surface1">
<path style=" stroke:none;fill-rule:nonzero;fill:rgb(100%,100%,100%);fill-opacity:1;" d="M 2.636719 11.746094 C 2.746094 11.625 2.785156 11.492188 2.757812 11.34375 C 2.738281 11.195312 2.664062 11.054688 2.542969 10.914062 C 2.09375 10.414062 1.746094 9.847656 1.507812 9.207031 C 1.265625 8.566406 1.144531 7.882812 1.144531 7.164062 C 1.144531 6.441406 1.265625 5.761719 1.507812 5.121094 C 1.746094 4.484375 2.09375 3.914062 2.542969 3.414062 C 2.664062 3.277344 2.738281 3.132812 2.757812 2.988281 C 2.785156 2.839844 2.746094 2.707031 2.636719 2.585938 C 2.53125 2.460938 2.394531 2.398438 2.230469 2.402344 C 2.070312 2.402344 1.925781 2.476562 1.792969 2.617188 C 1.238281 3.222656 0.804688 3.914062 0.503906 4.695312 C 0.203125 5.476562 0.0546875 6.300781 0.0546875 7.164062 C 0.0546875 8.03125 0.203125 8.855469 0.503906 9.636719 C 0.804688 10.414062 1.238281 11.105469 1.792969 11.710938 C 1.925781 11.851562 2.070312 11.921875 2.230469 11.925781 C 2.394531 11.929688 2.53125 11.871094 2.636719 11.746094 Z M 4.511719 9.835938 C 4.621094 9.714844 4.660156 9.585938 4.628906 9.441406 C 4.601562 9.292969 4.535156 9.148438 4.425781 9.007812 C 4.226562 8.757812 4.074219 8.476562 3.976562 8.164062 C 3.878906 7.847656 3.832031 7.511719 3.832031 7.164062 C 3.832031 6.816406 3.878906 6.488281 3.976562 6.175781 C 4.074219 5.855469 4.226562 5.574219 4.425781 5.324219 C 4.535156 5.175781 4.601562 5.03125 4.628906 4.886719 C 4.660156 4.746094 4.621094 4.613281 4.511719 4.492188 C 4.402344 4.367188 4.257812 4.308594 4.085938 4.3125 C 3.914062 4.3125 3.773438 4.386719 3.65625 4.539062 C 3.367188 4.902344 3.140625 5.308594 2.980469 5.757812 C 2.820312 6.207031 2.738281 6.675781 2.738281 7.164062 C 2.738281 7.65625 2.820312 8.128906 2.980469 8.578125 C 3.140625 9.023438 3.367188 9.429688 3.65625 9.789062 C 3.773438 9.941406 3.914062 10.019531 4.085938 10.023438 C 4.257812 10.023438 4.402344 9.960938 4.511719 9.835938 Z M 21.355469 11.746094 C 21.460938 11.871094 21.597656 11.929688 21.757812 11.925781 C 21.921875 11.921875 22.070312 11.851562 22.199219 11.710938 C 22.757812 11.105469 23.183594 10.414062 23.484375 9.636719 C 23.789062 8.855469 23.941406 8.03125 23.941406 7.164062 C 23.941406 6.300781 23.789062 5.476562 23.484375 4.695312 C 23.183594 3.914062 22.757812 3.222656 22.199219 2.617188 C 22.070312 2.476562 21.921875 2.402344 21.757812 2.402344 C 21.597656 2.398438 21.460938 2.460938 21.355469 2.585938 C 21.246094 2.707031 21.207031 2.839844 21.226562 2.988281 C 21.253906 3.132812 21.328125 3.277344 21.449219 3.414062 C 21.894531 3.914062 22.238281 4.484375 22.480469 5.121094 C 22.726562 5.761719 22.847656 6.441406 22.847656 7.164062 C 22.847656 7.882812 22.726562 8.566406 22.480469 9.207031 C 22.238281 9.847656 21.894531 10.414062 21.449219 10.914062 C 21.328125 11.054688 21.253906 11.195312 21.226562 11.34375 C 21.207031 11.492188 21.246094 11.625 21.355469 11.746094 Z M 19.472656 9.835938 C 19.585938 9.960938 19.726562 10.023438 19.894531 10.023438 C 20.070312 10.019531 20.214844 9.941406 20.335938 9.789062 C 20.628906 9.429688 20.851562 9.023438 21.011719 8.578125 C 21.175781 8.128906 21.253906 7.65625 21.253906 7.164062 C 21.253906 6.675781 21.175781 6.207031 21.011719 5.757812 C 20.851562 5.308594 20.628906 4.902344 20.335938 4.539062 C 20.214844 4.386719 20.070312 4.3125 19.894531 4.3125 C 19.726562 4.308594 19.585938 4.367188 19.472656 4.492188 C 19.371094 4.613281 19.332031 4.746094 19.359375 4.886719 C 19.390625 5.03125 19.460938 5.175781 19.566406 5.324219 C 19.761719 5.574219 19.910156 5.855469 20.007812 6.175781 C 20.113281 6.488281 20.164062 6.816406 20.164062 7.164062 C 20.164062 7.511719 20.113281 7.847656 20.007812 8.164062 C 19.910156 8.476562 19.761719 8.757812 19.566406 9.007812 C 19.460938 9.148438 19.390625 9.292969 19.359375 9.441406 C 19.332031 9.585938 19.371094 9.714844 19.472656 9.835938 Z M 5.679688 10.847656 C 5.679688 11.09375 5.769531 11.289062 5.945312 11.4375 C 6.125 11.585938 6.371094 11.660156 6.691406 11.660156 L 9.515625 11.660156 C 9.535156 12.089844 9.648438 12.492188 9.863281 12.855469 C 10.082031 13.222656 10.375 13.519531 10.742188 13.742188 C 11.105469 13.96875 11.523438 14.082031 11.992188 14.082031 C 12.464844 14.082031 12.886719 13.972656 13.253906 13.746094 C 13.617188 13.523438 13.910156 13.226562 14.121094 12.855469 C 14.339844 12.492188 14.460938 12.089844 14.476562 11.660156 L 17.304688 11.660156 C 17.621094 11.660156 17.867188 11.585938 18.046875 11.4375 C 18.226562 11.289062 18.316406 11.09375 18.316406 10.847656 C 18.316406 10.625 18.25 10.410156 18.121094 10.199219 C 17.992188 9.988281 17.828125 9.785156 17.632812 9.582031 C 17.441406 9.382812 17.246094 9.179688 17.054688 8.980469 C 16.910156 8.828125 16.792969 8.628906 16.707031 8.382812 C 16.628906 8.136719 16.566406 7.878906 16.527344 7.601562 C 16.488281 7.324219 16.457031 7.054688 16.441406 6.796875 C 16.425781 5.917969 16.332031 5.144531 16.160156 4.480469 C 15.988281 3.808594 15.722656 3.253906 15.363281 2.804688 C 15 2.359375 14.523438 2.027344 13.929688 1.816406 C 13.816406 1.378906 13.589844 1.007812 13.246094 0.703125 C 12.90625 0.398438 12.488281 0.246094 11.992188 0.246094 C 11.503906 0.246094 11.085938 0.398438 10.742188 0.703125 C 10.402344 1.007812 10.175781 1.378906 10.066406 1.816406 C 9.472656 2.027344 8.992188 2.359375 8.625 2.804688 C 8.261719 3.253906 7.996094 3.808594 7.828125 4.480469 C 7.660156 5.144531 7.566406 5.917969 7.554688 6.796875 C 7.535156 7.054688 7.507812 7.324219 7.464844 7.601562 C 7.425781 7.878906 7.363281 8.136719 7.277344 8.382812 C 7.199219 8.628906 7.085938 8.828125 6.9375 8.980469 C 6.746094 9.179688 6.550781 9.382812 6.355469 9.582031 C 6.164062 9.785156 6.003906 9.988281 5.871094 10.199219 C 5.742188 10.410156 5.679688 10.625 5.679688 10.847656 Z M 6.976562 10.648438 L 6.976562 10.566406 C 7.019531 10.503906 7.085938 10.421875 7.179688 10.320312 C 7.273438 10.210938 7.378906 10.097656 7.492188 9.972656 C 7.613281 9.847656 7.730469 9.71875 7.847656 9.589844 C 7.96875 9.457031 8.074219 9.300781 8.164062 9.128906 C 8.253906 8.949219 8.328125 8.746094 8.390625 8.523438 C 8.453125 8.300781 8.503906 8.054688 8.539062 7.78125 C 8.574219 7.507812 8.601562 7.210938 8.617188 6.882812 C 8.636719 5.910156 8.738281 5.136719 8.917969 4.566406 C 9.101562 3.996094 9.347656 3.570312 9.648438 3.292969 C 9.957031 3.011719 10.304688 2.820312 10.6875 2.710938 C 10.773438 2.695312 10.835938 2.664062 10.882812 2.617188 C 10.925781 2.570312 10.949219 2.503906 10.957031 2.417969 C 10.96875 2.070312 11.066406 1.785156 11.25 1.566406 C 11.4375 1.34375 11.683594 1.230469 11.992188 1.230469 C 12.304688 1.230469 12.554688 1.34375 12.738281 1.566406 C 12.925781 1.785156 13.023438 2.070312 13.039062 2.417969 C 13.042969 2.503906 13.066406 2.570312 13.113281 2.617188 C 13.15625 2.664062 13.222656 2.695312 13.304688 2.710938 C 13.683594 2.820312 14.027344 3.011719 14.332031 3.292969 C 14.636719 3.570312 14.882812 3.996094 15.066406 4.566406 C 15.253906 5.136719 15.355469 5.910156 15.375 6.882812 C 15.386719 7.210938 15.414062 7.507812 15.449219 7.78125 C 15.488281 8.054688 15.539062 8.300781 15.597656 8.523438 C 15.660156 8.746094 15.734375 8.949219 15.824219 9.128906 C 15.914062 9.300781 16.019531 9.457031 16.136719 9.589844 C 16.257812 9.71875 16.378906 9.847656 16.492188 9.972656 C 16.613281 10.097656 16.71875 10.210938 16.808594 10.320312 C 16.902344 10.421875 16.96875 10.503906 17.007812 10.566406 L 17.007812 10.648438 Z M 10.558594 11.660156 L 13.433594 11.660156 C 13.40625 12.113281 13.261719 12.472656 12.996094 12.738281 C 12.734375 13.003906 12.398438 13.136719 11.992188 13.136719 C 11.589844 13.136719 11.257812 13.003906 10.988281 12.738281 C 10.726562 12.472656 10.582031 12.113281 10.558594 11.660156 Z M 10.558594 11.660156 "/>
</g>
</svg>
