<svg width="16" height="17" viewBox="0 0 16 17" fill="none" xmlns="http://www.w3.org/2000/svg">
<path d="M7.98438 16.5859C8.42708 16.5859 8.82031 16.4896 9.16406 16.2969C9.51302 16.1042 9.79427 15.8516 10.0078 15.5391C10.2214 15.2266 10.3464 14.888 10.3828 14.5234H5.58594C5.6224 14.888 5.74479 15.2266 5.95312 15.5391C6.16667 15.8516 6.44792 16.1042 6.79688 16.2969C7.14583 16.4896 7.54167 16.5859 7.98438 16.5859ZM1.78906 13.4531H11.2188L3.07031 5.29688C2.98177 5.66667 2.91406 6.0599 2.86719 6.47656C2.82552 6.88802 2.80208 7.32292 2.79688 7.78125C2.77604 8.08333 2.74219 8.39583 2.69531 8.71875C2.65365 9.04167 2.58333 9.34635 2.48438 9.63281C2.39062 9.91927 2.25781 10.151 2.08594 10.3281C1.85677 10.5625 1.6276 10.7969 1.39844 11.0312C1.17448 11.2656 0.986979 11.5052 0.835938 11.75C0.684896 11.9948 0.609375 12.2474 0.609375 12.5078C0.609375 12.7943 0.713542 13.0234 0.921875 13.1953C1.13021 13.3672 1.41927 13.4531 1.78906 13.4531ZM7.98438 0.140625C7.40625 0.140625 6.92188 0.317708 6.53125 0.671875C6.14062 1.02604 5.8724 1.45833 5.72656 1.96875C5.52344 2.03646 5.33073 2.11979 5.14844 2.21875C4.97135 2.31771 4.80469 2.42969 4.64844 2.55469L15.1562 13.0781C15.2865 12.9271 15.3516 12.737 15.3516 12.5078C15.3516 12.2474 15.276 11.9948 15.125 11.75C14.974 11.5052 14.7839 11.2656 14.5547 11.0312C14.3307 10.7969 14.1068 10.5625 13.8828 10.3281C13.7109 10.151 13.5755 9.91927 13.4766 9.63281C13.3828 9.34635 13.3125 9.04167 13.2656 8.71875C13.2188 8.39583 13.1875 8.08333 13.1719 7.78125C13.151 6.78125 13.0417 5.89062 12.8438 5.10938C12.6458 4.32812 12.3359 3.67188 11.9141 3.14062C11.4922 2.60938 10.9349 2.21875 10.2422 1.96875C10.0911 1.45833 9.82031 1.02604 9.42969 0.671875C9.03906 0.317708 8.55729 0.140625 7.98438 0.140625ZM0.78125 1.72656L14.8203 15.75C14.9349 15.8646 15.0755 15.9219 15.2422 15.9219C15.4141 15.9219 15.5573 15.8646 15.6719 15.75C15.7865 15.6302 15.8438 15.487 15.8438 15.3203C15.8438 15.1536 15.7865 15.013 15.6719 14.8984L1.64062 0.875C1.52604 0.760417 1.38281 0.703125 1.21094 0.703125C1.04427 0.703125 0.901042 0.760417 0.78125 0.875C0.666667 0.989583 0.609375 1.13281 0.609375 1.30469C0.609375 1.47135 0.666667 1.61198 0.78125 1.72656Z" fill="white"/>
</svg>
