<svg width="16" height="17" viewBox="0 0 16 17" fill="none" xmlns="http://www.w3.org/2000/svg">
<path d="M8 16.3359C9.08854 16.3359 10.112 16.1276 11.0703 15.7109C12.0339 15.2943 12.8828 14.7188 13.6172 13.9844C14.3516 13.25 14.9271 12.4036 15.3438 11.4453C15.7604 10.4818 15.9688 9.45573 15.9688 8.36719C15.9688 7.27865 15.7604 6.25521 15.3438 5.29688C14.9271 4.33333 14.3516 3.48438 13.6172 2.75C12.8828 2.01562 12.0339 1.4401 11.0703 1.02344C10.1068 0.606771 9.08073 0.398438 7.99219 0.398438C6.90365 0.398438 5.8776 0.606771 4.91406 1.02344C3.95573 1.4401 3.10938 2.01562 2.375 2.75C1.64583 3.48438 1.07292 4.33333 0.65625 5.29688C0.239583 6.25521 0.03125 7.27865 0.03125 8.36719C0.03125 9.45573 0.239583 10.4818 0.65625 11.4453C1.07292 12.4036 1.64844 13.25 2.38281 13.9844C3.11719 14.7188 3.96354 15.2943 4.92188 15.7109C5.88542 16.1276 6.91146 16.3359 8 16.3359ZM6.10156 5.05469C6.25781 4.90885 6.45833 4.79167 6.70312 4.70312C6.79167 4.41667 6.94792 4.17188 7.17188 3.96875C7.39583 3.76562 7.67188 3.66406 8 3.66406C8.32812 3.66406 8.60156 3.76562 8.82031 3.96875C9.04427 4.17188 9.20052 4.41667 9.28906 4.70312C9.88281 4.92188 10.3073 5.31771 10.5625 5.89062C10.8177 6.46354 10.9531 7.18229 10.9688 8.04688C10.9792 8.21354 10.9948 8.39062 11.0156 8.57812C11.0417 8.76042 11.0807 8.93229 11.1328 9.09375C11.1849 9.25521 11.263 9.38802 11.3672 9.49219C11.5651 9.6901 11.7526 9.89062 11.9297 10.0938C12.112 10.2969 12.2031 10.5104 12.2031 10.7344C12.2031 10.8594 12.1615 10.9609 12.0781 11.0391L6.10156 5.05469ZM9.48438 11.2734H4.45312C4.24479 11.2734 4.08333 11.224 3.96875 11.125C3.85417 11.026 3.79688 10.8984 3.79688 10.7422C3.79688 10.513 3.88802 10.2995 4.07031 10.1016C4.2526 9.89844 4.4401 9.69531 4.63281 9.49219C4.73177 9.38802 4.80729 9.25521 4.85938 9.09375C4.91146 8.92708 4.94792 8.7526 4.96875 8.57031C4.99479 8.38802 5.01302 8.21354 5.02344 8.04688C5.02865 7.83854 5.03906 7.63802 5.05469 7.44531C5.07031 7.2526 5.09115 7.07031 5.11719 6.89844L9.48438 11.2734ZM8 13.1406C7.61979 13.1406 7.30208 13.0234 7.04688 12.7891C6.79688 12.5495 6.65885 12.2682 6.63281 11.9453H9.35938C9.33333 12.2682 9.19271 12.5495 8.9375 12.7891C8.6875 13.0234 8.375 13.1406 8 13.1406ZM11.7891 12.6797L3.67188 4.5625C3.60417 4.49479 3.57031 4.41146 3.57031 4.3125C3.57031 4.20833 3.60417 4.11979 3.67188 4.04688C3.74479 3.96875 3.83333 3.92969 3.9375 3.92969C4.04167 3.92969 4.13021 3.96875 4.20312 4.04688L12.3125 12.1641C12.3854 12.237 12.4219 12.3229 12.4219 12.4219C12.4219 12.5208 12.3854 12.6068 12.3125 12.6797C12.2448 12.7474 12.1589 12.7812 12.0547 12.7812C11.9505 12.7812 11.862 12.7474 11.7891 12.6797Z" fill="white"/>
</svg>
