<svg width="122" height="132" viewBox="0 0 122 132" fill="none" xmlns="http://www.w3.org/2000/svg">
<path d="M59.125 131.688C62.6667 131.688 65.8125 130.917 68.5625 129.375C71.3542 127.833 73.6042 125.812 75.3125 123.312C77.0208 120.812 78.0208 118.104 78.3125 115.188H39.9375C40.2292 118.104 41.2083 120.812 42.875 123.312C44.5833 125.812 46.8333 127.833 49.625 129.375C52.4167 130.917 55.5833 131.688 59.125 131.688ZM9.5625 106.625H85L19.8125 41.375C19.1042 44.3333 18.5625 47.4792 18.1875 50.8125C17.8542 54.1042 17.6667 57.5833 17.625 61.25C17.4583 63.6667 17.1875 66.1667 16.8125 68.75C16.4792 71.3333 15.9167 73.7708 15.125 76.0625C14.375 78.3542 13.3125 80.2083 11.9375 81.625C10.1042 83.5 8.27083 85.375 6.4375 87.25C4.64583 89.125 3.14583 91.0417 1.9375 93C0.729167 94.9583 0.125 96.9792 0.125 99.0625C0.125 101.354 0.958333 103.188 2.625 104.562C4.29167 105.938 6.60417 106.625 9.5625 106.625ZM59.125 0.125C54.5 0.125 50.625 1.54167 47.5 4.375C44.375 7.20833 42.2292 10.6667 41.0625 14.75C39.4375 15.2917 37.8958 15.9583 36.4375 16.75C35.0208 17.5417 33.6875 18.4375 32.4375 19.4375L116.5 103.625C117.542 102.417 118.062 100.896 118.062 99.0625C118.062 96.9792 117.458 94.9583 116.25 93C115.042 91.0417 113.521 89.125 111.688 87.25C109.896 85.375 108.104 83.5 106.312 81.625C104.938 80.2083 103.854 78.3542 103.062 76.0625C102.312 73.7708 101.75 71.3333 101.375 68.75C101 66.1667 100.75 63.6667 100.625 61.25C100.458 53.25 99.5833 46.125 98 39.875C96.4167 33.625 93.9375 28.375 90.5625 24.125C87.1875 19.875 82.7292 16.75 77.1875 14.75C75.9792 10.6667 73.8125 7.20833 70.6875 4.375C67.5625 1.54167 63.7083 0.125 59.125 0.125ZM1.5 12.8125L113.812 125C114.729 125.917 115.854 126.375 117.188 126.375C118.562 126.375 119.708 125.917 120.625 125C121.542 124.042 122 122.896 122 121.562C122 120.229 121.542 119.104 120.625 118.188L8.375 6C7.45833 5.08333 6.3125 4.625 4.9375 4.625C3.60417 4.625 2.45833 5.08333 1.5 6C0.583333 6.91667 0.125 8.0625 0.125 9.4375C0.125 10.7708 0.583333 11.8958 1.5 12.8125Z" fill="white"/>
</svg>
