<svg width="130" height="139" viewBox="0 0 130 139" fill="none" xmlns="http://www.w3.org/2000/svg">
<path d="M59.1875 138.438C63.6042 138.438 67.5208 137.396 70.9375 135.312C74.3542 133.229 77.0625 130.458 79.0625 127C81.1042 123.583 82.2083 119.854 82.375 115.812H108.75C111.708 115.812 114.021 115.125 115.688 113.75C117.354 112.375 118.188 110.542 118.188 108.25C118.188 106.167 117.583 104.146 116.375 102.188C115.167 100.229 113.646 98.3125 111.812 96.4375C110.021 94.5625 108.229 92.6875 106.438 90.8125C104.521 88.8542 103.146 86.1667 102.312 82.75C101.521 79.3333 101.062 76.0208 100.938 72.8125C100.938 72.1875 100.917 71.6042 100.875 71.0625C100.875 70.4792 100.875 69.8958 100.875 69.3125C99.0833 69.6458 97.375 69.75 95.75 69.625C94.125 69.5 92.5 68.9375 90.875 67.9375C90.9167 68.8542 90.9375 69.7917 90.9375 70.75C90.9792 71.6667 91.0208 72.625 91.0625 73.625C91.1458 77.4583 91.4583 80.8125 92 83.6875C92.5833 86.5208 93.375 88.9792 94.375 91.0625C95.375 93.1458 96.5417 94.9583 97.875 96.5C99 97.7083 100.104 98.8958 101.188 100.062C102.312 101.229 103.292 102.312 104.125 103.312C105 104.271 105.625 105.042 106 105.625V106.375H12.375V105.625C12.75 105.042 13.375 104.271 14.25 103.312C15.125 102.312 16.1042 101.229 17.1875 100.062C18.3125 98.8958 19.4167 97.7083 20.5 96.5C21.625 95.25 22.6042 93.8125 23.4375 92.1875C24.2708 90.5208 24.9792 88.6458 25.5625 86.5625C26.1458 84.4792 26.6042 82.1667 26.9375 79.625C27.2708 77.0833 27.5208 74.2917 27.6875 71.25C27.8542 62.1667 28.7917 54.9583 30.5 49.625C32.2083 44.2917 34.4792 40.3333 37.3125 37.75C40.1875 35.125 43.4167 33.3125 47 32.3125C47.7917 32.1458 48.3958 31.8542 48.8125 31.4375C49.2708 30.9792 49.5 30.3542 49.5 29.5625C49.625 27.0208 50.2708 24.8958 51.4375 23.1875C52.6042 21.4375 54.0208 20.2917 55.6875 19.75C56.3958 18.25 57.3333 16.9375 58.5 15.8125C59.7083 14.6458 61.0833 13.7292 62.625 13.0625C64.1667 12.3958 65.8333 12.0625 67.625 12.0625C68.1667 12.0625 68.625 12.1042 69 12.1875C69 12.1458 69 12.125 69 12.125C69 12.0833 69 12.0417 69 12C67.625 11.2083 66.1042 10.5625 64.4375 10.0625C62.7708 9.5625 61.0208 9.3125 59.1875 9.3125C54.6042 9.3125 50.7083 10.7292 47.5 13.5625C44.3333 16.3958 42.2292 19.8542 41.1875 23.9375C35.6458 25.9375 31.1667 29.0208 27.75 33.1875C24.375 37.3542 21.8958 42.5625 20.3125 48.8125C18.7292 55.0208 17.875 62.2292 17.75 70.4375C17.5833 72.8542 17.3125 75.3542 16.9375 77.9375C16.5625 80.5208 15.9792 82.9583 15.1875 85.25C14.4375 87.5417 13.375 89.3958 12 90.8125C10.2083 92.6875 8.39583 94.5625 6.5625 96.4375C4.77083 98.3125 3.27083 100.229 2.0625 102.188C0.854167 104.146 0.25 106.167 0.25 108.25C0.25 110.542 1.08333 112.375 2.75 113.75C4.41667 115.125 6.72917 115.812 9.6875 115.812H36.0625C36.2292 119.854 37.3125 123.583 39.3125 127C41.3542 130.417 44.0833 133.167 47.5 135.25C50.9167 137.375 54.8125 138.438 59.1875 138.438ZM59.1875 129.625C55.4375 129.625 52.3125 128.375 49.8125 125.875C47.3542 123.417 46.0208 120.062 45.8125 115.812H72.625C72.375 120.062 71.0208 123.417 68.5625 125.875C66.1042 128.375 62.9792 129.625 59.1875 129.625ZM67.625 38.6875C68.6667 38.6875 69.5208 38.3542 70.1875 37.6875C70.8958 37.0208 71.25 36.2083 71.25 35.25V25.75C71.25 24.75 70.8958 23.9167 70.1875 23.25C69.5208 22.5417 68.6667 22.1875 67.625 22.1875C66.6667 22.1875 65.8542 22.5417 65.1875 23.25C64.5208 23.9167 64.1875 24.75 64.1875 25.75V35.25C64.1875 36.2083 64.5208 37.0208 65.1875 37.6875C65.8542 38.3542 66.6667 38.6875 67.625 38.6875ZM82.375 49.1875C83.375 49.1875 84.2083 48.8542 84.875 48.1875C85.5417 47.5208 85.875 46.6667 85.875 45.625V15.25C85.875 14.2917 85.5417 13.4792 84.875 12.8125C84.2083 12.1042 83.375 11.75 82.375 11.75C81.375 11.75 80.5208 12.1042 79.8125 12.8125C79.1458 13.4792 78.8125 14.2917 78.8125 15.25V45.625C78.8125 46.6667 79.1458 47.5208 79.8125 48.1875C80.5208 48.8542 81.375 49.1875 82.375 49.1875ZM97 60C98 60 98.8333 59.6667 99.5 59C100.208 58.3333 100.562 57.5 100.562 56.5V4.5625C100.562 3.52083 100.208 2.66667 99.5 2C98.8333 1.29167 98 0.9375 97 0.9375C96.0417 0.9375 95.2083 1.29167 94.5 2C93.8333 2.66667 93.5 3.52083 93.5 4.5625V56.5C93.5 57.5 93.8333 58.3333 94.5 59C95.1667 59.6667 96 60 97 60ZM111.625 53.8125C112.625 53.8125 113.458 53.4792 114.125 52.8125C114.833 52.1042 115.188 51.25 115.188 50.25V10.625C115.188 9.66667 114.833 8.85417 114.125 8.1875C113.458 7.52083 112.625 7.1875 111.625 7.1875C110.667 7.1875 109.833 7.52083 109.125 8.1875C108.458 8.85417 108.125 9.66667 108.125 10.625V50.25C108.125 51.25 108.458 52.1042 109.125 52.8125C109.833 53.4792 110.667 53.8125 111.625 53.8125ZM126.312 42C127.354 42 128.208 41.6667 128.875 41C129.542 40.3333 129.875 39.5 129.875 38.5V22.4375C129.875 21.4375 129.542 20.6042 128.875 19.9375C128.208 19.2708 127.354 18.9375 126.312 18.9375C125.354 18.9375 124.521 19.2917 123.812 20C123.146 20.6667 122.812 21.4792 122.812 22.4375V38.5C122.812 39.4583 123.146 40.2917 123.812 41C124.521 41.6667 125.354 42 126.312 42Z" fill="white"/>
</svg>
