<svg xmlns="http://www.w3.org/2000/svg" width="24" height="24"><path style="stroke:none;fill-rule:nonzero;fill:#fff;fill-opacity:1" d="M12 23.05c1.633 0 3.168-.292 4.605-.882a12.22 12.22 0 0 0 3.82-2.438 11.467 11.467 0 0 0 2.59-3.582c.626-1.363.938-2.808.938-4.347a10.2 10.2 0 0 0-.937-4.332 11.53 11.53 0 0 0-2.59-3.598 12.361 12.361 0 0 0-3.82-2.437A12.166 12.166 0 0 0 11.987.55c-1.633 0-3.172.293-4.617.883A12.307 12.307 0 0 0 3.562 3.87 11.523 11.523 0 0 0 .985 7.465 10.2 10.2 0 0 0 .047 11.8c0 1.539.312 2.984.937 4.347a11.467 11.467 0 0 0 2.59 3.582 12.236 12.236 0 0 0 3.809 2.438c1.445.59 2.984.883 4.617.883Zm0-1.874a10.222 10.222 0 0 1-7.055-2.734 9.548 9.548 0 0 1-2.133-2.989 8.83 8.83 0 0 1-.761-3.652c0-1.301.254-2.52.761-3.649A9.52 9.52 0 0 1 4.946 5.16 9.82 9.82 0 0 1 8.11 3.156c1.204-.488 2.496-.73 3.88-.73 1.382 0 2.675.242 3.878.73a9.701 9.701 0 0 1 3.176 2.004 9.432 9.432 0 0 1 2.145 2.992 8.685 8.685 0 0 1 .773 3.649c0 1.3-.258 2.52-.773 3.652a9.22 9.22 0 0 1-2.133 2.988A10.222 10.222 0 0 1 12 21.176ZM9.223 7.27l8.695 8.195a.54.54 0 0 0 .187-.422c0-.3-.132-.586-.398-.86-.266-.28-.539-.558-.82-.835a1.373 1.373 0 0 1-.34-.543 3.939 3.939 0 0 1-.176-.727 11.423 11.423 0 0 1-.07-.726c-.024-1.18-.223-2.157-.598-2.938-.367-.777-.98-1.32-1.84-1.621a2.197 2.197 0 0 0-.68-1.004 1.8 1.8 0 0 0-1.195-.418c-.476 0-.879.14-1.207.418-.32.281-.547.617-.68 1.004a3.313 3.313 0 0 0-.48.21c-.144.071-.277.161-.398.267Zm4.933 8.515L7.793 9.793c-.04.234-.07.484-.094.738-.015.274-.027.547-.035.82a9 9 0 0 1-.082.727 3.53 3.53 0 0 1-.164.715 1.387 1.387 0 0 1-.328.555c-.281.277-.555.554-.82.836-.266.273-.399.562-.399.87 0 .216.082.391.246.532.172.129.406.195.703.195Zm-2.168 2.547c.547 0 1.004-.16 1.371-.477.368-.324.57-.707.61-1.156H9.996c.04.45.242.832.61 1.156.367.317.828.477 1.382.477Zm5.52-.617a.608.608 0 0 0 .375.14.522.522 0 0 0 .375-.14.477.477 0 0 0 .164-.356.45.45 0 0 0-.164-.351L6.457 5.89a.547.547 0 0 0-.762 0 .457.457 0 0 0-.152.351c0 .14.05.258.152.356Zm0 0"/></svg>