<svg width="204" height="126" viewBox="0 0 204 126" fill="none" xmlns="http://www.w3.org/2000/svg">
<path d="M40.75 125.688C46.25 125.688 51.3958 124.646 56.1875 122.562C60.9792 120.521 65.1875 117.667 68.8125 114C72.4792 110.375 75.3333 106.167 77.375 101.375C79.4583 96.5417 80.5 91.3958 80.5 85.9375C80.5 80.4375 79.4792 75.2917 77.4375 70.5C75.3958 65.6667 72.5417 61.4375 68.875 57.8125C65.25 54.1458 61.0208 51.2917 56.1875 49.25C51.3958 47.2083 46.25 46.1875 40.75 46.1875C35.25 46.1875 30.0833 47.2083 25.25 49.25C20.4583 51.2917 16.2292 54.1458 12.5625 57.8125C8.9375 61.4375 6.08333 65.6667 4 70.5C1.95833 75.2917 0.9375 80.4375 0.9375 85.9375C0.9375 91.4375 1.95833 96.5833 4 101.375C6.08333 106.167 8.9375 110.375 12.5625 114C16.2292 117.667 20.4583 120.521 25.25 122.562C30.0833 124.646 35.25 125.688 40.75 125.688ZM40.75 115.875C36.5833 115.875 32.6875 115.104 29.0625 113.562C25.4792 112.021 22.3125 109.896 19.5625 107.188C16.8125 104.438 14.6667 101.25 13.125 97.625C11.5833 94 10.8125 90.1042 10.8125 85.9375C10.8125 81.7708 11.5833 77.8958 13.125 74.3125C14.6667 70.6875 16.8125 67.5 19.5625 64.75C22.3125 62 25.5 59.8542 29.125 58.3125C32.75 56.7708 36.625 56 40.75 56C44.875 56 48.75 56.7708 52.375 58.3125C56 59.8542 59.1875 62 61.9375 64.75C64.6875 67.5 66.8333 70.6875 68.375 74.3125C69.9167 77.9375 70.6875 81.8125 70.6875 85.9375C70.6875 90.0625 69.9167 93.9375 68.375 97.5625C66.8333 101.188 64.6875 104.375 61.9375 107.125C59.1875 109.875 56 112.021 52.375 113.562C48.75 115.104 44.875 115.875 40.75 115.875ZM163.812 125.688C169.312 125.688 174.458 124.646 179.25 122.562C184.042 120.521 188.25 117.667 191.875 114C195.542 110.375 198.396 106.167 200.438 101.375C202.521 96.5833 203.562 91.4375 203.562 85.9375C203.562 80.4375 202.521 75.2917 200.438 70.5C198.396 65.6667 195.542 61.4375 191.875 57.8125C188.25 54.1875 184.042 51.3542 179.25 49.3125C174.458 47.2292 169.312 46.1875 163.812 46.1875C158.312 46.1875 153.146 47.2292 148.312 49.3125C143.521 51.3542 139.292 54.1875 135.625 57.8125C131.958 61.4375 129.083 65.6667 127 70.5C124.958 75.2917 123.938 80.4375 123.938 85.9375C123.938 91.4375 124.958 96.6042 127 101.438C129.083 106.229 131.958 110.438 135.625 114.062C139.292 117.729 143.521 120.583 148.312 122.625C153.146 124.667 158.312 125.688 163.812 125.688ZM163.812 115.875C158.271 115.875 153.229 114.542 148.688 111.875C144.146 109.208 140.521 105.604 137.812 101.062C135.146 96.5208 133.812 91.4792 133.812 85.9375C133.812 81.8125 134.583 77.9375 136.125 74.3125C137.708 70.6875 139.854 67.5 142.562 64.75C145.312 62 148.5 59.8542 152.125 58.3125C155.792 56.7708 159.688 56 163.812 56C167.938 56 171.812 56.7917 175.438 58.375C179.062 59.9167 182.229 62.0625 184.938 64.8125C187.688 67.5625 189.833 70.75 191.375 74.375C192.958 77.9583 193.75 81.8125 193.75 85.9375C193.75 90.0625 192.958 93.9375 191.375 97.5625C189.833 101.188 187.688 104.375 184.938 107.125C182.229 109.875 179.062 112.021 175.438 113.562C171.812 115.104 167.938 115.875 163.812 115.875ZM107.5 5C107.5 6.33333 107.979 7.47917 108.938 8.4375C109.896 9.35417 111.042 9.8125 112.375 9.8125H128.562C128.938 9.8125 129.208 9.95833 129.375 10.25L159.125 87.75L168.188 84.625L137.062 4.3125C135.979 1.52083 133.708 0.125 130.25 0.125H112.375C111.042 0.125 109.896 0.604167 108.938 1.5625C107.979 2.47917 107.5 3.625 107.5 5ZM146.562 42.9375V33.9375L80.25 43.6875V52.6875L146.562 42.9375ZM95.3125 91.625V82.625H41.375V91.625H95.3125ZM102.188 99.25C104.604 99.25 106.792 98.6667 108.75 97.5C110.75 96.2917 112.333 94.7083 113.5 92.75C114.708 90.7917 115.312 88.6042 115.312 86.1875C115.312 83.7708 114.708 81.5833 113.5 79.625C112.333 77.625 110.75 76.0417 108.75 74.875C106.792 73.7083 104.604 73.125 102.188 73.125C99.7708 73.125 97.5625 73.7083 95.5625 74.875C93.6042 76.0417 92.0208 77.625 90.8125 79.625C89.6458 81.5833 89.0625 83.7708 89.0625 86.1875C89.0208 88.5625 89.5833 90.75 90.75 92.75C91.9167 94.7083 93.5 96.2917 95.5 97.5C97.5 98.6667 99.7292 99.25 102.188 99.25ZM102.25 90.6875C100.958 90.6875 99.875 90.25 99 89.375C98.125 88.5 97.6875 87.4583 97.6875 86.25C97.6875 85 98.125 83.9375 99 83.0625C99.875 82.1458 100.958 81.6875 102.25 81.6875C103.5 81.6875 104.542 82.125 105.375 83C106.25 83.875 106.688 84.9583 106.688 86.25C106.688 87.4583 106.25 88.5 105.375 89.375C104.542 90.25 103.5 90.6875 102.25 90.6875ZM40.75 94.0625C43 94.0625 44.9167 93.2708 46.5 91.6875C48.125 90.1042 48.9375 88.1875 48.9375 85.9375C48.9375 83.6458 48.1458 81.7083 46.5625 80.125C44.9792 78.5417 43.0417 77.75 40.75 77.75C38.4583 77.75 36.5208 78.5417 34.9375 80.125C33.3958 81.6667 32.625 83.6042 32.625 85.9375C32.5833 88.1875 33.3542 90.1042 34.9375 91.6875C36.5208 93.2708 38.4583 94.0625 40.75 94.0625ZM163.812 94.125C166.062 94.125 167.979 93.3333 169.562 91.75C171.146 90.125 171.938 88.1875 171.938 85.9375C171.938 83.6458 171.146 81.7292 169.562 80.1875C168.021 78.6042 166.104 77.8125 163.812 77.8125C161.562 77.8125 159.646 78.5833 158.062 80.125C156.479 81.6667 155.667 83.6042 155.625 85.9375C155.583 88.1875 156.354 90.125 157.938 91.75C159.562 93.3333 161.521 94.125 163.812 94.125ZM100.062 76.375L108.125 80.9375L147 39.25L135.688 38.875L100.062 76.375ZM37.0625 82.8125L45.0625 87.375L82.25 49.375L74.5625 43.875L37.0625 82.8125ZM93.5 82.1875L101.5 76.4375L73.9375 24.1875L64.5625 26.1875L93.5 82.1875ZM52.875 22.9375C52.875 24.2708 53.3333 25.4167 54.25 26.375C55.2083 27.2917 56.375 27.75 57.75 27.75H82.3125C83.6875 27.75 84.8333 27.2917 85.75 26.375C86.7083 25.4167 87.1875 24.2708 87.1875 22.9375C87.1875 21.6042 86.7083 20.4583 85.75 19.5C84.7917 18.5417 83.6458 18.0625 82.3125 18.0625H57.75C56.4167 18.0625 55.2708 18.5417 54.3125 19.5C53.3542 20.4583 52.875 21.6042 52.875 22.9375Z" fill="white"/>
</svg>
