<?xml version="1.0" encoding="UTF-8"?>
<svg xmlns="http://www.w3.org/2000/svg" xmlns:xlink="http://www.w3.org/1999/xlink" width="24" height="19.2" viewBox="0 0 24 19.2" version="1.1">
<g id="surface1">
<path style=" stroke:none;fill-rule:nonzero;fill:rgb(100%,100%,100%);fill-opacity:1;" d="M 0.0273438 13.546875 C 0.0273438 14.421875 0.261719 15.203125 0.730469 15.890625 C 1.207031 16.578125 1.835938 17.121094 2.625 17.523438 C 3.414062 17.921875 4.285156 18.121094 5.242188 18.121094 C 6.191406 18.121094 7.058594 17.921875 7.847656 17.523438 C 8.632812 17.121094 9.261719 16.578125 9.730469 15.890625 C 10.199219 15.203125 10.433594 14.421875 10.433594 13.546875 L 10.433594 3.1875 C 10.433594 2.332031 10.164062 1.640625 9.617188 1.117188 C 9.082031 0.589844 8.363281 0.328125 7.460938 0.328125 C 6.757812 0.328125 6.132812 0.496094 5.597656 0.835938 C 5.066406 1.171875 4.667969 1.648438 4.40625 2.257812 L 0.507812 11.335938 C 0.320312 11.777344 0.191406 12.171875 0.121094 12.515625 C 0.0585938 12.859375 0.0273438 13.203125 0.0273438 13.546875 Z M 2.820312 9.535156 L 5.679688 2.886719 C 5.84375 2.511719 6.074219 2.222656 6.375 2.015625 C 6.679688 1.804688 7.023438 1.695312 7.40625 1.695312 C 7.898438 1.695312 8.292969 1.851562 8.585938 2.15625 C 8.886719 2.457031 9.039062 2.851562 9.039062 3.335938 L 9.039062 10.460938 C 8.570312 10 8 9.636719 7.332031 9.375 C 6.667969 9.105469 5.972656 8.972656 5.242188 8.972656 C 4.820312 8.972656 4.402344 9.023438 3.984375 9.121094 C 3.570312 9.214844 3.183594 9.351562 2.820312 9.535156 Z M 1.5 13.546875 C 1.5 12.914062 1.664062 12.363281 1.996094 11.886719 C 2.328125 11.414062 2.773438 11.042969 3.335938 10.78125 C 3.898438 10.511719 4.535156 10.378906 5.242188 10.378906 C 5.941406 10.378906 6.578125 10.511719 7.152344 10.78125 C 7.726562 11.042969 8.183594 11.414062 8.523438 11.886719 C 8.859375 12.363281 9.027344 12.914062 9.027344 13.546875 C 9.027344 14.179688 8.859375 14.730469 8.523438 15.207031 C 8.183594 15.679688 7.726562 16.050781 7.152344 16.3125 C 6.585938 16.582031 5.945312 16.714844 5.242188 16.714844 C 4.535156 16.714844 3.898438 16.582031 3.335938 16.3125 C 2.773438 16.042969 2.328125 15.671875 1.996094 15.195312 C 1.664062 14.722656 1.5 14.171875 1.5 13.546875 Z M 23.960938 13.546875 C 23.960938 13.203125 23.929688 12.859375 23.859375 12.515625 C 23.796875 12.171875 23.667969 11.777344 23.476562 11.335938 L 19.585938 2.257812 C 19.316406 1.648438 18.914062 1.171875 18.375 0.835938 C 17.84375 0.496094 17.226562 0.328125 16.527344 0.328125 C 15.628906 0.328125 14.90625 0.589844 14.363281 1.117188 C 13.824219 1.640625 13.554688 2.332031 13.554688 3.1875 L 13.554688 13.546875 C 13.554688 14.421875 13.789062 15.203125 14.25 15.890625 C 14.71875 16.578125 15.347656 17.121094 16.132812 17.523438 C 16.921875 17.921875 17.792969 18.121094 18.75 18.121094 C 19.707031 18.121094 20.578125 17.921875 21.367188 17.523438 C 22.152344 17.121094 22.78125 16.578125 23.25 15.890625 C 23.726562 15.203125 23.960938 14.421875 23.960938 13.546875 Z M 21.167969 9.535156 C 20.800781 9.351562 20.40625 9.214844 19.988281 9.121094 C 19.574219 9.023438 19.164062 8.972656 18.75 8.972656 C 18.011719 8.972656 17.308594 9.105469 16.640625 9.375 C 15.976562 9.636719 15.414062 10 14.945312 10.460938 L 14.945312 3.335938 C 14.945312 2.851562 15.089844 2.457031 15.382812 2.15625 C 15.683594 1.851562 16.085938 1.695312 16.585938 1.695312 C 16.964844 1.695312 17.304688 1.804688 17.605469 2.015625 C 17.90625 2.222656 18.136719 2.511719 18.300781 2.886719 Z M 22.480469 13.546875 C 22.480469 14.171875 22.316406 14.722656 21.984375 15.195312 C 21.660156 15.671875 21.214844 16.042969 20.652344 16.3125 C 20.089844 16.582031 19.457031 16.714844 18.75 16.714844 C 18.042969 16.714844 17.402344 16.582031 16.828125 16.3125 C 16.257812 16.050781 15.804688 15.679688 15.46875 15.207031 C 15.132812 14.730469 14.960938 14.179688 14.960938 13.546875 C 14.960938 12.914062 15.132812 12.363281 15.46875 11.886719 C 15.804688 11.414062 16.257812 11.042969 16.828125 10.78125 C 17.402344 10.511719 18.042969 10.378906 18.75 10.378906 C 19.457031 10.378906 20.089844 10.511719 20.652344 10.78125 C 21.214844 11.042969 21.660156 11.414062 21.984375 11.886719 C 22.316406 12.363281 22.480469 12.914062 22.480469 13.546875 Z M 9.804688 11.4375 C 10.074219 11.261719 10.398438 11.125 10.78125 11.023438 C 11.167969 10.917969 11.574219 10.867188 12 10.867188 C 13 10.867188 13.75 11.050781 14.25 11.417969 L 14.25 10.023438 C 13.644531 9.765625 12.894531 9.636719 12 9.636719 C 11.605469 9.636719 11.222656 9.675781 10.847656 9.75 C 10.476562 9.824219 10.132812 9.929688 9.804688 10.070312 Z M 9.804688 8.578125 C 10.074219 8.402344 10.398438 8.265625 10.78125 8.164062 C 11.167969 8.058594 11.574219 8.007812 12 8.007812 C 13 8.007812 13.75 8.191406 14.25 8.558594 L 14.25 7.164062 C 13.644531 6.90625 12.894531 6.777344 12 6.777344 C 11.605469 6.777344 11.222656 6.816406 10.847656 6.890625 C 10.476562 6.964844 10.132812 7.070312 9.804688 7.210938 Z M 9.804688 5.710938 C 10.074219 5.535156 10.398438 5.398438 10.78125 5.296875 C 11.167969 5.191406 11.574219 5.136719 12 5.136719 C 13 5.136719 13.75 5.320312 14.25 5.691406 L 14.25 4.304688 C 13.644531 4.039062 12.894531 3.910156 12 3.910156 C 11.605469 3.910156 11.222656 3.949219 10.847656 4.03125 C 10.476562 4.105469 10.132812 4.210938 9.804688 4.351562 Z M 9.804688 5.710938 "/>
</g>
</svg>
