<?xml version="1.0" encoding="UTF-8"?>
<svg xmlns="http://www.w3.org/2000/svg" xmlns:xlink="http://www.w3.org/1999/xlink" width="24" height="26.4" viewBox="0 0 24 26.4" version="1.1">
<g id="surface1">
<path style=" stroke:none;fill-rule:nonzero;fill:rgb(100%,100%,100%);fill-opacity:1;" d="M 16.574219 7.378906 C 16.105469 7.378906 15.675781 7.46875 15.28125 7.648438 C 14.894531 7.832031 14.539062 8.117188 14.222656 8.503906 C 13.910156 8.890625 13.628906 9.394531 13.378906 10.011719 C 12.695312 9.320312 11.929688 8.65625 11.070312 8.023438 C 10.214844 7.394531 9.292969 6.824219 8.304688 6.320312 C 7.324219 5.8125 6.304688 5.398438 5.242188 5.070312 C 4.183594 4.742188 3.117188 4.535156 2.035156 4.453125 C 1.746094 4.433594 1.527344 4.484375 1.378906 4.601562 C 1.234375 4.714844 1.136719 4.863281 1.085938 5.042969 C 1.039062 5.226562 1.007812 5.40625 1.003906 5.585938 C 0.929688 6.78125 1.085938 7.914062 1.480469 8.992188 C 1.882812 10.058594 2.464844 11.019531 3.234375 11.867188 C 4.007812 12.710938 4.925781 13.398438 5.980469 13.921875 C 7.042969 14.441406 8.195312 14.742188 9.429688 14.832031 C 8.980469 15.90625 8.449219 16.902344 7.835938 17.820312 C 7.230469 18.742188 6.582031 19.59375 5.886719 20.382812 C 5.195312 21.164062 4.492188 21.882812 3.789062 22.546875 C 3.617188 22.703125 3.542969 22.878906 3.5625 23.070312 C 3.582031 23.265625 3.648438 23.445312 3.757812 23.617188 C 3.972656 23.953125 4.269531 24.257812 4.648438 24.523438 C 5.039062 24.800781 5.472656 25.035156 5.953125 25.226562 C 6.441406 25.421875 6.949219 25.566406 7.480469 25.660156 C 8.011719 25.753906 8.539062 25.789062 9.066406 25.761719 C 9.597656 25.738281 10.09375 25.648438 10.554688 25.492188 C 10.8125 25.398438 10.976562 25.285156 11.042969 25.152344 C 11.117188 25.023438 11.15625 24.851562 11.15625 24.636719 L 11.15625 21.074219 C 11.65625 21.050781 12.199219 20.960938 12.789062 20.804688 C 13.382812 20.648438 13.960938 20.40625 14.523438 20.082031 C 15.085938 19.75 15.582031 19.320312 16.011719 18.796875 C 16.449219 18.265625 16.773438 17.617188 16.976562 16.847656 C 17.183594 16.078125 17.222656 15.175781 17.089844 14.136719 L 16.988281 13.398438 C 17.957031 13.164062 18.738281 12.777344 19.332031 12.234375 C 19.925781 11.683594 20.222656 11.097656 20.222656 10.472656 C 20.222656 9.976562 20.054688 9.492188 19.726562 9.019531 C 19.398438 8.542969 18.960938 8.152344 18.402344 7.847656 C 17.851562 7.535156 17.242188 7.378906 16.574219 7.378906 Z M 17.558594 10.632812 C 17.398438 10.632812 17.257812 10.574219 17.148438 10.460938 C 17.035156 10.351562 16.976562 10.214844 16.976562 10.058594 C 16.976562 9.902344 17.035156 9.769531 17.148438 9.65625 C 17.257812 9.539062 17.398438 9.476562 17.558594 9.476562 C 17.710938 9.476562 17.839844 9.539062 17.953125 9.65625 C 18.070312 9.769531 18.132812 9.902344 18.132812 10.058594 C 18.132812 10.214844 18.070312 10.351562 17.953125 10.460938 C 17.839844 10.574219 17.710938 10.632812 17.558594 10.632812 Z M 18.9375 11.851562 L 22.359375 12.335938 C 22.515625 12.363281 22.648438 12.335938 22.761719 12.253906 C 22.875 12.164062 22.949219 12.054688 22.988281 11.914062 C 23.023438 11.777344 23.019531 11.644531 22.96875 11.511719 C 22.917969 11.382812 22.8125 11.28125 22.648438 11.210938 L 19.554688 9.898438 Z M 15.367188 6.261719 C 14.757812 5.179688 14.066406 4.242188 13.285156 3.449219 C 12.507812 2.648438 11.628906 1.964844 10.640625 1.398438 C 10.277344 1.191406 9.9375 1.152344 9.617188 1.285156 C 9.300781 1.414062 9.089844 1.679688 8.992188 2.070312 C 8.851562 2.554688 8.742188 3.039062 8.652344 3.523438 C 8.570312 4.011719 8.519531 4.496094 8.492188 4.976562 C 9.335938 5.390625 10.140625 5.851562 10.902344 6.355469 C 11.671875 6.863281 12.382812 7.398438 13.039062 7.960938 C 13.367188 7.515625 13.722656 7.152344 14.109375 6.871094 C 14.496094 6.589844 14.914062 6.386719 15.367188 6.261719 Z M 15.367188 6.261719 "/>
</g>
</svg>
