<svg width="20" height="22" viewBox="0 0 20 22" fill="none" xmlns="http://www.w3.org/2000/svg">
<path d="M13.8125 6.14844C13.4219 6.14844 13.0625 6.22396 12.7344 6.375C12.4115 6.52604 12.1172 6.76302 11.8516 7.08594C11.5911 7.40885 11.3568 7.82812 11.1484 8.34375C10.5807 7.76562 9.9401 7.21354 9.22656 6.6875C8.51302 6.16146 7.74479 5.6875 6.92188 5.26562C6.10417 4.84375 5.2526 4.4974 4.36719 4.22656C3.48698 3.95052 2.59635 3.77865 1.69531 3.71094C1.45573 3.69531 1.27344 3.73698 1.14844 3.83594C1.02865 3.92969 0.947917 4.05208 0.90625 4.20312C0.864583 4.35417 0.841146 4.50521 0.835938 4.65625C0.773438 5.65104 0.90625 6.59635 1.23438 7.49219C1.56771 8.38281 2.05469 9.18229 2.69531 9.89062C3.34115 10.5938 4.10417 11.1641 4.98438 11.6016C5.86979 12.0339 6.82812 12.2865 7.85938 12.3594C7.48438 13.2552 7.04167 14.0859 6.53125 14.8516C6.02604 15.6172 5.48438 16.3281 4.90625 16.9844C4.32812 17.6354 3.74479 18.237 3.15625 18.7891C3.01562 18.9193 2.95312 19.0651 2.96875 19.2266C2.98438 19.388 3.03906 19.5391 3.13281 19.6797C3.3099 19.9609 3.55729 20.2135 3.875 20.4375C4.19792 20.6667 4.5599 20.862 4.96094 21.0234C5.36719 21.1849 5.79167 21.3047 6.23438 21.3828C6.67708 21.4609 7.11719 21.4896 7.55469 21.4688C7.9974 21.4479 8.41146 21.3724 8.79688 21.2422C9.01042 21.1641 9.14583 21.0703 9.20312 20.9609C9.26562 20.8516 9.29688 20.7083 9.29688 20.5312V17.5625C9.71354 17.5417 10.1667 17.4661 10.6562 17.3359C11.151 17.2057 11.6328 17.0052 12.1016 16.7344C12.5703 16.4583 12.9844 16.1016 13.3438 15.6641C13.7083 15.2214 13.9766 14.6797 14.1484 14.0391C14.3203 13.3984 14.3516 12.6458 14.2422 11.7812L14.1562 11.1641C14.9635 10.9714 15.6146 10.6484 16.1094 10.1953C16.6042 9.73698 16.8516 9.2474 16.8516 8.72656C16.8516 8.3151 16.7135 7.91146 16.4375 7.51562C16.1667 7.11979 15.7995 6.79427 15.3359 6.53906C14.8776 6.27865 14.3698 6.14844 13.8125 6.14844ZM14.6328 8.85938C14.4974 8.85938 14.3828 8.8125 14.2891 8.71875C14.1953 8.625 14.1484 8.51302 14.1484 8.38281C14.1484 8.2526 14.1953 8.14062 14.2891 8.04688C14.3828 7.94792 14.4974 7.89844 14.6328 7.89844C14.7578 7.89844 14.8672 7.94792 14.9609 8.04688C15.0599 8.14062 15.1094 8.2526 15.1094 8.38281C15.1094 8.51302 15.0599 8.625 14.9609 8.71875C14.8672 8.8125 14.7578 8.85938 14.6328 8.85938ZM15.7812 9.875L18.6328 10.2812C18.763 10.3021 18.875 10.2786 18.9688 10.2109C19.0625 10.138 19.125 10.0443 19.1562 9.92969C19.1875 9.8151 19.1823 9.70312 19.1406 9.59375C19.099 9.48438 19.0104 9.40104 18.875 9.34375L16.2969 8.25L15.7812 9.875ZM12.8047 5.21875C12.2995 4.31771 11.7214 3.53646 11.0703 2.875C10.4245 2.20833 9.6901 1.63802 8.86719 1.16406C8.5651 0.992188 8.28125 0.960938 8.01562 1.07031C7.75 1.17969 7.57552 1.39844 7.49219 1.72656C7.3776 2.1276 7.28385 2.53125 7.21094 2.9375C7.14323 3.34375 7.09896 3.7474 7.07812 4.14844C7.78125 4.49219 8.45052 4.875 9.08594 5.29688C9.72656 5.71875 10.3203 6.16406 10.8672 6.63281C11.138 6.26302 11.4349 5.96094 11.7578 5.72656C12.0807 5.49219 12.4297 5.32292 12.8047 5.21875Z" fill="white"/>
</svg>
