<svg xmlns="http://www.w3.org/2000/svg" width="24" height="24"><path style="stroke:none;fill-rule:nonzero;fill:#fff;fill-opacity:1" d="M12 4.422c.383 0 .703-.145.969-.426.265-.281.394-.633.394-1.047 0-.418-.066-.781-.207-1.082a3.151 3.151 0 0 0-.574-.87C12.418.8 12.23.694 12.02.69c-.207-.007-.395.075-.563.247a4.25 4.25 0 0 0-.602.898c-.148.305-.218.672-.218 1.113 0 .414.129.766.394 1.047a1.3 1.3 0 0 0 .969.426Zm-.594 4.547h1.156V3.363h-1.156ZM5.2 13.797h1.676V11.41c0-.469.133-.824.395-1.066.265-.25.632-.375 1.105-.375h7.238c.48 0 .852.125 1.117.375.262.242.395.597.395 1.066v2.387h1.676v-2.469c0-.973-.266-1.703-.801-2.2-.527-.5-1.313-.75-2.355-.75h-7.29c-1.043 0-1.832.25-2.367.75-.527.497-.789 1.227-.789 2.2Zm-3.554 8.555h1.68v-5.95c0-.472.128-.832.394-1.078.265-.246.633-.37 1.105-.37h14.344c.473 0 .84.124 1.102.37.265.246.398.606.398 1.078v5.95h1.676v-6.04c0-.972-.266-1.703-.793-2.199-.528-.5-1.313-.75-2.352-.75H4.801c-1.04 0-1.828.25-2.364.75-.527.496-.792 1.227-.792 2.2Zm10.343-4.028c.23 0 .453.059.668.168.215.117.442.242.676.387.238.144.5.273.793.383.297.117.64.172 1.02.172.37 0 .69-.055.968-.172.285-.11.54-.239.762-.383.223-.145.434-.27.637-.387.199-.11.41-.164.625-.164.207 0 .41.055.613.164.207.117.426.242.656.387.235.144.504.273.801.383.309.117.66.172 1.063.172h.28v-1.54h-.28a1.49 1.49 0 0 1-.707-.171 9.07 9.07 0 0 1-.688-.383 5.382 5.382 0 0 0-.781-.387 2.572 2.572 0 0 0-.957-.164c-.364 0-.68.055-.95.164-.25.11-.492.238-.718.387a6.546 6.546 0 0 1-.637.383 1.372 1.372 0 0 1-.687.172c-.297 0-.567-.055-.801-.172a6.39 6.39 0 0 1-.676-.383 4.821 4.821 0 0 0-.73-.387 2.444 2.444 0 0 0-.95-.164c-.367 0-.687.055-.957.164-.254.11-.5.238-.73.387a5.844 5.844 0 0 1-.676.383c-.23.117-.492.172-.793.172-.25 0-.477-.055-.687-.172a8.789 8.789 0 0 1-.633-.383 4.073 4.073 0 0 0-.73-.387 2.386 2.386 0 0 0-.938-.164c-.36 0-.684.055-.969.164a5.67 5.67 0 0 0-.77.387 7.822 7.822 0 0 1-.699.383 1.47 1.47 0 0 1-.699.172h-.344v1.539h.344c.402 0 .754-.055 1.055-.172.297-.11.566-.239.8-.383.235-.145.454-.27.657-.387a1.3 1.3 0 0 1 .625-.164c.207 0 .414.055.613.164.203.117.414.242.637.387.23.144.484.273.761.383.278.117.602.172.977.172.383 0 .719-.055 1.012-.172.293-.11.554-.239.793-.383.242-.145.472-.27.687-.387.215-.11.438-.164.664-.164ZM.832 23.047h22.324c.23 0 .422-.082.582-.238a.768.768 0 0 0 .25-.563.734.734 0 0 0-.25-.562.818.818 0 0 0-.582-.23H.832a.863.863 0 0 0-.594.23.756.756 0 0 0-.238.562.756.756 0 0 0 .238.563.866.866 0 0 0 .594.234Zm0 0"/></svg>