<?xml version="1.0" encoding="UTF-8"?>
<svg xmlns="http://www.w3.org/2000/svg" xmlns:xlink="http://www.w3.org/1999/xlink" width="24" height="45.6" viewBox="0 0 24 45.6" version="1.1">
<g id="surface1">
<path style=" stroke:none;fill-rule:nonzero;fill:rgb(100%,100%,100%);fill-opacity:1;" d="M 3.039062 39.261719 L 12.054688 39.261719 C 14.394531 39.261719 16.398438 38.894531 18.074219 38.15625 C 19.75 37.429688 21.039062 36.386719 21.9375 35.023438 C 22.835938 33.648438 23.289062 32.007812 23.289062 30.09375 C 23.289062 28.59375 22.960938 27.261719 22.3125 26.101562 C 21.675781 24.925781 20.78125 23.976562 19.632812 23.25 C 18.480469 22.523438 17.144531 22.070312 15.617188 21.882812 L 15.617188 21.730469 C 16.757812 21.519531 17.773438 21.054688 18.675781 20.34375 C 19.574219 19.632812 20.28125 18.757812 20.792969 17.71875 C 21.320312 16.667969 21.582031 15.542969 21.582031 14.34375 C 21.582031 12.695312 21.179688 11.257812 20.382812 10.03125 C 19.582031 8.792969 18.460938 7.835938 17.023438 7.164062 C 15.585938 6.476562 13.917969 6.132812 12.019531 6.132812 L 3.039062 6.132812 C 2.324219 6.132812 1.757812 6.34375 1.332031 6.769531 C 0.917969 7.195312 0.710938 7.757812 0.710938 8.457031 L 0.710938 36.9375 C 0.710938 37.636719 0.917969 38.199219 1.332031 38.625 C 1.757812 39.050781 2.324219 39.261719 3.039062 39.261719 Z M 4.292969 20.605469 L 4.292969 9.28125 L 11.195312 9.28125 C 12.605469 9.28125 13.820312 9.492188 14.832031 9.917969 C 15.855469 10.332031 16.636719 10.945312 17.175781 11.757812 C 17.726562 12.570312 18 13.554688 18 14.71875 C 18 15.980469 17.6875 17.054688 17.0625 17.945312 C 16.449219 18.820312 15.554688 19.480469 14.382812 19.929688 C 13.21875 20.382812 11.8125 20.605469 10.164062 20.605469 Z M 4.292969 36.113281 L 4.292969 23.773438 L 11.0625 23.773438 C 13.835938 23.773438 15.960938 24.300781 17.4375 25.351562 C 18.914062 26.386719 19.648438 27.917969 19.648438 29.945312 C 19.648438 31.957031 18.9375 33.488281 17.511719 34.539062 C 16.101562 35.585938 14.09375 36.113281 11.492188 36.113281 Z M 7.632812 8.269531 L 7.632812 2.792969 C 7.632812 2.457031 7.511719 2.167969 7.273438 1.929688 C 7.039062 1.679688 6.75 1.554688 6.414062 1.554688 C 6.0625 1.554688 5.769531 1.679688 5.53125 1.929688 C 5.292969 2.167969 5.175781 2.457031 5.175781 2.792969 L 5.175781 8.269531 Z M 13.539062 8.269531 L 13.539062 2.792969 C 13.539062 2.457031 13.414062 2.167969 13.164062 1.929688 C 12.925781 1.679688 12.636719 1.554688 12.300781 1.554688 C 11.960938 1.554688 11.675781 1.679688 11.4375 1.929688 C 11.199219 2.167969 11.082031 2.457031 11.082031 2.792969 L 11.082031 8.269531 Z M 7.632812 37.144531 L 5.175781 37.144531 L 5.175781 42.75 C 5.175781 43.085938 5.292969 43.375 5.53125 43.613281 C 5.769531 43.851562 6.0625 43.96875 6.414062 43.96875 C 6.75 43.96875 7.039062 43.851562 7.273438 43.613281 C 7.511719 43.375 7.632812 43.085938 7.632812 42.75 Z M 13.539062 37.144531 L 11.082031 37.144531 L 11.082031 42.75 C 11.082031 43.085938 11.199219 43.375 11.4375 43.613281 C 11.675781 43.851562 11.960938 43.96875 12.300781 43.96875 C 12.636719 43.96875 12.925781 43.851562 13.164062 43.613281 C 13.414062 43.375 13.539062 43.085938 13.539062 42.75 Z M 13.539062 37.144531 "/>
</g>
</svg>
