<svg xmlns="http://www.w3.org/2000/svg" width="24" height="24"><path style="stroke:none;fill-rule:nonzero;fill:#fff;fill-opacity:1" d="M8.285 13.387c0 .11.04.199.117.277.078.074.172.11.282.11h2.906L10.03 18.21c-.07.203-.066.363.012.488.086.117.2.18.34.188.148 0 .281-.078.398-.239l4.688-6.285A.546.546 0 0 0 15.62 12a.366.366 0 0 0-.129-.29.382.382 0 0 0-.281-.108h-2.895l1.547-4.426c.07-.2.063-.36-.023-.477a.367.367 0 0 0-.328-.187c-.14-.008-.27.066-.387.226l-4.7 6.285c-.093.137-.14.254-.14.364ZM.457 8.238c0 1.778.441 3.535 1.324 5.274.883 1.734 2.13 3.425 3.739 5.078 1.617 1.64 3.527 3.21 5.73 4.71.125.083.266.16.422.223.164.079.305.114.422.114a.994.994 0 0 0 .422-.11 2.54 2.54 0 0 0 .433-.226c2.203-1.5 4.11-3.07 5.719-4.711 1.617-1.652 2.867-3.344 3.75-5.078.883-1.739 1.324-3.496 1.324-5.274 0-1.11-.168-2.12-.504-3.039a7.327 7.327 0 0 0-1.406-2.398 6.193 6.193 0 0 0-2.11-1.563 6.276 6.276 0 0 0-2.636-.55c-1.086 0-2.059.253-2.918.761a6.124 6.124 0 0 0-2.074 2.028 5.953 5.953 0 0 0-2.074-2.028C9.16.941 8.188.687 7.102.687c-.946 0-1.825.184-2.637.551-.797.36-1.516.89-2.11 1.563A7.287 7.287 0 0 0 .95 5.199C.621 6.117.457 7.13.457 8.24Zm1.887 0c0-1.11.207-2.074.62-2.902.415-.832.977-1.477 1.688-1.934.711-.468 1.52-.703 2.426-.703.742 0 1.379.145 1.91.426.54.277.996.621 1.371 1.04.375.417.692.831.95 1.25.156.25.293.42.41.51.11.083.242.126.375.126a.556.556 0 0 0 .375-.137c.11-.094.25-.258.422-.5.273-.41.597-.82.972-1.238.39-.438.852-.793 1.36-1.051.53-.281 1.16-.426 1.886-.426.914 0 1.727.235 2.438.703.71.457 1.273 1.102 1.687 1.938.414.824.621 1.789.621 2.898 0 1.16-.261 2.332-.785 3.524-.523 1.183-1.234 2.347-2.133 3.488a27.343 27.343 0 0 1-3.058 3.277 36.765 36.765 0 0 1-3.54 2.848c-.132.102-.214.148-.245.148-.024 0-.102-.046-.235-.148a37.397 37.397 0 0 1-3.55-2.848 28.067 28.067 0 0 1-3.047-3.277c-.899-1.14-1.61-2.305-2.133-3.488-.524-1.192-.785-2.364-.785-3.524Zm0 0"/></svg>