<svg width="16" height="17" viewBox="0 0 16 17" fill="none" xmlns="http://www.w3.org/2000/svg">
<path d="M8 16.3359C9.08854 16.3359 10.112 16.1276 11.0703 15.7109C12.0339 15.2943 12.8828 14.7188 13.6172 13.9844C14.3516 13.25 14.9271 12.4036 15.3438 11.4453C15.7604 10.4818 15.9688 9.45573 15.9688 8.36719C15.9688 7.27865 15.7604 6.25521 15.3438 5.29688C14.9271 4.33333 14.3516 3.48438 13.6172 2.75C12.8828 2.01562 12.0339 1.4401 11.0703 1.02344C10.1068 0.606771 9.08073 0.398438 7.99219 0.398438C6.90365 0.398438 5.8776 0.606771 4.91406 1.02344C3.95573 1.4401 3.10938 2.01562 2.375 2.75C1.64583 3.48438 1.07292 4.33333 0.65625 5.29688C0.239583 6.25521 0.03125 7.27865 0.03125 8.36719C0.03125 9.45573 0.239583 10.4818 0.65625 11.4453C1.07292 12.4036 1.64844 13.25 2.38281 13.9844C3.11719 14.7188 3.96354 15.2943 4.92188 15.7109C5.88542 16.1276 6.91146 16.3359 8 16.3359ZM4.47656 8.92188C4.47656 8.8125 4.52083 8.70833 4.60938 8.60938L9.02344 3.07031C9.13802 2.92969 9.26042 2.86198 9.39062 2.86719C9.52604 2.86719 9.63021 2.92188 9.70312 3.03125C9.78125 3.13542 9.78646 3.27344 9.71875 3.44531L8.25781 7.35938H10.9922C11.0964 7.35938 11.1823 7.39323 11.25 7.46094C11.3229 7.52865 11.3594 7.61458 11.3594 7.71875C11.3594 7.82292 11.3151 7.92708 11.2266 8.03125L6.8125 13.5703C6.70312 13.7109 6.58073 13.7812 6.44531 13.7812C6.3099 13.776 6.20312 13.7188 6.125 13.6094C6.05208 13.5 6.04948 13.3594 6.11719 13.1875L7.57812 9.27344H4.84375C4.73958 9.27344 4.65104 9.24219 4.57812 9.17969C4.51042 9.11198 4.47656 9.02604 4.47656 8.92188Z" fill="white"/>
</svg>
