<svg width="116" height="116" viewBox="0 0 116 116" fill="none" xmlns="http://www.w3.org/2000/svg">
<path d="M20.5625 115.5H96.375C102.917 115.5 107.812 113.875 111.062 110.625C114.354 107.417 116 102.583 116 96.125V19.8125C116 13.3542 114.354 8.52083 111.062 5.3125C107.812 2.0625 102.917 0.4375 96.375 0.4375H20.5625C14.0208 0.4375 9.10417 2.0625 5.8125 5.3125C2.5625 8.52083 0.9375 13.3542 0.9375 19.8125V96.125C0.9375 102.583 2.5625 107.417 5.8125 110.625C9.10417 113.875 14.0208 115.5 20.5625 115.5ZM30.3125 62.25C30.3125 61.375 30.6667 60.5417 31.375 59.75L66.6875 15.4375C67.6042 14.3125 68.5833 13.7708 69.625 13.8125C70.7083 13.8125 71.5417 14.25 72.125 15.125C72.75 15.9583 72.7917 17.0625 72.25 18.4375L60.5625 49.75H82.4375C83.2708 49.75 83.9583 50.0208 84.5 50.5625C85.0833 51.1042 85.375 51.7917 85.375 52.625C85.375 53.4583 85.0208 54.2917 84.3125 55.125L49 99.4375C48.125 100.562 47.1458 101.125 46.0625 101.125C44.9792 101.083 44.125 100.625 43.5 99.75C42.9167 98.875 42.8958 97.75 43.4375 96.375L55.125 65.0625H33.25C32.4167 65.0625 31.7083 64.8125 31.125 64.3125C30.5833 63.7708 30.3125 63.0833 30.3125 62.25Z" fill="white"/>
</svg>
