<?xml version="1.0" encoding="UTF-8"?>
<svg xmlns="http://www.w3.org/2000/svg" xmlns:xlink="http://www.w3.org/1999/xlink" width="24" height="25.5" viewBox="0 0 24 25.5" version="1.1">
<g id="surface1">
<path style=" stroke:none;fill-rule:nonzero;fill:rgb(100%,100%,100%);fill-opacity:1;" d="M 12 24.503906 C 13.632812 24.503906 15.167969 24.191406 16.605469 23.566406 C 18.050781 22.941406 19.324219 22.078125 20.425781 20.976562 C 21.527344 19.875 22.390625 18.605469 23.015625 17.167969 C 23.640625 15.722656 23.953125 14.183594 23.953125 12.550781 C 23.953125 10.917969 23.640625 9.382812 23.015625 7.945312 C 22.390625 6.5 21.527344 5.226562 20.425781 4.125 C 19.324219 3.023438 18.050781 2.160156 16.605469 1.535156 C 15.160156 0.910156 13.621094 0.597656 11.988281 0.597656 C 10.355469 0.597656 8.816406 0.910156 7.371094 1.535156 C 5.933594 2.160156 4.664062 3.023438 3.5625 4.125 C 2.46875 5.226562 1.609375 6.5 0.984375 7.945312 C 0.359375 9.382812 0.046875 10.917969 0.046875 12.550781 C 0.046875 14.183594 0.359375 15.722656 0.984375 17.167969 C 1.609375 18.605469 2.472656 19.875 3.574219 20.976562 C 4.675781 22.078125 5.945312 22.941406 7.382812 23.566406 C 8.828125 24.191406 10.367188 24.503906 12 24.503906 Z M 5.367188 16.558594 L 5.367188 13.335938 C 5.367188 12.875 5.417969 12.488281 5.519531 12.175781 C 5.628906 11.863281 5.816406 11.539062 6.082031 11.203125 L 6.5625 10.59375 C 6.664062 10.085938 6.789062 9.597656 6.9375 9.128906 C 7.09375 8.652344 7.222656 8.3125 7.324219 8.109375 C 7.472656 7.789062 7.683594 7.539062 7.957031 7.359375 C 8.238281 7.171875 8.566406 7.054688 8.941406 7.007812 C 9.128906 6.984375 9.503906 6.96875 10.066406 6.960938 C 10.628906 6.945312 11.273438 6.9375 12 6.9375 C 12.71875 6.9375 13.355469 6.945312 13.910156 6.960938 C 14.472656 6.96875 14.851562 6.984375 15.046875 7.007812 C 15.414062 7.0625 15.738281 7.179688 16.019531 7.359375 C 16.300781 7.539062 16.515625 7.789062 16.664062 8.109375 C 16.765625 8.3125 16.890625 8.652344 17.039062 9.128906 C 17.195312 9.597656 17.328125 10.085938 17.4375 10.59375 L 17.90625 11.203125 C 18.164062 11.539062 18.347656 11.863281 18.457031 12.175781 C 18.566406 12.488281 18.621094 12.875 18.621094 13.335938 L 18.621094 16.558594 C 18.621094 16.769531 18.546875 16.945312 18.398438 17.085938 C 18.257812 17.226562 18.082031 17.296875 17.871094 17.296875 L 17.203125 17.296875 C 17 17.296875 16.824219 17.226562 16.675781 17.085938 C 16.535156 16.945312 16.464844 16.769531 16.464844 16.558594 L 16.464844 15.632812 C 15.839844 15.671875 15.117188 15.703125 14.296875 15.726562 C 13.484375 15.75 12.71875 15.761719 12 15.761719 C 11.273438 15.761719 10.5 15.75 9.679688 15.726562 C 8.859375 15.703125 8.140625 15.671875 7.523438 15.632812 L 7.523438 16.558594 C 7.523438 16.769531 7.449219 16.945312 7.300781 17.085938 C 7.160156 17.226562 6.984375 17.296875 6.773438 17.296875 L 6.105469 17.296875 C 5.902344 17.296875 5.726562 17.226562 5.578125 17.085938 C 5.4375 16.945312 5.367188 16.769531 5.367188 16.558594 Z M 10.007812 11.789062 C 10.007812 11.9375 10.085938 12.011719 10.242188 12.011719 L 11.765625 12.011719 L 11.027344 14.039062 C 10.949219 14.21875 10.980469 14.34375 11.121094 14.414062 C 11.261719 14.484375 11.386719 14.445312 11.496094 14.296875 L 13.898438 11.191406 C 13.953125 11.121094 13.980469 11.050781 13.980469 10.980469 C 13.980469 10.808594 13.902344 10.722656 13.746094 10.722656 L 12.222656 10.734375 L 12.984375 8.707031 C 13.046875 8.527344 13.011719 8.40625 12.878906 8.34375 C 12.746094 8.28125 12.625 8.324219 12.515625 8.472656 L 10.089844 11.578125 C 10.035156 11.648438 10.007812 11.71875 10.007812 11.789062 Z M 10.007812 11.789062 "/>
</g>
</svg>
