<svg width="128" height="128" viewBox="0 0 128 128" fill="none" xmlns="http://www.w3.org/2000/svg">
<path d="M63.9375 127.688C72.6458 127.688 80.8333 126.021 88.5 122.688C96.2083 119.354 103 114.75 108.875 108.875C114.75 103 119.354 96.2292 122.688 88.5625C126.021 80.8542 127.688 72.6458 127.688 63.9375C127.688 55.2292 126.021 47.0417 122.688 39.375C119.354 31.6667 114.75 24.875 108.875 19C103 13.125 96.2083 8.52083 88.5 5.1875C80.7917 1.85417 72.5833 0.1875 63.875 0.1875C55.1667 0.1875 46.9583 1.85417 39.25 5.1875C31.5833 8.52083 24.8125 13.125 18.9375 19C13.1042 24.875 8.52083 31.6667 5.1875 39.375C1.85417 47.0417 0.1875 55.2292 0.1875 63.9375C0.1875 72.6458 1.85417 80.8542 5.1875 88.5625C8.52083 96.2292 13.125 103 19 108.875C24.875 114.75 31.6458 119.354 39.3125 122.688C47.0208 126.021 55.2292 127.688 63.9375 127.688ZM35.75 68.375C35.75 67.5 36.1042 66.6667 36.8125 65.875L72.125 21.5625C73.0417 20.4375 74.0208 19.8958 75.0625 19.9375C76.1458 19.9375 76.9792 20.375 77.5625 21.25C78.1875 22.0833 78.2292 23.1875 77.6875 24.5625L66 55.875H87.875C88.7083 55.875 89.3958 56.1458 89.9375 56.6875C90.5208 57.2292 90.8125 57.9167 90.8125 58.75C90.8125 59.5833 90.4583 60.4167 89.75 61.25L54.4375 105.562C53.5625 106.688 52.5833 107.25 51.5 107.25C50.4167 107.208 49.5625 106.75 48.9375 105.875C48.3542 105 48.3333 103.875 48.875 102.5L60.5625 71.1875H38.6875C37.8542 71.1875 37.1458 70.9375 36.5625 70.4375C36.0208 69.8958 35.75 69.2083 35.75 68.375Z" fill="white"/>
</svg>
