<svg xmlns="http://www.w3.org/2000/svg" width="24" height="24"><path style="stroke:none;fill-rule:nonzero;fill:#fff;fill-opacity:1" d="M12 23.063c1.633 0 3.168-.293 4.605-.883a12.29 12.29 0 0 0 3.82-2.438 11.482 11.482 0 0 0 2.59-3.586c.626-1.36.938-2.804.938-4.343 0-1.536-.312-2.981-.937-4.336a11.514 11.514 0 0 0-2.59-3.594 12.22 12.22 0 0 0-3.82-2.438 12.166 12.166 0 0 0-4.618-.883c-1.633 0-3.172.293-4.617.883a12.307 12.307 0 0 0-3.809 2.438A11.523 11.523 0 0 0 .985 7.477a10.187 10.187 0 0 0-.937 4.335c0 1.54.312 2.985.937 4.344a11.438 11.438 0 0 0 2.59 3.586 12.307 12.307 0 0 0 3.809 2.438c1.445.59 2.984.883 4.617.883ZM6.715 12.598c0-.157.066-.305.2-.442l6.62-7.82c.172-.2.356-.297.55-.29a.538.538 0 0 1 .47.235c.117.145.125.34.023.582l-2.191 5.528h4.101c.157 0 .285.046.387.14a.47.47 0 0 1 .164.367c0 .145-.066.293-.2.442l-6.62 7.816c-.164.2-.348.301-.551.301a.612.612 0 0 1-.48-.242c-.11-.156-.114-.356-.012-.598l2.191-5.523H7.266a.606.606 0 0 1-.399-.133.487.487 0 0 1-.152-.363Zm0 0"/></svg>