<svg width="128" height="128" viewBox="0 0 128 128" fill="none" xmlns="http://www.w3.org/2000/svg">
<path d="M63.9375 127.688C72.6458 127.688 80.8333 126.021 88.5 122.688C96.2083 119.354 103 114.75 108.875 108.875C114.75 103 119.354 96.2292 122.688 88.5625C126.021 80.8542 127.688 72.6458 127.688 63.9375C127.688 55.2292 126.021 47.0417 122.688 39.375C119.354 31.6667 114.75 24.875 108.875 19C103 13.125 96.2083 8.52083 88.5 5.1875C80.7917 1.85417 72.5833 0.1875 63.875 0.1875C55.1667 0.1875 46.9583 1.85417 39.25 5.1875C31.5833 8.52083 24.8125 13.125 18.9375 19C13.1042 24.875 8.52083 31.6667 5.1875 39.375C1.85417 47.0417 0.1875 55.2292 0.1875 63.9375C0.1875 72.6458 1.85417 80.8542 5.1875 88.5625C8.52083 96.2292 13.125 103 19 108.875C24.875 114.75 31.6458 119.354 39.3125 122.688C47.0208 126.021 55.2292 127.688 63.9375 127.688ZM22.3125 76.125L44 48.0625C45.2917 46.4792 46.6667 45.6875 48.125 45.6875C48.6667 45.6875 49.2292 45.7917 49.8125 46C50.3958 46.2083 51 46.4792 51.625 46.8125L79.6875 61.8125L101.125 50.25C102.417 49.5833 103.562 49.4792 104.562 49.9375C105.604 50.3542 106.271 51.0833 106.562 52.125C106.896 53.1667 106.625 54.2917 105.75 55.5L83.9375 83.625C82.6458 85.25 81.25 86.0625 79.75 86.0625C78.8333 86.0625 77.6667 85.6875 76.25 84.9375L48.1875 69.875L26.8125 81.5C25.6042 82.125 24.4583 82.25 23.375 81.875C22.3333 81.4583 21.6458 80.7292 21.3125 79.6875C20.9792 78.6042 21.3125 77.4167 22.3125 76.125Z" fill="white"/>
</svg>
