<svg xmlns="http://www.w3.org/2000/svg" width="24" height="24"><path style="stroke:none;fill-rule:nonzero;fill:#fff;fill-opacity:1" d="M4.887 23.3h14.215c1.226 0 2.144-.323 2.753-.976.618-.64.926-1.605.926-2.898V4.164c0-1.293-.308-2.258-.926-2.898-.609-.653-1.527-.977-2.753-.977H4.887c-1.227 0-2.149.324-2.766.977-.61.64-.914 1.605-.914 2.898v15.262c0 1.293.305 2.258.914 2.902.617.649 1.54.973 2.766.973Zm.023-2.01c-.586 0-1.035-.165-1.348-.49-.312-.335-.468-.823-.468-1.476V4.262c0-.649.156-1.137.469-1.461.312-.336.761-.5 1.347-.5h14.168c.578 0 1.024.164 1.336.5.32.324.48.812.48 1.46v15.063c0 .653-.16 1.14-.48 1.477-.312.324-.758.488-1.336.488Zm1.957-8.665c0 .156.051.29.153.387.109.101.238.148.386.148h3.973l-2.121 6.078c-.094.266-.09.48.012.649.109.168.261.254.457.265.195.004.375-.097.539-.316l6.421-8.598c.133-.168.2-.328.2-.488a.492.492 0 0 0-.164-.387.484.484 0 0 0-.375-.164h-3.973l2.121-6.074c.094-.266.086-.484-.023-.652a.496.496 0 0 0-.446-.25c-.195-.004-.375.097-.539.312l-6.422 8.602c-.132.16-.199.32-.199.488Zm0 0"/></svg>