<svg xmlns="http://www.w3.org/2000/svg" width="24" height="24"><path style="stroke:none;fill-rule:nonzero;fill:#fff;fill-opacity:1" d="M.023 11.8c0 1.552.309 3.009.926 4.368a11.494 11.494 0 0 0 2.578 3.598 12.156 12.156 0 0 0 3.82 2.414c1.446.59 2.993.883 4.641.883 1.649 0 3.196-.293 4.64-.883a11.975 11.975 0 0 0 3.821-2.414 11.327 11.327 0 0 0 2.578-3.598c.625-1.36.938-2.816.938-4.367 0-1.41-.258-2.742-.774-3.992a11.157 11.157 0 0 0-2.168-3.387c-.921-1-2-1.824-3.234-2.469A12.012 12.012 0 0 0 13.781.672c.117.164.211.344.281.543.07.187.106.39.106.605a1.873 1.873 0 0 1-.61 1.403c1.067.168 2.09.52 3.024 1.035a9.05 9.05 0 0 1 2.45 1.918 8.55 8.55 0 0 1 1.616 2.582c.395.972.594 2.004.586 3.043a8.074 8.074 0 0 1-.714 3.375 8.711 8.711 0 0 1-1.993 2.781 9.471 9.471 0 0 1-2.953 1.863 9.354 9.354 0 0 1-3.586.684 9.443 9.443 0 0 1-3.586-.684 9.445 9.445 0 0 1-2.953-1.863 8.986 8.986 0 0 1-1.992-2.781 8.074 8.074 0 0 1-.715-3.375c0-1.2.238-2.324.715-3.375A8.876 8.876 0 0 1 5.449 5.66a9.252 9.252 0 0 1 2.953-1.875 9.358 9.358 0 0 1 3.586-.687c.375 0 .696-.125.961-.371.258-.239.403-.567.399-.907.004-.34-.141-.668-.399-.906a1.362 1.362 0 0 0-.96-.375c-1.65 0-3.196.297-4.641.883a12.188 12.188 0 0 0-3.82 2.426A11.446 11.446 0 0 0 .948 7.434 10.444 10.444 0 0 0 .023 11.8Zm7.149.696a.44.44 0 0 0 .14.332.547.547 0 0 0 .364.133h3.691l-1.969 4.973c-.085.222-.078.402.024.539.094.136.25.218.422.222.187 0 .355-.09.504-.265l5.988-7.07c.055-.067.098-.133.129-.196a.531.531 0 0 0 .047-.203.422.422 0 0 0-.153-.328.5.5 0 0 0-.351-.133h-3.692l1.97-4.984c.085-.223.077-.399-.024-.532a.53.53 0 0 0-.434-.218c-.18-.008-.344.078-.492.254l-5.988 7.078a.956.956 0 0 0-.13.199.44.44 0 0 0-.046.2Zm0 0"/></svg>