<svg width="141" height="128" viewBox="0 0 141 128" fill="none" xmlns="http://www.w3.org/2000/svg">
<path d="M0.1875 34.875C0.1875 40.1667 1.75 45.3542 4.875 50.4375C8 55.5208 12.5208 60.125 18.4375 64.25C24.3542 68.375 31.5417 71.6667 40 74.125C48.5 76.5417 58.1042 77.75 68.8125 77.75C79.1042 77.75 88.6667 76.5 97.5 74C106.375 71.5 114.021 67.9167 120.438 63.25C116.646 61.5833 113.688 58.9583 111.562 55.375C106.896 59.9167 100.896 63.375 93.5625 65.75C86.2292 68.125 77.9792 69.3125 68.8125 69.3125C59.4792 69.3125 51.5417 68.25 45 66.125C38.5 64 33.2292 61.2917 29.1875 58C25.1458 54.7083 22.1875 51.2708 20.3125 47.6875C18.4792 44.1042 17.5625 40.8542 17.5625 37.9375C17.5625 35.0208 18.0208 32.4792 18.9375 30.3125C15.9792 28.6458 13.6042 26.3333 11.8125 23.375C10.0625 20.375 9.14583 17.1667 9.0625 13.75C3.14583 19.2917 0.1875 26.3333 0.1875 34.875ZM103.125 91.5C103.125 86.1667 102.146 80.4167 100.188 74.25C98.2708 68.0833 95.5833 61.875 92.125 55.625C88.6667 49.375 84.625 43.3958 80 37.6875C75.375 31.9792 70.3542 26.875 64.9375 22.375C59.5208 17.8333 53.9167 14.25 48.125 11.625C48.1667 11.875 48.1875 12.1458 48.1875 12.4375C48.1875 12.6875 48.1875 12.9375 48.1875 13.1875C48.1875 16.5625 47.3542 19.7708 45.6875 22.8125C50.2292 24.1875 54.6458 26.4167 58.9375 29.5C63.2708 32.5417 67.2917 36.2083 71 40.5C74.75 44.75 78.0208 49.375 80.8125 54.375C83.6458 59.3333 85.8542 64.4583 87.4375 69.75C89.0208 75.0417 89.8125 80.2292 89.8125 85.3125C89.8125 90.1875 88.9375 94.4792 87.1875 98.1875C85.4375 101.896 83.0625 104.812 80.0625 106.938C77.1042 109.021 73.7292 110.062 69.9375 110.062C70.3958 112.062 70.625 113.896 70.625 115.562C70.625 119.938 69.3125 123.875 66.6875 127.375C66.9792 127.417 67.2917 127.438 67.625 127.438C68 127.438 68.3542 127.438 68.6875 127.438C75.3542 127.438 81.2708 125.875 86.4375 122.75C91.6458 119.667 95.7292 115.438 98.6875 110.062C101.646 104.646 103.125 98.4583 103.125 91.5ZM107.5 7.4375C101.667 7.4375 95.8125 8.75 89.9375 11.375C84.1042 14 78.4583 17.5625 73 22.0625C67.5417 26.5625 62.4792 31.6875 57.8125 37.4375C53.1458 43.1458 49.0417 49.1458 45.5 55.4375C42 61.7292 39.2708 67.9792 37.3125 74.1875C35.3542 80.3542 34.375 86.125 34.375 91.5C34.375 95.4167 34.9167 99.25 36 103C37.4167 100.917 39.4167 99.25 42 98C44.5833 96.75 47.0208 96.0833 49.3125 96C48.7708 94.375 48.3542 92.6667 48.0625 90.875C47.7708 89.0833 47.625 87.2292 47.625 85.3125C47.625 79.7292 48.625 73.9583 50.625 68C52.625 62.0417 55.375 56.2917 58.875 50.75C62.4167 45.1667 66.4792 40.1667 71.0625 35.75C75.6875 31.2917 80.6042 27.7708 85.8125 25.1875C91.0625 22.5625 96.375 21.25 101.75 21.25C109.333 21.25 114.667 23.7917 117.75 28.875C120.958 26.7917 124.5 25.75 128.375 25.75C131.208 25.75 133.958 26.3542 136.625 27.5625C135.167 21.3125 131.854 16.3958 126.688 12.8125C121.562 9.22917 115.167 7.4375 107.5 7.4375ZM28.625 25.4375C30.875 25.4375 32.9167 24.8958 34.75 23.8125C36.625 22.7292 38.1042 21.2708 39.1875 19.4375C40.3125 17.5625 40.875 15.4792 40.875 13.1875C40.875 9.8125 39.6667 6.9375 37.25 4.5625C34.875 2.14583 32 0.9375 28.625 0.9375C25.2083 0.9375 22.2917 2.14583 19.875 4.5625C17.5 6.9375 16.3125 9.8125 16.3125 13.1875C16.3125 15.4792 16.8542 17.5625 17.9375 19.4375C19.0625 21.2708 20.5417 22.7292 22.375 23.8125C24.25 24.8958 26.3333 25.4375 28.625 25.4375ZM128.375 57.625C130.667 57.625 132.729 57.0833 134.562 56C136.438 54.875 137.917 53.3958 139 51.5625C140.083 49.6875 140.625 47.625 140.625 45.375C140.625 43.0833 140.062 41.0208 138.938 39.1875C137.854 37.3125 136.375 35.8333 134.5 34.75C132.667 33.625 130.625 33.0625 128.375 33.0625C126.125 33.0625 124.062 33.625 122.188 34.75C120.354 35.8333 118.875 37.3125 117.75 39.1875C116.667 41.0208 116.125 43.0833 116.125 45.375C116.125 47.625 116.667 49.6875 117.75 51.5625C118.875 53.3958 120.354 54.875 122.188 56C124.062 57.0833 126.125 57.625 128.375 57.625ZM51.0625 127.812C53.3125 127.812 55.3542 127.271 57.1875 126.188C59.0625 125.104 60.5417 123.625 61.625 121.75C62.75 119.917 63.3125 117.854 63.3125 115.562C63.3125 113.312 62.75 111.271 61.625 109.438C60.5417 107.562 59.0625 106.083 57.1875 105C55.3542 103.875 53.3125 103.312 51.0625 103.312C48.7708 103.312 46.6875 103.875 44.8125 105C42.9792 106.083 41.5208 107.562 40.4375 109.438C39.3542 111.271 38.8125 113.312 38.8125 115.562C38.8125 117.812 39.3542 119.854 40.4375 121.688C41.5208 123.562 42.9792 125.042 44.8125 126.125C46.6875 127.25 48.7708 127.812 51.0625 127.812Z" fill="white"/>
</svg>
