<svg xmlns="http://www.w3.org/2000/svg" width="24" height="24"><path style="stroke:none;fill-rule:nonzero;fill:#fff;fill-opacity:1" d="M12 23.063c1.633 0 3.168-.293 4.605-.883a12.29 12.29 0 0 0 3.82-2.438 11.482 11.482 0 0 0 2.59-3.586c.626-1.36.938-2.804.938-4.343 0-1.536-.312-2.981-.937-4.336a11.514 11.514 0 0 0-2.59-3.594 12.22 12.22 0 0 0-3.82-2.438 12.166 12.166 0 0 0-4.618-.883c-1.633 0-3.172.293-4.617.883a12.307 12.307 0 0 0-3.809 2.438A11.523 11.523 0 0 0 .985 7.477a10.187 10.187 0 0 0-.937 4.335c0 1.54.312 2.985.937 4.344a11.438 11.438 0 0 0 2.59 3.586 12.307 12.307 0 0 0 3.809 2.438c1.445.59 2.984.883 4.617.883Zm-3.176-5.239c-.61 0-1.07-.148-1.383-.441-.304-.293-.457-.735-.457-1.313V7.586c0-.594.153-1.04.457-1.332.313-.293.782-.441 1.407-.441h6.293c.625 0 1.09.148 1.394.453.313.293.469.734.469 1.324v6.394c0 .274-.055.493-.164.664-.11.16-.223.297-.34.407-.352.332-.504.683-.457 1.058.047.375.254.633.621.774.098.039.18.105.234.187a.41.41 0 0 1 .106.278.45.45 0 0 1-.145.335.529.529 0 0 1-.359.137Zm.059-.949h6.351c-.28-.516-.304-1.055-.07-1.621a.221.221 0 0 0-.07.012H8.93c-.282 0-.508.074-.68.218a.721.721 0 0 0-.258.575c0 .257.074.46.223.605.156.14.379.211.668.211Zm-.188-2.547c.11 0 .2-.035.27-.101a.31.31 0 0 0 .117-.243V7.102a.292.292 0 0 0-.117-.23.36.36 0 0 0-.27-.11.36.36 0 0 0-.258.097.339.339 0 0 0-.093.243v6.882c0 .098.031.176.094.243.066.066.16.101.257.101Zm0 0"/></svg>