<?xml version="1.0" encoding="UTF-8"?>
<svg xmlns="http://www.w3.org/2000/svg" xmlns:xlink="http://www.w3.org/1999/xlink" width="24" height="27" viewBox="0 0 24 27" version="1.1">
<g id="surface1">
<path style=" stroke:none;fill-rule:nonzero;fill:rgb(100%,100%,100%);fill-opacity:1;" d="M 19.898438 18.035156 L 19.898438 4.816406 C 19.898438 3.699219 19.621094 2.859375 19.066406 2.296875 C 18.511719 1.734375 17.683594 1.453125 16.582031 1.453125 L 7.417969 1.453125 C 6.066406 1.453125 5.144531 1.902344 4.652344 2.800781 Z M 4.101562 8.648438 L 4.101562 25.160156 C 4.101562 25.613281 4.210938 25.964844 4.429688 26.214844 C 4.648438 26.464844 4.953125 26.589844 5.34375 26.589844 C 5.625 26.589844 5.890625 26.492188 6.140625 26.296875 C 6.390625 26.109375 6.78125 25.757812 7.3125 25.242188 L 11.894531 20.730469 C 11.964844 20.652344 12.035156 20.652344 12.105469 20.730469 L 16.6875 25.242188 C 17.21875 25.75 17.605469 26.101562 17.847656 26.296875 C 18.097656 26.492188 18.367188 26.589844 18.65625 26.589844 C 19.046875 26.589844 19.351562 26.464844 19.570312 26.214844 C 19.789062 25.964844 19.898438 25.613281 19.898438 25.160156 L 19.898438 24.46875 Z M 22.03125 24.574219 C 22.203125 24.753906 22.414062 24.84375 22.664062 24.84375 C 22.921875 24.84375 23.136719 24.753906 23.308594 24.574219 C 23.480469 24.394531 23.566406 24.179688 23.566406 23.929688 C 23.566406 23.6875 23.480469 23.476562 23.308594 23.296875 L 2.589844 2.566406 C 2.410156 2.394531 2.195312 2.308594 1.945312 2.308594 C 1.695312 2.300781 1.480469 2.386719 1.300781 2.566406 C 1.128906 2.738281 1.042969 2.953125 1.042969 3.210938 C 1.042969 3.460938 1.128906 3.671875 1.300781 3.84375 Z M 22.03125 24.574219 "/>
</g>
</svg>
