<svg width="140" height="117" viewBox="0 0 140 117" fill="none" xmlns="http://www.w3.org/2000/svg">
<path d="M0.9375 106.5C0.9375 109.083 1.64583 110.917 3.0625 112C4.47917 113.083 6.125 113.625 8 113.625C9.04167 113.625 10.0625 113.354 11.0625 112.812C12.0625 112.312 13.1458 111.688 14.3125 110.938C17.7708 108.604 21.5417 106.75 25.625 105.375C29.75 104.042 34 103.396 38.375 103.438C42.875 103.479 47.2708 104.333 51.5625 106C55.8958 107.667 59.8125 110.188 63.3125 113.562C64.6875 114.812 65.9167 115.667 67 116.125C68.0833 116.625 69.2083 116.875 70.375 116.875C71.5 116.875 72.6042 116.625 73.6875 116.125C74.8125 115.667 76.0417 114.812 77.375 113.562C80.875 110.188 84.7708 107.667 89.0625 106C93.3958 104.333 97.8333 103.479 102.375 103.438C106.708 103.396 110.917 104.042 115 105.375C119.125 106.75 122.917 108.604 126.375 110.938C127.542 111.688 128.625 112.312 129.625 112.812C130.625 113.354 131.667 113.625 132.75 113.625C134.583 113.625 136.208 113.083 137.625 112C139.042 110.917 139.75 109.083 139.75 106.5V21.6875C139.75 21.1458 139.708 20.6458 139.625 20.1875C139.542 19.7292 139.333 19.2292 139 18.6875C137.167 15.4792 134.438 12.5208 130.812 9.8125C127.188 7.10417 122.917 4.9375 118 3.3125C113.125 1.64583 107.833 0.8125 102.125 0.8125C95.2917 0.8125 89.0625 2.04167 83.4375 4.5C77.8542 6.91667 73.5 10.0625 70.375 13.9375C67.2083 10.0625 62.8125 6.91667 57.1875 4.5C51.6042 2.04167 45.4167 0.8125 38.625 0.8125C32.875 0.8125 27.5417 1.64583 22.625 3.3125C17.75 4.9375 13.5 7.10417 9.875 9.8125C6.29167 12.5208 3.5625 15.4792 1.6875 18.6875C1.35417 19.2292 1.14583 19.7292 1.0625 20.1875C0.979167 20.6458 0.9375 21.1458 0.9375 21.6875V106.5ZM11 101.188V23.125C12.6667 20.6667 14.9375 18.5208 17.8125 16.6875C20.6875 14.8542 23.8958 13.4375 27.4375 12.4375C31.0208 11.3958 34.75 10.875 38.625 10.875C44.5417 10.875 49.9167 12.0208 54.75 14.3125C59.5833 16.6042 63.1042 19.6667 65.3125 23.5V102.25C63.1875 100.542 60.7083 99.0208 57.875 97.6875C55.0833 96.3542 52.0417 95.3125 48.75 94.5625C45.4583 93.7708 42.0833 93.375 38.625 93.375C33.1667 93.375 28.0208 94.0833 23.1875 95.5C18.3542 96.9167 14.2917 98.8125 11 101.188ZM75.375 102.25V23.5C77.5833 19.6667 81.1042 16.6042 85.9375 14.3125C90.7708 12.0208 96.1667 10.875 102.125 10.875C105.958 10.875 109.646 11.3958 113.188 12.4375C116.771 13.4375 120 14.8542 122.875 16.6875C125.75 18.5208 128.021 20.6667 129.688 23.125V101.188C126.396 98.8125 122.333 96.9167 117.5 95.5C112.667 94.0833 107.542 93.375 102.125 93.375C98.625 93.375 95.2292 93.7708 91.9375 94.5625C88.6875 95.3125 85.6458 96.3542 82.8125 97.6875C79.9792 99.0208 77.5 100.542 75.375 102.25Z" fill="white"/>
</svg>
