<svg xmlns="http://www.w3.org/2000/svg" width="24" height="24"><path style="stroke:none;fill-rule:nonzero;fill:#fff;fill-opacity:1" d="M4.848 23.645H22.19c.297 0 .547-.082.75-.247.215-.164.32-.355.32-.585 0-.364-.304-.688-.75-.801-.562-.176-.968-.457-1.218-.856-.238-.39-.297-.816-.172-1.293.125-.476.465-.933 1.016-1.375.25-.191.5-.433.75-.726s.375-.7.375-1.219V4.593c0-1.085-.348-1.898-1.043-2.448-.688-.547-1.723-.825-3.106-.825H4.887c-1.383 0-2.422.278-3.117.825C1.082 2.687.738 3.504.738 4.594v15.832c0 1.07.344 1.87 1.032 2.406.687.543 1.71.813 3.078.813Zm-1.953-6.02v-13c0-.52.171-.922.52-1.2C3.772 3.142 4.292 3 4.98 3h14.024c.695 0 1.219.14 1.566.426.36.277.535.68.535 1.199v11.688c0 .59-.386.886-1.164.886H5.074a5.897 5.897 0 0 0-1.203.113 3.909 3.909 0 0 0-.976.313Zm2.074 4.344c-.68 0-1.196-.137-1.555-.407-.348-.269-.52-.652-.52-1.144 0-.465.196-.836.586-1.117.403-.285.938-.426 1.61-.426h13.742c.168 0 .324-.012.469-.031-.313.543-.453 1.082-.418 1.625.047.55.246 1.047.605 1.5Zm-.496-3.875h1.754v-15.5H4.473Zm0 0"/></svg>