<svg width="128" height="128" viewBox="0 0 128 128" fill="none" xmlns="http://www.w3.org/2000/svg">
<path d="M63.9375 127.625C72.6458 127.625 80.8333 125.958 88.5 122.625C96.2083 119.292 103 114.688 108.875 108.812C114.75 102.938 119.354 96.1667 122.688 88.5C126.021 80.7917 127.688 72.5833 127.688 63.875C127.688 55.1667 126.021 46.9792 122.688 39.3125C119.354 31.6042 114.75 24.8125 108.875 18.9375C103 13.0625 96.2083 8.45833 88.5 5.125C80.7917 1.79167 72.5833 0.125 63.875 0.125C55.1667 0.125 46.9583 1.79167 39.25 5.125C31.5833 8.45833 24.8125 13.0625 18.9375 18.9375C13.1042 24.8125 8.52083 31.6042 5.1875 39.3125C1.85417 46.9792 0.1875 55.1667 0.1875 63.875C0.1875 72.5833 1.85417 80.7917 5.1875 88.5C8.52083 96.1667 13.125 102.938 19 108.812C24.875 114.688 31.6458 119.292 39.3125 122.625C47.0208 125.958 55.2292 127.625 63.9375 127.625ZM63.9375 117C56.5625 117 49.6667 115.625 43.25 112.875C36.8333 110.125 31.1875 106.333 26.3125 101.5C21.4792 96.625 17.6875 90.9792 14.9375 84.5625C12.2292 78.1458 10.875 71.25 10.875 63.875C10.875 56.5 12.2292 49.6042 14.9375 43.1875C17.6875 36.7708 21.4792 31.125 26.3125 26.25C31.1458 21.375 36.7708 17.5833 43.1875 14.875C49.6042 12.125 56.5 10.75 63.875 10.75C71.25 10.75 78.1458 12.125 84.5625 14.875C91.0208 17.5833 96.6667 21.375 101.5 26.25C106.375 31.125 110.188 36.7708 112.938 43.1875C115.688 49.6042 117.062 56.5 117.062 63.875C117.062 71.25 115.688 78.1458 112.938 84.5625C110.229 90.9792 106.438 96.625 101.562 101.5C96.6875 106.333 91.0417 110.125 84.625 112.875C78.2083 115.625 71.3125 117 63.9375 117ZM47.5 96.9375H87.25C87.9167 96.9375 88.5 96.6875 89 96.1875C89.5417 95.6458 89.8125 95.0208 89.8125 94.3125C89.8125 93.7708 89.6458 93.2708 89.3125 92.8125C88.9792 92.3125 88.5833 91.9792 88.125 91.8125C86.1667 91.0208 85.0625 89.6042 84.8125 87.5625C84.5625 85.4792 85.3542 83.5208 87.1875 81.6875C87.8125 81.0625 88.3958 80.3125 88.9375 79.4375C89.5208 78.5625 89.8125 77.3542 89.8125 75.8125V40.625C89.8125 37.4167 89 35 87.375 33.375C85.7917 31.7083 83.3958 30.875 80.1875 30.875H47.625C44.4167 30.875 42 31.6875 40.375 33.3125C38.7917 34.9375 38 37.375 38 40.625V87.3125C38 90.4792 38.7917 92.875 40.375 94.5C41.9583 96.125 44.3333 96.9375 47.5 96.9375ZM47.8125 91.75C46.3125 91.75 45.1667 91.3542 44.375 90.5625C43.5833 89.7708 43.1875 88.6667 43.1875 87.25C43.1875 85.9167 43.625 84.8542 44.5 84.0625C45.4167 83.2708 46.6042 82.875 48.0625 82.875H79.5C79.6667 82.875 79.8125 82.875 79.9375 82.875C80.0625 82.8333 80.1875 82.8125 80.3125 82.8125C79.1042 85.8958 79.2292 88.875 80.6875 91.75H47.8125ZM46.8125 77.6875C45.6042 77.6875 45 77.0625 45 75.8125V38C45 36.75 45.6042 36.125 46.8125 36.125C47.3958 36.125 47.875 36.3125 48.25 36.6875C48.625 37.0625 48.8125 37.5 48.8125 38V75.8125C48.8125 76.3542 48.625 76.8125 48.25 77.1875C47.875 77.5208 47.3958 77.6875 46.8125 77.6875Z" fill="white"/>
</svg>
