<?xml version="1.0" encoding="UTF-8"?>
<svg xmlns="http://www.w3.org/2000/svg" xmlns:xlink="http://www.w3.org/1999/xlink" width="24" height="25.5" viewBox="0 0 24 25.5" version="1.1">
<g id="surface1">
<path style=" stroke:none;fill-rule:nonzero;fill:rgb(100%,100%,100%);fill-opacity:1;" d="M 12 24.492188 C 13.632812 24.492188 15.167969 24.179688 16.605469 23.554688 C 18.050781 22.929688 19.324219 22.066406 20.425781 20.964844 C 21.527344 19.863281 22.390625 18.59375 23.015625 17.15625 C 23.640625 15.710938 23.953125 14.171875 23.953125 12.539062 C 23.953125 10.90625 23.640625 9.371094 23.015625 7.933594 C 22.390625 6.488281 21.527344 5.214844 20.425781 4.113281 C 19.324219 3.011719 18.050781 2.148438 16.605469 1.523438 C 15.160156 0.898438 13.621094 0.585938 11.988281 0.585938 C 10.355469 0.585938 8.816406 0.898438 7.371094 1.523438 C 5.933594 2.148438 4.664062 3.011719 3.5625 4.113281 C 2.46875 5.214844 1.609375 6.488281 0.984375 7.933594 C 0.359375 9.371094 0.046875 10.90625 0.046875 12.539062 C 0.046875 14.171875 0.359375 15.710938 0.984375 17.15625 C 1.609375 18.59375 2.472656 19.863281 3.574219 20.964844 C 4.675781 22.066406 5.945312 22.929688 7.382812 23.554688 C 8.828125 24.179688 10.367188 24.492188 12 24.492188 Z M 12 22.5 C 10.617188 22.5 9.324219 22.242188 8.121094 21.726562 C 6.917969 21.210938 5.859375 20.5 4.945312 19.59375 C 4.039062 18.679688 3.328125 17.621094 2.8125 16.417969 C 2.304688 15.214844 2.050781 13.921875 2.050781 12.539062 C 2.050781 11.15625 2.304688 9.863281 2.8125 8.660156 C 3.328125 7.457031 4.039062 6.398438 4.945312 5.484375 C 5.851562 4.570312 6.90625 3.859375 8.109375 3.351562 C 9.3125 2.835938 10.605469 2.578125 11.988281 2.578125 C 13.371094 2.578125 14.664062 2.835938 15.867188 3.351562 C 17.078125 3.859375 18.136719 4.570312 19.042969 5.484375 C 19.957031 6.398438 20.671875 7.457031 21.1875 8.660156 C 21.703125 9.863281 21.960938 11.15625 21.960938 12.539062 C 21.960938 13.921875 21.703125 15.214844 21.1875 16.417969 C 20.679688 17.621094 19.96875 18.679688 19.054688 19.59375 C 18.140625 20.5 17.082031 21.210938 15.878906 21.726562 C 14.675781 22.242188 13.382812 22.5 12 22.5 Z M 8.917969 18.738281 L 16.371094 18.738281 C 16.496094 18.738281 16.605469 18.691406 16.699219 18.597656 C 16.800781 18.496094 16.851562 18.378906 16.851562 18.246094 C 16.851562 18.144531 16.820312 18.050781 16.757812 17.964844 C 16.695312 17.871094 16.621094 17.808594 16.535156 17.777344 C 16.167969 17.628906 15.960938 17.363281 15.914062 16.980469 C 15.867188 16.589844 16.015625 16.222656 16.359375 15.878906 C 16.476562 15.761719 16.585938 15.621094 16.6875 15.457031 C 16.796875 15.292969 16.851562 15.066406 16.851562 14.777344 L 16.851562 8.179688 C 16.851562 7.578125 16.699219 7.125 16.394531 6.820312 C 16.097656 6.507812 15.648438 6.351562 15.046875 6.351562 L 8.941406 6.351562 C 8.339844 6.351562 7.886719 6.503906 7.582031 6.808594 C 7.285156 7.113281 7.136719 7.570312 7.136719 8.179688 L 7.136719 16.933594 C 7.136719 17.527344 7.285156 17.976562 7.582031 18.28125 C 7.878906 18.585938 8.324219 18.738281 8.917969 18.738281 Z M 8.976562 17.765625 C 8.695312 17.765625 8.480469 17.691406 8.332031 17.542969 C 8.183594 17.394531 8.109375 17.1875 8.109375 16.921875 C 8.109375 16.671875 8.191406 16.472656 8.355469 16.324219 C 8.527344 16.175781 8.75 16.101562 9.023438 16.101562 L 14.917969 16.101562 C 14.949219 16.101562 14.976562 16.101562 15 16.101562 C 15.023438 16.09375 15.046875 16.089844 15.070312 16.089844 C 14.84375 16.667969 14.867188 17.226562 15.140625 17.765625 Z M 8.789062 15.128906 C 8.5625 15.128906 8.449219 15.011719 8.449219 14.777344 L 8.449219 7.6875 C 8.449219 7.453125 8.5625 7.335938 8.789062 7.335938 C 8.898438 7.335938 8.988281 7.371094 9.058594 7.441406 C 9.128906 7.511719 9.164062 7.59375 9.164062 7.6875 L 9.164062 14.777344 C 9.164062 14.878906 9.128906 14.964844 9.058594 15.035156 C 8.988281 15.097656 8.898438 15.128906 8.789062 15.128906 Z M 8.789062 15.128906 "/>
</g>
</svg>
