<svg width="16" height="17" viewBox="0 0 16 17" fill="none" xmlns="http://www.w3.org/2000/svg">
<path d="M8 16.3281C9.08854 16.3281 10.112 16.1198 11.0703 15.7031C12.0339 15.2865 12.8828 14.7109 13.6172 13.9766C14.3516 13.2422 14.9271 12.3958 15.3438 11.4375C15.7604 10.474 15.9688 9.44792 15.9688 8.35938C15.9688 7.27083 15.7604 6.2474 15.3438 5.28906C14.9271 4.32552 14.3516 3.47656 13.6172 2.74219C12.8828 2.00781 12.0339 1.43229 11.0703 1.01562C10.1068 0.598958 9.08073 0.390625 7.99219 0.390625C6.90365 0.390625 5.8776 0.598958 4.91406 1.01562C3.95573 1.43229 3.10938 2.00781 2.375 2.74219C1.64583 3.47656 1.07292 4.32552 0.65625 5.28906C0.239583 6.2474 0.03125 7.27083 0.03125 8.35938C0.03125 9.44792 0.239583 10.474 0.65625 11.4375C1.07292 12.3958 1.64844 13.2422 2.38281 13.9766C3.11719 14.7109 3.96354 15.2865 4.92188 15.7031C5.88542 16.1198 6.91146 16.3281 8 16.3281ZM8 15C7.07812 15 6.21615 14.8281 5.41406 14.4844C4.61198 14.1406 3.90625 13.6667 3.29688 13.0625C2.69271 12.4531 2.21875 11.7474 1.875 10.9453C1.53646 10.1432 1.36719 9.28125 1.36719 8.35938C1.36719 7.4375 1.53646 6.57552 1.875 5.77344C2.21875 4.97135 2.69271 4.26562 3.29688 3.65625C3.90104 3.04688 4.60417 2.57292 5.40625 2.23438C6.20833 1.89062 7.07031 1.71875 7.99219 1.71875C8.91406 1.71875 9.77604 1.89062 10.5781 2.23438C11.3854 2.57292 12.0911 3.04688 12.6953 3.65625C13.3047 4.26562 13.7812 4.97135 14.125 5.77344C14.4688 6.57552 14.6406 7.4375 14.6406 8.35938C14.6406 9.28125 14.4688 10.1432 14.125 10.9453C13.7865 11.7474 13.3125 12.4531 12.7031 13.0625C12.0938 13.6667 11.388 14.1406 10.5859 14.4844C9.78385 14.8281 8.92188 15 8 15ZM5.67969 12.4922C5.78385 12.4922 5.8776 12.4609 5.96094 12.3984C6.04948 12.3307 6.18229 12.2083 6.35938 12.0312L7.96094 10.4531C7.98177 10.4271 8.00521 10.4271 8.03125 10.4531L9.63281 12.0312C9.8099 12.2083 9.9401 12.3307 10.0234 12.3984C10.112 12.4609 10.2057 12.4922 10.3047 12.4922C10.4349 12.4922 10.5391 12.4505 10.6172 12.3672C10.6953 12.2786 10.7344 12.1562 10.7344 12V5.42188C10.7344 5.04167 10.6354 4.7526 10.4375 4.55469C10.2448 4.35677 9.96094 4.25781 9.58594 4.25781H6.40625C6.02604 4.25781 5.73958 4.35677 5.54688 4.55469C5.35417 4.7526 5.25781 5.04167 5.25781 5.42188V12C5.25781 12.1562 5.29427 12.2786 5.36719 12.3672C5.44531 12.4505 5.54948 12.4922 5.67969 12.4922Z" fill="white"/>
</svg>
