<svg width="16" height="17" viewBox="0 0 16 17" fill="none" xmlns="http://www.w3.org/2000/svg">
<path d="M8 16.3359C9.08854 16.3359 10.112 16.1276 11.0703 15.7109C12.0339 15.2943 12.8828 14.7188 13.6172 13.9844C14.3516 13.25 14.9271 12.4036 15.3438 11.4453C15.7604 10.4818 15.9688 9.45573 15.9688 8.36719C15.9688 7.27865 15.7604 6.25521 15.3438 5.29688C14.9271 4.33333 14.3516 3.48438 13.6172 2.75C12.8828 2.01562 12.0339 1.4401 11.0703 1.02344C10.1068 0.606771 9.08073 0.398438 7.99219 0.398438C6.90365 0.398438 5.8776 0.606771 4.91406 1.02344C3.95573 1.4401 3.10938 2.01562 2.375 2.75C1.64583 3.48438 1.07292 4.33333 0.65625 5.29688C0.239583 6.25521 0.03125 7.27865 0.03125 8.36719C0.03125 9.45573 0.239583 10.4818 0.65625 11.4453C1.07292 12.4036 1.64844 13.25 2.38281 13.9844C3.11719 14.7188 3.96354 15.2943 4.92188 15.7109C5.88542 16.1276 6.91146 16.3359 8 16.3359ZM3.40625 11.8594V5.5625C3.40625 5.41667 3.44531 5.30469 3.52344 5.22656C3.60677 5.14844 3.72396 5.10938 3.875 5.10938H4.57812C4.72396 5.10938 4.83594 5.14844 4.91406 5.22656C4.9974 5.30469 5.03906 5.41667 5.03906 5.5625V11.8594C5.03906 12.0052 4.9974 12.1172 4.91406 12.1953C4.83594 12.2734 4.72396 12.3125 4.57812 12.3125H3.875C3.72396 12.3125 3.60677 12.2734 3.52344 12.1953C3.44531 12.1172 3.40625 12.0052 3.40625 11.8594ZM5.57031 11.8594V6.83594C5.57031 6.52344 5.72396 6.36719 6.03125 6.36719H7.54688C7.69792 6.36719 7.8099 6.41146 7.88281 6.5C7.95573 6.58333 7.99219 6.69531 7.99219 6.83594V11.8594C7.99219 12.0052 7.95573 12.1172 7.88281 12.1953C7.8099 12.2734 7.69792 12.3125 7.54688 12.3125H6.03125C5.72396 12.3125 5.57031 12.1615 5.57031 11.8594ZM6.14844 11.2109C6.14844 11.3828 6.22917 11.4688 6.39062 11.4688H7.19531C7.35677 11.4688 7.4375 11.3828 7.4375 11.2109C7.4375 11.0495 7.35677 10.9688 7.19531 10.9688H6.39062C6.22917 10.9688 6.14844 11.0495 6.14844 11.2109ZM6.14844 7.48438C6.14844 7.54688 6.16927 7.60417 6.21094 7.65625C6.25781 7.70312 6.31771 7.72656 6.39062 7.72656H7.19531C7.26823 7.72656 7.32552 7.70052 7.36719 7.64844C7.41406 7.59635 7.4375 7.54167 7.4375 7.48438C7.4375 7.41146 7.41406 7.35417 7.36719 7.3125C7.32552 7.26562 7.26823 7.24219 7.19531 7.24219H6.39062C6.32292 7.24219 6.26562 7.26562 6.21875 7.3125C6.17188 7.35417 6.14844 7.41146 6.14844 7.48438ZM8.54688 11.8594V4.53906C8.54688 4.23177 8.70052 4.07812 9.00781 4.07812H9.91406C10.2214 4.07812 10.375 4.23177 10.375 4.53906V5.33594L11 5.17969C11.1406 5.14323 11.2552 5.15885 11.3438 5.22656C11.4375 5.29427 11.5 5.40104 11.5312 5.54688L12.7891 11.625C12.8151 11.7708 12.7969 11.8906 12.7344 11.9844C12.6719 12.0781 12.5703 12.138 12.4297 12.1641L11.8438 12.3125C11.7031 12.3438 11.5859 12.3281 11.4922 12.2656C11.3984 12.2031 11.3385 12.1016 11.3125 11.9609L10.375 7.46094V11.8594C10.375 12.1615 10.2214 12.3125 9.91406 12.3125H9.00781C8.70052 12.3125 8.54688 12.1615 8.54688 11.8594Z" fill="white"/>
</svg>
