<svg width="128" height="128" viewBox="0 0 128 128" fill="none" xmlns="http://www.w3.org/2000/svg">
<path d="M63.9375 127.625C72.6458 127.625 80.8333 125.958 88.5 122.625C96.2083 119.292 103 114.688 108.875 108.812C114.75 102.938 119.354 96.1667 122.688 88.5C126.021 80.7917 127.688 72.5833 127.688 63.875C127.688 55.1667 126.021 46.9792 122.688 39.3125C119.354 31.6042 114.75 24.8125 108.875 18.9375C103 13.0625 96.2083 8.45833 88.5 5.125C80.7917 1.79167 72.5833 0.125 63.875 0.125C55.1667 0.125 46.9583 1.79167 39.25 5.125C31.5833 8.45833 24.8125 13.0625 18.9375 18.9375C13.1042 24.8125 8.52083 31.6042 5.1875 39.3125C1.85417 46.9792 0.1875 55.1667 0.1875 63.875C0.1875 72.5833 1.85417 80.7917 5.1875 88.5C8.52083 96.1667 13.125 102.938 19 108.812C24.875 114.688 31.6458 119.292 39.3125 122.625C47.0208 125.958 55.2292 127.625 63.9375 127.625ZM63.9375 117C56.5625 117 49.6667 115.625 43.25 112.875C36.8333 110.125 31.1875 106.333 26.3125 101.5C21.4792 96.625 17.6875 90.9792 14.9375 84.5625C12.2292 78.1458 10.875 71.25 10.875 63.875C10.875 56.5 12.2292 49.6042 14.9375 43.1875C17.6875 36.7708 21.4792 31.125 26.3125 26.25C31.1458 21.375 36.7708 17.5833 43.1875 14.875C49.6042 12.125 56.5 10.75 63.875 10.75C71.25 10.75 78.1458 12.125 84.5625 14.875C91.0208 17.5833 96.6667 21.375 101.5 26.25C106.375 31.125 110.188 36.7708 112.938 43.1875C115.688 49.6042 117.062 56.5 117.062 63.875C117.062 71.25 115.688 78.1458 112.938 84.5625C110.229 90.9792 106.438 96.625 101.562 101.5C96.6875 106.333 91.0417 110.125 84.625 112.875C78.2083 115.625 71.3125 117 63.9375 117ZM45.375 96.9375C46.2083 96.9375 46.9583 96.6875 47.625 96.1875C48.3333 95.6458 49.3958 94.6667 50.8125 93.25L63.625 80.625C63.7917 80.4167 63.9792 80.4167 64.1875 80.625L77 93.25C78.4167 94.6667 79.4583 95.6458 80.125 96.1875C80.8333 96.6875 81.5833 96.9375 82.375 96.9375C83.4167 96.9375 84.25 96.6042 84.875 95.9375C85.5 95.2292 85.8125 94.25 85.8125 93V40.375C85.8125 37.3333 85.0208 35.0208 83.4375 33.4375C81.8958 31.8542 79.625 31.0625 76.625 31.0625H51.1875C48.1458 31.0625 45.8542 31.8542 44.3125 33.4375C42.7708 35.0208 42 37.3333 42 40.375V93C42 94.25 42.2917 95.2292 42.875 95.9375C43.5 96.6042 44.3333 96.9375 45.375 96.9375Z" fill="white"/>
</svg>
