<svg width="18" height="15" viewBox="0 0 18 15" fill="none" xmlns="http://www.w3.org/2000/svg">
<path d="M4.40625 0.1875C3.83333 0.1875 3.26562 0.273438 2.70312 0.445312C2.14583 0.617188 1.63802 0.864583 1.17969 1.1875C0.721354 1.51042 0.359375 1.90365 0.09375 2.36719C0.046875 2.44531 0.0182292 2.52083 0.0078125 2.59375C0.00260417 2.66146 0 2.76823 0 2.91406V13.9375C0 14.1198 0.0546875 14.2604 0.164062 14.3594C0.273438 14.4635 0.424479 14.5156 0.617188 14.5156C0.710938 14.5156 0.799479 14.5 0.882812 14.4688C0.971354 14.4375 1.05208 14.3906 1.125 14.3281C1.61979 13.9062 2.17969 13.5859 2.80469 13.3672C3.42969 13.1536 4.06771 13.0469 4.71875 13.0469C5.125 13.0469 5.51823 13.0911 5.89844 13.1797C6.27865 13.2734 6.63802 13.4036 6.97656 13.5703C7.3151 13.7422 7.6224 13.9479 7.89844 14.1875C7.98177 14.2604 8.07292 14.2969 8.17188 14.2969C8.26042 14.2969 8.33333 14.2656 8.39062 14.2031C8.45312 14.1458 8.48438 14.0677 8.48438 13.9688V2.41406C8.48438 2.3099 8.47396 2.23438 8.45312 2.1875C8.4375 2.14062 8.39323 2.0625 8.32031 1.95312C7.9349 1.40104 7.39062 0.96875 6.6875 0.65625C5.98958 0.34375 5.22917 0.1875 4.40625 0.1875ZM13.5859 0.1875C12.763 0.1875 12 0.34375 11.2969 0.65625C10.599 0.96875 10.0573 1.40104 9.67188 1.95312C9.59896 2.0625 9.55208 2.14062 9.53125 2.1875C9.51562 2.23438 9.50781 2.3099 9.50781 2.41406V13.9688C9.50781 14.0677 9.53646 14.1458 9.59375 14.2031C9.65625 14.2656 9.73177 14.2969 9.82031 14.2969C9.91927 14.2969 10.0104 14.2604 10.0938 14.1875C10.3698 13.9479 10.6771 13.7422 11.0156 13.5703C11.3542 13.4036 11.7135 13.2734 12.0938 13.1797C12.474 13.0911 12.8672 13.0469 13.2734 13.0469C13.9245 13.0469 14.5625 13.1536 15.1875 13.3672C15.8125 13.5859 16.3724 13.9062 16.8672 14.3281C16.9401 14.3906 17.0182 14.4375 17.1016 14.4688C17.1901 14.5 17.2812 14.5156 17.375 14.5156C17.5677 14.5156 17.7188 14.4635 17.8281 14.3594C17.9375 14.2604 17.9922 14.1198 17.9922 13.9375V2.91406C17.9922 2.76823 17.987 2.65885 17.9766 2.58594C17.9714 2.51302 17.9453 2.4401 17.8984 2.36719C17.6328 1.90365 17.2708 1.51042 16.8125 1.1875C16.3542 0.864583 15.8438 0.617188 15.2812 0.445312C14.724 0.273438 14.1589 0.1875 13.5859 0.1875Z" fill="white"/>
</svg>
