<svg xmlns="http://www.w3.org/2000/svg" width="24" height="24"><path style="stroke:none;fill-rule:nonzero;fill:#fff;fill-opacity:1" d="M19.898 16.031V4.281c0-.992-.277-1.738-.832-2.242-.554-.496-1.382-.746-2.484-.746H7.418c-1.352 0-2.273.398-2.766 1.195ZM4.102 7.688v14.675c0 .403.109.715.328.938.218.222.523.336.914.336.281 0 .547-.09.797-.262.25-.168.64-.48 1.171-.938l4.583-4.011c.07-.07.14-.07.21 0l4.582 4.012c.532.453.918.765 1.16.937.25.172.52.262.81.262.39 0 .695-.114.913-.336.22-.223.328-.535.328-.938v-.613Zm17.93 14.156c.171.16.382.238.632.238a.907.907 0 0 0 .645-.238.758.758 0 0 0 0-1.137L2.589 2.281a.994.994 0 0 0-.644-.23.904.904 0 0 0-.644.23.732.732 0 0 0-.258.574c0 .223.086.407.258.563Zm0 0"/></svg>