<svg xmlns="http://www.w3.org/2000/svg" width="24" height="24"><path style="stroke:none;fill-rule:nonzero;fill:#fff;fill-opacity:1" d="M4.887 23.414h14.215c1.226 0 2.144-.324 2.753-.977.618-.64.926-1.609.926-2.902V4.273c0-1.289-.308-2.257-.926-2.898-.609-.652-1.527-.977-2.753-.977H4.887c-1.227 0-2.149.329-2.766.977-.61.64-.914 1.61-.914 2.898v15.262c0 1.293.305 2.262.914 2.902.617.653 1.54.977 2.766.977Zm.023-2.012c-.586 0-1.035-.168-1.348-.504-.312-.324-.468-.812-.468-1.46V4.374c0-.648.156-1.137.469-1.465.312-.332.761-.496 1.347-.496h14.168c.578 0 1.024.164 1.336.496.32.328.48.817.48 1.465v15.063c0 .648-.16 1.136-.48 1.46-.312.336-.758.5-1.336.5ZM8.531 18.5c.153 0 .301-.05.422-.148.133-.11.332-.305.598-.59l2.402-2.524c.031-.043.067-.043.106 0l2.402 2.524c.266.285.46.48.586.59.121.093.27.148.422.148a.602.602 0 0 0 .469-.2c.117-.144.175-.34.175-.585V7.188c0-.61-.148-1.075-.445-1.387-.29-.317-.715-.477-1.277-.477H9.62c-.57 0-1 .16-1.289.477-.289.312-.434.777-.434 1.386v10.524c0 .25.055.445.165.586.12.137.292.21.468.203Zm0 0"/></svg>