<svg width="24" height="17" viewBox="0 0 24 17" fill="none" xmlns="http://www.w3.org/2000/svg">
<path d="M2.75 14.7734H4.46094V13.5156H2.76562C2.47396 13.5156 2.2526 13.4427 2.10156 13.2969C1.95573 13.1458 1.88281 12.9245 1.88281 12.6328V2.42969C1.88281 2.13281 1.95573 1.91146 2.10156 1.76562C2.2526 1.61458 2.47396 1.53906 2.76562 1.53906H14.1953C14.487 1.53906 14.7083 1.61458 14.8594 1.76562C15.0104 1.91146 15.0859 2.13281 15.0859 2.42969V13.8828L16.3438 13.4297V2.40625C16.3438 1.71354 16.1641 1.1875 15.8047 0.828125C15.4453 0.463542 14.9167 0.28125 14.2188 0.28125H2.75C2.05208 0.28125 1.52344 0.460938 1.16406 0.820312C0.804688 1.17969 0.625 1.70833 0.625 2.40625V12.6562C0.625 13.349 0.804688 13.875 1.16406 14.2344C1.52344 14.5938 2.05208 14.7734 2.75 14.7734ZM8.5 14.7734H15.625V13.5156H8.5V14.7734ZM15.6562 5.85156H18.3438C18.5417 5.85156 18.7161 5.8776 18.8672 5.92969C19.0234 5.98177 19.1823 6.09635 19.3438 6.27344L21.7969 9.03125C21.901 9.15104 21.9792 9.28646 22.0312 9.4375C22.0885 9.58854 22.1172 9.73438 22.1172 9.875V12.6328C22.1172 12.9245 22.0417 13.1458 21.8906 13.2969C21.7396 13.4427 21.5182 13.5156 21.2266 13.5156H19.9688V14.7734H21.25C21.9479 14.7734 22.4766 14.5938 22.8359 14.2344C23.1953 13.875 23.375 13.349 23.375 12.6562V9.89844C23.375 9.51302 23.3359 9.21094 23.2578 8.99219C23.1849 8.76823 23.0391 8.53385 22.8203 8.28906L20.1641 5.28906C19.9297 5.03385 19.6771 4.85417 19.4062 4.75C19.1354 4.64583 18.8073 4.59375 18.4219 4.59375H15.6562V5.85156ZM17.8047 9.96875H21.2109C21.2109 9.875 21.1927 9.79688 21.1562 9.73438C21.125 9.67188 21.0807 9.60938 21.0234 9.54688L18.6953 6.92969C18.612 6.84115 18.5182 6.77083 18.4141 6.71875C18.3151 6.66146 18.2109 6.63281 18.1016 6.63281H17.1328V9.30469C17.1328 9.50781 17.1927 9.66927 17.3125 9.78906C17.4323 9.90885 17.5964 9.96875 17.8047 9.96875ZM6.42188 16.9531C6.91146 16.9531 7.35677 16.8333 7.75781 16.5938C8.16406 16.3542 8.48698 16.0312 8.72656 15.625C8.96615 15.224 9.08594 14.776 9.08594 14.2812C9.08594 13.7917 8.96615 13.3464 8.72656 12.9453C8.48698 12.5391 8.16406 12.2161 7.75781 11.9766C7.35677 11.737 6.91146 11.6172 6.42188 11.6172C5.92708 11.6172 5.47656 11.737 5.07031 11.9766C4.66927 12.2161 4.34635 12.5391 4.10156 12.9453C3.86198 13.3464 3.74219 13.7917 3.74219 14.2812C3.74219 14.776 3.86198 15.224 4.10156 15.625C4.34635 16.0312 4.66927 16.3542 5.07031 16.5938C5.47656 16.8333 5.92708 16.9531 6.42188 16.9531ZM6.42188 15.8906C6.125 15.8906 5.85417 15.8177 5.60938 15.6719C5.36458 15.5312 5.16927 15.3385 5.02344 15.0938C4.8776 14.849 4.80469 14.5781 4.80469 14.2812C4.80469 13.9844 4.8776 13.7161 5.02344 13.4766C5.16927 13.2318 5.36458 13.0365 5.60938 12.8906C5.85417 12.7448 6.125 12.6719 6.42188 12.6719C6.71354 12.6719 6.98177 12.7448 7.22656 12.8906C7.47135 13.0365 7.66406 13.2318 7.80469 13.4766C7.95052 13.7161 8.02344 13.9844 8.02344 14.2812C8.02344 14.5781 7.95052 14.849 7.80469 15.0938C7.66406 15.3385 7.47135 15.5312 7.22656 15.6719C6.98177 15.8177 6.71354 15.8906 6.42188 15.8906ZM17.6797 16.9531C18.1693 16.9531 18.6146 16.8333 19.0156 16.5938C19.4219 16.3542 19.7448 16.0312 19.9844 15.625C20.224 15.224 20.3438 14.776 20.3438 14.2812C20.3438 13.7917 20.224 13.3464 19.9844 12.9453C19.7448 12.5391 19.4219 12.2161 19.0156 11.9766C18.6146 11.737 18.1693 11.6172 17.6797 11.6172C17.1901 11.6172 16.7422 11.737 16.3359 11.9766C15.9297 12.2161 15.6068 12.5391 15.3672 12.9453C15.1276 13.3464 15.0078 13.7917 15.0078 14.2812C15.0078 14.776 15.1276 15.224 15.3672 15.625C15.6068 16.0312 15.9297 16.3542 16.3359 16.5938C16.7422 16.8333 17.1901 16.9531 17.6797 16.9531ZM17.6797 15.8906C17.3828 15.8906 17.112 15.8177 16.8672 15.6719C16.6276 15.5312 16.4349 15.3385 16.2891 15.0938C16.1432 14.849 16.0703 14.5781 16.0703 14.2812C16.0703 13.9844 16.1432 13.7161 16.2891 13.4766C16.4349 13.2318 16.6276 13.0365 16.8672 12.8906C17.112 12.7448 17.3828 12.6719 17.6797 12.6719C17.9714 12.6719 18.237 12.7448 18.4766 12.8906C18.7214 13.0365 18.9167 13.2318 19.0625 13.4766C19.2083 13.7161 19.2812 13.9844 19.2812 14.2812C19.2812 14.5781 19.2083 14.849 19.0625 15.0938C18.9219 15.3385 18.7292 15.5312 18.4844 15.6719C18.2448 15.8177 17.9766 15.8906 17.6797 15.8906Z" fill="white"/>
</svg>
