<svg width="24" height="16" viewBox="0 0 24 16" fill="none" xmlns="http://www.w3.org/2000/svg">
<path d="M12 15.9766C13.0417 15.9766 14.0208 15.776 14.9375 15.375C15.8594 14.9792 16.6693 14.4323 17.3672 13.7344C18.0703 13.0312 18.6224 12.2214 19.0234 11.3047C19.4245 10.3828 19.625 9.40104 19.625 8.35938C19.625 7.31771 19.4245 6.33854 19.0234 5.42188C18.6224 4.5 18.0703 3.6901 17.3672 2.99219C16.6693 2.28906 15.8594 1.73958 14.9375 1.34375C14.0156 0.942708 13.0339 0.742188 11.9922 0.742188C10.9505 0.742188 9.97135 0.940104 9.05469 1.33594C8.13802 1.73177 7.32812 2.28125 6.625 2.98438C5.92708 3.6875 5.3776 4.5 4.97656 5.42188C4.58073 6.33854 4.38281 7.31771 4.38281 8.35938C4.38281 9.40104 4.58073 10.3828 4.97656 11.3047C5.3776 12.2214 5.92708 13.0312 6.625 13.7344C7.32812 14.4323 8.13802 14.9792 9.05469 15.375C9.97656 15.776 10.9583 15.9766 12 15.9766ZM12 14.6484C11.1302 14.6484 10.3151 14.487 9.55469 14.1641C8.79427 13.8411 8.125 13.3932 7.54688 12.8203C6.97396 12.2422 6.52604 11.5729 6.20312 10.8125C5.88021 10.0521 5.71875 9.23438 5.71875 8.35938C5.71875 7.48438 5.88021 6.66667 6.20312 5.90625C6.52604 5.14583 6.97396 4.47917 7.54688 3.90625C8.11979 3.32812 8.78646 2.8776 9.54688 2.55469C10.3073 2.22656 11.1224 2.0625 11.9922 2.0625C12.8672 2.0625 13.6849 2.22656 14.4453 2.55469C15.2057 2.8776 15.8724 3.32812 16.4453 3.90625C17.0234 4.47917 17.474 5.14583 17.7969 5.90625C18.125 6.66667 18.2917 7.48438 18.2969 8.35938C18.2969 9.22917 18.1354 10.0443 17.8125 10.8047C17.4896 11.5651 17.0391 12.2344 16.4609 12.8125C15.8828 13.3906 15.2135 13.8411 14.4531 14.1641C13.6927 14.487 12.875 14.6484 12 14.6484ZM2.03125 5.17188C2.20833 5.22396 2.3724 5.21354 2.52344 5.14062C2.67969 5.0625 2.79427 4.93229 2.86719 4.75C3.02344 4.35938 3.20312 3.98177 3.40625 3.61719C3.60938 3.2474 3.83333 2.89323 4.07812 2.55469C4.19271 2.40365 4.24219 2.24219 4.22656 2.07031C4.21094 1.89844 4.13021 1.7526 3.98438 1.63281C3.82812 1.50781 3.65625 1.45573 3.46875 1.47656C3.28646 1.4974 3.13542 1.58854 3.01562 1.75C2.72396 2.14062 2.46094 2.54948 2.22656 2.97656C1.99219 3.39844 1.78906 3.83594 1.61719 4.28906C1.53906 4.48698 1.54167 4.66927 1.625 4.83594C1.70833 4.9974 1.84375 5.10938 2.03125 5.17188ZM1.77344 10.5781C1.96094 10.5365 2.10156 10.4453 2.19531 10.3047C2.28906 10.1589 2.32292 9.98958 2.29688 9.79688C2.26042 9.56771 2.23177 9.33333 2.21094 9.09375C2.19531 8.84896 2.1875 8.60417 2.1875 8.35938C2.1875 8.10938 2.19531 7.86458 2.21094 7.625C2.23177 7.38542 2.26042 7.14583 2.29688 6.90625C2.32292 6.71875 2.28646 6.55469 2.1875 6.41406C2.09375 6.26823 1.95312 6.17448 1.76562 6.13281C1.57812 6.09635 1.40625 6.13021 1.25 6.23438C1.09896 6.33333 1.00781 6.48438 0.976562 6.6875C0.934896 6.96354 0.903646 7.24219 0.882812 7.52344C0.861979 7.79948 0.851562 8.07812 0.851562 8.35938C0.851562 8.64583 0.861979 8.92969 0.882812 9.21094C0.903646 9.48698 0.934896 9.76042 0.976562 10.0312C1.00781 10.2344 1.10156 10.388 1.25781 10.4922C1.41406 10.5911 1.58594 10.6198 1.77344 10.5781ZM3.98438 15.0781C4.13021 14.9531 4.21094 14.8047 4.22656 14.6328C4.24219 14.4609 4.19271 14.2995 4.07812 14.1484C3.83333 13.8151 3.60938 13.4635 3.40625 13.0938C3.20312 12.724 3.02344 12.3438 2.86719 11.9531C2.79427 11.776 2.67969 11.6484 2.52344 11.5703C2.3724 11.4922 2.20833 11.4818 2.03125 11.5391C1.84375 11.6016 1.70833 11.7161 1.625 11.8828C1.54167 12.0443 1.53906 12.2214 1.61719 12.4141C1.78906 12.8672 1.99219 13.3073 2.22656 13.7344C2.46094 14.1615 2.72396 14.5677 3.01562 14.9531C3.13542 15.1198 3.28646 15.2135 3.46875 15.2344C3.65625 15.2552 3.82812 15.2031 3.98438 15.0781ZM21.9688 5.17188C22.1562 5.10938 22.2917 4.9974 22.375 4.83594C22.4583 4.66927 22.4635 4.48698 22.3906 4.28906C22.2135 3.83594 22.0078 3.39844 21.7734 2.97656C21.5391 2.54948 21.276 2.14062 20.9844 1.75C20.8646 1.58854 20.7109 1.4974 20.5234 1.47656C20.3411 1.45573 20.1719 1.50781 20.0156 1.63281C19.8698 1.7526 19.7891 1.89844 19.7734 2.07031C19.763 2.24219 19.8125 2.40365 19.9219 2.55469C20.1719 2.89323 20.3984 3.2474 20.6016 3.61719C20.8047 3.98177 20.9844 4.35938 21.1406 4.75C21.2083 4.93229 21.3177 5.0625 21.4688 5.14062C21.625 5.21354 21.7917 5.22396 21.9688 5.17188ZM22.2266 10.5781C22.4141 10.6198 22.5859 10.5911 22.7422 10.4922C22.8984 10.388 22.9922 10.2344 23.0234 10.0312C23.0651 9.76042 23.0964 9.48698 23.1172 9.21094C23.138 8.92969 23.1484 8.64583 23.1484 8.35938C23.1484 8.07812 23.138 7.79948 23.1172 7.52344C23.0964 7.24219 23.0651 6.96354 23.0234 6.6875C22.9922 6.48438 22.8984 6.33333 22.7422 6.23438C22.5911 6.13021 22.4219 6.09635 22.2344 6.13281C22.0469 6.17448 21.9036 6.26823 21.8047 6.41406C21.7109 6.55469 21.6771 6.71875 21.7031 6.90625C21.7448 7.14583 21.7734 7.38542 21.7891 7.625C21.8047 7.86458 21.8125 8.10938 21.8125 8.35938C21.8125 8.60417 21.8047 8.84896 21.7891 9.09375C21.7734 9.33333 21.7448 9.56771 21.7031 9.79688C21.6771 9.98958 21.7109 10.1589 21.8047 10.3047C21.9036 10.4453 22.0443 10.5365 22.2266 10.5781ZM20.0156 15.0781C20.1719 15.2031 20.3411 15.2552 20.5234 15.2344C20.7109 15.2135 20.8646 15.1198 20.9844 14.9531C21.276 14.5677 21.5391 14.1615 21.7734 13.7344C22.0078 13.3073 22.2135 12.8672 22.3906 12.4141C22.4635 12.2214 22.4583 12.0443 22.375 11.8828C22.2917 11.7161 22.1562 11.6016 21.9688 11.5391C21.7917 11.4818 21.625 11.4922 21.4688 11.5703C21.3177 11.6484 21.2083 11.776 21.1406 11.9531C20.9844 12.3438 20.8047 12.724 20.6016 13.0938C20.3984 13.4635 20.1719 13.8151 19.9219 14.1484C19.8125 14.2995 19.763 14.4609 19.7734 14.6328C19.7891 14.8047 19.8698 14.9531 20.0156 15.0781Z" fill="white"/>
</svg>
