<?xml version="1.0" encoding="UTF-8"?>
<svg xmlns="http://www.w3.org/2000/svg" xmlns:xlink="http://www.w3.org/1999/xlink" width="24" height="25.5" viewBox="0 0 24 25.5" version="1.1">
<g id="surface1">
<path style=" stroke:none;fill-rule:nonzero;fill:rgb(100%,100%,100%);fill-opacity:1;" d="M 12 24.492188 C 13.632812 24.492188 15.167969 24.179688 16.605469 23.554688 C 18.050781 22.929688 19.324219 22.066406 20.425781 20.964844 C 21.527344 19.863281 22.390625 18.59375 23.015625 17.15625 C 23.640625 15.710938 23.953125 14.171875 23.953125 12.539062 C 23.953125 10.90625 23.640625 9.371094 23.015625 7.933594 C 22.390625 6.488281 21.527344 5.214844 20.425781 4.113281 C 19.324219 3.011719 18.050781 2.148438 16.605469 1.523438 C 15.160156 0.898438 13.621094 0.585938 11.988281 0.585938 C 10.355469 0.585938 8.816406 0.898438 7.371094 1.523438 C 5.933594 2.148438 4.664062 3.011719 3.5625 4.113281 C 2.46875 5.214844 1.609375 6.488281 0.984375 7.933594 C 0.359375 9.371094 0.046875 10.90625 0.046875 12.539062 C 0.046875 14.171875 0.359375 15.710938 0.984375 17.15625 C 1.609375 18.59375 2.472656 19.863281 3.574219 20.964844 C 4.675781 22.066406 5.945312 22.929688 7.382812 23.554688 C 8.828125 24.179688 10.367188 24.492188 12 24.492188 Z M 12 22.5 C 10.617188 22.5 9.324219 22.242188 8.121094 21.726562 C 6.917969 21.210938 5.859375 20.5 4.945312 19.59375 C 4.039062 18.679688 3.328125 17.621094 2.8125 16.417969 C 2.304688 15.214844 2.050781 13.921875 2.050781 12.539062 C 2.050781 11.15625 2.304688 9.863281 2.8125 8.660156 C 3.328125 7.457031 4.039062 6.398438 4.945312 5.484375 C 5.851562 4.570312 6.90625 3.859375 8.109375 3.351562 C 9.3125 2.835938 10.605469 2.578125 11.988281 2.578125 C 13.371094 2.578125 14.664062 2.835938 15.867188 3.351562 C 17.078125 3.859375 18.136719 4.570312 19.042969 5.484375 C 19.957031 6.398438 20.671875 7.457031 21.1875 8.660156 C 21.703125 9.863281 21.960938 11.15625 21.960938 12.539062 C 21.960938 13.921875 21.703125 15.214844 21.1875 16.417969 C 20.679688 17.621094 19.96875 18.679688 19.054688 19.59375 C 18.140625 20.5 17.082031 21.210938 15.878906 21.726562 C 14.675781 22.242188 13.382812 22.5 12 22.5 Z M 6.832031 17.824219 C 7.058594 17.824219 7.242188 17.753906 7.382812 17.613281 C 7.523438 17.472656 7.59375 17.289062 7.59375 17.0625 L 7.59375 13.289062 L 8.519531 13.289062 C 8.558594 13.289062 8.597656 13.289062 8.636719 13.289062 C 8.675781 13.289062 8.71875 13.285156 8.765625 13.277344 L 10.3125 17.34375 C 10.382812 17.515625 10.480469 17.640625 10.605469 17.71875 C 10.738281 17.789062 10.878906 17.824219 11.027344 17.824219 C 11.277344 17.824219 11.496094 17.734375 11.683594 17.554688 C 11.871094 17.367188 11.898438 17.105469 11.765625 16.769531 L 10.242188 12.984375 C 10.734375 12.796875 11.109375 12.429688 11.367188 11.882812 C 11.625 11.335938 11.753906 10.753906 11.753906 10.136719 C 11.753906 9.199219 11.515625 8.472656 11.039062 7.957031 C 10.570312 7.441406 9.839844 7.183594 8.847656 7.183594 L 6.949219 7.183594 C 6.660156 7.183594 6.4375 7.28125 6.28125 7.476562 C 6.132812 7.671875 6.058594 7.925781 6.058594 8.238281 L 6.058594 17.0625 C 6.058594 17.289062 6.128906 17.472656 6.269531 17.613281 C 6.410156 17.753906 6.597656 17.824219 6.832031 17.824219 Z M 7.59375 12.09375 L 7.59375 8.425781 L 8.671875 8.425781 C 9.195312 8.425781 9.578125 8.582031 9.820312 8.894531 C 10.070312 9.207031 10.195312 9.640625 10.195312 10.195312 C 10.195312 10.75 10.074219 11.207031 9.832031 11.566406 C 9.597656 11.917969 9.214844 12.09375 8.683594 12.09375 Z M 15.609375 17.355469 C 16.453125 17.355469 17.136719 17.125 17.660156 16.664062 C 18.191406 16.203125 18.457031 15.570312 18.457031 14.765625 C 18.457031 14.203125 18.296875 13.710938 17.976562 13.289062 C 17.65625 12.859375 17.148438 12.464844 16.453125 12.105469 L 15.421875 11.554688 C 15.109375 11.398438 14.824219 11.207031 14.566406 10.980469 C 14.308594 10.753906 14.179688 10.449219 14.179688 10.066406 C 14.179688 9.699219 14.300781 9.40625 14.542969 9.1875 C 14.792969 8.96875 15.121094 8.859375 15.527344 8.859375 C 15.972656 8.859375 16.308594 8.988281 16.535156 9.246094 C 16.761719 9.496094 16.890625 9.820312 16.921875 10.21875 C 16.9375 10.414062 17.007812 10.5625 17.132812 10.664062 C 17.265625 10.765625 17.410156 10.816406 17.566406 10.816406 C 17.769531 10.816406 17.949219 10.742188 18.105469 10.59375 C 18.261719 10.4375 18.316406 10.195312 18.269531 9.867188 C 18.183594 9.234375 17.90625 8.703125 17.4375 8.273438 C 16.96875 7.84375 16.332031 7.628906 15.527344 7.628906 C 14.722656 7.628906 14.054688 7.855469 13.523438 8.308594 C 13 8.761719 12.738281 9.367188 12.738281 10.125 C 12.738281 10.765625 12.910156 11.300781 13.253906 11.730469 C 13.597656 12.152344 14.078125 12.519531 14.695312 12.832031 L 15.703125 13.324219 C 16.039062 13.496094 16.34375 13.710938 16.617188 13.96875 C 16.890625 14.226562 17.027344 14.527344 17.027344 14.871094 C 17.027344 15.246094 16.902344 15.546875 16.652344 15.773438 C 16.410156 16 16.0625 16.113281 15.609375 16.113281 C 15.101562 16.113281 14.726562 15.992188 14.484375 15.75 C 14.25 15.5 14.109375 15.160156 14.0625 14.730469 C 14.039062 14.535156 13.964844 14.390625 13.839844 14.296875 C 13.722656 14.195312 13.585938 14.144531 13.429688 14.144531 C 13.226562 14.144531 13.046875 14.226562 12.890625 14.390625 C 12.742188 14.554688 12.691406 14.785156 12.738281 15.082031 C 12.832031 15.753906 13.125 16.300781 13.617188 16.722656 C 14.117188 17.144531 14.78125 17.355469 15.609375 17.355469 Z M 15.597656 18.609375 C 15.722656 18.609375 15.832031 18.5625 15.925781 18.46875 C 16.027344 18.367188 16.078125 18.25 16.078125 18.117188 L 16.078125 6.878906 C 16.078125 6.746094 16.027344 6.632812 15.925781 6.539062 C 15.832031 6.445312 15.722656 6.398438 15.597656 6.398438 C 15.464844 6.398438 15.347656 6.445312 15.246094 6.539062 C 15.152344 6.632812 15.105469 6.746094 15.105469 6.878906 L 15.105469 18.117188 C 15.105469 18.25 15.152344 18.367188 15.246094 18.46875 C 15.347656 18.5625 15.464844 18.609375 15.597656 18.609375 Z M 15.597656 18.609375 "/>
</g>
</svg>
