<svg width="116" height="116" viewBox="0 0 116 116" fill="none" xmlns="http://www.w3.org/2000/svg">
<path d="M20.5625 115.5H96.375C102.917 115.5 107.812 113.875 111.062 110.625C114.354 107.417 116 102.583 116 96.125V19.8125C116 13.3542 114.354 8.52083 111.062 5.3125C107.812 2.0625 102.917 0.4375 96.375 0.4375H20.5625C14.0208 0.4375 9.10417 2.0625 5.8125 5.3125C2.5625 8.52083 0.9375 13.3542 0.9375 19.8125V96.125C0.9375 102.583 2.5625 107.417 5.8125 110.625C9.10417 113.875 14.0208 115.5 20.5625 115.5ZM31.3125 87C30.0625 87 29.0417 86.625 28.25 85.875C27.4583 85.0833 27.0625 84.0625 27.0625 82.8125V34.3125C27.0625 32.5625 27.4792 31.1458 28.3125 30.0625C29.1875 28.9792 30.4167 28.4375 32 28.4375H42.4375C47.8542 28.4375 51.875 29.8542 54.5 32.6875C57.125 35.5208 58.4375 39.5417 58.4375 44.75C58.4375 48.125 57.7292 51.3125 56.3125 54.3125C54.8958 57.3125 52.8333 59.3333 50.125 60.375L58.5 81.1875C59.25 83.0625 59.1042 84.5 58.0625 85.5C57.0208 86.5 55.7917 87 54.375 87C53.5417 87 52.7708 86.7917 52.0625 86.375C51.3542 85.9583 50.8125 85.2917 50.4375 84.375L41.9375 62C41.6875 62.0417 41.4583 62.0625 41.25 62.0625C41.0417 62.0625 40.8333 62.0625 40.625 62.0625H35.5625V82.8125C35.5625 84.0625 35.1667 85.0833 34.375 85.875C33.5833 86.625 32.5625 87 31.3125 87ZM35.5625 55.5H41.5C44.4167 55.5 46.5208 54.5208 47.8125 52.5625C49.1458 50.6042 49.8125 48.1042 49.8125 45.0625C49.8125 42.0208 49.125 39.6458 47.75 37.9375C46.4167 36.1875 44.3125 35.3125 41.4375 35.3125H35.5625V55.5ZM79.5625 91.375C78.8125 91.375 78.1667 91.1042 77.625 90.5625C77.125 90.0208 76.875 89.375 76.875 88.625V84.25C73.125 83.7917 70.125 82.4583 67.875 80.25C65.625 78.0417 64.2708 75.2708 63.8125 71.9375C63.5625 70.2708 63.8542 69 64.6875 68.125C65.5208 67.2083 66.5 66.75 67.625 66.75C68.5 66.75 69.2708 67.0417 69.9375 67.625C70.6042 68.1667 71 68.9583 71.125 70C71.3333 71.9583 71.8958 73.5625 72.8125 74.8125C73.7292 76.0625 75.0833 76.8542 76.875 77.1875V60.6875L74.625 59.5625C71.25 57.8125 68.6042 55.7708 66.6875 53.4375C64.7708 51.1042 63.8125 48.1875 63.8125 44.6875C63.8125 40.8958 65.0208 37.7917 67.4375 35.375C69.8958 32.9167 73.0417 31.4792 76.875 31.0625V26.8125C76.875 26.1042 77.125 25.4792 77.625 24.9375C78.1667 24.3958 78.8125 24.125 79.5625 24.125C80.2708 24.125 80.8958 24.3958 81.4375 24.9375C81.9792 25.4792 82.25 26.1042 82.25 26.8125V31.125C85.75 31.6667 88.5208 33.0417 90.5625 35.25C92.6458 37.4583 93.875 40.125 94.25 43.25C94.5 45.0833 94.1875 46.4167 93.3125 47.25C92.4792 48.0833 91.5 48.5 90.375 48.5C89.5 48.5 88.7083 48.2292 88 47.6875C87.2917 47.1042 86.8958 46.2708 86.8125 45.1875C86.6875 43.5208 86.2292 42.0833 85.4375 40.875C84.6875 39.625 83.625 38.7708 82.25 38.3125V54.375L84.3125 55.5625C88.1042 57.6042 90.875 59.7708 92.625 62.0625C94.4167 64.3542 95.3125 67.0625 95.3125 70.1875C95.3125 74.1875 94.1042 77.4375 91.6875 79.9375C89.3125 82.3958 86.1667 83.8542 82.25 84.3125V88.625C82.25 89.375 81.9792 90.0208 81.4375 90.5625C80.8958 91.1042 80.2708 91.375 79.5625 91.375ZM76.875 38.0625C75.3333 38.4375 74.1042 39.1667 73.1875 40.25C72.2708 41.3333 71.8125 42.7083 71.8125 44.375C71.8125 46.0833 72.2708 47.4792 73.1875 48.5625C74.1458 49.6458 75.2708 50.5625 76.5625 51.3125L76.875 51.5V38.0625ZM82.25 77.1875C83.9167 76.8542 85.1875 76.125 86.0625 75C86.9792 73.8333 87.4375 72.4167 87.4375 70.75C87.4375 69.25 86.9583 67.9167 86 66.75C85.0417 65.5833 83.8542 64.5625 82.4375 63.6875L82.25 63.625V77.1875Z" fill="white"/>
</svg>
