<?xml version="1.0" encoding="UTF-8"?>
<svg xmlns="http://www.w3.org/2000/svg" xmlns:xlink="http://www.w3.org/1999/xlink" width="24" height="21.333333" viewBox="0 0 24 21.333333" version="1.1">
<g id="surface1">
<path style=" stroke:none;fill-rule:nonzero;fill:rgb(100%,100%,100%);fill-opacity:1;" d="M 12 9.886719 C 13.347656 9.886719 14.664062 9.820312 15.949219 9.6875 C 17.238281 9.546875 18.515625 9.324219 19.78125 9.011719 C 21.050781 8.699219 22.324219 8.277344 23.59375 7.75 L 23.59375 6.90625 C 23.59375 5.835938 23.328125 5.042969 22.792969 4.519531 C 22.257812 3.992188 21.453125 3.730469 20.375 3.730469 L 17.28125 3.730469 L 17.28125 2.90625 C 17.28125 1.925781 17.027344 1.203125 16.519531 0.738281 C 16.019531 0.265625 15.300781 0.03125 14.363281 0.03125 L 9.625 0.03125 C 8.734375 0.03125 8.027344 0.265625 7.5 0.738281 C 6.980469 1.203125 6.71875 1.925781 6.71875 2.90625 L 6.71875 3.730469 L 3.613281 3.730469 C 2.546875 3.730469 1.738281 3.992188 1.199219 4.519531 C 0.664062 5.042969 0.394531 5.835938 0.394531 6.90625 L 0.394531 7.75 C 1.671875 8.277344 2.945312 8.699219 4.207031 9.011719 C 5.472656 9.324219 6.746094 9.546875 8.03125 9.6875 C 9.324219 9.820312 10.644531 9.886719 12 9.886719 Z M 8.332031 3.730469 L 8.332031 2.792969 C 8.332031 2.394531 8.445312 2.089844 8.667969 1.875 C 8.890625 1.660156 9.203125 1.550781 9.605469 1.550781 L 14.386719 1.550781 C 14.796875 1.550781 15.109375 1.660156 15.332031 1.875 C 15.554688 2.089844 15.667969 2.394531 15.667969 2.792969 L 15.667969 3.730469 Z M 3.613281 20.21875 L 20.375 20.21875 C 21.453125 20.21875 22.257812 19.953125 22.792969 19.425781 C 23.328125 18.898438 23.59375 18.105469 23.59375 17.042969 L 23.59375 9.457031 C 22.578125 9.828125 21.578125 10.136719 20.59375 10.386719 C 19.613281 10.636719 18.640625 10.835938 17.667969 10.988281 C 16.703125 11.136719 15.734375 11.242188 14.769531 11.3125 L 14.769531 12.15625 C 14.769531 12.914062 14.386719 13.292969 13.613281 13.292969 L 10.375 13.292969 C 9.609375 13.292969 9.230469 12.914062 9.230469 12.15625 L 9.230469 11.3125 C 8.257812 11.242188 7.285156 11.136719 6.3125 10.988281 C 5.347656 10.835938 4.371094 10.636719 3.386719 10.386719 C 2.40625 10.136719 1.410156 9.828125 0.394531 9.457031 L 0.394531 17.042969 C 0.394531 18.105469 0.664062 18.898438 1.199219 19.425781 C 1.738281 19.953125 2.546875 20.21875 3.613281 20.21875 Z M 3.613281 20.21875 "/>
</g>
</svg>
