<svg width="16" height="17" viewBox="0 0 16 17" fill="none" xmlns="http://www.w3.org/2000/svg">
<path d="M8 16.3359C9.08854 16.3359 10.112 16.1276 11.0703 15.7109C12.0339 15.2943 12.8828 14.7188 13.6172 13.9844C14.3516 13.25 14.9271 12.4036 15.3438 11.4453C15.7604 10.4818 15.9688 9.45573 15.9688 8.36719C15.9688 7.27865 15.7604 6.25521 15.3438 5.29688C14.9271 4.33333 14.3516 3.48438 13.6172 2.75C12.8828 2.01562 12.0339 1.4401 11.0703 1.02344C10.1068 0.606771 9.08073 0.398438 7.99219 0.398438C6.90365 0.398438 5.8776 0.606771 4.91406 1.02344C3.95573 1.4401 3.10938 2.01562 2.375 2.75C1.64583 3.48438 1.07292 4.33333 0.65625 5.29688C0.239583 6.25521 0.03125 7.27865 0.03125 8.36719C0.03125 9.45573 0.239583 10.4818 0.65625 11.4453C1.07292 12.4036 1.64844 13.25 2.38281 13.9844C3.11719 14.7188 3.96354 15.2943 4.92188 15.7109C5.88542 16.1276 6.91146 16.3359 8 16.3359ZM3.42188 10.7031V7.73438C4.02604 7.95312 4.61458 8.11979 5.1875 8.23438C5.76042 8.34375 6.33854 8.41667 6.92188 8.45312V8.78906C6.92188 9.09115 7.06771 9.24219 7.35938 9.24219H8.66406C8.95573 9.24219 9.10156 9.09115 9.10156 8.78906V8.45312C9.67969 8.41667 10.2552 8.34375 10.8281 8.23438C11.4062 8.11979 11.9974 7.95312 12.6016 7.73438V10.7031C12.6016 11.1302 12.4948 11.4479 12.2812 11.6562C12.0729 11.8646 11.7552 11.9688 11.3281 11.9688H4.69531C4.26823 11.9688 3.94792 11.8646 3.73438 11.6562C3.52604 11.4479 3.42188 11.1302 3.42188 10.7031ZM3.42188 7.01562V6.69531C3.42188 6.27344 3.52604 5.95833 3.73438 5.75C3.94792 5.54167 4.26823 5.4375 4.69531 5.4375H5.55469V5.02344C5.55469 4.70573 5.65104 4.45573 5.84375 4.27344C6.03646 4.08594 6.29688 3.99219 6.625 3.99219H9.39844C9.72656 3.99219 9.98698 4.08594 10.1797 4.27344C10.3724 4.45573 10.4688 4.70573 10.4688 5.02344V5.4375H11.3281C11.7552 5.4375 12.0729 5.54167 12.2812 5.75C12.4948 5.95833 12.6016 6.27344 12.6016 6.69531V7.01562C11.8411 7.32292 11.0859 7.53906 10.3359 7.66406C9.58594 7.78906 8.8099 7.85156 8.00781 7.85156C7.21094 7.85156 6.4375 7.78906 5.6875 7.66406C4.9375 7.53906 4.18229 7.32292 3.42188 7.01562ZM6.32812 5.4375H9.69531V5.0625C9.69531 4.83854 9.57552 4.72656 9.33594 4.72656H6.67969C6.44531 4.72656 6.32812 4.83854 6.32812 5.0625V5.4375Z" fill="white"/>
</svg>
