<svg xmlns="http://www.w3.org/2000/svg" width="24" height="24"><path style="stroke:none;fill-rule:nonzero;fill:#fff;fill-opacity:1" d="M12 11.125c1.348 0 2.664-.078 3.95-.227a25.78 25.78 0 0 0 3.831-.761c1.301-.364 2.574-.836 3.813-1.418v-.95c0-1.203-.266-2.097-.801-2.683-.535-.594-1.34-.89-2.418-.89h-3.094V3.27c0-1.102-.254-1.918-.761-2.438-.5-.531-1.22-.797-2.157-.797H9.625c-.89 0-1.598.266-2.125.797-.52.52-.781 1.336-.781 2.438v.925H3.613c-1.066 0-1.875.297-2.414.89C.664 5.673.395 6.567.395 7.77v.949c1.277.594 2.55 1.07 3.812 1.418a25.68 25.68 0 0 0 3.824.761c1.293.149 2.614.227 3.969.227Zm-3.668-6.93V3.141c0-.446.113-.79.336-1.032.223-.242.535-.363.937-.363h4.782c.41 0 .722.121.945.363.223.243.336.586.336 1.032v1.054ZM3.613 22.746h16.762c1.078 0 1.883-.297 2.418-.89.535-.594.8-1.485.8-2.68V10.64a28.694 28.694 0 0 1-5.926 1.723c-.964.167-1.933.284-2.897.363v.949c0 .851-.383 1.277-1.157 1.277h-3.238c-.766 0-1.145-.426-1.145-1.277v-.95c-.976-.078-1.949-.199-2.918-.363-2.019-.355-4-.933-5.917-1.722v8.53c0 1.196.27 2.09.804 2.684.54.594 1.348.891 2.414.891Zm0 0"/></svg>