<svg xmlns="http://www.w3.org/2000/svg" width="24" height="24"><path style="stroke:none;fill-rule:nonzero;fill:#fff;fill-opacity:1" d="M16.73 12.11c.286.058.586.09.907.09 1.308.01 2.566-.54 3.488-1.524a5.12 5.12 0 0 0 1.063-1.656c.257-.641.39-1.329.386-2.028a5.238 5.238 0 0 0-.668-2.613 5.264 5.264 0 0 0-1.793-1.899 4.557 4.557 0 0 0-2.476-.707 4.52 4.52 0 0 0-1.907.41 4.853 4.853 0 0 0-1.574 1.126 5.283 5.283 0 0 0-1.437 3.683c0 .324.023.637.074.95h1.613a4.401 4.401 0 0 1-.082-.454 3.489 3.489 0 0 1-.031-.496c0-.656.148-1.25.445-1.785.301-.539.703-.965 1.211-1.281a3.06 3.06 0 0 1 1.688-.485c.625 0 1.191.157 1.695.477.508.312.91.742 1.211 1.289A3.54 3.54 0 0 1 21 6.992c0 .656-.152 1.25-.457 1.79-.3.53-.707.964-1.219 1.277a3.13 3.13 0 0 1-1.687.476 2.87 2.87 0 0 1-.774-.101Zm-3.273 3.46c.75 0 1.434-.187 2.043-.57a4.288 4.288 0 0 0 1.457-1.555 4.294 4.294 0 0 0 .555-2.164c0-.785-.184-1.504-.555-2.148A4.164 4.164 0 0 0 15.5 7.578a3.704 3.704 0 0 0-2.043-.582c-.75 0-1.43.191-2.039.582-.61.375-1.113.91-1.469 1.555a4.317 4.317 0 0 0-.543 2.148c0 .797.18 1.516.543 2.164A4.382 4.382 0 0 0 11.418 15c.61.383 1.289.57 2.039.57Zm0-1.66c-.457 0-.875-.12-1.25-.355a2.609 2.609 0 0 1-.895-.938 2.68 2.68 0 0 1-.332-1.336c0-.484.11-.926.332-1.32a2.58 2.58 0 0 1 .895-.95c.379-.238.809-.359 1.25-.355.461 0 .875.121 1.25.356a2.641 2.641 0 0 1 1.23 2.27c0 .491-.109.94-.332 1.335-.222.387-.53.711-.898.938-.375.234-.789.355-1.25.355ZM3.762 12.72c.5 0 .957-.133 1.375-.399a2.99 2.99 0 0 0 1-1.058c.25-.442.375-.93.375-1.469 0-.527-.125-1.012-.375-1.453a2.83 2.83 0 0 0-1-1.047 2.505 2.505 0 0 0-1.375-.398 2.53 2.53 0 0 0-1.387.398c-.418.254-.75.602-1 1.047C1.125 8.78 1 9.266 1 9.793a2.964 2.964 0 0 0 1.375 2.535c.418.262.879.39 1.387.39Zm0-1.668c-.328 0-.61-.121-.844-.364a1.264 1.264 0 0 1-.344-.894c0-.336.114-.629.344-.871.234-.242.516-.363.844-.363.316 0 .593.12.82.363a1.2 1.2 0 0 1 .356.871c0 .348-.118.648-.356.895a1.089 1.089 0 0 1-.82.363Zm4.062 11.648c.54 0 1.035-.144 1.477-.43a3.047 3.047 0 0 0 1.062-1.14 3.1 3.1 0 0 0 .407-1.574c0-.575-.133-1.094-.407-1.567a3.095 3.095 0 0 0-1.062-1.125 2.635 2.635 0 0 0-1.477-.43c-.543 0-1.039.145-1.492.43-.45.282-.812.657-1.082 1.125a3.113 3.113 0 0 0-.395 1.567c0 .574.13 1.101.395 1.574.27.48.633.86 1.082 1.14.453.286.95.43 1.492.43Zm0-1.676a1.34 1.34 0 0 1-.992-.43 1.468 1.468 0 0 1-.406-1.038c0-.399.14-.742.418-1.028.277-.285.605-.43.98-.43s.696.145.969.43c.27.29.406.63.406 1.028s-.136.742-.406 1.023c-.25.285-.602.445-.969.445Zm.02-14.418a.35.35 0 0 0 .23-.085.477.477 0 0 0 .125-.23c.09-.505.164-.888.227-1.161.07-.281.168-.484.293-.617.125-.133.316-.23.574-.297.262-.074.629-.16 1.102-.266a.358.358 0 0 0 .23-.125.408.408 0 0 0 .082-.25.365.365 0 0 0-.082-.234.331.331 0 0 0-.23-.13 44.81 44.81 0 0 1-1.102-.253c-.258-.074-.45-.176-.574-.309-.125-.14-.223-.347-.293-.617-.082-.383-.16-.77-.227-1.16a.477.477 0 0 0-.125-.23.303.303 0 0 0-.23-.09.303.303 0 0 0-.23.09.473.473 0 0 0-.126.234c-.082.5-.16.883-.226 1.156-.07.27-.168.477-.293.617-.125.133-.32.235-.582.309-.258.066-.621.148-1.094.254a.331.331 0 0 0-.23.129.4.4 0 0 0 0 .484c.058.07.14.114.23.125.473.106.836.192 1.094.266.261.066.457.164.582.297.125.133.222.336.293.617.066.273.144.656.226 1.156a.454.454 0 0 0 .125.235.331.331 0 0 0 .23.085Zm11.312 16.446c.11 0 .215-.043.293-.121a.467.467 0 0 0 .145-.297 21.19 21.19 0 0 1 .238-1.543c.086-.367.215-.645.387-.828.18-.188.453-.332.824-.442a21.172 21.172 0 0 1 1.55-.351.49.49 0 0 0 .282-.16.428.428 0 0 0 .113-.305.427.427 0 0 0-.113-.309.488.488 0 0 0-.293-.152 20.546 20.546 0 0 1-1.531-.277c-.367-.098-.64-.243-.82-.43-.184-.191-.313-.48-.399-.863-.074-.38-.156-.91-.238-1.586a.508.508 0 0 0-.145-.313.395.395 0 0 0-.293-.117.398.398 0 0 0-.304.125.467.467 0 0 0-.133.316c-.078.66-.157 1.176-.239 1.543-.078.368-.21.645-.398.829-.18.18-.457.324-.832.43-.367.093-.883.21-1.543.343a.457.457 0 0 0-.383.46.42.42 0 0 0 .114.31c.085.085.195.14.312.156.652.105 1.16.21 1.52.304.37.106.644.254.824.446.18.187.308.468.386.836.082.375.16.894.239 1.554 0 .121.047.235.125.32a.427.427 0 0 0 .312.122Zm0 0"/></svg>