<svg width="18" height="18" viewBox="0 0 18 18" fill="none" xmlns="http://www.w3.org/2000/svg">
<path d="M8.98438 17.0234C9.16146 17.0234 9.33073 16.974 9.49219 16.875C9.65885 16.7812 9.82031 16.6016 9.97656 16.3359L11.4219 13.9219H14.0312C14.8073 13.9219 15.4609 13.7839 15.9922 13.5078C16.5234 13.2266 16.9245 12.8203 17.1953 12.2891C17.4714 11.7578 17.6094 11.1094 17.6094 10.3438V4.35938C17.6094 3.59375 17.4714 2.94531 17.1953 2.41406C16.9245 1.88281 16.5234 1.47917 15.9922 1.20312C15.4609 0.921875 14.8073 0.78125 14.0312 0.78125H3.96875C3.19271 0.78125 2.53906 0.921875 2.00781 1.20312C1.47656 1.47917 1.07292 1.88281 0.796875 2.41406C0.526042 2.94531 0.390625 3.59375 0.390625 4.35938V10.3438C0.390625 11.1094 0.526042 11.7578 0.796875 12.2891C1.07292 12.8203 1.47656 13.2266 2.00781 13.5078C2.53906 13.7839 3.19271 13.9219 3.96875 13.9219H6.54688L7.99219 16.3359C8.14844 16.6016 8.30729 16.7812 8.46875 16.875C8.63542 16.974 8.80729 17.0234 8.98438 17.0234ZM8.98438 15.7422L7.67969 13.2969C7.54948 13.0469 7.41927 12.8802 7.28906 12.7969C7.15885 12.7083 6.95573 12.6641 6.67969 12.6641H3.96875C3.17708 12.6641 2.59115 12.4688 2.21094 12.0781C1.83594 11.6823 1.64844 11.1016 1.64844 10.3359V4.35938C1.64844 3.59896 1.83594 3.02344 2.21094 2.63281C2.59115 2.23698 3.17708 2.03906 3.96875 2.03906H14.0312C14.8177 2.03906 15.401 2.23698 15.7812 2.63281C16.1615 3.02344 16.3516 3.59896 16.3516 4.35938V10.3359C16.3516 11.1016 16.1615 11.6823 15.7812 12.0781C15.401 12.4688 14.8177 12.6641 14.0312 12.6641H11.2891C11.013 12.6641 10.8099 12.7083 10.6797 12.7969C10.5495 12.8802 10.4193 13.0469 10.2891 13.2969L8.98438 15.7422Z" fill="white"/>
</svg>
