<svg xmlns="http://www.w3.org/2000/svg" width="24" height="24"><path style="stroke:none;fill-rule:nonzero;fill:#fff;fill-opacity:1" d="M11.98 22.7c.235 0 .461-.067.676-.2.223-.125.438-.363.645-.719l1.93-3.218h3.476c1.035 0 1.906-.184 2.617-.551a3.7 3.7 0 0 0 1.602-1.625c.37-.711.554-1.575.554-2.594v-7.98c0-1.02-.183-1.887-.554-2.594a3.635 3.635 0 0 0-1.602-1.614c-.71-.375-1.582-.562-2.617-.562H5.293c-1.035 0-1.906.187-2.617.562A3.7 3.7 0 0 0 1.062 3.22C.704 3.926.52 4.793.52 5.813v7.98c0 1.02.183 1.883.542 2.594.368.707.907 1.25 1.614 1.625.71.367 1.582.55 2.617.55H8.73l1.926 3.22c.207.355.422.593.637.718.223.133.45.2.687.2Zm0-1.712-1.742-3.258c-.172-.335-.347-.558-.52-.668-.171-.117-.445-.175-.812-.175H5.293c-1.059 0-1.84-.262-2.344-.782-.5-.527-.75-1.304-.75-2.324V5.812c0-1.015.25-1.78.75-2.3.504-.528 1.285-.793 2.344-.793h13.414c1.05 0 1.828.265 2.336.793.504.52.758 1.285.758 2.3v7.97c0 1.019-.254 1.796-.758 2.323-.508.52-1.285.782-2.336.782h-3.656c-.367 0-.637.058-.813.175-.172.11-.347.333-.52.668Zm0 0"/></svg>