<svg width="18" height="17" viewBox="0 0 18 17" fill="none" xmlns="http://www.w3.org/2000/svg">
<path d="M12.5469 8.57812C12.7604 8.61979 12.987 8.64062 13.2266 8.64062C13.7422 8.64062 14.2214 8.54688 14.6641 8.35938C15.112 8.16667 15.5052 7.90104 15.8438 7.5625C16.1875 7.22396 16.4531 6.83333 16.6406 6.39062C16.8333 5.94271 16.9297 5.46354 16.9297 4.95312C16.9297 4.27604 16.763 3.65885 16.4297 3.10156C16.0964 2.53906 15.6484 2.09115 15.0859 1.75781C14.5286 1.42448 13.9089 1.25781 13.2266 1.25781C12.7214 1.25781 12.2448 1.35417 11.7969 1.54688C11.349 1.73438 10.9557 2 10.6172 2.34375C10.2786 2.68229 10.013 3.07552 9.82031 3.52344C9.63281 3.96615 9.53906 4.44271 9.53906 4.95312C9.53906 5.18229 9.55729 5.40625 9.59375 5.625H10.8047C10.7786 5.52083 10.7578 5.41406 10.7422 5.30469C10.7266 5.1901 10.7188 5.07292 10.7188 4.95312C10.7188 4.48958 10.8307 4.06771 11.0547 3.6875C11.2786 3.30729 11.5807 3.00521 11.9609 2.78125C12.3411 2.55208 12.763 2.4375 13.2266 2.4375C13.6953 2.4375 14.1198 2.54948 14.5 2.77344C14.8802 2.9974 15.1823 3.30208 15.4062 3.6875C15.6354 4.06771 15.75 4.48958 15.75 4.95312C15.75 5.41667 15.6354 5.83854 15.4062 6.21875C15.1823 6.59896 14.8776 6.90104 14.4922 7.125C14.112 7.34896 13.6901 7.46094 13.2266 7.46094C13.0182 7.46094 12.8255 7.4375 12.6484 7.39062L12.5469 8.57812ZM10.0938 11.0312C10.6562 11.0312 11.1667 10.8958 11.625 10.625C12.0833 10.349 12.4479 9.98177 12.7188 9.52344C12.9948 9.0651 13.1328 8.55469 13.1328 7.99219C13.1328 7.4349 12.9948 6.92708 12.7188 6.46875C12.4479 6.00521 12.0833 5.63802 11.625 5.36719C11.1667 5.09115 10.6562 4.95312 10.0938 4.95312C9.53125 4.95312 9.02083 5.09115 8.5625 5.36719C8.10417 5.63802 7.73698 6.00521 7.46094 6.46875C7.1901 6.92708 7.05469 7.4349 7.05469 7.99219C7.05469 8.55469 7.1901 9.0651 7.46094 9.52344C7.73698 9.98177 8.10417 10.349 8.5625 10.625C9.02083 10.8958 9.53125 11.0312 10.0938 11.0312ZM10.0938 9.85156C9.75 9.85156 9.4375 9.76823 9.15625 9.60156C8.875 9.4349 8.65104 9.21354 8.48438 8.9375C8.31771 8.65625 8.23438 8.34115 8.23438 7.99219C8.23438 7.64844 8.31771 7.33594 8.48438 7.05469C8.65104 6.77344 8.875 6.54948 9.15625 6.38281C9.4375 6.21615 9.75 6.13281 10.0938 6.13281C10.4375 6.13281 10.75 6.21615 11.0312 6.38281C11.3125 6.54948 11.5365 6.77344 11.7031 7.05469C11.8698 7.33594 11.9531 7.64844 11.9531 7.99219C11.9531 8.34115 11.8698 8.65625 11.7031 8.9375C11.5365 9.21354 11.3125 9.4349 11.0312 9.60156C10.75 9.76823 10.4375 9.85156 10.0938 9.85156ZM2.82031 9.00781C3.19531 9.00781 3.53906 8.91406 3.85156 8.72656C4.16406 8.53906 4.41406 8.28906 4.60156 7.97656C4.78906 7.66406 4.88281 7.31771 4.88281 6.9375C4.88281 6.5625 4.78906 6.21875 4.60156 5.90625C4.41406 5.59375 4.16406 5.34635 3.85156 5.16406C3.53906 4.97656 3.19531 4.88281 2.82031 4.88281C2.4401 4.88281 2.09375 4.97656 1.78125 5.16406C1.46875 5.34635 1.21875 5.59375 1.03125 5.90625C0.84375 6.21875 0.75 6.5625 0.75 6.9375C0.75 7.31771 0.84375 7.66667 1.03125 7.98438C1.21875 8.29688 1.46875 8.54688 1.78125 8.73438C2.09375 8.91667 2.4401 9.00781 2.82031 9.00781ZM2.82031 7.82812C2.57552 7.82812 2.36458 7.74219 2.1875 7.57031C2.01562 7.39323 1.92969 7.18229 1.92969 6.9375C1.92969 6.69792 2.01562 6.49219 2.1875 6.32031C2.36458 6.14844 2.57552 6.0625 2.82031 6.0625C3.0599 6.0625 3.26562 6.14844 3.4375 6.32031C3.61458 6.49219 3.70312 6.69792 3.70312 6.9375C3.70312 7.18229 3.61458 7.39323 3.4375 7.57031C3.26562 7.74219 3.0599 7.82812 2.82031 7.82812ZM5.86719 16.0781C6.27344 16.0781 6.64323 15.9766 6.97656 15.7734C7.3099 15.5755 7.57552 15.3073 7.77344 14.9688C7.97656 14.6302 8.07812 14.2578 8.07812 13.8516C8.07812 13.4453 7.97656 13.0755 7.77344 12.7422C7.57552 12.4089 7.3099 12.1432 6.97656 11.9453C6.64323 11.7422 6.27344 11.6406 5.86719 11.6406C5.46094 11.6406 5.08854 11.7422 4.75 11.9453C4.41146 12.1432 4.14062 12.4089 3.9375 12.7422C3.73958 13.0755 3.64062 13.4453 3.64062 13.8516C3.64062 14.2578 3.73958 14.6302 3.9375 14.9688C4.14062 15.3073 4.41146 15.5755 4.75 15.7734C5.08854 15.9766 5.46094 16.0781 5.86719 16.0781ZM5.86719 14.8906C5.58073 14.8906 5.33333 14.7891 5.125 14.5859C4.92188 14.3828 4.82031 14.138 4.82031 13.8516C4.82031 13.5703 4.92448 13.3281 5.13281 13.125C5.34115 12.9219 5.58594 12.8203 5.86719 12.8203C6.14844 12.8203 6.39062 12.9219 6.59375 13.125C6.79688 13.3281 6.89844 13.5703 6.89844 13.8516C6.89844 14.1328 6.79688 14.375 6.59375 14.5781C6.39062 14.7865 6.14844 14.8906 5.86719 14.8906ZM5.88281 4.67969C5.95052 4.67969 6.00781 4.65885 6.05469 4.61719C6.10156 4.57552 6.13281 4.52083 6.14844 4.45312C6.21615 4.09896 6.27344 3.82552 6.32031 3.63281C6.3724 3.4349 6.44531 3.28906 6.53906 3.19531C6.63281 3.10156 6.77604 3.03125 6.96875 2.98438C7.16667 2.93229 7.44271 2.86979 7.79688 2.79688C7.86979 2.78646 7.92708 2.75781 7.96875 2.71094C8.01042 2.65885 8.03125 2.59896 8.03125 2.53125C8.03125 2.46875 8.01042 2.41406 7.96875 2.36719C7.92708 2.3151 7.86979 2.28385 7.79688 2.27344C7.44271 2.20052 7.16667 2.14062 6.96875 2.09375C6.77604 2.04167 6.63281 1.96875 6.53906 1.875C6.44531 1.77604 6.3724 1.63021 6.32031 1.4375C6.27344 1.24479 6.21615 0.971354 6.14844 0.617188C6.13281 0.549479 6.10156 0.494792 6.05469 0.453125C6.00781 0.411458 5.95052 0.390625 5.88281 0.390625C5.8151 0.390625 5.75781 0.411458 5.71094 0.453125C5.66406 0.494792 5.63281 0.549479 5.61719 0.617188C5.55469 0.971354 5.4974 1.24479 5.44531 1.4375C5.39323 1.63021 5.32031 1.77604 5.22656 1.875C5.13281 1.96875 4.98698 2.04167 4.78906 2.09375C4.59635 2.14062 4.32292 2.20052 3.96875 2.27344C3.89583 2.28385 3.83854 2.3151 3.79688 2.36719C3.75521 2.41406 3.73438 2.46875 3.73438 2.53125C3.73438 2.59896 3.75521 2.65885 3.79688 2.71094C3.83854 2.75781 3.89583 2.78646 3.96875 2.79688C4.32292 2.86979 4.59635 2.93229 4.78906 2.98438C4.98698 3.03125 5.13281 3.10156 5.22656 3.19531C5.32031 3.28906 5.39323 3.4349 5.44531 3.63281C5.4974 3.82552 5.55469 4.09896 5.61719 4.45312C5.63281 4.52083 5.66406 4.57552 5.71094 4.61719C5.75781 4.65885 5.8151 4.67969 5.88281 4.67969ZM14.3672 16.3281C14.4505 16.3281 14.5234 16.2995 14.5859 16.2422C14.6484 16.1901 14.6849 16.1198 14.6953 16.0312C14.7578 15.5625 14.8177 15.1979 14.875 14.9375C14.9375 14.6771 15.0339 14.4818 15.1641 14.3516C15.2995 14.2214 15.5052 14.1172 15.7812 14.0391C16.0573 13.9661 16.4453 13.8828 16.9453 13.7891C17.0339 13.7734 17.1042 13.737 17.1562 13.6797C17.2135 13.6172 17.2422 13.5443 17.2422 13.4609C17.2422 13.3724 17.2135 13.2995 17.1562 13.2422C17.099 13.1849 17.026 13.1484 16.9375 13.1328C16.4479 13.0651 16.0651 13 15.7891 12.9375C15.513 12.8698 15.3073 12.7682 15.1719 12.6328C15.0365 12.4974 14.9375 12.2943 14.875 12.0234C14.8177 11.7526 14.7578 11.3776 14.6953 10.8984C14.6849 10.8099 14.6484 10.737 14.5859 10.6797C14.5286 10.6224 14.4557 10.5938 14.3672 10.5938C14.2734 10.5938 14.1953 10.625 14.1328 10.6875C14.0755 10.7448 14.0443 10.8177 14.0391 10.9062C13.9818 11.375 13.9219 11.7396 13.8594 12C13.8021 12.2604 13.7031 12.4557 13.5625 12.5859C13.4271 12.7161 13.2188 12.8177 12.9375 12.8906C12.6615 12.9583 12.276 13.0391 11.7812 13.1328C11.6927 13.1484 11.6224 13.1875 11.5703 13.25C11.5182 13.3125 11.4922 13.3828 11.4922 13.4609C11.4922 13.5495 11.5208 13.6224 11.5781 13.6797C11.6354 13.737 11.7135 13.7734 11.8125 13.7891C12.3021 13.8672 12.6823 13.9401 12.9531 14.0078C13.2292 14.0807 13.4349 14.1849 13.5703 14.3203C13.7057 14.4557 13.8021 14.6536 13.8594 14.9141C13.9219 15.1797 13.9818 15.5469 14.0391 16.0156C14.0443 16.1094 14.0755 16.1849 14.1328 16.2422C14.1953 16.2995 14.2734 16.3281 14.3672 16.3281Z" fill="white"/>
</svg>
