<svg width="18" height="17" viewBox="0 0 18 17" fill="none" xmlns="http://www.w3.org/2000/svg">
<path d="M8.98438 0.640625C8.80729 0.640625 8.63542 0.6875 8.46875 0.78125C8.30729 0.875 8.14844 1.05729 7.99219 1.32812L6.54688 3.74219H3.96875C3.19271 3.74219 2.53906 3.88281 2.00781 4.16406C1.47656 4.4401 1.07292 4.84375 0.796875 5.375C0.526042 5.90625 0.390625 6.55469 0.390625 7.32031V13.3047C0.390625 14.0703 0.526042 14.7188 0.796875 15.25C1.07292 15.7812 1.47656 16.1849 2.00781 16.4609C2.53906 16.7422 3.19271 16.8828 3.96875 16.8828H14.0312C14.8073 16.8828 15.4609 16.7422 15.9922 16.4609C16.5234 16.1849 16.9245 15.7812 17.1953 15.25C17.4714 14.7188 17.6094 14.0703 17.6094 13.3047V7.32031C17.6094 6.55469 17.4714 5.90625 17.1953 5.375C16.9245 4.84375 16.5234 4.4401 15.9922 4.16406C15.4609 3.88281 14.8073 3.74219 14.0312 3.74219H11.4219L9.97656 1.32812C9.82031 1.05729 9.65885 0.875 9.49219 0.78125C9.33073 0.6875 9.16146 0.640625 8.98438 0.640625ZM8.98438 1.92188L10.2891 4.36719C10.4193 4.61719 10.5495 4.78646 10.6797 4.875C10.8099 4.95833 11.013 5 11.2891 5H14.0312C14.8177 5 15.401 5.19792 15.7812 5.59375C16.1615 5.98438 16.3516 6.5599 16.3516 7.32031V13.2969C16.3516 14.0625 16.1615 14.6406 15.7812 15.0312C15.401 15.4271 14.8177 15.625 14.0312 15.625H3.96875C3.17708 15.625 2.59115 15.4271 2.21094 15.0312C1.83594 14.6406 1.64844 14.0625 1.64844 13.2969V7.32031C1.64844 6.5599 1.83594 5.98438 2.21094 5.59375C2.59115 5.19792 3.17708 5 3.96875 5H6.67969C6.95573 5 7.15885 4.95833 7.28906 4.875C7.41927 4.78646 7.54948 4.61719 7.67969 4.36719L8.98438 1.92188Z" fill="white"/>
</svg>
