<svg xmlns="http://www.w3.org/2000/svg" width="24" height="24"><path style="stroke:none;fill-rule:nonzero;fill:#fff;fill-opacity:1" d="M17.074 23.922c.36 0 .637-.129.832-.383.203-.254.301-.594.301-1.02v-2.863h.5c1.035 0 1.906-.195 2.617-.586a3.798 3.798 0 0 0 1.602-1.718c.37-.754.554-1.668.554-2.747V6.156c0-1.082-.183-2-.554-2.746a3.76 3.76 0 0 0-1.602-1.71c-.71-.4-1.582-.595-2.617-.595H5.293c-1.035 0-1.906.196-2.617.594A3.806 3.806 0 0 0 1.062 3.41C.704 4.156.52 5.074.52 6.156v8.45c0 1.078.183 1.992.542 2.746a3.884 3.884 0 0 0 1.614 1.718c.71.39 1.582.582 2.617.582h6.687l3.594 3.391c.317.293.582.512.79.66.214.145.452.219.71.219Zm-.43-2.02-3.331-3.504c-.196-.214-.383-.351-.563-.418a2.082 2.082 0 0 0-.707-.101h-6.75c-1.05 0-1.828-.277-2.336-.828-.504-.559-.758-1.38-.758-2.461V6.152c0-1.074.254-1.882.758-2.433.508-.559 1.285-.84 2.336-.84h13.414c1.059 0 1.836.281 2.336.84.504.55.758 1.36.758 2.433v8.442c0 1.078-.254 1.898-.758 2.457-.5.55-1.277.828-2.336.828h-1.281c-.285 0-.485.062-.602.187-.12.125-.18.336-.18.641Zm0 0"/></svg>