<?xml version="1.0" encoding="UTF-8"?>
<svg xmlns="http://www.w3.org/2000/svg" xmlns:xlink="http://www.w3.org/1999/xlink" width="24" height="19" viewBox="0 0 24 19" version="1.1">
<g id="surface1">
<path style=" stroke:none;fill-rule:nonzero;fill:rgb(100%,100%,100%);fill-opacity:1;" d="M 5.921875 17.195312 C 6.078125 17.195312 6.222656 17.152344 6.351562 17.070312 C 6.480469 16.992188 6.636719 16.867188 6.820312 16.695312 L 9.09375 14.578125 C 8.875 14.40625 8.6875 14.160156 8.53125 13.835938 C 8.375 13.511719 8.296875 13.035156 8.296875 12.398438 L 8.296875 7.21875 C 8.296875 6.421875 8.449219 5.738281 8.757812 5.171875 C 9.070312 4.597656 9.511719 4.160156 10.085938 3.859375 C 10.664062 3.550781 11.351562 3.398438 12.148438 3.398438 L 17.617188 3.398438 L 17.609375 3.109375 C 17.566406 2.574219 17.425781 2.105469 17.1875 1.710938 C 16.949219 1.316406 16.613281 1.007812 16.179688 0.789062 C 15.753906 0.570312 15.242188 0.460938 14.648438 0.460938 L 3.929688 0.460938 C 3.035156 0.460938 2.316406 0.71875 1.773438 1.234375 C 1.230469 1.746094 0.960938 2.464844 0.960938 3.398438 L 0.960938 11.070312 C 0.960938 11.996094 1.230469 12.738281 1.773438 13.289062 C 2.316406 13.839844 3.035156 14.117188 3.929688 14.117188 L 5.226562 14.117188 L 5.226562 16.398438 C 5.226562 16.636719 5.285156 16.832031 5.40625 16.976562 C 5.53125 17.121094 5.703125 17.195312 5.921875 17.195312 Z M 18.546875 18.273438 C 18.765625 18.273438 18.933594 18.199219 19.054688 18.054688 C 19.179688 17.910156 19.242188 17.714844 19.242188 17.476562 L 19.242188 15.203125 L 20.070312 15.203125 C 20.960938 15.203125 21.675781 14.925781 22.21875 14.375 C 22.765625 13.816406 23.039062 13.074219 23.039062 12.148438 L 23.039062 7.398438 C 23.039062 6.464844 22.765625 5.746094 22.21875 5.234375 C 21.675781 4.722656 20.960938 4.46875 20.070312 4.46875 L 12.328125 4.46875 C 11.394531 4.46875 10.667969 4.726562 10.148438 5.242188 C 9.628906 5.753906 9.367188 6.472656 9.367188 7.40625 L 9.367188 12.148438 C 9.367188 13.074219 9.628906 13.816406 10.148438 14.375 C 10.667969 14.925781 11.394531 15.203125 12.328125 15.203125 L 14.828125 15.203125 L 17.648438 17.78125 C 17.835938 17.949219 17.992188 18.070312 18.117188 18.148438 C 18.246094 18.230469 18.390625 18.273438 18.546875 18.273438 Z M 18.546875 18.273438 "/>
</g>
</svg>
