<svg width="139" height="131" viewBox="0 0 139 131" fill="none" xmlns="http://www.w3.org/2000/svg">
<path d="M69.6875 130.188C71.1042 130.188 72.4583 129.792 73.75 129C75.0833 128.25 76.375 126.812 77.625 124.688L89.1875 105.375H110.062C116.271 105.375 121.5 104.271 125.75 102.062C130 99.8125 133.208 96.5625 135.375 92.3125C137.583 88.0625 138.688 82.875 138.688 76.75V28.875C138.688 22.75 137.583 17.5625 135.375 13.3125C133.208 9.0625 130 5.83333 125.75 3.625C121.5 1.375 116.271 0.25 110.062 0.25H29.5625C23.3542 0.25 18.125 1.375 13.875 3.625C9.625 5.83333 6.39583 9.0625 4.1875 13.3125C2.02083 17.5625 0.9375 22.75 0.9375 28.875V76.75C0.9375 82.875 2.02083 88.0625 4.1875 92.3125C6.39583 96.5625 9.625 99.8125 13.875 102.062C18.125 104.271 23.3542 105.375 29.5625 105.375H50.1875L61.75 124.688C63 126.812 64.2708 128.25 65.5625 129C66.8958 129.792 68.2708 130.188 69.6875 130.188Z" fill="white"/>
</svg>
