<?xml version="1.0" encoding="UTF-8"?>
<svg xmlns="http://www.w3.org/2000/svg" xmlns:xlink="http://www.w3.org/1999/xlink" width="24" height="22.666667" viewBox="0 0 24 22.666667" version="1.1">
<g id="surface1">
<path style=" stroke:none;fill-rule:nonzero;fill:rgb(100%,100%,100%);fill-opacity:1;" d="M 17.074219 22.59375 C 17.433594 22.59375 17.710938 22.472656 17.90625 22.230469 C 18.109375 21.992188 18.207031 21.671875 18.207031 21.269531 L 18.207031 18.5625 L 18.707031 18.5625 C 19.742188 18.5625 20.613281 18.378906 21.324219 18.011719 C 22.03125 17.636719 22.566406 17.09375 22.925781 16.386719 C 23.296875 15.675781 23.480469 14.8125 23.480469 13.792969 L 23.480469 5.8125 C 23.480469 4.792969 23.296875 3.925781 22.925781 3.21875 C 22.566406 2.511719 22.03125 1.972656 21.324219 1.605469 C 20.613281 1.230469 19.742188 1.042969 18.707031 1.042969 L 5.292969 1.042969 C 4.257812 1.042969 3.386719 1.230469 2.675781 1.605469 C 1.96875 1.972656 1.429688 2.511719 1.0625 3.21875 C 0.703125 3.925781 0.519531 4.792969 0.519531 5.8125 L 0.519531 13.792969 C 0.519531 14.8125 0.703125 15.675781 1.0625 16.386719 C 1.429688 17.09375 1.96875 17.636719 2.675781 18.011719 C 3.386719 18.378906 4.257812 18.5625 5.292969 18.5625 L 11.980469 18.5625 L 15.574219 21.761719 C 15.890625 22.039062 16.15625 22.246094 16.363281 22.386719 C 16.578125 22.523438 16.816406 22.59375 17.074219 22.59375 Z M 16.644531 20.6875 L 13.3125 17.375 C 13.117188 17.171875 12.929688 17.042969 12.75 16.980469 C 12.570312 16.917969 12.332031 16.886719 12.042969 16.886719 L 5.292969 16.886719 C 4.242188 16.886719 3.464844 16.625 2.957031 16.105469 C 2.453125 15.578125 2.199219 14.800781 2.199219 13.78125 L 2.199219 5.8125 C 2.199219 4.796875 2.453125 4.03125 2.957031 3.511719 C 3.464844 2.984375 4.242188 2.71875 5.292969 2.71875 L 18.707031 2.71875 C 19.765625 2.71875 20.542969 2.984375 21.042969 3.511719 C 21.546875 4.03125 21.800781 4.796875 21.800781 5.8125 L 21.800781 13.78125 C 21.800781 14.800781 21.546875 15.578125 21.042969 16.105469 C 20.542969 16.625 19.765625 16.886719 18.707031 16.886719 L 17.425781 16.886719 C 17.140625 16.886719 16.941406 16.945312 16.824219 17.0625 C 16.703125 17.179688 16.644531 17.382812 16.644531 17.667969 Z M 16.644531 20.6875 "/>
</g>
</svg>
