<svg width="128" height="128" viewBox="0 0 128 128" fill="none" xmlns="http://www.w3.org/2000/svg">
<path d="M63.9375 127.625C72.6458 127.625 80.8333 125.958 88.5 122.625C96.2083 119.292 103 114.688 108.875 108.812C114.75 102.938 119.354 96.1667 122.688 88.5C126.021 80.7917 127.688 72.5833 127.688 63.875C127.688 55.1667 126.021 46.9792 122.688 39.3125C119.354 31.6042 114.75 24.8125 108.875 18.9375C103 13.0625 96.2083 8.45833 88.5 5.125C80.7917 1.79167 72.5833 0.125 63.875 0.125C55.1667 0.125 46.9583 1.79167 39.25 5.125C31.5833 8.45833 24.8125 13.0625 18.9375 18.9375C13.1042 24.8125 8.52083 31.6042 5.1875 39.3125C1.85417 46.9792 0.1875 55.1667 0.1875 63.875C0.1875 72.5833 1.85417 80.7917 5.1875 88.5C8.52083 96.1667 13.125 102.938 19 108.812C24.875 114.688 31.6458 119.292 39.3125 122.625C47.0208 125.958 55.2292 127.625 63.9375 127.625ZM29.875 46.4375C29.875 45.3542 30.4583 44.5 31.625 43.875L59.8125 27.6875C61.1875 26.8958 62.5417 26.5 63.875 26.5C65.25 26.5 66.625 26.8958 68 27.6875L96.125 43.875C97.3333 44.5 97.9375 45.3542 97.9375 46.4375C97.9375 47.1458 97.6667 47.7917 97.125 48.375C96.625 48.9583 95.9167 49.25 95 49.25H32.75C31.8333 49.25 31.125 48.9583 30.625 48.375C30.125 47.7917 29.875 47.1458 29.875 46.4375ZM34.125 83.75V82.9375C34.125 81.4792 34.8542 80.75 36.3125 80.75H38V58.3125H36.3125C34.8542 58.3125 34.125 57.6042 34.125 56.1875V55.375C34.125 54.6667 34.3125 54.125 34.6875 53.75C35.0625 53.375 35.6042 53.1875 36.3125 53.1875H44.75C45.4583 53.1875 46 53.375 46.375 53.75C46.7917 54.125 47 54.6667 47 55.375V56.1875C47 57.6042 46.25 58.3125 44.75 58.3125H43.1875V80.75H44.75C46.25 80.75 47 81.4792 47 82.9375V83.75C47 84.4167 46.7917 84.9583 46.375 85.375C46 85.75 45.4583 85.9375 44.75 85.9375H36.3125C35.6042 85.9375 35.0625 85.75 34.6875 85.375C34.3125 84.9583 34.125 84.4167 34.125 83.75ZM49.8125 83.75V82.9375C49.8125 81.4792 50.5208 80.75 51.9375 80.75H53.625V58.3125H51.9375C50.5208 58.3125 49.8125 57.6042 49.8125 56.1875V55.375C49.8125 54.6667 50 54.125 50.375 53.75C50.75 53.375 51.2708 53.1875 51.9375 53.1875H60.375C61.0833 53.1875 61.6458 53.375 62.0625 53.75C62.4792 54.125 62.6875 54.6667 62.6875 55.375V56.1875C62.6875 57.6042 61.9167 58.3125 60.375 58.3125H58.875V80.75H60.375C61.9167 80.75 62.6875 81.4792 62.6875 82.9375V83.75C62.6875 84.4167 62.4792 84.9583 62.0625 85.375C61.6458 85.75 61.0833 85.9375 60.375 85.9375H51.9375C51.2708 85.9375 50.75 85.75 50.375 85.375C50 84.9583 49.8125 84.4167 49.8125 83.75ZM65.5 83.75V82.9375C65.5 81.4792 66.2292 80.75 67.6875 80.75H69.3125V58.3125H67.6875C66.2292 58.3125 65.5 57.6042 65.5 56.1875V55.375C65.5 54.6667 65.6875 54.125 66.0625 53.75C66.4375 53.375 66.9792 53.1875 67.6875 53.1875H76.125C76.7917 53.1875 77.3333 53.375 77.75 53.75C78.1667 54.125 78.375 54.6667 78.375 55.375V56.1875C78.375 57.6042 77.625 58.3125 76.125 58.3125H74.5V80.75H76.125C77.625 80.75 78.375 81.4792 78.375 82.9375V83.75C78.375 84.4167 78.1667 84.9583 77.75 85.375C77.3333 85.75 76.7917 85.9375 76.125 85.9375H67.6875C66.9792 85.9375 66.4375 85.75 66.0625 85.375C65.6875 84.9583 65.5 84.4167 65.5 83.75ZM81.125 83.75V82.9375C81.125 81.4792 81.8542 80.75 83.3125 80.75H85V58.3125H83.3125C81.8542 58.3125 81.125 57.6042 81.125 56.1875V55.375C81.125 54.6667 81.3125 54.125 81.6875 53.75C82.1042 53.375 82.6458 53.1875 83.3125 53.1875H91.8125C92.4792 53.1875 93 53.375 93.375 53.75C93.7917 54.125 94 54.6667 94 55.375V56.1875C94 57.6042 93.2708 58.3125 91.8125 58.3125H90.1875V80.75H91.8125C93.2708 80.75 94 81.4792 94 82.9375V83.75C94 84.4167 93.7917 84.9583 93.375 85.375C93 85.75 92.4792 85.9375 91.8125 85.9375H83.3125C82.6042 85.9375 82.0625 85.75 81.6875 85.375C81.3125 84.9583 81.125 84.4167 81.125 83.75ZM28.4375 92.6875C28.4375 91.8958 28.6875 91.2292 29.1875 90.6875C29.7292 90.1458 30.375 89.875 31.125 89.875H96.6875C97.4375 89.875 98.0625 90.1458 98.5625 90.6875C99.1042 91.2292 99.375 91.8958 99.375 92.6875C99.375 93.4375 99.1042 94.0833 98.5625 94.625C98.0208 95.125 97.3958 95.375 96.6875 95.375H31.125C30.375 95.375 29.7292 95.125 29.1875 94.625C28.6875 94.0833 28.4375 93.4375 28.4375 92.6875Z" fill="white"/>
</svg>
