<svg width="16" height="17" viewBox="0 0 16 17" fill="none" xmlns="http://www.w3.org/2000/svg">
<path d="M8 16.3281C9.08854 16.3281 10.112 16.1198 11.0703 15.7031C12.0339 15.2865 12.8828 14.7109 13.6172 13.9766C14.3516 13.2422 14.9271 12.3958 15.3438 11.4375C15.7604 10.474 15.9688 9.44792 15.9688 8.35938C15.9688 7.27083 15.7604 6.2474 15.3438 5.28906C14.9271 4.32552 14.3516 3.47656 13.6172 2.74219C12.8828 2.00781 12.0339 1.43229 11.0703 1.01562C10.1068 0.598958 9.08073 0.390625 7.99219 0.390625C6.90365 0.390625 5.8776 0.598958 4.91406 1.01562C3.95573 1.43229 3.10938 2.00781 2.375 2.74219C1.64583 3.47656 1.07292 4.32552 0.65625 5.28906C0.239583 6.2474 0.03125 7.27083 0.03125 8.35938C0.03125 9.44792 0.239583 10.474 0.65625 11.4375C1.07292 12.3958 1.64844 13.2422 2.38281 13.9766C3.11719 14.7109 3.96354 15.2865 4.92188 15.7031C5.88542 16.1198 6.91146 16.3281 8 16.3281ZM3.74219 6.17969C3.74219 6.04427 3.8151 5.9375 3.96094 5.85938L7.48438 3.83594C7.65625 3.73698 7.82552 3.6875 7.99219 3.6875C8.16406 3.6875 8.33594 3.73698 8.50781 3.83594L12.0234 5.85938C12.1745 5.9375 12.25 6.04427 12.25 6.17969C12.25 6.26823 12.2161 6.34896 12.1484 6.42188C12.0859 6.49479 11.9974 6.53125 11.8828 6.53125H4.10156C3.98698 6.53125 3.89844 6.49479 3.83594 6.42188C3.77344 6.34896 3.74219 6.26823 3.74219 6.17969ZM4.27344 10.8438V10.7422C4.27344 10.5599 4.36458 10.4688 4.54688 10.4688H4.75781V7.66406H4.54688C4.36458 7.66406 4.27344 7.57552 4.27344 7.39844V7.29688C4.27344 7.20833 4.29688 7.14062 4.34375 7.09375C4.39062 7.04688 4.45833 7.02344 4.54688 7.02344H5.60156C5.6901 7.02344 5.75781 7.04688 5.80469 7.09375C5.85677 7.14062 5.88281 7.20833 5.88281 7.29688V7.39844C5.88281 7.57552 5.78906 7.66406 5.60156 7.66406H5.40625V10.4688H5.60156C5.78906 10.4688 5.88281 10.5599 5.88281 10.7422V10.8438C5.88281 10.9271 5.85677 10.9948 5.80469 11.0469C5.75781 11.0938 5.6901 11.1172 5.60156 11.1172H4.54688C4.45833 11.1172 4.39062 11.0938 4.34375 11.0469C4.29688 10.9948 4.27344 10.9271 4.27344 10.8438ZM6.23438 10.8438V10.7422C6.23438 10.5599 6.32292 10.4688 6.5 10.4688H6.71094V7.66406H6.5C6.32292 7.66406 6.23438 7.57552 6.23438 7.39844V7.29688C6.23438 7.20833 6.25781 7.14062 6.30469 7.09375C6.35156 7.04688 6.41667 7.02344 6.5 7.02344H7.55469C7.64323 7.02344 7.71354 7.04688 7.76562 7.09375C7.81771 7.14062 7.84375 7.20833 7.84375 7.29688V7.39844C7.84375 7.57552 7.7474 7.66406 7.55469 7.66406H7.36719V10.4688H7.55469C7.7474 10.4688 7.84375 10.5599 7.84375 10.7422V10.8438C7.84375 10.9271 7.81771 10.9948 7.76562 11.0469C7.71354 11.0938 7.64323 11.1172 7.55469 11.1172H6.5C6.41667 11.1172 6.35156 11.0938 6.30469 11.0469C6.25781 10.9948 6.23438 10.9271 6.23438 10.8438ZM8.19531 10.8438V10.7422C8.19531 10.5599 8.28646 10.4688 8.46875 10.4688H8.67188V7.66406H8.46875C8.28646 7.66406 8.19531 7.57552 8.19531 7.39844V7.29688C8.19531 7.20833 8.21875 7.14062 8.26562 7.09375C8.3125 7.04688 8.38021 7.02344 8.46875 7.02344H9.52344C9.60677 7.02344 9.67448 7.04688 9.72656 7.09375C9.77865 7.14062 9.80469 7.20833 9.80469 7.29688V7.39844C9.80469 7.57552 9.71094 7.66406 9.52344 7.66406H9.32031V10.4688H9.52344C9.71094 10.4688 9.80469 10.5599 9.80469 10.7422V10.8438C9.80469 10.9271 9.77865 10.9948 9.72656 11.0469C9.67448 11.0938 9.60677 11.1172 9.52344 11.1172H8.46875C8.38021 11.1172 8.3125 11.0938 8.26562 11.0469C8.21875 10.9948 8.19531 10.9271 8.19531 10.8438ZM10.1484 10.8438V10.7422C10.1484 10.5599 10.2396 10.4688 10.4219 10.4688H10.6328V7.66406H10.4219C10.2396 7.66406 10.1484 7.57552 10.1484 7.39844V7.29688C10.1484 7.20833 10.1719 7.14062 10.2188 7.09375C10.2708 7.04688 10.3385 7.02344 10.4219 7.02344H11.4844C11.5677 7.02344 11.6328 7.04688 11.6797 7.09375C11.7318 7.14062 11.7578 7.20833 11.7578 7.29688V7.39844C11.7578 7.57552 11.6667 7.66406 11.4844 7.66406H11.2812V10.4688H11.4844C11.6667 10.4688 11.7578 10.5599 11.7578 10.7422V10.8438C11.7578 10.9271 11.7318 10.9948 11.6797 11.0469C11.6328 11.0938 11.5677 11.1172 11.4844 11.1172H10.4219C10.3333 11.1172 10.2656 11.0938 10.2188 11.0469C10.1719 10.9948 10.1484 10.9271 10.1484 10.8438ZM3.5625 11.9609C3.5625 11.862 3.59375 11.7786 3.65625 11.7109C3.72396 11.6432 3.80469 11.6094 3.89844 11.6094H12.0938C12.1875 11.6094 12.2656 11.6432 12.3281 11.7109C12.3958 11.7786 12.4297 11.862 12.4297 11.9609C12.4297 12.0547 12.3958 12.1354 12.3281 12.2031C12.2604 12.2656 12.1823 12.2969 12.0938 12.2969H3.89844C3.80469 12.2969 3.72396 12.2656 3.65625 12.2031C3.59375 12.1354 3.5625 12.0547 3.5625 11.9609Z" fill="white"/>
</svg>
