<svg width="128" height="128" viewBox="0 0 128 128" fill="none" xmlns="http://www.w3.org/2000/svg">
<path d="M63.9375 127.688C72.6458 127.688 80.8333 126.021 88.5 122.688C96.2083 119.354 103 114.75 108.875 108.875C114.75 103 119.354 96.2292 122.688 88.5625C126.021 80.8542 127.688 72.6458 127.688 63.9375C127.688 55.2292 126.021 47.0417 122.688 39.375C119.354 31.6667 114.75 24.875 108.875 19C103 13.125 96.2083 8.52083 88.5 5.1875C80.7917 1.85417 72.5833 0.1875 63.875 0.1875C55.1667 0.1875 46.9583 1.85417 39.25 5.1875C31.5833 8.52083 24.8125 13.125 18.9375 19C13.1042 24.875 8.52083 31.6667 5.1875 39.375C1.85417 47.0417 0.1875 55.2292 0.1875 63.9375C0.1875 72.6458 1.85417 80.8542 5.1875 88.5625C8.52083 96.2292 13.125 103 19 108.875C24.875 114.75 31.6458 119.354 39.3125 122.688C47.0208 126.021 55.2292 127.688 63.9375 127.688ZM63.9375 117.062C56.0625 117.062 48.7292 115.479 41.9375 112.312C35.1458 109.188 29.3333 104.938 24.5 99.5625V42.5625C24.5 40.4375 25.0833 38.7292 26.25 37.4375C27.4167 36.1458 29.0208 35.5 31.0625 35.5H73C75.0833 35.5 76.6875 36.1458 77.8125 37.4375C78.9792 38.7292 79.5625 40.4375 79.5625 42.5625V114.75C77.1042 115.5 74.5625 116.062 71.9375 116.438C69.3125 116.854 66.6458 117.062 63.9375 117.062ZM39.1875 103.812H46C47 103.812 47.5 103.312 47.5 102.312V95.6875C47.5 94.6875 47 94.1875 46 94.1875H39.1875C38.2292 94.1875 37.75 94.6875 37.75 95.6875V102.312C37.75 103.312 38.2292 103.812 39.1875 103.812ZM57.9375 103.812H64.75C65.75 103.812 66.25 103.312 66.25 102.312V95.6875C66.25 94.6875 65.75 94.1875 64.75 94.1875H57.9375C56.9792 94.1875 56.5 94.6875 56.5 95.6875V102.312C56.5 103.312 56.9792 103.812 57.9375 103.812ZM39.1875 87.9375H46C47 87.9375 47.5 87.4375 47.5 86.4375V79.8125C47.5 78.8125 47 78.3125 46 78.3125H39.1875C38.2292 78.3125 37.75 78.8125 37.75 79.8125V86.4375C37.75 87.4375 38.2292 87.9375 39.1875 87.9375ZM57.9375 87.9375H64.75C65.75 87.9375 66.25 87.4375 66.25 86.4375V79.8125C66.25 78.8125 65.75 78.3125 64.75 78.3125H57.9375C56.9792 78.3125 56.5 78.8125 56.5 79.8125V86.4375C56.5 86.8542 56.625 87.2083 56.875 87.5C57.1667 87.7917 57.5208 87.9375 57.9375 87.9375ZM39.1875 72.0625H46C47 72.0625 47.5 71.5625 47.5 70.5625V64C47.5 62.9583 47 62.4375 46 62.4375H39.1875C38.2292 62.4375 37.75 62.9583 37.75 64V70.5625C37.75 71.5625 38.2292 72.0625 39.1875 72.0625ZM57.9375 72.0625H64.75C65.75 72.0625 66.25 71.5625 66.25 70.5625V64C66.25 62.9583 65.75 62.4375 64.75 62.4375H57.9375C57.5208 62.4375 57.1667 62.5833 56.875 62.875C56.625 63.1667 56.5 63.5417 56.5 64V70.5625C56.5 71.5625 56.9792 72.0625 57.9375 72.0625ZM39.1875 56.375H46C47 56.375 47.5 55.875 47.5 54.875V48.25C47.5 47.25 47 46.75 46 46.75H39.1875C38.2292 46.75 37.75 47.25 37.75 48.25V54.875C37.75 55.875 38.2292 56.375 39.1875 56.375ZM57.9375 56.375H64.75C65.75 56.375 66.25 55.875 66.25 54.875V48.25C66.25 47.25 65.75 46.75 64.75 46.75H57.9375C56.9792 46.75 56.5 47.25 56.5 48.25V54.875C56.5 55.875 56.9792 56.375 57.9375 56.375ZM84.4375 113V51.4375H102.562C104.604 51.4375 106.208 52.0833 107.375 53.375C108.542 54.625 109.125 56.3333 109.125 58.5V91.875C107.208 95 104.979 97.8958 102.438 100.562C99.9375 103.229 97.1667 105.625 94.125 107.75C91.0833 109.833 87.8542 111.583 84.4375 113ZM93.8125 98.4375H99.6875C100.438 98.4375 100.812 98.0625 100.812 97.3125V91.625C100.812 90.7917 100.438 90.375 99.6875 90.375H93.8125C92.9792 90.375 92.5625 90.7917 92.5625 91.625V97.3125C92.5625 98.0625 92.9792 98.4375 93.8125 98.4375ZM93.8125 84.1875H99.6875C100.438 84.1875 100.812 83.7708 100.812 82.9375V77.375C100.812 76.5833 100.438 76.1875 99.6875 76.1875H93.8125C92.9792 76.1875 92.5625 76.5833 92.5625 77.375V82.9375C92.5625 83.7708 92.9792 84.1875 93.8125 84.1875ZM93.8125 69.9375H99.6875C100.438 69.9375 100.812 69.5208 100.812 68.6875V63.0625C100.812 62.2708 100.438 61.875 99.6875 61.875H93.8125C92.9792 61.875 92.5625 62.2708 92.5625 63.0625V68.6875C92.5625 69.5208 92.9792 69.9375 93.8125 69.9375Z" fill="white"/>
</svg>
