<svg width="14" height="17" viewBox="0 0 14 17" fill="none" xmlns="http://www.w3.org/2000/svg">
<path d="M0.78125 15.2734C0.78125 15.7057 0.895833 16.0495 1.125 16.3047C1.35938 16.5651 1.67708 16.6953 2.07812 16.6953H11.9297C12.3255 16.6953 12.638 16.5651 12.8672 16.3047C13.1016 16.0495 13.2188 15.7057 13.2188 15.2734V1.46094C13.2188 1.02344 13.1016 0.677083 12.8672 0.421875C12.638 0.166667 12.3255 0.0390625 11.9297 0.0390625H2.07812C1.67708 0.0390625 1.35938 0.166667 1.125 0.421875C0.895833 0.677083 0.78125 1.02344 0.78125 1.46094V15.2734ZM2.03906 14.9844V1.75C2.03906 1.59375 2.07552 1.47917 2.14844 1.40625C2.22135 1.33333 2.33594 1.29688 2.49219 1.29688H11.5156C11.6667 1.29688 11.7786 1.33333 11.8516 1.40625C11.9245 1.47917 11.9609 1.59375 11.9609 1.75V14.9844C11.9609 15.1406 11.9245 15.2552 11.8516 15.3281C11.7786 15.401 11.6667 15.4375 11.5156 15.4375H2.49219C2.33594 15.4375 2.22135 15.401 2.14844 15.3281C2.07552 15.2552 2.03906 15.1406 2.03906 14.9844ZM4.28125 16.0312H5.30469V13.4219C5.30469 13.2552 5.38802 13.1719 5.55469 13.1719H8.44531C8.61198 13.1719 8.69531 13.2552 8.69531 13.4219V16.0312H9.71875V13.1328C9.71875 12.7943 9.64323 12.5469 9.49219 12.3906C9.34115 12.2292 9.10417 12.1484 8.78125 12.1484H5.21875C4.90104 12.1484 4.66406 12.2292 4.50781 12.3906C4.35677 12.5469 4.28125 12.7943 4.28125 13.1328V16.0312ZM4.40625 4.71094H5.92969C6.14323 4.71094 6.25 4.60417 6.25 4.39062V2.91406C6.25 2.70052 6.14323 2.59375 5.92969 2.59375H4.40625C4.20312 2.59375 4.10156 2.70052 4.10156 2.91406V4.39062C4.10156 4.60417 4.20312 4.71094 4.40625 4.71094ZM8.07031 4.71094H9.58594C9.79948 4.71094 9.90625 4.60417 9.90625 4.39062V2.91406C9.90625 2.70052 9.79948 2.59375 9.58594 2.59375H8.07031C7.86198 2.59375 7.75781 2.70052 7.75781 2.91406V4.39062C7.75781 4.60417 7.86198 4.71094 8.07031 4.71094ZM4.40625 7.80469H5.92969C6.14323 7.80469 6.25 7.69792 6.25 7.48438V6.00781C6.25 5.79427 6.14323 5.6875 5.92969 5.6875H4.40625C4.20312 5.6875 4.10156 5.79427 4.10156 6.00781V7.48438C4.10156 7.69792 4.20312 7.80469 4.40625 7.80469ZM8.07031 7.80469H9.58594C9.79948 7.80469 9.90625 7.69792 9.90625 7.48438V6.00781C9.90625 5.79427 9.79948 5.6875 9.58594 5.6875H8.07031C7.86198 5.6875 7.75781 5.79427 7.75781 6.00781V7.48438C7.75781 7.69792 7.86198 7.80469 8.07031 7.80469ZM4.40625 10.8984H5.92969C6.14323 10.8984 6.25 10.7917 6.25 10.5781V9.10156C6.25 8.88802 6.14323 8.78125 5.92969 8.78125H4.40625C4.20312 8.78125 4.10156 8.88802 4.10156 9.10156V10.5781C4.10156 10.7917 4.20312 10.8984 4.40625 10.8984ZM8.07031 10.8984H9.58594C9.79948 10.8984 9.90625 10.7917 9.90625 10.5781V9.10156C9.90625 8.88802 9.79948 8.78125 9.58594 8.78125H8.07031C7.86198 8.78125 7.75781 8.88802 7.75781 9.10156V10.5781C7.75781 10.7917 7.86198 10.8984 8.07031 10.8984Z" fill="white"/>
</svg>
