<svg width="136" height="132" viewBox="0 0 136 132" fill="none" xmlns="http://www.w3.org/2000/svg">
<path d="M0.9375 126C0.9375 127.375 1.41667 128.562 2.375 129.562C3.375 130.562 4.5625 131.062 5.9375 131.062H130.312C131.688 131.062 132.875 130.562 133.875 129.562C134.875 128.562 135.375 127.375 135.375 126C135.375 124.625 134.875 123.438 133.875 122.438C132.875 121.479 131.688 121 130.312 121H5.9375C4.5625 121 3.375 121.479 2.375 122.438C1.41667 123.438 0.9375 124.625 0.9375 126ZM11.875 54.4375C11.875 55.6875 12.2083 56.6667 12.875 57.375C13.5833 58.0833 14.5833 58.4375 15.875 58.4375H31.875C33.1667 58.4375 34.1667 58.0833 34.875 57.375C35.5833 56.6667 35.9375 55.6875 35.9375 54.4375V52.9375C35.9375 51.7292 35.5833 50.7708 34.875 50.0625C34.1667 49.3542 33.1667 49 31.875 49H15.875C14.5833 49 13.5833 49.3542 12.875 50.0625C12.2083 50.7708 11.875 51.7292 11.875 52.9375V54.4375ZM19.1875 107.875H28.625V55.0625H19.1875V107.875ZM11.875 111.5C11.875 112.792 12.2083 113.771 12.875 114.438C13.5833 115.146 14.5833 115.5 15.875 115.5H31.875C33.1667 115.5 34.1667 115.146 34.875 114.438C35.5833 113.771 35.9375 112.792 35.9375 111.5V110C35.9375 108.792 35.5833 107.833 34.875 107.125C34.1667 106.417 33.1667 106.062 31.875 106.062H15.875C14.5833 106.062 13.5833 106.417 12.875 107.125C12.2083 107.833 11.875 108.792 11.875 110V111.5ZM41.5625 54.4375C41.5625 55.6875 41.9167 56.6667 42.625 57.375C43.3333 58.0833 44.3125 58.4375 45.5625 58.4375H61.625C62.875 58.4375 63.8542 58.0833 64.5625 57.375C65.2708 56.6667 65.625 55.6875 65.625 54.4375V52.9375C65.625 51.7292 65.2708 50.7708 64.5625 50.0625C63.8542 49.3542 62.875 49 61.625 49H45.5625C44.3125 49 43.3333 49.3542 42.625 50.0625C41.9167 50.7708 41.5625 51.7292 41.5625 52.9375V54.4375ZM48.9375 107.875H58.375V55.0625H48.9375V107.875ZM41.5625 111.5C41.5625 112.792 41.9167 113.771 42.625 114.438C43.3333 115.146 44.3125 115.5 45.5625 115.5H61.625C62.875 115.5 63.8542 115.146 64.5625 114.438C65.2708 113.771 65.625 112.792 65.625 111.5V110C65.625 108.792 65.2708 107.833 64.5625 107.125C63.8542 106.417 62.875 106.062 61.625 106.062H45.5625C44.3125 106.062 43.3333 106.417 42.625 107.125C41.9167 107.833 41.5625 108.792 41.5625 110V111.5ZM71.3125 54.4375C71.3125 55.6875 71.6667 56.6667 72.375 57.375C73.0833 58.0833 74.0625 58.4375 75.3125 58.4375H91.375C92.625 58.4375 93.6042 58.0833 94.3125 57.375C95.0208 56.6667 95.375 55.6875 95.375 54.4375V52.9375C95.375 51.7292 95.0208 50.7708 94.3125 50.0625C93.6042 49.3542 92.625 49 91.375 49H75.3125C74.0625 49 73.0833 49.3542 72.375 50.0625C71.6667 50.7708 71.3125 51.7292 71.3125 52.9375V54.4375ZM78.6875 107.875H88.125V55.0625H78.6875V107.875ZM71.3125 111.5C71.3125 112.792 71.6667 113.771 72.375 114.438C73.0833 115.146 74.0625 115.5 75.3125 115.5H91.375C92.625 115.5 93.6042 115.146 94.3125 114.438C95.0208 113.771 95.375 112.792 95.375 111.5V110C95.375 108.792 95.0208 107.833 94.3125 107.125C93.6042 106.417 92.625 106.062 91.375 106.062H75.3125C74.0625 106.062 73.0833 106.417 72.375 107.125C71.6667 107.833 71.3125 108.792 71.3125 110V111.5ZM101.062 54.4375C101.062 55.6875 101.396 56.6667 102.062 57.375C102.771 58.0833 103.771 58.4375 105.062 58.4375H121.062C122.354 58.4375 123.333 58.0833 124 57.375C124.708 56.6667 125.062 55.6875 125.062 54.4375V52.9375C125.062 51.7292 124.708 50.7708 124 50.0625C123.333 49.3542 122.354 49 121.062 49H105.062C103.771 49 102.771 49.3542 102.062 50.0625C101.396 50.7708 101.062 51.7292 101.062 52.9375V54.4375ZM108.375 107.875H117.812V55.0625H108.375V107.875ZM101.062 111.5C101.062 112.792 101.396 113.771 102.062 114.438C102.771 115.146 103.771 115.5 105.062 115.5H121.062C122.354 115.5 123.333 115.146 124 114.438C124.708 113.771 125.062 112.792 125.062 111.5V110C125.062 108.792 124.708 107.833 124 107.125C123.333 106.417 122.354 106.062 121.062 106.062H105.062C103.771 106.062 102.771 106.417 102.062 107.125C101.396 107.833 101.062 108.792 101.062 110V111.5ZM9.1875 43.5625H127.062C128.812 43.5625 130.146 43.0417 131.062 42C132.021 40.9583 132.5 39.7917 132.5 38.5C132.5 37.5833 132.229 36.7292 131.688 35.9375C131.188 35.1042 130.354 34.3542 129.188 33.6875L75.8125 2.9375C73.2708 1.47917 70.7083 0.75 68.125 0.75C65.5417 0.75 62.9792 1.47917 60.4375 2.9375L7.0625 33.6875C5.89583 34.3542 5.04167 35.1042 4.5 35.9375C4 36.7292 3.75 37.5833 3.75 38.5C3.75 39.7917 4.20833 40.9583 5.125 42C6.08333 43.0417 7.4375 43.5625 9.1875 43.5625ZM27.9375 33.5L65.6875 12.3125C66.5625 11.8542 67.375 11.625 68.125 11.625C68.875 11.625 69.6875 11.8542 70.5625 12.3125L108.312 33.5H27.9375Z" fill="white"/>
</svg>
