<?xml version="1.0" encoding="UTF-8"?>
<svg xmlns="http://www.w3.org/2000/svg" xmlns:xlink="http://www.w3.org/1999/xlink" width="24" height="25.5" viewBox="0 0 24 25.5" version="1.1">
<g id="surface1">
<path style=" stroke:none;fill-rule:nonzero;fill:rgb(100%,100%,100%);fill-opacity:1;" d="M 12 24.492188 C 13.632812 24.492188 15.167969 24.179688 16.605469 23.554688 C 18.050781 22.929688 19.324219 22.066406 20.425781 20.964844 C 21.527344 19.863281 22.390625 18.59375 23.015625 17.15625 C 23.640625 15.710938 23.953125 14.171875 23.953125 12.539062 C 23.953125 10.90625 23.640625 9.371094 23.015625 7.933594 C 22.390625 6.488281 21.527344 5.214844 20.425781 4.113281 C 19.324219 3.011719 18.050781 2.148438 16.605469 1.523438 C 15.160156 0.898438 13.621094 0.585938 11.988281 0.585938 C 10.355469 0.585938 8.816406 0.898438 7.371094 1.523438 C 5.933594 2.148438 4.664062 3.011719 3.5625 4.113281 C 2.46875 5.214844 1.609375 6.488281 0.984375 7.933594 C 0.359375 9.371094 0.046875 10.90625 0.046875 12.539062 C 0.046875 14.171875 0.359375 15.710938 0.984375 17.15625 C 1.609375 18.59375 2.472656 19.863281 3.574219 20.964844 C 4.675781 22.066406 5.945312 22.929688 7.382812 23.554688 C 8.828125 24.179688 10.367188 24.492188 12 24.492188 Z M 12 22.5 C 10.617188 22.5 9.324219 22.242188 8.121094 21.726562 C 6.917969 21.210938 5.859375 20.5 4.945312 19.59375 C 4.039062 18.679688 3.328125 17.621094 2.8125 16.417969 C 2.304688 15.214844 2.050781 13.921875 2.050781 12.539062 C 2.050781 11.15625 2.304688 9.863281 2.8125 8.660156 C 3.328125 7.457031 4.039062 6.398438 4.945312 5.484375 C 5.851562 4.570312 6.90625 3.859375 8.109375 3.351562 C 9.3125 2.835938 10.605469 2.578125 11.988281 2.578125 C 13.371094 2.578125 14.664062 2.835938 15.867188 3.351562 C 17.078125 3.859375 18.136719 4.570312 19.042969 5.484375 C 19.957031 6.398438 20.671875 7.457031 21.1875 8.660156 C 21.703125 9.863281 21.960938 11.15625 21.960938 12.539062 C 21.960938 13.921875 21.703125 15.214844 21.1875 16.417969 C 20.679688 17.621094 19.96875 18.679688 19.054688 19.59375 C 18.140625 20.5 17.082031 21.210938 15.878906 21.726562 C 14.675781 22.242188 13.382812 22.5 12 22.5 Z M 5.800781 9.351562 C 5.800781 9.484375 5.847656 9.601562 5.941406 9.703125 C 6.035156 9.804688 6.164062 9.855469 6.328125 9.855469 L 17.648438 9.855469 C 17.820312 9.855469 17.953125 9.804688 18.046875 9.703125 C 18.140625 9.601562 18.1875 9.484375 18.1875 9.351562 C 18.1875 9.164062 18.078125 9.007812 17.859375 8.882812 L 12.738281 5.941406 C 12.488281 5.792969 12.238281 5.71875 11.988281 5.71875 C 11.738281 5.71875 11.492188 5.792969 11.25 5.941406 L 6.117188 8.882812 C 6 8.945312 5.917969 9.019531 5.871094 9.105469 C 5.824219 9.183594 5.800781 9.265625 5.800781 9.351562 Z M 6.574219 16.148438 C 6.574219 16.265625 6.609375 16.363281 6.679688 16.441406 C 6.75 16.511719 6.847656 16.546875 6.972656 16.546875 L 8.507812 16.546875 C 8.640625 16.546875 8.742188 16.511719 8.8125 16.441406 C 8.882812 16.371094 8.917969 16.273438 8.917969 16.148438 L 8.917969 15.996094 C 8.917969 15.730469 8.78125 15.597656 8.507812 15.597656 L 8.226562 15.597656 L 8.226562 11.507812 L 8.507812 11.507812 C 8.78125 11.507812 8.917969 11.378906 8.917969 11.121094 L 8.917969 10.96875 C 8.917969 10.84375 8.878906 10.746094 8.800781 10.675781 C 8.730469 10.605469 8.632812 10.570312 8.507812 10.570312 L 6.972656 10.570312 C 6.847656 10.570312 6.75 10.605469 6.679688 10.675781 C 6.609375 10.746094 6.574219 10.84375 6.574219 10.96875 L 6.574219 11.121094 C 6.574219 11.378906 6.707031 11.507812 6.972656 11.507812 L 7.277344 11.507812 L 7.277344 15.597656 L 6.972656 15.597656 C 6.707031 15.597656 6.574219 15.730469 6.574219 15.996094 Z M 9.433594 16.148438 C 9.433594 16.273438 9.464844 16.371094 9.527344 16.441406 C 9.597656 16.511719 9.695312 16.546875 9.820312 16.546875 L 11.355469 16.546875 C 11.488281 16.546875 11.589844 16.511719 11.660156 16.441406 C 11.730469 16.371094 11.765625 16.273438 11.765625 16.148438 L 11.765625 15.996094 C 11.765625 15.730469 11.628906 15.597656 11.355469 15.597656 L 11.074219 15.597656 L 11.074219 11.507812 L 11.355469 11.507812 C 11.628906 11.507812 11.765625 11.378906 11.765625 11.121094 L 11.765625 10.96875 C 11.765625 10.84375 11.730469 10.746094 11.660156 10.675781 C 11.589844 10.605469 11.488281 10.570312 11.355469 10.570312 L 9.820312 10.570312 C 9.695312 10.570312 9.597656 10.605469 9.527344 10.675781 C 9.464844 10.746094 9.433594 10.84375 9.433594 10.96875 L 9.433594 11.121094 C 9.433594 11.378906 9.5625 11.507812 9.820312 11.507812 L 10.125 11.507812 L 10.125 15.597656 L 9.820312 15.597656 C 9.5625 15.597656 9.433594 15.730469 9.433594 15.996094 Z M 12.28125 16.148438 C 12.28125 16.265625 12.316406 16.363281 12.386719 16.441406 C 12.457031 16.511719 12.554688 16.546875 12.679688 16.546875 L 14.214844 16.546875 C 14.339844 16.546875 14.4375 16.511719 14.507812 16.441406 C 14.585938 16.363281 14.625 16.265625 14.625 16.148438 L 14.625 15.996094 C 14.625 15.730469 14.488281 15.597656 14.214844 15.597656 L 13.921875 15.597656 L 13.921875 11.507812 L 14.214844 11.507812 C 14.488281 11.507812 14.625 11.378906 14.625 11.121094 L 14.625 10.96875 C 14.625 10.84375 14.585938 10.746094 14.507812 10.675781 C 14.4375 10.605469 14.339844 10.570312 14.214844 10.570312 L 12.679688 10.570312 C 12.554688 10.570312 12.457031 10.605469 12.386719 10.675781 C 12.316406 10.746094 12.28125 10.84375 12.28125 10.96875 L 12.28125 11.121094 C 12.28125 11.378906 12.414062 11.507812 12.679688 11.507812 L 12.984375 11.507812 L 12.984375 15.597656 L 12.679688 15.597656 C 12.414062 15.597656 12.28125 15.730469 12.28125 15.996094 Z M 15.128906 16.148438 C 15.128906 16.265625 15.164062 16.363281 15.234375 16.441406 C 15.304688 16.511719 15.402344 16.546875 15.527344 16.546875 L 17.074219 16.546875 C 17.191406 16.546875 17.285156 16.511719 17.355469 16.441406 C 17.433594 16.371094 17.472656 16.273438 17.472656 16.148438 L 17.472656 15.996094 C 17.472656 15.730469 17.339844 15.597656 17.074219 15.597656 L 16.769531 15.597656 L 16.769531 11.507812 L 17.074219 11.507812 C 17.339844 11.507812 17.472656 11.378906 17.472656 11.121094 L 17.472656 10.96875 C 17.472656 10.84375 17.433594 10.746094 17.355469 10.675781 C 17.285156 10.605469 17.191406 10.570312 17.074219 10.570312 L 15.527344 10.570312 C 15.402344 10.570312 15.304688 10.605469 15.234375 10.675781 C 15.164062 10.746094 15.128906 10.84375 15.128906 10.96875 L 15.128906 11.121094 C 15.128906 11.378906 15.261719 11.507812 15.527344 11.507812 L 15.832031 11.507812 L 15.832031 15.597656 L 15.527344 15.597656 C 15.261719 15.597656 15.128906 15.730469 15.128906 15.996094 Z M 5.542969 17.765625 C 5.542969 17.898438 5.589844 18.015625 5.683594 18.117188 C 5.777344 18.210938 5.894531 18.257812 6.035156 18.257812 L 17.953125 18.257812 C 18.085938 18.257812 18.199219 18.210938 18.292969 18.117188 C 18.394531 18.015625 18.445312 17.898438 18.445312 17.765625 C 18.445312 17.625 18.398438 17.507812 18.304688 17.414062 C 18.210938 17.3125 18.09375 17.261719 17.953125 17.261719 L 6.035156 17.261719 C 5.894531 17.261719 5.777344 17.3125 5.683594 17.414062 C 5.589844 17.507812 5.542969 17.625 5.542969 17.765625 Z M 5.542969 17.765625 "/>
</g>
</svg>
