<svg width="128" height="128" viewBox="0 0 128 128" fill="none" xmlns="http://www.w3.org/2000/svg">
<path d="M63.9375 122.312C66.6458 122.312 69.3125 122.125 71.9375 121.75C74.5625 121.375 77.1042 120.792 79.5625 120V42.5C79.5625 40.375 78.9792 38.6667 77.8125 37.375C76.6875 36.0833 75.0833 35.4375 73 35.4375H31.0625C29.0208 35.4375 27.4167 36.0833 26.25 37.375C25.0833 38.6667 24.5 40.375 24.5 42.5V104.875C29.3333 110.25 35.1458 114.5 41.9375 117.625C48.7292 120.75 56.0625 122.312 63.9375 122.312ZM39.1875 105.625C38.2292 105.625 37.75 105.125 37.75 104.125V97.5C37.75 96.5 38.2292 96 39.1875 96H46C47 96 47.5 96.5 47.5 97.5V104.125C47.5 105.125 47 105.625 46 105.625H39.1875ZM57.9375 105.625C56.9792 105.625 56.5 105.125 56.5 104.125V97.5C56.5 96.5 56.9792 96 57.9375 96H64.75C65.75 96 66.25 96.5 66.25 97.5V104.125C66.25 105.125 65.75 105.625 64.75 105.625H57.9375ZM39.1875 89.125C38.2292 89.125 37.75 88.625 37.75 87.625V81C37.75 80 38.2292 79.5 39.1875 79.5H46C47 79.5 47.5 80 47.5 81V87.625C47.5 88.625 47 89.125 46 89.125H39.1875ZM57.9375 89.125C57.5208 89.125 57.1667 88.9792 56.875 88.6875C56.625 88.3958 56.5 88.0417 56.5 87.625V81C56.5 80 56.9792 79.5 57.9375 79.5H64.75C65.75 79.5 66.25 80 66.25 81V87.625C66.25 88.625 65.75 89.125 64.75 89.125H57.9375ZM39.1875 72.625C38.2292 72.625 37.75 72.125 37.75 71.125V64.5625C37.75 63.5208 38.2292 63 39.1875 63H46C47 63 47.5 63.5208 47.5 64.5625V71.125C47.5 72.125 47 72.625 46 72.625H39.1875ZM57.9375 72.625C56.9792 72.625 56.5 72.125 56.5 71.125V64.5625C56.5 64.1042 56.625 63.7292 56.875 63.4375C57.1667 63.1458 57.5208 63 57.9375 63H64.75C65.75 63 66.25 63.5208 66.25 64.5625V71.125C66.25 72.125 65.75 72.625 64.75 72.625H57.9375ZM39.1875 56.3125C38.2292 56.3125 37.75 55.8125 37.75 54.8125V48.1875C37.75 47.1875 38.2292 46.6875 39.1875 46.6875H46C47 46.6875 47.5 47.1875 47.5 48.1875V54.8125C47.5 55.8125 47 56.3125 46 56.3125H39.1875ZM57.9375 56.3125C56.9792 56.3125 56.5 55.8125 56.5 54.8125V48.1875C56.5 47.1875 56.9792 46.6875 57.9375 46.6875H64.75C65.75 46.6875 66.25 47.1875 66.25 48.1875V54.8125C66.25 55.8125 65.75 56.3125 64.75 56.3125H57.9375ZM84.4375 118.312C89.6042 116.146 94.2917 113.25 98.5 109.625C102.708 106 106.25 101.833 109.125 97.125V58.4375C109.125 56.2708 108.542 54.5625 107.375 53.3125C106.208 52.0208 104.604 51.375 102.562 51.375H84.4375V118.312ZM93.8125 98.375C92.9792 98.375 92.5625 98 92.5625 97.25V91.5625C92.5625 90.7292 92.9792 90.3125 93.8125 90.3125H99.6875C100.438 90.3125 100.812 90.7292 100.812 91.5625V97.25C100.812 98 100.438 98.375 99.6875 98.375H93.8125ZM93.8125 84.125C92.9792 84.125 92.5625 83.7083 92.5625 82.875V77.3125C92.5625 76.5208 92.9792 76.125 93.8125 76.125H99.6875C100.438 76.125 100.812 76.5208 100.812 77.3125V82.875C100.812 83.7083 100.438 84.125 99.6875 84.125H93.8125ZM93.8125 69.875C92.9792 69.875 92.5625 69.4583 92.5625 68.625V63C92.5625 62.2083 92.9792 61.8125 93.8125 61.8125H99.6875C100.438 61.8125 100.812 62.2083 100.812 63V68.625C100.812 69.4583 100.438 69.875 99.6875 69.875H93.8125ZM63.9375 127.625C72.6458 127.625 80.8333 125.958 88.5 122.625C96.2083 119.292 103 114.688 108.875 108.812C114.75 102.938 119.354 96.1667 122.688 88.5C126.021 80.7917 127.688 72.5833 127.688 63.875C127.688 55.1667 126.021 46.9792 122.688 39.3125C119.354 31.6042 114.75 24.8125 108.875 18.9375C103 13.0625 96.2083 8.45833 88.5 5.125C80.7917 1.79167 72.5833 0.125 63.875 0.125C55.1667 0.125 46.9583 1.79167 39.25 5.125C31.5833 8.45833 24.8125 13.0625 18.9375 18.9375C13.1042 24.8125 8.52083 31.6042 5.1875 39.3125C1.85417 46.9792 0.1875 55.1667 0.1875 63.875C0.1875 72.5833 1.85417 80.7917 5.1875 88.5C8.52083 96.1667 13.125 102.938 19 108.812C24.875 114.688 31.6458 119.292 39.3125 122.625C47.0208 125.958 55.2292 127.625 63.9375 127.625ZM63.9375 117C56.5625 117 49.6667 115.625 43.25 112.875C36.8333 110.125 31.1875 106.333 26.3125 101.5C21.4792 96.625 17.6875 90.9792 14.9375 84.5625C12.2292 78.1458 10.875 71.25 10.875 63.875C10.875 56.5 12.2292 49.6042 14.9375 43.1875C17.6875 36.7708 21.4792 31.125 26.3125 26.25C31.1458 21.375 36.7708 17.5833 43.1875 14.875C49.6042 12.125 56.5 10.75 63.875 10.75C71.25 10.75 78.1458 12.125 84.5625 14.875C91.0208 17.5833 96.6667 21.375 101.5 26.25C106.375 31.125 110.188 36.7708 112.938 43.1875C115.688 49.6042 117.062 56.5 117.062 63.875C117.062 71.25 115.688 78.1458 112.938 84.5625C110.229 90.9792 106.438 96.625 101.562 101.5C96.6875 106.333 91.0417 110.125 84.625 112.875C78.2083 115.625 71.3125 117 63.9375 117Z" fill="white"/>
</svg>
