<svg width="16" height="15" viewBox="0 0 16 15" fill="none" xmlns="http://www.w3.org/2000/svg">
<path d="M8.02344 11.8203C8.63281 11.8203 9.20573 11.7031 9.74219 11.4688C10.2786 11.2344 10.7526 10.9141 11.1641 10.5078C11.5755 10.0964 11.8958 9.6224 12.125 9.08594C12.3594 8.54948 12.4766 7.97656 12.4766 7.36719C12.4766 6.76302 12.3594 6.19271 12.125 5.65625C11.8906 5.11979 11.5677 4.64583 11.1562 4.23438C10.75 3.82292 10.2786 3.5 9.74219 3.26562C9.20573 3.03125 8.63281 2.91406 8.02344 2.91406C7.41927 2.91406 6.84896 3.03125 6.3125 3.26562C5.77604 3.5 5.30208 3.82292 4.89062 4.23438C4.47917 4.64062 4.15625 5.11198 3.92188 5.64844C3.69271 6.1849 3.57812 6.75781 3.57812 7.36719C3.57812 7.97135 3.69531 8.54167 3.92969 9.07812C4.16406 9.61458 4.48438 10.0885 4.89062 10.5C5.30208 10.9115 5.77604 11.2344 6.3125 11.4688C6.84896 11.7031 7.41927 11.8203 8.02344 11.8203ZM8.02344 10.7188C7.41927 10.7188 6.86198 10.5677 6.35156 10.2656C5.84635 9.95833 5.4401 9.54948 5.13281 9.03906C4.82552 8.52865 4.67188 7.97135 4.67188 7.36719C4.67188 6.75781 4.82552 6.20052 5.13281 5.69531C5.4401 5.1849 5.84635 4.77865 6.35156 4.47656C6.86198 4.16927 7.41927 4.01562 8.02344 4.01562C8.63281 4.01562 9.1901 4.16927 9.69531 4.47656C10.2057 4.77865 10.6146 5.1849 10.9219 5.69531C11.2292 6.20573 11.3828 6.76302 11.3828 7.36719C11.3828 7.97656 11.2292 8.53646 10.9219 9.04688C10.6146 9.55208 10.2057 9.95833 9.69531 10.2656C9.1901 10.5677 8.63281 10.7188 8.02344 10.7188ZM8.02344 9.91406C8.48698 9.91406 8.91146 9.79948 9.29688 9.57031C9.68229 9.33594 9.98958 9.02604 10.2188 8.64062C10.4531 8.25521 10.5703 7.83073 10.5703 7.36719C10.5703 6.90885 10.4531 6.48698 10.2188 6.10156C9.98958 5.71615 9.68229 5.40625 9.29688 5.17188C8.91146 4.9375 8.48698 4.82031 8.02344 4.82031C7.5651 4.82031 7.14323 4.9375 6.75781 5.17188C6.3724 5.40104 6.0625 5.70833 5.82812 6.09375C5.59896 6.47917 5.48438 6.90365 5.48438 7.36719C5.48438 7.82552 5.59896 8.2474 5.82812 8.63281C6.0625 9.01823 6.3724 9.32812 6.75781 9.5625C7.14323 9.79688 7.5651 9.91406 8.02344 9.91406ZM3.25781 14.5625H12.7344C13.5521 14.5625 14.1641 14.3594 14.5703 13.9531C14.9818 13.5521 15.1875 12.9479 15.1875 12.1406V2.60156C15.1875 1.79427 14.9818 1.1901 14.5703 0.789062C14.1641 0.382812 13.5521 0.179688 12.7344 0.179688H3.25781C2.4401 0.179688 1.82552 0.382812 1.41406 0.789062C1.00781 1.1901 0.804688 1.79427 0.804688 2.60156V12.1406C0.804688 12.9479 1.00781 13.5521 1.41406 13.9531C1.82552 14.3594 2.4401 14.5625 3.25781 14.5625ZM3.27344 13.3047C2.88281 13.3047 2.58333 13.2031 2.375 13C2.16667 12.7917 2.0625 12.4844 2.0625 12.0781V2.66406C2.0625 2.25781 2.16667 1.95312 2.375 1.75C2.58333 1.54167 2.88281 1.4375 3.27344 1.4375H12.7188C13.1042 1.4375 13.401 1.54167 13.6094 1.75C13.8229 1.95312 13.9297 2.25781 13.9297 2.66406V12.0781C13.9297 12.4844 13.8229 12.7917 13.6094 13C13.401 13.2031 13.1042 13.3047 12.7188 13.3047H3.27344Z" fill="white"/>
</svg>
