<?xml version="1.0" encoding="UTF-8"?>
<svg xmlns="http://www.w3.org/2000/svg" xmlns:xlink="http://www.w3.org/1999/xlink" width="24" height="25.5" viewBox="0 0 24 25.5" version="1.1">
<g id="surface1">
<path style=" stroke:none;fill-rule:nonzero;fill:rgb(100%,100%,100%);fill-opacity:1;" d="M 12 24.492188 C 13.632812 24.492188 15.167969 24.179688 16.605469 23.554688 C 18.050781 22.929688 19.324219 22.066406 20.425781 20.964844 C 21.527344 19.863281 22.390625 18.59375 23.015625 17.15625 C 23.640625 15.710938 23.953125 14.171875 23.953125 12.539062 C 23.953125 10.90625 23.640625 9.371094 23.015625 7.933594 C 22.390625 6.488281 21.527344 5.214844 20.425781 4.113281 C 19.324219 3.011719 18.050781 2.148438 16.605469 1.523438 C 15.160156 0.898438 13.621094 0.585938 11.988281 0.585938 C 10.355469 0.585938 8.816406 0.898438 7.371094 1.523438 C 5.933594 2.148438 4.664062 3.011719 3.5625 4.113281 C 2.46875 5.214844 1.609375 6.488281 0.984375 7.933594 C 0.359375 9.371094 0.046875 10.90625 0.046875 12.539062 C 0.046875 14.171875 0.359375 15.710938 0.984375 17.15625 C 1.609375 18.59375 2.472656 19.863281 3.574219 20.964844 C 4.675781 22.066406 5.945312 22.929688 7.382812 23.554688 C 8.828125 24.179688 10.367188 24.492188 12 24.492188 Z M 12 22.5 C 10.617188 22.5 9.324219 22.242188 8.121094 21.726562 C 6.917969 21.210938 5.859375 20.5 4.945312 19.59375 C 4.039062 18.679688 3.328125 17.621094 2.8125 16.417969 C 2.304688 15.214844 2.050781 13.921875 2.050781 12.539062 C 2.050781 11.15625 2.304688 9.863281 2.8125 8.660156 C 3.328125 7.457031 4.039062 6.398438 4.945312 5.484375 C 5.851562 4.570312 6.90625 3.859375 8.109375 3.351562 C 9.3125 2.835938 10.605469 2.578125 11.988281 2.578125 C 13.371094 2.578125 14.664062 2.835938 15.867188 3.351562 C 17.078125 3.859375 18.136719 4.570312 19.042969 5.484375 C 19.957031 6.398438 20.671875 7.457031 21.1875 8.660156 C 21.703125 9.863281 21.960938 11.15625 21.960938 12.539062 C 21.960938 13.921875 21.703125 15.214844 21.1875 16.417969 C 20.679688 17.621094 19.96875 18.679688 19.054688 19.59375 C 18.140625 20.5 17.082031 21.210938 15.878906 21.726562 C 14.675781 22.242188 13.382812 22.5 12 22.5 Z M 12 18.035156 C 12.6875 18.035156 13.320312 17.933594 13.898438 17.730469 C 14.484375 17.519531 14.980469 17.222656 15.386719 16.839844 C 15.800781 16.449219 16.101562 15.992188 16.289062 15.46875 C 16.328125 15.367188 16.355469 15.277344 16.371094 15.199219 C 16.386719 15.113281 16.394531 15.023438 16.394531 14.929688 C 16.394531 14.6875 16.320312 14.496094 16.171875 14.355469 C 16.03125 14.207031 15.835938 14.132812 15.585938 14.132812 C 15.25 14.132812 14.988281 14.324219 14.800781 14.707031 C 14.566406 15.277344 14.210938 15.71875 13.734375 16.03125 C 13.257812 16.335938 12.6875 16.488281 12.023438 16.488281 C 11.398438 16.488281 10.851562 16.320312 10.382812 15.984375 C 9.921875 15.648438 9.558594 15.175781 9.292969 14.566406 C 9.035156 13.957031 8.90625 13.246094 8.90625 12.433594 C 8.90625 11.628906 9.035156 10.921875 9.292969 10.3125 C 9.558594 9.695312 9.921875 9.21875 10.382812 8.882812 C 10.851562 8.539062 11.398438 8.367188 12.023438 8.367188 C 12.6875 8.367188 13.257812 8.523438 13.734375 8.835938 C 14.210938 9.140625 14.566406 9.582031 14.800781 10.160156 C 14.902344 10.355469 15.011719 10.5 15.128906 10.59375 C 15.253906 10.679688 15.40625 10.722656 15.585938 10.722656 C 15.835938 10.722656 16.03125 10.652344 16.171875 10.511719 C 16.320312 10.371094 16.394531 10.175781 16.394531 9.925781 C 16.394531 9.832031 16.386719 9.746094 16.371094 9.667969 C 16.355469 9.589844 16.328125 9.496094 16.289062 9.386719 C 16.101562 8.863281 15.800781 8.410156 15.386719 8.027344 C 14.972656 7.644531 14.476562 7.347656 13.898438 7.136719 C 13.320312 6.925781 12.6875 6.820312 12 6.820312 C 10.984375 6.820312 10.101562 7.050781 9.351562 7.511719 C 8.609375 7.972656 8.035156 8.625 7.628906 9.46875 C 7.222656 10.304688 7.019531 11.292969 7.019531 12.433594 C 7.019531 13.574219 7.222656 14.566406 7.628906 15.410156 C 8.035156 16.246094 8.609375 16.894531 9.351562 17.355469 C 10.101562 17.808594 10.984375 18.035156 12 18.035156 Z M 12 18.035156 "/>
</g>
</svg>
