<?xml version="1.0" encoding="UTF-8"?>
<svg xmlns="http://www.w3.org/2000/svg" xmlns:xlink="http://www.w3.org/1999/xlink" width="24" height="25.5" viewBox="0 0 24 25.5" version="1.1">
<g id="surface1">
<path style=" stroke:none;fill-rule:nonzero;fill:rgb(100%,100%,100%);fill-opacity:1;" d="M 12 24.492188 C 13.632812 24.492188 15.167969 24.179688 16.605469 23.554688 C 18.050781 22.929688 19.324219 22.066406 20.425781 20.964844 C 21.527344 19.863281 22.390625 18.59375 23.015625 17.15625 C 23.640625 15.710938 23.953125 14.171875 23.953125 12.539062 C 23.953125 10.90625 23.640625 9.371094 23.015625 7.933594 C 22.390625 6.488281 21.527344 5.214844 20.425781 4.113281 C 19.324219 3.011719 18.050781 2.148438 16.605469 1.523438 C 15.160156 0.898438 13.621094 0.585938 11.988281 0.585938 C 10.355469 0.585938 8.816406 0.898438 7.371094 1.523438 C 5.933594 2.148438 4.664062 3.011719 3.5625 4.113281 C 2.46875 5.214844 1.609375 6.488281 0.984375 7.933594 C 0.359375 9.371094 0.046875 10.90625 0.046875 12.539062 C 0.046875 14.171875 0.359375 15.710938 0.984375 17.15625 C 1.609375 18.59375 2.472656 19.863281 3.574219 20.964844 C 4.675781 22.066406 5.945312 22.929688 7.382812 23.554688 C 8.828125 24.179688 10.367188 24.492188 12 24.492188 Z M 12.023438 18.210938 C 10.96875 18.210938 10.054688 17.976562 9.28125 17.507812 C 8.515625 17.03125 7.921875 16.363281 7.5 15.503906 C 7.085938 14.636719 6.878906 13.613281 6.878906 12.433594 C 6.878906 11.261719 7.085938 10.242188 7.5 9.375 C 7.921875 8.507812 8.519531 7.835938 9.292969 7.359375 C 10.066406 6.882812 10.976562 6.644531 12.023438 6.644531 C 12.734375 6.644531 13.386719 6.753906 13.980469 6.972656 C 14.574219 7.183594 15.085938 7.488281 15.515625 7.886719 C 15.945312 8.277344 16.257812 8.742188 16.453125 9.28125 C 16.492188 9.390625 16.519531 9.488281 16.535156 9.574219 C 16.550781 9.652344 16.558594 9.742188 16.558594 9.84375 C 16.558594 10.101562 16.480469 10.304688 16.324219 10.453125 C 16.175781 10.601562 15.972656 10.675781 15.714844 10.675781 C 15.535156 10.675781 15.382812 10.628906 15.257812 10.535156 C 15.132812 10.441406 15.015625 10.292969 14.90625 10.089844 C 14.664062 9.496094 14.296875 9.042969 13.804688 8.730469 C 13.3125 8.410156 12.726562 8.25 12.046875 8.25 C 11.40625 8.25 10.84375 8.425781 10.359375 8.777344 C 9.882812 9.128906 9.507812 9.621094 9.234375 10.253906 C 8.96875 10.878906 8.835938 11.605469 8.835938 12.433594 C 8.835938 13.269531 8.96875 14 9.234375 14.625 C 9.507812 15.25 9.882812 15.738281 10.359375 16.089844 C 10.84375 16.433594 11.40625 16.605469 12.046875 16.605469 C 12.726562 16.605469 13.308594 16.449219 13.792969 16.136719 C 14.285156 15.824219 14.65625 15.371094 14.90625 14.777344 C 15.109375 14.378906 15.378906 14.179688 15.714844 14.179688 C 15.972656 14.179688 16.175781 14.253906 16.324219 14.402344 C 16.480469 14.550781 16.558594 14.753906 16.558594 15.011719 C 16.558594 15.105469 16.550781 15.195312 16.535156 15.28125 C 16.519531 15.367188 16.492188 15.464844 16.453125 15.574219 C 16.257812 16.113281 15.945312 16.582031 15.515625 16.980469 C 15.09375 17.371094 14.582031 17.675781 13.980469 17.894531 C 13.386719 18.105469 12.734375 18.210938 12.023438 18.210938 Z M 12.023438 18.210938 "/>
</g>
</svg>
