<svg width="128" height="128" viewBox="0 0 128 128" fill="none" xmlns="http://www.w3.org/2000/svg">
<path d="M63.9375 127.625C72.6458 127.625 80.8333 125.958 88.5 122.625C96.2083 119.292 103 114.688 108.875 108.812C114.75 102.938 119.354 96.1667 122.688 88.5C126.021 80.7917 127.688 72.5833 127.688 63.875C127.688 55.1667 126.021 46.9792 122.688 39.3125C119.354 31.6042 114.75 24.8125 108.875 18.9375C103 13.0625 96.2083 8.45833 88.5 5.125C80.7917 1.79167 72.5833 0.125 63.875 0.125C55.1667 0.125 46.9583 1.79167 39.25 5.125C31.5833 8.45833 24.8125 13.0625 18.9375 18.9375C13.1042 24.8125 8.52083 31.6042 5.1875 39.3125C1.85417 46.9792 0.1875 55.1667 0.1875 63.875C0.1875 72.5833 1.85417 80.7917 5.1875 88.5C8.52083 96.1667 13.125 102.938 19 108.812C24.875 114.688 31.6458 119.292 39.3125 122.625C47.0208 125.958 55.2292 127.625 63.9375 127.625ZM64.0625 94.125C58.4375 94.125 53.5625 92.875 49.4375 90.375C45.3542 87.8333 42.1875 84.2708 39.9375 79.6875C37.7292 75.0625 36.625 69.6042 36.625 63.3125C36.625 57.0625 37.7292 51.625 39.9375 47C42.1875 42.375 45.375 38.7917 49.5 36.25C53.625 33.7083 58.4792 32.4375 64.0625 32.4375C67.8542 32.4375 71.3333 33.0208 74.5 34.1875C77.6667 35.3125 80.3958 36.9375 82.6875 39.0625C84.9792 41.1458 86.6458 43.625 87.6875 46.5C87.8958 47.0833 88.0417 47.6042 88.125 48.0625C88.2083 48.4792 88.25 48.9583 88.25 49.5C88.25 50.875 87.8333 51.9583 87 52.75C86.2083 53.5417 85.125 53.9375 83.75 53.9375C82.7917 53.9375 81.9792 53.6875 81.3125 53.1875C80.6458 52.6875 80.0208 51.8958 79.4375 50.8125C78.1458 47.6458 76.1875 45.2292 73.5625 43.5625C70.9375 41.8542 67.8125 41 64.1875 41C60.7708 41 57.7708 41.9375 55.1875 43.8125C52.6458 45.6875 50.6458 48.3125 49.1875 51.6875C47.7708 55.0208 47.0625 58.8958 47.0625 63.3125C47.0625 67.7708 47.7708 71.6667 49.1875 75C50.6458 78.3333 52.6458 80.9375 55.1875 82.8125C57.7708 84.6458 60.7708 85.5625 64.1875 85.5625C67.8125 85.5625 70.9167 84.7292 73.5 83.0625C76.125 81.3958 78.1042 78.9792 79.4375 75.8125C80.5208 73.6875 81.9583 72.625 83.75 72.625C85.125 72.625 86.2083 73.0208 87 73.8125C87.8333 74.6042 88.25 75.6875 88.25 77.0625C88.25 77.5625 88.2083 78.0417 88.125 78.5C88.0417 78.9583 87.8958 79.4792 87.6875 80.0625C86.6458 82.9375 84.9792 85.4375 82.6875 87.5625C80.4375 89.6458 77.7083 91.2708 74.5 92.4375C71.3333 93.5625 67.8542 94.125 64.0625 94.125Z" fill="white"/>
</svg>
