<svg width="16" height="17" viewBox="0 0 16 17" fill="none" xmlns="http://www.w3.org/2000/svg">
<path d="M8 16.3281C9.08854 16.3281 10.112 16.1198 11.0703 15.7031C12.0339 15.2865 12.8828 14.7109 13.6172 13.9766C14.3516 13.2422 14.9271 12.3958 15.3438 11.4375C15.7604 10.474 15.9688 9.44792 15.9688 8.35938C15.9688 7.27083 15.7604 6.2474 15.3438 5.28906C14.9271 4.32552 14.3516 3.47656 13.6172 2.74219C12.8828 2.00781 12.0339 1.43229 11.0703 1.01562C10.1068 0.598958 9.08073 0.390625 7.99219 0.390625C6.90365 0.390625 5.8776 0.598958 4.91406 1.01562C3.95573 1.43229 3.10938 2.00781 2.375 2.74219C1.64583 3.47656 1.07292 4.32552 0.65625 5.28906C0.239583 6.2474 0.03125 7.27083 0.03125 8.35938C0.03125 9.44792 0.239583 10.474 0.65625 11.4375C1.07292 12.3958 1.64844 13.2422 2.38281 13.9766C3.11719 14.7109 3.96354 15.2865 4.92188 15.7031C5.88542 16.1198 6.91146 16.3281 8 16.3281ZM8 15C7.07812 15 6.21615 14.8281 5.41406 14.4844C4.61198 14.1406 3.90625 13.6667 3.29688 13.0625C2.69271 12.4531 2.21875 11.7474 1.875 10.9453C1.53646 10.1432 1.36719 9.28125 1.36719 8.35938C1.36719 7.4375 1.53646 6.57552 1.875 5.77344C2.21875 4.97135 2.69271 4.26562 3.29688 3.65625C3.90104 3.04688 4.60417 2.57292 5.40625 2.23438C6.20833 1.89062 7.07031 1.71875 7.99219 1.71875C8.91406 1.71875 9.77604 1.89062 10.5781 2.23438C11.3854 2.57292 12.0911 3.04688 12.6953 3.65625C13.3047 4.26562 13.7812 4.97135 14.125 5.77344C14.4688 6.57552 14.6406 7.4375 14.6406 8.35938C14.6406 9.28125 14.4688 10.1432 14.125 10.9453C13.7865 11.7474 13.3125 12.4531 12.7031 13.0625C12.0938 13.6667 11.388 14.1406 10.5859 14.4844C9.78385 14.8281 8.92188 15 8 15ZM8 12.0234C8.45833 12.0234 8.88021 11.9557 9.26562 11.8203C9.65625 11.6797 9.98698 11.4818 10.2578 11.2266C10.5339 10.9661 10.7344 10.6615 10.8594 10.3125C10.8854 10.2448 10.9036 10.1849 10.9141 10.1328C10.9245 10.0755 10.9297 10.0156 10.9297 9.95312C10.9297 9.79167 10.8802 9.66406 10.7812 9.57031C10.6875 9.47135 10.5573 9.42188 10.3906 9.42188C10.1667 9.42188 9.99219 9.54948 9.86719 9.80469C9.71094 10.1849 9.47396 10.4792 9.15625 10.6875C8.83854 10.8906 8.45833 10.9922 8.01562 10.9922C7.59896 10.9922 7.23438 10.8802 6.92188 10.6562C6.61458 10.4323 6.3724 10.1172 6.19531 9.71094C6.02344 9.30469 5.9375 8.83073 5.9375 8.28906C5.9375 7.7526 6.02344 7.28125 6.19531 6.875C6.3724 6.46354 6.61458 6.14583 6.92188 5.92188C7.23438 5.69271 7.59896 5.57812 8.01562 5.57812C8.45833 5.57812 8.83854 5.68229 9.15625 5.89062C9.47396 6.09375 9.71094 6.38802 9.86719 6.77344C9.9349 6.90365 10.0078 7 10.0859 7.0625C10.1693 7.11979 10.2708 7.14844 10.3906 7.14844C10.5573 7.14844 10.6875 7.10156 10.7812 7.00781C10.8802 6.91406 10.9297 6.78385 10.9297 6.61719C10.9297 6.55469 10.9245 6.4974 10.9141 6.44531C10.9036 6.39323 10.8854 6.33073 10.8594 6.25781C10.7344 5.90885 10.5339 5.60677 10.2578 5.35156C9.98177 5.09635 9.65104 4.89844 9.26562 4.75781C8.88021 4.61719 8.45833 4.54688 8 4.54688C7.32292 4.54688 6.73438 4.70052 6.23438 5.00781C5.73958 5.3151 5.35677 5.75 5.08594 6.3125C4.8151 6.86979 4.67969 7.52865 4.67969 8.28906C4.67969 9.04948 4.8151 9.71094 5.08594 10.2734C5.35677 10.8307 5.73958 11.263 6.23438 11.5703C6.73438 11.8724 7.32292 12.0234 8 12.0234Z" fill="white"/>
</svg>
