<svg width="116" height="116" viewBox="0 0 116 116" fill="none" xmlns="http://www.w3.org/2000/svg">
<path d="M20.5625 115.5H96.375C102.917 115.5 107.812 113.875 111.062 110.625C114.354 107.417 116 102.583 116 96.125V19.8125C116 13.3542 114.354 8.52083 111.062 5.3125C107.812 2.0625 102.917 0.4375 96.375 0.4375H20.5625C14.0208 0.4375 9.10417 2.0625 5.8125 5.3125C2.5625 8.52083 0.9375 13.3542 0.9375 19.8125V96.125C0.9375 102.583 2.5625 107.417 5.8125 110.625C9.10417 113.875 14.0208 115.5 20.5625 115.5ZM58.625 88.125C53 88.125 48.125 86.875 44 84.375C39.9167 81.8333 36.75 78.2708 34.5 73.6875C32.2917 69.0625 31.1875 63.6042 31.1875 57.3125C31.1875 51.0625 32.2917 45.625 34.5 41C36.75 36.375 39.9375 32.7917 44.0625 30.25C48.1875 27.7083 53.0417 26.4375 58.625 26.4375C62.4167 26.4375 65.8958 27.0208 69.0625 28.1875C72.2292 29.3125 74.9583 30.9375 77.25 33.0625C79.5417 35.1458 81.2083 37.625 82.25 40.5C82.4583 41.0833 82.6042 41.6042 82.6875 42.0625C82.7708 42.4792 82.8125 42.9583 82.8125 43.5C82.8125 44.875 82.3958 45.9583 81.5625 46.75C80.7708 47.5417 79.6875 47.9375 78.3125 47.9375C77.3542 47.9375 76.5417 47.6875 75.875 47.1875C75.2083 46.6875 74.5833 45.8958 74 44.8125C72.7083 41.6458 70.75 39.2292 68.125 37.5625C65.5 35.8542 62.375 35 58.75 35C55.3333 35 52.3333 35.9375 49.75 37.8125C47.2083 39.6875 45.2083 42.3125 43.75 45.6875C42.3333 49.0208 41.625 52.8958 41.625 57.3125C41.625 61.7708 42.3333 65.6667 43.75 69C45.2083 72.3333 47.2083 74.9375 49.75 76.8125C52.3333 78.6458 55.3333 79.5625 58.75 79.5625C62.375 79.5625 65.4792 78.7292 68.0625 77.0625C70.6875 75.3958 72.6667 72.9792 74 69.8125C75.0833 67.6875 76.5208 66.625 78.3125 66.625C79.6875 66.625 80.7708 67.0208 81.5625 67.8125C82.3958 68.6042 82.8125 69.6875 82.8125 71.0625C82.8125 71.5625 82.7708 72.0417 82.6875 72.5C82.6042 72.9583 82.4583 73.4792 82.25 74.0625C81.2083 76.9375 79.5417 79.4375 77.25 81.5625C75 83.6458 72.2708 85.2708 69.0625 86.4375C65.8958 87.5625 62.4167 88.125 58.625 88.125Z" fill="white"/>
</svg>
