<svg xmlns="http://www.w3.org/2000/svg" width="24" height="24"><path style="stroke:none;fill-rule:nonzero;fill:#fff;fill-opacity:1" d="M4.887 23.3h14.215c1.226 0 2.144-.323 2.753-.976.618-.64.926-1.605.926-2.898V4.164c0-1.293-.308-2.258-.926-2.898-.609-.653-1.527-.977-2.753-.977H4.887c-1.227 0-2.149.324-2.766.977-.61.64-.914 1.605-.914 2.898v15.262c0 1.293.305 2.258.914 2.902.617.649 1.54.973 2.766.973Zm.023-2.01c-.586 0-1.035-.165-1.348-.49-.312-.335-.468-.823-.468-1.476V4.262c0-.649.156-1.137.469-1.461.312-.336.761-.5 1.347-.5h14.168c.578 0 1.024.164 1.336.5.32.324.48.812.48 1.46v15.063c0 .653-.16 1.14-.48 1.477-.312.324-.758.488-1.336.488Zm7.102-3.653c.687 0 1.32-.106 1.898-.325a4.209 4.209 0 0 0 1.488-.949 3.734 3.734 0 0 0 .985-1.75c.015-.093.023-.187.023-.289 0-.258-.074-.46-.222-.613-.141-.156-.336-.234-.586-.234-.336 0-.598.203-.786.609-.234.61-.59 1.082-1.066 1.414-.476.324-1.047.488-1.71.488a2.62 2.62 0 0 1-1.641-.539c-.461-.36-.825-.863-1.09-1.511-.258-.649-.387-1.41-.387-2.274 0-.86.129-1.613.387-2.262.265-.66.629-1.168 1.09-1.527a2.584 2.584 0 0 1 1.64-.55c.664 0 1.235.167 1.711.5.477.327.832.796 1.066 1.413.102.207.211.364.329.461a.724.724 0 0 0 .457.137c.25 0 .445-.074.586-.223.148-.148.222-.36.222-.625a1.53 1.53 0 0 0-.105-.574 3.642 3.642 0 0 0-.903-1.453 4.357 4.357 0 0 0-1.488-.95 5.177 5.177 0 0 0-1.898-.335c-1.016 0-1.899.246-2.649.738-.742.488-1.316 1.188-1.722 2.086-.407.89-.61 1.945-.61 3.164 0 1.215.203 2.274.61 3.172.406.894.98 1.586 1.722 2.074.75.485 1.633.727 2.649.727Zm0 0"/></svg>