<svg width="20" height="7" viewBox="0 0 20 7" fill="none" xmlns="http://www.w3.org/2000/svg">
<path d="M0.335938 4.00781H8.45312V2.71094H0.335938V4.00781ZM8.125 6.14062H14.8203C15.1641 6.14062 15.4089 6.06771 15.5547 5.92188C15.7057 5.77083 15.7812 5.52344 15.7812 5.17969V1.53906C15.7812 1.20052 15.7057 0.958333 15.5547 0.8125C15.4089 0.661458 15.1641 0.585938 14.8203 0.585938H8.125C7.78125 0.585938 7.53385 0.661458 7.38281 0.8125C7.23698 0.958333 7.16406 1.20052 7.16406 1.53906V5.17969C7.16406 5.52344 7.23698 5.77083 7.38281 5.92188C7.53385 6.06771 7.78125 6.14062 8.125 6.14062ZM16.6875 5.02344H18.7109C19.0495 5.02344 19.2917 4.94792 19.4375 4.79688C19.5885 4.64583 19.6641 4.39844 19.6641 4.05469V2.66406C19.6641 2.32552 19.5885 2.08073 19.4375 1.92969C19.2917 1.77865 19.0495 1.70312 18.7109 1.70312H16.6875V5.02344Z" fill="white"/>
</svg>
