<svg xmlns="http://www.w3.org/2000/svg" width="24" height="24"><path style="stroke:none;fill-rule:nonzero;fill:#fff;fill-opacity:1" d="M12 23.063c1.633 0 3.168-.293 4.605-.883a12.29 12.29 0 0 0 3.82-2.438 11.482 11.482 0 0 0 2.59-3.586c.626-1.36.938-2.804.938-4.343 0-1.536-.312-2.981-.937-4.336a11.514 11.514 0 0 0-2.59-3.594 12.22 12.22 0 0 0-3.82-2.438 12.166 12.166 0 0 0-4.618-.883c-1.633 0-3.172.293-4.617.883a12.307 12.307 0 0 0-3.809 2.438A11.523 11.523 0 0 0 .985 7.477a10.187 10.187 0 0 0-.937 4.335c0 1.54.312 2.985.937 4.344a11.438 11.438 0 0 0 2.59 3.586 12.307 12.307 0 0 0 3.809 2.438c1.445.59 2.984.883 4.617.883Zm-4.418-5.625c-.68 0-1.191-.16-1.535-.477-.336-.313-.504-.79-.504-1.422V8.098c0-.633.168-1.11.504-1.426.344-.317.855-.473 1.535-.473h8.836c.68 0 1.187.156 1.523.473.344.316.516.793.516 1.426v7.441c0 .633-.172 1.11-.516 1.422-.336.316-.843.477-1.523.477Zm-.094-1.036H16.5c.273 0 .48-.066.621-.199.149-.133.223-.332.223-.598V9.84c0-.567-.301-.852-.903-.852H7.547c-.594 0-.89.285-.89.852v5.765c0 .266.07.465.21.598.14.133.348.195.621.195Zm3.211-5.12c-.14 0-.238-.02-.293-.063-.047-.055-.07-.14-.07-.266v-.441c0-.125.023-.215.07-.266.055-.05.153-.078.293-.078h.446c.14 0 .238.027.293.078.054.05.082.14.082.266v.441c0 .125-.028.211-.082.266-.055.043-.153.062-.293.062Zm2.156 0c-.14 0-.238-.02-.293-.063-.054-.055-.082-.14-.082-.266v-.441c0-.125.028-.215.082-.266.055-.05.153-.078.293-.078h.446c.14 0 .234.027.281.078.055.05.082.14.082.266v.441c0 .125-.027.211-.082.266-.047.043-.14.062-.281.062Zm2.157 0c-.149 0-.25-.02-.305-.063-.047-.055-.07-.14-.07-.266v-.441c0-.227.125-.344.375-.344h.433c.25 0 .375.113.375.344v.441c0 .219-.125.328-.375.328ZM8.555 13.27c-.25 0-.375-.114-.375-.332v-.43c0-.227.125-.344.375-.344h.433c.25 0 .375.113.375.344v.43c0 .132-.027.218-.082.265-.047.043-.144.067-.293.067Zm2.144 0c-.14 0-.238-.024-.293-.067-.047-.047-.07-.133-.07-.265v-.43c0-.133.023-.223.07-.266.055-.05.153-.078.293-.078h.446c.14 0 .238.027.293.078.054.043.082.133.082.266v.43c0 .132-.028.218-.082.265-.055.043-.153.067-.293.067Zm2.156 0c-.14 0-.238-.024-.293-.067-.054-.047-.082-.133-.082-.265v-.43c0-.133.028-.223.082-.266.055-.05.153-.078.293-.078h.446c.14 0 .234.027.281.078.055.043.082.133.082.266v.43c0 .132-.027.218-.082.265-.047.043-.14.067-.281.067Zm2.157 0c-.149 0-.25-.024-.305-.067-.047-.047-.07-.133-.07-.265v-.43c0-.227.125-.344.375-.344h.433c.25 0 .375.113.375.344v.43c0 .218-.125.332-.375.332Zm-6.457 1.996c-.25 0-.375-.118-.375-.356v-.418c0-.219.125-.332.375-.332h.433c.149 0 .246.024.293.067.055.046.082.132.082.265v.418c0 .238-.125.356-.375.356Zm2.144 0c-.14 0-.238-.028-.293-.079-.047-.05-.07-.144-.07-.277v-.418c0-.133.023-.219.07-.262.055-.046.153-.07.293-.07h.446c.14 0 .238.024.293.067.054.046.082.132.082.265v.418c0 .133-.028.227-.082.277-.055.051-.153.079-.293.079Zm2.156 0c-.14 0-.238-.028-.293-.079-.054-.05-.082-.144-.082-.277v-.418c0-.133.028-.219.082-.262.055-.046.153-.07.293-.07h.446c.14 0 .234.024.281.067.055.046.082.132.082.265v.418c0 .133-.027.227-.082.277-.047.051-.14.079-.281.079Zm0 0"/></svg>