<svg width="156" height="116" viewBox="0 0 156 116" fill="none" xmlns="http://www.w3.org/2000/svg">
<path d="M119.5 70.875V96.6875C119.5 99.5625 118.729 101.729 117.188 103.188C115.688 104.688 113.542 105.438 110.75 105.438H23.6875C20.8958 105.438 18.75 104.688 17.25 103.188C15.75 101.729 15 99.5625 15 96.6875V70.875H4.9375V96.125C4.9375 102.583 6.58333 107.417 9.875 110.625C13.1667 113.875 18.0625 115.5 24.5625 115.5H109.938C116.479 115.5 121.375 113.875 124.625 110.625C127.917 107.417 129.562 102.583 129.562 96.125V70.875H119.5ZM147.438 15.875C149.562 15.875 151.375 15.125 152.875 13.625C154.375 12.125 155.125 10.3125 155.125 8.1875C155.125 6.0625 154.375 4.25 152.875 2.75C151.375 1.25 149.562 0.5 147.438 0.5C145.312 0.5 143.5 1.25 142 2.75C140.5 4.25 139.75 6.0625 139.75 8.1875C139.75 10.3125 140.5 12.125 142 13.625C143.5 15.125 145.312 15.875 147.438 15.875ZM147.438 40.6875C149.562 40.6875 151.375 39.9375 152.875 38.4375C154.375 36.9375 155.125 35.125 155.125 33C155.125 30.875 154.375 29.0625 152.875 27.5625C151.375 26.0625 149.562 25.3125 147.438 25.3125C145.312 25.3125 143.5 26.0625 142 27.5625C140.5 29.0625 139.75 30.875 139.75 33C139.75 35.125 140.5 36.9375 142 38.4375C143.5 39.9375 145.312 40.6875 147.438 40.6875ZM147.438 90.375C149.562 90.375 151.375 89.625 152.875 88.125C154.375 86.625 155.125 84.8125 155.125 82.6875C155.125 80.5625 154.375 78.75 152.875 77.25C151.375 75.7083 149.562 74.9375 147.438 74.9375C145.312 74.9375 143.5 75.7083 142 77.25C140.5 78.75 139.75 80.5625 139.75 82.6875C139.75 84.8125 140.5 86.625 142 88.125C143.5 89.625 145.312 90.375 147.438 90.375ZM147.438 115.25C149.562 115.25 151.375 114.5 152.875 113C154.375 111.5 155.125 109.688 155.125 107.562C155.125 105.438 154.375 103.625 152.875 102.125C151.375 100.583 149.562 99.8125 147.438 99.8125C145.312 99.8125 143.5 100.583 142 102.125C140.5 103.625 139.75 105.438 139.75 107.562C139.75 109.688 140.5 111.5 142 113C143.5 114.5 145.312 115.25 147.438 115.25ZM147.438 66.375C149.771 66.375 151.771 65.5417 153.438 63.875C155.104 62.2083 155.938 60.2083 155.938 57.875C155.938 55.5417 155.104 53.5417 153.438 51.875C151.771 50.2083 149.771 49.375 147.438 49.375C145.104 49.375 143.104 50.2083 141.438 51.875C139.771 53.5417 138.938 55.5417 138.938 57.875C138.938 60.2083 139.771 62.2083 141.438 63.875C143.104 65.5417 145.104 66.375 147.438 66.375ZM0.5625 57.9375C0.5625 59.1458 0.979167 60.1875 1.8125 61.0625C2.6875 61.9375 3.72917 62.375 4.9375 62.375H143.688V53.5625H4.9375C3.72917 53.5625 2.6875 54 1.8125 54.875C0.979167 55.7083 0.5625 56.7292 0.5625 57.9375ZM129.562 45V19.8125C129.562 13.3542 127.917 8.52083 124.625 5.3125C121.375 2.0625 116.479 0.4375 109.938 0.4375H24.5625C18.0625 0.4375 13.1667 2.0625 9.875 5.3125C6.58333 8.52083 4.9375 13.3542 4.9375 19.8125V45H15V19.25C15 16.375 15.75 14.2083 17.25 12.75C18.75 11.25 20.8958 10.5 23.6875 10.5H110.75C113.542 10.5 115.688 11.25 117.188 12.75C118.729 14.2083 119.5 16.375 119.5 19.25V45H129.562Z" fill="white"/>
</svg>
