<svg xmlns="http://www.w3.org/2000/svg" width="24" height="24"><path style="stroke:none;fill-rule:nonzero;fill:#fff;fill-opacity:1" d="M6.14 14.375H4.634v5.055c0 1.289.242 2.25.73 2.894.492.649 1.23.977 2.211.977h12.809c.972 0 1.707-.328 2.203-.977.492-.64.738-1.605.738-2.898v-5.051h-1.508v5.16c0 .578-.113 1.012-.34 1.305-.222.297-.542.445-.953.445H7.453c-.418 0-.742-.148-.976-.445-.223-.293-.336-.727-.336-1.305Zm-4.19-11c.32 0 .59-.152.816-.45.226-.3.336-.663.336-1.085 0-.43-.11-.79-.336-1.09C2.55.457 2.258.293 1.949.3c-.316 0-.59.15-.816.45-.219.285-.34.68-.336 1.09 0 .422.113.785.336 1.086.226.297.5.449.816.449Zm0 4.965c.32 0 .59-.152.816-.453.226-.297.336-.664.336-1.086.007-.406-.114-.805-.336-1.086-.215-.297-.508-.461-.817-.453-.316 0-.59.148-.816.453C.914 6 .793 6.395.797 6.8c0 .422.113.789.336 1.086.226.3.5.453.816.453Zm0 9.937c.32 0 .59-.152.816-.453.226-.297.336-.664.336-1.086.007-.406-.114-.804-.336-1.086-.211-.3-.508-.468-.817-.464-.316 0-.59.156-.816.464-.219.286-.34.68-.336 1.086 0 .422.113.79.336 1.086.226.301.5.453.816.453Zm0 4.973c.32 0 .59-.152.816-.45.226-.3.336-.663.336-1.085 0-.43-.11-.79-.336-1.09-.211-.3-.508-.469-.817-.465-.316 0-.59.156-.816.465-.219.285-.34.68-.336 1.09 0 .422.113.785.336 1.086.226.297.5.449.816.449Zm0-9.777c.35 0 .652-.164.902-.5.25-.332.375-.735.375-1.196.003-.453-.13-.89-.375-1.203-.235-.328-.563-.508-.903-.5-.347 0-.648.164-.898.5-.25.332-.375.735-.375 1.203 0 .461.125.864.375 1.196.25.336.55.5.898.5Zm22.03-1.688c0-.23-.07-.45-.195-.61-.117-.171-.285-.269-.46-.265H2.511v1.766h20.812c.176.004.344-.09.461-.266.125-.164.195-.387.195-.625ZM4.633 9.2H6.14V4.055c0-.578.113-1.012.336-1.305.234-.3.558-.445.976-.445h13.07c.41 0 .73.144.954.445.226.293.34.727.34 1.305v5.144h1.507V4.16c0-1.293-.246-2.254-.738-2.902-.496-.645-1.23-.973-2.203-.973H7.574c-.98 0-1.719.328-2.21.973-.489.648-.731 1.61-.731 2.902Zm0 0"/></svg>