<svg xmlns="http://www.w3.org/2000/svg" width="24" height="24"><path style="stroke:none;fill-rule:nonzero;fill:#fff;fill-opacity:1" d="M3.996 23.3h16.008c1.226 0 2.144-.323 2.754-.976.61-.64.914-1.605.914-2.898V4.164c0-1.293-.305-2.258-.914-2.898-.61-.653-1.528-.977-2.754-.977H3.996c-1.226 0-2.148.324-2.766.977C.621 1.902.316 2.87.316 4.164v15.262c0 1.289.305 2.258.914 2.898.618.653 1.54.977 2.766.977Zm-.176-2.01c-.515 0-.914-.153-1.195-.454-.281-.29-.422-.723-.422-1.3V7.75c0-.574.14-1.008.422-1.3.281-.298.68-.45 1.195-.45h16.336c.524 0 .926.148 1.207.45.282.292.422.726.422 1.3v11.785c0 .578-.14 1.012-.422 1.305-.281.297-.683.45-1.207.45ZM9.715 10.5h.691c.203 0 .344-.043.422-.125.086-.082.129-.234.129-.45v-.738c0-.218-.043-.363-.129-.437-.078-.082-.219-.125-.422-.125h-.691c-.203 0-.348.043-.434.125-.078.074-.117.219-.117.438v.738c0 .215.04.367.117.449.086.082.23.125.434.125Zm3.89 0h.692c.21 0 .355-.043.433-.125.079-.082.118-.234.118-.45v-.738c0-.218-.04-.363-.118-.437-.078-.082-.222-.125-.433-.125h-.692c-.203 0-.343.043-.421.125-.079.074-.118.219-.118.438v.738c0 .215.04.367.118.449.078.082.218.125.421.125Zm3.903 0h.68c.21 0 .355-.043.433-.125.078-.082.117-.234.117-.45v-.738c0-.218-.039-.363-.117-.437-.078-.082-.223-.125-.433-.125h-.68c-.211 0-.356.043-.434.125-.078.074-.117.219-.117.438v.738c0 .215.04.367.117.449.078.082.223.125.434.125ZM5.824 14.586h.692c.203 0 .343-.04.421-.121.079-.086.118-.238.118-.453v-.723c0-.226-.04-.379-.117-.453-.079-.082-.22-.125-.422-.125h-.692c-.21 0-.355.043-.433.125-.079.074-.118.226-.118.453v.723c0 .218.04.367.118.453.078.082.222.12.433.12Zm3.89 0h.692c.203 0 .344-.04.422-.121.086-.086.129-.238.129-.453v-.723c0-.226-.043-.379-.129-.453-.078-.082-.219-.125-.422-.125h-.691c-.203 0-.348.043-.434.125-.078.074-.117.226-.117.453v.723c0 .218.04.367.117.453.086.082.23.12.434.12Zm3.891 0h.692c.21 0 .355-.04.433-.121.079-.086.118-.238.118-.453v-.723c0-.226-.04-.379-.118-.453-.078-.082-.222-.125-.433-.125h-.692c-.203 0-.343.043-.421.125-.079.074-.118.226-.118.453v.723c0 .218.04.367.118.453.078.082.218.12.421.12Zm3.903 0h.68c.21 0 .355-.04.433-.121.078-.086.117-.238.117-.453v-.723c0-.226-.039-.379-.117-.453-.078-.082-.223-.125-.433-.125h-.68c-.211 0-.356.043-.434.125-.078.074-.117.226-.117.453v.723c0 .218.04.367.117.453.078.082.223.12.434.12Zm-11.684 4.09h.692c.203 0 .343-.04.421-.113.079-.083.118-.239.118-.461v-.727c0-.223-.04-.375-.117-.45-.079-.085-.22-.124-.422-.124h-.692c-.21 0-.355.043-.433.125-.079.074-.118.222-.118.449v.727c0 .222.04.378.118.46.078.075.222.114.433.114Zm3.89 0h.692c.203 0 .344-.04.422-.113.086-.083.129-.239.129-.461v-.727c0-.223-.043-.375-.129-.45-.078-.085-.219-.124-.422-.124h-.691c-.203 0-.348.043-.434.125-.078.074-.117.222-.117.449v.727c0 .222.04.378.117.46.086.075.23.114.434.114Zm3.891 0h.692c.21 0 .355-.04.433-.113.079-.083.118-.239.118-.461v-.727c0-.223-.04-.375-.118-.45-.078-.085-.222-.124-.433-.124h-.692c-.203 0-.343.043-.421.125-.079.074-.118.222-.118.449v.727c0 .222.04.378.118.46.078.075.218.114.421.114Zm0 0"/></svg>