<svg xmlns="http://www.w3.org/2000/svg" width="24" height="24"><path style="stroke:none;fill-rule:nonzero;fill:#fff;fill-opacity:1" d="M12 23.05c1.633 0 3.168-.292 4.605-.882a12.22 12.22 0 0 0 3.82-2.438 11.467 11.467 0 0 0 2.59-3.582c.626-1.363.938-2.808.938-4.347a10.2 10.2 0 0 0-.937-4.332 11.53 11.53 0 0 0-2.59-3.598 12.361 12.361 0 0 0-3.82-2.437A12.166 12.166 0 0 0 11.987.55c-1.633 0-3.172.293-4.617.883A12.307 12.307 0 0 0 3.562 3.87 11.523 11.523 0 0 0 .985 7.465 10.2 10.2 0 0 0 .047 11.8c0 1.539.312 2.984.937 4.347a11.467 11.467 0 0 0 2.59 3.582 12.236 12.236 0 0 0 3.809 2.438c1.445.59 2.984.883 4.617.883Zm0-1.874a10.222 10.222 0 0 1-7.055-2.734 9.548 9.548 0 0 1-2.133-2.989 8.83 8.83 0 0 1-.761-3.652c0-1.301.254-2.52.761-3.649A9.52 9.52 0 0 1 4.946 5.16 9.82 9.82 0 0 1 8.11 3.156c1.204-.488 2.496-.73 3.88-.73 1.382 0 2.675.242 3.878.73a9.701 9.701 0 0 1 3.176 2.004 9.432 9.432 0 0 1 2.145 2.992 8.685 8.685 0 0 1 .773 3.649c0 1.3-.258 2.52-.773 3.652a9.22 9.22 0 0 1-2.133 2.988A10.222 10.222 0 0 1 12 21.176Zm-4.3-3.938h8.577c.657 0 1.149-.148 1.477-.453.328-.308.492-.765.492-1.379V8.184c0-.61-.164-1.067-.492-1.368-.328-.308-.82-.464-1.477-.464H7.7c-.656 0-1.148.156-1.476.464-.328.301-.493.758-.493 1.368v7.222c0 .614.165 1.07.493 1.38.328.304.82.452 1.476.452Zm-.083-1.004c-.265 0-.469-.062-.61-.187-.132-.133-.198-.328-.198-.582V9.883c0-.551.289-.828.867-.828h8.613c.586 0 .879.277.879.828v5.582c0 .254-.07.45-.211.582-.133.125-.336.187-.61.187Zm3.106-4.96h.433c.133 0 .227-.024.281-.067.055-.047.083-.129.083-.254v-.422c0-.12-.028-.207-.082-.254-.055-.05-.149-.074-.282-.074h-.433c-.133 0-.227.024-.282.078-.046.043-.07.13-.07.254v.418c0 .125.024.207.07.254.055.043.149.066.282.066Zm2.097 0h.434c.133 0 .223-.024.27-.067.054-.047.081-.129.081-.254v-.422c0-.12-.027-.207-.082-.254-.046-.05-.136-.074-.27-.074h-.433c-.133 0-.226.024-.28.078-.056.043-.083.13-.083.254v.418c0 .125.027.207.082.254.055.043.149.066.281.066Zm2.086 0h.422c.242 0 .363-.11.363-.32v-.423c0-.219-.12-.328-.363-.328h-.422c-.242 0-.363.11-.363.328v.422c0 .125.023.207.07.254.055.043.153.066.293.066Zm-6.258 1.93h.422c.14 0 .235-.024.282-.067.054-.047.082-.13.082-.254v-.418c0-.223-.121-.332-.364-.332h-.422c-.242 0-.363.11-.363.332v.418c0 .21.121.32.363.32Zm2.075 0h.433c.133 0 .227-.024.281-.067.055-.047.083-.13.083-.254v-.418c0-.13-.028-.211-.082-.258-.055-.05-.149-.074-.282-.074h-.433c-.133 0-.227.023-.282.078-.046.043-.07.125-.07.254v.418c0 .125.024.207.07.254.055.043.149.066.282.066Zm2.097 0h.434c.133 0 .223-.024.27-.067.054-.047.081-.13.081-.254v-.418c0-.13-.027-.211-.082-.258-.046-.05-.136-.074-.27-.074h-.433c-.133 0-.226.023-.28.078-.056.043-.083.125-.083.254v.418c0 .125.027.207.082.254.055.043.149.066.281.066Zm2.086 0h.422c.242 0 .363-.11.363-.321v-.418c0-.223-.12-.332-.363-.332h-.422c-.242 0-.363.11-.363.332v.418c0 .125.023.207.07.254.055.043.153.066.293.066Zm-6.258 1.94h.422c.242 0 .364-.113.364-.343v-.406c0-.125-.028-.211-.082-.254-.047-.043-.141-.067-.282-.067h-.422c-.242 0-.363.106-.363.32v.407c0 .23.121.344.363.344Zm2.075 0h.433c.133 0 .227-.023.281-.066.055-.05.083-.144.083-.277v-.406c0-.125-.028-.211-.082-.254-.055-.043-.149-.067-.282-.067h-.433c-.133 0-.227.024-.282.067-.046.043-.07.129-.07.254v.406c0 .133.024.226.07.277.055.043.149.067.282.067Zm2.097 0h.434c.133 0 .223-.023.27-.066.054-.05.081-.144.081-.277v-.406c0-.125-.027-.211-.082-.254-.046-.043-.136-.067-.27-.067h-.433c-.133 0-.226.024-.28.067-.056.043-.083.129-.083.254v.406c0 .133.027.226.082.277.055.043.149.067.281.067Zm0 0"/></svg>