<?xml version="1.0" encoding="UTF-8"?>
<svg xmlns="http://www.w3.org/2000/svg" xmlns:xlink="http://www.w3.org/1999/xlink" width="24" height="25.5" viewBox="0 0 24 25.5" version="1.1">
<g id="surface1">
<path style=" stroke:none;fill-rule:nonzero;fill:rgb(100%,100%,100%);fill-opacity:1;" d="M 12 24.492188 C 13.632812 24.492188 15.167969 24.179688 16.605469 23.554688 C 18.050781 22.929688 19.324219 22.066406 20.425781 20.964844 C 21.527344 19.863281 22.390625 18.59375 23.015625 17.15625 C 23.640625 15.710938 23.953125 14.171875 23.953125 12.539062 C 23.953125 10.90625 23.640625 9.371094 23.015625 7.933594 C 22.390625 6.488281 21.527344 5.214844 20.425781 4.113281 C 19.324219 3.011719 18.050781 2.148438 16.605469 1.523438 C 15.160156 0.898438 13.621094 0.585938 11.988281 0.585938 C 10.355469 0.585938 8.816406 0.898438 7.371094 1.523438 C 5.933594 2.148438 4.664062 3.011719 3.5625 4.113281 C 2.46875 5.214844 1.609375 6.488281 0.984375 7.933594 C 0.359375 9.371094 0.046875 10.90625 0.046875 12.539062 C 0.046875 14.171875 0.359375 15.710938 0.984375 17.15625 C 1.609375 18.59375 2.472656 19.863281 3.574219 20.964844 C 4.675781 22.066406 5.945312 22.929688 7.382812 23.554688 C 8.828125 24.179688 10.367188 24.492188 12 24.492188 Z M 12 22.5 C 10.617188 22.5 9.324219 22.242188 8.121094 21.726562 C 6.917969 21.210938 5.859375 20.5 4.945312 19.59375 C 4.039062 18.679688 3.328125 17.621094 2.8125 16.417969 C 2.304688 15.214844 2.050781 13.921875 2.050781 12.539062 C 2.050781 11.15625 2.304688 9.863281 2.8125 8.660156 C 3.328125 7.457031 4.039062 6.398438 4.945312 5.484375 C 5.851562 4.570312 6.90625 3.859375 8.109375 3.351562 C 9.3125 2.835938 10.605469 2.578125 11.988281 2.578125 C 13.371094 2.578125 14.664062 2.835938 15.867188 3.351562 C 17.078125 3.859375 18.136719 4.570312 19.042969 5.484375 C 19.957031 6.398438 20.671875 7.457031 21.1875 8.660156 C 21.703125 9.863281 21.960938 11.15625 21.960938 12.539062 C 21.960938 13.921875 21.703125 15.214844 21.1875 16.417969 C 20.679688 17.621094 19.96875 18.679688 19.054688 19.59375 C 18.140625 20.5 17.082031 21.210938 15.878906 21.726562 C 14.675781 22.242188 13.382812 22.5 12 22.5 Z M 8.425781 7.136719 C 8.269531 7.488281 8.152344 7.832031 8.074219 8.167969 C 8.003906 8.503906 7.96875 8.839844 7.96875 9.175781 C 7.96875 9.910156 8.132812 10.585938 8.460938 11.203125 C 8.796875 11.8125 9.261719 12.300781 9.855469 12.667969 C 10.457031 13.027344 11.164062 13.207031 11.976562 13.207031 C 12.789062 13.207031 13.496094 13.027344 14.097656 12.667969 C 14.699219 12.300781 15.164062 11.8125 15.492188 11.203125 C 15.820312 10.585938 15.984375 9.910156 15.984375 9.175781 C 15.984375 8.839844 15.949219 8.503906 15.878906 8.167969 C 15.808594 7.832031 15.699219 7.488281 15.550781 7.136719 C 15.488281 6.996094 15.378906 6.914062 15.222656 6.890625 C 15.074219 6.867188 14.941406 6.917969 14.824219 7.042969 L 13.476562 8.425781 L 12.328125 6.925781 C 12.234375 6.800781 12.117188 6.738281 11.976562 6.738281 C 11.84375 6.738281 11.730469 6.800781 11.636719 6.925781 L 10.476562 8.425781 L 9.128906 7.042969 C 9.011719 6.917969 8.878906 6.867188 8.730469 6.890625 C 8.582031 6.914062 8.480469 6.996094 8.425781 7.136719 Z M 11.472656 19.347656 C 11.472656 19.488281 11.519531 19.605469 11.613281 19.699219 C 11.714844 19.785156 11.835938 19.828125 11.976562 19.828125 C 13.015625 19.828125 14.003906 19.632812 14.941406 19.242188 C 15.878906 18.84375 16.695312 18.292969 17.390625 17.589844 C 18.09375 16.886719 18.601562 16.082031 18.914062 15.175781 C 18.992188 14.988281 18.996094 14.835938 18.925781 14.71875 C 18.855469 14.601562 18.71875 14.542969 18.515625 14.542969 C 17.484375 14.542969 16.554688 14.730469 15.726562 15.105469 C 14.898438 15.472656 14.191406 15.96875 13.605469 16.59375 C 13.019531 17.21875 12.578125 17.917969 12.28125 18.691406 L 12.480469 18.902344 L 12.480469 12.5625 L 11.472656 12.5625 Z M 10.769531 17.144531 C 10.207031 16.378906 9.46875 15.753906 8.554688 15.269531 C 7.648438 14.785156 6.609375 14.542969 5.4375 14.542969 C 5.234375 14.542969 5.09375 14.601562 5.015625 14.71875 C 4.945312 14.835938 4.945312 14.988281 5.015625 15.175781 C 5.296875 15.972656 5.722656 16.691406 6.292969 17.332031 C 6.871094 17.972656 7.546875 18.5 8.320312 18.914062 C 9.101562 19.328125 9.941406 19.59375 10.839844 19.710938 C 10.816406 19.65625 10.796875 19.601562 10.78125 19.546875 C 10.773438 19.484375 10.769531 19.417969 10.769531 19.347656 Z M 10.769531 17.144531 "/>
</g>
</svg>
