<svg width="16" height="17" viewBox="0 0 16 17" fill="none" xmlns="http://www.w3.org/2000/svg">
<path d="M8 12.1953C8.69792 12.1953 9.33594 12.0208 9.91406 11.6719C10.4974 11.3229 10.9635 10.8594 11.3125 10.2812C11.6615 9.69792 11.8359 9.05729 11.8359 8.35938C11.8359 7.66146 11.6615 7.02083 11.3125 6.4375C10.9635 5.85417 10.4974 5.38802 9.91406 5.03906C9.33594 4.6901 8.69792 4.51562 8 4.51562C7.30208 4.51562 6.66146 4.6901 6.07812 5.03906C5.5 5.38802 5.03646 5.85417 4.6875 6.4375C4.33854 7.02083 4.16406 7.66146 4.16406 8.35938C4.16406 9.05729 4.33854 9.69792 4.6875 10.2812C5.03646 10.8594 5.5 11.3229 6.07812 11.6719C6.66146 12.0208 7.30208 12.1953 8 12.1953ZM8 11.0156C7.52083 11.0156 7.07812 10.8958 6.67188 10.6562C6.27083 10.4115 5.94792 10.0885 5.70312 9.6875C5.46354 9.28125 5.34375 8.83854 5.34375 8.35938C5.34375 7.875 5.46354 7.43229 5.70312 7.03125C5.94792 6.625 6.27083 6.30208 6.67188 6.0625C7.07292 5.81771 7.51562 5.69531 8 5.69531C8.47917 5.69531 8.91927 5.81771 9.32031 6.0625C9.72656 6.30208 10.0495 6.625 10.2891 7.03125C10.5339 7.43229 10.6562 7.875 10.6562 8.35938C10.6562 8.84375 10.5339 9.28646 10.2891 9.6875C10.0495 10.0885 9.72917 10.4115 9.32812 10.6562C8.92708 10.8958 8.48438 11.0156 8 11.0156ZM14.5703 5.69531V4.52344L8.03906 4.51562V5.69531H14.5703ZM13.6172 12.7969L14.6094 12.1719L11.3828 6.57812L10.3672 7.16406L13.6172 12.7969ZM7.00781 15.3672L8.03906 15.9219L11.2812 10.3281L10.2656 9.73438L7.00781 15.3672ZM1.42969 11.0156V12.1875L7.96094 12.1953V11.0156H1.42969ZM2.38281 3.90625L1.39062 4.53906L4.61719 10.1328L5.63281 9.54688L2.38281 3.90625ZM8.99219 1.33594L7.96094 0.789062L4.71875 6.38281L5.73438 6.97656L8.99219 1.33594ZM8 16.3281C9.08854 16.3281 10.112 16.1198 11.0703 15.7031C12.0339 15.2865 12.8828 14.7109 13.6172 13.9766C14.3516 13.2422 14.9271 12.3958 15.3438 11.4375C15.7604 10.474 15.9688 9.44792 15.9688 8.35938C15.9688 7.27083 15.7604 6.2474 15.3438 5.28906C14.9271 4.32552 14.3516 3.47656 13.6172 2.74219C12.8828 2.00781 12.0339 1.43229 11.0703 1.01562C10.1068 0.598958 9.08073 0.390625 7.99219 0.390625C6.90365 0.390625 5.8776 0.598958 4.91406 1.01562C3.95573 1.43229 3.10938 2.00781 2.375 2.74219C1.64583 3.47656 1.07292 4.32552 0.65625 5.28906C0.239583 6.2474 0.03125 7.27083 0.03125 8.35938C0.03125 9.44792 0.239583 10.474 0.65625 11.4375C1.07292 12.3958 1.64844 13.2422 2.38281 13.9766C3.11719 14.7109 3.96354 15.2865 4.92188 15.7031C5.88542 16.1198 6.91146 16.3281 8 16.3281ZM8 15C7.07812 15 6.21615 14.8281 5.41406 14.4844C4.61198 14.1406 3.90625 13.6667 3.29688 13.0625C2.69271 12.4531 2.21875 11.7474 1.875 10.9453C1.53646 10.1432 1.36719 9.28125 1.36719 8.35938C1.36719 7.4375 1.53646 6.57552 1.875 5.77344C2.21875 4.97135 2.69271 4.26562 3.29688 3.65625C3.90104 3.04688 4.60417 2.57292 5.40625 2.23438C6.20833 1.89062 7.07031 1.71875 7.99219 1.71875C8.91406 1.71875 9.77604 1.89062 10.5781 2.23438C11.3854 2.57292 12.0911 3.04688 12.6953 3.65625C13.3047 4.26562 13.7812 4.97135 14.125 5.77344C14.4688 6.57552 14.6406 7.4375 14.6406 8.35938C14.6406 9.28125 14.4688 10.1432 14.125 10.9453C13.7865 11.7474 13.3125 12.4531 12.7031 13.0625C12.0938 13.6667 11.388 14.1406 10.5859 14.4844C9.78385 14.8281 8.92188 15 8 15Z" fill="white"/>
</svg>
