<svg width="138" height="132" viewBox="0 0 138 132" fill="none" xmlns="http://www.w3.org/2000/svg">
<path d="M44.1875 131.562C50.2708 131.562 55.9583 130.417 61.25 128.125C66.5833 125.833 71.2708 122.667 75.3125 118.625C79.3542 114.625 82.5 109.958 84.75 104.625C87.0417 99.2917 88.1875 93.5833 88.1875 87.5C88.1875 81.4583 87.0417 75.7917 84.75 70.5C82.4583 65.1667 79.2917 60.5 75.25 56.5C71.25 52.4583 66.5833 49.2917 61.25 47C55.9583 44.7083 50.2708 43.5625 44.1875 43.5625C38.1458 43.5625 32.4583 44.7083 27.125 47C21.7917 49.2917 17.1042 52.4583 13.0625 56.5C9.0625 60.5 5.91667 65.1667 3.625 70.5C1.33333 75.7917 0.1875 81.4583 0.1875 87.5C0.1875 93.5833 1.33333 99.2917 3.625 104.625C5.91667 109.958 9.0625 114.625 13.0625 118.625C17.1042 122.667 21.7917 125.833 27.125 128.125C32.4583 130.417 38.1458 131.562 44.1875 131.562ZM44.1875 121.562C39.5208 121.562 35.125 120.667 31 118.875C26.875 117.125 23.25 114.688 20.125 111.562C17 108.479 14.5625 104.875 12.8125 100.75C11.0625 96.625 10.1875 92.2083 10.1875 87.5C10.1875 82.8333 11.0625 78.4583 12.8125 74.375C14.5625 70.25 17 66.6458 20.125 63.5625C23.25 60.4375 26.875 58 31 56.25C35.125 54.4583 39.5208 53.5625 44.1875 53.5625C48.8958 53.5625 53.2917 54.4583 57.375 56.25C61.5 58 65.1042 60.4375 68.1875 63.5625C71.3125 66.6458 73.75 70.25 75.5 74.375C77.2917 78.4583 78.1875 82.8333 78.1875 87.5C78.1875 92.2083 77.2917 96.625 75.5 100.75C73.75 104.875 71.3125 108.479 68.1875 111.562C65.1042 114.688 61.5 117.125 57.375 118.875C53.2917 120.667 48.8958 121.562 44.1875 121.562ZM69.125 88.625C75.1667 88.625 80.8333 87.5 86.125 85.25C91.4583 82.9583 96.1458 79.7917 100.188 75.75C104.229 71.7083 107.375 67.0417 109.625 61.75C111.917 56.4167 113.062 50.7083 113.062 44.625C113.062 38.5417 111.917 32.8542 109.625 27.5625C107.375 22.2708 104.229 17.6042 100.188 13.5625C96.1458 9.52083 91.4583 6.35417 86.125 4.0625C80.8333 1.77083 75.1667 0.625 69.125 0.625C63.0417 0.625 57.3333 1.77083 52 4.0625C46.7083 6.35417 42.0417 9.52083 38 13.5625C33.9583 17.6042 30.7917 22.2708 28.5 27.5625C26.2083 32.8542 25.0625 38.5417 25.0625 44.625C25.0625 50.7083 26.2083 56.4167 28.5 61.75C30.7917 67.0417 33.9583 71.7083 38 75.75C42.0417 79.7917 46.7083 82.9583 52 85.25C57.3333 87.5 63.0417 88.625 69.125 88.625ZM69.125 78.625C64.4167 78.625 60 77.75 55.875 76C51.75 74.25 48.125 71.8125 45 68.6875C41.9167 65.5625 39.4792 61.9583 37.6875 57.875C35.9375 53.75 35.0625 49.3333 35.0625 44.625C35.0625 39.9167 35.9375 35.5208 37.6875 31.4375C39.4792 27.3542 41.9167 23.75 45 20.625C48.125 17.5 51.75 15.0625 55.875 13.3125C60 11.5208 64.4167 10.625 69.125 10.625C73.7917 10.625 78.1667 11.5208 82.25 13.3125C86.375 15.0625 90 17.5 93.125 20.625C96.25 23.7083 98.6875 27.3125 100.438 31.4375C102.188 35.5208 103.062 39.9167 103.062 44.625C103.062 49.3333 102.188 53.75 100.438 57.875C98.6875 61.9583 96.25 65.5625 93.125 68.6875C90 71.8125 86.375 74.25 82.25 76C78.1667 77.75 73.7917 78.625 69.125 78.625ZM94.0625 131.562C100.104 131.562 105.771 130.417 111.062 128.125C116.396 125.833 121.083 122.667 125.125 118.625C129.167 114.625 132.312 109.958 134.562 104.625C136.854 99.2917 138 93.5833 138 87.5C138 81.4583 136.854 75.7917 134.562 70.5C132.312 65.1667 129.167 60.5 125.125 56.5C121.083 52.4583 116.396 49.2917 111.062 47C105.771 44.7083 100.104 43.5625 94.0625 43.5625C87.9792 43.5625 82.2708 44.7083 76.9375 47C71.6042 49.2917 66.9167 52.4583 62.875 56.5C58.875 60.5 55.7292 65.1667 53.4375 70.5C51.1458 75.7917 50 81.4583 50 87.5C50 93.5833 51.1458 99.2917 53.4375 104.625C55.7292 109.958 58.875 114.625 62.875 118.625C66.9167 122.667 71.6042 125.833 76.9375 128.125C82.2708 130.417 87.9792 131.562 94.0625 131.562ZM94.0625 121.562C89.3542 121.562 84.9375 120.667 80.8125 118.875C76.6875 117.125 73.0625 114.688 69.9375 111.562C66.8542 108.479 64.4167 104.875 62.625 100.75C60.875 96.625 60 92.2083 60 87.5C60 82.8333 60.875 78.4583 62.625 74.375C64.4167 70.25 66.8542 66.6458 69.9375 63.5625C73.0625 60.4375 76.6875 58 80.8125 56.25C84.9375 54.4583 89.3542 53.5625 94.0625 53.5625C98.7292 53.5625 103.104 54.4583 107.188 56.25C111.312 58 114.917 60.4375 118 63.5625C121.125 66.6458 123.562 70.25 125.312 74.375C127.104 78.4583 128 82.8333 128 87.5C128 92.2083 127.125 96.625 125.375 100.75C123.625 104.875 121.188 108.479 118.062 111.562C114.979 114.688 111.375 117.125 107.25 118.875C103.125 120.667 98.7292 121.562 94.0625 121.562Z" fill="white"/>
</svg>
