<svg width="149" height="116" viewBox="0 0 149 116" fill="none" xmlns="http://www.w3.org/2000/svg">
<path d="M20.5625 115.438H70.4375V105.375H20.6875C17.5625 105.375 15.1667 104.562 13.5 102.938C11.8333 101.271 11 98.8125 11 95.5625V62.1875H0.9375V96.125C0.9375 102.542 2.5625 107.354 5.8125 110.562C9.10417 113.812 14.0208 115.438 20.5625 115.438ZM79 115.438H128.688C135.271 115.438 140.188 113.812 143.438 110.562C146.688 107.354 148.312 102.542 148.312 96.125V62.1875H138.25V95.5625C138.25 98.8125 137.396 101.271 135.688 102.938C134.021 104.562 131.646 105.375 128.562 105.375H79V115.438ZM138.25 53.6875H148.312V19.75C148.312 13.3333 146.688 8.5 143.438 5.25C140.188 2 135.271 0.375 128.688 0.375H79V10.4375H128.562C131.646 10.4375 134.021 11.2708 135.688 12.9375C137.396 14.6042 138.25 17.0625 138.25 20.3125V53.6875ZM0.9375 53.6875H11V20.3125C11 17.0625 11.8333 14.6042 13.5 12.9375C15.1667 11.2708 17.5625 10.4375 20.6875 10.4375H70.4375V0.375H20.5625C14.0208 0.375 9.10417 2 5.8125 5.25C2.5625 8.45833 0.9375 13.2917 0.9375 19.75V53.6875ZM74.8125 78.5C78.5625 78.5 82 77.5625 85.125 75.6875C88.25 73.8125 90.7292 71.3125 92.5625 68.1875C94.4375 65.0208 95.375 61.5417 95.375 57.75C95.375 54 94.4375 50.5625 92.5625 47.4375C90.7292 44.3125 88.25 41.8333 85.125 40C82 38.125 78.5625 37.1875 74.8125 37.1875C71.0208 37.1875 67.5417 38.125 64.375 40C61.25 41.8333 58.75 44.3125 56.875 47.4375C55 50.5625 54.0625 54 54.0625 57.75C54.0625 61.5417 55 65.0208 56.875 68.1875C58.75 71.3125 61.25 73.8125 64.375 75.6875C67.5417 77.5625 71.0208 78.5 74.8125 78.5Z" fill="white"/>
</svg>
