<svg width="20" height="18" viewBox="0 0 20 18" fill="none" xmlns="http://www.w3.org/2000/svg">
<path d="M1.45312 1.28125L3.64844 3.16406C3.71615 3.22135 3.78646 3.27083 3.85938 3.3125C3.9375 3.35417 4.01823 3.375 4.10156 3.375C4.1849 3.375 4.26562 3.35417 4.34375 3.3125C4.42188 3.27083 4.49479 3.22135 4.5625 3.16406L6.75781 1.28125C6.91927 1.14583 7 0.994792 7 0.828125C7.00521 0.65625 6.95573 0.507812 6.85156 0.382812C6.7474 0.257812 6.60938 0.1875 6.4375 0.171875C6.27083 0.151042 6.09896 0.221354 5.92188 0.382812L4.10156 2.04688L2.28906 0.382812C2.10677 0.221354 1.93229 0.151042 1.76562 0.171875C1.59896 0.1875 1.46354 0.257812 1.35938 0.382812C1.25521 0.507812 1.20312 0.65625 1.20312 0.828125C1.20833 0.994792 1.29167 1.14583 1.45312 1.28125ZM2.85938 17.5625H17.1406C17.9531 17.5625 18.5651 17.3594 18.9766 16.9531C19.388 16.5521 19.5938 15.9479 19.5938 15.1406V6.96094C19.5938 6.15885 19.388 5.55729 18.9766 5.15625C18.5651 4.75 17.9531 4.54688 17.1406 4.54688H14.9062C14.6979 4.54688 14.5312 4.53125 14.4062 4.5C14.2812 4.46875 14.1693 4.41667 14.0703 4.34375C13.9766 4.26562 13.8698 4.16146 13.75 4.03125L13.125 3.32812C12.9323 3.11458 12.7188 2.95052 12.4844 2.83594C12.25 2.72135 11.9323 2.66406 11.5312 2.66406H8.41406C8.01302 2.66406 7.69531 2.72135 7.46094 2.83594C7.23177 2.95052 7.01823 3.11458 6.82031 3.32812L6.19531 4.03125C6.02344 4.22396 5.86458 4.35938 5.71875 4.4375C5.57292 4.51042 5.34635 4.54688 5.03906 4.54688H2.85938C2.04167 4.54688 1.42708 4.75 1.01562 5.15625C0.609375 5.55729 0.40625 6.15885 0.40625 6.96094V15.1406C0.40625 15.9479 0.609375 16.5521 1.01562 16.9531C1.42708 17.3594 2.04167 17.5625 2.85938 17.5625ZM2.875 16.3047C2.48958 16.3047 2.1901 16.2031 1.97656 16C1.76823 15.7917 1.66406 15.4844 1.66406 15.0781V7.03125C1.66406 6.625 1.76823 6.32031 1.97656 6.11719C2.1901 5.90885 2.48958 5.80469 2.875 5.80469H5.35156C5.70573 5.80469 5.98958 5.76562 6.20312 5.6875C6.42188 5.60417 6.63021 5.45312 6.82812 5.23438L7.4375 4.54688C7.66146 4.29688 7.85938 4.13021 8.03125 4.04688C8.20312 3.96354 8.46094 3.92188 8.80469 3.92188H11.1406C11.4844 3.92188 11.7422 3.96354 11.9141 4.04688C12.0859 4.13021 12.2839 4.29688 12.5078 4.54688L13.1172 5.23438C13.3151 5.45312 13.5208 5.60417 13.7344 5.6875C13.9531 5.76562 14.2396 5.80469 14.5938 5.80469H17.1172C17.5026 5.80469 17.8021 5.90885 18.0156 6.11719C18.2292 6.32031 18.3359 6.625 18.3359 7.03125V15.0781C18.3359 15.4844 18.2292 15.7917 18.0156 16C17.8021 16.2031 17.5026 16.3047 17.1172 16.3047H2.875ZM10 15.1797C10.5885 15.1797 11.1406 15.0703 11.6562 14.8516C12.1719 14.6328 12.625 14.3281 13.0156 13.9375C13.4062 13.5469 13.7109 13.0938 13.9297 12.5781C14.1484 12.0625 14.2578 11.5052 14.2578 10.9062C14.2578 10.1146 14.0677 9.39583 13.6875 8.75C13.3073 8.10417 12.7943 7.59115 12.1484 7.21094C11.5026 6.83073 10.7865 6.64062 10 6.64062C9.40625 6.64062 8.85156 6.75 8.33594 6.96875C7.82031 7.1875 7.36719 7.49219 6.97656 7.88281C6.59115 8.27344 6.28646 8.72656 6.0625 9.24219C5.84375 9.75781 5.73438 10.3125 5.73438 10.9062C5.73438 11.5052 5.84375 12.0625 6.0625 12.5781C6.28646 13.0938 6.59115 13.5469 6.97656 13.9375C7.36719 14.3281 7.82031 14.6328 8.33594 14.8516C8.85156 15.0703 9.40625 15.1797 10 15.1797ZM10 13.9922C9.43229 13.9922 8.91406 13.8542 8.44531 13.5781C7.98177 13.3021 7.60938 12.9323 7.32812 12.4688C7.05208 12 6.91406 11.4792 6.91406 10.9062C6.91406 10.3385 7.05208 9.82292 7.32812 9.35938C7.60938 8.89062 7.98177 8.51823 8.44531 8.24219C8.91406 7.96094 9.43229 7.82031 10 7.82031C10.5677 7.82031 11.0833 7.96094 11.5469 8.24219C12.0156 8.51823 12.388 8.89062 12.6641 9.35938C12.9401 9.82292 13.0781 10.3385 13.0781 10.9062C13.0781 11.4792 12.9401 12 12.6641 12.4688C12.388 12.9323 12.0156 13.3021 11.5469 13.5781C11.0833 13.8542 10.5677 13.9922 10 13.9922ZM14.5781 8.03125C14.5781 8.30729 14.6745 8.53906 14.8672 8.72656C15.0599 8.91406 15.2917 9.00781 15.5625 9.00781C15.8229 9.00781 16.0495 8.91406 16.2422 8.72656C16.4349 8.53385 16.5312 8.30208 16.5312 8.03125C16.5312 7.77083 16.4349 7.54427 16.2422 7.35156C16.0495 7.15885 15.8229 7.0625 15.5625 7.0625C15.2917 7.0625 15.0599 7.15885 14.8672 7.35156C14.6745 7.54427 14.5781 7.77083 14.5781 8.03125Z" fill="white"/>
</svg>
