<?xml version="1.0" encoding="UTF-8"?>
<svg xmlns="http://www.w3.org/2000/svg" xmlns:xlink="http://www.w3.org/1999/xlink" width="24" height="18.545455" viewBox="0 0 24 18.545455" version="1.1">
<g id="surface1">
<path style=" stroke:none;fill-rule:nonzero;fill:rgb(100%,100%,100%);fill-opacity:1;" d="M 3.628906 14.113281 L 5.503906 14.113281 L 5.503906 12.742188 L 3.648438 12.742188 C 3.222656 12.742188 2.894531 12.628906 2.667969 12.402344 C 2.441406 12.171875 2.328125 11.839844 2.328125 11.394531 L 2.328125 2.921875 C 2.328125 2.480469 2.441406 2.144531 2.667969 1.917969 C 2.894531 1.691406 3.222656 1.578125 3.648438 1.578125 L 16.039062 1.578125 C 16.460938 1.578125 16.785156 1.691406 17.011719 1.917969 C 17.246094 2.144531 17.359375 2.480469 17.359375 2.921875 L 17.359375 5.113281 L 18.734375 5.113281 L 18.734375 2.847656 C 18.734375 1.972656 18.507812 1.3125 18.058594 0.871094 C 17.617188 0.425781 16.953125 0.203125 16.066406 0.203125 L 3.628906 0.203125 C 2.738281 0.203125 2.066406 0.425781 1.621094 0.871094 C 1.175781 1.308594 0.953125 1.964844 0.953125 2.847656 L 0.953125 11.472656 C 0.953125 12.351562 1.175781 13.015625 1.621094 13.457031 C 2.066406 13.894531 2.738281 14.113281 3.628906 14.113281 Z M 7.933594 18.058594 L 20.371094 18.058594 C 21.261719 18.058594 21.929688 17.839844 22.371094 17.394531 C 22.816406 16.957031 23.035156 16.296875 23.035156 15.417969 L 23.035156 7.59375 C 23.035156 6.714844 22.816406 6.054688 22.371094 5.617188 C 21.929688 5.179688 21.261719 4.960938 20.371094 4.960938 L 19.269531 4.960938 C 18.953125 4.960938 18.714844 4.933594 18.5625 4.875 C 18.414062 4.8125 18.25 4.683594 18.066406 4.484375 L 17.453125 3.816406 C 17.234375 3.578125 17.003906 3.402344 16.773438 3.289062 C 16.546875 3.175781 16.265625 3.121094 15.9375 3.121094 L 12.367188 3.121094 C 12.03125 3.121094 11.746094 3.175781 11.515625 3.289062 C 11.285156 3.402344 11.0625 3.578125 10.839844 3.816406 L 10.234375 4.484375 C 10.046875 4.683594 9.878906 4.8125 9.722656 4.875 C 9.578125 4.933594 9.34375 4.960938 9.027344 4.960938 L 7.933594 4.960938 C 7.042969 4.960938 6.371094 5.179688 5.921875 5.617188 C 5.480469 6.054688 5.257812 6.714844 5.257812 7.59375 L 5.257812 15.417969 C 5.257812 16.296875 5.480469 16.957031 5.921875 17.394531 C 6.371094 17.839844 7.042969 18.058594 7.933594 18.058594 Z M 7.953125 16.6875 C 7.527344 16.6875 7.199219 16.574219 6.972656 16.347656 C 6.746094 16.121094 6.628906 15.785156 6.628906 15.339844 L 6.628906 7.671875 C 6.628906 7.226562 6.746094 6.894531 6.972656 6.671875 C 7.199219 6.445312 7.527344 6.332031 7.953125 6.332031 L 9.359375 6.332031 C 9.726562 6.332031 10.035156 6.285156 10.277344 6.195312 C 10.527344 6.105469 10.761719 5.941406 10.976562 5.710938 L 11.710938 4.902344 C 11.847656 4.757812 11.984375 4.65625 12.128906 4.59375 C 12.277344 4.527344 12.464844 4.492188 12.699219 4.492188 L 15.597656 4.492188 C 15.828125 4.492188 16.015625 4.527344 16.160156 4.59375 C 16.308594 4.65625 16.449219 4.757812 16.585938 4.902344 L 17.328125 5.710938 C 17.542969 5.941406 17.773438 6.105469 18.015625 6.195312 C 18.265625 6.285156 18.574219 6.332031 18.9375 6.332031 L 20.34375 6.332031 C 20.769531 6.332031 21.097656 6.445312 21.324219 6.671875 C 21.550781 6.894531 21.664062 7.226562 21.664062 7.671875 L 21.664062 15.339844 C 21.664062 15.785156 21.550781 16.121094 21.324219 16.347656 C 21.097656 16.574219 20.769531 16.6875 20.34375 16.6875 Z M 14.15625 15.535156 C 14.917969 15.535156 15.609375 15.351562 16.226562 14.984375 C 16.851562 14.609375 17.347656 14.109375 17.71875 13.484375 C 18.09375 12.859375 18.28125 12.164062 18.28125 11.402344 C 18.28125 10.648438 18.09375 9.957031 17.71875 9.332031 C 17.347656 8.707031 16.851562 8.210938 16.226562 7.839844 C 15.609375 7.464844 14.917969 7.277344 14.15625 7.277344 C 13.394531 7.277344 12.703125 7.464844 12.078125 7.839844 C 11.453125 8.210938 10.953125 8.707031 10.585938 9.332031 C 10.214844 9.957031 10.03125 10.648438 10.03125 11.402344 C 10.03125 12.164062 10.214844 12.859375 10.585938 13.484375 C 10.953125 14.109375 11.453125 14.609375 12.078125 14.984375 C 12.703125 15.351562 13.394531 15.535156 14.15625 15.535156 Z M 14.15625 14.234375 C 13.640625 14.234375 13.167969 14.105469 12.742188 13.847656 C 12.316406 13.59375 11.972656 13.253906 11.71875 12.828125 C 11.464844 12.402344 11.335938 11.925781 11.335938 11.402344 C 11.335938 10.886719 11.464844 10.414062 11.71875 9.988281 C 11.972656 9.5625 12.316406 9.222656 12.742188 8.972656 C 13.167969 8.71875 13.640625 8.589844 14.15625 8.589844 C 14.671875 8.589844 15.144531 8.71875 15.570312 8.972656 C 15.996094 9.222656 16.335938 9.5625 16.585938 9.988281 C 16.839844 10.414062 16.96875 10.886719 16.96875 11.402344 C 16.96875 11.925781 16.839844 12.402344 16.585938 12.828125 C 16.335938 13.253906 15.996094 13.59375 15.570312 13.847656 C 15.144531 14.105469 14.671875 14.234375 14.15625 14.234375 Z M 19.390625 9.441406 C 19.65625 9.441406 19.882812 9.351562 20.070312 9.171875 C 20.257812 8.984375 20.351562 8.753906 20.351562 8.488281 C 20.351562 8.222656 20.257812 7.996094 20.070312 7.808594 C 19.882812 7.621094 19.65625 7.527344 19.390625 7.527344 C 19.128906 7.527344 18.902344 7.621094 18.714844 7.808594 C 18.527344 7.996094 18.433594 8.222656 18.433594 8.488281 C 18.433594 8.753906 18.527344 8.984375 18.714844 9.171875 C 18.902344 9.351562 19.128906 9.441406 19.390625 9.441406 Z M 19.390625 9.441406 "/>
</g>
</svg>
