<?xml version="1.0" encoding="UTF-8"?>
<svg xmlns="http://www.w3.org/2000/svg" xmlns:xlink="http://www.w3.org/1999/xlink" width="24" height="18.545455" viewBox="0 0 24 18.545455" version="1.1">
<g id="surface1">
<path style=" stroke:none;fill-rule:nonzero;fill:rgb(100%,100%,100%);fill-opacity:1;" d="M 0.808594 9.121094 C 0.808594 10.378906 1.015625 11.523438 1.433594 12.546875 C 1.847656 13.566406 2.4375 14.449219 3.203125 15.1875 C 3.976562 15.921875 4.898438 16.484375 5.964844 16.875 C 7.035156 17.273438 8.222656 17.472656 9.535156 17.472656 L 14.453125 17.472656 C 15.765625 17.472656 16.957031 17.273438 18.027344 16.875 C 19.097656 16.484375 20.019531 15.921875 20.785156 15.1875 C 21.558594 14.449219 22.152344 13.566406 22.566406 12.546875 C 22.984375 11.523438 23.191406 10.378906 23.191406 9.121094 C 23.191406 7.859375 22.984375 6.714844 22.566406 5.691406 C 22.152344 4.664062 21.558594 3.785156 20.785156 3.050781 C 20.019531 2.316406 19.097656 1.753906 18.027344 1.363281 C 16.957031 0.964844 15.765625 0.765625 14.453125 0.765625 L 9.535156 0.765625 C 8.222656 0.765625 7.035156 0.964844 5.964844 1.363281 C 4.898438 1.753906 3.976562 2.316406 3.203125 3.050781 C 2.4375 3.785156 1.847656 4.664062 1.433594 5.691406 C 1.015625 6.714844 0.808594 7.859375 0.808594 9.121094 Z M 2.191406 9.121094 C 2.191406 7.714844 2.484375 6.496094 3.066406 5.453125 C 3.660156 4.410156 4.484375 3.597656 5.546875 3.027344 C 6.617188 2.445312 7.859375 2.15625 9.28125 2.15625 L 14.710938 2.15625 C 16.136719 2.15625 17.378906 2.445312 18.441406 3.027344 C 19.503906 3.597656 20.332031 4.410156 20.921875 5.453125 C 21.515625 6.496094 21.808594 7.714844 21.808594 9.121094 Z M 2.191406 9.121094 "/>
</g>
</svg>
