<svg width="22" height="17" viewBox="0 0 22 17" fill="none" xmlns="http://www.w3.org/2000/svg">
<path d="M0.742188 8.35938C0.742188 9.51562 0.932292 10.5625 1.3125 11.5C1.69271 12.4375 2.23438 13.2448 2.9375 13.9219C3.64583 14.5938 4.48958 15.1094 5.46875 15.4688C6.44792 15.8333 7.53906 16.0156 8.74219 16.0156H13.25C14.4531 16.0156 15.5443 15.8333 16.5234 15.4688C17.5078 15.1094 18.3516 14.5938 19.0547 13.9219C19.763 13.2448 20.3073 12.4375 20.6875 11.5C21.0677 10.5625 21.2578 9.51562 21.2578 8.35938C21.2578 7.20312 21.0677 6.15625 20.6875 5.21875C20.3073 4.27604 19.763 3.46875 19.0547 2.79688C18.3516 2.125 17.5078 1.60938 16.5234 1.25C15.5443 0.885417 14.4531 0.703125 13.25 0.703125H8.74219C7.53906 0.703125 6.44792 0.885417 5.46875 1.25C4.48958 1.60938 3.64583 2.125 2.9375 2.79688C2.23438 3.46875 1.69271 4.27604 1.3125 5.21875C0.932292 6.15625 0.742188 7.20312 0.742188 8.35938ZM2.00781 8.35938C2.00781 7.07292 2.27604 5.95312 2.8125 5C3.35417 4.04167 4.11198 3.29948 5.08594 2.77344C6.0651 2.24219 7.20573 1.97656 8.50781 1.97656H13.4844C14.7917 1.97656 15.9323 2.24219 16.9062 2.77344C17.8802 3.29948 18.638 4.04167 19.1797 5C19.7214 5.95312 19.9922 7.07292 19.9922 8.35938C19.9922 9.64583 19.7214 10.7682 19.1797 11.7266C18.638 12.6797 17.8802 13.4219 16.9062 13.9531C15.9323 14.4792 14.7917 14.7422 13.4844 14.7422H8.50781C7.20573 14.7422 6.0651 14.4792 5.08594 13.9531C4.11198 13.4219 3.35417 12.6797 2.8125 11.7266C2.27604 10.7682 2.00781 9.64583 2.00781 8.35938ZM3.14844 8.35938C3.14844 9.42708 3.36719 10.3542 3.80469 11.1406C4.24219 11.9219 4.86198 12.526 5.66406 12.9531C6.46615 13.3802 7.41406 13.5938 8.50781 13.5938H13.4844C14.5833 13.5938 15.5339 13.3802 16.3359 12.9531C17.138 12.526 17.7552 11.9219 18.1875 11.1406C18.625 10.3542 18.8438 9.42708 18.8438 8.35938C18.8438 7.28646 18.625 6.35938 18.1875 5.57812C17.7552 4.79167 17.138 4.1849 16.3359 3.75781C15.5339 3.33073 14.5833 3.11719 13.4844 3.11719H8.50781C7.41406 3.11719 6.46615 3.33073 5.66406 3.75781C4.86198 4.1849 4.24219 4.79167 3.80469 5.57812C3.36719 6.35938 3.14844 7.28646 3.14844 8.35938Z" fill="white"/>
</svg>
