<svg width="140" height="148" viewBox="0 0 140 148" fill="none" xmlns="http://www.w3.org/2000/svg">
<path d="M9.125 147.938H9.4375C13.3542 147.938 16.625 147.5 19.25 146.625C21.875 145.792 24.1042 144.75 25.9375 143.5C27.8125 142.25 29.4792 140.979 30.9375 139.688C32.3958 138.438 33.875 137.375 35.375 136.5C36.9167 135.667 38.7083 135.25 40.75 135.25C42.7083 135.25 44.4583 135.667 46 136.5C47.5417 137.375 49.0625 138.438 50.5625 139.688C52.0625 140.979 53.6875 142.25 55.4375 143.5C57.2292 144.75 59.3125 145.792 61.6875 146.625C64.1042 147.5 67.0208 147.938 70.4375 147.938C73.8125 147.938 76.6875 147.5 79.0625 146.625C81.4792 145.792 83.5625 144.75 85.3125 143.5C87.1042 142.25 88.75 140.979 90.25 139.688C91.75 138.438 93.2708 137.375 94.8125 136.5C96.3542 135.667 98.1042 135.25 100.062 135.25C102.104 135.25 103.875 135.667 105.375 136.5C106.917 137.375 108.417 138.438 109.875 139.688C111.333 140.979 112.979 142.25 114.812 143.5C116.688 144.75 118.938 145.792 121.562 146.625C124.188 147.5 127.458 147.938 131.375 147.938H131.688C132.896 147.938 133.917 147.5 134.75 146.625C135.625 145.792 136.062 144.771 136.062 143.562C136.062 142.354 135.625 141.312 134.75 140.438C133.917 139.562 132.896 139.125 131.688 139.125H131.375C128 139.125 125.208 138.521 123 137.312C120.792 136.104 118.5 134.667 116.125 133C114.125 131.542 111.812 130.083 109.188 128.625C106.604 127.167 103.562 126.438 100.062 126.438C96.4792 126.438 93.3542 127.208 90.6875 128.75C88.0625 130.292 85.7292 131.812 83.6875 133.312C81.5625 134.979 79.5208 136.354 77.5625 137.438C75.6042 138.562 73.2292 139.125 70.4375 139.125C67.6042 139.125 65.2083 138.562 63.25 137.438C61.2917 136.354 59.25 134.979 57.125 133.312C55.0833 131.812 52.7292 130.292 50.0625 128.75C47.4375 127.208 44.3333 126.438 40.75 126.438C37.25 126.438 34.1875 127.167 31.5625 128.625C28.9792 130.083 26.6875 131.542 24.6875 133C22.3125 134.667 20.0208 136.104 17.8125 137.312C15.6042 138.521 12.8125 139.125 9.4375 139.125H9.125C7.91667 139.125 6.875 139.562 6 140.438C5.16667 141.312 4.75 142.354 4.75 143.562C4.75 144.771 5.16667 145.792 6 146.625C6.875 147.5 7.91667 147.938 9.125 147.938ZM25.0625 137.75L33.625 135.25L11.6875 105.438C10.9792 104.521 10.8125 103.625 11.1875 102.75C11.5625 101.875 12.375 101.438 13.625 101.438H127.188C128.479 101.438 129.292 101.875 129.625 102.75C130 103.625 129.833 104.542 129.125 105.5L107.188 135.188L115.812 137.688L137.062 109.5C138.979 107 139.896 104.521 139.812 102.062C139.771 99.5625 138.833 97.5 137 95.875C135.208 94.2083 132.667 93.375 129.375 93.375H11.4375C8.14583 93.375 5.60417 94.2083 3.8125 95.875C2.02083 97.5 1.08333 99.5625 1 102.062C0.916667 104.521 1.83333 107 3.75 109.5L25.0625 137.75ZM37.625 30.625C37.4167 31.4583 37.5 32.0417 37.875 32.375C38.25 32.7083 38.875 32.8542 39.75 32.8125C42.1667 32.6458 44.8125 32.5 47.6875 32.375C50.5625 32.2083 53.8333 32.0833 57.5 32C61.2083 31.9167 65.5 31.875 70.375 31.875C75.25 31.875 79.5208 31.9167 83.1875 32C86.8958 32.0833 90.1875 32.2083 93.0625 32.375C95.9375 32.5 98.5833 32.6458 101 32.8125C101.875 32.8542 102.5 32.7083 102.875 32.375C103.25 32.0417 103.333 31.4583 103.125 30.625C102.583 28.1667 101.854 25.5833 100.938 22.875C100.021 20.125 99.1875 18.125 98.4375 16.875C97.8542 15.7917 97.1667 15.0208 96.375 14.5625C95.625 14.0625 94.6667 13.7083 93.5 13.5C91.875 13.2917 89.1667 13.125 85.375 13C81.625 12.8333 76.625 12.75 70.375 12.75C64.125 12.75 59.1042 12.8333 55.3125 13C51.5625 13.125 48.875 13.2917 47.25 13.5C46.0833 13.7083 45.1042 14.0625 44.3125 14.5625C43.5625 15.0208 42.875 15.7917 42.25 16.875C41.5417 18.125 40.7292 20.125 39.8125 22.875C38.8958 25.5833 38.1667 28.1667 37.625 30.625ZM37.375 61.75C39.5 61.75 41.2708 61.0625 42.6875 59.6875C44.1042 58.2708 44.8125 56.5 44.8125 54.375C44.8125 52.25 44.1042 50.5 42.6875 49.125C41.2708 47.7083 39.5 47 37.375 47C35.2917 47 33.5417 47.7083 32.125 49.125C30.7083 50.5 30 52.25 30 54.375C30 56.5 30.7083 58.2708 32.125 59.6875C33.5417 61.0625 35.2917 61.75 37.375 61.75ZM58.3125 60H82.4375C84.0208 60 85.3125 59.5 86.3125 58.5C87.3125 57.5 87.8125 56.2083 87.8125 54.625C87.8125 53.0417 87.3125 51.7708 86.3125 50.8125C85.3125 49.8125 84.0208 49.3125 82.4375 49.3125H58.3125C56.7292 49.3125 55.4375 49.8125 54.4375 50.8125C53.4375 51.7708 52.9375 53.0417 52.9375 54.625C52.9375 56.2083 53.4375 57.5 54.4375 58.5C55.4375 59.5 56.7292 60 58.3125 60ZM103.312 61.75C105.438 61.75 107.208 61.0625 108.625 59.6875C110.042 58.2708 110.75 56.5 110.75 54.375C110.75 52.25 110.042 50.5 108.625 49.125C107.208 47.7083 105.438 47 103.312 47C101.229 47 99.4792 47.7083 98.0625 49.125C96.6458 50.5 95.9375 52.25 95.9375 54.375C95.9375 56.5 96.6458 58.2708 98.0625 59.6875C99.4792 61.0625 101.229 61.75 103.312 61.75ZM70.375 75.0625C74.2083 75.0625 78.25 75.0208 82.5 74.9375C86.7917 74.8542 91 74.7292 95.125 74.5625C99.25 74.3958 103.021 74.2083 106.438 74C109.896 73.7917 112.729 73.5625 114.938 73.3125C118.312 72.9375 120.917 71.8125 122.75 69.9375C124.583 68.0208 125.5 65.5 125.5 62.375V54.25C125.5 50.25 125.042 46.9375 124.125 44.3125C123.208 41.6458 121.667 38.9375 119.5 36.1875L115.75 31.4375C115.167 28.6458 114.479 25.9167 113.688 23.25C112.938 20.5833 112.167 18.1875 111.375 16.0625C110.625 13.9375 109.979 12.2917 109.438 11.125C106.854 5.66667 102.188 2.45833 95.4375 1.5C94.3958 1.375 92.6667 1.27083 90.25 1.1875C87.875 1.10417 84.9792 1.04167 81.5625 1C78.1458 0.916667 74.4167 0.875 70.375 0.875C66.375 0.875 62.6667 0.916667 59.25 1C55.875 1.04167 52.9792 1.10417 50.5625 1.1875C48.1458 1.27083 46.4167 1.375 45.375 1.5C42.125 1.91667 39.2917 2.95833 36.875 4.625C34.4583 6.25 32.5833 8.41667 31.25 11.125C30.5 12.8333 29.4792 15.6042 28.1875 19.4375C26.8958 23.2708 25.8125 27.2708 24.9375 31.4375L21.3125 36.1875C19.1458 38.9375 17.6042 41.6458 16.6875 44.3125C15.7708 46.9375 15.3125 50.25 15.3125 54.25V62.375C15.3125 65.5 16.2083 68.0208 18 69.9375C19.8333 71.8125 22.4375 72.9375 25.8125 73.3125C27.9792 73.5625 30.7917 73.7917 34.25 74C37.7083 74.2083 41.4792 74.3958 45.5625 74.5625C49.6875 74.7292 53.875 74.8542 58.125 74.9375C62.4167 75.0208 66.5 75.0625 70.375 75.0625ZM70.375 67.0625C66.5 67.0625 62.4375 67.0417 58.1875 67C53.9792 66.9167 49.875 66.8125 45.875 66.6875C41.9167 66.5208 38.3333 66.3542 35.125 66.1875C31.9583 65.9792 29.4583 65.75 27.625 65.5C26.0417 65.2917 24.9167 64.8125 24.25 64.0625C23.625 63.3125 23.3125 62.1458 23.3125 60.5625V54.25C23.3125 51.25 23.5833 48.875 24.125 47.125C24.7083 45.3333 25.875 43.3125 27.625 41.0625L32.5 34.75C32.875 32.5417 33.4167 30.1458 34.125 27.5625C34.8333 24.9792 35.5833 22.5417 36.375 20.25C37.2083 17.9167 37.9375 16.0625 38.5625 14.6875C39.2292 13.2292 40.2083 12.0833 41.5 11.25C42.7917 10.375 44.3958 9.83333 46.3125 9.625C47.7708 9.45833 50.6458 9.29167 54.9375 9.125C59.2292 8.91667 64.375 8.8125 70.375 8.8125C76.375 8.8125 81.5417 8.91667 85.875 9.125C90.2083 9.29167 93.0208 9.45833 94.3125 9.625C96.2708 9.875 97.8958 10.4167 99.1875 11.25C100.479 12.0833 101.479 13.2292 102.188 14.6875C102.854 16.1042 103.583 17.9792 104.375 20.3125C105.208 22.6042 105.979 25.0417 106.688 27.625C107.396 30.2083 107.917 32.5833 108.25 34.75L113.125 41.0625C114.833 43.3125 115.979 45.3333 116.562 47.125C117.188 48.9167 117.5 51.2917 117.5 54.25V60.5625C117.5 62.1875 117.167 63.375 116.5 64.125C115.833 64.8333 114.688 65.2917 113.062 65.5C111.229 65.7083 108.708 65.9167 105.5 66.125C102.333 66.3333 98.75 66.5 94.75 66.625C90.7917 66.75 86.7083 66.8542 82.5 66.9375C78.2917 67.0208 74.25 67.0625 70.375 67.0625ZM24.6875 86.6875H30.0625C31.8125 86.6875 33.2708 86.1042 34.4375 84.9375C35.6458 83.7708 36.25 82.3333 36.25 80.625V69.6875L18.5625 67.125V80.625C18.5625 82.3333 19.1458 83.7708 20.3125 84.9375C21.5208 86.1042 22.9792 86.6875 24.6875 86.6875ZM110.688 86.6875H116.062C117.771 86.6875 119.208 86.1042 120.375 84.9375C121.583 83.7708 122.188 82.3333 122.188 80.625V67.125L104.5 69.6875L104.562 80.625C104.562 82.3333 105.146 83.7708 106.312 84.9375C107.479 86.1042 108.938 86.6875 110.688 86.6875Z" fill="white"/>
</svg>
