<svg xmlns="http://www.w3.org/2000/svg" width="24" height="24"><path style="stroke:none;fill-rule:nonzero;fill:#fff;fill-opacity:1" d="M4.781 7.3c.07-.452.164-.929.282-1.437.117-.508.242-.976.367-1.414.125-.437.234-.781.336-1.023.101-.258.246-.477.421-.649.157-.14.36-.242.61-.289.355-.066.95-.117 1.781-.148 1.14-.05 2.281-.07 3.422-.063 1.45 0 2.59.016 3.422.047.836.035 1.43.086 1.781.164.258.047.461.149.61.29.148.14.289.359.421.648.106.23.22.57.336 1.011.125.434.246.907.36 1.426.117.508.218.985.297 1.438.046.23.03.398-.047.5-.067.09-.192.125-.375.11-.516-.04-1.09-.083-1.715-.126a66.814 66.814 0 0 0-2.164-.098A91.19 91.19 0 0 0 12 7.652c-1.133 0-2.11.008-2.934.035-.82.028-1.539.06-2.156.098-.62.043-1.187.086-1.707.125-.18.016-.308-.02-.383-.11-.07-.1-.082-.269-.039-.5Zm.461 9.235c-.402.016-.793-.191-1.078-.574-.285-.379-.441-.899-.434-1.438 0-.574.145-1.054.434-1.433.285-.387.645-.578 1.078-.578.43 0 .79.191 1.078.578.285.379.43.86.43 1.437 0 .567-.145 1.047-.43 1.438-.289.379-.648.574-1.078.574Zm4.281-.5a.926.926 0 0 1-.785-.398c-.199-.266-.3-.617-.3-1.047 0-.43.101-.774.3-1.04.2-.269.461-.398.785-.398h4.961c.32 0 .579.13.778.399.199.27.3.61.3 1.039 0 .43-.101.781-.3 1.047a.917.917 0 0 1-.778.398Zm9.235.5c-.403.008-.79-.2-1.07-.578-.286-.379-.438-.898-.43-1.434 0-.574.144-1.054.433-1.433.286-.387.645-.578 1.067-.578.433 0 .793.191 1.078.578.289.379.434.86.434 1.437.007.536-.149 1.055-.434 1.434-.285.383-.676.59-1.078.574ZM12 19.91c.79 0 1.617-.008 2.492-.035.875-.027 1.735-.059 2.578-.098.844-.054 1.617-.105 2.317-.164.578-.047 1.152-.11 1.726-.183.637-.106 1.125-.383 1.461-.84.344-.461.516-1.09.516-1.89v-2.2c0-.707-.035-1.324-.113-1.848a6.683 6.683 0 0 0-.375-1.492 9.66 9.66 0 0 0-.692-1.445l-.797-1.367a32.734 32.734 0 0 0-.414-2.223c-.14-.664-.3-1.324-.476-1.973a21.456 21.456 0 0 0-.395-1.34c-.238-.687-.613-1.269-1.086-1.687C18.25.699 17.692.43 17.11.34c-.21-.043-.57-.078-1.07-.102a60.26 60.26 0 0 0-1.789-.05 96.347 96.347 0 0 0-4.508 0C9.047.203 8.45.227 7.95.25c-.492.027-.844.055-1.05.09a3.102 3.102 0 0 0-1.641.785c-.469.418-.844 1.004-1.078 1.688-.11.304-.246.753-.403 1.34a42.808 42.808 0 0 0-.476 1.972c-.164.738-.301 1.477-.414 2.227l-.785 1.363a8.73 8.73 0 0 0-.704 1.45c-.175.468-.3.972-.375 1.487-.082.61-.12 1.23-.113 1.848v2.2c0 .8.172 1.433.516 1.89.344.457.832.734 1.46.84.446.062 1.016.125 1.716.187.707.055 1.484.11 2.328.16.843.043 1.703.075 2.578.098.875.027 1.703.04 2.492.04Zm-9.844 3.438h1.098c.348 0 .644-.157.879-.473.246-.316.367-.707.367-1.176v-3.11L.91 16.314v5.386c0 .469.117.86.356 1.176.238.316.535.473.89.473Zm18.59 0h1.106c.351 0 .644-.157.882-.473.239-.316.356-.707.356-1.176v-5.387l-3.582 2.278v3.11c0 .468.12.859.36 1.175.234.316.53.473.878.473Zm0 0"/></svg>