<svg xmlns="http://www.w3.org/2000/svg" width="24" height="24"><path style="stroke:none;fill-rule:nonzero;fill:#fff;fill-opacity:1" d="M1.781 23.36h.051c.652 0 1.2-.07 1.637-.208a4.46 4.46 0 0 0 1.113-.492c.313-.2.59-.402.836-.605.242-.196.488-.364.738-.5.258-.133.555-.2.895-.2.328 0 .62.063.875.2.258.136.511.304.761.5.25.203.52.406.813.605.297.195.645.36 1.043.492.402.137.887.207 1.457.207.563 0 1.043-.07 1.438-.207.402-.132.75-.297 1.042-.492.297-.2.57-.402.82-.605.25-.196.505-.364.762-.5.258-.133.547-.2.875-.2.34 0 .637.063.887.2.254.136.504.304.75.5.242.203.516.406.82.605.348.211.727.38 1.126.492.437.137.984.207 1.636.207h.051a.704.704 0 0 0 .512-.207.656.656 0 0 0 0-.977.69.69 0 0 0-.512-.206h-.05c-.563 0-1.028-.098-1.395-.285-.371-.192-.75-.418-1.149-.684a10.762 10.762 0 0 0-1.156-.691c-.43-.23-.937-.344-1.52-.344-.597 0-1.117.125-1.562.363-.438.246-.828.485-1.168.723-.32.242-.66.46-1.02.648-.328.18-.722.27-1.187.27-.473 0-.871-.09-1.2-.27-.359-.191-.698-.406-1.019-.648-.34-.238-.734-.477-1.176-.723-.437-.242-.957-.363-1.554-.363-.582 0-1.094.113-1.531.344-.43.23-.813.46-1.145.691-.395.266-.777.492-1.145.684-.37.187-.835.285-1.398.285h-.05a.713.713 0 0 0-.52.207.662.662 0 0 0-.211.492c0 .191.07.348.21.484a.746.746 0 0 0 .52.207Zm2.657-1.61 1.425-.395-3.656-4.707c-.117-.144-.144-.289-.082-.425.063-.137.2-.207.406-.207h18.926c.215 0 .352.07.406.207.063.136.035.28-.082.433l-3.656 4.692 1.438.394 3.542-4.453c.317-.394.473-.785.457-1.172a1.24 1.24 0 0 0-.468-.976c-.297-.266-.723-.399-1.27-.399H2.168c-.55 0-.973.133-1.273.399a1.303 1.303 0 0 0-.47.976c-.01.387.141.778.462 1.172ZM6.53 4.836c-.035.129-.02.223.043.273.063.059.164.079.313.07.402-.023.843-.046 1.32-.07.48-.023 1.027-.043 1.637-.058 1.426-.024 2.851-.024 4.281 0 .617.015 1.168.035 1.645.058.48.024.921.047 1.324.07.144.008.25-.011.312-.07.063-.05.078-.144.043-.273a11.17 11.17 0 0 0-.367-1.223c-.152-.433-.289-.754-.414-.949a.998.998 0 0 0-.344-.367 1.403 1.403 0 0 0-.48-.164 14.61 14.61 0 0 0-1.356-.078 66.846 66.846 0 0 0-2.5-.043c-1.039 0-1.879.015-2.508.043-.625.02-1.074.043-1.343.078-.196.031-.36.086-.492.164a1.065 1.065 0 0 0-.344.367c-.117.195-.254.516-.406.95a10.99 10.99 0 0 0-.364 1.222ZM6.488 9.75c.356 0 .653-.11.887-.324.234-.227.355-.504.355-.84 0-.336-.12-.61-.355-.828a1.248 1.248 0 0 0-.887-.34 1.237 1.237 0 0 0-.875.34 1.08 1.08 0 0 0-.351.828c0 .336.117.613.351.84.239.215.528.324.875.324Zm3.492-.277H14c.266 0 .48-.078.645-.235a.814.814 0 0 0 .25-.613.77.77 0 0 0-.25-.602c-.165-.16-.38-.238-.645-.238H9.98a.909.909 0 0 0-.648.238.794.794 0 0 0-.25.602c0 .25.086.453.25.613.168.157.383.235.648.235Zm7.5.277c.352 0 .649-.11.883-.324.239-.227.356-.504.356-.84a1.06 1.06 0 0 0-.356-.828 1.256 1.256 0 0 0-.883-.34c-.347 0-.64.117-.875.34a1.06 1.06 0 0 0-.355.828c0 .336.117.613.355.84.235.215.528.324.875.324Zm-5.492 2.105c.64 0 1.313-.007 2.024-.023A101.607 101.607 0 0 0 18 11.684a28.103 28.103 0 0 0 1.418-.11c.562-.058.996-.234 1.3-.531.305-.305.458-.7.458-1.195V8.566c0-.632-.074-1.152-.227-1.566-.152-.426-.41-.852-.773-1.285l-.625-.754a14.93 14.93 0 0 0-.344-1.29 16.887 16.887 0 0 0-.383-1.136 9.05 9.05 0 0 0-.324-.777C18.07.895 17.293.387 16.168.238c-.176-.02-.465-.039-.867-.047a35.68 35.68 0 0 0-1.446-.03 74.397 74.397 0 0 0-3.718 0c-.485 0-.965.01-1.45.026-.402.012-.69.032-.863.051-.508.051-.996.223-1.418.492a2.66 2.66 0 0 0-.937 1.028c-.125.27-.297.707-.512 1.308-.215.61-.394 1.243-.539 1.895l-.606.754c-.359.433-.617.86-.769 1.285-.152.414-.23.934-.23 1.566v1.282c0 .496.148.89.449 1.195.304.297.738.473 1.3.531.36.043.829.074 1.407.11.578.03 1.203.062 1.886.09.688.023 1.383.046 2.094.058.715.016 1.395.023 2.04.023Zm0-1.265c-.644 0-1.32-.004-2.031-.008-.7-.016-1.383-.031-2.05-.055-.598-.023-1.196-.047-1.794-.078a22.153 22.153 0 0 1-1.25-.105c-.261-.035-.449-.11-.562-.23-.102-.118-.156-.302-.156-.552v-.996c0-.472.046-.851.136-1.125.098-.285.293-.601.582-.957l.813-.996c.062-.351.152-.73.273-1.136.117-.407.242-.793.375-1.153.137-.37.258-.664.364-.879.109-.234.273-.41.488-.543.242-.148.52-.234.804-.257.243-.024.723-.055 1.438-.079.715-.035 1.57-.05 2.57-.05 1 0 1.864.015 2.586.046.723.028 1.192.06 1.406.083.325.039.598.125.813.257.215.133.379.309.5.543.11.223.23.52.363.887.14.36.266.746.387 1.156.117.407.203.782.258 1.125l.812.996c.285.356.477.672.575.957.105.282.156.657.156 1.125v.996c0 .254-.055.446-.168.563-.11.113-.301.184-.57.219a38.58 38.58 0 0 1-1.262.097c-.528.032-1.125.059-1.793.079-.66.02-1.34.035-2.04.05-.702.016-1.374.02-2.023.02Zm-7.613 3.098h.895c.273.007.539-.094.73-.278a.87.87 0 0 0 .3-.68V11l-2.945-.402v2.132c0 .27.098.497.29.68.203.188.445.277.73.277Zm14.332 0h.898a.99.99 0 0 0 .72-.278c.198-.183.3-.41.3-.68v-2.132l-2.95.402.012 1.73c0 .27.098.497.293.68.192.184.454.285.727.277Zm0 0"/></svg>