<svg width="140" height="147" viewBox="0 0 140 147" fill="none" xmlns="http://www.w3.org/2000/svg">
<path d="M9.125 146.938H9.4375C13.3542 146.938 16.625 146.5 19.25 145.625C21.9167 144.792 24.1667 143.75 26 142.5C27.8333 141.25 29.4792 139.979 30.9375 138.688C32.3958 137.438 33.875 136.375 35.375 135.5C36.9167 134.667 38.7083 134.25 40.75 134.25C42.7083 134.25 44.4583 134.667 46 135.5C47.5417 136.375 49.0625 137.438 50.5625 138.688C52.0625 139.979 53.6875 141.25 55.4375 142.5C57.2292 143.75 59.3125 144.792 61.6875 145.625C64.1042 146.5 67.0208 146.938 70.4375 146.938C73.8125 146.938 76.7083 146.5 79.125 145.625C81.5417 144.792 83.625 143.75 85.375 142.5C87.125 141.25 88.75 139.979 90.25 138.688C91.75 137.438 93.2708 136.375 94.8125 135.5C96.3542 134.667 98.1042 134.25 100.062 134.25C102.104 134.25 103.875 134.667 105.375 135.5C106.917 136.375 108.417 137.438 109.875 138.688C111.333 139.979 112.979 141.25 114.812 142.5C116.688 143.75 118.938 144.792 121.562 145.625C124.188 146.5 127.458 146.938 131.375 146.938H131.688C132.896 146.938 133.917 146.5 134.75 145.625C135.625 144.792 136.062 143.771 136.062 142.562C136.062 141.354 135.625 140.312 134.75 139.438C133.917 138.562 132.896 138.125 131.688 138.125H131.375C128 138.125 125.208 137.521 123 136.312C120.792 135.104 118.5 133.667 116.125 132C114.125 130.542 111.812 129.083 109.188 127.625C106.604 126.167 103.562 125.438 100.062 125.438C96.5208 125.438 93.4167 126.208 90.75 127.75C88.0833 129.292 85.75 130.812 83.75 132.312C81.5833 133.979 79.5208 135.354 77.5625 136.438C75.6042 137.562 73.2292 138.125 70.4375 138.125C67.6042 138.125 65.2083 137.562 63.25 136.438C61.2917 135.354 59.25 133.979 57.125 132.312C55.0833 130.812 52.7292 129.292 50.0625 127.75C47.4375 126.208 44.3333 125.438 40.75 125.438C37.2917 125.438 34.25 126.167 31.625 127.625C29.0417 129.083 26.7292 130.542 24.6875 132C22.3125 133.667 20.0208 135.104 17.8125 136.312C15.6042 137.521 12.8125 138.125 9.4375 138.125H9.125C7.91667 138.125 6.875 138.562 6 139.438C5.16667 140.312 4.75 141.354 4.75 142.562C4.75 143.771 5.16667 144.792 6 145.625C6.875 146.5 7.91667 146.938 9.125 146.938ZM3.75 108.5L17.4375 126.688C17.7708 126.479 18.125 126.229 18.5 125.938C18.875 125.688 19.2708 125.417 19.6875 125.125C23.2708 122.542 26.6875 120.521 29.9375 119.062C33.2292 117.646 36.8333 116.938 40.75 116.938C44.7917 116.938 48.4583 117.688 51.75 119.188C55.0833 120.688 58.5833 122.792 62.25 125.5C64.4583 127.208 66.0417 128.312 67 128.812C68 129.354 69.1458 129.625 70.4375 129.625C71.6042 129.625 72.6458 129.375 73.5625 128.875C74.5208 128.417 75.9375 127.5 77.8125 126.125C81.6458 123.167 85.2708 120.896 88.6875 119.312C92.1458 117.729 95.9375 116.938 100.062 116.938C103.979 116.938 107.583 117.646 110.875 119.062C114.167 120.521 117.583 122.542 121.125 125.125C121.542 125.417 121.938 125.688 122.312 125.938C122.688 126.229 123.062 126.479 123.438 126.688L137.062 108.5C138.979 106 139.896 103.521 139.812 101.062C139.771 98.5625 138.833 96.5 137 94.875C135.208 93.2083 132.667 92.375 129.375 92.375H11.4375C8.14583 92.375 5.60417 93.2083 3.8125 94.875C2.02083 96.5 1.08333 98.5625 1 101.062C0.916667 103.521 1.83333 106 3.75 108.5ZM35.1875 26.125C35.7292 23.625 36.4792 20.9792 37.4375 18.1875C38.3958 15.3542 39.25 13.2708 40 11.9375C40.625 10.8542 41.3125 10.0625 42.0625 9.5625C42.8125 9.02083 43.8125 8.66667 45.0625 8.5C46.8125 8.25 49.7083 8.0625 53.75 7.9375C57.8333 7.8125 63.3958 7.75 70.4375 7.75C77.4792 7.75 83.0208 7.8125 87.0625 7.9375C91.1042 8.02083 94 8.20833 95.75 8.5C97 8.66667 98 9.02083 98.75 9.5625C99.5 10.0625 100.188 10.8542 100.812 11.9375C101.604 13.2292 102.458 15.2917 103.375 18.125C104.292 20.9583 105.042 23.625 105.625 26.125C105.833 26.9583 105.75 27.5625 105.375 27.9375C105.042 28.2708 104.438 28.4167 103.562 28.375C101.021 28.2083 98.2292 28.0625 95.1875 27.9375C92.1875 27.7708 88.6875 27.6458 84.6875 27.5625C80.6875 27.4375 75.9375 27.375 70.4375 27.375C64.8958 27.375 60.125 27.4375 56.125 27.5625C52.125 27.6458 48.6042 27.7708 45.5625 27.9375C42.5625 28.0625 39.7917 28.2083 37.25 28.375C36.375 28.4167 35.7708 28.2708 35.4375 27.9375C35.1042 27.5625 35.0208 26.9583 35.1875 26.125ZM37.4375 59.8125C35.3542 59.8125 33.6042 59.125 32.1875 57.75C30.8125 56.3333 30.125 54.5833 30.125 52.5C30.125 50.4167 30.8125 48.6875 32.1875 47.3125C33.6042 45.8958 35.3542 45.1875 37.4375 45.1875C39.5208 45.1875 41.25 45.8958 42.625 47.3125C44.0417 48.6875 44.75 50.4167 44.75 52.5C44.75 54.5833 44.0417 56.3333 42.625 57.75C41.25 59.125 39.5208 59.8125 37.4375 59.8125ZM58.3125 58.0625C56.7708 58.0625 55.5 57.5833 54.5 56.625C53.5417 55.625 53.0625 54.3333 53.0625 52.75C53.0625 51.2083 53.5417 49.9583 54.5 49C55.5 48 56.7708 47.5 58.3125 47.5H82.5C84.0417 47.5 85.2917 48 86.25 49C87.25 49.9583 87.75 51.2083 87.75 52.75C87.75 54.3333 87.25 55.625 86.25 56.625C85.2917 57.5833 84.0417 58.0625 82.5 58.0625H58.3125ZM103.375 59.8125C101.292 59.8125 99.5417 59.125 98.125 57.75C96.75 56.3333 96.0625 54.5833 96.0625 52.5C96.0625 50.4167 96.75 48.6875 98.125 47.3125C99.5417 45.8958 101.292 45.1875 103.375 45.1875C105.458 45.1875 107.188 45.8958 108.562 47.3125C109.979 48.6875 110.688 50.4167 110.688 52.5C110.688 54.5833 109.979 56.3333 108.562 57.75C107.188 59.125 105.458 59.8125 103.375 59.8125ZM70.4375 72.1875C74.2708 72.1875 78.3125 72.1458 82.5625 72.0625C86.8125 71.9375 91 71.8125 95.125 71.6875C99.25 71.5208 103.021 71.3333 106.438 71.125C109.854 70.9167 112.646 70.6875 114.812 70.4375C117.896 70.0625 120.271 69.0417 121.938 67.375C123.604 65.7083 124.438 63.3958 124.438 60.4375V52.375C124.438 48.5417 124 45.3542 123.125 42.8125C122.25 40.2708 120.771 37.6458 118.688 34.9375L114.812 29.9375C113.979 25.8125 112.917 21.8333 111.625 18C110.333 14.125 109.292 11.3542 108.5 9.6875C107.292 7.10417 105.542 5.0625 103.25 3.5625C100.958 2.02083 98.2917 1.0625 95.25 0.6875C94.25 0.520833 92.5417 0.395833 90.125 0.3125C87.7083 0.229167 84.7917 0.166667 81.375 0.125C78 0.0416667 74.3542 0 70.4375 0C66.4792 0 62.7917 0.0416667 59.375 0.125C56 0.166667 53.1042 0.25 50.6875 0.375C48.2708 0.458333 46.5625 0.5625 45.5625 0.6875C42.5208 1.02083 39.8542 1.95833 37.5625 3.5C35.2708 5.04167 33.5208 7.10417 32.3125 9.6875C31.5208 11.3542 30.4792 14.125 29.1875 18C27.8958 21.8333 26.8333 25.8125 26 29.9375L22.1875 34.9375C20.0625 37.6458 18.5625 40.2708 17.6875 42.8125C16.8125 45.3542 16.375 48.5417 16.375 52.375V60.4375C16.375 63.3958 17.2083 65.7083 18.875 67.375C20.5417 69.0417 22.9167 70.0625 26 70.4375C28.1667 70.6875 30.9583 70.9167 34.375 71.125C37.8333 71.3333 41.6042 71.5208 45.6875 71.6875C49.8125 71.8125 54 71.9375 58.25 72.0625C62.5 72.1458 66.5625 72.1875 70.4375 72.1875ZM22.4375 84.75H27.8125C29.5208 84.75 30.9583 84.1667 32.125 83C33.2917 81.8333 33.875 80.4167 33.875 78.75V67.375L16.375 59V78.75C16.375 80.4167 16.9583 81.8333 18.125 83C19.2917 84.1667 20.7292 84.75 22.4375 84.75ZM113 84.75H118.375C120.083 84.75 121.521 84.1667 122.688 83C123.854 81.8333 124.438 80.4167 124.438 78.75V59L107 67.375V78.75C107 80.4167 107.562 81.8333 108.688 83C109.854 84.1667 111.292 84.75 113 84.75Z" fill="white"/>
</svg>
