<svg width="149" height="117" viewBox="0 0 149 117" fill="none" xmlns="http://www.w3.org/2000/svg">
<path d="M30.25 40.125C30 41.25 30.1042 42.0417 30.5625 42.5C31.0208 42.9583 31.8542 43.1458 33.0625 43.0625C36.3958 42.8125 40.0208 42.6042 43.9375 42.4375C47.8542 42.2292 52.3125 42.0833 57.3125 42C62.3542 41.875 68.2083 41.8125 74.875 41.8125C81.5417 41.8125 87.375 41.875 92.375 42C97.4167 42.0833 101.896 42.2292 105.812 42.4375C109.771 42.6042 113.417 42.8125 116.75 43.0625C117.917 43.1458 118.729 42.9583 119.188 42.5C119.646 42.0417 119.75 41.25 119.5 40.125C119 37.9167 118.375 35.5833 117.625 33.125C116.875 30.6667 116.104 28.3958 115.312 26.3125C114.521 24.1875 113.792 22.5625 113.125 21.4375C112.333 20.0208 111.417 18.9792 110.375 18.3125C109.375 17.6458 108.062 17.1875 106.438 16.9375C104.188 16.6042 100.458 16.3542 95.25 16.1875C90.0417 15.9792 83.25 15.875 74.875 15.875C66.5 15.875 59.7083 15.9792 54.5 16.1875C49.2917 16.3542 45.5625 16.6042 43.3125 16.9375C41.6875 17.1875 40.3542 17.6458 39.3125 18.3125C38.3125 18.9792 37.4167 20.0208 36.625 21.4375C35.9583 22.5625 35.2292 24.1875 34.4375 26.3125C33.6458 28.3958 32.875 30.6667 32.125 33.125C31.4167 35.5833 30.7917 37.9167 30.25 40.125ZM29.8125 82.6875C32.6875 82.6875 35.0833 81.7292 37 79.8125C38.9167 77.8542 39.875 75.4583 39.875 72.625C39.875 69.75 38.9167 67.3542 37 65.4375C35.0833 63.5208 32.6875 62.5625 29.8125 62.5625C26.9375 62.5625 24.5417 63.5208 22.625 65.4375C20.7083 67.3542 19.75 69.75 19.75 72.625C19.75 75.4583 20.7083 77.8542 22.625 79.8125C24.5417 81.7292 26.9375 82.6875 29.8125 82.6875ZM58.375 80.1875H91.4375C93.5625 80.1875 95.2917 79.5208 96.625 78.1875C97.9583 76.8542 98.625 75.1042 98.625 72.9375C98.625 70.8125 97.9583 69.0833 96.625 67.75C95.2917 66.4167 93.5625 65.75 91.4375 65.75H58.375C56.2083 65.75 54.4583 66.4167 53.125 67.75C51.7917 69.0833 51.125 70.8125 51.125 72.9375C51.125 75.1042 51.7917 76.8542 53.125 78.1875C54.4583 79.5208 56.2083 80.1875 58.375 80.1875ZM119.938 82.6875C122.812 82.6875 125.208 81.7292 127.125 79.8125C129.042 77.8542 130 75.4583 130 72.625C130 69.75 129.042 67.3542 127.125 65.4375C125.208 63.5208 122.812 62.5625 119.938 62.5625C117.104 62.5625 114.729 63.5208 112.812 65.4375C110.896 67.3542 109.938 69.75 109.938 72.625C109.938 75.4583 110.896 77.8542 112.812 79.8125C114.729 81.7292 117.104 82.6875 119.938 82.6875ZM74.875 99.5625C80.125 99.5625 85.6667 99.5 91.5 99.375C97.3333 99.25 103.062 99.0833 108.688 98.875C114.312 98.625 119.458 98.3542 124.125 98.0625C128.833 97.7708 132.667 97.4583 135.625 97.125C139.875 96.625 143.125 95.2292 145.375 92.9375C147.667 90.6458 148.812 87.5 148.812 83.5V72.5C148.812 68.9583 148.562 65.875 148.062 63.25C147.562 60.5833 146.729 58.1042 145.562 55.8125C144.396 53.4792 142.854 51.0625 140.938 48.5625L135.625 41.75C134.875 38 133.958 34.2917 132.875 30.625C131.833 26.9583 130.771 23.6667 129.688 20.75C128.646 17.8333 127.771 15.6042 127.062 14.0625C125.396 10.5208 122.979 7.70833 119.812 5.625C116.688 3.54167 113.062 2.22917 108.938 1.6875C107.521 1.47917 105.146 1.3125 101.812 1.1875C98.5208 1.0625 94.5417 0.979167 89.875 0.9375C85.25 0.854167 80.25 0.8125 74.875 0.8125C69.5 0.8125 64.4792 0.854167 59.8125 0.9375C55.1875 1.02083 51.2083 1.125 47.875 1.25C44.5833 1.375 42.25 1.52083 40.875 1.6875C36.7083 2.1875 33.0625 3.5 29.9375 5.625C26.8125 7.70833 24.4167 10.5208 22.75 14.0625C22 15.6042 21.1042 17.8333 20.0625 20.75C19.0208 23.6667 17.9583 26.9583 16.875 30.625C15.7917 34.2917 14.875 38 14.125 41.75L8.875 48.5625C6.91667 51.0625 5.35417 53.4792 4.1875 55.8125C3.0625 58.1042 2.22917 60.5833 1.6875 63.25C1.1875 65.875 0.9375 68.9583 0.9375 72.5V83.5C0.9375 87.5 2.08333 90.6458 4.375 92.9375C6.66667 95.2292 9.91667 96.625 14.125 97.125C17.0833 97.4583 20.8958 97.7708 25.5625 98.0625C30.2708 98.3542 35.4375 98.625 41.0625 98.875C46.6875 99.0833 52.4167 99.25 58.25 99.375C64.0833 99.5 69.625 99.5625 74.875 99.5625ZM74.875 91.375C69.5833 91.375 64.0417 91.3125 58.25 91.1875C52.4583 91.0625 46.8333 90.9167 41.375 90.75C35.9583 90.5417 31.0625 90.3125 26.6875 90.0625C22.3125 89.7708 18.8542 89.4583 16.3125 89.125C13.6875 88.7917 11.8333 87.9583 10.75 86.625C9.66667 85.25 9.125 83.375 9.125 81V72.5C9.125 69.625 9.3125 67.1875 9.6875 65.1875C10.0625 63.1458 10.6875 61.2292 11.5625 59.4375C12.4792 57.6458 13.75 55.6875 15.375 53.5625L21.75 45.1875C22.1667 42.9375 22.7083 40.5208 23.375 37.9375C24.0417 35.3542 24.7708 32.7917 25.5625 30.25C26.3542 27.7083 27.1458 25.3542 27.9375 23.1875C28.7708 21.0208 29.5208 19.2083 30.1875 17.75C31.1875 15.5833 32.6667 13.8542 34.625 12.5625C36.5833 11.2292 38.9792 10.3958 41.8125 10.0625C43.1458 9.89583 45.375 9.72917 48.5 9.5625C51.625 9.39583 55.4375 9.27083 59.9375 9.1875C64.4375 9.0625 69.4167 9 74.875 9C80.375 9 85.375 9.0625 89.875 9.1875C94.4167 9.27083 98.2292 9.39583 101.312 9.5625C104.438 9.72917 106.604 9.89583 107.812 10.0625C110.771 10.4375 113.208 11.2917 115.125 12.625C117.083 13.9167 118.583 15.625 119.625 17.75C120.292 19.2083 121.021 21.0208 121.812 23.1875C122.604 25.3542 123.396 27.7083 124.188 30.25C124.979 32.7917 125.708 35.3542 126.375 37.9375C127.042 40.5208 127.583 42.9375 128 45.1875L134.438 53.5625C136.062 55.6875 137.312 57.6458 138.188 59.4375C139.104 61.2292 139.729 63.1458 140.062 65.1875C140.438 67.1875 140.625 69.625 140.625 72.5V81C140.625 83.375 140.083 85.25 139 86.625C137.958 88 136.104 88.8333 133.438 89.125C130.938 89.4583 127.5 89.75 123.125 90C118.75 90.25 113.833 90.4792 108.375 90.6875C102.917 90.8958 97.2917 91.0625 91.5 91.1875C85.75 91.3125 80.2083 91.375 74.875 91.375ZM12.4375 116.75H19.75C22.125 116.75 24.1042 115.958 25.6875 114.375C27.2708 112.792 28.0625 110.833 28.0625 108.5V93.625L4.125 90.1875V108.5C4.125 110.833 4.91667 112.792 6.5 114.375C8.08333 115.958 10.0625 116.75 12.4375 116.75ZM130 116.75H137.375C139.708 116.75 141.667 115.958 143.25 114.375C144.833 112.792 145.625 110.833 145.625 108.5V90.1875L121.75 93.625V108.5C121.75 110.833 122.542 112.792 124.125 114.375C125.708 115.958 127.667 116.75 130 116.75Z" fill="white"/>
</svg>
