<svg width="26" height="15" viewBox="0 0 26 15" fill="none" xmlns="http://www.w3.org/2000/svg">
<path d="M7.91406 12.4219V11.3984C7.17448 11.388 6.44792 11.3698 5.73438 11.3438C5.02083 11.3125 4.375 11.2812 3.79688 11.25C3.22396 11.2135 2.77344 11.1771 2.44531 11.1406C2.11719 11.1042 1.88542 11 1.75 10.8281C1.61458 10.6562 1.54688 10.4219 1.54688 10.125V9.0625C1.54688 8.70312 1.57031 8.39844 1.61719 8.14844C1.66406 7.89323 1.74219 7.65365 1.85156 7.42969C1.96615 7.20573 2.125 6.96094 2.32812 6.69531L3.125 5.64844C3.17708 5.36719 3.24479 5.0651 3.32812 4.74219C3.41146 4.41927 3.5026 4.09896 3.60156 3.78125C3.70052 3.46354 3.79948 3.16927 3.89844 2.89844C4.0026 2.6276 4.09635 2.40104 4.17969 2.21875C4.30469 1.94792 4.48958 1.73177 4.73438 1.57031C4.97917 1.40365 5.27865 1.29948 5.63281 1.25781C5.79948 1.23698 6.07812 1.21615 6.46875 1.19531C6.85938 1.17448 7.33594 1.15885 7.89844 1.14844C8.46094 1.13281 9.08333 1.125 9.76562 1.125C10.3281 1.125 10.8516 1.13021 11.3359 1.14062C11.8255 1.15104 12.2578 1.16406 12.6328 1.17969L13.0547 0.148438C12.6536 0.132812 12.1693 0.122396 11.6016 0.117188C11.0339 0.106771 10.4219 0.101562 9.76562 0.101562C9.09375 0.101562 8.46615 0.106771 7.88281 0.117188C7.30469 0.127604 6.80729 0.140625 6.39062 0.15625C5.97917 0.171875 5.6875 0.190104 5.51562 0.210938C4.99479 0.273438 4.53906 0.4375 4.14844 0.703125C3.75781 0.963542 3.45833 1.3151 3.25 1.75781C3.15625 1.95052 3.04427 2.22917 2.91406 2.59375C2.78385 2.95833 2.65104 3.36979 2.51562 3.82812C2.38021 4.28646 2.26562 4.75 2.17188 5.21875L1.51562 6.07031C1.27083 6.38281 1.07552 6.6849 0.929688 6.97656C0.789062 7.26302 0.684896 7.57292 0.617188 7.90625C0.554688 8.23438 0.523438 8.61979 0.523438 9.0625V10.2812C0.523438 10.8385 0.664062 11.2734 0.945312 11.5859C1.22656 11.8932 1.63542 12.0781 2.17188 12.1406C2.46354 12.1771 2.82031 12.2109 3.24219 12.2422C3.66406 12.2734 4.13021 12.3021 4.64062 12.3281C5.15104 12.349 5.6849 12.3672 6.24219 12.3828C6.79948 12.3984 7.35677 12.4115 7.91406 12.4219ZM9.32031 5.22656L10.1328 1.98438C10.0755 1.98438 10.0156 1.98438 9.95312 1.98438C9.89062 1.98438 9.82812 1.98438 9.76562 1.98438C8.71875 1.98438 7.86979 1.9974 7.21875 2.02344C6.56771 2.04427 6.10156 2.07552 5.82031 2.11719C5.61719 2.14844 5.45052 2.20573 5.32031 2.28906C5.19531 2.3724 5.08333 2.5026 4.98438 2.67969C4.90104 2.82031 4.8099 3.02344 4.71094 3.28906C4.61198 3.54948 4.51562 3.83333 4.42188 4.14062C4.32812 4.44792 4.25 4.73958 4.1875 5.01562C4.15625 5.15625 4.16927 5.25521 4.22656 5.3125C4.28385 5.36979 4.38802 5.39323 4.53906 5.38281C4.77344 5.36719 5.01823 5.35156 5.27344 5.33594C5.52865 5.32031 5.79948 5.30729 6.08594 5.29688C6.3776 5.28125 6.6875 5.27083 7.01562 5.26562C7.34375 5.25521 7.69792 5.2474 8.07812 5.24219C8.46354 5.23177 8.8776 5.22656 9.32031 5.22656ZM1.96094 14.5938H2.875C3.17188 14.5938 3.41927 14.4948 3.61719 14.2969C3.8151 14.099 3.91406 13.8542 3.91406 13.5625V11.7266L0.921875 11.2812V13.5625C0.921875 13.8542 1.02083 14.099 1.21875 14.2969C1.41667 14.4948 1.66406 14.5938 1.96094 14.5938ZM4.13281 10.3359C4.49219 10.3359 4.79167 10.2161 5.03125 9.97656C5.27083 9.73177 5.39062 9.43229 5.39062 9.07812C5.39062 8.71875 5.27083 8.41927 5.03125 8.17969C4.79167 7.9401 4.49219 7.82031 4.13281 7.82031C3.77344 7.82031 3.47396 7.9401 3.23438 8.17969C2.99479 8.41927 2.875 8.71875 2.875 9.07812C2.875 9.43229 2.99479 9.73177 3.23438 9.97656C3.47396 10.2161 3.77344 10.3359 4.13281 10.3359ZM16.2344 12.4453C16.8906 12.4453 17.5833 12.4375 18.3125 12.4219C19.0417 12.4062 19.7578 12.3854 20.4609 12.3594C21.1641 12.3281 21.8073 12.2943 22.3906 12.2578C22.9792 12.2214 23.4583 12.1823 23.8281 12.1406C24.3542 12.0781 24.7604 11.9036 25.0469 11.6172C25.3333 11.3307 25.4766 10.9375 25.4766 10.4375V9.0625C25.4766 8.61979 25.4427 8.23438 25.375 7.90625C25.3125 7.57292 25.2083 7.26302 25.0625 6.97656C24.9219 6.6849 24.7292 6.38281 24.4844 6.07031L23.8281 5.21875C23.7292 4.75 23.612 4.28646 23.4766 3.82812C23.3464 3.36979 23.2135 2.95833 23.0781 2.59375C22.9479 2.22917 22.8385 1.95052 22.75 1.75781C22.5417 1.3151 22.2422 0.963542 21.8516 0.703125C21.4609 0.442708 21.0052 0.278646 20.4844 0.210938C20.3125 0.184896 20.0182 0.164062 19.6016 0.148438C19.1901 0.132812 18.6927 0.122396 18.1094 0.117188C17.5312 0.106771 16.9062 0.101562 16.2344 0.101562C15.5573 0.101562 14.9297 0.106771 14.3516 0.117188C13.7734 0.127604 13.276 0.140625 12.8594 0.15625C12.4479 0.171875 12.1536 0.190104 11.9766 0.210938C11.4609 0.273438 11.0052 0.4375 10.6094 0.703125C10.2188 0.963542 9.91927 1.3151 9.71094 1.75781C9.6224 1.95052 9.51042 2.22917 9.375 2.59375C9.24479 2.95833 9.11198 3.36979 8.97656 3.82812C8.84635 4.28646 8.73438 4.75 8.64062 5.21875L7.97656 6.07031C7.73698 6.38281 7.54427 6.6849 7.39844 6.97656C7.2526 7.26302 7.14583 7.57292 7.07812 7.90625C7.01562 8.23438 6.98438 8.61979 6.98438 9.0625V10.4375C6.98438 10.9375 7.1276 11.3307 7.41406 11.6172C7.70052 11.9036 8.10938 12.0781 8.64062 12.1406C9.01042 12.1823 9.48698 12.2214 10.0703 12.2578C10.6589 12.2943 11.3047 12.3281 12.0078 12.3594C12.7109 12.3854 13.4271 12.4062 14.1562 12.4219C14.8854 12.4375 15.5781 12.4453 16.2344 12.4453ZM16.2344 11.4219C15.5677 11.4219 14.8724 11.4141 14.1484 11.3984C13.4297 11.3828 12.7292 11.3646 12.0469 11.3438C11.3646 11.3177 10.75 11.2891 10.2031 11.2578C9.65625 11.2214 9.22656 11.1823 8.91406 11.1406C8.58073 11.099 8.34635 10.9948 8.21094 10.8281C8.07552 10.6562 8.00781 10.4219 8.00781 10.125V9.0625C8.00781 8.70312 8.03125 8.39844 8.07812 8.14844C8.125 7.89323 8.20312 7.65365 8.3125 7.42969C8.42708 7.20573 8.58594 6.96094 8.78906 6.69531L9.59375 5.64844C9.64583 5.36719 9.71354 5.0651 9.79688 4.74219C9.88021 4.41927 9.97135 4.09896 10.0703 3.78125C10.1693 3.46354 10.2682 3.16927 10.3672 2.89844C10.4661 2.6276 10.5573 2.40104 10.6406 2.21875C10.7656 1.94792 10.9505 1.73177 11.1953 1.57031C11.4401 1.40365 11.7422 1.29948 12.1016 1.25781C12.2682 1.23698 12.5443 1.21615 12.9297 1.19531C13.3203 1.17448 13.7969 1.15885 14.3594 1.14844C14.9219 1.13281 15.5469 1.125 16.2344 1.125C16.9167 1.125 17.5391 1.13281 18.1016 1.14844C18.6693 1.15885 19.1484 1.17448 19.5391 1.19531C19.9297 1.21615 20.2005 1.23698 20.3516 1.25781C20.7161 1.30469 21.0208 1.41146 21.2656 1.57812C21.5104 1.73958 21.6953 1.95312 21.8203 2.21875C21.9089 2.40104 22.0026 2.6276 22.1016 2.89844C22.2005 3.16927 22.2995 3.46354 22.3984 3.78125C22.4974 4.09896 22.5885 4.41927 22.6719 4.74219C22.7552 5.0651 22.8229 5.36719 22.875 5.64844L23.6719 6.69531C23.875 6.96094 24.0312 7.20573 24.1406 7.42969C24.2552 7.65365 24.3359 7.89323 24.3828 8.14844C24.4297 8.39844 24.4531 8.70312 24.4531 9.0625V10.125C24.4531 10.4219 24.3854 10.6562 24.25 10.8281C24.1146 11 23.8802 11.1042 23.5469 11.1406C23.2344 11.1823 22.8047 11.2188 22.2578 11.25C21.7109 11.2812 21.0964 11.3099 20.4141 11.3359C19.737 11.362 19.0365 11.3828 18.3125 11.3984C17.5885 11.4141 16.8958 11.4219 16.2344 11.4219ZM10.6562 5.01562C10.625 5.15625 10.638 5.25521 10.6953 5.3125C10.7526 5.36979 10.8542 5.39323 11 5.38281C11.4167 5.35156 11.8698 5.32552 12.3594 5.30469C12.849 5.27865 13.4089 5.26042 14.0391 5.25C14.6693 5.23438 15.401 5.22656 16.2344 5.22656C17.0677 5.22656 17.7969 5.23438 18.4219 5.25C19.0521 5.26042 19.612 5.27865 20.1016 5.30469C20.5911 5.32552 21.0443 5.35156 21.4609 5.38281C21.6068 5.39323 21.7083 5.36979 21.7656 5.3125C21.8229 5.25521 21.8359 5.15625 21.8047 5.01562C21.7422 4.73958 21.6641 4.44792 21.5703 4.14062C21.4818 3.83333 21.388 3.54948 21.2891 3.28906C21.1901 3.02344 21.099 2.82031 21.0156 2.67969C20.9115 2.5026 20.7969 2.3724 20.6719 2.28906C20.5469 2.20573 20.3828 2.14844 20.1797 2.11719C19.8932 2.07552 19.4245 2.04427 18.7734 2.02344C18.1276 1.9974 17.2812 1.98438 16.2344 1.98438C15.1823 1.98438 14.3307 1.9974 13.6797 2.02344C13.0339 2.04427 12.5703 2.07552 12.2891 2.11719C12.0859 2.14844 11.9193 2.20573 11.7891 2.28906C11.6641 2.3724 11.5495 2.5026 11.4453 2.67969C11.3672 2.82031 11.2786 3.02344 11.1797 3.28906C11.0807 3.54948 10.9844 3.83333 10.8906 4.14062C10.7969 4.44792 10.7188 4.73958 10.6562 5.01562ZM8.42188 14.5938H9.34375C9.63542 14.5938 9.88021 14.4948 10.0781 14.2969C10.276 14.099 10.375 13.8542 10.375 13.5625V11.7031L7.39062 11.2734V13.5625C7.39062 13.8542 7.48958 14.099 7.6875 14.2969C7.88542 14.4948 8.13021 14.5938 8.42188 14.5938ZM23.125 14.5938H24.0391C24.3307 14.5938 24.5755 14.4948 24.7734 14.2969C24.9766 14.099 25.0781 13.8542 25.0781 13.5625V11.2734L22.0859 11.7031V13.5625C22.0859 13.8542 22.1849 14.099 22.3828 14.2969C22.5807 14.4948 22.8281 14.5938 23.125 14.5938ZM10.6016 10.3359C10.9557 10.3359 11.2526 10.2161 11.4922 9.97656C11.7318 9.73177 11.8516 9.43229 11.8516 9.07812C11.8516 8.71875 11.7318 8.41927 11.4922 8.17969C11.2526 7.9401 10.9557 7.82031 10.6016 7.82031C10.2422 7.82031 9.94271 7.9401 9.70312 8.17969C9.46354 8.41927 9.34375 8.71875 9.34375 9.07812C9.34375 9.43229 9.46354 9.73177 9.70312 9.97656C9.94271 10.2161 10.2422 10.3359 10.6016 10.3359ZM14.1641 10.0234H18.2969C18.5625 10.0234 18.7786 9.9401 18.9453 9.77344C19.1172 9.60677 19.2031 9.38802 19.2031 9.11719C19.2031 8.85156 19.1172 8.63542 18.9453 8.46875C18.7786 8.30208 18.5625 8.21875 18.2969 8.21875H14.1641C13.8984 8.21875 13.6797 8.30208 13.5078 8.46875C13.3411 8.63542 13.2578 8.85156 13.2578 9.11719C13.2578 9.38802 13.3411 9.60677 13.5078 9.77344C13.6797 9.9401 13.8984 10.0234 14.1641 10.0234ZM21.8672 10.3359C22.2214 10.3359 22.5182 10.2161 22.7578 9.97656C23.0026 9.73177 23.125 9.43229 23.125 9.07812C23.125 8.71875 23.0026 8.41927 22.7578 8.17969C22.5182 7.9401 22.2214 7.82031 21.8672 7.82031C21.5078 7.82031 21.2083 7.9401 20.9688 8.17969C20.7292 8.41927 20.6094 8.71875 20.6094 9.07812C20.6094 9.43229 20.7292 9.73177 20.9688 9.97656C21.2083 10.2161 21.5078 10.3359 21.8672 10.3359Z" fill="white"/>
</svg>
