<svg xmlns="http://www.w3.org/2000/svg" width="24" height="24"><path style="stroke:none;fill-rule:nonzero;fill:#fff;fill-opacity:1" d="M9.012 17.695h11.515c.192 0 .36-.082.504-.246a.97.97 0 0 0 .215-.633c0-.25-.07-.457-.215-.62a.65.65 0 0 0-.504-.259H9.176a.855.855 0 0 1-.68-.316 1.69 1.69 0 0 1-.316-.867L6.563 1.71C6.511 1.258 6.39.918 6.207.69c-.176-.226-.52-.34-1.027-.34H1.719c-.2 0-.371.09-.516.27a.901.901 0 0 0-.215.61c0 .238.07.453.215.632.133.168.32.258.516.258H5.05l1.582 12.867c.105.832.347 1.496.73 1.98.38.485.93.727 1.649.727Zm-1.817-4.172h13.352c.723 0 1.277-.242 1.656-.726.383-.492.625-1.16.73-2.004l.79-6.2c.015-.081.023-.155.03-.234.009-.086.009-.156.009-.21a.942.942 0 0 0-.246-.68c-.164-.18-.38-.27-.653-.27H6.336l.008 1.77h15.742l-.7 5.613c-.042.36-.144.648-.308.863-.164.215-.39.317-.68.317H7.176Zm2.594 9.868c.441 0 .816-.184 1.125-.551.316-.367.473-.817.473-1.348 0-.531-.157-.98-.473-1.347-.293-.36-.703-.56-1.125-.551-.3 0-.574.082-.82.246a1.887 1.887 0 0 0-.57.691c-.145.29-.223.621-.22.961 0 .352.075.672.22.957.289.59.82.95 1.39.942Zm9.227 0c.449 0 .828-.184 1.136-.551.317-.367.473-.817.473-1.348 0-.531-.156-.98-.473-1.347-.297-.36-.71-.563-1.136-.551a1.41 1.41 0 0 0-.809.246 1.84 1.84 0 0 0-.582.691c-.145.29-.223.621-.219.961 0 .531.16.98.477 1.348.316.367.691.55 1.133.55Zm0 0"/></svg>