<svg xmlns="http://www.w3.org/2000/svg" width="24" height="24"><path style="stroke:none;fill-rule:nonzero;fill:#fff;fill-opacity:1" d="M4.04 22.742h15.91c.968 0 1.695-.289 2.175-.887.48-.593.723-1.488.723-2.687V7.77c0-1.204-.243-2.098-.723-2.684-.48-.594-1.207-.89-2.176-.89H4.04c-.96 0-1.687.296-2.172.89-.484.59-.722 1.48-.722 2.684v11.398c0 1.2.238 2.094.722 2.687.485.598 1.211.887 2.172.887ZM7.237 5.215h1.453V3.14c0-.446.098-.79.301-1.032.2-.246.485-.363.852-.363h4.304c.36 0 .641.117.844.363.2.246.297.586.297 1.032v2.05h1.453V3.27c0-1.102-.222-1.91-.672-2.442-.453-.527-1.101-.793-1.953-.793H9.863c-.8 0-1.437.266-1.914.793-.472.531-.71 1.34-.71 2.442Zm0 0"/></svg>