<svg xmlns="http://www.w3.org/2000/svg" width="24" height="24"><path style="stroke:none;fill-rule:nonzero;fill:#fff;fill-opacity:1" d="M4.887 23.3h14.215c1.226 0 2.144-.323 2.753-.976.618-.64.926-1.605.926-2.898V4.164c0-1.293-.308-2.258-.926-2.898-.609-.653-1.527-.977-2.753-.977H4.887c-1.227 0-2.149.324-2.766.977-.61.64-.914 1.605-.914 2.898v15.262c0 1.293.305 2.258.914 2.902.617.649 1.54.973 2.766.973Zm.023-2.01c-.586 0-1.035-.165-1.348-.49-.312-.335-.468-.823-.468-1.476V4.262c0-.649.156-1.137.469-1.461.312-.336.761-.5 1.347-.5h14.168c.578 0 1.024.164 1.336.5.32.324.48.812.48 1.46v15.063c0 .653-.16 1.14-.48 1.477-.312.324-.758.488-1.336.488Zm2.38-9.49c0 1.708.366 3.09 1.1 4.15.743 1.05 1.739 1.66 2.989 1.823v1.004c0 .192.055.344.164.461.113.11.258.168.41.16.164 0 .3-.05.41-.16a.627.627 0 0 0 .176-.46v-.989c.899-.074 1.656-.355 2.274-.84a3.992 3.992 0 0 0 1.312-1.86c.031-.1.059-.206.082-.312.023-.109.035-.218.035-.328a.786.786 0 0 0-.199-.55.695.695 0 0 0-.527-.211.674.674 0 0 0-.48.175c-.13.133-.223.301-.27.489-.133.507-.41.957-.797 1.285a2.754 2.754 0 0 1-1.43.636v-8.91c.524.09.977.317 1.36.676.39.356.652.781.785 1.274.125.433.375.648.75.648a.705.705 0 0 0 .527-.2c.133-.14.195-.327.187-.562 0-.11-.011-.21-.035-.312a2.02 2.02 0 0 0-.07-.313 4.006 4.006 0 0 0-1.324-1.863 4.084 4.084 0 0 0-2.18-.875v-.973a.563.563 0 0 0-.176-.437.542.542 0 0 0-.41-.176c-.164 0-.3.059-.41.176a.58.58 0 0 0-.164.437v.985c-1.25.168-2.246.78-2.988 1.84-.735 1.058-1.102 2.43-1.102 4.113Zm1.57 0c0-1.198.222-2.187.667-2.964.453-.781 1.07-1.262 1.852-1.438v8.84c-.781-.183-1.399-.668-1.852-1.449-.445-.785-.668-1.781-.668-2.988Zm0 0"/></svg>