<svg xmlns="http://www.w3.org/2000/svg" width="24" height="24"><path style="stroke:none;fill-rule:nonzero;fill:#fff;fill-opacity:1" d="M5.156 12.438h2.672V8.011H5.156Zm11.016 0h2.672V8.011h-2.672ZM3.656 23.75h.485c.386 0 .699-.082.937-.238.238-.16.36-.367.36-.625v-6.742H2.358v6.742c0 .258.121.465.36.625.25.156.562.238.937.238Zm.969-4.637h14.75v-1.57H4.625Zm15.234 4.637h.485c.375 0 .683-.082.922-.238.25-.16.375-.367.375-.625v-6.742h-3.078v6.742c0 .258.12.465.359.625.238.156.55.238.937.238ZM4.672 8.926h14.656c1.813 0 2.719-.586 2.719-1.758V2.957c0-1.172-.906-1.758-2.719-1.758H4.672c-1.813 0-2.719.586-2.719 1.758v4.211c0 1.172.906 1.758 2.719 1.758Zm-1.39 7.761h17.437c1.718 0 2.578-.55 2.578-1.656V13.45c0-1.105-.86-1.656-2.578-1.656H3.28c-1.719 0-2.578.55-2.578 1.656v1.582c0 1.106.86 1.656 2.578 1.656Zm0 0"/></svg>