<?xml version="1.0" encoding="UTF-8"?>
<svg xmlns="http://www.w3.org/2000/svg" xmlns:xlink="http://www.w3.org/1999/xlink" width="24" height="22.5" viewBox="0 0 24 22.5" version="1.1">
<g id="surface1">
<path style=" stroke:none;fill-rule:nonzero;fill:rgb(100%,100%,100%);fill-opacity:1;" d="M 3.796875 7.640625 L 5.765625 7.640625 L 5.765625 3.679688 C 5.765625 3.390625 5.851562 3.160156 6.023438 2.988281 C 6.203125 2.808594 6.433594 2.71875 6.714844 2.71875 L 17.261719 2.71875 C 17.550781 2.71875 17.78125 2.808594 17.953125 2.988281 C 18.125 3.160156 18.210938 3.390625 18.210938 3.679688 L 18.210938 7.640625 L 20.179688 7.640625 L 20.179688 3.667969 C 20.179688 2.785156 19.917969 2.078125 19.394531 1.546875 C 18.878906 1.015625 18.203125 0.75 17.367188 0.75 L 6.621094 0.75 C 5.777344 0.75 5.09375 1.015625 4.570312 1.546875 C 4.054688 2.078125 3.796875 2.785156 3.796875 3.667969 Z M 0.339844 16.125 C 0.339844 16.96875 0.59375 17.648438 1.101562 18.164062 C 1.617188 18.671875 2.289062 18.925781 3.117188 18.925781 L 20.871094 18.925781 C 21.699219 18.925781 22.367188 18.671875 22.875 18.164062 C 23.390625 17.648438 23.648438 16.96875 23.648438 16.125 L 23.648438 9 C 23.648438 8.15625 23.390625 7.480469 22.875 6.972656 C 22.367188 6.457031 21.699219 6.199219 20.871094 6.199219 L 19.5 6.199219 C 18.671875 6.199219 18 6.457031 17.484375 6.972656 C 16.976562 7.480469 16.722656 8.15625 16.722656 9 L 16.722656 12.058594 L 7.265625 12.058594 L 7.265625 9 C 7.265625 8.15625 7.007812 7.480469 6.492188 6.972656 C 5.984375 6.457031 5.316406 6.199219 4.488281 6.199219 L 3.117188 6.199219 C 2.289062 6.199219 1.617188 6.457031 1.101562 6.972656 C 0.59375 7.480469 0.339844 8.15625 0.339844 9 Z M 2.332031 16.101562 L 2.332031 9.023438 C 2.332031 8.765625 2.410156 8.558594 2.566406 8.402344 C 2.730469 8.246094 2.945312 8.167969 3.210938 8.167969 L 4.394531 8.167969 C 4.652344 8.167969 4.863281 8.246094 5.027344 8.402344 C 5.191406 8.558594 5.273438 8.765625 5.273438 9.023438 L 5.273438 14.027344 L 18.714844 14.027344 L 18.714844 9.023438 C 18.714844 8.765625 18.792969 8.558594 18.949219 8.402344 C 19.113281 8.246094 19.328125 8.167969 19.59375 8.167969 L 20.777344 8.167969 C 21.035156 8.167969 21.246094 8.246094 21.410156 8.402344 C 21.574219 8.558594 21.65625 8.765625 21.65625 9.023438 L 21.65625 16.101562 C 21.65625 16.359375 21.574219 16.566406 21.410156 16.722656 C 21.246094 16.878906 21.035156 16.957031 20.777344 16.957031 L 3.210938 16.957031 C 2.945312 16.957031 2.730469 16.878906 2.566406 16.722656 C 2.410156 16.566406 2.332031 16.359375 2.332031 16.101562 Z M 4.605469 21.316406 L 5.332031 21.316406 C 5.644531 21.316406 5.894531 21.222656 6.082031 21.035156 C 6.277344 20.847656 6.375 20.597656 6.375 20.285156 L 6.375 17.800781 L 3.5625 17.800781 L 3.5625 20.285156 C 3.5625 20.597656 3.65625 20.847656 3.84375 21.035156 C 4.039062 21.222656 4.292969 21.316406 4.605469 21.316406 Z M 18.65625 21.316406 L 19.371094 21.316406 C 19.691406 21.316406 19.945312 21.222656 20.132812 21.035156 C 20.320312 20.847656 20.414062 20.597656 20.414062 20.285156 L 20.414062 17.800781 L 17.613281 17.800781 L 17.613281 20.285156 C 17.613281 20.597656 17.707031 20.847656 17.894531 21.035156 C 18.082031 21.222656 18.335938 21.316406 18.65625 21.316406 Z M 18.65625 21.316406 "/>
</g>
</svg>
