<?xml version="1.0" encoding="UTF-8"?>
<svg xmlns="http://www.w3.org/2000/svg" xmlns:xlink="http://www.w3.org/1999/xlink" width="24" height="22.5" viewBox="0 0 24 22.5" version="1.1">
<g id="surface1">
<path style=" stroke:none;fill-rule:nonzero;fill:rgb(100%,100%,100%);fill-opacity:1;" d="M 7.113281 11.929688 L 16.875 11.929688 L 16.875 9.246094 C 16.875 8.558594 17.015625 7.945312 17.296875 7.40625 C 17.585938 6.867188 17.980469 6.441406 18.480469 6.128906 C 18.980469 5.816406 19.558594 5.660156 20.214844 5.660156 L 20.34375 5.660156 L 20.34375 3.292969 C 20.34375 2.527344 20.117188 1.914062 19.664062 1.453125 C 19.210938 0.984375 18.617188 0.75 17.882812 0.75 L 6.105469 0.75 C 5.371094 0.75 4.773438 0.984375 4.3125 1.453125 C 3.859375 1.914062 3.632812 2.527344 3.632812 3.292969 L 3.632812 5.660156 L 3.761719 5.660156 C 4.417969 5.660156 4.996094 5.816406 5.496094 6.128906 C 6.003906 6.441406 6.398438 6.867188 6.679688 7.40625 C 6.96875 7.945312 7.113281 8.558594 7.113281 9.246094 Z M 0.363281 16.371094 C 0.363281 17.105469 0.585938 17.695312 1.03125 18.140625 C 1.476562 18.585938 2.054688 18.808594 2.765625 18.808594 L 21.222656 18.808594 C 21.933594 18.808594 22.511719 18.585938 22.957031 18.140625 C 23.402344 17.695312 23.625 17.105469 23.625 16.371094 L 23.625 9.246094 C 23.625 8.519531 23.402344 7.933594 22.957031 7.488281 C 22.511719 7.035156 21.933594 6.808594 21.222656 6.808594 L 20.636719 6.808594 C 19.925781 6.808594 19.347656 7.035156 18.902344 7.488281 C 18.457031 7.933594 18.234375 8.519531 18.234375 9.246094 L 18.234375 13.289062 L 5.742188 13.289062 L 5.742188 9.246094 C 5.742188 8.519531 5.519531 7.933594 5.074219 7.488281 C 4.636719 7.035156 4.058594 6.808594 3.339844 6.808594 L 2.765625 6.808594 C 2.054688 6.808594 1.476562 7.035156 1.03125 7.488281 C 0.585938 7.933594 0.363281 8.519531 0.363281 9.246094 Z M 4.5 21.316406 L 5.238281 21.316406 C 5.550781 21.316406 5.800781 21.222656 5.988281 21.035156 C 6.183594 20.847656 6.28125 20.597656 6.28125 20.285156 L 6.28125 17.800781 L 3.46875 17.800781 L 3.46875 20.285156 C 3.46875 20.597656 3.5625 20.847656 3.75 21.035156 C 3.9375 21.222656 4.1875 21.316406 4.5 21.316406 Z M 18.75 21.316406 L 19.476562 21.316406 C 19.796875 21.316406 20.046875 21.222656 20.226562 21.035156 C 20.414062 20.847656 20.507812 20.597656 20.507812 20.285156 L 20.507812 17.800781 L 17.707031 17.800781 L 17.707031 20.285156 C 17.707031 20.597656 17.800781 20.847656 17.988281 21.035156 C 18.175781 21.222656 18.429688 21.316406 18.75 21.316406 Z M 18.75 21.316406 "/>
</g>
</svg>
