<svg width="18" height="14" viewBox="0 0 18 14" fill="none" xmlns="http://www.w3.org/2000/svg">
<path d="M0.851562 13.0078C0.851562 13.1849 0.914062 13.3333 1.03906 13.4531C1.16406 13.5729 1.3099 13.6328 1.47656 13.6328H16.5156C16.6875 13.6328 16.8359 13.5729 16.9609 13.4531C17.0859 13.3333 17.1484 13.1849 17.1484 13.0078C17.1484 12.8359 17.0859 12.6875 16.9609 12.5625C16.8359 12.4427 16.6875 12.3828 16.5156 12.3828H1.47656C1.3099 12.3828 1.16406 12.4427 1.03906 12.5625C0.914062 12.6875 0.851562 12.8359 0.851562 13.0078ZM1.47656 10.6016C1.47656 10.8047 1.53646 10.9635 1.65625 11.0781C1.78125 11.1927 1.95052 11.25 2.16406 11.25H3.86719C4.07552 11.25 4.23958 11.1927 4.35938 11.0781C4.48438 10.9635 4.54688 10.8047 4.54688 10.6016V4.14062C4.54688 3.9375 4.48438 3.77865 4.35938 3.66406C4.23958 3.54427 4.07552 3.48438 3.86719 3.48438H2.16406C1.95052 3.48438 1.78125 3.54427 1.65625 3.66406C1.53646 3.77865 1.47656 3.9375 1.47656 4.14062V10.6016ZM5.46094 10.6016C5.46094 10.8047 5.52083 10.9635 5.64062 11.0781C5.76562 11.1927 5.9349 11.25 6.14844 11.25H7.85156C8.0599 11.25 8.22656 11.1927 8.35156 11.0781C8.47656 10.9635 8.53906 10.8047 8.53906 10.6016V0.757812C8.53906 0.554688 8.47656 0.395833 8.35156 0.28125C8.22656 0.166667 8.0599 0.109375 7.85156 0.109375H6.14844C5.9349 0.109375 5.76562 0.166667 5.64062 0.28125C5.52083 0.395833 5.46094 0.554688 5.46094 0.757812V10.6016ZM9.45312 10.6016C9.45312 10.8047 9.51302 10.9635 9.63281 11.0781C9.75781 11.1927 9.92448 11.25 10.1328 11.25H11.8438C12.0521 11.25 12.2161 11.1927 12.3359 11.0781C12.4609 10.9635 12.5234 10.8047 12.5234 10.6016V2.44531C12.5234 2.23698 12.4609 2.07552 12.3359 1.96094C12.2161 1.84635 12.0521 1.78906 11.8438 1.78906H10.1328C9.92448 1.78906 9.75781 1.84635 9.63281 1.96094C9.51302 2.07552 9.45312 2.23698 9.45312 2.44531V10.6016ZM13.4375 10.6016C13.4375 10.8047 13.4974 10.9635 13.6172 11.0781C13.7422 11.1927 13.9115 11.25 14.125 11.25H15.8281C16.0365 11.25 16.2031 11.1927 16.3281 11.0781C16.4531 10.9635 16.5156 10.8047 16.5156 10.6016V5.78125C16.5156 5.57812 16.4531 5.41927 16.3281 5.30469C16.2031 5.1849 16.0365 5.125 15.8281 5.125H14.125C13.9115 5.125 13.7422 5.1849 13.6172 5.30469C13.4974 5.41927 13.4375 5.57812 13.4375 5.78125V10.6016Z" fill="white"/>
</svg>
