<svg xmlns="http://www.w3.org/2000/svg" width="24" height="24"><path style="stroke:none;fill-rule:nonzero;fill:#fff;fill-opacity:1" d="M.8 22.426c0 .3.079.539.231.71a.751.751 0 0 0 .606.278h20.718a.778.778 0 0 0 .594-.289c.164-.188.254-.445.25-.715 0-.265-.09-.523-.25-.71a.756.756 0 0 0-.594-.286H2.77c-.192 0-.29-.117-.29-.352V1.297c0-.262-.09-.516-.25-.695a.736.736 0 0 0-1.187 0 1.075 1.075 0 0 0-.242.695Zm1.544-6.738 4.511-5.512c.09-.117.184-.176.282-.176.097 0 .191.059.281.176l3.832 4.71c.223.282.453.493.688.626.234.136.476.199.718.199.48 0 .953-.274 1.418-.824l4.25-5.125 1.707 2.066c.125.149.254.223.387.223a.513.513 0 0 0 .375-.176c.117-.14.2-.316.238-.512l1.543-7.328a.788.788 0 0 0-.043-.508.66.66 0 0 0-.293-.351.51.51 0 0 0-.425-.04l-6.094 1.837a.869.869 0 0 0-.426.293.738.738 0 0 0-.148.449c0 .156.062.308.187.46l1.719 2.06-4.102 4.988c-.097.117-.195.18-.293.18-.09 0-.183-.063-.281-.18L8.543 8.512a2.567 2.567 0 0 0-.7-.621 1.344 1.344 0 0 0-1.417 0c-.227.12-.461.332-.696.62l-4.656 5.665Zm0 0"/></svg>