<?xml version="1.0" encoding="UTF-8"?>
<svg xmlns="http://www.w3.org/2000/svg" xmlns:xlink="http://www.w3.org/1999/xlink" width="24" height="22.666667" viewBox="0 0 24 22.666667" version="1.1">
<g id="surface1">
<path style=" stroke:none;fill-rule:nonzero;fill:rgb(100%,100%,100%);fill-opacity:1;" d="M 6.925781 22.59375 C 7.183594 22.59375 7.421875 22.523438 7.636719 22.386719 C 7.851562 22.246094 8.113281 22.039062 8.425781 21.761719 L 12.019531 18.5625 L 18.707031 18.5625 C 19.742188 18.5625 20.613281 18.378906 21.324219 18.011719 C 22.03125 17.636719 22.566406 17.09375 22.925781 16.386719 C 23.296875 15.675781 23.480469 14.8125 23.480469 13.792969 L 23.480469 5.8125 C 23.480469 4.792969 23.296875 3.925781 22.925781 3.21875 C 22.566406 2.511719 22.03125 1.972656 21.324219 1.605469 C 20.613281 1.230469 19.742188 1.042969 18.707031 1.042969 L 5.292969 1.042969 C 4.257812 1.042969 3.386719 1.230469 2.675781 1.605469 C 1.96875 1.972656 1.429688 2.511719 1.0625 3.21875 C 0.703125 3.925781 0.519531 4.792969 0.519531 5.8125 L 0.519531 13.792969 C 0.519531 14.8125 0.703125 15.675781 1.0625 16.386719 C 1.429688 17.09375 1.96875 17.636719 2.675781 18.011719 C 3.386719 18.378906 4.257812 18.5625 5.292969 18.5625 L 5.792969 18.5625 L 5.792969 21.269531 C 5.792969 21.671875 5.890625 21.992188 6.082031 22.230469 C 6.285156 22.472656 6.566406 22.59375 6.925781 22.59375 Z M 7.355469 20.6875 L 7.355469 17.667969 C 7.355469 17.382812 7.296875 17.179688 7.175781 17.0625 C 7.058594 16.945312 6.859375 16.886719 6.574219 16.886719 L 5.292969 16.886719 C 4.234375 16.886719 3.453125 16.625 2.949219 16.105469 C 2.449219 15.578125 2.199219 14.800781 2.199219 13.78125 L 2.199219 5.8125 C 2.199219 4.796875 2.449219 4.03125 2.949219 3.511719 C 3.453125 2.984375 4.234375 2.71875 5.292969 2.71875 L 18.707031 2.71875 C 19.757812 2.71875 20.535156 2.984375 21.042969 3.511719 C 21.546875 4.03125 21.800781 4.796875 21.800781 5.8125 L 21.800781 13.78125 C 21.800781 14.800781 21.546875 15.578125 21.042969 16.105469 C 20.535156 16.625 19.757812 16.886719 18.707031 16.886719 L 11.957031 16.886719 C 11.667969 16.886719 11.429688 16.917969 11.25 16.980469 C 11.070312 17.042969 10.882812 17.171875 10.6875 17.375 Z M 8.582031 14.707031 C 8.769531 14.707031 8.929688 14.660156 9.0625 14.5625 C 9.195312 14.457031 9.300781 14.285156 9.386719 14.042969 L 10.144531 11.824219 L 13.863281 11.824219 L 14.636719 14.042969 C 14.78125 14.484375 15.046875 14.707031 15.4375 14.707031 C 15.667969 14.707031 15.851562 14.640625 15.988281 14.511719 C 16.128906 14.371094 16.199219 14.199219 16.199219 13.988281 C 16.199219 13.84375 16.164062 13.664062 16.09375 13.449219 L 13.167969 5.582031 C 12.964844 5.035156 12.578125 4.761719 12 4.761719 C 11.429688 4.761719 11.046875 5.035156 10.84375 5.582031 L 7.925781 13.449219 C 7.851562 13.664062 7.8125 13.84375 7.8125 13.988281 C 7.8125 14.203125 7.882812 14.378906 8.019531 14.511719 C 8.160156 14.640625 8.347656 14.707031 8.582031 14.707031 Z M 10.5625 10.574219 L 11.949219 6.542969 L 12.0625 6.542969 L 13.449219 10.574219 Z M 10.5625 10.574219 "/>
</g>
</svg>
