<?xml version="1.0" encoding="UTF-8"?>
<svg xmlns="http://www.w3.org/2000/svg" xmlns:xlink="http://www.w3.org/1999/xlink" width="24" height="30.857143" viewBox="0 0 24 30.857143" version="1.1">
<g id="surface1">
<path style=" stroke:none;fill-rule:nonzero;fill:rgb(100%,100%,100%);fill-opacity:1;" d="M 5.679688 6.132812 L 13.886719 6.132812 C 14.15625 6.132812 14.367188 6.214844 14.519531 6.375 C 14.667969 6.535156 14.746094 6.757812 14.746094 7.042969 L 14.746094 9.28125 C 14.746094 9.558594 14.667969 9.78125 14.519531 9.949219 C 14.367188 10.113281 14.15625 10.191406 13.886719 10.191406 L 5.679688 10.191406 C 5.402344 10.191406 5.1875 10.113281 5.035156 9.949219 C 4.882812 9.78125 4.808594 9.558594 4.808594 9.28125 L 4.808594 7.042969 C 4.808594 6.757812 4.882812 6.535156 5.035156 6.375 C 5.1875 6.214844 5.402344 6.132812 5.679688 6.132812 Z M 5.679688 11.382812 L 18.347656 11.382812 C 18.617188 11.382812 18.824219 11.46875 18.976562 11.636719 C 19.128906 11.800781 19.207031 12.019531 19.207031 12.292969 L 19.207031 14.53125 C 19.207031 14.808594 19.128906 15.03125 18.976562 15.199219 C 18.824219 15.363281 18.617188 15.441406 18.347656 15.441406 L 5.679688 15.441406 C 5.402344 15.441406 5.1875 15.363281 5.035156 15.199219 C 4.882812 15.03125 4.808594 14.808594 4.808594 14.53125 L 4.808594 12.292969 C 4.808594 12.019531 4.882812 11.800781 5.035156 11.636719 C 5.1875 11.46875 5.402344 11.382812 5.679688 11.382812 Z M 5.679688 16.660156 L 16.136719 16.660156 C 16.40625 16.660156 16.617188 16.742188 16.769531 16.902344 C 16.917969 17.054688 16.996094 17.269531 16.996094 17.542969 L 16.996094 19.792969 C 16.996094 20.082031 16.917969 20.304688 16.769531 20.464844 C 16.617188 20.617188 16.40625 20.691406 16.136719 20.691406 L 5.679688 20.691406 C 5.402344 20.691406 5.1875 20.617188 5.035156 20.464844 C 4.882812 20.304688 4.808594 20.082031 4.808594 19.792969 L 4.808594 17.542969 C 4.808594 17.269531 4.882812 17.054688 5.035156 16.902344 C 5.1875 16.742188 5.402344 16.660156 5.679688 16.660156 Z M 5.679688 21.910156 L 11.730469 21.910156 C 11.992188 21.910156 12.195312 21.992188 12.347656 22.152344 C 12.507812 22.3125 12.589844 22.535156 12.589844 22.820312 L 12.589844 25.058594 C 12.589844 25.335938 12.507812 25.554688 12.347656 25.714844 C 12.195312 25.882812 11.992188 25.96875 11.730469 25.96875 L 5.679688 25.96875 C 5.402344 25.96875 5.1875 25.882812 5.035156 25.714844 C 4.882812 25.554688 4.808594 25.335938 4.808594 25.058594 L 4.808594 22.820312 C 4.808594 22.535156 4.882812 22.3125 5.035156 22.152344 C 5.1875 21.992188 5.402344 21.910156 5.679688 21.910156 Z M 0.738281 26.210938 C 0.738281 27.613281 1.082031 28.660156 1.769531 29.355469 C 2.464844 30.054688 3.503906 30.402344 4.886719 30.402344 L 19.113281 30.402344 C 20.496094 30.402344 21.53125 30.054688 22.21875 29.355469 C 22.914062 28.660156 23.261719 27.613281 23.261719 26.210938 L 23.261719 5.894531 C 23.261719 4.5 22.914062 3.449219 22.21875 2.746094 C 21.53125 2.039062 20.496094 1.6875 19.113281 1.6875 L 4.886719 1.6875 C 3.503906 1.6875 2.464844 2.039062 1.769531 2.746094 C 1.082031 3.449219 0.738281 4.5 0.738281 5.894531 Z M 0.738281 26.210938 "/>
</g>
</svg>
