<svg width="139" height="130" viewBox="0 0 139 130" fill="none" xmlns="http://www.w3.org/2000/svg">
<path d="M39.375 129.562C40.9167 129.562 42.3333 129.146 43.625 128.312C44.9167 127.479 46.5 126.229 48.375 124.562L69.9375 105.375H110.062C116.271 105.375 121.5 104.271 125.75 102.062C130 99.8125 133.208 96.5625 135.375 92.3125C137.583 88.0625 138.688 82.875 138.688 76.75V28.875C138.688 22.75 137.583 17.5625 135.375 13.3125C133.208 9.0625 130 5.83333 125.75 3.625C121.5 1.375 116.271 0.25 110.062 0.25H29.5625C23.3542 0.25 18.125 1.375 13.875 3.625C9.625 5.83333 6.39583 9.0625 4.1875 13.3125C2.02083 17.5625 0.9375 22.75 0.9375 28.875V76.75C0.9375 82.875 2.02083 88.0625 4.1875 92.3125C6.39583 96.5625 9.625 99.8125 13.875 102.062C18.125 104.271 23.3542 105.375 29.5625 105.375H32.5625V121.625C32.5625 124.042 33.1458 125.958 34.3125 127.375C35.5208 128.833 37.2083 129.562 39.375 129.562ZM41.9375 118.125V100C41.9375 98.2917 41.5833 97.0833 40.875 96.375C40.1667 95.6667 38.9583 95.3125 37.25 95.3125H29.5625C23.2292 95.3125 18.5417 93.75 15.5 90.625C12.5 87.4583 11 82.8125 11 76.6875V28.875C11 22.7917 12.5 18.1875 15.5 15.0625C18.5417 11.8958 23.2292 10.3125 29.5625 10.3125H110.062C116.354 10.3125 121.021 11.8958 124.062 15.0625C127.104 18.1875 128.625 22.7917 128.625 28.875V76.6875C128.625 82.8125 127.104 87.4583 124.062 90.625C121.021 93.75 116.354 95.3125 110.062 95.3125H69.5625C67.8125 95.3125 66.3958 95.5 65.3125 95.875C64.2292 96.25 63.1042 97.0417 61.9375 98.25L41.9375 118.125ZM49.3125 82.25C50.4375 82.25 51.3958 81.9583 52.1875 81.375C52.9792 80.75 53.625 79.7083 54.125 78.25L58.6875 64.9375H81L85.625 78.25C86.5 80.9167 88.1042 82.25 90.4375 82.25C91.8125 82.25 92.9167 81.8542 93.75 81.0625C94.5833 80.2292 95 79.1875 95 77.9375C95 77.0625 94.7917 75.9792 94.375 74.6875L76.8125 27.5C75.6042 24.2083 73.2708 22.5625 69.8125 22.5625C66.3958 22.5625 64.0833 24.2083 62.875 27.5L45.375 74.6875C44.9167 75.9792 44.6875 77.0625 44.6875 77.9375C44.6875 79.2292 45.1042 80.2708 45.9375 81.0625C46.7708 81.8542 47.8958 82.25 49.3125 82.25ZM61.1875 57.4375L69.5 33.25H70.1875L78.5 57.4375H61.1875Z" fill="white"/>
</svg>
