<svg xmlns="http://www.w3.org/2000/svg" width="24" height="24"><path style="stroke:none;fill-rule:nonzero;fill:#fff;fill-opacity:1" d="M4.848 23.645H22.19c.297 0 .547-.082.75-.247.215-.164.32-.355.32-.585 0-.364-.304-.688-.75-.801-.562-.176-.968-.457-1.218-.856-.238-.39-.297-.816-.172-1.293.125-.476.465-.933 1.016-1.375.25-.191.5-.433.75-.726s.375-.7.375-1.219V4.593c0-1.085-.348-1.898-1.043-2.448-.688-.547-1.723-.825-3.106-.825H4.887c-1.383 0-2.422.278-3.117.825C1.082 2.687.738 3.504.738 4.594v15.832c0 1.07.344 1.87 1.032 2.406.687.543 1.71.813 3.078.813Zm.12-1.676c-.679 0-1.195-.137-1.554-.407-.348-.269-.52-.652-.52-1.144 0-.465.196-.836.586-1.117.403-.285.938-.426 1.61-.426h13.742c.168 0 .324-.012.469-.031-.313.543-.453 1.082-.418 1.625.047.55.246 1.047.605 1.5Zm-.402-4.68a.832.832 0 0 1-.535-.176.519.519 0 0 1-.226-.425V3.53a.5.5 0 0 1 .226-.418.855.855 0 0 1 .535-.175c.207 0 .383.058.536.175.156.106.246.258.242.418v13.156c0 .165-.082.31-.242.426a.832.832 0 0 1-.536.176Zm5.239-3.121c-.278 0-.496-.063-.657-.176-.16-.12-.25-.289-.242-.46 0-.071.008-.141.028-.22.015-.074.054-.167.105-.269l3.336-7c.242-.496.688-.742 1.34-.742.652 0 1.098.246 1.34.742l3.36 7c.046.102.077.195.093.27.02.078.027.148.027.218a.549.549 0 0 1-.254.461 1.069 1.069 0 0 1-.629.176 1.132 1.132 0 0 1-.562-.137c-.152-.09-.274-.242-.363-.46l-.883-1.97h-4.246l-.871 1.97c-.098.226-.223.378-.375.472-.16.086-.352.129-.547.125Zm2.261-3.688h3.309l-1.594-3.582h-.12Zm0 0"/></svg>