<?xml version="1.0" encoding="UTF-8"?>
<svg xmlns="http://www.w3.org/2000/svg" xmlns:xlink="http://www.w3.org/1999/xlink" width="24" height="20" viewBox="0 0 24 20" version="1.1">
<g id="surface1">
<path style=" stroke:none;fill-rule:nonzero;fill:rgb(100%,100%,100%);fill-opacity:1;" d="M 0.800781 18.6875 C 0.800781 18.9375 0.878906 19.136719 1.03125 19.28125 C 1.183594 19.433594 1.386719 19.511719 1.636719 19.511719 L 22.355469 19.511719 C 22.582031 19.511719 22.78125 19.429688 22.949219 19.269531 C 23.113281 19.109375 23.199219 18.914062 23.199219 18.675781 C 23.199219 18.449219 23.113281 18.25 22.949219 18.082031 C 22.78125 17.921875 22.582031 17.84375 22.355469 17.84375 L 2.769531 17.84375 C 2.578125 17.84375 2.480469 17.746094 2.480469 17.550781 L 2.480469 1.082031 C 2.480469 0.859375 2.394531 0.667969 2.230469 0.5 C 2.070312 0.332031 1.875 0.25 1.644531 0.25 C 1.410156 0.25 1.207031 0.332031 1.042969 0.5 C 0.882812 0.667969 0.800781 0.859375 0.800781 1.082031 Z M 1.894531 12.207031 L 8.59375 8.332031 L 13.417969 12.46875 L 21.988281 7.363281 L 21.332031 6.300781 L 13.5 10.96875 L 8.699219 6.855469 L 1.894531 10.78125 Z M 8.457031 9.738281 C 8.796875 9.738281 9.109375 9.65625 9.386719 9.488281 C 9.671875 9.324219 9.894531 9.101562 10.0625 8.824219 C 10.230469 8.539062 10.3125 8.226562 10.3125 7.886719 C 10.3125 7.546875 10.230469 7.234375 10.0625 6.957031 C 9.894531 6.671875 9.671875 6.453125 9.386719 6.292969 C 9.109375 6.125 8.796875 6.042969 8.457031 6.042969 C 8.117188 6.042969 7.804688 6.125 7.519531 6.292969 C 7.242188 6.453125 7.019531 6.671875 6.855469 6.957031 C 6.6875 7.234375 6.605469 7.546875 6.605469 7.886719 C 6.605469 8.226562 6.6875 8.539062 6.855469 8.824219 C 7.019531 9.101562 7.242188 9.324219 7.519531 9.488281 C 7.804688 9.65625 8.117188 9.738281 8.457031 9.738281 Z M 13.375 13.5625 C 13.714844 13.5625 14.023438 13.480469 14.300781 13.3125 C 14.585938 13.144531 14.808594 12.921875 14.96875 12.644531 C 15.136719 12.359375 15.21875 12.046875 15.21875 11.707031 C 15.21875 11.367188 15.136719 11.058594 14.96875 10.78125 C 14.808594 10.496094 14.585938 10.273438 14.300781 10.113281 C 14.023438 9.949219 13.714844 9.863281 13.375 9.863281 C 13.035156 9.863281 12.722656 9.949219 12.4375 10.113281 C 12.160156 10.273438 11.9375 10.496094 11.769531 10.78125 C 11.605469 11.058594 11.519531 11.367188 11.519531 11.707031 C 11.519531 12.046875 11.605469 12.359375 11.769531 12.644531 C 11.9375 12.921875 12.160156 13.144531 12.4375 13.3125 C 12.722656 13.480469 13.035156 13.5625 13.375 13.5625 Z M 21.230469 8.824219 C 21.570312 8.824219 21.878906 8.738281 22.15625 8.574219 C 22.441406 8.40625 22.667969 8.183594 22.832031 7.90625 C 23 7.621094 23.082031 7.308594 23.082031 6.96875 C 23.082031 6.628906 23 6.320312 22.832031 6.042969 C 22.667969 5.757812 22.441406 5.53125 22.15625 5.363281 C 21.878906 5.199219 21.570312 5.113281 21.230469 5.113281 C 20.890625 5.113281 20.578125 5.199219 20.292969 5.363281 C 20.015625 5.53125 19.792969 5.757812 19.625 6.042969 C 19.457031 6.320312 19.375 6.628906 19.375 6.96875 C 19.375 7.308594 19.457031 7.621094 19.625 7.90625 C 19.792969 8.183594 20.015625 8.40625 20.292969 8.574219 C 20.578125 8.738281 20.890625 8.824219 21.230469 8.824219 Z M 21.230469 8.824219 "/>
</g>
</svg>
