<svg xmlns="http://www.w3.org/2000/svg" width="24" height="24"><path style="stroke:none;fill-rule:nonzero;fill:#fff;fill-opacity:1" d="M6.926 23.922c.258 0 .496-.074.71-.219.216-.148.477-.367.79-.66l3.594-3.39h6.687c1.035 0 1.906-.192 2.617-.583a3.798 3.798 0 0 0 1.602-1.718c.37-.754.554-1.668.554-2.747V6.156c0-1.082-.183-2-.554-2.746a3.76 3.76 0 0 0-1.602-1.71c-.71-.4-1.582-.595-2.617-.595H5.293c-1.035 0-1.906.196-2.617.594A3.806 3.806 0 0 0 1.062 3.41C.704 4.156.52 5.074.52 6.156v8.45c0 1.078.183 1.992.542 2.746a3.884 3.884 0 0 0 1.614 1.718c.71.39 1.582.582 2.617.582h.5v2.868c0 .425.098.765.289 1.02.203.253.484.382.844.382Zm.43-2.02v-3.195c0-.3-.06-.516-.18-.64-.117-.126-.317-.188-.602-.188H5.293c-1.059 0-1.84-.277-2.344-.828-.5-.559-.75-1.38-.75-2.461V6.152c0-1.074.25-1.882.75-2.433.504-.559 1.285-.84 2.344-.84h13.414c1.05 0 1.828.281 2.336.84.504.55.758 1.36.758 2.433v8.442c0 1.078-.254 1.898-.758 2.457-.508.55-1.285.828-2.336.828h-6.75c-.289 0-.527.035-.707.101-.18.067-.367.204-.563.418Zm1.226-6.332a.743.743 0 0 0 .48-.152c.133-.11.239-.293.325-.55l.758-2.348h3.718l.774 2.347c.144.469.41.703.8.703.231 0 .415-.066.551-.203a.773.773 0 0 0 .211-.555 2.043 2.043 0 0 0-.105-.574L13.168 5.91c-.203-.578-.59-.867-1.168-.867-.57 0-.953.289-1.156.867l-2.918 8.328a1.922 1.922 0 0 0-.114.575.762.762 0 0 0 .208.554c.14.137.328.203.562.203Zm1.98-4.375L11.95 6.93h.114l1.386 4.265Zm0 0"/></svg>