<svg width="128" height="128" viewBox="0 0 128 128" fill="none" xmlns="http://www.w3.org/2000/svg">
<path d="M63.9375 127.625C72.6458 127.625 80.8333 125.958 88.5 122.625C96.2083 119.292 103 114.688 108.875 108.812C114.75 102.938 119.354 96.1667 122.688 88.5C126.021 80.7917 127.688 72.5833 127.688 63.875C127.688 55.1667 126.021 46.9792 122.688 39.3125C119.354 31.6042 114.75 24.8125 108.875 18.9375C103 13.0625 96.2083 8.45833 88.5 5.125C80.7917 1.79167 72.5833 0.125 63.875 0.125C55.1667 0.125 46.9583 1.79167 39.25 5.125C31.5833 8.45833 24.8125 13.0625 18.9375 18.9375C13.1042 24.8125 8.52083 31.6042 5.1875 39.3125C1.85417 46.9792 0.1875 55.1667 0.1875 63.875C0.1875 72.5833 1.85417 80.7917 5.1875 88.5C8.52083 96.1667 13.125 102.938 19 108.812C24.875 114.688 31.6458 119.292 39.3125 122.625C47.0208 125.958 55.2292 127.625 63.9375 127.625ZM63.9375 117C56.5625 117 49.6667 115.625 43.25 112.875C36.8333 110.125 31.1875 106.333 26.3125 101.5C21.4792 96.625 17.6875 90.9792 14.9375 84.5625C12.2292 78.1458 10.875 71.25 10.875 63.875C10.875 56.5 12.2292 49.6042 14.9375 43.1875C17.6875 36.7708 21.4792 31.125 26.3125 26.25C31.1458 21.375 36.7708 17.5833 43.1875 14.875C49.6042 12.125 56.5 10.75 63.875 10.75C71.25 10.75 78.1458 12.125 84.5625 14.875C91.0208 17.5833 96.6667 21.375 101.5 26.25C106.375 31.125 110.188 36.7708 112.938 43.1875C115.688 49.6042 117.062 56.5 117.062 63.875C117.062 71.25 115.688 78.1458 112.938 84.5625C110.229 90.9792 106.438 96.625 101.562 101.5C96.6875 106.333 91.0417 110.125 84.625 112.875C78.2083 115.625 71.3125 117 63.9375 117ZM29.9375 87.4375C29.9375 88.9375 30.375 90.125 31.25 91C32.1667 91.875 33.3542 92.3125 34.8125 92.3125H94.4375C95.3542 92.3125 96.1458 91.9792 96.8125 91.3125C97.5208 90.6458 97.875 89.8333 97.875 88.875C97.875 87.9583 97.5208 87.1667 96.8125 86.5C96.1458 85.7917 95.3542 85.4375 94.4375 85.4375H37C36.9167 85.4375 36.875 85.4375 36.875 85.4375C36.875 85.3958 36.875 85.3542 36.875 85.3125V37.0625C36.875 36.1458 36.5208 35.3542 35.8125 34.6875C35.1458 33.9792 34.3542 33.625 33.4375 33.625C32.4792 33.625 31.6458 33.9792 30.9375 34.6875C30.2708 35.3542 29.9375 36.1458 29.9375 37.0625V87.4375ZM35.5625 73.4375L49.125 59.875C49.4583 59.5 49.7708 59.5 50.0625 59.875L61 71.0625C62.5833 72.5208 64.2083 73.25 65.875 73.25C67.6667 73.25 69.2708 72.5208 70.6875 71.0625L82.5 59L86.9375 63.5625C87.7292 64.3125 88.5833 64.5208 89.5 64.1875C90.4583 63.8542 91.0833 63.125 91.375 62L95.9375 44C96.2292 43 96 42.1458 95.25 41.4375C94.5 40.7292 93.625 40.5 92.625 40.75L74.6875 45.1875C73.5625 45.4792 72.8125 46.125 72.4375 47.125C72.1042 48.0833 72.3333 48.9167 73.125 49.625L77.5625 54.125L66.375 65.4375C66.0833 65.8125 65.7708 65.8333 65.4375 65.5L54.375 54.125C52.9583 52.6667 51.3542 51.9375 49.5625 51.9375C47.7708 51.9375 46.1667 52.6667 44.75 54.125L30.75 68.5L35.5625 73.4375Z" fill="white"/>
</svg>
