<svg width="18" height="17" viewBox="0 0 18 17" fill="none" xmlns="http://www.w3.org/2000/svg">
<path d="M5.19531 16.9453C5.38802 16.9453 5.5651 16.8932 5.72656 16.7891C5.88802 16.6849 6.08594 16.5286 6.32031 16.3203L9.01562 13.9219H14.0312C14.8073 13.9219 15.4609 13.7839 15.9922 13.5078C16.5234 13.2266 16.9245 12.8203 17.1953 12.2891C17.4714 11.7578 17.6094 11.1094 17.6094 10.3438V4.35938C17.6094 3.59375 17.4714 2.94531 17.1953 2.41406C16.9245 1.88281 16.5234 1.47917 15.9922 1.20312C15.4609 0.921875 14.8073 0.78125 14.0312 0.78125H3.96875C3.19271 0.78125 2.53906 0.921875 2.00781 1.20312C1.47656 1.47917 1.07292 1.88281 0.796875 2.41406C0.526042 2.94531 0.390625 3.59375 0.390625 4.35938V10.3438C0.390625 11.1094 0.526042 11.7578 0.796875 12.2891C1.07292 12.8203 1.47656 13.2266 2.00781 13.5078C2.53906 13.7839 3.19271 13.9219 3.96875 13.9219H4.34375V15.9531C4.34375 16.2552 4.41667 16.4948 4.5625 16.6719C4.71354 16.8542 4.92448 16.9453 5.19531 16.9453ZM5.51562 15.5156V13.25C5.51562 13.0365 5.47135 12.8854 5.38281 12.7969C5.29427 12.7083 5.14323 12.6641 4.92969 12.6641H3.96875C3.17708 12.6641 2.59115 12.4688 2.21094 12.0781C1.83594 11.6823 1.64844 11.1016 1.64844 10.3359V4.35938C1.64844 3.59896 1.83594 3.02344 2.21094 2.63281C2.59115 2.23698 3.17708 2.03906 3.96875 2.03906H14.0312C14.8177 2.03906 15.401 2.23698 15.7812 2.63281C16.1615 3.02344 16.3516 3.59896 16.3516 4.35938V10.3359C16.3516 11.1016 16.1615 11.6823 15.7812 12.0781C15.401 12.4688 14.8177 12.6641 14.0312 12.6641H8.96875C8.75 12.6641 8.57292 12.6875 8.4375 12.7344C8.30208 12.7812 8.16146 12.8802 8.01562 13.0312L5.51562 15.5156ZM6.4375 11.0312C6.57812 11.0312 6.69792 10.9948 6.79688 10.9219C6.89583 10.8438 6.97656 10.7135 7.03906 10.5312L7.60938 8.86719H10.3984L10.9766 10.5312C11.0859 10.8646 11.2865 11.0312 11.5781 11.0312C11.75 11.0312 11.888 10.9818 11.9922 10.8828C12.0964 10.7786 12.1484 10.6484 12.1484 10.4922C12.1484 10.3828 12.1224 10.2474 12.0703 10.0859L9.875 4.1875C9.72396 3.77604 9.43229 3.57031 9 3.57031C8.57292 3.57031 8.28385 3.77604 8.13281 4.1875L5.94531 10.0859C5.88802 10.2474 5.85938 10.3828 5.85938 10.4922C5.85938 10.6536 5.91146 10.7839 6.01562 10.8828C6.11979 10.9818 6.26042 11.0312 6.4375 11.0312ZM7.92188 7.92969L8.96094 4.90625H9.04688L10.0859 7.92969H7.92188Z" fill="white"/>
</svg>
