<svg width="16" height="17" viewBox="0 0 16 17" fill="none" xmlns="http://www.w3.org/2000/svg">
<path d="M8 16.3359C9.08854 16.3359 10.112 16.1276 11.0703 15.7109C12.0339 15.2943 12.8828 14.7188 13.6172 13.9844C14.3516 13.25 14.9271 12.4036 15.3438 11.4453C15.7604 10.4818 15.9688 9.45573 15.9688 8.36719C15.9688 7.27865 15.7604 6.25521 15.3438 5.29688C14.9271 4.33333 14.3516 3.48438 13.6172 2.75C12.8828 2.01562 12.0339 1.4401 11.0703 1.02344C10.1068 0.606771 9.08073 0.398438 7.99219 0.398438C6.90365 0.398438 5.8776 0.606771 4.91406 1.02344C3.95573 1.4401 3.10938 2.01562 2.375 2.75C1.64583 3.48438 1.07292 4.33333 0.65625 5.29688C0.239583 6.25521 0.03125 7.27865 0.03125 8.36719C0.03125 9.45573 0.239583 10.4818 0.65625 11.4453C1.07292 12.4036 1.64844 13.25 2.38281 13.9844C3.11719 14.7188 3.96354 15.2943 4.92188 15.7109C5.88542 16.1276 6.91146 16.3359 8 16.3359ZM3.65625 11.4062V4.91406C3.65625 4.79427 3.70052 4.6901 3.78906 4.60156C3.8776 4.51302 3.98438 4.46875 4.10938 4.46875C4.22917 4.46875 4.33333 4.51302 4.42188 4.60156C4.51042 4.6901 4.55469 4.79427 4.55469 4.91406V5.73438L6.13281 7.32031C6.17448 7.36719 6.21354 7.36719 6.25 7.32031L7.65625 5.88281C7.84896 5.6901 8.0599 5.59375 8.28906 5.59375C8.51823 5.59375 8.72656 5.6901 8.91406 5.88281L10.4297 7.42969L11 6.84375C11.099 6.73958 11.2109 6.71094 11.3359 6.75781C11.4609 6.80469 11.5417 6.90365 11.5781 7.05469L12.1641 9.375C12.2005 9.5 12.1693 9.60938 12.0703 9.70312C11.9766 9.79167 11.8646 9.82031 11.7344 9.78906L9.42188 9.21094C9.27604 9.16927 9.17969 9.08854 9.13281 8.96875C9.08594 8.84375 9.11458 8.73438 9.21875 8.64062L9.78906 8.07031L8.35156 6.60938C8.3099 6.56771 8.26823 6.56771 8.22656 6.60938L6.8125 8.0625C6.63021 8.25 6.42188 8.34375 6.1875 8.34375C5.96875 8.34375 5.76302 8.25 5.57031 8.0625L4.55469 7.02344V11.0703C4.55469 11.1224 4.57812 11.1484 4.625 11.1484H11.9688C12.0885 11.1484 12.1927 11.1927 12.2812 11.2812C12.3698 11.3698 12.4141 11.474 12.4141 11.5938C12.4141 11.7188 12.3698 11.8255 12.2812 11.9141C12.1927 11.9974 12.0885 12.0391 11.9688 12.0391H4.28906C4.09635 12.0391 3.94271 11.9818 3.82812 11.8672C3.71354 11.7526 3.65625 11.599 3.65625 11.4062Z" fill="white"/>
</svg>
