<svg width="14" height="18" viewBox="0 0 14 18" fill="none" xmlns="http://www.w3.org/2000/svg">
<path d="M3.3125 3.57812H8.10156C8.25781 3.57812 8.38021 3.625 8.46875 3.71875C8.55729 3.8125 8.60156 3.94271 8.60156 4.10938V5.41406C8.60156 5.57552 8.55729 5.70573 8.46875 5.80469C8.38021 5.89844 8.25781 5.94531 8.10156 5.94531H3.3125C3.15104 5.94531 3.02604 5.89844 2.9375 5.80469C2.84896 5.70573 2.80469 5.57552 2.80469 5.41406V4.10938C2.80469 3.94271 2.84896 3.8125 2.9375 3.71875C3.02604 3.625 3.15104 3.57812 3.3125 3.57812ZM3.3125 6.64062H10.7031C10.8594 6.64062 10.9818 6.6901 11.0703 6.78906C11.1589 6.88281 11.2031 7.01042 11.2031 7.17188V8.47656C11.2031 8.63802 11.1589 8.76823 11.0703 8.86719C10.9818 8.96094 10.8594 9.00781 10.7031 9.00781H3.3125C3.15104 9.00781 3.02604 8.96094 2.9375 8.86719C2.84896 8.76823 2.80469 8.63802 2.80469 8.47656V7.17188C2.80469 7.01042 2.84896 6.88281 2.9375 6.78906C3.02604 6.6901 3.15104 6.64062 3.3125 6.64062ZM3.3125 9.71875H9.41406C9.57031 9.71875 9.69271 9.76562 9.78125 9.85938C9.86979 9.94792 9.91406 10.0729 9.91406 10.2344V11.5469C9.91406 11.7135 9.86979 11.8438 9.78125 11.9375C9.69271 12.026 9.57031 12.0703 9.41406 12.0703H3.3125C3.15104 12.0703 3.02604 12.026 2.9375 11.9375C2.84896 11.8438 2.80469 11.7135 2.80469 11.5469V10.2344C2.80469 10.0729 2.84896 9.94792 2.9375 9.85938C3.02604 9.76562 3.15104 9.71875 3.3125 9.71875ZM3.3125 12.7812H6.84375C6.99479 12.7812 7.11458 12.8281 7.20312 12.9219C7.29688 13.0156 7.34375 13.1458 7.34375 13.3125V14.6172C7.34375 14.7786 7.29688 14.9062 7.20312 15C7.11458 15.099 6.99479 15.1484 6.84375 15.1484H3.3125C3.15104 15.1484 3.02604 15.099 2.9375 15C2.84896 14.9062 2.80469 14.7786 2.80469 14.6172V13.3125C2.80469 13.1458 2.84896 13.0156 2.9375 12.9219C3.02604 12.8281 3.15104 12.7812 3.3125 12.7812ZM0.429688 15.2891C0.429688 16.1068 0.630208 16.7188 1.03125 17.125C1.4375 17.5312 2.04427 17.7344 2.85156 17.7344H11.1484C11.9557 17.7344 12.5599 17.5312 12.9609 17.125C13.3672 16.7188 13.5703 16.1068 13.5703 15.2891V3.4375C13.5703 2.625 13.3672 2.01302 12.9609 1.60156C12.5599 1.1901 11.9557 0.984375 11.1484 0.984375H2.85156C2.04427 0.984375 1.4375 1.1901 1.03125 1.60156C0.630208 2.01302 0.429688 2.625 0.429688 3.4375V15.2891Z" fill="white"/>
</svg>
