<svg xmlns="http://www.w3.org/2000/svg" width="24" height="24"><path style="stroke:none;fill-rule:nonzero;fill:#fff;fill-opacity:1" d="M12 23.05c1.406 0 2.77-.23 4.09-.695a12.357 12.357 0 0 0 3.61-1.984l-8.438-7.785a.855.855 0 0 1-.235-.309 1.235 1.235 0 0 1-.047-.375V.598c-1.488.113-2.933.5-4.265 1.132a12.392 12.392 0 0 0-3.48 2.473A11.282 11.282 0 0 0 .89 7.676 10.233 10.233 0 0 0 .047 11.8c0 1.539.312 2.984.937 4.347a11.39 11.39 0 0 0 2.59 3.594 12.275 12.275 0 0 0 3.809 2.426c1.445.59 2.984.883 4.617.883ZM23.953 11.8c0-.827-.101-1.66-.305-2.491a9.907 9.907 0 0 0-.867-2.305l-9.574 5.184 7.652 7.113a11.037 11.037 0 0 0 2.262-3.438c.55-1.293.836-2.672.832-4.062Zm-11.402-.968 9.457-5.117a11.102 11.102 0 0 0-2.531-2.637 12.483 12.483 0 0 0-3.282-1.785 12.047 12.047 0 0 0-3.644-.73Zm0 0"/></svg>