<svg xmlns="http://www.w3.org/2000/svg" width="24" height="24"><path style="stroke:none;fill-rule:nonzero;fill:#fff;fill-opacity:1" d="M12 23.05c1.633 0 3.168-.292 4.605-.882a12.22 12.22 0 0 0 3.82-2.438 11.467 11.467 0 0 0 2.59-3.582c.626-1.363.938-2.808.938-4.347a10.2 10.2 0 0 0-.937-4.332 11.53 11.53 0 0 0-2.59-3.598 12.361 12.361 0 0 0-3.82-2.437A12.166 12.166 0 0 0 11.987.55c-1.633 0-3.172.293-4.617.883A12.307 12.307 0 0 0 3.562 3.87 11.523 11.523 0 0 0 .985 7.465 10.2 10.2 0 0 0 .047 11.8c0 1.539.312 2.984.937 4.347a11.467 11.467 0 0 0 2.59 3.582 12.236 12.236 0 0 0 3.809 2.438c1.445.59 2.984.883 4.617.883Zm-1.313-5.866c-.203 0-.386-.04-.55-.122a1.519 1.519 0 0 1-.48-.41l-2.942-3.394a1.931 1.931 0 0 1-.211-.344 1.015 1.015 0 0 1-.07-.375c0-.25.09-.46.27-.64a.91.91 0 0 1 .667-.274c.172 0 .324.035.457.098.14.066.285.191.434.375l2.379 2.89 5.004-7.566c.218-.336.5-.508.843-.508.25 0 .477.078.68.234.2.141.316.368.305.606a.796.796 0 0 1-.094.375 3.877 3.877 0 0 1-.2.351l-5.507 8.172c-.125.18-.27.309-.434.399-.168.09-.36.137-.55.133Zm0 0"/></svg>