<svg width="14" height="15" viewBox="0 0 14 15" fill="none" xmlns="http://www.w3.org/2000/svg">
<path d="M5.35938 14.2578C5.69271 14.2578 5.95573 14.112 6.14844 13.8203L13.5312 2.19531C13.599 2.08594 13.6484 1.98698 13.6797 1.89844C13.7109 1.80469 13.7266 1.71094 13.7266 1.61719C13.7266 1.40365 13.6615 1.23177 13.5312 1.10156C13.401 0.971354 13.2292 0.90625 13.0156 0.90625C12.8594 0.90625 12.7318 0.9375 12.6328 1C12.5339 1.05729 12.4375 1.15885 12.3438 1.30469L5.32812 12.4844L1.6875 7.71875C1.5 7.46354 1.27604 7.33594 1.01562 7.33594C0.796875 7.33594 0.617188 7.40625 0.476562 7.54688C0.335938 7.68229 0.265625 7.85677 0.265625 8.07031C0.265625 8.16406 0.283854 8.26042 0.320312 8.35938C0.356771 8.45312 0.414062 8.54688 0.492188 8.64062L4.54688 13.8047C4.78125 14.1068 5.05208 14.2578 5.35938 14.2578Z" fill="white"/>
</svg>
