<svg xmlns="http://www.w3.org/2000/svg" width="24" height="24"><path style="stroke:none;fill-rule:nonzero;fill:#fff;fill-opacity:1" d="M4.887 23.3h14.215c1.226 0 2.144-.323 2.753-.976.618-.64.926-1.605.926-2.898V4.164c0-1.293-.308-2.258-.926-2.898-.609-.653-1.527-.977-2.753-.977H4.887c-1.227 0-2.149.324-2.766.977-.61.64-.914 1.605-.914 2.898v15.262c0 1.293.305 2.258.914 2.902.617.649 1.54.973 2.766.973Zm.023-2.01c-.586 0-1.035-.165-1.348-.49-.312-.335-.468-.823-.468-1.476V4.262c0-.649.156-1.137.469-1.461.312-.336.761-.5 1.347-.5h14.168c.578 0 1.024.164 1.336.5.32.324.48.812.48 1.46v15.063c0 .653-.16 1.14-.48 1.477-.312.324-.758.488-1.336.488Zm5.813-3.59c.398 0 .714-.192.949-.575l5.355-9c.07-.117.133-.242.188-.375a.996.996 0 0 0 .094-.426.82.82 0 0 0-.293-.66.965.965 0 0 0-.657-.25c-.328 0-.601.188-.82.563L10.676 15.3l-2.309-3.188c-.14-.199-.281-.336-.422-.402a.885.885 0 0 0-.445-.11.832.832 0 0 0-.645.297 1.014 1.014 0 0 0-.257.7c0 .261.09.52.27.777l2.859 3.75c.148.2.3.348.457.438.164.093.343.136.539.136Zm0 0"/></svg>