<svg xmlns="http://www.w3.org/2000/svg" width="24" height="24"><path style="stroke:none;fill-rule:nonzero;fill:#fff;fill-opacity:1" d="M6.707 23.988c.211 0 .398-.058.563-.18.23-.152.44-.328.636-.527l3.762-3.64h7.039c1.035 0 1.906-.196 2.617-.582a3.77 3.77 0 0 0 1.602-1.707c.37-.754.554-1.668.554-2.747V6.156c0-1.082-.183-2-.554-2.746a3.76 3.76 0 0 0-1.602-1.71c-.71-.4-1.582-.595-2.617-.595H5.293c-1.035 0-1.906.196-2.617.594A3.806 3.806 0 0 0 1.062 3.41C.704 4.156.52 5.074.52 6.156v8.45c0 1.078.183 1.992.542 2.746a3.816 3.816 0 0 0 1.614 1.707c.71.386 1.582.582 2.617.582h.488v3.21c0 .348.078.626.239.829.16.207.39.308.687.308Zm4.137-8.238c-.18 0-.344-.043-.489-.121a1.387 1.387 0 0 1-.43-.41l-2.613-3.395a1.827 1.827 0 0 1-.187-.344 1.111 1.111 0 0 1-.063-.375c0-.25.079-.464.239-.636a.755.755 0 0 1 .594-.278c.152 0 .289.032.406.098.125.066.254.191.386.379l2.114 2.887 4.449-7.567c.195-.34.445-.508.75-.508.223 0 .422.079.605.23.18.15.27.353.27.61a.952.952 0 0 1-.082.375 4.945 4.945 0 0 1-.18.352l-4.894 8.172c-.11.18-.239.312-.387.398a.937.937 0 0 1-.488.133Zm0 0"/></svg>