<svg width="16" height="17" viewBox="0 0 16 17" fill="none" xmlns="http://www.w3.org/2000/svg">
<path d="M8 16.3281C9.08854 16.3281 10.112 16.1198 11.0703 15.7031C12.0339 15.2865 12.8828 14.7109 13.6172 13.9766C14.3516 13.2422 14.9271 12.3958 15.3438 11.4375C15.7604 10.474 15.9688 9.44792 15.9688 8.35938C15.9688 7.27083 15.7604 6.2474 15.3438 5.28906C14.9271 4.32552 14.3516 3.47656 13.6172 2.74219C12.8828 2.00781 12.0339 1.43229 11.0703 1.01562C10.1068 0.598958 9.08073 0.390625 7.99219 0.390625C6.90365 0.390625 5.8776 0.598958 4.91406 1.01562C3.95573 1.43229 3.10938 2.00781 2.375 2.74219C1.64583 3.47656 1.07292 4.32552 0.65625 5.28906C0.239583 6.2474 0.03125 7.27083 0.03125 8.35938C0.03125 9.44792 0.239583 10.474 0.65625 11.4375C1.07292 12.3958 1.64844 13.2422 2.38281 13.9766C3.11719 14.7109 3.96354 15.2865 4.92188 15.7031C5.88542 16.1198 6.91146 16.3281 8 16.3281ZM7.125 12.1719C6.98958 12.1719 6.86719 12.1432 6.75781 12.0859C6.64844 12.0286 6.54167 11.9323 6.4375 11.7969L4.47656 9.39062C4.41927 9.3125 4.3724 9.23177 4.33594 9.14844C4.30469 9.0599 4.28906 8.97135 4.28906 8.88281C4.28906 8.70573 4.34896 8.55469 4.46875 8.42969C4.58854 8.29948 4.73698 8.23438 4.91406 8.23438C5.02865 8.23438 5.13021 8.25781 5.21875 8.30469C5.3125 8.35156 5.40885 8.4401 5.50781 8.57031L7.09375 10.6172L10.4297 5.25781C10.5755 5.01823 10.763 4.89844 10.9922 4.89844C11.1589 4.89844 11.3099 4.95312 11.4453 5.0625C11.5807 5.16667 11.6484 5.3099 11.6484 5.49219C11.6484 5.58073 11.6276 5.66927 11.5859 5.75781C11.5443 5.84635 11.5 5.92969 11.4531 6.00781L7.78125 11.7969C7.69792 11.9219 7.60156 12.0156 7.49219 12.0781C7.38281 12.1406 7.26042 12.1719 7.125 12.1719Z" fill="white"/>
</svg>
