<svg width="116" height="116" viewBox="0 0 116 116" fill="none" xmlns="http://www.w3.org/2000/svg">
<path d="M20.5625 115.5H96.375C102.917 115.5 107.812 113.875 111.062 110.625C114.354 107.417 116 102.583 116 96.125V19.8125C116 13.3542 114.354 8.52083 111.062 5.3125C107.812 2.0625 102.917 0.4375 96.375 0.4375H20.5625C14.0208 0.4375 9.10417 2.0625 5.8125 5.3125C2.5625 8.52083 0.9375 13.3542 0.9375 19.8125V96.125C0.9375 102.583 2.5625 107.417 5.8125 110.625C9.10417 113.875 14.0208 115.5 20.5625 115.5ZM51.5 88.375C50.4167 88.375 49.4375 88.1458 48.5625 87.6875C47.6875 87.2292 46.8333 86.4583 46 85.375L30.3125 66.125C29.8542 65.5 29.4792 64.8542 29.1875 64.1875C28.9375 63.4792 28.8125 62.7708 28.8125 62.0625C28.8125 60.6458 29.2917 59.4375 30.25 58.4375C31.2083 57.3958 32.3958 56.875 33.8125 56.875C34.7292 56.875 35.5417 57.0625 36.25 57.4375C37 57.8125 37.7708 58.5208 38.5625 59.5625L51.25 75.9375L77.9375 33.0625C79.1042 31.1458 80.6042 30.1875 82.4375 30.1875C83.7708 30.1875 84.9792 30.625 86.0625 31.5C87.1458 32.3333 87.6875 33.4792 87.6875 34.9375C87.6875 35.6458 87.5208 36.3542 87.1875 37.0625C86.8542 37.7708 86.5 38.4375 86.125 39.0625L56.75 85.375C56.0833 86.375 55.3125 87.125 54.4375 87.625C53.5625 88.125 52.5833 88.375 51.5 88.375Z" fill="white"/>
</svg>
