<svg width="143" height="143" viewBox="0 0 143 143" fill="none" xmlns="http://www.w3.org/2000/svg">
<path d="M33.3125 126.062H46.875C48.125 126.062 49.1667 126.5 50 127.375L59.625 136.938C63.5833 140.896 67.4375 142.854 71.1875 142.812C74.9375 142.812 78.7708 140.854 82.6875 136.938L92.3125 127.375C93.1875 126.5 94.25 126.062 95.5 126.062H109C114.583 126.062 118.708 124.729 121.375 122.062C124.042 119.438 125.375 115.312 125.375 109.688V96.1875C125.375 94.9375 125.812 93.875 126.688 93L136.25 83.375C140.208 79.4583 142.167 75.625 142.125 71.875C142.125 68.125 140.167 64.2708 136.25 60.3125L126.688 50.6875C125.812 49.8125 125.375 48.7708 125.375 47.5625V34C125.375 28.4583 124.042 24.3542 121.375 21.6875C118.75 18.9792 114.625 17.625 109 17.625H95.5C94.25 17.625 93.1875 17.2083 92.3125 16.375L82.6875 6.8125C78.7708 2.8125 74.9375 0.833333 71.1875 0.875C67.4375 0.875 63.5833 2.85417 59.625 6.8125L50 16.375C49.1667 17.2083 48.125 17.625 46.875 17.625H33.3125C27.7292 17.625 23.6042 18.9583 20.9375 21.625C18.2708 24.25 16.9375 28.375 16.9375 34V47.5625C16.9375 48.7708 16.5208 49.8125 15.6875 50.6875L6.125 60.3125C2.16667 64.2708 0.1875 68.125 0.1875 71.875C0.1875 75.625 2.16667 79.4583 6.125 83.375L15.6875 93C16.5208 93.875 16.9375 94.9375 16.9375 96.1875V109.688C16.9375 115.271 18.2708 119.396 20.9375 122.062C23.6042 124.729 27.7292 126.062 33.3125 126.062ZM64.1875 102.375C63.1042 102.375 62.125 102.146 61.25 101.688C60.375 101.229 59.5208 100.458 58.6875 99.375L43 80.125C42.5417 79.5 42.1667 78.8542 41.875 78.1875C41.625 77.4792 41.5 76.7708 41.5 76.0625C41.5 74.6458 41.9792 73.4375 42.9375 72.4375C43.8958 71.3958 45.0833 70.875 46.5 70.875C47.4167 70.875 48.2292 71.0625 48.9375 71.4375C49.6875 71.8125 50.4583 72.5208 51.25 73.5625L63.9375 89.9375L90.625 47.0625C91.7917 45.1458 93.2917 44.1875 95.125 44.1875C96.4583 44.1875 97.6667 44.625 98.75 45.5C99.8333 46.3333 100.375 47.4792 100.375 48.9375C100.375 49.6458 100.208 50.3542 99.875 51.0625C99.5417 51.7708 99.1875 52.4375 98.8125 53.0625L69.4375 99.375C68.7708 100.375 68 101.125 67.125 101.625C66.25 102.125 65.2708 102.375 64.1875 102.375Z" fill="white"/>
</svg>
