<?xml version="1.0" encoding="UTF-8"?>
<svg xmlns="http://www.w3.org/2000/svg" xmlns:xlink="http://www.w3.org/1999/xlink" width="24" height="29.142857" viewBox="0 0 24 29.142857" version="1.1">
<g id="surface1">
<path style=" stroke:none;fill-rule:nonzero;fill:rgb(100%,100%,100%);fill-opacity:1;" d="M 11.730469 27.855469 C 11.839844 27.855469 11.96875 27.835938 12.121094 27.789062 C 12.28125 27.753906 12.445312 27.691406 12.617188 27.601562 C 14.527344 26.601562 16.125 25.699219 17.410156 24.898438 C 18.707031 24.09375 19.738281 23.300781 20.503906 22.511719 C 21.28125 21.726562 21.839844 20.882812 22.179688 19.980469 C 22.519531 19.070312 22.6875 18.011719 22.6875 16.808594 L 22.6875 6.710938 C 22.6875 6.023438 22.539062 5.527344 22.246094 5.222656 C 21.960938 4.917969 21.535156 4.652344 20.972656 4.417969 C 20.660156 4.285156 20.230469 4.117188 19.6875 3.910156 C 19.144531 3.707031 18.539062 3.480469 17.878906 3.242188 C 17.226562 3 16.570312 2.757812 15.910156 2.519531 C 15.257812 2.277344 14.660156 2.0625 14.117188 1.875 C 13.582031 1.679688 13.15625 1.527344 12.84375 1.417969 C 12.664062 1.367188 12.480469 1.320312 12.292969 1.285156 C 12.105469 1.25 11.917969 1.230469 11.730469 1.230469 C 11.542969 1.230469 11.355469 1.25 11.167969 1.285156 C 10.992188 1.320312 10.8125 1.367188 10.632812 1.417969 C 10.320312 1.527344 9.894531 1.679688 9.347656 1.875 C 8.804688 2.0625 8.199219 2.277344 7.539062 2.519531 C 6.886719 2.75 6.230469 2.992188 5.570312 3.242188 C 4.917969 3.480469 4.320312 3.710938 3.777344 3.925781 C 3.230469 4.128906 2.804688 4.292969 2.492188 4.417969 C 1.9375 4.644531 1.511719 4.910156 1.21875 5.222656 C 0.925781 5.527344 0.777344 6.023438 0.777344 6.710938 L 0.777344 16.808594 C 0.777344 18.011719 0.949219 19.0625 1.300781 19.957031 C 1.65625 20.839844 2.222656 21.664062 3 22.433594 C 3.785156 23.191406 4.820312 23.976562 6.105469 24.789062 C 7.402344 25.601562 8.980469 26.539062 10.847656 27.601562 C 11.019531 27.691406 11.179688 27.753906 11.332031 27.789062 C 11.492188 27.835938 11.625 27.855469 11.730469 27.855469 Z M 10.230469 20.585938 C 10 20.585938 9.789062 20.535156 9.601562 20.4375 C 9.414062 20.339844 9.230469 20.175781 9.054688 19.941406 L 5.691406 15.816406 C 5.59375 15.683594 5.511719 15.542969 5.449219 15.402344 C 5.398438 15.25 5.371094 15.097656 5.371094 14.945312 C 5.371094 14.644531 5.472656 14.382812 5.679688 14.167969 C 5.882812 13.945312 6.136719 13.835938 6.441406 13.835938 C 6.636719 13.835938 6.8125 13.875 6.964844 13.957031 C 7.125 14.035156 7.289062 14.1875 7.460938 14.410156 L 10.179688 17.917969 L 15.898438 8.730469 C 16.148438 8.320312 16.46875 8.117188 16.863281 8.117188 C 17.148438 8.117188 17.40625 8.210938 17.636719 8.398438 C 17.871094 8.574219 17.988281 8.820312 17.988281 9.132812 C 17.988281 9.285156 17.949219 9.4375 17.878906 9.589844 C 17.808594 9.742188 17.730469 9.882812 17.652344 10.019531 L 11.355469 19.941406 C 11.214844 20.15625 11.050781 20.316406 10.863281 20.425781 C 10.675781 20.53125 10.464844 20.585938 10.230469 20.585938 Z M 10.230469 20.585938 "/>
</g>
</svg>
