<svg width="20" height="15" viewBox="0 0 20 15" fill="none" xmlns="http://www.w3.org/2000/svg">
<path d="M3.24219 14.5547H16.7578C17.5807 14.5547 18.1953 14.3516 18.6016 13.9453C19.0078 13.5443 19.2109 12.9427 19.2109 12.1406V2.59375C19.2109 1.79167 19.0078 1.1875 18.6016 0.78125C18.1953 0.375 17.5807 0.171875 16.7578 0.171875H3.24219C2.42448 0.171875 1.8099 0.375 1.39844 0.78125C0.992188 1.18229 0.789062 1.78646 0.789062 2.59375V12.1406C0.789062 12.9427 0.992188 13.5443 1.39844 13.9453C1.8099 14.3516 2.42448 14.5547 3.24219 14.5547ZM9.13281 11.1797C8.9974 11.1797 8.875 11.151 8.76562 11.0938C8.65625 11.0365 8.54948 10.9401 8.44531 10.8047L6.48438 8.39844C6.42708 8.32031 6.38021 8.23958 6.34375 8.15625C6.3125 8.06771 6.29688 7.97917 6.29688 7.89062C6.29688 7.71354 6.35677 7.5625 6.47656 7.4375C6.59635 7.30729 6.74479 7.24219 6.92188 7.24219C7.03646 7.24219 7.13802 7.26562 7.22656 7.3125C7.32031 7.35938 7.41667 7.44792 7.51562 7.57812L9.10156 9.625L12.4375 4.26562C12.5833 4.02604 12.7708 3.90625 13 3.90625C13.1667 3.90625 13.3177 3.96094 13.4531 4.07031C13.5885 4.17448 13.6562 4.31771 13.6562 4.5C13.6562 4.58854 13.6354 4.67708 13.5938 4.76562C13.5521 4.85417 13.5078 4.9375 13.4609 5.01562L9.78906 10.8047C9.70573 10.9297 9.60938 11.0234 9.5 11.0859C9.39062 11.1484 9.26823 11.1797 9.13281 11.1797Z" fill="white"/>
</svg>
