<?xml version="1.0" encoding="UTF-8"?>
<svg xmlns="http://www.w3.org/2000/svg" xmlns:xlink="http://www.w3.org/1999/xlink" width="24" height="25.5" viewBox="0 0 24 25.5" version="1.1">
<g id="surface1">
<path style=" stroke:none;fill-rule:nonzero;fill:rgb(100%,100%,100%);fill-opacity:1;" d="M 12 24.492188 C 13.632812 24.492188 15.167969 24.179688 16.605469 23.554688 C 18.050781 22.929688 19.324219 22.066406 20.425781 20.964844 C 21.527344 19.863281 22.390625 18.59375 23.015625 17.15625 C 23.640625 15.710938 23.953125 14.171875 23.953125 12.539062 C 23.953125 10.90625 23.640625 9.371094 23.015625 7.933594 C 22.390625 6.488281 21.527344 5.214844 20.425781 4.113281 C 19.324219 3.011719 18.050781 2.148438 16.605469 1.523438 C 15.160156 0.898438 13.621094 0.585938 11.988281 0.585938 C 10.355469 0.585938 8.816406 0.898438 7.371094 1.523438 C 5.933594 2.148438 4.664062 3.011719 3.5625 4.113281 C 2.46875 5.214844 1.609375 6.488281 0.984375 7.933594 C 0.359375 9.371094 0.046875 10.90625 0.046875 12.539062 C 0.046875 14.171875 0.359375 15.710938 0.984375 17.15625 C 1.609375 18.59375 2.472656 19.863281 3.574219 20.964844 C 4.675781 22.066406 5.945312 22.929688 7.382812 23.554688 C 8.828125 24.179688 10.367188 24.492188 12 24.492188 Z M 10.6875 18.257812 C 10.484375 18.257812 10.300781 18.214844 10.136719 18.128906 C 9.972656 18.042969 9.8125 17.898438 9.65625 17.695312 L 6.714844 14.085938 C 6.628906 13.96875 6.558594 13.847656 6.503906 13.722656 C 6.457031 13.589844 6.433594 13.457031 6.433594 13.324219 C 6.433594 13.058594 6.523438 12.832031 6.703125 12.644531 C 6.882812 12.449219 7.105469 12.351562 7.371094 12.351562 C 7.542969 12.351562 7.695312 12.386719 7.828125 12.457031 C 7.96875 12.527344 8.113281 12.660156 8.261719 12.855469 L 10.640625 15.925781 L 15.644531 7.886719 C 15.863281 7.527344 16.144531 7.347656 16.488281 7.347656 C 16.738281 7.347656 16.964844 7.429688 17.167969 7.59375 C 17.371094 7.75 17.472656 7.964844 17.472656 8.238281 C 17.472656 8.371094 17.441406 8.503906 17.378906 8.636719 C 17.316406 8.769531 17.25 8.894531 17.179688 9.011719 L 11.671875 17.695312 C 11.546875 17.882812 11.402344 18.023438 11.238281 18.117188 C 11.074219 18.210938 10.890625 18.257812 10.6875 18.257812 Z M 10.6875 18.257812 "/>
</g>
</svg>
