<svg width="128" height="128" viewBox="0 0 128 128" fill="none" xmlns="http://www.w3.org/2000/svg">
<path d="M63.9375 127.625C72.6458 127.625 80.8333 125.958 88.5 122.625C96.2083 119.292 103 114.688 108.875 108.812C114.75 102.938 119.354 96.1667 122.688 88.5C126.021 80.7917 127.688 72.5833 127.688 63.875C127.688 55.1667 126.021 46.9792 122.688 39.3125C119.354 31.6042 114.75 24.8125 108.875 18.9375C103 13.0625 96.2083 8.45833 88.5 5.125C80.7917 1.79167 72.5833 0.125 63.875 0.125C55.1667 0.125 46.9583 1.79167 39.25 5.125C31.5833 8.45833 24.8125 13.0625 18.9375 18.9375C13.1042 24.8125 8.52083 31.6042 5.1875 39.3125C1.85417 46.9792 0.1875 55.1667 0.1875 63.875C0.1875 72.5833 1.85417 80.7917 5.1875 88.5C8.52083 96.1667 13.125 102.938 19 108.812C24.875 114.688 31.6458 119.292 39.3125 122.625C47.0208 125.958 55.2292 127.625 63.9375 127.625ZM56.9375 94.375C55.8542 94.375 54.875 94.1458 54 93.6875C53.125 93.2292 52.2708 92.4583 51.4375 91.375L35.75 72.125C35.2917 71.5 34.9167 70.8542 34.625 70.1875C34.375 69.4792 34.25 68.7708 34.25 68.0625C34.25 66.6458 34.7292 65.4375 35.6875 64.4375C36.6458 63.3958 37.8333 62.875 39.25 62.875C40.1667 62.875 40.9792 63.0625 41.6875 63.4375C42.4375 63.8125 43.2083 64.5208 44 65.5625L56.6875 81.9375L83.375 39.0625C84.5417 37.1458 86.0417 36.1875 87.875 36.1875C89.2083 36.1875 90.4167 36.625 91.5 37.5C92.5833 38.3333 93.125 39.4792 93.125 40.9375C93.125 41.6458 92.9583 42.3542 92.625 43.0625C92.2917 43.7708 91.9375 44.4375 91.5625 45.0625L62.1875 91.375C61.5208 92.375 60.75 93.125 59.875 93.625C59 94.125 58.0208 94.375 56.9375 94.375Z" fill="white"/>
</svg>
