<svg width="139" height="130" viewBox="0 0 139 130" fill="none" xmlns="http://www.w3.org/2000/svg">
<path d="M38.0625 129.938C39.3125 129.938 40.4375 129.604 41.4375 128.938C42.4792 128.312 43.75 127.312 45.25 125.938L67.8125 105.312H110.062C116.271 105.312 121.5 104.208 125.75 102C130 99.7917 133.208 96.5625 135.375 92.3125C137.583 88.0625 138.688 82.875 138.688 76.75V28.875C138.688 22.75 137.583 17.5625 135.375 13.3125C133.208 9.0625 130 5.83333 125.75 3.625C121.5 1.375 116.271 0.25 110.062 0.25H29.5625C23.3542 0.25 18.125 1.375 13.875 3.625C9.625 5.83333 6.39583 9.0625 4.1875 13.3125C2.02083 17.5625 0.9375 22.75 0.9375 28.875V76.75C0.9375 82.875 2.02083 88.0625 4.1875 92.3125C6.39583 96.5625 9.625 99.7917 13.875 102C18.125 104.208 23.3542 105.312 29.5625 105.312H32.5V123.5C32.5 125.458 32.9792 127.021 33.9375 128.188C34.8958 129.354 36.2708 129.938 38.0625 129.938ZM62.875 83.25C61.7917 83.25 60.8125 83.0208 59.9375 82.5625C59.0625 82.1042 58.2083 81.3333 57.375 80.25L41.6875 61C41.2292 60.375 40.8542 59.7292 40.5625 59.0625C40.3125 58.3542 40.1875 57.6458 40.1875 56.9375C40.1875 55.5208 40.6667 54.3125 41.625 53.3125C42.5833 52.2708 43.7708 51.75 45.1875 51.75C46.1042 51.75 46.9167 51.9375 47.625 52.3125C48.375 52.6875 49.1458 53.3958 49.9375 54.4375L62.625 70.8125L89.3125 27.9375C90.4792 26.0208 91.9792 25.0625 93.8125 25.0625C95.1458 25.0625 96.3542 25.5 97.4375 26.375C98.5208 27.2083 99.0625 28.3542 99.0625 29.8125C99.0625 30.5208 98.8958 31.2292 98.5625 31.9375C98.2292 32.6458 97.875 33.3125 97.5 33.9375L68.125 80.25C67.4583 81.25 66.6875 82 65.8125 82.5C64.9375 83 63.9583 83.25 62.875 83.25Z" fill="white"/>
</svg>
