<svg width="116" height="116" viewBox="0 0 116 116" fill="none" xmlns="http://www.w3.org/2000/svg">
<path d="M20.5625 115.5H96.375C102.917 115.5 107.812 113.875 111.062 110.625C114.354 107.417 116 102.583 116 96.125V19.8125C116 13.3542 114.354 8.52083 111.062 5.3125C107.812 2.0625 102.917 0.4375 96.375 0.4375H20.5625C14.0208 0.4375 9.10417 2.0625 5.8125 5.3125C2.5625 8.52083 0.9375 13.3542 0.9375 19.8125V96.125C0.9375 102.583 2.5625 107.417 5.8125 110.625C9.10417 113.875 14.0208 115.5 20.5625 115.5ZM43.75 89.8125C42.75 88.8125 42.25 87.6458 42.25 86.3125C42.25 84.9375 42.7292 83.7917 43.6875 82.875L70.1875 57.9375L43.6875 33.0625C42.6875 32.1458 42.2083 31 42.25 29.625C42.2917 28.25 42.8125 27.0833 43.8125 26.125C44.7292 25.2083 45.8333 24.7917 47.125 24.875C48.4583 24.9167 49.625 25.4167 50.625 26.375L77.4375 51.5625C78.6875 52.6875 79.5 54.0417 79.875 55.625C80.2917 57.1667 80.2917 58.7292 79.875 60.3125C79.5 61.8542 78.6875 63.1875 77.4375 64.3125L50.625 89.5625C49.7083 90.4375 48.5417 90.8958 47.125 90.9375C45.7083 90.9792 44.5833 90.6042 43.75 89.8125Z" fill="white"/>
</svg>
