<svg xmlns="http://www.w3.org/2000/svg" width="24" height="24"><path style="stroke:none;fill-rule:nonzero;fill:#fff;fill-opacity:1" d="m.898 8.172 9.145 10.02c.305.324.633.652.98 1.007.348.324.672.488.977.488.293 0 .617-.164.965-.492.348-.351.68-.68.992-1.004l9.133-10.02c.246-.269.46-.722.617-1.312a7.57 7.57 0 0 0 .227-1.906c0-1.101-.13-2.012-.391-2.742-.25-.738-.598-1.148-.961-1.129-.2 0-.418.133-.656.383-.242.222-.45.43-.617.601L11.05 13.356h1.886L2.68 2.065c-.172-.171-.375-.378-.618-.601-.23-.254-.449-.383-.656-.383-.383 0-.707.383-.965 1.129C.184 2.938.043 3.93.055 4.953c0 .7.074 1.336.226 1.906.153.579.356 1.016.617 1.313Zm0 0"/></svg>