<svg xmlns="http://www.w3.org/2000/svg" width="24" height="24"><path style="stroke:none;fill-rule:nonzero;fill:#fff;fill-opacity:1" d="M23.46 11.773c0-.156-.062-.3-.187-.437a1.495 1.495 0 0 0-.492-.387L4.22 1.25C3.797 1.035 3.28.926 2.672.926c-.39 0-.75.05-1.078.148-.32.098-.59.242-.774.414-.191.172-.285.371-.28.575 0 .308.202.578.608.812l17.063 8.898-17.063 8.903c-.394.219-.613.508-.609.812 0 .215.094.407.281.575.188.175.446.312.774.414.328.097.687.148 1.078.148.61 0 1.125-.113 1.547-.336l18.562-9.687c.219-.118.383-.243.492-.375a.681.681 0 0 0 .188-.454Zm0 0"/></svg>