<svg width="63" height="110" viewBox="0 0 63 110" fill="none" xmlns="http://www.w3.org/2000/svg">
<path d="M62.0625 54.875C62.0625 54.0833 61.8958 53.3542 61.5625 52.6875C61.2708 51.9792 60.8333 51.3333 60.25 50.75L10.75 2.25C9.625 1.16667 8.25 0.625 6.625 0.625C5.58333 0.625 4.625 0.875 3.75 1.375C2.875 1.875 2.1875 2.5625 1.6875 3.4375C1.1875 4.27083 0.9375 5.22917 0.9375 6.3125C0.9375 7.85417 1.47917 9.20833 2.5625 10.375L48.0625 54.875L2.5625 99.375C1.47917 100.542 0.9375 101.896 0.9375 103.438C0.9375 104.521 1.1875 105.479 1.6875 106.312C2.1875 107.188 2.875 107.875 3.75 108.375C4.625 108.875 5.58333 109.125 6.625 109.125C8.25 109.125 9.625 108.562 10.75 107.438L60.25 59C60.8333 58.4167 61.2708 57.7917 61.5625 57.125C61.8958 56.4167 62.0625 55.6667 62.0625 54.875Z" fill="white"/>
</svg>
