<svg xmlns="http://www.w3.org/2000/svg" width="24" height="24"><path style="stroke:none;fill-rule:nonzero;fill:#fff;fill-opacity:1" d="M14.766 22.086c.343.242.875.434 1.593.578a12.3 12.3 0 0 0 2.391.223c1.406 0 2.563-.121 3.469-.364.937-.242 1.406-.543 1.406-.91 0-.191-.156-.394-.469-.613a15 15 0 0 0-.797-.574L8.25 10.852v1.773l14.11-9.574c.25-.16.515-.352.796-.574.313-.227.469-.43.469-.614 0-.367-.469-.668-1.406-.902C21.312.723 20.156.6 18.75.6c-.844 0-1.64.07-2.39.212-.72.14-1.25.332-1.594.574L2.203 9.914c-.465.3-.887.61-1.265.922-.407.328-.61.625-.61.902 0 .274.203.575.61.899.386.312.808.62 1.265.925Zm0 0"/></svg>