<svg width="8" height="15" viewBox="0 0 8 15" fill="none" xmlns="http://www.w3.org/2000/svg">
<path d="M7.82031 7.35938C7.82031 7.26042 7.79948 7.16927 7.75781 7.08594C7.72135 6.9974 7.66667 6.91667 7.59375 6.84375L1.40625 0.78125C1.26562 0.645833 1.09375 0.578125 0.890625 0.578125C0.760417 0.578125 0.640625 0.609375 0.53125 0.671875C0.421875 0.734375 0.335938 0.820312 0.273438 0.929688C0.210938 1.03385 0.179688 1.15365 0.179688 1.28906C0.179688 1.48177 0.247396 1.65104 0.382812 1.79688L6.07031 7.35938L0.382812 12.9219C0.247396 13.0677 0.179688 13.237 0.179688 13.4297C0.179688 13.5651 0.210938 13.6849 0.273438 13.7891C0.335938 13.8984 0.421875 13.9844 0.53125 14.0469C0.640625 14.1094 0.760417 14.1406 0.890625 14.1406C1.09375 14.1406 1.26562 14.0703 1.40625 13.9297L7.59375 7.875C7.66667 7.80208 7.72135 7.72396 7.75781 7.64062C7.79948 7.55208 7.82031 7.45833 7.82031 7.35938Z" fill="white"/>
</svg>
