<?xml version="1.0" encoding="UTF-8"?>
<svg xmlns="http://www.w3.org/2000/svg" xmlns:xlink="http://www.w3.org/1999/xlink" width="24" height="25.5" viewBox="0 0 24 25.5" version="1.1">
<g id="surface1">
<path style=" stroke:none;fill-rule:nonzero;fill:rgb(100%,100%,100%);fill-opacity:1;" d="M 12 24.492188 C 13.632812 24.492188 15.167969 24.179688 16.605469 23.554688 C 18.050781 22.929688 19.324219 22.066406 20.425781 20.964844 C 21.527344 19.863281 22.390625 18.59375 23.015625 17.15625 C 23.640625 15.710938 23.953125 14.171875 23.953125 12.539062 C 23.953125 10.90625 23.640625 9.371094 23.015625 7.933594 C 22.390625 6.488281 21.527344 5.214844 20.425781 4.113281 C 19.324219 3.011719 18.050781 2.148438 16.605469 1.523438 C 15.160156 0.898438 13.621094 0.585938 11.988281 0.585938 C 10.355469 0.585938 8.816406 0.898438 7.371094 1.523438 C 5.933594 2.148438 4.664062 3.011719 3.5625 4.113281 C 2.46875 5.214844 1.609375 6.488281 0.984375 7.933594 C 0.359375 9.371094 0.046875 10.90625 0.046875 12.539062 C 0.046875 14.171875 0.359375 15.710938 0.984375 17.15625 C 1.609375 18.59375 2.472656 19.863281 3.574219 20.964844 C 4.675781 22.066406 5.945312 22.929688 7.382812 23.554688 C 8.828125 24.179688 10.367188 24.492188 12 24.492188 Z M 9.234375 18.527344 C 9.046875 18.339844 8.953125 18.121094 8.953125 17.871094 C 8.953125 17.613281 9.042969 17.398438 9.222656 17.226562 L 14.191406 12.550781 L 9.222656 7.886719 C 9.035156 7.714844 8.945312 7.5 8.953125 7.242188 C 8.960938 6.984375 9.058594 6.765625 9.246094 6.585938 C 9.417969 6.414062 9.625 6.335938 9.867188 6.351562 C 10.117188 6.359375 10.335938 6.453125 10.523438 6.632812 L 15.550781 11.355469 C 15.785156 11.566406 15.9375 11.820312 16.007812 12.117188 C 16.085938 12.40625 16.085938 12.699219 16.007812 12.996094 C 15.9375 13.285156 15.785156 13.535156 15.550781 13.746094 L 10.523438 18.480469 C 10.351562 18.644531 10.132812 18.730469 9.867188 18.738281 C 9.601562 18.746094 9.390625 18.675781 9.234375 18.527344 Z M 9.234375 18.527344 "/>
</g>
</svg>
