<svg width="10" height="15" viewBox="0 0 10 15" fill="none" xmlns="http://www.w3.org/2000/svg">
<path d="M0.484375 13.4297C0.484375 13.5651 0.515625 13.6875 0.578125 13.7969C0.640625 13.9062 0.726562 13.9922 0.835938 14.0547C0.945312 14.1172 1.06771 14.1484 1.20312 14.1484C1.30208 14.1484 1.39323 14.1302 1.47656 14.0938C1.5599 14.0573 1.63802 14.0026 1.71094 13.9297L7.89844 7.88281C8.04948 7.73177 8.125 7.55729 8.125 7.35938C8.125 7.25521 8.10417 7.15885 8.0625 7.07031C8.02604 6.98177 7.97396 6.90365 7.90625 6.83594L1.71094 0.78125C1.63802 0.713542 1.5599 0.661458 1.47656 0.625C1.39323 0.588542 1.29948 0.570312 1.19531 0.570312C1.0599 0.570312 0.9375 0.601562 0.828125 0.664062C0.723958 0.726562 0.640625 0.8125 0.578125 0.921875C0.515625 1.02604 0.484375 1.14844 0.484375 1.28906C0.484375 1.38802 0.502604 1.48177 0.539062 1.57031C0.575521 1.65365 0.627604 1.72917 0.695312 1.79688L6.875 7.83594V6.875L0.695312 12.9219C0.622396 12.9948 0.567708 13.0729 0.53125 13.1562C0.5 13.2396 0.484375 13.3307 0.484375 13.4297ZM8.10938 13.4688C8.10938 13.6667 8.17448 13.8281 8.30469 13.9531C8.4349 14.0833 8.60156 14.1484 8.80469 14.1484C9.00781 14.1484 9.17448 14.0833 9.30469 13.9531C9.4401 13.8281 9.50781 13.6667 9.50781 13.4688V1.26562C9.50781 1.0625 9.4401 0.895833 9.30469 0.765625C9.17448 0.635417 9.00781 0.570312 8.80469 0.570312C8.60156 0.570312 8.4349 0.635417 8.30469 0.765625C8.17448 0.895833 8.10938 1.0625 8.10938 1.26562V13.4688Z" fill="white"/>
</svg>
