<svg xmlns="http://www.w3.org/2000/svg" width="24" height="24"><path style="stroke:none;fill-rule:nonzero;fill:#fff;fill-opacity:1" d="M4.887 23.3h14.215c1.226 0 2.144-.323 2.753-.976.618-.64.926-1.605.926-2.898V4.164c0-1.293-.308-2.258-.926-2.898-.609-.653-1.527-.977-2.753-.977H4.887c-1.227 0-2.149.324-2.766.977-.61.64-.914 1.605-.914 2.898v15.262c0 1.293.305 2.258.914 2.902.617.649 1.54.973 2.766.973Zm4.347-5.136a1.006 1.006 0 0 1-.28-.703.93.93 0 0 1 .269-.684l4.968-4.988-4.968-4.976a.887.887 0 0 1-.27-.688 1 1 0 0 1 .293-.7c.16-.179.39-.269.621-.25.25.009.469.106.656.298l5.028 5.039c.234.226.386.496.457.812.078.309.078.621 0 .938-.07.308-.223.574-.457.8l-5.028 5.051a.94.94 0 0 1-.656.274c-.265.008-.476-.067-.633-.223Zm0 0"/></svg>