<?xml version="1.0" encoding="UTF-8"?>
<svg xmlns="http://www.w3.org/2000/svg" xmlns:xlink="http://www.w3.org/1999/xlink" width="24" height="15.428571" viewBox="0 0 24 15.428571" version="1.1">
<g id="surface1">
<path style=" stroke:none;fill-rule:nonzero;fill:rgb(100%,100%,100%);fill-opacity:1;" d="M 12 14.613281 C 12.167969 14.613281 12.332031 14.582031 12.480469 14.519531 C 12.644531 14.445312 12.78125 14.347656 12.898438 14.222656 L 23.261719 3.601562 C 23.503906 3.363281 23.625 3.074219 23.625 2.746094 C 23.625 2.511719 23.570312 2.304688 23.464844 2.117188 C 23.355469 1.929688 23.210938 1.78125 23.023438 1.675781 C 22.84375 1.566406 22.636719 1.511719 22.40625 1.511719 C 22.074219 1.511719 21.785156 1.628906 21.535156 1.863281 L 11.277344 12.347656 L 12.710938 12.347656 L 2.449219 1.863281 C 2.210938 1.628906 1.917969 1.511719 1.582031 1.511719 C 1.347656 1.511719 1.136719 1.566406 0.949219 1.675781 C 0.773438 1.78125 0.628906 1.929688 0.523438 2.117188 C 0.414062 2.304688 0.363281 2.511719 0.363281 2.746094 C 0.363281 2.914062 0.394531 3.074219 0.457031 3.226562 C 0.519531 3.371094 0.605469 3.5 0.722656 3.617188 L 11.089844 14.222656 C 11.355469 14.480469 11.660156 14.613281 12 14.613281 Z M 12 14.613281 "/>
</g>
</svg>
