<svg width="10" height="15" viewBox="0 0 10 15" fill="none" xmlns="http://www.w3.org/2000/svg">
<path d="M9.50781 13.4297C9.50781 13.3307 9.48958 13.2396 9.45312 13.1562C9.42188 13.0729 9.36979 12.9948 9.29688 12.9219L3.11719 6.875V7.83594L9.29688 1.79688C9.36458 1.72917 9.41667 1.65365 9.45312 1.57031C9.48958 1.48177 9.50781 1.38802 9.50781 1.28906C9.50781 1.14844 9.47656 1.02604 9.41406 0.921875C9.35156 0.8125 9.26562 0.726562 9.15625 0.664062C9.04688 0.601562 8.92708 0.570312 8.79688 0.570312C8.69271 0.570312 8.59896 0.588542 8.51562 0.625C8.43229 0.661458 8.35417 0.713542 8.28125 0.78125L2.08594 6.83594C2.01823 6.90365 1.96354 6.98177 1.92188 7.07031C1.88021 7.15885 1.85938 7.25521 1.85938 7.35938C1.85938 7.55729 1.9375 7.73177 2.09375 7.88281L8.28125 13.9297C8.35417 14.0026 8.43229 14.0573 8.51562 14.0938C8.59896 14.1302 8.6901 14.1484 8.78906 14.1484C8.92448 14.1484 9.04688 14.1172 9.15625 14.0547C9.26562 13.9922 9.35156 13.9062 9.41406 13.7969C9.47656 13.6875 9.50781 13.5651 9.50781 13.4297ZM1.88281 13.4688V1.26562C1.88281 1.0625 1.81771 0.895833 1.6875 0.765625C1.55729 0.635417 1.38802 0.570312 1.17969 0.570312C0.976562 0.570312 0.809896 0.635417 0.679688 0.765625C0.549479 0.895833 0.484375 1.0625 0.484375 1.26562V13.4688C0.484375 13.6667 0.549479 13.8281 0.679688 13.9531C0.809896 14.0833 0.976562 14.1484 1.17969 14.1484C1.38802 14.1484 1.55729 14.0833 1.6875 13.9531C1.81771 13.8281 1.88281 13.6667 1.88281 13.4688Z" fill="white"/>
</svg>
