<?xml version="1.0" encoding="UTF-8"?>
<svg xmlns="http://www.w3.org/2000/svg" xmlns:xlink="http://www.w3.org/1999/xlink" width="24" height="25.5" viewBox="0 0 24 25.5" version="1.1">
<g id="surface1">
<path style=" stroke:none;fill-rule:nonzero;fill:rgb(100%,100%,100%);fill-opacity:1;" d="M 12 24.492188 C 13.632812 24.492188 15.167969 24.179688 16.605469 23.554688 C 18.050781 22.929688 19.324219 22.066406 20.425781 20.964844 C 21.527344 19.863281 22.390625 18.59375 23.015625 17.15625 C 23.640625 15.710938 23.953125 14.171875 23.953125 12.539062 C 23.953125 10.90625 23.640625 9.371094 23.015625 7.933594 C 22.390625 6.488281 21.527344 5.214844 20.425781 4.113281 C 19.324219 3.011719 18.050781 2.148438 16.605469 1.523438 C 15.160156 0.898438 13.621094 0.585938 11.988281 0.585938 C 10.355469 0.585938 8.816406 0.898438 7.371094 1.523438 C 5.933594 2.148438 4.664062 3.011719 3.5625 4.113281 C 2.46875 5.214844 1.609375 6.488281 0.984375 7.933594 C 0.359375 9.371094 0.046875 10.90625 0.046875 12.539062 C 0.046875 14.171875 0.359375 15.710938 0.984375 17.15625 C 1.609375 18.59375 2.472656 19.863281 3.574219 20.964844 C 4.675781 22.066406 5.945312 22.929688 7.382812 23.554688 C 8.828125 24.179688 10.367188 24.492188 12 24.492188 Z M 14.320312 18.328125 C 14.164062 18.476562 13.957031 18.546875 13.699219 18.539062 C 13.449219 18.53125 13.242188 18.449219 13.078125 18.292969 L 8.191406 13.6875 C 7.972656 13.484375 7.824219 13.242188 7.746094 12.960938 C 7.675781 12.679688 7.675781 12.398438 7.746094 12.117188 C 7.824219 11.835938 7.972656 11.59375 8.191406 11.390625 L 13.078125 6.796875 C 13.257812 6.625 13.464844 6.535156 13.699219 6.527344 C 13.941406 6.519531 14.144531 6.597656 14.308594 6.761719 C 14.488281 6.925781 14.582031 7.132812 14.589844 7.382812 C 14.597656 7.632812 14.511719 7.84375 14.332031 8.015625 L 9.515625 12.539062 L 14.332031 17.074219 C 14.503906 17.238281 14.589844 17.445312 14.589844 17.695312 C 14.589844 17.945312 14.5 18.15625 14.320312 18.328125 Z M 14.320312 18.328125 "/>
</g>
</svg>
