<svg width="16" height="15" viewBox="0 0 16 15" fill="none" xmlns="http://www.w3.org/2000/svg">
<path d="M3.25781 14.5625H12.7344C13.5521 14.5625 14.1641 14.3594 14.5703 13.9531C14.9818 13.5521 15.1875 12.9479 15.1875 12.1406V2.60156C15.1875 1.79427 14.9818 1.1901 14.5703 0.789062C14.1641 0.382812 13.5521 0.179688 12.7344 0.179688H3.25781C2.4401 0.179688 1.82552 0.382812 1.41406 0.789062C1.00781 1.1901 0.804688 1.79427 0.804688 2.60156V12.1406C0.804688 12.9479 1.00781 13.5521 1.41406 13.9531C1.82552 14.3594 2.4401 14.5625 3.25781 14.5625ZM3.27344 13.3047C2.88281 13.3047 2.58333 13.2031 2.375 13C2.16667 12.7917 2.0625 12.4844 2.0625 12.0781V2.66406C2.0625 2.25781 2.16667 1.95312 2.375 1.75C2.58333 1.54167 2.88281 1.4375 3.27344 1.4375H12.7188C13.1042 1.4375 13.401 1.54167 13.6094 1.75C13.8229 1.95312 13.9297 2.25781 13.9297 2.66406V12.0781C13.9297 12.4844 13.8229 12.7917 13.6094 13C13.401 13.2031 13.1042 13.3047 12.7188 13.3047H3.27344ZM8.78125 9.875L11.8516 6.61719C11.9661 6.4974 12.026 6.35677 12.0312 6.19531C12.0365 6.03385 11.9844 5.90104 11.875 5.79688C11.7552 5.67188 11.612 5.60938 11.4453 5.60938C11.2839 5.60417 11.1458 5.66146 11.0312 5.78125L8.00781 8.98438L4.98438 5.78125C4.875 5.66146 4.73698 5.60417 4.57031 5.60938C4.40365 5.60938 4.26302 5.67188 4.14844 5.79688C4.04427 5.90625 3.99219 6.04167 3.99219 6.20312C3.99219 6.35938 4.05208 6.4974 4.17188 6.61719L7.23438 9.875C7.40104 10.0469 7.57031 10.1615 7.74219 10.2188C7.91927 10.276 8.09635 10.276 8.27344 10.2188C8.45052 10.1615 8.61979 10.0469 8.78125 9.875Z" fill="white"/>
</svg>
