<?xml version="1.0" encoding="UTF-8"?>
<svg xmlns="http://www.w3.org/2000/svg" xmlns:xlink="http://www.w3.org/1999/xlink" width="24" height="45" viewBox="0 0 24 45" version="1.1">
<g id="surface1">
<path style=" stroke:none;fill-rule:nonzero;fill:rgb(100%,100%,100%);fill-opacity:1;" d="M 23.460938 22.078125 C 23.460938 21.78125 23.398438 21.507812 23.273438 21.257812 C 23.164062 20.992188 23 20.75 22.78125 20.53125 L 4.21875 2.34375 C 3.796875 1.9375 3.28125 1.734375 2.671875 1.734375 C 2.28125 1.734375 1.921875 1.828125 1.59375 2.015625 C 1.265625 2.203125 1.007812 2.460938 0.820312 2.789062 C 0.632812 3.101562 0.539062 3.460938 0.539062 3.867188 C 0.539062 4.445312 0.742188 4.953125 1.148438 5.390625 L 18.210938 22.078125 L 1.148438 38.765625 C 0.742188 39.203125 0.539062 39.710938 0.539062 40.289062 C 0.539062 40.695312 0.632812 41.054688 0.820312 41.367188 C 1.007812 41.695312 1.265625 41.953125 1.59375 42.140625 C 1.921875 42.328125 2.28125 42.421875 2.671875 42.421875 C 3.28125 42.421875 3.796875 42.210938 4.21875 41.789062 L 22.78125 23.625 C 23 23.40625 23.164062 23.171875 23.273438 22.921875 C 23.398438 22.65625 23.460938 22.375 23.460938 22.078125 Z M 23.460938 22.078125 "/>
</g>
</svg>
