<svg xmlns="http://www.w3.org/2000/svg" width="24" height="24"><path style="stroke:none;fill-rule:nonzero;fill:#fff;fill-opacity:1" d="M12 23.05c1.633 0 3.168-.292 4.605-.882a12.22 12.22 0 0 0 3.82-2.438 11.467 11.467 0 0 0 2.59-3.582c.626-1.363.938-2.808.938-4.347a10.2 10.2 0 0 0-.937-4.332 11.53 11.53 0 0 0-2.59-3.598 12.361 12.361 0 0 0-3.82-2.437A12.166 12.166 0 0 0 11.987.55c-1.633 0-3.172.293-4.617.883A12.307 12.307 0 0 0 3.562 3.87 11.523 11.523 0 0 0 .985 7.465 10.2 10.2 0 0 0 .047 11.8c0 1.539.312 2.984.937 4.347a11.467 11.467 0 0 0 2.59 3.582 12.236 12.236 0 0 0 3.809 2.438c1.445.59 2.984.883 4.617.883Zm2.32-5.8c-.156.14-.363.207-.62.2a.94.94 0 0 1-.622-.231l-4.887-4.336a1.44 1.44 0 0 1-.445-.684 1.532 1.532 0 0 1 0-.797 1.42 1.42 0 0 1 .445-.68l4.887-4.324a.927.927 0 0 1 .621-.253.808.808 0 0 1 .61.218c.18.157.273.348.28.586a.736.736 0 0 1-.257.594l-4.816 4.258 4.816 4.27a.742.742 0 0 1 .258.581c0 .239-.09.438-.27.598Zm0 0"/></svg>