<svg width="113" height="32" viewBox="0 0 113 32" fill="none" xmlns="http://www.w3.org/2000/svg">
<path d="M4.875 12.625L47.5625 29.3125C48.9792 29.8542 50.5 30.4167 52.125 31C53.75 31.5417 55.2708 31.8125 56.6875 31.8125C58.0625 31.8125 59.5625 31.5417 61.1875 31C62.8125 30.4167 64.3542 29.8542 65.8125 29.3125L108.438 12.625C109.646 12.125 110.604 11.3958 111.312 10.4375C112.021 9.47917 112.375 8.41667 112.375 7.25C112.375 5.41667 111.771 3.89583 110.562 2.6875C109.354 1.4375 107.854 0.8125 106.062 0.8125C105.146 0.8125 104.125 1.02083 103 1.4375C101.875 1.8125 100.917 2.14583 100.125 2.4375L52.25 21.25H61.0625L13.1875 2.4375C12.3958 2.14583 11.4375 1.8125 10.3125 1.4375C9.22917 1.02083 8.20833 0.8125 7.25 0.8125C5.45833 0.8125 3.95833 1.4375 2.75 2.6875C1.54167 3.89583 0.9375 5.41667 0.9375 7.25C0.9375 8.41667 1.29167 9.47917 2 10.4375C2.70833 11.3958 3.66667 12.125 4.875 12.625Z" fill="white"/>
</svg>
