<svg xmlns="http://www.w3.org/2000/svg" width="24" height="24"><path style="stroke:none;fill-rule:nonzero;fill:#fff;fill-opacity:1" d="M22.82 21.488a.79.79 0 0 0-.133-.437 1.139 1.139 0 0 0-.375-.375L7.48 11v1.535l14.832-9.66c.165-.11.29-.23.375-.363a.848.848 0 0 0 .133-.45.871.871 0 0 0-.226-.59 1.49 1.49 0 0 0-.617-.41 2.418 2.418 0 0 0-.864-.152 2.269 2.269 0 0 0-1.238.34L5.008 10.938c-.164.109-.297.234-.395.374a.778.778 0 0 0-.152.465c0 .313.187.594.562.836l14.852 9.672a2.06 2.06 0 0 0 1.219.352c.324 0 .617-.047.883-.149.261-.101.468-.238.617-.414a.883.883 0 0 0 .226-.586Zm-18.3.063V2.027c0-.324-.157-.593-.47-.8C3.739 1.016 3.333.91 2.833.91c-.488 0-.887.106-1.2.317-.312.207-.468.476-.468.8v19.524c0 .316.156.574.469.773.312.211.71.313 1.199.313.5 0 .906-.102 1.219-.313.312-.199.469-.457.469-.773Zm0 0"/></svg>