<svg width="16" height="17" viewBox="0 0 16 17" fill="none" xmlns="http://www.w3.org/2000/svg">
<path d="M8 16.3281C9.08854 16.3281 10.112 16.1198 11.0703 15.7031C12.0339 15.2865 12.8828 14.7109 13.6172 13.9766C14.3516 13.2422 14.9271 12.3958 15.3438 11.4375C15.7604 10.474 15.9688 9.44792 15.9688 8.35938C15.9688 7.27083 15.7604 6.2474 15.3438 5.28906C14.9271 4.32552 14.3516 3.47656 13.6172 2.74219C12.8828 2.00781 12.0339 1.43229 11.0703 1.01562C10.1068 0.598958 9.08073 0.390625 7.99219 0.390625C6.90365 0.390625 5.8776 0.598958 4.91406 1.01562C3.95573 1.43229 3.10938 2.00781 2.375 2.74219C1.64583 3.47656 1.07292 4.32552 0.65625 5.28906C0.239583 6.2474 0.03125 7.27083 0.03125 8.35938C0.03125 9.44792 0.239583 10.474 0.65625 11.4375C1.07292 12.3958 1.64844 13.2422 2.38281 13.9766C3.11719 14.7109 3.96354 15.2865 4.92188 15.7031C5.88542 16.1198 6.91146 16.3281 8 16.3281ZM9.54688 12.2188C9.44271 12.3177 9.30469 12.3646 9.13281 12.3594C8.96615 12.3542 8.82812 12.2995 8.71875 12.1953L5.46094 9.125C5.3151 8.98958 5.21615 8.82812 5.16406 8.64062C5.11719 8.45312 5.11719 8.26562 5.16406 8.07812C5.21615 7.89062 5.3151 7.72917 5.46094 7.59375L8.71875 4.53125C8.83854 4.41667 8.97656 4.35677 9.13281 4.35156C9.29427 4.34635 9.42969 4.39844 9.53906 4.50781C9.65885 4.61719 9.72135 4.75521 9.72656 4.92188C9.73177 5.08854 9.67448 5.22917 9.55469 5.34375L6.34375 8.35938L9.55469 11.3828C9.66927 11.4922 9.72656 11.6302 9.72656 11.7969C9.72656 11.9635 9.66667 12.1042 9.54688 12.2188Z" fill="white"/>
</svg>
