<svg width="16" height="17" viewBox="0 0 16 17" fill="none" xmlns="http://www.w3.org/2000/svg">
<path d="M8 16.3281C9.08854 16.3281 10.112 16.1198 11.0703 15.7031C12.0339 15.2865 12.8828 14.7109 13.6172 13.9766C14.3516 13.2422 14.9271 12.3958 15.3438 11.4375C15.7604 10.474 15.9688 9.44792 15.9688 8.35938C15.9688 7.27083 15.7604 6.2474 15.3438 5.28906C14.9271 4.32552 14.3516 3.47656 13.6172 2.74219C12.8828 2.00781 12.0339 1.43229 11.0703 1.01562C10.1068 0.598958 9.08073 0.390625 7.99219 0.390625C6.90365 0.390625 5.8776 0.598958 4.91406 1.01562C3.95573 1.43229 3.10938 2.00781 2.375 2.74219C1.64583 3.47656 1.07292 4.32552 0.65625 5.28906C0.239583 6.2474 0.03125 7.27083 0.03125 8.35938C0.03125 9.44792 0.239583 10.474 0.65625 11.4375C1.07292 12.3958 1.64844 13.2422 2.38281 13.9766C3.11719 14.7109 3.96354 15.2865 4.92188 15.7031C5.88542 16.1198 6.91146 16.3281 8 16.3281ZM6.15625 12.3516C6.03125 12.2266 5.96875 12.0807 5.96875 11.9141C5.96875 11.7422 6.02865 11.599 6.14844 11.4844L9.46094 8.36719L6.14844 5.25781C6.02344 5.14323 5.96354 5 5.96875 4.82812C5.97396 4.65625 6.03906 4.51042 6.16406 4.39062C6.27865 4.27604 6.41667 4.22396 6.57812 4.23438C6.74479 4.23958 6.89062 4.30208 7.01562 4.42188L10.3672 7.57031C10.5234 7.71094 10.625 7.88021 10.6719 8.07812C10.724 8.27083 10.724 8.46615 10.6719 8.66406C10.625 8.85677 10.5234 9.02344 10.3672 9.16406L7.01562 12.3203C6.90104 12.4297 6.75521 12.487 6.57812 12.4922C6.40104 12.4974 6.26042 12.4505 6.15625 12.3516Z" fill="white"/>
</svg>
