<svg width="128" height="128" viewBox="0 0 128 128" fill="none" xmlns="http://www.w3.org/2000/svg">
<path d="M63.9375 127.625C72.6458 127.625 80.8333 125.958 88.5 122.625C96.2083 119.292 103 114.688 108.875 108.812C114.75 102.938 119.354 96.1667 122.688 88.5C126.021 80.7917 127.688 72.5833 127.688 63.875C127.688 55.1667 126.021 46.9792 122.688 39.3125C119.354 31.6042 114.75 24.8125 108.875 18.9375C103 13.0625 96.2083 8.45833 88.5 5.125C80.7917 1.79167 72.5833 0.125 63.875 0.125C55.1667 0.125 46.9583 1.79167 39.25 5.125C31.5833 8.45833 24.8125 13.0625 18.9375 18.9375C13.1042 24.8125 8.52083 31.6042 5.1875 39.3125C1.85417 46.9792 0.1875 55.1667 0.1875 63.875C0.1875 72.5833 1.85417 80.7917 5.1875 88.5C8.52083 96.1667 13.125 102.938 19 108.812C24.875 114.688 31.6458 119.292 39.3125 122.625C47.0208 125.958 55.2292 127.625 63.9375 127.625ZM76.3125 94.75C75.4792 95.5417 74.375 95.9167 73 95.875C71.6667 95.8333 70.5625 95.3958 69.6875 94.5625L43.625 70C42.4583 68.9167 41.6667 67.625 41.25 66.125C40.875 64.625 40.875 63.125 41.25 61.625C41.6667 60.125 42.4583 58.8333 43.625 57.75L69.6875 33.25C70.6458 32.3333 71.75 31.8542 73 31.8125C74.2917 31.7708 75.375 32.1875 76.25 33.0625C77.2083 33.9375 77.7083 35.0417 77.75 36.375C77.7917 37.7083 77.3333 38.8333 76.375 39.75L50.6875 63.875L76.375 88.0625C77.2917 88.9375 77.75 90.0417 77.75 91.375C77.75 92.7083 77.2708 93.8333 76.3125 94.75Z" fill="white"/>
</svg>
