<svg width="20" height="19" viewBox="0 0 20 19" fill="none" xmlns="http://www.w3.org/2000/svg">
<path d="M9.99219 6.89844C10.6172 6.89844 11.1875 6.74479 11.7031 6.4375C12.2188 6.125 12.6302 5.71094 12.9375 5.19531C13.2448 4.67969 13.3984 4.11198 13.3984 3.49219C13.3984 2.86719 13.2448 2.29948 12.9375 1.78906C12.6302 1.27344 12.2188 0.861979 11.7031 0.554688C11.1875 0.247396 10.6172 0.09375 9.99219 0.09375C9.36719 0.09375 8.79688 0.247396 8.28125 0.554688C7.76562 0.861979 7.35417 1.27344 7.04688 1.78906C6.73958 2.29948 6.58594 2.86719 6.58594 3.49219C6.58594 4.11198 6.73958 4.67969 7.04688 5.19531C7.35417 5.71094 7.76562 6.125 8.28125 6.4375C8.79688 6.74479 9.36719 6.89844 9.99219 6.89844ZM9.99219 5.66406C9.58594 5.66406 9.21615 5.56771 8.88281 5.375C8.55469 5.18229 8.29167 4.92188 8.09375 4.59375C7.90104 4.26562 7.80469 3.89844 7.80469 3.49219C7.80469 3.08594 7.90104 2.71615 8.09375 2.38281C8.29167 2.04948 8.55469 1.78385 8.88281 1.58594C9.21615 1.38802 9.58594 1.28906 9.99219 1.28906C10.4036 1.28906 10.7734 1.38802 11.1016 1.58594C11.4297 1.78385 11.6901 2.04948 11.8828 2.38281C12.0755 2.71615 12.1719 3.08594 12.1719 3.49219C12.1719 3.89844 12.0755 4.26562 11.8828 4.59375C11.6901 4.92188 11.4297 5.18229 11.1016 5.375C10.7734 5.56771 10.4036 5.66406 9.99219 5.66406ZM15.6797 12.7578C16.2995 12.7578 16.8672 12.6042 17.3828 12.2969C17.8984 11.9844 18.3099 11.5703 18.6172 11.0547C18.9245 10.5391 19.0781 9.97135 19.0781 9.35156C19.0781 8.73177 18.9245 8.16406 18.6172 7.64844C18.3099 7.13281 17.8984 6.72135 17.3828 6.41406C16.8672 6.10677 16.2995 5.95312 15.6797 5.95312C15.0495 5.95312 14.4766 6.10677 13.9609 6.41406C13.4453 6.72135 13.0339 7.13281 12.7266 7.64844C12.4193 8.16406 12.2656 8.73177 12.2656 9.35156C12.2656 9.97135 12.4193 10.5391 12.7266 11.0547C13.0339 11.5703 13.4453 11.9844 13.9609 12.2969C14.4766 12.6042 15.0495 12.7578 15.6797 12.7578ZM15.6797 11.5312C15.2682 11.5312 14.8958 11.4349 14.5625 11.2422C14.2344 11.0495 13.974 10.7891 13.7812 10.4609C13.5885 10.1276 13.4922 9.75781 13.4922 9.35156C13.4922 8.94531 13.5885 8.57552 13.7812 8.24219C13.974 7.90885 14.2344 7.64323 14.5625 7.44531C14.8958 7.2474 15.2682 7.14844 15.6797 7.14844C16.0859 7.14844 16.4531 7.2474 16.7812 7.44531C17.1094 7.64323 17.3698 7.90885 17.5625 8.24219C17.7552 8.57552 17.8516 8.94531 17.8516 9.35156C17.8516 9.75781 17.7552 10.1276 17.5625 10.4609C17.3698 10.7891 17.1094 11.0495 16.7812 11.2422C16.4531 11.4349 16.0859 11.5312 15.6797 11.5312ZM9.99219 18.6172C10.6172 18.6172 11.1875 18.4635 11.7031 18.1562C12.2188 17.849 12.6302 17.4375 12.9375 16.9219C13.2448 16.4062 13.3984 15.8359 13.3984 15.2109C13.3984 14.5911 13.2448 14.0234 12.9375 13.5078C12.6302 12.9922 12.2188 12.5807 11.7031 12.2734C11.1875 11.9661 10.6172 11.8125 9.99219 11.8125C9.36719 11.8125 8.79688 11.9661 8.28125 12.2734C7.76562 12.5807 7.35417 12.9922 7.04688 13.5078C6.73958 14.0234 6.58594 14.5911 6.58594 15.2109C6.58594 15.8359 6.73958 16.4062 7.04688 16.9219C7.35417 17.4375 7.76562 17.849 8.28125 18.1562C8.79688 18.4635 9.36719 18.6172 9.99219 18.6172ZM9.99219 17.3906C9.58594 17.3906 9.21615 17.2943 8.88281 17.1016C8.55469 16.9089 8.29167 16.6484 8.09375 16.3203C7.90104 15.9922 7.80469 15.6224 7.80469 15.2109C7.80469 14.8047 7.90104 14.4349 8.09375 14.1016C8.29167 13.7682 8.55469 13.5026 8.88281 13.3047C9.21615 13.1068 9.58594 13.0078 9.99219 13.0078C10.4036 13.0078 10.7734 13.1068 11.1016 13.3047C11.4297 13.5026 11.6901 13.7682 11.8828 14.1016C12.0755 14.4349 12.1719 14.8047 12.1719 15.2109C12.1719 15.6224 12.0755 15.9922 11.8828 16.3203C11.6901 16.6484 11.4297 16.9089 11.1016 17.1016C10.7734 17.2943 10.4036 17.3906 9.99219 17.3906ZM4.32031 12.7578C4.94531 12.7578 5.51302 12.6042 6.02344 12.2969C6.53906 11.9844 6.95052 11.5703 7.25781 11.0547C7.57031 10.5391 7.72656 9.97135 7.72656 9.35156C7.72656 8.73177 7.57031 8.16406 7.25781 7.64844C6.95052 7.13281 6.53906 6.72135 6.02344 6.41406C5.51302 6.10677 4.94531 5.95312 4.32031 5.95312C3.69531 5.95312 3.125 6.10677 2.60938 6.41406C2.09375 6.72135 1.68229 7.13281 1.375 7.64844C1.06771 8.16406 0.914062 8.73177 0.914062 9.35156C0.914062 9.97135 1.06771 10.5391 1.375 11.0547C1.68229 11.5703 2.09375 11.9844 2.60938 12.2969C3.125 12.6042 3.69531 12.7578 4.32031 12.7578Z" fill="white"/>
</svg>
