<svg width="130" height="121" viewBox="0 0 130 121" fill="none" xmlns="http://www.w3.org/2000/svg">
<path d="M42.125 38.75C45.5833 38.75 48.75 37.8958 51.625 36.1875C54.5 34.4792 56.7917 32.1875 58.5 29.3125C60.25 26.4375 61.125 23.2708 61.125 19.8125C61.125 16.3542 60.25 13.1875 58.5 10.3125C56.7917 7.4375 54.5 5.14583 51.625 3.4375C48.75 1.6875 45.5833 0.8125 42.125 0.8125C38.6667 0.8125 35.5 1.6875 32.625 3.4375C29.75 5.14583 27.4375 7.4375 25.6875 10.3125C23.9792 13.1875 23.125 16.3542 23.125 19.8125C23.125 23.2292 23.9792 26.375 25.6875 29.25C27.3958 32.125 29.6875 34.4375 32.5625 36.1875C35.4375 37.8958 38.625 38.75 42.125 38.75ZM87.9375 38.75C91.3958 38.75 94.5625 37.8958 97.4375 36.1875C100.354 34.4792 102.667 32.1875 104.375 29.3125C106.125 26.4375 107 23.2708 107 19.8125C107 16.3542 106.125 13.1875 104.375 10.3125C102.667 7.4375 100.354 5.14583 97.4375 3.4375C94.5625 1.6875 91.3958 0.8125 87.9375 0.8125C84.4792 0.8125 81.3125 1.6875 78.4375 3.4375C75.5625 5.14583 73.25 7.4375 71.5 10.3125C69.7917 13.1875 68.9375 16.3542 68.9375 19.8125C68.9375 23.2708 69.7917 26.4375 71.5 29.3125C73.25 32.1875 75.5625 34.4792 78.4375 36.1875C81.3125 37.8958 84.4792 38.75 87.9375 38.75ZM19.1875 79.875C22.6458 79.875 25.8125 79.0208 28.6875 77.3125C31.6042 75.5625 33.9167 73.25 35.625 70.375C37.375 67.5 38.25 64.3333 38.25 60.875C38.25 57.4167 37.375 54.25 35.625 51.375C33.9167 48.4583 31.6042 46.1458 28.6875 44.4375C25.8125 42.7292 22.6458 41.875 19.1875 41.875C15.7292 41.875 12.5625 42.7292 9.6875 44.4375C6.8125 46.1458 4.5 48.4583 2.75 51.375C1.04167 54.25 0.1875 57.4167 0.1875 60.875C0.1875 64.2917 1.04167 67.4583 2.75 70.375C4.45833 73.25 6.75 75.5625 9.625 77.3125C12.5417 79.0208 15.7292 79.875 19.1875 79.875ZM110.875 79.875C114.333 79.875 117.5 79.0208 120.375 77.3125C123.25 75.5625 125.542 73.25 127.25 70.375C129 67.5 129.875 64.3333 129.875 60.875C129.875 57.4167 129 54.25 127.25 51.375C125.542 48.4583 123.25 46.1458 120.375 44.4375C117.5 42.7292 114.333 41.875 110.875 41.875C107.417 41.875 104.229 42.7292 101.312 44.4375C98.4375 46.1458 96.125 48.4583 94.375 51.375C92.6667 54.25 91.8125 57.4167 91.8125 60.875C91.8125 64.3333 92.6667 67.5 94.375 70.375C96.125 73.25 98.4375 75.5625 101.312 77.3125C104.229 79.0208 107.417 79.875 110.875 79.875ZM42.125 120.938C45.5833 120.938 48.75 120.062 51.625 118.312C54.5 116.604 56.7917 114.312 58.5 111.438C60.25 108.562 61.125 105.396 61.125 101.938C61.125 98.4792 60.25 95.3125 58.5 92.4375C56.7917 89.5625 54.5 87.2708 51.625 85.5625C48.75 83.8125 45.5833 82.9375 42.125 82.9375C38.6667 82.9375 35.5 83.8125 32.625 85.5625C29.75 87.2708 27.4375 89.5625 25.6875 92.4375C23.9792 95.3125 23.125 98.4792 23.125 101.938C23.125 105.354 23.9792 108.5 25.6875 111.375C27.3958 114.292 29.6875 116.604 32.5625 118.312C35.4375 120.062 38.625 120.938 42.125 120.938ZM87.9375 120.938C91.3958 120.938 94.5625 120.062 97.4375 118.312C100.354 116.604 102.667 114.312 104.375 111.438C106.125 108.562 107 105.396 107 101.938C107 98.4792 106.125 95.3125 104.375 92.4375C102.667 89.5625 100.354 87.2708 97.4375 85.5625C94.5625 83.8125 91.3958 82.9375 87.9375 82.9375C84.4792 82.9375 81.3125 83.8125 78.4375 85.5625C75.5625 87.2708 73.25 89.5625 71.5 92.4375C69.7917 95.3125 68.9375 98.4792 68.9375 101.938C68.9375 105.396 69.7917 108.562 71.5 111.438C73.25 114.312 75.5625 116.604 78.4375 118.312C81.3125 120.062 84.4792 120.938 87.9375 120.938Z" fill="white"/>
</svg>
