<?xml version="1.0" encoding="UTF-8"?>
<svg xmlns="http://www.w3.org/2000/svg" xmlns:xlink="http://www.w3.org/1999/xlink" width="24" height="22.8" viewBox="0 0 24 22.8" version="1.1">
<g id="surface1">
<path style=" stroke:none;fill-rule:nonzero;fill:rgb(100%,100%,100%);fill-opacity:1;" d="M 5.183594 15.308594 C 5.933594 15.308594 6.617188 15.125 7.226562 14.757812 C 7.847656 14.382812 8.339844 13.882812 8.710938 13.265625 C 9.085938 12.648438 9.273438 11.964844 9.273438 11.222656 C 9.273438 10.476562 9.085938 9.796875 8.710938 9.179688 C 8.339844 8.558594 7.847656 8.066406 7.226562 7.695312 C 6.617188 7.328125 5.933594 7.144531 5.183594 7.144531 C 4.433594 7.144531 3.75 7.328125 3.132812 7.695312 C 2.511719 8.066406 2.019531 8.558594 1.648438 9.179688 C 1.28125 9.796875 1.097656 10.476562 1.097656 11.222656 C 1.097656 11.964844 1.28125 12.648438 1.648438 13.265625 C 2.019531 13.882812 2.511719 14.382812 3.132812 14.757812 C 3.75 15.125 4.433594 15.308594 5.183594 15.308594 Z M 11.992188 8.277344 C 12.742188 8.277344 13.425781 8.09375 14.042969 7.726562 C 14.664062 7.351562 15.15625 6.851562 15.523438 6.234375 C 15.894531 5.617188 16.078125 4.933594 16.078125 4.191406 C 16.078125 3.441406 15.894531 2.757812 15.523438 2.148438 C 15.15625 1.527344 14.664062 1.035156 14.042969 0.664062 C 13.425781 0.296875 12.742188 0.113281 11.992188 0.113281 C 11.242188 0.113281 10.554688 0.296875 9.9375 0.664062 C 9.320312 1.035156 8.824219 1.527344 8.457031 2.148438 C 8.085938 2.757812 7.902344 3.441406 7.902344 4.191406 C 7.902344 4.933594 8.085938 5.617188 8.457031 6.234375 C 8.824219 6.851562 9.320312 7.351562 9.9375 7.726562 C 10.554688 8.09375 11.242188 8.277344 11.992188 8.277344 Z M 18.816406 15.308594 C 19.558594 15.308594 20.242188 15.125 20.859375 14.757812 C 21.476562 14.382812 21.972656 13.882812 22.339844 13.265625 C 22.710938 12.648438 22.894531 11.964844 22.894531 11.222656 C 22.894531 10.476562 22.710938 9.796875 22.339844 9.179688 C 21.972656 8.558594 21.476562 8.066406 20.859375 7.695312 C 20.242188 7.328125 19.558594 7.144531 18.816406 7.144531 C 18.058594 7.144531 17.371094 7.328125 16.753906 7.695312 C 16.132812 8.066406 15.640625 8.558594 15.273438 9.179688 C 14.902344 9.796875 14.71875 10.476562 14.71875 11.222656 C 14.71875 11.964844 14.902344 12.648438 15.273438 13.265625 C 15.640625 13.882812 16.132812 14.382812 16.753906 14.757812 C 17.371094 15.125 18.058594 15.308594 18.816406 15.308594 Z M 11.992188 22.339844 C 12.742188 22.339844 13.425781 22.15625 14.042969 21.789062 C 14.664062 21.417969 15.15625 20.925781 15.523438 20.304688 C 15.894531 19.6875 16.078125 19.003906 16.078125 18.253906 C 16.078125 17.507812 15.894531 16.828125 15.523438 16.210938 C 15.15625 15.589844 14.664062 15.097656 14.042969 14.726562 C 13.425781 14.359375 12.742188 14.175781 11.992188 14.175781 C 11.242188 14.175781 10.554688 14.359375 9.9375 14.726562 C 9.320312 15.097656 8.824219 15.589844 8.457031 16.210938 C 8.085938 16.828125 7.902344 17.507812 7.902344 18.253906 C 7.902344 19.003906 8.085938 19.6875 8.457031 20.304688 C 8.824219 20.925781 9.320312 21.417969 9.9375 21.789062 C 10.554688 22.15625 11.242188 22.339844 11.992188 22.339844 Z M 11.992188 22.339844 "/>
</g>
</svg>
