<svg xmlns="http://www.w3.org/2000/svg" width="24" height="24"><path style="stroke:none;fill-rule:nonzero;fill:#fff;fill-opacity:1" d="M12 23.05c1.633 0 3.168-.292 4.605-.882a12.22 12.22 0 0 0 3.82-2.438 11.467 11.467 0 0 0 2.59-3.582c.626-1.363.938-2.808.938-4.347a10.2 10.2 0 0 0-.937-4.332 11.53 11.53 0 0 0-2.59-3.598 12.361 12.361 0 0 0-3.82-2.437A12.166 12.166 0 0 0 11.987.55c-1.633 0-3.172.293-4.617.883A12.307 12.307 0 0 0 3.562 3.87 11.523 11.523 0 0 0 .985 7.465 10.2 10.2 0 0 0 .047 11.8c0 1.539.312 2.984.937 4.347a11.467 11.467 0 0 0 2.59 3.582 12.236 12.236 0 0 0 3.809 2.438c1.445.59 2.984.883 4.617.883Zm0-1.874a10.222 10.222 0 0 1-7.055-2.734 9.548 9.548 0 0 1-2.133-2.989 8.83 8.83 0 0 1-.761-3.652c0-1.301.254-2.52.761-3.649A9.52 9.52 0 0 1 4.946 5.16 9.82 9.82 0 0 1 8.11 3.156c1.204-.488 2.496-.73 3.88-.73 1.382 0 2.675.242 3.878.73a9.701 9.701 0 0 1 3.176 2.004 9.432 9.432 0 0 1 2.145 2.992 8.685 8.685 0 0 1 .773 3.649c0 1.3-.258 2.52-.773 3.652a9.22 9.22 0 0 1-2.133 2.988A10.222 10.222 0 0 1 12 21.176Zm-.023-1.688a8.58 8.58 0 0 0 3.199-.593c1.969-.778 3.535-2.254 4.36-4.106.425-.95.636-1.969.62-3 0-1.07-.21-2.074-.633-3a7.666 7.666 0 0 0-1.757-2.45 8.274 8.274 0 0 0-2.614-1.652 8.367 8.367 0 0 0-3.187-.593 8.443 8.443 0 0 0-3.188.593 8.132 8.132 0 0 0-2.601 1.645A7.827 7.827 0 0 0 4.43 8.789a7.323 7.323 0 0 0-.621 3c0 1.074.21 2.078.632 3.012a7.751 7.751 0 0 0 1.747 2.449 8.43 8.43 0 0 0 2.601 1.645 8.52 8.52 0 0 0 3.188.593Zm0 0"/></svg>