<svg width="18" height="17" viewBox="0 0 18 17" fill="none" xmlns="http://www.w3.org/2000/svg">
<path d="M3.24219 5.26562C3.65885 5.26562 4.03906 5.16406 4.38281 4.96094C4.72656 4.7526 5 4.47656 5.20312 4.13281C5.41146 3.78385 5.51562 3.40365 5.51562 2.99219C5.51562 2.57552 5.41146 2.19531 5.20312 1.85156C5 1.5026 4.72656 1.22396 4.38281 1.01562C4.03906 0.807292 3.65885 0.703125 3.24219 0.703125C2.82552 0.703125 2.44271 0.807292 2.09375 1.01562C1.75 1.22396 1.47396 1.5026 1.26562 1.85156C1.0625 2.19531 0.960938 2.57552 0.960938 2.99219C0.960938 3.40365 1.0625 3.78385 1.26562 4.13281C1.47396 4.47656 1.75 4.7526 2.09375 4.96094C2.44271 5.16406 2.82552 5.26562 3.24219 5.26562ZM3.24219 4.10938C3.02865 4.10938 2.83594 4.0599 2.66406 3.96094C2.49219 3.85677 2.35677 3.72135 2.25781 3.55469C2.15885 3.38281 2.10938 3.19271 2.10938 2.98438C2.10938 2.77083 2.15885 2.57812 2.25781 2.40625C2.35677 2.23438 2.49219 2.09896 2.66406 2C2.83594 1.89583 3.02865 1.84375 3.24219 1.84375C3.45573 1.84375 3.64583 1.89583 3.8125 2C3.98438 2.09896 4.11979 2.23438 4.21875 2.40625C4.32292 2.57812 4.375 2.77083 4.375 2.98438C4.375 3.19271 4.32292 3.38281 4.21875 3.55469C4.11979 3.72135 3.98438 3.85677 3.8125 3.96094C3.64583 4.0599 3.45573 4.10938 3.24219 4.10938ZM9 5.27344C9.41667 5.27344 9.79688 5.16927 10.1406 4.96094C10.4844 4.7526 10.7604 4.47656 10.9688 4.13281C11.1771 3.78385 11.2812 3.40104 11.2812 2.98438C11.2812 2.5625 11.1771 2.17969 10.9688 1.83594C10.7604 1.49219 10.4844 1.21875 10.1406 1.01562C9.79688 0.807292 9.41667 0.703125 9 0.703125C8.58333 0.708333 8.20052 0.8125 7.85156 1.01562C7.50781 1.21875 7.23177 1.49219 7.02344 1.83594C6.8151 2.17969 6.71094 2.5625 6.71094 2.98438C6.71094 3.40104 6.8151 3.78385 7.02344 4.13281C7.23177 4.47656 7.50781 4.7526 7.85156 4.96094C8.20052 5.16927 8.58333 5.27344 9 5.27344ZM9 4.10938C8.78646 4.10938 8.59375 4.0599 8.42188 3.96094C8.25 3.85677 8.11458 3.72135 8.01562 3.55469C7.91667 3.38281 7.86719 3.19271 7.86719 2.98438C7.86719 2.77083 7.91667 2.57812 8.01562 2.40625C8.11458 2.23438 8.25 2.09896 8.42188 2C8.59375 1.89583 8.78646 1.84375 9 1.84375C9.21354 1.84375 9.40365 1.89583 9.57031 2C9.74219 2.09896 9.8776 2.23438 9.97656 2.40625C10.0755 2.57812 10.125 2.77083 10.125 2.98438C10.1302 3.19271 10.0833 3.38281 9.98438 3.55469C9.88542 3.72135 9.75 3.85677 9.57812 3.96094C9.40625 4.0599 9.21354 4.10938 9 4.10938ZM14.75 5.27344C15.1719 5.27344 15.5547 5.16927 15.8984 4.96094C16.2422 4.7526 16.5156 4.47656 16.7188 4.13281C16.9271 3.78385 17.0312 3.40104 17.0312 2.98438C17.0312 2.5625 16.9271 2.17969 16.7188 1.83594C16.5156 1.49219 16.2422 1.21875 15.8984 1.01562C15.5547 0.807292 15.1719 0.703125 14.75 0.703125C14.3333 0.708333 13.9531 0.8125 13.6094 1.01562C13.2656 1.21875 12.9896 1.49219 12.7812 1.83594C12.5781 2.17969 12.4766 2.5625 12.4766 2.98438C12.4766 3.40104 12.5781 3.78385 12.7812 4.13281C12.9896 4.47656 13.2656 4.7526 13.6094 4.96094C13.9531 5.16927 14.3333 5.27344 14.75 5.27344ZM14.75 4.14844C14.5312 4.14844 14.3333 4.09635 14.1562 3.99219C13.9844 3.88802 13.849 3.7474 13.75 3.57031C13.651 3.39323 13.6016 3.19792 13.6016 2.98438C13.6016 2.76562 13.651 2.56771 13.75 2.39062C13.849 2.21354 13.9844 2.07292 14.1562 1.96875C14.3333 1.86458 14.5312 1.8125 14.75 1.8125C14.9688 1.8125 15.1667 1.86458 15.3438 1.96875C15.5208 2.07292 15.6615 2.21354 15.7656 2.39062C15.8698 2.56771 15.9219 2.76562 15.9219 2.98438C15.9219 3.19792 15.8698 3.39323 15.7656 3.57031C15.6615 3.7474 15.5208 3.88802 15.3438 3.99219C15.1667 4.09635 14.9688 4.14844 14.75 4.14844ZM3.24219 10.6484C3.65885 10.6484 4.03906 10.5443 4.38281 10.3359C4.72656 10.1276 5 9.85156 5.20312 9.50781C5.41146 9.16406 5.51562 8.78385 5.51562 8.36719C5.51562 7.95052 5.41146 7.57031 5.20312 7.22656C5 6.8776 4.72656 6.60156 4.38281 6.39844C4.03906 6.1901 3.65885 6.08854 3.24219 6.09375C2.82552 6.09375 2.44271 6.19792 2.09375 6.40625C1.75 6.60938 1.47396 6.88281 1.26562 7.22656C1.0625 7.57031 0.960938 7.95052 0.960938 8.36719C0.960938 8.78385 1.0625 9.16406 1.26562 9.50781C1.47396 9.85156 1.75 10.1276 2.09375 10.3359C2.44271 10.5443 2.82552 10.6484 3.24219 10.6484ZM3.24219 9.53125C3.02344 9.53125 2.82552 9.47917 2.64844 9.375C2.47135 9.27083 2.33073 9.13021 2.22656 8.95312C2.1276 8.77604 2.07812 8.57812 2.07812 8.35938C2.07812 8.14583 2.1276 7.95052 2.22656 7.77344C2.33073 7.59635 2.47135 7.45573 2.64844 7.35156C2.82552 7.24219 3.02344 7.1875 3.24219 7.1875C3.46094 7.1875 3.65625 7.24219 3.82812 7.35156C4.00521 7.45573 4.14323 7.59635 4.24219 7.77344C4.34635 7.95052 4.39844 8.14583 4.39844 8.35938C4.39844 8.57812 4.34635 8.77604 4.24219 8.95312C4.14323 9.13021 4.00521 9.27083 3.82812 9.375C3.65625 9.47917 3.46094 9.53125 3.24219 9.53125ZM9 10.6484C9.41667 10.6484 9.79688 10.5443 10.1406 10.3359C10.4844 10.1276 10.7604 9.85156 10.9688 9.50781C11.1771 9.16406 11.2812 8.78385 11.2812 8.36719C11.2812 7.95052 11.1771 7.57031 10.9688 7.22656C10.7604 6.8776 10.4844 6.60156 10.1406 6.39844C9.79688 6.1901 9.41667 6.08854 9 6.09375C8.58333 6.09375 8.20052 6.19792 7.85156 6.40625C7.50781 6.60938 7.23177 6.88281 7.02344 7.22656C6.8151 7.57031 6.71094 7.95052 6.71094 8.36719C6.71094 8.78385 6.8151 9.16406 7.02344 9.50781C7.23177 9.85156 7.50781 10.1276 7.85156 10.3359C8.20052 10.5443 8.58333 10.6484 9 10.6484ZM9 9.53125C8.78125 9.53125 8.58333 9.47917 8.40625 9.375C8.22917 9.27083 8.08854 9.13021 7.98438 8.95312C7.88021 8.77604 7.82812 8.57812 7.82812 8.35938C7.82812 8.14583 7.88021 7.95052 7.98438 7.77344C8.08854 7.59635 8.22917 7.45573 8.40625 7.35156C8.58333 7.24219 8.78125 7.1875 9 7.1875C9.21875 7.1875 9.41406 7.24219 9.58594 7.35156C9.76302 7.45573 9.90365 7.59635 10.0078 7.77344C10.112 7.95052 10.1641 8.14583 10.1641 8.35938C10.1641 8.57812 10.112 8.77604 10.0078 8.95312C9.90365 9.13021 9.76302 9.27083 9.58594 9.375C9.41406 9.47917 9.21875 9.53125 9 9.53125ZM14.75 10.6484C15.1719 10.6484 15.5547 10.5443 15.8984 10.3359C16.2422 10.1276 16.5156 9.85156 16.7188 9.50781C16.9271 9.16406 17.0312 8.78385 17.0312 8.36719C17.0312 7.95052 16.9271 7.57031 16.7188 7.22656C16.5156 6.8776 16.2422 6.60156 15.8984 6.39844C15.5547 6.1901 15.1719 6.08854 14.75 6.09375C14.3333 6.09375 13.9531 6.19792 13.6094 6.40625C13.2656 6.60938 12.9896 6.88281 12.7812 7.22656C12.5781 7.57031 12.4766 7.95052 12.4766 8.36719C12.4766 8.78385 12.5781 9.16406 12.7812 9.50781C12.9896 9.85156 13.2656 10.1276 13.6094 10.3359C13.9531 10.5443 14.3333 10.6484 14.75 10.6484ZM14.75 9.53125C14.5312 9.53125 14.3333 9.47917 14.1562 9.375C13.9844 9.27083 13.849 9.13021 13.75 8.95312C13.651 8.77604 13.6016 8.57812 13.6016 8.35938C13.6016 8.14583 13.651 7.95052 13.75 7.77344C13.849 7.59635 13.9844 7.45573 14.1562 7.35156C14.3333 7.24219 14.5312 7.1875 14.75 7.1875C14.9688 7.1875 15.1667 7.24219 15.3438 7.35156C15.5208 7.45573 15.6615 7.59635 15.7656 7.77344C15.8698 7.95052 15.9219 8.14583 15.9219 8.35938C15.9219 8.57812 15.8698 8.77604 15.7656 8.95312C15.6615 9.13021 15.5208 9.27083 15.3438 9.375C15.1667 9.47917 14.9688 9.53125 14.75 9.53125ZM3.24219 16.0312C3.65885 16.0312 4.03906 15.9271 4.38281 15.7188C4.72656 15.5104 5 15.2344 5.20312 14.8906C5.41146 14.5469 5.51562 14.1667 5.51562 13.75C5.51562 13.3333 5.41146 12.9531 5.20312 12.6094C5 12.2604 4.72656 11.9844 4.38281 11.7812C4.03906 11.5729 3.65885 11.4688 3.24219 11.4688C2.82552 11.4688 2.44271 11.5729 2.09375 11.7812C1.75 11.9844 1.47396 12.2604 1.26562 12.6094C1.0625 12.9531 0.960938 13.3333 0.960938 13.75C0.960938 14.1667 1.0625 14.5469 1.26562 14.8906C1.47396 15.2344 1.75 15.5104 2.09375 15.7188C2.44271 15.9271 2.82552 16.0312 3.24219 16.0312ZM3.24219 14.9141C3.02344 14.9141 2.82552 14.862 2.64844 14.7578C2.47135 14.6536 2.33073 14.513 2.22656 14.3359C2.1276 14.1589 2.07812 13.9609 2.07812 13.7422C2.07812 13.5286 2.1276 13.3333 2.22656 13.1562C2.33073 12.9792 2.47135 12.8385 2.64844 12.7344C2.82552 12.625 3.02344 12.5703 3.24219 12.5703C3.46094 12.5703 3.65625 12.625 3.82812 12.7344C4.00521 12.8385 4.14323 12.9792 4.24219 13.1562C4.34635 13.3333 4.39844 13.5286 4.39844 13.7422C4.39844 13.9609 4.34635 14.1589 4.24219 14.3359C4.14323 14.513 4.00521 14.6536 3.82812 14.7578C3.65625 14.862 3.46094 14.9141 3.24219 14.9141ZM9 16.0312C9.41667 16.0312 9.79688 15.9271 10.1406 15.7188C10.4844 15.5104 10.7604 15.2344 10.9688 14.8906C11.1771 14.5469 11.2812 14.1667 11.2812 13.75C11.2812 13.3333 11.1771 12.9531 10.9688 12.6094C10.7604 12.2604 10.4844 11.9844 10.1406 11.7812C9.79688 11.5729 9.41667 11.4688 9 11.4688C8.58333 11.4688 8.20052 11.5729 7.85156 11.7812C7.50781 11.9844 7.23177 12.2604 7.02344 12.6094C6.8151 12.9531 6.71094 13.3333 6.71094 13.75C6.71094 14.1667 6.8151 14.5469 7.02344 14.8906C7.23177 15.2344 7.50781 15.5104 7.85156 15.7188C8.20052 15.9271 8.58333 16.0312 9 16.0312ZM9 14.9141C8.78125 14.9141 8.58333 14.862 8.40625 14.7578C8.22917 14.6536 8.08854 14.513 7.98438 14.3359C7.88021 14.1589 7.82812 13.9609 7.82812 13.7422C7.82812 13.5286 7.88021 13.3333 7.98438 13.1562C8.08854 12.9792 8.22917 12.8385 8.40625 12.7344C8.58333 12.625 8.78125 12.5703 9 12.5703C9.21875 12.5703 9.41406 12.625 9.58594 12.7344C9.76302 12.8385 9.90365 12.9792 10.0078 13.1562C10.112 13.3333 10.1641 13.5286 10.1641 13.7422C10.1641 13.9609 10.112 14.1589 10.0078 14.3359C9.90365 14.513 9.76302 14.6536 9.58594 14.7578C9.41406 14.862 9.21875 14.9141 9 14.9141ZM14.75 16.0312C15.1719 16.0312 15.5547 15.9271 15.8984 15.7188C16.2422 15.5104 16.5156 15.2344 16.7188 14.8906C16.9271 14.5469 17.0312 14.1667 17.0312 13.75C17.0312 13.3333 16.9271 12.9531 16.7188 12.6094C16.5156 12.2604 16.2422 11.9844 15.8984 11.7812C15.5547 11.5729 15.1719 11.4688 14.75 11.4688C14.3333 11.4688 13.9531 11.5729 13.6094 11.7812C13.2656 11.9844 12.9896 12.2604 12.7812 12.6094C12.5781 12.9531 12.4766 13.3333 12.4766 13.75C12.4766 14.1667 12.5781 14.5469 12.7812 14.8906C12.9896 15.2344 13.2656 15.5104 13.6094 15.7188C13.9531 15.9271 14.3333 16.0312 14.75 16.0312ZM14.75 14.9141C14.5312 14.9141 14.3333 14.862 14.1562 14.7578C13.9844 14.6536 13.849 14.513 13.75 14.3359C13.651 14.1589 13.6016 13.9609 13.6016 13.7422C13.6016 13.5286 13.651 13.3333 13.75 13.1562C13.849 12.9792 13.9844 12.8385 14.1562 12.7344C14.3333 12.625 14.5312 12.5703 14.75 12.5703C14.9688 12.5703 15.1667 12.625 15.3438 12.7344C15.5208 12.8385 15.6615 12.9792 15.7656 13.1562C15.8698 13.3333 15.9219 13.5286 15.9219 13.7422C15.9219 13.9609 15.8698 14.1589 15.7656 14.3359C15.6615 14.513 15.5208 14.6536 15.3438 14.7578C15.1667 14.862 14.9688 14.9141 14.75 14.9141Z" fill="white"/>
</svg>
