<svg xmlns="http://www.w3.org/2000/svg" width="24" height="24"><path style="stroke:none;fill-rule:nonzero;fill:#fff;fill-opacity:1" d="M12 23.05c1.633 0 3.168-.292 4.605-.882a12.22 12.22 0 0 0 3.82-2.438 11.467 11.467 0 0 0 2.59-3.582c.626-1.363.938-2.808.938-4.347a10.2 10.2 0 0 0-.937-4.332 11.53 11.53 0 0 0-2.59-3.598 12.361 12.361 0 0 0-3.82-2.437A12.166 12.166 0 0 0 11.987.55c-1.633 0-3.172.293-4.617.883A12.307 12.307 0 0 0 3.562 3.87 11.523 11.523 0 0 0 .985 7.465 10.2 10.2 0 0 0 .047 11.8c0 1.539.312 2.984.937 4.347a11.467 11.467 0 0 0 2.59 3.582 12.236 12.236 0 0 0 3.809 2.438c1.445.59 2.984.883 4.617.883Zm0-1.874a10.222 10.222 0 0 1-7.055-2.734 9.548 9.548 0 0 1-2.133-2.989 8.83 8.83 0 0 1-.761-3.652c0-1.301.254-2.52.761-3.649A9.52 9.52 0 0 1 4.946 5.16 9.82 9.82 0 0 1 8.11 3.156c1.204-.488 2.496-.73 3.88-.73 1.382 0 2.675.242 3.878.73a9.701 9.701 0 0 1 3.176 2.004 9.432 9.432 0 0 1 2.145 2.992 8.685 8.685 0 0 1 .773 3.649c0 1.3-.258 2.52-.773 3.652a9.22 9.22 0 0 1-2.133 2.988A10.222 10.222 0 0 1 12 21.176ZM9.492 9.484c.555 0 1.031-.187 1.43-.562.394-.352.613-.844.61-1.356 0-.527-.204-.98-.61-1.355a2 2 0 0 0-1.43-.563c-.555 0-1.035.188-1.441.563a1.79 1.79 0 0 0-.598 1.355c0 .524.2.973.598 1.356.398.375.879.562 1.441.562Zm5.004 0c.563 0 1.043-.187 1.441-.562.387-.356.602-.844.598-1.356 0-.527-.2-.98-.598-1.355a2.028 2.028 0 0 0-1.44-.563c-.556 0-1.036.188-1.442.563a1.804 1.804 0 0 0-.598 1.355c0 .524.2.973.598 1.356.379.363.902.566 1.441.562Zm-7.5 4.227c.547 0 1.02-.188 1.418-.563a1.81 1.81 0 0 0 .61-1.359c.003-.512-.215-1-.61-1.355a1.977 1.977 0 0 0-1.418-.575c-.562 0-1.047.192-1.453.575a1.825 1.825 0 0 0-.598 1.355c0 .524.2.977.598 1.36.398.374.883.562 1.453.562Zm5.004 0a2.04 2.04 0 0 0 1.43-.563 1.81 1.81 0 0 0 .61-1.359c.003-.512-.216-1-.61-1.355A2.017 2.017 0 0 0 12 9.859a2.032 2.032 0 0 0-1.441.575 1.802 1.802 0 0 0-.61 1.355c0 .524.203.977.61 1.36.379.363.898.566 1.441.562Zm5.004 0c.555 0 1.031-.188 1.43-.563a1.81 1.81 0 0 0 .609-1.359c.004-.512-.215-1-.61-1.355a2.004 2.004 0 0 0-1.43-.575 2.032 2.032 0 0 0-1.44.575 1.825 1.825 0 0 0-.598 1.355c0 .524.2.977.598 1.36.378.363.898.566 1.44.562Zm-7.512 4.223c.555 0 1.031-.188 1.43-.563.394-.351.613-.844.61-1.355 0-.524-.204-.973-.61-1.348a2.004 2.004 0 0 0-1.43-.574 2.032 2.032 0 0 0-1.441.574c-.387.352-.606.84-.598 1.348 0 .52.2.972.598 1.355.398.375.879.563 1.441.563Zm5.004 0c.563 0 1.043-.188 1.441-.563.387-.355.602-.848.598-1.355 0-.524-.2-.973-.598-1.348a2.025 2.025 0 0 0-1.44-.574 2.032 2.032 0 0 0-1.442.574c-.387.352-.606.84-.598 1.348 0 .52.2.972.598 1.355.379.363.898.567 1.441.563Zm0 0"/></svg>