<svg width="128" height="128" viewBox="0 0 128 128" fill="none" xmlns="http://www.w3.org/2000/svg">
<path d="M63.9375 127.625C72.6458 127.625 80.8333 125.958 88.5 122.625C96.2083 119.292 103 114.688 108.875 108.812C114.75 102.938 119.354 96.1667 122.688 88.5C126.021 80.7917 127.688 72.5833 127.688 63.875C127.688 55.1667 126.021 46.9792 122.688 39.3125C119.354 31.6042 114.75 24.8125 108.875 18.9375C103.042 13.0625 96.2708 8.45833 88.5625 5.125C80.8542 1.79167 72.6458 0.125 63.9375 0.125C55.2292 0.125 47.0208 1.79167 39.3125 5.125C31.6458 8.45833 24.875 13.0625 19 18.9375C13.125 24.8125 8.52083 31.6042 5.1875 39.3125C1.85417 46.9792 0.1875 55.1667 0.1875 63.875C0.1875 72.5833 1.85417 80.7917 5.1875 88.5C8.52083 96.1667 13.125 102.938 19 108.812C24.875 114.688 31.6458 119.292 39.3125 122.625C47.0208 125.958 55.2292 127.625 63.9375 127.625ZM63.9375 117C56.5625 117 49.6458 115.625 43.1875 112.875C36.7708 110.125 31.125 106.333 26.25 101.5C21.4167 96.625 17.625 90.9792 14.875 84.5625C12.1667 78.1458 10.8125 71.25 10.8125 63.875C10.8125 56.5 12.1875 49.6042 14.9375 43.1875C17.6875 36.7708 21.4792 31.125 26.3125 26.25C31.1875 21.375 36.8333 17.5833 43.25 14.875C49.7083 12.125 56.6042 10.75 63.9375 10.75V117Z" fill="white"/>
</svg>
