<?xml version="1.0" encoding="UTF-8"?>
<svg xmlns="http://www.w3.org/2000/svg" xmlns:xlink="http://www.w3.org/1999/xlink" width="24" height="25.5" viewBox="0 0 24 25.5" version="1.1">
<g id="surface1">
<path style=" stroke:none;fill-rule:nonzero;fill:rgb(100%,100%,100%);fill-opacity:1;" d="M 17.238281 21 C 16.480469 21.46875 15.65625 21.835938 14.765625 22.101562 C 13.882812 22.367188 12.957031 22.5 11.988281 22.5 C 10.605469 22.5 9.3125 22.242188 8.109375 21.726562 C 6.90625 21.210938 5.847656 20.5 4.933594 19.59375 C 4.027344 18.679688 3.316406 17.621094 2.800781 16.417969 C 2.292969 15.214844 2.039062 13.921875 2.039062 12.539062 C 2.039062 11.570312 2.171875 10.644531 2.4375 9.761719 C 2.703125 8.871094 3.070312 8.046875 3.539062 7.289062 L 2.132812 5.871094 C 1.476562 6.824219 0.964844 7.867188 0.597656 9 C 0.230469 10.132812 0.046875 11.3125 0.046875 12.539062 C 0.046875 14.171875 0.359375 15.710938 0.984375 17.15625 C 1.609375 18.59375 2.472656 19.863281 3.574219 20.964844 C 4.675781 22.066406 5.945312 22.929688 7.382812 23.554688 C 8.828125 24.179688 10.367188 24.492188 12 24.492188 C 13.226562 24.492188 14.402344 24.308594 15.527344 23.941406 C 16.660156 23.582031 17.703125 23.074219 18.65625 22.417969 Z M 21.867188 19.207031 C 22.523438 18.253906 23.035156 17.210938 23.402344 16.078125 C 23.769531 14.945312 23.953125 13.765625 23.953125 12.539062 C 23.953125 10.90625 23.640625 9.371094 23.015625 7.933594 C 22.390625 6.488281 21.527344 5.214844 20.425781 4.113281 C 19.324219 3.011719 18.050781 2.148438 16.605469 1.523438 C 15.160156 0.898438 13.621094 0.585938 11.988281 0.585938 C 10.761719 0.585938 9.582031 0.769531 8.449219 1.136719 C 7.316406 1.503906 6.277344 2.015625 5.332031 2.671875 L 6.75 4.078125 C 7.5 3.601562 8.316406 3.234375 9.199219 2.976562 C 10.082031 2.710938 11.007812 2.578125 11.976562 2.578125 C 13.359375 2.578125 14.652344 2.835938 15.855469 3.351562 C 17.058594 3.859375 18.117188 4.570312 19.03125 5.484375 C 19.945312 6.398438 20.660156 7.457031 21.175781 8.660156 C 21.691406 9.863281 21.949219 11.15625 21.949219 12.539062 C 21.949219 13.507812 21.816406 14.4375 21.550781 15.328125 C 21.292969 16.210938 20.925781 17.03125 20.449219 17.789062 Z M 22.101562 23.941406 C 22.28125 24.121094 22.496094 24.207031 22.746094 24.199219 C 22.996094 24.199219 23.207031 24.109375 23.378906 23.929688 C 23.550781 23.75 23.636719 23.535156 23.636719 23.285156 C 23.644531 23.042969 23.558594 22.832031 23.378906 22.652344 L 1.886719 1.160156 C 1.707031 0.980469 1.492188 0.890625 1.242188 0.890625 C 0.992188 0.890625 0.777344 0.980469 0.597656 1.160156 C 0.425781 1.332031 0.339844 1.546875 0.339844 1.804688 C 0.339844 2.054688 0.425781 2.265625 0.597656 2.4375 Z M 22.101562 23.941406 "/>
</g>
</svg>
