<svg width="20" height="15" viewBox="0 0 20 15" fill="none" xmlns="http://www.w3.org/2000/svg">
<path d="M9.96875 11.7188C10.5677 11.7188 11.1302 11.6068 11.6562 11.3828C12.1823 11.1536 12.6432 10.8411 13.0391 10.4453C13.4401 10.0443 13.7526 9.58333 13.9766 9.0625C14.2005 8.53646 14.3125 7.97135 14.3125 7.36719C14.3125 6.76823 14.2005 6.20573 13.9766 5.67969C13.7526 5.15365 13.4401 4.69271 13.0391 4.29688C12.6432 3.89583 12.1823 3.58333 11.6562 3.35938C11.1302 3.13542 10.5677 3.02344 9.96875 3.02344C9.36458 3.02344 8.79948 3.13542 8.27344 3.35938C7.7526 3.58333 7.29167 3.89583 6.89062 4.29688C6.49479 4.69271 6.18229 5.15365 5.95312 5.67969C5.72917 6.20573 5.61719 6.76823 5.61719 7.36719C5.61719 7.97135 5.72917 8.53646 5.95312 9.0625C6.18229 9.58333 6.49479 10.0443 6.89062 10.4453C7.29167 10.8411 7.7526 11.1536 8.27344 11.3828C8.79948 11.6068 9.36458 11.7188 9.96875 11.7188ZM9.96875 10.7109C9.34896 10.7109 8.78646 10.5625 8.28125 10.2656C7.77604 9.96354 7.3724 9.5599 7.07031 9.05469C6.77344 8.54948 6.625 7.98698 6.625 7.36719C6.625 6.7474 6.77344 6.1875 7.07031 5.6875C7.3724 5.18229 7.77604 4.78125 8.28125 4.48438C8.78646 4.18229 9.34896 4.03125 9.96875 4.03125C10.5885 4.03125 11.151 4.18229 11.6562 4.48438C12.1615 4.78125 12.5625 5.18229 12.8594 5.6875C13.1562 6.1875 13.3047 6.7474 13.3047 7.36719C13.3047 7.98698 13.1562 8.54948 12.8594 9.05469C12.5625 9.5599 12.1615 9.96354 11.6562 10.2656C11.151 10.5625 10.5885 10.7109 9.96875 10.7109ZM0.789062 4.29688H2.04688V2.66406C2.04688 2.25781 2.15104 1.95312 2.35938 1.75C2.56771 1.54167 2.86719 1.4375 3.25781 1.4375H4.875V0.179688H3.24219C2.42448 0.179688 1.8099 0.382812 1.39844 0.789062C0.992188 1.1901 0.789062 1.79427 0.789062 2.60156V4.29688ZM0.789062 9.375H2.04688V5.36719H0.789062V9.375ZM3.24219 14.5625H4.875V13.3047H3.25781C2.86719 13.3047 2.56771 13.2031 2.35938 13C2.15104 12.7917 2.04688 12.4844 2.04688 12.0781V10.4453H0.789062V12.1406C0.789062 12.9479 0.992188 13.5521 1.39844 13.9531C1.8099 14.3594 2.42448 14.5625 3.24219 14.5625ZM5.94531 14.5625H9.46875V13.3047H5.94531V14.5625ZM10.5312 14.5625H14.0547V13.3047H10.5312V14.5625ZM16.7578 14.5625C17.5755 14.5625 18.1875 14.3594 18.5938 13.9531C19.0052 13.5521 19.2109 12.9479 19.2109 12.1406V10.4453H17.9531V12.0781C17.9531 12.4844 17.849 12.7917 17.6406 13C17.4323 13.2031 17.1328 13.3047 16.7422 13.3047H15.125V14.5625H16.7578ZM19.2109 4.29688V2.60156C19.2109 1.79427 19.0052 1.1901 18.5938 0.789062C18.1875 0.382812 17.5755 0.179688 16.7578 0.179688H15.125V1.4375H16.7422C17.1328 1.4375 17.4323 1.54167 17.6406 1.75C17.849 1.95312 17.9531 2.25781 17.9531 2.66406V4.29688H19.2109ZM19.2109 9.375V5.36719H17.9531V9.375H19.2109ZM5.94531 1.4375H9.46875V0.179688H5.94531V1.4375ZM10.5312 1.4375H14.0547V0.179688H10.5312V1.4375Z" fill="white"/>
</svg>
