<svg width="22" height="17" viewBox="0 0 22 17" fill="none" xmlns="http://www.w3.org/2000/svg">
<path d="M0.0546875 8.35938C0.0546875 8.53125 0.114583 8.67969 0.234375 8.80469C0.354167 8.92448 0.494792 8.98438 0.65625 8.98438H21.3438C21.5052 8.98438 21.6458 8.92448 21.7656 8.80469C21.8854 8.67969 21.9453 8.53125 21.9453 8.35938C21.9453 8.19271 21.8854 8.04948 21.7656 7.92969C21.6458 7.80469 21.5052 7.74219 21.3438 7.74219H0.65625C0.494792 7.74219 0.354167 7.80469 0.234375 7.92969C0.114583 8.04948 0.0546875 8.19271 0.0546875 8.35938ZM11.0078 16.3281C12.0964 16.3281 13.1198 16.1198 14.0781 15.7031C15.0417 15.2865 15.8906 14.7109 16.625 13.9766C17.3594 13.2422 17.9349 12.3958 18.3516 11.4375C18.7682 10.474 18.9766 9.44792 18.9766 8.35938C18.9766 7.27083 18.7656 6.2474 18.3438 5.28906C17.9271 4.32552 17.3516 3.47656 16.6172 2.74219C15.8828 2.00781 15.0339 1.43229 14.0703 1.01562C13.112 0.598958 12.0885 0.390625 11 0.390625C9.90625 0.390625 8.88021 0.598958 7.92188 1.01562C6.96354 1.43229 6.11719 2.00781 5.38281 2.74219C4.64844 3.47656 4.07292 4.32552 3.65625 5.28906C3.24479 6.2474 3.03906 7.27083 3.03906 8.35938C3.03906 9.44792 3.2474 10.474 3.66406 11.4375C4.08073 12.3958 4.65365 13.2422 5.38281 13.9766C6.11719 14.7109 6.96354 15.2865 7.92188 15.7031C8.88542 16.1198 9.91406 16.3281 11.0078 16.3281ZM11.0078 15C10.0859 15 9.22396 14.8281 8.42188 14.4844C7.61979 14.1406 6.91406 13.6667 6.30469 13.0625C5.70052 12.4531 5.22656 11.7474 4.88281 10.9453C4.53906 10.1432 4.36719 9.28125 4.36719 8.35938C4.36719 7.4375 4.53646 6.57552 4.875 5.77344C5.21875 4.97135 5.69271 4.26562 6.29688 3.65625C6.90625 3.04688 7.61198 2.57292 8.41406 2.23438C9.21615 1.89062 10.0781 1.71875 11 1.71875C11.9167 1.71875 12.776 1.89062 13.5781 2.23438C14.3854 2.57292 15.0938 3.04688 15.7031 3.65625C16.3125 4.26562 16.7891 4.97135 17.1328 5.77344C17.4766 6.57552 17.6484 7.4375 17.6484 8.35938C17.6484 9.28125 17.4766 10.1432 17.1328 10.9453C16.7891 11.7474 16.3125 12.4531 15.7031 13.0625C15.099 13.6667 14.3932 14.1406 13.5859 14.4844C12.7839 14.8281 11.9245 15 11.0078 15Z" fill="white"/>
</svg>
