<?xml version="1.0" encoding="UTF-8"?>
<svg xmlns="http://www.w3.org/2000/svg" xmlns:xlink="http://www.w3.org/1999/xlink" width="24" height="22.666667" viewBox="0 0 24 22.666667" version="1.1">
<g id="surface1">
<path style=" stroke:none;fill-rule:nonzero;fill:rgb(100%,100%,100%);fill-opacity:1;" d="M 8.175781 7.769531 C 8.808594 7.769531 9.390625 7.613281 9.917969 7.300781 C 10.445312 6.988281 10.863281 6.570312 11.175781 6.042969 C 11.496094 5.515625 11.65625 4.933594 11.65625 4.300781 C 11.65625 3.671875 11.496094 3.089844 11.175781 2.5625 C 10.863281 2.035156 10.445312 1.613281 9.917969 1.300781 C 9.390625 0.984375 8.808594 0.824219 8.175781 0.824219 C 7.546875 0.824219 6.964844 0.984375 6.4375 1.300781 C 5.910156 1.613281 5.484375 2.035156 5.167969 2.5625 C 4.855469 3.089844 4.699219 3.671875 4.699219 4.300781 C 4.699219 4.933594 4.855469 5.515625 5.167969 6.042969 C 5.484375 6.570312 5.910156 6.988281 6.4375 7.300781 C 6.964844 7.613281 7.546875 7.769531 8.175781 7.769531 Z M 8.175781 6.09375 C 7.851562 6.09375 7.546875 6.015625 7.269531 5.855469 C 7 5.6875 6.78125 5.46875 6.613281 5.199219 C 6.453125 4.925781 6.375 4.628906 6.375 4.300781 C 6.375 3.976562 6.453125 3.675781 6.613281 3.40625 C 6.78125 3.128906 7 2.910156 7.269531 2.75 C 7.546875 2.582031 7.851562 2.5 8.175781 2.5 C 8.503906 2.5 8.800781 2.582031 9.074219 2.75 C 9.351562 2.910156 9.570312 3.128906 9.730469 3.40625 C 9.894531 3.675781 9.980469 3.976562 9.980469 4.300781 C 9.980469 4.628906 9.894531 4.925781 9.730469 5.199219 C 9.570312 5.46875 9.351562 5.6875 9.074219 5.855469 C 8.800781 6.015625 8.503906 6.09375 8.175781 6.09375 Z M 15.8125 7.769531 C 16.445312 7.769531 17.023438 7.613281 17.550781 7.300781 C 18.078125 6.988281 18.5 6.570312 18.8125 6.042969 C 19.132812 5.515625 19.292969 4.933594 19.292969 4.300781 C 19.292969 3.671875 19.132812 3.089844 18.8125 2.5625 C 18.5 2.035156 18.078125 1.613281 17.550781 1.300781 C 17.023438 0.984375 16.445312 0.824219 15.8125 0.824219 C 15.179688 0.824219 14.601562 0.984375 14.074219 1.300781 C 13.546875 1.613281 13.121094 2.035156 12.800781 2.5625 C 12.488281 3.089844 12.332031 3.671875 12.332031 4.300781 C 12.332031 4.933594 12.488281 5.515625 12.800781 6.042969 C 13.121094 6.570312 13.546875 6.988281 14.074219 7.300781 C 14.601562 7.613281 15.179688 7.769531 15.8125 7.769531 Z M 15.8125 6.09375 C 15.484375 6.09375 15.183594 6.015625 14.90625 5.855469 C 14.636719 5.6875 14.417969 5.46875 14.25 5.199219 C 14.089844 4.925781 14.011719 4.628906 14.011719 4.300781 C 14.011719 3.976562 14.089844 3.675781 14.25 3.40625 C 14.417969 3.128906 14.636719 2.910156 14.90625 2.75 C 15.183594 2.582031 15.484375 2.5 15.8125 2.5 C 16.140625 2.5 16.4375 2.582031 16.707031 2.75 C 16.984375 2.910156 17.203125 3.128906 17.363281 3.40625 C 17.53125 3.675781 17.613281 3.976562 17.613281 4.300781 C 17.613281 4.628906 17.53125 4.925781 17.363281 5.199219 C 17.203125 5.46875 16.984375 5.6875 16.707031 5.855469 C 16.4375 6.015625 16.140625 6.09375 15.8125 6.09375 Z M 4.355469 14.625 C 4.984375 14.625 5.566406 14.46875 6.09375 14.15625 C 6.621094 13.835938 7.046875 13.414062 7.363281 12.886719 C 7.683594 12.359375 7.84375 11.777344 7.84375 11.144531 C 7.84375 10.515625 7.683594 9.933594 7.363281 9.40625 C 7.046875 8.878906 6.621094 8.457031 6.09375 8.144531 C 5.566406 7.828125 4.984375 7.667969 4.355469 7.667969 C 3.722656 7.667969 3.140625 7.828125 2.613281 8.144531 C 2.085938 8.457031 1.664062 8.878906 1.34375 9.40625 C 1.03125 9.933594 0.875 10.515625 0.875 11.144531 C 0.875 11.777344 1.03125 12.359375 1.34375 12.886719 C 1.664062 13.414062 2.085938 13.835938 2.613281 14.15625 C 3.140625 14.46875 3.722656 14.625 4.355469 14.625 Z M 4.355469 12.949219 C 4.027344 12.949219 3.726562 12.867188 3.449219 12.707031 C 3.175781 12.542969 2.957031 12.324219 2.792969 12.050781 C 2.632812 11.773438 2.550781 11.472656 2.550781 11.144531 C 2.550781 10.820312 2.632812 10.519531 2.792969 10.25 C 2.957031 9.972656 3.175781 9.753906 3.449219 9.59375 C 3.726562 9.425781 4.027344 9.34375 4.355469 9.34375 C 4.679688 9.34375 4.980469 9.425781 5.25 9.59375 C 5.527344 9.753906 5.75 9.972656 5.917969 10.25 C 6.082031 10.519531 6.167969 10.820312 6.167969 11.144531 C 6.167969 11.472656 6.082031 11.773438 5.917969 12.050781 C 5.75 12.324219 5.527344 12.542969 5.25 12.707031 C 4.980469 12.867188 4.679688 12.949219 4.355469 12.949219 Z M 19.636719 14.625 C 20.265625 14.625 20.847656 14.46875 21.375 14.15625 C 21.902344 13.835938 22.324219 13.414062 22.636719 12.886719 C 22.953125 12.359375 23.113281 11.777344 23.113281 11.144531 C 23.113281 10.515625 22.953125 9.933594 22.636719 9.40625 C 22.324219 8.878906 21.902344 8.457031 21.375 8.144531 C 20.847656 7.828125 20.265625 7.667969 19.636719 7.667969 C 19.003906 7.667969 18.421875 7.828125 17.894531 8.144531 C 17.367188 8.457031 16.945312 8.878906 16.625 9.40625 C 16.304688 9.933594 16.144531 10.515625 16.144531 11.144531 C 16.144531 11.777344 16.304688 12.359375 16.625 12.886719 C 16.945312 13.414062 17.367188 13.835938 17.894531 14.15625 C 18.421875 14.46875 19.003906 14.625 19.636719 14.625 Z M 19.636719 12.949219 C 19.308594 12.949219 19.007812 12.867188 18.730469 12.707031 C 18.457031 12.542969 18.238281 12.324219 18.074219 12.050781 C 17.90625 11.773438 17.824219 11.472656 17.824219 11.144531 C 17.824219 10.820312 17.90625 10.519531 18.074219 10.25 C 18.238281 9.972656 18.457031 9.753906 18.730469 9.59375 C 19.007812 9.425781 19.308594 9.34375 19.636719 9.34375 C 19.960938 9.34375 20.261719 9.425781 20.53125 9.59375 C 20.808594 9.753906 21.027344 9.972656 21.1875 10.25 C 21.355469 10.519531 21.4375 10.820312 21.4375 11.144531 C 21.4375 11.472656 21.355469 11.773438 21.1875 12.050781 C 21.027344 12.324219 20.808594 12.542969 20.53125 12.707031 C 20.261719 12.867188 19.960938 12.949219 19.636719 12.949219 Z M 8.175781 21.46875 C 8.808594 21.46875 9.390625 21.308594 9.917969 20.988281 C 10.445312 20.675781 10.863281 20.257812 11.175781 19.730469 C 11.496094 19.203125 11.65625 18.621094 11.65625 17.988281 C 11.65625 17.359375 11.496094 16.777344 11.175781 16.25 C 10.863281 15.722656 10.445312 15.300781 9.917969 14.988281 C 9.390625 14.671875 8.808594 14.511719 8.175781 14.511719 C 7.546875 14.511719 6.964844 14.671875 6.4375 14.988281 C 5.910156 15.300781 5.484375 15.722656 5.167969 16.25 C 4.855469 16.777344 4.699219 17.359375 4.699219 17.988281 C 4.699219 18.621094 4.855469 19.203125 5.167969 19.730469 C 5.484375 20.257812 5.910156 20.675781 6.4375 20.988281 C 6.964844 21.308594 7.546875 21.46875 8.175781 21.46875 Z M 8.175781 19.792969 C 7.851562 19.792969 7.546875 19.707031 7.269531 19.542969 C 7 19.382812 6.78125 19.164062 6.613281 18.886719 C 6.453125 18.613281 6.375 18.316406 6.375 17.988281 C 6.375 17.664062 6.453125 17.363281 6.613281 17.09375 C 6.78125 16.824219 7 16.605469 7.269531 16.4375 C 7.546875 16.269531 7.851562 16.1875 8.175781 16.1875 C 8.503906 16.1875 8.800781 16.269531 9.074219 16.4375 C 9.351562 16.605469 9.570312 16.824219 9.730469 17.09375 C 9.894531 17.363281 9.980469 17.664062 9.980469 17.988281 C 9.980469 18.316406 9.894531 18.613281 9.730469 18.886719 C 9.570312 19.164062 9.351562 19.382812 9.074219 19.542969 C 8.800781 19.707031 8.503906 19.792969 8.175781 19.792969 Z M 15.8125 21.46875 C 16.445312 21.46875 17.023438 21.308594 17.550781 20.988281 C 18.078125 20.675781 18.5 20.257812 18.8125 19.730469 C 19.132812 19.203125 19.292969 18.621094 19.292969 17.988281 C 19.292969 17.359375 19.132812 16.777344 18.8125 16.25 C 18.5 15.722656 18.078125 15.300781 17.550781 14.988281 C 17.023438 14.671875 16.445312 14.511719 15.8125 14.511719 C 15.179688 14.511719 14.601562 14.671875 14.074219 14.988281 C 13.546875 15.300781 13.121094 15.722656 12.800781 16.25 C 12.488281 16.777344 12.332031 17.359375 12.332031 17.988281 C 12.332031 18.621094 12.488281 19.203125 12.800781 19.730469 C 13.121094 20.257812 13.546875 20.675781 14.074219 20.988281 C 14.601562 21.308594 15.179688 21.46875 15.8125 21.46875 Z M 15.8125 19.792969 C 15.484375 19.792969 15.183594 19.707031 14.90625 19.542969 C 14.636719 19.382812 14.417969 19.164062 14.25 18.886719 C 14.089844 18.613281 14.011719 18.316406 14.011719 17.988281 C 14.011719 17.664062 14.089844 17.363281 14.25 17.09375 C 14.417969 16.824219 14.636719 16.605469 14.90625 16.4375 C 15.183594 16.269531 15.484375 16.1875 15.8125 16.1875 C 16.140625 16.1875 16.4375 16.269531 16.707031 16.4375 C 16.984375 16.605469 17.203125 16.824219 17.363281 17.09375 C 17.53125 17.363281 17.613281 17.664062 17.613281 17.988281 C 17.613281 18.316406 17.53125 18.613281 17.363281 18.886719 C 17.203125 19.164062 16.984375 19.382812 16.707031 19.542969 C 16.4375 19.707031 16.140625 19.792969 15.8125 19.792969 Z M 15.8125 19.792969 "/>
</g>
</svg>
