<?xml version="1.0" encoding="UTF-8"?>
<svg xmlns="http://www.w3.org/2000/svg" xmlns:xlink="http://www.w3.org/1999/xlink" width="24" height="25.5" viewBox="0 0 24 25.5" version="1.1">
<g id="surface1">
<path style=" stroke:none;fill-rule:nonzero;fill:rgb(100%,100%,100%);fill-opacity:1;" d="M 12 24.503906 C 13.632812 24.503906 15.167969 24.191406 16.605469 23.566406 C 18.050781 22.941406 19.324219 22.078125 20.425781 20.976562 C 21.527344 19.875 22.390625 18.605469 23.015625 17.167969 C 23.640625 15.722656 23.953125 14.183594 23.953125 12.550781 C 23.953125 10.917969 23.640625 9.382812 23.015625 7.945312 C 22.390625 6.5 21.527344 5.226562 20.425781 4.125 C 19.324219 3.023438 18.050781 2.160156 16.605469 1.535156 C 15.160156 0.910156 13.621094 0.597656 11.988281 0.597656 C 10.355469 0.597656 8.816406 0.910156 7.371094 1.535156 C 5.933594 2.160156 4.664062 3.023438 3.5625 4.125 C 2.46875 5.226562 1.609375 6.5 0.984375 7.945312 C 0.359375 9.382812 0.046875 10.917969 0.046875 12.550781 C 0.046875 14.183594 0.359375 15.722656 0.984375 17.167969 C 1.609375 18.605469 2.472656 19.875 3.574219 20.976562 C 4.675781 22.078125 5.945312 22.941406 7.382812 23.566406 C 8.828125 24.191406 10.367188 24.503906 12 24.503906 Z M 9.421875 10.03125 C 8.835938 10.03125 8.339844 9.824219 7.933594 9.410156 C 7.527344 8.988281 7.324219 8.492188 7.324219 7.921875 C 7.324219 7.34375 7.527344 6.851562 7.933594 6.445312 C 8.347656 6.03125 8.84375 5.824219 9.421875 5.824219 C 9.992188 5.824219 10.484375 6.03125 10.898438 6.445312 C 11.320312 6.851562 11.53125 7.34375 11.53125 7.921875 C 11.53125 8.492188 11.320312 8.988281 10.898438 9.410156 C 10.484375 9.824219 9.992188 10.03125 9.421875 10.03125 Z M 14.589844 10.03125 C 14.019531 10.03125 13.523438 9.824219 13.101562 9.410156 C 12.6875 8.988281 12.480469 8.492188 12.480469 7.921875 C 12.480469 7.34375 12.6875 6.851562 13.101562 6.445312 C 13.523438 6.03125 14.019531 5.824219 14.589844 5.824219 C 15.167969 5.824219 15.660156 6.03125 16.066406 6.445312 C 16.480469 6.851562 16.6875 7.34375 16.6875 7.921875 C 16.6875 8.492188 16.480469 8.988281 16.066406 9.410156 C 15.660156 9.824219 15.167969 10.03125 14.589844 10.03125 Z M 6.855469 14.648438 C 6.269531 14.648438 5.769531 14.441406 5.355469 14.027344 C 4.941406 13.613281 4.734375 13.121094 4.734375 12.550781 C 4.734375 11.980469 4.941406 11.488281 5.355469 11.074219 C 5.777344 10.652344 6.277344 10.441406 6.855469 10.441406 C 7.425781 10.441406 7.914062 10.652344 8.320312 11.074219 C 8.734375 11.488281 8.941406 11.980469 8.941406 12.550781 C 8.941406 13.121094 8.734375 13.613281 8.320312 14.027344 C 7.914062 14.441406 7.425781 14.648438 6.855469 14.648438 Z M 12.011719 14.648438 C 11.433594 14.648438 10.9375 14.441406 10.523438 14.027344 C 10.109375 13.613281 9.902344 13.121094 9.902344 12.550781 C 9.902344 11.980469 10.109375 11.488281 10.523438 11.074219 C 10.9375 10.652344 11.433594 10.441406 12.011719 10.441406 C 12.582031 10.441406 13.074219 10.652344 13.488281 11.074219 C 13.902344 11.488281 14.109375 11.980469 14.109375 12.550781 C 14.109375 13.121094 13.902344 13.613281 13.488281 14.027344 C 13.074219 14.441406 12.582031 14.648438 12.011719 14.648438 Z M 17.167969 14.648438 C 16.589844 14.648438 16.09375 14.441406 15.679688 14.027344 C 15.273438 13.613281 15.070312 13.121094 15.070312 12.550781 C 15.070312 11.980469 15.273438 11.488281 15.679688 11.074219 C 16.09375 10.652344 16.589844 10.441406 17.167969 10.441406 C 17.738281 10.441406 18.230469 10.652344 18.644531 11.074219 C 19.066406 11.488281 19.277344 11.980469 19.277344 12.550781 C 19.277344 13.121094 19.066406 13.613281 18.644531 14.027344 C 18.230469 14.441406 17.738281 14.648438 17.167969 14.648438 Z M 9.421875 19.277344 C 8.835938 19.277344 8.339844 19.070312 7.933594 18.65625 C 7.527344 18.242188 7.324219 17.75 7.324219 17.179688 C 7.324219 16.601562 7.527344 16.105469 7.933594 15.691406 C 8.347656 15.277344 8.84375 15.070312 9.421875 15.070312 C 9.992188 15.070312 10.484375 15.277344 10.898438 15.691406 C 11.320312 16.105469 11.53125 16.601562 11.53125 17.179688 C 11.53125 17.757812 11.320312 18.253906 10.898438 18.667969 C 10.484375 19.074219 9.992188 19.277344 9.421875 19.277344 Z M 14.589844 19.277344 C 14.019531 19.277344 13.523438 19.074219 13.101562 18.667969 C 12.6875 18.253906 12.480469 17.757812 12.480469 17.179688 C 12.480469 16.601562 12.6875 16.105469 13.101562 15.691406 C 13.523438 15.277344 14.019531 15.070312 14.589844 15.070312 C 15.167969 15.070312 15.660156 15.277344 16.066406 15.691406 C 16.480469 16.105469 16.6875 16.601562 16.6875 17.179688 C 16.6875 17.757812 16.480469 18.253906 16.066406 18.667969 C 15.660156 19.074219 15.167969 19.277344 14.589844 19.277344 Z M 14.589844 19.277344 "/>
</g>
</svg>
