<svg width="16" height="16" viewBox="0 0 16 16" fill="none" xmlns="http://www.w3.org/2000/svg">
<path d="M2.32812 5.3125C2.73958 5.3125 3.11458 5.21094 3.45312 5.00781C3.79167 4.80469 4.0625 4.53385 4.26562 4.19531C4.46875 3.85677 4.57031 3.48438 4.57031 3.07812C4.57031 2.66667 4.46875 2.29167 4.26562 1.95312C4.0625 1.60938 3.79167 1.33594 3.45312 1.13281C3.11458 0.924479 2.73958 0.820312 2.32812 0.820312C1.91667 0.820312 1.54167 0.924479 1.20312 1.13281C0.864583 1.33594 0.59375 1.60938 0.390625 1.95312C0.1875 2.29167 0.0859375 2.66667 0.0859375 3.07812C0.0859375 3.48438 0.1875 3.85677 0.390625 4.19531C0.59375 4.53385 0.864583 4.80469 1.20312 5.00781C1.54167 5.21094 1.91667 5.3125 2.32812 5.3125ZM8 5.32031C8.41146 5.32031 8.78646 5.21875 9.125 5.01562C9.46354 4.80729 9.73438 4.53385 9.9375 4.19531C10.1458 3.85156 10.25 3.47656 10.25 3.07031C10.25 2.65365 10.1458 2.27604 9.9375 1.9375C9.73438 1.59375 9.46354 1.32292 9.125 1.125C8.78646 0.921875 8.41146 0.820312 8 0.820312C7.58854 0.825521 7.21094 0.929688 6.86719 1.13281C6.52865 1.33073 6.25521 1.59896 6.04688 1.9375C5.84375 2.27604 5.74219 2.65365 5.74219 3.07031C5.74219 3.47656 5.84375 3.85156 6.04688 4.19531C6.25521 4.53385 6.52865 4.80729 6.86719 5.01562C7.21094 5.21875 7.58854 5.32031 8 5.32031ZM13.6641 5.32031C14.0755 5.32031 14.4505 5.21875 14.7891 5.01562C15.1276 4.80729 15.3984 4.53385 15.6016 4.19531C15.8047 3.85156 15.9062 3.47656 15.9062 3.07031C15.9062 2.65365 15.8047 2.27604 15.6016 1.9375C15.3984 1.59375 15.1276 1.32292 14.7891 1.125C14.4505 0.921875 14.0755 0.820312 13.6641 0.820312C13.2526 0.825521 12.875 0.929688 12.5312 1.13281C12.1927 1.33073 11.9219 1.59896 11.7188 1.9375C11.5208 2.27604 11.4219 2.65365 11.4219 3.07031C11.4219 3.47656 11.5234 3.85156 11.7266 4.19531C11.9297 4.53385 12.2005 4.80729 12.5391 5.01562C12.8776 5.21875 13.2526 5.32031 13.6641 5.32031ZM2.32812 10.6172C2.73958 10.6172 3.11458 10.5156 3.45312 10.3125C3.79167 10.1094 4.0625 9.83854 4.26562 9.5C4.46875 9.15625 4.57031 8.77865 4.57031 8.36719C4.57031 7.95573 4.46875 7.58073 4.26562 7.24219C4.0625 6.89844 3.79167 6.625 3.45312 6.42188C3.11458 6.21875 2.73958 6.11979 2.32812 6.125C1.91667 6.125 1.54167 6.22656 1.20312 6.42969C0.864583 6.63281 0.59375 6.90365 0.390625 7.24219C0.1875 7.58073 0.0859375 7.95573 0.0859375 8.36719C0.0859375 8.77865 0.1875 9.15625 0.390625 9.5C0.59375 9.83854 0.864583 10.1094 1.20312 10.3125C1.54167 10.5156 1.91667 10.6172 2.32812 10.6172ZM8 10.6172C8.41146 10.6172 8.78646 10.5156 9.125 10.3125C9.46354 10.1094 9.73438 9.83854 9.9375 9.5C10.1458 9.15625 10.25 8.77865 10.25 8.36719C10.25 7.95573 10.1458 7.58073 9.9375 7.24219C9.73438 6.89844 9.46354 6.625 9.125 6.42188C8.78646 6.21875 8.41146 6.11979 8 6.125C7.58854 6.125 7.21094 6.22656 6.86719 6.42969C6.52865 6.63281 6.25521 6.90365 6.04688 7.24219C5.84375 7.58073 5.74219 7.95573 5.74219 8.36719C5.74219 8.77865 5.84375 9.15625 6.04688 9.5C6.25521 9.83854 6.52865 10.1094 6.86719 10.3125C7.21094 10.5156 7.58854 10.6172 8 10.6172ZM13.6641 10.6172C14.0755 10.6172 14.4505 10.5156 14.7891 10.3125C15.1276 10.1094 15.3984 9.83854 15.6016 9.5C15.8047 9.15625 15.9062 8.77865 15.9062 8.36719C15.9062 7.95573 15.8047 7.58073 15.6016 7.24219C15.3984 6.89844 15.1276 6.625 14.7891 6.42188C14.4505 6.21875 14.0755 6.11979 13.6641 6.125C13.2526 6.125 12.8776 6.22656 12.5391 6.42969C12.2005 6.63281 11.9297 6.90365 11.7266 7.24219C11.5234 7.58073 11.4219 7.95573 11.4219 8.36719C11.4219 8.77865 11.5234 9.15625 11.7266 9.5C11.9297 9.83854 12.2005 10.1094 12.5391 10.3125C12.8776 10.5156 13.2526 10.6172 13.6641 10.6172ZM2.32812 15.9141C2.73958 15.9141 3.11458 15.8125 3.45312 15.6094C3.79167 15.4062 4.0625 15.1354 4.26562 14.7969C4.46875 14.4583 4.57031 14.0807 4.57031 13.6641C4.57031 13.2526 4.46875 12.8776 4.26562 12.5391C4.0625 12.2005 3.79167 11.9297 3.45312 11.7266C3.11458 11.5234 2.73958 11.4219 2.32812 11.4219C1.91667 11.4219 1.54167 11.5234 1.20312 11.7266C0.864583 11.9297 0.59375 12.2005 0.390625 12.5391C0.1875 12.8776 0.0859375 13.2526 0.0859375 13.6641C0.0859375 14.0755 0.1875 14.4505 0.390625 14.7891C0.59375 15.1328 0.864583 15.4062 1.20312 15.6094C1.54167 15.8125 1.91667 15.9141 2.32812 15.9141ZM8 15.9141C8.41146 15.9141 8.78646 15.8125 9.125 15.6094C9.46354 15.4062 9.73438 15.1328 9.9375 14.7891C10.1458 14.4505 10.25 14.0755 10.25 13.6641C10.25 13.2526 10.1458 12.8776 9.9375 12.5391C9.73438 12.2005 9.46354 11.9297 9.125 11.7266C8.78646 11.5234 8.41146 11.4219 8 11.4219C7.58854 11.4219 7.21094 11.5234 6.86719 11.7266C6.52865 11.9297 6.25521 12.2005 6.04688 12.5391C5.84375 12.8776 5.74219 13.2526 5.74219 13.6641C5.74219 14.0755 5.84375 14.4505 6.04688 14.7891C6.25521 15.1328 6.52865 15.4062 6.86719 15.6094C7.21094 15.8125 7.58854 15.9141 8 15.9141ZM13.6641 15.9141C14.0755 15.9141 14.4505 15.8125 14.7891 15.6094C15.1276 15.4062 15.3984 15.1328 15.6016 14.7891C15.8047 14.4505 15.9062 14.0755 15.9062 13.6641C15.9062 13.2526 15.8047 12.8776 15.6016 12.5391C15.3984 12.2005 15.1276 11.9297 14.7891 11.7266C14.4505 11.5234 14.0755 11.4219 13.6641 11.4219C13.2526 11.4219 12.8776 11.5234 12.5391 11.7266C12.2005 11.9297 11.9297 12.2005 11.7266 12.5391C11.5234 12.8776 11.4219 13.2526 11.4219 13.6641C11.4219 14.0755 11.5234 14.4505 11.7266 14.7891C11.9297 15.1328 12.2005 15.4062 12.5391 15.6094C12.8776 15.8125 13.2526 15.9141 13.6641 15.9141Z" fill="white"/>
</svg>
