<svg width="128" height="122" viewBox="0 0 128 122" fill="none" xmlns="http://www.w3.org/2000/svg">
<path d="M18.875 36.5C22.1667 36.5 25.1667 35.6875 27.875 34.0625C30.5833 32.4375 32.75 30.2708 34.375 27.5625C36 24.8542 36.8125 21.875 36.8125 18.625C36.8125 15.3333 36 12.3333 34.375 9.625C32.75 6.875 30.5833 4.6875 27.875 3.0625C25.1667 1.39583 22.1667 0.5625 18.875 0.5625C15.5833 0.5625 12.5833 1.39583 9.875 3.0625C7.16667 4.6875 5 6.875 3.375 9.625C1.75 12.3333 0.9375 15.3333 0.9375 18.625C0.9375 21.875 1.75 24.8542 3.375 27.5625C5 30.2708 7.16667 32.4375 9.875 34.0625C12.5833 35.6875 15.5833 36.5 18.875 36.5ZM64.25 36.5625C67.5417 36.5625 70.5417 35.75 73.25 34.125C75.9583 32.4583 78.125 30.2708 79.75 27.5625C81.4167 24.8125 82.25 21.8125 82.25 18.5625C82.25 15.2292 81.4167 12.2083 79.75 9.5C78.125 6.75 75.9583 4.58333 73.25 3C70.5417 1.375 67.5417 0.5625 64.25 0.5625C60.9583 0.604167 57.9375 1.4375 55.1875 3.0625C52.4792 4.64583 50.2917 6.79167 48.625 9.5C47 12.2083 46.1875 15.2292 46.1875 18.5625C46.1875 21.8125 47 24.8125 48.625 27.5625C50.2917 30.2708 52.4792 32.4583 55.1875 34.125C57.9375 35.75 60.9583 36.5625 64.25 36.5625ZM109.562 36.5625C112.854 36.5625 115.854 35.75 118.562 34.125C121.271 32.4583 123.438 30.2708 125.062 27.5625C126.688 24.8125 127.5 21.8125 127.5 18.5625C127.5 15.2292 126.688 12.2083 125.062 9.5C123.438 6.75 121.271 4.58333 118.562 3C115.854 1.375 112.854 0.5625 109.562 0.5625C106.271 0.604167 103.25 1.4375 100.5 3.0625C97.7917 4.64583 95.625 6.79167 94 9.5C92.4167 12.2083 91.625 15.2292 91.625 18.5625C91.625 21.8125 92.4375 24.8125 94.0625 27.5625C95.6875 30.2708 97.8542 32.4583 100.562 34.125C103.271 35.75 106.271 36.5625 109.562 36.5625ZM18.875 78.9375C22.1667 78.9375 25.1667 78.125 27.875 76.5C30.5833 74.875 32.75 72.7083 34.375 70C36 67.25 36.8125 64.2292 36.8125 60.9375C36.8125 57.6458 36 54.6458 34.375 51.9375C32.75 49.1875 30.5833 47 27.875 45.375C25.1667 43.75 22.1667 42.9583 18.875 43C15.5833 43 12.5833 43.8125 9.875 45.4375C7.16667 47.0625 5 49.2292 3.375 51.9375C1.75 54.6458 0.9375 57.6458 0.9375 60.9375C0.9375 64.2292 1.75 67.25 3.375 70C5 72.7083 7.16667 74.875 9.875 76.5C12.5833 78.125 15.5833 78.9375 18.875 78.9375ZM64.25 78.9375C67.5417 78.9375 70.5417 78.125 73.25 76.5C75.9583 74.875 78.125 72.7083 79.75 70C81.4167 67.25 82.25 64.2292 82.25 60.9375C82.25 57.6458 81.4167 54.6458 79.75 51.9375C78.125 49.1875 75.9583 47 73.25 45.375C70.5417 43.75 67.5417 42.9583 64.25 43C60.9583 43 57.9375 43.8125 55.1875 45.4375C52.4792 47.0625 50.2917 49.2292 48.625 51.9375C47 54.6458 46.1875 57.6458 46.1875 60.9375C46.1875 64.2292 47 67.25 48.625 70C50.2917 72.7083 52.4792 74.875 55.1875 76.5C57.9375 78.125 60.9583 78.9375 64.25 78.9375ZM109.562 78.9375C112.854 78.9375 115.854 78.125 118.562 76.5C121.271 74.875 123.438 72.7083 125.062 70C126.688 67.25 127.5 64.2292 127.5 60.9375C127.5 57.6458 126.688 54.6458 125.062 51.9375C123.438 49.1875 121.271 47 118.562 45.375C115.854 43.75 112.854 42.9583 109.562 43C106.271 43 103.271 43.8125 100.562 45.4375C97.8542 47.0625 95.6875 49.2292 94.0625 51.9375C92.4375 54.6458 91.625 57.6458 91.625 60.9375C91.625 64.2292 92.4375 67.25 94.0625 70C95.6875 72.7083 97.8542 74.875 100.562 76.5C103.271 78.125 106.271 78.9375 109.562 78.9375ZM18.875 121.312C22.1667 121.312 25.1667 120.5 27.875 118.875C30.5833 117.25 32.75 115.083 34.375 112.375C36 109.667 36.8125 106.646 36.8125 103.312C36.8125 100.021 36 97.0208 34.375 94.3125C32.75 91.6042 30.5833 89.4375 27.875 87.8125C25.1667 86.1875 22.1667 85.375 18.875 85.375C15.5833 85.375 12.5833 86.1875 9.875 87.8125C7.16667 89.4375 5 91.6042 3.375 94.3125C1.75 97.0208 0.9375 100.021 0.9375 103.312C0.9375 106.604 1.75 109.604 3.375 112.312C5 115.062 7.16667 117.25 9.875 118.875C12.5833 120.5 15.5833 121.312 18.875 121.312ZM64.25 121.312C67.5417 121.312 70.5417 120.5 73.25 118.875C75.9583 117.25 78.125 115.062 79.75 112.312C81.4167 109.604 82.25 106.604 82.25 103.312C82.25 100.021 81.4167 97.0208 79.75 94.3125C78.125 91.6042 75.9583 89.4375 73.25 87.8125C70.5417 86.1875 67.5417 85.375 64.25 85.375C60.9583 85.375 57.9375 86.1875 55.1875 87.8125C52.4792 89.4375 50.2917 91.6042 48.625 94.3125C47 97.0208 46.1875 100.021 46.1875 103.312C46.1875 106.604 47 109.604 48.625 112.312C50.2917 115.062 52.4792 117.25 55.1875 118.875C57.9375 120.5 60.9583 121.312 64.25 121.312ZM109.562 121.312C112.854 121.312 115.854 120.5 118.562 118.875C121.271 117.25 123.438 115.062 125.062 112.312C126.688 109.604 127.5 106.604 127.5 103.312C127.5 100.021 126.688 97.0208 125.062 94.3125C123.438 91.6042 121.271 89.4375 118.562 87.8125C115.854 86.1875 112.854 85.375 109.562 85.375C106.271 85.375 103.271 86.1875 100.562 87.8125C97.8542 89.4375 95.6875 91.6042 94.0625 94.3125C92.4375 97.0208 91.625 100.021 91.625 103.312C91.625 106.604 92.4375 109.604 94.0625 112.312C95.6875 115.062 97.8542 117.25 100.562 118.875C103.271 120.5 106.271 121.312 109.562 121.312Z" fill="white"/>
</svg>
