<svg width="22" height="10" viewBox="0 0 22 10" fill="none" xmlns="http://www.w3.org/2000/svg">
<path d="M5.30469 9.90625C5.92969 9.90625 6.51562 9.78906 7.0625 9.55469C7.60938 9.3151 8.09115 8.98698 8.50781 8.57031C8.92448 8.15365 9.25 7.67188 9.48438 7.125C9.72396 6.57292 9.84375 5.98438 9.84375 5.35938C9.84375 4.73438 9.72396 4.14844 9.48438 3.60156C9.25 3.05469 8.92448 2.57292 8.50781 2.15625C8.09115 1.73438 7.60938 1.40625 7.0625 1.17188C6.51562 0.932292 5.92969 0.8125 5.30469 0.8125C4.67448 0.8125 4.08333 0.932292 3.53125 1.17188C2.98438 1.40625 2.5026 1.73438 2.08594 2.15625C1.66927 2.57292 1.34375 3.05469 1.10938 3.60156C0.875 4.14844 0.757812 4.73438 0.757812 5.35938C0.757812 5.98438 0.875 6.57292 1.10938 7.125C1.34375 7.67188 1.66927 8.15365 2.08594 8.57031C2.5026 8.98698 2.98438 9.3151 3.53125 9.55469C4.08333 9.78906 4.67448 9.90625 5.30469 9.90625ZM5.30469 8.64844C4.70052 8.64844 4.14844 8.5026 3.64844 8.21094C3.15365 7.91406 2.75781 7.51562 2.46094 7.01562C2.16406 6.51562 2.01562 5.96354 2.01562 5.35938C2.01562 4.75521 2.16406 4.20573 2.46094 3.71094C2.75781 3.21094 3.15365 2.8125 3.64844 2.51562C4.14844 2.21875 4.70052 2.07031 5.30469 2.07031C5.90365 2.07031 6.45052 2.22135 6.94531 2.52344C7.44531 2.82031 7.84375 3.21875 8.14062 3.71875C8.4375 4.21354 8.58594 4.76042 8.58594 5.35938C8.58594 5.95833 8.4375 6.50781 8.14062 7.00781C7.84375 7.50781 7.44531 7.90625 6.94531 8.20312C6.45052 8.5 5.90365 8.64844 5.30469 8.64844ZM16.6953 9.90625C17.3203 9.90625 17.9062 9.78906 18.4531 9.55469C19 9.3151 19.4818 8.98698 19.8984 8.57031C20.3203 8.15365 20.6484 7.67188 20.8828 7.125C21.1172 6.57292 21.2344 5.98438 21.2344 5.35938C21.2344 4.73438 21.1172 4.14844 20.8828 3.60156C20.6484 3.05469 20.3203 2.57292 19.8984 2.15625C19.4818 1.73438 19 1.40625 18.4531 1.17188C17.9062 0.932292 17.3203 0.8125 16.6953 0.8125C16.0651 0.8125 15.474 0.932292 14.9219 1.17188C14.375 1.40625 13.8932 1.73438 13.4766 2.15625C13.0599 2.57292 12.7344 3.05469 12.5 3.60156C12.2656 4.14844 12.1484 4.73438 12.1484 5.35938C12.1484 5.98438 12.2656 6.57292 12.5 7.125C12.7344 7.67188 13.0599 8.15365 13.4766 8.57031C13.8932 8.98698 14.375 9.3151 14.9219 9.55469C15.474 9.78906 16.0651 9.90625 16.6953 9.90625ZM16.6953 8.64844C16.0911 8.64844 15.5391 8.5026 15.0391 8.21094C14.5443 7.91406 14.1484 7.51562 13.8516 7.01562C13.5547 6.51562 13.4062 5.96354 13.4062 5.35938C13.4062 4.75521 13.5547 4.20573 13.8516 3.71094C14.1484 3.21094 14.5443 2.8125 15.0391 2.51562C15.5391 2.21875 16.0911 2.07031 16.6953 2.07031C17.2943 2.07031 17.8411 2.22135 18.3359 2.52344C18.8359 2.82031 19.2344 3.21875 19.5312 3.71875C19.8281 4.21354 19.9766 4.76042 19.9766 5.35938C19.9766 5.95833 19.8281 6.50781 19.5312 7.00781C19.2344 7.50781 18.8359 7.90625 18.3359 8.20312C17.8411 8.5 17.2943 8.64844 16.6953 8.64844Z" fill="white"/>
</svg>
