<svg xmlns="http://www.w3.org/2000/svg" width="24" height="24"><path style="stroke:none;fill-rule:nonzero;fill:#fff;fill-opacity:1" d="M4.887 23.3h14.215c1.226 0 2.144-.323 2.753-.976.618-.64.926-1.605.926-2.898V4.164c0-1.293-.308-2.258-.926-2.898-.609-.653-1.527-.977-2.753-.977H4.887c-1.227 0-2.149.324-2.766.977-.61.64-.914 1.605-.914 2.898v15.262c0 1.293.305 2.258.914 2.902.617.649 1.54.973 2.766.973Zm.023-2.01c-.586 0-1.035-.165-1.348-.49-.312-.335-.468-.823-.468-1.476V4.262c0-.649.156-1.137.469-1.461.312-.336.761-.5 1.347-.5h14.168c.578 0 1.024.164 1.336.5.32.324.48.812.48 1.46v15.063c0 .653-.16 1.14-.48 1.477-.312.324-.758.488-1.336.488Zm3.094-4.227c.273 0 .5-.106.68-.313L12 13.2l3.34 3.55c.187.207.41.313.668.313a.847.847 0 0 0 .656-.301.985.985 0 0 0 .281-.711 1 1 0 0 0-.28-.715l-3.33-3.547 3.34-3.578a.99.99 0 0 0 .282-.7.958.958 0 0 0-.281-.699.847.847 0 0 0-.656-.3.861.861 0 0 0-.645.312L12 10.387 8.66 6.836a.831.831 0 0 0-.656-.297.902.902 0 0 0-.668.285.993.993 0 0 0-.27.7c0 .277.094.507.282.703l3.328 3.562-3.328 3.563a.958.958 0 0 0-.282.699c0 .273.09.512.27.71.187.2.41.302.668.302Zm0 0"/></svg>