<svg width="116" height="116" viewBox="0 0 116 116" fill="none" xmlns="http://www.w3.org/2000/svg">
<path d="M20.5625 115.5H96.375C102.917 115.5 107.812 113.875 111.062 110.625C114.354 107.417 116 102.583 116 96.125V19.8125C116 13.3542 114.354 8.52083 111.062 5.3125C107.812 2.0625 102.917 0.4375 96.375 0.4375H20.5625C14.0208 0.4375 9.10417 2.0625 5.8125 5.3125C2.5625 8.52083 0.9375 13.3542 0.9375 19.8125V96.125C0.9375 102.583 2.5625 107.417 5.8125 110.625C9.10417 113.875 14.0208 115.5 20.5625 115.5ZM37.5 84.125C36.0833 84.125 34.875 83.625 33.875 82.625C32.875 81.5833 32.375 80.3542 32.375 78.9375C32.375 77.5208 32.875 76.3125 33.875 75.3125L51.25 57.9375L33.875 40.625C32.875 39.5833 32.375 38.375 32.375 37C32.375 35.5417 32.875 34.3333 33.875 33.375C34.875 32.375 36.0833 31.875 37.5 31.875C38.875 31.875 40.0833 32.3542 41.125 33.3125L58.5625 50.6875L76.125 33.25C77.125 32.25 78.3125 31.75 79.6875 31.75C81.1042 31.75 82.3125 32.25 83.3125 33.25C84.3125 34.25 84.8125 35.4583 84.8125 36.875C84.8125 38.2917 84.3125 39.5208 83.3125 40.5625L65.875 57.9375L83.25 75.25C84.25 76.1667 84.75 77.3958 84.75 78.9375C84.75 80.3542 84.25 81.5833 83.25 82.625C82.25 83.625 81.0208 84.125 79.5625 84.125C78.0625 84.125 76.8333 83.625 75.875 82.625L58.5625 65.25L41.3125 82.625C40.2708 83.625 39 84.125 37.5 84.125Z" fill="white"/>
</svg>
