<svg width="18" height="17" viewBox="0 0 18 17" fill="none" xmlns="http://www.w3.org/2000/svg">
<path d="M9.46094 3.78125C9.28906 3.78125 9.14062 3.84115 9.01562 3.96094C8.89583 4.08073 8.83594 4.22656 8.83594 4.39844V8.75781C8.83594 8.85156 8.85156 8.9401 8.88281 9.02344C8.91406 9.10156 8.96094 9.18229 9.02344 9.26562L10.9531 11.8125C11.0833 11.9792 11.2318 12.0781 11.3984 12.1094C11.5703 12.1354 11.7344 12.0938 11.8906 11.9844C12.0365 11.8854 12.1146 11.7526 12.125 11.5859C12.1406 11.4141 12.0885 11.25 11.9688 11.0938L9.36719 7.58594L10.0781 9.77344V4.39844C10.0781 4.22656 10.0182 4.08073 9.89844 3.96094C9.77865 3.84115 9.63281 3.78125 9.46094 3.78125ZM9.75781 16.3281C10.8464 16.3281 11.8698 16.1198 12.8281 15.7031C13.7917 15.2865 14.6406 14.7109 15.375 13.9766C16.1094 13.2422 16.6849 12.3958 17.1016 11.4375C17.5182 10.474 17.7266 9.44792 17.7266 8.35938C17.7266 7.27083 17.5182 6.2474 17.1016 5.28906C16.6849 4.32552 16.1094 3.47656 15.375 2.74219C14.6406 2.00781 13.7917 1.43229 12.8281 1.01562C11.8698 0.598958 10.8464 0.390625 9.75781 0.390625C8.66927 0.390625 7.64323 0.598958 6.67969 1.01562C5.72135 1.43229 4.875 2.00781 4.14062 2.74219C3.40625 3.47135 2.83073 4.31771 2.41406 5.28125C1.9974 6.23958 1.78906 7.26302 1.78906 8.35156H3.11719C3.11719 7.42969 3.28646 6.56771 3.625 5.76562C3.96875 4.96354 4.44531 4.26042 5.05469 3.65625C5.66406 3.05208 6.36979 2.58073 7.17188 2.24219C7.97396 1.89844 8.83594 1.72656 9.75781 1.72656C10.6797 1.72656 11.5417 1.89844 12.3438 2.24219C13.1458 2.58073 13.849 3.05469 14.4531 3.66406C15.0625 4.26823 15.5391 4.97135 15.8828 5.77344C16.2266 6.57552 16.3984 7.4375 16.3984 8.35938C16.3984 9.28125 16.2266 10.1458 15.8828 10.9531C15.5391 11.7552 15.0625 12.4609 14.4531 13.0703C13.849 13.6745 13.1458 14.1484 12.3438 14.4922C11.5417 14.8359 10.6797 15.0052 9.75781 15C9.01302 14.9948 8.30729 14.8776 7.64062 14.6484C6.97396 14.4245 6.36198 14.1068 5.80469 13.6953C5.2526 13.2839 4.77865 12.8021 4.38281 12.25C4.26302 12.0885 4.11719 11.987 3.94531 11.9453C3.77865 11.8984 3.61198 11.9245 3.44531 12.0234C3.28906 12.1224 3.19271 12.2656 3.15625 12.4531C3.125 12.6406 3.17708 12.8203 3.3125 12.9922C3.80729 13.6536 4.38802 14.2344 5.05469 14.7344C5.72135 15.2396 6.45312 15.6302 7.25 15.9062C8.04688 16.1875 8.88281 16.3281 9.75781 16.3281ZM0.828125 6.85156C0.640625 6.85156 0.5 6.89062 0.40625 6.96875C0.3125 7.04167 0.268229 7.14062 0.273438 7.26562C0.278646 7.39062 0.330729 7.52604 0.429688 7.67188L2.17969 10.1562C2.3099 10.3385 2.45833 10.4297 2.625 10.4297C2.79167 10.4245 2.9375 10.3333 3.0625 10.1562L4.8125 7.66406C4.91146 7.51823 4.96094 7.38542 4.96094 7.26562C4.96615 7.14062 4.92188 7.04167 4.82812 6.96875C4.73438 6.89062 4.59635 6.85156 4.41406 6.85156H0.828125Z" fill="white"/>
</svg>
