<svg width="16" height="17" viewBox="0 0 16 17" fill="none" xmlns="http://www.w3.org/2000/svg">
<path d="M3.91406 9.20312C3.75781 9.20312 3.6276 9.15104 3.52344 9.04688C3.41927 8.94271 3.36719 8.8125 3.36719 8.65625C3.36719 8.50521 3.41927 8.3776 3.52344 8.27344C3.6276 8.16927 3.75781 8.11719 3.91406 8.11719H7.45312V3.39062C7.45312 3.23958 7.50521 3.11198 7.60938 3.00781C7.71354 2.90365 7.84115 2.85156 7.99219 2.85156C8.14844 2.85156 8.27865 2.90365 8.38281 3.00781C8.48698 3.11198 8.53906 3.23958 8.53906 3.39062V8.65625C8.53906 8.8125 8.48698 8.94271 8.38281 9.04688C8.27865 9.15104 8.14844 9.20312 7.99219 9.20312H3.91406ZM8 16.3281C9.08854 16.3281 10.112 16.1198 11.0703 15.7031C12.0339 15.2865 12.8828 14.7109 13.6172 13.9766C14.3516 13.2422 14.9271 12.3958 15.3438 11.4375C15.7604 10.474 15.9688 9.44792 15.9688 8.35938C15.9688 7.27083 15.7604 6.2474 15.3438 5.28906C14.9271 4.32552 14.3516 3.47656 13.6172 2.74219C12.8828 2.00781 12.0339 1.43229 11.0703 1.01562C10.1068 0.598958 9.08073 0.390625 7.99219 0.390625C6.90365 0.390625 5.8776 0.598958 4.91406 1.01562C3.95573 1.43229 3.10938 2.00781 2.375 2.74219C1.64583 3.47656 1.07292 4.32552 0.65625 5.28906C0.239583 6.2474 0.03125 7.27083 0.03125 8.35938C0.03125 9.44792 0.239583 10.474 0.65625 11.4375C1.07292 12.3958 1.64844 13.2422 2.38281 13.9766C3.11719 14.7109 3.96354 15.2865 4.92188 15.7031C5.88542 16.1198 6.91146 16.3281 8 16.3281Z" fill="white"/>
</svg>
