<svg width="128" height="128" viewBox="0 0 128 128" fill="none" xmlns="http://www.w3.org/2000/svg">
<path d="M31.25 70.625C30 70.625 28.9583 70.2083 28.125 69.375C27.2917 68.5417 26.875 67.5 26.875 66.25C26.875 65.0417 27.2917 64.0208 28.125 63.1875C28.9583 62.3542 30 61.9375 31.25 61.9375H59.5625V24.125C59.5625 22.9167 59.9792 21.8958 60.8125 21.0625C61.6458 20.2292 62.6667 19.8125 63.875 19.8125C65.125 19.8125 66.1667 20.2292 67 21.0625C67.8333 21.8958 68.25 22.9167 68.25 24.125V66.25C68.25 67.5 67.8333 68.5417 67 69.375C66.1667 70.2083 65.125 70.625 63.875 70.625H31.25ZM63.9375 127.625C72.6458 127.625 80.8333 125.958 88.5 122.625C96.2083 119.292 103 114.688 108.875 108.812C114.75 102.938 119.354 96.1667 122.688 88.5C126.021 80.7917 127.688 72.5833 127.688 63.875C127.688 55.1667 126.021 46.9792 122.688 39.3125C119.354 31.6042 114.75 24.8125 108.875 18.9375C103 13.0625 96.2083 8.45833 88.5 5.125C80.7917 1.79167 72.5833 0.125 63.875 0.125C55.1667 0.125 46.9583 1.79167 39.25 5.125C31.5833 8.45833 24.8125 13.0625 18.9375 18.9375C13.1042 24.8125 8.52083 31.6042 5.1875 39.3125C1.85417 46.9792 0.1875 55.1667 0.1875 63.875C0.1875 72.5833 1.85417 80.7917 5.1875 88.5C8.52083 96.1667 13.125 102.938 19 108.812C24.875 114.688 31.6458 119.292 39.3125 122.625C47.0208 125.958 55.2292 127.625 63.9375 127.625Z" fill="white"/>
</svg>
