<svg width="128" height="128" viewBox="0 0 128 128" fill="none" xmlns="http://www.w3.org/2000/svg">
<path d="M63.9375 127.688C72.6458 127.688 80.8333 126.021 88.5 122.688C96.2083 119.354 103 114.75 108.875 108.875C114.75 103 119.354 96.2292 122.688 88.5625C126.021 80.8542 127.688 72.6458 127.688 63.9375C127.688 55.2292 126.021 47.0417 122.688 39.375C119.354 31.6667 114.75 24.875 108.875 19C103 13.125 96.2083 8.52083 88.5 5.1875C80.7917 1.85417 72.5833 0.1875 63.875 0.1875C55.1667 0.1875 46.9583 1.85417 39.25 5.1875C31.5833 8.52083 24.8125 13.125 18.9375 19C13.1042 24.875 8.52083 31.6667 5.1875 39.375C1.85417 47.0417 0.1875 55.2292 0.1875 63.9375C0.1875 72.6458 1.85417 80.8542 5.1875 88.5625C8.52083 96.2292 13.125 103 19 108.875C24.875 114.75 31.6458 119.354 39.3125 122.688C47.0208 126.021 55.2292 127.688 63.9375 127.688ZM43.25 73.25C38.625 73.25 35.0417 71.9583 32.5 69.375C29.9583 66.7917 28.6875 63.6875 28.6875 60.0625C28.6875 56.8125 29.625 54.0417 31.5 51.75C33.4167 49.4167 35.75 47.875 38.5 47.125C38.875 43.25 40.0833 39.75 42.125 36.625C44.2083 33.5 46.875 31.0208 50.125 29.1875C53.375 27.3542 56.9375 26.4375 60.8125 26.4375C65.2708 26.4375 69.2083 27.5833 72.625 29.875C76.0833 32.1667 78.7917 35.2083 80.75 39C84.2083 39 87.3333 39.75 90.125 41.25C92.9167 42.7083 95.125 44.7292 96.75 47.3125C98.4167 49.8542 99.25 52.7708 99.25 56.0625C99.25 59.2292 98.4583 62.125 96.875 64.75C95.3333 67.3333 93.2292 69.3958 90.5625 70.9375C87.8958 72.4792 84.8958 73.25 81.5625 73.25H43.25ZM41.125 97.9375C40.5417 97.9375 40.0833 97.75 39.75 97.375C39.4583 96.9583 39.3333 96.4792 39.375 95.9375L39.5 92.125L36.25 94.3125C35.8333 94.6042 35.3542 94.7083 34.8125 94.625C34.2708 94.5 33.8958 94.1875 33.6875 93.6875C33.4792 93.2708 33.4167 92.8125 33.5 92.3125C33.625 91.7708 33.9792 91.375 34.5625 91.125L37.9375 89.4375L34.5625 87.6875C33.9792 87.3958 33.625 87 33.5 86.5C33.4167 85.9583 33.5 85.5 33.75 85.125C33.9583 84.625 34.3125 84.3542 34.8125 84.3125C35.3542 84.2292 35.8333 84.3125 36.25 84.5625L39.5 86.8125L39.3125 82.875C39.2708 82.375 39.4167 81.9375 39.75 81.5625C40.0833 81.1458 40.5417 80.9375 41.125 80.9375C41.625 80.9375 42.0417 81.1458 42.375 81.5625C42.7083 81.9375 42.8542 82.3958 42.8125 82.9375L42.625 86.8125L45.8125 84.5625C46.1875 84.3125 46.6458 84.2292 47.1875 84.3125C47.7708 84.3958 48.1667 84.6667 48.375 85.125C48.625 85.5833 48.6875 86.0417 48.5625 86.5C48.4375 86.9583 48.1042 87.3333 47.5625 87.625L44.0625 89.4375L47.5625 91.125C48.1458 91.375 48.5 91.7917 48.625 92.375C48.75 92.9167 48.6458 93.375 48.3125 93.75C48.0625 94.1667 47.6667 94.4375 47.125 94.5625C46.625 94.6875 46.1875 94.6042 45.8125 94.3125L42.625 92.125L42.8125 95.9375C42.8542 96.4792 42.7083 96.9583 42.375 97.375C42.0417 97.75 41.625 97.9375 41.125 97.9375ZM62.375 97.9375C61.7917 97.9375 61.3333 97.75 61 97.375C60.7083 96.9583 60.5833 96.4792 60.625 95.9375L60.75 92.125L57.5 94.3125C57.125 94.6042 56.6458 94.7083 56.0625 94.625C55.5208 94.5 55.1458 94.1875 54.9375 93.6875C54.7292 93.2708 54.6667 92.8125 54.75 92.3125C54.875 91.7708 55.2292 91.375 55.8125 91.125L59.25 89.4375L55.8125 87.6875C55.2292 87.3958 54.875 87 54.75 86.5C54.6667 85.9583 54.7708 85.5 55.0625 85.125C55.2708 84.625 55.625 84.3542 56.125 84.3125C56.6667 84.2292 57.125 84.3125 57.5 84.5625L60.75 86.8125L60.5625 82.875C60.5208 82.375 60.6667 81.9375 61 81.5625C61.3333 81.1458 61.7917 80.9375 62.375 80.9375C62.9167 80.9375 63.3333 81.1458 63.625 81.5625C63.9583 81.9375 64.1042 82.3958 64.0625 82.9375L63.875 86.8125L67.0625 84.5625C67.4792 84.3125 67.9583 84.2292 68.5 84.3125C69.0833 84.3958 69.4792 84.6667 69.6875 85.125C69.8958 85.5833 69.9375 86.0417 69.8125 86.5C69.6875 86.9583 69.3542 87.3333 68.8125 87.625L65.375 89.4375L68.8125 91.125C69.3958 91.375 69.75 91.7917 69.875 92.375C70 92.9167 69.9167 93.375 69.625 93.75C69.375 94.1667 68.9792 94.4375 68.4375 94.5625C67.8958 94.6875 67.4375 94.6042 67.0625 94.3125L63.875 92.125L64.0625 95.9375C64.1042 96.4792 63.9583 96.9583 63.625 97.375C63.3333 97.75 62.9167 97.9375 62.375 97.9375ZM83.6875 97.9375C83.1042 97.9375 82.6458 97.75 82.3125 97.375C82.0208 96.9583 81.8958 96.4792 81.9375 95.9375L82.0625 92.125L78.75 94.3125C78.375 94.6042 77.8958 94.7083 77.3125 94.625C76.7708 94.5 76.3958 94.1875 76.1875 93.6875C76.0208 93.2708 75.9792 92.8125 76.0625 92.3125C76.1875 91.7708 76.5208 91.375 77.0625 91.125L80.5 89.4375L77.0625 87.6875C76.5208 87.3958 76.1875 87 76.0625 86.5C75.9792 85.9583 76.0625 85.5 76.3125 85.125C76.5208 84.625 76.875 84.3542 77.375 84.3125C77.9167 84.2292 78.375 84.3125 78.75 84.5625L82.0625 86.8125L81.875 82.875C81.8333 82.375 81.9792 81.9375 82.3125 81.5625C82.6458 81.1458 83.1042 80.9375 83.6875 80.9375C84.1875 80.9375 84.6042 81.1458 84.9375 81.5625C85.2708 81.9375 85.4167 82.3958 85.375 82.9375L85.125 86.8125L88.3125 84.5625C88.7292 84.3125 89.2083 84.2292 89.75 84.3125C90.3333 84.3958 90.7292 84.6667 90.9375 85.125C91.1458 85.5833 91.1875 86.0417 91.0625 86.5C90.9375 86.9583 90.625 87.3333 90.125 87.625L86.625 89.4375L90.125 91.125C90.6667 91.375 91 91.7917 91.125 92.375C91.25 92.9167 91.1667 93.375 90.875 93.75C90.625 94.1667 90.2292 94.4375 89.6875 94.5625C89.1875 94.6875 88.7292 94.6042 88.3125 94.3125L85.125 92.125L85.375 95.9375C85.4167 96.4792 85.2708 96.9583 84.9375 97.375C84.6042 97.75 84.1875 97.9375 83.6875 97.9375Z" fill="white"/>
</svg>
