<svg width="164" height="106" viewBox="0 0 164 106" fill="none" xmlns="http://www.w3.org/2000/svg">
<path d="M26.25 105.875H93.875C99.7917 105.875 105.125 104.5 109.875 101.75C114.625 99.0417 118.396 95.375 121.188 90.75C123.979 86.125 125.375 80.9167 125.375 75.125C125.375 69.375 123.938 64.2292 121.062 59.6875C118.229 55.1042 114.333 51.5 109.375 48.875C104.458 46.2083 98.8958 44.8542 92.6875 44.8125C90.2292 40.1458 87.1875 36.1667 83.5625 32.875C79.9792 29.5833 75.9583 27.0625 71.5 25.3125C67.0417 23.5625 62.2917 22.6875 57.25 22.6875C52.1667 22.6875 47.3333 23.625 42.75 25.5C38.2083 27.3333 34.1458 29.8958 30.5625 33.1875C26.9792 36.4792 24.0625 40.3333 21.8125 44.75C19.6042 49.1667 18.25 53.9375 17.75 59.0625C12.4583 60.6458 8.22917 63.5417 5.0625 67.75C1.89583 71.9167 0.3125 76.75 0.3125 82.25C0.3125 86.9167 1.39583 91.0208 3.5625 94.5625C5.77083 98.1042 8.8125 100.875 12.6875 102.875C16.6042 104.875 21.125 105.875 26.25 105.875ZM132.625 73.9375C137.5 73.0625 141.854 71.5417 145.688 69.375C149.562 67.1667 152.833 64.625 155.5 61.75C158.208 58.8333 160.25 55.8542 161.625 52.8125C163.042 49.7708 163.75 46.9583 163.75 44.375C163.75 43.1667 163.479 42.1667 162.938 41.375C162.438 40.5833 161.688 40.1875 160.688 40.1875C159.646 40.1875 158.417 40.5208 157 41.1875C155.583 41.8542 153.854 42.5208 151.812 43.1875C149.771 43.8542 147.312 44.1875 144.438 44.1875C139.354 44.1875 134.938 43.2292 131.188 41.3125C127.479 39.3542 124.604 36.6458 122.562 33.1875C120.562 29.6875 119.562 25.625 119.562 21C119.562 18.25 119.917 15.75 120.625 13.5C121.375 11.25 122.104 9.27083 122.812 7.5625C123.562 5.85417 123.938 4.45833 123.938 3.375C123.938 2.41667 123.604 1.64583 122.938 1.0625C122.312 0.4375 121.375 0.145833 120.125 0.1875C117.25 0.3125 114.25 1.16667 111.125 2.75C108.042 4.33333 105.083 6.47917 102.25 9.1875C99.4583 11.8958 97.0208 15.0417 94.9375 18.625C92.8958 22.2083 91.4583 26.0833 90.625 30.25C91.5833 31.1667 92.5208 32.25 93.4375 33.5C94.3542 34.7083 95.2083 36.125 96 37.75C101.25 38.1667 106.083 39.3958 110.5 41.4375C114.917 43.4792 118.771 46.1458 122.062 49.4375C125.354 52.7292 127.917 56.4792 129.75 60.6875C131.583 64.8542 132.542 69.2708 132.625 73.9375Z" fill="white"/>
</svg>
