<svg width="128" height="128" viewBox="0 0 128 128" fill="none" xmlns="http://www.w3.org/2000/svg">
<path d="M63.9375 127.625C72.6458 127.625 80.8333 125.958 88.5 122.625C96.2083 119.292 103 114.688 108.875 108.812C114.75 102.938 119.354 96.1667 122.688 88.5C126.021 80.7917 127.688 72.5833 127.688 63.875C127.688 55.1667 126.021 46.9792 122.688 39.3125C119.354 31.6042 114.75 24.8125 108.875 18.9375C103 13.0625 96.2083 8.45833 88.5 5.125C80.7917 1.79167 72.5833 0.125 63.875 0.125C55.1667 0.125 46.9583 1.79167 39.25 5.125C31.5833 8.45833 24.8125 13.0625 18.9375 18.9375C13.1042 24.8125 8.52083 31.6042 5.1875 39.3125C1.85417 46.9792 0.1875 55.1667 0.1875 63.875C0.1875 72.5833 1.85417 80.7917 5.1875 88.5C8.52083 96.1667 13.125 102.938 19 108.812C24.875 114.688 31.6458 119.292 39.3125 122.625C47.0208 125.958 55.2292 127.625 63.9375 127.625ZM63.9375 117C56.5625 117 49.6667 115.625 43.25 112.875C36.8333 110.125 31.1875 106.333 26.3125 101.5C21.4792 96.625 17.6875 90.9792 14.9375 84.5625C12.2292 78.1458 10.875 71.25 10.875 63.875C10.875 56.5 12.2292 49.6042 14.9375 43.1875C17.6875 36.7708 21.4792 31.125 26.3125 26.25C31.1458 21.375 36.7708 17.5833 43.1875 14.875C49.6042 12.125 56.5 10.75 63.875 10.75C71.25 10.75 78.1458 12.125 84.5625 14.875C91.0208 17.5833 96.6667 21.375 101.5 26.25C106.375 31.125 110.188 36.7708 112.938 43.1875C115.688 49.6042 117.062 56.5 117.062 63.875C117.062 71.25 115.688 78.1458 112.938 84.5625C110.229 90.9792 106.438 96.625 101.562 101.5C96.6875 106.333 91.0417 110.125 84.625 112.875C78.2083 115.625 71.3125 117 63.9375 117ZM43.875 72.25H81.0625C84.3125 72.25 87.2292 71.5 89.8125 70C92.3958 68.5 94.4375 66.5 95.9375 64C97.4375 61.4583 98.1875 58.6458 98.1875 55.5625C98.1875 52.3542 97.3958 49.5208 95.8125 47.0625C94.2292 44.5625 92.0833 42.6042 89.375 41.1875C86.6667 39.7292 83.625 39 80.25 39C78.3333 35.3333 75.7083 32.3958 72.375 30.1875C69.0417 27.9375 65.2292 26.8125 60.9375 26.8125C57.1458 26.8125 53.6667 27.7083 50.5 29.5C47.375 31.2917 44.8125 33.7083 42.8125 36.75C40.8125 39.75 39.625 43.125 39.25 46.875C36.5833 47.625 34.3333 49.125 32.5 51.375C30.6667 53.5833 29.75 56.2708 29.75 59.4375C29.75 62.9792 30.9792 66 33.4375 68.5C35.8958 71 39.375 72.25 43.875 72.25ZM43.0625 90L47.5 82.3125C47.9167 81.6458 48.0208 80.9375 47.8125 80.1875C47.6042 79.3958 47.1458 78.8125 46.4375 78.4375C45.7708 78.0208 45.0625 77.9375 44.3125 78.1875C43.5625 78.3958 42.9792 78.8333 42.5625 79.5L38.125 87.125C37.75 87.8333 37.6458 88.5833 37.8125 89.375C38.0208 90.125 38.4792 90.6875 39.1875 91.0625C39.8958 91.4375 40.6042 91.5208 41.3125 91.3125C42.0625 91.1042 42.6458 90.6667 43.0625 90ZM51.875 99.625L61.9375 82.3125C62.3125 81.6042 62.3958 80.875 62.1875 80.125C62.0208 79.375 61.5833 78.8125 60.875 78.4375C60.1667 78.0208 59.4375 77.9167 58.6875 78.125C57.9792 78.3333 57.4167 78.7917 57 79.5L47 96.8125C46.5833 97.4792 46.4792 98.2083 46.6875 99C46.8958 99.75 47.3542 100.312 48.0625 100.688C48.7292 101.104 49.4375 101.208 50.1875 101C50.9375 100.75 51.5 100.292 51.875 99.625ZM71.8125 90L76.25 82.3125C76.6667 81.6458 76.7708 80.9375 76.5625 80.1875C76.3542 79.3958 75.8958 78.8125 75.1875 78.4375C74.5208 78.0208 73.8125 77.9375 73.0625 78.1875C72.3125 78.3958 71.75 78.8333 71.375 79.5L66.9375 87.125C66.5208 87.8333 66.4167 88.5833 66.625 89.375C66.8333 90.125 67.2917 90.6875 68 91.0625C68.6667 91.4375 69.375 91.5208 70.125 91.3125C70.875 91.1042 71.4375 90.6667 71.8125 90ZM80.6875 99.625L90.6875 82.3125C91.1042 81.6042 91.2083 80.875 91 80.125C90.7917 79.375 90.3333 78.8125 89.625 78.4375C88.9583 78.0208 88.25 77.9167 87.5 78.125C86.75 78.3333 86.1875 78.7917 85.8125 79.5L75.75 96.8125C75.3333 97.4792 75.2292 98.2083 75.4375 99C75.6458 99.75 76.1042 100.312 76.8125 100.688C77.4792 101.104 78.1875 101.208 78.9375 101C79.6875 100.75 80.2708 100.292 80.6875 99.625Z" fill="white"/>
</svg>
