<?xml version="1.0" encoding="UTF-8"?>
<svg xmlns="http://www.w3.org/2000/svg" xmlns:xlink="http://www.w3.org/1999/xlink" width="24" height="22.736842" viewBox="0 0 24 22.736842" version="1.1">
<g id="surface1">
<path style=" stroke:none;fill-rule:nonzero;fill:rgb(100%,100%,100%);fill-opacity:1;" d="M 5.238281 15.472656 L 17.488281 15.472656 C 18.296875 15.472656 19.042969 15.332031 19.726562 15.050781 C 20.417969 14.765625 21.015625 14.371094 21.523438 13.863281 C 22.035156 13.359375 22.429688 12.773438 22.707031 12.109375 C 22.988281 11.445312 23.132812 10.734375 23.132812 9.976562 C 23.132812 9.1875 22.980469 8.464844 22.675781 7.804688 C 22.382812 7.140625 21.964844 6.566406 21.425781 6.078125 C 20.890625 5.585938 20.265625 5.203125 19.550781 4.933594 C 18.832031 4.664062 18.054688 4.53125 17.21875 4.53125 C 16.8125 3.71875 16.289062 3.015625 15.652344 2.417969 C 15.019531 1.8125 14.300781 1.34375 13.488281 1.015625 C 12.679688 0.6875 11.800781 0.523438 10.84375 0.523438 C 9.917969 0.523438 9.042969 0.695312 8.21875 1.035156 C 7.40625 1.371094 6.675781 1.839844 6.03125 2.4375 C 5.386719 3.035156 4.863281 3.734375 4.460938 4.53125 C 4.066406 5.324219 3.828125 6.179688 3.75 7.09375 C 3.152344 7.265625 2.613281 7.550781 2.140625 7.945312 C 1.667969 8.332031 1.292969 8.804688 1.015625 9.363281 C 0.738281 9.925781 0.601562 10.550781 0.601562 11.25 C 0.601562 12.027344 0.78125 12.738281 1.144531 13.382812 C 1.511719 14.019531 2.042969 14.53125 2.734375 14.910156 C 3.425781 15.285156 4.261719 15.472656 5.238281 15.472656 Z M 18.386719 17.761719 L 5.546875 17.761719 C 5.375 17.761719 5.226562 17.824219 5.101562 17.941406 C 4.984375 18.058594 4.925781 18.207031 4.925781 18.386719 C 4.925781 18.5625 4.984375 18.710938 5.101562 18.828125 C 5.226562 18.949219 5.375 19.007812 5.546875 19.007812 L 18.386719 19.007812 C 18.5625 19.007812 18.710938 18.949219 18.828125 18.828125 C 18.949219 18.710938 19.007812 18.5625 19.007812 18.386719 C 19.007812 18.207031 18.949219 18.058594 18.828125 17.941406 C 18.710938 17.824219 18.5625 17.761719 18.386719 17.761719 Z M 18.386719 21.109375 L 5.546875 21.109375 C 5.375 21.109375 5.226562 21.167969 5.101562 21.285156 C 4.984375 21.40625 4.925781 21.550781 4.925781 21.730469 C 4.925781 21.90625 4.984375 22.054688 5.101562 22.175781 C 5.226562 22.300781 5.375 22.363281 5.546875 22.363281 L 18.386719 22.363281 C 18.5625 22.363281 18.710938 22.300781 18.828125 22.175781 C 18.949219 22.054688 19.007812 21.90625 19.007812 21.730469 C 19.007812 21.550781 18.949219 21.40625 18.828125 21.285156 C 18.710938 21.167969 18.5625 21.109375 18.386719 21.109375 Z M 18.386719 21.109375 "/>
</g>
</svg>
