<svg width="16" height="17" viewBox="0 0 16 17" fill="none" xmlns="http://www.w3.org/2000/svg">
<path d="M8 16.3359C9.08854 16.3359 10.112 16.1276 11.0703 15.7109C12.0339 15.2943 12.8828 14.7188 13.6172 13.9844C14.3516 13.25 14.9271 12.4036 15.3438 11.4453C15.7604 10.4818 15.9688 9.45573 15.9688 8.36719C15.9688 7.27865 15.7604 6.25521 15.3438 5.29688C14.9271 4.33333 14.3516 3.48438 13.6172 2.75C12.8828 2.01562 12.0339 1.4401 11.0703 1.02344C10.1068 0.606771 9.08073 0.398438 7.99219 0.398438C6.90365 0.398438 5.8776 0.606771 4.91406 1.02344C3.95573 1.4401 3.10938 2.01562 2.375 2.75C1.64583 3.48438 1.07292 4.33333 0.65625 5.29688C0.239583 6.25521 0.03125 7.27865 0.03125 8.36719C0.03125 9.45573 0.239583 10.4818 0.65625 11.4453C1.07292 12.4036 1.64844 13.25 2.38281 13.9844C3.11719 14.7188 3.96354 15.2943 4.92188 15.7109C5.88542 16.1276 6.91146 16.3359 8 16.3359ZM5.41406 9.44531C4.83594 9.44531 4.38802 9.28385 4.07031 8.96094C3.7526 8.63802 3.59375 8.25 3.59375 7.79688C3.59375 7.39062 3.71094 7.04427 3.94531 6.75781C4.1849 6.46615 4.47656 6.27083 4.82031 6.17188C4.86719 5.69271 5.01823 5.25781 5.27344 4.86719C5.53385 4.47656 5.86719 4.16667 6.27344 3.9375C6.67969 3.70312 7.125 3.58594 7.60938 3.58594C8.16667 3.58594 8.65885 3.73177 9.08594 4.02344C9.51823 4.3099 9.85677 4.6875 10.1016 5.15625C10.5339 5.15625 10.9245 5.25 11.2734 5.4375C11.6224 5.61979 11.8984 5.8724 12.1016 6.19531C12.3099 6.51823 12.4141 6.88542 12.4141 7.29688C12.4141 7.69271 12.3151 8.05469 12.1172 8.38281C11.9245 8.70573 11.6615 8.96354 11.3281 9.15625C10.9948 9.34896 10.6198 9.44531 10.2031 9.44531H5.41406ZM5.3125 11.7344C5.26042 11.8229 5.1849 11.8802 5.08594 11.9062C4.98698 11.9323 4.89323 11.9193 4.80469 11.8672C4.71615 11.8203 4.65885 11.7474 4.63281 11.6484C4.60677 11.5495 4.61979 11.4531 4.67188 11.3594L5.24219 10.3828C5.29427 10.2943 5.36719 10.237 5.46094 10.2109C5.5599 10.1797 5.65365 10.1901 5.74219 10.2422C5.83594 10.2943 5.89583 10.3698 5.92188 10.4688C5.94792 10.5677 5.9349 10.6589 5.88281 10.7422L5.3125 11.7344ZM6.44531 12.9766C6.39844 13.0599 6.32552 13.1172 6.22656 13.1484C6.13281 13.1745 6.04167 13.1615 5.95312 13.1094C5.85938 13.0625 5.79948 12.9896 5.77344 12.8906C5.7474 12.7917 5.76042 12.6979 5.8125 12.6094L7.10156 10.3828C7.15365 10.2891 7.22656 10.2292 7.32031 10.2031C7.41927 10.1771 7.51302 10.1901 7.60156 10.2422C7.6901 10.2943 7.7474 10.3698 7.77344 10.4688C7.79948 10.5625 7.78906 10.6536 7.74219 10.7422L6.44531 12.9766ZM9.01562 11.7344C8.96875 11.8229 8.89583 11.8802 8.79688 11.9062C8.70312 11.9323 8.61198 11.9193 8.52344 11.8672C8.42969 11.8203 8.36979 11.7474 8.34375 11.6484C8.31771 11.5495 8.33333 11.4531 8.39062 11.3594L8.96094 10.3828C9.00781 10.2943 9.07812 10.237 9.17188 10.2109C9.27083 10.1797 9.36458 10.1901 9.45312 10.2422C9.54688 10.2943 9.60677 10.3698 9.63281 10.4688C9.65885 10.5677 9.64323 10.6589 9.58594 10.7422L9.01562 11.7344ZM10.1641 12.9766C10.1068 13.0599 10.0286 13.1172 9.92969 13.1484C9.83594 13.1745 9.7474 13.1615 9.66406 13.1094C9.57031 13.0625 9.51042 12.9896 9.48438 12.8906C9.45833 12.7917 9.47135 12.6979 9.52344 12.6094L10.8203 10.3828C10.8672 10.2891 10.9375 10.2292 11.0312 10.2031C11.1302 10.1771 11.224 10.1901 11.3125 10.2422C11.4062 10.2943 11.4661 10.3698 11.4922 10.4688C11.5182 10.5625 11.5052 10.6536 11.4531 10.7422L10.1641 12.9766Z" fill="white"/>
</svg>
