<svg width="128" height="128" viewBox="0 0 128 128" fill="none" xmlns="http://www.w3.org/2000/svg">
<path d="M63.9375 127.688C72.6458 127.688 80.8333 126.021 88.5 122.688C96.2083 119.354 103 114.75 108.875 108.875C114.75 103 119.354 96.2292 122.688 88.5625C126.021 80.8542 127.688 72.6458 127.688 63.9375C127.688 55.2292 126.021 47.0417 122.688 39.375C119.354 31.6667 114.75 24.875 108.875 19C103 13.125 96.2083 8.52083 88.5 5.1875C80.7917 1.85417 72.5833 0.1875 63.875 0.1875C55.1667 0.1875 46.9583 1.85417 39.25 5.1875C31.5833 8.52083 24.8125 13.125 18.9375 19C13.1042 24.875 8.52083 31.6667 5.1875 39.375C1.85417 47.0417 0.1875 55.2292 0.1875 63.9375C0.1875 72.6458 1.85417 80.8542 5.1875 88.5625C8.52083 96.2292 13.125 103 19 108.875C24.875 114.75 31.6458 119.354 39.3125 122.688C47.0208 126.021 55.2292 127.688 63.9375 127.688ZM43.3125 71.9375C38.6875 71.9375 35.1042 70.6458 32.5625 68.0625C30.0208 65.4792 28.75 62.375 28.75 58.75C28.75 55.5 29.6875 52.7292 31.5625 50.4375C33.4792 48.1042 35.8125 46.5417 38.5625 45.75C38.9375 41.9167 40.1458 38.4375 42.1875 35.3125C44.2708 32.1875 46.9375 29.7083 50.1875 27.875C53.4375 26 57 25.0625 60.875 25.0625C65.3333 25.0625 69.2708 26.2292 72.6875 28.5625C76.1458 30.8542 78.8542 33.875 80.8125 37.625C84.2708 37.625 87.3958 38.375 90.1875 39.875C92.9792 41.3333 95.1875 43.3542 96.8125 45.9375C98.4792 48.5208 99.3125 51.4583 99.3125 54.75C99.3125 57.9167 98.5208 60.8125 96.9375 63.4375C95.3958 66.0208 93.2917 68.0833 90.625 69.625C87.9583 71.1667 84.9583 71.9375 81.625 71.9375H43.3125ZM46.9375 88.875C46.5625 89.5417 45.9792 90 45.1875 90.25C44.3958 90.4583 43.6667 90.375 43 90C42.25 89.5833 41.7708 88.9792 41.5625 88.1875C41.3958 87.3542 41.4792 86.5833 41.8125 85.875L45.6875 79.4375C46.0208 78.7708 46.5833 78.3125 47.375 78.0625C48.1667 77.8125 48.9167 77.8958 49.625 78.3125C50.375 78.7292 50.8333 79.3542 51 80.1875C51.2083 80.9792 51.125 81.6875 50.75 82.3125L46.9375 88.875ZM64.6875 88.875C64.2708 89.5417 63.6667 90 62.875 90.25C62.0833 90.4583 61.3333 90.375 60.625 90C59.9167 89.5833 59.4583 88.9792 59.25 88.1875C59.0417 87.3542 59.1458 86.5833 59.5625 85.875L63.3125 79.4375C63.7292 78.7708 64.3333 78.3125 65.125 78.0625C65.9167 77.8125 66.6667 77.8958 67.375 78.3125C68.0833 78.7292 68.5208 79.3542 68.6875 80.1875C68.8958 80.9792 68.8125 81.6875 68.4375 82.3125L64.6875 88.875ZM82.25 88.875C81.875 89.5417 81.2917 90 80.5 90.25C79.7083 90.4583 78.9792 90.375 78.3125 90C77.5625 89.5833 77.0833 88.9792 76.875 88.1875C76.7083 87.3542 76.7917 86.5833 77.125 85.875L81 79.4375C81.3333 78.7708 81.8958 78.3125 82.6875 78.0625C83.4792 77.8125 84.2292 77.8958 84.9375 78.3125C85.6875 78.7292 86.1458 79.3542 86.3125 80.1875C86.5208 80.9792 86.4375 81.6875 86.0625 82.3125L82.25 88.875ZM39.3125 101.625C38.1458 101.625 37.125 101.208 36.25 100.375C35.4167 99.5 35 98.4792 35 97.3125C35 96.1458 35.4167 95.1458 36.25 94.3125C37.125 93.4792 38.1458 93.0625 39.3125 93.0625C40.4792 93.0625 41.4792 93.4792 42.3125 94.3125C43.1875 95.1458 43.625 96.1458 43.625 97.3125C43.625 98.4792 43.1875 99.5 42.3125 100.375C41.4792 101.208 40.4792 101.625 39.3125 101.625ZM57.0625 101.625C55.8542 101.625 54.8125 101.208 53.9375 100.375C53.1042 99.5 52.6875 98.4792 52.6875 97.3125C52.6875 96.1458 53.1042 95.1458 53.9375 94.3125C54.8125 93.4792 55.8542 93.0625 57.0625 93.0625C58.2292 93.0625 59.2292 93.4792 60.0625 94.3125C60.8958 95.1458 61.3125 96.1458 61.3125 97.3125C61.3125 98.4792 60.8958 99.5 60.0625 100.375C59.2292 101.208 58.2292 101.625 57.0625 101.625ZM74.625 101.625C73.4583 101.625 72.4583 101.208 71.625 100.375C70.7917 99.5 70.375 98.4792 70.375 97.3125C70.375 96.1458 70.7917 95.1458 71.625 94.3125C72.4583 93.4792 73.4583 93.0625 74.625 93.0625C75.7917 93.0625 76.7917 93.4792 77.625 94.3125C78.5 95.1458 78.9375 96.1458 78.9375 97.3125C78.9375 98.4792 78.5 99.5 77.625 100.375C76.7917 101.208 75.7917 101.625 74.625 101.625Z" fill="white"/>
</svg>
