<svg width="128" height="128" viewBox="0 0 128 128" fill="none" xmlns="http://www.w3.org/2000/svg">
<path d="M63.9375 127.688C72.6458 127.688 80.8333 126.021 88.5 122.688C96.2083 119.354 103 114.75 108.875 108.875C114.75 103 119.354 96.2292 122.688 88.5625C126.021 80.8542 127.688 72.6458 127.688 63.9375C127.688 55.2292 126.021 47.0417 122.688 39.375C119.354 31.6667 114.75 24.875 108.875 19C103 13.125 96.2083 8.52083 88.5 5.1875C80.7917 1.85417 72.5833 0.1875 63.875 0.1875C55.1667 0.1875 46.9583 1.85417 39.25 5.1875C31.5833 8.52083 24.8125 13.125 18.9375 19C13.1042 24.875 8.52083 31.6667 5.1875 39.375C1.85417 47.0417 0.1875 55.2292 0.1875 63.9375C0.1875 72.6458 1.85417 80.8542 5.1875 88.5625C8.52083 96.2292 13.125 103 19 108.875C24.875 114.75 31.6458 119.354 39.3125 122.688C47.0208 126.021 55.2292 127.688 63.9375 127.688ZM33.5625 82.125C29.7708 82.125 26.6875 81.0208 24.3125 78.8125C21.9792 76.5625 20.8125 73.7708 20.8125 70.4375C20.8125 67.6875 21.5833 65.3125 23.125 63.3125C24.7083 61.2708 26.7083 59.8333 29.125 59C29.5 55.75 30.5833 52.8333 32.375 50.25C34.1667 47.625 36.4375 45.5417 39.1875 44C41.9375 42.4583 44.9375 41.6875 48.1875 41.6875C51.9375 41.6875 55.2708 42.625 58.1875 44.5C61.1458 46.375 63.5 48.9167 65.25 52.125C69.7083 52.25 73.4167 53.7292 76.375 56.5625C79.375 59.3542 80.875 62.8333 80.875 67C80.875 69.8333 80.1875 72.3958 78.8125 74.6875C77.4792 76.9375 75.6667 78.75 73.375 80.125C71.0833 81.4583 68.4792 82.125 65.5625 82.125H33.5625ZM59.375 39.0625L54.8125 34.4375C54.2708 33.8542 54 33.1667 54 32.375C54 31.5417 54.2708 30.875 54.8125 30.375C55.3542 29.8333 56.0208 29.5625 56.8125 29.5625C57.6458 29.5208 58.3542 29.7917 58.9375 30.375L63.5625 34.9375C64.1458 35.4792 64.4167 36.1667 64.375 37C64.3333 37.7917 64.0625 38.4792 63.5625 39.0625C62.9792 39.5625 62.2708 39.8333 61.4375 39.875C60.6042 39.9167 59.9167 39.6458 59.375 39.0625ZM76.6875 33.5C75.9375 33.5 75.25 33.2083 74.625 32.625C74.0417 32.0417 73.75 31.375 73.75 30.625V24.125C73.75 23.3333 74.0417 22.6458 74.625 22.0625C75.25 21.4792 75.9375 21.1875 76.6875 21.1875C77.5625 21.1875 78.2917 21.4792 78.875 22.0625C79.4583 22.6458 79.75 23.3333 79.75 24.125V30.625C79.75 31.375 79.4583 32.0417 78.875 32.625C78.2917 33.2083 77.5625 33.5 76.6875 33.5ZM89.9375 39C89.4375 38.4583 89.1667 37.7917 89.125 37C89.125 36.1667 89.3958 35.4792 89.9375 34.9375L94.5625 30.375C95.1875 29.7917 95.8958 29.5208 96.6875 29.5625C97.4792 29.5625 98.1667 29.8333 98.75 30.375C99.25 30.875 99.5 31.5417 99.5 32.375C99.5417 33.2083 99.2917 33.8958 98.75 34.4375L94.1875 39.0625C93.6458 39.6458 92.9375 39.9167 92.0625 39.875C91.2292 39.8333 90.5208 39.5417 89.9375 39ZM98.4375 55.1875C97.6875 55.1875 97 54.8958 96.375 54.3125C95.7917 53.7292 95.5 53.0417 95.5 52.25C95.5 51.4167 95.7917 50.7292 96.375 50.1875C97 49.6042 97.6875 49.3125 98.4375 49.3125H104.75C105.583 49.3125 106.292 49.6042 106.875 50.1875C107.458 50.7292 107.75 51.4167 107.75 52.25C107.75 53.0417 107.458 53.7292 106.875 54.3125C106.292 54.8958 105.583 55.1875 104.75 55.1875H98.4375ZM94.5625 74.3125L89.9375 69.75C89.3958 69.2083 89.125 68.5208 89.125 67.6875C89.1667 66.8125 89.4375 66.1042 89.9375 65.5625C90.5625 65.0208 91.2708 64.75 92.0625 64.75C92.8958 64.75 93.6042 65.0208 94.1875 65.5625L98.75 70.0625C99.2917 70.6042 99.5417 71.2917 99.5 72.125C99.5 72.9583 99.25 73.6667 98.75 74.25C98.1667 74.7917 97.4792 75.0833 96.6875 75.125C95.8958 75.1667 95.1875 74.8958 94.5625 74.3125ZM91.8125 52.25C91.8125 54.7917 91.2292 57.1667 90.0625 59.375C88.8958 61.5417 87.2708 63.3333 85.1875 64.75C84.7292 60.3333 82.875 56.5833 79.625 53.5C76.4167 50.375 72.5 48.5208 67.875 47.9375C67.375 47.1458 66.8333 46.4167 66.25 45.75C65.6667 45.0417 65.0417 44.375 64.375 43.75C65.7083 41.7917 67.4583 40.2292 69.625 39.0625C71.7917 37.8542 74.1458 37.25 76.6875 37.25C79.5208 37.25 82.0625 37.9167 84.3125 39.25C86.6042 40.5833 88.4167 42.3958 89.75 44.6875C91.125 46.9375 91.8125 49.4583 91.8125 52.25ZM36.125 95.8125C35.8333 96.3542 35.375 96.7083 34.75 96.875C34.125 97 33.5208 96.8958 32.9375 96.5625C32.3958 96.3125 32.0417 95.875 31.875 95.25C31.7083 94.5833 31.7917 93.9792 32.125 93.4375L35.75 87.1875C36.0833 86.6042 36.5417 86.2292 37.125 86.0625C37.75 85.8958 38.3333 85.9583 38.875 86.25C39.5 86.5833 39.8958 87.0625 40.0625 87.6875C40.2292 88.3125 40.125 88.9167 39.75 89.5L36.125 95.8125ZM44.375 102.625C44.0833 103.167 43.6042 103.542 42.9375 103.75C42.3125 103.917 41.7292 103.833 41.1875 103.5C40.6042 103.167 40.2083 102.688 40 102.062C39.7917 101.438 39.875 100.854 40.25 100.312L43.625 94.375C44 93.7917 44.4792 93.4167 45.0625 93.25C45.6875 93.0833 46.2917 93.1667 46.875 93.5C47.5 93.7917 47.875 94.2708 48 94.9375C48.1667 95.5625 48.0833 96.125 47.75 96.625L44.375 102.625ZM56.9375 95.6875C56.6458 96.2708 56.1875 96.6458 55.5625 96.8125C54.9375 96.9792 54.3333 96.9167 53.75 96.625C53.1667 96.2917 52.7917 95.8125 52.625 95.1875C52.5 94.5208 52.6042 93.9167 52.9375 93.375L56.4375 87.0625C56.7708 86.5208 57.25 86.1875 57.875 86.0625C58.5417 85.8958 59.1458 85.9792 59.6875 86.3125C60.2708 86.6458 60.6458 87.125 60.8125 87.75C61.0208 88.3333 60.9583 88.9167 60.625 89.5L56.9375 95.6875ZM65.125 102.625C64.8333 103.208 64.375 103.583 63.75 103.75C63.125 103.917 62.5417 103.854 62 103.562C61.375 103.229 60.9583 102.75 60.75 102.125C60.5833 101.458 60.6667 100.854 61 100.312L64.4375 94.375C64.8125 93.8333 65.2917 93.4792 65.875 93.3125C66.5 93.1042 67.1042 93.1667 67.6875 93.5C68.2708 93.7917 68.6458 94.2708 68.8125 94.9375C68.9792 95.5625 68.9167 96.1458 68.625 96.6875L65.125 102.625Z" fill="white"/>
</svg>
