<?xml version="1.0" encoding="UTF-8"?>
<svg xmlns="http://www.w3.org/2000/svg" xmlns:xlink="http://www.w3.org/1999/xlink" width="24" height="25.263158" viewBox="0 0 24 25.263158" version="1.1">
<g id="surface1">
<path style=" stroke:none;fill-rule:nonzero;fill:rgb(100%,100%,100%);fill-opacity:1;" d="M 5.238281 15.472656 L 17.488281 15.472656 C 18.296875 15.472656 19.042969 15.332031 19.726562 15.050781 C 20.417969 14.765625 21.015625 14.371094 21.523438 13.863281 C 22.035156 13.359375 22.429688 12.773438 22.707031 12.109375 C 22.988281 11.445312 23.132812 10.734375 23.132812 9.976562 C 23.132812 9.1875 22.980469 8.464844 22.675781 7.804688 C 22.382812 7.140625 21.964844 6.566406 21.425781 6.078125 C 20.890625 5.585938 20.265625 5.203125 19.550781 4.933594 C 18.832031 4.664062 18.054688 4.53125 17.21875 4.53125 C 16.8125 3.71875 16.289062 3.015625 15.652344 2.417969 C 15.019531 1.8125 14.300781 1.34375 13.488281 1.015625 C 12.679688 0.6875 11.800781 0.523438 10.84375 0.523438 C 9.917969 0.523438 9.042969 0.695312 8.21875 1.035156 C 7.40625 1.371094 6.675781 1.839844 6.03125 2.4375 C 5.386719 3.035156 4.863281 3.734375 4.460938 4.53125 C 4.066406 5.324219 3.828125 6.179688 3.75 7.09375 C 3.152344 7.265625 2.613281 7.550781 2.140625 7.945312 C 1.667969 8.332031 1.292969 8.804688 1.015625 9.363281 C 0.738281 9.925781 0.601562 10.550781 0.601562 11.25 C 0.601562 12.027344 0.78125 12.738281 1.144531 13.382812 C 1.511719 14.019531 2.042969 14.53125 2.734375 14.910156 C 3.425781 15.285156 4.261719 15.472656 5.238281 15.472656 Z M 5.21875 13.894531 C 4.542969 13.894531 3.980469 13.78125 3.53125 13.550781 C 3.085938 13.320312 2.746094 13.011719 2.515625 12.621094 C 2.292969 12.226562 2.179688 11.785156 2.179688 11.300781 C 2.179688 10.707031 2.363281 10.167969 2.734375 9.679688 C 3.101562 9.1875 3.707031 8.828125 4.550781 8.605469 C 4.824219 8.53125 5.019531 8.425781 5.132812 8.28125 C 5.242188 8.136719 5.3125 7.925781 5.339844 7.648438 C 5.390625 6.839844 5.574219 6.097656 5.882812 5.425781 C 6.199219 4.75 6.605469 4.164062 7.105469 3.671875 C 7.605469 3.171875 8.175781 2.785156 8.8125 2.515625 C 9.457031 2.238281 10.136719 2.101562 10.84375 2.101562 C 11.957031 2.101562 12.941406 2.398438 13.796875 2.988281 C 14.652344 3.574219 15.34375 4.414062 15.878906 5.507812 C 15.988281 5.75 16.128906 5.921875 16.292969 6.019531 C 16.457031 6.113281 16.6875 6.15625 16.984375 6.15625 C 17.957031 6.15625 18.78125 6.335938 19.460938 6.691406 C 20.144531 7.039062 20.664062 7.507812 21.019531 8.09375 C 21.375 8.675781 21.550781 9.320312 21.550781 10.015625 C 21.550781 10.734375 21.378906 11.386719 21.03125 11.96875 C 20.679688 12.554688 20.207031 13.023438 19.609375 13.371094 C 19.011719 13.71875 18.335938 13.894531 17.585938 13.894531 Z M 14.238281 19.136719 L 12 19.136719 L 11.980469 19.578125 L 13.183594 17.269531 C 13.242188 17.15625 13.253906 17.066406 13.214844 16.992188 C 13.175781 16.921875 13.101562 16.886719 12.996094 16.886719 L 10.855469 16.886719 C 10.71875 16.886719 10.613281 16.910156 10.550781 16.964844 C 10.484375 17.015625 10.425781 17.09375 10.382812 17.191406 L 9.039062 20.25 C 8.988281 20.375 8.984375 20.46875 9.03125 20.535156 C 9.082031 20.609375 9.171875 20.644531 9.296875 20.644531 L 11.121094 20.644531 L 11.25 20.0625 L 9.660156 23.921875 C 9.601562 24.066406 9.625 24.15625 9.730469 24.199219 C 9.828125 24.238281 9.929688 24.203125 10.035156 24.097656 L 14.398438 19.628906 C 14.503906 19.515625 14.539062 19.40625 14.507812 19.292969 C 14.472656 19.1875 14.386719 19.136719 14.238281 19.136719 Z M 3.175781 20.320312 C 3.324219 20.40625 3.472656 20.425781 3.632812 20.378906 C 3.789062 20.332031 3.910156 20.238281 3.996094 20.09375 L 5.28125 17.871094 C 5.363281 17.71875 5.386719 17.570312 5.347656 17.417969 C 5.308594 17.261719 5.214844 17.136719 5.0625 17.042969 C 4.917969 16.957031 4.765625 16.9375 4.609375 16.984375 C 4.457031 17.023438 4.339844 17.117188 4.253906 17.269531 L 2.960938 19.519531 C 2.875 19.65625 2.851562 19.800781 2.890625 19.953125 C 2.929688 20.113281 3.027344 20.234375 3.175781 20.320312 Z M 5.09375 23.082031 C 5.238281 23.160156 5.386719 23.175781 5.546875 23.132812 C 5.703125 23.09375 5.824219 23 5.910156 22.855469 L 7.195312 20.625 C 7.28125 20.472656 7.300781 20.320312 7.261719 20.160156 C 7.222656 20.011719 7.128906 19.890625 6.976562 19.804688 C 6.824219 19.71875 6.675781 19.699219 6.523438 19.738281 C 6.371094 19.78125 6.253906 19.882812 6.167969 20.03125 L 4.863281 22.273438 C 4.785156 22.417969 4.765625 22.566406 4.804688 22.71875 C 4.84375 22.867188 4.941406 22.988281 5.09375 23.082031 Z M 16.894531 20.320312 C 17.039062 20.40625 17.191406 20.425781 17.347656 20.378906 C 17.507812 20.332031 17.628906 20.238281 17.714844 20.09375 L 18.996094 17.871094 C 19.089844 17.71875 19.113281 17.570312 19.066406 17.417969 C 19.027344 17.261719 18.933594 17.136719 18.789062 17.042969 C 18.636719 16.957031 18.488281 16.9375 18.335938 16.984375 C 18.183594 17.023438 18.0625 17.117188 17.96875 17.269531 L 16.675781 19.519531 C 16.59375 19.65625 16.570312 19.800781 16.609375 19.953125 C 16.648438 20.113281 16.742188 20.234375 16.894531 20.320312 Z M 18.808594 23.082031 C 18.953125 23.160156 19.105469 23.175781 19.261719 23.132812 C 19.421875 23.09375 19.542969 23 19.628906 22.855469 L 20.910156 20.625 C 21.003906 20.472656 21.027344 20.320312 20.980469 20.160156 C 20.941406 20.011719 20.847656 19.890625 20.703125 19.804688 C 20.550781 19.71875 20.398438 19.699219 20.238281 19.738281 C 20.089844 19.78125 19.96875 19.882812 19.886719 20.03125 L 18.59375 22.273438 C 18.507812 22.417969 18.484375 22.566406 18.523438 22.71875 C 18.5625 22.867188 18.65625 22.988281 18.808594 23.082031 Z M 18.808594 23.082031 "/>
</g>
</svg>
