<svg xmlns="http://www.w3.org/2000/svg" width="24" height="24"><path style="stroke:none;fill-rule:nonzero;fill:#fff;fill-opacity:1" d="M12 23.063c1.633 0 3.168-.293 4.605-.883a12.29 12.29 0 0 0 3.82-2.438 11.482 11.482 0 0 0 2.59-3.586c.626-1.36.938-2.804.938-4.343 0-1.536-.312-2.981-.937-4.336a11.514 11.514 0 0 0-2.59-3.594 12.22 12.22 0 0 0-3.82-2.438 12.166 12.166 0 0 0-4.618-.883c-1.633 0-3.172.293-4.617.883a12.307 12.307 0 0 0-3.809 2.438A11.523 11.523 0 0 0 .985 7.477a10.187 10.187 0 0 0-.937 4.335c0 1.54.312 2.985.937 4.344a11.438 11.438 0 0 0 2.59 3.586 12.307 12.307 0 0 0 3.809 2.438c1.445.59 2.984.883 4.617.883Zm-5.203-8.528c-.719 0-1.297-.195-1.734-.582a1.897 1.897 0 0 1-.657-1.48c0-.485.145-.903.434-1.254.289-.364.66-.617 1.113-.762a3.285 3.285 0 0 1 .61-1.547A3.71 3.71 0 0 1 7.84 7.81c.52-.27 1.105-.41 1.7-.407.694 0 1.32.164 1.874.496.555.329.996.782 1.324 1.356.836.016 1.532.273 2.086.773.555.5.832 1.114.832 1.84 0 .5-.129.953-.386 1.356-.25.406-.59.726-1.02.96-.43.235-.918.352-1.465.352Zm12.832-5.57c0 .324-.129.68-.387 1.062-.25.375-.61.707-1.078 1.004-.469.285-1.027.461-1.676.528a3.165 3.165 0 0 0-1.031-2.063c-.602-.566-1.348-.898-2.238-1.004a3.076 3.076 0 0 0-.176-.219l-.188-.222c.063-.508.254-.992.551-1.422a3.716 3.716 0 0 1 1.043-1.04c.406-.26.797-.402 1.172-.417.242-.008.363.082.363.266 0 .14-.07.34-.21.593-.141.258-.211.567-.211.918 0 .61.207 1.094.62 1.457.415.36.977.54 1.688.54.39 0 .7-.051.926-.157.234-.11.422-.164.562-.164.18 0 .27.113.27.34ZM8.332 17.063l.797-1.743c.055-.117.16-.175.316-.175h1.313c.07 0 .117.023.14.078.032.043.028.097-.011.164l-.575 1.027h1.22c.093 0 .152.035.175.11.023.066.004.128-.059.187L8.977 19.27c-.07.058-.137.074-.2.043-.062-.028-.082-.079-.058-.153l.808-1.844H8.484c-.078 0-.132-.023-.164-.078-.03-.05-.027-.11.012-.175Zm0 0"/></svg>