<?xml version="1.0" encoding="UTF-8"?>
<svg xmlns="http://www.w3.org/2000/svg" xmlns:xlink="http://www.w3.org/1999/xlink" width="24" height="15.6" viewBox="0 0 24 15.6" version="1.1">
<g id="surface1">
<path style=" stroke:none;fill-rule:nonzero;fill:rgb(100%,100%,100%);fill-opacity:1;" d="M 5.632812 14.980469 L 17.851562 14.980469 C 18.636719 14.980469 19.367188 14.839844 20.042969 14.558594 C 20.726562 14.285156 21.320312 13.898438 21.824219 13.40625 C 22.335938 12.914062 22.734375 12.335938 23.015625 11.671875 C 23.304688 11.007812 23.445312 10.296875 23.445312 9.535156 C 23.445312 8.757812 23.296875 8.042969 22.996094 7.386719 C 22.703125 6.730469 22.289062 6.160156 21.757812 5.671875 C 21.226562 5.183594 20.601562 4.804688 19.882812 4.539062 C 19.171875 4.269531 18.394531 4.136719 17.550781 4.144531 C 16.929688 2.898438 16.070312 1.925781 14.960938 1.21875 C 13.863281 0.507812 12.617188 0.148438 11.222656 0.148438 C 10.308594 0.148438 9.445312 0.320312 8.625 0.65625 C 7.8125 0.988281 7.085938 1.449219 6.449219 2.042969 C 5.8125 2.636719 5.292969 3.332031 4.894531 4.125 C 4.5 4.917969 4.265625 5.777344 4.191406 6.703125 C 3.570312 6.878906 3.023438 7.164062 2.550781 7.554688 C 2.074219 7.949219 1.703125 8.425781 1.433594 8.980469 C 1.171875 9.539062 1.039062 10.148438 1.039062 10.808594 C 1.039062 11.621094 1.230469 12.34375 1.613281 12.976562 C 1.992188 13.601562 2.527344 14.089844 3.214844 14.445312 C 3.902344 14.804688 4.710938 14.980469 5.632812 14.980469 Z M 5.632812 14.980469 "/>
</g>
</svg>
