<svg width="24" height="23" viewBox="0 0 24 23" fill="none" xmlns="http://www.w3.org/2000/svg">
<path d="M3.72656 16.0781H12.1797C12.9193 16.0781 13.5859 15.9089 14.1797 15.5703C14.7734 15.2266 15.2448 14.7656 15.5938 14.1875C15.9427 13.6094 16.1172 12.9583 16.1172 12.2344C16.1172 11.5156 15.9375 10.8724 15.5781 10.3047C15.224 9.73698 14.737 9.28646 14.1172 8.95312C13.5026 8.61979 12.8073 8.45052 12.0312 8.44531C11.724 7.86198 11.3438 7.36458 10.8906 6.95312C10.4427 6.54167 9.9401 6.22917 9.38281 6.01562C8.82552 5.79688 8.23177 5.6875 7.60156 5.6875C6.96615 5.6875 6.36458 5.80208 5.79688 6.03125C5.22917 6.26042 4.71875 6.58073 4.26562 6.99219C3.81771 7.40365 3.45312 7.88542 3.17188 8.4375C2.89583 8.98958 2.72917 9.58594 2.67188 10.2266C2.00521 10.4245 1.47396 10.7865 1.07812 11.3125C0.6875 11.8333 0.492188 12.4375 0.492188 13.125C0.492188 13.7083 0.627604 14.2214 0.898438 14.6641C1.16927 15.1068 1.54688 15.4531 2.03125 15.7031C2.52083 15.9531 3.08594 16.0781 3.72656 16.0781ZM17.0156 11.8281C17.5885 11.4375 18.0391 10.9531 18.3672 10.375C18.7005 9.79688 18.8672 9.16406 18.8672 8.47656C18.8672 7.76302 18.6953 7.11458 18.3516 6.53125C18.0078 5.94271 17.5417 5.47396 16.9531 5.125C16.3698 4.77604 15.7214 4.60156 15.0078 4.60156C14.2995 4.60156 13.6536 4.77604 13.0703 5.125C12.4922 5.47396 12.0417 5.92969 11.7188 6.49219C11.8802 6.66406 12.0312 6.84375 12.1719 7.03125C12.3125 7.21875 12.4427 7.42448 12.5625 7.64844C13.4219 7.72135 14.1719 7.9401 14.8125 8.30469C15.4531 8.66406 15.9609 9.14583 16.3359 9.75C16.7161 10.349 16.9427 11.0417 17.0156 11.8281ZM10.4766 4.86719C10.6068 4.9974 10.763 5.0625 10.9453 5.0625C11.1276 5.05729 11.2786 4.99219 11.3984 4.86719C11.5182 4.74219 11.5781 4.59115 11.5781 4.41406C11.5833 4.23698 11.5234 4.08594 11.3984 3.96094L10.1953 2.75781C10.0703 2.63281 9.91927 2.57031 9.74219 2.57031C9.5651 2.57031 9.41406 2.63281 9.28906 2.75781C9.16406 2.88281 9.09896 3.03646 9.09375 3.21875C9.09375 3.39583 9.15885 3.54688 9.28906 3.67188L10.4766 4.86719ZM15.0078 3.35938C15.1849 3.35938 15.3359 3.29688 15.4609 3.17188C15.5911 3.04167 15.6562 2.88802 15.6562 2.71094V1.02344C15.6562 0.846354 15.5911 0.695312 15.4609 0.570312C15.3359 0.440104 15.1849 0.375 15.0078 0.375C14.8307 0.375 14.6771 0.440104 14.5469 0.570312C14.4219 0.695312 14.3594 0.846354 14.3594 1.02344V2.71094C14.3594 2.88802 14.4219 3.04167 14.5469 3.17188C14.6771 3.29688 14.8307 3.35938 15.0078 3.35938ZM18.6172 4.86719C18.737 4.99219 18.888 5.05729 19.0703 5.0625C19.2578 5.0625 19.4141 4.9974 19.5391 4.86719L20.7344 3.67188C20.8594 3.54688 20.9219 3.39583 20.9219 3.21875C20.9219 3.03646 20.8594 2.88281 20.7344 2.75781C20.6094 2.63281 20.4583 2.57031 20.2812 2.57031C20.1042 2.57031 19.9531 2.63281 19.8281 2.75781L18.6172 3.96094C18.4922 4.08594 18.4297 4.23698 18.4297 4.41406C18.4349 4.59115 18.4974 4.74219 18.6172 4.86719ZM20.7578 9.125H22.4531C22.6302 9.125 22.7812 9.0625 22.9062 8.9375C23.0312 8.8125 23.0938 8.65885 23.0938 8.47656C23.0938 8.29948 23.0312 8.14844 22.9062 8.02344C22.7812 7.89323 22.6302 7.82812 22.4531 7.82812H20.7578C20.5859 7.82812 20.4349 7.89323 20.3047 8.02344C20.1745 8.14844 20.1094 8.29948 20.1094 8.47656C20.1094 8.65885 20.1745 8.8125 20.3047 8.9375C20.4349 9.0625 20.5859 9.125 20.7578 9.125ZM19.8281 14.2109C19.9531 14.3359 20.1042 14.3984 20.2812 14.3984C20.4583 14.3932 20.6094 14.3281 20.7344 14.2031C20.8594 14.0781 20.9219 13.9271 20.9219 13.75C20.9219 13.5677 20.8594 13.4167 20.7344 13.2969L19.5234 12.1016C19.3984 11.9766 19.2474 11.9141 19.0703 11.9141C18.8932 11.9141 18.7422 11.9766 18.6172 12.1016C18.4922 12.2214 18.4297 12.3724 18.4297 12.5547C18.4297 12.737 18.4922 12.8906 18.6172 13.0156L19.8281 14.2109ZM3.64844 19.8359L4.66406 18.0781C4.73698 17.9583 4.75521 17.8359 4.71875 17.7109C4.6875 17.5911 4.61458 17.4948 4.5 17.4219C4.38021 17.3542 4.26042 17.3359 4.14062 17.3672C4.02083 17.4036 3.92448 17.4818 3.85156 17.6016L2.82812 19.3828C2.76042 19.4922 2.74219 19.6068 2.77344 19.7266C2.80469 19.8516 2.88021 19.9479 3 20.0156C3.11979 20.0833 3.23958 20.099 3.35938 20.0625C3.48438 20.026 3.58073 19.9505 3.64844 19.8359ZM6.09375 22.0391L7.10938 20.2734C7.18229 20.1536 7.20052 20.0312 7.16406 19.9062C7.13281 19.7865 7.0599 19.6927 6.94531 19.625C6.82552 19.5573 6.70573 19.5391 6.58594 19.5703C6.46615 19.6068 6.36979 19.6849 6.29688 19.8047L5.27344 21.5781C5.20573 21.6927 5.1875 21.8099 5.21875 21.9297C5.25 22.0495 5.32552 22.1458 5.44531 22.2188C5.5651 22.2812 5.6849 22.2943 5.80469 22.2578C5.92969 22.2266 6.02604 22.1536 6.09375 22.0391ZM9.86719 19.8281L10.8828 18.0703C10.9505 17.9505 10.9688 17.8281 10.9375 17.7031C10.9062 17.5833 10.8307 17.487 10.7109 17.4141C10.5964 17.3464 10.4766 17.3281 10.3516 17.3594C10.2318 17.3958 10.138 17.474 10.0703 17.5938L9.04688 19.375C8.97917 19.4844 8.96094 19.599 8.99219 19.7188C9.02344 19.8438 9.09896 19.9401 9.21875 20.0078C9.33333 20.0755 9.45312 20.0911 9.57812 20.0547C9.70312 20.0182 9.79948 19.9427 9.86719 19.8281ZM12.3047 22.0312L13.3281 20.2656C13.3958 20.1458 13.4141 20.0234 13.3828 19.8984C13.3516 19.7786 13.276 19.6849 13.1562 19.6172C13.0365 19.5495 12.9167 19.5312 12.7969 19.5625C12.6771 19.599 12.5807 19.6771 12.5078 19.7969L11.4844 21.5703C11.4219 21.6849 11.4062 21.8021 11.4375 21.9219C11.4688 22.0417 11.5443 22.138 11.6641 22.2109C11.7786 22.2734 11.8984 22.2865 12.0234 22.25C12.1484 22.2188 12.2422 22.1458 12.3047 22.0312Z" fill="white"/>
</svg>
