<?xml version="1.0" encoding="UTF-8"?>
<svg xmlns="http://www.w3.org/2000/svg" xmlns:xlink="http://www.w3.org/1999/xlink" width="24" height="25.5" viewBox="0 0 24 25.5" version="1.1">
<g id="surface1">
<path style=" stroke:none;fill-rule:nonzero;fill:rgb(100%,100%,100%);fill-opacity:1;" d="M 12 24.492188 C 13.632812 24.492188 15.167969 24.179688 16.605469 23.554688 C 18.050781 22.929688 19.324219 22.066406 20.425781 20.964844 C 21.527344 19.863281 22.390625 18.59375 23.015625 17.15625 C 23.640625 15.710938 23.953125 14.171875 23.953125 12.539062 C 23.953125 10.90625 23.640625 9.371094 23.015625 7.933594 C 22.390625 6.488281 21.527344 5.214844 20.425781 4.113281 C 19.324219 3.011719 18.050781 2.148438 16.605469 1.523438 C 15.160156 0.898438 13.621094 0.585938 11.988281 0.585938 C 10.355469 0.585938 8.816406 0.898438 7.371094 1.523438 C 5.933594 2.148438 4.664062 3.011719 3.5625 4.113281 C 2.46875 5.214844 1.609375 6.488281 0.984375 7.933594 C 0.359375 9.371094 0.046875 10.90625 0.046875 12.539062 C 0.046875 14.171875 0.359375 15.710938 0.984375 17.15625 C 1.609375 18.59375 2.472656 19.863281 3.574219 20.964844 C 4.675781 22.066406 5.945312 22.929688 7.382812 23.554688 C 8.828125 24.179688 10.367188 24.492188 12 24.492188 Z M 12 22.5 C 10.617188 22.5 9.324219 22.242188 8.121094 21.726562 C 6.917969 21.210938 5.859375 20.5 4.945312 19.59375 C 4.039062 18.679688 3.328125 17.621094 2.8125 16.417969 C 2.304688 15.214844 2.050781 13.921875 2.050781 12.539062 C 2.050781 11.15625 2.304688 9.863281 2.8125 8.660156 C 3.328125 7.457031 4.039062 6.398438 4.945312 5.484375 C 5.851562 4.570312 6.90625 3.859375 8.109375 3.351562 C 9.3125 2.835938 10.605469 2.578125 11.988281 2.578125 C 13.371094 2.578125 14.664062 2.835938 15.867188 3.351562 C 17.078125 3.859375 18.136719 4.570312 19.042969 5.484375 C 19.957031 6.398438 20.671875 7.457031 21.1875 8.660156 C 21.703125 9.863281 21.960938 11.15625 21.960938 12.539062 C 21.960938 13.921875 21.703125 15.214844 21.1875 16.417969 C 20.679688 17.621094 19.96875 18.679688 19.054688 19.59375 C 18.140625 20.5 17.082031 21.210938 15.878906 21.726562 C 14.675781 22.242188 13.382812 22.5 12 22.5 Z M 6.304688 17.4375 L 12.457031 17.4375 C 13.011719 17.4375 13.511719 17.3125 13.957031 17.0625 C 14.402344 16.804688 14.753906 16.457031 15.011719 16.019531 C 15.269531 15.582031 15.398438 15.089844 15.398438 14.542969 C 15.398438 13.746094 15.113281 13.078125 14.542969 12.539062 C 13.972656 11.992188 13.253906 11.710938 12.386719 11.695312 C 12.058594 11.070312 11.609375 10.578125 11.039062 10.21875 C 10.476562 9.859375 9.839844 9.679688 9.128906 9.679688 C 8.496094 9.679688 7.914062 9.828125 7.382812 10.125 C 6.851562 10.421875 6.414062 10.820312 6.070312 11.320312 C 5.726562 11.820312 5.519531 12.382812 5.449219 13.007812 C 4.980469 13.164062 4.597656 13.4375 4.300781 13.828125 C 4.003906 14.21875 3.855469 14.671875 3.855469 15.1875 C 3.855469 15.835938 4.082031 16.375 4.535156 16.804688 C 4.988281 17.226562 5.578125 17.4375 6.304688 17.4375 Z M 11.261719 9.175781 C 11.371094 9.285156 11.503906 9.339844 11.660156 9.339844 C 11.824219 9.332031 11.960938 9.273438 12.070312 9.164062 C 12.164062 9.0625 12.214844 8.933594 12.222656 8.777344 C 12.230469 8.613281 12.179688 8.480469 12.070312 8.378906 L 11.179688 7.5 C 11.070312 7.390625 10.9375 7.339844 10.78125 7.347656 C 10.625 7.347656 10.492188 7.398438 10.382812 7.5 C 10.28125 7.601562 10.230469 7.730469 10.230469 7.886719 C 10.230469 8.035156 10.28125 8.167969 10.382812 8.285156 Z M 14.601562 8.109375 C 14.765625 8.109375 14.902344 8.054688 15.011719 7.945312 C 15.121094 7.835938 15.175781 7.703125 15.175781 7.546875 L 15.175781 6.304688 C 15.175781 6.148438 15.121094 6.015625 15.011719 5.90625 C 14.902344 5.796875 14.765625 5.742188 14.601562 5.742188 C 14.453125 5.742188 14.320312 5.796875 14.203125 5.90625 C 14.09375 6.015625 14.039062 6.148438 14.039062 6.304688 L 14.039062 7.546875 C 14.039062 7.703125 14.09375 7.835938 14.203125 7.945312 C 14.320312 8.054688 14.453125 8.109375 14.601562 8.109375 Z M 17.15625 9.164062 C 17.257812 9.273438 17.390625 9.332031 17.554688 9.339844 C 17.71875 9.339844 17.851562 9.285156 17.953125 9.175781 L 18.832031 8.285156 C 18.933594 8.167969 18.984375 8.035156 18.984375 7.886719 C 18.984375 7.730469 18.933594 7.601562 18.832031 7.5 C 18.722656 7.398438 18.589844 7.347656 18.433594 7.347656 C 18.277344 7.339844 18.144531 7.390625 18.035156 7.5 L 17.15625 8.378906 C 17.046875 8.488281 16.992188 8.621094 16.992188 8.777344 C 17 8.925781 17.054688 9.054688 17.15625 9.164062 Z M 18.773438 12.269531 L 19.992188 12.269531 C 20.15625 12.269531 20.292969 12.214844 20.402344 12.105469 C 20.511719 11.996094 20.566406 11.863281 20.566406 11.707031 C 20.566406 11.550781 20.511719 11.421875 20.402344 11.320312 C 20.292969 11.210938 20.15625 11.15625 19.992188 11.15625 L 18.773438 11.15625 C 18.617188 11.15625 18.484375 11.210938 18.375 11.320312 C 18.265625 11.421875 18.210938 11.550781 18.210938 11.707031 C 18.210938 11.863281 18.265625 11.996094 18.375 12.105469 C 18.484375 12.214844 18.617188 12.269531 18.773438 12.269531 Z M 18.035156 15.9375 C 18.144531 16.054688 18.277344 16.109375 18.433594 16.101562 C 18.589844 16.09375 18.722656 16.035156 18.832031 15.925781 C 18.933594 15.816406 18.984375 15.683594 18.984375 15.527344 C 18.992188 15.371094 18.941406 15.242188 18.832031 15.140625 L 17.953125 14.273438 C 17.84375 14.164062 17.710938 14.109375 17.554688 14.109375 C 17.398438 14.109375 17.265625 14.164062 17.15625 14.273438 C 17.054688 14.375 17 14.503906 16.992188 14.660156 C 16.992188 14.816406 17.046875 14.949219 17.15625 15.058594 Z M 17.496094 11.707031 C 17.496094 11.167969 17.367188 10.679688 17.109375 10.242188 C 16.851562 9.804688 16.503906 9.460938 16.066406 9.210938 C 15.628906 8.953125 15.140625 8.824219 14.601562 8.824219 C 14.109375 8.824219 13.652344 8.9375 13.230469 9.164062 C 12.816406 9.390625 12.484375 9.695312 12.234375 10.078125 C 12.359375 10.195312 12.476562 10.320312 12.585938 10.453125 C 12.703125 10.585938 12.808594 10.726562 12.902344 10.875 C 13.792969 10.992188 14.546875 11.347656 15.164062 11.941406 C 15.78125 12.535156 16.136719 13.257812 16.230469 14.109375 C 16.628906 13.828125 16.9375 13.480469 17.15625 13.066406 C 17.382812 12.644531 17.496094 12.191406 17.496094 11.707031 Z M 17.496094 11.707031 "/>
</g>
</svg>
