<?xml version="1.0" encoding="UTF-8"?>
<svg xmlns="http://www.w3.org/2000/svg" xmlns:xlink="http://www.w3.org/1999/xlink" width="24" height="25.5" viewBox="0 0 24 25.5" version="1.1">
<g id="surface1">
<path style=" stroke:none;fill-rule:nonzero;fill:rgb(100%,100%,100%);fill-opacity:1;" d="M 12 24.492188 C 13.632812 24.492188 15.167969 24.179688 16.605469 23.554688 C 18.050781 22.929688 19.324219 22.066406 20.425781 20.964844 C 21.527344 19.863281 22.390625 18.59375 23.015625 17.15625 C 23.640625 15.710938 23.953125 14.171875 23.953125 12.539062 C 23.953125 10.90625 23.640625 9.371094 23.015625 7.933594 C 22.390625 6.488281 21.527344 5.214844 20.425781 4.113281 C 19.324219 3.011719 18.050781 2.148438 16.605469 1.523438 C 15.160156 0.898438 13.621094 0.585938 11.988281 0.585938 C 10.355469 0.585938 8.816406 0.898438 7.371094 1.523438 C 5.933594 2.148438 4.664062 3.011719 3.5625 4.113281 C 2.46875 5.214844 1.609375 6.488281 0.984375 7.933594 C 0.359375 9.371094 0.046875 10.90625 0.046875 12.539062 C 0.046875 14.171875 0.359375 15.710938 0.984375 17.15625 C 1.609375 18.59375 2.472656 19.863281 3.574219 20.964844 C 4.675781 22.066406 5.945312 22.929688 7.382812 23.554688 C 8.828125 24.179688 10.367188 24.492188 12 24.492188 Z M 12 22.5 C 10.617188 22.5 9.324219 22.242188 8.121094 21.726562 C 6.917969 21.210938 5.859375 20.5 4.945312 19.59375 C 4.039062 18.679688 3.328125 17.621094 2.8125 16.417969 C 2.304688 15.214844 2.050781 13.921875 2.050781 12.539062 C 2.050781 11.15625 2.304688 9.863281 2.8125 8.660156 C 3.328125 7.457031 4.039062 6.398438 4.945312 5.484375 C 5.851562 4.570312 6.90625 3.859375 8.109375 3.351562 C 9.3125 2.835938 10.605469 2.578125 11.988281 2.578125 C 13.371094 2.578125 14.664062 2.835938 15.867188 3.351562 C 17.078125 3.859375 18.136719 4.570312 19.042969 5.484375 C 19.957031 6.398438 20.671875 7.457031 21.1875 8.660156 C 21.703125 9.863281 21.960938 11.15625 21.960938 12.539062 C 21.960938 13.921875 21.703125 15.214844 21.1875 16.417969 C 20.679688 17.621094 19.96875 18.679688 19.054688 19.59375 C 18.140625 20.5 17.082031 21.210938 15.878906 21.726562 C 14.675781 22.242188 13.382812 22.5 12 22.5 Z M 6.949219 15.363281 L 12.761719 15.363281 C 13.292969 15.363281 13.765625 15.242188 14.179688 15 C 14.601562 14.757812 14.933594 14.429688 15.175781 14.015625 C 15.425781 13.59375 15.550781 13.125 15.550781 12.609375 C 15.550781 11.859375 15.28125 11.226562 14.742188 10.710938 C 14.203125 10.195312 13.527344 9.929688 12.714844 9.914062 C 12.394531 9.328125 11.964844 8.863281 11.425781 8.519531 C 10.894531 8.175781 10.289062 8.003906 9.609375 8.003906 C 9.015625 8.003906 8.46875 8.144531 7.96875 8.425781 C 7.46875 8.707031 7.054688 9.085938 6.726562 9.5625 C 6.398438 10.039062 6.203125 10.570312 6.140625 11.15625 C 5.695312 11.304688 5.332031 11.5625 5.050781 11.929688 C 4.769531 12.296875 4.628906 12.730469 4.628906 13.230469 C 4.628906 13.839844 4.839844 14.347656 5.261719 14.753906 C 5.691406 15.160156 6.253906 15.363281 6.949219 15.363281 Z M 7.40625 17.847656 L 8.074219 16.699219 C 8.136719 16.597656 8.152344 16.492188 8.121094 16.382812 C 8.089844 16.273438 8.019531 16.1875 7.910156 16.125 C 7.816406 16.0625 7.710938 16.046875 7.59375 16.078125 C 7.484375 16.109375 7.402344 16.175781 7.347656 16.277344 L 6.679688 17.425781 C 6.617188 17.527344 6.601562 17.636719 6.632812 17.753906 C 6.664062 17.863281 6.730469 17.945312 6.832031 18 C 6.933594 18.054688 7.039062 18.070312 7.148438 18.046875 C 7.265625 18.015625 7.351562 17.949219 7.40625 17.847656 Z M 8.90625 19.089844 L 9.527344 18.011719 C 9.582031 17.910156 9.59375 17.804688 9.5625 17.695312 C 9.539062 17.578125 9.472656 17.488281 9.363281 17.425781 C 9.261719 17.371094 9.152344 17.359375 9.035156 17.390625 C 8.925781 17.421875 8.839844 17.488281 8.777344 17.589844 L 8.15625 18.667969 C 8.09375 18.769531 8.078125 18.878906 8.109375 18.996094 C 8.148438 19.105469 8.222656 19.191406 8.332031 19.253906 C 8.425781 19.308594 8.53125 19.320312 8.648438 19.289062 C 8.765625 19.257812 8.851562 19.191406 8.90625 19.089844 Z M 11.191406 17.847656 L 11.859375 16.710938 C 11.921875 16.601562 11.933594 16.492188 11.894531 16.382812 C 11.863281 16.273438 11.796875 16.1875 11.695312 16.125 C 11.59375 16.0625 11.484375 16.046875 11.367188 16.078125 C 11.257812 16.109375 11.171875 16.171875 11.109375 16.265625 L 10.464844 17.414062 C 10.402344 17.515625 10.382812 17.625 10.40625 17.742188 C 10.4375 17.859375 10.507812 17.945312 10.617188 18 C 10.726562 18.054688 10.835938 18.066406 10.945312 18.035156 C 11.054688 18.003906 11.136719 17.941406 11.191406 17.847656 Z M 12.679688 19.101562 L 13.3125 18.011719 C 13.367188 17.910156 13.378906 17.800781 13.347656 17.683594 C 13.316406 17.566406 13.25 17.480469 13.148438 17.425781 C 13.039062 17.371094 12.929688 17.359375 12.820312 17.390625 C 12.710938 17.421875 12.625 17.488281 12.5625 17.589844 L 11.929688 18.667969 C 11.867188 18.769531 11.851562 18.878906 11.882812 18.996094 C 11.921875 19.113281 12 19.199219 12.117188 19.253906 C 12.210938 19.316406 12.3125 19.332031 12.421875 19.300781 C 12.539062 19.261719 12.625 19.195312 12.679688 19.101562 Z M 19.40625 9.621094 C 19.40625 9.386719 19.316406 9.269531 19.136719 9.269531 C 19.003906 9.269531 18.824219 9.324219 18.597656 9.433594 C 18.371094 9.542969 18.070312 9.597656 17.695312 9.597656 C 17.007812 9.597656 16.460938 9.414062 16.054688 9.046875 C 15.65625 8.671875 15.457031 8.167969 15.457031 7.535156 C 15.457031 7.175781 15.523438 6.863281 15.65625 6.597656 C 15.796875 6.332031 15.867188 6.125 15.867188 5.976562 C 15.867188 5.789062 15.75 5.699219 15.515625 5.707031 C 15.148438 5.722656 14.769531 5.867188 14.378906 6.140625 C 13.988281 6.40625 13.648438 6.761719 13.359375 7.207031 C 13.070312 7.652344 12.894531 8.144531 12.832031 8.683594 C 12.894531 8.753906 12.953125 8.828125 13.007812 8.90625 C 13.070312 8.984375 13.128906 9.058594 13.183594 9.128906 C 14.050781 9.238281 14.777344 9.585938 15.363281 10.171875 C 15.949219 10.75 16.28125 11.457031 16.359375 12.292969 C 16.992188 12.222656 17.535156 12.039062 17.988281 11.742188 C 18.441406 11.4375 18.789062 11.089844 19.03125 10.699219 C 19.28125 10.308594 19.40625 9.949219 19.40625 9.621094 Z M 19.40625 9.621094 "/>
</g>
</svg>
