<?xml version="1.0" encoding="UTF-8"?>
<svg xmlns="http://www.w3.org/2000/svg" xmlns:xlink="http://www.w3.org/1999/xlink" width="24" height="24" viewBox="0 0 24 24" version="1.1">
<g id="surface1">
<path style=" stroke:none;fill-rule:nonzero;fill:rgb(100%,100%,100%);fill-opacity:1;" d="M 4.117188 16.117188 L 13.777344 16.117188 C 14.640625 16.117188 15.417969 15.917969 16.105469 15.527344 C 16.796875 15.128906 17.34375 14.59375 17.75 13.917969 C 18.160156 13.246094 18.367188 12.492188 18.367188 11.652344 C 18.367188 10.820312 18.15625 10.070312 17.742188 9.410156 C 17.332031 8.742188 16.769531 8.21875 16.0625 7.832031 C 15.355469 7.445312 14.554688 7.242188 13.660156 7.222656 C 13.136719 6.246094 12.429688 5.480469 11.535156 4.917969 C 10.648438 4.355469 9.652344 4.070312 8.542969 4.070312 C 7.804688 4.070312 7.105469 4.207031 6.445312 4.472656 C 5.792969 4.734375 5.207031 5.105469 4.6875 5.582031 C 4.167969 6.050781 3.746094 6.605469 3.417969 7.242188 C 3.097656 7.871094 2.898438 8.554688 2.820312 9.285156 C 2.078125 9.519531 1.476562 9.9375 1.019531 10.542969 C 0.558594 11.144531 0.332031 11.851562 0.332031 12.660156 C 0.332031 13.332031 0.488281 13.929688 0.804688 14.457031 C 1.117188 14.972656 1.558594 15.382812 2.125 15.679688 C 2.695312 15.96875 3.359375 16.117188 4.117188 16.117188 Z M 4.082031 14.6875 C 3.574219 14.6875 3.148438 14.601562 2.804688 14.429688 C 2.457031 14.25 2.195312 14.011719 2.019531 13.714844 C 1.84375 13.410156 1.757812 13.070312 1.757812 12.695312 C 1.757812 12.226562 1.90625 11.796875 2.195312 11.410156 C 2.488281 11.023438 2.964844 10.742188 3.625 10.570312 C 3.839844 10.511719 3.992188 10.425781 4.082031 10.3125 C 4.175781 10.199219 4.230469 10.03125 4.25 9.8125 C 4.304688 9.179688 4.449219 8.605469 4.6875 8.082031 C 4.929688 7.554688 5.246094 7.101562 5.632812 6.714844 C 6.027344 6.328125 6.46875 6.03125 6.964844 5.820312 C 7.464844 5.605469 7.992188 5.5 8.542969 5.5 C 9.121094 5.5 9.65625 5.605469 10.144531 5.8125 C 10.632812 6.015625 11.070312 6.3125 11.457031 6.707031 C 11.84375 7.09375 12.175781 7.566406 12.457031 8.125 C 12.550781 8.316406 12.660156 8.449219 12.785156 8.527344 C 12.917969 8.597656 13.09375 8.632812 13.320312 8.632812 C 14.089844 8.632812 14.742188 8.773438 15.277344 9.054688 C 15.820312 9.332031 16.230469 9.707031 16.507812 10.167969 C 16.789062 10.628906 16.929688 11.132812 16.929688 11.6875 C 16.929688 12.242188 16.792969 12.746094 16.519531 13.207031 C 16.242188 13.65625 15.867188 14.019531 15.394531 14.285156 C 14.921875 14.554688 14.394531 14.6875 13.804688 14.6875 Z M 17.582031 11.5625 C 18.246094 11.605469 18.863281 11.570312 19.429688 11.464844 C 19.992188 11.355469 20.507812 11.195312 20.964844 10.980469 C 21.429688 10.761719 21.835938 10.503906 22.1875 10.207031 C 22.542969 9.902344 22.847656 9.574219 23.097656 9.222656 C 23.355469 8.867188 23.554688 8.5 23.695312 8.125 C 23.84375 7.769531 23.839844 7.453125 23.679688 7.179688 C 23.519531 6.898438 23.261719 6.757812 22.910156 6.757812 C 22.644531 6.757812 22.375 6.796875 22.105469 6.875 C 21.839844 6.953125 21.46875 6.992188 20.992188 6.992188 C 20.230469 6.992188 19.589844 6.855469 19.070312 6.589844 C 18.558594 6.320312 18.167969 5.941406 17.902344 5.445312 C 17.640625 4.945312 17.507812 4.351562 17.507812 3.660156 C 17.507812 3.320312 17.535156 3.03125 17.589844 2.785156 C 17.644531 2.535156 17.695312 2.320312 17.742188 2.132812 C 17.792969 1.945312 17.820312 1.765625 17.820312 1.597656 C 17.820312 1.230469 17.679688 0.964844 17.402344 0.804688 C 17.128906 0.644531 16.792969 0.632812 16.402344 0.769531 C 15.929688 0.921875 15.484375 1.160156 15.0625 1.480469 C 14.640625 1.796875 14.269531 2.179688 13.945312 2.632812 C 13.625 3.082031 13.367188 3.582031 13.179688 4.132812 C 12.992188 4.679688 12.902344 5.261719 12.902344 5.875 C 12.902344 6.273438 12.9375 6.664062 13.007812 7.042969 C 13.082031 7.425781 13.1875 7.792969 13.332031 8.144531 L 14.8125 8.117188 C 14.414062 7.457031 14.214844 6.699219 14.214844 5.847656 C 14.214844 5.414062 14.269531 5.007812 14.382812 4.632812 C 14.503906 4.253906 14.664062 3.90625 14.867188 3.589844 C 15.074219 3.269531 15.308594 2.984375 15.570312 2.742188 C 15.839844 2.496094 16.117188 2.292969 16.410156 2.132812 L 16.507812 2.207031 C 16.4375 2.417969 16.371094 2.675781 16.3125 2.972656 C 16.253906 3.265625 16.222656 3.582031 16.222656 3.929688 C 16.222656 4.78125 16.414062 5.53125 16.792969 6.1875 C 17.179688 6.835938 17.710938 7.34375 18.382812 7.714844 C 19.054688 8.078125 19.824219 8.257812 20.6875 8.257812 C 21.003906 8.257812 21.300781 8.234375 21.582031 8.1875 C 21.867188 8.132812 22.113281 8.074219 22.320312 8.007812 L 22.382812 8.070312 C 22.234375 8.355469 22.019531 8.640625 21.742188 8.917969 C 21.46875 9.195312 21.132812 9.441406 20.730469 9.660156 C 20.332031 9.882812 19.867188 10.046875 19.339844 10.160156 C 18.816406 10.273438 18.230469 10.304688 17.582031 10.257812 Z M 11.507812 19.277344 L 9.554688 19.277344 L 9.535156 19.652344 L 10.554688 17.722656 C 10.601562 17.628906 10.605469 17.546875 10.570312 17.480469 C 10.542969 17.417969 10.476562 17.382812 10.375 17.382812 L 8.507812 17.382812 C 8.390625 17.382812 8.304688 17.40625 8.25 17.457031 C 8.195312 17.503906 8.148438 17.570312 8.105469 17.652344 L 6.964844 20.25 C 6.917969 20.355469 6.914062 20.441406 6.957031 20.5 C 7.003906 20.566406 7.082031 20.597656 7.195312 20.597656 L 8.792969 20.597656 L 8.902344 20.082031 L 7.542969 23.367188 C 7.492188 23.492188 7.507812 23.570312 7.597656 23.605469 C 7.6875 23.648438 7.777344 23.617188 7.867188 23.519531 L 11.644531 19.707031 C 11.730469 19.609375 11.761719 19.515625 11.730469 19.417969 C 11.707031 19.324219 11.632812 19.277344 11.507812 19.277344 Z M 11.507812 19.277344 "/>
</g>
</svg>
