<svg xmlns="http://www.w3.org/2000/svg" width="24" height="24"><path style="stroke:none;fill-rule:nonzero;fill:#fff;fill-opacity:1" d="M12.719 20.824c1.719 0 3.261-.168 4.625-.504 1.375-.336 2.535-.804 3.484-1.402.945-.602 1.664-1.324 2.11-2.121a2.08 2.08 0 0 0 .187-.445 1.4 1.4 0 0 0 .078-.454c0-.257-.125-.464-.375-.62-.238-.169-.574-.247-1-.247-.406 0-.723.067-.953.207a1.504 1.504 0 0 0-.531.59c-.282.64-.801 1.23-1.516 1.719-.742.496-1.64.887-2.64 1.144-1.043.27-2.192.403-3.454.403-1.78 0-3.332-.293-4.656-.887C6.754 17.617 5.73 16.773 5 15.68c-.719-1.098-1.078-2.395-1.078-3.887 0-1.473.363-2.746 1.094-3.82.73-1.078 1.75-1.91 3.062-2.496 1.324-.586 2.871-.88 4.64-.88 1.2 0 2.302.15 3.313.434.992.274 1.875.676 2.594 1.188.71.488 1.227 1.078 1.516 1.715.136.285.312.488.53.613.231.125.548.187.954.187.418 0 .75-.078 1-.238.25-.164.375-.379.375-.64a2.038 2.038 0 0 0-.078-.426 1.393 1.393 0 0 0-.172-.422c-.457-.824-1.207-1.57-2.188-2.184-.98-.617-2.14-1.097-3.484-1.441-1.344-.34-2.797-.512-4.36-.512-2.394 0-4.488.367-6.28 1.098-1.793.722-3.184 1.754-4.172 3.086C1.277 8.39.78 9.969.78 11.793c0 1.844.489 3.441 1.469 4.797.988 1.348 2.379 2.39 4.172 3.129 1.793.734 3.89 1.105 6.297 1.105ZM10.28 22.5c-.094.246-.062.434.094.57.168.149.387.235.656.27.27.031.531.008.781-.078.25-.09.418-.239.5-.457L20.86 1.609c.094-.226.059-.406-.109-.543a1.155 1.155 0 0 0-.64-.277c-.262-.039-.54-.02-.782.059-.25.082-.422.23-.515.453Zm-6.031-.078c-.094.242-.063.433.094.57.156.145.37.235.64.27.282.031.547.004.797-.082.25-.086.418-.235.5-.453L14.828 1.53c.094-.226.059-.406-.11-.543-.148-.144-.378-.242-.64-.277-.262-.04-.539-.02-.781.059a.781.781 0 0 0-.516.453Zm0 0"/></svg>