<svg width="18" height="19" viewBox="0 0 18 19" fill="none" xmlns="http://www.w3.org/2000/svg">
<path d="M0.890625 11.2656C0.322917 11.8281 0.0364583 12.4479 0.03125 13.125C0.0260417 13.7969 0.304688 14.4141 0.867188 14.9766L4.38281 18.5C4.50781 18.6198 4.65625 18.6797 4.82812 18.6797C5.00521 18.6797 5.15625 18.6198 5.28125 18.5C5.40104 18.375 5.46094 18.2266 5.46094 18.0547C5.46094 17.8828 5.40104 17.7344 5.28125 17.6094L1.89062 14.2188C1.54688 13.875 1.3724 13.513 1.36719 13.1328C1.36198 12.7526 1.52865 12.3958 1.86719 12.0625L11.3516 2.57812C11.6901 2.23958 12.0495 2.07292 12.4297 2.07812C12.8151 2.07812 13.1745 2.2474 13.5078 2.58594L16.9062 5.97656C17.026 6.10156 17.1719 6.16667 17.3438 6.17188C17.5156 6.17188 17.6615 6.10938 17.7812 5.98438C17.9062 5.85938 17.9688 5.71094 17.9688 5.53906C17.9688 5.36719 17.9062 5.21875 17.7812 5.09375L14.2656 1.57812C13.7031 1.01562 13.0859 0.736979 12.4141 0.742188C11.7422 0.747396 11.1224 1.03385 10.5547 1.60156L0.890625 11.2656ZM2.01562 15.2578L2.90625 16.1484L15.4609 3.59375L14.5703 2.70312L2.01562 15.2578ZM13.9062 4.59375L13.1719 5.34375L15.4219 7.59375C15.526 7.70312 15.651 7.75781 15.7969 7.75781C15.9427 7.75781 16.0651 7.70573 16.1641 7.60156C16.2682 7.5026 16.3203 7.38021 16.3203 7.23438C16.3255 7.08333 16.276 6.95573 16.1719 6.85156L13.9062 4.59375ZM12.3594 6.14062L11.6172 6.89062L13.875 9.14062C13.9792 9.24479 14.1042 9.29688 14.25 9.29688C14.3958 9.29688 14.5182 9.2474 14.6172 9.14844C14.7214 9.04948 14.7734 8.92708 14.7734 8.78125C14.7786 8.63542 14.7292 8.51042 14.625 8.40625L12.3594 6.14062ZM10.8125 7.6875L10.0781 8.4375L12.3281 10.6953C12.4323 10.7943 12.5573 10.8438 12.7031 10.8438C12.849 10.8438 12.9714 10.7969 13.0703 10.7031C13.1745 10.599 13.2266 10.474 13.2266 10.3281C13.2318 10.1771 13.1823 10.0521 13.0781 9.95312L10.8125 7.6875ZM9.27344 9.23438L8.53125 9.97656L10.7891 12.2344C10.8932 12.3385 11.0182 12.3906 11.1641 12.3906C11.3099 12.3906 11.4323 12.3385 11.5312 12.2344C11.6354 12.1354 11.6875 12.013 11.6875 11.8672C11.6927 11.7214 11.6432 11.5964 11.5391 11.4922L9.27344 9.23438ZM7.72656 10.7812L6.98438 11.5234L9.24219 13.7891C9.34635 13.888 9.47135 13.9375 9.61719 13.9375C9.76302 13.9375 9.88542 13.888 9.98438 13.7891C10.0885 13.6849 10.1406 13.5599 10.1406 13.4141C10.1458 13.2682 10.0964 13.1432 9.99219 13.0391L7.72656 10.7812ZM6.17969 12.3281L5.4375 13.0703L7.69531 15.3359C7.79948 15.4349 7.92448 15.4844 8.07031 15.4844C8.21615 15.4844 8.33854 15.4349 8.4375 15.3359C8.53646 15.2318 8.58594 15.1068 8.58594 14.9609C8.59115 14.8151 8.54427 14.6901 8.44531 14.5859L6.17969 12.3281ZM4.63281 13.875L3.89062 14.6172L6.14844 16.8828C6.2526 16.9818 6.3776 17.0312 6.52344 17.0312C6.66927 17.0312 6.79167 16.9818 6.89062 16.8828C6.99479 16.7786 7.04688 16.6536 7.04688 16.5078C7.05208 16.362 7.0026 16.237 6.89844 16.1328L4.63281 13.875Z" fill="white"/>
</svg>
