<svg width="128" height="128" viewBox="0 0 128 128" fill="none" xmlns="http://www.w3.org/2000/svg">
<path d="M63.9375 127.625C72.6458 127.625 80.8333 125.958 88.5 122.625C96.2083 119.292 103 114.688 108.875 108.812C114.75 102.938 119.354 96.1667 122.688 88.5C126.021 80.7917 127.688 72.5833 127.688 63.875C127.688 55.1667 126.021 46.9792 122.688 39.3125C119.354 31.6042 114.75 24.8125 108.875 18.9375C103 13.0625 96.2083 8.45833 88.5 5.125C80.7917 1.79167 72.5833 0.125 63.875 0.125C55.1667 0.125 46.9583 1.79167 39.25 5.125C31.5833 8.45833 24.8125 13.0625 18.9375 18.9375C13.1042 24.8125 8.52083 31.6042 5.1875 39.3125C1.85417 46.9792 0.1875 55.1667 0.1875 63.875C0.1875 72.5833 1.85417 80.7917 5.1875 88.5C8.52083 96.1667 13.125 102.938 19 108.812C24.875 114.688 31.6458 119.292 39.3125 122.625C47.0208 125.958 55.2292 127.625 63.9375 127.625ZM63.9375 117C56.5625 117 49.6667 115.625 43.25 112.875C36.8333 110.125 31.1875 106.333 26.3125 101.5C21.4792 96.625 17.6875 90.9792 14.9375 84.5625C12.2292 78.1458 10.875 71.25 10.875 63.875C10.875 56.5 12.2292 49.6042 14.9375 43.1875C17.6875 36.7708 21.4792 31.125 26.3125 26.25C31.1458 21.375 36.7708 17.5833 43.1875 14.875C49.6042 12.125 56.5 10.75 63.875 10.75C71.25 10.75 78.1458 12.125 84.5625 14.875C91.0208 17.5833 96.6667 21.375 101.5 26.25C106.375 31.125 110.188 36.7708 112.938 43.1875C115.688 49.6042 117.062 56.5 117.062 63.875C117.062 71.25 115.688 78.1458 112.938 84.5625C110.229 90.9792 106.438 96.625 101.562 101.5C96.6875 106.333 91.0417 110.125 84.625 112.875C78.2083 115.625 71.3125 117 63.9375 117ZM49.1875 58.125V69.6875H44.4375C40.7708 69.6875 37.6458 70.9792 35.0625 73.5625C32.4792 76.1042 31.1875 79.1875 31.1875 82.8125C31.1875 86.5208 32.4792 89.6667 35.0625 92.25C37.6458 94.8333 40.7708 96.125 44.4375 96.125C46.8958 96.125 49.125 95.5208 51.125 94.3125C53.125 93.1042 54.7083 91.5 55.875 89.5C57.0833 87.5 57.6875 85.2708 57.6875 82.8125V78.0625H69.0625V82.8125C69.0625 85.2708 69.6667 87.5 70.875 89.5C72.0833 91.5 73.6875 93.1042 75.6875 94.3125C77.6875 95.5208 79.8958 96.125 82.3125 96.125C85.9792 96.125 89.1042 94.8333 91.6875 92.25C94.2708 89.6667 95.5625 86.5208 95.5625 82.8125C95.5625 79.1875 94.2708 76.1042 91.6875 73.5625C89.1042 70.9792 85.9792 69.6875 82.3125 69.6875H77.625V58.125H82.3125C85.9792 58.125 89.1042 56.8542 91.6875 54.3125C94.2708 51.7292 95.5625 48.6042 95.5625 44.9375C95.5625 41.2708 94.2708 38.1458 91.6875 35.5625C89.1042 32.9792 85.9792 31.6875 82.3125 31.6875C79.8958 31.6875 77.6875 32.2917 75.6875 33.5C73.6875 34.7083 72.0833 36.3125 70.875 38.3125C69.6667 40.3125 69.0625 42.5208 69.0625 44.9375V49.6875H57.6875V44.9375C57.6875 42.5208 57.0833 40.3125 55.875 38.3125C54.7083 36.3125 53.125 34.7083 51.125 33.5C49.125 32.2917 46.8958 31.6875 44.4375 31.6875C40.7708 31.6875 37.6458 32.9792 35.0625 35.5625C32.4792 38.1458 31.1875 41.2708 31.1875 44.9375C31.1875 48.6042 32.4792 51.7292 35.0625 54.3125C37.6458 56.8542 40.7708 58.125 44.4375 58.125H49.1875ZM57.6875 69.75V58.0625H69.0625V69.75H57.6875ZM44.4375 49.75C43.1042 49.75 41.9583 49.2917 41 48.375C40.0833 47.4167 39.625 46.2708 39.625 44.9375C39.625 43.6458 40.1042 42.5208 41.0625 41.5625C42.0208 40.6042 43.1458 40.125 44.4375 40.125C45.7292 40.125 46.8333 40.6042 47.75 41.5625C48.7083 42.5208 49.1875 43.6458 49.1875 44.9375V49.75H44.4375ZM82.3125 49.75H77.625V44.9375C77.625 43.6458 78.0833 42.5208 79 41.5625C79.9167 40.6042 81.0208 40.125 82.3125 40.125C83.6042 40.125 84.7292 40.6042 85.6875 41.5625C86.6458 42.5208 87.125 43.6458 87.125 44.9375C87.125 46.2708 86.6458 47.4167 85.6875 48.375C84.7708 49.2917 83.6458 49.75 82.3125 49.75ZM44.4375 77.9375H49.1875V82.75C49.1875 84.0833 48.7083 85.2292 47.75 86.1875C46.8333 87.1042 45.7292 87.5625 44.4375 87.5625C43.1042 87.5625 41.9583 87.1042 41 86.1875C40.0833 85.2292 39.625 84.0833 39.625 82.75C39.625 81.4583 40.1042 80.3333 41.0625 79.375C42.0208 78.4167 43.1458 77.9375 44.4375 77.9375ZM82.3125 77.9375C83.6042 77.9375 84.7292 78.4167 85.6875 79.375C86.6458 80.3333 87.125 81.4583 87.125 82.75C87.125 84.0833 86.6458 85.2292 85.6875 86.1875C84.7708 87.1042 83.6458 87.5625 82.3125 87.5625C81.0208 87.5625 79.9167 87.1042 79 86.1875C78.0833 85.2292 77.625 84.0833 77.625 82.75V77.9375H82.3125Z" fill="white"/>
</svg>
