<svg xmlns="http://www.w3.org/2000/svg" width="24" height="24"><path style="stroke:none;fill-rule:nonzero;fill:#fff;fill-opacity:1" d="M1.484 7.563h9.454V1.104c-2.043.063-3.72.32-5.032.782-1.312.449-2.324 1.14-3.031 2.07-.707.93-1.172 2.133-1.39 3.606Zm11.563 0h9.437c-.218-1.465-.675-2.66-1.375-3.583-.699-.93-1.703-1.625-3.015-2.085-1.301-.465-2.985-.727-5.047-.79Zm-1.063 16.355c3.594 0 6.317-.703 8.172-2.105 1.856-1.395 2.782-3.45 2.782-6.157 0-1.258-.028-2.449-.079-3.582a54.869 54.869 0 0 0-.218-3.094H1.328a73.856 73.856 0 0 0-.203 3.094 79.946 79.946 0 0 0-.078 3.582c0 2.707.922 4.762 2.766 6.156 1.855 1.403 4.578 2.106 8.171 2.106Zm0 0"/></svg>