<svg width="12" height="19" viewBox="0 0 12 19" fill="none" xmlns="http://www.w3.org/2000/svg">
<path d="M5.5625 2.84375H6.42969V0.828125C6.42969 0.703125 6.38802 0.601562 6.30469 0.523438C6.22135 0.440104 6.11719 0.398438 5.99219 0.398438C5.8724 0.398438 5.77083 0.440104 5.6875 0.523438C5.60417 0.606771 5.5625 0.710938 5.5625 0.835938V2.84375ZM5.99219 6.82812C6.4349 6.82812 6.83854 6.72135 7.20312 6.50781C7.56771 6.29427 7.85677 6.00781 8.07031 5.64844C8.28385 5.28385 8.39062 4.88021 8.39062 4.4375C8.39062 3.98958 8.28385 3.58594 8.07031 3.22656C7.85677 2.86198 7.56771 2.57292 7.20312 2.35938C6.83854 2.14583 6.4349 2.03906 5.99219 2.03906C5.54948 2.03906 5.14583 2.14583 4.78125 2.35938C4.42188 2.57292 4.13542 2.86198 3.92188 3.22656C3.70833 3.58594 3.60156 3.98958 3.60156 4.4375C3.60156 4.88021 3.70833 5.28385 3.92188 5.64844C4.13542 6.00781 4.42188 6.29427 4.78125 6.50781C5.14583 6.72135 5.54948 6.82812 5.99219 6.82812ZM5.99219 5.64844C5.64323 5.64844 5.35417 5.53385 5.125 5.30469C4.89583 5.07552 4.78125 4.78646 4.78125 4.4375C4.78125 4.08333 4.89583 3.79167 5.125 3.5625C5.35417 3.33333 5.64323 3.21875 5.99219 3.21875C6.34635 3.21875 6.63802 3.33333 6.86719 3.5625C7.09635 3.79167 7.21094 4.08333 7.21094 4.4375C7.21094 4.78646 7.09635 5.07552 6.86719 5.30469C6.63802 5.53385 6.34635 5.64844 5.99219 5.64844ZM5.67188 6.20312L4.44531 5.90625L1.42969 16.0391C1.38281 16.2005 1.40365 16.3568 1.49219 16.5078C1.58073 16.6641 1.70833 16.763 1.875 16.8047C2.04167 16.8516 2.19792 16.8307 2.34375 16.7422C2.49479 16.6589 2.59635 16.5312 2.64844 16.3594L5.67188 6.20312ZM1.76562 15.5938L1.1875 17.7578C1.16146 17.8672 1.17448 17.9714 1.22656 18.0703C1.28385 18.1693 1.36719 18.2318 1.47656 18.2578C1.58594 18.2891 1.6901 18.276 1.78906 18.2188C1.88802 18.1667 1.95312 18.0833 1.98438 17.9688L2.5625 15.8125L1.76562 15.5938ZM6.32031 6.20312L9.34375 16.3594C9.39583 16.5312 9.49479 16.6589 9.64062 16.7422C9.79167 16.8307 9.95052 16.8516 10.1172 16.8047C10.2839 16.763 10.4115 16.6641 10.5 16.5078C10.5885 16.3568 10.6094 16.2005 10.5625 16.0391L7.54688 5.90625L6.32031 6.20312ZM10.2266 15.5938L9.42188 15.8125L10.0078 17.9688C10.0391 18.0833 10.1016 18.1667 10.1953 18.2188C10.2943 18.276 10.401 18.2891 10.5156 18.2578C10.625 18.2318 10.7057 18.1693 10.7578 18.0703C10.8151 17.9714 10.8281 17.8672 10.7969 17.7578L10.2266 15.5938ZM0.664062 10.5391C0.518229 10.5391 0.395833 10.5885 0.296875 10.6875C0.197917 10.7865 0.148438 10.9062 0.148438 11.0469C0.148438 11.1875 0.197917 11.3099 0.296875 11.4141C0.395833 11.513 0.518229 11.5625 0.664062 11.5625H11.3281C11.4688 11.5625 11.5885 11.513 11.6875 11.4141C11.7917 11.3099 11.8438 11.1875 11.8438 11.0469C11.8438 10.9062 11.7917 10.7865 11.6875 10.6875C11.5885 10.5885 11.4688 10.5391 11.3281 10.5391H0.664062ZM6.50781 9.70312C6.50781 9.5625 6.45573 9.44271 6.35156 9.34375C6.2526 9.23958 6.13281 9.1875 5.99219 9.1875C5.85156 9.1875 5.73177 9.23958 5.63281 9.34375C5.53385 9.44271 5.48438 9.5625 5.48438 9.70312V12.3906C5.48438 12.5312 5.53385 12.6536 5.63281 12.7578C5.73177 12.8568 5.85156 12.9062 5.99219 12.9062C6.13281 12.9062 6.2526 12.8568 6.35156 12.7578C6.45573 12.6536 6.50781 12.5312 6.50781 12.3906V9.70312Z" fill="white"/>
</svg>
