<?xml version="1.0" encoding="UTF-8"?>
<svg xmlns="http://www.w3.org/2000/svg" xmlns:xlink="http://www.w3.org/1999/xlink" width="24" height="20.4" viewBox="0 0 24 20.4" version="1.1">
<g id="surface1">
<path style=" stroke:none;fill-rule:nonzero;fill:rgb(100%,100%,100%);fill-opacity:1;" d="M 3.476562 19.246094 L 20.511719 19.246094 C 21.132812 19.246094 21.648438 19.140625 22.058594 18.929688 C 22.476562 18.722656 22.789062 18.414062 22.996094 18 C 23.203125 17.59375 23.304688 17.085938 23.304688 16.480469 L 23.304688 3.601562 C 23.304688 2.992188 23.203125 2.488281 22.996094 2.082031 C 22.789062 1.667969 22.476562 1.359375 22.058594 1.152344 C 21.648438 0.941406 21.132812 0.835938 20.511719 0.835938 L 3.476562 0.835938 C 2.859375 0.835938 2.34375 0.941406 1.929688 1.152344 C 1.519531 1.359375 1.207031 1.667969 0.992188 2.082031 C 0.789062 2.488281 0.683594 2.992188 0.683594 3.601562 L 0.683594 16.480469 C 0.683594 17.085938 0.789062 17.59375 0.992188 18 C 1.207031 18.414062 1.519531 18.722656 1.929688 18.929688 C 2.34375 19.140625 2.859375 19.246094 3.476562 19.246094 Z M 3.488281 17.738281 C 3.074219 17.738281 2.757812 17.621094 2.53125 17.390625 C 2.304688 17.164062 2.195312 16.835938 2.195312 16.40625 L 2.195312 3.675781 C 2.195312 3.242188 2.304688 2.914062 2.53125 2.691406 C 2.757812 2.460938 3.074219 2.34375 3.488281 2.34375 L 20.503906 2.34375 C 20.914062 2.34375 21.234375 2.460938 21.460938 2.691406 C 21.683594 2.914062 21.796875 3.242188 21.796875 3.675781 L 21.796875 16.40625 C 21.796875 16.835938 21.683594 17.164062 21.460938 17.390625 C 21.234375 17.621094 20.914062 17.738281 20.503906 17.738281 Z M 6.722656 9.328125 C 7.242188 9.328125 7.710938 9.203125 8.136719 8.953125 C 8.5625 8.695312 8.898438 8.355469 9.148438 7.929688 C 9.40625 7.507812 9.535156 7.035156 9.535156 6.515625 C 9.535156 6.003906 9.40625 5.535156 9.148438 5.109375 C 8.898438 4.683594 8.5625 4.34375 8.136719 4.085938 C 7.710938 3.832031 7.242188 3.703125 6.722656 3.703125 C 6.210938 3.703125 5.742188 3.832031 5.316406 4.085938 C 4.890625 4.34375 4.550781 4.683594 4.292969 5.109375 C 4.039062 5.535156 3.910156 6.003906 3.910156 6.515625 C 3.910156 7.035156 4.039062 7.507812 4.292969 7.929688 C 4.550781 8.355469 4.890625 8.695312 5.316406 8.953125 C 5.742188 9.203125 6.210938 9.328125 6.722656 9.328125 Z M 6.722656 8.4375 C 6.195312 8.4375 5.746094 8.25 5.371094 7.875 C 4.996094 7.5 4.808594 7.046875 4.808594 6.515625 C 4.808594 5.984375 4.996094 5.53125 5.371094 5.15625 C 5.746094 4.78125 6.195312 4.59375 6.722656 4.59375 C 7.253906 4.59375 7.707031 4.78125 8.082031 5.15625 C 8.457031 5.53125 8.644531 5.984375 8.644531 6.515625 C 8.644531 7.046875 8.457031 7.5 8.082031 7.875 C 7.707031 8.25 7.253906 8.4375 6.722656 8.4375 Z M 6.722656 7.996094 C 7.140625 7.996094 7.492188 7.855469 7.773438 7.574219 C 8.054688 7.289062 8.195312 6.933594 8.195312 6.515625 C 8.195312 6.101562 8.054688 5.757812 7.773438 5.476562 C 7.492188 5.1875 7.140625 5.042969 6.722656 5.042969 C 6.308594 5.042969 5.960938 5.1875 5.671875 5.476562 C 5.390625 5.757812 5.25 6.101562 5.25 6.515625 C 5.25 6.933594 5.390625 7.289062 5.671875 7.574219 C 5.960938 7.855469 6.308594 7.996094 6.722656 7.996094 Z M 13.988281 9.328125 C 14.5 9.328125 14.96875 9.203125 15.394531 8.953125 C 15.820312 8.695312 16.15625 8.355469 16.40625 7.929688 C 16.664062 7.507812 16.789062 7.035156 16.789062 6.515625 C 16.789062 6.003906 16.664062 5.535156 16.40625 5.109375 C 16.15625 4.683594 15.820312 4.34375 15.394531 4.085938 C 14.96875 3.832031 14.5 3.703125 13.988281 3.703125 C 13.46875 3.703125 12.996094 3.832031 12.570312 4.085938 C 12.148438 4.34375 11.804688 4.683594 11.550781 5.109375 C 11.300781 5.535156 11.175781 6.003906 11.175781 6.515625 C 11.175781 7.035156 11.300781 7.507812 11.550781 7.929688 C 11.804688 8.355469 12.148438 8.695312 12.570312 8.953125 C 12.996094 9.203125 13.46875 9.328125 13.988281 9.328125 Z M 13.988281 8.4375 C 13.457031 8.4375 13.003906 8.25 12.628906 7.875 C 12.253906 7.5 12.066406 7.046875 12.066406 6.515625 C 12.066406 5.984375 12.253906 5.53125 12.628906 5.15625 C 13.003906 4.78125 13.457031 4.59375 13.988281 4.59375 C 14.511719 4.59375 14.960938 4.78125 15.335938 5.15625 C 15.710938 5.53125 15.898438 5.984375 15.898438 6.515625 C 15.898438 7.046875 15.710938 7.5 15.335938 7.875 C 14.960938 8.25 14.511719 8.4375 13.988281 8.4375 Z M 13.988281 7.996094 C 14.398438 7.996094 14.746094 7.855469 15.027344 7.574219 C 15.316406 7.289062 15.460938 6.933594 15.460938 6.515625 C 15.460938 6.101562 15.316406 5.757812 15.027344 5.476562 C 14.746094 5.1875 14.398438 5.042969 13.988281 5.042969 C 13.570312 5.042969 13.214844 5.1875 12.929688 5.476562 C 12.648438 5.757812 12.507812 6.101562 12.507812 6.515625 C 12.507812 6.933594 12.648438 7.289062 12.929688 7.574219 C 13.214844 7.855469 13.570312 7.996094 13.988281 7.996094 Z M 6.722656 16.351562 C 7.242188 16.351562 7.710938 16.226562 8.136719 15.976562 C 8.5625 15.71875 8.898438 15.378906 9.148438 14.953125 C 9.40625 14.527344 9.535156 14.054688 9.535156 13.539062 C 9.535156 13.023438 9.40625 12.554688 9.148438 12.132812 C 8.898438 11.707031 8.5625 11.367188 8.136719 11.117188 C 7.710938 10.863281 7.242188 10.734375 6.722656 10.734375 C 6.210938 10.734375 5.742188 10.863281 5.316406 11.117188 C 4.890625 11.367188 4.550781 11.707031 4.292969 12.132812 C 4.039062 12.554688 3.910156 13.023438 3.910156 13.539062 C 3.910156 14.054688 4.039062 14.527344 4.292969 14.953125 C 4.550781 15.378906 4.890625 15.71875 5.316406 15.976562 C 5.742188 16.226562 6.210938 16.351562 6.722656 16.351562 Z M 6.722656 15.460938 C 6.195312 15.460938 5.746094 15.273438 5.371094 14.898438 C 4.996094 14.523438 4.808594 14.070312 4.808594 13.539062 C 4.808594 13.011719 4.996094 12.5625 5.371094 12.1875 C 5.746094 11.8125 6.195312 11.625 6.722656 11.625 C 7.253906 11.625 7.707031 11.8125 8.082031 12.1875 C 8.457031 12.5625 8.644531 13.011719 8.644531 13.539062 C 8.644531 14.070312 8.457031 14.523438 8.082031 14.898438 C 7.707031 15.273438 7.253906 15.460938 6.722656 15.460938 Z M 6.722656 15.019531 C 7.140625 15.019531 7.492188 14.878906 7.773438 14.597656 C 8.054688 14.308594 8.195312 13.957031 8.195312 13.539062 C 8.195312 13.125 8.054688 12.777344 7.773438 12.496094 C 7.492188 12.210938 7.140625 12.066406 6.722656 12.066406 C 6.308594 12.066406 5.960938 12.210938 5.671875 12.496094 C 5.390625 12.777344 5.25 13.125 5.25 13.539062 C 5.25 13.957031 5.390625 14.308594 5.671875 14.597656 C 5.960938 14.878906 6.308594 15.019531 6.722656 15.019531 Z M 13.988281 16.351562 C 14.5 16.351562 14.96875 16.226562 15.394531 15.976562 C 15.820312 15.71875 16.15625 15.378906 16.40625 14.953125 C 16.664062 14.527344 16.789062 14.054688 16.789062 13.539062 C 16.789062 13.023438 16.664062 12.554688 16.40625 12.132812 C 16.15625 11.707031 15.820312 11.367188 15.394531 11.117188 C 14.96875 10.863281 14.5 10.734375 13.988281 10.734375 C 13.46875 10.734375 12.996094 10.863281 12.570312 11.117188 C 12.148438 11.367188 11.804688 11.707031 11.550781 12.132812 C 11.300781 12.554688 11.175781 13.023438 11.175781 13.539062 C 11.175781 14.054688 11.300781 14.527344 11.550781 14.953125 C 11.804688 15.378906 12.148438 15.71875 12.570312 15.976562 C 12.996094 16.226562 13.46875 16.351562 13.988281 16.351562 Z M 13.988281 15.460938 C 13.457031 15.460938 13.003906 15.273438 12.628906 14.898438 C 12.253906 14.523438 12.066406 14.070312 12.066406 13.539062 C 12.066406 13.011719 12.253906 12.5625 12.628906 12.1875 C 13.003906 11.8125 13.457031 11.625 13.988281 11.625 C 14.511719 11.625 14.960938 11.8125 15.335938 12.1875 C 15.710938 12.5625 15.898438 13.011719 15.898438 13.539062 C 15.898438 14.070312 15.710938 14.523438 15.335938 14.898438 C 14.960938 15.273438 14.511719 15.460938 13.988281 15.460938 Z M 13.988281 15.019531 C 14.398438 15.019531 14.746094 14.878906 15.027344 14.597656 C 15.316406 14.308594 15.460938 13.957031 15.460938 13.539062 C 15.460938 13.125 15.316406 12.777344 15.027344 12.496094 C 14.746094 12.210938 14.398438 12.066406 13.988281 12.066406 C 13.570312 12.066406 13.214844 12.210938 12.929688 12.496094 C 12.648438 12.777344 12.507812 13.125 12.507812 13.539062 C 12.507812 13.957031 12.648438 14.308594 12.929688 14.597656 C 13.214844 14.878906 13.570312 15.019531 13.988281 15.019531 Z M 19.667969 6.816406 C 19.898438 6.816406 20.09375 6.738281 20.25 6.582031 C 20.40625 6.417969 20.484375 6.222656 20.484375 5.992188 C 20.484375 5.765625 20.40625 5.574219 20.25 5.417969 C 20.09375 5.257812 19.898438 5.175781 19.667969 5.175781 C 19.445312 5.175781 19.25 5.257812 19.085938 5.417969 C 18.925781 5.574219 18.84375 5.765625 18.84375 5.992188 C 18.84375 6.222656 18.925781 6.417969 19.085938 6.582031 C 19.25 6.738281 19.445312 6.816406 19.667969 6.816406 Z M 19.667969 9.507812 C 19.898438 9.507812 20.09375 9.429688 20.25 9.273438 C 20.40625 9.109375 20.484375 8.914062 20.484375 8.679688 C 20.484375 8.457031 20.40625 8.265625 20.25 8.109375 C 20.09375 7.945312 19.898438 7.867188 19.667969 7.867188 C 19.445312 7.867188 19.25 7.945312 19.085938 8.109375 C 18.925781 8.265625 18.84375 8.457031 18.84375 8.679688 C 18.84375 8.914062 18.925781 9.109375 19.085938 9.273438 C 19.25 9.429688 19.445312 9.507812 19.667969 9.507812 Z M 19.667969 12.207031 C 19.898438 12.207031 20.09375 12.125 20.25 11.960938 C 20.40625 11.800781 20.484375 11.605469 20.484375 11.382812 C 20.484375 11.148438 20.40625 10.957031 20.25 10.800781 C 20.09375 10.644531 19.898438 10.566406 19.667969 10.566406 C 19.445312 10.566406 19.25 10.644531 19.085938 10.800781 C 18.925781 10.957031 18.84375 11.148438 18.84375 11.382812 C 18.84375 11.605469 18.925781 11.800781 19.085938 11.960938 C 19.25 12.125 19.445312 12.207031 19.667969 12.207031 Z M 19.667969 14.898438 C 19.898438 14.898438 20.09375 14.820312 20.25 14.664062 C 20.40625 14.5 20.484375 14.304688 20.484375 14.070312 C 20.484375 13.847656 20.40625 13.65625 20.25 13.5 C 20.09375 13.335938 19.898438 13.257812 19.667969 13.257812 C 19.445312 13.257812 19.25 13.335938 19.085938 13.5 C 18.925781 13.65625 18.84375 13.847656 18.84375 14.070312 C 18.84375 14.304688 18.925781 14.5 19.085938 14.664062 C 19.25 14.820312 19.445312 14.898438 19.667969 14.898438 Z M 19.667969 14.898438 "/>
</g>
</svg>
