<svg width="148" height="108" viewBox="0 0 148 108" fill="none" xmlns="http://www.w3.org/2000/svg">
<path d="M26.5 87.9375C24.6667 87.9375 23.1875 87.375 22.0625 86.25C20.9375 85.125 20.375 83.6875 20.375 81.9375V70.375C20.375 68.5833 20.9375 67.1458 22.0625 66.0625C23.1875 64.9375 24.6667 64.375 26.5 64.375H41.8125C43.6458 64.375 45.125 64.9375 46.25 66.0625C47.375 67.1458 47.9375 68.5833 47.9375 70.375V81.9375C47.9375 83.6875 47.375 85.125 46.25 86.25C45.125 87.375 43.6458 87.9375 41.8125 87.9375H26.5ZM0.9375 39.9375V25.75H147.812V39.9375H0.9375ZM20.5625 107.312H128.188C134.729 107.312 139.625 105.688 142.875 102.438C146.167 99.2292 147.812 94.4167 147.812 88V19.9375C147.812 13.5208 146.167 8.6875 142.875 5.4375C139.625 2.1875 134.729 0.5625 128.188 0.5625H20.5625C14.0208 0.5625 9.10417 2.1875 5.8125 5.4375C2.5625 8.64583 0.9375 13.4792 0.9375 19.9375V88C0.9375 94.4167 2.5625 99.2292 5.8125 102.438C9.10417 105.688 14.0208 107.312 20.5625 107.312Z" fill="white"/>
</svg>
