<?xml version="1.0" encoding="UTF-8"?>
<svg xmlns="http://www.w3.org/2000/svg" xmlns:xlink="http://www.w3.org/1999/xlink" width="24" height="17.142857" viewBox="0 0 24 17.142857" version="1.1">
<g id="surface1">
<path style=" stroke:none;fill-rule:nonzero;fill:rgb(100%,100%,100%);fill-opacity:1;" d="M 3.730469 16.042969 L 10.992188 16.042969 L 10.992188 14.605469 L 3.757812 14.605469 C 3.3125 14.605469 2.96875 14.492188 2.722656 14.257812 C 2.484375 14.019531 2.367188 13.667969 2.367188 13.207031 L 2.367188 3.644531 C 2.367188 3.179688 2.484375 2.828125 2.722656 2.589844 C 2.96875 2.351562 3.3125 2.230469 3.757812 2.230469 L 19.089844 2.230469 C 19.53125 2.230469 19.867188 2.351562 20.105469 2.589844 C 20.351562 2.828125 20.472656 3.179688 20.472656 3.644531 L 20.472656 9.375 C 20.722656 9.328125 20.96875 9.304688 21.207031 9.304688 C 21.324219 9.304688 21.445312 9.308594 21.5625 9.320312 C 21.679688 9.328125 21.796875 9.34375 21.910156 9.367188 L 21.910156 3.5625 C 21.910156 2.644531 21.679688 1.957031 21.214844 1.492188 C 20.75 1.027344 20.046875 0.792969 19.105469 0.792969 L 3.730469 0.792969 C 2.804688 0.792969 2.105469 1.027344 1.632812 1.492188 C 1.164062 1.949219 0.929688 2.640625 0.929688 3.5625 L 0.929688 13.285156 C 0.929688 14.203125 1.164062 14.890625 1.632812 15.347656 C 2.105469 15.8125 2.804688 16.042969 3.730469 16.042969 Z M 1.660156 6.375 L 21.195312 6.375 L 21.195312 4.347656 L 1.660156 4.347656 Z M 12.777344 16.917969 C 12.957031 16.917969 13.097656 16.867188 13.207031 16.757812 C 13.3125 16.652344 13.367188 16.511719 13.367188 16.339844 L 13.367188 11.167969 C 13.367188 10.984375 13.304688 10.835938 13.1875 10.722656 C 13.074219 10.609375 12.921875 10.554688 12.730469 10.554688 C 12.554688 10.554688 12.367188 10.621094 12.167969 10.757812 L 10.820312 11.632812 C 10.613281 11.765625 10.507812 11.933594 10.507812 12.144531 C 10.507812 12.285156 10.554688 12.40625 10.652344 12.5 C 10.753906 12.589844 10.878906 12.632812 11.027344 12.632812 C 11.140625 12.632812 11.253906 12.59375 11.367188 12.519531 L 12.160156 12.019531 L 12.214844 12.019531 L 12.214844 16.339844 C 12.214844 16.511719 12.265625 16.652344 12.367188 16.757812 C 12.472656 16.867188 12.609375 16.917969 12.777344 16.917969 Z M 14.722656 16.839844 L 18.082031 16.839844 C 18.242188 16.839844 18.371094 16.789062 18.472656 16.6875 C 18.574219 16.59375 18.625 16.46875 18.625 16.3125 C 18.625 16.152344 18.574219 16.019531 18.472656 15.910156 C 18.371094 15.808594 18.242188 15.757812 18.082031 15.757812 L 15.957031 15.757812 L 15.957031 15.714844 L 17.125 14.554688 C 17.617188 14.066406 17.957031 13.664062 18.144531 13.347656 C 18.332031 13.03125 18.429688 12.707031 18.429688 12.367188 C 18.429688 11.84375 18.226562 11.40625 17.820312 11.054688 C 17.417969 10.695312 16.90625 10.519531 16.292969 10.519531 C 15.820312 10.519531 15.394531 10.644531 15.019531 10.894531 C 14.644531 11.136719 14.390625 11.457031 14.257812 11.847656 C 14.234375 11.914062 14.214844 11.980469 14.195312 12.054688 C 14.183594 12.125 14.179688 12.195312 14.179688 12.269531 C 14.179688 12.429688 14.226562 12.558594 14.320312 12.660156 C 14.421875 12.757812 14.550781 12.804688 14.707031 12.804688 C 14.980469 12.804688 15.15625 12.65625 15.230469 12.367188 C 15.238281 12.332031 15.242188 12.296875 15.25 12.269531 C 15.261719 12.230469 15.277344 12.199219 15.292969 12.167969 C 15.480469 11.777344 15.8125 11.582031 16.292969 11.582031 C 16.5625 11.582031 16.792969 11.664062 16.980469 11.832031 C 17.171875 11.992188 17.269531 12.183594 17.269531 12.410156 C 17.269531 12.613281 17.207031 12.808594 17.082031 13 C 16.960938 13.183594 16.710938 13.464844 16.332031 13.839844 L 14.4375 15.722656 C 14.246094 15.902344 14.152344 16.09375 14.152344 16.292969 C 14.152344 16.457031 14.207031 16.585938 14.3125 16.6875 C 14.417969 16.789062 14.554688 16.839844 14.722656 16.839844 Z M 21.214844 16.929688 C 21.894531 16.929688 22.453125 16.746094 22.894531 16.382812 C 23.332031 16.019531 23.554688 15.5625 23.554688 15.007812 C 23.554688 14.585938 23.417969 14.230469 23.152344 13.9375 C 22.890625 13.640625 22.554688 13.46875 22.152344 13.429688 L 22.152344 13.742188 C 22.515625 13.632812 22.796875 13.449219 23 13.1875 C 23.203125 12.917969 23.304688 12.605469 23.304688 12.242188 C 23.304688 11.742188 23.105469 11.332031 22.707031 11.007812 C 22.3125 10.679688 21.8125 10.519531 21.207031 10.519531 C 20.746094 10.519531 20.339844 10.617188 19.980469 10.8125 C 19.625 11.007812 19.367188 11.273438 19.214844 11.605469 C 19.171875 11.691406 19.140625 11.78125 19.117188 11.875 C 19.097656 11.964844 19.089844 12.054688 19.089844 12.144531 C 19.089844 12.296875 19.136719 12.425781 19.230469 12.527344 C 19.332031 12.621094 19.460938 12.667969 19.617188 12.667969 C 19.753906 12.667969 19.863281 12.636719 19.945312 12.570312 C 20.03125 12.507812 20.09375 12.40625 20.132812 12.277344 C 20.210938 12.050781 20.335938 11.878906 20.507812 11.757812 C 20.6875 11.640625 20.910156 11.582031 21.179688 11.582031 C 21.480469 11.582031 21.71875 11.648438 21.894531 11.785156 C 22.066406 11.921875 22.152344 12.105469 22.152344 12.339844 C 22.152344 12.582031 22.058594 12.777344 21.875 12.917969 C 21.695312 13.054688 21.453125 13.125 21.144531 13.125 L 20.695312 13.125 C 20.542969 13.125 20.417969 13.175781 20.320312 13.277344 C 20.226562 13.371094 20.179688 13.492188 20.179688 13.644531 C 20.179688 13.792969 20.226562 13.914062 20.320312 14.007812 C 20.417969 14.105469 20.542969 14.152344 20.695312 14.152344 L 21.152344 14.152344 C 21.542969 14.152344 21.84375 14.226562 22.054688 14.375 C 22.261719 14.519531 22.367188 14.730469 22.367188 15.007812 C 22.367188 15.257812 22.261719 15.460938 22.054688 15.617188 C 21.84375 15.777344 21.570312 15.855469 21.222656 15.855469 C 20.914062 15.855469 20.65625 15.792969 20.445312 15.667969 C 20.242188 15.550781 20.105469 15.382812 20.035156 15.160156 C 19.992188 15.023438 19.929688 14.921875 19.839844 14.855469 C 19.75 14.796875 19.640625 14.769531 19.507812 14.769531 C 19.347656 14.769531 19.214844 14.820312 19.105469 14.917969 C 19.007812 15.019531 18.957031 15.152344 18.957031 15.3125 C 18.957031 15.402344 18.96875 15.488281 18.992188 15.570312 C 19.015625 15.660156 19.046875 15.746094 19.089844 15.832031 C 19.28125 16.175781 19.554688 16.445312 19.917969 16.632812 C 20.289062 16.832031 20.71875 16.929688 21.214844 16.929688 Z M 21.214844 16.929688 "/>
</g>
</svg>
