<?xml version="1.0" encoding="UTF-8"?>
<svg xmlns="http://www.w3.org/2000/svg" xmlns:xlink="http://www.w3.org/1999/xlink" width="24" height="18" viewBox="0 0 24 18" version="1.1">
<g id="surface1">
<path style=" stroke:none;fill-rule:nonzero;fill:rgb(100%,100%,100%);fill-opacity:1;" d="M 4.820312 13.941406 C 4.542969 13.941406 4.320312 13.855469 4.152344 13.6875 C 3.984375 13.519531 3.898438 13.304688 3.898438 13.039062 L 3.898438 11.304688 C 3.898438 11.039062 3.984375 10.820312 4.152344 10.660156 C 4.320312 10.492188 4.542969 10.40625 4.820312 10.40625 L 7.117188 10.40625 C 7.390625 10.40625 7.613281 10.492188 7.78125 10.660156 C 7.949219 10.820312 8.035156 11.039062 8.035156 11.304688 L 8.035156 13.039062 C 8.035156 13.304688 7.949219 13.519531 7.78125 13.6875 C 7.613281 13.855469 7.390625 13.941406 7.117188 13.941406 Z M 0.984375 6.742188 L 0.984375 4.613281 L 23.015625 4.613281 L 23.015625 6.742188 Z M 3.929688 16.847656 L 20.070312 16.847656 C 21.054688 16.847656 21.789062 16.601562 22.273438 16.117188 C 22.769531 15.632812 23.015625 14.914062 23.015625 13.949219 L 23.015625 3.742188 C 23.015625 2.777344 22.769531 2.054688 22.273438 1.566406 C 21.789062 1.078125 21.054688 0.835938 20.070312 0.835938 L 3.929688 0.835938 C 2.945312 0.835938 2.210938 1.078125 1.714844 1.566406 C 1.226562 2.046875 0.984375 2.773438 0.984375 3.742188 L 0.984375 13.949219 C 0.984375 14.914062 1.226562 15.632812 1.714844 16.117188 C 2.210938 16.601562 2.945312 16.847656 3.929688 16.847656 Z M 3.929688 16.847656 "/>
</g>
</svg>
