<svg xmlns="http://www.w3.org/2000/svg" width="24" height="24"><path style="stroke:none;fill-rule:nonzero;fill:#fff;fill-opacity:1" d="M.047 11.8c0 .923.117 1.81.351 2.669.235.863.567 1.68.997 2.449l2.027-1.906a.662.662 0 0 1 .469-.188c.187 0 .347.063.48.188s.2.273.2.453a.562.562 0 0 1-.2.45l-2.273 2.14c.14.191.289.379.445.562.156.184.316.363.48.54L19.828 3.351a6.47 6.47 0 0 0-.586-.45c-.195-.148-.394-.289-.597-.422l-2.297 2.165a.687.687 0 0 1-.961 0 .597.597 0 0 1-.2-.442.64.64 0 0 1 .2-.465l2.039-1.906a11.717 11.717 0 0 0-2.602-.95 12.132 12.132 0 0 0-2.836-.331c-1.633 0-3.172.293-4.617.883A12.307 12.307 0 0 0 3.562 3.87 11.523 11.523 0 0 0 .985 7.465 10.2 10.2 0 0 0 .047 11.8Zm14.508-5.468-1.606 1.512a.718.718 0 0 1-.96 0 .661.661 0 0 1-.2-.453c0-.176.066-.329.2-.454l1.616-1.511a.679.679 0 0 1 .47-.176.64.64 0 0 1 .68.64.59.59 0 0 1-.2.442Zm-3.387 3.2-1.617 1.507a.665.665 0 0 1-.469.18.712.712 0 0 1-.48-.18.61.61 0 0 1 0-.902l1.605-1.512a.714.714 0 0 1 .945.016.616.616 0 0 1 .016.89ZM7.77 12.718l-1.594 1.508a.704.704 0 0 1-.492.187.649.649 0 0 1-.47-.187.565.565 0 0 1-.21-.442.635.635 0 0 1 .21-.45l1.595-1.523a.619.619 0 0 1 .48-.187c.188 0 .348.063.48.188.133.124.2.277.2.453a.562.562 0 0 1-.2.449ZM12 23.05c1.633 0 3.168-.293 4.605-.883a12.22 12.22 0 0 0 3.82-2.438 11.467 11.467 0 0 0 2.59-3.582c.626-1.363.938-2.808.938-4.347 0-.91-.117-1.797-.351-2.656a10.576 10.576 0 0 0-.997-2.45l-2.027 1.899a.677.677 0 0 1-.95 0 .66.66 0 0 1-.21-.453c0-.168.07-.32.21-.454l2.274-2.128c-.14-.192-.289-.38-.445-.563a6.094 6.094 0 0 0-.469-.539L4.184 20.262c.187.152.378.3.574.441.195.145.394.285.597.418l2.297-2.16c.141-.14.301-.207.48-.2.18.005.352.075.481.2.133.125.2.27.2.441a.557.557 0 0 1-.2.45l-2.05 1.93A12.143 12.143 0 0 0 12 23.051Zm6.785-12.781-1.594 1.52a.66.66 0 0 1-.48.187.738.738 0 0 1-.48-.188.61.61 0 0 1 0-.902l1.605-1.512a.662.662 0 0 1 .469-.188c.187 0 .347.063.48.188a.54.54 0 0 1 .2.441c0 .168-.07.332-.2.454Zm-3.387 3.199-1.605 1.496a.642.642 0 0 1-.48.2.693.693 0 0 1-.481-.196.567.567 0 0 1-.2-.446c0-.183.067-.335.2-.46l1.617-1.5a.662.662 0 0 1 .469-.188c.187 0 .348.063.48.188a.61.61 0 0 1 0 .902Zm-3.386 3.183-1.617 1.512a.66.66 0 0 1-.48.188.649.649 0 0 1-.47-.188.585.585 0 0 1-.199-.441.63.63 0 0 1 .2-.461l1.605-1.512a.635.635 0 0 1 .48-.176c.188 0 .348.059.48.176.134.133.2.285.2.465a.564.564 0 0 1-.2.437Zm0 0"/></svg>