<svg width="128" height="128" viewBox="0 0 128 128" fill="none" xmlns="http://www.w3.org/2000/svg">
<path d="M0.1875 63.875C0.1875 69.0833 0.8125 74.125 2.0625 79C3.3125 83.875 5.08333 88.5 7.375 92.875L18.1875 82.0625C18.8958 81.3542 19.7292 81 20.6875 81C21.6875 81 22.5417 81.3542 23.25 82.0625C23.9583 82.7708 24.3125 83.625 24.3125 84.625C24.3542 85.5833 24 86.4375 23.25 87.1875L11.125 99.3125C11.875 100.396 12.6667 101.458 13.5 102.5C14.3333 103.542 15.1875 104.562 16.0625 105.562L105.688 16C104.688 15.0833 103.646 14.2292 102.562 13.4375C101.521 12.6042 100.458 11.8125 99.375 11.0625L87.125 23.3125C86.375 24.0625 85.5 24.4375 84.5 24.4375C83.5417 24.3958 82.7083 24.0208 82 23.3125C81.2917 22.6042 80.9375 21.7708 80.9375 20.8125C80.9375 19.8125 81.2917 18.9375 82 18.1875L92.875 7.375C88.5417 5.04167 83.9167 3.25 79 2C74.125 0.75 69.0833 0.125 63.875 0.125C55.1667 0.125 46.9583 1.79167 39.25 5.125C31.5833 8.45833 24.8125 13.0625 18.9375 18.9375C13.1042 24.8125 8.52083 31.6042 5.1875 39.3125C1.85417 46.9792 0.1875 55.1667 0.1875 63.875ZM77.5625 32.875L69 41.4375C68.2917 42.1458 67.4375 42.5 66.4375 42.5C65.4792 42.5 64.625 42.1458 63.875 41.4375C63.2083 40.7292 62.8542 39.875 62.8125 38.875C62.8125 37.875 63.1667 37.0208 63.875 36.3125L72.5 27.75C73.2083 27.0833 74.0417 26.75 75 26.75C76 26.7083 76.8542 27.0417 77.5625 27.75C78.2708 28.5 78.625 29.375 78.625 30.375C78.625 31.3333 78.2708 32.1667 77.5625 32.875ZM59.5 51L50.875 59.5625C50.2083 60.2292 49.375 60.5625 48.375 60.5625C47.375 60.5625 46.5208 60.2292 45.8125 59.5625C45.1042 58.8125 44.75 57.9583 44.75 57C44.75 56 45.1042 55.1458 45.8125 54.4375L54.375 45.875C55.125 45.1667 55.9792 44.8125 56.9375 44.8125C57.9375 44.8125 58.7917 45.1667 59.5 45.875C60.2083 46.5833 60.5625 47.4375 60.5625 48.4375C60.5625 49.4375 60.2083 50.2917 59.5 51ZM41.375 69.0625L32.875 77.625C32.125 78.3333 31.25 78.6875 30.25 78.6875C29.2917 78.6875 28.4583 78.3333 27.75 77.625C27 76.9167 26.625 76.0833 26.625 75.125C26.6667 74.125 27.0417 73.2708 27.75 72.5625L36.25 63.9375C36.9583 63.1875 37.8125 62.8333 38.8125 62.875C39.8125 62.875 40.6667 63.2292 41.375 63.9375C42.0833 64.6458 42.4375 65.5 42.4375 66.5C42.4792 67.4583 42.125 68.3125 41.375 69.0625ZM63.9375 127.625C72.6458 127.625 80.8333 125.958 88.5 122.625C96.2083 119.292 103 114.688 108.875 108.812C114.75 102.938 119.354 96.1667 122.688 88.5C126.021 80.7917 127.688 72.5833 127.688 63.875C127.688 58.7083 127.062 53.6875 125.812 48.8125C124.562 43.8958 122.792 39.2708 120.5 34.9375L109.688 45.6875C108.938 46.4375 108.083 46.8125 107.125 46.8125C106.167 46.7708 105.333 46.3958 104.625 45.6875C103.917 44.9375 103.542 44.0833 103.5 43.125C103.5 42.1667 103.875 41.3125 104.625 40.5625L116.75 28.5C116 27.4167 115.208 26.3542 114.375 25.3125C113.583 24.2292 112.75 23.2083 111.875 22.25L22.25 111.812C23.25 112.688 24.2708 113.521 25.3125 114.312C26.3542 115.146 27.4167 115.938 28.5 116.688L40.75 104.438C41.5 103.646 42.3542 103.271 43.3125 103.312C44.3125 103.354 45.1667 103.729 45.875 104.438C46.5833 105.146 46.9375 105.979 46.9375 106.938C46.9792 107.896 46.625 108.75 45.875 109.5L34.9375 120.438C39.3125 122.729 43.9375 124.5 48.8125 125.75C53.6875 127 58.7292 127.625 63.9375 127.625ZM100.125 55.1875L91.625 63.8125C90.9167 64.5208 90.0625 64.875 89.0625 64.875C88.0625 64.8333 87.2083 64.4792 86.5 63.8125C85.7917 63.0625 85.4375 62.2083 85.4375 61.25C85.4375 60.25 85.7917 59.3958 86.5 58.6875L95.0625 50.125C95.7708 49.4167 96.6042 49.0625 97.5625 49.0625C98.5625 49.0625 99.4167 49.4167 100.125 50.125C100.875 50.8333 101.229 51.6667 101.188 52.625C101.188 53.5833 100.833 54.4375 100.125 55.1875ZM82.0625 73.3125L73.5 81.8125C72.7917 82.5625 71.9375 82.9375 70.9375 82.9375C69.9792 82.9375 69.125 82.5625 68.375 81.8125C67.6667 81.1458 67.3125 80.3125 67.3125 79.3125C67.3125 78.2708 67.6667 77.3958 68.375 76.6875L77 68.1875C77.7083 67.4792 78.5417 67.125 79.5 67.125C80.5 67.125 81.3542 67.4792 82.0625 68.1875C82.7708 68.8958 83.125 69.75 83.125 70.75C83.125 71.7083 82.7708 72.5625 82.0625 73.3125ZM64 91.375L55.375 99.9375C54.6667 100.646 53.8125 101 52.8125 101C51.8542 101 51.0208 100.646 50.3125 99.9375C49.6042 99.2292 49.25 98.3958 49.25 97.4375C49.25 96.4375 49.6042 95.5625 50.3125 94.8125L58.875 86.25C59.5833 85.5417 60.4375 85.2083 61.4375 85.25C62.4375 85.25 63.2917 85.5833 64 86.25C64.7083 87 65.0625 87.875 65.0625 88.875C65.0625 89.875 64.7083 90.7083 64 91.375Z" fill="white"/>
</svg>
