<svg xmlns="http://www.w3.org/2000/svg" width="24" height="24"><path style="stroke:none;fill-rule:nonzero;fill:#fff;fill-opacity:1" d="m5.086 19.379 15.223-14.34-1.114-1.047L3.961 18.32ZM3.69 14.922 2.133 16.39a.548.548 0 0 0-.2.43c0 .167.067.312.2.429a.622.622 0 0 0 .457.188c.18 0 .336-.063.469-.188l1.546-1.457a.537.537 0 0 0 .188-.43.615.615 0 0 0-.188-.441.637.637 0 0 0-.457-.188.624.624 0 0 0-.457.188Zm3.282-3.098-1.547 1.469a.546.546 0 0 0-.2.426c0 .172.067.316.2.441.12.117.285.18.457.176.18 0 .336-.055.469-.176l1.546-1.465a.566.566 0 0 0 .188-.441.574.574 0 0 0-.188-.43.622.622 0 0 0-.457-.187.658.658 0 0 0-.468.187Zm3.293-3.097L8.707 10.19a.56.56 0 0 0-.187.43c0 .168.062.316.187.441.133.118.29.176.469.176.18 0 .332-.058.457-.175l1.558-1.47c.125-.109.2-.265.2-.429a.631.631 0 0 0-.407-.57.696.696 0 0 0-.718.129Zm3.293-3.102L12 7.09a.595.595 0 0 0-.137.676c.102.234.34.382.606.386a.61.61 0 0 0 .457-.191l1.558-1.465a.574.574 0 0 0 .188-.43.615.615 0 0 0-.188-.441.697.697 0 0 0-.925 0Zm3.293-3.09-1.559 1.457a.571.571 0 0 0-.2.442c0 .164.067.304.2.43.121.113.285.179.457.187.18 0 .336-.063.469-.188l1.558-1.465a.577.577 0 0 0 .188-.433.574.574 0 0 0-.188-.43.672.672 0 0 0-.468-.187.62.62 0 0 0-.457.191Zm-9.07 16.203-1.548 1.457a.585.585 0 0 0-.199.442c0 .168.067.312.2.43a.622.622 0 0 0 .456.187c.18 0 .332-.063.457-.188l1.559-1.468a.548.548 0 0 0 .2-.43.548.548 0 0 0-.2-.43.697.697 0 0 0-.469-.175.612.612 0 0 0-.457.175Zm3.292-3.11-1.558 1.47a.606.606 0 0 0-.188.437c0 .172.063.313.188.434.132.125.289.187.468.187.18 0 .332-.062.457-.187L12 16.5a.548.548 0 0 0 .2-.43.585.585 0 0 0-.2-.441.726.726 0 0 0-.469-.168.627.627 0 0 0-.457.168Zm3.293-3.085-1.558 1.453a.585.585 0 0 0-.2.441c0 .168.067.313.2.43a.662.662 0 0 0 .926 0l1.558-1.457a.6.6 0 0 0 .187-.441.56.56 0 0 0-.187-.43.658.658 0 0 0-.469-.187c-.172 0-.34.07-.457.187Zm3.293-3.102-1.558 1.47a.548.548 0 0 0-.2.429.651.651 0 0 0 .2.441.697.697 0 0 0 .925 0l1.547-1.469a.58.58 0 0 0 .2-.43.585.585 0 0 0-.2-.44.634.634 0 0 0-.457-.176.634.634 0 0 0-.457.175Zm3.293-3.101-1.558 1.469a.585.585 0 0 0-.2.441c.008.16.078.316.2.43.12.117.285.18.457.175.18 0 .332-.058.457-.175l1.558-1.465c.125-.113.2-.27.2-.434a.597.597 0 0 0-.2-.441.668.668 0 0 0-.457-.176.668.668 0 0 0-.457.176ZM12 .55c-1.633 0-3.172.294-4.617.884A12.307 12.307 0 0 0 3.574 3.87a11.514 11.514 0 0 0-2.59 3.594A10.2 10.2 0 0 0 .047 11.8c0 1.539.312 2.984.937 4.347a11.467 11.467 0 0 0 2.59 3.582 12.361 12.361 0 0 0 3.82 2.438c1.446.59 2.985.883 4.618.883 1.633 0 3.168-.293 4.605-.883a12.078 12.078 0 0 0 3.809-2.438 11.467 11.467 0 0 0 2.59-3.582c.625-1.363.937-2.808.937-4.347a10.2 10.2 0 0 0-.937-4.332 11.53 11.53 0 0 0-2.59-3.598 12.361 12.361 0 0 0-3.82-2.437A12.106 12.106 0 0 0 12 .55Zm0 1.5a10.414 10.414 0 0 1 3.996.774 10.558 10.558 0 0 1 3.305 2.106 9.916 9.916 0 0 1 2.238 3.11 8.802 8.802 0 0 1 .82 3.76c0 1.333-.27 2.587-.808 3.762a9.882 9.882 0 0 1-2.238 3.11 10.489 10.489 0 0 1-3.305 2.105c-1.262.52-2.621.782-3.996.774a10.342 10.342 0 0 1-3.996-.774 10.606 10.606 0 0 1-3.317-2.105 10.025 10.025 0 0 1-2.25-3.11 8.907 8.907 0 0 1-.808-3.761c0-1.332.27-2.582.808-3.762.535-1.16 1.301-2.215 2.25-3.11a10.558 10.558 0 0 1 3.305-2.105A10.414 10.414 0 0 1 12 2.051Zm0 0"/></svg>