<?xml version="1.0" encoding="UTF-8"?>
<svg xmlns="http://www.w3.org/2000/svg" xmlns:xlink="http://www.w3.org/1999/xlink" width="24" height="19.2" viewBox="0 0 24 19.2" version="1.1">
<g id="surface1">
<path style=" stroke:none;fill-rule:nonzero;fill:rgb(100%,100%,100%);fill-opacity:1;" d="M 4.039062 18.195312 L 19.949219 18.195312 C 20.917969 18.195312 21.644531 17.960938 22.125 17.484375 C 22.605469 17.007812 22.847656 16.292969 22.847656 15.335938 L 22.847656 6.214844 C 22.847656 5.253906 22.605469 4.539062 22.125 4.070312 C 21.644531 3.59375 20.917969 3.355469 19.949219 3.355469 L 4.039062 3.355469 C 3.078125 3.355469 2.351562 3.59375 1.867188 4.070312 C 1.382812 4.539062 1.144531 5.253906 1.144531 6.214844 L 1.144531 15.335938 C 1.144531 16.292969 1.382812 17.007812 1.867188 17.484375 C 2.351562 17.960938 3.078125 18.195312 4.039062 18.195312 Z M 7.238281 4.171875 L 8.691406 4.171875 L 8.691406 2.511719 C 8.691406 2.15625 8.789062 1.882812 8.992188 1.6875 C 9.191406 1.492188 9.476562 1.398438 9.84375 1.398438 L 14.148438 1.398438 C 14.507812 1.398438 14.789062 1.492188 14.992188 1.6875 C 15.191406 1.882812 15.289062 2.15625 15.289062 2.511719 L 15.289062 4.152344 L 16.742188 4.152344 L 16.742188 2.617188 C 16.742188 1.734375 16.519531 1.085938 16.070312 0.664062 C 15.617188 0.242188 14.96875 0.0273438 14.117188 0.0273438 L 9.863281 0.0273438 C 9.0625 0.0273438 8.425781 0.242188 7.949219 0.664062 C 7.476562 1.085938 7.238281 1.734375 7.238281 2.617188 Z M 7.585938 11.605469 L 7.585938 9.917969 C 7.585938 9.675781 7.660156 9.476562 7.808594 9.328125 C 7.960938 9.171875 8.160156 9.09375 8.410156 9.09375 L 10.332031 9.09375 L 10.332031 7.191406 C 10.332031 6.933594 10.40625 6.730469 10.554688 6.582031 C 10.707031 6.429688 10.902344 6.355469 11.148438 6.355469 L 12.84375 6.355469 C 13.085938 6.355469 13.285156 6.429688 13.433594 6.582031 C 13.585938 6.730469 13.660156 6.933594 13.660156 7.191406 L 13.660156 9.09375 L 15.582031 9.09375 C 15.832031 9.09375 16.03125 9.171875 16.179688 9.328125 C 16.335938 9.476562 16.414062 9.675781 16.414062 9.917969 L 16.414062 11.605469 C 16.414062 11.855469 16.335938 12.058594 16.179688 12.214844 C 16.03125 12.367188 15.832031 12.441406 15.582031 12.441406 L 13.660156 12.441406 L 13.660156 14.34375 C 13.660156 14.601562 13.585938 14.804688 13.433594 14.953125 C 13.285156 15.101562 13.085938 15.179688 12.84375 15.179688 L 11.148438 15.179688 C 10.902344 15.179688 10.707031 15.101562 10.554688 14.953125 C 10.40625 14.804688 10.332031 14.601562 10.332031 14.34375 L 10.332031 12.441406 L 8.410156 12.441406 C 8.164062 12.441406 7.964844 12.367188 7.808594 12.214844 C 7.660156 12.058594 7.585938 11.855469 7.585938 11.605469 Z M 7.585938 11.605469 "/>
</g>
</svg>
