<svg xmlns="http://www.w3.org/2000/svg" width="24" height="24"><path style="stroke:none;fill-rule:nonzero;fill:#fff;fill-opacity:1" d="M12 23.063c1.633 0 3.168-.293 4.605-.883a12.29 12.29 0 0 0 3.82-2.438 11.482 11.482 0 0 0 2.59-3.586c.626-1.36.938-2.804.938-4.343 0-1.536-.312-2.981-.937-4.336a11.514 11.514 0 0 0-2.59-3.594 12.22 12.22 0 0 0-3.82-2.438 12.166 12.166 0 0 0-4.618-.883c-1.633 0-3.172.293-4.617.883a12.307 12.307 0 0 0-3.809 2.438A11.523 11.523 0 0 0 .985 7.477a10.187 10.187 0 0 0-.937 4.335c0 1.54.312 2.985.937 4.344a11.438 11.438 0 0 0 2.59 3.586 12.307 12.307 0 0 0 3.809 2.438c1.445.59 2.984.883 4.617.883Zm-6.68-10.06v-2.405c0-.344.114-.625.34-.836.227-.223.527-.332.902-.332H9.47V6.719c0-.364.113-.649.34-.864.234-.21.535-.32.902-.32h2.555c.375 0 .675.11.902.32.227.215.34.5.34.864v2.71h2.906c.375 0 .676.11.902.333.235.21.352.492.352.836v2.406c0 .351-.117.64-.352.86-.226.214-.527.32-.902.32h-2.906v2.714c0 .36-.113.649-.34.872-.227.21-.527.32-.902.32H10.71c-.367 0-.668-.11-.902-.32-.227-.223-.34-.512-.34-.872v-2.714H6.563c-.368 0-.668-.106-.903-.32-.226-.22-.34-.509-.34-.86Zm0 0"/></svg>