<svg width="146" height="122" viewBox="0 0 146 122" fill="none" xmlns="http://www.w3.org/2000/svg">
<path d="M20.25 121.312H126.312C132.771 121.312 137.604 119.729 140.812 116.562C144.021 113.396 145.625 108.625 145.625 102.25V41.4375C145.625 35.0208 144.021 30.25 140.812 27.125C137.604 23.9583 132.771 22.375 126.312 22.375H20.25C13.8333 22.375 9 23.9583 5.75 27.125C2.54167 30.25 0.9375 35.0208 0.9375 41.4375V102.25C0.9375 108.625 2.54167 113.396 5.75 116.562C9 119.729 13.8333 121.312 20.25 121.312ZM41.5625 27.8125H51.25V16.75C51.25 14.375 51.9167 12.5417 53.25 11.25C54.5833 9.95833 56.4792 9.3125 58.9375 9.3125H87.625C90.0417 9.3125 91.9167 9.95833 93.25 11.25C94.5833 12.5417 95.25 14.375 95.25 16.75V27.6875H104.938V17.4375C104.938 11.5625 103.438 7.22917 100.438 4.4375C97.4375 1.60417 93.1042 0.1875 87.4375 0.1875H59.0625C53.7292 0.1875 49.4792 1.60417 46.3125 4.4375C43.1458 7.22917 41.5625 11.5625 41.5625 17.4375V27.8125ZM43.875 77.375V66.125C43.875 64.5 44.375 63.1875 45.375 62.1875C46.375 61.1458 47.7083 60.625 49.375 60.625H62.1875V47.9375C62.1875 46.2292 62.6875 44.875 63.6875 43.875C64.6875 42.875 66 42.375 67.625 42.375H78.9375C80.5625 42.375 81.875 42.875 82.875 43.875C83.875 44.875 84.375 46.2292 84.375 47.9375V60.625H97.1875C98.8542 60.625 100.188 61.1458 101.188 62.1875C102.229 63.1875 102.75 64.5 102.75 66.125V77.375C102.75 79.0417 102.229 80.3958 101.188 81.4375C100.188 82.4375 98.8542 82.9375 97.1875 82.9375H84.375V95.625C84.375 97.3333 83.875 98.6875 82.875 99.6875C81.875 100.688 80.5625 101.188 78.9375 101.188H67.625C66 101.188 64.6875 100.688 63.6875 99.6875C62.6875 98.6875 62.1875 97.3333 62.1875 95.625V82.9375H49.375C47.75 82.9375 46.4167 82.4375 45.375 81.4375C44.375 80.3958 43.875 79.0417 43.875 77.375Z" fill="white"/>
</svg>
