<svg width="136" height="135" viewBox="0 0 136 135" fill="none" xmlns="http://www.w3.org/2000/svg">
<path d="M0.9375 78C0.9375 83.875 2.35417 88.2708 5.1875 91.1875C8.0625 94.0625 12.3958 95.5 18.1875 95.5H40.375V117.688C40.375 123.479 41.8125 127.792 44.6875 130.625C47.6042 133.5 52 134.938 57.875 134.938H78.125C84 134.938 88.375 133.5 91.25 130.625C94.1667 127.792 95.625 123.479 95.625 117.688V95.5H117.812C123.604 95.5 127.917 94.0625 130.75 91.1875C133.625 88.2708 135.062 83.875 135.062 78V57.75C135.062 51.875 133.625 47.5 130.75 44.625C127.917 41.7083 123.604 40.25 117.812 40.25H95.625V18C95.625 12.2083 94.1667 7.89583 91.25 5.0625C88.375 2.1875 84 0.75 78.125 0.75H57.875C52 0.75 47.6042 2.1875 44.6875 5.0625C41.8125 7.89583 40.375 12.2083 40.375 18V40.25H18.1875C12.3958 40.25 8.0625 41.7083 5.1875 44.625C2.35417 47.5 0.9375 51.875 0.9375 57.75V78ZM11 77.8125V57.9375C11 55.3958 11.6458 53.5 12.9375 52.25C14.2292 50.9583 16.1667 50.3125 18.75 50.3125H50.4375V18.5625C50.4375 15.9792 51.0625 14.0417 52.3125 12.75C53.6042 11.4583 55.5208 10.8125 58.0625 10.8125H77.9375C80.4792 10.8125 82.375 11.4583 83.625 12.75C84.9167 14.0417 85.5625 15.9792 85.5625 18.5625V50.3125H117.25C119.833 50.3125 121.771 50.9583 123.062 52.25C124.354 53.5 125 55.3958 125 57.9375V77.8125C125 80.3542 124.354 82.2708 123.062 83.5625C121.771 84.8125 119.833 85.4375 117.25 85.4375H85.5625V117.188C85.5625 119.729 84.9167 121.646 83.625 122.938C82.375 124.229 80.4792 124.875 77.9375 124.875H58.0625C55.5208 124.875 53.6042 124.229 52.3125 122.938C51.0625 121.646 50.4375 119.729 50.4375 117.188V85.4375H18.75C16.1667 85.4375 14.2292 84.8125 12.9375 83.5625C11.6458 82.2708 11 80.3542 11 77.8125Z" fill="white"/>
</svg>
