<svg width="16" height="17" viewBox="0 0 16 17" fill="none" xmlns="http://www.w3.org/2000/svg">
<path d="M8 16.3359C9.08854 16.3359 10.112 16.1276 11.0703 15.7109C12.0339 15.2943 12.8828 14.7188 13.6172 13.9844C14.3516 13.25 14.9271 12.4036 15.3438 11.4453C15.7604 10.4818 15.9688 9.45573 15.9688 8.36719C15.9688 7.27865 15.7604 6.25521 15.3438 5.29688C14.9271 4.33333 14.3516 3.48438 13.6172 2.75C12.8828 2.01562 12.0339 1.4401 11.0703 1.02344C10.1068 0.606771 9.08073 0.398438 7.99219 0.398438C6.90365 0.398438 5.8776 0.606771 4.91406 1.02344C3.95573 1.4401 3.10938 2.01562 2.375 2.75C1.64583 3.48438 1.07292 4.33333 0.65625 5.29688C0.239583 6.25521 0.03125 7.27865 0.03125 8.36719C0.03125 9.45573 0.239583 10.4818 0.65625 11.4453C1.07292 12.4036 1.64844 13.25 2.38281 13.9844C3.11719 14.7188 3.96354 15.2943 4.92188 15.7109C5.88542 16.1276 6.91146 16.3359 8 16.3359ZM3.54688 9.21094V7.50781C3.54688 7.26302 3.6224 7.0651 3.77344 6.91406C3.92448 6.75781 4.125 6.67969 4.375 6.67969H6.3125V4.75781C6.3125 4.5026 6.38802 4.29948 6.53906 4.14844C6.69531 3.9974 6.89583 3.92188 7.14062 3.92188H8.84375C9.09375 3.92188 9.29427 3.9974 9.44531 4.14844C9.59635 4.29948 9.67188 4.5026 9.67188 4.75781V6.67969H11.6094C11.8594 6.67969 12.0599 6.75781 12.2109 6.91406C12.3672 7.0651 12.4453 7.26302 12.4453 7.50781V9.21094C12.4453 9.46094 12.3672 9.66406 12.2109 9.82031C12.0599 9.97135 11.8594 10.0469 11.6094 10.0469H9.67188V11.9688C9.67188 12.224 9.59635 12.4297 9.44531 12.5859C9.29427 12.737 9.09375 12.8125 8.84375 12.8125H7.14062C6.89583 12.8125 6.69531 12.737 6.53906 12.5859C6.38802 12.4297 6.3125 12.224 6.3125 11.9688V10.0469H4.375C4.13021 10.0469 3.92969 9.97135 3.77344 9.82031C3.6224 9.66406 3.54688 9.46094 3.54688 9.21094Z" fill="white"/>
</svg>
