<svg xmlns="http://www.w3.org/2000/svg" width="24" height="24"><path style="stroke:none;fill-rule:nonzero;fill:#fff;fill-opacity:1" d="m1.805 18.05 9.222 4.4a2.16 2.16 0 0 0 1.946 0l9.21-4.4c.54-.257.946-.554 1.22-.89.28-.336.421-.855.421-1.558V7.785c0-.512-.117-.937-.351-1.273-.227-.34-.586-.63-1.078-.867l-8.297-3.97c-.703-.34-1.403-.51-2.098-.51-.695 0-1.398.17-2.11.51l-8.285 3.97c-.5.238-.867.527-1.101.867-.227.336-.34.761-.34 1.273v7.817c0 .703.14 1.222.422 1.558.281.336.687.633 1.219.89Zm1.054-1.304c-.343-.156-.582-.328-.714-.512-.133-.183-.2-.41-.2-.68V8.103l9.13 4.39v8.192Zm18.282 0-8.227 3.938v-8.192l9.129-4.39v7.453c0 .27-.066.496-.2.68-.132.183-.366.355-.702.511ZM12 11.113 2.953 6.801l7.723-3.711c.89-.43 1.773-.43 2.648 0l7.723 3.71Zm0 0"/></svg>