<svg width="164" height="122" viewBox="0 0 164 122" fill="none" xmlns="http://www.w3.org/2000/svg">
<path d="M79.625 91.75H85.25C93.0833 91.75 100.188 90.5 106.562 88C112.979 85.4583 118.5 81.8333 123.125 77.125C127.75 72.4167 131.312 66.7708 133.812 60.1875C136.312 53.5625 137.562 46.1667 137.562 38V25.3125C137.562 20.3542 135.25 16 130.625 12.25C126 8.5 119.542 5.58333 111.25 3.5C103 1.375 93.3958 0.3125 82.4375 0.3125C71.4792 0.3125 61.8542 1.375 53.5625 3.5C45.3125 5.58333 38.875 8.5 34.25 12.25C29.625 16 27.3125 20.3542 27.3125 25.3125V38C27.3125 45.9167 28.5625 53.1458 31.0625 59.6875C33.5625 66.2292 37.125 71.8958 41.75 76.6875C46.375 81.4792 51.8958 85.1875 58.3125 87.8125C64.7292 90.4375 71.8333 91.75 79.625 91.75ZM82.4375 40.5625C73.7292 40.5625 65.9583 39.8958 59.125 38.5625C52.2917 37.1875 46.8958 35.3542 42.9375 33.0625C39.0208 30.7708 37.0625 28.1875 37.0625 25.3125C37.0625 22.4375 39.0208 19.8542 42.9375 17.5625C46.8958 15.2708 52.2917 13.4583 59.125 12.125C65.9583 10.75 73.7292 10.0625 82.4375 10.0625C91.1875 10.0625 98.9792 10.75 105.812 12.125C112.646 13.4583 118.021 15.2708 121.938 17.5625C125.896 19.8542 127.875 22.4375 127.875 25.3125C127.875 28.1875 125.896 30.7708 121.938 33.0625C118.021 35.3542 112.646 37.1875 105.812 38.5625C98.9792 39.8958 91.1875 40.5625 82.4375 40.5625ZM130.812 64.125H135.75C142.708 64.125 148.167 62.3958 152.125 58.9375C156.083 55.4792 158.062 50.7292 158.062 44.6875C158.062 38.6458 156.062 33.8958 152.062 30.4375C148.104 26.9792 142.667 25.25 135.75 25.25H131.75V34.9375H135.75C139.708 34.9375 142.792 35.8125 145 37.5625C147.208 39.2708 148.312 41.6458 148.312 44.6875C148.312 47.7292 147.208 50.125 145 51.875C142.792 53.5833 139.708 54.4375 135.75 54.4375H130.812V64.125ZM82.125 121.688C94 121.688 104.896 120.896 114.812 119.312C124.729 117.729 133.312 115.458 140.562 112.5C147.812 109.542 153.417 106.042 157.375 102C161.333 97.9583 163.312 93.4792 163.312 88.5625C163.312 84.7708 162.062 81.2083 159.562 77.875C157.062 74.5417 153.542 71.5417 149 68.875C147.125 69.6667 145.146 70.2708 143.062 70.6875C141.021 71.1042 138.812 71.3542 136.438 71.4375C131.479 80.1042 124.583 86.875 115.75 91.75C106.958 96.625 96.7917 99.0625 85.25 99.0625H79.625C71.0833 99.0625 63.2292 97.625 56.0625 94.75C48.8958 91.875 42.6667 87.8333 37.375 82.625C32.0833 77.4167 27.9375 71.25 24.9375 64.125C17.3542 67.0833 11.4583 70.6458 7.25 74.8125C3.04167 78.9375 0.9375 83.5208 0.9375 88.5625C0.9375 93.4792 2.91667 97.9583 6.875 102C10.875 106.042 16.5 109.542 23.75 112.5C31 115.458 39.5625 117.729 49.4375 119.312C59.3542 120.896 70.25 121.688 82.125 121.688Z" fill="white"/>
</svg>
