<svg width="22" height="16" viewBox="0 0 22 16" fill="none" xmlns="http://www.w3.org/2000/svg">
<path d="M10.6875 12.2188H11.3906C12.3698 12.2188 13.2578 12.0625 14.0547 11.75C14.8568 11.4323 15.5469 10.9792 16.125 10.3906C16.7031 9.80208 17.1484 9.09635 17.4609 8.27344C17.7734 7.44531 17.9297 6.52083 17.9297 5.5V3.91406C17.9297 3.29427 17.6406 2.75 17.0625 2.28125C16.4844 1.8125 15.6771 1.44792 14.6406 1.1875C13.6094 0.921875 12.4089 0.789062 11.0391 0.789062C9.66927 0.789062 8.46615 0.921875 7.42969 1.1875C6.39844 1.44792 5.59375 1.8125 5.01562 2.28125C4.4375 2.75 4.14844 3.29427 4.14844 3.91406V5.5C4.14844 6.48958 4.30469 7.39323 4.61719 8.21094C4.92969 9.02865 5.375 9.73698 5.95312 10.3359C6.53125 10.9349 7.22135 11.3984 8.02344 11.7266C8.82552 12.0547 9.71354 12.2188 10.6875 12.2188ZM11.0391 5.82031C9.95052 5.82031 8.97917 5.73698 8.125 5.57031C7.27083 5.39844 6.59635 5.16927 6.10156 4.88281C5.61198 4.59635 5.36719 4.27344 5.36719 3.91406C5.36719 3.55469 5.61198 3.23177 6.10156 2.94531C6.59635 2.65885 7.27083 2.43229 8.125 2.26562C8.97917 2.09375 9.95052 2.00781 11.0391 2.00781C12.1328 2.00781 13.1068 2.09375 13.9609 2.26562C14.8151 2.43229 15.487 2.65885 15.9766 2.94531C16.4714 3.23177 16.7188 3.55469 16.7188 3.91406C16.7188 4.27344 16.4714 4.59635 15.9766 4.88281C15.487 5.16927 14.8151 5.39844 13.9609 5.57031C13.1068 5.73698 12.1328 5.82031 11.0391 5.82031ZM17.0859 8.76562H17.7031C18.5729 8.76562 19.2552 8.54948 19.75 8.11719C20.2448 7.6849 20.4922 7.09115 20.4922 6.33594C20.4922 5.58073 20.2422 4.98698 19.7422 4.55469C19.2474 4.1224 18.5677 3.90625 17.7031 3.90625H17.2031V5.11719H17.7031C18.1979 5.11719 18.5833 5.22656 18.8594 5.44531C19.1354 5.65885 19.2734 5.95573 19.2734 6.33594C19.2734 6.71615 19.1354 7.01562 18.8594 7.23438C18.5833 7.44792 18.1979 7.55469 17.7031 7.55469H17.0859V8.76562ZM11 15.9609C12.4844 15.9609 13.8464 15.862 15.0859 15.6641C16.3255 15.4661 17.3984 15.1823 18.3047 14.8125C19.2109 14.4427 19.9115 14.0052 20.4062 13.5C20.901 12.9948 21.1484 12.4349 21.1484 11.8203C21.1484 11.3464 20.9922 10.901 20.6797 10.4844C20.3672 10.0677 19.9271 9.69271 19.3594 9.35938C19.125 9.45833 18.8776 9.53385 18.6172 9.58594C18.362 9.63802 18.0859 9.66927 17.7891 9.67969C17.1693 10.763 16.3073 11.6094 15.2031 12.2188C14.1042 12.8281 12.8333 13.1328 11.3906 13.1328H10.6875C9.61979 13.1328 8.63802 12.9531 7.74219 12.5938C6.84635 12.2344 6.06771 11.7292 5.40625 11.0781C4.74479 10.4271 4.22656 9.65625 3.85156 8.76562C2.90365 9.13542 2.16667 9.58073 1.64062 10.1016C1.11458 10.6172 0.851562 11.1901 0.851562 11.8203C0.851562 12.4349 1.09896 12.9948 1.59375 13.5C2.09375 14.0052 2.79688 14.4427 3.70312 14.8125C4.60938 15.1823 5.67969 15.4661 6.91406 15.6641C8.15365 15.862 9.51562 15.9609 11 15.9609Z" fill="white"/>
</svg>
