<svg xmlns="http://www.w3.org/2000/svg" width="24" height="24"><path style="stroke:none;fill-rule:nonzero;fill:#fff;fill-opacity:1" d="M4.887 23.3h14.215c1.226 0 2.144-.323 2.753-.976.618-.64.926-1.605.926-2.898V4.164c0-1.293-.308-2.258-.926-2.898-.609-.653-1.527-.977-2.753-.977H4.887c-1.227 0-2.149.324-2.766.977-.61.64-.914 1.605-.914 2.898v15.262c0 1.293.305 2.258.914 2.902.617.649 1.54.973 2.766.973Zm4.734-4.488c-.82 0-1.46-.25-1.922-.75-.453-.507-.68-1.261-.68-2.261v-1.602c0-.465-.062-.777-.187-.937-.117-.168-.328-.297-.633-.387a.961.961 0 0 1-.574-.398 1.287 1.287 0 0 1-.188-.676c0-.25.063-.477.188-.676a.95.95 0 0 1 .574-.426c.305-.082.516-.207.633-.375.125-.168.188-.48.188-.937V7.785c0-1.008.226-1.762.68-2.262.46-.507 1.1-.761 1.921-.761.36 0 .637.086.832.25a.817.817 0 0 1 .293.652.839.839 0 0 1-.246.625.806.806 0 0 1-.586.223c-.414 0-.707.11-.879.324-.164.219-.246.594-.246 1.125v1.75c0 .578-.16 1.059-.48 1.453-.313.39-.743.637-1.29.734v-.234c.547.098.977.348 1.29.75.32.39.48.875.48 1.45v1.761c0 .527.082.895.246 1.113.172.215.465.325.88.325.233 0 .429.078.585.238.164.148.246.36.246.625a.803.803 0 0 1-.293.637c-.195.167-.473.25-.832.25Zm4.793 0c-.36 0-.637-.082-.832-.25a.803.803 0 0 1-.293-.636c0-.266.078-.477.234-.625a.832.832 0 0 1 .598-.238c.414 0 .703-.11.867-.325.172-.218.258-.586.258-1.113v-1.762c0-.574.156-1.058.469-1.453.32-.398.754-.648 1.3-.746v.234c-.546-.097-.98-.343-1.3-.734-.313-.394-.469-.875-.469-1.453V7.96c0-.531-.086-.906-.258-1.125-.164-.215-.453-.324-.867-.324a.857.857 0 0 1-.598-.223.85.85 0 0 1-.234-.625c0-.27.098-.484.293-.652.195-.164.473-.25.832-.25.82 0 1.457.254 1.91.761.461.5.692 1.254.692 2.262v1.602c0 .457.058.77.175.937.125.168.34.293.645.375.25.067.437.207.562.414.266.407.266.946 0 1.352a.903.903 0 0 1-.562.41c-.305.082-.52.207-.645.375-.117.168-.175.484-.175.95v1.6c0 1-.23 1.755-.692 2.262-.453.5-1.09.75-1.91.75Zm0 0"/></svg>