<svg xmlns="http://www.w3.org/2000/svg" width="24" height="24"><path style="stroke:none;fill-rule:nonzero;fill:#fff;fill-opacity:1" d="M4.887 23.3h14.215c1.226 0 2.144-.323 2.753-.976.618-.64.926-1.605.926-2.898V4.164c0-1.293-.308-2.258-.926-2.898-.609-.653-1.527-.977-2.753-.977H4.887c-1.227 0-2.149.324-2.766.977-.61.64-.914 1.605-.914 2.898v15.262c0 1.293.305 2.258.914 2.902.617.649 1.54.973 2.766.973Zm.023-2.01c-.586 0-1.035-.165-1.348-.49-.312-.335-.468-.823-.468-1.476V4.262c0-.649.156-1.137.469-1.461.312-.336.761-.5 1.347-.5h14.168c.578 0 1.024.164 1.336.5.32.324.48.812.48 1.46v15.063c0 .653-.16 1.14-.48 1.477-.312.324-.758.488-1.336.488Zm4.77-2.692c.351 0 .62-.078.808-.235a.774.774 0 0 0 .293-.625.806.806 0 0 0-.234-.601.806.806 0 0 0-.586-.223c-.39 0-.672-.105-.844-.312-.164-.211-.246-.575-.246-1.09V13.8c0-.551-.152-1.02-.457-1.403-.297-.39-.71-.636-1.242-.734v.234c.531-.097.945-.335 1.242-.71.305-.383.457-.856.457-1.415V8.074c0-.515.082-.879.246-1.086.172-.218.453-.324.844-.324.234 0 .43-.07.586-.215a.8.8 0 0 0 .234-.601.774.774 0 0 0-.293-.625c-.187-.164-.457-.246-.808-.246-.79 0-1.407.242-1.852.734-.445.492-.668 1.223-.668 2.187v1.563c0 .453-.058.754-.176.914-.109.16-.312.277-.609.363a.957.957 0 0 0-.563.41 1.23 1.23 0 0 0-.175.653c0 .23.058.449.176.648.125.192.312.32.562.387.297.094.5.219.61.375.117.16.175.465.175.914v1.563c0 .964.223 1.695.668 2.187.445.484 1.063.723 1.852.723Zm4.664 0c.789 0 1.406-.239 1.851-.723.446-.492.668-1.223.668-2.188v-1.562c0-.45.059-.754.176-.914.117-.164.324-.29.621-.375a.853.853 0 0 0 .54-.399c.124-.199.187-.417.187-.652.011-.23-.051-.457-.176-.648a.901.901 0 0 0-.55-.399c-.298-.086-.505-.203-.622-.363-.117-.16-.176-.46-.176-.914V7.898c0-.964-.222-1.695-.668-2.183-.445-.492-1.062-.738-1.851-.738-.352 0-.621.082-.809.246a.775.775 0 0 0-.281.625c0 .254.074.453.223.601a.828.828 0 0 0 .585.215c.399 0 .68.106.844.324.164.207.246.57.246 1.086v1.7c0 .558.153 1.03.457 1.414.305.374.723.613 1.254.71v-.234c-.531.098-.949.344-1.254.734-.304.387-.457.852-.457 1.403v1.71c0 .516-.082.88-.246 1.09-.164.208-.445.31-.844.31a.82.82 0 0 0-.585.226.818.818 0 0 0-.223.601c0 .258.094.465.281.625.188.157.457.239.809.239Zm0 0"/></svg>