<svg xmlns="http://www.w3.org/2000/svg" width="24" height="24"><path style="stroke:none;fill-rule:nonzero;fill:#fff;fill-opacity:1" d="M10.887 7.441c0-.664.148-1.273.445-1.816.3-.55.563-.992.773-1.32.297-.446.645-.918 1.047-1.418.403-.5.813-.992 1.23-1.48H3.31c-.965 0-1.743.198-2.332.6-.579.4-.872.93-.872 1.595v15.992c0 .66.293 1.191.872 1.593.59.407 1.367.61 2.332.61h13.953c.965 0 1.738-.203 2.32-.61.578-.402.867-.93.867-1.593v-7.762c-.414.11-.847.191-1.285.242-.457.051-.922.074-1.39.074-1.34 0-2.528-.199-3.563-.597-1.016-.387-1.856-.961-2.438-1.66a3.728 3.728 0 0 1-.886-2.45Zm-5.075-.55c-.523.004-1.027-.141-1.394-.403-.367-.258-.57-.61-.563-.976 0-.375.188-.696.563-.957.367-.262.871-.407 1.394-.403.536 0 .997.137 1.38.403.382.261.578.582.578.957 0 .379-.196.707-.579.976-.359.262-.859.407-1.378.403Zm-1.3 7.64a1.094 1.094 0 0 1-.614-.168c-.168-.117-.261-.277-.253-.441 0-.168.082-.313.253-.43.16-.117.383-.183.614-.18h4.02c.25 0 .46.06.628.18.168.11.258.266.254.43 0 .176-.082.32-.254.441a1.106 1.106 0 0 1-.629.168Zm0 2.418a1.05 1.05 0 0 1-.614-.176c-.168-.113-.257-.27-.253-.433 0-.176.082-.32.253-.43.16-.117.383-.18.614-.18h4.02c.25 0 .46.063.628.18.172.11.254.254.254.43.004.164-.086.32-.254.433-.164.118-.394.18-.629.176Zm0 2.418a1.05 1.05 0 0 1-.614-.176c-.168-.113-.257-.27-.253-.43 0-.175.082-.323.253-.445.16-.113.383-.18.614-.175h4.02c.25 0 .46.058.628.175.168.118.262.278.254.446.004.16-.086.316-.254.43-.164.117-.394.18-.629.175Zm7.515-4.836a1.106 1.106 0 0 1-.629-.168c-.168-.117-.261-.277-.253-.441 0-.168.082-.313.253-.43.165-.12.395-.183.63-.18h4.015c.242 0 .45.06.617.18.168.11.258.266.254.43 0 .176-.082.32-.254.441a1.068 1.068 0 0 1-.617.168Zm0 2.418a1.072 1.072 0 0 1-.629-.176c-.168-.113-.257-.27-.253-.433 0-.176.082-.32.253-.43.165-.117.395-.183.63-.18h4.015c.242 0 .45.063.617.18.172.11.254.254.254.43.004.164-.086.32-.254.433-.164.118-.387.18-.617.176Zm0 2.418a1.064 1.064 0 0 1-.629-.176c-.168-.113-.257-.27-.253-.43 0-.175.082-.323.253-.445.165-.117.395-.18.63-.175h4.015c.242 0 .45.058.617.175.168.118.262.278.254.446.004.16-.086.316-.254.43-.16.117-.387.18-.617.175Zm-8.035 4.078c.32 0 .578-.07.778-.215a.636.636 0 0 0 .293-.543v-1.84H2.905v1.84c0 .223.098.407.293.543.207.145.469.215.793.215Zm12.574 0c.32 0 .582-.07.778-.215.207-.136.308-.32.308-.543v-1.84h-2.156v1.84c0 .223.098.407.293.543.2.145.457.215.777.215Zm1.207-12.57c1.508 0 2.727-.316 3.657-.945.937-.633 1.406-1.461 1.406-2.489 0-.507-.121-.988-.363-1.43-.243-.449-.473-.84-.696-1.183a21.151 21.151 0 0 0-1.5-1.96A67.82 67.82 0 0 0 18.535.89a1.377 1.377 0 0 0-.36-.254 1.033 1.033 0 0 0-.82 0c-.113.058-.23.14-.347.254a67.655 67.655 0 0 0-1.738 1.976 19.864 19.864 0 0 0-1.5 1.961c-.227.344-.457.734-.7 1.184a2.943 2.943 0 0 0-.36 1.43c0 1.027.466 1.855 1.392 2.488.937.629 2.16.945 3.671.945Zm0 0"/></svg>