<svg width="18" height="15" viewBox="0 0 18 15" fill="none" xmlns="http://www.w3.org/2000/svg">
<path d="M3.1875 14.5625L9.96875 14.5547C10.276 14.5547 10.5677 14.5208 10.8438 14.4531C11.1198 14.3906 11.3802 14.2891 11.625 14.1484C11.8698 14.0078 12.099 13.8255 12.3125 13.6016L16.9219 8.84375C17.1823 8.57812 17.3698 8.32552 17.4844 8.08594C17.6042 7.84115 17.6641 7.59896 17.6641 7.35938C17.6641 7.19271 17.638 7.03125 17.5859 6.875C17.5339 6.71354 17.4531 6.54948 17.3438 6.38281C17.2344 6.21615 17.0938 6.04688 16.9219 5.875L12.3203 1.09375C12.1068 0.869792 11.8776 0.690104 11.6328 0.554688C11.388 0.419271 11.1276 0.322917 10.8516 0.265625C10.5755 0.208333 10.2839 0.179688 9.97656 0.179688H3.1875C2.375 0.179688 1.76302 0.382812 1.35156 0.789062C0.940104 1.1901 0.734375 1.79427 0.734375 2.60156V12.1406C0.734375 12.9479 0.940104 13.5521 1.35156 13.9531C1.76302 14.3594 2.375 14.5625 3.1875 14.5625ZM5.15625 10.6484C4.97917 10.6484 4.82812 10.5859 4.70312 10.4609C4.57812 10.3307 4.51562 10.1771 4.51562 10C4.51562 9.82292 4.57812 9.67188 4.70312 9.54688L6.875 7.375L4.70312 5.21094C4.57812 5.08073 4.51562 4.92969 4.51562 4.75781C4.51562 4.57552 4.57812 4.42448 4.70312 4.30469C4.82812 4.17969 4.97917 4.11719 5.15625 4.11719C5.32812 4.11719 5.47917 4.17708 5.60938 4.29688L7.78906 6.46875L9.98438 4.28906C10.1094 4.16406 10.2578 4.10156 10.4297 4.10156C10.6068 4.10156 10.7578 4.16406 10.8828 4.28906C11.0078 4.41406 11.0703 4.5651 11.0703 4.74219C11.0703 4.91927 11.0078 5.07292 10.8828 5.20312L8.70312 7.375L10.875 9.53906C11 9.65365 11.0625 9.80729 11.0625 10C11.0625 10.1771 11 10.3307 10.875 10.4609C10.75 10.5859 10.5964 10.6484 10.4141 10.6484C10.2266 10.6484 10.0729 10.5859 9.95312 10.4609L7.78906 8.28906L5.63281 10.4609C5.5026 10.5859 5.34375 10.6484 5.15625 10.6484Z" fill="white"/>
</svg>
