<svg width="137" height="116" viewBox="0 0 137 116" fill="none" xmlns="http://www.w3.org/2000/svg">
<path d="M116.562 115.5C123.104 115.5 128 113.875 131.25 110.625C134.542 107.417 136.188 102.583 136.188 96.125V19.8125C136.188 13.3542 134.542 8.52083 131.25 5.3125C128 2.0625 123.104 0.4375 116.562 0.4375H62.25C59.7917 0.4375 57.4583 0.666667 55.25 1.125C53.0833 1.58333 51 2.35417 49 3.4375C47.0417 4.52083 45.2083 5.95833 43.5 7.75L6.6875 46C5.3125 47.375 4.1875 48.7292 3.3125 50.0625C2.4375 51.3958 1.79167 52.7083 1.375 54C0.958333 55.25 0.75 56.5417 0.75 57.875C0.75 59.7917 1.22917 61.7292 2.1875 63.6875C3.14583 65.6042 4.64583 67.625 6.6875 69.75L43.5625 107.812C45.2708 109.604 47.1042 111.062 49.0625 112.188C51.0625 113.312 53.1458 114.125 55.3125 114.625C57.5208 115.167 59.8542 115.438 62.3125 115.438L116.562 115.5ZM116.438 105.438H62.125C59.75 105.438 57.7292 105.104 56.0625 104.438C54.3958 103.771 52.75 102.604 51.125 100.938L14.5 63.125C13.4583 62.0417 12.7292 61.1042 12.3125 60.3125C11.9375 59.4792 11.75 58.6667 11.75 57.875C11.75 56.3333 12.6667 54.5625 14.5 52.5625L51.0625 14.625C52.6875 12.9583 54.3333 11.8542 56 11.3125C57.7083 10.7708 59.7292 10.5 62.0625 10.5H116.438C119.562 10.5 121.958 11.3333 123.625 13C125.292 14.625 126.125 17.0625 126.125 20.3125V95.625C126.125 98.875 125.292 101.333 123.625 103C121.958 104.625 119.562 105.438 116.438 105.438ZM58.625 84.375C60.0833 84.375 61.2917 83.8542 62.25 82.8125L79.9375 65.0625L97.75 82.8125C98.75 83.8542 99.9375 84.375 101.312 84.375C102.688 84.375 103.854 83.875 104.812 82.875C105.812 81.875 106.312 80.6875 106.312 79.3125C106.312 77.9375 105.812 76.75 104.812 75.75L87.0625 58L104.875 40.125C105.875 39.125 106.375 37.9583 106.375 36.625C106.375 35.25 105.875 34.0833 104.875 33.125C103.917 32.125 102.75 31.625 101.375 31.625C100.083 31.625 98.9375 32.1458 97.9375 33.1875L79.9375 51L62.125 33.25C61.2083 32.25 60.0417 31.75 58.625 31.75C57.25 31.75 56.0625 32.2292 55.0625 33.1875C54.1042 34.1458 53.625 35.3125 53.625 36.6875C53.625 38.0625 54.125 39.2292 55.125 40.1875L72.875 58L55.125 75.8125C54.125 76.7708 53.625 77.9375 53.625 79.3125C53.625 80.6875 54.1042 81.875 55.0625 82.875C56.0625 83.875 57.25 84.375 58.625 84.375Z" fill="white"/>
</svg>
