<svg xmlns="http://www.w3.org/2000/svg" width="24" height="24"><path style="stroke:none;fill-rule:nonzero;fill:#fff;fill-opacity:1" d="M19.75 23.3c1.09 0 1.906-.327 2.45-.976.546-.64.82-1.605.82-2.898V4.164c0-1.293-.274-2.258-.82-2.902-.544-.649-1.36-.977-2.45-.977H10.7c-.41 0-.802.05-1.169.14-.36.09-.707.247-1.043.462a4.24 4.24 0 0 0-.914.863L1.438 9.398c-.231.278-.418.547-.563.817A3.572 3.572 0 0 0 .551 11c-.067.25-.102.512-.102.777 0 .383.078.766.238 1.16.16.383.41.786.75 1.215l6.145 7.614c.285.355.59.644.918.87.332.223.68.391 1.043.489a4.19 4.19 0 0 0 1.164.164Zm-.02-2.015h-9.054c-.395 0-.73-.062-1.008-.195a2.564 2.564 0 0 1-.824-.703l-6.106-7.563a2.777 2.777 0 0 1-.363-.562 1.443 1.443 0 0 1-.094-.485c0-.312.153-.664.457-1.066l6.094-7.582c.273-.336.547-.559.824-.668a2.888 2.888 0 0 1 1.012-.16h9.062c.52 0 .918.164 1.196.496.277.328.418.816.418 1.465v15.062c0 .649-.14 1.14-.418 1.473-.278.328-.676.488-1.196.488Zm-9.636-4.21a.74.74 0 0 0 .605-.313l2.946-3.547 2.968 3.547c.153.199.364.312.586.312a.75.75 0 0 0 .594-.297c.16-.187.25-.445.25-.715 0-.265-.09-.523-.25-.71l-2.961-3.555 2.969-3.57c.16-.184.25-.438.25-.704a1.017 1.017 0 0 0-.25-.699.703.703 0 0 0-.582-.297.716.716 0 0 0-.574.313l-3 3.562-2.97-3.554a.717.717 0 0 0-.581-.301.776.776 0 0 0-.594.293 1.054 1.054 0 0 0-.238.7c0 .272.082.503.25.694l2.957 3.563-2.957 3.562a1.034 1.034 0 0 0-.25.704c-.004.269.082.527.238.714a.768.768 0 0 0 .594.297Zm0 0"/></svg>