<svg width="137" height="116" viewBox="0 0 137 116" fill="none" xmlns="http://www.w3.org/2000/svg">
<path d="M20.5625 115.5L74.8125 115.438C77.2708 115.438 79.6042 115.167 81.8125 114.625C84.0208 114.125 86.1042 113.312 88.0625 112.188C90.0208 111.062 91.8542 109.604 93.5625 107.812L130.438 69.75C132.521 67.625 134.021 65.6042 134.938 63.6875C135.896 61.7292 136.375 59.7917 136.375 57.875C136.375 56.5417 136.167 55.25 135.75 54C135.333 52.7083 134.688 51.3958 133.812 50.0625C132.938 48.7292 131.812 47.375 130.438 46L93.625 7.75C91.9167 5.95833 90.0833 4.52083 88.125 3.4375C86.1667 2.35417 84.0833 1.58333 81.875 1.125C79.6667 0.666667 77.3333 0.4375 74.875 0.4375H20.5625C14.0625 0.4375 9.16667 2.0625 5.875 5.3125C2.58333 8.52083 0.9375 13.3542 0.9375 19.8125V96.125C0.9375 102.583 2.58333 107.417 5.875 110.625C9.16667 113.875 14.0625 115.5 20.5625 115.5ZM20.75 105.438C17.625 105.438 15.2083 104.625 13.5 103C11.8333 101.333 11 98.875 11 95.625V20.3125C11 17.0625 11.8333 14.625 13.5 13C15.2083 11.3333 17.625 10.5 20.75 10.5H75.0625C77.3958 10.5 79.4167 10.7708 81.125 11.3125C82.8333 11.8542 84.4792 12.9583 86.0625 14.625L122.625 52.5625C124.5 54.5625 125.438 56.3333 125.438 57.875C125.438 58.6667 125.229 59.4792 124.812 60.3125C124.438 61.1042 123.708 62.0417 122.625 63.125L86 100.938C84.375 102.604 82.7292 103.771 81.0625 104.438C79.3958 105.104 77.375 105.438 75 105.438H20.75ZM35.9375 84.375C37.3958 84.375 38.6042 83.8542 39.5625 82.8125L57.25 65.0625L75.0625 82.8125C76.0625 83.8542 77.25 84.375 78.625 84.375C80 84.375 81.1667 83.875 82.125 82.875C83.125 81.875 83.625 80.6875 83.625 79.3125C83.625 77.9375 83.125 76.75 82.125 75.75L64.375 58L82.1875 40.125C83.1875 39.125 83.6875 37.9583 83.6875 36.625C83.6875 35.25 83.1875 34.0833 82.1875 33.125C81.2292 32.125 80.0625 31.625 78.6875 31.625C77.3958 31.625 76.25 32.1458 75.25 33.1875L57.25 51L39.4375 33.25C38.5208 32.25 37.3542 31.75 35.9375 31.75C34.5625 31.75 33.375 32.2292 32.375 33.1875C31.4167 34.1458 30.9375 35.3125 30.9375 36.6875C30.9375 38.0625 31.4375 39.2292 32.4375 40.1875L50.1875 58L32.4375 75.8125C31.4375 76.7708 30.9375 77.9375 30.9375 79.3125C30.9375 80.6875 31.4167 81.875 32.375 82.875C33.375 83.875 34.5625 84.375 35.9375 84.375Z" fill="white"/>
</svg>
