<svg xmlns="http://www.w3.org/2000/svg" width="24" height="24"><path style="stroke:none;fill-rule:nonzero;fill:#fff;fill-opacity:1" d="M8.98 12.73H15c.973 0 1.734-.25 2.281-.75.547-.503.824-1.195.824-2.07V3.863c0-.55-.12-1.035-.367-1.46a2.498 2.498 0 0 0-1.062-.997C16.219 1.164 15.66 1.04 15 1.04H8.98c-.964 0-1.726.254-2.28.762-.552.508-.825 1.195-.825 2.062V9.91c0 .875.273 1.567.824 2.07.555.5 1.317.75 2.281.75Zm.176-1.507c-.597 0-1.027-.125-1.293-.368-.261-.25-.394-.625-.394-1.125V4.06c0-.512.133-.891.394-1.133.266-.25.696-.38 1.293-.38h5.668c.598 0 1.028.13 1.29.38.273.242.406.62.406 1.133V9.73c0 .5-.133.875-.407 1.125-.261.243-.691.368-1.289.368Zm-1.02 5.886h7.708c.418 0 .754-.109 1.011-.336.262-.234.395-.527.395-.882 0-.153-.047-.313-.137-.489a1.849 1.849 0 0 0-.343-.484l-2.282-2.43h-2.031l2.648 2.867c.055.063.067.122.032.168-.028.051-.082.075-.157.075H9.012c-.078 0-.133-.024-.168-.075-.028-.046-.016-.105.043-.168l2.644-2.867H9.488l-2.27 2.43a1.836 1.836 0 0 0-.355.496 1.138 1.138 0 0 0-.125.477c0 .355.13.648.387.882.266.223.602.336 1.012.336Zm-5.991 6.645h19.687a.9.9 0 0 0 .625-.223.71.71 0 0 0 .25-.554.71.71 0 0 0-.258-.551.9.9 0 0 0-.617-.227H2.145a.898.898 0 0 0-.614.223.718.718 0 0 0-.238.555.712.712 0 0 0 .238.554c.16.149.383.23.614.223Zm0 0"/></svg>