<svg width="20" height="17" viewBox="0 0 20 17" fill="none" xmlns="http://www.w3.org/2000/svg">
<path d="M10 15.6797C10.7812 15.6797 11.5156 15.5312 12.2031 15.2344C12.8906 14.9427 13.4948 14.5365 14.0156 14.0156C14.5365 13.4948 14.9427 12.8932 15.2344 12.2109C15.5312 11.5234 15.6797 10.7839 15.6797 9.99219C15.6797 9.20573 15.5312 8.47135 15.2344 7.78906C14.9427 7.10156 14.5365 6.4974 14.0156 5.97656C13.4948 5.45573 12.8906 5.04948 12.2031 4.75781C11.5156 4.46615 10.7812 4.32031 10 4.32031C9.21875 4.32031 8.48438 4.46615 7.79688 4.75781C7.10938 5.04948 6.50521 5.45573 5.98438 5.97656C5.46354 6.4974 5.05469 7.10156 4.75781 7.78906C4.46094 8.47135 4.3125 9.20573 4.3125 9.99219C4.3125 10.7786 4.46094 11.5156 4.75781 12.2031C5.05469 12.8906 5.46354 13.4948 5.98438 14.0156C6.50521 14.5365 7.10938 14.9427 7.79688 15.2344C8.48438 15.5312 9.21875 15.6797 10 15.6797ZM10 5.58594C10.6094 5.58594 11.1797 5.70052 11.7109 5.92969C12.2474 6.15885 12.7161 6.47656 13.1172 6.88281C13.5234 7.28385 13.8411 7.7526 14.0703 8.28906C14.2995 8.82031 14.4141 9.38802 14.4141 9.99219C14.4141 10.6016 14.2995 11.1745 14.0703 11.7109C13.8411 12.2422 13.5234 12.7109 13.1172 13.1172C12.7161 13.5182 12.2474 13.8333 11.7109 14.0625C11.1797 14.2917 10.6094 14.4062 10 14.4062C9.39062 14.4062 8.81771 14.2917 8.28125 14.0625C7.75 13.8333 7.28125 13.5182 6.875 13.1172C6.46875 12.7109 6.15104 12.2422 5.92188 11.7109C5.69271 11.1745 5.57812 10.6016 5.57812 9.99219C5.57812 9.38802 5.69271 8.82031 5.92188 8.28906C6.15104 7.7526 6.46875 7.28385 6.875 6.88281C7.28125 6.47656 7.75 6.15885 8.28125 5.92969C8.81771 5.70052 9.39062 5.58594 10 5.58594ZM12.8125 13.5234L13.625 12.6875L10.3828 9.45312C10.2734 9.34375 10.1354 9.28906 9.96875 9.28906C9.80729 9.28906 9.67448 9.34375 9.57031 9.45312C9.45573 9.57812 9.39844 9.71875 9.39844 9.875C9.39844 10.026 9.45573 10.1615 9.57031 10.2812L12.8125 13.5234ZM15.9922 16.9141C16.2578 16.9141 16.4844 16.8203 16.6719 16.6328C16.8646 16.4453 16.9609 16.2161 16.9609 15.9453C16.9609 15.6797 16.8672 15.4505 16.6797 15.2578C16.4922 15.0703 16.263 14.9766 15.9922 14.9766C15.7214 14.9766 15.4896 15.0703 15.2969 15.2578C15.1094 15.4453 15.0156 15.6745 15.0156 15.9453C15.0156 16.2161 15.1094 16.4453 15.2969 16.6328C15.4844 16.8203 15.7161 16.9141 15.9922 16.9141ZM18.4453 10.9688C18.7109 10.9688 18.9401 10.875 19.1328 10.6875C19.3255 10.4948 19.4219 10.263 19.4219 9.99219C19.4219 9.72656 19.3255 9.5 19.1328 9.3125C18.9453 9.11979 18.7161 9.02344 18.4453 9.02344C18.1797 9.02344 17.9505 9.11719 17.7578 9.30469C17.5651 9.49219 17.4688 9.72135 17.4688 9.99219C17.4688 10.2578 17.5625 10.487 17.75 10.6797C17.9375 10.8724 18.1693 10.9688 18.4453 10.9688ZM15.9922 5.02344C16.2578 5.02344 16.4844 4.92969 16.6719 4.74219C16.8646 4.55469 16.9609 4.32552 16.9609 4.05469C16.9609 3.78385 16.8672 3.55469 16.6797 3.36719C16.4922 3.17969 16.263 3.08594 15.9922 3.08594C15.7214 3.08594 15.4896 3.17969 15.2969 3.36719C15.1094 3.55469 15.0156 3.78385 15.0156 4.05469C15.0156 4.32031 15.1094 4.54948 15.2969 4.74219C15.4844 4.92969 15.7161 5.02344 15.9922 5.02344ZM10 2.52344C10.2656 2.52344 10.4922 2.42969 10.6797 2.24219C10.8724 2.04948 10.9688 1.81771 10.9688 1.54688C10.9688 1.28125 10.875 1.05469 10.6875 0.867188C10.5 0.674479 10.2708 0.578125 10 0.578125C9.73438 0.578125 9.50521 0.671875 9.3125 0.859375C9.125 1.04688 9.03125 1.27604 9.03125 1.54688C9.03125 1.81771 9.125 2.04948 9.3125 2.24219C9.5 2.42969 9.72917 2.52344 10 2.52344ZM4.01562 5.00781C4.28125 5.00781 4.50781 4.91406 4.69531 4.72656C4.88802 4.53906 4.98438 4.3099 4.98438 4.03906C4.98438 3.76823 4.89062 3.53906 4.70312 3.35156C4.51562 3.16406 4.28646 3.07031 4.01562 3.07031C3.75 3.07031 3.52083 3.16406 3.32812 3.35156C3.14062 3.53906 3.04688 3.76823 3.04688 4.03906C3.04688 4.30469 3.14062 4.53385 3.32812 4.72656C3.51562 4.91406 3.74479 5.00781 4.01562 5.00781ZM1.55469 10.9688C1.82031 10.9688 2.04688 10.875 2.23438 10.6875C2.42708 10.4948 2.52344 10.263 2.52344 9.99219C2.52344 9.72656 2.42969 9.5 2.24219 9.3125C2.05469 9.11979 1.82552 9.02344 1.55469 9.02344C1.28906 9.02344 1.0599 9.11719 0.867188 9.30469C0.674479 9.49219 0.578125 9.72135 0.578125 9.99219C0.578125 10.2578 0.671875 10.487 0.859375 10.6797C1.05208 10.8724 1.28385 10.9688 1.55469 10.9688ZM4.02344 16.9219C4.28906 16.9219 4.51562 16.8281 4.70312 16.6406C4.89583 16.4531 4.99219 16.224 4.99219 15.9531C4.99219 15.6875 4.89844 15.4583 4.71094 15.2656C4.52344 15.0781 4.29427 14.9844 4.02344 14.9844C3.75781 14.9844 3.52865 15.0781 3.33594 15.2656C3.14844 15.4531 3.05469 15.6823 3.05469 15.9531C3.05469 16.224 3.14844 16.4531 3.33594 16.6406C3.52344 16.8281 3.7526 16.9219 4.02344 16.9219Z" fill="white"/>
</svg>
