<svg width="116" height="116" viewBox="0 0 116 116" fill="none" xmlns="http://www.w3.org/2000/svg">
<path d="M20.5625 115.5H96.375C102.917 115.5 107.812 113.875 111.062 110.625C114.354 107.417 116 102.583 116 96.125V19.8125C116 13.3542 114.354 8.52083 111.062 5.3125C107.812 2.0625 102.917 0.4375 96.375 0.4375H20.5625C14.0208 0.4375 9.10417 2.0625 5.8125 5.3125C2.5625 8.52083 0.9375 13.3542 0.9375 19.8125V96.125C0.9375 102.583 2.5625 107.417 5.8125 110.625C9.10417 113.875 14.0208 115.5 20.5625 115.5ZM20.6875 105.438C17.5625 105.438 15.1667 104.625 13.5 103C11.8333 101.333 11 98.875 11 95.625V20.3125C11 17.0625 11.8333 14.625 13.5 13C15.1667 11.3333 17.5625 10.5 20.6875 10.5H96.25C99.3333 10.5 101.708 11.3333 103.375 13C105.083 14.625 105.938 17.0625 105.938 20.3125V95.625C105.938 98.875 105.083 101.333 103.375 103C101.708 104.625 99.3333 105.438 96.25 105.438H20.6875ZM30.4375 40C33.1875 40.0417 35.5625 39.0625 37.5625 37.0625C39.5625 35.0625 40.5625 32.625 40.5625 29.75C40.5625 26.9583 39.5625 24.5833 37.5625 22.625C35.5625 20.6667 33.1875 19.6875 30.4375 19.6875C27.6458 19.6875 25.25 20.6667 23.25 22.625C21.25 24.5833 20.25 26.9583 20.25 29.75C20.25 32.625 21.25 35.0417 23.25 37C25.25 38.9583 27.6458 39.9583 30.4375 40ZM86.625 40C89.375 40.0417 91.75 39.0625 93.75 37.0625C95.75 35.0625 96.75 32.625 96.75 29.75C96.75 26.9583 95.75 24.5833 93.75 22.625C91.75 20.6667 89.375 19.6875 86.625 19.6875C83.8333 19.6875 81.4167 20.6667 79.375 22.625C77.375 24.5833 76.375 26.9583 76.375 29.75C76.375 32.625 77.375 35.0417 79.375 37C81.4167 38.9583 83.8333 39.9583 86.625 40ZM30.4375 68.125C33.1875 68.125 35.5625 67.125 37.5625 65.125C39.5625 63.125 40.5625 60.7083 40.5625 57.875C40.5625 55.125 39.5625 52.7708 37.5625 50.8125C35.5625 48.8125 33.1875 47.8125 30.4375 47.8125C27.6458 47.8125 25.25 48.8125 23.25 50.8125C21.2917 52.7708 20.3125 55.125 20.3125 57.875C20.3125 60.7083 21.2917 63.125 23.25 65.125C25.25 67.125 27.6458 68.125 30.4375 68.125ZM86.625 68.125C89.375 68.125 91.75 67.125 93.75 65.125C95.75 63.125 96.75 60.7083 96.75 57.875C96.75 55.125 95.75 52.7708 93.75 50.8125C91.75 48.8125 89.375 47.8125 86.625 47.8125C83.7917 47.8125 81.375 48.8125 79.375 50.8125C77.4167 52.7708 76.4375 55.125 76.4375 57.875C76.4375 60.7083 77.4167 63.125 79.375 65.125C81.375 67.125 83.7917 68.125 86.625 68.125ZM30.4375 96.25C33.1875 96.25 35.5625 95.25 37.5625 93.25C39.5625 91.25 40.5625 88.8542 40.5625 86.0625C40.5625 83.2708 39.5625 80.8958 37.5625 78.9375C35.5625 76.9375 33.1875 75.9375 30.4375 75.9375C27.6458 75.9375 25.25 76.9375 23.25 78.9375C21.2917 80.8958 20.3125 83.2708 20.3125 86.0625C20.3125 88.8542 21.2917 91.25 23.25 93.25C25.25 95.25 27.6458 96.25 30.4375 96.25ZM86.625 96.25C89.375 96.25 91.75 95.25 93.75 93.25C95.75 91.25 96.75 88.8542 96.75 86.0625C96.75 83.2708 95.75 80.8958 93.75 78.9375C91.75 76.9375 89.375 75.9375 86.625 75.9375C83.8333 75.9375 81.4375 76.9375 79.4375 78.9375C77.4792 80.8958 76.5 83.2708 76.5 86.0625C76.5 88.8542 77.4792 91.25 79.4375 93.25C81.4375 95.25 83.8333 96.25 86.625 96.25Z" fill="white"/>
</svg>
