<svg width="18" height="17" viewBox="0 0 18 17" fill="none" xmlns="http://www.w3.org/2000/svg">
<path d="M10.1562 8.35938C10.1562 9.9375 10.3125 11.3203 10.625 12.5078C10.9427 13.6901 11.3854 14.6094 11.9531 15.2656C12.526 15.9271 13.1927 16.2578 13.9531 16.2578C14.7135 16.2578 15.3776 15.9271 15.9453 15.2656C16.5182 14.6094 16.9635 13.6901 17.2812 12.5078C17.599 11.3203 17.7578 9.9375 17.7578 8.35938C17.7578 6.78125 17.599 5.40104 17.2812 4.21875C16.9635 3.03125 16.5182 2.10938 15.9453 1.45312C15.3776 0.791667 14.7135 0.460938 13.9531 0.460938C13.1927 0.460938 12.526 0.791667 11.9531 1.45312C11.3854 2.10938 10.9427 3.03125 10.625 4.21875C10.3125 5.40104 10.1562 6.78125 10.1562 8.35938ZM11.4141 8.35938C11.4141 7.03125 11.5208 5.86979 11.7344 4.875C11.9479 3.88021 12.2448 3.10677 12.625 2.55469C13.0052 1.9974 13.4479 1.71875 13.9531 1.71875C14.4583 1.71875 14.901 1.9974 15.2812 2.55469C15.6667 3.10677 15.9661 3.88021 16.1797 4.875C16.3932 5.86979 16.5 7.03125 16.5 8.35938C16.5 9.6875 16.3932 10.849 16.1797 11.8438C15.9661 12.8385 15.6667 13.612 15.2812 14.1641C14.901 14.7214 14.4583 15 13.9531 15C13.4479 15 13.0052 14.7214 12.625 14.1641C12.2448 13.612 11.9479 12.8385 11.7344 11.8438C11.5208 10.849 11.4141 9.6875 11.4141 8.35938ZM6.20312 8.35938C6.20312 10 6.36198 11.4115 6.67969 12.5938C6.9974 13.7708 7.4974 14.6745 8.17969 15.3047C8.86719 15.9401 9.75521 16.2578 10.8438 16.2578H13.9531V15H10.8438C10.0156 15 9.35417 14.7318 8.85938 14.1953C8.36458 13.6641 8.00781 12.9036 7.78906 11.9141C7.57031 10.9193 7.46094 9.73438 7.46094 8.35938C7.46094 6.97917 7.57031 5.79427 7.78906 4.80469C8.00781 3.8151 8.36458 3.05469 8.85938 2.52344C9.35417 1.98698 10.0156 1.71875 10.8438 1.71875H13.9531V0.460938H10.8438C9.75521 0.460938 8.86719 0.778646 8.17969 1.41406C7.4974 2.04427 6.9974 2.95052 6.67969 4.13281C6.36198 5.3099 6.20312 6.71875 6.20312 8.35938ZM9.91406 3.78906H11.375V2.76562H9.91406C9.77344 2.76562 9.65104 2.81771 9.54688 2.92188C9.44792 3.02083 9.39844 3.14062 9.39844 3.28125C9.39844 3.42188 9.44792 3.54167 9.54688 3.64062C9.65104 3.73958 9.77344 3.78906 9.91406 3.78906ZM9.38281 6.1875H10.8438V5.16406H9.38281C9.24219 5.16406 9.11979 5.21354 9.01562 5.3125C8.91667 5.41146 8.86719 5.53125 8.86719 5.67188C8.86719 5.8125 8.91667 5.9349 9.01562 6.03906C9.11979 6.13802 9.24219 6.1875 9.38281 6.1875ZM9.17969 8.77344H10.6406V7.75H9.17969C9.03906 7.75 8.91927 7.80208 8.82031 7.90625C8.72135 8.00521 8.67188 8.125 8.67188 8.26562C8.67188 8.40625 8.72135 8.52604 8.82031 8.625C8.91927 8.72396 9.03906 8.77344 9.17969 8.77344ZM9.38281 11.3672H10.8438V10.3438H9.38281C9.24219 10.3438 9.11979 10.3958 9.01562 10.5C8.91667 10.599 8.86719 10.7188 8.86719 10.8594C8.86719 11 8.91667 11.1198 9.01562 11.2188C9.11979 11.3177 9.24219 11.3672 9.38281 11.3672ZM9.91406 13.7656H11.375V12.7422H9.91406C9.77344 12.7422 9.65104 12.7917 9.54688 12.8906C9.44792 12.9896 9.39844 13.1094 9.39844 13.25C9.39844 13.3906 9.44792 13.513 9.54688 13.6172C9.65104 13.7161 9.77344 13.7656 9.91406 13.7656ZM2.59375 14.5703C2.71354 14.5703 2.82552 14.5391 2.92969 14.4766C3.03385 14.4141 3.10677 14.3229 3.14844 14.2031C3.19531 14.0885 3.1901 13.9531 3.13281 13.7969C2.88802 13.0833 2.70052 12.3281 2.57031 11.5312C2.44531 10.7292 2.38281 9.90885 2.38281 9.07031C2.38281 8.23177 2.44531 7.41406 2.57031 6.61719C2.70052 5.82031 2.88802 5.0625 3.13281 4.34375L2.01562 3.96094C1.75521 4.73698 1.55469 5.55729 1.41406 6.42188C1.27344 7.28646 1.20312 8.16927 1.20312 9.07031C1.20312 9.97656 1.27344 10.862 1.41406 11.7266C1.55469 12.5859 1.75521 13.4036 2.01562 14.1797C2.0625 14.3203 2.14062 14.4193 2.25 14.4766C2.35938 14.5391 2.47396 14.5703 2.59375 14.5703ZM0.609375 4.60938L3.96875 5.82812C4.14062 5.89062 4.28906 5.88802 4.41406 5.82031C4.54427 5.7474 4.63802 5.64323 4.69531 5.50781C4.7526 5.3724 4.75781 5.23438 4.71094 5.09375L3.79688 2.35938C3.73958 2.17708 3.6276 2.05729 3.46094 2C3.29948 1.9375 3.13542 1.95833 2.96875 2.0625L0.507812 3.57812C0.377604 3.65625 0.294271 3.76562 0.257812 3.90625C0.221354 4.04688 0.231771 4.1849 0.289062 4.32031C0.346354 4.45052 0.453125 4.54688 0.609375 4.60938Z" fill="white"/>
</svg>
