<?xml version="1.0" encoding="UTF-8"?>
<svg xmlns="http://www.w3.org/2000/svg" xmlns:xlink="http://www.w3.org/1999/xlink" width="24" height="22.666667" viewBox="0 0 24 22.666667" version="1.1">
<g id="surface1">
<path style=" stroke:none;fill-rule:nonzero;fill:rgb(100%,100%,100%);fill-opacity:1;" d="M 13.542969 11.144531 C 13.542969 13.25 13.75 15.09375 14.167969 16.675781 C 14.589844 18.253906 15.179688 19.480469 15.9375 20.355469 C 16.703125 21.234375 17.589844 21.675781 18.605469 21.675781 C 19.617188 21.675781 20.503906 21.234375 21.261719 20.355469 C 22.023438 19.480469 22.617188 18.253906 23.042969 16.675781 C 23.464844 15.09375 23.675781 13.25 23.675781 11.144531 C 23.675781 9.042969 23.464844 7.203125 23.042969 5.625 C 22.617188 4.042969 22.023438 2.8125 21.261719 1.9375 C 20.503906 1.054688 19.617188 0.613281 18.605469 0.613281 C 17.589844 0.613281 16.703125 1.054688 15.9375 1.9375 C 15.179688 2.8125 14.589844 4.042969 14.167969 5.625 C 13.75 7.203125 13.542969 9.042969 13.542969 11.144531 Z M 15.21875 11.144531 C 15.21875 9.375 15.359375 7.828125 15.644531 6.5 C 15.929688 5.171875 16.328125 4.140625 16.832031 3.40625 C 17.339844 2.664062 17.929688 2.292969 18.605469 2.292969 C 19.277344 2.292969 19.867188 2.664062 20.375 3.40625 C 20.890625 4.140625 21.289062 5.171875 21.574219 6.5 C 21.859375 7.828125 22 9.375 22 11.144531 C 22 12.917969 21.859375 14.464844 21.574219 15.792969 C 21.289062 17.117188 20.890625 18.148438 20.375 18.886719 C 19.867188 19.628906 19.277344 20 18.605469 20 C 17.929688 20 17.339844 19.628906 16.832031 18.886719 C 16.328125 18.148438 15.929688 17.117188 15.644531 15.792969 C 15.359375 14.464844 15.21875 12.917969 15.21875 11.144531 Z M 8.269531 11.144531 C 8.269531 13.332031 8.484375 15.214844 8.90625 16.792969 C 9.328125 18.359375 9.996094 19.566406 10.90625 20.40625 C 11.824219 21.253906 13.007812 21.675781 14.457031 21.675781 L 18.605469 21.675781 L 18.605469 20 L 14.457031 20 C 13.355469 20 12.472656 19.640625 11.8125 18.925781 C 11.152344 18.21875 10.675781 17.203125 10.386719 15.886719 C 10.09375 14.558594 9.949219 12.980469 9.949219 11.144531 C 9.949219 9.304688 10.09375 7.726562 10.386719 6.40625 C 10.675781 5.085938 11.152344 4.074219 11.8125 3.363281 C 12.472656 2.648438 13.355469 2.292969 14.457031 2.292969 L 18.605469 2.292969 L 18.605469 0.613281 L 14.457031 0.613281 C 13.007812 0.613281 11.824219 1.039062 10.90625 1.886719 C 9.996094 2.726562 9.328125 3.933594 8.90625 5.511719 C 8.484375 7.078125 8.269531 8.957031 8.269531 11.144531 Z M 13.21875 5.050781 L 15.167969 5.050781 L 15.167969 3.6875 L 13.21875 3.6875 C 13.03125 3.6875 12.867188 3.757812 12.730469 3.894531 C 12.597656 4.027344 12.53125 4.1875 12.53125 4.375 C 12.53125 4.5625 12.597656 4.722656 12.730469 4.855469 C 12.867188 4.984375 13.03125 5.050781 13.21875 5.050781 Z M 12.511719 8.25 L 14.457031 8.25 L 14.457031 6.886719 L 12.511719 6.886719 C 12.324219 6.886719 12.160156 6.953125 12.019531 7.082031 C 11.890625 7.214844 11.824219 7.375 11.824219 7.5625 C 11.824219 7.75 11.890625 7.914062 12.019531 8.050781 C 12.160156 8.183594 12.324219 8.25 12.511719 8.25 Z M 12.238281 11.699219 L 14.1875 11.699219 L 14.1875 10.332031 L 12.238281 10.332031 C 12.050781 10.332031 11.890625 10.402344 11.761719 10.542969 C 11.628906 10.671875 11.5625 10.832031 11.5625 11.019531 C 11.5625 11.207031 11.628906 11.367188 11.761719 11.5 C 11.890625 11.632812 12.050781 11.699219 12.238281 11.699219 Z M 12.511719 15.15625 L 14.457031 15.15625 L 14.457031 13.792969 L 12.511719 13.792969 C 12.324219 13.792969 12.160156 13.859375 12.019531 14 C 11.890625 14.132812 11.824219 14.292969 11.824219 14.480469 C 11.824219 14.667969 11.890625 14.828125 12.019531 14.957031 C 12.160156 15.089844 12.324219 15.15625 12.511719 15.15625 Z M 13.21875 18.355469 L 15.167969 18.355469 L 15.167969 16.988281 L 13.21875 16.988281 C 13.03125 16.988281 12.867188 17.054688 12.730469 17.1875 C 12.597656 17.320312 12.53125 17.480469 12.53125 17.667969 C 12.53125 17.855469 12.597656 18.015625 12.730469 18.15625 C 12.867188 18.289062 13.03125 18.355469 13.21875 18.355469 Z M 3.457031 19.425781 C 3.617188 19.425781 3.765625 19.386719 3.90625 19.300781 C 4.046875 19.21875 4.140625 19.097656 4.199219 18.9375 C 4.261719 18.785156 4.253906 18.605469 4.175781 18.394531 C 3.851562 17.445312 3.601562 16.4375 3.425781 15.375 C 3.261719 14.304688 3.175781 13.210938 3.175781 12.09375 C 3.175781 10.976562 3.261719 9.886719 3.425781 8.824219 C 3.601562 7.761719 3.851562 6.75 4.175781 5.792969 L 2.6875 5.28125 C 2.339844 6.316406 2.074219 7.410156 1.886719 8.5625 C 1.699219 9.714844 1.605469 10.890625 1.605469 12.09375 C 1.605469 13.300781 1.699219 14.484375 1.886719 15.636719 C 2.074219 16.78125 2.339844 17.871094 2.6875 18.90625 C 2.75 19.09375 2.855469 19.226562 3 19.300781 C 3.144531 19.386719 3.296875 19.425781 3.457031 19.425781 Z M 0.8125 6.144531 L 5.292969 7.769531 C 5.519531 7.855469 5.71875 7.851562 5.886719 7.761719 C 6.058594 7.664062 6.183594 7.523438 6.261719 7.34375 C 6.335938 7.164062 6.34375 6.980469 6.28125 6.792969 L 5.0625 3.144531 C 4.984375 2.902344 4.835938 2.742188 4.613281 2.667969 C 4.398438 2.582031 4.179688 2.609375 3.957031 2.75 L 0.675781 4.769531 C 0.503906 4.875 0.390625 5.019531 0.34375 5.207031 C 0.296875 5.394531 0.308594 5.578125 0.386719 5.761719 C 0.460938 5.933594 0.605469 6.0625 0.8125 6.144531 Z M 0.8125 6.144531 "/>
</g>
</svg>
