<svg width="140" height="128" viewBox="0 0 140 128" fill="none" xmlns="http://www.w3.org/2000/svg">
<path d="M81.875 63.875C81.875 76.1667 83.0833 86.9375 85.5 96.1875C87.9583 105.438 91.3333 112.625 95.625 117.75C99.9583 122.875 104.979 125.438 110.688 125.438C116.396 125.438 121.417 122.875 125.75 117.75C130.083 112.625 133.458 105.438 135.875 96.1875C138.292 86.9375 139.5 76.1667 139.5 63.875C139.5 51.5417 138.292 40.7708 135.875 31.5625C133.458 22.3125 130.083 15.125 125.75 10C121.417 4.83333 116.396 2.25 110.688 2.25C104.979 2.25 99.9583 4.83333 95.625 10C91.3333 15.125 87.9583 22.3125 85.5 31.5625C83.0833 40.7708 81.875 51.5417 81.875 63.875ZM48.6875 63.875C48.6875 77 49.9583 88.2917 52.5 97.75C55.0417 107.167 59.0417 114.396 64.5 119.438C70 124.521 77.1042 127.062 85.8125 127.062H92.875C87.5833 122.438 83.3125 115.792 80.0625 107.125H71.625C70.5 107.125 69.5208 106.729 68.6875 105.938C67.8958 105.104 67.5 104.125 67.5 103C67.5 101.875 67.8958 100.917 68.6875 100.125C69.5208 99.3333 70.5 98.9375 71.625 98.9375H77.4375C76.9375 97.1458 76.5 95.3125 76.125 93.4375C75.75 91.5208 75.4167 89.6875 75.125 87.9375H67.375C66.25 87.9375 65.2708 87.5417 64.4375 86.75C63.6458 85.9583 63.25 85 63.25 83.875C63.25 82.75 63.6458 81.7917 64.4375 81C65.2708 80.1667 66.25 79.75 67.375 79.75H74.125C73.9167 77.7083 73.75 75.6042 73.625 73.4375C73.5 71.2292 73.4167 69.1458 73.375 67.1875H65.75C64.625 67.1875 63.6667 66.7917 62.875 66C62.0833 65.2083 61.6875 64.25 61.6875 63.125C61.6875 62 62.0833 61.0417 62.875 60.25C63.6667 59.4167 64.625 59 65.75 59H73.4375C73.4792 56.9583 73.5625 54.875 73.6875 52.75C73.8125 50.625 74 48.5417 74.25 46.5H67.375C66.25 46.5 65.2708 46.1042 64.4375 45.3125C63.6458 44.4792 63.25 43.5 63.25 42.375C63.25 41.25 63.6458 40.2917 64.4375 39.5C65.2708 38.7083 66.25 38.3125 67.375 38.3125H75.375C75.7083 36.3958 76.0625 34.5208 76.4375 32.6875C76.8542 30.8542 77.3333 29.0625 77.875 27.3125H71.625C70.5 27.3125 69.5208 26.9167 68.6875 26.125C67.8958 25.3333 67.5 24.375 67.5 23.25C67.5 22.125 67.8958 21.1667 68.6875 20.375C69.5208 19.5417 70.5 19.125 71.625 19.125H80.625C83.75 11.2083 87.8333 5.0625 92.875 0.6875H85.8125C77.1042 0.6875 70 3.22917 64.5 8.3125C59.0417 13.3542 55.0417 20.6042 52.5 30.0625C49.9583 39.4792 48.6875 50.75 48.6875 63.875ZM20.3125 113.938C21.2708 113.938 22.1667 113.667 23 113.125C23.875 112.625 24.4792 111.917 24.8125 111C25.1875 110.083 25.125 108.979 24.625 107.688C22.5 101.812 20.875 95.7083 19.75 89.375C18.6667 83.0417 18.125 76.4375 18.125 69.5625C18.125 62.6875 18.6667 56.0833 19.75 49.75C20.875 43.4167 22.5 37.3125 24.625 31.4375L15.75 28.25C13.4167 34.625 11.6458 41.25 10.4375 48.125C9.27083 55 8.6875 62.1458 8.6875 69.5625C8.6875 76.9792 9.29167 84.125 10.5 91C11.7083 97.875 13.4583 104.5 15.75 110.875C16.125 111.958 16.75 112.729 17.625 113.188C18.5 113.688 19.3958 113.938 20.3125 113.938ZM3.9375 33.5L30.8125 43.3125C32.1875 43.7708 33.375 43.7292 34.375 43.1875C35.4167 42.6458 36.1667 41.8333 36.625 40.75C37.0833 39.625 37.125 38.5 36.75 37.375L29.4375 15.5625C28.9792 14.1042 28.0833 13.1458 26.75 12.6875C25.4583 12.1875 24.1458 12.3333 22.8125 13.125L3.125 25.3125C2.08333 25.9375 1.41667 26.8125 1.125 27.9375C0.833333 29.0625 0.916667 30.1667 1.375 31.25C1.83333 32.2917 2.6875 33.0417 3.9375 33.5Z" fill="white"/>
</svg>
