<svg width="147" height="128" viewBox="0 0 147 128" fill="none" xmlns="http://www.w3.org/2000/svg">
<path d="M0.9375 63.875C0.9375 77 2.20833 88.2917 4.75 97.75C7.33333 107.167 11.3542 114.396 16.8125 119.438C22.2708 124.521 29.3542 127.062 38.0625 127.062H63V117H38.0625C31.4375 117 26.1458 114.854 22.1875 110.562C18.2292 106.312 15.375 100.229 13.625 92.3125C11.875 84.3542 11 74.875 11 63.875C11 52.8333 11.875 43.3542 13.625 35.4375C15.375 27.5208 18.2292 21.4375 22.1875 17.1875C26.1458 12.8958 31.4375 10.75 38.0625 10.75H63V0.6875H38.0625C29.3542 0.6875 22.2708 3.22917 16.8125 8.3125C11.3542 13.3542 7.33333 20.6042 4.75 30.0625C2.20833 39.4792 0.9375 50.75 0.9375 63.875ZM30.625 27.3125H42.3125V19.125H30.625C29.5 19.125 28.5417 19.5417 27.75 20.375C26.9583 21.1667 26.5625 22.125 26.5625 23.25C26.5625 24.375 26.9583 25.3333 27.75 26.125C28.5417 26.9167 29.5 27.3125 30.625 27.3125ZM26.375 46.5H38.0625V38.3125H26.375C25.25 38.3125 24.2917 38.7083 23.5 39.5C22.7083 40.2917 22.3125 41.25 22.3125 42.375C22.3125 43.5 22.7083 44.4792 23.5 45.3125C24.2917 46.1042 25.25 46.5 26.375 46.5ZM24.8125 67.1875H36.5V59H24.8125C23.6875 59 22.7083 59.4167 21.875 60.25C21.0833 61.0417 20.6875 62 20.6875 63.125C20.6875 64.25 21.0833 65.2083 21.875 66C22.7083 66.7917 23.6875 67.1875 24.8125 67.1875ZM26.375 87.9375H38.0625V79.75H26.375C25.25 79.75 24.2917 80.1667 23.5 81C22.7083 81.7917 22.3125 82.75 22.3125 83.875C22.3125 85 22.7083 85.9583 23.5 86.75C24.2917 87.5417 25.25 87.9375 26.375 87.9375ZM30.625 107.125H42.3125V98.9375H30.625C29.5 98.9375 28.5417 99.3333 27.75 100.125C26.9583 100.917 26.5625 101.875 26.5625 103C26.5625 104.125 26.9583 105.104 27.75 105.938C28.5417 106.729 29.5 107.125 30.625 107.125ZM79.4375 67.6875L98.375 84.4375C99.5833 85.5625 100.875 86.125 102.25 86.125C103.667 86.125 104.875 85.6458 105.875 84.6875C106.875 83.6875 107.375 82.3125 107.375 80.5625V69.25H141.125C142.667 69.25 143.938 68.7292 144.938 67.6875C145.979 66.6458 146.5 65.3958 146.5 63.9375C146.5 62.3958 145.979 61.125 144.938 60.125C143.938 59.0833 142.667 58.5625 141.125 58.5625H107.375V47.125C107.375 45.4167 106.875 44.0833 105.875 43.125C104.917 42.125 103.75 41.6042 102.375 41.5625C101 41.5208 99.6667 42.0625 98.375 43.1875L79.4375 60C78.1458 61.125 77.5 62.4167 77.5 63.875C77.5 65.2917 78.1458 66.5625 79.4375 67.6875ZM63 117C58.9583 117 55.3958 114.771 52.3125 110.312C49.2708 105.896 46.8958 99.7083 45.1875 91.75C43.4792 83.7917 42.625 74.5 42.625 63.875C42.625 53.25 43.4792 43.9583 45.1875 36C46.8958 28.0417 49.2708 21.8542 52.3125 17.4375C55.3958 12.9792 58.9583 10.75 63 10.75C66.2083 10.75 69.125 12.1875 71.75 15.0625C74.375 17.9375 76.5833 22.0208 78.375 27.3125C80.1667 32.6042 81.4792 38.875 82.3125 46.125L91.0625 38.1875C89.6875 30.4792 87.6667 23.8333 85 18.25C82.3333 12.625 79.125 8.29167 75.375 5.25C71.6667 2.20833 67.5417 0.6875 63 0.6875C56.9167 0.6875 51.5833 3.33333 47 8.625C42.4583 13.875 38.9167 21.25 36.375 30.75C33.8333 40.2083 32.5625 51.25 32.5625 63.875C32.5625 76.5 33.8333 87.5625 36.375 97.0625C38.9167 106.521 42.4583 113.875 47 119.125C51.5833 124.417 56.9167 127.062 63 127.062C67.5417 127.062 71.6667 125.542 75.375 122.5C79.125 119.458 82.3333 115.125 85 109.5C87.6667 103.917 89.7083 97.25 91.125 89.5L82.3125 81.625C81.4792 88.875 80.1667 95.1458 78.375 100.438C76.5833 105.729 74.375 109.812 71.75 112.688C69.125 115.562 66.2083 117 63 117Z" fill="white"/>
</svg>
