<?xml version="1.0" encoding="UTF-8"?>
<svg xmlns="http://www.w3.org/2000/svg" xmlns:xlink="http://www.w3.org/1999/xlink" width="24" height="22.666667" viewBox="0 0 24 22.666667" version="1.1">
<g id="surface1">
<path style=" stroke:none;fill-rule:nonzero;fill:rgb(100%,100%,100%);fill-opacity:1;" d="M 13.9375 11.144531 C 13.9375 13.195312 14.140625 14.988281 14.542969 16.53125 C 14.953125 18.074219 15.515625 19.269531 16.230469 20.125 C 16.953125 20.980469 17.789062 21.40625 18.738281 21.40625 C 19.691406 21.40625 20.527344 20.980469 21.25 20.125 C 21.972656 19.269531 22.535156 18.074219 22.9375 16.53125 C 23.339844 14.988281 23.542969 13.195312 23.542969 11.144531 C 23.542969 9.089844 23.339844 7.296875 22.9375 5.761719 C 22.535156 4.21875 21.972656 3.019531 21.25 2.167969 C 20.527344 1.304688 19.691406 0.875 18.738281 0.875 C 17.789062 0.875 16.953125 1.304688 16.230469 2.167969 C 15.515625 3.019531 14.953125 4.21875 14.542969 5.761719 C 14.140625 7.296875 13.9375 9.089844 13.9375 11.144531 Z M 8.40625 11.144531 C 8.40625 13.332031 8.617188 15.214844 9.042969 16.792969 C 9.464844 18.359375 10.132812 19.566406 11.042969 20.40625 C 11.957031 21.253906 13.140625 21.675781 14.59375 21.675781 L 15.769531 21.675781 C 14.890625 20.90625 14.175781 19.796875 13.636719 18.355469 L 12.230469 18.355469 C 12.042969 18.355469 11.878906 18.289062 11.738281 18.15625 C 11.609375 18.015625 11.542969 17.855469 11.542969 17.667969 C 11.542969 17.480469 11.609375 17.320312 11.738281 17.1875 C 11.878906 17.054688 12.042969 16.988281 12.230469 16.988281 L 13.199219 16.988281 C 13.113281 16.691406 13.042969 16.386719 12.980469 16.074219 C 12.917969 15.753906 12.859375 15.449219 12.8125 15.15625 L 11.519531 15.15625 C 11.332031 15.15625 11.171875 15.089844 11.03125 14.957031 C 10.898438 14.828125 10.832031 14.667969 10.832031 14.480469 C 10.832031 14.292969 10.898438 14.132812 11.03125 14 C 11.171875 13.859375 11.332031 13.792969 11.519531 13.792969 L 12.644531 13.792969 C 12.609375 13.453125 12.582031 13.101562 12.5625 12.738281 C 12.542969 12.371094 12.527344 12.023438 12.519531 11.699219 L 11.25 11.699219 C 11.0625 11.699219 10.902344 11.632812 10.769531 11.5 C 10.640625 11.367188 10.574219 11.207031 10.574219 11.019531 C 10.574219 10.832031 10.640625 10.671875 10.769531 10.542969 C 10.902344 10.402344 11.0625 10.332031 11.25 10.332031 L 12.53125 10.332031 C 12.539062 9.992188 12.550781 9.644531 12.574219 9.292969 C 12.59375 8.9375 12.625 8.589844 12.667969 8.25 L 11.519531 8.25 C 11.332031 8.25 11.171875 8.183594 11.03125 8.050781 C 10.898438 7.914062 10.832031 7.75 10.832031 7.5625 C 10.832031 7.375 10.898438 7.214844 11.03125 7.082031 C 11.171875 6.953125 11.332031 6.886719 11.519531 6.886719 L 12.855469 6.886719 C 12.910156 6.566406 12.96875 6.253906 13.03125 5.949219 C 13.101562 5.640625 13.179688 5.34375 13.269531 5.050781 L 12.230469 5.050781 C 12.042969 5.050781 11.878906 4.984375 11.738281 4.855469 C 11.609375 4.722656 11.542969 4.5625 11.542969 4.375 C 11.542969 4.1875 11.609375 4.027344 11.738281 3.894531 C 11.878906 3.757812 12.042969 3.6875 12.230469 3.6875 L 13.730469 3.6875 C 14.25 2.367188 14.929688 1.34375 15.769531 0.613281 L 14.59375 0.613281 C 13.140625 0.613281 11.957031 1.039062 11.042969 1.886719 C 10.132812 2.726562 9.464844 3.933594 9.042969 5.511719 C 8.617188 7.078125 8.40625 8.957031 8.40625 11.144531 Z M 3.675781 19.488281 C 3.835938 19.488281 3.984375 19.445312 4.125 19.355469 C 4.269531 19.269531 4.371094 19.152344 4.425781 19 C 4.488281 18.847656 4.480469 18.664062 4.394531 18.449219 C 4.042969 17.46875 3.769531 16.453125 3.582031 15.394531 C 3.402344 14.339844 3.3125 13.238281 3.3125 12.09375 C 3.3125 10.949219 3.402344 9.847656 3.582031 8.792969 C 3.769531 7.734375 4.042969 6.71875 4.394531 5.738281 L 2.917969 5.207031 C 2.527344 6.269531 2.234375 7.375 2.03125 8.519531 C 1.835938 9.667969 1.738281 10.859375 1.738281 12.09375 C 1.738281 13.328125 1.839844 14.519531 2.042969 15.667969 C 2.242188 16.8125 2.535156 17.917969 2.917969 18.980469 C 2.980469 19.160156 3.082031 19.289062 3.230469 19.363281 C 3.375 19.449219 3.523438 19.488281 3.675781 19.488281 Z M 0.949219 6.082031 L 5.425781 7.71875 C 5.65625 7.796875 5.855469 7.789062 6.019531 7.699219 C 6.195312 7.609375 6.320312 7.472656 6.394531 7.292969 C 6.472656 7.105469 6.480469 6.917969 6.417969 6.730469 L 5.199219 3.09375 C 5.121094 2.851562 4.972656 2.691406 4.75 2.613281 C 4.535156 2.53125 4.316406 2.554688 4.09375 2.6875 L 0.8125 4.71875 C 0.640625 4.824219 0.527344 4.96875 0.480469 5.15625 C 0.429688 5.34375 0.445312 5.527344 0.519531 5.707031 C 0.597656 5.882812 0.738281 6.007812 0.949219 6.082031 Z M 0.949219 6.082031 "/>
</g>
</svg>
