<svg width="203" height="127" viewBox="0 0 203 127" fill="none" xmlns="http://www.w3.org/2000/svg">
<path d="M15.3125 103.875H95.1875V93.8125H15.5C14.125 93.8125 13.0208 93.4167 12.1875 92.625C11.3958 91.7917 11 90.6875 11 89.3125V14.6875C11 13.2708 11.3958 12.1667 12.1875 11.375C13.0208 10.5833 14.125 10.1875 15.5 10.1875H135.375C136.75 10.1875 137.833 10.5833 138.625 11.375C139.458 12.1667 139.875 13.2708 139.875 14.6875V33.3125H149.938V14.5C149.938 10 148.646 6.47917 146.062 3.9375C143.521 1.39583 140 0.125 135.5 0.125H15.3125C10.8542 0.125 7.33333 1.39583 4.75 3.9375C2.20833 6.47917 0.9375 10 0.9375 14.5V89.4375C0.9375 93.9375 2.20833 97.4792 4.75 100.062C7.33333 102.604 10.8542 103.875 15.3125 103.875ZM55.6875 118.75H95.1875V103.062H55.6875V118.75ZM55.3125 126.062H95.5625C96.9375 126.062 98.1042 125.562 99.0625 124.562C100.062 123.604 100.562 122.417 100.562 121C100.562 119.583 100.062 118.375 99.0625 117.375C98.1042 116.417 96.9375 115.938 95.5625 115.938H55.3125C53.9375 115.938 52.75 116.417 51.75 117.375C50.75 118.375 50.25 119.583 50.25 121C50.25 122.417 50.75 123.604 51.75 124.562C52.75 125.562 53.9375 126.062 55.3125 126.062ZM85.9375 93.6875C85.9375 99.1458 87.2708 103.188 89.9375 105.812C92.6458 108.396 96.6667 109.688 102 109.688H186.125C191.458 109.688 195.458 108.396 198.125 105.812C200.792 103.188 202.125 99.1458 202.125 93.6875V45.9375C202.125 40.4792 200.792 36.4375 198.125 33.8125C195.458 31.1875 191.458 29.875 186.125 29.875H102C96.6667 29.875 92.6458 31.1875 89.9375 33.8125C87.2708 36.4375 85.9375 40.4792 85.9375 45.9375V93.6875ZM96 93.5V46.125C96 43.9167 96.5 42.3333 97.5 41.375C98.5 40.4167 100.062 39.9375 102.188 39.9375H185.938C188.062 39.9375 189.604 40.4167 190.562 41.375C191.562 42.3333 192.062 43.9167 192.062 46.125V93.5C192.062 95.7083 191.562 97.2917 190.562 98.25C189.604 99.1667 188.062 99.625 185.938 99.625H102.188C100.062 99.625 98.5 99.1667 97.5 98.25C96.5 97.2917 96 95.7083 96 93.5ZM127.5 118.75H160.625V103.75H127.5V118.75ZM127.125 126.062H160.938C162.354 126.062 163.542 125.562 164.5 124.562C165.5 123.604 166 122.417 166 121C166 119.583 165.5 118.375 164.5 117.375C163.542 116.417 162.354 115.938 160.938 115.938H127.125C125.75 115.938 124.562 116.417 123.562 117.375C122.562 118.375 122.062 119.583 122.062 121C122.062 122.417 122.562 123.604 123.562 124.562C124.562 125.562 125.75 126.062 127.125 126.062Z" fill="white"/>
</svg>
