<?xml version="1.0" encoding="UTF-8"?>
<svg xmlns="http://www.w3.org/2000/svg" xmlns:xlink="http://www.w3.org/1999/xlink" width="24" height="22.8" viewBox="0 0 24 22.8" version="1.1">
<g id="surface1">
<path style=" stroke:none;fill-rule:nonzero;fill:rgb(100%,100%,100%);fill-opacity:1;" d="M 2.980469 18.882812 L 21.007812 18.882812 C 21.683594 18.882812 22.210938 18.691406 22.59375 18.308594 C 22.980469 17.921875 23.175781 17.390625 23.175781 16.714844 L 23.175781 5.476562 C 23.175781 4.800781 22.980469 4.273438 22.59375 3.890625 C 22.210938 3.507812 21.683594 3.320312 21.007812 3.320312 L 13.949219 3.320312 L 13.949219 4.828125 L 20.992188 4.828125 C 21.195312 4.828125 21.359375 4.886719 21.476562 5.007812 C 21.601562 5.125 21.664062 5.289062 21.664062 5.503906 L 21.664062 16.695312 C 21.664062 16.902344 21.601562 17.070312 21.476562 17.195312 C 21.359375 17.3125 21.195312 17.371094 20.992188 17.371094 L 3.007812 17.371094 C 2.804688 17.371094 2.636719 17.3125 2.511719 17.195312 C 2.394531 17.070312 2.335938 16.902344 2.335938 16.695312 L 2.335938 5.503906 C 2.335938 5.289062 2.394531 5.125 2.511719 5.007812 C 2.636719 4.886719 2.804688 4.828125 3.007812 4.828125 L 10.050781 4.828125 L 10.050781 3.320312 L 2.980469 3.320312 C 2.3125 3.320312 1.785156 3.507812 1.398438 3.890625 C 1.015625 4.273438 0.824219 4.800781 0.824219 5.476562 L 0.824219 16.714844 C 0.824219 17.390625 1.015625 17.921875 1.398438 18.308594 C 1.785156 18.691406 2.3125 18.882812 2.980469 18.882812 Z M 9.039062 21.113281 L 14.960938 21.113281 L 14.960938 18.757812 L 9.039062 18.757812 Z M 8.980469 22.210938 L 15.019531 22.210938 C 15.226562 22.210938 15.398438 22.132812 15.542969 21.984375 C 15.695312 21.839844 15.769531 21.664062 15.769531 21.449219 C 15.769531 21.238281 15.695312 21.054688 15.542969 20.90625 C 15.398438 20.761719 15.226562 20.691406 15.019531 20.691406 L 8.980469 20.691406 C 8.773438 20.691406 8.597656 20.761719 8.445312 20.90625 C 8.296875 21.054688 8.222656 21.238281 8.222656 21.449219 C 8.222656 21.664062 8.296875 21.839844 8.445312 21.984375 C 8.597656 22.132812 8.773438 22.210938 8.980469 22.210938 Z M 11.324219 1.171875 L 11.324219 8.625 L 11.417969 10.601562 L 9.589844 8.550781 L 9.046875 8.023438 C 8.984375 7.960938 8.910156 7.914062 8.820312 7.875 C 8.734375 7.835938 8.640625 7.820312 8.539062 7.820312 C 8.351562 7.820312 8.199219 7.882812 8.082031 8.007812 C 7.960938 8.125 7.902344 8.273438 7.902344 8.457031 C 7.902344 8.65625 7.972656 8.820312 8.109375 8.953125 L 11.492188 12.355469 C 11.664062 12.523438 11.832031 12.609375 12 12.609375 C 12.175781 12.609375 12.339844 12.523438 12.496094 12.355469 L 15.890625 8.953125 C 16.027344 8.820312 16.097656 8.65625 16.097656 8.457031 C 16.097656 8.273438 16.035156 8.125 15.910156 8.007812 C 15.789062 7.882812 15.636719 7.820312 15.449219 7.820312 C 15.351562 7.820312 15.257812 7.835938 15.167969 7.875 C 15.085938 7.914062 15.011719 7.960938 14.945312 8.023438 L 14.410156 8.550781 L 12.570312 10.601562 L 12.664062 8.625 L 12.664062 1.171875 C 12.664062 0.964844 12.597656 0.804688 12.460938 0.683594 C 12.328125 0.558594 12.175781 0.496094 12 0.496094 C 11.824219 0.496094 11.667969 0.558594 11.53125 0.683594 C 11.394531 0.804688 11.324219 0.964844 11.324219 1.171875 Z M 11.324219 1.171875 "/>
</g>
</svg>
