<svg width="22" height="19" viewBox="0 0 22 19" fill="none" xmlns="http://www.w3.org/2000/svg">
<path d="M2.75 16.8672H5.46875C6.03646 16.8672 6.47135 16.7135 6.77344 16.4062C7.07552 16.099 7.22656 15.6536 7.22656 15.0703V3.64844C7.22656 3.0651 7.07552 2.6224 6.77344 2.32031C6.47135 2.01302 6.03646 1.85938 5.46875 1.85938H2.75C2.18229 1.85938 1.7474 2.01302 1.44531 2.32031C1.14323 2.6224 0.992188 3.0651 0.992188 3.64844V15.0703C0.992188 15.6536 1.14323 16.099 1.44531 16.4062C1.7474 16.7135 2.18229 16.8672 2.75 16.8672ZM2.82031 15.6875C2.61198 15.6875 2.45052 15.6302 2.33594 15.5156C2.22656 15.4062 2.17188 15.2526 2.17188 15.0547V3.66406C2.17188 3.46615 2.22656 3.3125 2.33594 3.20312C2.45052 3.09375 2.61198 3.03906 2.82031 3.03906H5.40625C5.61458 3.03906 5.77344 3.09375 5.88281 3.20312C5.99219 3.3125 6.04688 3.46615 6.04688 3.66406V15.0547C6.04688 15.2526 5.99219 15.4062 5.88281 15.5156C5.77344 15.6302 5.61458 15.6875 5.40625 15.6875H2.82031ZM9.08594 18.4141C9.23698 18.4141 9.36979 18.362 9.48438 18.2578C9.59896 18.1536 9.65625 18.026 9.65625 17.875V0.84375C9.65625 0.692708 9.59896 0.565104 9.48438 0.460938C9.36979 0.356771 9.23698 0.304688 9.08594 0.304688C8.9349 0.304688 8.79948 0.356771 8.67969 0.460938C8.5651 0.565104 8.50781 0.692708 8.50781 0.84375V17.875C8.50781 18.026 8.5651 18.1536 8.67969 18.2578C8.79948 18.362 8.9349 18.4141 9.08594 18.4141ZM14.1016 14.0938H16.8125C17.3854 14.0938 17.8229 13.9427 18.125 13.6406C18.4271 13.3333 18.5781 12.888 18.5781 12.3047V6.41406C18.5781 5.83073 18.4271 5.38802 18.125 5.08594C17.8229 4.77865 17.3854 4.625 16.8125 4.625H14.1016C13.5286 4.625 13.0911 4.77865 12.7891 5.08594C12.487 5.38802 12.3359 5.83073 12.3359 6.41406V12.3047C12.3359 12.888 12.487 13.3333 12.7891 13.6406C13.0911 13.9427 13.5286 14.0938 14.1016 14.0938ZM14.1641 12.9141C13.9557 12.9141 13.7943 12.8594 13.6797 12.75C13.5703 12.6406 13.5156 12.487 13.5156 12.2891V6.4375C13.5156 6.23438 13.5703 6.07812 13.6797 5.96875C13.7943 5.85938 13.9557 5.80469 14.1641 5.80469H16.75C16.9583 5.80469 17.1172 5.85938 17.2266 5.96875C17.3411 6.07812 17.3984 6.23438 17.3984 6.4375V12.2891C17.3984 12.487 17.3411 12.6406 17.2266 12.75C17.1172 12.8594 16.9583 12.9141 16.75 12.9141H14.1641ZM20.4297 18.4141C20.5859 18.4141 20.7214 18.362 20.8359 18.2578C20.9505 18.1536 21.0078 18.026 21.0078 17.875V0.84375C21.0078 0.692708 20.9505 0.565104 20.8359 0.460938C20.7214 0.356771 20.5859 0.304688 20.4297 0.304688C20.2786 0.304688 20.1458 0.356771 20.0312 0.460938C19.9167 0.565104 19.8594 0.692708 19.8594 0.84375V17.875C19.8594 18.026 19.9167 18.1536 20.0312 18.2578C20.1458 18.362 20.2786 18.4141 20.4297 18.4141Z" fill="white"/>
</svg>
