<svg width="151" height="150" viewBox="0 0 151 150" fill="none" xmlns="http://www.w3.org/2000/svg">
<path d="M52.1875 45.9375H99.3125C103.979 45.9375 107.521 44.7292 109.938 42.3125C112.396 39.8958 113.625 36.4167 113.625 31.875V14.4375C113.625 9.89583 112.396 6.41667 109.938 4C107.521 1.58333 103.979 0.375 99.3125 0.375H52.1875C47.5208 0.375 43.9583 1.58333 41.5 4C39.0833 6.41667 37.875 9.89583 37.875 14.4375V31.875C37.875 36.4167 39.0833 39.8958 41.5 42.3125C43.9583 44.7292 47.5208 45.9375 52.1875 45.9375ZM5.3125 65.375H146.188C147.438 65.375 148.479 64.9167 149.312 64C150.146 63.0833 150.562 62.0208 150.562 60.8125C150.562 59.6042 150.146 58.5417 149.312 57.625C148.479 56.6667 147.438 56.1875 146.188 56.1875H5.3125C4.0625 56.1875 3.02083 56.6667 2.1875 57.625C1.35417 58.5417 0.9375 59.6042 0.9375 60.8125C0.9375 62.0208 1.35417 63.0833 2.1875 64C3.02083 64.9167 4.0625 65.375 5.3125 65.375ZM30.0625 129.938H121.438C126.104 129.938 129.646 128.729 132.062 126.312C134.521 123.896 135.75 120.396 135.75 115.812V98.375C135.75 93.8333 134.521 90.3542 132.062 87.9375C129.646 85.5208 126.104 84.3125 121.438 84.3125H30.0625C25.3958 84.3125 21.8333 85.5208 19.375 87.9375C16.9583 90.3542 15.75 93.8333 15.75 98.375V115.812C15.75 120.396 16.9583 123.896 19.375 126.312C21.8333 128.729 25.3958 129.938 30.0625 129.938ZM5.3125 149.375H146.188C147.438 149.375 148.479 148.917 149.312 148C150.146 147.083 150.562 146 150.562 144.75C150.562 143.542 150.146 142.479 149.312 141.562C148.479 140.646 147.438 140.188 146.188 140.188H5.3125C4.0625 140.188 3.02083 140.646 2.1875 141.562C1.35417 142.479 0.9375 143.542 0.9375 144.75C0.9375 146 1.35417 147.083 2.1875 148C3.02083 148.917 4.0625 149.375 5.3125 149.375Z" fill="white"/>
</svg>
