<svg width="20" height="19" viewBox="0 0 20 19" fill="none" xmlns="http://www.w3.org/2000/svg">
<path d="M1.19531 1.19531H18.8047C18.9609 1.19531 19.0911 1.13802 19.1953 1.02344C19.2995 0.908854 19.3516 0.773438 19.3516 0.617188C19.3516 0.466146 19.2995 0.333333 19.1953 0.21875C19.0911 0.104167 18.9609 0.046875 18.8047 0.046875H1.19531C1.03906 0.046875 0.908854 0.104167 0.804688 0.21875C0.700521 0.333333 0.648438 0.466146 0.648438 0.617188C0.648438 0.773438 0.700521 0.908854 0.804688 1.02344C0.908854 1.13802 1.03906 1.19531 1.19531 1.19531ZM7.05469 8.17188H12.9453C13.5286 8.17188 13.9714 8.02344 14.2734 7.72656C14.5807 7.42448 14.7344 6.98698 14.7344 6.41406V4.23438C14.7344 3.66667 14.5807 3.23177 14.2734 2.92969C13.9714 2.6276 13.5286 2.47656 12.9453 2.47656H7.05469C6.47135 2.47656 6.02604 2.6276 5.71875 2.92969C5.41667 3.23177 5.26562 3.66667 5.26562 4.23438V6.41406C5.26562 6.98698 5.41667 7.42448 5.71875 7.72656C6.02604 8.02344 6.47135 8.17188 7.05469 8.17188ZM7.07031 6.99219C6.8724 6.99219 6.71875 6.9375 6.60938 6.82812C6.5 6.71875 6.44531 6.5599 6.44531 6.35156V4.30469C6.44531 4.09635 6.5 3.9375 6.60938 3.82812C6.71875 3.71354 6.8724 3.65625 7.07031 3.65625H12.9297C13.1276 3.65625 13.2812 3.71354 13.3906 3.82812C13.5 3.9375 13.5547 4.09635 13.5547 4.30469V6.35156C13.5547 6.5599 13.5 6.71875 13.3906 6.82812C13.2812 6.9375 13.1276 6.99219 12.9297 6.99219H7.07031ZM1.19531 11.6875H18.8047C18.9609 11.6875 19.0911 11.6302 19.1953 11.5156C19.2995 11.401 19.3516 11.2682 19.3516 11.1172C19.3516 10.9661 19.2995 10.8333 19.1953 10.7188C19.0911 10.599 18.9609 10.5391 18.8047 10.5391H1.19531C1.03906 10.5391 0.908854 10.599 0.804688 10.7188C0.700521 10.8333 0.648438 10.9661 0.648438 11.1172C0.648438 11.2682 0.700521 11.401 0.804688 11.5156C0.908854 11.6302 1.03906 11.6875 1.19531 11.6875ZM4.28906 18.6719H15.7109C16.2943 18.6719 16.737 18.5208 17.0391 18.2188C17.3464 17.9167 17.5 17.4818 17.5 16.9141V14.7344C17.5 14.1615 17.3464 13.7266 17.0391 13.4297C16.737 13.1276 16.2943 12.9766 15.7109 12.9766H4.28906C3.70573 12.9766 3.26042 13.1276 2.95312 13.4297C2.65104 13.7266 2.5 14.1615 2.5 14.7344V16.9141C2.5 17.4818 2.65104 17.9167 2.95312 18.2188C3.26042 18.5208 3.70573 18.6719 4.28906 18.6719ZM4.30469 17.4922C4.10677 17.4922 3.95312 17.4349 3.84375 17.3203C3.73438 17.2109 3.67969 17.0521 3.67969 16.8438V14.7969C3.67969 14.5885 3.73438 14.4297 3.84375 14.3203C3.95312 14.2109 4.10677 14.1562 4.30469 14.1562H15.6953C15.8932 14.1562 16.0469 14.2109 16.1562 14.3203C16.2656 14.4297 16.3203 14.5885 16.3203 14.7969V16.8438C16.3203 17.0521 16.2656 17.2109 16.1562 17.3203C16.0469 17.4349 15.8932 17.4922 15.6953 17.4922H4.30469Z" fill="white"/>
</svg>
