<svg width="20" height="17" viewBox="0 0 20 17" fill="none" xmlns="http://www.w3.org/2000/svg">
<path d="M7.08594 6.3125H12.9141C13.4922 6.3125 13.9349 6.16146 14.2422 5.85938C14.5495 5.55729 14.7031 5.1224 14.7031 4.55469V1.90625C14.7031 1.33854 14.5495 0.903646 14.2422 0.601562C13.9349 0.299479 13.4922 0.148438 12.9141 0.148438H7.08594C6.50781 0.148438 6.0651 0.299479 5.75781 0.601562C5.45052 0.903646 5.29688 1.33854 5.29688 1.90625V4.55469C5.29688 5.1224 5.45052 5.55729 5.75781 5.85938C6.0651 6.16146 6.50781 6.3125 7.08594 6.3125ZM7.10938 5.13281C6.90625 5.13281 6.75 5.07812 6.64062 4.96875C6.53125 4.85938 6.47656 4.70052 6.47656 4.49219V1.97656C6.47656 1.76823 6.53125 1.60938 6.64062 1.5C6.75 1.38542 6.90625 1.32812 7.10938 1.32812H12.8906C13.0938 1.32812 13.25 1.38542 13.3594 1.5C13.4688 1.60938 13.5234 1.76823 13.5234 1.97656V4.49219C13.5234 4.70052 13.4688 4.85938 13.3594 4.96875C13.25 5.07812 13.0938 5.13281 12.8906 5.13281H7.10938ZM4.32031 16.5703H15.6797C16.2578 16.5703 16.7005 16.4193 17.0078 16.1172C17.3151 15.8151 17.4688 15.3802 17.4688 14.8125V12.1641C17.4688 11.5911 17.3151 11.1536 17.0078 10.8516C16.7005 10.5495 16.2578 10.3984 15.6797 10.3984H4.32031C3.73698 10.3984 3.29167 10.5495 2.98438 10.8516C2.68229 11.1536 2.53125 11.5911 2.53125 12.1641V14.8125C2.53125 15.3802 2.68229 15.8151 2.98438 16.1172C3.29167 16.4193 3.73698 16.5703 4.32031 16.5703ZM4.34375 15.3906C4.14062 15.3906 3.98438 15.3333 3.875 15.2188C3.76562 15.1094 3.71094 14.9505 3.71094 14.7422V12.2266C3.71094 12.0182 3.76562 11.8594 3.875 11.75C3.98438 11.6354 4.14062 11.5781 4.34375 11.5781H15.6562C15.8594 11.5781 16.0156 11.6354 16.125 11.75C16.2344 11.8594 16.2891 12.0182 16.2891 12.2266V14.7422C16.2891 14.9505 16.2344 15.1094 16.125 15.2188C16.0156 15.3333 15.8594 15.3906 15.6562 15.3906H4.34375ZM1.04688 3.80469H5.96875V2.65625H1.04688C0.890625 2.65625 0.760417 2.71354 0.65625 2.82812C0.552083 2.94271 0.5 3.07812 0.5 3.23438C0.5 3.38542 0.552083 3.51823 0.65625 3.63281C0.760417 3.7474 0.890625 3.80469 1.04688 3.80469ZM1.04688 14.0625H3.35156V12.9141H1.04688C0.890625 12.9141 0.760417 12.9714 0.65625 13.0859C0.552083 13.2005 0.5 13.3333 0.5 13.4844C0.5 13.6354 0.552083 13.7708 0.65625 13.8906C0.760417 14.0052 0.890625 14.0625 1.04688 14.0625ZM14.0312 3.80469H18.6562C18.8125 3.80469 18.9427 3.7474 19.0469 3.63281C19.151 3.51823 19.2031 3.38542 19.2031 3.23438C19.2031 3.07812 19.151 2.94271 19.0469 2.82812C18.9427 2.71354 18.8125 2.65625 18.6562 2.65625H14.0312V3.80469ZM16.6406 14.0625H18.9531C19.1094 14.0625 19.2396 14.0052 19.3438 13.8906C19.4479 13.7708 19.5 13.6354 19.5 13.4844C19.5 13.3333 19.4479 13.2005 19.3438 13.0859C19.2396 12.9714 19.1094 12.9141 18.9531 12.9141H16.6406V14.0625Z" fill="white"/>
</svg>
