<svg width="20" height="17" viewBox="0 0 20 17" fill="none" xmlns="http://www.w3.org/2000/svg">
<path d="M7.08594 6.3125H12.9141C13.4922 6.3125 13.9349 6.16146 14.2422 5.85938C14.5495 5.55729 14.7031 5.1224 14.7031 4.55469V1.90625C14.7031 1.33854 14.5495 0.903646 14.2422 0.601562C13.9349 0.299479 13.4922 0.148438 12.9141 0.148438H7.08594C6.50781 0.148438 6.0651 0.299479 5.75781 0.601562C5.45052 0.903646 5.29688 1.33854 5.29688 1.90625V4.55469C5.29688 5.1224 5.45052 5.55729 5.75781 5.85938C6.0651 6.16146 6.50781 6.3125 7.08594 6.3125ZM4.32031 16.5703H15.6797C16.2578 16.5703 16.7005 16.4193 17.0078 16.1172C17.3151 15.8151 17.4688 15.3802 17.4688 14.8125V12.1641C17.4688 11.5911 17.3151 11.1536 17.0078 10.8516C16.7005 10.5495 16.2578 10.3984 15.6797 10.3984H4.32031C3.73698 10.3984 3.29167 10.5495 2.98438 10.8516C2.68229 11.1536 2.53125 11.5911 2.53125 12.1641V14.8125C2.53125 15.3802 2.68229 15.8151 2.98438 16.1172C3.29167 16.4193 3.73698 16.5703 4.32031 16.5703ZM1.04688 3.80469H5.96875V2.65625H1.04688C0.890625 2.65625 0.760417 2.71354 0.65625 2.82812C0.552083 2.94271 0.5 3.07812 0.5 3.23438C0.5 3.38542 0.552083 3.51823 0.65625 3.63281C0.760417 3.7474 0.890625 3.80469 1.04688 3.80469ZM1.04688 14.0625H3.35156V12.9141H1.04688C0.890625 12.9141 0.760417 12.9714 0.65625 13.0859C0.552083 13.2005 0.5 13.3333 0.5 13.4844C0.5 13.6354 0.552083 13.7708 0.65625 13.8906C0.760417 14.0052 0.890625 14.0625 1.04688 14.0625ZM14.0312 3.80469H18.6562C18.8125 3.80469 18.9427 3.7474 19.0469 3.63281C19.151 3.51823 19.2031 3.38542 19.2031 3.23438C19.2031 3.07812 19.151 2.94271 19.0469 2.82812C18.9427 2.71354 18.8125 2.65625 18.6562 2.65625H14.0312V3.80469ZM16.6406 14.0625H18.9531C19.1094 14.0625 19.2396 14.0052 19.3438 13.8906C19.4479 13.7708 19.5 13.6354 19.5 13.4844C19.5 13.3333 19.4479 13.2005 19.3438 13.0859C19.2396 12.9714 19.1094 12.9141 18.9531 12.9141H16.6406V14.0625Z" fill="white"/>
</svg>
