<svg xmlns="http://www.w3.org/2000/svg" width="24" height="24"><path style="stroke:none;fill-rule:nonzero;fill:#fff;fill-opacity:1" d="M1.434 1.508h21.132a.58.58 0 0 0 .47-.215.748.748 0 0 0 .187-.512.74.74 0 0 0-.188-.504.584.584 0 0 0-.469-.218H1.434a.584.584 0 0 0-.47.218.74.74 0 0 0-.187.504c0 .2.063.367.188.512a.592.592 0 0 0 .469.215Zm7.03 8.812h7.071c.7 0 1.23-.183 1.594-.558.367-.383.55-.938.55-1.66V5.348c0-.72-.183-1.266-.55-1.649-.363-.383-.895-.57-1.594-.57h-7.07c-.7 0-1.235.191-1.602.57-.363.383-.543.93-.543 1.649v2.754c0 .722.18 1.277.543 1.66.367.375.903.558 1.602.558Zm.02-1.488c-.238 0-.421-.07-.554-.207-.13-.14-.196-.34-.196-.602V5.438c0-.266.067-.461.196-.602.133-.145.316-.219.554-.219h7.032c.238 0 .421.074.554.219.13.14.196.336.196.601v2.586c0 .262-.067.461-.196.602-.133.137-.316.207-.554.207Zm-7.05 5.93h21.132a.592.592 0 0 0 .47-.215.759.759 0 0 0 .187-.504.747.747 0 0 0-.188-.504.592.592 0 0 0-.469-.226H1.434a.586.586 0 0 0-.47.226.759.759 0 0 0-.187.504c0 .191.063.355.188.504.117.14.289.219.469.215Zm3.714 8.824h13.704c.703 0 1.234-.191 1.593-.57.371-.383.555-.934.555-1.649V18.61c0-.722-.184-1.27-.555-1.644-.36-.383-.89-.574-1.593-.574H5.148c-.703 0-1.234.191-1.605.574-.363.375-.543.922-.543 1.644v2.758c0 .715.18 1.266.543 1.649.371.382.902.57 1.605.57Zm.016-1.488c-.234 0-.422-.075-.55-.22-.134-.14-.2-.339-.2-.605v-2.582c0-.261.066-.464.2-.601.128-.137.316-.207.55-.207h13.672c.234 0 .422.07.55.207.134.137.2.34.2.601v2.582c0 .266-.066.465-.2.606-.128.144-.316.219-.55.219Zm0 0"/></svg>