<?xml version="1.0" encoding="UTF-8"?>
<svg xmlns="http://www.w3.org/2000/svg" xmlns:xlink="http://www.w3.org/1999/xlink" width="24" height="22.8" viewBox="0 0 24 22.8" version="1.1">
<g id="surface1">
<path style=" stroke:none;fill-rule:nonzero;fill:rgb(100%,100%,100%);fill-opacity:1;" d="M 1.433594 1.433594 L 22.566406 1.433594 C 22.753906 1.433594 22.910156 1.367188 23.035156 1.226562 C 23.160156 1.089844 23.222656 0.929688 23.222656 0.742188 C 23.222656 0.558594 23.160156 0.398438 23.035156 0.261719 C 22.910156 0.125 22.753906 0.0546875 22.566406 0.0546875 L 1.433594 0.0546875 C 1.246094 0.0546875 1.089844 0.125 0.964844 0.261719 C 0.839844 0.398438 0.777344 0.558594 0.777344 0.742188 C 0.777344 0.929688 0.839844 1.089844 0.964844 1.226562 C 1.089844 1.367188 1.246094 1.433594 1.433594 1.433594 Z M 8.464844 9.804688 L 15.535156 9.804688 C 16.234375 9.804688 16.765625 9.628906 17.128906 9.273438 C 17.496094 8.910156 17.679688 8.382812 17.679688 7.695312 L 17.679688 5.082031 C 17.679688 4.398438 17.496094 3.878906 17.128906 3.515625 C 16.765625 3.152344 16.234375 2.972656 15.535156 2.972656 L 8.464844 2.972656 C 7.765625 2.972656 7.230469 3.152344 6.863281 3.515625 C 6.5 3.878906 6.320312 4.398438 6.320312 5.082031 L 6.320312 7.695312 C 6.320312 8.382812 6.5 8.910156 6.863281 9.273438 C 7.230469 9.628906 7.765625 9.804688 8.464844 9.804688 Z M 1.433594 14.023438 L 22.566406 14.023438 C 22.753906 14.023438 22.910156 13.957031 23.035156 13.820312 C 23.160156 13.679688 23.222656 13.523438 23.222656 13.339844 C 23.222656 13.160156 23.160156 13 23.035156 12.863281 C 22.910156 12.71875 22.753906 12.648438 22.566406 12.648438 L 1.433594 12.648438 C 1.246094 12.648438 1.089844 12.71875 0.964844 12.863281 C 0.839844 13 0.777344 13.160156 0.777344 13.339844 C 0.777344 13.523438 0.839844 13.679688 0.964844 13.820312 C 1.089844 13.957031 1.246094 14.023438 1.433594 14.023438 Z M 5.148438 22.40625 L 18.851562 22.40625 C 19.554688 22.40625 20.085938 22.226562 20.445312 21.863281 C 20.816406 21.5 21 20.976562 21 20.296875 L 21 17.679688 C 21 16.992188 20.816406 16.472656 20.445312 16.117188 C 20.085938 15.753906 19.554688 15.570312 18.851562 15.570312 L 5.148438 15.570312 C 4.445312 15.570312 3.914062 15.753906 3.542969 16.117188 C 3.179688 16.472656 3 16.992188 3 17.679688 L 3 20.296875 C 3 20.976562 3.179688 21.5 3.542969 21.863281 C 3.914062 22.226562 4.445312 22.40625 5.148438 22.40625 Z M 5.148438 22.40625 "/>
</g>
</svg>
