<svg width="116" height="116" viewBox="0 0 116 116" fill="none" xmlns="http://www.w3.org/2000/svg">
<path d="M20.5625 115.5H96.375C102.917 115.5 107.812 113.875 111.062 110.625C114.354 107.417 116 102.583 116 96.125V19.8125C116 13.3542 114.354 8.52083 111.062 5.3125C107.812 2.0625 102.917 0.4375 96.375 0.4375H20.5625C14.0208 0.4375 9.10417 2.0625 5.8125 5.3125C2.5625 8.52083 0.9375 13.3542 0.9375 19.8125V96.125C0.9375 102.583 2.5625 107.417 5.8125 110.625C9.10417 113.875 14.0208 115.5 20.5625 115.5ZM58.375 41.875C56.2083 41.875 54.375 41.1875 52.875 39.8125C51.4167 38.4375 50.6875 36.75 50.6875 34.75C50.6875 32.4583 51.4167 30.5833 52.875 29.125C54.375 27.6667 56.2083 26.9375 58.375 26.9375C60.75 26.9375 62.6667 27.6667 64.125 29.125C65.5833 30.5833 66.3125 32.4583 66.3125 34.75C66.3125 36.75 65.5625 38.4375 64.0625 39.8125C62.6042 41.1875 60.7083 41.875 58.375 41.875ZM33.4375 63.375C31.6042 63.375 30.125 62.9167 29 62C27.875 61.0833 27.3125 59.75 27.3125 58C27.3125 56.25 27.8542 54.9167 28.9375 54C30.0625 53.0417 31.5625 52.5625 33.4375 52.5625H83.625C85.5 52.5625 86.9583 53.0417 88 54C89.0833 54.9167 89.625 56.25 89.625 58C89.625 59.75 89.0625 61.0833 87.9375 62C86.8542 62.9167 85.4167 63.375 83.625 63.375H33.4375ZM58.375 88.9375C56.2083 88.9375 54.375 88.25 52.875 86.875C51.4167 85.4583 50.6875 83.75 50.6875 81.75C50.6875 79.4583 51.4167 77.6042 52.875 76.1875C54.375 74.7292 56.2083 74 58.375 74C60.75 74 62.6667 74.7292 64.125 76.1875C65.5833 77.6042 66.3125 79.4583 66.3125 81.75C66.3125 83.75 65.5625 85.4583 64.0625 86.875C62.6042 88.25 60.7083 88.9375 58.375 88.9375Z" fill="white"/>
</svg>
