<svg width="16" height="15" viewBox="0 0 16 15" fill="none" xmlns="http://www.w3.org/2000/svg">
<path d="M3.25781 14.5625H12.7344C13.5521 14.5625 14.1641 14.3594 14.5703 13.9531C14.9818 13.5521 15.1875 12.9479 15.1875 12.1406V2.60156C15.1875 1.79427 14.9818 1.1901 14.5703 0.789062C14.1641 0.382812 13.5521 0.179688 12.7344 0.179688H3.25781C2.4401 0.179688 1.82552 0.382812 1.41406 0.789062C1.00781 1.1901 0.804688 1.79427 0.804688 2.60156V12.1406C0.804688 12.9479 1.00781 13.5521 1.41406 13.9531C1.82552 14.3594 2.4401 14.5625 3.25781 14.5625ZM3.27344 13.3047C2.88281 13.3047 2.58333 13.2031 2.375 13C2.16667 12.7917 2.0625 12.4844 2.0625 12.0781V2.66406C2.0625 2.25781 2.16667 1.95312 2.375 1.75C2.58333 1.54167 2.88281 1.4375 3.27344 1.4375H12.7188C13.1042 1.4375 13.401 1.54167 13.6094 1.75C13.8229 1.95312 13.9297 2.25781 13.9297 2.66406V12.0781C13.9297 12.4844 13.8229 12.7917 13.6094 13C13.401 13.2031 13.1042 13.3047 12.7188 13.3047H3.27344ZM7.98438 5.41406C8.26562 5.41406 8.49479 5.33333 8.67188 5.17188C8.85417 5.00521 8.94531 4.79948 8.94531 4.55469C8.94531 4.27865 8.85417 4.05469 8.67188 3.88281C8.49479 3.70573 8.26562 3.61719 7.98438 3.61719C7.72396 3.61719 7.5026 3.70573 7.32031 3.88281C7.14323 4.05469 7.05469 4.27865 7.05469 4.55469C7.05469 4.79948 7.14323 5.00521 7.32031 5.17188C7.5026 5.33333 7.72396 5.41406 7.98438 5.41406ZM4.96094 8.02344H11.0469C11.2656 8.02344 11.4427 7.96875 11.5781 7.85938C11.7135 7.74479 11.7812 7.58333 11.7812 7.375C11.7812 7.16146 11.7135 7 11.5781 6.89062C11.4479 6.77604 11.2708 6.71875 11.0469 6.71875H4.96094C4.73177 6.71875 4.54948 6.77604 4.41406 6.89062C4.28385 7 4.21875 7.16146 4.21875 7.375C4.21875 7.58333 4.28646 7.74479 4.42188 7.85938C4.5625 7.96875 4.74219 8.02344 4.96094 8.02344ZM7.98438 11.1172C8.26562 11.1172 8.49479 11.0339 8.67188 10.8672C8.85417 10.7005 8.94531 10.4948 8.94531 10.25C8.94531 9.97396 8.85417 9.75 8.67188 9.57812C8.49479 9.40625 8.26562 9.32031 7.98438 9.32031C7.72396 9.32031 7.5026 9.40885 7.32031 9.58594C7.14323 9.75781 7.05469 9.97917 7.05469 10.25C7.05469 10.4948 7.14323 10.7005 7.32031 10.8672C7.5026 11.0339 7.72396 11.1172 7.98438 11.1172Z" fill="white"/>
</svg>
