<svg xmlns="http://www.w3.org/2000/svg" width="24" height="24"><path style="stroke:none;fill-rule:nonzero;fill:#fff;fill-opacity:1" d="M4.887 23.3h14.215c1.226 0 2.144-.323 2.753-.976.618-.64.926-1.605.926-2.898V4.164c0-1.293-.308-2.258-.926-2.898-.609-.653-1.527-.977-2.753-.977H4.887c-1.227 0-2.149.324-2.766.977-.61.64-.914 1.605-.914 2.898v15.262c0 1.293.305 2.258.914 2.902.617.649 1.54.973 2.766.973Zm.023-2.01c-.586 0-1.035-.165-1.348-.49-.312-.335-.468-.823-.468-1.476V4.262c0-.649.156-1.137.469-1.461.312-.336.761-.5 1.347-.5h14.168c.578 0 1.024.164 1.336.5.32.324.48.812.48 1.46v15.063c0 .653-.16 1.14-.48 1.477-.312.324-.758.488-1.336.488Zm7.067-12.626c.421 0 .765-.129 1.03-.39.274-.266.411-.594.411-.985 0-.441-.137-.8-.41-1.078-.266-.281-.61-.422-1.031-.422-.391 0-.723.14-.997.422-.265.277-.398.637-.398 1.078 0 .39.133.719.398.984.274.262.606.391.997.391ZM7.44 12.836h9.13c.327 0 .593-.086.796-.262.203-.183.305-.441.305-.773 0-.34-.102-.602-.305-.778-.195-.183-.46-.273-.797-.273H7.441c-.343 0-.617.09-.82.273-.195.176-.293.434-.293.778 0 .332.102.59.305.773.21.176.48.262.808.262Zm4.536 4.95c.421 0 .765-.13 1.03-.4a1.32 1.32 0 0 0 .411-.988c0-.441-.137-.796-.41-1.074-.266-.273-.61-.414-1.031-.414-.391 0-.723.145-.997.426-.265.277-.398.633-.398 1.062 0 .395.133.723.398.989.274.27.606.402.997.402Zm0 0"/></svg>