<?xml version="1.0" encoding="UTF-8"?>
<svg xmlns="http://www.w3.org/2000/svg" xmlns:xlink="http://www.w3.org/1999/xlink" width="24" height="25.5" viewBox="0 0 24 25.5" version="1.1">
<g id="surface1">
<path style=" stroke:none;fill-rule:nonzero;fill:rgb(100%,100%,100%);fill-opacity:1;" d="M 12 24.492188 C 13.632812 24.492188 15.167969 24.179688 16.605469 23.554688 C 18.050781 22.929688 19.324219 22.066406 20.425781 20.964844 C 21.527344 19.863281 22.390625 18.59375 23.015625 17.15625 C 23.640625 15.710938 23.953125 14.171875 23.953125 12.539062 C 23.953125 10.90625 23.640625 9.371094 23.015625 7.933594 C 22.390625 6.488281 21.527344 5.214844 20.425781 4.113281 C 19.324219 3.011719 18.050781 2.148438 16.605469 1.523438 C 15.160156 0.898438 13.621094 0.585938 11.988281 0.585938 C 10.355469 0.585938 8.816406 0.898438 7.371094 1.523438 C 5.933594 2.148438 4.664062 3.011719 3.5625 4.113281 C 2.46875 5.214844 1.609375 6.488281 0.984375 7.933594 C 0.359375 9.371094 0.046875 10.90625 0.046875 12.539062 C 0.046875 14.171875 0.359375 15.710938 0.984375 17.15625 C 1.609375 18.59375 2.472656 19.863281 3.574219 20.964844 C 4.675781 22.066406 5.945312 22.929688 7.382812 23.554688 C 8.828125 24.179688 10.367188 24.492188 12 24.492188 Z M 12 22.5 C 10.617188 22.5 9.324219 22.242188 8.121094 21.726562 C 6.917969 21.210938 5.859375 20.5 4.945312 19.59375 C 4.039062 18.679688 3.328125 17.621094 2.8125 16.417969 C 2.304688 15.214844 2.050781 13.921875 2.050781 12.539062 C 2.050781 11.15625 2.304688 9.863281 2.8125 8.660156 C 3.328125 7.457031 4.039062 6.398438 4.945312 5.484375 C 5.851562 4.570312 6.90625 3.859375 8.109375 3.351562 C 9.3125 2.835938 10.605469 2.578125 11.988281 2.578125 C 13.371094 2.578125 14.664062 2.835938 15.867188 3.351562 C 17.078125 3.859375 18.136719 4.570312 19.042969 5.484375 C 19.957031 6.398438 20.671875 7.457031 21.1875 8.660156 C 21.703125 9.863281 21.960938 11.15625 21.960938 12.539062 C 21.960938 13.921875 21.703125 15.214844 21.1875 16.417969 C 20.679688 17.621094 19.96875 18.679688 19.054688 19.59375 C 18.140625 20.5 17.082031 21.210938 15.878906 21.726562 C 14.675781 22.242188 13.382812 22.5 12 22.5 Z M 11.964844 9.621094 C 12.386719 9.621094 12.730469 9.5 12.996094 9.257812 C 13.269531 9.007812 13.40625 8.699219 13.40625 8.332031 C 13.40625 7.917969 13.269531 7.582031 12.996094 7.324219 C 12.730469 7.058594 12.386719 6.925781 11.964844 6.925781 C 11.574219 6.925781 11.242188 7.058594 10.96875 7.324219 C 10.703125 7.582031 10.570312 7.917969 10.570312 8.332031 C 10.570312 8.699219 10.703125 9.007812 10.96875 9.257812 C 11.242188 9.5 11.574219 9.621094 11.964844 9.621094 Z M 7.429688 13.535156 L 16.558594 13.535156 C 16.886719 13.535156 17.152344 13.453125 17.355469 13.289062 C 17.558594 13.117188 17.660156 12.875 17.660156 12.5625 C 17.660156 12.242188 17.558594 12 17.355469 11.835938 C 17.160156 11.664062 16.894531 11.578125 16.558594 11.578125 L 7.429688 11.578125 C 7.085938 11.578125 6.8125 11.664062 6.609375 11.835938 C 6.414062 12 6.316406 12.242188 6.316406 12.5625 C 6.316406 12.875 6.417969 13.117188 6.621094 13.289062 C 6.832031 13.453125 7.101562 13.535156 7.429688 13.535156 Z M 11.964844 18.175781 C 12.386719 18.175781 12.730469 18.050781 12.996094 17.800781 C 13.269531 17.550781 13.40625 17.242188 13.40625 16.875 C 13.40625 16.460938 13.269531 16.125 12.996094 15.867188 C 12.730469 15.609375 12.386719 15.480469 11.964844 15.480469 C 11.574219 15.480469 11.242188 15.613281 10.96875 15.878906 C 10.703125 16.136719 10.570312 16.46875 10.570312 16.875 C 10.570312 17.242188 10.703125 17.550781 10.96875 17.800781 C 11.242188 18.050781 11.574219 18.175781 11.964844 18.175781 Z M 11.964844 18.175781 "/>
</g>
</svg>
