<svg width="14" height="18" viewBox="0 0 14 18" fill="none" xmlns="http://www.w3.org/2000/svg">
<path d="M4 5H10.2969C10.4375 5 10.5521 4.95312 10.6406 4.85938C10.7344 4.76562 10.7812 4.65104 10.7812 4.51562C10.7812 4.38021 10.7344 4.26823 10.6406 4.17969C10.5521 4.08594 10.4375 4.03906 10.2969 4.03906H4C3.85417 4.03906 3.73438 4.08594 3.64062 4.17969C3.55208 4.26823 3.50781 4.38021 3.50781 4.51562C3.50781 4.65104 3.55208 4.76562 3.64062 4.85938C3.73438 4.95312 3.85417 5 4 5ZM4 7.26562H7.69531C7.83594 7.26562 7.95052 7.21875 8.03906 7.125C8.13281 7.03125 8.17969 6.91667 8.17969 6.78125C8.17969 6.64583 8.13281 6.53385 8.03906 6.44531C7.95052 6.35156 7.83594 6.30469 7.69531 6.30469H4C3.85417 6.30469 3.73438 6.35156 3.64062 6.44531C3.55208 6.53385 3.50781 6.64583 3.50781 6.78125C3.50781 6.91667 3.55208 7.03125 3.64062 7.125C3.73438 7.21875 3.85417 7.26562 4 7.26562ZM4.11719 15H9.89062C10.5833 15 10.9297 14.6536 10.9297 13.9609V9.61719C10.9297 8.91927 10.5833 8.57031 9.89062 8.57031H4.11719C3.78906 8.57031 3.53125 8.65885 3.34375 8.83594C3.16146 9.01302 3.07031 9.27344 3.07031 9.61719V13.9609C3.07031 14.3047 3.16146 14.5651 3.34375 14.7422C3.53125 14.9141 3.78906 15 4.11719 15ZM0.429688 15.2891C0.429688 16.1068 0.630208 16.7188 1.03125 17.125C1.4375 17.5312 2.04427 17.7344 2.85156 17.7344H11.1484C11.9557 17.7344 12.5599 17.5312 12.9609 17.125C13.3672 16.7188 13.5703 16.1068 13.5703 15.2891V3.4375C13.5703 2.625 13.3672 2.01302 12.9609 1.60156C12.5599 1.1901 11.9557 0.984375 11.1484 0.984375H2.85156C2.04427 0.984375 1.4375 1.1901 1.03125 1.60156C0.630208 2.01302 0.429688 2.625 0.429688 3.4375V15.2891ZM1.6875 15.2656V3.46094C1.6875 3.07031 1.78906 2.77083 1.99219 2.5625C2.20052 2.34896 2.50781 2.24219 2.91406 2.24219H11.0859C11.4922 2.24219 11.7969 2.34896 12 2.5625C12.2083 2.77083 12.3125 3.07031 12.3125 3.46094V15.2656C12.3125 15.6562 12.2083 15.9557 12 16.1641C11.7969 16.3724 11.4922 16.4766 11.0859 16.4766H2.91406C2.50781 16.4766 2.20052 16.3724 1.99219 16.1641C1.78906 15.9557 1.6875 15.6562 1.6875 15.2656Z" fill="white"/>
</svg>
