<svg width="14" height="18" viewBox="0 0 14 18" fill="none" xmlns="http://www.w3.org/2000/svg">
<path d="M3.16406 8.13281C3.03385 8.13281 2.93229 8.09896 2.85938 8.03125C2.78646 7.95833 2.75 7.85938 2.75 7.73438C2.75 7.66146 2.76823 7.57552 2.80469 7.47656L3.95312 4.29688C4.06771 3.97396 4.27344 3.8125 4.57031 3.8125C4.88802 3.8125 5.10417 3.97396 5.21875 4.29688L6.36719 7.47656C6.38281 7.52865 6.39323 7.57812 6.39844 7.625C6.40885 7.66667 6.41406 7.70312 6.41406 7.73438C6.41406 7.85938 6.3776 7.95833 6.30469 8.03125C6.23698 8.09896 6.13542 8.13281 6 8.13281C5.90104 8.13281 5.8151 8.10417 5.74219 8.04688C5.67448 7.98438 5.625 7.88802 5.59375 7.75781L5.3125 6.98438H3.84375L3.57812 7.75781C3.51042 8.00781 3.3724 8.13281 3.16406 8.13281ZM4.02344 6.33594H5.14062L4.60156 4.69531H4.55469L4.02344 6.33594ZM8.08594 5.16406C7.9401 5.16406 7.82031 5.11719 7.72656 5.02344C7.63802 4.92969 7.59375 4.8151 7.59375 4.67969C7.59375 4.54427 7.63802 4.43229 7.72656 4.34375C7.82031 4.25 7.9401 4.20312 8.08594 4.20312H10.7812C10.9219 4.20312 11.0365 4.25 11.125 4.34375C11.2188 4.43229 11.2656 4.54427 11.2656 4.67969C11.2656 4.8151 11.2188 4.92969 11.125 5.02344C11.0365 5.11719 10.9219 5.16406 10.7812 5.16406H8.08594ZM8.08594 7.89062C7.9401 7.89062 7.82031 7.84375 7.72656 7.75C7.63802 7.65625 7.59375 7.54167 7.59375 7.40625C7.59375 7.27083 7.63802 7.15885 7.72656 7.07031C7.82031 6.97656 7.9401 6.92969 8.08594 6.92969H10.7812C10.9219 6.92969 11.0365 6.97656 11.125 7.07031C11.2188 7.15885 11.2656 7.27083 11.2656 7.40625C11.2656 7.54167 11.2188 7.65625 11.125 7.75C11.0365 7.84375 10.9219 7.89062 10.7812 7.89062H8.08594ZM2.71094 14.6641V10.8516C2.71094 10.5078 2.80208 10.25 2.98438 10.0781C3.17188 9.90104 3.43229 9.8125 3.76562 9.8125H10.2422C10.9401 9.8125 11.2891 10.1589 11.2891 10.8516V14.5859H10.4297L8.86719 12.7891C8.79427 12.7057 8.71094 12.6484 8.61719 12.6172C8.52344 12.5807 8.42708 12.5625 8.32812 12.5625C8.23958 12.5625 8.14844 12.5807 8.05469 12.6172C7.96094 12.6536 7.86979 12.7109 7.78125 12.7891L6.17969 14.2109L5.53906 13.625C5.39323 13.4948 5.23438 13.4297 5.0625 13.4297C4.89062 13.4297 4.73698 13.4948 4.60156 13.625L3.57031 14.6641H2.71094ZM5.60156 12.7891C5.83073 12.7891 6.02865 12.7057 6.19531 12.5391C6.36198 12.3724 6.44531 12.1745 6.44531 11.9453C6.44531 11.7109 6.36198 11.513 6.19531 11.3516C6.02865 11.1901 5.83073 11.1068 5.60156 11.1016C5.36719 11.0911 5.16667 11.1719 5 11.3438C4.83854 11.5104 4.75781 11.7109 4.75781 11.9453C4.75781 12.1745 4.83854 12.3724 5 12.5391C5.16667 12.7057 5.36719 12.7891 5.60156 12.7891ZM0.429688 15.2891C0.429688 16.1068 0.630208 16.7188 1.03125 17.125C1.4375 17.5312 2.04427 17.7344 2.85156 17.7344H11.1484C11.9557 17.7344 12.5599 17.5312 12.9609 17.125C13.3672 16.7188 13.5703 16.1068 13.5703 15.2891V3.4375C13.5703 2.625 13.3672 2.01302 12.9609 1.60156C12.5599 1.1901 11.9557 0.984375 11.1484 0.984375H2.85156C2.04427 0.984375 1.4375 1.1901 1.03125 1.60156C0.630208 2.01302 0.429688 2.625 0.429688 3.4375V15.2891Z" fill="white"/>
</svg>
