<svg xmlns="http://www.w3.org/2000/svg" width="24" height="24"><path style="stroke:none;fill-rule:nonzero;fill:#fff;fill-opacity:1" d="M5.695 3.84h1.7c.82 0 1.574.09 2.261.265.688.18 1.36.52 2.016 1.02l6.656 5.063c.656.5 1.078 1.019 1.266 1.554.195.528.293 1.098.293 1.703v5.16h.457c.601 0 1.129-.058 1.582-.175.426-.11.816-.29 1.137-.528.316-.246.55-.547.68-.875.155-.351.234-.757.234-1.222V3.402c0-.93-.305-1.629-.915-2.097-.601-.473-1.507-.707-2.718-.707H9.328c-1.21 0-2.121.234-2.73.707-.602.465-.903 1.164-.903 2.097Zm5.532-.707v-.188c0-.136.058-.257.175-.363.125-.11.317-.164.575-.164h5.718c.25 0 .438.055.563.16.125.11.187.23.187.367v.188a.474.474 0 0 1-.187.367c-.125.105-.313.16-.563.16h-5.718c-.258 0-.45-.05-.575-.16a.492.492 0 0 1-.175-.367ZM.012 20.258c0 .933.3 1.633.902 2.097.61.473 1.52.707 2.73.707H14.66c1.211 0 2.117-.234 2.719-.707.61-.468.914-1.168.914-2.097v-7.051h-8.18c-.758 0-1.316-.14-1.675-.414-.36-.277-.54-.703-.54-1.273V5.055H3.645c-1.211 0-2.122.234-2.73.703C.311 6.23.011 6.93.011 7.855Zm10.09-8.274h7.98a1.85 1.85 0 0 0-.305-.52 3.654 3.654 0 0 0-.609-.562L10.91 6.047a5.576 5.576 0 0 0-.738-.504 2.305 2.305 0 0 0-.68-.266v6.25c0 .305.203.457.61.457Zm0 0"/></svg>