<svg width="107" height="135" viewBox="0 0 107 135" fill="none" xmlns="http://www.w3.org/2000/svg">
<path d="M28.75 31.9375C27.5833 31.9375 26.6042 31.5625 25.8125 30.8125C25.0625 30.0208 24.6875 29.0625 24.6875 27.9375C24.6875 26.8125 25.0625 25.875 25.8125 25.125C26.6042 24.3333 27.5833 23.9375 28.75 23.9375H80.6875C81.8542 23.9375 82.8125 24.3333 83.5625 25.125C84.3125 25.875 84.6875 26.8125 84.6875 27.9375C84.6875 29.0625 84.3125 30.0208 83.5625 30.8125C82.8125 31.5625 81.8542 31.9375 80.6875 31.9375H28.75ZM28.75 50.625C27.5833 50.625 26.6042 50.25 25.8125 49.5C25.0625 48.7083 24.6875 47.75 24.6875 46.625C24.6875 45.5417 25.0625 44.625 25.8125 43.875C26.6042 43.0833 27.5833 42.6875 28.75 42.6875H59.1875C60.3542 42.6875 61.3125 43.0833 62.0625 43.875C62.8542 44.625 63.25 45.5417 63.25 46.625C63.25 47.75 62.8542 48.7083 62.0625 49.5C61.3125 50.25 60.3542 50.625 59.1875 50.625H28.75ZM29.75 114.375C27 114.375 24.875 113.646 23.375 112.188C21.875 110.729 21.125 108.583 21.125 105.75V70C21.125 67.125 21.875 64.9792 23.375 63.5625C24.875 62.1042 27 61.375 29.75 61.375H77.3125C83.0208 61.375 85.875 64.25 85.875 70V105.75C85.875 111.5 83.0208 114.375 77.3125 114.375H29.75ZM0.9375 115.312C0.9375 121.854 2.54167 126.75 5.75 130C9 133.25 13.8542 134.875 20.3125 134.875H86.6875C93.1458 134.875 97.9792 133.25 101.188 130C104.438 126.75 106.062 121.854 106.062 115.312V20.5C106.062 14 104.438 9.10417 101.188 5.8125C97.9792 2.52083 93.1458 0.875 86.6875 0.875H20.3125C13.8542 0.875 9 2.52083 5.75 5.8125C2.54167 9.10417 0.9375 14 0.9375 20.5V115.312Z" fill="white"/>
</svg>
