<?xml version="1.0" encoding="UTF-8"?>
<svg xmlns="http://www.w3.org/2000/svg" xmlns:xlink="http://www.w3.org/1999/xlink" width="24" height="31.5" viewBox="0 0 24 31.5" version="1.1">
<g id="surface1">
<path style=" stroke:none;fill-rule:nonzero;fill:rgb(100%,100%,100%);fill-opacity:1;" d="M 5.695312 5.039062 L 7.394531 5.039062 C 8.214844 5.039062 8.96875 5.15625 9.65625 5.390625 C 10.34375 5.625 11.015625 6.070312 11.671875 6.726562 L 18.328125 13.371094 C 18.984375 14.027344 19.40625 14.707031 19.59375 15.410156 C 19.789062 16.105469 19.886719 16.851562 19.886719 17.648438 L 19.886719 24.421875 L 20.34375 24.421875 C 20.945312 24.421875 21.472656 24.34375 21.925781 24.1875 C 22.378906 24.03125 22.757812 23.800781 23.0625 23.496094 C 23.367188 23.191406 23.59375 22.808594 23.742188 22.347656 C 23.898438 21.886719 23.976562 21.351562 23.976562 20.742188 L 23.976562 4.464844 C 23.976562 3.246094 23.671875 2.328125 23.0625 1.710938 C 22.460938 1.09375 21.554688 0.785156 20.34375 0.785156 L 9.328125 0.785156 C 8.117188 0.785156 7.207031 1.09375 6.597656 1.710938 C 5.996094 2.320312 5.695312 3.238281 5.695312 4.464844 Z M 11.226562 4.113281 L 11.226562 3.867188 C 11.226562 3.6875 11.285156 3.527344 11.402344 3.386719 C 11.527344 3.246094 11.71875 3.175781 11.976562 3.175781 L 17.695312 3.175781 C 17.945312 3.175781 18.132812 3.246094 18.257812 3.386719 C 18.382812 3.527344 18.445312 3.6875 18.445312 3.867188 L 18.445312 4.113281 C 18.445312 4.292969 18.382812 4.453125 18.257812 4.59375 C 18.132812 4.734375 17.945312 4.804688 17.695312 4.804688 L 11.976562 4.804688 C 11.71875 4.804688 11.527344 4.734375 11.402344 4.59375 C 11.285156 4.453125 11.226562 4.292969 11.226562 4.113281 Z M 0.0117188 26.589844 C 0.0117188 27.816406 0.3125 28.734375 0.914062 29.34375 C 1.523438 29.960938 2.433594 30.269531 3.644531 30.269531 L 14.660156 30.269531 C 15.871094 30.269531 16.777344 29.960938 17.378906 29.34375 C 17.988281 28.726562 18.292969 27.808594 18.292969 26.589844 L 18.292969 17.332031 L 10.113281 17.332031 C 9.355469 17.332031 8.796875 17.152344 8.4375 16.792969 C 8.078125 16.425781 7.898438 15.867188 7.898438 15.117188 L 7.898438 6.632812 L 3.644531 6.632812 C 2.433594 6.632812 1.523438 6.941406 0.914062 7.558594 C 0.3125 8.175781 0.0117188 9.09375 0.0117188 10.3125 Z M 10.101562 15.726562 L 18.082031 15.726562 C 18.019531 15.5 17.917969 15.273438 17.777344 15.046875 C 17.636719 14.820312 17.433594 14.574219 17.167969 14.308594 L 10.910156 7.933594 C 10.652344 7.667969 10.40625 7.449219 10.171875 7.277344 C 9.945312 7.105469 9.71875 6.988281 9.492188 6.925781 L 9.492188 15.128906 C 9.492188 15.527344 9.695312 15.726562 10.101562 15.726562 Z M 10.101562 15.726562 "/>
</g>
</svg>
