<?xml version="1.0" encoding="UTF-8"?>
<svg xmlns="http://www.w3.org/2000/svg" xmlns:xlink="http://www.w3.org/1999/xlink" width="24" height="25.5" viewBox="0 0 24 25.5" version="1.1">
<g id="surface1">
<path style=" stroke:none;fill-rule:nonzero;fill:rgb(100%,100%,100%);fill-opacity:1;" d="M 8.71875 19.792969 L 15.796875 19.792969 C 16.53125 19.792969 17.082031 19.605469 17.449219 19.230469 C 17.816406 18.847656 18 18.289062 18 17.554688 L 18 12.117188 L 12.527344 12.117188 C 12.097656 12.117188 11.761719 12 11.519531 11.765625 C 11.285156 11.523438 11.167969 11.183594 11.167969 10.746094 L 11.167969 5.285156 L 8.71875 5.285156 C 7.992188 5.285156 7.441406 5.472656 7.066406 5.847656 C 6.699219 6.222656 6.515625 6.777344 6.515625 7.511719 L 6.515625 17.554688 C 6.515625 18.296875 6.699219 18.855469 7.066406 19.230469 C 7.441406 19.605469 7.992188 19.792969 8.71875 19.792969 Z M 12.855469 10.816406 L 17.929688 10.816406 C 17.898438 10.675781 17.832031 10.53125 17.730469 10.382812 C 17.636719 10.226562 17.503906 10.0625 17.332031 9.890625 L 13.382812 5.941406 C 13.210938 5.769531 13.050781 5.636719 12.902344 5.542969 C 12.753906 5.441406 12.609375 5.378906 12.46875 5.355469 L 12.46875 10.441406 C 12.46875 10.691406 12.597656 10.816406 12.855469 10.816406 Z M 1.464844 8.542969 C 2.097656 8.542969 2.414062 8.222656 2.414062 7.582031 L 2.414062 4.816406 C 2.414062 4.207031 2.570312 3.75 2.882812 3.445312 C 3.195312 3.132812 3.644531 2.976562 4.230469 2.976562 L 7.066406 2.976562 C 7.707031 2.976562 8.027344 2.660156 8.027344 2.027344 C 8.027344 1.402344 7.707031 1.089844 7.066406 1.089844 L 4.207031 1.089844 C 2.980469 1.089844 2.058594 1.394531 1.441406 2.003906 C 0.832031 2.605469 0.527344 3.507812 0.527344 4.710938 L 0.527344 7.582031 C 0.527344 8.222656 0.839844 8.542969 1.464844 8.542969 Z M 22.523438 8.542969 C 23.15625 8.542969 23.472656 8.222656 23.472656 7.582031 L 23.472656 4.710938 C 23.472656 3.507812 23.164062 2.605469 22.546875 2.003906 C 21.9375 1.394531 21.019531 1.089844 19.792969 1.089844 L 16.921875 1.089844 C 16.289062 1.089844 15.972656 1.402344 15.972656 2.027344 C 15.972656 2.660156 16.289062 2.976562 16.921875 2.976562 L 19.757812 2.976562 C 20.335938 2.976562 20.785156 3.132812 21.105469 3.445312 C 21.425781 3.75 21.585938 4.207031 21.585938 4.816406 L 21.585938 7.582031 C 21.585938 8.222656 21.898438 8.542969 22.523438 8.542969 Z M 4.207031 24.023438 L 7.066406 24.023438 C 7.707031 24.023438 8.027344 23.710938 8.027344 23.085938 C 8.027344 22.453125 7.707031 22.136719 7.066406 22.136719 L 4.230469 22.136719 C 3.644531 22.136719 3.195312 21.980469 2.882812 21.667969 C 2.570312 21.363281 2.414062 20.90625 2.414062 20.296875 L 2.414062 17.53125 C 2.414062 16.890625 2.097656 16.570312 1.464844 16.570312 C 0.839844 16.570312 0.527344 16.890625 0.527344 17.53125 L 0.527344 20.390625 C 0.527344 21.601562 0.832031 22.507812 1.441406 23.109375 C 2.058594 23.71875 2.980469 24.023438 4.207031 24.023438 Z M 16.921875 24.023438 L 19.792969 24.023438 C 21.019531 24.023438 21.9375 23.71875 22.546875 23.109375 C 23.164062 22.507812 23.472656 21.601562 23.472656 20.390625 L 23.472656 17.53125 C 23.472656 16.890625 23.15625 16.570312 22.523438 16.570312 C 21.898438 16.570312 21.585938 16.890625 21.585938 17.53125 L 21.585938 20.296875 C 21.585938 20.90625 21.425781 21.363281 21.105469 21.667969 C 20.785156 21.980469 20.335938 22.136719 19.757812 22.136719 L 16.921875 22.136719 C 16.289062 22.136719 15.972656 22.453125 15.972656 23.085938 C 15.972656 23.710938 16.289062 24.023438 16.921875 24.023438 Z M 16.921875 24.023438 "/>
</g>
</svg>
