<?xml version="1.0" encoding="UTF-8"?>
<svg xmlns="http://www.w3.org/2000/svg" xmlns:xlink="http://www.w3.org/1999/xlink" width="24" height="30.857143" viewBox="0 0 24 30.857143" version="1.1">
<g id="surface1">
<path style=" stroke:none;fill-rule:nonzero;fill:rgb(100%,100%,100%);fill-opacity:1;" d="M 5.960938 14.476562 C 6.316406 14.476562 6.554688 14.261719 6.667969 13.835938 L 7.125 12.507812 L 9.644531 12.507812 L 10.125 13.835938 C 10.242188 14.261719 10.472656 14.476562 10.820312 14.476562 C 11.054688 14.476562 11.226562 14.417969 11.34375 14.304688 C 11.46875 14.179688 11.53125 14.007812 11.53125 13.792969 C 11.53125 13.6875 11.503906 13.539062 11.449219 13.351562 L 9.480469 7.902344 C 9.285156 7.347656 8.914062 7.070312 8.371094 7.070312 C 7.863281 7.070312 7.507812 7.347656 7.3125 7.902344 L 5.34375 13.351562 C 5.28125 13.523438 5.25 13.667969 5.25 13.792969 C 5.25 14.007812 5.3125 14.179688 5.4375 14.304688 C 5.5625 14.417969 5.738281 14.476562 5.960938 14.476562 Z M 7.433594 11.398438 L 8.34375 8.585938 L 8.425781 8.585938 L 9.347656 11.398438 Z M 13.863281 9.386719 L 17.945312 9.386719 C 18.1875 9.386719 18.382812 9.308594 18.535156 9.148438 C 18.695312 8.988281 18.777344 8.789062 18.777344 8.558594 C 18.777344 8.324219 18.695312 8.132812 18.535156 7.980469 C 18.382812 7.820312 18.1875 7.742188 17.945312 7.742188 L 13.863281 7.742188 C 13.613281 7.742188 13.40625 7.820312 13.246094 7.980469 C 13.09375 8.132812 13.019531 8.324219 13.019531 8.558594 C 13.019531 8.789062 13.09375 8.988281 13.246094 9.148438 C 13.40625 9.308594 13.613281 9.386719 13.863281 9.386719 Z M 13.863281 14.0625 L 17.945312 14.0625 C 18.1875 14.0625 18.382812 13.980469 18.535156 13.820312 C 18.695312 13.660156 18.777344 13.464844 18.777344 13.230469 C 18.777344 13 18.695312 12.808594 18.535156 12.65625 C 18.382812 12.496094 18.1875 12.414062 17.945312 12.414062 L 13.863281 12.414062 C 13.613281 12.414062 13.40625 12.496094 13.246094 12.65625 C 13.09375 12.808594 13.019531 13 13.019531 13.230469 C 13.019531 13.464844 13.09375 13.660156 13.246094 13.820312 C 13.40625 13.980469 13.613281 14.0625 13.863281 14.0625 Z M 5.183594 25.136719 L 6.121094 25.136719 L 7.886719 23.355469 C 8.121094 23.132812 8.382812 23.023438 8.679688 23.023438 C 8.972656 23.023438 9.246094 23.132812 9.496094 23.355469 L 10.59375 24.363281 L 13.339844 21.925781 C 13.644531 21.664062 13.957031 21.535156 14.277344 21.535156 C 14.445312 21.535156 14.613281 21.566406 14.773438 21.628906 C 14.933594 21.683594 15.074219 21.78125 15.199219 21.925781 L 17.878906 25.003906 L 18.816406 25.003906 L 18.816406 18.601562 C 18.816406 17.414062 18.21875 16.820312 17.023438 16.820312 L 6.992188 16.820312 C 6.417969 16.820312 5.972656 16.972656 5.652344 17.277344 C 5.339844 17.570312 5.183594 18.011719 5.183594 18.601562 Z M 9.601562 21.925781 C 9.199219 21.925781 8.855469 21.78125 8.570312 21.496094 C 8.292969 21.210938 8.15625 20.871094 8.15625 20.476562 C 8.15625 20.074219 8.292969 19.730469 8.570312 19.445312 C 8.855469 19.152344 9.199219 19.011719 9.601562 19.03125 C 9.996094 19.039062 10.335938 19.183594 10.621094 19.460938 C 10.90625 19.738281 11.050781 20.074219 11.050781 20.476562 C 11.050781 20.871094 10.90625 21.210938 10.621094 21.496094 C 10.335938 21.78125 9.996094 21.925781 9.601562 21.925781 Z M 0.738281 26.210938 C 0.738281 27.613281 1.082031 28.660156 1.769531 29.355469 C 2.464844 30.054688 3.503906 30.402344 4.886719 30.402344 L 19.113281 30.402344 C 20.496094 30.402344 21.53125 30.054688 22.21875 29.355469 C 22.914062 28.660156 23.261719 27.613281 23.261719 26.210938 L 23.261719 5.894531 C 23.261719 4.5 22.914062 3.449219 22.21875 2.746094 C 21.53125 2.039062 20.496094 1.6875 19.113281 1.6875 L 4.886719 1.6875 C 3.503906 1.6875 2.464844 2.039062 1.769531 2.746094 C 1.082031 3.449219 0.738281 4.5 0.738281 5.894531 Z M 2.894531 26.167969 L 2.894531 5.933594 C 2.894531 5.261719 3.066406 4.75 3.414062 4.394531 C 3.773438 4.027344 4.300781 3.84375 4.996094 3.84375 L 19.003906 3.84375 C 19.699219 3.84375 20.222656 4.027344 20.570312 4.394531 C 20.929688 4.75 21.105469 5.261719 21.105469 5.933594 L 21.105469 26.167969 C 21.105469 26.839844 20.929688 27.351562 20.570312 27.710938 C 20.222656 28.066406 19.699219 28.246094 19.003906 28.246094 L 4.996094 28.246094 C 4.300781 28.246094 3.773438 28.066406 3.414062 27.710938 C 3.066406 27.351562 2.894531 26.839844 2.894531 26.167969 Z M 2.894531 26.167969 "/>
</g>
</svg>
