<?xml version="1.0" encoding="UTF-8"?>
<svg xmlns="http://www.w3.org/2000/svg" xmlns:xlink="http://www.w3.org/1999/xlink" width="24" height="30.857143" viewBox="0 0 24 30.857143" version="1.1">
<g id="surface1">
<path style=" stroke:none;fill-rule:nonzero;fill:rgb(100%,100%,100%);fill-opacity:1;" d="M 5.90625 11.707031 C 5.90625 11.507812 5.972656 11.339844 6.105469 11.195312 C 6.25 11.054688 6.425781 10.980469 6.628906 10.980469 L 8.492188 10.980469 L 9.617188 6.335938 C 9.679688 6.085938 9.808594 5.917969 10.003906 5.839844 C 10.210938 5.757812 10.40625 5.761719 10.59375 5.851562 C 10.789062 5.933594 10.917969 6.097656 10.980469 6.347656 L 12.226562 12.5625 L 13.527344 8.238281 C 13.605469 7.996094 13.746094 7.835938 13.941406 7.753906 C 14.136719 7.675781 14.335938 7.675781 14.53125 7.753906 C 14.726562 7.824219 14.855469 7.976562 14.917969 8.210938 L 15.644531 10.980469 L 17.371094 10.980469 C 17.574219 10.980469 17.746094 11.054688 17.878906 11.195312 C 18.023438 11.332031 18.09375 11.5 18.09375 11.707031 C 18.09375 11.894531 18.023438 12.058594 17.878906 12.199219 C 17.738281 12.34375 17.566406 12.414062 17.371094 12.414062 L 15.199219 12.414062 C 14.773438 12.414062 14.511719 12.210938 14.425781 11.800781 L 14.183594 10.835938 L 12.855469 15.496094 C 12.777344 15.746094 12.632812 15.910156 12.429688 15.992188 C 12.222656 16.070312 12.023438 16.070312 11.824219 15.992188 C 11.628906 15.902344 11.503906 15.726562 11.449219 15.46875 L 10.257812 9.683594 L 9.738281 11.839844 C 9.636719 12.222656 9.378906 12.414062 8.960938 12.414062 L 6.628906 12.414062 C 6.425781 12.414062 6.25 12.34375 6.105469 12.199219 C 5.972656 12.058594 5.90625 11.894531 5.90625 11.707031 Z M 5.90625 18.898438 C 5.90625 18.65625 5.988281 18.457031 6.148438 18.292969 C 6.308594 18.132812 6.511719 18.054688 6.761719 18.054688 L 17.25 18.054688 C 17.492188 18.054688 17.691406 18.132812 17.851562 18.292969 C 18.011719 18.457031 18.09375 18.65625 18.09375 18.898438 C 18.09375 19.136719 18.011719 19.34375 17.851562 19.511719 C 17.691406 19.675781 17.492188 19.753906 17.25 19.753906 L 6.761719 19.753906 C 6.511719 19.753906 6.308594 19.675781 6.148438 19.511719 C 5.988281 19.34375 5.90625 19.136719 5.90625 18.898438 Z M 5.90625 23.730469 C 5.90625 23.492188 5.988281 23.289062 6.148438 23.128906 C 6.308594 22.960938 6.511719 22.875 6.761719 22.875 L 11.71875 22.875 C 11.96875 22.875 12.175781 22.960938 12.335938 23.128906 C 12.496094 23.289062 12.574219 23.492188 12.574219 23.730469 C 12.574219 23.972656 12.496094 24.175781 12.335938 24.335938 C 12.175781 24.496094 11.96875 24.574219 11.71875 24.574219 L 6.761719 24.574219 C 6.511719 24.574219 6.308594 24.496094 6.148438 24.335938 C 5.988281 24.175781 5.90625 23.972656 5.90625 23.730469 Z M 0.738281 26.210938 C 0.738281 27.613281 1.082031 28.660156 1.769531 29.355469 C 2.464844 30.054688 3.503906 30.402344 4.886719 30.402344 L 19.113281 30.402344 C 20.496094 30.402344 21.53125 30.054688 22.21875 29.355469 C 22.914062 28.660156 23.261719 27.613281 23.261719 26.210938 L 23.261719 5.894531 C 23.261719 4.5 22.914062 3.449219 22.21875 2.746094 C 21.53125 2.039062 20.496094 1.6875 19.113281 1.6875 L 4.886719 1.6875 C 3.503906 1.6875 2.464844 2.039062 1.769531 2.746094 C 1.082031 3.449219 0.738281 4.5 0.738281 5.894531 Z M 0.738281 26.210938 "/>
</g>
</svg>
