<svg width="14" height="18" viewBox="0 0 14 18" fill="none" xmlns="http://www.w3.org/2000/svg">
<path d="M3.90625 4.86719C3.76042 4.86719 3.63802 4.82031 3.53906 4.72656C3.44531 4.6276 3.39844 4.50781 3.39844 4.36719C3.39844 4.22656 3.44531 4.10938 3.53906 4.01562C3.63802 3.91667 3.76042 3.86719 3.90625 3.86719H10.3984C10.5443 3.86719 10.6641 3.91667 10.7578 4.01562C10.8516 4.10938 10.8984 4.22656 10.8984 4.36719C10.8984 4.50781 10.8516 4.6276 10.7578 4.72656C10.6641 4.82031 10.5443 4.86719 10.3984 4.86719H3.90625ZM3.90625 7.20312C3.76042 7.20312 3.63802 7.15625 3.53906 7.0625C3.44531 6.96354 3.39844 6.84375 3.39844 6.70312C3.39844 6.56771 3.44531 6.45312 3.53906 6.35938C3.63802 6.26042 3.76042 6.21094 3.90625 6.21094H7.71094C7.85677 6.21094 7.97656 6.26042 8.07031 6.35938C8.16927 6.45312 8.21875 6.56771 8.21875 6.70312C8.21875 6.84375 8.16927 6.96354 8.07031 7.0625C7.97656 7.15625 7.85677 7.20312 7.71094 7.20312H3.90625ZM4.03125 15.1719C3.6875 15.1719 3.42188 15.0807 3.23438 14.8984C3.04688 14.7161 2.95312 14.4479 2.95312 14.0938V9.625C2.95312 9.26562 3.04688 8.9974 3.23438 8.82031C3.42188 8.63802 3.6875 8.54688 4.03125 8.54688H9.97656C10.6901 8.54688 11.0469 8.90625 11.0469 9.625V14.0938C11.0469 14.8125 10.6901 15.1719 9.97656 15.1719H4.03125ZM0.429688 15.2891C0.429688 16.1068 0.630208 16.7188 1.03125 17.125C1.4375 17.5312 2.04427 17.7344 2.85156 17.7344H11.1484C11.9557 17.7344 12.5599 17.5312 12.9609 17.125C13.3672 16.7188 13.5703 16.1068 13.5703 15.2891V3.4375C13.5703 2.625 13.3672 2.01302 12.9609 1.60156C12.5599 1.1901 11.9557 0.984375 11.1484 0.984375H2.85156C2.04427 0.984375 1.4375 1.1901 1.03125 1.60156C0.630208 2.01302 0.429688 2.625 0.429688 3.4375V15.2891Z" fill="white"/>
</svg>
