<svg width="14" height="18" viewBox="0 0 14 18" fill="none" xmlns="http://www.w3.org/2000/svg">
<path d="M2.85156 17.7344H11.1484C11.9557 17.7344 12.5599 17.5286 12.9609 17.1172C13.3672 16.7109 13.5703 16.1016 13.5703 15.2891V8.19531H7.91406C6.92969 8.19531 6.4375 7.70312 6.4375 6.71875V0.984375H2.85156C2.04427 0.984375 1.4375 1.1901 1.03125 1.60156C0.630208 2.01302 0.429688 2.625 0.429688 3.4375V15.2891C0.429688 16.1068 0.630208 16.7188 1.03125 17.125C1.4375 17.5312 2.04427 17.7344 2.85156 17.7344ZM7.9375 7.125H13.4766C13.4505 6.96354 13.3828 6.80208 13.2734 6.64062C13.1641 6.47917 13.0156 6.30208 12.8281 6.10938L8.52344 1.72656C8.34115 1.53906 8.16667 1.39062 8 1.28125C7.83333 1.16667 7.66927 1.09635 7.50781 1.07031V6.70312C7.50781 6.98438 7.65104 7.125 7.9375 7.125Z" fill="white"/>
</svg>
