<?xml version="1.0" encoding="UTF-8"?>
<svg xmlns="http://www.w3.org/2000/svg" xmlns:xlink="http://www.w3.org/1999/xlink" width="24" height="18" viewBox="0 0 24 18" version="1.1">
<g id="surface1">
<path style=" stroke:none;fill-rule:nonzero;fill:rgb(100%,100%,100%);fill-opacity:1;" d="M 3.890625 17.464844 L 20.109375 17.464844 C 21.097656 17.464844 21.835938 17.222656 22.320312 16.734375 C 22.808594 16.253906 23.054688 15.53125 23.054688 14.570312 L 23.054688 3.113281 C 23.054688 2.148438 22.808594 1.425781 22.320312 0.9375 C 21.835938 0.449219 21.097656 0.207031 20.109375 0.207031 L 3.890625 0.207031 C 2.910156 0.207031 2.171875 0.449219 1.679688 0.9375 C 1.191406 1.417969 0.945312 2.144531 0.945312 3.113281 L 0.945312 14.570312 C 0.945312 15.53125 1.191406 16.253906 1.679688 16.734375 C 2.171875 17.222656 2.910156 17.464844 3.890625 17.464844 Z M 3.910156 15.957031 C 3.441406 15.957031 3.082031 15.835938 2.832031 15.589844 C 2.582031 15.339844 2.457031 14.972656 2.457031 14.484375 L 2.457031 3.195312 C 2.457031 2.710938 2.582031 2.339844 2.832031 2.089844 C 3.082031 1.839844 3.441406 1.714844 3.910156 1.714844 L 20.089844 1.714844 C 20.554688 1.714844 20.910156 1.839844 21.160156 2.089844 C 21.414062 2.339844 21.542969 2.710938 21.542969 3.195312 L 21.542969 14.484375 C 21.542969 14.972656 21.414062 15.339844 21.160156 15.589844 C 20.910156 15.835938 20.554688 15.957031 20.089844 15.957031 Z M 4.976562 13.648438 C 4.976562 13.894531 5.054688 14.089844 5.203125 14.242188 C 5.359375 14.390625 5.5625 14.464844 5.8125 14.464844 L 18.214844 14.464844 C 18.464844 14.464844 18.664062 14.390625 18.816406 14.242188 C 18.972656 14.089844 19.050781 13.894531 19.050781 13.648438 L 19.050781 12.242188 C 19.050781 12 18.972656 11.804688 18.816406 11.652344 C 18.664062 11.503906 18.464844 11.429688 18.214844 11.429688 L 5.8125 11.429688 C 5.5625 11.429688 5.359375 11.503906 5.203125 11.652344 C 5.054688 11.804688 4.976562 12 4.976562 12.242188 Z M 12.007812 10.339844 C 12.210938 10.339844 12.382812 10.269531 12.535156 10.125 C 12.683594 9.980469 12.757812 9.8125 12.757812 9.617188 L 12.757812 6.890625 L 12.695312 5.324219 L 13.5 6.160156 L 14.71875 7.386719 C 14.867188 7.53125 15.039062 7.601562 15.226562 7.601562 C 15.425781 7.601562 15.589844 7.542969 15.722656 7.425781 C 15.851562 7.300781 15.917969 7.140625 15.917969 6.945312 C 15.917969 6.839844 15.898438 6.742188 15.851562 6.65625 C 15.816406 6.570312 15.757812 6.492188 15.675781 6.421875 L 12.554688 3.515625 C 12.367188 3.347656 12.183594 3.261719 12.007812 3.261719 C 11.835938 3.261719 11.652344 3.347656 11.464844 3.515625 L 8.34375 6.421875 C 8.269531 6.492188 8.210938 6.570312 8.164062 6.65625 C 8.121094 6.742188 8.101562 6.839844 8.101562 6.945312 C 8.101562 7.140625 8.164062 7.300781 8.289062 7.425781 C 8.417969 7.542969 8.585938 7.601562 8.785156 7.601562 C 8.976562 7.601562 9.148438 7.53125 9.300781 7.386719 L 10.519531 6.160156 L 11.324219 5.324219 L 11.269531 6.890625 L 11.269531 9.617188 C 11.269531 9.8125 11.339844 9.980469 11.484375 10.125 C 11.632812 10.269531 11.808594 10.339844 12.007812 10.339844 Z M 12.007812 10.339844 "/>
</g>
</svg>
