<svg width="149" height="116" viewBox="0 0 149 116" fill="none" xmlns="http://www.w3.org/2000/svg">
<path d="M20.5625 115.438H128.688C135.271 115.438 140.188 113.812 143.438 110.562C146.688 107.354 148.312 102.542 148.312 96.125V19.75C148.312 13.3333 146.688 8.5 143.438 5.25C140.188 2 135.271 0.375 128.688 0.375H20.5625C14.0208 0.375 9.10417 2 5.8125 5.25C2.5625 8.45833 0.9375 13.2917 0.9375 19.75V96.125C0.9375 102.542 2.5625 107.354 5.8125 110.562C9.10417 113.812 14.0208 115.438 20.5625 115.438ZM20.6875 105.375C17.5625 105.375 15.1667 104.562 13.5 102.938C11.8333 101.271 11 98.8125 11 95.5625V20.3125C11 17.0625 11.8333 14.6042 13.5 12.9375C15.1667 11.2708 17.5625 10.4375 20.6875 10.4375H128.562C131.646 10.4375 134.021 11.2708 135.688 12.9375C137.396 14.6042 138.25 17.0625 138.25 20.3125V95.5625C138.25 98.8125 137.396 101.271 135.688 102.938C134.021 104.562 131.646 105.375 128.562 105.375H20.6875ZM27.8125 90C27.8125 91.625 28.3125 92.9375 29.3125 93.9375C30.3542 94.9375 31.7083 95.4375 33.375 95.4375H116.062C117.729 95.4375 119.062 94.9375 120.062 93.9375C121.104 92.9375 121.625 91.625 121.625 90V80.625C121.625 79 121.104 77.6875 120.062 76.6875C119.062 75.6875 117.729 75.1875 116.062 75.1875H33.375C31.7083 75.1875 30.3542 75.6875 29.3125 76.6875C28.3125 77.6875 27.8125 79 27.8125 80.625V90Z" fill="white"/>
</svg>
