<?xml version="1.0" encoding="UTF-8"?>
<svg xmlns="http://www.w3.org/2000/svg" xmlns:xlink="http://www.w3.org/1999/xlink" width="24" height="25.5" viewBox="0 0 24 25.5" version="1.1">
<g id="surface1">
<path style=" stroke:none;fill-rule:nonzero;fill:rgb(100%,100%,100%);fill-opacity:1;" d="M 12 24.492188 C 13.632812 24.492188 15.167969 24.179688 16.605469 23.554688 C 18.050781 22.929688 19.324219 22.066406 20.425781 20.964844 C 21.527344 19.863281 22.390625 18.59375 23.015625 17.15625 C 23.640625 15.710938 23.953125 14.171875 23.953125 12.539062 C 23.953125 10.90625 23.640625 9.371094 23.015625 7.933594 C 22.390625 6.488281 21.527344 5.214844 20.425781 4.113281 C 19.324219 3.011719 18.050781 2.148438 16.605469 1.523438 C 15.160156 0.898438 13.621094 0.585938 11.988281 0.585938 C 10.355469 0.585938 8.816406 0.898438 7.371094 1.523438 C 5.933594 2.148438 4.664062 3.011719 3.5625 4.113281 C 2.46875 5.214844 1.609375 6.488281 0.984375 7.933594 C 0.359375 9.371094 0.046875 10.90625 0.046875 12.539062 C 0.046875 14.171875 0.359375 15.710938 0.984375 17.15625 C 1.609375 18.59375 2.472656 19.863281 3.574219 20.964844 C 4.675781 22.066406 5.945312 22.929688 7.382812 23.554688 C 8.828125 24.179688 10.367188 24.492188 12 24.492188 Z M 12 22.5 C 10.617188 22.5 9.324219 22.242188 8.121094 21.726562 C 6.917969 21.210938 5.859375 20.5 4.945312 19.59375 C 4.039062 18.679688 3.328125 17.621094 2.8125 16.417969 C 2.304688 15.214844 2.050781 13.921875 2.050781 12.539062 C 2.050781 11.15625 2.304688 9.863281 2.8125 8.660156 C 3.328125 7.457031 4.039062 6.398438 4.945312 5.484375 C 5.851562 4.570312 6.90625 3.859375 8.109375 3.351562 C 9.3125 2.835938 10.605469 2.578125 11.988281 2.578125 C 13.371094 2.578125 14.664062 2.835938 15.867188 3.351562 C 17.078125 3.859375 18.136719 4.570312 19.042969 5.484375 C 19.957031 6.398438 20.671875 7.457031 21.1875 8.660156 C 21.703125 9.863281 21.960938 11.15625 21.960938 12.539062 C 21.960938 13.921875 21.703125 15.214844 21.1875 16.417969 C 20.679688 17.621094 19.96875 18.679688 19.054688 19.59375 C 18.140625 20.5 17.082031 21.210938 15.878906 21.726562 C 14.675781 22.242188 13.382812 22.5 12 22.5 Z M 11.988281 19.230469 C 12.144531 19.230469 12.273438 19.179688 12.375 19.078125 C 12.484375 18.976562 12.539062 18.84375 12.539062 18.679688 L 12.539062 17.859375 C 13.453125 17.765625 14.21875 17.464844 14.835938 16.957031 C 15.460938 16.441406 15.773438 15.742188 15.773438 14.859375 C 15.773438 14.0625 15.515625 13.421875 15 12.9375 C 14.484375 12.453125 13.71875 12.121094 12.703125 11.941406 L 12.539062 11.90625 L 12.539062 8.636719 C 12.960938 8.714844 13.3125 8.878906 13.59375 9.128906 C 13.882812 9.371094 14.085938 9.6875 14.203125 10.078125 C 14.335938 10.460938 14.574219 10.652344 14.917969 10.652344 C 15.121094 10.652344 15.285156 10.589844 15.410156 10.464844 C 15.542969 10.332031 15.609375 10.164062 15.609375 9.960938 C 15.609375 9.898438 15.601562 9.839844 15.585938 9.785156 C 15.578125 9.722656 15.566406 9.660156 15.550781 9.597656 C 15.394531 8.964844 15.039062 8.445312 14.484375 8.039062 C 13.9375 7.625 13.289062 7.375 12.539062 7.289062 L 12.539062 6.480469 C 12.539062 6.316406 12.484375 6.183594 12.375 6.082031 C 12.273438 5.980469 12.144531 5.929688 11.988281 5.929688 C 11.621094 5.929688 11.4375 6.113281 11.4375 6.480469 L 11.4375 7.289062 C 10.546875 7.390625 9.816406 7.703125 9.246094 8.226562 C 8.675781 8.742188 8.390625 9.398438 8.390625 10.195312 C 8.390625 10.9375 8.640625 11.539062 9.140625 12 C 9.640625 12.460938 10.378906 12.804688 11.355469 13.03125 L 11.4375 13.054688 L 11.4375 16.523438 C 10.90625 16.445312 10.484375 16.269531 10.171875 15.996094 C 9.867188 15.722656 9.667969 15.390625 9.574219 15 C 9.503906 14.804688 9.40625 14.660156 9.28125 14.566406 C 9.164062 14.464844 9.019531 14.414062 8.847656 14.414062 C 8.652344 14.414062 8.488281 14.480469 8.355469 14.613281 C 8.230469 14.738281 8.167969 14.902344 8.167969 15.105469 C 8.167969 15.167969 8.171875 15.230469 8.179688 15.292969 C 8.195312 15.347656 8.210938 15.40625 8.226562 15.46875 C 8.390625 16.148438 8.769531 16.695312 9.363281 17.109375 C 9.957031 17.515625 10.648438 17.757812 11.4375 17.835938 L 11.4375 18.679688 C 11.4375 18.84375 11.488281 18.976562 11.589844 19.078125 C 11.699219 19.179688 11.832031 19.230469 11.988281 19.230469 Z M 11.4375 11.613281 L 11.355469 11.589844 C 10.832031 11.433594 10.445312 11.238281 10.195312 11.003906 C 9.953125 10.761719 9.832031 10.46875 9.832031 10.125 C 9.832031 9.765625 9.972656 9.449219 10.253906 9.175781 C 10.542969 8.902344 10.9375 8.722656 11.4375 8.636719 Z M 12.539062 13.335938 L 12.796875 13.394531 C 13.359375 13.550781 13.753906 13.753906 13.980469 14.003906 C 14.207031 14.253906 14.320312 14.566406 14.320312 14.941406 C 14.320312 15.355469 14.171875 15.707031 13.875 15.996094 C 13.585938 16.277344 13.140625 16.453125 12.539062 16.523438 Z M 12.539062 13.335938 "/>
</g>
</svg>
