<svg width="140" height="128" viewBox="0 0 140 128" fill="none" xmlns="http://www.w3.org/2000/svg">
<path d="M76 94.875C80.4583 94.875 84.4167 94.125 87.875 92.625C91.3333 91.0833 94.0417 88.9792 96 86.3125C98 83.6042 99 80.5208 99 77.0625C99 72.6875 97.6875 69.25 95.0625 66.75C92.4792 64.2083 88.2083 62.2083 82.25 60.75L73.375 58.5625C69.875 57.6875 67.3333 56.6042 65.75 55.3125C64.1667 53.9792 63.375 52.2708 63.375 50.1875C63.375 47.5625 64.4792 45.4375 66.6875 43.8125C68.9375 42.1458 71.875 41.3125 75.5 41.3125C78.7917 41.3125 81.4583 42.0417 83.5 43.5C85.5833 44.9167 87.1667 47.125 88.25 50.125C88.75 51.2083 89.3958 52.0208 90.1875 52.5625C90.9792 53.0625 91.8125 53.3125 92.6875 53.3125C94.3125 53.3125 95.5208 52.6875 96.3125 51.4375C97.1042 50.1458 97.2292 48.5625 96.6875 46.6875C96.1042 44.4792 94.8958 42.3333 93.0625 40.25C91.2292 38.1667 88.8333 36.4583 85.875 35.125C82.9167 33.75 79.4583 33.0625 75.5 33.0625C71.2917 33.0625 67.5417 33.8125 64.25 35.3125C61 36.8125 58.4375 38.875 56.5625 41.5C54.6875 44.125 53.75 47.1458 53.75 50.5625C53.75 54.8542 55.1458 58.3542 57.9375 61.0625C60.7292 63.7292 64.9792 65.7292 70.6875 67.0625L79.625 69.1875C83.125 70.0208 85.6042 71.0833 87.0625 72.375C88.5208 73.6667 89.25 75.4583 89.25 77.75C89.25 80.4583 88.0417 82.625 85.625 84.25C83.2083 85.8333 80 86.625 76 86.625C72.3333 86.625 69.3542 85.9375 67.0625 84.5625C64.8125 83.1458 63.125 80.9375 62 77.9375C61.5417 76.8542 60.9167 76.0625 60.125 75.5625C59.3333 75.0625 58.5 74.8125 57.625 74.8125C56.0417 74.8125 54.8542 75.3958 54.0625 76.5625C53.3125 77.7292 53.1042 79.25 53.4375 81.125C53.9375 83.6667 55.2083 85.9792 57.25 88.0625C59.2917 90.1458 61.9167 91.8125 65.125 93.0625C68.375 94.2708 72 94.875 76 94.875ZM72.3125 101C72.3125 102.042 72.6875 102.938 73.4375 103.688C74.1875 104.438 75.0625 104.812 76.0625 104.812C77.1042 104.812 78 104.438 78.75 103.688C79.5 102.938 79.875 102.042 79.875 101V26.8125C79.875 25.7708 79.5 24.875 78.75 24.125C78 23.375 77.1042 23 76.0625 23C75.0625 23 74.1875 23.375 73.4375 24.125C72.6875 24.875 72.3125 25.7708 72.3125 26.8125V101ZM76.0625 127.625C84.7708 127.625 92.9583 125.958 100.625 122.625C108.333 119.292 115.125 114.688 121 108.812C126.875 102.938 131.479 96.1667 134.812 88.5C138.146 80.7917 139.812 72.5833 139.812 63.875C139.812 55.1667 138.146 46.9792 134.812 39.3125C131.479 31.6042 126.875 24.8125 121 18.9375C115.125 13.0625 108.333 8.45833 100.625 5.125C92.9583 1.79167 84.7708 0.125 76.0625 0.125C67.3542 0.125 59.1458 1.79167 51.4375 5.125C43.7708 8.45833 37 13.0625 31.125 18.9375C25.25 24.7708 20.6458 31.5417 17.3125 39.25C13.9792 46.9167 12.3125 55.1042 12.3125 63.8125H22.9375C22.9375 56.4375 24.2917 49.5417 27 43.125C29.75 36.7083 33.5625 31.0833 38.4375 26.25C43.3125 21.4167 48.9583 17.6458 55.375 14.9375C61.7917 12.1875 68.6875 10.8125 76.0625 10.8125C83.4375 10.8125 90.3333 12.1875 96.75 14.9375C103.167 17.6458 108.792 21.4375 113.625 26.3125C118.5 31.1458 122.312 36.7708 125.062 43.1875C127.812 49.6042 129.188 56.5 129.188 63.875C129.188 71.25 127.812 78.1667 125.062 84.625C122.312 91.0417 118.5 96.6875 113.625 101.562C108.792 106.396 103.167 110.188 96.75 112.938C90.3333 115.688 83.4375 117.042 76.0625 117C70.1042 116.958 64.4583 116.021 59.125 114.188C53.7917 112.396 48.8958 109.854 44.4375 106.562C40.0208 103.271 36.2292 99.4167 33.0625 95C32.1042 93.7083 30.9375 92.8958 29.5625 92.5625C28.2292 92.1875 26.8958 92.3958 25.5625 93.1875C24.3125 93.9792 23.5417 95.125 23.25 96.625C23 98.125 23.4167 99.5625 24.5 100.938C28.4583 106.229 33.1042 110.875 38.4375 114.875C43.7708 118.917 49.625 122.042 56 124.25C62.375 126.5 69.0625 127.625 76.0625 127.625ZM4.625 51.8125C3.125 51.8125 2 52.125 1.25 52.75C0.5 53.3333 0.145833 54.125 0.1875 55.125C0.229167 56.125 0.645833 57.2083 1.4375 58.375L15.4375 78.25C16.4792 79.7083 17.6667 80.4375 19 80.4375C20.3333 80.3958 21.5 79.6667 22.5 78.25L36.5 58.3125C37.2917 57.1458 37.6875 56.0833 37.6875 55.125C37.7292 54.125 37.375 53.3333 36.625 52.75C35.875 52.125 34.7708 51.8125 33.3125 51.8125H4.625Z" fill="white"/>
</svg>
