<svg width="16" height="15" viewBox="0 0 16 15" fill="none" xmlns="http://www.w3.org/2000/svg">
<path d="M3.25781 14.5625H12.7344C13.5521 14.5625 14.1641 14.3594 14.5703 13.9531C14.9818 13.5521 15.1875 12.9479 15.1875 12.1406V2.60156C15.1875 1.79427 14.9818 1.1901 14.5703 0.789062C14.1641 0.382812 13.5521 0.179688 12.7344 0.179688H3.25781C2.4401 0.179688 1.82552 0.382812 1.41406 0.789062C1.00781 1.1901 0.804688 1.79427 0.804688 2.60156V12.1406C0.804688 12.9479 1.00781 13.5521 1.41406 13.9531C1.82552 14.3594 2.4401 14.5625 3.25781 14.5625ZM3.27344 13.3047C2.88281 13.3047 2.58333 13.2031 2.375 13C2.16667 12.7917 2.0625 12.4844 2.0625 12.0781V2.66406C2.0625 2.25781 2.16667 1.95312 2.375 1.75C2.58333 1.54167 2.88281 1.4375 3.27344 1.4375H12.7188C13.1042 1.4375 13.401 1.54167 13.6094 1.75C13.8229 1.95312 13.9297 2.25781 13.9297 2.66406V12.0781C13.9297 12.4844 13.8229 12.7917 13.6094 13C13.401 13.2031 13.1042 13.3047 12.7188 13.3047H3.27344ZM5.21094 7.64062C5.21094 8.11458 5.30729 8.53646 5.5 8.90625C5.69271 9.27083 5.95573 9.55729 6.28906 9.76562C6.6276 9.96875 7.01042 10.0703 7.4375 10.0703C8.10938 10.0703 8.6276 9.83854 8.99219 9.375V9.6875C8.99219 9.82812 9.03646 9.94271 9.125 10.0312C9.21354 10.1198 9.32812 10.1641 9.46875 10.1641C9.60417 10.1641 9.71354 10.1198 9.79688 10.0312C9.88542 9.94271 9.92969 9.82812 9.92969 9.6875V4.63281H10.4297C10.5339 4.63281 10.6198 4.59896 10.6875 4.53125C10.7604 4.45833 10.7969 4.36979 10.7969 4.26562C10.7969 4.15625 10.763 4.06771 10.6953 4C10.6276 3.92708 10.5391 3.89062 10.4297 3.89062H9.92969V3.52344C9.92969 3.3724 9.88542 3.2526 9.79688 3.16406C9.70833 3.07031 9.59115 3.02344 9.44531 3.02344C9.29427 3.02344 9.17448 3.07031 9.08594 3.16406C8.9974 3.2526 8.95312 3.3724 8.95312 3.52344V3.89062H7.53125C7.42188 3.89062 7.33333 3.92708 7.26562 4C7.20312 4.06771 7.17188 4.15625 7.17188 4.26562C7.17188 4.36979 7.20573 4.45833 7.27344 4.53125C7.34115 4.59896 7.42708 4.63281 7.53125 4.63281H8.95312V5.88281C8.78646 5.66927 8.57031 5.50521 8.30469 5.39062C8.04427 5.27083 7.7526 5.21094 7.42969 5.21094C6.78906 5.21094 6.25781 5.4375 5.83594 5.89062C5.41927 6.33854 5.21094 6.92188 5.21094 7.64062ZM6.21094 7.64844C6.21094 7.1849 6.33854 6.8151 6.59375 6.53906C6.85417 6.25781 7.1901 6.11719 7.60156 6.11719C7.9974 6.11719 8.32552 6.26302 8.58594 6.55469C8.84635 6.84115 8.97656 7.20573 8.97656 7.64844C8.97656 8.09115 8.84635 8.45833 8.58594 8.75C8.32552 9.03646 7.9974 9.17969 7.60156 9.17969C7.1901 9.17969 6.85417 9.04167 6.59375 8.76562C6.33854 8.48438 6.21094 8.11198 6.21094 7.64844ZM5.60938 10.9609C5.60938 11.0703 5.64583 11.1615 5.71875 11.2344C5.79167 11.3073 5.88021 11.3438 5.98438 11.3438H9.79688C9.90104 11.3438 9.98958 11.3073 10.0625 11.2344C10.1406 11.1615 10.1797 11.0703 10.1797 10.9609C10.1797 10.8516 10.1432 10.763 10.0703 10.6953C9.9974 10.6224 9.90625 10.5859 9.79688 10.5859H5.98438C5.875 10.5859 5.78385 10.6224 5.71094 10.6953C5.64323 10.7682 5.60938 10.8568 5.60938 10.9609Z" fill="white"/>
</svg>
