<svg width="20" height="17" viewBox="0 0 20 17" fill="none" xmlns="http://www.w3.org/2000/svg">
<path d="M1.07031 16.6484C1.2474 16.6484 1.39583 16.5859 1.51562 16.4609C1.64062 16.3411 1.70312 16.1953 1.70312 16.0234V1.74219C1.70312 1.46615 1.83594 1.32812 2.10156 1.32812H17.8906C18.1562 1.32812 18.2891 1.46615 18.2891 1.74219V16.0234C18.2891 16.1953 18.349 16.3411 18.4688 16.4609C18.5938 16.5859 18.7422 16.6484 18.9141 16.6484C19.0911 16.6484 19.2396 16.5859 19.3594 16.4609C19.4844 16.3411 19.5469 16.1953 19.5469 16.0234V1.66406C19.5469 1.1849 19.3958 0.799479 19.0938 0.507812C18.7969 0.216146 18.401 0.0703125 17.9062 0.0703125H2.07812C1.58854 0.0703125 1.19271 0.216146 0.890625 0.507812C0.59375 0.799479 0.445312 1.1849 0.445312 1.66406V16.0234C0.445312 16.1953 0.505208 16.3411 0.625 16.4609C0.75 16.5859 0.898438 16.6484 1.07031 16.6484ZM10.3281 16.375H17.1094C17.2865 16.375 17.375 16.2865 17.375 16.1094V2.5C17.375 2.32292 17.2865 2.23438 17.1094 2.23438H10.3281C10.151 2.23438 10.0625 2.32292 10.0625 2.5V16.1094C10.0625 16.2865 10.151 16.375 10.3281 16.375ZM11.8281 10.5312C11.7188 10.5312 11.6276 10.4974 11.5547 10.4297C11.487 10.3568 11.4531 10.263 11.4531 10.1484V8.78125C11.4531 8.66667 11.487 8.57552 11.5547 8.50781C11.6276 8.4401 11.7188 8.40625 11.8281 8.40625C11.9427 8.40625 12.0339 8.4401 12.1016 8.50781C12.1693 8.57552 12.2031 8.66667 12.2031 8.78125V10.1484C12.2031 10.263 12.1693 10.3568 12.1016 10.4297C12.0339 10.4974 11.9427 10.5312 11.8281 10.5312Z" fill="white"/>
</svg>
