<svg xmlns="http://www.w3.org/2000/svg" width="24" height="24"><path style="stroke:none;fill-rule:nonzero;fill:#fff;fill-opacity:1" d="M1.21 23.504c.169.004.33-.094.446-.266.121-.16.192-.383.188-.617V2.461c0-.395.133-.586.398-.586h19.516c.265 0 .398.191.398.586v20.16c0 .242.059.445.18.617.117.172.281.27.453.266.164.004.324-.094.438-.266.12-.16.191-.383.187-.617V2.348c0-.676-.152-1.22-.453-1.63-.297-.413-.691-.62-1.18-.62H2.22c-.489 0-.887.207-1.188.62-.297.41-.445.954-.445 1.63V22.62c0 .242.059.445.18.617.117.172.277.266.445.266Zm1.813-15.66h17.961c.172 0 .258-.121.258-.367V3.53c0-.25-.086-.379-.258-.379H3.024c-.176 0-.266.13-.266.38v3.945c0 .246.09.367.265.367ZM10.32 6.03a.354.354 0 0 1-.28-.14.741.741 0 0 1-.102-.387c0-.16.035-.293.101-.387.074-.105.176-.16.281-.156h3.367c.11 0 .2.05.266.156a.61.61 0 0 1 .11.387.617.617 0 0 1-.106.379c-.07.101-.168.156-.27.148Zm0 0"/></svg>