<svg xmlns="http://www.w3.org/2000/svg" width="24" height="24"><path style="stroke:none;fill-rule:nonzero;fill:#fff;fill-opacity:1" d="M22.656 23.504c.344 0 .637-.09.875-.266.25-.168.375-.375.375-.617V2.348c0-.676-.3-1.22-.906-1.63-.594-.413-1.379-.62-2.36-.62H3.36c-.981 0-1.77.207-2.376.617-.593.414-.89.957-.89 1.633V22.62c0 .242.12.45.36.617.25.176.546.266.89.266.355 0 .652-.09.89-.266.25-.168.375-.375.375-.617V2.461c0-.39.266-.586.797-.586h17.188c.531 0 .797.195.797.586v20.16c0 .242.12.45.359.617.25.176.55.266.906.266Zm-3.61-.387c.345 0 .517-.125.517-.375V3.532c0-.255-.172-.376-.516-.376H4.969c-.356 0-.532.121-.532.375v19.211c0 .25.176.375.532.375ZM8.157 14.25a1.56 1.56 0 0 1-.89-.254c-.23-.168-.364-.394-.36-.629 0-.25.121-.46.36-.629a1.56 1.56 0 0 1 .89-.254c.344 0 .637.086.875.254.25.168.375.38.375.63 0 .241-.125.452-.375.628-.238.168-.531.254-.875.254Zm0 0"/></svg>