<svg width="154" height="134" viewBox="0 0 154 134" fill="none" xmlns="http://www.w3.org/2000/svg">
<path d="M5.9375 133.188C7.35417 133.188 8.54167 132.688 9.5 131.688C10.5 130.729 11 129.562 11 128.188V13.9375C11 11.7292 12.0625 10.625 14.1875 10.625H140.5C142.625 10.625 143.688 11.7292 143.688 13.9375V128.188C143.688 129.562 144.167 130.729 145.125 131.688C146.125 132.688 147.312 133.188 148.688 133.188C150.104 133.188 151.292 132.688 152.25 131.688C153.25 130.729 153.75 129.562 153.75 128.188V13.3125C153.75 9.47917 152.542 6.39583 150.125 4.0625C147.75 1.72917 144.583 0.5625 140.625 0.5625H14C10.0833 0.5625 6.91667 1.72917 4.5 4.0625C2.125 6.39583 0.9375 9.47917 0.9375 13.3125V128.188C0.9375 129.562 1.41667 130.729 2.375 131.688C3.375 132.688 4.5625 133.188 5.9375 133.188ZM20.4375 131.062H71.5625C72.9792 131.062 73.6875 130.354 73.6875 128.938V20.125C73.6875 18.7083 72.9792 18 71.5625 18H20.4375C19.0208 18 18.3125 18.7083 18.3125 20.125V128.938C18.3125 130.354 19.0208 131.062 20.4375 131.062ZM29 51.6875C28 51.6875 27.5 51.1458 27.5 50.0625V28.8125C27.5 27.7292 28 27.1875 29 27.1875H63C64 27.1875 64.5 27.7292 64.5 28.8125V50.0625C64.5 51.1458 64 51.6875 63 51.6875H29ZM29 86.75C28 86.75 27.5 86.2083 27.5 85.125V63.875C27.5 62.8333 28 62.3125 29 62.3125H63C64 62.3125 64.5 62.8333 64.5 63.875V85.125C64.5 86.2083 64 86.75 63 86.75H29ZM29 121.875C28 121.875 27.5 121.333 27.5 120.25V99C27.5 97.9583 28 97.4375 29 97.4375H63C64 97.4375 64.5 97.9583 64.5 99V120.25C64.5 121.333 64 121.875 63 121.875H29ZM83.0625 131H134.25C135.667 131 136.375 130.292 136.375 128.875V20C136.375 18.5833 135.667 17.875 134.25 17.875H83.0625C81.6875 17.875 81 18.5833 81 20V128.875C81 130.292 81.6875 131 83.0625 131ZM91.6875 51.5625C90.6875 51.5625 90.1875 51.0208 90.1875 49.9375V28.6875C90.1875 27.6458 90.6875 27.125 91.6875 27.125H125.688C126.646 27.125 127.125 27.6458 127.125 28.6875V49.9375C127.125 51.0208 126.646 51.5625 125.688 51.5625H91.6875ZM91.6875 86.625C90.6875 86.625 90.1875 86.1042 90.1875 85.0625V63.75C90.1875 62.7083 90.6875 62.1875 91.6875 62.1875H125.688C126.646 62.1875 127.125 62.7083 127.125 63.75V85.0625C127.125 86.1042 126.646 86.625 125.688 86.625H91.6875ZM91.6875 121.75C90.6875 121.75 90.1875 121.229 90.1875 120.188V98.875C90.1875 97.8333 90.6875 97.3125 91.6875 97.3125H125.688C126.646 97.3125 127.125 97.8333 127.125 98.875V120.188C127.125 121.229 126.646 121.75 125.688 121.75H91.6875Z" fill="white"/>
</svg>
