<svg xmlns="http://www.w3.org/2000/svg" width="24" height="24"><path style="stroke:none;fill-rule:nonzero;fill:#fff;fill-opacity:1" d="M23.906 22.621V2.348c0-.676-.3-1.22-.906-1.63-.594-.413-1.379-.62-2.36-.62H3.36c-.981 0-1.77.207-2.376.617-.593.414-.89.957-.89 1.633V22.62c0 .242.12.45.36.617.25.176.546.266.89.266.355 0 .652-.09.89-.266.25-.168.375-.375.375-.617V2.461c0-.39.266-.586.797-.586h17.188c.531 0 .797.195.797.586v20.16c0 .242.12.45.359.617.25.176.55.266.906.266.344 0 .637-.09.875-.266.25-.168.375-.375.375-.617Zm-4.343.254V3.398a.232.232 0 0 0-.157-.234c-.105-.05-.234-.055-.39-.012L14.094 4.7c-.153.04-.29.106-.406.188-.083.054-.126.156-.126.297v15.894c0 .14.043.242.126.309.082.066.222.129.421.187l4.907 1.531c.156.043.285.043.39-.011.106-.043.157-.117.157-.219Zm0 0"/></svg>