<svg xmlns="http://www.w3.org/2000/svg" width="24" height="24"><path style="stroke:none;fill-rule:nonzero;fill:#fff;fill-opacity:1" d="M1.285 23.504a.677.677 0 0 0 .535-.266.901.901 0 0 0 .223-.617V2.457c0-.39.16-.582.48-.582H21.47c.32 0 .476.191.476.582v20.164c0 .23.078.457.22.617.14.172.331.266.53.266.215 0 .39-.09.535-.266a.88.88 0 0 0 .227-.617V2.348c0-.676-.184-1.22-.543-1.633-.36-.41-.832-.613-1.426-.613H2.492c-.586 0-1.062.203-1.422.613-.36.414-.535.957-.535 1.633v20.27c0 .245.07.452.215.62.14.172.332.266.535.266Zm2.176-.387h7.668c.21 0 .316-.125.316-.375V3.532c0-.25-.105-.38-.316-.38H3.46c-.215 0-.32.13-.32.38v19.21c0 .25.105.375.32.375Zm1.797-8.25a.435.435 0 0 1-.328-.14.642.642 0 0 1-.121-.399v-1.93c0-.164.043-.293.12-.386a.426.426 0 0 1 .329-.145c.14 0 .25.051.328.145.09.097.14.242.133.386v1.93c0 .16-.043.293-.133.399a.404.404 0 0 1-.328.14Zm7.594 8.25h7.68c.21 0 .32-.125.32-.375V3.532c0-.25-.11-.38-.32-.38h-7.68c-.204 0-.309.13-.309.38v19.21c0 .25.105.375.309.375Zm0 0"/></svg>