<svg xmlns="http://www.w3.org/2000/svg" width="24" height="24"><path style="stroke:none;fill-rule:nonzero;fill:#fff;fill-opacity:1" d="M.094 22.621c0 .242.12.45.36.617.25.176.546.266.89.266.355 0 .652-.09.89-.266.25-.168.375-.375.375-.617V2.461c0-.39.266-.586.797-.586h17.188c.531 0 .797.195.797.586v20.16c0 .242.12.45.359.617.25.176.55.266.906.266.344 0 .637-.09.875-.266.25-.168.375-.375.375-.617V2.348c0-.676-.3-1.22-.906-1.63-.594-.413-1.379-.62-2.36-.62H3.36c-.981 0-1.77.207-2.376.617-.593.414-.89.957-.89 1.633Zm4.343.254c0 .102.051.176.157.223.113.05.246.054.39.007l4.907-1.53c.199-.06.34-.122.421-.188.083-.067.126-.168.126-.309V5.184c0-.141-.043-.239-.126-.297a1.251 1.251 0 0 0-.406-.188L4.984 3.156a.535.535 0 0 0-.39.008c-.106.047-.157.125-.157.234Zm0 0"/></svg>