<svg width="20" height="17" viewBox="0 0 20 17" fill="none" xmlns="http://www.w3.org/2000/svg">
<path d="M1.07031 16.6484C1.2474 16.6484 1.39583 16.5859 1.51562 16.4609C1.64062 16.3411 1.70312 16.1953 1.70312 16.0234V1.74219C1.70312 1.46615 1.83594 1.32812 2.10156 1.32812H17.8906C18.1562 1.32812 18.2891 1.46615 18.2891 1.74219V16.0234C18.2891 16.1953 18.349 16.3411 18.4688 16.4609C18.5938 16.5859 18.7422 16.6484 18.9141 16.6484C19.0911 16.6484 19.2396 16.5859 19.3594 16.4609C19.4844 16.3411 19.5469 16.1953 19.5469 16.0234V1.66406C19.5469 1.1849 19.3958 0.799479 19.0938 0.507812C18.7969 0.216146 18.401 0.0703125 17.9062 0.0703125H2.07812C1.58854 0.0703125 1.19271 0.216146 0.890625 0.507812C0.59375 0.799479 0.445312 1.1849 0.445312 1.66406V16.0234C0.445312 16.1953 0.505208 16.3411 0.625 16.4609C0.75 16.5859 0.898438 16.6484 1.07031 16.6484ZM2.88281 16.3828H9.27344C9.45052 16.3828 9.53906 16.2943 9.53906 16.1172V2.51562C9.53906 2.33854 9.45052 2.25 9.27344 2.25H2.88281C2.70573 2.25 2.61719 2.33854 2.61719 2.51562V16.1172C2.61719 16.2943 2.70573 16.3828 2.88281 16.3828ZM3.95312 6.46094C3.82812 6.46094 3.76562 6.39323 3.76562 6.25781V3.60156C3.76562 3.46615 3.82812 3.39844 3.95312 3.39844H8.20312C8.32812 3.39844 8.39062 3.46615 8.39062 3.60156V6.25781C8.39062 6.39323 8.32812 6.46094 8.20312 6.46094H3.95312ZM3.95312 10.8438C3.82812 10.8438 3.76562 10.776 3.76562 10.6406V7.98438C3.76562 7.85417 3.82812 7.78906 3.95312 7.78906H8.20312C8.32812 7.78906 8.39062 7.85417 8.39062 7.98438V10.6406C8.39062 10.776 8.32812 10.8438 8.20312 10.8438H3.95312ZM3.95312 15.2344C3.82812 15.2344 3.76562 15.1667 3.76562 15.0312V12.375C3.76562 12.2448 3.82812 12.1797 3.95312 12.1797H8.20312C8.32812 12.1797 8.39062 12.2448 8.39062 12.375V15.0312C8.39062 15.1667 8.32812 15.2344 8.20312 15.2344H3.95312ZM10.7109 16.375H17.1094C17.2865 16.375 17.375 16.2865 17.375 16.1094V2.5C17.375 2.32292 17.2865 2.23438 17.1094 2.23438H10.7109C10.5391 2.23438 10.4531 2.32292 10.4531 2.5V16.1094C10.4531 16.2865 10.5391 16.375 10.7109 16.375ZM11.7891 6.44531C11.6641 6.44531 11.6016 6.3776 11.6016 6.24219V3.58594C11.6016 3.45573 11.6641 3.39062 11.7891 3.39062H16.0391C16.1589 3.39062 16.2188 3.45573 16.2188 3.58594V6.24219C16.2188 6.3776 16.1589 6.44531 16.0391 6.44531H11.7891ZM11.7891 10.8281C11.6641 10.8281 11.6016 10.763 11.6016 10.6328V7.96875C11.6016 7.83854 11.6641 7.77344 11.7891 7.77344H16.0391C16.1589 7.77344 16.2188 7.83854 16.2188 7.96875V10.6328C16.2188 10.763 16.1589 10.8281 16.0391 10.8281H11.7891ZM11.7891 15.2188C11.6641 15.2188 11.6016 15.1536 11.6016 15.0234V12.3594C11.6016 12.2292 11.6641 12.1641 11.7891 12.1641H16.0391C16.1589 12.1641 16.2188 12.2292 16.2188 12.3594V15.0234C16.2188 15.1536 16.1589 15.2188 16.0391 15.2188H11.7891Z" fill="white"/>
</svg>
