<?xml version="1.0" encoding="UTF-8"?>
<svg xmlns="http://www.w3.org/2000/svg" xmlns:xlink="http://www.w3.org/1999/xlink" width="24" height="34" viewBox="0 0 24 34" version="1.1">
<g id="surface1">
<path style=" stroke:none;fill-rule:nonzero;fill:rgb(100%,100%,100%);fill-opacity:1;" d="M 22.65625 33.296875 C 23 33.296875 23.292969 33.171875 23.53125 32.921875 C 23.78125 32.683594 23.90625 32.390625 23.90625 32.046875 L 23.90625 3.328125 C 23.90625 2.371094 23.605469 1.597656 23 1.015625 C 22.40625 0.433594 21.621094 0.140625 20.640625 0.140625 L 3.359375 0.140625 C 2.378906 0.140625 1.589844 0.433594 0.984375 1.015625 C 0.390625 1.597656 0.09375 2.371094 0.09375 3.328125 L 0.09375 32.046875 C 0.09375 32.390625 0.214844 32.683594 0.453125 32.921875 C 0.703125 33.171875 1 33.296875 1.34375 33.296875 C 1.699219 33.296875 1.996094 33.171875 2.234375 32.921875 C 2.484375 32.683594 2.609375 32.390625 2.609375 32.046875 L 2.609375 3.484375 C 2.609375 2.933594 2.875 2.65625 3.40625 2.65625 L 20.59375 2.65625 C 21.125 2.65625 21.390625 2.933594 21.390625 3.484375 L 21.390625 32.046875 C 21.390625 32.390625 21.511719 32.683594 21.75 32.921875 C 22 33.171875 22.300781 33.296875 22.65625 33.296875 Z M 19.046875 32.75 C 19.390625 32.75 19.5625 32.574219 19.5625 32.21875 L 19.5625 5 C 19.5625 4.644531 19.390625 4.46875 19.046875 4.46875 L 4.96875 4.46875 C 4.613281 4.46875 4.4375 4.644531 4.4375 5 L 4.4375 32.21875 C 4.4375 32.574219 4.613281 32.75 4.96875 32.75 Z M 8.15625 20.1875 C 7.8125 20.1875 7.515625 20.066406 7.265625 19.828125 C 7.027344 19.578125 6.90625 19.28125 6.90625 18.9375 C 6.90625 18.582031 7.027344 18.285156 7.265625 18.046875 C 7.515625 17.808594 7.8125 17.6875 8.15625 17.6875 C 8.5 17.6875 8.792969 17.808594 9.03125 18.046875 C 9.28125 18.285156 9.40625 18.582031 9.40625 18.9375 C 9.40625 19.28125 9.28125 19.578125 9.03125 19.828125 C 8.792969 20.066406 8.5 20.1875 8.15625 20.1875 Z M 8.15625 20.1875 "/>
</g>
</svg>
