<?xml version="1.0" encoding="UTF-8"?>
<svg xmlns="http://www.w3.org/2000/svg" xmlns:xlink="http://www.w3.org/1999/xlink" width="24" height="22.5" viewBox="0 0 24 22.5" version="1.1">
<g id="surface1">
<path style=" stroke:none;fill-rule:nonzero;fill:rgb(100%,100%,100%);fill-opacity:1;" d="M 4.886719 21.84375 L 19.101562 21.84375 C 20.328125 21.84375 21.246094 21.539062 21.855469 20.929688 C 22.472656 20.328125 22.78125 19.421875 22.78125 18.210938 L 22.78125 3.902344 C 22.78125 2.691406 22.472656 1.785156 21.855469 1.183594 C 21.246094 0.574219 20.328125 0.269531 19.101562 0.269531 L 4.886719 0.269531 C 3.660156 0.269531 2.738281 0.574219 2.121094 1.183594 C 1.511719 1.785156 1.207031 2.691406 1.207031 3.902344 L 1.207031 18.210938 C 1.207031 19.421875 1.511719 20.328125 2.121094 20.929688 C 2.738281 21.539062 3.660156 21.84375 4.886719 21.84375 Z M 4.910156 19.957031 C 4.324219 19.957031 3.875 19.804688 3.5625 19.5 C 3.25 19.1875 3.09375 18.726562 3.09375 18.117188 L 3.09375 3.996094 C 3.09375 3.386719 3.25 2.929688 3.5625 2.625 C 3.875 2.3125 4.324219 2.15625 4.910156 2.15625 L 19.078125 2.15625 C 19.65625 2.15625 20.101562 2.3125 20.414062 2.625 C 20.734375 2.929688 20.894531 3.386719 20.894531 3.996094 L 20.894531 18.117188 C 20.894531 18.726562 20.734375 19.1875 20.414062 19.5 C 20.101562 19.804688 19.65625 19.957031 19.078125 19.957031 Z M 12.023438 14.625 C 12.679688 14.625 13.28125 14.464844 13.828125 14.144531 C 14.375 13.816406 14.808594 13.378906 15.128906 12.832031 C 15.457031 12.285156 15.621094 11.679688 15.621094 11.015625 C 15.621094 10.359375 15.457031 9.761719 15.128906 9.222656 C 14.808594 8.675781 14.375 8.242188 13.828125 7.921875 C 13.28125 7.59375 12.679688 7.429688 12.023438 7.429688 C 11.367188 7.429688 10.765625 7.59375 10.21875 7.921875 C 9.671875 8.242188 9.234375 8.675781 8.90625 9.222656 C 8.578125 9.761719 8.414062 10.359375 8.414062 11.015625 C 8.414062 11.679688 8.578125 12.285156 8.90625 12.832031 C 9.234375 13.378906 9.671875 13.816406 10.21875 14.144531 C 10.765625 14.464844 11.367188 14.625 12.023438 14.625 Z M 12.023438 14.625 "/>
</g>
</svg>
