<svg width="16" height="15" viewBox="0 0 16 15" fill="none" xmlns="http://www.w3.org/2000/svg">
<path d="M0.804688 13.9375C0.804688 14.125 0.861979 14.276 0.976562 14.3906C1.09115 14.5052 1.24219 14.5625 1.42969 14.5625H14.5703C14.7578 14.5625 14.9062 14.5052 15.0156 14.3906C15.1302 14.276 15.1875 14.125 15.1875 13.9375V0.796875C15.1875 0.609375 15.1302 0.460938 15.0156 0.351562C14.9062 0.236979 14.7578 0.179688 14.5703 0.179688H1.42969C1.24219 0.179688 1.09115 0.236979 0.976562 0.351562C0.861979 0.460938 0.804688 0.609375 0.804688 0.796875V13.9375ZM2.0625 13.0781V1.66406C2.0625 1.51302 2.13802 1.4375 2.28906 1.4375H13.7031C13.8542 1.4375 13.9297 1.51302 13.9297 1.66406V13.0781C13.9297 13.2292 13.8542 13.3047 13.7031 13.3047H2.28906C2.13802 13.3047 2.0625 13.2292 2.0625 13.0781ZM8.01562 9.76562C8.45312 9.76562 8.85417 9.65885 9.21875 9.44531C9.58333 9.22656 9.8724 8.9349 10.0859 8.57031C10.3047 8.20573 10.4141 7.80208 10.4141 7.35938C10.4141 6.92188 10.3047 6.52344 10.0859 6.16406C9.8724 5.79948 9.58333 5.51042 9.21875 5.29688C8.85417 5.07812 8.45312 4.96875 8.01562 4.96875C7.57812 4.96875 7.17708 5.07812 6.8125 5.29688C6.44792 5.51042 6.15625 5.79948 5.9375 6.16406C5.71875 6.52344 5.60938 6.92188 5.60938 7.35938C5.60938 7.80208 5.71875 8.20573 5.9375 8.57031C6.15625 8.9349 6.44792 9.22656 6.8125 9.44531C7.17708 9.65885 7.57812 9.76562 8.01562 9.76562Z" fill="white"/>
</svg>
