<svg width="128" height="128" viewBox="0 0 128 128" fill="none" xmlns="http://www.w3.org/2000/svg">
<path d="M63.9375 127.625C72.6458 127.625 80.8333 125.958 88.5 122.625C96.2083 119.292 103 114.688 108.875 108.812C114.75 102.938 119.354 96.1667 122.688 88.5C126.021 80.7917 127.688 72.5833 127.688 63.875C127.688 55.1667 126.021 46.9792 122.688 39.3125C119.354 31.6042 114.75 24.8125 108.875 18.9375C103 13.0625 96.2083 8.45833 88.5 5.125C80.7917 1.79167 72.5833 0.125 63.875 0.125C55.1667 0.125 46.9583 1.79167 39.25 5.125C31.5833 8.45833 24.8125 13.0625 18.9375 18.9375C13.1042 24.8125 8.52083 31.6042 5.1875 39.3125C1.85417 46.9792 0.1875 55.1667 0.1875 63.875C0.1875 72.5833 1.85417 80.7917 5.1875 88.5C8.52083 96.1667 13.125 102.938 19 108.812C24.875 114.688 31.6458 119.292 39.3125 122.625C47.0208 125.958 55.2292 127.625 63.9375 127.625ZM63.9375 117C56.5625 117 49.6667 115.625 43.25 112.875C36.8333 110.125 31.1875 106.333 26.3125 101.5C21.4792 96.625 17.6875 90.9792 14.9375 84.5625C12.2292 78.1458 10.875 71.25 10.875 63.875C10.875 56.5 12.2292 49.6042 14.9375 43.1875C17.6875 36.7708 21.4792 31.125 26.3125 26.25C31.1458 21.375 36.7708 17.5833 43.1875 14.875C49.6042 12.125 56.5 10.75 63.875 10.75C71.25 10.75 78.1458 12.125 84.5625 14.875C91.0208 17.5833 96.6667 21.375 101.5 26.25C106.375 31.125 110.188 36.7708 112.938 43.1875C115.688 49.6042 117.062 56.5 117.062 63.875C117.062 71.25 115.688 78.1458 112.938 84.5625C110.229 90.9792 106.438 96.625 101.562 101.5C96.6875 106.333 91.0417 110.125 84.625 112.875C78.2083 115.625 71.3125 117 63.9375 117ZM63.875 87.3125C68.2083 87.3125 72.1458 86.25 75.6875 84.125C79.2708 82 82.125 79.1667 84.25 75.625C86.4167 72.0417 87.5 68.1042 87.5 63.8125C87.5 59.5625 86.4167 55.6667 84.25 52.125C82.125 48.5417 79.2708 45.6875 75.6875 43.5625C72.1458 41.3958 68.2083 40.3125 63.875 40.3125C59.625 40.3125 55.7292 41.3958 52.1875 43.5625C48.6458 45.6875 45.7917 48.5417 43.625 52.125C41.5 55.6667 40.4375 59.5625 40.4375 63.8125C40.4375 68.1042 41.5 72.0417 43.625 75.625C45.7917 79.1667 48.6458 82 52.1875 84.125C55.7292 86.25 59.625 87.3125 63.875 87.3125ZM75.125 28.6875L66.5 17.8125C65.8333 17.0208 65 16.625 64 16.625C63.0417 16.625 62.2292 17.0208 61.5625 17.8125L52.875 28.6875C51.875 29.8958 51.625 31.125 52.125 32.375C52.625 33.5833 53.7083 34.1875 55.375 34.1875H72.625C74.2083 34.1875 75.25 33.5625 75.75 32.3125C76.25 31.0208 76.0417 29.8125 75.125 28.6875ZM99.1875 74.9375L110 66.375C110.833 65.7083 111.25 64.8958 111.25 63.9375C111.25 62.9375 110.833 62.1042 110 61.4375L99.1875 52.75C97.9792 51.75 96.75 51.5 95.5 52C94.2917 52.5 93.6875 53.5833 93.6875 55.25V72.5C93.6875 74.0833 94.3125 75.125 95.5625 75.625C96.8125 76.125 98.0208 75.8958 99.1875 74.9375ZM75.125 99.0625C76.0417 97.8958 76.25 96.6875 75.75 95.4375C75.25 94.1458 74.2083 93.5 72.625 93.5H55.375C53.7083 93.5 52.625 94.125 52.125 95.375C51.625 96.625 51.875 97.8542 52.875 99.0625L61.5625 109.875C62.2292 110.708 63.0417 111.125 64 111.125C65 111.125 65.8333 110.708 66.5 109.875L75.125 99.0625ZM28.8125 74.9375C29.9375 75.8958 31.125 76.125 32.375 75.625C33.6667 75.125 34.3125 74.0833 34.3125 72.5V55.25C34.3125 53.5833 33.6875 52.5 32.4375 52C31.2292 51.5 30.0208 51.75 28.8125 52.75L18 61.4375C17.1667 62.1042 16.75 62.9375 16.75 63.9375C16.75 64.8958 17.1667 65.7083 18 66.375L28.8125 74.9375Z" fill="white"/>
</svg>
