<?xml version="1.0" encoding="UTF-8"?>
<svg xmlns="http://www.w3.org/2000/svg" xmlns:xlink="http://www.w3.org/1999/xlink" width="24" height="22.5" viewBox="0 0 24 22.5" version="1.1">
<g id="surface1">
<path style=" stroke:none;fill-rule:nonzero;fill:rgb(100%,100%,100%);fill-opacity:1;" d="M 1.207031 20.90625 C 1.207031 21.1875 1.292969 21.414062 1.464844 21.585938 C 1.636719 21.757812 1.863281 21.84375 2.144531 21.84375 L 21.855469 21.84375 C 22.136719 21.84375 22.359375 21.757812 22.523438 21.585938 C 22.695312 21.414062 22.78125 21.1875 22.78125 20.90625 L 22.78125 1.195312 C 22.78125 0.914062 22.695312 0.691406 22.523438 0.527344 C 22.359375 0.355469 22.136719 0.269531 21.855469 0.269531 L 2.144531 0.269531 C 1.863281 0.269531 1.636719 0.355469 1.464844 0.527344 C 1.292969 0.691406 1.207031 0.914062 1.207031 1.195312 Z M 12.035156 14.824219 C 11.339844 14.824219 10.707031 14.652344 10.136719 14.308594 C 9.566406 13.964844 9.109375 13.507812 8.765625 12.9375 C 8.421875 12.367188 8.25 11.734375 8.25 11.039062 C 8.25 10.351562 8.421875 9.726562 8.765625 9.164062 C 9.109375 8.59375 9.566406 8.140625 10.136719 7.804688 C 10.707031 7.460938 11.339844 7.289062 12.035156 7.289062 C 12.722656 7.289062 13.351562 7.460938 13.921875 7.804688 C 14.492188 8.140625 14.945312 8.59375 15.28125 9.164062 C 15.625 9.726562 15.796875 10.351562 15.796875 11.039062 C 15.796875 11.734375 15.625 12.367188 15.28125 12.9375 C 14.945312 13.507812 14.492188 13.964844 13.921875 14.308594 C 13.351562 14.652344 12.722656 14.824219 12.035156 14.824219 Z M 12.035156 14.824219 "/>
</g>
</svg>
