<svg xmlns="http://www.w3.org/2000/svg" width="24" height="24"><path style="stroke:none;fill-rule:nonzero;fill:#fff;fill-opacity:1" d="M9.484 20.793a7.447 7.447 0 0 0 3.547-.895l-.937-1.351a6.303 6.303 0 0 1-1.254.418 5.884 5.884 0 0 1-1.356.148 6.27 6.27 0 0 1-2.82-.64 7.358 7.358 0 0 1-2.309-1.805 8.63 8.63 0 0 1-1.55-2.676 9.392 9.392 0 0 1-.555-3.265c0-1.165.184-2.254.555-3.27a8.622 8.622 0 0 1 1.55-2.664 7.373 7.373 0 0 1 2.301-1.805 6.267 6.267 0 0 1 2.82-.648c1.012 0 1.958.215 2.833.648a7.205 7.205 0 0 1 2.3 1.79 8.584 8.584 0 0 1 1.543 2.663 9.63 9.63 0 0 1 .563 3.254c.219-.043.457-.054.707-.039.254.016.504.059.75.13a11.06 11.06 0 0 0-.668-3.9 10.379 10.379 0 0 0-1.875-3.238 8.827 8.827 0 0 0-2.77-2.187 7.396 7.396 0 0 0-3.375-.8 7.357 7.357 0 0 0-3.355.792 8.946 8.946 0 0 0-2.781 2.18 10.62 10.62 0 0 0-1.875 3.215 10.953 10.953 0 0 0-.68 3.882c0 1.375.227 2.668.68 3.883.449 1.2 1.09 2.285 1.886 3.207a8.998 8.998 0 0 0 2.77 2.184c1.05.527 2.168.789 3.355.789Zm.012-7.04c.477 0 .914-.128 1.313-.401.394-.274.71-.645.945-1.102.238-.465.36-.996.355-1.535 0-.55-.117-1.055-.355-1.504a2.893 2.893 0 0 0-.945-1.102 2.24 2.24 0 0 0-1.313-.41 2.276 2.276 0 0 0-1.324.41c-.39.274-.707.637-.945 1.102-.239.45-.356.953-.356 1.504 0 .562.117 1.074.356 1.535.238.457.558.828.957 1.102.394.273.832.402 1.312.402Zm10.688 8.36c1.367-.57 2.273-1.488 2.718-2.75.442-1.258.399-2.738-.129-4.441l-.433-1.41c-.207-.649-.48-1.106-.828-1.371-.34-.278-.664-.352-.965-.23-.14.066-.188.179-.145.339l.196.617c.047.156.054.274.02.367a.356.356 0 0 1-.165.196c-.2.082-.344-.028-.433-.328l-.13-.41c-.117-.376-.308-.637-.57-.782a.835.835 0 0 0-.8-.047c-.254.11-.344.29-.266.532l.273.851c.047.14.051.266.02.363a.302.302 0 0 1-.156.188c-.2.086-.344-.016-.434-.305l-.246-.793c-.133-.426-.324-.703-.582-.824a.903.903 0 0 0-.79-.023c-.25.105-.335.285-.257.53l.52 1.673a.63.63 0 0 1 .02.375.308.308 0 0 1-.165.183c-.191.082-.336-.027-.434-.324l-1.738-5.547c-.086-.273-.223-.465-.41-.57a.632.632 0 0 0-.578-.04c-.2.079-.36.25-.445.473-.086.22-.082.457.007.73l2.567 8.142c.027.101.027.183-.008.257a.214.214 0 0 1-.129.137c-.105.055-.226 0-.355-.16l-1.723-2.148a.857.857 0 0 0-.402-.31.562.562 0 0 0-.399.032.807.807 0 0 0-.453.453.918.918 0 0 0-.023.614c.039.136.101.27.195.394l2.137 3.102c.906 1.304 1.863 2.12 2.875 2.437a4.33 4.33 0 0 0 3.043-.172Zm0 0"/></svg>