<svg width="16" height="15" viewBox="0 0 16 15" fill="none" xmlns="http://www.w3.org/2000/svg">
<path d="M0.804688 13.9375C0.804688 14.125 0.861979 14.276 0.976562 14.3906C1.09115 14.5052 1.24219 14.5625 1.42969 14.5625H14.5703C14.7578 14.5625 14.9062 14.5052 15.0156 14.3906C15.1302 14.276 15.1875 14.125 15.1875 13.9375V0.796875C15.1875 0.609375 15.1302 0.460938 15.0156 0.351562C14.9062 0.236979 14.7578 0.179688 14.5703 0.179688H1.42969C1.24219 0.179688 1.09115 0.236979 0.976562 0.351562C0.861979 0.460938 0.804688 0.609375 0.804688 0.796875V13.9375ZM8.02344 9.88281C7.5599 9.88281 7.13802 9.76823 6.75781 9.53906C6.3776 9.3099 6.07292 9.00521 5.84375 8.625C5.61458 8.24479 5.5 7.82292 5.5 7.35938C5.5 6.90104 5.61458 6.48438 5.84375 6.10938C6.07292 5.72917 6.3776 5.42708 6.75781 5.20312C7.13802 4.97396 7.5599 4.85938 8.02344 4.85938C8.48177 4.85938 8.90104 4.97396 9.28125 5.20312C9.66146 5.42708 9.96354 5.72917 10.1875 6.10938C10.4167 6.48438 10.5312 6.90104 10.5312 7.35938C10.5312 7.82292 10.4167 8.24479 10.1875 8.625C9.96354 9.00521 9.66146 9.3099 9.28125 9.53906C8.90104 9.76823 8.48177 9.88281 8.02344 9.88281Z" fill="white"/>
</svg>
