<svg width="168" height="141" viewBox="0 0 168 141" fill="none" xmlns="http://www.w3.org/2000/svg">
<path d="M63.9375 127.688C68.5208 127.688 73 127.208 77.375 126.25C81.7917 125.292 85.9792 123.875 89.9375 122L83.0625 113.438C80.1458 114.604 77.0833 115.5 73.875 116.125C70.6667 116.75 67.3542 117.062 63.9375 117.062C56.5625 117.062 49.6667 115.708 43.25 113C36.8333 110.25 31.1875 106.438 26.3125 101.562C21.4792 96.6875 17.6875 91.0417 14.9375 84.625C12.2292 78.2083 10.875 71.3125 10.875 63.9375C10.875 56.5625 12.2292 49.6667 14.9375 43.25C17.6875 36.8333 21.4792 31.2083 26.3125 26.375C31.1458 21.5 36.7708 17.6875 43.1875 14.9375C49.6042 12.1875 56.5 10.8125 63.875 10.8125C71.2917 10.8125 78.2083 12.1875 84.625 14.9375C91.0417 17.6458 96.6667 21.4167 101.5 26.25C106.333 31.0833 110.104 36.7083 112.812 43.125C115.521 49.5 116.896 56.375 116.938 63.75C118.562 63.4583 120.292 63.375 122.125 63.5C124 63.5833 125.833 63.8542 127.625 64.3125C127.667 55.5625 126.042 47.3333 122.75 39.625C119.458 31.875 114.875 25.0417 109 19.125C103.167 13.2083 96.3958 8.58333 88.6875 5.25C80.9792 1.875 72.7292 0.1875 63.9375 0.1875C55.2292 0.1875 47.0208 1.85417 39.3125 5.1875C31.6042 8.52083 24.8125 13.125 18.9375 19C13.1042 24.875 8.52083 31.6667 5.1875 39.375C1.85417 47.0417 0.1875 55.2292 0.1875 63.9375C0.1875 72.6458 1.85417 80.8542 5.1875 88.5625C8.52083 96.2292 13.125 103 19 108.875C24.875 114.75 31.6458 119.354 39.3125 122.688C47.0208 126.021 55.2292 127.688 63.9375 127.688ZM64 83.125C67.5 83.125 70.7083 82.2708 73.625 80.5625C76.5417 78.8125 78.8542 76.4792 80.5625 73.5625C82.3125 70.6458 83.1875 67.4167 83.1875 63.875C83.1875 60.375 82.3125 57.1875 80.5625 54.3125C78.8542 51.3958 76.5417 49.0833 73.625 47.375C70.7083 45.625 67.5 44.75 64 44.75C60.4583 44.75 57.2292 45.625 54.3125 47.375C51.4375 49.0833 49.125 51.3958 47.375 54.3125C45.625 57.1875 44.75 60.375 44.75 63.875C44.75 67.4167 45.625 70.6458 47.375 73.5625C49.125 76.4792 51.4583 78.8125 54.375 80.5625C57.2917 82.2708 60.5 83.125 64 83.125ZM142.375 136.062C152.417 132.438 159.062 126.625 162.312 118.625C165.562 110.667 165.25 101.292 161.375 90.5L158.188 81.5625C156.688 77.4792 154.667 74.5833 152.125 72.875C149.625 71.125 147.271 70.6458 145.062 71.4375C144.021 71.8542 143.667 72.5625 144 73.5625L145.438 77.5C145.771 78.4583 145.812 79.2292 145.562 79.8125C145.312 80.3958 144.917 80.8125 144.375 81.0625C142.917 81.5625 141.854 80.875 141.188 79L140.25 76.375C139.375 74 137.979 72.3542 136.062 71.4375C134.188 70.4792 132.229 70.375 130.188 71.125C128.312 71.8333 127.667 72.9583 128.25 74.5L130.25 79.875C130.583 80.7917 130.625 81.5625 130.375 82.1875C130.167 82.7708 129.792 83.1667 129.25 83.375C127.792 83.9167 126.729 83.2708 126.062 81.4375L124.25 76.4375C123.292 73.7292 121.875 71.9792 120 71.1875C118.125 70.3958 116.188 70.3542 114.188 71.0625C112.354 71.7292 111.729 72.8542 112.312 74.4375L116.125 85C116.458 85.9583 116.5 86.75 116.25 87.375C116 87.9583 115.604 88.3542 115.062 88.5625C113.646 89.0625 112.583 88.375 111.875 86.5L99.125 51.375C98.5 49.625 97.5 48.4167 96.125 47.75C94.75 47.0833 93.3333 47 91.875 47.5C90.3333 48.0833 89.25 49.0833 88.625 50.5C88 51.875 88.0208 53.4167 88.6875 55.125L107.5 106.688C107.708 107.312 107.688 107.854 107.438 108.312C107.229 108.771 106.917 109.062 106.5 109.188C105.708 109.521 104.833 109.188 103.875 108.188L91.25 94.5625C90.2917 93.5208 89.3125 92.875 88.3125 92.625C87.3542 92.375 86.375 92.4375 85.375 92.8125C83.75 93.4375 82.6458 94.3958 82.0625 95.6875C81.4792 96.9375 81.4167 98.2292 81.875 99.5625C82.1667 100.438 82.6458 101.271 83.3125 102.062L99 121.688C105.625 129.979 112.646 135.125 120.062 137.125C127.521 139.125 134.958 138.771 142.375 136.062Z" fill="white"/>
</svg>
