<svg xmlns="http://www.w3.org/2000/svg" width="24" height="24"><path style="stroke:none;fill-rule:nonzero;fill:#fff;fill-opacity:1" d="M12 23.05c1.633 0 3.168-.292 4.605-.882a12.22 12.22 0 0 0 3.82-2.438 11.467 11.467 0 0 0 2.59-3.582c.626-1.363.938-2.808.938-4.347a10.2 10.2 0 0 0-.937-4.332 11.53 11.53 0 0 0-2.59-3.598 12.361 12.361 0 0 0-3.82-2.437A12.166 12.166 0 0 0 11.987.55c-1.633 0-3.172.293-4.617.883A12.307 12.307 0 0 0 3.562 3.87 11.523 11.523 0 0 0 .985 7.465 10.2 10.2 0 0 0 .047 11.8c0 1.539.312 2.984.937 4.347a11.467 11.467 0 0 0 2.59 3.582 12.236 12.236 0 0 0 3.809 2.438c1.445.59 2.984.883 4.617.883Zm0-1.874a10.222 10.222 0 0 1-7.055-2.734 9.548 9.548 0 0 1-2.133-2.989 8.83 8.83 0 0 1-.761-3.652c0-1.301.254-2.52.761-3.649A9.52 9.52 0 0 1 4.946 5.16 9.82 9.82 0 0 1 8.11 3.156c1.204-.488 2.496-.73 3.88-.73 1.382 0 2.675.242 3.878.73a9.701 9.701 0 0 1 3.176 2.004 9.432 9.432 0 0 1 2.145 2.992 8.685 8.685 0 0 1 .773 3.649c0 1.3-.258 2.52-.773 3.652a9.22 9.22 0 0 1-2.133 2.988A10.222 10.222 0 0 1 12 21.176Zm-.012-5.238c.813 0 1.551-.188 2.215-.563a4.39 4.39 0 0 0 1.606-1.5 3.766 3.766 0 0 0 .609-2.086c0-.75-.203-1.437-.61-2.062a4.423 4.423 0 0 0-1.605-1.512 4.365 4.365 0 0 0-2.215-.57 4.31 4.31 0 0 0-2.191.574c-.664.375-1.2.875-1.606 1.508a3.751 3.751 0 0 0-.597 2.062c0 .758.199 1.453.597 2.086a4.52 4.52 0 0 0 1.606 1.5c.66.375 1.418.57 2.191.563Zm2.11-10.348L12.48 3.672a.599.599 0 0 0-.468-.207.587.587 0 0 0-.457.207l-1.63 1.922c-.187.21-.234.43-.14.648.094.215.297.32.61.32h3.234c.297 0 .492-.109.586-.328.094-.23.055-.445-.117-.64Zm4.511 8.164 2.028-1.512a.513.513 0 0 0 .234-.43.543.543 0 0 0-.234-.44L18.609 9.84c-.226-.176-.457-.223-.691-.133-.227.086-.34.277-.34.574v3.043c0 .278.117.461.352.551.234.09.46.047.68-.121Zm-4.511 4.258c.172-.207.21-.422.117-.64-.094-.227-.29-.34-.586-.34h-3.234c-.313 0-.516.109-.61.327-.094.223-.047.438.14.653l1.63 1.906a.595.595 0 0 0 .926 0Zm-8.684-4.258c.211.168.434.21.668.121.242-.09.363-.273.363-.55V10.28c0-.297-.117-.488-.351-.574-.227-.09-.453-.043-.68.133L3.387 11.37a.533.533 0 0 0-.235.441c0 .168.078.313.235.43Zm0 0"/></svg>