<?xml version="1.0" encoding="UTF-8"?>
<svg xmlns="http://www.w3.org/2000/svg" xmlns:xlink="http://www.w3.org/1999/xlink" width="24" height="34" viewBox="0 0 24 34" version="1.1">
<g id="surface1">
<path style=" stroke:none;fill-rule:nonzero;fill:rgb(100%,100%,100%);fill-opacity:1;" d="M 12 32.53125 C 14.167969 32.53125 16.0625 32.089844 17.6875 31.203125 C 19.3125 30.328125 20.574219 29.097656 21.46875 27.515625 C 22.375 25.921875 22.828125 24.066406 22.828125 21.953125 C 22.828125 20.910156 22.714844 19.886719 22.484375 18.875 C 22.253906 17.863281 21.972656 16.910156 21.640625 16.015625 C 21.308594 15.121094 20.988281 14.328125 20.6875 13.640625 C 19.855469 11.753906 18.832031 9.816406 17.625 7.828125 C 16.425781 5.839844 15.253906 3.964844 14.109375 2.203125 C 13.839844 1.785156 13.53125 1.464844 13.1875 1.234375 C 12.855469 1.003906 12.457031 0.890625 12 0.890625 C 11.542969 0.890625 11.144531 1.003906 10.8125 1.234375 C 10.480469 1.464844 10.171875 1.785156 9.890625 2.203125 C 8.753906 3.964844 7.582031 5.839844 6.375 7.828125 C 5.167969 9.816406 4.144531 11.753906 3.3125 13.640625 C 3.011719 14.328125 2.691406 15.121094 2.359375 16.015625 C 2.027344 16.910156 1.746094 17.863281 1.515625 18.875 C 1.285156 19.886719 1.171875 20.910156 1.171875 21.953125 C 1.171875 24.066406 1.621094 25.921875 2.515625 27.515625 C 3.421875 29.097656 4.6875 30.328125 6.3125 31.203125 C 7.9375 32.089844 9.832031 32.53125 12 32.53125 Z M 12 29.96875 C 10.34375 29.96875 8.894531 29.636719 7.65625 28.96875 C 6.417969 28.300781 5.453125 27.371094 4.765625 26.171875 C 4.078125 24.964844 3.734375 23.558594 3.734375 21.953125 C 3.734375 20.671875 3.933594 19.425781 4.328125 18.21875 C 4.734375 17 5.15625 15.886719 5.59375 14.875 C 6.46875 12.824219 7.453125 10.925781 8.546875 9.1875 C 9.652344 7.4375 10.75 5.738281 11.84375 4.09375 C 11.894531 4.011719 11.953125 3.96875 12.015625 3.96875 C 12.078125 3.96875 12.128906 4.011719 12.171875 4.09375 C 13.253906 5.738281 14.347656 7.433594 15.453125 9.171875 C 16.558594 10.910156 17.535156 12.808594 18.390625 14.859375 C 18.828125 15.878906 19.25 17 19.65625 18.21875 C 20.074219 19.425781 20.28125 20.671875 20.28125 21.953125 C 20.28125 23.558594 19.933594 24.964844 19.234375 26.171875 C 18.546875 27.371094 17.582031 28.300781 16.34375 28.96875 C 15.105469 29.636719 13.65625 29.96875 12 29.96875 Z M 12 29.96875 "/>
</g>
</svg>
