<svg xmlns="http://www.w3.org/2000/svg" width="24" height="24"><path style="stroke:none;fill-rule:nonzero;fill:#fff;fill-opacity:1" d="m6.227 7.203 1.5 1.184c.433-.559.875-1.114 1.324-1.657.449-.546.898-1.085 1.347-1.617.043-.054.086-.082.125-.082.051 0 .098.028.141.082a199.194 199.194 0 0 1 2.61 3.207 22.576 22.576 0 0 1 2.363 3.59c.191.348.398.742.613 1.184.215.433.395.855.54 1.254.148.402.222.73.222.98 0 .07-.004.133-.012.184 0 .054-.008.11-.023.168l2.109 1.672c.035-.153.059-.309.078-.47a4.95 4.95 0 0 0 .023-.491c0-.657-.09-1.305-.273-1.942a12.484 12.484 0 0 0-.676-1.808 30.05 30.05 0 0 0-.761-1.5 30.656 30.656 0 0 0-2.454-3.672 120.591 120.591 0 0 0-2.812-3.551 2.638 2.638 0 0 0-.734-.613 1.955 1.955 0 0 0-.954-.215c-.375 0-.695.07-.96.215-.29.164-.536.375-.727.613-.434.52-.871 1.059-1.313 1.617-.433.55-.863 1.11-1.296 1.668Zm4.296 15.871c1.352 0 2.575-.176 3.665-.523 1.101-.348 2.027-.836 2.789-1.465l-1.489-1.16c-.574.484-1.289.86-2.136 1.125-.844.27-1.786.402-2.829.402-1.324 0-2.48-.207-3.472-.629-.969-.406-1.774-1.02-2.324-1.77-.551-.761-.829-1.648-.829-2.663 0-.79.157-1.559.465-2.309.301-.723.637-1.434 1.012-2.133l-1.563-1.234c-.5.902-.945 1.82-1.335 2.758a7.325 7.325 0 0 0-.614 2.918c0 1.336.36 2.507 1.075 3.511.71.993 1.765 1.801 3.039 2.332 1.296.559 2.816.84 4.546.84Zm8.891-16.402c.715 0 1.36-.133 1.938-.395.582-.27 1.039-.632 1.375-1.086a2.5 2.5 0 0 0 .511-1.53 2.508 2.508 0 0 0-.511-1.532c-.329-.45-.801-.824-1.375-1.082A4.49 4.49 0 0 0 19.414.64a4.56 4.56 0 0 0-1.937.406c-.57.258-1.047.633-1.375 1.086-.336.453-.5.965-.5 1.527-.008.54.164 1.067.5 1.531.34.454.796.817 1.375 1.086.59.266 1.257.403 1.937.395Zm0-1.39c-.547.007-1.078-.16-1.465-.466-.387-.304-.597-.722-.586-1.156 0-.457.196-.844.586-1.152.383-.313.914-.485 1.465-.477.582 0 1.07.16 1.461.477.398.308.602.695.602 1.152 0 .453-.204.84-.602 1.156-.39.309-.879.461-1.46.461Zm1.188 17.05c.183.145.43.223.687.219.254.004.496-.074.672-.219.187-.14.293-.336.289-.539a.653.653 0 0 0-.29-.535L2.075 5.558a1.058 1.058 0 0 0-.687-.218 1.096 1.096 0 0 0-.688.219.655.655 0 0 0-.273.543c0 .207.09.382.273.527Zm0 0"/></svg>