<svg width="18" height="16" viewBox="0 0 18 16" fill="none" xmlns="http://www.w3.org/2000/svg">
<path d="M2.94531 15.7422H15.0547C15.4974 15.7422 15.8776 15.6484 16.1953 15.4609C16.513 15.2734 16.7578 15.0182 16.9297 14.6953C17.1016 14.3776 17.1875 14.0208 17.1875 13.625C17.1875 13.4427 17.1615 13.2578 17.1094 13.0703C17.0573 12.8828 16.9818 12.7031 16.8828 12.5312L10.8203 1.96875C10.6172 1.61458 10.3516 1.34896 10.0234 1.17188C9.70052 0.989583 9.35938 0.898438 9 0.898438C8.64062 0.898438 8.29688 0.989583 7.96875 1.17188C7.64062 1.34896 7.3776 1.61458 7.17969 1.96875L1.11719 12.5312C0.914062 12.8802 0.8125 13.2448 0.8125 13.625C0.8125 14.0208 0.898438 14.3776 1.07031 14.6953C1.24219 15.0182 1.48698 15.2734 1.80469 15.4609C2.1224 15.6484 2.5026 15.7422 2.94531 15.7422ZM9.00781 12.8281C8.32552 12.8281 7.77604 12.6276 7.35938 12.2266C6.94792 11.8203 6.74219 11.2891 6.74219 10.6328C6.74219 10.3047 6.79427 10 6.89844 9.71875C7.00781 9.43229 7.11198 9.18229 7.21094 8.96875C7.39323 8.57812 7.61719 8.15885 7.88281 7.71094C8.15365 7.25781 8.41406 6.83594 8.66406 6.44531C8.75781 6.29948 8.8724 6.22656 9.00781 6.22656C9.13802 6.22656 9.25 6.29948 9.34375 6.44531C9.59375 6.83594 9.85156 7.25781 10.1172 7.71094C10.388 8.15885 10.6146 8.57812 10.7969 8.96875C10.8958 9.18229 10.9974 9.43229 11.1016 9.71875C11.2109 10 11.2656 10.3047 11.2656 10.6328C11.2656 11.2891 11.0573 11.8203 10.6406 12.2266C10.2292 12.6276 9.6849 12.8281 9.00781 12.8281Z" fill="white"/>
</svg>
