<svg width="18" height="16" viewBox="0 0 18 16" fill="none" xmlns="http://www.w3.org/2000/svg">
<path d="M2.94531 15.7422H15.0547C15.4974 15.7422 15.8776 15.6484 16.1953 15.4609C16.513 15.2734 16.7578 15.0182 16.9297 14.6953C17.1016 14.3776 17.1875 14.0208 17.1875 13.625C17.1875 13.4427 17.1615 13.2578 17.1094 13.0703C17.0573 12.8828 16.9818 12.7031 16.8828 12.5312L10.8203 1.96875C10.6172 1.61458 10.3516 1.34896 10.0234 1.17188C9.70052 0.989583 9.35938 0.898438 9 0.898438C8.64062 0.898438 8.29688 0.989583 7.96875 1.17188C7.64062 1.34896 7.3776 1.61458 7.17969 1.96875L1.11719 12.5312C0.914062 12.8802 0.8125 13.2448 0.8125 13.625C0.8125 14.0208 0.898438 14.3776 1.07031 14.6953C1.24219 15.0182 1.48698 15.2734 1.80469 15.4609C2.1224 15.6484 2.5026 15.7422 2.94531 15.7422ZM2.95312 14.5156C2.68229 14.5156 2.46875 14.4245 2.3125 14.2422C2.15625 14.0651 2.07812 13.8568 2.07812 13.6172C2.07812 13.5443 2.08594 13.4635 2.10156 13.375C2.1224 13.2865 2.15365 13.2005 2.19531 13.1172L8.25 2.5625C8.33333 2.41667 8.44271 2.3125 8.57812 2.25C8.71354 2.18229 8.85417 2.14844 9 2.14844C9.14583 2.14844 9.28385 2.18229 9.41406 2.25C9.54948 2.3125 9.65885 2.41667 9.74219 2.5625L15.7969 13.125C15.8802 13.2865 15.9219 13.4505 15.9219 13.6172C15.9219 13.8568 15.8411 14.0651 15.6797 14.2422C15.5234 14.4245 15.3099 14.5156 15.0391 14.5156H2.95312ZM9.00781 12.7266C9.66406 12.7266 10.1927 12.5312 10.5938 12.1406C11 11.75 11.2031 11.237 11.2031 10.6016C11.2031 10.2839 11.151 9.98698 11.0469 9.71094C10.9427 9.4349 10.8411 9.19271 10.7422 8.98438C10.5703 8.60417 10.3542 8.19792 10.0938 7.76562C9.83333 7.32812 9.58073 6.91927 9.33594 6.53906C9.24219 6.39844 9.13281 6.32812 9.00781 6.32812C8.88281 6.32812 8.77344 6.39844 8.67969 6.53906C8.4349 6.91927 8.18229 7.32812 7.92188 7.76562C7.66146 8.19792 7.44531 8.60417 7.27344 8.98438C7.17448 9.19271 7.07292 9.4349 6.96875 9.71094C6.86458 9.98698 6.8125 10.2839 6.8125 10.6016C6.8125 11.237 7.01302 11.75 7.41406 12.1406C7.82031 12.5312 8.35156 12.7266 9.00781 12.7266Z" fill="white"/>
</svg>
