<svg width="139" height="102" viewBox="0 0 139 102" fill="none" xmlns="http://www.w3.org/2000/svg">
<path d="M20.5625 101.625H118.75C125.292 101.625 130.188 100 133.438 96.75C136.688 93.5 138.312 88.6667 138.312 82.25V19.6875C138.312 13.2708 136.688 8.4375 133.438 5.1875C130.188 1.9375 125.292 0.3125 118.75 0.3125H20.5625C14.0208 0.3125 9.10417 1.9375 5.8125 5.1875C2.5625 8.39583 0.9375 13.2292 0.9375 19.6875V82.25C0.9375 88.7083 2.5625 93.5417 5.8125 96.75C9.10417 100 14.0208 101.625 20.5625 101.625ZM20.6875 91.5625C17.5625 91.5625 15.1667 90.7292 13.5 89.0625C11.8333 87.3958 11 84.9375 11 81.6875V20.25C11 17 11.8333 14.5417 13.5 12.875C15.1667 11.2083 17.5625 10.375 20.6875 10.375H118.562C121.646 10.375 124.021 11.2083 125.688 12.875C127.396 14.5417 128.25 17 128.25 20.25V81.6875C128.25 84.9375 127.396 87.3958 125.688 89.0625C124.021 90.7292 121.646 91.5625 118.562 91.5625H20.6875ZM46.25 78.5C51.9167 78.5 56.4792 76.8125 59.9375 73.4375C63.4375 70.0625 65.1875 65.6458 65.1875 60.1875C65.1875 57.3958 64.7292 54.8333 63.8125 52.5C62.9375 50.125 62.0833 48 61.25 46.125C59.75 42.9167 57.875 39.4167 55.625 35.625C53.4167 31.8333 51.25 28.3125 49.125 25.0625C48.3333 23.8542 47.375 23.25 46.25 23.25C45.125 23.25 44.1667 23.8542 43.375 25.0625C41.2917 28.3125 39.125 31.8333 36.875 35.625C34.625 39.4167 32.75 42.9167 31.25 46.125C30.4167 48 29.5417 50.125 28.625 52.5C27.7083 54.8333 27.25 57.3958 27.25 60.1875C27.25 65.6458 29 70.0625 32.5 73.4375C36 76.8125 40.5833 78.5 46.25 78.5ZM85.25 38.875C87.25 38.875 88.9583 38.1667 90.375 36.75C91.8333 35.2917 92.5625 33.5625 92.5625 31.5625C92.5625 29.5625 91.8333 27.8542 90.375 26.4375C88.9583 24.9792 87.25 24.25 85.25 24.25C83.2083 24.25 81.4792 24.9792 80.0625 26.4375C78.6458 27.8542 77.9375 29.5625 77.9375 31.5625C77.9375 33.5625 78.6458 35.2917 80.0625 36.75C81.4792 38.1667 83.2083 38.875 85.25 38.875ZM106.75 38.875C108.75 38.875 110.458 38.1667 111.875 36.75C113.333 35.2917 114.062 33.5625 114.062 31.5625C114.062 29.5625 113.333 27.8542 111.875 26.4375C110.458 24.9792 108.75 24.25 106.75 24.25C104.75 24.25 103.021 24.9792 101.562 26.4375C100.146 27.8542 99.4375 29.5625 99.4375 31.5625C99.4375 33.5625 100.146 35.2917 101.562 36.75C103.021 38.1667 104.75 38.875 106.75 38.875ZM85.25 58.1875C87.25 58.1875 88.9583 57.4792 90.375 56.0625C91.8333 54.6042 92.5625 52.875 92.5625 50.875C92.5625 48.875 91.8333 47.1667 90.375 45.75C88.9583 44.2917 87.25 43.5625 85.25 43.5625C83.2083 43.5625 81.4792 44.2917 80.0625 45.75C78.6458 47.1667 77.9375 48.875 77.9375 50.875C77.9375 52.875 78.6458 54.6042 80.0625 56.0625C81.4792 57.4792 83.2083 58.1875 85.25 58.1875ZM106.75 58.1875C108.75 58.1875 110.458 57.4792 111.875 56.0625C113.333 54.6042 114.062 52.875 114.062 50.875C114.062 48.875 113.333 47.1667 111.875 45.75C110.458 44.2917 108.75 43.5625 106.75 43.5625C104.75 43.5625 103.021 44.2917 101.562 45.75C100.146 47.1667 99.4375 48.875 99.4375 50.875C99.4375 52.875 100.146 54.6042 101.562 56.0625C103.021 57.4792 104.75 58.1875 106.75 58.1875ZM85.25 77.5C87.25 77.5 88.9583 76.7917 90.375 75.375C91.8333 73.9167 92.5625 72.1875 92.5625 70.1875C92.5625 68.1875 91.8333 66.4792 90.375 65.0625C88.9583 63.6042 87.25 62.875 85.25 62.875C83.2083 62.875 81.4792 63.6042 80.0625 65.0625C78.6458 66.4792 77.9375 68.1875 77.9375 70.1875C77.9375 72.1875 78.6458 73.9167 80.0625 75.375C81.4792 76.7917 83.2083 77.5 85.25 77.5ZM106.75 77.5C108.75 77.5 110.458 76.7917 111.875 75.375C113.333 73.9167 114.062 72.1875 114.062 70.1875C114.062 68.1875 113.333 66.4792 111.875 65.0625C110.458 63.6042 108.75 62.875 106.75 62.875C104.75 62.875 103.021 63.6042 101.562 65.0625C100.146 66.4792 99.4375 68.1875 99.4375 70.1875C99.4375 72.1875 100.146 73.9167 101.562 75.375C103.021 76.7917 104.75 77.5 106.75 77.5Z" fill="white"/>
</svg>
