<svg width="115" height="143" viewBox="0 0 115 143" fill="none" xmlns="http://www.w3.org/2000/svg">
<path d="M29 41.625L36.5 49.125C38.6667 45.5833 40.875 42.0833 43.125 38.625C45.375 35.1667 47.625 31.75 49.875 28.375C50.0833 28.0417 50.2917 27.875 50.5 27.875C50.75 27.875 50.9792 28.0417 51.1875 28.375C55.5208 34.9583 59.875 41.7292 64.25 48.6875C68.6667 55.6458 72.6042 63.2292 76.0625 71.4375C77.0208 73.6458 78.0417 76.1458 79.125 78.9375C80.2083 81.6875 81.1042 84.3333 81.8125 86.875C82.5625 89.4167 82.9375 91.4792 82.9375 93.0625C82.9375 93.5208 82.9167 93.9167 82.875 94.25C82.875 94.5833 82.8333 94.9375 82.75 95.3125L93.3125 105.875C93.4792 104.917 93.6042 103.938 93.6875 102.938C93.7708 101.938 93.8125 100.896 93.8125 99.8125C93.8125 95.6458 93.3542 91.5417 92.4375 87.5C91.5208 83.4583 90.3958 79.6458 89.0625 76.0625C87.7292 72.4792 86.4583 69.3125 85.25 66.5625C81.9167 59.0208 77.8333 51.2708 73 43.3125C68.2083 35.3542 63.5208 27.8542 58.9375 20.8125C57.8125 19.1458 56.5833 17.8542 55.25 16.9375C53.9167 16.0208 52.3333 15.5625 50.5 15.5625C48.625 15.5625 47.0208 16.0208 45.6875 16.9375C44.3542 17.8542 43.1458 19.1458 42.0625 20.8125C39.8958 24.1042 37.7083 27.5208 35.5 31.0625C33.3333 34.5625 31.1667 38.0833 29 41.625ZM50.5 142.125C57.25 142.125 63.3542 141.021 68.8125 138.812C74.3125 136.604 78.9583 133.521 82.75 129.562L75.3125 122.188C72.4375 125.271 68.875 127.646 64.625 129.312C60.4167 131.021 55.7083 131.875 50.5 131.875C43.875 131.875 38.0833 130.542 33.125 127.875C28.1667 125.208 24.2917 121.479 21.5 116.688C18.75 111.854 17.375 106.229 17.375 99.8125C17.375 94.8125 18.1458 89.9375 19.6875 85.1875C21.2708 80.3958 22.9583 75.8958 24.75 71.6875L16.9375 63.875C14.5208 69.375 12.2917 75.1875 10.25 81.3125C8.20833 87.3958 7.1875 93.5625 7.1875 99.8125C7.1875 108.271 8.97917 115.688 12.5625 122.062C16.1875 128.396 21.25 133.312 27.75 136.812C34.25 140.354 41.8333 142.125 50.5 142.125ZM94.9375 38.25C98.5208 38.25 101.75 37.4167 104.625 35.75C107.542 34.0417 109.833 31.75 111.5 28.875C113.208 25.9583 114.062 22.7292 114.062 19.1875C114.062 15.6042 113.208 12.375 111.5 9.5C109.833 6.58333 107.542 4.29167 104.625 2.625C101.75 0.916667 98.5208 0.0625 94.9375 0.0625C91.3958 0.0625 88.1667 0.916667 85.25 2.625C82.375 4.29167 80.0833 6.58333 78.375 9.5C76.7083 12.375 75.875 15.6042 75.875 19.1875C75.875 22.7292 76.7083 25.9583 78.375 28.875C80.0833 31.75 82.375 34.0417 85.25 35.75C88.1667 37.4167 91.3958 38.25 94.9375 38.25ZM94.9375 29.4375C92.0625 29.4375 89.625 28.4583 87.625 26.5C85.6667 24.5 84.6875 22.0625 84.6875 19.1875C84.6875 16.2708 85.6667 13.8333 87.625 11.875C89.625 9.875 92.0625 8.875 94.9375 8.875C97.8542 8.875 100.292 9.875 102.25 11.875C104.25 13.8333 105.25 16.2708 105.25 19.1875C105.25 22.0625 104.25 24.5 102.25 26.5C100.292 28.4583 97.8542 29.4375 94.9375 29.4375ZM100.875 137.438C101.833 138.354 102.979 138.812 104.312 138.812C105.646 138.812 106.771 138.354 107.688 137.438C108.646 136.479 109.125 135.333 109.125 134C109.125 132.667 108.646 131.542 107.688 130.625L8.25 31.1875C7.33333 30.2708 6.1875 29.8125 4.8125 29.8125C3.47917 29.8125 2.33333 30.2708 1.375 31.1875C0.458333 32.1042 0 33.25 0 34.625C0 35.9583 0.458333 37.0833 1.375 38L100.875 137.438Z" fill="white"/>
</svg>
