<svg width="118" height="138" viewBox="0 0 118 138" fill="none" xmlns="http://www.w3.org/2000/svg">
<path d="M15.4375 131.5H62.125C62.2083 130.583 62.4167 129.771 62.75 129.062C63.0833 128.396 63.3958 127.729 63.6875 127.062C64.0208 126.396 64.1875 125.688 64.1875 124.938C64.2292 124.438 64.125 123.896 63.875 123.312C63.6667 122.729 63.3542 122.104 62.9375 121.438H15.875C14.4167 121.438 13.2292 120.979 12.3125 120.062C11.4375 119.146 11 117.958 11 116.5V15.25C11 13.75 11.4375 12.5625 12.3125 11.6875C13.2292 10.7708 14.4167 10.3125 15.875 10.3125H94.4375C95.8958 10.3125 97.0625 10.7708 97.9375 11.6875C98.8542 12.5625 99.3125 13.75 99.3125 15.25V73.75C100.854 72.8333 102.5 72.2708 104.25 72.0625C106 71.8125 107.708 71.9375 109.375 72.4375V15.1875C109.375 10.6875 108.042 7.08333 105.375 4.375C102.75 1.625 99.2708 0.25 94.9375 0.25H15.4375C11.1042 0.25 7.60417 1.625 4.9375 4.375C2.27083 7.08333 0.9375 10.6875 0.9375 15.1875V116.562C0.9375 121.062 2.27083 124.667 4.9375 127.375C7.60417 130.125 11.1042 131.5 15.4375 131.5ZM24.5 27.0625C26.0417 27.0625 27.3333 26.5208 28.375 25.4375C29.4583 24.3542 30 23.0625 30 21.5625C30 20.0208 29.4583 18.7292 28.375 17.6875C27.3333 16.6042 26.0417 16.0625 24.5 16.0625C23 16.0625 21.7083 16.6042 20.625 17.6875C19.5417 18.7292 19 20.0208 19 21.5625C19 23.0625 19.5417 24.3542 20.625 25.4375C21.7083 26.5208 23 27.0625 24.5 27.0625ZM40.4375 27.0625C41.9792 27.0625 43.2708 26.5208 44.3125 25.4375C45.3958 24.3542 45.9375 23.0625 45.9375 21.5625C45.9375 20.0208 45.3958 18.7292 44.3125 17.6875C43.2708 16.6042 41.9792 16.0625 40.4375 16.0625C38.9375 16.0625 37.6458 16.6042 36.5625 17.6875C35.5208 18.7292 35 20.0208 35 21.5625C35 23.0625 35.5208 24.3542 36.5625 25.4375C37.6458 26.5208 38.9375 27.0625 40.4375 27.0625ZM73.125 24.6875H88.0625C88.9792 24.6875 89.7292 24.3958 90.3125 23.8125C90.8958 23.2292 91.1875 22.4792 91.1875 21.5625C91.1875 20.6042 90.8958 19.8333 90.3125 19.25C89.7292 18.6667 88.9792 18.375 88.0625 18.375H73.125C72.2083 18.375 71.4583 18.6667 70.875 19.25C70.2917 19.8333 70 20.6042 70 21.5625C70 22.4792 70.2917 23.2292 70.875 23.8125C71.4583 24.3958 72.2083 24.6875 73.125 24.6875ZM6.4375 41H103.812V32.8125H6.4375V41ZM30.9375 110.688H58C57.5833 109.688 57.1875 108.625 56.8125 107.5C56.4792 106.333 56.1667 105.083 55.875 103.75H32.0625C30.3958 103.75 29.5625 102.896 29.5625 101.188V61.25C29.5625 59.5417 30.3958 58.6875 32.0625 58.6875H78.25C79.9167 58.6875 80.75 59.5417 80.75 61.25V73.875C81.8333 73.2083 82.9583 72.7292 84.125 72.4375C85.2917 72.1042 86.5 71.9583 87.75 72V60.125C87.75 57.625 86.9583 55.6042 85.375 54.0625C83.8333 52.5208 81.8333 51.75 79.375 51.75H30.9375C28.4792 51.75 26.4792 52.5208 24.9375 54.0625C23.3958 55.6042 22.625 57.625 22.625 60.125V102.312C22.625 104.812 23.3958 106.833 24.9375 108.375C26.4792 109.917 28.4792 110.688 30.9375 110.688ZM72.25 136.625C73.1667 137.25 74.2708 137.479 75.5625 137.312C76.8542 137.188 77.9167 136.438 78.75 135.062C80.6667 131.562 81.625 127.917 81.625 124.125C81.625 120.708 81.1042 117.667 80.0625 115C79.0208 112.333 77.8125 109.875 76.4375 107.625C75.0625 105.333 73.8333 103.083 72.75 100.875C71.7083 98.625 71.1875 96.25 71.1875 93.75C71.1875 92.4583 71.3333 91.3125 71.625 90.3125C71.9167 89.2708 72.4583 88.0833 73.25 86.75C73.875 85.6667 74 84.6042 73.625 83.5625C73.2917 82.4792 72.6875 81.6875 71.8125 81.1875C70.9375 80.5625 69.8542 80.3542 68.5625 80.5625C67.3125 80.7292 66.3125 81.4792 65.5625 82.8125C64.5625 84.4375 63.8125 86.1875 63.3125 88.0625C62.8542 89.9375 62.625 91.8333 62.625 93.75C62.625 97.0833 63.1458 100.083 64.1875 102.75C65.2292 105.375 66.4375 107.833 67.8125 110.125C69.1875 112.375 70.3958 114.625 71.4375 116.875C72.4792 119.125 73 121.542 73 124.125C73 125.417 72.8542 126.562 72.5625 127.562C72.3125 128.562 71.7917 129.729 71 131.062C70.375 132.188 70.25 133.271 70.625 134.312C71 135.354 71.5417 136.125 72.25 136.625ZM90.375 136.562C91.375 137.229 92.5 137.458 93.75 137.25C95.0417 137.083 96.0625 136.333 96.8125 135C98.7708 131.542 99.75 127.917 99.75 124.125C99.75 120.708 99.2292 117.667 98.1875 115C97.1458 112.333 95.9375 109.854 94.5625 107.562C93.1875 105.271 91.9583 103.021 90.875 100.812C89.8333 98.5625 89.3125 96.1875 89.3125 93.6875C89.3125 92.4375 89.4583 91.2917 89.75 90.25C90.0417 89.2083 90.5625 88.0208 91.3125 86.6875C91.9792 85.6042 92.125 84.5417 91.75 83.5C91.375 82.4167 90.75 81.6458 89.875 81.1875C89 80.5625 87.9167 80.3542 86.625 80.5625C85.375 80.7292 84.375 81.4583 83.625 82.75C82.6667 84.4167 81.9375 86.1875 81.4375 88.0625C80.9792 89.8958 80.75 91.7708 80.75 93.6875C80.75 97.0625 81.2708 100.062 82.3125 102.688C83.3958 105.312 84.6042 107.771 85.9375 110.062C87.3125 112.354 88.5208 114.625 89.5625 116.875C90.6042 119.125 91.125 121.542 91.125 124.125C91.125 125.375 90.9792 126.5 90.6875 127.5C90.4375 128.5 89.9375 129.667 89.1875 131C88.5208 132.167 88.3542 133.25 88.6875 134.25C89.0625 135.292 89.625 136.062 90.375 136.562ZM108.5 136.5C109.5 137.167 110.625 137.396 111.875 137.188C113.167 137.021 114.188 136.271 114.938 134.938C116.896 131.479 117.875 127.854 117.875 124.062C117.875 120.646 117.354 117.604 116.312 114.938C115.271 112.271 114.062 109.792 112.688 107.5C111.312 105.208 110.083 102.958 109 100.75C107.958 98.5 107.438 96.125 107.438 93.625C107.438 92.375 107.583 91.2292 107.875 90.1875C108.167 89.1458 108.688 87.9583 109.438 86.625C110.104 85.5417 110.25 84.4792 109.875 83.4375C109.5 82.3542 108.875 81.5833 108 81.125C107.125 80.5 106.042 80.2917 104.75 80.5C103.5 80.6667 102.5 81.3958 101.75 82.6875C100.792 84.3542 100.062 86.125 99.5625 88C99.1042 89.8333 98.875 91.7083 98.875 93.625C98.875 97 99.3958 100 100.438 102.625C101.479 105.25 102.688 107.708 104.062 110C105.438 112.292 106.646 114.562 107.688 116.812C108.729 119.062 109.25 121.479 109.25 124.062C109.25 125.312 109.104 126.438 108.812 127.438C108.562 128.438 108.042 129.604 107.25 130.938C106.625 132.104 106.479 133.188 106.812 134.188C107.188 135.229 107.75 136 108.5 136.5Z" fill="white"/>
</svg>
