<?xml version="1.0" encoding="UTF-8"?>
<svg xmlns="http://www.w3.org/2000/svg" xmlns:xlink="http://www.w3.org/1999/xlink" width="24" height="28.8" viewBox="0 0 24 28.8" version="1.1">
<g id="surface1">
<path style=" stroke:none;fill-rule:nonzero;fill:rgb(100%,100%,100%);fill-opacity:1;" d="M 0.351562 6.550781 L 22.039062 6.550781 L 22.039062 3.238281 C 22.039062 2.335938 21.769531 1.617188 21.238281 1.074219 C 20.710938 0.523438 20.015625 0.25 19.148438 0.25 L 3.25 0.25 C 2.382812 0.25 1.683594 0.523438 1.148438 1.074219 C 0.617188 1.617188 0.351562 2.335938 0.351562 3.238281 Z M 4.875 5.25 C 4.558594 5.25 4.289062 5.136719 4.0625 4.914062 C 3.847656 4.6875 3.738281 4.421875 3.738281 4.113281 C 3.738281 3.796875 3.847656 3.527344 4.0625 3.3125 C 4.289062 3.085938 4.558594 2.976562 4.875 2.976562 C 5.183594 2.976562 5.445312 3.085938 5.664062 3.3125 C 5.886719 3.527344 6 3.796875 6 4.113281 C 6 4.421875 5.886719 4.6875 5.664062 4.914062 C 5.445312 5.136719 5.183594 5.25 4.875 5.25 Z M 8.164062 5.25 C 7.847656 5.25 7.578125 5.136719 7.363281 4.914062 C 7.144531 4.6875 7.039062 4.421875 7.039062 4.113281 C 7.039062 3.796875 7.144531 3.527344 7.363281 3.3125 C 7.578125 3.085938 7.847656 2.976562 8.164062 2.976562 C 8.472656 2.976562 8.734375 3.085938 8.949219 3.3125 C 9.175781 3.527344 9.289062 3.796875 9.289062 4.113281 C 9.289062 4.421875 9.175781 4.6875 8.949219 4.914062 C 8.734375 5.136719 8.472656 5.25 8.164062 5.25 Z M 14.898438 4.761719 C 14.707031 4.761719 14.554688 4.703125 14.4375 4.585938 C 14.320312 4.460938 14.261719 4.304688 14.261719 4.113281 C 14.261719 3.921875 14.320312 3.761719 14.4375 3.636719 C 14.554688 3.511719 14.707031 3.449219 14.898438 3.449219 L 17.976562 3.449219 C 18.175781 3.449219 18.332031 3.511719 18.449219 3.636719 C 18.566406 3.761719 18.625 3.921875 18.625 4.113281 C 18.625 4.304688 18.566406 4.460938 18.449219 4.585938 C 18.332031 4.703125 18.175781 4.761719 17.976562 4.761719 Z M 14.613281 27.523438 C 14.796875 27.648438 15.015625 27.695312 15.273438 27.664062 C 15.535156 27.636719 15.746094 27.488281 15.914062 27.210938 C 16.296875 26.511719 16.488281 25.785156 16.488281 25.023438 C 16.488281 24.339844 16.382812 23.734375 16.175781 23.199219 C 15.964844 22.667969 15.726562 22.175781 15.449219 21.726562 C 15.175781 21.265625 14.929688 20.816406 14.710938 20.375 C 14.503906 19.925781 14.398438 19.449219 14.398438 18.949219 C 14.398438 18.691406 14.429688 18.460938 14.488281 18.261719 C 14.546875 18.054688 14.652344 17.816406 14.8125 17.550781 C 14.9375 17.332031 14.960938 17.121094 14.886719 16.914062 C 14.8125 16.695312 14.691406 16.539062 14.523438 16.4375 C 14.339844 16.320312 14.125 16.277344 13.875 16.3125 C 13.625 16.347656 13.425781 16.496094 13.273438 16.761719 C 13.074219 17.085938 12.925781 17.4375 12.824219 17.8125 C 12.734375 18.1875 12.6875 18.566406 12.6875 18.949219 C 12.6875 19.617188 12.792969 20.214844 13 20.75 C 13.207031 21.273438 13.449219 21.765625 13.726562 22.226562 C 14 22.675781 14.242188 23.125 14.449219 23.574219 C 14.660156 24.023438 14.761719 24.507812 14.761719 25.023438 C 14.761719 25.285156 14.734375 25.511719 14.675781 25.710938 C 14.625 25.914062 14.519531 26.144531 14.363281 26.414062 C 14.238281 26.636719 14.210938 26.855469 14.289062 27.0625 C 14.363281 27.269531 14.472656 27.425781 14.613281 27.523438 Z M 18.238281 27.511719 C 18.4375 27.644531 18.664062 27.691406 18.914062 27.648438 C 19.171875 27.617188 19.375 27.464844 19.523438 27.199219 C 19.917969 26.507812 20.113281 25.785156 20.113281 25.023438 C 20.113281 24.339844 20.007812 23.734375 19.800781 23.199219 C 19.589844 22.667969 19.351562 22.171875 19.074219 21.710938 C 18.800781 21.253906 18.554688 20.804688 18.335938 20.363281 C 18.128906 19.914062 18.023438 19.4375 18.023438 18.9375 C 18.023438 18.6875 18.054688 18.457031 18.113281 18.25 C 18.171875 18.042969 18.273438 17.804688 18.425781 17.539062 C 18.558594 17.320312 18.585938 17.109375 18.511719 16.898438 C 18.4375 16.691406 18.3125 16.539062 18.136719 16.4375 C 17.953125 16.328125 17.738281 16.292969 17.488281 16.324219 C 17.238281 16.351562 17.039062 16.492188 16.886719 16.75 C 16.695312 17.082031 16.550781 17.4375 16.449219 17.8125 C 16.359375 18.179688 16.3125 18.554688 16.3125 18.9375 C 16.3125 19.613281 16.417969 20.210938 16.625 20.738281 C 16.839844 21.261719 17.082031 21.753906 17.351562 22.210938 C 17.625 22.671875 17.867188 23.125 18.074219 23.574219 C 18.285156 24.023438 18.386719 24.507812 18.386719 25.023438 C 18.386719 25.273438 18.359375 25.5 18.300781 25.699219 C 18.25 25.898438 18.148438 26.132812 18 26.398438 C 17.867188 26.632812 17.832031 26.851562 17.898438 27.050781 C 17.976562 27.257812 18.085938 27.414062 18.238281 27.511719 Z M 21.863281 27.5 C 22.0625 27.632812 22.289062 27.679688 22.539062 27.636719 C 22.796875 27.605469 23 27.453125 23.148438 27.1875 C 23.542969 26.496094 23.738281 25.769531 23.738281 25.011719 C 23.738281 24.328125 23.632812 23.722656 23.425781 23.1875 C 23.214844 22.652344 22.976562 22.160156 22.699219 21.699219 C 22.425781 21.242188 22.179688 20.792969 21.960938 20.351562 C 21.753906 19.898438 21.648438 19.425781 21.648438 18.925781 C 21.648438 18.675781 21.679688 18.445312 21.738281 18.238281 C 21.796875 18.027344 21.898438 17.792969 22.050781 17.523438 C 22.183594 17.308594 22.207031 17.097656 22.125 16.886719 C 22.050781 16.679688 21.929688 16.523438 21.761719 16.425781 C 21.578125 16.316406 21.363281 16.277344 21.113281 16.3125 C 20.863281 16.335938 20.664062 16.480469 20.511719 16.738281 C 20.320312 17.070312 20.175781 17.425781 20.074219 17.800781 C 19.984375 18.167969 19.9375 18.542969 19.9375 18.925781 C 19.9375 19.601562 20.042969 20.199219 20.25 20.726562 C 20.457031 21.25 20.699219 21.742188 20.976562 22.199219 C 21.25 22.660156 21.492188 23.113281 21.699219 23.5625 C 21.910156 24.011719 22.011719 24.496094 22.011719 25.011719 C 22.011719 25.261719 21.984375 25.488281 21.925781 25.6875 C 21.875 25.886719 21.769531 26.121094 21.613281 26.386719 C 21.488281 26.621094 21.457031 26.835938 21.523438 27.039062 C 21.601562 27.246094 21.710938 27.398438 21.863281 27.5 Z M 6.574219 21.449219 L 11.363281 21.449219 C 11.238281 21.101562 11.128906 20.722656 11.039062 20.3125 C 10.953125 19.902344 10.914062 19.449219 10.914062 18.949219 C 10.914062 18.273438 11.023438 17.597656 11.25 16.914062 C 11.476562 16.230469 11.816406 15.660156 12.273438 15.199219 C 12.742188 14.742188 13.332031 14.511719 14.050781 14.511719 C 14.476562 14.511719 14.847656 14.601562 15.164062 14.773438 C 15.480469 14.941406 15.710938 15.121094 15.863281 15.3125 C 15.921875 15.230469 15.988281 15.148438 16.0625 15.074219 C 16.136719 15 16.222656 14.941406 16.3125 14.898438 L 16.3125 12.949219 C 16.3125 12.609375 16.144531 12.4375 15.8125 12.4375 L 6.574219 12.4375 C 6.242188 12.4375 6.074219 12.609375 6.074219 12.949219 L 6.074219 20.9375 C 6.074219 21.277344 6.242188 21.449219 6.574219 21.449219 Z M 3.25 26.5 L 12.511719 26.5 C 12.570312 26.265625 12.664062 26.039062 12.789062 25.8125 C 12.921875 25.585938 12.988281 25.324219 12.988281 25.023438 C 12.988281 24.757812 12.871094 24.453125 12.636719 24.113281 C 12.402344 23.777344 12.160156 23.355469 11.898438 22.835938 L 6.351562 22.835938 C 5.859375 22.835938 5.457031 22.683594 5.148438 22.375 C 4.839844 22.066406 4.6875 21.664062 4.6875 21.164062 L 4.6875 12.726562 C 4.6875 12.226562 4.839844 11.820312 5.148438 11.511719 C 5.457031 11.203125 5.859375 11.050781 6.351562 11.050781 L 16.039062 11.050781 C 16.527344 11.050781 16.929688 11.203125 17.238281 11.511719 C 17.554688 11.820312 17.710938 12.226562 17.710938 12.726562 L 17.710938 14.523438 C 18.097656 14.535156 18.421875 14.609375 18.6875 14.75 C 18.960938 14.882812 19.222656 15.066406 19.460938 15.300781 C 19.6875 15.082031 19.9375 14.910156 20.210938 14.773438 C 20.496094 14.632812 20.792969 14.546875 21.101562 14.511719 C 21.410156 14.480469 21.722656 14.511719 22.039062 14.613281 L 22.039062 8.25 L 0.351562 8.25 L 0.351562 23.511719 C 0.351562 24.414062 0.617188 25.132812 1.148438 25.675781 C 1.683594 26.226562 2.382812 26.5 3.25 26.5 Z M 3.25 26.5 "/>
</g>
</svg>
