<svg width="118" height="138" viewBox="0 0 118 138" fill="none" xmlns="http://www.w3.org/2000/svg">
<path d="M0.9375 31.75H109.375V15.1875C109.375 10.6875 108.042 7.08333 105.375 4.375C102.75 1.625 99.2708 0.25 94.9375 0.25H15.4375C11.1042 0.25 7.60417 1.625 4.9375 4.375C2.27083 7.08333 0.9375 10.6875 0.9375 15.1875V31.75ZM23.5625 25.25C21.9792 25.25 20.625 24.6875 19.5 23.5625C18.4167 22.4375 17.875 21.1042 17.875 19.5625C17.875 17.9792 18.4167 16.6458 19.5 15.5625C20.625 14.4375 21.9792 13.875 23.5625 13.875C25.1042 13.875 26.4167 14.4375 27.5 15.5625C28.625 16.6458 29.1875 17.9792 29.1875 19.5625C29.1875 21.1042 28.625 22.4375 27.5 23.5625C26.4167 24.6875 25.1042 25.25 23.5625 25.25ZM40 25.25C38.4167 25.25 37.0833 24.6875 36 23.5625C34.9167 22.4375 34.375 21.1042 34.375 19.5625C34.375 17.9792 34.9167 16.6458 36 15.5625C37.0833 14.4375 38.4167 13.875 40 13.875C41.5417 13.875 42.8542 14.4375 43.9375 15.5625C45.0625 16.6458 45.625 17.9792 45.625 19.5625C45.625 21.1042 45.0625 22.4375 43.9375 23.5625C42.8542 24.6875 41.5417 25.25 40 25.25ZM73.6875 22.8125C72.7292 22.8125 71.9583 22.5208 71.375 21.9375C70.7917 21.3125 70.5 20.5208 70.5 19.5625C70.5 18.6042 70.7917 17.8125 71.375 17.1875C71.9583 16.5625 72.7292 16.25 73.6875 16.25H89.0625C90.0625 16.25 90.8542 16.5625 91.4375 17.1875C92.0208 17.8125 92.3125 18.6042 92.3125 19.5625C92.3125 20.5208 92.0208 21.3125 91.4375 21.9375C90.8542 22.5208 90.0625 22.8125 89.0625 22.8125H73.6875ZM72.25 136.625C73.1667 137.25 74.2708 137.479 75.5625 137.312C76.8542 137.188 77.9167 136.438 78.75 135.062C80.6667 131.562 81.625 127.917 81.625 124.125C81.625 120.708 81.1042 117.667 80.0625 115C79.0208 112.333 77.8125 109.875 76.4375 107.625C75.0625 105.333 73.8333 103.083 72.75 100.875C71.7083 98.625 71.1875 96.25 71.1875 93.75C71.1875 92.4583 71.3333 91.3125 71.625 90.3125C71.9167 89.2708 72.4583 88.0833 73.25 86.75C73.875 85.6667 74 84.6042 73.625 83.5625C73.25 82.4792 72.6458 81.6875 71.8125 81.1875C70.8958 80.6042 69.8125 80.3958 68.5625 80.5625C67.3125 80.7292 66.3125 81.4792 65.5625 82.8125C64.5625 84.4375 63.8125 86.1875 63.3125 88.0625C62.8542 89.9375 62.625 91.8333 62.625 93.75C62.625 97.0833 63.1458 100.083 64.1875 102.75C65.2292 105.375 66.4375 107.833 67.8125 110.125C69.1875 112.375 70.3958 114.625 71.4375 116.875C72.4792 119.125 73 121.542 73 124.125C73 125.417 72.8542 126.562 72.5625 127.562C72.3125 128.562 71.7917 129.729 71 131.062C70.375 132.188 70.25 133.271 70.625 134.312C71 135.354 71.5417 136.125 72.25 136.625ZM90.375 136.562C91.375 137.229 92.5 137.458 93.75 137.25C95.0417 137.083 96.0625 136.333 96.8125 135C98.7708 131.542 99.75 127.917 99.75 124.125C99.75 120.708 99.2292 117.667 98.1875 115C97.1458 112.333 95.9375 109.854 94.5625 107.562C93.1875 105.271 91.9583 103.021 90.875 100.812C89.8333 98.5625 89.3125 96.1875 89.3125 93.6875C89.3125 92.4375 89.4583 91.2917 89.75 90.25C90.0417 89.2083 90.5625 88.0208 91.3125 86.6875C91.9792 85.6042 92.125 84.5417 91.75 83.5C91.375 82.4583 90.75 81.6875 89.875 81.1875C88.9583 80.6458 87.875 80.4583 86.625 80.625C85.375 80.75 84.375 81.4583 83.625 82.75C82.6667 84.4167 81.9375 86.1875 81.4375 88.0625C80.9792 89.8958 80.75 91.7708 80.75 93.6875C80.75 97.0625 81.2708 100.062 82.3125 102.688C83.3958 105.312 84.6042 107.771 85.9375 110.062C87.3125 112.354 88.5208 114.625 89.5625 116.875C90.6042 119.125 91.125 121.542 91.125 124.125C91.125 125.375 90.9792 126.5 90.6875 127.5C90.4375 128.5 89.9375 129.667 89.1875 131C88.5208 132.167 88.3542 133.25 88.6875 134.25C89.0625 135.292 89.625 136.062 90.375 136.562ZM108.5 136.5C109.5 137.167 110.625 137.396 111.875 137.188C113.167 137.021 114.188 136.271 114.938 134.938C116.896 131.479 117.875 127.854 117.875 124.062C117.875 120.646 117.354 117.604 116.312 114.938C115.271 112.271 114.062 109.792 112.688 107.5C111.312 105.208 110.083 102.958 109 100.75C107.958 98.5 107.438 96.125 107.438 93.625C107.438 92.375 107.583 91.2292 107.875 90.1875C108.167 89.1458 108.688 87.9583 109.438 86.625C110.104 85.5417 110.229 84.4792 109.812 83.4375C109.438 82.3958 108.833 81.625 108 81.125C107.083 80.5833 106 80.3958 104.75 80.5625C103.5 80.6875 102.5 81.3958 101.75 82.6875C100.792 84.3542 100.062 86.125 99.5625 88C99.1042 89.8333 98.875 91.7083 98.875 93.625C98.875 97 99.3958 100 100.438 102.625C101.479 105.25 102.688 107.708 104.062 110C105.438 112.292 106.646 114.562 107.688 116.812C108.729 119.062 109.25 121.479 109.25 124.062C109.25 125.312 109.104 126.438 108.812 127.438C108.562 128.438 108.042 129.604 107.25 130.938C106.625 132.104 106.479 133.188 106.812 134.188C107.188 135.229 107.75 136 108.5 136.5ZM32.0625 106.25H56C55.375 104.5 54.8333 102.604 54.375 100.562C53.9583 98.5208 53.75 96.25 53.75 93.75C53.75 90.375 54.3125 86.9792 55.4375 83.5625C56.5625 80.1458 58.2708 77.2917 60.5625 75C62.8958 72.7083 65.8542 71.5625 69.4375 71.5625C71.5625 71.5625 73.4167 72 75 72.875C76.5833 73.7083 77.75 74.6042 78.5 75.5625C78.7917 75.1458 79.125 74.75 79.5 74.375C79.875 74 80.2917 73.7083 80.75 73.5V63.75C80.75 62.0417 79.9167 61.1875 78.25 61.1875H32.0625C30.3958 61.1875 29.5625 62.0417 29.5625 63.75V103.688C29.5625 105.396 30.3958 106.25 32.0625 106.25ZM15.4375 131.5H61.75C62.0417 130.333 62.5 129.188 63.125 128.062C63.7917 126.938 64.125 125.625 64.125 124.125C64.125 122.792 63.5417 121.271 62.375 119.562C61.2083 117.896 59.9792 115.771 58.6875 113.188H30.9375C28.4792 113.188 26.4792 112.417 24.9375 110.875C23.3958 109.333 22.625 107.312 22.625 104.812V62.625C22.625 60.125 23.3958 58.1042 24.9375 56.5625C26.4792 55.0208 28.4792 54.25 30.9375 54.25H79.375C81.8333 54.25 83.8333 55.0208 85.375 56.5625C86.9583 58.1042 87.75 60.125 87.75 62.625V71.625C89.6667 71.6667 91.2917 72.0417 92.625 72.75C94 73.4167 95.2917 74.3333 96.5 75.5C97.625 74.4167 98.875 73.5417 100.25 72.875C101.667 72.1667 103.146 71.7292 104.688 71.5625C106.229 71.3958 107.792 71.5625 109.375 72.0625V40.25H0.9375V116.562C0.9375 121.062 2.27083 124.667 4.9375 127.375C7.60417 130.125 11.1042 131.5 15.4375 131.5Z" fill="white"/>
</svg>
