<svg xmlns="http://www.w3.org/2000/svg" width="24" height="24"><path style="stroke:none;fill-rule:nonzero;fill:#fff;fill-opacity:1" d="M1.473 19.227c.379 0 .699-.2.957-.59.254-.399.382-.88.382-1.442V6.285c0-.574-.128-1.058-.382-1.453-.25-.398-.598-.617-.957-.605-.375 0-.692.203-.95.605-.253.395-.382.879-.382 1.453v10.91c-.004.543.132 1.067.386 1.45.25.382.594.593.946.582Zm4.453 3.187c.625 0 1.133-.285 1.527-.863.395-.578.59-1.324.59-2.235V4.184c0-.926-.195-1.672-.59-2.25-.394-.575-.902-.864-1.527-.864-.621 0-1.125.29-1.52.864-.394.578-.59 1.324-.59 2.246v15.136c0 .91.196 1.657.59 2.235.395.578.899.863 1.52.863Zm3.207-7.89h5.82V8.956h-5.82Zm9.027 7.894c.625 0 1.133-.29 1.527-.867.395-.578.59-1.324.59-2.235V4.184c0-.926-.195-1.672-.59-2.25-.394-.575-.902-.864-1.527-.864-.62 0-1.125.29-1.52.864-.394.578-.59 1.324-.59 2.246v15.136c0 .91.196 1.657.59 2.235.395.578.9.863 1.52.863Zm4.36-3.191c.375 0 .69-.2.945-.59.262-.399.394-.88.394-1.442V6.285c0-.574-.132-1.058-.394-1.453-.246-.398-.59-.617-.945-.605-.375 0-.692.203-.95.605-.254.395-.383.879-.383 1.453v10.91c0 .563.13 1.043.383 1.442.258.39.575.59.95.59Zm0 0"/></svg>