<svg width="20" height="13" viewBox="0 0 20 13" fill="none" xmlns="http://www.w3.org/2000/svg">
<path d="M1.22656 10.4141C1.54427 10.4141 1.8099 10.3073 2.02344 10.0938C2.23698 9.88021 2.34375 9.61979 2.34375 9.3125V3.40625C2.34375 3.09375 2.23698 2.83073 2.02344 2.61719C1.8099 2.39844 1.54427 2.28906 1.22656 2.28906C0.914062 2.28906 0.651042 2.39844 0.4375 2.61719C0.223958 2.83073 0.117188 3.09375 0.117188 3.40625V9.3125C0.117188 9.61979 0.223958 9.88021 0.4375 10.0938C0.651042 10.3073 0.914062 10.4141 1.22656 10.4141ZM4.9375 12.1406C5.45833 12.1406 5.88281 11.9844 6.21094 11.6719C6.53906 11.3594 6.70312 10.9557 6.70312 10.4609V2.26562C6.70312 1.76562 6.53906 1.35938 6.21094 1.04688C5.88281 0.734375 5.45833 0.578125 4.9375 0.578125C4.42188 0.578125 4 0.734375 3.67188 1.04688C3.34375 1.35938 3.17969 1.76562 3.17969 2.26562V10.4609C3.17969 10.9557 3.34375 11.3594 3.67188 11.6719C4 11.9844 4.42188 12.1406 4.9375 12.1406ZM7.60938 7.86719H12.4609V4.85156H7.60938V7.86719ZM15.1328 12.1406C15.6536 12.1406 16.0781 11.9844 16.4062 11.6719C16.7344 11.3594 16.8984 10.9557 16.8984 10.4609V2.26562C16.8984 1.76562 16.7344 1.35938 16.4062 1.04688C16.0781 0.734375 15.6536 0.578125 15.1328 0.578125C14.6172 0.578125 14.1953 0.734375 13.8672 1.04688C13.5391 1.35938 13.375 1.76562 13.375 2.26562V10.4609C13.375 10.9557 13.5391 11.3594 13.8672 11.6719C14.1953 11.9844 14.6172 12.1406 15.1328 12.1406ZM18.7656 10.4141C19.0781 10.4141 19.3411 10.3073 19.5547 10.0938C19.7734 9.88021 19.8828 9.61979 19.8828 9.3125V3.40625C19.8828 3.09375 19.7734 2.83073 19.5547 2.61719C19.3411 2.39844 19.0781 2.28906 18.7656 2.28906C18.4531 2.28906 18.1901 2.39844 17.9766 2.61719C17.763 2.83073 17.6562 3.09375 17.6562 3.40625V9.3125C17.6562 9.61979 17.763 9.88021 17.9766 10.0938C18.1901 10.3073 18.4531 10.4141 18.7656 10.4141Z" fill="white"/>
</svg>
