<?xml version="1.0" encoding="UTF-8"?>
<svg xmlns="http://www.w3.org/2000/svg" xmlns:xlink="http://www.w3.org/1999/xlink" width="24" height="22.5" viewBox="0 0 24 22.5" version="1.1">
<g id="surface1">
<path style=" stroke:none;fill-rule:nonzero;fill:rgb(100%,100%,100%);fill-opacity:1;" d="M 4.886719 21.84375 L 19.101562 21.84375 C 20.328125 21.84375 21.246094 21.539062 21.855469 20.929688 C 22.472656 20.328125 22.78125 19.421875 22.78125 18.210938 L 22.78125 3.902344 C 22.78125 2.691406 22.472656 1.785156 21.855469 1.183594 C 21.246094 0.574219 20.328125 0.269531 19.101562 0.269531 L 4.886719 0.269531 C 3.660156 0.269531 2.738281 0.574219 2.121094 1.183594 C 1.511719 1.785156 1.207031 2.691406 1.207031 3.902344 L 1.207031 18.210938 C 1.207031 19.421875 1.511719 20.328125 2.121094 20.929688 C 2.738281 21.539062 3.660156 21.84375 4.886719 21.84375 Z M 4.910156 19.957031 C 4.324219 19.957031 3.875 19.804688 3.5625 19.5 C 3.25 19.1875 3.09375 18.726562 3.09375 18.117188 L 3.09375 3.996094 C 3.09375 3.386719 3.25 2.929688 3.5625 2.625 C 3.875 2.3125 4.324219 2.15625 4.910156 2.15625 L 19.078125 2.15625 C 19.65625 2.15625 20.101562 2.3125 20.414062 2.625 C 20.734375 2.929688 20.894531 3.386719 20.894531 3.996094 L 20.894531 18.117188 C 20.894531 18.726562 20.734375 19.1875 20.414062 19.5 C 20.101562 19.804688 19.65625 19.957031 19.078125 19.957031 Z M 9.304688 16.265625 L 14.847656 16.265625 C 15.074219 16.265625 15.261719 16.199219 15.410156 16.066406 C 15.558594 15.925781 15.632812 15.738281 15.632812 15.503906 C 15.632812 15.261719 15.558594 15.074219 15.410156 14.941406 C 15.261719 14.800781 15.074219 14.730469 14.847656 14.730469 L 10.253906 14.730469 L 10.253906 11.578125 L 14.542969 11.578125 C 14.769531 11.578125 14.957031 11.515625 15.105469 11.390625 C 15.253906 11.265625 15.328125 11.089844 15.328125 10.863281 C 15.328125 10.621094 15.253906 10.4375 15.105469 10.3125 C 14.957031 10.179688 14.769531 10.113281 14.542969 10.113281 L 10.253906 10.113281 L 10.253906 7.125 L 14.847656 7.125 C 15.074219 7.125 15.261719 7.054688 15.410156 6.914062 C 15.558594 6.773438 15.632812 6.585938 15.632812 6.351562 C 15.632812 6.117188 15.558594 5.933594 15.410156 5.800781 C 15.261719 5.660156 15.074219 5.589844 14.847656 5.589844 L 9.304688 5.589844 C 9.007812 5.589844 8.78125 5.6875 8.625 5.882812 C 8.46875 6.078125 8.390625 6.332031 8.390625 6.644531 L 8.390625 15.210938 C 8.390625 15.53125 8.46875 15.789062 8.625 15.984375 C 8.78125 16.171875 9.007812 16.265625 9.304688 16.265625 Z M 9.304688 16.265625 "/>
</g>
</svg>
