<svg width="116" height="116" viewBox="0 0 116 116" fill="none" xmlns="http://www.w3.org/2000/svg">
<path d="M20.5625 115.5H96.375C102.917 115.5 107.812 113.875 111.062 110.625C114.354 107.417 116 102.583 116 96.125V19.8125C116 13.3542 114.354 8.52083 111.062 5.3125C107.812 2.0625 102.917 0.4375 96.375 0.4375H20.5625C14.0208 0.4375 9.10417 2.0625 5.8125 5.3125C2.5625 8.52083 0.9375 13.3542 0.9375 19.8125V96.125C0.9375 102.583 2.5625 107.417 5.8125 110.625C9.10417 113.875 14.0208 115.5 20.5625 115.5ZM43.6875 86.625C42.0208 86.625 40.75 86.1042 39.875 85.0625C39.0417 83.9792 38.625 82.5625 38.625 80.8125V33.75C38.625 32 39.0417 30.6042 39.875 29.5625C40.75 28.4792 42.0208 27.9375 43.6875 27.9375H74.1875C75.4375 27.9375 76.4583 28.3125 77.25 29.0625C78.0833 29.7708 78.5 30.7917 78.5 32.125C78.5 33.4167 78.0833 34.4583 77.25 35.25C76.4583 36 75.4375 36.375 74.1875 36.375H48.9375V52.8125H72.5C73.75 52.8125 74.7708 53.1667 75.5625 53.875C76.3958 54.5417 76.8125 55.5625 76.8125 56.9375C76.8125 58.1875 76.3958 59.1667 75.5625 59.875C74.7708 60.5417 73.75 60.875 72.5 60.875H48.9375V78.1875H74.1875C75.4375 78.1875 76.4583 78.5625 77.25 79.3125C78.0833 80.0625 78.5 81.1042 78.5 82.4375C78.5 83.7292 78.0833 84.75 77.25 85.5C76.4583 86.25 75.4375 86.625 74.1875 86.625H43.6875Z" fill="white"/>
</svg>
