<svg width="16" height="15" viewBox="0 0 16 15" fill="none" xmlns="http://www.w3.org/2000/svg">
<path d="M3.25781 14.5625H12.7344C13.5521 14.5625 14.1641 14.3594 14.5703 13.9531C14.9818 13.5521 15.1875 12.9479 15.1875 12.1406V2.60156C15.1875 1.79427 14.9818 1.1901 14.5703 0.789062C14.1641 0.382812 13.5521 0.179688 12.7344 0.179688H3.25781C2.4401 0.179688 1.82552 0.382812 1.41406 0.789062C1.00781 1.1901 0.804688 1.79427 0.804688 2.60156V12.1406C0.804688 12.9479 1.00781 13.5521 1.41406 13.9531C1.82552 14.3594 2.4401 14.5625 3.25781 14.5625ZM3.27344 13.3047C2.88281 13.3047 2.58333 13.2031 2.375 13C2.16667 12.7917 2.0625 12.4844 2.0625 12.0781V2.66406C2.0625 2.25781 2.16667 1.95312 2.375 1.75C2.58333 1.54167 2.88281 1.4375 3.27344 1.4375H12.7188C13.1042 1.4375 13.401 1.54167 13.6094 1.75C13.8229 1.95312 13.9297 2.25781 13.9297 2.66406V12.0781C13.9297 12.4844 13.8229 12.7917 13.6094 13C13.401 13.2031 13.1042 13.3047 12.7188 13.3047H3.27344ZM6.20312 10.8438H9.89844C10.0495 10.8438 10.1745 10.7995 10.2734 10.7109C10.3724 10.6172 10.4219 10.4922 10.4219 10.3359C10.4219 10.1745 10.3724 10.0495 10.2734 9.96094C10.1745 9.86719 10.0495 9.82031 9.89844 9.82031H6.83594V7.71875H9.69531C9.84635 7.71875 9.97135 7.67708 10.0703 7.59375C10.1693 7.51042 10.2188 7.39323 10.2188 7.24219C10.2188 7.08073 10.1693 6.95833 10.0703 6.875C9.97135 6.78646 9.84635 6.74219 9.69531 6.74219H6.83594V4.75H9.89844C10.0495 4.75 10.1745 4.70312 10.2734 4.60938C10.3724 4.51562 10.4219 4.39062 10.4219 4.23438C10.4219 4.07812 10.3724 3.95573 10.2734 3.86719C10.1745 3.77344 10.0495 3.72656 9.89844 3.72656H6.20312C6.00521 3.72656 5.85417 3.79167 5.75 3.92188C5.64583 4.05208 5.59375 4.22135 5.59375 4.42969V10.1406C5.59375 10.3542 5.64583 10.526 5.75 10.6562C5.85417 10.7812 6.00521 10.8438 6.20312 10.8438Z" fill="white"/>
</svg>
