<svg width="16" height="15" viewBox="0 0 16 15" fill="none" xmlns="http://www.w3.org/2000/svg">
<path d="M3.25781 14.5625H12.7344C13.5521 14.5625 14.1641 14.3594 14.5703 13.9531C14.9818 13.5521 15.1875 12.9479 15.1875 12.1406V2.60156C15.1875 1.79427 14.9818 1.1901 14.5703 0.789062C14.1641 0.382812 13.5521 0.179688 12.7344 0.179688H3.25781C2.4401 0.179688 1.82552 0.382812 1.41406 0.789062C1.00781 1.1901 0.804688 1.79427 0.804688 2.60156V12.1406C0.804688 12.9479 1.00781 13.5521 1.41406 13.9531C1.82552 14.3594 2.4401 14.5625 3.25781 14.5625ZM6.14844 10.9531C5.9401 10.9531 5.78125 10.888 5.67188 10.7578C5.56771 10.6224 5.51562 10.4453 5.51562 10.2266V4.34375C5.51562 4.125 5.56771 3.95052 5.67188 3.82031C5.78125 3.6849 5.9401 3.61719 6.14844 3.61719H9.96094C10.1172 3.61719 10.2448 3.66406 10.3438 3.75781C10.4479 3.84635 10.5 3.97396 10.5 4.14062C10.5 4.30208 10.4479 4.43229 10.3438 4.53125C10.2448 4.625 10.1172 4.67188 9.96094 4.67188H6.80469V6.72656H9.75C9.90625 6.72656 10.0339 6.77083 10.1328 6.85938C10.237 6.94271 10.2891 7.07031 10.2891 7.24219C10.2891 7.39844 10.237 7.52083 10.1328 7.60938C10.0339 7.69271 9.90625 7.73438 9.75 7.73438H6.80469V9.89844H9.96094C10.1172 9.89844 10.2448 9.94531 10.3438 10.0391C10.4479 10.1328 10.5 10.263 10.5 10.4297C10.5 10.5911 10.4479 10.7188 10.3438 10.8125C10.2448 10.9062 10.1172 10.9531 9.96094 10.9531H6.14844Z" fill="white"/>
</svg>
