<svg width="13" height="17" viewBox="0 0 13 17" fill="none" xmlns="http://www.w3.org/2000/svg">
<path d="M0.296875 13.4062C0.296875 14.125 0.4375 14.7474 0.71875 15.2734C1.00521 15.8047 1.40625 16.2135 1.92188 16.5C2.4375 16.7917 3.04427 16.9375 3.74219 16.9375C4.52865 16.9375 5.21354 16.7656 5.79688 16.4219C6.38021 16.0833 6.85677 15.5833 7.22656 14.9219L7.92969 13.6641C8.20052 13.1589 8.49479 12.7188 8.8125 12.3438C9.13542 11.9635 9.46094 11.6146 9.78906 11.2969C10.1172 10.9792 10.4297 10.6641 10.7266 10.3516C11.0286 10.0339 11.2969 9.69271 11.5312 9.32812C11.7656 8.96354 11.9505 8.54427 12.0859 8.07031C12.2266 7.59115 12.2969 7.02865 12.2969 6.38281C12.2969 5.16406 12.0495 4.09896 11.5547 3.1875C11.0651 2.27083 10.375 1.55729 9.48438 1.04688C8.59896 0.536458 7.5651 0.28125 6.38281 0.28125C5.16927 0.28125 4.10677 0.539062 3.19531 1.05469C2.28385 1.5651 1.57292 2.28125 1.0625 3.20312C0.552083 4.11979 0.296875 5.1901 0.296875 6.41406V13.4062ZM1.47656 13.3281V6.41406C1.47656 5.41927 1.67969 4.55208 2.08594 3.8125C2.4974 3.06771 3.07031 2.48958 3.80469 2.07812C4.54427 1.66667 5.40365 1.46094 6.38281 1.46094C7.33073 1.46094 8.15885 1.66667 8.86719 2.07812C9.58073 2.48958 10.1328 3.0651 10.5234 3.80469C10.9193 4.54427 11.1172 5.40365 11.1172 6.38281C11.1172 6.92448 11.0521 7.40104 10.9219 7.8125C10.7969 8.21875 10.6224 8.58854 10.3984 8.92188C10.1745 9.25521 9.91927 9.57292 9.63281 9.875C9.34635 10.1719 9.04427 10.4792 8.72656 10.7969C8.41406 11.1094 8.09896 11.4557 7.78125 11.8359C7.46354 12.2109 7.16146 12.6432 6.875 13.1328L6.19531 14.2969C5.91927 14.7812 5.58333 15.1406 5.1875 15.375C4.79688 15.6094 4.33333 15.7266 3.79688 15.7266C3.07812 15.7266 2.51042 15.513 2.09375 15.0859C1.68229 14.6589 1.47656 14.0729 1.47656 13.3281ZM3.14062 10.3906C3.30208 10.3906 3.4401 10.3333 3.55469 10.2188C3.67448 10.099 3.73438 9.95833 3.73438 9.79688V6.36719C3.73438 5.86719 3.84375 5.43229 4.0625 5.0625C4.28125 4.6875 4.58854 4.39583 4.98438 4.1875C5.38021 3.97917 5.84375 3.875 6.375 3.875C7.13021 3.875 7.73438 4.10156 8.1875 4.55469C8.64062 5.00781 8.86719 5.61198 8.86719 6.36719C8.86719 6.52865 8.92448 6.66927 9.03906 6.78906C9.15885 6.90365 9.29688 6.96094 9.45312 6.96094C9.61458 6.96094 9.7526 6.90365 9.86719 6.78906C9.98698 6.66927 10.0469 6.52865 10.0469 6.36719C10.0469 5.63281 9.89323 4.99219 9.58594 4.44531C9.27865 3.89323 8.84896 3.46354 8.29688 3.15625C7.75 2.84896 7.10938 2.69531 6.375 2.69531C5.61458 2.69531 4.94531 2.84896 4.36719 3.15625C3.79427 3.46354 3.34896 3.89323 3.03125 4.44531C2.71354 4.9974 2.55469 5.63802 2.55469 6.36719V9.79688C2.55469 9.95833 2.61198 10.099 2.72656 10.2188C2.84115 10.3333 2.97917 10.3906 3.14062 10.3906ZM3.07812 8.07031H5.71875C5.98438 8.07031 6.19531 8.14323 6.35156 8.28906C6.50781 8.4349 6.58594 8.625 6.58594 8.85938C6.58594 8.97917 6.55729 9.11458 6.5 9.26562C6.44271 9.41146 6.36719 9.54167 6.27344 9.65625L5.33594 10.8359C5.23177 10.9661 5.17969 11.1068 5.17969 11.2578C5.17969 11.4193 5.23698 11.5573 5.35156 11.6719C5.47135 11.7865 5.61198 11.8438 5.77344 11.8438C5.96094 11.8438 6.1224 11.7578 6.25781 11.5859L7.27344 10.2969C7.4349 10.0938 7.5625 9.85677 7.65625 9.58594C7.75521 9.3099 7.80469 9.05208 7.80469 8.8125C7.80469 8.23958 7.61198 7.77604 7.22656 7.42188C6.84115 7.06771 6.33333 6.89062 5.70312 6.89062H3.07812V8.07031Z" fill="white"/>
</svg>
