<?xml version="1.0" encoding="UTF-8"?>
<svg xmlns="http://www.w3.org/2000/svg" xmlns:xlink="http://www.w3.org/1999/xlink" width="24" height="15.6" viewBox="0 0 24 15.6" version="1.1">
<g id="surface1">
<path style=" stroke:none;fill-rule:nonzero;fill:rgb(100%,100%,100%);fill-opacity:1;" d="M 6.601562 15.074219 L 17.398438 15.074219 C 19.351562 15.074219 20.800781 14.613281 21.75 13.6875 C 22.707031 12.757812 23.183594 11.339844 23.183594 9.441406 L 23.183594 5.867188 C 23.183594 3.957031 22.714844 2.535156 21.777344 1.601562 C 20.847656 0.671875 19.421875 0.207031 17.503906 0.207031 L 6.496094 0.207031 C 4.585938 0.207031 3.160156 0.671875 2.222656 1.601562 C 1.285156 2.535156 0.816406 3.957031 0.816406 5.867188 L 0.816406 9.441406 C 0.816406 11.339844 1.289062 12.757812 2.242188 13.6875 C 3.195312 14.613281 4.648438 15.074219 6.601562 15.074219 Z M 6.601562 13.566406 C 5.125 13.566406 4.042969 13.234375 3.355469 12.570312 C 2.667969 11.910156 2.324219 10.867188 2.324219 9.441406 L 2.324219 5.867188 C 2.324219 4.4375 2.660156 3.386719 3.328125 2.71875 C 4.003906 2.050781 5.058594 1.714844 6.496094 1.714844 L 17.503906 1.714844 C 18.945312 1.714844 20.003906 2.050781 20.671875 2.71875 C 21.339844 3.386719 21.675781 4.4375 21.675781 5.867188 L 21.675781 9.441406 C 21.675781 10.867188 21.332031 11.910156 20.644531 12.570312 C 19.957031 13.234375 18.875 13.566406 17.398438 13.566406 Z M 1.574219 6.496094 L 22.425781 6.496094 L 22.425781 5.550781 L 1.574219 5.550781 Z M 12 9.984375 C 12.25 9.984375 12.460938 9.898438 12.636719 9.722656 C 12.820312 9.539062 12.910156 9.324219 12.910156 9.074219 C 12.910156 8.824219 12.820312 8.613281 12.636719 8.4375 C 12.460938 8.261719 12.25 8.175781 12 8.175781 C 11.75 8.175781 11.539062 8.261719 11.363281 8.4375 C 11.1875 8.613281 11.101562 8.824219 11.101562 9.074219 C 11.101562 9.324219 11.1875 9.539062 11.363281 9.722656 C 11.539062 9.898438 11.75 9.984375 12 9.984375 Z M 12 9.984375 "/>
</g>
</svg>
