<svg width="20" height="13" viewBox="0 0 20 13" fill="none" xmlns="http://www.w3.org/2000/svg">
<path d="M5.5 12.5625H14.5C16.125 12.5625 17.3333 12.1771 18.125 11.4062C18.9219 10.6302 19.3203 9.45052 19.3203 7.86719V4.89062C19.3203 3.29688 18.9297 2.11198 18.1484 1.33594C17.3724 0.559896 16.1849 0.171875 14.5859 0.171875H5.41406C3.82031 0.171875 2.63281 0.559896 1.85156 1.33594C1.07031 2.11198 0.679688 3.29688 0.679688 4.89062V7.86719C0.679688 9.45052 1.07552 10.6302 1.86719 11.4062C2.66406 12.1771 3.875 12.5625 5.5 12.5625ZM5.5 11.3047C4.27083 11.3047 3.36979 11.0286 2.79688 10.4766C2.22396 9.92448 1.9375 9.05469 1.9375 7.86719V4.89062C1.9375 3.69792 2.21615 2.82292 2.77344 2.26562C3.33594 1.70833 4.21615 1.42969 5.41406 1.42969H14.5859C15.7891 1.42969 16.6693 1.70833 17.2266 2.26562C17.7839 2.82292 18.0625 3.69792 18.0625 4.89062V7.86719C18.0625 9.05469 17.776 9.92448 17.2031 10.4766C16.6302 11.0286 15.7292 11.3047 14.5 11.3047H5.5ZM1.3125 5.41406H18.6875V4.625H1.3125V5.41406ZM10 8.32031C10.2083 8.32031 10.3854 8.2474 10.5312 8.10156C10.6823 7.95052 10.7578 7.77083 10.7578 7.5625C10.7578 7.35417 10.6823 7.17708 10.5312 7.03125C10.3854 6.88542 10.2083 6.8125 10 6.8125C9.79167 6.8125 9.61458 6.88542 9.46875 7.03125C9.32292 7.17708 9.25 7.35417 9.25 7.5625C9.25 7.77083 9.32292 7.95052 9.46875 8.10156C9.61458 8.2474 9.79167 8.32031 10 8.32031Z" fill="white"/>
</svg>
