<svg width="126" height="123" viewBox="0 0 126 123" fill="none" xmlns="http://www.w3.org/2000/svg">
<path d="M28.4375 51.625C32.1042 51.6667 35.5625 51.0417 38.8125 49.75C42.1042 48.4167 45 46.5833 47.5 44.25C50.0417 41.875 52.0208 39.1458 53.4375 36.0625C54.8958 32.9792 55.625 29.6875 55.625 26.1875C55.625 21.5625 54.375 17.3542 51.875 13.5625C49.375 9.72917 46.0625 6.66667 41.9375 4.375C37.8125 2.08333 33.3125 0.9375 28.4375 0.9375C23.9375 0.9375 20 1.70833 16.625 3.25C13.2917 4.79167 10.4792 6.66667 8.1875 8.875C5.89583 11.0417 4.10417 13.1042 2.8125 15.0625C1.5625 16.9375 0.9375 19.1458 0.9375 21.6875V30.875C0.9375 33.3333 1.5625 35.5417 2.8125 37.5C4.0625 39.4167 5.83333 41.4792 8.125 43.6875C10.4583 45.8542 13.2917 47.7083 16.625 49.25C20 50.75 23.9375 51.5417 28.4375 51.625ZM12.3125 36.1875C11.5208 36.1875 10.8542 35.9167 10.3125 35.375C9.77083 34.8333 9.5 34.1458 9.5 33.3125V19.1875C9.5 18.3958 9.77083 17.7292 10.3125 17.1875C10.8542 16.6042 11.5208 16.3125 12.3125 16.3125C13.1458 16.3125 13.8333 16.6042 14.375 17.1875C14.9167 17.7292 15.1875 18.3958 15.1875 19.1875V33.3125C15.1875 34.1458 14.9167 34.8333 14.375 35.375C13.8333 35.9167 13.1458 36.1875 12.3125 36.1875ZM37.75 99.0625H43.0625C44.9792 99.0625 46.4792 98.6042 47.5625 97.6875C48.6875 96.7292 49.25 95.3125 49.25 93.4375V50.6875C46.7917 52.6042 44.0417 54.1667 41 55.375C38 56.5417 34.875 57.25 31.625 57.5V93.4375C31.625 95.3125 32.1667 96.7292 33.25 97.6875C34.375 98.6042 35.875 99.0625 37.75 99.0625ZM37.25 122.688H43.5625V92.875H37.25V122.688ZM97.6875 51.625C102.188 51.5417 106.104 50.75 109.438 49.25C112.812 47.7083 115.646 45.8542 117.938 43.6875C120.271 41.4792 122.062 39.4167 123.312 37.5C124.562 35.5417 125.188 33.3333 125.188 30.875V21.6875C125.188 19.1458 124.562 16.9375 123.312 15.0625C122.021 13.1042 120.229 11.0417 117.938 8.875C115.646 6.66667 112.812 4.79167 109.438 3.25C106.104 1.70833 102.188 0.9375 97.6875 0.9375C92.8125 0.9375 88.3125 2.08333 84.1875 4.375C80.0625 6.66667 76.75 9.72917 74.25 13.5625C71.75 17.3542 70.5 21.5625 70.5 26.1875C70.5 29.6875 71.2083 32.9792 72.625 36.0625C74.0833 39.1458 76.0625 41.875 78.5625 44.25C81.1042 46.5833 84 48.4167 87.25 49.75C90.5417 51.0417 94.0208 51.6667 97.6875 51.625ZM113.75 36.1875C112.958 36.1875 112.292 35.9167 111.75 35.375C111.208 34.8333 110.938 34.1458 110.938 33.3125V19.1875C110.938 18.3958 111.208 17.7292 111.75 17.1875C112.292 16.6042 112.958 16.3125 113.75 16.3125C114.583 16.3125 115.271 16.6042 115.812 17.1875C116.354 17.7292 116.625 18.3958 116.625 19.1875V33.3125C116.625 34.1458 116.354 34.8333 115.812 35.375C115.271 35.9167 114.583 36.1875 113.75 36.1875ZM83.0625 99.0625H88.375C90.25 99.0625 91.7292 98.6042 92.8125 97.6875C93.9375 96.7292 94.5 95.3125 94.5 93.4375V57.5C91.2083 57.25 88.0625 56.5417 85.0625 55.375C82.0625 54.1667 79.3333 52.6042 76.875 50.6875V93.4375C76.875 95.3125 77.4167 96.7292 78.5 97.6875C79.625 98.6042 81.1458 99.0625 83.0625 99.0625ZM88.875 122.688V92.875H82.5625V122.688H88.875Z" fill="white"/>
</svg>
