<svg xmlns="http://www.w3.org/2000/svg" width="24" height="24"><path style="stroke:none;fill-rule:nonzero;fill:#fff;fill-opacity:1" d="M5.508 10.617a5.094 5.094 0 0 0 1.945-.351 5.24 5.24 0 0 0 1.629-1.032A4.812 4.812 0 0 0 10.195 7.7c.274-.578.41-1.195.41-1.851 0-.868-.234-1.657-.703-2.368A5.187 5.187 0 0 0 8.04 1.758a5.117 5.117 0 0 0-2.531-.645c-.844 0-1.582.145-2.215.434-.625.289-1.152.64-1.582 1.055-.43.406-.766.793-1.008 1.16-.234.351-.351.765-.351 1.242v1.723c0 .46.117.875.351 1.242.235.36.567.746.996 1.16.438.406.969.754 1.594 1.043.633.281 1.371.43 2.215.445ZM2.484 7.723a.528.528 0 0 1-.379-.157.537.537 0 0 1-.148-.382V4.535a.5.5 0 0 1 .152-.375.5.5 0 0 1 .375-.164c.157 0 .286.055.387.164a.5.5 0 0 1 .152.375v2.649a.527.527 0 0 1-.152.386.527.527 0 0 1-.387.153Zm4.77 11.789h.996c.36 0 .64-.086.844-.258.21-.18.316-.445.316-.797v-8.016a6.12 6.12 0 0 1-3.305 1.278v6.738c0 .352.102.617.305.797.211.172.492.258.844.258Zm-.094 4.43h1.184v-5.59H7.16Zm11.332-13.325c.844-.015 1.578-.164 2.203-.445.633-.29 1.164-.637 1.594-1.043.438-.414.773-.8 1.008-1.16.234-.371.355-.801.351-1.242V5.004c0-.477-.117-.89-.351-1.242-.242-.367-.578-.754-1.008-1.16-.43-.414-.96-.766-1.594-1.055-.625-.29-1.36-.434-2.203-.434-.914 0-1.758.215-2.531.645a5.187 5.187 0 0 0-1.863 1.722c-.47.711-.703 1.5-.703 2.368 0 .656.132 1.273.398 1.851.273.578.645 1.09 1.113 1.535.477.438 1.02.782 1.63 1.032.616.242 1.269.359 1.956.351Zm3.012-2.894a.535.535 0 0 1-.379-.157.537.537 0 0 1-.148-.382V4.535a.5.5 0 0 1 .152-.375.5.5 0 0 1 .375-.164c.156 0 .285.055.387.164a.5.5 0 0 1 .152.375v2.649a.527.527 0 0 1-.152.386.527.527 0 0 1-.387.153ZM15.75 19.512h.996c.352 0 .629-.086.832-.258.211-.18.317-.445.317-.797v-6.738a6.124 6.124 0 0 1-1.77-.399 6.308 6.308 0 0 1-1.535-.879v8.016c0 .352.101.617.305.797.21.172.496.258.855.258Zm1.09 4.43v-5.59h-1.184v5.59Zm0 0"/></svg>