<?xml version="1.0" encoding="UTF-8"?>
<svg xmlns="http://www.w3.org/2000/svg" xmlns:xlink="http://www.w3.org/1999/xlink" width="24" height="22.5" viewBox="0 0 24 22.5" version="1.1">
<g id="surface1">
<path style=" stroke:none;fill-rule:nonzero;fill:rgb(100%,100%,100%);fill-opacity:1;" d="M 2.542969 13.300781 L 21.433594 13.300781 C 21.902344 13.300781 22.261719 13.183594 22.511719 12.949219 C 22.761719 12.714844 22.886719 12.394531 22.886719 11.988281 C 22.886719 11.792969 22.84375 11.597656 22.757812 11.402344 C 22.671875 11.199219 22.546875 11.011719 22.382812 10.839844 L 13.429688 0.960938 C 13.226562 0.742188 13.007812 0.566406 12.773438 0.433594 C 12.539062 0.300781 12.277344 0.234375 11.988281 0.234375 C 11.707031 0.234375 11.445312 0.304688 11.203125 0.445312 C 10.960938 0.585938 10.746094 0.757812 10.558594 0.960938 L 1.59375 10.839844 C 1.429688 11.011719 1.300781 11.199219 1.207031 11.402344 C 1.121094 11.597656 1.082031 11.792969 1.089844 11.988281 C 1.097656 12.394531 1.222656 12.714844 1.464844 12.949219 C 1.714844 13.183594 2.074219 13.300781 2.542969 13.300781 Z M 2.777344 21.867188 L 21.222656 21.867188 C 21.824219 21.867188 22.292969 21.695312 22.628906 21.351562 C 22.964844 21.007812 23.132812 20.535156 23.132812 19.933594 L 23.132812 17.8125 C 23.132812 17.210938 22.964844 16.738281 22.628906 16.394531 C 22.292969 16.050781 21.824219 15.878906 21.222656 15.878906 L 2.777344 15.878906 C 2.183594 15.878906 1.714844 16.050781 1.371094 16.394531 C 1.035156 16.738281 0.867188 17.210938 0.867188 17.8125 L 0.867188 19.933594 C 0.867188 20.535156 1.035156 21.007812 1.371094 21.351562 C 1.714844 21.695312 2.183594 21.867188 2.777344 21.867188 Z M 2.777344 21.867188 "/>
</g>
</svg>
