<?xml version="1.0" encoding="UTF-8"?>
<svg xmlns="http://www.w3.org/2000/svg" xmlns:xlink="http://www.w3.org/1999/xlink" width="24" height="25.5" viewBox="0 0 24 25.5" version="1.1">
<g id="surface1">
<path style=" stroke:none;fill-rule:nonzero;fill:rgb(100%,100%,100%);fill-opacity:1;" d="M 12 24.492188 C 13.632812 24.492188 15.167969 24.179688 16.605469 23.554688 C 18.050781 22.929688 19.324219 22.066406 20.425781 20.964844 C 21.527344 19.863281 22.390625 18.59375 23.015625 17.15625 C 23.640625 15.710938 23.953125 14.171875 23.953125 12.539062 C 23.953125 10.90625 23.640625 9.371094 23.015625 7.933594 C 22.390625 6.488281 21.527344 5.214844 20.425781 4.113281 C 19.324219 3.011719 18.050781 2.148438 16.605469 1.523438 C 15.160156 0.898438 13.621094 0.585938 11.988281 0.585938 C 10.355469 0.585938 8.816406 0.898438 7.371094 1.523438 C 5.933594 2.148438 4.664062 3.011719 3.5625 4.113281 C 2.46875 5.214844 1.609375 6.488281 0.984375 7.933594 C 0.359375 9.371094 0.046875 10.90625 0.046875 12.539062 C 0.046875 14.171875 0.359375 15.710938 0.984375 17.15625 C 1.609375 18.59375 2.472656 19.863281 3.574219 20.964844 C 4.675781 22.066406 5.945312 22.929688 7.382812 23.554688 C 8.828125 24.179688 10.367188 24.492188 12 24.492188 Z M 7.265625 17.542969 C 6.890625 17.542969 6.601562 17.445312 6.398438 17.25 C 6.195312 17.054688 6.09375 16.769531 6.09375 16.394531 L 6.09375 15.644531 C 6.09375 15.277344 6.195312 14.996094 6.398438 14.800781 C 6.601562 14.605469 6.890625 14.507812 7.265625 14.507812 L 16.722656 14.507812 C 17.097656 14.507812 17.386719 14.605469 17.589844 14.800781 C 17.792969 14.996094 17.894531 15.277344 17.894531 15.644531 L 17.894531 16.394531 C 17.894531 16.769531 17.792969 17.054688 17.589844 17.25 C 17.386719 17.445312 17.097656 17.542969 16.722656 17.542969 Z M 6.972656 12.972656 C 6.722656 12.972656 6.535156 12.914062 6.410156 12.796875 C 6.292969 12.671875 6.222656 12.5 6.199219 12.28125 C 6.191406 12.0625 6.28125 11.859375 6.46875 11.671875 L 11.238281 6.421875 C 11.332031 6.320312 11.441406 6.230469 11.566406 6.152344 C 11.699219 6.074219 11.84375 6.035156 12 6.035156 C 12.148438 6.035156 12.285156 6.070312 12.410156 6.140625 C 12.542969 6.210938 12.660156 6.304688 12.761719 6.421875 L 17.496094 11.671875 C 17.691406 11.875 17.789062 12.078125 17.789062 12.28125 C 17.789062 12.5 17.71875 12.671875 17.578125 12.796875 C 17.4375 12.914062 17.246094 12.972656 17.003906 12.972656 Z M 6.972656 12.972656 "/>
</g>
</svg>
