<svg width="16" height="17" viewBox="0 0 16 17" fill="none" xmlns="http://www.w3.org/2000/svg">
<path d="M8 16.3281C9.08854 16.3281 10.112 16.1198 11.0703 15.7031C12.0339 15.2865 12.8828 14.7109 13.6172 13.9766C14.3516 13.2422 14.9271 12.3958 15.3438 11.4375C15.7604 10.474 15.9688 9.44792 15.9688 8.35938C15.9688 7.27083 15.7604 6.2474 15.3438 5.28906C14.9271 4.32552 14.3516 3.47656 13.6172 2.74219C12.8828 2.00781 12.0339 1.43229 11.0703 1.01562C10.1068 0.598958 9.08073 0.390625 7.99219 0.390625C6.90365 0.390625 5.8776 0.598958 4.91406 1.01562C3.95573 1.43229 3.10938 2.00781 2.375 2.74219C1.64583 3.47656 1.07292 4.32552 0.65625 5.28906C0.239583 6.2474 0.03125 7.27083 0.03125 8.35938C0.03125 9.44792 0.239583 10.474 0.65625 11.4375C1.07292 12.3958 1.64844 13.2422 2.38281 13.9766C3.11719 14.7109 3.96354 15.2865 4.92188 15.7031C5.88542 16.1198 6.91146 16.3281 8 16.3281ZM4.84375 11.6953C4.59375 11.6953 4.40104 11.6302 4.26562 11.5C4.13021 11.3698 4.0625 11.1797 4.0625 10.9297V10.4297C4.0625 10.1849 4.13021 9.9974 4.26562 9.86719C4.40104 9.73698 4.59375 9.67188 4.84375 9.67188H11.1484C11.3984 9.67188 11.5911 9.73698 11.7266 9.86719C11.862 9.9974 11.9297 10.1849 11.9297 10.4297V10.9297C11.9297 11.1797 11.862 11.3698 11.7266 11.5C11.5911 11.6302 11.3984 11.6953 11.1484 11.6953H4.84375ZM4.64844 8.64844C4.48177 8.64844 4.35677 8.60938 4.27344 8.53125C4.19531 8.44792 4.14844 8.33333 4.13281 8.1875C4.1276 8.04167 4.1875 7.90625 4.3125 7.78125L7.49219 4.28125C7.55469 4.21354 7.6276 4.15365 7.71094 4.10156C7.79948 4.04948 7.89583 4.02344 8 4.02344C8.09896 4.02344 8.1901 4.04688 8.27344 4.09375C8.36198 4.14062 8.4401 4.20312 8.50781 4.28125L11.6641 7.78125C11.7943 7.91667 11.8594 8.05208 11.8594 8.1875C11.8594 8.33333 11.8125 8.44792 11.7188 8.53125C11.625 8.60938 11.4974 8.64844 11.3359 8.64844H4.64844Z" fill="white"/>
</svg>
