<svg xmlns="http://www.w3.org/2000/svg" width="24" height="24"><path style="stroke:none;fill-rule:nonzero;fill:#fff;fill-opacity:1" d="M.328 11.8c0 .325.078.595.234.805.165.207.403.344.723.41.582.102.996.352 1.246.747.25.402.375 1.047.375 1.93v3.105c0 1.496.301 2.61.899 3.328.601.719 1.53 1.082 2.797 1.082.148 0 .289-.027.421-.078a.802.802 0 0 0 .329-.309.912.912 0 0 0 .12-.476c0-.407-.163-.653-.488-.75l-.148-.04a.673.673 0 0 0-.152-.015c-.786-.062-1.344-.32-1.668-.773-.32-.442-.477-1.172-.477-2.192v-3.66c0-.934-.203-1.66-.601-2.176-.399-.511-.965-.812-1.696-.89-.015 0-.02-.012-.02-.024 0-.011.005-.023.02-.023.73-.082 1.297-.375 1.696-.89.398-.516.601-1.243.601-2.173V5.066c0-1.027.156-1.757.477-2.199.324-.441.882-.691 1.668-.762.074-.003.144-.015.207-.02.062-.019.117-.034.168-.054.277-.11.414-.36.414-.742a.812.812 0 0 0-.489-.781 1.255 1.255 0 0 0-.476-.074C5.28.434 4.375.797 3.789 1.52c-.59.73-.883 1.835-.883 3.324v3.105c0 .883-.125 1.528-.375 1.922-.25.395-.664.649-1.246.75-.32.059-.558.195-.722.41-.157.211-.243.489-.235.77Zm7.453 1.755c.407 0 .758-.172 1.051-.516.293-.355.441-.77.441-1.238 0-.309-.07-.598-.207-.86a1.728 1.728 0 0 0-.535-.652 1.263 1.263 0 0 0-.75-.242c-.27 0-.52.082-.75.242-.226.16-.41.387-.543.652a1.837 1.837 0 0 0-.207.86c0 .469.149.883.442 1.238.3.344.652.516 1.058.516Zm4.219 0c.27 0 .516-.082.742-.242.223-.16.406-.38.543-.637.133-.266.207-.567.207-.875 0-.309-.07-.598-.207-.86a1.816 1.816 0 0 0-.543-.652 1.267 1.267 0 0 0-.742-.242c-.262 0-.508.082-.742.242-.223.164-.41.387-.543.656a1.833 1.833 0 0 0-.207.856c0 .472.148.883.441 1.238.301.344.653.52 1.051.52Zm4.219 0c.406 0 .758-.172 1.05-.516.301-.355.45-.77.45-1.238 0-.309-.07-.598-.207-.86a1.747 1.747 0 0 0-.543-.652 1.263 1.263 0 0 0-.75-.242c-.27 0-.52.082-.75.242a1.88 1.88 0 0 0-.742 1.512c0 .469.148.883.441 1.238.293.344.645.516 1.05.516Zm7.453-1.754a1.249 1.249 0 0 0-.235-.77c-.156-.215-.398-.351-.722-.41-.582-.101-.996-.355-1.246-.75-.25-.394-.375-1.039-.375-1.922V4.844c0-1.489-.293-2.594-.883-3.324C19.625.797 18.719.434 17.492.434c-.18 0-.336.023-.469.074a.79.79 0 0 0-.375.297.945.945 0 0 0-.12.488c0 .379.14.629.421.738.043.02.098.035.16.055.063.004.133.016.207.02.786.07 1.344.32 1.668.761.325.442.489 1.172.489 2.2v3.667c0 .934.195 1.66.59 2.176.398.516.964.809 1.695.89.015 0 .02.012.02.024s-.005.024-.02.024c-.73.078-1.297.379-1.695.89-.395.516-.59 1.242-.59 2.176v3.66c0 1.02-.164 1.75-.489 2.192-.324.453-.882.71-1.668.773a.696.696 0 0 0-.16.016c-.043.011-.086.027-.133.039-.328.097-.496.343-.496.75 0 .183.04.343.114.476a.838.838 0 0 0 .347.309c.125.05.262.078.41.078 1.27 0 2.204-.363 2.797-1.082.598-.719.899-1.832.899-3.328v-3.102c0-.886.125-1.53.375-1.93.25-.398.664-.648 1.246-.75.324-.066.566-.203.723-.41.156-.21.234-.48.234-.804Zm0 0"/></svg>