<?xml version="1.0" encoding="UTF-8"?>
<svg xmlns="http://www.w3.org/2000/svg" xmlns:xlink="http://www.w3.org/1999/xlink" width="24" height="16" viewBox="0 0 24 16" version="1.1">
<g id="surface1">
<path style=" stroke:none;fill-rule:nonzero;fill:rgb(100%,100%,100%);fill-opacity:1;" d="M 0.71875 12.769531 C 0.71875 13.757812 0.980469 14.507812 1.5 15.019531 C 2.027344 15.527344 2.78125 15.78125 3.761719 15.78125 L 20.230469 15.78125 C 21.214844 15.78125 21.96875 15.527344 22.488281 15.019531 C 23.015625 14.507812 23.28125 13.757812 23.28125 12.769531 L 23.28125 4.175781 C 23.28125 3.199219 23.015625 2.453125 22.488281 1.949219 C 21.96875 1.441406 21.214844 1.1875 20.230469 1.1875 L 3.761719 1.1875 C 2.78125 1.1875 2.027344 1.441406 1.5 1.949219 C 0.980469 2.453125 0.71875 3.199219 0.71875 4.175781 Z M 6.738281 10.019531 C 6.316406 10.019531 5.953125 9.871094 5.644531 9.574219 C 5.347656 9.265625 5.199219 8.902344 5.199219 8.480469 C 5.199219 8.054688 5.347656 7.695312 5.644531 7.394531 C 5.953125 7.089844 6.316406 6.9375 6.738281 6.9375 C 7.171875 6.9375 7.535156 7.089844 7.832031 7.394531 C 8.132812 7.695312 8.28125 8.054688 8.28125 8.480469 C 8.28125 8.902344 8.132812 9.265625 7.832031 9.574219 C 7.535156 9.871094 7.171875 10.019531 6.738281 10.019531 Z M 12.011719 10.019531 C 11.578125 10.019531 11.210938 9.871094 10.90625 9.574219 C 10.609375 9.265625 10.457031 8.902344 10.457031 8.480469 C 10.457031 8.054688 10.609375 7.695312 10.90625 7.394531 C 11.210938 7.089844 11.578125 6.9375 12.011719 6.9375 C 12.433594 6.9375 12.796875 7.089844 13.09375 7.394531 C 13.398438 7.695312 13.550781 8.054688 13.550781 8.480469 C 13.550781 8.902344 13.398438 9.265625 13.09375 9.574219 C 12.796875 9.871094 12.433594 10.019531 12.011719 10.019531 Z M 17.269531 10.019531 C 16.839844 10.019531 16.476562 9.871094 16.175781 9.574219 C 15.878906 9.265625 15.730469 8.902344 15.730469 8.480469 C 15.730469 8.054688 15.878906 7.695312 16.175781 7.394531 C 16.476562 7.089844 16.839844 6.9375 17.269531 6.9375 C 17.695312 6.9375 18.054688 7.089844 18.355469 7.394531 C 18.660156 7.695312 18.8125 8.054688 18.8125 8.480469 C 18.8125 8.902344 18.660156 9.265625 18.355469 9.574219 C 18.054688 9.871094 17.695312 10.019531 17.269531 10.019531 Z M 17.269531 10.019531 "/>
</g>
</svg>
