<svg width="18" height="17" viewBox="0 0 18 17" fill="none" xmlns="http://www.w3.org/2000/svg">
<path d="M5.03125 16.9922C5.1875 16.9922 5.32812 16.9505 5.45312 16.8672C5.58333 16.7891 5.74219 16.6641 5.92969 16.4922L8.75 13.9141H14.0312C14.8073 13.9141 15.4609 13.776 15.9922 13.5C16.5234 13.224 16.9245 12.8203 17.1953 12.2891C17.4714 11.7578 17.6094 11.1094 17.6094 10.3438V4.35938C17.6094 3.59375 17.4714 2.94531 17.1953 2.41406C16.9245 1.88281 16.5234 1.47917 15.9922 1.20312C15.4609 0.921875 14.8073 0.78125 14.0312 0.78125H3.96875C3.19271 0.78125 2.53906 0.921875 2.00781 1.20312C1.47656 1.47917 1.07292 1.88281 0.796875 2.41406C0.526042 2.94531 0.390625 3.59375 0.390625 4.35938V10.3438C0.390625 11.1094 0.526042 11.7578 0.796875 12.2891C1.07292 12.8203 1.47656 13.224 2.00781 13.5C2.53906 13.776 3.19271 13.9141 3.96875 13.9141H4.33594V16.1875C4.33594 16.4323 4.39583 16.6276 4.51562 16.7734C4.63542 16.9193 4.80729 16.9922 5.03125 16.9922ZM5.05469 8.5C4.73698 8.5 4.46354 8.38802 4.23438 8.16406C4.01042 7.9349 3.89844 7.66146 3.89844 7.34375C3.89844 7.02604 4.01042 6.75521 4.23438 6.53125C4.46354 6.30208 4.73698 6.1875 5.05469 6.1875C5.3776 6.1875 5.65104 6.30208 5.875 6.53125C6.09896 6.75521 6.21094 7.02604 6.21094 7.34375C6.21094 7.66146 6.09896 7.9349 5.875 8.16406C5.65104 8.38802 5.3776 8.5 5.05469 8.5ZM9.00781 8.5C8.6849 8.5 8.40885 8.38802 8.17969 8.16406C7.95573 7.9349 7.84375 7.66146 7.84375 7.34375C7.84375 7.02604 7.95573 6.75521 8.17969 6.53125C8.40885 6.30208 8.6849 6.1875 9.00781 6.1875C9.32552 6.1875 9.59635 6.30208 9.82031 6.53125C10.0495 6.75521 10.1641 7.02604 10.1641 7.34375C10.1641 7.66146 10.0495 7.9349 9.82031 8.16406C9.59635 8.38802 9.32552 8.5 9.00781 8.5ZM12.9531 8.5C12.6302 8.5 12.3568 8.38802 12.1328 8.16406C11.9089 7.9349 11.7969 7.66146 11.7969 7.34375C11.7969 7.02604 11.9089 6.75521 12.1328 6.53125C12.3568 6.30208 12.6302 6.1875 12.9531 6.1875C13.2708 6.1875 13.5417 6.30208 13.7656 6.53125C13.9948 6.75521 14.1094 7.02604 14.1094 7.34375C14.1094 7.66146 13.9948 7.9349 13.7656 8.16406C13.5417 8.38802 13.2708 8.5 12.9531 8.5Z" fill="white"/>
</svg>
