<svg width="16" height="17" viewBox="0 0 16 17" fill="none" xmlns="http://www.w3.org/2000/svg">
<path d="M8 16.3281C9.08854 16.3281 10.112 16.1198 11.0703 15.7031C12.0339 15.2865 12.8828 14.7109 13.6172 13.9766C14.3516 13.2422 14.9271 12.3958 15.3438 11.4375C15.7604 10.474 15.9688 9.44792 15.9688 8.35938C15.9688 7.27083 15.7604 6.2474 15.3438 5.28906C14.9271 4.32552 14.3516 3.47656 13.6172 2.74219C12.8828 2.00781 12.0339 1.43229 11.0703 1.01562C10.1068 0.598958 9.08073 0.390625 7.99219 0.390625C6.90365 0.390625 5.8776 0.598958 4.91406 1.01562C3.95573 1.43229 3.10938 2.00781 2.375 2.74219C1.64583 3.47656 1.07292 4.32552 0.65625 5.28906C0.239583 6.2474 0.03125 7.27083 0.03125 8.35938C0.03125 9.44792 0.239583 10.474 0.65625 11.4375C1.07292 12.3958 1.64844 13.2422 2.38281 13.9766C3.11719 14.7109 3.96354 15.2865 4.92188 15.7031C5.88542 16.1198 6.91146 16.3281 8 16.3281ZM4.24219 9.53125C3.91927 9.53125 3.64062 9.41667 3.40625 9.1875C3.17708 8.95312 3.0625 8.67448 3.0625 8.35156C3.0625 8.02865 3.17708 7.7526 3.40625 7.52344C3.64062 7.28906 3.91927 7.17188 4.24219 7.17188C4.5599 7.17188 4.83333 7.28906 5.0625 7.52344C5.29688 7.7526 5.41406 8.02865 5.41406 8.35156C5.41406 8.67448 5.29948 8.95312 5.07031 9.1875C4.84115 9.41667 4.5651 9.53125 4.24219 9.53125ZM8 9.53125C7.67708 9.53125 7.40104 9.41667 7.17188 9.1875C6.94271 8.95312 6.82812 8.67448 6.82812 8.35156C6.82812 8.02865 6.94271 7.7526 7.17188 7.52344C7.40104 7.28906 7.67708 7.17188 8 7.17188C8.32812 7.17188 8.60677 7.28906 8.83594 7.52344C9.0651 7.7526 9.17969 8.02865 9.17969 8.35156C9.17969 8.67448 9.0651 8.95312 8.83594 9.1875C8.60677 9.41667 8.32812 9.53125 8 9.53125ZM11.7656 9.53125C11.4375 9.53125 11.1589 9.41667 10.9297 9.1875C10.7005 8.95312 10.5859 8.67448 10.5859 8.35156C10.5859 8.02865 10.7005 7.7526 10.9297 7.52344C11.1589 7.28906 11.4375 7.17188 11.7656 7.17188C12.0833 7.17188 12.3568 7.28906 12.5859 7.52344C12.8203 7.7526 12.9375 8.02865 12.9375 8.35156C12.9375 8.67448 12.8203 8.95312 12.5859 9.1875C12.3568 9.41667 12.0833 9.53125 11.7656 9.53125Z" fill="white"/>
</svg>
