<svg width="14" height="17" viewBox="0 0 14 17" fill="none" xmlns="http://www.w3.org/2000/svg">
<path d="M2.96094 16.5391H9.03125C9.84896 16.5391 10.4609 16.3359 10.8672 15.9297C11.2734 15.5286 11.4766 14.9297 11.4766 14.1328V13.9844H7.85938C7.64062 14.25 7.36719 14.4635 7.03906 14.625C6.71615 14.7865 6.36719 14.8672 5.99219 14.8672C5.54948 14.8672 5.14323 14.7578 4.77344 14.5391C4.40885 14.3255 4.11719 14.0365 3.89844 13.6719C3.6849 13.3021 3.57812 12.8958 3.57812 12.4531C3.57812 12.0104 3.6849 11.6068 3.89844 11.2422C4.11719 10.8776 4.40885 10.5885 4.77344 10.375C5.14323 10.1562 5.54948 10.0469 5.99219 10.0469C6.36719 10.0469 6.71615 10.125 7.03906 10.2812C7.36198 10.4375 7.63281 10.651 7.85156 10.9219H11.4766V2.57812C11.4766 1.77083 11.2734 1.16667 10.8672 0.765625C10.4609 0.359375 9.84896 0.15625 9.03125 0.15625H2.96094C2.14844 0.15625 1.53646 0.359375 1.125 0.765625C0.713542 1.16667 0.507812 1.77083 0.507812 2.57812V14.1172C0.507812 14.9245 0.713542 15.5286 1.125 15.9297C1.53646 16.3359 2.14844 16.5391 2.96094 16.5391ZM3.5 4.07812C3.22396 4.07812 2.99219 3.98438 2.80469 3.79688C2.61719 3.60417 2.52344 3.375 2.52344 3.10938C2.52344 2.83854 2.61719 2.60677 2.80469 2.41406C2.99219 2.22135 3.22396 2.125 3.5 2.125C3.77083 2.125 4 2.22135 4.1875 2.41406C4.38021 2.60677 4.47656 2.83854 4.47656 3.10938C4.47656 3.375 4.38021 3.60417 4.1875 3.79688C4 3.98438 3.77083 4.07812 3.5 4.07812ZM5.99219 4.07812C5.72135 4.07812 5.49219 3.98438 5.30469 3.79688C5.11719 3.60417 5.02344 3.375 5.02344 3.10938C5.02344 2.83854 5.11719 2.60677 5.30469 2.41406C5.49219 2.22135 5.72135 2.125 5.99219 2.125C6.26823 2.125 6.5 2.22135 6.6875 2.41406C6.88021 2.60677 6.97656 2.83854 6.97656 3.10938C6.97656 3.375 6.88021 3.60417 6.6875 3.79688C6.5 3.98438 6.26823 4.07812 5.99219 4.07812ZM8.5 4.07812C8.22917 4.07812 7.9974 3.98438 7.80469 3.79688C7.61719 3.60417 7.52344 3.375 7.52344 3.10938C7.52344 2.83854 7.61719 2.60677 7.80469 2.41406C7.9974 2.22135 8.22917 2.125 8.5 2.125C8.77083 2.125 9 2.22135 9.1875 2.41406C9.375 2.60677 9.46875 2.83854 9.46875 3.10938C9.46875 3.375 9.375 3.60417 9.1875 3.79688C9 3.98438 8.77083 4.07812 8.5 4.07812ZM3.5 6.48438C3.22396 6.48438 2.99219 6.39062 2.80469 6.20312C2.61719 6.01042 2.52344 5.77865 2.52344 5.50781C2.52344 5.23177 2.61719 5 2.80469 4.8125C2.99219 4.61979 3.22396 4.52344 3.5 4.52344C3.77083 4.52344 4 4.61979 4.1875 4.8125C4.38021 5 4.47656 5.23177 4.47656 5.50781C4.47656 5.77865 4.38021 6.01042 4.1875 6.20312C4 6.39062 3.77083 6.48438 3.5 6.48438ZM5.99219 6.48438C5.72135 6.48438 5.49219 6.39062 5.30469 6.20312C5.11719 6.01042 5.02344 5.77865 5.02344 5.50781C5.02344 5.23177 5.11719 5 5.30469 4.8125C5.49219 4.61979 5.72135 4.52344 5.99219 4.52344C6.26823 4.52344 6.5 4.61979 6.6875 4.8125C6.88021 5 6.97656 5.23177 6.97656 5.50781C6.97656 5.77865 6.88021 6.01042 6.6875 6.20312C6.5 6.39062 6.26823 6.48438 5.99219 6.48438ZM8.5 6.48438C8.22917 6.48438 7.9974 6.39062 7.80469 6.20312C7.61719 6.01042 7.52344 5.77865 7.52344 5.50781C7.52344 5.23177 7.61719 5 7.80469 4.8125C7.9974 4.61979 8.22917 4.52344 8.5 4.52344C8.77083 4.52344 9 4.61979 9.1875 4.8125C9.375 5 9.46875 5.23177 9.46875 5.50781C9.46875 5.77865 9.375 6.01042 9.1875 6.20312C9 6.39062 8.77083 6.48438 8.5 6.48438ZM3.5 8.89844C3.22396 8.89844 2.99219 8.80469 2.80469 8.61719C2.61719 8.42448 2.52344 8.1901 2.52344 7.91406C2.52344 7.64323 2.61719 7.41406 2.80469 7.22656C2.99219 7.03385 3.22396 6.9375 3.5 6.9375C3.77083 6.9375 4 7.03385 4.1875 7.22656C4.38021 7.41406 4.47656 7.64323 4.47656 7.91406C4.47656 8.1901 4.38021 8.42448 4.1875 8.61719C4 8.80469 3.77083 8.89844 3.5 8.89844ZM5.99219 8.89844C5.72135 8.89844 5.49219 8.80469 5.30469 8.61719C5.11719 8.42448 5.02344 8.1901 5.02344 7.91406C5.02344 7.64323 5.11719 7.41406 5.30469 7.22656C5.49219 7.03385 5.72135 6.9375 5.99219 6.9375C6.26823 6.9375 6.5 7.03385 6.6875 7.22656C6.88021 7.41406 6.97656 7.64323 6.97656 7.91406C6.97656 8.1901 6.88021 8.42448 6.6875 8.61719C6.5 8.80469 6.26823 8.89844 5.99219 8.89844ZM8.5 8.89844C8.22917 8.89844 7.9974 8.80469 7.80469 8.61719C7.61719 8.42448 7.52344 8.1901 7.52344 7.91406C7.52344 7.64323 7.61719 7.41406 7.80469 7.22656C7.9974 7.03385 8.22917 6.9375 8.5 6.9375C8.77083 6.9375 9 7.03385 9.1875 7.22656C9.375 7.41406 9.46875 7.64323 9.46875 7.91406C9.46875 8.1901 9.375 8.42448 9.1875 8.61719C9 8.80469 8.77083 8.89844 8.5 8.89844ZM5.99219 13.3984H12.2891C12.5495 13.3984 12.7708 13.3073 12.9531 13.125C13.1406 12.9375 13.2344 12.7135 13.2344 12.4531C13.2344 12.1927 13.1406 11.9714 12.9531 11.7891C12.7708 11.6016 12.5495 11.5078 12.2891 11.5078H5.99219C5.73177 11.5078 5.50781 11.6016 5.32031 11.7891C5.13802 11.9714 5.04688 12.1927 5.04688 12.4531C5.04688 12.7135 5.13802 12.9375 5.32031 13.125C5.50781 13.3073 5.73177 13.3984 5.99219 13.3984Z" fill="white"/>
</svg>
