<svg xmlns="http://www.w3.org/2000/svg" width="24" height="24"><path style="stroke:none;fill-rule:nonzero;fill:#fff;fill-opacity:1" d="M.738 21.273 7.457 15 1.824 9.809c-.25-.235-.25-.442 0-.621l8.914-6.536c.274-.195.496-.343.68-.441a1.205 1.205 0 0 1 1.156 0c.18.098.41.246.688.441l8.914 6.536c.25.18.25.386 0 .62L16.574 15l6.688 6.258c.16-.278.238-.75.238-1.422V9.828c.004-.3-.023-.601-.082-.898a1.788 1.788 0 0 0-.281-.668 2.907 2.907 0 0 0-.594-.606l-8.398-6.164a6.72 6.72 0 0 0-1.082-.68A2.184 2.184 0 0 0 12 .551c-.383 0-.738.086-1.074.258a7.107 7.107 0 0 0-1.07.683L1.448 7.656c-.25.2-.445.399-.586.602-.133.207-.23.433-.281.672a4.346 4.346 0 0 0-.082.898v10.008c0 .676.078 1.156.238 1.437Zm2.719 1.622H20.23c1.036 0 1.747-.176 2.133-.532l-9.062-8.488c-.438-.414-.864-.621-1.281-.621-.422 0-.848.207-1.282.621L1.613 22.41c.348.324.965.485 1.844.485Zm0 0"/></svg>