<?xml version="1.0" encoding="UTF-8"?>
<svg xmlns="http://www.w3.org/2000/svg" xmlns:xlink="http://www.w3.org/1999/xlink" width="24" height="25.5" viewBox="0 0 24 25.5" version="1.1">
<g id="surface1">
<path style=" stroke:none;fill-rule:nonzero;fill:rgb(100%,100%,100%);fill-opacity:1;" d="M 12 24.503906 C 13.632812 24.503906 15.167969 24.191406 16.605469 23.566406 C 18.050781 22.941406 19.324219 22.078125 20.425781 20.976562 C 21.527344 19.875 22.390625 18.605469 23.015625 17.167969 C 23.640625 15.722656 23.953125 14.183594 23.953125 12.550781 C 23.953125 10.917969 23.640625 9.382812 23.015625 7.945312 C 22.390625 6.5 21.527344 5.226562 20.425781 4.125 C 19.324219 3.023438 18.050781 2.160156 16.605469 1.535156 C 15.160156 0.910156 13.621094 0.597656 11.988281 0.597656 C 10.355469 0.597656 8.816406 0.910156 7.371094 1.535156 C 5.933594 2.160156 4.664062 3.023438 3.5625 4.125 C 2.46875 5.226562 1.609375 6.5 0.984375 7.945312 C 0.359375 9.382812 0.046875 10.917969 0.046875 12.550781 C 0.046875 14.183594 0.359375 15.722656 0.984375 17.167969 C 1.609375 18.605469 2.472656 19.875 3.574219 20.976562 C 4.675781 22.078125 5.945312 22.941406 7.382812 23.566406 C 8.828125 24.191406 10.367188 24.503906 12 24.503906 Z M 9.644531 12.574219 L 5.496094 16.722656 C 5.457031 16.644531 5.425781 16.535156 5.402344 16.394531 C 5.386719 16.253906 5.378906 16.074219 5.378906 15.855469 L 5.378906 9.246094 C 5.378906 8.824219 5.414062 8.546875 5.484375 8.414062 Z M 12.011719 13.195312 C 11.910156 13.195312 11.804688 13.175781 11.695312 13.136719 C 11.585938 13.097656 11.46875 13.019531 11.34375 12.902344 L 6.070312 7.617188 C 6.148438 7.554688 6.273438 7.5 6.445312 7.453125 C 6.617188 7.40625 6.828125 7.382812 7.078125 7.382812 L 16.945312 7.382812 C 17.195312 7.382812 17.40625 7.40625 17.578125 7.453125 C 17.75 7.5 17.871094 7.554688 17.941406 7.617188 L 12.667969 12.902344 C 12.464844 13.097656 12.246094 13.195312 12.011719 13.195312 Z M 14.34375 12.574219 L 18.503906 8.414062 C 18.574219 8.546875 18.609375 8.824219 18.609375 9.246094 L 18.609375 15.855469 C 18.609375 16.074219 18.597656 16.253906 18.574219 16.394531 C 18.558594 16.535156 18.53125 16.644531 18.492188 16.722656 Z M 12 14.15625 C 12.40625 14.15625 12.816406 13.964844 13.230469 13.582031 L 13.617188 13.21875 L 17.90625 17.496094 C 17.75 17.644531 17.425781 17.71875 16.933594 17.71875 L 7.078125 17.71875 C 6.578125 17.71875 6.253906 17.644531 6.105469 17.496094 L 10.382812 13.21875 L 10.769531 13.582031 C 11.191406 13.964844 11.601562 14.15625 12 14.15625 Z M 12 14.15625 "/>
</g>
</svg>
