<svg xmlns="http://www.w3.org/2000/svg" width="24" height="24"><path style="stroke:none;fill-rule:nonzero;fill:#fff;fill-opacity:1" d="M12 23.05c1.633 0 3.168-.292 4.605-.882a12.22 12.22 0 0 0 3.82-2.438 11.467 11.467 0 0 0 2.59-3.582c.626-1.363.938-2.808.938-4.347a10.2 10.2 0 0 0-.937-4.332 11.53 11.53 0 0 0-2.59-3.598 12.361 12.361 0 0 0-3.82-2.437A12.166 12.166 0 0 0 11.987.55c-1.633 0-3.172.293-4.617.883A12.307 12.307 0 0 0 3.562 3.87 11.523 11.523 0 0 0 .985 7.465 10.2 10.2 0 0 0 .047 11.8c0 1.539.312 2.984.937 4.347a11.467 11.467 0 0 0 2.59 3.582 12.236 12.236 0 0 0 3.809 2.438c1.445.59 2.984.883 4.617.883Zm-4.547-8.26c-.312 0-.57-.067-.773-.208-.196-.148-.293-.367-.293-.652 0-.293.093-.516.281-.66.195-.157.457-.23.785-.23h9.082c.32 0 .574.073.762.23.195.144.293.367.293.66 0 .285-.098.504-.293.652-.195.14-.45.207-.762.207Zm0-4.2c-.312 0-.57-.07-.773-.211-.196-.149-.293-.367-.293-.664 0-.293.093-.512.281-.66.195-.145.457-.22.785-.22h9.082c.32 0 .574.075.762.22.195.148.293.367.293.66 0 .297-.098.515-.293.664-.195.14-.45.21-.762.21Zm0 0"/></svg>