<svg width="20" height="15" viewBox="0 0 20 15" fill="none" xmlns="http://www.w3.org/2000/svg">
<path d="M8.35156 13.6953H12.7031C12.875 13.6953 13.0208 13.6328 13.1406 13.5078C13.2656 13.388 13.3281 13.2422 13.3281 13.0703C13.3281 12.8984 13.2656 12.75 13.1406 12.625C13.0208 12.5 12.875 12.4375 12.7031 12.4375H9.61719L8.35156 13.6953ZM15.0312 13.6953H18.7734C18.9453 13.6953 19.0911 13.6328 19.2109 13.5078C19.3359 13.388 19.3984 13.2422 19.3984 13.0703C19.3984 12.8984 19.3359 12.75 19.2109 12.625C19.0911 12.5 18.9453 12.4375 18.7734 12.4375H15.0312C14.8594 12.4375 14.7109 12.5 14.5859 12.625C14.4661 12.75 14.4062 12.8984 14.4062 13.0703C14.4062 13.2422 14.4661 13.388 14.5859 13.5078C14.7109 13.6328 14.8594 13.6953 15.0312 13.6953ZM1.42188 10.7812L3.98438 13.2578C4.5 13.7578 5.05208 14.0104 5.64062 14.0156C6.23438 14.026 6.77865 13.7839 7.27344 13.2891L8.03906 12.5156L2.07812 6.67969L1.32812 7.42969C0.994792 7.75781 0.773438 8.11458 0.664062 8.5C0.559896 8.88542 0.567708 9.27604 0.6875 9.67188C0.8125 10.0625 1.05729 10.4323 1.42188 10.7812ZM2.8125 5.94531L8.77344 11.7891L14.1484 6.40625C14.4766 6.07812 14.638 5.71094 14.6328 5.30469C14.6328 4.89323 14.4635 4.52344 14.125 4.19531L10.4219 0.578125C10.0885 0.25 9.71875 0.0859375 9.3125 0.0859375C8.90625 0.0807292 8.53906 0.239583 8.21094 0.5625L2.8125 5.94531Z" fill="white"/>
</svg>
