<svg width="16" height="17" viewBox="0 0 16 17" fill="none" xmlns="http://www.w3.org/2000/svg">
<path d="M8 16.3281C9.08854 16.3281 10.112 16.1198 11.0703 15.7031C12.0339 15.2865 12.8828 14.7109 13.6172 13.9766C14.3516 13.2422 14.9271 12.3958 15.3438 11.4375C15.7604 10.474 15.9688 9.44792 15.9688 8.35938C15.9688 7.27083 15.7604 6.2474 15.3438 5.28906C14.9271 4.32552 14.3516 3.47656 13.6172 2.74219C12.8828 2.00781 12.0339 1.43229 11.0703 1.01562C10.1068 0.598958 9.08073 0.390625 7.99219 0.390625C6.90365 0.390625 5.8776 0.598958 4.91406 1.01562C3.95573 1.43229 3.10938 2.00781 2.375 2.74219C1.64583 3.47656 1.07292 4.32552 0.65625 5.28906C0.239583 6.2474 0.03125 7.27083 0.03125 8.35938C0.03125 9.44792 0.239583 10.474 0.65625 11.4375C1.07292 12.3958 1.64844 13.2422 2.38281 13.9766C3.11719 14.7109 3.96354 15.2865 4.92188 15.7031C5.88542 16.1198 6.91146 16.3281 8 16.3281ZM8.1875 12.2578C7.35417 12.2578 6.67448 12.0104 6.14844 11.5156C5.6276 11.0156 5.28125 10.3672 5.10938 9.57031H4.34375C4.22917 9.57031 4.13542 9.53125 4.0625 9.45312C3.98958 9.36979 3.95312 9.27344 3.95312 9.16406C3.95312 9.04948 3.98958 8.95573 4.0625 8.88281C4.13542 8.8099 4.22917 8.77344 4.34375 8.77344H4.99219C4.98698 8.70573 4.98438 8.64062 4.98438 8.57812C4.98438 8.51042 4.98438 8.44271 4.98438 8.375C4.98438 8.29688 4.98438 8.22135 4.98438 8.14844C4.98958 8.07552 4.99479 8.0026 5 7.92969H4.34375C4.22917 7.92969 4.13542 7.89062 4.0625 7.8125C3.98958 7.73438 3.95312 7.64062 3.95312 7.53125C3.95312 7.41146 3.98958 7.3151 4.0625 7.24219C4.13542 7.16927 4.22917 7.13281 4.34375 7.13281H5.125C5.30729 6.33073 5.66667 5.69271 6.20312 5.21875C6.73958 4.74479 7.40104 4.50781 8.1875 4.50781C8.84375 4.50781 9.42708 4.66927 9.9375 4.99219C10.4531 5.3151 10.8073 5.7474 11 6.28906C11.026 6.35677 11.0443 6.42448 11.0547 6.49219C11.0703 6.55469 11.0781 6.6224 11.0781 6.69531C11.0833 6.84115 11.0391 6.96094 10.9453 7.05469C10.8568 7.14323 10.737 7.1875 10.5859 7.1875C10.4453 7.1875 10.3333 7.15625 10.25 7.09375C10.1719 7.03125 10.1094 6.92188 10.0625 6.76562C9.94271 6.34896 9.70833 6.03125 9.35938 5.8125C9.01042 5.59375 8.63021 5.48438 8.21875 5.48438C7.72396 5.48438 7.3099 5.63802 6.97656 5.94531C6.64323 6.2526 6.40365 6.64844 6.25781 7.13281H8.36719C8.48177 7.13281 8.57552 7.16927 8.64844 7.24219C8.72135 7.3151 8.75781 7.41146 8.75781 7.53125C8.75781 7.64062 8.72135 7.73438 8.64844 7.8125C8.57552 7.89062 8.48177 7.92969 8.36719 7.92969H6.09375C6.08854 8.0026 6.08333 8.07552 6.07812 8.14844C6.07292 8.22135 6.07031 8.29688 6.07031 8.375C6.07031 8.4375 6.07031 8.5026 6.07031 8.57031C6.07552 8.63802 6.08073 8.70573 6.08594 8.77344H8.36719C8.48177 8.77344 8.57552 8.8099 8.64844 8.88281C8.72135 8.95573 8.75781 9.04948 8.75781 9.16406C8.75781 9.27344 8.72135 9.36979 8.64844 9.45312C8.57552 9.53125 8.48177 9.57031 8.36719 9.57031H6.24219C6.38281 10.0755 6.61979 10.487 6.95312 10.8047C7.28646 11.1224 7.70833 11.2812 8.21875 11.2812C8.66146 11.2812 9.0599 11.1745 9.41406 10.9609C9.77344 10.7474 10.0078 10.4349 10.1172 10.0234C10.1641 9.88281 10.2292 9.77604 10.3125 9.70312C10.3958 9.63021 10.5052 9.59375 10.6406 9.59375C10.7917 9.59375 10.9115 9.64062 11 9.73438C11.0885 9.82292 11.1328 9.9401 11.1328 10.0859C11.1328 10.1589 11.125 10.2292 11.1094 10.2969C11.099 10.3646 11.0807 10.4323 11.0547 10.5C10.9141 10.8906 10.7057 11.2161 10.4297 11.4766C10.1536 11.737 9.82552 11.9323 9.44531 12.0625C9.0651 12.1927 8.64583 12.2578 8.1875 12.2578Z" fill="white"/>
</svg>
