<svg width="16" height="15" viewBox="0 0 16 15" fill="none" xmlns="http://www.w3.org/2000/svg">
<path d="M3.25781 14.5625H12.7344C13.5521 14.5625 14.1641 14.3594 14.5703 13.9531C14.9818 13.5521 15.1875 12.9479 15.1875 12.1406V2.60156C15.1875 1.79427 14.9818 1.1901 14.5703 0.789062C14.1641 0.382812 13.5521 0.179688 12.7344 0.179688H3.25781C2.4401 0.179688 1.82552 0.382812 1.41406 0.789062C1.00781 1.1901 0.804688 1.79427 0.804688 2.60156V12.1406C0.804688 12.9479 1.00781 13.5521 1.41406 13.9531C1.82552 14.3594 2.4401 14.5625 3.25781 14.5625ZM8.19531 11.2578C7.36198 11.2578 6.68229 11.0104 6.15625 10.5156C5.63542 10.0156 5.28906 9.36719 5.11719 8.57031H4.35156C4.23698 8.57031 4.14323 8.53125 4.07031 8.45312C3.9974 8.36979 3.96094 8.27344 3.96094 8.16406C3.96094 8.04948 3.9974 7.95573 4.07031 7.88281C4.14323 7.8099 4.23698 7.77344 4.35156 7.77344H5C4.99479 7.70573 4.99219 7.64062 4.99219 7.57812C4.99219 7.51042 4.99219 7.44271 4.99219 7.375C4.99219 7.29688 4.99219 7.22135 4.99219 7.14844C4.9974 7.07552 5.0026 7.0026 5.00781 6.92969H4.35156C4.23698 6.92969 4.14323 6.89062 4.07031 6.8125C3.9974 6.73438 3.96094 6.64062 3.96094 6.53125C3.96094 6.41146 3.9974 6.3151 4.07031 6.24219C4.14323 6.16927 4.23698 6.13281 4.35156 6.13281H5.13281C5.3151 5.33073 5.67448 4.69271 6.21094 4.21875C6.7474 3.74479 7.40885 3.50781 8.19531 3.50781C8.85156 3.50781 9.4349 3.66927 9.94531 3.99219C10.4609 4.3151 10.8151 4.7474 11.0078 5.28906C11.0339 5.35677 11.0521 5.42448 11.0625 5.49219C11.0781 5.55469 11.0859 5.6224 11.0859 5.69531C11.0911 5.84115 11.0469 5.96094 10.9531 6.05469C10.8646 6.14323 10.7448 6.1875 10.5938 6.1875C10.4531 6.1875 10.3411 6.15625 10.2578 6.09375C10.1797 6.03125 10.1172 5.92188 10.0703 5.76562C9.95052 5.34896 9.71615 5.03125 9.36719 4.8125C9.01823 4.59375 8.63802 4.48438 8.22656 4.48438C7.73177 4.48438 7.31771 4.63802 6.98438 4.94531C6.65104 5.2526 6.41146 5.64844 6.26562 6.13281H8.375C8.48958 6.13281 8.58333 6.16927 8.65625 6.24219C8.72917 6.3151 8.76562 6.41146 8.76562 6.53125C8.76562 6.64062 8.72917 6.73438 8.65625 6.8125C8.58333 6.89062 8.48958 6.92969 8.375 6.92969H6.10156C6.09635 7.0026 6.09115 7.07552 6.08594 7.14844C6.08073 7.22135 6.07812 7.29688 6.07812 7.375C6.07812 7.4375 6.07812 7.5026 6.07812 7.57031C6.08333 7.63802 6.08854 7.70573 6.09375 7.77344H8.375C8.48958 7.77344 8.58333 7.8099 8.65625 7.88281C8.72917 7.95573 8.76562 8.04948 8.76562 8.16406C8.76562 8.27344 8.72917 8.36979 8.65625 8.45312C8.58333 8.53125 8.48958 8.57031 8.375 8.57031H6.25C6.39062 9.07552 6.6276 9.48698 6.96094 9.80469C7.29427 10.1224 7.71615 10.2812 8.22656 10.2812C8.66927 10.2812 9.06771 10.1745 9.42188 9.96094C9.78125 9.7474 10.0156 9.4349 10.125 9.02344C10.1719 8.88281 10.237 8.77604 10.3203 8.70312C10.4036 8.63021 10.513 8.59375 10.6484 8.59375C10.7995 8.59375 10.9193 8.64062 11.0078 8.73438C11.0964 8.82292 11.1406 8.9401 11.1406 9.08594C11.1406 9.15885 11.1328 9.22917 11.1172 9.29688C11.1068 9.36458 11.0885 9.43229 11.0625 9.5C10.9219 9.89062 10.7135 10.2161 10.4375 10.4766C10.1615 10.737 9.83333 10.9323 9.45312 11.0625C9.07292 11.1927 8.65365 11.2578 8.19531 11.2578Z" fill="white"/>
</svg>
