<svg width="139" height="130" viewBox="0 0 139 130" fill="none" xmlns="http://www.w3.org/2000/svg">
<path d="M38.0625 129.938C39.3125 129.938 40.4375 129.604 41.4375 128.938C42.4792 128.312 43.75 127.312 45.25 125.938L67.8125 105.312H110.062C116.271 105.312 121.5 104.208 125.75 102C130 99.7917 133.208 96.5625 135.375 92.3125C137.583 88.0625 138.688 82.875 138.688 76.75V28.875C138.688 22.75 137.583 17.5625 135.375 13.3125C133.208 9.0625 130 5.83333 125.75 3.625C121.5 1.375 116.271 0.25 110.062 0.25H29.5625C23.3542 0.25 18.125 1.375 13.875 3.625C9.625 5.83333 6.39583 9.0625 4.1875 13.3125C2.02083 17.5625 0.9375 22.75 0.9375 28.875V76.75C0.9375 82.875 2.02083 88.0625 4.1875 92.3125C6.39583 96.5625 9.625 99.7917 13.875 102C18.125 104.208 23.3542 105.312 29.5625 105.312H32.5V123.5C32.5 125.458 32.9792 127.021 33.9375 128.188C34.8958 129.354 36.2708 129.938 38.0625 129.938ZM69.875 64.375C66.5417 64.375 64.8333 62.6667 64.75 59.25L63.9375 25.1875C63.8958 23.5625 64.4167 22.2083 65.5 21.125C66.625 20.0417 68.0625 19.5 69.8125 19.5C71.5208 19.5 72.9375 20.0625 74.0625 21.1875C75.2292 22.2708 75.7917 23.625 75.75 25.25L74.8125 59.25C74.7708 62.6667 73.125 64.375 69.875 64.375ZM69.875 85.3125C68 85.3125 66.3542 84.6667 64.9375 83.375C63.5625 82.0833 62.875 80.5 62.875 78.625C62.875 76.7917 63.5625 75.2083 64.9375 73.875C66.3125 72.5417 67.9583 71.875 69.875 71.875C71.75 71.875 73.375 72.5417 74.75 73.875C76.1667 75.1667 76.875 76.75 76.875 78.625C76.875 80.5 76.1667 82.0833 74.75 83.375C73.375 84.6667 71.75 85.3125 69.875 85.3125Z" fill="white"/>
</svg>
