<svg xmlns="http://www.w3.org/2000/svg" width="24" height="24"><path style="stroke:none;fill-rule:nonzero;fill:#fff;fill-opacity:1" d="M8.832 22.71h6.324c.438 0 .809-.05 1.114-.144.312-.093.59-.242.824-.43.234-.183.468-.406.699-.663l4.039-4.72c.23-.265.406-.51.531-.737a2.55 2.55 0 0 0 .262-.743c.047-.265.074-.578.074-.945V9.285c0-.367-.027-.683-.074-.945a2.471 2.471 0 0 0-.262-.742 4.318 4.318 0 0 0-.531-.739l-4.039-4.718a4.734 4.734 0 0 0-.7-.672 2.501 2.501 0 0 0-.823-.422c-.305-.102-.676-.152-1.114-.152H8.832c-.441 0-.816.05-1.125.152a2.476 2.476 0 0 0-.812.422c-.254.199-.485.422-.696.672L2.156 6.859c-.23.266-.406.512-.531.739-.125.226-.21.476-.262.742-.047.262-.07.578-.07.945v5.043c0 .367.023.68.07.945.051.262.137.504.262.743.125.226.3.476.531.738L6.2 21.473c.227.257.461.48.696.66.238.191.507.336.812.433.309.094.684.145 1.125.145ZM12 13.853c-.555 0-.84-.305-.855-.903l-.133-6.015a.955.955 0 0 1 .258-.715.984.984 0 0 1 .718-.285c.285 0 .524.097.711.296.192.192.285.43.281.72l-.156 6c-.008.597-.281.902-.824.902Zm0 3.695c-.313 0-.586-.117-.824-.344a1.146 1.146 0 0 1-.344-.84c0-.32.117-.597.344-.832.23-.238.504-.36.824-.36.313 0 .582.122.813.36.234.227.355.504.355.832 0 .332-.121.614-.355.84-.231.23-.5.344-.813.344Zm0 0"/></svg>