<?xml version="1.0" encoding="UTF-8"?>
<svg xmlns="http://www.w3.org/2000/svg" xmlns:xlink="http://www.w3.org/1999/xlink" width="24" height="27.428571" viewBox="0 0 24 27.428571" version="1.1">
<g id="surface1">
<path style=" stroke:none;fill-rule:nonzero;fill:rgb(100%,100%,100%);fill-opacity:1;" d="M 2.117188 19.78125 C 2.472656 19.78125 2.761719 19.675781 2.988281 19.460938 C 3.210938 19.246094 3.320312 18.957031 3.320312 18.589844 L 3.441406 2.988281 C 3.441406 2.601562 3.308594 2.292969 3.039062 2.0625 C 2.78125 1.820312 2.46875 1.699219 2.101562 1.699219 C 1.746094 1.699219 1.433594 1.820312 1.164062 2.0625 C 0.898438 2.292969 0.761719 2.601562 0.761719 2.988281 L 0.910156 18.589844 C 0.917969 18.957031 1.035156 19.246094 1.257812 19.460938 C 1.480469 19.675781 1.769531 19.78125 2.117188 19.78125 Z M 2.101562 27.160156 C 2.460938 27.160156 2.78125 27.074219 3.066406 26.90625 C 3.351562 26.738281 3.582031 26.503906 3.75 26.210938 C 3.917969 25.925781 4.003906 25.605469 4.003906 25.257812 C 4.003906 24.910156 3.917969 24.589844 3.75 24.292969 C 3.582031 24.007812 3.351562 23.78125 3.066406 23.613281 C 2.78125 23.441406 2.460938 23.355469 2.101562 23.355469 C 1.753906 23.355469 1.4375 23.441406 1.152344 23.613281 C 0.867188 23.78125 0.632812 24.007812 0.457031 24.292969 C 0.285156 24.589844 0.199219 24.910156 0.199219 25.257812 C 0.199219 25.605469 0.285156 25.925781 0.457031 26.210938 C 0.632812 26.503906 0.867188 26.738281 1.152344 26.90625 C 1.4375 27.074219 1.753906 27.160156 2.101562 27.160156 Z M 12 19.78125 C 12.355469 19.78125 12.648438 19.675781 12.871094 19.460938 C 13.09375 19.246094 13.207031 18.957031 13.207031 18.589844 L 13.324219 2.988281 C 13.324219 2.601562 13.191406 2.292969 12.925781 2.0625 C 12.664062 1.820312 12.351562 1.699219 11.988281 1.699219 C 11.628906 1.699219 11.316406 1.820312 11.050781 2.0625 C 10.78125 2.292969 10.648438 2.601562 10.648438 2.988281 L 10.792969 18.589844 C 10.804688 18.957031 10.917969 19.246094 11.144531 19.460938 C 11.367188 19.675781 11.652344 19.78125 12 19.78125 Z M 11.988281 27.160156 C 12.34375 27.160156 12.664062 27.074219 12.949219 26.90625 C 13.238281 26.738281 13.464844 26.503906 13.632812 26.210938 C 13.804688 25.925781 13.886719 25.605469 13.886719 25.257812 C 13.886719 24.910156 13.804688 24.589844 13.632812 24.292969 C 13.464844 24.007812 13.238281 23.78125 12.949219 23.613281 C 12.664062 23.441406 12.34375 23.355469 11.988281 23.355469 C 11.636719 23.355469 11.320312 23.441406 11.035156 23.613281 C 10.75 23.78125 10.519531 24.007812 10.339844 24.292969 C 10.167969 24.589844 10.085938 24.910156 10.085938 25.257812 C 10.085938 25.605469 10.167969 25.925781 10.339844 26.210938 C 10.519531 26.503906 10.75 26.738281 11.035156 26.90625 C 11.320312 27.074219 11.636719 27.160156 11.988281 27.160156 Z M 21.882812 19.78125 C 22.242188 19.78125 22.53125 19.675781 22.753906 19.460938 C 22.976562 19.246094 23.089844 18.957031 23.089844 18.589844 L 23.210938 2.988281 C 23.210938 2.601562 23.074219 2.292969 22.808594 2.0625 C 22.550781 1.820312 22.238281 1.699219 21.871094 1.699219 C 21.511719 1.699219 21.199219 1.820312 20.933594 2.0625 C 20.664062 2.292969 20.53125 2.601562 20.53125 2.988281 L 20.679688 18.589844 C 20.6875 18.957031 20.804688 19.246094 21.027344 19.460938 C 21.25 19.675781 21.535156 19.78125 21.882812 19.78125 Z M 21.871094 27.160156 C 22.226562 27.160156 22.550781 27.074219 22.835938 26.90625 C 23.121094 26.738281 23.347656 26.503906 23.519531 26.210938 C 23.6875 25.925781 23.773438 25.605469 23.773438 25.257812 C 23.773438 24.910156 23.6875 24.589844 23.519531 24.292969 C 23.347656 24.007812 23.121094 23.78125 22.835938 23.613281 C 22.550781 23.441406 22.226562 23.355469 21.871094 23.355469 C 21.523438 23.355469 21.207031 23.441406 20.917969 23.613281 C 20.632812 23.78125 20.402344 24.007812 20.222656 24.292969 C 20.054688 24.589844 19.96875 24.910156 19.96875 25.257812 C 19.96875 25.605469 20.054688 25.925781 20.222656 26.210938 C 20.402344 26.503906 20.632812 26.738281 20.917969 26.90625 C 21.207031 27.074219 21.523438 27.160156 21.871094 27.160156 Z M 21.871094 27.160156 "/>
</g>
</svg>
