<svg width="102" height="120" viewBox="0 0 102 120" fill="none" xmlns="http://www.w3.org/2000/svg">
<path d="M9.875 85.3125C11.5417 85.3125 12.8958 84.8125 13.9375 83.8125C14.9792 82.8125 15.5 81.4583 15.5 79.75L16.0625 6.9375C16.0625 5.14583 15.4375 3.70833 14.1875 2.625C12.9792 1.5 11.5208 0.9375 9.8125 0.9375C8.14583 0.9375 6.6875 1.5 5.4375 2.625C4.1875 3.70833 3.5625 5.14583 3.5625 6.9375L4.25 79.75C4.29167 81.4583 4.83333 82.8125 5.875 83.8125C6.91667 84.8125 8.25 85.3125 9.875 85.3125ZM9.8125 119.75C11.4792 119.75 12.9792 119.354 14.3125 118.562C15.6458 117.771 16.7083 116.688 17.5 115.312C18.2917 113.979 18.6875 112.5 18.6875 110.875C18.6875 109.25 18.2917 107.75 17.5 106.375C16.7083 105.042 15.6458 103.979 14.3125 103.188C12.9792 102.396 11.4792 102 9.8125 102C8.1875 102 6.70833 102.396 5.375 103.188C4.04167 103.979 2.95833 105.042 2.125 106.375C1.33333 107.75 0.9375 109.25 0.9375 110.875C0.9375 112.5 1.33333 113.979 2.125 115.312C2.95833 116.688 4.04167 117.771 5.375 118.562C6.70833 119.354 8.1875 119.75 9.8125 119.75ZM64.9375 85.5625C67.1042 85.5625 68.6875 84.8958 69.6875 83.5625C70.7292 82.2292 71.25 80.5625 71.25 78.5625C71.25 78.1875 71.25 77.8333 71.25 77.5C71.25 77.125 71.25 76.7708 71.25 76.4375C71.2917 73.6875 71.7083 71.3542 72.5 69.4375C73.2917 67.5208 74.625 65.6875 76.5 63.9375C78.4167 62.1875 81.0417 60.1667 84.375 57.875C89.7083 54.25 93.9583 50.25 97.125 45.875C100.292 41.4583 101.875 36.2292 101.875 30.1875C101.875 23.9375 100.333 18.625 97.25 14.25C94.2083 9.83333 90.0833 6.47917 84.875 4.1875C79.7083 1.85417 73.9792 0.6875 67.6875 0.6875C62.9792 0.6875 58.5208 1.41667 54.3125 2.875C50.1458 4.33333 46.4583 6.45833 43.25 9.25C40.0833 12.0417 37.6042 15.4375 35.8125 19.4375C35.1458 20.8958 34.6667 22.3333 34.375 23.75C34.0833 25.125 33.9375 26.4167 33.9375 27.625C33.9375 29.4167 34.4375 30.875 35.4375 32C36.4792 33.125 37.9375 33.6875 39.8125 33.6875C41.3958 33.6875 42.7083 33.25 43.75 32.375C44.8333 31.5 45.6042 30.2917 46.0625 28.75C47.1458 24.7917 48.7083 21.625 50.75 19.25C52.7917 16.8333 55.2083 15.0833 58 14C60.7917 12.9167 63.875 12.375 67.25 12.375C71.2917 12.375 74.9583 13.1042 78.25 14.5625C81.5417 15.9792 84.1458 18.0208 86.0625 20.6875C87.9792 23.3542 88.9375 26.5 88.9375 30.125C88.9375 33.125 88.3542 35.75 87.1875 38C86.0625 40.2083 84.4792 42.25 82.4375 44.125C80.3958 45.9583 78.0417 47.8125 75.375 49.6875C72.125 51.9792 69.2083 54.3542 66.625 56.8125C64.0833 59.2708 62.0625 61.9792 60.5625 64.9375C59.1042 67.8542 58.375 71.1458 58.375 74.8125C58.375 75.4792 58.375 76.1458 58.375 76.8125C58.375 77.4375 58.375 78.0833 58.375 78.75C58.375 80.75 58.9167 82.3958 60 83.6875C61.125 84.9375 62.7708 85.5625 64.9375 85.5625ZM64.9375 119.75C66.5625 119.75 68.0417 119.354 69.375 118.562C70.75 117.771 71.8333 116.688 72.625 115.312C73.4167 113.979 73.8125 112.5 73.8125 110.875C73.8125 109.25 73.4167 107.75 72.625 106.375C71.8333 105.042 70.75 103.979 69.375 103.188C68.0417 102.396 66.5625 102 64.9375 102C63.3125 102 61.8125 102.396 60.4375 103.188C59.1042 103.979 58.0417 105.042 57.25 106.375C56.4583 107.75 56.0625 109.25 56.0625 110.875C56.0625 112.5 56.4583 113.979 57.25 115.312C58.0417 116.688 59.1042 117.771 60.4375 118.562C61.8125 119.354 63.3125 119.75 64.9375 119.75Z" fill="white"/>
</svg>
