<?xml version="1.0" encoding="UTF-8"?>
<svg xmlns="http://www.w3.org/2000/svg" xmlns:xlink="http://www.w3.org/1999/xlink" width="24" height="25.333333" viewBox="0 0 24 25.333333" version="1.1">
<g id="surface1">
<path style=" stroke:none;fill-rule:nonzero;fill:rgb(100%,100%,100%);fill-opacity:1;" d="M 0.957031 13.019531 C 0.957031 13.839844 1.152344 14.574219 1.542969 15.21875 C 1.929688 15.863281 2.464844 16.375 3.144531 16.75 C 3.828125 17.117188 4.597656 17.300781 5.457031 17.300781 L 18.542969 17.300781 C 19.410156 17.300781 20.179688 17.117188 20.855469 16.75 C 21.535156 16.375 22.070312 15.863281 22.457031 15.21875 C 22.847656 14.574219 23.042969 13.839844 23.042969 13.019531 C 23.042969 12.667969 22.996094 12.328125 22.90625 12.011719 C 22.824219 11.691406 22.722656 11.382812 22.605469 11.082031 L 19.46875 3.582031 C 19.164062 2.832031 18.703125 2.265625 18.082031 1.875 C 17.464844 1.480469 16.722656 1.28125 15.855469 1.28125 L 8.144531 1.28125 C 6.367188 1.28125 5.160156 2.046875 4.519531 3.582031 L 1.394531 11.082031 C 1.269531 11.390625 1.167969 11.703125 1.082031 12.03125 C 1 12.351562 0.957031 12.679688 0.957031 13.019531 Z M 4.1875 8.949219 L 6.136719 4.03125 C 6.476562 3.175781 7.171875 2.75 8.230469 2.75 L 15.78125 2.75 C 16.835938 2.75 17.535156 3.175781 17.875 4.03125 L 19.824219 8.949219 C 19.621094 8.878906 19.414062 8.828125 19.199219 8.800781 C 18.988281 8.765625 18.769531 8.75 18.542969 8.75 L 5.457031 8.75 C 5.234375 8.75 5.015625 8.765625 4.800781 8.800781 C 4.59375 8.828125 4.390625 8.878906 4.1875 8.949219 Z M 2.613281 13.019531 C 2.613281 12.515625 2.734375 12.066406 2.980469 11.675781 C 3.222656 11.28125 3.554688 10.972656 3.980469 10.75 C 4.410156 10.519531 4.902344 10.40625 5.457031 10.40625 L 18.542969 10.40625 C 19.097656 10.40625 19.585938 10.519531 20.011719 10.75 C 20.441406 10.972656 20.777344 11.28125 21.019531 11.675781 C 21.265625 12.066406 21.386719 12.515625 21.386719 13.019531 C 21.386719 13.570312 21.269531 14.039062 21.042969 14.425781 C 20.820312 14.816406 20.496094 15.113281 20.074219 15.324219 C 19.648438 15.53125 19.140625 15.636719 18.542969 15.636719 L 5.457031 15.636719 C 4.902344 15.636719 4.410156 15.523438 3.980469 15.300781 C 3.554688 15.078125 3.222656 14.773438 2.980469 14.386719 C 2.734375 13.988281 2.613281 13.535156 2.613281 13.019531 Z M 17.292969 13.019531 C 17.292969 13.367188 17.410156 13.664062 17.644531 13.90625 C 17.890625 14.140625 18.183594 14.261719 18.53125 14.261719 C 18.863281 14.253906 19.152344 14.132812 19.394531 13.894531 C 19.640625 13.652344 19.761719 13.359375 19.761719 13.019531 C 19.761719 12.695312 19.640625 12.410156 19.394531 12.167969 C 19.152344 11.917969 18.863281 11.792969 18.53125 11.792969 C 18.199219 11.792969 17.90625 11.917969 17.65625 12.167969 C 17.414062 12.410156 17.292969 12.695312 17.292969 13.019531 Z M 10.980469 22.105469 L 12.65625 22.105469 L 12.65625 16.238281 L 10.980469 16.238281 Z M 3.15625 22.9375 L 20.480469 22.9375 C 20.707031 22.9375 20.90625 22.855469 21.074219 22.6875 C 21.238281 22.527344 21.324219 22.332031 21.324219 22.105469 C 21.324219 21.867188 21.238281 21.667969 21.074219 21.5 C 20.90625 21.339844 20.707031 21.261719 20.480469 21.261719 L 3.15625 21.261719 C 2.925781 21.261719 2.730469 21.339844 2.5625 21.5 C 2.402344 21.667969 2.324219 21.867188 2.324219 22.105469 C 2.324219 22.332031 2.402344 22.527344 2.5625 22.6875 C 2.730469 22.855469 2.925781 22.9375 3.15625 22.9375 Z M 11.824219 24.46875 C 12.253906 24.46875 12.644531 24.359375 13 24.144531 C 13.355469 23.929688 13.640625 23.644531 13.855469 23.292969 C 14.070312 22.9375 14.175781 22.546875 14.175781 22.113281 C 14.175781 21.683594 14.070312 21.289062 13.855469 20.925781 C 13.640625 20.574219 13.355469 20.289062 13 20.074219 C 12.644531 19.863281 12.253906 19.761719 11.824219 19.761719 C 11.390625 19.761719 10.996094 19.863281 10.636719 20.074219 C 10.28125 20.289062 9.996094 20.574219 9.78125 20.925781 C 9.574219 21.289062 9.46875 21.683594 9.46875 22.113281 C 9.46875 22.546875 9.574219 22.9375 9.78125 23.292969 C 9.996094 23.644531 10.28125 23.929688 10.636719 24.144531 C 10.996094 24.359375 11.390625 24.46875 11.824219 24.46875 Z M 11.824219 24.46875 "/>
</g>
</svg>
