<svg xmlns="http://www.w3.org/2000/svg" width="24" height="24"><path style="stroke:none;fill-rule:nonzero;fill:#fff;fill-opacity:1" d="M.957 12.336c0 .777.195 1.473.586 2.082.387.61.941 1.113 1.602 1.45.683.347 1.453.523 2.312.523h13.086c.867 0 1.637-.176 2.312-.524a4.099 4.099 0 0 0 1.602-1.449c.39-.61.586-1.309.586-2.086 0-.332-.047-.652-.137-.953a7.066 7.066 0 0 0-.3-.879l-3.137-7.105c-.305-.711-.766-1.247-1.387-1.618-.617-.375-1.36-.562-2.227-.562h-7.71c-1.778 0-2.985.722-3.625 2.18L1.395 10.5c-.125.293-.23.594-.313.898a3.57 3.57 0 0 0-.125.938Zm3.23-3.856 1.95-4.66c.34-.812 1.035-1.215 2.093-1.215h7.551c1.055 0 1.754.403 2.094 1.215l1.95 4.657a3.076 3.076 0 0 0-.626-.137 4.127 4.127 0 0 0-.656-.05H5.457c-.223 0-.441.015-.656.046-.207.027-.41.074-.614.144Zm-1.574 3.856c0-.48.121-.906.367-1.274.243-.374.586-.68 1-.878.43-.22.922-.325 1.477-.325h13.086c.555 0 1.043.106 1.469.325.43.21.765.504 1.008.879.246.367.367.792.367 1.273 0 .52-.117.965-.344 1.332a2.223 2.223 0 0 1-.969.852c-.426.195-.933.293-1.531.293H5.457c-.555 0-1.047-.106-1.477-.317a2.48 2.48 0 0 1-1-.867 2.29 2.29 0 0 1-.367-1.293Zm14.68 0c0 .328.117.61.352.84.488.453 1.27.449 1.75-.012a1.095 1.095 0 0 0 0-1.637 1.21 1.21 0 0 0-.864-.355c-.332 0-.625.117-.875.355-.234.211-.363.504-.363.809ZM10.98 20.94h1.676v-5.558H10.98Zm-7.824.79H20.48a.852.852 0 0 0 .594-.239.73.73 0 0 0 .25-.55.772.772 0 0 0-.246-.567.838.838 0 0 0-.598-.23H3.156a.856.856 0 0 0-.594.222.788.788 0 0 0-.238.574.73.73 0 0 0 .239.551c.167.16.363.238.593.238Zm8.668 1.449c.43 0 .82-.102 1.176-.305.355-.203.64-.473.855-.809.215-.336.32-.707.32-1.117a2.08 2.08 0 0 0-.32-1.125A2.417 2.417 0 0 0 13 19.02a2.32 2.32 0 0 0-1.176-.297c-.433 0-.828.093-1.187.297-.356.203-.64.472-.856.804-.207.344-.316.73-.312 1.125 0 .41.105.781.312 1.117.215.336.5.606.856.809.36.203.754.305 1.187.305Zm0 0"/></svg>