<svg width="130" height="139" viewBox="0 0 130 139" fill="none" xmlns="http://www.w3.org/2000/svg">
<path d="M23.0625 42.4375H107.25C112.417 42.4375 117.146 43.5208 121.438 45.6875L108.125 13.5625C106.417 9.3125 103.792 6.08333 100.25 3.875C96.7083 1.66667 92.5208 0.5625 87.6875 0.5625H42.625C37.7917 0.5625 33.6042 1.66667 30.0625 3.875C26.5208 6.08333 23.8958 9.3125 22.1875 13.5625L8.8125 45.6875C13.1042 43.5208 17.8542 42.4375 23.0625 42.4375ZM23.0625 94.0625H107.25C111.625 94.0625 115.458 93.1458 118.75 91.3125C122.083 89.4375 124.688 86.8542 126.562 83.5625C128.438 80.2708 129.375 76.4583 129.375 72.125C129.375 67.7917 128.438 63.9792 126.562 60.6875C124.688 57.3542 122.083 54.75 118.75 52.875C115.458 51 111.625 50.0625 107.25 50.0625H23.0625C18.6875 50.0625 14.8333 51 11.5 52.875C8.16667 54.75 5.5625 57.3542 3.6875 60.6875C1.85417 63.9792 0.9375 67.7917 0.9375 72.125C0.9375 76.4583 1.85417 80.2708 3.6875 83.5625C5.5625 86.8542 8.16667 89.4375 11.5 91.3125C14.8333 93.1458 18.6875 94.0625 23.0625 94.0625ZM99.1875 72.125C99.1875 70.2083 99.8958 68.5417 101.312 67.125C102.771 65.6667 104.458 64.9375 106.375 64.9375C108.333 64.9375 110.021 65.6667 111.438 67.125C112.896 68.5417 113.625 70.2083 113.625 72.125C113.625 74.125 112.896 75.8125 111.438 77.1875C110.021 78.5625 108.333 79.2708 106.375 79.3125C104.458 79.3125 102.771 78.625 101.312 77.25C99.8958 75.875 99.1875 74.1667 99.1875 72.125ZM60.125 124.625H70.1875V89.4375H60.125V124.625ZM13.1875 129.625H117.125C118.5 129.625 119.667 129.125 120.625 128.125C121.625 127.167 122.125 126 122.125 124.625C122.125 123.208 121.625 122 120.625 121C119.667 120.042 118.5 119.562 117.125 119.562H13.1875C11.8125 119.562 10.625 120.042 9.625 121C8.66667 122 8.1875 123.208 8.1875 124.625C8.1875 126 8.66667 127.167 9.625 128.125C10.625 129.125 11.8125 129.625 13.1875 129.625ZM65.125 138.812C67.7083 138.812 70.0625 138.167 72.1875 136.875C74.3542 135.583 76.0625 133.875 77.3125 131.75C78.6042 129.625 79.25 127.271 79.25 124.688C79.25 122.104 78.6042 119.729 77.3125 117.562C76.0625 115.438 74.3542 113.729 72.1875 112.438C70.0625 111.188 67.7083 110.562 65.125 110.562C62.5833 110.562 60.2292 111.188 58.0625 112.438C55.9375 113.729 54.2292 115.438 52.9375 117.562C51.6875 119.729 51.0625 122.104 51.0625 124.688C51.0625 127.271 51.6875 129.625 52.9375 131.75C54.2292 133.875 55.9375 135.583 58.0625 136.875C60.2292 138.167 62.5833 138.812 65.125 138.812Z" fill="white"/>
</svg>
