<svg width="145" height="106" viewBox="0 0 145 106" fill="none" xmlns="http://www.w3.org/2000/svg">
<path d="M25.6875 105.25H120C124.875 105.25 129.167 104.208 132.875 102.125C136.625 100.042 139.542 97.1667 141.625 93.5C143.708 89.7917 144.75 85.5208 144.75 80.6875C144.75 75.8542 143.708 71.5833 141.625 67.875C139.542 64.1667 136.625 61.2708 132.875 59.1875C129.167 57.1042 124.875 56.0625 120 56.0625H25.6875C20.8125 56.0625 16.5 57.1042 12.75 59.1875C9.04167 61.2708 6.14583 64.1667 4.0625 67.875C1.97917 71.5833 0.9375 75.8542 0.9375 80.6875C0.9375 85.5208 1.97917 89.7917 4.0625 93.5C6.14583 97.1667 9.04167 100.042 12.75 102.125C16.5 104.208 20.8125 105.25 25.6875 105.25ZM25.6875 47.5H120C125.792 47.5 131.083 48.7292 135.875 51.1875L120.938 15.125C118.979 10.4167 116.021 6.83333 112.062 4.375C108.146 1.875 103.479 0.625 98.0625 0.625H47.625C42.25 0.625 37.5833 1.875 33.625 4.375C29.6667 6.83333 26.7083 10.4167 24.75 15.125L9.75 51.1875C12.0833 50.0208 14.5833 49.125 17.25 48.5C19.9167 47.8333 22.7292 47.5 25.6875 47.5ZM111 80.6875C111 78.5625 111.792 76.7083 113.375 75.125C115 73.5 116.917 72.6875 119.125 72.6875C121.25 72.6875 123.104 73.5 124.688 75.125C126.312 76.7083 127.125 78.5625 127.125 80.6875C127.125 82.9375 126.312 84.8333 124.688 86.375C123.104 87.9167 121.25 88.6875 119.125 88.6875C116.917 88.7292 115 87.9792 113.375 86.4375C111.792 84.8542 111 82.9375 111 80.6875Z" fill="white"/>
</svg>
