<svg width="18" height="14" viewBox="0 0 18 14" fill="none" xmlns="http://www.w3.org/2000/svg">
<path d="M3.10156 13.9062H14.8906C15.5 13.9062 16.0365 13.776 16.5 13.5156C16.9688 13.2552 17.3333 12.8958 17.5938 12.4375C17.8542 11.974 17.9844 11.4401 17.9844 10.8359C17.9844 10.2318 17.8542 9.69792 17.5938 9.23438C17.3333 8.77083 16.9688 8.40885 16.5 8.14844C16.0365 7.88802 15.5 7.75781 14.8906 7.75781H3.10156C2.49219 7.75781 1.95312 7.88802 1.48438 8.14844C1.02083 8.40885 0.658854 8.77083 0.398438 9.23438C0.138021 9.69792 0.0078125 10.2318 0.0078125 10.8359C0.0078125 11.4401 0.138021 11.974 0.398438 12.4375C0.658854 12.8958 1.02083 13.2552 1.48438 13.5156C1.95312 13.776 2.49219 13.9062 3.10156 13.9062ZM3.10156 6.6875H14.8906C15.6146 6.6875 16.276 6.84115 16.875 7.14844L15.0078 2.64062C14.763 2.05208 14.3932 1.60417 13.8984 1.29688C13.4089 0.984375 12.8255 0.828125 12.1484 0.828125H5.84375C5.17188 0.828125 4.58854 0.984375 4.09375 1.29688C3.59896 1.60417 3.22917 2.05208 2.98438 2.64062L1.10938 7.14844C1.40104 7.0026 1.71354 6.89062 2.04688 6.8125C2.38021 6.72917 2.73177 6.6875 3.10156 6.6875ZM13.7656 10.8359C13.7656 10.5703 13.8646 10.3385 14.0625 10.1406C14.2656 9.9375 14.5052 9.83594 14.7812 9.83594C15.0469 9.83594 15.2786 9.9375 15.4766 10.1406C15.6797 10.3385 15.7812 10.5703 15.7812 10.8359C15.7812 11.1172 15.6797 11.3542 15.4766 11.5469C15.2786 11.7396 15.0469 11.8359 14.7812 11.8359C14.5052 11.8411 14.2656 11.7474 14.0625 11.5547C13.8646 11.3568 13.7656 11.1172 13.7656 10.8359Z" fill="white"/>
</svg>
