<svg width="170" height="108" viewBox="0 0 170 108" fill="none" xmlns="http://www.w3.org/2000/svg">
<path d="M85.1875 107.062C93.5208 107.062 101.396 106.062 108.812 104.062C116.229 102.062 123.083 99.4167 129.375 96.125C135.667 92.8333 141.292 89.2083 146.25 85.25C151.25 81.2917 155.5 77.3125 159 73.3125C162.542 69.3125 165.229 65.625 167.062 62.25C168.938 58.8333 169.875 56.0625 169.875 53.9375C169.875 51.8125 168.938 49.0625 167.062 45.6875C165.229 42.2708 162.542 38.5625 159 34.5625C155.5 30.5625 151.25 26.5833 146.25 22.625C141.25 18.6667 135.604 15.0417 129.312 11.75C123.021 8.45833 116.167 5.8125 108.75 3.8125C101.375 1.8125 93.5208 0.8125 85.1875 0.8125C76.9375 0.8125 69.125 1.8125 61.75 3.8125C54.375 5.8125 47.5417 8.45833 41.25 11.75C34.9583 15.0417 29.2917 18.6667 24.25 22.625C19.25 26.5833 14.9583 30.5625 11.375 34.5625C7.83333 38.5625 5.125 42.2708 3.25 45.6875C1.375 49.0625 0.4375 51.8125 0.4375 53.9375C0.4375 56.0625 1.375 58.8333 3.25 62.25C5.125 65.625 7.83333 69.3125 11.375 73.3125C14.9583 77.3125 19.25 81.2917 24.25 85.25C29.2917 89.2083 34.9583 92.8333 41.25 96.125C47.5417 99.4167 54.375 102.062 61.75 104.062C69.125 106.062 76.9375 107.062 85.1875 107.062ZM85.1875 88.75C80.3125 88.75 75.75 87.8542 71.5 86.0625C67.2917 84.2292 63.5833 81.7083 60.375 78.5C57.2083 75.25 54.7292 71.5417 52.9375 67.375C51.1458 63.1667 50.2292 58.6875 50.1875 53.9375C50.1458 49.0625 51.0208 44.5208 52.8125 40.3125C54.6458 36.1042 57.1458 32.4167 60.3125 29.25C63.5208 26.0417 67.25 23.5625 71.5 21.8125C75.75 20.0208 80.3125 19.125 85.1875 19.125C90.0208 19.125 94.5417 20.0208 98.75 21.8125C103 23.5625 106.708 26.0417 109.875 29.25C113.083 32.4167 115.583 36.1042 117.375 40.3125C119.208 44.5208 120.125 49.0625 120.125 53.9375C120.125 58.6875 119.208 63.1667 117.375 67.375C115.583 71.5417 113.083 75.25 109.875 78.5C106.708 81.7083 103 84.2292 98.75 86.0625C94.5417 87.8542 90.0208 88.75 85.1875 88.75ZM85.1875 66.5C88.6458 66.5 91.625 65.2708 94.125 62.8125C96.625 60.3125 97.875 57.3542 97.875 53.9375C97.875 50.4792 96.625 47.5208 94.125 45.0625C91.625 42.5625 88.6458 41.3125 85.1875 41.3125C81.6875 41.3125 78.6875 42.5625 76.1875 45.0625C73.6875 47.5208 72.4375 50.4792 72.4375 53.9375C72.4375 57.3542 73.6875 60.3125 76.1875 62.8125C78.6875 65.2708 81.6875 66.5 85.1875 66.5Z" fill="white"/>
</svg>
