<svg xmlns="http://www.w3.org/2000/svg" width="24" height="24"><path style="stroke:none;fill-rule:nonzero;fill:#fff;fill-opacity:1" d="M4.887 23.3h14.215c1.226 0 2.144-.323 2.753-.976.618-.64.926-1.605.926-2.898V4.164c0-1.293-.308-2.258-.926-2.898-.609-.653-1.527-.977-2.753-.977H4.887c-1.227 0-2.149.324-2.766.977-.61.64-.914 1.605-.914 2.898v15.262c0 1.293.305 2.258.914 2.902.617.649 1.54.973 2.766.973ZM12 17.05a7.901 7.901 0 0 1-2.59-.413 10.002 10.002 0 0 1-2.191-1.075 11.087 11.087 0 0 1-1.676-1.386c-.461-.492-.816-.953-1.066-1.375-.25-.434-.375-.778-.375-1.024 0-.254.125-.59.375-1.015.25-.434.605-.89 1.066-1.375A9.911 9.911 0 0 1 7.219 8a8.98 8.98 0 0 1 2.18-1.074A7.78 7.78 0 0 1 12 6.5c.93 0 1.797.14 2.602.426.77.254 1.5.617 2.18 1.074a9.494 9.494 0 0 1 1.663 1.387c.461.484.817.941 1.067 1.375.25.425.375.761.375 1.015 0 .246-.125.59-.375 1.024-.25.422-.606.883-1.067 1.375-.46.48-1.015.945-1.664 1.386a9.666 9.666 0 0 1-2.18 1.075A7.987 7.987 0 0 1 12 17.05Zm0-1.823c.594 0 1.137-.157 1.629-.465a3.52 3.52 0 0 0 1.605-2.988c0-.641-.144-1.22-.433-1.735a3.342 3.342 0 0 0-1.172-1.25A3.031 3.031 0 0 0 12 8.324a3.003 3.003 0 0 0-1.64.465 3.435 3.435 0 0 0-1.184 1.25 3.47 3.47 0 0 0-.434 1.738c0 .621.145 1.2.434 1.723.297.523.691.945 1.183 1.262a3 3 0 0 0 1.641.46Zm.012-1.926c-.39 0-.73-.156-1.02-.465a1.524 1.524 0 0 1-.422-1.063c0-.398.14-.753.422-1.062.29-.309.63-.461 1.02-.461.375 0 .703.152.984.46.29.31.434.665.434 1.063 0 .403-.145.754-.434 1.063-.281.312-.61.465-.984.465Zm0 0"/></svg>