<svg xmlns="http://www.w3.org/2000/svg" width="24" height="24"><path style="stroke:none;fill-rule:nonzero;fill:#fff;fill-opacity:1" d="M12 23.063c1.633 0 3.168-.293 4.605-.883a12.29 12.29 0 0 0 3.82-2.438 11.482 11.482 0 0 0 2.59-3.586c.626-1.36.938-2.804.938-4.343 0-1.536-.312-2.981-.937-4.336a11.514 11.514 0 0 0-2.59-3.594 12.22 12.22 0 0 0-3.82-2.438 12.166 12.166 0 0 0-4.618-.883c-1.633 0-3.172.293-4.617.883a12.307 12.307 0 0 0-3.809 2.438A11.523 11.523 0 0 0 .985 7.477a10.187 10.187 0 0 0-.937 4.335c0 1.54.312 2.985.937 4.344a11.438 11.438 0 0 0 2.59 3.586 12.307 12.307 0 0 0 3.809 2.438c1.445.59 2.984.883 4.617.883Zm0-6.586a8.774 8.774 0 0 1-2.59-.364c-.77-.234-1.504-.55-2.191-.949a10.345 10.345 0 0 1-1.676-1.223c-.461-.433-.816-.84-1.066-1.214-.25-.383-.375-.684-.375-.903 0-.222.125-.52.375-.894.25-.383.605-.785 1.066-1.215.512-.461 1.07-.871 1.676-1.223a9.675 9.675 0 0 1 2.18-.949A8.862 8.862 0 0 1 12 7.168c.93 0 1.797.125 2.602.375.765.227 1.5.547 2.18.95.648.382 1.202.788 1.663 1.222.461.43.817.832 1.067 1.215.25.375.375.672.375.894 0 .219-.125.52-.375.903-.25.375-.606.78-1.067 1.214a9.98 9.98 0 0 1-3.843 2.172 8.87 8.87 0 0 1-2.602.364Zm0-1.61c.594 0 1.137-.137 1.629-.406a3.272 3.272 0 0 0 1.172-1.113 2.83 2.83 0 0 0 .433-1.524c0-.566-.144-1.078-.433-1.535a3.177 3.177 0 0 0-1.172-1.101A3.33 3.33 0 0 0 12 8.777a3.364 3.364 0 0 0-1.64.41c-.493.273-.887.64-1.184 1.101a2.797 2.797 0 0 0-.434 1.535c0 .551.145 1.059.434 1.524.297.46.691.832 1.183 1.113a3.308 3.308 0 0 0 1.641.406Zm.012-1.699c-.39 0-.73-.133-1.02-.406a1.273 1.273 0 0 1-.422-.938c0-.355.14-.668.422-.937.29-.274.63-.41 1.02-.41.375 0 .703.136.984.41.29.273.434.582.434.937 0 .352-.145.664-.434.938-.281.273-.61.406-.984.406Zm0 0"/></svg>