<svg width="172" height="108" viewBox="0 0 172 108" fill="none" xmlns="http://www.w3.org/2000/svg">
<path d="M86.1875 107.5C94.6042 107.5 102.542 106.479 110 104.438C117.5 102.438 124.417 99.7917 130.75 96.5C137.083 93.1667 142.75 89.5 147.75 85.5C152.792 81.5 157.083 77.5 160.625 73.5C164.167 69.4583 166.875 65.7292 168.75 62.3125C170.625 58.8542 171.562 56.0625 171.562 53.9375C171.562 51.8125 170.625 49.0417 168.75 45.625C166.875 42.1667 164.167 38.4375 160.625 34.4375C157.083 30.3958 152.792 26.375 147.75 22.375C142.75 18.375 137.062 14.7292 130.688 11.4375C124.354 8.10417 117.438 5.4375 109.938 3.4375C102.479 1.39583 94.5625 0.375 86.1875 0.375C77.8958 0.375 70.0208 1.39583 62.5625 3.4375C55.1458 5.4375 48.25 8.10417 41.875 11.4375C35.5417 14.7292 29.8333 18.375 24.75 22.375C19.7083 26.375 15.3958 30.3958 11.8125 34.4375C8.22917 38.4375 5.47917 42.1667 3.5625 45.625C1.6875 49.0417 0.75 51.8125 0.75 53.9375C0.75 56.0625 1.6875 58.8542 3.5625 62.3125C5.47917 65.7292 8.22917 69.4583 11.8125 73.5C15.3958 77.5 19.7083 81.5 24.75 85.5C29.7917 89.5 35.4792 93.1667 41.8125 96.5C48.1875 99.7917 55.0833 102.438 62.5 104.438C69.9583 106.479 77.8542 107.5 86.1875 107.5ZM86.1875 97.625C79.3125 97.625 72.7083 96.7708 66.375 95.0625C60.0417 93.3542 54.1042 91.1042 48.5625 88.3125C43.0208 85.4792 38 82.3958 33.5 79.0625C29 75.7292 25.1042 72.4375 21.8125 69.1875C18.5625 65.8958 16.0625 62.8958 14.3125 60.1875C12.5625 57.4792 11.6875 55.3958 11.6875 53.9375C11.6875 52.6875 12.5625 50.7708 14.3125 48.1875C16.0625 45.6042 18.5625 42.6667 21.8125 39.375C25.1042 36.0417 29 32.6875 33.5 29.3125C38 25.9375 43.0208 22.8125 48.5625 19.9375C54.1042 17.0208 60.0417 14.6875 66.375 12.9375C72.7083 11.1458 79.3125 10.25 86.1875 10.25C93.0208 10.25 99.5833 11.1458 105.875 12.9375C112.208 14.6875 118.146 17.0208 123.688 19.9375C129.229 22.8125 134.25 25.9375 138.75 29.3125C143.292 32.6875 147.188 36.0417 150.438 39.375C153.688 42.6667 156.188 45.6042 157.938 48.1875C159.729 50.7708 160.625 52.6875 160.625 53.9375C160.625 55.3958 159.729 57.4792 157.938 60.1875C156.188 62.8958 153.688 65.8958 150.438 69.1875C147.188 72.4375 143.292 75.7292 138.75 79.0625C134.25 82.3958 129.229 85.4792 123.688 88.3125C118.146 91.1042 112.208 93.3542 105.875 95.0625C99.5833 96.7708 93.0208 97.625 86.1875 97.625ZM86.1875 88.9375C91.0208 88.9375 95.5625 88.0208 99.8125 86.1875C104.062 84.3542 107.792 81.8333 111 78.625C114.208 75.375 116.708 71.6458 118.5 67.4375C120.333 63.1875 121.25 58.6875 121.25 53.9375C121.25 49.0625 120.333 44.5 118.5 40.25C116.708 36 114.208 32.2917 111 29.125C107.792 25.9167 104.062 23.4167 99.8125 21.625C95.5625 19.8333 91.0208 18.9375 86.1875 18.9375C81.2708 18.9375 76.6875 19.8333 72.4375 21.625C68.1875 23.4167 64.4583 25.9167 61.25 29.125C58.0417 32.2917 55.5208 36 53.6875 40.25C51.8958 44.5 51 49.0625 51 53.9375C51.0417 58.6875 51.9583 63.1875 53.75 67.4375C55.5833 71.6458 58.1042 75.375 61.3125 78.625C64.5208 81.8333 68.2292 84.3542 72.4375 86.1875C76.6875 88.0208 81.2708 88.9375 86.1875 88.9375ZM86.1875 65.5625C82.9375 65.5625 80.1667 64.4167 77.875 62.125C75.5833 59.8333 74.4375 57.1042 74.4375 53.9375C74.4375 50.7292 75.5833 48 77.875 45.75C80.1667 43.4583 82.9375 42.3125 86.1875 42.3125C89.3958 42.3125 92.1458 43.4583 94.4375 45.75C96.7292 48 97.875 50.7292 97.875 53.9375C97.875 57.1042 96.7292 59.8333 94.4375 62.125C92.1458 64.4167 89.3958 65.5625 86.1875 65.5625Z" fill="white"/>
</svg>
