<svg xmlns="http://www.w3.org/2000/svg" width="24" height="24"><path style="stroke:none;fill-rule:nonzero;fill:#fff;fill-opacity:1" d="M12 22.5a8.77 8.77 0 0 0 2.277-.29c.707-.179 1.399-.444 2.078-.784l-1.117-1.637a10.3 10.3 0 0 1-1.566.535 6.997 6.997 0 0 1-1.672.203c-.938 0-1.84-.172-2.703-.515A10.582 10.582 0 0 1 6.87 18.66a14.8 14.8 0 0 1-2.055-1.844 18.728 18.728 0 0 1-1.593-1.976 11.857 11.857 0 0 1-1.024-1.8c-.238-.544-.36-.962-.36-1.255 0-.21.095-.543.282-.988.195-.438.469-.942.82-1.512.356-.566.786-1.148 1.286-1.762.539-.64 1.109-1.222 1.707-1.738L4.875 4.238a16.174 16.174 0 0 0-1.91 2.047A17.675 17.675 0 0 0 1.543 8.41a12.467 12.467 0 0 0-.887 1.942c-.203.578-.308 1.058-.308 1.433 0 .43.129.985.386 1.68.262.68.637 1.426 1.125 2.234.54.871 1.13 1.676 1.762 2.399a15.34 15.34 0 0 0 2.328 2.199c.867.66 1.809 1.191 2.82 1.59A8.548 8.548 0 0 0 12 22.5Zm0-21.422a8.59 8.59 0 0 0-2.129.258c-.672.176-1.324.418-1.953.726L9.043 3.7c.473-.199.95-.36 1.43-.472 1.406-.329 2.847-.204 4.218.359.868.352 1.676.82 2.43 1.402.758.574 1.442 1.2 2.055 1.875.613.676 1.14 1.348 1.586 2.012.441.656.785 1.246 1.023 1.766.242.511.367.898.367 1.144 0 .262-.093.613-.273 1.055-.227.523-.488 1.02-.777 1.473a15.785 15.785 0 0 1-2.805 3.34l1.05 1.535c.669-.641 1.27-1.317 1.798-2.024.535-.71.984-1.402 1.355-2.078.371-.684.652-1.313.844-1.887.199-.57.297-1.047.297-1.414 0-.426-.125-.973-.383-1.664a13.358 13.358 0 0 0-1.106-2.23 17.418 17.418 0 0 0-1.757-2.414 14.637 14.637 0 0 0-2.317-2.188 11.028 11.028 0 0 0-2.832-1.598A8.476 8.476 0 0 0 12 1.078Zm0 17.707c.375 0 .734-.062 1.082-.183a4.662 4.662 0 0 0 1.008-.54L7.695 8.684a9.59 9.59 0 0 0-.492 3.101c.004.95.129 1.852.375 2.703a7.812 7.812 0 0 0 1.02 2.235c.437.64.949 1.148 1.527 1.511.578.368 1.203.551 1.875.551Zm4.371-4.262c.133-.41.23-.855.3-1.312.075-.465.11-.938.11-1.426 0-.973-.125-1.887-.375-2.734-.484-1.68-1.398-3.02-2.547-3.727A3.513 3.513 0 0 0 12 4.79c-.645-.004-1.285.191-1.875.574Zm2.258 8.09c.133.188.285.293.46.297.18.012.352-.098.47-.297a1.16 1.16 0 0 0 .207-.699 1.206 1.206 0 0 0-.207-.664L5.309.36c-.125-.18-.293-.282-.47-.274-.175-.008-.343.094-.468.273a1.21 1.21 0 0 0-.187.688c0 .27.062.496.187.676Zm0 0"/></svg>