<?xml version="1.0" encoding="UTF-8"?>
<svg xmlns="http://www.w3.org/2000/svg" xmlns:xlink="http://www.w3.org/1999/xlink" width="24" height="18" viewBox="0 0 24 18" version="1.1">
<g id="surface1">
<path style=" stroke:none;fill-rule:nonzero;fill:rgb(100%,100%,100%);fill-opacity:1;" d="M 6.140625 17.25 C 6.847656 17.25 7.503906 17.046875 8.109375 16.640625 C 8.722656 16.234375 9.257812 15.660156 9.722656 14.914062 C 10.183594 14.171875 10.542969 13.285156 10.800781 12.253906 C 11.0625 11.222656 11.195312 10.082031 11.195312 8.832031 C 11.195312 7.582031 11.0625 6.445312 10.800781 5.417969 C 10.542969 4.386719 10.183594 3.5 9.722656 2.757812 C 9.257812 2.011719 8.722656 1.4375 8.109375 1.03125 C 7.503906 0.625 6.847656 0.421875 6.140625 0.421875 C 5.265625 0.421875 4.460938 0.738281 3.730469 1.367188 C 3 1.992188 2.402344 2.871094 1.941406 4.003906 C 1.476562 5.128906 1.203125 6.445312 1.117188 7.949219 C 1.335938 7.519531 1.648438 7.179688 2.054688 6.9375 C 2.464844 6.695312 2.949219 6.570312 3.507812 6.570312 C 4.324219 6.570312 4.980469 6.835938 5.476562 7.359375 C 5.96875 7.878906 6.214844 8.558594 6.214844 9.402344 C 6.214844 10.257812 5.96875 10.949219 5.476562 11.476562 C 4.980469 11.992188 4.324219 12.253906 3.507812 12.253906 C 3.011719 12.253906 2.570312 12.15625 2.183594 11.960938 C 1.804688 11.761719 1.492188 11.484375 1.257812 11.128906 C 1.449219 12.367188 1.78125 13.445312 2.25 14.363281 C 2.726562 15.28125 3.296875 15.992188 3.964844 16.492188 C 4.632812 16.996094 5.359375 17.25 6.140625 17.25 Z M 2.738281 9.066406 C 2.90625 9.097656 3.058594 9.046875 3.195312 8.914062 C 3.339844 8.785156 3.433594 8.613281 3.476562 8.398438 C 3.523438 8.1875 3.496094 7.992188 3.402344 7.820312 C 3.308594 7.644531 3.175781 7.539062 3 7.507812 C 2.835938 7.476562 2.679688 7.527344 2.53125 7.660156 C 2.382812 7.789062 2.289062 7.960938 2.25 8.175781 C 2.210938 8.394531 2.242188 8.589844 2.335938 8.765625 C 2.433594 8.933594 2.570312 9.035156 2.738281 9.066406 Z M 17.832031 17.25 C 18.53125 17.25 19.1875 17.046875 19.800781 16.640625 C 20.414062 16.234375 20.949219 15.660156 21.414062 14.914062 C 21.875 14.171875 22.234375 13.285156 22.492188 12.253906 C 22.753906 11.222656 22.882812 10.082031 22.882812 8.832031 C 22.882812 7.582031 22.753906 6.445312 22.492188 5.417969 C 22.234375 4.386719 21.875 3.5 21.414062 2.757812 C 20.949219 2.011719 20.414062 1.4375 19.800781 1.03125 C 19.1875 0.625 18.53125 0.421875 17.832031 0.421875 C 16.949219 0.421875 16.144531 0.738281 15.414062 1.367188 C 14.6875 1.992188 14.089844 2.871094 13.621094 4.003906 C 13.160156 5.128906 12.886719 6.445312 12.804688 7.949219 C 13.023438 7.519531 13.335938 7.179688 13.742188 6.9375 C 14.15625 6.695312 14.636719 6.570312 15.1875 6.570312 C 16.007812 6.570312 16.664062 6.835938 17.15625 7.359375 C 17.65625 7.878906 17.90625 8.558594 17.90625 9.402344 C 17.90625 10.257812 17.65625 10.949219 17.15625 11.476562 C 16.664062 11.992188 16.007812 12.253906 15.1875 12.253906 C 14.695312 12.253906 14.257812 12.15625 13.875 11.960938 C 13.492188 11.761719 13.183594 11.484375 12.945312 11.128906 C 13.140625 12.367188 13.472656 13.445312 13.941406 14.363281 C 14.410156 15.28125 14.976562 15.992188 15.648438 16.492188 C 16.316406 16.996094 17.042969 17.25 17.832031 17.25 Z M 14.429688 9.066406 C 14.589844 9.097656 14.742188 9.046875 14.886719 8.914062 C 15.03125 8.785156 15.125 8.613281 15.167969 8.398438 C 15.207031 8.1875 15.179688 7.992188 15.085938 7.820312 C 14.996094 7.636719 14.867188 7.535156 14.691406 7.507812 C 14.527344 7.476562 14.371094 7.527344 14.222656 7.660156 C 14.070312 7.789062 13.976562 7.960938 13.941406 8.175781 C 13.902344 8.394531 13.929688 8.585938 14.023438 8.757812 C 14.117188 8.925781 14.253906 9.027344 14.429688 9.066406 Z M 14.429688 9.066406 "/>
</g>
</svg>
