<svg width="20" height="15" viewBox="0 0 20 15" fill="none" xmlns="http://www.w3.org/2000/svg">
<path d="M5.14844 14.4844C5.74219 14.4844 6.29688 14.3125 6.8125 13.9688C7.33333 13.625 7.78906 13.138 8.17969 12.5078C8.57031 11.8776 8.875 11.1276 9.09375 10.2578C9.3125 9.38281 9.42188 8.41667 9.42188 7.35938C9.42188 6.29688 9.3125 5.33073 9.09375 4.46094C8.875 3.59115 8.57031 2.84115 8.17969 2.21094C7.78906 1.58073 7.33333 1.09635 6.8125 0.757812C6.29688 0.414062 5.74219 0.242188 5.14844 0.242188C4.54948 0.242188 3.99219 0.414062 3.47656 0.757812C2.96094 1.09635 2.50781 1.58073 2.11719 2.21094C1.72656 2.84115 1.41927 3.59115 1.19531 4.46094C0.976562 5.33073 0.867188 6.29688 0.867188 7.35938C0.867188 8.41667 0.976562 9.38281 1.19531 10.2578C1.41927 11.1276 1.72656 11.8776 2.11719 12.5078C2.50781 13.138 2.96094 13.625 3.47656 13.9688C3.99219 14.3125 4.54948 14.4844 5.14844 14.4844ZM5.14844 13.3828C4.72135 13.3828 4.31771 13.2396 3.9375 12.9531C3.55729 12.6615 3.22135 12.25 2.92969 11.7188C2.63802 11.1823 2.40885 10.5469 2.24219 9.8125C2.07552 9.07292 1.99219 8.25521 1.99219 7.35938C1.99219 6.46875 2.07292 5.65625 2.23438 4.92188C2.40104 4.1875 2.63021 3.55469 2.92188 3.02344C3.21875 2.49219 3.55729 2.08073 3.9375 1.78906C4.31771 1.4974 4.72135 1.34896 5.14844 1.34375C5.58073 1.34375 5.98698 1.48958 6.36719 1.78125C6.7526 2.06771 7.09115 2.47656 7.38281 3.00781C7.67448 3.53906 7.90365 4.17448 8.07031 4.91406C8.23698 5.64844 8.32031 6.46354 8.32031 7.35938C8.32031 8.25 8.23698 9.0625 8.07031 9.79688C7.90365 10.5312 7.67448 11.1667 7.38281 11.7031C7.09115 12.2344 6.7526 12.6458 6.36719 12.9375C5.98698 13.2292 5.58073 13.3776 5.14844 13.3828ZM3.46094 10.1172C4.11198 10.1172 4.63542 9.90885 5.03125 9.49219C5.43229 9.07552 5.63281 8.52344 5.63281 7.83594C5.63281 7.15885 5.43229 6.61198 5.03125 6.19531C4.63542 5.77865 4.11198 5.57031 3.46094 5.57031C2.80469 5.57031 2.27604 5.77865 1.875 6.19531C1.47917 6.61198 1.28125 7.15885 1.28125 7.83594C1.28125 8.52344 1.47917 9.07552 1.875 9.49219C2.27604 9.90885 2.80469 10.1172 3.46094 10.1172ZM2.84375 7.57031C2.70312 7.54948 2.59375 7.46875 2.51562 7.32812C2.44271 7.18229 2.42188 7.02344 2.45312 6.85156C2.48438 6.6849 2.5599 6.54948 2.67969 6.44531C2.79948 6.33594 2.92448 6.29427 3.05469 6.32031C3.19531 6.34635 3.30208 6.42969 3.375 6.57031C3.44792 6.71094 3.46875 6.86458 3.4375 7.03125C3.40625 7.20312 3.33333 7.34115 3.21875 7.44531C3.10417 7.54948 2.97917 7.59115 2.84375 7.57031ZM14.8516 14.4844C15.4505 14.4844 16.0078 14.3125 16.5234 13.9688C17.0391 13.625 17.4922 13.138 17.8828 12.5078C18.2734 11.8776 18.5781 11.1276 18.7969 10.2578C19.0208 9.38281 19.1328 8.41667 19.1328 7.35938C19.1328 6.29688 19.0208 5.33073 18.7969 4.46094C18.5781 3.59115 18.2734 2.84115 17.8828 2.21094C17.4922 1.58073 17.0391 1.09635 16.5234 0.757812C16.0078 0.414062 15.4505 0.242188 14.8516 0.242188C14.2578 0.242188 13.7005 0.414062 13.1797 0.757812C12.6641 1.09635 12.2109 1.58073 11.8203 2.21094C11.4297 2.84115 11.125 3.59115 10.9062 4.46094C10.6875 5.33073 10.5781 6.29688 10.5781 7.35938C10.5781 8.41667 10.6875 9.38281 10.9062 10.2578C11.125 11.1276 11.4297 11.8776 11.8203 12.5078C12.2109 13.138 12.6641 13.625 13.1797 13.9688C13.7005 14.3125 14.2578 14.4844 14.8516 14.4844ZM14.8516 13.375C14.4245 13.375 14.0182 13.2318 13.6328 12.9453C13.2526 12.6536 12.9141 12.2422 12.6172 11.7109C12.3255 11.1745 12.0964 10.5391 11.9297 9.80469C11.763 9.0651 11.6797 8.25 11.6797 7.35938C11.6797 6.46875 11.763 5.65625 11.9297 4.92188C12.0964 4.1875 12.3255 3.55469 12.6172 3.02344C12.9141 2.49219 13.2526 2.08333 13.6328 1.79688C14.013 1.50521 14.4193 1.35677 14.8516 1.35156C15.2786 1.35156 15.6823 1.4974 16.0625 1.78906C16.4479 2.07552 16.7865 2.48698 17.0781 3.02344C17.3698 3.55469 17.599 4.1875 17.7656 4.92188C17.9323 5.65625 18.0156 6.46875 18.0156 7.35938C18.0156 8.25 17.9323 9.0625 17.7656 9.79688C17.599 10.5312 17.3698 11.1667 17.0781 11.7031C16.7865 12.2344 16.4479 12.6458 16.0625 12.9375C15.6823 13.224 15.2786 13.3698 14.8516 13.375ZM13.1562 10.1172C13.8073 10.1172 14.3333 9.90885 14.7344 9.49219C15.1406 9.07552 15.3438 8.52344 15.3438 7.83594C15.3438 7.15885 15.1406 6.61198 14.7344 6.19531C14.3333 5.77865 13.8073 5.57031 13.1562 5.57031C12.5 5.57031 11.9714 5.77865 11.5703 6.19531C11.1745 6.61198 10.9766 7.15885 10.9766 7.83594C10.9766 8.52344 11.1745 9.07552 11.5703 9.49219C11.9714 9.90885 12.5 10.1172 13.1562 10.1172ZM12.5391 7.57031C12.4036 7.54427 12.2969 7.46094 12.2188 7.32031C12.1458 7.17969 12.125 7.02344 12.1562 6.85156C12.1927 6.6849 12.2682 6.54948 12.3828 6.44531C12.4974 6.33594 12.6224 6.29427 12.7578 6.32031C12.8984 6.34115 13.0052 6.42448 13.0781 6.57031C13.151 6.71094 13.1693 6.86458 13.1328 7.03125C13.1016 7.20312 13.0286 7.34115 12.9141 7.44531C12.7995 7.54948 12.6745 7.59115 12.5391 7.57031Z" fill="white"/>
</svg>
