<svg xmlns="http://www.w3.org/2000/svg" width="24" height="24"><path style="stroke:none;fill-rule:nonzero;fill:#fff;fill-opacity:1" d="M12 23.063c1.633 0 3.168-.293 4.605-.883a12.29 12.29 0 0 0 3.82-2.438 11.482 11.482 0 0 0 2.59-3.586c.626-1.36.938-2.804.938-4.343 0-1.536-.312-2.981-.937-4.336a11.514 11.514 0 0 0-2.59-3.594 12.22 12.22 0 0 0-3.82-2.438 12.166 12.166 0 0 0-4.618-.883c-1.633 0-3.172.293-4.617.883a12.307 12.307 0 0 0-3.809 2.438A11.523 11.523 0 0 0 .985 7.477a10.187 10.187 0 0 0-.937 4.335c0 1.54.312 2.985.937 4.344a11.438 11.438 0 0 0 2.59 3.586 12.307 12.307 0 0 0 3.809 2.438c1.445.59 2.984.883 4.617.883ZM9.34 17.03c-.313 0-.55-.097-.715-.289-.164-.191-.246-.441-.246-.75V7.555c0-.309.078-.559.234-.75.164-.192.403-.285.715-.285h5.813a.842.842 0 0 1 .574.195c.156.133.234.32.234.555a.7.7 0 0 1-.234.55.845.845 0 0 1-.574.2h-4.829v3.03h4.36c.234 0 .426.063.574.188.156.125.234.305.234.543 0 .227-.078.399-.234.516a.887.887 0 0 1-.574.176h-4.36v3.52c0 .316-.082.57-.246.76-.164.184-.406.278-.726.278Zm0 0"/></svg>