<svg xmlns="http://www.w3.org/2000/svg" width="24" height="24"><path style="stroke:none;fill-rule:nonzero;fill:#fff;fill-opacity:1" d="M12 23.05c1.633 0 3.168-.292 4.605-.882a12.22 12.22 0 0 0 3.82-2.438 11.467 11.467 0 0 0 2.59-3.582c.626-1.363.938-2.808.938-4.347a10.2 10.2 0 0 0-.937-4.332 11.53 11.53 0 0 0-2.59-3.598 12.361 12.361 0 0 0-3.82-2.437A12.166 12.166 0 0 0 11.987.55c-1.633 0-3.172.293-4.617.883A12.307 12.307 0 0 0 3.562 3.87 11.523 11.523 0 0 0 .985 7.465 10.2 10.2 0 0 0 .047 11.8c0 1.539.312 2.984.937 4.347a11.467 11.467 0 0 0 2.59 3.582 12.236 12.236 0 0 0 3.809 2.438c1.445.59 2.984.883 4.617.883Zm0-1.874a10.222 10.222 0 0 1-7.055-2.734 9.548 9.548 0 0 1-2.133-2.989 8.83 8.83 0 0 1-.761-3.652c0-1.301.254-2.52.761-3.649A9.52 9.52 0 0 1 4.946 5.16 9.82 9.82 0 0 1 8.11 3.156c1.204-.488 2.496-.73 3.88-.73 1.382 0 2.675.242 3.878.73a9.701 9.701 0 0 1 3.176 2.004 9.432 9.432 0 0 1 2.145 2.992 8.685 8.685 0 0 1 .773 3.649c0 1.3-.258 2.52-.773 3.652a9.22 9.22 0 0 1-2.133 2.988A10.222 10.222 0 0 1 12 21.176Zm-4.922-4.047c0 .3.164.531.492.683.336.157.832.231 1.489.231.93 0 1.675-.25 2.238-.75.57-.5.926-1.223 1.066-2.172l.434-3.02h3.117a.89.89 0 0 0 .621-.222.717.717 0 0 0 .246-.563.717.717 0 0 0-.258-.562.913.913 0 0 0-.62-.223h-2.86l.258-1.797c.086-.578.25-.996.492-1.246.25-.258.602-.386 1.055-.386.359 0 .62.015.785.046.164.02.332.032.504.032.234 0 .422-.067.562-.2a.705.705 0 0 0 .223-.539c0-.3-.172-.53-.516-.683-.343-.156-.832-.23-1.465-.23-.93 0-1.68.253-2.25.757-.562.508-.914 1.235-1.054 2.176l-.293 2.07H8.672a.884.884 0 0 0-.61.223.717.717 0 0 0-.246.562.75.75 0 0 0 .247.563c.167.148.39.226.62.219h2.426l-.41 2.757c-.086.575-.254.989-.504 1.247-.242.25-.59.375-1.043.375-.351 0-.609-.012-.773-.043a2.554 2.554 0 0 0-.516-.043.802.802 0 0 0-.574.207.724.724 0 0 0-.21.53Zm0 0"/></svg>