<svg width="128" height="128" viewBox="0 0 128 128" fill="none" xmlns="http://www.w3.org/2000/svg">
<path d="M63.9375 127.625C72.6458 127.625 80.8333 125.958 88.5 122.625C96.2083 119.292 103 114.688 108.875 108.812C114.75 102.938 119.354 96.1667 122.688 88.5C126.021 80.7917 127.688 72.5833 127.688 63.875C127.688 55.1667 126.021 46.9792 122.688 39.3125C119.354 31.6042 114.75 24.8125 108.875 18.9375C103 13.0625 96.2083 8.45833 88.5 5.125C80.7917 1.79167 72.5833 0.125 63.875 0.125C55.1667 0.125 46.9583 1.79167 39.25 5.125C31.5833 8.45833 24.8125 13.0625 18.9375 18.9375C13.1042 24.8125 8.52083 31.6042 5.1875 39.3125C1.85417 46.9792 0.1875 55.1667 0.1875 63.875C0.1875 72.5833 1.85417 80.7917 5.1875 88.5C8.52083 96.1667 13.125 102.938 19 108.812C24.875 114.688 31.6458 119.292 39.3125 122.625C47.0208 125.958 55.2292 127.625 63.9375 127.625ZM63.9375 117C56.5625 117 49.6667 115.625 43.25 112.875C36.8333 110.125 31.1875 106.333 26.3125 101.5C21.4792 96.625 17.6875 90.9792 14.9375 84.5625C12.2292 78.1458 10.875 71.25 10.875 63.875C10.875 56.5 12.2292 49.6042 14.9375 43.1875C17.6875 36.7708 21.4792 31.125 26.3125 26.25C31.1458 21.375 36.7708 17.5833 43.1875 14.875C49.6042 12.125 56.5 10.75 63.875 10.75C71.25 10.75 78.1458 12.125 84.5625 14.875C91.0208 17.5833 96.6667 21.375 101.5 26.25C106.375 31.125 110.188 36.7708 112.938 43.1875C115.688 49.6042 117.062 56.5 117.062 63.875C117.062 71.25 115.688 78.1458 112.938 84.5625C110.229 90.9792 106.438 96.625 101.562 101.5C96.6875 106.333 91.0417 110.125 84.625 112.875C78.2083 115.625 71.3125 117 63.9375 117ZM37.6875 94.0625C37.6875 95.7708 38.5625 97.0625 40.3125 97.9375C42.1042 98.8125 44.75 99.25 48.25 99.25C53.2083 99.25 57.1875 97.8333 60.1875 95C63.2292 92.1667 65.125 88.0625 65.875 82.6875L68.1875 65.5625H84.8125C86.1458 65.5625 87.25 65.1458 88.125 64.3125C89 63.4792 89.4375 62.4167 89.4375 61.125C89.4375 59.8333 88.9792 58.7708 88.0625 57.9375C87.1875 57.1042 86.0833 56.6875 84.75 56.6875H69.5L70.875 46.5C71.3333 43.2083 72.2083 40.8542 73.5 39.4375C74.8333 37.9792 76.7083 37.25 79.125 37.25C81.0417 37.25 82.4375 37.3333 83.3125 37.5C84.1875 37.625 85.0833 37.6875 86 37.6875C87.25 37.6875 88.25 37.3125 89 36.5625C89.7917 35.7708 90.1875 34.75 90.1875 33.5C90.1875 31.7917 89.2708 30.5 87.4375 29.625C85.6042 28.75 83 28.3125 79.625 28.3125C74.6667 28.3125 70.6667 29.75 67.625 32.625C64.625 35.5 62.75 39.6042 62 44.9375L60.4375 56.6875H46.1875C44.8958 56.6875 43.8125 57.1042 42.9375 57.9375C42.0625 58.7708 41.625 59.8333 41.625 61.125C41.625 62.375 42.0625 63.4375 42.9375 64.3125C43.8125 65.1458 44.9167 65.5625 46.25 65.5625H59.1875L57 81.1875C56.5417 84.4375 55.6458 86.7917 54.3125 88.25C53.0208 89.6667 51.1667 90.375 48.75 90.375C46.875 90.375 45.5 90.2917 44.625 90.125C43.7917 89.9583 42.875 89.875 41.875 89.875C40.625 89.875 39.6042 90.2708 38.8125 91.0625C38.0625 91.8542 37.6875 92.8542 37.6875 94.0625Z" fill="white"/>
</svg>
