<svg width="16" height="15" viewBox="0 0 16 15" fill="none" xmlns="http://www.w3.org/2000/svg">
<path d="M3.25781 14.5625H12.7344C13.5521 14.5625 14.1641 14.3594 14.5703 13.9531C14.9818 13.5521 15.1875 12.9479 15.1875 12.1406V2.60156C15.1875 1.79427 14.9818 1.1901 14.5703 0.789062C14.1641 0.382812 13.5521 0.179688 12.7344 0.179688H3.25781C2.4401 0.179688 1.82552 0.382812 1.41406 0.789062C1.00781 1.1901 0.804688 1.79427 0.804688 2.60156V12.1406C0.804688 12.9479 1.00781 13.5521 1.41406 13.9531C1.82552 14.3594 2.4401 14.5625 3.25781 14.5625ZM3.27344 13.3047C2.88281 13.3047 2.58333 13.2031 2.375 13C2.16667 12.7917 2.0625 12.4844 2.0625 12.0781V2.66406C2.0625 2.25781 2.16667 1.95312 2.375 1.75C2.58333 1.54167 2.88281 1.4375 3.27344 1.4375H12.7188C13.1042 1.4375 13.401 1.54167 13.6094 1.75C13.8229 1.95312 13.9297 2.25781 13.9297 2.66406V12.0781C13.9297 12.4844 13.8229 12.7917 13.6094 13C13.401 13.2031 13.1042 13.3047 12.7188 13.3047H3.27344ZM6.28125 10.9375C6.48438 10.9375 6.63802 10.875 6.74219 10.75C6.85156 10.625 6.90625 10.4531 6.90625 10.2344V7.8125H9.72656C9.8776 7.8125 10.0026 7.77344 10.1016 7.69531C10.2005 7.61198 10.25 7.49219 10.25 7.33594C10.25 7.17448 10.2005 7.05208 10.1016 6.96875C10.0026 6.88021 9.8776 6.83594 9.72656 6.83594H6.90625V4.75H10.0312C10.1823 4.75 10.3073 4.70312 10.4062 4.60938C10.5052 4.51562 10.5547 4.39062 10.5547 4.23438C10.5547 4.07812 10.5052 3.95573 10.4062 3.86719C10.3073 3.77344 10.1823 3.72656 10.0312 3.72656H6.27344C6.07552 3.72656 5.92448 3.79167 5.82031 3.92188C5.71615 4.05208 5.66406 4.22135 5.66406 4.42969V10.2344C5.66406 10.4427 5.71615 10.612 5.82031 10.7422C5.92448 10.8724 6.07812 10.9375 6.28125 10.9375Z" fill="white"/>
</svg>
