<?xml version="1.0" encoding="UTF-8"?>
<svg xmlns="http://www.w3.org/2000/svg" xmlns:xlink="http://www.w3.org/1999/xlink" width="24" height="25.5" viewBox="0 0 24 25.5" version="1.1">
<g id="surface1">
<path style=" stroke:none;fill-rule:nonzero;fill:rgb(100%,100%,100%);fill-opacity:1;" d="M 2.050781 12.539062 C 2.050781 12.007812 2.089844 11.488281 2.167969 10.980469 C 2.253906 10.464844 2.371094 9.96875 2.519531 9.492188 L 0.679688 8.71875 C 0.476562 9.320312 0.320312 9.941406 0.210938 10.582031 C 0.101562 11.222656 0.046875 11.875 0.046875 12.539062 C 0.046875 13.203125 0.101562 13.855469 0.210938 14.496094 C 0.328125 15.136719 0.488281 15.757812 0.691406 16.359375 L 2.519531 15.585938 C 2.371094 15.109375 2.253906 14.617188 2.167969 14.109375 C 2.089844 13.59375 2.050781 13.070312 2.050781 12.539062 Z M 7.441406 3.65625 L 6.691406 1.851562 C 5.527344 2.4375 4.484375 3.191406 3.5625 4.113281 C 2.640625 5.035156 1.886719 6.078125 1.300781 7.242188 L 3.128906 8.003906 C 3.597656 7.074219 4.199219 6.238281 4.933594 5.496094 C 5.675781 4.753906 6.511719 4.140625 7.441406 3.65625 Z M 11.988281 2.578125 C 12.519531 2.578125 13.042969 2.621094 13.558594 2.707031 C 14.074219 2.785156 14.574219 2.902344 15.058594 3.058594 L 15.808594 1.230469 C 15.207031 1.019531 14.585938 0.859375 13.945312 0.75 C 13.304688 0.640625 12.652344 0.585938 11.988281 0.585938 C 11.324219 0.585938 10.667969 0.640625 10.019531 0.75 C 9.378906 0.859375 8.757812 1.019531 8.15625 1.230469 L 8.929688 3.058594 C 9.40625 2.902344 9.902344 2.785156 10.417969 2.707031 C 10.933594 2.621094 11.457031 2.578125 11.988281 2.578125 Z M 20.871094 7.992188 L 22.6875 7.242188 C 22.101562 6.078125 21.34375 5.035156 20.414062 4.113281 C 19.484375 3.183594 18.441406 2.425781 17.285156 1.839844 L 16.535156 3.65625 C 17.464844 4.132812 18.300781 4.742188 19.042969 5.484375 C 19.785156 6.21875 20.394531 7.054688 20.871094 7.992188 Z M 21.960938 12.539062 C 21.960938 13.070312 21.917969 13.59375 21.832031 14.109375 C 21.753906 14.625 21.640625 15.121094 21.492188 15.597656 L 23.308594 16.371094 C 23.519531 15.769531 23.679688 15.148438 23.789062 14.507812 C 23.898438 13.859375 23.953125 13.203125 23.953125 12.539062 C 23.953125 11.875 23.898438 11.222656 23.789062 10.582031 C 23.679688 9.933594 23.519531 9.308594 23.308594 8.707031 L 21.480469 9.480469 C 21.636719 9.957031 21.753906 10.453125 21.832031 10.96875 C 21.917969 11.484375 21.960938 12.007812 21.960938 12.539062 Z M 16.535156 21.410156 L 17.285156 23.238281 C 18.449219 22.652344 19.492188 21.898438 20.414062 20.976562 C 21.34375 20.046875 22.097656 19 22.675781 17.835938 L 20.882812 17.085938 C 20.40625 18.015625 19.792969 18.851562 19.042969 19.59375 C 18.300781 20.335938 17.464844 20.941406 16.535156 21.410156 Z M 12 22.5 C 11.460938 22.5 10.933594 22.457031 10.417969 22.371094 C 9.902344 22.292969 9.40625 22.175781 8.929688 22.019531 L 8.167969 23.847656 C 8.769531 24.050781 9.390625 24.207031 10.03125 24.316406 C 10.679688 24.433594 11.335938 24.492188 12 24.492188 C 12.664062 24.492188 13.3125 24.4375 13.945312 24.328125 C 14.585938 24.21875 15.207031 24.0625 15.808594 23.859375 L 15.046875 22.03125 C 14.5625 22.179688 14.066406 22.292969 13.558594 22.371094 C 13.050781 22.457031 12.53125 22.5 12 22.5 Z M 3.128906 17.085938 L 1.3125 17.835938 C 1.898438 19 2.652344 20.042969 3.574219 20.964844 C 4.496094 21.886719 5.535156 22.640625 6.691406 23.226562 L 7.441406 21.398438 C 6.511719 20.929688 5.675781 20.328125 4.933594 19.59375 C 4.199219 18.851562 3.597656 18.015625 3.128906 17.085938 Z M 11.988281 18.421875 C 12.800781 18.421875 13.515625 18.277344 14.132812 17.988281 C 14.75 17.691406 15.226562 17.355469 15.5625 16.980469 C 15.90625 16.597656 16.078125 16.277344 16.078125 16.019531 C 16.078125 15.878906 16.019531 15.78125 15.902344 15.726562 C 15.792969 15.671875 15.675781 15.671875 15.550781 15.726562 C 15.128906 15.960938 14.640625 16.1875 14.085938 16.40625 C 13.539062 16.617188 12.839844 16.722656 11.988281 16.722656 C 11.136719 16.722656 10.433594 16.617188 9.878906 16.40625 C 9.332031 16.1875 8.84375 15.960938 8.414062 15.726562 C 8.289062 15.671875 8.171875 15.671875 8.0625 15.726562 C 7.953125 15.78125 7.898438 15.878906 7.898438 16.019531 C 7.898438 16.277344 8.066406 16.597656 8.402344 16.980469 C 8.746094 17.355469 9.226562 17.691406 9.84375 17.988281 C 10.460938 18.277344 11.175781 18.421875 11.988281 18.421875 Z M 8.507812 11.507812 C 8.882812 11.507812 9.210938 11.359375 9.492188 11.0625 C 9.773438 10.757812 9.914062 10.371094 9.914062 9.902344 C 9.914062 9.433594 9.773438 9.046875 9.492188 8.742188 C 9.210938 8.4375 8.882812 8.285156 8.507812 8.285156 C 8.140625 8.285156 7.820312 8.4375 7.546875 8.742188 C 7.273438 9.046875 7.136719 9.433594 7.136719 9.902344 C 7.136719 10.371094 7.273438 10.757812 7.546875 11.0625 C 7.820312 11.359375 8.140625 11.507812 8.507812 11.507812 Z M 15.457031 11.507812 C 15.832031 11.507812 16.160156 11.359375 16.441406 11.0625 C 16.722656 10.757812 16.863281 10.371094 16.863281 9.902344 C 16.863281 9.433594 16.722656 9.046875 16.441406 8.742188 C 16.160156 8.4375 15.832031 8.285156 15.457031 8.285156 C 15.089844 8.285156 14.769531 8.4375 14.496094 8.742188 C 14.222656 9.046875 14.085938 9.433594 14.085938 9.902344 C 14.085938 10.371094 14.222656 10.757812 14.496094 11.0625 C 14.769531 11.359375 15.089844 11.507812 15.457031 11.507812 Z M 15.457031 11.507812 "/>
</g>
</svg>
