<svg width="124" height="124" viewBox="0 0 124 124" fill="none" xmlns="http://www.w3.org/2000/svg">
<path d="M5.9375 40.5625C9.3125 40.5625 11 38.8542 11 35.4375V20.6875C11 17.4375 11.8333 15 13.5 13.375C15.1667 11.7083 17.5625 10.875 20.6875 10.875H35.8125C39.2292 10.875 40.9375 9.1875 40.9375 5.8125C40.9375 2.47917 39.2292 0.8125 35.8125 0.8125H20.5625C14.0208 0.8125 9.10417 2.4375 5.8125 5.6875C2.5625 8.89583 0.9375 13.7083 0.9375 20.125V35.4375C0.9375 38.8542 2.60417 40.5625 5.9375 40.5625ZM118.25 40.5625C121.625 40.5625 123.312 38.8542 123.312 35.4375V20.125C123.312 13.7083 121.667 8.89583 118.375 5.6875C115.125 2.4375 110.229 0.8125 103.688 0.8125H88.375C85 0.8125 83.3125 2.47917 83.3125 5.8125C83.3125 9.1875 85 10.875 88.375 10.875H103.5C106.583 10.875 108.979 11.7083 110.688 13.375C112.396 15 113.25 17.4375 113.25 20.6875V35.4375C113.25 38.8542 114.917 40.5625 118.25 40.5625ZM20.5625 123.125H35.8125C39.2292 123.125 40.9375 121.458 40.9375 118.125C40.9375 114.75 39.2292 113.062 35.8125 113.062H20.6875C17.5625 113.062 15.1667 112.229 13.5 110.562C11.8333 108.938 11 106.5 11 103.25V88.5C11 85.0833 9.3125 83.375 5.9375 83.375C2.60417 83.375 0.9375 85.0833 0.9375 88.5V103.75C0.9375 110.208 2.5625 115.042 5.8125 118.25C9.10417 121.5 14.0208 123.125 20.5625 123.125ZM88.375 123.125H103.688C110.229 123.125 115.125 121.5 118.375 118.25C121.667 115.042 123.312 110.208 123.312 103.75V88.5C123.312 85.0833 121.625 83.375 118.25 83.375C114.917 83.375 113.25 85.0833 113.25 88.5V103.25C113.25 106.5 112.396 108.938 110.688 110.562C108.979 112.229 106.583 113.062 103.5 113.062H88.375C85 113.062 83.3125 114.75 83.3125 118.125C83.3125 121.458 85 123.125 88.375 123.125ZM38.3125 57.75C39.7708 57.75 40.9583 57.2917 41.875 56.375C42.8333 55.4167 43.3125 54.1875 43.3125 52.6875V44.1875C43.3125 42.6875 42.8333 41.4792 41.875 40.5625C40.9583 39.6042 39.7708 39.125 38.3125 39.125C36.8542 39.125 35.6458 39.6042 34.6875 40.5625C33.7708 41.4792 33.3125 42.6875 33.3125 44.1875V52.6875C33.3125 54.1875 33.7708 55.4167 34.6875 56.375C35.6458 57.2917 36.8542 57.75 38.3125 57.75ZM57.0625 72.5C57.1458 72.5 57.2292 72.5 57.3125 72.5C57.4375 72.5 57.5417 72.5 57.625 72.5C60.7917 72.5 63.2083 71.6667 64.875 70C66.5417 68.3333 67.375 65.9167 67.375 62.75V43.0625C67.375 41.8542 67 40.8958 66.25 40.1875C65.5417 39.4375 64.5625 39.0625 63.3125 39.0625C62.1042 39.0625 61.125 39.4375 60.375 40.1875C59.625 40.8958 59.25 41.8542 59.25 43.0625V63.3125C59.25 63.6458 59.1667 63.8958 59 64.0625C58.8333 64.1875 58.6042 64.25 58.3125 64.25H56.125C55 64.25 54.0417 64.6458 53.25 65.4375C52.5 66.1875 52.125 67.125 52.125 68.25C52.125 69.5833 52.5625 70.625 53.4375 71.375C54.3125 72.125 55.5208 72.5 57.0625 72.5ZM85.6875 57.75C87.1458 57.75 88.3333 57.2917 89.25 56.375C90.2083 55.4167 90.6875 54.1875 90.6875 52.6875V44.1875C90.6875 42.6875 90.2083 41.4792 89.25 40.5625C88.3333 39.6042 87.1458 39.125 85.6875 39.125C84.2292 39.125 83.0208 39.6042 82.0625 40.5625C81.1458 41.4792 80.6875 42.6875 80.6875 44.1875V52.6875C80.6875 54.1875 81.1458 55.4167 82.0625 56.375C83.0208 57.2917 84.2292 57.75 85.6875 57.75ZM61.75 93.5C65.5 93.5 69.1875 92.75 72.8125 91.25C76.4375 89.7083 79.625 87.5625 82.375 84.8125C82.75 84.4375 83.0208 84 83.1875 83.5C83.3958 83 83.5 82.4375 83.5 81.8125C83.5 80.6458 83.1042 79.6875 82.3125 78.9375C81.5208 78.1458 80.5625 77.75 79.4375 77.75C78.3125 77.75 77.2292 78.3125 76.1875 79.4375C74.4792 81.2292 72.3333 82.6875 69.75 83.8125C67.2083 84.8958 64.5417 85.4375 61.75 85.4375C59.125 85.4375 56.5208 84.8958 53.9375 83.8125C51.3542 82.7292 49.1667 81.2708 47.375 79.4375C46.875 78.9792 46.375 78.5833 45.875 78.25C45.4167 77.9167 44.8125 77.75 44.0625 77.75C42.8958 77.75 41.9167 78.1458 41.125 78.9375C40.3333 79.6875 39.9375 80.6458 39.9375 81.8125C39.9375 82.3542 40.0417 82.875 40.25 83.375C40.4583 83.8333 40.7708 84.2917 41.1875 84.75C43.6875 87.625 46.7917 89.8125 50.5 91.3125C54.2083 92.7708 57.9583 93.5 61.75 93.5Z" fill="white"/>
</svg>
