<svg width="128" height="128" viewBox="0 0 128 128" fill="none" xmlns="http://www.w3.org/2000/svg">
<path d="M63.9375 127.625C72.6458 127.625 80.8333 125.958 88.5 122.625C96.2083 119.292 103 114.688 108.875 108.812C114.75 102.938 119.354 96.1667 122.688 88.5C126.021 80.7917 127.688 72.5833 127.688 63.875C127.688 55.1667 126.021 46.9792 122.688 39.3125C119.354 31.6042 114.75 24.8125 108.875 18.9375C103 13.0625 96.2083 8.45833 88.5 5.125C80.7917 1.79167 72.5833 0.125 63.875 0.125C55.1667 0.125 46.9583 1.79167 39.25 5.125C31.5833 8.45833 24.8125 13.0625 18.9375 18.9375C13.1042 24.8125 8.52083 31.6042 5.1875 39.3125C1.85417 46.9792 0.1875 55.1667 0.1875 63.875C0.1875 72.5833 1.85417 80.7917 5.1875 88.5C8.52083 96.1667 13.125 102.938 19 108.812C24.875 114.688 31.6458 119.292 39.3125 122.625C47.0208 125.958 55.2292 127.625 63.9375 127.625ZM63.9375 117C56.5625 117 49.6667 115.625 43.25 112.875C36.8333 110.125 31.1875 106.333 26.3125 101.5C21.4792 96.625 17.6875 90.9792 14.9375 84.5625C12.2292 78.1458 10.875 71.25 10.875 63.875C10.875 56.5 12.2292 49.6042 14.9375 43.1875C17.6875 36.7708 21.4792 31.125 26.3125 26.25C31.1458 21.375 36.7708 17.5833 43.1875 14.875C49.6042 12.125 56.5 10.75 63.875 10.75C71.25 10.75 78.1458 12.125 84.5625 14.875C91.0208 17.5833 96.6667 21.375 101.5 26.25C106.375 31.125 110.188 36.7708 112.938 43.1875C115.688 49.6042 117.062 56.5 117.062 63.875C117.062 71.25 115.688 78.1458 112.938 84.5625C110.229 90.9792 106.438 96.625 101.562 101.5C96.6875 106.333 91.0417 110.125 84.625 112.875C78.2083 115.625 71.3125 117 63.9375 117ZM63.875 95.1875C68.2083 95.1875 72.0208 94.4167 75.3125 92.875C78.6042 91.2917 81.1458 89.5 82.9375 87.5C84.7708 85.4583 85.6875 83.75 85.6875 82.375C85.6875 81.625 85.375 81.1042 84.75 80.8125C84.1667 80.5208 83.5417 80.5208 82.875 80.8125C80.625 82.0625 78.0208 83.2708 75.0625 84.4375C72.1458 85.5625 68.4167 86.125 63.875 86.125C59.3333 86.125 55.5833 85.5625 52.625 84.4375C49.7083 83.2708 47.1042 82.0625 44.8125 80.8125C44.1458 80.5208 43.5208 80.5208 42.9375 80.8125C42.3542 81.1042 42.0625 81.625 42.0625 82.375C42.0625 83.75 42.9583 85.4583 44.75 87.5C46.5833 89.5 49.1458 91.2917 52.4375 92.875C55.7292 94.4167 59.5417 95.1875 63.875 95.1875ZM45.3125 58.3125C47.3125 58.3125 49.0625 57.5208 50.5625 55.9375C52.0625 54.3125 52.8125 52.25 52.8125 49.75C52.8125 47.25 52.0625 45.1875 50.5625 43.5625C49.0625 41.9375 47.3125 41.125 45.3125 41.125C43.3542 41.125 41.6458 41.9375 40.1875 43.5625C38.7292 45.1875 38 47.25 38 49.75C38 52.25 38.7292 54.3125 40.1875 55.9375C41.6458 57.5208 43.3542 58.3125 45.3125 58.3125ZM82.375 58.3125C84.375 58.3125 86.125 57.5208 87.625 55.9375C89.125 54.3125 89.875 52.25 89.875 49.75C89.875 47.25 89.125 45.1875 87.625 43.5625C86.125 41.9375 84.375 41.125 82.375 41.125C80.4167 41.125 78.7083 41.9375 77.25 43.5625C75.7917 45.1875 75.0625 47.25 75.0625 49.75C75.0625 52.25 75.7917 54.3125 77.25 55.9375C78.7083 57.5208 80.4167 58.3125 82.375 58.3125Z" fill="white"/>
</svg>
