<svg xmlns="http://www.w3.org/2000/svg" width="24" height="24"><path style="stroke:none;fill-rule:nonzero;fill:#fff;fill-opacity:1" d="M11.988 16.098a13.833 13.833 0 0 0 4.149-.614c1.277-.398 2.437-.976 3.418-1.695.976-.723 1.758-1.574 2.3-2.508a6.006 6.006 0 0 0 .832-3.062 6.002 6.002 0 0 0-.832-3.059c-.539-.937-1.32-1.789-2.3-2.508-.98-.718-2.14-1.297-3.418-1.695a13.458 13.458 0 0 0-4.149-.621c-1.476 0-2.86.203-4.152.61-1.27.402-2.426.976-3.402 1.699-.985.722-1.75 1.562-2.305 2.515A5.998 5.998 0 0 0 1.3 8.22c0 1.086.273 2.105.828 3.062.543.934 1.324 1.785 2.305 2.508.98.719 2.117 1.29 3.402 1.691 1.293.41 2.676.618 4.152.618ZM12 14.652a11.109 11.109 0 0 1-3.387-.5 9.698 9.698 0 0 1-2.789-1.382c-.793-.59-1.43-1.29-1.875-2.055a4.965 4.965 0 0 1-.668-2.504c0-.887.223-1.719.668-2.496.446-.766 1.082-1.457 1.875-2.047a9.543 9.543 0 0 1 2.79-1.379A11.11 11.11 0 0 1 12 1.785a11.11 11.11 0 0 1 3.387.504c1.043.32 1.992.79 2.789 1.379.8.586 1.437 1.281 1.875 2.047.449.789.676 1.64.668 2.496 0 .894-.223 1.73-.668 2.504-.442.77-1.078 1.465-1.875 2.055-.801.59-1.75 1.058-2.79 1.382-1.07.336-2.222.508-3.386.5Zm-3.293-1.574c.766 0 1.387-.23 1.86-.691.484-.469.94-1.14 1.378-2.016.11.008.207.012.297.012a1.75 1.75 0 0 0 .281-.043v1.77c0 .433.145.765.442.995.293.23.73.344 1.312.344.715 0 1.399-.133 2.047-.402A4.814 4.814 0 0 0 17.918 12c.422-.422.633-.852.633-1.293 0-.574-.313-1.031-.938-1.371-.617-.352-1.508-.68-2.668-.996a.76.76 0 0 0 0-.23c0-.079-.004-.157-.011-.235h2.277c.59 0 1.039-.11 1.352-.324.312-.227.468-.551.468-.98 0-.516-.183-1.02-.55-1.5a4.189 4.189 0 0 0-1.407-1.173 3.7 3.7 0 0 0-1.765-.453c-.75 0-1.364.223-1.836.672-.473.446-.918 1.086-1.34 1.922-.11 0-.223.004-.332.012-.11 0-.211.008-.309.027V4.422c0-.434-.152-.766-.457-.996-.293-.239-.726-.36-1.297-.36a5.19 5.19 0 0 0-2.05.418A4.862 4.862 0 0 0 6.082 4.52c-.422.421-.633.855-.633 1.304 0 .563.313 1.02.938 1.367.625.344 1.52.68 2.68 1 0 .075.003.149.015.235.008.078.02.156.04.219H6.804c-.59 0-1.047.109-1.367.328-.313.214-.47.539-.47.964 0 .524.184 1.028.552 1.508.351.465.835.864 1.418 1.176.57.3 1.16.457 1.769.457ZM12 9.355c-.41 0-.762-.105-1.059-.316-.28-.203-.437-.48-.43-.77 0-.308.145-.57.43-.78.278-.212.66-.329 1.059-.325.41 0 .758.11 1.043.324.297.211.445.473.445.782 0 .3-.148.558-.445.773-.273.203-.652.316-1.043.312Zm-1.07 6.465v6.848h2.156V15.82Zm-4.957 7.5h12.039c.25 0 .449-.062.59-.18a.57.57 0 0 0 .23-.472c0-.371-.195-.672-.578-.906-.375-.239-.879-.356-1.512-.356H7.23c-.632 0-1.14.117-1.523.352-.375.238-.562.539-.562.906 0 .2.074.36.226.477.152.117.352.18.602.18Zm0 0"/></svg>