<?xml version="1.0" encoding="UTF-8"?>
<svg xmlns="http://www.w3.org/2000/svg" xmlns:xlink="http://www.w3.org/1999/xlink" width="24" height="20.727273" viewBox="0 0 24 20.727273" version="1.1">
<g id="surface1">
<path style=" stroke:none;fill-rule:nonzero;fill:rgb(100%,100%,100%);fill-opacity:1;" d="M 11.992188 16.535156 C 11.140625 16.535156 10.453125 16.402344 9.929688 16.132812 C 9.40625 15.859375 9.144531 15.503906 9.144531 15.058594 C 9.144531 14.621094 9.40625 14.269531 9.929688 14.003906 C 10.453125 13.730469 11.140625 13.59375 11.992188 13.59375 C 12.847656 13.59375 13.539062 13.730469 14.0625 14.003906 C 14.585938 14.269531 14.847656 14.621094 14.847656 15.058594 C 14.847656 15.503906 14.585938 15.859375 14.0625 16.132812 C 13.539062 16.402344 12.847656 16.535156 11.992188 16.535156 Z M 11.992188 5.300781 C 12.519531 5.300781 13.023438 5.222656 13.5 5.0625 C 13.976562 4.898438 14.402344 4.671875 14.777344 4.390625 C 15.152344 4.105469 15.449219 3.777344 15.664062 3.410156 C 15.886719 3.039062 15.996094 2.652344 15.996094 2.242188 C 15.996094 1.980469 15.921875 1.773438 15.777344 1.621094 C 15.628906 1.464844 15.398438 1.339844 15.085938 1.234375 C 14.683594 1.117188 14.214844 1.027344 13.6875 0.964844 C 13.160156 0.902344 12.59375 0.871094 11.992188 0.871094 C 11.390625 0.871094 10.824219 0.902344 10.296875 0.964844 C 9.773438 1.027344 9.308594 1.117188 8.90625 1.234375 C 8.59375 1.339844 8.363281 1.464844 8.214844 1.621094 C 8.066406 1.773438 7.996094 1.980469 7.996094 2.242188 C 7.996094 2.652344 8.101562 3.039062 8.316406 3.410156 C 8.535156 3.777344 8.828125 4.105469 9.203125 4.390625 C 9.578125 4.671875 10.003906 4.898438 10.484375 5.0625 C 10.964844 5.222656 11.46875 5.300781 11.992188 5.300781 Z M 11.308594 10.558594 L 12.683594 10.558594 L 12.683594 4.789062 L 11.308594 4.789062 Z M 9.683594 10.484375 L 11.992188 11.667969 L 14.308594 10.484375 C 13.996094 10.347656 13.644531 10.242188 13.253906 10.167969 C 12.867188 10.09375 12.445312 10.058594 11.992188 10.058594 C 11.542969 10.058594 11.121094 10.09375 10.730469 10.167969 C 10.34375 10.242188 9.996094 10.347656 9.683594 10.484375 Z M 11.992188 17.566406 C 12.769531 17.566406 13.449219 17.460938 14.027344 17.25 C 14.613281 17.039062 15.066406 16.746094 15.390625 16.371094 C 15.714844 15.996094 15.878906 15.558594 15.878906 15.058594 C 15.878906 14.558594 15.714844 14.121094 15.390625 13.746094 C 15.066406 13.371094 14.613281 13.082031 14.027344 12.878906 C 13.449219 12.667969 12.769531 12.5625 11.992188 12.5625 C 11.214844 12.5625 10.53125 12.667969 9.945312 12.878906 C 9.367188 13.082031 8.914062 13.371094 8.589844 13.746094 C 8.273438 14.121094 8.113281 14.558594 8.113281 15.058594 C 8.113281 15.558594 8.273438 15.996094 8.589844 16.371094 C 8.914062 16.746094 9.367188 17.039062 9.945312 17.25 C 10.53125 17.460938 11.214844 17.566406 11.992188 17.566406 Z M 3.828125 8.335938 C 3.367188 8.097656 2.941406 7.984375 2.558594 8.003906 C 2.171875 8.019531 1.832031 8.125 1.542969 8.316406 C 1.257812 8.511719 1.039062 8.757812 0.886719 9.058594 C 0.734375 9.355469 0.65625 9.671875 0.65625 10.003906 C 0.65625 10.335938 0.75 10.652344 0.9375 10.960938 C 1.125 11.261719 1.421875 11.511719 1.824219 11.710938 L 7.40625 14.429688 C 7.558594 13.757812 7.933594 13.203125 8.53125 12.765625 C 9.132812 12.324219 9.878906 12.03125 10.773438 11.890625 Z M 20.164062 8.335938 L 13.21875 11.890625 C 14.109375 12.03125 14.855469 12.324219 15.453125 12.765625 C 16.054688 13.203125 16.429688 13.757812 16.578125 14.429688 L 22.167969 11.710938 C 22.570312 11.511719 22.867188 11.261719 23.054688 10.960938 C 23.242188 10.652344 23.335938 10.335938 23.335938 10.003906 C 23.335938 9.671875 23.253906 9.355469 23.097656 9.058594 C 22.941406 8.757812 22.722656 8.511719 22.441406 8.316406 C 22.15625 8.125 21.816406 8.019531 21.425781 8.003906 C 21.039062 7.984375 20.621094 8.097656 20.164062 8.335938 Z M 3.417969 16.773438 C 2.972656 16.984375 2.652344 17.242188 2.445312 17.546875 C 2.242188 17.855469 2.132812 18.175781 2.121094 18.511719 C 2.117188 18.851562 2.1875 19.171875 2.335938 19.464844 C 2.488281 19.765625 2.703125 20.015625 2.972656 20.214844 C 3.253906 20.414062 3.570312 20.53125 3.929688 20.566406 C 4.292969 20.597656 4.675781 20.511719 5.078125 20.300781 L 9.671875 17.964844 C 8.957031 17.710938 8.390625 17.332031 7.96875 16.832031 C 7.546875 16.332031 7.339844 15.742188 7.339844 15.058594 C 7.339844 15.042969 7.339844 15.027344 7.339844 15.007812 C 7.339844 14.984375 7.339844 14.964844 7.339844 14.949219 Z M 20.566406 16.773438 L 16.652344 14.949219 C 16.652344 14.964844 16.652344 14.984375 16.652344 15.007812 C 16.652344 15.027344 16.652344 15.042969 16.652344 15.058594 C 16.652344 15.742188 16.441406 16.332031 16.015625 16.832031 C 15.59375 17.332031 15.027344 17.710938 14.316406 17.964844 L 18.910156 20.300781 C 19.316406 20.511719 19.695312 20.597656 20.054688 20.566406 C 20.417969 20.53125 20.734375 20.414062 21.007812 20.214844 C 21.285156 20.015625 21.5 19.765625 21.648438 19.464844 C 21.800781 19.171875 21.871094 18.851562 21.859375 18.511719 C 21.855469 18.175781 21.75 17.855469 21.546875 17.546875 C 21.339844 17.242188 21.015625 16.984375 20.566406 16.773438 Z M 20.566406 16.773438 "/>
</g>
</svg>
