<?xml version="1.0" encoding="UTF-8"?>
<svg xmlns="http://www.w3.org/2000/svg" xmlns:xlink="http://www.w3.org/1999/xlink" width="24" height="20.727273" viewBox="0 0 24 20.727273" version="1.1">
<g id="surface1">
<path style=" stroke:none;fill-rule:nonzero;fill:rgb(100%,100%,100%);fill-opacity:1;" d="M 11.992188 5.726562 C 12.515625 5.726562 13.023438 5.644531 13.515625 5.480469 C 14.015625 5.316406 14.464844 5.085938 14.863281 4.789062 C 15.261719 4.496094 15.578125 4.152344 15.808594 3.765625 C 16.046875 3.375 16.167969 2.953125 16.167969 2.496094 C 16.167969 2.203125 16.085938 1.960938 15.921875 1.773438 C 15.761719 1.585938 15.5 1.4375 15.136719 1.328125 C 14.683594 1.191406 14.183594 1.097656 13.644531 1.039062 C 13.105469 0.976562 12.554688 0.945312 11.992188 0.945312 C 11.433594 0.945312 10.882812 0.976562 10.339844 1.039062 C 9.796875 1.097656 9.304688 1.191406 8.855469 1.328125 C 8.492188 1.4375 8.226562 1.585938 8.0625 1.773438 C 7.902344 1.960938 7.824219 2.203125 7.824219 2.496094 C 7.824219 2.953125 7.941406 3.375 8.171875 3.765625 C 8.410156 4.152344 8.730469 4.496094 9.128906 4.789062 C 9.527344 5.085938 9.972656 5.316406 10.464844 5.480469 C 10.964844 5.644531 11.472656 5.726562 11.992188 5.726562 Z M 11.992188 4.609375 C 11.46875 4.609375 10.988281 4.523438 10.550781 4.347656 C 10.121094 4.171875 9.761719 3.929688 9.476562 3.621094 C 9.191406 3.308594 9.015625 2.953125 8.949219 2.558594 C 8.941406 2.527344 8.949219 2.503906 8.964844 2.480469 C 8.984375 2.457031 9.015625 2.4375 9.058594 2.421875 C 9.515625 2.300781 9.988281 2.210938 10.484375 2.148438 C 10.976562 2.085938 11.480469 2.054688 11.992188 2.054688 C 12.503906 2.054688 13.003906 2.085938 13.5 2.148438 C 14 2.210938 14.476562 2.300781 14.933594 2.421875 C 14.976562 2.4375 15.007812 2.457031 15.027344 2.480469 C 15.042969 2.503906 15.046875 2.527344 15.042969 2.558594 C 14.972656 2.953125 14.796875 3.308594 14.515625 3.621094 C 14.230469 3.929688 13.871094 4.171875 13.433594 4.347656 C 13 4.523438 12.519531 4.609375 11.992188 4.609375 Z M 11.308594 5.046875 L 11.308594 10.816406 L 12.683594 10.816406 L 12.683594 5.046875 Z M 11.992188 11.34375 C 12.410156 11.34375 12.816406 11.402344 13.203125 11.515625 C 13.59375 11.621094 13.925781 11.761719 14.199219 11.933594 L 15.253906 11.234375 C 14.875 10.898438 14.398438 10.632812 13.824219 10.441406 C 13.253906 10.242188 12.644531 10.140625 11.992188 10.140625 C 11.347656 10.140625 10.746094 10.238281 10.183594 10.433594 C 9.621094 10.625 9.152344 10.882812 8.769531 11.207031 L 9.871094 11.890625 C 10.140625 11.722656 10.464844 11.59375 10.832031 11.496094 C 11.203125 11.394531 11.589844 11.34375 11.992188 11.34375 Z M 11.992188 18.035156 C 12.816406 18.035156 13.535156 17.921875 14.148438 17.691406 C 14.761719 17.464844 15.238281 17.148438 15.578125 16.738281 C 15.921875 16.328125 16.089844 15.855469 16.089844 15.316406 C 16.089844 14.769531 15.921875 14.296875 15.578125 13.890625 C 15.238281 13.484375 14.761719 13.164062 14.148438 12.9375 C 13.535156 12.710938 12.816406 12.597656 11.992188 12.597656 C 11.171875 12.597656 10.453125 12.710938 9.835938 12.9375 C 9.222656 13.164062 8.746094 13.484375 8.402344 13.890625 C 8.0625 14.296875 7.890625 14.769531 7.890625 15.316406 C 7.890625 15.855469 8.0625 16.328125 8.402344 16.738281 C 8.746094 17.148438 9.222656 17.464844 9.835938 17.691406 C 10.453125 17.921875 11.171875 18.035156 11.992188 18.035156 Z M 11.992188 16.832031 C 11.121094 16.832031 10.421875 16.691406 9.886719 16.414062 C 9.359375 16.128906 9.09375 15.765625 9.09375 15.316406 C 9.09375 14.859375 9.359375 14.496094 9.886719 14.214844 C 10.421875 13.9375 11.121094 13.796875 11.992188 13.796875 C 12.867188 13.796875 13.566406 13.9375 14.097656 14.214844 C 14.625 14.496094 14.890625 14.859375 14.890625 15.316406 C 14.890625 15.765625 14.625 16.128906 14.097656 16.414062 C 13.566406 16.691406 12.867188 16.832031 11.992188 16.832031 Z M 11.992188 12.597656 L 3.828125 8.410156 C 3.367188 8.179688 2.941406 8.070312 2.558594 8.089844 C 2.171875 8.105469 1.832031 8.210938 1.542969 8.402344 C 1.257812 8.589844 1.039062 8.835938 0.886719 9.136719 C 0.734375 9.433594 0.65625 9.746094 0.65625 10.082031 C 0.65625 10.417969 0.75 10.738281 0.9375 11.046875 C 1.125 11.347656 1.421875 11.59375 1.824219 11.785156 L 8.546875 15.066406 L 8.796875 13.933594 L 2.308594 10.78125 C 2.015625 10.632812 1.828125 10.449219 1.753906 10.226562 C 1.6875 10 1.710938 9.792969 1.824219 9.605469 C 1.9375 9.410156 2.121094 9.285156 2.378906 9.230469 C 2.640625 9.167969 2.953125 9.230469 3.316406 9.417969 L 10.492188 13.089844 Z M 8.25 15.851562 L 8.25 14.609375 L 3.417969 16.859375 C 2.972656 17.0625 2.652344 17.316406 2.445312 17.625 C 2.242188 17.9375 2.132812 18.261719 2.121094 18.597656 C 2.117188 18.933594 2.1875 19.25 2.335938 19.550781 C 2.488281 19.851562 2.703125 20.101562 2.972656 20.300781 C 3.253906 20.5 3.570312 20.613281 3.929688 20.640625 C 4.292969 20.675781 4.675781 20.589844 5.078125 20.386719 L 10.378906 17.683594 L 9.289062 16.96875 L 4.558594 19.378906 C 4.269531 19.527344 4.015625 19.5625 3.792969 19.484375 C 3.570312 19.410156 3.410156 19.273438 3.316406 19.074219 C 3.222656 18.875 3.21875 18.660156 3.296875 18.433594 C 3.382812 18.207031 3.589844 18.019531 3.910156 17.871094 Z M 11.992188 12.597656 L 13.5 13.089844 L 20.675781 9.417969 C 21.039062 9.230469 21.347656 9.167969 21.605469 9.230469 C 21.867188 9.285156 22.054688 9.410156 22.167969 9.605469 C 22.28125 9.792969 22.300781 10 22.226562 10.226562 C 22.160156 10.449219 21.976562 10.632812 21.683594 10.78125 L 15.195312 13.933594 L 15.433594 15.066406 L 22.167969 11.785156 C 22.570312 11.59375 22.867188 11.347656 23.054688 11.046875 C 23.242188 10.738281 23.335938 10.417969 23.335938 10.082031 C 23.335938 9.746094 23.253906 9.433594 23.097656 9.136719 C 22.941406 8.835938 22.722656 8.589844 22.441406 8.402344 C 22.15625 8.210938 21.816406 8.105469 21.425781 8.089844 C 21.039062 8.070312 20.621094 8.179688 20.164062 8.410156 Z M 15.734375 15.851562 L 20.078125 17.871094 C 20.402344 18.019531 20.605469 18.207031 20.683594 18.433594 C 20.769531 18.660156 20.765625 18.875 20.667969 19.074219 C 20.578125 19.273438 20.421875 19.410156 20.199219 19.484375 C 19.976562 19.5625 19.71875 19.527344 19.421875 19.378906 L 14.691406 16.96875 L 13.601562 17.683594 L 18.910156 20.386719 C 19.316406 20.589844 19.695312 20.675781 20.054688 20.640625 C 20.417969 20.613281 20.734375 20.5 21.007812 20.300781 C 21.285156 20.101562 21.5 19.851562 21.648438 19.550781 C 21.800781 19.25 21.871094 18.933594 21.859375 18.597656 C 21.855469 18.261719 21.75 17.9375 21.546875 17.625 C 21.339844 17.316406 21.015625 17.0625 20.566406 16.859375 L 15.734375 14.609375 Z M 15.734375 15.851562 "/>
</g>
</svg>
