<svg width="18" height="18" viewBox="0 0 18 18" fill="none" xmlns="http://www.w3.org/2000/svg">
<path d="M12.9297 1.51562C12.2474 1.51562 11.6536 1.72656 11.1484 2.14844C10.6432 2.57031 10.1953 3.1849 9.80469 3.99219C9.41406 4.79427 9.04427 5.77083 8.69531 6.92188L10.5625 8.78906H15.1797C15.8984 8.78906 16.4479 8.60417 16.8281 8.23438C17.2135 7.85938 17.4062 7.32292 17.4062 6.625C17.4062 6 17.2786 5.38542 17.0234 4.78125C16.7682 4.17188 16.4245 3.6224 15.9922 3.13281C15.5651 2.64323 15.0859 2.2526 14.5547 1.96094C14.0234 1.66406 13.4818 1.51562 12.9297 1.51562ZM12.9297 2.71094C13.3203 2.71094 13.7083 2.82812 14.0938 3.0625C14.4844 3.29167 14.8385 3.59635 15.1562 3.97656C15.474 4.35677 15.7292 4.77865 15.9219 5.24219C16.1146 5.70573 16.2109 6.16667 16.2109 6.625C16.2109 6.98958 16.1354 7.24219 15.9844 7.38281C15.8333 7.52344 15.5651 7.59375 15.1797 7.59375H9.75781C10.0807 6.53646 10.3906 5.64583 10.6875 4.92188C10.9896 4.19792 11.3177 3.64844 11.6719 3.27344C12.026 2.89844 12.4453 2.71094 12.9297 2.71094ZM5.07031 17.1953C5.7526 17.1953 6.34375 16.9844 6.84375 16.5625C7.34896 16.1458 7.79688 15.5391 8.1875 14.7422C8.58333 13.9401 8.95573 12.9661 9.30469 11.8203L7.40625 9.92188H2.82031C2.10677 9.92188 1.55729 10.1094 1.17188 10.4844C0.786458 10.8542 0.59375 11.388 0.59375 12.0859C0.59375 12.7109 0.721354 13.3281 0.976562 13.9375C1.23177 14.5417 1.57292 15.0885 2 15.5781C2.43229 16.0729 2.91406 16.4661 3.44531 16.7578C3.97656 17.0495 4.51823 17.1953 5.07031 17.1953ZM5.07031 16C4.67969 16 4.28906 15.8854 3.89844 15.6562C3.51302 15.4271 3.16146 15.1224 2.84375 14.7422C2.52604 14.3568 2.27083 13.9349 2.07812 13.4766C1.88542 13.013 1.78906 12.5495 1.78906 12.0859C1.78906 11.7214 1.86458 11.4688 2.01562 11.3281C2.16667 11.1875 2.4349 11.1172 2.82031 11.1172H8.24219C7.92448 12.1745 7.61458 13.0677 7.3125 13.7969C7.01562 14.5208 6.6875 15.0677 6.32812 15.4375C5.97396 15.8125 5.55469 16 5.07031 16ZM6.27344 0.953125C5.80469 0.953125 5.33854 1.03125 4.875 1.1875C4.41667 1.33854 3.98438 1.54427 3.57812 1.80469L4.46094 2.67969C4.74219 2.51302 5.03646 2.38281 5.34375 2.28906C5.65625 2.19531 5.96615 2.14844 6.27344 2.14844C6.63802 2.14844 6.89062 2.22396 7.03125 2.375C7.17188 2.52604 7.24219 2.79688 7.24219 3.1875V5.46094L8.4375 6.65625V3.1875C8.4375 2.46875 8.25 1.91667 7.875 1.53125C7.50521 1.14583 6.97135 0.953125 6.27344 0.953125ZM1.16406 5.42969C1.16406 6.17969 1.41406 6.82292 1.91406 7.35938C2.41406 7.89583 3.13542 8.375 4.07812 8.79688C5.02604 9.21354 6.16667 9.61979 7.5 10.0156L5.40625 7.92188C4.40104 7.59896 3.64062 7.2474 3.125 6.86719C2.61458 6.48177 2.35938 6.0026 2.35938 5.42969C2.35938 5.34635 2.36719 5.26823 2.38281 5.19531C2.39844 5.11719 2.42188 5.03906 2.45312 4.96094L1.50781 4.01562C1.39844 4.24479 1.3125 4.47917 1.25 4.71875C1.19271 4.95312 1.16406 5.1901 1.16406 5.42969ZM16.8438 13.2891C16.8438 12.5391 16.5911 11.8958 16.0859 11.3594C15.5807 10.8229 14.8542 10.3464 13.9062 9.92969C12.9583 9.50781 11.8151 9.09896 10.4766 8.70312L12.5625 10.7891C13.5833 11.112 14.3516 11.4688 14.8672 11.8594C15.388 12.2448 15.6484 12.7214 15.6484 13.2891C15.6484 13.3724 15.6406 13.4557 15.625 13.5391C15.6094 13.6224 15.5859 13.7031 15.5547 13.7812L16.5 14.7266C16.6094 14.4974 16.6927 14.263 16.75 14.0234C16.8125 13.7786 16.8438 13.5339 16.8438 13.2891ZM11.7344 17.7656C12.2031 17.7604 12.6667 17.6849 13.125 17.5391C13.5833 17.3932 14.013 17.1901 14.4141 16.9297L13.5391 16.0469C13.2578 16.2135 12.9635 16.3411 12.6562 16.4297C12.349 16.5234 12.0417 16.5703 11.7344 16.5703C11.3698 16.5703 11.1172 16.4948 10.9766 16.3438C10.8359 16.1927 10.7656 15.9245 10.7656 15.5391V13.2812L9.57031 12.0859V15.5391C9.57031 16.2578 9.75521 16.8073 10.125 17.1875C10.5 17.5729 11.0365 17.7656 11.7344 17.7656ZM15.7344 16.9609C15.8542 17.0807 15.9974 17.138 16.1641 17.1328C16.3307 17.1328 16.4714 17.0729 16.5859 16.9531C16.7057 16.8333 16.7656 16.6901 16.7656 16.5234C16.7656 16.362 16.7057 16.2214 16.5859 16.1016L2.25781 1.77344C2.14323 1.65365 2 1.59375 1.82812 1.59375C1.66146 1.59375 1.51823 1.65365 1.39844 1.77344C1.28385 1.88802 1.22656 2.03125 1.22656 2.20312C1.22656 2.36979 1.28385 2.51042 1.39844 2.625L15.7344 16.9609Z" fill="white"/>
</svg>
