<svg xmlns="http://www.w3.org/2000/svg" width="24" height="24"><path style="stroke:none;fill-rule:nonzero;fill:#fff;fill-opacity:1" d="M17.3 2.012c-.913 0-1.71.281-2.382.843-.676.563-1.277 1.38-1.805 2.458-.52 1.078-1.004 2.382-1.457 3.917l2.5 2.489h6.145c.96 0 1.691-.246 2.199-.739.508-.5.762-1.214.762-2.148a6.264 6.264 0 0 0-.512-2.457 7.802 7.802 0 0 0-1.375-2.2 6.825 6.825 0 0 0-1.918-1.57c-.7-.398-1.418-.593-2.156-.593ZM6.825 22.926c.91 0 1.7-.281 2.375-.844.672-.555 1.27-1.363 1.79-2.426.523-1.07 1.015-2.367 1.48-3.894l-2.531-2.524H3.832c-.973 0-1.71.246-2.219.742-.504.485-.758 1.196-.758 2.133.004.836.18 1.657.52 2.469.34.809.797 1.535 1.363 2.188.57.66 1.211 1.183 1.918 1.574.707.39 1.43.582 2.168.582ZM8.438 1.27c-.626 0-1.247.105-1.864.312-.61.2-1.191.477-1.73.824l6.468 6.469V4.25c0-.957-.25-1.695-.75-2.207-.492-.516-1.203-.773-2.124-.773ZM1.612 7.238c0 1 .336 1.86 1 2.574.668.715 1.63 1.356 2.887 1.918 1.266.555 2.785 1.098 4.563 1.625l-7.989-8c-.148.301-.261.614-.344.938a3.845 3.845 0 0 0-.117.945Zm20.907 10.48c0-1-.336-1.859-1.008-2.573-.668-.715-1.637-1.348-2.907-1.907-1.265-.562-2.789-1.105-4.574-1.633l8.031 8.032c.145-.309.258-.621.333-.938.085-.328.125-.652.125-.98Zm-6.813 5.97a6.38 6.38 0 0 0 1.855-.301 7.065 7.065 0 0 0 1.72-.813l-6.458-6.46v4.605c0 .957.25 1.691.75 2.199.5.512 1.211.77 2.133.77Zm5.344-1.075a.71.71 0 0 0 .562.23c.23 0 .422-.077.575-.238a.823.823 0 0 0 .23-.574.795.795 0 0 0-.23-.562L3.073 2.363a.761.761 0 0 0-.574-.238.77.77 0 0 0-.574.238.771.771 0 0 0-.227.575c0 .222.074.41.227.562Zm0 0"/></svg>