<svg width="18" height="17" viewBox="0 0 18 17" fill="none" xmlns="http://www.w3.org/2000/svg">
<path d="M3.3125 1.92969H14.6797V1.79688C14.6797 1.41146 14.5859 1.09635 14.3984 0.851562C14.2161 0.601562 13.9609 0.419271 13.6328 0.304688C13.3099 0.184896 12.9375 0.125 12.5156 0.125H5.47656C5.07552 0.125 4.71094 0.184896 4.38281 0.304688C4.05469 0.419271 3.79427 0.601562 3.60156 0.851562C3.40885 1.09635 3.3125 1.41146 3.3125 1.79688V1.92969ZM4.57812 16.9062H13.4141C13.9089 16.9062 14.2812 16.7865 14.5312 16.5469C14.7812 16.3073 14.9062 15.9297 14.9062 15.4141V13.9141H15.4453C16.2057 13.9141 16.7839 13.724 17.1797 13.3438C17.5755 12.9583 17.7734 12.3854 17.7734 11.625V5.26562C17.7734 4.50521 17.5755 3.93229 17.1797 3.54688C16.7839 3.16146 16.2057 2.96875 15.4453 2.96875H2.53906C1.82031 2.96875 1.2526 3.16146 0.835938 3.54688C0.424479 3.93229 0.21875 4.50521 0.21875 5.26562V11.625C0.21875 12.3854 0.416667 12.9583 0.8125 13.3438C1.20833 13.724 1.78385 13.9141 2.53906 13.9141H3.08594V15.4141C3.08594 15.9297 3.21094 16.3073 3.46094 16.5469C3.71094 16.7865 4.08333 16.9062 4.57812 16.9062ZM4.70312 6.625C4.45833 6.625 4.33594 6.5026 4.33594 6.25781V5.52344C4.33594 5.28385 4.45833 5.16406 4.70312 5.16406H5.44531C5.67969 5.16406 5.79688 5.28385 5.79688 5.52344V6.25781C5.79688 6.5026 5.67969 6.625 5.44531 6.625H4.70312ZM7.34375 6.625C7.10938 6.625 6.99219 6.5026 6.99219 6.25781V5.52344C6.99219 5.28385 7.10938 5.16406 7.34375 5.16406H8.08594C8.33073 5.16406 8.45312 5.28385 8.45312 5.52344V6.25781C8.45312 6.5026 8.33073 6.625 8.08594 6.625H7.34375ZM10 6.625C9.75521 6.625 9.63281 6.5026 9.63281 6.25781V5.52344C9.63281 5.28385 9.75521 5.16406 10 5.16406H10.7344C10.974 5.16406 11.0938 5.28385 11.0938 5.52344V6.25781C11.0938 6.5026 10.974 6.625 10.7344 6.625H10ZM12.6406 6.625C12.401 6.625 12.2812 6.5026 12.2812 6.25781V5.52344C12.2812 5.28385 12.401 5.16406 12.6406 5.16406H13.3828C13.6224 5.16406 13.7422 5.28385 13.7422 5.52344V6.25781C13.7422 6.5026 13.6224 6.625 13.3828 6.625H12.6406ZM4.70312 9.32812C4.45833 9.32812 4.33594 9.21094 4.33594 8.97656V8.23438C4.33594 7.98958 4.45833 7.86719 4.70312 7.86719H5.44531C5.67969 7.86719 5.79688 7.98958 5.79688 8.23438V8.97656C5.79688 9.21094 5.67969 9.32812 5.44531 9.32812H4.70312ZM7.34375 9.32812C7.10938 9.32812 6.99219 9.21094 6.99219 8.97656V8.23438C6.99219 7.98958 7.10938 7.86719 7.34375 7.86719H8.08594C8.33073 7.86719 8.45312 7.98958 8.45312 8.23438V8.97656C8.45312 9.21094 8.33073 9.32812 8.08594 9.32812H7.34375ZM10 9.32812C9.75521 9.32812 9.63281 9.21094 9.63281 8.97656V8.23438C9.63281 7.98958 9.75521 7.86719 10 7.86719H10.7344C10.974 7.86719 11.0938 7.98958 11.0938 8.23438V8.97656C11.0938 9.21094 10.974 9.32812 10.7344 9.32812H10ZM12.6406 9.32812C12.401 9.32812 12.2812 9.21094 12.2812 8.97656V8.23438C12.2812 7.98958 12.401 7.86719 12.6406 7.86719H13.3828C13.6224 7.86719 13.7422 7.98958 13.7422 8.23438V8.97656C13.7422 9.21094 13.6224 9.32812 13.3828 9.32812H12.6406ZM4.96875 15.7266C4.76042 15.7266 4.60417 15.6745 4.5 15.5703C4.39583 15.4714 4.34375 15.3151 4.34375 15.1016V12.4297C4.34375 12.2214 4.39583 12.0677 4.5 11.9688C4.60417 11.8646 4.76042 11.8125 4.96875 11.8125H13.0312C13.2396 11.8125 13.3932 11.8646 13.4922 11.9688C13.5964 12.0677 13.6484 12.2214 13.6484 12.4297V15.1016C13.6484 15.3151 13.5964 15.4714 13.4922 15.5703C13.3932 15.6745 13.2396 15.7266 13.0312 15.7266H4.96875ZM6.38281 14.3594H11.7109C11.8724 14.3594 12.0104 14.2995 12.125 14.1797C12.2396 14.0651 12.2969 13.9245 12.2969 13.7578C12.2969 13.5964 12.2396 13.4583 12.125 13.3438C12.0104 13.2292 11.8724 13.1719 11.7109 13.1719H6.38281C6.21615 13.1719 6.07552 13.2292 5.96094 13.3438C5.84635 13.4583 5.78906 13.5964 5.78906 13.7578C5.78906 13.9245 5.84635 14.0651 5.96094 14.1797C6.07552 14.2995 6.21615 14.3594 6.38281 14.3594Z" fill="white"/>
</svg>
