<svg width="135" height="155" viewBox="0 0 135 155" fill="none" xmlns="http://www.w3.org/2000/svg">
<path d="M67.4375 154.688C70.8542 154.688 73.75 154.25 76.125 153.375C78.5417 152.542 80.625 151.479 82.375 150.188C84.1667 148.938 85.7917 147.688 87.25 146.438C88.75 145.188 90.2708 144.125 91.8125 143.25C93.3542 142.417 95.125 142 97.125 142C99.1667 142 100.938 142.417 102.438 143.25C103.938 144.125 105.417 145.188 106.875 146.438C108.375 147.688 110.042 148.938 111.875 150.188C113.708 151.479 115.938 152.542 118.562 153.375C121.229 154.25 124.5 154.688 128.375 154.688H128.688C129.938 154.688 130.979 154.25 131.812 153.375C132.688 152.542 133.125 151.5 133.125 150.25C133.125 149.042 132.688 148 131.812 147.125C130.979 146.292 129.938 145.875 128.688 145.875H128.375C125.042 145.875 122.25 145.271 120 144.062C117.792 142.854 115.521 141.417 113.188 139.75C111.146 138.25 108.812 136.771 106.188 135.312C103.604 133.896 100.583 133.188 97.125 133.188C93.5417 133.188 90.4167 133.938 87.75 135.438C85.125 136.979 82.7917 138.521 80.75 140.062C78.5833 141.688 76.5208 143.062 74.5625 144.188C72.6042 145.312 70.2292 145.875 67.4375 145.875C64.6458 145.875 62.2708 145.312 60.3125 144.188C58.3542 143.062 56.2917 141.688 54.125 140.062C52.0833 138.521 49.7292 136.979 47.0625 135.438C44.4375 133.938 41.3333 133.188 37.75 133.188C34.2917 133.188 31.25 133.896 28.625 135.312C26.0417 136.771 23.7292 138.25 21.6875 139.75C19.3542 141.417 17.0833 142.854 14.875 144.062C12.6667 145.271 9.875 145.875 6.5 145.875H6.1875C4.97917 145.875 3.9375 146.292 3.0625 147.125C2.1875 148 1.75 149.042 1.75 150.25C1.75 151.5 2.1875 152.542 3.0625 153.375C3.9375 154.25 4.97917 154.688 6.1875 154.688H6.5C10.4167 154.688 13.6875 154.25 16.3125 153.375C18.9375 152.542 21.1667 151.479 23 150.188C24.8333 148.938 26.4792 147.688 27.9375 146.438C29.4375 145.188 30.9375 144.125 32.4375 143.25C33.9792 142.417 35.75 142 37.75 142C39.75 142 41.5208 142.417 43.0625 143.25C44.6042 144.125 46.1042 145.188 47.5625 146.438C49.0625 147.688 50.6875 148.938 52.4375 150.188C54.2292 151.479 56.3125 152.542 58.6875 153.375C61.1042 154.25 64.0208 154.688 67.4375 154.688ZM67.4375 138.562C68.8958 138.562 70.1667 138.271 71.25 137.688C72.375 137.146 74.0833 135.979 76.375 134.188C77.75 133.188 79.4375 132.042 81.4375 130.75C83.4375 129.458 85.75 128.312 88.375 127.312C91 126.354 93.9167 125.875 97.125 125.875C99.9583 125.875 102.604 126.271 105.062 127.062C107.521 127.854 110.083 129.062 112.75 130.688L130.562 99.125C133.229 94.4583 134.021 90.4375 132.938 87.0625C131.854 83.6458 129 80.875 124.375 78.75L78.9375 57.875C77.6042 57.25 76 56.5625 74.125 55.8125C72.25 55.0625 70.0208 54.6875 67.4375 54.6875C64.8542 54.6875 62.625 55.0625 60.75 55.8125C58.875 56.5625 57.2708 57.25 55.9375 57.875L10.5 78.75C5.875 80.875 3.02083 83.6458 1.9375 87.0625C0.895833 90.4375 1.6875 94.4583 4.3125 99.125L22.125 130.688C24.7917 129.062 27.3542 127.854 29.8125 127.062C32.2708 126.271 34.9167 125.875 37.75 125.875C40.9583 125.875 43.875 126.354 46.5 127.312C49.125 128.312 51.4375 129.458 53.4375 130.75C55.4792 132.042 57.1667 133.188 58.5 134.188C60.8333 135.979 62.5417 137.146 63.625 137.688C64.75 138.271 66.0208 138.562 67.4375 138.562ZM67.4375 46.1875C70.2708 46.1875 72.75 46.5208 74.875 47.1875C77.0417 47.8125 79.5833 48.7917 82.5 50.125L115.25 65.1875L109.875 25.3125C109.417 21.9375 108.146 19.1667 106.062 17C104.021 14.7917 101.312 13.6875 97.9375 13.6875H37.0625C33.6875 13.6875 30.9792 14.8333 28.9375 17.125C26.9375 19.4167 25.6667 22.5625 25.125 26.5625L19.75 65.125L52.375 50.125C55.2917 48.7917 57.8333 47.8125 60 47.1875C62.1667 46.5208 64.6458 46.1875 67.4375 46.1875ZM39.875 39.5625C38.2083 39.5625 37.375 38.7083 37.375 37V27C37.375 25.2917 38.2083 24.4375 39.875 24.4375H59.25C61.3333 24.4375 62.375 25.2917 62.375 27V37C62.375 38.7083 61.3333 39.5625 59.25 39.5625H39.875ZM75 39.5625C73.375 39.5625 72.5625 38.7083 72.5625 37V27C72.5625 25.2917 73.375 24.4375 75 24.4375H94.4375C96.5208 24.4375 97.5625 25.2917 97.5625 27V37C97.5625 38.7083 96.5208 39.5625 94.4375 39.5625H75ZM41.5 15.5625H93.4375V10.25C93.4375 7.20833 92.5833 4.83333 90.875 3.125C89.2083 1.41667 86.8542 0.5625 83.8125 0.5625H51.125C48.0833 0.5625 45.7083 1.41667 44 3.125C42.3333 4.83333 41.5 7.20833 41.5 10.25V15.5625Z" fill="white"/>
</svg>
