<svg width="135" height="156" viewBox="0 0 135 156" fill="none" xmlns="http://www.w3.org/2000/svg">
<path d="M67.4375 155.688C70.8542 155.688 73.75 155.25 76.125 154.375C78.5417 153.542 80.625 152.479 82.375 151.188C84.1667 149.938 85.7917 148.688 87.25 147.438C88.75 146.188 90.2708 145.125 91.8125 144.25C93.3542 143.417 95.125 143 97.125 143C99.1667 143 100.938 143.417 102.438 144.25C103.938 145.125 105.417 146.188 106.875 147.438C108.375 148.688 110.042 149.938 111.875 151.188C113.708 152.479 115.938 153.542 118.562 154.375C121.229 155.25 124.5 155.688 128.375 155.688H128.688C129.938 155.688 130.979 155.25 131.812 154.375C132.688 153.542 133.125 152.5 133.125 151.25C133.125 150.042 132.688 149 131.812 148.125C130.979 147.292 129.938 146.875 128.688 146.875H128.375C125.042 146.875 122.25 146.271 120 145.062C117.792 143.854 115.521 142.417 113.188 140.75C111.146 139.25 108.812 137.771 106.188 136.312C103.604 134.896 100.583 134.188 97.125 134.188C93.5417 134.188 90.4167 134.938 87.75 136.438C85.125 137.979 82.7917 139.521 80.75 141.062C78.5833 142.688 76.5208 144.062 74.5625 145.188C72.6042 146.312 70.2292 146.875 67.4375 146.875C64.6458 146.875 62.2708 146.312 60.3125 145.188C58.3542 144.062 56.2917 142.688 54.125 141.062C52.0833 139.521 49.7292 137.979 47.0625 136.438C44.4375 134.938 41.3333 134.188 37.75 134.188C34.2917 134.188 31.25 134.896 28.625 136.312C26.0417 137.771 23.7292 139.25 21.6875 140.75C19.3542 142.417 17.0833 143.854 14.875 145.062C12.6667 146.271 9.875 146.875 6.5 146.875H6.1875C4.97917 146.875 3.9375 147.292 3.0625 148.125C2.1875 149 1.75 150.042 1.75 151.25C1.75 152.5 2.1875 153.542 3.0625 154.375C3.9375 155.25 4.97917 155.688 6.1875 155.688H6.5C10.4167 155.688 13.6875 155.25 16.3125 154.375C18.9375 153.542 21.1667 152.479 23 151.188C24.8333 149.938 26.4792 148.688 27.9375 147.438C29.4375 146.188 30.9375 145.125 32.4375 144.25C33.9792 143.417 35.75 143 37.75 143C39.75 143 41.5208 143.417 43.0625 144.25C44.6042 145.125 46.1042 146.188 47.5625 147.438C49.0625 148.688 50.6875 149.938 52.4375 151.188C54.2292 152.479 56.3125 153.542 58.6875 154.375C61.1042 155.25 64.0208 155.688 67.4375 155.688ZM4.3125 100.125L27.25 140.625L34.8125 135.562L12.1875 96.25C10.8542 93.875 10.3958 92.0625 10.8125 90.8125C11.2292 89.5208 12.2917 88.5 14 87.75L59.5 66.875C61 66.1667 62.3333 65.6042 63.5 65.1875C64.6667 64.7292 65.9792 64.5 67.4375 64.5C68.8958 64.5 70.2083 64.7292 71.375 65.1875C72.5417 65.6042 73.8958 66.1667 75.4375 66.875L120.875 87.75C122.625 88.5 123.688 89.5208 124.062 90.8125C124.479 92.0625 124.021 93.875 122.688 96.25L100.062 135.562L108.062 140L130.562 100.125C133.229 95.4583 134.021 91.4167 132.938 88C131.854 84.5833 129 81.8333 124.375 79.75L78.9375 58.875C77.6042 58.25 76 57.5625 74.125 56.8125C72.25 56.0625 70.0208 55.6875 67.4375 55.6875C64.8542 55.6875 62.625 56.0625 60.75 56.8125C58.875 57.5625 57.2708 58.25 55.9375 58.875L10.5 79.75C5.875 81.8333 3.02083 84.5833 1.9375 88C0.895833 91.4167 1.6875 95.4583 4.3125 100.125ZM16.8125 78.6875L26.3125 74.25L33 27.375C33.1667 26.125 33.6042 25.1667 34.3125 24.5C35.0208 23.8333 35.9375 23.5 37.0625 23.5H97.9375C99.1458 23.5 100.104 23.7917 100.812 24.375C101.521 24.9167 101.958 25.6875 102.125 26.6875L108.688 74.5625L118.188 78.6875L111 26.125C110.5 22.5 109.104 19.6875 106.812 17.6875C104.521 15.6875 101.562 14.6875 97.9375 14.6875H37.0625C33.5208 14.6875 30.6042 15.8125 28.3125 18.0625C26.0625 20.2708 24.6458 23.375 24.0625 27.375L16.8125 78.6875ZM41.6875 46.25H61.0625C62.0208 46.25 62.7708 46.0208 63.3125 45.5625C63.8958 45.0625 64.1875 44.4375 64.1875 43.6875V33.6875C64.1875 32.9375 63.8958 32.3333 63.3125 31.875C62.7708 31.375 62.0208 31.125 61.0625 31.125H41.6875C40.9375 31.125 40.3333 31.375 39.875 31.875C39.4167 32.3333 39.1875 32.9375 39.1875 33.6875V43.6875C39.1875 44.4375 39.4167 45.0625 39.875 45.5625C40.3333 46.0208 40.9375 46.25 41.6875 46.25ZM73.1875 46.25H92.625C93.5833 46.25 94.3333 46.0208 94.875 45.5625C95.4583 45.0625 95.75 44.4375 95.75 43.6875V33.6875C95.75 32.9375 95.4583 32.3333 94.875 31.875C94.3333 31.375 93.5833 31.125 92.625 31.125H73.1875C72.4792 31.125 71.8958 31.375 71.4375 31.875C70.9792 32.3333 70.75 32.9375 70.75 33.6875V43.6875C70.75 44.4375 70.9792 45.0625 71.4375 45.5625C71.8958 46.0208 72.4792 46.25 73.1875 46.25ZM40.25 21.5625H49.0625V11.25C49.0625 9.83333 49.75 9.125 51.125 9.125H83.8125C85.1875 9.125 85.875 9.83333 85.875 11.25V21.5625H94.6875V10.625C94.6875 7.5 93.75 5 91.875 3.125C90.0417 1.25 87.5625 0.3125 84.4375 0.3125H50.5C47.375 0.3125 44.875 1.25 43 3.125C41.1667 5 40.25 7.5 40.25 10.625V21.5625Z" fill="white"/>
</svg>
