<svg width="14" height="20" viewBox="0 0 14 20" fill="none" xmlns="http://www.w3.org/2000/svg">
<path d="M3.44531 6.75781C3.75781 6.75781 4.04167 6.68229 4.29688 6.53125C4.55729 6.375 4.76302 6.16927 4.91406 5.91406C5.0651 5.65365 5.14062 5.36458 5.14062 5.04688C5.14062 4.73438 5.0651 4.45052 4.91406 4.19531C4.76302 3.9401 4.55729 3.73698 4.29688 3.58594C4.04167 3.42969 3.75781 3.35156 3.44531 3.35156C3.1276 3.35156 2.83854 3.42969 2.57812 3.58594C2.32292 3.73698 2.11719 3.9401 1.96094 4.19531C1.8099 4.45052 1.73438 4.73438 1.73438 5.04688C1.73438 5.36458 1.8099 5.65365 1.96094 5.91406C2.11719 6.16927 2.32292 6.375 2.57812 6.53125C2.83854 6.68229 3.1276 6.75781 3.44531 6.75781ZM7.70312 14.9375L10.125 11.6094L11.6562 14.4062C11.8281 15.2083 11.9531 15.9323 12.0312 16.5781C12.1146 17.224 12.1693 17.7526 12.1953 18.1641C12.2214 18.5755 12.2344 18.8281 12.2344 18.9219C12.2344 19.1615 12.3125 19.362 12.4688 19.5234C12.625 19.6849 12.8125 19.7656 13.0312 19.7656C13.2552 19.7656 13.4427 19.6849 13.5938 19.5234C13.75 19.3672 13.8281 19.1745 13.8281 18.9453C13.8281 18.9193 13.8177 18.6875 13.7969 18.25C13.776 17.8125 13.7214 17.2214 13.6328 16.4766C13.5443 15.737 13.4062 14.8984 13.2188 13.9609L13.1875 13.8203C13.0573 13.1745 12.8646 12.4375 12.6094 11.6094C12.3542 10.776 12.0208 9.89583 11.6094 8.96875C11.1979 8.04167 10.6927 7.10938 10.0938 6.17188C9.5 5.22917 8.79427 4.32552 7.97656 3.46094C7.16406 2.59115 6.22917 1.80469 5.17188 1.10156C5.03646 1.01823 4.90625 0.958333 4.78125 0.921875C4.66146 0.880208 4.53385 0.859375 4.39844 0.859375H0.960938C0.742188 0.859375 0.554688 0.9375 0.398438 1.09375C0.242188 1.25 0.164062 1.4375 0.164062 1.65625C0.164062 1.88542 0.242188 2.08073 0.398438 2.24219C0.554688 2.39844 0.742188 2.47656 0.960938 2.47656H4.33594C4.7526 2.76302 5.14323 3.0625 5.50781 3.375C5.8776 3.6875 6.22917 4.01302 6.5625 4.35156C6.66146 4.44531 6.67448 4.55469 6.60156 4.67969L3.89844 9.29688C3.78906 9.48958 3.7526 9.67969 3.78906 9.86719C3.83073 10.0495 3.92188 10.2031 4.0625 10.3281C4.20833 10.4479 4.38542 10.5078 4.59375 10.5078H8.28125L6.34375 14.0703L6.26562 14.2109L3.88281 18.5703C3.77344 18.7682 3.7474 18.974 3.80469 19.1875C3.86719 19.4062 3.9974 19.5651 4.19531 19.6641C4.3776 19.763 4.57552 19.7865 4.78906 19.7344C5.00781 19.6875 5.17708 19.5573 5.29688 19.3438L7.70312 14.9375ZM5.98438 8.90625L6.58594 7.88281C6.63281 7.79427 6.69271 7.75521 6.76562 7.76562C6.84375 7.77083 6.90365 7.80208 6.94531 7.85938L7.64844 8.90625H5.98438Z" fill="white"/>
</svg>
