<?xml version="1.0" encoding="UTF-8"?>
<svg xmlns="http://www.w3.org/2000/svg" xmlns:xlink="http://www.w3.org/1999/xlink" width="24" height="34.285714" viewBox="0 0 24 34.285714" version="1.1">
<g id="surface1">
<path style=" stroke:none;fill-rule:nonzero;fill:rgb(100%,100%,100%);fill-opacity:1;" d="M 11.636719 8.089844 C 12.175781 8.089844 12.660156 7.960938 13.097656 7.699219 C 13.542969 7.433594 13.898438 7.074219 14.15625 6.628906 C 14.425781 6.183594 14.558594 5.6875 14.558594 5.144531 C 14.558594 4.617188 14.425781 4.132812 14.15625 3.695312 C 13.898438 3.25 13.542969 2.898438 13.097656 2.636719 C 12.660156 2.371094 12.175781 2.238281 11.636719 2.238281 C 11.09375 2.238281 10.597656 2.371094 10.152344 2.636719 C 9.714844 2.898438 9.363281 3.25 9.09375 3.695312 C 8.835938 4.132812 8.707031 4.617188 8.707031 5.144531 C 8.707031 5.6875 8.835938 6.183594 9.09375 6.628906 C 9.363281 7.074219 9.714844 7.433594 10.152344 7.699219 C 10.597656 7.960938 11.09375 8.089844 11.636719 8.089844 Z M 2.289062 33.75 C 2.585938 33.902344 2.914062 33.941406 3.28125 33.871094 C 3.648438 33.800781 3.933594 33.582031 4.136719 33.214844 L 7.511719 27.132812 L 9.507812 22.648438 C 9.535156 22.601562 9.570312 22.570312 9.617188 22.554688 C 9.667969 22.535156 9.71875 22.550781 9.761719 22.59375 L 15.121094 26.476562 L 15.121094 32.542969 C 15.121094 32.929688 15.25 33.25 15.507812 33.507812 C 15.777344 33.777344 16.097656 33.910156 16.472656 33.910156 C 16.855469 33.910156 17.179688 33.777344 17.4375 33.507812 C 17.695312 33.25 17.824219 32.929688 17.824219 32.542969 L 17.824219 25.875 C 17.824219 25.6875 17.792969 25.5 17.730469 25.3125 C 17.667969 25.117188 17.5625 24.945312 17.410156 24.804688 L 11.824219 19.527344 L 12.347656 15.28125 C 12.355469 15.199219 12.398438 15.160156 12.46875 15.160156 C 12.550781 15.152344 12.601562 15.179688 12.628906 15.242188 L 13.875 18.199219 C 14.105469 18.753906 14.523438 19.03125 15.121094 19.03125 L 20.867188 19.03125 C 21.242188 19.03125 21.558594 18.902344 21.816406 18.644531 C 22.085938 18.375 22.21875 18.054688 22.21875 17.679688 C 22.21875 17.304688 22.085938 16.988281 21.816406 16.726562 C 21.558594 16.460938 21.242188 16.324219 20.867188 16.324219 L 16.003906 16.324219 L 14.074219 11.785156 C 13.824219 11.195312 13.480469 10.722656 13.042969 10.367188 C 12.605469 10.007812 11.960938 9.710938 11.101562 9.46875 L 10.324219 9.253906 C 9.398438 8.996094 8.582031 8.863281 7.875 8.851562 C 7.167969 8.835938 6.441406 8.988281 5.691406 9.308594 L 3.628906 10.191406 L 3.628906 5.167969 C 3.628906 4.804688 3.496094 4.492188 3.226562 4.230469 C 2.960938 3.964844 2.644531 3.832031 2.277344 3.832031 C 1.902344 3.832031 1.582031 3.964844 1.3125 4.230469 C 1.054688 4.492188 0.925781 4.804688 0.925781 5.167969 L 0.925781 12.414062 C 0.925781 12.738281 1.019531 13.003906 1.207031 13.21875 C 1.402344 13.425781 1.644531 13.558594 1.929688 13.621094 C 2.222656 13.683594 2.519531 13.648438 2.8125 13.511719 L 6.644531 11.839844 C 6.722656 11.8125 6.792969 11.820312 6.855469 11.867188 C 6.929688 11.902344 6.960938 11.96875 6.949219 12.066406 L 5.023438 26.050781 L 1.753906 31.914062 C 1.585938 32.238281 1.550781 32.582031 1.648438 32.945312 C 1.746094 33.3125 1.960938 33.582031 2.289062 33.75 Z M 19.957031 14.261719 L 21.441406 14.261719 L 21.441406 2.183594 C 21.441406 1.976562 21.367188 1.804688 21.214844 1.660156 C 21.070312 1.519531 20.898438 1.445312 20.691406 1.445312 C 20.488281 1.445312 20.3125 1.519531 20.167969 1.660156 C 20.027344 1.804688 19.957031 1.976562 19.957031 2.183594 Z M 18.84375 15.039062 L 22.539062 15.039062 C 22.761719 15.039062 22.914062 14.964844 22.996094 14.8125 C 23.085938 14.652344 23.09375 14.46875 23.023438 14.261719 C 22.851562 13.761719 22.554688 13.355469 22.125 13.042969 C 21.707031 12.722656 21.226562 12.5625 20.691406 12.5625 C 20.15625 12.5625 19.675781 12.722656 19.246094 13.042969 C 18.824219 13.355469 18.53125 13.761719 18.363281 14.261719 C 18.289062 14.46875 18.292969 14.652344 18.375 14.8125 C 18.464844 14.964844 18.621094 15.039062 18.84375 15.039062 Z M 18.84375 15.039062 "/>
</g>
</svg>
