<svg width="16" height="20" viewBox="0 0 16 20" fill="none" xmlns="http://www.w3.org/2000/svg">
<path d="M6.21094 7.82031C6.52865 7.82031 6.8151 7.74479 7.07031 7.59375C7.33073 7.4375 7.53646 7.23177 7.6875 6.97656C7.84375 6.71615 7.92188 6.42708 7.92188 6.10938C7.92188 5.79688 7.84375 5.51302 7.6875 5.25781C7.53646 4.9974 7.33073 4.79167 7.07031 4.64062C6.8151 4.48438 6.52865 4.40625 6.21094 4.40625C5.89844 4.40625 5.61198 4.48438 5.35156 4.64062C5.09115 4.79167 4.88542 4.9974 4.73438 5.25781C4.58333 5.51302 4.50781 5.79688 4.50781 6.10938C4.50781 6.42708 4.58333 6.71615 4.73438 6.97656C4.88542 7.23177 5.09115 7.4375 5.35156 7.59375C5.61198 7.74479 5.89844 7.82031 6.21094 7.82031ZM2.05469 18.0859L6.75 19.2656C7.08333 19.349 7.34635 19.2891 7.53906 19.0859C7.73698 18.888 7.8151 18.6354 7.77344 18.3281L7.33594 15.3359H11.0547L13.9609 18.2812C14.112 18.4323 14.2969 18.5078 14.5156 18.5078C14.7344 18.5078 14.9219 18.4323 15.0781 18.2812C15.2396 18.1302 15.3177 17.9427 15.3125 17.7188C15.3125 17.4948 15.2344 17.3047 15.0781 17.1484L12.0078 14.0625C11.8984 13.9583 11.8073 13.8854 11.7344 13.8438C11.6615 13.8021 11.5365 13.7708 11.3594 13.75L7.99219 13.4141L7.14062 10.8438C7.10938 10.7552 7.1224 10.6745 7.17969 10.6016C7.23698 10.5286 7.3151 10.5026 7.41406 10.5234L13.5703 11.75C13.7682 11.7917 13.9609 11.7604 14.1484 11.6562C14.3411 11.5521 14.4557 11.3802 14.4922 11.1406C14.5286 10.9219 14.4896 10.724 14.375 10.5469C14.2604 10.3646 14.0964 10.2526 13.8828 10.2109L5.375 8.51562C5 8.44271 4.70052 8.36979 4.47656 8.29688C4.2526 8.21875 4.05729 8.09635 3.89062 7.92969L2.25 6.30469V2.67188C2.25 2.45312 2.17448 2.26823 2.02344 2.11719C1.8724 1.96094 1.6875 1.88281 1.46875 1.88281C1.23958 1.88281 1.04948 1.96094 0.898438 2.11719C0.747396 2.26823 0.671875 2.45312 0.671875 2.67188V6.5C0.671875 6.66146 0.6875 6.79688 0.71875 6.90625C0.75 7.01562 0.825521 7.13021 0.945312 7.25L2.77344 9.07031C2.96094 9.25781 3.08333 9.40625 3.14062 9.51562C3.19792 9.625 3.26042 9.77604 3.32812 9.96875L5.79688 17.3906L2.4375 16.5469C2.22917 16.4896 2.03125 16.5182 1.84375 16.6328C1.65625 16.7474 1.53906 16.9141 1.49219 17.1328C1.44531 17.3411 1.47396 17.5391 1.57812 17.7266C1.6875 17.9141 1.84635 18.0339 2.05469 18.0859ZM3.73438 2.94531C4 2.94531 4.22917 2.85156 4.42188 2.66406C4.61458 2.47135 4.71094 2.23958 4.71094 1.96875C4.71094 1.69792 4.61458 1.46875 4.42188 1.28125C4.22917 1.08854 4 0.992188 3.73438 0.992188C3.45833 0.992188 3.22656 1.08854 3.03906 1.28125C2.85677 1.46875 2.76562 1.69792 2.76562 1.96875C2.76562 2.23958 2.85677 2.47135 3.03906 2.66406C3.22656 2.85156 3.45833 2.94531 3.73438 2.94531Z" fill="white"/>
</svg>
