<svg width="101" height="157" viewBox="0 0 101 157" fill="none" xmlns="http://www.w3.org/2000/svg">
<path d="M52.5 27.4375C55 27.4375 57.2708 26.8333 59.3125 25.625C61.3542 24.375 62.9792 22.7083 64.1875 20.625C65.4375 18.5417 66.0625 16.2292 66.0625 13.6875C66.0625 11.1875 65.4375 8.91667 64.1875 6.875C62.9792 4.83333 61.3542 3.20833 59.3125 2C57.2708 0.75 55 0.125 52.5 0.125C49.9583 0.125 47.6458 0.75 45.5625 2C43.4792 3.20833 41.8125 4.83333 40.5625 6.875C39.3542 8.91667 38.75 11.1875 38.75 13.6875C38.75 16.2292 39.3542 18.5417 40.5625 20.625C41.8125 22.7083 43.4792 24.375 45.5625 25.625C47.6458 26.8333 49.9583 27.4375 52.5 27.4375ZM75.8125 156.188C77.5208 155.688 78.75 154.625 79.5 153C80.25 151.417 80.3542 149.771 79.8125 148.062L69.875 118.125C69.75 117.667 69.5833 117.312 69.375 117.062C69.2083 116.771 68.9792 116.417 68.6875 116L52 96.875L55.5 58.8125C55.5417 58.1875 55.8333 57.8125 56.375 57.6875C56.9583 57.5208 57.4167 57.7083 57.75 58.25L65.8125 70.6875C67.0208 72.4792 68.5833 73.9167 70.5 75L90.6875 85.875C92.2292 86.7083 93.8333 86.875 95.5 86.375C97.2083 85.875 98.5 84.8542 99.375 83.3125C100.167 81.7708 100.312 80.1458 99.8125 78.4375C99.3542 76.7292 98.3542 75.4583 96.8125 74.625L76.5625 63.8125L63.125 43.0625C61.2917 40.1875 59 37.9583 56.25 36.375C53.5417 34.7917 50.3333 34 46.625 34H33.3125L28.125 83.3125C27.7917 86.5208 28 89.3125 28.75 91.6875C29.5417 94.0208 31.2292 96.5 33.8125 99.125L58.1875 123.625L67.75 152.062C68.4167 154.146 69.5417 155.438 71.125 155.938C72.75 156.479 74.3125 156.562 75.8125 156.188ZM20.25 83.3125H30.5C33.25 83.3125 35.5625 82.4167 37.4375 80.625C39.3125 78.8333 40.25 76.625 40.25 74V36.6875C40.25 34.0625 39.3125 31.8542 37.4375 30.0625C35.5625 28.2292 33.25 27.3125 30.5 27.3125H23.5C19.5417 27.3125 16.4583 28.4375 14.25 30.6875C12.0417 32.8958 10.9375 36.0208 10.9375 40.0625V74C10.9375 76.75 11.7917 79 13.5 80.75C15.25 82.4583 17.5 83.3125 20.25 83.3125ZM2.8125 154.5C4.10417 155.833 5.60417 156.479 7.3125 156.438C9.02083 156.396 10.5 155.75 11.75 154.5L35.125 131.25C35.3333 131 35.5417 130.75 35.75 130.5C36 130.292 36.1875 130.042 36.3125 129.75L42.75 116.688L31.5625 105.5L25.0625 123.312L2.8125 145.688C1.5625 146.938 0.9375 148.417 0.9375 150.125C0.9375 151.833 1.5625 153.292 2.8125 154.5ZM93.3125 51.125C92.3542 51.125 91.5417 51.4583 90.875 52.125C90.2083 52.7917 89.875 53.6042 89.875 54.5625V64.0625L96.8125 67.8125V54.5625C96.8125 53.6042 96.4792 52.7917 95.8125 52.125C95.1458 51.4583 94.3125 51.125 93.3125 51.125ZM93.3125 156.375C94.3125 156.375 95.1458 156.021 95.8125 155.312C96.4792 154.646 96.8125 153.833 96.8125 152.875V92.25C94.4792 92.875 92.1667 92.8125 89.875 92.0625V152.875C89.875 153.833 90.2083 154.646 90.875 155.312C91.5417 156.021 92.3542 156.375 93.3125 156.375Z" fill="white"/>
</svg>
