<svg xmlns="http://www.w3.org/2000/svg" width="24" height="24"><path style="stroke:none;fill-rule:nonzero;fill:#fff;fill-opacity:1" d="M13.656 6.445c.418 0 .797-.113 1.137-.34.348-.234.621-.543.82-.921.211-.395.313-.829.313-1.305a2.6 2.6 0 0 0-.313-1.277 2.333 2.333 0 0 0-.82-.926 1.944 1.944 0 0 0-1.137-.352c-.422 0-.808.117-1.156.352-.34.226-.613.535-.824.926-.2.382-.301.808-.301 1.277 0 .476.102.91.3 1.3.212.383.485.692.825.923.348.23.734.343 1.156.343Zm1.637 8.075c.305 0 .566-.118.781-.352.215-.242.32-.535.32-.879s-.105-.633-.32-.867a1.022 1.022 0 0 0-.781-.363h-3.824v-4.41c0-.481-.11-.899-.324-1.25a1.841 1.841 0 0 0-.852-.762 1.648 1.648 0 0 0-1.125-.106l-6.438 1.5c-.585.133-1.058.407-1.417.809-.36.406-.606.883-.731 1.43a3.587 3.587 0 0 0 .031 1.64c.14.547.422 1.024.844 1.442l4 3.96v6.211c0 .336.11.63.324.868a1 1 0 0 0 1.543 0c.215-.239.32-.532.32-.868v-6.68c0-.382-.105-.702-.32-.96L4.238 11.39c-.082-.102-.11-.207-.082-.317a.275.275 0 0 1 .207-.199L8.7 9.973c.387-.086.582.078.582.492v2.824c0 .344.11.637.324.879.215.234.473.352.77.352Zm5.883 4.652h1.523c.262 0 .473-.09.625-.27.16-.18.238-.414.238-.703V7.676a.95.95 0 0 0-.238-.668.75.75 0 0 0-.605-.27h-1.582c-1.246 0-2.344.133-3.305.41a7.986 7.986 0 0 0-2.645 1.313c-.804.61-1.601 1.43-2.386 2.46h1.648c.93-1.03 1.91-1.76 2.946-2.19 1.043-.43 2.289-.645 3.742-.645h1.218V17.8h-1.18c-.378 0-.66-.192-.843-.574l-.945-2.133a.602.602 0 0 0-.336-.328.519.519 0 0 0-.383-.012.714.714 0 0 0-.367.351c-.09.172-.086.372.012.598l.957 2.145c.183.398.437.718.773.96.34.243.719.364 1.133.364Zm-12.52-.656c.5-.399.953-.844 1.364-1.336.41-.492.796-1 1.156-1.524h-.801c-.117 0-.234-.011-.344-.031a2.064 2.064 0 0 1-.332-.11c-.16.215-.328.43-.5.633-.176.204-.355.403-.543.602Zm-7.562 1.89h1.793c.277 0 .543-.011.8-.027.254-.024.508-.055.762-.094v-1.36c-.52.087-1.039.13-1.562.13H1.094a.562.562 0 0 0-.438.199.683.683 0 0 0-.176.48c0 .184.06.336.176.47a.555.555 0 0 0 .438.202Zm0 0"/></svg>