<?xml version="1.0" encoding="UTF-8"?>
<svg xmlns="http://www.w3.org/2000/svg" xmlns:xlink="http://www.w3.org/1999/xlink" width="24" height="42" viewBox="0 0 24 42" version="1.1">
<g id="surface1">
<path style=" stroke:none;fill-rule:nonzero;fill:rgb(100%,100%,100%);fill-opacity:1;" d="M 10.375 16.703125 C 11 16.703125 11.566406 16.550781 12.078125 16.25 C 12.589844 15.9375 12.996094 15.527344 13.296875 15.015625 C 13.597656 14.496094 13.75 13.917969 13.75 13.28125 C 13.75 12.65625 13.597656 12.089844 13.296875 11.578125 C 12.996094 11.066406 12.589844 10.660156 12.078125 10.359375 C 11.566406 10.046875 11 9.890625 10.375 9.890625 C 9.738281 9.890625 9.160156 10.046875 8.640625 10.359375 C 8.121094 10.660156 7.707031 11.066406 7.40625 11.578125 C 7.105469 12.089844 6.953125 12.65625 6.953125 13.28125 C 6.953125 13.917969 7.105469 14.496094 7.40625 15.015625 C 7.707031 15.527344 8.121094 15.9375 8.640625 16.25 C 9.160156 16.550781 9.738281 16.703125 10.375 16.703125 Z M 2.3125 40.4375 L 10.375 40.4375 C 10.863281 40.4375 11.230469 40.324219 11.46875 40.09375 C 11.71875 39.863281 11.878906 39.535156 11.953125 39.109375 L 13.328125 31.578125 L 19.703125 31.578125 L 18.453125 38.515625 C 18.359375 39.078125 18.457031 39.527344 18.75 39.859375 C 19.050781 40.203125 19.40625 40.394531 19.8125 40.4375 C 20.207031 40.46875 20.589844 40.378906 20.953125 40.171875 C 21.316406 39.972656 21.546875 39.621094 21.640625 39.109375 L 23.203125 30.40625 C 23.308594 29.800781 23.214844 29.324219 22.921875 28.96875 C 22.628906 28.605469 22.265625 28.402344 21.828125 28.359375 L 16.15625 27.734375 L 16.640625 22.359375 C 16.660156 22.066406 16.824219 21.921875 17.125 21.921875 L 21.65625 21.921875 C 22.09375 21.921875 22.46875 21.761719 22.78125 21.4375 C 23.105469 21.113281 23.265625 20.734375 23.265625 20.296875 L 23.265625 11.4375 C 23.265625 11.105469 23.171875 10.800781 22.984375 10.53125 C 22.796875 10.261719 22.550781 10.066406 22.25 9.953125 C 21.957031 9.828125 21.652344 9.796875 21.328125 9.859375 C 21.015625 9.910156 20.738281 10.050781 20.5 10.28125 L 11.671875 19.140625 C 11.277344 19.535156 10.957031 19.980469 10.71875 20.46875 C 10.480469 20.957031 10.332031 21.503906 10.28125 22.109375 L 8.890625 37.21875 L 2.3125 37.21875 C 1.863281 37.21875 1.484375 37.371094 1.171875 37.671875 C 0.871094 37.984375 0.71875 38.363281 0.71875 38.8125 C 0.71875 39.261719 0.871094 39.640625 1.171875 39.953125 C 1.484375 40.277344 1.863281 40.4375 2.3125 40.4375 Z M 20.046875 15.328125 L 20.046875 18.671875 L 16.671875 18.671875 Z M 16.8125 10.59375 L 20.4375 13.828125 L 21.28125 12.890625 L 17.703125 9.640625 Z M 7.859375 4.03125 L 16.109375 11.46875 C 16.359375 11.699219 16.636719 11.800781 16.9375 11.78125 C 17.238281 11.75 17.511719 11.609375 17.75 11.359375 L 18.578125 10.515625 C 18.828125 10.265625 18.9375 9.984375 18.90625 9.671875 C 18.875 9.359375 18.738281 9.089844 18.5 8.859375 L 10.203125 1.390625 C 9.953125 1.160156 9.667969 1.058594 9.34375 1.078125 C 9.03125 1.097656 8.765625 1.234375 8.546875 1.484375 L 7.765625 2.390625 C 7.546875 2.640625 7.441406 2.917969 7.453125 3.21875 C 7.464844 3.519531 7.597656 3.792969 7.859375 4.03125 Z M 7.859375 4.03125 "/>
</g>
</svg>
