<svg width="158" height="113" viewBox="0 0 158 113" fill="none" xmlns="http://www.w3.org/2000/svg">
<path d="M93.4375 27.625C95.9375 27.625 98.2083 27.0208 100.25 25.8125C102.333 24.5625 103.979 22.9167 105.188 20.875C106.438 18.7917 107.062 16.5 107.062 14C107.062 11.5 106.438 9.22917 105.188 7.1875C103.979 5.14583 102.333 3.52083 100.25 2.3125C98.2083 1.0625 95.9375 0.4375 93.4375 0.4375C90.9375 0.4375 88.6458 1.0625 86.5625 2.3125C84.5208 3.52083 82.875 5.14583 81.625 7.1875C80.4167 9.22917 79.8125 11.5 79.8125 14C79.8125 16.5 80.4167 18.7917 81.625 20.875C82.875 22.9167 84.5208 24.5625 86.5625 25.8125C88.6458 27.0208 90.9375 27.625 93.4375 27.625ZM71.1875 104.812C70.7708 106.938 71.1042 108.625 72.1875 109.875C73.2708 111.125 74.6458 111.875 76.3125 112.125C77.9792 112.375 79.5417 112.062 81 111.188C82.5 110.354 83.4375 108.854 83.8125 106.688L90.25 71.5625C90.5417 69.9375 90.2083 68.375 89.25 66.875C88.2917 65.375 86.875 64.5 85 64.25L63.875 61.25L76.9375 48.1875C77.5625 47.5208 78.2917 47.1875 79.125 47.1875C79.9583 47.1875 80.6875 47.5208 81.3125 48.1875L117.75 84.625C118.958 85.8333 120.438 86.4583 122.188 86.5C123.979 86.5417 125.5 85.9167 126.75 84.625C127.958 83.3333 128.562 81.8333 128.562 80.125C128.604 78.375 128 76.875 126.75 75.625L78.4375 27.3125C75.3125 24.1875 71.5625 22.625 67.1875 22.625H39.25C37.5 22.625 36 23.25 34.75 24.5L15.625 43.6875C14.375 44.9375 13.75 46.4375 13.75 48.1875C13.75 49.9375 14.375 51.4375 15.625 52.6875C16.875 53.9375 18.3542 54.5625 20.0625 54.5625C21.8125 54.5625 23.3125 53.9375 24.5625 52.6875L41.9375 35.375H53.125C53.75 35.375 54.1458 35.5833 54.3125 36C54.4792 36.4167 54.375 36.8333 54 37.25L36.75 54.4375C34.6667 56.5208 33.3542 58.8542 32.8125 61.4375C32.3125 63.9792 32.4792 66.4375 33.3125 68.8125C34.1875 71.1458 35.7083 73.0833 37.875 74.625C40.0417 76.125 42.7708 76.875 46.0625 76.875H76.25L71.1875 104.812ZM35 79.9375L33.3125 99.25H7.3125C5.5625 99.25 4.0625 99.875 2.8125 101.125C1.5625 102.375 0.9375 103.875 0.9375 105.625C0.9375 107.375 1.5625 108.875 2.8125 110.125C4.0625 111.375 5.5625 112 7.3125 112H39.25C40.875 112 42.2708 111.458 43.4375 110.375C44.6042 109.292 45.3125 107.958 45.5625 106.375L49.8125 82.9375H46.0625C41.8125 82.9375 38.125 81.9375 35 79.9375ZM130.188 112H149.312C151.438 112 153.25 111.229 154.75 109.688C156.292 108.188 157.062 106.354 157.062 104.188C157.062 102.062 156.292 100.25 154.75 98.75C153.25 97.2083 151.438 96.4375 149.312 96.4375H130.188C127.979 96.4375 126.104 97.2083 124.562 98.75C123.062 100.25 122.312 102.062 122.312 104.188C122.312 106.354 123.062 108.188 124.562 109.688C126.104 111.229 127.979 112 130.188 112ZM143.25 100.375H149V94.1875C149 91.6042 148.125 89.4375 146.375 87.6875C144.625 85.8958 142.479 85 139.938 85H133.375C132.542 85 131.833 85.2917 131.25 85.875C130.708 86.4167 130.438 87.1042 130.438 87.9375C130.438 88.7292 130.708 89.4167 131.25 90C131.833 90.5417 132.542 90.8125 133.375 90.8125H139.938C140.896 90.8125 141.688 91.1458 142.312 91.8125C142.938 92.4375 143.25 93.2292 143.25 94.1875V100.375Z" fill="white"/>
</svg>
