<svg xmlns="http://www.w3.org/2000/svg" width="24" height="24"><path style="stroke:none;fill-rule:nonzero;fill:#fff;fill-opacity:1" d="M14.164 5.723c.375 0 .719-.118 1.024-.36a2.62 2.62 0 0 0 .742-.988c.187-.418.28-.875.28-1.375a3.24 3.24 0 0 0-.28-1.363 2.514 2.514 0 0 0-.742-.973 1.578 1.578 0 0 0-1.024-.379c-.375 0-.719.125-1.031.375-.305.246-.551.57-.738.973A3.327 3.327 0 0 0 12.12 3c0 .5.09.957.274 1.375.187.406.433.738.738.988.312.242.656.36 1.031.36ZM10.828 21.16c-.062.43-.012.766.149 1.016.164.25.37.398.62.449.25.05.485-.012.704-.188.222-.167.363-.468.422-.902l.964-7.027a1.64 1.64 0 0 0-.148-.934c-.14-.297-.379-.488-.64-.52l-3.169-.609 1.961-2.61a.418.418 0 0 1 .329-.202c.125 0 .234.07.328.203l5.464 7.289c.18.238.403.363.665.375.257.016.511-.121.687-.375.176-.242.273-.566.27-.902a1.4 1.4 0 0 0-.27-.903l-7.25-9.66c-.441-.61-1.05-.95-1.687-.937H6.039c-.254-.004-.5.129-.676.375l-2.87 3.84a1.45 1.45 0 0 0-.282.898c0 .351.094.652.281.902.188.25.41.375.668.375.254.004.5-.133.676-.375l2.605-3.46h1.676c.094 0 .156.038.18.124a.297.297 0 0 1-.047.25L5.664 11.09a3.084 3.084 0 0 0-.594 1.398 3.682 3.682 0 0 0 .078 1.477c.13.46.36.851.684 1.16.324.3.734.45 1.227.45h4.527Zm-5.43-4.973-.25 3.864H1.246c-.254-.004-.5.133-.676.375a1.442 1.442 0 0 0-.28.898c0 .352.093.649.28.899.176.246.422.379.676.375H6.04c.234.007.457-.11.625-.32.176-.22.281-.485.32-.805l.637-4.688H7.06c-.637 0-1.192-.195-1.66-.598Zm14.282 6.41h2.867c.32 0 .59-.148.816-.46.23-.297.348-.668.348-1.102 0-.422-.117-.785-.348-1.086-.21-.3-.508-.465-.816-.46H19.68c-.332 0-.614.152-.844.46-.227.301-.34.664-.34 1.086 0 .434.113.805.34 1.102.23.312.512.46.844.46Zm1.957-2.32h.863v-1.242c0-.515-.133-.945-.395-1.297-.25-.351-.601-.55-.964-.539h-.985c-.117-.008-.23.055-.316.164a.7.7 0 0 0-.125.422.72.72 0 0 0 .12.414c.09.11.196.164.321.164h.985a.41.41 0 0 1 .355.2.77.77 0 0 1 .14.472Zm0 0"/></svg>