<svg width="24" height="9" viewBox="0 0 24 9" fill="none" xmlns="http://www.w3.org/2000/svg">
<path d="M3.39062 3.60156C3.70833 3.60156 3.99479 3.52604 4.25 3.375C4.51042 3.22396 4.71615 3.02083 4.86719 2.76562C5.01823 2.50521 5.09375 2.21615 5.09375 1.89844C5.09375 1.58594 5.01823 1.30208 4.86719 1.04688C4.71615 0.786458 4.51042 0.580729 4.25 0.429688C3.99479 0.273438 3.70833 0.195312 3.39062 0.195312C3.07812 0.195312 2.79167 0.273438 2.53125 0.429688C2.27604 0.580729 2.07292 0.786458 1.92188 1.04688C1.77083 1.30208 1.69531 1.58594 1.69531 1.89844C1.69531 2.21615 1.77083 2.50521 1.92188 2.76562C2.07292 3.02083 2.27604 3.22396 2.53125 3.375C2.79167 3.52604 3.07812 3.60156 3.39062 3.60156ZM8.5 8.3125H10.7344C11.349 8.3125 11.8255 8.20833 12.1641 8C12.5078 7.79167 12.737 7.51562 12.8516 7.17188C12.9714 6.82292 13.0052 6.44792 12.9531 6.04688L12.4375 1.94531H16.4453C16.6693 1.94531 16.8594 1.86719 17.0156 1.71094C17.1719 1.54948 17.25 1.35677 17.25 1.13281C17.25 0.908854 17.1719 0.721354 17.0156 0.570312C16.8594 0.414062 16.6693 0.335938 16.4453 0.335938H11.4453C11.2161 0.335938 11.0234 0.414062 10.8672 0.570312C10.7109 0.721354 10.6328 0.932292 10.6328 1.20312V5.34375H9.29688C8.94271 5.34375 8.61979 5.27865 8.32812 5.14844C8.04167 5.01823 7.8125 4.8151 7.64062 4.53906C7.54167 4.38281 7.5651 4.22135 7.71094 4.05469L9.71875 1.67188C9.875 1.48958 9.94531 1.29427 9.92969 1.08594C9.91406 0.877604 9.83333 0.700521 9.6875 0.554688C9.54688 0.408854 9.36198 0.335938 9.13281 0.335938H6.3125C6.08854 0.335938 5.89844 0.414062 5.74219 0.570312C5.58594 0.721354 5.50781 0.908854 5.50781 1.13281C5.50781 1.36198 5.58333 1.55469 5.73438 1.71094C5.89062 1.86719 6.08333 1.94531 6.3125 1.94531H7.45312L6.28125 3.32812C5.86458 3.82292 5.44531 4.25 5.02344 4.60938C4.60156 4.96875 4.07812 5.28646 3.45312 5.5625L2.23438 6.10938L2.61719 4.75781C2.67969 4.53385 2.64844 4.32812 2.52344 4.14062C2.40365 3.94792 2.24219 3.82812 2.03906 3.78125C1.82031 3.72396 1.61458 3.7526 1.42188 3.86719C1.22917 3.98177 1.10677 4.14323 1.05469 4.35156L0.296875 7.3125C0.229167 7.57812 0.247396 7.79688 0.351562 7.96875C0.460938 8.13542 0.619792 8.24219 0.828125 8.28906C1.03646 8.33594 1.25521 8.3099 1.48438 8.21094L4.00781 7.09375C4.13802 7.04167 4.24479 7.02083 4.32812 7.03125C4.41667 7.03646 4.51042 7.07812 4.60938 7.15625C5.01562 7.5 5.54167 7.77865 6.1875 7.99219C6.83854 8.20573 7.60938 8.3125 8.5 8.3125ZM17.125 6.5H22.9297C23.1536 6.5 23.3438 6.42188 23.5 6.26562C23.6562 6.10938 23.7344 5.91667 23.7344 5.6875C23.7344 5.46354 23.6562 5.27344 23.5 5.11719C23.3438 4.96094 23.1536 4.88281 22.9297 4.88281H17.0469C17.0156 4.88281 16.9792 4.88281 16.9375 4.88281C16.901 4.88281 16.862 4.88542 16.8203 4.89062L13.6016 5.15625L13.7109 5.9375C13.7682 6.40625 13.7526 6.82552 13.6641 7.19531L17.125 6.5Z" fill="white"/>
</svg>
