<svg width="173" height="108" viewBox="0 0 173 108" fill="none" xmlns="http://www.w3.org/2000/svg">
<path d="M14.625 78.4375C17.125 78.4375 19.3958 77.8333 21.4375 76.625C23.5208 75.4167 25.1667 73.7708 26.375 71.6875C27.625 69.6042 28.25 67.3125 28.25 64.8125C28.25 62.2708 27.625 59.9792 26.375 57.9375C25.1667 55.8542 23.5208 54.2083 21.4375 53C19.3958 51.75 17.125 51.125 14.625 51.125C12.0833 51.125 9.77083 51.75 7.6875 53C5.64583 54.2083 4 55.8542 2.75 57.9375C1.54167 59.9792 0.9375 62.2708 0.9375 64.8125C0.9375 67.3125 1.54167 69.6042 2.75 71.6875C4 73.7708 5.64583 75.4167 7.6875 76.625C9.77083 77.8333 12.0833 78.4375 14.625 78.4375ZM29.5 82.8125C28.2917 85.9375 28.1875 88.9792 29.1875 91.9375C30.2292 94.8958 32.0417 97.2917 34.625 99.125C38.875 102.042 43.1667 104.104 47.5 105.312C51.875 106.562 57.2083 107.188 63.5 107.188H83.4375C88.5625 107.188 92.4583 106.042 95.125 103.75C97.8333 101.458 99.375 98.6042 99.75 95.1875C100.125 91.7708 99.4375 88.375 97.6875 85L81.625 54V7.125C81.625 5.29167 80.9792 3.75 79.6875 2.5C78.4375 1.25 76.875 0.625 75 0.625C73.2083 0.625 71.6875 1.25 70.4375 2.5C69.2292 3.75 68.625 5.29167 68.625 7.125V55.5625C68.625 56.0208 68.6458 56.4375 68.6875 56.8125C68.7292 57.1458 68.7917 57.4583 68.875 57.75L77.9375 83.6875H66.1875C62.3958 83.6875 59.2083 83.1875 56.625 82.1875C54.0417 81.1875 51.2708 79.7917 48.3125 78C47.5208 77.5 47 76.9167 46.75 76.25C46.5417 75.5417 46.625 74.7292 47 73.8125L61.5625 36.5625C62.2292 34.8958 62.1875 33.2292 61.4375 31.5625C60.6875 29.8958 59.4792 28.75 57.8125 28.125C56.0625 27.4583 54.375 27.5 52.75 28.25C51.1667 28.9583 50.0417 30.1667 49.375 31.875L29.5 82.8125ZM106.25 97.0625L129.375 89.5L166.312 82.8125C168.104 82.5208 169.5 81.6458 170.5 80.1875C171.542 78.7292 171.917 77.0833 171.625 75.25C171.25 73.4583 170.333 72.0625 168.875 71.0625C167.417 70.0625 165.792 69.7083 164 70L125.375 77L103.062 81.0625L103.562 81.9375C105.062 84.4375 105.979 87 106.312 89.625C106.688 92.25 106.667 94.7292 106.25 97.0625Z" fill="white"/>
</svg>
