<svg width="67" height="139" viewBox="0 0 67 139" fill="none" xmlns="http://www.w3.org/2000/svg">
<path d="M0.9375 6.125L2.125 28.0625C2.20833 30.0625 2.625 31.7083 3.375 33C4.16667 34.25 5.27083 35.3958 6.6875 36.4375L20.25 46.375C21.0833 46.9583 21.7292 47.5833 22.1875 48.25C22.6458 48.875 22.875 49.9167 22.875 51.375V132.938C22.875 134.646 23.4583 136.083 24.625 137.25C25.8333 138.417 27.2917 139 29 139C30.6667 139 32.0833 138.417 33.25 137.25C34.4583 136.083 35.0625 134.646 35.0625 132.938V89.0625C35.0625 88.4792 35.2708 87.9792 35.6875 87.5625C36.1042 87.1458 36.6042 86.9375 37.1875 86.9375C37.7292 86.9375 38.2083 87.1458 38.625 87.5625C39.0417 87.9792 39.25 88.4792 39.25 89.0625V132.938C39.25 134.646 39.8333 136.083 41 137.25C42.2083 138.417 43.6667 139 45.375 139C47.0833 139 48.5208 138.417 49.6875 137.25C50.8542 136.083 51.4375 134.646 51.4375 132.938V60.5C51.4375 59.1667 52.125 58.5 53.5 58.5C54.8333 58.5 55.5 59.1667 55.5 60.5V84.5625C55.5 86.1042 56.0417 87.4167 57.125 88.5C58.2083 89.5833 59.5208 90.125 61.0625 90.125C62.6042 90.125 63.9167 89.5833 65 88.5C66.0833 87.4167 66.625 86.1042 66.625 84.5625V57.6875C66.625 53.0625 65.5625 49.0417 63.4375 45.625C61.3542 42.1667 58.4375 39.4792 54.6875 37.5625C50.9792 35.6458 46.6667 34.6875 41.75 34.6875H28.75C26.875 34.6875 25.2708 34.4792 23.9375 34.0625C22.6042 33.6458 21.1875 32.8958 19.6875 31.8125L13.1875 27.1875L12 5.5625C11.9167 4.02083 11.3125 2.72917 10.1875 1.6875C9.0625 0.604167 7.72917 0.125 6.1875 0.25C4.64583 0.375 3.35417 1 2.3125 2.125C1.3125 3.25 0.854167 4.58333 0.9375 6.125ZM37.1875 27.6875C39.6875 27.6875 41.9583 27.0833 44 25.875C46.0833 24.625 47.7292 22.9792 48.9375 20.9375C50.1875 18.8542 50.8125 16.5625 50.8125 14.0625C50.8125 11.5208 50.1875 9.22917 48.9375 7.1875C47.7292 5.14583 46.0833 3.52083 44 2.3125C41.9583 1.0625 39.6875 0.4375 37.1875 0.4375C34.6458 0.4375 32.3542 1.0625 30.3125 2.3125C28.2708 3.52083 26.625 5.14583 25.375 7.1875C24.1667 9.22917 23.5625 11.5208 23.5625 14.0625C23.5625 16.5625 24.1667 18.8542 25.375 20.9375C26.625 22.9792 28.2708 24.625 30.3125 25.875C32.3542 27.0833 34.6458 27.6875 37.1875 27.6875Z" fill="white"/>
</svg>
