<svg width="18" height="17" viewBox="0 0 18 17" fill="none" xmlns="http://www.w3.org/2000/svg">
<path d="M13.3125 3.47656C13.6198 3.47656 13.901 3.40104 14.1562 3.25C14.4167 3.09375 14.6224 2.88802 14.7734 2.63281C14.9245 2.3724 15 2.08333 15 1.76562C15 1.45312 14.9245 1.16927 14.7734 0.914062C14.6224 0.658854 14.4167 0.455729 14.1562 0.304688C13.901 0.148438 13.6198 0.0703125 13.3125 0.0703125C12.9948 0.0703125 12.7057 0.148438 12.4453 0.304688C12.1849 0.455729 11.9792 0.658854 11.8281 0.914062C11.6771 1.16927 11.6016 1.45312 11.6016 1.76562C11.6016 2.08333 11.6771 2.3724 11.8281 2.63281C11.9792 2.88802 12.1849 3.09375 12.4453 3.25C12.7057 3.40104 12.9948 3.47656 13.3125 3.47656ZM9.35156 16.1094H10.9375V11.0391C10.9375 10.862 10.8854 10.7031 10.7812 10.5625L9.04688 8.22656L11.25 6.01562C11.3229 5.9375 11.4089 5.89844 11.5078 5.89844C11.6068 5.89844 11.6927 5.9375 11.7656 6.01562L13.8594 8.125C13.9323 8.20312 14.0182 8.26042 14.1172 8.29688C14.2161 8.32812 14.3177 8.34375 14.4219 8.34375C14.6458 8.34375 14.8307 8.27083 14.9766 8.125L17.3203 5.78125C17.4036 5.69792 17.4635 5.60677 17.5 5.50781C17.5365 5.40885 17.5547 5.3125 17.5547 5.21875C17.5547 4.98438 17.4766 4.79688 17.3203 4.65625C17.1641 4.51042 16.9792 4.43229 16.7656 4.42188C16.5521 4.41146 16.3594 4.48958 16.1875 4.65625L14.4219 6.42188L11.4375 3.46094C11.2448 3.27344 11.0443 3.13021 10.8359 3.03125C10.6276 2.92708 10.3698 2.875 10.0625 2.875H6.74219C6.46615 2.875 6.23177 2.96875 6.03906 3.15625L3.76562 5.42969C3.59375 5.60156 3.51302 5.79427 3.52344 6.00781C3.53385 6.22135 3.61198 6.40625 3.75781 6.5625C3.90365 6.71875 4.09115 6.79688 4.32031 6.79688C4.53906 6.79688 4.72396 6.71615 4.875 6.55469L6.97656 4.46094H8.36719C8.42448 4.46094 8.46094 4.48438 8.47656 4.53125C8.4974 4.57292 8.48438 4.61458 8.4375 4.65625L6.74219 6.35938C6.39323 6.70833 6.21615 7.10938 6.21094 7.5625C6.21094 8.01042 6.38802 8.41146 6.74219 8.76562L9.35156 11.3672V16.1094ZM5.80469 8.78125L4.70312 10.2578H0.820312C0.606771 10.2578 0.421875 10.3333 0.265625 10.4844C0.109375 10.6354 0.03125 10.8229 0.03125 11.0469C0.03125 11.2656 0.109375 11.4505 0.265625 11.6016C0.421875 11.7526 0.606771 11.8281 0.820312 11.8281H5.09375C5.32292 11.8281 5.52604 11.7396 5.70312 11.5625L7.09375 10.1797L6.21094 9.30469C6.04427 9.13281 5.90885 8.95833 5.80469 8.78125ZM16.6875 14.1094C16.6875 14.2292 16.7292 14.3307 16.8125 14.4141C16.901 14.5026 17 14.5469 17.1094 14.5469C17.2344 14.5469 17.3385 14.5026 17.4219 14.4141C17.5104 14.3307 17.5547 14.2292 17.5547 14.1094V5.21875H16.6875V14.1094ZM0.546875 5.92969C0.427083 5.92969 0.322917 5.97135 0.234375 6.05469C0.151042 6.13802 0.109375 6.23698 0.109375 6.35156C0.109375 6.47135 0.151042 6.57552 0.234375 6.66406C0.322917 6.7526 0.427083 6.79688 0.546875 6.79688H4.32031V5.92969H0.546875ZM15.875 16.6406C16.276 16.6406 16.612 16.5964 16.8828 16.5078C17.1536 16.4193 17.4271 16.3099 17.7031 16.1797C17.8229 16.1276 17.901 16.0469 17.9375 15.9375C17.9792 15.8333 17.9792 15.7318 17.9375 15.6328C17.9062 15.5234 17.8333 15.4401 17.7188 15.3828C17.6042 15.3255 17.4766 15.3333 17.3359 15.4062C17.112 15.5208 16.8958 15.6094 16.6875 15.6719C16.4792 15.7396 16.2083 15.7734 15.875 15.7734H2.21094C2.09115 15.7734 1.98698 15.8125 1.89844 15.8906C1.8151 15.974 1.77344 16.0755 1.77344 16.1953C1.77344 16.3099 1.8151 16.4115 1.89844 16.5C1.98177 16.5938 2.08594 16.6406 2.21094 16.6406H15.875Z" fill="white"/>
</svg>
