<svg width="22" height="15" viewBox="0 0 22 15" fill="none" xmlns="http://www.w3.org/2000/svg">
<path d="M2.03906 10.4297C2.35156 10.4297 2.63542 10.3542 2.89062 10.2031C3.15104 10.0521 3.35677 9.84635 3.50781 9.58594C3.66406 9.32552 3.74219 9.03906 3.74219 8.72656C3.74219 8.40885 3.66406 8.1224 3.50781 7.86719C3.35677 7.60677 3.15104 7.40104 2.89062 7.25C2.63542 7.09375 2.35156 7.01562 2.03906 7.01562C1.72135 7.01562 1.43229 7.09375 1.17188 7.25C0.916667 7.40104 0.710938 7.60677 0.554688 7.86719C0.403646 8.1224 0.328125 8.40885 0.328125 8.72656C0.328125 9.03906 0.403646 9.32552 0.554688 9.58594C0.710938 9.84635 0.916667 10.0521 1.17188 10.2031C1.43229 10.3542 1.72135 10.4297 2.03906 10.4297ZM3.89844 10.9766C3.7474 11.3672 3.73438 11.7474 3.85938 12.1172C3.98958 12.487 4.21615 12.7865 4.53906 13.0156C5.07031 13.3802 5.60677 13.638 6.14844 13.7891C6.69531 13.9453 7.36198 14.0234 8.14844 14.0234H10.6406C11.2812 14.0234 11.7682 13.8802 12.1016 13.5938C12.4401 13.3073 12.6328 12.9505 12.6797 12.5234C12.7266 12.0964 12.6406 11.6719 12.4219 11.25L10.4141 7.375V1.51562C10.4141 1.28646 10.3333 1.09375 10.1719 0.9375C10.0156 0.78125 9.82031 0.703125 9.58594 0.703125C9.36198 0.703125 9.17188 0.78125 9.01562 0.9375C8.86458 1.09375 8.78906 1.28646 8.78906 1.51562V7.57031C8.78906 7.6276 8.79167 7.67969 8.79688 7.72656C8.80208 7.76823 8.8099 7.80729 8.82031 7.84375L9.95312 11.0859H8.48438C8.01042 11.0859 7.61198 11.0234 7.28906 10.8984C6.96615 10.7734 6.61979 10.599 6.25 10.375C6.15104 10.3125 6.08594 10.2396 6.05469 10.1562C6.02865 10.0677 6.03906 9.96615 6.08594 9.85156L7.90625 5.19531C7.98958 4.98698 7.98438 4.77865 7.89062 4.57031C7.79688 4.36198 7.64583 4.21875 7.4375 4.14062C7.21875 4.05729 7.00781 4.0625 6.80469 4.15625C6.60677 4.24479 6.46615 4.39583 6.38281 4.60938L3.89844 10.9766ZM13.4922 12.7578L16.3828 11.8125L21 10.9766C21.224 10.9401 21.3984 10.8307 21.5234 10.6484C21.6536 10.4661 21.7005 10.2604 21.6641 10.0312C21.6172 9.80729 21.5026 9.63281 21.3203 9.50781C21.138 9.38281 20.9349 9.33854 20.7109 9.375L15.8828 10.25L13.0938 10.7578L13.1562 10.8672C13.3438 11.1797 13.4583 11.5 13.5 11.8281C13.5469 12.1562 13.5443 12.4661 13.4922 12.7578Z" fill="white"/>
</svg>
