<?xml version="1.0" encoding="UTF-8"?>
<svg xmlns="http://www.w3.org/2000/svg" xmlns:xlink="http://www.w3.org/1999/xlink" width="24" height="20.4" viewBox="0 0 24 20.4" version="1.1">
<g id="surface1">
<path style=" stroke:none;fill-rule:nonzero;fill:rgb(100%,100%,100%);fill-opacity:1;" d="M 15.9375 4.894531 C 16.320312 4.894531 16.664062 4.804688 16.96875 4.621094 C 17.28125 4.433594 17.527344 4.1875 17.710938 3.882812 C 17.898438 3.570312 17.992188 3.222656 17.992188 2.839844 C 17.992188 2.464844 17.898438 2.121094 17.710938 1.808594 C 17.527344 1.496094 17.28125 1.25 16.96875 1.070312 C 16.664062 0.886719 16.320312 0.796875 15.9375 0.796875 C 15.5625 0.796875 15.21875 0.886719 14.90625 1.070312 C 14.59375 1.25 14.347656 1.496094 14.164062 1.808594 C 13.984375 2.121094 13.894531 2.464844 13.894531 2.839844 C 13.894531 3.222656 13.984375 3.570312 14.164062 3.882812 C 14.347656 4.1875 14.59375 4.433594 14.90625 4.621094 C 15.21875 4.804688 15.5625 4.894531 15.9375 4.894531 Z M 9.355469 19.164062 C 9.570312 19.238281 9.789062 19.242188 10.023438 19.171875 C 10.257812 19.101562 10.445312 18.929688 10.574219 18.65625 L 12.976562 13.855469 C 13.070312 13.675781 13.101562 13.484375 13.078125 13.285156 C 13.054688 13.085938 12.960938 12.90625 12.796875 12.75 L 9.898438 9.84375 L 13.566406 8.015625 C 13.746094 7.914062 13.914062 7.945312 14.0625 8.101562 L 16.246094 10.265625 C 16.429688 10.453125 16.648438 10.546875 16.914062 10.546875 L 21.242188 10.546875 C 21.507812 10.546875 21.730469 10.453125 21.917969 10.265625 C 22.105469 10.078125 22.199219 9.851562 22.199219 9.582031 C 22.199219 9.320312 22.105469 9.09375 21.917969 8.90625 C 21.730469 8.71875 21.507812 8.625 21.242188 8.625 L 17.304688 8.625 L 13.265625 4.574219 C 12.773438 4.074219 12.164062 3.824219 11.445312 3.824219 L 3.46875 3.824219 C 3.207031 3.824219 2.980469 3.917969 2.792969 4.105469 C 2.605469 4.292969 2.511719 4.519531 2.511719 4.78125 C 2.511719 5.050781 2.605469 5.277344 2.792969 5.464844 C 2.980469 5.652344 3.207031 5.746094 3.46875 5.746094 L 9.488281 5.746094 C 9.542969 5.746094 9.578125 5.777344 9.589844 5.839844 C 9.601562 5.898438 9.585938 5.933594 9.535156 5.953125 L 7.742188 6.84375 C 7.269531 7.082031 6.914062 7.40625 6.675781 7.820312 C 6.4375 8.226562 6.320312 8.652344 6.320312 9.101562 C 6.320312 9.492188 6.40625 9.867188 6.582031 10.238281 C 6.757812 10.601562 7.023438 10.910156 7.378906 11.164062 L 10.894531 13.726562 L 8.859375 17.804688 C 8.695312 18.121094 8.679688 18.402344 8.804688 18.648438 C 8.933594 18.898438 9.117188 19.070312 9.355469 19.164062 Z M 1.070312 15.347656 L 5.867188 15.347656 C 6.269531 15.347656 6.558594 15.171875 6.742188 14.820312 L 7.828125 12.617188 L 6.851562 11.898438 C 6.679688 11.773438 6.515625 11.632812 6.367188 11.484375 C 6.222656 11.335938 6.09375 11.179688 5.980469 11.015625 L 5.195312 13.425781 L 1.070312 13.425781 C 0.804688 13.425781 0.582031 13.519531 0.394531 13.707031 C 0.207031 13.894531 0.113281 14.117188 0.113281 14.382812 C 0.113281 14.644531 0.207031 14.871094 0.394531 15.066406 C 0.582031 15.253906 0.804688 15.347656 1.070312 15.347656 Z M 21.695312 1.273438 C 21.269531 1.273438 20.890625 1.367188 20.558594 1.554688 C 20.226562 1.742188 19.96875 2.003906 19.78125 2.335938 C 19.59375 2.660156 19.5 3.035156 19.5 3.460938 C 19.5 3.914062 19.582031 4.378906 19.742188 4.847656 C 19.914062 5.308594 20.109375 5.738281 20.335938 6.132812 C 20.566406 6.519531 20.773438 6.839844 20.960938 7.097656 C 21.148438 7.351562 21.265625 7.507812 21.308594 7.554688 L 22.070312 7.554688 C 22.113281 7.507812 22.226562 7.351562 22.414062 7.097656 C 22.609375 6.839844 22.820312 6.519531 23.042969 6.132812 C 23.269531 5.738281 23.464844 5.308594 23.632812 4.847656 C 23.804688 4.378906 23.886719 3.914062 23.886719 3.460938 C 23.886719 3.035156 23.789062 2.660156 23.597656 2.335938 C 23.410156 2.003906 23.148438 1.742188 22.820312 1.554688 C 22.492188 1.367188 22.117188 1.273438 21.695312 1.273438 Z M 21.695312 2.316406 C 22.03125 2.316406 22.304688 2.425781 22.519531 2.644531 C 22.738281 2.855469 22.847656 3.128906 22.847656 3.460938 C 22.847656 3.757812 22.78125 4.085938 22.648438 4.445312 C 22.523438 4.792969 22.371094 5.132812 22.191406 5.464844 C 22.007812 5.796875 21.84375 6.085938 21.695312 6.328125 C 21.539062 6.085938 21.367188 5.796875 21.1875 5.464844 C 21.011719 5.132812 20.859375 4.792969 20.726562 4.445312 C 20.601562 4.085938 20.539062 3.757812 20.539062 3.460938 C 20.539062 3.128906 20.648438 2.855469 20.859375 2.644531 C 21.078125 2.425781 21.355469 2.316406 21.695312 2.316406 Z M 21.167969 9.582031 L 22.199219 9.582031 L 22.199219 7.179688 L 21.167969 7.179688 Z M 21.167969 9.582031 "/>
</g>
</svg>
