<?xml version="1.0" encoding="UTF-8"?>
<svg xmlns="http://www.w3.org/2000/svg" xmlns:xlink="http://www.w3.org/1999/xlink" width="24" height="30" viewBox="0 0 24 30" version="1.1">
<g id="surface1">
<path style=" stroke:none;fill-rule:nonzero;fill:rgb(100%,100%,100%);fill-opacity:1;" d="M 10.464844 8.226562 C 10.933594 8.226562 11.363281 8.113281 11.753906 7.886719 C 12.144531 7.652344 12.453125 7.34375 12.679688 6.960938 C 12.914062 6.578125 13.03125 6.152344 13.03125 5.683594 C 13.03125 5.214844 12.914062 4.789062 12.679688 4.40625 C 12.453125 4.015625 12.144531 3.707031 11.753906 3.480469 C 11.363281 3.246094 10.933594 3.128906 10.464844 3.128906 C 9.996094 3.128906 9.570312 3.246094 9.1875 3.480469 C 8.804688 3.707031 8.496094 4.015625 8.261719 4.40625 C 8.035156 4.789062 7.921875 5.214844 7.921875 5.683594 C 7.921875 6.152344 8.035156 6.578125 8.261719 6.960938 C 8.496094 7.34375 8.804688 7.652344 9.1875 7.886719 C 9.570312 8.113281 9.996094 8.226562 10.464844 8.226562 Z M 19.546875 9.457031 L 6.246094 9.457031 L 6.609375 9.738281 C 6.898438 9.636719 7.097656 9.464844 7.207031 9.222656 C 7.316406 8.980469 7.339844 8.738281 7.277344 8.496094 C 7.199219 8.222656 7.03125 8 6.773438 7.828125 C 6.523438 7.648438 6.179688 7.609375 5.742188 7.710938 L 2.285156 8.507812 C 1.730469 8.632812 1.316406 8.875 1.042969 9.234375 C 0.769531 9.59375 0.640625 9.980469 0.65625 10.394531 C 0.671875 10.800781 0.828125 11.152344 1.125 11.449219 C 1.421875 11.738281 1.859375 11.882812 2.4375 11.882812 L 6.210938 11.882812 C 6.382812 11.882812 6.527344 11.945312 6.644531 12.070312 C 6.761719 12.1875 6.820312 12.332031 6.820312 12.503906 L 6.820312 17.449219 L 3.199219 21.046875 C 2.957031 21.296875 2.75 21.558594 2.578125 21.832031 C 2.414062 22.097656 2.28125 22.421875 2.179688 22.804688 L 0.808594 27.949219 C 0.691406 28.394531 0.734375 28.746094 0.9375 29.003906 C 1.140625 29.269531 1.394531 29.425781 1.699219 29.472656 C 1.988281 29.527344 2.273438 29.480469 2.554688 29.332031 C 2.835938 29.191406 3.027344 28.9375 3.128906 28.570312 L 4.429688 23.742188 C 4.492188 23.515625 4.558594 23.339844 4.628906 23.214844 C 4.707031 23.089844 4.832031 22.953125 5.003906 22.804688 L 7.839844 20.378906 C 8.128906 20.144531 8.476562 20.050781 8.882812 20.097656 C 9.289062 20.144531 9.589844 20.339844 9.785156 20.683594 L 11.507812 23.683594 L 14.238281 28.828125 C 14.441406 29.210938 14.722656 29.429688 15.082031 29.484375 C 15.449219 29.546875 15.769531 29.492188 16.042969 29.320312 C 16.285156 29.164062 16.445312 28.9375 16.523438 28.640625 C 16.601562 28.34375 16.550781 28.03125 16.371094 27.703125 L 13.628906 22.476562 L 12.070312 18.925781 C 11.804688 18.324219 11.671875 17.679688 11.671875 16.992188 L 11.671875 12.503906 C 11.671875 12.332031 11.730469 12.1875 11.847656 12.070312 C 11.972656 11.945312 12.121094 11.882812 12.292969 11.882812 L 19.546875 11.882812 C 19.882812 11.882812 20.167969 11.765625 20.402344 11.53125 C 20.644531 11.296875 20.765625 11.015625 20.765625 10.6875 C 20.765625 10.351562 20.644531 10.0625 20.402344 9.820312 C 20.167969 9.578125 19.882812 9.457031 19.546875 9.457031 Z M 21.996094 10.6875 C 21.996094 11.546875 21.9375 12.402344 21.820312 13.253906 C 21.703125 14.097656 21.511719 14.984375 21.246094 15.914062 C 20.988281 16.835938 20.648438 17.832031 20.226562 18.902344 C 20.15625 19.089844 20.152344 19.269531 20.214844 19.441406 C 20.285156 19.605469 20.402344 19.722656 20.566406 19.792969 C 20.738281 19.863281 20.90625 19.867188 21.070312 19.804688 C 21.234375 19.742188 21.359375 19.625 21.445312 19.453125 C 22.117188 17.976562 22.597656 16.554688 22.886719 15.1875 C 23.183594 13.8125 23.332031 12.3125 23.332031 10.6875 C 23.332031 9.109375 23.183594 7.636719 22.886719 6.269531 C 22.597656 4.902344 22.113281 3.453125 21.433594 1.921875 C 21.347656 1.75 21.222656 1.632812 21.058594 1.570312 C 20.902344 1.507812 20.738281 1.511719 20.566406 1.582031 C 20.394531 1.652344 20.277344 1.773438 20.214844 1.945312 C 20.152344 2.109375 20.15625 2.285156 20.226562 2.472656 C 20.648438 3.550781 20.988281 4.554688 21.246094 5.484375 C 21.511719 6.40625 21.703125 7.292969 21.820312 8.144531 C 21.9375 8.988281 21.996094 9.835938 21.996094 10.6875 Z M 21.996094 10.6875 "/>
</g>
</svg>
