<svg xmlns="http://www.w3.org/2000/svg" width="24" height="24"><path style="stroke:none;fill-rule:nonzero;fill:#fff;fill-opacity:1" d="M9.316 9.383c.477 0 .907-.09 1.29-.27.39-.187.699-.433.925-.742a1.694 1.694 0 0 0 0-2.062 2.304 2.304 0 0 0-.926-.739 2.818 2.818 0 0 0-1.289-.28 2.94 2.94 0 0 0-1.289.28c-.39.18-.699.426-.925.739a1.695 1.695 0 0 0-.34 1.023c0 .379.113.727.34 1.04.226.308.535.554.925.741.391.18.82.274 1.29.274Zm-6.234 12.32 7.043 1.418c.5.098.895.027 1.184-.219a.894.894 0 0 0 .351-.906l-.656-3.594h5.578l4.36 3.535c.226.184.503.274.831.274.329 0 .61-.09.844-.273.242-.18.36-.407.352-.676 0-.266-.117-.496-.352-.684l-4.605-3.703a2.444 2.444 0 0 0-.41-.262c-.11-.05-.297-.086-.563-.113l-5.05-.402-1.278-3.086a.242.242 0 0 1 .059-.29c.085-.085.203-.117.351-.093l9.234 1.473c.297.05.586.011.868-.114.289-.125.46-.332.515-.617a.821.821 0 0 0-.175-.715c-.16-.21-.43-.36-.739-.402L8.062 10.219a13.92 13.92 0 0 1-1.347-.262 2.451 2.451 0 0 1-.88-.441l-2.46-1.95V3.207c0-.262-.113-.484-.34-.668a1.262 1.262 0 0 0-.832-.281 1.334 1.334 0 0 0-.855.281c-.227.184-.34.406-.34.668v4.594c0 .191.023.355.07.488.047.129.16.266.34.41l2.742 2.184c.281.226.465.406.55.535.087.133.18.312.282.543l3.703 8.906-5.039-1.012c-.3-.07-.625-.03-.89.106-.274.129-.47.348-.528.598a.817.817 0 0 0 .13.714c.163.223.402.368.714.43Zm2.52-18.168c.398 0 .742-.113 1.03-.336.29-.234.434-.511.434-.836 0-.324-.144-.601-.433-.824a1.583 1.583 0 0 0-1.031-.348c-.415 0-.762.118-1.043.348-.274.223-.41.5-.41.824 0 .325.136.602.41.836.28.223.628.336 1.043.336Zm0 0"/></svg>