<svg width="86" height="138" viewBox="0 0 86 138" fill="none" xmlns="http://www.w3.org/2000/svg">
<path d="M11.375 135.438L30.1875 113.062C31.1042 111.979 31.7083 111.167 32 110.625C32.3333 110.042 32.6875 109.188 33.0625 108.062L34.4375 103.812L24.375 91.1875L21.3125 105.312L2.75 127.312C1.29167 129.062 0.666667 130.729 0.875 132.312C1.125 133.896 1.85417 135.188 3.0625 136.188C4.27083 137.188 5.64583 137.667 7.1875 137.625C8.77083 137.625 10.1667 136.896 11.375 135.438ZM57.125 133.562C58.0833 135.521 59.375 136.729 61 137.188C62.6667 137.688 64.25 137.604 65.75 136.938C67.25 136.271 68.3125 135.146 68.9375 133.562C69.5625 132.021 69.3542 130.188 68.3125 128.062L55.5625 102.25C55.0625 101.292 54.5 100.312 53.875 99.3125C53.25 98.2708 52.6458 97.3333 52.0625 96.5L44 85.0625L44.5625 83.375C45.6042 80.125 46.375 77.3125 46.875 74.9375C47.375 72.5625 47.75 69.7708 48 66.5625L49.25 48.5C49.5417 44.25 48.5 40.6875 46.125 37.8125C43.7917 34.8958 40.4167 33.4375 36 33.4375C32.7083 33.4375 29.7917 34.25 27.25 35.875C24.7083 37.4583 21.9167 39.7292 18.875 42.6875L9.3125 52.125C7.77083 53.6667 6.6875 55.1458 6.0625 56.5625C5.4375 57.9792 5.04167 59.7083 4.875 61.75L3.75 76.5C3.58333 78.375 3.97917 79.9167 4.9375 81.125C5.89583 82.2917 7.22917 82.9167 8.9375 83C10.6875 83.125 12.0833 82.6875 13.125 81.6875C14.1667 80.6875 14.75 79.1875 14.875 77.1875L16.3125 61L20.875 56.875C21.7083 56.125 22.5417 55.9375 23.375 56.3125C24.25 56.6458 24.6667 57.2292 24.625 58.0625L23.625 71.75C23.3333 75.2083 23.625 78.0417 24.5 80.25C25.4167 82.4167 27.0625 84.9792 29.4375 87.9375L42.125 103.812C42.75 104.604 43.1667 105.229 43.375 105.688C43.5833 106.104 43.8125 106.562 44.0625 107.062L57.125 133.562ZM78.875 57.8125H64.4375L55.375 47.75L54.3125 62.8125L57.9375 66.4375C58.9375 67.4375 59.9583 68.125 61 68.5C62.0833 68.875 63.5625 69.0625 65.4375 69.0625H78.875C80.75 69.0625 82.25 68.5625 83.375 67.5625C84.5417 66.5625 85.125 65.1875 85.125 63.4375C85.125 61.7708 84.5417 60.4167 83.375 59.375C82.25 58.3333 80.75 57.8125 78.875 57.8125ZM43 27.8125C45.5 27.8125 47.7708 27.2083 49.8125 26C51.8958 24.75 53.5417 23.1042 54.75 21.0625C55.9583 18.9792 56.5625 16.6875 56.5625 14.1875C56.5625 11.6458 55.9583 9.35417 54.75 7.3125C53.5417 5.22917 51.8958 3.58333 49.8125 2.375C47.7708 1.16667 45.5 0.5625 43 0.5625C40.4583 0.5625 38.1458 1.16667 36.0625 2.375C34.0208 3.58333 32.3958 5.22917 31.1875 7.3125C29.9792 9.35417 29.375 11.6458 29.375 14.1875C29.375 16.6875 29.9792 18.9792 31.1875 21.0625C32.3958 23.1042 34.0208 24.75 36.0625 26C38.1458 27.2083 40.4583 27.8125 43 27.8125Z" fill="white"/>
</svg>
