<?xml version="1.0" encoding="UTF-8"?>
<svg xmlns="http://www.w3.org/2000/svg" xmlns:xlink="http://www.w3.org/1999/xlink" width="24" height="24" viewBox="0 0 24 24" version="1.1">
<g id="surface1">
<path style=" stroke:none;fill-rule:nonzero;fill:rgb(100%,100%,100%);fill-opacity:1;" d="M 15.019531 6.636719 C 15.394531 6.636719 15.734375 6.546875 16.039062 6.367188 C 16.351562 6.179688 16.601562 5.929688 16.789062 5.625 C 16.976562 5.3125 17.070312 4.96875 17.070312 4.59375 C 17.070312 4.21875 16.976562 3.878906 16.789062 3.570312 C 16.601562 3.257812 16.351562 3.007812 16.039062 2.820312 C 15.734375 2.632812 15.394531 2.539062 15.019531 2.539062 C 14.644531 2.539062 14.300781 2.632812 13.988281 2.820312 C 13.679688 3.007812 13.433594 3.257812 13.246094 3.570312 C 13.066406 3.878906 12.976562 4.21875 12.976562 4.59375 C 12.976562 4.96875 13.066406 5.3125 13.246094 5.625 C 13.433594 5.929688 13.679688 6.179688 13.988281 6.367188 C 14.300781 6.546875 14.644531 6.636719 15.019531 6.636719 Z M 8.652344 18.757812 C 8.867188 18.902344 9.101562 18.957031 9.367188 18.917969 C 9.628906 18.875 9.835938 18.746094 9.992188 18.535156 L 12.207031 15.441406 L 14.296875 15.796875 L 12.234375 18.871094 C 12.089844 19.097656 12.039062 19.339844 12.085938 19.601562 C 12.132812 19.871094 12.273438 20.070312 12.507812 20.203125 C 12.773438 20.367188 13.03125 20.414062 13.273438 20.34375 C 13.519531 20.273438 13.707031 20.140625 13.835938 19.941406 L 16.632812 15.742188 C 16.75 15.554688 16.804688 15.347656 16.800781 15.121094 C 16.800781 14.898438 16.730469 14.695312 16.59375 14.511719 C 16.460938 14.324219 16.261719 14.195312 15.992188 14.128906 L 12.160156 13.210938 C 11.972656 13.160156 11.847656 13.066406 11.785156 12.929688 C 11.726562 12.785156 11.753906 12.632812 11.859375 12.46875 L 13.480469 10.050781 C 13.613281 9.851562 13.777344 9.820312 13.976562 9.957031 L 16.332031 11.570312 C 16.449219 11.644531 16.574219 11.695312 16.707031 11.71875 L 21.976562 12.683594 C 22.210938 12.722656 22.445312 12.671875 22.679688 12.535156 C 22.914062 12.398438 23.054688 12.1875 23.101562 11.90625 C 23.144531 11.648438 23.089844 11.414062 22.941406 11.195312 C 22.789062 10.976562 22.585938 10.84375 22.332031 10.800781 L 17.257812 9.871094 L 9.441406 4.527344 L 11.679688 2.925781 C 11.898438 2.769531 12.03125 2.5625 12.074219 2.304688 C 12.117188 2.042969 12.066406 1.804688 11.914062 1.59375 C 11.753906 1.375 11.539062 1.242188 11.277344 1.199219 C 11.023438 1.15625 10.789062 1.210938 10.574219 1.359375 L 7.21875 3.757812 C 6.945312 3.960938 6.804688 4.226562 6.796875 4.554688 C 6.796875 4.886719 6.941406 5.148438 7.226562 5.335938 L 10.085938 7.292969 C 10.28125 7.429688 10.308594 7.59375 10.171875 7.78125 L 7.789062 11.25 C 7.539062 11.613281 7.390625 11.992188 7.339844 12.394531 C 7.289062 12.792969 7.335938 13.175781 7.472656 13.539062 C 7.609375 13.898438 7.835938 14.210938 8.15625 14.476562 C 8.476562 14.730469 8.878906 14.898438 9.367188 14.972656 L 10.085938 15.09375 L 8.429688 17.410156 C 8.273438 17.628906 8.214844 17.867188 8.257812 18.132812 C 8.304688 18.394531 8.433594 18.601562 8.652344 18.757812 Z M 1.078125 15.695312 C 0.964844 15.792969 0.902344 15.921875 0.890625 16.078125 C 0.878906 16.234375 0.945312 16.378906 1.085938 16.507812 C 2.195312 17.484375 3.496094 18.410156 4.996094 19.285156 C 6.496094 20.164062 8.136719 20.945312 9.917969 21.617188 C 11.699219 22.292969 13.570312 22.824219 15.523438 23.210938 C 17.488281 23.601562 19.476562 23.792969 21.488281 23.792969 C 21.632812 23.792969 21.753906 23.742188 21.851562 23.644531 C 21.953125 23.542969 22.003906 23.421875 22.003906 23.277344 C 22.003906 23.128906 21.953125 23.003906 21.851562 22.902344 C 21.753906 22.804688 21.632812 22.753906 21.488281 22.753906 C 19.53125 22.753906 17.605469 22.566406 15.710938 22.191406 C 13.824219 21.820312 12.019531 21.308594 10.292969 20.652344 C 8.574219 20.003906 6.992188 19.257812 5.539062 18.414062 C 4.097656 17.5625 2.839844 16.664062 1.773438 15.710938 C 1.652344 15.605469 1.527344 15.554688 1.398438 15.5625 C 1.273438 15.570312 1.164062 15.613281 1.078125 15.695312 Z M 1.660156 19.726562 C 2.035156 19.726562 2.476562 19.648438 2.992188 19.5 C 3.503906 19.355469 4.007812 19.128906 4.507812 18.816406 L 3.054688 17.382812 C 2.875 17.601562 2.710938 17.785156 2.558594 17.933594 C 2.410156 18.078125 2.246094 18.210938 2.070312 18.335938 C 1.902344 18.457031 1.695312 18.582031 1.453125 18.710938 C 1.308594 18.792969 1.210938 18.894531 1.152344 19.011719 C 1.101562 19.125 1.097656 19.242188 1.132812 19.367188 C 1.160156 19.460938 1.214844 19.542969 1.304688 19.613281 C 1.398438 19.6875 1.515625 19.726562 1.660156 19.726562 Z M 1.660156 19.726562 "/>
</g>
</svg>
