<?xml version="1.0" encoding="UTF-8"?>
<svg xmlns="http://www.w3.org/2000/svg" xmlns:xlink="http://www.w3.org/1999/xlink" width="24" height="16.363636" viewBox="0 0 24 16.363636" version="1.1">
<g id="surface1">
<path style=" stroke:none;fill-rule:nonzero;fill:rgb(100%,100%,100%);fill-opacity:1;" d="M 2.222656 11.378906 C 2.566406 11.378906 2.875 11.296875 3.152344 11.128906 C 3.4375 10.964844 3.660156 10.742188 3.828125 10.457031 C 3.996094 10.171875 4.082031 9.859375 4.082031 9.519531 C 4.082031 9.171875 3.996094 8.859375 3.828125 8.582031 C 3.660156 8.296875 3.4375 8.074219 3.152344 7.910156 C 2.875 7.738281 2.566406 7.652344 2.222656 7.652344 C 1.878906 7.652344 1.5625 7.738281 1.277344 7.910156 C 1 8.074219 0.777344 8.296875 0.605469 8.582031 C 0.441406 8.859375 0.359375 9.171875 0.359375 9.519531 C 0.359375 9.859375 0.441406 10.171875 0.605469 10.457031 C 0.777344 10.742188 1 10.964844 1.277344 11.128906 C 1.5625 11.296875 1.878906 11.378906 2.222656 11.378906 Z M 4.253906 11.972656 C 4.089844 12.402344 4.074219 12.816406 4.210938 13.21875 C 4.351562 13.621094 4.597656 13.949219 4.953125 14.199219 C 5.53125 14.597656 6.117188 14.878906 6.707031 15.042969 C 7.304688 15.214844 8.03125 15.296875 8.890625 15.296875 L 11.609375 15.296875 C 12.308594 15.296875 12.839844 15.140625 13.203125 14.828125 C 13.570312 14.515625 13.78125 14.128906 13.832031 13.660156 C 13.882812 13.195312 13.789062 12.734375 13.550781 12.273438 L 11.359375 8.046875 L 11.359375 1.652344 C 11.359375 1.402344 11.273438 1.191406 11.097656 1.023438 C 10.925781 0.851562 10.714844 0.765625 10.457031 0.765625 C 10.214844 0.765625 10.003906 0.851562 9.835938 1.023438 C 9.671875 1.191406 9.589844 1.402344 9.589844 1.652344 L 9.589844 8.257812 C 9.589844 8.320312 9.589844 8.378906 9.597656 8.429688 C 9.601562 8.472656 9.609375 8.515625 9.621094 8.558594 L 10.859375 12.09375 L 9.253906 12.09375 C 8.738281 12.09375 8.304688 12.027344 7.953125 11.890625 C 7.597656 11.753906 7.222656 11.5625 6.816406 11.316406 C 6.710938 11.25 6.640625 11.171875 6.605469 11.078125 C 6.578125 10.984375 6.589844 10.871094 6.640625 10.746094 L 8.625 5.667969 C 8.714844 5.441406 8.710938 5.214844 8.609375 4.984375 C 8.503906 4.757812 8.339844 4.601562 8.113281 4.515625 C 7.875 4.425781 7.644531 4.433594 7.421875 4.535156 C 7.207031 4.628906 7.054688 4.796875 6.964844 5.027344 Z M 14.71875 13.917969 L 17.871094 12.886719 L 22.910156 11.972656 C 23.152344 11.933594 23.34375 11.816406 23.480469 11.617188 C 23.621094 11.417969 23.671875 11.191406 23.632812 10.941406 C 23.582031 10.699219 23.457031 10.507812 23.257812 10.371094 C 23.058594 10.234375 22.839844 10.1875 22.59375 10.226562 L 17.328125 11.183594 L 14.285156 11.734375 L 14.351562 11.855469 C 14.558594 12.195312 14.683594 12.546875 14.726562 12.902344 C 14.777344 13.261719 14.777344 13.597656 14.71875 13.917969 Z M 14.71875 13.917969 "/>
</g>
</svg>
