<?xml version="1.0" encoding="UTF-8"?>
<svg xmlns="http://www.w3.org/2000/svg" xmlns:xlink="http://www.w3.org/1999/xlink" width="24" height="43.2" viewBox="0 0 24 43.2" version="1.1">
<g id="surface1">
<path style=" stroke:none;fill-rule:nonzero;fill:rgb(100%,100%,100%);fill-opacity:1;" d="M 2.136719 3.335938 L 2.492188 9.917969 C 2.519531 10.519531 2.644531 11.011719 2.867188 11.398438 C 3.105469 11.773438 3.4375 12.117188 3.863281 12.429688 L 7.929688 15.414062 C 8.179688 15.585938 8.375 15.773438 8.511719 15.976562 C 8.648438 16.164062 8.71875 16.476562 8.71875 16.914062 L 8.71875 41.382812 C 8.71875 41.894531 8.894531 42.324219 9.242188 42.675781 C 9.605469 43.023438 10.042969 43.199219 10.554688 43.199219 C 11.054688 43.199219 11.480469 43.023438 11.832031 42.675781 C 12.195312 42.324219 12.375 41.894531 12.375 41.382812 L 12.375 28.21875 C 12.375 28.042969 12.4375 27.894531 12.5625 27.769531 C 12.6875 27.644531 12.835938 27.582031 13.011719 27.582031 C 13.175781 27.582031 13.320312 27.644531 13.445312 27.769531 C 13.570312 27.894531 13.632812 28.042969 13.632812 28.21875 L 13.632812 41.382812 C 13.632812 41.894531 13.804688 42.324219 14.15625 42.675781 C 14.519531 43.023438 14.957031 43.199219 15.46875 43.199219 C 15.980469 43.199219 16.414062 43.023438 16.761719 42.675781 C 17.113281 42.324219 17.289062 41.894531 17.289062 41.382812 L 17.289062 19.648438 C 17.289062 19.25 17.492188 19.050781 17.90625 19.050781 C 18.304688 19.050781 18.507812 19.25 18.507812 19.648438 L 18.507812 26.867188 C 18.507812 27.332031 18.667969 27.726562 18.992188 28.050781 C 19.320312 28.375 19.710938 28.539062 20.175781 28.539062 C 20.636719 28.539062 21.03125 28.375 21.355469 28.050781 C 21.679688 27.726562 21.84375 27.332031 21.84375 26.867188 L 21.84375 18.804688 C 21.84375 17.417969 21.523438 16.210938 20.886719 15.1875 C 20.261719 14.148438 19.386719 13.34375 18.261719 12.769531 C 17.148438 12.195312 15.855469 11.90625 14.382812 11.90625 L 10.480469 11.90625 C 9.917969 11.90625 9.4375 11.84375 9.039062 11.71875 C 8.636719 11.59375 8.210938 11.367188 7.761719 11.042969 L 5.8125 9.65625 L 5.457031 3.167969 C 5.429688 2.707031 5.25 2.320312 4.914062 2.007812 C 4.574219 1.679688 4.175781 1.539062 3.710938 1.574219 C 3.25 1.613281 2.863281 1.800781 2.550781 2.136719 C 2.25 2.476562 2.113281 2.875 2.136719 3.335938 Z M 13.011719 9.804688 C 13.761719 9.804688 14.445312 9.625 15.054688 9.261719 C 15.679688 8.886719 16.175781 8.394531 16.539062 7.78125 C 16.914062 7.15625 17.101562 6.46875 17.101562 5.71875 C 17.101562 4.957031 16.914062 4.269531 16.539062 3.65625 C 16.175781 3.042969 15.679688 2.554688 15.054688 2.195312 C 14.445312 1.820312 13.761719 1.632812 13.011719 1.632812 C 12.25 1.632812 11.5625 1.820312 10.949219 2.195312 C 10.335938 2.554688 9.84375 3.042969 9.46875 3.65625 C 9.105469 4.269531 8.925781 4.957031 8.925781 5.71875 C 8.925781 6.46875 9.105469 7.15625 9.46875 7.78125 C 9.84375 8.394531 10.335938 8.886719 10.949219 9.261719 C 11.5625 9.625 12.25 9.804688 13.011719 9.804688 Z M 13.011719 9.804688 "/>
</g>
</svg>
