<svg xmlns="http://www.w3.org/2000/svg" width="24" height="24"><path style="stroke:none;fill-rule:nonzero;fill:#fff;fill-opacity:1" d="M10.219 4.52c.375 0 .715-.094 1.023-.286.305-.191.547-.445.73-.773.188-.328.282-.688.282-1.094a2.103 2.103 0 0 0-.281-1.074 2.057 2.057 0 0 0-.73-.777 1.873 1.873 0 0 0-1.024-.29c-.383 0-.727.094-1.04.29a2.09 2.09 0 0 0-.742.777c-.18.324-.273.68-.273 1.074 0 .406.094.766.274 1.098.187.324.433.578.742.77.312.19.656.285 1.039.285Zm.617 9.27 5.156 1.675 4.934 2.355c.316.153.597.172.832.063.238-.121.406-.301.508-.543.105-.25.12-.504.047-.77-.075-.261-.262-.468-.563-.613l-8.492-4.035V7.125c0-.195.023-.324.074-.387a.863.863 0 0 1 .29-.168l2.558-1.093c.164-.075.265-.137.312-.188.067-.074.133-.148.195-.226l2.692-3.286a.977.977 0 0 0 .223-.742.95.95 0 0 0-.336-.691.886.886 0 0 0-.703-.239.952.952 0 0 0-.657.36l-2.57 3.144-11.82 5.082a3.45 3.45 0 0 0-.422.22 1.52 1.52 0 0 0-.274.218h4.82l1.454-.613c.261-.114.394-.051.394.175v3.141c0 1.012.45 1.664 1.348 1.957Zm-.852 8.605c-.074.261-.07.484.008.668.09.19.219.335.387.433.176.106.36.16.55.16.196 0 .38-.062.555-.176a.892.892 0 0 0 .368-.558l1.375-5.25a.47.47 0 0 0 .02-.149.647.647 0 0 0 .01-.125v-1.855l-2.241-.719.289 2.516ZM1.32 11.207H8.56v-1.09H1.32a.496.496 0 0 0-.375.156.557.557 0 0 0-.148.387c-.004.145.05.29.148.395.098.101.235.16.375.156Zm21.367 0a.48.48 0 0 0 .368-.156.576.576 0 0 0 .148-.395.547.547 0 0 0-.148-.383.512.512 0 0 0-.367-.16h-8.493v1.098Zm0 0"/></svg>