<svg width="145" height="134" viewBox="0 0 145 134" fill="none" xmlns="http://www.w3.org/2000/svg">
<path d="M107.188 27.8125C109.646 27.8125 111.896 27.2083 113.938 26C116.021 24.75 117.667 23.1042 118.875 21.0625C120.083 18.9792 120.688 16.6667 120.688 14.125C120.688 11.625 120.083 9.35417 118.875 7.3125C117.667 5.27083 116.021 3.64583 113.938 2.4375C111.896 1.1875 109.646 0.5625 107.188 0.5625C104.646 0.5625 102.333 1.1875 100.25 2.4375C98.1667 3.64583 96.5208 5.27083 95.3125 7.3125C94.1042 9.35417 93.5 11.625 93.5 14.125C93.5 16.6667 94.1042 18.9792 95.3125 21.0625C96.5208 23.1042 98.1667 24.75 100.25 26C102.333 27.2083 104.646 27.8125 107.188 27.8125ZM75.5 128.875H88.1875V88.3125C88.1875 86.8958 87.7708 85.625 86.9375 84.5L73.0625 65.8125L90.6875 48.125C91.2708 47.5 91.9583 47.1875 92.75 47.1875C93.5417 47.1875 94.2292 47.5 94.8125 48.125L111.562 65C112.146 65.625 112.833 66.0833 113.625 66.375C114.417 66.625 115.229 66.75 116.062 66.75C117.854 66.75 119.333 66.1667 120.5 65L139.25 46.25C139.917 45.5833 140.396 44.8542 140.688 44.0625C140.979 43.2708 141.125 42.5 141.125 41.75C141.125 39.875 140.5 38.375 139.25 37.25C138 36.0833 136.521 35.4583 134.812 35.375C133.104 35.2917 131.562 35.9167 130.188 37.25L116.062 51.375L92.1875 27.6875C90.6458 26.1875 89.0417 25.0417 87.375 24.25C85.7083 23.4167 83.6458 23 81.1875 23H54.625C52.4167 23 50.5417 23.75 49 25.25L30.8125 43.4375C29.4375 44.8125 28.7917 46.3542 28.875 48.0625C28.9583 49.7708 29.5833 51.25 30.75 52.5C31.9167 53.75 33.4167 54.375 35.25 54.375C37 54.375 38.4792 53.7292 39.6875 52.4375L56.5 35.6875H67.625C68.0833 35.6875 68.375 35.875 68.5 36.25C68.6667 36.5833 68.5625 36.9167 68.1875 37.25L54.625 50.875C51.8333 53.6667 50.4167 56.875 50.375 60.5C50.375 64.0833 51.7917 67.2917 54.625 70.125L75.5 90.9375V128.875ZM47.125 70.25L38.3125 82.0625H7.25C5.54167 82.0625 4.0625 82.6667 2.8125 83.875C1.5625 85.0833 0.9375 86.5833 0.9375 88.375C0.9375 90.125 1.5625 91.6042 2.8125 92.8125C4.0625 94.0208 5.54167 94.625 7.25 94.625H41.4375C43.2708 94.625 44.8958 93.9167 46.3125 92.5L57.4375 81.4375L50.375 74.4375C49.0417 73.0625 47.9583 71.6667 47.125 70.25ZM134.188 112.875C134.188 113.833 134.521 114.646 135.188 115.312C135.896 116.021 136.688 116.375 137.562 116.375C138.562 116.375 139.396 116.021 140.062 115.312C140.771 114.646 141.125 113.833 141.125 112.875V41.75H134.188V112.875ZM5.0625 47.4375C4.10417 47.4375 3.27083 47.7708 2.5625 48.4375C1.89583 49.1042 1.5625 49.8958 1.5625 50.8125C1.5625 51.7708 1.89583 52.6042 2.5625 53.3125C3.27083 54.0208 4.10417 54.375 5.0625 54.375H35.25V47.4375H5.0625ZM127.688 133.125C130.896 133.125 133.583 132.771 135.75 132.062C137.917 131.354 140.104 130.479 142.312 129.438C143.271 129.021 143.896 128.375 144.188 127.5C144.521 126.667 144.521 125.854 144.188 125.062C143.938 124.188 143.354 123.521 142.438 123.062C141.521 122.604 140.5 122.667 139.375 123.25C137.583 124.167 135.854 124.875 134.188 125.375C132.521 125.917 130.354 126.188 127.688 126.188H18.375C17.4167 126.188 16.5833 126.5 15.875 127.125C15.2083 127.792 14.875 128.604 14.875 129.562C14.875 130.479 15.2083 131.292 15.875 132C16.5417 132.75 17.375 133.125 18.375 133.125H127.688Z" fill="white"/>
</svg>
