<?xml version="1.0" encoding="UTF-8"?>
<svg xmlns="http://www.w3.org/2000/svg" xmlns:xlink="http://www.w3.org/1999/xlink" width="24" height="17.333333" viewBox="0 0 24 17.333333" version="1.1">
<g id="surface1">
<path style=" stroke:none;fill-rule:nonzero;fill:rgb(100%,100%,100%);fill-opacity:1;" d="M 19.738281 4.925781 C 20.15625 4.925781 20.539062 4.828125 20.886719 4.625 C 21.234375 4.421875 21.507812 4.148438 21.707031 3.800781 C 21.910156 3.453125 22.011719 3.074219 22.011719 2.65625 C 22.011719 2.234375 21.910156 1.851562 21.707031 1.511719 C 21.507812 1.164062 21.234375 0.890625 20.886719 0.6875 C 20.539062 0.480469 20.15625 0.375 19.738281 0.375 C 19.316406 0.375 18.929688 0.480469 18.582031 0.6875 C 18.242188 0.890625 17.96875 1.164062 17.761719 1.511719 C 17.558594 1.851562 17.457031 2.234375 17.457031 2.65625 C 17.457031 3.074219 17.558594 3.453125 17.761719 3.800781 C 17.96875 4.148438 18.242188 4.421875 18.582031 4.625 C 18.929688 4.828125 19.316406 4.925781 19.738281 4.925781 Z M 1.4375 15.613281 L 7.5625 14.082031 L 7.5625 15.519531 C 7.5625 15.8125 7.667969 16.058594 7.875 16.261719 C 8.082031 16.46875 8.328125 16.574219 8.613281 16.574219 C 8.90625 16.574219 9.15625 16.46875 9.363281 16.261719 C 9.574219 16.058594 9.675781 15.8125 9.675781 15.519531 L 9.675781 13.699219 L 14.125 13.03125 C 14.535156 12.976562 14.9375 12.859375 15.332031 12.6875 C 15.730469 12.515625 16.09375 12.296875 16.425781 12.042969 L 20.28125 9.15625 C 20.351562 9.109375 20.425781 9.089844 20.511719 9.105469 C 20.601562 9.109375 20.667969 9.160156 20.707031 9.25 L 21.84375 11.542969 L 21.84375 15.519531 C 21.84375 15.828125 21.941406 16.078125 22.136719 16.269531 C 22.335938 16.472656 22.59375 16.574219 22.90625 16.574219 C 23.21875 16.574219 23.472656 16.472656 23.667969 16.269531 C 23.859375 16.078125 23.957031 15.828125 23.957031 15.519531 L 23.957031 11.292969 C 23.957031 11.109375 23.921875 10.949219 23.84375 10.800781 L 22.019531 7.167969 C 21.839844 6.796875 21.578125 6.511719 21.238281 6.300781 C 20.90625 6.09375 20.539062 5.988281 20.136719 5.988281 L 19.199219 5.988281 C 18.261719 5.988281 17.417969 6.273438 16.667969 6.84375 L 13.644531 9.09375 L 9.207031 8.207031 C 8.742188 8.117188 8.351562 8.171875 8.03125 8.375 C 7.71875 8.570312 7.5625 8.914062 7.5625 9.40625 L 7.5625 11.894531 L 0.925781 13.582031 C 0.578125 13.667969 0.335938 13.828125 0.199219 14.0625 C 0.0664062 14.292969 0.015625 14.527344 0.0507812 14.769531 C 0.101562 15.046875 0.242188 15.285156 0.480469 15.480469 C 0.722656 15.671875 1.042969 15.71875 1.4375 15.613281 Z M 9.675781 11.386719 L 9.675781 10.582031 L 11.125 11.03125 Z M 14.699219 16.574219 L 18.925781 16.574219 C 19.363281 16.574219 19.734375 16.417969 20.042969 16.105469 C 20.355469 15.796875 20.511719 15.421875 20.511719 14.980469 C 20.511719 14.546875 20.355469 14.175781 20.042969 13.863281 C 19.734375 13.550781 19.363281 13.394531 18.925781 13.394531 L 14.699219 13.394531 C 14.261719 13.394531 13.886719 13.550781 13.574219 13.863281 C 13.265625 14.175781 13.113281 14.546875 13.113281 14.980469 C 13.113281 15.421875 13.265625 15.796875 13.574219 16.105469 C 13.886719 16.417969 14.261719 16.574219 14.699219 16.574219 Z M 18.925781 15.824219 C 18.699219 15.824219 18.5 15.738281 18.332031 15.574219 C 18.171875 15.40625 18.09375 15.203125 18.09375 14.96875 C 18.09375 14.738281 18.171875 14.546875 18.332031 14.386719 C 18.5 14.226562 18.699219 14.144531 18.925781 14.144531 C 19.164062 14.144531 19.359375 14.226562 19.519531 14.386719 C 19.679688 14.546875 19.761719 14.738281 19.761719 14.96875 C 19.761719 15.203125 19.679688 15.40625 19.519531 15.574219 C 19.359375 15.738281 19.164062 15.824219 18.925781 15.824219 Z M 18.925781 15.824219 "/>
</g>
</svg>
