<svg width="123" height="139" viewBox="0 0 123 139" fill="none" xmlns="http://www.w3.org/2000/svg">
<path d="M0.9375 133.812C0.9375 135.229 1.4375 136.438 2.4375 137.438C3.47917 138.479 4.70833 139 6.125 139C7.58333 139 8.8125 138.479 9.8125 137.438C10.8542 136.438 11.375 135.229 11.375 133.812V5.5625C11.375 4.14583 10.8542 2.9375 9.8125 1.9375C8.8125 0.895833 7.58333 0.375 6.125 0.375C4.70833 0.375 3.47917 0.895833 2.4375 1.9375C1.4375 2.9375 0.9375 4.14583 0.9375 5.5625V133.812ZM112.188 135.438L93.4375 113.062C92.4792 111.979 91.8542 111.167 91.5625 110.625C91.2708 110.042 90.9375 109.188 90.5625 108.062L89.1875 103.812L99.25 91.1875L102.25 105.312L120.812 127.312C122.271 129.062 122.875 130.729 122.625 132.312C122.417 133.896 121.708 135.188 120.5 136.188C119.292 137.188 117.896 137.667 116.312 137.625C114.771 137.625 113.396 136.896 112.188 135.438ZM66.4375 133.562C65.4792 135.521 64.1667 136.729 62.5 137.188C60.875 137.688 59.3125 137.604 57.8125 136.938C56.3125 136.271 55.25 135.146 54.625 133.562C54 132.021 54.2083 130.188 55.25 128.062L68 102.25C68.5 101.292 69.0625 100.312 69.6875 99.3125C70.3125 98.2708 70.9375 97.3333 71.5625 96.5L79.625 85.0625L79.0625 83.375C77.9792 80.125 77.1875 77.3125 76.6875 74.9375C76.1875 72.5625 75.8333 69.7708 75.625 66.5625L74.375 48.5C74.0417 44.25 75.0625 40.6875 77.4375 37.8125C79.8125 34.8958 83.1875 33.4375 87.5625 33.4375C90.8542 33.4375 93.7708 34.25 96.3125 35.875C98.8542 37.4583 101.646 39.7292 104.688 42.6875L114.25 52.125C115.833 53.6667 116.917 55.1458 117.5 56.5625C118.125 57.9792 118.521 59.7083 118.688 61.75L119.875 76.5C120 78.375 119.583 79.9167 118.625 81.125C117.708 82.2917 116.375 82.9167 114.625 83C112.875 83.125 111.479 82.6875 110.438 81.6875C109.438 80.6875 108.854 79.1875 108.688 77.1875L107.312 61L102.688 56.875C101.854 56.125 101 55.9375 100.125 56.3125C99.2917 56.6458 98.9167 57.2292 99 58.0625L100 71.75C100.25 75.2083 99.9375 78.0417 99.0625 80.25C98.1875 82.4167 96.5417 84.9792 94.125 87.9375L81.5 103.812C80.8333 104.604 80.3958 105.229 80.1875 105.688C80.0208 106.104 79.7917 106.562 79.5 107.062L66.4375 133.562ZM44.75 57.8125H59.125L68.25 47.75L69.3125 62.8125L65.6875 66.4375C64.6875 67.4375 63.6458 68.125 62.5625 68.5C61.4792 68.875 60.0208 69.0625 58.1875 69.0625H44.75C42.8333 69.0625 41.3125 68.5625 40.1875 67.5625C39.0625 66.5625 38.5 65.1875 38.5 63.4375C38.5 61.7708 39.0625 60.4167 40.1875 59.375C41.3542 58.3333 42.875 57.8125 44.75 57.8125ZM80.625 27.8125C78.125 27.8125 75.8333 27.2083 73.75 26C71.7083 24.75 70.0625 23.1042 68.8125 21.0625C67.6042 18.9792 67 16.6875 67 14.1875C67 11.6458 67.6042 9.35417 68.8125 7.3125C70.0625 5.22917 71.7083 3.58333 73.75 2.375C75.8333 1.16667 78.125 0.5625 80.625 0.5625C83.125 0.5625 85.3958 1.16667 87.4375 2.375C89.5208 3.58333 91.1667 5.22917 92.375 7.3125C93.625 9.35417 94.25 11.6458 94.25 14.1875C94.25 16.6875 93.625 18.9792 92.375 21.0625C91.1667 23.1042 89.5208 24.75 87.4375 26C85.3958 27.2083 83.125 27.8125 80.625 27.8125Z" fill="white"/>
</svg>
