<?xml version="1.0" encoding="UTF-8"?>
<svg xmlns="http://www.w3.org/2000/svg" xmlns:xlink="http://www.w3.org/1999/xlink" width="24" height="19.636364" viewBox="0 0 24 19.636364" version="1.1">
<g id="surface1">
<path style=" stroke:none;fill-rule:nonzero;fill:rgb(100%,100%,100%);fill-opacity:1;" d="M 9.058594 3.691406 C 9.421875 3.691406 9.730469 3.566406 9.980469 3.316406 C 10.234375 3.066406 10.363281 2.753906 10.363281 2.386719 C 10.363281 2.023438 10.234375 1.714844 9.980469 1.457031 C 9.730469 1.203125 9.421875 1.074219 9.058594 1.074219 C 8.695312 1.074219 8.386719 1.203125 8.128906 1.457031 C 7.875 1.714844 7.746094 2.023438 7.746094 2.386719 C 7.746094 2.753906 7.875 3.066406 8.128906 3.316406 C 8.386719 3.566406 8.695312 3.691406 9.058594 3.691406 Z M 1.117188 15.308594 L 5.777344 15.308594 C 5.910156 15.308594 6.007812 15.300781 6.078125 15.289062 C 6.152344 15.277344 6.234375 15.261719 6.332031 15.238281 L 11.054688 14.097656 C 11.09375 14.089844 11.125 14.101562 11.148438 14.128906 C 11.175781 14.152344 11.191406 14.183594 11.191406 14.222656 L 10.875 16.796875 L 9.027344 15.476562 C 8.828125 15.335938 8.609375 15.285156 8.371094 15.332031 C 8.136719 15.371094 7.953125 15.488281 7.816406 15.683594 C 7.667969 15.875 7.609375 16.09375 7.644531 16.339844 C 7.683594 16.578125 7.804688 16.765625 8.003906 16.902344 L 10.859375 18.910156 C 11.066406 19.058594 11.28125 19.140625 11.496094 19.160156 C 11.71875 19.183594 11.914062 19.140625 12.085938 19.039062 C 12.253906 18.9375 12.367188 18.777344 12.417969 18.5625 L 14.769531 9.128906 C 14.808594 8.996094 14.894531 8.945312 15.027344 8.972656 L 22.714844 10.5 C 23.042969 10.566406 23.296875 10.503906 23.472656 10.3125 C 23.652344 10.121094 23.746094 9.902344 23.746094 9.65625 C 23.746094 9.46875 23.6875 9.292969 23.574219 9.128906 C 23.464844 8.957031 23.292969 8.847656 23.054688 8.804688 L 15.476562 7.277344 C 14.726562 7.128906 14.058594 7.007812 13.464844 6.910156 C 12.875 6.816406 12.320312 6.746094 11.804688 6.699219 C 11.285156 6.648438 10.761719 6.621094 10.226562 6.621094 L 8.089844 6.621094 L 8.089844 4.441406 C 8.089844 4.195312 8.003906 3.992188 7.832031 3.828125 C 7.660156 3.65625 7.457031 3.570312 7.21875 3.570312 C 6.972656 3.570312 6.765625 3.65625 6.597656 3.828125 C 6.425781 3.992188 6.339844 4.195312 6.339844 4.441406 L 6.339844 7.484375 C 6.339844 7.722656 6.425781 7.925781 6.597656 8.097656 C 6.765625 8.265625 6.972656 8.351562 7.21875 8.351562 L 10.816406 8.351562 C 10.894531 8.351562 10.957031 8.382812 11.003906 8.445312 C 11.054688 8.503906 11.066406 8.570312 11.046875 8.652344 L 10.347656 11.34375 C 10.226562 11.804688 9.949219 12.109375 9.511719 12.265625 L 5.761719 13.566406 L 1.117188 13.566406 C 0.871094 13.566406 0.667969 13.652344 0.503906 13.824219 C 0.339844 13.996094 0.253906 14.203125 0.253906 14.445312 C 0.253906 14.691406 0.339844 14.894531 0.503906 15.058594 C 0.667969 15.222656 0.871094 15.308594 1.117188 15.308594 Z M 13.917969 6.109375 C 14.257812 6.109375 14.566406 6.027344 14.847656 5.863281 C 15.128906 5.691406 15.355469 5.464844 15.519531 5.183594 C 15.691406 4.898438 15.777344 4.582031 15.777344 4.234375 C 15.777344 3.894531 15.691406 3.585938 15.519531 3.308594 C 15.355469 3.023438 15.128906 2.796875 14.847656 2.632812 C 14.566406 2.46875 14.257812 2.386719 13.917969 2.386719 C 13.570312 2.386719 13.253906 2.46875 12.972656 2.632812 C 12.691406 2.796875 12.46875 3.023438 12.296875 3.308594 C 12.132812 3.585938 12.050781 3.894531 12.050781 4.234375 C 12.050781 4.582031 12.132812 4.898438 12.296875 5.183594 C 12.46875 5.464844 12.691406 5.691406 12.972656 5.863281 C 13.253906 6.027344 13.570312 6.109375 13.917969 6.109375 Z M 13.917969 6.109375 "/>
</g>
</svg>
