<?xml version="1.0" encoding="UTF-8"?>
<svg xmlns="http://www.w3.org/2000/svg" xmlns:xlink="http://www.w3.org/1999/xlink" width="24" height="25.5" viewBox="0 0 24 25.5" version="1.1">
<g id="surface1">
<path style=" stroke:none;fill-rule:nonzero;fill:rgb(100%,100%,100%);fill-opacity:1;" d="M 12 24.492188 C 13.632812 24.492188 15.167969 24.179688 16.605469 23.554688 C 18.050781 22.929688 19.324219 22.066406 20.425781 20.964844 C 21.527344 19.863281 22.390625 18.59375 23.015625 17.15625 C 23.640625 15.710938 23.953125 14.171875 23.953125 12.539062 C 23.953125 10.90625 23.640625 9.371094 23.015625 7.933594 C 22.390625 6.488281 21.527344 5.214844 20.425781 4.113281 C 19.324219 3.011719 18.050781 2.148438 16.605469 1.523438 C 15.160156 0.898438 13.621094 0.585938 11.988281 0.585938 C 10.355469 0.585938 8.816406 0.898438 7.371094 1.523438 C 5.933594 2.148438 4.664062 3.011719 3.5625 4.113281 C 2.46875 5.214844 1.609375 6.488281 0.984375 7.933594 C 0.359375 9.371094 0.046875 10.90625 0.046875 12.539062 C 0.046875 14.171875 0.359375 15.710938 0.984375 17.15625 C 1.609375 18.59375 2.472656 19.863281 3.574219 20.964844 C 4.675781 22.066406 5.945312 22.929688 7.382812 23.554688 C 8.828125 24.179688 10.367188 24.492188 12 24.492188 Z M 7.066406 19.980469 C 6.886719 19.980469 6.734375 19.917969 6.609375 19.792969 C 6.484375 19.667969 6.421875 19.511719 6.421875 19.324219 C 6.421875 19.144531 6.503906 18.972656 6.667969 18.808594 L 9.082031 16.417969 L 11.003906 9.585938 C 11.042969 9.453125 11.027344 9.347656 10.957031 9.269531 C 10.886719 9.183594 10.785156 9.144531 10.652344 9.152344 L 9.503906 9.210938 L 9.210938 11.308594 C 9.15625 11.753906 8.929688 11.957031 8.53125 11.917969 C 8.328125 11.902344 8.171875 11.828125 8.0625 11.695312 C 7.960938 11.554688 7.925781 11.378906 7.957031 11.167969 L 8.296875 8.578125 C 8.351562 8.15625 8.582031 7.929688 8.988281 7.898438 L 11.835938 7.675781 C 12.96875 7.597656 13.832031 7.976562 14.425781 8.8125 L 15.726562 10.640625 L 17.613281 9.832031 C 18.027344 9.652344 18.308594 9.742188 18.457031 10.101562 C 18.550781 10.265625 18.566406 10.421875 18.503906 10.570312 C 18.441406 10.71875 18.308594 10.835938 18.105469 10.921875 L 15.714844 11.988281 C 15.386719 12.136719 15.128906 12.066406 14.941406 11.777344 L 14.25 10.769531 C 14.15625 10.628906 14.046875 10.570312 13.921875 10.59375 C 13.796875 10.609375 13.714844 10.691406 13.675781 10.839844 L 13.160156 12.679688 L 15.796875 14.390625 C 16.054688 14.5625 16.183594 14.753906 16.183594 14.964844 C 16.183594 15.175781 16.097656 15.355469 15.925781 15.503906 L 13.476562 17.578125 C 13.273438 17.773438 13.058594 17.871094 12.832031 17.871094 C 12.660156 17.871094 12.515625 17.808594 12.398438 17.683594 C 12.28125 17.558594 12.222656 17.40625 12.222656 17.226562 C 12.222656 17.007812 12.320312 16.828125 12.515625 16.6875 L 14.34375 15.105469 L 12.339844 13.933594 C 12.128906 13.816406 11.933594 13.785156 11.753906 13.839844 C 11.582031 13.886719 11.457031 14.011719 11.378906 14.214844 L 10.347656 16.875 C 10.292969 17.015625 10.246094 17.113281 10.207031 17.167969 C 10.175781 17.222656 10.105469 17.296875 9.996094 17.390625 L 7.722656 19.640625 C 7.597656 19.757812 7.488281 19.84375 7.394531 19.898438 C 7.300781 19.953125 7.191406 19.980469 7.066406 19.980469 Z M 13.992188 7.335938 C 13.570312 7.335938 13.210938 7.1875 12.914062 6.890625 C 12.617188 6.585938 12.46875 6.226562 12.46875 5.8125 C 12.46875 5.382812 12.617188 5.019531 12.914062 4.722656 C 13.210938 4.417969 13.570312 4.265625 13.992188 4.265625 C 14.421875 4.265625 14.785156 4.417969 15.082031 4.722656 C 15.386719 5.019531 15.539062 5.382812 15.539062 5.8125 C 15.539062 6.226562 15.386719 6.585938 15.082031 6.890625 C 14.777344 7.1875 14.414062 7.335938 13.992188 7.335938 Z M 13.992188 7.335938 "/>
</g>
</svg>
