<svg xmlns="http://www.w3.org/2000/svg" width="24" height="24"><path style="stroke:none;fill-rule:nonzero;fill:#fff;fill-opacity:1" d="M15.738 5.68c.399.004.793-.106 1.137-.32.348-.22.621-.512.824-.872.207-.367.317-.785.313-1.21 0-.45-.106-.856-.313-1.216-.199-.359-.48-.66-.824-.87a2.042 2.042 0 0 0-1.137-.333c-.422 0-.808.114-1.156.332a2.429 2.429 0 0 0-1.125 2.086c0 .442.102.844.305 1.211.207.36.48.653.82.871.348.215.734.32 1.156.32ZM7.582 20.129c.246.16.516.203.813.133.308-.075.539-.242.699-.508l2.562-4.348 2.781.164-1.738 2.946a1.213 1.213 0 0 0-.156.894c.055.309.238.574.5.719.262.16.535.203.82.133.293-.067.52-.235.68-.508l2.695-4.567c.149-.25.207-.507.18-.773a1.177 1.177 0 0 0-.324-.703c-.18-.2-.438-.316-.77-.356l-4.554-.539c-.223-.023-.372-.132-.446-.328a.6.6 0 0 1 .063-.562l1.883-3.004a.357.357 0 0 1 .242-.176.36.36 0 0 1 .289.043l6.906 4.402c.25.157.527.192.824.121.305-.074.532-.242.676-.507.148-.285.184-.582.117-.895a1.078 1.078 0 0 0-.5-.707L8.176 2.527a1.057 1.057 0 0 0-.551-.144H3.25c-.305 0-.566.11-.781.332a1.102 1.102 0 0 0-.324.805c0 .312.109.585.324.816.215.226.476.344.781.344h4.063l1.906 1.21c.242.15.289.348.136.606l-2.367 3.75a3.36 3.36 0 0 0-.539 1.578 3.323 3.323 0 0 0 .239 1.563c.207.492.519.914.937 1.258.422.34.934.546 1.531.62l-1.926 3.25c-.16.274-.21.567-.148.887.07.313.238.559.5.727Zm-3.883 2.59h16.602c.586 0 1.113-.07 1.586-.207.476-.14.902-.38 1.27-.719.16-.137.238-.29.238-.453a.672.672 0 0 0-.114-.414.604.604 0 0 0-.386-.246c-.16-.028-.317.02-.477.152a2.57 2.57 0 0 1-.898.508c-.317.105-.723.156-1.22.156H3.7c-.497 0-.903-.05-1.22-.156a2.57 2.57 0 0 1-.898-.508c-.152-.117-.305-.168-.457-.152a.532.532 0 0 0-.355.18.656.656 0 0 0-.176.437c-.008.176.074.344.238.496.375.34.8.578 1.273.719.52.144 1.055.215 1.594.207Zm0 0"/></svg>