<svg xmlns="http://www.w3.org/2000/svg" width="24" height="24"><path style="stroke:none;fill-rule:nonzero;fill:#fff;fill-opacity:1" d="M4.8 4.613h5.41a.534.534 0 0 0 .423-.195c.11-.129.168-.3.168-.48a.721.721 0 0 0-.168-.481.529.529 0 0 0-.422-.207H4.8a.523.523 0 0 0-.422.207.702.702 0 0 0-.168.48c0 .188.055.348.168.481.11.129.262.2.422.195ZM1.446 9.836h6.422c.16.004.313-.07.422-.2.11-.128.172-.3.168-.48a.736.736 0 0 0-.168-.48.529.529 0 0 0-.422-.207H1.445a.52.52 0 0 0-.414.207.708.708 0 0 0-.168.48c0 .18.055.34.168.48.114.13.25.2.414.2Zm2.801 5.215H7.82a.516.516 0 0 0 .41-.2c.11-.128.172-.3.168-.476a.704.704 0 0 0-.168-.477.511.511 0 0 0-.41-.21H4.246a.533.533 0 0 0-.422.21.699.699 0 0 0-.168.477c0 .188.055.348.168.477.114.136.254.199.422.199Zm-2.465 5.156h4.895c.16 0 .3-.062.41-.2a.695.695 0 0 0 .172-.476.688.688 0 0 0-.172-.476.511.511 0 0 0-.41-.211H1.78c-.164 0-.3.07-.414.21a.718.718 0 0 0-.168.477c0 .188.059.348.168.477.113.133.25.199.414.199Zm10.293 3.031 2.813-3.726c.136-.18.23-.32.273-.407.05-.101.102-.242.16-.43l.203-.706-1.507-2.106-.45 2.356-2.785 3.664c-.219.297-.312.574-.281.832.023.258.14.488.32.648.172.164.399.25.625.239.239 0 .45-.122.63-.364Zm6.864-.312c.144.328.335.527.582.61.23.081.48.066.703-.048a.947.947 0 0 0 .488-.562c.094-.254.062-.559-.094-.914l-1.914-4.305a8.279 8.279 0 0 0-.254-.488c-.086-.16-.18-.32-.281-.469l-1.207-1.906.082-.281c.164-.543.277-1.012.348-1.407.074-.394.132-.86.168-1.394l.187-3.012c.05-.707-.101-1.3-.457-1.781-.36-.485-.863-.727-1.52-.727-.5 0-.94.133-1.324.403-.375.265-.789.644-1.246 1.136l-1.433 1.57c-.239.258-.403.504-.496.743a3.02 3.02 0 0 0-.168.863l-.18 2.457c-.02.313.039.57.18.774.14.195.343.3.609.312.262.023.469-.05.617-.219.156-.168.246-.418.274-.746l.203-2.703.695-.684c.117-.125.242-.156.375-.097.133.058.191.152.18.293l-.153 2.281c-.035.578.012 1.047.141 1.418.133.36.379.785.742 1.277l1.895 2.649c.093.129.156.234.187.312.031.07.067.149.11.23Zm3.253-12.621h-2.156l-1.37-1.68-.157 2.512.543.601c.148.168.304.285.469.344.16.063.378.098.656.098h2.015c.286 0 .516-.086.684-.254.168-.164.254-.395.254-.684a.934.934 0 0 0-.262-.68c-.172-.171-.394-.257-.676-.257Zm-5.382-5A1.85 1.85 0 0 0 17.832 5c.313-.207.559-.48.738-.824.188-.348.282-.73.282-1.145 0-.422-.094-.804-.282-1.148a2.114 2.114 0 0 0-.738-.82 1.79 1.79 0 0 0-1.023-.301 1.85 1.85 0 0 0-1.032.3c-.304.2-.55.473-.738.82a2.418 2.418 0 0 0-.273 1.15c0 .413.09.796.273 1.144.184.336.438.617.738.824.313.2.657.305 1.032.305Zm0 0"/></svg>