<svg xmlns="http://www.w3.org/2000/svg" width="24" height="24"><path style="stroke:none;fill-rule:nonzero;fill:#fff;fill-opacity:1" d="M11.05 4.402c.536 0 1.02-.097 1.458-.285.449-.199.8-.457 1.058-.781.27-.328.403-.691.403-1.086 0-.395-.133-.754-.403-1.074-.254-.328-.617-.598-1.058-.79A3.426 3.426 0 0 0 11.05.09a3.65 3.65 0 0 0-1.477.293c-.445.199-.8.46-1.07.789-.262.328-.395.7-.387 1.078 0 .395.13.758.387 1.086.27.32.625.582 1.07.781.45.188.938.285 1.477.285ZM2.009 7.301h4.355c.098 0 .18.027.254.082.07.047.106.117.094.187l-.418 4.164c-.07.75.152 1.352.672 1.805.527.457 1.219.742 2.074.871l5.598.863 1.207 4.422c.082.305.289.524.629.664.34.137.664.184.976.137.363-.043.68-.203.871-.433.215-.239.285-.493.215-.77l-1.367-5.082c-.047-.195-.184-.371-.387-.504a1.904 1.904 0 0 0-.683-.297l-4.325-.996.375-3.848c.016-.144.102-.238.254-.285a.56.56 0 0 1 .47.07l2.046 1.25c.27.16.562.239.887.239h6.215c.382 0 .703-.098.96-.297.266-.188.41-.45.403-.719 0-.285-.133-.52-.403-.715-.25-.191-.597-.3-.96-.296H16.3L13.313 5.98a5.041 5.041 0 0 0-1.136-.523c-.375-.125-.832-.187-1.367-.187H3.87l1.54-3.77c.109-.277.066-.535-.122-.781C5.13.48 4.836.3 4.49.227a1.825 1.825 0 0 0-1.075.09c-.34.128-.562.331-.668.601L.696 5.992c-.133.336-.094.637.12.906.223.27.622.407 1.192.407Zm5.828 16.176c.32.074.656.054 1.004-.059.355-.113.598-.316.723-.613l2.05-5.043a.846.846 0 0 0 .051-.207c.012-.078.016-.157.016-.235v-1.53l-2.895-.454h-.094c-.027-.004-.054-.016-.078-.02l.293 2.004-1.996 4.903c-.105.265-.07.52.11.761.187.25.457.414.816.493Zm0 0"/></svg>