<svg width="60" height="140" viewBox="0 0 60 140" fill="none" xmlns="http://www.w3.org/2000/svg">
<path d="M0.9375 84.9375C0.9375 86.5208 1.47917 87.8542 2.5625 88.9375C3.64583 89.9792 4.95833 90.5 6.5 90.5C8.04167 90.5 9.33333 89.9792 10.375 88.9375C11.4583 87.8542 12 86.5208 12 84.9375V60.875C12 59.5417 12.6875 58.875 14.0625 58.875C15.3958 58.875 16.0625 59.5417 16.0625 60.875V133.75C16.0625 135.458 16.6458 136.896 17.8125 138.062C19.0208 139.229 20.4792 139.812 22.1875 139.812C23.8958 139.812 25.3333 139.229 26.5 138.062C27.7083 136.896 28.3125 135.458 28.3125 133.75V89.4375C28.3125 88.8542 28.5 88.3542 28.875 87.9375C29.2917 87.5208 29.7917 87.3125 30.375 87.3125C30.9583 87.3125 31.4583 87.5208 31.875 87.9375C32.2917 88.3542 32.5 88.8542 32.5 89.4375V133.75C32.5 135.458 33.0833 136.896 34.25 138.062C35.4167 139.229 36.8542 139.812 38.5625 139.812C40.2708 139.812 41.7083 139.229 42.875 138.062C44.0833 136.896 44.6875 135.458 44.6875 133.75V60.875C44.6875 59.5417 45.3542 58.875 46.6875 58.875C48.0625 58.875 48.75 59.5417 48.75 60.875V84.9375C48.75 86.5208 49.2708 87.8542 50.3125 88.9375C51.3958 89.9792 52.7083 90.5 54.25 90.5C55.7917 90.5 57.1042 89.9792 58.1875 88.9375C59.2708 87.8542 59.8125 86.5208 59.8125 84.9375V58.0625C59.8125 53.4375 58.75 49.4167 56.625 46C54.5417 42.5417 51.625 39.875 47.875 38C44.1667 36.0833 39.8333 35.125 34.875 35.125H25.875C20.9167 35.125 16.5625 36.0833 12.8125 38C9.10417 39.875 6.1875 42.5417 4.0625 46C1.97917 49.4167 0.9375 53.4375 0.9375 58.0625V84.9375ZM30.375 27.9375C32.875 27.9375 35.1458 27.3333 37.1875 26.125C39.2708 24.875 40.9167 23.2292 42.125 21.1875C43.375 19.1042 44 16.8125 44 14.3125C44 11.7708 43.375 9.47917 42.125 7.4375C40.9167 5.39583 39.2708 3.77083 37.1875 2.5625C35.1458 1.3125 32.875 0.6875 30.375 0.6875C27.875 0.6875 25.5833 1.3125 23.5 2.5625C21.4583 3.77083 19.8125 5.39583 18.5625 7.4375C17.3542 9.47917 16.75 11.7708 16.75 14.3125C16.75 16.8125 17.3542 19.1042 18.5625 21.1875C19.8125 23.2292 21.4583 24.875 23.5 26.125C25.5833 27.3333 27.875 27.9375 30.375 27.9375Z" fill="white"/>
</svg>
