<svg xmlns="http://www.w3.org/2000/svg" width="24" height="24"><path style="stroke:none;fill-rule:nonzero;fill:#fff;fill-opacity:1" d="M5.508 5.207c.312 0 .597-.098.851-.293.25-.195.461-.476.61-.809.152-.34.226-.718.226-1.136 0-.418-.074-.797-.226-1.137a2.164 2.164 0 0 0-.61-.812 1.336 1.336 0 0 0-.851-.301c-.313 0-.598.101-.852.304-.25.2-.46.477-.61.813a2.73 2.73 0 0 0-.226 1.133c0 .418.075.797.227 1.136.152.34.355.61.61.813.253.191.538.293.85.293ZM2.812 23.949c.376 0 .626-.308.75-.918.051-.254.122-.62.211-1.082.09-.46.184-.965.29-1.52.105-.558.207-1.105.312-1.648.11-.547.207-1.043.297-1.48.09-.438.16-.758.21-.969.09-.375.177-.64.259-.8.082-.16.207-.243.367-.243s.285.082.367.242c.082.16.168.426.258.801.05.211.12.531.21.969.09.437.184.933.29 1.48.105.543.207 1.09.312 1.645l.297 1.52c.09.464.16.831.211 1.085.125.61.375.918.75.918.25 0 .442-.133.57-.387.137-.253.172-.582.094-.875-.012-.046-.047-.246-.11-.582l-.234-1.293c-.09-.519-.187-1.082-.296-1.687a453.54 453.54 0 0 1-.563-3.324 28.444 28.444 0 0 1-.148-1.008 18.31 18.31 0 0 1-.079-1.031 97.98 97.98 0 0 1-.054-1.262c-.012-.438-.02-.852-.024-1.25-.004-.402-.007-.738-.007-1.012 0-.082.027-.133.078-.152.05-.024.097.004.14.07l.883 1.645a1.97 1.97 0 0 1 .383-.895c.215-.277.48-.422.805-.426L8.43 8.125a4.15 4.15 0 0 0-.72-1.031 2.33 2.33 0 0 0-.929-.594 3.758 3.758 0 0 0-1.273-.2c-.496 0-.922.067-1.281.2a2.374 2.374 0 0 0-.93.594c-.262.265-.496.61-.711 1.031L.563 12.094c-.043.078-.083.156-.125.238-.036.078-.07.152-.102.23-.082.208-.102.45-.055.676.051.246.18.434.383.575a.55.55 0 0 0 .477.124.675.675 0 0 0 .43-.312c.105-.164.206-.34.296-.52.145-.265.313-.574.5-.93l.57-1.062c.192-.36.364-.68.508-.957.035-.066.082-.09.133-.062.059.02.086.074.086.156 0 .27-.004.605-.008 1s-.015.813-.031 1.25c-.012.438-.027.86-.047 1.262-.02.398-.05.742-.086 1.031-.027.21-.074.55-.148 1.008-.074.457-.16.969-.258 1.554a99.88 99.88 0 0 1-.305 1.77 364.7 364.7 0 0 1-.531 2.98c-.059.336-.09.536-.102.582a1.27 1.27 0 0 0 .086.875c.13.254.348.399.579.387ZM12 12.406c.332.008.652-.168.883-.488.25-.328.375-.719.375-1.18 0-.457-.125-.847-.375-1.175-.23-.32-.551-.497-.883-.489-.332-.008-.652.168-.883.489-.238.308-.37.734-.367 1.175 0 .461.121.852.367 1.18.23.32.551.496.883.488ZM10.344 23.95a.526.526 0 0 0 .39-.187c.121-.121.204-.309.25-.563a71.987 71.987 0 0 0 .398-2.117c.126-.672.259-1.34.4-2.008.058-.215.097-.344.116-.387.028-.046.059-.074.102-.074s.074.028.094.075c.027.039.066.171.117.386.043.164.098.43.164.801.074.371.152.77.234 1.207.082.445.16.86.235 1.242.074.39.129.68.172.875.046.254.129.442.242.563a.518.518 0 0 0 .398.183c.2.016.39-.117.5-.34.114-.222.145-.496.094-.75-.004-.039-.035-.199-.086-.492-.05-.285-.117-.64-.195-1.062-.074-.414-.149-.848-.227-1.301-.074-.441-.14-.848-.203-1.207-.059-.36-.098-.625-.117-.793-.031-.266-.05-.535-.063-.8-.015-.329-.027-.641-.03-.95-.005-.309-.009-.547-.009-.719 0-.152.02-.281.055-.386.035-.11.086-.22.148-.32.188-.313.38-.626.579-.938.203-.313.378-.586.523-.817a4.58 4.58 0 0 0 .258-.433.918.918 0 0 0 .101-.563 1.128 1.128 0 0 0-.195-.52c-.11-.175-.273-.277-.445-.273-.153-.015-.305.063-.414.207l-.828 1.18c-.172.25-.34.43-.508.55-.16.11-.36.169-.594.169-.234 0-.434-.059-.602-.168a2.426 2.426 0 0 1-.5-.551l-.828-1.18c-.113-.148-.265-.222-.422-.207-.168-.004-.332.094-.437.27-.106.14-.18.324-.203.52-.02.199.015.402.101.566.032.062.121.207.266.437l.516.813c.203.312.398.625.586.937.062.102.109.211.14.32.04.126.059.254.055.387 0 .172-.004.41-.008.719s-.016.621-.031.95a9.188 9.188 0 0 1-.055.8c-.02.168-.062.434-.125.793-.058.36-.125.766-.203 1.207-.078.453-.152.887-.227 1.3l-.187 1.063a9.957 9.957 0 0 1-.094.492c-.05.254-.02.528.094.75.11.227.305.356.508.344Zm8.148-18.742c.313 0 .594-.098.844-.293.25-.195.46-.476.61-.809.152-.34.226-.718.226-1.136 0-.418-.074-.797-.227-1.137a2.164 2.164 0 0 0-.61-.812 1.294 1.294 0 0 0-.843-.301c-.312 0-.597.097-.851.3-.25.2-.461.481-.61.813a2.76 2.76 0 0 0-.226 1.137c0 .418.074.797.226 1.136.153.336.356.61.61.813.254.191.539.289.851.289Zm-2.695 18.742c.375 0 .625-.308.75-.918l.21-1.082c.09-.46.184-.965.29-1.52.105-.558.207-1.105.312-1.648.11-.547.207-1.043.29-1.48.09-.438.16-.758.218-.969.09-.375.176-.64.258-.8.082-.16.207-.243.367-.243.156 0 .278.082.36.242.09.16.175.426.265.801.051.211.121.531.211.969.09.437.184.933.29 1.48.105.543.206 1.09.312 1.645l.297 1.52.21 1.085c.125.61.375.918.75.918.25 0 .442-.133.57-.387.13-.257.165-.578.095-.875-.012-.046-.047-.246-.11-.582l-.234-1.293c-.301-1.667-.586-3.335-.86-5.011a29.837 29.837 0 0 1-.148-1.008 30.57 30.57 0 0 1-.086-1.031 67.378 67.378 0 0 1-.07-2.512c-.004-.395-.008-.73-.008-1 0-.082.027-.137.078-.156.059-.028.102-.004.133.062.152.278.32.602.508.957.191.356.383.711.57 1.063.191.355.36.664.5.93.145.265.246.437.297.519.11.168.258.277.422.313a.589.589 0 0 0 .492-.126c.2-.14.32-.328.367-.574.05-.222.04-.465-.039-.675a2.553 2.553 0 0 0-.117-.231 2.693 2.693 0 0 0-.117-.238l-2.016-3.969a4.172 4.172 0 0 0-.727-1.031 2.32 2.32 0 0 0-.921-.594 3.743 3.743 0 0 0-1.274-.2c-.496 0-.922.071-1.281.2a2.419 2.419 0 0 0-.93.594c-.261.27-.496.613-.71 1.031l-1.22 2.355c.329.004.598.149.805.426.215.278.344.578.39.895l.884-1.645c.035-.066.082-.094.133-.07.058.02.085.07.085.152 0 .274-.003.61-.007 1.012-.004.395-.016.813-.032 1.25-.011.438-.027.86-.054 1.262-.02.398-.047.742-.078 1.031-.028.21-.075.55-.149 1.008a453.54 453.54 0 0 1-.562 3.324c-.172.996-.352 1.988-.532 2.98-.039.192-.07.387-.101.582-.074.293-.043.618.086.875.129.254.347.399.578.387Zm0 0"/></svg>