<?xml version="1.0" encoding="UTF-8"?>
<svg xmlns="http://www.w3.org/2000/svg" xmlns:xlink="http://www.w3.org/1999/xlink" width="24" height="18" viewBox="0 0 24 18" version="1.1">
<g id="surface1">
<path style=" stroke:none;fill-rule:nonzero;fill:rgb(100%,100%,100%);fill-opacity:1;" d="M 11.992188 12.121094 C 12.410156 12.121094 12.761719 12.070312 13.050781 11.960938 C 13.34375 11.855469 13.613281 11.726562 13.855469 11.570312 C 14.105469 11.40625 14.367188 11.25 14.632812 11.101562 C 14.902344 10.945312 15.222656 10.820312 15.589844 10.726562 L 9.09375 3.964844 C 8.882812 3.746094 8.632812 3.625 8.34375 3.601562 C 8.0625 3.574219 7.796875 3.652344 7.546875 3.835938 L 3.871094 6.449219 C 3.554688 6.675781 3.390625 6.933594 3.382812 7.226562 C 3.382812 7.515625 3.476562 7.757812 3.664062 7.960938 C 3.816406 8.128906 4.015625 8.234375 4.265625 8.277344 C 4.523438 8.320312 4.78125 8.25 5.042969 8.0625 L 8.023438 5.953125 L 9.710938 7.6875 C 9.804688 7.789062 9.855469 7.902344 9.863281 8.035156 C 9.875 8.164062 9.808594 8.28125 9.664062 8.382812 L 6.195312 10.660156 C 6.398438 10.640625 6.605469 10.628906 6.824219 10.621094 C 7.042969 10.617188 7.277344 10.617188 7.527344 10.621094 C 8.058594 10.648438 8.503906 10.738281 8.859375 10.894531 C 9.214844 11.042969 9.539062 11.214844 9.835938 11.410156 C 10.128906 11.597656 10.441406 11.761719 10.773438 11.90625 C 11.101562 12.050781 11.507812 12.121094 11.992188 12.121094 Z M 1.425781 14.597656 L 2.371094 14.597656 C 2.996094 14.597656 3.519531 14.523438 3.9375 14.371094 C 4.363281 14.214844 4.738281 14.035156 5.0625 13.828125 C 5.394531 13.621094 5.722656 13.445312 6.046875 13.292969 C 6.371094 13.136719 6.75 13.058594 7.179688 13.058594 C 7.617188 13.058594 8 13.136719 8.324219 13.292969 C 8.648438 13.445312 8.976562 13.621094 9.300781 13.828125 C 9.625 14.035156 9.996094 14.214844 10.414062 14.371094 C 10.839844 14.523438 11.367188 14.597656 11.992188 14.597656 C 12.621094 14.597656 13.148438 14.523438 13.566406 14.371094 C 13.992188 14.214844 14.367188 14.035156 14.691406 13.828125 C 15.015625 13.621094 15.339844 13.445312 15.664062 13.292969 C 15.992188 13.136719 16.371094 13.058594 16.808594 13.058594 C 17.242188 13.058594 17.617188 13.136719 17.945312 13.292969 C 18.269531 13.445312 18.59375 13.621094 18.917969 13.828125 C 19.242188 14.035156 19.617188 14.214844 20.035156 14.371094 C 20.460938 14.523438 20.988281 14.597656 21.617188 14.597656 L 22.566406 14.597656 C 22.714844 14.597656 22.839844 14.546875 22.941406 14.445312 C 23.039062 14.347656 23.089844 14.226562 23.089844 14.082031 C 23.089844 13.929688 23.039062 13.804688 22.941406 13.707031 C 22.839844 13.605469 22.714844 13.554688 22.566406 13.554688 L 21.617188 13.554688 C 21.167969 13.554688 20.773438 13.476562 20.4375 13.320312 C 20.101562 13.164062 19.765625 12.988281 19.433594 12.789062 C 19.109375 12.582031 18.742188 12.402344 18.328125 12.253906 C 17.914062 12.097656 17.410156 12.019531 16.808594 12.019531 C 16.203125 12.019531 15.695312 12.097656 15.28125 12.253906 C 14.867188 12.402344 14.496094 12.582031 14.164062 12.789062 C 13.839844 12.988281 13.507812 13.164062 13.171875 13.320312 C 12.835938 13.476562 12.441406 13.554688 11.992188 13.554688 C 11.539062 13.554688 11.148438 13.476562 10.808594 13.320312 C 10.472656 13.164062 10.136719 12.988281 9.804688 12.789062 C 9.480469 12.582031 9.113281 12.402344 8.699219 12.253906 C 8.289062 12.097656 7.78125 12.019531 7.179688 12.019531 C 6.582031 12.019531 6.074219 12.097656 5.664062 12.253906 C 5.25 12.402344 4.878906 12.582031 4.546875 12.789062 C 4.222656 12.988281 3.890625 13.164062 3.554688 13.320312 C 3.214844 13.476562 2.820312 13.554688 2.371094 13.554688 L 1.425781 13.554688 C 1.273438 13.554688 1.148438 13.605469 1.050781 13.707031 C 0.949219 13.804688 0.898438 13.929688 0.898438 14.082031 C 0.898438 14.226562 0.949219 14.347656 1.050781 14.445312 C 1.148438 14.546875 1.273438 14.597656 1.425781 14.597656 Z M 1.425781 17.183594 L 2.371094 17.183594 C 2.996094 17.183594 3.519531 17.105469 3.9375 16.949219 C 4.363281 16.792969 4.738281 16.613281 5.0625 16.40625 C 5.394531 16.207031 5.722656 16.027344 6.046875 15.871094 C 6.371094 15.714844 6.75 15.636719 7.179688 15.636719 C 7.617188 15.636719 8 15.714844 8.324219 15.871094 C 8.648438 16.027344 8.976562 16.207031 9.300781 16.40625 C 9.625 16.613281 9.996094 16.792969 10.414062 16.949219 C 10.839844 17.105469 11.367188 17.183594 11.992188 17.183594 C 12.621094 17.183594 13.148438 17.105469 13.566406 16.949219 C 13.992188 16.792969 14.367188 16.613281 14.691406 16.40625 C 15.015625 16.207031 15.339844 16.027344 15.664062 15.871094 C 15.992188 15.714844 16.371094 15.636719 16.808594 15.636719 C 17.242188 15.636719 17.617188 15.714844 17.945312 15.871094 C 18.269531 16.027344 18.59375 16.207031 18.917969 16.40625 C 19.242188 16.613281 19.617188 16.792969 20.035156 16.949219 C 20.460938 17.105469 20.988281 17.183594 21.617188 17.183594 L 22.566406 17.183594 C 22.714844 17.183594 22.839844 17.132812 22.941406 17.023438 C 23.039062 16.925781 23.089844 16.804688 23.089844 16.660156 C 23.089844 16.515625 23.039062 16.390625 22.941406 16.285156 C 22.839844 16.183594 22.714844 16.132812 22.566406 16.132812 L 21.617188 16.132812 C 21.167969 16.132812 20.773438 16.054688 20.4375 15.898438 C 20.101562 15.75 19.765625 15.574219 19.433594 15.375 C 19.109375 15.167969 18.742188 14.988281 18.328125 14.832031 C 17.914062 14.675781 17.410156 14.597656 16.808594 14.597656 C 16.203125 14.597656 15.695312 14.675781 15.28125 14.832031 C 14.867188 14.988281 14.496094 15.167969 14.164062 15.375 C 13.839844 15.574219 13.507812 15.75 13.171875 15.898438 C 12.835938 16.054688 12.441406 16.132812 11.992188 16.132812 C 11.539062 16.132812 11.148438 16.054688 10.808594 15.898438 C 10.472656 15.75 10.136719 15.574219 9.804688 15.375 C 9.480469 15.167969 9.113281 14.988281 8.699219 14.832031 C 8.289062 14.675781 7.78125 14.597656 7.179688 14.597656 C 6.582031 14.597656 6.074219 14.675781 5.664062 14.832031 C 5.25 14.988281 4.878906 15.167969 4.546875 15.375 C 4.222656 15.574219 3.890625 15.75 3.554688 15.898438 C 3.214844 16.054688 2.820312 16.132812 2.371094 16.132812 L 1.425781 16.132812 C 1.273438 16.132812 1.148438 16.183594 1.050781 16.285156 C 0.949219 16.390625 0.898438 16.515625 0.898438 16.660156 C 0.898438 16.804688 0.949219 16.925781 1.050781 17.023438 C 1.148438 17.132812 1.273438 17.183594 1.425781 17.183594 Z M 8.953125 1.003906 C 8.953125 1.148438 9.003906 1.273438 9.101562 1.378906 C 9.210938 1.476562 9.335938 1.527344 9.476562 1.527344 C 9.898438 1.527344 10.25 1.578125 10.539062 1.679688 C 10.824219 1.777344 11.101562 1.976562 11.371094 2.269531 C 11.566406 2.480469 11.773438 2.585938 11.992188 2.585938 C 12.214844 2.585938 12.425781 2.480469 12.617188 2.269531 C 12.886719 1.976562 13.164062 1.777344 13.445312 1.679688 C 13.730469 1.578125 14.085938 1.527344 14.511719 1.527344 C 14.65625 1.527344 14.777344 1.476562 14.878906 1.378906 C 14.984375 1.273438 15.039062 1.148438 15.039062 1.003906 C 15.039062 0.859375 14.984375 0.738281 14.878906 0.636719 C 14.777344 0.53125 14.652344 0.476562 14.503906 0.476562 C 13.984375 0.476562 13.53125 0.550781 13.144531 0.695312 C 12.761719 0.835938 12.378906 1.085938 11.992188 1.433594 C 11.609375 1.085938 11.226562 0.835938 10.835938 0.695312 C 10.457031 0.550781 10.003906 0.476562 9.476562 0.476562 C 9.335938 0.476562 9.210938 0.53125 9.101562 0.636719 C 9.003906 0.738281 8.953125 0.859375 8.953125 1.003906 Z M 15.730469 8.324219 C 16.113281 8.324219 16.457031 8.234375 16.761719 8.054688 C 17.074219 7.867188 17.320312 7.617188 17.503906 7.3125 C 17.691406 7 17.785156 6.652344 17.785156 6.273438 C 17.785156 5.898438 17.691406 5.554688 17.503906 5.25 C 17.320312 4.9375 17.074219 4.691406 16.761719 4.507812 C 16.457031 4.320312 16.113281 4.226562 15.730469 4.226562 C 15.355469 4.226562 15.011719 4.320312 14.699219 4.507812 C 14.386719 4.691406 14.140625 4.9375 13.960938 5.25 C 13.777344 5.554688 13.6875 5.898438 13.6875 6.273438 C 13.6875 6.652344 13.777344 7 13.960938 7.3125 C 14.140625 7.617188 14.386719 7.867188 14.699219 8.054688 C 15.011719 8.234375 15.355469 8.324219 15.730469 8.324219 Z M 15.730469 8.324219 "/>
</g>
</svg>
