<svg xmlns="http://www.w3.org/2000/svg" width="24" height="24"><path style="stroke:none;fill-rule:nonzero;fill:#fff;fill-opacity:1" d="M12 23.05c1.633 0 3.168-.292 4.605-.882a12.22 12.22 0 0 0 3.82-2.438 11.467 11.467 0 0 0 2.59-3.582c.626-1.363.938-2.808.938-4.347a10.2 10.2 0 0 0-.937-4.332 11.53 11.53 0 0 0-2.59-3.598 12.361 12.361 0 0 0-3.82-2.437A12.166 12.166 0 0 0 11.987.55c-1.633 0-3.172.293-4.617.883A12.307 12.307 0 0 0 3.562 3.87 11.523 11.523 0 0 0 .985 7.465 10.2 10.2 0 0 0 .047 11.8c0 1.539.312 2.984.937 4.347a11.467 11.467 0 0 0 2.59 3.582 12.236 12.236 0 0 0 3.809 2.438c1.445.59 2.984.883 4.617.883Zm0-1.874a10.222 10.222 0 0 1-7.055-2.734 9.548 9.548 0 0 1-2.133-2.989 8.83 8.83 0 0 1-.761-3.652c0-1.301.254-2.52.761-3.649A9.52 9.52 0 0 1 4.946 5.16 9.82 9.82 0 0 1 8.11 3.156c1.204-.488 2.496-.73 3.88-.73 1.382 0 2.675.242 3.878.73a9.701 9.701 0 0 1 3.176 2.004 9.432 9.432 0 0 1 2.145 2.992 8.685 8.685 0 0 1 .773 3.649c0 1.3-.258 2.52-.773 3.652a9.22 9.22 0 0 1-2.133 2.988A10.222 10.222 0 0 1 12 21.176Zm-6.727-9.75.47 2.582c.054.324.206.523.456.594.239.07.5.03.703-.11.22-.148.301-.379.246-.695l-.351-2.117 1.64-.606c.126-.039.215-.008.27.086l1.418 2.684c.219.394.418.68.598.847.187.168.363.313.527.43l4.5 3.09c.21.144.418.203.621.164a.788.788 0 0 0 .48-.297.68.68 0 0 0 .153-.52c-.016-.199-.137-.378-.363-.538l-3.422-2.473a.192.192 0 0 1-.094-.164c0-.067.04-.117.117-.156l2.297-1.266 3.106 1.387c.226.105.433.117.62.035a.909.909 0 0 0 .422-.399.68.68 0 0 0 .047-.55c-.062-.2-.23-.356-.504-.473l-3.34-1.434c-.406-.175-.792-.164-1.16.043l-1.582.903c-.07.039-.14.05-.21.035a.212.212 0 0 1-.141-.11L11.449 9.77c-.047-.086-.02-.157.082-.207l1.16-.508c.157-.067.309-.137.457-.211a.583.583 0 0 0 .305-.375l.785-2.524c.07-.234.055-.43-.047-.586a.766.766 0 0 0-.96-.265c-.172.082-.293.242-.364.476l-.703 2.317-1.008.386c-.531.196-1.172.45-1.922.762-.75.309-1.609.68-2.578 1.113l-.82.364c-.445.195-.633.504-.563.914Zm3.036-2.79c.46 0 .851-.148 1.171-.452.329-.301.493-.66.493-1.082 0-.43-.164-.797-.493-1.102a1.624 1.624 0 0 0-1.171-.46c-.446 0-.825.151-1.137.46-.313.3-.469.668-.469 1.105-.008.403.16.793.461 1.082.305.29.715.45 1.145.45Zm0 0"/></svg>