<svg width="18" height="21" viewBox="0 0 18 21" fill="none" xmlns="http://www.w3.org/2000/svg">
<path d="M13.3281 4.17188C13.6354 4.17188 13.9193 4.09635 14.1797 3.94531C14.4401 3.78906 14.6458 3.58333 14.7969 3.32812C14.9531 3.06771 15.0312 2.78125 15.0312 2.46875C15.0312 2.15625 14.9531 1.8724 14.7969 1.61719C14.6458 1.35677 14.4401 1.14844 14.1797 0.992188C13.9193 0.835938 13.6354 0.757812 13.3281 0.757812C13.0156 0.757812 12.7292 0.835938 12.4688 0.992188C12.2083 1.14844 12 1.35677 11.8438 1.61719C11.6927 1.8724 11.6172 2.15625 11.6172 2.46875C11.6172 2.78125 11.6927 3.06771 11.8438 3.32812C12 3.58333 12.2083 3.78906 12.4688 3.94531C12.7292 4.09635 13.0156 4.17188 13.3281 4.17188ZM10.2969 15.1328C10.5208 15.1328 10.7083 15.0547 10.8594 14.8984C11.0156 14.7422 11.0938 14.5547 11.0938 14.3359V10.5703C11.0938 10.3307 11.0208 10.1432 10.875 10.0078L8.80469 7.94531L10.6484 6.09375C10.7057 6.03646 10.776 6.00781 10.8594 6.00781C10.9479 6.00781 11.0208 6.03646 11.0781 6.09375L12.3672 7.39062C12.4349 7.46354 12.5182 7.52083 12.6172 7.5625C12.7161 7.59896 12.8177 7.61719 12.9219 7.61719H16.6875C16.9115 7.61719 17.099 7.53906 17.25 7.38281C17.4062 7.22656 17.4844 7.03646 17.4844 6.8125C17.4844 6.59375 17.4062 6.40625 17.25 6.25C17.099 6.09375 16.9115 6.01562 16.6875 6.01562H13.25L10.4531 3.20312C10.276 3.02083 10.0651 2.88281 9.82031 2.78906C9.58073 2.6901 9.33594 2.64062 9.08594 2.64062H6.14062C5.875 2.64062 5.67448 2.72135 5.53906 2.88281C5.40365 3.03906 5.33854 3.22656 5.34375 3.44531C5.35417 3.65885 5.44271 3.84896 5.60938 4.01562L6.92188 5.32031L5.86719 6.35156C5.64844 6.57031 5.5026 6.82812 5.42969 7.125C5.35677 7.41667 5.35677 7.71094 5.42969 8.00781C5.5026 8.29948 5.64844 8.55469 5.86719 8.77344L7.25781 10.1484V14.5234C7.25781 14.7422 7.33333 14.9297 7.48438 15.0859C7.64062 15.2422 7.83073 15.3203 8.05469 15.3203C8.27344 15.3203 8.46094 15.2422 8.61719 15.0859C8.77344 14.9297 8.85156 14.7422 8.85156 14.5234V10.2578L9.5 10.8984V14.3359C9.5 14.5547 9.57812 14.7422 9.73438 14.8984C9.89062 15.0547 10.0781 15.1328 10.2969 15.1328ZM0.945312 6.21094H8.51562V5.34375H0.945312C0.825521 5.34375 0.721354 5.38802 0.632812 5.47656C0.549479 5.5599 0.507812 5.66146 0.507812 5.78125C0.507812 5.89583 0.549479 5.9974 0.632812 6.08594C0.721354 6.16927 0.825521 6.21094 0.945312 6.21094ZM17.0312 14.75C17.151 14.75 17.2526 14.7083 17.3359 14.625C17.4245 14.5365 17.4688 14.4323 17.4688 14.3125V6.83594H16.6016V14.3125C16.6016 14.4323 16.6432 14.5365 16.7266 14.625C16.8151 14.7083 16.9167 14.75 17.0312 14.75ZM13.2969 20.0703C13.4167 20.0703 13.5182 20.026 13.6016 19.9375C13.6901 19.8542 13.7344 19.7526 13.7344 19.6328C13.7344 19.513 13.6901 19.4115 13.6016 19.3281C13.5182 19.2448 13.4167 19.2031 13.2969 19.2031C13.0312 19.2031 12.8307 19.1693 12.6953 19.1016C12.5599 19.0339 12.3802 18.888 12.1562 18.6641L3.83594 10.3359C3.7474 10.2474 3.64323 10.2031 3.52344 10.2031C3.40365 10.2031 3.30208 10.2474 3.21875 10.3359C3.13542 10.4193 3.09375 10.5208 3.09375 10.6406C3.09375 10.7604 3.13542 10.862 3.21875 10.9453L11.6641 19.3906C11.9089 19.6354 12.1667 19.8099 12.4375 19.9141C12.7083 20.0182 12.9948 20.0703 13.2969 20.0703ZM15.3203 19.6484C15.4401 19.6484 15.5417 19.6068 15.625 19.5234C15.7083 19.4401 15.75 19.3359 15.75 19.2109C15.75 19.0911 15.7083 18.9896 15.625 18.9062C15.5417 18.8229 15.4401 18.7812 15.3203 18.7812C15.0495 18.7812 14.8464 18.7474 14.7109 18.6797C14.5807 18.612 14.401 18.4661 14.1719 18.2422L5.85156 9.92188C5.76302 9.82812 5.65885 9.78125 5.53906 9.78125C5.41927 9.78125 5.31771 9.82552 5.23438 9.91406C5.15104 9.9974 5.10938 10.099 5.10938 10.2188C5.10938 10.3385 5.15104 10.4401 5.23438 10.5234L13.6797 18.9688C13.9245 19.2135 14.1823 19.388 14.4531 19.4922C14.724 19.5964 15.013 19.6484 15.3203 19.6484Z" fill="white"/>
</svg>
