<svg width="128" height="128" viewBox="0 0 128 128" fill="none" xmlns="http://www.w3.org/2000/svg">
<path d="M63.9375 127.625C72.6458 127.625 80.8333 125.958 88.5 122.625C96.2083 119.292 103 114.688 108.875 108.812C114.75 102.938 119.354 96.1667 122.688 88.5C126.021 80.7917 127.688 72.5833 127.688 63.875C127.688 55.1667 126.021 46.9792 122.688 39.3125C119.354 31.6042 114.75 24.8125 108.875 18.9375C103 13.0625 96.2083 8.45833 88.5 5.125C80.7917 1.79167 72.5833 0.125 63.875 0.125C55.1667 0.125 46.9583 1.79167 39.25 5.125C31.5833 8.45833 24.8125 13.0625 18.9375 18.9375C13.1042 24.8125 8.52083 31.6042 5.1875 39.3125C1.85417 46.9792 0.1875 55.1667 0.1875 63.875C0.1875 72.5833 1.85417 80.7917 5.1875 88.5C8.52083 96.1667 13.125 102.938 19 108.812C24.875 114.688 31.6458 119.292 39.3125 122.625C47.0208 125.958 55.2292 127.625 63.9375 127.625ZM58.5625 107.125C57.2708 107.125 56.2708 106.75 55.5625 106C54.8542 105.25 54.5 104.208 54.5 102.875V52.875C54.5 51.3333 53.8542 50.1042 52.5625 49.1875L43.125 42.1875C41.1667 40.7708 40.125 38.8958 40 36.5625L39.125 23.5C39.0417 22.25 39.2917 21.2708 39.875 20.5625C40.5 19.8125 41.3542 19.4167 42.4375 19.375C43.5625 19.25 44.4583 19.5208 45.125 20.1875C45.8333 20.8542 46.2083 21.7917 46.25 23L47.1875 36.25L53.0625 40.3125C54.1042 41.0625 55.0625 41.6042 55.9375 41.9375C56.8125 42.2292 57.9583 42.375 59.375 42.375H64.6875C71.6458 42.375 76.7708 43.375 80.0625 45.375C83.3958 47.3333 85.0625 51.2083 85.0625 57V75.125C85.0625 77.7083 83.875 79 81.5 79C79.0417 79 77.8125 77.7083 77.8125 75.125V55.9375C77.8125 55.3125 77.6458 54.8125 77.3125 54.4375C76.9792 54.0625 76.5417 53.875 76 53.875C74.7917 53.875 74.1875 54.5625 74.1875 55.9375V102.875C74.1875 105.708 72.875 107.125 70.25 107.125C68.9583 107.125 67.9375 106.75 67.1875 106C66.4792 105.25 66.125 104.208 66.125 102.875V74.75C66.125 73.3333 65.5208 72.625 64.3125 72.625C63.1042 72.625 62.5 73.3333 62.5 74.75V102.875C62.5 105.708 61.1875 107.125 58.5625 107.125ZM64.6875 38.3125C62.4792 38.3125 60.5625 37.5208 58.9375 35.9375C57.3125 34.3125 56.5 32.3958 56.5 30.1875C56.5 27.8958 57.2917 25.9583 58.875 24.375C60.4583 22.75 62.3958 21.9375 64.6875 21.9375C66.9792 21.9375 68.9167 22.75 70.5 24.375C72.125 25.9583 72.9375 27.8958 72.9375 30.1875C72.9375 32.3542 72.125 34.25 70.5 35.875C68.875 37.5 66.9375 38.3125 64.6875 38.3125Z" fill="white"/>
</svg>
