<svg width="86" height="140" viewBox="0 0 86 140" fill="none" xmlns="http://www.w3.org/2000/svg">
<path d="M42.9375 27.25C45.4375 27.25 47.7083 26.6667 49.75 25.5C51.7917 24.2917 53.4167 22.6667 54.625 20.625C55.8333 18.5833 56.4375 16.3125 56.4375 13.8125C56.4375 11.3125 55.8333 9.04167 54.625 7C53.4167 4.95833 51.7917 3.33333 49.75 2.125C47.7083 0.916667 45.4375 0.3125 42.9375 0.3125C40.4375 0.3125 38.1667 0.916667 36.125 2.125C34.0833 3.33333 32.4583 4.95833 31.25 7C30.0417 9.04167 29.4375 11.3125 29.4375 13.8125C29.4375 16.3125 30.0417 18.5833 31.25 20.625C32.4583 22.6667 34.0833 24.2917 36.125 25.5C38.1667 26.6667 40.4375 27.25 42.9375 27.25ZM42.9375 87.75C44.2292 87.75 45.2083 88.2292 45.875 89.1875C46.5417 90.1458 47.2292 91.75 47.9375 94C48.3542 95.25 48.9167 97.1875 49.625 99.8125C50.3333 102.438 51.1042 105.396 51.9375 108.688C52.7708 111.938 53.6042 115.229 54.4375 118.562C55.3125 121.896 56.1042 124.938 56.8125 127.688C57.5208 130.479 58.0833 132.646 58.5 134.188C59.5 137.854 61.5 139.688 64.5 139.688C66.5 139.688 68.0208 138.917 69.0625 137.375C70.1458 135.833 70.3958 134.083 69.8125 132.125C69.7292 131.833 69.4375 130.667 68.9375 128.625C68.4375 126.583 67.8125 124 67.0625 120.875C66.3542 117.75 65.5625 114.375 64.6875 110.75C63.8542 107.125 63.0417 103.583 62.25 100.125C61.4583 96.625 60.7708 93.5208 60.1875 90.8125C59.6042 88.0625 59.2083 86.0417 59 84.75C58.75 83.0417 58.5417 80.9792 58.375 78.5625C58.2083 76.1458 58.0625 73.625 57.9375 71C57.8542 68.375 57.7917 65.875 57.75 63.5C57.7083 61.0833 57.6875 59.0625 57.6875 57.4375C57.6875 56.9375 57.8958 56.625 58.3125 56.5C58.7292 56.375 59.1042 56.5208 59.4375 56.9375C60.6042 58.5625 61.9375 60.4583 63.4375 62.625C64.9792 64.7917 66.5 66.9375 68 69.0625C69.5417 71.1875 70.875 73.0417 72 74.625C73.1667 76.2083 73.9583 77.25 74.375 77.75C75.3333 78.7917 76.4792 79.4167 77.8125 79.625C79.1875 79.8333 80.4792 79.5833 81.6875 78.875C83.3125 78.0417 84.3125 76.8958 84.6875 75.4375C85.1042 73.9375 84.9792 72.5833 84.3125 71.375C84.0625 70.9167 83.7708 70.4583 83.4375 70C83.1458 69.5 82.8333 69.0208 82.5 68.5625L66.3125 44.75C64.6042 42.2083 62.6875 40.1458 60.5625 38.5625C58.4792 36.9375 56 35.75 53.125 35C50.2917 34.2083 46.8958 33.8125 42.9375 33.8125C38.9792 33.8125 35.5625 34.2083 32.6875 35C29.8542 35.75 27.375 36.9375 25.25 38.5625C23.1667 40.1458 21.2708 42.2083 19.5625 44.75L3.375 68.5625C3.04167 69.0208 2.70833 69.5 2.375 70C2.08333 70.4583 1.8125 70.9167 1.5625 71.375C0.895833 72.5833 0.75 73.9375 1.125 75.4375C1.54167 76.8958 2.5625 78.0417 4.1875 78.875C5.39583 79.5833 6.66667 79.8333 8 79.625C9.375 79.4167 10.5208 78.7917 11.4375 77.75C11.8958 77.25 12.6875 76.2083 13.8125 74.625C14.9792 73.0417 16.3125 71.1875 17.8125 69.0625C19.3125 66.9375 20.8333 64.8125 22.375 62.6875C23.9167 60.5208 25.2708 58.6042 26.4375 56.9375C26.7292 56.5208 27.0833 56.3958 27.5 56.5625C27.9583 56.6875 28.1875 57 28.1875 57.5C28.1875 59.125 28.1667 61.125 28.125 63.5C28.0833 65.875 28 68.375 27.875 71C27.7917 73.625 27.6667 76.1458 27.5 78.5625C27.3333 80.9792 27.1042 83.0417 26.8125 84.75C26.6042 86.0417 26.2083 88.0625 25.625 90.8125C25.0417 93.5208 24.3542 96.625 23.5625 100.125C22.8125 103.583 22 107.125 21.125 110.75C20.2917 114.375 19.5 117.75 18.75 120.875C18 124 17.375 126.583 16.875 128.625C16.4167 130.667 16.1458 131.833 16.0625 132.125C15.4792 134.083 15.7083 135.833 16.75 137.375C17.8333 138.917 19.375 139.688 21.375 139.688C24.375 139.688 26.375 137.854 27.375 134.188C27.7917 132.646 28.3542 130.479 29.0625 127.688C29.7708 124.938 30.5417 121.896 31.375 118.562C32.2083 115.229 33.0417 111.938 33.875 108.688C34.75 105.396 35.5417 102.438 36.25 99.8125C36.9583 97.1875 37.5208 95.25 37.9375 94C38.6458 91.75 39.3333 90.1458 40 89.1875C40.6667 88.2292 41.6458 87.75 42.9375 87.75Z" fill="white"/>
</svg>
