<svg xmlns="http://www.w3.org/2000/svg" width="24" height="24"><path style="stroke:none;fill-rule:nonzero;fill:#fff;fill-opacity:1" d="M5.906 8.11c.535 0 1.024-.09 1.461-.274.438-.18.801-.434 1.059-.742.258-.309.386-.657.386-1.04 0-.37-.128-.714-.386-1.019-.258-.305-.621-.555-1.059-.73a3.676 3.676 0 0 0-1.46-.282c-.544 0-1.04.094-1.489.282-.438.18-.79.422-1.055.73-.261.305-.39.649-.39 1.02 0 .383.129.73.39 1.043.266.304.617.554 1.055.738.45.184.945.273 1.488.273Zm7.301 9.816 4.148-3.996 2.625 3.355c.297.965.512 1.832.645 2.606.145.777.238 1.414.281 1.906.043.492.067.797.067.91 0 .285.132.527.402.723.27.191.59.289.965.289.383 0 .703-.098.965-.29.265-.19.402-.421.402-.695 0-.03-.02-.308-.055-.836-.035-.523-.129-1.234-.28-2.125a28.42 28.42 0 0 0-.712-3.02l-.055-.171a21.567 21.567 0 0 0-.988-2.652 24.018 24.018 0 0 0-1.715-3.168 24.7 24.7 0 0 0-2.597-3.356 24.574 24.574 0 0 0-3.63-3.254A27.328 27.328 0 0 0 8.868 1.32a3.748 3.748 0 0 0-.672-.215 2.623 2.623 0 0 0-.656-.074H1.65c-.376 0-.7.094-.965.282-.27.187-.403.414-.403.675 0 .274.133.508.403.703.265.188.59.282.964.282h5.786A24.53 24.53 0 0 1 9.44 4.05c.63.37 1.23.761 1.809 1.172.168.109.191.242.066.394l-4.632 5.54c-.188.23-.25.456-.188.683.07.219.227.402.469.555.258.144.582.218.91.214h6.32l-3.32 4.274-.133.172-4.086 5.23c-.187.238-.23.485-.133.742.106.262.329.45.668.57.313.118.653.145 1.02.083.375-.055.664-.211.871-.47Zm-2.95-7.238 1.032-1.231a.34.34 0 0 1 .309-.14.494.494 0 0 1 .308.113l1.207 1.258Zm0 0"/></svg>