<svg width="137" height="155" viewBox="0 0 137 155" fill="none" xmlns="http://www.w3.org/2000/svg">
<path d="M103.5 27.375C105.958 27.375 108.229 26.7708 110.312 25.5625C112.396 24.3125 114.042 22.6667 115.25 20.625C116.5 18.5417 117.125 16.25 117.125 13.75C117.125 11.25 116.5 8.97917 115.25 6.9375C114.042 4.85417 112.396 3.1875 110.312 1.9375C108.229 0.6875 105.958 0.0625 103.5 0.0625C101 0.0625 98.7083 0.6875 96.625 1.9375C94.5417 3.1875 92.875 4.85417 91.625 6.9375C90.4167 8.97917 89.8125 11.25 89.8125 13.75C89.8125 16.25 90.4167 18.5417 91.625 20.625C92.875 22.6667 94.5417 24.3125 96.625 25.5625C98.7083 26.7708 101 27.375 103.5 27.375ZM79.25 115.062C81.0417 115.062 82.5417 114.438 83.75 113.188C85 111.938 85.625 110.438 85.625 108.688V78.5625C85.625 76.6458 85.0417 75.1458 83.875 74.0625L67.3125 57.5625L82.0625 42.75C82.5208 42.2917 83.0833 42.0625 83.75 42.0625C84.4583 42.0625 85.0417 42.2917 85.5 42.75L95.8125 53.125C96.3542 53.7083 97.0208 54.1667 97.8125 54.5C98.6042 54.7917 99.4167 54.9375 100.25 54.9375H130.375C132.167 54.9375 133.667 54.3125 134.875 53.0625C136.125 51.8125 136.75 50.2917 136.75 48.5C136.75 46.75 136.125 45.25 134.875 44C133.667 42.75 132.167 42.125 130.375 42.125H102.875L80.5 19.625C79.0833 18.1667 77.3958 17.0625 75.4375 16.3125C73.5208 15.5208 71.5625 15.125 69.5625 15.125H46C43.875 15.125 42.2708 15.7708 41.1875 17.0625C40.1042 18.3125 39.5833 19.8125 39.625 21.5625C39.7083 23.2708 40.4167 24.7917 41.75 26.125L52.25 36.5625L43.8125 44.8125C42.0625 46.5625 40.8958 48.625 40.3125 51C39.7292 53.3333 39.7292 55.6875 40.3125 58.0625C40.8958 60.3958 42.0625 62.4375 43.8125 64.1875L54.9375 75.1875V110.188C54.9375 111.938 55.5417 113.438 56.75 114.688C58 115.938 59.5208 116.562 61.3125 116.562C63.0625 116.562 64.5625 115.938 65.8125 114.688C67.0625 113.438 67.6875 111.938 67.6875 110.188V76.0625L72.875 81.1875V108.688C72.875 110.438 73.5 111.938 74.75 113.188C76 114.438 77.5 115.062 79.25 115.062ZM4.4375 43.6875H65V36.75H4.4375C3.47917 36.75 2.64583 37.1042 1.9375 37.8125C1.27083 38.4792 0.9375 39.2917 0.9375 40.25C0.9375 41.1667 1.27083 41.9792 1.9375 42.6875C2.64583 43.3542 3.47917 43.6875 4.4375 43.6875ZM133.125 112C134.083 112 134.896 111.667 135.562 111C136.271 110.292 136.625 109.458 136.625 108.5V48.6875H129.688V108.5C129.688 109.458 130.021 110.292 130.688 111C131.396 111.667 132.208 112 133.125 112ZM103.25 154.562C104.208 154.562 105.021 154.208 105.688 153.5C106.396 152.833 106.75 152.021 106.75 151.062C106.75 150.104 106.396 149.292 105.688 148.625C105.021 147.958 104.208 147.625 103.25 147.625C101.125 147.625 99.5208 147.354 98.4375 146.812C97.3542 146.271 95.9167 145.104 94.125 143.312L27.5625 76.6875C26.8542 75.9792 26.0208 75.625 25.0625 75.625C24.1042 75.625 23.2917 75.9792 22.625 76.6875C21.9583 77.3542 21.625 78.1667 21.625 79.125C21.625 80.0833 21.9583 80.8958 22.625 81.5625L90.1875 149.125C92.1458 151.083 94.2083 152.479 96.375 153.312C98.5417 154.146 100.833 154.562 103.25 154.562ZM119.438 151.188C120.396 151.188 121.208 150.854 121.875 150.188C122.542 149.521 122.875 148.688 122.875 147.688C122.875 146.729 122.542 145.917 121.875 145.25C121.208 144.583 120.396 144.25 119.438 144.25C117.271 144.25 115.646 143.979 114.562 143.438C113.521 142.896 112.083 141.729 110.25 139.938L43.6875 73.375C42.9792 72.625 42.1458 72.25 41.1875 72.25C40.2292 72.25 39.4167 72.6042 38.75 73.3125C38.0833 73.9792 37.75 74.7917 37.75 75.75C37.75 76.7083 38.0833 77.5208 38.75 78.1875L106.312 145.75C108.271 147.708 110.333 149.104 112.5 149.938C114.667 150.771 116.979 151.188 119.438 151.188Z" fill="white"/>
</svg>
