<svg width="149" height="112" viewBox="0 0 149 112" fill="none" xmlns="http://www.w3.org/2000/svg">
<path d="M74.875 77.8125C77.6667 77.8125 80.0208 77.4583 81.9375 76.75C83.8958 76.0417 85.6875 75.1667 87.3125 74.125C88.9792 73.0417 90.7083 72 92.5 71C94.2917 69.9583 96.4167 69.125 98.875 68.5L55.5625 23.4375C54.1458 21.9792 52.4792 21.1667 50.5625 21C48.6875 20.8333 46.9167 21.3542 45.25 22.5625L20.75 40C18.625 41.5 17.5417 43.2292 17.5 45.1875C17.5 47.1042 18.125 48.7292 19.375 50.0625C20.375 51.1875 21.7083 51.8958 23.375 52.1875C25.0833 52.4792 26.8125 52 28.5625 50.75L48.4375 36.6875L59.6875 48.25C60.3125 48.9167 60.6458 49.6875 60.6875 50.5625C60.7708 51.4375 60.3333 52.2083 59.375 52.875L36.25 68.0625C37.5833 67.9375 38.9792 67.8542 40.4375 67.8125C41.8958 67.7708 43.4583 67.7708 45.125 67.8125C48.6667 67.9792 51.625 68.5833 54 69.625C56.375 70.625 58.5417 71.7708 60.5 73.0625C62.4583 74.3125 64.5417 75.4167 66.75 76.375C68.9583 77.3333 71.6667 77.8125 74.875 77.8125ZM4.4375 94.3125H10.75C14.9167 94.3125 18.3958 93.8125 21.1875 92.8125C24.0208 91.7708 26.5208 90.5625 28.6875 89.1875C30.8958 87.8125 33.0833 86.625 35.25 85.625C37.4167 84.5833 39.9375 84.0625 42.8125 84.0625C45.7292 84.0625 48.2708 84.5833 50.4375 85.625C52.6042 86.625 54.7708 87.8125 56.9375 89.1875C59.1042 90.5625 61.5833 91.7708 64.375 92.8125C67.2083 93.8125 70.7083 94.3125 74.875 94.3125C79.0833 94.3125 82.5833 93.8125 85.375 92.8125C88.2083 91.7708 90.7083 90.5625 92.875 89.1875C95.0417 87.8125 97.2083 86.625 99.375 85.625C101.542 84.5833 104.083 84.0625 107 84.0625C109.875 84.0625 112.396 84.5833 114.562 85.625C116.729 86.625 118.896 87.8125 121.062 89.1875C123.229 90.5625 125.708 91.7708 128.5 92.8125C131.333 93.8125 134.854 94.3125 139.062 94.3125H145.375C146.375 94.3125 147.208 93.9792 147.875 93.3125C148.542 92.6458 148.875 91.8333 148.875 90.875C148.875 89.875 148.542 89.0417 147.875 88.375C147.208 87.7083 146.375 87.375 145.375 87.375H139.062C136.062 87.375 133.438 86.8542 131.188 85.8125C128.938 84.7708 126.708 83.5833 124.5 82.25C122.333 80.875 119.875 79.6875 117.125 78.6875C114.375 77.6458 111 77.125 107 77.125C102.958 77.125 99.5625 77.6458 96.8125 78.6875C94.0625 79.6875 91.5833 80.875 89.375 82.25C87.2083 83.5833 85 84.7708 82.75 85.8125C80.5 86.8542 77.875 87.375 74.875 87.375C71.875 87.375 69.25 86.8542 67 85.8125C64.75 84.7708 62.5208 83.5833 60.3125 82.25C58.1458 80.875 55.6875 79.6875 52.9375 78.6875C50.1875 77.6458 46.8125 77.125 42.8125 77.125C38.8125 77.125 35.4375 77.6458 32.6875 78.6875C29.9375 79.6875 27.4583 80.875 25.25 82.25C23.0833 83.5833 20.875 84.7708 18.625 85.8125C16.375 86.8542 13.75 87.375 10.75 87.375H4.4375C3.4375 87.375 2.60417 87.7083 1.9375 88.375C1.27083 89.0417 0.9375 89.875 0.9375 90.875C0.9375 91.8333 1.27083 92.6458 1.9375 93.3125C2.60417 93.9792 3.4375 94.3125 4.4375 94.3125ZM4.4375 111.562H10.75C14.9167 111.562 18.3958 111.042 21.1875 110C24.0208 108.958 26.5208 107.75 28.6875 106.375C30.8958 105.042 33.0833 103.854 35.25 102.812C37.4167 101.771 39.9375 101.25 42.8125 101.25C45.7292 101.25 48.2708 101.771 50.4375 102.812C52.6042 103.854 54.7708 105.042 56.9375 106.375C59.1042 107.75 61.5833 108.958 64.375 110C67.2083 111.042 70.7083 111.562 74.875 111.562C79.0833 111.562 82.5833 111.042 85.375 110C88.2083 108.958 90.7083 107.75 92.875 106.375C95.0417 105.042 97.2083 103.854 99.375 102.812C101.542 101.771 104.083 101.25 107 101.25C109.875 101.25 112.396 101.771 114.562 102.812C116.729 103.854 118.896 105.042 121.062 106.375C123.229 107.75 125.708 108.958 128.5 110C131.333 111.042 134.854 111.562 139.062 111.562H145.375C146.375 111.562 147.208 111.208 147.875 110.5C148.542 109.833 148.875 109.021 148.875 108.062C148.875 107.104 148.542 106.271 147.875 105.562C147.208 104.896 146.375 104.562 145.375 104.562H139.062C136.062 104.562 133.438 104.042 131.188 103C128.938 102 126.708 100.833 124.5 99.5C122.333 98.125 119.875 96.9167 117.125 95.875C114.375 94.8333 111 94.3125 107 94.3125C102.958 94.3125 99.5625 94.8333 96.8125 95.875C94.0625 96.9167 91.5833 98.125 89.375 99.5C87.2083 100.833 85 102 82.75 103C80.5 104.042 77.875 104.562 74.875 104.562C71.875 104.562 69.25 104.042 67 103C64.75 102 62.5208 100.833 60.3125 99.5C58.1458 98.125 55.6875 96.9167 52.9375 95.875C50.1875 94.8333 46.8125 94.3125 42.8125 94.3125C38.8125 94.3125 35.4375 94.8333 32.6875 95.875C29.9375 96.9167 27.4583 98.125 25.25 99.5C23.0833 100.833 20.875 102 18.625 103C16.375 104.042 13.75 104.562 10.75 104.562H4.4375C3.4375 104.562 2.60417 104.896 1.9375 105.562C1.27083 106.271 0.9375 107.104 0.9375 108.062C0.9375 109.021 1.27083 109.833 1.9375 110.5C2.60417 111.208 3.4375 111.562 4.4375 111.562ZM54.625 3.6875C54.625 4.64583 54.9583 5.47917 55.625 6.1875C56.3333 6.85417 57.1667 7.1875 58.125 7.1875C60.9167 7.1875 63.2708 7.52083 65.1875 8.1875C67.1042 8.85417 68.9583 10.1667 70.75 12.125C72.0417 13.5417 73.4167 14.25 74.875 14.25C76.375 14.25 77.7708 13.5417 79.0625 12.125C80.8542 10.1667 82.6875 8.85417 84.5625 8.1875C86.4792 7.52083 88.8542 7.1875 91.6875 7.1875C92.6458 7.1875 93.4583 6.85417 94.125 6.1875C94.8333 5.47917 95.1875 4.64583 95.1875 3.6875C95.1875 2.72917 94.8333 1.91667 94.125 1.25C93.4583 0.541667 92.625 0.1875 91.625 0.1875C88.1667 0.1875 85.1458 0.666667 82.5625 1.625C80.0208 2.58333 77.4583 4.22917 74.875 6.5625C72.3333 4.22917 69.7708 2.58333 67.1875 1.625C64.6458 0.666667 61.625 0.1875 58.125 0.1875C57.1667 0.1875 56.3333 0.541667 55.625 1.25C54.9583 1.91667 54.625 2.72917 54.625 3.6875ZM99.8125 52.5C102.354 52.5 104.646 51.8958 106.688 50.6875C108.771 49.4375 110.417 47.7917 111.625 45.75C112.875 43.6667 113.5 41.3542 113.5 38.8125C113.5 36.3125 112.875 34.0417 111.625 32C110.417 29.9167 108.771 28.2708 106.688 27.0625C104.646 25.8125 102.354 25.1875 99.8125 25.1875C97.3125 25.1875 95.0208 25.8125 92.9375 27.0625C90.8542 28.2708 89.2083 29.9167 88 32C86.7917 34.0417 86.1875 36.3125 86.1875 38.8125C86.1875 41.3542 86.7917 43.6667 88 45.75C89.2083 47.7917 90.8542 49.4375 92.9375 50.6875C95.0208 51.8958 97.3125 52.5 99.8125 52.5Z" fill="white"/>
</svg>
