<?xml version="1.0" encoding="UTF-8"?>
<svg xmlns="http://www.w3.org/2000/svg" xmlns:xlink="http://www.w3.org/1999/xlink" width="24" height="32.571429" viewBox="0 0 24 32.571429" version="1.1">
<g id="surface1">
<path style=" stroke:none;fill-rule:nonzero;fill:rgb(100%,100%,100%);fill-opacity:1;" d="M 11.050781 5.972656 C 11.585938 5.972656 12.070312 5.84375 12.507812 5.585938 C 12.957031 5.316406 13.308594 4.964844 13.566406 4.527344 C 13.835938 4.082031 13.96875 3.589844 13.96875 3.054688 C 13.96875 2.519531 13.835938 2.03125 13.566406 1.59375 C 13.308594 1.148438 12.957031 0.789062 12.507812 0.523438 C 12.070312 0.253906 11.585938 0.121094 11.050781 0.121094 C 10.511719 0.121094 10.023438 0.253906 9.574219 0.523438 C 9.128906 0.789062 8.773438 1.148438 8.503906 1.59375 C 8.246094 2.03125 8.117188 2.519531 8.117188 3.054688 C 8.117188 3.589844 8.246094 4.082031 8.503906 4.527344 C 8.773438 4.964844 9.128906 5.316406 9.574219 5.585938 C 10.023438 5.84375 10.511719 5.972656 11.050781 5.972656 Z M 2.007812 9.910156 L 6.363281 9.910156 C 6.460938 9.910156 6.542969 9.945312 6.617188 10.019531 C 6.6875 10.089844 6.71875 10.175781 6.710938 10.273438 L 6.292969 15.925781 C 6.222656 16.941406 6.445312 17.757812 6.964844 18.375 C 7.492188 18.992188 8.183594 19.382812 9.039062 19.554688 L 14.636719 20.730469 L 15.84375 26.730469 C 15.925781 27.144531 16.132812 27.441406 16.472656 27.628906 C 16.8125 27.816406 17.136719 27.878906 17.449219 27.816406 C 17.824219 27.746094 18.117188 27.550781 18.320312 27.226562 C 18.535156 26.90625 18.605469 26.558594 18.535156 26.183594 L 17.167969 19.285156 C 17.117188 19.019531 16.988281 18.789062 16.78125 18.601562 C 16.585938 18.414062 16.355469 18.28125 16.097656 18.199219 L 11.773438 16.847656 L 12.148438 11.625 C 12.164062 11.429688 12.25 11.300781 12.402344 11.238281 C 12.5625 11.175781 12.71875 11.207031 12.871094 11.332031 L 14.917969 13.03125 C 15.1875 13.246094 15.480469 13.351562 15.804688 13.351562 L 22.019531 13.351562 C 22.402344 13.351562 22.722656 13.21875 22.980469 12.949219 C 23.25 12.683594 23.382812 12.355469 23.382812 11.972656 C 23.382812 11.589844 23.25 11.269531 22.980469 11.007812 C 22.722656 10.742188 22.402344 10.605469 22.019531 10.605469 L 16.300781 10.605469 L 13.3125 8.117188 C 12.9375 7.804688 12.558594 7.566406 12.175781 7.40625 C 11.800781 7.238281 11.34375 7.152344 10.808594 7.152344 L 3.871094 7.152344 L 5.410156 2.035156 C 5.519531 1.660156 5.476562 1.308594 5.289062 0.976562 C 5.113281 0.636719 4.84375 0.414062 4.488281 0.308594 C 4.121094 0.199219 3.761719 0.242188 3.414062 0.429688 C 3.074219 0.605469 2.851562 0.878906 2.746094 1.246094 L 0.695312 8.128906 C 0.5625 8.585938 0.601562 8.996094 0.816406 9.363281 C 1.039062 9.726562 1.4375 9.910156 2.007812 9.910156 Z M 7.835938 31.863281 C 8.15625 31.960938 8.492188 31.933594 8.839844 31.78125 C 9.195312 31.628906 9.4375 31.351562 9.5625 30.949219 L 11.613281 24.105469 C 11.636719 24.019531 11.65625 23.925781 11.664062 23.824219 C 11.675781 23.71875 11.679688 23.613281 11.679688 23.503906 L 11.679688 21.429688 L 8.785156 20.8125 C 8.75 20.8125 8.71875 20.8125 8.691406 20.8125 C 8.664062 20.804688 8.636719 20.792969 8.613281 20.785156 L 8.90625 23.503906 L 6.910156 30.160156 C 6.804688 30.519531 6.839844 30.863281 7.019531 31.191406 C 7.207031 31.53125 7.476562 31.753906 7.835938 31.863281 Z M 7.835938 31.863281 "/>
</g>
</svg>
