<?xml version="1.0" encoding="UTF-8"?>
<svg xmlns="http://www.w3.org/2000/svg" xmlns:xlink="http://www.w3.org/1999/xlink" width="24" height="22.666667" viewBox="0 0 24 22.666667" version="1.1">
<g id="surface1">
<path style=" stroke:none;fill-rule:nonzero;fill:rgb(100%,100%,100%);fill-opacity:1;" d="M 17.75 4.636719 C 18.160156 4.636719 18.535156 4.535156 18.875 4.332031 C 19.222656 4.125 19.496094 3.851562 19.699219 3.511719 C 19.898438 3.164062 20 2.777344 20 2.355469 C 20 1.9375 19.898438 1.558594 19.699219 1.21875 C 19.496094 0.878906 19.222656 0.609375 18.875 0.40625 C 18.535156 0.199219 18.160156 0.09375 17.75 0.09375 C 17.328125 0.09375 16.941406 0.199219 16.59375 0.40625 C 16.246094 0.609375 15.972656 0.878906 15.769531 1.21875 C 15.570312 1.558594 15.46875 1.9375 15.46875 2.355469 C 15.46875 2.777344 15.570312 3.164062 15.769531 3.511719 C 15.972656 3.851562 16.246094 4.125 16.59375 4.332031 C 16.941406 4.535156 17.328125 4.636719 17.75 4.636719 Z M 12.46875 21.480469 L 14.582031 21.480469 L 14.582031 14.71875 C 14.582031 14.484375 14.515625 14.269531 14.375 14.082031 L 12.0625 10.96875 L 15 8.019531 C 15.097656 7.917969 15.210938 7.863281 15.34375 7.863281 C 15.476562 7.863281 15.589844 7.917969 15.6875 8.019531 L 18.480469 10.832031 C 18.578125 10.9375 18.691406 11.015625 18.824219 11.0625 C 18.953125 11.105469 19.089844 11.125 19.230469 11.125 C 19.527344 11.125 19.773438 11.027344 19.96875 10.832031 L 23.09375 7.707031 C 23.203125 7.597656 23.285156 7.476562 23.332031 7.34375 C 23.382812 7.210938 23.40625 7.082031 23.40625 6.957031 C 23.40625 6.644531 23.300781 6.394531 23.09375 6.207031 C 22.886719 6.015625 22.640625 5.910156 22.355469 5.894531 C 22.070312 5.882812 21.8125 5.984375 21.582031 6.207031 L 19.230469 8.5625 L 15.25 4.613281 C 14.992188 4.363281 14.726562 4.171875 14.449219 4.042969 C 14.171875 3.902344 13.828125 3.832031 13.417969 3.832031 L 8.988281 3.832031 C 8.621094 3.832031 8.308594 3.957031 8.050781 4.207031 L 5.019531 7.238281 C 4.792969 7.46875 4.683594 7.726562 4.699219 8.011719 C 4.710938 8.296875 4.816406 8.542969 5.011719 8.75 C 5.203125 8.957031 5.453125 9.0625 5.761719 9.0625 C 6.050781 9.0625 6.296875 8.953125 6.5 8.738281 L 9.300781 5.949219 L 11.15625 5.949219 C 11.234375 5.949219 11.28125 5.980469 11.300781 6.042969 C 11.328125 6.097656 11.3125 6.152344 11.25 6.207031 L 8.988281 8.480469 C 8.523438 8.945312 8.289062 9.480469 8.28125 10.082031 C 8.28125 10.679688 8.515625 11.214844 8.988281 11.6875 L 12.46875 15.15625 Z M 7.738281 11.707031 L 6.269531 13.675781 L 1.09375 13.675781 C 0.808594 13.675781 0.5625 13.777344 0.355469 13.980469 C 0.144531 14.179688 0.0429688 14.429688 0.0429688 14.730469 C 0.0429688 15.019531 0.144531 15.265625 0.355469 15.46875 C 0.5625 15.671875 0.808594 15.769531 1.09375 15.769531 L 6.792969 15.769531 C 7.097656 15.769531 7.367188 15.652344 7.605469 15.417969 L 9.457031 13.574219 L 8.28125 12.40625 C 8.058594 12.175781 7.878906 11.945312 7.738281 11.707031 Z M 22.25 18.8125 C 22.25 18.972656 22.304688 19.109375 22.417969 19.21875 C 22.535156 19.335938 22.667969 19.394531 22.8125 19.394531 C 22.980469 19.394531 23.117188 19.335938 23.230469 19.21875 C 23.347656 19.109375 23.40625 18.972656 23.40625 18.8125 L 23.40625 6.957031 L 22.25 6.957031 Z M 0.730469 7.90625 C 0.570312 7.90625 0.429688 7.960938 0.3125 8.074219 C 0.203125 8.183594 0.144531 8.316406 0.144531 8.46875 C 0.144531 8.628906 0.203125 8.765625 0.3125 8.886719 C 0.429688 9.003906 0.570312 9.0625 0.730469 9.0625 L 5.761719 9.0625 L 5.761719 7.90625 Z M 21.167969 22.1875 C 21.703125 22.1875 22.148438 22.128906 22.511719 22.011719 C 22.871094 21.890625 23.234375 21.746094 23.605469 21.574219 C 23.765625 21.503906 23.867188 21.394531 23.917969 21.25 C 23.972656 21.109375 23.972656 20.976562 23.917969 20.84375 C 23.875 20.699219 23.777344 20.585938 23.625 20.511719 C 23.472656 20.433594 23.300781 20.445312 23.113281 20.542969 C 22.816406 20.695312 22.527344 20.8125 22.25 20.894531 C 21.972656 20.984375 21.609375 21.03125 21.167969 21.03125 L 2.949219 21.03125 C 2.789062 21.03125 2.648438 21.082031 2.53125 21.1875 C 2.421875 21.296875 2.363281 21.433594 2.363281 21.59375 C 2.363281 21.746094 2.421875 21.882812 2.53125 22 C 2.640625 22.125 2.78125 22.1875 2.949219 22.1875 Z M 21.167969 22.1875 "/>
</g>
</svg>
