<svg width="20" height="19" viewBox="0 0 20 19" fill="none" xmlns="http://www.w3.org/2000/svg">
<path d="M7.78125 9.125C8.09375 9.125 8.3776 9.04948 8.63281 8.89844C8.89323 8.74219 9.09896 8.53646 9.25 8.28125C9.40625 8.02083 9.48438 7.73177 9.48438 7.41406C9.48438 7.10156 9.40625 6.81771 9.25 6.5625C9.09896 6.30208 8.89323 6.09635 8.63281 5.94531C8.3776 5.78906 8.09375 5.71094 7.78125 5.71094C7.46354 5.71094 7.17448 5.78906 6.91406 5.94531C6.65885 6.09635 6.45312 6.30208 6.29688 6.5625C6.14583 6.81771 6.07031 7.10156 6.07031 7.41406C6.07031 7.73177 6.14583 8.02083 6.29688 8.28125C6.45312 8.53646 6.65885 8.74219 6.91406 8.89844C7.17448 9.04948 7.46354 9.125 7.78125 9.125ZM8.59375 15.125C8.78646 15.0052 8.98438 14.8958 9.1875 14.7969C9.39062 14.6927 9.59896 14.6016 9.8125 14.5234V11.5547C9.8125 11.4245 9.8776 11.3594 10.0078 11.3594H11C11.2188 11.3594 11.4062 11.2812 11.5625 11.125C11.7188 10.9688 11.7969 10.7812 11.7969 10.5625V5.70312L10.2031 6.98438V9.77344H7.39844C7.04948 9.77344 6.76302 9.88281 6.53906 10.1016C6.32031 10.3203 6.21094 10.6042 6.21094 10.9531V12.4453C6.64323 12.7682 7.0625 13.151 7.46875 13.5938C7.875 14.0312 8.25 14.5417 8.59375 15.125ZM13 9.75C13.2188 9.75 13.4062 9.67448 13.5625 9.52344C13.7188 9.3724 13.7969 9.1849 13.7969 8.96094V3.72656L12.1953 5.32031V8.96094C12.1953 9.1849 12.2734 9.3724 12.4297 9.52344C12.5911 9.67448 12.7812 9.75 13 9.75ZM10.2031 7.55469H11.0859V6.80469L16.6016 1.28906C16.6849 1.20573 16.7266 1.10417 16.7266 0.984375C16.7266 0.859375 16.6849 0.755208 16.6016 0.671875C16.513 0.583333 16.4089 0.539062 16.2891 0.539062C16.1693 0.539062 16.0651 0.583333 15.9766 0.671875L10.4297 6.21094C10.2786 6.36198 10.2031 6.5625 10.2031 6.8125V7.55469ZM1.02344 12.9375C1.61198 12.9375 2.20833 13.0078 2.8125 13.1484C3.42188 13.2839 4.01302 13.526 4.58594 13.875C5.16406 14.224 5.70312 14.7109 6.20312 15.3359C6.70833 15.9661 7.15104 16.7682 7.53125 17.7422C7.60417 17.9453 7.73438 18.0651 7.92188 18.1016C8.11458 18.138 8.27865 18.0885 8.41406 17.9531C9.28906 17.0729 10.2578 16.4974 11.3203 16.2266C12.3828 15.9557 13.6406 16.026 15.0938 16.4375C15.2135 16.4688 15.3177 16.4609 15.4062 16.4141C15.5 16.3672 15.5729 16.2839 15.625 16.1641C15.9271 15.4714 16.3724 14.9505 16.9609 14.6016C17.5547 14.2474 18.2266 14.0703 18.9766 14.0703C19.1016 14.0703 19.2057 14.0286 19.2891 13.9453C19.3724 13.862 19.4141 13.7604 19.4141 13.6406C19.4141 13.5156 19.3724 13.4115 19.2891 13.3281C19.2057 13.2448 19.1016 13.2031 18.9766 13.2031C18.1484 13.2031 17.375 13.401 16.6562 13.7969C15.9375 14.1927 15.3776 14.763 14.9766 15.5078C13.5703 15.1589 12.3073 15.1172 11.1875 15.3828C10.0729 15.6484 9.0651 16.1875 8.16406 17C7.73177 16.0104 7.23438 15.1953 6.67188 14.5547C6.10938 13.9141 5.50781 13.4141 4.86719 13.0547C4.23177 12.6901 3.58333 12.4349 2.92188 12.2891C2.26562 12.1432 1.63281 12.0703 1.02344 12.0703C0.898438 12.0703 0.794271 12.1146 0.710938 12.2031C0.627604 12.2865 0.585938 12.388 0.585938 12.5078C0.585938 12.6276 0.627604 12.7292 0.710938 12.8125C0.794271 12.8958 0.898438 12.9375 1.02344 12.9375Z" fill="white"/>
</svg>
