<svg xmlns="http://www.w3.org/2000/svg" width="24" height="24"><path style="stroke:none;fill-rule:nonzero;fill:#fff;fill-opacity:1" d="M12 23.05c1.633 0 3.168-.292 4.605-.882a12.22 12.22 0 0 0 3.82-2.438 11.467 11.467 0 0 0 2.59-3.582c.626-1.363.938-2.808.938-4.347a10.2 10.2 0 0 0-.937-4.332 11.53 11.53 0 0 0-2.59-3.598 12.361 12.361 0 0 0-3.82-2.437A12.166 12.166 0 0 0 11.987.55c-1.633 0-3.172.293-4.617.883A12.307 12.307 0 0 0 3.562 3.87 11.523 11.523 0 0 0 .985 7.465 10.2 10.2 0 0 0 .047 11.8c0 1.539.312 2.984.937 4.347a11.467 11.467 0 0 0 2.59 3.582 12.236 12.236 0 0 0 3.809 2.438c1.445.59 2.984.883 4.617.883Zm0-1.874a10.222 10.222 0 0 1-7.055-2.734 9.548 9.548 0 0 1-2.133-2.989 8.83 8.83 0 0 1-.761-3.652c0-1.301.254-2.52.761-3.649A9.52 9.52 0 0 1 4.946 5.16 9.82 9.82 0 0 1 8.11 3.156c1.204-.488 2.496-.73 3.88-.73 1.382 0 2.675.242 3.878.73a9.701 9.701 0 0 1 3.176 2.004 9.432 9.432 0 0 1 2.145 2.992 8.685 8.685 0 0 1 .773 3.649c0 1.3-.258 2.52-.773 3.652a9.22 9.22 0 0 1-2.133 2.988A10.222 10.222 0 0 1 12 21.176Zm-1.09-1.899c.508 0 .762-.257.762-.78v-4.513c0-.242.105-.363.316-.363.188 0 .282.121.282.363v4.512c0 .258.074.453.222.586.149.133.336.2.563.2.5 0 .75-.262.75-.786v-7.875c0-.195.09-.297.27-.297.171 0 .257.098.257.297v3.223c0 .226.066.402.2.527.14.121.312.176.515.176.46 0 .691-.235.691-.703v-3.055c0-.988-.304-1.652-.914-1.996-.61-.348-1.55-.52-2.824-.52h-.984a2.16 2.16 0 0 1-.586-.066 2.42 2.42 0 0 1-.48-.254l-1.032-.672-.152-2.207c-.016-.226-.094-.398-.235-.508a.651.651 0 0 0-.504-.152.743.743 0 0 0-.504.207c-.117.125-.168.309-.152.55l.152 2.196c.016.238.075.43.176.586.11.152.246.285.41.399l1.7 1.168c.21.148.316.343.316.585v8.391c0 .258.074.453.223.586.148.133.336.2.562.2ZM12 7.633c.422 0 .781-.14 1.078-.418.285-.266.445-.625.445-1.004 0-.406-.148-.746-.445-1.027A1.507 1.507 0 0 0 12 4.766c-.406-.008-.8.144-1.086.418-.289.27-.445.64-.437 1.023 0 .379.144.707.433.996.297.285.66.43 1.09.43Zm0 0"/></svg>