<svg xmlns="http://www.w3.org/2000/svg" width="24" height="24"><path style="stroke:none;fill-rule:nonzero;fill:#fff;fill-opacity:1" d="M17.75 4.91c.41 0 .785-.11 1.125-.324.348-.219.621-.508.824-.867.2-.367.301-.778.301-1.227.008-.851-.422-1.644-1.125-2.062A2.068 2.068 0 0 0 17.75.098c-.422 0-.809.113-1.156.332-.703.418-1.133 1.21-1.125 2.066 0 .445.101.856.3 1.223.204.36.477.648.825.867a2.16 2.16 0 0 0 1.156.324Zm-5.281 17.832h2.113v-7.156c0-.25-.066-.477-.207-.676l-2.313-3.297L15 8.493a.457.457 0 0 1 .344-.169.45.45 0 0 1 .344.168l2.792 2.977c.094.11.211.195.344.242.13.047.266.066.406.066a.958.958 0 0 0 .739-.308l3.125-3.309c.199-.21.312-.496.312-.793 0-.332-.105-.597-.312-.797-.2-.199-.465-.316-.739-.328-.285-.012-.543.094-.773.328L19.23 9.066l-3.98-4.183a2.993 2.993 0 0 0-.8-.602c-.278-.148-.622-.222-1.032-.222h-4.43c-.367 0-.68.132-.937.394L5.02 7.664c-.227.242-.336.516-.32.82.01.301.116.563.312.782a.96.96 0 0 0 .75.332c.281 0 .55-.125.738-.348L9.3 6.3h1.856c.078 0 .125.032.145.098.027.059.011.118-.051.176L8.988 8.98c-.465.493-.699 1.06-.707 1.696 0 .633.235 1.199.707 1.699l3.48 3.672Zm-4.73-10.347-1.47 2.085H1.095a.989.989 0 0 0-.739.32c-.21.216-.312.477-.312.798 0 .304.102.566.312.78a.985.985 0 0 0 .739.317h5.699c.305 0 .574-.12.812-.37l1.852-1.954-1.176-1.234a3.939 3.939 0 0 1-.543-.742Zm14.511 7.523a.59.59 0 0 0 .168.43.533.533 0 0 0 .813 0 .58.58 0 0 0 .175-.43V7.368H22.25ZM.73 8.371c-.16 0-.3.059-.417.176a.61.61 0 0 0-.168.422c0 .168.058.312.168.441.109.121.261.188.417.184h5.032V8.37Zm20.438 15.121c.535 0 .98-.062 1.344-.187.36-.125.722-.282 1.093-.461a.564.564 0 0 0 .313-.344.583.583 0 0 0 0-.43.552.552 0 0 0-.293-.351c-.152-.082-.324-.07-.512.031a5.107 5.107 0 0 1-.863.375c-.277.094-.64.145-1.082.145H2.949c-.16 0-.3.05-.418.164a.602.602 0 0 0-.168.43c0 .16.059.304.168.429.11.133.25.2.418.2Zm0 0"/></svg>