<svg width="20" height="15" viewBox="0 0 20 15" fill="none" xmlns="http://www.w3.org/2000/svg">
<path d="M11.8047 3.57812C12.1172 3.57812 12.401 3.5026 12.6562 3.35156C12.9167 3.19531 13.1224 2.98958 13.2734 2.73438C13.4297 2.47396 13.5078 2.1875 13.5078 1.875C13.5078 1.5625 13.4297 1.27865 13.2734 1.02344C13.1224 0.768229 12.9167 0.565104 12.6562 0.414062C12.401 0.257812 12.1172 0.179688 11.8047 0.179688C11.4922 0.179688 11.2057 0.257812 10.9453 0.414062C10.6901 0.565104 10.4844 0.768229 10.3281 1.02344C10.1771 1.27865 10.1016 1.5625 10.1016 1.875C10.1016 2.1875 10.1771 2.47396 10.3281 2.73438C10.4844 2.98958 10.6901 3.19531 10.9453 3.35156C11.2057 3.5026 11.4922 3.57812 11.8047 3.57812ZM9.02344 13.2266C8.97135 13.4922 9.01302 13.7031 9.14844 13.8594C9.28385 14.0156 9.45573 14.1094 9.66406 14.1406C9.8724 14.1719 10.0677 14.1328 10.25 14.0234C10.4375 13.9193 10.5547 13.7318 10.6016 13.4609L11.4062 9.07031C11.4427 8.86719 11.401 8.67188 11.2812 8.48438C11.1615 8.29688 10.9844 8.1875 10.75 8.15625L8.10938 7.78125L9.74219 6.14844C9.82031 6.0651 9.91146 6.02344 10.0156 6.02344C10.1198 6.02344 10.2109 6.0651 10.2891 6.14844L14.8438 10.7031C14.9948 10.8542 15.1797 10.9323 15.3984 10.9375C15.6224 10.9427 15.8125 10.8646 15.9688 10.7031C16.1198 10.5417 16.1953 10.3542 16.1953 10.1406C16.2005 9.92188 16.125 9.73438 15.9688 9.57812L9.92969 3.53906C9.53906 3.14844 9.07031 2.95312 8.52344 2.95312H5.03125C4.8125 2.95312 4.625 3.03125 4.46875 3.1875L2.07812 5.58594C1.92188 5.74219 1.84375 5.92969 1.84375 6.14844C1.84375 6.36719 1.92188 6.55469 2.07812 6.71094C2.23438 6.86719 2.41927 6.94531 2.63281 6.94531C2.85156 6.94531 3.03906 6.86719 3.19531 6.71094L5.36719 4.54688H6.76562C6.84375 4.54688 6.89323 4.57292 6.91406 4.625C6.9349 4.67708 6.92188 4.72917 6.875 4.78125L4.71875 6.92969C4.45833 7.1901 4.29427 7.48177 4.22656 7.80469C4.16406 8.1224 4.1849 8.42969 4.28906 8.72656C4.39844 9.01823 4.58854 9.26042 4.85938 9.45312C5.13021 9.64062 5.47135 9.73438 5.88281 9.73438H9.65625L9.02344 13.2266ZM4.5 10.1172L4.28906 12.5312H1.03906C0.820312 12.5312 0.632812 12.6094 0.476562 12.7656C0.320312 12.9219 0.242188 13.1094 0.242188 13.3281C0.242188 13.5469 0.320312 13.7344 0.476562 13.8906C0.632812 14.0469 0.820312 14.125 1.03906 14.125H5.03125C5.23438 14.125 5.40885 14.0573 5.55469 13.9219C5.70052 13.7865 5.78906 13.6198 5.82031 13.4219L6.35156 10.4922H5.88281C5.35156 10.4922 4.89062 10.3672 4.5 10.1172ZM16.3984 14.125H18.7891C19.0547 14.125 19.2812 14.0286 19.4688 13.8359C19.6615 13.6484 19.7578 13.4193 19.7578 13.1484C19.7578 12.8828 19.6615 12.6562 19.4688 12.4688C19.2812 12.276 19.0547 12.1797 18.7891 12.1797H16.3984C16.1224 12.1797 15.888 12.276 15.6953 12.4688C15.5078 12.6562 15.4141 12.8828 15.4141 13.1484C15.4141 13.4193 15.5078 13.6484 15.6953 13.8359C15.888 14.0286 16.1224 14.125 16.3984 14.125ZM18.0312 12.6719H18.75V11.8984C18.75 11.5755 18.6406 11.3047 18.4219 11.0859C18.2031 10.862 17.9349 10.75 17.6172 10.75H16.7969C16.6927 10.75 16.6042 10.7865 16.5312 10.8594C16.4635 10.9271 16.4297 11.013 16.4297 11.1172C16.4297 11.2161 16.4635 11.3021 16.5312 11.375C16.6042 11.4427 16.6927 11.4766 16.7969 11.4766H17.6172C17.737 11.4766 17.8359 11.5182 17.9141 11.6016C17.9922 11.6797 18.0312 11.7786 18.0312 11.8984V12.6719Z" fill="white"/>
</svg>
