<svg width="18" height="15" viewBox="0 0 18 15" fill="none" xmlns="http://www.w3.org/2000/svg">
<path d="M0.96875 6.71875L3.58594 9.34375C3.76823 9.52083 3.98438 9.60938 4.23438 9.60938C4.48958 9.60417 4.70573 9.49219 4.88281 9.27344L6.53125 7.24219C6.58333 7.17969 6.64323 7.16146 6.71094 7.1875C6.77865 7.21354 6.8125 7.26562 6.8125 7.34375V10.8047L3.85938 10.4766C3.60417 10.4453 3.39583 10.5 3.23438 10.6406C3.07812 10.776 2.97656 10.9479 2.92969 11.1562C2.88281 11.3646 2.90365 11.5651 2.99219 11.7578C3.08073 11.9505 3.2474 12.0885 3.49219 12.1719L6.84375 13.2812C6.78646 13.5104 6.80729 13.7188 6.90625 13.9062C7.00521 14.099 7.14844 14.2396 7.33594 14.3281C7.52865 14.4167 7.73958 14.4219 7.96875 14.3438L9 14.0078L10.0312 14.3438C10.2604 14.4219 10.4688 14.4167 10.6562 14.3281C10.849 14.2396 10.9948 14.099 11.0938 13.9062C11.1927 13.7188 11.2135 13.5104 11.1562 13.2812L14.5156 12.1719C14.7604 12.0885 14.9245 11.9505 15.0078 11.7578C15.0964 11.5651 15.1172 11.3646 15.0703 11.1562C15.0286 10.9479 14.9271 10.776 14.7656 10.6406C14.6042 10.5 14.3958 10.4453 14.1406 10.4766L11.1875 10.8047V7.34375C11.1875 7.26562 11.2214 7.21354 11.2891 7.1875C11.3568 7.16146 11.4167 7.17969 11.4688 7.24219L13.1172 9.27344C13.2943 9.49219 13.5104 9.60417 13.7656 9.60938C14.0208 9.61458 14.237 9.52604 14.4141 9.34375L17.0312 6.71875C17.2031 6.54167 17.2891 6.33594 17.2891 6.10156C17.2891 5.86198 17.2031 5.65625 17.0312 5.48438C16.8646 5.31771 16.6589 5.23438 16.4141 5.23438C16.1745 5.23438 15.9688 5.31771 15.7969 5.48438L13.8672 7.42188L11.8984 5.00781C11.7318 4.8099 11.5312 4.65365 11.2969 4.53906C11.0625 4.41927 10.8151 4.35938 10.5547 4.35938H7.45312C7.1875 4.35938 6.9375 4.41927 6.70312 4.53906C6.46875 4.65365 6.26823 4.8099 6.10156 5.00781L4.13281 7.42188L2.20312 5.48438C2.03125 5.31771 1.82292 5.23438 1.57812 5.23438C1.33854 5.23438 1.13542 5.31771 0.96875 5.48438C0.796875 5.65625 0.710938 5.86198 0.710938 6.10156C0.710938 6.33594 0.796875 6.54167 0.96875 6.71875ZM9 3.53906C9.3125 3.53906 9.59635 3.46354 9.85156 3.3125C10.112 3.15625 10.3177 2.94792 10.4688 2.6875C10.6198 2.42708 10.6953 2.13802 10.6953 1.82031C10.6953 1.50781 10.6198 1.22396 10.4688 0.96875C10.3177 0.713542 10.112 0.510417 9.85156 0.359375C9.59635 0.203125 9.3125 0.125 9 0.125C8.68229 0.125 8.39323 0.203125 8.13281 0.359375C7.8724 0.510417 7.66406 0.713542 7.50781 0.96875C7.35677 1.22396 7.28125 1.50781 7.28125 1.82031C7.28125 2.13802 7.35677 2.42708 7.50781 2.6875C7.66406 2.94792 7.8724 3.15625 8.13281 3.3125C8.39323 3.46354 8.68229 3.53906 9 3.53906Z" fill="white"/>
</svg>
