<svg xmlns="http://www.w3.org/2000/svg" width="24" height="24"><path style="stroke:none;fill-rule:nonzero;fill:#fff;fill-opacity:1" d="M15.73 8.64c.383 0 .727-.144 1.032-.417a3 3 0 0 0 .742-1.145c.187-.48.281-1.008.281-1.586 0-.582-.094-1.11-.281-1.586-.176-.472-.434-.863-.742-1.136-.309-.29-.668-.442-1.032-.43-.375 0-.718.14-1.03.43-.31.27-.563.664-.74 1.136a4.41 4.41 0 0 0-.273 1.586c0 .578.09 1.11.274 1.586.18.477.426.856.738 1.145.313.277.656.418 1.031.418Zm-3.738 5.844c.418 0 .77-.086 1.059-.246.293-.164.562-.367.804-.61.25-.253.512-.491.778-.718.27-.242.59-.433.957-.578L9.094 1.934c-.403-.676-1.074-.762-1.547-.204L3.87 5.758c-.316.344-.48.746-.488 1.195 0 .453.094.824.281 1.125.152.258.352.418.602.492.257.067.515-.047.777-.336l2.98-3.246 1.688 2.668c.09.145.144.336.152.535a.698.698 0 0 1-.199.536L6.195 12.23c.203-.03.41-.05.63-.054.218-.012.452-.008.702.011.532.032.977.16 1.332.403.356.242.68.512.977.812.293.286.605.54.937.762.329.211.735.32 1.22.32ZM1.426 18.29h.945c.625 0 1.149-.117 1.567-.344.39-.218.769-.492 1.124-.824.333-.316.66-.594.985-.836.355-.25.742-.37 1.133-.36.437 0 .82.122 1.144.36.324.242.653.52.977.836.324.309.695.582 1.113.824.426.23.953.344 1.578.344.63 0 1.156-.117 1.574-.344.391-.218.77-.492 1.125-.824.325-.316.649-.594.973-.836.328-.238.707-.36 1.145-.36.433 0 .808.122 1.136.36.325.242.649.52.973.836.324.309.7.582 1.117.824.426.23.953.344 1.582.344h.95c.14.004.273-.078.37-.227a1.06 1.06 0 0 0 .153-.57c.004-.207-.05-.41-.149-.558-.097-.16-.234-.25-.375-.247h-.949c-.449 0-.844-.113-1.18-.347a9.76 9.76 0 0 1-1.003-.824 5.797 5.797 0 0 0-1.106-.836c-.414-.239-.918-.36-1.52-.36-.605 0-1.113.121-1.527.36-.39.226-.761.504-1.117.836-.32.308-.652.582-.992.824-.336.234-.73.348-1.18.348-.453 0-.844-.114-1.183-.348a9.76 9.76 0 0 1-1.004-.824 5.797 5.797 0 0 0-1.106-.836c-.41-.239-.918-.36-1.52-.36-.597 0-1.105.121-1.515.36a6.307 6.307 0 0 0-1.117.836c-.32.308-.652.582-.992.824a2.03 2.03 0 0 1-1.184.348h-.945c-.14-.008-.281.082-.375.246a.958.958 0 0 0-.153.558c0 .227.051.41.153.567.097.152.234.234.375.23Zm.242 4.008c.156 0 .289-.078.395-.242.105-.157.16-.371.16-.594a1.087 1.087 0 0 0-.16-.606c-.106-.164-.247-.25-.395-.242-.145-.004-.281.082-.383.242-.105.16-.164.38-.16.606 0 .234.055.426.16.594.102.16.238.246.383.242Zm1.762-.488c.144.003.285-.082.386-.239a1.06 1.06 0 0 0 .16-.597 1.047 1.047 0 0 0-.16-.594c-.101-.16-.242-.25-.386-.246-.145-.004-.29.086-.39.246a1.038 1.038 0 0 0-.161.594c0 .242.05.441.16.601.106.156.246.242.39.235Zm1.64-1.184c.149.004.29-.086.395-.246.105-.16.164-.379.16-.606 0-.222-.055-.437-.16-.59-.106-.163-.246-.25-.395-.245-.144-.004-.28.085-.383.246-.105.152-.16.367-.16.59 0 .238.055.445.16.605.106.164.235.246.383.246Zm1.774-.648c.148.003.289-.086.394-.247.102-.156.16-.367.16-.59a1.087 1.087 0 0 0-.16-.605c-.105-.164-.246-.25-.394-.246-.145-.004-.282.086-.383.246a1.078 1.078 0 0 0-.16.606c0 .23.05.425.16.59.105.16.234.246.383.246Zm1.773.648c.145.004.281-.086.383-.246.105-.16.164-.379.16-.606 0-.222-.055-.437-.16-.59-.102-.16-.238-.25-.383-.245-.144-.008-.285.078-.39.238-.102.156-.16.37-.157.597 0 .239.051.446.153.606.105.16.246.25.394.246Zm1.656 1.184c.157 0 .29-.079.395-.235.105-.156.164-.375.16-.601a1.047 1.047 0 0 0-.16-.594c-.105-.164-.246-.25-.395-.246-.144-.004-.28.086-.382.246-.106.156-.16.371-.16.594a1.09 1.09 0 0 0 .156.597c.101.157.242.242.386.239Zm1.735.488c.152 0 .281-.078.387-.242.105-.157.16-.371.16-.594a1.087 1.087 0 0 0-.16-.606c-.102-.16-.243-.25-.387-.242-.145-.008-.29.082-.39.242a1.069 1.069 0 0 0-.161.606c0 .234.05.426.16.594.102.16.242.246.39.242Zm1.726-.488c.157 0 .286-.079.383-.235.106-.156.164-.375.16-.601a1.038 1.038 0 0 0-.16-.594c-.097-.164-.238-.254-.383-.246-.144-.004-.28.086-.382.246a1.038 1.038 0 0 0-.16.594c0 .222.054.437.156.597.101.157.242.242.386.239Zm1.66-1.184c.149.004.29-.086.395-.246.106-.16.16-.379.156-.606a1.064 1.064 0 0 0-.156-.59c-.105-.16-.246-.25-.394-.245-.145-.004-.286.085-.387.246-.102.156-.16.367-.156.59 0 .238.05.445.156.605.11.164.234.246.387.246Zm1.77-.648c.145.003.285-.086.387-.247.105-.156.16-.367.16-.59a1.087 1.087 0 0 0-.16-.605c-.102-.164-.242-.254-.387-.246-.144-.004-.281.086-.383.246-.105.16-.164.38-.16.606 0 .23.055.425.16.59.106.16.235.246.383.246Zm1.773.648c.145.008.286-.082.383-.246.106-.16.164-.379.16-.606a1.025 1.025 0 0 0-.16-.59c-.097-.163-.238-.253-.383-.245-.144-.004-.28.085-.382.246a1.025 1.025 0 0 0-.16.59c0 .238.05.445.16.605.105.164.234.246.383.246Zm1.649 1.184c.144.003.285-.082.387-.239.105-.156.16-.375.16-.597a1.047 1.047 0 0 0-.16-.594c-.102-.16-.243-.25-.387-.246-.145-.008-.285.082-.39.238-.102.16-.157.379-.153.602 0 .242.05.441.152.601.106.156.246.242.39.235Zm1.746.488c.145.008.29-.078.39-.235.106-.16.165-.378.16-.601a1.118 1.118 0 0 0-.155-.606c-.106-.16-.247-.25-.395-.242-.148-.008-.289.082-.39.242-.102.16-.16.38-.153.606-.004.223.05.437.156.598.102.156.242.242.387.238Zm0 0"/></svg>