<svg xmlns="http://www.w3.org/2000/svg" width="24" height="24"><path style="stroke:none;fill-rule:nonzero;fill:#fff;fill-opacity:1" d="M11.39 5.258c.45.004.891-.09 1.278-.27.383-.187.687-.433.914-.742a1.694 1.694 0 0 0 0-2.062 2.373 2.373 0 0 0-.914-.73 2.871 2.871 0 0 0-1.277-.282c-.477 0-.91.094-1.301.281-.38.18-.7.43-.926.73a1.695 1.695 0 0 0-.34 1.024c0 .379.114.727.34 1.04.234.308.543.554.926.741.39.18.824.27 1.3.27ZM.915 23.43c.25.168.54.246.867.234.336-.012.617-.125.844-.328l4.172-3.816c.226-.215.355-.446.387-.696l.527-4.105c.008-.067.047-.114.117-.133a.187.187 0 0 1 .2.047l3.363 3.105V22.7c0 .266.117.496.351.684.242.191.531.289.867.289.329 0 .614-.098.856-.29.242-.187.363-.417.363-.687v-5.277a.748.748 0 0 0-.07-.336 1.105 1.105 0 0 0-.188-.281l-3.562-4.164 1.734-4.145c.086-.203.274-.308.563-.308h9.375c.328 0 .613-.094.855-.282.242-.187.363-.414.363-.683 0-.27-.12-.496-.363-.684a1.334 1.334 0 0 0-.855-.293H7.559a4.78 4.78 0 0 0-1.36.188c-.414.125-.82.347-1.219.668L2.672 8.96c-.258.207-.39.441-.399.703a.856.856 0 0 0 .282.668c.203.188.48.281.832.281h2.18l-.47 1.114a4.726 4.726 0 0 0-.363 1.828v4.914l-3.937 3.59c-.227.207-.328.441-.305.703.024.27.164.492.422.668ZM21.68 9.168c.5 0 .925-.145 1.277-.43.36-.289.54-.636.54-1.043 0-.398-.18-.738-.54-1.02-.332-.28-.793-.437-1.277-.433-.508 0-.942.145-1.301.434-.352.265-.547.636-.54 1.02 0 .406.18.753.54 1.042.36.285.793.43 1.3.43Zm0 0"/></svg>