<?xml version="1.0" encoding="UTF-8"?>
<svg xmlns="http://www.w3.org/2000/svg" xmlns:xlink="http://www.w3.org/1999/xlink" width="24" height="25.5" viewBox="0 0 24 25.5" version="1.1">
<g id="surface1">
<path style=" stroke:none;fill-rule:nonzero;fill:rgb(100%,100%,100%);fill-opacity:1;" d="M 12 24.492188 C 13.632812 24.492188 15.167969 24.179688 16.605469 23.554688 C 18.050781 22.929688 19.324219 22.066406 20.425781 20.964844 C 21.527344 19.863281 22.390625 18.59375 23.015625 17.15625 C 23.640625 15.710938 23.953125 14.171875 23.953125 12.539062 C 23.953125 10.90625 23.640625 9.371094 23.015625 7.933594 C 22.390625 6.488281 21.527344 5.214844 20.425781 4.113281 C 19.324219 3.011719 18.050781 2.148438 16.605469 1.523438 C 15.160156 0.898438 13.621094 0.585938 11.988281 0.585938 C 10.355469 0.585938 8.816406 0.898438 7.371094 1.523438 C 5.933594 2.148438 4.664062 3.011719 3.5625 4.113281 C 2.46875 5.214844 1.609375 6.488281 0.984375 7.933594 C 0.359375 9.371094 0.046875 10.90625 0.046875 12.539062 C 0.046875 14.171875 0.359375 15.710938 0.984375 17.15625 C 1.609375 18.59375 2.472656 19.863281 3.574219 20.964844 C 4.675781 22.066406 5.945312 22.929688 7.382812 23.554688 C 8.828125 24.179688 10.367188 24.492188 12 24.492188 Z M 14.871094 20.003906 C 14.558594 20.003906 14.328125 19.847656 14.179688 19.535156 L 12.621094 16.347656 C 12.574219 16.277344 12.535156 16.21875 12.503906 16.171875 C 12.472656 16.125 12.425781 16.0625 12.363281 15.984375 L 10.933594 14.203125 C 10.738281 13.945312 10.5625 13.667969 10.40625 13.371094 C 10.25 13.066406 10.1875 12.714844 10.21875 12.316406 L 10.335938 10.6875 C 10.351562 10.570312 10.3125 10.484375 10.21875 10.429688 C 10.125 10.375 10.027344 10.390625 9.925781 10.476562 L 9.222656 11.097656 L 9.082031 12.902344 C 9.050781 13.386719 8.8125 13.617188 8.367188 13.59375 C 8.15625 13.578125 7.992188 13.5 7.875 13.359375 C 7.765625 13.210938 7.71875 13.023438 7.734375 12.796875 L 7.875 11.15625 C 7.898438 10.929688 7.945312 10.734375 8.015625 10.570312 C 8.09375 10.40625 8.21875 10.238281 8.390625 10.066406 L 9.527344 8.976562 C 9.894531 8.617188 10.25 8.347656 10.59375 8.167969 C 10.945312 7.980469 11.3125 7.886719 11.695312 7.886719 C 12.226562 7.886719 12.636719 8.058594 12.925781 8.402344 C 13.222656 8.738281 13.355469 9.1875 13.324219 9.75 L 13.183594 11.71875 C 13.160156 12.070312 13.109375 12.390625 13.03125 12.679688 C 12.960938 12.960938 12.867188 13.292969 12.75 13.675781 L 12.679688 13.910156 L 13.570312 15.175781 C 13.625 15.253906 13.6875 15.351562 13.757812 15.46875 C 13.835938 15.578125 13.90625 15.710938 13.96875 15.867188 L 15.433594 18.820312 C 15.480469 18.921875 15.515625 19.011719 15.539062 19.089844 C 15.570312 19.167969 15.585938 19.25 15.585938 19.335938 C 15.585938 19.53125 15.515625 19.691406 15.375 19.816406 C 15.242188 19.941406 15.074219 20.003906 14.871094 20.003906 Z M 8.167969 20.015625 C 7.980469 20.015625 7.828125 19.953125 7.710938 19.828125 C 7.59375 19.703125 7.535156 19.542969 7.535156 19.347656 C 7.535156 19.222656 7.5625 19.113281 7.617188 19.019531 C 7.679688 18.917969 7.757812 18.816406 7.851562 18.714844 L 9.949219 16.230469 L 10.277344 14.601562 L 11.425781 16.03125 L 11.296875 16.523438 C 11.273438 16.648438 11.246094 16.734375 11.214844 16.78125 C 11.183594 16.828125 11.105469 16.925781 10.980469 17.074219 L 8.71875 19.757812 C 8.578125 19.929688 8.394531 20.015625 8.167969 20.015625 Z M 15.28125 12.070312 C 15.070312 12.070312 14.90625 12.050781 14.789062 12.011719 C 14.671875 11.964844 14.554688 11.886719 14.4375 11.777344 L 13.945312 11.285156 L 14.0625 9.550781 L 15.140625 10.734375 L 17.027344 10.734375 C 17.261719 10.734375 17.445312 10.796875 17.578125 10.921875 C 17.710938 11.039062 17.777344 11.199219 17.777344 11.402344 C 17.777344 11.847656 17.527344 12.070312 17.027344 12.070312 Z M 12.621094 7.171875 C 12.207031 7.171875 11.847656 7.023438 11.542969 6.726562 C 11.246094 6.421875 11.097656 6.058594 11.097656 5.636719 C 11.097656 5.214844 11.246094 4.851562 11.542969 4.546875 C 11.839844 4.242188 12.199219 4.089844 12.621094 4.089844 C 13.050781 4.089844 13.414062 4.242188 13.710938 4.546875 C 14.015625 4.84375 14.167969 5.207031 14.167969 5.636719 C 14.167969 6.050781 14.015625 6.410156 13.710938 6.714844 C 13.40625 7.019531 13.042969 7.171875 12.621094 7.171875 Z M 12.621094 7.171875 "/>
</g>
</svg>
