<?xml version="1.0" encoding="UTF-8"?>
<svg xmlns="http://www.w3.org/2000/svg" xmlns:xlink="http://www.w3.org/1999/xlink" width="24" height="30.857143" viewBox="0 0 24 30.857143" version="1.1">
<g id="surface1">
<path style=" stroke:none;fill-rule:nonzero;fill:rgb(100%,100%,100%);fill-opacity:1;" d="M 16.527344 7.230469 C 17.0625 7.230469 17.550781 7.101562 17.988281 6.84375 C 18.433594 6.585938 18.785156 6.238281 19.042969 5.800781 C 19.3125 5.351562 19.445312 4.855469 19.445312 4.3125 C 19.445312 3.777344 19.3125 3.289062 19.042969 2.851562 C 18.785156 2.40625 18.433594 2.054688 17.988281 1.792969 C 17.550781 1.535156 17.0625 1.40625 16.527344 1.40625 C 15.992188 1.40625 15.5 1.535156 15.054688 1.792969 C 14.617188 2.054688 14.261719 2.40625 13.996094 2.851562 C 13.738281 3.289062 13.605469 3.777344 13.605469 4.3125 C 13.605469 4.855469 13.738281 5.351562 13.996094 5.800781 C 14.261719 6.238281 14.617188 6.585938 15.054688 6.84375 C 15.5 7.101562 15.992188 7.230469 16.527344 7.230469 Z M 11.597656 30.804688 C 13.542969 30.804688 15.246094 30.398438 16.699219 29.585938 C 18.164062 28.773438 19.304688 27.632812 20.117188 26.167969 C 20.929688 24.714844 21.335938 23.011719 21.335938 21.066406 C 21.335938 19.53125 20.976562 18.339844 20.261719 17.492188 C 19.550781 16.632812 18.507812 16.207031 17.144531 16.207031 L 15.347656 16.207031 C 15.195312 16.207031 15.074219 16.15625 14.988281 16.058594 C 14.90625 15.960938 14.898438 15.816406 14.960938 15.628906 L 16.191406 11.894531 C 16.476562 11.035156 16.429688 10.257812 16.042969 9.5625 C 15.660156 8.855469 14.996094 8.382812 14.050781 8.144531 L 8.519531 6.75 C 8.25 6.6875 8.003906 6.679688 7.78125 6.722656 C 7.566406 6.757812 7.339844 6.847656 7.097656 6.992188 L 1.726562 10.019531 C 1.40625 10.195312 1.214844 10.480469 1.152344 10.875 C 1.089844 11.257812 1.167969 11.597656 1.394531 11.894531 C 1.605469 12.195312 1.886719 12.378906 2.238281 12.441406 C 2.585938 12.496094 2.929688 12.433594 3.269531 12.253906 L 8.195312 9.644531 L 11.074219 10.40625 C 11.363281 10.488281 11.554688 10.621094 11.652344 10.808594 C 11.757812 10.996094 11.761719 11.21875 11.664062 11.476562 L 10.152344 15.722656 C 9.917969 16.394531 9.878906 17.007812 10.03125 17.570312 C 10.183594 18.125 10.480469 18.570312 10.929688 18.910156 C 11.375 19.25 11.917969 19.417969 12.5625 19.417969 L 17.542969 19.417969 C 18.054688 19.417969 18.472656 19.566406 18.804688 19.863281 C 19.132812 20.148438 19.300781 20.550781 19.300781 21.066406 C 19.300781 22.601562 18.976562 23.949219 18.335938 25.113281 C 17.699219 26.261719 16.804688 27.160156 15.644531 27.804688 C 14.492188 28.445312 13.148438 28.769531 11.613281 28.769531 C 10.066406 28.769531 8.714844 28.445312 7.554688 27.804688 C 6.402344 27.160156 5.503906 26.261719 4.863281 25.113281 C 4.21875 23.949219 3.898438 22.601562 3.898438 21.066406 C 3.898438 20.273438 4.007812 19.527344 4.230469 18.832031 C 4.457031 18.132812 4.757812 17.496094 5.144531 16.914062 C 5.355469 16.59375 5.433594 16.300781 5.371094 16.03125 C 5.308594 15.753906 5.160156 15.550781 4.929688 15.414062 C 4.695312 15.273438 4.4375 15.230469 4.152344 15.292969 C 3.867188 15.355469 3.605469 15.558594 3.375 15.898438 C 2.910156 16.613281 2.539062 17.40625 2.261719 18.28125 C 1.996094 19.148438 1.863281 20.074219 1.863281 21.066406 C 1.863281 23.011719 2.269531 24.714844 3.082031 26.167969 C 3.894531 27.632812 5.027344 28.773438 6.480469 29.585938 C 7.945312 30.398438 9.652344 30.804688 11.597656 30.804688 Z M 21.375 30.804688 C 21.785156 30.804688 22.132812 30.660156 22.417969 30.375 C 22.707031 30.089844 22.847656 29.742188 22.847656 29.332031 C 22.847656 28.917969 22.707031 28.570312 22.417969 28.285156 C 22.132812 28 21.785156 27.855469 21.375 27.855469 C 20.964844 27.855469 20.617188 28 20.332031 28.285156 C 20.042969 28.570312 19.902344 28.917969 19.902344 29.332031 C 19.902344 29.742188 20.042969 30.089844 20.332031 30.375 C 20.617188 30.660156 20.964844 30.804688 21.375 30.804688 Z M 21.375 30.804688 "/>
</g>
</svg>
