<svg width="24" height="18" viewBox="0 0 24 18" fill="none" xmlns="http://www.w3.org/2000/svg">
<path d="M5.50781 3.90625C5.82031 3.90625 6.10417 3.83333 6.35938 3.6875C6.61458 3.53646 6.81771 3.33333 6.96875 3.07812C7.11979 2.82292 7.19531 2.53906 7.19531 2.22656C7.19531 1.91406 7.11979 1.63021 6.96875 1.375C6.81771 1.11979 6.61458 0.916667 6.35938 0.765625C6.10417 0.614583 5.82031 0.539062 5.50781 0.539062C5.19531 0.539062 4.91146 0.614583 4.65625 0.765625C4.40104 0.916667 4.19792 1.11979 4.04688 1.375C3.89583 1.63021 3.82031 1.91406 3.82031 2.22656C3.82031 2.53906 3.89583 2.82292 4.04688 3.07812C4.19792 3.33333 4.40104 3.53646 4.65625 3.6875C4.91146 3.83333 5.19531 3.90625 5.50781 3.90625ZM2.8125 17.9609C3.1875 17.9609 3.4375 17.7318 3.5625 17.2734C3.61458 17.0807 3.6849 16.8099 3.77344 16.4609C3.86198 16.1172 3.95833 15.737 4.0625 15.3203C4.16667 14.9036 4.27083 14.4922 4.375 14.0859C4.48438 13.6745 4.58333 13.3047 4.67188 12.9766C4.76042 12.6484 4.83073 12.4062 4.88281 12.25C4.97135 11.9688 5.05729 11.7682 5.14062 11.6484C5.22396 11.5286 5.34635 11.4688 5.50781 11.4688C5.66927 11.4688 5.79167 11.5286 5.875 11.6484C5.95833 11.7682 6.04427 11.9688 6.13281 12.25C6.1849 12.4062 6.25521 12.6484 6.34375 12.9766C6.43229 13.3047 6.52865 13.6745 6.63281 14.0859C6.73698 14.4922 6.84115 14.9036 6.94531 15.3203C7.05469 15.737 7.15365 16.1172 7.24219 16.4609C7.33073 16.8099 7.40104 17.0807 7.45312 17.2734C7.57812 17.7318 7.82812 17.9609 8.20312 17.9609C8.45312 17.9609 8.64323 17.8646 8.77344 17.6719C8.90885 17.4792 8.9401 17.2604 8.86719 17.0156C8.85677 16.9792 8.82031 16.8333 8.75781 16.5781C8.69531 16.3229 8.61719 16 8.52344 15.6094C8.4349 15.2188 8.33594 14.7969 8.22656 14.3438C8.1224 13.8906 8.02083 13.4479 7.92188 13.0156C7.82292 12.5781 7.73698 12.1901 7.66406 11.8516C7.59115 11.5078 7.54167 11.2552 7.51562 11.0938C7.48438 10.8802 7.45833 10.6224 7.4375 10.3203C7.41667 10.0182 7.39844 9.70312 7.38281 9.375C7.3724 9.04688 7.36458 8.73438 7.35938 8.4375C7.35417 8.13542 7.35156 7.88281 7.35156 7.67969C7.35156 7.61719 7.3776 7.57812 7.42969 7.5625C7.48177 7.54688 7.52865 7.5651 7.57031 7.61719L8.45312 8.85156C8.5 8.61198 8.6276 8.38802 8.83594 8.17969C9.04948 7.97135 9.31771 7.86458 9.64062 7.85938L8.42969 6.09375C8.21615 5.78125 7.97656 5.52344 7.71094 5.32031C7.45052 5.11719 7.14062 4.96875 6.78125 4.875C6.42708 4.77604 6.0026 4.72656 5.50781 4.72656C5.01302 4.72656 4.58594 4.77604 4.22656 4.875C3.8724 4.96875 3.5625 5.11719 3.29688 5.32031C3.03646 5.51823 2.79948 5.77604 2.58594 6.09375L0.5625 9.07031C0.520833 9.1276 0.479167 9.1875 0.4375 9.25C0.401042 9.30729 0.367188 9.36458 0.335938 9.42188C0.252604 9.57292 0.234375 9.74219 0.28125 9.92969C0.333333 10.112 0.460938 10.2552 0.664062 10.3594C0.815104 10.4479 0.973958 10.4792 1.14062 10.4531C1.3125 10.4271 1.45573 10.349 1.57031 10.2188C1.6276 10.1562 1.72656 10.026 1.86719 9.82812C2.01302 9.63021 2.17969 9.39844 2.36719 9.13281C2.55469 8.86719 2.74479 8.60156 2.9375 8.33594C3.13021 8.0651 3.29948 7.82552 3.44531 7.61719C3.48177 7.5651 3.52604 7.54948 3.57812 7.57031C3.63542 7.58594 3.66406 7.625 3.66406 7.6875C3.66406 7.89062 3.66146 8.14062 3.65625 8.4375C3.65104 8.73438 3.64062 9.04688 3.625 9.375C3.61458 9.70312 3.59896 10.0182 3.57812 10.3203C3.55729 10.6224 3.52865 10.8802 3.49219 11.0938C3.46615 11.2552 3.41667 11.5078 3.34375 11.8516C3.27083 12.1901 3.1849 12.5781 3.08594 13.0156C2.99219 13.4479 2.89062 13.8906 2.78125 14.3438C2.67708 14.7969 2.57812 15.2188 2.48438 15.6094C2.39062 16 2.3125 16.3229 2.25 16.5781C2.19271 16.8333 2.15885 16.9792 2.14844 17.0156C2.07552 17.2604 2.10417 17.4792 2.23438 17.6719C2.36979 17.8646 2.5625 17.9609 2.8125 17.9609ZM12 9.30469C12.3438 9.30469 12.638 9.18229 12.8828 8.9375C13.1328 8.69271 13.2578 8.39844 13.2578 8.05469C13.2578 7.71094 13.1328 7.41667 12.8828 7.17188C12.638 6.92708 12.3438 6.80469 12 6.80469C11.6562 6.80469 11.362 6.92708 11.1172 7.17188C10.8724 7.41667 10.75 7.71094 10.75 8.05469C10.75 8.39844 10.8724 8.69271 11.1172 8.9375C11.362 9.18229 11.6562 9.30469 12 9.30469ZM10.3438 17.9609C10.4896 17.9609 10.6198 17.9141 10.7344 17.8203C10.8542 17.7318 10.9375 17.5911 10.9844 17.3984C11.026 17.2526 11.0833 17.0339 11.1562 16.7422C11.2292 16.4557 11.3047 16.1458 11.3828 15.8125C11.4661 15.4844 11.5443 15.1823 11.6172 14.9062C11.6901 14.6302 11.7448 14.4297 11.7812 14.3047C11.8385 14.1432 11.8776 14.0469 11.8984 14.0156C11.9245 13.9792 11.9583 13.9609 12 13.9609C12.0417 13.9609 12.0729 13.9792 12.0938 14.0156C12.1198 14.0469 12.1589 14.1432 12.2109 14.3047C12.2526 14.4297 12.3073 14.6302 12.375 14.9062C12.4479 15.1823 12.526 15.4844 12.6094 15.8125C12.6927 16.1458 12.7708 16.4557 12.8438 16.7422C12.9167 17.0339 12.974 17.2526 13.0156 17.3984C13.0625 17.5911 13.1432 17.7318 13.2578 17.8203C13.3724 17.9141 13.5052 17.9609 13.6562 17.9609C13.875 17.9609 14.0417 17.875 14.1562 17.7031C14.2708 17.5312 14.3021 17.3438 14.25 17.1406C14.2448 17.1146 14.2161 16.9922 14.1641 16.7734C14.112 16.5599 14.0469 16.2943 13.9688 15.9766C13.8958 15.6641 13.8203 15.3385 13.7422 15C13.6693 14.6667 13.6016 14.3646 13.5391 14.0938C13.4818 13.8229 13.4427 13.625 13.4219 13.5C13.3958 13.3385 13.375 13.138 13.3594 12.8984C13.3438 12.6536 13.3333 12.4167 13.3281 12.1875C13.3229 11.9583 13.3203 11.7786 13.3203 11.6484C13.3203 11.5339 13.3385 11.4375 13.375 11.3594C13.4115 11.276 13.4609 11.1953 13.5234 11.1172C13.7109 10.8828 13.9036 10.6484 14.1016 10.4141C14.3047 10.1797 14.4792 9.97656 14.625 9.80469C14.7708 9.63281 14.8568 9.52344 14.8828 9.47656C14.9766 9.34115 15.0104 9.20052 14.9844 9.05469C14.9583 8.90365 14.8932 8.77344 14.7891 8.66406C14.6693 8.52865 14.5208 8.46094 14.3438 8.46094C14.1719 8.45573 14.0339 8.50781 13.9297 8.61719L13.1016 9.5C12.9297 9.6875 12.7604 9.82552 12.5938 9.91406C12.4323 9.9974 12.2344 10.0391 12 10.0391C11.7656 10.0391 11.5651 9.9974 11.3984 9.91406C11.237 9.82552 11.0703 9.6875 10.8984 9.5L10.0703 8.61719C9.96615 8.50781 9.82552 8.45573 9.64844 8.46094C9.47135 8.46094 9.32552 8.52865 9.21094 8.66406C9.10156 8.77344 9.03385 8.90365 9.00781 9.05469C8.98698 9.20052 9.02083 9.34115 9.10938 9.47656C9.14062 9.52344 9.22917 9.63281 9.375 9.80469C9.52083 9.97656 9.69271 10.1797 9.89062 10.4141C10.0938 10.6484 10.2891 10.8828 10.4766 11.1172C10.5391 11.1953 10.5859 11.276 10.6172 11.3594C10.6536 11.4375 10.6719 11.5339 10.6719 11.6484C10.6719 11.7786 10.6693 11.9583 10.6641 12.1875C10.6589 12.4167 10.6484 12.6536 10.6328 12.8984C10.6224 13.138 10.6042 13.3385 10.5781 13.5C10.5573 13.625 10.5156 13.8229 10.4531 14.0938C10.3958 14.3646 10.3281 14.6667 10.25 15C10.1719 15.3385 10.0964 15.6641 10.0234 15.9766C9.95052 16.2943 9.88802 16.5599 9.83594 16.7734C9.78385 16.9922 9.7526 17.1146 9.74219 17.1406C9.6901 17.3438 9.72135 17.5312 9.83594 17.7031C9.95052 17.875 10.1198 17.9609 10.3438 17.9609ZM18.4922 3.90625C18.8047 3.90625 19.0859 3.83333 19.3359 3.6875C19.5911 3.53646 19.7943 3.33333 19.9453 3.07812C20.0964 2.82292 20.1719 2.53906 20.1719 2.22656C20.1719 1.91406 20.0964 1.63021 19.9453 1.375C19.7943 1.11979 19.5911 0.916667 19.3359 0.765625C19.0859 0.614583 18.8047 0.539062 18.4922 0.539062C18.1797 0.539062 17.8958 0.614583 17.6406 0.765625C17.3854 0.916667 17.1823 1.11979 17.0312 1.375C16.8802 1.63021 16.8047 1.91406 16.8047 2.22656C16.8047 2.53906 16.8802 2.82292 17.0312 3.07812C17.1823 3.33333 17.3854 3.53646 17.6406 3.6875C17.8958 3.83333 18.1797 3.90625 18.4922 3.90625ZM15.7969 17.9609C16.1719 17.9609 16.4219 17.7318 16.5469 17.2734C16.599 17.0807 16.6693 16.8099 16.7578 16.4609C16.8464 16.1172 16.9427 15.737 17.0469 15.3203C17.151 14.9036 17.2552 14.4922 17.3594 14.0859C17.4688 13.6745 17.5651 13.3047 17.6484 12.9766C17.737 12.6484 17.8099 12.4062 17.8672 12.25C17.9557 11.9688 18.0417 11.7682 18.125 11.6484C18.2083 11.5286 18.3307 11.4688 18.4922 11.4688C18.6484 11.4688 18.7682 11.5286 18.8516 11.6484C18.9401 11.7682 19.0286 11.9688 19.1172 12.25C19.1693 12.4062 19.2396 12.6484 19.3281 12.9766C19.4167 13.3047 19.513 13.6745 19.6172 14.0859C19.7214 14.4922 19.8255 14.9036 19.9297 15.3203C20.0391 15.737 20.138 16.1172 20.2266 16.4609C20.3151 16.8099 20.3854 17.0807 20.4375 17.2734C20.5625 17.7318 20.8125 17.9609 21.1875 17.9609C21.4375 17.9609 21.6276 17.8646 21.7578 17.6719C21.888 17.4792 21.9193 17.2604 21.8516 17.0156C21.8411 16.9792 21.8047 16.8333 21.7422 16.5781C21.6797 16.3229 21.6016 16 21.5078 15.6094C21.4141 15.2188 21.3151 14.7969 21.2109 14.3438C21.1068 13.8906 21.0052 13.4479 20.9062 13.0156C20.8073 12.5781 20.7214 12.1901 20.6484 11.8516C20.5755 11.5078 20.526 11.2552 20.5 11.0938C20.4688 10.8802 20.4401 10.6224 20.4141 10.3203C20.3932 10.0182 20.3776 9.70312 20.3672 9.375C20.3568 9.04688 20.349 8.73438 20.3438 8.4375C20.3385 8.14062 20.3359 7.89062 20.3359 7.6875C20.3359 7.625 20.362 7.58594 20.4141 7.57031C20.4714 7.54948 20.5156 7.5651 20.5469 7.61719C20.6979 7.82552 20.8672 8.0651 21.0547 8.33594C21.2474 8.60156 21.4375 8.86719 21.625 9.13281C21.8177 9.39844 21.9844 9.63021 22.125 9.82812C22.2708 10.026 22.3698 10.1562 22.4219 10.2188C22.5365 10.349 22.6771 10.4271 22.8438 10.4531C23.0156 10.4792 23.1797 10.4479 23.3359 10.3594C23.5339 10.2552 23.6562 10.112 23.7031 9.92969C23.7552 9.74219 23.7422 9.57292 23.6641 9.42188C23.6276 9.36458 23.5885 9.30729 23.5469 9.25C23.5104 9.1875 23.4714 9.1276 23.4297 9.07031L21.4141 6.09375C21.1953 5.77604 20.9531 5.51823 20.6875 5.32031C20.4271 5.11719 20.1198 4.96875 19.7656 4.875C19.4115 4.77604 18.987 4.72656 18.4922 4.72656C17.9974 4.72656 17.5703 4.77604 17.2109 4.875C16.8568 4.96875 16.5469 5.11719 16.2812 5.32031C16.0208 5.52344 15.7839 5.78125 15.5703 6.09375L14.3516 7.85938C14.6797 7.86458 14.9479 7.97135 15.1562 8.17969C15.3698 8.38802 15.5 8.61198 15.5469 8.85156L16.4297 7.61719C16.4661 7.5651 16.5104 7.54688 16.5625 7.5625C16.6198 7.57812 16.6484 7.61719 16.6484 7.67969C16.6484 7.88281 16.6458 8.13542 16.6406 8.4375C16.6354 8.73438 16.625 9.04688 16.6094 9.375C16.599 9.70312 16.5807 10.0182 16.5547 10.3203C16.5339 10.6224 16.5078 10.8802 16.4766 11.0938C16.4505 11.2552 16.401 11.5078 16.3281 11.8516C16.2552 12.1901 16.1693 12.5781 16.0703 13.0156C15.9714 13.4479 15.8698 13.8906 15.7656 14.3438C15.6615 14.7969 15.5625 15.2188 15.4688 15.6094C15.375 16 15.2969 16.3229 15.2344 16.5781C15.1719 16.8333 15.138 16.9792 15.1328 17.0156C15.0599 17.2604 15.0885 17.4792 15.2188 17.6719C15.3542 17.8646 15.5469 17.9609 15.7969 17.9609Z" fill="white"/>
</svg>
