<?xml version="1.0" encoding="UTF-8"?>
<svg xmlns="http://www.w3.org/2000/svg" xmlns:xlink="http://www.w3.org/1999/xlink" width="24" height="15.6" viewBox="0 0 24 15.6" version="1.1">
<g id="surface1">
<path style=" stroke:none;fill-rule:nonzero;fill:rgb(100%,100%,100%);fill-opacity:1;" d="M 15.730469 5.617188 C 16.113281 5.617188 16.457031 5.523438 16.761719 5.34375 C 17.074219 5.15625 17.320312 4.910156 17.503906 4.601562 C 17.691406 4.289062 17.785156 3.945312 17.785156 3.570312 C 17.785156 3.191406 17.691406 2.847656 17.503906 2.539062 C 17.320312 2.226562 17.074219 1.980469 16.761719 1.800781 C 16.457031 1.613281 16.113281 1.519531 15.730469 1.519531 C 15.355469 1.519531 15.011719 1.613281 14.699219 1.800781 C 14.386719 1.980469 14.140625 2.226562 13.960938 2.539062 C 13.777344 2.847656 13.6875 3.191406 13.6875 3.570312 C 13.6875 3.945312 13.777344 4.289062 13.960938 4.601562 C 14.140625 4.910156 14.386719 5.15625 14.699219 5.34375 C 15.011719 5.523438 15.355469 5.617188 15.730469 5.617188 Z M 11.992188 9.414062 C 12.410156 9.414062 12.761719 9.359375 13.050781 9.253906 C 13.34375 9.148438 13.613281 9.015625 13.855469 8.859375 C 14.105469 8.695312 14.367188 8.539062 14.632812 8.390625 C 14.902344 8.234375 15.222656 8.109375 15.589844 8.015625 L 9.09375 1.257812 C 8.882812 1.039062 8.632812 0.914062 8.34375 0.890625 C 8.0625 0.867188 7.796875 0.945312 7.546875 1.125 L 3.871094 3.742188 C 3.554688 3.964844 3.390625 4.226562 3.382812 4.519531 C 3.382812 4.8125 3.476562 5.054688 3.664062 5.25 C 3.816406 5.417969 4.015625 5.523438 4.265625 5.570312 C 4.523438 5.613281 4.78125 5.539062 5.042969 5.351562 L 8.023438 3.242188 L 9.710938 4.976562 C 9.804688 5.078125 9.855469 5.195312 9.863281 5.324219 C 9.875 5.457031 9.808594 5.570312 9.664062 5.671875 L 6.195312 7.949219 C 6.398438 7.929688 6.605469 7.917969 6.824219 7.914062 C 7.042969 7.90625 7.277344 7.910156 7.527344 7.921875 C 8.058594 7.941406 8.503906 8.027344 8.859375 8.183594 C 9.214844 8.339844 9.539062 8.515625 9.835938 8.710938 C 10.128906 8.898438 10.441406 9.0625 10.773438 9.207031 C 11.101562 9.34375 11.507812 9.414062 11.992188 9.414062 Z M 1.425781 11.886719 L 2.371094 11.886719 C 2.996094 11.886719 3.519531 11.8125 3.9375 11.664062 C 4.363281 11.507812 4.738281 11.328125 5.0625 11.128906 C 5.394531 10.921875 5.722656 10.742188 6.046875 10.585938 C 6.371094 10.429688 6.75 10.351562 7.179688 10.351562 C 7.617188 10.351562 8 10.429688 8.324219 10.585938 C 8.648438 10.742188 8.976562 10.921875 9.300781 11.128906 C 9.625 11.328125 9.996094 11.507812 10.414062 11.664062 C 10.839844 11.8125 11.367188 11.886719 11.992188 11.886719 C 12.621094 11.886719 13.148438 11.8125 13.566406 11.664062 C 13.992188 11.507812 14.367188 11.328125 14.691406 11.128906 C 15.015625 10.921875 15.339844 10.742188 15.664062 10.585938 C 15.992188 10.429688 16.371094 10.351562 16.808594 10.351562 C 17.242188 10.351562 17.617188 10.429688 17.945312 10.585938 C 18.269531 10.742188 18.59375 10.921875 18.917969 11.128906 C 19.242188 11.328125 19.617188 11.507812 20.035156 11.664062 C 20.460938 11.8125 20.988281 11.886719 21.617188 11.886719 L 22.566406 11.886719 C 22.714844 11.886719 22.839844 11.835938 22.941406 11.738281 C 23.039062 11.636719 23.089844 11.515625 23.089844 11.371094 C 23.089844 11.226562 23.039062 11.105469 22.941406 11.007812 C 22.839844 10.898438 22.714844 10.847656 22.566406 10.847656 L 21.617188 10.847656 C 21.167969 10.847656 20.773438 10.773438 20.4375 10.621094 C 20.101562 10.464844 19.765625 10.289062 19.433594 10.085938 C 19.109375 9.882812 18.742188 9.699219 18.328125 9.542969 C 17.914062 9.386719 17.410156 9.308594 16.808594 9.308594 C 16.203125 9.308594 15.695312 9.386719 15.28125 9.542969 C 14.867188 9.699219 14.496094 9.882812 14.164062 10.085938 C 13.839844 10.289062 13.507812 10.464844 13.171875 10.621094 C 12.835938 10.773438 12.441406 10.847656 11.992188 10.847656 C 11.539062 10.847656 11.148438 10.773438 10.808594 10.621094 C 10.472656 10.464844 10.136719 10.289062 9.804688 10.085938 C 9.480469 9.882812 9.113281 9.699219 8.699219 9.542969 C 8.289062 9.386719 7.78125 9.308594 7.179688 9.308594 C 6.582031 9.308594 6.074219 9.386719 5.664062 9.542969 C 5.25 9.699219 4.878906 9.882812 4.546875 10.085938 C 4.222656 10.289062 3.890625 10.464844 3.554688 10.621094 C 3.214844 10.773438 2.820312 10.847656 2.371094 10.847656 L 1.425781 10.847656 C 1.273438 10.847656 1.148438 10.898438 1.050781 11.007812 C 0.949219 11.105469 0.898438 11.226562 0.898438 11.371094 C 0.898438 11.515625 0.949219 11.636719 1.050781 11.738281 C 1.148438 11.835938 1.273438 11.886719 1.425781 11.886719 Z M 1.667969 14.492188 C 1.824219 14.492188 1.957031 14.441406 2.0625 14.335938 C 2.167969 14.226562 2.222656 14.101562 2.222656 13.949219 C 2.222656 13.792969 2.167969 13.664062 2.0625 13.554688 C 1.957031 13.449219 1.824219 13.398438 1.667969 13.398438 C 1.519531 13.398438 1.390625 13.449219 1.285156 13.554688 C 1.179688 13.664062 1.125 13.792969 1.125 13.949219 C 1.125 14.101562 1.179688 14.226562 1.285156 14.335938 C 1.390625 14.441406 1.519531 14.492188 1.667969 14.492188 Z M 3.429688 14.175781 C 3.582031 14.175781 3.710938 14.125 3.816406 14.023438 C 3.921875 13.917969 3.976562 13.789062 3.976562 13.632812 C 3.976562 13.480469 3.921875 13.351562 3.816406 13.246094 C 3.710938 13.140625 3.582031 13.085938 3.429688 13.085938 C 3.273438 13.085938 3.144531 13.140625 3.039062 13.246094 C 2.929688 13.351562 2.878906 13.480469 2.878906 13.632812 C 2.878906 13.789062 2.929688 13.917969 3.039062 14.023438 C 3.144531 14.125 3.273438 14.175781 3.429688 14.175781 Z M 5.070312 13.40625 C 5.226562 13.40625 5.359375 13.351562 5.464844 13.246094 C 5.570312 13.140625 5.625 13.007812 5.625 12.851562 C 5.625 12.703125 5.570312 12.574219 5.464844 12.46875 C 5.359375 12.363281 5.226562 12.308594 5.070312 12.308594 C 4.921875 12.308594 4.792969 12.363281 4.6875 12.46875 C 4.582031 12.574219 4.527344 12.703125 4.527344 12.851562 C 4.527344 13.007812 4.582031 13.140625 4.6875 13.246094 C 4.792969 13.351562 4.921875 13.40625 5.070312 13.40625 Z M 6.84375 12.984375 C 7 12.984375 7.132812 12.929688 7.238281 12.824219 C 7.34375 12.71875 7.398438 12.589844 7.398438 12.441406 C 7.398438 12.285156 7.34375 12.152344 7.238281 12.046875 C 7.132812 11.941406 7 11.886719 6.84375 11.886719 C 6.695312 11.886719 6.566406 11.941406 6.460938 12.046875 C 6.351562 12.152344 6.300781 12.285156 6.300781 12.441406 C 6.300781 12.589844 6.351562 12.71875 6.460938 12.824219 C 6.566406 12.929688 6.695312 12.984375 6.84375 12.984375 Z M 8.617188 13.40625 C 8.765625 13.40625 8.894531 13.351562 9 13.246094 C 9.105469 13.140625 9.160156 13.007812 9.160156 12.851562 C 9.160156 12.703125 9.105469 12.574219 9 12.46875 C 8.894531 12.363281 8.765625 12.308594 8.617188 12.308594 C 8.460938 12.308594 8.328125 12.363281 8.222656 12.46875 C 8.121094 12.574219 8.070312 12.703125 8.070312 12.851562 C 8.070312 13.007812 8.121094 13.140625 8.222656 13.246094 C 8.328125 13.351562 8.460938 13.40625 8.617188 13.40625 Z M 10.273438 14.175781 C 10.429688 14.175781 10.5625 14.125 10.667969 14.023438 C 10.773438 13.917969 10.828125 13.789062 10.828125 13.632812 C 10.828125 13.480469 10.773438 13.351562 10.667969 13.246094 C 10.5625 13.140625 10.429688 13.085938 10.273438 13.085938 C 10.125 13.085938 9.996094 13.140625 9.890625 13.246094 C 9.785156 13.351562 9.730469 13.480469 9.730469 13.632812 C 9.730469 13.789062 9.785156 13.917969 9.890625 14.023438 C 9.996094 14.125 10.125 14.175781 10.273438 14.175781 Z M 12.007812 14.492188 C 12.160156 14.492188 12.289062 14.441406 12.394531 14.335938 C 12.5 14.226562 12.554688 14.101562 12.554688 13.949219 C 12.554688 13.792969 12.5 13.664062 12.394531 13.554688 C 12.289062 13.449219 12.160156 13.398438 12.007812 13.398438 C 11.851562 13.398438 11.722656 13.449219 11.617188 13.554688 C 11.507812 13.664062 11.457031 13.792969 11.457031 13.949219 C 11.457031 14.101562 11.507812 14.226562 11.617188 14.335938 C 11.722656 14.441406 11.851562 14.492188 12.007812 14.492188 Z M 13.734375 14.175781 C 13.890625 14.175781 14.019531 14.125 14.117188 14.023438 C 14.226562 13.917969 14.277344 13.789062 14.277344 13.632812 C 14.277344 13.480469 14.226562 13.351562 14.117188 13.246094 C 14.019531 13.140625 13.890625 13.085938 13.734375 13.085938 C 13.585938 13.085938 13.457031 13.140625 13.351562 13.246094 C 13.242188 13.351562 13.191406 13.480469 13.191406 13.632812 C 13.191406 13.789062 13.242188 13.917969 13.351562 14.023438 C 13.457031 14.125 13.585938 14.175781 13.734375 14.175781 Z M 15.394531 13.40625 C 15.550781 13.40625 15.679688 13.351562 15.789062 13.246094 C 15.894531 13.140625 15.945312 13.007812 15.945312 12.851562 C 15.945312 12.703125 15.894531 12.574219 15.789062 12.46875 C 15.679688 12.363281 15.550781 12.308594 15.394531 12.308594 C 15.242188 12.308594 15.117188 12.363281 15.007812 12.46875 C 14.902344 12.574219 14.851562 12.703125 14.851562 12.851562 C 14.851562 13.007812 14.902344 13.140625 15.007812 13.246094 C 15.117188 13.351562 15.242188 13.40625 15.394531 13.40625 Z M 17.164062 12.984375 C 17.320312 12.984375 17.449219 12.929688 17.550781 12.824219 C 17.65625 12.71875 17.710938 12.589844 17.710938 12.441406 C 17.710938 12.285156 17.65625 12.152344 17.550781 12.046875 C 17.449219 11.941406 17.320312 11.886719 17.164062 11.886719 C 17.015625 11.886719 16.886719 11.941406 16.78125 12.046875 C 16.675781 12.152344 16.621094 12.285156 16.621094 12.441406 C 16.621094 12.589844 16.675781 12.71875 16.78125 12.824219 C 16.886719 12.929688 17.015625 12.984375 17.164062 12.984375 Z M 18.9375 13.40625 C 19.09375 13.40625 19.222656 13.351562 19.320312 13.246094 C 19.429688 13.140625 19.480469 13.007812 19.480469 12.851562 C 19.480469 12.703125 19.429688 12.574219 19.320312 12.46875 C 19.222656 12.363281 19.09375 12.308594 18.9375 12.308594 C 18.789062 12.308594 18.660156 12.363281 18.554688 12.46875 C 18.445312 12.574219 18.394531 12.703125 18.394531 12.851562 C 18.394531 13.007812 18.445312 13.140625 18.554688 13.246094 C 18.660156 13.351562 18.789062 13.40625 18.9375 13.40625 Z M 20.585938 14.175781 C 20.738281 14.175781 20.867188 14.125 20.972656 14.023438 C 21.078125 13.917969 21.132812 13.789062 21.132812 13.632812 C 21.132812 13.480469 21.078125 13.351562 20.972656 13.246094 C 20.867188 13.140625 20.738281 13.085938 20.585938 13.085938 C 20.429688 13.085938 20.300781 13.140625 20.195312 13.246094 C 20.09375 13.351562 20.042969 13.480469 20.042969 13.632812 C 20.042969 13.789062 20.09375 13.917969 20.195312 14.023438 C 20.300781 14.125 20.429688 14.175781 20.585938 14.175781 Z M 22.332031 14.492188 C 22.488281 14.492188 22.617188 14.441406 22.726562 14.335938 C 22.832031 14.226562 22.882812 14.101562 22.882812 13.949219 C 22.882812 13.792969 22.832031 13.664062 22.726562 13.554688 C 22.617188 13.449219 22.488281 13.398438 22.332031 13.398438 C 22.179688 13.398438 22.054688 13.449219 21.945312 13.554688 C 21.839844 13.664062 21.789062 13.792969 21.789062 13.949219 C 21.789062 14.101562 21.839844 14.226562 21.945312 14.335938 C 22.054688 14.441406 22.179688 14.492188 22.332031 14.492188 Z M 22.332031 14.492188 "/>
</g>
</svg>
