<svg width="113" height="149" viewBox="0 0 113 149" fill="none" xmlns="http://www.w3.org/2000/svg">
<path d="M45.6875 27.375C48.1875 27.375 50.4583 26.7708 52.5 25.5625C54.5833 24.3125 56.2292 22.6458 57.4375 20.5625C58.6458 18.4792 59.25 16.1667 59.25 13.625C59.25 11.125 58.6458 8.85417 57.4375 6.8125C56.2292 4.72917 54.5833 3.08333 52.5 1.875C50.4583 0.666667 48.1875 0.0625 45.6875 0.0625C43.1458 0.0625 40.8333 0.666667 38.75 1.875C36.6667 3.08333 35 4.72917 33.75 6.8125C32.5417 8.85417 31.9375 11.125 31.9375 13.625C31.9375 16.1667 32.5417 18.4792 33.75 20.5625C35 22.6458 36.6667 24.3125 38.75 25.5625C40.8333 26.7708 43.1458 27.375 45.6875 27.375ZM74.3125 148.875C76.1042 148.875 77.625 148.25 78.875 147C80.125 145.75 80.75 144.25 80.75 142.5V107C80.75 106.25 80.5208 105.417 80.0625 104.5C79.6458 103.542 78.9375 102.729 77.9375 102.062L55.125 86.875V48.25C55.125 47.2083 55.6458 46.6875 56.6875 46.6875H106.25C108.042 46.6875 109.542 46.0625 110.75 44.8125C112 43.5625 112.625 42.0625 112.625 40.3125C112.625 38.5625 112 37.0625 110.75 35.8125C109.542 34.5625 108.042 33.9375 106.25 33.9375H35.75C32.75 33.9375 30.3333 34.4583 28.5 35.5C26.6667 36.5 24.9792 37.9583 23.4375 39.875L6.8125 60.3125C5.47917 61.9375 4.875 63.6875 5 65.5625C5.125 67.3958 5.75 68.9792 6.875 70.3125C8.04167 71.6042 9.5 72.25 11.25 72.25H29.625V81.0625C29.625 83.9792 30.375 86.7083 31.875 89.25C33.4167 91.75 35.5 93.7083 38.125 95.125L67.9375 111.188V142.5C67.9375 144.25 68.5625 145.75 69.8125 147C71.0625 148.25 72.5625 148.875 74.3125 148.875ZM23.125 59.875L30 51.3125V59.875H23.125ZM2.4375 146.688C3.64583 148.062 5.125 148.792 6.875 148.875C8.625 148.958 10.1875 148.417 11.5625 147.25L36.625 125.312C37.25 124.771 37.7083 124.312 38 123.938C38.3333 123.562 38.6042 123.083 38.8125 122.5L45.5 105.875L35.25 100.375C34.75 100.125 34.25 99.8333 33.75 99.5C33.2917 99.1667 32.8125 98.8333 32.3125 98.5L27.25 116.562L3.0625 137.688C1.77083 138.812 1.0625 140.271 0.9375 142.062C0.8125 143.854 1.3125 145.396 2.4375 146.688Z" fill="white"/>
</svg>
