<svg width="20" height="15" viewBox="0 0 20 15" fill="none" xmlns="http://www.w3.org/2000/svg">
<path d="M4.77344 4.10938H11.3828C11.5234 4.10938 11.638 4.0625 11.7266 3.96875C11.8203 3.875 11.8672 3.76042 11.8672 3.625C11.8672 3.48958 11.8203 3.3776 11.7266 3.28906C11.638 3.19531 11.5234 3.14844 11.3828 3.14844H4.77344C4.63281 3.14844 4.51562 3.19531 4.42188 3.28906C4.33333 3.3776 4.28906 3.48958 4.28906 3.625C4.28906 3.76042 4.33333 3.875 4.42188 3.96875C4.51562 4.0625 4.63281 4.10938 4.77344 4.10938ZM4.77344 11.5703H11.3828C11.5234 11.5703 11.638 11.526 11.7266 11.4375C11.8203 11.349 11.8672 11.237 11.8672 11.1016C11.8672 10.9609 11.8203 10.8438 11.7266 10.75C11.638 10.6562 11.5234 10.6094 11.3828 10.6094H4.77344C4.63281 10.6094 4.51562 10.6562 4.42188 10.75C4.33333 10.8438 4.28906 10.9609 4.28906 11.1016C4.28906 11.237 4.33333 11.349 4.42188 11.4375C4.51562 11.526 4.63281 11.5703 4.77344 11.5703ZM3.24219 14.5547H16.7578C17.5807 14.5547 18.1953 14.3516 18.6016 13.9453C19.0078 13.5443 19.2109 12.9427 19.2109 12.1406V2.59375C19.2109 1.79167 19.0078 1.1875 18.6016 0.78125C18.1953 0.375 17.5807 0.171875 16.7578 0.171875H3.24219C2.42448 0.171875 1.8099 0.375 1.39844 0.78125C0.992188 1.18229 0.789062 1.78646 0.789062 2.59375V12.1406C0.789062 12.9427 0.992188 13.5443 1.39844 13.9453C1.8099 14.3516 2.42448 14.5547 3.24219 14.5547ZM3.25781 13.2969C2.86719 13.2969 2.56771 13.1953 2.35938 12.9922C2.15104 12.7839 2.04688 12.4766 2.04688 12.0703V2.66406C2.04688 2.25781 2.15104 1.95052 2.35938 1.74219C2.56771 1.53385 2.86719 1.42969 3.25781 1.42969H16.7422C17.1276 1.42969 17.4245 1.53385 17.6328 1.74219C17.8464 1.95052 17.9531 2.25781 17.9531 2.66406V12.0703C17.9531 12.4766 17.8464 12.7839 17.6328 12.9922C17.4245 13.1953 17.1276 13.2969 16.7422 13.2969H3.25781ZM4.07812 9.20312H15.9297C16.2526 9.20312 16.5052 9.10938 16.6875 8.92188C16.8698 8.72917 16.9609 8.47135 16.9609 8.14844V6.5625C16.9609 6.23958 16.8698 5.98438 16.6875 5.79688C16.5052 5.60417 16.2526 5.50781 15.9297 5.50781H4.07812C3.75521 5.50781 3.5026 5.60417 3.32031 5.79688C3.13802 5.98438 3.04688 6.23958 3.04688 6.5625V8.14844C3.04688 8.47135 3.13802 8.72917 3.32031 8.92188C3.5026 9.10938 3.75521 9.20312 4.07812 9.20312ZM4.78125 7.84375C4.63542 7.84375 4.51562 7.79688 4.42188 7.70312C4.33333 7.60938 4.28906 7.49219 4.28906 7.35156C4.28906 7.22135 4.33333 7.11198 4.42188 7.02344C4.51562 6.92969 4.63542 6.88281 4.78125 6.88281H8.625C8.76562 6.88281 8.88021 6.92969 8.96875 7.02344C9.0625 7.11198 9.10938 7.22135 9.10938 7.35156C9.10938 7.49219 9.0625 7.60938 8.96875 7.70312C8.88021 7.79688 8.76562 7.84375 8.625 7.84375H4.78125Z" fill="white"/>
</svg>
