<svg width="128" height="128" viewBox="0 0 128 128" fill="none" xmlns="http://www.w3.org/2000/svg">
<path d="M63.9375 127.625C72.6458 127.625 80.8333 125.958 88.5 122.625C96.2083 119.292 103 114.688 108.875 108.812C114.75 102.938 119.354 96.1667 122.688 88.5C126.021 80.7917 127.688 72.5833 127.688 63.875C127.688 55.1667 126.021 46.9792 122.688 39.3125C119.354 31.6042 114.75 24.8125 108.875 18.9375C103 13.0625 96.2083 8.45833 88.5 5.125C80.7917 1.79167 72.5833 0.125 63.875 0.125C55.1667 0.125 46.9583 1.79167 39.25 5.125C31.5833 8.45833 24.8125 13.0625 18.9375 18.9375C13.1042 24.8125 8.52083 31.6042 5.1875 39.3125C1.85417 46.9792 0.1875 55.1667 0.1875 63.875C0.1875 72.5833 1.85417 80.7917 5.1875 88.5C8.52083 96.1667 13.125 102.938 19 108.812C24.875 114.688 31.6458 119.292 39.3125 122.625C47.0208 125.958 55.2292 127.625 63.9375 127.625ZM63.9375 117C56.5625 117 49.6667 115.625 43.25 112.875C36.8333 110.125 31.1875 106.333 26.3125 101.5C21.4792 96.625 17.6875 90.9792 14.9375 84.5625C12.2292 78.1458 10.875 71.25 10.875 63.875C10.875 56.5 12.2292 49.6042 14.9375 43.1875C17.6875 36.7708 21.4792 31.125 26.3125 26.25C31.1458 21.375 36.7708 17.5833 43.1875 14.875C49.6042 12.125 56.5 10.75 63.875 10.75C71.25 10.75 78.1458 12.125 84.5625 14.875C91.0208 17.5833 96.6667 21.375 101.5 26.25C106.375 31.125 110.188 36.7708 112.938 43.1875C115.688 49.6042 117.062 56.5 117.062 63.875C117.062 71.25 115.688 78.1458 112.938 84.5625C110.229 90.9792 106.438 96.625 101.562 101.5C96.6875 106.333 91.0417 110.125 84.625 112.875C78.2083 115.625 71.3125 117 63.9375 117ZM34.5 91.6875H93.4375C95.3125 91.6875 96.7917 91.1458 97.875 90.0625C99 88.9792 99.5625 87.5208 99.5625 85.6875V42.125C99.5625 40.2917 99 38.8333 97.875 37.75C96.7917 36.6667 95.3125 36.125 93.4375 36.125H34.5C32.625 36.125 31.125 36.6667 30 37.75C28.9167 38.8333 28.375 40.2917 28.375 42.125V85.6875C28.375 87.5208 28.9167 88.9792 30 90.0625C31.125 91.1458 32.625 91.6875 34.5 91.6875ZM35.1875 86.5625C33.8958 86.5625 33.25 85.9167 33.25 84.625V80.5C33.25 79.25 33.8542 78.625 35.0625 78.625H39.875C41.0417 78.625 41.625 79.25 41.625 80.5V84.75C41.625 85.9583 41.0417 86.5625 39.875 86.5625H35.1875ZM35.0625 73.8125C33.8542 73.8125 33.25 73.2292 33.25 72.0625V67.875C33.25 66.6667 33.8542 66.0625 35.0625 66.0625H39.875C41.0417 66.0625 41.625 66.6667 41.625 67.875V72.0625C41.625 73.2292 41.0417 73.8125 39.875 73.8125H35.0625ZM35.0625 61.375C33.8542 61.375 33.25 60.8125 33.25 59.6875V55.375C33.25 54.1667 33.8542 53.5625 35.0625 53.5625H39.875C41.0417 53.5625 41.625 54.1667 41.625 55.375V59.6875C41.625 60.8125 41.0417 61.375 39.875 61.375H35.0625ZM35.0625 49C33.8542 49 33.25 48.4167 33.25 47.25V43.125C33.25 41.8333 33.8542 41.1875 35.0625 41.1875H39.875C41.0417 41.1875 41.625 41.8333 41.625 43.125V47.25C41.625 48.4167 41.0417 49 39.875 49H35.0625ZM88 86.5625C86.8333 86.5625 86.25 85.9583 86.25 84.75V80.5C86.25 79.25 86.8333 78.625 88 78.625H92.8125C94.0208 78.625 94.625 79.25 94.625 80.5V84.625C94.625 85.9167 93.9792 86.5625 92.6875 86.5625H88ZM88 73.8125C86.8333 73.8125 86.25 73.2292 86.25 72.0625V67.875C86.25 66.6667 86.8333 66.0625 88 66.0625H92.8125C94.0208 66.0625 94.625 66.6667 94.625 67.875V72.0625C94.625 73.2292 94.0208 73.8125 92.8125 73.8125H88ZM88 61.375C86.8333 61.375 86.25 60.8125 86.25 59.6875V55.375C86.25 54.1667 86.8333 53.5625 88 53.5625H92.8125C94.0208 53.5625 94.625 54.1667 94.625 55.375V59.6875C94.625 60.8125 94.0208 61.375 92.8125 61.375H88ZM88 49C86.8333 49 86.25 48.4167 86.25 47.25V43.125C86.25 41.8333 86.8333 41.1875 88 41.1875H92.8125C94.0208 41.1875 94.625 41.8333 94.625 43.125V47.25C94.625 48.4167 94.0208 49 92.8125 49H88ZM50.875 67.3125C49.9167 67.3125 49.1042 67 48.4375 66.375C47.8125 65.7083 47.5 64.8958 47.5 63.9375C47.5 62.9375 47.8125 62.125 48.4375 61.5C49.1042 60.8333 49.9167 60.5 50.875 60.5H77C77.9583 60.5 78.75 60.8333 79.375 61.5C80.0417 62.125 80.375 62.9375 80.375 63.9375C80.375 64.8958 80.0417 65.7083 79.375 66.375C78.75 67 77.9583 67.3125 77 67.3125H50.875Z" fill="white"/>
</svg>
