<?xml version="1.0" encoding="UTF-8"?>
<svg xmlns="http://www.w3.org/2000/svg" xmlns:xlink="http://www.w3.org/1999/xlink" width="24" height="29.142857" viewBox="0 0 24 29.142857" version="1.1">
<g id="surface1">
<path style=" stroke:none;fill-rule:nonzero;fill:rgb(100%,100%,100%);fill-opacity:1;" d="M 13.285156 8.238281 C 13.285156 7.933594 13.402344 7.742188 13.632812 7.660156 C 13.867188 7.582031 14.09375 7.613281 14.316406 7.753906 L 17.71875 10.070312 C 17.933594 10.214844 18.039062 10.398438 18.039062 10.621094 C 18.039062 10.84375 17.945312 11.019531 17.757812 11.144531 L 14.332031 13.472656 C 14.105469 13.617188 13.875 13.644531 13.632812 13.554688 C 13.402344 13.464844 13.285156 13.269531 13.285156 12.964844 L 13.285156 11.503906 L 6.523438 11.503906 C 6.273438 11.503906 6.058594 11.417969 5.878906 11.25 C 5.699219 11.070312 5.613281 10.855469 5.613281 10.605469 C 5.613281 10.355469 5.699219 10.144531 5.878906 9.964844 C 6.058594 9.785156 6.273438 9.695312 6.523438 9.695312 L 13.285156 9.695312 Z M 5.90625 18.199219 C 5.710938 18.066406 5.613281 17.886719 5.613281 17.664062 C 5.621094 17.441406 5.726562 17.257812 5.933594 17.117188 L 9.347656 14.800781 C 9.5625 14.65625 9.785156 14.628906 10.019531 14.71875 C 10.257812 14.800781 10.378906 14.988281 10.378906 15.28125 L 10.378906 16.753906 L 17.144531 16.753906 C 17.394531 16.753906 17.601562 16.84375 17.773438 17.023438 C 17.949219 17.199219 18.039062 17.414062 18.039062 17.664062 C 18.039062 17.90625 17.949219 18.117188 17.773438 18.292969 C 17.601562 18.472656 17.394531 18.5625 17.144531 18.5625 L 10.378906 18.5625 L 10.378906 20.023438 C 10.378906 20.324219 10.257812 20.523438 10.019531 20.613281 C 9.785156 20.699219 9.558594 20.675781 9.335938 20.53125 Z M 12 27.855469 C 12.105469 27.855469 12.238281 27.835938 12.386719 27.789062 C 12.550781 27.753906 12.714844 27.691406 12.882812 27.601562 C 14.792969 26.601562 16.394531 25.699219 17.679688 24.898438 C 18.972656 24.09375 20.003906 23.300781 20.773438 22.511719 C 21.550781 21.726562 22.105469 20.882812 22.445312 19.980469 C 22.785156 19.070312 22.957031 18.011719 22.957031 16.808594 L 22.957031 6.710938 C 22.957031 6.023438 22.808594 5.527344 22.511719 5.222656 C 22.226562 4.917969 21.804688 4.652344 21.242188 4.417969 C 20.929688 4.285156 20.5 4.117188 19.957031 3.910156 C 19.410156 3.707031 18.808594 3.480469 18.148438 3.242188 C 17.496094 3 16.839844 2.757812 16.179688 2.519531 C 15.527344 2.277344 14.929688 2.0625 14.382812 1.875 C 13.847656 1.679688 13.425781 1.527344 13.113281 1.417969 C 12.933594 1.367188 12.75 1.320312 12.5625 1.285156 C 12.375 1.25 12.1875 1.230469 12 1.230469 C 11.8125 1.230469 11.625 1.25 11.4375 1.285156 C 11.257812 1.320312 11.082031 1.367188 10.902344 1.417969 C 10.589844 1.527344 10.160156 1.679688 9.617188 1.875 C 9.070312 2.0625 8.46875 2.277344 7.808594 2.519531 C 7.15625 2.75 6.5 2.992188 5.839844 3.242188 C 5.1875 3.480469 4.589844 3.710938 4.042969 3.925781 C 3.5 4.128906 3.070312 4.292969 2.757812 4.417969 C 2.207031 4.644531 1.78125 4.910156 1.488281 5.222656 C 1.191406 5.527344 1.042969 6.023438 1.042969 6.710938 L 1.042969 16.808594 C 1.042969 18.011719 1.21875 19.0625 1.566406 19.957031 C 1.925781 20.839844 2.492188 21.664062 3.269531 22.433594 C 4.054688 23.191406 5.089844 23.976562 6.375 24.789062 C 7.667969 25.601562 9.25 26.539062 11.117188 27.601562 C 11.285156 27.691406 11.445312 27.753906 11.597656 27.789062 C 11.757812 27.835938 11.894531 27.855469 12 27.855469 Z M 12 27.855469 "/>
</g>
</svg>
