<svg width="18" height="17" viewBox="0 0 18 17" fill="none" xmlns="http://www.w3.org/2000/svg">
<path d="M0.898438 3.89844H17.1016C17.3464 3.89844 17.5443 3.82292 17.6953 3.67188C17.8516 3.51562 17.9297 3.3125 17.9297 3.0625V1.32812C17.9297 1.08854 17.8516 0.893229 17.6953 0.742188C17.5443 0.585938 17.3464 0.507812 17.1016 0.507812H0.898438C0.653646 0.507812 0.453125 0.585938 0.296875 0.742188C0.145833 0.893229 0.0703125 1.08854 0.0703125 1.32812V3.0625C0.0703125 3.3125 0.145833 3.51562 0.296875 3.67188C0.453125 3.82292 0.653646 3.89844 0.898438 3.89844ZM1.86719 15.5234H16.1328V4.80469H1.86719V15.5234ZM4.45312 14.9219V7.36719C4.45312 7.02865 4.55208 6.76302 4.75 6.57031C4.94792 6.3724 5.21354 6.27344 5.54688 6.27344H12.4531C12.7865 6.27344 13.0521 6.3724 13.25 6.57031C13.4479 6.76302 13.5469 7.02865 13.5469 7.36719V14.9219H12.5625V7.64844C12.5625 7.38281 12.4323 7.25 12.1719 7.25H5.82812C5.56771 7.25 5.4375 7.38281 5.4375 7.64844V14.9219H4.45312ZM8.91406 14.125C8.3151 14.125 7.83333 13.9661 7.46875 13.6484C7.10417 13.3307 6.92188 12.9089 6.92188 12.3828C6.92188 12.0807 6.95573 11.8307 7.02344 11.6328C7.09635 11.4297 7.16927 11.2422 7.24219 11.0703C7.3151 10.8984 7.35156 10.7057 7.35156 10.4922C7.35156 10.4453 7.34896 10.3932 7.34375 10.3359C7.34375 10.2786 7.34375 10.2344 7.34375 10.2031C7.34375 10.099 7.39583 10.0469 7.5 10.0469C7.61458 10.0469 7.73177 10.0911 7.85156 10.1797C7.97656 10.2682 8.07552 10.3828 8.14844 10.5234C8.16406 10.2161 8.11198 9.94531 7.99219 9.71094C7.8724 9.47135 7.73177 9.25 7.57031 9.04688C7.48177 8.93229 7.46615 8.83073 7.52344 8.74219C7.58594 8.65365 7.70312 8.60938 7.875 8.60938C8.21354 8.60938 8.57292 8.67188 8.95312 8.79688C9.33333 8.92188 9.6901 9.11458 10.0234 9.375C10.362 9.63542 10.6354 9.97135 10.8438 10.3828C11.0573 10.7891 11.1641 11.2786 11.1641 11.8516C11.1641 12.5339 10.9583 13.0833 10.5469 13.5C10.1406 13.9167 9.59635 14.125 8.91406 14.125ZM8.99219 13.4062C9.29427 13.4062 9.51823 13.3125 9.66406 13.125C9.8099 12.9375 9.88281 12.7161 9.88281 12.4609C9.88281 12.1432 9.78906 11.8646 9.60156 11.625C9.41406 11.3802 9.21615 11.2188 9.00781 11.1406C9.04948 11.3698 9.05208 11.5703 9.01562 11.7422C8.97917 11.9141 8.92708 12.0547 8.85938 12.1641C8.78125 11.9766 8.6849 11.8438 8.57031 11.7656C8.54427 11.9271 8.47396 12.0677 8.35938 12.1875C8.25 12.3021 8.19531 12.4688 8.19531 12.6875C8.19531 12.9062 8.26823 13.0807 8.41406 13.2109C8.5599 13.3411 8.7526 13.4062 8.99219 13.4062ZM0.726562 16.1797H17.2734C17.4453 16.1797 17.5938 16.1172 17.7188 15.9922C17.8438 15.8672 17.9062 15.7188 17.9062 15.5469C17.9062 15.375 17.8438 15.2266 17.7188 15.1016C17.5938 14.9818 17.4453 14.9219 17.2734 14.9219H0.726562C0.554688 14.9219 0.40625 14.9818 0.28125 15.1016C0.15625 15.2266 0.09375 15.375 0.09375 15.5469C0.09375 15.7188 0.15625 15.8672 0.28125 15.9922C0.40625 16.1172 0.554688 16.1797 0.726562 16.1797Z" fill="white"/>
</svg>
