<svg width="128" height="128" viewBox="0 0 128 128" fill="none" xmlns="http://www.w3.org/2000/svg">
<path d="M63.9375 127.625C72.6458 127.625 80.8333 125.958 88.5 122.625C96.2083 119.292 103 114.688 108.875 108.812C114.75 102.938 119.354 96.1667 122.688 88.5C126.021 80.7917 127.688 72.5833 127.688 63.875C127.688 55.1667 126.021 46.9792 122.688 39.3125C119.354 31.6042 114.75 24.8125 108.875 18.9375C103 13.0625 96.2083 8.45833 88.5 5.125C80.7917 1.79167 72.5833 0.125 63.875 0.125C55.1667 0.125 46.9583 1.79167 39.25 5.125C31.5833 8.45833 24.8125 13.0625 18.9375 18.9375C13.1042 24.8125 8.52083 31.6042 5.1875 39.3125C1.85417 46.9792 0.1875 55.1667 0.1875 63.875C0.1875 72.5833 1.85417 80.7917 5.1875 88.5C8.52083 96.1667 13.125 102.938 19 108.812C24.875 114.688 31.6458 119.292 39.3125 122.625C47.0208 125.958 55.2292 127.625 63.9375 127.625ZM63.9375 117C56.5625 117 49.6667 115.625 43.25 112.875C36.8333 110.125 31.1875 106.333 26.3125 101.5C21.4792 96.625 17.6875 90.9792 14.9375 84.5625C12.2292 78.1458 10.875 71.25 10.875 63.875C10.875 56.5 12.2292 49.6042 14.9375 43.1875C17.6875 36.7708 21.4792 31.125 26.3125 26.25C31.1458 21.375 36.7708 17.5833 43.1875 14.875C49.6042 12.125 56.5 10.75 63.875 10.75C71.25 10.75 78.1458 12.125 84.5625 14.875C91.0208 17.5833 96.6667 21.375 101.5 26.25C106.375 31.125 110.188 36.7708 112.938 43.1875C115.688 49.6042 117.062 56.5 117.062 63.875C117.062 71.25 115.688 78.1458 112.938 84.5625C110.229 90.9792 106.438 96.625 101.562 101.5C96.6875 106.333 91.0417 110.125 84.625 112.875C78.2083 115.625 71.3125 117 63.9375 117ZM77.75 89.9375C78.4167 89.6042 78.8333 89.0833 79 88.375C79.2083 87.625 79.125 86.9375 78.75 86.3125L51.8125 39.6875C51.1875 38.6042 50.4375 37.8958 49.5625 37.5625C48.6875 37.1875 47.75 37 46.75 37C45.875 37 44.9375 37.2083 43.9375 37.625C42.9375 38.0417 41.9583 38.5208 41 39.0625C38.8333 40.3125 37.0208 41.7083 35.5625 43.25C34.1458 44.7917 32.7292 46.3125 31.3125 47.8125C29.9375 49.3125 28.25 50.625 26.25 51.75C24.9583 52.5 23.7708 53.0833 22.6875 53.5C21.6042 53.875 20.7708 54.2292 20.1875 54.5625C19.3958 55.0208 18.8333 55.6458 18.5 56.4375C18.1667 57.2292 18.25 58.0833 18.75 59L28.8125 76.375C29.8958 78.25 31.4583 79.1875 33.5 79.1875C34.625 79.1875 35.7083 78.9792 36.75 78.5625C37.8333 78.1042 38.8125 77.5833 39.6875 77C41.8958 75.75 43.7292 74.3542 45.1875 72.8125C46.6458 71.2708 48.0625 69.75 49.4375 68.25C50.8542 66.75 52.5417 65.4375 54.5 64.3125C55.3333 63.8125 56.1042 63.4167 56.8125 63.125C57.5625 62.8333 58.2292 62.5625 58.8125 62.3125L74.1875 88.9375C74.5625 89.6042 75.0833 90.0417 75.75 90.25C76.4583 90.4167 77.125 90.3125 77.75 89.9375ZM94.1875 79.1875C96.1875 79.1875 97.7292 78.25 98.8125 76.375L108.938 59C109.438 58.125 109.521 57.2917 109.188 56.5C108.854 55.6667 108.292 55.0208 107.5 54.5625C106.917 54.2292 106.083 53.875 105 53.5C103.917 53.0833 102.729 52.5 101.438 51.75C99.4375 50.625 97.7292 49.3333 96.3125 47.875C94.9375 46.375 93.5208 44.8542 92.0625 43.3125C90.6042 41.7292 88.8125 40.3125 86.6875 39.0625C85.7292 38.5208 84.7292 38.0417 83.6875 37.625C82.6875 37.2083 81.75 37 80.875 37C79.9167 37 79 37.1875 78.125 37.5625C77.25 37.8958 76.5 38.625 75.875 39.75L66.4375 56.0625L70.4375 62.9375C72.8125 63.8542 74.9167 65.2083 76.75 67C78.625 68.75 80.4375 70.5625 82.1875 72.4375C83.9375 74.3125 85.875 75.8333 88 77C88.875 77.5833 89.8333 78.1042 90.875 78.5625C91.9583 78.9792 93.0625 79.1875 94.1875 79.1875ZM49.9375 89.9375C50.5208 90.3542 51.1458 90.4583 51.8125 90.25C52.5208 90.0417 53.0833 89.6042 53.5 88.9375L61.3125 75.375L58.25 70.1875L48.9375 86.3125C48.5625 86.9375 48.4583 87.625 48.625 88.375C48.7917 89.0833 49.2292 89.6042 49.9375 89.9375Z" fill="white"/>
</svg>
