<svg width="15" height="18" viewBox="0 0 15 18" fill="none" xmlns="http://www.w3.org/2000/svg">
<path d="M1.05469 17.0312C1.22135 17.0312 1.36198 16.974 1.47656 16.8594C1.59115 16.7448 1.64844 16.6068 1.64844 16.4453V12.1016C1.7474 12.0599 1.97396 11.9896 2.32812 11.8906C2.6875 11.7865 3.15365 11.7344 3.72656 11.7344C4.41927 11.7344 5.05729 11.7995 5.64062 11.9297C6.22917 12.0599 6.79688 12.2135 7.34375 12.3906C7.89062 12.5677 8.44531 12.7292 9.00781 12.875C9.57552 13.0208 10.1875 13.1094 10.8438 13.1406L9.4375 11.7266C8.97396 11.638 8.52083 11.5286 8.07812 11.3984C7.64062 11.2682 7.19531 11.1406 6.74219 11.0156C6.28906 10.8854 5.8151 10.776 5.32031 10.6875C4.82552 10.599 4.29427 10.5547 3.72656 10.5547C3.29948 10.5547 2.90104 10.5807 2.53125 10.6328C2.16146 10.6797 1.86719 10.7474 1.64844 10.8359V4.03125L0.5625 2.94531C0.494792 3.0651 0.460938 3.22656 0.460938 3.42969V16.4453C0.460938 16.6016 0.518229 16.737 0.632812 16.8516C0.752604 16.9714 0.893229 17.0312 1.05469 17.0312ZM14.1797 12.0469C14.237 11.9635 14.276 11.8698 14.2969 11.7656C14.3229 11.6562 14.3359 11.5286 14.3359 11.3828V3.45312C14.3359 3.23958 14.2578 3.07552 14.1016 2.96094C13.9453 2.84635 13.7526 2.78906 13.5234 2.78906C13.3307 2.78906 13.0417 2.84375 12.6562 2.95312C12.276 3.0625 11.75 3.11719 11.0781 3.11719C10.4062 3.11719 9.77604 3.04948 9.1875 2.91406C8.60417 2.77344 8.03125 2.61198 7.46875 2.42969C6.90625 2.24219 6.32292 2.07812 5.71875 1.9375C5.11458 1.79167 4.45833 1.71354 3.75 1.70312L5.07812 3.03125C5.58854 3.11458 6.07812 3.22656 6.54688 3.36719C7.02083 3.5026 7.49479 3.64323 7.96875 3.78906C8.44271 3.92969 8.93229 4.04948 9.4375 4.14844C9.94792 4.2474 10.4948 4.29688 11.0781 4.29688C11.5052 4.29688 11.8932 4.27344 12.2422 4.22656C12.5911 4.17969 12.8958 4.11979 13.1562 4.04688V11.0156L14.1797 12.0469ZM13.8125 14.7891C13.9323 14.9036 14.0755 14.9609 14.2422 14.9609C14.4089 14.9609 14.5495 14.9036 14.6641 14.7891C14.7786 14.6693 14.8359 14.526 14.8359 14.3594C14.8411 14.1927 14.7839 14.0521 14.6641 13.9375L1.09375 0.367188C0.973958 0.252604 0.830729 0.195312 0.664062 0.195312C0.497396 0.190104 0.354167 0.247396 0.234375 0.367188C0.119792 0.481771 0.0625 0.625 0.0625 0.796875C0.0625 0.963542 0.119792 1.10417 0.234375 1.21875L13.8125 14.7891Z" fill="white"/>
</svg>
