<svg width="128" height="128" viewBox="0 0 128 128" fill="none" xmlns="http://www.w3.org/2000/svg">
<path d="M63.9375 127.625C72.6458 127.625 80.8333 125.958 88.5 122.625C96.2083 119.292 103 114.688 108.875 108.812C114.75 102.938 119.354 96.1667 122.688 88.5C126.021 80.7917 127.688 72.5833 127.688 63.875C127.688 55.1667 126.021 46.9792 122.688 39.3125C119.354 31.6042 114.75 24.8125 108.875 18.9375C103 13.0625 96.2083 8.45833 88.5 5.125C80.7917 1.79167 72.5833 0.125 63.875 0.125C55.1667 0.125 46.9583 1.79167 39.25 5.125C31.5833 8.45833 24.8125 13.0625 18.9375 18.9375C13.1042 24.8125 8.52083 31.6042 5.1875 39.3125C1.85417 46.9792 0.1875 55.1667 0.1875 63.875C0.1875 72.5833 1.85417 80.7917 5.1875 88.5C8.52083 96.1667 13.125 102.938 19 108.812C24.875 114.688 31.6458 119.292 39.3125 122.625C47.0208 125.958 55.2292 127.625 63.9375 127.625ZM78.1875 90.75C77.5208 91.125 76.8333 91.2292 76.125 91.0625C75.4167 90.8542 74.875 90.3958 74.5 89.6875L58.625 62.3125C58 62.5625 57.3125 62.8333 56.5625 63.125C55.8125 63.4167 55.0208 63.8333 54.1875 64.375C52.1458 65.5 50.3958 66.8333 48.9375 68.375C47.5208 69.9167 46.0417 71.5 44.5 73.125C43 74.7083 41.125 76.1458 38.875 77.4375C37.9583 78.0208 36.9583 78.5417 35.875 79C34.7917 79.4583 33.6667 79.6875 32.5 79.6875C30.4167 79.6875 28.8333 78.7083 27.75 76.75L17.375 58.875C16.7917 57.9583 16.6875 57.0833 17.0625 56.25C17.4375 55.375 18.0417 54.7083 18.875 54.25C19.4167 53.9167 20.2292 53.5625 21.3125 53.1875C22.4375 52.7708 23.6875 52.1667 25.0625 51.375C27.1042 50.2083 28.8333 48.8542 30.25 47.3125C31.7083 45.7708 33.1875 44.2083 34.6875 42.625C36.1875 41.0417 38.0625 39.6042 40.3125 38.3125C41.2708 37.7292 42.2708 37.2292 43.3125 36.8125C44.3542 36.3958 45.3125 36.1875 46.1875 36.1875C47.1875 36.1875 48.1458 36.375 49.0625 36.75C49.9792 37.0833 50.7708 37.8125 51.4375 38.9375L79.1875 87C79.5625 87.6667 79.6458 88.375 79.4375 89.125C79.2708 89.8333 78.8542 90.375 78.1875 90.75ZM95.0625 79.6875C93.9375 79.6875 92.8125 79.4583 91.6875 79C90.6042 78.5417 89.6042 78.0208 88.6875 77.4375C86.5208 76.2292 84.5208 74.6667 82.6875 72.75C80.8958 70.7917 79.0417 68.9167 77.125 67.125C75.25 65.2917 73.0833 63.8958 70.625 62.9375L66.4375 55.8125L76.1875 39C76.8542 37.8333 77.6458 37.0833 78.5625 36.75C79.4792 36.375 80.4375 36.1875 81.4375 36.1875C82.3125 36.1875 83.25 36.4167 84.25 36.875C85.2917 37.2917 86.3125 37.7708 87.3125 38.3125C89.5625 39.6042 91.4375 41.0625 92.9375 42.6875C94.4375 44.2708 95.8958 45.8333 97.3125 47.375C98.7708 48.875 100.521 50.2083 102.562 51.375C103.896 52.1667 105.104 52.7708 106.188 53.1875C107.312 53.5625 108.167 53.9167 108.75 54.25C109.583 54.75 110.167 55.4167 110.5 56.25C110.875 57.0833 110.792 57.9583 110.25 58.875L99.875 76.75C98.75 78.7083 97.1458 79.6875 95.0625 79.6875ZM49.4375 90.75C48.7708 90.375 48.3333 89.8333 48.125 89.125C47.9583 88.375 48.0625 87.6667 48.4375 87L58.0625 70.4375L61.1875 75.8125L53.125 89.6875C52.75 90.3958 52.2083 90.8542 51.5 91.0625C50.7917 91.2708 50.1042 91.1667 49.4375 90.75Z" fill="white"/>
</svg>
