<?xml version="1.0" encoding="UTF-8"?>
<svg xmlns="http://www.w3.org/2000/svg" xmlns:xlink="http://www.w3.org/1999/xlink" width="24" height="28.8" viewBox="0 0 24 28.8" version="1.1">
<g id="surface1">
<path style=" stroke:none;fill-rule:nonzero;fill:rgb(100%,100%,100%);fill-opacity:1;" d="M 1.6875 27.25 C 1.953125 27.25 2.179688 27.160156 2.363281 26.976562 C 2.546875 26.792969 2.636719 26.570312 2.636719 26.3125 L 2.636719 19.363281 C 2.796875 19.296875 3.160156 19.183594 3.726562 19.023438 C 4.300781 18.859375 5.046875 18.773438 5.960938 18.773438 C 7.070312 18.773438 8.089844 18.878906 9.023438 19.085938 C 9.964844 19.296875 10.875 19.542969 11.75 19.824219 C 12.625 20.109375 13.511719 20.367188 14.414062 20.601562 C 15.320312 20.832031 16.300781 20.976562 17.351562 21.023438 L 15.101562 18.761719 C 14.359375 18.621094 13.632812 18.445312 12.925781 18.238281 C 12.226562 18.027344 11.511719 17.824219 10.789062 17.625 C 10.0625 17.417969 9.304688 17.242188 8.511719 17.101562 C 7.722656 16.957031 6.871094 16.886719 5.960938 16.886719 C 5.277344 16.886719 4.640625 16.929688 4.050781 17.011719 C 3.457031 17.085938 2.988281 17.195312 2.636719 17.335938 L 2.636719 6.449219 L 0.898438 4.710938 C 0.792969 4.902344 0.738281 5.164062 0.738281 5.488281 L 0.738281 26.3125 C 0.738281 26.5625 0.828125 26.777344 1.011719 26.960938 C 1.203125 27.152344 1.429688 27.25 1.6875 27.25 Z M 22.6875 19.273438 C 22.777344 19.140625 22.839844 18.992188 22.875 18.824219 C 22.917969 18.648438 22.9375 18.445312 22.9375 18.210938 L 22.9375 5.523438 C 22.9375 5.183594 22.8125 4.921875 22.5625 4.738281 C 22.3125 4.554688 22.003906 4.460938 21.636719 4.460938 C 21.328125 4.460938 20.867188 4.550781 20.25 4.726562 C 19.640625 4.898438 18.800781 4.988281 17.726562 4.988281 C 16.648438 4.988281 15.640625 4.878906 14.699219 4.664062 C 13.765625 4.4375 12.851562 4.179688 11.949219 3.886719 C 11.050781 3.585938 10.117188 3.324219 9.148438 3.101562 C 8.183594 2.867188 7.132812 2.742188 6 2.726562 L 8.125 4.851562 C 8.941406 4.984375 9.726562 5.164062 10.476562 5.386719 C 11.234375 5.605469 11.992188 5.828125 12.75 6.0625 C 13.507812 6.289062 14.292969 6.480469 15.101562 6.636719 C 15.917969 6.796875 16.792969 6.875 17.726562 6.875 C 18.410156 6.875 19.027344 6.835938 19.585938 6.761719 C 20.144531 6.6875 20.632812 6.589844 21.050781 6.476562 L 21.050781 17.625 Z M 22.101562 23.664062 C 22.292969 23.847656 22.519531 23.9375 22.789062 23.9375 C 23.054688 23.9375 23.277344 23.847656 23.460938 23.664062 C 23.644531 23.472656 23.738281 23.242188 23.738281 22.976562 C 23.746094 22.707031 23.652344 22.484375 23.460938 22.300781 L 1.75 0.585938 C 1.558594 0.402344 1.328125 0.3125 1.0625 0.3125 C 0.796875 0.304688 0.566406 0.394531 0.375 0.585938 C 0.191406 0.769531 0.101562 1 0.101562 1.273438 C 0.101562 1.542969 0.191406 1.765625 0.375 1.949219 Z M 22.101562 23.664062 "/>
</g>
</svg>
