<svg xmlns="http://www.w3.org/2000/svg" width="24" height="24"><path style="stroke:none;fill-rule:nonzero;fill:#fff;fill-opacity:1" d="M4.887 23.3h14.215c1.226 0 2.144-.323 2.753-.976.618-.64.926-1.605.926-2.898V4.164c0-1.293-.308-2.258-.926-2.898-.609-.653-1.527-.977-2.753-.977H4.887c-1.227 0-2.149.324-2.766.977-.61.64-.914 1.605-.914 2.898v15.262c0 1.293.305 2.258.914 2.902.617.649 1.54.973 2.766.973Zm.023-2.01c-.586 0-1.035-.165-1.348-.49-.312-.335-.468-.823-.468-1.476V4.262c0-.649.156-1.137.469-1.461.312-.336.761-.5 1.347-.5h14.168c.578 0 1.024.164 1.336.5.32.324.48.812.48 1.46v15.063c0 .653-.16 1.14-.48 1.477-.312.324-.758.488-1.336.488ZM7.56 18.5a.484.484 0 0 0 .375-.164.619.619 0 0 0 .152-.41v-3.688c.11-.05.277-.105.504-.164a3.77 3.77 0 0 1 .89-.086c.704 0 1.336.09 1.899.274.562.183 1.121.367 1.676.55a6.053 6.053 0 0 0 1.863.278c.437 0 .773-.027 1.008-.078.234-.059.46-.14.68-.25.484-.235.726-.621.726-1.16V7.437c0-.417-.219-.625-.656-.625-.172 0-.399.047-.68.137-.281.086-.66.125-1.137.125a5.885 5.885 0 0 1-1.84-.273c-.562-.188-1.124-.371-1.687-.551a5.998 5.998 0 0 0-1.91-.29c-.453 0-.797.032-1.031.09a3.024 3.024 0 0 0-.657.223c-.484.227-.726.614-.726 1.165v10.488c0 .148.054.281.164.398.11.117.238.176.387.176Zm0 0"/></svg>