<svg width="119" height="136" viewBox="0 0 119 136" fill="none" xmlns="http://www.w3.org/2000/svg">
<path d="M3.5625 130.562C3.5625 131.812 4.02083 132.896 4.9375 133.812C5.89583 134.771 7.02083 135.25 8.3125 135.25C9.64583 135.25 10.7708 134.792 11.6875 133.875C12.6042 132.958 13.0625 131.854 13.0625 130.562V95.8125C13.8542 95.4792 15.6667 94.9167 18.5 94.125C21.375 93.2917 25.1042 92.875 29.6875 92.875C35.2292 92.875 40.3333 93.3958 45 94.4375C49.7083 95.4792 54.25 96.7083 58.625 98.125C63 99.5417 67.4375 100.833 71.9375 102C76.4792 103.167 81.375 103.875 86.625 104.125L4.8125 22.4375C4.4375 23.0208 4.125 23.6667 3.875 24.375C3.66667 25.0833 3.5625 25.8542 3.5625 26.6875V130.562ZM29.875 12.625L113 95.6875C113.542 94.9375 113.938 94.1042 114.188 93.1875C114.438 92.2292 114.562 91.1875 114.562 90.0625V26.625C114.562 24.9167 113.938 23.6042 112.688 22.6875C111.438 21.7708 109.896 21.3125 108.062 21.3125C106.521 21.3125 104.208 21.75 101.125 22.625C98.0833 23.5 93.875 23.9375 88.5 23.9375C83.125 23.9375 78.0833 23.3958 73.375 22.3125C68.7083 21.1875 64.125 19.8958 59.625 18.4375C55.125 16.9375 50.4583 15.625 45.625 14.5C40.7917 13.3333 35.5417 12.7083 29.875 12.625ZM110.375 117.312C111.333 118.229 112.479 118.688 113.812 118.688C115.146 118.688 116.271 118.229 117.188 117.312C118.104 116.354 118.562 115.208 118.562 113.875C118.604 112.542 118.146 111.417 117.188 110.5L8.625 1.9375C7.66667 1.02083 6.52083 0.5625 5.1875 0.5625C3.85417 0.520833 2.70833 0.979167 1.75 1.9375C0.833333 2.85417 0.375 4 0.375 5.375C0.375 6.70833 0.833333 7.83333 1.75 8.75L110.375 117.312Z" fill="white"/>
</svg>
