<?xml version="1.0" encoding="UTF-8"?>
<svg xmlns="http://www.w3.org/2000/svg" xmlns:xlink="http://www.w3.org/1999/xlink" width="24" height="25.5" viewBox="0 0 24 25.5" version="1.1">
<g id="surface1">
<path style=" stroke:none;fill-rule:nonzero;fill:rgb(100%,100%,100%);fill-opacity:1;" d="M 12 24.492188 C 13.632812 24.492188 15.167969 24.179688 16.605469 23.554688 C 18.050781 22.929688 19.324219 22.066406 20.425781 20.964844 C 21.527344 19.863281 22.390625 18.59375 23.015625 17.15625 C 23.640625 15.710938 23.953125 14.171875 23.953125 12.539062 C 23.953125 10.90625 23.640625 9.371094 23.015625 7.933594 C 22.390625 6.488281 21.527344 5.214844 20.425781 4.113281 C 19.324219 3.011719 18.050781 2.148438 16.605469 1.523438 C 15.160156 0.898438 13.621094 0.585938 11.988281 0.585938 C 10.355469 0.585938 8.816406 0.898438 7.371094 1.523438 C 5.933594 2.148438 4.664062 3.011719 3.5625 4.113281 C 2.46875 5.214844 1.609375 6.488281 0.984375 7.933594 C 0.359375 9.371094 0.046875 10.90625 0.046875 12.539062 C 0.046875 14.171875 0.359375 15.710938 0.984375 17.15625 C 1.609375 18.59375 2.472656 19.863281 3.574219 20.964844 C 4.675781 22.066406 5.945312 22.929688 7.382812 23.554688 C 8.828125 24.179688 10.367188 24.492188 12 24.492188 Z M 14.671875 17.578125 C 14.546875 17.648438 14.417969 17.667969 14.285156 17.636719 C 14.152344 17.597656 14.050781 17.511719 13.980469 17.378906 L 11.003906 12.246094 C 10.886719 12.292969 10.757812 12.34375 10.617188 12.398438 C 10.476562 12.453125 10.328125 12.53125 10.171875 12.632812 C 9.789062 12.84375 9.460938 13.09375 9.1875 13.382812 C 8.921875 13.671875 8.644531 13.96875 8.355469 14.273438 C 8.074219 14.570312 7.722656 14.839844 7.300781 15.082031 C 7.128906 15.191406 6.941406 15.289062 6.738281 15.375 C 6.535156 15.460938 6.324219 15.503906 6.105469 15.503906 C 5.714844 15.503906 5.417969 15.320312 5.214844 14.953125 L 3.269531 11.601562 C 3.160156 11.429688 3.140625 11.265625 3.210938 11.109375 C 3.28125 10.945312 3.394531 10.820312 3.550781 10.734375 C 3.652344 10.671875 3.804688 10.605469 4.007812 10.535156 C 4.21875 10.457031 4.453125 10.34375 4.710938 10.195312 C 5.09375 9.976562 5.417969 9.722656 5.683594 9.433594 C 5.957031 9.144531 6.234375 8.851562 6.515625 8.554688 C 6.796875 8.257812 7.148438 7.988281 7.570312 7.746094 C 7.75 7.636719 7.9375 7.542969 8.132812 7.464844 C 8.328125 7.386719 8.507812 7.347656 8.671875 7.347656 C 8.859375 7.347656 9.039062 7.382812 9.210938 7.453125 C 9.382812 7.515625 9.53125 7.652344 9.65625 7.863281 L 14.859375 16.875 C 14.929688 17 14.945312 17.132812 14.90625 17.273438 C 14.875 17.40625 14.796875 17.507812 14.671875 17.578125 Z M 17.835938 15.503906 C 17.625 15.503906 17.414062 15.460938 17.203125 15.375 C 17 15.289062 16.8125 15.191406 16.640625 15.082031 C 16.234375 14.855469 15.859375 14.5625 15.515625 14.203125 C 15.179688 13.835938 14.832031 13.484375 14.472656 13.148438 C 14.121094 12.804688 13.714844 12.542969 13.253906 12.363281 L 12.46875 11.027344 L 14.296875 7.875 C 14.421875 7.65625 14.570312 7.515625 14.742188 7.453125 C 14.914062 7.382812 15.09375 7.347656 15.28125 7.347656 C 15.445312 7.347656 15.621094 7.390625 15.808594 7.476562 C 16.003906 7.554688 16.195312 7.644531 16.382812 7.746094 C 16.804688 7.988281 17.15625 8.261719 17.4375 8.566406 C 17.71875 8.863281 17.992188 9.15625 18.257812 9.445312 C 18.53125 9.726562 18.859375 9.976562 19.242188 10.195312 C 19.492188 10.34375 19.71875 10.457031 19.921875 10.535156 C 20.132812 10.605469 20.292969 10.671875 20.402344 10.734375 C 20.558594 10.828125 20.667969 10.953125 20.730469 11.109375 C 20.800781 11.265625 20.785156 11.429688 20.683594 11.601562 L 18.738281 14.953125 C 18.527344 15.320312 18.226562 15.503906 17.835938 15.503906 Z M 9.28125 17.578125 C 9.15625 17.507812 9.074219 17.40625 9.035156 17.273438 C 9.003906 17.132812 9.023438 17 9.09375 16.875 L 10.898438 13.769531 L 11.484375 14.777344 L 9.972656 17.378906 C 9.902344 17.511719 9.800781 17.597656 9.667969 17.636719 C 9.535156 17.675781 9.40625 17.65625 9.28125 17.578125 Z M 9.28125 17.578125 "/>
</g>
</svg>
