<svg xmlns="http://www.w3.org/2000/svg" width="24" height="24"><path style="stroke:none;fill-rule:nonzero;fill:#fff;fill-opacity:1" d="M1.688 22.707c.253.008.496-.078.675-.227a.693.693 0 0 0 .274-.554v-5.79c.16-.054.523-.152 1.09-.284.574-.137 1.32-.207 2.234-.207 1.11 0 2.129.09 3.062.261.942.172 1.852.38 2.727.614.879.238 1.77.457 2.664.648.906.191 1.887.312 2.938.352l-2.25-1.883a26.797 26.797 0 0 1-2.176-.438c-.7-.176-1.414-.347-2.137-.511a27.564 27.564 0 0 0-2.277-.438 16.864 16.864 0 0 0-2.551-.176 17.1 17.1 0 0 0-1.91.102c-.594.062-1.063.152-1.414.27V5.374L.898 3.925c-.105.16-.16.38-.16.65v17.35c0 .212.09.387.274.544.191.156.418.238.675.238Zm21-6.645a.97.97 0 0 0 .187-.375 1.75 1.75 0 0 0 .063-.511V4.602c0-.282-.125-.5-.375-.653-.25-.152-.56-.23-.926-.23-.309 0-.77.074-1.387.219-.61.144-1.45.218-2.523.218-1.079 0-2.086-.09-3.028-.27a43.27 43.27 0 0 1-2.75-.648 34.2 34.2 0 0 0-2.8-.652A16.643 16.643 0 0 0 6 2.273l2.125 1.77a22.49 22.49 0 0 1 2.352.445c.757.184 1.515.367 2.273.563.773.195 1.559.351 2.352.48.816.133 1.691.2 2.625.2.683 0 1.3-.036 1.859-.094.492-.055.984-.133 1.465-.239v9.29Zm-.586 3.657c.183.152.43.234.687.23.254.004.496-.078.672-.23a.732.732 0 0 0 .277-.57.66.66 0 0 0-.277-.563L1.75.488a1.071 1.071 0 0 0-.688-.226.983.983 0 0 0-.687.226.712.712 0 0 0-.273.575c0 .222.09.41.273.562Zm0 0"/></svg>