<svg xmlns="http://www.w3.org/2000/svg" width="24" height="24"><path style="stroke:none;fill-rule:nonzero;fill:#fff;fill-opacity:1" d="M1.688 22.629a.987.987 0 0 0 .675-.238.753.753 0 0 0 .274-.586v-6.133c.16-.059.523-.16 1.09-.297.574-.148 1.32-.219 2.234-.219 1.16 0 2.226.102 3.203.305.98.2 1.934.434 2.848.7.918.257 1.851.487 2.8.694.95.196 1.977.293 3.075.293.652 0 1.183-.015 1.601-.054.367-.035.73-.098 1.086-.184.309-.09.621-.2.938-.32.433-.172.781-.406 1.039-.707.258-.313.387-.719.387-1.223V3.465a.785.785 0 0 0-.375-.7c-.25-.16-.56-.238-.926-.238-.309 0-.77.075-1.387.23-.61.157-1.45.231-2.523.231-1.102 0-2.125-.101-3.079-.297a42.414 42.414 0 0 1-2.796-.707c-.938-.27-1.891-.5-2.852-.695A16.256 16.256 0 0 0 5.8.992c-.652 0-1.187.02-1.612.067-.368.027-.731.09-1.086.187a8.467 8.467 0 0 0-.938.309 2.65 2.65 0 0 0-1.039.715c-.258.304-.387.703-.387 1.207v18.328c0 .218.09.41.274.574a.99.99 0 0 0 .675.25Zm.949-11.996V6.895c.086-.184.386-.375.914-.575.523-.199 1.273-.3 2.25-.3.199 0 .426.007.676.027.257.004.496.02.71.039V2.723c.84.082 1.641.218 2.399.41.77.183 1.535.375 2.3.57V7.07c.778.211 1.54.399 2.29.559.758.164 1.558.277 2.398.348V4.613c.383.028.77.043 1.153.04.683 0 1.3-.032 1.859-.098.496-.055.984-.14 1.465-.254v3.363c-.309.074-.754.152-1.34.23-.574.086-1.234.122-1.984.122-.192 0-.391-.004-.59-.008-.188-.016-.375-.024-.563-.031v3.734c.184.02.363.027.54.035.183.008.386.012.613.012.683 0 1.3-.031 1.859-.102a12.2 12.2 0 0 0 1.465-.25v3.207c-.086.184-.387.375-.914.575-.524.199-1.274.296-2.25.296-.223 0-.446 0-.66-.007-.22-.02-.434-.036-.653-.055V11.71c-.539-.05-1.078-.113-1.613-.195-.512-.09-1.02-.192-1.524-.301-.5-.117-1.015-.25-1.55-.406v3.605a54.859 54.859 0 0 0-2.239-.539 17.956 17.956 0 0 0-2.46-.355V9.828c-.243-.023-.458-.035-.649-.047a9.315 9.315 0 0 0-.738-.02c-.977 0-1.727.098-2.25.298-.528.199-.828.386-.914.574Zm4.55-.805a17 17 0 0 1 2.375.395c.715.18 1.493.37 2.325.586V7.07c-.782-.207-1.547-.402-2.285-.582a14.353 14.353 0 0 0-2.415-.402Zm0 0"/></svg>