<svg width="112" height="124" viewBox="0 0 112 124" fill="none" xmlns="http://www.w3.org/2000/svg">
<path d="M5.3125 123.25C6.64583 123.25 7.77083 122.792 8.6875 121.875C9.60417 120.958 10.0625 119.854 10.0625 118.562V83.8125C10.8542 83.4792 12.6667 82.9167 15.5 82.125C18.375 81.2917 22.1042 80.875 26.6875 80.875C32.4792 80.875 37.8125 81.4583 42.6875 82.625C47.6042 83.75 52.3542 85.0625 56.9375 86.5625C61.5208 88.0208 66.1875 89.3333 70.9375 90.5C75.6875 91.625 80.8125 92.1875 86.3125 92.1875C89.5625 92.1875 92.2292 92.0833 94.3125 91.875C96.3958 91.625 98.2083 91.2708 99.75 90.8125C101.292 90.3125 102.854 89.7083 104.438 89C106.604 88.0417 108.333 86.7083 109.625 85C110.917 83.25 111.562 80.9375 111.562 78.0625V14.625C111.562 12.9167 110.938 11.6042 109.688 10.6875C108.438 9.77083 106.896 9.3125 105.062 9.3125C103.521 9.3125 101.208 9.75 98.125 10.625C95.0833 11.5 90.875 11.9375 85.5 11.9375C80 11.9375 74.875 11.375 70.125 10.25C65.375 9.08333 60.7083 7.75 56.125 6.25C51.5417 4.75 46.7917 3.4375 41.875 2.3125C37 1.1875 31.6667 0.625 25.875 0.625C22.625 0.625 19.9375 0.75 17.8125 1C15.7292 1.20833 13.9167 1.5625 12.375 2.0625C10.8333 2.52083 9.27083 3.10417 7.6875 3.8125C5.5625 4.77083 3.83333 6.125 2.5 7.875C1.20833 9.58333 0.5625 11.8542 0.5625 14.6875V118.562C0.5625 119.812 1.02083 120.896 1.9375 121.812C2.89583 122.771 4.02083 123.25 5.3125 123.25ZM86.3125 82.75C81.1042 82.75 76.1875 82.1875 71.5625 81.0625C66.9375 79.8958 62.3125 78.5833 57.6875 77.125C53.1042 75.625 48.2917 74.3125 43.25 73.1875C38.2083 72.0208 32.6875 71.4375 26.6875 71.4375C23.2708 71.4375 20.0833 71.6458 17.125 72.0625C14.1667 72.4375 11.8125 72.9792 10.0625 73.6875V15C10.4792 13.9583 12 12.875 14.625 11.75C17.25 10.625 21 10.0625 25.875 10.0625C31.375 10.0625 36.5 10.6458 41.25 11.8125C46.0417 12.9375 50.7292 14.25 55.3125 15.75C59.9375 17.2083 64.6875 18.5208 69.5625 19.6875C74.4792 20.8125 79.7917 21.375 85.5 21.375C88.9167 21.375 92.0208 21.1875 94.8125 20.8125C97.6042 20.4375 100.042 19.9583 102.125 19.375V77.8125C101.708 78.8542 100.188 79.9375 97.5625 81.0625C94.9375 82.1875 91.1875 82.75 86.3125 82.75Z" fill="white"/>
</svg>
