<?xml version="1.0" encoding="UTF-8"?>
<svg xmlns="http://www.w3.org/2000/svg" xmlns:xlink="http://www.w3.org/1999/xlink" width="24" height="25.5" viewBox="0 0 24 25.5" version="1.1">
<g id="surface1">
<path style=" stroke:none;fill-rule:nonzero;fill:rgb(100%,100%,100%);fill-opacity:1;" d="M 12 24.503906 C 13.632812 24.503906 15.167969 24.191406 16.605469 23.566406 C 18.050781 22.941406 19.324219 22.078125 20.425781 20.976562 C 21.527344 19.875 22.390625 18.605469 23.015625 17.167969 C 23.640625 15.722656 23.953125 14.183594 23.953125 12.550781 C 23.953125 10.917969 23.640625 9.382812 23.015625 7.945312 C 22.390625 6.5 21.527344 5.226562 20.425781 4.125 C 19.324219 3.023438 18.050781 2.160156 16.605469 1.535156 C 15.160156 0.910156 13.621094 0.597656 11.988281 0.597656 C 10.355469 0.597656 8.816406 0.910156 7.371094 1.535156 C 5.933594 2.160156 4.664062 3.023438 3.5625 4.125 C 2.46875 5.226562 1.609375 6.5 0.984375 7.945312 C 0.359375 9.382812 0.046875 10.917969 0.046875 12.550781 C 0.046875 14.183594 0.359375 15.722656 0.984375 17.167969 C 1.609375 18.605469 2.472656 19.875 3.574219 20.976562 C 4.675781 22.078125 5.945312 22.941406 7.382812 23.566406 C 8.828125 24.191406 10.367188 24.503906 12 24.503906 Z M 6.890625 15.539062 C 6.890625 14.953125 6.945312 14.445312 7.054688 14.015625 C 7.171875 13.585938 7.304688 13.203125 7.453125 12.867188 C 7.601562 12.523438 7.734375 12.191406 7.851562 11.871094 C 7.96875 11.550781 8.027344 11.210938 8.027344 10.851562 C 8.027344 10.695312 8.015625 10.53125 7.992188 10.359375 C 7.976562 10.1875 7.96875 10.0625 7.96875 9.984375 C 7.96875 9.648438 8.121094 9.480469 8.425781 9.480469 C 8.714844 9.480469 9.011719 9.597656 9.316406 9.832031 C 9.621094 10.058594 9.863281 10.355469 10.042969 10.722656 C 10.089844 10.582031 10.113281 10.429688 10.113281 10.265625 C 10.105469 9.617188 9.9375 9.019531 9.609375 8.472656 C 9.289062 7.917969 8.933594 7.410156 8.542969 6.949219 C 8.417969 6.792969 8.355469 6.628906 8.355469 6.457031 C 8.355469 6.246094 8.441406 6.085938 8.613281 5.976562 C 8.792969 5.859375 9.035156 5.800781 9.339844 5.800781 C 10.035156 5.800781 10.769531 5.902344 11.542969 6.105469 C 12.316406 6.308594 13.074219 6.621094 13.816406 7.042969 C 14.558594 7.464844 15.230469 8.003906 15.832031 8.660156 C 16.433594 9.316406 16.914062 10.101562 17.273438 11.015625 C 17.632812 11.921875 17.8125 12.960938 17.8125 14.132812 C 17.8125 15.3125 17.570312 16.34375 17.085938 17.226562 C 16.609375 18.101562 15.9375 18.785156 15.070312 19.277344 C 14.203125 19.769531 13.191406 20.015625 12.035156 20.015625 C 11.003906 20.015625 10.101562 19.832031 9.328125 19.464844 C 8.554688 19.089844 7.953125 18.566406 7.523438 17.894531 C 7.101562 17.222656 6.890625 16.4375 6.890625 15.539062 Z M 10.148438 16.3125 C 10.148438 16.875 10.335938 17.328125 10.710938 17.671875 C 11.09375 18.007812 11.589844 18.175781 12.199219 18.175781 C 12.980469 18.175781 13.558594 17.929688 13.933594 17.4375 C 14.316406 16.945312 14.507812 16.371094 14.507812 15.714844 C 14.507812 15.082031 14.324219 14.445312 13.957031 13.804688 C 13.597656 13.164062 13.054688 12.671875 12.328125 12.328125 C 12.304688 12.320312 12.28125 12.324219 12.257812 12.339844 C 12.242188 12.347656 12.238281 12.375 12.246094 12.421875 C 12.300781 12.945312 12.292969 13.4375 12.222656 13.898438 C 12.152344 14.359375 12.027344 14.707031 11.847656 14.941406 C 11.753906 14.753906 11.65625 14.578125 11.554688 14.414062 C 11.460938 14.25 11.335938 14.105469 11.179688 13.980469 C 11.15625 13.949219 11.132812 13.9375 11.109375 13.945312 C 11.09375 13.953125 11.085938 13.976562 11.085938 14.015625 C 11.046875 14.265625 10.949219 14.492188 10.792969 14.695312 C 10.644531 14.890625 10.5 15.113281 10.359375 15.363281 C 10.21875 15.613281 10.148438 15.929688 10.148438 16.3125 Z M 10.148438 16.3125 "/>
</g>
</svg>
