<?xml version="1.0" encoding="UTF-8"?>
<svg xmlns="http://www.w3.org/2000/svg" xmlns:xlink="http://www.w3.org/1999/xlink" width="24" height="30.857143" viewBox="0 0 24 30.857143" version="1.1">
<g id="surface1">
<path style=" stroke:none;fill-rule:nonzero;fill:rgb(100%,100%,100%);fill-opacity:1;" d="M 11.371094 29.316406 C 13.136719 29.316406 14.742188 29.03125 16.179688 28.460938 C 17.625 27.886719 18.871094 27.074219 19.914062 26.023438 C 20.960938 24.96875 21.757812 23.707031 22.3125 22.230469 C 22.875 20.757812 23.15625 19.125 23.15625 17.332031 C 23.15625 15.332031 22.898438 13.523438 22.378906 11.90625 C 21.863281 10.289062 21.152344 8.855469 20.25 7.605469 C 19.355469 6.347656 18.332031 5.261719 17.167969 4.351562 C 16.007812 3.433594 14.78125 2.679688 13.488281 2.089844 C 12.199219 1.492188 10.902344 1.054688 9.589844 0.777344 C 8.285156 0.492188 7.042969 0.347656 5.867188 0.347656 C 5.230469 0.347656 4.726562 0.460938 4.351562 0.683594 C 3.988281 0.898438 3.804688 1.21875 3.804688 1.648438 C 3.804688 1.816406 3.839844 1.988281 3.910156 2.15625 C 3.980469 2.324219 4.089844 2.492188 4.230469 2.652344 C 4.757812 3.285156 5.261719 3.960938 5.746094 4.675781 C 6.238281 5.386719 6.636719 6.144531 6.949219 6.9375 C 7.273438 7.730469 7.4375 8.570312 7.445312 9.457031 C 7.445312 9.757812 7.414062 10.058594 7.351562 10.351562 C 7.300781 10.636719 7.164062 10.96875 6.949219 11.34375 L 7.621094 11.210938 C 7.414062 10.550781 7.117188 9.96875 6.722656 9.46875 C 6.339844 8.960938 5.902344 8.5625 5.410156 8.277344 C 4.929688 7.992188 4.449219 7.847656 3.976562 7.847656 C 3.699219 7.847656 3.476562 7.941406 3.308594 8.128906 C 3.136719 8.316406 3.054688 8.558594 3.054688 8.851562 C 3.054688 9.023438 3.066406 9.285156 3.09375 9.644531 C 3.128906 9.992188 3.148438 10.3125 3.148438 10.605469 C 3.148438 11.207031 3.070312 11.769531 2.917969 12.292969 C 2.769531 12.820312 2.574219 13.351562 2.34375 13.886719 C 2.113281 14.425781 1.878906 14.996094 1.648438 15.601562 C 1.425781 16.199219 1.230469 16.875 1.070312 17.625 C 0.917969 18.375 0.84375 19.230469 0.84375 20.195312 C 0.84375 22.027344 1.28125 23.625 2.15625 24.992188 C 3.03125 26.355469 4.253906 27.417969 5.824219 28.179688 C 7.40625 28.9375 9.253906 29.316406 11.371094 29.316406 Z M 11.679688 25.554688 C 10.429688 25.554688 9.417969 25.210938 8.652344 24.523438 C 7.894531 23.824219 7.511719 22.914062 7.511719 21.789062 C 7.511719 21.199219 7.597656 20.695312 7.769531 20.277344 C 7.945312 19.847656 8.152344 19.464844 8.382812 19.125 C 8.617188 18.777344 8.832031 18.445312 9.027344 18.132812 C 9.222656 17.8125 9.347656 17.460938 9.402344 17.074219 C 9.410156 17.011719 9.433594 16.976562 9.46875 16.96875 C 9.511719 16.949219 9.558594 16.960938 9.601562 16.996094 C 9.914062 17.273438 10.175781 17.582031 10.378906 17.917969 C 10.59375 18.25 10.785156 18.605469 10.957031 18.992188 C 11.3125 18.507812 11.566406 17.800781 11.71875 16.863281 C 11.871094 15.914062 11.886719 14.894531 11.773438 13.792969 C 11.761719 13.730469 11.777344 13.6875 11.8125 13.660156 C 11.847656 13.625 11.898438 13.621094 11.960938 13.648438 C 12.941406 14.113281 13.761719 14.71875 14.425781 15.46875 C 15.085938 16.21875 15.582031 17.035156 15.910156 17.917969 C 16.25 18.804688 16.417969 19.683594 16.417969 20.558594 C 16.417969 21.441406 16.246094 22.261719 15.898438 23.023438 C 15.550781 23.78125 15.023438 24.394531 14.316406 24.855469 C 13.621094 25.320312 12.742188 25.554688 11.679688 25.554688 Z M 11.679688 25.554688 "/>
</g>
</svg>
