<svg width="12" height="15" viewBox="0 0 12 15" fill="none" xmlns="http://www.w3.org/2000/svg">
<path d="M2.34375 14.5C3.44271 14.5 4.29948 14.2057 4.91406 13.6172C5.52865 13.0339 5.92969 12.1406 6.11719 10.9375L7.25781 3.8125C7.38802 3.02083 7.65625 2.44271 8.0625 2.07812C8.46875 1.71354 9.03906 1.53125 9.77344 1.53125C10.0443 1.53125 10.2891 1.55208 10.5078 1.59375C10.7318 1.63542 10.9297 1.66406 11.1016 1.67969C11.3307 1.6849 11.4974 1.625 11.6016 1.5C11.6901 1.41667 11.7344 1.29948 11.7344 1.14844C11.7344 0.976562 11.6771 0.830729 11.5625 0.710938C11.4531 0.591146 11.3021 0.497396 11.1094 0.429688C10.9427 0.367188 10.7344 0.317708 10.4844 0.28125C10.2344 0.239583 9.96615 0.21875 9.67969 0.21875C8.58073 0.21875 7.71094 0.513021 7.07031 1.10156C6.42969 1.6849 6.01562 2.55469 5.82812 3.71094L4.69531 10.7734C4.5599 11.6172 4.29948 12.2292 3.91406 12.6094C3.52865 12.9844 2.96354 13.1719 2.21875 13.1719C2.07812 13.1719 1.94531 13.1615 1.82031 13.1406C1.69531 13.125 1.59635 13.1094 1.52344 13.0938C1.41406 13.0729 1.30729 13.0521 1.20312 13.0312C1.09896 13.0156 0.994792 13.0078 0.890625 13.0078C0.692708 13.0078 0.539062 13.0625 0.429688 13.1719C0.320312 13.2812 0.265625 13.4167 0.265625 13.5781C0.265625 13.75 0.315104 13.8958 0.414062 14.0156C0.518229 14.1354 0.669271 14.2292 0.867188 14.2969C1.05469 14.3646 1.26823 14.4141 1.50781 14.4453C1.7526 14.4818 2.03125 14.5 2.34375 14.5ZM2.13281 7.5625H10.1172C10.2995 7.5625 10.4427 7.51302 10.5469 7.41406C10.651 7.3151 10.7031 7.17969 10.7031 7.00781C10.7031 6.83073 10.651 6.6901 10.5469 6.58594C10.4427 6.47656 10.2995 6.42188 10.1172 6.42188H2.13281C1.95052 6.42188 1.80469 6.47656 1.69531 6.58594C1.59115 6.6901 1.53906 6.83073 1.53906 7.00781C1.53906 7.17969 1.59115 7.3151 1.69531 7.41406C1.80469 7.51302 1.95052 7.5625 2.13281 7.5625Z" fill="white"/>
</svg>
