<svg width="18" height="19" viewBox="0 0 18 19" fill="none" xmlns="http://www.w3.org/2000/svg">
<path d="M2.46875 6.67969H15.5312C16.1146 6.67969 16.5703 6.51823 16.8984 6.19531C17.2318 5.86719 17.3984 5.41667 17.3984 4.84375V2.20312C17.3984 1.63021 17.2318 1.18229 16.8984 0.859375C16.5703 0.53125 16.1146 0.367188 15.5312 0.367188H2.46875C1.88542 0.367188 1.42708 0.53125 1.09375 0.859375C0.765625 1.18229 0.601562 1.63021 0.601562 2.20312V4.84375C0.601562 5.41667 0.765625 5.86719 1.09375 6.19531C1.42708 6.51823 1.88542 6.67969 2.46875 6.67969ZM2.49219 5.5C2.26823 5.5 2.09375 5.4349 1.96875 5.30469C1.84375 5.17448 1.78125 4.9974 1.78125 4.77344V2.26562C1.78125 2.04167 1.84375 1.86719 1.96875 1.74219C2.09375 1.61198 2.26823 1.54688 2.49219 1.54688H15.5078C15.7318 1.54688 15.9062 1.61198 16.0312 1.74219C16.1562 1.86719 16.2188 2.04167 16.2188 2.26562V4.77344C16.2188 4.9974 16.1562 5.17448 16.0312 5.30469C15.9062 5.4349 15.7318 5.5 15.5078 5.5H2.49219ZM8.4375 8.53906H9.57812V6.07031H8.4375V8.53906ZM2.46875 14.1172H15.5312C16.1146 14.1172 16.5703 13.9557 16.8984 13.6328C17.2318 13.3047 17.3984 12.8542 17.3984 12.2812V9.64062C17.3984 9.06771 17.2318 8.61979 16.8984 8.29688C16.5703 7.96875 16.1146 7.80469 15.5312 7.80469H2.46875C1.88542 7.80469 1.42708 7.96875 1.09375 8.29688C0.765625 8.61979 0.601562 9.06771 0.601562 9.64062V12.2812C0.601562 12.8542 0.765625 13.3047 1.09375 13.6328C1.42708 13.9557 1.88542 14.1172 2.46875 14.1172ZM2.49219 12.9375C2.26823 12.9375 2.09375 12.875 1.96875 12.75C1.84375 12.6198 1.78125 12.4427 1.78125 12.2188V9.71094C1.78125 9.48698 1.84375 9.3099 1.96875 9.17969C2.09375 9.04948 2.26823 8.98438 2.49219 8.98438H15.5078C15.7318 8.98438 15.9062 9.04948 16.0312 9.17969C16.1562 9.3099 16.2188 9.48698 16.2188 9.71094V12.2188C16.2188 12.4427 16.1562 12.6198 16.0312 12.75C15.9062 12.875 15.7318 12.9375 15.5078 12.9375H2.49219ZM8.42969 15.75H9.57812V13.2891H8.42969V15.75ZM8.58594 18.3984C8.70573 18.5443 8.84896 18.6172 9.01562 18.6172C9.1875 18.6172 9.33073 18.5443 9.44531 18.3984L11.2344 16.1875C11.4062 15.974 11.4479 15.7552 11.3594 15.5312C11.276 15.3073 11.0938 15.1953 10.8125 15.1953H7.21094C6.92448 15.1953 6.73698 15.3047 6.64844 15.5234C6.5599 15.7474 6.60417 15.9688 6.78125 16.1875L8.58594 18.3984Z" fill="white"/>
</svg>
