<svg xmlns="http://www.w3.org/2000/svg" width="24" height="24"><path style="stroke:none;fill-rule:nonzero;fill:#fff;fill-opacity:1" d="M12 22.5c.77 0 1.504-.195 2.203-.574.688-.375 1.332-.918 1.906-1.606a9.93 9.93 0 0 0 1.461-2.414c.407-.93.7-1.933.875-3.011-.222.46-.52.832-.86 1.078a2 2 0 0 1-1.187.398c-.39 0-.757-.11-1.101-.328a2.713 2.713 0 0 1-.836-.902c-.098-.18-.191-.262-.281-.246-.082.007-.18.113-.29.304-.23.38-.511.676-.828.867a2 2 0 0 1-1.07.305c-.379 0-.738-.098-1.07-.305-.317-.195-.598-.492-.828-.867-.11-.195-.207-.293-.297-.293s-.192.094-.305.281c-.23.383-.515.68-.836.868a1.955 1.955 0 0 1-2.234-.07c-.34-.235-.637-.594-.86-1.044.184 1.079.473 2.082.875 3 .403.914.887 1.715 1.461 2.403.57.676 1.211 1.21 1.899 1.582.7.379 1.433.574 2.203.574Zm0 1.465c1.043 0 2.02-.3 2.938-.902.91-.579 1.734-1.415 2.43-2.461.698-1.047 1.26-2.286 1.655-3.645.403-1.395.61-2.898.602-4.418 0-1.566-.2-3.031-.602-4.406-.394-1.363-.953-2.598-1.656-3.645-.695-1.05-1.52-1.89-2.43-2.472-.93-.606-1.933-.914-2.945-.903-1.043 0-2.02.301-2.937.89-.907.583-1.735 1.423-2.43 2.474C5.93 5.53 5.367 6.77 4.977 8.133a15.937 15.937 0 0 0-.594 4.406c0 1.563.199 3.035.594 4.418.402 1.379.949 2.59 1.648 3.645.7 1.046 1.523 1.878 2.43 2.46.93.606 1.933.915 2.945.903Zm0-1.992a4.47 4.47 0 0 1-2.445-.727c-.75-.473-1.43-1.156-2.008-2.016-.574-.867-1.027-1.886-1.344-3.011a13.49 13.49 0 0 1-.484-3.68c0-1.312.16-2.535.484-3.68.317-1.12.774-2.14 1.344-3 .574-.863 1.254-1.55 2-2.023.773-.5 1.605-.75 2.445-.742.844-.008 1.68.242 2.453.742.75.473 1.43 1.16 2 2.023.578.86 1.035 1.88 1.352 3 .328 1.145.496 2.368.5 3.68 0 1.309-.16 2.527-.485 3.672-.316 1.125-.773 2.148-1.351 3.012-.574.863-1.258 1.55-2.008 2.023-.773.492-1.61.738-2.453.727ZM.852 12.539c0 1.852.191 3.617.57 5.3.379 1.68.91 3.216 1.594 4.602.12.254.27.387.453.41.187.032.36-.042.515-.234.133-.16.22-.398.235-.652a1.415 1.415 0 0 0-.14-.742 18.432 18.432 0 0 1-1.391-4.032 21.09 21.09 0 0 1-.5-4.652c0-1.633.167-3.18.5-4.652a18.577 18.577 0 0 1 1.39-4.051c.11-.207.164-.469.149-.73a1.131 1.131 0 0 0-.243-.657c-.144-.18-.328-.261-.515-.23-.184.031-.348.18-.453.406A20.725 20.725 0 0 0 1.422 7.23a24.193 24.193 0 0 0-.57 5.313Zm22.296 0a24.158 24.158 0 0 0-.57-5.309 20.725 20.725 0 0 0-1.594-4.605c-.105-.227-.273-.379-.46-.406-.184-.031-.368.05-.508.23-.137.16-.227.399-.243.656-.011.262.043.52.149.73a18.265 18.265 0 0 1 1.39 4.052c.333 1.472.5 3.02.5 4.652a21.09 21.09 0 0 1-.5 4.652 17.964 17.964 0 0 1-1.39 4.032 1.504 1.504 0 0 0-.14.742c.015.254.1.492.234.652.14.18.324.266.507.235.188-.024.356-.172.461-.41a20.623 20.623 0 0 0 1.594-4.602c.379-1.684.57-3.45.57-5.3Zm0 0"/></svg>