<?xml version="1.0" encoding="UTF-8"?>
<svg xmlns="http://www.w3.org/2000/svg" xmlns:xlink="http://www.w3.org/1999/xlink" width="24" height="25.5" viewBox="0 0 24 25.5" version="1.1">
<g id="surface1">
<path style=" stroke:none;fill-rule:nonzero;fill:rgb(100%,100%,100%);fill-opacity:1;" d="M 12 24.492188 C 13.632812 24.492188 15.167969 24.179688 16.605469 23.554688 C 18.050781 22.929688 19.324219 22.066406 20.425781 20.964844 C 21.527344 19.863281 22.390625 18.59375 23.015625 17.15625 C 23.640625 15.710938 23.953125 14.171875 23.953125 12.539062 C 23.953125 10.90625 23.640625 9.371094 23.015625 7.933594 C 22.390625 6.488281 21.527344 5.214844 20.425781 4.113281 C 19.324219 3.011719 18.050781 2.148438 16.605469 1.523438 C 15.160156 0.898438 13.621094 0.585938 11.988281 0.585938 C 10.355469 0.585938 8.816406 0.898438 7.371094 1.523438 C 5.933594 2.148438 4.664062 3.011719 3.5625 4.113281 C 2.46875 5.214844 1.609375 6.488281 0.984375 7.933594 C 0.359375 9.371094 0.046875 10.90625 0.046875 12.539062 C 0.046875 14.171875 0.359375 15.710938 0.984375 17.15625 C 1.609375 18.59375 2.472656 19.863281 3.574219 20.964844 C 4.675781 22.066406 5.945312 22.929688 7.382812 23.554688 C 8.828125 24.179688 10.367188 24.492188 12 24.492188 Z M 12 22.5 C 10.617188 22.5 9.324219 22.242188 8.121094 21.726562 C 6.917969 21.210938 5.859375 20.5 4.945312 19.59375 C 4.039062 18.679688 3.328125 17.621094 2.8125 16.417969 C 2.304688 15.214844 2.050781 13.921875 2.050781 12.539062 C 2.050781 11.15625 2.304688 9.863281 2.8125 8.660156 C 3.328125 7.457031 4.039062 6.398438 4.945312 5.484375 C 5.851562 4.570312 6.90625 3.859375 8.109375 3.351562 C 9.3125 2.835938 10.605469 2.578125 11.988281 2.578125 C 13.371094 2.578125 14.664062 2.835938 15.867188 3.351562 C 17.078125 3.859375 18.136719 4.570312 19.042969 5.484375 C 19.957031 6.398438 20.671875 7.457031 21.1875 8.660156 C 21.703125 9.863281 21.960938 11.15625 21.960938 12.539062 C 21.960938 13.921875 21.703125 15.214844 21.1875 16.417969 C 20.679688 17.621094 19.96875 18.679688 19.054688 19.59375 C 18.140625 20.5 17.082031 21.210938 15.878906 21.726562 C 14.675781 22.242188 13.382812 22.5 12 22.5 Z M 7.230469 17.859375 L 16.957031 17.859375 C 17.464844 17.859375 17.859375 17.710938 18.140625 17.414062 C 18.429688 17.117188 18.574219 16.679688 18.574219 16.101562 L 18.574219 11.191406 L 5.4375 11.191406 L 5.4375 16.101562 C 5.4375 16.679688 5.585938 17.117188 5.882812 17.414062 C 6.1875 17.710938 6.636719 17.859375 7.230469 17.859375 Z M 5.4375 10.242188 L 18.574219 10.242188 L 18.574219 9.808594 C 18.574219 9.230469 18.421875 8.792969 18.117188 8.496094 C 17.8125 8.199219 17.367188 8.050781 16.78125 8.050781 L 11.191406 8.050781 C 10.988281 8.050781 10.820312 8.023438 10.6875 7.96875 C 10.5625 7.914062 10.429688 7.828125 10.289062 7.710938 L 9.925781 7.429688 C 9.730469 7.28125 9.546875 7.175781 9.375 7.113281 C 9.210938 7.050781 8.992188 7.019531 8.71875 7.019531 L 7.007812 7.019531 C 6.507812 7.019531 6.121094 7.164062 5.847656 7.453125 C 5.574219 7.734375 5.4375 8.15625 5.4375 8.71875 Z M 5.4375 10.242188 "/>
</g>
</svg>
