<?xml version="1.0" encoding="UTF-8"?>
<svg xmlns="http://www.w3.org/2000/svg" xmlns:xlink="http://www.w3.org/1999/xlink" width="24" height="25.5" viewBox="0 0 24 25.5" version="1.1">
<g id="surface1">
<path style=" stroke:none;fill-rule:nonzero;fill:rgb(100%,100%,100%);fill-opacity:1;" d="M 12 24.492188 C 13.632812 24.492188 15.167969 24.179688 16.605469 23.554688 C 18.050781 22.929688 19.324219 22.066406 20.425781 20.964844 C 21.527344 19.863281 22.390625 18.59375 23.015625 17.15625 C 23.640625 15.710938 23.953125 14.171875 23.953125 12.539062 C 23.953125 10.90625 23.640625 9.371094 23.015625 7.933594 C 22.390625 6.488281 21.527344 5.214844 20.425781 4.113281 C 19.324219 3.011719 18.050781 2.148438 16.605469 1.523438 C 15.160156 0.898438 13.621094 0.585938 11.988281 0.585938 C 10.355469 0.585938 8.816406 0.898438 7.371094 1.523438 C 5.933594 2.148438 4.664062 3.011719 3.5625 4.113281 C 2.46875 5.214844 1.609375 6.488281 0.984375 7.933594 C 0.359375 9.371094 0.046875 10.90625 0.046875 12.539062 C 0.046875 14.171875 0.359375 15.710938 0.984375 17.15625 C 1.609375 18.59375 2.472656 19.863281 3.574219 20.964844 C 4.675781 22.066406 5.945312 22.929688 7.382812 23.554688 C 8.828125 24.179688 10.367188 24.492188 12 24.492188 Z M 7.136719 18.503906 C 6.800781 18.394531 6.558594 18.265625 6.410156 18.117188 C 6.261719 17.96875 6.132812 17.726562 6.023438 17.390625 C 5.867188 16.828125 5.777344 16.234375 5.753906 15.609375 C 5.738281 14.984375 5.792969 14.359375 5.917969 13.734375 L 10.792969 18.609375 C 9.488281 18.867188 8.269531 18.832031 7.136719 18.503906 Z M 15.492188 16.042969 C 14.992188 16.558594 14.449219 17 13.863281 17.367188 C 13.285156 17.734375 12.6875 18.027344 12.070312 18.246094 L 6.269531 12.457031 C 6.496094 11.839844 6.789062 11.242188 7.148438 10.664062 C 7.515625 10.078125 7.957031 9.535156 8.472656 9.035156 C 8.980469 8.519531 9.523438 8.078125 10.101562 7.710938 C 10.6875 7.34375 11.289062 7.050781 11.90625 6.832031 L 17.695312 12.621094 C 17.476562 13.238281 17.183594 13.839844 16.816406 14.425781 C 16.449219 15.003906 16.007812 15.542969 15.492188 16.042969 Z M 11.144531 15.070312 C 11.253906 14.929688 11.253906 14.792969 11.144531 14.660156 L 10.722656 14.214844 L 11.15625 13.792969 L 11.566406 14.214844 C 11.628906 14.285156 11.699219 14.320312 11.777344 14.320312 C 11.863281 14.3125 11.933594 14.277344 11.988281 14.214844 C 12.050781 14.160156 12.082031 14.089844 12.082031 14.003906 C 12.082031 13.917969 12.050781 13.847656 11.988281 13.792969 L 11.554688 13.371094 L 12 12.949219 L 12.433594 13.359375 C 12.488281 13.421875 12.554688 13.453125 12.632812 13.453125 C 12.71875 13.453125 12.785156 13.421875 12.832031 13.359375 C 12.902344 13.3125 12.933594 13.246094 12.925781 13.160156 C 12.917969 13.074219 12.886719 13.003906 12.832031 12.949219 L 12.410156 12.515625 L 12.84375 12.082031 L 13.277344 12.503906 C 13.339844 12.566406 13.410156 12.601562 13.488281 12.609375 C 13.566406 12.609375 13.632812 12.578125 13.6875 12.515625 C 13.75 12.453125 13.78125 12.382812 13.78125 12.304688 C 13.78125 12.21875 13.75 12.152344 13.6875 12.105469 L 13.265625 11.671875 L 13.699219 11.238281 L 14.121094 11.660156 C 14.191406 11.714844 14.265625 11.746094 14.34375 11.753906 C 14.421875 11.753906 14.488281 11.726562 14.542969 11.671875 C 14.605469 11.601562 14.636719 11.527344 14.636719 11.449219 C 14.636719 11.371094 14.605469 11.300781 14.542969 11.238281 L 13.277344 9.972656 C 13.214844 9.910156 13.144531 9.882812 13.066406 9.890625 C 12.988281 9.890625 12.917969 9.917969 12.855469 9.972656 C 12.800781 10.035156 12.773438 10.105469 12.773438 10.183594 C 12.78125 10.261719 12.808594 10.335938 12.855469 10.40625 L 13.289062 10.828125 L 12.84375 11.25 L 12.421875 10.828125 C 12.367188 10.765625 12.300781 10.734375 12.222656 10.734375 C 12.144531 10.734375 12.074219 10.765625 12.011719 10.828125 C 11.949219 10.890625 11.917969 10.964844 11.917969 11.050781 C 11.917969 11.128906 11.949219 11.195312 12.011719 11.25 L 12.445312 11.671875 L 12 12.117188 L 11.566406 11.683594 C 11.511719 11.621094 11.441406 11.589844 11.355469 11.589844 C 11.277344 11.589844 11.214844 11.625 11.167969 11.695312 C 11.105469 11.742188 11.074219 11.808594 11.074219 11.894531 C 11.074219 11.972656 11.105469 12.039062 11.167969 12.09375 L 11.578125 12.515625 L 11.15625 12.960938 L 10.722656 12.527344 C 10.582031 12.378906 10.441406 12.382812 10.300781 12.539062 C 10.238281 12.59375 10.207031 12.664062 10.207031 12.75 C 10.207031 12.835938 10.238281 12.90625 10.300781 12.960938 L 10.734375 13.371094 L 10.300781 13.804688 L 9.878906 13.382812 C 9.738281 13.265625 9.59375 13.265625 9.445312 13.382812 C 9.3125 13.53125 9.3125 13.671875 9.445312 13.804688 L 10.722656 15.058594 C 10.871094 15.191406 11.011719 15.195312 11.144531 15.070312 Z M 17.953125 7.6875 C 18.28125 8.820312 18.316406 10.039062 18.058594 11.34375 L 13.183594 6.46875 C 14.496094 6.210938 15.714844 6.246094 16.839844 6.574219 C 17.175781 6.691406 17.414062 6.824219 17.554688 6.972656 C 17.703125 7.113281 17.835938 7.351562 17.953125 7.6875 Z M 17.953125 7.6875 "/>
</g>
</svg>
