<?xml version="1.0" encoding="UTF-8"?>
<svg xmlns="http://www.w3.org/2000/svg" xmlns:xlink="http://www.w3.org/1999/xlink" width="24" height="25.5" viewBox="0 0 24 25.5" version="1.1">
<g id="surface1">
<path style=" stroke:none;fill-rule:nonzero;fill:rgb(100%,100%,100%);fill-opacity:1;" d="M 12 24.492188 C 13.632812 24.492188 15.167969 24.179688 16.605469 23.554688 C 18.050781 22.929688 19.324219 22.066406 20.425781 20.964844 C 21.527344 19.863281 22.390625 18.59375 23.015625 17.15625 C 23.640625 15.710938 23.953125 14.171875 23.953125 12.539062 C 23.953125 10.90625 23.640625 9.371094 23.015625 7.933594 C 22.390625 6.488281 21.527344 5.214844 20.425781 4.113281 C 19.324219 3.011719 18.050781 2.148438 16.605469 1.523438 C 15.160156 0.898438 13.621094 0.585938 11.988281 0.585938 C 10.355469 0.585938 8.816406 0.898438 7.371094 1.523438 C 5.933594 2.148438 4.664062 3.011719 3.5625 4.113281 C 2.46875 5.214844 1.609375 6.488281 0.984375 7.933594 C 0.359375 9.371094 0.046875 10.90625 0.046875 12.539062 C 0.046875 14.171875 0.359375 15.710938 0.984375 17.15625 C 1.609375 18.59375 2.472656 19.863281 3.574219 20.964844 C 4.675781 22.066406 5.945312 22.929688 7.382812 23.554688 C 8.828125 24.179688 10.367188 24.492188 12 24.492188 Z M 12 22.5 C 10.617188 22.5 9.324219 22.242188 8.121094 21.726562 C 6.917969 21.210938 5.859375 20.5 4.945312 19.59375 C 4.039062 18.679688 3.328125 17.621094 2.8125 16.417969 C 2.304688 15.214844 2.050781 13.921875 2.050781 12.539062 C 2.050781 11.15625 2.304688 9.863281 2.8125 8.660156 C 3.328125 7.457031 4.039062 6.398438 4.945312 5.484375 C 5.851562 4.570312 6.90625 3.859375 8.109375 3.351562 C 9.3125 2.835938 10.605469 2.578125 11.988281 2.578125 C 13.371094 2.578125 14.664062 2.835938 15.867188 3.351562 C 17.078125 3.859375 18.136719 4.570312 19.042969 5.484375 C 19.957031 6.398438 20.671875 7.457031 21.1875 8.660156 C 21.703125 9.863281 21.960938 11.15625 21.960938 12.539062 C 21.960938 13.921875 21.703125 15.214844 21.1875 16.417969 C 20.679688 17.621094 19.96875 18.679688 19.054688 19.59375 C 18.140625 20.5 17.082031 21.210938 15.878906 21.726562 C 14.675781 22.242188 13.382812 22.5 12 22.5 Z M 7.277344 18.316406 C 8.386719 18.644531 9.570312 18.679688 10.828125 18.421875 L 6.105469 13.699219 C 5.980469 14.308594 5.925781 14.914062 5.941406 15.515625 C 5.964844 16.117188 6.054688 16.695312 6.210938 17.25 C 6.320312 17.578125 6.441406 17.8125 6.574219 17.953125 C 6.714844 18.085938 6.949219 18.207031 7.277344 18.316406 Z M 15.386719 15.9375 C 15.886719 15.445312 16.3125 14.917969 16.664062 14.355469 C 17.023438 13.792969 17.308594 13.210938 17.519531 12.609375 L 11.917969 7.007812 C 11.316406 7.21875 10.734375 7.503906 10.171875 7.863281 C 9.609375 8.214844 9.078125 8.640625 8.578125 9.140625 C 8.085938 9.632812 7.660156 10.160156 7.300781 10.722656 C 6.949219 11.285156 6.664062 11.867188 6.445312 12.46875 L 12.058594 18.070312 C 12.660156 17.859375 13.242188 17.578125 13.804688 17.226562 C 14.367188 16.867188 14.894531 16.4375 15.386719 15.9375 Z M 11.167969 15 C 11.035156 15.109375 10.898438 15.105469 10.757812 14.988281 L 9.515625 13.769531 C 9.398438 13.644531 9.398438 13.507812 9.515625 13.359375 C 9.664062 13.242188 9.804688 13.242188 9.9375 13.359375 L 10.347656 13.769531 L 10.769531 13.347656 L 10.347656 12.949219 C 10.292969 12.894531 10.265625 12.828125 10.265625 12.75 C 10.265625 12.664062 10.292969 12.59375 10.347656 12.539062 C 10.488281 12.390625 10.625 12.386719 10.757812 12.527344 L 11.179688 12.949219 L 11.589844 12.515625 L 11.191406 12.105469 C 11.128906 12.050781 11.097656 11.984375 11.097656 11.90625 C 11.097656 11.828125 11.128906 11.765625 11.191406 11.71875 C 11.238281 11.65625 11.300781 11.625 11.378906 11.625 C 11.457031 11.617188 11.523438 11.644531 11.578125 11.707031 L 12 12.128906 L 12.433594 11.695312 L 12.011719 11.285156 C 11.949219 11.230469 11.917969 11.164062 11.917969 11.085938 C 11.917969 11.007812 11.949219 10.9375 12.011719 10.875 C 12.074219 10.820312 12.140625 10.792969 12.210938 10.792969 C 12.289062 10.792969 12.355469 10.820312 12.410156 10.875 L 12.820312 11.285156 L 13.253906 10.875 L 12.832031 10.464844 C 12.785156 10.402344 12.757812 10.332031 12.75 10.253906 C 12.75 10.175781 12.777344 10.105469 12.832031 10.042969 C 12.894531 9.996094 12.960938 9.972656 13.03125 9.972656 C 13.109375 9.964844 13.179688 9.988281 13.242188 10.042969 L 14.472656 11.273438 C 14.535156 11.335938 14.5625 11.40625 14.554688 11.484375 C 14.554688 11.5625 14.527344 11.632812 14.472656 11.695312 C 14.417969 11.75 14.351562 11.777344 14.273438 11.777344 C 14.195312 11.769531 14.125 11.738281 14.0625 11.683594 L 13.652344 11.273438 L 13.230469 11.695312 L 13.640625 12.117188 C 13.703125 12.164062 13.734375 12.226562 13.734375 12.304688 C 13.734375 12.382812 13.703125 12.453125 13.640625 12.515625 C 13.585938 12.578125 13.519531 12.609375 13.441406 12.609375 C 13.363281 12.601562 13.296875 12.566406 13.242188 12.503906 L 12.820312 12.09375 L 12.398438 12.515625 L 12.808594 12.9375 C 12.863281 12.992188 12.890625 13.0625 12.890625 13.148438 C 12.898438 13.226562 12.871094 13.289062 12.808594 13.335938 C 12.761719 13.398438 12.699219 13.429688 12.621094 13.429688 C 12.542969 13.429688 12.476562 13.398438 12.421875 13.335938 L 12 12.9375 L 11.566406 13.347656 L 11.988281 13.757812 C 12.050781 13.8125 12.082031 13.882812 12.082031 13.96875 C 12.082031 14.046875 12.050781 14.113281 11.988281 14.167969 C 11.933594 14.222656 11.867188 14.253906 11.789062 14.261719 C 11.710938 14.261719 11.640625 14.230469 11.578125 14.167969 L 11.179688 13.757812 L 10.757812 14.167969 L 11.167969 14.601562 C 11.285156 14.726562 11.285156 14.859375 11.167969 15 Z M 17.765625 7.828125 C 17.65625 7.5 17.53125 7.269531 17.390625 7.136719 C 17.257812 6.996094 17.027344 6.871094 16.699219 6.761719 C 15.597656 6.433594 14.414062 6.398438 13.148438 6.65625 L 17.871094 11.378906 C 18.128906 10.113281 18.09375 8.929688 17.765625 7.828125 Z M 17.765625 7.828125 "/>
</g>
</svg>
