<svg width="16" height="17" viewBox="0 0 16 17" fill="none" xmlns="http://www.w3.org/2000/svg">
<path d="M8 16.3281C9.08854 16.3281 10.112 16.1198 11.0703 15.7031C12.0339 15.2865 12.8828 14.7109 13.6172 13.9766C14.3516 13.2422 14.9271 12.3958 15.3438 11.4375C15.7604 10.474 15.9688 9.44792 15.9688 8.35938C15.9688 7.27083 15.7604 6.2474 15.3438 5.28906C14.9271 4.32552 14.3516 3.47656 13.6172 2.74219C12.8828 2.00781 12.0339 1.43229 11.0703 1.01562C10.1068 0.598958 9.08073 0.390625 7.99219 0.390625C6.90365 0.390625 5.8776 0.598958 4.91406 1.01562C3.95573 1.43229 3.10938 2.00781 2.375 2.74219C1.64583 3.47656 1.07292 4.32552 0.65625 5.28906C0.239583 6.2474 0.03125 7.27083 0.03125 8.35938C0.03125 9.44792 0.239583 10.474 0.65625 11.4375C1.07292 12.3958 1.64844 13.2422 2.38281 13.9766C3.11719 14.7109 3.96354 15.2865 4.92188 15.7031C5.88542 16.1198 6.91146 16.3281 8 16.3281ZM8 15C7.07812 15 6.21615 14.8281 5.41406 14.4844C4.61198 14.1406 3.90625 13.6667 3.29688 13.0625C2.69271 12.4531 2.21875 11.7474 1.875 10.9453C1.53646 10.1432 1.36719 9.28125 1.36719 8.35938C1.36719 7.4375 1.53646 6.57552 1.875 5.77344C2.21875 4.97135 2.69271 4.26562 3.29688 3.65625C3.90104 3.04688 4.60417 2.57292 5.40625 2.23438C6.20833 1.89062 7.07031 1.71875 7.99219 1.71875C8.91406 1.71875 9.77604 1.89062 10.5781 2.23438C11.3854 2.57292 12.0911 3.04688 12.6953 3.65625C13.3047 4.26562 13.7812 4.97135 14.125 5.77344C14.4688 6.57552 14.6406 7.4375 14.6406 8.35938C14.6406 9.28125 14.4688 10.1432 14.125 10.9453C13.7865 11.7474 13.3125 12.4531 12.7031 13.0625C12.0938 13.6667 11.388 14.1406 10.5859 14.4844C9.78385 14.8281 8.92188 15 8 15ZM9.07031 11.2266C9.14844 11.2266 9.21875 11.2161 9.28125 11.1953C9.34896 11.1745 9.41927 11.1406 9.49219 11.0938L13.2188 8.90625C13.349 8.83333 13.4427 8.75 13.5 8.65625C13.5573 8.5625 13.5859 8.46354 13.5859 8.35938C13.5859 8.26042 13.5573 8.16667 13.5 8.07812C13.4427 7.98438 13.349 7.89844 13.2188 7.82031L9.49219 5.63281C9.41927 5.58594 9.34896 5.55208 9.28125 5.53125C9.21875 5.51042 9.14844 5.5 9.07031 5.5C8.92969 5.5 8.80729 5.55208 8.70312 5.65625C8.60417 5.76042 8.55469 5.91406 8.55469 6.11719V10.6094C8.55469 10.8125 8.60417 10.9661 8.70312 11.0703C8.80729 11.1745 8.92969 11.2266 9.07031 11.2266ZM4.0625 11.2266C4.13542 11.2266 4.20573 11.2161 4.27344 11.1953C4.34115 11.1745 4.41146 11.1406 4.48438 11.0938L8.20312 8.90625C8.33333 8.83333 8.42708 8.75 8.48438 8.65625C8.54167 8.5625 8.57031 8.46354 8.57031 8.35938C8.57031 8.26042 8.54167 8.16667 8.48438 8.07812C8.42708 7.98438 8.33333 7.89844 8.20312 7.82031L4.48438 5.63281C4.41146 5.58594 4.34115 5.55208 4.27344 5.53125C4.20573 5.51042 4.13542 5.5 4.0625 5.5C3.91667 5.5 3.79167 5.55208 3.6875 5.65625C3.58854 5.76042 3.53906 5.91406 3.53906 6.11719V10.6094C3.53906 10.8125 3.58854 10.9661 3.6875 11.0703C3.79167 11.1745 3.91667 11.2266 4.0625 11.2266Z" fill="white"/>
</svg>
