<svg width="16" height="14" viewBox="0 0 16 14" fill="none" xmlns="http://www.w3.org/2000/svg">
<path d="M1.625 13.8203C1.8125 13.8203 1.97135 13.7578 2.10156 13.6328C2.23177 13.5078 2.29688 13.3542 2.29688 13.1719V1.57031C2.29688 1.38281 2.23177 1.22656 2.10156 1.10156C1.97135 0.976562 1.8125 0.914062 1.625 0.914062C1.44271 0.914062 1.28646 0.976562 1.15625 1.10156C1.02604 1.22656 0.960938 1.38281 0.960938 1.57031V13.1719C0.960938 13.3542 1.02604 13.5078 1.15625 13.6328C1.28646 13.7578 1.44271 13.8203 1.625 13.8203ZM5.875 13.5078C6.03646 13.5078 6.1875 13.4818 6.32812 13.4297C6.46875 13.3828 6.61979 13.3125 6.78125 13.2188L14.7422 8.53125C15.0182 8.36458 15.2188 8.1849 15.3438 7.99219C15.4688 7.79948 15.5312 7.59115 15.5312 7.36719C15.5312 7.14323 15.4688 6.9349 15.3438 6.74219C15.2188 6.54948 15.0182 6.36979 14.7422 6.20312L6.78125 1.51562C6.61979 1.42188 6.46875 1.35156 6.32812 1.30469C6.1875 1.2526 6.03646 1.22656 5.875 1.22656C5.57292 1.22656 5.3099 1.34115 5.08594 1.57031C4.86198 1.79948 4.75 2.13281 4.75 2.57031V12.1641C4.75 12.6016 4.86198 12.9349 5.08594 13.1641C5.3099 13.3932 5.57292 13.5078 5.875 13.5078ZM6.21875 12.0625C6.16146 12.0625 6.11198 12.0443 6.07031 12.0078C6.02865 11.9661 6.00781 11.9062 6.00781 11.8281V2.90625C6.00781 2.82812 6.02865 2.77083 6.07031 2.73438C6.11198 2.69271 6.16146 2.67188 6.21875 2.67188C6.24479 2.67188 6.27344 2.67708 6.30469 2.6875C6.33594 2.69792 6.3724 2.71615 6.41406 2.74219L13.8359 7.14844C13.9505 7.21094 14.0078 7.28385 14.0078 7.36719C14.0078 7.45052 13.9505 7.52344 13.8359 7.58594L6.41406 11.9922C6.3724 12.0182 6.33594 12.0365 6.30469 12.0469C6.27344 12.0573 6.24479 12.0625 6.21875 12.0625Z" fill="white"/>
</svg>
