<?xml version="1.0" encoding="UTF-8"?>
<svg xmlns="http://www.w3.org/2000/svg" xmlns:xlink="http://www.w3.org/1999/xlink" width="24" height="14" viewBox="0 0 24 14" version="1.1">
<g id="surface1">
<path style=" stroke:none;fill-rule:nonzero;fill:rgb(100%,100%,100%);fill-opacity:1;" d="M 22.734375 13.820312 C 22.917969 13.820312 23.074219 13.757812 23.203125 13.632812 C 23.332031 13.507812 23.398438 13.355469 23.398438 13.171875 L 23.398438 1.570312 C 23.398438 1.382812 23.332031 1.226562 23.203125 1.101562 C 23.074219 0.976562 22.917969 0.914062 22.734375 0.914062 C 22.546875 0.914062 22.386719 0.976562 22.257812 1.101562 C 22.128906 1.226562 22.0625 1.382812 22.0625 1.570312 L 22.0625 13.171875 C 22.0625 13.355469 22.128906 13.507812 22.257812 13.632812 C 22.386719 13.757812 22.546875 13.820312 22.734375 13.820312 Z M 1.71875 13.507812 C 1.878906 13.507812 2.03125 13.480469 2.171875 13.429688 C 2.3125 13.382812 2.460938 13.3125 2.617188 13.21875 L 10.578125 8.53125 C 10.855469 8.363281 11.054688 8.183594 11.179688 7.992188 C 11.304688 7.800781 11.367188 7.589844 11.367188 7.367188 C 11.367188 7.144531 11.304688 6.933594 11.179688 6.742188 C 11.054688 6.550781 10.855469 6.371094 10.578125 6.203125 L 2.617188 1.515625 C 2.457031 1.421875 2.304688 1.351562 2.164062 1.304688 C 2.027344 1.253906 1.878906 1.226562 1.71875 1.226562 C 1.410156 1.226562 1.144531 1.339844 0.921875 1.570312 C 0.703125 1.800781 0.59375 2.132812 0.59375 2.570312 L 0.59375 12.164062 C 0.59375 12.601562 0.703125 12.933594 0.921875 13.164062 C 1.144531 13.394531 1.410156 13.507812 1.71875 13.507812 Z M 2.0625 12.0625 C 2.003906 12.0625 1.953125 12.042969 1.90625 12.007812 C 1.863281 11.964844 1.84375 11.90625 1.84375 11.828125 L 1.84375 2.90625 C 1.84375 2.828125 1.863281 2.769531 1.90625 2.734375 C 1.953125 2.691406 2.003906 2.671875 2.0625 2.671875 C 2.089844 2.671875 2.117188 2.675781 2.148438 2.6875 C 2.179688 2.699219 2.214844 2.714844 2.25 2.742188 L 9.679688 7.148438 C 9.789062 7.210938 9.84375 7.285156 9.84375 7.367188 C 9.84375 7.449219 9.789062 7.523438 9.679688 7.585938 L 2.25 11.992188 C 2.214844 12.019531 2.179688 12.035156 2.148438 12.046875 C 2.117188 12.058594 2.089844 12.0625 2.0625 12.0625 Z M 12.453125 13.507812 C 12.613281 13.507812 12.765625 13.480469 12.90625 13.429688 C 13.046875 13.382812 13.195312 13.3125 13.351562 13.21875 L 21.3125 8.53125 C 21.589844 8.363281 21.789062 8.183594 21.914062 7.992188 C 22.039062 7.800781 22.101562 7.589844 22.101562 7.367188 C 22.101562 7.144531 22.039062 6.933594 21.914062 6.742188 C 21.789062 6.550781 21.589844 6.371094 21.3125 6.203125 L 13.351562 1.515625 C 13.191406 1.421875 13.039062 1.351562 12.898438 1.304688 C 12.761719 1.253906 12.613281 1.226562 12.453125 1.226562 C 12.144531 1.226562 11.878906 1.339844 11.65625 1.570312 C 11.4375 1.800781 11.328125 2.132812 11.328125 2.570312 L 11.328125 12.164062 C 11.328125 12.601562 11.4375 12.933594 11.65625 13.164062 C 11.878906 13.394531 12.144531 13.507812 12.453125 13.507812 Z M 12.796875 12.0625 C 12.738281 12.0625 12.691406 12.042969 12.648438 12.007812 C 12.605469 11.964844 12.585938 11.90625 12.585938 11.828125 L 12.585938 2.90625 C 12.585938 2.828125 12.605469 2.769531 12.648438 2.734375 C 12.691406 2.691406 12.738281 2.671875 12.796875 2.671875 C 12.824219 2.671875 12.851562 2.675781 12.882812 2.6875 C 12.914062 2.699219 12.949219 2.714844 12.984375 2.742188 L 20.414062 7.148438 C 20.523438 7.210938 20.578125 7.285156 20.578125 7.367188 C 20.578125 7.449219 20.523438 7.523438 20.414062 7.585938 L 12.984375 11.992188 C 12.949219 12.019531 12.914062 12.035156 12.882812 12.046875 C 12.851562 12.058594 12.824219 12.0625 12.796875 12.0625 Z M 12.796875 12.0625 "/>
</g>
</svg>
