<svg xmlns="http://www.w3.org/2000/svg" width="24" height="24"><path style="stroke:none;fill-rule:nonzero;fill:#fff;fill-opacity:1" d="M2.438 23.691c.28 0 .519-.105.714-.32.192-.203.297-.492.293-.789V2.692a1.156 1.156 0 0 0-.293-.805.946.946 0 0 0-1.418 0c-.195.21-.3.5-.293.804v19.891c-.004.297.102.586.293.79.188.21.442.323.704.32Zm6.374-.535c.243 0 .47-.047.68-.133a3.65 3.65 0 0 0 .68-.363l11.941-8.035c.414-.285.715-.594.903-.926.183-.316.28-.687.28-1.07 0-.379-.097-.754-.28-1.07-.188-.332-.489-.637-.903-.926L10.172 2.598a3.539 3.539 0 0 0-.68-.36 1.718 1.718 0 0 0-.68-.136c-.453 0-.847.199-1.183.59-.336.394-.504.964-.504 1.714v16.446c0 .75.168 1.32.504 1.714.336.395.73.59 1.184.59Zm.516-2.476a.31.31 0 0 1-.223-.094.462.462 0 0 1-.093-.309V4.984c0-.136.031-.234.093-.296a.296.296 0 0 1 .352-.079.686.686 0 0 1 .164.094l11.133 7.555c.172.105.258.23.258.37 0 .145-.086.27-.258.376L9.62 20.559a.507.507 0 0 1-.293.121Zm0 0"/></svg>