<?xml version="1.0" encoding="UTF-8"?>
<svg xmlns="http://www.w3.org/2000/svg" xmlns:xlink="http://www.w3.org/1999/xlink" width="24" height="25.5" viewBox="0 0 24 25.5" version="1.1">
<g id="surface1">
<path style=" stroke:none;fill-rule:nonzero;fill:rgb(100%,100%,100%);fill-opacity:1;" d="M 12 24.492188 C 13.632812 24.492188 15.167969 24.179688 16.605469 23.554688 C 18.050781 22.929688 19.324219 22.066406 20.425781 20.964844 C 21.527344 19.863281 22.390625 18.59375 23.015625 17.15625 C 23.640625 15.710938 23.953125 14.171875 23.953125 12.539062 C 23.953125 10.90625 23.640625 9.371094 23.015625 7.933594 C 22.390625 6.488281 21.527344 5.214844 20.425781 4.113281 C 19.324219 3.011719 18.050781 2.148438 16.605469 1.523438 C 15.160156 0.898438 13.621094 0.585938 11.988281 0.585938 C 10.355469 0.585938 8.816406 0.898438 7.371094 1.523438 C 5.933594 2.148438 4.664062 3.011719 3.5625 4.113281 C 2.46875 5.214844 1.609375 6.488281 0.984375 7.933594 C 0.359375 9.371094 0.046875 10.90625 0.046875 12.539062 C 0.046875 14.171875 0.359375 15.710938 0.984375 17.15625 C 1.609375 18.59375 2.472656 19.863281 3.574219 20.964844 C 4.675781 22.066406 5.945312 22.929688 7.382812 23.554688 C 8.828125 24.179688 10.367188 24.492188 12 24.492188 Z M 17.238281 16.394531 C 17.238281 16.894531 16.988281 17.144531 16.488281 17.144531 L 15.1875 17.144531 C 14.6875 17.144531 14.4375 16.894531 14.4375 16.394531 L 14.4375 12.902344 C 14.351562 13.097656 14.191406 13.261719 13.957031 13.394531 L 8.203125 16.78125 C 8.09375 16.851562 7.984375 16.902344 7.875 16.933594 C 7.773438 16.964844 7.667969 16.980469 7.558594 16.980469 C 7.332031 16.980469 7.136719 16.902344 6.972656 16.746094 C 6.816406 16.589844 6.738281 16.351562 6.738281 16.03125 L 6.738281 9.082031 C 6.738281 8.769531 6.816406 8.535156 6.972656 8.378906 C 7.136719 8.214844 7.332031 8.132812 7.558594 8.132812 C 7.667969 8.132812 7.773438 8.148438 7.875 8.179688 C 7.984375 8.210938 8.09375 8.261719 8.203125 8.332031 L 13.957031 11.71875 C 14.191406 11.851562 14.351562 12.015625 14.4375 12.210938 L 14.4375 8.683594 C 14.4375 8.183594 14.6875 7.933594 15.1875 7.933594 L 16.488281 7.933594 C 16.988281 7.933594 17.238281 8.183594 17.238281 8.683594 Z M 17.238281 16.394531 "/>
</g>
</svg>
