<svg width="164" height="130" viewBox="0 0 164 130" fill="none" xmlns="http://www.w3.org/2000/svg">
<path d="M68.6875 79.125C73.3958 79.125 77.75 78.25 81.75 76.5C85.7917 74.75 89.3125 72.2917 92.3125 69.125C95.3542 65.9167 97.7083 62.1458 99.375 57.8125C101.083 53.4375 101.938 48.6667 101.938 43.5C101.938 38.5417 101.25 33.8958 99.875 29.5625C98.5 25.2292 96.5208 21.3333 93.9375 17.875L81.5625 30.3125C83.1458 32.2292 84.375 34.3958 85.25 36.8125C86.125 39.2292 86.5625 41.7917 86.5625 44.5C86.5625 48.3333 85.75 51.7292 84.125 54.6875C82.5 57.6458 80.2917 59.9792 77.5 61.6875C74.7083 63.3958 71.5625 64.25 68.0625 64.25C65.2708 64.25 62.7292 63.7083 60.4375 62.625C58.1458 61.5 56.3333 60.0417 55 58.25C53.6667 56.4167 53 54.4375 53 52.3125C53 51.2292 53.375 50.375 54.125 49.75C54.875 49.0833 55.7083 48.75 56.625 48.75C57.375 48.75 58.0625 49 58.6875 49.5C59.3125 49.9583 59.7708 50.7083 60.0625 51.75C60.4792 53.2917 61.3333 54.5833 62.625 55.625C63.9167 56.625 65.6042 57.125 67.6875 57.125C71.0208 57.125 73.6667 56.0417 75.625 53.875C77.5833 51.6667 78.5625 48.7083 78.5625 45C78.5625 42.0417 77.7917 39.375 76.25 37C74.75 34.625 72.7083 32.75 70.125 31.375C67.5417 29.9583 64.625 29.25 61.375 29.25C57.4167 29.25 53.7917 30.2708 50.5 32.3125C47.2083 34.3542 44.5625 37.125 42.5625 40.625C40.6042 44.125 39.625 48.0208 39.625 52.3125C39.625 57.3125 40.875 61.8333 43.375 65.875C45.9167 69.9167 49.3542 73.1458 53.6875 75.5625C58.0625 77.9375 63.0625 79.125 68.6875 79.125ZM61.3125 21.0625C63.8125 21.0625 66.3333 21.4167 68.875 22.125C71.4167 22.7917 73.75 23.8125 75.875 25.1875L88.875 12.25C85.375 9 81.2708 6.39583 76.5625 4.4375C71.8958 2.4375 66.8125 1.25 61.3125 0.875V21.0625ZM42.0625 28.25C45.5208 25.2917 49.3958 23.2292 53.6875 22.0625V0.6875C48.1875 0.979167 42.9583 1.97917 38 3.6875C33.0833 5.35417 28.5625 7.625 24.4375 10.5L42.0625 28.25ZM1.125 48.375H31.8125C32.0625 45.7917 32.6458 43.2708 33.5625 40.8125C34.4792 38.3125 35.6458 36.0208 37.0625 33.9375L18.5 15.25C14 19.375 10.25 24.25 7.25 29.875C4.25 35.5 2.20833 41.6667 1.125 48.375ZM0.1875 59.4375C0.1875 67.0208 1.1875 74.1458 3.1875 80.8125C5.22917 87.4792 8.14583 93.5625 11.9375 99.0625L38.3125 72.5625C36.4792 70.1458 35 67.5208 33.875 64.6875C32.75 61.8542 32.0208 58.9375 31.6875 55.9375H0.25C0.208333 56.5625 0.1875 57.1667 0.1875 57.75C0.1875 58.2917 0.1875 58.8542 0.1875 59.4375ZM16.5625 105.125C22.0625 111.333 28.7292 116.438 36.5625 120.438C44.3958 124.479 53.1667 127.125 62.875 128.375V86.8125C59.125 86.3125 55.6042 85.3125 52.3125 83.8125C49.0208 82.2708 46.0833 80.3542 43.5 78.0625L16.5625 105.125ZM70.5 129.125C71.3333 129.167 72.1875 129.188 73.0625 129.188C73.9792 129.229 74.875 129.25 75.75 129.25C85.125 129.25 93.9583 127.958 102.25 125.375C110.583 122.792 118.229 119.146 125.188 114.438L91.375 80.8125C88.5417 82.6458 85.375 84.1458 81.875 85.3125C78.4167 86.4792 74.625 87.125 70.5 87.25V129.125ZM131.25 110C139.167 103.583 145.833 95.8958 151.25 86.9375C156.708 77.9375 160.625 68.3333 163 58.125C163.375 56.4167 163.25 54.9375 162.625 53.6875C162 52.4375 161.083 51.4792 159.875 50.8125C158.667 50.1458 157.375 49.8125 156 49.8125H109.562C109.229 54.1875 108.042 58.7292 106 63.4375C103.958 68.1042 101.042 72.2917 97.25 76L131.25 110Z" fill="white"/>
</svg>
