<svg width="128" height="128" viewBox="0 0 128 128" fill="none" xmlns="http://www.w3.org/2000/svg">
<path d="M63.9375 127.625C72.6458 127.625 80.8333 125.958 88.5 122.625C96.2083 119.292 103 114.688 108.875 108.812C114.75 102.938 119.354 96.1667 122.688 88.5C126.021 80.7917 127.688 72.5833 127.688 63.875C127.688 55.1667 126.021 46.9792 122.688 39.3125C119.354 31.6042 114.75 24.8125 108.875 18.9375C103 13.0625 96.2083 8.45833 88.5 5.125C80.7917 1.79167 72.5833 0.125 63.875 0.125C55.1667 0.125 46.9583 1.79167 39.25 5.125C31.5833 8.45833 24.8125 13.0625 18.9375 18.9375C13.1042 24.8125 8.52083 31.6042 5.1875 39.3125C1.85417 46.9792 0.1875 55.1667 0.1875 63.875C0.1875 72.5833 1.85417 80.7917 5.1875 88.5C8.52083 96.1667 13.125 102.938 19 108.812C24.875 114.688 31.6458 119.292 39.3125 122.625C47.0208 125.958 55.2292 127.625 63.9375 127.625ZM63.9375 117C56.5625 117 49.6667 115.625 43.25 112.875C36.8333 110.125 31.1875 106.333 26.3125 101.5C21.4792 96.625 17.6875 90.9792 14.9375 84.5625C12.2292 78.1458 10.875 71.25 10.875 63.875C10.875 56.5 12.2292 49.6042 14.9375 43.1875C17.6875 36.7708 21.4792 31.125 26.3125 26.25C31.1458 21.375 36.7708 17.5833 43.1875 14.875C49.6042 12.125 56.5 10.75 63.875 10.75C71.25 10.75 78.1458 12.125 84.5625 14.875C91.0208 17.5833 96.6667 21.375 101.5 26.25C106.375 31.125 110.188 36.7708 112.938 43.1875C115.688 49.6042 117.062 56.5 117.062 63.875C117.062 71.25 115.688 78.1458 112.938 84.5625C110.229 90.9792 106.438 96.625 101.562 101.5C96.6875 106.333 91.0417 110.125 84.625 112.875C78.2083 115.625 71.3125 117 63.9375 117ZM52.9375 95.1875C54.1042 95.1875 55.0625 94.8125 55.8125 94.0625C56.5625 93.3125 56.9375 92.3333 56.9375 91.125V84.5625H69.8125C70.7292 84.5625 71.4583 84.2708 72 83.6875C72.5833 83.0625 72.875 82.3125 72.875 81.4375C72.875 80.5625 72.5833 79.8333 72 79.25C71.4583 78.6667 70.7292 78.375 69.8125 78.375H56.9375V68.1875H77.8125C78.9375 68.1875 79.8542 67.8542 80.5625 67.1875C81.3125 66.4792 81.6875 65.5625 81.6875 64.4375C81.6875 63.3125 81.3125 62.4167 80.5625 61.75C79.8542 61.0833 78.9375 60.75 77.8125 60.75H56.9375V43.0625H80.125C81.2083 43.0625 82.1042 42.7292 82.8125 42.0625C83.5625 41.3542 83.9375 40.4375 83.9375 39.3125C83.9375 38.1875 83.5625 37.2708 82.8125 36.5625C82.1042 35.8542 81.2083 35.5 80.125 35.5H52.875C50.1667 35.5 48.8125 36.8958 48.8125 39.6875V78.375H43.8125C42.8958 78.375 42.1667 78.6667 41.625 79.25C41.0833 79.8333 40.8125 80.5625 40.8125 81.4375C40.8125 82.3125 41.0833 83.0625 41.625 83.6875C42.1667 84.2708 42.8958 84.5625 43.8125 84.5625H48.8125V91.1875C48.8125 92.3958 49.1875 93.375 49.9375 94.125C50.7292 94.8333 51.7292 95.1875 52.9375 95.1875Z" fill="white"/>
</svg>
