<?xml version="1.0" encoding="UTF-8"?>
<svg xmlns="http://www.w3.org/2000/svg" xmlns:xlink="http://www.w3.org/1999/xlink" width="24" height="13.846154" viewBox="0 0 24 13.846154" version="1.1">
<g id="surface1">
<path style=" stroke:none;fill-rule:nonzero;fill:rgb(100%,100%,100%);fill-opacity:1;" d="M 0.859375 6.699219 C 0.859375 7.660156 1.070312 8.535156 1.5 9.324219 C 1.933594 10.109375 2.546875 10.785156 3.347656 11.351562 C 4.148438 11.917969 5.109375 12.351562 6.222656 12.65625 C 7.339844 12.964844 8.582031 13.117188 9.953125 13.117188 C 11.320312 13.117188 12.566406 12.964844 13.679688 12.65625 C 14.800781 12.351562 15.757812 11.917969 16.558594 11.351562 C 17.359375 10.785156 17.976562 10.109375 18.402344 9.324219 C 18.835938 8.535156 19.054688 7.660156 19.054688 6.699219 C 19.054688 6.296875 18.832031 5.917969 18.390625 5.566406 C 17.945312 5.210938 17.320312 4.898438 16.507812 4.628906 C 15.699219 4.359375 14.742188 4.152344 13.628906 4.003906 C 12.519531 3.847656 11.292969 3.773438 9.953125 3.773438 C 8.617188 3.773438 7.390625 3.847656 6.28125 4.003906 C 5.171875 4.152344 4.210938 4.359375 3.398438 4.628906 C 2.589844 4.898438 1.964844 5.210938 1.523438 5.566406 C 1.078125 5.917969 0.859375 6.296875 0.859375 6.699219 Z M 2.019531 6.699219 C 2.019531 6.570312 2.117188 6.433594 2.316406 6.296875 C 2.511719 6.152344 2.789062 6.011719 3.152344 5.878906 C 3.511719 5.738281 3.9375 5.609375 4.429688 5.488281 C 4.917969 5.367188 5.460938 5.261719 6.050781 5.171875 C 6.640625 5.074219 7.265625 5 7.925781 4.945312 C 8.585938 4.890625 9.257812 4.859375 9.953125 4.859375 C 10.644531 4.859375 11.320312 4.890625 11.976562 4.945312 C 12.636719 5 13.261719 5.074219 13.851562 5.171875 C 14.445312 5.261719 14.984375 5.367188 15.476562 5.488281 C 15.972656 5.609375 16.398438 5.738281 16.757812 5.878906 C 17.121094 6.011719 17.398438 6.152344 17.597656 6.296875 C 17.792969 6.433594 17.890625 6.570312 17.890625 6.699219 C 17.890625 6.847656 17.757812 7.007812 17.488281 7.175781 C 17.222656 7.339844 16.847656 7.503906 16.363281 7.664062 C 15.878906 7.824219 15.304688 7.96875 14.640625 8.097656 C 13.980469 8.222656 13.253906 8.324219 12.460938 8.402344 C 11.667969 8.476562 10.832031 8.515625 9.953125 8.515625 C 9.078125 8.515625 8.242188 8.476562 7.449219 8.402344 C 6.65625 8.324219 5.929688 8.222656 5.265625 8.097656 C 4.605469 7.96875 4.035156 7.824219 3.546875 7.664062 C 3.0625 7.503906 2.683594 7.339844 2.414062 7.175781 C 2.152344 7.007812 2.019531 6.847656 2.019531 6.699219 Z M 17.53125 5.914062 L 22.289062 3 C 22.621094 2.796875 22.851562 2.5625 22.984375 2.292969 C 23.113281 2.019531 23.160156 1.742188 23.121094 1.464844 C 23.085938 1.179688 22.980469 0.925781 22.804688 0.699219 C 22.628906 0.46875 22.402344 0.296875 22.117188 0.179688 C 21.839844 0.0664062 21.519531 0.0351562 21.160156 0.0859375 C 20.796875 0.140625 20.414062 0.3125 20.011719 0.605469 L 14.453125 4.609375 Z M 5.761719 8.617188 L 13.527344 8.648438 C 13.527344 8.148438 13.40625 7.710938 13.160156 7.339844 C 12.921875 6.972656 12.597656 6.683594 12.195312 6.476562 C 11.789062 6.269531 11.351562 6.164062 10.882812 6.164062 C 10.414062 6.164062 9.984375 6.265625 9.589844 6.460938 C 9.203125 6.652344 8.882812 6.910156 8.640625 7.234375 C 8.515625 7.191406 8.390625 7.160156 8.265625 7.140625 C 8.144531 7.121094 8.015625 7.109375 7.875 7.109375 C 7.523438 7.109375 7.199219 7.179688 6.902344 7.3125 C 6.609375 7.441406 6.359375 7.621094 6.160156 7.851562 C 5.957031 8.078125 5.824219 8.335938 5.761719 8.617188 Z M 5.761719 8.617188 "/>
</g>
</svg>
