<svg width="16" height="19" viewBox="0 0 16 19" fill="none" xmlns="http://www.w3.org/2000/svg">
<path d="M11.6328 17.4922V2.63281C11.6328 1.99219 11.4609 1.5026 11.1172 1.16406C10.7786 0.820312 10.2917 0.648438 9.65625 0.648438H3.35938C2.71875 0.648438 2.22917 0.820312 1.89062 1.16406C1.55729 1.5026 1.39062 1.99219 1.39062 2.63281V17.4922H11.6328ZM3.61719 8.80469C3.33073 8.80469 3.10677 8.73177 2.94531 8.58594C2.78385 8.4349 2.70312 8.22917 2.70312 7.96875V2.8125C2.70312 2.55208 2.78385 2.34635 2.94531 2.19531C3.10677 2.04427 3.33073 1.96875 3.61719 1.96875H9.39844C9.6849 1.96875 9.90885 2.04427 10.0703 2.19531C10.237 2.34635 10.3203 2.55208 10.3203 2.8125V7.96875C10.3203 8.22917 10.237 8.4349 10.0703 8.58594C9.90885 8.73177 9.6849 8.80469 9.39844 8.80469H3.61719ZM0.15625 17.4375C0.15625 17.6146 0.216146 17.7656 0.335938 17.8906C0.455729 18.0156 0.601562 18.0781 0.773438 18.0781H12.2344C12.4062 18.0781 12.5547 18.0156 12.6797 17.8906C12.8047 17.7656 12.8672 17.6146 12.8672 17.4375C12.8672 17.2708 12.8047 17.125 12.6797 17C12.5547 16.8802 12.4062 16.8203 12.2344 16.8203H0.773438C0.606771 16.8203 0.460938 16.8802 0.335938 17C0.216146 17.1198 0.15625 17.2656 0.15625 17.4375ZM11.0312 10.9375H11.7109C11.888 10.9375 12.0286 10.9896 12.1328 11.0938C12.2422 11.1927 12.2969 11.3385 12.2969 11.5312V14.1172C12.2969 14.6745 12.4531 15.1094 12.7656 15.4219C13.0833 15.7396 13.5208 15.8984 14.0781 15.8984C14.6302 15.8984 15.0625 15.7396 15.375 15.4219C15.6875 15.1094 15.8438 14.6745 15.8438 14.1172V4.54688C15.8438 4.3125 15.8125 4.10156 15.75 3.91406C15.6927 3.72656 15.6068 3.54167 15.4922 3.35938L14.4219 1.625C14.3229 1.46875 14.2005 1.38021 14.0547 1.35938C13.9141 1.33333 13.7812 1.35938 13.6562 1.4375C13.5365 1.51042 13.4531 1.61719 13.4062 1.75781C13.3646 1.89323 13.3932 2.04167 13.4922 2.20312L14.4062 3.6875C14.4948 3.83333 14.4896 3.98177 14.3906 4.13281L13.3672 5.5625C13.0443 6.01042 13.0651 6.44792 13.4297 6.875L14.7422 8.39844V14.1172C14.7422 14.3307 14.6823 14.4974 14.5625 14.6172C14.4427 14.737 14.2812 14.7969 14.0781 14.7969C13.8646 14.7969 13.6979 14.737 13.5781 14.6172C13.4583 14.4974 13.3984 14.3307 13.3984 14.1172V11.5312C13.3984 10.9896 13.2474 10.5729 12.9453 10.2812C12.6484 9.98438 12.237 9.83594 11.7109 9.83594H11.0312V10.9375Z" fill="white"/>
</svg>
