<svg xmlns="http://www.w3.org/2000/svg" width="24" height="24"><path style="stroke:none;fill-rule:nonzero;fill:#fff;fill-opacity:1" d="M1.773 22.383c.836 0 1.465-.336 1.891-1.012.434-.668.75-1.816.957-3.441l.969-7.887h1.543c.25 0 .445-.11.59-.32.148-.211.226-.528.218-.852 0-.316-.054-.562-.168-.734-.109-.184-.261-.278-.46-.278h-1.45l.239-1.96c.113-.915.277-1.567.488-1.981.207-.402.55-.598 1.02-.598h.206c.063-.015.118-.023.168-.035.41-.066.614-.402.614-1.015.011-.375-.106-.723-.305-.887-.2-.192-.504-.285-.914-.285-.813 0-1.441.355-1.89 1.078-.442.715-.762 1.836-.954 3.375l-.281 2.308H3.195c-.25 0-.449.106-.597.317-.149.21-.227.527-.22.855 0 .305.056.547.169.735.113.183.27.277.469.277h.964l-.937 7.543c-.121.937-.29 1.605-.504 2-.21.383-.543.574-.996.574-.063 0-.121.008-.18.016a.414.414 0 0 0-.136.02.61.61 0 0 0-.45.331c-.109.192-.164.453-.156.72-.008.358.106.69.29.866.194.176.48.27.862.27Zm10.184.035c.129.008.258-.066.36-.207.09-.125.136-.313.136-.563a1.31 1.31 0 0 0-.027-.277 2.637 2.637 0 0 0-.094-.355 24.895 24.895 0 0 1-1.21-4.371 27.24 27.24 0 0 1-.427-4.88c0-1.632.137-3.245.41-4.843a22.716 22.716 0 0 1 1.227-4.442c.047-.148.078-.261.094-.343a1.46 1.46 0 0 0 .027-.293 1.007 1.007 0 0 0-.137-.547c-.101-.145-.226-.219-.359-.211a.547.547 0 0 0-.39.184c-.122.125-.25.343-.383.66-.641 1.37-1.133 2.925-1.45 4.59a27.78 27.78 0 0 0-.48 5.234c0 1.816.156 3.555.469 5.207.32 1.652.804 3.187 1.46 4.605.133.317.262.532.383.66a.574.574 0 0 0 .391.192Zm1.79-3.828a.513.513 0 0 0 .358-.14c.13-.134.243-.317.325-.536l1.867-4.5h.031l1.91 4.574c.11.25.215.41.317.489.093.074.199.113.304.113.176.012.344-.094.473-.297.129-.203.2-.484.203-.781a1.773 1.773 0 0 0-.156-.778l-2.18-5.02 2.18-4.952a1.96 1.96 0 0 0 .164-.805c.004-.285-.066-.562-.195-.75-.125-.195-.29-.305-.461-.305-.133-.007-.266.059-.375.188a1.753 1.753 0 0 0-.266.488l-1.797 4.465h-.043l-1.808-4.477a1.445 1.445 0 0 0-.29-.488.511.511 0 0 0-.398-.176c-.2 0-.367.118-.504.348-.12.2-.195.477-.195.766 0 .21.016.39.05.535.036.136.083.265.137.383l2.079 4.707-2.207 5.148c-.051.121-.094.258-.118.406-.02.13-.027.266-.027.403-.004.265.063.523.18.707.12.187.277.289.441.285Zm6.921 3.828c.137 0 .266-.066.383-.191.156-.176.289-.399.39-.66.641-1.376 1.133-2.934 1.45-4.606.324-1.68.484-3.441.48-5.207a27.241 27.241 0 0 0-.488-5.234c-.313-1.668-.801-3.223-1.442-4.59a2.147 2.147 0 0 0-.39-.664.517.517 0 0 0-.383-.184c-.133-.008-.262.066-.36.211a.987.987 0 0 0-.136.55c0 .106.012.204.027.29.016.086.047.199.094.344.539 1.367.95 2.867 1.219 4.441.277 1.602.418 3.215.418 4.848 0 1.691-.145 3.316-.426 4.879a24.852 24.852 0 0 1-1.211 4.367 3.581 3.581 0 0 0-.094.355c-.02.09-.027.188-.027.281 0 .23.047.41.137.547.093.145.21.223.359.223Zm0 0"/></svg>