<svg xmlns="http://www.w3.org/2000/svg" width="24" height="24"><path style="stroke:none;fill-rule:nonzero;fill:#fff;fill-opacity:1" d="M1.52 22.355c.3 0 .535-.12.71-.359.18-.242.27-.566.27-.984v-7.887h6.113a.78.78 0 0 0 .625-.3c.168-.212.25-.5.25-.856 0-.36-.082-.649-.25-.848-.172-.215-.394-.328-.625-.32H2.5V3.766h6.707c.234.011.461-.106.637-.32.172-.212.261-.497.261-.868s-.09-.664-.261-.875c-.176-.215-.403-.328-.637-.32H1.512a.805.805 0 0 0-.688.363c-.168.238-.25.563-.25.965v18.3c0 .419.082.743.25.985.172.238.406.36.696.36Zm10.812.06a.624.624 0 0 0 .438-.145c.12-.094.246-.274.375-.532l4.168-7.875h.062L21.5 21.75c.125.242.25.41.375.508.148.105.313.16.48.156a.785.785 0 0 0 .676-.363c.18-.238.27-.54.27-.906 0-.352-.074-.66-.227-.922l-4.512-8.438L23.2 3.184c.153-.286.227-.579.227-.875.004-.329-.094-.645-.27-.868-.16-.234-.386-.367-.625-.363a.728.728 0 0 0-.48.16c-.125.098-.254.274-.383.535L17.512 9.75h-.063l-4.137-7.977c-.132-.27-.261-.457-.386-.546a.782.782 0 0 0-.489-.149c-.253-.012-.503.121-.687.363a1.401 1.401 0 0 0-.27.88c0 .316.075.624.227.925l4.48 8.453-4.55 8.594c-.16.285-.242.582-.242.89 0 .348.09.645.273.883.18.23.402.344.664.344Zm0 0"/></svg>