<?xml version="1.0" encoding="UTF-8"?>
<svg xmlns="http://www.w3.org/2000/svg" xmlns:xlink="http://www.w3.org/1999/xlink" width="24" height="25.5" viewBox="0 0 24 25.5" version="1.1">
<g id="surface1">
<path style=" stroke:none;fill-rule:nonzero;fill:rgb(100%,100%,100%);fill-opacity:1;" d="M 12 24.492188 C 13.632812 24.492188 15.167969 24.179688 16.605469 23.554688 C 18.050781 22.929688 19.324219 22.066406 20.425781 20.964844 C 21.527344 19.863281 22.390625 18.59375 23.015625 17.15625 C 23.640625 15.710938 23.953125 14.171875 23.953125 12.539062 C 23.953125 10.90625 23.640625 9.371094 23.015625 7.933594 C 22.390625 6.488281 21.527344 5.214844 20.425781 4.113281 C 19.324219 3.011719 18.050781 2.148438 16.605469 1.523438 C 15.160156 0.898438 13.621094 0.585938 11.988281 0.585938 C 10.355469 0.585938 8.816406 0.898438 7.371094 1.523438 C 5.933594 2.148438 4.664062 3.011719 3.5625 4.113281 C 2.46875 5.214844 1.609375 6.488281 0.984375 7.933594 C 0.359375 9.371094 0.046875 10.90625 0.046875 12.539062 C 0.046875 14.171875 0.359375 15.710938 0.984375 17.15625 C 1.609375 18.59375 2.472656 19.863281 3.574219 20.964844 C 4.675781 22.066406 5.945312 22.929688 7.382812 23.554688 C 8.828125 24.179688 10.367188 24.492188 12 24.492188 Z M 12 22.5 C 10.617188 22.5 9.324219 22.242188 8.121094 21.726562 C 6.917969 21.210938 5.859375 20.5 4.945312 19.59375 C 4.039062 18.679688 3.328125 17.621094 2.8125 16.417969 C 2.304688 15.214844 2.050781 13.921875 2.050781 12.539062 C 2.050781 11.15625 2.304688 9.863281 2.8125 8.660156 C 3.328125 7.457031 4.039062 6.398438 4.945312 5.484375 C 5.851562 4.570312 6.90625 3.859375 8.109375 3.351562 C 9.3125 2.835938 10.605469 2.578125 11.988281 2.578125 C 13.371094 2.578125 14.664062 2.835938 15.867188 3.351562 C 17.078125 3.859375 18.136719 4.570312 19.042969 5.484375 C 19.957031 6.398438 20.671875 7.457031 21.1875 8.660156 C 21.703125 9.863281 21.960938 11.15625 21.960938 12.539062 C 21.960938 13.921875 21.703125 15.214844 21.1875 16.417969 C 20.679688 17.621094 19.96875 18.679688 19.054688 19.59375 C 18.140625 20.5 17.082031 21.210938 15.878906 21.726562 C 14.675781 22.242188 13.382812 22.5 12 22.5 Z M 12.035156 18.035156 C 12.996094 18.035156 13.816406 17.863281 14.496094 17.519531 C 15.175781 17.175781 15.695312 16.695312 16.054688 16.078125 C 16.414062 15.460938 16.59375 14.75 16.59375 13.945312 L 16.59375 13.089844 C 16.59375 12.417969 16.265625 12.082031 15.609375 12.082031 L 12.597656 12.082031 C 12.386719 12.082031 12.21875 12.144531 12.09375 12.269531 C 11.96875 12.394531 11.90625 12.558594 11.90625 12.761719 C 11.90625 12.933594 11.96875 13.089844 12.09375 13.230469 C 12.21875 13.363281 12.386719 13.429688 12.597656 13.429688 L 14.742188 13.429688 L 14.742188 14.191406 C 14.742188 14.878906 14.515625 15.433594 14.0625 15.855469 C 13.609375 16.277344 12.941406 16.488281 12.058594 16.488281 C 11.433594 16.488281 10.882812 16.320312 10.40625 15.984375 C 9.9375 15.648438 9.570312 15.175781 9.304688 14.566406 C 9.046875 13.957031 8.917969 13.246094 8.917969 12.433594 C 8.917969 11.621094 9.046875 10.910156 9.304688 10.300781 C 9.5625 9.691406 9.925781 9.21875 10.394531 8.882812 C 10.863281 8.539062 11.40625 8.367188 12.023438 8.367188 C 12.6875 8.367188 13.257812 8.523438 13.734375 8.835938 C 14.21875 9.140625 14.578125 9.582031 14.8125 10.160156 C 14.914062 10.355469 15.023438 10.5 15.140625 10.59375 C 15.265625 10.679688 15.417969 10.722656 15.597656 10.722656 C 15.839844 10.722656 16.03125 10.652344 16.171875 10.511719 C 16.320312 10.371094 16.394531 10.175781 16.394531 9.925781 C 16.394531 9.832031 16.386719 9.742188 16.371094 9.65625 C 16.363281 9.570312 16.339844 9.480469 16.300781 9.386719 C 16.113281 8.894531 15.820312 8.457031 15.421875 8.074219 C 15.023438 7.683594 14.535156 7.378906 13.957031 7.160156 C 13.386719 6.933594 12.734375 6.820312 12 6.820312 C 10.992188 6.820312 10.113281 7.050781 9.363281 7.511719 C 8.621094 7.972656 8.046875 8.625 7.640625 9.46875 C 7.234375 10.304688 7.03125 11.292969 7.03125 12.433594 C 7.03125 13.582031 7.234375 14.574219 7.640625 15.410156 C 8.046875 16.246094 8.625 16.894531 9.375 17.355469 C 10.125 17.808594 11.011719 18.035156 12.035156 18.035156 Z M 12.035156 18.035156 "/>
</g>
</svg>
