<svg width="16" height="17" viewBox="0 0 16 17" fill="none" xmlns="http://www.w3.org/2000/svg">
<path d="M8 16.3281C9.08854 16.3281 10.112 16.1198 11.0703 15.7031C12.0339 15.2865 12.8828 14.7109 13.6172 13.9766C14.3516 13.2422 14.9271 12.3958 15.3438 11.4375C15.7604 10.474 15.9688 9.44792 15.9688 8.35938C15.9688 7.27083 15.7604 6.2474 15.3438 5.28906C14.9271 4.32552 14.3516 3.47656 13.6172 2.74219C12.8828 2.00781 12.0339 1.43229 11.0703 1.01562C10.1068 0.598958 9.08073 0.390625 7.99219 0.390625C6.90365 0.390625 5.8776 0.598958 4.91406 1.01562C3.95573 1.43229 3.10938 2.00781 2.375 2.74219C1.64583 3.47656 1.07292 4.32552 0.65625 5.28906C0.239583 6.2474 0.03125 7.27083 0.03125 8.35938C0.03125 9.44792 0.239583 10.474 0.65625 11.4375C1.07292 12.3958 1.64844 13.2422 2.38281 13.9766C3.11719 14.7109 3.96354 15.2865 4.92188 15.7031C5.88542 16.1198 6.91146 16.3281 8 16.3281ZM8 15C7.07812 15 6.21615 14.8281 5.41406 14.4844C4.61198 14.1406 3.90625 13.6667 3.29688 13.0625C2.69271 12.4531 2.21875 11.7474 1.875 10.9453C1.53646 10.1432 1.36719 9.28125 1.36719 8.35938C1.36719 7.4375 1.53646 6.57552 1.875 5.77344C2.21875 4.97135 2.69271 4.26562 3.29688 3.65625C3.90104 3.04688 4.60417 2.57292 5.40625 2.23438C6.20833 1.89062 7.07031 1.71875 7.99219 1.71875C8.91406 1.71875 9.77604 1.89062 10.5781 2.23438C11.3854 2.57292 12.0911 3.04688 12.6953 3.65625C13.3047 4.26562 13.7812 4.97135 14.125 5.77344C14.4688 6.57552 14.6406 7.4375 14.6406 8.35938C14.6406 9.28125 14.4688 10.1432 14.125 10.9453C13.7865 11.7474 13.3125 12.4531 12.7031 13.0625C12.0938 13.6667 11.388 14.1406 10.5859 14.4844C9.78385 14.8281 8.92188 15 8 15ZM8.02344 12.0234C8.66406 12.0234 9.21094 11.9089 9.66406 11.6797C10.1172 11.4505 10.4635 11.1302 10.7031 10.7188C10.9427 10.3073 11.0625 9.83333 11.0625 9.29688V8.72656C11.0625 8.27865 10.8438 8.05469 10.4062 8.05469H8.39844C8.25781 8.05469 8.14583 8.09635 8.0625 8.17969C7.97917 8.26302 7.9375 8.3724 7.9375 8.50781C7.9375 8.6224 7.97917 8.72656 8.0625 8.82031C8.14583 8.90885 8.25781 8.95312 8.39844 8.95312H9.82812V9.46094C9.82812 9.91927 9.67708 10.2891 9.375 10.5703C9.07292 10.8516 8.6276 10.9922 8.03906 10.9922C7.6224 10.9922 7.25521 10.8802 6.9375 10.6562C6.625 10.4323 6.38021 10.1172 6.20312 9.71094C6.03125 9.30469 5.94531 8.83073 5.94531 8.28906C5.94531 7.7474 6.03125 7.27344 6.20312 6.86719C6.375 6.46094 6.61719 6.14583 6.92969 5.92188C7.24219 5.69271 7.60417 5.57812 8.01562 5.57812C8.45833 5.57812 8.83854 5.68229 9.15625 5.89062C9.47917 6.09375 9.71875 6.38802 9.875 6.77344C9.94271 6.90365 10.0156 7 10.0938 7.0625C10.1771 7.11979 10.2786 7.14844 10.3984 7.14844C10.5599 7.14844 10.6875 7.10156 10.7812 7.00781C10.8802 6.91406 10.9297 6.78385 10.9297 6.61719C10.9297 6.55469 10.9245 6.49479 10.9141 6.4375C10.9089 6.38021 10.8932 6.32031 10.8672 6.25781C10.7422 5.92969 10.5469 5.63802 10.2812 5.38281C10.0156 5.1224 9.6901 4.91927 9.30469 4.77344C8.92448 4.6224 8.48958 4.54688 8 4.54688C7.32812 4.54688 6.74219 4.70052 6.24219 5.00781C5.7474 5.3151 5.36458 5.75 5.09375 6.3125C4.82292 6.86979 4.6875 7.52865 4.6875 8.28906C4.6875 9.05469 4.82292 9.71615 5.09375 10.2734C5.36458 10.8307 5.75 11.263 6.25 11.5703C6.75 11.8724 7.34115 12.0234 8.02344 12.0234Z" fill="white"/>
</svg>
