<?xml version="1.0" encoding="UTF-8"?>
<svg xmlns="http://www.w3.org/2000/svg" xmlns:xlink="http://www.w3.org/1999/xlink" width="24" height="15" viewBox="0 0 24 15" version="1.1">
<g id="surface1">
<path style=" stroke:none;fill-rule:nonzero;fill:rgb(100%,100%,100%);fill-opacity:1;" d="M 5.671875 5.796875 C 5.671875 6 5.730469 6.160156 5.84375 6.28125 C 5.957031 6.394531 6.117188 6.453125 6.320312 6.453125 L 7.726562 6.453125 L 7.726562 7.820312 C 7.726562 8.019531 7.78125 8.175781 7.890625 8.296875 C 8 8.410156 8.152344 8.46875 8.34375 8.46875 C 8.535156 8.46875 8.6875 8.410156 8.796875 8.296875 C 8.90625 8.175781 8.960938 8.019531 8.960938 7.820312 L 8.960938 6.453125 L 10.28125 6.453125 C 10.5 6.453125 10.667969 6.394531 10.789062 6.28125 C 10.914062 6.160156 10.976562 6 10.976562 5.796875 C 10.976562 5.605469 10.914062 5.449219 10.789062 5.335938 C 10.667969 5.222656 10.5 5.164062 10.28125 5.164062 L 8.960938 5.164062 L 8.960938 3.796875 C 8.960938 3.597656 8.90625 3.441406 8.796875 3.328125 C 8.6875 3.214844 8.535156 3.15625 8.34375 3.15625 C 8.152344 3.15625 8 3.214844 7.890625 3.328125 C 7.78125 3.441406 7.726562 3.597656 7.726562 3.796875 L 7.726562 5.164062 L 6.320312 5.164062 C 6.117188 5.164062 5.957031 5.222656 5.84375 5.335938 C 5.730469 5.449219 5.671875 5.605469 5.671875 5.796875 Z M 16.851562 5.695312 C 17.167969 5.695312 17.433594 5.589844 17.648438 5.375 C 17.867188 5.160156 17.976562 4.894531 17.976562 4.578125 C 17.976562 4.261719 17.867188 3.992188 17.648438 3.773438 C 17.433594 3.554688 17.167969 3.445312 16.851562 3.445312 C 16.539062 3.445312 16.273438 3.554688 16.054688 3.773438 C 15.835938 3.992188 15.726562 4.261719 15.726562 4.578125 C 15.726562 4.894531 15.835938 5.160156 16.054688 5.375 C 16.273438 5.589844 16.539062 5.695312 16.851562 5.695312 Z M 14.554688 8.015625 C 14.871094 8.015625 15.136719 7.910156 15.351562 7.695312 C 15.570312 7.476562 15.679688 7.207031 15.679688 6.890625 C 15.679688 6.574219 15.570312 6.304688 15.351562 6.085938 C 15.136719 5.867188 14.871094 5.757812 14.554688 5.757812 C 14.242188 5.757812 13.976562 5.867188 13.757812 6.085938 C 13.539062 6.304688 13.429688 6.574219 13.429688 6.890625 C 13.429688 7.207031 13.539062 7.476562 13.757812 7.695312 C 13.976562 7.910156 14.242188 8.015625 14.554688 8.015625 Z M 0.71875 11.429688 C 0.71875 12.039062 0.839844 12.570312 1.085938 13.023438 C 1.335938 13.476562 1.683594 13.824219 2.132812 14.070312 C 2.582031 14.320312 3.101562 14.445312 3.695312 14.445312 C 4.148438 14.445312 4.589844 14.347656 5.015625 14.148438 C 5.449219 13.949219 5.828125 13.648438 6.15625 13.242188 L 7.570312 11.53125 C 7.675781 11.40625 7.785156 11.316406 7.898438 11.257812 C 8.011719 11.199219 8.128906 11.171875 8.242188 11.171875 L 15.75 11.171875 C 15.863281 11.171875 15.980469 11.199219 16.09375 11.257812 C 16.207031 11.316406 16.316406 11.40625 16.421875 11.53125 L 17.835938 13.242188 C 18.164062 13.648438 18.542969 13.949219 18.96875 14.148438 C 19.402344 14.347656 19.84375 14.445312 20.296875 14.445312 C 20.890625 14.445312 21.410156 14.320312 21.859375 14.070312 C 22.308594 13.824219 22.652344 13.476562 22.898438 13.023438 C 23.148438 12.570312 23.273438 12.039062 23.273438 11.429688 C 23.273438 11.039062 23.230469 10.621094 23.140625 10.171875 C 23.058594 9.722656 22.941406 9.246094 22.789062 8.742188 C 22.632812 8.207031 22.441406 7.621094 22.210938 6.992188 C 21.980469 6.363281 21.734375 5.726562 21.46875 5.085938 C 21.207031 4.441406 20.945312 3.835938 20.679688 3.273438 C 20.457031 2.804688 20.246094 2.414062 20.046875 2.101562 C 19.847656 1.789062 19.597656 1.535156 19.289062 1.335938 C 18.988281 1.136719 18.558594 0.976562 18.007812 0.851562 C 17.273438 0.683594 16.402344 0.550781 15.390625 0.445312 C 14.378906 0.339844 13.25 0.289062 12 0.289062 C 10.75 0.289062 9.617188 0.339844 8.601562 0.445312 C 7.589844 0.550781 6.71875 0.683594 5.984375 0.851562 C 5.433594 0.976562 5.003906 1.136719 4.695312 1.335938 C 4.394531 1.535156 4.144531 1.789062 3.945312 2.101562 C 3.746094 2.414062 3.535156 2.804688 3.3125 3.273438 C 3.046875 3.835938 2.78125 4.441406 2.515625 5.085938 C 2.253906 5.726562 2.011719 6.363281 1.78125 6.992188 C 1.550781 7.621094 1.359375 8.207031 1.203125 8.742188 C 1.050781 9.246094 0.933594 9.722656 0.84375 10.171875 C 0.761719 10.621094 0.71875 11.039062 0.71875 11.429688 Z M 1.914062 11.476562 C 1.914062 11.230469 1.941406 10.953125 2 10.640625 C 2.058594 10.328125 2.148438 9.960938 2.273438 9.539062 C 2.449219 8.941406 2.660156 8.300781 2.90625 7.617188 C 3.152344 6.929688 3.410156 6.246094 3.6875 5.570312 C 3.964844 4.894531 4.230469 4.265625 4.492188 3.6875 C 4.617188 3.410156 4.738281 3.167969 4.851562 2.960938 C 4.972656 2.753906 5.125 2.578125 5.3125 2.4375 C 5.5 2.296875 5.761719 2.1875 6.101562 2.109375 C 6.808594 1.941406 7.660156 1.808594 8.65625 1.703125 C 9.652344 1.597656 10.765625 1.546875 12 1.546875 C 13.230469 1.546875 14.339844 1.597656 15.335938 1.703125 C 16.332031 1.808594 17.183594 1.941406 17.890625 2.109375 C 18.230469 2.1875 18.488281 2.296875 18.671875 2.4375 C 18.859375 2.578125 19.011719 2.753906 19.125 2.960938 C 19.246094 3.167969 19.371094 3.410156 19.5 3.6875 C 19.769531 4.265625 20.042969 4.894531 20.3125 5.570312 C 20.582031 6.246094 20.839844 6.929688 21.078125 7.617188 C 21.324219 8.300781 21.535156 8.941406 21.71875 9.539062 C 21.84375 9.960938 21.933594 10.328125 21.992188 10.640625 C 22.050781 10.953125 22.078125 11.230469 22.078125 11.476562 C 22.078125 12.019531 21.910156 12.449219 21.570312 12.765625 C 21.238281 13.078125 20.816406 13.234375 20.3125 13.234375 C 19.707031 13.234375 19.167969 12.945312 18.6875 12.367188 L 17.21875 10.59375 C 17.03125 10.363281 16.839844 10.195312 16.640625 10.085938 C 16.441406 9.972656 16.164062 9.914062 15.804688 9.914062 L 8.1875 9.914062 C 7.828125 9.914062 7.550781 9.972656 7.351562 10.085938 C 7.152344 10.195312 6.960938 10.363281 6.773438 10.59375 L 5.304688 12.367188 C 5.074219 12.644531 4.820312 12.855469 4.539062 13.007812 C 4.261719 13.160156 3.976562 13.234375 3.679688 13.234375 C 3.175781 13.234375 2.753906 13.078125 2.414062 12.765625 C 2.082031 12.449219 1.914062 12.019531 1.914062 11.476562 Z M 1.914062 11.476562 "/>
</g>
</svg>
