<svg xmlns="http://www.w3.org/2000/svg" width="24" height="24"><path style="stroke:none;fill-rule:nonzero;fill:#fff;fill-opacity:1" d="M5.672 9.273c-.008.286.055.563.172.778a.54.54 0 0 0 .476.273h1.407v2.188c0 .32.054.57.164.761.109.184.261.278.453.278.168.011.332-.086.453-.278.113-.21.172-.484.164-.761v-2.188h1.32a.58.58 0 0 0 .508-.273c.129-.207.195-.489.188-.778.007-.277-.059-.546-.188-.734a.576.576 0 0 0-.508-.277h-1.32V6.074c0-.32-.055-.57-.164-.75-.121-.187-.285-.289-.453-.273-.168-.016-.332.086-.453.273-.11.18-.164.434-.164.75v2.188H6.32a.535.535 0 0 0-.476.277c-.117.195-.18.461-.172.734Zm11.18-.16c.316 0 .582-.168.796-.511.22-.344.329-.77.329-1.278 0-.504-.11-.937-.329-1.289-.207-.344-.496-.535-.796-.523-.313 0-.579.176-.797.523-.215.34-.336.805-.328 1.29 0 .507.109.933.328 1.277.218.343.484.511.797.511Zm-2.297 3.711c.316 0 .582-.168.797-.511.218-.348.328-.782.328-1.286 0-.507-.11-.937-.328-1.289-.207-.347-.497-.535-.797-.527-.313 0-.578.18-.797.527-.215.34-.336.805-.328 1.29 0 .503.11.937.328 1.284.219.344.484.512.797.512ZM.719 18.29c0 .977.12 1.824.367 2.547.25.727.598 1.281 1.047 1.676.449.398.969.601 1.562.601.961-.008 1.868-.718 2.461-1.925l1.414-2.735c.106-.203.215-.348.328-.441a.527.527 0 0 1 .344-.137h7.508c.113 0 .23.043.344.137.113.093.222.238.328.437l1.414 2.738c.305.618.691 1.114 1.133 1.45.433.32.875.476 1.328.476.594 0 1.113-.203 1.562-.601.45-.395.793-.95 1.04-1.676.25-.723.374-1.574.374-2.547 0-.625-.043-1.297-.132-2.016-.082-.718-.2-1.48-.352-2.285a63.415 63.415 0 0 0-.578-2.8c-.234-1.024-.48-2.043-.742-3.051a82.848 82.848 0 0 0-.79-2.899 22.455 22.455 0 0 0-.632-1.875c-.2-.5-.45-.906-.758-1.226-.3-.32-.73-.575-1.281-.774-.735-.27-1.606-.484-2.617-.652A20.603 20.603 0 0 0 12 .465c-1.25 0-2.383.078-3.398.25-1.012.168-1.883.379-2.618.648-.55.2-.98.457-1.289.774-.3.32-.55.726-.75 1.226-.199.5-.41 1.125-.632 1.875a82.877 82.877 0 0 0-.797 2.899 122.813 122.813 0 0 0-.735 3.05 64.967 64.967 0 0 0-.578 2.801c-.152.805-.27 1.567-.36 2.285-.081.723-.124 1.391-.124 2.016Zm1.195.074c0-.394.027-.84.086-1.336.059-.504.148-1.09.273-1.765.176-.957.387-1.98.633-3.075.246-1.097.504-2.19.781-3.277.278-1.078.543-2.086.805-3.012.125-.441.246-.828.36-1.16.12-.332.273-.613.46-.836.188-.226.45-.402.79-.527.707-.27 1.558-.48 2.554-.648.996-.168 2.11-.25 3.344-.25 1.23 0 2.34.078 3.336.25.996.168 1.848.378 2.555.648.34.125.597.3.78.527.188.223.34.504.454.836.121.332.246.719.375 1.164.27.922.543 1.93.813 3.008.269 1.082.527 2.18.765 3.277.246 1.094.457 2.118.64 3.075.126.675.216 1.265.274 1.765.059.496.086.942.086 1.336 0 .867-.168 1.555-.508 2.063-.332.5-.754.75-1.258.75-.605 0-1.144-.465-1.625-1.387l-1.468-2.84a2.734 2.734 0 0 0-.578-.812c-.2-.18-.477-.274-.836-.274H8.188c-.36 0-.637.094-.836.274-.2.175-.391.445-.579.812l-1.468 2.84c-.23.441-.485.777-.766 1.023-.262.235-.559.36-.86.364-.503 0-.925-.25-1.265-.75-.332-.508-.5-1.196-.5-2.063Zm0 0"/></svg>