<?xml version="1.0" encoding="UTF-8"?>
<svg xmlns="http://www.w3.org/2000/svg" xmlns:xlink="http://www.w3.org/1999/xlink" width="24" height="15" viewBox="0 0 24 15" version="1.1">
<g id="surface1">
<path style=" stroke:none;fill-rule:nonzero;fill:rgb(100%,100%,100%);fill-opacity:1;" d="M 5.671875 5.796875 C 5.671875 5.605469 5.730469 5.449219 5.84375 5.335938 C 5.957031 5.222656 6.117188 5.164062 6.320312 5.164062 L 7.726562 5.164062 L 7.726562 3.796875 C 7.726562 3.597656 7.78125 3.441406 7.890625 3.328125 C 8 3.214844 8.152344 3.15625 8.34375 3.15625 C 8.535156 3.15625 8.6875 3.214844 8.796875 3.328125 C 8.90625 3.441406 8.960938 3.597656 8.960938 3.796875 L 8.960938 5.164062 L 10.28125 5.164062 C 10.5 5.164062 10.667969 5.222656 10.789062 5.335938 C 10.914062 5.449219 10.976562 5.605469 10.976562 5.796875 C 10.976562 6 10.914062 6.160156 10.789062 6.28125 C 10.667969 6.394531 10.5 6.453125 10.28125 6.453125 L 8.960938 6.453125 L 8.960938 7.820312 C 8.960938 8.019531 8.90625 8.175781 8.796875 8.296875 C 8.6875 8.410156 8.535156 8.46875 8.34375 8.46875 C 8.152344 8.46875 8 8.410156 7.890625 8.296875 C 7.78125 8.175781 7.726562 8.019531 7.726562 7.820312 L 7.726562 6.453125 L 6.320312 6.453125 C 6.117188 6.453125 5.957031 6.394531 5.84375 6.28125 C 5.730469 6.160156 5.671875 6 5.671875 5.796875 Z M 13.351562 6.890625 C 13.351562 6.574219 13.460938 6.304688 13.679688 6.085938 C 13.898438 5.867188 14.164062 5.757812 14.476562 5.757812 C 14.792969 5.757812 15.058594 5.867188 15.273438 6.085938 C 15.492188 6.304688 15.601562 6.574219 15.601562 6.890625 C 15.601562 7.207031 15.492188 7.476562 15.273438 7.695312 C 15.058594 7.910156 14.792969 8.015625 14.476562 8.015625 C 14.164062 8.015625 13.898438 7.910156 13.679688 7.695312 C 13.460938 7.476562 13.351562 7.207031 13.351562 6.890625 Z M 15.65625 4.578125 C 15.65625 4.261719 15.761719 3.992188 15.976562 3.773438 C 16.195312 3.554688 16.460938 3.445312 16.773438 3.445312 C 17.089844 3.445312 17.355469 3.554688 17.570312 3.773438 C 17.789062 3.992188 17.898438 4.261719 17.898438 4.578125 C 17.898438 4.894531 17.789062 5.160156 17.570312 5.375 C 17.355469 5.589844 17.089844 5.695312 16.773438 5.695312 C 16.460938 5.695312 16.195312 5.589844 15.976562 5.375 C 15.761719 5.160156 15.65625 4.894531 15.65625 4.578125 Z M 3.695312 14.445312 C 4.230469 14.445312 4.691406 14.347656 5.078125 14.148438 C 5.46875 13.949219 5.828125 13.648438 6.15625 13.242188 L 7.570312 11.53125 C 7.675781 11.40625 7.785156 11.316406 7.898438 11.257812 C 8.011719 11.199219 8.128906 11.171875 8.242188 11.171875 L 15.75 11.171875 C 15.863281 11.171875 15.980469 11.199219 16.09375 11.257812 C 16.207031 11.316406 16.316406 11.40625 16.421875 11.53125 L 17.835938 13.242188 C 18.164062 13.648438 18.519531 13.949219 18.90625 14.148438 C 19.296875 14.347656 19.761719 14.445312 20.296875 14.445312 C 20.890625 14.445312 21.410156 14.320312 21.859375 14.070312 C 22.308594 13.824219 22.652344 13.476562 22.898438 13.023438 C 23.148438 12.570312 23.273438 12.039062 23.273438 11.429688 C 23.273438 11.039062 23.230469 10.621094 23.140625 10.171875 C 23.058594 9.722656 22.941406 9.246094 22.789062 8.742188 C 22.632812 8.207031 22.441406 7.621094 22.210938 6.992188 C 21.980469 6.363281 21.734375 5.726562 21.46875 5.085938 C 21.207031 4.441406 20.945312 3.835938 20.679688 3.273438 C 20.457031 2.804688 20.246094 2.414062 20.046875 2.101562 C 19.847656 1.789062 19.597656 1.535156 19.289062 1.335938 C 18.988281 1.136719 18.558594 0.976562 18.007812 0.851562 C 17.273438 0.683594 16.402344 0.550781 15.390625 0.445312 C 14.378906 0.339844 13.25 0.289062 12 0.289062 C 10.75 0.289062 9.617188 0.339844 8.601562 0.445312 C 7.589844 0.550781 6.71875 0.683594 5.984375 0.851562 C 5.433594 0.976562 5.003906 1.136719 4.695312 1.335938 C 4.394531 1.535156 4.144531 1.789062 3.945312 2.101562 C 3.746094 2.414062 3.535156 2.804688 3.3125 3.273438 C 3.046875 3.835938 2.78125 4.441406 2.515625 5.085938 C 2.253906 5.726562 2.011719 6.363281 1.78125 6.992188 C 1.550781 7.621094 1.359375 8.207031 1.203125 8.742188 C 1.050781 9.246094 0.933594 9.722656 0.84375 10.171875 C 0.761719 10.621094 0.71875 11.039062 0.71875 11.429688 C 0.71875 12.039062 0.839844 12.570312 1.085938 13.023438 C 1.335938 13.476562 1.683594 13.824219 2.132812 14.070312 C 2.582031 14.320312 3.101562 14.445312 3.695312 14.445312 Z M 3.695312 14.445312 "/>
</g>
</svg>
