<svg width="18" height="17" viewBox="0 0 18 17" fill="none" xmlns="http://www.w3.org/2000/svg">
<path d="M8.21094 16.7109H9.78906C10.0911 16.7109 10.349 16.625 10.5625 16.4531C10.7812 16.2865 10.9245 16.0573 10.9922 15.7656L11.3281 14.3047L11.5781 14.2188L12.8516 15C13.1016 15.1615 13.3646 15.224 13.6406 15.1875C13.9167 15.151 14.1615 15.026 14.375 14.8125L15.4688 13.7266C15.6823 13.513 15.8073 13.2682 15.8438 12.9922C15.8802 12.7161 15.8177 12.4531 15.6562 12.2031L14.8594 10.9375L14.9531 10.7031L16.4141 10.3594C16.7005 10.2917 16.9297 10.1484 17.1016 9.92969C17.2734 9.71094 17.3594 9.45312 17.3594 9.15625V7.60938C17.3594 7.3125 17.2734 7.05469 17.1016 6.83594C16.9297 6.61719 16.7005 6.47396 16.4141 6.40625L14.9688 6.05469L14.8672 5.80469L15.6641 4.53906C15.8255 4.28906 15.888 4.02865 15.8516 3.75781C15.8151 3.48177 15.6901 3.23438 15.4766 3.01562L14.3828 1.92188C14.1745 1.71354 13.9323 1.59115 13.6562 1.55469C13.3802 1.51823 13.1172 1.57812 12.8672 1.73438L11.5938 2.51562L11.3281 2.41406L10.9922 0.953125C10.9245 0.666667 10.7812 0.4375 10.5625 0.265625C10.349 0.09375 10.0911 0.0078125 9.78906 0.0078125H8.21094C7.90885 0.0078125 7.64844 0.09375 7.42969 0.265625C7.21615 0.4375 7.07552 0.666667 7.00781 0.953125L6.66406 2.41406L6.39844 2.51562L5.13281 1.73438C4.8776 1.57812 4.61198 1.51823 4.33594 1.55469C4.0651 1.59115 3.82292 1.71354 3.60938 1.92188L2.52344 3.01562C2.30469 3.23438 2.17708 3.48177 2.14062 3.75781C2.10938 4.02865 2.17448 4.28906 2.33594 4.53906L3.125 5.80469L3.03125 6.05469L1.58594 6.40625C1.29427 6.47396 1.0625 6.61719 0.890625 6.83594C0.723958 7.05469 0.640625 7.3125 0.640625 7.60938V9.15625C0.640625 9.45312 0.726562 9.71094 0.898438 9.92969C1.07031 10.1484 1.29948 10.2917 1.58594 10.3594L3.04688 10.7031L3.13281 10.9375L2.34375 12.2031C2.18229 12.4531 2.11719 12.7161 2.14844 12.9922C2.1849 13.2682 2.3125 13.513 2.53125 13.7266L3.61719 14.8125C3.83073 15.026 4.07552 15.151 4.35156 15.1875C4.6276 15.224 4.89323 15.1615 5.14844 15L6.41406 14.2188L6.66406 14.3047L7.00781 15.7656C7.07552 16.0573 7.21615 16.2865 7.42969 16.4531C7.64844 16.625 7.90885 16.7109 8.21094 16.7109ZM8.33594 15.4922C8.20573 15.4922 8.13021 15.4323 8.10938 15.3125L7.64062 13.375C7.40104 13.3177 7.17188 13.2448 6.95312 13.1562C6.73958 13.0625 6.54948 12.9635 6.38281 12.8594L4.67969 13.9062C4.58594 13.974 4.48958 13.9609 4.39062 13.8672L3.46875 12.9453C3.38542 12.8672 3.375 12.7708 3.4375 12.6562L4.48438 10.9688C4.39583 10.8021 4.30469 10.612 4.21094 10.3984C4.11719 10.1849 4.03906 9.95833 3.97656 9.71875L2.03906 9.25781C1.91927 9.23698 1.85938 9.16146 1.85938 9.03125V7.72656C1.85938 7.60156 1.91927 7.52604 2.03906 7.5L3.96875 7.03125C4.03125 6.77604 4.11198 6.53906 4.21094 6.32031C4.3151 6.10156 4.40104 5.91927 4.46875 5.77344L3.42969 4.08594C3.36198 3.97135 3.36979 3.86979 3.45312 3.78125L4.38281 2.875C4.47656 2.79167 4.57552 2.77865 4.67969 2.83594L6.36719 3.85938C6.53385 3.76562 6.72917 3.67188 6.95312 3.57812C7.18229 3.48438 7.41406 3.40625 7.64844 3.34375L8.10938 1.40625C8.13021 1.28646 8.20573 1.22656 8.33594 1.22656H9.66406C9.79427 1.22656 9.86719 1.28646 9.88281 1.40625L10.3594 3.35938C10.6042 3.42188 10.8307 3.5 11.0391 3.59375C11.2526 3.68229 11.4453 3.77344 11.6172 3.86719L13.3125 2.83594C13.4219 2.77865 13.5234 2.79167 13.6172 2.875L14.5391 3.78125C14.6276 3.86979 14.6354 3.97135 14.5625 4.08594L13.5234 5.77344C13.5964 5.91927 13.6823 6.10156 13.7812 6.32031C13.8802 6.53906 13.9609 6.77604 14.0234 7.03125L15.9609 7.5C16.0807 7.52604 16.1406 7.60156 16.1406 7.72656V9.03125C16.1406 9.16146 16.0807 9.23698 15.9609 9.25781L14.0156 9.71875C13.9531 9.95833 13.875 10.1849 13.7812 10.3984C13.6927 10.612 13.6016 10.8021 13.5078 10.9688L14.5547 12.6562C14.6224 12.7708 14.612 12.8672 14.5234 12.9453L13.6094 13.8672C13.5104 13.9609 13.4115 13.974 13.3125 13.9062L11.6094 12.8594C11.4427 12.9635 11.2526 13.0625 11.0391 13.1562C10.8255 13.2448 10.599 13.3177 10.3594 13.375L9.88281 15.3125C9.86719 15.4323 9.79427 15.4922 9.66406 15.4922H8.33594ZM9 11.3438C9.54688 11.3438 10.0443 11.2109 10.4922 10.9453C10.9453 10.6745 11.3047 10.3125 11.5703 9.85938C11.8411 9.40625 11.9766 8.90625 11.9766 8.35938C11.9766 7.81771 11.8411 7.32292 11.5703 6.875C11.3047 6.42188 10.9453 6.0625 10.4922 5.79688C10.0443 5.52604 9.54688 5.39062 9 5.39062C8.45312 5.39062 7.95312 5.52604 7.5 5.79688C7.05208 6.0625 6.69271 6.42188 6.42188 6.875C6.15104 7.32292 6.01562 7.81771 6.01562 8.35938C6.01562 8.90625 6.15104 9.40625 6.42188 9.85938C6.69271 10.3073 7.05208 10.6667 7.5 10.9375C7.95312 11.2083 8.45312 11.3438 9 11.3438ZM9 10.1328C8.67708 10.1328 8.38021 10.0547 8.10938 9.89844C7.84375 9.73698 7.63021 9.52344 7.46875 9.25781C7.3125 8.98698 7.23438 8.6875 7.23438 8.35938C7.23438 8.03646 7.3125 7.74219 7.46875 7.47656C7.63021 7.21094 7.84375 7 8.10938 6.84375C8.38021 6.68229 8.67708 6.60156 9 6.60156C9.31771 6.60156 9.60938 6.68229 9.875 6.84375C10.1406 7 10.3516 7.21094 10.5078 7.47656C10.6693 7.74219 10.75 8.03646 10.75 8.35938C10.75 8.68229 10.6693 8.97917 10.5078 9.25C10.3516 9.51562 10.1406 9.72917 9.875 9.89062C9.60938 10.0521 9.31771 10.1328 9 10.1328Z" fill="white"/>
</svg>
