<svg width="128" height="128" viewBox="0 0 128 128" fill="none" xmlns="http://www.w3.org/2000/svg">
<path d="M63.9375 127.688C72.6458 127.688 80.8333 126.021 88.5 122.688C96.2083 119.354 103 114.75 108.875 108.875C114.75 103 119.354 96.2292 122.688 88.5625C126.021 80.8542 127.688 72.6458 127.688 63.9375C127.688 55.2292 126.021 47.0417 122.688 39.375C119.354 31.6667 114.75 24.875 108.875 19C103 13.125 96.2083 8.52083 88.5 5.1875C80.7917 1.85417 72.5833 0.1875 63.875 0.1875C55.1667 0.1875 46.9583 1.85417 39.25 5.1875C31.5833 8.52083 24.8125 13.125 18.9375 19C13.1042 24.875 8.52083 31.6667 5.1875 39.375C1.85417 47.0417 0.1875 55.2292 0.1875 63.9375C0.1875 72.6458 1.85417 80.8542 5.1875 88.5625C8.52083 96.2292 13.125 103 19 108.875C24.875 114.75 31.6458 119.354 39.3125 122.688C47.0208 126.021 55.2292 127.688 63.9375 127.688ZM60.625 101.688C59.7083 101.688 58.9167 101.438 58.25 100.938C57.625 100.396 57.2083 99.6667 57 98.75L55.0625 90.8125C54.3958 90.5625 53.7083 90.3125 53 90.0625C52.3333 89.7708 51.7083 89.4792 51.125 89.1875L44.125 93.4375C43.4167 93.9792 42.6458 94.2083 41.8125 94.125C40.9792 94.0417 40.2292 93.6667 39.5625 93L34.9375 88.4375C34.2708 87.7708 33.8958 87 33.8125 86.125C33.7292 85.25 33.9583 84.4375 34.5 83.6875L38.6875 76.75C38.3958 76.125 38.1042 75.5 37.8125 74.875C37.5625 74.2083 37.3333 73.5417 37.125 72.875L29.125 71C28.2083 70.7917 27.5 70.375 27 69.75C26.5 69.0833 26.25 68.2917 26.25 67.375V60.8125C26.25 59.8958 26.5 59.125 27 58.5C27.5 57.8333 28.2083 57.4167 29.125 57.25L37.0625 55.3125C37.3125 54.5625 37.5833 53.8542 37.875 53.1875C38.1667 52.5208 38.4167 51.9167 38.625 51.375L34.375 44.375C33.875 43.5833 33.6458 42.7917 33.6875 42C33.7708 41.1667 34.1458 40.3958 34.8125 39.6875L39.5625 35.0625C40.8958 33.7292 42.3958 33.5625 44.0625 34.5625L51.0625 38.875C51.6875 38.5417 52.3333 38.25 53 38C53.7083 37.7083 54.3958 37.4375 55.0625 37.1875L57 29.25C57.2083 28.2917 57.625 27.5625 58.25 27.0625C58.9167 26.5208 59.7083 26.25 60.625 26.25H67.3125C68.2292 26.25 69 26.5208 69.625 27.0625C70.2917 27.5625 70.7292 28.2917 70.9375 29.25L72.8125 37.25C73.5625 37.5 74.2708 37.7708 74.9375 38.0625C75.6042 38.3542 76.2083 38.625 76.75 38.875L83.875 34.5625C85.5 33.6042 87 33.7708 88.375 35.0625L93.125 39.6875C93.7917 40.3958 94.1458 41.1667 94.1875 42C94.2708 42.7917 94.0625 43.5833 93.5625 44.375L89.25 51.375C89.5 51.9167 89.7708 52.5208 90.0625 53.1875C90.3542 53.8542 90.6042 54.5625 90.8125 55.3125L98.75 57.25C99.7083 57.4167 100.438 57.8333 100.938 58.5C101.438 59.125 101.688 59.8958 101.688 60.8125V67.375C101.688 68.2917 101.438 69.0833 100.938 69.75C100.438 70.375 99.7083 70.7917 98.75 71L90.75 72.875C90.5417 73.5417 90.3125 74.2083 90.0625 74.875C89.8125 75.5 89.5208 76.125 89.1875 76.75L93.4375 83.6875C93.9792 84.4375 94.2083 85.25 94.125 86.125C94.0417 87 93.6667 87.7708 93 88.4375L88.375 93C87.7083 93.6667 86.9583 94.0417 86.125 94.125C85.2917 94.2083 84.5208 93.9792 83.8125 93.4375L76.75 89.1875C76.2083 89.4792 75.5833 89.7708 74.875 90.0625C74.2083 90.3125 73.5208 90.5625 72.8125 90.8125L70.9375 98.75C70.7292 99.6667 70.2917 100.396 69.625 100.938C69 101.438 68.2292 101.688 67.3125 101.688H60.625ZM64 76.6875C67.5 76.6875 70.4792 75.4375 72.9375 72.9375C75.4375 70.4375 76.6875 67.4375 76.6875 63.9375C76.6875 60.4792 75.4375 57.5 72.9375 55C70.4792 52.5 67.5 51.25 64 51.25C60.5 51.25 57.5 52.5 55 55C52.5 57.5 51.25 60.4792 51.25 63.9375C51.25 67.4375 52.5 70.4375 55 72.9375C57.5 75.4375 60.5 76.6875 64 76.6875Z" fill="white"/>
</svg>
