<svg xmlns="http://www.w3.org/2000/svg" width="24" height="24"><path style="stroke:none;fill-rule:nonzero;fill:#fff;fill-opacity:1" d="M12 21.434c.14 0 .27-.004.395-.012a5.35 5.35 0 0 0 .418-.027l.593 1.078c.055.101.14.187.25.246.11.05.239.07.387.058a.59.59 0 0 0 .312-.172.54.54 0 0 0 .165-.324l.18-1.191c.253-.067.51-.145.769-.235.258-.093.508-.19.75-.289l.937.797c.09.086.207.137.332.149a.595.595 0 0 0 .375-.067c.239-.133.328-.34.274-.62l-.262-1.177c.438-.3.855-.625 1.25-.976l1.156.453c.117.05.25.066.375.04a.654.654 0 0 0 .332-.204.527.527 0 0 0 .137-.32.473.473 0 0 0-.094-.344l-.676-1.027c.16-.204.301-.415.426-.645.133-.219.258-.45.375-.688l1.282.063a.66.66 0 0 0 .355-.09.51.51 0 0 0 .227-.277.506.506 0 0 0 0-.356.539.539 0 0 0-.207-.285l-1-.754c.07-.242.128-.488.175-.738.055-.258.094-.52.117-.781l1.196-.364a.579.579 0 0 0 .312-.199.494.494 0 0 0 .117-.332.496.496 0 0 0-.117-.336.632.632 0 0 0-.312-.207l-1.196-.355a5.236 5.236 0 0 0-.117-.781 8.184 8.184 0 0 0-.175-.743l1-.746a.58.58 0 0 0 .207-.277.506.506 0 0 0 0-.356.497.497 0 0 0-.227-.277.66.66 0 0 0-.355-.09l-1.282.043a7.744 7.744 0 0 0-.375-.683 5.451 5.451 0 0 0-.426-.649l.676-1.027a.516.516 0 0 0 .094-.324.527.527 0 0 0-.137-.32.66.66 0 0 0-.332-.208.65.65 0 0 0-.375.043l-1.156.442a12.63 12.63 0 0 0-1.25-.977l.262-1.164a.528.528 0 0 0-.274-.621.66.66 0 0 0-.375-.078.612.612 0 0 0-.332.156l-.937.79c-.246-.106-.496-.2-.75-.286-.258-.082-.516-.164-.77-.234l-.18-1.184a.562.562 0 0 0-.164-.328.624.624 0 0 0-.324-.172.727.727 0 0 0-.375.063.488.488 0 0 0-.25.234l-.594 1.078c-.144-.008-.285-.016-.417-.02a6.846 6.846 0 0 0-.801 0c-.133.004-.266.012-.406.02l-.606-1.078a.474.474 0 0 0-.25-.234.687.687 0 0 0-.375-.06.658.658 0 0 0-.332.169.525.525 0 0 0-.145.324L9.293 2.56c-.52.14-1.027.312-1.523.52l-.938-.786a.567.567 0 0 0-.332-.16.66.66 0 0 0-.375.078.489.489 0 0 0-.25.258.551.551 0 0 0-.02.363l.258 1.164c-.215.145-.43.3-.644.465-.207.164-.41.336-.606.512L3.707 4.53a.62.62 0 0 0-.375-.043.597.597 0 0 0-.32.207.501.501 0 0 0-.149.32.57.57 0 0 0 .094.325l.68 1.027c-.153.211-.297.426-.43.649-.129.218-.254.445-.375.683l-1.27-.043a.623.623 0 0 0-.363.09.552.552 0 0 0-.242.633.698.698 0 0 0 .219.277l1 .746a9.745 9.745 0 0 0-.176.743 6.367 6.367 0 0 0-.094.77l-1.218.366c-.278.09-.418.274-.418.543 0 .27.14.446.417.531l1.22.364c.015.261.046.527.093.781s.11.496.176.738l-1 .754a.56.56 0 0 0-.207.285.612.612 0 0 0 0 .356.57.57 0 0 0 .23.277c.11.063.235.094.363.09l1.27-.063c.121.239.246.47.375.692.133.223.277.437.43.644l-.68 1.024a.594.594 0 0 0-.094.344.51.51 0 0 0 .149.32.591.591 0 0 0 .32.203.618.618 0 0 0 .375-.039l1.156-.453c.196.176.399.351.606.512.21.16.426.316.644.464l-.258 1.176a.582.582 0 0 0 .02.356c.102.234.36.37.625.332a.552.552 0 0 0 .332-.149l.938-.797c.25.098.5.196.75.29.257.09.515.167.773.234l.187 1.191a.51.51 0 0 0 .145.324c.09.09.207.149.332.172a.696.696 0 0 0 .367-.058c.11-.055.2-.14.258-.246l.605-1.078c.141.015.274.023.407.027.133.008.265.012.406.012Zm0-1.493a8.666 8.666 0 0 1-3.332-.628 8.27 8.27 0 0 1-2.688-1.739c-1.582-1.535-2.457-3.601-2.437-5.746 0-1.125.215-2.183.644-3.164A8.061 8.061 0 0 1 5.98 6.082 8.28 8.28 0 0 1 8.668 4.34 8.815 8.815 0 0 1 12 3.71c1.195 0 2.3.212 3.324.63a8.28 8.28 0 0 1 2.688 1.742 8.023 8.023 0 0 1 1.8 2.582 7.845 7.845 0 0 1 .645 3.168c.023 2.145-.855 4.211-2.445 5.742a8.206 8.206 0 0 1-2.688 1.738 8.627 8.627 0 0 1-3.324.63Zm-1.824-9.738 1.156-.687-3.531-5.727-1.196.64Zm4.242 2.25h7.031l-.012-1.273h-7.019Zm-3.074 1.711-1.145-.71-3.699 5.73 1.188.664Zm.636.266c.5 0 .954-.114 1.364-.348.418-.238.746-.547.988-.937.246-.395.367-.829.367-1.301 0-.485-.12-.914-.367-1.305a2.583 2.583 0 0 0-.988-.934 2.665 2.665 0 0 0-1.364-.347 2.78 2.78 0 0 0-1.386.347c-.41.227-.735.54-.98.934a2.412 2.412 0 0 0-.364 1.305c0 .472.121.906.363 1.3.246.391.57.7.98.938.419.23.88.348 1.387.348Zm0-1.39c-.363 0-.664-.118-.906-.349a1.14 1.14 0 0 1-.355-.847c0-.336.117-.621.355-.848.242-.234.543-.348.906-.348.352 0 .649.114.883.348.246.227.367.512.367.848 0 .336-.12.617-.367.847-.23.23-.55.356-.883.348Zm0 0"/></svg>