<svg width="22" height="18" viewBox="0 0 22 18" fill="none" xmlns="http://www.w3.org/2000/svg">
<path d="M5.85156 13.125H6.91406C7.07552 13.125 7.20833 13.0807 7.3125 12.9922C7.42188 12.9036 7.49479 12.7865 7.53125 12.6406L7.84375 11.3516C7.95312 11.3099 8.0599 11.2682 8.16406 11.2266C8.26823 11.1849 8.36719 11.138 8.46094 11.0859L9.59375 11.7891C9.72396 11.8672 9.85938 11.901 10 11.8906C10.1406 11.875 10.2656 11.8125 10.375 11.7031L11.125 10.9453C11.2292 10.8359 11.2891 10.7109 11.3047 10.5703C11.3255 10.4245 11.2943 10.2839 11.2109 10.1484L10.5156 9.03906C10.5625 8.9401 10.6068 8.84115 10.6484 8.74219C10.6953 8.63802 10.7344 8.53385 10.7656 8.42969L12.0547 8.11719C12.2109 8.08073 12.3307 8.01042 12.4141 7.90625C12.5026 7.80208 12.5469 7.66927 12.5469 7.50781V6.45312C12.5469 6.125 12.3828 5.92188 12.0547 5.84375L10.7812 5.52344C10.7396 5.40885 10.6979 5.30208 10.6562 5.20312C10.6146 5.09896 10.5729 5.0026 10.5312 4.91406L11.2109 3.78125C11.2891 3.64062 11.3255 3.5026 11.3203 3.36719C11.3151 3.23177 11.2552 3.10938 11.1406 3L10.375 2.25C10.2656 2.14583 10.1432 2.08333 10.0078 2.0625C9.8724 2.04167 9.73958 2.07031 9.60938 2.14844L8.46094 2.85938C8.3724 2.80729 8.27604 2.76042 8.17188 2.71875C8.06771 2.67708 7.95833 2.63802 7.84375 2.60156L7.53125 1.28906C7.49479 1.14323 7.42188 1.02604 7.3125 0.9375C7.20833 0.848958 7.07552 0.804688 6.91406 0.804688H5.85156C5.6901 0.804688 5.55469 0.848958 5.44531 0.9375C5.34115 1.02604 5.27083 1.14323 5.23438 1.28906L4.92188 2.58594C4.8125 2.6276 4.70312 2.66927 4.59375 2.71094C4.48958 2.7526 4.39062 2.79948 4.29688 2.85156L3.15625 2.14844C3.02604 2.07031 2.89323 2.04167 2.75781 2.0625C2.6224 2.08333 2.5 2.14583 2.39062 2.25L1.625 3C1.51042 3.10938 1.45052 3.23177 1.44531 3.36719C1.4401 3.5026 1.47656 3.64062 1.55469 3.78125L2.23438 4.91406C2.19271 5.0026 2.15104 5.09896 2.10938 5.20312C2.06771 5.30208 2.02604 5.40885 1.98438 5.52344L0.703125 5.84375C0.380208 5.92188 0.21875 6.125 0.21875 6.45312V7.50781C0.21875 7.66927 0.260417 7.80208 0.34375 7.90625C0.432292 8.01042 0.552083 8.08073 0.703125 8.11719L2 8.42969C2.03125 8.53385 2.06771 8.63802 2.10938 8.74219C2.15625 8.84115 2.20312 8.9401 2.25 9.03906L1.55469 10.1484C1.47135 10.2839 1.4375 10.4245 1.45312 10.5703C1.47396 10.7109 1.53646 10.8359 1.64062 10.9453L2.39062 11.7031C2.5 11.8125 2.625 11.875 2.76562 11.8906C2.90625 11.901 3.04167 11.8672 3.17188 11.7891L4.30469 11.0859C4.39844 11.138 4.4974 11.1849 4.60156 11.2266C4.70573 11.2682 4.8125 11.3099 4.92188 11.3516L5.23438 12.6406C5.27083 12.7865 5.34115 12.9036 5.44531 12.9922C5.55469 13.0807 5.6901 13.125 5.85156 13.125ZM6.38281 8.92969C6.02344 8.92969 5.69271 8.84115 5.39062 8.66406C5.09375 8.48698 4.85677 8.25 4.67969 7.95312C4.5026 7.65104 4.41406 7.31771 4.41406 6.95312C4.41406 6.59896 4.5026 6.27344 4.67969 5.97656C4.85677 5.67969 5.09375 5.44271 5.39062 5.26562C5.69271 5.08854 6.02344 5 6.38281 5C6.74219 5 7.07031 5.08854 7.36719 5.26562C7.66406 5.44271 7.90104 5.67969 8.07812 5.97656C8.26042 6.27344 8.35156 6.59896 8.35156 6.95312C8.35156 7.31771 8.26042 7.65104 8.07812 7.95312C7.90104 8.25 7.66406 8.48698 7.36719 8.66406C7.07031 8.84115 6.74219 8.92969 6.38281 8.92969ZM16.0469 17.9297H16.9375C17.0781 17.9297 17.1953 17.8906 17.2891 17.8125C17.3828 17.7396 17.4453 17.6406 17.4766 17.5156L17.7344 16.3984C17.8333 16.362 17.9271 16.3255 18.0156 16.2891C18.1094 16.2526 18.1979 16.2109 18.2812 16.1641L19.2578 16.7734C19.3672 16.8411 19.4818 16.8698 19.6016 16.8594C19.7214 16.849 19.8307 16.7969 19.9297 16.7031L20.5547 16.0703C20.6484 15.9714 20.7031 15.8594 20.7188 15.7344C20.7344 15.6094 20.7057 15.4922 20.6328 15.3828L20.0312 14.4141C20.0729 14.3307 20.112 14.2448 20.1484 14.1562C20.1849 14.0677 20.2188 13.9792 20.25 13.8906L21.375 13.625C21.6458 13.5625 21.7812 13.3854 21.7812 13.0938V12.2109C21.7812 11.9141 21.6458 11.7344 21.375 11.6719L20.2578 11.4062C20.1901 11.1927 20.1172 11.0156 20.0391 10.875L20.6328 9.89062C20.7057 9.77604 20.737 9.66146 20.7266 9.54688C20.7214 9.42708 20.6693 9.31771 20.5703 9.21875L19.9297 8.59375C19.8307 8.5 19.7214 8.44531 19.6016 8.42969C19.487 8.40885 19.375 8.43229 19.2656 8.5L18.2812 9.11719C18.2031 9.08073 18.1172 9.04167 18.0234 9C17.9297 8.95833 17.8333 8.92448 17.7344 8.89844L17.4766 7.75781C17.4453 7.63281 17.3828 7.53125 17.2891 7.45312C17.1953 7.375 17.0781 7.33594 16.9375 7.33594H16.0469C15.9062 7.33594 15.7891 7.375 15.6953 7.45312C15.6016 7.53125 15.5391 7.63281 15.5078 7.75781L15.2422 8.88281C15.1484 8.91927 15.0547 8.95573 14.9609 8.99219C14.8672 9.02344 14.7786 9.0625 14.6953 9.10938L13.7109 8.5C13.6068 8.4375 13.4948 8.41406 13.375 8.42969C13.2552 8.44531 13.1484 8.5 13.0547 8.59375L12.4219 9.21875C12.3177 9.31771 12.2604 9.42708 12.25 9.54688C12.2448 9.66146 12.2786 9.77604 12.3516 9.89062L12.9375 10.875C12.901 10.9479 12.8646 11.0286 12.8281 11.1172C12.7969 11.2057 12.763 11.3021 12.7266 11.4062L11.6172 11.6719C11.487 11.7031 11.3828 11.7656 11.3047 11.8594C11.2318 11.9531 11.1953 12.0703 11.1953 12.2109V13.0938C11.1953 13.2344 11.2318 13.3516 11.3047 13.4453C11.3828 13.5391 11.487 13.599 11.6172 13.625L12.7422 13.8906C12.7682 13.9792 12.7995 14.0677 12.8359 14.1562C12.8724 14.2448 12.9115 14.3307 12.9531 14.4141L12.3516 15.3828C12.2734 15.4922 12.2422 15.6094 12.2578 15.7344C12.2786 15.8594 12.3359 15.9714 12.4297 16.0703L13.0547 16.7031C13.1484 16.7969 13.2552 16.849 13.375 16.8594C13.5 16.8698 13.6172 16.8411 13.7266 16.7734L14.7031 16.1641C14.7865 16.2109 14.8724 16.2526 14.9609 16.2891C15.0547 16.3255 15.1484 16.362 15.2422 16.3984L15.5078 17.5156C15.5391 17.6406 15.6016 17.7396 15.6953 17.8125C15.7891 17.8906 15.9062 17.9297 16.0469 17.9297ZM16.4922 14.1953C16.0651 14.1953 15.6979 14.0443 15.3906 13.7422C15.0833 13.4349 14.9297 13.0625 14.9297 12.625C14.9297 12.1979 15.0833 11.8333 15.3906 11.5312C15.6979 11.224 16.0651 11.0703 16.4922 11.0703C16.9245 11.0703 17.2917 11.224 17.5938 11.5312C17.901 11.8333 18.0547 12.1979 18.0547 12.625C18.0547 13.0625 17.901 13.4349 17.5938 13.7422C17.2917 14.0443 16.9245 14.1953 16.4922 14.1953Z" fill="white"/>
</svg>
