<svg xmlns="http://www.w3.org/2000/svg" width="24" height="24"><path style="stroke:none;fill-rule:nonzero;fill:#fff;fill-opacity:1" d="M12 23.063c1.633 0 3.168-.293 4.605-.883a12.29 12.29 0 0 0 3.82-2.438 11.482 11.482 0 0 0 2.59-3.586c.626-1.36.938-2.804.938-4.343 0-1.536-.312-2.981-.937-4.336a11.514 11.514 0 0 0-2.59-3.594 12.22 12.22 0 0 0-3.82-2.438 12.166 12.166 0 0 0-4.618-.883c-1.633 0-3.172.293-4.617.883a12.307 12.307 0 0 0-3.809 2.438A11.523 11.523 0 0 0 .985 7.477a10.187 10.187 0 0 0-.937 4.335c0 1.54.312 2.985.937 4.344a11.438 11.438 0 0 0 2.59 3.586 12.307 12.307 0 0 0 3.809 2.438c1.445.59 2.984.883 4.617.883Zm-.621-4.59a.744.744 0 0 1-.445-.13.693.693 0 0 1-.235-.386l-.363-1.402c-.129-.047-.258-.09-.387-.133a6.827 6.827 0 0 1-.351-.152l-1.313.75a.63.63 0 0 1-.433.12.736.736 0 0 1-.422-.199l-.867-.804a.637.637 0 0 1-.211-.41.598.598 0 0 1 .128-.43l.786-1.223-.164-.332a6.375 6.375 0 0 1-.13-.351l-1.5-.332a.696.696 0 0 1-.398-.22.662.662 0 0 1-.14-.421v-1.156c0-.164.046-.301.14-.41a.626.626 0 0 1 .399-.22l1.488-.343c.043-.125.094-.25.152-.375.055-.117.102-.223.14-.32l-.796-1.235a.671.671 0 0 1-.129-.418.686.686 0 0 1 .211-.41l.89-.812c.25-.239.532-.266.844-.09l1.313.762c.117-.059.238-.114.363-.157l.387-.144.363-1.399a.63.63 0 0 1 .235-.386.75.75 0 0 1 .445-.145h1.254c.172 0 .316.05.433.145.125.09.207.218.246.386l.352 1.41c.14.047.274.094.399.145.124.05.238.102.34.145l1.335-.762c.305-.168.586-.14.844.09l.89.812a.622.622 0 0 1 .083.828l-.809 1.235c.047.097.098.203.152.32.055.117.102.242.141.375l1.488.344c.18.027.317.101.41.219.094.109.141.246.141.41v1.156c0 .164-.047.3-.14.422a.728.728 0 0 1-.41.219l-1.5.332c-.04.117-.083.234-.13.351a2.908 2.908 0 0 1-.164.332l.797 1.223a.591.591 0 0 1 .13.43.637.637 0 0 1-.212.41l-.867.804a.736.736 0 0 1-.422.2.65.65 0 0 1-.433-.121l-1.325-.75c-.101.05-.218.101-.351.152-.125.047-.254.09-.387.133l-.351 1.402a.666.666 0 0 1-.247.387.685.685 0 0 1-.433.129Zm.633-4.41c.656 0 1.215-.22 1.675-.66.458-.419.711-.993.704-1.59 0-.61-.235-1.137-.704-1.579a2.332 2.332 0 0 0-1.675-.66c-.657 0-1.219.219-1.688.66-.457.414-.71.985-.703 1.579 0 .617.234 1.148.703 1.59.442.429 1.051.667 1.688.66Zm0 0"/></svg>