<svg width="148" height="108" viewBox="0 0 148 108" fill="none" xmlns="http://www.w3.org/2000/svg">
<path d="M0.9375 53.125H47.625C44.8333 51.875 42.375 50.2917 40.25 48.375C38.125 46.4583 36.4583 44.2917 35.25 41.875C34.0417 39.4583 33.4375 36.8542 33.4375 34.0625C33.4375 30.8125 34.1667 27.9167 35.625 25.375C37.0833 22.8333 39.0625 20.8333 41.5625 19.375C44.1042 17.9167 46.9792 17.1875 50.1875 17.1875C52.9792 17.1875 55.625 17.75 58.125 18.875C60.6667 19.9583 62.9792 21.5208 65.0625 23.5625C67.1458 25.6042 68.8958 28.0417 70.3125 30.875V0.5625H78.5V30.875C79.9583 28.0417 81.7292 25.6042 83.8125 23.5625C85.8958 21.5208 88.1875 19.9583 90.6875 18.875C93.2292 17.75 95.875 17.1875 98.625 17.1875C101.833 17.1875 104.688 17.9167 107.188 19.375C109.729 20.8333 111.729 22.8333 113.188 25.375C114.646 27.9167 115.375 30.8125 115.375 34.0625C115.375 36.8542 114.771 39.4583 113.562 41.875C112.396 44.2917 110.75 46.4583 108.625 48.375C106.5 50.2917 104.021 51.875 101.188 53.125H147.812V60.5625H85C85.9583 62.5625 87.3958 64.7292 89.3125 67.0625C91.2292 69.3542 93.4167 71.5625 95.875 73.6875C98.3333 75.7708 100.854 77.5208 103.438 78.9375C106.021 80.3542 108.458 81.1875 110.75 81.4375C112.5 81.6042 113.833 82.2083 114.75 83.25C115.708 84.25 116.188 85.5625 116.188 87.1875C116.188 88.6458 115.625 89.9375 114.5 91.0625C113.417 92.1875 111.917 92.625 110 92.375C107.417 92 104.562 91.0208 101.438 89.4375C98.3542 87.8542 95.2917 85.8333 92.25 83.375C89.25 80.875 86.5625 78.0833 84.1875 75C81.8125 71.875 80.0833 68.6042 79 65.1875H78.5V107.312H70.3125V65.1875H69.875C68.7917 68.6042 67.0625 71.875 64.6875 75C62.3125 78.0833 59.6042 80.875 56.5625 83.375C53.5625 85.8333 50.5 87.8542 47.375 89.4375C44.25 91.0208 41.4167 92 38.875 92.375C36.9583 92.625 35.4375 92.1875 34.3125 91.0625C33.2292 89.9375 32.6875 88.6458 32.6875 87.1875C32.6875 85.5625 33.1458 84.25 34.0625 83.25C35.0208 82.2083 36.3542 81.6042 38.0625 81.4375C40.3958 81.1875 42.8542 80.3542 45.4375 78.9375C48.0208 77.4792 50.5417 75.7083 53 73.625C55.4583 71.5 57.6458 69.2917 59.5625 67C61.4792 64.7083 62.9167 62.5625 63.875 60.5625H0.9375V53.125ZM67.125 52.125H69.125V50.25C69.125 47.0833 68.625 44.1042 67.625 41.3125C66.6667 38.4792 65.3333 35.9792 63.625 33.8125C61.9167 31.6042 59.9583 29.875 57.75 28.625C55.5417 27.375 53.1875 26.75 50.6875 26.75C48.3125 26.75 46.4167 27.4792 45 28.9375C43.5833 30.3542 42.875 32.3125 42.875 34.8125C42.875 36.8958 43.5208 38.9583 44.8125 41C46.1042 43.0417 47.875 44.9167 50.125 46.625C52.375 48.2917 54.9583 49.625 57.875 50.625C60.7917 51.625 63.875 52.125 67.125 52.125ZM81.6875 52.125C84.9792 52.125 88.0833 51.625 91 50.625C93.9167 49.625 96.5 48.2917 98.75 46.625C101 44.9167 102.75 43.0417 104 41C105.292 38.9583 105.938 36.8958 105.938 34.8125C105.938 32.3125 105.229 30.3542 103.812 28.9375C102.438 27.4792 100.542 26.75 98.125 26.75C95.6667 26.75 93.3333 27.375 91.125 28.625C88.9167 29.875 86.9583 31.6042 85.25 33.8125C83.5417 35.9792 82.1875 38.4792 81.1875 41.3125C80.1875 44.1042 79.6875 47.0833 79.6875 50.25V52.125H81.6875ZM20.5625 107.312H128.188C134.729 107.312 139.625 105.688 142.875 102.438C146.167 99.2292 147.812 94.4167 147.812 88V19.9375C147.812 13.5208 146.167 8.6875 142.875 5.4375C139.625 2.1875 134.729 0.5625 128.188 0.5625H20.5625C14.0208 0.5625 9.10417 2.1875 5.8125 5.4375C2.5625 8.64583 0.9375 13.4792 0.9375 19.9375V88C0.9375 94.4167 2.5625 99.2292 5.8125 102.438C9.10417 105.688 14.0208 107.312 20.5625 107.312Z" fill="white"/>
</svg>
