<svg width="20" height="15" viewBox="0 0 20 15" fill="none" xmlns="http://www.w3.org/2000/svg">
<path d="M1.29688 7.23438V8.09375H8.77344C8.65885 8.33333 8.48698 8.59115 8.25781 8.86719C8.03385 9.13802 7.77604 9.39844 7.48438 9.64844C7.19792 9.89323 6.90104 10.1016 6.59375 10.2734C6.28646 10.4401 5.9974 10.5391 5.72656 10.5703C5.52865 10.5911 5.375 10.6615 5.26562 10.7812C5.15625 10.8958 5.10156 11.0469 5.10156 11.2344C5.10156 11.4062 5.16406 11.5573 5.28906 11.6875C5.41927 11.8177 5.59635 11.8672 5.82031 11.8359C6.11719 11.7891 6.44792 11.6745 6.8125 11.4922C7.18229 11.3047 7.54427 11.0651 7.89844 10.7734C8.25781 10.4818 8.57552 10.1536 8.85156 9.78906C9.13281 9.42448 9.33854 9.04167 9.46875 8.64062H9.52344V13.8672H10.4688V8.64062H10.5312C10.6615 9.04167 10.8646 9.42448 11.1406 9.78906C11.4219 10.1536 11.7396 10.4818 12.0938 10.7734C12.4531 11.0651 12.8151 11.3047 13.1797 11.4922C13.5443 11.6745 13.8776 11.7891 14.1797 11.8359C14.4036 11.8672 14.5781 11.8177 14.7031 11.6875C14.8333 11.5573 14.8984 11.4062 14.8984 11.2344C14.8984 11.0469 14.8438 10.8958 14.7344 10.7812C14.625 10.6615 14.4688 10.5911 14.2656 10.5703C13.9948 10.5391 13.7057 10.4401 13.3984 10.2734C13.0964 10.1016 12.7995 9.89323 12.5078 9.64844C12.2214 9.39844 11.9635 9.13802 11.7344 8.86719C11.5104 8.59115 11.3411 8.33333 11.2266 8.09375H18.625V7.23438H13.125C13.4583 7.08333 13.75 6.89583 14 6.67188C14.2552 6.44792 14.4531 6.19531 14.5938 5.91406C14.7344 5.6276 14.8047 5.32031 14.8047 4.99219C14.8047 4.41927 14.6172 3.94792 14.2422 3.57812C13.8724 3.20312 13.4062 3.01562 12.8438 3.01562C12.5208 3.01562 12.2109 3.08073 11.9141 3.21094C11.6172 3.34115 11.3438 3.52865 11.0938 3.77344C10.849 4.01302 10.6406 4.29948 10.4688 4.63281V0.828125H9.52344V4.63281C9.35677 4.29948 9.14844 4.01302 8.89844 3.77344C8.65365 3.52865 8.38281 3.34115 8.08594 3.21094C7.78906 3.08073 7.47656 3.01562 7.14844 3.01562C6.59115 3.01562 6.125 3.20312 5.75 3.57812C5.375 3.94792 5.1875 4.41927 5.1875 4.99219C5.1875 5.32031 5.25781 5.6276 5.39844 5.91406C5.54427 6.19531 5.74219 6.44792 5.99219 6.67188C6.2474 6.89583 6.53906 7.08333 6.86719 7.23438H1.29688ZM9.14844 7.11719C8.76302 7.11719 8.39844 7.05729 8.05469 6.9375C7.71094 6.81771 7.40625 6.66146 7.14062 6.46875C6.875 6.27083 6.66667 6.05208 6.51562 5.8125C6.36458 5.56771 6.28906 5.32292 6.28906 5.07812C6.28906 4.78125 6.3724 4.54948 6.53906 4.38281C6.70573 4.21094 6.92969 4.125 7.21094 4.125C7.5026 4.125 7.77865 4.19792 8.03906 4.34375C8.29948 4.48958 8.53125 4.69271 8.73438 4.95312C8.9375 5.20833 9.09635 5.5026 9.21094 5.83594C9.32552 6.16927 9.38281 6.52344 9.38281 6.89844V7.11719H9.14844ZM10.8438 7.11719H10.6094V6.89844C10.6094 6.52344 10.6667 6.16927 10.7812 5.83594C10.901 5.5026 11.0625 5.20833 11.2656 4.95312C11.4688 4.69271 11.7005 4.48958 11.9609 4.34375C12.2214 4.19792 12.4948 4.125 12.7812 4.125C13.0677 4.125 13.2917 4.21094 13.4531 4.38281C13.6198 4.54948 13.7031 4.78125 13.7031 5.07812C13.7031 5.32292 13.6276 5.56771 13.4766 5.8125C13.3255 6.05208 13.1172 6.27083 12.8516 6.46875C12.5911 6.66146 12.2891 6.81771 11.9453 6.9375C11.6016 7.05729 11.2344 7.11719 10.8438 7.11719ZM3.27344 14.0391H16.7266C17.5443 14.0391 18.1562 13.8359 18.5625 13.4297C18.974 13.0286 19.1797 12.4271 19.1797 11.625V3.11719C19.1797 2.3151 18.974 1.71094 18.5625 1.30469C18.1562 0.898438 17.5443 0.695312 16.7266 0.695312H3.27344C2.45573 0.695312 1.84115 0.898438 1.42969 1.30469C1.02344 1.70573 0.820312 2.3099 0.820312 3.11719V11.625C0.820312 12.4271 1.02344 13.0286 1.42969 13.4297C1.84115 13.8359 2.45573 14.0391 3.27344 14.0391ZM3.28906 12.7812C2.89844 12.7812 2.59896 12.6797 2.39062 12.4766C2.18229 12.2682 2.07812 11.9609 2.07812 11.5547V3.1875C2.07812 2.78125 2.18229 2.47396 2.39062 2.26562C2.59896 2.05729 2.89844 1.95312 3.28906 1.95312H16.7109C17.0964 1.95312 17.3932 2.05729 17.6016 2.26562C17.8151 2.47396 17.9219 2.78125 17.9219 3.1875V11.5547C17.9219 11.9609 17.8151 12.2682 17.6016 12.4766C17.3932 12.6797 17.0964 12.7812 16.7109 12.7812H3.28906Z" fill="white"/>
</svg>
