<?xml version="1.0" encoding="UTF-8"?>
<svg xmlns="http://www.w3.org/2000/svg" xmlns:xlink="http://www.w3.org/1999/xlink" width="24" height="18" viewBox="0 0 24 18" version="1.1">
<g id="surface1">
<path style=" stroke:none;fill-rule:nonzero;fill:rgb(100%,100%,100%);fill-opacity:1;" d="M 1.554688 8.679688 L 1.554688 9.710938 L 10.527344 9.710938 C 10.390625 10 10.183594 10.308594 9.910156 10.640625 C 9.640625 10.964844 9.332031 11.277344 8.980469 11.578125 C 8.636719 11.871094 8.28125 12.121094 7.914062 12.328125 C 7.542969 12.527344 7.195312 12.648438 6.871094 12.683594 C 6.632812 12.710938 6.449219 12.792969 6.320312 12.9375 C 6.1875 13.074219 6.121094 13.257812 6.121094 13.480469 C 6.121094 13.6875 6.195312 13.867188 6.347656 14.023438 C 6.503906 14.179688 6.714844 14.242188 6.984375 14.203125 C 7.339844 14.148438 7.738281 14.007812 8.175781 13.789062 C 8.617188 13.566406 9.054688 13.277344 9.476562 12.929688 C 9.910156 12.578125 10.289062 12.183594 10.621094 11.746094 C 10.960938 11.308594 11.207031 10.851562 11.363281 10.367188 L 11.429688 10.367188 L 11.429688 16.640625 L 12.5625 16.640625 L 12.5625 10.367188 L 12.636719 10.367188 C 12.792969 10.851562 13.039062 11.308594 13.367188 11.746094 C 13.707031 12.183594 14.085938 12.578125 14.511719 12.929688 C 14.945312 13.277344 15.378906 13.566406 15.816406 13.789062 C 16.253906 14.007812 16.652344 14.148438 17.015625 14.203125 C 17.285156 14.242188 17.492188 14.179688 17.644531 14.023438 C 17.800781 13.867188 17.878906 13.6875 17.878906 13.480469 C 17.878906 13.257812 17.8125 13.074219 17.679688 12.9375 C 17.550781 12.792969 17.363281 12.710938 17.117188 12.683594 C 16.792969 12.648438 16.445312 12.527344 16.078125 12.328125 C 15.714844 12.121094 15.359375 11.871094 15.007812 11.578125 C 14.664062 11.277344 14.355469 10.964844 14.082031 10.640625 C 13.8125 10.308594 13.609375 10 13.472656 9.710938 L 22.351562 9.710938 L 22.351562 8.679688 L 15.75 8.679688 C 16.148438 8.5 16.5 8.273438 16.800781 8.007812 C 17.105469 7.738281 17.34375 7.433594 17.511719 7.097656 C 17.679688 6.753906 17.765625 6.382812 17.765625 5.992188 C 17.765625 5.304688 17.539062 4.738281 17.089844 4.292969 C 16.648438 3.84375 16.085938 3.617188 15.414062 3.617188 C 15.023438 3.617188 14.652344 3.695312 14.296875 3.851562 C 13.941406 4.007812 13.613281 4.234375 13.3125 4.527344 C 13.019531 4.816406 12.769531 5.160156 12.5625 5.558594 L 12.5625 0.992188 L 11.429688 0.992188 L 11.429688 5.558594 C 11.226562 5.160156 10.976562 4.816406 10.679688 4.527344 C 10.382812 4.234375 10.058594 4.007812 9.703125 3.851562 C 9.347656 3.695312 8.972656 3.617188 8.578125 3.617188 C 7.910156 3.617188 7.351562 3.84375 6.898438 4.292969 C 6.449219 4.738281 6.226562 5.304688 6.226562 5.992188 C 6.226562 6.382812 6.308594 6.753906 6.476562 7.097656 C 6.652344 7.433594 6.890625 7.738281 7.191406 8.007812 C 7.496094 8.273438 7.847656 8.5 8.242188 8.679688 Z M 10.976562 8.539062 C 10.515625 8.539062 10.078125 8.46875 9.664062 8.324219 C 9.253906 8.179688 8.886719 7.992188 8.570312 7.761719 C 8.25 7.523438 8 7.261719 7.820312 6.976562 C 7.636719 6.679688 7.546875 6.386719 7.546875 6.09375 C 7.546875 5.738281 7.648438 5.460938 7.847656 5.257812 C 8.046875 5.054688 8.316406 4.949219 8.652344 4.949219 C 9.003906 4.949219 9.335938 5.039062 9.648438 5.210938 C 9.960938 5.386719 10.238281 5.632812 10.480469 5.945312 C 10.726562 6.25 10.914062 6.601562 11.054688 7.003906 C 11.191406 7.402344 11.257812 7.828125 11.257812 8.277344 L 11.257812 8.539062 Z M 13.011719 8.539062 L 12.730469 8.539062 L 12.730469 8.277344 C 12.730469 7.828125 12.800781 7.402344 12.9375 7.003906 C 13.082031 6.601562 13.273438 6.25 13.519531 5.945312 C 13.761719 5.632812 14.039062 5.386719 14.351562 5.210938 C 14.664062 5.039062 14.992188 4.949219 15.335938 4.949219 C 15.679688 4.949219 15.949219 5.054688 16.144531 5.257812 C 16.34375 5.460938 16.445312 5.738281 16.445312 6.09375 C 16.445312 6.386719 16.351562 6.679688 16.171875 6.976562 C 15.992188 7.261719 15.742188 7.523438 15.421875 7.761719 C 15.109375 7.992188 14.746094 8.179688 14.335938 8.324219 C 13.921875 8.46875 13.480469 8.539062 13.011719 8.539062 Z M 3.929688 16.847656 L 20.070312 16.847656 C 21.054688 16.847656 21.789062 16.601562 22.273438 16.117188 C 22.769531 15.632812 23.015625 14.914062 23.015625 13.949219 L 23.015625 3.742188 C 23.015625 2.777344 22.769531 2.054688 22.273438 1.566406 C 21.789062 1.078125 21.054688 0.835938 20.070312 0.835938 L 3.929688 0.835938 C 2.945312 0.835938 2.210938 1.078125 1.714844 1.566406 C 1.226562 2.046875 0.984375 2.773438 0.984375 3.742188 L 0.984375 13.949219 C 0.984375 14.914062 1.226562 15.632812 1.714844 16.117188 C 2.210938 16.601562 2.945312 16.847656 3.929688 16.847656 Z M 3.945312 15.335938 C 3.476562 15.335938 3.117188 15.214844 2.867188 14.972656 C 2.617188 14.722656 2.492188 14.351562 2.492188 13.867188 L 2.492188 3.824219 C 2.492188 3.335938 2.617188 2.96875 2.867188 2.71875 C 3.117188 2.46875 3.476562 2.34375 3.945312 2.34375 L 20.054688 2.34375 C 20.515625 2.34375 20.871094 2.46875 21.121094 2.71875 C 21.378906 2.96875 21.507812 3.335938 21.507812 3.824219 L 21.507812 13.867188 C 21.507812 14.351562 21.378906 14.722656 21.121094 14.972656 C 20.871094 15.214844 20.515625 15.335938 20.054688 15.335938 Z M 3.945312 15.335938 "/>
</g>
</svg>
