<?xml version="1.0" encoding="UTF-8"?>
<svg xmlns="http://www.w3.org/2000/svg" xmlns:xlink="http://www.w3.org/1999/xlink" width="24" height="25.5" viewBox="0 0 24 25.5" version="1.1">
<g id="surface1">
<path style=" stroke:none;fill-rule:nonzero;fill:rgb(100%,100%,100%);fill-opacity:1;" d="M 12 24.503906 C 13.632812 24.503906 15.167969 24.191406 16.605469 23.566406 C 18.050781 22.941406 19.324219 22.078125 20.425781 20.976562 C 21.527344 19.875 22.390625 18.605469 23.015625 17.167969 C 23.640625 15.722656 23.953125 14.183594 23.953125 12.550781 C 23.953125 10.917969 23.640625 9.382812 23.015625 7.945312 C 22.390625 6.5 21.527344 5.226562 20.425781 4.125 C 19.324219 3.023438 18.050781 2.160156 16.605469 1.535156 C 15.160156 0.910156 13.621094 0.597656 11.988281 0.597656 C 10.355469 0.597656 8.816406 0.910156 7.371094 1.535156 C 5.933594 2.160156 4.664062 3.023438 3.5625 4.125 C 2.46875 5.226562 1.609375 6.5 0.984375 7.945312 C 0.359375 9.382812 0.046875 10.917969 0.046875 12.550781 C 0.046875 14.183594 0.359375 15.722656 0.984375 17.167969 C 1.609375 18.605469 2.472656 19.875 3.574219 20.976562 C 4.675781 22.078125 5.945312 22.941406 7.382812 23.566406 C 8.828125 24.191406 10.367188 24.503906 12 24.503906 Z M 7.066406 17.027344 L 7.066406 13.148438 L 11.507812 13.148438 L 11.507812 18.550781 L 8.660156 18.550781 C 8.160156 18.550781 7.769531 18.421875 7.488281 18.164062 C 7.207031 17.90625 7.066406 17.527344 7.066406 17.027344 Z M 12.492188 18.550781 L 12.492188 13.148438 L 16.933594 13.148438 L 16.933594 17.027344 C 16.933594 17.527344 16.792969 17.90625 16.511719 18.164062 C 16.230469 18.421875 15.839844 18.550781 15.339844 18.550781 Z M 6.210938 11.589844 L 6.210938 10.136719 C 6.210938 9.816406 6.300781 9.585938 6.480469 9.445312 C 6.660156 9.304688 6.90625 9.234375 7.21875 9.234375 L 8.625 9.234375 C 8.257812 8.898438 8.074219 8.464844 8.074219 7.933594 C 8.074219 7.347656 8.273438 6.867188 8.671875 6.492188 C 9.070312 6.117188 9.558594 5.929688 10.136719 5.929688 C 10.566406 5.929688 10.945312 6.042969 11.273438 6.269531 C 11.601562 6.488281 11.84375 6.804688 12 7.21875 C 12.15625 6.804688 12.398438 6.488281 12.726562 6.269531 C 13.054688 6.042969 13.433594 5.929688 13.863281 5.929688 C 14.441406 5.929688 14.929688 6.117188 15.328125 6.492188 C 15.726562 6.867188 15.925781 7.347656 15.925781 7.933594 C 15.925781 8.464844 15.742188 8.898438 15.375 9.234375 L 16.769531 9.234375 C 17.105469 9.234375 17.359375 9.304688 17.53125 9.445312 C 17.703125 9.585938 17.789062 9.816406 17.789062 10.136719 L 17.789062 11.589844 C 17.789062 11.917969 17.703125 12.152344 17.53125 12.292969 C 17.359375 12.433594 17.105469 12.503906 16.769531 12.503906 L 12.492188 12.503906 L 12.492188 9.234375 L 13.429688 9.234375 C 13.90625 9.234375 14.277344 9.109375 14.542969 8.859375 C 14.808594 8.609375 14.941406 8.3125 14.941406 7.96875 C 14.941406 7.640625 14.832031 7.382812 14.613281 7.195312 C 14.394531 7.007812 14.125 6.914062 13.804688 6.914062 C 13.429688 6.914062 13.117188 7.046875 12.867188 7.3125 C 12.617188 7.570312 12.492188 7.921875 12.492188 8.367188 L 12.492188 9.234375 L 11.507812 9.234375 L 11.507812 8.367188 C 11.507812 7.921875 11.382812 7.570312 11.132812 7.3125 C 10.882812 7.046875 10.570312 6.914062 10.195312 6.914062 C 9.867188 6.914062 9.59375 7.007812 9.375 7.195312 C 9.164062 7.382812 9.058594 7.640625 9.058594 7.96875 C 9.058594 8.3125 9.191406 8.609375 9.457031 8.859375 C 9.722656 9.109375 10.09375 9.234375 10.570312 9.234375 L 11.507812 9.234375 L 11.507812 12.503906 L 7.21875 12.503906 C 6.898438 12.503906 6.648438 12.433594 6.46875 12.292969 C 6.296875 12.152344 6.210938 11.917969 6.210938 11.589844 Z M 6.210938 11.589844 "/>
</g>
</svg>
