<?xml version="1.0" encoding="UTF-8"?>
<svg xmlns="http://www.w3.org/2000/svg" xmlns:xlink="http://www.w3.org/1999/xlink" width="24" height="25.5" viewBox="0 0 24 25.5" version="1.1">
<g id="surface1">
<path style=" stroke:none;fill-rule:nonzero;fill:rgb(100%,100%,100%);fill-opacity:1;" d="M 12.46875 21.398438 C 12.765625 21.398438 13.148438 21.210938 13.617188 20.835938 C 14.085938 20.453125 14.574219 19.964844 15.082031 19.371094 C 15.597656 18.777344 16.082031 18.140625 16.535156 17.460938 C 16.988281 16.78125 17.355469 16.132812 17.636719 15.515625 C 17.925781 14.898438 18.070312 14.390625 18.070312 13.992188 C 18.070312 13.703125 17.933594 13.371094 17.660156 12.996094 C 17.394531 12.613281 17.054688 12.242188 16.640625 11.882812 C 16.226562 11.523438 15.800781 11.226562 15.363281 10.992188 C 14.925781 10.757812 14.542969 10.640625 14.214844 10.640625 C 14.019531 10.640625 13.796875 10.710938 13.546875 10.851562 C 13.296875 10.984375 13.039062 11.121094 12.773438 11.261719 C 12.515625 11.394531 12.273438 11.460938 12.046875 11.460938 C 11.882812 11.460938 11.679688 11.394531 11.4375 11.261719 C 11.195312 11.121094 10.953125 10.949219 10.710938 10.746094 C 10.476562 10.535156 10.277344 10.324219 10.113281 10.113281 C 9.957031 9.894531 9.878906 9.714844 9.878906 9.574219 C 9.878906 9.410156 9.9375 9.285156 10.054688 9.199219 C 10.179688 9.105469 10.324219 9.058594 10.488281 9.058594 C 10.675781 9.058594 10.898438 9.140625 11.15625 9.304688 C 11.414062 9.460938 11.6875 9.621094 11.976562 9.785156 C 12.273438 9.941406 12.574219 10.019531 12.878906 10.019531 C 13.261719 10.019531 13.550781 9.898438 13.746094 9.65625 C 13.949219 9.414062 14.050781 9.105469 14.050781 8.730469 C 14.050781 8.535156 14 8.332031 13.898438 8.121094 C 13.796875 7.910156 13.664062 7.675781 13.5 7.417969 C 13.804688 7.269531 14.164062 7.082031 14.578125 6.855469 C 15 6.628906 15.429688 6.367188 15.867188 6.070312 C 16.304688 5.773438 16.703125 5.449219 17.0625 5.097656 C 17.429688 4.738281 17.710938 4.355469 17.90625 3.949219 C 17.46875 3.269531 16.710938 2.726562 15.632812 2.320312 C 14.554688 1.90625 13.335938 1.699219 11.976562 1.699219 C 10.976562 1.699219 9.996094 1.832031 9.035156 2.097656 C 8.082031 2.363281 7.214844 2.722656 6.433594 3.175781 C 5.652344 3.621094 5.011719 4.121094 4.511719 4.675781 C 4.019531 5.222656 3.730469 5.785156 3.644531 6.363281 C 3.574219 6.980469 3.757812 7.625 4.195312 8.296875 C 4.640625 8.96875 5.273438 9.660156 6.09375 10.371094 L 7.804688 11.859375 C 8.078125 12.101562 8.289062 12.292969 8.4375 12.433594 C 8.585938 12.574219 8.660156 12.71875 8.660156 12.867188 C 8.660156 13.03125 8.613281 13.1875 8.519531 13.335938 C 8.425781 13.484375 8.332031 13.640625 8.238281 13.804688 C 8.144531 13.960938 8.097656 14.148438 8.097656 14.367188 C 8.097656 14.953125 8.394531 15.464844 8.988281 15.902344 C 9.621094 16.378906 10.105469 16.738281 10.441406 16.980469 C 10.785156 17.222656 11.019531 17.414062 11.144531 17.554688 C 11.277344 17.6875 11.34375 17.824219 11.34375 17.964844 C 11.351562 18.355469 11.277344 18.710938 11.121094 19.03125 C 10.972656 19.34375 10.898438 19.679688 10.898438 20.039062 C 10.898438 20.359375 11.066406 20.667969 11.402344 20.964844 C 11.746094 21.253906 12.101562 21.398438 12.46875 21.398438 Z M 12 24.492188 C 13.632812 24.492188 15.167969 24.179688 16.605469 23.554688 C 18.050781 22.929688 19.324219 22.066406 20.425781 20.964844 C 21.527344 19.863281 22.390625 18.59375 23.015625 17.15625 C 23.640625 15.710938 23.953125 14.171875 23.953125 12.539062 C 23.953125 10.90625 23.640625 9.371094 23.015625 7.933594 C 22.390625 6.488281 21.527344 5.214844 20.425781 4.113281 C 19.324219 3.011719 18.050781 2.148438 16.605469 1.523438 C 15.160156 0.898438 13.621094 0.585938 11.988281 0.585938 C 10.355469 0.585938 8.816406 0.898438 7.371094 1.523438 C 5.933594 2.148438 4.664062 3.011719 3.5625 4.113281 C 2.46875 5.214844 1.609375 6.488281 0.984375 7.933594 C 0.359375 9.371094 0.046875 10.90625 0.046875 12.539062 C 0.046875 14.171875 0.359375 15.710938 0.984375 17.15625 C 1.609375 18.59375 2.472656 19.863281 3.574219 20.964844 C 4.675781 22.066406 5.945312 22.929688 7.382812 23.554688 C 8.828125 24.179688 10.367188 24.492188 12 24.492188 Z M 12 22.898438 C 10.585938 22.898438 9.253906 22.625 8.003906 22.078125 C 6.753906 21.539062 5.652344 20.792969 4.699219 19.839844 C 3.746094 18.886719 2.996094 17.785156 2.449219 16.535156 C 1.910156 15.285156 1.640625 13.953125 1.640625 12.539062 C 1.640625 11.125 1.910156 9.792969 2.449219 8.542969 C 2.996094 7.292969 3.742188 6.191406 4.6875 5.238281 C 5.640625 4.285156 6.742188 3.539062 7.992188 3 C 9.242188 2.453125 10.574219 2.179688 11.988281 2.179688 C 13.402344 2.179688 14.734375 2.453125 15.984375 3 C 17.234375 3.539062 18.335938 4.285156 19.289062 5.238281 C 20.25 6.191406 21 7.292969 21.539062 8.542969 C 22.085938 9.792969 22.359375 11.125 22.359375 12.539062 C 22.359375 13.953125 22.085938 15.285156 21.539062 16.535156 C 21 17.785156 20.253906 18.886719 19.300781 19.839844 C 18.347656 20.792969 17.246094 21.539062 15.996094 22.078125 C 14.746094 22.625 13.414062 22.898438 12 22.898438 Z M 12 22.898438 "/>
</g>
</svg>
