<svg width="128" height="141" viewBox="0 0 128 141" fill="none" xmlns="http://www.w3.org/2000/svg">
<path d="M0.1875 76.875C0.1875 85.5833 1.85417 93.7917 5.1875 101.5C8.52083 109.208 13.125 116 19 121.875C24.875 127.708 31.6458 132.292 39.3125 135.625C47.0208 138.958 55.2292 140.625 63.9375 140.625C72.6458 140.625 80.8333 138.958 88.5 135.625C96.2083 132.292 103 127.708 108.875 121.875C114.75 116 119.354 109.208 122.688 101.5C126.021 93.7917 127.688 85.5833 127.688 76.875C127.688 69.2083 126.375 61.9167 123.75 55C121.125 48.0833 117.458 41.8333 112.75 36.25C108.083 30.625 102.604 25.9375 96.3125 22.1875C90.0625 18.3958 83.2917 15.7708 76 14.3125V5.4375C76 3.1875 75.3542 1.79167 74.0625 1.25C72.7708 0.708333 71.2708 1.04167 69.5625 2.25L49.625 16.1875C48.1667 17.1875 47.4375 18.3542 47.4375 19.6875C47.4375 21.0208 48.1667 22.2083 49.625 23.25L69.5 37.25C71.2083 38.5 72.7083 38.8542 74 38.3125C75.3333 37.7292 76 36.3125 76 34.0625V25.1875C81.9167 26.5208 87.3542 28.7708 92.3125 31.9375C97.3125 35.1042 101.646 38.9792 105.312 43.5625C109.021 48.1458 111.896 53.2708 113.938 58.9375C115.979 64.5625 117 70.5417 117 76.875C117 84.25 115.625 91.1667 112.875 97.625C110.167 104.042 106.375 109.688 101.5 114.562C96.6667 119.396 91.0417 123.167 84.625 125.875C78.2083 128.625 71.3125 130 63.9375 130C56.5625 130 49.6458 128.625 43.1875 125.875C36.7708 123.167 31.125 119.396 26.25 114.562C21.4167 109.688 17.625 104.042 14.875 97.625C12.1667 91.1667 10.8125 84.25 10.8125 76.875C10.8125 70.9583 11.7292 65.3333 13.5625 60C15.3958 54.625 17.9583 49.7292 21.25 45.3125C24.5417 40.8958 28.3958 37.1042 32.8125 33.9375C34.1042 32.9792 34.9167 31.8125 35.25 30.4375C35.625 29.0625 35.4167 27.7292 34.625 26.4375C33.8333 25.1875 32.6875 24.4375 31.1875 24.1875C29.6875 23.8958 28.25 24.2708 26.875 25.3125C21.5 29.1875 16.8125 33.8125 12.8125 39.1875C8.8125 44.5208 5.70833 50.3958 3.5 56.8125C1.29167 63.1875 0.1875 69.875 0.1875 76.875ZM44.1875 103.188C49.2292 103.188 53.25 101.646 56.25 98.5625C59.25 95.4792 60.75 91.375 60.75 86.25C60.75 81.75 59.3542 78.0417 56.5625 75.125C53.8125 72.2083 50.3125 70.75 46.0625 70.75C43.1458 70.75 40.625 71.4375 38.5 72.8125C36.4167 74.1458 34.9583 75.8958 34.125 78.0625L34.4375 78.5C34.3958 78.2917 34.375 78.1667 34.375 78.125C34.375 78.0417 34.375 77.9167 34.375 77.75C34.375 72.5833 35.3333 68.4375 37.25 65.3125C39.2083 62.1875 41.8125 60.625 45.0625 60.625C46.6875 60.625 48.0208 60.9375 49.0625 61.5625C50.1458 62.1875 51.0417 63.0833 51.75 64.25C52.75 65.7917 54.0833 66.5625 55.75 66.5625C56.6667 66.5625 57.4167 66.25 58 65.625C58.5833 64.9583 58.875 64.125 58.875 63.125C58.875 62.7083 58.8333 62.2917 58.75 61.875C58.6667 61.4583 58.5625 61.0833 58.4375 60.75C57.6042 58.625 56.0417 56.875 53.75 55.5C51.4583 54.0833 48.6667 53.375 45.375 53.375C39.375 53.375 34.7708 55.6458 31.5625 60.1875C28.3542 64.6875 26.75 71.125 26.75 79.5C26.75 82.7917 27 85.7917 27.5 88.5C28.0417 91.1667 28.8542 93.4583 29.9375 95.375C31.3542 97.9583 33.2917 99.9167 35.75 101.25C38.2083 102.542 41.0208 103.188 44.1875 103.188ZM43.8125 96.25C41.2708 96.25 39.1667 95.3542 37.5 93.5625C35.8333 91.7292 35 89.4167 35 86.625C35 83.875 35.8125 81.6458 37.4375 79.9375C39.1042 78.1875 41.2292 77.3125 43.8125 77.3125C46.4375 77.3125 48.5625 78.1667 50.1875 79.875C51.8542 81.5833 52.6875 83.8333 52.6875 86.625C52.6875 89.5833 51.875 91.9375 50.25 93.6875C48.6667 95.3958 46.5208 96.25 43.8125 96.25ZM85.3125 103.188C88.7708 103.188 91.7917 102.167 94.375 100.125C96.9583 98.0417 98.9583 95.1458 100.375 91.4375C101.792 87.7292 102.5 83.375 102.5 78.375C102.5 73.3333 101.792 68.9375 100.375 65.1875C98.9583 61.4375 96.9583 58.5208 94.375 56.4375C91.7917 54.3542 88.7708 53.3125 85.3125 53.3125C80.1042 53.3125 75.9375 55.6042 72.8125 60.1875C69.7292 64.7708 68.1875 70.8542 68.1875 78.4375C68.1875 85.9375 69.75 91.9375 72.875 96.4375C76 100.938 80.1458 103.188 85.3125 103.188ZM85.3125 95.625C82.5625 95.625 80.375 94.0833 78.75 91C77.125 87.9167 76.3125 83.7083 76.3125 78.375C76.3125 72.9167 77.1042 68.6458 78.6875 65.5625C80.3125 62.4375 82.5208 60.875 85.3125 60.875C88.1042 60.875 90.2917 62.4167 91.875 65.5C93.5 68.5833 94.3125 72.875 94.3125 78.375C94.3125 83.7083 93.5 87.9167 91.875 91C90.2917 94.0833 88.1042 95.625 85.3125 95.625Z" fill="white"/>
</svg>
