<?xml version="1.0" encoding="UTF-8"?>
<svg xmlns="http://www.w3.org/2000/svg" xmlns:xlink="http://www.w3.org/1999/xlink" width="24" height="28.5" viewBox="0 0 24 28.5" version="1.1">
<g id="surface1">
<path style=" stroke:none;fill-rule:nonzero;fill:rgb(100%,100%,100%);fill-opacity:1;" d="M 0.046875 15.539062 C 0.046875 17.171875 0.359375 18.710938 0.984375 20.15625 C 1.609375 21.601562 2.472656 22.875 3.574219 23.976562 C 4.675781 25.070312 5.945312 25.929688 7.382812 26.554688 C 8.828125 27.179688 10.367188 27.492188 12 27.492188 C 13.632812 27.492188 15.167969 27.179688 16.605469 26.554688 C 18.050781 25.929688 19.324219 25.070312 20.425781 23.976562 C 21.527344 22.875 22.390625 21.601562 23.015625 20.15625 C 23.640625 18.710938 23.953125 17.171875 23.953125 15.539062 C 23.953125 14.101562 23.707031 12.734375 23.214844 11.4375 C 22.722656 10.140625 22.035156 8.96875 21.152344 7.921875 C 20.277344 6.867188 19.25 5.988281 18.070312 5.285156 C 16.898438 4.574219 15.628906 4.082031 14.261719 3.808594 L 14.261719 2.144531 C 14.261719 1.722656 14.140625 1.460938 13.898438 1.359375 C 13.65625 1.257812 13.375 1.320312 13.054688 1.546875 L 9.316406 4.160156 C 9.042969 4.347656 8.90625 4.566406 8.90625 4.816406 C 8.90625 5.066406 9.042969 5.289062 9.316406 5.484375 L 13.042969 8.109375 C 13.363281 8.34375 13.644531 8.410156 13.886719 8.308594 C 14.136719 8.199219 14.261719 7.933594 14.261719 7.511719 L 14.261719 5.847656 C 15.371094 6.097656 16.390625 6.519531 17.320312 7.113281 C 18.257812 7.707031 19.070312 8.433594 19.757812 9.292969 C 20.453125 10.152344 20.992188 11.113281 21.375 12.175781 C 21.757812 13.230469 21.949219 14.351562 21.949219 15.539062 C 21.949219 16.921875 21.691406 18.21875 21.175781 19.429688 C 20.667969 20.632812 19.957031 21.691406 19.042969 22.605469 C 18.136719 23.511719 17.082031 24.21875 15.878906 24.726562 C 14.675781 25.242188 13.382812 25.5 12 25.5 C 10.617188 25.5 9.320312 25.242188 8.109375 24.726562 C 6.90625 24.21875 5.847656 23.511719 4.933594 22.605469 C 4.027344 21.691406 3.316406 20.632812 2.800781 19.429688 C 2.292969 18.21875 2.039062 16.921875 2.039062 15.539062 C 2.039062 14.429688 2.210938 13.375 2.554688 12.375 C 2.898438 11.367188 3.378906 10.449219 3.996094 9.621094 C 4.613281 8.792969 5.335938 8.082031 6.164062 7.488281 C 6.40625 7.308594 6.558594 7.089844 6.621094 6.832031 C 6.691406 6.574219 6.652344 6.324219 6.503906 6.082031 C 6.355469 5.847656 6.140625 5.707031 5.859375 5.660156 C 5.578125 5.605469 5.308594 5.675781 5.050781 5.871094 C 4.042969 6.597656 3.164062 7.464844 2.414062 8.472656 C 1.664062 9.472656 1.082031 10.574219 0.667969 11.777344 C 0.253906 12.972656 0.046875 14.226562 0.046875 15.539062 Z M 8.789062 20.332031 C 9.015625 20.332031 9.195312 20.261719 9.328125 20.121094 C 9.46875 19.972656 9.539062 19.773438 9.539062 19.523438 L 9.539062 12.152344 C 9.539062 11.863281 9.464844 11.636719 9.316406 11.472656 C 9.175781 11.300781 8.972656 11.214844 8.707031 11.214844 C 8.542969 11.214844 8.394531 11.246094 8.261719 11.308594 C 8.128906 11.363281 7.953125 11.460938 7.734375 11.601562 L 6.117188 12.691406 C 5.984375 12.785156 5.886719 12.886719 5.824219 12.996094 C 5.761719 13.105469 5.730469 13.230469 5.730469 13.371094 C 5.730469 13.566406 5.796875 13.734375 5.929688 13.875 C 6.0625 14.015625 6.222656 14.085938 6.410156 14.085938 C 6.519531 14.085938 6.609375 14.074219 6.679688 14.050781 C 6.757812 14.019531 6.855469 13.960938 6.972656 13.875 L 8.097656 13.054688 L 8.0625 13.054688 L 8.0625 19.523438 C 8.0625 19.765625 8.128906 19.960938 8.261719 20.109375 C 8.394531 20.257812 8.570312 20.332031 8.789062 20.332031 Z M 14.894531 20.472656 C 15.542969 20.472656 16.109375 20.28125 16.59375 19.898438 C 17.078125 19.507812 17.453125 18.964844 17.71875 18.269531 C 17.984375 17.574219 18.117188 16.757812 18.117188 15.820312 C 18.117188 14.875 17.984375 14.050781 17.71875 13.347656 C 17.453125 12.644531 17.078125 12.097656 16.59375 11.707031 C 16.109375 11.316406 15.542969 11.121094 14.894531 11.121094 C 13.925781 11.121094 13.144531 11.550781 12.550781 12.410156 C 11.964844 13.261719 11.671875 14.398438 11.671875 15.820312 C 11.671875 17.226562 11.964844 18.355469 12.550781 19.207031 C 13.144531 20.050781 13.925781 20.472656 14.894531 20.472656 Z M 14.894531 19.054688 C 14.378906 19.054688 13.964844 18.765625 13.652344 18.1875 C 13.347656 17.609375 13.195312 16.820312 13.195312 15.820312 C 13.195312 14.796875 13.347656 13.996094 13.652344 13.417969 C 13.957031 12.832031 14.371094 12.539062 14.894531 12.539062 C 15.417969 12.539062 15.828125 12.828125 16.125 13.40625 C 16.429688 13.984375 16.582031 14.789062 16.582031 15.820312 C 16.582031 16.820312 16.429688 17.609375 16.125 18.1875 C 15.820312 18.765625 15.410156 19.054688 14.894531 19.054688 Z M 14.894531 19.054688 "/>
</g>
</svg>
