<svg xmlns="http://www.w3.org/2000/svg" width="24" height="24"><path style="stroke:none;fill-rule:nonzero;fill:#fff;fill-opacity:1" d="M.047 13.086c0 1.375.312 2.668.937 3.887.614 1.203 1.493 2.293 2.59 3.218a12.737 12.737 0 0 0 3.809 2.172c1.445.524 2.984.79 4.617.79s3.168-.266 4.605-.79a12.715 12.715 0 0 0 3.82-2.172c1.098-.925 1.977-2.015 2.59-3.218a8.38 8.38 0 0 0 .938-3.887c0-1.211-.246-2.363-.738-3.453a9.927 9.927 0 0 0-2.063-2.961 11.563 11.563 0 0 0-3.082-2.223 13.09 13.09 0 0 0-3.808-1.242V1.805c0-.356-.121-.575-.364-.66-.242-.086-.523-.032-.843.16L9.316 3.504c-.273.156-.41.34-.41.55 0 .212.137.4.41.563l3.727 2.211c.32.2.602.254.844.168.25-.09.375-.316.375-.672V4.926c1.11.21 2.129.566 3.058 1.062a9.583 9.583 0 0 1 2.438 1.836c1.43 1.489 2.203 3.348 2.191 5.262a7.137 7.137 0 0 1-.773 3.273c-1 2.016-2.903 3.621-5.297 4.465-1.203.434-2.496.649-3.879.649-1.336.007-2.66-.211-3.89-.649a10.336 10.336 0 0 1-3.176-1.789A8.63 8.63 0 0 1 2.8 16.363a7.228 7.228 0 0 1-.762-3.277c0-.934.172-1.824.516-2.664a7.99 7.99 0 0 1 1.441-2.32 9.279 9.279 0 0 1 2.168-1.797c.242-.153.395-.336.457-.551a.679.679 0 0 0-.117-.633.937.937 0 0 0-.645-.355 1.123 1.123 0 0 0-.808.18 11.179 11.179 0 0 0-2.637 2.19A9.633 9.633 0 0 0 .668 9.919a8.176 8.176 0 0 0-.621 3.168Zm8.25 4.156c.945 0 1.7-.246 2.262-.734.562-.485.843-1.133.843-1.942 0-.71-.261-1.296-.785-1.757-.515-.461-1.172-.692-1.969-.692-.546 0-1.02.11-1.418.328-.39.211-.664.485-.82.828l.059.07-.012-.058v-.062c0-.817.18-1.47.54-1.961.366-.496.855-.742 1.464-.742.305 0 .555.05.75.148.203.098.371.238.504.426a.9.9 0 0 0 .75.363c.16.004.312-.05.422-.148a.509.509 0 0 0 .164-.395 1.044 1.044 0 0 0-.082-.375c-.156-.336-.45-.613-.88-.828-.429-.223-.952-.336-1.57-.336-1.124 0-1.988.36-2.59 1.074-.6.711-.902 1.727-.902 3.051 0 .52.047.992.141 1.422.102.422.254.781.457 1.086.266.406.629.715 1.09.926.46.203.988.308 1.582.308Zm-.07-1.097c-.477 0-.872-.141-1.184-.426a1.424 1.424 0 0 1-.469-1.094c0-.434.153-.785.457-1.055.313-.277.711-.414 1.196-.414.492 0 .89.133 1.195.403.312.27.469.625.469 1.066 0 .469-.153.84-.457 1.113-.297.27-.7.407-1.207.407Zm7.78 1.093a2.997 2.997 0 0 0 1.7-.48c.484-.328.86-.79 1.125-1.371.266-.586.398-1.274.398-2.067 0-.793-.132-1.488-.398-2.078-.266-.594-.64-1.055-1.125-1.383a2.962 2.962 0 0 0-1.7-.496c-.976 0-1.757.364-2.343 1.09-.578.723-.867 1.684-.867 2.879 0 1.184.293 2.133.879 2.844.586.71 1.363 1.066 2.332 1.066Zm0-1.191c-.515 0-.925-.246-1.23-.73-.304-.489-.457-1.153-.457-1.997 0-.86.149-1.535.446-2.02.304-.495.718-.741 1.242-.741.523 0 .933.246 1.23.73.305.488.457 1.164.457 2.031 0 .844-.152 1.508-.457 1.996-.297.489-.707.73-1.23.73Zm0 0"/></svg>