<?xml version="1.0" encoding="UTF-8"?>
<svg xmlns="http://www.w3.org/2000/svg" xmlns:xlink="http://www.w3.org/1999/xlink" width="24" height="28.5" viewBox="0 0 24 28.5" version="1.1">
<g id="surface1">
<path style=" stroke:none;fill-rule:nonzero;fill:rgb(100%,100%,100%);fill-opacity:1;" d="M 0.046875 15.539062 C 0.046875 17.171875 0.359375 18.710938 0.984375 20.15625 C 1.609375 21.601562 2.472656 22.875 3.574219 23.976562 C 4.675781 25.070312 5.945312 25.929688 7.382812 26.554688 C 8.828125 27.179688 10.367188 27.492188 12 27.492188 C 13.632812 27.492188 15.167969 27.179688 16.605469 26.554688 C 18.050781 25.929688 19.324219 25.070312 20.425781 23.976562 C 21.527344 22.875 22.390625 21.601562 23.015625 20.15625 C 23.640625 18.710938 23.953125 17.171875 23.953125 15.539062 C 23.953125 14.101562 23.707031 12.734375 23.214844 11.4375 C 22.722656 10.140625 22.035156 8.96875 21.152344 7.921875 C 20.277344 6.867188 19.25 5.988281 18.070312 5.285156 C 16.898438 4.574219 15.628906 4.082031 14.261719 3.808594 L 14.261719 2.144531 C 14.261719 1.722656 14.140625 1.460938 13.898438 1.359375 C 13.65625 1.257812 13.375 1.320312 13.054688 1.546875 L 9.316406 4.160156 C 9.042969 4.347656 8.90625 4.566406 8.90625 4.816406 C 8.90625 5.066406 9.042969 5.289062 9.316406 5.484375 L 13.042969 8.109375 C 13.363281 8.34375 13.644531 8.410156 13.886719 8.308594 C 14.136719 8.199219 14.261719 7.933594 14.261719 7.511719 L 14.261719 5.847656 C 15.371094 6.097656 16.390625 6.519531 17.320312 7.113281 C 18.257812 7.707031 19.070312 8.433594 19.757812 9.292969 C 20.453125 10.152344 20.992188 11.113281 21.375 12.175781 C 21.757812 13.230469 21.949219 14.351562 21.949219 15.539062 C 21.949219 16.921875 21.691406 18.21875 21.175781 19.429688 C 20.667969 20.632812 19.957031 21.691406 19.042969 22.605469 C 18.136719 23.511719 17.082031 24.21875 15.878906 24.726562 C 14.675781 25.242188 13.382812 25.5 12 25.5 C 10.617188 25.5 9.320312 25.242188 8.109375 24.726562 C 6.90625 24.21875 5.847656 23.511719 4.933594 22.605469 C 4.027344 21.691406 3.316406 20.632812 2.800781 19.429688 C 2.292969 18.21875 2.039062 16.921875 2.039062 15.539062 C 2.039062 14.429688 2.210938 13.375 2.554688 12.375 C 2.898438 11.367188 3.378906 10.449219 3.996094 9.621094 C 4.613281 8.792969 5.335938 8.082031 6.164062 7.488281 C 6.40625 7.308594 6.558594 7.089844 6.621094 6.832031 C 6.691406 6.574219 6.652344 6.324219 6.503906 6.082031 C 6.355469 5.847656 6.140625 5.707031 5.859375 5.660156 C 5.578125 5.605469 5.308594 5.675781 5.050781 5.871094 C 4.042969 6.597656 3.164062 7.464844 2.414062 8.472656 C 1.664062 9.472656 1.082031 10.574219 0.667969 11.777344 C 0.253906 12.972656 0.046875 14.226562 0.046875 15.539062 Z M 8.355469 20.472656 C 9.277344 20.472656 10.03125 20.222656 10.617188 19.722656 C 11.210938 19.214844 11.507812 18.566406 11.507812 17.777344 C 11.507812 17.207031 11.328125 16.714844 10.96875 16.300781 C 10.609375 15.878906 10.152344 15.636719 9.597656 15.574219 L 9.597656 15.632812 C 10.042969 15.554688 10.421875 15.3125 10.734375 14.90625 C 11.054688 14.5 11.214844 14.035156 11.214844 13.511719 C 11.214844 12.808594 10.953125 12.234375 10.429688 11.789062 C 9.914062 11.34375 9.246094 11.121094 8.425781 11.121094 C 7.714844 11.121094 7.089844 11.304688 6.550781 11.671875 C 6.019531 12.03125 5.691406 12.492188 5.566406 13.054688 C 5.558594 13.125 5.550781 13.191406 5.542969 13.253906 C 5.535156 13.316406 5.53125 13.378906 5.53125 13.441406 C 5.53125 13.652344 5.589844 13.824219 5.707031 13.957031 C 5.832031 14.089844 5.996094 14.15625 6.199219 14.15625 C 6.527344 14.15625 6.753906 13.972656 6.878906 13.605469 C 6.996094 13.238281 7.179688 12.960938 7.429688 12.773438 C 7.679688 12.578125 8 12.480469 8.390625 12.480469 C 8.804688 12.480469 9.136719 12.59375 9.386719 12.820312 C 9.644531 13.039062 9.773438 13.328125 9.773438 13.6875 C 9.773438 14.0625 9.644531 14.375 9.386719 14.625 C 9.128906 14.867188 8.792969 14.988281 8.378906 14.988281 L 7.875 14.988281 C 7.679688 14.988281 7.519531 15.050781 7.394531 15.175781 C 7.277344 15.292969 7.21875 15.457031 7.21875 15.667969 C 7.21875 15.863281 7.28125 16.027344 7.40625 16.160156 C 7.53125 16.285156 7.6875 16.347656 7.875 16.347656 L 8.425781 16.347656 C 8.925781 16.347656 9.320312 16.472656 9.609375 16.722656 C 9.898438 16.972656 10.042969 17.304688 10.042969 17.71875 C 10.042969 18.117188 9.882812 18.453125 9.5625 18.726562 C 9.25 18.992188 8.851562 19.125 8.367188 19.125 C 7.953125 19.125 7.605469 19.027344 7.324219 18.832031 C 7.042969 18.636719 6.835938 18.355469 6.703125 17.988281 C 6.632812 17.792969 6.542969 17.652344 6.433594 17.566406 C 6.324219 17.480469 6.191406 17.4375 6.035156 17.4375 C 5.839844 17.4375 5.675781 17.503906 5.542969 17.636719 C 5.417969 17.769531 5.355469 17.941406 5.355469 18.152344 C 5.355469 18.214844 5.359375 18.28125 5.367188 18.351562 C 5.375 18.414062 5.386719 18.476562 5.402344 18.539062 C 5.527344 19.085938 5.871094 19.546875 6.433594 19.921875 C 6.996094 20.289062 7.636719 20.472656 8.355469 20.472656 Z M 15.914062 20.472656 C 16.5625 20.472656 17.125 20.28125 17.601562 19.898438 C 18.085938 19.507812 18.460938 18.964844 18.726562 18.269531 C 19 17.574219 19.136719 16.757812 19.136719 15.820312 C 19.136719 14.875 19 14.050781 18.726562 13.347656 C 18.460938 12.644531 18.085938 12.097656 17.601562 11.707031 C 17.125 11.316406 16.5625 11.121094 15.914062 11.121094 C 14.9375 11.121094 14.15625 11.550781 13.570312 12.410156 C 12.984375 13.261719 12.691406 14.398438 12.691406 15.820312 C 12.691406 17.226562 12.984375 18.355469 13.570312 19.207031 C 14.15625 20.050781 14.9375 20.472656 15.914062 20.472656 Z M 15.914062 19.054688 C 15.398438 19.054688 14.984375 18.765625 14.671875 18.1875 C 14.367188 17.609375 14.214844 16.820312 14.214844 15.820312 C 14.214844 14.796875 14.367188 13.996094 14.671875 13.417969 C 14.976562 12.832031 15.390625 12.539062 15.914062 12.539062 C 16.4375 12.539062 16.847656 12.828125 17.144531 13.40625 C 17.449219 13.984375 17.601562 14.789062 17.601562 15.820312 C 17.601562 16.820312 17.449219 17.609375 17.144531 18.1875 C 16.839844 18.765625 16.429688 19.054688 15.914062 19.054688 Z M 15.914062 19.054688 "/>
</g>
</svg>
