<svg xmlns="http://www.w3.org/2000/svg" width="24" height="24"><path style="stroke:none;fill-rule:nonzero;fill:#fff;fill-opacity:1" d="M.047 13.086c0 1.375.312 2.668.937 3.887.614 1.203 1.493 2.293 2.59 3.218a12.737 12.737 0 0 0 3.809 2.172c1.445.524 2.984.79 4.617.79s3.168-.266 4.605-.79a12.715 12.715 0 0 0 3.82-2.172c1.098-.925 1.977-2.015 2.59-3.218a8.38 8.38 0 0 0 .938-3.887c0-1.211-.246-2.363-.738-3.453a9.927 9.927 0 0 0-2.063-2.961 11.563 11.563 0 0 0-3.082-2.223 13.09 13.09 0 0 0-3.808-1.242V1.805c0-.356-.121-.575-.364-.66-.242-.086-.523-.032-.843.16L9.316 3.504c-.273.156-.41.34-.41.55 0 .212.137.4.41.563l3.727 2.211c.32.2.602.254.844.168.25-.09.375-.316.375-.672V4.926c1.11.21 2.129.566 3.058 1.062a9.583 9.583 0 0 1 2.438 1.836c1.43 1.489 2.203 3.348 2.191 5.262a7.137 7.137 0 0 1-.773 3.273c-1 2.016-2.903 3.621-5.297 4.465-1.203.434-2.496.649-3.879.649-1.336.007-2.66-.211-3.89-.649a10.336 10.336 0 0 1-3.176-1.789A8.63 8.63 0 0 1 2.8 16.363a7.228 7.228 0 0 1-.762-3.277c0-.934.172-1.824.516-2.664a7.99 7.99 0 0 1 1.441-2.32 9.279 9.279 0 0 1 2.168-1.797c.242-.153.395-.336.457-.551a.679.679 0 0 0-.117-.633.937.937 0 0 0-.645-.355 1.123 1.123 0 0 0-.808.18 11.179 11.179 0 0 0-2.637 2.19A9.633 9.633 0 0 0 .668 9.919a8.176 8.176 0 0 0-.621 3.168Zm9.527 4.137c.492 0 .739-.25.739-.743v-.82h.562c.203 0 .363-.047.48-.148a.505.505 0 0 0 .188-.414.489.489 0 0 0-.188-.403c-.117-.101-.277-.148-.48-.148h-.563v-4.195c0-.309-.113-.536-.34-.68-.218-.145-.495-.219-.831-.219-.313 0-.575.059-.786.168-.203.106-.394.29-.574.555-.21.297-.433.605-.668.937l-.691 1.004c-.45.656-.895 1.317-1.336 1.973-.094.148-.16.277-.2.398a1.27 1.27 0 0 0-.046.383c0 .238.082.43.246.574.172.145.41.215.715.215h3.07v.82c0 .493.234.743.703.743Zm-3.199-2.676v-.031c.406-.645.813-1.286 1.219-1.922.414-.645.824-1.29 1.23-1.938h.047v3.89Zm9.152 2.703c.97 0 1.746-.242 2.332-.719.594-.488.891-1.129.891-1.926 0-.722-.266-1.32-.797-1.785-.523-.468-1.203-.703-2.039-.703-.367 0-.73.074-1.09.219-.36.144-.613.344-.761.594h.058l.211-2.235h3.504c.172 0 .32-.05.445-.156a.502.502 0 0 0 .2-.414.466.466 0 0 0-.2-.395.683.683 0 0 0-.445-.16h-3.75c-.617 0-.95.274-.996.82l-.258 2.844c-.023.243.035.426.176.551.14.117.336.18.586.18.195 0 .351-.02.469-.059.152-.058.292-.133.421-.219.227-.171.438-.292.633-.367a1.72 1.72 0 0 1 .645-.117c.453 0 .82.133 1.101.395.282.257.422.597.422 1.027 0 .434-.164.793-.492 1.074-.32.285-.723.426-1.207.426-.344 0-.656-.074-.938-.227a1.795 1.795 0 0 1-.656-.62.93.93 0 0 0-.293-.286.654.654 0 0 0-.375-.113.736.736 0 0 0-.48.16.528.528 0 0 0-.176.414c0 .137.031.27.094.395.156.355.476.68.96.968.493.29 1.094.434 1.805.434Zm0 0"/></svg>