<?xml version="1.0" encoding="UTF-8"?>
<svg xmlns="http://www.w3.org/2000/svg" xmlns:xlink="http://www.w3.org/1999/xlink" width="24" height="28.5" viewBox="0 0 24 28.5" version="1.1">
<g id="surface1">
<path style=" stroke:none;fill-rule:nonzero;fill:rgb(100%,100%,100%);fill-opacity:1;" d="M 0.046875 15.539062 C 0.046875 17.171875 0.359375 18.710938 0.984375 20.15625 C 1.609375 21.601562 2.472656 22.875 3.574219 23.976562 C 4.675781 25.070312 5.945312 25.929688 7.382812 26.554688 C 8.828125 27.179688 10.367188 27.492188 12 27.492188 C 13.632812 27.492188 15.167969 27.179688 16.605469 26.554688 C 18.050781 25.929688 19.324219 25.070312 20.425781 23.976562 C 21.527344 22.875 22.390625 21.601562 23.015625 20.15625 C 23.640625 18.710938 23.953125 17.171875 23.953125 15.539062 C 23.953125 14.226562 23.746094 12.972656 23.332031 11.777344 C 22.917969 10.574219 22.335938 9.472656 21.585938 8.472656 C 20.835938 7.464844 19.957031 6.597656 18.949219 5.871094 C 18.691406 5.675781 18.421875 5.605469 18.140625 5.660156 C 17.859375 5.707031 17.644531 5.847656 17.496094 6.082031 C 17.347656 6.324219 17.304688 6.574219 17.367188 6.832031 C 17.4375 7.089844 17.59375 7.308594 17.835938 7.488281 C 18.664062 8.082031 19.386719 8.792969 20.003906 9.621094 C 20.621094 10.449219 21.101562 11.367188 21.445312 12.375 C 21.789062 13.375 21.960938 14.429688 21.960938 15.539062 C 21.960938 16.921875 21.703125 18.21875 21.1875 19.429688 C 20.679688 20.632812 19.96875 21.691406 19.054688 22.605469 C 18.148438 23.511719 17.089844 24.21875 15.878906 24.726562 C 14.675781 25.242188 13.382812 25.5 12 25.5 C 10.617188 25.5 9.324219 25.242188 8.121094 24.726562 C 6.917969 24.21875 5.859375 23.511719 4.945312 22.605469 C 4.039062 21.691406 3.328125 20.632812 2.8125 19.429688 C 2.304688 18.21875 2.050781 16.921875 2.050781 15.539062 C 2.050781 14.351562 2.242188 13.230469 2.625 12.175781 C 3.007812 11.113281 3.542969 10.152344 4.230469 9.292969 C 4.925781 8.433594 5.742188 7.707031 6.679688 7.113281 C 7.617188 6.519531 8.636719 6.097656 9.738281 5.847656 L 9.738281 7.523438 C 9.738281 7.9375 9.859375 8.199219 10.101562 8.308594 C 10.351562 8.410156 10.636719 8.347656 10.957031 8.121094 L 14.695312 5.496094 C 14.960938 5.316406 15.09375 5.101562 15.09375 4.851562 C 15.101562 4.59375 14.96875 4.371094 14.695312 4.183594 L 10.96875 1.558594 C 10.640625 1.324219 10.351562 1.261719 10.101562 1.371094 C 9.859375 1.472656 9.738281 1.734375 9.738281 2.15625 L 9.738281 3.808594 C 8.371094 4.082031 7.097656 4.574219 5.917969 5.285156 C 4.746094 5.988281 3.71875 6.867188 2.835938 7.921875 C 1.960938 8.96875 1.277344 10.140625 0.785156 11.4375 C 0.292969 12.734375 0.046875 14.101562 0.046875 15.539062 Z M 8.238281 20.472656 C 9.183594 20.472656 9.9375 20.183594 10.5 19.605469 C 11.0625 19.027344 11.34375 18.257812 11.34375 17.296875 C 11.34375 16.453125 11.082031 15.757812 10.558594 15.210938 C 10.042969 14.664062 9.386719 14.390625 8.589844 14.390625 C 8.042969 14.390625 7.570312 14.519531 7.171875 14.777344 C 6.78125 15.027344 6.507812 15.355469 6.351562 15.761719 L 6.410156 15.84375 C 6.402344 15.804688 6.398438 15.78125 6.398438 15.773438 C 6.398438 15.757812 6.398438 15.734375 6.398438 15.703125 C 6.398438 14.734375 6.578125 13.957031 6.9375 13.371094 C 7.304688 12.785156 7.792969 12.492188 8.402344 12.492188 C 8.707031 12.492188 8.957031 12.550781 9.152344 12.667969 C 9.355469 12.785156 9.523438 12.953125 9.65625 13.171875 C 9.84375 13.460938 10.09375 13.605469 10.40625 13.605469 C 10.578125 13.605469 10.71875 13.546875 10.828125 13.429688 C 10.9375 13.304688 10.992188 13.148438 10.992188 12.960938 C 10.992188 12.882812 10.984375 12.804688 10.96875 12.726562 C 10.953125 12.648438 10.933594 12.578125 10.910156 12.515625 C 10.753906 12.117188 10.460938 11.789062 10.03125 11.53125 C 9.601562 11.265625 9.078125 11.132812 8.460938 11.132812 C 7.335938 11.132812 6.472656 11.558594 5.871094 12.410156 C 5.269531 13.253906 4.96875 14.460938 4.96875 16.03125 C 4.96875 16.648438 5.015625 17.210938 5.109375 17.71875 C 5.210938 18.21875 5.363281 18.648438 5.566406 19.007812 C 5.832031 19.492188 6.195312 19.859375 6.65625 20.109375 C 7.117188 20.351562 7.644531 20.472656 8.238281 20.472656 Z M 8.167969 19.171875 C 7.691406 19.171875 7.296875 19.003906 6.984375 18.667969 C 6.671875 18.324219 6.515625 17.890625 6.515625 17.367188 C 6.515625 16.851562 6.667969 16.433594 6.972656 16.113281 C 7.285156 15.785156 7.683594 15.621094 8.167969 15.621094 C 8.660156 15.621094 9.058594 15.78125 9.363281 16.101562 C 9.675781 16.421875 9.832031 16.84375 9.832031 17.367188 C 9.832031 17.921875 9.679688 18.363281 9.375 18.691406 C 9.078125 19.011719 8.675781 19.171875 8.167969 19.171875 Z M 15.949219 20.472656 C 16.597656 20.472656 17.164062 20.28125 17.648438 19.898438 C 18.132812 19.507812 18.507812 18.964844 18.773438 18.269531 C 19.039062 17.574219 19.171875 16.757812 19.171875 15.820312 C 19.171875 14.875 19.039062 14.050781 18.773438 13.347656 C 18.507812 12.644531 18.132812 12.097656 17.648438 11.707031 C 17.164062 11.316406 16.597656 11.121094 15.949219 11.121094 C 14.972656 11.121094 14.191406 11.550781 13.605469 12.410156 C 13.027344 13.269531 12.738281 14.410156 12.738281 15.832031 C 12.738281 17.238281 13.03125 18.363281 13.617188 19.207031 C 14.203125 20.050781 14.980469 20.472656 15.949219 20.472656 Z M 15.949219 19.054688 C 15.433594 19.054688 15.023438 18.765625 14.71875 18.1875 C 14.414062 17.609375 14.261719 16.820312 14.261719 15.820312 C 14.261719 14.796875 14.410156 13.996094 14.707031 13.417969 C 15.011719 12.832031 15.425781 12.539062 15.949219 12.539062 C 16.472656 12.539062 16.882812 12.828125 17.179688 13.40625 C 17.484375 13.984375 17.636719 14.789062 17.636719 15.820312 C 17.636719 16.820312 17.484375 17.609375 17.179688 18.1875 C 16.882812 18.765625 16.472656 19.054688 15.949219 19.054688 Z M 15.949219 19.054688 "/>
</g>
</svg>
