<svg width="128" height="141" viewBox="0 0 128 141" fill="none" xmlns="http://www.w3.org/2000/svg">
<path d="M0.1875 76.875C0.1875 85.5833 1.85417 93.7917 5.1875 101.5C8.52083 109.208 13.125 116 19 121.875C24.875 127.708 31.6458 132.292 39.3125 135.625C47.0208 138.958 55.2292 140.625 63.9375 140.625C72.6458 140.625 80.8333 138.958 88.5 135.625C96.2083 132.292 103 127.708 108.875 121.875C114.75 116 119.354 109.208 122.688 101.5C126.021 93.7917 127.688 85.5833 127.688 76.875C127.688 69.875 126.583 63.1875 124.375 56.8125C122.167 50.3958 119.062 44.5208 115.062 39.1875C111.062 33.8125 106.375 29.1875 101 25.3125C99.625 24.2708 98.1875 23.8958 96.6875 24.1875C95.1875 24.4375 94.0417 25.1875 93.25 26.4375C92.4583 27.7292 92.2292 29.0625 92.5625 30.4375C92.9375 31.8125 93.7708 32.9792 95.0625 33.9375C99.4792 37.1042 103.333 40.8958 106.625 45.3125C109.917 49.7292 112.479 54.625 114.312 60C116.146 65.3333 117.062 70.9583 117.062 76.875C117.062 84.25 115.688 91.1667 112.938 97.625C110.229 104.042 106.438 109.688 101.562 114.562C96.7292 119.396 91.0833 123.167 84.625 125.875C78.2083 128.625 71.3125 130 63.9375 130C56.5625 130 49.6667 128.625 43.25 125.875C36.8333 123.167 31.1875 119.396 26.3125 114.562C21.4792 109.688 17.6875 104.042 14.9375 97.625C12.2292 91.1667 10.875 84.25 10.875 76.875C10.875 70.5417 11.8958 64.5625 13.9375 58.9375C15.9792 53.2708 18.8333 48.1458 22.5 43.5625C26.2083 38.9792 30.5625 35.1042 35.5625 31.9375C40.5625 28.7708 46 26.5208 51.875 25.1875V34.125C51.875 36.3333 52.5208 37.7292 53.8125 38.3125C55.1458 38.8542 56.6667 38.5208 58.375 37.3125L78.3125 23.3125C79.7292 22.3542 80.4375 21.2083 80.4375 19.875C80.4792 18.5 79.7708 17.3125 78.3125 16.3125L58.4375 2.3125C56.6875 1.0625 55.1458 0.729167 53.8125 1.3125C52.5208 1.85417 51.875 3.25 51.875 5.5V14.3125C44.5833 15.7708 37.7917 18.3958 31.5 22.1875C25.25 25.9375 19.7708 30.625 15.0625 36.25C10.3958 41.8333 6.75 48.0833 4.125 55C1.5 61.9167 0.1875 69.2083 0.1875 76.875ZM45.375 102.5C46.5833 102.5 47.5417 102.125 48.25 101.375C48.9583 100.583 49.3125 99.5208 49.3125 98.1875V58.75C49.3125 57.125 48.9375 55.9167 48.1875 55.125C47.4375 54.2917 46.3542 53.875 44.9375 53.875C44.0625 53.875 43.25 54.0417 42.5 54.375C41.75 54.6667 40.8125 55.1875 39.6875 55.9375L31.125 61.75C30.4167 62.25 29.875 62.8125 29.5 63.4375C29.1667 64.0208 29 64.6667 29 65.375C29 66.4167 29.3542 67.3125 30.0625 68.0625C30.7708 68.8125 31.625 69.1875 32.625 69.1875C33.25 69.1875 33.7708 69.1042 34.1875 68.9375C34.6042 68.7708 35.0833 68.4583 35.625 68L41.625 63.625H41.5V98.1875C41.5 99.4792 41.8542 100.521 42.5625 101.312C43.2708 102.104 44.2083 102.5 45.375 102.5ZM77.125 103.25C82.2917 103.25 86.4375 101.729 89.5625 98.6875C92.7292 95.6042 94.3125 91.5417 94.3125 86.5C94.3125 81.9167 92.9167 78.1458 90.125 75.1875C87.3333 72.2292 83.7083 70.75 79.25 70.75C77.25 70.75 75.2917 71.2083 73.375 72.125C71.5 73.0417 70.1458 74.2917 69.3125 75.875H69.625L70.75 61.75H89.4375C90.3542 61.75 91.1458 61.4167 91.8125 60.75C92.5208 60.0833 92.875 59.2083 92.875 58.125C92.875 57.0833 92.5208 56.25 91.8125 55.625C91.1458 54.9583 90.3542 54.625 89.4375 54.625H69.5C66.2083 54.625 64.4167 56.3542 64.125 59.8125L62.75 77.8125C62.625 79.3542 62.9375 80.5208 63.6875 81.3125C64.4375 82.0625 65.5 82.4375 66.875 82.4375C67.875 82.4375 68.6875 82.3125 69.3125 82.0625C69.9375 81.8125 70.6875 81.3542 71.5625 80.6875C72.7708 79.6042 73.8958 78.8333 74.9375 78.375C75.9792 77.875 77.125 77.625 78.375 77.625C80.7917 77.625 82.75 78.4583 84.25 80.125C85.75 81.75 86.5 83.9167 86.5 86.625C86.5 89.375 85.6458 91.6458 83.9375 93.4375C82.2292 95.2292 80.0833 96.125 77.5 96.125C75.625 96.125 73.9375 95.6458 72.4375 94.6875C70.9375 93.6875 69.7917 92.375 69 90.75C68.5417 89.9583 68.0208 89.3542 67.4375 88.9375C66.8542 88.4792 66.1667 88.25 65.375 88.25C64.3333 88.25 63.4792 88.5833 62.8125 89.25C62.1875 89.9167 61.875 90.7917 61.875 91.875C61.875 92.2917 61.9167 92.7083 62 93.125C62.0833 93.5417 62.2083 93.9583 62.375 94.375C63.2083 96.625 64.9167 98.6667 67.5 100.5C70.125 102.333 73.3333 103.25 77.125 103.25Z" fill="white"/>
</svg>
