<?xml version="1.0" encoding="UTF-8"?>
<svg xmlns="http://www.w3.org/2000/svg" xmlns:xlink="http://www.w3.org/1999/xlink" width="24" height="28.5" viewBox="0 0 24 28.5" version="1.1">
<g id="surface1">
<path style=" stroke:none;fill-rule:nonzero;fill:rgb(100%,100%,100%);fill-opacity:1;" d="M 0.046875 15.539062 C 0.046875 17.171875 0.359375 18.710938 0.984375 20.15625 C 1.609375 21.601562 2.472656 22.875 3.574219 23.976562 C 4.675781 25.070312 5.945312 25.929688 7.382812 26.554688 C 8.828125 27.179688 10.367188 27.492188 12 27.492188 C 13.632812 27.492188 15.167969 27.179688 16.605469 26.554688 C 18.050781 25.929688 19.324219 25.070312 20.425781 23.976562 C 21.527344 22.875 22.390625 21.601562 23.015625 20.15625 C 23.640625 18.710938 23.953125 17.171875 23.953125 15.539062 C 23.953125 14.226562 23.746094 12.972656 23.332031 11.777344 C 22.917969 10.574219 22.335938 9.472656 21.585938 8.472656 C 20.835938 7.464844 19.957031 6.597656 18.949219 5.871094 C 18.691406 5.675781 18.421875 5.605469 18.140625 5.660156 C 17.859375 5.707031 17.644531 5.847656 17.496094 6.082031 C 17.347656 6.324219 17.304688 6.574219 17.367188 6.832031 C 17.4375 7.089844 17.59375 7.308594 17.835938 7.488281 C 18.664062 8.082031 19.386719 8.792969 20.003906 9.621094 C 20.621094 10.449219 21.101562 11.367188 21.445312 12.375 C 21.789062 13.375 21.960938 14.429688 21.960938 15.539062 C 21.960938 16.921875 21.703125 18.21875 21.1875 19.429688 C 20.679688 20.632812 19.96875 21.691406 19.054688 22.605469 C 18.148438 23.511719 17.089844 24.21875 15.878906 24.726562 C 14.675781 25.242188 13.382812 25.5 12 25.5 C 10.617188 25.5 9.324219 25.242188 8.121094 24.726562 C 6.917969 24.21875 5.859375 23.511719 4.945312 22.605469 C 4.039062 21.691406 3.328125 20.632812 2.8125 19.429688 C 2.304688 18.21875 2.050781 16.921875 2.050781 15.539062 C 2.050781 14.351562 2.242188 13.230469 2.625 12.175781 C 3.007812 11.113281 3.542969 10.152344 4.230469 9.292969 C 4.925781 8.433594 5.742188 7.707031 6.679688 7.113281 C 7.617188 6.519531 8.636719 6.097656 9.738281 5.847656 L 9.738281 7.523438 C 9.738281 7.9375 9.859375 8.199219 10.101562 8.308594 C 10.351562 8.410156 10.636719 8.347656 10.957031 8.121094 L 14.695312 5.496094 C 14.960938 5.316406 15.09375 5.101562 15.09375 4.851562 C 15.101562 4.59375 14.96875 4.371094 14.695312 4.183594 L 10.96875 1.558594 C 10.640625 1.324219 10.351562 1.261719 10.101562 1.371094 C 9.859375 1.472656 9.738281 1.734375 9.738281 2.15625 L 9.738281 3.808594 C 8.371094 4.082031 7.097656 4.574219 5.917969 5.285156 C 4.746094 5.988281 3.71875 6.867188 2.835938 7.921875 C 1.960938 8.96875 1.277344 10.140625 0.785156 11.4375 C 0.292969 12.734375 0.046875 14.101562 0.046875 15.539062 Z M 0.046875 15.539062 "/>
</g>
</svg>
