<?xml version="1.0" encoding="UTF-8"?>
<svg xmlns="http://www.w3.org/2000/svg" xmlns:xlink="http://www.w3.org/1999/xlink" width="24" height="28.5" viewBox="0 0 24 28.5" version="1.1">
<g id="surface1">
<path style=" stroke:none;fill-rule:nonzero;fill:rgb(100%,100%,100%);fill-opacity:1;" d="M 0.046875 15.539062 C 0.046875 17.171875 0.359375 18.710938 0.984375 20.15625 C 1.609375 21.601562 2.472656 22.875 3.574219 23.976562 C 4.675781 25.070312 5.945312 25.929688 7.382812 26.554688 C 8.828125 27.179688 10.367188 27.492188 12 27.492188 C 13.632812 27.492188 15.167969 27.179688 16.605469 26.554688 C 18.050781 25.929688 19.324219 25.070312 20.425781 23.976562 C 21.527344 22.875 22.390625 21.601562 23.015625 20.15625 C 23.640625 18.710938 23.953125 17.171875 23.953125 15.539062 C 23.953125 14.226562 23.746094 12.972656 23.332031 11.777344 C 22.917969 10.574219 22.335938 9.472656 21.585938 8.472656 C 20.835938 7.464844 19.957031 6.597656 18.949219 5.871094 C 18.691406 5.675781 18.421875 5.605469 18.140625 5.660156 C 17.859375 5.707031 17.644531 5.847656 17.496094 6.082031 C 17.347656 6.324219 17.304688 6.574219 17.367188 6.832031 C 17.4375 7.089844 17.59375 7.308594 17.835938 7.488281 C 18.664062 8.082031 19.386719 8.792969 20.003906 9.621094 C 20.621094 10.449219 21.101562 11.367188 21.445312 12.375 C 21.789062 13.375 21.960938 14.429688 21.960938 15.539062 C 21.960938 16.921875 21.703125 18.21875 21.1875 19.429688 C 20.679688 20.632812 19.96875 21.691406 19.054688 22.605469 C 18.148438 23.511719 17.089844 24.21875 15.878906 24.726562 C 14.675781 25.242188 13.382812 25.5 12 25.5 C 10.617188 25.5 9.324219 25.242188 8.121094 24.726562 C 6.917969 24.21875 5.859375 23.511719 4.945312 22.605469 C 4.039062 21.691406 3.328125 20.632812 2.8125 19.429688 C 2.304688 18.21875 2.050781 16.921875 2.050781 15.539062 C 2.050781 14.351562 2.242188 13.230469 2.625 12.175781 C 3.007812 11.113281 3.542969 10.152344 4.230469 9.292969 C 4.925781 8.433594 5.742188 7.707031 6.679688 7.113281 C 7.617188 6.519531 8.636719 6.097656 9.738281 5.847656 L 9.738281 7.523438 C 9.738281 7.9375 9.859375 8.199219 10.101562 8.308594 C 10.351562 8.410156 10.636719 8.347656 10.957031 8.121094 L 14.695312 5.496094 C 14.960938 5.316406 15.09375 5.101562 15.09375 4.851562 C 15.101562 4.59375 14.96875 4.371094 14.695312 4.183594 L 10.96875 1.558594 C 10.640625 1.324219 10.351562 1.261719 10.101562 1.371094 C 9.859375 1.472656 9.738281 1.734375 9.738281 2.15625 L 9.738281 3.808594 C 8.371094 4.082031 7.097656 4.574219 5.917969 5.285156 C 4.746094 5.988281 3.71875 6.867188 2.835938 7.921875 C 1.960938 8.96875 1.277344 10.140625 0.785156 11.4375 C 0.292969 12.734375 0.046875 14.101562 0.046875 15.539062 Z M 8.296875 20.472656 C 9.21875 20.472656 9.972656 20.222656 10.558594 19.722656 C 11.152344 19.214844 11.449219 18.566406 11.449219 17.777344 C 11.449219 17.207031 11.269531 16.714844 10.910156 16.300781 C 10.550781 15.878906 10.09375 15.636719 9.539062 15.574219 L 9.539062 15.632812 C 9.984375 15.554688 10.363281 15.3125 10.675781 14.90625 C 10.996094 14.5 11.15625 14.035156 11.15625 13.511719 C 11.15625 12.808594 10.894531 12.234375 10.371094 11.789062 C 9.855469 11.34375 9.1875 11.121094 8.367188 11.121094 C 7.65625 11.121094 7.03125 11.304688 6.492188 11.671875 C 5.960938 12.03125 5.632812 12.492188 5.507812 13.054688 C 5.5 13.125 5.492188 13.191406 5.484375 13.253906 C 5.476562 13.316406 5.472656 13.378906 5.472656 13.441406 C 5.472656 13.652344 5.53125 13.824219 5.648438 13.957031 C 5.773438 14.089844 5.9375 14.15625 6.140625 14.15625 C 6.46875 14.15625 6.695312 13.972656 6.820312 13.605469 C 6.9375 13.238281 7.121094 12.960938 7.371094 12.773438 C 7.621094 12.578125 7.941406 12.480469 8.332031 12.480469 C 8.746094 12.480469 9.078125 12.59375 9.328125 12.820312 C 9.585938 13.039062 9.714844 13.328125 9.714844 13.6875 C 9.714844 14.0625 9.585938 14.375 9.328125 14.625 C 9.070312 14.867188 8.734375 14.988281 8.320312 14.988281 L 7.816406 14.988281 C 7.621094 14.988281 7.460938 15.050781 7.335938 15.175781 C 7.21875 15.292969 7.160156 15.457031 7.160156 15.667969 C 7.160156 15.863281 7.222656 16.027344 7.347656 16.160156 C 7.472656 16.285156 7.628906 16.347656 7.816406 16.347656 L 8.367188 16.347656 C 8.867188 16.347656 9.261719 16.472656 9.550781 16.722656 C 9.839844 16.972656 9.984375 17.304688 9.984375 17.71875 C 9.984375 18.117188 9.824219 18.453125 9.503906 18.726562 C 9.191406 18.992188 8.792969 19.125 8.308594 19.125 C 7.894531 19.125 7.546875 19.027344 7.265625 18.832031 C 6.984375 18.636719 6.777344 18.355469 6.644531 17.988281 C 6.574219 17.792969 6.484375 17.652344 6.375 17.566406 C 6.265625 17.480469 6.132812 17.4375 5.976562 17.4375 C 5.78125 17.4375 5.617188 17.503906 5.484375 17.636719 C 5.359375 17.769531 5.296875 17.941406 5.296875 18.152344 C 5.296875 18.214844 5.300781 18.28125 5.308594 18.351562 C 5.316406 18.414062 5.328125 18.476562 5.34375 18.539062 C 5.46875 19.085938 5.8125 19.546875 6.375 19.921875 C 6.9375 20.289062 7.578125 20.472656 8.296875 20.472656 Z M 15.855469 20.472656 C 16.503906 20.472656 17.066406 20.28125 17.542969 19.898438 C 18.027344 19.507812 18.402344 18.964844 18.667969 18.269531 C 18.941406 17.574219 19.078125 16.757812 19.078125 15.820312 C 19.078125 14.875 18.941406 14.050781 18.667969 13.347656 C 18.402344 12.644531 18.027344 12.097656 17.542969 11.707031 C 17.066406 11.316406 16.503906 11.121094 15.855469 11.121094 C 14.878906 11.121094 14.097656 11.550781 13.511719 12.410156 C 12.925781 13.261719 12.632812 14.398438 12.632812 15.820312 C 12.632812 17.226562 12.925781 18.355469 13.511719 19.207031 C 14.097656 20.050781 14.878906 20.472656 15.855469 20.472656 Z M 15.855469 19.054688 C 15.339844 19.054688 14.925781 18.765625 14.613281 18.1875 C 14.308594 17.609375 14.15625 16.820312 14.15625 15.820312 C 14.15625 14.796875 14.308594 13.996094 14.613281 13.417969 C 14.917969 12.832031 15.332031 12.539062 15.855469 12.539062 C 16.378906 12.539062 16.789062 12.828125 17.085938 13.40625 C 17.390625 13.984375 17.542969 14.789062 17.542969 15.820312 C 17.542969 16.820312 17.390625 17.609375 17.085938 18.1875 C 16.78125 18.765625 16.371094 19.054688 15.855469 19.054688 Z M 15.855469 19.054688 "/>
</g>
</svg>
