<?xml version="1.0" encoding="UTF-8"?>
<svg xmlns="http://www.w3.org/2000/svg" xmlns:xlink="http://www.w3.org/1999/xlink" width="24" height="25.5" viewBox="0 0 24 25.5" version="1.1">
<g id="surface1">
<path style=" stroke:none;fill-rule:nonzero;fill:rgb(100%,100%,100%);fill-opacity:1;" d="M 12 24.503906 C 13.632812 24.503906 15.167969 24.191406 16.605469 23.566406 C 18.050781 22.941406 19.324219 22.078125 20.425781 20.976562 C 21.527344 19.875 22.390625 18.605469 23.015625 17.167969 C 23.640625 15.722656 23.953125 14.183594 23.953125 12.550781 C 23.953125 10.917969 23.640625 9.382812 23.015625 7.945312 C 22.390625 6.5 21.527344 5.226562 20.425781 4.125 C 19.324219 3.023438 18.050781 2.160156 16.605469 1.535156 C 15.160156 0.910156 13.621094 0.597656 11.988281 0.597656 C 10.355469 0.597656 8.816406 0.910156 7.371094 1.535156 C 5.933594 2.160156 4.664062 3.023438 3.5625 4.125 C 2.46875 5.226562 1.609375 6.5 0.984375 7.945312 C 0.359375 9.382812 0.046875 10.917969 0.046875 12.550781 C 0.046875 14.183594 0.359375 15.722656 0.984375 17.167969 C 1.609375 18.605469 2.472656 19.875 3.574219 20.976562 C 4.675781 22.078125 5.945312 22.941406 7.382812 23.566406 C 8.828125 24.191406 10.367188 24.503906 12 24.503906 Z M 4.394531 10.464844 C 4.394531 10.332031 4.4375 10.195312 4.523438 10.054688 C 4.609375 9.914062 4.742188 9.800781 4.921875 9.714844 L 10.476562 7.195312 C 11.0625 6.929688 11.566406 6.804688 11.988281 6.820312 C 12.410156 6.804688 12.914062 6.929688 13.5 7.195312 L 19.042969 9.714844 C 19.230469 9.800781 19.367188 9.914062 19.453125 10.054688 C 19.539062 10.195312 19.582031 10.332031 19.582031 10.464844 C 19.582031 10.792969 19.402344 11.039062 19.042969 11.203125 L 13.5 13.746094 C 13.210938 13.878906 12.945312 13.976562 12.703125 14.039062 C 12.460938 14.101562 12.222656 14.128906 11.988281 14.121094 C 11.753906 14.128906 11.515625 14.101562 11.273438 14.039062 C 11.03125 13.976562 10.765625 13.878906 10.476562 13.746094 L 8.097656 12.65625 L 11.472656 11.074219 C 11.621094 11.121094 11.800781 11.144531 12.011719 11.144531 C 12.324219 11.144531 12.605469 11.082031 12.855469 10.957031 C 13.113281 10.832031 13.242188 10.667969 13.242188 10.464844 C 13.242188 10.269531 13.113281 10.113281 12.855469 9.996094 C 12.597656 9.878906 12.316406 9.820312 12.011719 9.820312 C 11.707031 9.820312 11.421875 9.878906 11.15625 9.996094 C 10.898438 10.113281 10.769531 10.269531 10.769531 10.464844 C 10.769531 10.519531 10.777344 10.566406 10.792969 10.605469 L 7.230469 12.257812 L 4.921875 11.203125 C 4.570312 11.039062 4.394531 10.792969 4.394531 10.464844 Z M 6.503906 14.71875 L 6.503906 12.808594 L 7.265625 13.148438 L 7.265625 16.300781 C 6.757812 15.777344 6.503906 15.25 6.503906 14.71875 Z M 6.867188 19.230469 L 6.867188 18.011719 C 6.867188 17.675781 7 17.449219 7.265625 17.332031 L 7.265625 16.300781 C 7.507812 16.550781 7.773438 16.757812 8.0625 16.921875 L 8.0625 17.34375 C 8.328125 17.46875 8.460938 17.691406 8.460938 18.011719 L 8.460938 19.230469 C 8.460938 19.449219 8.394531 19.625 8.261719 19.757812 C 8.128906 19.890625 7.953125 19.957031 7.734375 19.957031 L 7.59375 19.957031 C 7.367188 19.957031 7.1875 19.890625 7.054688 19.757812 C 6.929688 19.625 6.867188 19.449219 6.867188 19.230469 Z M 8.0625 16.921875 L 8.0625 13.523438 L 10.148438 14.484375 C 10.476562 14.632812 10.792969 14.746094 11.097656 14.824219 C 11.410156 14.894531 11.707031 14.925781 11.988281 14.917969 C 12.269531 14.925781 12.5625 14.894531 12.867188 14.824219 C 13.171875 14.746094 13.492188 14.632812 13.828125 14.484375 L 17.460938 12.808594 L 17.460938 14.71875 C 17.460938 15.28125 17.234375 15.800781 16.78125 16.277344 C 16.335938 16.746094 15.703125 17.125 14.882812 17.414062 C 14.070312 17.695312 13.105469 17.835938 11.988281 17.835938 C 11.175781 17.835938 10.4375 17.757812 9.773438 17.601562 C 9.109375 17.4375 8.539062 17.210938 8.0625 16.921875 Z M 8.0625 16.921875 "/>
</g>
</svg>
