<svg width="116" height="116" viewBox="0 0 116 116" fill="none" xmlns="http://www.w3.org/2000/svg">
<path d="M20.5625 115.5H96.375C102.917 115.5 107.812 113.875 111.062 110.625C114.354 107.417 116 102.583 116 96.125V19.8125C116 13.3542 114.354 8.52083 111.062 5.3125C107.812 2.0625 102.917 0.4375 96.375 0.4375H20.5625C14.0208 0.4375 9.10417 2.0625 5.8125 5.3125C2.5625 8.52083 0.9375 13.3542 0.9375 19.8125V96.125C0.9375 102.583 2.5625 107.417 5.8125 110.625C9.10417 113.875 14.0208 115.5 20.5625 115.5ZM41.8125 84.3125C40.2708 84.3125 38.9792 83.8125 37.9375 82.8125C36.9375 81.8125 36.4375 80.5833 36.4375 79.125C36.4375 77.875 36.7292 76.8542 37.3125 76.0625C37.8958 75.2708 38.875 74.5625 40.25 73.9375L72.875 57.875V57.5L40.25 41.0625C38.9167 40.4375 37.9375 39.7083 37.3125 38.875C36.7292 38.0417 36.4375 37.0208 36.4375 35.8125C36.4375 34.3958 36.9375 33.1875 37.9375 32.1875C38.9375 31.1875 40.1875 30.6875 41.6875 30.6875C42.3958 30.6875 42.9792 30.7708 43.4375 30.9375C43.9375 31.0625 44.4375 31.25 44.9375 31.5L83.375 52.1875C85.9167 53.6042 87.1875 55.5 87.1875 57.875C87.1875 59.2083 86.875 60.3333 86.25 61.25C85.6667 62.125 84.7083 62.8958 83.375 63.5625L44.9375 83.5625C43.9375 84.0625 42.8958 84.3125 41.8125 84.3125Z" fill="white"/>
</svg>
