<svg width="128" height="128" viewBox="0 0 128 128" fill="none" xmlns="http://www.w3.org/2000/svg">
<path d="M63.9375 127.625C72.6458 127.625 80.8333 125.958 88.5 122.625C96.2083 119.292 103 114.688 108.875 108.812C114.75 102.938 119.354 96.1667 122.688 88.5C126.021 80.7917 127.688 72.5833 127.688 63.875C127.688 55.1667 126.021 46.9792 122.688 39.3125C119.354 31.6042 114.75 24.8125 108.875 18.9375C103 13.0625 96.2083 8.45833 88.5 5.125C80.7917 1.79167 72.5833 0.125 63.875 0.125C55.1667 0.125 46.9583 1.79167 39.25 5.125C31.5833 8.45833 24.8125 13.0625 18.9375 18.9375C13.1042 24.8125 8.52083 31.6042 5.1875 39.3125C1.85417 46.9792 0.1875 55.1667 0.1875 63.875C0.1875 72.5833 1.85417 80.7917 5.1875 88.5C8.52083 96.1667 13.125 102.938 19 108.812C24.875 114.688 31.6458 119.292 39.3125 122.625C47.0208 125.958 55.2292 127.625 63.9375 127.625ZM63.9375 117C56.5625 117 49.6667 115.625 43.25 112.875C36.8333 110.125 31.1875 106.333 26.3125 101.5C21.4792 96.625 17.6875 90.9792 14.9375 84.5625C12.2292 78.1458 10.875 71.25 10.875 63.875C10.875 56.5 12.2292 49.6042 14.9375 43.1875C17.6875 36.7708 21.4792 31.125 26.3125 26.25C31.1458 21.375 36.7708 17.5833 43.1875 14.875C49.6042 12.125 56.5 10.75 63.875 10.75C71.25 10.75 78.1458 12.125 84.5625 14.875C91.0208 17.5833 96.6667 21.375 101.5 26.25C106.375 31.125 110.188 36.7708 112.938 43.1875C115.688 49.6042 117.062 56.5 117.062 63.875C117.062 71.25 115.688 78.1458 112.938 84.5625C110.229 90.9792 106.438 96.625 101.562 101.5C96.6875 106.333 91.0417 110.125 84.625 112.875C78.2083 115.625 71.3125 117 63.9375 117ZM47.6875 89.4375C48.8125 89.4375 49.8125 89.2083 50.6875 88.75L87.9375 69.375C89.2708 68.7083 90.2083 67.9583 90.75 67.125C91.3333 66.25 91.625 65.1667 91.625 63.875C91.625 61.5417 90.3958 59.7083 87.9375 58.375L50.6875 38.3125C49.7708 37.8125 48.7292 37.5625 47.5625 37.5625C46.1042 37.5625 44.8958 38.0417 43.9375 39C42.9792 39.9583 42.5 41.125 42.5 42.5C42.5 43.6667 42.7917 44.6458 43.375 45.4375C43.9583 46.2292 44.8958 46.9375 46.1875 47.5625L77.8125 63.5V63.875L46.1875 79.4375C44.8542 80.0625 43.8958 80.7708 43.3125 81.5625C42.7708 82.3125 42.5 83.2708 42.5 84.4375C42.5 85.8542 43 87.0417 44 88C45 88.9583 46.2292 89.4375 47.6875 89.4375Z" fill="white"/>
</svg>
