<svg xmlns="http://www.w3.org/2000/svg" width="24" height="24"><path style="stroke:none;fill-rule:nonzero;fill:#fff;fill-opacity:1" d="M12 23.05c1.633 0 3.168-.292 4.605-.882a12.22 12.22 0 0 0 3.82-2.438 11.467 11.467 0 0 0 2.59-3.582c.626-1.363.938-2.808.938-4.347a10.2 10.2 0 0 0-.937-4.332 11.53 11.53 0 0 0-2.59-3.598 12.361 12.361 0 0 0-3.82-2.437A12.166 12.166 0 0 0 11.987.55c-1.633 0-3.172.293-4.617.883A12.307 12.307 0 0 0 3.562 3.87 11.523 11.523 0 0 0 .985 7.465 10.2 10.2 0 0 0 .047 11.8c0 1.539.312 2.984.937 4.347a11.467 11.467 0 0 0 2.59 3.582 12.236 12.236 0 0 0 3.809 2.438c1.445.59 2.984.883 4.617.883ZM8.871 16.47c-.289 0-.531-.09-.726-.266a.858.858 0 0 1-.282-.652c0-.219.055-.399.164-.54.11-.14.293-.265.551-.374l6.117-2.836v-.067L8.578 8.836c-.25-.11-.433-.238-.55-.387a.874.874 0 0 1-.165-.543c0-.246.094-.46.282-.636a.988.988 0 0 1 .703-.266c.132 0 .242.016.328.043.094.023.187.055.281.101l7.207 3.649c.477.25.715.586.715 1.004 0 .234-.059.433-.176.597-.11.153-.289.29-.539.407l-7.207 3.53a1.395 1.395 0 0 1-.586.134Zm0 0"/></svg>