<svg width="101" height="142" viewBox="0 0 101 142" fill="none" xmlns="http://www.w3.org/2000/svg">
<path d="M12.75 128L81.125 140.062C85.2083 140.771 88.7083 140.521 91.625 139.312C94.5833 138.104 96.8542 136.021 98.4375 133.062C100.021 130.146 100.812 126.458 100.812 122V46.5625C100.812 40.4375 99.25 36.0417 96.125 33.375C93.0417 30.6667 88.4583 28.7708 82.375 27.6875L16 16C12.9583 15.4583 10.3125 15.625 8.0625 16.5C5.8125 17.3333 4.0625 18.7708 2.8125 20.8125C1.5625 22.8542 0.9375 25.3542 0.9375 28.3125V114.375C0.9375 118.208 1.91667 121.25 3.875 123.5C5.875 125.792 8.83333 127.292 12.75 128ZM17.0625 53.25V40.0625C17.0625 37.7708 17.7292 36.125 19.0625 35.125C20.4375 34.125 22.3125 33.8333 24.6875 34.25L38.125 36.625C39.2917 36.8333 40.1042 37.3958 40.5625 38.3125C41.0625 39.2292 41.2083 40.2083 41 41.25C40.8333 42.2917 40.3542 43.1667 39.5625 43.875C38.8125 44.5417 37.7708 44.7708 36.4375 44.5625L28.1875 43.0625C26.2292 42.7708 25.25 43.4792 25.25 45.1875V53.5625C25.25 54.8125 24.8333 55.75 24 56.375C23.2083 56.9583 22.2708 57.25 21.1875 57.25C20.1042 57.2083 19.1458 56.8542 18.3125 56.1875C17.4792 55.5208 17.0625 54.5417 17.0625 53.25ZM76 63.4375V55.5C76 54.5417 75.75 53.6042 75.25 52.6875C74.75 51.7292 73.5833 51.0833 71.75 50.75L66.5625 49.8125C65.1458 49.5625 64.1458 48.9792 63.5625 48.0625C63.0208 47.1458 62.8333 46.1667 63 45.125C63.1667 44.0417 63.6667 43.1667 64.5 42.5C65.375 41.8333 66.5208 41.625 67.9375 41.875L74.4375 43C77.8958 43.625 80.375 44.7292 81.875 46.3125C83.4167 47.8542 84.1875 50.0833 84.1875 53V63.4375C84.1875 64.8542 83.7708 65.9167 82.9375 66.625C82.1042 67.2917 81.1458 67.6042 80.0625 67.5625C78.9792 67.5208 78.0208 67.1458 77.1875 66.4375C76.3958 65.7292 76 64.7292 76 63.4375ZM25.25 93.0625V101C25.25 101.917 25.5 102.854 26 103.812C26.5 104.771 27.6667 105.417 29.5 105.75L34.6875 106.688C36.1042 106.896 37.1042 107.479 37.6875 108.438C38.2708 109.354 38.4583 110.333 38.25 111.375C38.0833 112.417 37.5625 113.292 36.6875 114C35.8542 114.667 34.7292 114.875 33.3125 114.625L26.8125 113.5C23.3542 112.875 20.8542 111.792 19.3125 110.25C17.8125 108.667 17.0625 106.417 17.0625 103.5V93.0625C17.0625 91.6458 17.4792 90.6042 18.3125 89.9375C19.1458 89.2292 20.1042 88.8958 21.1875 88.9375C22.2708 88.9792 23.2083 89.3542 24 90.0625C24.8333 90.7708 25.25 91.7708 25.25 93.0625ZM84.1875 103.25V116.438C84.1875 118.729 83.5 120.375 82.125 121.375C80.7917 122.375 78.9375 122.667 76.5625 122.25L63.1875 119.875C61.9792 119.667 61.125 119.104 60.625 118.188C60.1667 117.271 60.0208 116.292 60.1875 115.25C60.3958 114.208 60.875 113.354 61.625 112.688C62.4167 111.979 63.4792 111.729 64.8125 111.938L73.0625 113.438C75.0208 113.729 76 113.021 76 111.312V102.938C76 101.688 76.3958 100.771 77.1875 100.188C78.0208 99.5625 78.9792 99.2708 80.0625 99.3125C81.1458 99.3125 82.1042 99.6458 82.9375 100.312C83.7708 100.938 84.1875 101.917 84.1875 103.25ZM29.8125 9.8125L83.875 19.3125C89.125 20.2708 93.5833 21.7292 97.25 23.6875V18.875C97.25 12.2917 95.1667 7.52083 91 4.5625C86.8333 1.60417 81.0417 0.770833 73.625 2.0625L29.8125 9.8125Z" fill="white"/>
</svg>
