<svg xmlns="http://www.w3.org/2000/svg" width="24" height="24"><path style="stroke:none;fill-rule:nonzero;fill:#fff;fill-opacity:1" d="M12 23.05c1.633 0 3.168-.292 4.605-.882a12.22 12.22 0 0 0 3.82-2.438 11.467 11.467 0 0 0 2.59-3.582c.626-1.363.938-2.808.938-4.347a10.2 10.2 0 0 0-.937-4.332 11.53 11.53 0 0 0-2.59-3.598 12.361 12.361 0 0 0-3.82-2.437A12.166 12.166 0 0 0 11.987.55c-1.633 0-3.172.293-4.617.883A12.307 12.307 0 0 0 3.562 3.87 11.523 11.523 0 0 0 .985 7.465 10.2 10.2 0 0 0 .047 11.8c0 1.539.312 2.984.937 4.347a11.467 11.467 0 0 0 2.59 3.582 12.236 12.236 0 0 0 3.809 2.438c1.445.59 2.984.883 4.617.883Zm0-1.874a10.222 10.222 0 0 1-7.055-2.734 9.548 9.548 0 0 1-2.133-2.989 8.83 8.83 0 0 1-.761-3.652c0-1.301.254-2.52.761-3.649A9.52 9.52 0 0 1 4.946 5.16 9.82 9.82 0 0 1 8.11 3.156c1.204-.488 2.496-.73 3.88-.73 1.382 0 2.675.242 3.878.73a9.701 9.701 0 0 1 3.176 2.004 9.432 9.432 0 0 1 2.145 2.992 8.685 8.685 0 0 1 .773 3.649c0 1.3-.258 2.52-.773 3.652a9.22 9.22 0 0 1-2.133 2.988A10.222 10.222 0 0 1 12 21.176Zm-6.715-7.211c0 .242.078.43.235.574.156.137.367.207.632.207h2.684v2.527c0 .258.074.457.223.606.148.14.351.21.609.21.25 0 .445-.07.586-.21.148-.149.223-.348.223-.606v-2.527H13.5v2.527c0 .258.07.457.21.606.15.14.352.21.61.21.25 0 .45-.07.598-.21.148-.149.223-.348.223-.606v-2.527h2.683c.274 0 .485-.07.633-.21.156-.138.234-.329.234-.575 0-.234-.078-.418-.234-.55-.148-.138-.36-.208-.633-.208h-2.683V10.38h2.683c.274 0 .485-.07.633-.211a.714.714 0 0 0 .234-.563c0-.242-.078-.43-.234-.562-.148-.137-.36-.207-.633-.207h-2.683V6.309c0-.258-.075-.457-.223-.594-.148-.149-.348-.223-.598-.223-.258 0-.46.074-.61.223-.14.137-.21.336-.21.594v2.527h-3.023V6.309c0-.258-.075-.457-.223-.594-.14-.149-.336-.223-.586-.223-.258 0-.461.074-.61.223-.148.137-.222.336-.222.594v2.527H6.152c-.265 0-.476.07-.632.207-.157.133-.235.32-.235.562 0 .239.078.426.235.563.156.14.367.21.632.21h2.684v2.825H6.152c-.265 0-.476.07-.632.207-.157.133-.235.317-.235.555Zm5.203-.762V10.38h3.024v2.824Zm0 0"/></svg>