<svg width="128" height="128" viewBox="0 0 128 128" fill="none" xmlns="http://www.w3.org/2000/svg">
<path d="M63.9375 127.625C72.6458 127.625 80.8333 125.958 88.5 122.625C96.2083 119.292 103 114.688 108.875 108.812C114.75 102.938 119.354 96.1667 122.688 88.5C126.021 80.7917 127.688 72.5833 127.688 63.875C127.688 55.1667 126.021 46.9792 122.688 39.3125C119.354 31.6042 114.75 24.8125 108.875 18.9375C103 13.0625 96.2083 8.45833 88.5 5.125C80.7917 1.79167 72.5833 0.125 63.875 0.125C55.1667 0.125 46.9583 1.79167 39.25 5.125C31.5833 8.45833 24.8125 13.0625 18.9375 18.9375C13.1042 24.8125 8.52083 31.6042 5.1875 39.3125C1.85417 46.9792 0.1875 55.1667 0.1875 63.875C0.1875 72.5833 1.85417 80.7917 5.1875 88.5C8.52083 96.1667 13.125 102.938 19 108.812C24.875 114.688 31.6458 119.292 39.3125 122.625C47.0208 125.958 55.2292 127.625 63.9375 127.625ZM27.0625 76.5625C27.0625 75.2292 27.4792 74.1667 28.3125 73.375C29.1875 72.5417 30.375 72.125 31.875 72.125H46.5625V55.625H31.875C30.375 55.625 29.1875 55.2292 28.3125 54.4375C27.4792 53.6042 27.0625 52.5 27.0625 51.125C27.0625 49.7083 27.4792 48.6042 28.3125 47.8125C29.1875 46.9792 30.375 46.5625 31.875 46.5625H46.5625V31.875C46.5625 30.3333 46.9583 29.1458 47.75 28.3125C48.5833 27.4792 49.7292 27.0625 51.1875 27.0625C52.5208 27.0625 53.5833 27.4792 54.375 28.3125C55.2083 29.1458 55.625 30.3333 55.625 31.875V46.5625H72.25V31.875C72.25 30.3333 72.6458 29.1458 73.4375 28.3125C74.2292 27.4792 75.3333 27.0625 76.75 27.0625C78.125 27.0625 79.2292 27.4792 80.0625 28.3125C80.8958 29.1458 81.3125 30.3333 81.3125 31.875V46.5625H96C97.5 46.5625 98.6667 46.9792 99.5 47.8125C100.375 48.6042 100.812 49.7083 100.812 51.125C100.812 52.5 100.375 53.6042 99.5 54.4375C98.6667 55.2292 97.5 55.625 96 55.625H81.3125V72.125H96C97.5 72.125 98.6667 72.5417 99.5 73.375C100.375 74.1667 100.812 75.2292 100.812 76.5625C100.812 78.0208 100.375 79.1667 99.5 80C98.6667 80.7917 97.5 81.1875 96 81.1875H81.3125V95.875C81.3125 97.4167 80.8958 98.6042 80.0625 99.4375C79.2292 100.271 78.125 100.688 76.75 100.688C75.3333 100.688 74.2292 100.271 73.4375 99.4375C72.6458 98.6042 72.25 97.4167 72.25 95.875V81.1875H55.625V95.875C55.625 97.4167 55.2083 98.6042 54.375 99.4375C53.5833 100.271 52.5208 100.688 51.1875 100.688C49.7292 100.688 48.5833 100.271 47.75 99.4375C46.9583 98.6042 46.5625 97.4167 46.5625 95.875V81.1875H31.875C30.375 81.1875 29.1875 80.7917 28.3125 80C27.4792 79.1667 27.0625 78.0208 27.0625 76.5625ZM55.625 72.125H72.25V55.625H55.625V72.125Z" fill="white"/>
</svg>
