<svg xmlns="http://www.w3.org/2000/svg" width="24" height="24"><path style="stroke:none;fill-rule:nonzero;fill:#fff;fill-opacity:1" d="M12 23.05c1.633 0 3.168-.292 4.605-.882a12.22 12.22 0 0 0 3.82-2.438 11.467 11.467 0 0 0 2.59-3.582c.626-1.363.938-2.808.938-4.347a10.2 10.2 0 0 0-.937-4.332 11.53 11.53 0 0 0-2.59-3.598 12.361 12.361 0 0 0-3.82-2.437A12.166 12.166 0 0 0 11.987.55c-1.633 0-3.172.293-4.617.883A12.307 12.307 0 0 0 3.562 3.87 11.523 11.523 0 0 0 .985 7.465 10.2 10.2 0 0 0 .047 11.8c0 1.539.312 2.984.937 4.347a11.467 11.467 0 0 0 2.59 3.582 12.236 12.236 0 0 0 3.809 2.438c1.445.59 2.984.883 4.617.883Zm-6.914-9.01a.72.72 0 0 1 .234-.563c.164-.145.387-.22.668-.22h2.754v-2.913H5.988c-.281 0-.504-.067-.668-.207a.77.77 0 0 1-.234-.586c0-.25.078-.446.234-.582.164-.149.387-.223.668-.223h2.754v-2.59c0-.273.074-.484.223-.629.156-.148.37-.222.644-.222.25 0 .45.074.598.222.156.145.234.356.234.63v2.59h3.118v-2.59c0-.274.074-.485.222-.63.149-.148.356-.222.621-.222.258 0 .465.074.621.222.157.145.235.356.235.63v2.59h2.754c.281 0 .5.073.656.218.164.14.246.336.246.586a.752.752 0 0 1-.246.586c-.156.14-.375.207-.656.207h-2.754v2.914h2.754c.281 0 .5.074.656.219.164.14.246.328.246.562 0 .258-.082.461-.246.61-.156.136-.375.206-.656.206h-2.754v2.594c0 .274-.078.48-.235.63-.156.144-.363.218-.62.218-.266 0-.473-.074-.622-.219-.148-.148-.222-.36-.222-.629v-2.594H10.44v2.594c0 .274-.078.48-.234.63-.148.144-.348.218-.598.218-.273 0-.488-.074-.644-.219-.149-.148-.223-.36-.223-.629v-2.594H5.988c-.281 0-.504-.07-.668-.207-.156-.148-.234-.351-.234-.609Zm5.355-.782h3.118v-2.914H10.44Zm0 0"/></svg>