<svg width="128" height="128" viewBox="0 0 128 128" fill="none" xmlns="http://www.w3.org/2000/svg">
<path d="M63.9375 127.625C72.6458 127.625 80.8333 125.958 88.5 122.625C96.2083 119.292 103 114.688 108.875 108.812C114.75 102.938 119.354 96.1667 122.688 88.5C126.021 80.7917 127.688 72.5833 127.688 63.875C127.688 55.1667 126.021 46.9792 122.688 39.3125C119.354 31.6042 114.75 24.8125 108.875 18.9375C103 13.0625 96.2083 8.45833 88.5 5.125C80.7917 1.79167 72.5833 0.125 63.875 0.125C55.1667 0.125 46.9583 1.79167 39.25 5.125C31.5833 8.45833 24.8125 13.0625 18.9375 18.9375C13.1042 24.8125 8.52083 31.6042 5.1875 39.3125C1.85417 46.9792 0.1875 55.1667 0.1875 63.875C0.1875 72.5833 1.85417 80.7917 5.1875 88.5C8.52083 96.1667 13.125 102.938 19 108.812C24.875 114.688 31.6458 119.292 39.3125 122.625C47.0208 125.958 55.2292 127.625 63.9375 127.625ZM64.8125 102.438C63.9375 102.438 63.1875 102.146 62.5625 101.562C61.9792 100.938 61.6875 100.146 61.6875 99.1875V94.8125C54.7708 94.0208 49.2708 90.8958 45.1875 85.4375C41.1042 79.9792 39.0625 72.8125 39.0625 63.9375C39.0625 55.2708 41.1042 48.2083 45.1875 42.75C49.3125 37.2917 54.8125 34.1458 61.6875 33.3125V29C61.6875 28.0417 61.9792 27.2708 62.5625 26.6875C63.1458 26.1042 63.8958 25.8125 64.8125 25.8125C65.7292 25.8125 66.5 26.1042 67.125 26.6875C67.75 27.2708 68.0625 28.0417 68.0625 29V33.1875C72.6042 33.6458 76.5833 35.1458 80 37.6875C83.4167 40.2292 85.8125 43.4167 87.1875 47.25C87.3542 47.7917 87.4792 48.3333 87.5625 48.875C87.6875 49.375 87.75 49.8958 87.75 50.4375C87.75 51.6042 87.3958 52.5625 86.6875 53.3125C85.9792 54.0208 85.0208 54.375 83.8125 54.375C82.6875 54.375 81.8125 54.125 81.1875 53.625C80.5625 53.125 80.0417 52.2292 79.625 50.9375C78.9167 48.4375 77.5208 46.3125 75.4375 44.5625C73.3542 42.7708 70.8958 41.625 68.0625 41.125V62.125H84.375C85.7083 62.125 86.7708 62.5208 87.5625 63.3125C88.3542 64.0625 88.75 65.125 88.75 66.5V69.75C88.75 77.0833 86.9583 82.9792 83.375 87.4375C79.8333 91.8542 74.7292 94.3333 68.0625 94.875V99.1875C68.0625 100.146 67.75 100.938 67.125 101.562C66.5 102.146 65.7292 102.438 64.8125 102.438ZM61.6875 86.8125V41.25C57.3958 42.1667 54 44.6458 51.5 48.6875C49 52.6875 47.75 57.7708 47.75 63.9375C47.75 70.2292 49 75.3958 51.5 79.4375C54 83.4375 57.3958 85.8958 61.6875 86.8125ZM68.0625 87.0625C71.9375 86.4792 74.9583 84.7708 77.125 81.9375C79.2917 79.1042 80.375 75.5208 80.375 71.1875V69.75H68.0625V87.0625Z" fill="white"/>
</svg>
