<?xml version="1.0" encoding="UTF-8"?>
<svg xmlns="http://www.w3.org/2000/svg" xmlns:xlink="http://www.w3.org/1999/xlink" width="24" height="25.5" viewBox="0 0 24 25.5" version="1.1">
<g id="surface1">
<path style=" stroke:none;fill-rule:nonzero;fill:rgb(100%,100%,100%);fill-opacity:1;" d="M 12 24.492188 C 13.632812 24.492188 15.167969 24.179688 16.605469 23.554688 C 18.050781 22.929688 19.324219 22.066406 20.425781 20.964844 C 21.527344 19.863281 22.390625 18.59375 23.015625 17.15625 C 23.640625 15.710938 23.953125 14.171875 23.953125 12.539062 C 23.953125 10.90625 23.640625 9.371094 23.015625 7.933594 C 22.390625 6.488281 21.527344 5.214844 20.425781 4.113281 C 19.324219 3.011719 18.050781 2.148438 16.605469 1.523438 C 15.160156 0.898438 13.621094 0.585938 11.988281 0.585938 C 10.355469 0.585938 8.816406 0.898438 7.371094 1.523438 C 5.933594 2.148438 4.664062 3.011719 3.5625 4.113281 C 2.46875 5.214844 1.609375 6.488281 0.984375 7.933594 C 0.359375 9.371094 0.046875 10.90625 0.046875 12.539062 C 0.046875 14.171875 0.359375 15.710938 0.984375 17.15625 C 1.609375 18.59375 2.472656 19.863281 3.574219 20.964844 C 4.675781 22.066406 5.945312 22.929688 7.382812 23.554688 C 8.828125 24.179688 10.367188 24.492188 12 24.492188 Z M 12 22.5 C 10.617188 22.5 9.324219 22.242188 8.121094 21.726562 C 6.917969 21.210938 5.859375 20.5 4.945312 19.59375 C 4.039062 18.679688 3.328125 17.621094 2.8125 16.417969 C 2.304688 15.214844 2.050781 13.921875 2.050781 12.539062 C 2.050781 11.15625 2.304688 9.863281 2.8125 8.660156 C 3.328125 7.457031 4.039062 6.398438 4.945312 5.484375 C 5.851562 4.570312 6.90625 3.859375 8.109375 3.351562 C 9.3125 2.835938 10.605469 2.578125 11.988281 2.578125 C 13.371094 2.578125 14.664062 2.835938 15.867188 3.351562 C 17.078125 3.859375 18.136719 4.570312 19.042969 5.484375 C 19.957031 6.398438 20.671875 7.457031 21.1875 8.660156 C 21.703125 9.863281 21.960938 11.15625 21.960938 12.539062 C 21.960938 13.921875 21.703125 15.214844 21.1875 16.417969 C 20.679688 17.621094 19.96875 18.679688 19.054688 19.59375 C 18.140625 20.5 17.082031 21.210938 15.878906 21.726562 C 14.675781 22.242188 13.382812 22.5 12 22.5 Z M 12.152344 19.546875 C 12.324219 19.546875 12.464844 19.496094 12.574219 19.394531 C 12.683594 19.285156 12.738281 19.140625 12.738281 18.960938 L 12.738281 18.175781 C 13.949219 18.074219 14.875 17.621094 15.515625 16.816406 C 16.164062 16.003906 16.488281 14.933594 16.488281 13.605469 L 16.488281 13.019531 C 16.488281 12.769531 16.417969 12.574219 16.277344 12.433594 C 16.136719 12.292969 15.945312 12.222656 15.703125 12.222656 L 12.738281 12.222656 L 12.738281 8.402344 C 13.253906 8.488281 13.699219 8.695312 14.074219 9.023438 C 14.457031 9.34375 14.714844 9.734375 14.847656 10.195312 C 14.917969 10.421875 15.007812 10.582031 15.117188 10.675781 C 15.234375 10.769531 15.394531 10.816406 15.597656 10.816406 C 15.816406 10.816406 15.988281 10.75 16.113281 10.617188 C 16.246094 10.484375 16.3125 10.3125 16.3125 10.101562 C 16.3125 10 16.300781 9.902344 16.277344 9.808594 C 16.261719 9.714844 16.238281 9.621094 16.207031 9.527344 C 15.957031 8.824219 15.519531 8.242188 14.894531 7.78125 C 14.277344 7.320312 13.558594 7.046875 12.738281 6.960938 L 12.738281 6.199219 C 12.738281 6.027344 12.683594 5.890625 12.574219 5.789062 C 12.464844 5.679688 12.324219 5.625 12.152344 5.625 C 11.988281 5.625 11.851562 5.679688 11.742188 5.789062 C 11.632812 5.890625 11.578125 6.027344 11.578125 6.199219 L 11.578125 6.984375 C 10.335938 7.132812 9.339844 7.707031 8.589844 8.707031 C 7.847656 9.699219 7.476562 10.980469 7.476562 12.550781 C 7.476562 14.160156 7.84375 15.460938 8.578125 16.453125 C 9.320312 17.445312 10.320312 18.015625 11.578125 18.164062 L 11.578125 18.960938 C 11.578125 19.140625 11.632812 19.285156 11.742188 19.394531 C 11.851562 19.496094 11.988281 19.546875 12.152344 19.546875 Z M 11.578125 16.710938 C 10.796875 16.546875 10.179688 16.097656 9.726562 15.363281 C 9.273438 14.628906 9.046875 13.691406 9.046875 12.550781 C 9.046875 11.425781 9.273438 10.5 9.726562 9.773438 C 10.179688 9.039062 10.796875 8.589844 11.578125 8.425781 Z M 12.738281 16.757812 L 12.738281 13.605469 L 14.976562 13.605469 L 14.976562 13.863281 C 14.976562 14.652344 14.777344 15.304688 14.378906 15.820312 C 13.988281 16.335938 13.441406 16.648438 12.738281 16.757812 Z M 12.738281 16.757812 "/>
</g>
</svg>
