<?xml version="1.0" encoding="UTF-8"?>
<svg xmlns="http://www.w3.org/2000/svg" xmlns:xlink="http://www.w3.org/1999/xlink" width="24" height="19.428571" viewBox="0 0 24 19.428571" version="1.1">
<g id="surface1">
<path style=" stroke:none;fill-rule:nonzero;fill:rgb(100%,100%,100%);fill-opacity:1;" d="M 1.292969 17.417969 C 1.1875 17.664062 1.144531 17.90625 1.167969 18.152344 C 1.195312 18.394531 1.289062 18.597656 1.457031 18.757812 C 1.621094 18.925781 1.863281 19.007812 2.179688 19.007812 C 2.355469 19.007812 2.527344 18.96875 2.6875 18.882812 C 2.847656 18.804688 3.035156 18.679688 3.25 18.507812 L 5.695312 16.464844 C 5.792969 16.386719 5.867188 16.347656 5.917969 16.347656 C 5.972656 16.347656 6.046875 16.386719 6.144531 16.464844 L 8.589844 18.507812 C 8.796875 18.679688 8.980469 18.804688 9.144531 18.882812 C 9.308594 18.96875 9.480469 19.007812 9.660156 19.007812 C 9.976562 19.007812 10.21875 18.925781 10.382812 18.757812 C 10.550781 18.597656 10.644531 18.394531 10.667969 18.152344 C 10.695312 17.90625 10.652344 17.664062 10.542969 17.417969 L 6.597656 8.5 L 6.597656 4.355469 C 6.597656 3.679688 6.625 3.070312 6.679688 2.527344 C 6.738281 1.984375 6.792969 1.539062 6.847656 1.1875 C 6.90625 0.835938 6.9375 0.613281 6.9375 0.519531 C 6.9375 0.394531 6.902344 0.292969 6.832031 0.222656 C 6.757812 0.152344 6.664062 0.117188 6.542969 0.117188 C 6.40625 0.117188 6.238281 0.226562 6.035156 0.445312 L 4.070312 2.707031 C 3.988281 2.800781 3.957031 2.898438 3.972656 3 C 3.992188 3.09375 4.050781 3.167969 4.152344 3.222656 C 4.550781 3.390625 4.832031 3.539062 4.992188 3.667969 C 5.152344 3.800781 5.230469 4.03125 5.230469 4.355469 L 5.230469 8.492188 Z M 7.972656 15.792969 C 7.855469 15.792969 7.75 15.753906 7.660156 15.667969 C 7.578125 15.582031 7.535156 15.472656 7.535156 15.347656 C 7.535156 15.230469 7.582031 15.125 7.667969 15.035156 C 7.757812 14.941406 7.859375 14.894531 7.972656 14.894531 C 8.097656 14.894531 8.207031 14.941406 8.292969 15.035156 C 8.382812 15.125 8.429688 15.230469 8.429688 15.347656 C 8.429688 15.46875 8.382812 15.570312 8.285156 15.660156 C 8.195312 15.75 8.09375 15.792969 7.972656 15.792969 Z M 7.492188 14.644531 C 7.371094 14.644531 7.269531 14.601562 7.179688 14.519531 C 7.089844 14.429688 7.042969 14.320312 7.042969 14.195312 C 7.042969 14.078125 7.089844 13.972656 7.179688 13.882812 C 7.269531 13.789062 7.371094 13.742188 7.492188 13.742188 C 7.617188 13.742188 7.722656 13.785156 7.8125 13.875 C 7.902344 13.964844 7.945312 14.070312 7.945312 14.195312 C 7.945312 14.316406 7.902344 14.417969 7.8125 14.507812 C 7.722656 14.597656 7.617188 14.644531 7.492188 14.644531 Z M 7.007812 13.480469 C 6.890625 13.480469 6.785156 13.441406 6.695312 13.355469 C 6.605469 13.269531 6.5625 13.164062 6.5625 13.042969 C 6.5625 12.925781 6.605469 12.820312 6.695312 12.722656 C 6.785156 12.628906 6.890625 12.582031 7.007812 12.582031 C 7.128906 12.582031 7.230469 12.628906 7.320312 12.722656 C 7.410156 12.8125 7.457031 12.917969 7.457031 13.042969 C 7.457031 13.164062 7.410156 13.269531 7.320312 13.355469 C 7.230469 13.441406 7.128906 13.480469 7.007812 13.480469 Z M 13.027344 19.035156 C 13.820312 19.035156 14.511719 18.886719 15.105469 18.589844 C 15.707031 18.296875 16.171875 17.886719 16.5 17.355469 C 16.832031 16.828125 17 16.207031 17 15.492188 C 17 15.050781 16.945312 14.664062 16.832031 14.332031 C 16.71875 13.996094 16.585938 13.707031 16.4375 13.464844 C 16.292969 13.21875 16.167969 13.007812 16.054688 12.820312 C 15.945312 12.636719 15.894531 12.46875 15.894531 12.320312 C 15.894531 12.089844 15.945312 11.867188 16.042969 11.652344 C 16.144531 11.4375 16.246094 11.210938 16.347656 10.972656 C 16.449219 10.734375 16.5 10.46875 16.5 10.167969 C 16.5 9.847656 16.40625 9.585938 16.214844 9.382812 C 16.023438 9.175781 15.78125 9.070312 15.480469 9.070312 C 15.207031 9.070312 14.984375 9.140625 14.8125 9.277344 C 14.640625 9.414062 14.496094 9.5625 14.382812 9.722656 C 14.292969 9.847656 14.214844 9.953125 14.144531 10.035156 C 14.070312 10.117188 14.007812 10.160156 13.945312 10.160156 C 13.867188 10.160156 13.8125 10.121094 13.777344 10.042969 C 13.742188 9.96875 13.71875 9.871094 13.707031 9.757812 C 13.695312 9.640625 13.6875 9.53125 13.6875 9.429688 L 13.695312 3.945312 C 13.695312 3.808594 13.707031 3.722656 13.722656 3.6875 C 13.742188 3.644531 13.789062 3.613281 13.867188 3.589844 C 13.96875 3.554688 14.035156 3.507812 14.070312 3.445312 C 14.105469 3.386719 14.132812 3.292969 14.144531 3.167969 L 14.320312 1.347656 C 14.332031 1.179688 14.273438 1.039062 14.144531 0.917969 L 13.375 0.25 C 13.273438 0.160156 13.15625 0.117188 13.027344 0.117188 C 12.890625 0.117188 12.769531 0.160156 12.667969 0.25 L 11.902344 0.917969 C 11.769531 1.039062 11.710938 1.179688 11.722656 1.347656 L 11.902344 3.167969 C 11.925781 3.402344 12.019531 3.542969 12.1875 3.589844 C 12.253906 3.605469 12.292969 3.636719 12.3125 3.679688 C 12.335938 3.71875 12.347656 3.808594 12.347656 3.945312 L 12.367188 9.417969 C 12.367188 9.550781 12.355469 9.671875 12.339844 9.785156 C 12.328125 9.898438 12.300781 9.992188 12.257812 10.0625 C 12.222656 10.128906 12.175781 10.160156 12.117188 10.160156 C 12.050781 10.160156 11.980469 10.117188 11.910156 10.027344 C 11.84375 9.9375 11.761719 9.835938 11.660156 9.722656 C 11.546875 9.5625 11.40625 9.414062 11.230469 9.277344 C 11.066406 9.140625 10.847656 9.070312 10.582031 9.070312 C 10.277344 9.070312 10.03125 9.175781 9.839844 9.382812 C 9.648438 9.585938 9.554688 9.847656 9.554688 10.167969 C 9.554688 10.46875 9.605469 10.734375 9.707031 10.972656 C 9.804688 11.210938 9.90625 11.4375 10 11.652344 C 10.101562 11.867188 10.152344 12.089844 10.152344 12.320312 C 10.152344 12.492188 10.078125 12.6875 9.929688 12.902344 C 9.785156 13.117188 9.636719 13.382812 9.480469 13.695312 L 10.839844 16.769531 C 10.96875 17.066406 11.0625 17.3125 11.117188 17.507812 C 11.175781 17.707031 11.207031 17.902344 11.207031 18.097656 C 11.207031 18.300781 11.167969 18.492188 11.097656 18.667969 C 11.390625 18.789062 11.695312 18.878906 12.019531 18.9375 C 12.339844 19.003906 12.675781 19.035156 13.027344 19.035156 Z M 11.0625 15.339844 C 10.96875 15.308594 10.894531 15.246094 10.847656 15.152344 C 10.804688 15.050781 10.800781 14.957031 10.832031 14.867188 L 11.597656 12.757812 C 11.632812 12.664062 11.699219 12.59375 11.792969 12.554688 C 11.890625 12.507812 11.984375 12.5 12.082031 12.535156 C 12.175781 12.566406 12.246094 12.632812 12.292969 12.730469 C 12.34375 12.828125 12.347656 12.921875 12.3125 13.019531 L 11.542969 15.117188 C 11.507812 15.210938 11.445312 15.28125 11.347656 15.332031 C 11.253906 15.371094 11.15625 15.375 11.0625 15.339844 Z M 14.992188 15.339844 C 14.890625 15.375 14.792969 15.371094 14.695312 15.332031 C 14.605469 15.28125 14.542969 15.210938 14.507812 15.117188 L 13.742188 13.019531 C 13.707031 12.921875 13.710938 12.828125 13.757812 12.730469 C 13.804688 12.632812 13.875 12.566406 13.964844 12.535156 C 14.066406 12.5 14.160156 12.507812 14.25 12.554688 C 14.34375 12.59375 14.410156 12.664062 14.445312 12.757812 L 15.214844 14.867188 C 15.25 14.957031 15.242188 15.050781 15.195312 15.152344 C 15.148438 15.246094 15.082031 15.308594 14.992188 15.339844 Z M 20.027344 18.980469 C 21.234375 18.980469 22.195312 18.714844 22.910156 18.179688 C 23.625 17.648438 23.980469 16.929688 23.980469 16.019531 C 23.980469 15.558594 23.921875 15.179688 23.804688 14.875 C 23.683594 14.570312 23.542969 14.3125 23.382812 14.097656 C 23.230469 13.882812 23.089844 13.6875 22.964844 13.507812 C 22.84375 13.332031 22.785156 13.144531 22.785156 12.945312 C 22.785156 12.644531 22.832031 12.34375 22.917969 12.054688 C 23.007812 11.761719 23.054688 11.429688 23.054688 11.0625 C 23.054688 10.457031 22.847656 9.96875 22.4375 9.597656 C 22.027344 9.230469 21.445312 9 20.695312 8.910156 L 20.695312 3.617188 C 20.695312 3.425781 20.714844 3.292969 20.75 3.214844 C 20.785156 3.136719 20.855469 3.0625 20.964844 2.992188 C 21.125 2.882812 21.199219 2.761719 21.1875 2.625 L 21.054688 0.417969 C 21.046875 0.332031 21.015625 0.257812 20.957031 0.207031 C 20.902344 0.144531 20.832031 0.117188 20.75 0.117188 L 19.285156 0.117188 C 19.207031 0.117188 19.140625 0.144531 19.082031 0.207031 C 19.027344 0.257812 18.996094 0.332031 18.992188 0.417969 L 18.855469 2.625 C 18.84375 2.761719 18.917969 2.882812 19.082031 2.992188 C 19.1875 3.070312 19.257812 3.144531 19.292969 3.222656 C 19.332031 3.300781 19.347656 3.429688 19.347656 3.617188 L 19.347656 8.910156 C 18.597656 9 18.019531 9.230469 17.605469 9.597656 C 17.195312 9.96875 16.992188 10.457031 16.992188 11.0625 C 16.992188 11.429688 17.035156 11.761719 17.125 12.054688 C 17.214844 12.34375 17.257812 12.644531 17.257812 12.945312 C 17.257812 13.042969 17.242188 13.132812 17.207031 13.222656 C 17.175781 13.304688 17.132812 13.390625 17.082031 13.472656 C 17.207031 13.742188 17.3125 14.042969 17.402344 14.382812 C 17.496094 14.722656 17.542969 15.09375 17.542969 15.492188 C 17.542969 15.957031 17.480469 16.386719 17.347656 16.785156 C 17.222656 17.191406 17.042969 17.554688 16.804688 17.882812 C 17.144531 18.234375 17.585938 18.507812 18.132812 18.695312 C 18.679688 18.886719 19.3125 18.980469 20.027344 18.980469 Z M 20.027344 13.679688 C 19.746094 13.679688 19.507812 13.582031 19.3125 13.394531 C 19.117188 13.195312 19.019531 12.960938 19.019531 12.6875 C 19.019531 12.414062 19.117188 12.179688 19.3125 11.980469 C 19.507812 11.785156 19.746094 11.6875 20.027344 11.6875 C 20.300781 11.6875 20.53125 11.785156 20.722656 11.980469 C 20.917969 12.179688 21.019531 12.414062 21.019531 12.6875 C 21.019531 12.960938 20.917969 13.195312 20.722656 13.394531 C 20.53125 13.582031 20.300781 13.679688 20.027344 13.679688 Z M 18.847656 16.195312 C 18.734375 16.195312 18.636719 16.15625 18.554688 16.070312 C 18.476562 15.992188 18.4375 15.902344 18.4375 15.792969 C 18.4375 15.679688 18.476562 15.582031 18.554688 15.5 C 18.636719 15.417969 18.734375 15.375 18.847656 15.375 L 21.1875 15.375 C 21.292969 15.375 21.386719 15.417969 21.464844 15.5 C 21.546875 15.578125 21.589844 15.675781 21.589844 15.792969 C 21.589844 15.902344 21.546875 15.992188 21.464844 16.070312 C 21.386719 16.15625 21.292969 16.195312 21.1875 16.195312 Z M 18.847656 16.195312 "/>
</g>
</svg>
