<svg width="22" height="17" viewBox="0 0 22 17" fill="none" xmlns="http://www.w3.org/2000/svg">
<path d="M1.09375 15.2266C0.994792 15.4453 0.958333 15.6641 0.984375 15.8828C1.01042 16.1068 1.09896 16.2917 1.25 16.4375C1.40104 16.5885 1.61719 16.6641 1.89844 16.6641C2.05469 16.6641 2.20312 16.6302 2.34375 16.5625C2.48958 16.5 2.66146 16.3854 2.85938 16.2188L5 14.4297C5.07812 14.3672 5.13542 14.3359 5.17188 14.3359C5.20833 14.3359 5.26562 14.3672 5.34375 14.4297L7.48438 16.2188C7.6875 16.3854 7.85938 16.5 8 16.5625C8.14583 16.6302 8.29427 16.6641 8.44531 16.6641C8.72656 16.6641 8.94271 16.5885 9.09375 16.4375C9.25 16.2917 9.33854 16.1068 9.35938 15.8828C9.38542 15.6641 9.34896 15.4453 9.25 15.2266L5.80469 7.4375V3.8125C5.80469 3.21875 5.82812 2.6849 5.875 2.21094C5.92708 1.73698 5.97656 1.34635 6.02344 1.03906C6.07552 0.731771 6.10156 0.536458 6.10156 0.453125C6.10156 0.338542 6.06771 0.247396 6 0.179688C5.93229 0.106771 5.84375 0.0703125 5.73438 0.0703125C5.59896 0.0703125 5.4401 0.169271 5.25781 0.367188L3.53906 2.34375C3.46094 2.43229 3.42969 2.52604 3.44531 2.625C3.46615 2.71875 3.52604 2.79427 3.625 2.85156C3.96875 2.9974 4.20833 3.125 4.34375 3.23438C4.48438 3.34375 4.55469 3.53646 4.55469 3.8125V7.41406L1.09375 15.2266ZM1.89844 15.5391L5.125 8.17969H5.21875L8.44531 15.5391C8.48698 15.638 8.47917 15.7057 8.42188 15.7422C8.36458 15.7839 8.29948 15.7734 8.22656 15.7109L5.82031 13.7031C5.5651 13.5 5.34896 13.3984 5.17188 13.3984C4.99479 13.3984 4.77865 13.5 4.52344 13.7031L2.11719 15.7109C2.04427 15.7734 1.97917 15.7839 1.92188 15.7422C1.86458 15.7057 1.85677 15.638 1.89844 15.5391ZM6.80469 13.9297C6.90885 13.9297 7 13.8932 7.07812 13.8203C7.15625 13.7422 7.19531 13.6536 7.19531 13.5547C7.19531 13.4557 7.15625 13.3672 7.07812 13.2891C7.00521 13.2109 6.91406 13.1719 6.80469 13.1719C6.71094 13.1719 6.6276 13.2109 6.55469 13.2891C6.48177 13.3672 6.44531 13.4557 6.44531 13.5547C6.44531 13.6589 6.47917 13.7474 6.54688 13.8203C6.61979 13.8932 6.70573 13.9297 6.80469 13.9297ZM6.40625 12.9531C6.50521 12.9531 6.59375 12.9167 6.67188 12.8438C6.75 12.7708 6.78906 12.6823 6.78906 12.5781C6.78906 12.474 6.75 12.3854 6.67188 12.3125C6.59375 12.2344 6.50521 12.1953 6.40625 12.1953C6.30208 12.1953 6.21094 12.2344 6.13281 12.3125C6.0599 12.3906 6.02344 12.4792 6.02344 12.5781C6.02344 12.6823 6.0599 12.7708 6.13281 12.8438C6.21094 12.9167 6.30208 12.9531 6.40625 12.9531ZM5.99219 11.9688C6.09635 11.9688 6.1849 11.9349 6.25781 11.8672C6.33073 11.7943 6.36719 11.7057 6.36719 11.6016C6.36719 11.4974 6.33073 11.4062 6.25781 11.3281C6.1849 11.25 6.09635 11.2109 5.99219 11.2109C5.89323 11.2109 5.80469 11.2526 5.72656 11.3359C5.65365 11.4141 5.61719 11.5026 5.61719 11.6016C5.61719 11.7005 5.65365 11.7865 5.72656 11.8594C5.80469 11.9323 5.89323 11.9688 5.99219 11.9688ZM8.26562 11.9922L8.82031 13.2266C8.85677 12.8307 8.95052 12.5026 9.10156 12.2422C9.2526 11.9766 9.39583 11.7344 9.53125 11.5156C9.67188 11.2969 9.74219 11.0547 9.74219 10.7891C9.74219 10.5234 9.69792 10.2865 9.60938 10.0781C9.52083 9.86979 9.43229 9.67188 9.34375 9.48438C9.25521 9.29688 9.21094 9.09896 9.21094 8.89062C9.21094 8.80729 9.24479 8.76562 9.3125 8.76562C9.40104 8.76562 9.48438 8.8125 9.5625 8.90625C9.64062 9 9.72396 9.10938 9.8125 9.23438C9.90625 9.35938 10.0156 9.47135 10.1406 9.57031C10.2708 9.66406 10.4323 9.71094 10.625 9.71094C10.8021 9.71094 10.9557 9.65885 11.0859 9.55469C11.2161 9.45052 11.3099 9.29948 11.3672 9.10156H11.4297C11.4922 9.30469 11.5885 9.45833 11.7188 9.5625C11.849 9.66146 12.0026 9.71094 12.1797 9.71094C12.3672 9.71094 12.526 9.66406 12.6562 9.57031C12.7865 9.47135 12.8958 9.35938 12.9844 9.23438C13.0729 9.10938 13.1562 9 13.2344 8.90625C13.3125 8.8125 13.3932 8.76562 13.4766 8.76562C13.5547 8.76562 13.5938 8.80729 13.5938 8.89062C13.5938 9.09896 13.5495 9.29688 13.4609 9.48438C13.3724 9.67188 13.2812 9.86979 13.1875 10.0781C13.099 10.2865 13.0547 10.5234 13.0547 10.7891C13.0547 11.0078 13.1016 11.2083 13.1953 11.3906C13.2943 11.5677 13.4062 11.7552 13.5312 11.9531C13.6615 12.151 13.7734 12.3776 13.8672 12.6328C13.9661 12.888 14.0156 13.1953 14.0156 13.5547C14.0156 14.2526 13.7839 14.7995 13.3203 15.1953C12.8568 15.5911 12.2161 15.7891 11.3984 15.7891C11.0807 15.7891 10.7839 15.7578 10.5078 15.6953C10.2318 15.6328 9.97135 15.5417 9.72656 15.4219C9.76823 15.6042 9.78385 15.7682 9.77344 15.9141C9.76823 16.0599 9.73177 16.2057 9.66406 16.3516C9.9401 16.4609 10.2214 16.5443 10.5078 16.6016C10.7995 16.6589 11.0964 16.6875 11.3984 16.6875C12.1016 16.6875 12.7161 16.5573 13.2422 16.2969C13.7682 16.0365 14.1771 15.6719 14.4688 15.2031C14.7604 14.7344 14.9062 14.1849 14.9062 13.5547C14.9062 13.1641 14.8568 12.8229 14.7578 12.5312C14.6641 12.2396 14.5521 11.987 14.4219 11.7734C14.2969 11.5547 14.1849 11.3672 14.0859 11.2109C13.987 11.0495 13.9375 10.9062 13.9375 10.7812C13.9375 10.5833 13.9818 10.3906 14.0703 10.2031C14.1589 10.0156 14.2474 9.81771 14.3359 9.60938C14.4245 9.40104 14.4688 9.16406 14.4688 8.89844C14.4688 8.60677 14.3828 8.36979 14.2109 8.1875C14.0391 8 13.8177 7.90625 13.5469 7.90625C13.3021 7.90625 13.099 7.96615 12.9375 8.08594C12.7812 8.20573 12.6562 8.34115 12.5625 8.49219C12.4948 8.60156 12.4297 8.6901 12.3672 8.75781C12.3047 8.82552 12.25 8.85938 12.2031 8.85938C12.151 8.85938 12.112 8.83333 12.0859 8.78125C12.0599 8.72396 12.0391 8.64844 12.0234 8.55469C12.013 8.45573 12.0104 8.34635 12.0156 8.22656L12.0234 3.45312C12.0234 3.33854 12.0286 3.26823 12.0391 3.24219C12.0495 3.21094 12.0833 3.1875 12.1406 3.17188C12.2969 3.125 12.3854 2.99219 12.4062 2.77344L12.5703 1.17969C12.5807 1.02344 12.5234 0.890625 12.3984 0.78125L11.7266 0.195312C11.6328 0.111979 11.5234 0.0703125 11.3984 0.0703125C11.2734 0.0703125 11.1615 0.111979 11.0625 0.195312L10.3984 0.78125C10.2734 0.890625 10.2161 1.02344 10.2266 1.17969L10.3828 2.77344C10.4036 2.98698 10.4948 3.11979 10.6562 3.17188C10.7083 3.18229 10.7396 3.20573 10.75 3.24219C10.7656 3.27344 10.7734 3.34375 10.7734 3.45312L10.7891 8.22656C10.7891 8.34115 10.7839 8.44792 10.7734 8.54688C10.763 8.64062 10.7422 8.71615 10.7109 8.77344C10.6849 8.83073 10.6484 8.85938 10.6016 8.85938C10.5495 8.85938 10.4922 8.82292 10.4297 8.75C10.3724 8.67708 10.3073 8.59115 10.2344 8.49219C10.1302 8.35156 10 8.21875 9.84375 8.09375C9.69271 7.96875 9.4974 7.90625 9.25781 7.90625C8.98698 7.90625 8.76302 7.9974 8.58594 8.17969C8.41406 8.36198 8.32812 8.60156 8.32812 8.89844C8.32812 9.16406 8.3724 9.40104 8.46094 9.60938C8.54948 9.81771 8.63802 10.0156 8.72656 10.2031C8.8151 10.3906 8.85938 10.5833 8.85938 10.7812C8.85938 10.9271 8.79427 11.0964 8.66406 11.2891C8.53385 11.4766 8.40104 11.7109 8.26562 11.9922ZM9.85156 13.4219C9.9349 13.4531 10.0156 13.4505 10.0938 13.4141C10.1719 13.3724 10.2266 13.3125 10.2578 13.2344L10.9062 11.4531C10.9323 11.3698 10.9271 11.2891 10.8906 11.2109C10.8542 11.1276 10.7969 11.0729 10.7188 11.0469C10.6354 11.0156 10.5521 11.0208 10.4688 11.0625C10.3906 11.099 10.3359 11.1562 10.3047 11.2344L9.65625 13.0234C9.63021 13.1016 9.63542 13.1823 9.67188 13.2656C9.70833 13.3438 9.76823 13.3958 9.85156 13.4219ZM12.9453 13.4219C13.0286 13.3958 13.0885 13.3438 13.125 13.2656C13.1615 13.1823 13.1641 13.1016 13.1328 13.0234L12.4844 11.2344C12.4531 11.1562 12.3984 11.099 12.3203 11.0625C12.2422 11.0208 12.1615 11.0156 12.0781 11.0469C12 11.0729 11.9427 11.1276 11.9062 11.2109C11.8698 11.2891 11.8646 11.3698 11.8906 11.4531L12.5391 13.2344C12.5703 13.3125 12.625 13.3724 12.7031 13.4141C12.7812 13.4505 12.862 13.4531 12.9453 13.4219ZM17.5234 16.6406C18.5911 16.6406 19.4401 16.4036 20.0703 15.9297C20.7057 15.4557 21.0234 14.8177 21.0234 14.0156C21.0234 13.6094 20.9688 13.2734 20.8594 13.0078C20.7552 12.737 20.6328 12.5078 20.4922 12.3203C20.3568 12.1328 20.2344 11.9635 20.125 11.8125C20.0208 11.6615 19.9688 11.5 19.9688 11.3281C19.9688 11.0677 20.0078 10.8099 20.0859 10.5547C20.1641 10.2943 20.2031 10.0026 20.2031 9.67969C20.2031 9.14323 20.0234 8.71094 19.6641 8.38281C19.3047 8.05469 18.7969 7.85156 18.1406 7.77344V3.16406C18.1406 3.00781 18.1536 2.89844 18.1797 2.83594C18.2109 2.76823 18.2708 2.70312 18.3594 2.64062C18.5104 2.54688 18.5807 2.43229 18.5703 2.29688L18.4531 0.367188C18.4479 0.278646 18.4167 0.208333 18.3594 0.15625C18.3073 0.0989583 18.2396 0.0703125 18.1562 0.0703125H16.875C16.7969 0.0703125 16.7292 0.0989583 16.6719 0.15625C16.6198 0.208333 16.5911 0.278646 16.5859 0.367188L16.4688 2.29688C16.4635 2.43229 16.5339 2.54688 16.6797 2.64062C16.7734 2.70833 16.8333 2.77604 16.8594 2.84375C16.8854 2.90625 16.8984 3.01302 16.8984 3.16406V7.77344C16.2422 7.85156 15.7344 8.05469 15.375 8.38281C15.0156 8.71094 14.8359 9.14323 14.8359 9.67969C14.8359 10.0026 14.875 10.2943 14.9531 10.5547C15.0312 10.8099 15.0703 11.0677 15.0703 11.3281C15.0703 11.3854 15.0599 11.4505 15.0391 11.5234C15.0182 11.5964 14.9792 11.6901 14.9219 11.8047C15 11.9714 15.0625 12.1354 15.1094 12.2969C15.1615 12.4531 15.2057 12.612 15.2422 12.7734C15.4089 12.5651 15.5703 12.3411 15.7266 12.1016C15.8828 11.8568 15.9609 11.5938 15.9609 11.3125C15.9609 11.0365 15.9193 10.7604 15.8359 10.4844C15.7578 10.2031 15.7188 9.9349 15.7188 9.67969C15.7188 9.27344 15.8828 8.99219 16.2109 8.83594C16.5391 8.67448 16.9766 8.59375 17.5234 8.59375C18.0547 8.59375 18.487 8.67188 18.8203 8.82812C19.1536 8.97917 19.3203 9.26302 19.3203 9.67969C19.3203 9.9349 19.2786 10.2031 19.1953 10.4844C19.1172 10.7604 19.0781 11.0365 19.0781 11.3125C19.0781 11.5521 19.1302 11.7708 19.2344 11.9688C19.3438 12.1615 19.4688 12.3568 19.6094 12.5547C19.75 12.7474 19.8724 12.9609 19.9766 13.1953C20.0807 13.4245 20.1328 13.6979 20.1328 14.0156C20.1328 14.5573 19.901 14.9818 19.4375 15.2891C18.9792 15.6016 18.3411 15.7578 17.5234 15.7578C16.3411 15.7578 15.5339 15.4479 15.1016 14.8281C15.0391 15 14.9714 15.151 14.8984 15.2812C14.8307 15.4115 14.7526 15.5391 14.6641 15.6641C14.9766 15.987 15.3776 16.2292 15.8672 16.3906C16.3568 16.5573 16.9089 16.6406 17.5234 16.6406ZM17.5234 11.9453C17.7526 11.9453 17.9505 11.8646 18.1172 11.7031C18.2839 11.5365 18.3672 11.3359 18.3672 11.1016C18.3672 10.8672 18.2839 10.6667 18.1172 10.5C17.9505 10.3333 17.7526 10.25 17.5234 10.25C17.2891 10.25 17.0859 10.3333 16.9141 10.5C16.7474 10.6667 16.6641 10.8672 16.6641 11.1016C16.6641 11.3359 16.7474 11.5365 16.9141 11.7031C17.0807 11.8646 17.2839 11.9453 17.5234 11.9453ZM16.5234 14.1562H18.5078C18.6016 14.1562 18.6797 14.1224 18.7422 14.0547C18.8099 13.9922 18.8438 13.9141 18.8438 13.8203C18.8438 13.7214 18.8099 13.638 18.7422 13.5703C18.6797 13.5026 18.6016 13.4688 18.5078 13.4688H16.5234C16.4297 13.4688 16.349 13.5052 16.2812 13.5781C16.2135 13.6458 16.1797 13.7266 16.1797 13.8203C16.1797 13.9141 16.2135 13.9922 16.2812 14.0547C16.349 14.1224 16.4297 14.1562 16.5234 14.1562Z" fill="white"/>
</svg>
