<?xml version="1.0" encoding="UTF-8"?>
<svg xmlns="http://www.w3.org/2000/svg" xmlns:xlink="http://www.w3.org/1999/xlink" width="24" height="25.5" viewBox="0 0 24 25.5" version="1.1">
<g id="surface1">
<path style=" stroke:none;fill-rule:nonzero;fill:rgb(100%,100%,100%);fill-opacity:1;" d="M 12 24.492188 C 13.632812 24.492188 15.167969 24.179688 16.605469 23.554688 C 18.050781 22.929688 19.324219 22.066406 20.425781 20.964844 C 21.527344 19.863281 22.390625 18.59375 23.015625 17.15625 C 23.640625 15.710938 23.953125 14.171875 23.953125 12.539062 C 23.953125 10.90625 23.640625 9.371094 23.015625 7.933594 C 22.390625 6.488281 21.527344 5.214844 20.425781 4.113281 C 19.324219 3.011719 18.050781 2.148438 16.605469 1.523438 C 15.160156 0.898438 13.621094 0.585938 11.988281 0.585938 C 10.355469 0.585938 8.816406 0.898438 7.371094 1.523438 C 5.933594 2.148438 4.664062 3.011719 3.5625 4.113281 C 2.46875 5.214844 1.609375 6.488281 0.984375 7.933594 C 0.359375 9.371094 0.046875 10.90625 0.046875 12.539062 C 0.046875 14.171875 0.359375 15.710938 0.984375 17.15625 C 1.609375 18.59375 2.472656 19.863281 3.574219 20.964844 C 4.675781 22.066406 5.945312 22.929688 7.382812 23.554688 C 8.828125 24.179688 10.367188 24.492188 12 24.492188 Z M 12 22.5 C 10.617188 22.5 9.324219 22.242188 8.121094 21.726562 C 6.917969 21.210938 5.859375 20.5 4.945312 19.59375 C 4.039062 18.679688 3.328125 17.621094 2.8125 16.417969 C 2.304688 15.214844 2.050781 13.921875 2.050781 12.539062 C 2.050781 11.15625 2.304688 9.863281 2.8125 8.660156 C 3.328125 7.457031 4.039062 6.398438 4.945312 5.484375 C 5.851562 4.570312 6.90625 3.859375 8.109375 3.351562 C 9.3125 2.835938 10.605469 2.578125 11.988281 2.578125 C 13.371094 2.578125 14.664062 2.835938 15.867188 3.351562 C 17.078125 3.859375 18.136719 4.570312 19.042969 5.484375 C 19.957031 6.398438 20.671875 7.457031 21.1875 8.660156 C 21.703125 9.863281 21.960938 11.15625 21.960938 12.539062 C 21.960938 13.921875 21.703125 15.214844 21.1875 16.417969 C 20.679688 17.621094 19.96875 18.679688 19.054688 19.59375 C 18.140625 20.5 17.082031 21.210938 15.878906 21.726562 C 14.675781 22.242188 13.382812 22.5 12 22.5 Z M 8.296875 17.90625 C 8.59375 17.90625 8.824219 17.816406 8.988281 17.636719 C 9.160156 17.449219 9.246094 17.191406 9.246094 16.863281 L 9.246094 12.996094 L 14.730469 12.996094 L 14.730469 16.863281 C 14.730469 17.191406 14.8125 17.449219 14.976562 17.636719 C 15.140625 17.816406 15.363281 17.90625 15.644531 17.90625 C 15.949219 17.90625 16.183594 17.816406 16.347656 17.636719 C 16.511719 17.449219 16.59375 17.191406 16.59375 16.863281 L 16.59375 7.992188 C 16.59375 7.664062 16.511719 7.410156 16.347656 7.230469 C 16.183594 7.042969 15.949219 6.949219 15.644531 6.949219 C 15.363281 6.949219 15.140625 7.042969 14.976562 7.230469 C 14.8125 7.417969 14.730469 7.671875 14.730469 7.992188 L 14.730469 11.53125 L 9.246094 11.53125 L 9.246094 7.992188 C 9.246094 7.664062 9.160156 7.410156 8.988281 7.230469 C 8.824219 7.042969 8.59375 6.949219 8.296875 6.949219 C 8.007812 6.949219 7.78125 7.042969 7.617188 7.230469 C 7.453125 7.417969 7.371094 7.671875 7.371094 7.992188 L 7.371094 16.863281 C 7.371094 17.191406 7.453125 17.449219 7.617188 17.636719 C 7.78125 17.816406 8.007812 17.90625 8.296875 17.90625 Z M 8.296875 17.90625 "/>
</g>
</svg>
