<?xml version="1.0" encoding="UTF-8"?>
<svg xmlns="http://www.w3.org/2000/svg" xmlns:xlink="http://www.w3.org/1999/xlink" width="24" height="22.666667" viewBox="0 0 24 22.666667" version="1.1">
<g id="surface1">
<path style=" stroke:none;fill-rule:nonzero;fill:rgb(100%,100%,100%);fill-opacity:1;" d="M 14.707031 0.25 L 4.25 0.25 C 3.160156 0.25 2.339844 0.519531 1.792969 1.0625 C 1.25 1.597656 0.980469 2.402344 0.980469 3.480469 L 0.980469 14.011719 C 0.980469 15.085938 1.25 15.894531 1.792969 16.4375 C 2.339844 16.972656 3.160156 17.238281 4.25 17.238281 L 14.707031 17.238281 C 15.796875 17.238281 16.613281 16.972656 17.15625 16.4375 C 17.699219 15.894531 17.96875 15.085938 17.96875 14.011719 L 17.96875 3.480469 C 17.96875 2.402344 17.699219 1.597656 17.15625 1.0625 C 16.613281 0.519531 15.796875 0.25 14.707031 0.25 Z M 23.019531 8.292969 C 23.019531 7.222656 22.75 6.421875 22.207031 5.886719 C 21.667969 5.34375 20.851562 5.074219 19.761719 5.074219 L 19.394531 5.074219 L 19.394531 14.011719 C 19.394531 14.996094 19.207031 15.835938 18.832031 16.53125 C 18.464844 17.21875 17.929688 17.746094 17.230469 18.113281 C 16.535156 18.484375 15.695312 18.667969 14.707031 18.667969 L 6.03125 18.667969 L 6.03125 18.832031 C 6.03125 19.910156 6.300781 20.714844 6.84375 21.25 C 7.390625 21.792969 8.210938 22.0625 9.300781 22.0625 L 19.761719 22.0625 C 20.851562 22.0625 21.667969 21.792969 22.207031 21.25 C 22.75 20.714844 23.019531 19.910156 23.019531 18.832031 Z M 6.09375 13.675781 C 5.824219 13.675781 5.609375 13.59375 5.457031 13.425781 C 5.3125 13.253906 5.238281 13.015625 5.238281 12.707031 L 5.238281 4.59375 C 5.238281 4.289062 5.3125 4.050781 5.457031 3.886719 C 5.609375 3.710938 5.824219 3.625 6.09375 3.625 C 6.371094 3.625 6.585938 3.710938 6.738281 3.886719 C 6.890625 4.050781 6.96875 4.289062 6.96875 4.59375 L 6.96875 7.824219 L 11.988281 7.824219 L 11.988281 4.59375 C 11.988281 4.289062 12.0625 4.050781 12.207031 3.886719 C 12.359375 3.710938 12.570312 3.625 12.832031 3.625 C 13.117188 3.625 13.332031 3.710938 13.480469 3.886719 C 13.632812 4.050781 13.707031 4.289062 13.707031 4.59375 L 13.707031 12.707031 C 13.707031 13.019531 13.632812 13.261719 13.480469 13.425781 C 13.332031 13.59375 13.117188 13.675781 12.832031 13.675781 C 12.570312 13.675781 12.359375 13.59375 12.207031 13.425781 C 12.0625 13.253906 11.988281 13.015625 11.988281 12.707031 L 11.988281 9.175781 L 6.96875 9.175781 L 6.96875 12.707031 C 6.96875 13.019531 6.890625 13.261719 6.738281 13.425781 C 6.585938 13.59375 6.371094 13.675781 6.09375 13.675781 Z M 6.09375 13.675781 "/>
</g>
</svg>
