<?xml version="1.0" encoding="UTF-8"?>
<svg xmlns="http://www.w3.org/2000/svg" xmlns:xlink="http://www.w3.org/1999/xlink" width="24" height="25.5" viewBox="0 0 24 25.5" version="1.1">
<g id="surface1">
<path style=" stroke:none;fill-rule:nonzero;fill:rgb(100%,100%,100%);fill-opacity:1;" d="M 12 24.503906 C 13.632812 24.503906 15.167969 24.191406 16.605469 23.566406 C 18.050781 22.941406 19.324219 22.078125 20.425781 20.976562 C 21.527344 19.875 22.390625 18.605469 23.015625 17.167969 C 23.640625 15.722656 23.953125 14.183594 23.953125 12.550781 C 23.953125 10.917969 23.640625 9.382812 23.015625 7.945312 C 22.390625 6.5 21.527344 5.226562 20.425781 4.125 C 19.324219 3.023438 18.050781 2.160156 16.605469 1.535156 C 15.160156 0.910156 13.621094 0.597656 11.988281 0.597656 C 10.355469 0.597656 8.816406 0.910156 7.371094 1.535156 C 5.933594 2.160156 4.664062 3.023438 3.5625 4.125 C 2.46875 5.226562 1.609375 6.5 0.984375 7.945312 C 0.359375 9.382812 0.046875 10.917969 0.046875 12.550781 C 0.046875 14.183594 0.359375 15.722656 0.984375 17.167969 C 1.609375 18.605469 2.472656 19.875 3.574219 20.976562 C 4.675781 22.078125 5.945312 22.941406 7.382812 23.566406 C 8.828125 24.191406 10.367188 24.503906 12 24.503906 Z M 6.46875 18.9375 L 5.449219 17.917969 C 5.167969 17.636719 5.039062 17.347656 5.0625 17.050781 C 5.085938 16.753906 5.257812 16.460938 5.578125 16.171875 L 12.09375 10.488281 L 13.945312 12.316406 L 8.214844 18.832031 C 7.941406 19.152344 7.652344 19.320312 7.347656 19.335938 C 7.042969 19.351562 6.75 19.21875 6.46875 18.9375 Z M 17.449219 13.628906 L 17.003906 13.195312 C 16.886719 13.085938 16.8125 12.984375 16.78125 12.890625 C 16.75 12.789062 16.742188 12.671875 16.757812 12.539062 L 16.828125 11.824219 L 16.371094 11.355469 L 15.386719 11.554688 C 14.988281 11.625 14.675781 11.542969 14.449219 11.308594 L 13.078125 9.949219 C 12.734375 9.605469 12.65625 9.1875 12.84375 8.695312 L 13.3125 7.441406 C 12.867188 7.175781 12.378906 7.046875 11.847656 7.054688 C 11.324219 7.054688 10.761719 7.144531 10.160156 7.324219 C 10.058594 7.371094 9.953125 7.378906 9.84375 7.347656 C 9.742188 7.316406 9.648438 7.265625 9.5625 7.195312 C 9.476562 7.09375 9.429688 6.96875 9.421875 6.820312 C 9.414062 6.664062 9.484375 6.507812 9.632812 6.351562 C 10.21875 5.765625 10.921875 5.390625 11.742188 5.226562 C 12.5625 5.0625 13.378906 5.089844 14.191406 5.308594 C 15.011719 5.527344 15.707031 5.921875 16.277344 6.492188 L 17.507812 7.722656 C 17.960938 8.160156 18.132812 8.601562 18.023438 9.046875 L 17.8125 9.914062 L 18.28125 10.359375 L 18.996094 10.289062 C 19.136719 10.273438 19.25 10.28125 19.335938 10.3125 C 19.421875 10.34375 19.527344 10.421875 19.652344 10.546875 L 20.109375 10.992188 C 20.234375 11.125 20.300781 11.265625 20.308594 11.414062 C 20.316406 11.554688 20.257812 11.683594 20.132812 11.800781 L 18.28125 13.640625 C 18.148438 13.765625 18.007812 13.824219 17.859375 13.816406 C 17.71875 13.808594 17.582031 13.746094 17.449219 13.628906 Z M 17.449219 13.628906 "/>
</g>
</svg>
