<svg width="115" height="114" viewBox="0 0 115 114" fill="none" xmlns="http://www.w3.org/2000/svg">
<path d="M32 69.0625V34.25C32 33.125 32.4167 32.1458 33.25 31.3125C34.0833 30.4792 35.0833 30.0625 36.25 30.0625C37.3333 30.0625 38.2917 30.4792 39.125 31.3125C39.9583 32.1458 40.375 33.125 40.375 34.25V56.125C40.8333 55.8333 41.3125 55.5417 41.8125 55.25C42.3125 54.9583 42.8542 54.6875 43.4375 54.4375V22.5C43.4375 21.375 43.8333 20.4167 44.625 19.625C45.4583 18.8333 46.4375 18.4375 47.5625 18.4375C48.6875 18.4375 49.6667 18.8333 50.5 19.625C51.3333 20.4167 51.75 21.375 51.75 22.5V51.75C52.2917 51.6667 52.8333 51.6042 53.375 51.5625C53.9167 51.4792 54.4583 51.3958 55 51.3125V19.3125C55 18.2292 55.3958 17.2708 56.1875 16.4375C56.9792 15.6042 57.9583 15.1875 59.125 15.1875C60.2917 15.1875 61.2708 15.6042 62.0625 16.4375C62.8542 17.2708 63.25 18.2292 63.25 19.3125V51.6875C63.7917 51.8542 64.3125 52.0208 64.8125 52.1875C65.3542 52.3542 65.875 52.5 66.375 52.625V24.75C66.375 23.625 66.7708 22.6667 67.5625 21.875C68.3542 21.0417 69.3333 20.625 70.5 20.625C71.5833 20.625 72.5208 21.0417 73.3125 21.875C74.1458 22.6667 74.5625 23.625 74.5625 24.75V64C74.5625 64.5833 74.6667 65 74.875 65.25C75.125 65.5 75.4375 65.625 75.8125 65.625C76.1042 65.625 76.375 65.5208 76.625 65.3125C76.875 65.0625 77.125 64.6458 77.375 64.0625L82.625 53.0625C83.5 51.3125 84.3333 50.0417 85.125 49.25C85.9583 48.4167 87 48 88.25 48C89.3333 48 90.2292 48.3333 90.9375 49C91.6458 49.625 92 50.4583 92 51.5C92 52.375 91.7083 53.6667 91.125 55.375C90.5833 57.0833 90.0625 58.75 89.5625 60.375C88.8125 62.9167 88.0417 65.3542 87.25 67.6875C86.5 70.0208 85.7083 72.25 84.875 74.375C84.0417 76.4583 83.1458 78.4167 82.1875 80.25C79.6042 85.5833 76.3125 89.4583 72.3125 91.875C68.3542 94.25 63.5208 95.4375 57.8125 95.4375C52.7708 95.4375 48.2917 94.375 44.375 92.25C40.5 90.125 37.4583 87.1042 35.25 83.1875C33.0833 79.2292 32 74.5208 32 69.0625ZM107.375 7.375C104.167 4.16667 100.354 2.14583 95.9375 1.3125C91.5208 0.4375 86.6458 0 81.3125 0H34.125C28.875 0 24.0417 0.4375 19.625 1.3125C15.25 2.14583 11.4583 4.16667 8.25 7.375C5.08333 10.5417 3.0625 14.3125 2.1875 18.6875C1.35417 23.0625 0.9375 27.875 0.9375 33.125V80.375C0.9375 85.7083 1.35417 90.5833 2.1875 95C3.02083 99.375 5.04167 103.146 8.25 106.312C11.4583 109.521 15.25 111.542 19.625 112.375C24.0417 113.25 28.9167 113.688 34.25 113.688H81.3125C86.6458 113.688 91.5208 113.25 95.9375 112.375C100.354 111.542 104.167 109.521 107.375 106.312C110.542 103.146 112.542 99.375 113.375 95C114.25 90.5833 114.688 85.7083 114.688 80.375V33.3125C114.688 27.9792 114.25 23.125 113.375 18.75C112.542 14.3333 110.542 10.5417 107.375 7.375Z" fill="white"/>
</svg>
