<svg xmlns="http://www.w3.org/2000/svg" width="24" height="24"><path style="stroke:none;fill-rule:nonzero;fill:#fff;fill-opacity:1" d="M13.078 23.25c1.047 0 1.988-.113 2.824-.332a7.351 7.351 0 0 0 2.25-1L5.04 10.262v5.675c0 1.153.2 2.18.598 3.083a6.446 6.446 0 0 0 1.676 2.293 7.324 7.324 0 0 0 2.542 1.437c.985.332 2.06.5 3.223.5Zm7.934-4.668c.07-.125.136-.254.199-.395.07-.136.129-.28.176-.425.281-.64.55-1.309.808-2.012.38-1.04.746-2.082 1.102-3.125.117-.328.215-.629.293-.906.086-.278.129-.5.129-.668a.834.834 0 0 0-.317-.676c-.203-.172-.472-.262-.808-.262-.367 0-.68.114-.938.336-.25.223-.511.578-.785 1.07l-1.629 3.043a.919.919 0 0 1-.258.356.475.475 0 0 1-.586 0c-.07-.078-.105-.207-.105-.387V3.605c0-.308-.125-.566-.375-.785a1.261 1.261 0 0 0-.879-.332c-.344 0-.64.114-.89.336a1.003 1.003 0 0 0-.364.781v7.813a5.881 5.881 0 0 0-1.043-.25V2.105c0-.312-.125-.578-.375-.792a1.261 1.261 0 0 0-.879-.333 1.32 1.32 0 0 0-.902.333c-.242.214-.363.48-.363.792v8.313c-.067.004-.133.012-.2.02a.784.784 0 0 0-.164.019ZM8.613 7.562l2.508 2.239V2.988a.996.996 0 0 0-.375-.781 1.261 1.261 0 0 0-.879-.332c-.344 0-.64.11-.89.332a.997.997 0 0 0-.364.781ZM5.977 5.239l1.582 1.399V6.23c0-.308-.125-.566-.375-.785a1.261 1.261 0 0 0-.88-.332.59.59 0 0 0-.187.032.443.443 0 0 0-.14.093ZM21.82 23.375a.91.91 0 0 0 .633.23.94.94 0 0 0 .645-.23.758.758 0 0 0 0-1.137L2.273 3.738a.925.925 0 0 0-.644-.226.962.962 0 0 0-.645.226.758.758 0 0 0-.246.575c0 .222.082.41.246.562Zm0 0"/></svg>