<svg width="16" height="18" viewBox="0 0 16 18" fill="none" xmlns="http://www.w3.org/2000/svg">
<path d="M8.71875 17.4375C9.41667 17.4375 10.0443 17.3542 10.6016 17.1875C11.1641 17.0208 11.6641 16.7708 12.1016 16.4375L3.35938 7.69531V11.9531C3.35938 12.8177 3.49219 13.5885 3.75781 14.2656C4.02344 14.9427 4.39583 15.5156 4.875 15.9844C5.35417 16.4583 5.91927 16.8177 6.57031 17.0625C7.22656 17.3125 7.94271 17.4375 8.71875 17.4375ZM14.0078 13.9375C14.0547 13.8438 14.099 13.7448 14.1406 13.6406C14.1875 13.5365 14.2266 13.4297 14.2578 13.3203C14.4453 12.8411 14.625 12.3385 14.7969 11.8125C14.9688 11.2812 15.1432 10.7292 15.3203 10.1562C15.388 9.9375 15.4583 9.70833 15.5312 9.46875C15.6094 9.22396 15.6745 8.9974 15.7266 8.78906C15.7839 8.58073 15.8125 8.41406 15.8125 8.28906C15.8125 8.08073 15.7422 7.91146 15.6016 7.78125C15.4661 7.65104 15.2865 7.58594 15.0625 7.58594C14.8177 7.58594 14.6094 7.66927 14.4375 7.83594C14.2708 8.0026 14.0964 8.27083 13.9141 8.64062L12.8281 10.9219C12.776 11.0469 12.7188 11.1354 12.6562 11.1875C12.5938 11.2396 12.5312 11.2656 12.4688 11.2656C12.3854 11.2656 12.3177 11.2396 12.2656 11.1875C12.2188 11.1302 12.1953 11.0339 12.1953 10.8984V2.70312C12.1953 2.47396 12.112 2.27865 11.9453 2.11719C11.7839 1.95052 11.5885 1.86719 11.3594 1.86719C11.1302 1.86719 10.9323 1.95052 10.7656 2.11719C10.6042 2.27865 10.5234 2.47396 10.5234 2.70312V8.5625C10.4141 8.52083 10.3021 8.48438 10.1875 8.45312C10.0729 8.42188 9.95312 8.39583 9.82812 8.375V1.57812C9.82812 1.34375 9.74479 1.14583 9.57812 0.984375C9.41667 0.817708 9.22135 0.734375 8.99219 0.734375C8.75781 0.734375 8.55729 0.817708 8.39062 0.984375C8.22917 1.14583 8.14844 1.34375 8.14844 1.57812V7.8125C8.09115 7.81771 8.04688 7.82292 8.01562 7.82812C7.98438 7.82812 7.94792 7.83333 7.90625 7.84375L14.0078 13.9375ZM5.74219 5.67188L7.41406 7.35156V2.24219C7.41406 2.01302 7.33073 1.81771 7.16406 1.65625C7.0026 1.48958 6.80729 1.40625 6.57812 1.40625C6.34896 1.40625 6.15104 1.48958 5.98438 1.65625C5.82292 1.81771 5.74219 2.01302 5.74219 2.24219V5.67188ZM3.98438 3.92969L5.03906 4.97656V4.67188C5.03906 4.44271 4.95573 4.2474 4.78906 4.08594C4.6276 3.91927 4.43229 3.83594 4.20312 3.83594C4.15625 3.83594 4.11458 3.84375 4.07812 3.85938C4.04167 3.875 4.01042 3.89844 3.98438 3.92969ZM14.5469 17.5312C14.6615 17.6458 14.8021 17.7031 14.9688 17.7031C15.1406 17.7031 15.2839 17.6458 15.3984 17.5312C15.513 17.4115 15.5703 17.2682 15.5703 17.1016C15.5703 16.9349 15.513 16.7943 15.3984 16.6797L1.51562 2.80469C1.40104 2.6901 1.25781 2.63281 1.08594 2.63281C0.919271 2.63281 0.776042 2.6901 0.65625 2.80469C0.546875 2.91927 0.492188 3.0625 0.492188 3.23438C0.492188 3.40104 0.546875 3.54167 0.65625 3.65625L14.5469 17.5312Z" fill="white"/>
</svg>
