<svg width="125" height="139" viewBox="0 0 125 139" fill="none" xmlns="http://www.w3.org/2000/svg">
<path d="M66.6875 136.312C77.1042 136.312 85.9792 133.646 93.3125 128.312L87.125 122.188C84.125 124.021 80.875 125.375 77.375 126.25C73.9167 127.167 70.25 127.625 66.375 127.625C59 127.625 52.6458 126.083 47.3125 123C42.0208 119.958 37.9375 115.521 35.0625 109.688C32.1875 103.812 30.75 96.6875 30.75 88.3125V65.9375L22.5 57.6875V89.3125C22.5 99.0625 24.3333 107.458 28 114.5C31.7083 121.5 36.875 126.875 43.5 130.625C50.125 134.417 57.8542 136.312 66.6875 136.312ZM102.625 103.5L108.75 109.625C109.417 108.292 110.062 106.896 110.688 105.438C111.312 103.979 111.896 102.479 112.438 100.938L123.438 70C124.188 67.9167 124.562 65.9167 124.562 64C124.521 60.9167 123.458 58.2708 121.375 56.0625C119.333 53.8542 116.5 52.75 112.875 52.75C110.833 52.75 108.917 53.375 107.125 54.625C105.333 55.875 103.917 57.75 102.875 60.25L98.8125 70.1875C98.6875 70.4792 98.5 70.625 98.25 70.625C97.9583 70.625 97.8125 70.4375 97.8125 70.0625V19.9375C97.8125 16.3125 96.75 13.4375 94.625 11.3125C92.5417 9.14583 89.75 8.0625 86.25 8.0625C84.9583 8.0625 83.75 8.29167 82.625 8.75C81.5 9.16667 80.5 9.79167 79.625 10.625C79.2083 7.41667 78.0208 4.89583 76.0625 3.0625C74.1042 1.1875 71.5833 0.25 68.5 0.25C65.4583 0.25 62.9375 1.1875 60.9375 3.0625C58.9375 4.9375 57.7083 7.41667 57.25 10.5C55.625 8.875 53.6042 8.0625 51.1875 8.0625C47.9375 8.0625 45.3125 9.10417 43.3125 11.1875C41.3542 13.2708 40.375 16.0417 40.375 19.5V26.5C39.5417 25.5833 38.5208 24.8958 37.3125 24.4375C36.1042 23.9792 34.8333 23.75 33.5 23.75C31.9583 23.75 30.5625 24.0625 29.3125 24.6875C28.1042 25.3125 27.125 26.1667 26.375 27.25L33.125 34V33.5625C33.2083 33.0625 33.4167 32.6667 33.75 32.375C34.0833 32.0833 34.5208 31.9375 35.0625 31.9375C36.3542 31.9375 37.4167 32.375 38.25 33.25C39.0833 34.0833 39.5 35.1667 39.5 36.5V40.375L47.4375 48.375V20.625C47.4375 19.2917 47.8125 18.2083 48.5625 17.375C49.3542 16.5417 50.3958 16.125 51.6875 16.125C52.9792 16.125 54.0417 16.5417 54.875 17.375C55.7083 18.2083 56.125 19.2917 56.125 20.625V57L64.0625 64.9375V12.9375C64.0625 11.6042 64.4792 10.5 65.3125 9.625C66.1458 8.75 67.2083 8.3125 68.5 8.3125C69.75 8.3125 70.7708 8.75 71.5625 9.625C72.3958 10.5 72.8125 11.6042 72.8125 12.9375V65.25C72.8125 66.3333 73.1875 67.25 73.9375 68C74.7292 68.7083 75.6667 69.0625 76.75 69.0625C77.8333 69.0625 78.7708 68.7083 79.5625 68C80.3542 67.25 80.75 66.3333 80.75 65.25V20.625C80.75 19.2917 81.1458 18.2083 81.9375 17.375C82.7708 16.5417 83.8333 16.125 85.125 16.125C86.4167 16.125 87.4583 16.5417 88.25 17.375C89.0833 18.2083 89.5 19.2917 89.5 20.625V82.1875C89.5 83.6042 89.9167 84.7917 90.75 85.75C91.5833 86.6667 92.6458 87.125 93.9375 87.125C95.0625 87.125 96.0833 86.8333 97 86.25C97.9583 85.625 98.7917 84.5417 99.5 83L108.312 63.375C108.938 61.9167 109.75 60.8958 110.75 60.3125C111.792 59.7292 112.896 59.6458 114.062 60.0625C115.271 60.4375 116.062 61.2083 116.438 62.375C116.812 63.5 116.729 64.875 116.188 66.5L104.812 98.3125C104.479 99.2292 104.125 100.125 103.75 101C103.417 101.875 103.042 102.708 102.625 103.5ZM112.562 137.25C113.479 138.167 114.604 138.625 115.938 138.625C117.312 138.625 118.458 138.167 119.375 137.25C120.292 136.292 120.75 135.146 120.75 133.812C120.75 132.479 120.292 131.354 119.375 130.438L8.3125 19.4375C7.39583 18.5208 6.25 18.0625 4.875 18.0625C3.54167 18.0625 2.39583 18.5208 1.4375 19.4375C0.5625 20.3542 0.125 21.5 0.125 22.875C0.125 24.2083 0.5625 25.3333 1.4375 26.25L112.562 137.25Z" fill="white"/>
</svg>
