<svg width="135" height="104" viewBox="0 0 135 104" fill="none" xmlns="http://www.w3.org/2000/svg">
<path d="M134.375 59.5C134.375 52.5417 133.083 46.0208 130.5 39.9375C127.958 33.8125 123.917 28.375 118.375 23.625C112.833 18.8333 105.625 14.9167 96.75 11.875L65 1.3125C64.4583 1.10417 63.875 0.9375 63.25 0.8125C62.6667 0.645833 62 0.5625 61.25 0.5625C59.375 0.5625 57.7708 1.25 56.4375 2.625C55.1042 3.95833 54.4375 5.75 54.4375 8C54.4375 9.45833 54.8125 10.75 55.5625 11.875C56.3542 12.9583 57.5833 13.8542 59.25 14.5625L82 24.25C83.6667 24.9167 84.5 25.8333 84.5 27C84.5 27.5833 84.25 28.125 83.75 28.625C83.2917 29.0833 82.625 29.3125 81.75 29.3125H8.8125C6.39583 29.3125 4.4375 30 2.9375 31.375C1.47917 32.75 0.75 34.5417 0.75 36.75C0.75 38.7917 1.47917 40.5208 2.9375 41.9375C4.4375 43.3542 6.39583 44.0625 8.8125 44.0625H58.625C59.9583 44.0625 60.9375 44.3542 61.5625 44.9375C62.2292 45.5208 62.5625 46.25 62.5625 47.125C62.5625 47.9167 62.2292 48.6042 61.5625 49.1875C60.9375 49.7708 59.9583 50.0625 58.625 50.0625H43.75C41.5 50.0625 40.375 51.3333 40.375 53.875C40.375 56.7083 41.2917 59.1042 43.125 61.0625C44.9583 63.0208 47.7708 64 51.5625 64H58.625C59.9583 64 60.9375 64.2917 61.5625 64.875C62.2292 65.4583 62.5625 66.1875 62.5625 67.0625C62.5625 67.8542 62.2292 68.5417 61.5625 69.125C60.9375 69.7083 59.9583 70 58.625 70H51C48.7917 70 47.6875 71.2708 47.6875 73.8125C47.6875 76.7708 48.7083 79.2083 50.75 81.125C52.7917 83.0417 55.5208 84 58.9375 84H62.5625C63.8958 84 64.875 84.3125 65.5 84.9375C66.1667 85.5208 66.5 86.2292 66.5 87.0625C66.5 87.8542 66.1667 88.5417 65.5 89.125C64.875 89.7083 63.8958 90 62.5625 90H57C55.5833 90 54.875 90.7292 54.875 92.1875C54.875 94.2708 55.625 96.2083 57.125 98C58.625 99.7917 60.7708 101.229 63.5625 102.312C66.3542 103.438 69.6667 104 73.5 104H86C96.2083 104 104.917 102.271 112.125 98.8125C119.333 95.3542 124.833 90.3125 128.625 83.6875C132.458 77.0625 134.375 69 134.375 59.5Z" fill="white"/>
</svg>
