<svg width="14" height="17" viewBox="0 0 14 17" fill="none" xmlns="http://www.w3.org/2000/svg">
<path d="M6.13281 0.179688C5.03385 0.179688 4.07031 0.416667 3.24219 0.890625C2.41406 1.35938 1.76823 2.03385 1.30469 2.91406C0.846354 3.78906 0.617188 4.83594 0.617188 6.05469V7.75781C0.617188 8.65885 0.817708 9.36198 1.21875 9.86719C1.625 10.3672 2.19271 10.6224 2.92188 10.6328C3.01042 10.9193 3.16667 11.1458 3.39062 11.3125C3.61979 11.474 3.89844 11.5547 4.22656 11.5547C4.45052 11.5547 4.67708 11.5156 4.90625 11.4375C5.01042 11.7552 5.1849 12.0052 5.42969 12.1875C5.67448 12.3646 5.96615 12.4531 6.30469 12.4531C6.49219 12.4531 6.67708 12.4271 6.85938 12.375V14.9766C6.85938 15.4661 7.00521 15.862 7.29688 16.1641C7.59375 16.4661 7.97396 16.6172 8.4375 16.6172C8.90104 16.6172 9.28125 16.4661 9.57812 16.1641C9.875 15.862 10.0234 15.4661 10.0234 14.9766V8.45312C10.0234 8.40625 10.0443 8.38281 10.0859 8.38281C10.1172 8.38281 10.138 8.40104 10.1484 8.4375L10.6719 9.6875C10.8021 9.99479 10.9766 10.2292 11.1953 10.3906C11.4193 10.5469 11.6693 10.625 11.9453 10.625C12.3255 10.625 12.6589 10.5104 12.9453 10.2812C13.2318 10.0469 13.375 9.71354 13.375 9.28125C13.375 9.16667 13.362 9.03646 13.3359 8.89062C13.3151 8.73958 13.2812 8.59635 13.2344 8.46094L11.8594 4.59375C11.3385 3.13021 10.599 2.02865 9.64062 1.28906C8.68229 0.549479 7.51302 0.179688 6.13281 0.179688ZM6.09375 1.25781C7.1875 1.25781 8.14323 1.53646 8.96094 2.09375C9.77865 2.65104 10.4271 3.59635 10.9062 4.92969L12.2891 8.78906C12.3307 8.90885 12.3516 9.02604 12.3516 9.14062C12.3516 9.27604 12.3047 9.39583 12.2109 9.5C12.1172 9.59896 11.9922 9.64844 11.8359 9.64844C11.5964 9.64844 11.4167 9.50521 11.2969 9.21875L10.2344 6.84375C10.1458 6.65104 10.0417 6.51823 9.92188 6.44531C9.80729 6.36719 9.68229 6.32812 9.54688 6.32812C9.38021 6.32812 9.24479 6.38802 9.14062 6.50781C9.03646 6.6224 8.98438 6.76823 8.98438 6.94531V15.0469C8.98438 15.2135 8.93229 15.349 8.82812 15.4531C8.72917 15.5573 8.59896 15.6094 8.4375 15.6094C8.27604 15.6094 8.14583 15.5573 8.04688 15.4531C7.94792 15.349 7.89844 15.2135 7.89844 15.0469V9.26562C7.89844 9.125 7.84635 9.01042 7.74219 8.92188C7.64323 8.82812 7.52604 8.78125 7.39062 8.78125C7.26042 8.78125 7.14583 8.82812 7.04688 8.92188C6.95312 9.01042 6.90625 9.125 6.90625 9.26562V11.3438C6.76042 11.4115 6.60417 11.4453 6.4375 11.4453C6.24479 11.4453 6.09115 11.388 5.97656 11.2734C5.86719 11.1536 5.8125 10.9896 5.8125 10.7812V8.96875C5.8125 8.82292 5.76042 8.70573 5.65625 8.61719C5.55729 8.52865 5.44271 8.48438 5.3125 8.48438C5.18229 8.48438 5.06771 8.52865 4.96875 8.61719C4.86979 8.70573 4.82031 8.82292 4.82031 8.96875V10.4453C4.67448 10.513 4.52083 10.5469 4.35938 10.5469C4.16146 10.5469 4.00781 10.487 3.89844 10.3672C3.78906 10.2474 3.73438 10.0859 3.73438 9.88281V8.66406C3.73438 8.52344 3.68229 8.40885 3.57812 8.32031C3.47917 8.23177 3.36198 8.1875 3.22656 8.1875C3.10156 8.1875 2.98958 8.23177 2.89062 8.32031C2.79167 8.40885 2.74219 8.52344 2.74219 8.66406V9.5625C2.39323 9.5625 2.1224 9.39323 1.92969 9.05469C1.74219 8.71094 1.64844 8.22656 1.64844 7.60156V6.17969C1.64844 5.13281 1.82552 4.24219 2.17969 3.50781C2.53906 2.77344 3.05208 2.21615 3.71875 1.83594C4.38542 1.45052 5.17708 1.25781 6.09375 1.25781Z" fill="white"/>
</svg>
