<svg xmlns="http://www.w3.org/2000/svg" width="24" height="24"><path style="stroke:none;fill-rule:nonzero;fill:#fff;fill-opacity:1" d="M7.031 14.262c0 1.058.2 1.972.598 2.738.398.766.95 1.36 1.652 1.777.711.407 1.524.61 2.438.61 1.039 0 1.918-.235 2.636-.7.727-.464 1.329-1.222 1.805-2.261a13.8 13.8 0 0 0 .48-1.137c.15-.41.294-.84.434-1.289.14-.457.281-.934.422-1.426.086-.308.176-.625.27-.949.101-.332.152-.586.152-.762a.656.656 0 0 0-.188-.488.662.662 0 0 0-.48-.188.756.756 0 0 0-.563.239c-.148.148-.3.394-.457.738l-.949 2.137a.676.676 0 0 1-.152.234.217.217 0 0 1-.14.067.187.187 0 0 1-.165-.079c-.039-.046-.058-.128-.058-.234V5.676a.775.775 0 0 0-.223-.563.695.695 0 0 0-.527-.238.718.718 0 0 0-.524.234.832.832 0 0 0-.215.567v5.398c-.093-.023-.187-.054-.28-.086a1.534 1.534 0 0 0-.294-.074V4.61a.789.789 0 0 0-.223-.558.67.67 0 0 0-.527-.239.682.682 0 0 0-.527.239.789.789 0 0 0-.223.558v6.215c-.094.016-.191.035-.293.051-.101.008-.203.02-.305.035V5.238a.748.748 0 0 0-.222-.55.71.71 0 0 0-.528-.239.71.71 0 0 0-.527.239.748.748 0 0 0-.223.55v6.188c-.109.05-.21.105-.304.16a8.088 8.088 0 0 1-.27.176v-4.25a.816.816 0 0 0-.222-.574.659.659 0 0 0-.516-.239c-.211 0-.39.078-.54.239a.816.816 0 0 0-.222.574ZM21.434 1.937a4.039 4.039 0 0 0-2.145-1.21 12.923 12.923 0 0 0-2.742-.262H7.418c-.984 0-1.89.086-2.719.262-.808.168-1.55.59-2.133 1.21A4.506 4.506 0 0 0 1.43 4.216a16.454 16.454 0 0 0-.235 2.887v9.636c0 1.075.078 2.051.235 2.926a4.39 4.39 0 0 0 1.136 2.273A4.058 4.058 0 0 0 4.7 23.148c.828.176 1.742.266 2.742.266h9.106c1 0 1.914-.09 2.742-.266a4.024 4.024 0 0 0 2.145-1.21 4.431 4.431 0 0 0 1.125-2.274c.164-.875.246-1.852.246-2.926V7.125c0-1.066-.082-2.035-.246-2.91a4.341 4.341 0 0 0-1.125-2.277Zm-.516 4.852v10.3c0 .641-.059 1.266-.176 1.888-.11.613-.34 1.109-.691 1.488-.352.383-.82.629-1.406.746a7.943 7.943 0 0 1-1.77.187h-9.75a8.541 8.541 0 0 1-1.781-.187c-.578-.117-1.047-.363-1.407-.746-.351-.38-.582-.875-.69-1.488a10.97 10.97 0 0 1-.165-1.891V6.828c0-.66.055-1.297.164-1.914.11-.625.34-1.129.692-1.512.351-.375.82-.62 1.406-.738a8.877 8.877 0 0 1 1.816-.187h9.715a8.35 8.35 0 0 1 1.77.187c.585.117 1.054.367 1.406.75.36.375.594.871.703 1.484.11.618.164 1.247.164 1.891Zm0 0"/></svg>