<svg width="99" height="128" viewBox="0 0 99 128" fill="none" xmlns="http://www.w3.org/2000/svg">
<path d="M56.3125 127.75C65.3542 127.75 73.0208 125.938 79.3125 122.312C85.6458 118.688 90.4583 113.438 93.75 106.562C97.0417 99.6875 98.6875 91.4167 98.6875 81.75V69.75C98.6875 66.0833 98.1667 62.9375 97.125 60.3125C96.0833 57.6458 94.7083 55.6042 93 54.1875C91.2917 52.7708 89.4375 52.0625 87.4375 52.0625C86.0625 52.0625 85.375 52.7292 85.375 54.0625V59.375C85.375 60.625 85.0833 61.5625 84.5 62.1875C83.9583 62.8125 83.3125 63.125 82.5625 63.125C81.7708 63.125 81.0833 62.8125 80.5 62.1875C79.9583 61.5625 79.6875 60.625 79.6875 59.375V55.875C79.6875 52.6667 78.75 50.0833 76.875 48.125C75.0417 46.1667 72.7292 45.1875 69.9375 45.1875C67.4792 45.1875 66.25 46.25 66.25 48.375V55.625C66.25 56.875 65.9792 57.8125 65.4375 58.4375C64.8958 59.0625 64.25 59.375 63.5 59.375C62.6667 59.375 61.9583 59.0625 61.375 58.4375C60.8333 57.8125 60.5625 56.875 60.5625 55.625V48.9375C60.5625 45.3125 59.625 42.625 57.75 40.875C55.9167 39.125 53.6458 38.25 50.9375 38.25C48.4792 38.25 47.25 39.3125 47.25 41.4375V55.625C47.25 56.875 46.9583 57.8125 46.375 58.4375C45.8333 59.0625 45.1875 59.375 44.4375 59.375C43.6458 59.375 42.9583 59.0625 42.375 58.4375C41.8333 57.8125 41.5625 56.875 41.5625 55.625V8.1875C41.5625 5.89583 40.8958 4.0625 39.5625 2.6875C38.2292 1.27083 36.5833 0.5625 34.625 0.5625C32.5 0.5625 30.7708 1.27083 29.4375 2.6875C28.1458 4.0625 27.5 5.89583 27.5 8.1875V77.625C27.5 78.5 27.2708 79.1667 26.8125 79.625C26.3958 80.0417 25.9167 80.25 25.375 80.25C24.2917 80.25 23.3958 79.4583 22.6875 77.875L13.5 56.1875C12.7917 54.6042 11.9167 53.4583 10.875 52.75C9.83333 52 8.60417 51.625 7.1875 51.625C5.0625 51.625 3.35417 52.2708 2.0625 53.5625C0.8125 54.8125 0.1875 56.3125 0.1875 58.0625C0.1875 58.8125 0.25 59.4792 0.375 60.0625C0.5 60.6458 0.645833 61.1875 0.8125 61.6875L10.9375 91.875C15.2292 104.625 21.3542 113.792 29.3125 119.375C37.3125 124.958 46.3125 127.75 56.3125 127.75Z" fill="white"/>
</svg>
