<?xml version="1.0" encoding="UTF-8"?>
<svg xmlns="http://www.w3.org/2000/svg" xmlns:xlink="http://www.w3.org/1999/xlink" width="24" height="27" viewBox="0 0 24 27" version="1.1">
<g id="surface1">
<path style=" stroke:none;fill-rule:nonzero;fill:rgb(100%,100%,100%);fill-opacity:1;" d="M 13.078125 26.15625 C 14.125 26.15625 15.066406 26.03125 15.902344 25.78125 C 16.746094 25.53125 17.496094 25.15625 18.152344 24.65625 L 5.039062 11.542969 L 5.039062 17.929688 C 5.039062 19.226562 5.238281 20.382812 5.636719 21.398438 C 6.035156 22.414062 6.59375 23.273438 7.3125 23.976562 C 8.03125 24.6875 8.878906 25.226562 9.855469 25.59375 C 10.839844 25.96875 11.914062 26.15625 13.078125 26.15625 Z M 21.011719 20.90625 C 21.082031 20.765625 21.148438 20.617188 21.210938 20.460938 C 21.28125 20.304688 21.339844 20.144531 21.386719 19.980469 C 21.667969 19.261719 21.9375 18.507812 22.195312 17.71875 C 22.453125 16.921875 22.714844 16.09375 22.980469 15.234375 C 23.082031 14.90625 23.1875 14.5625 23.296875 14.203125 C 23.414062 13.835938 23.511719 13.496094 23.589844 13.183594 C 23.675781 12.871094 23.71875 12.621094 23.71875 12.433594 C 23.71875 12.121094 23.613281 11.867188 23.402344 11.671875 C 23.199219 11.476562 22.929688 11.378906 22.59375 11.378906 C 22.226562 11.378906 21.914062 11.503906 21.65625 11.753906 C 21.40625 12.003906 21.144531 12.40625 20.871094 12.960938 L 19.242188 16.382812 C 19.164062 16.570312 19.078125 16.703125 18.984375 16.78125 C 18.890625 16.859375 18.796875 16.898438 18.703125 16.898438 C 18.578125 16.898438 18.476562 16.859375 18.398438 16.78125 C 18.328125 16.695312 18.292969 16.550781 18.292969 16.347656 L 18.292969 4.054688 C 18.292969 3.710938 18.167969 3.417969 17.917969 3.175781 C 17.675781 2.925781 17.382812 2.800781 17.039062 2.800781 C 16.695312 2.800781 16.398438 2.925781 16.148438 3.175781 C 15.90625 3.417969 15.785156 3.710938 15.785156 4.054688 L 15.785156 12.84375 C 15.621094 12.78125 15.453125 12.726562 15.28125 12.679688 C 15.109375 12.632812 14.929688 12.59375 14.742188 12.5625 L 14.742188 2.367188 C 14.742188 2.015625 14.617188 1.71875 14.367188 1.476562 C 14.125 1.226562 13.832031 1.101562 13.488281 1.101562 C 13.136719 1.101562 12.835938 1.226562 12.585938 1.476562 C 12.34375 1.71875 12.222656 2.015625 12.222656 2.367188 L 12.222656 11.71875 C 12.136719 11.726562 12.070312 11.734375 12.023438 11.742188 C 11.976562 11.742188 11.921875 11.75 11.859375 11.765625 Z M 8.613281 8.507812 L 11.121094 11.027344 L 11.121094 3.363281 C 11.121094 3.019531 10.996094 2.726562 10.746094 2.484375 C 10.503906 2.234375 10.210938 2.109375 9.867188 2.109375 C 9.523438 2.109375 9.226562 2.234375 8.976562 2.484375 C 8.734375 2.726562 8.613281 3.019531 8.613281 3.363281 Z M 5.976562 5.894531 L 7.558594 7.464844 L 7.558594 7.007812 C 7.558594 6.664062 7.433594 6.371094 7.183594 6.128906 C 6.941406 5.878906 6.648438 5.753906 6.304688 5.753906 C 6.234375 5.753906 6.171875 5.765625 6.117188 5.789062 C 6.0625 5.8125 6.015625 5.847656 5.976562 5.894531 Z M 21.820312 26.296875 C 21.992188 26.46875 22.203125 26.554688 22.453125 26.554688 C 22.710938 26.554688 22.925781 26.46875 23.097656 26.296875 C 23.269531 26.117188 23.355469 25.902344 23.355469 25.652344 C 23.355469 25.402344 23.269531 25.191406 23.097656 25.019531 L 2.273438 4.207031 C 2.101562 4.035156 1.886719 3.949219 1.628906 3.949219 C 1.378906 3.949219 1.164062 4.035156 0.984375 4.207031 C 0.820312 4.378906 0.738281 4.59375 0.738281 4.851562 C 0.738281 5.101562 0.820312 5.3125 0.984375 5.484375 Z M 21.820312 26.296875 "/>
</g>
</svg>
