<svg width="16" height="17" viewBox="0 0 16 17" fill="none" xmlns="http://www.w3.org/2000/svg">
<path d="M0.296875 11.1328C0.296875 11.9036 0.442708 12.612 0.734375 13.2578C1.03125 13.8984 1.4349 14.4115 1.94531 14.7969C2.45573 15.1875 3.03385 15.3828 3.67969 15.3828H5.05469C4.35156 14.8672 3.84375 14.237 3.53125 13.4922C3.22396 12.7474 3.07031 11.9349 3.07031 11.0547C3.07031 10.4036 3.14323 9.8151 3.28906 9.28906C3.4349 8.75781 3.61719 8.29167 3.83594 7.89062C4.0599 7.48438 4.28385 7.14062 4.50781 6.85938H3.39062C2.80729 6.85938 2.28125 7.04948 1.8125 7.42969C1.34896 7.80469 0.979167 8.3151 0.703125 8.96094C0.432292 9.60677 0.296875 10.3307 0.296875 11.1328ZM4.14844 11.0703C4.14844 11.7839 4.28125 12.4479 4.54688 13.0625C4.81771 13.6771 5.20573 14.2135 5.71094 14.6719C6.22135 15.1302 6.83854 15.487 7.5625 15.7422C8.28646 15.9974 9.10156 16.125 10.0078 16.125H11.0703C11.5755 16.125 12.013 16.1068 12.3828 16.0703C12.7526 16.0391 13.0417 15.9948 13.25 15.9375C13.5521 15.8594 13.8255 15.7214 14.0703 15.5234C14.3203 15.3307 14.4453 15.0495 14.4453 14.6797C14.4453 14.5286 14.4271 14.3958 14.3906 14.2812C14.3594 14.1719 14.3203 14.0755 14.2734 13.9922C14.2057 13.8828 14.2214 13.8099 14.3203 13.7734C14.5599 13.6745 14.7656 13.5156 14.9375 13.2969C15.1146 13.0729 15.2031 12.8073 15.2031 12.5C15.2031 12.1458 15.112 11.8542 14.9297 11.625C14.8359 11.5 14.8594 11.3984 15 11.3203C15.1719 11.2161 15.3125 11.0625 15.4219 10.8594C15.5365 10.6562 15.5938 10.4271 15.5938 10.1719C15.5938 9.98958 15.5651 9.8125 15.5078 9.64062C15.4505 9.46354 15.3724 9.32812 15.2734 9.23438C15.1693 9.14062 15.1771 9.03906 15.2969 8.92969C15.4167 8.82552 15.513 8.6875 15.5859 8.51562C15.6589 8.34375 15.6953 8.14844 15.6953 7.92969C15.6953 7.67969 15.6354 7.45052 15.5156 7.24219C15.3958 7.03385 15.2344 6.86979 15.0312 6.75C14.8281 6.625 14.5964 6.5625 14.3359 6.5625H11.5859C11.2422 6.5625 10.9635 6.47917 10.75 6.3125C10.5365 6.14583 10.4297 5.91667 10.4297 5.625C10.4297 5.36458 10.4948 5.0599 10.625 4.71094C10.7552 4.35677 10.9062 3.98177 11.0781 3.58594C11.25 3.1901 11.401 2.79427 11.5312 2.39844C11.6667 2.0026 11.7344 1.63281 11.7344 1.28906C11.7344 0.924479 11.6302 0.643229 11.4219 0.445312C11.2188 0.242188 10.9635 0.140625 10.6562 0.140625C10.375 0.140625 10.1536 0.229167 9.99219 0.40625C9.83073 0.583333 9.67448 0.817708 9.52344 1.10938C8.94531 2.23438 8.29948 3.26302 7.58594 4.19531C6.8724 5.1224 6.22135 5.97656 5.63281 6.75781C5.29948 7.20052 5.02083 7.63542 4.79688 8.0625C4.57812 8.48958 4.41406 8.94531 4.30469 9.42969C4.20052 9.91406 4.14844 10.4609 4.14844 11.0703Z" fill="white"/>
</svg>
