<?xml version="1.0" encoding="UTF-8"?>
<svg xmlns="http://www.w3.org/2000/svg" xmlns:xlink="http://www.w3.org/1999/xlink" width="24" height="18.666667" viewBox="0 0 24 18.666667" version="1.1">
<g id="surface1">
<path style=" stroke:none;fill-rule:nonzero;fill:rgb(100%,100%,100%);fill-opacity:1;" d="M 0.730469 11.113281 C 0.730469 12.699219 1.046875 14.042969 1.675781 15.144531 C 2.316406 16.25 3.234375 17.089844 4.4375 17.667969 C 5.644531 18.242188 7.097656 18.53125 8.792969 18.53125 L 10.886719 18.53125 C 11.523438 18.53125 12.074219 18.4375 12.53125 18.25 C 12.996094 18.070312 13.355469 17.828125 13.605469 17.53125 C 13.855469 17.234375 13.980469 16.910156 13.980469 16.5625 C 13.980469 16.320312 13.859375 16.199219 13.625 16.199219 L 12.699219 16.199219 C 12.484375 16.199219 12.320312 16.148438 12.207031 16.050781 C 12.105469 15.953125 12.050781 15.839844 12.050781 15.707031 C 12.050781 15.570312 12.105469 15.453125 12.207031 15.355469 C 12.320312 15.25 12.484375 15.199219 12.699219 15.199219 L 13.3125 15.199219 C 13.875 15.199219 14.328125 15.039062 14.667969 14.71875 C 15.007812 14.398438 15.175781 13.992188 15.175781 13.5 C 15.175781 13.078125 14.992188 12.863281 14.625 12.863281 L 13.363281 12.863281 C 13.136719 12.863281 12.964844 12.816406 12.855469 12.71875 C 12.75 12.621094 12.699219 12.507812 12.699219 12.375 C 12.699219 12.230469 12.75 12.109375 12.855469 12.011719 C 12.964844 11.914062 13.136719 11.863281 13.363281 11.863281 L 14.53125 11.863281 C 15.164062 11.863281 15.632812 11.703125 15.9375 11.375 C 16.242188 11.046875 16.394531 10.648438 16.394531 10.175781 C 16.394531 9.753906 16.207031 9.542969 15.832031 9.542969 L 13.363281 9.542969 C 13.136719 9.542969 12.964844 9.492188 12.855469 9.394531 C 12.75 9.296875 12.699219 9.183594 12.699219 9.050781 C 12.699219 8.90625 12.75 8.785156 12.855469 8.6875 C 12.964844 8.589844 13.136719 8.542969 13.363281 8.542969 L 21.65625 8.542969 C 22.058594 8.542969 22.382812 8.421875 22.625 8.1875 C 22.875 7.953125 23 7.664062 23 7.324219 C 23 6.953125 22.875 6.65625 22.625 6.425781 C 22.382812 6.199219 22.058594 6.082031 21.65625 6.082031 L 9.5 6.082031 C 9.355469 6.082031 9.238281 6.046875 9.15625 5.96875 C 9.078125 5.886719 9.042969 5.796875 9.042969 5.699219 C 9.042969 5.503906 9.179688 5.351562 9.457031 5.238281 L 13.25 3.625 C 13.527344 3.507812 13.730469 3.359375 13.855469 3.175781 C 13.984375 2.988281 14.050781 2.773438 14.050781 2.53125 C 14.050781 2.15625 13.941406 1.859375 13.71875 1.636719 C 13.503906 1.40625 13.238281 1.292969 12.925781 1.292969 C 12.796875 1.292969 12.675781 1.304688 12.574219 1.332031 C 12.476562 1.355469 12.382812 1.382812 12.292969 1.417969 L 7 3.175781 C 5.519531 3.683594 4.320312 4.335938 3.394531 5.136719 C 2.472656 5.925781 1.796875 6.832031 1.363281 7.855469 C 0.941406 8.867188 0.730469 9.953125 0.730469 11.113281 Z M 0.730469 11.113281 "/>
</g>
</svg>
