<svg xmlns="http://www.w3.org/2000/svg" width="24" height="24"><path style="stroke:none;fill-rule:nonzero;fill:#fff;fill-opacity:1" d="M10.594 16.266V10.82c0-.175.058-.328.176-.449a.586.586 0 0 1 .449-.191c.16 0 .297.062.418.191a.598.598 0 0 1 .187.45v3.421c.067-.047.137-.094.207-.133a.716.716 0 0 1 .25-.125V9c0-.18.059-.328.176-.453a.576.576 0 0 1 .43-.195.56.56 0 0 1 .425.195c.114.121.18.285.176.453v4.566c.086-.015.168-.023.25-.035.086-.015.164-.023.242-.031V8.492c0-.172.063-.336.18-.457a.57.57 0 0 1 .434-.18.57.57 0 0 1 .426.184c.12.125.18.277.18.453v5.063c.073.027.152.054.226.078.086.02.156.043.219.066V9.33c0-.177.058-.321.18-.442a.61.61 0 0 1 .445-.184c.16 0 .3.059.418.184a.59.59 0 0 1 .187.445v6.129c0 .176.059.266.176.266.05 0 .09-.02.125-.055a.491.491 0 0 0 .105-.2l.782-1.706c.132-.282.257-.48.375-.61a.602.602 0 0 1 .449-.187c.16 0 .285.05.383.156.105.102.16.246.156.395 0 .14-.04.347-.125.62-.074.266-.153.524-.227.77a54.38 54.38 0 0 1-.336 1.149c-.11.363-.226.703-.351 1.035-.117.316-.25.625-.399.926-.375.832-.855 1.437-1.445 1.812-.586.371-1.297.563-2.137.563-.75 0-1.414-.168-1.988-.508a3.49 3.49 0 0 1-1.344-1.41c-.32-.622-.48-1.356-.48-2.211ZM9.3 23.37h10.46c1.083 0 1.895-.289 2.438-.86.547-.573.82-1.425.82-2.558V8.79c0-1.129-.273-1.984-.82-2.559-.543-.574-1.355-.859-2.437-.859H9.3c-1.09 0-1.91.285-2.457.86-.543.566-.813 1.421-.813 2.558v11.16c0 1.145.27 1.996.813 2.563.547.57 1.367.86 2.457.86ZM.98 14.844c0 1.14.269 1.996.812 2.574.547.566 1.367.848 2.457.848h.355V8.789c0-1.035.184-1.922.551-2.656a3.877 3.877 0 0 1 1.614-1.68c.703-.387 1.546-.582 2.53-.582h8.669v-.187c0-1.133-.274-1.985-.824-2.559-.54-.574-1.352-.86-2.438-.86H4.25c-1.09 0-1.91.286-2.457.86C1.25 1.691.98 2.543.98 3.684Zm0 0"/></svg>