<svg width="22" height="20" viewBox="0 0 22 20" fill="none" xmlns="http://www.w3.org/2000/svg">
<path d="M3.125 7C3.25521 7.02604 3.3776 7.0026 3.49219 6.92969C3.60677 6.85677 3.67708 6.7526 3.70312 6.61719C3.72917 6.48698 3.70573 6.36719 3.63281 6.25781C3.5599 6.14323 3.45573 6.07031 3.32031 6.03906L1.0625 5.55469C0.916667 5.52344 0.783854 5.54948 0.664062 5.63281C0.549479 5.71094 0.484375 5.82031 0.46875 5.96094C0.447917 6.09115 0.473958 6.21094 0.546875 6.32031C0.625 6.42969 0.729167 6.4974 0.859375 6.52344L3.125 7ZM3.91406 4.39844C4.01302 4.4974 4.13021 4.54688 4.26562 4.54688C4.40625 4.54688 4.52344 4.4974 4.61719 4.39844C4.71094 4.30469 4.75781 4.1901 4.75781 4.05469C4.75781 3.91927 4.71094 3.80208 4.61719 3.70312L2.97656 2.07031C2.8776 1.96615 2.76042 1.91667 2.625 1.92188C2.49479 1.92188 2.38021 1.97135 2.28125 2.07031C2.18229 2.16927 2.13021 2.28385 2.125 2.41406C2.125 2.54427 2.17708 2.66146 2.28125 2.76562L3.91406 4.39844ZM6.82812 3.625C6.96354 3.59896 7.07031 3.52865 7.14844 3.41406C7.22656 3.29427 7.25 3.17188 7.21875 3.04688L6.73438 0.789062C6.70312 0.653646 6.63021 0.549479 6.51562 0.476562C6.40104 0.403646 6.27865 0.380208 6.14844 0.40625C6.01302 0.432292 5.90625 0.502604 5.82812 0.617188C5.75 0.731771 5.72656 0.856771 5.75781 0.992188L6.24219 3.24219C6.27344 3.3724 6.34375 3.47656 6.45312 3.55469C6.56771 3.63281 6.69271 3.65625 6.82812 3.625ZM17.7969 17.8672C18.7708 16.8984 19.3333 15.8125 19.4844 14.6094C19.6406 13.4062 19.3854 12.1042 18.7188 10.7031L16.9609 6.99219C16.8359 6.73698 16.6901 6.52604 16.5234 6.35938C16.2318 6.06771 15.8958 5.92708 15.5156 5.9375C15.1354 5.94271 14.8047 6.08854 14.5234 6.375C14.3307 6.5625 14.2083 6.79427 14.1562 7.07031C14.1094 7.34115 14.151 7.63281 14.2812 7.94531L14.7969 9.1875C14.8125 9.22396 14.8099 9.2526 14.7891 9.27344C14.763 9.29948 14.7318 9.29688 14.6953 9.26562L10.2656 4.83594C9.94271 4.51302 9.59375 4.35156 9.21875 4.35156C8.84375 4.34635 8.5026 4.4974 8.19531 4.80469C8.08073 4.91927 7.99219 5.04688 7.92969 5.1875C7.8724 5.32292 7.84115 5.46354 7.83594 5.60938C7.51302 5.36458 7.18229 5.2474 6.84375 5.25781C6.51042 5.26823 6.20833 5.41146 5.9375 5.6875C5.66667 5.95312 5.52604 6.25781 5.51562 6.60156C5.50521 6.9401 5.61458 7.26562 5.84375 7.57812C5.55729 7.58333 5.30729 7.69271 5.09375 7.90625C4.80729 8.19271 4.66927 8.51562 4.67969 8.875C4.6901 9.23438 4.84635 9.56771 5.14844 9.875L5.76562 10.4844C5.61458 10.4844 5.46354 10.5182 5.3125 10.5859C5.16667 10.6484 5.03646 10.7396 4.92188 10.8594C4.63542 11.1458 4.4974 11.4766 4.50781 11.8516C4.52344 12.2214 4.6849 12.5599 4.99219 12.8672L9.74219 17.6172C10.6016 18.4766 11.5052 19.0547 12.4531 19.3516C13.401 19.6484 14.3333 19.6693 15.25 19.4141C16.1719 19.1641 17.0208 18.6484 17.7969 17.8672ZM17.0078 17.1328C16.3568 17.7839 15.6589 18.2083 14.9141 18.4062C14.1745 18.6042 13.4193 18.5703 12.6484 18.3047C11.8776 18.0443 11.1224 17.5417 10.3828 16.7969L5.80469 12.2188C5.6849 12.099 5.6224 11.9688 5.61719 11.8281C5.61198 11.6823 5.66667 11.5521 5.78125 11.4375C5.89583 11.3281 6.02604 11.2734 6.17188 11.2734C6.32292 11.2734 6.45573 11.3307 6.57031 11.4453L9.39844 14.2734C9.4974 14.3724 9.61198 14.4193 9.74219 14.4141C9.8776 14.4036 9.99219 14.3542 10.0859 14.2656C10.1797 14.1719 10.2292 14.0573 10.2344 13.9219C10.2448 13.7865 10.2005 13.6693 10.1016 13.5703L5.875 9.34375C5.75521 9.22917 5.69271 9.10156 5.6875 8.96094C5.68229 8.8151 5.73698 8.6849 5.85156 8.57031C5.96615 8.45573 6.09635 8.39844 6.24219 8.39844C6.39323 8.39844 6.52865 8.45833 6.64844 8.57812L10.5859 12.5156C10.6901 12.6198 10.8073 12.6693 10.9375 12.6641C11.0729 12.6536 11.1849 12.6016 11.2734 12.5078C11.3672 12.4141 11.4167 12.3021 11.4219 12.1719C11.4323 12.0365 11.388 11.9167 11.2891 11.8125L6.66406 7.1875C6.54427 7.07292 6.48177 6.94271 6.47656 6.79688C6.47656 6.64583 6.53385 6.51302 6.64844 6.39844C6.75781 6.28385 6.88542 6.22917 7.03125 6.23438C7.18229 6.23958 7.31771 6.30208 7.4375 6.42188L12.0625 11.0469C12.1562 11.1406 12.2682 11.1875 12.3984 11.1875C12.5339 11.1823 12.6484 11.1328 12.7422 11.0391C12.8411 10.9401 12.8932 10.8229 12.8984 10.6875C12.9036 10.5521 12.8594 10.4375 12.7656 10.3438L8.82031 6.39844C8.70052 6.28385 8.64062 6.15365 8.64062 6.00781C8.64062 5.86198 8.69792 5.73177 8.8125 5.61719C8.92188 5.5026 9.04948 5.44792 9.19531 5.45312C9.34115 5.45312 9.47396 5.51302 9.59375 5.63281L15.0312 11.0703C15.1667 11.2057 15.3099 11.276 15.4609 11.2812C15.612 11.2812 15.7448 11.224 15.8594 11.1094C15.9583 11.0104 16.0234 10.8932 16.0547 10.7578C16.0859 10.6224 16.0625 10.4557 15.9844 10.2578L15.0078 7.6875C14.9401 7.51562 14.9323 7.36198 14.9844 7.22656C15.0365 7.09115 15.1302 6.99219 15.2656 6.92969C15.4115 6.86198 15.5469 6.86198 15.6719 6.92969C15.7969 6.99219 15.9062 7.11719 16 7.30469L17.8125 11.1406C18.4167 12.4219 18.625 13.5495 18.4375 14.5234C18.2552 15.4922 17.7786 16.362 17.0078 17.1328ZM10.1953 4.10156C10.0807 4.21094 9.99219 4.33594 9.92969 4.47656C9.8724 4.61719 9.83854 4.76042 9.82812 4.90625L10.8125 5.69531C10.6979 5.58073 10.638 5.45052 10.6328 5.30469C10.6328 5.15365 10.6901 5.02083 10.8047 4.90625C10.9193 4.79167 11.0495 4.73698 11.1953 4.74219C11.3411 4.7474 11.474 4.8099 11.5938 4.92969L14.2422 7.58594L14.875 6.74219L12.2656 4.13281C11.9375 3.8099 11.5859 3.64844 11.2109 3.64844C10.8411 3.64323 10.5026 3.79427 10.1953 4.10156ZM19.7969 17.1719C20.7656 16.1979 21.3281 15.112 21.4844 13.9141C21.6406 12.7109 21.3854 11.4062 20.7188 10L18.9531 6.28125C18.7917 5.9375 18.5807 5.67708 18.3203 5.5C18.0599 5.32292 17.7708 5.23438 17.4531 5.23438C17.3281 5.23438 17.1875 5.25781 17.0312 5.30469C16.875 5.35156 16.724 5.42969 16.5781 5.53906C16.4323 5.64323 16.3125 5.78385 16.2188 5.96094C16.125 6.13802 16.0781 6.35417 16.0781 6.60938C16.0781 6.70312 16.0833 6.79167 16.0938 6.875L17.0234 7.13281C16.9714 7.01823 16.9453 6.90625 16.9453 6.79688C16.9453 6.67188 16.9922 6.55729 17.0859 6.45312C17.1849 6.34896 17.3177 6.29688 17.4844 6.29688C17.7292 6.29688 17.9115 6.42969 18.0312 6.69531L19.8047 10.4375C20.4089 11.7135 20.6198 12.8385 20.4375 13.8125C20.2552 14.7865 19.776 15.6562 19 16.4219C18.3698 17.0521 17.7031 17.4688 17 17.6719L15.8594 18.875C16.5573 18.8958 17.2396 18.763 17.9062 18.4766C18.5781 18.1901 19.2083 17.7552 19.7969 17.1719Z" fill="white"/>
</svg>
