<svg width="128" height="128" viewBox="0 0 128 128" fill="none" xmlns="http://www.w3.org/2000/svg">
<path d="M63.9375 127.625C72.6458 127.625 80.8333 125.958 88.5 122.625C96.2083 119.292 103 114.688 108.875 108.812C114.75 102.938 119.354 96.1667 122.688 88.5C126.021 80.7917 127.688 72.5833 127.688 63.875C127.688 55.1667 126.021 46.9792 122.688 39.3125C119.354 31.6042 114.75 24.8125 108.875 18.9375C103 13.0625 96.2083 8.45833 88.5 5.125C80.7917 1.79167 72.5833 0.125 63.875 0.125C55.1667 0.125 46.9583 1.79167 39.25 5.125C31.5833 8.45833 24.8125 13.0625 18.9375 18.9375C13.1042 24.8125 8.52083 31.6042 5.1875 39.3125C1.85417 46.9792 0.1875 55.1667 0.1875 63.875C0.1875 72.5833 1.85417 80.7917 5.1875 88.5C8.52083 96.1667 13.125 102.938 19 108.812C24.875 114.688 31.6458 119.292 39.3125 122.625C47.0208 125.958 55.2292 127.625 63.9375 127.625ZM63.9375 117C56.5625 117 49.6667 115.625 43.25 112.875C36.8333 110.125 31.1875 106.333 26.3125 101.5C21.4792 96.625 17.6875 90.9792 14.9375 84.5625C12.2292 78.1458 10.875 71.25 10.875 63.875C10.875 56.5 12.2292 49.6042 14.9375 43.1875C17.6875 36.7708 21.4792 31.125 26.3125 26.25C31.1458 21.375 36.7708 17.5833 43.1875 14.875C49.6042 12.125 56.5 10.75 63.875 10.75C71.25 10.75 78.1458 12.125 84.5625 14.875C91.0208 17.5833 96.6667 21.375 101.5 26.25C106.375 31.125 110.188 36.7708 112.938 43.1875C115.688 49.6042 117.062 56.5 117.062 63.875C117.062 71.25 115.688 78.1458 112.938 84.5625C110.229 90.9792 106.438 96.625 101.562 101.5C96.6875 106.333 91.0417 110.125 84.625 112.875C78.2083 115.625 71.3125 117 63.9375 117ZM38.9375 74.9375C38.9375 80.2292 40 84.7917 42.125 88.625C44.25 92.4583 47.1875 95.4167 50.9375 97.5C54.7292 99.5417 59.0625 100.562 63.9375 100.562C69.4792 100.562 74.1667 99.3958 78 97.0625C81.875 94.7292 85.0833 90.9583 87.625 85.75C88.5417 83.9583 89.3958 82.0625 90.1875 80.0625C90.9792 78.0208 91.75 75.875 92.5 73.625C93.25 71.3333 94 68.9583 94.75 66.5C95.2083 64.9583 95.6875 63.375 96.1875 61.75C96.7292 60.0833 97 58.8125 97 57.9375C97 56.9375 96.6667 56.125 96 55.5C95.3333 54.875 94.4792 54.5625 93.4375 54.5625C92.2708 54.5625 91.2708 54.9583 90.4375 55.75C89.6458 56.5 88.8333 57.7292 88 59.4375L82.9375 70.125C82.6875 70.6667 82.4167 71.0625 82.125 71.3125C81.875 71.5208 81.625 71.625 81.375 71.625C81 71.625 80.7083 71.5 80.5 71.25C80.2917 71 80.1875 70.6042 80.1875 70.0625V32C80.1875 30.9167 79.7917 29.9792 79 29.1875C78.2083 28.3958 77.2708 28 76.1875 28C75.1042 28 74.1667 28.3958 73.375 29.1875C72.625 29.9792 72.25 30.9167 72.25 32V59C71.75 58.875 71.25 58.7292 70.75 58.5625C70.25 58.3958 69.7292 58.25 69.1875 58.125V26.6875C69.1875 25.6042 68.7917 24.6667 68 23.875C67.25 23.0833 66.3125 22.6875 65.1875 22.6875C64.1042 22.6875 63.1667 23.0833 62.375 23.875C61.5833 24.6667 61.1875 25.6042 61.1875 26.6875V57.75C60.6875 57.8333 60.1667 57.9167 59.625 58C59.0833 58.0417 58.5417 58.1042 58 58.1875V29.8125C58 28.7292 57.6042 27.8125 56.8125 27.0625C56.0208 26.2708 55.0833 25.875 54 25.875C52.9167 25.875 51.9792 26.2708 51.1875 27.0625C50.3958 27.8125 50 28.7292 50 29.8125V60.75C49.4167 61 48.875 61.2708 48.375 61.5625C47.9167 61.8542 47.4375 62.1458 46.9375 62.4375V41.1875C46.9375 40.0625 46.5417 39.1042 45.75 38.3125C45 37.5208 44.0833 37.125 43 37.125C41.875 37.125 40.9167 37.5208 40.125 38.3125C39.3333 39.1042 38.9375 40.0625 38.9375 41.1875V74.9375Z" fill="white"/>
</svg>
