<svg xmlns="http://www.w3.org/2000/svg" width="24" height="24"><path style="stroke:none;fill-rule:nonzero;fill:#fff;fill-opacity:1" d="M23.625 13.188c0-2.317-.516-4.282-1.55-5.891-1.028-1.606-2.571-2.848-4.626-3.723l-5.418-2.312a2.467 2.467 0 0 0-.594-.176 2.54 2.54 0 0 0-.542-.059c-.602 0-1.067.239-1.395.723a2.902 2.902 0 0 0-.488 1.676c0 .465.11.886.332 1.261.222.368.547.657.969.875l1.761.875c.04.016.063.055.063.11 0 .074-.028.105-.086.105H2.926c-.692 0-1.254.246-1.676.75-.418.496-.625 1.133-.625 1.91 0 .786.207 1.426.625 1.922.422.493.984.743 1.676.743h3.636c-.078.3-.113.609-.113.921 0 .579.125 1.07.375 1.489.254.406.602.699 1.04.863a5.308 5.308 0 0 0-.114.563c-.027.195-.043.39-.043.59 0 .538.117 1.003.344 1.386.23.379.547.648.949.797.008 1.219.363 2.172 1.074 2.852.707.683 1.692 1.023 2.946 1.023h2.386c1.707 0 3.172-.387 4.395-1.16 1.23-.774 2.176-1.856 2.836-3.25.66-1.39.988-3.012.988-4.863Zm-1.5.074c0 1.543-.27 2.87-.813 3.988-.535 1.117-1.316 1.973-2.343 2.574-1.02.602-2.266.899-3.739.899h-1.992c-.867 0-1.539-.157-2.02-.473-.48-.324-.718-.777-.718-1.363h1.25a.602.602 0 0 0 .488-.235.94.94 0 0 0 .188-.578.93.93 0 0 0-.188-.586.565.565 0 0 0-.488-.261h-1.707a.863.863 0 0 1-.668-.278c-.168-.191-.25-.449-.25-.773 0-.278.047-.54.145-.785h2.062a.595.595 0 0 0 .492-.243.947.947 0 0 0 .188-.585.945.945 0 0 0-.188-.575.583.583 0 0 0-.492-.25H8.793a.882.882 0 0 1-.688-.289c-.168-.191-.25-.449-.25-.773 0-.13.012-.258.04-.399.027-.144.062-.27.105-.375h2.918a.588.588 0 0 0 .477-.242.91.91 0 0 0 .199-.586.935.935 0 0 0-.2-.597.58.58 0 0 0-.476-.254H2.824a.731.731 0 0 1-.574-.246.981.981 0 0 1-.219-.665c0-.265.074-.48.219-.648a.746.746 0 0 1 .574-.266h11.344a.77.77 0 0 0 .602-.261.929.929 0 0 0 .25-.676c0-.23-.055-.457-.157-.649-.101-.199-.289-.375-.562-.527l-3.332-1.77a1.7 1.7 0 0 1-.438-.35.894.894 0 0 1-.156-.552c0-.265.07-.476.207-.629a.687.687 0 0 1 .5-.234c.168 0 .332.035.492.102l5.406 2.324c1.868.8 3.192 1.894 3.97 3.277.784 1.371 1.175 2.973 1.175 4.809Zm0 0"/></svg>