<svg xmlns="http://www.w3.org/2000/svg" width="24" height="24"><path style="stroke:none;fill-rule:nonzero;fill:#fff;fill-opacity:1" d="M10.527.652c-1.937 0-3.586.325-4.941.97-1.348.64-2.375 1.565-3.082 2.78C1.8 5.605 1.445 7.062 1.445 8.77v2.117c0 .644.114 1.207.336 1.675.223.461.52.82.883 1.07.367.247.766.376 1.191.376.297 0 .446-.117.446-.352v-.937c0-.223.054-.39.172-.496a.64.64 0 0 1 .43-.168c.167 0 .312.058.429.168.125.109.188.273.188.492v.617c0 .574.195 1.035.585 1.383.403.336.903.504 1.5.504.528 0 .793-.188.793-.559V13.38c0-.223.059-.387.172-.496a.58.58 0 0 1 .418-.168.61.61 0 0 1 .442.168c.125.11.187.273.187.496v1.18c0 .64.195 1.113.59 1.421.398.31.89.465 1.473.465.527 0 .789-.187.789-.562v-2.504c0-.223.058-.387.176-.496a.571.571 0 0 1 .414-.168c.18 0 .324.055.441.168.125.11.188.273.188.496v8.371c0 .41.144.738.43.98.269.247.655.383 1.058.375.445 0 .804-.125 1.082-.375.285-.242.43-.57.43-.98V9.496c0-.152.05-.266.148-.34a.466.466 0 0 1 .32-.12c.23 0 .426.136.574.417l1.97 3.828c.144.285.327.492.55.625.23.125.496.192.79.192.456 0 .823-.118 1.097-.344.27-.211.422-.5.418-.805 0-.125-.016-.238-.043-.344a1.419 1.419 0 0 0-.106-.296L20.25 6.98c-.918-2.242-2.238-3.855-3.95-4.84-1.714-.992-3.64-1.488-5.773-1.488Zm0 0"/></svg>