<svg width="14" height="17" viewBox="0 0 14 17" fill="none" xmlns="http://www.w3.org/2000/svg">
<path d="M10.1797 15.5938C11.2109 15.2188 12.0339 14.6693 12.6484 13.9453C13.2682 13.2161 13.6432 12.362 13.7734 11.3828C13.9089 10.3984 13.7682 9.33333 13.3516 8.1875L12.7734 6.58594C12.4609 5.74219 12.0286 5.15365 11.4766 4.82031C10.9245 4.48177 10.3073 4.43229 9.625 4.67188C9.44271 4.43229 9.21615 4.27604 8.94531 4.20312C8.67448 4.125 8.38802 4.14062 8.08594 4.25C7.8724 4.32812 7.66927 4.44271 7.47656 4.59375C7.27865 4.33333 7.03125 4.16146 6.73438 4.07812C6.44271 3.98958 6.13802 4.0026 5.82031 4.11719C5.64323 4.1849 5.47917 4.27344 5.32812 4.38281L4.4375 1.94531C4.27083 1.47656 3.9974 1.15365 3.61719 0.976562C3.23698 0.794271 2.82812 0.78125 2.39062 0.9375C1.95312 1.09896 1.64583 1.3724 1.46875 1.75781C1.29688 2.13802 1.29427 2.5599 1.46094 3.02344L3.6875 9.14844C3.70312 9.19531 3.69271 9.22396 3.65625 9.23438C3.63021 9.24479 3.60417 9.23698 3.57812 9.21094L2.66406 8.21094C2.4349 7.97135 2.1901 7.8151 1.92969 7.74219C1.66927 7.66406 1.40625 7.67188 1.14062 7.76562C0.786458 7.89583 0.513021 8.11979 0.320312 8.4375C0.132812 8.75521 0.114583 9.11458 0.265625 9.51562C0.302083 9.63021 0.356771 9.7526 0.429688 9.88281C0.502604 10.0078 0.583333 10.1276 0.671875 10.2422L3.28906 13.4062C4.27865 14.6042 5.34896 15.3854 6.5 15.75C7.65625 16.1198 8.88281 16.0677 10.1797 15.5938ZM9.84375 14.5703C8.81771 14.9453 7.82552 15.0104 6.86719 14.7656C5.90885 14.5208 4.97656 13.8516 4.07031 12.7578L1.45312 9.60938C1.36979 9.51042 1.3099 9.40625 1.27344 9.29688C1.22656 9.17188 1.22917 9.04688 1.28125 8.92188C1.33333 8.79688 1.4349 8.70573 1.58594 8.64844C1.8099 8.57031 2.02604 8.64323 2.23438 8.86719L4.04688 10.7344C4.19271 10.8906 4.33333 10.9844 4.46875 11.0156C4.60417 11.0417 4.73698 11.0312 4.86719 10.9844C5.02344 10.9271 5.13021 10.8281 5.1875 10.6875C5.24479 10.5417 5.24219 10.3828 5.17969 10.2109L2.41406 2.60156C2.35677 2.44531 2.35677 2.30208 2.41406 2.17188C2.47656 2.03646 2.58333 1.9401 2.73438 1.88281C2.89062 1.83073 3.03125 1.83854 3.15625 1.90625C3.28646 1.96875 3.38021 2.07812 3.4375 2.23438L5.41406 7.66406C5.46094 7.79427 5.54688 7.88542 5.67188 7.9375C5.79688 7.98958 5.92448 7.99219 6.05469 7.94531C6.17969 7.89844 6.27083 7.8151 6.32812 7.69531C6.38542 7.57552 6.39323 7.45312 6.35156 7.32812L5.63281 5.36719C5.7474 5.2526 5.88281 5.16667 6.03906 5.10938C6.22135 5.04167 6.38542 5.04688 6.53125 5.125C6.67708 5.19792 6.78385 5.33073 6.85156 5.52344L7.47656 7.23438C7.52344 7.36458 7.60938 7.45573 7.73438 7.50781C7.85938 7.55469 7.98438 7.55469 8.10938 7.50781C8.22917 7.46615 8.32031 7.38802 8.38281 7.27344C8.44531 7.15365 8.45312 7.02604 8.40625 6.89062L7.89844 5.5C8.01302 5.38542 8.14844 5.29948 8.30469 5.24219C8.48698 5.17448 8.65104 5.17969 8.79688 5.25781C8.94271 5.33073 9.04948 5.46354 9.11719 5.65625L9.53125 6.79688C9.58333 6.93229 9.67188 7.02604 9.79688 7.07812C9.92188 7.125 10.0469 7.125 10.1719 7.07812C10.2917 7.03646 10.3828 6.95833 10.4453 6.84375C10.5078 6.72396 10.5156 6.59635 10.4688 6.46094L10.1562 5.61719C10.4844 5.4974 10.7969 5.56771 11.0938 5.82812C11.3906 6.08333 11.6432 6.5026 11.8516 7.08594L12.3438 8.42188C12.6979 9.40625 12.8333 10.3047 12.75 11.1172C12.6667 11.9297 12.3776 12.6302 11.8828 13.2188C11.388 13.8073 10.7083 14.2578 9.84375 14.5703Z" fill="white"/>
</svg>
