<svg width="26" height="18" viewBox="0 0 26 18" fill="none" xmlns="http://www.w3.org/2000/svg">
<path d="M17.5625 16.8672C18.099 16.8672 18.5234 16.7839 18.8359 16.6172C19.1536 16.4557 19.3828 16.2422 19.5234 15.9766C19.6641 15.7161 19.7344 15.4323 19.7344 15.125C19.7344 14.5677 19.5729 14.0964 19.25 13.7109C18.9271 13.3255 18.4427 13.0339 17.7969 12.8359C17.151 12.6328 16.3438 12.5312 15.375 12.5312C15.1562 12.5312 14.9661 12.5365 14.8047 12.5469C14.6432 12.5521 14.5 12.5599 14.375 12.5703C14.2552 12.5807 14.1484 12.5938 14.0547 12.6094L13.4844 11.2344C13.0885 10.2865 12.625 9.53646 12.0938 8.98438C11.5625 8.42708 10.9896 8.02865 10.375 7.78906C9.76562 7.54948 9.14062 7.42969 8.5 7.42969C8.34375 7.42969 8.17969 7.4349 8.00781 7.44531C7.83594 7.45052 7.66927 7.47135 7.50781 7.50781C7.3151 7.54948 7.17708 7.61979 7.09375 7.71875C7.01562 7.8125 6.97656 7.92448 6.97656 8.05469C6.97656 8.20573 7.02604 8.32552 7.125 8.41406C7.22396 8.4974 7.35417 8.53906 7.51562 8.53906C7.68229 8.53385 7.83073 8.52344 7.96094 8.50781C8.09115 8.49219 8.2526 8.48438 8.44531 8.48438C9.03906 8.48438 9.57812 8.60156 10.0625 8.83594C10.5521 9.0651 11.0052 9.4375 11.4219 9.95312C11.8385 10.4688 12.2344 11.1536 12.6094 12.0078L13.3594 13.75C13.6562 13.6875 13.9609 13.6354 14.2734 13.5938C14.5859 13.5521 14.9635 13.5312 15.4062 13.5312C15.9323 13.5312 16.4375 13.5833 16.9219 13.6875C17.4115 13.7865 17.8099 13.9453 18.1172 14.1641C18.4245 14.3828 18.5781 14.6719 18.5781 15.0312C18.5781 15.2396 18.4896 15.4062 18.3125 15.5312C18.1354 15.6615 17.8854 15.7266 17.5625 15.7266C17.1823 15.7266 16.8385 15.6927 16.5312 15.625C16.2292 15.5625 15.9089 15.5312 15.5703 15.5312C15.2422 15.5312 14.9531 15.5443 14.7031 15.5703C14.4531 15.5964 14.2318 15.6224 14.0391 15.6484C13.8516 15.6745 13.6849 15.6875 13.5391 15.6875C13.3568 15.6875 13.1693 15.6641 12.9766 15.6172C12.7839 15.5755 12.5885 15.474 12.3906 15.3125L8.89844 12.3672C7.64844 12.4245 6.57031 12.2839 5.66406 11.9453C4.75781 11.6068 4.03906 11.0547 3.50781 10.2891C3.11198 10.3359 2.78385 10.2865 2.52344 10.1406C2.26302 9.98958 2.13281 9.75 2.13281 9.42188C2.13281 9.125 2.25521 8.88542 2.5 8.70312C2.74479 8.52083 3.08333 8.4401 3.51562 8.46094C3.91667 7.14323 4.54427 6.16927 5.39844 5.53906C6.2526 4.90885 7.28906 4.59375 8.50781 4.59375C9.14323 4.59375 9.77865 4.70573 10.4141 4.92969C11.0547 5.14844 11.6797 5.42448 12.2891 5.75781C12.8984 6.09115 13.4818 6.4349 14.0391 6.78906C14.5964 7.14323 15.1146 7.45573 15.5938 7.72656C15.849 7.88281 16.1094 7.99219 16.375 8.05469C16.6406 8.11198 16.8724 8.14062 17.0703 8.14062C17.4974 8.14062 17.8828 8.00521 18.2266 7.73438C18.5755 7.46354 18.9036 7.05469 19.2109 6.50781L14.0078 3.30469C13.8203 3.1901 13.6224 3.05729 13.4141 2.90625C13.2109 2.75521 13.0365 2.61198 12.8906 2.47656C12.7448 2.33594 12.6719 2.22917 12.6719 2.15625C12.6719 2.00521 12.7708 1.86979 12.9688 1.75C13.1719 1.625 13.4193 1.52865 13.7109 1.46094C14.0026 1.38802 14.2786 1.35156 14.5391 1.35156C15.1589 1.35156 15.7318 1.52344 16.2578 1.86719C16.7839 2.21094 17.2839 2.66927 17.7578 3.24219L20.1562 6.10938C20.7083 6.08333 21.2188 6.16146 21.6875 6.34375C22.1562 6.52604 22.5651 6.78906 22.9141 7.13281C23.2682 7.47656 23.5417 7.88021 23.7344 8.34375C23.9323 8.80729 24.0312 9.3099 24.0312 9.85156C24.0312 10.3099 23.9531 10.6719 23.7969 10.9375C23.6458 11.1979 23.401 11.3828 23.0625 11.4922C22.7292 11.6016 22.2891 11.6562 21.7422 11.6562C21.2318 11.6562 20.7031 11.5625 20.1562 11.375C19.6146 11.1875 19.1016 10.9375 18.6172 10.625C18.1224 10.75 17.625 10.9115 17.125 11.1094C16.625 11.3073 16.138 11.5365 15.6641 11.7969C15.1953 12.0573 14.7552 12.3438 14.3438 12.6562L15.2266 13.1719C15.8307 12.8229 16.4193 12.5234 16.9922 12.2734C17.5651 12.0182 18.0391 11.8229 18.4141 11.6875C18.8828 12 19.4219 12.2448 20.0312 12.4219C20.6458 12.599 21.2031 12.6849 21.7031 12.6797C22.4062 12.6745 23.0104 12.5859 23.5156 12.4141C24.0208 12.2422 24.4089 11.9531 24.6797 11.5469C24.9557 11.1354 25.0938 10.5677 25.0938 9.84375C25.0938 9.17708 24.9766 8.5625 24.7422 8C24.5078 7.43229 24.1875 6.9375 23.7812 6.51562C23.375 6.09375 22.9062 5.76562 22.375 5.53125C21.849 5.29167 21.2891 5.16927 20.6953 5.16406L19 2.85938C18.349 1.98958 17.6615 1.32031 16.9375 0.851562C16.2188 0.377604 15.4141 0.140625 14.5234 0.140625C14.1797 0.140625 13.8177 0.1875 13.4375 0.28125C13.0573 0.369792 12.7005 0.497396 12.3672 0.664062C12.0391 0.825521 11.7708 1.02083 11.5625 1.25C11.3594 1.47396 11.2578 1.72135 11.2578 1.99219C11.2578 2.29427 11.3568 2.57031 11.5547 2.82031C11.7578 3.07031 12.0156 3.30729 12.3281 3.53125C12.6406 3.75 12.9635 3.96615 13.2969 4.17969C13.5885 4.36198 13.9036 4.55469 14.2422 4.75781C14.5807 4.96094 14.9323 5.16927 15.2969 5.38281C15.6615 5.59635 16.0286 5.8125 16.3984 6.03125C16.7734 6.25 17.1458 6.46615 17.5156 6.67969C17.4167 6.76823 17.3255 6.83333 17.2422 6.875C17.1641 6.91667 17.0755 6.9375 16.9766 6.9375C16.8568 6.9375 16.7161 6.90885 16.5547 6.85156C16.3932 6.78906 16.2083 6.69792 16 6.57812C15.2135 6.13021 14.4922 5.71354 13.8359 5.32812C13.1849 4.9375 12.5677 4.59375 11.9844 4.29688C11.4062 4 10.8359 3.76823 10.2734 3.60156C9.71094 3.4349 9.1276 3.35156 8.52344 3.35156C7.07031 3.35156 5.83333 3.72135 4.8125 4.46094C3.79167 5.19531 3.03125 6.27604 2.53125 7.70312C2.04688 7.80729 1.65365 8.01302 1.35156 8.32031C1.04948 8.6276 0.898438 9.02604 0.898438 9.51562C0.898438 9.92188 0.994792 10.263 1.1875 10.5391C1.38021 10.8099 1.6276 11.0182 1.92969 11.1641C2.23177 11.3047 2.55208 11.3854 2.89062 11.4062C3.14062 11.8073 3.52604 12.1797 4.04688 12.5234C4.56771 12.862 5.19531 13.1224 5.92969 13.3047C6.66927 13.487 7.48177 13.5417 8.36719 13.4688L11.7812 16.2891C12.0052 16.4766 12.25 16.6198 12.5156 16.7188C12.7865 16.8177 13.1172 16.8672 13.5078 16.8672C13.8359 16.8672 14.151 16.8307 14.4531 16.7578C14.7604 16.6849 15.1458 16.6484 15.6094 16.6484C16.0312 16.6484 16.375 16.6849 16.6406 16.7578C16.9115 16.8307 17.2188 16.8672 17.5625 16.8672ZM8.01562 17.7109C8.56771 17.7109 9.09635 17.6562 9.60156 17.5469C10.112 17.4427 10.5938 17.2656 11.0469 17.0156C11.5 16.7656 11.9219 16.4219 12.3125 15.9844L11.3438 15.3281C11.1094 15.6198 10.8229 15.862 10.4844 16.0547C10.151 16.2526 9.77083 16.401 9.34375 16.5C8.92188 16.599 8.46615 16.6484 7.97656 16.6484C7.42969 16.6484 6.99219 16.5573 6.66406 16.375C6.34115 16.1927 6.17969 15.9453 6.17969 15.6328C6.17969 15.4766 6.23177 15.3438 6.33594 15.2344C6.4401 15.1302 6.60677 15.0781 6.83594 15.0781C7.0599 15.0781 7.29427 15.099 7.53906 15.1406C7.78385 15.1823 8.04167 15.2031 8.3125 15.2031C8.77083 15.2031 9.15625 15.1589 9.46875 15.0703C9.78646 14.987 10.0964 14.7917 10.3984 14.4844L9.55469 13.7422C9.35156 13.9401 9.17188 14.0703 9.01562 14.1328C8.85938 14.1901 8.6901 14.2188 8.50781 14.2188C8.33594 14.2188 8.16406 14.2057 7.99219 14.1797C7.82031 14.1484 7.64323 14.1198 7.46094 14.0938C7.28385 14.0625 7.09635 14.0469 6.89844 14.0469C6.35677 14.0469 5.91406 14.1927 5.57031 14.4844C5.22656 14.7708 5.05469 15.151 5.05469 15.625C5.05469 16.2917 5.32552 16.8047 5.86719 17.1641C6.40885 17.5286 7.125 17.7109 8.01562 17.7109ZM21.2188 9.35938C21.4115 9.35938 21.5781 9.29167 21.7188 9.15625C21.8594 9.01562 21.9297 8.84896 21.9297 8.65625C21.9297 8.46354 21.8594 8.29948 21.7188 8.16406C21.5781 8.02344 21.4115 7.95312 21.2188 7.95312C21.026 7.95312 20.8594 8.02344 20.7188 8.16406C20.5833 8.29948 20.5156 8.46354 20.5156 8.65625C20.5156 8.84896 20.5833 9.01562 20.7188 9.15625C20.8594 9.29167 21.026 9.35938 21.2188 9.35938Z" fill="white"/>
</svg>
