<svg xmlns="http://www.w3.org/2000/svg" width="24" height="24"><path style="stroke:none;fill-rule:nonzero;fill:#fff;fill-opacity:1" d="M16.21 22.492c.497 0 .888-.113 1.177-.332.27-.183.492-.484.636-.86.13-.343.192-.722.192-1.132 0-.746-.149-1.375-.445-1.887-.297-.511-.747-.902-1.34-1.168-.598-.27-1.344-.406-2.239-.406-.199 0-.375.004-.527.023-.133.004-.262.016-.394.028-.098.015-.2.035-.297.058l-.528-1.836c-.363-1.265-.793-2.261-1.28-3-.493-.746-1.02-1.277-1.587-1.593a3.457 3.457 0 0 0-1.73-.48c-.145 0-.297.007-.457.019-.157.011-.309.039-.461.086a.644.644 0 0 0-.383.281.874.874 0 0 0-.106.445c0 .203.043.36.137.48.102.118.23.177.36.169.152-.004.289-.024.41-.043.12-.02.27-.031.449-.031.547 0 1.043.16 1.492.468.453.305.871.801 1.254 1.489.387.69.75 1.605 1.098 2.742l.691 2.32c.273-.082.555-.152.844-.207a5.39 5.39 0 0 1 1.047-.082c.484 0 .949.07 1.398.203.45.137.82.348 1.102.64.285.294.425.677.425 1.157.004.266-.09.52-.246.664-.16.176-.394.258-.691.258-.352 0-.668-.043-.953-.133a3.284 3.284 0 0 0-.887-.125c-.3 0-.566.02-.8.05-.231.04-.434.075-.61.11a2.645 2.645 0 0 1-.465.051c-.168 0-.34-.031-.52-.098a1.154 1.154 0 0 1-.539-.406l-3.222-3.926c-1.156.078-2.149-.11-2.988-.558-.805-.418-1.5-1.192-1.989-2.211-.367.058-.668 0-.91-.2-.238-.195-.36-.519-.36-.96 0-.395.114-.711.34-.954.227-.242.54-.355.938-.324.371-1.758.95-3.054 1.738-3.894.79-.84 1.743-1.258 2.868-1.258.59 0 1.175.144 1.761.445.59.293 1.168.66 1.73 1.106.563.441 1.102.902 1.618 1.37.512.473.992.891 1.434 1.255.234.207.476.355.722.433.242.078.457.117.64.117.395 0 .75-.18 1.067-.539.324-.363.625-.91.91-1.636L12.93 4.406a7.554 7.554 0 0 1-1.032-1.105c-.132-.188-.203-.328-.203-.426 0-.203.094-.383.278-.54a1.89 1.89 0 0 1 .683-.39 2.24 2.24 0 0 1 .766-.144c.57 0 1.101.23 1.586.687.484.457.945 1.07 1.383 1.832l2.214 3.828c.512-.035.98.067 1.415.309.433.242.808.59 1.132 1.055.325.457.578.992.758 1.613.18.617.274 1.285.274 2.008 0 .613-.075 1.097-.22 1.453-.136.344-.362.59-.675.738-.309.145-.715.215-1.219.215-.472 0-.96-.125-1.465-.375a5.975 5.975 0 0 1-1.421-.996 8.568 8.568 0 0 0-1.375.64c-.461.266-.91.57-1.348.922-.434.344-.84.727-1.219 1.145l.813.688c.527-.446 1.07-.844 1.629-1.2.53-.34.968-.601 1.312-.781a4.72 4.72 0 0 0 1.496.977c.567.238 1.078.355 1.543.343.649-.004 1.207-.125 1.672-.347.465-.23.824-.617 1.074-1.157.254-.554.383-1.308.383-2.273 0-.887-.11-1.71-.324-2.46a7.072 7.072 0 0 0-.887-1.977 4.388 4.388 0 0 0-1.3-1.313c-.485-.324-1-.48-1.551-.492l-1.563-3.07c-.602-1.16-1.234-2.055-1.906-2.68-.66-.63-1.438-.961-2.227-.946-.316 0-.652.063-1.004.188-.347.117-.68.293-.988.512a2.795 2.795 0 0 0-.742.781c-.18.266-.277.621-.281.992 0 .399.093.766.273 1.102.188.336.426.652.715.945.289.293.586.582.894.867.27.242.563.5.875.77.313.27.637.55.973.836.336.28.676.574 1.016.863.347.293.691.582 1.031.863-.09.117-.176.207-.254.266a.435.435 0 0 1-.242.078.849.849 0 0 1-.39-.113 3.435 3.435 0 0 1-.512-.367c-.727-.594-1.391-1.153-1.997-1.665a28.033 28.033 0 0 0-1.71-1.375 7.75 7.75 0 0 0-1.579-.925 4.138 4.138 0 0 0-1.617-.336c-1.34 0-2.484.492-3.426 1.48-.941.98-1.644 2.422-2.105 4.32a2.06 2.06 0 0 0-1.09.825c-.277.414-.418.941-.418 1.597 0 .543.09.993.27 1.36.175.363.406.644.683.836.278.187.574.293.887.32.23.535.586 1.035 1.066 1.492.48.45 1.063.801 1.739 1.043.683.242 1.433.317 2.25.219l3.152 3.758c.207.254.434.441.68.578.25.129.554.195.914.195.304 0 .594-.05.87-.144.286-.098.641-.149 1.071-.149.387 0 .707.051.95.149.25.093.535.144.85.144Zm-8.812 1.121c.512 0 1-.074 1.465-.218.973-.27 1.856-1.004 2.504-2.082l-.894-.875c-.22.39-.48.71-.793.968A3.068 3.068 0 0 1 8.625 22c-.39.129-.809.2-1.262.2-.504 0-.91-.122-1.21-.364-.301-.25-.45-.574-.45-.992 0-.211.05-.383.145-.532.097-.14.25-.207.46-.207.208 0 .426.028.653.086.223.055.46.082.71.082.427 0 .782-.062 1.071-.18.293-.109.578-.374.856-.78l-.778-.993c-.187.266-.355.442-.5.528-.14.07-.297.109-.468.109-.157 0-.317-.016-.473-.047-.16-.047-.324-.082-.492-.12a2.333 2.333 0 0 0-.52-.063c-.5 0-.906.199-1.226.585-.317.38-.477.887-.477 1.52 0 .89.25 1.574.75 2.055.5.484 1.164.726 1.984.726ZM19.586 12.48c.18 0 .332-.09.46-.273a1.14 1.14 0 0 0 .196-.664 1.075 1.075 0 0 0-.195-.66c-.121-.184-.285-.285-.461-.281-.172 0-.34.101-.461.28-.125.173-.191.411-.188.661 0 .25.067.488.188.664.121.176.29.273.46.273Zm0 0"/></svg>