<svg width="168" height="114" viewBox="0 0 168 114" fill="none" xmlns="http://www.w3.org/2000/svg">
<path d="M62.875 54C62.8333 60.0417 63.1042 66 63.6875 71.875C64.3125 77.7083 65.4375 83.5625 67.0625 89.4375C69.0208 95.9375 72 100.5 76 103.125C80 105.75 85.8125 107.062 93.4375 107.062H97C104.458 107.062 111.667 106.146 118.625 104.312C125.583 102.521 132.021 99.9792 137.938 96.6875C143.854 93.3542 149.021 89.4792 153.438 85.0625C157.896 80.6042 161.354 75.75 163.812 70.5C166.271 65.2083 167.5 59.7083 167.5 54C167.5 48.2917 166.271 42.8125 163.812 37.5625C161.354 32.2708 157.896 27.4167 153.438 23C149.021 18.5417 143.854 14.6667 137.938 11.375C132.021 8.08333 125.583 5.52083 118.625 3.6875C111.667 1.85417 104.458 0.9375 97 0.9375H93.4375C85.8125 0.9375 80 2.25 76 4.875C72 7.5 69.0208 12.0625 67.0625 18.5625C65.4375 24.4792 64.3125 30.375 63.6875 36.25C63.1042 42.0833 62.8333 48 62.875 54ZM5.1875 34.0625C3.85417 34.3958 2.8125 35.0208 2.0625 35.9375C1.3125 36.8542 0.9375 37.9583 0.9375 39.25C0.9375 40.9167 1.52083 42.2083 2.6875 43.125C3.89583 44.0417 5.41667 44.2708 7.25 43.8125L53.9375 31.3125C54.1458 29.5208 54.3333 28.0625 54.5 26.9375C54.7083 25.8125 54.9167 24.7708 55.125 23.8125C55.3333 22.8542 55.5417 21.75 55.75 20.5L5.1875 34.0625ZM5.1875 57.0625C3.85417 57.3958 2.8125 58.0417 2.0625 59C1.3125 59.9167 0.9375 61.0208 0.9375 62.3125C0.9375 63.9792 1.54167 65.2708 2.75 66.1875C4 67.1042 5.5 67.3333 7.25 66.875L52.5 54.6875C52.5 52.8542 52.5 51.1875 52.5 49.6875C52.5417 48.1875 52.5833 46.4167 52.625 44.375L5.1875 57.0625ZM5.1875 80.125C3.85417 80.4583 2.8125 81.1042 2.0625 82.0625C1.3125 82.9792 0.9375 84.0417 0.9375 85.25C0.9375 86.9583 1.52083 88.2708 2.6875 89.1875C3.89583 90.1042 5.41667 90.3125 7.25 89.8125L54 77.375C53.7083 75.7917 53.4792 74.1667 53.3125 72.5C53.1458 70.7917 53.0208 69.0833 52.9375 67.375L5.1875 80.125ZM5.1875 103.188C3.85417 103.521 2.8125 104.146 2.0625 105.062C1.3125 105.979 0.9375 107.062 0.9375 108.312C0.9375 110.021 1.54167 111.333 2.75 112.25C3.95833 113.167 5.45833 113.375 7.25 112.875L59.375 98.875C58.7917 97.5 58.2083 95.9583 57.625 94.25C57.0833 92.5 56.6458 90.9167 56.3125 89.5L5.1875 103.188Z" fill="white"/>
</svg>
