<svg xmlns="http://www.w3.org/2000/svg" width="24" height="24"><path style="stroke:none;fill-rule:nonzero;fill:#fff;fill-opacity:1" d="M12 23.063c1.633 0 3.168-.293 4.605-.883a12.29 12.29 0 0 0 3.82-2.438 11.482 11.482 0 0 0 2.59-3.586c.626-1.36.938-2.804.938-4.343 0-1.536-.312-2.981-.937-4.336a11.514 11.514 0 0 0-2.59-3.594 12.22 12.22 0 0 0-3.82-2.438 12.166 12.166 0 0 0-4.618-.883c-1.633 0-3.172.293-4.617.883a12.307 12.307 0 0 0-3.809 2.438A11.523 11.523 0 0 0 .985 7.477a10.187 10.187 0 0 0-.937 4.335c0 1.54.312 2.985.937 4.344a11.438 11.438 0 0 0 2.59 3.586 12.307 12.307 0 0 0 3.809 2.438c1.445.59 2.984.883 4.617.883ZM5.473 11.8c0-1.317.273-2.469.82-3.465a5.861 5.861 0 0 1 2.285-2.313c.985-.554 2.129-.828 3.434-.828 1.312 0 2.46.274 3.445.828a5.84 5.84 0 0 1 2.297 2.313c.555.996.832 2.148.832 3.465 0 1.05-.133 2-.398 2.847a11.013 11.013 0 0 1-1.09 2.426.937.937 0 0 1-.47.387.84.84 0 0 1-.585-.012c-.36.344-.813.442-1.36.285-.406-.101-.695-.3-.867-.593-.171-.297-.203-.63-.093-1.004l.89-2.825c.11-.382.32-.656.633-.816.32-.168.676-.2 1.066-.086.22.05.415.14.586.274a8.3 8.3 0 0 0 .047-.883c0-1.016-.207-1.903-.62-2.656a4.408 4.408 0 0 0-1.735-1.766c-.735-.426-1.594-.64-2.578-.64-.977 0-1.832.21-2.567.628a4.415 4.415 0 0 0-1.722 1.778c-.407.757-.61 1.64-.61 2.656v.453c.008.14.02.273.035.406.149-.11.332-.191.551-.254.406-.11.766-.078 1.078.09.32.16.54.434.657.816l.867 2.813c.117.375.09.715-.082 1.016-.172.293-.461.492-.867.593-.54.172-.993.075-1.36-.285a.873.873 0 0 1-.597.012.964.964 0 0 1-.457-.387c-.461-.758-.82-1.558-1.079-2.406-.257-.844-.386-1.8-.386-2.867Zm0 0"/></svg>