<svg width="20" height="15" viewBox="0 0 20 15" fill="none" xmlns="http://www.w3.org/2000/svg">
<path d="M3.24219 14.5547H16.7578C17.5807 14.5547 18.1953 14.3516 18.6016 13.9453C19.0078 13.5443 19.2109 12.9427 19.2109 12.1406V2.59375C19.2109 1.79167 19.0078 1.1875 18.6016 0.78125C18.1953 0.375 17.5807 0.171875 16.7578 0.171875H3.24219C2.42448 0.171875 1.8099 0.375 1.39844 0.78125C0.992188 1.18229 0.789062 1.78646 0.789062 2.59375V12.1406C0.789062 12.9427 0.992188 13.5443 1.39844 13.9453C1.8099 14.3516 2.42448 14.5547 3.24219 14.5547ZM8.07031 3.80469C8.5026 3.80469 8.88281 3.91667 9.21094 4.14062C9.53906 4.36458 9.80469 4.66146 10.0078 5.03125C10.2057 4.66146 10.4688 4.36458 10.7969 4.14062C11.1302 3.91667 11.5104 3.80469 11.9375 3.80469C12.3958 3.80469 12.8021 3.91146 13.1562 4.125C13.5104 4.33333 13.7865 4.6224 13.9844 4.99219C14.1875 5.36198 14.2891 5.78646 14.2891 6.26562C14.2891 6.6875 14.2083 7.09896 14.0469 7.5C13.8854 7.90104 13.6667 8.28906 13.3906 8.66406C13.1198 9.03906 12.8151 9.39323 12.4766 9.72656C12.138 10.0547 11.7891 10.3594 11.4297 10.6406C11.0755 10.9167 10.7344 11.1615 10.4062 11.375C10.3438 11.4167 10.276 11.4583 10.2031 11.5C10.1354 11.5417 10.0755 11.5625 10.0234 11.5625C9.97135 11.5625 9.90625 11.5417 9.82812 11.5C9.75 11.4583 9.67448 11.4167 9.60156 11.375C9.27344 11.1615 8.92969 10.9167 8.57031 10.6406C8.21094 10.3646 7.86198 10.0625 7.52344 9.73438C7.1849 9.40104 6.8776 9.04688 6.60156 8.67188C6.33073 8.29688 6.11458 7.90885 5.95312 7.50781C5.79688 7.10156 5.71875 6.6875 5.71875 6.26562C5.71875 5.78646 5.81771 5.36198 6.01562 4.99219C6.21875 4.6224 6.4974 4.33333 6.85156 4.125C7.20573 3.91146 7.61198 3.80469 8.07031 3.80469Z" fill="white"/>
</svg>
