<svg xmlns="http://www.w3.org/2000/svg" width="24" height="24"><path style="stroke:none;fill-rule:nonzero;fill:#fff;fill-opacity:1" d="M12 23.05c1.633 0 3.168-.292 4.605-.882a12.22 12.22 0 0 0 3.82-2.438 11.467 11.467 0 0 0 2.59-3.582c.626-1.363.938-2.808.938-4.347a10.2 10.2 0 0 0-.937-4.332 11.53 11.53 0 0 0-2.59-3.598 12.361 12.361 0 0 0-3.82-2.437A12.166 12.166 0 0 0 11.987.55c-1.633 0-3.172.293-4.617.883A12.307 12.307 0 0 0 3.562 3.87 11.523 11.523 0 0 0 .985 7.465 10.2 10.2 0 0 0 .047 11.8c0 1.539.312 2.984.937 4.347a11.467 11.467 0 0 0 2.59 3.582 12.236 12.236 0 0 0 3.809 2.438c1.445.59 2.984.883 4.617.883Zm0-1.874a10.222 10.222 0 0 1-7.055-2.734 9.548 9.548 0 0 1-2.133-2.989 8.83 8.83 0 0 1-.761-3.652c0-1.301.254-2.52.761-3.649A9.52 9.52 0 0 1 4.946 5.16 9.82 9.82 0 0 1 8.11 3.156c1.204-.488 2.496-.73 3.88-.73 1.382 0 2.675.242 3.878.73a9.701 9.701 0 0 1 3.176 2.004 9.432 9.432 0 0 1 2.145 2.992 8.685 8.685 0 0 1 .773 3.649c0 1.3-.258 2.52-.773 3.652a9.22 9.22 0 0 1-2.133 2.988A10.222 10.222 0 0 1 12 21.176ZM8.895 6.969l7.558 7.125c.508-.57.93-1.176 1.266-1.809.336-.637.504-1.3.504-1.984 0-.653-.149-1.23-.446-1.73a3.162 3.162 0 0 0-1.218-1.192c-.508-.293-1.094-.441-1.758-.441-.625 0-1.18.152-1.664.464-.477.309-.86.711-1.149 1.211a3.58 3.58 0 0 0-1.16-1.21c-.476-.313-1.027-.465-1.652-.465-.094 0-.188.011-.281.03Zm5.52 9.004L6.327 8.359c-.18.266-.32.563-.422.895-.105.34-.156.691-.152 1.047 0 .582.113 1.152.34 1.71.242.571.558 1.11.937 1.61.399.516.84 1 1.324 1.457.493.45 1 .863 1.524 1.246.531.375 1.039.703 1.523.98.102.051.207.106.317.165.09.05.187.082.293.09a.61.61 0 0 0 .258-.079c.109-.058.207-.117.293-.175.28-.192.578-.395.89-.617.32-.227.64-.47.961-.715Zm3.093 1.73c.101.09.234.14.375.14a.507.507 0 0 0 .375-.14.468.468 0 0 0 .164-.351.452.452 0 0 0-.164-.356L6.457 5.88a.547.547 0 0 0-.762 0 .457.457 0 0 0-.152.351c0 .141.05.258.152.356Zm0 0"/></svg>