<svg xmlns="http://www.w3.org/2000/svg" width="24" height="24"><path style="stroke:none;fill-rule:nonzero;fill:#fff;fill-opacity:1" d="M4.887 23.3h14.215c1.226 0 2.144-.323 2.753-.976.618-.64.926-1.605.926-2.898V4.164c0-1.293-.308-2.258-.926-2.898-.609-.653-1.527-.977-2.753-.977H4.887c-1.227 0-2.149.324-2.766.977-.61.64-.914 1.605-.914 2.898v15.262c0 1.293.305 2.258.914 2.902.617.649 1.54.973 2.766.973ZM6.48 3.649c.32 0 .598.094.832.278.243.176.434.402.575.687a1.99 1.99 0 0 1 .574-.687c.242-.184.516-.278.82-.278.492 0 .899.18 1.219.54.32.359.48.812.48 1.363 0 .406-.09.804-.27 1.187a4.757 4.757 0 0 1-.679 1.086 7.417 7.417 0 0 1-.914.938c-.32.277-.629.511-.926.715a3.32 3.32 0 0 0-.152.097.292.292 0 0 1-.14.04.309.309 0 0 1-.13-.04l-.164-.097a16.876 16.876 0 0 1-.925-.75c-.325-.29-.63-.598-.914-.926a5.421 5.421 0 0 1-.692-1.074 2.702 2.702 0 0 1-.27-1.176c0-.551.157-1.004.47-1.364.32-.359.722-.539 1.206-.539ZM5.543 15.2a.692.692 0 0 1-.527-.222.783.783 0 0 1-.211-.551c0-.219.07-.395.21-.54a.696.696 0 0 1 .528-.222H17.32c.203 0 .371.074.504.223.14.14.211.32.211.539 0 .215-.07.398-.21.55a.647.647 0 0 1-.505.223Zm0 4.278a.72.72 0 0 1-.527-.215.783.783 0 0 1-.211-.551.779.779 0 0 1 .215-.555.675.675 0 0 1 .523-.218h8.684a.65.65 0 0 1 .515.226c.14.148.211.332.211.547a.766.766 0 0 1-.21.55.674.674 0 0 1-.516.216Zm0 0"/></svg>