<svg width="97" height="134" viewBox="0 0 97 134" fill="none" xmlns="http://www.w3.org/2000/svg">
<path d="M0.9375 105.25C0.9375 111 2.0625 115.979 4.3125 120.188C6.60417 124.438 9.8125 127.708 13.9375 130C18.0625 132.333 22.9167 133.5 28.5 133.5C34.7917 133.5 40.2708 132.125 44.9375 129.375C49.6042 126.667 53.4167 122.667 56.375 117.375L62 107.312C64.1667 103.271 66.5208 99.75 69.0625 96.75C71.6458 93.7083 74.25 90.9167 76.875 88.375C79.5 85.8333 82 83.3125 84.375 80.8125C86.7917 78.2708 88.9375 75.5417 90.8125 72.625C92.6875 69.7083 94.1667 66.3542 95.25 62.5625C96.375 58.7292 96.9375 54.2292 96.9375 49.0625C96.9375 39.3125 94.9583 30.7917 91 23.5C87.0833 16.1667 81.5625 10.4583 74.4375 6.375C67.3542 2.29167 59.0833 0.25 49.625 0.25C39.9167 0.25 31.4167 2.3125 24.125 6.4375C16.8333 10.5208 11.1458 16.25 7.0625 23.625C2.97917 30.9583 0.9375 39.5208 0.9375 49.3125V105.25ZM10.375 104.625V49.3125C10.375 41.3542 12 34.4167 15.25 28.5C18.5417 22.5417 23.125 17.9167 29 14.625C34.9167 11.3333 41.7917 9.6875 49.625 9.6875C57.2083 9.6875 63.8333 11.3333 69.5 14.625C75.2083 17.9167 79.625 22.5208 82.75 28.4375C85.9167 34.3542 87.5 41.2292 87.5 49.0625C87.5 53.3958 86.9792 57.2083 85.9375 60.5C84.9375 63.75 83.5417 66.7083 81.75 69.375C79.9583 72.0417 77.9167 74.5833 75.625 77C73.3333 79.375 70.9167 81.8333 68.375 84.375C65.875 86.875 63.3542 89.6458 60.8125 92.6875C58.2708 95.6875 55.8542 99.1458 53.5625 103.062L48.125 112.375C45.9167 116.25 43.2292 119.125 40.0625 121C36.9375 122.875 33.2292 123.812 28.9375 123.812C23.1875 123.812 18.6458 122.104 15.3125 118.688C12.0208 115.271 10.375 110.583 10.375 104.625ZM20.1875 87.0625C20.1875 90.3125 21.2917 92.9375 23.5 94.9375C25.75 96.8958 28.7083 97.875 32.375 97.875C37.0833 97.8333 40.8958 96.0625 43.8125 92.5625C46.7708 89.0625 48.25 84.7917 48.25 79.75C48.25 76.1667 47.6042 73.1042 46.3125 70.5625C45.0625 67.9792 43.5208 65.7083 41.6875 63.75C39.8542 61.7917 38 59.9583 36.125 58.25C34.2917 56.5 32.75 54.6667 31.5 52.75C30.25 50.8333 29.625 48.6042 29.625 46.0625C29.625 42.7708 30.4583 39.8542 32.125 37.3125C33.7917 34.7292 36.1042 32.7083 39.0625 31.25C42.0625 29.75 45.5625 29 49.5625 29C55.6042 29 60.4375 30.8125 64.0625 34.4375C67.6875 38.0625 69.5 42.8958 69.5 48.9375C69.5 50.2292 69.9583 51.3542 70.875 52.3125C71.8333 53.2292 72.9375 53.6875 74.1875 53.6875C75.4792 53.6875 76.5833 53.2292 77.5 52.3125C78.4583 51.3542 78.9375 50.2292 78.9375 48.9375C78.9375 43.0625 77.7083 37.9375 75.25 33.5625C72.7917 29.1458 69.3542 25.7083 64.9375 23.25C60.5625 20.7917 55.4375 19.5625 49.5625 19.5625C43.6875 19.5625 38.5417 20.7083 34.125 23C29.75 25.25 26.3333 28.375 23.875 32.375C21.4167 36.3333 20.1875 40.8958 20.1875 46.0625C20.1875 49.4375 20.8333 52.3333 22.125 54.75C23.4167 57.125 24.8958 59.1875 26.5625 60.9375C28.2708 62.6458 29.7708 64.2292 31.0625 65.6875C32.3542 67.1458 33 68.625 33 70.125C33 71.4583 32.5625 72.5417 31.6875 73.375C30.8125 74.2083 29.7292 74.9792 28.4375 75.6875C27.1875 76.3542 25.9167 77.125 24.625 78C23.375 78.875 22.3125 80.0208 21.4375 81.4375C20.6042 82.8542 20.1875 84.7292 20.1875 87.0625Z" fill="white"/>
</svg>
