<svg width="18" height="17" viewBox="0 0 18 17" fill="none" xmlns="http://www.w3.org/2000/svg">
<path d="M1.75 3.78906C2.14062 3.78906 2.47396 3.65104 2.75 3.375C3.02604 3.09896 3.16406 2.76302 3.16406 2.36719C3.16406 1.97656 3.02604 1.64323 2.75 1.36719C2.47396 1.09115 2.14062 0.953125 1.75 0.953125C1.34896 0.953125 1.00781 1.09115 0.726562 1.36719C0.450521 1.64323 0.3125 1.97656 0.3125 2.36719C0.3125 2.76302 0.450521 3.09896 0.726562 3.375C1.0026 3.65104 1.34375 3.78906 1.75 3.78906ZM1.75 7.86719C2.14062 7.86719 2.47396 7.72917 2.75 7.45312C3.02604 7.17708 3.16406 6.84115 3.16406 6.44531C3.16406 6.04427 3.02604 5.70573 2.75 5.42969C2.47396 5.15365 2.14062 5.01562 1.75 5.01562C1.34375 5.01562 1.0026 5.15365 0.726562 5.42969C0.450521 5.70573 0.3125 6.04427 0.3125 6.44531C0.3125 6.84115 0.450521 7.17708 0.726562 7.45312C1.0026 7.72917 1.34375 7.86719 1.75 7.86719ZM1.75 11.9531C2.01042 11.9531 2.2474 11.888 2.46094 11.7578C2.67448 11.6276 2.84375 11.4557 2.96875 11.2422C3.09896 11.0234 3.16406 10.7812 3.16406 10.5156C3.16406 10.125 3.02604 9.79167 2.75 9.51562C2.47396 9.23958 2.14062 9.10156 1.75 9.10156C1.48438 9.10156 1.24219 9.16667 1.02344 9.29688C0.804688 9.42188 0.630208 9.59115 0.5 9.80469C0.375 10.0182 0.3125 10.2552 0.3125 10.5156C0.3125 10.9167 0.450521 11.2578 0.726562 11.5391C1.0026 11.8151 1.34375 11.9531 1.75 11.9531ZM1.75 16.0156C2.14062 16.0156 2.47396 15.8776 2.75 15.6016C3.02604 15.3255 3.16406 14.9922 3.16406 14.6016C3.16406 14.2057 3.02604 13.8698 2.75 13.5938C2.47396 13.3177 2.14062 13.1797 1.75 13.1797C1.34375 13.1797 1.0026 13.3177 0.726562 13.5938C0.450521 13.8646 0.3125 14.2005 0.3125 14.6016C0.3125 14.9922 0.450521 15.3255 0.726562 15.6016C1.00781 15.8776 1.34896 16.0156 1.75 16.0156ZM5.6875 13.1484C5.6875 13.8672 5.82812 14.4922 6.10938 15.0234C6.39062 15.5547 6.78906 15.9635 7.30469 16.25C7.82031 16.5417 8.42969 16.6875 9.13281 16.6875C9.91406 16.6875 10.5964 16.5156 11.1797 16.1719C11.763 15.8281 12.2396 15.3255 12.6094 14.6641L13.3125 13.4062C13.5885 12.9062 13.8854 12.4661 14.2031 12.0859C14.526 11.7057 14.8516 11.3568 15.1797 11.0391C15.5078 10.7214 15.8203 10.4062 16.1172 10.0938C16.4193 9.77604 16.6875 9.4349 16.9219 9.07031C17.1562 8.70573 17.3411 8.28646 17.4766 7.8125C17.6172 7.33854 17.6875 6.77865 17.6875 6.13281C17.6875 4.90885 17.4401 3.84115 16.9453 2.92969C16.4557 2.01302 15.7656 1.29948 14.875 0.789062C13.9896 0.278646 12.9557 0.0234375 11.7734 0.0234375C10.5599 0.0234375 9.49479 0.28125 8.57812 0.796875C7.66667 1.30729 6.95573 2.02344 6.44531 2.94531C5.9401 3.86198 5.6875 4.93229 5.6875 6.15625V13.1484ZM7.96875 10.9922C7.96875 10.6901 8.02344 10.4479 8.13281 10.2656C8.2474 10.0781 8.38542 9.92708 8.54688 9.8125C8.71354 9.69792 8.88021 9.59635 9.04688 9.50781C9.21354 9.41927 9.35156 9.32292 9.46094 9.21875C9.57031 9.11458 9.625 8.97656 9.625 8.80469C9.625 8.60677 9.54167 8.41406 9.375 8.22656C9.20833 8.03906 9.01562 7.83333 8.79688 7.60938C8.57812 7.38542 8.38542 7.1224 8.21875 6.82031C8.05208 6.51302 7.96875 6.14062 7.96875 5.70312C7.96875 5.04167 8.1276 4.45312 8.44531 3.9375C8.76302 3.42188 9.20573 3.01823 9.77344 2.72656C10.3411 2.4349 11.0026 2.28906 11.7578 2.28906C12.5182 2.28906 13.1823 2.44792 13.75 2.76562C14.3177 3.07812 14.7604 3.51823 15.0781 4.08594C15.3958 4.65365 15.5547 5.31771 15.5547 6.07812C15.5547 6.24479 15.4922 6.38802 15.3672 6.50781C15.2474 6.6276 15.1042 6.6875 14.9375 6.6875C14.776 6.6875 14.6328 6.6276 14.5078 6.50781C14.388 6.38802 14.3281 6.24479 14.3281 6.07812C14.3281 5.30208 14.0938 4.68229 13.625 4.21875C13.1615 3.75 12.5391 3.51562 11.7578 3.51562C11.2474 3.51562 10.7995 3.60938 10.4141 3.79688C10.0286 3.98438 9.72917 4.24479 9.51562 4.57812C9.30208 4.90625 9.19531 5.28125 9.19531 5.70312C9.19531 6.03125 9.27604 6.31771 9.4375 6.5625C9.59896 6.80729 9.79948 7.04167 10.0391 7.26562C10.2786 7.48958 10.5156 7.72917 10.75 7.98438C10.9896 8.23438 11.1901 8.52344 11.3516 8.85156C11.513 9.17969 11.5938 9.57812 11.5938 10.0469C11.5938 10.474 11.5078 10.8646 11.3359 11.2188C11.1641 11.5729 10.9245 11.8568 10.6172 12.0703C10.3151 12.2786 9.96094 12.3828 9.55469 12.3828C9.08073 12.3828 8.69792 12.2552 8.40625 12C8.11458 11.7448 7.96875 11.4089 7.96875 10.9922Z" fill="white"/>
</svg>
