<?xml version="1.0" encoding="UTF-8"?>
<svg xmlns="http://www.w3.org/2000/svg" xmlns:xlink="http://www.w3.org/1999/xlink" width="24" height="34" viewBox="0 0 24 34" version="1.1">
<g id="surface1">
<path style=" stroke:none;fill-rule:nonzero;fill:rgb(100%,100%,100%);fill-opacity:1;" d="M 0 26.8125 C 0 28.25 0.28125 29.496094 0.84375 30.546875 C 1.40625 31.609375 2.203125 32.425781 3.234375 33 C 4.265625 33.582031 5.484375 33.875 6.890625 33.875 C 8.464844 33.875 9.832031 33.53125 11 32.84375 C 12.167969 32.167969 13.113281 31.167969 13.84375 29.84375 L 15.25 27.328125 C 15.800781 26.316406 16.394531 25.4375 17.03125 24.6875 C 17.675781 23.925781 18.328125 23.230469 18.984375 22.59375 C 19.640625 21.957031 20.265625 21.328125 20.859375 20.703125 C 21.464844 20.066406 22 19.386719 22.46875 18.65625 C 22.9375 17.925781 23.308594 17.089844 23.578125 16.140625 C 23.859375 15.183594 24 14.058594 24 12.765625 C 24 10.328125 23.503906 8.199219 22.515625 6.375 C 21.535156 4.542969 20.15625 3.113281 18.375 2.09375 C 16.605469 1.074219 14.535156 0.5625 12.171875 0.5625 C 9.746094 0.5625 7.613281 1.078125 5.78125 2.109375 C 3.957031 3.128906 2.535156 4.5625 1.515625 6.40625 C 0.503906 8.238281 0 10.378906 0 12.828125 Z M 4.5625 22.484375 C 4.5625 21.878906 4.671875 21.394531 4.890625 21.03125 C 5.121094 20.667969 5.394531 20.371094 5.71875 20.140625 C 6.050781 19.910156 6.386719 19.707031 6.71875 19.53125 C 7.050781 19.355469 7.328125 19.160156 7.546875 18.953125 C 7.777344 18.734375 7.890625 18.453125 7.890625 18.109375 C 7.890625 17.722656 7.71875 17.34375 7.375 16.96875 C 7.042969 16.59375 6.65625 16.183594 6.21875 15.734375 C 5.78125 15.285156 5.394531 14.761719 5.0625 14.15625 C 4.730469 13.542969 4.5625 12.796875 4.5625 11.921875 C 4.5625 10.589844 4.878906 9.410156 5.515625 8.390625 C 6.152344 7.359375 7.035156 6.550781 8.171875 5.96875 C 9.308594 5.375 10.628906 5.078125 12.140625 5.078125 C 13.660156 5.078125 14.988281 5.394531 16.125 6.03125 C 17.261719 6.667969 18.144531 7.550781 18.78125 8.6875 C 19.417969 9.824219 19.734375 11.144531 19.734375 12.65625 C 19.734375 13 19.609375 13.292969 19.359375 13.53125 C 19.121094 13.769531 18.832031 13.890625 18.5 13.890625 C 18.175781 13.890625 17.890625 13.769531 17.640625 13.53125 C 17.402344 13.292969 17.28125 13 17.28125 12.65625 C 17.28125 11.113281 16.8125 9.875 15.875 8.9375 C 14.949219 8 13.703125 7.53125 12.140625 7.53125 C 11.121094 7.53125 10.222656 7.722656 9.453125 8.109375 C 8.683594 8.484375 8.082031 9.003906 7.65625 9.671875 C 7.230469 10.328125 7.015625 11.078125 7.015625 11.921875 C 7.015625 12.566406 7.175781 13.140625 7.5 13.640625 C 7.824219 14.128906 8.222656 14.597656 8.703125 15.046875 C 9.183594 15.496094 9.65625 15.96875 10.125 16.46875 C 10.605469 16.96875 11.003906 17.550781 11.328125 18.21875 C 11.652344 18.875 11.8125 19.667969 11.8125 20.59375 C 11.8125 21.457031 11.640625 22.246094 11.296875 22.953125 C 10.953125 23.660156 10.472656 24.222656 9.859375 24.640625 C 9.253906 25.058594 8.546875 25.269531 7.734375 25.28125 C 6.785156 25.28125 6.019531 25.027344 5.4375 24.515625 C 4.855469 24.003906 4.5625 23.328125 4.5625 22.484375 Z M 4.5625 22.484375 "/>
</g>
</svg>
