<svg width="17" height="16" viewBox="0 0 17 16" fill="none" xmlns="http://www.w3.org/2000/svg">
<path d="M14.1406 11.8281C14.9688 10.9167 15.6094 9.98438 16.0625 9.03125C16.5208 8.07812 16.75 7.11719 16.75 6.14844C16.75 5.45573 16.638 4.82292 16.4141 4.25C16.1953 3.67188 15.888 3.17188 15.4922 2.75C15.1016 2.32812 14.6406 2.0026 14.1094 1.77344C13.5833 1.54427 13.013 1.42969 12.3984 1.42969C11.638 1.42969 10.9688 1.625 10.3906 2.01562C9.8125 2.40104 9.34635 2.91667 8.99219 3.5625C8.64323 2.92188 8.17969 2.40625 7.60156 2.01562C7.02344 1.625 6.35156 1.42969 5.58594 1.42969C5.03906 1.42969 4.52604 1.52344 4.04688 1.71094L14.1406 11.8281ZM11.9062 13.8906L1.79688 3.77344C1.61979 4.11198 1.48177 4.48177 1.38281 4.88281C1.28385 5.27865 1.23438 5.70052 1.23438 6.14844C1.23438 7.25781 1.52604 8.35677 2.10938 9.44531C2.69792 10.5286 3.53125 11.5859 4.60938 12.6172C5.6875 13.6432 6.96094 14.625 8.42969 15.5625C8.51302 15.6146 8.60677 15.6615 8.71094 15.7031C8.82031 15.75 8.91406 15.7734 8.99219 15.7734C9.07552 15.7734 9.16927 15.75 9.27344 15.7031C9.38281 15.6615 9.47917 15.6146 9.5625 15.5625C9.97917 15.2917 10.3828 15.0156 10.7734 14.7344C11.1693 14.4531 11.5469 14.1719 11.9062 13.8906ZM14.7812 15.4375C14.901 15.5573 15.0443 15.6172 15.2109 15.6172C15.3776 15.6172 15.5182 15.5573 15.6328 15.4375C15.7474 15.3177 15.8047 15.1745 15.8047 15.0078C15.8099 14.8464 15.7526 14.7057 15.6328 14.5859L1.53906 0.5C1.41927 0.385417 1.27604 0.328125 1.10938 0.328125C0.942708 0.322917 0.799479 0.380208 0.679688 0.5C0.565104 0.614583 0.507812 0.757812 0.507812 0.929688C0.507812 1.09635 0.565104 1.23698 0.679688 1.35156L14.7812 15.4375Z" fill="white"/>
</svg>
