<svg xmlns="http://www.w3.org/2000/svg" width="24" height="24"><path style="stroke:none;fill-rule:nonzero;fill:#fff;fill-opacity:1" d="M2.332 5.348c.523 0 .965-.196 1.336-.582.36-.375.559-.891.55-1.426a1.99 1.99 0 0 0-.55-1.41 1.766 1.766 0 0 0-1.336-.586c-.535 0-.988.195-1.363.586a1.99 1.99 0 0 0-.551 1.41c0 .562.184 1.035.55 1.426a1.81 1.81 0 0 0 1.364.582Zm0 5.757c.523 0 .965-.195 1.336-.582.36-.375.559-.89.55-1.425a2.012 2.012 0 0 0-.55-1.434 1.782 1.782 0 0 0-1.336-.582c-.539 0-.996.191-1.363.582a2.012 2.012 0 0 0-.551 1.434c0 .558.184 1.035.55 1.425a1.81 1.81 0 0 0 1.364.582Zm0 5.77c.348 0 .664-.09.95-.277.28-.176.511-.43.675-.727.176-.312.266-.664.262-1.027 0-.551-.184-1.02-.551-1.41a1.782 1.782 0 0 0-1.336-.582c-.352 0-.676.09-.969.273a1.98 1.98 0 0 0-.695.719 2.022 2.022 0 0 0-.25 1 2.05 2.05 0 0 0 .55 1.445c.36.383.852.594 1.364.586Zm0 5.734c.523 0 .965-.191 1.336-.586.367-.386.55-.859.55-1.41a2.011 2.011 0 0 0-.55-1.422 1.768 1.768 0 0 0-1.336-.582c-.539 0-.996.192-1.363.582-.367.38-.551.856-.551 1.422 0 .551.184 1.024.55 1.41.376.395.829.586 1.364.586Zm5.25-4.047c0 1.012.188 1.899.563 2.645a4.08 4.08 0 0 0 1.593 1.734c.688.41 1.5.618 2.438.618 1.043 0 1.953-.243 2.73-.73.778-.481 1.414-1.192 1.906-2.13l.938-1.773c.367-.707.766-1.328 1.188-1.863.43-.536.863-1.032 1.3-1.477.438-.45.856-.895 1.25-1.336.399-.445.762-.93 1.075-1.445.328-.551.578-1.149.738-1.774.187-.672.281-1.46.281-2.375 0-1.726-.328-3.234-.988-4.52a7.307 7.307 0 0 0-2.762-3.023C18.652.391 17.273.031 15.699.031c-1.62 0-3.039.364-4.261 1.094a7.447 7.447 0 0 0-2.844 3.031C7.922 5.45 7.582 6.965 7.582 8.688Zm3.043-3.042c0-.426.074-.77.219-1.028.152-.265.336-.48.55-.64.223-.16.446-.301.668-.43.223-.125.407-.262.551-.406.149-.149.219-.344.219-.586 0-.278-.11-.551-.332-.817-.223-.265-.48-.554-.77-.87a5.021 5.021 0 0 1-.773-1.114c-.223-.434-.332-.961-.332-1.578 0-.934.21-1.766.637-2.492a4.424 4.424 0 0 1 1.77-1.707c.757-.414 1.64-.622 2.644-.622 1.015 0 1.902.227 2.656.672a4.617 4.617 0 0 1 1.773 1.868c.422.796.633 1.738.633 2.812a.817.817 0 0 1-.25.602.744.744 0 0 1-.57.257.797.797 0 0 1-.574-.254.847.847 0 0 1-.239-.605c0-1.098-.312-1.973-.937-2.625-.621-.664-1.45-.996-2.492-.996-.68 0-1.278.133-1.79.398a2.932 2.932 0 0 0-1.198 1.106 2.992 2.992 0 0 0-.426 1.586c0 .465.105.867.32 1.215.215.347.484.675.805.992.316.312.633.652.945 1.012.32.355.59.761.805 1.226.215.461.32 1.024.32 1.688 0 .601-.113 1.152-.344 1.652a2.992 2.992 0 0 1-.957 1.203 2.348 2.348 0 0 1-1.418.445c-.629 0-1.14-.183-1.531-.543-.387-.359-.582-.836-.582-1.421Zm0 0"/></svg>