<svg width="131" height="125" viewBox="0 0 131 125" fill="none" xmlns="http://www.w3.org/2000/svg">
<path d="M109.188 92.625C115.812 85.3333 120.938 77.875 124.562 70.25C128.229 62.625 130.062 54.9375 130.062 47.1875C130.062 41.6458 129.167 36.5833 127.375 32C125.625 27.375 123.167 23.375 120 20C116.875 16.625 113.188 14.0208 108.938 12.1875C104.729 10.3542 100.167 9.4375 95.25 9.4375C89.1667 9.4375 83.8125 11 79.1875 14.125C74.5625 17.2083 70.8333 21.3333 68 26.5C65.2083 21.375 61.5 17.25 56.875 14.125C52.25 11 46.875 9.4375 40.75 9.4375C36.375 9.4375 32.2708 10.1875 28.4375 11.6875L109.188 92.625ZM91.3125 109.125L10.4375 28.1875C9.02083 30.8958 7.91667 33.8542 7.125 37.0625C6.33333 40.2292 5.9375 43.6042 5.9375 47.1875C5.9375 56.0625 8.27083 64.8542 12.9375 73.5625C17.6458 82.2292 24.3125 90.6875 32.9375 98.9375C41.5625 107.146 51.75 115 63.5 122.5C64.1667 122.917 64.9167 123.292 65.75 123.625C66.625 124 67.375 124.188 68 124.188C68.6667 124.188 69.4167 124 70.25 123.625C71.125 123.292 71.8958 122.917 72.5625 122.5C75.8958 120.333 79.125 118.125 82.25 115.875C85.4167 113.625 88.4375 111.375 91.3125 109.125ZM114.312 121.5C115.271 122.458 116.417 122.938 117.75 122.938C119.083 122.938 120.208 122.458 121.125 121.5C122.042 120.542 122.5 119.396 122.5 118.062C122.542 116.771 122.083 115.646 121.125 114.688L8.375 2C7.41667 1.08333 6.27083 0.625 4.9375 0.625C3.60417 0.583333 2.45833 1.04167 1.5 2C0.583333 2.91667 0.125 4.0625 0.125 5.4375C0.125 6.77083 0.583333 7.89583 1.5 8.8125L114.312 121.5Z" fill="white"/>
</svg>
