<svg width="153" height="153" viewBox="0 0 153 153" fill="none" xmlns="http://www.w3.org/2000/svg">
<path d="M76.1875 136.062C84.3125 136.062 91.9375 134.521 99.0625 131.438C106.188 128.396 112.458 124.167 117.875 118.75C123.292 113.292 127.521 107 130.562 99.875C133.646 92.7083 135.188 85.0625 135.188 76.9375C135.188 68.8125 133.646 61.1875 130.562 54.0625C127.521 46.8958 123.292 40.6042 117.875 35.1875C112.458 29.7292 106.188 25.4792 99.0625 22.4375C91.9375 19.3542 84.3125 17.8125 76.1875 17.8125C68.0625 17.8125 60.4375 19.3542 53.3125 22.4375C46.1875 25.4792 39.9167 29.7292 34.5 35.1875C29.0833 40.6042 24.8333 46.8958 21.75 54.0625C18.7083 61.1875 17.1875 68.8125 17.1875 76.9375C17.1875 85.0625 18.7083 92.7083 21.75 99.875C24.8333 107 29.0833 113.292 34.5 118.75C39.9167 124.167 46.1875 128.396 53.3125 131.438C60.4375 134.521 68.0625 136.062 76.1875 136.062ZM76.1875 125.875C69.3958 125.875 63.0625 124.625 57.1875 122.125C51.3542 119.625 46.2292 116.146 41.8125 111.688C37.3958 107.229 33.9375 102.042 31.4375 96.125C28.9375 90.1667 27.6875 83.7708 27.6875 76.9375C27.6875 70.1042 28.9375 63.7292 31.4375 57.8125C33.9375 51.8958 37.3958 46.7083 41.8125 42.25C46.2292 37.75 51.3542 34.25 57.1875 31.75C63.0625 29.25 69.3958 28 76.1875 28C82.9792 28 89.2917 29.25 95.125 31.75C101 34.25 106.146 37.75 110.562 42.25C114.979 46.7083 118.438 51.8958 120.938 57.8125C123.438 63.7292 124.688 70.1042 124.688 76.9375C124.688 83.7708 123.438 90.1667 120.938 96.125C118.438 102.042 114.979 107.229 110.562 111.688C106.146 116.146 101 119.625 95.125 122.125C89.2917 124.625 82.9792 125.875 76.1875 125.875ZM76.1875 152.938C77.4375 152.938 78.4792 152.5 79.3125 151.625C80.1875 150.75 80.625 149.688 80.625 148.438V5.4375C80.625 4.1875 80.1875 3.125 79.3125 2.25C78.4792 1.375 77.4375 0.9375 76.1875 0.9375C74.9375 0.9375 73.875 1.375 73 2.25C72.125 3.125 71.6875 4.1875 71.6875 5.4375V148.438C71.6875 149.688 72.125 150.75 73 151.625C73.875 152.5 74.9375 152.938 76.1875 152.938ZM129.938 130.688C130.812 129.812 131.25 128.75 131.25 127.5C131.25 126.292 130.812 125.229 129.938 124.312L28.8125 23.1875C27.8958 22.3125 26.8125 21.875 25.5625 21.875C24.3542 21.875 23.3125 22.3125 22.4375 23.1875C21.5625 24.0625 21.125 25.125 21.125 26.375C21.125 27.5833 21.5625 28.6458 22.4375 29.5625L123.562 130.688C124.479 131.562 125.542 132 126.75 132C128 132.042 129.062 131.604 129.938 130.688ZM4.6875 81.4375H147.688C148.938 81.4375 150 81 150.875 80.125C151.75 79.25 152.188 78.1875 152.188 76.9375C152.188 75.6875 151.75 74.6458 150.875 73.8125C150 72.9375 148.938 72.5 147.688 72.5H4.6875C3.4375 72.5 2.375 72.9375 1.5 73.8125C0.625 74.6458 0.1875 75.6875 0.1875 76.9375C0.1875 78.1875 0.625 79.25 1.5 80.125C2.375 81 3.4375 81.4375 4.6875 81.4375ZM28.8125 130.688L129.938 29.5625C130.812 28.6458 131.25 27.5833 131.25 26.375C131.25 25.125 130.812 24.0625 129.938 23.1875C129.062 22.3125 128 21.875 126.75 21.875C125.542 21.875 124.479 22.3125 123.562 23.1875L22.4375 124.312C21.5625 125.229 21.125 126.292 21.125 127.5C21.125 128.75 21.5625 129.812 22.4375 130.688C23.3125 131.604 24.3542 132.042 25.5625 132C26.8125 132 27.8958 131.562 28.8125 130.688Z" fill="white"/>
</svg>
