<?xml version="1.0" encoding="UTF-8"?>
<svg xmlns="http://www.w3.org/2000/svg" xmlns:xlink="http://www.w3.org/1999/xlink" width="24" height="28.5" viewBox="0 0 24 28.5" version="1.1">
<g id="surface1">
<path style=" stroke:none;fill-rule:nonzero;fill:rgb(100%,100%,100%);fill-opacity:1;" d="M 22.207031 21.515625 C 22.753906 21.203125 23.167969 20.847656 23.449219 20.449219 C 23.738281 20.042969 23.882812 19.414062 23.882812 18.5625 L 23.882812 9.445312 C 23.882812 8.625 23.742188 8.023438 23.460938 7.640625 C 23.179688 7.25 22.789062 6.910156 22.289062 6.621094 L 14.121094 1.980469 C 13.417969 1.574219 12.714844 1.367188 12.011719 1.359375 C 11.308594 1.351562 10.59375 1.558594 9.867188 1.980469 L 1.710938 6.621094 C 1.210938 6.910156 0.816406 7.25 0.527344 7.640625 C 0.246094 8.023438 0.105469 8.625 0.105469 9.445312 L 0.105469 18.5625 C 0.105469 19.414062 0.25 20.042969 0.539062 20.449219 C 0.828125 20.847656 1.242188 21.203125 1.78125 21.515625 L 9.925781 26.132812 C 11.308594 26.921875 12.6875 26.921875 14.0625 26.132812 Z M 12 3.375 L 12 24.726562 C 11.59375 24.726562 11.160156 24.59375 10.699219 24.328125 L 2.894531 19.886719 C 2.558594 19.699219 2.324219 19.503906 2.191406 19.300781 C 2.066406 19.089844 2.003906 18.828125 2.003906 18.515625 L 2.003906 9.539062 C 2.003906 9.242188 2.066406 9 2.191406 8.8125 C 2.316406 8.617188 2.527344 8.4375 2.824219 8.273438 L 10.699219 3.761719 C 11.152344 3.503906 11.585938 3.375 12 3.375 Z M 12 3.375 "/>
</g>
</svg>
