<svg width="16" height="19" viewBox="0 0 16 19" fill="none" xmlns="http://www.w3.org/2000/svg">
<path d="M1.20312 14.2891L6.63281 17.3672C7.54427 17.8828 8.45312 17.8828 9.35938 17.3672L14.7891 14.2891C15.1484 14.0807 15.4193 13.8464 15.6016 13.5859C15.7891 13.3203 15.8828 12.9089 15.8828 12.3516V6.27344C15.8828 5.73177 15.7917 5.33594 15.6094 5.08594C15.4271 4.83594 15.1719 4.61458 14.8438 4.42188L9.39844 1.32812C8.92969 1.05729 8.46354 0.921875 8 0.921875C7.53646 0.921875 7.06771 1.05729 6.59375 1.32812L1.15625 4.42188C0.822917 4.61458 0.565104 4.83594 0.382812 5.08594C0.200521 5.33594 0.109375 5.73177 0.109375 6.27344V12.3516C0.109375 12.9089 0.203125 13.3203 0.390625 13.5859C0.578125 13.8464 0.848958 14.0807 1.20312 14.2891Z" fill="white"/>
</svg>
