<svg xmlns="http://www.w3.org/2000/svg" width="24" height="24"><path style="stroke:none;fill-rule:nonzero;fill:#fff;fill-opacity:1" d="m1.781 18.117 8.145 3.89c1.383.665 2.761.665 4.136 0l8.145-3.89c.547-.262.961-.562 1.242-.898.29-.34.434-.871.434-1.586v-7.68c0-.691-.14-1.195-.422-1.52-.281-.328-.672-.613-1.172-.859l-8.168-3.906c-.726-.355-1.441-.531-2.144-.523-.696.007-1.399.18-2.11.523L1.711 5.574c-.5.246-.895.531-1.184.86-.28.324-.422.828-.422 1.52v7.679c0 .715.145 1.246.434 1.586.29.336.703.636 1.242.898ZM12 2.844c.414 0 .848.105 1.3.324l7.864 3.797c.297.14.508.293.633.457.125.156.187.363.187.61v7.562c0 .261-.066.48-.199.66-.125.172-.351.336-.68.492l-7.804 3.742c-.469.223-.903.336-1.301.336Zm0 0"/></svg>