<?xml version="1.0" encoding="UTF-8"?>
<svg xmlns="http://www.w3.org/2000/svg" xmlns:xlink="http://www.w3.org/1999/xlink" width="24" height="28.5" viewBox="0 0 24 28.5" version="1.1">
<g id="surface1">
<path style=" stroke:none;fill-rule:nonzero;fill:rgb(100%,100%,100%);fill-opacity:1;" d="M 1.804688 21.433594 L 9.949219 26.050781 C 11.316406 26.824219 12.679688 26.824219 14.039062 26.050781 L 22.183594 21.433594 C 22.722656 21.121094 23.128906 20.769531 23.402344 20.378906 C 23.683594 19.980469 23.824219 19.363281 23.824219 18.527344 L 23.824219 9.410156 C 23.824219 8.597656 23.6875 8.003906 23.414062 7.628906 C 23.140625 7.253906 22.757812 6.921875 22.265625 6.632812 L 14.097656 1.992188 C 13.394531 1.585938 12.695312 1.382812 12 1.382812 C 11.304688 1.382812 10.601562 1.585938 9.890625 1.992188 L 1.734375 6.632812 C 1.234375 6.921875 0.847656 7.253906 0.574219 7.628906 C 0.300781 8.003906 0.164062 8.597656 0.164062 9.410156 L 0.164062 18.527344 C 0.164062 19.363281 0.304688 19.980469 0.585938 20.378906 C 0.867188 20.769531 1.273438 21.121094 1.804688 21.433594 Z M 1.804688 21.433594 "/>
</g>
</svg>
