<svg width="128" height="139" viewBox="0 0 128 139" fill="none" xmlns="http://www.w3.org/2000/svg">
<path d="M9.875 107.75L53.3125 132.375C60.6458 136.583 68 136.583 75.375 132.375L118.812 107.75C121.729 106.083 123.938 104.188 125.438 102.062C126.979 99.8958 127.75 96.5417 127.75 92V43.375C127.75 38.9583 127 35.7292 125.5 33.6875C124 31.6458 121.917 29.8542 119.25 28.3125L75.6875 3.5625C71.8125 1.3125 68 0.208333 64.25 0.25C60.5417 0.291667 56.7917 1.39583 53 3.5625L9.5 28.3125C6.83333 29.8542 4.72917 31.6458 3.1875 33.6875C1.6875 35.7292 0.9375 38.9583 0.9375 43.375V92C0.9375 96.5417 1.70833 99.8958 3.25 102.062C4.79167 104.188 7 106.083 9.875 107.75ZM117.625 67.875V91.6875C117.625 93.3958 117.271 94.8125 116.562 95.9375C115.896 97.0208 114.688 98.0625 112.938 99.0625L71.3125 122.688C68.8125 124.146 66.4583 124.854 64.25 124.812C62.0833 124.771 59.8125 124.062 57.4375 122.688L15.8125 99.0625C14.0208 98.0625 12.7708 97.0208 12.0625 95.9375C11.3958 94.8125 11.0625 93.3958 11.0625 91.6875V67.875H117.625Z" fill="white"/>
</svg>
