<svg xmlns="http://www.w3.org/2000/svg" width="24" height="24"><path style="stroke:none;fill-rule:nonzero;fill:#fff;fill-opacity:1" d="m1.781 18.117 8.145 3.89c1.375.665 2.754.665 4.136 0l8.145-3.89c.547-.262.961-.562 1.242-.898.29-.34.434-.871.434-1.586v-7.68c0-.695-.14-1.207-.422-1.527-.281-.324-.672-.606-1.172-.852l-8.168-3.906c-.726-.355-1.441-.531-2.144-.523-.696.007-1.399.18-2.11.523L1.711 5.574c-.5.246-.895.528-1.184.852-.28.32-.422.832-.422 1.527v7.68c0 .715.145 1.246.434 1.586.29.336.703.636 1.242.898Zm20.203-6.293v3.758c0 .27-.066.492-.199.672-.125.172-.351.336-.68.492l-7.804 3.73c-.469.231-.91.344-1.324.337-.407-.008-.832-.118-1.278-.336l-7.804-3.73c-.336-.157-.57-.321-.704-.493-.125-.18-.187-.402-.187-.672v-3.758Zm0 0"/></svg>