<svg width="97" height="130" viewBox="0 0 97 130" fill="none" xmlns="http://www.w3.org/2000/svg">
<path d="M0.9375 17.9375V111.812C0.9375 117.729 2.39583 122.167 5.3125 125.125C8.27083 128.083 12.6667 129.562 18.5 129.562H79.25C85.0833 129.562 89.4583 128.083 92.375 125.125C95.2917 122.167 96.75 117.729 96.75 111.812V17.9375C96.75 12.0208 95.2917 7.58333 92.375 4.625C89.4583 1.66667 85.0833 0.1875 79.25 0.1875H18.5C12.625 0.1875 8.22917 1.66667 5.3125 4.625C2.39583 7.58333 0.9375 12.0208 0.9375 17.9375ZM11 18.0625C11 15.4792 11.6667 13.5417 13 12.25C14.3333 10.9167 16.2917 10.25 18.875 10.25H78.875C81.4583 10.25 83.3958 10.9167 84.6875 12.25C86.0208 13.5417 86.6875 15.4792 86.6875 18.0625V111.688C86.6875 114.229 86.0208 116.167 84.6875 117.5C83.3542 118.833 81.4167 119.5 78.875 119.5H18.875C16.2917 119.5 14.3333 118.833 13 117.5C11.6667 116.167 11 114.229 11 111.688V18.0625ZM48.875 109.438C53.5833 109.438 57.8542 108.312 61.6875 106.062C65.5625 103.771 68.6458 100.708 70.9375 96.875C73.2292 93 74.375 88.6875 74.375 83.9375C74.375 79.1875 73.2292 74.8958 70.9375 71.0625C68.6458 67.2292 65.5625 64.1667 61.6875 61.875C57.8542 59.5833 53.5833 58.4375 48.875 58.4375C44.1667 58.3958 39.875 59.5208 36 61.8125C32.125 64.1042 29.0417 67.1875 26.75 71.0625C24.5 74.8958 23.375 79.1875 23.375 83.9375C23.375 88.6875 24.5 93 26.75 96.875C29.0417 100.708 32.125 103.771 36 106.062C39.875 108.312 44.1667 109.438 48.875 109.438ZM48.875 94.75C45.875 94.75 43.3125 93.7083 41.1875 91.625C39.1042 89.5 38.0625 86.9375 38.0625 83.9375C38.0625 80.8542 39.0833 78.2708 41.125 76.1875C43.2083 74.1042 45.7917 73.0625 48.875 73.0625C51.9167 73.0625 54.4792 74.1042 56.5625 76.1875C58.6458 78.2708 59.6875 80.8542 59.6875 83.9375C59.6875 86.9375 58.6458 89.5 56.5625 91.625C54.4792 93.7083 51.9167 94.75 48.875 94.75ZM48.875 48.625C51.4583 48.625 53.8333 48 56 46.75C58.1667 45.4583 59.8958 43.75 61.1875 41.625C62.4792 39.4583 63.1042 37.0625 63.0625 34.4375C63.0208 30.4792 61.625 27.1458 58.875 24.4375C56.125 21.7292 52.7917 20.3542 48.875 20.3125C46.25 20.2708 43.8542 20.8958 41.6875 22.1875C39.5625 23.4375 37.8542 25.1458 36.5625 27.3125C35.3125 29.4375 34.6875 31.8125 34.6875 34.4375C34.6875 37.0625 35.3125 39.4583 36.5625 41.625C37.8542 43.75 39.5625 45.4583 41.6875 46.75C43.8542 48 46.25 48.625 48.875 48.625ZM48.875 41.6875C46.8333 41.6875 45.1042 40.9792 43.6875 39.5625C42.3125 38.1042 41.625 36.3958 41.625 34.4375C41.625 32.3542 42.3125 30.625 43.6875 29.25C45.1042 27.875 46.8333 27.1875 48.875 27.1875C50.8333 27.1875 52.5208 27.8958 53.9375 29.3125C55.3958 30.7292 56.125 32.4375 56.125 34.4375C56.125 36.3958 55.4167 38.1042 54 39.5625C52.5833 40.9792 50.875 41.6875 48.875 41.6875Z" fill="white"/>
</svg>
