<svg width="12" height="17" viewBox="0 0 12 17" fill="none" xmlns="http://www.w3.org/2000/svg">
<path d="M0.0078125 2.49219V14.2266C0.0078125 14.9661 0.190104 15.5208 0.554688 15.8906C0.924479 16.2604 1.47396 16.4453 2.20312 16.4453H9.79688C10.526 16.4453 11.0729 16.2604 11.4375 15.8906C11.8021 15.5208 11.9844 14.9661 11.9844 14.2266V2.49219C11.9844 1.7526 11.8021 1.19792 11.4375 0.828125C11.0729 0.458333 10.526 0.273438 9.79688 0.273438H2.20312C1.46875 0.273438 0.919271 0.458333 0.554688 0.828125C0.190104 1.19792 0.0078125 1.7526 0.0078125 2.49219ZM1.26562 2.50781C1.26562 2.1849 1.34896 1.94271 1.51562 1.78125C1.68229 1.61458 1.92708 1.53125 2.25 1.53125H9.75C10.0729 1.53125 10.3151 1.61458 10.4766 1.78125C10.6432 1.94271 10.7266 2.1849 10.7266 2.50781V14.2109C10.7266 14.5286 10.6432 14.7708 10.4766 14.9375C10.3099 15.1042 10.0677 15.1875 9.75 15.1875H2.25C1.92708 15.1875 1.68229 15.1042 1.51562 14.9375C1.34896 14.7708 1.26562 14.5286 1.26562 14.2109V2.50781ZM6 13.9297C6.58854 13.9297 7.1224 13.7891 7.60156 13.5078C8.08594 13.2214 8.47135 12.8385 8.75781 12.3594C9.04427 11.875 9.1875 11.3359 9.1875 10.7422C9.1875 10.1484 9.04427 9.61198 8.75781 9.13281C8.47135 8.65365 8.08594 8.27083 7.60156 7.98438C7.1224 7.69792 6.58854 7.55469 6 7.55469C5.41146 7.54948 4.875 7.6901 4.39062 7.97656C3.90625 8.26302 3.52083 8.64844 3.23438 9.13281C2.95312 9.61198 2.8125 10.1484 2.8125 10.7422C2.8125 11.3359 2.95312 11.875 3.23438 12.3594C3.52083 12.8385 3.90625 13.2214 4.39062 13.5078C4.875 13.7891 5.41146 13.9297 6 13.9297ZM6 12.0938C5.625 12.0938 5.30469 11.9635 5.03906 11.7031C4.77865 11.4375 4.64844 11.1172 4.64844 10.7422C4.64844 10.3568 4.77604 10.0339 5.03125 9.77344C5.29167 9.51302 5.61458 9.38281 6 9.38281C6.38021 9.38281 6.70052 9.51302 6.96094 9.77344C7.22135 10.0339 7.35156 10.3568 7.35156 10.7422C7.35156 11.1172 7.22135 11.4375 6.96094 11.7031C6.70052 11.9635 6.38021 12.0938 6 12.0938ZM6 6.32812C6.32292 6.32812 6.61979 6.25 6.89062 6.09375C7.16146 5.93229 7.3776 5.71875 7.53906 5.45312C7.70052 5.18229 7.77865 4.88281 7.77344 4.55469C7.76823 4.0599 7.59375 3.64323 7.25 3.30469C6.90625 2.96615 6.48958 2.79427 6 2.78906C5.67188 2.78385 5.3724 2.86198 5.10156 3.02344C4.83594 3.17969 4.6224 3.39323 4.46094 3.66406C4.30469 3.92969 4.22656 4.22656 4.22656 4.55469C4.22656 4.88281 4.30469 5.18229 4.46094 5.45312C4.6224 5.71875 4.83594 5.93229 5.10156 6.09375C5.3724 6.25 5.67188 6.32812 6 6.32812ZM6 5.46094C5.74479 5.46094 5.52865 5.3724 5.35156 5.19531C5.17969 5.01302 5.09375 4.79948 5.09375 4.55469C5.09375 4.29427 5.17969 4.07812 5.35156 3.90625C5.52865 3.73438 5.74479 3.64844 6 3.64844C6.24479 3.64844 6.45573 3.73698 6.63281 3.91406C6.8151 4.09115 6.90625 4.30469 6.90625 4.55469C6.90625 4.79948 6.81771 5.01302 6.64062 5.19531C6.46354 5.3724 6.25 5.46094 6 5.46094Z" fill="white"/>
</svg>
