<svg width="16" height="17" viewBox="0 0 16 17" fill="none" xmlns="http://www.w3.org/2000/svg">
<path d="M8 16.3281C9.08854 16.3281 10.112 16.1198 11.0703 15.7031C12.0339 15.2865 12.8828 14.7109 13.6172 13.9766C14.3516 13.2422 14.9271 12.3958 15.3438 11.4375C15.7604 10.474 15.9688 9.44792 15.9688 8.35938C15.9688 7.27083 15.7604 6.2474 15.3438 5.28906C14.9271 4.32552 14.3516 3.47656 13.6172 2.74219C12.8828 2.00781 12.0339 1.43229 11.0703 1.01562C10.1068 0.598958 9.08073 0.390625 7.99219 0.390625C6.90365 0.390625 5.8776 0.598958 4.91406 1.01562C3.95573 1.43229 3.10938 2.00781 2.375 2.74219C1.64583 3.47656 1.07292 4.32552 0.65625 5.28906C0.239583 6.2474 0.03125 7.27083 0.03125 8.35938C0.03125 9.44792 0.239583 10.474 0.65625 11.4375C1.07292 12.3958 1.64844 13.2422 2.38281 13.9766C3.11719 14.7109 3.96354 15.2865 4.92188 15.7031C5.88542 16.1198 6.91146 16.3281 8 16.3281ZM7.99219 8.97656C7.1849 8.97656 6.45573 8.88802 5.80469 8.71094C5.15365 8.53385 4.63542 8.29688 4.25 8C3.86458 7.69792 3.67188 7.36198 3.67188 6.99219C3.67188 6.63281 3.86458 6.30729 4.25 6.01562C4.63542 5.71875 5.15365 5.48438 5.80469 5.3125C6.45573 5.14062 7.1849 5.05469 7.99219 5.05469C8.79948 5.05469 9.53125 5.14062 10.1875 5.3125C10.8438 5.48438 11.362 5.71875 11.7422 6.01562C12.1276 6.30729 12.3203 6.63281 12.3203 6.99219C12.3203 7.36198 12.1276 7.69792 11.7422 8C11.362 8.29688 10.8438 8.53385 10.1875 8.71094C9.53125 8.88802 8.79948 8.97656 7.99219 8.97656ZM7.99219 11.6562C7.17969 11.6562 6.44792 11.5469 5.79688 11.3281C5.14583 11.1094 4.6276 10.8151 4.24219 10.4453C3.86198 10.0755 3.67188 9.66667 3.67188 9.21875V8.25C3.95312 8.52604 4.3151 8.76042 4.75781 8.95312C5.20573 9.14583 5.70573 9.29427 6.25781 9.39844C6.8099 9.5026 7.38802 9.55469 7.99219 9.55469C8.60156 9.55469 9.18229 9.5026 9.73438 9.39844C10.2917 9.29427 10.7917 9.14583 11.2344 8.95312C11.6823 8.76042 12.0443 8.52604 12.3203 8.25V9.21875C12.3203 9.66667 12.1302 10.0755 11.75 10.4453C11.3698 10.8151 10.8516 11.1094 10.1953 11.3281C9.54427 11.5469 8.8099 11.6562 7.99219 11.6562Z" fill="white"/>
</svg>
