<?xml version="1.0" encoding="UTF-8"?>
<svg xmlns="http://www.w3.org/2000/svg" xmlns:xlink="http://www.w3.org/1999/xlink" width="24" height="17.333333" viewBox="0 0 24 17.333333" version="1.1">
<g id="surface1">
<path style=" stroke:none;fill-rule:nonzero;fill:rgb(100%,100%,100%);fill-opacity:1;" d="M 11.988281 16.667969 C 13.503906 16.667969 14.910156 16.511719 16.207031 16.199219 C 17.507812 15.886719 18.640625 15.453125 19.613281 14.894531 C 20.585938 14.339844 21.34375 13.699219 21.886719 12.96875 C 22.433594 12.238281 22.707031 11.460938 22.707031 10.636719 L 22.707031 5.167969 L 21.03125 6.625 L 21.03125 10.636719 C 21.03125 11.441406 20.664062 12.171875 19.925781 12.832031 C 19.199219 13.484375 18.15625 14.011719 16.800781 14.40625 C 15.449219 14.796875 13.84375 14.988281 11.988281 14.988281 C 10.136719 14.988281 8.53125 14.796875 7.175781 14.40625 C 5.828125 14.011719 4.789062 13.484375 4.050781 12.832031 C 3.324219 12.171875 2.957031 11.441406 2.957031 10.636719 L 2.957031 6.625 L 1.292969 5.167969 L 1.292969 10.636719 C 1.292969 11.460938 1.5625 12.238281 2.105469 12.96875 C 2.644531 13.699219 3.402344 14.339844 4.375 14.894531 C 5.347656 15.453125 6.484375 15.886719 7.78125 16.199219 C 9.078125 16.511719 10.484375 16.667969 11.988281 16.667969 Z M 11.988281 10 C 13.488281 10 14.890625 9.875 16.1875 9.625 C 17.484375 9.375 18.621094 9.023438 19.59375 8.574219 C 20.574219 8.121094 21.335938 7.601562 21.886719 7.011719 C 22.433594 6.414062 22.707031 5.765625 22.707031 5.074219 C 22.707031 4.40625 22.433594 3.785156 21.886719 3.207031 C 21.335938 2.625 20.574219 2.117188 19.59375 1.6875 C 18.621094 1.25 17.484375 0.910156 16.1875 0.667969 C 14.890625 0.417969 13.488281 0.292969 11.988281 0.292969 C 10.488281 0.292969 9.089844 0.417969 7.792969 0.667969 C 6.5 0.910156 5.363281 1.25 4.386719 1.6875 C 3.414062 2.117188 2.652344 2.625 2.105469 3.207031 C 1.5625 3.785156 1.292969 4.40625 1.292969 5.074219 C 1.292969 5.765625 1.5625 6.414062 2.105469 7.011719 C 2.652344 7.601562 3.414062 8.121094 4.386719 8.574219 C 5.363281 9.023438 6.5 9.375 7.792969 9.625 C 9.089844 9.875 10.488281 10 11.988281 10 Z M 11.988281 8.324219 C 10.71875 8.324219 9.535156 8.238281 8.4375 8.074219 C 7.347656 7.90625 6.390625 7.675781 5.5625 7.386719 C 4.742188 7.085938 4.105469 6.742188 3.644531 6.355469 C 3.1875 5.957031 2.957031 5.53125 2.957031 5.074219 C 2.957031 4.636719 3.1875 4.230469 3.644531 3.855469 C 4.105469 3.480469 4.742188 3.148438 5.5625 2.863281 C 6.390625 2.578125 7.347656 2.359375 8.4375 2.207031 C 9.535156 2.046875 10.71875 1.96875 11.988281 1.96875 C 13.261719 1.96875 14.445312 2.046875 15.542969 2.207031 C 16.640625 2.359375 17.597656 2.578125 18.417969 2.863281 C 19.242188 3.148438 19.886719 3.480469 20.34375 3.855469 C 20.800781 4.230469 21.03125 4.636719 21.03125 5.074219 C 21.03125 5.53125 20.800781 5.957031 20.34375 6.355469 C 19.886719 6.742188 19.242188 7.085938 18.417969 7.386719 C 17.597656 7.675781 16.640625 7.90625 15.542969 8.074219 C 14.445312 8.238281 13.261719 8.324219 11.988281 8.324219 Z M 11.988281 8.324219 "/>
</g>
</svg>
