<?xml version="1.0" encoding="UTF-8"?>
<svg xmlns="http://www.w3.org/2000/svg" xmlns:xlink="http://www.w3.org/1999/xlink" width="24" height="17.333333" viewBox="0 0 24 17.333333" version="1.1">
<g id="surface1">
<path style=" stroke:none;fill-rule:nonzero;fill:rgb(100%,100%,100%);fill-opacity:1;" d="M 11.988281 10 C 13.488281 10 14.890625 9.875 16.1875 9.625 C 17.484375 9.375 18.621094 9.023438 19.59375 8.574219 C 20.574219 8.121094 21.335938 7.601562 21.886719 7.011719 C 22.433594 6.414062 22.707031 5.765625 22.707031 5.074219 C 22.707031 4.40625 22.433594 3.785156 21.886719 3.207031 C 21.335938 2.625 20.574219 2.117188 19.59375 1.6875 C 18.621094 1.25 17.484375 0.910156 16.1875 0.667969 C 14.890625 0.417969 13.488281 0.292969 11.988281 0.292969 C 10.488281 0.292969 9.089844 0.417969 7.792969 0.667969 C 6.5 0.910156 5.363281 1.25 4.386719 1.6875 C 3.414062 2.117188 2.652344 2.625 2.105469 3.207031 C 1.5625 3.785156 1.292969 4.40625 1.292969 5.074219 C 1.292969 5.765625 1.5625 6.414062 2.105469 7.011719 C 2.652344 7.601562 3.414062 8.121094 4.386719 8.574219 C 5.363281 9.023438 6.5 9.375 7.792969 9.625 C 9.089844 9.875 10.488281 10 11.988281 10 Z M 11.988281 16.667969 C 13.503906 16.667969 14.910156 16.511719 16.207031 16.199219 C 17.507812 15.886719 18.640625 15.453125 19.613281 14.894531 C 20.585938 14.339844 21.34375 13.699219 21.886719 12.96875 C 22.433594 12.238281 22.707031 11.460938 22.707031 10.636719 L 22.707031 8.1875 C 22.027344 8.859375 21.140625 9.441406 20.042969 9.925781 C 18.945312 10.414062 17.707031 10.785156 16.332031 11.042969 C 14.957031 11.296875 13.511719 11.425781 11.988281 11.425781 C 10.484375 11.425781 9.042969 11.296875 7.667969 11.042969 C 6.296875 10.785156 5.066406 10.417969 3.96875 9.9375 C 2.871094 9.453125 1.980469 8.867188 1.292969 8.1875 L 1.292969 10.636719 C 1.292969 11.460938 1.5625 12.238281 2.105469 12.96875 C 2.644531 13.699219 3.402344 14.339844 4.375 14.894531 C 5.347656 15.453125 6.484375 15.886719 7.78125 16.199219 C 9.078125 16.511719 10.484375 16.667969 11.988281 16.667969 Z M 11.988281 16.667969 "/>
</g>
</svg>
