<svg width="129" height="99" viewBox="0 0 129 99" fill="none" xmlns="http://www.w3.org/2000/svg">
<path d="M64.375 99C73.4583 99 81.8958 98.0625 89.6875 96.1875C97.4792 94.3125 104.292 91.7083 110.125 88.375C115.958 85.0417 120.5 81.1875 123.75 76.8125C127.042 72.4375 128.688 67.7708 128.688 62.8125V30L118.625 38.75V62.8125C118.625 67.6458 116.417 72.0417 112 76C107.625 79.9167 101.375 83.0625 93.25 85.4375C85.125 87.7708 75.5 88.9375 64.375 88.9375C53.25 88.9375 43.625 87.7708 35.5 85.4375C27.4167 83.0625 21.1667 79.9167 16.75 76C12.375 72.0417 10.1875 67.6458 10.1875 62.8125V38.75L0.1875 30V62.8125C0.1875 67.7708 1.8125 72.4375 5.0625 76.8125C8.3125 81.1875 12.8542 85.0417 18.6875 88.375C24.5208 91.7083 31.3333 94.3125 39.125 96.1875C46.9167 98.0625 55.3333 99 64.375 99ZM64.375 59C73.375 59 81.7708 58.25 89.5625 56.75C97.3542 55.25 104.167 53.1458 110 50.4375C115.875 47.7292 120.458 44.6042 123.75 41.0625C127.042 37.4792 128.688 33.6042 128.688 29.4375C128.688 25.4375 127.042 21.7083 123.75 18.25C120.458 14.75 115.875 11.7083 110 9.125C104.167 6.5 97.3542 4.45833 89.5625 3C81.7708 1.5 73.375 0.75 64.375 0.75C55.375 0.75 46.9792 1.5 39.1875 3C31.4375 4.45833 24.625 6.5 18.75 9.125C12.9167 11.7083 8.35417 14.75 5.0625 18.25C1.8125 21.7083 0.1875 25.4375 0.1875 29.4375C0.1875 33.6042 1.8125 37.4792 5.0625 41.0625C8.35417 44.6042 12.9167 47.7292 18.75 50.4375C24.625 53.1458 31.4375 55.25 39.1875 56.75C46.9792 58.25 55.375 59 64.375 59ZM64.375 48.9375C56.75 48.9375 49.6458 48.4375 43.0625 47.4375C36.5208 46.4375 30.7708 45.0625 25.8125 43.3125C20.8958 41.5208 17.0625 39.4583 14.3125 37.125C11.5625 34.75 10.1875 32.1875 10.1875 29.4375C10.1875 26.8125 11.5625 24.375 14.3125 22.125C17.0625 19.875 20.8958 17.8958 25.8125 16.1875C30.7708 14.4792 36.5208 13.1667 43.0625 12.25C49.6458 11.2917 56.75 10.8125 64.375 10.8125C72 10.8125 79.1042 11.2917 85.6875 12.25C92.2708 13.1667 98.0208 14.4792 102.938 16.1875C107.896 17.8958 111.75 19.875 114.5 22.125C117.25 24.375 118.625 26.8125 118.625 29.4375C118.625 32.1875 117.25 34.75 114.5 37.125C111.75 39.4583 107.896 41.5208 102.938 43.3125C98.0208 45.0625 92.2708 46.4375 85.6875 47.4375C79.1042 48.4375 72 48.9375 64.375 48.9375Z" fill="white"/>
</svg>
