<?xml version="1.0" encoding="UTF-8"?>
<svg xmlns="http://www.w3.org/2000/svg" xmlns:xlink="http://www.w3.org/1999/xlink" width="24" height="20.727273" viewBox="0 0 24 20.727273" version="1.1">
<g id="surface1">
<path style=" stroke:none;fill-rule:nonzero;fill:rgb(100%,100%,100%);fill-opacity:1;" d="M 7.671875 2.359375 C 8.402344 2.359375 9.066406 2.3125 9.664062 2.214844 C 10.261719 2.121094 10.734375 1.988281 11.089844 1.824219 C 11.441406 1.660156 11.617188 1.472656 11.617188 1.261719 C 11.617188 1.058594 11.441406 0.871094 11.089844 0.707031 C 10.734375 0.542969 10.261719 0.410156 9.664062 0.316406 C 9.066406 0.21875 8.402344 0.171875 7.671875 0.171875 C 6.941406 0.171875 6.28125 0.21875 5.683594 0.316406 C 5.089844 0.410156 4.613281 0.542969 4.261719 0.707031 C 3.910156 0.871094 3.734375 1.058594 3.734375 1.261719 C 3.734375 1.472656 3.910156 1.660156 4.261719 1.824219 C 4.613281 1.988281 5.089844 2.121094 5.683594 2.214844 C 6.28125 2.3125 6.941406 2.359375 7.671875 2.359375 Z M 0.816406 12.195312 C 0.816406 13.570312 1.089844 14.660156 1.636719 15.460938 C 2.183594 16.253906 2.972656 16.824219 4.015625 17.164062 C 5.054688 17.503906 6.316406 17.675781 7.796875 17.675781 C 7.671875 17.453125 7.558594 17.226562 7.449219 16.996094 C 7.347656 16.761719 7.253906 16.527344 7.167969 16.296875 C 5.382812 16.238281 4.109375 15.867188 3.339844 15.179688 C 2.574219 14.492188 2.191406 13.453125 2.191406 12.066406 L 2.191406 5.796875 C 2.191406 5.421875 2.222656 5.058594 2.292969 4.714844 C 2.359375 4.367188 2.472656 4.042969 2.632812 3.742188 C 3.140625 4.140625 3.839844 4.433594 4.738281 4.621094 C 5.636719 4.800781 6.613281 4.890625 7.671875 4.890625 C 8.726562 4.890625 9.703125 4.800781 10.601562 4.621094 C 11.5 4.433594 12.203125 4.140625 12.707031 3.742188 C 12.832031 3.917969 12.933594 4.148438 13.015625 4.433594 C 13.09375 4.710938 13.132812 4.96875 13.132812 5.207031 L 13.132812 5.214844 C 13.355469 5.183594 13.578125 5.152344 13.808594 5.128906 C 14.035156 5.109375 14.265625 5.089844 14.503906 5.078125 C 14.464844 4.449219 14.359375 3.902344 14.183594 3.441406 C 14.011719 2.984375 13.796875 2.589844 13.542969 2.265625 C 13.441406 2.136719 13.316406 2.066406 13.167969 2.054688 C 13.019531 2.042969 12.882812 2.089844 12.757812 2.199219 C 12.484375 2.4375 12.085938 2.660156 11.558594 2.863281 C 11.027344 3.0625 10.425781 3.222656 9.75 3.339844 C 9.074219 3.460938 8.378906 3.519531 7.671875 3.519531 C 6.960938 3.519531 6.265625 3.460938 5.589844 3.339844 C 4.921875 3.222656 4.320312 3.0625 3.792969 2.863281 C 3.265625 2.660156 2.863281 2.4375 2.589844 2.199219 C 2.464844 2.089844 2.328125 2.042969 2.183594 2.054688 C 2.035156 2.066406 1.910156 2.136719 1.808594 2.265625 C 1.609375 2.515625 1.433594 2.808594 1.277344 3.144531 C 1.128906 3.472656 1.015625 3.851562 0.9375 4.277344 C 0.859375 4.703125 0.816406 5.183594 0.816406 5.71875 Z M 15.433594 8.207031 C 16.144531 8.207031 16.773438 8.164062 17.316406 8.078125 C 17.871094 7.988281 18.296875 7.871094 18.605469 7.722656 C 18.917969 7.566406 19.074219 7.402344 19.074219 7.21875 C 19.074219 7.027344 18.917969 6.855469 18.605469 6.707031 C 18.296875 6.554688 17.871094 6.433594 17.316406 6.347656 C 16.773438 6.265625 16.144531 6.222656 15.433594 6.222656 C 14.71875 6.222656 14.085938 6.265625 13.535156 6.347656 C 12.988281 6.433594 12.558594 6.554688 12.246094 6.707031 C 11.941406 6.855469 11.785156 7.027344 11.785156 7.21875 C 11.785156 7.402344 11.941406 7.566406 12.246094 7.722656 C 12.558594 7.871094 12.988281 7.988281 13.535156 8.078125 C 14.085938 8.164062 14.71875 8.207031 15.433594 8.207031 Z M 15.433594 20.277344 C 16.390625 20.277344 17.183594 20.230469 17.8125 20.140625 C 18.441406 20.046875 18.976562 19.898438 19.414062 19.6875 C 19.851562 19.476562 20.257812 19.195312 20.632812 18.84375 C 21.433594 18.117188 22.058594 17.246094 22.5 16.226562 C 22.949219 15.210938 23.171875 14.140625 23.171875 13.023438 C 23.171875 12.113281 23.023438 11.242188 22.722656 10.40625 C 22.425781 9.570312 22 8.839844 21.441406 8.207031 C 21.273438 7.996094 21.058594 7.871094 20.796875 7.832031 C 20.539062 7.792969 20.289062 7.847656 20.046875 7.996094 C 19.734375 8.226562 19.378906 8.433594 18.980469 8.609375 C 18.589844 8.785156 18.105469 8.921875 17.53125 9.027344 C 16.964844 9.121094 16.265625 9.171875 15.433594 9.171875 C 14.605469 9.171875 13.902344 9.121094 13.328125 9.027344 C 12.761719 8.921875 12.277344 8.785156 11.878906 8.609375 C 11.488281 8.433594 11.132812 8.226562 10.816406 7.996094 C 10.570312 7.847656 10.320312 7.792969 10.066406 7.832031 C 9.808594 7.867188 9.597656 7.992188 9.425781 8.207031 C 8.863281 8.839844 8.433594 9.570312 8.128906 10.40625 C 7.835938 11.234375 7.6875 12.109375 7.6875 13.023438 C 7.6875 14.140625 7.910156 15.210938 8.351562 16.226562 C 8.800781 17.246094 9.425781 18.117188 10.226562 18.84375 C 10.601562 19.195312 11.007812 19.476562 11.445312 19.6875 C 11.890625 19.898438 12.425781 20.046875 13.058594 20.140625 C 13.6875 20.230469 14.480469 20.277344 15.433594 20.277344 Z M 15.433594 18.816406 C 14.628906 18.816406 13.964844 18.785156 13.449219 18.722656 C 12.933594 18.667969 12.503906 18.5625 12.160156 18.410156 C 11.820312 18.253906 11.507812 18.046875 11.222656 17.777344 C 10.558594 17.171875 10.046875 16.453125 9.691406 15.628906 C 9.332031 14.800781 9.152344 13.933594 9.152344 13.023438 C 9.152344 12.511719 9.214844 12.007812 9.332031 11.515625 C 9.453125 11.015625 9.632812 10.535156 9.878906 10.082031 C 10.121094 9.628906 10.433594 9.203125 10.808594 8.804688 L 9.714844 9.101562 C 10.300781 9.597656 11.066406 9.972656 12.015625 10.234375 C 12.972656 10.496094 14.109375 10.628906 15.433594 10.628906 C 16.757812 10.628906 17.898438 10.496094 18.851562 10.234375 C 19.808594 9.96875 20.574219 9.589844 21.152344 9.09375 L 20.054688 8.804688 C 20.429688 9.195312 20.738281 9.621094 20.984375 10.082031 C 21.234375 10.535156 21.417969 11.011719 21.535156 11.503906 C 21.65625 12 21.714844 12.503906 21.714844 13.023438 C 21.714844 13.933594 21.535156 14.800781 21.171875 15.628906 C 20.8125 16.453125 20.304688 17.171875 19.644531 17.777344 C 19.355469 18.046875 19.039062 18.253906 18.699219 18.410156 C 18.359375 18.5625 17.929688 18.667969 17.410156 18.722656 C 16.902344 18.785156 16.242188 18.816406 15.433594 18.816406 Z M 15.433594 18.816406 "/>
</g>
</svg>
