<svg width="14" height="17" viewBox="0 0 14 17" fill="none" xmlns="http://www.w3.org/2000/svg">
<path d="M6.99219 16.3906C9.14844 16.3906 10.7344 15.9896 11.75 15.1875C12.7708 14.3906 13.2812 13.1198 13.2812 11.375V5.42969C13.2812 4.9401 13.2422 4.5 13.1641 4.10938C13.0911 3.71875 12.987 3.3724 12.8516 3.07031C12.7161 2.76823 12.5573 2.5 12.375 2.26562C12.2812 2.14583 12.1667 2.08333 12.0312 2.07812C11.8958 2.06771 11.7708 2.10938 11.6562 2.20312C11.4062 2.42188 11.0391 2.625 10.5547 2.8125C10.0703 2.99479 9.51823 3.14323 8.89844 3.25781C8.27865 3.36719 7.64323 3.42188 6.99219 3.42188C6.34115 3.42188 5.70573 3.36719 5.08594 3.25781C4.47135 3.14323 3.92188 2.99479 3.4375 2.8125C2.95312 2.625 2.58594 2.42188 2.33594 2.20312C2.22135 2.10938 2.09635 2.06771 1.96094 2.07812C1.82552 2.08333 1.71094 2.14583 1.61719 2.26562C1.4349 2.5 1.27344 2.76823 1.13281 3.07031C0.997396 3.3724 0.893229 3.71875 0.820312 4.10938C0.747396 4.5 0.710938 4.9401 0.710938 5.42969V11.375C0.710938 13.1198 1.21875 14.3906 2.23438 15.1875C3.25521 15.9896 4.84115 16.3906 6.99219 16.3906ZM6.99219 15.1328C5.1849 15.1328 3.89583 14.8177 3.125 14.1875C2.35417 13.5625 1.96875 12.5833 1.96875 11.25V5.5C1.96875 5.15625 2 4.82552 2.0625 4.50781C2.125 4.1901 2.22917 3.89323 2.375 3.61719C2.83854 3.98177 3.48177 4.25 4.30469 4.42188C5.1276 4.59375 6.02344 4.67969 6.99219 4.67969C7.96094 4.67969 8.85677 4.59375 9.67969 4.42188C10.5026 4.25 11.1458 3.98177 11.6094 3.61719C11.7604 3.89323 11.8672 4.1901 11.9297 4.50781C11.9922 4.82552 12.0234 5.15625 12.0234 5.5V11.25C12.0234 12.5833 11.6354 13.5625 10.8594 14.1875C10.0885 14.8177 8.79948 15.1328 6.99219 15.1328ZM6.99219 2.35156C7.6849 2.35156 8.30208 2.30729 8.84375 2.21875C9.39062 2.13021 9.82031 2.01042 10.1328 1.85938C10.4505 1.70833 10.6094 1.53906 10.6094 1.35156C10.6094 1.15885 10.4505 0.986979 10.1328 0.835938C9.82031 0.684896 9.39062 0.565104 8.84375 0.476562C8.30208 0.388021 7.6849 0.34375 6.99219 0.34375C6.30469 0.34375 5.6875 0.388021 5.14062 0.476562C4.59896 0.565104 4.16927 0.684896 3.85156 0.835938C3.53906 0.986979 3.38281 1.15885 3.38281 1.35156C3.38281 1.53906 3.53906 1.70833 3.85156 1.85938C4.16927 2.01042 4.59896 2.13021 5.14062 2.21875C5.6875 2.30729 6.30469 2.35156 6.99219 2.35156Z" fill="white"/>
</svg>
