<?xml version="1.0" encoding="UTF-8"?>
<svg xmlns="http://www.w3.org/2000/svg" xmlns:xlink="http://www.w3.org/1999/xlink" width="24" height="29.142857" viewBox="0 0 24 29.142857" version="1.1">
<g id="surface1">
<path style=" stroke:none;fill-rule:nonzero;fill:rgb(100%,100%,100%);fill-opacity:1;" d="M 11.988281 28.097656 C 15.683594 28.097656 18.402344 27.410156 20.144531 26.035156 C 21.894531 24.667969 22.769531 22.492188 22.769531 19.5 L 22.769531 9.308594 C 22.769531 8.46875 22.699219 7.714844 22.566406 7.042969 C 22.441406 6.375 22.261719 5.78125 22.03125 5.261719 C 21.800781 4.746094 21.527344 4.285156 21.214844 3.882812 C 21.054688 3.679688 20.855469 3.570312 20.625 3.5625 C 20.394531 3.542969 20.179688 3.617188 19.980469 3.777344 C 19.554688 4.152344 18.925781 4.5 18.09375 4.820312 C 17.261719 5.132812 16.316406 5.386719 15.253906 5.585938 C 14.191406 5.773438 13.101562 5.867188 11.988281 5.867188 C 10.871094 5.867188 9.78125 5.773438 8.71875 5.585938 C 7.664062 5.386719 6.722656 5.132812 5.894531 4.820312 C 5.0625 4.5 4.433594 4.152344 4.003906 3.777344 C 3.808594 3.617188 3.59375 3.542969 3.363281 3.5625 C 3.128906 3.570312 2.933594 3.679688 2.773438 3.882812 C 2.460938 4.285156 2.183594 4.746094 1.941406 5.261719 C 1.710938 5.78125 1.53125 6.375 1.40625 7.042969 C 1.28125 7.714844 1.21875 8.46875 1.21875 9.308594 L 1.21875 19.5 C 1.21875 22.492188 2.089844 24.667969 3.832031 26.035156 C 5.582031 27.410156 8.300781 28.097656 11.988281 28.097656 Z M 11.988281 4.03125 C 13.175781 4.03125 14.230469 3.957031 15.160156 3.804688 C 16.097656 3.652344 16.835938 3.445312 17.371094 3.1875 C 17.914062 2.929688 18.1875 2.636719 18.1875 2.316406 C 18.1875 1.988281 17.914062 1.691406 17.371094 1.433594 C 16.835938 1.175781 16.097656 0.96875 15.160156 0.816406 C 14.230469 0.664062 13.175781 0.589844 11.988281 0.589844 C 10.808594 0.589844 9.75 0.664062 8.8125 0.816406 C 7.882812 0.96875 7.148438 1.175781 6.601562 1.433594 C 6.066406 1.691406 5.800781 1.988281 5.800781 2.316406 C 5.800781 2.636719 6.066406 2.929688 6.601562 3.1875 C 7.148438 3.445312 7.882812 3.652344 8.8125 3.804688 C 9.75 3.957031 10.808594 4.03125 11.988281 4.03125 Z M 11.988281 4.03125 "/>
</g>
</svg>
