<svg xmlns="http://www.w3.org/2000/svg" width="24" height="24"><path style="stroke:none;fill-rule:nonzero;fill:#fff;fill-opacity:1" d="M3.508 21.43c0 .773.183 1.375.55 1.797.376.425.899.644 1.567.644h12.758c.672 0 1.187-.219 1.558-.644.368-.426.551-1.024.551-1.797V9.11l-1.328-.114V21.2c0 .36-.082.637-.246.828-.156.188-.379.285-.676.285H5.766c-.301 0-.532-.097-.696-.285-.156-.191-.234-.468-.234-.828V9.012l-1.328.097Zm3.082-2.57c0 .44.113.785.34 1.038.23.247.55.372.965.372h8.222c.406 0 .723-.125.953-.372.235-.253.348-.597.348-1.039v-8.578L12.609 5.54a.815.815 0 0 0-1.21 0l-4.81 4.742Zm1.332-.672v-7.149l3.777-3.738A.429.429 0 0 1 12 7.18c.11-.008.219.039.3.12l3.786 3.74v7.148c0 .351-.148.53-.45.53H8.364c-.293 0-.441-.179-.441-.53Zm1.742-2.56c0 .321.082.575.246.759.168.183.395.277.684.277h2.812c.29 0 .512-.094.676-.277.168-.184.254-.438.254-.758v-3.586l-1.8-1.777a.745.745 0 0 0-.536-.239.72.72 0 0 0-.523.239l-1.813 1.777Zm1.305-.73v-2.136l.804-.805c.153-.148.301-.148.454 0l.804.805v2.136c0 .168-.07.258-.215.258h-1.632c-.145 0-.215-.09-.215-.258ZM.805 11.558c0 .22.062.399.187.54.125.132.293.199.5.199.086 0 .16-.016.223-.047.07-.035.137-.078.2-.129l9.757-9.633a.461.461 0 0 1 .32-.152.422.422 0 0 1 .336.156l9.758 9.63a1 1 0 0 0 .187.128.57.57 0 0 0 .235.047.632.632 0 0 0 .488-.2.79.79 0 0 0 .188-.538.922.922 0 0 0-.301-.688l-9.758-9.648C12.773.879 12.398.707 12 .707s-.773.172-1.125.516l-9.77 9.648c-.199.195-.3.426-.3.688Zm17.336-4.94 2.351 2.339V3.859a.842.842 0 0 0-.187-.574.594.594 0 0 0-.485-.219h-1.004c-.199 0-.363.075-.488.22a.842.842 0 0 0-.187.573Zm0 0"/></svg>