<svg xmlns="http://www.w3.org/2000/svg" width="24" height="24"><path style="stroke:none;fill-rule:nonzero;fill:#fff;fill-opacity:1" d="M12 23.102c1.063 0 1.984-.043 2.766-.125.789-.079 1.476-.2 2.062-.38a6.148 6.148 0 0 0 1.582-.699 6.829 6.829 0 0 0 1.336-1.062 12.262 12.262 0 0 0 2.79-4.16c.663-1.617.995-3.317.995-5.102 0-1.441-.23-2.836-.691-4.187a11.553 11.553 0 0 0-2.074-3.711c-.22-.293-.442-.453-.668-.477-.22-.031-.446.04-.68.215a8.998 8.998 0 0 1-1.887 1.172c-.68.309-1.465.543-2.355.703-.89.149-1.95.223-3.176.223-1.234 0-2.297-.074-3.188-.223-.89-.16-1.675-.394-2.355-.703a9.47 9.47 0 0 1-1.875-1.172c-.234-.176-.465-.246-.691-.215-.227.024-.45.184-.668.477a11.732 11.732 0 0 0-2.086 3.71 13.008 13.008 0 0 0-.68 4.188c0 1.785.332 3.485.996 5.102a12.339 12.339 0 0 0 2.79 4.16c.421.426.866.781 1.335 1.062.469.293.996.528 1.582.704.586.175 1.27.296 2.05.375.79.082 1.72.125 2.79.125Zm0-19.29c1.086 0 2.043-.07 2.871-.21.836-.145 1.488-.336 1.957-.579.469-.242.703-.511.703-.808 0-.3-.234-.574-.703-.817-.469-.238-1.121-.43-1.957-.562C14.043.696 13.086.625 12 .625c-1.094 0-2.059.07-2.895.21-.828.134-1.476.321-1.945.563-.469.243-.703.516-.703.813 0 .3.234.57.703.812.469.243 1.117.434 1.945.579.836.14 1.801.21 2.895.21Zm0 0"/></svg>