<svg xmlns="http://www.w3.org/2000/svg" width="24" height="24"><path style="stroke:none;fill-rule:nonzero;fill:#fff;fill-opacity:1" d="M8.598 2.527a9.98 9.98 0 0 0 1.843-.148c.54-.098.961-.23 1.262-.395.305-.171.457-.359.457-.574 0-.215-.152-.41-.457-.582-.3-.172-.723-.305-1.262-.394A10.066 10.066 0 0 0 8.598.285c-.696 0-1.317.05-1.856.149-.535.09-.957.222-1.262.394-.308.172-.46.367-.46.582 0 .215.152.403.46.574.305.164.727.297 1.262.395.54.101 1.16.148 1.856.148ZM.996 8c0 1.273.219 2.488.656 3.648.438 1.157 1.051 2.149 1.844 2.977.328.36.684.652 1.063.879.382.223.828.394 1.34.512.511.113 1.136.18 1.874.21v-1.68c-.496-.015-.992-.07-1.484-.16a3.098 3.098 0 0 1-1.023-.366 3.449 3.449 0 0 1-.782-.637 7.249 7.249 0 0 1-1.5-2.43 8.36 8.36 0 0 1-.52-2.95c0-.733.095-1.44.282-2.108a6.83 6.83 0 0 1 .832-1.868c.57.426 1.274.75 2.113.965.848.215 1.817.317 2.907.317 1.093 0 2.058-.102 2.898-.317.848-.215 1.555-.535 2.125-.965.379.485.633 1.059.758 1.72h1.543c-.238-1.267-.707-2.329-1.406-3.192a.99.99 0 0 0-.649-.434.948.948 0 0 0-.75.176 5.322 5.322 0 0 1-1.058.691c-.387.2-.856.356-1.414.469-.551.106-1.235.168-2.047.168-.813 0-1.496-.059-2.051-.168a5.55 5.55 0 0 1-1.426-.469 5.224 5.224 0 0 1-1.047-.691 1 1 0 0 0-.75-.184.973.973 0 0 0-.64.442 8.23 8.23 0 0 0-1.25 2.488A9.91 9.91 0 0 0 .996 8ZM12.7 23.309h6.555c.594 0 1.144-.055 1.644-.168.5-.11.93-.375 1.286-.79.359-.417.582-.913.675-1.488.102-.629.149-1.265.145-1.906v-7.508c0-.707-.05-1.344-.145-1.914a2.935 2.935 0 0 0-.675-1.484 2.352 2.352 0 0 0-1.286-.785 7.05 7.05 0 0 0-1.644-.18h-6.57a7.242 7.242 0 0 0-1.637.176c-.488.11-.934.386-1.281.804a2.998 2.998 0 0 0-.68 1.477 11.135 11.135 0 0 0-.145 1.875v7.539c0 .7.047 1.336.145 1.906.098.575.324 1.07.68 1.492.359.41.785.676 1.28.786.5.113 1.052.168 1.653.168Zm2.028-7.032a3.147 3.147 0 0 1-.262.676c-.117.23-.254.442-.418.633a.479.479 0 0 1-.18.129.501.501 0 0 1-.238.047.518.518 0 0 1-.215-.035 1.282 1.282 0 0 0-.203-.079l-.164-.07a.443.443 0 0 0-.211-.05.659.659 0 0 0-.426.128.604.604 0 0 1-.383.13c-.172 0-.367-.145-.59-.427a3.216 3.216 0 0 1-.503-.984 3.9 3.9 0 0 1-.188-1.145c0-.226.027-.437.078-.64.051-.215.14-.41.266-.586.219-.32.52-.484.902-.484.176 0 .32.046.434.128.097.079.21.122.324.13.11 0 .23-.044.367-.13.14-.09.324-.136.555-.136.414 0 .726.183.937.55a.842.842 0 0 0-.308.301c-.063.106-.11.215-.137.313-.05.136-.078.289-.086.453 0 .164.031.332.086.504.102.293.29.512.563.644Zm-2.012-2.906c-.004-.312.09-.601.281-.855.195-.258.438-.399.727-.426.015.203-.02.414-.102.62-.086.204-.21.372-.367.505a.655.655 0 0 1-.54.156Zm3.988-.867v1.008h.7v.66h-.7v2.34c0 .36.149.543.445.543h.137a.395.395 0 0 0 .117-.028v.707a1.24 1.24 0 0 1-.18.02c-.077.008-.156.008-.226.008-.375 0-.644-.082-.805-.25-.156-.172-.238-.473-.238-.895v-2.445h-.512v-.66h.512v-1.008Zm3.172 5.234h-.785l-1.336-4.226h.781l.95 3.394.894-3.394h.808Zm0 0"/></svg>