<svg width="165" height="136" viewBox="0 0 165 136" fill="none" xmlns="http://www.w3.org/2000/svg">
<path d="M56.8125 14.75C62.0625 14.75 66.6875 14.4375 70.6875 13.8125C74.6875 13.1458 77.8333 12.2708 80.125 11.1875C82.4167 10.0625 83.5625 8.8125 83.5625 7.4375C83.5625 6.0625 82.4167 4.83333 80.125 3.75C77.8333 2.66667 74.6875 1.8125 70.6875 1.1875C66.6875 0.5625 62.0625 0.25 56.8125 0.25C51.6042 0.25 47 0.5625 43 1.1875C39 1.8125 35.8542 2.66667 33.5625 3.75C31.3125 4.83333 30.1875 6.0625 30.1875 7.4375C30.1875 8.8125 31.3125 10.0625 33.5625 11.1875C35.8542 12.2708 39 13.1458 43 13.8125C47 14.4375 51.6042 14.75 56.8125 14.75ZM0.9375 50C0.9375 58.0833 2.54167 65.7917 5.75 73.125C9 80.4583 13.5208 86.7708 19.3125 92.0625C21.6875 94.3125 24.1875 96.1458 26.8125 97.5625C29.4375 98.9375 32.5833 100 36.25 100.75C35.0833 97.1667 34.1875 93.5208 33.5625 89.8125C32.9792 86.0625 32.6875 82.2708 32.6875 78.4375C32.6875 69.8542 34.1458 61.7292 37.0625 54.0625C39.9792 46.3542 44.125 39.4792 49.5 33.4375C51.5833 31.1458 53.6875 29.0833 55.8125 27.25C57.9375 25.4167 60.1042 23.7708 62.3125 22.3125C61.4792 22.3958 60.6042 22.4583 59.6875 22.5C58.8125 22.5417 57.8542 22.5625 56.8125 22.5625C50.7292 22.5625 45.5208 22.2083 41.1875 21.5C36.8958 20.75 33.1458 19.6667 29.9375 18.25C26.7292 16.7917 23.7292 15 20.9375 12.875C19.7708 12.0417 18.6458 11.7083 17.5625 11.875C16.4792 12 15.3958 12.7292 14.3125 14.0625C9.9375 19.1458 6.60417 24.75 4.3125 30.875C2.0625 36.9583 0.9375 43.3333 0.9375 50ZM102.75 39.5625C108.542 39.5625 113.646 39.2083 118.062 38.5C122.521 37.7917 126 36.8333 128.5 35.625C131.042 34.4167 132.312 33.0625 132.312 31.5625C132.312 30.0625 131.042 28.7083 128.5 27.5C126 26.2917 122.521 25.3542 118.062 24.6875C113.646 23.9792 108.542 23.625 102.75 23.625C96.9583 23.625 91.8333 23.9792 87.375 24.6875C82.9583 25.3542 79.4792 26.2917 76.9375 27.5C74.4375 28.7083 73.1875 30.0625 73.1875 31.5625C73.1875 33.0625 74.4375 34.4167 76.9375 35.625C79.4792 36.8333 82.9583 37.7917 87.375 38.5C91.8333 39.2083 96.9583 39.5625 102.75 39.5625ZM102.75 136C108.417 136 113.333 135.792 117.5 135.375C121.708 135 125.375 134.375 128.5 133.5C131.667 132.625 134.479 131.458 136.938 130C139.438 128.583 141.833 126.812 144.125 124.688C150.5 118.896 155.458 111.979 159 103.938C162.542 95.8542 164.312 87.3542 164.312 78.4375C164.312 71.1875 163.083 64.2083 160.625 57.5C158.167 50.75 154.479 44.5417 149.562 38.875C148.396 37.4583 147.208 36.6667 146 36.5C144.792 36.3333 143.562 36.6875 142.312 37.5625C139.229 39.8958 135.875 41.8542 132.25 43.4375C128.667 44.9792 124.479 46.1458 119.688 46.9375C114.938 47.7292 109.292 48.125 102.75 48.125C96.2083 48.125 90.5417 47.7292 85.75 46.9375C81 46.1458 76.8125 44.9792 73.1875 43.4375C69.6042 41.8542 66.2708 39.8958 63.1875 37.5625C61.9375 36.6875 60.7083 36.3333 59.5 36.5C58.3333 36.6667 57.1667 37.4583 56 38.875C51.0417 44.5417 47.3333 50.75 44.875 57.5C42.4583 64.2083 41.25 71.1875 41.25 78.4375C41.25 87.3542 43.0208 95.8542 46.5625 103.938C50.1042 111.979 55.0625 118.896 61.4375 124.688C63.6875 126.812 66.0417 128.583 68.5 130C71 131.458 73.8125 132.625 76.9375 133.5C80.1042 134.375 83.7708 135 87.9375 135.375C92.1458 135.792 97.0833 136 102.75 136Z" fill="white"/>
</svg>
