<svg xmlns="http://www.w3.org/2000/svg" width="24" height="24"><path style="stroke:none;fill-rule:nonzero;fill:#fff;fill-opacity:1" d="M7.492 2.574c.754 0 1.426-.05 2.016-.148.594-.102 1.062-.242 1.406-.41.344-.184.516-.375.516-.586 0-.22-.172-.418-.516-.59-.344-.172-.812-.305-1.406-.402A11.995 11.995 0 0 0 7.492.288c-.75 0-1.422.047-2.015.149-.594.097-1.063.23-1.407.402-.34.172-.508.367-.508.59 0 .21.168.402.508.586.344.168.813.308 1.407.41a12.49 12.49 0 0 0 2.015.148ZM.648 12.906c0 1.84.47 3.219 1.414 4.156.95.934 2.458 1.458 4.52 1.567v-7.211c0-1.008.094-1.848.281-2.527a4.067 4.067 0 0 1 1.012-1.786A3.835 3.835 0 0 1 9.57 6.04c.657-.203 1.461-.309 2.41-.309h2.336c-.007-.09-.011-.183-.02-.28 0-.098-.003-.196-.007-.29a6.214 6.214 0 0 0-.18-1.105 3.964 3.964 0 0 0-.336-.875 4.59 4.59 0 0 0-.433-.703.49.49 0 0 0-.375-.227.52.52 0 0 0-.402.148c-.274.258-.676.489-1.2.704-.527.207-1.125.378-1.8.507-.676.13-1.368.192-2.07.192-.708 0-1.4-.063-2.075-.192a10.376 10.376 0 0 1-1.8-.507c-.524-.215-.923-.446-1.2-.704a.506.506 0 0 0-.402-.148.527.527 0 0 0-.375.227c-.2.27-.375.578-.524.925A5.26 5.26 0 0 0 .77 4.59a8.475 8.475 0 0 0-.122 1.508ZM12 23.31h7.21c.661 0 1.267-.063 1.81-.176a2.669 2.669 0 0 0 1.414-.79c.394-.413.644-.91.75-1.48.105-.574.16-1.207.16-1.906v-7.516c0-.703-.055-1.336-.16-1.91a2.87 2.87 0 0 0-.75-1.48 2.672 2.672 0 0 0-1.414-.79 8.552 8.552 0 0 0-1.81-.175h-7.23a8.94 8.94 0 0 0-1.8.176 2.676 2.676 0 0 0-1.407.789c-.39.414-.64.91-.75 1.48-.109.621-.16 1.254-.156 1.887v7.539c0 .7.051 1.332.156 1.906.11.57.36 1.067.75 1.48.395.41.864.677 1.407.79a8.75 8.75 0 0 0 1.82.176Zm2.23-7.036c-.062.215-.16.446-.289.68-.12.23-.273.445-.449.633a.765.765 0 0 1-.207.129.6.6 0 0 1-.262.047.592.592 0 0 1-.234-.04 1.156 1.156 0 0 0-.219-.085 3.514 3.514 0 0 1-.187-.063.49.49 0 0 0-.223-.05c-.2 0-.36.046-.48.132a.734.734 0 0 1-.422.117c-.188 0-.403-.14-.645-.425a2.97 2.97 0 0 1-.554-.973 3.49 3.49 0 0 1-.207-1.148c0-.223.03-.438.085-.641.063-.211.165-.402.301-.582.239-.324.567-.484.985-.484.191 0 .351.043.476.125.133.082.25.12.356.12a.87.87 0 0 0 .414-.124c.156-.09.36-.13.61-.13.448 0 .788.18 1.023.544a.974.974 0 0 0-.34.304c-.063.098-.11.204-.149.317-.058.136-.09.289-.093.453 0 .164.03.328.093.492.117.305.325.524.617.652Zm-2.21-2.91c-.008-.312.097-.59.308-.851.211-.262.48-.403.805-.422a1.28 1.28 0 0 1-.121.62c-.09.2-.23.376-.403.505a.837.837 0 0 1-.59.148Zm4.394-.86v1.009h.762v.656h-.762v2.34c0 .363.16.543.48.543h.149c.047 0 .09-.012.133-.028v.711c-.04 0-.102.004-.188.02-.09.004-.175.008-.261.008-.415 0-.707-.086-.883-.254-.176-.172-.262-.469-.262-.887v-2.453h-.562v-.656h.562v-1.008Zm3.48 5.231h-.863l-1.472-4.222h.863l1.039 3.383.984-3.383h.903Zm0 0"/></svg>