<svg xmlns="http://www.w3.org/2000/svg" width="24" height="24"><path style="stroke:none;fill-rule:nonzero;fill:#fff;fill-opacity:1" d="M7.566 2.574c.75 0 1.422-.05 2.016-.148.594-.102 1.063-.242 1.406-.41.344-.172.516-.368.516-.586 0-.22-.172-.41-.516-.582-.343-.176-.812-.313-1.406-.41A12.441 12.441 0 0 0 7.566.284c-.75 0-1.421.05-2.015.149-.594.101-1.063.234-1.406.41-.344.176-.516.367-.516.586 0 .218.172.41.516.586.343.168.812.304 1.406.41a12.49 12.49 0 0 0 2.015.148ZM.73 12.906c0 1.91.504 3.324 1.512 4.246 1.012.918 2.578 1.418 4.703 1.493l-.035-.543a14.66 14.66 0 0 1-.012-.586V8.91c0-1.12.157-2.117.461-2.98a5.7 5.7 0 0 1 1.36-2.188c-.188.016-.38.031-.57.051-.188 0-.383.008-.583.008-.695 0-1.39-.067-2.074-.2a9.935 9.935 0 0 1-1.789-.511c-.523-.219-.926-.45-1.2-.692a.538.538 0 0 0-.79.09 3.793 3.793 0 0 0-.533.91c-.14.344-.254.743-.336 1.192A9.266 9.266 0 0 0 .73 6.098Zm14.98-7.351c.81 0 1.54-.051 2.196-.168.657-.11 1.18-.262 1.567-.453.386-.188.582-.403.582-.641 0-.242-.196-.461-.582-.648-.387-.196-.91-.348-1.567-.458a12.927 12.927 0 0 0-2.195-.167c-.797 0-1.527.054-2.184.167-.656.11-1.175.262-1.566.458-.387.187-.578.406-.578.648 0 .238.191.453.578.64.39.192.91.344 1.566.454.657.117 1.387.168 2.184.168Zm0 17.734c2.59 0 4.493-.504 5.712-1.52 1.226-1.003 1.836-2.613 1.836-4.816V9.445c0-.62-.047-1.172-.14-1.656a5.898 5.898 0 0 0-.376-1.316 4.674 4.674 0 0 0-.57-1.024.53.53 0 0 0-.414-.238.604.604 0 0 0-.45.16c-.3.274-.738.527-1.32.77-.582.23-1.246.414-1.988.562a12.815 12.815 0 0 1-4.574 0 11.777 11.777 0 0 1-1.98-.562c-.579-.243-1.02-.496-1.321-.77a.604.604 0 0 0-.45-.16.53.53 0 0 0-.413.238c-.235.313-.43.656-.582 1.024a6.344 6.344 0 0 0-.375 1.316 9.54 9.54 0 0 0-.13 1.656v7.508c0 2.203.61 3.813 1.829 4.817 1.223 1.015 3.129 1.52 5.707 1.52Zm0 0"/></svg>