<?xml version="1.0" encoding="UTF-8"?>
<svg xmlns="http://www.w3.org/2000/svg" xmlns:xlink="http://www.w3.org/1999/xlink" width="24" height="36" viewBox="0 0 24 36" version="1.1">
<g id="surface1">
<path style=" stroke:none;fill-rule:nonzero;fill:rgb(100%,100%,100%);fill-opacity:1;" d="M 4.070312 34.894531 L 19.929688 34.894531 C 20.882812 34.894531 21.625 34.632812 22.164062 34.105469 C 22.710938 33.582031 22.988281 32.820312 22.988281 31.820312 L 22.988281 31.445312 C 22.988281 30.320312 22.730469 29.1875 22.21875 28.050781 C 21.707031 26.914062 21.054688 25.820312 20.269531 24.769531 C 19.480469 23.707031 18.664062 22.730469 17.8125 21.84375 C 16.976562 20.945312 16.230469 20.167969 15.582031 19.519531 C 14.945312 18.882812 14.636719 18.242188 14.664062 17.605469 C 14.6875 16.957031 14.992188 16.335938 15.582031 15.75 C 16.230469 15.101562 16.976562 14.332031 17.8125 13.445312 C 18.664062 12.542969 19.480469 11.570312 20.269531 10.519531 C 21.054688 9.46875 21.707031 8.375 22.21875 7.238281 C 22.730469 6.101562 22.988281 4.960938 22.988281 3.824219 L 22.988281 3.507812 C 22.988281 2.492188 22.710938 1.726562 22.164062 1.199219 C 21.625 0.675781 20.882812 0.414062 19.929688 0.414062 L 4.070312 0.414062 C 3.132812 0.414062 2.386719 0.675781 1.835938 1.199219 C 1.289062 1.726562 1.011719 2.492188 1.011719 3.507812 L 1.011719 3.824219 C 1.011719 4.960938 1.269531 6.101562 1.78125 7.238281 C 2.292969 8.375 2.945312 9.46875 3.730469 10.519531 C 4.519531 11.570312 5.332031 12.542969 6.167969 13.445312 C 7.019531 14.332031 7.769531 15.101562 8.417969 15.75 C 9.019531 16.335938 9.332031 16.957031 9.355469 17.605469 C 9.382812 18.242188 9.070312 18.882812 8.417969 19.519531 C 7.769531 20.167969 7.019531 20.945312 6.167969 21.84375 C 5.332031 22.730469 4.519531 23.707031 3.730469 24.769531 C 2.945312 25.820312 2.292969 26.914062 1.78125 28.050781 C 1.269531 29.1875 1.011719 30.320312 1.011719 31.445312 L 1.011719 31.820312 C 1.011719 32.820312 1.289062 33.582031 1.835938 34.105469 C 2.386719 34.632812 3.132812 34.894531 4.070312 34.894531 Z M 5.511719 32.34375 C 5.113281 32.34375 4.867188 32.164062 4.78125 31.800781 C 4.695312 31.449219 4.789062 31.148438 5.0625 30.898438 L 11.042969 25.199219 C 11.15625 25.101562 11.238281 25.011719 11.289062 24.9375 C 11.335938 24.863281 11.363281 24.75 11.363281 24.601562 L 11.363281 16.292969 C 11.363281 15.867188 11.304688 15.523438 11.195312 15.261719 C 11.09375 15 10.882812 14.730469 10.554688 14.457031 C 9.929688 13.917969 9.21875 13.300781 8.417969 12.601562 C 7.632812 11.898438 6.949219 11.242188 6.375 10.632812 C 6.136719 10.382812 6.0625 10.136719 6.148438 9.898438 C 6.25 9.664062 6.445312 9.542969 6.730469 9.542969 L 17.269531 9.542969 C 17.570312 9.542969 17.761719 9.664062 17.851562 9.898438 C 17.949219 10.136719 17.875 10.382812 17.625 10.632812 C 17.050781 11.242188 16.367188 11.898438 15.582031 12.601562 C 14.792969 13.300781 14.082031 13.917969 13.445312 14.457031 C 13.132812 14.730469 12.917969 15 12.804688 15.261719 C 12.707031 15.523438 12.65625 15.867188 12.65625 16.292969 L 12.65625 24.601562 C 12.65625 24.75 12.675781 24.863281 12.710938 24.9375 C 12.761719 25.011719 12.84375 25.101562 12.957031 25.199219 L 18.9375 30.898438 C 19.210938 31.148438 19.304688 31.449219 19.21875 31.800781 C 19.144531 32.164062 18.898438 32.34375 18.488281 32.34375 Z M 5.511719 32.34375 "/>
</g>
</svg>
