<svg width="128" height="128" viewBox="0 0 128 128" fill="none" xmlns="http://www.w3.org/2000/svg">
<path d="M63.9375 127.625C72.6458 127.625 80.8333 125.958 88.5 122.625C96.2083 119.292 103 114.688 108.875 108.812C114.75 102.938 119.354 96.1667 122.688 88.5C126.021 80.7917 127.688 72.5833 127.688 63.875C127.688 55.1667 126.021 46.9792 122.688 39.3125C119.354 31.6042 114.75 24.8125 108.875 18.9375C103 13.0625 96.2083 8.45833 88.5 5.125C80.7917 1.79167 72.5833 0.125 63.875 0.125C55.1667 0.125 46.9583 1.79167 39.25 5.125C31.5833 8.45833 24.8125 13.0625 18.9375 18.9375C13.1042 24.8125 8.52083 31.6042 5.1875 39.3125C1.85417 46.9792 0.1875 55.1667 0.1875 63.875C0.1875 72.5833 1.85417 80.7917 5.1875 88.5C8.52083 96.1667 13.125 102.938 19 108.812C24.875 114.688 31.6458 119.292 39.3125 122.625C47.0208 125.958 55.2292 127.625 63.9375 127.625ZM63.9375 117C56.5625 117 49.6667 115.625 43.25 112.875C36.8333 110.125 31.1875 106.333 26.3125 101.5C21.4792 96.625 17.6875 90.9792 14.9375 84.5625C12.2292 78.1458 10.875 71.25 10.875 63.875C10.875 56.5 12.2292 49.6042 14.9375 43.1875C17.6875 36.7708 21.4792 31.125 26.3125 26.25C31.1458 21.375 36.7708 17.5833 43.1875 14.875C49.6042 12.125 56.5 10.75 63.875 10.75C71.25 10.75 78.1458 12.125 84.5625 14.875C91.0208 17.5833 96.6667 21.375 101.5 26.25C106.375 31.125 110.188 36.7708 112.938 43.1875C115.688 49.6042 117.062 56.5 117.062 63.875C117.062 71.25 115.688 78.1458 112.938 84.5625C110.229 90.9792 106.438 96.625 101.562 101.5C96.6875 106.333 91.0417 110.125 84.625 112.875C78.2083 115.625 71.3125 117 63.9375 117ZM47.125 100.375H80.75C82.7917 100.375 84.375 99.8333 85.5 98.75C86.6667 97.625 87.25 96 87.25 93.875V93.0625C87.25 89.8542 86.3125 86.6667 84.4375 83.5C82.6042 80.3333 80.4583 77.375 78 74.625C75.5417 71.875 73.375 69.5833 71.5 67.75C70.125 66.4167 69.4583 65.0833 69.5 63.75C69.5833 62.4167 70.25 61.125 71.5 59.875C73.375 58.0417 75.5417 55.7708 78 53.0625C80.4583 50.3125 82.6042 47.3542 84.4375 44.1875C86.3125 40.9792 87.25 37.7708 87.25 34.5625V33.875C87.25 31.75 86.6667 30.125 85.5 29C84.375 27.875 82.7917 27.3125 80.75 27.3125H47.125C45.125 27.3125 43.5417 27.875 42.375 29C41.25 30.125 40.6875 31.75 40.6875 33.875V34.5625C40.6875 37.7708 41.6042 40.9792 43.4375 44.1875C45.2708 47.3542 47.4167 50.3125 49.875 53.0625C52.375 55.7708 54.5625 58.0417 56.4375 59.875C57.6875 61.125 58.3333 62.4167 58.375 63.75C58.4167 65.0833 57.7708 66.4167 56.4375 67.75C54.5625 69.5833 52.375 71.875 49.875 74.625C47.4167 77.375 45.2708 80.3333 43.4375 83.5C41.6042 86.6667 40.6875 89.8542 40.6875 93.0625V93.875C40.6875 96 41.25 97.625 42.375 98.75C43.5417 99.8333 45.125 100.375 47.125 100.375ZM50.1875 95C49.3125 95 48.7917 94.625 48.625 93.875C48.4583 93.125 48.6667 92.4792 49.25 91.9375L61.125 79.8125C61.3333 79.6042 61.4792 79.4167 61.5625 79.25C61.6875 79.0833 61.75 78.8542 61.75 78.5625V61C61.75 59.5 61.2083 58.2292 60.125 57.1875C58.75 55.8125 57.3542 54.4375 55.9375 53.0625C54.5625 51.6458 53.2708 50.2917 52.0625 49C51.5208 48.4583 51.3542 47.9583 51.5625 47.5C51.7708 47 52.1875 46.75 52.8125 46.75H75.125C75.75 46.75 76.1667 47 76.375 47.5C76.5833 47.9583 76.4167 48.4583 75.875 49C74.625 50.2917 73.2917 51.6458 71.875 53.0625C70.5 54.4375 69.125 55.8125 67.75 57.1875C66.6667 58.2292 66.125 59.5 66.125 61V78.5625C66.125 78.8542 66.1667 79.0833 66.25 79.25C66.375 79.4167 66.5417 79.6042 66.75 79.8125L78.6875 91.9375C79.2292 92.4792 79.4167 93.125 79.25 93.875C79.0833 94.625 78.5625 95 77.6875 95H50.1875Z" fill="white"/>
</svg>
