<svg width="16" height="17" viewBox="0 0 16 17" fill="none" xmlns="http://www.w3.org/2000/svg">
<path d="M8 16.3281C9.08854 16.3281 10.112 16.1198 11.0703 15.7031C12.0339 15.2865 12.8828 14.7109 13.6172 13.9766C14.3516 13.2422 14.9271 12.3958 15.3438 11.4375C15.7604 10.474 15.9688 9.44792 15.9688 8.35938C15.9688 7.27083 15.7604 6.2474 15.3438 5.28906C14.9271 4.32552 14.3516 3.47656 13.6172 2.74219C12.8828 2.00781 12.0339 1.43229 11.0703 1.01562C10.1068 0.598958 9.08073 0.390625 7.99219 0.390625C6.90365 0.390625 5.8776 0.598958 4.91406 1.01562C3.95573 1.43229 3.10938 2.00781 2.375 2.74219C1.64583 3.47656 1.07292 4.32552 0.65625 5.28906C0.239583 6.2474 0.03125 7.27083 0.03125 8.35938C0.03125 9.44792 0.239583 10.474 0.65625 11.4375C1.07292 12.3958 1.64844 13.2422 2.38281 13.9766C3.11719 14.7109 3.96354 15.2865 4.92188 15.7031C5.88542 16.1198 6.91146 16.3281 8 16.3281ZM8 15C7.07812 15 6.21615 14.8281 5.41406 14.4844C4.61198 14.1406 3.90625 13.6667 3.29688 13.0625C2.69271 12.4531 2.21875 11.7474 1.875 10.9453C1.53646 10.1432 1.36719 9.28125 1.36719 8.35938C1.36719 7.4375 1.53646 6.57552 1.875 5.77344C2.21875 4.97135 2.69271 4.26562 3.29688 3.65625C3.90104 3.04688 4.60417 2.57292 5.40625 2.23438C6.20833 1.89062 7.07031 1.71875 7.99219 1.71875C8.91406 1.71875 9.77604 1.89062 10.5781 2.23438C11.3854 2.57292 12.0911 3.04688 12.6953 3.65625C13.3047 4.26562 13.7812 4.97135 14.125 5.77344C14.4688 6.57552 14.6406 7.4375 14.6406 8.35938C14.6406 9.28125 14.4688 10.1432 14.125 10.9453C13.7865 11.7474 13.3125 12.4531 12.7031 13.0625C12.0938 13.6667 11.388 14.1406 10.5859 14.4844C9.78385 14.8281 8.92188 15 8 15ZM5.89844 12.9219H10.1016C10.3568 12.9219 10.5547 12.8542 10.6953 12.7188C10.8411 12.5781 10.9141 12.375 10.9141 12.1094V12.0078C10.9141 11.6068 10.7969 11.2083 10.5625 10.8125C10.3333 10.4167 10.0651 10.0469 9.75781 9.70312C9.45052 9.35938 9.17969 9.07292 8.94531 8.84375C8.77344 8.67708 8.6901 8.51042 8.69531 8.34375C8.70573 8.17708 8.78906 8.01562 8.94531 7.85938C9.17969 7.63021 9.45052 7.34635 9.75781 7.00781C10.0651 6.66406 10.3333 6.29427 10.5625 5.89844C10.7969 5.4974 10.9141 5.09635 10.9141 4.69531V4.60938C10.9141 4.34375 10.8411 4.14062 10.6953 4C10.5547 3.85938 10.3568 3.78906 10.1016 3.78906H5.89844C5.64844 3.78906 5.45052 3.85938 5.30469 4C5.16406 4.14062 5.09375 4.34375 5.09375 4.60938V4.69531C5.09375 5.09635 5.20833 5.4974 5.4375 5.89844C5.66667 6.29427 5.9349 6.66406 6.24219 7.00781C6.55469 7.34635 6.82812 7.63021 7.0625 7.85938C7.21875 8.01562 7.29948 8.17708 7.30469 8.34375C7.3099 8.51042 7.22917 8.67708 7.0625 8.84375C6.82812 9.07292 6.55469 9.35938 6.24219 9.70312C5.9349 10.0469 5.66667 10.4167 5.4375 10.8125C5.20833 11.2083 5.09375 11.6068 5.09375 12.0078V12.1094C5.09375 12.375 5.16406 12.5781 5.30469 12.7188C5.45052 12.8542 5.64844 12.9219 5.89844 12.9219ZM6.28125 12.25C6.17188 12.25 6.10677 12.2031 6.08594 12.1094C6.0651 12.0156 6.09115 11.9349 6.16406 11.8672L7.64844 10.3516C7.67448 10.3255 7.69271 10.3021 7.70312 10.2812C7.71875 10.2604 7.72656 10.2318 7.72656 10.1953V8C7.72656 7.8125 7.65885 7.65365 7.52344 7.52344C7.35156 7.35156 7.17708 7.17969 7 7.00781C6.82812 6.83073 6.66667 6.66146 6.51562 6.5C6.44792 6.43229 6.42708 6.36979 6.45312 6.3125C6.47917 6.25 6.53125 6.21875 6.60938 6.21875H9.39844C9.47656 6.21875 9.52865 6.25 9.55469 6.3125C9.58073 6.36979 9.5599 6.43229 9.49219 6.5C9.33594 6.66146 9.16927 6.83073 8.99219 7.00781C8.82031 7.17969 8.64844 7.35156 8.47656 7.52344C8.34115 7.65365 8.27344 7.8125 8.27344 8V10.1953C8.27344 10.2318 8.27865 10.2604 8.28906 10.2812C8.30469 10.3021 8.32552 10.3255 8.35156 10.3516L9.84375 11.8672C9.91146 11.9349 9.9349 12.0156 9.91406 12.1094C9.89323 12.2031 9.82812 12.25 9.71875 12.25H6.28125Z" fill="white"/>
</svg>
