<svg width="16" height="17" viewBox="0 0 16 17" fill="none" xmlns="http://www.w3.org/2000/svg">
<path d="M8 16.3281C9.08854 16.3281 10.112 16.1198 11.0703 15.7031C12.0339 15.2865 12.8828 14.7109 13.6172 13.9766C14.3516 13.2422 14.9271 12.3958 15.3438 11.4375C15.7604 10.474 15.9688 9.44792 15.9688 8.35938C15.9688 7.27083 15.7604 6.2474 15.3438 5.28906C14.9271 4.32552 14.3516 3.47656 13.6172 2.74219C12.8828 2.00781 12.0339 1.43229 11.0703 1.01562C10.1068 0.598958 9.08073 0.390625 7.99219 0.390625C6.90365 0.390625 5.8776 0.598958 4.91406 1.01562C3.95573 1.43229 3.10938 2.00781 2.375 2.74219C1.64583 3.47656 1.07292 4.32552 0.65625 5.28906C0.239583 6.2474 0.03125 7.27083 0.03125 8.35938C0.03125 9.44792 0.239583 10.474 0.65625 11.4375C1.07292 12.3958 1.64844 13.2422 2.38281 13.9766C3.11719 14.7109 3.96354 15.2865 4.92188 15.7031C5.88542 16.1198 6.91146 16.3281 8 16.3281ZM5.83594 13.0625C5.57552 13.0625 5.36979 12.9922 5.21875 12.8516C5.07292 12.7057 5 12.4974 5 12.2266V12.1172C5 11.8099 5.07031 11.5026 5.21094 11.1953C5.35156 10.8828 5.52865 10.5833 5.74219 10.2969C5.95573 10.0104 6.17708 9.74479 6.40625 9.5C6.64062 9.25521 6.84896 9.04167 7.03125 8.85938C7.20312 8.6875 7.28646 8.51562 7.28125 8.34375C7.27604 8.16667 7.19271 8 7.03125 7.84375C6.84896 7.66667 6.64062 7.45573 6.40625 7.21094C6.17708 6.96615 5.95573 6.70052 5.74219 6.41406C5.52865 6.1224 5.35156 5.82292 5.21094 5.51562C5.07031 5.20312 5 4.89062 5 4.57812V4.49219C5 4.22135 5.07292 4.01302 5.21875 3.86719C5.36979 3.72135 5.57552 3.64844 5.83594 3.64844H10.1641C10.4245 3.64844 10.6302 3.72135 10.7812 3.86719C10.9323 4.01302 11.0078 4.22135 11.0078 4.49219V4.57812C11.0078 4.89062 10.9375 5.20312 10.7969 5.51562C10.6562 5.82292 10.4766 6.1224 10.2578 6.41406C10.0443 6.70052 9.82292 6.96615 9.59375 7.21094C9.36458 7.45573 9.15885 7.66667 8.97656 7.84375C8.8151 8 8.73177 8.16667 8.72656 8.34375C8.72135 8.51562 8.80469 8.6875 8.97656 8.85938C9.15885 9.04167 9.36458 9.25521 9.59375 9.5C9.82292 9.74479 10.0443 10.0104 10.2578 10.2969C10.4766 10.5833 10.6562 10.8828 10.7969 11.1953C10.9375 11.5026 11.0078 11.8099 11.0078 12.1172V12.2266C11.0078 12.4974 10.9323 12.7057 10.7812 12.8516C10.6302 12.9922 10.4245 13.0625 10.1641 13.0625H5.83594ZM6.22656 12.3672H9.77344C9.88802 12.3672 9.95573 12.3203 9.97656 12.2266C9.9974 12.1276 9.97135 12.0443 9.89844 11.9766L8.35938 10.4141C8.33333 10.388 8.3125 10.3646 8.29688 10.3438C8.28646 10.3229 8.28125 10.2917 8.28125 10.25V7.98438C8.28125 7.79167 8.35156 7.6276 8.49219 7.49219C8.66927 7.3151 8.84896 7.13802 9.03125 6.96094C9.21354 6.78385 9.38281 6.61198 9.53906 6.44531C9.60677 6.3724 9.6276 6.30469 9.60156 6.24219C9.57552 6.17969 9.52083 6.14844 9.4375 6.14844H6.57031C6.48698 6.14844 6.43229 6.17969 6.40625 6.24219C6.38021 6.30469 6.40104 6.3724 6.46875 6.44531C6.625 6.61198 6.79427 6.78385 6.97656 6.96094C7.15885 7.13802 7.33594 7.3151 7.50781 7.49219C7.64844 7.6276 7.71875 7.79167 7.71875 7.98438V10.25C7.71875 10.2917 7.71094 10.3229 7.69531 10.3438C7.6849 10.3646 7.66667 10.388 7.64062 10.4141L6.10938 11.9766C6.03646 12.0443 6.01042 12.1276 6.03125 12.2266C6.05208 12.3203 6.11719 12.3672 6.22656 12.3672Z" fill="white"/>
</svg>
