<svg xmlns="http://www.w3.org/2000/svg" width="24" height="24"><path style="stroke:none;fill-rule:nonzero;fill:#fff;fill-opacity:1" d="M4.07 23.262h15.86c.953 0 1.695-.172 2.234-.524.547-.351.824-.86.824-1.523v-.25c0-.75-.258-1.508-.77-2.266a11.806 11.806 0 0 0-1.948-2.187 25.78 25.78 0 0 0-2.457-1.95 86.504 86.504 0 0 0-2.231-1.55c-.59-.39-.895-.797-.918-1.227-.027-.43.281-.86.918-1.285.648-.434 1.395-.945 2.23-1.535a27.518 27.518 0 0 0 2.458-1.953c.77-.68 1.421-1.41 1.949-2.188.511-.758.77-1.515.77-2.273V2.34c0-.68-.278-1.188-.825-1.54-.539-.35-1.281-.523-2.234-.523H4.07c-.937 0-1.683.172-2.234.524-.547.351-.824.86-.824 1.539v.21c0 .759.258 1.516.77 2.274.527.778 1.179 1.508 1.948 2.188.762.68 1.575 1.328 2.438 1.953.852.59 1.602 1.101 2.25 1.535.652.426.965.855.937 1.285-.023.43-.335.836-.937 1.227-.648.433-1.398.953-2.25 1.55a27.176 27.176 0 0 0-2.438 1.95c-.77.68-1.421 1.414-1.949 2.187-.511.758-.77 1.516-.77 2.266v.25c0 .664.278 1.172.825 1.523.55.352 1.297.524 2.234.524Zm9.223-13.438c-.461.258-.895.39-1.293.39-.387 0-.82-.132-1.293-.39-.352-.199-.832-.5-1.445-.898a71.596 71.596 0 0 1-1.95-1.352 39.844 39.844 0 0 1-1.894-1.46c-.574-.485-1.02-.907-1.332-1.266-.16-.196-.203-.364-.129-.5.086-.141.273-.211.563-.211h14.96c.301 0 .489.07.563.21.074.137.031.305-.129.5-.3.36-.746.782-1.332 1.266-.613.5-1.25.989-1.914 1.461a58.4 58.4 0 0 1-1.93 1.352c-.46.312-.945.613-1.445.898Zm0 0"/></svg>