<?xml version="1.0" encoding="UTF-8"?>
<svg xmlns="http://www.w3.org/2000/svg" xmlns:xlink="http://www.w3.org/1999/xlink" width="24" height="36" viewBox="0 0 24 36" version="1.1">
<g id="surface1">
<path style=" stroke:none;fill-rule:nonzero;fill:rgb(100%,100%,100%);fill-opacity:1;" d="M 4.070312 34.894531 L 19.929688 34.894531 C 20.882812 34.894531 21.625 34.632812 22.164062 34.105469 C 22.710938 33.582031 22.988281 32.820312 22.988281 31.820312 L 22.988281 31.445312 C 22.988281 30.320312 22.730469 29.1875 22.21875 28.050781 C 21.707031 26.914062 21.054688 25.820312 20.269531 24.769531 C 19.480469 23.707031 18.664062 22.730469 17.8125 21.84375 C 16.976562 20.945312 16.230469 20.167969 15.582031 19.519531 C 14.992188 18.929688 14.6875 18.320312 14.664062 17.679688 C 14.636719 17.03125 14.945312 16.386719 15.582031 15.75 C 16.230469 15.101562 16.976562 14.332031 17.8125 13.445312 C 18.664062 12.542969 19.480469 11.570312 20.269531 10.519531 C 21.054688 9.46875 21.707031 8.375 22.21875 7.238281 C 22.730469 6.101562 22.988281 4.960938 22.988281 3.824219 L 22.988281 3.507812 C 22.988281 2.492188 22.710938 1.726562 22.164062 1.199219 C 21.625 0.675781 20.882812 0.414062 19.929688 0.414062 L 4.070312 0.414062 C 3.132812 0.414062 2.386719 0.675781 1.835938 1.199219 C 1.289062 1.726562 1.011719 2.492188 1.011719 3.507812 L 1.011719 3.824219 C 1.011719 4.960938 1.269531 6.101562 1.78125 7.238281 C 2.292969 8.375 2.945312 9.46875 3.730469 10.519531 C 4.519531 11.570312 5.332031 12.542969 6.167969 13.445312 C 7.019531 14.332031 7.769531 15.101562 8.417969 15.75 C 9.019531 16.335938 9.332031 16.957031 9.355469 17.605469 C 9.382812 18.242188 9.070312 18.882812 8.417969 19.519531 C 7.769531 20.167969 7.019531 20.945312 6.167969 21.84375 C 5.332031 22.730469 4.519531 23.707031 3.730469 24.769531 C 2.945312 25.820312 2.292969 26.914062 1.78125 28.050781 C 1.269531 29.1875 1.011719 30.320312 1.011719 31.445312 L 1.011719 31.820312 C 1.011719 32.820312 1.289062 33.582031 1.835938 34.105469 C 2.386719 34.632812 3.132812 34.894531 4.070312 34.894531 Z M 5.511719 32.34375 C 5.113281 32.34375 4.867188 32.164062 4.78125 31.800781 C 4.695312 31.449219 4.789062 31.148438 5.0625 30.898438 L 11.101562 25.144531 C 11.699219 24.582031 12.300781 24.582031 12.898438 25.144531 L 18.9375 30.898438 C 19.210938 31.148438 19.304688 31.449219 19.21875 31.800781 C 19.144531 32.164062 18.898438 32.34375 18.488281 32.34375 Z M 5.511719 32.34375 "/>
</g>
</svg>
