<svg xmlns="http://www.w3.org/2000/svg" width="24" height="24"><path style="stroke:none;fill-rule:nonzero;fill:#fff;fill-opacity:1" d="M4.07 23.262h15.86c.953 0 1.695-.172 2.234-.524.547-.351.824-.86.824-1.523v-.25c0-.75-.258-1.508-.77-2.266a11.806 11.806 0 0 0-1.948-2.187 25.78 25.78 0 0 0-2.457-1.95 86.504 86.504 0 0 0-2.231-1.55c-.637-.422-.945-.852-.918-1.274.024-.433.328-.847.918-1.238.648-.434 1.395-.945 2.23-1.535a27.518 27.518 0 0 0 2.458-1.953c.77-.68 1.421-1.41 1.949-2.188.511-.758.77-1.515.77-2.273V2.34c0-.68-.278-1.188-.825-1.54-.539-.35-1.281-.523-2.234-.523H4.07c-.937 0-1.683.172-2.234.524-.547.351-.824.86-.824 1.539v.21c0 .759.258 1.516.77 2.274.527.778 1.179 1.508 1.948 2.188.762.68 1.575 1.328 2.438 1.953.852.59 1.602 1.101 2.25 1.535.602.39.914.805.937 1.238.028.422-.285.852-.937 1.274-.648.433-1.398.953-2.25 1.55a27.176 27.176 0 0 0-2.438 1.95c-.77.68-1.421 1.414-1.949 2.187-.511.758-.77 1.516-.77 2.266v.25c0 .664.278 1.172.825 1.523.55.352 1.297.524 2.234.524Zm1.442-1.7c-.399 0-.645-.12-.73-.363-.087-.234.007-.433.28-.601l5.981-3.797c.113-.067.195-.125.246-.176a.308.308 0 0 0 .074-.223v-5.539c0-.285-.058-.515-.168-.687-.101-.176-.312-.356-.64-.54-.625-.359-1.336-.769-2.137-1.234-.707-.418-1.39-.859-2.043-1.312-.238-.168-.313-.332-.227-.492.102-.157.297-.235.582-.235h10.54c.3 0 .492.078.582.235.097.16.023.324-.227.492-.652.457-1.336.894-2.043 1.312-.789.465-1.5.875-2.137 1.235-.312.183-.527.363-.64.539-.098.172-.149.402-.149.687v5.54c0 .097.02.171.055.222.05.05.133.11.246.176l5.98 3.797c.274.168.368.367.282.601-.074.242-.32.363-.73.363Zm0 0"/></svg>