<svg width="128" height="128" viewBox="0 0 128 128" fill="none" xmlns="http://www.w3.org/2000/svg">
<path d="M63.9375 127.625C72.6458 127.625 80.8333 125.958 88.5 122.625C96.2083 119.292 103 114.688 108.875 108.812C114.75 102.938 119.354 96.1667 122.688 88.5C126.021 80.7917 127.688 72.5833 127.688 63.875C127.688 55.1667 126.021 46.9792 122.688 39.3125C119.354 31.6042 114.75 24.8125 108.875 18.9375C103 13.0625 96.2083 8.45833 88.5 5.125C80.7917 1.79167 72.5833 0.125 63.875 0.125C55.1667 0.125 46.9583 1.79167 39.25 5.125C31.5833 8.45833 24.8125 13.0625 18.9375 18.9375C13.1042 24.8125 8.52083 31.6042 5.1875 39.3125C1.85417 46.9792 0.1875 55.1667 0.1875 63.875C0.1875 72.5833 1.85417 80.7917 5.1875 88.5C8.52083 96.1667 13.125 102.938 19 108.812C24.875 114.688 31.6458 119.292 39.3125 122.625C47.0208 125.958 55.2292 127.625 63.9375 127.625ZM63.9375 117C56.5625 117 49.6667 115.625 43.25 112.875C36.8333 110.125 31.1875 106.333 26.3125 101.5C21.4792 96.625 17.6875 90.9792 14.9375 84.5625C12.2292 78.1458 10.875 71.25 10.875 63.875C10.875 56.5 12.2292 49.6042 14.9375 43.1875C17.6875 36.7708 21.4792 31.125 26.3125 26.25C31.1458 21.375 36.7708 17.5833 43.1875 14.875C49.6042 12.125 56.5 10.75 63.875 10.75C71.25 10.75 78.1458 12.125 84.5625 14.875C91.0208 17.5833 96.6667 21.375 101.5 26.25C106.375 31.125 110.188 36.7708 112.938 43.1875C115.688 49.6042 117.062 56.5 117.062 63.875C117.062 71.25 115.688 78.1458 112.938 84.5625C110.229 90.9792 106.438 96.625 101.562 101.5C96.6875 106.333 91.0417 110.125 84.625 112.875C78.2083 115.625 71.3125 117 63.9375 117ZM39.875 69.9375C39.875 72.0208 40.8958 73.0625 42.9375 73.0625H47.0625C46.4792 73.9375 46.0208 74.875 45.6875 75.875C45.3958 76.875 45.25 77.8333 45.25 78.75C45.25 81.9583 46.1042 84.7083 47.8125 87C49.5208 89.25 51.7917 90.9792 54.625 92.1875C57.5 93.3542 60.6667 93.9375 64.125 93.9375C67.5 93.9375 70.625 93.2917 73.5 92C76.4167 90.6667 78.6875 88.6458 80.3125 85.9375C81.2708 84.4792 81.7708 83 81.8125 81.5C81.8542 80.4167 81.5417 79.5208 80.875 78.8125C80.25 78.0625 79.3333 77.6875 78.125 77.6875C77.3333 77.6875 76.625 77.875 76 78.25C75.4167 78.625 74.8958 79.3333 74.4375 80.375C73.6458 82.4583 72.2708 84.0208 70.3125 85.0625C68.3958 86.0625 66.2708 86.5625 63.9375 86.5625C61.0208 86.5625 58.4792 85.8958 56.3125 84.5625C54.1875 83.1875 53.125 81.1458 53.125 78.4375C53.125 77.4792 53.3542 76.5208 53.8125 75.5625C54.2708 74.5625 54.9583 73.7292 55.875 73.0625H84.75C86.7917 73.0625 87.8125 72.0208 87.8125 69.9375C87.8125 69.1042 87.5208 68.3958 86.9375 67.8125C86.3542 67.1875 85.625 66.875 84.75 66.875H42.9375C42.0208 66.875 41.2708 67.1875 40.6875 67.8125C40.1458 68.3958 39.875 69.1042 39.875 69.9375ZM40 57.4375C40 58.2708 40.2708 59 40.8125 59.625C41.3958 60.2083 42.1458 60.5 43.0625 60.5H84.875C85.75 60.5 86.4792 60.2083 87.0625 59.625C87.6458 59 87.9375 58.2708 87.9375 57.4375C87.9375 55.3958 86.9167 54.375 84.875 54.375H80.75C81.3333 53.4583 81.7708 52.5 82.0625 51.5C82.3542 50.5 82.5 49.5417 82.5 48.625C82.5 45.4167 81.6458 42.6875 79.9375 40.4375C78.2292 38.1875 75.9375 36.4583 73.0625 35.25C70.2292 34.0417 67.1042 33.4375 63.6875 33.4375C60.3125 33.4375 57.1667 34.1042 54.25 35.4375C51.375 36.7708 49.1042 38.7917 47.4375 41.5C46.4792 42.9167 46 44.3958 46 45.9375C45.9583 46.9792 46.25 47.875 46.875 48.625C47.5417 49.3333 48.4792 49.6875 49.6875 49.6875C50.4375 49.6875 51.125 49.5 51.75 49.125C52.375 48.75 52.8958 48.0417 53.3125 47C54.1875 44.9167 55.5833 43.375 57.5 42.375C59.4167 41.3333 61.5417 40.8125 63.875 40.8125C66.7917 40.8125 69.3125 41.5 71.4375 42.875C73.6042 44.2083 74.6875 46.2292 74.6875 48.9375C74.6875 49.8958 74.4583 50.875 74 51.875C73.5417 52.875 72.8333 53.7083 71.875 54.375H43.0625C41.0208 54.375 40 55.3958 40 57.4375Z" fill="white"/>
</svg>
