<svg xmlns="http://www.w3.org/2000/svg" width="24" height="24"><path style="stroke:none;fill-rule:nonzero;fill:#fff;fill-opacity:1" d="M12 23.05c1.633 0 3.168-.292 4.605-.882a12.22 12.22 0 0 0 3.82-2.438 11.467 11.467 0 0 0 2.59-3.582c.626-1.363.938-2.808.938-4.347a10.2 10.2 0 0 0-.937-4.332 11.53 11.53 0 0 0-2.59-3.598 12.361 12.361 0 0 0-3.82-2.437A12.166 12.166 0 0 0 11.987.55c-1.633 0-3.172.293-4.617.883A12.307 12.307 0 0 0 3.562 3.87 11.523 11.523 0 0 0 .985 7.465 10.2 10.2 0 0 0 .047 11.8c0 1.539.312 2.984.937 4.347a11.467 11.467 0 0 0 2.59 3.582 12.236 12.236 0 0 0 3.809 2.438c1.445.59 2.984.883 4.617.883ZM7.348 12.907c0-.156.054-.285.164-.386a.621.621 0 0 1 .433-.168h8.098c.172 0 .312.058.422.168.11.101.164.23.164.386 0 .38-.195.574-.586.574h-5.59a1.05 1.05 0 0 0-.398.45 1.197 1.197 0 0 0-.13.53c0 .485.208.852.622 1.102.414.243.902.364 1.465.364.445 0 .855-.09 1.23-.274.375-.183.64-.464.797-.84.086-.19.188-.32.305-.386a.752.752 0 0 1 .41-.11c.234 0 .414.067.539.2a.654.654 0 0 1 .176.496 1.464 1.464 0 0 1-.293.816c-.313.492-.75.86-1.313 1.102a4.588 4.588 0 0 1-1.816.351 5.023 5.023 0 0 1-1.828-.32 3.18 3.18 0 0 1-1.336-.945c-.328-.422-.492-.922-.492-1.5 0-.172.03-.344.093-.52.063-.184.149-.355.258-.52h-.797a.64.64 0 0 1-.433-.152.584.584 0 0 1-.164-.418Zm.035-2.273c0-.375.195-.563.586-.563h5.578c.176-.113.32-.27.41-.453.082-.168.125-.351.129-.539 0-.484-.207-.851-.621-1.094-.414-.25-.902-.375-1.465-.375-.445 0-.855.094-1.23.278-.368.18-.653.476-.81.836-.077.191-.179.324-.304.398a.828.828 0 0 1-.398.102c-.235 0-.414-.067-.54-.2a.648.648 0 0 1-.175-.488c0-.285.094-.558.281-.816.328-.492.77-.86 1.324-1.102a4.453 4.453 0 0 1 1.817-.363c.664 0 1.27.11 1.816.332.555.219.996.535 1.324.945.336.414.504.91.504 1.492 0 .168-.03.344-.093.528-.059.183-.141.355-.246.52h.796c.172 0 .313.05.422.152a.526.526 0 0 1 .176.41.53.53 0 0 1-.176.398.593.593 0 0 1-.422.153H7.97a.593.593 0 0 1-.422-.153.572.572 0 0 1-.164-.398Zm0 0"/></svg>