<svg width="116" height="116" viewBox="0 0 116 116" fill="none" xmlns="http://www.w3.org/2000/svg">
<path d="M20.5625 115.5H96.375C102.917 115.5 107.812 113.875 111.062 110.625C114.354 107.417 116 102.583 116 96.125V19.8125C116 13.3542 114.354 8.52083 111.062 5.3125C107.812 2.0625 102.917 0.4375 96.375 0.4375H20.5625C14.0208 0.4375 9.10417 2.0625 5.8125 5.3125C2.5625 8.52083 0.9375 13.3542 0.9375 19.8125V96.125C0.9375 102.583 2.5625 107.417 5.8125 110.625C9.10417 113.875 14.0208 115.5 20.5625 115.5ZM20.6875 105.438C17.5625 105.438 15.1667 104.625 13.5 103C11.8333 101.333 11 98.875 11 95.625V20.3125C11 17.0625 11.8333 14.625 13.5 13C15.1667 11.3333 17.5625 10.5 20.6875 10.5H96.25C99.3333 10.5 101.708 11.3333 103.375 13C105.083 14.625 105.938 17.0625 105.938 20.3125V95.625C105.938 98.875 105.083 101.333 103.375 103C101.708 104.625 99.3333 105.438 96.25 105.438H20.6875ZM34.5 63.9375C34.5 66.0208 35.5208 67.0625 37.5625 67.0625H41.6875C41.1042 67.9375 40.6458 68.875 40.3125 69.875C40.0208 70.875 39.875 71.8333 39.875 72.75C39.875 75.9583 40.7292 78.7083 42.4375 81C44.1458 83.25 46.4167 84.9792 49.25 86.1875C52.125 87.3542 55.2917 87.9375 58.75 87.9375C62.125 87.9375 65.25 87.2917 68.125 86C71.0417 84.6667 73.3125 82.6458 74.9375 79.9375C75.8958 78.4792 76.3958 77 76.4375 75.5C76.4792 74.4167 76.1667 73.5208 75.5 72.8125C74.875 72.0625 73.9583 71.6875 72.75 71.6875C71.9583 71.6875 71.25 71.875 70.625 72.25C70.0417 72.625 69.5208 73.3333 69.0625 74.375C68.2708 76.4583 66.8958 78.0208 64.9375 79.0625C63.0208 80.0625 60.8958 80.5625 58.5625 80.5625C55.6458 80.5625 53.1042 79.8958 50.9375 78.5625C48.8125 77.1875 47.75 75.1458 47.75 72.4375C47.75 71.4792 47.9792 70.5208 48.4375 69.5625C48.8958 68.5625 49.5833 67.7292 50.5 67.0625H79.375C81.4167 67.0625 82.4375 66.0208 82.4375 63.9375C82.4375 63.1042 82.1458 62.3958 81.5625 61.8125C80.9792 61.1875 80.25 60.875 79.375 60.875H37.5625C36.6458 60.875 35.8958 61.1875 35.3125 61.8125C34.7708 62.3958 34.5 63.1042 34.5 63.9375ZM34.625 51.4375C34.625 52.2708 34.8958 53 35.4375 53.625C36.0208 54.2083 36.7708 54.5 37.6875 54.5H79.5C80.375 54.5 81.1042 54.2083 81.6875 53.625C82.2708 53 82.5625 52.2708 82.5625 51.4375C82.5625 49.3958 81.5417 48.375 79.5 48.375H75.375C75.9583 47.4583 76.3958 46.5 76.6875 45.5C76.9792 44.5 77.125 43.5417 77.125 42.625C77.125 39.4167 76.2708 36.6875 74.5625 34.4375C72.8542 32.1875 70.5625 30.4583 67.6875 29.25C64.8542 28.0417 61.7292 27.4375 58.3125 27.4375C54.9375 27.4375 51.7917 28.1042 48.875 29.4375C46 30.7708 43.7292 32.7917 42.0625 35.5C41.1042 36.9167 40.625 38.3958 40.625 39.9375C40.5833 40.9792 40.875 41.875 41.5 42.625C42.1667 43.3333 43.1042 43.6875 44.3125 43.6875C45.0625 43.6875 45.75 43.5 46.375 43.125C47 42.75 47.5208 42.0417 47.9375 41C48.8125 38.9167 50.2083 37.375 52.125 36.375C54.0417 35.3333 56.1667 34.8125 58.5 34.8125C61.4167 34.8125 63.9375 35.5 66.0625 36.875C68.2292 38.2083 69.3125 40.2292 69.3125 42.9375C69.3125 43.8958 69.0833 44.875 68.625 45.875C68.1667 46.875 67.4583 47.7083 66.5 48.375H37.6875C35.6458 48.375 34.625 49.3958 34.625 51.4375Z" fill="white"/>
</svg>
