<?xml version="1.0" encoding="UTF-8"?>
<svg xmlns="http://www.w3.org/2000/svg" xmlns:xlink="http://www.w3.org/1999/xlink" width="24" height="22.5" viewBox="0 0 24 22.5" version="1.1">
<g id="surface1">
<path style=" stroke:none;fill-rule:nonzero;fill:rgb(100%,100%,100%);fill-opacity:1;" d="M 4.886719 21.84375 L 19.101562 21.84375 C 20.328125 21.84375 21.246094 21.539062 21.855469 20.929688 C 22.472656 20.328125 22.78125 19.421875 22.78125 18.210938 L 22.78125 3.902344 C 22.78125 2.691406 22.472656 1.785156 21.855469 1.183594 C 21.246094 0.574219 20.328125 0.269531 19.101562 0.269531 L 4.886719 0.269531 C 3.660156 0.269531 2.738281 0.574219 2.121094 1.183594 C 1.511719 1.785156 1.207031 2.691406 1.207031 3.902344 L 1.207031 18.210938 C 1.207031 19.421875 1.511719 20.328125 2.121094 20.929688 C 2.738281 21.539062 3.660156 21.84375 4.886719 21.84375 Z M 4.910156 19.957031 C 4.324219 19.957031 3.875 19.804688 3.5625 19.5 C 3.25 19.1875 3.09375 18.726562 3.09375 18.117188 L 3.09375 3.996094 C 3.09375 3.386719 3.25 2.929688 3.5625 2.625 C 3.875 2.3125 4.324219 2.15625 4.910156 2.15625 L 19.078125 2.15625 C 19.65625 2.15625 20.101562 2.3125 20.414062 2.625 C 20.734375 2.929688 20.894531 3.386719 20.894531 3.996094 L 20.894531 18.117188 C 20.894531 18.726562 20.734375 19.1875 20.414062 19.5 C 20.101562 19.804688 19.65625 19.957031 19.078125 19.957031 Z M 7.5 12.175781 C 7.5 12.566406 7.691406 12.761719 8.074219 12.761719 L 8.847656 12.761719 C 8.738281 12.925781 8.652344 13.101562 8.589844 13.289062 C 8.535156 13.476562 8.507812 13.65625 8.507812 13.828125 C 8.507812 14.429688 8.667969 14.945312 8.988281 15.375 C 9.308594 15.796875 9.734375 16.121094 10.265625 16.347656 C 10.804688 16.566406 11.398438 16.675781 12.046875 16.675781 C 12.679688 16.675781 13.265625 16.554688 13.804688 16.3125 C 14.351562 16.0625 14.777344 15.683594 15.082031 15.175781 C 15.261719 14.902344 15.355469 14.625 15.363281 14.34375 C 15.371094 14.140625 15.3125 13.972656 15.1875 13.839844 C 15.070312 13.699219 14.898438 13.628906 14.671875 13.628906 C 14.523438 13.628906 14.390625 13.664062 14.273438 13.734375 C 14.164062 13.804688 14.066406 13.9375 13.980469 14.132812 C 13.832031 14.523438 13.574219 14.816406 13.207031 15.011719 C 12.847656 15.199219 12.449219 15.292969 12.011719 15.292969 C 11.464844 15.292969 10.988281 15.167969 10.582031 14.917969 C 10.183594 14.660156 9.984375 14.277344 9.984375 13.769531 C 9.984375 13.589844 10.027344 13.410156 10.113281 13.230469 C 10.199219 13.042969 10.328125 12.886719 10.5 12.761719 L 15.914062 12.761719 C 16.296875 12.761719 16.488281 12.566406 16.488281 12.175781 C 16.488281 12.019531 16.433594 11.886719 16.324219 11.777344 C 16.214844 11.660156 16.078125 11.601562 15.914062 11.601562 L 8.074219 11.601562 C 7.902344 11.601562 7.761719 11.660156 7.652344 11.777344 C 7.550781 11.886719 7.5 12.019531 7.5 12.175781 Z M 7.523438 9.832031 C 7.523438 9.988281 7.574219 10.125 7.675781 10.242188 C 7.785156 10.351562 7.925781 10.40625 8.097656 10.40625 L 15.9375 10.40625 C 16.101562 10.40625 16.238281 10.351562 16.347656 10.242188 C 16.457031 10.125 16.511719 9.988281 16.511719 9.832031 C 16.511719 9.449219 16.320312 9.257812 15.9375 9.257812 L 15.164062 9.257812 C 15.273438 9.085938 15.355469 8.90625 15.410156 8.71875 C 15.464844 8.53125 15.492188 8.351562 15.492188 8.179688 C 15.492188 7.578125 15.332031 7.066406 15.011719 6.644531 C 14.691406 6.222656 14.261719 5.898438 13.722656 5.671875 C 13.191406 5.445312 12.605469 5.332031 11.964844 5.332031 C 11.332031 5.332031 10.742188 5.457031 10.195312 5.707031 C 9.65625 5.957031 9.230469 6.335938 8.917969 6.84375 C 8.738281 7.109375 8.648438 7.386719 8.648438 7.675781 C 8.640625 7.871094 8.695312 8.039062 8.8125 8.179688 C 8.9375 8.3125 9.113281 8.378906 9.339844 8.378906 C 9.480469 8.378906 9.609375 8.34375 9.726562 8.273438 C 9.84375 8.203125 9.941406 8.070312 10.019531 7.875 C 10.183594 7.484375 10.445312 7.195312 10.804688 7.007812 C 11.164062 6.8125 11.5625 6.714844 12 6.714844 C 12.546875 6.714844 13.019531 6.84375 13.417969 7.101562 C 13.824219 7.351562 14.027344 7.730469 14.027344 8.238281 C 14.027344 8.417969 13.984375 8.601562 13.898438 8.789062 C 13.8125 8.976562 13.679688 9.132812 13.5 9.257812 L 8.097656 9.257812 C 7.714844 9.257812 7.523438 9.449219 7.523438 9.832031 Z M 7.523438 9.832031 "/>
</g>
</svg>
