<?xml version="1.0" encoding="UTF-8"?>
<svg xmlns="http://www.w3.org/2000/svg" xmlns:xlink="http://www.w3.org/1999/xlink" width="24" height="24" viewBox="0 0 24 24" version="1.1">
<g id="surface1">
<path style=" stroke:none;fill-rule:nonzero;fill:rgb(100%,100%,100%);fill-opacity:1;" d="M 9.152344 23.929688 L 14.824219 23.929688 C 16.589844 23.929688 18.0625 23.628906 19.242188 23.027344 C 20.429688 22.433594 21.320312 21.574219 21.914062 20.449219 C 22.507812 19.324219 22.804688 17.96875 22.804688 16.382812 C 22.804688 15.140625 22.496094 13.777344 21.878906 12.292969 C 21.261719 10.800781 20.433594 9.238281 19.394531 7.605469 C 18.355469 5.964844 17.203125 4.300781 15.9375 2.613281 C 15.6875 2.285156 15.453125 2.011719 15.234375 1.792969 C 15.023438 1.574219 14.78125 1.410156 14.507812 1.300781 C 14.242188 1.191406 13.898438 1.136719 13.476562 1.136719 L 10.511719 1.136719 C 10.089844 1.136719 9.742188 1.191406 9.46875 1.300781 C 9.195312 1.410156 8.953125 1.574219 8.742188 1.792969 C 8.53125 2.011719 8.300781 2.285156 8.050781 2.613281 C 6.785156 4.300781 5.632812 5.964844 4.59375 7.605469 C 3.554688 9.238281 2.726562 10.800781 2.109375 12.292969 C 1.492188 13.777344 1.183594 15.140625 1.183594 16.382812 C 1.183594 17.96875 1.480469 19.324219 2.074219 20.449219 C 2.667969 21.574219 3.554688 22.433594 4.734375 23.027344 C 5.921875 23.628906 7.394531 23.929688 9.152344 23.929688 Z M 3.070312 16.382812 C 3.070312 15.617188 3.21875 14.78125 3.515625 13.875 C 3.8125 12.960938 4.242188 11.972656 4.804688 10.910156 C 5.375 9.847656 6.0625 8.707031 6.867188 7.488281 C 7.671875 6.269531 8.582031 4.964844 9.597656 3.574219 C 9.738281 3.386719 9.875 3.25 10.007812 3.164062 C 10.140625 3.070312 10.320312 3.023438 10.546875 3.023438 L 13.441406 3.023438 C 13.667969 3.023438 13.84375 3.070312 13.96875 3.164062 C 14.101562 3.25 14.238281 3.386719 14.378906 3.574219 C 15.394531 4.964844 16.304688 6.269531 17.109375 7.488281 C 17.921875 8.707031 18.609375 9.847656 19.171875 10.910156 C 19.734375 11.972656 20.164062 12.960938 20.460938 13.875 C 20.765625 14.78125 20.917969 15.617188 20.917969 16.382812 C 20.917969 17.570312 20.691406 18.585938 20.238281 19.429688 C 19.792969 20.273438 19.121094 20.917969 18.222656 21.363281 C 17.324219 21.816406 16.191406 22.042969 14.824219 22.042969 L 9.152344 22.042969 C 7.792969 22.042969 6.660156 21.816406 5.753906 21.363281 C 4.855469 20.917969 4.183594 20.273438 3.738281 19.429688 C 3.292969 18.585938 3.070312 17.570312 3.070312 16.382812 Z M 6.082031 6.832031 L 5.730469 8.71875 L 18.257812 8.71875 L 17.90625 6.832031 Z M 2.683594 17.144531 L 9.644531 17.144531 L 9.644531 15.257812 L 2.683594 15.257812 Z M 12 19.21875 C 12.5625 19.21875 13.070312 19.085938 13.523438 18.820312 C 13.984375 18.546875 14.347656 18.183594 14.613281 17.730469 C 14.886719 17.269531 15.023438 16.753906 15.023438 16.183594 C 15.023438 15.621094 14.886719 15.113281 14.613281 14.660156 C 14.347656 14.199219 13.984375 13.835938 13.523438 13.570312 C 13.070312 13.296875 12.5625 13.160156 12 13.160156 C 11.429688 13.160156 10.914062 13.296875 10.453125 13.570312 C 10 13.835938 9.636719 14.199219 9.363281 14.660156 C 9.097656 15.113281 8.964844 15.621094 8.964844 16.183594 C 8.964844 16.753906 9.097656 17.269531 9.363281 17.730469 C 9.636719 18.183594 10 18.546875 10.453125 18.820312 C 10.914062 19.085938 11.429688 19.21875 12 19.21875 Z M 12 17.566406 C 11.609375 17.566406 11.28125 17.433594 11.015625 17.167969 C 10.75 16.902344 10.617188 16.574219 10.617188 16.183594 C 10.617188 15.800781 10.75 15.476562 11.015625 15.210938 C 11.28125 14.945312 11.609375 14.8125 12 14.8125 C 12.382812 14.8125 12.707031 14.945312 12.972656 15.210938 C 13.238281 15.476562 13.371094 15.800781 13.371094 16.183594 C 13.371094 16.574219 13.238281 16.902344 12.972656 17.167969 C 12.707031 17.433594 12.382812 17.566406 12 17.566406 Z M 14.34375 17.144531 L 21.363281 17.144531 L 21.363281 15.257812 L 14.34375 15.257812 Z M 14.34375 17.144531 "/>
</g>
</svg>
