<?xml version="1.0" encoding="UTF-8"?>
<svg xmlns="http://www.w3.org/2000/svg" xmlns:xlink="http://www.w3.org/1999/xlink" width="24" height="18.666667" viewBox="0 0 24 18.666667" version="1.1">
<g id="surface1">
<path style=" stroke:none;fill-rule:nonzero;fill:rgb(100%,100%,100%);fill-opacity:1;" d="M 18.699219 18.292969 C 19.53125 18.292969 20.289062 18.09375 20.96875 17.699219 C 21.648438 17.308594 22.191406 16.78125 22.59375 16.113281 C 22.996094 15.453125 23.199219 14.714844 23.199219 13.894531 C 23.199219 13.222656 23.058594 12.558594 22.78125 11.90625 C 22.511719 11.253906 22.226562 10.652344 21.925781 10.105469 L 19.5625 5.699219 C 19.375 5.335938 19.085938 5.15625 18.699219 5.15625 C 18.308594 5.15625 18.015625 5.335938 17.824219 5.699219 L 15.46875 10.105469 C 15.171875 10.652344 14.886719 11.253906 14.613281 11.90625 C 14.34375 12.558594 14.207031 13.222656 14.207031 13.894531 C 14.207031 14.714844 14.410156 15.453125 14.8125 16.113281 C 15.214844 16.78125 15.753906 17.308594 16.425781 17.699219 C 17.109375 18.09375 17.863281 18.292969 18.699219 18.292969 Z M 5.019531 5.699219 C 5.945312 5.699219 6.796875 5.566406 7.574219 5.300781 C 8.359375 5.039062 9.105469 4.710938 9.8125 4.324219 C 10.519531 3.933594 11.222656 3.546875 11.917969 3.15625 C 12.617188 2.761719 13.34375 2.429688 14.09375 2.167969 C 14.84375 1.902344 15.65625 1.769531 16.53125 1.769531 C 17.039062 1.769531 17.53125 1.832031 18.011719 1.957031 C 18.488281 2.082031 18.992188 2.296875 19.519531 2.605469 C 19.742188 2.730469 19.953125 2.761719 20.144531 2.699219 C 20.339844 2.636719 20.492188 2.527344 20.605469 2.375 C 20.730469 2.1875 20.773438 1.972656 20.738281 1.730469 C 20.703125 1.480469 20.542969 1.265625 20.25 1.09375 C 19.667969 0.753906 19.066406 0.503906 18.449219 0.34375 C 17.835938 0.175781 17.199219 0.09375 16.53125 0.09375 C 15.585938 0.09375 14.71875 0.226562 13.925781 0.488281 C 13.136719 0.753906 12.382812 1.082031 11.667969 1.480469 C 10.957031 1.867188 10.257812 2.257812 9.5625 2.644531 C 8.875 3.035156 8.160156 3.359375 7.417969 3.625 C 6.671875 3.890625 5.875 4.019531 5.019531 4.019531 C 4.507812 4.019531 4.011719 3.957031 3.53125 3.832031 C 3.050781 3.707031 2.546875 3.492188 2.019531 3.1875 C 1.796875 3.0625 1.589844 3.03125 1.394531 3.09375 C 1.203125 3.15625 1.046875 3.265625 0.9375 3.425781 C 0.820312 3.613281 0.777344 3.832031 0.8125 4.082031 C 0.847656 4.328125 1.007812 4.53125 1.292969 4.699219 C 1.882812 5.039062 2.484375 5.292969 3.09375 5.457031 C 3.703125 5.617188 4.347656 5.699219 5.019531 5.699219 Z M 5.03125 11.292969 C 5.859375 11.292969 6.625 11.183594 7.332031 10.96875 C 8.042969 10.746094 8.71875 10.472656 9.363281 10.144531 C 10.011719 9.8125 10.640625 9.46875 11.261719 9.113281 C 11.886719 8.753906 12.519531 8.425781 13.167969 8.136719 C 13.820312 7.84375 14.507812 7.636719 15.230469 7.511719 C 15.390625 7.203125 15.550781 6.902344 15.71875 6.605469 C 15.886719 6.296875 16.046875 5.992188 16.207031 5.6875 C 15.285156 5.730469 14.4375 5.890625 13.667969 6.167969 C 12.894531 6.445312 12.167969 6.773438 11.480469 7.15625 C 10.796875 7.539062 10.121094 7.917969 9.449219 8.292969 C 8.78125 8.667969 8.085938 8.984375 7.363281 9.238281 C 6.648438 9.488281 5.871094 9.613281 5.03125 9.613281 C 4.515625 9.613281 4.019531 9.550781 3.542969 9.425781 C 3.070312 9.296875 2.566406 9.078125 2.03125 8.769531 C 1.808594 8.644531 1.601562 8.613281 1.40625 8.675781 C 1.210938 8.738281 1.0625 8.851562 0.957031 9.011719 C 0.832031 9.199219 0.789062 9.417969 0.824219 9.667969 C 0.859375 9.910156 1.015625 10.113281 1.300781 10.28125 C 1.890625 10.621094 2.492188 10.875 3.105469 11.042969 C 3.722656 11.207031 4.363281 11.292969 5.03125 11.292969 Z M 5.019531 16.875 C 5.804688 16.875 6.539062 16.773438 7.21875 16.574219 C 7.90625 16.371094 8.558594 16.113281 9.175781 15.800781 C 9.796875 15.488281 10.402344 15.164062 11 14.824219 C 11.597656 14.484375 12.203125 14.171875 12.824219 13.886719 C 12.796875 13.65625 12.808594 13.359375 12.863281 13 C 12.921875 12.632812 12.992188 12.296875 13.082031 11.988281 C 12.390625 12.265625 11.722656 12.589844 11.082031 12.957031 C 10.453125 13.320312 9.816406 13.671875 9.175781 14.011719 C 8.546875 14.351562 7.890625 14.636719 7.207031 14.863281 C 6.527344 15.085938 5.796875 15.199219 5.019531 15.199219 C 4.507812 15.199219 4.011719 15.136719 3.53125 15.011719 C 3.050781 14.878906 2.546875 14.660156 2.019531 14.355469 C 1.796875 14.230469 1.589844 14.199219 1.394531 14.261719 C 1.203125 14.324219 1.046875 14.433594 0.9375 14.59375 C 0.820312 14.78125 0.777344 15 0.8125 15.25 C 0.847656 15.492188 1.007812 15.699219 1.292969 15.863281 C 1.882812 16.203125 2.484375 16.457031 3.09375 16.625 C 3.703125 16.792969 4.347656 16.875 5.019531 16.875 Z M 5.019531 16.875 "/>
</g>
</svg>
