<?xml version="1.0" encoding="UTF-8"?>
<svg xmlns="http://www.w3.org/2000/svg" xmlns:xlink="http://www.w3.org/1999/xlink" width="24" height="32.571429" viewBox="0 0 24 32.571429" version="1.1">
<g id="surface1">
<path style=" stroke:none;fill-rule:nonzero;fill:rgb(100%,100%,100%);fill-opacity:1;" d="M 9.09375 31.941406 L 14.90625 31.941406 C 16.65625 31.941406 18.117188 31.644531 19.285156 31.042969 C 20.464844 30.457031 21.347656 29.597656 21.9375 28.472656 C 22.527344 27.355469 22.820312 26.011719 22.820312 24.441406 C 22.820312 23.210938 22.503906 21.863281 21.871094 20.398438 C 21.246094 18.933594 20.410156 17.402344 19.367188 15.804688 C 18.332031 14.195312 17.191406 12.566406 15.949219 10.914062 C 15.59375 10.441406 15.25 10.074219 14.917969 9.816406 C 14.589844 9.558594 14.097656 9.429688 13.445312 9.429688 L 10.554688 9.429688 C 9.902344 9.429688 9.410156 9.558594 9.082031 9.816406 C 8.757812 10.074219 8.414062 10.441406 8.050781 10.914062 C 6.808594 12.566406 5.664062 14.195312 4.621094 15.804688 C 3.585938 17.402344 2.75 18.933594 2.117188 20.398438 C 1.492188 21.863281 1.179688 23.210938 1.179688 24.441406 C 1.179688 26.011719 1.472656 27.355469 2.0625 28.472656 C 2.652344 29.597656 3.53125 30.457031 4.699219 31.042969 C 5.878906 31.644531 7.34375 31.941406 9.09375 31.941406 Z M 3.292969 24.441406 C 3.292969 23.449219 3.558594 22.339844 4.085938 21.105469 C 4.621094 19.875 5.371094 18.503906 6.335938 16.996094 C 7.308594 15.488281 8.457031 13.824219 9.777344 12.011719 C 9.910156 11.835938 10.027344 11.714844 10.125 11.652344 C 10.230469 11.589844 10.382812 11.558594 10.582031 11.558594 L 13.417969 11.558594 C 13.617188 11.558594 13.761719 11.589844 13.863281 11.652344 C 13.96875 11.714844 14.089844 11.835938 14.222656 12.011719 C 15.542969 13.824219 16.691406 15.488281 17.664062 16.996094 C 18.636719 18.503906 19.386719 19.875 19.914062 21.105469 C 20.441406 22.339844 20.707031 23.449219 20.707031 24.441406 C 20.707031 26.148438 20.226562 27.46875 19.273438 28.40625 C 18.324219 29.351562 16.871094 29.824219 14.90625 29.824219 L 9.09375 29.824219 C 7.128906 29.824219 5.667969 29.351562 4.714844 28.40625 C 3.769531 27.46875 3.292969 26.148438 3.292969 24.441406 Z M 6.148438 14.972656 L 5.730469 17.089844 L 18.292969 17.089844 L 17.894531 14.972656 Z M 2.636719 25.3125 L 9.855469 25.3125 L 9.855469 23.195312 L 2.636719 23.195312 Z M 12.011719 27.347656 C 12.585938 27.347656 13.101562 27.210938 13.566406 26.933594 C 14.039062 26.65625 14.410156 26.285156 14.679688 25.820312 C 14.957031 25.347656 15.09375 24.820312 15.09375 24.242188 C 15.09375 23.667969 14.957031 23.152344 14.679688 22.6875 C 14.410156 22.214844 14.039062 21.839844 13.566406 21.5625 C 13.101562 21.285156 12.585938 21.148438 12.011719 21.148438 C 11.433594 21.148438 10.90625 21.285156 10.433594 21.5625 C 9.96875 21.839844 9.597656 22.214844 9.320312 22.6875 C 9.042969 23.152344 8.90625 23.667969 8.90625 24.242188 C 8.90625 24.820312 9.042969 25.347656 9.320312 25.820312 C 9.597656 26.285156 9.96875 26.65625 10.433594 26.933594 C 10.90625 27.210938 11.433594 27.347656 12.011719 27.347656 Z M 12.011719 25.445312 C 11.65625 25.445312 11.367188 25.335938 11.144531 25.113281 C 10.917969 24.878906 10.808594 24.589844 10.808594 24.242188 C 10.808594 23.902344 10.917969 23.617188 11.144531 23.382812 C 11.367188 23.152344 11.65625 23.035156 12.011719 23.035156 C 12.363281 23.035156 12.648438 23.152344 12.871094 23.382812 C 13.09375 23.617188 13.207031 23.902344 13.207031 24.242188 C 13.207031 24.589844 13.09375 24.878906 12.871094 25.113281 C 12.648438 25.335938 12.363281 25.445312 12.011719 25.445312 Z M 14.15625 25.3125 L 21.429688 25.3125 L 21.429688 23.195312 L 14.15625 23.195312 Z M 5.503906 4.339844 C 5.761719 4.152344 5.917969 3.898438 5.972656 3.574219 C 6.027344 3.253906 5.964844 2.960938 5.785156 2.691406 C 5.605469 2.441406 5.355469 2.285156 5.035156 2.222656 C 4.722656 2.160156 4.429688 2.222656 4.152344 2.410156 C 3.894531 2.589844 3.730469 2.84375 3.667969 3.175781 C 3.605469 3.503906 3.664062 3.792969 3.84375 4.042969 C 4.03125 4.3125 4.289062 4.472656 4.621094 4.527344 C 4.949219 4.582031 5.246094 4.519531 5.503906 4.339844 Z M 7.941406 7.847656 C 8.289062 7.617188 8.5 7.292969 8.570312 6.882812 C 8.644531 6.464844 8.5625 6.082031 8.332031 5.730469 C 8.089844 5.394531 7.761719 5.191406 7.351562 5.128906 C 6.941406 5.058594 6.5625 5.136719 6.214844 5.371094 C 5.875 5.601562 5.664062 5.929688 5.585938 6.347656 C 5.503906 6.757812 5.589844 7.136719 5.839844 7.488281 C 6.089844 7.824219 6.414062 8.035156 6.816406 8.117188 C 7.226562 8.195312 7.601562 8.105469 7.941406 7.847656 Z M 12.011719 3.320312 C 12.34375 3.320312 12.621094 3.207031 12.84375 2.972656 C 13.074219 2.730469 13.191406 2.460938 13.191406 2.15625 C 13.191406 1.824219 13.074219 1.542969 12.84375 1.3125 C 12.613281 1.082031 12.335938 0.964844 12.011719 0.964844 C 11.691406 0.964844 11.417969 1.082031 11.195312 1.3125 C 10.972656 1.542969 10.863281 1.824219 10.863281 2.15625 C 10.863281 2.460938 10.972656 2.730469 11.195312 2.972656 C 11.417969 3.207031 11.691406 3.320312 12.011719 3.320312 Z M 12.011719 7.621094 C 12.433594 7.621094 12.792969 7.472656 13.097656 7.179688 C 13.402344 6.875 13.554688 6.511719 13.554688 6.09375 C 13.554688 5.683594 13.402344 5.324219 13.097656 5.023438 C 12.792969 4.71875 12.433594 4.566406 12.011719 4.566406 C 11.601562 4.566406 11.25 4.71875 10.957031 5.023438 C 10.660156 5.324219 10.511719 5.683594 10.511719 6.09375 C 10.511719 6.511719 10.660156 6.875 10.957031 7.179688 C 11.25 7.472656 11.601562 7.621094 12.011719 7.621094 Z M 18.523438 4.339844 C 18.789062 4.519531 19.085938 4.582031 19.40625 4.527344 C 19.738281 4.472656 19.996094 4.3125 20.183594 4.042969 C 20.363281 3.792969 20.417969 3.503906 20.355469 3.175781 C 20.304688 2.84375 20.144531 2.589844 19.875 2.410156 C 19.597656 2.222656 19.300781 2.160156 18.976562 2.222656 C 18.664062 2.285156 18.417969 2.441406 18.242188 2.691406 C 18.0625 2.960938 18 3.253906 18.054688 3.574219 C 18.105469 3.898438 18.261719 4.152344 18.523438 4.339844 Z M 16.085938 7.847656 C 16.425781 8.105469 16.800781 8.195312 17.210938 8.117188 C 17.621094 8.035156 17.945312 7.824219 18.1875 7.488281 C 18.4375 7.136719 18.523438 6.757812 18.441406 6.347656 C 18.371094 5.929688 18.160156 5.601562 17.8125 5.371094 C 17.457031 5.136719 17.070312 5.058594 16.660156 5.128906 C 16.257812 5.191406 15.9375 5.394531 15.695312 5.730469 C 15.457031 6.082031 15.371094 6.464844 15.441406 6.882812 C 15.523438 7.292969 15.738281 7.617188 16.085938 7.847656 Z M 16.085938 7.847656 "/>
</g>
</svg>
