<?xml version="1.0" encoding="UTF-8"?>
<svg xmlns="http://www.w3.org/2000/svg" xmlns:xlink="http://www.w3.org/1999/xlink" width="24" height="25.5" viewBox="0 0 24 25.5" version="1.1">
<g id="surface1">
<path style=" stroke:none;fill-rule:nonzero;fill:rgb(100%,100%,100%);fill-opacity:1;" d="M 12 24.492188 C 13.632812 24.492188 15.167969 24.179688 16.605469 23.554688 C 18.050781 22.929688 19.324219 22.066406 20.425781 20.964844 C 21.527344 19.863281 22.390625 18.59375 23.015625 17.15625 C 23.640625 15.710938 23.953125 14.171875 23.953125 12.539062 C 23.953125 10.90625 23.640625 9.371094 23.015625 7.933594 C 22.390625 6.488281 21.527344 5.214844 20.425781 4.113281 C 19.324219 3.011719 18.050781 2.148438 16.605469 1.523438 C 15.160156 0.898438 13.621094 0.585938 11.988281 0.585938 C 10.355469 0.585938 8.816406 0.898438 7.371094 1.523438 C 5.933594 2.148438 4.664062 3.011719 3.5625 4.113281 C 2.46875 5.214844 1.609375 6.488281 0.984375 7.933594 C 0.359375 9.371094 0.046875 10.90625 0.046875 12.539062 C 0.046875 14.171875 0.359375 15.710938 0.984375 17.15625 C 1.609375 18.59375 2.472656 19.863281 3.574219 20.964844 C 4.675781 22.066406 5.945312 22.929688 7.382812 23.554688 C 8.828125 24.179688 10.367188 24.492188 12 24.492188 Z M 12 22.5 C 10.617188 22.5 9.324219 22.242188 8.121094 21.726562 C 6.917969 21.210938 5.859375 20.5 4.945312 19.59375 C 4.039062 18.679688 3.328125 17.621094 2.8125 16.417969 C 2.304688 15.214844 2.050781 13.921875 2.050781 12.539062 C 2.050781 11.15625 2.304688 9.863281 2.8125 8.660156 C 3.328125 7.457031 4.039062 6.398438 4.945312 5.484375 C 5.851562 4.570312 6.90625 3.859375 8.109375 3.351562 C 9.3125 2.835938 10.605469 2.578125 11.988281 2.578125 C 13.371094 2.578125 14.664062 2.835938 15.867188 3.351562 C 17.078125 3.859375 18.136719 4.570312 19.042969 5.484375 C 19.957031 6.398438 20.671875 7.457031 21.1875 8.660156 C 21.703125 9.863281 21.960938 11.15625 21.960938 12.539062 C 21.960938 13.921875 21.703125 15.214844 21.1875 16.417969 C 20.679688 17.621094 19.96875 18.679688 19.054688 19.59375 C 18.140625 20.5 17.082031 21.210938 15.878906 21.726562 C 14.675781 22.242188 13.382812 22.5 12 22.5 Z M 8.261719 12.539062 C 8.261719 13.21875 8.429688 13.84375 8.765625 14.414062 C 9.109375 14.984375 9.566406 15.441406 10.136719 15.785156 C 10.707031 16.121094 11.328125 16.289062 12 16.289062 C 12.289062 16.289062 12.566406 16.253906 12.832031 16.183594 C 13.097656 16.105469 13.347656 16 13.582031 15.867188 C 13.214844 16.46875 12.753906 16.984375 12.199219 17.414062 C 11.644531 17.835938 11.015625 18.160156 10.3125 18.386719 C 9.609375 18.613281 8.851562 18.726562 8.039062 18.726562 C 7.84375 18.726562 7.679688 18.792969 7.546875 18.925781 C 7.421875 19.058594 7.359375 19.214844 7.359375 19.394531 C 7.359375 19.574219 7.421875 19.730469 7.546875 19.863281 C 7.679688 19.996094 7.84375 20.0625 8.039062 20.0625 C 9.117188 20.0625 10.121094 19.886719 11.050781 19.535156 C 11.988281 19.175781 12.808594 18.667969 13.511719 18.011719 C 14.214844 17.355469 14.761719 16.566406 15.152344 15.644531 C 15.550781 14.714844 15.75 13.679688 15.75 12.539062 C 15.75 11.851562 15.578125 11.226562 15.234375 10.664062 C 14.890625 10.09375 14.433594 9.640625 13.863281 9.304688 C 13.300781 8.960938 12.679688 8.789062 12 8.789062 C 11.71875 8.789062 11.445312 8.828125 11.179688 8.90625 C 10.914062 8.976562 10.664062 9.078125 10.429688 9.210938 C 10.796875 8.609375 11.257812 8.097656 11.8125 7.675781 C 12.367188 7.246094 12.996094 6.917969 13.699219 6.691406 C 14.402344 6.464844 15.160156 6.351562 15.972656 6.351562 C 16.167969 6.351562 16.328125 6.285156 16.453125 6.152344 C 16.585938 6.019531 16.652344 5.859375 16.652344 5.671875 C 16.652344 5.492188 16.585938 5.339844 16.453125 5.214844 C 16.320312 5.082031 16.160156 5.015625 15.972656 5.015625 C 14.894531 5.015625 13.886719 5.191406 12.949219 5.542969 C 12.019531 5.894531 11.203125 6.402344 10.5 7.066406 C 9.796875 7.722656 9.246094 8.515625 8.847656 9.445312 C 8.457031 10.367188 8.261719 11.398438 8.261719 12.539062 Z M 10.839844 12.539062 C 10.839844 12.21875 10.953125 11.945312 11.179688 11.71875 C 11.414062 11.492188 11.6875 11.378906 12 11.378906 C 12.320312 11.378906 12.59375 11.492188 12.820312 11.71875 C 13.054688 11.945312 13.171875 12.21875 13.171875 12.539062 C 13.171875 12.851562 13.054688 13.125 12.820312 13.359375 C 12.59375 13.585938 12.320312 13.699219 12 13.699219 C 11.6875 13.699219 11.414062 13.585938 11.179688 13.359375 C 10.953125 13.125 10.839844 12.851562 10.839844 12.539062 Z M 10.839844 12.539062 "/>
</g>
</svg>
