<svg xmlns="http://www.w3.org/2000/svg" width="24" height="24"><path style="stroke:none;fill-rule:nonzero;fill:#fff;fill-opacity:1" d="M12 23.063c1.633 0 3.168-.293 4.605-.883a12.29 12.29 0 0 0 3.82-2.438 11.482 11.482 0 0 0 2.59-3.586c.626-1.36.938-2.804.938-4.343 0-1.536-.312-2.981-.937-4.336a11.514 11.514 0 0 0-2.59-3.594 12.22 12.22 0 0 0-3.82-2.438 12.166 12.166 0 0 0-4.618-.883c-1.633 0-3.172.293-4.617.883a12.307 12.307 0 0 0-3.809 2.438A11.523 11.523 0 0 0 .985 7.477a10.187 10.187 0 0 0-.937 4.335c0 1.54.312 2.985.937 4.344a11.438 11.438 0 0 0 2.59 3.586 12.307 12.307 0 0 0 3.809 2.438c1.445.59 2.984.883 4.617.883Zm-3.855-11.25c0-1.11.203-2.114.609-3.012a6.78 6.78 0 0 1 1.687-2.305 7.626 7.626 0 0 1 2.532-1.469 9.272 9.272 0 0 1 3.117-.515.696.696 0 0 1 .496.18.618.618 0 0 1 .207.456.652.652 0 0 1-.2.477.706.706 0 0 1-.503.188c-.836 0-1.617.109-2.344.328-.7.207-1.355.527-1.934.949a5.58 5.58 0 0 0-1.417 1.488 3.09 3.09 0 0 1 .761-.297c.274-.074.555-.11.844-.11.703 0 1.344.165 1.922.497a3.85 3.85 0 0 1 1.406 1.312c.36.551.54 1.165.54 1.832 0 1.11-.204 2.114-.61 3.012a6.89 6.89 0 0 1-1.7 2.305 7.759 7.759 0 0 1-2.53 1.476c-.962.34-1.997.508-3.106.508a.72.72 0 0 1-.5-.183.625.625 0 0 1-.203-.47c0-.175.066-.323.199-.448.133-.133.3-.2.504-.2a7.959 7.959 0 0 0 2.332-.332c.7-.21 1.351-.53 1.934-.949a5.626 5.626 0 0 0 1.43-1.488c-.243.133-.5.234-.774.309a3.861 3.861 0 0 1-2.766-.395 3.947 3.947 0 0 1-1.406-1.324 3.336 3.336 0 0 1-.527-1.82Zm2.66 0c0 .308.117.574.351.792.235.223.516.332.844.332.336 0 .621-.109.855-.332a1.072 1.072 0 0 0 0-1.59 1.204 1.204 0 0 0-.855-.328c-.328 0-.61.11-.844.329-.23.21-.355.496-.351.796Zm0 0"/></svg>