<svg width="116" height="116" viewBox="0 0 116 116" fill="none" xmlns="http://www.w3.org/2000/svg">
<path d="M20.5625 115.5H96.375C102.917 115.5 107.812 113.875 111.062 110.625C114.354 107.417 116 102.583 116 96.125V19.8125C116 13.3542 114.354 8.52083 111.062 5.3125C107.812 2.0625 102.917 0.4375 96.375 0.4375H20.5625C14.0208 0.4375 9.10417 2.0625 5.8125 5.3125C2.5625 8.52083 0.9375 13.3542 0.9375 19.8125V96.125C0.9375 102.583 2.5625 107.417 5.8125 110.625C9.10417 113.875 14.0208 115.5 20.5625 115.5ZM58.4375 87.4375C56.7708 87.4375 55.5 86.8958 54.625 85.8125C53.75 84.7292 53.3125 83.3125 53.3125 81.5625V33C53.3125 31.2917 53.75 29.8958 54.625 28.8125C55.5 27.6875 56.7708 27.125 58.4375 27.125C60.1458 27.125 61.4375 27.6458 62.3125 28.6875C63.2292 29.7292 63.6875 31.1667 63.6875 33V81.5625C63.6875 83.3958 63.2292 84.8333 62.3125 85.875C61.4375 86.9167 60.1458 87.4375 58.4375 87.4375Z" fill="white"/>
</svg>
