<svg width="158" height="140" viewBox="0 0 158 140" fill="none" xmlns="http://www.w3.org/2000/svg">
<path d="M34.125 102.688H72.9375V64.375C72.9375 62.7083 73.5417 61.2708 74.75 60.0625C76 58.8542 77.4792 58.25 79.1875 58.25C80.8542 58.25 82.2917 58.8542 83.5 60.0625C84.75 61.2708 85.375 62.7083 85.375 64.375V102.688H127.25C133.25 102.688 138.5 101.542 143 99.25C147.5 96.9583 151 93.8542 153.5 89.9375C156.042 85.9792 157.312 81.5417 157.312 76.625C157.312 70.5 155.542 64.8542 152 59.6875C148.5 54.4792 143.688 50.6042 137.562 48.0625C137.562 41.1042 136.417 34.7083 134.125 28.875C131.833 23 128.604 17.9167 124.438 13.625C120.312 9.33333 115.479 6 109.938 3.625C104.438 1.25 98.4792 0.0625 92.0625 0.0625C86.3958 0.0625 81.2708 0.979167 76.6875 2.8125C72.1458 4.60417 68.1042 7.02083 64.5625 10.0625C61.0625 13.1042 58.0625 16.4375 55.5625 20.0625C52.0208 19.1042 48.3542 19.0208 44.5625 19.8125C40.8125 20.6042 37.3333 22.1458 34.125 24.4375C30.9167 26.6875 28.2917 29.5417 26.25 33C24.25 36.4583 23.2083 40.3958 23.125 44.8125C18.4167 45.5625 14.3333 47.3333 10.875 50.125C7.45833 52.875 4.8125 56.3333 2.9375 60.5C1.10417 64.625 0.1875 69.1042 0.1875 73.9375C0.1875 79.2708 1.58333 84.1042 4.375 88.4375C7.20833 92.7708 11.1667 96.2292 16.25 98.8125C21.3333 101.396 27.2917 102.688 34.125 102.688ZM79.1875 139.812C79.8125 139.812 80.3958 139.688 80.9375 139.438C81.5208 139.188 82.125 138.75 82.75 138.125L103.875 117.75C104.875 116.75 105.375 115.646 105.375 114.438C105.375 113.188 104.938 112.146 104.062 111.312C103.188 110.479 102.104 110.062 100.812 110.062C99.4375 110.062 98.3125 110.562 97.4375 111.562L87.9375 121.688L83.75 126.062L84.125 116.75V102.625C84.125 101.292 83.625 100.146 82.625 99.1875C81.6667 98.2292 80.5208 97.75 79.1875 97.75C77.8125 97.75 76.625 98.2292 75.625 99.1875C74.6667 100.146 74.1875 101.292 74.1875 102.625V116.75L74.5625 126.125L70.375 121.688L60.875 111.562C60 110.562 58.8542 110.062 57.4375 110.062C56.1458 110.062 55.0625 110.479 54.1875 111.312C53.3542 112.146 52.9375 113.188 52.9375 114.438C52.9375 115.646 53.4375 116.75 54.4375 117.75L75.5625 138.125C76.1875 138.75 76.7708 139.188 77.3125 139.438C77.8958 139.688 78.5208 139.812 79.1875 139.812Z" fill="white"/>
</svg>
