<svg width="20" height="18" viewBox="0 0 20 18" fill="none" xmlns="http://www.w3.org/2000/svg">
<path d="M12.0781 11.8281V13.0859H15.9844C16.7865 13.0859 17.474 12.9401 18.0469 12.6484C18.6198 12.3516 19.0573 11.9531 19.3594 11.4531C19.6667 10.9479 19.8203 10.3802 19.8203 9.75C19.8203 8.95833 19.599 8.25781 19.1562 7.64844C18.7188 7.03385 18.1172 6.57031 17.3516 6.25781C17.3516 5.38802 17.2083 4.58854 16.9219 3.85938C16.6354 3.125 16.2318 2.48958 15.7109 1.95312C15.1953 1.41667 14.5911 1 13.8984 0.703125C13.2109 0.40625 12.4661 0.257812 11.6641 0.257812C10.9557 0.257812 10.3151 0.372396 9.74219 0.601562C9.17448 0.825521 8.66927 1.1276 8.22656 1.50781C7.78906 1.88802 7.41406 2.30469 7.10156 2.75781C6.65885 2.63802 6.20052 2.6276 5.72656 2.72656C5.25781 2.82552 4.82292 3.01823 4.42188 3.30469C4.02083 3.58594 3.69271 3.94271 3.4375 4.375C3.1875 4.80729 3.05729 5.29948 3.04688 5.85156C2.45833 5.9401 1.94792 6.15104 1.51562 6.48438C1.08854 6.8125 0.757812 7.22917 0.523438 7.73438C0.294271 8.23958 0.179688 8.79948 0.179688 9.41406C0.179688 10.0911 0.341146 10.7083 0.664062 11.2656C0.992188 11.8177 1.46094 12.2604 2.07031 12.5938C2.67969 12.9219 3.41146 13.0859 4.26562 13.0859H7.99219V11.8281H4.25781C3.64323 11.8281 3.125 11.7214 2.70312 11.5078C2.28646 11.2891 1.97135 10.9974 1.75781 10.6328C1.54427 10.2682 1.4375 9.86198 1.4375 9.41406C1.4375 8.66406 1.66406 8.04427 2.11719 7.55469C2.57031 7.0599 3.21094 6.8125 4.03906 6.8125C4.13802 6.8125 4.1875 6.75781 4.1875 6.64844C4.1875 5.84635 4.35417 5.23177 4.6875 4.80469C5.02083 4.3724 5.44271 4.10156 5.95312 3.99219C6.46354 3.8776 6.98698 3.89844 7.52344 4.05469C7.61198 4.08073 7.67708 4.05729 7.71875 3.98438C7.97396 3.53125 8.27865 3.11979 8.63281 2.75C8.98698 2.375 9.41146 2.07552 9.90625 1.85156C10.4062 1.6276 10.9922 1.51562 11.6641 1.51562C12.5182 1.51562 13.2734 1.71875 13.9297 2.125C14.5859 2.52604 15.1068 3.05729 15.4922 3.71875C15.8776 4.38021 16.0911 5.09896 16.1328 5.875C16.1432 6.05208 16.1432 6.24219 16.1328 6.44531C16.1276 6.64323 16.1172 6.83333 16.1016 7.01562C16.0911 7.11979 16.1328 7.17969 16.2266 7.19531C16.9349 7.35156 17.5 7.64844 17.9219 8.08594C18.349 8.52344 18.5625 9.07812 18.5625 9.75C18.5625 10.349 18.3438 10.8464 17.9062 11.2422C17.474 11.6328 16.8307 11.8281 15.9766 11.8281H12.0781ZM10.0391 17.7266C10.1172 17.7266 10.1901 17.7083 10.2578 17.6719C10.3307 17.6406 10.4062 17.5885 10.4844 17.5156L13.125 15.0469C13.25 14.9375 13.3125 14.7995 13.3125 14.6328C13.3125 14.4766 13.2578 14.3464 13.1484 14.2422C13.0391 14.138 12.9036 14.0859 12.7422 14.0859C12.5859 14.0859 12.4453 14.1484 12.3203 14.2734L11.1328 15.4609L10.6094 16.0078L10.6562 14.8438V8.14062C10.6562 7.97396 10.5938 7.83073 10.4688 7.71094C10.349 7.59115 10.2057 7.53125 10.0391 7.53125C9.86719 7.53125 9.71875 7.59115 9.59375 7.71094C9.47396 7.83073 9.41406 7.97396 9.41406 8.14062V14.8438L9.46094 16.0156L8.9375 15.4609L7.75 14.2734C7.625 14.1484 7.48177 14.0859 7.32031 14.0859C7.15885 14.0859 7.02344 14.138 6.91406 14.2422C6.8099 14.3464 6.75781 14.4766 6.75781 14.6328C6.75781 14.7995 6.82031 14.9375 6.94531 15.0469L9.58594 17.5156C9.66927 17.5885 9.74479 17.6406 9.8125 17.6719C9.88021 17.7083 9.95573 17.7266 10.0391 17.7266Z" fill="white"/>
</svg>
