<?xml version="1.0" encoding="UTF-8"?>
<svg xmlns="http://www.w3.org/2000/svg" xmlns:xlink="http://www.w3.org/1999/xlink" width="24" height="21.6" viewBox="0 0 24 21.6" version="1.1">
<g id="surface1">
<path style=" stroke:none;fill-rule:nonzero;fill:rgb(100%,100%,100%);fill-opacity:1;" d="M 5.304688 15.703125 L 11.128906 15.703125 L 11.128906 9.957031 C 11.128906 9.707031 11.21875 9.492188 11.398438 9.308594 C 11.585938 9.128906 11.808594 9.039062 12.066406 9.039062 C 12.316406 9.039062 12.53125 9.128906 12.710938 9.308594 C 12.898438 9.492188 12.992188 9.707031 12.992188 9.957031 L 12.992188 15.703125 L 19.273438 15.703125 C 20.175781 15.703125 20.960938 15.53125 21.636719 15.1875 C 22.3125 14.84375 22.835938 14.378906 23.210938 13.789062 C 23.59375 13.195312 23.785156 12.53125 23.785156 11.792969 C 23.785156 10.875 23.519531 10.027344 22.988281 9.253906 C 22.460938 8.472656 21.742188 7.890625 20.820312 7.507812 C 20.820312 6.464844 20.648438 5.507812 20.304688 4.632812 C 19.960938 3.75 19.476562 2.988281 18.851562 2.34375 C 18.234375 1.699219 17.507812 1.199219 16.679688 0.84375 C 15.851562 0.488281 14.960938 0.308594 13.996094 0.308594 C 13.148438 0.308594 12.378906 0.445312 11.691406 0.722656 C 11.007812 0.992188 10.402344 1.351562 9.871094 1.808594 C 9.347656 2.265625 8.898438 2.765625 8.523438 3.308594 C 7.992188 3.164062 7.441406 3.152344 6.871094 3.273438 C 6.308594 3.390625 5.789062 3.621094 5.304688 3.964844 C 4.824219 4.304688 4.429688 4.730469 4.125 5.25 C 3.824219 5.769531 3.667969 6.359375 3.65625 7.023438 C 2.949219 7.132812 2.335938 7.398438 1.820312 7.820312 C 1.304688 8.230469 0.910156 8.75 0.628906 9.375 C 0.351562 9.992188 0.214844 10.664062 0.214844 11.390625 C 0.214844 12.191406 0.425781 12.914062 0.84375 13.566406 C 1.269531 14.214844 1.863281 14.734375 2.625 15.121094 C 3.386719 15.507812 4.28125 15.703125 5.304688 15.703125 Z M 12.066406 21.273438 C 12.160156 21.273438 12.246094 21.253906 12.328125 21.214844 C 12.414062 21.179688 12.507812 21.113281 12.601562 21.019531 L 15.769531 17.960938 C 15.917969 17.8125 15.992188 17.648438 15.992188 17.464844 C 15.992188 17.277344 15.929688 17.121094 15.796875 16.996094 C 15.664062 16.871094 15.503906 16.808594 15.308594 16.808594 C 15.101562 16.808594 14.933594 16.882812 14.804688 17.035156 L 13.378906 18.554688 L 12.75 19.210938 L 12.804688 17.8125 L 12.804688 15.695312 C 12.804688 15.492188 12.730469 15.320312 12.582031 15.179688 C 12.4375 15.035156 12.265625 14.960938 12.066406 14.960938 C 11.859375 14.960938 11.679688 15.035156 11.53125 15.179688 C 11.386719 15.320312 11.316406 15.492188 11.316406 15.695312 L 11.316406 17.8125 L 11.371094 19.21875 L 10.742188 18.554688 L 9.320312 17.035156 C 9.1875 16.882812 9.015625 16.808594 8.804688 16.808594 C 8.609375 16.808594 8.445312 16.871094 8.316406 16.996094 C 8.191406 17.121094 8.128906 17.277344 8.128906 17.464844 C 8.128906 17.648438 8.203125 17.8125 8.351562 17.960938 L 11.523438 21.019531 C 11.617188 21.113281 11.703125 21.179688 11.785156 21.214844 C 11.871094 21.253906 11.964844 21.273438 12.066406 21.273438 Z M 12.066406 21.273438 "/>
</g>
</svg>
