<?xml version="1.0" encoding="UTF-8"?>
<svg xmlns="http://www.w3.org/2000/svg" xmlns:xlink="http://www.w3.org/1999/xlink" width="24" height="25.5" viewBox="0 0 24 25.5" version="1.1">
<g id="surface1">
<path style=" stroke:none;fill-rule:nonzero;fill:rgb(100%,100%,100%);fill-opacity:1;" d="M 12 24.503906 C 13.632812 24.503906 15.167969 24.191406 16.605469 23.566406 C 18.050781 22.941406 19.324219 22.078125 20.425781 20.976562 C 21.527344 19.875 22.390625 18.605469 23.015625 17.167969 C 23.640625 15.722656 23.953125 14.183594 23.953125 12.550781 C 23.953125 10.917969 23.640625 9.382812 23.015625 7.945312 C 22.390625 6.5 21.527344 5.226562 20.425781 4.125 C 19.324219 3.023438 18.050781 2.160156 16.605469 1.535156 C 15.160156 0.910156 13.621094 0.597656 11.988281 0.597656 C 10.355469 0.597656 8.816406 0.910156 7.371094 1.535156 C 5.933594 2.160156 4.664062 3.023438 3.5625 4.125 C 2.46875 5.226562 1.609375 6.5 0.984375 7.945312 C 0.359375 9.382812 0.046875 10.917969 0.046875 12.550781 C 0.046875 14.183594 0.359375 15.722656 0.984375 17.167969 C 1.609375 18.605469 2.472656 19.875 3.574219 20.976562 C 4.675781 22.078125 5.945312 22.941406 7.382812 23.566406 C 8.828125 24.191406 10.367188 24.503906 12 24.503906 Z M 7.6875 17.015625 C 6.804688 17.015625 6.066406 16.753906 5.472656 16.230469 C 4.886719 15.707031 4.59375 14.949219 4.59375 13.957031 C 4.59375 13.292969 4.777344 12.707031 5.144531 12.199219 C 5.519531 11.683594 5.988281 11.308594 6.550781 11.074219 C 6.636719 10.457031 6.914062 9.949219 7.382812 9.550781 C 7.851562 9.144531 8.402344 8.941406 9.035156 8.941406 C 9.105469 8.941406 9.183594 8.945312 9.269531 8.953125 C 9.355469 8.960938 9.4375 8.972656 9.515625 8.988281 C 9.921875 8.433594 10.433594 7.992188 11.050781 7.664062 C 11.675781 7.335938 12.359375 7.171875 13.101562 7.171875 C 13.9375 7.171875 14.691406 7.375 15.363281 7.78125 C 16.035156 8.179688 16.566406 8.71875 16.957031 9.398438 C 17.355469 10.070312 17.554688 10.816406 17.554688 11.636719 C 17.554688 11.683594 17.554688 11.738281 17.554688 11.800781 C 17.554688 11.863281 17.550781 11.925781 17.542969 11.988281 C 18.082031 12.113281 18.53125 12.40625 18.890625 12.867188 C 19.25 13.320312 19.429688 13.847656 19.429688 14.449219 C 19.429688 15.160156 19.179688 15.765625 18.679688 16.265625 C 18.1875 16.765625 17.582031 17.015625 16.863281 17.015625 Z M 7.6875 17.015625 "/>
</g>
</svg>
