<?xml version="1.0" encoding="UTF-8"?>
<svg xmlns="http://www.w3.org/2000/svg" xmlns:xlink="http://www.w3.org/1999/xlink" width="24" height="21.6" viewBox="0 0 24 21.6" version="1.1">
<g id="surface1">
<path style=" stroke:none;fill-rule:nonzero;fill:rgb(100%,100%,100%);fill-opacity:1;" d="M 14.492188 14.195312 L 14.492188 15.703125 L 19.179688 15.703125 C 20.144531 15.703125 20.96875 15.527344 21.65625 15.179688 C 22.34375 14.820312 22.867188 14.34375 23.230469 13.742188 C 23.601562 13.136719 23.785156 12.457031 23.785156 11.699219 C 23.785156 10.75 23.519531 9.910156 22.988281 9.179688 C 22.460938 8.441406 21.742188 7.882812 20.820312 7.507812 C 20.820312 6.464844 20.648438 5.507812 20.304688 4.632812 C 19.960938 3.75 19.476562 2.988281 18.851562 2.34375 C 18.234375 1.699219 17.507812 1.199219 16.679688 0.84375 C 15.851562 0.488281 14.960938 0.308594 13.996094 0.308594 C 13.148438 0.308594 12.378906 0.445312 11.691406 0.722656 C 11.007812 0.992188 10.402344 1.351562 9.871094 1.808594 C 9.347656 2.265625 8.898438 2.765625 8.523438 3.308594 C 7.992188 3.164062 7.441406 3.152344 6.871094 3.273438 C 6.308594 3.390625 5.789062 3.621094 5.304688 3.964844 C 4.824219 4.304688 4.429688 4.730469 4.125 5.25 C 3.824219 5.769531 3.667969 6.359375 3.65625 7.023438 C 2.949219 7.128906 2.335938 7.382812 1.820312 7.78125 C 1.304688 8.175781 0.910156 8.675781 0.628906 9.28125 C 0.351562 9.886719 0.214844 10.558594 0.214844 11.296875 C 0.214844 12.109375 0.410156 12.851562 0.796875 13.519531 C 1.191406 14.179688 1.753906 14.710938 2.484375 15.113281 C 3.214844 15.507812 4.09375 15.703125 5.117188 15.703125 L 9.589844 15.703125 L 9.589844 14.195312 L 5.109375 14.195312 C 4.371094 14.195312 3.75 14.066406 3.242188 13.808594 C 2.742188 13.546875 2.367188 13.195312 2.109375 12.757812 C 1.851562 12.320312 1.726562 11.835938 1.726562 11.296875 C 1.726562 10.398438 1.996094 9.652344 2.539062 9.066406 C 3.085938 8.472656 3.851562 8.175781 4.847656 8.175781 C 4.964844 8.175781 5.023438 8.109375 5.023438 7.976562 C 5.023438 7.015625 5.226562 6.277344 5.625 5.765625 C 6.023438 5.246094 6.53125 4.921875 7.144531 4.789062 C 7.757812 4.652344 8.382812 4.679688 9.027344 4.867188 C 9.132812 4.898438 9.210938 4.867188 9.261719 4.78125 C 9.570312 4.238281 9.933594 3.742188 10.359375 3.300781 C 10.785156 2.851562 11.292969 2.492188 11.886719 2.222656 C 12.488281 1.953125 13.191406 1.820312 13.996094 1.820312 C 15.023438 1.820312 15.929688 2.0625 16.714844 2.550781 C 17.503906 3.03125 18.128906 3.667969 18.589844 4.460938 C 19.054688 5.257812 19.308594 6.117188 19.359375 7.050781 C 19.371094 7.261719 19.371094 7.492188 19.359375 7.734375 C 19.351562 7.972656 19.339844 8.199219 19.320312 8.417969 C 19.308594 8.542969 19.359375 8.617188 19.472656 8.632812 C 20.320312 8.820312 21 9.179688 21.507812 9.703125 C 22.019531 10.226562 22.273438 10.894531 22.273438 11.699219 C 22.273438 12.417969 22.011719 13.015625 21.488281 13.492188 C 20.96875 13.960938 20.195312 14.195312 19.171875 14.195312 Z M 12.046875 21.273438 C 12.140625 21.273438 12.226562 21.25 12.308594 21.207031 C 12.398438 21.167969 12.488281 21.105469 12.582031 21.019531 L 15.75 18.054688 C 15.898438 17.925781 15.976562 17.757812 15.976562 17.558594 C 15.976562 17.371094 15.910156 17.214844 15.777344 17.089844 C 15.648438 16.964844 15.484375 16.902344 15.289062 16.902344 C 15.101562 16.902344 14.933594 16.976562 14.785156 17.128906 L 13.359375 18.554688 L 12.730469 19.210938 L 12.789062 17.8125 L 12.789062 9.769531 C 12.789062 9.570312 12.710938 9.398438 12.5625 9.253906 C 12.417969 9.109375 12.246094 9.039062 12.046875 9.039062 C 11.839844 9.039062 11.664062 9.109375 11.511719 9.253906 C 11.367188 9.398438 11.296875 9.570312 11.296875 9.769531 L 11.296875 17.8125 L 11.351562 19.21875 L 10.726562 18.554688 L 9.300781 17.128906 C 9.148438 16.976562 8.976562 16.902344 8.785156 16.902344 C 8.589844 16.902344 8.429688 16.964844 8.296875 17.089844 C 8.171875 17.214844 8.109375 17.371094 8.109375 17.558594 C 8.109375 17.757812 8.183594 17.925781 8.335938 18.054688 L 11.503906 21.019531 C 11.601562 21.105469 11.695312 21.167969 11.773438 21.207031 C 11.855469 21.25 11.945312 21.273438 12.046875 21.273438 Z M 12.046875 21.273438 "/>
</g>
</svg>
