<svg xmlns="http://www.w3.org/2000/svg" width="24" height="24"><path style="stroke:none;fill-rule:nonzero;fill:#fff;fill-opacity:1" d="M5.832 20.492h8.973L3.918 7.711a5.005 5.005 0 0 0-.195.719 4.547 4.547 0 0 0-.067.78 3.514 3.514 0 0 0-1.836.946c-.515.5-.91 1.13-1.191 1.887a7.198 7.198 0 0 0-.414 2.484c0 .809.14 1.57.422 2.293a5.946 5.946 0 0 0 1.183 1.907c.512.55 1.11.984 1.79 1.293.71.32 1.464.48 2.222.472Zm14.023-.187a4.77 4.77 0 0 0 2.036-1.028 5.202 5.202 0 0 0 1.386-1.859c.34-.734.508-1.535.508-2.395 0-.773-.12-1.5-.355-2.175a5.604 5.604 0 0 0-1.024-1.809 4.915 4.915 0 0 0-1.586-1.246c0-1.227-.172-2.36-.515-3.387a8.195 8.195 0 0 0-1.453-2.687 6.415 6.415 0 0 0-2.172-1.766 5.8 5.8 0 0 0-2.684-.629c-.848 0-1.617.16-2.305.488a6.014 6.014 0 0 0-1.82 1.278 8.708 8.708 0 0 0-1.348 1.762 2.984 2.984 0 0 0-1.828-.023Zm-1.097 2.988c.137.16.316.246.508.246.199 0 .37-.082.515-.246a.955.955 0 0 0 .207-.605.84.84 0 0 0-.207-.598L4.133 3.695a.626.626 0 0 0-.524-.242.645.645 0 0 0-.507.246.905.905 0 0 0-.204.602c0 .222.07.437.204.597Zm0 0"/></svg>