<svg width="20" height="18" viewBox="0 0 20 18" fill="none" xmlns="http://www.w3.org/2000/svg">
<path d="M12.0781 11.8281V13.0859H15.9844C16.7865 13.0859 17.474 12.9401 18.0469 12.6484C18.6198 12.3516 19.0573 11.9531 19.3594 11.4531C19.6667 10.9479 19.8203 10.3802 19.8203 9.75C19.8203 8.95833 19.599 8.25781 19.1562 7.64844C18.7188 7.03385 18.1172 6.57031 17.3516 6.25781C17.3516 5.38802 17.2083 4.58854 16.9219 3.85938C16.6354 3.125 16.2318 2.48958 15.7109 1.95312C15.1953 1.41667 14.5911 1 13.8984 0.703125C13.2109 0.40625 12.4661 0.257812 11.6641 0.257812C10.9557 0.257812 10.3151 0.372396 9.74219 0.601562C9.17448 0.825521 8.66927 1.1276 8.22656 1.50781C7.78906 1.88802 7.41406 2.30469 7.10156 2.75781C6.65885 2.63802 6.20052 2.6276 5.72656 2.72656C5.25781 2.82552 4.82292 3.01823 4.42188 3.30469C4.02083 3.58594 3.69271 3.94271 3.4375 4.375C3.1875 4.80729 3.05729 5.29948 3.04688 5.85156C2.45833 5.9401 1.94792 6.15104 1.51562 6.48438C1.08854 6.8125 0.757812 7.22917 0.523438 7.73438C0.294271 8.23958 0.179688 8.79948 0.179688 9.41406C0.179688 10.0911 0.341146 10.7083 0.664062 11.2656C0.992188 11.8177 1.46094 12.2604 2.07031 12.5938C2.67969 12.9219 3.41146 13.0859 4.26562 13.0859H7.99219V11.8281H4.25781C3.64323 11.8281 3.125 11.7214 2.70312 11.5078C2.28646 11.2891 1.97135 10.9974 1.75781 10.6328C1.54427 10.2682 1.4375 9.86198 1.4375 9.41406C1.4375 8.66406 1.66406 8.04427 2.11719 7.55469C2.57031 7.0599 3.21094 6.8125 4.03906 6.8125C4.13802 6.8125 4.1875 6.75781 4.1875 6.64844C4.1875 5.84635 4.35417 5.23177 4.6875 4.80469C5.02083 4.3724 5.44271 4.10156 5.95312 3.99219C6.46354 3.8776 6.98698 3.89844 7.52344 4.05469C7.61198 4.08073 7.67708 4.05729 7.71875 3.98438C7.97396 3.53125 8.27865 3.11979 8.63281 2.75C8.98698 2.375 9.41146 2.07552 9.90625 1.85156C10.4062 1.6276 10.9922 1.51562 11.6641 1.51562C12.5182 1.51562 13.2734 1.71875 13.9297 2.125C14.5859 2.52604 15.1068 3.05729 15.4922 3.71875C15.8776 4.38021 16.0911 5.09896 16.1328 5.875C16.1432 6.05208 16.1432 6.24219 16.1328 6.44531C16.1276 6.64323 16.1172 6.83333 16.1016 7.01562C16.0911 7.11979 16.1328 7.17969 16.2266 7.19531C16.9349 7.35156 17.5 7.64844 17.9219 8.08594C18.349 8.52344 18.5625 9.07812 18.5625 9.75C18.5625 10.349 18.3438 10.8464 17.9062 11.2422C17.474 11.6328 16.8307 11.8281 15.9766 11.8281H12.0781ZM10.0391 17.0859C10.2057 17.0859 10.349 17.026 10.4688 16.9062C10.5938 16.7865 10.6562 16.6458 10.6562 16.4844V9.15625L10.6094 7.71094L11.1328 8.26562L12.3203 9.44531C12.4453 9.57031 12.5859 9.63281 12.7422 9.63281C12.9036 9.63281 13.0391 9.58333 13.1484 9.48438C13.2578 9.38021 13.3125 9.2474 13.3125 9.08594C13.3125 8.91927 13.25 8.78125 13.125 8.67188L10.4844 6.20312C10.4062 6.13021 10.3307 6.07812 10.2578 6.04688C10.1901 6.01562 10.1172 6 10.0391 6C9.95573 6 9.88021 6.01562 9.8125 6.04688C9.74479 6.07812 9.66927 6.13021 9.58594 6.20312L6.94531 8.67188C6.82031 8.78125 6.75781 8.91927 6.75781 9.08594C6.75781 9.2474 6.8099 9.38021 6.91406 9.48438C7.02344 9.58333 7.15885 9.63281 7.32031 9.63281C7.48177 9.63281 7.625 9.57031 7.75 9.44531L8.9375 8.26562L9.46094 7.71094L9.41406 9.15625V16.4844C9.41406 16.6458 9.47396 16.7865 9.59375 16.9062C9.71875 17.026 9.86719 17.0859 10.0391 17.0859Z" fill="white"/>
</svg>
