<?xml version="1.0" encoding="UTF-8"?>
<svg xmlns="http://www.w3.org/2000/svg" xmlns:xlink="http://www.w3.org/1999/xlink" width="24" height="18" viewBox="0 0 24 18" version="1.1">
<g id="surface1">
<path style=" stroke:none;fill-rule:nonzero;fill:rgb(100%,100%,100%);fill-opacity:1;" d="M 18.742188 17.417969 C 19.445312 17.417969 20.105469 17.296875 20.71875 17.054688 C 21.332031 16.816406 21.867188 16.484375 22.320312 16.058594 C 22.785156 15.632812 23.144531 15.140625 23.398438 14.578125 C 23.65625 14.015625 23.785156 13.414062 23.785156 12.769531 C 23.785156 12.113281 23.664062 11.496094 23.429688 10.921875 C 23.191406 10.339844 22.851562 9.828125 22.40625 9.382812 C 21.960938 8.933594 21.433594 8.582031 20.820312 8.324219 C 20.820312 7.28125 20.648438 6.320312 20.304688 5.445312 C 19.960938 4.566406 19.476562 3.804688 18.851562 3.160156 C 18.234375 2.507812 17.507812 2.007812 16.679688 1.660156 C 15.851562 1.304688 14.960938 1.125 13.996094 1.125 C 13.148438 1.125 12.378906 1.261719 11.691406 1.539062 C 11.007812 1.804688 10.402344 2.167969 9.871094 2.625 C 9.347656 3.074219 8.898438 3.574219 8.523438 4.125 C 7.945312 3.957031 7.371094 3.929688 6.796875 4.050781 C 6.226562 4.164062 5.710938 4.394531 5.242188 4.742188 C 4.773438 5.085938 4.394531 5.523438 4.105469 6.054688 C 3.820312 6.582031 3.667969 7.171875 3.65625 7.828125 C 2.949219 7.941406 2.335938 8.210938 1.820312 8.632812 C 1.304688 9.058594 0.910156 9.59375 0.628906 10.238281 C 0.351562 10.882812 0.214844 11.585938 0.214844 12.347656 C 0.214844 13.035156 0.355469 13.683594 0.636719 14.296875 C 0.917969 14.910156 1.3125 15.449219 1.820312 15.917969 C 2.332031 16.382812 2.929688 16.746094 3.609375 17.015625 C 4.289062 17.285156 5.03125 17.417969 5.832031 17.417969 Z M 18.742188 17.417969 "/>
</g>
</svg>
