<svg width="128" height="128" viewBox="0 0 128 128" fill="none" xmlns="http://www.w3.org/2000/svg">
<path d="M63.9375 127.625C72.6458 127.625 80.8333 125.958 88.5 122.625C96.2083 119.292 103 114.688 108.875 108.812C114.75 102.938 119.354 96.1667 122.688 88.5C126.021 80.7917 127.688 72.5833 127.688 63.875C127.688 55.1667 126.021 46.9792 122.688 39.3125C119.354 31.6042 114.75 24.8125 108.875 18.9375C103 13.0625 96.2083 8.45833 88.5 5.125C80.7917 1.79167 72.5833 0.125 63.875 0.125C55.1667 0.125 46.9583 1.79167 39.25 5.125C31.5833 8.45833 24.8125 13.0625 18.9375 18.9375C13.1042 24.8125 8.52083 31.6042 5.1875 39.3125C1.85417 46.9792 0.1875 55.1667 0.1875 63.875C0.1875 72.5833 1.85417 80.7917 5.1875 88.5C8.52083 96.1667 13.125 102.938 19 108.812C24.875 114.688 31.6458 119.292 39.3125 122.625C47.0208 125.958 55.2292 127.625 63.9375 127.625ZM63.9375 117C56.5625 117 49.6667 115.625 43.25 112.875C36.8333 110.125 31.1875 106.333 26.3125 101.5C21.4792 96.625 17.6875 90.9792 14.9375 84.5625C12.2292 78.1458 10.875 71.25 10.875 63.875C10.875 56.5 12.2292 49.6042 14.9375 43.1875C17.6875 36.7708 21.4792 31.125 26.3125 26.25C31.1458 21.375 36.7708 17.5833 43.1875 14.875C49.6042 12.125 56.5 10.75 63.875 10.75C71.25 10.75 78.1458 12.125 84.5625 14.875C91.0208 17.5833 96.6667 21.375 101.5 26.25C106.375 31.125 110.188 36.7708 112.938 43.1875C115.688 49.6042 117.062 56.5 117.062 63.875C117.062 71.25 115.688 78.1458 112.938 84.5625C110.229 90.9792 106.438 96.625 101.562 101.5C96.6875 106.333 91.0417 110.125 84.625 112.875C78.2083 115.625 71.3125 117 63.9375 117ZM71.5 95.1875C72.5417 95.1875 73.4375 94.875 74.1875 94.25C74.9375 93.5833 75.3125 92.6875 75.3125 91.5625C75.3125 90.8958 75.1458 90.2917 74.8125 89.75C74.5208 89.2083 74.125 88.7292 73.625 88.3125L55.1875 71.0625H56.8125C62.9792 71.0625 67.625 69.6042 70.75 66.6875C73.9167 63.7292 75.8333 60.2708 76.5 56.3125H82.3125C83.2292 56.3125 83.9583 56.0208 84.5 55.4375C85.0833 54.8125 85.375 54.0833 85.375 53.25C85.375 52.3333 85.0833 51.5833 84.5 51C83.9583 50.4167 83.2292 50.125 82.3125 50.125H76.5625C76.3542 48.5 75.9375 46.9792 75.3125 45.5625C74.7292 44.1458 73.9167 42.875 72.875 41.75H82C82.9167 41.75 83.6458 41.4375 84.1875 40.8125C84.7708 40.1875 85.0625 39.4583 85.0625 38.625C85.0625 37.7083 84.7708 36.9792 84.1875 36.4375C83.6458 35.8542 82.9167 35.5625 82 35.5625H68.875C67.875 35.5625 66.875 35.5625 65.875 35.5625C64.875 35.5625 63.875 35.5625 62.875 35.5625H46.0625C45.0625 35.5625 44.2083 35.9167 43.5 36.625C42.7917 37.3333 42.4375 38.2083 42.4375 39.25C42.4375 40.25 42.7917 41.125 43.5 41.875C44.2083 42.625 45.0625 43 46.0625 43H57.3125C60.1042 43 62.4167 43.625 64.25 44.875C66.125 46.125 67.3542 47.875 67.9375 50.125H46C45.125 50.125 44.3958 50.4167 43.8125 51C43.2292 51.5833 42.9375 52.3333 42.9375 53.25C42.9375 54.0833 43.2292 54.8125 43.8125 55.4375C44.3958 56.0208 45.125 56.3125 46 56.3125H68.0625C67.5208 58.7292 66.25 60.5625 64.25 61.8125C62.25 63.0208 59.6667 63.625 56.5 63.625H47.375C46.0833 63.625 45.0208 64 44.1875 64.75C43.3542 65.5 42.9375 66.5417 42.9375 67.875C42.9375 68.9167 43.1458 69.75 43.5625 70.375C44.0208 71 44.5625 71.6042 45.1875 72.1875L67.8125 93.5C69.0208 94.625 70.25 95.1875 71.5 95.1875Z" fill="white"/>
</svg>
