<svg width="16" height="15" viewBox="0 0 16 15" fill="none" xmlns="http://www.w3.org/2000/svg">
<path d="M3.25781 14.5625H12.7344C13.5521 14.5625 14.1641 14.3594 14.5703 13.9531C14.9818 13.5521 15.1875 12.9479 15.1875 12.1406V2.60156C15.1875 1.79427 14.9818 1.1901 14.5703 0.789062C14.1641 0.382812 13.5521 0.179688 12.7344 0.179688H3.25781C2.4401 0.179688 1.82552 0.382812 1.41406 0.789062C1.00781 1.1901 0.804688 1.79427 0.804688 2.60156V12.1406C0.804688 12.9479 1.00781 13.5521 1.41406 13.9531C1.82552 14.3594 2.4401 14.5625 3.25781 14.5625ZM6.59375 11.875C6.42708 11.875 6.28646 11.8229 6.17188 11.7188C6.05729 11.6094 6 11.4714 6 11.3047C6 11.1484 6.05729 11.0156 6.17188 10.9062C6.28646 10.7917 6.42708 10.7344 6.59375 10.7344H7.58594V7.05469H6.72656C6.5651 7.05469 6.42708 7.0026 6.3125 6.89844C6.19792 6.78906 6.14062 6.65104 6.14062 6.48438C6.14062 6.32812 6.19792 6.19531 6.3125 6.08594C6.42708 5.97135 6.5651 5.91406 6.72656 5.91406H8.24219C8.45052 5.91406 8.60677 5.98177 8.71094 6.11719C8.82031 6.2526 8.875 6.42969 8.875 6.64844V10.7344H9.86719C10.0339 10.7344 10.1745 10.7917 10.2891 10.9062C10.4036 11.0156 10.4609 11.1484 10.4609 11.3047C10.4609 11.4714 10.4036 11.6094 10.2891 11.7188C10.1745 11.8229 10.0339 11.875 9.86719 11.875H6.59375ZM7.92969 4.57812C7.63802 4.57812 7.38802 4.47656 7.17969 4.27344C6.97656 4.0651 6.875 3.8151 6.875 3.52344C6.875 3.22656 6.97656 2.97656 7.17969 2.77344C7.38802 2.5651 7.63802 2.46094 7.92969 2.46094C8.22656 2.46094 8.47396 2.5651 8.67188 2.77344C8.875 2.97656 8.97656 3.22656 8.97656 3.52344C8.97656 3.8151 8.875 4.0651 8.67188 4.27344C8.47396 4.47656 8.22656 4.57812 7.92969 4.57812Z" fill="white"/>
</svg>
