<?xml version="1.0" encoding="UTF-8"?>
<svg xmlns="http://www.w3.org/2000/svg" xmlns:xlink="http://www.w3.org/1999/xlink" width="24" height="22.666667" viewBox="0 0 24 22.666667" version="1.1">
<g id="surface1">
<path style=" stroke:none;fill-rule:nonzero;fill:rgb(100%,100%,100%);fill-opacity:1;" d="M 6.707031 22.65625 C 6.917969 22.65625 7.105469 22.601562 7.269531 22.488281 C 7.445312 22.386719 7.65625 22.21875 7.90625 21.988281 L 11.667969 18.550781 L 18.707031 18.550781 C 19.742188 18.550781 20.613281 18.367188 21.324219 18 C 22.03125 17.632812 22.566406 17.09375 22.925781 16.386719 C 23.296875 15.675781 23.480469 14.8125 23.480469 13.792969 L 23.480469 5.8125 C 23.480469 4.792969 23.296875 3.925781 22.925781 3.21875 C 22.566406 2.511719 22.03125 1.972656 21.324219 1.605469 C 20.613281 1.230469 19.742188 1.042969 18.707031 1.042969 L 5.292969 1.042969 C 4.257812 1.042969 3.386719 1.230469 2.675781 1.605469 C 1.96875 1.972656 1.429688 2.511719 1.0625 3.21875 C 0.703125 3.925781 0.519531 4.792969 0.519531 5.8125 L 0.519531 13.792969 C 0.519531 14.8125 0.703125 15.675781 1.0625 16.386719 C 1.429688 17.09375 1.96875 17.632812 2.675781 18 C 3.386719 18.367188 4.257812 18.550781 5.292969 18.550781 L 5.78125 18.550781 L 5.78125 21.582031 C 5.78125 21.910156 5.859375 22.171875 6.019531 22.363281 C 6.179688 22.558594 6.410156 22.65625 6.707031 22.65625 Z M 10.269531 15.386719 C 10.0625 15.386719 9.890625 15.320312 9.75 15.1875 C 9.609375 15.054688 9.542969 14.886719 9.542969 14.675781 C 9.542969 14.484375 9.609375 14.316406 9.75 14.175781 C 9.890625 14.039062 10.0625 13.96875 10.269531 13.96875 L 11.5 13.96875 L 11.5 9.425781 L 10.4375 9.425781 C 10.234375 9.425781 10.0625 9.359375 9.917969 9.230469 C 9.777344 9.097656 9.707031 8.929688 9.707031 8.730469 C 9.707031 8.535156 9.777344 8.367188 9.917969 8.230469 C 10.0625 8.089844 10.234375 8.019531 10.4375 8.019531 L 12.300781 8.019531 C 12.558594 8.019531 12.753906 8.105469 12.886719 8.269531 C 13.015625 8.4375 13.082031 8.65625 13.082031 8.925781 L 13.082031 13.96875 L 14.3125 13.96875 C 14.519531 13.96875 14.695312 14.039062 14.832031 14.175781 C 14.972656 14.316406 15.042969 14.484375 15.042969 14.675781 C 15.042969 14.886719 14.972656 15.054688 14.832031 15.1875 C 14.695312 15.320312 14.519531 15.386719 14.3125 15.386719 Z M 11.917969 6.375 C 11.554688 6.375 11.246094 6.25 10.988281 6 C 10.738281 5.742188 10.613281 5.433594 10.613281 5.074219 C 10.613281 4.703125 10.738281 4.394531 10.988281 4.144531 C 11.246094 3.890625 11.554688 3.761719 11.917969 3.761719 C 12.285156 3.761719 12.589844 3.890625 12.832031 4.144531 C 13.082031 4.394531 13.207031 4.703125 13.207031 5.074219 C 13.207031 5.433594 13.082031 5.742188 12.832031 6 C 12.589844 6.25 12.285156 6.375 11.917969 6.375 Z M 11.917969 6.375 "/>
</g>
</svg>
