<svg width="18" height="17" viewBox="0 0 18 17" fill="none" xmlns="http://www.w3.org/2000/svg">
<path d="M5.19531 16.9453C5.38802 16.9453 5.5651 16.8932 5.72656 16.7891C5.88802 16.6849 6.08594 16.5286 6.32031 16.3203L9.01562 13.9219H14.0312C14.8073 13.9219 15.4609 13.7839 15.9922 13.5078C16.5234 13.2266 16.9245 12.8203 17.1953 12.2891C17.4714 11.7578 17.6094 11.1094 17.6094 10.3438V4.35938C17.6094 3.59375 17.4714 2.94531 17.1953 2.41406C16.9245 1.88281 16.5234 1.47917 15.9922 1.20312C15.4609 0.921875 14.8073 0.78125 14.0312 0.78125H3.96875C3.19271 0.78125 2.53906 0.921875 2.00781 1.20312C1.47656 1.47917 1.07292 1.88281 0.796875 2.41406C0.526042 2.94531 0.390625 3.59375 0.390625 4.35938V10.3438C0.390625 11.1094 0.526042 11.7578 0.796875 12.2891C1.07292 12.8203 1.47656 13.2266 2.00781 13.5078C2.53906 13.7839 3.19271 13.9219 3.96875 13.9219H4.34375V15.9531C4.34375 16.2552 4.41667 16.4948 4.5625 16.6719C4.71354 16.8542 4.92448 16.9453 5.19531 16.9453ZM5.51562 15.5156V13.25C5.51562 13.0365 5.47135 12.8854 5.38281 12.7969C5.29427 12.7083 5.14323 12.6641 4.92969 12.6641H3.96875C3.17708 12.6641 2.59115 12.4688 2.21094 12.0781C1.83594 11.6823 1.64844 11.1016 1.64844 10.3359V4.35938C1.64844 3.59896 1.83594 3.02344 2.21094 2.63281C2.59115 2.23698 3.17708 2.03906 3.96875 2.03906H14.0312C14.8177 2.03906 15.401 2.23698 15.7812 2.63281C16.1615 3.02344 16.3516 3.59896 16.3516 4.35938V10.3359C16.3516 11.1016 16.1615 11.6823 15.7812 12.0781C15.401 12.4688 14.8177 12.6641 14.0312 12.6641H8.96875C8.75 12.6641 8.57292 12.6875 8.4375 12.7344C8.30208 12.7812 8.16146 12.8802 8.01562 13.0312L5.51562 15.5156ZM7.74219 11.4062H10.6875C10.8385 11.4062 10.9635 11.3594 11.0625 11.2656C11.1667 11.1667 11.2188 11.0443 11.2188 10.8984C11.2188 10.7526 11.1667 10.6328 11.0625 10.5391C10.9635 10.4401 10.8385 10.3906 10.6875 10.3906H9.78906V6.71094C9.78906 6.51302 9.73958 6.35677 9.64062 6.24219C9.54688 6.1224 9.40885 6.0625 9.22656 6.0625H7.86719C7.71615 6.0625 7.58854 6.11198 7.48438 6.21094C7.38542 6.30469 7.33594 6.42188 7.33594 6.5625C7.33594 6.70833 7.38542 6.83073 7.48438 6.92969C7.58854 7.02344 7.71615 7.07031 7.86719 7.07031H8.64062V10.3906H7.74219C7.59115 10.3906 7.46615 10.4401 7.36719 10.5391C7.26823 10.6328 7.21875 10.7526 7.21875 10.8984C7.21875 11.0443 7.26823 11.1667 7.36719 11.2656C7.46615 11.3594 7.59115 11.4062 7.74219 11.4062ZM8.94531 4.85156C9.21094 4.85156 9.43229 4.76042 9.60938 4.57812C9.79167 4.39583 9.88281 4.17448 9.88281 3.91406C9.88281 3.64844 9.79167 3.42448 9.60938 3.24219C9.43229 3.05469 9.21094 2.96094 8.94531 2.96094C8.6849 2.96094 8.46094 3.05469 8.27344 3.24219C8.09115 3.42448 8 3.64844 8 3.91406C8 4.17448 8.09115 4.39583 8.27344 4.57812C8.46094 4.76042 8.6849 4.85156 8.94531 4.85156Z" fill="white"/>
</svg>
