<svg xmlns="http://www.w3.org/2000/svg" width="24" height="24"><path style="stroke:none;fill-rule:nonzero;fill:#fff;fill-opacity:1" d="M4.887 23.3h14.215c1.226 0 2.144-.323 2.753-.976.618-.64.926-1.605.926-2.898V4.164c0-1.293-.308-2.258-.926-2.898-.609-.653-1.527-.977-2.753-.977H4.887c-1.227 0-2.149.324-2.766.977-.61.64-.914 1.605-.914 2.898v15.262c0 1.293.305 2.258.914 2.902.617.649 1.54.973 2.766.973Zm.023-2.01c-.586 0-1.035-.165-1.348-.49-.312-.335-.468-.823-.468-1.476V4.262c0-.649.156-1.137.469-1.461.312-.336.761-.5 1.347-.5h14.168c.578 0 1.024.164 1.336.5.32.324.48.812.48 1.46v15.063c0 .653-.16 1.14-.48 1.477-.312.324-.758.488-1.336.488Zm5.05-2.528h4.77a.81.81 0 0 0 .61-.25c.16-.16.25-.387.246-.625a.876.876 0 0 0-.246-.625.826.826 0 0 0-.61-.25h-1.453v-6.364c0-.34-.078-.609-.234-.812-.156-.207-.383-.313-.68-.313H10.16a.84.84 0 0 0-.61.25.86.86 0 0 0-.245.625c0 .25.082.461.246.625a.81.81 0 0 0 .61.25h1.253v5.739H9.961a.845.845 0 0 0-.855.875c0 .25.081.46.246.625a.81.81 0 0 0 .609.25Zm1.946-11.325c.43 0 .79-.16 1.078-.476.297-.316.446-.7.446-1.149 0-.457-.149-.847-.446-1.164a1.396 1.396 0 0 0-1.078-.472c-.422 0-.781.156-1.078.472a1.642 1.642 0 0 0-.445 1.165c0 .449.148.832.445 1.148.297.316.656.476 1.078.476Zm0 0"/></svg>