<svg width="16" height="15" viewBox="0 0 16 15" fill="none" xmlns="http://www.w3.org/2000/svg">
<path d="M3.25781 14.5625H12.7344C13.5521 14.5625 14.1641 14.3594 14.5703 13.9531C14.9818 13.5521 15.1875 12.9479 15.1875 12.1406V2.60156C15.1875 1.79427 14.9818 1.1901 14.5703 0.789062C14.1641 0.382812 13.5521 0.179688 12.7344 0.179688H3.25781C2.4401 0.179688 1.82552 0.382812 1.41406 0.789062C1.00781 1.1901 0.804688 1.79427 0.804688 2.60156V12.1406C0.804688 12.9479 1.00781 13.5521 1.41406 13.9531C1.82552 14.3594 2.4401 14.5625 3.25781 14.5625ZM3.27344 13.3047C2.88281 13.3047 2.58333 13.2031 2.375 13C2.16667 12.7917 2.0625 12.4844 2.0625 12.0781V2.66406C2.0625 2.25781 2.16667 1.95312 2.375 1.75C2.58333 1.54167 2.88281 1.4375 3.27344 1.4375H12.7188C13.1042 1.4375 13.401 1.54167 13.6094 1.75C13.8229 1.95312 13.9297 2.25781 13.9297 2.66406V12.0781C13.9297 12.4844 13.8229 12.7917 13.6094 13C13.401 13.2031 13.1042 13.3047 12.7188 13.3047H3.27344ZM6.64062 11.7266H9.82031C9.98177 11.7266 10.1172 11.6745 10.2266 11.5703C10.3359 11.4661 10.3906 11.3359 10.3906 11.1797C10.3906 11.0234 10.3359 10.8932 10.2266 10.7891C10.1172 10.6849 9.98177 10.6328 9.82031 10.6328H8.85156V6.65625C8.85156 6.44271 8.79948 6.27344 8.69531 6.14844C8.59115 6.01823 8.4401 5.95312 8.24219 5.95312H6.77344C6.61198 5.95312 6.47656 6.00521 6.36719 6.10938C6.25781 6.21354 6.20312 6.34375 6.20312 6.5C6.20312 6.65625 6.25781 6.78646 6.36719 6.89062C6.47656 6.99479 6.61198 7.04688 6.77344 7.04688H7.60938V10.6328H6.64062C6.47917 10.6328 6.34375 10.6849 6.23438 10.7891C6.125 10.8932 6.07031 11.0234 6.07031 11.1797C6.07031 11.3359 6.125 11.4661 6.23438 11.5703C6.34375 11.6745 6.47917 11.7266 6.64062 11.7266ZM7.9375 4.64844C8.22396 4.64844 8.46354 4.54948 8.65625 4.35156C8.85417 4.15365 8.95312 3.91406 8.95312 3.63281C8.95312 3.34635 8.85417 3.10417 8.65625 2.90625C8.46354 2.70833 8.22396 2.60938 7.9375 2.60938C7.65625 2.60938 7.41667 2.70833 7.21875 2.90625C7.02083 3.10417 6.92188 3.34635 6.92188 3.63281C6.92188 3.91406 7.02083 4.15365 7.21875 4.35156C7.41667 4.54948 7.65625 4.64844 7.9375 4.64844Z" fill="white"/>
</svg>
