<svg width="128" height="128" viewBox="0 0 128 128" fill="none" xmlns="http://www.w3.org/2000/svg">
<path d="M63.9375 127.625C72.6458 127.625 80.8333 125.958 88.5 122.625C96.2083 119.292 103 114.688 108.875 108.812C114.75 102.938 119.354 96.1667 122.688 88.5C126.021 80.7917 127.688 72.5833 127.688 63.875C127.688 55.1667 126.021 46.9792 122.688 39.3125C119.354 31.6042 114.75 24.8125 108.875 18.9375C103 13.0625 96.2083 8.45833 88.5 5.125C80.7917 1.79167 72.5833 0.125 63.875 0.125C55.1667 0.125 46.9583 1.79167 39.25 5.125C31.5833 8.45833 24.8125 13.0625 18.9375 18.9375C13.1042 24.8125 8.52083 31.6042 5.1875 39.3125C1.85417 46.9792 0.1875 55.1667 0.1875 63.875C0.1875 72.5833 1.85417 80.7917 5.1875 88.5C8.52083 96.1667 13.125 102.938 19 108.812C24.875 114.688 31.6458 119.292 39.3125 122.625C47.0208 125.958 55.2292 127.625 63.9375 127.625ZM52.6875 100C51.3542 100 50.2292 99.5833 49.3125 98.75C48.3958 97.875 47.9375 96.7708 47.9375 95.4375C47.9375 94.1875 48.3958 93.125 49.3125 92.25C50.2292 91.3333 51.3542 90.875 52.6875 90.875H60.625V61.4375H53.75C52.4583 61.4375 51.3542 61.0208 50.4375 60.1875C49.5208 59.3125 49.0625 58.2083 49.0625 56.875C49.0625 55.625 49.5208 54.5625 50.4375 53.6875C51.3542 52.7708 52.4583 52.3125 53.75 52.3125H65.875C67.5417 52.3125 68.7917 52.8542 69.625 53.9375C70.5 55.0208 70.9375 56.4375 70.9375 58.1875V90.875H78.875C80.2083 90.875 81.3333 91.3333 82.25 92.25C83.1667 93.125 83.625 94.1875 83.625 95.4375C83.625 96.7708 83.1667 97.875 82.25 98.75C81.3333 99.5833 80.2083 100 78.875 100H52.6875ZM63.375 41.625C61.0417 41.625 59.0417 40.8125 57.375 39.1875C55.75 37.5208 54.9375 35.5208 54.9375 33.1875C54.9375 30.8125 55.75 28.8125 57.375 27.1875C59.0417 25.5208 61.0417 24.6875 63.375 24.6875C65.75 24.6875 67.7292 25.5208 69.3125 27.1875C70.9375 28.8125 71.75 30.8125 71.75 33.1875C71.75 35.5208 70.9375 37.5208 69.3125 39.1875C67.7292 40.8125 65.75 41.625 63.375 41.625Z" fill="white"/>
</svg>
