<?xml version="1.0" encoding="UTF-8"?>
<svg xmlns="http://www.w3.org/2000/svg" xmlns:xlink="http://www.w3.org/1999/xlink" width="24" height="18" viewBox="0 0 24 18" version="1.1">
<g id="surface1">
<path style=" stroke:none;fill-rule:nonzero;fill:rgb(100%,100%,100%);fill-opacity:1;" d="M 9.320312 13.585938 C 9.320312 13.726562 9.367188 13.851562 9.46875 13.960938 C 9.570312 14.058594 9.695312 14.109375 9.84375 14.109375 C 9.988281 14.109375 10.109375 14.058594 10.210938 13.960938 C 10.308594 13.851562 10.359375 13.726562 10.359375 13.585938 L 10.359375 11.644531 C 10.359375 11.5 10.308594 11.378906 10.210938 11.277344 C 10.109375 11.179688 9.988281 11.128906 9.84375 11.128906 C 9.695312 11.128906 9.570312 11.179688 9.46875 11.277344 C 9.367188 11.378906 9.320312 11.5 9.320312 11.644531 Z M 11.464844 13.585938 C 11.464844 13.726562 11.515625 13.851562 11.617188 13.960938 C 11.722656 14.058594 11.851562 14.109375 12 14.109375 C 12.144531 14.109375 12.265625 14.058594 12.367188 13.960938 C 12.464844 13.851562 12.515625 13.726562 12.515625 13.585938 L 12.515625 11.644531 C 12.515625 11.5 12.464844 11.378906 12.367188 11.277344 C 12.265625 11.179688 12.144531 11.128906 12 11.128906 C 11.851562 11.128906 11.722656 11.179688 11.617188 11.277344 C 11.515625 11.378906 11.464844 11.5 11.464844 11.644531 Z M 13.621094 13.585938 C 13.621094 13.726562 13.671875 13.851562 13.773438 13.960938 C 13.878906 14.058594 14.003906 14.109375 14.148438 14.109375 C 14.289062 14.109375 14.414062 14.058594 14.511719 13.960938 C 14.617188 13.851562 14.671875 13.726562 14.671875 13.585938 L 14.671875 11.644531 C 14.671875 11.5 14.617188 11.378906 14.511719 11.277344 C 14.414062 11.179688 14.289062 11.128906 14.148438 11.128906 C 14.003906 11.128906 13.878906 11.179688 13.773438 11.277344 C 13.671875 11.378906 13.621094 11.5 13.621094 11.644531 Z M 15.777344 13.585938 C 15.777344 13.726562 15.828125 13.851562 15.929688 13.960938 C 16.027344 14.058594 16.152344 14.109375 16.304688 14.109375 C 16.445312 14.109375 16.570312 14.058594 16.667969 13.960938 C 16.769531 13.851562 16.820312 13.726562 16.820312 13.585938 L 16.820312 11.644531 C 16.820312 11.5 16.769531 11.378906 16.667969 11.277344 C 16.570312 11.179688 16.445312 11.128906 16.304688 11.128906 C 16.152344 11.128906 16.027344 11.179688 15.929688 11.277344 C 15.828125 11.378906 15.777344 11.5 15.777344 11.644531 Z M 17.933594 13.585938 C 17.933594 13.726562 17.984375 13.851562 18.085938 13.960938 C 18.183594 14.058594 18.308594 14.109375 18.460938 14.109375 C 18.601562 14.109375 18.726562 14.058594 18.824219 13.960938 C 18.925781 13.851562 18.976562 13.726562 18.976562 13.585938 L 18.976562 11.644531 C 18.976562 11.5 18.925781 11.378906 18.824219 11.277344 C 18.726562 11.179688 18.601562 11.128906 18.460938 11.128906 C 18.308594 11.128906 18.183594 11.179688 18.085938 11.277344 C 17.984375 11.378906 17.933594 11.5 17.933594 11.644531 Z M 0.929688 12.617188 C 0.929688 13.414062 1.117188 14.132812 1.5 14.773438 C 1.882812 15.414062 2.40625 15.914062 3.074219 16.285156 C 3.742188 16.660156 4.511719 16.847656 5.382812 16.847656 L 18.609375 16.847656 C 19.476562 16.847656 20.246094 16.660156 20.914062 16.285156 C 21.585938 15.914062 22.109375 15.414062 22.492188 14.773438 C 22.871094 14.132812 23.0625 13.414062 23.0625 12.617188 C 23.0625 12.269531 23.015625 11.933594 22.921875 11.617188 C 22.835938 11.296875 22.730469 10.992188 22.613281 10.695312 L 19.453125 3.113281 C 19.140625 2.363281 18.675781 1.796875 18.054688 1.414062 C 17.445312 1.035156 16.71875 0.84375 15.882812 0.84375 L 8.109375 0.84375 C 7.273438 0.84375 6.542969 1.035156 5.925781 1.414062 C 5.3125 1.796875 4.851562 2.363281 4.539062 3.113281 L 1.367188 10.695312 C 1.25 10.992188 1.148438 11.296875 1.058594 11.617188 C 0.972656 11.933594 0.929688 12.269531 0.929688 12.617188 Z M 2.4375 12.617188 C 2.4375 12.105469 2.558594 11.644531 2.804688 11.230469 C 3.046875 10.820312 3.390625 10.492188 3.835938 10.257812 C 4.277344 10.019531 4.792969 9.898438 5.382812 9.898438 L 18.609375 9.898438 C 19.203125 9.898438 19.71875 10.019531 20.15625 10.257812 C 20.601562 10.492188 20.945312 10.820312 21.1875 11.230469 C 21.429688 11.644531 21.554688 12.105469 21.554688 12.617188 C 21.554688 13.199219 21.429688 13.695312 21.1875 14.101562 C 20.945312 14.5 20.601562 14.804688 20.15625 15.019531 C 19.71875 15.230469 19.203125 15.335938 18.609375 15.335938 L 5.382812 15.335938 C 4.792969 15.335938 4.277344 15.21875 3.835938 14.980469 C 3.390625 14.742188 3.046875 14.421875 2.804688 14.015625 C 2.558594 13.601562 2.4375 13.136719 2.4375 12.617188 Z M 3.957031 8.632812 L 6 3.496094 C 6.175781 3.054688 6.449219 2.71875 6.824219 2.492188 C 7.199219 2.269531 7.652344 2.15625 8.183594 2.15625 L 15.804688 2.15625 C 16.335938 2.15625 16.789062 2.269531 17.164062 2.492188 C 17.539062 2.71875 17.816406 3.054688 17.992188 3.496094 L 20.035156 8.632812 C 19.816406 8.554688 19.585938 8.492188 19.351562 8.457031 C 19.113281 8.414062 18.867188 8.390625 18.609375 8.390625 L 5.382812 8.390625 C 5.125 8.390625 4.878906 8.414062 4.640625 8.457031 C 4.402344 8.492188 4.175781 8.554688 3.957031 8.632812 Z M 3.957031 8.632812 "/>
</g>
</svg>
