<svg width="20" height="15" viewBox="0 0 20 15" fill="none" xmlns="http://www.w3.org/2000/svg">
<path d="M3.24219 14.5625H16.7578C17.5807 14.5625 18.1953 14.3594 18.6016 13.9531C19.0078 13.5521 19.2109 12.9479 19.2109 12.1406V2.60156C19.2109 1.79427 19.0078 1.1901 18.6016 0.789062C18.1953 0.382812 17.5807 0.179688 16.7578 0.179688H3.24219C2.42448 0.179688 1.8099 0.382812 1.39844 0.789062C0.992188 1.1901 0.789062 1.79427 0.789062 2.60156V12.1406C0.789062 12.9479 0.992188 13.5521 1.39844 13.9531C1.8099 14.3594 2.42448 14.5625 3.24219 14.5625ZM3.25781 13.3047C2.86719 13.3047 2.56771 13.2031 2.35938 13C2.15104 12.7917 2.04688 12.4844 2.04688 12.0781V2.66406C2.04688 2.25781 2.15104 1.95312 2.35938 1.75C2.56771 1.54167 2.86719 1.4375 3.25781 1.4375H16.7422C17.1276 1.4375 17.4245 1.54167 17.6328 1.75C17.8464 1.95312 17.9531 2.25781 17.9531 2.66406V12.0781C17.9531 12.4844 17.8464 12.7917 17.6328 13C17.4245 13.2031 17.1276 13.3047 16.7422 13.3047H3.25781ZM6.98438 12.7031H13.0234C13.1276 12.7031 13.2135 12.6719 13.2812 12.6094C13.349 12.5417 13.3828 12.4531 13.3828 12.3438C13.3828 12.2344 13.349 12.1458 13.2812 12.0781C13.2135 12.0104 13.1276 11.9766 13.0234 11.9766H6.98438C6.875 11.9766 6.78646 12.0104 6.71875 12.0781C6.65104 12.1458 6.61719 12.2344 6.61719 12.3438C6.61719 12.4531 6.65104 12.5417 6.71875 12.6094C6.78646 12.6719 6.875 12.7031 6.98438 12.7031Z" fill="white"/>
</svg>
