<?xml version="1.0" encoding="UTF-8"?>
<svg xmlns="http://www.w3.org/2000/svg" xmlns:xlink="http://www.w3.org/1999/xlink" width="24" height="32.571429" viewBox="0 0 24 32.571429" version="1.1">
<g id="surface1">
<path style=" stroke:none;fill-rule:nonzero;fill:rgb(100%,100%,100%);fill-opacity:1;" d="M 4.511719 31.125 L 19.472656 31.125 C 20.582031 31.125 21.472656 30.800781 22.152344 30.148438 C 22.839844 29.496094 23.183594 28.644531 23.183594 27.589844 L 23.183594 4.5 C 23.183594 3.4375 22.839844 2.582031 22.152344 1.929688 C 21.472656 1.277344 20.582031 0.949219 19.472656 0.949219 L 4.511719 0.949219 C 3.40625 0.949219 2.507812 1.277344 1.820312 1.929688 C 1.144531 2.582031 0.804688 3.4375 0.804688 4.5 L 0.804688 27.589844 C 0.804688 28.644531 1.144531 29.496094 1.820312 30.148438 C 2.507812 30.800781 3.40625 31.125 4.511719 31.125 Z M 2.960938 26.585938 L 2.960938 5.503906 L 21.027344 5.503906 L 21.027344 26.585938 Z M 12.011719 29.800781 C 11.691406 29.800781 11.414062 29.683594 11.183594 29.449219 C 10.960938 29.226562 10.847656 28.957031 10.847656 28.632812 C 10.847656 28.3125 10.960938 28.039062 11.183594 27.816406 C 11.414062 27.59375 11.691406 27.480469 12.011719 27.480469 C 12.324219 27.480469 12.59375 27.59375 12.816406 27.816406 C 13.050781 28.039062 13.164062 28.3125 13.164062 28.632812 C 13.164062 28.957031 13.050781 29.226562 12.816406 29.449219 C 12.59375 29.683594 12.324219 29.800781 12.011719 29.800781 Z M 11.988281 4.136719 C 11.789062 4.136719 11.621094 4.066406 11.476562 3.925781 C 11.335938 3.78125 11.261719 3.605469 11.261719 3.402344 C 11.261719 3.207031 11.335938 3.035156 11.476562 2.894531 C 11.621094 2.742188 11.789062 2.664062 11.988281 2.664062 C 12.183594 2.664062 12.351562 2.742188 12.496094 2.894531 C 12.648438 3.035156 12.722656 3.207031 12.722656 3.402344 C 12.722656 3.605469 12.648438 3.78125 12.496094 3.925781 C 12.351562 4.066406 12.183594 4.136719 11.988281 4.136719 Z M 11.988281 4.136719 "/>
</g>
</svg>
