<svg xmlns="http://www.w3.org/2000/svg" width="24" height="24"><path style="stroke:none;fill-rule:nonzero;fill:#fff;fill-opacity:1" d="M12 23.063c1.633 0 3.168-.293 4.605-.883a12.29 12.29 0 0 0 3.82-2.438 11.482 11.482 0 0 0 2.59-3.586c.626-1.36.938-2.804.938-4.343 0-1.536-.312-2.981-.937-4.336a11.514 11.514 0 0 0-2.59-3.594 12.22 12.22 0 0 0-3.82-2.438 12.166 12.166 0 0 0-4.618-.883c-1.633 0-3.172.293-4.617.883a12.307 12.307 0 0 0-3.809 2.438A11.523 11.523 0 0 0 .985 7.477a10.187 10.187 0 0 0-.937 4.335c0 1.54.312 2.985.937 4.344a11.438 11.438 0 0 0 2.59 3.586 12.307 12.307 0 0 0 3.809 2.438c1.445.59 2.984.883 4.617.883ZM9.363 18.98c-.593 0-1.074-.16-1.441-.484-.36-.324-.54-.758-.54-1.3V9.44l1.173 1.114v6.472c0 .274.082.48.246.63.164.14.402.21.715.21h4.98c.274 0 .488-.055.645-.164a.744.744 0 0 0 .293-.5v-.187l.937.882v.067c-.281.68-.855 1.015-1.723 1.015Zm1.137-1.597c-.242 0-.363-.11-.363-.32 0-.227.12-.34.363-.34h3.023c.227 0 .34.109.34.34 0 .21-.113.32-.34.32Zm6.117-3.188-1.172-1.105V6.586c0-.266-.082-.473-.246-.617-.164-.149-.398-.223-.703-.223h-.867c-.102 0-.152.047-.152.145v.152c0 .324-.168.488-.504.488h-1.934c-.344 0-.516-.164-.516-.488v-.152c0-.098-.05-.145-.152-.145h-.855c-.29 0-.516.063-.68.188a.734.734 0 0 0-.27.52v.163l-.96-.902v-.047c.28-.691.867-1.035 1.757-1.035h5.285c.586 0 1.059.164 1.418.496.368.324.551.754.551 1.289Zm.762 3.407L5.812 6.727a.457.457 0 0 1-.152-.352A.51.51 0 0 1 5.812 6a.568.568 0 0 1 .785 0l11.555 10.875a.485.485 0 0 1 0 .727.518.518 0 0 1-.386.156.582.582 0 0 1-.387-.156Zm0 0"/></svg>