<svg width="16" height="17" viewBox="0 0 16 17" fill="none" xmlns="http://www.w3.org/2000/svg">
<path d="M5.09375 16.6328H10.8906C11.3646 16.6328 11.7656 16.526 12.0938 16.3125C12.4271 16.1042 12.6641 15.8099 12.8047 15.4297V15.3906L11.3281 13.9141V13.9844H4.22656V6.82031L2.96875 5.5625V14.6016C2.96875 15.2109 3.16406 15.7005 3.55469 16.0703C3.94531 16.4453 4.45833 16.6328 5.09375 16.6328ZM8 15.8594C7.80729 15.8594 7.64323 15.7917 7.50781 15.6562C7.3776 15.526 7.3125 15.3672 7.3125 15.1797C7.3125 14.9922 7.3776 14.8333 7.50781 14.7031C7.64323 14.5729 7.80729 14.5078 8 14.5078C8.18229 14.5078 8.33854 14.5729 8.46875 14.7031C8.60417 14.8333 8.67188 14.9922 8.67188 15.1797C8.67188 15.3672 8.60417 15.526 8.46875 15.6562C8.33854 15.7917 8.18229 15.8594 8 15.8594ZM13.0156 11.25V2.11719C13.0156 1.50781 12.8203 1.01823 12.4297 0.648438C12.0443 0.273438 11.5312 0.0859375 10.8906 0.0859375H5.09375C4.60938 0.0859375 4.19792 0.195312 3.85938 0.414062C3.52604 0.632812 3.29167 0.940104 3.15625 1.33594V1.38281L4.57031 2.79688V2.73438H11.7578V9.99219L13.0156 11.25ZM6.60156 1.45312C6.60156 1.36458 6.6276 1.29427 6.67969 1.24219C6.73698 1.1849 6.8099 1.15625 6.89844 1.15625H9.27344C9.36198 1.15625 9.43229 1.1849 9.48438 1.24219C9.54167 1.29427 9.57031 1.36458 9.57031 1.45312C9.57031 1.54167 9.54167 1.61198 9.48438 1.66406C9.43229 1.71615 9.36198 1.74219 9.27344 1.74219H6.89844C6.8099 1.74219 6.73698 1.71615 6.67969 1.66406C6.6276 1.61198 6.60156 1.54167 6.60156 1.45312ZM14.0469 15.2891C14.1667 15.4089 14.3099 15.4688 14.4766 15.4688C14.6432 15.4688 14.7839 15.4089 14.8984 15.2891C15.0182 15.1745 15.0781 15.0339 15.0781 14.8672C15.0781 14.7005 15.0182 14.5573 14.8984 14.4375L1.95312 1.5C1.83333 1.38021 1.6901 1.32031 1.52344 1.32031C1.35677 1.32031 1.21354 1.38021 1.09375 1.5C0.979167 1.61458 0.921875 1.75781 0.921875 1.92969C0.921875 2.09635 0.979167 2.23698 1.09375 2.35156L14.0469 15.2891Z" fill="white"/>
</svg>
