<svg width="82" height="133" viewBox="0 0 82 133" fill="none" xmlns="http://www.w3.org/2000/svg">
<path d="M17.9375 133H64.25C69.375 133 73.4792 131.5 76.5625 128.5C79.6875 125.542 81.25 121.625 81.25 116.75V16.9375C81.25 12.0625 79.6875 8.14583 76.5625 5.1875C73.4792 2.1875 69.375 0.6875 64.25 0.6875H17.9375C12.8542 0.6875 8.75 2.1875 5.625 5.1875C2.5 8.14583 0.9375 12.0625 0.9375 16.9375V116.75C0.9375 121.625 2.5 125.542 5.625 128.5C8.75 131.5 12.8542 133 17.9375 133ZM19.25 122.938C16.5833 122.938 14.5417 122.25 13.125 120.875C11.7083 119.542 11 117.625 11 115.125V18.5625C11 16.0625 11.7083 14.1458 13.125 12.8125C14.5417 11.4375 16.5833 10.75 19.25 10.75H63C65.625 10.75 67.6458 11.4375 69.0625 12.8125C70.4792 14.1458 71.1875 16.0625 71.1875 18.5625V115.125C71.1875 117.625 70.4792 119.542 69.0625 120.875C67.6458 122.25 65.625 122.938 63 122.938H19.25ZM31.4375 124.375H50.8125V120.812C50.8125 119.521 50.4167 118.479 49.625 117.688C48.875 116.896 47.8542 116.5 46.5625 116.5H35.75C34.4583 116.5 33.4167 116.896 32.625 117.688C31.8333 118.479 31.4375 119.521 31.4375 120.812V124.375Z" fill="white"/>
</svg>
