<svg width="128" height="128" viewBox="0 0 128 128" fill="none" xmlns="http://www.w3.org/2000/svg">
<path d="M63.9375 127.625C72.6458 127.625 80.8333 125.958 88.5 122.625C96.2083 119.292 103 114.688 108.875 108.812C114.75 102.938 119.354 96.1667 122.688 88.5C126.021 80.7917 127.688 72.5833 127.688 63.875C127.688 55.1667 126.021 46.9792 122.688 39.3125C119.354 31.6042 114.75 24.8125 108.875 18.9375C103 13.0625 96.2083 8.45833 88.5 5.125C80.7917 1.79167 72.5833 0.125 63.875 0.125C55.1667 0.125 46.9583 1.79167 39.25 5.125C31.5833 8.45833 24.8125 13.0625 18.9375 18.9375C13.1042 24.8125 8.52083 31.6042 5.1875 39.3125C1.85417 46.9792 0.1875 55.1667 0.1875 63.875C0.1875 72.5833 1.85417 80.7917 5.1875 88.5C8.52083 96.1667 13.125 102.938 19 108.812C24.875 114.688 31.6458 119.292 39.3125 122.625C47.0208 125.958 55.2292 127.625 63.9375 127.625ZM63.9375 117C56.5625 117 49.6667 115.625 43.25 112.875C36.8333 110.125 31.1875 106.333 26.3125 101.5C21.4792 96.625 17.6875 90.9792 14.9375 84.5625C12.2292 78.1458 10.875 71.25 10.875 63.875C10.875 56.5 12.2292 49.6042 14.9375 43.1875C17.6875 36.7708 21.4792 31.125 26.3125 26.25C31.1458 21.375 36.7708 17.5833 43.1875 14.875C49.6042 12.125 56.5 10.75 63.875 10.75C71.25 10.75 78.1458 12.125 84.5625 14.875C91.0208 17.5833 96.6667 21.375 101.5 26.25C106.375 31.125 110.188 36.7708 112.938 43.1875C115.688 49.6042 117.062 56.5 117.062 63.875C117.062 71.25 115.688 78.1458 112.938 84.5625C110.229 90.9792 106.438 96.625 101.562 101.5C96.6875 106.333 91.0417 110.125 84.625 112.875C78.2083 115.625 71.3125 117 63.9375 117ZM50.25 103.312H77.5625C82.1042 103.312 85.0833 101.438 86.5 97.6875V97.3125L81.625 92.4375V93.5C81.4583 94.7083 80.9583 95.625 80.125 96.25C79.2917 96.875 78.1667 97.1875 76.75 97.1875H51C49.4167 97.1875 48.1875 96.7917 47.3125 96C46.4792 95.2083 46.0625 94.0625 46.0625 92.5625V56.875L40 50.8125V93.4375C40 96.3958 40.9375 98.7917 42.8125 100.625C44.6875 102.417 47.1667 103.312 50.25 103.312ZM56.125 94.5H71.75C72.9167 94.5 73.5 93.9167 73.5 92.75C73.5 91.5 72.9167 90.875 71.75 90.875H56.125C54.875 90.875 54.25 91.5 54.25 92.75C54.25 93.9167 54.875 94.5 56.125 94.5ZM87.75 77V34.25C87.75 31.2917 86.8125 28.9167 84.9375 27.125C83.0625 25.3333 80.6042 24.4375 77.5625 24.4375H50.25C45.5833 24.4375 42.5417 26.3333 41.125 30.125V30.375L46.125 35.375V34.4375C46.25 33.1875 46.7292 32.2292 47.5625 31.5625C48.3958 30.8542 49.5417 30.5 51 30.5H55.4375C55.9792 30.5 56.25 30.7708 56.25 31.3125V32.125C56.25 33.9167 57.125 34.8125 58.875 34.8125H68.875C70.625 34.8125 71.5 33.9167 71.5 32.125V31.3125C71.5 30.7708 71.7708 30.5 72.3125 30.5H76.75C78.3333 30.5 79.5417 30.8958 80.375 31.6875C81.25 32.4792 81.6875 33.625 81.6875 35.125V70.9375L87.75 77ZM91.6875 95.6875C92.2292 96.2292 92.8958 96.5208 93.6875 96.5625C94.4792 96.5625 95.1458 96.2708 95.6875 95.6875C96.2708 95.1458 96.5625 94.5 96.5625 93.75C96.5625 92.9583 96.2708 92.2708 95.6875 91.6875L35.9375 31.9375C35.3542 31.3542 34.6667 31.0625 33.875 31.0625C33.125 31.0625 32.4583 31.3542 31.875 31.9375C31.3333 32.4792 31.0625 33.1458 31.0625 33.9375C31.0625 34.7292 31.3333 35.3958 31.875 35.9375L91.6875 95.6875Z" fill="white"/>
</svg>
