<svg width="128" height="128" viewBox="0 0 128 128" fill="none" xmlns="http://www.w3.org/2000/svg">
<path d="M63.9375 127.625C72.6458 127.625 80.8333 125.958 88.5 122.625C96.2083 119.292 103 114.688 108.875 108.812C114.75 102.938 119.354 96.1667 122.688 88.5C126.021 80.7917 127.688 72.5833 127.688 63.875C127.688 55.1667 126.021 46.9792 122.688 39.3125C119.354 31.6042 114.75 24.8125 108.875 18.9375C103 13.0625 96.2083 8.45833 88.5 5.125C80.7917 1.79167 72.5833 0.125 63.875 0.125C55.1667 0.125 46.9583 1.79167 39.25 5.125C31.5833 8.45833 24.8125 13.0625 18.9375 18.9375C13.1042 24.8125 8.52083 31.6042 5.1875 39.3125C1.85417 46.9792 0.1875 55.1667 0.1875 63.875C0.1875 72.5833 1.85417 80.7917 5.1875 88.5C8.52083 96.1667 13.125 102.938 19 108.812C24.875 114.688 31.6458 119.292 39.3125 122.625C47.0208 125.958 55.2292 127.625 63.9375 127.625ZM63.9375 117C56.5625 117 49.6667 115.625 43.25 112.875C36.8333 110.125 31.1875 106.333 26.3125 101.5C21.4792 96.625 17.6875 90.9792 14.9375 84.5625C12.2292 78.1458 10.875 71.25 10.875 63.875C10.875 56.5 12.2292 49.6042 14.9375 43.1875C17.6875 36.7708 21.4792 31.125 26.3125 26.25C31.1458 21.375 36.7708 17.5833 43.1875 14.875C49.6042 12.125 56.5 10.75 63.875 10.75C71.25 10.75 78.1458 12.125 84.5625 14.875C91.0208 17.5833 96.6667 21.375 101.5 26.25C106.375 31.125 110.188 36.7708 112.938 43.1875C115.688 49.6042 117.062 56.5 117.062 63.875C117.062 71.25 115.688 78.1458 112.938 84.5625C110.229 90.9792 106.438 96.625 101.562 101.5C96.6875 106.333 91.0417 110.125 84.625 112.875C78.2083 115.625 71.3125 117 63.9375 117ZM51.5 99.6875H76.3125C79.0625 99.6875 81.2917 98.875 83 97.25C84.75 95.5833 85.625 93.3958 85.625 90.6875V37C85.625 34.3333 84.75 32.1667 83 30.5C81.2917 28.8333 79.0625 28 76.3125 28H51.5C48.7083 28 46.4583 28.8333 44.75 30.5C43.0833 32.125 42.25 34.2917 42.25 37V90.6875C42.25 93.3958 43.0833 95.5833 44.75 97.25C46.4583 98.875 48.7083 99.6875 51.5 99.6875ZM52.25 94.125C50.7917 94.125 49.6875 93.75 48.9375 93C48.1875 92.25 47.8125 91.2083 47.8125 89.875V37.8125C47.8125 36.4792 48.1875 35.4375 48.9375 34.6875C49.6875 33.9375 50.7917 33.5625 52.25 33.5625H56.375C56.875 33.5625 57.125 33.8125 57.125 34.3125V35.0625C57.125 36.6875 57.9167 37.5 59.5 37.5H68.3125C69.9375 37.5 70.75 36.6875 70.75 35.0625V34.3125C70.75 33.8125 70.9792 33.5625 71.4375 33.5625H75.625C77.0417 33.5625 78.125 33.9375 78.875 34.6875C79.6667 35.4375 80.0625 36.4792 80.0625 37.8125V89.875C80.0625 91.2083 79.6667 92.25 78.875 93C78.125 93.75 77.0417 94.125 75.625 94.125H52.25ZM56.8125 91.6875H71C72.125 91.6875 72.6875 91.1458 72.6875 90.0625C72.6875 88.8958 72.125 88.3125 71 88.3125H56.8125C55.6875 88.3125 55.125 88.8958 55.125 90.0625C55.125 91.1458 55.6875 91.6875 56.8125 91.6875ZM27.4375 82.4375C28.3542 81.3958 28.2292 80.2292 27.0625 78.9375C23.3125 74.7292 21.4375 69.7083 21.4375 63.875C21.4375 58 23.3125 52.9792 27.0625 48.8125C28.2292 47.4792 28.3542 46.3125 27.4375 45.3125C27.0208 44.7292 26.4583 44.4583 25.75 44.5C25.0833 44.5 24.4583 44.7917 23.875 45.375C19.1667 50.5 16.8125 56.6667 16.8125 63.875C16.8125 71.0417 19.1667 77.2083 23.875 82.375C24.4583 82.9583 25.0833 83.25 25.75 83.25C26.4583 83.25 27.0208 82.9792 27.4375 82.4375ZM36.5 74.75C37.25 73.7917 37.125 72.625 36.125 71.25C34.5417 69.25 33.75 66.7917 33.75 63.875C33.75 60.875 34.5417 58.4167 36.125 56.5C37.125 55.0833 37.25 53.9167 36.5 53C36.0417 52.4167 35.4375 52.1458 34.6875 52.1875C33.9375 52.1875 33.3125 52.5 32.8125 53.125C30.2708 56.2917 29 59.875 29 63.875C29 67.875 30.2708 71.4375 32.8125 74.5625C33.3125 75.1875 33.9375 75.5208 34.6875 75.5625C35.4375 75.5625 36.0417 75.2917 36.5 74.75ZM91.125 74.75C91.625 75.2917 92.2292 75.5625 92.9375 75.5625C93.6875 75.5208 94.3125 75.1875 94.8125 74.5625C97.3542 71.4375 98.625 67.875 98.625 63.875C98.625 59.875 97.3542 56.2917 94.8125 53.125C94.3125 52.5 93.6875 52.1875 92.9375 52.1875C92.2292 52.1458 91.625 52.4167 91.125 53C90.375 53.9167 90.5 55.0833 91.5 56.5C93.0833 58.4167 93.875 60.875 93.875 63.875C93.875 66.7917 93.0833 69.25 91.5 71.25C90.5 72.625 90.375 73.7917 91.125 74.75ZM100.188 82.4375C100.604 82.9792 101.167 83.25 101.875 83.25C102.583 83.25 103.208 82.9583 103.75 82.375C108.458 77.2083 110.812 71.0417 110.812 63.875C110.812 56.6667 108.458 50.5 103.75 45.375C103.208 44.7917 102.583 44.5 101.875 44.5C101.167 44.4583 100.604 44.7292 100.188 45.3125C99.2708 46.3125 99.3958 47.4792 100.562 48.8125C104.312 52.9792 106.188 58 106.188 63.875C106.188 69.7083 104.312 74.7292 100.562 78.9375C99.3958 80.2292 99.2708 81.3958 100.188 82.4375Z" fill="white"/>
</svg>
