<?xml version="1.0" encoding="UTF-8"?>
<svg xmlns="http://www.w3.org/2000/svg" xmlns:xlink="http://www.w3.org/1999/xlink" width="24" height="34" viewBox="0 0 24 34" version="1.1">
<g id="surface1">
<path style=" stroke:none;fill-rule:nonzero;fill:rgb(100%,100%,100%);fill-opacity:1;" d="M 1.953125 29.1875 C 1.953125 30.40625 2.34375 31.386719 3.125 32.125 C 3.90625 32.875 4.933594 33.25 6.203125 33.25 L 17.78125 33.25 C 19.0625 33.25 20.089844 32.875 20.859375 32.125 C 21.640625 31.386719 22.03125 30.40625 22.03125 29.1875 L 22.03125 4.234375 C 22.03125 3.015625 21.640625 2.035156 20.859375 1.296875 C 20.089844 0.546875 19.0625 0.171875 17.78125 0.171875 L 6.203125 0.171875 C 4.933594 0.171875 3.90625 0.546875 3.125 1.296875 C 2.34375 2.035156 1.953125 3.015625 1.953125 4.234375 Z M 4.46875 28.78125 L 4.46875 4.640625 C 4.46875 4.015625 4.644531 3.535156 5 3.203125 C 5.355469 2.859375 5.863281 2.6875 6.53125 2.6875 L 17.46875 2.6875 C 18.125 2.6875 18.628906 2.859375 18.984375 3.203125 C 19.339844 3.535156 19.515625 4.015625 19.515625 4.640625 L 19.515625 28.78125 C 19.515625 29.40625 19.339844 29.886719 18.984375 30.21875 C 18.628906 30.5625 18.125 30.734375 17.46875 30.734375 L 6.53125 30.734375 C 5.863281 30.734375 5.355469 30.5625 5 30.21875 C 4.644531 29.886719 4.46875 29.40625 4.46875 28.78125 Z M 8.484375 8.65625 C 9.003906 8.65625 9.464844 8.457031 9.859375 8.0625 C 10.253906 7.667969 10.453125 7.191406 10.453125 6.640625 C 10.453125 6.109375 10.253906 5.652344 9.859375 5.265625 C 9.464844 4.871094 9.003906 4.671875 8.484375 4.671875 C 7.921875 4.671875 7.441406 4.871094 7.046875 5.265625 C 6.660156 5.652344 6.46875 6.109375 6.46875 6.640625 C 6.46875 7.191406 6.660156 7.667969 7.046875 8.0625 C 7.441406 8.457031 7.921875 8.65625 8.484375 8.65625 Z M 8.484375 8.65625 "/>
</g>
</svg>
