<svg width="10" height="17" viewBox="0 0 10 17" fill="none" xmlns="http://www.w3.org/2000/svg">
<path d="M2.96094 16.6328H7.03906C7.6901 16.6328 8.20573 16.4479 8.58594 16.0781C8.97135 15.7135 9.16406 15.2214 9.16406 14.6016V2.11719C9.16406 1.4974 8.97135 1.00521 8.58594 0.640625C8.20573 0.270833 7.6901 0.0859375 7.03906 0.0859375H2.96094C2.3099 0.0859375 1.79167 0.270833 1.40625 0.640625C1.02604 1.00521 0.835938 1.4974 0.835938 2.11719V14.6016C0.835938 15.2214 1.02604 15.7135 1.40625 16.0781C1.79167 16.4479 2.3099 16.6328 2.96094 16.6328ZM3.125 15.375C2.79688 15.375 2.54167 15.2891 2.35938 15.1172C2.18229 14.9453 2.09375 14.7057 2.09375 14.3984V2.32031C2.09375 2.01302 2.18229 1.77344 2.35938 1.60156C2.54167 1.42969 2.79688 1.34375 3.125 1.34375H6.88281C7.20573 1.34375 7.45573 1.42969 7.63281 1.60156C7.8151 1.77344 7.90625 2.01302 7.90625 2.32031V14.3984C7.90625 14.7057 7.8151 14.9453 7.63281 15.1172C7.45573 15.2891 7.20573 15.375 6.88281 15.375H3.125Z" fill="white"/>
</svg>
