<svg xmlns="http://www.w3.org/2000/svg" width="24" height="24"><path style="stroke:none;fill-rule:nonzero;fill:#fff;fill-opacity:1" d="M.59 18.902c0 1.262.277 2.266.828 3.016.562.742 1.309 1.11 2.238 1.11h16.676c.938 0 1.68-.368 2.234-1.106.555-.754.832-1.758.832-3.02V4.5c0-1.262-.277-2.262-.832-3C22.012.75 21.27.371 20.332.371H3.656C2.726.371 1.98.75 1.418 1.5c-.55.738-.828 1.738-.828 3Zm2.156-.34V4.845c0-.54.11-.957.336-1.266.23-.308.543-.46.938-.46h15.96c.387 0 .688.152.915.464.23.305.347.723.347 1.262v13.718c0 .536-.117.954-.347 1.262a1.08 1.08 0 0 1-.915.461H4.02a1.11 1.11 0 0 1-.938-.465c-.227-.3-.336-.722-.336-1.258Zm11.543-.257c.965 0 1.84-.293 2.625-.883.773-.586 1.418-1.414 1.875-2.402.465-1.008.7-2.11.7-3.329 0-1.218-.235-2.32-.7-3.324-.453-.988-1.102-1.808-1.875-2.387a4.231 4.231 0 0 0-2.625-.898c-.953 0-1.824.3-2.61.898-.773.582-1.421 1.403-1.874 2.387-.465 1.008-.7 2.11-.7 3.328 0 1.22.235 2.32.7 3.325.457.988 1.101 1.816 1.875 2.402.789.594 1.691.898 2.61.887Zm0-2.184c-.617.012-1.223-.195-1.754-.594-.52-.39-.953-.941-1.258-1.601a5.297 5.297 0 0 1-.457-2.235c0-.828.153-1.574.457-2.23.313-.672.73-1.203 1.258-1.602.531-.398 1.137-.605 1.754-.597 1.242-.016 2.399.828 3.016 2.199.316.676.476 1.445.468 2.23a5.234 5.234 0 0 1-.468 2.235c-.617 1.37-1.774 2.215-3.016 2.195Zm0 0"/></svg>