<svg width="12" height="17" viewBox="0 0 12 17" fill="none" xmlns="http://www.w3.org/2000/svg">
<path d="M0.726562 14.125C0.726562 14.7344 0.921875 15.224 1.3125 15.5938C1.70312 15.9688 2.21615 16.1562 2.85156 16.1562H9.13281C9.77344 16.1562 10.2891 15.9688 10.6797 15.5938C11.0703 15.224 11.2656 14.7344 11.2656 14.125V2.60156C11.2656 1.99219 11.0703 1.5026 10.6797 1.13281C10.2891 0.757812 9.77344 0.570312 9.13281 0.570312H2.85156C2.21615 0.570312 1.70312 0.757812 1.3125 1.13281C0.921875 1.5026 0.726562 1.99219 0.726562 2.60156V14.125ZM1.98438 6.52344V2.80469C1.98438 2.49219 2.07292 2.2526 2.25 2.08594C2.42708 1.91406 2.68229 1.82812 3.01562 1.82812H8.97656C9.30469 1.82812 9.55729 1.91406 9.73438 2.08594C9.91667 2.2526 10.0078 2.49219 10.0078 2.80469V6.52344C10.0078 6.84115 9.91667 7.08594 9.73438 7.25781C9.55729 7.42448 9.30469 7.50781 8.97656 7.50781H3.01562C2.68229 7.50781 2.42708 7.42448 2.25 7.25781C2.07292 7.08594 1.98438 6.84115 1.98438 6.52344ZM6 14.5859C5.45833 14.5859 4.96354 14.4531 4.51562 14.1875C4.06771 13.9271 3.71094 13.5755 3.44531 13.1328C3.17969 12.6849 3.04688 12.1901 3.04688 11.6484C3.04688 11.1016 3.17969 10.6068 3.44531 10.1641C3.71094 9.71615 4.06771 9.36198 4.51562 9.10156C4.96354 8.83594 5.45833 8.70312 6 8.70312C6.54167 8.70312 7.03385 8.83594 7.47656 9.10156C7.92448 9.36198 8.28125 9.71615 8.54688 10.1641C8.8125 10.6068 8.94531 11.1016 8.94531 11.6484C8.94531 12.1901 8.8125 12.6849 8.54688 13.1328C8.28125 13.5755 7.92448 13.9271 7.47656 14.1875C7.03385 14.4531 6.54167 14.5859 6 14.5859ZM6 13.4844C5.65625 13.4844 5.34375 13.401 5.0625 13.2344C4.78646 13.0677 4.5651 12.8464 4.39844 12.5703C4.23177 12.2891 4.14844 11.9818 4.14844 11.6484C4.14844 11.3099 4.23177 11.0026 4.39844 10.7266C4.5651 10.4453 4.78646 10.2214 5.0625 10.0547C5.34375 9.88802 5.65625 9.80469 6 9.80469C6.33854 9.80469 6.64583 9.88802 6.92188 10.0547C7.20312 10.2214 7.42448 10.4453 7.58594 10.7266C7.7526 11.0026 7.83594 11.3099 7.83594 11.6484C7.83594 11.9818 7.7526 12.2891 7.58594 12.5703C7.42448 12.8464 7.20312 13.0677 6.92188 13.2344C6.64583 13.401 6.33854 13.4844 6 13.4844Z" fill="white"/>
</svg>
