<?xml version="1.0" encoding="UTF-8"?>
<svg xmlns="http://www.w3.org/2000/svg" xmlns:xlink="http://www.w3.org/1999/xlink" width="24" height="25.5" viewBox="0 0 24 25.5" version="1.1">
<g id="surface1">
<path style=" stroke:none;fill-rule:nonzero;fill:rgb(100%,100%,100%);fill-opacity:1;" d="M 12 24.492188 C 13.632812 24.492188 15.167969 24.179688 16.605469 23.554688 C 18.050781 22.929688 19.324219 22.066406 20.425781 20.964844 C 21.527344 19.863281 22.390625 18.59375 23.015625 17.15625 C 23.640625 15.710938 23.953125 14.171875 23.953125 12.539062 C 23.953125 10.90625 23.640625 9.371094 23.015625 7.933594 C 22.390625 6.488281 21.527344 5.214844 20.425781 4.113281 C 19.324219 3.011719 18.050781 2.148438 16.605469 1.523438 C 15.160156 0.898438 13.621094 0.585938 11.988281 0.585938 C 10.355469 0.585938 8.816406 0.898438 7.371094 1.523438 C 5.933594 2.148438 4.664062 3.011719 3.5625 4.113281 C 2.46875 5.214844 1.609375 6.488281 0.984375 7.933594 C 0.359375 9.371094 0.046875 10.90625 0.046875 12.539062 C 0.046875 14.171875 0.359375 15.710938 0.984375 17.15625 C 1.609375 18.59375 2.472656 19.863281 3.574219 20.964844 C 4.675781 22.066406 5.945312 22.929688 7.382812 23.554688 C 8.828125 24.179688 10.367188 24.492188 12 24.492188 Z M 11.425781 18.199219 C 10.589844 18.199219 9.867188 18.011719 9.257812 17.636719 C 8.648438 17.253906 8.238281 16.75 8.027344 16.125 C 7.988281 16.03125 7.960938 15.9375 7.945312 15.84375 C 7.9375 15.75 7.933594 15.652344 7.933594 15.550781 C 7.933594 15.285156 8.015625 15.070312 8.179688 14.90625 C 8.34375 14.734375 8.558594 14.648438 8.824219 14.648438 C 9.214844 14.648438 9.515625 14.867188 9.726562 15.304688 C 9.867188 15.695312 10.089844 16 10.394531 16.21875 C 10.699219 16.429688 11.074219 16.535156 11.519531 16.535156 C 12.019531 16.535156 12.414062 16.367188 12.703125 16.03125 C 12.992188 15.6875 13.136719 15.210938 13.136719 14.601562 L 13.136719 7.863281 C 13.136719 7.542969 13.21875 7.28125 13.382812 7.078125 C 13.546875 6.875 13.785156 6.773438 14.097656 6.773438 C 14.417969 6.773438 14.660156 6.871094 14.824219 7.066406 C 14.996094 7.261719 15.082031 7.527344 15.082031 7.863281 L 15.082031 14.625 C 15.082031 15.78125 14.769531 16.667969 14.144531 17.285156 C 13.519531 17.894531 12.613281 18.199219 11.425781 18.199219 Z M 11.425781 18.199219 "/>
</g>
</svg>
