<svg xmlns="http://www.w3.org/2000/svg" width="24" height="24"><path style="stroke:none;fill-rule:nonzero;fill:#fff;fill-opacity:1" d="M4.887 23.3h14.215c1.226 0 2.144-.323 2.753-.976.618-.64.926-1.605.926-2.898V4.164c0-1.293-.308-2.258-.926-2.898-.609-.653-1.527-.977-2.753-.977H4.887c-1.227 0-2.149.324-2.766.977-.61.64-.914 1.605-.914 2.898v15.262c0 1.293.305 2.258.914 2.902.617.649 1.54.973 2.766.973Zm.023-2.01c-.586 0-1.035-.165-1.348-.49-.312-.335-.468-.823-.468-1.476V4.262c0-.649.156-1.137.469-1.461.312-.336.761-.5 1.347-.5h14.168c.578 0 1.024.164 1.336.5.32.324.48.812.48 1.46v15.063c0 .653-.16 1.14-.48 1.477-.312.324-.758.488-1.336.488Zm6.527-3.665c1.149 0 2.024-.316 2.626-.95.609-.632.914-1.546.914-2.738v-7c0-.34-.082-.613-.247-.812-.156-.207-.39-.313-.703-.313-.297 0-.527.106-.691.313-.156.207-.234.48-.234.813v6.976c0 .625-.141 1.117-.422 1.473-.282.351-.664.527-1.149.527-.437 0-.804-.113-1.101-.34a1.964 1.964 0 0 1-.645-.937c-.195-.45-.484-.676-.867-.676a.792.792 0 0 0-.621.266c-.156.164-.235.386-.235.66 0 .11.004.207.012.3.016.09.04.188.07.29.204.648.602 1.168 1.196 1.562.594.39 1.293.586 2.098.586Zm0 0"/></svg>