<svg width="116" height="116" viewBox="0 0 116 116" fill="none" xmlns="http://www.w3.org/2000/svg">
<path d="M20.5625 115.5H96.375C102.917 115.5 107.812 113.875 111.062 110.625C114.354 107.417 116 102.583 116 96.125V19.8125C116 13.3542 114.354 8.52083 111.062 5.3125C107.812 2.0625 102.917 0.4375 96.375 0.4375H20.5625C14.0208 0.4375 9.10417 2.0625 5.8125 5.3125C2.5625 8.52083 0.9375 13.3542 0.9375 19.8125V96.125C0.9375 102.583 2.5625 107.417 5.8125 110.625C9.10417 113.875 14.0208 115.5 20.5625 115.5ZM55.4375 88.0625C50.9792 88.0625 47.125 87.0625 43.875 85.0625C40.625 83.0208 38.4375 80.3333 37.3125 77C37.1042 76.5 36.9583 76 36.875 75.5C36.8333 75 36.8125 74.4792 36.8125 73.9375C36.8125 72.5208 37.25 71.375 38.125 70.5C39 69.5833 40.1458 69.125 41.5625 69.125C43.6458 69.125 45.25 70.2917 46.375 72.625C47.125 74.7083 48.3125 76.3333 49.9375 77.5C51.5625 78.625 53.5625 79.1875 55.9375 79.1875C58.6042 79.1875 60.7083 78.2917 62.25 76.5C63.7917 74.6667 64.5625 72.125 64.5625 68.875V32.9375C64.5625 31.2292 65 29.8333 65.875 28.75C66.75 27.6667 68.0208 27.125 69.6875 27.125C71.3958 27.125 72.6875 27.6458 73.5625 28.6875C74.4792 29.7292 74.9375 31.1458 74.9375 32.9375V69C74.9375 75.1667 73.2708 79.8958 69.9375 83.1875C66.6042 86.4375 61.7708 88.0625 55.4375 88.0625Z" fill="white"/>
</svg>
