<?xml version="1.0" encoding="UTF-8"?>
<svg xmlns="http://www.w3.org/2000/svg" xmlns:xlink="http://www.w3.org/1999/xlink" width="24" height="22.5" viewBox="0 0 24 22.5" version="1.1">
<g id="surface1">
<path style=" stroke:none;fill-rule:nonzero;fill:rgb(100%,100%,100%);fill-opacity:1;" d="M 4.886719 21.84375 L 19.101562 21.84375 C 20.328125 21.84375 21.246094 21.539062 21.855469 20.929688 C 22.472656 20.328125 22.78125 19.421875 22.78125 18.210938 L 22.78125 3.902344 C 22.78125 2.691406 22.472656 1.785156 21.855469 1.183594 C 21.246094 0.574219 20.328125 0.269531 19.101562 0.269531 L 4.886719 0.269531 C 3.660156 0.269531 2.738281 0.574219 2.121094 1.183594 C 1.511719 1.785156 1.207031 2.691406 1.207031 3.902344 L 1.207031 18.210938 C 1.207031 19.421875 1.511719 20.328125 2.121094 20.929688 C 2.738281 21.539062 3.660156 21.84375 4.886719 21.84375 Z M 11.425781 16.699219 C 10.589844 16.699219 9.867188 16.511719 9.257812 16.136719 C 8.648438 15.753906 8.238281 15.25 8.027344 14.625 C 7.988281 14.53125 7.960938 14.4375 7.945312 14.34375 C 7.9375 14.25 7.933594 14.152344 7.933594 14.050781 C 7.933594 13.785156 8.015625 13.570312 8.179688 13.40625 C 8.34375 13.234375 8.558594 13.148438 8.824219 13.148438 C 9.214844 13.148438 9.515625 13.367188 9.726562 13.804688 C 9.867188 14.195312 10.089844 14.5 10.394531 14.71875 C 10.699219 14.929688 11.074219 15.035156 11.519531 15.035156 C 12.019531 15.035156 12.414062 14.867188 12.703125 14.53125 C 12.992188 14.1875 13.136719 13.710938 13.136719 13.101562 L 13.136719 6.363281 C 13.136719 6.042969 13.21875 5.78125 13.382812 5.578125 C 13.546875 5.375 13.785156 5.273438 14.097656 5.273438 C 14.417969 5.273438 14.660156 5.371094 14.824219 5.566406 C 14.996094 5.761719 15.082031 6.027344 15.082031 6.363281 L 15.082031 13.125 C 15.082031 14.28125 14.769531 15.167969 14.144531 15.785156 C 13.519531 16.394531 12.613281 16.699219 11.425781 16.699219 Z M 11.425781 16.699219 "/>
</g>
</svg>
