<?xml version="1.0" encoding="UTF-8"?>
<svg xmlns="http://www.w3.org/2000/svg" xmlns:xlink="http://www.w3.org/1999/xlink" width="24" height="22.5" viewBox="0 0 24 22.5" version="1.1">
<g id="surface1">
<path style=" stroke:none;fill-rule:nonzero;fill:rgb(100%,100%,100%);fill-opacity:1;" d="M 4.886719 21.84375 L 19.101562 21.84375 C 20.328125 21.84375 21.246094 21.539062 21.855469 20.929688 C 22.472656 20.328125 22.78125 19.421875 22.78125 18.210938 L 22.78125 3.902344 C 22.78125 2.691406 22.472656 1.785156 21.855469 1.183594 C 21.246094 0.574219 20.328125 0.269531 19.101562 0.269531 L 4.886719 0.269531 C 3.660156 0.269531 2.738281 0.574219 2.121094 1.183594 C 1.511719 1.785156 1.207031 2.691406 1.207031 3.902344 L 1.207031 18.210938 C 1.207031 19.421875 1.511719 20.328125 2.121094 20.929688 C 2.738281 21.539062 3.660156 21.84375 4.886719 21.84375 Z M 8.847656 16.582031 C 8.542969 16.582031 8.304688 16.488281 8.132812 16.300781 C 7.96875 16.105469 7.886719 15.832031 7.886719 15.480469 L 7.886719 6.375 C 7.886719 6.03125 7.96875 5.761719 8.132812 5.566406 C 8.304688 5.371094 8.542969 5.273438 8.847656 5.273438 C 9.160156 5.273438 9.398438 5.371094 9.5625 5.566406 C 9.734375 5.761719 9.820312 6.03125 9.820312 6.375 L 9.820312 10.511719 L 9.890625 10.511719 L 14.660156 5.660156 C 14.792969 5.527344 14.917969 5.429688 15.035156 5.367188 C 15.160156 5.304688 15.296875 5.273438 15.445312 5.273438 C 15.695312 5.273438 15.90625 5.355469 16.078125 5.519531 C 16.25 5.683594 16.335938 5.878906 16.335938 6.105469 C 16.335938 6.238281 16.3125 6.359375 16.265625 6.46875 C 16.21875 6.578125 16.140625 6.691406 16.03125 6.808594 L 12.714844 10.207031 L 16.324219 14.929688 C 16.410156 15.046875 16.476562 15.167969 16.523438 15.292969 C 16.578125 15.417969 16.605469 15.542969 16.605469 15.667969 C 16.605469 15.933594 16.515625 16.152344 16.335938 16.324219 C 16.164062 16.496094 15.941406 16.582031 15.667969 16.582031 C 15.496094 16.582031 15.339844 16.542969 15.199219 16.464844 C 15.066406 16.386719 14.9375 16.265625 14.8125 16.101562 L 11.308594 11.460938 L 9.820312 12.984375 L 9.820312 15.480469 C 9.820312 15.832031 9.734375 16.105469 9.5625 16.300781 C 9.398438 16.488281 9.160156 16.582031 8.847656 16.582031 Z M 8.847656 16.582031 "/>
</g>
</svg>
