<svg width="116" height="116" viewBox="0 0 116 116" fill="none" xmlns="http://www.w3.org/2000/svg">
<path d="M20.5625 115.5H96.375C102.917 115.5 107.812 113.875 111.062 110.625C114.354 107.417 116 102.583 116 96.125V19.8125C116 13.3542 114.354 8.52083 111.062 5.3125C107.812 2.0625 102.917 0.4375 96.375 0.4375H20.5625C14.0208 0.4375 9.10417 2.0625 5.8125 5.3125C2.5625 8.52083 0.9375 13.3542 0.9375 19.8125V96.125C0.9375 102.583 2.5625 107.417 5.8125 110.625C9.10417 113.875 14.0208 115.5 20.5625 115.5ZM20.6875 105.438C17.5625 105.438 15.1667 104.625 13.5 103C11.8333 101.333 11 98.875 11 95.625V20.3125C11 17.0625 11.8333 14.625 13.5 13C15.1667 11.3333 17.5625 10.5 20.6875 10.5H96.25C99.3333 10.5 101.708 11.3333 103.375 13C105.083 14.625 105.938 17.0625 105.938 20.3125V95.625C105.938 98.875 105.083 101.333 103.375 103C101.708 104.625 99.3333 105.438 96.25 105.438H20.6875ZM42.1875 86.5C43.7708 86.5 45 86 45.875 85C46.75 84 47.1875 82.625 47.1875 80.875V67.875L54.875 60L73.0625 84.0625C73.7292 84.8958 74.3958 85.5208 75.0625 85.9375C75.7708 86.3125 76.5625 86.5 77.4375 86.5C78.8542 86.5 80 86.0625 80.875 85.1875C81.7917 84.3125 82.25 83.1875 82.25 81.8125C82.25 81.1875 82.125 80.5417 81.875 79.875C81.625 79.2083 81.2708 78.5833 80.8125 78L62.125 53.5625L79.3125 35.9375C79.8542 35.3542 80.25 34.7917 80.5 34.25C80.75 33.6667 80.875 33.0208 80.875 32.3125C80.875 31.1458 80.4167 30.1458 79.5 29.3125C78.625 28.4792 77.5625 28.0625 76.3125 28.0625C75.5208 28.0625 74.8125 28.2292 74.1875 28.5625C73.6042 28.8542 72.9583 29.3542 72.25 30.0625L47.5625 55.1875H47.1875V33.6875C47.1875 31.9375 46.75 30.5625 45.875 29.5625C45 28.5625 43.7708 28.0625 42.1875 28.0625C40.6458 28.0625 39.4375 28.5625 38.5625 29.5625C37.6875 30.5625 37.25 31.9375 37.25 33.6875V80.875C37.25 82.625 37.6875 84 38.5625 85C39.4375 86 40.6458 86.5 42.1875 86.5Z" fill="white"/>
</svg>
