<svg xmlns="http://www.w3.org/2000/svg" width="24" height="24"><path style="stroke:none;fill-rule:nonzero;fill:#fff;fill-opacity:1" d="M3.602 22.426c.535 0 .96-.117 1.273-.36.324-.238.488-.566.488-.98v-5.984l3.188-2.61 10.199 9.215c.3.27.57.457.805.563.25.105.53.156.843.156.5 0 .907-.113 1.22-.344.327-.23.487-.527.487-.879a1 1 0 0 0-.168-.547 2.713 2.713 0 0 0-.507-.578l-10.422-9.476 9.41-7.446c.187-.14.324-.285.414-.43a.894.894 0 0 0 .129-.46c0-.329-.148-.602-.45-.825a1.797 1.797 0 0 0-1.105-.328c-.488 0-.949.168-1.386.504L5.53 11.684h-.168V2.438c0-.403-.164-.723-.488-.965-.313-.243-.738-.36-1.273-.36-.528 0-.946.117-1.258.36-.301.242-.45.562-.45.964v18.649c0 .414.149.742.45.98.312.243.73.364 1.258.364Zm0 0"/></svg>