<svg width="20" height="15" viewBox="0 0 20 15" fill="none" xmlns="http://www.w3.org/2000/svg">
<path d="M15.6172 14.5156C16.2057 14.5156 16.7552 14.4141 17.2656 14.2109C17.776 14.013 18.2214 13.737 18.6016 13.3828C18.987 13.0286 19.2865 12.6172 19.5 12.1484C19.7135 11.6797 19.8203 11.1771 19.8203 10.6406C19.8203 10.0938 19.7214 9.58073 19.5234 9.10156C19.3255 8.61719 19.0417 8.1901 18.6719 7.82031C18.3021 7.44531 17.862 7.15104 17.3516 6.9375C17.3516 6.06771 17.2083 5.26823 16.9219 4.53906C16.6354 3.80469 16.2318 3.16927 15.7109 2.63281C15.1953 2.09115 14.5911 1.67448 13.8984 1.38281C13.2109 1.08594 12.4661 0.9375 11.6641 0.9375C10.9557 0.9375 10.3151 1.05208 9.74219 1.28125C9.17448 1.50521 8.66927 1.80729 8.22656 2.1875C7.78906 2.5625 7.41406 2.97917 7.10156 3.4375C6.6224 3.29688 6.14323 3.27604 5.66406 3.375C5.1901 3.46875 4.75781 3.66146 4.36719 3.95312C3.97656 4.23958 3.66146 4.60417 3.42188 5.04688C3.18229 5.48438 3.05729 5.97656 3.04688 6.52344C2.45833 6.61719 1.94792 6.84115 1.51562 7.19531C1.08854 7.54948 0.757812 7.99479 0.523438 8.53125C0.294271 9.06771 0.179688 9.65365 0.179688 10.2891C0.179688 10.862 0.296875 11.4036 0.53125 11.9141C0.765625 12.4245 1.09375 12.875 1.51562 13.2656C1.94271 13.651 2.4401 13.9557 3.00781 14.1797C3.57552 14.4036 4.19271 14.5156 4.85938 14.5156H15.6172ZM15.6172 13.2578H4.85938C4.20312 13.2578 3.61719 13.1224 3.10156 12.8516C2.58594 12.5755 2.17969 12.2135 1.88281 11.7656C1.58594 11.3125 1.4375 10.8203 1.4375 10.2891C1.4375 9.76823 1.53906 9.29688 1.74219 8.875C1.94531 8.44792 2.23958 8.10938 2.625 7.85938C3.01562 7.60938 3.48698 7.48438 4.03906 7.48438C4.13802 7.48438 4.1875 7.43229 4.1875 7.32812C4.1875 6.72396 4.28385 6.22656 4.47656 5.83594C4.67448 5.4401 4.9349 5.14062 5.25781 4.9375C5.58073 4.72917 5.9375 4.61198 6.32812 4.58594C6.72396 4.55469 7.1224 4.60417 7.52344 4.73438C7.61198 4.76042 7.67708 4.73438 7.71875 4.65625C7.97396 4.20833 8.27865 3.79688 8.63281 3.42188C8.98698 3.04688 9.41146 2.75 9.90625 2.53125C10.4062 2.30729 10.9922 2.19531 11.6641 2.19531C12.5182 2.19531 13.2734 2.39844 13.9297 2.80469C14.5859 3.20573 15.1068 3.73698 15.4922 4.39844C15.8776 5.0599 16.0911 5.77604 16.1328 6.54688C16.1432 6.72917 16.1432 6.92188 16.1328 7.125C16.1276 7.32292 16.1172 7.51302 16.1016 7.69531C16.0911 7.79427 16.1328 7.85417 16.2266 7.875C16.9349 8.03125 17.5 8.35417 17.9219 8.84375C18.349 9.33333 18.5625 9.93229 18.5625 10.6406C18.5625 11.125 18.4323 11.5651 18.1719 11.9609C17.9115 12.3568 17.5573 12.6719 17.1094 12.9062C16.6667 13.1406 16.1693 13.2578 15.6172 13.2578ZM5.71094 8.63281C5.71094 9.0599 5.8151 9.45052 6.02344 9.80469C6.23177 10.1536 6.51042 10.4323 6.85938 10.6406C7.21354 10.849 7.60417 10.9531 8.03125 10.9531C8.53125 10.9531 8.97917 10.8021 9.375 10.5C9.77604 10.1979 10.0885 9.76562 10.3125 9.20312L11.2969 10.1719C11.3333 10.2135 11.375 10.237 11.4219 10.2422C11.474 10.2422 11.5156 10.224 11.5469 10.1875L12.5312 9.19531L13.2422 9.91406C13.2786 9.95573 13.3203 9.97656 13.3672 9.97656C13.4193 9.97656 13.4661 9.95573 13.5078 9.91406L14.6484 8.75781C14.6901 8.72135 14.7083 8.67969 14.7031 8.63281C14.7031 8.58073 14.6849 8.53906 14.6484 8.50781L14.0469 7.89844C13.974 7.83073 13.8958 7.79688 13.8125 7.79688H10.2109C10.0391 7.34375 9.75521 6.98177 9.35938 6.71094C8.96354 6.4401 8.52083 6.30469 8.03125 6.30469C7.60417 6.30469 7.21354 6.40885 6.85938 6.61719C6.51042 6.82552 6.23177 7.10677 6.02344 7.46094C5.8151 7.8099 5.71094 8.20052 5.71094 8.63281ZM6.82812 8.625C6.82812 8.42708 6.89844 8.26042 7.03906 8.125C7.17969 7.98438 7.34635 7.91406 7.53906 7.91406C7.74219 7.91406 7.91406 7.98438 8.05469 8.125C8.19531 8.26562 8.26562 8.43229 8.26562 8.625C8.26562 8.82292 8.19531 8.99219 8.05469 9.13281C7.91406 9.26823 7.74219 9.33594 7.53906 9.33594C7.34635 9.33594 7.17969 9.26823 7.03906 9.13281C6.89844 8.99219 6.82812 8.82292 6.82812 8.625Z" fill="white"/>
</svg>
