<svg width="20" height="15" viewBox="0 0 20 15" fill="none" xmlns="http://www.w3.org/2000/svg">
<path d="M4.20312 7.17969H4.85938C5.07812 7.17969 5.1875 7.07031 5.1875 6.85156V6.1875C5.1875 5.97396 5.07812 5.86719 4.85938 5.86719H4.20312C3.98438 5.86719 3.875 5.97396 3.875 6.1875V6.85156C3.875 7.07031 3.98438 7.17969 4.20312 7.17969ZM6.39062 7.17969H7.05469C7.26823 7.17969 7.375 7.07031 7.375 6.85156V6.1875C7.375 5.97396 7.26823 5.86719 7.05469 5.86719H6.39062C6.17708 5.86719 6.07031 5.97396 6.07031 6.1875V6.85156C6.07031 7.07031 6.17708 7.17969 6.39062 7.17969ZM8.57812 7.17969H9.23438C9.45312 7.17969 9.5625 7.07031 9.5625 6.85156V6.1875C9.5625 5.97396 9.45312 5.86719 9.23438 5.86719H8.57812C8.36458 5.86719 8.25781 5.97396 8.25781 6.1875V6.85156C8.25781 7.07031 8.36458 7.17969 8.57812 7.17969ZM10.7656 7.17969H11.4297C11.638 7.17969 11.7422 7.07031 11.7422 6.85156V6.1875C11.7422 5.97396 11.638 5.86719 11.4297 5.86719H10.7656C10.5469 5.86719 10.4375 5.97396 10.4375 6.1875V6.85156C10.4375 7.07031 10.5469 7.17969 10.7656 7.17969ZM12.9453 7.17969H13.6094C13.8281 7.17969 13.9375 7.07031 13.9375 6.85156V6.1875C13.9375 5.97396 13.8281 5.86719 13.6094 5.86719H12.9453C12.737 5.86719 12.6328 5.97396 12.6328 6.1875V6.85156C12.6328 7.07031 12.737 7.17969 12.9453 7.17969ZM15.1406 7.17969H15.7969C16.0156 7.17969 16.125 7.07031 16.125 6.85156V6.1875C16.125 5.97396 16.0156 5.86719 15.7969 5.86719H15.1406C14.9219 5.86719 14.8125 5.97396 14.8125 6.1875V6.85156C14.8125 7.07031 14.9219 7.17969 15.1406 7.17969ZM4.20312 9.36719H4.85938C5.07812 9.36719 5.1875 9.25781 5.1875 9.03906V8.38281C5.1875 8.16927 5.07812 8.0625 4.85938 8.0625H4.20312C3.98438 8.0625 3.875 8.16927 3.875 8.38281V9.03906C3.875 9.25781 3.98438 9.36719 4.20312 9.36719ZM6.39062 9.36719H7.05469C7.26823 9.36719 7.375 9.25781 7.375 9.03906V8.38281C7.375 8.16927 7.26823 8.0625 7.05469 8.0625H6.39062C6.17708 8.0625 6.07031 8.16927 6.07031 8.38281V9.03906C6.07031 9.25781 6.17708 9.36719 6.39062 9.36719ZM8.57812 9.36719H9.23438C9.45312 9.36719 9.5625 9.25781 9.5625 9.03906V8.38281C9.5625 8.16927 9.45312 8.0625 9.23438 8.0625H8.57812C8.36458 8.0625 8.25781 8.16927 8.25781 8.38281V9.03906C8.25781 9.25781 8.36458 9.36719 8.57812 9.36719ZM10.7656 9.36719H11.4297C11.638 9.36719 11.7422 9.25781 11.7422 9.03906V8.38281C11.7422 8.16927 11.638 8.0625 11.4297 8.0625H10.7656C10.5469 8.0625 10.4375 8.16927 10.4375 8.38281V9.03906C10.4375 9.25781 10.5469 9.36719 10.7656 9.36719ZM12.9453 9.36719H13.6094C13.8281 9.36719 13.9375 9.25781 13.9375 9.03906V8.38281C13.9375 8.16927 13.8281 8.0625 13.6094 8.0625H12.9453C12.737 8.0625 12.6328 8.16927 12.6328 8.38281V9.03906C12.6328 9.25781 12.737 9.36719 12.9453 9.36719ZM15.1406 9.36719H15.7969C16.0156 9.36719 16.125 9.25781 16.125 9.03906V8.38281C16.125 8.16927 16.0156 8.0625 15.7969 8.0625H15.1406C14.9219 8.0625 14.8125 8.16927 14.8125 8.38281V9.03906C14.8125 9.25781 14.9219 9.36719 15.1406 9.36719ZM4.20312 11.5625H4.85938C5.07812 11.5625 5.1875 11.4531 5.1875 11.2344V10.5781C5.1875 10.3594 5.07812 10.25 4.85938 10.25H4.20312C3.98438 10.25 3.875 10.3594 3.875 10.5781V11.2344C3.875 11.4531 3.98438 11.5625 4.20312 11.5625ZM6.46094 11.5625H13.5391C13.8047 11.5625 13.9375 11.4297 13.9375 11.1641V10.6484C13.9375 10.3828 13.8047 10.25 13.5391 10.25H6.46094C6.20052 10.25 6.07031 10.3828 6.07031 10.6484V11.1641C6.07031 11.4297 6.20052 11.5625 6.46094 11.5625ZM15.1406 11.5625H15.7969C16.0156 11.5625 16.125 11.4531 16.125 11.2344V10.5781C16.125 10.3594 16.0156 10.25 15.7969 10.25H15.1406C14.9219 10.25 14.8125 10.3594 14.8125 10.5781V11.2344C14.8125 11.4531 14.9219 11.5625 15.1406 11.5625ZM0.789062 12.1406C0.789062 12.9479 0.992188 13.5521 1.39844 13.9531C1.8099 14.3594 2.42448 14.5625 3.24219 14.5625H16.7578C17.5807 14.5625 18.1953 14.3594 18.6016 13.9531C19.0078 13.5521 19.2109 12.9479 19.2109 12.1406V2.60156C19.2109 1.79427 19.0078 1.1901 18.6016 0.789062C18.1953 0.382812 17.5807 0.179688 16.7578 0.179688H3.24219C2.42448 0.179688 1.8099 0.382812 1.39844 0.789062C0.992188 1.1901 0.789062 1.79427 0.789062 2.60156V12.1406ZM3.26562 2.84375C3.07292 2.84375 2.90885 2.77344 2.77344 2.63281C2.63802 2.49219 2.57031 2.33073 2.57031 2.14844C2.57031 1.96615 2.63802 1.80469 2.77344 1.66406C2.90885 1.52344 3.07292 1.45312 3.26562 1.45312C3.45833 1.45312 3.6224 1.52344 3.75781 1.66406C3.89844 1.80469 3.96875 1.96615 3.96875 2.14844C3.96875 2.33073 3.89844 2.49219 3.75781 2.63281C3.6224 2.77344 3.45833 2.84375 3.26562 2.84375ZM5.50781 2.84375C5.3151 2.84375 5.15104 2.77604 5.01562 2.64062C4.88021 2.5 4.8125 2.33594 4.8125 2.14844C4.8125 1.96615 4.88021 1.80469 5.01562 1.66406C5.15104 1.52344 5.3151 1.45312 5.50781 1.45312C5.70052 1.45312 5.86458 1.52344 6 1.66406C6.14062 1.80469 6.21094 1.96615 6.21094 2.14844C6.21094 2.33594 6.14062 2.5 6 2.64062C5.86458 2.77604 5.70052 2.84375 5.50781 2.84375ZM7.75 2.84375C7.55729 2.84375 7.39323 2.77604 7.25781 2.64062C7.1224 2.5 7.05469 2.33594 7.05469 2.14844C7.05469 1.96615 7.1224 1.80469 7.25781 1.66406C7.39323 1.52344 7.55729 1.45312 7.75 1.45312C7.94271 1.45312 8.10677 1.52344 8.24219 1.66406C8.3776 1.80469 8.44531 1.96615 8.44531 2.14844C8.44531 2.33594 8.3776 2.5 8.24219 2.64062C8.10677 2.77604 7.94271 2.84375 7.75 2.84375ZM2.04688 12.0781V4.11719H17.9531V12.0781C17.9531 12.4844 17.8464 12.7917 17.6328 13C17.4245 13.2031 17.1276 13.3047 16.7422 13.3047H3.25781C2.86719 13.3047 2.56771 13.2031 2.35938 13C2.15104 12.7917 2.04688 12.4844 2.04688 12.0781Z" fill="white"/>
</svg>
