<svg xmlns="http://www.w3.org/2000/svg" width="24" height="24"><path style="stroke:none;fill-rule:nonzero;fill:#fff;fill-opacity:1" d="M2.602 18.477c.109.289.218.476.34.562.226.156.48.02.636-.344a1.91 1.91 0 0 0 .129-.625 1.82 1.82 0 0 0-.117-.703l-2.004-5.64 2.004-5.61a1.81 1.81 0 0 0 .117-.715c-.027-.457-.187-.836-.41-.957a.282.282 0 0 0-.356.008c-.12.078-.23.262-.34.555l-2.054 5.71a3.124 3.124 0 0 0-.164 1.024c0 .367.054.703.164 1.008Zm5.128 4.656h13.622c.75 0 1.316-.375 1.695-1.125.383-.75.57-1.867.57-3.344V4.804c0-1.484-.187-2.593-.57-3.335-.379-.75-.945-1.125-1.695-1.125H7.73c-.753 0-1.32.375-1.703 1.125-.375.742-.562 1.851-.562 3.336v13.86c0 1.491.187 2.608.562 3.358.383.743.95 1.11 1.703 1.11ZM8.207 8.28c-.223 0-.332-.226-.332-.664V6.238c0-.437.11-.664.332-.664h.676c.226 0 .34.227.34.664v1.38c0 .433-.114.663-.34.663Zm2.387 0c-.223 0-.332-.226-.332-.664V6.238c0-.437.11-.664.332-.664h.683c.227 0 .34.227.34.664v1.38c0 .433-.113.663-.34.663Zm2.394 0c-.222 0-.332-.226-.332-.664V6.238c0-.437.11-.664.332-.664h.676c.227 0 .34.227.34.664v1.38c0 .433-.113.663-.34.663Zm2.403 0c-.227 0-.34-.226-.34-.664V6.238c0-.437.113-.664.34-.664h.675c.223 0 .332.227.332.664v1.38c0 .433-.109.663-.332.663Zm2.386 0c-.226 0-.34-.226-.34-.664V6.238c0-.437.114-.664.34-.664h.684c.223 0 .332.227.332.664v1.38c0 .433-.11.663-.332.663Zm2.395 0c-.227 0-.34-.226-.34-.664V6.238c0-.437.113-.664.34-.664h.676c.222 0 .332.227.332.664v1.38c0 .433-.11.663-.332.663Zm-11.965 4.79c-.223 0-.332-.227-.332-.665v-1.375c0-.437.11-.664.332-.664h.676c.226 0 .34.227.34.664v1.375c0 .438-.114.664-.34.664Zm2.387 0c-.223 0-.332-.227-.332-.665v-1.375c0-.437.11-.664.332-.664h.683c.227 0 .34.227.34.664v1.375c0 .438-.113.664-.34.664Zm2.394 0c-.222 0-.332-.227-.332-.665v-1.375c0-.437.11-.664.332-.664h.676c.227 0 .34.227.34.664v1.375c0 .438-.113.664-.34.664Zm2.403 0c-.227 0-.34-.227-.34-.665v-1.375c0-.437.113-.664.34-.664h.675c.223 0 .332.227.332.664v1.375c0 .438-.109.664-.332.664Zm2.386 0c-.226 0-.34-.227-.34-.665v-1.375c0-.437.114-.664.34-.664h.684c.223 0 .332.227.332.664v1.375c0 .438-.11.664-.332.664Zm2.395 0c-.227 0-.34-.227-.34-.665v-1.375c0-.437.113-.664.34-.664h.676c.222 0 .332.227.332.664v1.375c0 .438-.11.664-.332.664ZM8.207 17.858c-.223 0-.332-.226-.332-.664V15.82c0-.437.11-.664.332-.664h.676c.226 0 .34.227.34.664v1.375c0 .438-.114.664-.34.664Zm2.465 0c-.274 0-.41-.28-.41-.828V15.97c0-.54.136-.813.41-.813h7.71c.274 0 .411.274.411.813v1.062c0 .547-.137.828-.41.828Zm9.5 0c-.227 0-.34-.226-.34-.664V15.82c0-.437.113-.664.34-.664h.676c.222 0 .332.227.332.664v1.375c0 .438-.11.664-.332.664Zm0 0"/></svg>