<svg width="149" height="116" viewBox="0 0 149 116" fill="none" xmlns="http://www.w3.org/2000/svg">
<path d="M28.25 56.4375H33.5C35.25 56.4375 36.125 55.5625 36.125 53.8125V48.5C36.125 46.7917 35.25 45.9375 33.5 45.9375H28.25C26.5 45.9375 25.625 46.7917 25.625 48.5V53.8125C25.625 55.5625 26.5 56.4375 28.25 56.4375ZM45.75 56.4375H51.0625C52.7708 56.4375 53.625 55.5625 53.625 53.8125V48.5C53.625 46.7917 52.7708 45.9375 51.0625 45.9375H45.75C44.0417 45.9375 43.1875 46.7917 43.1875 48.5V53.8125C43.1875 55.5625 44.0417 56.4375 45.75 56.4375ZM63.25 56.4375H68.5C70.25 56.4375 71.125 55.5625 71.125 53.8125V48.5C71.125 46.7917 70.25 45.9375 68.5 45.9375H63.25C61.5417 45.9375 60.6875 46.7917 60.6875 48.5V53.8125C60.6875 55.5625 61.5417 56.4375 63.25 56.4375ZM80.75 56.4375H86.0625C87.7292 56.4375 88.5625 55.5625 88.5625 53.8125V48.5C88.5625 46.7917 87.7292 45.9375 86.0625 45.9375H80.75C79 45.9375 78.125 46.7917 78.125 48.5V53.8125C78.125 55.5625 79 56.4375 80.75 56.4375ZM98.1875 56.4375H103.5C105.25 56.4375 106.125 55.5625 106.125 53.8125V48.5C106.125 46.7917 105.25 45.9375 103.5 45.9375H98.1875C96.5208 45.9375 95.6875 46.7917 95.6875 48.5V53.8125C95.6875 55.5625 96.5208 56.4375 98.1875 56.4375ZM115.75 56.4375H121C122.75 56.4375 123.625 55.5625 123.625 53.8125V48.5C123.625 46.7917 122.75 45.9375 121 45.9375H115.75C114 45.9375 113.125 46.7917 113.125 48.5V53.8125C113.125 55.5625 114 56.4375 115.75 56.4375ZM28.25 73.9375H33.5C35.25 73.9375 36.125 73.0625 36.125 71.3125V66.0625C36.125 64.3542 35.25 63.5 33.5 63.5H28.25C26.5 63.5 25.625 64.3542 25.625 66.0625V71.3125C25.625 73.0625 26.5 73.9375 28.25 73.9375ZM45.75 73.9375H51.0625C52.7708 73.9375 53.625 73.0625 53.625 71.3125V66.0625C53.625 64.3542 52.7708 63.5 51.0625 63.5H45.75C44.0417 63.5 43.1875 64.3542 43.1875 66.0625V71.3125C43.1875 73.0625 44.0417 73.9375 45.75 73.9375ZM63.25 73.9375H68.5C70.25 73.9375 71.125 73.0625 71.125 71.3125V66.0625C71.125 64.3542 70.25 63.5 68.5 63.5H63.25C61.5417 63.5 60.6875 64.3542 60.6875 66.0625V71.3125C60.6875 73.0625 61.5417 73.9375 63.25 73.9375ZM80.75 73.9375H86.0625C87.7292 73.9375 88.5625 73.0625 88.5625 71.3125V66.0625C88.5625 64.3542 87.7292 63.5 86.0625 63.5H80.75C79 63.5 78.125 64.3542 78.125 66.0625V71.3125C78.125 73.0625 79 73.9375 80.75 73.9375ZM98.1875 73.9375H103.5C105.25 73.9375 106.125 73.0625 106.125 71.3125V66.0625C106.125 64.3542 105.25 63.5 103.5 63.5H98.1875C96.5208 63.5 95.6875 64.3542 95.6875 66.0625V71.3125C95.6875 73.0625 96.5208 73.9375 98.1875 73.9375ZM115.75 73.9375H121C122.75 73.9375 123.625 73.0625 123.625 71.3125V66.0625C123.625 64.3542 122.75 63.5 121 63.5H115.75C114 63.5 113.125 64.3542 113.125 66.0625V71.3125C113.125 73.0625 114 73.9375 115.75 73.9375ZM28.25 91.5H33.5C35.25 91.5 36.125 90.625 36.125 88.875V83.625C36.125 81.875 35.25 81 33.5 81H28.25C26.5 81 25.625 81.875 25.625 83.625V88.875C25.625 90.625 26.5 91.5 28.25 91.5ZM46.3125 91.5H102.938C105.062 91.5 106.125 90.4375 106.125 88.3125V84.1875C106.125 82.0625 105.062 81 102.938 81H46.3125C44.2292 81 43.1875 82.0625 43.1875 84.1875V88.3125C43.1875 90.4375 44.2292 91.5 46.3125 91.5ZM115.75 91.5H121C122.75 91.5 123.625 90.625 123.625 88.875V83.625C123.625 81.875 122.75 81 121 81H115.75C114 81 113.125 81.875 113.125 83.625V88.875C113.125 90.625 114 91.5 115.75 91.5ZM0.9375 96.125C0.9375 102.583 2.5625 107.417 5.8125 110.625C9.10417 113.875 14.0208 115.5 20.5625 115.5H128.688C135.271 115.5 140.188 113.875 143.438 110.625C146.688 107.417 148.312 102.583 148.312 96.125V19.8125C148.312 13.3542 146.688 8.52083 143.438 5.3125C140.188 2.0625 135.271 0.4375 128.688 0.4375H20.5625C14.0208 0.4375 9.10417 2.0625 5.8125 5.3125C2.5625 8.52083 0.9375 13.3542 0.9375 19.8125V96.125ZM20.75 21.75C19.2083 21.75 17.8958 21.1875 16.8125 20.0625C15.7292 18.9375 15.1875 17.6458 15.1875 16.1875C15.1875 14.7292 15.7292 13.4375 16.8125 12.3125C17.8958 11.1875 19.2083 10.625 20.75 10.625C22.2917 10.625 23.6042 11.1875 24.6875 12.3125C25.8125 13.4375 26.375 14.7292 26.375 16.1875C26.375 17.6458 25.8125 18.9375 24.6875 20.0625C23.6042 21.1875 22.2917 21.75 20.75 21.75ZM38.6875 21.75C37.1458 21.75 35.8333 21.2083 34.75 20.125C33.6667 19 33.125 17.6875 33.125 16.1875C33.125 14.7292 33.6667 13.4375 34.75 12.3125C35.8333 11.1875 37.1458 10.625 38.6875 10.625C40.2292 10.625 41.5417 11.1875 42.625 12.3125C43.75 13.4375 44.3125 14.7292 44.3125 16.1875C44.3125 17.6875 43.75 19 42.625 20.125C41.5417 21.2083 40.2292 21.75 38.6875 21.75ZM56.625 21.75C55.0833 21.75 53.7708 21.2083 52.6875 20.125C51.6042 19 51.0625 17.6875 51.0625 16.1875C51.0625 14.7292 51.6042 13.4375 52.6875 12.3125C53.7708 11.1875 55.0833 10.625 56.625 10.625C58.1667 10.625 59.4792 11.1875 60.5625 12.3125C61.6458 13.4375 62.1875 14.7292 62.1875 16.1875C62.1875 17.6875 61.6458 19 60.5625 20.125C59.4792 21.2083 58.1667 21.75 56.625 21.75ZM11 95.625V31.9375H138.25V95.625C138.25 98.875 137.396 101.333 135.688 103C134.021 104.625 131.646 105.438 128.562 105.438H20.6875C17.5625 105.438 15.1667 104.625 13.5 103C11.8333 101.333 11 98.875 11 95.625Z" fill="white"/>
</svg>
