<svg xmlns="http://www.w3.org/2000/svg" width="24" height="24"><path style="stroke:none;fill-rule:nonzero;fill:#fff;fill-opacity:1" d="M5.828 23.363c.438 0 .793-.113 1.063-.34.28-.222.421-.52.421-.886v-20.5c0-.364-.14-.653-.421-.86C6.62.56 6.266.453 5.828.453c-.45 0-.812.106-1.094.324-.27.207-.406.496-.406.86v20.5c0 .367.137.664.406.89.282.223.645.336 1.094.336Zm14.922 0c.375 0 .7-.105.969-.312.27-.2.406-.45.406-.738a.95.95 0 0 0-.11-.415 1.357 1.357 0 0 0-.296-.41l-9.735-9.664 9.735-9.523c.261-.262.39-.528.39-.801 0-.3-.136-.55-.406-.75a1.526 1.526 0 0 0-.953-.3c-.23 0-.45.046-.656.136-.2.086-.403.234-.61.453L8.625 11.824 19.5 22.79c.207.207.41.352.61.438a1.6 1.6 0 0 0 .64.136ZM2.187 12.637h19.61c.27.008.535-.078.719-.239.199-.16.297-.347.297-.574a.7.7 0 0 0-.297-.586 1.107 1.107 0 0 0-.72-.226H2.189c-.282 0-.52.074-.72.226a.716.716 0 0 0-.28.586.72.72 0 0 0 .28.574c.2.16.438.239.72.239Zm0 0"/></svg>