<?xml version="1.0" encoding="UTF-8"?>
<svg xmlns="http://www.w3.org/2000/svg" xmlns:xlink="http://www.w3.org/1999/xlink" width="24" height="30" viewBox="0 0 24 30" version="1.1">
<g id="surface1">
<path style=" stroke:none;fill-rule:nonzero;fill:rgb(100%,100%,100%);fill-opacity:1;" d="M 5.828125 29.203125 C 6.265625 29.203125 6.621094 29.0625 6.890625 28.78125 C 7.171875 28.5 7.3125 28.128906 7.3125 27.671875 L 7.3125 2.046875 C 7.3125 1.589844 7.171875 1.230469 6.890625 0.96875 C 6.621094 0.699219 6.265625 0.5625 5.828125 0.5625 C 5.378906 0.5625 5.015625 0.699219 4.734375 0.96875 C 4.464844 1.230469 4.328125 1.589844 4.328125 2.046875 L 4.328125 27.671875 C 4.328125 28.128906 4.464844 28.5 4.734375 28.78125 C 5.015625 29.0625 5.378906 29.203125 5.828125 29.203125 Z M 20.75 29.203125 C 21.125 29.203125 21.449219 29.074219 21.71875 28.8125 C 21.988281 28.5625 22.125 28.253906 22.125 27.890625 C 22.125 27.734375 22.089844 27.5625 22.015625 27.375 C 21.953125 27.199219 21.855469 27.027344 21.71875 26.859375 L 11.984375 14.78125 L 21.71875 2.875 C 21.980469 2.550781 22.109375 2.21875 22.109375 1.875 C 22.109375 1.5 21.972656 1.1875 21.703125 0.9375 C 21.441406 0.6875 21.125 0.5625 20.75 0.5625 C 20.519531 0.5625 20.300781 0.621094 20.09375 0.734375 C 19.894531 0.839844 19.691406 1.027344 19.484375 1.296875 L 8.625 14.78125 L 19.5 28.484375 C 19.707031 28.746094 19.910156 28.925781 20.109375 29.03125 C 20.316406 29.144531 20.53125 29.203125 20.75 29.203125 Z M 2.1875 15.796875 L 21.796875 15.796875 C 22.089844 15.796875 22.328125 15.699219 22.515625 15.5 C 22.714844 15.300781 22.8125 15.0625 22.8125 14.78125 C 22.8125 14.480469 22.714844 14.234375 22.515625 14.046875 C 22.328125 13.859375 22.089844 13.765625 21.796875 13.765625 L 2.1875 13.765625 C 1.90625 13.765625 1.667969 13.859375 1.46875 14.046875 C 1.28125 14.234375 1.1875 14.480469 1.1875 14.78125 C 1.1875 15.0625 1.28125 15.300781 1.46875 15.5 C 1.667969 15.699219 1.90625 15.796875 2.1875 15.796875 Z M 2.1875 15.796875 "/>
</g>
</svg>
