<svg width="128" height="128" viewBox="0 0 128 128" fill="none" xmlns="http://www.w3.org/2000/svg">
<path d="M63.9375 127.625C72.6458 127.625 80.8333 125.958 88.5 122.625C96.2083 119.292 103 114.688 108.875 108.812C114.75 102.938 119.354 96.1667 122.688 88.5C126.021 80.7917 127.688 72.5833 127.688 63.875C127.688 55.1667 126.021 46.9792 122.688 39.3125C119.354 31.6042 114.75 24.8125 108.875 18.9375C103 13.0625 96.2083 8.45833 88.5 5.125C80.7917 1.79167 72.5833 0.125 63.875 0.125C55.1667 0.125 46.9583 1.79167 39.25 5.125C31.5833 8.45833 24.8125 13.0625 18.9375 18.9375C13.1042 24.8125 8.52083 31.6042 5.1875 39.3125C1.85417 46.9792 0.1875 55.1667 0.1875 63.875C0.1875 72.5833 1.85417 80.7917 5.1875 88.5C8.52083 96.1667 13.125 102.938 19 108.812C24.875 114.688 31.6458 119.292 39.3125 122.625C47.0208 125.958 55.2292 127.625 63.9375 127.625ZM63.9375 117C56.5625 117 49.6667 115.625 43.25 112.875C36.8333 110.125 31.1875 106.333 26.3125 101.5C21.4792 96.625 17.6875 90.9792 14.9375 84.5625C12.2292 78.1458 10.875 71.25 10.875 63.875C10.875 56.5 12.2292 49.6042 14.9375 43.1875C17.6875 36.7708 21.4792 31.125 26.3125 26.25C31.1458 21.375 36.7708 17.5833 43.1875 14.875C49.6042 12.125 56.5 10.75 63.875 10.75C71.25 10.75 78.1458 12.125 84.5625 14.875C91.0208 17.5833 96.6667 21.375 101.5 26.25C106.375 31.125 110.188 36.7708 112.938 43.1875C115.688 49.6042 117.062 56.5 117.062 63.875C117.062 71.25 115.688 78.1458 112.938 84.5625C110.229 90.9792 106.438 96.625 101.562 101.5C96.6875 106.333 91.0417 110.125 84.625 112.875C78.2083 115.625 71.3125 117 63.9375 117ZM39.6875 64.5C39.6875 65.3333 39.9792 66.0625 40.5625 66.6875C41.1458 67.3125 41.875 67.625 42.75 67.625H46.75V90.8125C46.75 92.0625 47.125 93.0625 47.875 93.8125C48.625 94.5208 49.6042 94.875 50.8125 94.875C51.9792 94.875 52.9375 94.5208 53.6875 93.8125C54.4375 93.0625 54.8125 92.0625 54.8125 90.8125V67.625H57.75L77.9375 93C78.9375 94.25 80.0417 94.875 81.25 94.875C82.2917 94.875 83.1875 94.5208 83.9375 93.8125C84.6875 93.1042 85.0625 92.2292 85.0625 91.1875C85.0625 90.2708 84.7083 89.3542 84 88.4375L67.1875 67.625H83.375C84.2917 67.625 85.0208 67.3125 85.5625 66.6875C86.1458 66.0625 86.4375 65.3333 86.4375 64.5C86.4375 63.5833 86.1458 62.8542 85.5625 62.3125C85.0208 61.7292 84.2917 61.4375 83.375 61.4375H67.1875L84 40.8125C84.6667 39.9375 85 39.0417 85 38.125C85 37.125 84.6458 36.2708 83.9375 35.5625C83.2292 34.8125 82.3333 34.4375 81.25 34.4375C80 34.4375 78.875 35.0833 77.875 36.375L57.6875 61.4375H54.8125V38.625C54.8125 37.3333 54.4375 36.3333 53.6875 35.625C52.9792 34.9167 52.0208 34.5625 50.8125 34.5625C49.5625 34.5625 48.5625 34.9167 47.8125 35.625C47.1042 36.3333 46.75 37.3333 46.75 38.625V61.4375H42.75C41.875 61.4375 41.1458 61.7292 40.5625 62.3125C39.9792 62.8542 39.6875 63.5833 39.6875 64.5Z" fill="white"/>
</svg>
