<svg width="129" height="143" viewBox="0 0 129 143" fill="none" xmlns="http://www.w3.org/2000/svg">
<path d="M64.125 113.688C74.125 113.688 83.0625 112.646 90.9375 110.562C98.8542 108.479 105.562 105.583 111.062 101.875C116.604 98.1667 120.812 93.8958 123.688 89.0625C126.604 84.1875 128.062 78.9583 128.062 73.375C128.062 67.8333 126.604 62.625 123.688 57.75C120.812 52.875 116.604 48.6042 111.062 44.9375C105.521 41.2292 98.7917 38.3333 90.875 36.25C83 34.1667 74.0625 33.125 64.0625 33.125C54.1042 33.125 45.1667 34.1667 37.25 36.25C29.375 38.3333 22.6667 41.2292 17.125 44.9375C11.625 48.6042 7.41667 52.875 4.5 57.75C1.625 62.625 0.1875 67.8333 0.1875 73.375C0.1875 78.9583 1.625 84.1875 4.5 89.0625C7.41667 93.8958 11.625 98.1667 17.125 101.875C22.6667 105.583 29.375 108.479 37.25 110.562C45.1667 112.646 54.125 113.688 64.125 113.688ZM64.125 142.062C71.7083 142.062 77.625 140.375 81.875 137C86.1667 133.625 88.3125 128.938 88.3125 122.938V119.812C84.5208 120.562 80.6042 121.146 76.5625 121.562C72.5625 121.979 68.4167 122.188 64.125 122.188C59.875 122.188 55.7292 121.979 51.6875 121.562C47.6458 121.146 43.75 120.562 40 119.812V122.938C40 128.938 42.125 133.625 46.375 137C50.625 140.375 56.5417 142.062 64.125 142.062ZM55.5625 93.625C54.1458 93.625 53 93.1458 52.125 92.1875C51.25 91.1875 50.8125 89.9167 50.8125 88.375V56.1875C50.8125 54.6042 51.25 53.3542 52.125 52.4375C53 51.4792 54.1458 51 55.5625 51C57.0208 51 58.1875 51.4792 59.0625 52.4375C59.9792 53.3542 60.4375 54.6042 60.4375 56.1875V85.25H75.5C76.75 85.25 77.7708 85.6458 78.5625 86.4375C79.3542 87.1875 79.75 88.1875 79.75 89.4375C79.75 90.6458 79.3542 91.6458 78.5625 92.4375C77.7708 93.2292 76.75 93.625 75.5 93.625H55.5625ZM48.8125 7.75L61.3125 24.5C62.1458 25.6667 63.2292 26.25 64.5625 26.25C65.9375 26.25 67.0417 25.6667 67.875 24.5L80.375 7.75C81.625 6.08333 81.9375 4.39583 81.3125 2.6875C80.7292 0.979167 79.3333 0.125 77.125 0.125H52.0625C49.9375 0.125 48.5417 0.979167 47.875 2.6875C47.2083 4.35417 47.5208 6.04167 48.8125 7.75Z" fill="white"/>
</svg>
