<?xml version="1.0" encoding="UTF-8"?>
<svg xmlns="http://www.w3.org/2000/svg" xmlns:xlink="http://www.w3.org/1999/xlink" width="24" height="25.333333" viewBox="0 0 24 25.333333" version="1.1">
<g id="surface1">
<path style=" stroke:none;fill-rule:nonzero;fill:rgb(100%,100%,100%);fill-opacity:1;" d="M 12 19.59375 C 13.625 19.59375 15.097656 19.421875 16.417969 19.082031 C 17.734375 18.742188 18.863281 18.261719 19.800781 17.636719 C 20.746094 17.011719 21.472656 16.269531 21.980469 15.417969 C 22.484375 14.554688 22.738281 13.605469 22.738281 12.5625 C 22.738281 11.527344 22.484375 10.582031 21.980469 9.730469 C 21.472656 8.867188 20.746094 8.125 19.800781 7.5 C 18.859375 6.875 17.726562 6.390625 16.40625 6.050781 C 15.085938 5.710938 13.613281 5.542969 11.988281 5.542969 C 10.363281 5.542969 8.890625 5.710938 7.574219 6.050781 C 6.261719 6.390625 5.132812 6.875 4.1875 7.5 C 3.25 8.125 2.527344 8.867188 2.019531 9.730469 C 1.515625 10.582031 1.261719 11.527344 1.261719 12.5625 C 1.261719 13.605469 1.515625 14.554688 2.019531 15.417969 C 2.527344 16.269531 3.25 17.011719 4.1875 17.636719 C 5.132812 18.261719 6.265625 18.742188 7.582031 19.082031 C 8.902344 19.421875 10.375 19.59375 12 19.59375 Z M 12 17.800781 C 10.234375 17.800781 8.6875 17.582031 7.355469 17.144531 C 6.027344 16.703125 4.992188 16.085938 4.25 15.300781 C 3.515625 14.515625 3.144531 13.605469 3.144531 12.5625 C 3.144531 11.527344 3.515625 10.617188 4.25 9.832031 C 4.992188 9.042969 6.027344 8.425781 7.355469 7.988281 C 8.679688 7.550781 10.226562 7.332031 11.988281 7.332031 C 13.753906 7.332031 15.300781 7.550781 16.636719 7.988281 C 17.96875 8.425781 19.003906 9.042969 19.738281 9.832031 C 20.484375 10.617188 20.855469 11.527344 20.855469 12.5625 C 20.855469 13.605469 20.484375 14.515625 19.738281 15.300781 C 19.003906 16.085938 17.96875 16.703125 16.636719 17.144531 C 15.308594 17.582031 13.765625 17.800781 12 17.800781 Z M 12 24.011719 C 13.265625 24.011719 14.25 23.730469 14.957031 23.167969 C 15.671875 22.605469 16.03125 21.824219 16.03125 20.824219 L 16.03125 20.40625 C 15.414062 20.539062 14.765625 20.640625 14.09375 20.707031 C 13.421875 20.769531 12.722656 20.800781 12 20.800781 C 11.277344 20.800781 10.578125 20.769531 9.90625 20.707031 C 9.238281 20.640625 8.597656 20.539062 7.980469 20.40625 L 7.980469 20.824219 C 7.980469 21.824219 8.332031 22.605469 9.042969 23.167969 C 9.75 23.730469 10.734375 24.011719 12 24.011719 Z M 10.542969 15.824219 L 13.761719 15.824219 C 13.960938 15.824219 14.125 15.761719 14.25 15.636719 C 14.382812 15.511719 14.449219 15.351562 14.449219 15.15625 C 14.449219 14.953125 14.382812 14.792969 14.25 14.667969 C 14.125 14.542969 13.960938 14.480469 13.761719 14.480469 L 11.324219 14.480469 L 11.324219 9.78125 C 11.324219 9.515625 11.25 9.3125 11.105469 9.167969 C 10.964844 9.019531 10.777344 8.949219 10.542969 8.949219 C 10.3125 8.949219 10.125 9.023438 9.980469 9.175781 C 9.839844 9.324219 9.769531 9.523438 9.769531 9.78125 L 9.769531 14.988281 C 9.769531 15.238281 9.839844 15.441406 9.980469 15.59375 C 10.117188 15.746094 10.304688 15.824219 10.542969 15.824219 Z M 9.363281 1.625 L 11.449219 4.417969 C 11.585938 4.609375 11.765625 4.707031 11.988281 4.707031 C 12.21875 4.707031 12.402344 4.609375 12.542969 4.417969 L 14.625 1.625 C 14.832031 1.347656 14.886719 1.066406 14.78125 0.78125 C 14.683594 0.496094 14.453125 0.355469 14.082031 0.355469 L 9.90625 0.355469 C 9.550781 0.355469 9.320312 0.496094 9.207031 0.78125 C 9.097656 1.058594 9.148438 1.339844 9.363281 1.625 Z M 9.363281 1.625 "/>
</g>
</svg>
