<?xml version="1.0" encoding="UTF-8"?>
<svg xmlns="http://www.w3.org/2000/svg" xmlns:xlink="http://www.w3.org/1999/xlink" width="24" height="18" viewBox="0 0 24 18" version="1.1">
<g id="surface1">
<path style=" stroke:none;fill-rule:nonzero;fill:rgb(100%,100%,100%);fill-opacity:1;" d="M 8.726562 17.476562 L 15.28125 17.476562 C 17.136719 17.476562 18.660156 17.1875 19.847656 16.613281 C 21.039062 16.042969 21.917969 15.179688 22.480469 14.023438 C 23.050781 12.867188 23.335938 11.414062 23.335938 9.65625 L 23.335938 3.121094 C 23.335938 2.152344 23.085938 1.429688 22.59375 0.945312 C 22.105469 0.460938 21.371094 0.214844 20.390625 0.214844 L 3.609375 0.214844 C 2.628906 0.214844 1.890625 0.460938 1.398438 0.945312 C 0.910156 1.429688 0.664062 2.152344 0.664062 3.121094 L 0.664062 9.65625 C 0.664062 11.414062 0.949219 12.867188 1.519531 14.023438 C 2.085938 15.179688 2.964844 16.042969 4.152344 16.613281 C 5.339844 17.1875 6.867188 17.476562 8.726562 17.476562 Z M 10.210938 13.171875 C 9.960938 13.171875 9.769531 13.089844 9.636719 12.929688 C 9.507812 12.765625 9.441406 12.554688 9.441406 12.300781 L 9.441406 5.117188 C 9.441406 4.863281 9.507812 4.652344 9.636719 4.492188 C 9.769531 4.320312 9.960938 4.238281 10.210938 4.238281 C 10.464844 4.238281 10.660156 4.320312 10.789062 4.480469 C 10.921875 4.636719 10.988281 4.851562 10.988281 5.117188 L 10.988281 11.898438 L 14.652344 11.898438 C 14.847656 11.898438 15.003906 11.953125 15.121094 12.066406 C 15.246094 12.179688 15.308594 12.335938 15.308594 12.535156 C 15.308594 12.734375 15.246094 12.890625 15.121094 13.003906 C 15.003906 13.117188 14.847656 13.171875 14.652344 13.171875 Z M 10.210938 13.171875 "/>
</g>
</svg>
