<svg width="143" height="149" viewBox="0 0 143 149" fill="none" xmlns="http://www.w3.org/2000/svg">
<path d="M38.5625 37.4375C38.5625 39.1042 38.9375 40.6042 39.6875 41.9375C40.4792 43.2292 41.875 44.3333 43.875 45.25C47.2917 46.8333 51.4583 48.0833 56.375 49C61.3333 49.9167 66.4583 50.375 71.75 50.375C77.0833 50.375 82.2083 49.9167 87.125 49C92.0833 48.0833 96.2708 46.8333 99.6875 45.25C101.688 44.3333 103.062 43.2292 103.812 41.9375C104.604 40.6042 105 39.1042 105 37.4375C105 32.8542 103.625 28.7083 100.875 25C98.125 21.25 94.25 18.2708 89.25 16.0625C84.2917 13.8542 78.4583 12.75 71.75 12.75C65.0833 12.75 59.25 13.8542 54.25 16.0625C49.2917 18.2708 45.4375 21.25 42.6875 25C39.9375 28.7083 38.5625 32.8542 38.5625 37.4375ZM16.875 92.5625C16.875 102.646 18.7083 111.667 22.375 119.625C26.0833 127.542 31.25 133.979 37.875 138.938C44.5417 143.938 52.3542 147 61.3125 148.125C63.4375 148.375 65.0208 148.125 66.0625 147.375C67.1458 146.667 67.6875 145.5 67.6875 143.875V72.75C67.6875 71.625 68.0833 70.6667 68.875 69.875C69.6667 69.0833 70.625 68.6875 71.75 68.6875C72.875 68.6875 73.8333 69.0833 74.625 69.875C75.4583 70.6667 75.875 71.625 75.875 72.75V143.875C75.875 145.5 76.3958 146.667 77.4375 147.375C78.5208 148.125 80.125 148.375 82.25 148.125C91.2083 147 99 143.938 105.625 138.938C112.292 133.979 117.458 127.542 121.125 119.625C124.833 111.667 126.688 102.646 126.688 92.5625C126.688 88.0625 126.146 83.2708 125.062 78.1875C123.979 73.1042 122.458 68.375 120.5 64C118.542 59.5833 116.229 56.125 113.562 53.625C111.521 51.75 109.833 50.7083 108.5 50.5C107.167 50.25 105.917 50.375 104.75 50.875C100.125 52.9583 94.9792 54.6042 89.3125 55.8125C83.6458 57.0208 77.7917 57.625 71.75 57.625C65.75 57.625 59.9167 57.0208 54.25 55.8125C48.5833 54.6042 43.4375 52.9583 38.8125 50.875C37.6458 50.375 36.3958 50.25 35.0625 50.5C33.7292 50.7083 32.0417 51.75 30 53.625C27.3333 56.125 25.0208 59.5833 23.0625 64C21.1042 68.375 19.5833 73.1042 18.5 78.1875C17.4167 83.2708 16.875 88.0625 16.875 92.5625ZM47.4375 80.6875C45.2292 80.6875 43.3333 79.8958 41.75 78.3125C40.2083 76.6875 39.4375 74.7917 39.4375 72.625C39.4375 70.4167 40.2083 68.5208 41.75 66.9375C43.3333 65.3542 45.2292 64.5625 47.4375 64.5625C49.6458 64.5625 51.5417 65.3542 53.125 66.9375C54.7083 68.5208 55.5 70.4167 55.5 72.625C55.5 74.7917 54.7083 76.6875 53.125 78.3125C51.5417 79.8958 49.6458 80.6875 47.4375 80.6875ZM40.75 107.562C38.1667 107.562 35.9583 106.646 34.125 104.812C32.2917 102.979 31.375 100.75 31.375 98.125C31.375 95.5833 32.2917 93.3958 34.125 91.5625C35.9583 89.7292 38.1667 88.8125 40.75 88.8125C43.2917 88.8125 45.4792 89.7292 47.3125 91.5625C49.1875 93.3958 50.125 95.5833 50.125 98.125C50.125 100.75 49.1875 102.979 47.3125 104.812C45.4792 106.646 43.2917 107.562 40.75 107.562ZM48.6875 130.438C46.7708 130.438 45.1458 129.771 43.8125 128.438C42.4792 127.104 41.8125 125.479 41.8125 123.562C41.8125 121.646 42.4792 120.021 43.8125 118.688C45.1458 117.354 46.7708 116.688 48.6875 116.688C50.6042 116.688 52.2292 117.354 53.5625 118.688C54.9375 120.021 55.625 121.646 55.625 123.562C55.625 125.479 54.9375 127.104 53.5625 128.438C52.2292 129.771 50.6042 130.438 48.6875 130.438ZM96.125 80.6875C93.9167 80.6875 92.0208 79.8958 90.4375 78.3125C88.8542 76.6875 88.0625 74.7917 88.0625 72.625C88.0625 70.4167 88.8542 68.5208 90.4375 66.9375C92.0208 65.3542 93.9167 64.5625 96.125 64.5625C98.3333 64.5625 100.208 65.3542 101.75 66.9375C103.333 68.5208 104.125 70.4167 104.125 72.625C104.125 74.7917 103.333 76.6875 101.75 78.3125C100.208 79.8958 98.3333 80.6875 96.125 80.6875ZM102.812 107.562C100.229 107.562 98.0208 106.646 96.1875 104.812C94.3542 102.979 93.4375 100.75 93.4375 98.125C93.4375 95.5833 94.3542 93.3958 96.1875 91.5625C98.0208 89.7292 100.229 88.8125 102.812 88.8125C105.396 88.8125 107.604 89.7292 109.438 91.5625C111.271 93.3958 112.188 95.5833 112.188 98.125C112.188 100.75 111.271 102.979 109.438 104.812C107.604 106.646 105.396 107.562 102.812 107.562ZM94.875 130.438C92.9583 130.438 91.3125 129.771 89.9375 128.438C88.6042 127.104 87.9375 125.479 87.9375 123.562C87.9375 121.646 88.6042 120.021 89.9375 118.688C91.3125 117.354 92.9583 116.688 94.875 116.688C96.7917 116.688 98.4167 117.354 99.75 118.688C101.083 120.021 101.75 121.646 101.75 123.562C101.75 125.479 101.083 127.104 99.75 128.438C98.4167 129.771 96.7917 130.438 94.875 130.438ZM44.25 9.875L48.5 11.4375C49.8333 11.8958 50.7708 12.5 51.3125 13.25C51.8542 14 52 14.9167 51.75 16L51 19.1875L60.1875 19.125L60.625 15.9375C60.9583 12.8958 60.4167 10.2917 59 8.125C57.625 5.91667 55.3958 4.27083 52.3125 3.1875L47.375 1.1875C45.8333 0.645833 44.5208 0.708333 43.4375 1.375C42.3542 2 41.6042 2.89583 41.1875 4.0625C40.8125 5.22917 40.8542 6.375 41.3125 7.5C41.7708 8.625 42.75 9.41667 44.25 9.875ZM99.3125 9.875C100.812 9.41667 101.792 8.625 102.25 7.5C102.708 6.375 102.729 5.22917 102.312 4.0625C101.938 2.89583 101.208 2 100.125 1.375C99.0417 0.708333 97.7292 0.645833 96.1875 1.1875L91.25 3.1875C88.1667 4.27083 85.9167 5.91667 84.5 8.125C83.0833 10.2917 82.5625 12.8958 82.9375 15.9375L83.375 19.125L92.5625 19.1875L91.8125 16C91.5625 14.9167 91.7083 14 92.25 13.25C92.7917 12.5 93.7292 11.8958 95.0625 11.4375L99.3125 9.875ZM32.8125 54.875L21.1875 45.0625C20.0208 44.0625 18.75 43.5417 17.375 43.5C16.0417 43.4583 14.8958 44 13.9375 45.125C12.9792 46.2917 12.6458 47.5625 12.9375 48.9375C13.2292 50.2708 13.9375 51.4167 15.0625 52.375L26.8125 62.25L32.8125 54.875ZM21.4375 84.4375H6.0625C4.52083 84.4375 3.27083 84.875 2.3125 85.75C1.39583 86.625 0.9375 87.7917 0.9375 89.25C0.9375 90.6667 1.39583 91.8125 2.3125 92.6875C3.27083 93.5625 4.54167 94 6.125 94L21.4375 93.9375V84.4375ZM26.5 121L14.8125 130.75C13.6875 131.708 12.9792 132.854 12.6875 134.188C12.4375 135.562 12.7917 136.812 13.75 137.938C14.7083 139.104 15.8542 139.667 17.1875 139.625C18.5625 139.583 19.8333 139.062 21 138.062L32.5 128.312L26.5 121ZM110.75 54.875L116.75 62.25L128.5 52.375C129.625 51.4167 130.312 50.2708 130.562 48.9375C130.854 47.5625 130.542 46.2917 129.625 45.125C128.667 44 127.5 43.4583 126.125 43.5C124.792 43.5417 123.542 44.0625 122.375 45.0625L110.75 54.875ZM122.125 84.4375V93.9375L137.438 94C139.021 94 140.271 93.5625 141.188 92.6875C142.146 91.8125 142.625 90.6667 142.625 89.25C142.625 87.7917 142.146 86.625 141.188 85.75C140.271 84.875 139.042 84.4375 137.5 84.4375H122.125ZM117.062 121L111 128.312L122.562 138.062C123.729 139.062 124.979 139.583 126.312 139.625C127.688 139.667 128.854 139.104 129.812 137.938C130.771 136.812 131.104 135.562 130.812 134.188C130.562 132.854 129.854 131.708 128.688 130.75L117.062 121Z" fill="white"/>
</svg>
