<svg xmlns="http://www.w3.org/2000/svg" width="24" height="24"><path style="stroke:none;fill-rule:nonzero;fill:#fff;fill-opacity:1" d="M11.988 23.523c1.375 0 2.621-.21 3.742-.628a8.152 8.152 0 0 0 2.895-1.817 8.05 8.05 0 0 0 1.863-2.812c.438-1.098.657-2.317.657-3.653 0-.984-.145-1.96-.438-2.93a10.532 10.532 0 0 0-1.25-2.71 9.141 9.141 0 0 0-1.906-2.184c-.004-.914-.242-1.695-.707-2.348-.457-.66-1.106-1.164-1.938-1.511-.828-.348-1.797-.52-2.918-.52-1.11 0-2.082.176-2.914.531-.828.348-1.472.852-1.937 1.512-.461.652-.692 1.43-.7 2.344A9.765 9.765 0 0 0 4.52 8.973c-.54.843-.954 1.754-1.239 2.703a10.004 10.004 0 0 0-.437 2.937c0 1.336.215 2.555.644 3.653a8.006 8.006 0 0 0 1.867 2.812 8.263 8.263 0 0 0 2.895 1.817c1.125.418 2.371.628 3.738.628Zm0-14.386c.926 0 1.813-.075 2.668-.227.86-.16 1.59-.363 2.188-.61.43.427.851.954 1.261 1.579.41.625.747 1.34 1.008 2.14a8.15 8.15 0 0 1 .399 2.594c0 1.477-.313 2.766-.938 3.871a6.537 6.537 0 0 1-2.637 2.575c-1.124.62-2.44.925-3.949.925-1.5 0-2.816-.304-3.945-.925a6.636 6.636 0 0 1-2.637-2.575c-.625-1.105-.937-2.394-.937-3.87 0-.934.133-1.794.394-2.583a9.119 9.119 0 0 1 1.012-2.133 9.553 9.553 0 0 1 1.27-1.597c.59.246 1.316.449 2.18.61.859.152 1.75.226 2.663.226Zm-.718 13.285h1.367V10.996a.583.583 0 0 0-.211-.457.65.65 0 0 0-.477-.187.676.676 0 0 0-.48.187.61.61 0 0 0-.2.457Zm-2.602-9.828c.36 0 .668-.121.926-.367.258-.25.386-.547.386-.887 0-.34-.128-.625-.386-.871a1.295 1.295 0 0 0-.926-.375c-.363 0-.672.129-.93.375-.25.246-.375.531-.375.87 0 .34.125.638.375.888.258.246.567.367.93.367ZM7.426 16.5c.406.004.793-.148 1.074-.426.297-.281.45-.625.45-1.023a1.374 1.374 0 0 0-.45-1.031 1.518 1.518 0 0 0-1.074-.422c-.41-.004-.801.148-1.09.422-.29.273-.453.644-.45 1.03 0 .4.15.743.446 1.024.309.281.672.426 1.094.426Zm1.242 3.375c.332 0 .617-.113.852-.336a1.05 1.05 0 0 0 .367-.809c0-.324-.121-.597-.367-.82a1.195 1.195 0 0 0-.852-.336c-.336 0-.621.113-.855.336-.231.215-.36.512-.356.82 0 .317.121.586.356.81.234.222.519.335.855.335Zm6.656-7.281c.36 0 .664-.121.914-.367.258-.25.387-.547.387-.887 0-.34-.129-.625-.387-.871a1.253 1.253 0 0 0-.914-.375 1.3 1.3 0 0 0-.937.375c-.25.246-.375.531-.375.87 0 .34.129.638.383.888.257.246.566.367.93.367Zm1.239 3.906c.406.008.8-.148 1.082-.426.308-.281.46-.625.46-1.023 0-.403-.152-.742-.46-1.028a1.51 1.51 0 0 0-1.082-.421c-.418 0-.778.14-1.083.421-.3.282-.449.625-.449 1.028 0 .398.149.742.45 1.023.285.278.675.43 1.082.426Zm-1.239 3.375c.332 0 .617-.113.852-.336.238-.223.355-.492.355-.809 0-.324-.117-.597-.355-.82a1.195 1.195 0 0 0-.852-.336c-.34 0-.629.113-.867.336-.23.215-.36.512-.352.82 0 .317.118.586.352.81.238.222.527.335.867.335ZM7.406 1.765l.707.247c.223.074.38.168.469.285a.51.51 0 0 1 .074.445l-.125.496 1.531-.011.075-.504c.054-.48-.035-.891-.274-1.23C9.637 1.144 9.266.886 8.75.71L7.926.395c-.254-.083-.473-.079-.656.03a.79.79 0 0 0-.375.423.726.726 0 0 0 .023.543c.074.18.238.304.488.375Zm9.176 0c.25-.07.414-.195.492-.374a.707.707 0 0 0 .008-.543.728.728 0 0 0-.363-.422c-.18-.11-.399-.113-.657-.031l-.824.316c-.511.176-.886.434-1.125.781-.234.34-.32.75-.258 1.23l.07.505 1.532.011-.125-.496c-.039-.176-.016-.324.074-.445.09-.117.246-.211.469-.285ZM5.5 8.626 3.562 7.066a1.05 1.05 0 0 0-.636-.238c-.223-.012-.41.074-.57.258a.646.646 0 0 0-.168.594c.046.21.167.386.355.539l1.969 1.57Zm-1.895 4.656-2.562.012c-.258 0-.465.07-.625.207a.694.694 0 0 0-.23.543c0 .23.078.414.23.55.16.141.371.212.633.212l2.554-.012Zm.844 5.774L2.5 20.605a.985.985 0 0 0-.355.543c-.04.215.02.415.18.594.16.18.347.27.57.254.23-.008.44-.086.636-.234l1.918-1.54ZM18.48 8.625l1 1.164 1.97-1.57a.916.916 0 0 0 .343-.54.653.653 0 0 0-.156-.593.702.702 0 0 0-.586-.258c-.223.008-.43.086-.625.238Zm1.907 4.656v1.512l2.55.012c.266 0 .473-.07.625-.211a.686.686 0 0 0 .239-.551.688.688 0 0 0-.238-.543c-.153-.137-.36-.207-.614-.207Zm-.856 5.774-1 1.156 1.926 1.55c.195.15.402.227.625.235a.695.695 0 0 0 .586-.254.634.634 0 0 0 .164-.594.899.899 0 0 0-.352-.543Zm0 0"/></svg>