<?xml version="1.0" encoding="UTF-8"?>
<svg xmlns="http://www.w3.org/2000/svg" xmlns:xlink="http://www.w3.org/1999/xlink" width="24" height="28.5" viewBox="0 0 24 28.5" version="1.1">
<g id="surface1">
<path style=" stroke:none;fill-rule:nonzero;fill:rgb(100%,100%,100%);fill-opacity:1;" d="M 13.464844 15.222656 L 22.582031 6.105469 C 22.957031 5.730469 23.15625 5.328125 23.179688 4.898438 C 23.210938 4.460938 23.101562 4.0625 22.851562 3.703125 C 22.601562 3.34375 22.242188 3.09375 21.773438 2.953125 C 20.578125 2.5625 19.339844 2.308594 18.058594 2.191406 C 16.777344 2.066406 15.414062 2.046875 13.96875 2.132812 L 13.605469 1.746094 C 13.175781 1.292969 12.691406 0.988281 12.152344 0.832031 C 11.621094 0.667969 11.085938 0.65625 10.546875 0.796875 C 10.007812 0.9375 9.507812 1.234375 9.046875 1.6875 C 8.601562 2.148438 8.304688 2.65625 8.15625 3.210938 C 8.015625 3.757812 8.023438 4.300781 8.179688 4.839844 C 8.34375 5.371094 8.652344 5.84375 9.105469 6.257812 L 9.492188 6.621094 C 9.414062 8.058594 9.433594 9.414062 9.550781 10.6875 C 9.667969 11.960938 9.914062 13.199219 10.289062 14.402344 C 10.4375 14.871094 10.691406 15.234375 11.050781 15.492188 C 11.410156 15.75 11.808594 15.863281 12.246094 15.832031 C 12.683594 15.800781 13.089844 15.597656 13.464844 15.222656 Z M 12.304688 14.050781 C 12.210938 14.144531 12.121094 14.175781 12.035156 14.144531 C 11.957031 14.105469 11.875 13.949219 11.789062 13.675781 C 11.46875 12.652344 11.257812 11.554688 11.15625 10.382812 C 11.0625 9.210938 11.066406 7.925781 11.167969 6.527344 C 11.191406 6.128906 11.046875 5.789062 10.734375 5.507812 L 10.21875 5.039062 C 9.890625 4.734375 9.722656 4.386719 9.714844 3.996094 C 9.707031 3.597656 9.875 3.214844 10.21875 2.847656 C 10.578125 2.503906 10.953125 2.335938 11.34375 2.34375 C 11.742188 2.34375 12.097656 2.515625 12.410156 2.859375 L 12.878906 3.375 C 13.167969 3.695312 13.527344 3.835938 13.957031 3.796875 C 15.332031 3.710938 16.601562 3.71875 17.765625 3.820312 C 18.9375 3.914062 20.035156 4.125 21.058594 4.453125 C 21.316406 4.53125 21.460938 4.609375 21.492188 4.6875 C 21.53125 4.765625 21.507812 4.847656 21.421875 4.933594 Z M 17.472656 14.039062 C 18.191406 14.039062 18.847656 13.863281 19.441406 13.511719 C 20.035156 13.160156 20.507812 12.6875 20.859375 12.09375 C 21.21875 11.5 21.398438 10.847656 21.398438 10.136719 C 21.398438 9.628906 21.300781 9.136719 21.105469 8.660156 C 20.910156 8.183594 20.625 7.753906 20.25 7.371094 L 19.394531 9.011719 C 19.503906 9.175781 19.585938 9.355469 19.640625 9.550781 C 19.703125 9.738281 19.734375 9.933594 19.734375 10.136719 C 19.734375 10.761719 19.507812 11.292969 19.054688 11.730469 C 18.609375 12.167969 18.082031 12.386719 17.472656 12.386719 C 17.269531 12.386719 17.070312 12.359375 16.875 12.304688 C 16.679688 12.242188 16.5 12.160156 16.335938 12.058594 L 14.847656 13.042969 C 15.214844 13.371094 15.625 13.621094 16.078125 13.792969 C 16.53125 13.957031 16.996094 14.039062 17.472656 14.039062 Z M 9.140625 3.035156 L 10.347656 1.746094 L 8.917969 0.328125 C 8.746094 0.148438 8.539062 0.0625 8.296875 0.0703125 C 8.054688 0.0703125 7.847656 0.15625 7.675781 0.328125 C 7.511719 0.492188 7.425781 0.695312 7.417969 0.9375 C 7.417969 1.179688 7.503906 1.386719 7.675781 1.558594 Z M 3.023438 16.277344 L 10.441406 9.457031 L 9.914062 7.394531 L 1.746094 14.90625 Z M 2.636719 17.179688 C 3.144531 17.179688 3.574219 17.003906 3.925781 16.652344 C 4.285156 16.300781 4.464844 15.867188 4.464844 15.351562 C 4.464844 14.84375 4.285156 14.414062 3.925781 14.0625 C 3.574219 13.703125 3.144531 13.523438 2.636719 13.523438 C 2.121094 13.523438 1.6875 13.703125 1.335938 14.0625 C 0.984375 14.414062 0.808594 14.84375 0.808594 15.351562 C 0.808594 15.867188 0.984375 16.300781 1.335938 16.652344 C 1.6875 17.003906 2.121094 17.179688 2.636719 17.179688 Z M 7.394531 21.339844 L 8.730469 20.003906 L 2.90625 14.214844 L 1.582031 15.539062 Z M 7.746094 22.558594 C 8.261719 22.558594 8.695312 22.390625 9.046875 22.054688 C 9.398438 21.710938 9.574219 21.269531 9.574219 20.730469 C 9.574219 20.222656 9.394531 19.792969 9.035156 19.441406 C 8.683594 19.082031 8.253906 18.902344 7.746094 18.902344 C 7.230469 18.902344 6.796875 19.082031 6.445312 19.441406 C 6.09375 19.792969 5.917969 20.222656 5.917969 20.730469 C 5.917969 21.246094 6.09375 21.679688 6.445312 22.03125 C 6.796875 22.382812 7.230469 22.558594 7.746094 22.558594 Z M 6.796875 26.4375 L 8.683594 26.4375 L 8.683594 20.777344 L 6.796875 20.777344 Z M 2.15625 28.089844 L 14.625 28.089844 C 14.84375 28.089844 15.019531 28.019531 15.152344 27.878906 C 15.285156 27.738281 15.351562 27.550781 15.351562 27.316406 C 15.351562 26.878906 15.175781 26.519531 14.824219 26.238281 C 14.472656 25.957031 14 25.816406 13.40625 25.816406 L 3.375 25.816406 C 2.78125 25.816406 2.308594 25.957031 1.957031 26.238281 C 1.605469 26.519531 1.429688 26.878906 1.429688 27.316406 C 1.429688 27.550781 1.496094 27.738281 1.628906 27.878906 C 1.761719 28.019531 1.9375 28.089844 2.15625 28.089844 Z M 2.15625 28.089844 "/>
</g>
</svg>
