<svg xmlns="http://www.w3.org/2000/svg" width="24" height="24"><path style="stroke:none;fill-rule:nonzero;fill:#fff;fill-opacity:1" d="M12.012 5.781c.718 0 1.394-.082 2.027-.246a6.485 6.485 0 0 0 1.723-.7 4.69 4.69 0 0 0 1.277-1.073c.336-.422.563-.887.68-1.395.086-.406.015-.754-.211-1.047-.227-.293-.578-.496-1.055-.61a18.265 18.265 0 0 0-2.168-.335 21.929 21.929 0 0 0-4.547 0c-.75.07-1.468.184-2.156.336-.484.113-.84.316-1.066.61-.22.292-.286.64-.2 1.046.11.508.332.973.668 1.395.344.414.77.77 1.278 1.074a6.55 6.55 0 0 0 1.722.7c.641.163 1.317.245 2.028.245Zm-.938 4.008h1.887V4.992h-1.887ZM12 23.508c2.266 0 4.246-.184 5.941-.543 1.704-.356 3.024-.856 3.961-1.5.938-.645 1.403-1.395 1.395-2.25v-.13c-.024-.64-.203-1.3-.54-1.983a8.536 8.536 0 0 0-1.359-1.993 11.342 11.342 0 0 0-1.992-1.785c-.734-.539-1.55-.992-2.426-1.355a4.018 4.018 0 0 0-1.066-1.645 5.154 5.154 0 0 0-1.758-1.105A5.659 5.659 0 0 0 12 8.813c-.766 0-1.488.136-2.168.406a5.315 5.315 0 0 0-1.758 1.105A4.055 4.055 0 0 0 7.02 11.97c-.86.355-1.665.804-2.415 1.344a11.86 11.86 0 0 0-1.992 1.765 9.169 9.169 0 0 0-1.36 1.985c-.335.675-.519 1.335-.55 1.972v.18c-.015.855.445 1.605 1.383 2.25.937.644 2.254 1.144 3.95 1.5 1.702.363 3.69.543 5.964.543Zm-9.656-4.293c.008-.594.414-1.106 1.219-1.54.804-.44 1.93-.78 3.374-1.019 1.446-.242 3.133-.363 5.063-.363 1.938 0 3.629.121 5.074.363 1.446.239 2.57.578 3.375 1.02.805.433 1.207.945 1.207 1.539 0 .586-.402 1.094-1.207 1.527-.804.442-1.93.781-3.375 1.02-1.445.242-3.137.363-5.074.363-1.93 0-3.617-.121-5.063-.363-1.445-.239-2.57-.578-3.375-1.02-.804-.433-1.21-.941-1.218-1.527Zm9.656.738c.703 0 1.371-.113 2.004-.336.64-.215 1.16-.508 1.559-.879.406-.37.609-.785.609-1.23A32.375 32.375 0 0 0 12 17.25a33.34 33.34 0 0 0-4.172.258c0 .445.2.86.598 1.23.398.371.914.664 1.547.88.644.226 1.332.339 2.027.335Zm0 0"/></svg>