<svg xmlns="http://www.w3.org/2000/svg" width="24" height="24"><path style="stroke:none;fill-rule:nonzero;fill:#fff;fill-opacity:1" d="M12 12.168a98.79 98.79 0 0 0 4.34-.094c1.418-.062 2.73-.16 3.937-.289.938-.098 1.563-.367 1.875-.816.313-.453.266-1.012-.132-1.656l-3.98-6.274a3.784 3.784 0 0 0-1.688-1.473c-.696-.32-1.57-.476-2.625-.476h-3.47c-1.042 0-1.917.156-2.624.476A3.726 3.726 0 0 0 5.96 3.04L1.98 9.31c-.399.648-.446 1.207-.133 1.66.312.449.937.719 1.875.816 1.195.13 2.504.227 3.925.29 1.426.062 2.88.093 4.352.093Zm0-1.379c-1.215 0-2.441-.023-3.684-.074a89.785 89.785 0 0 1-3.843-.235c-.375-.03-.602-.117-.684-.261-.07-.153-.027-.352.137-.61l3.8-6.007c.25-.387.583-.676.993-.864.418-.187.933-.281 1.539-.281h3.469c.617 0 1.128.094 1.543.281.418.188.753.477 1.003.864l3.801 6.007c.164.258.203.457.121.61-.078.144-.3.23-.668.261-2.5.207-5.011.31-7.527.31Zm-1.125 2.777h2.238v-1.812h-2.238Zm-.938 10.207h4.114c1.722 0 3.066-.296 4.031-.89.973-.586 1.457-1.406 1.457-2.465 0-.66-.14-1.457-.426-2.39a18.014 18.014 0 0 0-1.195-2.887c-.3-.575-.773-1.024-1.418-1.34-.633-.324-1.41-.489-2.332-.489H9.816c-.918 0-1.699.165-2.343.489-.633.316-1.102.765-1.407 1.34a17.643 17.643 0 0 0-1.191 2.886c-.285.934-.43 1.73-.43 2.391 0 1.059.485 1.879 1.45 2.465.972.594 2.32.89 4.043.89Zm0-1.367c-1.117 0-1.988-.176-2.613-.527-.625-.348-.937-.836-.937-1.461 0-.594.136-1.313.402-2.156.27-.848.637-1.735 1.098-2.653a1.6 1.6 0 0 1 .699-.683c.32-.164.73-.246 1.23-.246h4.352c.5 0 .914.082 1.234.246.32.164.555.39.696.683.472.918.84 1.805 1.097 2.653.27.843.403 1.562.403 2.156 0 .625-.313 1.113-.938 1.46-.625.352-1.496.528-2.61.528Zm0 0"/></svg>