<svg xmlns="http://www.w3.org/2000/svg" width="24" height="24"><path style="stroke:none;fill-rule:nonzero;fill:#fff;fill-opacity:1" d="M13.242 12.277 22.477 4.5c.234-.191.351-.39.351-.602a.72.72 0 0 0-.27-.574c-.18-.168-.43-.297-.75-.383a17.012 17.012 0 0 0-2.308-.464 23.26 23.26 0 0 0-2.543-.188 38.265 38.265 0 0 0-2.918.04l-.621-.552c-.5-.449-1.07-.672-1.711-.672-.64-.007-1.227.208-1.758.641-.316.27-.55.602-.68.969a1.568 1.568 0 0 0 0 1.035c.118.34.356.648.715.918l.657.504a23.082 23.082 0 0 0-.059 2.437c.023.758.098 1.473.223 2.153.125.668.304 1.324.539 1.96.156.415.418.692.785.829.375.133.746.043 1.113-.274Zm-2.754-9.03L11.73 2.19 9.633.445A.901.901 0 0 0 9 .227c-.23 0-.45.078-.61.218a.677.677 0 0 0-.257.512c0 .203.086.379.258.523Zm8.051 8.41c.578 0 1.106-.126 1.582-.368a3.041 3.041 0 0 0 1.149-.965A2.22 2.22 0 0 0 21.703 9c.012-.64-.273-1.262-.797-1.727l-4.418 3.72c.563.429 1.293.663 2.051.663ZM3.387 13.577l8.894-6.887-1.289-1.144-8.883 6.879ZM3 14.34c.508 0 .938-.149 1.29-.445.358-.297.538-.66.538-1.094 0-.43-.18-.79-.539-1.086A1.91 1.91 0 0 0 3 11.262c-.516 0-.95.148-1.3.453-.345.285-.536.676-.528 1.086 0 .433.176.797.527 1.094.352.296.785.445 1.301.445Zm4.758 3.5 1.336-1.113-5.824-4.883-1.325 1.113Zm.351 1.027c.508 0 .938-.148 1.29-.441.359-.297.539-.664.539-1.098 0-.426-.18-.789-.54-1.086a1.91 1.91 0 0 0-1.289-.453c-.515 0-.949.152-1.3.457a1.36 1.36 0 0 0-.528 1.082c0 .434.176.8.528 1.094.351.297.785.445 1.3.445Zm-.949 3.266h1.887v-4.766H7.16Zm-4.64 1.394h12.468c.219 0 .395-.058.528-.18a.602.602 0 0 0 .199-.472c.008-.355-.188-.695-.527-.906-.352-.239-.825-.356-1.418-.356H3.738c-.593 0-1.066.117-1.418.356-.34.21-.535.55-.527.906 0 .195.066.355.2.473.132.12.308.18.527.18Zm0 0"/></svg>