<svg width="16" height="19" viewBox="0 0 16 19" fill="none" xmlns="http://www.w3.org/2000/svg">
<path d="M8.82812 9.71875L14.9844 3.5625C15.1406 3.41146 15.2188 3.2526 15.2188 3.08594C15.224 2.91927 15.1641 2.76823 15.0391 2.63281C14.9193 2.4974 14.7526 2.39583 14.5391 2.32812C14.0443 2.16667 13.5312 2.04427 13 1.96094C12.4688 1.8776 11.9036 1.82812 11.3047 1.8125C10.7057 1.79167 10.0573 1.80208 9.35938 1.84375L8.94531 1.40625C8.61198 1.05208 8.23177 0.875 7.80469 0.875C7.3776 0.869792 6.98698 1.03906 6.63281 1.38281C6.40885 1.61719 6.25781 1.8724 6.17969 2.14844C6.10156 2.42448 6.10156 2.69792 6.17969 2.96875C6.25781 3.23958 6.41667 3.48177 6.65625 3.69531L7.09375 4.09375C7.05208 4.78125 7.03906 5.42448 7.05469 6.02344C7.07031 6.6224 7.11979 7.1901 7.20312 7.72656C7.28646 8.25781 7.40625 8.77604 7.5625 9.28125C7.66667 9.60938 7.84115 9.82812 8.08594 9.9375C8.33594 10.0417 8.58333 9.96875 8.82812 9.71875ZM6.99219 2.57031L7.82031 1.73438L6.42188 0.351562C6.30208 0.231771 6.16146 0.174479 6 0.179688C5.84375 0.179688 5.70833 0.236979 5.59375 0.351562C5.48438 0.460938 5.42708 0.596354 5.42188 0.757812C5.42188 0.919271 5.47917 1.05729 5.59375 1.17188L6.99219 2.57031ZM12.3594 9.22656C12.7448 9.22656 13.0964 9.13021 13.4141 8.9375C13.737 8.74479 13.9922 8.48958 14.1797 8.17188C14.3724 7.85417 14.4688 7.50521 14.4688 7.125C14.4688 6.59896 14.2917 6.14323 13.9375 5.75781L10.9922 8.70312C11.1849 8.875 11.3984 9.00521 11.6328 9.09375C11.8672 9.18229 12.1094 9.22656 12.3594 9.22656ZM2.25781 10.75L8.1875 5.29688L7.32812 4.39062L1.40625 9.83594L2.25781 10.75ZM2 11.3516C2.33854 11.3516 2.625 11.2344 2.85938 11C3.09896 10.7656 3.21875 10.4766 3.21875 10.1328C3.21875 9.79427 3.09896 9.50781 2.85938 9.27344C2.625 9.03385 2.33854 8.91406 2 8.91406C1.65625 8.91406 1.36719 9.03385 1.13281 9.27344C0.898438 9.50781 0.78125 9.79427 0.78125 10.1328C0.78125 10.4766 0.898438 10.7656 1.13281 11C1.36719 11.2344 1.65625 11.3516 2 11.3516ZM5.17188 14.125L6.0625 13.2422L2.17969 9.375L1.29688 10.2578L5.17188 14.125ZM5.40625 14.9375C5.74479 14.9375 6.03125 14.8203 6.26562 14.5859C6.50521 14.3516 6.625 14.0625 6.625 13.7188C6.625 13.3802 6.50521 13.0938 6.26562 12.8594C6.03125 12.6198 5.74479 12.5 5.40625 12.5C5.0625 12.5 4.77344 12.6198 4.53906 12.8594C4.30469 13.0938 4.1875 13.3802 4.1875 13.7188C4.1875 14.0625 4.30469 14.3516 4.53906 14.5859C4.77344 14.8203 5.0625 14.9375 5.40625 14.9375ZM4.77344 17.5234H6.03125V13.75H4.77344V17.5234ZM1.67969 18.625H9.99219C10.138 18.625 10.2552 18.5781 10.3438 18.4844C10.4323 18.3906 10.4766 18.2656 10.4766 18.1094C10.4766 17.8177 10.3594 17.5781 10.125 17.3906C9.89062 17.2031 9.57552 17.1094 9.17969 17.1094H2.49219C2.09635 17.1094 1.78125 17.2031 1.54688 17.3906C1.3125 17.5781 1.19531 17.8177 1.19531 18.1094C1.19531 18.2656 1.23958 18.3906 1.32812 18.4844C1.41667 18.5781 1.53385 18.625 1.67969 18.625Z" fill="white"/>
</svg>
