<svg xmlns="http://www.w3.org/2000/svg" width="24" height="24"><path style="stroke:none;fill-rule:nonzero;fill:#fff;fill-opacity:1" d="M1.594 20.387c0 1.09.343 1.906 1.031 2.445.695.543 1.738.813 3.121.813H18.27c1.375 0 2.406-.27 3.093-.813.696-.539 1.043-1.355 1.043-2.445V4.586c0-1.086-.347-1.902-1.043-2.45-.687-.55-1.718-.824-3.093-.824H5.746c-1.383 0-2.426.274-3.121.825-.688.547-1.031 1.363-1.031 2.449Zm2.156-.035V4.617c0-.523.176-.922.523-1.199.356-.285.883-.43 1.579-.43h12.296c.696 0 1.22.145 1.567.43.355.277.535.676.535 1.2v15.734c0 .523-.18.921-.535 1.203-.348.273-.871.414-1.567.414H5.852c-.696 0-1.223-.14-1.579-.414-.347-.282-.523-.68-.523-1.203ZM8.813 5.5h6.386c.242 0 .45-.066.617-.2a.582.582 0 0 0 .254-.48.58.58 0 0 0-.254-.476.972.972 0 0 0-.617-.196H8.813a.98.98 0 0 0-.618.196.601.601 0 0 0-.254.476c0 .18.09.356.254.48.164.13.387.2.617.2Zm0 0"/></svg>