<svg width="182" height="121" viewBox="0 0 182 121" fill="none" xmlns="http://www.w3.org/2000/svg">
<path d="M8 120.812H174.125C176.083 120.812 177.75 120.104 179.125 118.688C180.5 117.312 181.188 115.646 181.188 113.688C181.188 111.729 180.5 110.062 179.125 108.688C177.75 107.271 176.083 106.562 174.125 106.562H8C6.04167 106.562 4.375 107.271 3 108.688C1.625 110.062 0.9375 111.729 0.9375 113.688C0.9375 115.646 1.625 117.312 3 118.688C4.375 120.104 6.04167 120.812 8 120.812ZM104.062 29.1875H144.375C146.375 29.1875 147.875 29.6875 148.875 30.6875C149.875 31.6875 150.375 33.1875 150.375 35.1875V111.188H160.438V32.375C160.438 28 159.292 24.7083 157 22.5C154.75 20.25 151.438 19.125 147.062 19.125H104.062V29.1875ZM78.0625 19.125H35.0625C30.9375 19.125 27.6667 20.25 25.25 22.5C22.875 24.7083 21.6875 28 21.6875 32.375V111.188H31.75V35.1875C31.75 33.1875 32.25 31.6875 33.25 30.6875C34.25 29.6875 35.75 29.1875 37.75 29.1875H78.0625V19.125ZM86.625 4.8125V54.5L87.1875 67.6875L75 54L71.375 50.4375C70.9583 50.0625 70.4583 49.75 69.875 49.5C69.3333 49.25 68.7292 49.125 68.0625 49.125C66.7708 49.125 65.7292 49.5417 64.9375 50.375C64.1458 51.1667 63.75 52.1667 63.75 53.375C63.75 54.7083 64.2083 55.8125 65.125 56.6875L87.6875 79.375C88.8125 80.4583 89.9375 81 91.0625 81C92.2292 81 93.3542 80.4583 94.4375 79.375L117 56.6875C117.917 55.8125 118.375 54.7083 118.375 53.375C118.375 52.1667 117.979 51.1667 117.188 50.375C116.396 49.5417 115.354 49.125 114.062 49.125C113.396 49.125 112.771 49.25 112.188 49.5C111.646 49.75 111.167 50.0625 110.75 50.4375L107.125 54L94.9375 67.6875L95.5625 54.5V4.8125C95.5625 3.4375 95.1042 2.35417 94.1875 1.5625C93.2708 0.729167 92.2292 0.3125 91.0625 0.3125C89.8958 0.3125 88.8542 0.729167 87.9375 1.5625C87.0625 2.35417 86.625 3.4375 86.625 4.8125Z" fill="white"/>
</svg>
