<svg width="175" height="104" viewBox="0 0 175 104" fill="none" xmlns="http://www.w3.org/2000/svg">
<path d="M21.6875 92.75H31.75V16.6875C31.75 14.6875 32.25 13.1875 33.25 12.1875C34.25 11.1875 35.75 10.6875 37.75 10.6875H159.812C159.562 7.35417 158.458 4.85417 156.5 3.1875C154.542 1.47917 151.833 0.625 148.375 0.625H35.0625C30.9375 0.625 27.6667 1.75 25.25 4C22.875 6.20833 21.6875 9.5 21.6875 13.875V92.75ZM8 102.312H117.812C115.979 99.3958 115.021 96.0625 114.938 92.3125C114.938 91.6042 114.917 90.8958 114.875 90.1875C114.875 89.4792 114.875 88.7708 114.875 88.0625H8C6.04167 88.0625 4.375 88.7708 3 90.1875C1.625 91.5625 0.9375 93.2292 0.9375 95.1875C0.9375 97.1458 1.625 98.8125 3 100.188C4.375 101.604 6.04167 102.312 8 102.312ZM134.312 103.125H162.812C166.688 103.125 169.688 102.104 171.812 100.062C173.938 98.0208 175 95.1458 175 91.4375V29.1875C175 25.4792 173.917 22.6042 171.75 20.5625C169.625 18.4792 166.646 17.4375 162.812 17.4375H134.312C130.438 17.4375 127.438 18.4792 125.312 20.5625C123.188 22.6042 122.125 25.4792 122.125 29.1875V91.4375C122.125 95.1458 123.188 98.0208 125.312 100.062C127.438 102.104 130.438 103.125 134.312 103.125ZM134.438 94.9375C133.062 94.9375 132.021 94.5833 131.312 93.875C130.646 93.125 130.312 92.0417 130.312 90.625V30C130.312 28.5833 130.646 27.5 131.312 26.75C132.021 26 133.062 25.625 134.438 25.625H140.125C140.375 25.625 140.5 25.75 140.5 26V26.5625C140.5 27.6458 140.833 28.5208 141.5 29.1875C142.167 29.8542 143.042 30.1875 144.125 30.1875H153C154.083 30.1875 154.958 29.8542 155.625 29.1875C156.292 28.5208 156.625 27.6458 156.625 26.5625V26C156.625 25.75 156.75 25.625 157 25.625H162.625C164 25.625 165.042 26 165.75 26.75C166.458 27.5 166.812 28.5833 166.812 30V90.625C166.812 92.0417 166.458 93.125 165.75 93.875C165.042 94.5833 164 94.9375 162.625 94.9375H134.438ZM140 91.75H157C158.458 91.75 159.188 91.0208 159.188 89.5625C159.188 88.9375 158.979 88.4375 158.562 88.0625C158.146 87.6458 157.625 87.4375 157 87.4375H140C139.375 87.4375 138.875 87.6458 138.5 88.0625C138.125 88.4375 137.938 88.9375 137.938 89.5625C137.938 91.0208 138.625 91.75 140 91.75Z" fill="white"/>
</svg>
