<svg width="128" height="128" viewBox="0 0 128 128" fill="none" xmlns="http://www.w3.org/2000/svg">
<path d="M63.9375 127.625C72.6458 127.625 80.8333 125.958 88.5 122.625C96.2083 119.292 103 114.688 108.875 108.812C114.75 102.938 119.354 96.1667 122.688 88.5C126.021 80.7917 127.688 72.5833 127.688 63.875C127.688 55.1667 126.021 46.9792 122.688 39.3125C119.354 31.6042 114.75 24.8125 108.875 18.9375C103 13.0625 96.2083 8.45833 88.5 5.125C80.7917 1.79167 72.5833 0.125 63.875 0.125C55.1667 0.125 46.9583 1.79167 39.25 5.125C31.5833 8.45833 24.8125 13.0625 18.9375 18.9375C13.1042 24.8125 8.52083 31.6042 5.1875 39.3125C1.85417 46.9792 0.1875 55.1667 0.1875 63.875C0.1875 72.5833 1.85417 80.7917 5.1875 88.5C8.52083 96.1667 13.125 102.938 19 108.812C24.875 114.688 31.6458 119.292 39.3125 122.625C47.0208 125.958 55.2292 127.625 63.9375 127.625ZM42.25 94.5625C41.125 94.5625 40.2292 94.2292 39.5625 93.5625C38.8958 92.8542 38.5625 91.9583 38.5625 90.875C38.5625 89.8333 38.9167 88.9792 39.625 88.3125C40.3333 87.6458 41.2292 87.3125 42.3125 87.3125H51.75C47.8333 84.7292 44.6875 81.1875 42.3125 76.6875C39.9375 72.1875 38.75 67.1667 38.75 61.625C38.75 55.2083 40.2083 49.7292 43.125 45.1875C46.0417 40.6458 50.0417 37.4583 55.125 35.625V29.9375C55.125 28.9792 55.4167 28.2083 56 27.625C56.625 27.0417 57.3958 26.75 58.3125 26.75C59.1875 26.75 59.9167 27.0417 60.5 27.625C61.125 28.2083 61.4375 28.9792 61.4375 29.9375V34.375C61.9792 34.3333 62.5417 34.2917 63.125 34.25C63.7083 34.2083 64.25 34.1875 64.75 34.1875C65.2083 34.1875 65.6458 34.2083 66.0625 34.25C66.5208 34.25 66.9792 34.2708 67.4375 34.3125V29.9375C67.4375 28.9792 67.7083 28.2083 68.25 27.625C68.8333 27.0417 69.5833 26.75 70.5 26.75C71.4167 26.75 72.1667 27.0417 72.75 27.625C73.375 28.2083 73.6875 28.9792 73.6875 29.9375V35.8125C76.8125 37.0208 79.5417 38.8333 81.875 41.25C84.2083 43.6667 86.0208 46.5208 87.3125 49.8125C88.6458 53.0625 89.3125 56.5833 89.3125 60.375C89.3125 61.5833 88.9375 62.5833 88.1875 63.375C87.4792 64.1667 86.5625 64.5625 85.4375 64.5625C84.2292 64.5625 83.25 64.1667 82.5 63.375C81.75 62.5833 81.3542 61.5625 81.3125 60.3125C81.2708 56.7292 80.5625 53.6042 79.1875 50.9375C77.8125 48.2292 75.9792 46.0833 73.6875 44.5V60.6875C73.6875 61.6042 73.375 62.3542 72.75 62.9375C72.1667 63.5208 71.4167 63.8125 70.5 63.8125C69.5833 63.8125 68.8333 63.5208 68.25 62.9375C67.7083 62.3542 67.4375 61.6042 67.4375 60.6875V42.125C67.0208 42.0417 66.5833 41.9792 66.125 41.9375C65.6667 41.8958 65.1875 41.875 64.6875 41.875C63.6458 41.875 62.5625 41.9583 61.4375 42.125V60.6875C61.4375 61.6042 61.1458 62.3542 60.5625 62.9375C59.9792 63.5208 59.2292 63.8125 58.3125 63.8125C57.3958 63.8125 56.625 63.5208 56 62.9375C55.4167 62.3542 55.125 61.6042 55.125 60.6875V44.3125C52.5417 45.9375 50.5417 48.2917 49.125 51.375C47.75 54.4167 47.0625 58.1458 47.0625 62.5625C47.0625 67.2708 48.1667 71.5 50.375 75.25C52.625 78.9583 55.6458 81.8958 59.4375 84.0625C63.2292 86.2292 67.5 87.3125 72.25 87.3125H82.1875C83.2292 87.3125 84.1042 87.6458 84.8125 88.3125C85.5208 88.9792 85.875 89.8333 85.875 90.875C85.875 91.9583 85.5208 92.8542 84.8125 93.5625C84.1458 94.2292 83.2708 94.5625 82.1875 94.5625H42.25Z" fill="white"/>
</svg>
