<svg width="20" height="16" viewBox="0 0 20 16" fill="none" xmlns="http://www.w3.org/2000/svg">
<path d="M0.953125 8.57031V7.39062H4.26562V7.1875C4.26562 6.61458 4.55208 6.32812 5.125 6.32812H7.0625C7.64062 6.32812 7.92969 6.61458 7.92969 7.1875V7.39062H12.0547V7.1875C12.0547 6.61458 12.3438 6.32812 12.9219 6.32812H14.8594C15.4375 6.32812 15.7266 6.61458 15.7266 7.1875V7.39062H19.0391V8.57031H15.7266V8.78906C15.7266 9.35677 15.4375 9.64062 14.8594 9.64062H12.9219C12.3438 9.64062 12.0547 9.35677 12.0547 8.78906V8.57031H7.92969V8.78906C7.92969 9.35677 7.64062 9.64062 7.0625 9.64062H5.125C4.55208 9.64062 4.26562 9.35677 4.26562 8.78906V8.57031H0.953125ZM3.36719 15.1641H16.625C17.4323 15.1641 18.0365 14.9661 18.4375 14.5703C18.8385 14.1745 19.0391 13.5781 19.0391 12.7812V5.17969C19.0391 4.3776 18.8385 3.78125 18.4375 3.39062C18.0365 2.99479 17.4323 2.79688 16.625 2.79688H3.36719C2.5651 2.79688 1.96094 2.99479 1.55469 3.39062C1.15365 3.78125 0.953125 4.3776 0.953125 5.17969V12.7812C0.953125 13.5781 1.15365 14.1745 1.55469 14.5703C1.96094 14.9661 2.5651 15.1641 3.36719 15.1641ZM6.03125 3.47656H7.24219V2.09375C7.24219 1.79688 7.32552 1.56771 7.49219 1.40625C7.65885 1.24479 7.89583 1.16406 8.20312 1.16406H11.7891C12.0911 1.16406 12.3255 1.24479 12.4922 1.40625C12.6589 1.56771 12.7422 1.79688 12.7422 2.09375V3.46094H13.9531V2.17969C13.9531 1.44531 13.7656 0.903646 13.3906 0.554688C13.0156 0.200521 12.474 0.0234375 11.7656 0.0234375H8.21875C7.55208 0.0234375 7.02083 0.200521 6.625 0.554688C6.22917 0.903646 6.03125 1.44531 6.03125 2.17969V3.47656Z" fill="white"/>
</svg>
