<?xml version="1.0" encoding="UTF-8"?>
<svg xmlns="http://www.w3.org/2000/svg" xmlns:xlink="http://www.w3.org/1999/xlink" width="24" height="25.5" viewBox="0 0 24 25.5" version="1.1">
<g id="surface1">
<path style=" stroke:none;fill-rule:nonzero;fill:rgb(100%,100%,100%);fill-opacity:1;" d="M 12 24.492188 C 13.632812 24.492188 15.167969 24.179688 16.605469 23.554688 C 18.050781 22.929688 19.324219 22.066406 20.425781 20.964844 C 21.527344 19.863281 22.390625 18.59375 23.015625 17.15625 C 23.640625 15.710938 23.953125 14.171875 23.953125 12.539062 C 23.953125 10.90625 23.640625 9.371094 23.015625 7.933594 C 22.390625 6.488281 21.527344 5.214844 20.425781 4.113281 C 19.324219 3.011719 18.050781 2.148438 16.605469 1.523438 C 15.160156 0.898438 13.621094 0.585938 11.988281 0.585938 C 10.355469 0.585938 8.816406 0.898438 7.371094 1.523438 C 5.933594 2.148438 4.664062 3.011719 3.5625 4.113281 C 2.46875 5.214844 1.609375 6.488281 0.984375 7.933594 C 0.359375 9.371094 0.046875 10.90625 0.046875 12.539062 C 0.046875 14.171875 0.359375 15.710938 0.984375 17.15625 C 1.609375 18.59375 2.472656 19.863281 3.574219 20.964844 C 4.675781 22.066406 5.945312 22.929688 7.382812 23.554688 C 8.828125 24.179688 10.367188 24.492188 12 24.492188 Z M 15.140625 17.496094 C 14.9375 17.496094 14.742188 17.449219 14.554688 17.355469 L 7.347656 13.605469 C 7.097656 13.480469 6.914062 13.335938 6.796875 13.171875 C 6.6875 13 6.632812 12.789062 6.632812 12.539062 C 6.632812 12.09375 6.871094 11.738281 7.347656 11.472656 L 14.554688 7.59375 C 14.648438 7.546875 14.738281 7.511719 14.824219 7.488281 C 14.917969 7.457031 15.03125 7.441406 15.164062 7.441406 C 15.445312 7.441406 15.679688 7.535156 15.867188 7.722656 C 16.054688 7.910156 16.148438 8.136719 16.148438 8.402344 C 16.148438 8.628906 16.089844 8.820312 15.972656 8.976562 C 15.863281 9.132812 15.683594 9.269531 15.433594 9.386719 L 9.316406 12.46875 L 9.316406 12.539062 L 15.433594 15.550781 C 15.691406 15.667969 15.875 15.800781 15.984375 15.949219 C 16.09375 16.097656 16.148438 16.289062 16.148438 16.523438 C 16.148438 16.796875 16.050781 17.027344 15.855469 17.214844 C 15.667969 17.402344 15.429688 17.496094 15.140625 17.496094 Z M 15.140625 17.496094 "/>
</g>
</svg>
