<svg width="16" height="17" viewBox="0 0 16 17" fill="none" xmlns="http://www.w3.org/2000/svg">
<path d="M8 16.3281C9.08854 16.3281 10.112 16.1198 11.0703 15.7031C12.0339 15.2865 12.8828 14.7109 13.6172 13.9766C14.3516 13.2422 14.9271 12.3958 15.3438 11.4375C15.7604 10.474 15.9688 9.44792 15.9688 8.35938C15.9688 7.27083 15.7604 6.2474 15.3438 5.28906C14.9271 4.32552 14.3516 3.47656 13.6172 2.74219C12.8828 2.00781 12.0339 1.43229 11.0703 1.01562C10.1068 0.598958 9.08073 0.390625 7.99219 0.390625C6.90365 0.390625 5.8776 0.598958 4.91406 1.01562C3.95573 1.43229 3.10938 2.00781 2.375 2.74219C1.64583 3.47656 1.07292 4.32552 0.65625 5.28906C0.239583 6.2474 0.03125 7.27083 0.03125 8.35938C0.03125 9.44792 0.239583 10.474 0.65625 11.4375C1.07292 12.3958 1.64844 13.2422 2.38281 13.9766C3.11719 14.7109 3.96354 15.2865 4.92188 15.7031C5.88542 16.1198 6.91146 16.3281 8 16.3281ZM10.0938 11.6641C9.95833 11.6641 9.82812 11.6328 9.70312 11.5703L4.89844 9.07031C4.73177 8.98698 4.60938 8.89062 4.53125 8.78125C4.45833 8.66667 4.42188 8.52604 4.42188 8.35938C4.42188 8.0625 4.58073 7.82552 4.89844 7.64844L9.70312 5.0625C9.76562 5.03125 9.82552 5.00781 9.88281 4.99219C9.94531 4.97135 10.0208 4.96094 10.1094 4.96094C10.2969 4.96094 10.4531 5.02344 10.5781 5.14844C10.7031 5.27344 10.7656 5.42448 10.7656 5.60156C10.7656 5.7526 10.7266 5.88021 10.6484 5.98438C10.5755 6.08854 10.4557 6.17969 10.2891 6.25781L6.21094 8.3125V8.35938L10.2891 10.3672C10.4609 10.4453 10.5833 10.5339 10.6562 10.6328C10.7292 10.7318 10.7656 10.8594 10.7656 11.0156C10.7656 11.1979 10.7005 11.3516 10.5703 11.4766C10.4453 11.6016 10.2865 11.6641 10.0938 11.6641Z" fill="white"/>
</svg>
