<svg width="116" height="116" viewBox="0 0 116 116" fill="none" xmlns="http://www.w3.org/2000/svg">
<path d="M20.5625 115.5H96.375C102.917 115.5 107.812 113.875 111.062 110.625C114.354 107.417 116 102.583 116 96.125V19.8125C116 13.3542 114.354 8.52083 111.062 5.3125C107.812 2.0625 102.917 0.4375 96.375 0.4375H20.5625C14.0208 0.4375 9.10417 2.0625 5.8125 5.3125C2.5625 8.52083 0.9375 13.3542 0.9375 19.8125V96.125C0.9375 102.583 2.5625 107.417 5.8125 110.625C9.10417 113.875 14.0208 115.5 20.5625 115.5ZM20.6875 105.438C17.5625 105.438 15.1667 104.625 13.5 103C11.8333 101.333 11 98.875 11 95.625V20.3125C11 17.0625 11.8333 14.625 13.5 13C15.1667 11.3333 17.5625 10.5 20.6875 10.5H96.25C99.3333 10.5 101.708 11.3333 103.375 13C105.083 14.625 105.938 17.0625 105.938 20.3125V95.625C105.938 98.875 105.083 101.333 103.375 103C101.708 104.625 99.3333 105.438 96.25 105.438H20.6875ZM74.625 83.4375C76.125 83.4375 77.3542 82.9583 78.3125 82C79.3125 81.0417 79.8125 79.8542 79.8125 78.4375C79.8125 77.2708 79.5208 76.3125 78.9375 75.5625C78.3958 74.7708 77.4583 74.0625 76.125 73.4375L44.5 57.875V57.5L76.125 41.5625C77.4167 40.9375 78.3542 40.2292 78.9375 39.4375C79.5208 38.6458 79.8125 37.6667 79.8125 36.5C79.8125 35.125 79.3333 33.9583 78.375 33C77.4167 32.0417 76.2083 31.5625 74.75 31.5625C73.5833 31.5625 72.5417 31.8125 71.625 32.3125L34.375 52.375C31.9167 53.7083 30.6875 55.5417 30.6875 57.875C30.6875 59.1667 30.9583 60.25 31.5 61.125C32.0833 61.9583 33.0417 62.7083 34.375 63.375L71.625 82.75C72.5 83.2083 73.5 83.4375 74.625 83.4375Z" fill="white"/>
</svg>
