<?xml version="1.0" encoding="UTF-8"?>
<svg xmlns="http://www.w3.org/2000/svg" xmlns:xlink="http://www.w3.org/1999/xlink" width="24" height="10.8" viewBox="0 0 24 10.8" version="1.1">
<g id="surface1">
<path style=" stroke:none;fill-rule:nonzero;fill:rgb(100%,100%,100%);fill-opacity:1;" d="M 3.074219 10.320312 L 20.925781 10.320312 C 21.769531 10.320312 22.402344 10.109375 22.828125 9.683594 C 23.253906 9.257812 23.464844 8.632812 23.464844 7.800781 L 23.464844 2.679688 C 23.464844 1.851562 23.25 1.222656 22.820312 0.796875 C 22.394531 0.371094 21.757812 0.160156 20.914062 0.160156 L 3.066406 0.160156 C 2.226562 0.160156 1.597656 0.371094 1.171875 0.796875 C 0.746094 1.222656 0.535156 1.851562 0.535156 2.679688 L 0.535156 7.800781 C 0.535156 8.632812 0.746094 9.257812 1.171875 9.683594 C 1.601562 10.109375 2.238281 10.320312 3.074219 10.320312 Z M 3.300781 8.8125 C 2.898438 8.8125 2.589844 8.703125 2.371094 8.484375 C 2.152344 8.265625 2.042969 7.945312 2.042969 7.527344 L 2.042969 2.953125 C 2.042969 2.527344 2.152344 2.210938 2.371094 1.996094 C 2.589844 1.777344 2.902344 1.667969 3.308594 1.667969 L 20.691406 1.667969 C 21.089844 1.667969 21.398438 1.777344 21.617188 1.996094 C 21.835938 2.210938 21.945312 2.527344 21.945312 2.953125 L 21.945312 7.527344 C 21.945312 7.945312 21.835938 8.265625 21.617188 8.484375 C 21.398438 8.703125 21.085938 8.8125 20.679688 8.8125 Z M 4.351562 9.242188 L 5.25 9.242188 L 5.25 1.238281 L 4.351562 1.238281 Z M 18.75 9.242188 L 19.648438 9.242188 L 19.648438 1.238281 L 18.75 1.238281 Z M 12 5.671875 C 12.945312 5.671875 13.789062 5.488281 14.53125 5.117188 C 15.273438 4.75 15.875 4.234375 16.332031 3.570312 C 16.789062 2.902344 17.050781 2.125 17.117188 1.238281 L 16.117188 1.238281 C 16.066406 1.957031 15.855469 2.585938 15.488281 3.121094 C 15.125 3.660156 14.640625 4.078125 14.035156 4.378906 C 13.433594 4.671875 12.757812 4.820312 12 4.820312 C 11.242188 4.820312 10.5625 4.671875 9.957031 4.378906 C 9.355469 4.078125 8.871094 3.660156 8.503906 3.121094 C 8.140625 2.585938 7.929688 1.957031 7.875 1.238281 L 6.871094 1.238281 C 6.945312 2.125 7.210938 2.902344 7.667969 3.570312 C 8.125 4.234375 8.726562 4.75 9.46875 5.117188 C 10.21875 5.488281 11.0625 5.671875 12 5.671875 Z M 12 3.429688 C 12.636719 3.429688 13.167969 3.25 13.59375 2.886719 C 14.023438 2.519531 14.265625 2.03125 14.316406 1.425781 L 9.683594 1.425781 C 9.734375 2.03125 9.972656 2.519531 10.398438 2.886719 C 10.828125 3.25 11.363281 3.429688 12 3.429688 Z M 12 3.429688 "/>
</g>
</svg>
