<svg xmlns="http://www.w3.org/2000/svg" width="24" height="24"><path style="stroke:none;fill-rule:nonzero;fill:#fff;fill-opacity:1" d="M3.074 22.934h17.852c.844 0 1.476-.47 1.902-1.414.426-.946.637-2.336.637-4.184V5.957c0-1.84-.215-3.238-.645-4.187C22.395.82 21.758.355 20.914.355H3.066c-.84 0-1.468.47-1.894 1.415-.426.949-.637 2.347-.637 4.187v11.375c0 1.852.211 3.242.637 4.188.43.945 1.066 1.414 1.902 1.414Zm.227-3.352c-.403 0-.711-.242-.93-.73-.219-.485-.328-1.196-.328-2.125V6.562c0-.945.11-1.648.328-2.125.219-.488.531-.73.938-.73H20.69c.399 0 .707.242.926.73.219.477.328 1.18.328 2.125v10.165c0 .93-.11 1.64-.328 2.125-.219.492-.531.734-.937.734Zm1.05.957h.899V2.75h-.898Zm14.399 0h.898V2.75h-.898ZM12 12.605c.945 0 1.79-.41 2.531-1.234.723-.781 1.344-1.965 1.801-3.437.457-1.485.719-3.211.785-5.184h-1c-.05 1.598-.262 2.996-.629 4.188-.363 1.199-.847 2.125-1.453 2.792-.601.653-1.277.98-2.035.98-.758 0-1.438-.327-2.043-.98-.586-.636-1.086-1.601-1.453-2.796-.363-1.188-.574-2.586-.629-4.184H6.871c.074 1.969.34 3.695.797 5.18.457 1.472 1.078 2.66 1.8 3.437.75.824 1.595 1.235 2.532 1.235Zm0-4.984c.637 0 1.168-.398 1.594-1.207.43-.812.672-1.902.722-3.246H9.684c.05 1.344.289 2.434.714 3.246.43.809.965 1.207 1.602 1.207Zm0 0"/></svg>