<svg width="154" height="68" viewBox="0 0 154 68" fill="none" xmlns="http://www.w3.org/2000/svg">
<path d="M17.875 67.8125H136.875C142.5 67.8125 146.729 66.3958 149.562 63.5625C152.396 60.7292 153.812 56.5417 153.812 51V16.875C153.812 11.3333 152.375 7.14583 149.5 4.3125C146.667 1.47917 142.438 0.0625 136.812 0.0625H17.8125C12.2292 0.0625 8.02083 1.47917 5.1875 4.3125C2.35417 7.14583 0.9375 11.3333 0.9375 16.875V51C0.9375 56.5417 2.35417 60.7292 5.1875 63.5625C8.0625 66.3958 12.2917 67.8125 17.875 67.8125ZM19.375 57.75C16.7083 57.75 14.6458 57.0208 13.1875 55.5625C11.7292 54.1042 11 51.9792 11 49.1875V18.6875C11 15.8542 11.7292 13.7292 13.1875 12.3125C14.6458 10.8542 16.7292 10.125 19.4375 10.125H135.312C137.979 10.125 140.042 10.8542 141.5 12.3125C142.958 13.7292 143.688 15.8542 143.688 18.6875V49.1875C143.688 51.9792 142.958 54.1042 141.5 55.5625C140.042 57.0208 137.958 57.75 135.25 57.75H19.375ZM26.375 60.625H32.375V7.25H26.375V60.625ZM122.375 60.625H128.375V7.25H122.375V60.625ZM77.375 36.8125C83.6667 36.8125 89.2917 35.5833 94.25 33.125C99.2083 30.6667 103.208 27.2292 106.25 22.8125C109.292 18.3542 111.042 13.1667 111.5 7.25H104.812C104.479 12.0417 103.083 16.2292 100.625 19.8125C98.2083 23.3958 94.9792 26.1875 90.9375 28.1875C86.9375 30.1458 82.4167 31.125 77.375 31.125C72.3333 31.125 67.7917 30.1458 63.75 28.1875C59.75 26.1875 56.5208 23.3958 54.0625 19.8125C51.6458 16.2292 50.25 12.0417 49.875 7.25H43.1875C43.6875 13.1667 45.4583 18.3542 48.5 22.8125C51.5417 27.2292 55.5417 30.6667 60.5 33.125C65.5 35.5833 71.125 36.8125 77.375 36.8125ZM77.375 21.875C81.625 21.875 85.1667 20.6667 88 18.25C90.875 15.7917 92.4792 12.5417 92.8125 8.5H61.9375C62.2708 12.5417 63.8542 15.7917 66.6875 18.25C69.5625 20.6667 73.125 21.875 77.375 21.875Z" fill="white"/>
</svg>
