<svg width="128" height="128" viewBox="0 0 128 128" fill="none" xmlns="http://www.w3.org/2000/svg">
<path d="M63.9375 97.3125C68.5625 97.3125 72.875 96.4375 76.875 94.6875C80.9167 92.9375 84.4792 90.5417 87.5625 87.5C90.6458 84.4167 93.0417 80.875 94.75 76.875C96.5 72.8333 97.375 68.5 97.375 63.875C97.375 59.25 96.5 54.9167 94.75 50.875C93.0417 46.8333 90.6458 43.2917 87.5625 40.25C84.4792 37.1667 80.9167 34.7708 76.875 33.0625C72.875 31.3125 68.5625 30.4375 63.9375 30.4375C59.3125 30.4375 54.9792 31.3125 50.9375 33.0625C46.8958 34.7708 43.3333 37.1667 40.25 40.25C37.2083 43.2917 34.8125 46.8333 33.0625 50.875C31.3542 54.9167 30.5 59.25 30.5 63.875C30.5 70.0417 32 75.6458 35 80.6875C38.0417 85.7292 42.0833 89.7708 47.125 92.8125C52.1667 95.8125 57.7708 97.3125 63.9375 97.3125ZM63.9375 86.75C59.7292 86.75 55.8958 85.7292 52.4375 83.6875C48.9792 81.6042 46.2083 78.8333 44.125 75.375C42.0833 71.9167 41.0625 68.0833 41.0625 63.875C41.0625 59.6667 42.0833 55.8333 44.125 52.375C46.2083 48.9167 48.9792 46.1667 52.4375 44.125C55.8958 42.0417 59.7292 41 63.9375 41C68.1458 41 71.9792 42.0417 75.4375 44.125C78.8958 46.1667 81.6458 48.9167 83.6875 52.375C85.7708 55.8333 86.8125 59.6667 86.8125 63.875C86.8125 68.0833 85.7708 71.9167 83.6875 75.375C81.6458 78.8333 78.8958 81.6042 75.4375 83.6875C71.9792 85.7292 68.1458 86.75 63.9375 86.75ZM14.125 100.688L27.5625 114.125L52.375 89.3125L38.9375 75.875L14.125 100.688ZM13.5 27L38.9375 52.4375L52.375 39L26.9375 13.5625L13.5 27ZM114.5 27.125L101.062 13.6875L75.75 39L89.1875 52.4375L114.5 27.125ZM113.938 100.562L89.25 75.875L75.75 89.375L100.438 114.062L113.938 100.562ZM63.9375 127.625C72.6458 127.625 80.8333 125.958 88.5 122.625C96.2083 119.292 103 114.688 108.875 108.812C114.75 102.938 119.354 96.1667 122.688 88.5C126.021 80.7917 127.688 72.5833 127.688 63.875C127.688 55.1667 126.021 46.9792 122.688 39.3125C119.354 31.6042 114.75 24.8125 108.875 18.9375C103 13.0625 96.2083 8.45833 88.5 5.125C80.7917 1.79167 72.5833 0.125 63.875 0.125C55.1667 0.125 46.9583 1.79167 39.25 5.125C31.5833 8.45833 24.8125 13.0625 18.9375 18.9375C13.1042 24.8125 8.52083 31.6042 5.1875 39.3125C1.85417 46.9792 0.1875 55.1667 0.1875 63.875C0.1875 72.5833 1.85417 80.7917 5.1875 88.5C8.52083 96.1667 13.125 102.938 19 108.812C24.875 114.688 31.6458 119.292 39.3125 122.625C47.0208 125.958 55.2292 127.625 63.9375 127.625ZM63.9375 117C56.5625 117 49.6667 115.625 43.25 112.875C36.8333 110.125 31.1875 106.333 26.3125 101.5C21.4792 96.625 17.6875 90.9792 14.9375 84.5625C12.2292 78.1458 10.875 71.25 10.875 63.875C10.875 56.5 12.2292 49.6042 14.9375 43.1875C17.6875 36.7708 21.4792 31.125 26.3125 26.25C31.1458 21.375 36.7708 17.5833 43.1875 14.875C49.6042 12.125 56.5 10.75 63.875 10.75C71.25 10.75 78.1458 12.125 84.5625 14.875C91.0208 17.5833 96.6667 21.375 101.5 26.25C106.375 31.125 110.188 36.7708 112.938 43.1875C115.688 49.6042 117.062 56.5 117.062 63.875C117.062 71.25 115.688 78.1458 112.938 84.5625C110.229 90.9792 106.438 96.625 101.562 101.5C96.6875 106.333 91.0417 110.125 84.625 112.875C78.2083 115.625 71.3125 117 63.9375 117Z" fill="white"/>
</svg>
