<svg width="20" height="17" viewBox="0 0 20 17" fill="none" xmlns="http://www.w3.org/2000/svg">
<path d="M13.7812 15.6562H15.0391V9.84375C15.0391 9.13021 14.9115 8.46875 14.6562 7.85938C14.401 7.24479 14.0443 6.70833 13.5859 6.25C13.1276 5.79167 12.5911 5.4349 11.9766 5.17969C11.3672 4.91927 10.7057 4.78906 9.99219 4.78906C9.27865 4.78906 8.61719 4.91927 8.00781 5.17969C7.39844 5.4349 6.86458 5.79167 6.40625 6.25C5.94792 6.70833 5.59115 7.24479 5.33594 7.85938C5.08073 8.46875 4.95312 9.13021 4.95312 9.84375V15.6562H6.21094V9.84375C6.21094 9.125 6.375 8.47917 6.70312 7.90625C7.03646 7.33333 7.48698 6.88021 8.05469 6.54688C8.6276 6.21354 9.27344 6.04688 9.99219 6.04688C10.7109 6.04688 11.3568 6.21354 11.9297 6.54688C12.5026 6.88021 12.9531 7.33333 13.2812 7.90625C13.6146 8.47917 13.7812 9.125 13.7812 9.84375V15.6562ZM15.9922 16.2891C16.1641 16.2891 16.3125 16.2266 16.4375 16.1016C16.5677 15.9818 16.6328 15.8359 16.6328 15.6641C16.6328 15.487 16.5677 15.3359 16.4375 15.2109C16.3125 15.0859 16.1641 15.0234 15.9922 15.0234H3.98438C3.8125 15.0234 3.66667 15.0859 3.54688 15.2109C3.42708 15.3359 3.36719 15.487 3.36719 15.6641C3.36719 15.8359 3.42708 15.9818 3.54688 16.1016C3.66667 16.2266 3.8125 16.2891 3.98438 16.2891H15.9922ZM10.625 10.0156C10.625 9.84375 10.5625 9.69531 10.4375 9.57031C10.3125 9.44531 10.1641 9.38281 9.99219 9.38281C9.82031 9.38281 9.67448 9.44531 9.55469 9.57031C9.4349 9.69531 9.375 9.84375 9.375 10.0156V15.6562H10.625V10.0156ZM2.91406 10.4062C3.09635 10.4062 3.25521 10.3411 3.39062 10.2109C3.53125 10.0807 3.60156 9.92448 3.60156 9.74219C3.60156 9.55469 3.53125 9.39583 3.39062 9.26562C3.25521 9.13021 3.09635 9.0625 2.91406 9.0625H1.41406C1.23177 9.0625 1.07552 9.13021 0.945312 9.26562C0.815104 9.39583 0.75 9.55469 0.75 9.74219C0.75 9.91927 0.815104 10.0755 0.945312 10.2109C1.07552 10.3411 1.23177 10.4062 1.41406 10.4062H2.91406ZM4.51562 5.21094C4.64583 5.34115 4.80208 5.40885 4.98438 5.41406C5.17188 5.41406 5.33073 5.34635 5.46094 5.21094C5.59635 5.07552 5.66146 4.91667 5.65625 4.73438C5.65625 4.55208 5.59115 4.39583 5.46094 4.26562L4.40625 3.20312C4.28125 3.07292 4.125 3.00781 3.9375 3.00781C3.75 3.00781 3.58854 3.07292 3.45312 3.20312C3.32292 3.33333 3.25781 3.49219 3.25781 3.67969C3.25781 3.86198 3.32292 4.01823 3.45312 4.14844L4.51562 5.21094ZM9.32031 2.66406C9.32031 2.84635 9.38542 3.00521 9.51562 3.14062C9.65104 3.27604 9.8099 3.34375 9.99219 3.34375C10.1797 3.34375 10.3385 3.27604 10.4688 3.14062C10.6042 3.00521 10.6719 2.84635 10.6719 2.66406V1.16406C10.6719 0.981771 10.6042 0.822917 10.4688 0.6875C10.3333 0.552083 10.1745 0.484375 9.99219 0.484375C9.8099 0.484375 9.65104 0.552083 9.51562 0.6875C9.38542 0.822917 9.32031 0.981771 9.32031 1.16406V2.66406ZM14.5156 4.26562C14.3854 4.39583 14.3203 4.55208 14.3203 4.73438C14.3203 4.91667 14.3854 5.07552 14.5156 5.21094C14.651 5.34635 14.8099 5.41406 14.9922 5.41406C15.1797 5.40885 15.3359 5.34115 15.4609 5.21094L16.5312 4.14844C16.6615 4.01823 16.7266 3.86198 16.7266 3.67969C16.7266 3.49219 16.6615 3.33333 16.5312 3.20312C16.3958 3.07292 16.237 3.00781 16.0547 3.00781C15.8724 3.00781 15.7161 3.07292 15.5859 3.20312L14.5156 4.26562ZM18.5625 10.4062C18.7448 10.4062 18.9036 10.3411 19.0391 10.2109C19.1745 10.0755 19.2422 9.91927 19.2422 9.74219C19.2422 9.55469 19.1745 9.39583 19.0391 9.26562C18.9036 9.13021 18.7448 9.0625 18.5625 9.0625H17.0625C16.8802 9.0625 16.7214 9.13021 16.5859 9.26562C16.4557 9.39583 16.3906 9.55469 16.3906 9.74219C16.3906 9.92448 16.4557 10.0807 16.5859 10.2109C16.7214 10.3411 16.8802 10.4062 17.0625 10.4062H18.5625Z" fill="white"/>
</svg>
