<svg width="20" height="15" viewBox="0 0 20 15" fill="none" xmlns="http://www.w3.org/2000/svg">
<path d="M2.85156 14.6641H17.1484C17.9661 14.6641 18.5781 14.4609 18.9844 14.0547C19.3958 13.6536 19.6016 13.0495 19.6016 12.2422V2.47656C19.6016 1.66927 19.3958 1.0651 18.9844 0.664062C18.5781 0.257812 17.9661 0.0546875 17.1484 0.0546875H2.85156C2.03385 0.0546875 1.41927 0.257812 1.00781 0.664062C0.601562 1.0651 0.398438 1.66927 0.398438 2.47656V12.2422C0.398438 13.0495 0.601562 13.6536 1.00781 14.0547C1.41927 14.4609 2.03385 14.6641 2.85156 14.6641ZM2.86719 13.4062C2.47656 13.4062 2.17708 13.3021 1.96875 13.0938C1.76042 12.8854 1.65625 12.5807 1.65625 12.1797V2.53906C1.65625 2.13281 1.76042 1.82812 1.96875 1.625C2.17708 1.41667 2.47656 1.3125 2.86719 1.3125H17.1328C17.5182 1.3125 17.8151 1.41667 18.0234 1.625C18.237 1.82812 18.3438 2.13281 18.3438 2.53906V12.1797C18.3438 12.5807 18.237 12.8854 18.0234 13.0938C17.8151 13.3021 17.5182 13.4062 17.1328 13.4062H2.86719ZM3.40625 12.3359H16.5938C17.0521 12.3359 17.2812 12.1042 17.2812 11.6406V3.07812C17.2812 2.60938 17.0521 2.375 16.5938 2.375H3.40625C2.95312 2.375 2.72656 2.60938 2.72656 3.07812V11.6406C2.72656 12.1042 2.95312 12.3359 3.40625 12.3359Z" fill="white"/>
</svg>
