<svg xmlns="http://www.w3.org/2000/svg" width="24" height="24"><path style="stroke:none;fill-rule:nonzero;fill:#fff;fill-opacity:1" d="M11.988 23.402c2.344 0 4.39-.238 6.14-.715 1.759-.472 3.122-1.14 4.09-2.007.977-.86 1.466-1.875 1.466-3.043V6.387c0-1.25-.489-2.34-1.465-3.266-.977-.933-2.34-1.652-4.09-2.16-1.75-.508-3.797-.762-6.14-.762-2.337 0-4.384.254-6.141.762-1.75.508-3.114 1.226-4.09 2.16C.789 4.047.305 5.137.305 6.387v11.25c0 1.168.484 2.183 1.453 3.043.976.867 2.34 1.535 4.09 2.008 1.75.476 3.797.714 6.14.714Zm-9.797-5.765c0-.774.41-1.461 1.23-2.063.829-.601 1.977-1.074 3.446-1.414 1.469-.344 3.176-.515 5.121-.515 1.946 0 3.653.171 5.121.515 1.477.34 2.625.813 3.446 1.414.828.602 1.242 1.29 1.242 2.063 0 .77-.414 1.457-1.242 2.062-.82.602-1.97 1.074-3.446 1.41-1.468.348-3.175.52-5.12.52-1.946 0-3.653-.172-5.122-.52-1.469-.336-2.617-.808-3.445-1.41-.82-.601-1.23-1.289-1.23-2.062Zm4.922-2.426c.024.543.254 1.039.692 1.488.445.442 1.03.797 1.758 1.07a7.181 7.181 0 0 0 2.425.395c.89 0 1.7-.129 2.426-.394.734-.274 1.32-.63 1.758-1.07.445-.45.68-.946.703-1.49-.746-.175-1.5-.3-2.262-.374a24.56 24.56 0 0 0-2.625-.133c-.922 0-1.797.043-2.625.133-.82.086-1.57.21-2.25.375Zm0 0"/></svg>