<?xml version="1.0" encoding="UTF-8"?>
<svg xmlns="http://www.w3.org/2000/svg" xmlns:xlink="http://www.w3.org/1999/xlink" width="24" height="25.5" viewBox="0 0 24 25.5" version="1.1">
<g id="surface1">
<path style=" stroke:none;fill-rule:nonzero;fill:rgb(100%,100%,100%);fill-opacity:1;" d="M 11.988281 12.410156 C 14.628906 12.410156 16.933594 12.722656 18.902344 13.347656 C 20.878906 13.964844 22.394531 14.839844 23.449219 15.972656 L 23.449219 6.785156 C 23.449219 5.511719 22.972656 4.402344 22.019531 3.457031 C 21.074219 2.503906 19.742188 1.765625 18.023438 1.242188 C 16.3125 0.710938 14.300781 0.445312 11.988281 0.445312 C 9.675781 0.445312 7.660156 0.710938 5.941406 1.242188 C 4.230469 1.765625 2.902344 2.503906 1.957031 3.457031 C 1.011719 4.402344 0.539062 5.511719 0.539062 6.785156 L 0.539062 15.972656 C 1.585938 14.839844 3.09375 13.964844 5.0625 13.347656 C 7.039062 12.722656 9.347656 12.410156 11.988281 12.410156 Z M 11.988281 24.632812 C 13.628906 24.632812 15.140625 24.507812 16.523438 24.257812 C 17.914062 24.007812 19.121094 23.648438 20.144531 23.179688 C 21.175781 22.71875 21.976562 22.160156 22.546875 21.503906 C 23.117188 20.855469 23.402344 20.128906 23.402344 19.324219 C 23.402344 18.519531 23.117188 17.792969 22.546875 17.144531 C 21.976562 16.488281 21.175781 15.929688 20.144531 15.46875 C 19.121094 15 17.914062 14.640625 16.523438 14.390625 C 15.140625 14.140625 13.628906 14.015625 11.988281 14.015625 C 10.347656 14.015625 8.832031 14.140625 7.441406 14.390625 C 6.058594 14.640625 4.851562 15 3.820312 15.46875 C 2.796875 15.929688 2 16.488281 1.429688 17.144531 C 0.867188 17.792969 0.585938 18.519531 0.585938 19.324219 C 0.585938 20.128906 0.867188 20.855469 1.429688 21.503906 C 2 22.160156 2.796875 22.71875 3.820312 23.179688 C 4.851562 23.648438 6.058594 24.007812 7.441406 24.257812 C 8.832031 24.507812 10.347656 24.632812 11.988281 24.632812 Z M 11.988281 18.949219 C 11.128906 18.949219 10.339844 18.816406 9.621094 18.550781 C 8.902344 18.285156 8.316406 17.929688 7.863281 17.484375 C 7.417969 17.03125 7.171875 16.53125 7.125 15.984375 C 7.828125 15.835938 8.589844 15.71875 9.410156 15.632812 C 10.230469 15.546875 11.089844 15.503906 11.988281 15.503906 C 12.894531 15.503906 13.757812 15.546875 14.578125 15.632812 C 15.398438 15.71875 16.160156 15.835938 16.863281 15.984375 C 16.816406 16.53125 16.566406 17.03125 16.113281 17.484375 C 15.660156 17.929688 15.074219 18.285156 14.355469 18.550781 C 13.636719 18.816406 12.847656 18.949219 11.988281 18.949219 Z M 11.988281 18.949219 "/>
</g>
</svg>
