<svg xmlns="http://www.w3.org/2000/svg" width="24" height="24"><path style="stroke:none;fill-rule:nonzero;fill:#fff;fill-opacity:1" d="M.336 19.18c0 .59.238 1.043.723 1.363.48.328 1.164.492 2.046.492H7.7c.887 0 1.57-.164 2.051-.492.492-.32.738-.777.738-1.375V4.48c0-.593-.246-1.05-.738-1.375-.48-.328-1.164-.488-2.05-.488H3.104c-.882 0-1.566.16-2.046.48-.485.321-.723.782-.723 1.376Zm2.02-.125V4.598c0-.203.085-.356.257-.465.168-.113.41-.168.723-.168H7.5c.313 0 .55.055.71.168.169.11.255.262.255.465v14.457c0 .199-.086.355-.254.465-.16.109-.399.168-.711.168H3.336c-.313 0-.555-.06-.723-.168a.522.522 0 0 1-.258-.465Zm.093-15.778h1.77v-2c0-.168-.09-.304-.27-.422A1.138 1.138 0 0 0 3.32.688a1.129 1.129 0 0 0-.629.167c-.16.114-.246.266-.242.422Zm4.153 0h1.77v-2c.007-.16-.087-.312-.255-.422a1.129 1.129 0 0 0-.629-.167c-.25 0-.46.058-.633.167-.168.114-.257.266-.253.422ZM5.41 6.957c.34 0 .625-.078.86-.234.238-.16.359-.352.359-.578 0-.227-.121-.418-.36-.575-.222-.156-.535-.242-.859-.238-.34 0-.625.078-.855.238-.235.157-.348.348-.348.575 0 .226.113.418.348.578.23.156.515.234.855.234Zm0 2.836c.34 0 .625-.078.86-.23.238-.16.359-.352.359-.57 0-.227-.121-.419-.36-.575-.222-.156-.535-.242-.859-.238-.34 0-.625.078-.855.238-.235.156-.348.348-.348.574-.004.215.121.418.348.57.226.153.535.235.855.231Zm0 2.84c.34 0 .625-.074.86-.23.238-.16.359-.352.359-.571 0-.227-.121-.418-.36-.574-.226-.153-.539-.235-.859-.23-.34 0-.625.077-.855.23-.235.156-.348.347-.348.574 0 .219.113.41.348.57.23.157.515.23.855.23Zm0 2.86c.34 0 .625-.079.86-.235.238-.16.359-.356.359-.578 0-.227-.121-.418-.36-.575-.222-.156-.535-.242-.859-.238-.34 0-.625.078-.855.238-.235.157-.348.348-.348.575 0 .222.113.418.348.578.23.156.515.234.855.234Zm0 2.839c.34 0 .625-.078.86-.234.238-.16.359-.352.359-.57 0-.227-.121-.419-.36-.571-.222-.16-.535-.246-.859-.242-.34 0-.625.078-.855.242-.235.152-.348.344-.348.57-.004.211.121.418.348.57.226.153.535.235.855.235Zm8.078.875c0 .586.239 1.043.723 1.363.48.328 1.168.492 2.062.492h4.579c.894 0 1.582-.164 2.062-.492.492-.32.738-.777.738-1.375V4.508c0-.594-.246-1.051-.738-1.375-.48-.324-1.168-.488-2.062-.488h-4.579c-.894 0-1.582.16-2.062.48-.484.32-.723.777-.723 1.375Zm2.02-.125V4.625c0-.203.086-.355.254-.465.18-.113.422-.168.726-.168h4.176c.305 0 .543.055.711.168.168.11.254.262.254.465v14.453c0 .207-.086.36-.254.465-.168.113-.406.168-.71.168h-4.177c-.304 0-.547-.055-.726-.168a.514.514 0 0 1-.254-.465Zm.094 1.32v2c0 .164.085.305.253.41.168.114.395.172.633.168.23.004.453-.058.614-.168.175-.105.273-.253.27-.41v-2Zm4.168 0v2c0 .16.082.297.253.41.16.11.383.172.614.168.25 0 .46-.054.633-.168.175-.105.273-.253.265-.41v-2ZM18.563 6.965c.34 0 .625-.078.855-.235.242-.16.363-.351.363-.578.004-.215-.129-.422-.363-.57-.219-.16-.531-.246-.855-.242-.333 0-.618.078-.856.242-.227.148-.355.356-.352.57 0 .227.118.418.352.578.238.157.523.235.855.235Zm0 2.848c.34 0 .625-.079.855-.231.242-.164.363-.355.363-.582 0-.227-.12-.418-.363-.57-.219-.16-.531-.246-.855-.242-.333 0-.618.082-.856.242-.234.152-.352.343-.352.57 0 .227.118.418.352.582.238.152.523.23.855.23Zm0 2.84c.34 0 .625-.079.855-.235.242-.152.363-.344.363-.57 0-.227-.12-.414-.363-.57-.223-.16-.531-.247-.855-.243-.325 0-.633.086-.856.242-.234.157-.352.344-.352.57 0 .227.118.419.352.571.238.156.523.234.855.234Zm0 2.847c.34 0 .625-.078.855-.23.242-.165.363-.356.363-.582 0-.227-.12-.418-.363-.57a1.516 1.516 0 0 0-.855-.235c-.333 0-.618.078-.856.234-.234.153-.352.344-.352.57 0 .227.118.418.352.583.238.152.523.23.855.23Zm0 2.848c.34 0 .625-.078.855-.23.242-.161.363-.356.363-.583 0-.226-.12-.414-.363-.57-.223-.16-.531-.246-.855-.242-.325 0-.633.086-.856.242-.234.156-.352.344-.352.57 0 .227.118.422.352.582.238.153.523.23.855.23Zm0 0"/></svg>