<svg width="129" height="138" viewBox="0 0 129 138" fill="none" xmlns="http://www.w3.org/2000/svg">
<path d="M88.9375 0.25C83.4375 0.25 78.2917 1.1875 73.5 3.0625C68.75 4.9375 64.5625 7.54167 60.9375 10.875C57.3542 14.1667 54.5417 18.0208 52.5 22.4375C50.5 26.8542 49.5 31.625 49.5 36.75C49.5 41.2917 49.9583 45.3125 50.875 48.8125C51.8333 52.2708 53.0417 55.6667 54.5 59C55.9583 62.3333 57.4792 66 59.0625 70C60.6875 73.9583 62.1875 78.6667 63.5625 84.125C64.9792 89.5833 66.0625 96.2292 66.8125 104.062C66.8958 105.146 67.2292 106.021 67.8125 106.688C68.4375 107.312 69.3333 107.625 70.5 107.625H107.438C108.562 107.625 109.417 107.312 110 106.688C110.625 106.021 111 105.146 111.125 104.062C111.875 96.2292 112.938 89.5833 114.312 84.125C115.729 78.6667 117.229 73.9583 118.812 70C120.438 66 121.979 62.3333 123.438 59C124.896 55.6667 126.104 52.2708 127.062 48.8125C128.021 45.3125 128.5 41.2917 128.5 36.75C128.5 31.625 127.479 26.8542 125.438 22.4375C123.396 18.0208 120.583 14.1667 117 10.875C113.417 7.54167 109.229 4.9375 104.438 3.0625C99.6458 1.1875 94.4792 0.25 88.9375 0.25ZM70.375 120.375H107.625C108.625 120.375 109.479 120.042 110.188 119.375C110.896 118.708 111.25 117.854 111.25 116.812C111.25 115.812 110.896 114.958 110.188 114.25C109.479 113.583 108.625 113.25 107.625 113.25H70.375C69.3333 113.25 68.4792 113.583 67.8125 114.25C67.1458 114.958 66.8125 115.812 66.8125 116.812C66.8125 117.854 67.1458 118.708 67.8125 119.375C68.4792 120.042 69.3333 120.375 70.375 120.375ZM89 137.5C93.5833 137.5 97.5625 136.438 100.938 134.312C104.354 132.188 106.188 129.417 106.438 126H71.5625C71.7708 129.417 73.5625 132.188 76.9375 134.312C80.3542 136.438 84.375 137.5 89 137.5ZM35.1875 9.5C30.4375 9.5 25.9792 10.3125 21.8125 11.9375C17.6875 13.5625 14.0417 15.8333 10.875 18.75C7.75 21.625 5.3125 25 3.5625 28.875C1.8125 32.7083 0.9375 36.8542 0.9375 41.3125C0.9375 45.2292 1.33333 48.7083 2.125 51.75C2.95833 54.7917 4 57.75 5.25 60.625C6.5 63.5 7.8125 66.6458 9.1875 70.0625C10.5625 73.4792 11.8333 77.5208 13 82.1875C14.2083 86.8125 15.1458 92.4583 15.8125 99.125C15.8958 100.125 16.2292 100.958 16.8125 101.625C17.4375 102.25 18.2917 102.562 19.375 102.562H51.0625C52.1458 102.562 52.9792 102.25 53.5625 101.625C54.1875 100.958 54.5417 100.125 54.625 99.125C54.8333 96.7917 55.0833 94.625 55.375 92.625C55.7083 90.5833 56.0625 88.625 56.4375 86.75C55.1042 81.75 53.625 77.3542 52 73.5625C50.375 69.7292 48.8125 66.0417 47.3125 62.5C45.8125 58.9583 44.5833 55.1458 43.625 51.0625C42.7083 46.9792 42.25 42.2083 42.25 36.75C42.25 32.2083 42.9167 27.8958 44.25 23.8125C45.625 19.7292 47.5208 15.9583 49.9375 12.5C45.4375 10.5 40.5208 9.5 35.1875 9.5ZM19.25 114.438H51.1875C52.1875 114.438 53.0417 114.104 53.75 113.438C54.4583 112.771 54.8125 111.938 54.8125 110.938C54.8125 109.896 54.4583 109.042 53.75 108.375C53.0417 107.708 52.1875 107.375 51.1875 107.375H19.25C18.25 107.375 17.4167 107.729 16.75 108.438C16.0833 109.104 15.75 109.938 15.75 110.938C15.75 111.896 16.0833 112.729 16.75 113.438C17.4167 114.104 18.25 114.438 19.25 114.438ZM35.25 130.062C39.375 130.062 42.9583 129.062 46 127.062C49.0833 125.062 50.6667 122.458 50.75 119.25H19.8125C19.8958 122.458 21.4375 125.062 24.4375 127.062C27.4792 129.062 31.0833 130.062 35.25 130.062Z" fill="white"/>
</svg>
