<svg xmlns="http://www.w3.org/2000/svg" width="24" height="24"><path style="stroke:none;fill-rule:nonzero;fill:#fff;fill-opacity:1" d="M5.39 24h13.22c1.613 0 2.824-.273 3.624-.824.813-.54 1.22-1.352 1.22-2.438V4.23c0-1.093-.407-1.906-1.22-2.449-.8-.55-2.011-.824-3.625-.824H5.391c-1.614 0-2.829.273-3.641.824-.8.543-1.203 1.356-1.203 2.45v16.507c0 1.086.402 1.899 1.203 2.438.813.55 2.027.824 3.64.824Zm.126-1.676c-.813 0-1.426-.14-1.844-.418-.406-.277-.61-.676-.61-1.199V4.262c0-.524.204-.922.61-1.2.418-.28 1.031-.425 1.844-.425h12.953c.812 0 1.426.144 1.843.425.418.282.625.676.625 1.2V20.71c0 .52-.207.918-.625 1.195-.417.278-1.03.418-1.843.418Zm1.046-11.699H17.36c.5 0 .86-.07 1.078-.207.22-.148.329-.383.329-.711V4.98c0-.328-.11-.558-.328-.699-.22-.144-.579-.218-1.079-.218H6.562c-.5 0-.859.074-1.078.218-.207.14-.312.371-.312.7v4.726c0 .328.105.563.312.711.22.137.579.207 1.079.207Zm0 0"/></svg>