<svg xmlns="http://www.w3.org/2000/svg" width="24" height="24"><path style="stroke:none;fill-rule:nonzero;fill:#fff;fill-opacity:1" d="M.336 19.18c0 .59.238 1.043.723 1.363.48.328 1.164.492 2.046.492H7.7c.887 0 1.57-.164 2.051-.492.492-.32.738-.777.738-1.375V4.48c0-.593-.246-1.05-.738-1.375-.48-.328-1.164-.488-2.05-.488H3.104c-.882 0-1.566.16-2.046.48-.485.321-.723.782-.723 1.376ZM2.449 3.277h1.77v-2c0-.168-.09-.304-.27-.422A1.138 1.138 0 0 0 3.32.688a1.129 1.129 0 0 0-.629.167c-.16.114-.246.266-.242.422Zm4.153 0h1.77v-2c.007-.16-.087-.312-.255-.422a1.129 1.129 0 0 0-.629-.167c-.25 0-.46.058-.633.167-.168.114-.257.266-.253.422ZM5.41 6.805c-.332.004-.652-.082-.883-.242-.238-.16-.367-.375-.363-.598 0-.235.121-.43.363-.59.243-.168.535-.25.883-.25s.645.082.883.25c.25.16.375.355.375.59 0 .23-.125.43-.375.598-.23.16-.55.246-.883.242Zm0 2.925c-.348 0-.64-.078-.883-.238-.238-.156-.37-.367-.363-.59 0-.234.121-.43.363-.59.243-.167.535-.25.883-.25s.645.083.883.25c.25.16.375.356.375.59 0 .23-.125.43-.375.59-.238.16-.535.238-.883.238Zm0 2.93c-.332.004-.652-.082-.883-.242-.238-.152-.37-.367-.363-.586 0-.234.121-.43.363-.59.23-.16.551-.246.883-.242.348 0 .645.082.883.242.25.16.375.356.375.59 0 .23-.125.426-.375.586-.23.16-.55.25-.883.242Zm0 2.945c-.348 0-.64-.078-.883-.238-.238-.16-.367-.375-.363-.597 0-.235.121-.43.363-.59.243-.168.535-.25.883-.25s.645.082.883.25c.25.16.375.355.375.59 0 .23-.125.43-.375.597-.238.16-.535.238-.883.238Zm0 2.93c-.332.004-.652-.082-.883-.242-.242-.156-.37-.375-.363-.598 0-.23.121-.425.363-.59.243-.16.535-.238.883-.238s.645.078.883.238c.25.165.375.36.375.59 0 .239-.125.438-.375.598-.23.16-.55.25-.883.242Zm8.078.672c0 .586.239 1.043.723 1.363.48.328 1.168.492 2.062.492h4.579c.894 0 1.582-.164 2.062-.492.492-.32.738-.777.738-1.375V4.508c0-.594-.246-1.051-.738-1.375-.48-.324-1.168-.488-2.062-.488h-4.579c-.894 0-1.582.16-2.062.48-.484.32-.723.777-.723 1.375Zm2.114 1.195v2c0 .164.085.305.253.41.168.114.395.172.633.168.23.004.453-.058.614-.168.175-.105.273-.253.27-.41v-2Zm4.168 0v2c0 .16.082.297.253.41.16.11.383.172.614.168.25 0 .46-.054.633-.168.175-.105.273-.253.265-.41v-2Zm-1.207-13.59c-.348 0-.645-.082-.883-.242-.239-.156-.367-.37-.364-.597 0-.23.122-.43.364-.59.238-.168.535-.25.883-.25.355 0 .656.082.898.25.238.16.36.36.36.59 0 .234-.122.43-.36.597-.234.16-.563.246-.898.242Zm0 2.938c-.348 0-.645-.082-.883-.242-.239-.156-.367-.371-.364-.598 0-.23.122-.43.364-.59.238-.168.535-.25.883-.25.355 0 .656.082.898.25.238.16.36.36.36.59 0 .235-.122.43-.36.598-.238.16-.563.246-.898.242Zm0 2.93c-.348 0-.645-.082-.883-.242-.239-.157-.371-.368-.364-.59 0-.23.122-.43.364-.59.238-.168.535-.25.883-.25.355 0 .656.082.898.25.238.16.36.36.36.59 0 .234-.122.43-.36.59-.234.16-.563.246-.898.242Zm0 2.937c-.348 0-.645-.082-.883-.242-.239-.16-.367-.375-.364-.598 0-.234.122-.43.364-.59.238-.16.535-.242.883-.242.355 0 .656.082.898.242.238.16.36.356.36.59 0 .23-.122.43-.36.598-.234.16-.563.246-.898.242Zm0 2.938c-.348 0-.645-.082-.883-.25-.239-.157-.371-.371-.364-.59 0-.235.122-.43.364-.59.238-.168.535-.25.883-.25.355 0 .656.082.898.25.238.16.36.355.36.59 0 .23-.122.43-.36.59-.242.168-.543.25-.898.25Zm0 0"/></svg>