<svg xmlns="http://www.w3.org/2000/svg" width="24" height="24"><path style="stroke:none;fill-rule:nonzero;fill:#fff;fill-opacity:1" d="M5.39 24h13.22c1.613 0 2.824-.273 3.624-.824.813-.54 1.22-1.352 1.22-2.438V4.23c0-1.093-.407-1.906-1.22-2.449-.8-.55-2.011-.824-3.625-.824H5.391c-1.614 0-2.829.273-3.641.824-.8.543-1.203 1.356-1.203 2.45v16.507c0 1.086.402 1.899 1.203 2.438.813.55 2.027.824 3.64.824Zm.688-13.168c-.531 0-.91-.07-1.14-.219-.22-.152-.329-.402-.329-.75V4.72c0-.348.11-.594.329-.739.23-.156.609-.23 1.14-.23h11.766c.531 0 .91.074 1.14.23.23.145.344.391.344.739v5.144c0 .348-.113.598-.344.75-.23.149-.609.219-1.14.219Zm0 0"/></svg>