<svg width="16" height="17" viewBox="0 0 16 17" fill="none" xmlns="http://www.w3.org/2000/svg">
<path d="M7.99219 8.27344C9.7526 8.27344 11.2891 8.48177 12.6016 8.89844C13.9193 9.3099 14.9297 9.89323 15.6328 10.6484V4.52344C15.6328 3.67448 15.3151 2.9349 14.6797 2.30469C14.0495 1.66927 13.1615 1.17708 12.0156 0.828125C10.875 0.473958 9.53385 0.296875 7.99219 0.296875C6.45052 0.296875 5.10677 0.473958 3.96094 0.828125C2.82031 1.17708 1.9349 1.66927 1.30469 2.30469C0.674479 2.9349 0.359375 3.67448 0.359375 4.52344V10.6484C1.05729 9.89323 2.0625 9.3099 3.375 8.89844C4.69271 8.48177 6.23177 8.27344 7.99219 8.27344ZM7.99219 16.4219C9.08594 16.4219 10.0938 16.3385 11.0156 16.1719C11.9427 16.0052 12.7474 15.7656 13.4297 15.4531C14.1172 15.1458 14.651 14.7734 15.0312 14.3359C15.4115 13.9036 15.6016 13.4193 15.6016 12.8828C15.6016 12.3464 15.4115 11.862 15.0312 11.4297C14.651 10.9922 14.1172 10.6198 13.4297 10.3125C12.7474 10 11.9427 9.76042 11.0156 9.59375C10.0938 9.42708 9.08594 9.34375 7.99219 9.34375C6.89844 9.34375 5.88802 9.42708 4.96094 9.59375C4.03906 9.76042 3.23438 10 2.54688 10.3125C1.86458 10.6198 1.33333 10.9922 0.953125 11.4297C0.578125 11.862 0.390625 12.3464 0.390625 12.8828C0.390625 13.4193 0.578125 13.9036 0.953125 14.3359C1.33333 14.7734 1.86458 15.1458 2.54688 15.4531C3.23438 15.7656 4.03906 16.0052 4.96094 16.1719C5.88802 16.3385 6.89844 16.4219 7.99219 16.4219ZM7.99219 12.6328C7.41927 12.6328 6.89323 12.5443 6.41406 12.3672C5.9349 12.1901 5.54427 11.9531 5.24219 11.6562C4.94531 11.3542 4.78125 11.0208 4.75 10.6562C5.21875 10.5573 5.72656 10.4792 6.27344 10.4219C6.82031 10.3646 7.39323 10.3359 7.99219 10.3359C8.59635 10.3359 9.17188 10.3646 9.71875 10.4219C10.2656 10.4792 10.7734 10.5573 11.2422 10.6562C11.2109 11.0208 11.0443 11.3542 10.7422 11.6562C10.4401 11.9531 10.0495 12.1901 9.57031 12.3672C9.09115 12.5443 8.5651 12.6328 7.99219 12.6328Z" fill="white"/>
</svg>
