<svg width="132" height="119" viewBox="0 0 132 119" fill="none" xmlns="http://www.w3.org/2000/svg">
<path d="M7.4375 72.3125C8.64583 72.3125 9.72917 72.0417 10.6875 71.5C11.6875 70.9167 12.4792 70.1458 13.0625 69.1875C13.6458 68.1875 13.9375 67.0833 13.9375 65.875C13.9375 64.0417 13.2917 62.5 12 61.25C10.75 60 9.22917 59.375 7.4375 59.375C5.64583 59.375 4.10417 60 2.8125 61.25C1.5625 62.5 0.9375 64.0417 0.9375 65.875C0.9375 67.6667 1.5625 69.1875 2.8125 70.4375C4.10417 71.6875 5.64583 72.3125 7.4375 72.3125ZM22.1875 28.5C23.3958 28.5 24.4792 28.2083 25.4375 27.625C26.4375 27.0417 27.2292 26.2708 27.8125 25.3125C28.3958 24.3125 28.6875 23.2083 28.6875 22C28.6875 20.1667 28.0625 18.625 26.8125 17.375C25.5625 16.125 24.0208 15.5 22.1875 15.5C20.3958 15.5 18.8542 16.125 17.5625 17.375C16.3125 18.625 15.6875 20.1667 15.6875 22C15.6875 23.7917 16.3125 25.3333 17.5625 26.625C18.8542 27.875 20.3958 28.5 22.1875 28.5ZM66.125 13.75C67.9167 13.75 69.4375 13.125 70.6875 11.875C71.9375 10.625 72.5625 9.08333 72.5625 7.25C72.5625 5.45833 71.9375 3.9375 70.6875 2.6875C69.4375 1.39583 67.9167 0.75 66.125 0.75C64.2917 0.75 62.75 1.39583 61.5 2.6875C60.25 3.9375 59.625 5.45833 59.625 7.25C59.625 8.45833 59.9167 9.5625 60.5 10.5625C61.0833 11.5208 61.8542 12.2917 62.8125 12.875C63.8125 13.4583 64.9167 13.75 66.125 13.75ZM110 28.5C111.792 28.5 113.312 27.875 114.562 26.625C115.854 25.3333 116.5 23.7917 116.5 22C116.5 20.1667 115.854 18.625 114.562 17.375C113.312 16.125 111.792 15.5 110 15.5C108.208 15.5 106.667 16.125 105.375 17.375C104.125 18.625 103.5 20.1667 103.5 22C103.5 23.2083 103.792 24.3125 104.375 25.3125C104.958 26.2708 105.729 27.0417 106.688 27.625C107.688 28.2083 108.792 28.5 110 28.5ZM124.812 72.3125C126.604 72.3125 128.125 71.6875 129.375 70.4375C130.625 69.1875 131.25 67.6667 131.25 65.875C131.25 64.0417 130.625 62.5 129.375 61.25C128.125 60 126.604 59.375 124.812 59.375C122.979 59.375 121.438 60 120.188 61.25C118.938 62.5 118.312 64.0417 118.312 65.875C118.312 67.0833 118.604 68.1875 119.188 69.1875C119.771 70.1458 120.542 70.9167 121.5 71.5C122.5 72.0417 123.604 72.3125 124.812 72.3125ZM114.125 118.312C115.5 118.312 116.688 117.812 117.688 116.812C118.729 115.854 119.25 114.688 119.25 113.312C119.25 111.896 118.729 110.688 117.688 109.688C116.688 108.688 115.5 108.188 114.125 108.188H106.5V66.75C106.5 61.0417 105.479 55.75 103.438 50.875C101.396 45.9583 98.5417 41.6667 94.875 38C91.2083 34.3333 86.9167 31.4792 82 29.4375C77.0833 27.3542 71.7917 26.3125 66.125 26.3125C60.4167 26.3125 55.1042 27.3542 50.1875 29.4375C45.3125 31.4792 41.0417 34.3333 37.375 38C33.75 41.6667 30.9167 45.9583 28.875 50.875C26.8333 55.75 25.8125 61.0417 25.8125 66.75V108.188H18.0625C16.6875 108.188 15.5208 108.688 14.5625 109.688C13.6042 110.688 13.125 111.896 13.125 113.312C13.125 114.688 13.6042 115.854 14.5625 116.812C15.5208 117.812 16.6875 118.312 18.0625 118.312H114.125ZM71.375 66.9375V108.188H60.9375V66.9375C60.9375 65.5208 61.4375 64.2917 62.4375 63.25C63.4375 62.2083 64.6667 61.6875 66.125 61.6875C67.5417 61.6875 68.7708 62.2083 69.8125 63.25C70.8542 64.2917 71.375 65.5208 71.375 66.9375Z" fill="white"/>
</svg>
