<svg width="101" height="101" viewBox="0 0 101 101" fill="none" xmlns="http://www.w3.org/2000/svg">
<path d="M1.8125 98.625C2.8125 99.5833 4 100.062 5.375 100.062C6.79167 100.062 7.97917 99.5833 8.9375 98.625L71 36.6875L82.625 48.375C83.4583 49.1667 84.3125 49.5625 85.1875 49.5625C86.1042 49.5625 86.9167 49.25 87.625 48.625C88.375 47.9583 88.8958 47.0417 89.1875 45.875L100.125 5.375C100.375 4.33333 100.292 3.39583 99.875 2.5625C99.4583 1.6875 98.8125 1.04167 97.9375 0.625C97.0625 0.208333 96.125 0.145833 95.125 0.4375L54.6875 11.3125C53.5208 11.6458 52.6042 12.1667 51.9375 12.875C51.2708 13.5833 50.9375 14.3958 50.9375 15.3125C50.9375 16.1875 51.3542 17.0208 52.1875 17.8125L63.9375 29.5625L1.8125 91.5C0.854167 92.4583 0.375 93.6458 0.375 95.0625C0.375 96.4375 0.854167 97.625 1.8125 98.625Z" fill="white"/>
</svg>
