<svg width="16" height="17" viewBox="0 0 16 17" fill="none" xmlns="http://www.w3.org/2000/svg">
<path d="M8 16.3281C8.88021 16.3281 9.72135 16.1875 10.5234 15.9062C11.3307 15.625 12.0651 15.237 12.7266 14.7422C11.7057 14.612 10.8073 14.3047 10.0312 13.8203C9.25521 13.3359 8.63281 12.6875 8.16406 11.875C7.9401 11.4792 7.76823 11.0833 7.64844 10.6875C7.52865 10.2917 7.44792 9.8776 7.40625 9.44531C7.14583 9.63802 6.91146 9.84896 6.70312 10.0781C6.49479 10.3073 6.30208 10.5703 6.125 10.8672C5.67188 11.638 5.48177 12.474 5.55469 13.375C5.6276 14.276 5.95573 15.2083 6.53906 16.1719C6.77865 16.224 7.01823 16.263 7.25781 16.2891C7.5026 16.3151 7.75 16.3281 8 16.3281ZM4.85156 15.6641C4.44531 14.7109 4.25521 13.7734 4.28125 12.8516C4.30729 11.9245 4.55729 11.0547 5.03125 10.2422C5.25521 9.86198 5.5026 9.52604 5.77344 9.23438C6.04427 8.9375 6.34896 8.66406 6.6875 8.41406C6.38021 8.28906 6.08073 8.19792 5.78906 8.14062C5.5026 8.08333 5.20312 8.05469 4.89062 8.05469C4.00521 8.05469 3.1901 8.3125 2.44531 8.82812C1.70573 9.34375 1.06771 10.1042 0.53125 11.1094C0.911458 12.125 1.47917 13.0312 2.23438 13.8281C2.98958 14.6198 3.86198 15.2318 4.85156 15.6641ZM0.101562 9.39844C0.726562 8.5599 1.44531 7.91667 2.25781 7.46875C3.07031 7.02083 3.94792 6.79688 4.89062 6.79688C5.32812 6.79688 5.74219 6.84115 6.13281 6.92969C6.52344 7.01823 6.91146 7.14844 7.29688 7.32031C7.26042 6.96615 7.19531 6.64583 7.10156 6.35938C7.00781 6.06771 6.8776 5.77865 6.71094 5.49219C6.26823 4.72135 5.64062 4.14583 4.82812 3.76562C4.02083 3.38021 3.05729 3.20573 1.9375 3.24219C1.34375 3.9349 0.877604 4.71875 0.539062 5.59375C0.200521 6.46354 0.03125 7.38542 0.03125 8.35938C0.03125 8.53646 0.0364583 8.71094 0.046875 8.88281C0.0625 9.05469 0.0807292 9.22656 0.101562 9.39844ZM8.55469 7.20312C8.84115 6.99479 9.08594 6.77865 9.28906 6.55469C9.49219 6.32552 9.67708 6.07292 9.84375 5.79688C10.2917 5.03125 10.4792 4.20312 10.4062 3.3125C10.3333 2.41667 10 1.48958 9.40625 0.53125C9.17708 0.484375 8.94531 0.450521 8.71094 0.429688C8.47656 0.403646 8.23698 0.390625 7.99219 0.390625C7.09635 0.390625 6.23958 0.536458 5.42188 0.828125C4.60417 1.11458 3.86198 1.51562 3.19531 2.03125C4.22656 2.15104 5.13281 2.45052 5.91406 2.92969C6.70052 3.40885 7.33073 4.05729 7.80469 4.875C8.01823 5.25 8.1849 5.6276 8.30469 6.00781C8.42448 6.38802 8.50781 6.78646 8.55469 7.20312ZM11.1562 8.73438C12.0365 8.73438 12.8464 8.48438 13.5859 7.98438C14.3255 7.47917 14.9609 6.73698 15.4922 5.75781C15.2526 5.05469 14.9193 4.40104 14.4922 3.79688C14.0651 3.1875 13.5625 2.64844 12.9844 2.17969C12.4062 1.70573 11.7734 1.32292 11.0859 1.03125C11.4974 1.97917 11.6927 2.91146 11.6719 3.82812C11.651 4.74479 11.4036 5.60677 10.9297 6.41406C10.7005 6.82031 10.4401 7.17188 10.1484 7.46875C9.86198 7.76562 9.54167 8.03906 9.1875 8.28906C9.49479 8.42448 9.80469 8.53385 10.1172 8.61719C10.4349 8.69531 10.7812 8.73438 11.1562 8.73438ZM14 13.5312C14.6094 12.8385 15.0885 12.0495 15.4375 11.1641C15.7917 10.2786 15.9688 9.34375 15.9688 8.35938C15.9688 8.0625 15.9505 7.76562 15.9141 7.46875C15.2891 8.28646 14.5729 8.91146 13.7656 9.34375C12.9583 9.77604 12.0885 9.99219 11.1562 9.99219C10.6927 9.99219 10.2578 9.94271 9.85156 9.84375C9.45052 9.74479 9.05469 9.60938 8.66406 9.4375C8.70052 9.75521 8.76302 10.0625 8.85156 10.3594C8.94531 10.6562 9.08073 10.9557 9.25781 11.2578C9.69531 12.0234 10.3177 12.599 11.125 12.9844C11.9323 13.3698 12.8906 13.5521 14 13.5312Z" fill="white"/>
</svg>
