<?xml version="1.0" encoding="UTF-8"?>
<svg xmlns="http://www.w3.org/2000/svg" xmlns:xlink="http://www.w3.org/1999/xlink" width="24" height="25.5" viewBox="0 0 24 25.5" version="1.1">
<g id="surface1">
<path style=" stroke:none;fill-rule:nonzero;fill:rgb(100%,100%,100%);fill-opacity:1;" d="M 12 24.492188 C 13.632812 24.492188 15.167969 24.179688 16.605469 23.554688 C 18.050781 22.929688 19.324219 22.066406 20.425781 20.964844 C 21.527344 19.863281 22.390625 18.59375 23.015625 17.15625 C 23.640625 15.710938 23.953125 14.171875 23.953125 12.539062 C 23.953125 10.90625 23.640625 9.371094 23.015625 7.933594 C 22.390625 6.488281 21.527344 5.214844 20.425781 4.113281 C 19.324219 3.011719 18.050781 2.148438 16.605469 1.523438 C 15.160156 0.898438 13.621094 0.585938 11.988281 0.585938 C 10.355469 0.585938 8.816406 0.898438 7.371094 1.523438 C 5.933594 2.148438 4.664062 3.011719 3.5625 4.113281 C 2.46875 5.214844 1.609375 6.488281 0.984375 7.933594 C 0.359375 9.371094 0.046875 10.90625 0.046875 12.539062 C 0.046875 14.171875 0.359375 15.710938 0.984375 17.15625 C 1.609375 18.59375 2.472656 19.863281 3.574219 20.964844 C 4.675781 22.066406 5.945312 22.929688 7.382812 23.554688 C 8.828125 24.179688 10.367188 24.492188 12 24.492188 Z M 5.4375 11.835938 C 5.171875 11.835938 4.949219 11.757812 4.769531 11.601562 C 4.597656 11.445312 4.511719 11.242188 4.511719 10.992188 C 4.511719 10.726562 4.597656 10.515625 4.769531 10.359375 C 4.949219 10.203125 5.171875 10.125 5.4375 10.125 L 18.609375 10.125 C 18.875 10.125 19.09375 10.203125 19.265625 10.359375 C 19.445312 10.515625 19.535156 10.726562 19.535156 10.992188 C 19.535156 11.242188 19.445312 11.445312 19.265625 11.601562 C 19.09375 11.757812 18.875 11.835938 18.609375 11.835938 Z M 7.230469 15.84375 C 6.957031 15.84375 6.734375 15.765625 6.5625 15.609375 C 6.390625 15.453125 6.304688 15.246094 6.304688 14.988281 C 6.304688 14.730469 6.390625 14.523438 6.5625 14.367188 C 6.734375 14.210938 6.957031 14.132812 7.230469 14.132812 L 16.816406 14.132812 C 17.089844 14.132812 17.3125 14.210938 17.484375 14.367188 C 17.65625 14.523438 17.742188 14.730469 17.742188 14.988281 C 17.742188 15.246094 17.65625 15.453125 17.484375 15.609375 C 17.3125 15.765625 17.089844 15.84375 16.816406 15.84375 Z M 7.230469 15.84375 "/>
</g>
</svg>
