<svg xmlns="http://www.w3.org/2000/svg" width="24" height="24"><path style="stroke:none;fill-rule:nonzero;fill:#fff;fill-opacity:1" d="M12 23.05c1.633 0 3.168-.292 4.605-.882a12.22 12.22 0 0 0 3.82-2.438 11.467 11.467 0 0 0 2.59-3.582c.626-1.363.938-2.808.938-4.347a10.2 10.2 0 0 0-.937-4.332 11.53 11.53 0 0 0-2.59-3.598 12.361 12.361 0 0 0-3.82-2.437A12.166 12.166 0 0 0 11.987.55c-1.633 0-3.172.293-4.617.883A12.307 12.307 0 0 0 3.562 3.87 11.523 11.523 0 0 0 .985 7.465 10.2 10.2 0 0 0 .047 11.8c0 1.539.312 2.984.937 4.347a11.467 11.467 0 0 0 2.59 3.582 12.236 12.236 0 0 0 3.809 2.438c1.445.59 2.984.883 4.617.883ZM5.437 9.532a1.044 1.044 0 0 1-.667-.222.716.716 0 0 1-.258-.575c0-.242.086-.437.258-.582.183-.156.421-.238.668-.234h13.171c.266 0 .485.078.657.234.18.145.27.34.27.582a.694.694 0 0 1-.27.575.964.964 0 0 1-.657.222Zm1.793 3.77c-.273 0-.496-.074-.668-.219a.745.745 0 0 1-.257-.586c0-.242.086-.437.258-.586.171-.152.394-.23.667-.23h9.586c.274 0 .497.078.668.23a.745.745 0 0 1 .258.586.745.745 0 0 1-.258.586c-.172.145-.394.219-.668.219Zm1.875 3.773c-.273 0-.496-.074-.668-.222a.737.737 0 0 1-.257-.582c0-.243.086-.438.258-.586.171-.149.394-.22.667-.22h5.848c.266 0 .485.071.656.22a.74.74 0 0 1 .258.586.737.737 0 0 1-.258.582.964.964 0 0 1-.656.222Zm0 0"/></svg>