<?xml version="1.0" encoding="UTF-8"?>
<svg xmlns="http://www.w3.org/2000/svg" xmlns:xlink="http://www.w3.org/1999/xlink" width="24" height="24" viewBox="0 0 24 24" version="1.1">
<g id="surface1">
<path style=" stroke:none;fill-rule:nonzero;fill:rgb(100%,100%,100%);fill-opacity:1;" d="M 12.125 8.105469 L 10.738281 9.511719 C 11.425781 9.566406 12.003906 9.695312 12.46875 9.894531 C 12.941406 10.097656 13.347656 10.367188 13.6875 10.707031 C 14.292969 11.320312 14.695312 11.992188 14.894531 12.730469 C 15.097656 13.457031 15.097656 14.1875 14.894531 14.917969 C 14.703125 15.644531 14.300781 16.3125 13.699219 16.917969 L 10.292969 20.3125 C 9.6875 20.917969 9.019531 21.320312 8.292969 21.519531 C 7.5625 21.722656 6.828125 21.722656 6.09375 21.519531 C 5.363281 21.328125 4.699219 20.925781 4.09375 20.324219 C 3.488281 19.710938 3.085938 19.042969 2.886719 18.3125 C 2.683594 17.578125 2.683594 16.84375 2.886719 16.113281 C 3.085938 15.386719 3.488281 14.71875 4.09375 14.113281 L 6.136719 12.074219 C 5.988281 11.746094 5.894531 11.398438 5.855469 11.03125 C 5.820312 10.65625 5.828125 10.296875 5.886719 9.957031 L 2.824219 13.011719 C 1.996094 13.84375 1.441406 14.765625 1.15625 15.769531 C 0.878906 16.777344 0.878906 17.789062 1.15625 18.800781 C 1.433594 19.808594 1.992188 20.734375 2.832031 21.574219 C 3.679688 22.421875 4.609375 22.984375 5.613281 23.261719 C 6.628906 23.539062 7.640625 23.535156 8.644531 23.25 C 9.652344 22.972656 10.570312 22.421875 11.394531 21.59375 L 14.957031 18.019531 C 15.792969 17.1875 16.347656 16.265625 16.625 15.261719 C 16.910156 14.253906 16.914062 13.246094 16.636719 12.238281 C 16.359375 11.226562 15.796875 10.296875 14.949219 9.457031 C 14.621094 9.125 14.234375 8.847656 13.792969 8.625 C 13.347656 8.394531 12.792969 8.222656 12.125 8.105469 Z M 11.863281 16.6875 L 13.25 15.28125 C 12.5625 15.226562 11.984375 15.097656 11.511719 14.894531 C 11.046875 14.695312 10.640625 14.421875 10.300781 14.082031 C 9.691406 13.472656 9.285156 12.800781 9.082031 12.074219 C 8.882812 11.335938 8.882812 10.605469 9.082031 9.875 C 9.285156 9.144531 9.6875 8.480469 10.292969 7.875 L 13.6875 4.480469 C 14.296875 3.875 14.96875 3.472656 15.699219 3.269531 C 16.425781 3.070312 17.15625 3.070312 17.886719 3.269531 C 18.613281 3.464844 19.285156 3.867188 19.894531 4.480469 C 20.5 5.082031 20.902344 5.753906 21.105469 6.488281 C 21.304688 7.21875 21.304688 7.949219 21.105469 8.675781 C 20.902344 9.40625 20.5 10.074219 19.894531 10.675781 L 17.855469 12.71875 C 18 13.050781 18.089844 13.402344 18.125 13.769531 C 18.167969 14.140625 18.160156 14.492188 18.105469 14.832031 L 21.167969 11.78125 C 21.992188 10.949219 22.546875 10.027344 22.824219 9.019531 C 23.109375 8.015625 23.109375 7.007812 22.832031 6 C 22.554688 4.984375 21.996094 4.058594 21.15625 3.21875 C 20.308594 2.371094 19.378906 1.808594 18.363281 1.53125 C 17.359375 1.253906 16.351562 1.257812 15.34375 1.542969 C 14.335938 1.820312 13.417969 2.375 12.582031 3.207031 L 9.03125 6.769531 C 8.199219 7.605469 7.640625 8.523438 7.355469 9.53125 C 7.078125 10.539062 7.078125 11.546875 7.355469 12.5625 C 7.632812 13.570312 8.195312 14.492188 9.042969 15.332031 C 9.367188 15.667969 9.753906 15.949219 10.199219 16.175781 C 10.640625 16.398438 11.199219 16.570312 11.863281 16.6875 Z M 11.863281 16.6875 "/>
</g>
</svg>
