<svg width="128" height="128" viewBox="0 0 128 128" fill="none" xmlns="http://www.w3.org/2000/svg">
<path d="M63.9375 127.625C72.6458 127.625 80.8333 125.958 88.5 122.625C96.2083 119.292 103 114.688 108.875 108.812C114.75 102.938 119.354 96.1667 122.688 88.5C126.021 80.7917 127.688 72.5833 127.688 63.875C127.688 55.1667 126.021 46.9792 122.688 39.3125C119.354 31.6042 114.75 24.8125 108.875 18.9375C103 13.0625 96.2083 8.45833 88.5 5.125C80.7917 1.79167 72.5833 0.125 63.875 0.125C55.1667 0.125 46.9583 1.79167 39.25 5.125C31.5833 8.45833 24.8125 13.0625 18.9375 18.9375C13.1042 24.8125 8.52083 31.6042 5.1875 39.3125C1.85417 46.9792 0.1875 55.1667 0.1875 63.875C0.1875 72.5833 1.85417 80.7917 5.1875 88.5C8.52083 96.1667 13.125 102.938 19 108.812C24.875 114.688 31.6458 119.292 39.3125 122.625C47.0208 125.958 55.2292 127.625 63.9375 127.625ZM63.9375 117C56.5625 117 49.6667 115.625 43.25 112.875C36.8333 110.125 31.1875 106.333 26.3125 101.5C21.4792 96.625 17.6875 90.9792 14.9375 84.5625C12.2292 78.1458 10.875 71.25 10.875 63.875C10.875 56.5 12.2292 49.6042 14.9375 43.1875C17.6875 36.7708 21.4792 31.125 26.3125 26.25C31.1458 21.375 36.7708 17.5833 43.1875 14.875C49.6042 12.125 56.5 10.75 63.875 10.75C71.25 10.75 78.1458 12.125 84.5625 14.875C91.0208 17.5833 96.6667 21.375 101.5 26.25C106.375 31.125 110.188 36.7708 112.938 43.1875C115.688 49.6042 117.062 56.5 117.062 63.875C117.062 71.25 115.688 78.1458 112.938 84.5625C110.229 90.9792 106.438 96.625 101.562 101.5C96.6875 106.333 91.0417 110.125 84.625 112.875C78.2083 115.625 71.3125 117 63.9375 117ZM33.3125 93.3125C37.2292 97.1875 41.5208 98.9583 46.1875 98.625C50.8542 98.2917 55.4583 95.8542 60 91.3125L69.375 82C73.9583 77.375 76.4375 72.7292 76.8125 68.0625C77.1875 63.3542 75.3958 59.0417 71.4375 55.125C70.3542 54 69.25 53.1042 68.125 52.4375C67 51.7292 65.9792 51.2917 65.0625 51.125C64.1875 51.75 63.2708 52.6042 62.3125 53.6875C61.3958 54.7292 60.7083 55.7917 60.25 56.875C61.6667 57.0833 62.9167 57.4375 64 57.9375C65.125 58.3958 66.0625 59 66.8125 59.75C69.2292 62.2083 70.25 65 69.875 68.125C69.5 71.2083 67.7083 74.3125 64.5 77.4375L55.5 86.5625C52.4167 89.6042 49.3333 91.2917 46.25 91.625C43.2083 91.9583 40.4583 90.9375 38 88.5625C35.5417 86.1042 34.4583 83.3333 34.75 80.25C35.0833 77.1667 36.8125 74.0833 39.9375 71L46.375 64.625C45.9167 63.4167 45.6667 61.9792 45.625 60.3125C45.625 58.6458 45.875 57.0417 46.375 55.5L35.1875 66.5625C30.6875 71.1042 28.2708 75.7083 27.9375 80.375C27.6042 85.0417 29.3958 89.3542 33.3125 93.3125ZM92.25 34.1875C88.3333 30.3125 84.0417 28.5417 79.375 28.875C74.7083 29.2083 70.1042 31.6458 65.5625 36.1875L56.25 45.5C51.625 50.125 49.125 54.7708 48.75 59.4375C48.375 64.1042 50.1667 68.4167 54.125 72.375C55.2083 73.5 56.3125 74.4167 57.4375 75.125C58.6042 75.7917 59.625 76.2083 60.5 76.375C61.375 75.75 62.2708 74.9167 63.1875 73.875C64.1458 72.7917 64.8542 71.7083 65.3125 70.625C63.8958 70.4167 62.625 70.0833 61.5 69.625C60.4167 69.125 59.5 68.5 58.75 67.75C56.3333 65.2917 55.3125 62.5208 55.6875 59.4375C56.1042 56.3125 57.8958 53.1875 61.0625 50.0625L70.125 40.9375C73.1667 37.8958 76.2083 36.2083 79.25 35.875C82.3333 35.5 85.125 36.5208 87.625 38.9375C90.0833 41.3958 91.1458 44.1667 90.8125 47.25C90.5208 50.3333 88.7917 53.3958 85.625 56.4375L79.1875 62.875C79.6875 64.0833 79.9375 65.5208 79.9375 67.1875C79.9792 68.8125 79.7292 70.4167 79.1875 72L90.375 60.9375C94.9167 56.3958 97.3542 51.7917 97.6875 47.125C98.0208 42.4583 96.2083 38.1458 92.25 34.1875Z" fill="white"/>
</svg>
