<svg xmlns="http://www.w3.org/2000/svg" width="24" height="24"><path style="stroke:none;fill-rule:nonzero;fill:#fff;fill-opacity:1" d="M12 23.05c1.633 0 3.168-.292 4.605-.882a12.22 12.22 0 0 0 3.82-2.438 11.467 11.467 0 0 0 2.59-3.582c.626-1.363.938-2.808.938-4.347a10.2 10.2 0 0 0-.937-4.332 11.53 11.53 0 0 0-2.59-3.598 12.361 12.361 0 0 0-3.82-2.437A12.166 12.166 0 0 0 11.987.55c-1.633 0-3.172.293-4.617.883A12.307 12.307 0 0 0 3.562 3.87 11.523 11.523 0 0 0 .985 7.465 10.2 10.2 0 0 0 .047 11.8c0 1.539.312 2.984.937 4.347a11.467 11.467 0 0 0 2.59 3.582 12.236 12.236 0 0 0 3.809 2.438c1.445.59 2.984.883 4.617.883Zm0-1.874a10.222 10.222 0 0 1-7.055-2.734 9.548 9.548 0 0 1-2.133-2.989 8.83 8.83 0 0 1-.761-3.652c0-1.301.254-2.52.761-3.649A9.52 9.52 0 0 1 4.946 5.16 9.82 9.82 0 0 1 8.11 3.156c1.204-.488 2.496-.73 3.88-.73 1.382 0 2.675.242 3.878.73a9.701 9.701 0 0 1 3.176 2.004 9.432 9.432 0 0 1 2.145 2.992 8.685 8.685 0 0 1 .773 3.649c0 1.3-.258 2.52-.773 3.652a9.22 9.22 0 0 1-2.133 2.988A10.222 10.222 0 0 1 12 21.176Zm-5.742-4.18c.734.684 1.539.996 2.414.938.875-.059 1.738-.489 2.59-1.29L13.02 15c.859-.816 1.324-1.637 1.394-2.46.07-.83-.266-1.59-1.008-2.282a2.837 2.837 0 0 0-.62-.473 1.65 1.65 0 0 0-.575-.234 3.175 3.175 0 0 0-.516.453c-.172.184-.3.371-.386.562.265.036.5.098.703.188a1.6 1.6 0 0 1 .527.32c.453.434.645.926.574 1.477-.07.543-.406 1.094-1.008 1.644l-1.687 1.61c-.578.535-1.156.836-1.734.894-.57.059-1.086-.12-1.547-.543-.461-.433-.664-.922-.61-1.465.063-.543.387-1.09.973-1.632l1.207-1.125c-.09-.243-.14-.5-.14-.762 0-.293.046-.574.14-.848l-2.098 1.953c-.843.801-1.296 1.614-1.359 2.438-.063.82.273 1.582 1.008 2.281Zm11.05-10.433c-.734-.684-1.538-.997-2.413-.938-.875.059-1.739.488-2.59 1.29l-1.746 1.644c-.868.816-1.336 1.636-1.407 2.46-.07.825.266 1.583 1.008 2.282.203.199.41.363.621.484.219.117.41.192.574.223.184-.13.356-.278.504-.442.164-.171.301-.363.399-.574a3.189 3.189 0 0 1-.715-.176 1.742 1.742 0 0 1-.516-.332c-.453-.433-.644-.921-.574-1.464.078-.551.414-1.106 1.008-1.657l1.7-1.61c.57-.534 1.14-.835 1.71-.894.578-.066 1.102.114 1.57.543.461.434.66.922.598 1.465-.055.543-.379 1.086-.973 1.621l-1.207 1.137c.094.215.141.469.141.762.008.285-.04.57-.14.847l2.097-1.953c.852-.8 1.309-1.613 1.371-2.437.063-.82-.277-1.582-1.02-2.281Zm0 0"/></svg>