<svg width="18" height="18" viewBox="0 0 18 18" fill="none" xmlns="http://www.w3.org/2000/svg">
<path d="M9.09375 6.07812L8.05469 7.13281C8.57031 7.17448 9.0026 7.27083 9.35156 7.42188C9.70573 7.57292 10.0104 7.77604 10.2656 8.03125C10.7188 8.48958 11.0208 8.99479 11.1719 9.54688C11.3229 10.0938 11.3229 10.6406 11.1719 11.1875C11.026 11.7344 10.7266 12.2344 10.2734 12.6875L7.71875 15.2344C7.26562 15.6875 6.76562 15.9896 6.21875 16.1406C5.67188 16.2917 5.1224 16.2917 4.57031 16.1406C4.02344 15.9948 3.52344 15.6953 3.07031 15.2422C2.61719 14.7839 2.3151 14.2812 2.16406 13.7344C2.01302 13.1823 2.01302 12.6328 2.16406 12.0859C2.3151 11.5391 2.61719 11.0391 3.07031 10.5859L4.60156 9.05469C4.49219 8.8099 4.42188 8.54948 4.39062 8.27344C4.36458 7.99219 4.3724 7.72396 4.41406 7.46875L2.11719 9.75781C1.4974 10.3828 1.08073 11.0729 0.867188 11.8281C0.658854 12.5833 0.658854 13.3411 0.867188 14.1016C1.07552 14.8568 1.49479 15.5495 2.125 16.1797C2.76042 16.8151 3.45573 17.237 4.21094 17.4453C4.97135 17.6536 5.72917 17.651 6.48438 17.4375C7.23958 17.2292 7.92708 16.8151 8.54688 16.1953L11.2188 13.5156C11.8438 12.8906 12.2604 12.2005 12.4688 11.4453C12.6823 10.6901 12.6849 9.9349 12.4766 9.17969C12.2682 8.41927 11.8464 7.72396 11.2109 7.09375C10.9661 6.84375 10.6771 6.63542 10.3438 6.46875C10.0104 6.29688 9.59375 6.16667 9.09375 6.07812ZM8.89844 12.5156L9.9375 11.4609C9.42188 11.4193 8.98698 11.3229 8.63281 11.1719C8.28385 11.0208 7.98177 10.8177 7.72656 10.5625C7.26823 10.1042 6.96354 9.60156 6.8125 9.05469C6.66146 8.5026 6.66146 7.95312 6.8125 7.40625C6.96354 6.85938 7.26562 6.35938 7.71875 5.90625L10.2656 3.35938C10.724 2.90625 11.2266 2.60417 11.7734 2.45312C12.3203 2.30208 12.8672 2.30208 13.4141 2.45312C13.9609 2.59896 14.4635 2.90104 14.9219 3.35938C15.375 3.8125 15.6771 4.3151 15.8281 4.86719C15.9792 5.41406 15.9792 5.96094 15.8281 6.50781C15.6771 7.05469 15.375 7.55469 14.9219 8.00781L13.3906 9.53906C13.5 9.78906 13.5677 10.0521 13.5938 10.3281C13.625 10.6042 13.6198 10.8698 13.5781 11.125L15.875 8.83594C16.4948 8.21094 16.9089 7.52083 17.1172 6.76562C17.3307 6.01042 17.3333 5.25521 17.125 4.5C16.9167 3.73958 16.4974 3.04427 15.8672 2.41406C15.2318 1.77865 14.5339 1.35677 13.7734 1.14844C13.0182 0.940104 12.263 0.942708 11.5078 1.15625C10.7526 1.36458 10.0625 1.78125 9.4375 2.40625L6.77344 5.07812C6.14844 5.70312 5.72917 6.39323 5.51562 7.14844C5.30729 7.90365 5.30729 8.66146 5.51562 9.42188C5.72396 10.1771 6.14583 10.8698 6.78125 11.5C7.02604 11.75 7.3151 11.9609 7.64844 12.1328C7.98177 12.2995 8.39844 12.4271 8.89844 12.5156Z" fill="white"/>
</svg>
