<svg width="116" height="116" viewBox="0 0 116 116" fill="none" xmlns="http://www.w3.org/2000/svg">
<path d="M20.5625 115.5H96.375C102.917 115.5 107.812 113.875 111.062 110.625C114.354 107.417 116 102.583 116 96.125V19.8125C116 13.3542 114.354 8.52083 111.062 5.3125C107.812 2.0625 102.917 0.4375 96.375 0.4375H20.5625C14.0208 0.4375 9.10417 2.0625 5.8125 5.3125C2.5625 8.52083 0.9375 13.3542 0.9375 19.8125V96.125C0.9375 102.583 2.5625 107.417 5.8125 110.625C9.10417 113.875 14.0208 115.5 20.5625 115.5ZM35 84.4375C35 83.3958 35.25 82.5417 35.75 81.875C36.2917 81.1667 37.1667 80.625 38.375 80.25C40.5417 79.625 42.4583 78.3958 44.125 76.5625C45.8333 74.6875 46.8333 72.3333 47.125 69.5C47.2083 68.625 47.2292 67.9167 47.1875 67.375H38.75C37.7083 67.375 36.8542 67.0625 36.1875 66.4375C35.5208 65.7708 35.1875 64.9167 35.1875 63.875C35.1875 62.8333 35.5208 62 36.1875 61.375C36.8542 60.75 37.7083 60.4375 38.75 60.4375H46.1875C45.9792 59.4792 45.7292 58.5625 45.4375 57.6875C45.1875 56.7708 44.9583 55.8333 44.75 54.875H38.75C37.7083 54.875 36.8542 54.5625 36.1875 53.9375C35.5208 53.2708 35.1875 52.4167 35.1875 51.375C35.1875 50.3333 35.5208 49.5 36.1875 48.875C36.8542 48.25 37.7083 47.9375 38.75 47.9375H43.6875C43.6458 47.6875 43.625 47.4583 43.625 47.25C43.625 47.0417 43.625 46.8125 43.625 46.5625C43.625 40.4792 45.5208 35.6458 49.3125 32.0625C53.1458 28.4792 58.375 26.6875 65 26.6875C66.9583 26.6875 68.8333 26.8125 70.625 27.0625C72.4583 27.3125 74.1458 27.75 75.6875 28.375C77.7708 29.2083 78.8125 30.5208 78.8125 32.3125C78.8125 33.3958 78.5 34.25 77.875 34.875C77.25 35.4583 76.3333 35.7292 75.125 35.6875C74.0833 35.5625 72.8125 35.3125 71.3125 34.9375C69.8125 34.5208 67.875 34.3125 65.5 34.3125C61.25 34.3125 57.9375 35.3958 55.5625 37.5625C53.2292 39.7292 52.0625 42.5417 52.0625 46C52.0625 46.3333 52.0625 46.6667 52.0625 47C52.0625 47.3333 52.0833 47.6458 52.125 47.9375H70.8125C71.8958 47.9375 72.7708 48.25 73.4375 48.875C74.1042 49.5 74.4375 50.3333 74.4375 51.375C74.4375 52.4167 74.1042 53.2708 73.4375 53.9375C72.7708 54.5625 71.8958 54.875 70.8125 54.875H53.3125C53.5208 55.7917 53.75 56.7083 54 57.625C54.25 58.5 54.5 59.4375 54.75 60.4375H70.8125C71.8958 60.4375 72.7708 60.75 73.4375 61.375C74.1042 62 74.4375 62.8333 74.4375 63.875C74.4375 64.9167 74.1042 65.7708 73.4375 66.4375C72.7708 67.0625 71.8958 67.375 70.8125 67.375H55.5C55.4583 67.875 55.4167 68.375 55.375 68.875C55.375 69.3333 55.3333 69.7917 55.25 70.25C54.9583 72.375 54.3542 74.375 53.4375 76.25C52.5208 78.0833 51.375 79.5625 50 80.6875H77.8125C78.9792 80.6875 79.9167 81.0417 80.625 81.75C81.375 82.4167 81.75 83.3125 81.75 84.4375C81.75 85.6042 81.375 86.5417 80.625 87.25C79.9167 87.9167 78.9792 88.25 77.8125 88.25H38.8125C37.6875 88.25 36.7708 87.9167 36.0625 87.25C35.3542 86.5417 35 85.6042 35 84.4375Z" fill="white"/>
</svg>
