<svg xmlns="http://www.w3.org/2000/svg" width="24" height="24"><path style="stroke:none;fill-rule:nonzero;fill:#fff;fill-opacity:1" d="M2.672 23.102h18.64c.387 0 .708-.098.97-.29a.867.867 0 0 0 .39-.75.867.867 0 0 0-.39-.75c-.262-.183-.583-.273-.97-.273H6.283v-.062a4.702 4.702 0 0 0 1.984-1.09 5.57 5.57 0 0 0 1.375-1.91c.332-.762.5-1.594.5-2.5 0-.786-.082-1.5-.25-2.141a19.526 19.526 0 0 0-.579-1.875 21.43 21.43 0 0 1-.578-1.887 8.632 8.632 0 0 1-.25-2.16c0-.969.27-1.812.813-2.539.543-.734 1.324-1.305 2.344-1.71 1.03-.419 2.27-.626 3.718-.626.887 0 1.625.047 2.22.148.593.09 1.089.188 1.483.29.395.09.735.136 1.016.136.395 0 .688-.086.875-.25a.86.86 0 0 0 .297-.675.896.896 0 0 0-.313-.676c-.199-.192-.515-.36-.953-.5a11.975 11.975 0 0 0-2.25-.461c-.8-.09-1.672-.137-2.609-.137-2 0-3.723.293-5.172.887-1.45.582-2.566 1.41-3.36 2.488-.78 1.074-1.171 2.34-1.171 3.8 0 .7.09 1.4.266 2.098.187.7.394 1.391.625 2.075.23.675.433 1.336.609 1.976.187.64.281 1.254.281 1.836 0 .942-.215 1.774-.64 2.489a5.43 5.43 0 0 1-1.704 1.773c-.699.469-1.464.793-2.296.977-.426.109-.739.257-.938.449-.2.191-.297.449-.297.761 0 .317.125.579.375.778.25.199.574.3.969.3ZM1.562 9.449c0 .262.11.477.329.653.23.171.5.261.812.261h15.235c.312 0 .578-.09.796-.261.23-.176.344-.391.344-.653 0-.25-.113-.46-.344-.636a1.19 1.19 0 0 0-.797-.274H2.704c-.312 0-.582.09-.812.274a.796.796 0 0 0-.329.636Zm0 4.762c0 .25.11.469.329.652.23.176.5.262.812.262h15.235c.312 0 .578-.09.796-.262.23-.183.344-.402.344-.652 0-.258-.113-.473-.344-.649a1.238 1.238 0 0 0-.797-.261H2.704c-.312 0-.582.086-.812.261-.215.172-.336.407-.329.649Zm0 0"/></svg>