<svg width="16" height="17" viewBox="0 0 16 17" fill="none" xmlns="http://www.w3.org/2000/svg">
<path d="M8 16.3281C9.08854 16.3281 10.112 16.1198 11.0703 15.7031C12.0339 15.2865 12.8828 14.7109 13.6172 13.9766C14.3516 13.2422 14.9271 12.3958 15.3438 11.4375C15.7604 10.474 15.9688 9.44792 15.9688 8.35938C15.9688 7.27083 15.7604 6.2474 15.3438 5.28906C14.9271 4.32552 14.3516 3.47656 13.6172 2.74219C12.8828 2.00781 12.0339 1.43229 11.0703 1.01562C10.1068 0.598958 9.08073 0.390625 7.99219 0.390625C6.90365 0.390625 5.8776 0.598958 4.91406 1.01562C3.95573 1.43229 3.10938 2.00781 2.375 2.74219C1.64583 3.47656 1.07292 4.32552 0.65625 5.28906C0.239583 6.2474 0.03125 7.27083 0.03125 8.35938C0.03125 9.44792 0.239583 10.474 0.65625 11.4375C1.07292 12.3958 1.64844 13.2422 2.38281 13.9766C3.11719 14.7109 3.96354 15.2865 4.92188 15.7031C5.88542 16.1198 6.91146 16.3281 8 16.3281ZM8 15C7.07812 15 6.21615 14.8281 5.41406 14.4844C4.61198 14.1406 3.90625 13.6667 3.29688 13.0625C2.69271 12.4531 2.21875 11.7474 1.875 10.9453C1.53646 10.1432 1.36719 9.28125 1.36719 8.35938C1.36719 7.4375 1.53646 6.57552 1.875 5.77344C2.21875 4.97135 2.69271 4.26562 3.29688 3.65625C3.90104 3.04688 4.60417 2.57292 5.40625 2.23438C6.20833 1.89062 7.07031 1.71875 7.99219 1.71875C8.91406 1.71875 9.77604 1.89062 10.5781 2.23438C11.3854 2.57292 12.0911 3.04688 12.6953 3.65625C13.3047 4.26562 13.7812 4.97135 14.125 5.77344C14.4688 6.57552 14.6406 7.4375 14.6406 8.35938C14.6406 9.28125 14.4688 10.1432 14.125 10.9453C13.7865 11.7474 13.3125 12.4531 12.7031 13.0625C12.0938 13.6667 11.388 14.1406 10.5859 14.4844C9.78385 14.8281 8.92188 15 8 15ZM5.14844 11.5781C5.14844 11.7135 5.1901 11.8255 5.27344 11.9141C5.35677 11.9974 5.46875 12.0391 5.60938 12.0391H10.3281C10.4688 12.0391 10.5833 11.9974 10.6719 11.9141C10.7604 11.8307 10.8047 11.7188 10.8047 11.5781C10.8047 11.4427 10.7604 11.3333 10.6719 11.25C10.5833 11.1667 10.4688 11.125 10.3281 11.125H6.96094C7.1224 10.9844 7.26042 10.8047 7.375 10.5859C7.48958 10.362 7.5625 10.1224 7.59375 9.86719C7.60417 9.80469 7.60938 9.74479 7.60938 9.6875C7.61458 9.625 7.61979 9.5651 7.625 9.50781H9.48438C9.61458 9.50781 9.71875 9.46875 9.79688 9.39062C9.88021 9.3125 9.92188 9.21094 9.92188 9.08594C9.92188 8.96094 9.88021 8.86198 9.79688 8.78906C9.71875 8.71094 9.61458 8.67188 9.48438 8.67188H7.53125C7.50521 8.55208 7.47656 8.4375 7.44531 8.32812C7.41406 8.21354 7.38542 8.10156 7.35938 7.99219H9.48438C9.61458 7.99219 9.71875 7.95312 9.79688 7.875C9.88021 7.79688 9.92188 7.69531 9.92188 7.57031C9.92188 7.44531 9.88021 7.34635 9.79688 7.27344C9.71875 7.19531 9.61458 7.15625 9.48438 7.15625H7.21875C7.21354 7.11979 7.21094 7.08073 7.21094 7.03906C7.21094 6.9974 7.21094 6.95833 7.21094 6.92188C7.21094 6.5 7.35156 6.15885 7.63281 5.89844C7.91927 5.63281 8.32031 5.5 8.83594 5.5C9.1224 5.5 9.35677 5.52604 9.53906 5.57812C9.72656 5.625 9.88281 5.65625 10.0078 5.67188C10.1484 5.67708 10.2578 5.64323 10.3359 5.57031C10.4141 5.49219 10.4531 5.38802 10.4531 5.25781C10.4531 5.03906 10.3255 4.88021 10.0703 4.78125C9.88802 4.70833 9.6875 4.65625 9.46875 4.625C9.25 4.59375 9.02083 4.57812 8.78125 4.57812C7.97396 4.57812 7.33854 4.79688 6.875 5.23438C6.41667 5.66667 6.1875 6.25 6.1875 6.98438C6.1875 7.01562 6.1875 7.04427 6.1875 7.07031C6.1875 7.09635 6.1901 7.125 6.19531 7.15625H5.60156C5.47656 7.15625 5.3724 7.19531 5.28906 7.27344C5.21094 7.34635 5.17188 7.44531 5.17188 7.57031C5.17188 7.69531 5.21094 7.79688 5.28906 7.875C5.3724 7.95312 5.47656 7.99219 5.60156 7.99219H6.32812C6.35417 8.10677 6.38281 8.22135 6.41406 8.33594C6.44531 8.44531 6.47396 8.55729 6.5 8.67188H5.60156C5.47656 8.67188 5.3724 8.71094 5.28906 8.78906C5.21094 8.86198 5.17188 8.96094 5.17188 9.08594C5.17188 9.21094 5.21094 9.3125 5.28906 9.39062C5.3724 9.46875 5.47656 9.50781 5.60156 9.50781H6.625C6.63021 9.57031 6.6276 9.65625 6.61719 9.76562C6.58073 10.1094 6.46094 10.3958 6.25781 10.625C6.05469 10.849 5.82031 10.9974 5.55469 11.0703C5.40885 11.1172 5.30469 11.1823 5.24219 11.2656C5.17969 11.3438 5.14844 11.4479 5.14844 11.5781Z" fill="white"/>
</svg>
