<svg width="14" height="20" viewBox="0 0 14 20" fill="none" xmlns="http://www.w3.org/2000/svg">
<path d="M3.44531 9.32812C3.30469 9.32812 3.1849 9.27865 3.08594 9.17969C2.98698 9.08073 2.9375 8.96354 2.9375 8.82812C2.9375 8.6875 2.98698 8.56771 3.08594 8.46875C3.1849 8.36458 3.30469 8.3125 3.44531 8.3125H10.5547C10.6953 8.3125 10.8151 8.36458 10.9141 8.46875C11.013 8.56771 11.0625 8.6875 11.0625 8.82812C11.0625 8.96354 11.013 9.08073 10.9141 9.17969C10.8151 9.27865 10.6953 9.32812 10.5547 9.32812H3.44531ZM3.44531 12.1875C3.30469 12.1875 3.1849 12.138 3.08594 12.0391C2.98698 11.9401 2.9375 11.8203 2.9375 11.6797C2.9375 11.5391 2.98698 11.4219 3.08594 11.3281C3.1849 11.2292 3.30469 11.1797 3.44531 11.1797H10.5547C10.6953 11.1797 10.8151 11.2292 10.9141 11.3281C11.013 11.4219 11.0625 11.5391 11.0625 11.6797C11.0625 11.8203 11.013 11.9401 10.9141 12.0391C10.8151 12.138 10.6953 12.1875 10.5547 12.1875H3.44531ZM3.44531 15.2031C3.30469 15.2031 3.1849 15.1536 3.08594 15.0547C2.98698 14.9505 2.9375 14.8307 2.9375 14.6953C2.9375 14.5547 2.98698 14.4375 3.08594 14.3438C3.1849 14.2448 3.30469 14.1953 3.44531 14.1953H7.02344C7.16406 14.1953 7.28125 14.2448 7.375 14.3438C7.47396 14.4375 7.52344 14.5547 7.52344 14.6953C7.52344 14.8307 7.47396 14.9505 7.375 15.0547C7.27604 15.1536 7.15885 15.2031 7.02344 15.2031H3.44531ZM2.85156 19.375H11.1484C11.9557 19.375 12.5599 19.1693 12.9609 18.7578C13.3672 18.3516 13.5703 17.7396 13.5703 16.9219V5.07031C13.5703 4.2526 13.3724 3.64062 12.9766 3.23438C12.5807 2.82292 11.9974 2.61719 11.2266 2.61719H11.0469C11.0469 2.63281 11.0469 2.65104 11.0469 2.67188C11.0469 2.6875 11.0469 2.70312 11.0469 2.71875V3.64062C11.0469 4.13021 10.8958 4.53385 10.5938 4.85156C10.2917 5.16406 9.89844 5.32031 9.41406 5.32031H4.58594C4.10156 5.32031 3.70833 5.16406 3.40625 4.85156C3.10417 4.53385 2.95312 4.13021 2.95312 3.64062V2.71875C2.95312 2.70312 2.95312 2.6875 2.95312 2.67188C2.95312 2.65104 2.95312 2.63281 2.95312 2.61719H2.77344C2.0026 2.61719 1.41927 2.82292 1.02344 3.23438C0.627604 3.64062 0.429688 4.2526 0.429688 5.07031V16.9219C0.429688 17.7396 0.630208 18.3516 1.03125 18.7578C1.4375 19.1693 2.04427 19.375 2.85156 19.375ZM4.58594 4.41406H9.41406C9.64323 4.41406 9.82031 4.34635 9.94531 4.21094C10.0755 4.07552 10.1406 3.88542 10.1406 3.64062V2.82031C10.1406 2.57552 10.0755 2.38542 9.94531 2.25C9.82031 2.11458 9.64323 2.04688 9.41406 2.04688H8.69531C8.66927 1.60417 8.49219 1.22656 8.16406 0.914062C7.84115 0.601562 7.45312 0.445312 7 0.445312C6.54688 0.445312 6.15625 0.601562 5.82812 0.914062C5.50521 1.22656 5.33073 1.60417 5.30469 2.04688H4.58594C4.35677 2.04688 4.17708 2.11458 4.04688 2.25C3.92188 2.38542 3.85938 2.57552 3.85938 2.82031V3.64062C3.85938 3.88542 3.92188 4.07552 4.04688 4.21094C4.17708 4.34635 4.35677 4.41406 4.58594 4.41406ZM7 2.78906C6.8125 2.78906 6.65104 2.72135 6.51562 2.58594C6.38542 2.45052 6.32031 2.29167 6.32031 2.10938C6.32031 1.91667 6.38542 1.75521 6.51562 1.625C6.65104 1.48958 6.8125 1.42188 7 1.42188C7.1875 1.42188 7.34635 1.48958 7.47656 1.625C7.61198 1.75521 7.67969 1.91667 7.67969 2.10938C7.67969 2.29167 7.61198 2.45052 7.47656 2.58594C7.34635 2.72135 7.1875 2.78906 7 2.78906Z" fill="white"/>
</svg>
