<?xml version="1.0" encoding="UTF-8"?>
<svg xmlns="http://www.w3.org/2000/svg" xmlns:xlink="http://www.w3.org/1999/xlink" width="24" height="19.5" viewBox="0 0 24 19.5" version="1.1">
<g id="surface1">
<path style=" stroke:none;fill-rule:nonzero;fill:rgb(100%,100%,100%);fill-opacity:1;" d="M 6.84375 3.410156 L 22.851562 3.410156 C 23.117188 3.410156 23.339844 3.320312 23.519531 3.140625 C 23.707031 2.960938 23.800781 2.738281 23.800781 2.472656 C 23.800781 2.207031 23.707031 1.984375 23.519531 1.804688 C 23.339844 1.617188 23.117188 1.523438 22.851562 1.523438 L 6.84375 1.523438 C 6.578125 1.523438 6.351562 1.617188 6.164062 1.804688 C 5.984375 1.984375 5.894531 2.207031 5.894531 2.472656 C 5.894531 2.738281 5.984375 2.960938 6.164062 3.140625 C 6.351562 3.320312 6.578125 3.410156 6.84375 3.410156 Z M 6.84375 10.5 L 22.851562 10.5 C 23.117188 10.5 23.339844 10.410156 23.519531 10.230469 C 23.707031 10.042969 23.800781 9.816406 23.800781 9.550781 C 23.800781 9.285156 23.707031 9.0625 23.519531 8.882812 C 23.339844 8.703125 23.117188 8.613281 22.851562 8.613281 L 6.84375 8.613281 C 6.578125 8.613281 6.351562 8.703125 6.164062 8.882812 C 5.984375 9.0625 5.894531 9.285156 5.894531 9.550781 C 5.894531 9.816406 5.984375 10.042969 6.164062 10.230469 C 6.351562 10.410156 6.578125 10.5 6.84375 10.5 Z M 6.84375 17.578125 L 22.851562 17.578125 C 23.117188 17.578125 23.339844 17.488281 23.519531 17.308594 C 23.707031 17.128906 23.800781 16.90625 23.800781 16.640625 C 23.800781 16.375 23.707031 16.152344 23.519531 15.972656 C 23.339844 15.785156 23.117188 15.691406 22.851562 15.691406 L 6.84375 15.691406 C 6.578125 15.691406 6.351562 15.785156 6.164062 15.972656 C 5.984375 16.152344 5.894531 16.375 5.894531 16.640625 C 5.894531 16.90625 5.984375 17.128906 6.164062 17.308594 C 6.351562 17.488281 6.578125 17.578125 6.84375 17.578125 Z M 1.664062 3.9375 C 2.070312 3.9375 2.417969 3.796875 2.707031 3.515625 C 2.996094 3.226562 3.140625 2.878906 3.140625 2.472656 C 3.140625 2.058594 2.996094 1.710938 2.707031 1.429688 C 2.417969 1.140625 2.070312 0.996094 1.664062 0.996094 C 1.257812 0.996094 0.910156 1.140625 0.621094 1.429688 C 0.332031 1.710938 0.1875 2.058594 0.1875 2.472656 C 0.1875 2.878906 0.332031 3.226562 0.621094 3.515625 C 0.910156 3.796875 1.257812 3.9375 1.664062 3.9375 Z M 1.664062 11.027344 C 2.070312 11.027344 2.417969 10.882812 2.707031 10.59375 C 2.996094 10.304688 3.140625 9.957031 3.140625 9.550781 C 3.140625 9.144531 2.996094 8.796875 2.707031 8.507812 C 2.417969 8.21875 2.070312 8.074219 1.664062 8.074219 C 1.257812 8.074219 0.910156 8.21875 0.621094 8.507812 C 0.332031 8.796875 0.1875 9.144531 0.1875 9.550781 C 0.1875 9.957031 0.332031 10.304688 0.621094 10.59375 C 0.910156 10.882812 1.257812 11.027344 1.664062 11.027344 Z M 1.664062 18.117188 C 2.070312 18.117188 2.417969 17.972656 2.707031 17.683594 C 2.996094 17.394531 3.140625 17.046875 3.140625 16.640625 C 3.140625 16.226562 2.996094 15.878906 2.707031 15.597656 C 2.417969 15.308594 2.070312 15.164062 1.664062 15.164062 C 1.257812 15.164062 0.910156 15.308594 0.621094 15.597656 C 0.332031 15.878906 0.1875 16.226562 0.1875 16.640625 C 0.1875 17.046875 0.332031 17.394531 0.621094 17.683594 C 0.910156 17.972656 1.257812 18.117188 1.664062 18.117188 Z M 1.664062 18.117188 "/>
</g>
</svg>
