<svg width="107" height="135" viewBox="0 0 107 135" fill="none" xmlns="http://www.w3.org/2000/svg">
<path d="M26.3125 35.125C27.9375 35.125 29.3125 34.5625 30.4375 33.4375C31.5625 32.3125 32.125 30.9375 32.125 29.3125C32.125 27.7292 31.5625 26.375 30.4375 25.25C29.3125 24.0833 27.9375 23.5 26.3125 23.5C24.7292 23.5 23.3542 24.0833 22.1875 25.25C21.0625 26.375 20.5 27.7292 20.5 29.3125C20.5 30.8958 21.0625 32.2708 22.1875 33.4375C23.3542 34.5625 24.7292 35.125 26.3125 35.125ZM26.3125 54.25C27.9375 54.25 29.3125 53.6875 30.4375 52.5625C31.5625 51.3958 32.125 50.0208 32.125 48.4375C32.125 46.8125 31.5625 45.4583 30.4375 44.375C29.3125 43.25 27.9375 42.6875 26.3125 42.6875C24.6875 42.6875 23.3125 43.25 22.1875 44.375C21.0625 45.5 20.5 46.8542 20.5 48.4375C20.5 50.0208 21.0625 51.3958 22.1875 52.5625C23.3125 53.6875 24.6875 54.25 26.3125 54.25ZM26.3125 74.25C27.9375 74.25 29.3125 73.6875 30.4375 72.5625C31.5625 71.4375 32.125 70.0625 32.125 68.4375C32.125 66.8125 31.5625 65.4375 30.4375 64.3125C29.3125 63.1875 27.9375 62.625 26.3125 62.625C24.7292 62.625 23.3542 63.2083 22.1875 64.375C21.0625 65.5 20.5 66.8542 20.5 68.4375C20.5 70.0208 21.0625 71.3958 22.1875 72.5625C23.3542 73.6875 24.7292 74.25 26.3125 74.25ZM43.9375 33.25H82.625C83.6667 33.25 84.5625 32.875 85.3125 32.125C86.1042 31.3333 86.5 30.3958 86.5 29.3125C86.5 28.2708 86.1042 27.375 85.3125 26.625C84.5625 25.8333 83.6667 25.4375 82.625 25.4375H43.9375C42.8542 25.4375 41.9375 25.8333 41.1875 26.625C40.4375 27.375 40.0625 28.2708 40.0625 29.3125C40.0625 30.3958 40.4375 31.3333 41.1875 32.125C41.9375 32.875 42.8542 33.25 43.9375 33.25ZM43.9375 52.3125H82.625C83.7083 52.3125 84.625 51.9375 85.375 51.1875C86.125 50.4375 86.5 49.5208 86.5 48.4375C86.5 47.3542 86.125 46.4375 85.375 45.6875C84.625 44.9375 83.7083 44.5625 82.625 44.5625H43.9375C42.8542 44.5625 41.9375 44.9375 41.1875 45.6875C40.4375 46.4375 40.0625 47.3542 40.0625 48.4375C40.0625 49.5208 40.4375 50.4375 41.1875 51.1875C41.9375 51.9375 42.8542 52.3125 43.9375 52.3125ZM43.9375 72.3125H82.625C83.6667 72.3125 84.5625 71.9375 85.3125 71.1875C86.1042 70.4375 86.5 69.5208 86.5 68.4375C86.5 67.3542 86.125 66.4375 85.375 65.6875C84.625 64.9375 83.7083 64.5625 82.625 64.5625H43.9375C42.8542 64.5625 41.9375 64.9375 41.1875 65.6875C40.4375 66.4375 40.0625 67.3542 40.0625 68.4375C40.0625 69.5208 40.4375 70.4375 41.1875 71.1875C41.9375 71.9375 42.8542 72.3125 43.9375 72.3125ZM0.9375 115.312C0.9375 121.854 2.54167 126.75 5.75 130C9 133.25 13.8542 134.875 20.3125 134.875H86.6875C93.1458 134.875 97.9792 133.25 101.188 130C104.438 126.75 106.062 121.854 106.062 115.312V20.5C106.062 14 104.438 9.10417 101.188 5.8125C97.9792 2.52083 93.1458 0.875 86.6875 0.875H20.3125C13.8542 0.875 9 2.52083 5.75 5.8125C2.54167 9.10417 0.9375 14 0.9375 20.5V115.312ZM11 115.125V20.6875C11 17.5625 11.8125 15.1667 13.4375 13.5C15.1042 11.7917 17.5625 10.9375 20.8125 10.9375H86.1875C89.4375 10.9375 91.875 11.7917 93.5 13.5C95.1667 15.1667 96 17.5625 96 20.6875V115.125C96 118.25 95.1667 120.646 93.5 122.312C91.875 123.979 89.4375 124.812 86.1875 124.812H20.8125C17.5625 124.812 15.1042 123.979 13.4375 122.312C11.8125 120.646 11 118.25 11 115.125Z" fill="white"/>
</svg>
