<svg width="20" height="15" viewBox="0 0 20 15" fill="none" xmlns="http://www.w3.org/2000/svg">
<path d="M4.49219 4.44531C4.69531 4.44531 4.86719 4.375 5.00781 4.23438C5.14844 4.08854 5.21875 3.91667 5.21875 3.71875C5.21875 3.51562 5.14844 3.34375 5.00781 3.20312C4.86719 3.0625 4.69531 2.99219 4.49219 2.99219C4.29948 2.99219 4.13021 3.0651 3.98438 3.21094C3.83854 3.35156 3.76562 3.52083 3.76562 3.71875C3.76562 3.91146 3.83854 4.08073 3.98438 4.22656C4.13021 4.3724 4.29948 4.44531 4.49219 4.44531ZM4.49219 6.83594C4.69531 6.83594 4.86719 6.76562 5.00781 6.625C5.14844 6.48438 5.21875 6.3125 5.21875 6.10938C5.21875 5.90625 5.14844 5.73438 5.00781 5.59375C4.86719 5.45312 4.69531 5.38281 4.49219 5.38281C4.29948 5.38281 4.13021 5.45573 3.98438 5.60156C3.83854 5.74219 3.76562 5.91146 3.76562 6.10938C3.76562 6.30729 3.83854 6.47917 3.98438 6.625C4.13021 6.76562 4.29948 6.83594 4.49219 6.83594ZM4.49219 9.21875C4.69531 9.21875 4.86719 9.14844 5.00781 9.00781C5.14844 8.86719 5.21875 8.69531 5.21875 8.49219C5.21875 8.29427 5.14844 8.125 5.00781 7.98438C4.86719 7.84375 4.69531 7.77344 4.49219 7.77344C4.29427 7.77344 4.1224 7.84375 3.97656 7.98438C3.83594 8.125 3.76562 8.29427 3.76562 8.49219C3.76562 8.69531 3.83594 8.86719 3.97656 9.00781C4.1224 9.14844 4.29427 9.21875 4.49219 9.21875ZM4.49219 11.7266C4.69531 11.7266 4.86719 11.6562 5.00781 11.5156C5.14844 11.3698 5.21875 11.1979 5.21875 11C5.21875 10.7969 5.14844 10.625 5.00781 10.4844C4.86719 10.3385 4.69531 10.2656 4.49219 10.2656C4.29948 10.2656 4.13021 10.3385 3.98438 10.4844C3.83854 10.6302 3.76562 10.8021 3.76562 11C3.76562 11.1927 3.83854 11.362 3.98438 11.5078C4.13021 11.6536 4.29948 11.7266 4.49219 11.7266ZM6.85156 4.19531H15.7891C15.9297 4.19531 16.0469 4.14844 16.1406 4.05469C16.2344 3.96094 16.2812 3.84896 16.2812 3.71875C16.2812 3.58333 16.2318 3.46875 16.1328 3.375C16.0391 3.27604 15.9245 3.22656 15.7891 3.22656H6.85156C6.71615 3.22656 6.59896 3.27604 6.5 3.375C6.40625 3.46875 6.35938 3.58333 6.35938 3.71875C6.35938 3.84896 6.40625 3.96094 6.5 4.05469C6.59375 4.14844 6.71094 4.19531 6.85156 4.19531ZM6.85156 6.59375H11.8047C11.9401 6.59375 12.0547 6.54688 12.1484 6.45312C12.2422 6.35938 12.2891 6.24479 12.2891 6.10938C12.2891 5.97396 12.2422 5.85938 12.1484 5.76562C12.0547 5.66667 11.9401 5.61719 11.8047 5.61719H6.85156C6.71615 5.61719 6.59896 5.66667 6.5 5.76562C6.40625 5.85938 6.35938 5.97396 6.35938 6.10938C6.35938 6.24479 6.40625 6.35938 6.5 6.45312C6.59896 6.54688 6.71615 6.59375 6.85156 6.59375ZM6.85156 8.98438H15.7891C15.9297 8.98438 16.0469 8.9375 16.1406 8.84375C16.2344 8.75 16.2812 8.63281 16.2812 8.49219C16.2812 8.36198 16.2344 8.25 16.1406 8.15625C16.0469 8.0625 15.9297 8.01562 15.7891 8.01562H6.85156C6.71094 8.01562 6.59375 8.0625 6.5 8.15625C6.40625 8.25 6.35938 8.36198 6.35938 8.49219C6.35938 8.63281 6.40625 8.75 6.5 8.84375C6.59375 8.9375 6.71094 8.98438 6.85156 8.98438ZM6.85156 11.4844H11.8047C11.9401 11.4844 12.0547 11.4375 12.1484 11.3438C12.2422 11.2448 12.2891 11.1302 12.2891 11C12.2891 10.8646 12.2422 10.75 12.1484 10.6562C12.0547 10.5625 11.9401 10.5156 11.8047 10.5156H6.85156C6.71094 10.5156 6.59375 10.5625 6.5 10.6562C6.40625 10.75 6.35938 10.8646 6.35938 11C6.35938 11.1302 6.40625 11.2448 6.5 11.3438C6.59896 11.4375 6.71615 11.4844 6.85156 11.4844ZM3.24219 14.5547H16.7578C17.5807 14.5547 18.1953 14.3516 18.6016 13.9453C19.0078 13.5443 19.2109 12.9427 19.2109 12.1406V2.59375C19.2109 1.79167 19.0078 1.1875 18.6016 0.78125C18.1953 0.375 17.5807 0.171875 16.7578 0.171875H3.24219C2.42448 0.171875 1.8099 0.375 1.39844 0.78125C0.992188 1.18229 0.789062 1.78646 0.789062 2.59375V12.1406C0.789062 12.9427 0.992188 13.5443 1.39844 13.9453C1.8099 14.3516 2.42448 14.5547 3.24219 14.5547ZM3.25781 13.2969C2.86719 13.2969 2.56771 13.1953 2.35938 12.9922C2.15104 12.7839 2.04688 12.4766 2.04688 12.0703V2.66406C2.04688 2.25781 2.15104 1.95052 2.35938 1.74219C2.56771 1.53385 2.86719 1.42969 3.25781 1.42969H16.7422C17.1276 1.42969 17.4245 1.53385 17.6328 1.74219C17.8464 1.95052 17.9531 2.25781 17.9531 2.66406V12.0703C17.9531 12.4766 17.8464 12.7839 17.6328 12.9922C17.4245 13.1953 17.1276 13.2969 16.7422 13.2969H3.25781Z" fill="white"/>
</svg>
