<svg width="128" height="128" viewBox="0 0 128 128" fill="none" xmlns="http://www.w3.org/2000/svg">
<path d="M63.9375 127.625C72.6458 127.625 80.8333 125.958 88.5 122.625C96.2083 119.292 103 114.688 108.875 108.812C114.75 102.938 119.354 96.1667 122.688 88.5C126.021 80.7917 127.688 72.5833 127.688 63.875C127.688 55.1667 126.021 46.9792 122.688 39.3125C119.354 31.6042 114.75 24.8125 108.875 18.9375C103 13.0625 96.2083 8.45833 88.5 5.125C80.7917 1.79167 72.5833 0.125 63.875 0.125C55.1667 0.125 46.9583 1.79167 39.25 5.125C31.5833 8.45833 24.8125 13.0625 18.9375 18.9375C13.1042 24.8125 8.52083 31.6042 5.1875 39.3125C1.85417 46.9792 0.1875 55.1667 0.1875 63.875C0.1875 72.5833 1.85417 80.7917 5.1875 88.5C8.52083 96.1667 13.125 102.938 19 108.812C24.875 114.688 31.6458 119.292 39.3125 122.625C47.0208 125.958 55.2292 127.625 63.9375 127.625ZM63.9375 117C56.5625 117 49.6667 115.625 43.25 112.875C36.8333 110.125 31.1875 106.333 26.3125 101.5C21.4792 96.625 17.6875 90.9792 14.9375 84.5625C12.2292 78.1458 10.875 71.25 10.875 63.875C10.875 56.5 12.2292 49.6042 14.9375 43.1875C17.6875 36.7708 21.4792 31.125 26.3125 26.25C31.1458 21.375 36.7708 17.5833 43.1875 14.875C49.6042 12.125 56.5 10.75 63.875 10.75C71.25 10.75 78.1458 12.125 84.5625 14.875C91.0208 17.5833 96.6667 21.375 101.5 26.25C106.375 31.125 110.188 36.7708 112.938 43.1875C115.688 49.6042 117.062 56.5 117.062 63.875C117.062 71.25 115.688 78.1458 112.938 84.5625C110.229 90.9792 106.438 96.625 101.562 101.5C96.6875 106.333 91.0417 110.125 84.625 112.875C78.2083 115.625 71.3125 117 63.9375 117ZM48.6875 47H95.5625C96.6042 47 97.4792 46.6458 98.1875 45.9375C98.9375 45.1875 99.3125 44.2708 99.3125 43.1875C99.3125 42.1042 98.9375 41.2083 98.1875 40.5C97.4792 39.7917 96.6042 39.4375 95.5625 39.4375H48.6875C47.6042 39.4375 46.6875 39.8125 45.9375 40.5625C45.2292 41.2708 44.875 42.1458 44.875 43.1875C44.875 44.2292 45.25 45.125 46 45.875C46.75 46.625 47.6458 47 48.6875 47ZM48.6875 88.375H95.5625C96.6042 88.375 97.4792 88.0208 98.1875 87.3125C98.9375 86.5625 99.3125 85.6458 99.3125 84.5625C99.3125 83.4792 98.9375 82.5833 98.1875 81.875C97.4792 81.1667 96.6042 80.8125 95.5625 80.8125H48.6875C47.6458 80.8125 46.75 81.1875 46 81.9375C45.25 82.6458 44.875 83.5208 44.875 84.5625C44.875 85.6458 45.2292 86.5625 45.9375 87.3125C46.6875 88.0208 47.6042 88.375 48.6875 88.375ZM48.6875 67.6875H95.5625C96.6042 67.6875 97.4792 67.3333 98.1875 66.625C98.9375 65.875 99.3125 64.9583 99.3125 63.875C99.3125 62.7917 98.9375 61.8958 98.1875 61.1875C97.4792 60.4792 96.6042 60.125 95.5625 60.125H48.6875C47.6458 60.125 46.75 60.5 46 61.25C45.25 61.9583 44.875 62.8333 44.875 63.875C44.875 64.9167 45.25 65.8125 46 66.5625C46.75 67.3125 47.6458 67.6875 48.6875 67.6875ZM33.625 48.5625C35.0833 48.5625 36.3333 48.0417 37.375 47C38.4583 45.9167 39 44.6458 39 43.1875C39 41.6875 38.4792 40.4167 37.4375 39.375C36.3958 38.3333 35.125 37.8125 33.625 37.8125C32.125 37.8125 30.8542 38.3333 29.8125 39.375C28.7708 40.4167 28.25 41.6875 28.25 43.1875C28.25 44.6875 28.7708 45.9583 29.8125 47C30.8542 48.0417 32.125 48.5625 33.625 48.5625ZM33.625 69.25C35.0833 69.25 36.3333 68.7292 37.375 67.6875C38.4583 66.6042 39 65.3333 39 63.875C39 62.4167 38.4583 61.1667 37.375 60.125C36.3333 59.0417 35.0833 58.5 33.625 58.5C32.125 58.5 30.8542 59.0208 29.8125 60.0625C28.7708 61.1042 28.25 62.375 28.25 63.875C28.25 65.375 28.7708 66.6458 29.8125 67.6875C30.8542 68.7292 32.125 69.25 33.625 69.25ZM33.625 89.9375C35.125 89.9375 36.3958 89.4167 37.4375 88.375C38.4792 87.3333 39 86.0625 39 84.5625C39 83.1042 38.4583 81.8542 37.375 80.8125C36.3333 79.7292 35.0833 79.1875 33.625 79.1875C32.125 79.1875 30.8542 79.7083 29.8125 80.75C28.7708 81.7917 28.25 83.0625 28.25 84.5625C28.25 86.0625 28.7708 87.3333 29.8125 88.375C30.8542 89.4167 32.125 89.9375 33.625 89.9375Z" fill="white"/>
</svg>
