<svg width="14" height="18" viewBox="0 0 14 18" fill="none" xmlns="http://www.w3.org/2000/svg">
<path d="M3.5 5.21094C3.29688 5.21094 3.11979 5.13802 2.96875 4.99219C2.82292 4.84635 2.75 4.66927 2.75 4.46094C2.75 4.26302 2.82292 4.08854 2.96875 3.9375C3.11979 3.78646 3.29688 3.71094 3.5 3.71094C3.70312 3.71094 3.8776 3.78646 4.02344 3.9375C4.17448 4.08333 4.25 4.25781 4.25 4.46094C4.25 4.66927 4.17448 4.84635 4.02344 4.99219C3.8776 5.13802 3.70312 5.21094 3.5 5.21094ZM3.5 7.67969C3.29167 7.67969 3.11458 7.60677 2.96875 7.46094C2.82292 7.3099 2.75 7.13281 2.75 6.92969C2.75 6.72135 2.82292 6.54688 2.96875 6.40625C3.11458 6.26042 3.29167 6.1875 3.5 6.1875C3.70312 6.1875 3.8776 6.25781 4.02344 6.39844C4.17448 6.53906 4.25 6.71615 4.25 6.92969C4.25 7.13281 4.17448 7.3099 4.02344 7.46094C3.8776 7.60677 3.70312 7.67969 3.5 7.67969ZM3.5 10.2578C3.29688 10.2578 3.11979 10.1849 2.96875 10.0391C2.82292 9.88802 2.75 9.71094 2.75 9.50781C2.75 9.30469 2.82292 9.13021 2.96875 8.98438C3.11979 8.83333 3.29688 8.75781 3.5 8.75781C3.70312 8.75781 3.8776 8.83073 4.02344 8.97656C4.17448 9.1224 4.25 9.29948 4.25 9.50781C4.25 9.71094 4.17448 9.88802 4.02344 10.0391C3.8776 10.1849 3.70312 10.2578 3.5 10.2578ZM5.77344 4.97656C5.63281 4.97656 5.51302 4.92708 5.41406 4.82812C5.3151 4.72396 5.26562 4.60156 5.26562 4.46094C5.26562 4.32552 5.3151 4.20833 5.41406 4.10938C5.51302 4.01042 5.63281 3.96094 5.77344 3.96094H10.75C10.8854 3.96094 11.0026 4.01042 11.1016 4.10938C11.2005 4.20833 11.25 4.32552 11.25 4.46094C11.25 4.60156 11.2005 4.72396 11.1016 4.82812C11.0026 4.92708 10.8854 4.97656 10.75 4.97656H5.77344ZM5.77344 7.42969C5.6276 7.42969 5.50521 7.38281 5.40625 7.28906C5.3125 7.1901 5.26562 7.07031 5.26562 6.92969C5.26562 6.78385 5.3125 6.66406 5.40625 6.57031C5.50521 6.47135 5.6276 6.42188 5.77344 6.42188H10.75C10.8906 6.42188 11.0078 6.47135 11.1016 6.57031C11.2005 6.66406 11.25 6.78385 11.25 6.92969C11.25 7.07031 11.2005 7.1901 11.1016 7.28906C11.0078 7.38281 10.8906 7.42969 10.75 7.42969H5.77344ZM5.77344 10.0078C5.63281 10.0078 5.51302 9.95833 5.41406 9.85938C5.3151 9.76042 5.26562 9.64323 5.26562 9.50781C5.26562 9.36719 5.3125 9.2474 5.40625 9.14844C5.50521 9.04948 5.6276 9 5.77344 9H10.75C10.8906 9 11.0078 9.04948 11.1016 9.14844C11.2005 9.2474 11.25 9.36719 11.25 9.50781C11.25 9.64323 11.2005 9.76042 11.1016 9.85938C11.0026 9.95833 10.8854 10.0078 10.75 10.0078H5.77344ZM0.429688 15.2891C0.429688 16.1068 0.630208 16.7188 1.03125 17.125C1.4375 17.5312 2.04427 17.7344 2.85156 17.7344H11.1484C11.9557 17.7344 12.5599 17.5312 12.9609 17.125C13.3672 16.7188 13.5703 16.1068 13.5703 15.2891V3.4375C13.5703 2.625 13.3672 2.01302 12.9609 1.60156C12.5599 1.1901 11.9557 0.984375 11.1484 0.984375H2.85156C2.04427 0.984375 1.4375 1.1901 1.03125 1.60156C0.630208 2.01302 0.429688 2.625 0.429688 3.4375V15.2891Z" fill="white"/>
</svg>
