<?xml version="1.0" encoding="UTF-8"?>
<svg xmlns="http://www.w3.org/2000/svg" xmlns:xlink="http://www.w3.org/1999/xlink" width="24" height="34.285714" viewBox="0 0 24 34.285714" version="1.1">
<g id="surface1">
<path style=" stroke:none;fill-rule:nonzero;fill:rgb(100%,100%,100%);fill-opacity:1;" d="M 6.175781 15.816406 C 5.851562 15.816406 5.574219 15.699219 5.34375 15.46875 C 5.113281 15.226562 4.996094 14.949219 4.996094 14.636719 C 4.996094 14.316406 5.113281 14.039062 5.34375 13.808594 C 5.574219 13.574219 5.851562 13.460938 6.175781 13.460938 C 6.496094 13.460938 6.773438 13.574219 7.003906 13.808594 C 7.238281 14.03125 7.351562 14.308594 7.351562 14.636719 C 7.351562 14.960938 7.238281 15.238281 7.003906 15.46875 C 6.773438 15.699219 6.496094 15.816406 6.175781 15.816406 Z M 6.175781 20.707031 C 5.84375 20.707031 5.5625 20.589844 5.332031 20.355469 C 5.105469 20.125 4.996094 19.847656 4.996094 19.527344 C 4.996094 19.207031 5.105469 18.933594 5.332031 18.710938 C 5.5625 18.476562 5.84375 18.363281 6.175781 18.363281 C 6.496094 18.363281 6.773438 18.472656 7.003906 18.695312 C 7.238281 18.917969 7.351562 19.195312 7.351562 19.527344 C 7.351562 19.847656 7.238281 20.125 7.003906 20.355469 C 6.773438 20.589844 6.496094 20.707031 6.175781 20.707031 Z M 6.175781 25.875 C 5.851562 25.875 5.574219 25.757812 5.34375 25.527344 C 5.113281 25.292969 4.996094 25.019531 4.996094 24.695312 C 4.996094 24.375 5.113281 24.097656 5.34375 23.867188 C 5.574219 23.632812 5.851562 23.519531 6.175781 23.519531 C 6.496094 23.519531 6.773438 23.632812 7.003906 23.867188 C 7.238281 24.097656 7.351562 24.375 7.351562 24.695312 C 7.351562 25.019531 7.238281 25.292969 7.003906 25.527344 C 6.773438 25.757812 6.496094 25.875 6.175781 25.875 Z M 9.871094 15.496094 C 9.628906 15.496094 9.417969 15.410156 9.242188 15.242188 C 9.070312 15.070312 8.988281 14.871094 8.988281 14.636719 C 8.988281 14.398438 9.070312 14.191406 9.242188 14.023438 C 9.417969 13.84375 9.628906 13.753906 9.871094 13.753906 L 18.148438 13.753906 C 18.378906 13.753906 18.582031 13.84375 18.75 14.023438 C 18.917969 14.191406 19.003906 14.398438 19.003906 14.636719 C 19.003906 14.871094 18.917969 15.070312 18.75 15.242188 C 18.582031 15.410156 18.378906 15.496094 18.148438 15.496094 Z M 9.871094 20.398438 C 9.621094 20.398438 9.410156 20.3125 9.242188 20.144531 C 9.070312 19.972656 8.988281 19.769531 8.988281 19.527344 C 8.988281 19.285156 9.070312 19.085938 9.242188 18.925781 C 9.410156 18.753906 9.621094 18.667969 9.871094 18.667969 L 18.148438 18.667969 C 18.386719 18.667969 18.589844 18.753906 18.75 18.925781 C 18.917969 19.085938 19.003906 19.285156 19.003906 19.527344 C 19.003906 19.769531 18.917969 19.972656 18.75 20.144531 C 18.589844 20.3125 18.386719 20.398438 18.148438 20.398438 Z M 9.871094 25.566406 C 9.628906 25.566406 9.417969 25.480469 9.242188 25.3125 C 9.070312 25.132812 8.988281 24.929688 8.988281 24.695312 C 8.988281 24.457031 9.070312 24.253906 9.242188 24.09375 C 9.410156 23.925781 9.621094 23.839844 9.871094 23.839844 L 18.148438 23.839844 C 18.386719 23.839844 18.589844 23.925781 18.75 24.09375 C 18.917969 24.253906 19.003906 24.457031 19.003906 24.695312 C 19.003906 24.929688 18.917969 25.132812 18.75 25.3125 C 18.582031 25.480469 18.378906 25.566406 18.148438 25.566406 Z M 4.886719 33.214844 L 19.113281 33.214844 C 20.496094 33.214844 21.53125 32.863281 22.21875 32.15625 C 22.914062 31.460938 23.261719 30.410156 23.261719 29.007812 L 23.261719 8.691406 C 23.261719 7.289062 22.925781 6.242188 22.246094 5.542969 C 21.566406 4.839844 20.566406 4.488281 19.246094 4.488281 L 18.9375 4.488281 C 18.9375 4.511719 18.9375 4.542969 18.9375 4.582031 C 18.9375 4.605469 18.9375 4.632812 18.9375 4.660156 L 18.9375 6.242188 C 18.9375 7.082031 18.679688 7.773438 18.160156 8.316406 C 17.644531 8.851562 16.96875 9.121094 16.136719 9.121094 L 7.863281 9.121094 C 7.03125 9.121094 6.355469 8.851562 5.839844 8.316406 C 5.320312 7.773438 5.0625 7.082031 5.0625 6.242188 L 5.0625 4.660156 C 5.0625 4.632812 5.0625 4.605469 5.0625 4.582031 C 5.0625 4.542969 5.0625 4.511719 5.0625 4.488281 L 4.753906 4.488281 C 3.433594 4.488281 2.433594 4.839844 1.753906 5.542969 C 1.074219 6.242188 0.738281 7.289062 0.738281 8.691406 L 0.738281 29.007812 C 0.738281 30.410156 1.082031 31.460938 1.769531 32.15625 C 2.464844 32.863281 3.503906 33.214844 4.886719 33.214844 Z M 7.863281 7.566406 L 16.136719 7.566406 C 16.53125 7.566406 16.835938 7.449219 17.050781 7.21875 C 17.273438 6.988281 17.382812 6.660156 17.382812 6.242188 L 17.382812 4.835938 C 17.382812 4.414062 17.273438 4.089844 17.050781 3.855469 C 16.835938 3.625 16.53125 3.507812 16.136719 3.507812 L 14.90625 3.507812 C 14.863281 2.75 14.558594 2.101562 13.996094 1.566406 C 13.441406 1.03125 12.777344 0.761719 12 0.761719 C 11.222656 0.761719 10.554688 1.03125 9.992188 1.566406 C 9.4375 2.101562 9.136719 2.75 9.09375 3.507812 L 7.863281 3.507812 C 7.46875 3.507812 7.160156 3.625 6.9375 3.855469 C 6.722656 4.089844 6.617188 4.414062 6.617188 4.835938 L 6.617188 6.242188 C 6.617188 6.660156 6.722656 6.988281 6.9375 7.21875 C 7.160156 7.449219 7.46875 7.566406 7.863281 7.566406 Z M 12 4.78125 C 11.679688 4.78125 11.402344 4.664062 11.167969 4.433594 C 10.945312 4.199219 10.835938 3.929688 10.835938 3.617188 C 10.835938 3.285156 10.945312 3.007812 11.167969 2.785156 C 11.402344 2.554688 11.679688 2.4375 12 2.4375 C 12.320312 2.4375 12.59375 2.554688 12.816406 2.785156 C 13.050781 3.007812 13.164062 3.285156 13.164062 3.617188 C 13.164062 3.929688 13.050781 4.199219 12.816406 4.433594 C 12.59375 4.664062 12.320312 4.78125 12 4.78125 Z M 12 4.78125 "/>
</g>
</svg>
