<svg width="140" height="140" viewBox="0 0 140 140" fill="none" xmlns="http://www.w3.org/2000/svg">
<path d="M69.6875 120.5C76.6458 120.5 83.1667 119.188 89.25 116.562C95.375 113.979 100.75 110.375 105.375 105.75C110 101.125 113.604 95.7708 116.188 89.6875C118.812 83.5625 120.125 77 120.125 70C120.125 63.0833 118.812 56.5833 116.188 50.5C113.562 44.375 109.938 39 105.312 34.375C100.688 29.75 95.3125 26.125 89.1875 23.5C83.1042 20.875 76.6042 19.5625 69.6875 19.5625C62.6458 19.5625 56.0625 20.875 49.9375 23.5C43.8542 26.0833 38.5 29.6875 33.875 34.3125C29.2917 38.9375 25.6875 44.3125 23.0625 50.4375C20.4792 56.5208 19.1875 63.0417 19.1875 70C19.1875 77.0417 20.4792 83.625 23.0625 89.75C25.6875 95.8333 29.2917 101.188 33.875 105.812C38.5 110.396 43.8542 113.979 49.9375 116.562C56.0625 119.188 62.6458 120.5 69.6875 120.5ZM69.6875 114.375C63.4792 114.375 57.6875 113.25 52.3125 111C46.9375 108.708 42.2292 105.542 38.1875 101.5C34.1458 97.4167 30.9792 92.7083 28.6875 87.375C26.4375 82 25.3125 76.2083 25.3125 70C25.3125 63.875 26.4583 58.1458 28.75 52.8125C31.0417 47.4375 34.2083 42.7292 38.25 38.6875C42.3333 34.6042 47.0417 31.4167 52.375 29.125C57.75 26.8333 63.5208 25.6875 69.6875 25.6875C75.7708 25.6875 81.5 26.8333 86.875 29.125C92.25 31.4167 96.9583 34.6042 101 38.6875C105.083 42.7292 108.271 47.4375 110.562 52.8125C112.854 58.1875 114 63.9167 114 70C114 76.1667 112.854 81.9375 110.562 87.3125C108.271 92.6458 105.083 97.3542 101 101.438C96.9583 105.479 92.25 108.646 86.875 110.938C81.5417 113.229 75.8125 114.375 69.6875 114.375ZM69.625 7.0625C70.5417 7.0625 71.2917 6.75 71.875 6.125C72.5 5.5 72.8125 4.75 72.8125 3.875C72.8125 3 72.5 2.22917 71.875 1.5625C71.2917 0.895833 70.5417 0.5625 69.625 0.5625C68.7917 0.5625 68.0417 0.895833 67.375 1.5625C66.7083 2.22917 66.375 3 66.375 3.875C66.375 4.75 66.7083 5.5 67.375 6.125C68.0417 6.75 68.7917 7.0625 69.625 7.0625ZM81.1875 8.0625C82.0208 8.0625 82.7708 7.75 83.4375 7.125C84.1042 6.45833 84.4375 5.70833 84.4375 4.875C84.4375 4 84.1042 3.22917 83.4375 2.5625C82.7708 1.89583 82.0208 1.5625 81.1875 1.5625C80.2708 1.5625 79.5 1.89583 78.875 2.5625C78.25 3.22917 77.9375 4 77.9375 4.875C77.9375 5.70833 78.25 6.45833 78.875 7.125C79.5 7.75 80.2708 8.0625 81.1875 8.0625ZM92.3125 11C93.1458 11 93.875 10.6875 94.5 10.0625C95.1667 9.4375 95.5 8.70833 95.5 7.875C95.5 7 95.1667 6.22917 94.5 5.5625C93.875 4.89583 93.1458 4.5625 92.3125 4.5625C91.3542 4.5625 90.5625 4.89583 89.9375 5.5625C89.3542 6.22917 89.0625 7 89.0625 7.875C89.0625 8.70833 89.3542 9.4375 89.9375 10.0625C90.5625 10.6875 91.3542 11 92.3125 11ZM102.75 15.9375C103.583 15.9375 104.312 15.625 104.938 15C105.604 14.375 105.938 13.625 105.938 12.75C105.938 11.875 105.604 11.125 104.938 10.5C104.312 9.83333 103.583 9.5 102.75 9.5C101.833 9.5 101.062 9.83333 100.438 10.5C99.8125 11.125 99.5 11.875 99.5 12.75C99.5 13.625 99.8125 14.375 100.438 15C101.062 15.625 101.833 15.9375 102.75 15.9375ZM112.188 22.5625C113.062 22.5625 113.812 22.25 114.438 21.625C115.104 21 115.438 20.2708 115.438 19.4375C115.438 18.5208 115.104 17.75 114.438 17.125C113.812 16.4583 113.062 16.125 112.188 16.125C111.312 16.125 110.562 16.4583 109.938 17.125C109.354 17.75 109.062 18.5208 109.062 19.4375C109.062 20.2708 109.354 21 109.938 21.625C110.562 22.25 111.312 22.5625 112.188 22.5625ZM120.375 30.6875C121.25 30.6875 122 30.375 122.625 29.75C123.292 29.125 123.625 28.3958 123.625 27.5625C123.625 26.6875 123.292 25.9167 122.625 25.25C122 24.5833 121.25 24.25 120.375 24.25C119.458 24.25 118.688 24.5833 118.062 25.25C117.438 25.9167 117.125 26.6875 117.125 27.5625C117.125 28.3958 117.438 29.125 118.062 29.75C118.688 30.375 119.458 30.6875 120.375 30.6875ZM127 40.1875C127.833 40.1875 128.562 39.875 129.188 39.25C129.854 38.625 130.188 37.875 130.188 37C130.188 36.125 129.854 35.375 129.188 34.75C128.562 34.0833 127.833 33.75 127 33.75C126.083 33.75 125.312 34.0833 124.688 34.75C124.104 35.375 123.812 36.125 123.812 37C123.812 37.875 124.104 38.625 124.688 39.25C125.312 39.875 126.083 40.1875 127 40.1875ZM131.875 50.6875C132.708 50.6875 133.438 50.375 134.062 49.75C134.729 49.125 135.062 48.375 135.062 47.5C135.062 46.625 134.729 45.8542 134.062 45.1875C133.438 44.5208 132.708 44.1875 131.875 44.1875C130.958 44.1875 130.188 44.5208 129.562 45.1875C128.938 45.8542 128.625 46.625 128.625 47.5C128.625 48.375 128.938 49.125 129.562 49.75C130.188 50.375 130.958 50.6875 131.875 50.6875ZM134.812 61.8125C135.646 61.8125 136.396 61.5 137.062 60.875C137.729 60.2083 138.062 59.4375 138.062 58.5625C138.062 57.7292 137.729 56.9792 137.062 56.3125C136.396 55.6458 135.646 55.3125 134.812 55.3125C133.896 55.3125 133.125 55.6458 132.5 56.3125C131.875 56.9792 131.562 57.7292 131.562 58.5625C131.562 59.4375 131.875 60.2083 132.5 60.875C133.125 61.5 133.896 61.8125 134.812 61.8125ZM135.812 73.25C136.646 73.25 137.396 72.9375 138.062 72.3125C138.729 71.6875 139.062 70.9583 139.062 70.125C139.062 69.2083 138.729 68.4375 138.062 67.8125C137.396 67.1458 136.646 66.8125 135.812 66.8125C134.896 66.8125 134.125 67.1458 133.5 67.8125C132.875 68.4375 132.562 69.2083 132.562 70.125C132.562 70.9583 132.875 71.6875 133.5 72.3125C134.125 72.9375 134.896 73.25 135.812 73.25ZM134.812 84.75C135.646 84.75 136.396 84.4167 137.062 83.75C137.729 83.0833 138.062 82.3125 138.062 81.4375C138.062 80.6042 137.729 79.875 137.062 79.25C136.396 78.5833 135.646 78.25 134.812 78.25C133.896 78.25 133.125 78.5833 132.5 79.25C131.875 79.875 131.562 80.6042 131.562 81.4375C131.562 82.3125 131.875 83.0833 132.5 83.75C133.125 84.4167 133.896 84.75 134.812 84.75ZM131.875 95.8125C132.708 95.8125 133.438 95.5 134.062 94.875C134.729 94.2083 135.062 93.4167 135.062 92.5C135.062 91.6667 134.729 90.9375 134.062 90.3125C133.438 89.6458 132.708 89.3125 131.875 89.3125C130.958 89.3125 130.188 89.6458 129.562 90.3125C128.938 90.9375 128.625 91.6667 128.625 92.5C128.625 93.4167 128.938 94.2083 129.562 94.875C130.188 95.5 130.958 95.8125 131.875 95.8125ZM127 106.312C127.833 106.312 128.562 105.979 129.188 105.312C129.854 104.646 130.188 103.875 130.188 103C130.188 102.125 129.854 101.375 129.188 100.75C128.562 100.125 127.833 99.8125 127 99.8125C126.083 99.8125 125.312 100.125 124.688 100.75C124.104 101.375 123.812 102.125 123.812 103C123.812 103.875 124.104 104.646 124.688 105.312C125.312 105.979 126.083 106.312 127 106.312ZM120.375 115.75C121.25 115.75 122 115.438 122.625 114.812C123.292 114.146 123.625 113.375 123.625 112.5C123.625 111.625 123.292 110.875 122.625 110.25C122 109.625 121.25 109.312 120.375 109.312C119.458 109.312 118.688 109.625 118.062 110.25C117.438 110.875 117.125 111.625 117.125 112.5C117.125 113.375 117.438 114.146 118.062 114.812C118.688 115.438 119.458 115.75 120.375 115.75ZM112.188 123.938C113.062 123.938 113.812 123.604 114.438 122.938C115.104 122.271 115.438 121.5 115.438 120.625C115.438 119.792 115.104 119.062 114.438 118.438C113.812 117.812 113.062 117.5 112.188 117.5C111.312 117.5 110.562 117.812 109.938 118.438C109.354 119.062 109.062 119.792 109.062 120.625C109.062 121.5 109.354 122.271 109.938 122.938C110.562 123.604 111.312 123.938 112.188 123.938ZM102.75 130.562C103.583 130.562 104.312 130.229 104.938 129.562C105.604 128.896 105.938 128.125 105.938 127.25C105.938 126.375 105.604 125.625 104.938 125C104.312 124.375 103.583 124.062 102.75 124.062C101.833 124.062 101.062 124.375 100.438 125C99.8125 125.625 99.5 126.375 99.5 127.25C99.5 128.125 99.8125 128.896 100.438 129.562C101.062 130.229 101.833 130.562 102.75 130.562ZM92.3125 135.5C93.1458 135.5 93.875 135.167 94.5 134.5C95.1667 133.833 95.5 133.062 95.5 132.188C95.5 131.312 95.1667 130.562 94.5 129.938C93.875 129.312 93.1458 129 92.3125 129C91.3542 129 90.5625 129.312 89.9375 129.938C89.3542 130.562 89.0625 131.312 89.0625 132.188C89.0625 133.062 89.3542 133.833 89.9375 134.5C90.5625 135.167 91.3542 135.5 92.3125 135.5ZM81.1875 138.438C82.0208 138.438 82.7708 138.104 83.4375 137.438C84.1042 136.771 84.4375 136 84.4375 135.125C84.4375 134.292 84.1042 133.562 83.4375 132.938C82.7708 132.312 82.0208 132 81.1875 132C80.2708 132 79.5 132.312 78.875 132.938C78.25 133.562 77.9375 134.292 77.9375 135.125C77.9375 136 78.25 136.771 78.875 137.438C79.5 138.104 80.2708 138.438 81.1875 138.438ZM69.625 139.438C70.5417 139.438 71.2917 139.104 71.875 138.438C72.5 137.812 72.8125 137.042 72.8125 136.125C72.8125 135.292 72.5 134.562 71.875 133.938C71.2917 133.312 70.5417 133 69.625 133C68.7917 133 68.0417 133.312 67.375 133.938C66.7083 134.562 66.375 135.292 66.375 136.125C66.375 137.042 66.7083 137.812 67.375 138.438C68.0417 139.104 68.7917 139.438 69.625 139.438ZM58.0625 138.438C58.9792 138.438 59.7292 138.104 60.3125 137.438C60.9375 136.771 61.25 136 61.25 135.125C61.25 134.292 60.9375 133.562 60.3125 132.938C59.7292 132.312 58.9792 132 58.0625 132C57.2292 132 56.4792 132.312 55.8125 132.938C55.1458 133.562 54.8125 134.292 54.8125 135.125C54.8125 136 55.1458 136.771 55.8125 137.438C56.4792 138.104 57.2292 138.438 58.0625 138.438ZM46.9375 135.5C47.8542 135.5 48.6042 135.167 49.1875 134.5C49.8125 133.833 50.125 133.062 50.125 132.188C50.125 131.312 49.8125 130.562 49.1875 129.938C48.6042 129.312 47.8542 129 46.9375 129C46.1042 129 45.3542 129.312 44.6875 129.938C44.0625 130.562 43.75 131.312 43.75 132.188C43.75 133.062 44.0625 133.833 44.6875 134.5C45.3542 135.167 46.1042 135.5 46.9375 135.5ZM36.5 130.562C37.4167 130.562 38.1875 130.229 38.8125 129.562C39.4375 128.896 39.75 128.125 39.75 127.25C39.75 126.375 39.4375 125.625 38.8125 125C38.1875 124.375 37.4167 124.062 36.5 124.062C35.625 124.062 34.8542 124.375 34.1875 125C33.5625 125.625 33.25 126.375 33.25 127.25C33.25 128.125 33.5625 128.896 34.1875 129.562C34.8542 130.229 35.625 130.562 36.5 130.562ZM27 123.938C27.9167 123.938 28.6875 123.604 29.3125 122.938C29.9375 122.271 30.25 121.5 30.25 120.625C30.25 119.792 29.9375 119.062 29.3125 118.438C28.6875 117.812 27.9167 117.5 27 117.5C26.1667 117.5 25.4167 117.812 24.75 118.438C24.0833 119.062 23.75 119.792 23.75 120.625C23.75 121.5 24.0833 122.271 24.75 122.938C25.4167 123.604 26.1667 123.938 27 123.938ZM18.8125 115.75C19.7292 115.75 20.5 115.438 21.125 114.812C21.75 114.146 22.0625 113.375 22.0625 112.5C22.0625 111.625 21.75 110.875 21.125 110.25C20.5 109.625 19.7292 109.312 18.8125 109.312C17.9792 109.312 17.2292 109.625 16.5625 110.25C15.9375 110.875 15.625 111.625 15.625 112.5C15.625 113.375 15.9375 114.146 16.5625 114.812C17.2292 115.438 17.9792 115.75 18.8125 115.75ZM12.25 106.312C13.125 106.312 13.875 105.979 14.5 105.312C15.1667 104.646 15.5 103.875 15.5 103C15.5 102.125 15.1667 101.375 14.5 100.75C13.875 100.125 13.125 99.8125 12.25 99.8125C11.375 99.8125 10.6042 100.125 9.9375 100.75C9.3125 101.375 9 102.125 9 103C9 103.875 9.3125 104.646 9.9375 105.312C10.6042 105.979 11.375 106.312 12.25 106.312ZM7.375 95.8125C8.29167 95.8125 9.0625 95.5 9.6875 94.875C10.3125 94.2083 10.625 93.4167 10.625 92.5C10.625 91.6667 10.3125 90.9375 9.6875 90.3125C9.0625 89.6458 8.29167 89.3125 7.375 89.3125C6.5 89.3125 5.72917 89.6458 5.0625 90.3125C4.4375 90.9375 4.125 91.6667 4.125 92.5C4.125 93.4167 4.4375 94.2083 5.0625 94.875C5.72917 95.5 6.5 95.8125 7.375 95.8125ZM4.375 84.75C5.29167 84.75 6.0625 84.4167 6.6875 83.75C7.3125 83.0833 7.625 82.3125 7.625 81.4375C7.625 80.6042 7.3125 79.875 6.6875 79.25C6.0625 78.5833 5.29167 78.25 4.375 78.25C3.54167 78.25 2.79167 78.5833 2.125 79.25C1.5 79.875 1.1875 80.6042 1.1875 81.4375C1.1875 82.3125 1.5 83.0833 2.125 83.75C2.79167 84.4167 3.54167 84.75 4.375 84.75ZM3.4375 73.25C4.3125 73.25 5.0625 72.9375 5.6875 72.3125C6.3125 71.6875 6.625 70.9583 6.625 70.125C6.625 69.2083 6.3125 68.4375 5.6875 67.8125C5.0625 67.1458 4.3125 66.8125 3.4375 66.8125C2.5625 66.8125 1.79167 67.1458 1.125 67.8125C0.5 68.4375 0.1875 69.2083 0.1875 70.125C0.1875 70.9583 0.5 71.6875 1.125 72.3125C1.79167 72.9375 2.5625 73.25 3.4375 73.25ZM4.375 61.8125C5.29167 61.8125 6.0625 61.5 6.6875 60.875C7.3125 60.2083 7.625 59.4375 7.625 58.5625C7.625 57.7292 7.3125 56.9792 6.6875 56.3125C6.0625 55.6458 5.29167 55.3125 4.375 55.3125C3.54167 55.3125 2.79167 55.6458 2.125 56.3125C1.5 56.9792 1.1875 57.7292 1.1875 58.5625C1.1875 59.4375 1.5 60.2083 2.125 60.875C2.79167 61.5 3.54167 61.8125 4.375 61.8125ZM7.375 50.6875C8.29167 50.6875 9.0625 50.375 9.6875 49.75C10.3125 49.125 10.625 48.375 10.625 47.5C10.625 46.625 10.3125 45.8542 9.6875 45.1875C9.0625 44.5208 8.29167 44.1875 7.375 44.1875C6.5 44.1875 5.72917 44.5208 5.0625 45.1875C4.4375 45.8542 4.125 46.625 4.125 47.5C4.125 48.375 4.4375 49.125 5.0625 49.75C5.72917 50.375 6.5 50.6875 7.375 50.6875ZM12.25 40.1875C13.125 40.1875 13.875 39.875 14.5 39.25C15.1667 38.625 15.5 37.875 15.5 37C15.5 36.125 15.1667 35.375 14.5 34.75C13.875 34.0833 13.125 33.75 12.25 33.75C11.375 33.75 10.6042 34.0833 9.9375 34.75C9.3125 35.375 9 36.125 9 37C9 37.875 9.3125 38.625 9.9375 39.25C10.6042 39.875 11.375 40.1875 12.25 40.1875ZM18.8125 30.6875C19.7292 30.6875 20.5 30.375 21.125 29.75C21.75 29.125 22.0625 28.3958 22.0625 27.5625C22.0625 26.6875 21.75 25.9167 21.125 25.25C20.5 24.5833 19.7292 24.25 18.8125 24.25C17.9792 24.25 17.2292 24.5833 16.5625 25.25C15.9375 25.9167 15.625 26.6875 15.625 27.5625C15.625 28.3958 15.9375 29.125 16.5625 29.75C17.2292 30.375 17.9792 30.6875 18.8125 30.6875ZM27 22.5625C27.9167 22.5625 28.6875 22.25 29.3125 21.625C29.9375 21 30.25 20.2708 30.25 19.4375C30.25 18.5208 29.9375 17.75 29.3125 17.125C28.6875 16.4583 27.9167 16.125 27 16.125C26.1667 16.125 25.4167 16.4583 24.75 17.125C24.0833 17.75 23.75 18.5208 23.75 19.4375C23.75 20.2708 24.0833 21 24.75 21.625C25.4167 22.25 26.1667 22.5625 27 22.5625ZM36.5 15.9375C37.4167 15.9375 38.1875 15.625 38.8125 15C39.4375 14.375 39.75 13.625 39.75 12.75C39.75 11.875 39.4375 11.125 38.8125 10.5C38.1875 9.83333 37.4167 9.5 36.5 9.5C35.625 9.5 34.8542 9.83333 34.1875 10.5C33.5625 11.125 33.25 11.875 33.25 12.75C33.25 13.625 33.5625 14.375 34.1875 15C34.8542 15.625 35.625 15.9375 36.5 15.9375ZM46.9375 11C47.8542 11 48.6042 10.6875 49.1875 10.0625C49.8125 9.4375 50.125 8.70833 50.125 7.875C50.125 7 49.8125 6.22917 49.1875 5.5625C48.6042 4.89583 47.8542 4.5625 46.9375 4.5625C46.1042 4.5625 45.3542 4.89583 44.6875 5.5625C44.0625 6.22917 43.75 7 43.75 7.875C43.75 8.70833 44.0625 9.4375 44.6875 10.0625C45.3542 10.6875 46.1042 11 46.9375 11ZM58.0625 8.0625C58.9792 8.0625 59.7292 7.75 60.3125 7.125C60.9375 6.45833 61.25 5.70833 61.25 4.875C61.25 4 60.9375 3.22917 60.3125 2.5625C59.7292 1.89583 58.9792 1.5625 58.0625 1.5625C57.2292 1.5625 56.4792 1.89583 55.8125 2.5625C55.1458 3.22917 54.8125 4 54.8125 4.875C54.8125 5.70833 55.1458 6.45833 55.8125 7.125C56.4792 7.75 57.2292 8.0625 58.0625 8.0625ZM69.6875 95.8125C74.4375 95.8125 78.75 94.6667 82.625 92.375C86.5 90.0833 89.5833 87 91.875 83.125C94.2083 79.2083 95.375 74.875 95.375 70.125C95.375 65.4167 94.2083 61.125 91.875 57.25C89.5833 53.3333 86.4792 50.2292 82.5625 47.9375C78.6875 45.6458 74.3958 44.5 69.6875 44.5C64.9375 44.5 60.625 45.6458 56.75 47.9375C52.875 50.2292 49.7708 53.3333 47.4375 57.25C45.1458 61.125 44 65.4167 44 70.125C44 74.9167 45.1458 79.25 47.4375 83.125C49.7292 87 52.8125 90.0833 56.6875 92.375C60.6042 94.6667 64.9375 95.8125 69.6875 95.8125ZM69.6875 84.0625C67.1042 84.0625 64.75 83.4375 62.625 82.1875C60.5417 80.9375 58.875 79.2708 57.625 77.1875C56.4167 75.0625 55.8125 72.7083 55.8125 70.125C55.8125 67.5833 56.4375 65.2708 57.6875 63.1875C58.9375 61.0625 60.6042 59.375 62.6875 58.125C64.7708 56.875 67.1042 56.25 69.6875 56.25C72.2292 56.25 74.5417 56.8958 76.625 58.1875C78.75 59.4375 80.4375 61.1042 81.6875 63.1875C82.9375 65.2708 83.5625 67.5833 83.5625 70.125C83.5625 72.7083 82.9375 75.0625 81.6875 77.1875C80.4375 79.2708 78.75 80.9375 76.625 82.1875C74.5417 83.4375 72.2292 84.0625 69.6875 84.0625Z" fill="white"/>
</svg>
