<?xml version="1.0" encoding="UTF-8"?>
<svg xmlns="http://www.w3.org/2000/svg" xmlns:xlink="http://www.w3.org/1999/xlink" width="24" height="25.333333" viewBox="0 0 24 25.333333" version="1.1">
<g id="surface1">
<path style=" stroke:none;fill-rule:nonzero;fill:rgb(100%,100%,100%);fill-opacity:1;" d="M 12 20.917969 C 12.707031 20.917969 13.390625 20.828125 14.050781 20.65625 C 14.710938 20.484375 15.332031 20.238281 15.917969 19.925781 L 15.15625 19.15625 C 14.675781 19.390625 14.171875 19.578125 13.644531 19.707031 C 13.117188 19.832031 12.570312 19.894531 12 19.894531 C 10.964844 19.894531 10 19.707031 9.105469 19.332031 C 8.214844 18.953125 7.429688 18.421875 6.75 17.75 C 6.078125 17.070312 5.546875 16.285156 5.167969 15.394531 C 4.792969 14.5 4.605469 13.535156 4.605469 12.5 C 4.605469 11.9375 4.667969 11.390625 4.792969 10.863281 C 4.921875 10.328125 5.109375 9.828125 5.34375 9.363281 L 4.574219 8.582031 C 4.253906 9.167969 4.007812 9.789062 3.832031 10.449219 C 3.667969 11.109375 3.582031 11.792969 3.582031 12.5 C 3.582031 13.671875 3.796875 14.769531 4.230469 15.792969 C 4.667969 16.804688 5.265625 17.699219 6.03125 18.46875 C 6.800781 19.234375 7.695312 19.828125 8.707031 20.261719 C 9.730469 20.699219 10.828125 20.917969 12 20.917969 Z M 12 16.78125 C 12.242188 16.78125 12.46875 16.75 12.675781 16.6875 L 7.8125 11.824219 C 7.75 12.03125 7.71875 12.257812 7.71875 12.5 C 7.71875 13.296875 7.910156 14.019531 8.292969 14.667969 C 8.671875 15.3125 9.1875 15.828125 9.832031 16.207031 C 10.480469 16.589844 11.203125 16.78125 12 16.78125 Z M 12 8.230469 C 11.417969 8.230469 10.875 8.332031 10.375 8.542969 L 15.957031 14.136719 C 16.171875 13.621094 16.28125 13.078125 16.28125 12.5 C 16.28125 11.714844 16.085938 11 15.699219 10.355469 C 15.316406 9.703125 14.796875 9.183594 14.144531 8.800781 C 13.5 8.421875 12.785156 8.230469 12 8.230469 Z M 12 4.09375 C 11.125 4.09375 10.292969 4.21875 9.5 4.46875 C 8.714844 4.710938 7.984375 5.054688 7.3125 5.5 L 8.0625 6.238281 C 8.632812 5.886719 9.246094 5.609375 9.90625 5.417969 C 10.574219 5.214844 11.269531 5.113281 12 5.113281 C 13.019531 5.113281 13.976562 5.304688 14.863281 5.6875 C 15.761719 6.070312 16.546875 6.601562 17.21875 7.28125 C 17.898438 7.953125 18.429688 8.738281 18.8125 9.636719 C 19.195312 10.53125 19.386719 11.484375 19.386719 12.5 C 19.386719 13.230469 19.289062 13.925781 19.09375 14.59375 C 18.898438 15.253906 18.621094 15.867188 18.261719 16.4375 L 18.988281 17.175781 C 19.441406 16.511719 19.789062 15.785156 20.03125 15 C 20.28125 14.207031 20.40625 13.375 20.40625 12.5 C 20.40625 11.347656 20.1875 10.265625 19.75 9.25 C 19.3125 8.230469 18.707031 7.332031 17.9375 6.5625 C 17.167969 5.792969 16.269531 5.1875 15.25 4.75 C 14.234375 4.3125 13.152344 4.09375 12 4.09375 Z M 6.480469 3.488281 C 6.632812 3.488281 6.761719 3.4375 6.863281 3.332031 C 6.96875 3.230469 7.019531 3.105469 7.019531 2.957031 C 7.019531 2.8125 6.96875 2.6875 6.863281 2.582031 C 6.761719 2.472656 6.632812 2.417969 6.480469 2.417969 C 6.332031 2.417969 6.203125 2.472656 6.09375 2.582031 C 5.988281 2.6875 5.9375 2.8125 5.9375 2.957031 C 5.9375 3.105469 5.988281 3.230469 6.09375 3.332031 C 6.203125 3.4375 6.332031 3.488281 6.480469 3.488281 Z M 8.230469 2.667969 C 8.375 2.667969 8.496094 2.613281 8.59375 2.511719 C 8.699219 2.40625 8.75 2.285156 8.75 2.144531 C 8.75 2 8.699219 1.871094 8.59375 1.761719 C 8.496094 1.648438 8.375 1.59375 8.230469 1.59375 C 8.082031 1.59375 7.953125 1.648438 7.84375 1.761719 C 7.738281 1.871094 7.6875 2 7.6875 2.144531 C 7.6875 2.285156 7.738281 2.40625 7.84375 2.511719 C 7.953125 2.613281 8.082031 2.667969 8.230469 2.667969 Z M 10.074219 2.175781 C 10.226562 2.175781 10.351562 2.125 10.449219 2.019531 C 10.550781 1.910156 10.605469 1.785156 10.605469 1.644531 C 10.605469 1.5 10.550781 1.371094 10.449219 1.261719 C 10.351562 1.148438 10.226562 1.09375 10.074219 1.09375 C 9.933594 1.09375 9.808594 1.148438 9.699219 1.261719 C 9.59375 1.371094 9.542969 1.5 9.542969 1.644531 C 9.542969 1.785156 9.59375 1.910156 9.699219 2.019531 C 9.808594 2.125 9.933594 2.175781 10.074219 2.175781 Z M 12 2.011719 C 12.152344 2.011719 12.28125 1.957031 12.386719 1.855469 C 12.488281 1.75 12.542969 1.625 12.542969 1.480469 C 12.542969 1.332031 12.488281 1.203125 12.386719 1.09375 C 12.28125 0.984375 12.152344 0.925781 12 0.925781 C 11.859375 0.925781 11.734375 0.984375 11.625 1.09375 C 11.515625 1.203125 11.457031 1.332031 11.457031 1.480469 C 11.457031 1.625 11.515625 1.75 11.625 1.855469 C 11.734375 1.957031 11.859375 2.011719 12 2.011719 Z M 13.925781 2.175781 C 14.066406 2.175781 14.191406 2.125 14.300781 2.019531 C 14.414062 1.910156 14.46875 1.785156 14.46875 1.644531 C 14.46875 1.5 14.414062 1.371094 14.300781 1.261719 C 14.191406 1.148438 14.066406 1.09375 13.925781 1.09375 C 13.773438 1.09375 13.644531 1.148438 13.542969 1.261719 C 13.4375 1.371094 13.386719 1.5 13.386719 1.644531 C 13.386719 1.785156 13.4375 1.910156 13.542969 2.019531 C 13.644531 2.125 13.773438 2.175781 13.925781 2.175781 Z M 15.78125 2.667969 C 15.921875 2.667969 16.046875 2.613281 16.15625 2.511719 C 16.265625 2.40625 16.324219 2.285156 16.324219 2.144531 C 16.324219 2 16.265625 1.871094 16.15625 1.761719 C 16.046875 1.648438 15.921875 1.59375 15.78125 1.59375 C 15.628906 1.59375 15.5 1.648438 15.394531 1.761719 C 15.292969 1.871094 15.238281 2 15.238281 2.144531 C 15.238281 2.285156 15.292969 2.40625 15.394531 2.511719 C 15.5 2.613281 15.628906 2.667969 15.78125 2.667969 Z M 17.53125 3.488281 C 17.671875 3.488281 17.792969 3.4375 17.894531 3.332031 C 18 3.230469 18.050781 3.105469 18.050781 2.957031 C 18.050781 2.8125 18 2.6875 17.894531 2.582031 C 17.792969 2.472656 17.671875 2.417969 17.53125 2.417969 C 17.371094 2.417969 17.238281 2.472656 17.136719 2.582031 C 17.039062 2.6875 16.988281 2.8125 16.988281 2.957031 C 16.988281 3.105469 17.039062 3.230469 17.136719 3.332031 C 17.238281 3.4375 17.371094 3.488281 17.53125 3.488281 Z M 19.105469 4.59375 C 19.25 4.59375 19.375 4.542969 19.480469 4.4375 C 19.589844 4.332031 19.644531 4.210938 19.644531 4.074219 C 19.644531 3.921875 19.589844 3.792969 19.480469 3.6875 C 19.375 3.578125 19.25 3.519531 19.105469 3.519531 C 18.953125 3.519531 18.824219 3.578125 18.71875 3.6875 C 18.621094 3.792969 18.574219 3.921875 18.574219 4.074219 C 18.574219 4.210938 18.621094 4.332031 18.71875 4.4375 C 18.824219 4.542969 18.953125 4.59375 19.105469 4.59375 Z M 20.457031 5.949219 C 20.605469 5.949219 20.730469 5.894531 20.832031 5.792969 C 20.945312 5.6875 21 5.566406 21 5.425781 C 21 5.28125 20.945312 5.152344 20.832031 5.042969 C 20.730469 4.929688 20.605469 4.875 20.457031 4.875 C 20.304688 4.875 20.175781 4.929688 20.074219 5.042969 C 19.976562 5.152344 19.925781 5.28125 19.925781 5.425781 C 19.925781 5.566406 19.976562 5.6875 20.074219 5.792969 C 20.175781 5.894531 20.304688 5.949219 20.457031 5.949219 Z M 21.574219 7.53125 C 21.710938 7.53125 21.832031 7.480469 21.9375 7.375 C 22.042969 7.269531 22.09375 7.144531 22.09375 7 C 22.09375 6.855469 22.042969 6.730469 21.9375 6.625 C 21.832031 6.515625 21.710938 6.457031 21.574219 6.457031 C 21.414062 6.457031 21.28125 6.515625 21.175781 6.625 C 21.078125 6.730469 21.03125 6.855469 21.03125 7 C 21.03125 7.144531 21.078125 7.269531 21.175781 7.375 C 21.28125 7.480469 21.414062 7.53125 21.574219 7.53125 Z M 22.375 9.28125 C 22.515625 9.28125 22.636719 9.230469 22.738281 9.125 C 22.851562 9.019531 22.90625 8.894531 22.90625 8.75 C 22.90625 8.605469 22.851562 8.476562 22.738281 8.363281 C 22.636719 8.253906 22.515625 8.199219 22.375 8.199219 C 22.222656 8.199219 22.09375 8.253906 21.988281 8.363281 C 21.886719 8.476562 21.832031 8.605469 21.832031 8.75 C 21.832031 8.894531 21.886719 9.019531 21.988281 9.125 C 22.09375 9.230469 22.222656 9.28125 22.375 9.28125 Z M 22.863281 11.136719 C 23.003906 11.136719 23.128906 11.082031 23.238281 10.980469 C 23.351562 10.867188 23.40625 10.738281 23.40625 10.59375 C 23.40625 10.453125 23.351562 10.328125 23.238281 10.21875 C 23.128906 10.109375 23.003906 10.050781 22.863281 10.050781 C 22.710938 10.050781 22.582031 10.109375 22.480469 10.21875 C 22.375 10.328125 22.324219 10.453125 22.324219 10.59375 C 22.324219 10.738281 22.375 10.867188 22.480469 10.980469 C 22.582031 11.082031 22.710938 11.136719 22.863281 11.136719 Z M 23.03125 13.042969 C 23.171875 13.042969 23.296875 12.988281 23.40625 12.886719 C 23.515625 12.78125 23.574219 12.660156 23.574219 12.519531 C 23.574219 12.367188 23.515625 12.238281 23.40625 12.136719 C 23.296875 12.023438 23.171875 11.96875 23.03125 11.96875 C 22.878906 11.96875 22.75 12.023438 22.644531 12.136719 C 22.546875 12.238281 22.5 12.367188 22.5 12.519531 C 22.5 12.660156 22.546875 12.78125 22.644531 12.886719 C 22.75 12.988281 22.878906 13.042969 23.03125 13.042969 Z M 22.863281 14.957031 C 23.003906 14.957031 23.128906 14.902344 23.238281 14.792969 C 23.351562 14.679688 23.40625 14.550781 23.40625 14.40625 C 23.40625 14.265625 23.351562 14.144531 23.238281 14.042969 C 23.128906 13.929688 23.003906 13.875 22.863281 13.875 C 22.710938 13.875 22.582031 13.929688 22.480469 14.042969 C 22.375 14.144531 22.324219 14.265625 22.324219 14.40625 C 22.324219 14.550781 22.375 14.679688 22.480469 14.792969 C 22.582031 14.902344 22.710938 14.957031 22.863281 14.957031 Z M 22.375 16.800781 C 22.515625 16.800781 22.636719 16.75 22.738281 16.644531 C 22.851562 16.535156 22.90625 16.402344 22.90625 16.25 C 22.90625 16.109375 22.851562 15.988281 22.738281 15.886719 C 22.636719 15.773438 22.515625 15.71875 22.375 15.71875 C 22.222656 15.71875 22.09375 15.773438 21.988281 15.886719 C 21.886719 15.988281 21.832031 16.109375 21.832031 16.25 C 21.832031 16.402344 21.886719 16.535156 21.988281 16.644531 C 22.09375 16.75 22.222656 16.800781 22.375 16.800781 Z M 21.574219 18.550781 C 21.710938 18.550781 21.832031 18.496094 21.9375 18.386719 C 22.042969 18.273438 22.09375 18.144531 22.09375 18 C 22.09375 17.855469 22.042969 17.730469 21.9375 17.625 C 21.832031 17.519531 21.710938 17.46875 21.574219 17.46875 C 21.414062 17.46875 21.28125 17.519531 21.175781 17.625 C 21.078125 17.730469 21.03125 17.855469 21.03125 18 C 21.03125 18.144531 21.078125 18.273438 21.175781 18.386719 C 21.28125 18.496094 21.414062 18.550781 21.574219 18.550781 Z M 17.511719 22.59375 C 17.648438 22.59375 17.773438 22.539062 17.886719 22.425781 C 17.996094 22.316406 18.050781 22.1875 18.050781 22.042969 C 18.050781 21.902344 17.996094 21.777344 17.886719 21.667969 C 17.773438 21.5625 17.648438 21.511719 17.511719 21.511719 C 17.359375 21.511719 17.230469 21.5625 17.125 21.667969 C 17.019531 21.777344 16.96875 21.902344 16.96875 22.042969 C 16.96875 22.1875 17.019531 22.316406 17.125 22.425781 C 17.230469 22.539062 17.359375 22.59375 17.511719 22.59375 Z M 15.769531 23.40625 C 15.910156 23.40625 16.03125 23.351562 16.136719 23.238281 C 16.246094 23.136719 16.300781 23.011719 16.300781 22.863281 C 16.300781 22.71875 16.246094 22.59375 16.136719 22.488281 C 16.03125 22.386719 15.910156 22.332031 15.769531 22.332031 C 15.617188 22.332031 15.488281 22.386719 15.386719 22.488281 C 15.28125 22.59375 15.230469 22.71875 15.230469 22.863281 C 15.230469 23.011719 15.28125 23.136719 15.386719 23.238281 C 15.488281 23.351562 15.617188 23.40625 15.769531 23.40625 Z M 13.917969 23.90625 C 14.054688 23.90625 14.179688 23.851562 14.292969 23.738281 C 14.402344 23.628906 14.457031 23.5 14.457031 23.355469 C 14.457031 23.214844 14.402344 23.09375 14.292969 22.988281 C 14.179688 22.886719 14.054688 22.832031 13.917969 22.832031 C 13.765625 22.832031 13.636719 22.886719 13.53125 22.988281 C 13.425781 23.09375 13.375 23.214844 13.375 23.355469 C 13.375 23.5 13.425781 23.628906 13.53125 23.738281 C 13.636719 23.851562 13.765625 23.90625 13.917969 23.90625 Z M 11.988281 24.074219 C 12.140625 24.074219 12.269531 24.015625 12.375 23.90625 C 12.480469 23.800781 12.53125 23.675781 12.53125 23.53125 C 12.53125 23.386719 12.480469 23.261719 12.375 23.15625 C 12.269531 23.050781 12.140625 23 11.988281 23 C 11.851562 23 11.726562 23.050781 11.613281 23.15625 C 11.503906 23.261719 11.449219 23.386719 11.449219 23.53125 C 11.449219 23.675781 11.503906 23.800781 11.613281 23.90625 C 11.726562 24.015625 11.851562 24.074219 11.988281 24.074219 Z M 10.0625 23.90625 C 10.214844 23.90625 10.34375 23.851562 10.449219 23.738281 C 10.550781 23.628906 10.605469 23.5 10.605469 23.355469 C 10.605469 23.214844 10.550781 23.09375 10.449219 22.988281 C 10.34375 22.886719 10.214844 22.832031 10.0625 22.832031 C 9.921875 22.832031 9.796875 22.886719 9.6875 22.988281 C 9.582031 23.09375 9.53125 23.214844 9.53125 23.355469 C 9.53125 23.5 9.582031 23.628906 9.6875 23.738281 C 9.796875 23.851562 9.921875 23.90625 10.0625 23.90625 Z M 8.207031 23.40625 C 8.359375 23.40625 8.488281 23.351562 8.59375 23.238281 C 8.699219 23.136719 8.75 23.011719 8.75 22.863281 C 8.75 22.71875 8.699219 22.59375 8.59375 22.488281 C 8.488281 22.386719 8.359375 22.332031 8.207031 22.332031 C 8.070312 22.332031 7.945312 22.386719 7.832031 22.488281 C 7.722656 22.59375 7.667969 22.71875 7.667969 22.863281 C 7.667969 23.011719 7.722656 23.136719 7.832031 23.238281 C 7.945312 23.351562 8.070312 23.40625 8.207031 23.40625 Z M 6.46875 22.59375 C 6.621094 22.59375 6.75 22.539062 6.855469 22.425781 C 6.957031 22.316406 7.011719 22.1875 7.011719 22.042969 C 7.011719 21.902344 6.957031 21.777344 6.855469 21.667969 C 6.75 21.5625 6.621094 21.511719 6.46875 21.511719 C 6.324219 21.511719 6.195312 21.5625 6.082031 21.667969 C 5.980469 21.777344 5.925781 21.902344 5.925781 22.042969 C 5.925781 22.1875 5.980469 22.316406 6.082031 22.425781 C 6.195312 22.539062 6.324219 22.59375 6.46875 22.59375 Z M 4.886719 21.488281 C 5.039062 21.488281 5.167969 21.433594 5.269531 21.324219 C 5.375 21.210938 5.425781 21.082031 5.425781 20.9375 C 5.425781 20.796875 5.375 20.671875 5.269531 20.5625 C 5.167969 20.457031 5.039062 20.40625 4.886719 20.40625 C 4.746094 20.40625 4.621094 20.457031 4.511719 20.5625 C 4.398438 20.671875 4.34375 20.796875 4.34375 20.9375 C 4.34375 21.082031 4.398438 21.210938 4.511719 21.324219 C 4.621094 21.433594 4.746094 21.488281 4.886719 21.488281 Z M 3.519531 20.125 C 3.671875 20.125 3.800781 20.074219 3.90625 19.96875 C 4.011719 19.859375 4.0625 19.730469 4.0625 19.582031 C 4.0625 19.4375 4.011719 19.3125 3.90625 19.207031 C 3.800781 19.105469 3.671875 19.050781 3.519531 19.050781 C 3.382812 19.050781 3.257812 19.105469 3.144531 19.207031 C 3.042969 19.3125 2.988281 19.4375 2.988281 19.582031 C 2.988281 19.730469 3.042969 19.859375 3.144531 19.96875 C 3.257812 20.074219 3.382812 20.125 3.519531 20.125 Z M 2.425781 18.542969 C 2.578125 18.542969 2.703125 18.488281 2.800781 18.386719 C 2.90625 18.273438 2.957031 18.144531 2.957031 18 C 2.957031 17.855469 2.90625 17.730469 2.800781 17.625 C 2.703125 17.519531 2.578125 17.46875 2.425781 17.46875 C 2.28125 17.46875 2.152344 17.519531 2.042969 17.625 C 1.9375 17.730469 1.886719 17.855469 1.886719 18 C 1.886719 18.144531 1.9375 18.273438 2.042969 18.386719 C 2.152344 18.488281 2.28125 18.542969 2.425781 18.542969 Z M 1.613281 16.800781 C 1.765625 16.800781 1.894531 16.75 2 16.644531 C 2.105469 16.535156 2.15625 16.402344 2.15625 16.25 C 2.15625 16.109375 2.105469 15.988281 2 15.886719 C 1.894531 15.78125 1.765625 15.730469 1.613281 15.730469 C 1.476562 15.730469 1.351562 15.78125 1.238281 15.886719 C 1.136719 15.988281 1.082031 16.109375 1.082031 16.25 C 1.082031 16.402344 1.136719 16.535156 1.238281 16.644531 C 1.351562 16.75 1.476562 16.800781 1.613281 16.800781 Z M 1.125 14.949219 C 1.277344 14.949219 1.402344 14.894531 1.5 14.792969 C 1.605469 14.679688 1.65625 14.550781 1.65625 14.40625 C 1.65625 14.261719 1.605469 14.136719 1.5 14.03125 C 1.402344 13.925781 1.277344 13.875 1.125 13.875 C 0.980469 13.875 0.851562 13.925781 0.738281 14.03125 C 0.636719 14.136719 0.582031 14.261719 0.582031 14.40625 C 0.582031 14.550781 0.636719 14.679688 0.738281 14.792969 C 0.851562 14.894531 0.980469 14.949219 1.125 14.949219 Z M 0.957031 13.042969 C 1.109375 13.042969 1.234375 12.988281 1.332031 12.886719 C 1.4375 12.78125 1.488281 12.65625 1.488281 12.511719 C 1.488281 12.363281 1.4375 12.238281 1.332031 12.136719 C 1.234375 12.023438 1.109375 11.96875 0.957031 11.96875 C 0.8125 11.96875 0.683594 12.023438 0.574219 12.136719 C 0.46875 12.238281 0.417969 12.363281 0.417969 12.511719 C 0.417969 12.65625 0.46875 12.78125 0.574219 12.886719 C 0.683594 12.988281 0.8125 13.042969 0.957031 13.042969 Z M 1.125 11.136719 C 1.277344 11.136719 1.402344 11.082031 1.5 10.980469 C 1.605469 10.867188 1.65625 10.742188 1.65625 10.605469 C 1.65625 10.453125 1.605469 10.324219 1.5 10.21875 C 1.402344 10.109375 1.277344 10.050781 1.125 10.050781 C 0.980469 10.050781 0.851562 10.109375 0.738281 10.21875 C 0.636719 10.324219 0.582031 10.453125 0.582031 10.605469 C 0.582031 10.742188 0.636719 10.867188 0.738281 10.980469 C 0.851562 11.082031 0.980469 11.136719 1.125 11.136719 Z M 1.613281 9.28125 C 1.765625 9.28125 1.894531 9.230469 2 9.125 C 2.105469 9.019531 2.15625 8.894531 2.15625 8.75 C 2.15625 8.605469 2.105469 8.476562 2 8.363281 C 1.894531 8.253906 1.765625 8.199219 1.613281 8.199219 C 1.476562 8.199219 1.351562 8.253906 1.238281 8.363281 C 1.136719 8.476562 1.082031 8.605469 1.082031 8.75 C 1.082031 8.894531 1.136719 9.019531 1.238281 9.125 C 1.351562 9.230469 1.476562 9.28125 1.613281 9.28125 Z M 2.425781 7.53125 C 2.578125 7.53125 2.703125 7.480469 2.800781 7.375 C 2.90625 7.269531 2.957031 7.148438 2.957031 7.011719 C 2.957031 6.859375 2.90625 6.730469 2.800781 6.625 C 2.703125 6.515625 2.578125 6.457031 2.425781 6.457031 C 2.28125 6.457031 2.152344 6.515625 2.042969 6.625 C 1.9375 6.730469 1.886719 6.859375 1.886719 7.011719 C 1.886719 7.148438 1.9375 7.269531 2.042969 7.375 C 2.152344 7.480469 2.28125 7.53125 2.425781 7.53125 Z M 20.449219 22.699219 C 20.601562 22.851562 20.789062 22.925781 21.011719 22.925781 C 21.238281 22.925781 21.429688 22.851562 21.582031 22.699219 C 21.734375 22.539062 21.8125 22.347656 21.8125 22.125 C 21.820312 21.902344 21.742188 21.714844 21.582031 21.5625 L 2.355469 2.332031 C 2.195312 2.179688 2.003906 2.105469 1.78125 2.105469 C 1.558594 2.097656 1.367188 2.171875 1.207031 2.332031 C 1.054688 2.484375 0.980469 2.675781 0.980469 2.90625 C 0.980469 3.128906 1.054688 3.316406 1.207031 3.46875 Z M 20.449219 22.699219 "/>
</g>
</svg>
