<svg width="157" height="170" viewBox="0 0 157 170" fill="none" xmlns="http://www.w3.org/2000/svg">
<path d="M72.4375 0.4375C69.0625 0.4375 66.0417 1.35417 63.375 3.1875C60.75 5.02083 58.4583 7.39583 56.5 10.3125C54.5833 13.2292 52.9792 16.3542 51.6875 19.6875C50.3958 23.0208 49.4375 26.2708 48.8125 29.4375C48.1875 32.5625 47.875 35.2292 47.875 37.4375C47.875 41.2292 48.3542 44.1875 49.3125 46.3125C50.3125 48.3958 51.4583 50 52.75 51.125C54.0833 52.2083 55.2292 53.0833 56.1875 53.75C57.1875 54.375 57.6875 55.125 57.6875 56C57.6875 56.75 57.0208 57.5417 55.6875 58.375L35.1875 71.0625L30.25 64.8125C29.6667 64.0208 29.375 63.1458 29.375 62.1875C29.375 61.2292 29.7083 60.3958 30.375 59.6875C31.0417 58.9375 32.0625 58.5625 33.4375 58.5625C35.3958 58.5625 36.9583 57.9792 38.125 56.8125C39.3333 55.6458 39.9375 54.1875 39.9375 52.4375C39.9375 50.6875 39.3333 49.2083 38.125 48C36.9167 46.7917 35.4375 46.1875 33.6875 46.1875C31.9375 46.1875 30.4375 46.7917 29.1875 48C27.9792 49.2083 27.375 50.6875 27.375 52.4375C27.375 52.9375 27.3958 53.2917 27.4375 53.5C27.6458 54.75 27.4583 55.6042 26.875 56.0625C26.2917 56.5208 25.6042 56.6875 24.8125 56.5625C24.0625 56.3958 23.5 56 23.125 55.375C22.7917 54.75 22.9583 53.9792 23.625 53.0625C24.4583 51.9375 24.875 50.6875 24.875 49.3125C24.875 47.5625 24.25 46.0833 23 44.875C21.7917 43.6667 20.3125 43.0625 18.5625 43.0625C16.8542 43.0625 15.375 43.6667 14.125 44.875C12.9167 46.0833 12.3125 47.5625 12.3125 49.3125C12.3125 50.6875 12.6875 51.8958 13.4375 52.9375C14.1875 53.9375 15.1667 54.7083 16.375 55.25C17.3333 55.6667 17.8333 56.2083 17.875 56.875C17.9583 57.5417 17.75 58.1458 17.25 58.6875C16.7917 59.2292 16.2292 59.5417 15.5625 59.625C14.8958 59.6667 14.2917 59.3125 13.75 58.5625C12.4583 56.6875 10.6875 55.75 8.4375 55.75C6.6875 55.75 5.20833 56.3542 4 57.5625C2.79167 58.7708 2.1875 60.25 2.1875 62C2.1875 63.75 2.79167 65.25 4 66.5C5.20833 67.7083 6.6875 68.3125 8.4375 68.3125C9.60417 68.3125 10.7292 67.9792 11.8125 67.3125C13.2292 66.4375 14.5417 66.0833 15.75 66.25C16.9583 66.375 18.125 67.1667 19.25 68.625L28.875 80.9375C30.0833 82.4792 31.5833 83.5208 33.375 84.0625C35.2083 84.6042 37 84.4167 38.75 83.5L48.0625 78.5L46.25 78.25C45.25 81.125 44.5417 84.4167 44.125 88.125C43.75 91.8333 44.1667 95.9792 45.375 100.562L46.0625 99L37.5 94.3125C35.75 93.3542 33.9583 93.1458 32.125 93.6875C30.3333 94.2292 28.8333 95.2917 27.625 96.875L18.0625 109.188C16.8958 110.646 15.7083 111.458 14.5 111.625C13.2917 111.75 11.9792 111.375 10.5625 110.5C9.52083 109.833 8.41667 109.5 7.25 109.5C5.5 109.5 4 110.125 2.75 111.375C1.54167 112.583 0.9375 114.062 0.9375 115.812C0.9375 117.521 1.54167 119 2.75 120.25C4 121.458 5.5 122.062 7.25 122.062C9.45833 122.062 11.2083 121.104 12.5 119.188C13.0417 118.479 13.6458 118.167 14.3125 118.25C14.9792 118.292 15.5417 118.583 16 119.125C16.5 119.625 16.7083 120.208 16.625 120.875C16.5833 121.542 16.0833 122.104 15.125 122.562C13.9167 123.104 12.9375 123.896 12.1875 124.938C11.4375 125.938 11.0625 127.104 11.0625 128.438C11.0625 130.188 11.6667 131.667 12.875 132.875C14.125 134.125 15.625 134.75 17.375 134.75C19.0833 134.75 20.5417 134.125 21.75 132.875C23 131.667 23.625 130.188 23.625 128.438C23.625 127.104 23.2292 125.854 22.4375 124.688C21.7292 123.771 21.5417 123.021 21.875 122.438C22.25 121.812 22.8125 121.438 23.5625 121.312C24.3542 121.146 25.0417 121.292 25.625 121.75C26.25 122.208 26.4583 123.062 26.25 124.312C26.1667 124.479 26.125 124.833 26.125 125.375C26.125 127.125 26.7292 128.604 27.9375 129.812C29.1875 131.021 30.6875 131.625 32.4375 131.625C34.1875 131.625 35.6667 131.021 36.875 129.812C38.0833 128.604 38.6875 127.125 38.6875 125.375C38.6875 123.625 38.1042 122.167 36.9375 121C35.7708 119.833 34.1875 119.25 32.1875 119.25C30.8125 119.25 29.7917 118.896 29.125 118.188C28.4583 117.438 28.125 116.583 28.125 115.625C28.125 114.625 28.4167 113.75 29 113L34 106.75L57.75 125.75C58.5417 131.833 60.375 137.542 63.25 142.875C66.125 148.208 69.9167 152.896 74.625 156.938C79.375 160.979 84.9375 164.125 91.3125 166.375C97.6875 168.667 104.75 169.812 112.5 169.812C118.75 169.812 124.312 168.958 129.188 167.25C134.062 165.583 138.25 163.458 141.75 160.875C145.292 158.292 148.146 155.667 150.312 153C152.521 150.333 154.062 148.042 154.938 146.125C155.896 144 156.146 142.083 155.688 140.375C155.271 138.708 154.417 137.375 153.125 136.375C151.833 135.417 150.375 134.958 148.75 135C147.167 135.042 145.688 135.771 144.312 137.188C141.354 140.188 138.229 142.396 134.938 143.812C131.688 145.271 128.479 146.229 125.312 146.688C122.146 147.146 119.25 147.375 116.625 147.375C113.625 147.375 110.646 146.812 107.688 145.688C104.729 144.604 101.958 143.021 99.375 140.938C96.8333 138.854 94.6667 136.375 92.875 133.5C91.125 130.625 89.9167 127.396 89.25 123.812L110.75 106.75L115.688 113C116.312 113.75 116.625 114.625 116.625 115.625C116.625 116.583 116.292 117.438 115.625 118.188C114.958 118.896 113.938 119.25 112.562 119.25C110.562 119.25 108.979 119.833 107.812 121C106.646 122.167 106.062 123.625 106.062 125.375C106.062 127.125 106.667 128.604 107.875 129.812C109.083 131.021 110.562 131.625 112.312 131.625C114.062 131.625 115.542 131.021 116.75 129.812C118 128.604 118.625 127.125 118.625 125.375C118.625 124.833 118.583 124.479 118.5 124.312C118.292 123.062 118.479 122.208 119.062 121.75C119.688 121.292 120.375 121.146 121.125 121.312C121.917 121.438 122.479 121.812 122.812 122.438C123.188 123.021 123.021 123.771 122.312 124.688C121.521 125.854 121.125 127.104 121.125 128.438C121.125 130.188 121.729 131.667 122.938 132.875C124.146 134.125 125.625 134.75 127.375 134.75C129.125 134.75 130.604 134.125 131.812 132.875C133.062 131.667 133.688 130.188 133.688 128.438C133.688 127.104 133.312 125.938 132.562 124.938C131.812 123.896 130.833 123.104 129.625 122.562C128.667 122.104 128.146 121.542 128.062 120.875C128.021 120.208 128.229 119.625 128.688 119.125C129.188 118.583 129.771 118.292 130.438 118.25C131.104 118.167 131.708 118.479 132.25 119.188C133.5 121.104 135.25 122.062 137.5 122.062C139.25 122.062 140.729 121.458 141.938 120.25C143.188 119 143.812 117.521 143.812 115.812C143.812 114.062 143.188 112.583 141.938 111.375C140.729 110.125 139.25 109.5 137.5 109.5C136.333 109.5 135.208 109.833 134.125 110.5C132.75 111.375 131.458 111.75 130.25 111.625C129.042 111.458 127.854 110.646 126.688 109.188L117.125 96.875C115.917 95.2917 114.396 94.2292 112.562 93.6875C110.771 93.1458 109 93.3542 107.25 94.3125L98.75 98.9375L99.4375 100.625C100.688 96.0417 101.083 91.875 100.625 88.125C100.208 84.375 99.5208 81.0417 98.5625 78.125L96.75 78.5L106.062 83.5C107.812 84.4167 109.583 84.6042 111.375 84.0625C113.208 83.5208 114.729 82.4792 115.938 80.9375L125.562 68.625C126.688 67.1667 127.854 66.375 129.062 66.25C130.271 66.0833 131.583 66.4375 133 67.3125C134.083 67.9792 135.208 68.3125 136.375 68.3125C138.125 68.3125 139.604 67.7083 140.812 66.5C142.021 65.25 142.625 63.75 142.625 62C142.625 60.25 142.021 58.7708 140.812 57.5625C139.604 56.3542 138.125 55.75 136.375 55.75C134.125 55.75 132.354 56.6875 131.062 58.5625C130.521 59.3125 129.917 59.6667 129.25 59.625C128.583 59.5417 128 59.2292 127.5 58.6875C127.042 58.1458 126.833 57.5417 126.875 56.875C126.958 56.2083 127.479 55.6667 128.438 55.25C129.646 54.7083 130.625 53.9375 131.375 52.9375C132.125 51.8958 132.5 50.6875 132.5 49.3125C132.5 47.5625 131.875 46.0833 130.625 44.875C129.417 43.6667 127.958 43.0625 126.25 43.0625C124.5 43.0625 123 43.6667 121.75 44.875C120.542 46.0833 119.938 47.5625 119.938 49.3125C119.938 50.6875 120.354 51.9375 121.188 53.0625C121.854 53.9792 122 54.75 121.625 55.375C121.292 56 120.729 56.3958 119.938 56.5625C119.188 56.6875 118.521 56.5208 117.938 56.0625C117.354 55.6042 117.167 54.75 117.375 53.5C117.417 53.2917 117.438 52.9375 117.438 52.4375C117.438 50.6875 116.812 49.2083 115.562 48C114.354 46.7917 112.875 46.1875 111.125 46.1875C109.417 46.1875 107.938 46.7917 106.688 48C105.479 49.2083 104.875 50.6875 104.875 52.4375C104.875 54.1875 105.458 55.6458 106.625 56.8125C107.833 57.9792 109.417 58.5625 111.375 58.5625C112.75 58.5625 113.771 58.9375 114.438 59.6875C115.104 60.3958 115.438 61.2292 115.438 62.1875C115.438 63.1458 115.146 64.0208 114.562 64.8125L109.625 71.0625L89.1875 58.375C87.8125 57.5 87.125 56.7083 87.125 56C87.125 55.125 87.6042 54.3542 88.5625 53.6875C89.5625 53.0208 90.7083 52.1458 92 51.0625C93.3333 49.9375 94.4792 48.3333 95.4375 46.25C96.4375 44.125 96.9375 41.1875 96.9375 37.4375C96.9375 35.2292 96.625 32.5625 96 29.4375C95.375 26.2708 94.4167 23.0208 93.125 19.6875C91.8333 16.3542 90.2083 13.2292 88.25 10.3125C86.3333 7.39583 84.0417 5.02083 81.375 3.1875C78.75 1.35417 75.7708 0.4375 72.4375 0.4375Z" fill="white"/>
</svg>
