<svg xmlns="http://www.w3.org/2000/svg" width="24" height="24"><path style="stroke:none;fill-rule:nonzero;fill:#fff;fill-opacity:1" d="M11.102.742c-.508 0-.961.125-1.36.371a3.892 3.892 0 0 0-1.031.973 6.3 6.3 0 0 0-.723 1.281c-.195.453-.34.899-.433 1.328-.094.426-.14.793-.14 1.094 0 .516.073.918.218 1.207.148.285.32.504.515.656.2.149.372.266.516.36.149.086.223.187.223.304 0 .106-.098.215-.301.329L5.512 10.37l-.739-.851a.552.552 0 0 1-.132-.36c0-.129.05-.242.148-.34.102-.101.254-.152.461-.152.293 0 .527-.082.703-.238a.77.77 0 0 0 .274-.598.792.792 0 0 0-.274-.605.964.964 0 0 0-.664-.247.994.994 0 0 0-.676.247.792.792 0 0 0-.273.605c0 .07.004.117.012.145.03.168 0 .285-.086.351a.406.406 0 0 1-.563-.098c-.05-.085-.023-.187.074-.312a.795.795 0 0 0-.093-1.117.946.946 0 0 0-.664-.246.98.98 0 0 0-.668.246.802.802 0 0 0-.27.605c0 .188.055.352.168.496.113.133.258.243.441.317.145.054.22.125.223.219a.271.271 0 0 1-.094.25.415.415 0 0 1-.25.124c-.101.004-.191-.042-.273-.144a.943.943 0 0 0-.797-.383.946.946 0 0 0-.664.246.786.786 0 0 0-.273.606c0 .238.09.445.273.613a.95.95 0 0 0 .664.246 1 1 0 0 0 .508-.137c.21-.117.406-.164.59-.144.18.02.355.125.523.324l1.445 1.68c.18.21.407.351.676.426.274.074.543.05.805-.079l1.398-.683-.273-.031c-.149.39-.258.843-.32 1.347-.055.504.007 1.07.187 1.696l.106-.211-1.286-.641a1.084 1.084 0 0 0-.804-.082c-.27.07-.496.215-.676.43l-1.434 1.683c-.175.2-.355.309-.535.328-.183.02-.379-.03-.59-.152a1 1 0 0 0-1.172.121.766.766 0 0 0-.273.602.8.8 0 0 0 .273.609c.188.164.41.246.672.246a.94.94 0 0 0 .79-.39c.081-.098.171-.141.273-.13a.36.36 0 0 1 .25.118c.078.07.11.148.094.242-.004.086-.079.164-.223.227a1.06 1.06 0 0 0-.442.328.72.72 0 0 0-.167.476c0 .235.09.438.27.602.179.164.42.258.675.254a.92.92 0 0 0 .656-.254.774.774 0 0 0 .281-.602.857.857 0 0 0-.175-.515c-.11-.122-.137-.227-.086-.305a.372.372 0 0 1 .254-.156c.109-.02.222 0 .308.062.094.063.125.18.094.352a.773.773 0 0 0 .254.746c.187.164.41.246.676.246a.95.95 0 0 0 .664-.246.786.786 0 0 0 .273-.606.783.783 0 0 0-.266-.597c-.171-.153-.41-.235-.71-.235-.208 0-.36-.047-.461-.148a.48.48 0 0 1-.149-.348.54.54 0 0 1 .133-.36l.75-.85 3.562 2.593c.118.824.391 1.61.825 2.332.43.727 1 1.367 1.707 1.918.71.555 1.547.98 2.5 1.29.957.312 2.015.468 3.18.468.937 0 1.773-.117 2.503-.352.73-.226 1.36-.515 1.883-.867.531-.355.961-.71 1.285-1.074.332-.363.563-.676.696-.938.14-.289.18-.55.109-.785a.925.925 0 0 0-.383-.543 1.051 1.051 0 0 0-.656-.187c-.238.004-.461.105-.664.297-.445.41-.914.71-1.406.902a5.91 5.91 0 0 1-1.446.395c-.476.058-.91.09-1.304.09-.45 0-.895-.075-1.34-.231a4.296 4.296 0 0 1-2.223-1.66 3.64 3.64 0 0 1-.543-1.32l3.227-2.329.738.852c.094.105.14.226.14.36a.464.464 0 0 1-.148.347c-.101.101-.254.148-.46.148-.298 0-.536.082-.712.235a.77.77 0 0 0-.261.597.81.81 0 0 0 .27.61c.175.16.417.25.667.246a.95.95 0 0 0 .664-.246.79.79 0 0 0 .281-.61c0-.07-.004-.12-.02-.14-.03-.172 0-.29.087-.352.09-.062.199-.082.308-.062.11.011.203.07.254.156.055.078.032.183-.074.305a.844.844 0 0 0-.18.515c0 .235.09.438.274.602.18.172.402.254.664.254a.932.932 0 0 0 .668-.254.774.774 0 0 0 .281-.602.714.714 0 0 0-.172-.476 1.023 1.023 0 0 0-.437-.328c-.145-.063-.223-.141-.235-.227a.3.3 0 0 1 .094-.242.38.38 0 0 1 .262-.117c.097-.012.191.03.27.125a.92.92 0 0 0 .788.394.95.95 0 0 0 .664-.246.79.79 0 0 0 .282-.61.774.774 0 0 0-.282-.6.913.913 0 0 0-.664-.255c-.18 0-.355.047-.507.133-.204.121-.399.172-.579.152-.183-.02-.359-.129-.535-.328l-1.433-1.68a1.29 1.29 0 0 0-.688-.433 1.085 1.085 0 0 0-.797.082l-1.273.629.101.234c.188-.629.25-1.195.18-1.707a6.145 6.145 0 0 0-.308-1.363l-.274.05 1.399.68c.261.13.527.153.796.079.274-.075.504-.215.684-.426l1.445-1.68c.168-.2.344-.305.524-.32.18-.024.379.023.59.144.152.086.328.133.507.133a.96.96 0 0 0 .668-.25.804.804 0 0 0 .27-.61.792.792 0 0 0-.274-.605.964.964 0 0 0-.664-.246c-.34 0-.605.13-.796.383-.082.105-.172.148-.274.148a.489.489 0 0 1-.262-.129.315.315 0 0 1-.093-.25c.011-.09.09-.164.234-.218.18-.074.328-.184.441-.317a.77.77 0 0 0 .168-.496.781.781 0 0 0-.28-.605.945.945 0 0 0-.657-.246.994.994 0 0 0-.676.246.775.775 0 0 0-.27.605c0 .188.063.356.188.516.098.121.121.226.063.312a.33.33 0 0 1-.25.16.39.39 0 0 1-.301-.066c-.09-.062-.117-.183-.086-.351a.43.43 0 0 0 .012-.141.783.783 0 0 0-.282-.61.974.974 0 0 0-.668-.246c-.25 0-.488.09-.664.25a.806.806 0 0 0-.273.606c0 .238.09.434.262.594.183.156.421.238.714.238.207 0 .36.05.457.152a.46.46 0 0 1 .153.344.568.568 0 0 1-.133.36l-.738.851-3.067-1.73c-.207-.122-.308-.227-.308-.329 0-.117.07-.222.215-.312.148-.09.32-.211.515-.36.2-.152.371-.37.516-.656.148-.289.222-.687.222-1.199 0-.3-.046-.668-.14-1.094a7.316 7.316 0 0 0-.43-1.328 6.387 6.387 0 0 0-.73-1.277 3.716 3.716 0 0 0-1.032-.973 2.47 2.47 0 0 0-1.34-.375Zm0 0"/></svg>