<svg width="100" height="131" viewBox="0 0 100 131" fill="none" xmlns="http://www.w3.org/2000/svg">
<path d="M7.5625 130.938C9.10417 130.938 10.4583 130.625 11.625 130C12.8333 129.375 14.2083 128.312 15.75 126.812L49.375 93.5C49.7083 93.125 50 92.9375 50.25 92.9375C50.4583 92.9375 50.75 93.125 51.125 93.5L84.6875 126.812C86.2292 128.312 87.5833 129.375 88.75 130C89.9583 130.625 91.3333 130.938 92.875 130.938C95 130.938 96.6667 130.208 97.875 128.75C99.0833 127.333 99.6875 125.562 99.6875 123.438C99.6875 122.271 99.4792 121 99.0625 119.625C98.6875 118.292 98.2708 116.979 97.8125 115.688L58.75 8.9375C57.75 6.1875 56.5208 4.16667 55.0625 2.875C53.6458 1.58333 52.0417 0.9375 50.25 0.9375C48.4583 0.9375 46.8333 1.58333 45.375 2.875C43.9583 4.16667 42.75 6.1875 41.75 8.9375L2.625 115.688C2.16667 116.979 1.72917 118.292 1.3125 119.625C0.9375 121 0.75 122.271 0.75 123.438C0.75 125.562 1.35417 127.333 2.5625 128.75C3.77083 130.208 5.4375 130.938 7.5625 130.938Z" fill="white"/>
</svg>
