<svg xmlns="http://www.w3.org/2000/svg" width="24" height="24"><path style="stroke:none;fill-rule:nonzero;fill:#fff;fill-opacity:1" d="M12 23.05c1.633 0 3.168-.292 4.605-.882a12.22 12.22 0 0 0 3.82-2.438 11.467 11.467 0 0 0 2.59-3.582c.626-1.363.938-2.808.938-4.347a10.2 10.2 0 0 0-.937-4.332 11.53 11.53 0 0 0-2.59-3.598 12.361 12.361 0 0 0-3.82-2.437A12.166 12.166 0 0 0 11.987.55c-1.633 0-3.172.293-4.617.883A12.307 12.307 0 0 0 3.562 3.87 11.523 11.523 0 0 0 .985 7.465 10.2 10.2 0 0 0 .047 11.8c0 1.539.312 2.984.937 4.347a11.467 11.467 0 0 0 2.59 3.582 12.236 12.236 0 0 0 3.809 2.438c1.445.59 2.984.883 4.617.883ZM5.39 12.739c-.35 0-.6-.09-.75-.273a.726.726 0 0 1-.128-.621c.062-.227.222-.399.48-.516l11.414-5.11c.313-.136.594-.16.844-.062a.818.818 0 0 1 .527.492c.102.239.082.504-.058.797L12.352 18.2c-.125.242-.309.395-.551.45a.807.807 0 0 1-.668-.11c-.195-.137-.293-.383-.293-.727v-4.699c0-.25-.13-.375-.387-.375Zm0 0"/></svg>