<svg width="16" height="17" viewBox="0 0 16 17" fill="none" xmlns="http://www.w3.org/2000/svg">
<path d="M8 16.3281C9.08854 16.3281 10.112 16.1198 11.0703 15.7031C12.0339 15.2865 12.8828 14.7109 13.6172 13.9766C14.3516 13.2422 14.9271 12.3958 15.3438 11.4375C15.7604 10.474 15.9688 9.44792 15.9688 8.35938C15.9688 7.27083 15.7604 6.2474 15.3438 5.28906C14.9271 4.32552 14.3516 3.47656 13.6172 2.74219C12.8828 2.00781 12.0339 1.43229 11.0703 1.01562C10.1068 0.598958 9.08073 0.390625 7.99219 0.390625C6.90365 0.390625 5.8776 0.598958 4.91406 1.01562C3.95573 1.43229 3.10938 2.00781 2.375 2.74219C1.64583 3.47656 1.07292 4.32552 0.65625 5.28906C0.239583 6.2474 0.03125 7.27083 0.03125 8.35938C0.03125 9.44792 0.239583 10.474 0.65625 11.4375C1.07292 12.3958 1.64844 13.2422 2.38281 13.9766C3.11719 14.7109 3.96354 15.2865 4.92188 15.7031C5.88542 16.1198 6.91146 16.3281 8 16.3281ZM3.59375 9.02344C3.35938 9.02344 3.19271 8.95833 3.09375 8.82812C3 8.69271 2.97135 8.54688 3.00781 8.39062C3.04948 8.22917 3.15625 8.10677 3.32812 8.02344L10.9375 4.40625C11.1458 4.30729 11.3333 4.29167 11.5 4.35938C11.6719 4.42188 11.7891 4.53906 11.8516 4.71094C11.9193 4.8776 11.9062 5.0651 11.8125 5.27344L8.23438 12.8906C8.15104 13.0625 8.02865 13.1693 7.86719 13.2109C7.70573 13.2526 7.55729 13.2266 7.42188 13.1328C7.29167 13.0339 7.22656 12.862 7.22656 12.6172V9.28906C7.22656 9.11198 7.14062 9.02344 6.96875 9.02344H3.59375Z" fill="white"/>
</svg>
