<?xml version="1.0" encoding="UTF-8"?>
<svg xmlns="http://www.w3.org/2000/svg" xmlns:xlink="http://www.w3.org/1999/xlink" width="24" height="29.142857" viewBox="0 0 24 29.142857" version="1.1">
<g id="surface1">
<path style=" stroke:none;fill-rule:nonzero;fill:rgb(100%,100%,100%);fill-opacity:1;" d="M 11.730469 27.855469 C 11.839844 27.855469 11.96875 27.835938 12.121094 27.789062 C 12.28125 27.753906 12.445312 27.691406 12.617188 27.601562 C 14.527344 26.601562 16.125 25.699219 17.410156 24.898438 C 18.707031 24.09375 19.738281 23.300781 20.503906 22.511719 C 21.28125 21.726562 21.839844 20.882812 22.179688 19.980469 C 22.519531 19.070312 22.6875 18.011719 22.6875 16.808594 L 22.6875 6.710938 C 22.6875 6.023438 22.539062 5.527344 22.246094 5.222656 C 21.960938 4.917969 21.535156 4.652344 20.972656 4.417969 C 20.660156 4.285156 20.230469 4.117188 19.6875 3.910156 C 19.144531 3.707031 18.539062 3.480469 17.878906 3.242188 C 17.226562 3 16.570312 2.757812 15.910156 2.519531 C 15.257812 2.277344 14.660156 2.0625 14.117188 1.875 C 13.582031 1.679688 13.15625 1.527344 12.84375 1.417969 C 12.664062 1.367188 12.480469 1.320312 12.292969 1.285156 C 12.105469 1.25 11.917969 1.230469 11.730469 1.230469 C 11.542969 1.230469 11.355469 1.25 11.167969 1.285156 C 10.992188 1.320312 10.8125 1.367188 10.632812 1.417969 C 10.320312 1.527344 9.894531 1.679688 9.347656 1.875 C 8.804688 2.0625 8.199219 2.277344 7.539062 2.519531 C 6.886719 2.75 6.230469 2.992188 5.570312 3.242188 C 4.917969 3.480469 4.320312 3.710938 3.777344 3.925781 C 3.230469 4.128906 2.804688 4.292969 2.492188 4.417969 C 1.9375 4.644531 1.511719 4.910156 1.21875 5.222656 C 0.925781 5.527344 0.777344 6.023438 0.777344 6.710938 L 0.777344 16.808594 C 0.777344 18.011719 0.949219 19.0625 1.300781 19.957031 C 1.65625 20.839844 2.222656 21.664062 3 22.433594 C 3.785156 23.191406 4.820312 23.976562 6.105469 24.789062 C 7.402344 25.601562 8.980469 26.539062 10.847656 27.601562 C 11.019531 27.691406 11.179688 27.753906 11.332031 27.789062 C 11.492188 27.835938 11.625 27.855469 11.730469 27.855469 Z M 6.75 19.511719 L 6.75 14.023438 C 6.75 13.066406 7.152344 12.5625 7.957031 12.507812 L 7.957031 10.886719 C 7.957031 9.613281 8.304688 8.585938 9 7.808594 C 9.695312 7.03125 10.605469 6.644531 11.730469 6.644531 C 12.855469 6.644531 13.769531 7.03125 14.464844 7.808594 C 15.160156 8.585938 15.507812 9.613281 15.507812 10.886719 L 15.507812 12.507812 C 16.320312 12.5625 16.726562 13.066406 16.726562 14.023438 L 16.726562 19.511719 C 16.726562 20.523438 16.253906 21.027344 15.308594 21.027344 L 8.15625 21.027344 C 7.21875 21.027344 6.75 20.523438 6.75 19.511719 Z M 9.402344 12.496094 L 14.0625 12.496094 L 14.0625 10.726562 C 14.0625 9.925781 13.847656 9.277344 13.417969 8.785156 C 13 8.285156 12.4375 8.035156 11.730469 8.035156 C 11.035156 8.035156 10.472656 8.285156 10.042969 8.785156 C 9.617188 9.277344 9.402344 9.925781 9.402344 10.726562 Z M 9.402344 12.496094 "/>
</g>
</svg>
