<svg width="12" height="16" viewBox="0 0 12 16" fill="none" xmlns="http://www.w3.org/2000/svg">
<path d="M2.42188 15.8203H9.57031C10.1432 15.8203 10.5781 15.6641 10.875 15.3516C11.1771 15.0443 11.3281 14.5807 11.3281 13.9609V8.57812C11.3281 7.96354 11.1771 7.5026 10.875 7.19531C10.5781 6.88281 10.1432 6.72656 9.57031 6.72656H2.42188C1.84896 6.72656 1.41146 6.88281 1.10938 7.19531C0.8125 7.5026 0.664062 7.96354 0.664062 8.57812V13.9609C0.664062 14.5807 0.8125 15.0443 1.10938 15.3516C1.41146 15.6641 1.84896 15.8203 2.42188 15.8203ZM2.46094 14.6406C2.29427 14.6406 2.16406 14.5885 2.07031 14.4844C1.97656 14.3854 1.92969 14.2396 1.92969 14.0469V8.49219C1.92969 8.29948 1.97656 8.15365 2.07031 8.05469C2.16406 7.95573 2.29427 7.90625 2.46094 7.90625H9.53125C9.70312 7.90625 9.83333 7.95573 9.92188 8.05469C10.0156 8.15365 10.0625 8.29948 10.0625 8.49219V14.0469C10.0625 14.2396 10.0156 14.3854 9.92188 14.4844C9.83333 14.5885 9.70312 14.6406 9.53125 14.6406H2.46094ZM2.03125 7.32812H3.27344V4.69531C3.27344 4.03906 3.39844 3.48698 3.64844 3.03906C3.89844 2.59115 4.22917 2.2526 4.64062 2.02344C5.05729 1.79427 5.50781 1.67969 5.99219 1.67969C6.48177 1.67969 6.93229 1.79427 7.34375 2.02344C7.76042 2.2526 8.09375 2.59115 8.34375 3.03906C8.59896 3.48698 8.72656 4.03906 8.72656 4.69531V7.32812H9.96094V4.85938C9.96094 3.88021 9.77083 3.06771 9.39062 2.42188C9.01562 1.77604 8.52604 1.29427 7.92188 0.976562C7.31771 0.658854 6.67448 0.5 5.99219 0.5C5.3151 0.5 4.67448 0.658854 4.07031 0.976562C3.46615 1.29427 2.97396 1.77604 2.59375 2.42188C2.21875 3.06771 2.03125 3.88021 2.03125 4.85938V7.32812Z" fill="white"/>
</svg>
