<svg width="86" height="124" viewBox="0 0 86 124" fill="none" xmlns="http://www.w3.org/2000/svg">
<path d="M14.5625 123.562H71.75C76.3333 123.562 79.8125 122.312 82.1875 119.812C84.6042 117.312 85.8125 113.604 85.8125 108.688V65.625C85.8125 60.7083 84.6042 57.0208 82.1875 54.5625C79.8125 52.0625 76.3333 50.8125 71.75 50.8125H14.5625C9.97917 50.8125 6.47917 52.0625 4.0625 54.5625C1.6875 57.0208 0.5 60.7083 0.5 65.625V108.688C0.5 113.604 1.6875 117.312 4.0625 119.812C6.47917 122.312 9.97917 123.562 14.5625 123.562ZM11.4375 55.625H21.375V34.5C21.375 29.25 22.375 24.8333 24.375 21.25C26.375 17.6667 29.0208 14.9583 32.3125 13.125C35.6458 11.2917 39.25 10.375 43.125 10.375C47.0417 10.375 50.6458 11.2917 53.9375 13.125C57.2708 14.9583 59.9375 17.6667 61.9375 21.25C63.9792 24.8333 65 29.25 65 34.5V55.625H74.875V35.875C74.875 28.0417 73.3542 21.5417 70.3125 16.375C67.3125 11.2083 63.3958 7.35417 58.5625 4.8125C53.7292 2.22917 48.5833 0.9375 43.125 0.9375C37.7083 0.9375 32.5833 2.22917 27.75 4.8125C22.9167 7.35417 18.9792 11.2083 15.9375 16.375C12.9375 21.5417 11.4375 28.0417 11.4375 35.875V55.625Z" fill="white"/>
</svg>
