<?xml version="1.0" encoding="UTF-8"?>
<svg xmlns="http://www.w3.org/2000/svg" xmlns:xlink="http://www.w3.org/1999/xlink" width="24" height="30.857143" viewBox="0 0 24 30.857143" version="1.1">
<g id="surface1">
<path style=" stroke:none;fill-rule:nonzero;fill:rgb(100%,100%,100%);fill-opacity:1;" d="M 7.914062 26.316406 L 7.914062 21.804688 C 7.914062 21.027344 8.246094 20.617188 8.90625 20.570312 L 8.90625 19.21875 C 8.90625 18.183594 9.191406 17.347656 9.761719 16.714844 C 10.335938 16.070312 11.085938 15.75 12.011719 15.75 C 12.941406 15.75 13.691406 16.070312 14.261719 16.714844 C 14.835938 17.347656 15.121094 18.183594 15.121094 19.21875 L 15.121094 20.570312 C 15.789062 20.617188 16.125 21.027344 16.125 21.804688 L 16.125 26.316406 C 16.125 27.15625 15.730469 27.574219 14.945312 27.574219 L 9.082031 27.574219 C 8.304688 27.574219 7.914062 27.15625 7.914062 26.316406 Z M 10.097656 20.558594 L 13.929688 20.558594 L 13.929688 19.097656 C 13.929688 18.4375 13.75 17.90625 13.394531 17.503906 C 13.042969 17.09375 12.585938 16.886719 12.011719 16.886719 C 11.441406 16.886719 10.976562 17.09375 10.621094 17.503906 C 10.273438 17.90625 10.097656 18.4375 10.097656 19.097656 Z M 4.886719 30.402344 L 19.113281 30.402344 C 20.496094 30.402344 21.53125 30.050781 22.21875 29.34375 C 22.914062 28.648438 23.261719 27.601562 23.261719 26.210938 L 23.261719 14.050781 L 13.566406 14.050781 C 11.878906 14.050781 11.035156 13.207031 11.035156 11.519531 L 11.035156 1.6875 L 4.886719 1.6875 C 3.503906 1.6875 2.464844 2.039062 1.769531 2.746094 C 1.082031 3.449219 0.738281 4.5 0.738281 5.894531 L 0.738281 26.210938 C 0.738281 27.613281 1.082031 28.660156 1.769531 29.355469 C 2.464844 30.054688 3.503906 30.402344 4.886719 30.402344 Z M 13.605469 12.214844 L 23.101562 12.214844 C 23.058594 11.9375 22.941406 11.660156 22.753906 11.382812 C 22.566406 11.105469 22.3125 10.804688 21.992188 10.472656 L 14.613281 2.960938 C 14.300781 2.636719 14 2.382812 13.714844 2.195312 C 13.429688 2 13.148438 1.878906 12.871094 1.835938 L 12.871094 11.492188 C 12.871094 11.972656 13.117188 12.214844 13.605469 12.214844 Z M 13.605469 12.214844 "/>
</g>
</svg>
