<?xml version="1.0" encoding="UTF-8"?>
<svg xmlns="http://www.w3.org/2000/svg" xmlns:xlink="http://www.w3.org/1999/xlink" width="24" height="25.5" viewBox="0 0 24 25.5" version="1.1">
<g id="surface1">
<path style=" stroke:none;fill-rule:nonzero;fill:rgb(100%,100%,100%);fill-opacity:1;" d="M 12 24.503906 C 13.632812 24.503906 15.167969 24.191406 16.605469 23.566406 C 18.050781 22.941406 19.324219 22.078125 20.425781 20.976562 C 21.527344 19.875 22.390625 18.605469 23.015625 17.167969 C 23.640625 15.722656 23.953125 14.183594 23.953125 12.550781 C 23.953125 10.917969 23.640625 9.382812 23.015625 7.945312 C 22.390625 6.5 21.527344 5.226562 20.425781 4.125 C 19.324219 3.023438 18.050781 2.160156 16.605469 1.535156 C 15.160156 0.910156 13.621094 0.597656 11.988281 0.597656 C 10.355469 0.597656 8.816406 0.910156 7.371094 1.535156 C 5.933594 2.160156 4.664062 3.023438 3.5625 4.125 C 2.46875 5.226562 1.609375 6.5 0.984375 7.945312 C 0.359375 9.382812 0.046875 10.917969 0.046875 12.550781 C 0.046875 14.183594 0.359375 15.722656 0.984375 17.167969 C 1.609375 18.605469 2.472656 19.875 3.574219 20.976562 C 4.675781 22.078125 5.945312 22.941406 7.382812 23.566406 C 8.828125 24.191406 10.367188 24.503906 12 24.503906 Z M 7.640625 17.332031 L 7.640625 12.527344 C 7.640625 11.691406 7.992188 11.25 8.695312 11.203125 L 8.695312 9.785156 C 8.695312 8.667969 9 7.769531 9.609375 7.089844 C 10.21875 6.410156 11.015625 6.070312 12 6.070312 C 12.984375 6.070312 13.78125 6.410156 14.390625 7.089844 C 15 7.769531 15.304688 8.667969 15.304688 9.785156 L 15.304688 11.203125 C 16.015625 11.25 16.371094 11.691406 16.371094 12.527344 L 16.371094 17.332031 C 16.371094 18.214844 15.957031 18.65625 15.128906 18.65625 L 8.871094 18.65625 C 8.050781 18.65625 7.640625 18.214844 7.640625 17.332031 Z M 9.960938 11.191406 L 14.039062 11.191406 L 14.039062 9.644531 C 14.039062 8.941406 13.851562 8.375 13.476562 7.945312 C 13.109375 7.507812 12.617188 7.289062 12 7.289062 C 11.390625 7.289062 10.898438 7.507812 10.523438 7.945312 C 10.148438 8.375 9.960938 8.941406 9.960938 9.644531 Z M 9.960938 11.191406 "/>
</g>
</svg>
