<svg xmlns="http://www.w3.org/2000/svg" width="24" height="24"><path style="stroke:none;fill-rule:nonzero;fill:#fff;fill-opacity:1" d="M1.297 16.266c0 .855.21 1.59.637 2.21.425.61 1.078 1.114 1.875 1.442.394.16.71.352.949.574.25.23.449.524.594.89l.46 1.184c.27.696.899 1.047 1.891 1.047h6.664c.98 0 1.606-.351 1.875-1.047l.473-1.183c.144-.363.34-.66.578-.89.25-.223.574-.415.965-.575.797-.328 1.445-.832 1.863-1.441.434-.622.649-1.356.649-2.211V7.344c0-.852-.215-1.586-.649-2.203-.418-.614-1.066-1.118-1.863-1.446a3.357 3.357 0 0 1-.965-.574 2.497 2.497 0 0 1-.578-.879l-.473-1.195C15.992.347 15.367 0 14.367 0H7.703c-.992 0-1.621.348-1.89 1.047l-.461 1.195a2.258 2.258 0 0 1-.579.88c-.238.226-.562.417-.964.573-.797.32-1.45.82-1.864 1.434-.43.617-.648 1.355-.648 2.215Zm2.105-.227V7.586c0-.82.293-1.465.883-1.93.594-.468 1.422-.703 2.48-.703h8.54c1.054 0 1.879.234 2.465.703.597.465.894 1.11.894 1.93v8.453c0 .813-.297 1.457-.894 1.93-.586.46-1.41.691-2.465.691h-8.54c-1.058 0-1.886-.23-2.48-.691-.59-.473-.883-1.117-.883-1.93Zm17.051-5.012h.52c.375 0 .672-.086.894-.261.23-.184.344-.438.344-.75V8.523c0-.316-.113-.558-.344-.734-.222-.187-.52-.281-.894-.281h-.52Zm-14.57 3.578c0 .63.394.946 1.183.946h4.907c.777 0 1.168-.317 1.168-.946v-2.882c0-.621-.391-.938-1.168-.938H7.066c-.789 0-1.183.313-1.183.938Zm4.965-3.168h1.441v-1.59c0-.402.133-.726.402-.968.282-.242.664-.367 1.157-.367.48 0 .859.125 1.136.367.282.242.418.566.418.969v.78c0 .157.07.29.203.4a.79.79 0 0 0 .504.156.827.827 0 0 0 .516-.16.48.48 0 0 0 .207-.395v-.781c0-.7-.273-1.27-.824-1.72-.547-.452-1.266-.683-2.16-.683-.907 0-1.633.23-2.18.696-.547.457-.82 1.058-.82 1.808Zm0 0"/></svg>