<svg xmlns="http://www.w3.org/2000/svg" width="24" height="24"><path style="stroke:none;fill-rule:nonzero;fill:#fff;fill-opacity:1" d="M2.98 19.387h18.028c.676 0 1.203-.223 1.586-.668.386-.457.582-1.082.582-1.875V3.617c0-.797-.196-1.414-.582-1.863-.383-.45-.91-.676-1.586-.676H2.98c-.667 0-1.195.227-1.582.676-.382.45-.574 1.066-.574 1.863v13.227c0 .793.192 1.418.574 1.875.387.445.915.668 1.582.668Zm.028-1.77a.631.631 0 0 1-.496-.215.91.91 0 0 1-.176-.582V3.648c0-.246.059-.441.176-.582a.629.629 0 0 1 .496-.207h17.984c.203 0 .367.067.485.207.125.141.187.336.187.582V16.82a.87.87 0 0 1-.187.582.591.591 0 0 1-.485.215Zm6.031 4.395h5.922v-2.766H9.039Zm-.059 1.293h6.04a.65.65 0 0 0 .523-.262.915.915 0 0 0 .227-.629.945.945 0 0 0-.227-.64.658.658 0 0 0-.523-.258H8.98a.704.704 0 0 0-.539.261.956.956 0 0 0-.218.637c0 .246.074.457.222.629.14.168.332.266.535.262Zm-.335-10.266c0 .629.253.945.757.945h3.18c.504 0 .758-.316.758-.945v-2.883c0-.617-.254-.922-.758-.922h-3.18c-.504 0-.757.305-.757.922Zm3.214-3.168h.93V8.293c0-.402.086-.73.262-.969a.884.884 0 0 1 .75-.367c.312 0 .558.125.738.367.184.239.274.567.274.969v.773c0 .153.042.286.132.395a.4.4 0 0 0 .328.164.422.422 0 0 0 .329-.164.601.601 0 0 0 .14-.395v-.773c0-.7-.18-1.273-.535-1.723a1.7 1.7 0 0 0-1.406-.68 1.7 1.7 0 0 0-1.418.696c-.348.453-.524 1.055-.524 1.805Zm0 0"/></svg>