<?xml version="1.0" encoding="UTF-8"?>
<svg xmlns="http://www.w3.org/2000/svg" xmlns:xlink="http://www.w3.org/1999/xlink" width="24" height="21.333333" viewBox="0 0 24 21.333333" version="1.1">
<g id="surface1">
<path style=" stroke:none;fill-rule:nonzero;fill:rgb(100%,100%,100%);fill-opacity:1;" d="M 3.625 21.09375 L 13.15625 21.09375 C 13.921875 21.09375 14.5 20.886719 14.894531 20.46875 C 15.296875 20.058594 15.5 19.441406 15.5 18.613281 L 15.5 11.4375 C 15.5 10.617188 15.296875 10.003906 14.894531 9.59375 C 14.5 9.175781 13.921875 8.96875 13.15625 8.96875 L 3.625 8.96875 C 2.859375 8.96875 2.277344 9.175781 1.875 9.59375 C 1.480469 10.003906 1.28125 10.617188 1.28125 11.4375 L 1.28125 18.613281 C 1.28125 19.441406 1.480469 20.058594 1.875 20.46875 C 2.277344 20.886719 2.859375 21.09375 3.625 21.09375 Z M 12.144531 9.78125 L 13.792969 9.78125 L 13.792969 6.269531 C 13.792969 5.394531 13.957031 4.660156 14.292969 4.0625 C 14.632812 3.464844 15.078125 3.015625 15.625 2.707031 C 16.171875 2.402344 16.773438 2.25 17.425781 2.25 C 18.074219 2.25 18.671875 2.402344 19.21875 2.707031 C 19.773438 3.015625 20.21875 3.464844 20.550781 4.0625 C 20.890625 4.660156 21.0625 5.394531 21.0625 6.269531 L 21.0625 8.582031 C 21.0625 8.894531 21.140625 9.128906 21.300781 9.28125 C 21.460938 9.433594 21.660156 9.511719 21.894531 9.511719 C 22.117188 9.511719 22.308594 9.4375 22.46875 9.292969 C 22.636719 9.144531 22.71875 8.910156 22.71875 8.582031 L 22.71875 6.488281 C 22.71875 5.511719 22.574219 4.65625 22.28125 3.925781 C 21.988281 3.199219 21.59375 2.59375 21.09375 2.113281 C 20.59375 1.628906 20.027344 1.265625 19.394531 1.03125 C 18.765625 0.796875 18.109375 0.675781 17.425781 0.675781 C 16.746094 0.675781 16.089844 0.796875 15.457031 1.03125 C 14.828125 1.265625 14.261719 1.628906 13.761719 2.113281 C 13.261719 2.59375 12.863281 3.199219 12.574219 3.925781 C 12.289062 4.65625 12.144531 5.511719 12.144531 6.488281 Z M 12.144531 9.78125 "/>
</g>
</svg>
