<?xml version="1.0" encoding="UTF-8"?>
<svg xmlns="http://www.w3.org/2000/svg" xmlns:xlink="http://www.w3.org/1999/xlink" width="24" height="22.666667" viewBox="0 0 24 22.666667" version="1.1">
<g id="surface1">
<path style=" stroke:none;fill-rule:nonzero;fill:rgb(100%,100%,100%);fill-opacity:1;" d="M 0.363281 11.144531 C 0.363281 12.597656 0.640625 13.964844 1.199219 15.25 C 1.753906 16.527344 2.519531 17.65625 3.5 18.636719 C 4.480469 19.613281 5.609375 20.382812 6.886719 20.9375 C 8.171875 21.492188 9.539062 21.769531 10.988281 21.769531 C 12.15625 21.769531 13.269531 21.582031 14.332031 21.207031 C 15.394531 20.839844 16.371094 20.324219 17.261719 19.65625 C 18.15625 18.988281 18.929688 18.210938 19.582031 17.324219 C 19.765625 17.09375 19.828125 16.855469 19.78125 16.605469 C 19.738281 16.355469 19.613281 16.164062 19.40625 16.03125 C 19.183594 15.898438 18.957031 15.863281 18.730469 15.925781 C 18.507812 15.984375 18.316406 16.117188 18.15625 16.332031 C 17.621094 17.070312 16.984375 17.710938 16.25 18.261719 C 15.515625 18.808594 14.699219 19.234375 13.800781 19.53125 C 12.914062 19.835938 11.976562 19.992188 10.988281 20 C 9.761719 20 8.609375 19.769531 7.542969 19.3125 C 6.472656 18.859375 5.53125 18.230469 4.71875 17.417969 C 3.90625 16.605469 3.269531 15.664062 2.8125 14.59375 C 2.359375 13.523438 2.136719 12.375 2.136719 11.144531 C 2.136719 9.917969 2.359375 8.765625 2.8125 7.699219 C 3.269531 6.628906 3.90625 5.691406 4.71875 4.886719 C 5.53125 4.074219 6.472656 3.441406 7.542969 2.988281 C 8.609375 2.53125 9.761719 2.300781 10.988281 2.300781 C 12.046875 2.300781 13.046875 2.472656 13.988281 2.8125 C 14.933594 3.152344 15.789062 3.632812 16.550781 4.25 C 17.316406 4.859375 17.960938 5.582031 18.488281 6.417969 C 19.015625 7.242188 19.390625 8.148438 19.613281 9.136719 L 18.113281 9.136719 C 17.746094 9.136719 17.515625 9.246094 17.417969 9.46875 C 17.328125 9.683594 17.382812 9.933594 17.582031 10.21875 L 19.917969 13.542969 C 20.082031 13.777344 20.277344 13.898438 20.5 13.90625 C 20.722656 13.90625 20.921875 13.785156 21.09375 13.542969 L 23.417969 10.230469 C 23.625 9.9375 23.679688 9.683594 23.582031 9.46875 C 23.492188 9.246094 23.265625 9.136719 22.894531 9.136719 L 21.417969 9.136719 C 21.179688 7.921875 20.746094 6.792969 20.113281 5.75 C 19.484375 4.703125 18.703125 3.785156 17.769531 3 C 16.839844 2.214844 15.796875 1.609375 14.644531 1.175781 C 13.492188 0.738281 12.273438 0.519531 10.988281 0.519531 C 9.539062 0.519531 8.171875 0.796875 6.886719 1.355469 C 5.609375 1.910156 4.480469 2.675781 3.5 3.65625 C 2.519531 4.636719 1.753906 5.765625 1.199219 7.050781 C 0.640625 8.328125 0.363281 9.695312 0.363281 11.144531 Z M 7.21875 15.261719 C 7.21875 16.023438 7.574219 16.40625 8.28125 16.40625 L 13.675781 16.40625 C 14.390625 16.40625 14.75 16.023438 14.75 15.261719 L 14.75 11.113281 C 14.75 10.398438 14.441406 10.019531 13.824219 9.980469 L 13.824219 8.75 C 13.824219 7.792969 13.558594 7.015625 13.03125 6.425781 C 12.511719 5.835938 11.828125 5.542969 10.980469 5.542969 C 10.132812 5.542969 9.445312 5.835938 8.917969 6.425781 C 8.394531 7.015625 8.136719 7.792969 8.136719 8.75 L 8.136719 9.980469 C 7.523438 10.019531 7.21875 10.398438 7.21875 11.113281 Z M 9.21875 9.96875 L 9.21875 8.636719 C 9.21875 8.023438 9.378906 7.53125 9.699219 7.15625 C 10.023438 6.78125 10.453125 6.59375 10.980469 6.59375 C 11.507812 6.59375 11.929688 6.78125 12.25 7.15625 C 12.578125 7.53125 12.738281 8.023438 12.738281 8.636719 L 12.738281 9.96875 Z M 9.21875 9.96875 "/>
</g>
</svg>
