<svg xmlns="http://www.w3.org/2000/svg" width="24" height="24"><path style="stroke:none;fill-rule:nonzero;fill:#fff;fill-opacity:1" d="M18.742 23.223c.703 0 1.363-.16 1.977-.485.593-.297 1.136-.75 1.601-1.328a6.2 6.2 0 0 0 1.078-1.973c.258-.757.391-1.578.387-2.414 0-.87-.12-1.695-.355-2.46a6.62 6.62 0 0 0-1.024-2.055 5.037 5.037 0 0 0-1.586-1.41c0-1.391-.172-2.672-.515-3.836a9.778 9.778 0 0 0-1.453-3.047c-.61-.863-1.352-1.547-2.172-2-.848-.48-1.762-.727-2.684-.715-.848 0-1.617.184-2.305.55a6.172 6.172 0 0 0-1.82 1.45 9.862 9.862 0 0 0-1.348 2 2.675 2.675 0 0 0-1.726-.098c-.563.149-1.094.461-1.555.922-.472.461-.86 1.059-1.137 1.75a6.438 6.438 0 0 0-.449 2.364c-.672.132-1.308.503-1.836 1.074-.515.566-.91 1.277-1.191 2.14a9.114 9.114 0 0 0-.414 2.813c0 .914.14 1.781.422 2.598.281.82.683 1.554 1.183 2.16a5.844 5.844 0 0 0 1.79 1.465c.71.367 1.464.546 2.222.535ZM8.88 17.949v-4.61c0-.804.25-1.218.75-1.25v-1.366c0-1.067.219-1.922.656-2.57.442-.665 1.02-.993 1.723-.993.707 0 1.281.328 1.719.992.437.649.656 1.504.656 2.57v1.368c.504.031.758.445.758 1.25v4.61c0 .831-.297 1.25-.891 1.25H9.758c-.586 0-.88-.419-.88-1.25Zm1.668-5.875h2.926v-1.488c0-.676-.137-1.223-.403-1.64-.27-.415-.625-.626-1.062-.626-.438 0-.79.211-1.059.625-.27.418-.402.965-.402 1.64Zm0 0"/></svg>