<svg width="128" height="128" viewBox="0 0 128 128" fill="none" xmlns="http://www.w3.org/2000/svg">
<path d="M63.9375 127.688C72.6458 127.688 80.8333 126.021 88.5 122.688C96.2083 119.354 103 114.75 108.875 108.875C114.75 103 119.354 96.2292 122.688 88.5625C126.021 80.8542 127.688 72.6458 127.688 63.9375C127.688 55.2292 126.021 47.0417 122.688 39.375C119.354 31.6667 114.75 24.875 108.875 19C103 13.125 96.2083 8.52083 88.5 5.1875C80.7917 1.85417 72.5833 0.1875 63.875 0.1875C55.1667 0.1875 46.9583 1.85417 39.25 5.1875C31.5833 8.52083 24.8125 13.125 18.9375 19C13.1042 24.875 8.52083 31.6667 5.1875 39.375C1.85417 47.0417 0.1875 55.2292 0.1875 63.9375C0.1875 72.6458 1.85417 80.8542 5.1875 88.5625C8.52083 96.2292 13.125 103 19 108.875C24.875 114.75 31.6458 119.354 39.3125 122.688C47.0208 126.021 55.2292 127.688 63.9375 127.688ZM40.6875 89.4375V63.8125C40.6875 59.3542 42.5625 57 46.3125 56.75V49.1875C46.3125 43.2292 47.9375 38.4375 51.1875 34.8125C54.4375 31.1875 58.6875 29.375 63.9375 29.375C69.1875 29.375 73.4375 31.1875 76.6875 34.8125C79.9375 38.4375 81.5625 43.2292 81.5625 49.1875V56.75C85.3542 57 87.25 59.3542 87.25 63.8125V89.4375C87.25 94.1458 85.0417 96.5 80.625 96.5H47.25C42.875 96.5 40.6875 94.1458 40.6875 89.4375ZM53.0625 56.6875H74.8125V48.4375C74.8125 44.6875 73.8125 41.6667 71.8125 39.375C69.8542 37.0417 67.2292 35.875 63.9375 35.875C60.6875 35.875 58.0625 37.0417 56.0625 39.375C54.0625 41.6667 53.0625 44.6875 53.0625 48.4375V56.6875Z" fill="white"/>
</svg>
