<svg xmlns="http://www.w3.org/2000/svg" width="24" height="24"><path style="stroke:none;fill-rule:nonzero;fill:#fff;fill-opacity:1" d="M2.98 19.387h18.028c.676 0 1.203-.223 1.586-.668.386-.457.582-1.082.582-1.875V3.617c0-.797-.196-1.414-.582-1.863-.383-.45-.91-.676-1.586-.676H2.98c-.667 0-1.195.227-1.582.676-.382.45-.574 1.066-.574 1.863v13.227c0 .793.192 1.418.574 1.875.387.445.915.668 1.582.668Zm.028-1.77a.631.631 0 0 1-.496-.215.91.91 0 0 1-.176-.582V3.648c0-.246.059-.441.176-.582a.629.629 0 0 1 .496-.207h17.984c.203 0 .367.067.485.207.125.141.187.336.187.582V16.82a.87.87 0 0 1-.187.582.591.591 0 0 1-.485.215Zm6.031 4.395h5.922v-2.766H9.039Zm-.059 1.293h6.04a.65.65 0 0 0 .523-.262.915.915 0 0 0 .227-.629.945.945 0 0 0-.227-.64.658.658 0 0 0-.523-.258H8.98a.704.704 0 0 0-.539.261.956.956 0 0 0-.218.637c0 .246.074.457.222.629.14.168.332.266.535.262Zm1.434-9.32h3.18c.508 0 .758-.317.758-.946v-2.883c0-.476-.153-.773-.457-.89v-.75c0-.75-.176-1.356-.528-1.813-.344-.46-.797-.691-1.36-.691-.566 0-1.027.23-1.374.691-.344.457-.516 1.063-.516 1.813v.757c-.308.11-.46.407-.46.883v2.883c0 .629.253.945.757.945Zm.629-4.755v-.816c0-.402.09-.726.262-.969a.827.827 0 0 1 .703-.363c.289 0 .52.121.695.363.176.242.262.563.262.97v.82Zm0 0"/></svg>