<svg width="120" height="118" viewBox="0 0 120 118" fill="none" xmlns="http://www.w3.org/2000/svg">
<path d="M3.625 79.1875C1.625 84.8542 1.41667 90.0417 3 94.75C4.625 99.4167 7.875 103.438 12.75 106.812C17.6667 110.229 24.0833 112.854 32 114.688C39.9167 116.562 49.2083 117.5 59.875 117.5C70.5417 117.5 79.8333 116.562 87.75 114.688C95.6667 112.854 102.062 110.229 106.938 106.812C111.854 103.438 115.104 99.4167 116.688 94.75C118.312 90.0417 118.125 84.8542 116.125 79.1875L102.125 39V17.875C102.125 14.625 100.354 11.6875 96.8125 9.0625C93.3125 6.4375 88.3958 4.35417 82.0625 2.8125C75.7292 1.27083 68.3333 0.5 59.875 0.5C51.4583 0.5 44.0833 1.27083 37.75 2.8125C31.4167 4.35417 26.5 6.4375 23 9.0625C19.5 11.6875 17.75 14.625 17.75 17.875V38.75L3.625 79.1875ZM13.1875 82.3125L24.125 51.375C27.4583 54.125 32.1875 56.3125 38.3125 57.9375C44.4375 59.5208 51.625 60.3125 59.875 60.3125C65.2917 60.3125 70.2917 59.9583 74.875 59.25C79.4583 58.5 83.5 57.4583 87 56.125C90.5417 54.7917 93.4375 53.2292 95.6875 51.4375L106.562 82.3125C108.312 87.2292 107.583 91.5833 104.375 95.375C101.208 99.125 95.8542 102.062 88.3125 104.188C80.7708 106.312 71.2917 107.375 59.875 107.375C48.4583 107.375 38.9792 106.312 31.4375 104.188C23.8958 102.062 18.5417 99.125 15.375 95.375C12.2083 91.5833 11.4792 87.2292 13.1875 82.3125ZM27.8125 17.875C27.8125 16.5417 29.1458 15.2708 31.8125 14.0625C34.4792 12.8125 38.2083 11.8125 43 11.0625C47.8333 10.3125 53.4583 9.9375 59.875 9.9375C66.2917 9.9375 71.9167 10.3125 76.75 11.0625C81.5833 11.8125 85.3333 12.8125 88 14.0625C90.7083 15.2708 92.0625 16.5417 92.0625 17.875C92.0625 19.2083 90.7083 20.4792 88 21.6875C85.3333 22.8958 81.5833 23.8958 76.75 24.6875C71.9167 25.4375 66.2917 25.8125 59.875 25.8125C53.4583 25.8125 47.8333 25.4375 43 24.6875C38.2083 23.8958 34.4792 22.8958 31.8125 21.6875C29.1458 20.4792 27.8125 19.2083 27.8125 17.875Z" fill="white"/>
</svg>
