<svg width="16" height="15" viewBox="0 0 16 15" fill="none" xmlns="http://www.w3.org/2000/svg">
<path d="M0.96875 9.89844C0.71875 10.6068 0.692708 11.2552 0.890625 11.8438C1.09375 12.4271 1.5 12.9297 2.10938 13.3516C2.72396 13.7786 3.52604 14.1068 4.51562 14.3359C5.50521 14.5703 6.66667 14.6875 8 14.6875C9.33333 14.6875 10.4948 14.5703 11.4844 14.3359C12.474 14.1068 13.2734 13.7786 13.8828 13.3516C14.4974 12.9297 14.9036 12.4271 15.1016 11.8438C15.3047 11.2552 15.2812 10.6068 15.0312 9.89844L13.2812 4.875V2.23438C13.2812 1.82812 13.0599 1.46094 12.6172 1.13281C12.1797 0.804688 11.5651 0.544271 10.7734 0.351562C9.98177 0.158854 9.05729 0.0625 8 0.0625C6.94792 0.0625 6.02604 0.158854 5.23438 0.351562C4.44271 0.544271 3.82812 0.804688 3.39062 1.13281C2.95312 1.46094 2.73438 1.82812 2.73438 2.23438V4.84375L0.96875 9.89844ZM2.16406 10.2891L3.53125 6.42188C3.94792 6.76562 4.53906 7.03906 5.30469 7.24219C6.07031 7.4401 6.96875 7.53906 8 7.53906C8.67708 7.53906 9.30208 7.49479 9.875 7.40625C10.4479 7.3125 10.9531 7.18229 11.3906 7.01562C11.8333 6.84896 12.1953 6.65365 12.4766 6.42969L13.8359 10.2891C14.0547 10.9036 13.9635 11.4479 13.5625 11.9219C13.1667 12.3906 12.4974 12.7578 11.5547 13.0234C10.612 13.2891 9.42708 13.4219 8 13.4219C6.57292 13.4219 5.38802 13.2891 4.44531 13.0234C3.5026 12.7578 2.83333 12.3906 2.4375 11.9219C2.04167 11.4479 1.95052 10.9036 2.16406 10.2891ZM3.99219 2.23438C3.99219 2.06771 4.15885 1.90885 4.49219 1.75781C4.82552 1.60156 5.29167 1.47656 5.89062 1.38281C6.49479 1.28906 7.19792 1.24219 8 1.24219C8.80208 1.24219 9.50521 1.28906 10.1094 1.38281C10.7135 1.47656 11.1823 1.60156 11.5156 1.75781C11.8542 1.90885 12.0234 2.06771 12.0234 2.23438C12.0234 2.40104 11.8542 2.5599 11.5156 2.71094C11.1823 2.86198 10.7135 2.98698 10.1094 3.08594C9.50521 3.17969 8.80208 3.22656 8 3.22656C7.19792 3.22656 6.49479 3.17969 5.89062 3.08594C5.29167 2.98698 4.82552 2.86198 4.49219 2.71094C4.15885 2.5599 3.99219 2.40104 3.99219 2.23438Z" fill="white"/>
</svg>
