<?xml version="1.0" encoding="UTF-8"?>
<svg xmlns="http://www.w3.org/2000/svg" xmlns:xlink="http://www.w3.org/1999/xlink" width="24" height="18.545455" viewBox="0 0 24 18.545455" version="1.1">
<g id="surface1">
<path style=" stroke:none;fill-rule:nonzero;fill:rgb(100%,100%,100%);fill-opacity:1;" d="M 3.46875 17.632812 L 6.972656 16.953125 C 7.898438 16.777344 8.570312 16.425781 8.992188 15.902344 C 9.410156 15.378906 9.621094 14.628906 9.621094 13.644531 L 9.621094 3.253906 C 9.621094 2.671875 9.496094 2.160156 9.238281 1.722656 C 8.988281 1.285156 8.636719 0.945312 8.183594 0.707031 C 7.726562 0.464844 7.195312 0.339844 6.589844 0.339844 C 5.816406 0.339844 5.121094 0.59375 4.507812 1.097656 C 3.902344 1.597656 3.496094 2.261719 3.289062 3.085938 L 0.46875 14.4375 C 0.285156 15.175781 0.296875 15.808594 0.496094 16.339844 C 0.691406 16.871094 1.046875 17.257812 1.558594 17.496094 C 2.078125 17.734375 2.714844 17.78125 3.46875 17.632812 Z M 20.53125 17.632812 C 21.285156 17.78125 21.921875 17.734375 22.433594 17.496094 C 22.949219 17.257812 23.308594 16.871094 23.503906 16.339844 C 23.703125 15.808594 23.714844 15.175781 23.53125 14.4375 L 20.710938 3.085938 C 20.5 2.261719 20.089844 1.597656 19.484375 1.097656 C 18.875 0.59375 18.183594 0.339844 17.410156 0.339844 C 16.804688 0.339844 16.269531 0.464844 15.808594 0.707031 C 15.355469 0.945312 15 1.285156 14.746094 1.722656 C 14.496094 2.160156 14.371094 2.671875 14.371094 3.253906 L 14.371094 13.644531 C 14.371094 14.628906 14.578125 15.378906 15 15.902344 C 15.425781 16.425781 16.097656 16.777344 17.019531 16.953125 Z M 4.378906 13.59375 C 4.203125 13.628906 4.035156 13.59375 3.871094 13.492188 C 3.703125 13.390625 3.605469 13.246094 3.570312 13.066406 C 3.53125 12.882812 3.5625 12.714844 3.664062 12.554688 C 3.773438 12.394531 3.917969 12.296875 4.097656 12.265625 L 6.785156 11.683594 L 4.578125 9.714844 C 4.441406 9.597656 4.367188 9.441406 4.355469 9.246094 C 4.34375 9.054688 4.402344 8.886719 4.527344 8.746094 C 4.644531 8.609375 4.800781 8.535156 4.996094 8.53125 C 5.191406 8.527344 5.359375 8.582031 5.496094 8.703125 L 8.421875 11.34375 L 9.621094 11.089844 L 9.621094 12.484375 Z M 14.371094 12.484375 L 14.371094 11.089844 L 15.570312 11.34375 L 18.503906 8.703125 C 18.632812 8.582031 18.796875 8.527344 18.988281 8.53125 C 19.1875 8.535156 19.347656 8.609375 19.464844 8.746094 C 19.597656 8.886719 19.652344 9.054688 19.636719 9.246094 C 19.625 9.441406 19.550781 9.597656 19.414062 9.714844 L 17.214844 11.683594 L 19.902344 12.265625 C 20.078125 12.296875 20.214844 12.394531 20.316406 12.554688 C 20.425781 12.714844 20.464844 12.882812 20.429688 13.066406 C 20.390625 13.246094 20.285156 13.390625 20.121094 13.492188 C 19.957031 13.59375 19.785156 13.628906 19.609375 13.59375 Z M 14.371094 11.089844 L 14.371094 12.484375 L 12 11.972656 L 9.621094 12.484375 L 9.621094 11.089844 L 11.308594 10.722656 L 11.308594 1.277344 C 11.308594 1.089844 11.378906 0.929688 11.515625 0.792969 C 11.652344 0.65625 11.8125 0.589844 12 0.589844 C 12.1875 0.589844 12.347656 0.65625 12.476562 0.792969 C 12.613281 0.929688 12.683594 1.089844 12.683594 1.277344 L 12.683594 10.722656 Z M 14.371094 11.089844 "/>
</g>
</svg>
