<svg width="154" height="75" viewBox="0 0 154 75" fill="none" xmlns="http://www.w3.org/2000/svg">
<path d="M123.812 53.4375C125.979 53.3958 127.833 52.6042 129.375 51.0625C130.958 49.4792 131.75 47.6042 131.75 45.4375C131.75 43.2708 130.958 41.3958 129.375 39.8125C127.833 38.1875 125.979 37.375 123.812 37.375C121.688 37.375 119.833 38.1875 118.25 39.8125C116.667 41.3958 115.875 43.2708 115.875 45.4375C115.875 47.6042 116.667 49.5 118.25 51.125C119.833 52.7083 121.688 53.4792 123.812 53.4375ZM20.5625 74.4375H134.375C140.917 74.4375 145.812 72.8333 149.062 69.625C152.354 66.375 154 61.5208 154 55.0625V20C154 13.5833 152.354 8.77083 149.062 5.5625C145.812 2.3125 140.917 0.6875 134.375 0.6875H20.5625C14.0208 0.6875 9.10417 2.3125 5.8125 5.5625C2.5625 8.77083 0.9375 13.5833 0.9375 20V55.0625C0.9375 61.5208 2.5625 66.375 5.8125 69.625C9.10417 72.8333 14.0208 74.4375 20.5625 74.4375ZM20.6875 64.375C17.5625 64.375 15.1667 63.5625 13.5 61.9375C11.8333 60.2708 11 57.8125 11 54.5625V20.5625C11 17.3125 11.8333 14.875 13.5 13.25C15.1667 11.5833 17.5625 10.75 20.6875 10.75H134.25C137.333 10.75 139.708 11.5833 141.375 13.25C143.083 14.875 143.938 17.3125 143.938 20.5625V54.5625C143.938 57.8125 143.083 60.2708 141.375 61.9375C139.708 63.5625 137.333 64.375 134.25 64.375H20.6875Z" fill="white"/>
</svg>
