<svg width="20" height="10" viewBox="0 0 20 10" fill="none" xmlns="http://www.w3.org/2000/svg">
<path d="M15.7891 7.33594C15.513 7.34115 15.2734 7.23958 15.0703 7.03125C14.8672 6.82292 14.7656 6.58073 14.7656 6.30469C14.7656 6.02344 14.8672 5.78125 15.0703 5.57812C15.2734 5.36979 15.513 5.26562 15.7891 5.26562C16.0651 5.26562 16.3047 5.36979 16.5078 5.57812C16.7109 5.78125 16.8125 6.02344 16.8125 6.30469C16.8125 6.58073 16.7109 6.82031 16.5078 7.02344C16.3047 7.22656 16.0651 7.33073 15.7891 7.33594ZM2.88281 9.92969H17.1094C17.9271 9.92969 18.5391 9.72917 18.9453 9.32812C19.3568 8.92188 19.5625 8.3151 19.5625 7.50781V3.125C19.5625 2.32292 19.3568 1.72135 18.9453 1.32031C18.5391 0.914062 17.9271 0.710938 17.1094 0.710938H2.88281C2.0651 0.710938 1.45052 0.914062 1.03906 1.32031C0.632812 1.72135 0.429688 2.32292 0.429688 3.125V7.50781C0.429688 8.3151 0.632812 8.92188 1.03906 9.32812C1.45052 9.72917 2.0651 9.92969 2.88281 9.92969Z" fill="white"/>
</svg>
