<?xml version="1.0" encoding="UTF-8"?>
<svg xmlns="http://www.w3.org/2000/svg" xmlns:xlink="http://www.w3.org/1999/xlink" width="24" height="26.666667" viewBox="0 0 24 26.666667" version="1.1">
<g id="surface1">
<path style=" stroke:none;fill-rule:nonzero;fill:rgb(100%,100%,100%);fill-opacity:1;" d="M 4.511719 23.21875 L 19.488281 23.21875 C 20.578125 23.21875 21.394531 22.949219 21.9375 22.40625 C 22.484375 21.871094 22.761719 21.070312 22.761719 20 L 22.761719 6.324219 C 22.761719 5.246094 22.484375 4.441406 21.9375 3.90625 C 21.394531 3.363281 20.578125 3.09375 19.488281 3.09375 L 4.511719 3.09375 C 3.421875 3.09375 2.601562 3.363281 2.050781 3.90625 C 1.511719 4.441406 1.238281 5.246094 1.238281 6.324219 L 1.238281 20 C 1.238281 21.070312 1.511719 21.871094 2.050781 22.40625 C 2.601562 22.949219 3.421875 23.21875 4.511719 23.21875 Z M 10.824219 16.78125 C 10.574219 16.78125 10.355469 16.679688 10.167969 16.480469 C 9.980469 16.277344 9.785156 16.039062 9.582031 15.761719 C 9.347656 15.425781 9.144531 15.019531 8.980469 14.542969 C 8.820312 14.0625 8.738281 13.578125 8.738281 13.082031 C 8.738281 12.292969 8.949219 11.695312 9.363281 11.292969 C 9.789062 10.882812 10.253906 10.675781 10.761719 10.675781 C 11.023438 10.675781 11.265625 10.734375 11.480469 10.855469 C 11.703125 10.972656 11.894531 11.03125 12.0625 11.03125 C 12.222656 11.03125 12.421875 10.96875 12.667969 10.84375 C 12.910156 10.71875 13.179688 10.65625 13.480469 10.65625 C 13.5625 10.65625 13.695312 10.671875 13.875 10.699219 C 14.0625 10.71875 14.265625 10.789062 14.480469 10.90625 C 14.703125 11.015625 14.90625 11.203125 15.09375 11.457031 C 15.074219 11.472656 14.988281 11.535156 14.84375 11.644531 C 14.703125 11.757812 14.566406 11.925781 14.425781 12.15625 C 14.289062 12.378906 14.21875 12.664062 14.21875 13.011719 C 14.21875 13.40625 14.304688 13.722656 14.480469 13.957031 C 14.660156 14.195312 14.835938 14.363281 15.011719 14.46875 C 15.191406 14.574219 15.289062 14.628906 15.300781 14.636719 C 15.296875 14.648438 15.25 14.773438 15.167969 15.011719 C 15.082031 15.246094 14.945312 15.503906 14.75 15.78125 C 14.578125 16.023438 14.390625 16.253906 14.199219 16.46875 C 14.003906 16.675781 13.765625 16.78125 13.480469 16.78125 C 13.296875 16.78125 13.148438 16.753906 13.03125 16.699219 C 12.921875 16.640625 12.796875 16.589844 12.667969 16.542969 C 12.535156 16.484375 12.363281 16.457031 12.15625 16.457031 C 11.859375 16.457031 11.621094 16.515625 11.449219 16.625 C 11.28125 16.730469 11.074219 16.78125 10.824219 16.78125 Z M 12.113281 10.59375 C 12.066406 10.59375 12.03125 10.578125 12.011719 10.550781 C 12.003906 10.546875 12 10.5 12 10.417969 C 12 10.207031 12.039062 10.007812 12.113281 9.8125 C 12.199219 9.609375 12.296875 9.445312 12.417969 9.3125 C 12.570312 9.144531 12.757812 9.007812 12.980469 8.894531 C 13.203125 8.777344 13.414062 8.714844 13.613281 8.707031 C 13.628906 8.734375 13.636719 8.789062 13.636719 8.863281 C 13.636719 9.074219 13.59375 9.277344 13.511719 9.480469 C 13.433594 9.671875 13.332031 9.847656 13.207031 10 C 13.078125 10.167969 12.90625 10.308594 12.699219 10.425781 C 12.488281 10.539062 12.296875 10.59375 12.113281 10.59375 Z M 4.042969 26.3125 L 7.84375 26.3125 C 8.058594 26.3125 8.242188 26.234375 8.394531 26.082031 C 8.546875 25.929688 8.625 25.742188 8.625 25.519531 C 8.625 25.296875 8.546875 25.109375 8.394531 24.957031 C 8.242188 24.804688 8.058594 24.730469 7.84375 24.730469 L 4.042969 24.730469 C 3.828125 24.730469 3.640625 24.804688 3.488281 24.957031 C 3.335938 25.109375 3.261719 25.296875 3.261719 25.519531 C 3.261719 25.742188 3.335938 25.929688 3.488281 26.082031 C 3.640625 26.234375 3.828125 26.3125 4.042969 26.3125 Z M 5.15625 25.46875 L 6.730469 25.46875 L 6.730469 22.332031 L 5.15625 22.332031 Z M 16.15625 26.3125 L 19.957031 26.3125 C 20.171875 26.3125 20.359375 26.234375 20.511719 26.082031 C 20.664062 25.929688 20.738281 25.742188 20.738281 25.519531 C 20.738281 25.296875 20.664062 25.109375 20.511719 24.957031 C 20.359375 24.804688 20.171875 24.730469 19.957031 24.730469 L 16.15625 24.730469 C 15.941406 24.730469 15.757812 24.804688 15.605469 24.957031 C 15.453125 25.109375 15.375 25.296875 15.375 25.519531 C 15.375 25.742188 15.453125 25.929688 15.605469 26.082031 C 15.757812 26.234375 15.941406 26.3125 16.15625 26.3125 Z M 17.269531 25.46875 L 18.84375 25.46875 L 18.84375 22.332031 L 17.269531 22.332031 Z M 5.15625 3.90625 L 6.730469 3.90625 L 6.730469 0.917969 C 6.730469 0.703125 6.652344 0.515625 6.5 0.363281 C 6.347656 0.210938 6.164062 0.136719 5.949219 0.136719 C 5.726562 0.136719 5.539062 0.210938 5.386719 0.363281 C 5.234375 0.515625 5.15625 0.703125 5.15625 0.917969 Z M 17.269531 3.90625 L 18.84375 3.90625 L 18.84375 0.917969 C 18.84375 0.703125 18.765625 0.515625 18.613281 0.363281 C 18.460938 0.210938 18.277344 0.136719 18.0625 0.136719 C 17.839844 0.136719 17.652344 0.210938 17.5 0.363281 C 17.347656 0.515625 17.269531 0.703125 17.269531 0.917969 Z M 17.269531 3.90625 "/>
</g>
</svg>
