<svg width="131" height="148" viewBox="0 0 131 148" fill="none" xmlns="http://www.w3.org/2000/svg">
<path d="M0.9375 136.875C0.9375 140.167 1.85417 142.792 3.6875 144.75C5.5625 146.75 8.04167 147.75 11.125 147.75H24.5C26.3333 147.75 27.8958 147.271 29.1875 146.312C30.5208 145.396 31.4375 144.083 31.9375 142.375L35 131.812H96L99.0625 142.375C99.6042 144.083 100.521 145.396 101.812 146.312C103.104 147.271 104.688 147.75 106.562 147.75H119.875C122.958 147.75 125.417 146.75 127.25 144.75C129.125 142.792 130.062 140.167 130.062 136.875V11C130.062 7.70833 129.125 5.08333 127.25 3.125C125.417 1.125 122.958 0.125 119.875 0.125H106.562C104.688 0.125 103.104 0.604167 101.812 1.5625C100.521 2.47917 99.6042 3.79167 99.0625 5.5L96 16.0625H35L31.9375 5.5C31.4375 3.79167 30.5208 2.47917 29.1875 1.5625C27.8958 0.604167 26.3333 0.125 24.5 0.125H11.125C8.04167 0.125 5.5625 1.125 3.6875 3.125C1.85417 5.08333 0.9375 7.70833 0.9375 11V136.875ZM58.4375 95.6875C56.9375 95.6875 55.625 95.0833 54.5 93.875C53.375 92.6667 52.2083 91.2083 51 89.5C49.5833 87.5 48.375 85.0833 47.375 82.25C46.4167 79.375 45.9375 76.4583 45.9375 73.5C45.9375 68.75 47.1875 65.1667 49.6875 62.75C52.2292 60.2917 55.0208 59.0625 58.0625 59.0625C59.6875 59.0625 61.1458 59.4167 62.4375 60.125C63.7292 60.7917 64.875 61.125 65.875 61.125C66.8333 61.125 68.0417 60.7708 69.5 60.0625C70.9583 59.3125 72.6042 58.9375 74.4375 58.9375C74.8958 58.9375 75.6667 59.0208 76.75 59.1875C77.875 59.3125 79.1042 59.7292 80.4375 60.4375C81.7708 61.1042 82.9792 62.2083 84.0625 63.75C83.9792 63.7917 83.5 64.1667 82.625 64.875C81.75 65.5417 80.8958 66.5625 80.0625 67.9375C79.2292 69.2708 78.8125 70.9583 78.8125 73C78.8125 75.4167 79.3333 77.3333 80.375 78.75C81.4583 80.1667 82.5417 81.1875 83.625 81.8125C84.7083 82.4375 85.2708 82.75 85.3125 82.75C85.2708 82.875 85 83.6458 84.5 85.0625C84.0417 86.4375 83.2083 87.9792 82 89.6875C80.9583 91.1458 79.8542 92.5208 78.6875 93.8125C77.5208 95.0625 76.1042 95.6875 74.4375 95.6875C73.3542 95.6875 72.4583 95.5208 71.75 95.1875C71.0417 94.8542 70.2917 94.5417 69.5 94.25C68.75 93.9167 67.7292 93.75 66.4375 93.75C64.6458 93.75 63.2292 94.0833 62.1875 94.75C61.1875 95.375 59.9375 95.6875 58.4375 95.6875ZM66.1875 58.5C65.9375 58.5 65.7292 58.4375 65.5625 58.3125C65.5208 58.2708 65.5 58 65.5 57.5C65.5 56.25 65.7292 55.0208 66.1875 53.8125C66.6875 52.6042 67.3125 51.625 68.0625 50.875C68.9792 49.875 70.0833 49.0417 71.375 48.375C72.7083 47.6667 74 47.2917 75.25 47.25C75.2917 47.4167 75.3125 47.7292 75.3125 48.1875C75.3125 49.4375 75.0625 50.6667 74.5625 51.875C74.1042 53.0417 73.5208 54.0833 72.8125 55C71.9792 56 70.9375 56.8333 69.6875 57.5C68.4375 58.1667 67.2708 58.5 66.1875 58.5Z" fill="white"/>
</svg>
