<svg width="157" height="128" viewBox="0 0 157 128" fill="none" xmlns="http://www.w3.org/2000/svg">
<path d="M20.5625 98.25H33.625V88.1875H20.6875C17.5625 88.1875 15.1667 87.375 13.5 85.75C11.8333 84.0833 11 81.625 11 78.375V20.5C11 17.25 11.8333 14.7917 13.5 13.125C15.1667 11.4583 17.5625 10.625 20.6875 10.625H105.062C108.146 10.625 110.542 11.4583 112.25 13.125C113.958 14.7917 114.812 17.25 114.812 20.5V34.0625H124.875V19.9375C124.875 13.5208 123.229 8.6875 119.938 5.4375C116.646 2.1875 111.75 0.5625 105.25 0.5625H20.5625C14.0208 0.5625 9.10417 2.1875 5.8125 5.4375C2.5625 8.64583 0.9375 13.4792 0.9375 19.9375V78.875C0.9375 85.3333 2.5625 90.1875 5.8125 93.4375C9.10417 96.6458 14.0208 98.25 20.5625 98.25ZM51.4375 127.188H136.812C143.312 127.188 148.208 125.562 151.5 122.312C154.792 119.104 156.438 114.271 156.438 107.812V48.875C156.438 42.4583 154.792 37.625 151.5 34.375C148.208 31.125 143.312 29.5 136.812 29.5H51.4375C44.8958 29.5 39.9792 31.125 36.6875 34.375C33.4375 37.5833 31.8125 42.4167 31.8125 48.875V107.812C31.8125 114.271 33.4375 119.104 36.6875 122.312C39.9792 125.562 44.8958 127.188 51.4375 127.188ZM41.875 61.0625H146.375V107.312C146.375 110.562 145.521 113 143.812 114.625C142.104 116.292 139.708 117.125 136.625 117.125H51.5625C48.4375 117.125 46.0417 116.292 44.375 114.625C42.7083 113 41.875 110.562 41.875 107.312V61.0625ZM51.625 50.875C50.0833 50.875 48.7708 50.3125 47.6875 49.1875C46.6042 48.0625 46.0625 46.7708 46.0625 45.3125C46.0625 43.8125 46.6042 42.5 47.6875 41.375C48.7708 40.25 50.0833 39.6875 51.625 39.6875C53.1667 39.6875 54.4792 40.25 55.5625 41.375C56.6458 42.5 57.1875 43.8125 57.1875 45.3125C57.1875 46.7708 56.6458 48.0625 55.5625 49.1875C54.4792 50.3125 53.1667 50.875 51.625 50.875ZM69.5625 50.875C68.0208 50.875 66.7083 50.3125 65.625 49.1875C64.5417 48.0625 64 46.7708 64 45.3125C64 43.8125 64.5417 42.5 65.625 41.375C66.7083 40.25 68.0208 39.6875 69.5625 39.6875C71.1042 39.6875 72.4167 40.25 73.5 41.375C74.5833 42.5 75.125 43.8125 75.125 45.3125C75.125 46.7708 74.5833 48.0625 73.5 49.1875C72.4167 50.3125 71.1042 50.875 69.5625 50.875ZM87.5 50.875C85.9583 50.875 84.6458 50.3125 83.5625 49.1875C82.4792 48.0625 81.9375 46.7708 81.9375 45.3125C81.9375 43.8125 82.4792 42.5 83.5625 41.375C84.6458 40.25 85.9583 39.6875 87.5 39.6875C89.0417 39.6875 90.3542 40.25 91.4375 41.375C92.5208 42.5 93.0625 43.8125 93.0625 45.3125C93.0625 46.7708 92.5208 48.0625 91.4375 49.1875C90.3542 50.3125 89.0417 50.875 87.5 50.875Z" fill="white"/>
</svg>
