<?xml version="1.0" encoding="UTF-8"?>
<svg xmlns="http://www.w3.org/2000/svg" xmlns:xlink="http://www.w3.org/1999/xlink" width="24" height="34" viewBox="0 0 24 34" version="1.1">
<g id="surface1">
<path style=" stroke:none;fill-rule:nonzero;fill:rgb(100%,100%,100%);fill-opacity:1;" d="M 5.25 32.75 L 18.75 32.75 C 20.050781 32.75 21.097656 32.371094 21.890625 31.609375 C 22.691406 30.859375 23.09375 29.871094 23.09375 28.640625 L 23.09375 4.796875 C 23.09375 3.566406 22.691406 2.578125 21.890625 1.828125 C 21.097656 1.066406 20.050781 0.6875 18.75 0.6875 L 5.25 0.6875 C 3.9375 0.6875 2.886719 1.066406 2.09375 1.828125 C 1.300781 2.578125 0.90625 3.566406 0.90625 4.796875 L 0.90625 28.640625 C 0.90625 29.871094 1.300781 30.859375 2.09375 31.609375 C 2.886719 32.371094 3.9375 32.75 5.25 32.75 Z M 5.5625 30.234375 C 4.90625 30.234375 4.386719 30.050781 4 29.6875 C 3.613281 29.324219 3.421875 28.839844 3.421875 28.234375 L 3.421875 5.203125 C 3.421875 4.597656 3.613281 4.113281 4 3.75 C 4.386719 3.386719 4.90625 3.203125 5.5625 3.203125 L 18.4375 3.203125 C 19.082031 3.203125 19.597656 3.386719 19.984375 3.75 C 20.378906 4.113281 20.578125 4.597656 20.578125 5.203125 L 20.578125 28.234375 C 20.578125 28.839844 20.378906 29.324219 19.984375 29.6875 C 19.597656 30.050781 19.082031 30.234375 18.4375 30.234375 Z M 12.015625 26.8125 C 12.296875 26.8125 12.535156 26.714844 12.734375 26.515625 C 12.933594 26.308594 13.03125 26.0625 13.03125 25.78125 L 13.03125 22.796875 C 13.03125 22.515625 12.933594 22.277344 12.734375 22.078125 C 12.535156 21.871094 12.296875 21.765625 12.015625 21.765625 C 11.734375 21.765625 11.488281 21.871094 11.28125 22.078125 C 11.082031 22.277344 10.984375 22.515625 10.984375 22.796875 L 10.984375 25.78125 C 10.984375 26.0625 11.082031 26.308594 11.28125 26.515625 C 11.488281 26.714844 11.734375 26.8125 12.015625 26.8125 Z M 12.015625 19.109375 C 13.328125 19.109375 14.527344 18.785156 15.609375 18.140625 C 16.691406 17.496094 17.558594 16.628906 18.203125 15.546875 C 18.847656 14.464844 19.171875 13.265625 19.171875 11.953125 C 19.171875 10.628906 18.847656 9.425781 18.203125 8.34375 C 17.558594 7.261719 16.691406 6.394531 15.609375 5.75 C 14.527344 5.105469 13.328125 4.78125 12.015625 4.78125 C 10.691406 4.78125 9.488281 5.105469 8.40625 5.75 C 7.324219 6.394531 6.457031 7.261719 5.8125 8.34375 C 5.167969 9.425781 4.84375 10.628906 4.84375 11.953125 C 4.84375 13.265625 5.167969 14.464844 5.8125 15.546875 C 6.457031 16.628906 7.324219 17.496094 8.40625 18.140625 C 9.488281 18.785156 10.691406 19.109375 12.015625 19.109375 Z M 12.015625 17.140625 C 11.046875 17.140625 10.167969 16.910156 9.375 16.453125 C 8.59375 15.984375 7.96875 15.359375 7.5 14.578125 C 7.042969 13.785156 6.8125 12.910156 6.8125 11.953125 C 6.8125 10.996094 7.042969 10.125 7.5 9.34375 C 7.96875 8.550781 8.59375 7.921875 9.375 7.453125 C 10.167969 6.984375 11.046875 6.75 12.015625 6.75 C 12.964844 6.75 13.828125 6.984375 14.609375 7.453125 C 15.402344 7.921875 16.03125 8.550781 16.5 9.34375 C 16.96875 10.125 17.203125 10.996094 17.203125 11.953125 C 17.203125 12.910156 16.96875 13.785156 16.5 14.578125 C 16.03125 15.359375 15.402344 15.984375 14.609375 16.453125 C 13.828125 16.910156 12.964844 17.140625 12.015625 17.140625 Z M 12.015625 17.140625 "/>
</g>
</svg>
