<svg width="128" height="128" viewBox="0 0 128 128" fill="none" xmlns="http://www.w3.org/2000/svg">
<path d="M63.9375 127.625C72.6458 127.625 80.8333 125.958 88.5 122.625C96.2083 119.292 103 114.688 108.875 108.812C114.75 102.938 119.354 96.1667 122.688 88.5C126.021 80.7917 127.688 72.5833 127.688 63.875C127.688 55.1667 126.021 46.9792 122.688 39.3125C119.354 31.6042 114.75 24.8125 108.875 18.9375C103 13.0625 96.2083 8.45833 88.5 5.125C80.7917 1.79167 72.5833 0.125 63.875 0.125C55.1667 0.125 46.9583 1.79167 39.25 5.125C31.5833 8.45833 24.8125 13.0625 18.9375 18.9375C13.1042 24.8125 8.52083 31.6042 5.1875 39.3125C1.85417 46.9792 0.1875 55.1667 0.1875 63.875C0.1875 72.5833 1.85417 80.7917 5.1875 88.5C8.52083 96.1667 13.125 102.938 19 108.812C24.875 114.688 31.6458 119.292 39.3125 122.625C47.0208 125.958 55.2292 127.625 63.9375 127.625ZM63.9375 117C56.5625 117 49.6667 115.625 43.25 112.875C36.8333 110.125 31.1875 106.333 26.3125 101.5C21.4792 96.625 17.6875 90.9792 14.9375 84.5625C12.2292 78.1458 10.875 71.25 10.875 63.875C10.875 56.5 12.2292 49.6042 14.9375 43.1875C17.6875 36.7708 21.4792 31.125 26.3125 26.25C31.1458 21.375 36.7708 17.5833 43.1875 14.875C49.6042 12.125 56.5 10.75 63.875 10.75C71.25 10.75 78.1458 12.125 84.5625 14.875C91.0208 17.5833 96.6667 21.375 101.5 26.25C106.375 31.125 110.188 36.7708 112.938 43.1875C115.688 49.6042 117.062 56.5 117.062 63.875C117.062 71.25 115.688 78.1458 112.938 84.5625C110.229 90.9792 106.438 96.625 101.562 101.5C96.6875 106.333 91.0417 110.125 84.625 112.875C78.2083 115.625 71.3125 117 63.9375 117ZM45.75 92.75C46.9167 92.75 47.875 92.375 48.625 91.625C49.375 90.875 49.75 89.8542 49.75 88.5625V68.6875C49.75 62.8958 50.6875 58.3333 52.5625 55C54.4792 51.6667 57.1042 49.5833 60.4375 48.75V89.3125C60.4375 90.3125 60.75 91.1458 61.375 91.8125C62.0417 92.4375 62.875 92.75 63.875 92.75C64.75 92.75 65.5208 92.4375 66.1875 91.8125C66.8958 91.1458 67.25 90.3125 67.25 89.3125V48.6875C70.625 49.4792 73.2917 51.5417 75.25 54.875C77.2083 58.1667 78.1875 62.7708 78.1875 68.6875V88.5625C78.1875 89.8542 78.5625 90.875 79.3125 91.625C80.0625 92.375 81.0208 92.75 82.1875 92.75C83.3958 92.75 84.375 92.375 85.125 91.625C85.875 90.875 86.25 89.8542 86.25 88.5625V68.1875C86.25 59.9375 84.5208 53.5208 81.0625 48.9375C77.6042 44.3125 73 41.6458 67.25 40.9375V34.5C67.25 33.4167 66.8958 32.5833 66.1875 32C65.5208 31.4167 64.75 31.125 63.875 31.125C62.875 31.125 62.0417 31.4167 61.375 32C60.75 32.5833 60.4375 33.4167 60.4375 34.5V41C54.7292 41.7083 50.1458 44.375 46.6875 49C43.2708 53.5833 41.5625 59.9792 41.5625 68.1875V88.5625C41.5625 89.8542 41.9583 90.875 42.75 91.625C43.5417 92.375 44.5417 92.75 45.75 92.75Z" fill="white"/>
</svg>
