<svg xmlns="http://www.w3.org/2000/svg" width="24" height="24"><path style="stroke:none;fill-rule:nonzero;fill:#fff;fill-opacity:1" d="M12 23.05c1.633 0 3.168-.292 4.605-.882a12.22 12.22 0 0 0 3.82-2.438 11.467 11.467 0 0 0 2.59-3.582c.626-1.363.938-2.808.938-4.347a10.2 10.2 0 0 0-.937-4.332 11.53 11.53 0 0 0-2.59-3.598 12.361 12.361 0 0 0-3.82-2.437A12.166 12.166 0 0 0 11.987.55c-1.633 0-3.172.293-4.617.883A12.307 12.307 0 0 0 3.562 3.87 11.523 11.523 0 0 0 .985 7.465 10.2 10.2 0 0 0 .047 11.8c0 1.539.312 2.984.937 4.347a11.467 11.467 0 0 0 2.59 3.582 12.236 12.236 0 0 0 3.809 2.438c1.445.59 2.984.883 4.617.883Zm-6.574-6.327V8.746c0-.2.043-.371.129-.516a.958.958 0 0 1 .41-.367l2.988-1.61.188-.089c.062-.027.12-.059.175-.086v9.824L6.668 17.25c-.09.047-.184.086-.281.121a.74.74 0 0 1-.246.043c-.227 0-.403-.059-.528-.176-.125-.125-.187-.297-.187-.515Zm4.746-.93V5.977c.07.015.133.035.187.058.063.02.121.047.176.074l3.106 1.79v9.683c-.047-.012-.094-.02-.141-.035-.05-.024-.102-.043-.152-.067Zm4.324 1.777V7.785l2.79-1.445c.179-.102.355-.152.526-.152.227 0 .399.058.516.175.125.11.188.282.188.508v7.984a.965.965 0 0 1-.13.508c-.097.16-.238.29-.41.375l-3.28 1.754a1.509 1.509 0 0 1-.2.078Zm0 0"/></svg>