<svg xmlns="http://www.w3.org/2000/svg" width="24" height="24"><path style="stroke:none;fill-rule:nonzero;fill:#fff;fill-opacity:1" d="M12 23.05c1.633 0 3.168-.292 4.605-.882a12.22 12.22 0 0 0 3.82-2.438 11.467 11.467 0 0 0 2.59-3.582c.626-1.363.938-2.808.938-4.347a10.2 10.2 0 0 0-.937-4.332 11.53 11.53 0 0 0-2.59-3.598 12.361 12.361 0 0 0-3.82-2.437A12.166 12.166 0 0 0 11.987.55c-1.633 0-3.172.293-4.617.883A12.307 12.307 0 0 0 3.562 3.87 11.523 11.523 0 0 0 .985 7.465 10.2 10.2 0 0 0 .047 11.8c0 1.539.312 2.984.937 4.347a11.467 11.467 0 0 0 2.59 3.582 12.236 12.236 0 0 0 3.809 2.438c1.445.59 2.984.883 4.617.883Zm0-1.874a10.222 10.222 0 0 1-7.055-2.734 9.548 9.548 0 0 1-2.133-2.989 8.83 8.83 0 0 1-.761-3.652c0-1.301.254-2.52.761-3.649A9.52 9.52 0 0 1 4.946 5.16 9.82 9.82 0 0 1 8.11 3.156c1.204-.488 2.496-.73 3.88-.73 1.382 0 2.675.242 3.878.73a9.701 9.701 0 0 1 3.176 2.004 9.432 9.432 0 0 1 2.145 2.992 8.685 8.685 0 0 1 .773 3.649c0 1.3-.258 2.52-.773 3.652a9.22 9.22 0 0 1-2.133 2.988A10.222 10.222 0 0 1 12 21.176Zm-6.375-4.61c0 .211.059.38.176.497.125.109.297.164.515.164.141 0 .313-.047.516-.141l2.566-1.313v-9.53c-.058.03-.117.062-.175.089-.055.02-.114.047-.176.078L6.152 7.973c-.195.105-.332.222-.41.355a.961.961 0 0 0-.117.496Zm4.605-.902 3.082 1.629.141.066.14.043V8.008l-3.011-1.73a1.005 1.005 0 0 0-.176-.079.552.552 0 0 0-.176-.043Zm4.184 1.719a.73.73 0 0 0 .2-.078l3.175-1.7c.195-.101.332-.218.41-.351a.9.9 0 0 0 .13-.496V7.004c0-.215-.063-.375-.188-.484-.118-.114-.286-.168-.504-.168a.759.759 0 0 0-.246.043 2.018 2.018 0 0 0-.27.101l-2.707 1.41Zm0 0"/></svg>