<svg width="131" height="124" viewBox="0 0 131 124" fill="none" xmlns="http://www.w3.org/2000/svg">
<path d="M8 121.125C8.79167 121.125 9.60417 120.979 10.4375 120.688C11.2708 120.438 12.1875 120.021 13.1875 119.438L45 102.312L79.5625 121.688C81.8125 122.938 84.1458 123.562 86.5625 123.562C88.8542 123.562 90.9375 123.021 92.8125 121.938L125.5 103.375C127.375 102.333 128.75 101.062 129.625 99.5625C130.5 98.0208 130.938 96.2083 130.938 94.125V9.9375C130.938 7.64583 130.312 5.875 129.062 4.625C127.854 3.375 126.125 2.75 123.875 2.75C123.083 2.75 122.271 2.89583 121.438 3.1875C120.604 3.4375 119.667 3.83333 118.625 4.375L85.5 22.8125L51.5625 2C49.6458 0.833333 47.5417 0.25 45.25 0.25C42.9167 0.25 40.7708 0.833333 38.8125 2L6.3125 20.5C4.47917 21.5417 3.125 22.8333 2.25 24.375C1.375 25.875 0.9375 27.6875 0.9375 29.8125V113.875C0.9375 116.208 1.54167 118 2.75 119.25C4 120.5 5.75 121.125 8 121.125ZM40.9375 92.375L12.75 107.875C12.3333 108.083 12.0208 108.188 11.8125 108.188C11.2708 108.188 11 107.854 11 107.188V32.25C11 31.5 11.1458 30.8542 11.4375 30.3125C11.7708 29.7292 12.3125 29.2292 13.0625 28.8125L38.6875 13.8125C39.1042 13.6042 39.4792 13.3958 39.8125 13.1875C40.1875 12.9792 40.5625 12.7708 40.9375 12.5625V92.375ZM51 93.375V13.875C51.3333 14.0417 51.6667 14.2292 52 14.4375C52.3333 14.6042 52.6667 14.7917 53 15L80.875 32V110.125C80.4167 109.875 79.9583 109.625 79.5 109.375C79.0417 109.167 78.5833 108.938 78.125 108.688L51 93.375ZM90.9375 111.25V31.375L119.125 16C119.542 15.7917 119.833 15.6875 120 15.6875C120.292 15.6875 120.5 15.7708 120.625 15.9375C120.792 16.1042 120.875 16.3542 120.875 16.6875V91.625C120.875 92.375 120.708 93.0417 120.375 93.625C120.083 94.2083 119.562 94.7083 118.812 95.125L93.75 109.688C93.2917 109.979 92.8125 110.25 92.3125 110.5C91.8542 110.75 91.3958 111 90.9375 111.25Z" fill="white"/>
</svg>
