<svg width="116" height="116" viewBox="0 0 116 116" fill="none" xmlns="http://www.w3.org/2000/svg">
<path d="M20.5625 115.5H96.375C102.917 115.5 107.812 113.875 111.062 110.625C114.354 107.417 116 102.583 116 96.125V19.8125C116 13.3542 114.354 8.52083 111.062 5.3125C107.812 2.0625 102.917 0.4375 96.375 0.4375H20.5625C14.0208 0.4375 9.10417 2.0625 5.8125 5.3125C2.5625 8.52083 0.9375 13.3542 0.9375 19.8125V96.125C0.9375 102.583 2.5625 107.417 5.8125 110.625C9.10417 113.875 14.0208 115.5 20.5625 115.5ZM20.6875 105.438C17.5625 105.438 15.1667 104.625 13.5 103C11.8333 101.333 11 98.875 11 95.625V20.3125C11 17.0625 11.8333 14.625 13.5 13C15.1667 11.3333 17.5625 10.5 20.6875 10.5H96.25C99.3333 10.5 101.708 11.3333 103.375 13C105.083 14.625 105.938 17.0625 105.938 20.3125V95.625C105.938 98.875 105.083 101.333 103.375 103C101.708 104.625 99.3333 105.438 96.25 105.438H20.6875ZM44.25 34.4375C44.25 37.6042 45.1875 40.4375 47.0625 42.9375C48.9375 45.3958 51.3125 47.0833 54.1875 48V79.375C54.1875 82.4167 54.3333 85.2708 54.625 87.9375C54.9583 90.5625 55.4375 92.6875 56.0625 94.3125C56.7292 95.8958 57.5417 96.6875 58.5 96.6875C59.4583 96.6875 60.25 95.8958 60.875 94.3125C61.5 92.6875 61.9583 90.5625 62.25 87.9375C62.5833 85.3125 62.75 82.4583 62.75 79.375V48C65.6667 47.125 68.0625 45.4583 69.9375 43C71.8125 40.5 72.75 37.6458 72.75 34.4375C72.75 31.8125 72.1042 29.4375 70.8125 27.3125C69.5208 25.1458 67.7917 23.4167 65.625 22.125C63.5 20.8333 61.125 20.1875 58.5 20.1875C55.875 20.1875 53.4792 20.8333 51.3125 22.125C49.1875 23.4167 47.4792 25.1458 46.1875 27.3125C44.8958 29.4375 44.25 31.8125 44.25 34.4375ZM50.25 30.8125C50.25 29.5625 50.7083 28.4792 51.625 27.5625C52.5417 26.6458 53.6042 26.1875 54.8125 26.1875C56.0625 26.1875 57.125 26.6458 58 27.5625C58.9167 28.4792 59.375 29.5625 59.375 30.8125C59.375 32.0208 58.9167 33.0833 58 34C57.125 34.875 56.0625 35.3125 54.8125 35.3125C53.6042 35.3125 52.5417 34.875 51.625 34C50.75 33.0833 50.2917 32.0208 50.25 30.8125Z" fill="white"/>
</svg>
