<svg width="13" height="18" viewBox="0 0 13 18" fill="none" xmlns="http://www.w3.org/2000/svg">
<path d="M4.07031 3.72656C4.07031 4.1849 4.16406 4.60938 4.35156 5C4.54427 5.39062 4.80729 5.72396 5.14062 6C5.47396 6.27604 5.85156 6.46615 6.27344 6.57031V7.52344L7.72656 8.97656V6.57031C8.14844 6.46615 8.52604 6.27604 8.85938 6C9.19271 5.72396 9.45573 5.39062 9.64844 5C9.84115 4.60938 9.9375 4.1849 9.9375 3.72656C9.9375 3.1849 9.80469 2.69271 9.53906 2.25C9.27865 1.80208 8.92708 1.44531 8.48438 1.17969C8.04167 0.914062 7.54688 0.78125 7 0.78125C6.45833 0.78125 5.96615 0.914062 5.52344 1.17969C5.08073 1.44531 4.72656 1.80208 4.46094 2.25C4.20052 2.69271 4.07031 3.1849 4.07031 3.72656ZM6.27344 13.8203C6.27344 14.3984 6.29688 14.9062 6.34375 15.3438C6.39062 15.7865 6.45052 16.1589 6.52344 16.4609C6.59635 16.763 6.67448 16.9922 6.75781 17.1484C6.84115 17.3047 6.92188 17.3828 7 17.3828C7.09896 17.3828 7.20312 17.263 7.3125 17.0234C7.42708 16.7839 7.52344 16.4349 7.60156 15.9766C7.67969 15.5234 7.71875 14.974 7.71875 14.3281V13.2422L6.27344 11.7969V13.8203ZM6.15625 3.88281C5.89062 3.88281 5.65625 3.78385 5.45312 3.58594C5.25521 3.38281 5.15625 3.14583 5.15625 2.875C5.15625 2.60417 5.25521 2.36979 5.45312 2.17188C5.65625 1.97396 5.89062 1.875 6.15625 1.875C6.43229 1.875 6.66927 1.97396 6.86719 2.17188C7.0651 2.36979 7.16406 2.60417 7.16406 2.875C7.16406 3.14583 7.0651 3.38281 6.86719 3.58594C6.66927 3.78385 6.43229 3.88281 6.15625 3.88281ZM11.7422 15.9688C11.862 16.0885 12.0052 16.1484 12.1719 16.1484C12.3385 16.1484 12.4792 16.0885 12.5938 15.9688C12.7083 15.8542 12.7656 15.7135 12.7656 15.5469C12.7708 15.3802 12.7135 15.237 12.5938 15.1172L1.69531 4.22656C1.58073 4.11198 1.4375 4.05469 1.26562 4.05469C1.09375 4.05469 0.950521 4.11198 0.835938 4.22656C0.721354 4.34115 0.664062 4.48438 0.664062 4.65625C0.664062 4.82292 0.721354 4.96354 0.835938 5.07812L11.7422 15.9688Z" fill="white"/>
</svg>
