<svg xmlns="http://www.w3.org/2000/svg" width="24" height="24"><path style="stroke:none;fill-rule:nonzero;fill:#fff;fill-opacity:1" d="M12 23.063c1.633 0 3.168-.293 4.605-.883a12.29 12.29 0 0 0 3.82-2.438 11.482 11.482 0 0 0 2.59-3.586c.626-1.36.938-2.804.938-4.343 0-1.536-.312-2.981-.937-4.336a11.514 11.514 0 0 0-2.59-3.594 12.22 12.22 0 0 0-3.82-2.438 12.166 12.166 0 0 0-4.618-.883c-1.633 0-3.172.293-4.617.883a12.307 12.307 0 0 0-3.809 2.438A11.523 11.523 0 0 0 .985 7.477a10.187 10.187 0 0 0-.937 4.335c0 1.54.312 2.985.937 4.344a11.438 11.438 0 0 0 2.59 3.586 12.307 12.307 0 0 0 3.809 2.438c1.445.59 2.984.883 4.617.883ZM9.234 7.555c0-.477.125-.91.375-1.301A2.8 2.8 0 0 1 12 4.96c.508 0 .969.121 1.383.355.422.235.758.547 1.008.938.25.39.375.824.375 1.3a2.38 2.38 0 0 1-.551 1.555c-.367.45-.828.754-1.383.918v5.692c0 .566-.031 1.09-.094 1.578-.062.476-.156.863-.281 1.156-.117.285-.27.43-.457.43-.188 0-.344-.149-.469-.442-.125-.293-.219-.68-.281-1.156a11.67 11.67 0 0 1-.094-1.566v-5.692a2.828 2.828 0 0 1-1.383-.925 2.398 2.398 0 0 1-.539-1.543Zm1.172-.66a.84.84 0 0 0 .27.582c.16.156.383.246.613.246.234 0 .457-.09.617-.246a.797.797 0 0 0 .258-.582.812.812 0 0 0-.258-.586.846.846 0 0 0-.62-.254.871.871 0 0 0-.61.254.782.782 0 0 0-.27.586Zm0 0"/></svg>