<svg width="48" height="134" viewBox="0 0 48 134" fill="none" xmlns="http://www.w3.org/2000/svg">
<path d="M0.8125 23.8125C0.8125 27.4792 1.5625 30.875 3.0625 34C4.60417 37.125 6.70833 39.7917 9.375 42C12.0417 44.2083 15.0625 45.7292 18.4375 46.5625V104.562C18.4375 109.188 18.625 113.25 19 116.75C19.375 120.292 19.8542 123.271 20.4375 125.688C21.0208 128.104 21.6458 129.938 22.3125 131.188C22.9792 132.438 23.625 133.062 24.25 133.062C24.875 133.062 25.5208 132.438 26.1875 131.188C26.8958 129.979 27.5208 128.167 28.0625 125.75C28.6458 123.333 29.125 120.354 29.5 116.812C29.875 113.271 30.0625 109.188 30.0625 104.562V46.5625C33.4375 45.7292 36.4583 44.2083 39.125 42C41.7917 39.7917 43.8958 37.125 45.4375 34C46.9792 30.875 47.75 27.4792 47.75 23.8125C47.75 19.4792 46.6875 15.5417 44.5625 12C42.4792 8.41667 39.6667 5.5625 36.125 3.4375C32.5833 1.3125 28.625 0.25 24.25 0.25C19.9167 0.25 15.9792 1.3125 12.4375 3.4375C8.89583 5.5625 6.0625 8.41667 3.9375 12C1.85417 15.5417 0.8125 19.4792 0.8125 23.8125ZM17.5 25.0625C15.375 25.0625 13.5 24.2708 11.875 22.6875C10.2917 21.0625 9.5 19.1667 9.5 17C9.5 14.8333 10.2917 12.9583 11.875 11.375C13.5 9.79167 15.375 9 17.5 9C19.7083 9 21.6042 9.79167 23.1875 11.375C24.7708 12.9583 25.5625 14.8333 25.5625 17C25.5625 19.1667 24.7708 21.0625 23.1875 22.6875C21.6042 24.2708 19.7083 25.0625 17.5 25.0625Z" fill="white"/>
</svg>
