<svg width="128" height="128" viewBox="0 0 128 128" fill="none" xmlns="http://www.w3.org/2000/svg">
<path d="M63.9375 127.625C72.6458 127.625 80.8333 125.958 88.5 122.625C96.2083 119.292 103 114.688 108.875 108.812C114.75 102.938 119.354 96.1667 122.688 88.5C126.021 80.7917 127.688 72.5833 127.688 63.875C127.688 55.1667 126.021 46.9792 122.688 39.3125C119.354 31.6042 114.75 24.8125 108.875 18.9375C103 13.0625 96.2083 8.45833 88.5 5.125C80.7917 1.79167 72.5833 0.125 63.875 0.125C55.1667 0.125 46.9583 1.79167 39.25 5.125C31.5833 8.45833 24.8125 13.0625 18.9375 18.9375C13.1042 24.8125 8.52083 31.6042 5.1875 39.3125C1.85417 46.9792 0.1875 55.1667 0.1875 63.875C0.1875 72.5833 1.85417 80.7917 5.1875 88.5C8.52083 96.1667 13.125 102.938 19 108.812C24.875 114.688 31.6458 119.292 39.3125 122.625C47.0208 125.958 55.2292 127.625 63.9375 127.625ZM63.9375 117C56.5625 117 49.6667 115.625 43.25 112.875C36.8333 110.125 31.1875 106.333 26.3125 101.5C21.4792 96.625 17.6875 90.9792 14.9375 84.5625C12.2292 78.1458 10.875 71.25 10.875 63.875C10.875 56.5 12.2292 49.6042 14.9375 43.1875C17.6875 36.7708 21.4792 31.125 26.3125 26.25C31.1458 21.375 36.7708 17.5833 43.1875 14.875C49.6042 12.125 56.5 10.75 63.875 10.75C71.25 10.75 78.1458 12.125 84.5625 14.875C91.0208 17.5833 96.6667 21.375 101.5 26.25C106.375 31.125 110.188 36.7708 112.938 43.1875C115.688 49.6042 117.062 56.5 117.062 63.875C117.062 71.25 115.688 78.1458 112.938 84.5625C110.229 90.9792 106.438 96.625 101.562 101.5C96.6875 106.333 91.0417 110.125 84.625 112.875C78.2083 115.625 71.3125 117 63.9375 117ZM49.625 40.4375C49.625 43.6042 50.5625 46.4375 52.4375 48.9375C54.3125 51.3958 56.6875 53.0833 59.5625 54V85.375C59.5625 88.4167 59.7083 91.2708 60 93.9375C60.3333 96.5625 60.8125 98.6875 61.4375 100.312C62.1042 101.896 62.9167 102.688 63.875 102.688C64.8333 102.688 65.625 101.896 66.25 100.312C66.875 98.6875 67.3333 96.5625 67.625 93.9375C67.9583 91.3125 68.125 88.4583 68.125 85.375V54C71.0417 53.125 73.4375 51.4583 75.3125 49C77.1875 46.5 78.125 43.6458 78.125 40.4375C78.125 37.8125 77.4792 35.4375 76.1875 33.3125C74.8958 31.1458 73.1667 29.4167 71 28.125C68.875 26.8333 66.5 26.1875 63.875 26.1875C61.25 26.1875 58.8542 26.8333 56.6875 28.125C54.5625 29.4167 52.8542 31.1458 51.5625 33.3125C50.2708 35.4375 49.625 37.8125 49.625 40.4375ZM55.625 36.8125C55.625 35.5625 56.0833 34.4792 57 33.5625C57.9167 32.6458 58.9792 32.1875 60.1875 32.1875C61.4375 32.1875 62.5 32.6458 63.375 33.5625C64.2917 34.4792 64.75 35.5625 64.75 36.8125C64.75 38.0208 64.2917 39.0833 63.375 40C62.5 40.875 61.4375 41.3125 60.1875 41.3125C58.9792 41.3125 57.9167 40.875 57 40C56.125 39.0833 55.6667 38.0208 55.625 36.8125Z" fill="white"/>
</svg>
