<svg width="128" height="128" viewBox="0 0 128 128" fill="none" xmlns="http://www.w3.org/2000/svg">
<path d="M63.9375 127.688C72.6458 127.688 80.8333 126.021 88.5 122.688C96.2083 119.354 103 114.75 108.875 108.875C114.75 103 119.354 96.2292 122.688 88.5625C126.021 80.8542 127.688 72.6458 127.688 63.9375C127.688 55.2292 126.021 47.0417 122.688 39.375C119.354 31.6667 114.75 24.875 108.875 19C103 13.125 96.2083 8.52083 88.5 5.1875C80.7917 1.85417 72.5833 0.1875 63.875 0.1875C55.1667 0.1875 46.9583 1.85417 39.25 5.1875C31.5833 8.52083 24.8125 13.125 18.9375 19C13.1042 24.875 8.52083 31.6667 5.1875 39.375C1.85417 47.0417 0.1875 55.2292 0.1875 63.9375C0.1875 72.6458 1.85417 80.8542 5.1875 88.5625C8.52083 96.2292 13.125 103 19 108.875C24.875 114.75 31.6458 119.354 39.3125 122.688C47.0208 126.021 55.2292 127.688 63.9375 127.688ZM68.125 54.375L50.1875 36.375C51.0625 33.4583 52.75 31.0625 55.25 29.1875C57.75 27.2708 60.6042 26.3125 63.8125 26.3125C66.4375 26.3125 68.8333 26.9583 71 28.25C73.2083 29.5417 74.9583 31.2708 76.25 33.4375C77.5417 35.6042 78.1875 38.0208 78.1875 40.6875C78.1875 43.8958 77.2292 46.75 75.3125 49.25C73.4375 51.75 71.0417 53.4583 68.125 54.375ZM55.625 36.875C55.625 38.0833 56.0833 39.1458 57 40.0625C57.9167 40.9792 58.9583 41.4375 60.125 41.4375C61.375 41.4375 62.4375 40.9792 63.3125 40.0625C64.2292 39.1458 64.6875 38.0833 64.6875 36.875C64.6875 35.6667 64.2292 34.6042 63.3125 33.6875C62.4375 32.7708 61.375 32.3125 60.125 32.3125C58.9583 32.3125 57.8958 32.7708 56.9375 33.6875C56.0208 34.6042 55.5833 35.6667 55.625 36.875ZM59.5 70.3125L68.0625 78.875V85.5C68.0625 88.5833 67.8958 91.4375 67.5625 94.0625C67.2708 96.6875 66.8125 98.7917 66.1875 100.375C65.5625 101.958 64.7708 102.75 63.8125 102.75C62.8542 102.75 62.0625 101.958 61.4375 100.375C60.8125 98.75 60.3333 96.625 60 94C59.6667 91.375 59.5 88.5417 59.5 85.5V70.3125ZM93 97.0625L30.6875 34.75C30.1458 34.25 29.875 33.6042 29.875 32.8125C29.875 32.0208 30.1458 31.3333 30.6875 30.75C31.2708 30.2083 31.9375 29.9375 32.6875 29.9375C33.4792 29.9375 34.1667 30.2083 34.75 30.75L97 93.0625C97.5833 93.6458 97.875 94.3125 97.875 95.0625C97.875 95.8125 97.5833 96.4792 97 97.0625C96.4583 97.6042 95.7917 97.875 95 97.875C94.2083 97.875 93.5417 97.6042 93 97.0625Z" fill="white"/>
</svg>
