<svg width="98" height="134" viewBox="0 0 98 134" fill="none" xmlns="http://www.w3.org/2000/svg">
<path d="M27.8125 23.8125C27.8125 27.4792 28.5625 30.875 30.0625 34C31.6042 37.125 33.7083 39.7917 36.375 42C39.0417 44.2083 42.0625 45.7292 45.4375 46.5625V54.1875L57.0625 65.8125V46.5625C60.4375 45.7292 63.4583 44.2083 66.125 42C68.7917 39.7917 70.8958 37.125 72.4375 34C73.9792 30.875 74.75 27.4792 74.75 23.8125C74.75 19.4792 73.6875 15.5417 71.5625 12C69.4792 8.41667 66.6667 5.5625 63.125 3.4375C59.5833 1.3125 55.625 0.25 51.25 0.25C46.9167 0.25 42.9792 1.3125 39.4375 3.4375C35.8958 5.5625 33.0625 8.41667 30.9375 12C28.8542 15.5417 27.8125 19.4792 27.8125 23.8125ZM45.4375 104.562C45.4375 109.188 45.625 113.25 46 116.75C46.375 120.292 46.8542 123.271 47.4375 125.688C48.0208 128.104 48.6458 129.938 49.3125 131.188C49.9792 132.438 50.625 133.062 51.25 133.062C52.0417 133.062 52.875 132.104 53.75 130.188C54.6667 128.271 55.4375 125.479 56.0625 121.812C56.6875 118.188 57 113.792 57 108.625V99.9375L45.4375 88.375V104.562ZM44.5 25.0625C42.375 25.0625 40.5 24.2708 38.875 22.6875C37.2917 21.0625 36.5 19.1667 36.5 17C36.5 14.8333 37.2917 12.9583 38.875 11.375C40.5 9.79167 42.375 9 44.5 9C46.7083 9 48.6042 9.79167 50.1875 11.375C51.7708 12.9583 52.5625 14.8333 52.5625 17C52.5625 19.1667 51.7708 21.0625 50.1875 22.6875C48.6042 24.2708 46.7083 25.0625 44.5 25.0625ZM89.1875 121.75C90.1458 122.708 91.2917 123.188 92.625 123.188C93.9583 123.188 95.0833 122.708 96 121.75C96.9167 120.833 97.375 119.708 97.375 118.375C97.4167 117.042 96.9583 115.896 96 114.938L8.8125 27.8125C7.89583 26.8958 6.75 26.4375 5.375 26.4375C4 26.4375 2.85417 26.8958 1.9375 27.8125C1.02083 28.7292 0.5625 29.875 0.5625 31.25C0.5625 32.5833 1.02083 33.7083 1.9375 34.625L89.1875 121.75Z" fill="white"/>
</svg>
