<svg xmlns="http://www.w3.org/2000/svg" width="24" height="24"><path style="stroke:none;fill-rule:nonzero;fill:#fff;fill-opacity:1" d="M12 23.05c1.633 0 3.168-.292 4.605-.882a12.22 12.22 0 0 0 3.82-2.438 11.467 11.467 0 0 0 2.59-3.582c.626-1.363.938-2.808.938-4.347a10.2 10.2 0 0 0-.937-4.332 11.53 11.53 0 0 0-2.59-3.598 12.361 12.361 0 0 0-3.82-2.437A12.166 12.166 0 0 0 11.987.55c-1.633 0-3.172.293-4.617.883A12.307 12.307 0 0 0 3.562 3.87 11.523 11.523 0 0 0 .985 7.465 10.2 10.2 0 0 0 .047 11.8c0 1.539.312 2.984.937 4.347a11.467 11.467 0 0 0 2.59 3.582 12.236 12.236 0 0 0 3.809 2.438c1.445.59 2.984.883 4.617.883Zm0-1.874a10.222 10.222 0 0 1-7.055-2.734 9.548 9.548 0 0 1-2.133-2.989 8.83 8.83 0 0 1-.761-3.652c0-1.301.254-2.52.761-3.649A9.52 9.52 0 0 1 4.946 5.16 9.82 9.82 0 0 1 8.11 3.156c1.204-.488 2.496-.73 3.88-.73 1.382 0 2.675.242 3.878.73a9.701 9.701 0 0 1 3.176 2.004 9.432 9.432 0 0 1 2.145 2.992 8.685 8.685 0 0 1 .773 3.649c0 1.3-.258 2.52-.773 3.652a9.22 9.22 0 0 1-2.133 2.988A10.222 10.222 0 0 1 12 21.176Zm.785-11.063a2.64 2.64 0 0 0 1.348-.902c.36-.441.539-.945.539-1.512 0-.472-.121-.898-.363-1.281a2.64 2.64 0 0 0-.985-.914 2.735 2.735 0 0 0-1.347-.344 2.69 2.69 0 0 0-1.606.508 2.432 2.432 0 0 0-.95 1.27Zm-2.344-3.086a.712.712 0 0 1 .246-.562.862.862 0 0 1 .598-.246c.235 0 .434.082.598.246a.749.749 0 0 1 .258.562c0 .211-.094.414-.258.563a.842.842 0 0 1-1.184 0 .761.761 0 0 1-.258-.563Zm.727 5.899v2.68c0 .539.031 1.039.094 1.5.062.464.152.84.27 1.124.116.282.265.418.445.418s.328-.136.445-.418c.117-.277.203-.648.258-1.113.062-.465.093-.965.093-1.512v-1.168Zm6.281 4.722a.522.522 0 0 0 .375.141.522.522 0 0 0 .375-.14.462.462 0 0 0 0-.707L6.527 5.944a.577.577 0 0 0-.761 0 .512.512 0 0 0-.153.364c0 .14.051.253.153.34Zm0 0"/></svg>