<svg width="128" height="128" viewBox="0 0 128 128" fill="none" xmlns="http://www.w3.org/2000/svg">
<path d="M63.9375 127.688C72.6458 127.688 80.8333 126.021 88.5 122.688C96.2083 119.354 103 114.75 108.875 108.875C114.75 103 119.354 96.2292 122.688 88.5625C126.021 80.8542 127.688 72.6458 127.688 63.9375C127.688 55.2292 126.021 47.0417 122.688 39.375C119.354 31.6667 114.75 24.875 108.875 19C103 13.125 96.2083 8.52083 88.5 5.1875C80.7917 1.85417 72.5833 0.1875 63.875 0.1875C55.1667 0.1875 46.9583 1.85417 39.25 5.1875C31.5833 8.52083 24.8125 13.125 18.9375 19C13.1042 24.875 8.52083 31.6667 5.1875 39.375C1.85417 47.0417 0.1875 55.2292 0.1875 63.9375C0.1875 72.6458 1.85417 80.8542 5.1875 88.5625C8.52083 96.2292 13.125 103 19 108.875C24.875 114.75 31.6458 119.354 39.3125 122.688C47.0208 126.021 55.2292 127.688 63.9375 127.688ZM49.1875 39.8125C49.1875 37.1042 49.8542 34.6458 51.1875 32.4375C52.5208 30.2292 54.2917 28.4583 56.5 27.125C58.75 25.7917 61.2292 25.125 63.9375 25.125C66.6458 25.125 69.1042 25.7917 71.3125 27.125C73.5625 28.4583 75.3542 30.2292 76.6875 32.4375C78.0208 34.6458 78.6875 37.1042 78.6875 39.8125C78.6875 43.1458 77.7083 46.0833 75.75 48.625C73.7917 51.1667 71.3333 52.8958 68.375 53.8125V86.0625C68.375 89.2708 68.2083 92.25 67.875 95C67.5417 97.7083 67.0417 99.8958 66.375 101.562C65.75 103.188 64.9375 104 63.9375 104C62.9375 104 62.1042 103.167 61.4375 101.5C60.7708 99.8333 60.2708 97.6458 59.9375 94.9375C59.6042 92.1875 59.4375 89.2292 59.4375 86.0625V53.8125C56.4792 52.8542 54.0208 51.1042 52.0625 48.5625C50.1458 46.0208 49.1875 43.1042 49.1875 39.8125ZM55.4375 36.0625C55.4792 37.3125 55.9583 38.4167 56.875 39.375C57.8333 40.2917 58.9167 40.75 60.125 40.75C61.4167 40.75 62.5208 40.2917 63.4375 39.375C64.3542 38.4167 64.8125 37.3125 64.8125 36.0625C64.8125 34.8125 64.3542 33.7083 63.4375 32.75C62.5208 31.7917 61.4167 31.3125 60.125 31.3125C58.9167 31.3125 57.8333 31.7917 56.875 32.75C55.9167 33.7083 55.4375 34.8125 55.4375 36.0625Z" fill="white"/>
</svg>
