<?xml version="1.0" encoding="UTF-8"?>
<svg xmlns="http://www.w3.org/2000/svg" xmlns:xlink="http://www.w3.org/1999/xlink" width="24" height="25.5" viewBox="0 0 24 25.5" version="1.1">
<g id="surface1">
<path style=" stroke:none;fill-rule:nonzero;fill:rgb(100%,100%,100%);fill-opacity:1;" d="M 12 24.503906 C 13.632812 24.503906 15.167969 24.191406 16.605469 23.566406 C 18.050781 22.941406 19.324219 22.078125 20.425781 20.976562 C 21.527344 19.875 22.390625 18.605469 23.015625 17.167969 C 23.640625 15.722656 23.953125 14.183594 23.953125 12.550781 C 23.953125 10.917969 23.640625 9.382812 23.015625 7.945312 C 22.390625 6.5 21.527344 5.226562 20.425781 4.125 C 19.324219 3.023438 18.050781 2.160156 16.605469 1.535156 C 15.160156 0.910156 13.621094 0.597656 11.988281 0.597656 C 10.355469 0.597656 8.816406 0.910156 7.371094 1.535156 C 5.933594 2.160156 4.664062 3.023438 3.5625 4.125 C 2.46875 5.226562 1.609375 6.5 0.984375 7.945312 C 0.359375 9.382812 0.046875 10.917969 0.046875 12.550781 C 0.046875 14.183594 0.359375 15.722656 0.984375 17.167969 C 1.609375 18.605469 2.472656 19.875 3.574219 20.976562 C 4.675781 22.078125 5.945312 22.941406 7.382812 23.566406 C 8.828125 24.191406 10.367188 24.503906 12 24.503906 Z M 12.785156 10.757812 L 9.421875 7.382812 C 9.585938 6.835938 9.902344 6.386719 10.371094 6.035156 C 10.839844 5.675781 11.375 5.496094 11.976562 5.496094 C 12.46875 5.496094 12.917969 5.617188 13.324219 5.859375 C 13.738281 6.101562 14.066406 6.425781 14.308594 6.832031 C 14.550781 7.238281 14.671875 7.691406 14.671875 8.191406 C 14.671875 8.792969 14.492188 9.328125 14.132812 9.796875 C 13.78125 10.265625 13.332031 10.585938 12.785156 10.757812 Z M 10.441406 7.476562 C 10.441406 7.703125 10.527344 7.902344 10.699219 8.074219 C 10.871094 8.246094 11.066406 8.332031 11.285156 8.332031 C 11.519531 8.332031 11.71875 8.246094 11.882812 8.074219 C 12.054688 7.902344 12.140625 7.703125 12.140625 7.476562 C 12.140625 7.25 12.054688 7.050781 11.882812 6.878906 C 11.71875 6.707031 11.519531 6.621094 11.285156 6.621094 C 11.066406 6.621094 10.867188 6.707031 10.6875 6.878906 C 10.515625 7.050781 10.433594 7.25 10.441406 7.476562 Z M 11.167969 13.746094 L 12.773438 15.351562 L 12.773438 16.59375 C 12.773438 17.171875 12.742188 17.707031 12.679688 18.199219 C 12.625 18.691406 12.539062 19.085938 12.421875 19.382812 C 12.304688 19.679688 12.15625 19.828125 11.976562 19.828125 C 11.796875 19.828125 11.648438 19.679688 11.53125 19.382812 C 11.414062 19.078125 11.324219 18.679688 11.261719 18.1875 C 11.199219 17.695312 11.167969 17.164062 11.167969 16.59375 Z M 17.449219 18.761719 L 5.765625 7.078125 C 5.664062 6.984375 5.613281 6.863281 5.613281 6.714844 C 5.613281 6.566406 5.664062 6.4375 5.765625 6.328125 C 5.875 6.226562 6 6.175781 6.140625 6.175781 C 6.289062 6.175781 6.417969 6.226562 6.527344 6.328125 L 18.199219 18.011719 C 18.308594 18.121094 18.363281 18.246094 18.363281 18.386719 C 18.363281 18.527344 18.308594 18.652344 18.199219 18.761719 C 18.097656 18.863281 17.972656 18.914062 17.824219 18.914062 C 17.675781 18.914062 17.550781 18.863281 17.449219 18.761719 Z M 17.449219 18.761719 "/>
</g>
</svg>
