<svg width="16" height="18" viewBox="0 0 16 18" fill="none" xmlns="http://www.w3.org/2000/svg">
<path d="M5.0625 3.72656C5.0625 4.1849 5.15625 4.60938 5.34375 5C5.53646 5.39062 5.79948 5.72396 6.13281 6C6.46615 6.27604 6.84375 6.46615 7.26562 6.57031V11.5156C7.26562 12.0938 7.28906 12.6042 7.33594 13.0469C7.38281 13.4896 7.44271 13.862 7.51562 14.1641C7.58854 14.4661 7.66667 14.6953 7.75 14.8516C7.83333 15.0026 7.91406 15.0781 7.99219 15.0781C8.07031 15.0781 8.15104 15.0026 8.23438 14.8516C8.32292 14.6953 8.40104 14.4661 8.46875 14.1641C8.54167 13.862 8.60156 13.4896 8.64844 13.0469C8.69531 12.6042 8.71875 12.0938 8.71875 11.5156V6.57031C9.14062 6.46615 9.51823 6.27604 9.85156 6C10.1849 5.72396 10.4479 5.39062 10.6406 5C10.8333 4.60938 10.9297 4.1849 10.9297 3.72656C10.9297 3.1849 10.7969 2.69271 10.5312 2.25C10.2708 1.80208 9.91927 1.44531 9.47656 1.17969C9.03385 0.914062 8.53906 0.78125 7.99219 0.78125C7.45052 0.78125 6.95833 0.914062 6.51562 1.17969C6.07292 1.44531 5.71875 1.80208 5.45312 2.25C5.19271 2.69271 5.0625 3.1849 5.0625 3.72656ZM7.15625 3.88281C6.89062 3.88281 6.65625 3.78385 6.45312 3.58594C6.25521 3.38281 6.15625 3.14583 6.15625 2.875C6.15625 2.60417 6.25521 2.36979 6.45312 2.17188C6.65625 1.97396 6.89062 1.875 7.15625 1.875C7.43229 1.875 7.66927 1.97396 7.86719 2.17188C8.0651 2.36979 8.16406 2.60417 8.16406 2.875C8.16406 3.14583 8.0651 3.38281 7.86719 3.58594C7.66927 3.78385 7.43229 3.88281 7.15625 3.88281ZM8 17.9375C9.17708 17.9375 10.224 17.8438 11.1406 17.6562C12.0625 17.474 12.8411 17.224 13.4766 16.9062C14.112 16.5938 14.5938 16.237 14.9219 15.8359C15.25 15.4401 15.4141 15.026 15.4141 14.5938C15.4141 14.1823 15.2969 13.8047 15.0625 13.4609C14.8333 13.112 14.5234 12.8021 14.1328 12.5312C13.7422 12.2604 13.3073 12.0312 12.8281 11.8438C12.3542 11.651 11.8698 11.5052 11.375 11.4062C10.8854 11.3021 10.4245 11.25 9.99219 11.25V12.3906C10.3724 12.3958 10.7812 12.4505 11.2188 12.5547C11.6615 12.6536 12.0807 12.7917 12.4766 12.9688C12.8724 13.1458 13.1979 13.3568 13.4531 13.6016C13.7083 13.8464 13.8359 14.1146 13.8359 14.4062C13.8359 14.7448 13.6901 15.0521 13.3984 15.3281C13.1068 15.6094 12.6979 15.8516 12.1719 16.0547C11.651 16.263 11.0339 16.4219 10.3203 16.5312C9.61198 16.6458 8.83854 16.7031 8 16.7031C7.15625 16.7031 6.3776 16.6458 5.66406 16.5312C4.95573 16.4219 4.33854 16.2656 3.8125 16.0625C3.29167 15.8594 2.88542 15.6172 2.59375 15.3359C2.30729 15.0547 2.16406 14.7448 2.16406 14.4062C2.16406 14.1146 2.28906 13.8464 2.53906 13.6016C2.79427 13.3568 3.11979 13.1458 3.51562 12.9688C3.91146 12.7917 4.33073 12.6536 4.77344 12.5547C5.21615 12.4505 5.625 12.3958 6 12.3906V11.25C5.57292 11.25 5.11198 11.3021 4.61719 11.4062C4.1276 11.5052 3.64323 11.651 3.16406 11.8438C2.6901 12.0312 2.25781 12.2604 1.86719 12.5312C1.47656 12.8021 1.16406 13.112 0.929688 13.4609C0.695312 13.8047 0.578125 14.1823 0.578125 14.5938C0.578125 15.026 0.742188 15.4401 1.07031 15.8359C1.40365 16.237 1.88802 16.5938 2.52344 16.9062C3.15885 17.224 3.9349 17.474 4.85156 17.6562C5.77344 17.8438 6.82292 17.9375 8 17.9375Z" fill="white"/>
</svg>
