<?xml version="1.0" encoding="UTF-8"?>
<svg xmlns="http://www.w3.org/2000/svg" xmlns:xlink="http://www.w3.org/1999/xlink" width="24" height="22.5" viewBox="0 0 24 22.5" version="1.1">
<g id="surface1">
<path style=" stroke:none;fill-rule:nonzero;fill:rgb(100%,100%,100%);fill-opacity:1;" d="M 4.886719 21.84375 L 19.101562 21.84375 C 20.328125 21.84375 21.246094 21.539062 21.855469 20.929688 C 22.472656 20.328125 22.78125 19.421875 22.78125 18.210938 L 22.78125 3.902344 C 22.78125 2.691406 22.472656 1.785156 21.855469 1.183594 C 21.246094 0.574219 20.328125 0.269531 19.101562 0.269531 L 4.886719 0.269531 C 3.660156 0.269531 2.738281 0.574219 2.121094 1.183594 C 1.511719 1.785156 1.207031 2.691406 1.207031 3.902344 L 1.207031 18.210938 C 1.207031 19.421875 1.511719 20.328125 2.121094 20.929688 C 2.738281 21.539062 3.660156 21.84375 4.886719 21.84375 Z M 9.234375 6.503906 C 9.234375 5.996094 9.359375 5.535156 9.609375 5.121094 C 9.859375 4.707031 10.191406 4.375 10.605469 4.125 C 11.027344 3.875 11.492188 3.75 12 3.75 C 12.507812 3.75 12.96875 3.875 13.382812 4.125 C 13.804688 4.375 14.140625 4.707031 14.390625 5.121094 C 14.640625 5.535156 14.765625 5.996094 14.765625 6.503906 C 14.765625 7.128906 14.582031 7.679688 14.214844 8.15625 C 13.847656 8.632812 13.386719 8.957031 12.832031 9.128906 L 12.832031 15.175781 C 12.832031 15.777344 12.800781 16.335938 12.738281 16.851562 C 12.675781 17.359375 12.582031 17.769531 12.457031 18.082031 C 12.339844 18.386719 12.1875 18.539062 12 18.539062 C 11.8125 18.539062 11.65625 18.382812 11.53125 18.070312 C 11.40625 17.757812 11.3125 17.347656 11.25 16.839844 C 11.1875 16.324219 11.15625 15.769531 11.15625 15.175781 L 11.15625 9.128906 C 10.601562 8.949219 10.140625 8.621094 9.773438 8.144531 C 9.414062 7.667969 9.234375 7.121094 9.234375 6.503906 Z M 10.40625 5.800781 C 10.414062 6.035156 10.503906 6.242188 10.675781 6.421875 C 10.855469 6.59375 11.058594 6.679688 11.285156 6.679688 C 11.527344 6.679688 11.734375 6.59375 11.90625 6.421875 C 12.078125 6.242188 12.164062 6.035156 12.164062 5.800781 C 12.164062 5.566406 12.078125 5.359375 11.90625 5.179688 C 11.734375 5 11.527344 4.910156 11.285156 4.910156 C 11.058594 4.910156 10.855469 5 10.675781 5.179688 C 10.496094 5.359375 10.40625 5.566406 10.40625 5.800781 Z M 10.40625 5.800781 "/>
</g>
</svg>
