<?xml version="1.0" encoding="UTF-8"?>
<svg xmlns="http://www.w3.org/2000/svg" xmlns:xlink="http://www.w3.org/1999/xlink" width="24" height="25.5" viewBox="0 0 24 25.5" version="1.1">
<g id="surface1">
<path style=" stroke:none;fill-rule:nonzero;fill:rgb(100%,100%,100%);fill-opacity:1;" d="M 12 24.492188 C 13.632812 24.492188 15.167969 24.179688 16.605469 23.554688 C 18.050781 22.929688 19.324219 22.066406 20.425781 20.964844 C 21.527344 19.863281 22.390625 18.59375 23.015625 17.15625 C 23.640625 15.710938 23.953125 14.171875 23.953125 12.539062 C 23.953125 10.90625 23.640625 9.371094 23.015625 7.933594 C 22.390625 6.488281 21.527344 5.214844 20.425781 4.113281 C 19.324219 3.011719 18.050781 2.148438 16.605469 1.523438 C 15.160156 0.898438 13.621094 0.585938 11.988281 0.585938 C 10.355469 0.585938 8.816406 0.898438 7.371094 1.523438 C 5.933594 2.148438 4.664062 3.011719 3.5625 4.113281 C 2.46875 5.214844 1.609375 6.488281 0.984375 7.933594 C 0.359375 9.371094 0.046875 10.90625 0.046875 12.539062 C 0.046875 14.171875 0.359375 15.710938 0.984375 17.15625 C 1.609375 18.59375 2.472656 19.863281 3.574219 20.964844 C 4.675781 22.066406 5.945312 22.929688 7.382812 23.554688 C 8.828125 24.179688 10.367188 24.492188 12 24.492188 Z M 12 22.5 C 10.617188 22.5 9.324219 22.242188 8.121094 21.726562 C 6.917969 21.210938 5.859375 20.5 4.945312 19.59375 C 4.039062 18.679688 3.328125 17.621094 2.8125 16.417969 C 2.304688 15.214844 2.050781 13.921875 2.050781 12.539062 C 2.050781 11.15625 2.304688 9.863281 2.8125 8.660156 C 3.328125 7.457031 4.039062 6.398438 4.945312 5.484375 C 5.851562 4.570312 6.90625 3.859375 8.109375 3.351562 C 9.3125 2.835938 10.605469 2.578125 11.988281 2.578125 C 13.371094 2.578125 14.664062 2.835938 15.867188 3.351562 C 17.078125 3.859375 18.136719 4.570312 19.042969 5.484375 C 19.957031 6.398438 20.671875 7.457031 21.1875 8.660156 C 21.703125 9.863281 21.960938 11.15625 21.960938 12.539062 C 21.960938 13.921875 21.703125 15.214844 21.1875 16.417969 C 20.679688 17.621094 19.96875 18.679688 19.054688 19.59375 C 18.140625 20.5 17.082031 21.210938 15.878906 21.726562 C 14.675781 22.242188 13.382812 22.5 12 22.5 Z M 9.316406 8.144531 C 9.316406 8.738281 9.492188 9.269531 9.84375 9.738281 C 10.195312 10.199219 10.640625 10.515625 11.179688 10.6875 L 11.179688 16.570312 C 11.179688 17.140625 11.207031 17.675781 11.261719 18.175781 C 11.324219 18.667969 11.414062 19.066406 11.53125 19.371094 C 11.65625 19.667969 11.808594 19.816406 11.988281 19.816406 C 12.167969 19.816406 12.316406 19.667969 12.433594 19.371094 C 12.550781 19.066406 12.636719 18.667969 12.691406 18.175781 C 12.753906 17.683594 12.785156 17.148438 12.785156 16.570312 L 12.785156 10.6875 C 13.332031 10.523438 13.78125 10.210938 14.132812 9.75 C 14.484375 9.28125 14.660156 8.746094 14.660156 8.144531 C 14.660156 7.652344 14.539062 7.207031 14.296875 6.808594 C 14.054688 6.402344 13.730469 6.078125 13.324219 5.835938 C 12.925781 5.59375 12.480469 5.472656 11.988281 5.472656 C 11.496094 5.472656 11.046875 5.59375 10.640625 5.835938 C 10.242188 6.078125 9.921875 6.402344 9.679688 6.808594 C 9.4375 7.207031 9.316406 7.652344 9.316406 8.144531 Z M 10.441406 7.464844 C 10.441406 7.230469 10.527344 7.027344 10.699219 6.855469 C 10.871094 6.683594 11.070312 6.597656 11.296875 6.597656 C 11.53125 6.597656 11.730469 6.683594 11.894531 6.855469 C 12.066406 7.027344 12.152344 7.230469 12.152344 7.464844 C 12.152344 7.691406 12.066406 7.890625 11.894531 8.0625 C 11.730469 8.226562 11.53125 8.308594 11.296875 8.308594 C 11.070312 8.308594 10.871094 8.226562 10.699219 8.0625 C 10.535156 7.890625 10.449219 7.691406 10.441406 7.464844 Z M 10.441406 7.464844 "/>
</g>
</svg>
