<svg xmlns="http://www.w3.org/2000/svg" width="24" height="24"><path style="stroke:none;fill-rule:nonzero;fill:#fff;fill-opacity:1" d="M12 23.063c1.633 0 3.168-.293 4.605-.883a12.29 12.29 0 0 0 3.82-2.438 11.482 11.482 0 0 0 2.59-3.586c.626-1.36.938-2.804.938-4.343 0-1.536-.312-2.981-.937-4.336a11.514 11.514 0 0 0-2.59-3.594 12.22 12.22 0 0 0-3.82-2.438 12.166 12.166 0 0 0-4.618-.883c-1.633 0-3.172.293-4.617.883a12.307 12.307 0 0 0-3.809 2.438A11.523 11.523 0 0 0 .985 7.477a10.187 10.187 0 0 0-.937 4.335c0 1.54.312 2.985.937 4.344a11.438 11.438 0 0 0 2.59 3.586 12.307 12.307 0 0 0 3.809 2.438c1.445.59 2.984.883 4.617.883Zm.785-12.938L9.422 6.949c.164-.515.48-.937.95-1.27a2.689 2.689 0 0 1 1.605-.507c.492 0 .941.113 1.347.344.414.226.742.53.985.914.242.383.363.808.363 1.28 0 .567-.18 1.067-.54 1.513-.35.441-.8.742-1.347.902Zm-2.344-3.086c0 .211.094.414.258.559a.827.827 0 0 0 .59.246.83.83 0 0 0 .594-.246.749.749 0 0 0 .258-.563.761.761 0 0 0-.258-.562.82.82 0 0 0-.598-.243.876.876 0 0 0-.598.243.725.725 0 0 0-.246.566Zm.727 5.899 1.605 1.511v1.168c0 .543-.03 1.047-.093 1.512-.055.46-.14.836-.258 1.113-.117.281-.266.418-.445.418-.18 0-.329-.137-.446-.418-.117-.285-.207-.66-.27-1.125a10.668 10.668 0 0 1-.093-1.5Zm6.281 4.722-11.683-11a.428.428 0 0 1-.153-.34c0-.136.055-.265.153-.363a.568.568 0 0 1 .761 0L18.2 16.953c.11.102.164.219.164.352 0 .133-.054.25-.164.355a.522.522 0 0 1-.375.14.522.522 0 0 1-.375-.14Zm0 0"/></svg>