<?xml version="1.0" encoding="UTF-8"?>
<svg xmlns="http://www.w3.org/2000/svg" xmlns:xlink="http://www.w3.org/1999/xlink" width="24" height="22.5" viewBox="0 0 24 22.5" version="1.1">
<g id="surface1">
<path style=" stroke:none;fill-rule:nonzero;fill:rgb(100%,100%,100%);fill-opacity:1;" d="M 4.886719 21.84375 L 19.101562 21.84375 C 20.328125 21.84375 21.246094 21.539062 21.855469 20.929688 C 22.472656 20.328125 22.78125 19.421875 22.78125 18.210938 L 22.78125 3.902344 C 22.78125 2.691406 22.472656 1.785156 21.855469 1.183594 C 21.246094 0.574219 20.328125 0.269531 19.101562 0.269531 L 4.886719 0.269531 C 3.660156 0.269531 2.738281 0.574219 2.121094 1.183594 C 1.511719 1.785156 1.207031 2.691406 1.207031 3.902344 L 1.207031 18.210938 C 1.207031 19.421875 1.511719 20.328125 2.121094 20.929688 C 2.738281 21.539062 3.660156 21.84375 4.886719 21.84375 Z M 4.910156 19.957031 C 4.324219 19.957031 3.875 19.804688 3.5625 19.5 C 3.25 19.1875 3.09375 18.726562 3.09375 18.117188 L 3.09375 3.996094 C 3.09375 3.386719 3.25 2.929688 3.5625 2.625 C 3.875 2.3125 4.324219 2.15625 4.910156 2.15625 L 19.078125 2.15625 C 19.65625 2.15625 20.101562 2.3125 20.414062 2.625 C 20.734375 2.929688 20.894531 3.386719 20.894531 3.996094 L 20.894531 18.117188 C 20.894531 18.726562 20.734375 19.1875 20.414062 19.5 C 20.101562 19.804688 19.65625 19.957031 19.078125 19.957031 Z M 9.328125 6.644531 C 9.328125 7.238281 9.503906 7.769531 9.855469 8.238281 C 10.207031 8.699219 10.652344 9.015625 11.191406 9.1875 L 11.191406 15.070312 C 11.191406 15.640625 11.21875 16.175781 11.273438 16.675781 C 11.335938 17.167969 11.425781 17.566406 11.542969 17.871094 C 11.667969 18.167969 11.820312 18.316406 12 18.316406 C 12.179688 18.316406 12.328125 18.167969 12.445312 17.871094 C 12.5625 17.566406 12.648438 17.167969 12.703125 16.675781 C 12.765625 16.183594 12.796875 15.648438 12.796875 15.070312 L 12.796875 9.1875 C 13.34375 9.023438 13.792969 8.710938 14.144531 8.25 C 14.496094 7.78125 14.671875 7.246094 14.671875 6.644531 C 14.671875 6.152344 14.550781 5.707031 14.308594 5.308594 C 14.066406 4.902344 13.742188 4.578125 13.335938 4.335938 C 12.9375 4.09375 12.492188 3.972656 12 3.972656 C 11.507812 3.972656 11.058594 4.09375 10.652344 4.335938 C 10.253906 4.578125 9.933594 4.902344 9.691406 5.308594 C 9.449219 5.707031 9.328125 6.152344 9.328125 6.644531 Z M 10.453125 5.964844 C 10.453125 5.730469 10.539062 5.527344 10.710938 5.355469 C 10.882812 5.183594 11.082031 5.097656 11.308594 5.097656 C 11.542969 5.097656 11.742188 5.183594 11.90625 5.355469 C 12.078125 5.527344 12.164062 5.730469 12.164062 5.964844 C 12.164062 6.191406 12.078125 6.390625 11.90625 6.5625 C 11.742188 6.726562 11.542969 6.808594 11.308594 6.808594 C 11.082031 6.808594 10.882812 6.726562 10.710938 6.5625 C 10.546875 6.390625 10.460938 6.191406 10.453125 5.964844 Z M 10.453125 5.964844 "/>
</g>
</svg>
