<svg width="128" height="128" viewBox="0 0 128 128" fill="none" xmlns="http://www.w3.org/2000/svg">
<path d="M63.9375 127.625C72.6458 127.625 80.8333 125.958 88.5 122.625C96.2083 119.292 103 114.688 108.875 108.812C114.75 102.938 119.354 96.1667 122.688 88.5C126.021 80.7917 127.688 72.5833 127.688 63.875C127.688 55.1667 126.021 46.9792 122.688 39.3125C119.354 31.6042 114.75 24.8125 108.875 18.9375C103 13.0625 96.2083 8.45833 88.5 5.125C80.7917 1.79167 72.5833 0.125 63.875 0.125C55.1667 0.125 46.9583 1.79167 39.25 5.125C31.5833 8.45833 24.8125 13.0625 18.9375 18.9375C13.1042 24.8125 8.52083 31.6042 5.1875 39.3125C1.85417 46.9792 0.1875 55.1667 0.1875 63.875C0.1875 72.5833 1.85417 80.7917 5.1875 88.5C8.52083 96.1667 13.125 102.938 19 108.812C24.875 114.688 31.6458 119.292 39.3125 122.625C47.0208 125.958 55.2292 127.625 63.9375 127.625ZM63.9375 117C56.5625 117 49.6667 115.625 43.25 112.875C36.8333 110.125 31.1875 106.333 26.3125 101.5C21.4792 96.625 17.6875 90.9792 14.9375 84.5625C12.2292 78.1458 10.875 71.25 10.875 63.875C10.875 56.5 12.2292 49.6042 14.9375 43.1875C17.6875 36.7708 21.4792 31.125 26.3125 26.25C31.1458 21.375 36.7708 17.5833 43.1875 14.875C49.6042 12.125 56.5 10.75 63.875 10.75C71.25 10.75 78.1458 12.125 84.5625 14.875C91.0208 17.5833 96.6667 21.375 101.5 26.25C106.375 31.125 110.188 36.7708 112.938 43.1875C115.688 49.6042 117.062 56.5 117.062 63.875C117.062 71.25 115.688 78.1458 112.938 84.5625C110.229 90.9792 106.438 96.625 101.562 101.5C96.6875 106.333 91.0417 110.125 84.625 112.875C78.2083 115.625 71.3125 117 63.9375 117ZM68.125 54.3125C71.0417 53.3958 73.4375 51.6875 75.3125 49.1875C77.2292 46.6875 78.1875 43.8333 78.1875 40.625C78.1875 37.9583 77.5417 35.5417 76.25 33.375C74.9583 31.2083 73.2083 29.4792 71 28.1875C68.8333 26.8958 66.4375 26.25 63.8125 26.25C60.6042 26.25 57.75 27.2083 55.25 29.125C52.75 31 51.0625 33.3958 50.1875 36.3125L68.125 54.3125ZM55.625 36.8125C55.5833 35.6042 56.0208 34.5417 56.9375 33.625C57.8958 32.7083 58.9583 32.25 60.125 32.25C61.375 32.25 62.4375 32.7083 63.3125 33.625C64.2292 34.5417 64.6875 35.6042 64.6875 36.8125C64.6875 38.0208 64.2292 39.0833 63.3125 40C62.4375 40.9167 61.375 41.375 60.125 41.375C58.9583 41.375 57.9167 40.9167 57 40C56.0833 39.0833 55.625 38.0208 55.625 36.8125ZM59.5 70.25V85.4375C59.5 88.4792 59.6667 91.3125 60 93.9375C60.3333 96.5625 60.8125 98.6875 61.4375 100.312C62.0625 101.896 62.8542 102.688 63.8125 102.688C64.7708 102.688 65.5625 101.896 66.1875 100.312C66.8125 98.7292 67.2708 96.625 67.5625 94C67.8958 91.375 68.0625 88.5208 68.0625 85.4375V78.8125L59.5 70.25ZM93 97C93.5417 97.5417 94.2083 97.8125 95 97.8125C95.7917 97.8125 96.4583 97.5417 97 97C97.5833 96.4167 97.875 95.75 97.875 95C97.875 94.25 97.5833 93.5833 97 93L34.75 30.6875C34.1667 30.1458 33.4792 29.875 32.6875 29.875C31.9375 29.875 31.2708 30.1458 30.6875 30.6875C30.1458 31.2708 29.875 31.9583 29.875 32.75C29.875 33.5417 30.1458 34.1875 30.6875 34.6875L93 97Z" fill="white"/>
</svg>
