<svg width="16" height="17" viewBox="0 0 16 17" fill="none" xmlns="http://www.w3.org/2000/svg">
<path d="M8 16.3359C9.08854 16.3359 10.112 16.1276 11.0703 15.7109C12.0339 15.2943 12.8828 14.7188 13.6172 13.9844C14.3516 13.25 14.9271 12.4036 15.3438 11.4453C15.7604 10.4818 15.9688 9.45573 15.9688 8.36719C15.9688 7.27865 15.7604 6.25521 15.3438 5.29688C14.9271 4.33333 14.3516 3.48438 13.6172 2.75C12.8828 2.01562 12.0339 1.4401 11.0703 1.02344C10.1068 0.606771 9.08073 0.398438 7.99219 0.398438C6.90365 0.398438 5.8776 0.606771 4.91406 1.02344C3.95573 1.4401 3.10938 2.01562 2.375 2.75C1.64583 3.48438 1.07292 4.33333 0.65625 5.29688C0.239583 6.25521 0.03125 7.27865 0.03125 8.36719C0.03125 9.45573 0.239583 10.4818 0.65625 11.4453C1.07292 12.4036 1.64844 13.25 2.38281 13.9844C3.11719 14.7188 3.96354 15.2943 4.92188 15.7109C5.88542 16.1276 6.91146 16.3359 8 16.3359ZM8.52344 7.17188L6.28125 4.92188C6.39062 4.55729 6.60156 4.25781 6.91406 4.02344C7.22656 3.78385 7.58333 3.66406 7.98438 3.66406C8.3125 3.66406 8.61198 3.74479 8.88281 3.90625C9.15885 4.06771 9.3776 4.28385 9.53906 4.55469C9.70052 4.82552 9.78125 5.1276 9.78125 5.46094C9.78125 5.86198 9.66146 6.21875 9.42188 6.53125C9.1875 6.84375 8.88802 7.05729 8.52344 7.17188ZM6.96094 4.98438C6.96094 5.13542 7.01823 5.26823 7.13281 5.38281C7.2474 5.4974 7.3776 5.55469 7.52344 5.55469C7.67969 5.55469 7.8125 5.4974 7.92188 5.38281C8.03646 5.26823 8.09375 5.13542 8.09375 4.98438C8.09375 4.83333 8.03646 4.70052 7.92188 4.58594C7.8125 4.47135 7.67969 4.41406 7.52344 4.41406C7.3776 4.41406 7.24479 4.47135 7.125 4.58594C7.01042 4.70052 6.95573 4.83333 6.96094 4.98438ZM7.44531 9.16406L8.51562 10.2344V11.0625C8.51562 11.4479 8.49479 11.8047 8.45312 12.1328C8.41667 12.4609 8.35938 12.724 8.28125 12.9219C8.20312 13.1198 8.10417 13.2188 7.98438 13.2188C7.86458 13.2188 7.76562 13.1198 7.6875 12.9219C7.60938 12.7188 7.54948 12.4531 7.50781 12.125C7.46615 11.7969 7.44531 11.4427 7.44531 11.0625V9.16406ZM11.6328 12.5078L3.84375 4.71875C3.77604 4.65625 3.74219 4.57552 3.74219 4.47656C3.74219 4.3776 3.77604 4.29167 3.84375 4.21875C3.91667 4.15104 4 4.11719 4.09375 4.11719C4.19271 4.11719 4.27865 4.15104 4.35156 4.21875L12.1328 12.0078C12.2057 12.0807 12.2422 12.1641 12.2422 12.2578C12.2422 12.3516 12.2057 12.4349 12.1328 12.5078C12.0651 12.5755 11.9818 12.6094 11.8828 12.6094C11.7839 12.6094 11.7005 12.5755 11.6328 12.5078Z" fill="white"/>
</svg>
