<svg xmlns="http://www.w3.org/2000/svg" width="24" height="24"><path style="stroke:none;fill-rule:nonzero;fill:#fff;fill-opacity:1" d="M4.887 23.3h14.215c1.226 0 2.144-.323 2.753-.976.618-.64.926-1.605.926-2.898V4.164c0-1.293-.308-2.258-.926-2.898-.609-.653-1.527-.977-2.753-.977H4.887c-1.227 0-2.149.324-2.766.977-.61.64-.914 1.605-.914 2.898v15.262c0 1.293.305 2.258.914 2.902.617.649 1.54.973 2.766.973Zm.023-2.01c-.586 0-1.035-.165-1.348-.49-.312-.335-.468-.823-.468-1.476V4.262c0-.649.156-1.137.469-1.461.312-.336.761-.5 1.347-.5h14.168c.578 0 1.024.164 1.336.5.32.324.48.812.48 1.46v15.063c0 .653-.16 1.14-.48 1.477-.312.324-.758.488-1.336.488Zm4.418-14.2c0 .629.176 1.2.527 1.7.352.487.797.827 1.336 1.01v6.274c0 .61.028 1.18.082 1.715.063.523.153.95.27 1.273.125.317.277.473.457.473s.328-.156.445-.473c.117-.324.203-.75.258-1.273.063-.527.094-1.098.094-1.715V9.801a2.614 2.614 0 0 0 1.348-1 2.908 2.908 0 0 0 .527-1.711c0-.527-.121-1.004-.363-1.426a2.86 2.86 0 0 0-.973-1.039A2.408 2.408 0 0 0 12 4.238c-.492 0-.941.13-1.348.387a2.926 2.926 0 0 0-.96 1.04c-.243.429-.372.92-.364 1.425Zm1.125-.727c0-.25.086-.468.258-.652a.797.797 0 0 1 .598-.274c.234 0 .433.094.597.274a.927.927 0 0 1 .258.644.927.927 0 0 1-.258.645.785.785 0 0 1-.597.262A.812.812 0 0 1 10.71 7a.978.978 0 0 1-.258-.637Zm0 0"/></svg>