<svg width="6" height="18" viewBox="0 0 6 18" fill="none" xmlns="http://www.w3.org/2000/svg">
<path d="M0.0625 3.72656C0.0625 4.1849 0.15625 4.60938 0.34375 5C0.536458 5.39062 0.799479 5.72396 1.13281 6C1.46615 6.27604 1.84375 6.46615 2.26562 6.57031V13.8203C2.26562 14.3984 2.28906 14.9062 2.33594 15.3438C2.38281 15.7865 2.44271 16.1589 2.51562 16.4609C2.58854 16.763 2.66667 16.9922 2.75 17.1484C2.83333 17.3047 2.91406 17.3828 2.99219 17.3828C3.07031 17.3828 3.15104 17.3047 3.23438 17.1484C3.32292 16.9974 3.40104 16.7708 3.46875 16.4688C3.54167 16.1667 3.60156 15.7943 3.64844 15.3516C3.69531 14.9089 3.71875 14.3984 3.71875 13.8203V6.57031C4.14062 6.46615 4.51823 6.27604 4.85156 6C5.1849 5.72396 5.44792 5.39062 5.64062 5C5.83333 4.60938 5.92969 4.1849 5.92969 3.72656C5.92969 3.1849 5.79688 2.69271 5.53125 2.25C5.27083 1.80208 4.91927 1.44531 4.47656 1.17969C4.03385 0.914062 3.53906 0.78125 2.99219 0.78125C2.45052 0.78125 1.95833 0.914062 1.51562 1.17969C1.07292 1.44531 0.71875 1.80208 0.453125 2.25C0.192708 2.69271 0.0625 3.1849 0.0625 3.72656ZM2.14844 3.88281C1.88281 3.88281 1.64844 3.78385 1.44531 3.58594C1.2474 3.38281 1.14844 3.14583 1.14844 2.875C1.14844 2.60417 1.2474 2.36979 1.44531 2.17188C1.64844 1.97396 1.88281 1.875 2.14844 1.875C2.42448 1.875 2.66146 1.97396 2.85938 2.17188C3.05729 2.36979 3.15625 2.60417 3.15625 2.875C3.15625 3.14583 3.05729 3.38281 2.85938 3.58594C2.66146 3.78385 2.42448 3.88281 2.14844 3.88281Z" fill="white"/>
</svg>
