<?xml version="1.0" encoding="UTF-8"?>
<svg xmlns="http://www.w3.org/2000/svg" xmlns:xlink="http://www.w3.org/1999/xlink" width="24" height="25.5" viewBox="0 0 24 25.5" version="1.1">
<g id="surface1">
<path style=" stroke:none;fill-rule:nonzero;fill:rgb(100%,100%,100%);fill-opacity:1;" d="M 12 24.503906 C 13.632812 24.503906 15.167969 24.191406 16.605469 23.566406 C 18.050781 22.941406 19.324219 22.078125 20.425781 20.976562 C 21.527344 19.875 22.390625 18.605469 23.015625 17.167969 C 23.640625 15.722656 23.953125 14.183594 23.953125 12.550781 C 23.953125 10.917969 23.640625 9.382812 23.015625 7.945312 C 22.390625 6.5 21.527344 5.226562 20.425781 4.125 C 19.324219 3.023438 18.050781 2.160156 16.605469 1.535156 C 15.160156 0.910156 13.621094 0.597656 11.988281 0.597656 C 10.355469 0.597656 8.816406 0.910156 7.371094 1.535156 C 5.933594 2.160156 4.664062 3.023438 3.5625 4.125 C 2.46875 5.226562 1.609375 6.5 0.984375 7.945312 C 0.359375 9.382812 0.046875 10.917969 0.046875 12.550781 C 0.046875 14.183594 0.359375 15.722656 0.984375 17.167969 C 1.609375 18.605469 2.472656 19.875 3.574219 20.976562 C 4.675781 22.078125 5.945312 22.941406 7.382812 23.566406 C 8.828125 24.191406 10.367188 24.503906 12 24.503906 Z M 9.234375 8.027344 C 9.234375 7.519531 9.359375 7.058594 9.609375 6.644531 C 9.859375 6.230469 10.191406 5.898438 10.605469 5.648438 C 11.027344 5.398438 11.492188 5.273438 12 5.273438 C 12.507812 5.273438 12.96875 5.398438 13.382812 5.648438 C 13.804688 5.898438 14.140625 6.230469 14.390625 6.644531 C 14.640625 7.058594 14.765625 7.519531 14.765625 8.027344 C 14.765625 8.652344 14.582031 9.203125 14.214844 9.679688 C 13.847656 10.15625 13.386719 10.480469 12.832031 10.652344 L 12.832031 16.699219 C 12.832031 17.300781 12.800781 17.859375 12.738281 18.375 C 12.675781 18.882812 12.582031 19.292969 12.457031 19.605469 C 12.339844 19.910156 12.1875 20.0625 12 20.0625 C 11.8125 20.0625 11.65625 19.90625 11.53125 19.59375 C 11.40625 19.28125 11.3125 18.871094 11.25 18.363281 C 11.1875 17.847656 11.15625 17.292969 11.15625 16.699219 L 11.15625 10.652344 C 10.601562 10.472656 10.140625 10.144531 9.773438 9.667969 C 9.414062 9.191406 9.234375 8.644531 9.234375 8.027344 Z M 10.40625 7.324219 C 10.414062 7.558594 10.503906 7.765625 10.675781 7.945312 C 10.855469 8.117188 11.058594 8.203125 11.285156 8.203125 C 11.527344 8.203125 11.734375 8.117188 11.90625 7.945312 C 12.078125 7.765625 12.164062 7.558594 12.164062 7.324219 C 12.164062 7.089844 12.078125 6.882812 11.90625 6.703125 C 11.734375 6.523438 11.527344 6.433594 11.285156 6.433594 C 11.058594 6.433594 10.855469 6.523438 10.675781 6.703125 C 10.496094 6.882812 10.40625 7.089844 10.40625 7.324219 Z M 10.40625 7.324219 "/>
</g>
</svg>
