<svg width="16" height="17" viewBox="0 0 16 17" fill="none" xmlns="http://www.w3.org/2000/svg">
<path d="M8 16.3359C9.08854 16.3359 10.112 16.1276 11.0703 15.7109C12.0339 15.2943 12.8828 14.7188 13.6172 13.9844C14.3516 13.25 14.9271 12.4036 15.3438 11.4453C15.7604 10.4818 15.9688 9.45573 15.9688 8.36719C15.9688 7.27865 15.7604 6.25521 15.3438 5.29688C14.9271 4.33333 14.3516 3.48438 13.6172 2.75C12.8828 2.01562 12.0339 1.4401 11.0703 1.02344C10.1068 0.606771 9.08073 0.398438 7.99219 0.398438C6.90365 0.398438 5.8776 0.606771 4.91406 1.02344C3.95573 1.4401 3.10938 2.01562 2.375 2.75C1.64583 3.48438 1.07292 4.33333 0.65625 5.29688C0.239583 6.25521 0.03125 7.27865 0.03125 8.36719C0.03125 9.45573 0.239583 10.4818 0.65625 11.4453C1.07292 12.4036 1.64844 13.25 2.38281 13.9844C3.11719 14.7188 3.96354 15.2943 4.92188 15.7109C5.88542 16.1276 6.91146 16.3359 8 16.3359ZM6.15625 5.35156C6.15625 5.01302 6.23958 4.70573 6.40625 4.42969C6.57292 4.15365 6.79427 3.93229 7.07031 3.76562C7.35156 3.59896 7.66146 3.51562 8 3.51562C8.33854 3.51562 8.64583 3.59896 8.92188 3.76562C9.20312 3.93229 9.42708 4.15365 9.59375 4.42969C9.76042 4.70573 9.84375 5.01302 9.84375 5.35156C9.84375 5.76823 9.72135 6.13542 9.47656 6.45312C9.23177 6.77083 8.92448 6.98698 8.55469 7.10156V11.1328C8.55469 11.5339 8.53385 11.9062 8.49219 12.25C8.45052 12.5885 8.38802 12.862 8.30469 13.0703C8.22656 13.2734 8.125 13.375 8 13.375C7.875 13.375 7.77083 13.2708 7.6875 13.0625C7.60417 12.8542 7.54167 12.5807 7.5 12.2422C7.45833 11.8984 7.4375 11.5286 7.4375 11.1328V7.10156C7.06771 6.98177 6.76042 6.76302 6.51562 6.44531C6.27604 6.1276 6.15625 5.76302 6.15625 5.35156ZM6.9375 4.88281C6.94271 5.03906 7.0026 5.17708 7.11719 5.29688C7.23698 5.41146 7.3724 5.46875 7.52344 5.46875C7.6849 5.46875 7.82292 5.41146 7.9375 5.29688C8.05208 5.17708 8.10938 5.03906 8.10938 4.88281C8.10938 4.72656 8.05208 4.58854 7.9375 4.46875C7.82292 4.34896 7.6849 4.28906 7.52344 4.28906C7.3724 4.28906 7.23698 4.34896 7.11719 4.46875C6.9974 4.58854 6.9375 4.72656 6.9375 4.88281Z" fill="white"/>
</svg>
