<svg xmlns="http://www.w3.org/2000/svg" width="24" height="24"><path style="stroke:none;fill-rule:nonzero;fill:#fff;fill-opacity:1" d="M.25 4.969c0 .61.375 1.176 1.125 1.699.754.512 1.832.969 3.156 1.332 1.317.367 2.867.625 4.532.762v9.664c0 .773.093 1.449.28 2.031.188.59.427 1.09.72 1.492.292.403.605.707.937.914.332.211.656.313.969.313.312 0 .636-.102.969-.313.355-.199.667-.504.937-.906.293-.402.531-.898.719-1.488.187-.59.281-1.27.281-2.043V8.762c1.664-.137 3.215-.395 4.531-.762 1.324-.363 2.403-.82 3.157-1.332.769-.523 1.156-1.09 1.156-1.7 0-.722-.532-1.378-1.594-1.968-1.016-.59-2.469-1.078-4.219-1.426-1.77-.355-3.75-.531-5.937-.531-2.168 0-4.137.176-5.906.531-1.754.348-3.215.84-4.25 1.426C.77 3.59.25 4.246.25 4.969Zm8.344.207c-1.063 0-2-.13-2.813-.395-.793-.27-1.187-.586-1.187-.949 0-.36.394-.672 1.187-.937.813-.262 1.75-.395 2.813-.395 1.105 0 2.05.133 2.844.395.792.265 1.187.578 1.187.937 0 .363-.395.68-1.188.95-.792.265-1.738.394-2.843.394Zm0 0"/></svg>