<svg xmlns="http://www.w3.org/2000/svg" width="24" height="24"><path style="stroke:none;fill-rule:nonzero;fill:#fff;fill-opacity:1" d="M4.887 23.3h14.215c1.226 0 2.144-.323 2.753-.976.618-.64.926-1.605.926-2.898V4.164c0-1.293-.308-2.258-.926-2.898-.609-.653-1.527-.977-2.753-.977H4.887c-1.227 0-2.149.324-2.766.977-.61.64-.914 1.605-.914 2.898v15.262c0 1.293.305 2.258.914 2.902.617.649 1.54.973 2.766.973ZM9.234 6.938c0-.542.125-1.035.375-1.476.25-.441.582-.793.996-1.063A2.565 2.565 0 0 1 12 4c.508 0 .969.133 1.383.398.422.27.758.622 1.008 1.063.25.441.375.934.375 1.476 0 .668-.184 1.254-.551 1.762-.367.508-.828.856-1.383 1.04v6.448c0 .641-.031 1.239-.094 1.79-.062.539-.156.976-.281 1.312-.117.324-.27.484-.457.484-.188 0-.344-.164-.469-.5-.125-.332-.219-.77-.281-1.312a14.898 14.898 0 0 1-.094-1.773v-6.45a2.82 2.82 0 0 1-1.383-1.05 2.947 2.947 0 0 1-.539-1.75Zm1.172-.75c.008.25.106.485.27.66a.82.82 0 0 0 1.23 0 .958.958 0 0 0 .258-.66.974.974 0 0 0-.258-.664.805.805 0 0 0-.62-.285c-.227 0-.43.094-.61.285a.943.943 0 0 0-.27.665Zm0 0"/></svg>