<?xml version="1.0" encoding="UTF-8"?>
<svg xmlns="http://www.w3.org/2000/svg" xmlns:xlink="http://www.w3.org/1999/xlink" width="24" height="33.230769" viewBox="0 0 24 33.230769" version="1.1">
<g id="surface1">
<path style=" stroke:none;fill-rule:nonzero;fill:rgb(100%,100%,100%);fill-opacity:1;" d="M 7.515625 6.878906 C 7.515625 7.726562 7.6875 8.507812 8.035156 9.230469 C 8.390625 9.953125 8.875 10.566406 9.492188 11.078125 C 10.105469 11.585938 10.804688 11.9375 11.582031 12.128906 L 11.582031 13.890625 L 14.265625 16.570312 L 14.265625 12.128906 C 15.042969 11.9375 15.742188 11.585938 16.355469 11.078125 C 16.972656 10.566406 17.457031 9.953125 17.8125 9.230469 C 18.167969 8.507812 18.347656 7.726562 18.347656 6.878906 C 18.347656 5.878906 18.101562 4.972656 17.609375 4.152344 C 17.128906 3.328125 16.480469 2.667969 15.664062 2.179688 C 14.847656 1.6875 13.933594 1.441406 12.921875 1.441406 C 11.921875 1.441406 11.015625 1.6875 10.195312 2.179688 C 9.378906 2.667969 8.726562 3.328125 8.234375 4.152344 C 7.753906 4.972656 7.515625 5.878906 7.515625 6.878906 Z M 11.582031 25.515625 C 11.582031 26.582031 11.625 27.519531 11.710938 28.328125 C 11.796875 29.144531 11.910156 29.832031 12.042969 30.390625 C 12.179688 30.945312 12.320312 31.371094 12.476562 31.660156 C 12.628906 31.945312 12.777344 32.089844 12.921875 32.089844 C 13.105469 32.089844 13.296875 31.871094 13.5 31.429688 C 13.710938 30.984375 13.890625 30.339844 14.035156 29.496094 C 14.179688 28.660156 14.25 27.644531 14.25 26.453125 L 14.25 24.445312 L 11.582031 21.777344 Z M 11.367188 7.167969 C 10.875 7.167969 10.441406 6.984375 10.066406 6.621094 C 9.703125 6.246094 9.519531 5.808594 9.519531 5.308594 C 9.519531 4.808594 9.703125 4.375 10.066406 4.007812 C 10.441406 3.644531 10.875 3.460938 11.367188 3.460938 C 11.875 3.460938 12.3125 3.644531 12.679688 4.007812 C 13.042969 4.375 13.226562 4.808594 13.226562 5.308594 C 13.226562 5.808594 13.042969 6.246094 12.679688 6.621094 C 12.3125 6.984375 11.875 7.167969 11.367188 7.167969 Z M 21.679688 29.480469 C 21.898438 29.703125 22.164062 29.8125 22.472656 29.8125 C 22.777344 29.8125 23.039062 29.703125 23.25 29.480469 C 23.460938 29.269531 23.566406 29.007812 23.566406 28.703125 C 23.578125 28.394531 23.472656 28.128906 23.25 27.910156 L 3.128906 7.804688 C 2.917969 7.589844 2.652344 7.484375 2.335938 7.484375 C 2.019531 7.484375 1.753906 7.589844 1.542969 7.804688 C 1.332031 8.015625 1.226562 8.277344 1.226562 8.597656 C 1.226562 8.902344 1.332031 9.164062 1.542969 9.375 Z M 21.679688 29.480469 "/>
</g>
</svg>
