<svg width="16" height="15" viewBox="0 0 16 15" fill="none" xmlns="http://www.w3.org/2000/svg">
<path d="M3.25781 14.5625H12.7344C13.5521 14.5625 14.1641 14.3594 14.5703 13.9531C14.9818 13.5521 15.1875 12.9479 15.1875 12.1406V2.60156C15.1875 1.79427 14.9818 1.1901 14.5703 0.789062C14.1641 0.382812 13.5521 0.179688 12.7344 0.179688H3.25781C2.4401 0.179688 1.82552 0.382812 1.41406 0.789062C1.00781 1.1901 0.804688 1.79427 0.804688 2.60156V12.1406C0.804688 12.9479 1.00781 13.5521 1.41406 13.9531C1.82552 14.3594 2.4401 14.5625 3.25781 14.5625ZM6.15625 4.33594C6.15625 3.9974 6.23958 3.6901 6.40625 3.41406C6.57292 3.13802 6.79427 2.91667 7.07031 2.75C7.35156 2.58333 7.66146 2.5 8 2.5C8.33854 2.5 8.64583 2.58333 8.92188 2.75C9.20312 2.91667 9.42708 3.13802 9.59375 3.41406C9.76042 3.6901 9.84375 3.9974 9.84375 4.33594C9.84375 4.7526 9.72135 5.11979 9.47656 5.4375C9.23177 5.75521 8.92448 5.97135 8.55469 6.08594V10.1172C8.55469 10.5182 8.53385 10.8906 8.49219 11.2344C8.45052 11.5729 8.38802 11.8464 8.30469 12.0547C8.22656 12.2578 8.125 12.3594 8 12.3594C7.875 12.3594 7.77083 12.2552 7.6875 12.0469C7.60417 11.8385 7.54167 11.5651 7.5 11.2266C7.45833 10.8828 7.4375 10.513 7.4375 10.1172V6.08594C7.06771 5.96615 6.76042 5.7474 6.51562 5.42969C6.27604 5.11198 6.15625 4.7474 6.15625 4.33594ZM6.9375 3.86719C6.94271 4.02344 7.0026 4.16146 7.11719 4.28125C7.23698 4.39583 7.3724 4.45312 7.52344 4.45312C7.6849 4.45312 7.82292 4.39583 7.9375 4.28125C8.05208 4.16146 8.10938 4.02344 8.10938 3.86719C8.10938 3.71094 8.05208 3.57292 7.9375 3.45312C7.82292 3.33333 7.6849 3.27344 7.52344 3.27344C7.3724 3.27344 7.23698 3.33333 7.11719 3.45312C6.9974 3.57292 6.9375 3.71094 6.9375 3.86719Z" fill="white"/>
</svg>
