<svg width="116" height="116" viewBox="0 0 116 116" fill="none" xmlns="http://www.w3.org/2000/svg">
<path d="M20.5625 115.5H96.375C102.917 115.5 107.812 113.875 111.062 110.625C114.354 107.417 116 102.583 116 96.125V19.8125C116 13.3542 114.354 8.52083 111.062 5.3125C107.812 2.0625 102.917 0.4375 96.375 0.4375H20.5625C14.0208 0.4375 9.10417 2.0625 5.8125 5.3125C2.5625 8.52083 0.9375 13.3542 0.9375 19.8125V96.125C0.9375 102.583 2.5625 107.417 5.8125 110.625C9.10417 113.875 14.0208 115.5 20.5625 115.5ZM43.75 33.6875C43.75 30.9792 44.4167 28.5208 45.75 26.3125C47.0833 24.1042 48.8542 22.3333 51.0625 21C53.3125 19.6667 55.7917 19 58.5 19C61.2083 19 63.6667 19.6667 65.875 21C68.125 22.3333 69.9167 24.1042 71.25 26.3125C72.5833 28.5208 73.25 30.9792 73.25 33.6875C73.25 37.0208 72.2708 39.9583 70.3125 42.5C68.3542 45.0417 65.8958 46.7708 62.9375 47.6875V79.9375C62.9375 83.1458 62.7708 86.125 62.4375 88.875C62.1042 91.5833 61.6042 93.7708 60.9375 95.4375C60.3125 97.0625 59.5 97.875 58.5 97.875C57.5 97.875 56.6667 97.0417 56 95.375C55.3333 93.7083 54.8333 91.5208 54.5 88.8125C54.1667 86.0625 54 83.1042 54 79.9375V47.6875C51.0417 46.7292 48.5833 44.9792 46.625 42.4375C44.7083 39.8958 43.75 36.9792 43.75 33.6875ZM50 29.9375C50.0417 31.1875 50.5208 32.2917 51.4375 33.25C52.3958 34.1667 53.4792 34.625 54.6875 34.625C55.9792 34.625 57.0833 34.1667 58 33.25C58.9167 32.2917 59.375 31.1875 59.375 29.9375C59.375 28.6875 58.9167 27.5833 58 26.625C57.0833 25.6667 55.9792 25.1875 54.6875 25.1875C53.4792 25.1875 52.3958 25.6667 51.4375 26.625C50.4792 27.5833 50 28.6875 50 29.9375Z" fill="white"/>
</svg>
