<svg width="16" height="17" viewBox="0 0 16 17" fill="none" xmlns="http://www.w3.org/2000/svg">
<path d="M8 16.3281C9.08854 16.3281 10.112 16.1198 11.0703 15.7031C12.0339 15.2865 12.8828 14.7109 13.6172 13.9766C14.3516 13.2422 14.9271 12.3958 15.3438 11.4375C15.7604 10.474 15.9688 9.44792 15.9688 8.35938C15.9688 7.27083 15.7604 6.2474 15.3438 5.28906C14.9271 4.32552 14.3516 3.47656 13.6172 2.74219C12.8828 2.00781 12.0339 1.43229 11.0703 1.01562C10.1068 0.598958 9.08073 0.390625 7.99219 0.390625C6.90365 0.390625 5.8776 0.598958 4.91406 1.01562C3.95573 1.43229 3.10938 2.00781 2.375 2.74219C1.64583 3.47656 1.07292 4.32552 0.65625 5.28906C0.239583 6.2474 0.03125 7.27083 0.03125 8.35938C0.03125 9.44792 0.239583 10.474 0.65625 11.4375C1.07292 12.3958 1.64844 13.2422 2.38281 13.9766C3.11719 14.7109 3.96354 15.2865 4.92188 15.7031C5.88542 16.1198 6.91146 16.3281 8 16.3281ZM8 15C7.07812 15 6.21615 14.8281 5.41406 14.4844C4.61198 14.1406 3.90625 13.6667 3.29688 13.0625C2.69271 12.4531 2.21875 11.7474 1.875 10.9453C1.53646 10.1432 1.36719 9.28125 1.36719 8.35938C1.36719 7.4375 1.53646 6.57552 1.875 5.77344C2.21875 4.97135 2.69271 4.26562 3.29688 3.65625C3.90104 3.04688 4.60417 2.57292 5.40625 2.23438C6.20833 1.89062 7.07031 1.71875 7.99219 1.71875C8.91406 1.71875 9.77604 1.89062 10.5781 2.23438C11.3854 2.57292 12.0911 3.04688 12.6953 3.65625C13.3047 4.26562 13.7812 4.97135 14.125 5.77344C14.4688 6.57552 14.6406 7.4375 14.6406 8.35938C14.6406 9.28125 14.4688 10.1432 14.125 10.9453C13.7865 11.7474 13.3125 12.4531 12.7031 13.0625C12.0938 13.6667 11.388 14.1406 10.5859 14.4844C9.78385 14.8281 8.92188 15 8 15ZM8.52344 7.16406C8.88802 7.04948 9.1875 6.83594 9.42188 6.52344C9.66146 6.21094 9.78125 5.85417 9.78125 5.45312C9.78125 5.11979 9.70052 4.81771 9.53906 4.54688C9.3776 4.27604 9.15885 4.0599 8.88281 3.89844C8.61198 3.73698 8.3125 3.65625 7.98438 3.65625C7.58333 3.65625 7.22656 3.77604 6.91406 4.01562C6.60156 4.25 6.39062 4.54948 6.28125 4.91406L8.52344 7.16406ZM6.96094 4.97656C6.95573 4.82552 7.01042 4.69271 7.125 4.57812C7.24479 4.46354 7.3776 4.40625 7.52344 4.40625C7.67969 4.40625 7.8125 4.46354 7.92188 4.57812C8.03646 4.69271 8.09375 4.82552 8.09375 4.97656C8.09375 5.1276 8.03646 5.26042 7.92188 5.375C7.8125 5.48958 7.67969 5.54688 7.52344 5.54688C7.3776 5.54688 7.2474 5.48958 7.13281 5.375C7.01823 5.26042 6.96094 5.1276 6.96094 4.97656ZM7.44531 9.15625V11.0547C7.44531 11.4349 7.46615 11.7891 7.50781 12.1172C7.54948 12.4453 7.60938 12.7109 7.6875 12.9141C7.76562 13.112 7.86458 13.2109 7.98438 13.2109C8.10417 13.2109 8.20312 13.112 8.28125 12.9141C8.35938 12.7161 8.41667 12.4531 8.45312 12.125C8.49479 11.7969 8.51562 11.4401 8.51562 11.0547V10.2266L7.44531 9.15625ZM11.6328 12.5C11.7005 12.5677 11.7839 12.6016 11.8828 12.6016C11.9818 12.6016 12.0651 12.5677 12.1328 12.5C12.2057 12.4271 12.2422 12.3438 12.2422 12.25C12.2422 12.1562 12.2057 12.0729 12.1328 12L4.35156 4.21094C4.27865 4.14323 4.19271 4.10938 4.09375 4.10938C4 4.10938 3.91667 4.14323 3.84375 4.21094C3.77604 4.28385 3.74219 4.36979 3.74219 4.46875C3.74219 4.56771 3.77604 4.64844 3.84375 4.71094L11.6328 12.5Z" fill="white"/>
</svg>
