<svg xmlns="http://www.w3.org/2000/svg" width="24" height="24"><path style="stroke:none;fill-rule:nonzero;fill:#fff;fill-opacity:1" d="M7.594 4.969c0 .61.14 1.176.422 1.699.289.52.683.965 1.183 1.332.5.367 1.067.621 1.7.762v6.593c0 .77.035 1.45.105 2.04.07.59.16 1.09.27 1.492.109.402.226.707.351.914.125.203.246.304.363.304.117 0 .239-.101.364-.304.132-.207.25-.512.351-.914.11-.403.2-.903.27-1.492.07-.59.105-1.27.105-2.04V8.762a4.417 4.417 0 0 0 1.7-.762c.5-.367.894-.813 1.183-1.332.289-.523.434-1.09.434-1.7 0-.722-.2-1.378-.598-1.968a4.203 4.203 0 0 0-1.582-1.426 4.637 4.637 0 0 0-2.227-.531c-.812 0-1.55.176-2.215.531A4.332 4.332 0 0 0 8.18 3a3.518 3.518 0 0 0-.586 1.969Zm3.14.207c-.398 0-.75-.13-1.054-.395-.285-.25-.45-.59-.446-.949 0-.36.149-.672.446-.937a1.56 1.56 0 0 1 1.054-.395c.414 0 .77.133 1.067.395.297.265.445.578.445.937 0 .363-.148.68-.445.95a1.528 1.528 0 0 1-1.067.394ZM12 23.918c1.766 0 3.336-.125 4.71-.375 1.384-.246 2.552-.578 3.505-1 .953-.418 1.676-.895 2.168-1.43.492-.527.738-1.078.738-1.656a2.42 2.42 0 0 0-.527-1.508c-.344-.465-.809-.879-1.395-1.242a9.836 9.836 0 0 0-1.957-.914 12.902 12.902 0 0 0-2.18-.586A11.181 11.181 0 0 0 14.989 15v1.52c.57.007 1.184.082 1.84.218.649.13 1.281.313 1.887.555.594.234 1.082.516 1.465.844.383.324.574.683.574 1.07 0 .453-.219.863-.656 1.23-.438.375-1.051.7-1.84.97-.781.277-1.707.488-2.778.636a24.685 24.685 0 0 1-3.48.227c-1.266 0-2.434-.075-3.504-.227-1.062-.148-1.988-.355-2.777-.625-.782-.273-1.39-.594-1.828-.969-.43-.375-.645-.789-.645-1.242 0-.387.188-.746.563-1.07.382-.328.87-.61 1.464-.844a10.694 10.694 0 0 1 1.887-.555A9.99 9.99 0 0 1 9 16.52V15c-.64 0-1.332.07-2.074.207-.735.133-1.461.328-2.18.586-.71.246-1.36.555-1.945.914a5.125 5.125 0 0 0-1.406 1.242 2.404 2.404 0 0 0-.528 1.508c0 .578.246 1.129.738 1.656.5.535 1.227 1.012 2.18 1.43.953.422 2.117.754 3.492 1 1.383.25 2.957.375 4.723.375Zm0 0"/></svg>