<svg width="119" height="138" viewBox="0 0 119 138" fill="none" xmlns="http://www.w3.org/2000/svg">
<path d="M36.0625 23.8125C36.0625 27.4792 36.8125 30.875 38.3125 34C39.8542 37.125 41.9583 39.7917 44.625 42C47.2917 44.2083 50.3125 45.7292 53.6875 46.5625V86.125C53.6875 90.75 53.875 94.8333 54.25 98.375C54.625 101.917 55.1042 104.896 55.6875 107.312C56.2708 109.729 56.8958 111.562 57.5625 112.812C58.2292 114.021 58.875 114.625 59.5 114.625C60.125 114.625 60.7708 114.021 61.4375 112.812C62.1458 111.562 62.7708 109.729 63.3125 107.312C63.8958 104.896 64.375 101.917 64.75 98.375C65.125 94.8333 65.3125 90.75 65.3125 86.125V46.5625C68.6875 45.7292 71.7083 44.2083 74.375 42C77.0417 39.7917 79.1458 37.125 80.6875 34C82.2292 30.875 83 27.4792 83 23.8125C83 19.4792 81.9375 15.5417 79.8125 12C77.7292 8.41667 74.9167 5.5625 71.375 3.4375C67.8333 1.3125 63.875 0.25 59.5 0.25C55.1667 0.25 51.2292 1.3125 47.6875 3.4375C44.1458 5.5625 41.3125 8.41667 39.1875 12C37.1042 15.5417 36.0625 19.4792 36.0625 23.8125ZM52.8125 25.0625C50.6875 25.0625 48.8125 24.2708 47.1875 22.6875C45.6042 21.0625 44.8125 19.1667 44.8125 17C44.8125 14.8333 45.6042 12.9583 47.1875 11.375C48.8125 9.79167 50.6875 9 52.8125 9C55.0208 9 56.9167 9.79167 58.5 11.375C60.0833 12.9583 60.875 14.8333 60.875 17C60.875 19.1667 60.0833 21.0625 58.5 22.6875C56.9167 24.2708 55.0208 25.0625 52.8125 25.0625ZM59.5625 137.5C68.9792 137.5 77.3542 136.75 84.6875 135.25C92.0625 133.792 98.2917 131.792 103.375 129.25C108.458 126.75 112.312 123.896 114.938 120.688C117.562 117.521 118.875 114.208 118.875 110.75C118.875 107.458 117.938 104.438 116.062 101.688C114.229 98.8958 111.75 96.4167 108.625 94.25C105.5 92.0833 102.021 90.25 98.1875 88.75C94.3958 87.2083 90.5208 86.0417 86.5625 85.25C82.6458 84.4167 78.9583 84 75.5 84V93.125C78.5417 93.1667 81.8125 93.6042 85.3125 94.4375C88.8542 95.2292 92.2083 96.3333 95.375 97.75C98.5417 99.1667 101.146 100.854 103.188 102.812C105.229 104.771 106.25 106.917 106.25 109.25C106.25 111.958 105.083 114.417 102.75 116.625C100.417 118.875 97.1458 120.812 92.9375 122.438C88.7708 124.104 83.8333 125.375 78.125 126.25C72.4583 127.167 66.2708 127.625 59.5625 127.625C52.8125 127.625 46.5833 127.167 40.875 126.25C35.2083 125.375 30.2708 124.125 26.0625 122.5C21.8958 120.875 18.6458 118.938 16.3125 116.688C14.0208 114.438 12.875 111.958 12.875 109.25C12.875 106.917 13.875 104.771 15.875 102.812C17.9167 100.854 20.5208 99.1667 23.6875 97.75C26.8542 96.3333 30.2083 95.2292 33.75 94.4375C37.2917 93.6042 40.5625 93.1667 43.5625 93.125V84C40.1458 84 36.4583 84.4167 32.5 85.25C28.5833 86.0417 24.7083 87.2083 20.875 88.75C17.0833 90.25 13.625 92.0833 10.5 94.25C7.375 96.4167 4.875 98.8958 3 101.688C1.125 104.438 0.1875 107.458 0.1875 110.75C0.1875 114.208 1.5 117.521 4.125 120.688C6.79167 123.896 10.6667 126.75 15.75 129.25C20.8333 131.792 27.0417 133.792 34.375 135.25C41.75 136.75 50.1458 137.5 59.5625 137.5Z" fill="white"/>
</svg>
