<?xml version="1.0" encoding="UTF-8"?>
<svg xmlns="http://www.w3.org/2000/svg" xmlns:xlink="http://www.w3.org/1999/xlink" width="24" height="72" viewBox="0 0 24 72" version="1.1">
<g id="surface1">
<path style=" stroke:none;fill-rule:nonzero;fill:rgb(100%,100%,100%);fill-opacity:1;" d="M 0.25 14.90625 C 0.25 16.738281 0.625 18.4375 1.375 20 C 2.144531 21.5625 3.199219 22.894531 4.53125 24 C 5.863281 25.105469 7.375 25.863281 9.0625 26.28125 L 9.0625 55.28125 C 9.0625 57.59375 9.15625 59.625 9.34375 61.375 C 9.53125 63.144531 9.769531 64.636719 10.0625 65.84375 C 10.355469 67.050781 10.667969 67.96875 11 68.59375 C 11.332031 69.21875 11.65625 69.53125 11.96875 69.53125 C 12.28125 69.53125 12.605469 69.21875 12.9375 68.59375 C 13.292969 67.988281 13.605469 67.082031 13.875 65.875 C 14.167969 64.667969 14.40625 63.175781 14.59375 61.40625 C 14.78125 59.636719 14.875 57.59375 14.875 55.28125 L 14.875 26.28125 C 16.5625 25.863281 18.074219 25.105469 19.40625 24 C 20.738281 22.894531 21.792969 21.5625 22.5625 20 C 23.332031 18.4375 23.71875 16.738281 23.71875 14.90625 C 23.71875 12.738281 23.1875 10.769531 22.125 9 C 21.082031 7.207031 19.675781 5.78125 17.90625 4.71875 C 16.136719 3.65625 14.15625 3.125 11.96875 3.125 C 9.800781 3.125 7.832031 3.65625 6.0625 4.71875 C 4.292969 5.78125 2.875 7.207031 1.8125 9 C 0.769531 10.769531 0.25 12.738281 0.25 14.90625 Z M 8.59375 15.53125 C 7.53125 15.53125 6.59375 15.136719 5.78125 14.34375 C 4.988281 13.53125 4.59375 12.582031 4.59375 11.5 C 4.59375 10.417969 4.988281 9.480469 5.78125 8.6875 C 6.59375 7.894531 7.53125 7.5 8.59375 7.5 C 9.699219 7.5 10.644531 7.894531 11.4375 8.6875 C 12.230469 9.480469 12.625 10.417969 12.625 11.5 C 12.625 12.582031 12.230469 13.53125 11.4375 14.34375 C 10.644531 15.136719 9.699219 15.53125 8.59375 15.53125 Z M 8.59375 15.53125 "/>
</g>
</svg>
