<?xml version="1.0" encoding="UTF-8"?>
<svg xmlns="http://www.w3.org/2000/svg" xmlns:xlink="http://www.w3.org/1999/xlink" width="24" height="27" viewBox="0 0 24 27" version="1.1">
<g id="surface1">
<path style=" stroke:none;fill-rule:nonzero;fill:rgb(100%,100%,100%);fill-opacity:1;" d="M 7.59375 5.589844 C 7.59375 6.277344 7.734375 6.914062 8.015625 7.5 C 8.304688 8.085938 8.699219 8.585938 9.199219 9 C 9.699219 9.414062 10.265625 9.699219 10.898438 9.855469 L 10.898438 17.273438 C 10.898438 18.140625 10.933594 18.90625 11.003906 19.570312 C 11.074219 20.234375 11.164062 20.792969 11.273438 21.246094 C 11.382812 21.699219 11.5 22.042969 11.625 22.277344 C 11.75 22.503906 11.871094 22.617188 11.988281 22.617188 C 12.105469 22.617188 12.226562 22.503906 12.351562 22.277344 C 12.484375 22.042969 12.601562 21.699219 12.703125 21.246094 C 12.8125 20.792969 12.902344 20.234375 12.972656 19.570312 C 13.042969 18.90625 13.078125 18.140625 13.078125 17.273438 L 13.078125 9.855469 C 13.710938 9.699219 14.277344 9.414062 14.777344 9 C 15.277344 8.585938 15.671875 8.085938 15.960938 7.5 C 16.25 6.914062 16.394531 6.277344 16.394531 5.589844 C 16.394531 4.777344 16.195312 4.039062 15.796875 3.375 C 15.40625 2.703125 14.878906 2.167969 14.214844 1.769531 C 13.550781 1.371094 12.808594 1.171875 11.988281 1.171875 C 11.175781 1.171875 10.4375 1.371094 9.773438 1.769531 C 9.109375 2.167969 8.578125 2.703125 8.179688 3.375 C 7.789062 4.039062 7.59375 4.777344 7.59375 5.589844 Z M 10.734375 5.824219 C 10.335938 5.824219 9.984375 5.675781 9.679688 5.378906 C 9.382812 5.074219 9.234375 4.71875 9.234375 4.3125 C 9.234375 3.90625 9.382812 3.554688 9.679688 3.257812 C 9.984375 2.960938 10.335938 2.8125 10.734375 2.8125 C 11.148438 2.8125 11.503906 2.960938 11.800781 3.257812 C 12.097656 3.554688 12.246094 3.90625 12.246094 4.3125 C 12.246094 4.71875 12.097656 5.074219 11.800781 5.378906 C 11.503906 5.675781 11.148438 5.824219 10.734375 5.824219 Z M 12 26.90625 C 13.765625 26.90625 15.335938 26.765625 16.710938 26.484375 C 18.09375 26.210938 19.261719 25.835938 20.214844 25.359375 C 21.167969 24.890625 21.890625 24.355469 22.382812 23.753906 C 22.875 23.160156 23.121094 22.539062 23.121094 21.890625 C 23.121094 21.273438 22.945312 20.707031 22.59375 20.191406 C 22.25 19.667969 21.785156 19.203125 21.199219 18.796875 C 20.613281 18.390625 19.960938 18.046875 19.242188 17.765625 C 18.53125 17.476562 17.804688 17.257812 17.0625 17.109375 C 16.328125 16.953125 15.636719 16.875 14.988281 16.875 L 14.988281 18.585938 C 15.558594 18.59375 16.171875 18.675781 16.828125 18.832031 C 17.492188 18.980469 18.121094 19.1875 18.714844 19.453125 C 19.308594 19.71875 19.796875 20.035156 20.179688 20.402344 C 20.5625 20.769531 20.753906 21.171875 20.753906 21.609375 C 20.753906 22.117188 20.535156 22.578125 20.097656 22.992188 C 19.660156 23.414062 19.046875 23.777344 18.257812 24.082031 C 17.476562 24.394531 16.550781 24.632812 15.480469 24.796875 C 14.417969 24.96875 13.257812 25.054688 12 25.054688 C 10.734375 25.054688 9.566406 24.96875 8.496094 24.796875 C 7.433594 24.632812 6.507812 24.398438 5.71875 24.09375 C 4.9375 23.789062 4.328125 23.425781 3.890625 23.003906 C 3.460938 22.582031 3.246094 22.117188 3.246094 21.609375 C 3.246094 21.171875 3.433594 20.769531 3.808594 20.402344 C 4.191406 20.035156 4.679688 19.71875 5.273438 19.453125 C 5.867188 19.1875 6.496094 18.980469 7.160156 18.832031 C 7.824219 18.675781 8.4375 18.59375 9 18.585938 L 9 16.875 C 8.359375 16.875 7.667969 16.953125 6.925781 17.109375 C 6.191406 17.257812 5.464844 17.476562 4.746094 17.765625 C 4.035156 18.046875 3.386719 18.390625 2.800781 18.796875 C 2.214844 19.203125 1.746094 19.667969 1.394531 20.191406 C 1.042969 20.707031 0.867188 21.273438 0.867188 21.890625 C 0.867188 22.539062 1.113281 23.160156 1.605469 23.753906 C 2.105469 24.355469 2.832031 24.890625 3.785156 25.359375 C 4.738281 25.835938 5.902344 26.210938 7.277344 26.484375 C 8.660156 26.765625 10.234375 26.90625 12 26.90625 Z M 12 26.90625 "/>
</g>
</svg>
