<svg xmlns="http://www.w3.org/2000/svg" width="24" height="24"><path style="stroke:none;fill-rule:nonzero;fill:#fff;fill-opacity:1" d="M7.516 4.969a3 3 0 0 0 .52 1.699c.355.52.839.965 1.456 1.332a6.09 6.09 0 0 0 2.09.758v1.273l2.684 1.938V8.762A6.095 6.095 0 0 0 16.356 8c.613-.363 1.109-.82 1.456-1.332.36-.531.543-1.113.536-1.7 0-.722-.246-1.378-.739-1.968-.468-.59-1.14-1.078-1.945-1.426-.816-.355-1.73-.535-2.742-.535-1 0-1.906.18-2.727.535-.808.348-1.484.84-1.96 1.426-.481.59-.72 1.246-.72 1.969Zm4.066 13.46c0 .77.043 1.446.129 2.028.086.594.2 1.09.332 1.492.137.399.277.707.434.918.152.203.3.309.445.309.183 0 .375-.156.578-.477.21-.32.39-.789.535-1.398.145-.602.215-1.336.215-2.196v-1.449l-2.668-1.93Zm-.215-13.253c-.492 0-.926-.133-1.3-.395-.364-.27-.547-.586-.547-.945 0-.363.183-.676.546-.941a2.218 2.218 0 0 1 1.301-.395c.508 0 .945.133 1.313.395.363.265.547.578.547.937 0 .363-.184.68-.547.95-.344.257-.82.398-1.313.394ZM21.68 21.289c.218.164.484.242.793.242.304 0 .566-.078.777-.242.21-.148.316-.34.316-.559.016-.214-.101-.425-.316-.574L3.129 5.636a1.303 1.303 0 0 0-.793-.23c-.316 0-.582.074-.793.23-.211.153-.316.34-.316.575 0 .219.105.406.316.559Zm0 0"/></svg>