<svg width="120" height="142" viewBox="0 0 120 142" fill="none" xmlns="http://www.w3.org/2000/svg">
<path d="M60.4375 141.375C65.9375 141.375 71.0833 140.354 75.875 138.312C80.7083 136.271 84.9375 133.417 88.5625 129.75C92.1875 126.125 95.0208 121.896 97.0625 117.062C99.1458 112.271 100.188 107.146 100.188 101.688C100.188 96.1875 99.1458 91.0417 97.0625 86.25C95.0208 81.4167 92.1875 77.1875 88.5625 73.5625C84.9375 69.8958 80.7083 67.0417 75.875 65C71.0833 62.9583 65.9375 61.9375 60.4375 61.9375C54.9792 61.9375 49.8333 62.9583 45 65C40.2083 67.0417 35.9792 69.8958 32.3125 73.5625C28.6875 77.1875 25.8542 81.4167 23.8125 86.25C21.7708 91.0417 20.75 96.1875 20.75 101.688C20.75 107.146 21.7708 112.271 23.8125 117.062C25.8542 121.896 28.6875 126.125 32.3125 129.75C35.9792 133.417 40.2083 136.271 45 138.312C49.8333 140.354 54.9792 141.375 60.4375 141.375ZM49.125 122.125C47.9167 123 46.8333 123.083 45.875 122.375C44.9583 121.708 44.7292 120.688 45.1875 119.312L49.6875 105.875L38.1875 97.6875C37.4792 97.1458 37.0625 96.5208 36.9375 95.8125C36.8125 95.0625 36.9792 94.4167 37.4375 93.875C37.9375 93.2917 38.6875 93 39.6875 93L53.8125 93.125L58.125 79.625C58.5833 78.25 59.375 77.5625 60.5 77.5625C61.625 77.5625 62.4167 78.25 62.875 79.625L67.1875 93.125L81.3125 93C82.3125 93 83.0417 93.2917 83.5 93.875C83.9583 94.4167 84.125 95.0625 84 95.8125C83.9167 96.5208 83.5208 97.125 82.8125 97.625L71.3125 105.875L75.8125 119.312C76.2708 120.688 76.0208 121.708 75.0625 122.375C74.1458 123.083 73.0833 123 71.875 122.125L60.5 113.812L49.125 122.125ZM22.375 71.9375C25.4583 68.0625 29.0625 64.7083 33.1875 61.875C37.3125 59 41.7917 56.8542 46.625 55.4375L18.3125 4.5625L1.875 29.625C1.33333 30.4167 1.04167 31.25 1 32.125C0.958333 33 1.1875 33.8542 1.6875 34.6875L22.375 71.9375ZM46.4375 34.125H74.5L93.5625 0.375H27.375L46.4375 34.125ZM74.3125 55.4375C79.1875 56.8542 83.6667 59 87.75 61.875C91.875 64.7083 95.4792 68.0625 98.5625 71.9375L119.312 34.6875C119.771 33.8542 119.979 33 119.938 32.125C119.896 31.25 119.604 30.4167 119.062 29.625L102.625 4.5625L74.3125 55.4375Z" fill="white"/>
</svg>
