<?xml version="1.0" encoding="UTF-8"?>
<svg xmlns="http://www.w3.org/2000/svg" xmlns:xlink="http://www.w3.org/1999/xlink" width="24" height="22.666667" viewBox="0 0 24 22.666667" version="1.1">
<g id="surface1">
<path style=" stroke:none;fill-rule:nonzero;fill:rgb(100%,100%,100%);fill-opacity:1;" d="M 4.761719 15.207031 L 7 15.207031 L 7 5.25 L 4.761719 5.25 C 3.335938 5.25 2.253906 5.609375 1.511719 6.332031 C 0.765625 7.054688 0.394531 8.101562 0.394531 9.46875 L 0.394531 10.988281 C 0.394531 12.359375 0.765625 13.402344 1.511719 14.125 C 2.253906 14.847656 3.335938 15.207031 4.761719 15.207031 Z M 8.425781 15.21875 C 9.40625 15.324219 10.449219 15.488281 11.550781 15.71875 C 12.65625 15.949219 13.757812 16.238281 14.855469 16.59375 C 15.953125 16.941406 16.976562 17.347656 17.925781 17.8125 C 17.925781 17.765625 17.925781 17.710938 17.925781 17.65625 C 17.925781 17.601562 17.925781 17.546875 17.925781 17.488281 L 17.925781 3 C 17.925781 2.9375 17.925781 2.878906 17.925781 2.824219 C 17.925781 2.765625 17.925781 2.707031 17.925781 2.644531 C 16.960938 3.117188 15.914062 3.53125 14.78125 3.886719 C 13.65625 4.238281 12.539062 4.53125 11.425781 4.761719 C 10.324219 4.988281 9.324219 5.152344 8.425781 5.25 Z M 21.46875 20.355469 C 21.890625 20.355469 22.265625 20.265625 22.582031 20.082031 C 22.902344 19.910156 23.148438 19.664062 23.324219 19.34375 C 23.503906 19.023438 23.59375 18.65625 23.59375 18.238281 L 23.59375 2.15625 C 23.59375 1.738281 23.503906 1.371094 23.324219 1.050781 C 23.148438 0.726562 22.902344 0.476562 22.582031 0.300781 C 22.265625 0.121094 21.890625 0.03125 21.46875 0.03125 C 21.050781 0.03125 20.683594 0.121094 20.363281 0.300781 C 20.046875 0.476562 19.796875 0.726562 19.613281 1.050781 C 19.441406 1.371094 19.355469 1.738281 19.355469 2.15625 L 19.355469 18.238281 C 19.355469 18.65625 19.441406 19.023438 19.613281 19.34375 C 19.796875 19.664062 20.046875 19.910156 20.363281 20.082031 C 20.683594 20.265625 21.050781 20.355469 21.46875 20.355469 Z M 8.90625 22.261719 C 9.335938 22.261719 9.714844 22.164062 10.042969 21.96875 C 10.375 21.773438 10.613281 21.488281 10.761719 21.113281 C 10.90625 20.738281 10.921875 20.285156 10.8125 19.75 L 10.230469 16.949219 C 9.832031 16.878906 9.296875 16.820312 8.613281 16.769531 C 7.941406 16.722656 6.945312 16.679688 5.625 16.644531 C 5.535156 16.644531 5.414062 16.640625 5.261719 16.636719 C 5.109375 16.628906 4.949219 16.625 4.78125 16.625 L 6.53125 20.449219 C 6.796875 21.015625 7.105469 21.460938 7.457031 21.78125 C 7.820312 22.101562 8.300781 22.261719 8.90625 22.261719 Z M 8.90625 22.261719 "/>
</g>
</svg>
