<svg xmlns="http://www.w3.org/2000/svg" width="24" height="24"><path style="stroke:none;fill-rule:nonzero;fill:#fff;fill-opacity:1" d="M1.95 4.488V6.25h20.1V4.488Zm1.94 18.797h16.22c.988 0 1.726-.32 2.21-.973.489-.64.735-1.605.735-2.886V4.152c0-1.289-.246-2.25-.735-2.902-.484-.652-1.222-.973-2.21-.973H3.89c-.98 0-1.718.32-2.21.973-.489.64-.735 1.61-.735 2.902v15.274c0 1.281.246 2.246.735 2.887.492.652 1.23.972 2.21.972Zm.02-2.008c-.469 0-.828-.164-1.078-.492-.25-.332-.375-.82-.375-1.473V4.262c0-.649.125-1.14.375-1.477.25-.332.61-.5 1.078-.5h16.18c.465 0 .82.168 1.07.5.254.336.383.828.383 1.477v15.05c0 .653-.129 1.141-.383 1.473-.25.328-.605.492-1.07.492Zm8.098-2.68c.203 0 .375-.093.527-.285a1.09 1.09 0 0 0 .223-.687V13.5l-.063-2.098.805 1.125 1.219 1.625c.07.094.152.168.242.223a.49.49 0 0 0 .266.074c.199 0 .363-.086.496-.25.129-.168.199-.398.195-.636 0-.141-.02-.266-.066-.376a.815.815 0 0 0-.176-.312L12.555 9c-.188-.223-.371-.34-.547-.34-.172 0-.356.117-.543.34l-3.121 3.875c-.07.09-.133.195-.18.313a1.01 1.01 0 0 0-.062.374c0 .262.062.47.187.637a.605.605 0 0 0 .496.25.655.655 0 0 0 .516-.297l1.219-1.625.804-1.125-.054 2.098v4.125c0 .266.07.492.214.688.137.187.329.289.524.285Zm0 0"/></svg>