<?xml version="1.0" encoding="UTF-8"?>
<svg xmlns="http://www.w3.org/2000/svg" xmlns:xlink="http://www.w3.org/1999/xlink" width="24" height="25.5" viewBox="0 0 24 25.5" version="1.1">
<g id="surface1">
<path style=" stroke:none;fill-rule:nonzero;fill:rgb(100%,100%,100%);fill-opacity:1;" d="M 12 24.503906 C 13.632812 24.503906 15.167969 24.191406 16.605469 23.566406 C 18.050781 22.941406 19.324219 22.078125 20.425781 20.976562 C 21.527344 19.875 22.390625 18.605469 23.015625 17.167969 C 23.640625 15.722656 23.953125 14.183594 23.953125 12.550781 C 23.953125 10.917969 23.640625 9.382812 23.015625 7.945312 C 22.390625 6.5 21.527344 5.226562 20.425781 4.125 C 19.324219 3.023438 18.050781 2.160156 16.605469 1.535156 C 15.160156 0.910156 13.621094 0.597656 11.988281 0.597656 C 10.355469 0.597656 8.816406 0.910156 7.371094 1.535156 C 5.933594 2.160156 4.664062 3.023438 3.5625 4.125 C 2.46875 5.226562 1.609375 6.5 0.984375 7.945312 C 0.359375 9.382812 0.046875 10.917969 0.046875 12.550781 C 0.046875 14.183594 0.359375 15.722656 0.984375 17.167969 C 1.609375 18.605469 2.472656 19.875 3.574219 20.976562 C 4.675781 22.078125 5.945312 22.941406 7.382812 23.566406 C 8.828125 24.191406 10.367188 24.503906 12 24.503906 Z M 12 17.34375 C 11.867188 17.34375 11.738281 17.34375 11.613281 17.34375 C 11.488281 17.335938 11.371094 17.328125 11.261719 17.320312 C 11.160156 17.3125 11.046875 17.347656 10.921875 17.425781 C 10.320312 17.792969 9.742188 18.089844 9.1875 18.316406 C 8.632812 18.542969 8.191406 18.65625 7.863281 18.65625 C 7.597656 18.65625 7.4375 18.570312 7.382812 18.398438 C 7.335938 18.226562 7.398438 18.042969 7.570312 17.847656 C 7.695312 17.707031 7.832031 17.546875 7.980469 17.367188 C 8.136719 17.1875 8.265625 16.996094 8.367188 16.792969 C 8.445312 16.628906 8.417969 16.511719 8.285156 16.441406 C 7.402344 15.925781 6.6875 15.273438 6.140625 14.484375 C 5.59375 13.695312 5.320312 12.828125 5.320312 11.882812 C 5.320312 10.875 5.617188 9.960938 6.210938 9.140625 C 6.804688 8.3125 7.605469 7.652344 8.613281 7.160156 C 9.621094 6.667969 10.75 6.421875 12 6.421875 C 13.25 6.421875 14.378906 6.667969 15.386719 7.160156 C 16.402344 7.652344 17.207031 8.3125 17.800781 9.140625 C 18.394531 9.960938 18.691406 10.875 18.691406 11.882812 C 18.691406 12.890625 18.394531 13.808594 17.800781 14.636719 C 17.207031 15.457031 16.402344 16.113281 15.386719 16.605469 C 14.378906 17.097656 13.25 17.34375 12 17.34375 Z M 12 17.34375 "/>
</g>
</svg>
