<svg width="142" height="132" viewBox="0 0 142 132" fill="none" xmlns="http://www.w3.org/2000/svg">
<path d="M24.9375 131.062C26.8125 131.062 29.2708 130.604 32.3125 129.688C35.3542 128.771 38.625 127.542 42.125 126C45.6667 124.458 49.1458 122.75 52.5625 120.875C56.0208 119.042 59.0833 117.167 61.75 115.25C62.2917 114.875 62.7917 114.604 63.25 114.438C63.7083 114.271 64.1458 114.188 64.5625 114.188C64.9792 114.229 65.3958 114.25 65.8125 114.25C66.2292 114.292 66.625 114.312 67 114.312C76 114.312 84.3542 113.354 92.0625 111.438C99.7708 109.521 106.688 106.812 112.812 103.312C118.979 99.8125 124.229 95.7083 128.562 91C132.896 86.25 136.208 81.0417 138.5 75.375C140.792 69.7083 141.938 63.7708 141.938 57.5625C141.938 49.6875 140.104 42.3125 136.438 35.4375C132.812 28.5625 127.75 22.5417 121.25 17.375C114.792 12.1667 107.271 8.10417 98.6875 5.1875C90.1042 2.22917 80.8958 0.75 71.0625 0.75C61.2292 0.75 52.0208 2.22917 43.4375 5.1875C34.8542 8.10417 27.3125 12.1667 20.8125 17.375C14.3542 22.5417 9.29167 28.5625 5.625 35.4375C2 42.3125 0.1875 49.6875 0.1875 57.5625C0.1875 64.2292 1.47917 70.5625 4.0625 76.5625C6.6875 82.5625 10.4167 88.0625 15.25 93.0625C20.125 98.0208 25.8958 102.292 32.5625 105.875C33.0208 106.125 33.3125 106.479 33.4375 106.938C33.6042 107.354 33.5625 107.792 33.3125 108.25C32.1458 110.167 30.7708 112.146 29.1875 114.188C27.6042 116.229 26.0625 118.104 24.5625 119.812C23.1042 121.562 21.9792 122.958 21.1875 124C19.9792 125.583 19.6875 127.146 20.3125 128.688C20.9792 130.271 22.5208 131.062 24.9375 131.062Z" fill="white"/>
</svg>
