<svg xmlns="http://www.w3.org/2000/svg" width="24" height="24"><path style="stroke:none;fill-rule:nonzero;fill:#fff;fill-opacity:1" d="M12 23.05c1.633 0 3.168-.292 4.605-.882a12.22 12.22 0 0 0 3.82-2.438 11.467 11.467 0 0 0 2.59-3.582c.626-1.363.938-2.808.938-4.347a10.2 10.2 0 0 0-.937-4.332 11.53 11.53 0 0 0-2.59-3.598 12.361 12.361 0 0 0-3.82-2.437A12.166 12.166 0 0 0 11.987.55c-1.633 0-3.172.293-4.617.883A12.307 12.307 0 0 0 3.562 3.87 11.523 11.523 0 0 0 .985 7.465 10.2 10.2 0 0 0 .047 11.8c0 1.539.312 2.984.937 4.347a11.467 11.467 0 0 0 2.59 3.582 12.236 12.236 0 0 0 3.809 2.438c1.445.59 2.984.883 4.617.883Zm0-1.874a10.222 10.222 0 0 1-7.055-2.734 9.548 9.548 0 0 1-2.133-2.989 8.83 8.83 0 0 1-.761-3.652c0-1.301.254-2.52.761-3.649A9.52 9.52 0 0 1 4.946 5.16 9.82 9.82 0 0 1 8.11 3.156c1.204-.488 2.496-.73 3.88-.73 1.382 0 2.675.242 3.878.73a9.701 9.701 0 0 1 3.176 2.004 9.432 9.432 0 0 1 2.145 2.992 8.685 8.685 0 0 1 .773 3.649c0 1.3-.258 2.52-.773 3.652a9.22 9.22 0 0 1-2.133 2.988A10.222 10.222 0 0 1 12 21.176Zm-.012-5.008c1.211 0 2.305-.223 3.282-.672.984-.45 1.765-1.047 2.343-1.797.567-.73.871-1.61.867-2.515 0-.918-.289-1.754-.867-2.504-.578-.758-1.36-1.36-2.343-1.809-.977-.45-2.07-.672-3.282-.672-1.21 0-2.308.223-3.293.672-.976.45-1.754 1.05-2.332 1.809a4.032 4.032 0 0 0-.855 2.504c0 .867.265 1.66.797 2.382.53.715 1.226 1.305 2.086 1.778.125.062.148.172.07.32a2.643 2.643 0 0 1-.363.527c-.149.16-.286.305-.41.43-.165.176-.223.344-.176.508.047.152.203.23.468.23.313 0 .739-.101 1.278-.308.547-.207 1.11-.477 1.687-.817a.599.599 0 0 1 .328-.086l.34.02Zm0 0"/></svg>