<svg xmlns="http://www.w3.org/2000/svg" width="24" height="24"><path style="stroke:none;fill-rule:nonzero;fill:#fff;fill-opacity:1" d="M3.695 22.012c.27 0 .621-.078 1.055-.23.434-.153.902-.356 1.402-.614a16.697 16.697 0 0 0 1.493-.855c.492-.305.93-.618 1.312-.942a1.18 1.18 0 0 1 .211-.129.524.524 0 0 1 .187-.043c.063.004.122.012.18.012.059.004.117.008.172.008.426 0 .844-.02 1.25-.063a13.3 13.3 0 0 0 1.168-.176v-1.835c0-.415.086-.793.258-1.133.18-.348.414-.621.707-.82.297-.212.625-.317.98-.317.035 0 .075.004.117.008a.52.52 0 0 1 .118.043c.004-.047.011-.09.015-.133.008-.04.016-.086.028-.129.12-.441.359-.828.68-1.101a1.677 1.677 0 0 1 1.14-.438c.043 0 .078.008.11.023a.35.35 0 0 1 .105.028c.008-.043.012-.086.02-.133.011-.05.019-.102.027-.145.117-.453.347-.824.687-1.117.34-.297.719-.445 1.14-.445.352 0 .673.098.958.3.293.196.515.45.68.77.015 0 .035 0 .062-.011.023-.008.047-.008.07-.008a8.08 8.08 0 0 0 .285-1.297 8.75 8.75 0 0 0 .098-1.328 8.764 8.764 0 0 0-.785-3.688 9.3 9.3 0 0 0-2.168-3.011c-.926-.868-2-1.543-3.227-2.032-1.222-.496-2.539-.738-3.945-.738-1.402 0-2.719.242-3.945.738a10.245 10.245 0 0 0-3.235 2.032A9.487 9.487 0 0 0 .938 6.074 8.823 8.823 0 0 0 .16 9.762a9.04 9.04 0 0 0 .555 3.168 9.518 9.518 0 0 0 1.598 2.746c.695.828 1.519 1.543 2.472 2.14.067.04.11.098.125.172.024.07.02.153-.015.219-.18.344-.375.676-.59.992-.227.34-.45.653-.66.934-.211.293-.372.527-.485.699-.172.266-.215.523-.125.785.098.262.317.395.66.395Zm10.367-2.696c.149 0 .27-.058.368-.171a.57.57 0 0 0 .152-.407V17.16a.598.598 0 0 0-.152-.422.44.44 0 0 0-.367-.175.431.431 0 0 0-.348.175.61.61 0 0 0-.145.422v1.578c0 .16.047.297.145.407.094.113.21.171.348.171Zm2.106 1.75a.449.449 0 0 0 .36-.171.611.611 0 0 0 .14-.426V15.41a.626.626 0 0 0-.145-.418.455.455 0 0 0-.355-.168.474.474 0 0 0-.363.172.616.616 0 0 0-.145.414v5.059c0 .176.047.316.145.426a.474.474 0 0 0 .363.171Zm2.09 1.797a.446.446 0 0 0 .36-.164.588.588 0 0 0 .152-.418v-8.656a.607.607 0 0 0-.153-.426.446.446 0 0 0-.715 0 .626.626 0 0 0-.144.426v8.656a.623.623 0 0 0 .14.418c.098.11.227.172.36.164Zm2.09-1.027a.44.44 0 0 0 .359-.18.593.593 0 0 0 .148-.414v-6.61a.642.642 0 0 0-.152-.405.435.435 0 0 0-.355-.16.46.46 0 0 0-.356.16.595.595 0 0 0-.144.406v6.61c0 .163.047.304.144.413.094.114.223.18.356.18Zm2.097-1.969a.457.457 0 0 0 .367-.172.616.616 0 0 0 .145-.414v-2.68a.636.636 0 0 0-.145-.413.465.465 0 0 0-.722.007.595.595 0 0 0-.145.407v2.68c0 .16.047.296.145.405.094.114.223.18.355.18Zm0 0"/></svg>