<?xml version="1.0" encoding="UTF-8"?>
<svg xmlns="http://www.w3.org/2000/svg" xmlns:xlink="http://www.w3.org/1999/xlink" width="24" height="20.571429" viewBox="0 0 24 20.571429" version="1.1">
<g id="surface1">
<path style=" stroke:none;fill-rule:nonzero;fill:rgb(100%,100%,100%);fill-opacity:1;" d="M 3.695312 18.867188 C 3.964844 18.867188 4.316406 18.800781 4.75 18.667969 C 5.183594 18.539062 5.652344 18.363281 6.152344 18.144531 C 6.65625 17.921875 7.15625 17.679688 7.644531 17.410156 C 8.136719 17.148438 8.574219 16.882812 8.957031 16.605469 C 9.03125 16.554688 9.105469 16.515625 9.167969 16.492188 C 9.234375 16.46875 9.296875 16.457031 9.355469 16.457031 C 9.417969 16.460938 9.476562 16.464844 9.535156 16.464844 C 9.59375 16.46875 9.652344 16.472656 9.707031 16.472656 C 10.132812 16.472656 10.550781 16.457031 10.957031 16.417969 C 11.359375 16.382812 11.75 16.332031 12.125 16.269531 L 12.125 14.695312 C 12.125 14.339844 12.210938 14.015625 12.382812 13.722656 C 12.5625 13.425781 12.796875 13.191406 13.089844 13.019531 C 13.386719 12.839844 13.714844 12.75 14.070312 12.75 C 14.105469 12.75 14.144531 12.753906 14.1875 12.757812 C 14.230469 12.765625 14.269531 12.777344 14.304688 12.792969 C 14.308594 12.753906 14.316406 12.714844 14.320312 12.679688 C 14.328125 12.644531 14.335938 12.605469 14.347656 12.570312 C 14.472656 12.183594 14.699219 11.867188 15.027344 11.625 C 15.359375 11.375 15.742188 11.25 16.167969 11.25 C 16.210938 11.25 16.246094 11.257812 16.277344 11.269531 C 16.3125 11.273438 16.347656 11.28125 16.382812 11.292969 C 16.390625 11.257812 16.394531 11.21875 16.402344 11.179688 C 16.414062 11.136719 16.421875 11.09375 16.429688 11.054688 C 16.546875 10.667969 16.777344 10.347656 17.117188 10.097656 C 17.457031 9.84375 17.835938 9.714844 18.257812 9.714844 C 18.609375 9.714844 18.929688 9.800781 19.214844 9.972656 C 19.507812 10.140625 19.730469 10.359375 19.894531 10.632812 C 19.910156 10.632812 19.929688 10.632812 19.957031 10.625 C 19.980469 10.617188 20.003906 10.617188 20.027344 10.617188 C 20.15625 10.253906 20.253906 9.882812 20.3125 9.507812 C 20.378906 9.132812 20.410156 8.753906 20.410156 8.367188 C 20.410156 7.242188 20.148438 6.1875 19.625 5.207031 C 19.105469 4.222656 18.382812 3.363281 17.457031 2.625 C 16.53125 1.882812 15.457031 1.300781 14.230469 0.882812 C 13.007812 0.460938 11.691406 0.25 10.285156 0.25 C 8.882812 0.25 7.566406 0.460938 6.339844 0.882812 C 5.113281 1.300781 4.035156 1.882812 3.105469 2.625 C 2.183594 3.363281 1.460938 4.222656 0.9375 5.207031 C 0.417969 6.1875 0.160156 7.242188 0.160156 8.367188 C 0.160156 9.320312 0.34375 10.222656 0.714844 11.082031 C 1.089844 11.9375 1.621094 12.722656 2.3125 13.4375 C 3.007812 14.144531 3.832031 14.757812 4.785156 15.269531 C 4.851562 15.304688 4.894531 15.355469 4.910156 15.417969 C 4.933594 15.480469 4.929688 15.542969 4.894531 15.605469 C 4.726562 15.882812 4.53125 16.164062 4.304688 16.457031 C 4.078125 16.746094 3.855469 17.015625 3.644531 17.257812 C 3.433594 17.507812 3.273438 17.707031 3.160156 17.855469 C 2.988281 18.082031 2.945312 18.304688 3.035156 18.527344 C 3.132812 18.753906 3.351562 18.867188 3.695312 18.867188 Z M 14.0625 16.554688 C 14.210938 16.554688 14.332031 16.507812 14.429688 16.410156 C 14.53125 16.316406 14.582031 16.199219 14.582031 16.0625 L 14.582031 14.707031 C 14.582031 14.5625 14.53125 14.445312 14.429688 14.347656 C 14.332031 14.246094 14.210938 14.195312 14.0625 14.195312 C 13.925781 14.195312 13.808594 14.246094 13.714844 14.347656 C 13.617188 14.445312 13.570312 14.5625 13.570312 14.707031 L 13.570312 16.0625 C 13.570312 16.199219 13.617188 16.316406 13.714844 16.410156 C 13.808594 16.507812 13.925781 16.554688 14.0625 16.554688 Z M 16.167969 18.054688 C 16.3125 18.054688 16.429688 18.007812 16.527344 17.910156 C 16.621094 17.816406 16.667969 17.695312 16.667969 17.542969 L 16.667969 13.207031 C 16.667969 13.070312 16.621094 12.953125 16.527344 12.855469 C 16.429688 12.757812 16.3125 12.707031 16.167969 12.707031 C 16.027344 12.707031 15.90625 12.757812 15.804688 12.855469 C 15.707031 12.953125 15.660156 13.070312 15.660156 13.207031 L 15.660156 17.542969 C 15.660156 17.695312 15.707031 17.816406 15.804688 17.910156 C 15.90625 18.007812 16.027344 18.054688 16.167969 18.054688 Z M 18.257812 19.597656 C 18.402344 19.597656 18.519531 19.550781 18.617188 19.457031 C 18.71875 19.359375 18.769531 19.242188 18.769531 19.097656 L 18.769531 11.679688 C 18.769531 11.53125 18.71875 11.40625 18.617188 11.3125 C 18.519531 11.210938 18.402344 11.160156 18.257812 11.160156 C 18.121094 11.160156 18.003906 11.210938 17.902344 11.3125 C 17.804688 11.40625 17.757812 11.53125 17.757812 11.679688 L 17.757812 19.097656 C 17.757812 19.242188 17.804688 19.359375 17.902344 19.457031 C 17.996094 19.550781 18.117188 19.597656 18.257812 19.597656 Z M 20.347656 18.714844 C 20.492188 18.714844 20.609375 18.664062 20.707031 18.5625 C 20.804688 18.46875 20.855469 18.347656 20.855469 18.207031 L 20.855469 12.542969 C 20.855469 12.40625 20.804688 12.292969 20.707031 12.195312 C 20.609375 12.101562 20.492188 12.054688 20.347656 12.054688 C 20.210938 12.054688 20.09375 12.101562 19.992188 12.195312 C 19.894531 12.292969 19.847656 12.40625 19.847656 12.542969 L 19.847656 18.207031 C 19.847656 18.347656 19.894531 18.46875 19.992188 18.5625 C 20.09375 18.664062 20.210938 18.714844 20.347656 18.714844 Z M 22.445312 17.027344 C 22.59375 17.027344 22.71875 16.980469 22.8125 16.882812 C 22.90625 16.789062 22.957031 16.667969 22.957031 16.527344 L 22.957031 14.230469 C 22.957031 14.089844 22.90625 13.96875 22.8125 13.875 C 22.71875 13.78125 22.59375 13.730469 22.445312 13.730469 C 22.308594 13.730469 22.191406 13.78125 22.089844 13.882812 C 21.992188 13.980469 21.945312 14.09375 21.945312 14.230469 L 21.945312 16.527344 C 21.945312 16.664062 21.992188 16.78125 22.089844 16.875 C 22.191406 16.976562 22.308594 17.027344 22.445312 17.027344 Z M 22.445312 17.027344 "/>
</g>
</svg>
