<svg width="160" height="137" viewBox="0 0 160 137" fill="none" xmlns="http://www.w3.org/2000/svg">
<path d="M24.9375 131.062C26.8125 131.062 29.2708 130.604 32.3125 129.688C35.3542 128.771 38.625 127.542 42.125 126C45.6667 124.458 49.1458 122.75 52.5625 120.875C56.0208 119.042 59.0833 117.167 61.75 115.25C62.2917 114.875 62.7917 114.604 63.25 114.438C63.7083 114.271 64.1458 114.188 64.5625 114.188C64.9792 114.229 65.3958 114.25 65.8125 114.25C66.2292 114.292 66.625 114.312 67 114.312C70 114.312 72.9167 114.188 75.75 113.938C78.5833 113.688 81.3125 113.333 83.9375 112.875V101.875C83.9375 99.375 84.5417 97.1042 85.75 95.0625C87 92.9792 88.6458 91.3333 90.6875 90.125C92.7708 88.875 95.0625 88.25 97.5625 88.25C97.8125 88.25 98.0833 88.2708 98.375 88.3125C98.6667 88.3542 98.9375 88.4375 99.1875 88.5625C99.2292 88.2708 99.2708 88 99.3125 87.75C99.3542 87.5 99.4167 87.25 99.5 87C100.375 84.2917 101.958 82.0833 104.25 80.375C106.583 78.625 109.25 77.75 112.25 77.75C112.542 77.75 112.792 77.7917 113 77.875C113.25 77.9167 113.5 77.9792 113.75 78.0625C113.792 77.8125 113.833 77.5417 113.875 77.25C113.958 76.9583 114.021 76.6667 114.062 76.375C114.896 73.6667 116.5 71.4375 118.875 69.6875C121.25 67.8958 123.917 67 126.875 67C129.333 67 131.562 67.6042 133.562 68.8125C135.604 69.9792 137.188 71.5208 138.312 73.4375C138.438 73.4375 138.583 73.4167 138.75 73.375C138.917 73.3333 139.083 73.3125 139.25 73.3125C140.167 70.7708 140.833 68.1875 141.25 65.5625C141.708 62.9375 141.938 60.2708 141.938 57.5625C141.938 49.6875 140.104 42.3125 136.438 35.4375C132.812 28.5625 127.75 22.5417 121.25 17.375C114.792 12.1667 107.271 8.10417 98.6875 5.1875C90.1042 2.22917 80.8958 0.75 71.0625 0.75C61.2292 0.75 52.0208 2.22917 43.4375 5.1875C34.8542 8.10417 27.3125 12.1667 20.8125 17.375C14.3542 22.5417 9.29167 28.5625 5.625 35.4375C2 42.3125 0.1875 49.6875 0.1875 57.5625C0.1875 64.2292 1.47917 70.5625 4.0625 76.5625C6.6875 82.5625 10.4167 88.0625 15.25 93.0625C20.125 98.0208 25.8958 102.292 32.5625 105.875C33.0208 106.125 33.3125 106.479 33.4375 106.938C33.6042 107.354 33.5625 107.792 33.3125 108.25C32.1458 110.167 30.7708 112.146 29.1875 114.188C27.6042 116.229 26.0625 118.104 24.5625 119.812C23.1042 121.562 21.9792 122.958 21.1875 124C19.9792 125.583 19.6875 127.146 20.3125 128.688C20.9792 130.271 22.5208 131.062 24.9375 131.062ZM97.5 114.875C98.5417 114.875 99.3958 114.542 100.062 113.875C100.771 113.208 101.125 112.396 101.125 111.438V101.938C101.125 100.938 100.771 100.104 100.062 99.4375C99.3958 98.7292 98.5417 98.375 97.5 98.375C96.5417 98.375 95.7292 98.7292 95.0625 99.4375C94.3958 100.104 94.0625 100.938 94.0625 101.938V111.438C94.0625 112.396 94.3958 113.208 95.0625 113.875C95.7292 114.542 96.5417 114.875 97.5 114.875ZM112.25 125.375C113.25 125.375 114.083 125.042 114.75 124.375C115.417 123.708 115.75 122.854 115.75 121.812V91.4375C115.75 90.4792 115.417 89.6667 114.75 89C114.083 88.2917 113.25 87.9375 112.25 87.9375C111.25 87.9375 110.396 88.2917 109.688 89C109.021 89.6667 108.688 90.4792 108.688 91.4375V121.812C108.688 122.854 109.021 123.708 109.688 124.375C110.396 125.042 111.25 125.375 112.25 125.375ZM126.875 136.188C127.875 136.188 128.708 135.854 129.375 135.188C130.083 134.521 130.438 133.688 130.438 132.688V80.75C130.438 79.7083 130.083 78.8542 129.375 78.1875C128.708 77.4792 127.875 77.125 126.875 77.125C125.917 77.125 125.083 77.4792 124.375 78.1875C123.708 78.8542 123.375 79.7083 123.375 80.75V132.688C123.375 133.688 123.708 134.521 124.375 135.188C125.042 135.854 125.875 136.188 126.875 136.188ZM141.5 130C142.5 130 143.333 129.646 144 128.938C144.708 128.271 145.062 127.438 145.062 126.438V86.8125C145.062 85.8542 144.708 85.0417 144 84.375C143.333 83.7083 142.5 83.375 141.5 83.375C140.542 83.375 139.708 83.7083 139 84.375C138.333 85.0417 138 85.8542 138 86.8125V126.438C138 127.438 138.333 128.271 139 128.938C139.708 129.646 140.542 130 141.5 130ZM156.188 118.188C157.229 118.188 158.083 117.854 158.75 117.188C159.417 116.521 159.75 115.688 159.75 114.688V98.625C159.75 97.625 159.417 96.7917 158.75 96.125C158.083 95.4583 157.229 95.125 156.188 95.125C155.229 95.125 154.396 95.4792 153.688 96.1875C153.021 96.8542 152.688 97.6667 152.688 98.625V114.688C152.688 115.646 153.021 116.458 153.688 117.125C154.396 117.833 155.229 118.188 156.188 118.188Z" fill="white"/>
</svg>
