<svg width="16" height="16" viewBox="0 0 16 16" fill="none" xmlns="http://www.w3.org/2000/svg">
<path d="M2.59375 15.7109H13.4062C13.8646 15.7109 14.2552 15.6146 14.5781 15.4219C14.9062 15.2292 15.1562 14.9714 15.3281 14.6484C15.5052 14.3307 15.5938 13.9844 15.5938 13.6094C15.5938 13.2031 15.4922 12.7943 15.2891 12.3828L15.0469 11.9219H0.953125L0.710938 12.3906C0.507812 12.7865 0.40625 13.1927 0.40625 13.6094C0.40625 13.9844 0.492188 14.3307 0.664062 14.6484C0.841146 14.9714 1.09115 15.2292 1.41406 15.4219C1.74219 15.6146 2.13542 15.7109 2.59375 15.7109ZM1.49219 10.8594H5.53906L2.85938 8.17969L1.49219 10.8594ZM6.70312 10.8594H8.47656L1.74219 4.125C1.61198 3.99479 1.46615 3.92969 1.30469 3.92969C1.14323 3.92969 0.994792 3.99479 0.859375 4.125C0.71875 4.26042 0.651042 4.41146 0.65625 4.57812C0.661458 4.73958 0.729167 4.88802 0.859375 5.02344L6.70312 10.8594ZM9.69531 10.8594H14.5078L9.85938 1.74219C9.68229 1.38802 9.41927 1.10677 9.07031 0.898438C8.72135 0.684896 8.36458 0.578125 8 0.578125C7.63542 0.578125 7.27865 0.684896 6.92969 0.898438C6.58073 1.10677 6.31771 1.38802 6.14062 1.74219L4.25781 5.42969L7.41406 8.57812V4.33594C7.41406 4.14323 7.46875 3.98958 7.57812 3.875C7.6875 3.75521 7.83854 3.69531 8.03125 3.69531C8.22396 3.69531 8.375 3.75521 8.48438 3.875C8.59896 3.98958 8.65625 4.14323 8.65625 4.33594V9.8125L9.69531 10.8594Z" fill="white"/>
</svg>
