<svg width="90" height="135" viewBox="0 0 90 135" fill="none" xmlns="http://www.w3.org/2000/svg">
<path d="M0 66.625C0 74.7917 1.66667 82.0417 5 88.375C8.375 94.7083 13.0625 99.7917 19.0625 103.625C25.0625 107.417 32.0417 109.646 40 110.312V124.875H16.8125C15.4792 124.875 14.3542 125.333 13.4375 126.25C12.5208 127.167 12.0625 128.292 12.0625 129.625C12.0625 130.917 12.5208 132.021 13.4375 132.938C14.3542 133.854 15.4792 134.312 16.8125 134.312H72.625C73.9583 134.312 75.0833 133.854 76 132.938C76.9167 132.021 77.375 130.917 77.375 129.625C77.375 128.292 76.9167 127.167 76 126.25C75.0833 125.333 73.9583 124.875 72.625 124.875H49.4375V110.312C57.3958 109.646 64.375 107.417 70.375 103.625C76.375 99.7917 81.0417 94.7083 84.375 88.375C87.75 82.0417 89.4375 74.7917 89.4375 66.625V53.9375C89.4375 52.6458 88.9792 51.5417 88.0625 50.625C87.1458 49.7083 86.0417 49.25 84.75 49.25C83.4167 49.25 82.2917 49.7083 81.375 50.625C80.4583 51.5417 80 52.6458 80 53.9375V66.25C80 73.3333 78.5417 79.5417 75.625 84.875C72.7083 90.2083 68.6042 94.3542 63.3125 97.3125C58.0625 100.229 51.875 101.688 44.75 101.688C37.625 101.688 31.4167 100.229 26.125 97.3125C20.8333 94.3542 16.7292 90.2083 13.8125 84.875C10.8958 79.5417 9.4375 73.3333 9.4375 66.25V53.9375C9.4375 52.6458 8.97917 51.5417 8.0625 50.625C7.14583 49.7083 6.02083 49.25 4.6875 49.25C3.39583 49.25 2.29167 49.7083 1.375 50.625C0.458333 51.5417 0 52.6458 0 53.9375V66.625ZM22 64.375C22 69.1667 22.9583 73.4167 24.875 77.125C26.7917 80.7917 29.4583 83.6667 32.875 85.75C36.2917 87.8333 40.25 88.875 44.75 88.875C49.2083 88.875 53.1458 87.8333 56.5625 85.75C59.9792 83.6667 62.6458 80.7917 64.5625 77.125C66.4792 73.4167 67.4375 69.1667 67.4375 64.375V25.0625C67.4375 20.2708 66.4792 16.0417 64.5625 12.375C62.6458 8.66667 59.9792 5.77083 56.5625 3.6875C53.1458 1.60417 49.2083 0.5625 44.75 0.5625C40.25 0.5625 36.2917 1.60417 32.875 3.6875C29.4583 5.77083 26.7917 8.66667 24.875 12.375C22.9583 16.0417 22 20.2708 22 25.0625V64.375ZM31.4375 64.375V25.0625C31.4375 20.4375 32.6458 16.75 35.0625 14C37.5208 11.25 40.75 9.875 44.75 9.875C48.75 9.875 51.9583 11.25 54.375 14C56.7917 16.75 58 20.4375 58 25.0625V64.375C58 69 56.7917 72.6875 54.375 75.4375C51.9583 78.1875 48.75 79.5625 44.75 79.5625C40.75 79.5625 37.5208 78.1875 35.0625 75.4375C32.6458 72.6875 31.4375 69 31.4375 64.375Z" fill="white"/>
</svg>
