<?xml version="1.0" encoding="UTF-8"?>
<svg xmlns="http://www.w3.org/2000/svg" xmlns:xlink="http://www.w3.org/1999/xlink" width="24" height="22.5" viewBox="0 0 24 22.5" version="1.1">
<g id="surface1">
<path style=" stroke:none;fill-rule:nonzero;fill:rgb(100%,100%,100%);fill-opacity:1;" d="M 4.886719 21.84375 L 19.101562 21.84375 C 20.328125 21.84375 21.246094 21.539062 21.855469 20.929688 C 22.472656 20.328125 22.78125 19.421875 22.78125 18.210938 L 22.78125 3.902344 C 22.78125 2.691406 22.472656 1.785156 21.855469 1.183594 C 21.246094 0.574219 20.328125 0.269531 19.101562 0.269531 L 4.886719 0.269531 C 3.660156 0.269531 2.738281 0.574219 2.121094 1.183594 C 1.511719 1.785156 1.207031 2.691406 1.207031 3.902344 L 1.207031 18.210938 C 1.207031 19.421875 1.511719 20.328125 2.121094 20.929688 C 2.738281 21.539062 3.660156 21.84375 4.886719 21.84375 Z M 8.929688 18.292969 C 8.757812 18.292969 8.605469 18.230469 8.472656 18.105469 C 8.339844 17.980469 8.273438 17.828125 8.273438 17.648438 C 8.273438 17.476562 8.339844 17.324219 8.472656 17.191406 C 8.605469 17.058594 8.757812 16.992188 8.929688 16.992188 L 11.355469 16.992188 L 11.355469 15.773438 C 10.550781 15.6875 9.847656 15.4375 9.246094 15.023438 C 8.644531 14.609375 8.175781 14.078125 7.839844 13.429688 C 7.503906 12.773438 7.335938 12.035156 7.335938 11.214844 L 7.335938 9.65625 C 7.335938 9.492188 7.398438 9.347656 7.523438 9.222656 C 7.65625 9.089844 7.808594 9.023438 7.980469 9.023438 C 8.152344 9.023438 8.300781 9.089844 8.425781 9.222656 C 8.550781 9.347656 8.613281 9.492188 8.613281 9.65625 L 8.613281 11.214844 C 8.613281 11.871094 8.757812 12.453125 9.046875 12.960938 C 9.335938 13.46875 9.734375 13.867188 10.242188 14.15625 C 10.75 14.445312 11.335938 14.589844 12 14.589844 C 12.664062 14.589844 13.25 14.445312 13.757812 14.15625 C 14.273438 13.867188 14.675781 13.46875 14.964844 12.960938 C 15.253906 12.453125 15.398438 11.871094 15.398438 11.214844 L 15.398438 9.65625 C 15.398438 9.492188 15.460938 9.347656 15.585938 9.222656 C 15.710938 9.089844 15.859375 9.023438 16.03125 9.023438 C 16.203125 9.023438 16.351562 9.089844 16.476562 9.222656 C 16.609375 9.347656 16.675781 9.492188 16.675781 9.65625 L 16.675781 11.214844 C 16.675781 12.035156 16.507812 12.773438 16.171875 13.429688 C 15.835938 14.078125 15.367188 14.609375 14.765625 15.023438 C 14.164062 15.429688 13.464844 15.679688 12.667969 15.773438 L 12.667969 16.992188 L 15.082031 16.992188 C 15.261719 16.992188 15.414062 17.058594 15.539062 17.191406 C 15.671875 17.324219 15.738281 17.476562 15.738281 17.648438 C 15.738281 17.820312 15.671875 17.972656 15.539062 18.105469 C 15.40625 18.230469 15.253906 18.292969 15.082031 18.292969 Z M 12 13.371094 C 11.40625 13.371094 10.921875 13.167969 10.546875 12.761719 C 10.179688 12.347656 9.996094 11.832031 9.996094 11.214844 L 9.996094 6.035156 C 9.996094 5.425781 10.179688 4.921875 10.546875 4.523438 C 10.921875 4.117188 11.40625 3.914062 12 3.914062 C 12.59375 3.914062 13.074219 4.117188 13.441406 4.523438 C 13.816406 4.921875 14.003906 5.425781 14.003906 6.035156 L 14.003906 11.214844 C 14.003906 11.832031 13.816406 12.347656 13.441406 12.761719 C 13.074219 13.167969 12.59375 13.371094 12 13.371094 Z M 12 13.371094 "/>
</g>
</svg>
