<svg xmlns="http://www.w3.org/2000/svg" width="24" height="24"><path style="stroke:none;fill-rule:nonzero;fill:#fff;fill-opacity:1" d="M12 23.05c1.633 0 3.168-.292 4.605-.882a12.22 12.22 0 0 0 3.82-2.438 11.467 11.467 0 0 0 2.59-3.582c.626-1.363.938-2.808.938-4.347a10.2 10.2 0 0 0-.937-4.332 11.53 11.53 0 0 0-2.59-3.598 12.361 12.361 0 0 0-3.82-2.437A12.166 12.166 0 0 0 11.987.55c-1.633 0-3.172.293-4.617.883A12.307 12.307 0 0 0 3.562 3.87 11.523 11.523 0 0 0 .985 7.465 10.2 10.2 0 0 0 .047 11.8c0 1.539.312 2.984.937 4.347a11.467 11.467 0 0 0 2.59 3.582 12.236 12.236 0 0 0 3.809 2.438c1.445.59 2.984.883 4.617.883Zm0-1.874a10.222 10.222 0 0 1-7.055-2.734 9.548 9.548 0 0 1-2.133-2.989 8.83 8.83 0 0 1-.761-3.652c0-1.301.254-2.52.761-3.649A9.52 9.52 0 0 1 4.946 5.16 9.82 9.82 0 0 1 8.11 3.156c1.204-.488 2.496-.73 3.88-.73 1.382 0 2.675.242 3.878.73a9.701 9.701 0 0 1 3.176 2.004 9.432 9.432 0 0 1 2.145 2.992 8.685 8.685 0 0 1 .773 3.649c0 1.3-.258 2.52-.773 3.652a9.22 9.22 0 0 1-2.133 2.988A10.222 10.222 0 0 1 12 21.176Zm4.816-4.488c.11.093.235.144.375.144a.52.52 0 0 0 .364-.145.462.462 0 0 0 0-.707L7.418 6.43a.543.543 0 0 0-.387-.153.478.478 0 0 0-.363.153.45.45 0 0 0-.164.351c0 .14.055.258.164.356Zm-3.363-1.954c-.422.2-.91.301-1.465.301-.64 0-1.21-.129-1.71-.387a2.98 2.98 0 0 1-1.16-1.093c-.274-.465-.411-.996-.411-1.598v-1.414a.54.54 0 0 0-.187-.406.611.611 0 0 0-.434-.176.611.611 0 0 0-.434.176.54.54 0 0 0-.187.406v1.414c0 .75.164 1.422.492 2.016.32.586.785 1.09 1.36 1.468.585.375 1.269.602 2.05.684v1.102H9.012a.643.643 0 0 0-.446.187.55.55 0 0 0 0 .828.64.64 0 0 0 .446.176h5.965c.164 0 .32-.063.433-.176.125-.101.2-.25.2-.406a.552.552 0 0 0-.188-.422.62.62 0 0 0-.445-.187h-2.344v-1.102a4.624 4.624 0 0 0 1.734-.531Zm-3.41-3.218v.449c0 .562.18 1.027.539 1.402.367.367.836.551 1.406.551.18 0 .352-.027.516-.086Zm3.902-.145V7.234c0-.558-.183-1.02-.55-1.39-.36-.375-.829-.563-1.407-.563-.57 0-1.039.192-1.406.563-.36.367-.539.832-.539 1.39v.454Zm2.285 2.152a4.252 4.252 0 0 0 .293-1.566v-1.414a.54.54 0 0 0-.187-.406.611.611 0 0 0-.434-.176.611.611 0 0 0-.433.176.54.54 0 0 0-.188.406v1.414c0 .2-.027.398-.082.594Zm0 0"/></svg>