<svg width="150" height="98" viewBox="0 0 150 98" fill="none" xmlns="http://www.w3.org/2000/svg">
<path d="M15.625 97.25H134.562C138.979 97.25 142.521 95.9167 145.188 93.25C147.896 90.5417 149.25 86.9792 149.25 82.5625V15.3125C149.25 10.8958 147.896 7.35417 145.188 4.6875C142.521 1.97917 138.979 0.625 134.562 0.625H15.625C11.2083 0.625 7.64583 1.97917 4.9375 4.6875C2.27083 7.35417 0.9375 10.8958 0.9375 15.3125V82.5625C0.9375 86.9792 2.27083 90.5417 4.9375 93.25C7.64583 95.9167 11.2083 97.25 15.625 97.25ZM15.75 87.1875C14.3333 87.1875 13.1875 86.7292 12.3125 85.8125C11.4375 84.8542 11 83.625 11 82.125V15.75C11 14.25 11.4375 13.0417 12.3125 12.125C13.1875 11.1667 14.3333 10.6875 15.75 10.6875H134.438C135.896 10.6875 137.042 11.1667 137.875 12.125C138.75 13.0417 139.188 14.25 139.188 15.75V82.125C139.188 83.625 138.75 84.8542 137.875 85.8125C137.042 86.7292 135.896 87.1875 134.438 87.1875H15.75ZM24.25 79.8125H85.75C87.5417 79.8125 88.9583 79.2917 90 78.25C91.0833 77.1667 91.625 75.7292 91.625 73.9375V23.9375C91.625 22.1458 91.0833 20.7292 90 19.6875C88.9583 18.6042 87.5417 18.0625 85.75 18.0625H24.25C22.4583 18.0625 21.0208 18.6042 19.9375 19.6875C18.8958 20.7292 18.375 22.1458 18.375 23.9375V73.9375C18.375 75.7292 18.8958 77.1667 19.9375 78.25C21.0208 79.2917 22.4583 79.8125 24.25 79.8125ZM27 72.875C25.875 72.875 25.3125 72.3125 25.3125 71.1875V26.6875C25.3125 25.5625 25.875 25 27 25H83C84.125 25 84.6875 25.5625 84.6875 26.6875V71.1875C84.6875 72.3125 84.125 72.875 83 72.875H27ZM99.6875 91.875H106.625V5.9375H99.6875V91.875ZM103.5 71.125H144.312V64.1875H103.5V71.125ZM113.875 30.25H131.938C132.271 30.25 132.542 30.1458 132.75 29.9375C133 29.6875 133.125 29.4167 133.125 29.125V19.25C133.125 18.9167 133 18.6458 132.75 18.4375C132.542 18.1875 132.271 18.0625 131.938 18.0625H113.875C113.583 18.0625 113.312 18.1875 113.062 18.4375C112.812 18.6458 112.688 18.9167 112.688 19.25V29.125C112.688 29.4167 112.812 29.6875 113.062 29.9375C113.312 30.1458 113.583 30.25 113.875 30.25ZM115.875 40.6875H129.938C130.896 40.6875 131.667 40.3958 132.25 39.8125C132.833 39.2292 133.125 38.4792 133.125 37.5625C133.125 36.6042 132.833 35.8333 132.25 35.25C131.667 34.6667 130.896 34.375 129.938 34.375H115.875C114.917 34.375 114.146 34.6667 113.562 35.25C112.979 35.8333 112.688 36.6042 112.688 37.5625C112.688 38.4792 112.979 39.2292 113.562 39.8125C114.146 40.3958 114.917 40.6875 115.875 40.6875ZM115.875 51.25H129.938C130.896 51.25 131.667 50.9583 132.25 50.375C132.833 49.7917 133.125 49.0208 133.125 48.0625C133.125 47.1458 132.833 46.3958 132.25 45.8125C131.667 45.2292 130.896 44.9375 129.938 44.9375H115.875C114.917 44.9375 114.146 45.2292 113.562 45.8125C112.979 46.3958 112.688 47.1458 112.688 48.0625C112.688 49.0208 112.979 49.7917 113.562 50.375C114.146 50.9583 114.917 51.25 115.875 51.25Z" fill="white"/>
</svg>
