<svg xmlns="http://www.w3.org/2000/svg" width="24" height="24"><path style="stroke:none;fill-rule:nonzero;fill:#fff;fill-opacity:1" d="M3.074 22.902h17.84c.664 0 1.195-.308 1.594-.918.406-.625.61-1.449.61-2.468V3.996c0-1.02-.204-1.84-.61-2.453-.399-.621-.93-.938-1.594-.938H3.074c-.66 0-1.195.317-1.601.938C1.07 2.156.87 2.977.87 3.996v15.52c0 1.02.2 1.843.602 2.468.406.614.941.918 1.601.918Zm.02-2.32c-.192.012-.38-.105-.516-.316-.133-.223-.195-.504-.195-.856V4.098c0-.348.062-.625.195-.84.133-.219.32-.34.516-.332h17.804c.22 0 .391.117.516.332.129.215.195.492.195.84V19.41c0 .352-.066.633-.195.856-.133.214-.32.332-.516.316Zm1.273-1.7h9.227c.27 0 .48-.12.636-.359.165-.253.247-.585.247-1V5.984c0-.414-.082-.738-.247-.976-.156-.254-.367-.38-.636-.38H4.367c-.265 0-.484.126-.644.38-.157.238-.235.562-.235.976v11.54c0 .417.078.746.235 1 .16.238.379.359.644.359Zm.414-1.605c-.168 0-.254-.125-.254-.39V6.625c0-.266.086-.395.254-.395h8.399c.172 0 .254.13.254.395v10.262c0 .265-.082.39-.254.39Zm10.903 4.387h1.043V1.832h-1.043Zm.574-4.789h6.12v-1.602h-6.12Zm1.555-9.434h2.71c.094 0 .172-.113.176-.261V4.906c0-.082-.02-.14-.054-.187-.028-.059-.075-.094-.122-.09h-2.71c-.047 0-.09.031-.122.09a.283.283 0 0 0-.058.187V7.18c0 .066.02.133.058.187.032.047.079.074.122.074Zm.3 2.407h2.11c.129.011.254-.063.347-.196a.992.992 0 0 0 .13-.523.956.956 0 0 0-.13-.535c-.093-.137-.218-.207-.347-.2h-2.11c-.129-.007-.254.063-.347.2a.99.99 0 0 0-.133.535c0 .21.047.387.133.523.093.137.218.207.347.196Zm0 2.441h2.11c.129.008.254-.066.347-.203a.956.956 0 0 0 .13-.535.955.955 0 0 0-.13-.516c-.093-.137-.218-.21-.347-.207h-2.11c-.129-.008-.254.067-.347.207a.923.923 0 0 0-.133.516c0 .222.047.402.133.535.093.14.218.215.347.203Zm0 0"/></svg>