<svg width="16" height="17" viewBox="0 0 16 17" fill="none" xmlns="http://www.w3.org/2000/svg">
<path d="M8 16.3281C9.08854 16.3281 10.112 16.1198 11.0703 15.7031C12.0339 15.2865 12.8828 14.7109 13.6172 13.9766C14.3516 13.2422 14.9271 12.3958 15.3438 11.4375C15.7604 10.474 15.9688 9.44792 15.9688 8.35938C15.9688 7.27083 15.7604 6.2474 15.3438 5.28906C14.9271 4.32552 14.3516 3.47656 13.6172 2.74219C12.8828 2.00781 12.0339 1.43229 11.0703 1.01562C10.1068 0.598958 9.08073 0.390625 7.99219 0.390625C6.90365 0.390625 5.8776 0.598958 4.91406 1.01562C3.95573 1.43229 3.10938 2.00781 2.375 2.74219C1.64583 3.47656 1.07292 4.32552 0.65625 5.28906C0.239583 6.2474 0.03125 7.27083 0.03125 8.35938C0.03125 9.44792 0.239583 10.474 0.65625 11.4375C1.07292 12.3958 1.64844 13.2422 2.38281 13.9766C3.11719 14.7109 3.96354 15.2865 4.92188 15.7031C5.88542 16.1198 6.91146 16.3281 8 16.3281ZM5.4375 11.2734C5.28646 11.2734 5.16406 11.2292 5.07031 11.1406C4.97656 11.0469 4.92969 10.9271 4.92969 10.7812V6.21094C4.92969 6.0599 4.97396 5.9375 5.0625 5.84375C5.15625 5.75 5.27344 5.70312 5.41406 5.70312C5.54948 5.70312 5.66146 5.7474 5.75 5.83594C5.84375 5.92448 5.89062 6.05729 5.89062 6.23438V6.32812C6.01042 6.10417 6.16146 5.9401 6.34375 5.83594C6.53125 5.73177 6.73698 5.67969 6.96094 5.67969C7.21615 5.67969 7.4401 5.73438 7.63281 5.84375C7.83073 5.95312 7.98698 6.125 8.10156 6.35938L9.08594 3.96094C9.16927 3.76823 9.29427 3.67188 9.46094 3.67188C9.57031 3.67188 9.66406 3.70573 9.74219 3.77344C9.82031 3.84115 9.85938 3.92969 9.85938 4.03906C9.85938 4.11198 9.84375 4.1849 9.8125 4.25781L9.19531 5.74219C9.3099 5.70052 9.42708 5.67969 9.54688 5.67969C10.0156 5.67969 10.388 5.83333 10.6641 6.14062C10.9401 6.44792 11.0781 6.8724 11.0781 7.41406V10.7578C11.0781 10.9141 11.0312 11.0391 10.9375 11.1328C10.849 11.2266 10.7318 11.2734 10.5859 11.2734C10.4401 11.2734 10.3203 11.2266 10.2266 11.1328C10.1328 11.0391 10.0859 10.9141 10.0859 10.7578V7.49219C10.0859 7.21615 10.0182 6.9974 9.88281 6.83594C9.7474 6.66927 9.55729 6.58594 9.3125 6.58594C9.0625 6.58594 8.86458 6.67188 8.71875 6.84375C8.57812 7.01562 8.50781 7.24219 8.50781 7.52344V10.7578C8.50781 10.9141 8.46094 11.0391 8.36719 11.1328C8.27344 11.2266 8.15365 11.2734 8.00781 11.2734C7.86719 11.2734 7.75 11.2266 7.65625 11.1328C7.5625 11.0391 7.51562 10.9141 7.51562 10.7578V10.0547L6.53906 12.7578C6.46615 12.9557 6.33854 13.0547 6.15625 13.0547C6.04688 13.0547 5.95573 13.0208 5.88281 12.9531C5.8099 12.8802 5.77344 12.7891 5.77344 12.6797C5.77344 12.6068 5.78906 12.5312 5.82031 12.4531L7.51562 7.76562V7.4375C7.51562 7.1875 7.44271 6.98177 7.29688 6.82031C7.15625 6.65885 6.97656 6.57812 6.75781 6.57812C6.4974 6.57812 6.29427 6.66927 6.14844 6.85156C6.0026 7.03385 5.92969 7.27083 5.92969 7.5625V10.7578C5.92969 10.9141 5.88281 11.0391 5.78906 11.1328C5.70052 11.2266 5.58333 11.2734 5.4375 11.2734Z" fill="white"/>
</svg>
