<svg xmlns="http://www.w3.org/2000/svg" width="24" height="24"><path style="stroke:none;fill-rule:nonzero;fill:#fff;fill-opacity:1" d="M12 23.05c1.633 0 3.168-.292 4.605-.882a12.22 12.22 0 0 0 3.82-2.438 11.467 11.467 0 0 0 2.59-3.582c.626-1.363.938-2.808.938-4.347a10.2 10.2 0 0 0-.937-4.332 11.53 11.53 0 0 0-2.59-3.598 12.361 12.361 0 0 0-3.82-2.437A12.166 12.166 0 0 0 11.987.55c-1.633 0-3.172.293-4.617.883A12.307 12.307 0 0 0 3.562 3.87 11.523 11.523 0 0 0 .985 7.465 10.2 10.2 0 0 0 .047 11.8c0 1.539.312 2.984.937 4.347a11.467 11.467 0 0 0 2.59 3.582 12.236 12.236 0 0 0 3.809 2.438c1.445.59 2.984.883 4.617.883Zm-3.844-7.136a.801.801 0 0 1-.55-.187.659.659 0 0 1-.211-.504V8.77a.703.703 0 0 1 .199-.52c.14-.133.316-.2.527-.2.203 0 .371.063.504.188.14.125.21.313.21.563v.133a1.74 1.74 0 0 1 .68-.696c.282-.144.59-.218.926-.218.383 0 .72.078 1.008.23.297.156.531.398.703.727L13.63 5.59c.125-.27.312-.406.562-.406.164 0 .305.046.422.144a.46.46 0 0 1 .176.375.752.752 0 0 1-.07.309l-.926 2.093c.172-.058.348-.085.527-.085.703 0 1.262.214 1.676.648.414.434.621 1.035.621 1.8v4.72a.703.703 0 0 1-.738.727.749.749 0 0 1-.54-.196.7.7 0 0 1-.21-.531v-4.61c0-.39-.102-.7-.305-.926-.203-.238-.488-.355-.855-.355-.375 0-.672.121-.89.367-.212.238-.317.559-.317.957v4.566c0 .22-.07.399-.211.528a.741.741 0 0 1-.54.2.737.737 0 0 1-.527-.196.7.7 0 0 1-.21-.531v-.993l-1.465 3.817c-.11.277-.301.418-.575.418a.6.6 0 0 1-.41-.145.5.5 0 0 1-.164-.383c0-.105.024-.21.07-.32l2.543-6.621V10.5c0-.352-.109-.645-.328-.871a1.052 1.052 0 0 0-.808-.344c-.39 0-.696.13-.914.387-.22.258-.328.594-.328 1.004v4.511c0 .22-.07.399-.211.528a.703.703 0 0 1-.528.2Zm0 0"/></svg>