<svg width="128" height="128" viewBox="0 0 128 128" fill="none" xmlns="http://www.w3.org/2000/svg">
<path d="M63.9375 127.625C72.6458 127.625 80.8333 125.958 88.5 122.625C96.2083 119.292 103 114.688 108.875 108.812C114.75 102.938 119.354 96.1667 122.688 88.5C126.021 80.7917 127.688 72.5833 127.688 63.875C127.688 55.1667 126.021 46.9792 122.688 39.3125C119.354 31.6042 114.75 24.8125 108.875 18.9375C103 13.0625 96.2083 8.45833 88.5 5.125C80.7917 1.79167 72.5833 0.125 63.875 0.125C55.1667 0.125 46.9583 1.79167 39.25 5.125C31.5833 8.45833 24.8125 13.0625 18.9375 18.9375C13.1042 24.8125 8.52083 31.6042 5.1875 39.3125C1.85417 46.9792 0.1875 55.1667 0.1875 63.875C0.1875 72.5833 1.85417 80.7917 5.1875 88.5C8.52083 96.1667 13.125 102.938 19 108.812C24.875 114.688 31.6458 119.292 39.3125 122.625C47.0208 125.958 55.2292 127.625 63.9375 127.625ZM43.4375 87.1875C42.2292 87.1875 41.25 86.8333 40.5 86.125C39.75 85.375 39.375 84.4167 39.375 83.25V46.6875C39.375 45.4792 39.7292 44.5 40.4375 43.75C41.1875 43 42.125 42.625 43.25 42.625C44.3333 42.625 45.2292 42.9792 45.9375 43.6875C46.6875 44.3958 47.0625 45.4583 47.0625 46.875V47.625C48.0208 45.8333 49.2292 44.5208 50.6875 43.6875C52.1875 42.8542 53.8333 42.4375 55.625 42.4375C57.6667 42.4375 59.4583 42.875 61 43.75C62.5833 44.625 63.8333 46 64.75 47.875L72.625 28.6875C73.2917 27.1458 74.2917 26.375 75.625 26.375C76.5 26.375 77.25 26.6458 77.875 27.1875C78.5 27.7292 78.8125 28.4375 78.8125 29.3125C78.8125 29.8958 78.6875 30.4792 78.4375 31.0625L73.5 42.9375C74.4167 42.6042 75.3542 42.4375 76.3125 42.4375C80.0625 42.4375 83.0417 43.6667 85.25 46.125C87.4583 48.5833 88.5625 51.9792 88.5625 56.3125V83.0625C88.5625 84.3125 88.1875 85.3125 87.4375 86.0625C86.7292 86.8125 85.7917 87.1875 84.625 87.1875C83.4583 87.1875 82.5 86.8125 81.75 86.0625C81 85.3125 80.625 84.3125 80.625 83.0625V56.9375C80.625 54.7292 80.0833 52.9792 79 51.6875C77.9167 50.3542 76.3958 49.6875 74.4375 49.6875C72.4375 49.6875 70.8542 50.375 69.6875 51.75C68.5625 53.125 68 54.9375 68 57.1875V83.0625C68 84.3125 67.625 85.3125 66.875 86.0625C66.125 86.8125 65.1667 87.1875 64 87.1875C62.875 87.1875 61.9375 86.8125 61.1875 86.0625C60.4375 85.3125 60.0625 84.3125 60.0625 83.0625V77.4375L52.25 99.0625C51.6667 100.646 50.6458 101.438 49.1875 101.438C48.3125 101.438 47.5833 101.167 47 100.625C46.4167 100.042 46.125 99.3125 46.125 98.4375C46.125 97.8542 46.25 97.25 46.5 96.625L60.0625 59.125V56.5C60.0625 54.5 59.4792 52.8542 58.3125 51.5625C57.1875 50.2708 55.75 49.625 54 49.625C51.9167 49.625 50.2917 50.3542 49.125 51.8125C47.9583 53.2708 47.375 55.1667 47.375 57.5V83.0625C47.375 84.3125 47 85.3125 46.25 86.0625C45.5417 86.8125 44.6042 87.1875 43.4375 87.1875Z" fill="white"/>
</svg>
