<?xml version="1.0" encoding="UTF-8"?>
<svg xmlns="http://www.w3.org/2000/svg" xmlns:xlink="http://www.w3.org/1999/xlink" width="24" height="25.5" viewBox="0 0 24 25.5" version="1.1">
<g id="surface1">
<path style=" stroke:none;fill-rule:nonzero;fill:rgb(100%,100%,100%);fill-opacity:1;" d="M 12 24.492188 C 13.632812 24.492188 15.167969 24.179688 16.605469 23.554688 C 18.050781 22.929688 19.324219 22.066406 20.425781 20.964844 C 21.527344 19.863281 22.390625 18.59375 23.015625 17.15625 C 23.640625 15.710938 23.953125 14.171875 23.953125 12.539062 C 23.953125 10.90625 23.640625 9.371094 23.015625 7.933594 C 22.390625 6.488281 21.527344 5.214844 20.425781 4.113281 C 19.324219 3.011719 18.050781 2.148438 16.605469 1.523438 C 15.160156 0.898438 13.621094 0.585938 11.988281 0.585938 C 10.355469 0.585938 8.816406 0.898438 7.371094 1.523438 C 5.933594 2.148438 4.664062 3.011719 3.5625 4.113281 C 2.46875 5.214844 1.609375 6.488281 0.984375 7.933594 C 0.359375 9.371094 0.046875 10.90625 0.046875 12.539062 C 0.046875 14.171875 0.359375 15.710938 0.984375 17.15625 C 1.609375 18.59375 2.472656 19.863281 3.574219 20.964844 C 4.675781 22.066406 5.945312 22.929688 7.382812 23.554688 C 8.828125 24.179688 10.367188 24.492188 12 24.492188 Z M 8.15625 16.910156 C 7.929688 16.910156 7.746094 16.84375 7.605469 16.710938 C 7.464844 16.570312 7.394531 16.390625 7.394531 16.171875 L 7.394531 9.316406 C 7.394531 9.089844 7.460938 8.90625 7.59375 8.765625 C 7.734375 8.625 7.910156 8.554688 8.121094 8.554688 C 8.324219 8.554688 8.492188 8.621094 8.625 8.753906 C 8.765625 8.886719 8.835938 9.085938 8.835938 9.351562 L 8.835938 9.492188 C 9.015625 9.15625 9.242188 8.910156 9.515625 8.753906 C 9.796875 8.597656 10.105469 8.519531 10.441406 8.519531 C 10.824219 8.519531 11.160156 8.601562 11.449219 8.765625 C 11.746094 8.929688 11.980469 9.1875 12.152344 9.539062 L 13.628906 5.941406 C 13.753906 5.652344 13.941406 5.507812 14.191406 5.507812 C 14.355469 5.507812 14.496094 5.558594 14.613281 5.660156 C 14.730469 5.761719 14.789062 5.894531 14.789062 6.058594 C 14.789062 6.167969 14.765625 6.277344 14.71875 6.386719 L 13.792969 8.613281 C 13.964844 8.550781 14.140625 8.519531 14.320312 8.519531 C 15.023438 8.519531 15.582031 8.75 15.996094 9.210938 C 16.410156 9.671875 16.617188 10.308594 16.617188 11.121094 L 16.617188 16.136719 C 16.617188 16.371094 16.546875 16.558594 16.40625 16.699219 C 16.273438 16.839844 16.097656 16.910156 15.878906 16.910156 C 15.660156 16.910156 15.480469 16.839844 15.339844 16.699219 C 15.199219 16.558594 15.128906 16.371094 15.128906 16.136719 L 15.128906 11.238281 C 15.128906 10.824219 15.027344 10.496094 14.824219 10.253906 C 14.621094 10.003906 14.335938 9.878906 13.96875 9.878906 C 13.59375 9.878906 13.296875 10.007812 13.078125 10.265625 C 12.867188 10.523438 12.761719 10.863281 12.761719 11.285156 L 12.761719 16.136719 C 12.761719 16.371094 12.691406 16.558594 12.550781 16.699219 C 12.410156 16.839844 12.230469 16.910156 12.011719 16.910156 C 11.800781 16.910156 11.625 16.839844 11.484375 16.699219 C 11.34375 16.558594 11.273438 16.371094 11.273438 16.136719 L 11.273438 15.082031 L 9.808594 19.136719 C 9.699219 19.433594 9.507812 19.582031 9.234375 19.582031 C 9.070312 19.582031 8.933594 19.53125 8.824219 19.429688 C 8.714844 19.320312 8.660156 19.183594 8.660156 19.019531 C 8.660156 18.910156 8.683594 18.796875 8.730469 18.679688 L 11.273438 11.648438 L 11.273438 11.15625 C 11.273438 10.78125 11.164062 10.472656 10.945312 10.230469 C 10.734375 9.988281 10.464844 9.867188 10.136719 9.867188 C 9.746094 9.867188 9.441406 10.003906 9.222656 10.277344 C 9.003906 10.550781 8.894531 10.90625 8.894531 11.34375 L 8.894531 16.136719 C 8.894531 16.371094 8.824219 16.558594 8.683594 16.699219 C 8.550781 16.839844 8.375 16.910156 8.15625 16.910156 Z M 8.15625 16.910156 "/>
</g>
</svg>
