<?xml version="1.0" encoding="UTF-8"?>
<svg xmlns="http://www.w3.org/2000/svg" xmlns:xlink="http://www.w3.org/1999/xlink" width="24" height="18" viewBox="0 0 24 18" version="1.1">
<g id="surface1">
<path style=" stroke:none;fill-rule:nonzero;fill:rgb(100%,100%,100%);fill-opacity:1;" d="M 3.890625 17.457031 L 20.109375 17.457031 C 21.097656 17.457031 21.835938 17.210938 22.320312 16.726562 C 22.808594 16.242188 23.054688 15.523438 23.054688 14.558594 L 23.054688 5.492188 C 23.054688 4.53125 22.808594 3.808594 22.320312 3.328125 C 21.835938 2.839844 21.097656 2.597656 20.109375 2.597656 L 3.890625 2.597656 C 2.910156 2.597656 2.171875 2.839844 1.679688 3.328125 C 1.191406 3.808594 0.945312 4.53125 0.945312 5.492188 L 0.945312 14.558594 C 0.945312 15.523438 1.191406 16.242188 1.679688 16.726562 C 2.171875 17.210938 2.910156 17.457031 3.890625 17.457031 Z M 4.226562 10.03125 C 4.226562 9.824219 4.296875 9.652344 4.433594 9.515625 C 4.578125 9.378906 4.75 9.308594 4.949219 9.308594 L 9.957031 9.308594 C 10.15625 9.308594 10.324219 9.378906 10.460938 9.515625 C 10.601562 9.652344 10.667969 9.824219 10.667969 10.03125 C 10.667969 10.230469 10.601562 10.398438 10.460938 10.539062 C 10.324219 10.675781 10.15625 10.742188 9.957031 10.742188 L 4.949219 10.742188 C 4.75 10.742188 4.578125 10.675781 4.433594 10.539062 C 4.296875 10.398438 4.226562 10.230469 4.226562 10.03125 Z M 13.3125 10.03125 C 13.3125 9.824219 13.382812 9.652344 13.519531 9.515625 C 13.65625 9.378906 13.824219 9.308594 14.023438 9.308594 L 15.816406 9.308594 L 15.816406 7.519531 C 15.816406 7.320312 15.882812 7.148438 16.023438 7.011719 C 16.160156 6.867188 16.328125 6.796875 16.527344 6.796875 C 16.726562 6.796875 16.898438 6.867188 17.035156 7.011719 C 17.171875 7.148438 17.242188 7.320312 17.242188 7.519531 L 17.242188 9.308594 L 19.03125 9.308594 C 19.230469 9.308594 19.398438 9.378906 19.539062 9.515625 C 19.679688 9.652344 19.753906 9.824219 19.753906 10.03125 C 19.753906 10.230469 19.679688 10.398438 19.539062 10.539062 C 19.398438 10.675781 19.230469 10.742188 19.03125 10.742188 L 17.242188 10.742188 L 17.242188 12.535156 C 17.242188 12.726562 17.171875 12.898438 17.035156 13.039062 C 16.898438 13.183594 16.726562 13.253906 16.527344 13.246094 C 16.328125 13.253906 16.160156 13.1875 16.023438 13.050781 C 15.882812 12.90625 15.816406 12.734375 15.816406 12.535156 L 15.816406 10.742188 L 14.023438 10.742188 C 13.824219 10.742188 13.65625 10.675781 13.519531 10.539062 C 13.382812 10.398438 13.3125 10.230469 13.3125 10.03125 Z M 5.070312 3.300781 L 10.105469 3.300781 L 10.105469 1.339844 C 10.105469 0.984375 10.007812 0.707031 9.804688 0.507812 C 9.605469 0.300781 9.328125 0.195312 8.972656 0.195312 L 6.207031 0.195312 C 5.851562 0.195312 5.570312 0.300781 5.371094 0.507812 C 5.171875 0.707031 5.070312 0.984375 5.070312 1.339844 Z M 13.882812 3.300781 L 18.910156 3.300781 L 18.910156 1.339844 C 18.910156 0.984375 18.808594 0.707031 18.609375 0.507812 C 18.414062 0.300781 18.136719 0.195312 17.773438 0.195312 L 15.007812 0.195312 C 14.652344 0.195312 14.375 0.300781 14.175781 0.507812 C 13.980469 0.707031 13.882812 0.984375 13.882812 1.339844 Z M 13.882812 3.300781 "/>
</g>
</svg>
