<svg xmlns="http://www.w3.org/2000/svg" width="24" height="24"><path style="stroke:none;fill-rule:nonzero;fill:#fff;fill-opacity:1" d="M3.89 23.277h16.22c.988 0 1.726-.328 2.21-.976.489-.645.735-1.602.735-2.89V7.323c0-1.281-.246-2.246-.735-2.886-.484-.653-1.222-.973-2.21-.973H3.89c-.98 0-1.718.32-2.21.973-.489.64-.735 1.605-.735 2.886V19.41c0 1.29.246 2.246.735 2.89.492.65 1.23.977 2.21.977Zm.337-9.902c-.004-.258.07-.508.207-.688a.654.654 0 0 1 .515-.277h5.008c.2 0 .367.094.504.277.14.184.207.41.207.688 0 .266-.066.488-.207.676-.133.18-.316.277-.504.273H4.949c-.191.008-.375-.09-.511-.27a1.1 1.1 0 0 1-.211-.679Zm9.085 0c-.003-.258.07-.508.208-.688.132-.18.316-.28.503-.277h1.793v-2.387c0-.261.067-.492.207-.675.13-.188.313-.29.504-.286.2 0 .371.094.508.286.137.18.211.425.207.68v2.382h1.79c.198 0 .366.094.507.277.14.184.215.41.215.688 0 .266-.074.488-.215.676a.62.62 0 0 1-.508.273h-1.789v2.39c0 .255-.07.485-.207.673-.129.187-.316.289-.508.273-.187.016-.37-.078-.504-.258a1.137 1.137 0 0 1-.207-.687v-2.39h-1.793a.633.633 0 0 1-.503-.278 1.126 1.126 0 0 1-.207-.672ZM5.07 4.402h5.035V1.785c0-.472-.097-.844-.3-1.11a.974.974 0 0 0-.832-.413H6.207a.981.981 0 0 0-.836.414c-.2.265-.3.636-.3 1.11Zm8.813 0h5.027V1.785c0-.472-.101-.844-.3-1.11-.196-.273-.473-.413-.837-.413h-2.765a.974.974 0 0 0-.832.414c-.196.265-.293.636-.293 1.11Zm0 0"/></svg>