<svg width="116" height="116" viewBox="0 0 116 116" fill="none" xmlns="http://www.w3.org/2000/svg">
<path d="M20.5625 115.5H96.375C102.917 115.5 107.812 113.875 111.062 110.625C114.354 107.417 116 102.583 116 96.125V19.8125C116 13.3542 114.354 8.52083 111.062 5.3125C107.812 2.0625 102.917 0.4375 96.375 0.4375H20.5625C14.0208 0.4375 9.10417 2.0625 5.8125 5.3125C2.5625 8.52083 0.9375 13.3542 0.9375 19.8125V96.125C0.9375 102.583 2.5625 107.417 5.8125 110.625C9.10417 113.875 14.0208 115.5 20.5625 115.5ZM33.3125 63.375C31.4792 63.375 29.9792 62.9167 28.8125 62C27.6875 61.0417 27.125 59.7083 27.125 58C27.125 56.25 27.6875 54.8958 28.8125 53.9375C29.9375 52.9792 31.4375 52.5 33.3125 52.5H83.8125C85.6875 52.5 87.1667 52.9792 88.25 53.9375C89.375 54.8958 89.9375 56.25 89.9375 58C89.9375 59.7083 89.3542 61.0417 88.1875 62C87.0625 62.9167 85.6042 63.375 83.8125 63.375H33.3125Z" fill="white"/>
</svg>
