<svg width="116" height="116" viewBox="0 0 116 116" fill="none" xmlns="http://www.w3.org/2000/svg">
<path d="M20.5625 115.5H96.375C102.917 115.5 107.812 113.875 111.062 110.625C114.354 107.417 116 102.583 116 96.125V19.8125C116 13.3542 114.354 8.52083 111.062 5.3125C107.812 2.0625 102.917 0.4375 96.375 0.4375H20.5625C14.0208 0.4375 9.10417 2.0625 5.8125 5.3125C2.5625 8.52083 0.9375 13.3542 0.9375 19.8125V96.125C0.9375 102.583 2.5625 107.417 5.8125 110.625C9.10417 113.875 14.0208 115.5 20.5625 115.5ZM20.6875 105.438C17.5625 105.438 15.1667 104.625 13.5 103C11.8333 101.333 11 98.875 11 95.625V20.3125C11 17.0625 11.8333 14.625 13.5 13C15.1667 11.3333 17.5625 10.5 20.6875 10.5H96.25C99.3333 10.5 101.708 11.3333 103.375 13C105.083 14.625 105.938 17.0625 105.938 20.3125V95.625C105.938 98.875 105.083 101.333 103.375 103C101.708 104.625 99.3333 105.438 96.25 105.438H20.6875ZM34.0625 63.1875H83.0625C84.8125 63.1875 86.2292 62.75 87.3125 61.875C88.4375 60.9583 89 59.6667 89 58C89 56.3333 88.4583 55.0417 87.375 54.125C86.3333 53.1667 84.8958 52.6875 83.0625 52.6875H34.0625C32.2292 52.6875 30.7708 53.1667 29.6875 54.125C28.6042 55.0417 28.0625 56.3333 28.0625 58C28.0625 59.6667 28.625 60.9583 29.75 61.875C30.875 62.75 32.3125 63.1875 34.0625 63.1875Z" fill="white"/>
</svg>
