<svg width="149" height="116" viewBox="0 0 149 116" fill="none" xmlns="http://www.w3.org/2000/svg">
<path d="M20.5625 115.438H128.688C135.271 115.438 140.188 113.812 143.438 110.562C146.688 107.354 148.312 102.542 148.312 96.125V19.75C148.312 13.3333 146.688 8.5 143.438 5.25C140.188 2 135.271 0.375 128.688 0.375H20.5625C14.0208 0.375 9.10417 2 5.8125 5.25C2.5625 8.45833 0.9375 13.2917 0.9375 19.75V96.125C0.9375 102.542 2.5625 107.354 5.8125 110.562C9.10417 113.812 14.0208 115.438 20.5625 115.438ZM49.4375 63.4375C47.6042 63.4375 46.1042 62.9792 44.9375 62.0625C43.8125 61.1042 43.25 59.7708 43.25 58.0625C43.25 56.3125 43.8125 54.9583 44.9375 54C46.0625 53.0417 47.5625 52.5625 49.4375 52.5625H99.9375C101.812 52.5625 103.292 53.0417 104.375 54C105.5 54.9583 106.062 56.3125 106.062 58.0625C106.062 59.7708 105.479 61.1042 104.312 62.0625C103.188 62.9792 101.729 63.4375 99.9375 63.4375H49.4375Z" fill="white"/>
</svg>
