<?xml version="1.0" encoding="UTF-8"?>
<svg xmlns="http://www.w3.org/2000/svg" xmlns:xlink="http://www.w3.org/1999/xlink" width="24" height="30.857143" viewBox="0 0 24 30.857143" version="1.1">
<g id="surface1">
<path style=" stroke:none;fill-rule:nonzero;fill:rgb(100%,100%,100%);fill-opacity:1;" d="M 0.738281 26.210938 C 0.738281 27.613281 1.082031 28.660156 1.769531 29.355469 C 2.464844 30.054688 3.503906 30.402344 4.886719 30.402344 L 19.113281 30.402344 C 20.496094 30.402344 21.53125 30.054688 22.21875 29.355469 C 22.914062 28.660156 23.261719 27.613281 23.261719 26.210938 L 23.261719 5.894531 C 23.261719 4.5 22.914062 3.449219 22.21875 2.746094 C 21.53125 2.039062 20.496094 1.6875 19.113281 1.6875 L 4.886719 1.6875 C 3.503906 1.6875 2.464844 2.039062 1.769531 2.746094 C 1.082031 3.449219 0.738281 4.5 0.738281 5.894531 Z M 6.601562 17.238281 C 6.210938 17.238281 5.886719 17.136719 5.636719 16.941406 C 5.398438 16.738281 5.277344 16.449219 5.277344 16.085938 C 5.277344 15.710938 5.398438 15.417969 5.636719 15.214844 C 5.878906 15.007812 6.199219 14.90625 6.601562 14.90625 L 17.425781 14.90625 C 17.824219 14.90625 18.144531 15.007812 18.375 15.214844 C 18.617188 15.417969 18.738281 15.710938 18.738281 16.085938 C 18.738281 16.449219 18.613281 16.738281 18.363281 16.941406 C 18.121094 17.136719 17.808594 17.238281 17.425781 17.238281 Z M 6.601562 17.238281 "/>
</g>
</svg>
