<svg xmlns="http://www.w3.org/2000/svg" width="24" height="24"><path style="stroke:none;fill-rule:nonzero;fill:#fff;fill-opacity:1" d="M23.344 11.84c0-1.805-.215-3.387-.64-4.746-.415-1.332-1.056-2.461-1.849-3.262a5.208 5.208 0 0 0-2.89-1.555 28.23 28.23 0 0 0-2.281-.293 59.725 59.725 0 0 0-2.61-.191c-.89-.05-1.742-.094-2.547-.117a51.897 51.897 0 0 0-2.062-.043c-.742 0-1.36.195-1.86.59-.496.39-.859.957-1.09 1.687-.23.73-.308 1.613-.238 2.64l.239 3.669c.02.383-.028.672-.145.855-.117.176-.309.27-.582.27H1.824v9.914a4.625 4.625 0 0 1 1.918-1.211c.75-.258 1.64-.387 2.676-.387h11.691c1.098 0 2.036-.3 2.813-.894.762-.563 1.39-1.489 1.8-2.641.415-1.172.622-2.598.622-4.285Zm-1.399 0c0 1.855-.336 3.265-1.011 4.23-.68.957-1.618 1.438-2.825 1.438H9.332c-.687 0-1.184-.195-1.492-.59-.3-.395-.485-1.082-.555-2.063l-.613-8.543c-.063-.878.047-1.511.324-1.906.285-.39.774-.586 1.469-.586.57 0 1.254.008 2.043.035.797.032 1.629.067 2.496.122.875.043 1.73.109 2.566.203a28.6 28.6 0 0 1 2.235.297 3.913 3.913 0 0 1 2.23 1.187c.613.621 1.106 1.496 1.418 2.531.328 1.043.492 2.258.492 3.645ZM1.34 23.582c.183.008.36-.11.484-.316.133-.203.207-.48.203-.77V8.063c.004-.286-.07-.56-.203-.75-.125-.211-.3-.325-.484-.32-.184-.005-.36.112-.488.32-.13.195-.2.468-.196.75v14.433c0 .297.067.555.196.77.136.214.3.32.488.32Zm0 0"/></svg>