<svg width="124" height="125" viewBox="0 0 124 125" fill="none" xmlns="http://www.w3.org/2000/svg">
<path d="M96.875 84.625C88.4167 84.625 80.7708 83.3542 73.9375 80.8125C67.1458 78.2708 61.3125 74.6042 56.4375 69.8125C51.6042 65.0208 47.8958 59.25 45.3125 52.5C42.7292 45.7083 41.4375 38.0625 41.4375 29.5625C41.4375 27.2292 41.6042 24.6875 41.9375 21.9375C42.3125 19.1458 42.7917 16.4583 43.375 13.875C43.9583 11.2917 44.625 9.125 45.375 7.375C45.6667 6.66667 45.8542 6.08333 45.9375 5.625C46.0208 5.125 46.0625 4.72917 46.0625 4.4375C46.0625 3.60417 45.75 2.8125 45.125 2.0625C44.5 1.27083 43.5833 0.875 42.375 0.875C42.0417 0.875 41.5417 0.9375 40.875 1.0625C40.2083 1.14583 39.5208 1.3125 38.8125 1.5625C31.1042 4.64583 24.3542 9.27083 18.5625 15.4375C12.7708 21.5625 8.25 28.6458 5 36.6875C1.79167 44.7292 0.1875 53.125 0.1875 61.875C0.1875 71.0833 1.8125 79.5208 5.0625 87.1875C8.35417 94.8542 12.9167 101.521 18.75 107.188C24.625 112.812 31.4792 117.167 39.3125 120.25C47.1875 123.333 55.6875 124.875 64.8125 124.875C71.5625 124.875 78 123.917 84.125 122C90.25 120.125 95.875 117.5 101 114.125C106.125 110.792 110.562 106.917 114.312 102.5C118.062 98.0417 120.896 93.2708 122.812 88.1875C123.104 87.4375 123.292 86.75 123.375 86.125C123.458 85.4583 123.5 84.9792 123.5 84.6875C123.5 83.5208 123.104 82.5833 122.312 81.875C121.521 81.1667 120.688 80.8125 119.812 80.8125C119.104 80.8125 118.208 81 117.125 81.375C114.708 82.1667 111.688 82.9167 108.062 83.625C104.438 84.2917 100.708 84.625 96.875 84.625Z" fill="white"/>
</svg>
