<svg xmlns="http://www.w3.org/2000/svg" width="24" height="24"><path style="stroke:none;fill-rule:nonzero;fill:#fff;fill-opacity:1" d="M12 23.05c1.633 0 3.168-.292 4.605-.882a12.22 12.22 0 0 0 3.82-2.438 11.467 11.467 0 0 0 2.59-3.582c.626-1.363.938-2.808.938-4.347a10.2 10.2 0 0 0-.937-4.332 11.53 11.53 0 0 0-2.59-3.598 12.361 12.361 0 0 0-3.82-2.437A12.166 12.166 0 0 0 11.987.55c-1.633 0-3.172.293-4.617.883A12.307 12.307 0 0 0 3.562 3.87 11.523 11.523 0 0 0 .985 7.465 10.2 10.2 0 0 0 .047 11.8c0 1.539.312 2.984.937 4.347a11.467 11.467 0 0 0 2.59 3.582 12.236 12.236 0 0 0 3.809 2.438c1.445.59 2.984.883 4.617.883Zm0-1.874a10.222 10.222 0 0 1-7.055-2.734 9.548 9.548 0 0 1-2.133-2.989 8.83 8.83 0 0 1-.761-3.652c0-1.301.254-2.52.761-3.649A9.52 9.52 0 0 1 4.946 5.16 9.82 9.82 0 0 1 8.11 3.156c1.204-.488 2.496-.73 3.88-.73 1.382 0 2.675.242 3.878.73a9.701 9.701 0 0 1 3.176 2.004 9.432 9.432 0 0 1 2.145 2.992 8.685 8.685 0 0 1 .773 3.649c0 1.3-.258 2.52-.773 3.652a9.22 9.22 0 0 1-2.133 2.988A10.222 10.222 0 0 1 12 21.176Zm-.164-2.988a6.513 6.513 0 0 0 2.473-.465 6.496 6.496 0 0 0 1.98-1.223 4.9 4.9 0 0 0 1.242-1.723c.094-.203.086-.375-.023-.515-.11-.14-.285-.172-.528-.102-.293.09-.59.16-.89.211-.36.066-.73.098-1.113.098-1.102 0-2.063-.203-2.883-.617a4.6 4.6 0 0 1-1.899-1.774c-.445-.765-.668-1.668-.668-2.715 0-.328.04-.695.118-1.09.078-.398.168-.722.27-.972.093-.207.073-.367-.06-.485-.132-.125-.328-.136-.585-.035a5.572 5.572 0 0 0-1.993 1.27c-1.156 1.168-1.797 2.707-1.793 4.3 0 .856.16 1.637.48 2.352a5.609 5.609 0 0 0 1.337 1.84 6.18 6.18 0 0 0 2.027 1.215c.774.285 1.61.43 2.508.43Zm3.492-7.036c.156 0 .242-.082.258-.242.062-.496.129-.883.2-1.16.077-.285.194-.504.35-.652.157-.145.387-.254.692-.328.313-.075.735-.149 1.266-.223.18-.016.27-.098.27-.254 0-.145-.083-.227-.247-.242-.531-.094-.949-.184-1.254-.266-.304-.078-.539-.191-.703-.328-.156-.148-.273-.36-.351-.629a14.48 14.48 0 0 1-.223-1.148c-.016-.153-.102-.23-.258-.23-.148 0-.23.077-.246.23-.078.492-.156.883-.234 1.168-.07.289-.184.504-.34.652-.156.148-.387.258-.692.332-.304.07-.73.145-1.277.219-.164.015-.246.097-.246.242 0 .148.082.234.246.254.547.098.973.183 1.277.265.313.083.547.192.704.333.156.136.27.347.34.628.078.27.152.649.222 1.137.016.16.098.242.246.242Zm0 0"/></svg>