<svg width="128" height="128" viewBox="0 0 128 128" fill="none" xmlns="http://www.w3.org/2000/svg">
<path d="M127.688 63.875C127.688 55.1667 126.021 46.9792 122.688 39.3125C119.354 31.6042 114.75 24.8125 108.875 18.9375C103.042 13.0625 96.2708 8.45833 88.5625 5.125C80.8958 1.79167 72.7083 0.125 64 0.125C55.2917 0.125 47.0833 1.79167 39.375 5.125C31.7083 8.45833 24.9167 13.0625 19 18.9375C13.125 24.8125 8.52083 31.6042 5.1875 39.3125C1.85417 46.9792 0.1875 55.1667 0.1875 63.875C0.1875 72.5833 1.85417 80.7917 5.1875 88.5C8.52083 96.1667 13.125 102.938 19 108.812C24.875 114.688 31.6458 119.292 39.3125 122.625C47.0208 125.958 55.2292 127.625 63.9375 127.625C72.6458 127.625 80.8333 125.958 88.5 122.625C96.2083 119.292 103 114.688 108.875 108.812C114.75 102.938 119.354 96.1667 122.688 88.5C126.021 80.7917 127.688 72.5833 127.688 63.875ZM85.75 63.875C85.75 71.7083 84.6458 79 82.4375 85.75C80.2292 92.4583 77.0625 98.4375 72.9375 103.688C68.8125 108.938 63.875 113.25 58.125 116.625C51.4583 115.917 45.25 114.062 39.5 111.062C33.75 108.104 28.7292 104.25 24.4375 99.5C20.1458 94.75 16.7917 89.3542 14.375 83.3125C12 77.2292 10.8125 70.75 10.8125 63.875C10.8125 57.0417 12 50.6042 14.375 44.5625C16.7917 38.5208 20.125 33.125 24.375 28.375C28.625 23.625 33.6042 19.75 39.3125 16.75C45.0208 13.75 51.1875 11.875 57.8125 11.125C63.6458 14.5833 68.6458 18.9583 72.8125 24.25C76.9792 29.5 80.1667 35.5 82.375 42.25C84.625 48.9583 85.75 56.1667 85.75 63.875Z" fill="white"/>
</svg>
