<?xml version="1.0" encoding="UTF-8"?>
<svg xmlns="http://www.w3.org/2000/svg" xmlns:xlink="http://www.w3.org/1999/xlink" width="24" height="25.5" viewBox="0 0 24 25.5" version="1.1">
<g id="surface1">
<path style=" stroke:none;fill-rule:nonzero;fill:rgb(100%,100%,100%);fill-opacity:1;" d="M 18.5625 16.617188 C 16.976562 16.617188 15.542969 16.378906 14.261719 15.902344 C 12.988281 15.425781 11.894531 14.738281 10.980469 13.839844 C 10.074219 12.941406 9.378906 11.859375 8.894531 10.59375 C 8.410156 9.320312 8.167969 7.886719 8.167969 6.292969 C 8.167969 5.855469 8.199219 5.378906 8.261719 4.863281 C 8.332031 4.339844 8.421875 3.835938 8.53125 3.351562 C 8.640625 2.867188 8.765625 2.460938 8.90625 2.132812 C 8.960938 2 8.996094 1.890625 9.011719 1.804688 C 9.027344 1.710938 9.035156 1.636719 9.035156 1.582031 C 9.035156 1.425781 8.976562 1.277344 8.859375 1.136719 C 8.742188 0.988281 8.570312 0.914062 8.34375 0.914062 C 8.28125 0.914062 8.1875 0.925781 8.0625 0.949219 C 7.9375 0.964844 7.808594 0.996094 7.675781 1.042969 C 6.230469 1.621094 4.964844 2.488281 3.878906 3.644531 C 2.792969 4.792969 1.945312 6.121094 1.335938 7.628906 C 0.734375 9.136719 0.433594 10.710938 0.433594 12.351562 C 0.433594 14.078125 0.738281 15.660156 1.347656 17.097656 C 1.964844 18.535156 2.820312 19.785156 3.914062 20.847656 C 5.015625 21.902344 6.300781 22.71875 7.769531 23.296875 C 9.246094 23.875 10.839844 24.164062 12.550781 24.164062 C 13.816406 24.164062 15.023438 23.984375 16.171875 23.625 C 17.320312 23.273438 18.375 22.78125 19.335938 22.148438 C 20.296875 21.523438 21.128906 20.796875 21.832031 19.96875 C 22.535156 19.132812 23.066406 18.238281 23.425781 17.285156 C 23.480469 17.144531 23.515625 17.015625 23.53125 16.898438 C 23.546875 16.773438 23.554688 16.683594 23.554688 16.628906 C 23.554688 16.410156 23.480469 16.234375 23.332031 16.101562 C 23.183594 15.96875 23.027344 15.902344 22.863281 15.902344 C 22.730469 15.902344 22.5625 15.9375 22.359375 16.007812 C 21.90625 16.15625 21.339844 16.296875 20.660156 16.429688 C 19.980469 16.554688 19.28125 16.617188 18.5625 16.617188 Z M 18.5625 16.617188 "/>
</g>
</svg>
