<svg width="16" height="19" viewBox="0 0 16 19" fill="none" xmlns="http://www.w3.org/2000/svg">
<path d="M7.44531 18.7109C8.38802 18.7109 9.26042 18.5599 10.0625 18.2578C10.8646 17.9557 11.5677 17.5182 12.1719 16.9453C12.7812 16.3724 13.2604 15.6797 13.6094 14.8672C13.7292 14.5807 13.7161 14.362 13.5703 14.2109C13.4453 14.0807 13.2552 14.0651 13 14.1641C12.6771 14.2943 12.3307 14.3906 11.9609 14.4531C11.5911 14.5156 11.1927 14.5469 10.7656 14.5469C9.58854 14.5469 8.5625 14.3151 7.6875 13.8516C6.81771 13.3828 6.14323 12.724 5.66406 11.875C5.1849 11.0208 4.94531 10.0156 4.94531 8.85938C4.94531 8.41667 4.98438 7.97135 5.0625 7.52344C5.14062 7.07552 5.24479 6.71615 5.375 6.44531C5.51562 6.16406 5.52083 5.94531 5.39062 5.78906C5.25 5.6224 5.02083 5.60156 4.70312 5.72656C3.90625 6.04427 3.20573 6.51823 2.60156 7.14844C2.0026 7.77865 1.53646 8.51562 1.20312 9.35938C0.869792 10.2031 0.703125 11.1016 0.703125 12.0547C0.703125 13.0026 0.867188 13.8828 1.19531 14.6953C1.52344 15.5026 1.98958 16.2057 2.59375 16.8047C3.19792 17.4089 3.91146 17.8776 4.73438 18.2109C5.55729 18.5443 6.46094 18.7109 7.44531 18.7109ZM11.7422 4.21094H9.96875V4.17188L11.7891 1.77344C11.8672 1.66406 11.9245 1.57292 11.9609 1.5C11.9974 1.42708 12.0156 1.35677 12.0156 1.28906C12.0156 1.16406 11.9714 1.06771 11.8828 1C11.7995 0.927083 11.6927 0.890625 11.5625 0.890625H9.0625C8.94271 0.890625 8.84375 0.927083 8.76562 1C8.6875 1.07292 8.64844 1.17188 8.64844 1.29688C8.64844 1.42188 8.6875 1.52083 8.76562 1.59375C8.84375 1.66667 8.94271 1.70312 9.0625 1.70312H10.7344V1.74219L8.89062 4.13281C8.8125 4.23698 8.75521 4.32552 8.71875 4.39844C8.6875 4.46615 8.67188 4.54167 8.67188 4.625C8.67188 4.73958 8.71094 4.83333 8.78906 4.90625C8.8724 4.97917 8.97917 5.01562 9.10938 5.01562H11.7422C11.862 5.01562 11.9609 4.98177 12.0391 4.91406C12.1172 4.84115 12.1562 4.73958 12.1562 4.60938C12.1562 4.48958 12.1172 4.39323 12.0391 4.32031C11.9609 4.2474 11.862 4.21094 11.7422 4.21094ZM15.3984 7.20312H14.1484V7.17188L15.4453 5.46875C15.5182 5.36979 15.5703 5.28646 15.6016 5.21875C15.638 5.15104 15.6562 5.08073 15.6562 5.00781C15.6562 4.89844 15.6146 4.8099 15.5312 4.74219C15.4531 4.67448 15.3542 4.64062 15.2344 4.64062H13.3203C13.2109 4.64062 13.1198 4.67708 13.0469 4.75C12.974 4.81771 12.9375 4.90625 12.9375 5.01562C12.9375 5.14062 12.974 5.23958 13.0469 5.3125C13.1198 5.38021 13.2109 5.41406 13.3203 5.41406H14.4453V5.44531L13.1641 7.13281C13.0911 7.22656 13.0391 7.3099 13.0078 7.38281C12.9766 7.45052 12.9609 7.52344 12.9609 7.60156C12.9609 7.70573 12.9974 7.79427 13.0703 7.86719C13.1484 7.9349 13.2474 7.96875 13.3672 7.96875H15.3984C15.513 7.96875 15.6068 7.9349 15.6797 7.86719C15.7526 7.79948 15.7891 7.70573 15.7891 7.58594C15.7891 7.33073 15.6589 7.20312 15.3984 7.20312ZM11.9531 9.86719H10.8906V9.83594L11.9922 8.375C12.0651 8.27604 12.1172 8.19531 12.1484 8.13281C12.1797 8.07031 12.1953 8.00521 12.1953 7.9375C12.1953 7.82812 12.1562 7.74219 12.0781 7.67969C12 7.61719 11.9036 7.58594 11.7891 7.58594H10.1094C10.0052 7.58594 9.91667 7.61979 9.84375 7.6875C9.77604 7.75 9.74219 7.83594 9.74219 7.94531C9.74219 8.0651 9.77604 8.15625 9.84375 8.21875C9.91667 8.28125 10.0052 8.3125 10.1094 8.3125H11.0469V8.35156L9.96094 9.80469C9.88802 9.89323 9.83594 9.97135 9.80469 10.0391C9.77865 10.1016 9.76562 10.1719 9.76562 10.25C9.76562 10.349 9.79948 10.4323 9.86719 10.5C9.9401 10.5677 10.0339 10.6016 10.1484 10.6016H11.9531C12.0625 10.6016 12.151 10.5677 12.2188 10.5C12.2865 10.4323 12.3203 10.3438 12.3203 10.2344C12.3203 9.98958 12.1979 9.86719 11.9531 9.86719Z" fill="white"/>
</svg>
