<svg width="16" height="17" viewBox="0 0 16 17" fill="none" xmlns="http://www.w3.org/2000/svg">
<path d="M12.375 11.0781C11.3177 11.0781 10.362 10.9193 9.50781 10.6016C8.65885 10.2839 7.92969 9.82552 7.32031 9.22656C6.71615 8.6276 6.2526 7.90625 5.92969 7.0625C5.60677 6.21354 5.44531 5.25781 5.44531 4.19531C5.44531 3.90365 5.46615 3.58594 5.50781 3.24219C5.55469 2.89323 5.61458 2.55729 5.6875 2.23438C5.76042 1.91146 5.84375 1.64062 5.9375 1.42188C5.97396 1.33333 5.9974 1.26042 6.00781 1.20312C6.01823 1.14062 6.02344 1.09115 6.02344 1.05469C6.02344 0.950521 5.98438 0.851562 5.90625 0.757812C5.82812 0.658854 5.71354 0.609375 5.5625 0.609375C5.52083 0.609375 5.45833 0.617188 5.375 0.632812C5.29167 0.643229 5.20573 0.664062 5.11719 0.695312C4.15365 1.08073 3.3099 1.65885 2.58594 2.42969C1.86198 3.19531 1.29688 4.08073 0.890625 5.08594C0.489583 6.09115 0.289062 7.14062 0.289062 8.23438C0.289062 9.38542 0.492188 10.4401 0.898438 11.3984C1.3099 12.3568 1.88021 13.1901 2.60938 13.8984C3.34375 14.6016 4.20052 15.1458 5.17969 15.5312C6.16406 15.9167 7.22656 16.1094 8.36719 16.1094C9.21094 16.1094 10.0156 15.9896 10.7812 15.75C11.5469 15.5156 12.25 15.1875 12.8906 14.7656C13.5312 14.349 14.0859 13.8646 14.5547 13.3125C15.0234 12.7552 15.3776 12.1589 15.6172 11.5234C15.6536 11.4297 15.6771 11.3438 15.6875 11.2656C15.6979 11.1823 15.7031 11.1224 15.7031 11.0859C15.7031 10.9401 15.6536 10.8229 15.5547 10.7344C15.4557 10.6458 15.3516 10.6016 15.2422 10.6016C15.1536 10.6016 15.0417 10.625 14.9062 10.6719C14.6042 10.7708 14.2266 10.8646 13.7734 10.9531C13.3203 11.0365 12.8542 11.0781 12.375 11.0781Z" fill="white"/>
</svg>
