<svg xmlns="http://www.w3.org/2000/svg" width="24" height="24"><path style="stroke:none;fill-rule:nonzero;fill:#fff;fill-opacity:1" d="M18.563 15.64c-1.586 0-3.02-.226-4.301-.675-1.274-.445-2.367-1.094-3.282-1.938a8.512 8.512 0 0 1-2.085-3.054c-.485-1.2-.727-2.551-.727-4.051 0-.41.031-.86.094-1.344.07-.492.16-.969.27-1.422.109-.457.234-.84.374-1.148.055-.125.09-.227.106-.309.015-.09.023-.16.023-.21a.623.623 0 0 0-.176-.419C8.742.93 8.57.86 8.344.86a1.73 1.73 0 0 0-.281.035 1.848 1.848 0 0 0-.387.085 10.58 10.58 0 0 0-3.797 2.45 11.854 11.854 0 0 0-2.543 3.75 11.265 11.265 0 0 0-.902 4.445c0 1.625.304 3.113.914 4.469a10.811 10.811 0 0 0 2.566 3.527c1.113 1 2.422 1.781 3.856 2.305 1.476.543 3.07.816 4.78.816 1.266 0 2.473-.168 3.622-.508a12.396 12.396 0 0 0 3.164-1.39 11.209 11.209 0 0 0 2.496-2.051 8.614 8.614 0 0 0 1.594-2.523c.054-.133.09-.254.105-.368.016-.117.024-.199.024-.254a.61.61 0 0 0-.223-.492.732.732 0 0 0-.469-.191c-.133 0-.3.035-.504.101-.453.141-1.02.274-1.699.399-.68.117-1.379.176-2.098.176Zm0 0"/></svg>