<svg width="146" height="140" viewBox="0 0 146 140" fill="none" xmlns="http://www.w3.org/2000/svg">
<path d="M14.3125 91.5H141.25C142.333 91.5 143.25 91.125 144 90.375C144.792 89.625 145.188 88.6875 145.188 87.5625C145.188 86.4375 144.792 85.5 144 84.75C143.25 84 142.333 83.625 141.25 83.625H14.3125C13.1875 83.625 12.25 84 11.5 84.75C10.75 85.5 10.375 86.4375 10.375 87.5625C10.375 88.6875 10.75 89.625 11.5 90.375C12.25 91.125 13.1875 91.5 14.3125 91.5ZM4.875 115.562H131.812C132.938 115.562 133.875 115.167 134.625 114.375C135.375 113.625 135.75 112.688 135.75 111.562C135.75 110.438 135.375 109.5 134.625 108.75C133.875 108 132.938 107.625 131.812 107.625H4.875C3.79167 107.625 2.85417 108 2.0625 108.75C1.3125 109.5 0.9375 110.438 0.9375 111.562C0.9375 112.688 1.3125 113.625 2.0625 114.375C2.85417 115.167 3.79167 115.562 4.875 115.562ZM14.3125 139.562H141.25C142.333 139.562 143.25 139.188 144 138.438C144.792 137.688 145.188 136.75 145.188 135.625C145.188 134.458 144.792 133.5 144 132.75C143.25 132 142.333 131.625 141.25 131.625H14.3125C13.1875 131.625 12.25 132 11.5 132.75C10.75 133.5 10.375 134.458 10.375 135.625C10.375 136.75 10.75 137.688 11.5 138.438C12.25 139.188 13.1875 139.562 14.3125 139.562ZM35.6875 76.3125H113.688C115.646 73.8125 117.312 71 118.688 67.875C119.771 65.375 119.625 63.4167 118.25 62C117.708 61.4583 116.979 61.1458 116.062 61.0625C115.188 60.9375 114.188 61.0833 113.062 61.5C110.979 62.2917 108.688 62.8958 106.188 63.3125C103.688 63.7292 100.917 63.9375 97.875 63.9375C89.8333 63.9375 82.8542 62.375 76.9375 59.25C71.0208 56.0833 66.4375 51.625 63.1875 45.875C59.9792 40.0833 58.375 33.2708 58.375 25.4375C58.375 22.3125 58.625 19.2292 59.125 16.1875C59.6667 13.1458 60.375 10.75 61.25 9C62.375 6.75 62.3333 4.83333 61.125 3.25C59.8333 1.70833 57.8333 1.47917 55.125 2.5625C49.4583 4.85417 44.4583 8.27083 40.125 12.8125C35.8333 17.3125 32.4792 22.5625 30.0625 28.5625C27.6875 34.5208 26.5 40.9167 26.5 47.75C26.5 53.1667 27.2917 58.3125 28.875 63.1875C30.4583 68.0208 32.7292 72.3958 35.6875 76.3125Z" fill="white"/>
</svg>
