<?xml version="1.0" encoding="UTF-8"?>
<svg xmlns="http://www.w3.org/2000/svg" xmlns:xlink="http://www.w3.org/1999/xlink" width="24" height="28.5" viewBox="0 0 24 28.5" version="1.1">
<g id="surface1">
<path style=" stroke:none;fill-rule:nonzero;fill:rgb(100%,100%,100%);fill-opacity:1;" d="M 11.308594 27.75 C 12.746094 27.75 14.074219 27.519531 15.292969 27.058594 C 16.511719 26.597656 17.578125 25.929688 18.492188 25.054688 C 19.40625 24.1875 20.128906 23.140625 20.660156 21.914062 C 20.761719 21.664062 20.800781 21.445312 20.777344 21.257812 C 20.753906 21.070312 20.6875 20.917969 20.578125 20.800781 C 20.476562 20.699219 20.339844 20.640625 20.167969 20.625 C 19.996094 20.601562 19.804688 20.632812 19.59375 20.71875 C 19.15625 20.890625 18.664062 21.027344 18.117188 21.128906 C 17.578125 21.222656 16.96875 21.269531 16.289062 21.269531 C 14.546875 21.269531 13.027344 20.925781 11.730469 20.238281 C 10.441406 19.542969 9.441406 18.566406 8.730469 17.308594 C 8.027344 16.050781 7.675781 14.566406 7.675781 12.855469 C 7.675781 12.144531 7.734375 11.464844 7.851562 10.816406 C 7.976562 10.160156 8.128906 9.648438 8.308594 9.28125 C 8.542969 8.8125 8.546875 8.445312 8.320312 8.179688 C 8.203125 8.046875 8.046875 7.964844 7.851562 7.933594 C 7.65625 7.902344 7.421875 7.941406 7.148438 8.050781 C 5.953125 8.542969 4.898438 9.265625 3.984375 10.21875 C 3.070312 11.164062 2.355469 12.273438 1.839844 13.546875 C 1.332031 14.820312 1.078125 16.1875 1.078125 17.648438 C 1.078125 19.078125 1.324219 20.40625 1.816406 21.632812 C 2.316406 22.851562 3.019531 23.917969 3.925781 24.832031 C 4.839844 25.753906 5.921875 26.46875 7.171875 26.976562 C 8.421875 27.492188 9.800781 27.75 11.308594 27.75 Z M 11.332031 25.957031 C 10.089844 25.957031 8.949219 25.742188 7.910156 25.3125 C 6.871094 24.890625 5.972656 24.300781 5.214844 23.542969 C 4.464844 22.777344 3.882812 21.882812 3.46875 20.859375 C 3.0625 19.828125 2.859375 18.710938 2.859375 17.507812 C 2.859375 16.53125 3.003906 15.597656 3.292969 14.707031 C 3.582031 13.816406 3.992188 12.996094 4.523438 12.246094 C 5.054688 11.496094 5.683594 10.84375 6.410156 10.289062 C 6.269531 10.671875 6.160156 11.136719 6.082031 11.683594 C 6.003906 12.230469 5.964844 12.785156 5.964844 13.347656 C 5.964844 15.277344 6.378906 16.964844 7.207031 18.410156 C 8.035156 19.855469 9.191406 20.980469 10.675781 21.785156 C 12.160156 22.589844 13.882812 22.992188 15.84375 22.992188 C 16.375 22.992188 16.863281 22.964844 17.308594 22.910156 C 17.753906 22.847656 18.101562 22.773438 18.351562 22.6875 C 17.867188 23.359375 17.261719 23.941406 16.535156 24.433594 C 15.816406 24.925781 15.015625 25.300781 14.132812 25.558594 C 13.25 25.824219 12.316406 25.957031 11.332031 25.957031 Z M 17.636719 6 L 14.976562 6 L 14.976562 5.941406 L 17.707031 2.34375 C 17.824219 2.179688 17.910156 2.042969 17.964844 1.933594 C 18.019531 1.824219 18.046875 1.71875 18.046875 1.617188 C 18.046875 1.429688 17.980469 1.285156 17.847656 1.183594 C 17.722656 1.074219 17.5625 1.019531 17.367188 1.019531 L 13.617188 1.019531 C 13.4375 1.019531 13.289062 1.074219 13.171875 1.183594 C 13.054688 1.292969 12.996094 1.441406 12.996094 1.628906 C 12.996094 1.816406 13.054688 1.964844 13.171875 2.074219 C 13.289062 2.183594 13.4375 2.238281 13.617188 2.238281 L 16.125 2.238281 L 16.125 2.296875 L 13.359375 5.882812 C 13.242188 6.046875 13.15625 6.179688 13.101562 6.28125 C 13.054688 6.382812 13.03125 6.496094 13.03125 6.621094 C 13.03125 6.792969 13.089844 6.933594 13.207031 7.042969 C 13.332031 7.152344 13.492188 7.207031 13.6875 7.207031 L 17.636719 7.207031 C 17.816406 7.207031 17.964844 7.15625 18.082031 7.054688 C 18.199219 6.945312 18.257812 6.792969 18.257812 6.597656 C 18.257812 6.417969 18.199219 6.273438 18.082031 6.164062 C 17.964844 6.054688 17.816406 6 17.636719 6 Z M 23.121094 10.488281 L 21.246094 10.488281 L 21.246094 10.441406 L 23.191406 7.886719 C 23.300781 7.746094 23.378906 7.625 23.425781 7.523438 C 23.480469 7.414062 23.507812 7.304688 23.507812 7.195312 C 23.507812 7.03125 23.445312 6.898438 23.320312 6.796875 C 23.203125 6.695312 23.054688 6.644531 22.875 6.644531 L 20.003906 6.644531 C 19.839844 6.644531 19.703125 6.699219 19.59375 6.808594 C 19.484375 6.910156 19.429688 7.042969 19.429688 7.207031 C 19.429688 7.394531 19.484375 7.542969 19.59375 7.652344 C 19.703125 7.753906 19.839844 7.804688 20.003906 7.804688 L 21.691406 7.804688 L 21.691406 7.851562 L 19.769531 10.382812 C 19.660156 10.523438 19.582031 10.648438 19.535156 10.757812 C 19.488281 10.859375 19.464844 10.96875 19.464844 11.085938 C 19.464844 11.242188 19.519531 11.375 19.628906 11.484375 C 19.746094 11.585938 19.894531 11.636719 20.074219 11.636719 L 23.121094 11.636719 C 23.292969 11.636719 23.433594 11.585938 23.542969 11.484375 C 23.652344 11.382812 23.707031 11.242188 23.707031 11.0625 C 23.707031 10.679688 23.511719 10.488281 23.121094 10.488281 Z M 17.953125 14.484375 L 16.359375 14.484375 L 16.359375 14.4375 L 18.011719 12.246094 C 18.121094 12.097656 18.199219 11.976562 18.246094 11.882812 C 18.292969 11.789062 18.316406 11.691406 18.316406 11.589844 C 18.316406 11.425781 18.257812 11.296875 18.140625 11.203125 C 18.023438 11.109375 17.878906 11.0625 17.707031 11.0625 L 15.1875 11.0625 C 15.03125 11.0625 14.898438 11.113281 14.789062 11.214844 C 14.6875 11.308594 14.636719 11.4375 14.636719 11.601562 C 14.636719 11.78125 14.6875 11.917969 14.789062 12.011719 C 14.898438 12.105469 15.03125 12.152344 15.1875 12.152344 L 16.59375 12.152344 L 16.59375 12.210938 L 14.964844 14.390625 C 14.855469 14.523438 14.777344 14.640625 14.730469 14.742188 C 14.691406 14.835938 14.671875 14.941406 14.671875 15.058594 C 14.671875 15.207031 14.722656 15.332031 14.824219 15.433594 C 14.933594 15.535156 15.074219 15.585938 15.246094 15.585938 L 17.953125 15.585938 C 18.117188 15.585938 18.25 15.535156 18.351562 15.433594 C 18.453125 15.332031 18.503906 15.199219 18.503906 15.035156 C 18.503906 14.667969 18.320312 14.484375 17.953125 14.484375 Z M 17.953125 14.484375 "/>
</g>
</svg>
