<svg xmlns="http://www.w3.org/2000/svg" width="24" height="24"><path style="stroke:none;fill-rule:nonzero;fill:#fff;fill-opacity:1" d="M23.953 11.8a10.2 10.2 0 0 0-.937-4.331 11.53 11.53 0 0 0-2.59-3.598 12.078 12.078 0 0 0-3.809-2.437A12.106 12.106 0 0 0 12.012.55c-1.633 0-3.172.293-4.617.883a12.407 12.407 0 0 0-3.82 2.437 11.514 11.514 0 0 0-2.59 3.594A10.2 10.2 0 0 0 .046 11.8c0 1.539.312 2.984.937 4.347a11.467 11.467 0 0 0 2.59 3.582 12.236 12.236 0 0 0 3.809 2.438c1.445.59 2.984.883 4.617.883s3.168-.293 4.605-.883a12.22 12.22 0 0 0 3.82-2.438 11.467 11.467 0 0 0 2.59-3.582c.626-1.363.938-2.808.938-4.347Zm-2.004 0a8.757 8.757 0 0 1-.668 3.41 9.363 9.363 0 0 1-1.863 2.856 9.893 9.893 0 0 1-2.8 2.04c-1.075.535-2.25.87-3.458.992a10.232 10.232 0 0 1-2.812-2.317 9.839 9.839 0 0 1-1.77-3.129c-.398-1.18-.598-2.46-.598-3.851 0-1.383.204-2.66.61-3.836a9.763 9.763 0 0 1 1.77-3.145 10.299 10.299 0 0 1 2.859-2.316c1.199.129 2.367.473 3.433 1.004a9.604 9.604 0 0 1 2.778 2.039 9.105 9.105 0 0 1 1.851 2.848 8.751 8.751 0 0 1 .668 3.406Zm0 0"/></svg>