<svg width="16" height="17" viewBox="0 0 16 17" fill="none" xmlns="http://www.w3.org/2000/svg">
<path d="M6.8125 16.8438C7.75521 16.8438 8.6276 16.6927 9.42969 16.3906C10.2318 16.0885 10.9349 15.651 11.5391 15.0781C12.1432 14.5052 12.6198 13.8125 12.9688 13C13.0938 12.7135 13.0807 12.4948 12.9297 12.3438C12.8047 12.2135 12.6172 12.1979 12.3672 12.2969C12.0443 12.4271 11.6979 12.5234 11.3281 12.5859C10.9583 12.6484 10.5599 12.6797 10.1328 12.6797C8.95573 12.6797 7.92969 12.4479 7.05469 11.9844C6.1849 11.5156 5.51042 10.8568 5.03125 10.0078C4.55208 9.15365 4.3125 8.14844 4.3125 6.99219C4.3125 6.54948 4.35156 6.10417 4.42969 5.65625C4.50781 5.20833 4.61198 4.84896 4.74219 4.57812C4.88281 4.29688 4.88542 4.07812 4.75 3.92188C4.61458 3.75521 4.38802 3.73438 4.07031 3.85938C3.26823 4.17708 2.56771 4.65104 1.96875 5.28125C1.36979 5.91146 0.901042 6.64844 0.5625 7.49219C0.229167 8.33594 0.0625 9.23438 0.0625 10.1875C0.0625 11.1354 0.226562 12.0156 0.554688 12.8281C0.888021 13.6354 1.35677 14.3411 1.96094 14.9453C2.5651 15.5443 3.27865 16.0104 4.10156 16.3438C4.92448 16.6771 5.82812 16.8438 6.8125 16.8438ZM12.6875 9.70312C12.8438 9.70312 12.9323 9.61719 12.9531 9.44531C13.0156 8.92448 13.0833 8.51562 13.1562 8.21875C13.2292 7.92188 13.3411 7.70052 13.4922 7.55469C13.6484 7.40365 13.8776 7.28906 14.1797 7.21094C14.4818 7.13281 14.8984 7.04948 15.4297 6.96094C15.6068 6.9349 15.6953 6.84896 15.6953 6.70312C15.6953 6.55729 15.6172 6.46875 15.4609 6.4375C14.9297 6.33333 14.5078 6.24219 14.1953 6.16406C13.888 6.08594 13.6562 5.97396 13.5 5.82812C13.3438 5.68229 13.2292 5.46354 13.1562 5.17188C13.0833 4.88021 13.0156 4.47396 12.9531 3.95312C12.9323 3.78125 12.8438 3.69531 12.6875 3.69531C12.5312 3.69531 12.4427 3.77865 12.4219 3.94531C12.3542 4.47135 12.2839 4.88542 12.2109 5.1875C12.1432 5.48958 12.0312 5.71875 11.875 5.875C11.724 6.02604 11.4948 6.13802 11.1875 6.21094C10.8802 6.28385 10.4557 6.35938 9.91406 6.4375C9.84635 6.44271 9.78906 6.47135 9.74219 6.52344C9.70052 6.57031 9.67969 6.63021 9.67969 6.70312C9.67969 6.84896 9.75781 6.9349 9.91406 6.96094C10.4557 7.0651 10.8802 7.15885 11.1875 7.24219C11.4948 7.32552 11.724 7.4401 11.875 7.58594C12.0312 7.73177 12.1432 7.95052 12.2109 8.24219C12.2839 8.53385 12.3542 8.9401 12.4219 9.46094C12.4323 9.52865 12.4609 9.58594 12.5078 9.63281C12.5547 9.67969 12.6146 9.70312 12.6875 9.70312ZM8.95312 4.41406C9.04167 4.41406 9.09375 4.36719 9.10938 4.27344C9.17188 3.94531 9.22656 3.6901 9.27344 3.50781C9.32552 3.32031 9.39583 3.17969 9.48438 3.08594C9.57812 2.98698 9.71875 2.91146 9.90625 2.85938C10.099 2.80729 10.3646 2.7474 10.7031 2.67969C10.8021 2.65885 10.8516 2.60417 10.8516 2.51562C10.8516 2.42708 10.8021 2.3724 10.7031 2.35156C10.3646 2.28385 10.1016 2.22135 9.91406 2.16406C9.73177 2.10677 9.59375 2.03125 9.5 1.9375C9.41146 1.84375 9.34115 1.70573 9.28906 1.52344C9.24219 1.33594 9.18229 1.08073 9.10938 0.757812C9.09375 0.664062 9.04167 0.617188 8.95312 0.617188C8.86458 0.617188 8.8099 0.664062 8.78906 0.757812C8.72135 1.08073 8.66146 1.33594 8.60938 1.52344C8.5625 1.70573 8.49219 1.84375 8.39844 1.9375C8.3099 2.03125 8.17188 2.10677 7.98438 2.16406C7.80208 2.22135 7.54167 2.28385 7.20312 2.35156C7.10417 2.3724 7.05469 2.42708 7.05469 2.51562C7.05469 2.60417 7.10417 2.65885 7.20312 2.67969C7.54167 2.7474 7.80469 2.8099 7.99219 2.86719C8.17969 2.91927 8.32031 2.99479 8.41406 3.09375C8.50781 3.1875 8.57812 3.32552 8.625 3.50781C8.67188 3.6901 8.72656 3.94531 8.78906 4.27344C8.8099 4.36719 8.86458 4.41406 8.95312 4.41406Z" fill="white"/>
</svg>
