<?xml version="1.0" encoding="UTF-8"?>
<svg xmlns="http://www.w3.org/2000/svg" xmlns:xlink="http://www.w3.org/1999/xlink" width="24" height="25.5" viewBox="0 0 24 25.5" version="1.1">
<g id="surface1">
<path style=" stroke:none;fill-rule:nonzero;fill:rgb(100%,100%,100%);fill-opacity:1;" d="M 12 24.503906 C 13.632812 24.503906 15.167969 24.191406 16.605469 23.566406 C 18.050781 22.941406 19.324219 22.078125 20.425781 20.976562 C 21.527344 19.875 22.390625 18.605469 23.015625 17.167969 C 23.640625 15.722656 23.953125 14.183594 23.953125 12.550781 C 23.953125 10.917969 23.640625 9.382812 23.015625 7.945312 C 22.390625 6.5 21.527344 5.226562 20.425781 4.125 C 19.324219 3.023438 18.050781 2.160156 16.605469 1.535156 C 15.160156 0.910156 13.621094 0.597656 11.988281 0.597656 C 10.355469 0.597656 8.816406 0.910156 7.371094 1.535156 C 5.933594 2.160156 4.664062 3.023438 3.5625 4.125 C 2.46875 5.226562 1.609375 6.5 0.984375 7.945312 C 0.359375 9.382812 0.046875 10.917969 0.046875 12.550781 C 0.046875 14.183594 0.359375 15.722656 0.984375 17.167969 C 1.609375 18.605469 2.472656 19.875 3.574219 20.976562 C 4.675781 22.078125 5.945312 22.941406 7.382812 23.566406 C 8.828125 24.191406 10.367188 24.503906 12 24.503906 Z M 12.328125 19.582031 C 11.335938 19.582031 10.414062 19.417969 9.5625 19.089844 C 8.710938 18.753906 7.96875 18.28125 7.335938 17.671875 C 6.703125 17.0625 6.207031 16.34375 5.847656 15.515625 C 5.496094 14.679688 5.320312 13.765625 5.320312 12.773438 C 5.320312 11.820312 5.492188 10.910156 5.835938 10.042969 C 6.1875 9.167969 6.675781 8.398438 7.300781 7.734375 C 7.933594 7.070312 8.667969 6.570312 9.503906 6.234375 C 9.574219 6.203125 9.644531 6.183594 9.714844 6.175781 C 9.792969 6.167969 9.851562 6.164062 9.890625 6.164062 C 10.015625 6.164062 10.113281 6.207031 10.183594 6.292969 C 10.253906 6.371094 10.289062 6.457031 10.289062 6.550781 C 10.289062 6.582031 10.285156 6.621094 10.277344 6.667969 C 10.269531 6.714844 10.25 6.78125 10.21875 6.867188 C 10.101562 7.148438 10 7.523438 9.914062 7.992188 C 9.828125 8.460938 9.785156 8.886719 9.785156 9.269531 C 9.785156 10.488281 10.03125 11.542969 10.523438 12.433594 C 11.015625 13.324219 11.710938 14.011719 12.609375 14.496094 C 13.507812 14.980469 14.570312 15.222656 15.796875 15.222656 C 16.210938 15.222656 16.613281 15.1875 17.003906 15.117188 C 17.402344 15.039062 17.726562 14.957031 17.976562 14.871094 C 18.101562 14.839844 18.199219 14.824219 18.269531 14.824219 C 18.371094 14.824219 18.460938 14.863281 18.539062 14.941406 C 18.625 15.011719 18.667969 15.113281 18.667969 15.246094 C 18.667969 15.269531 18.664062 15.316406 18.65625 15.386719 C 18.648438 15.457031 18.628906 15.53125 18.597656 15.609375 C 18.308594 16.34375 17.855469 17.011719 17.238281 17.613281 C 16.621094 18.214844 15.890625 18.695312 15.046875 19.054688 C 14.203125 19.40625 13.296875 19.582031 12.328125 19.582031 Z M 12.328125 19.582031 "/>
</g>
</svg>
