<svg width="16" height="17" viewBox="0 0 16 17" fill="none" xmlns="http://www.w3.org/2000/svg">
<path d="M8 16.3281C9.08854 16.3281 10.112 16.1198 11.0703 15.7031C12.0339 15.2865 12.8828 14.7109 13.6172 13.9766C14.3516 13.2422 14.9271 12.3958 15.3438 11.4375C15.7604 10.474 15.9688 9.44792 15.9688 8.35938C15.9688 7.27083 15.7604 6.2474 15.3438 5.28906C14.9271 4.32552 14.3516 3.47656 13.6172 2.74219C12.8828 2.00781 12.0339 1.43229 11.0703 1.01562C10.1068 0.598958 9.08073 0.390625 7.99219 0.390625C6.90365 0.390625 5.8776 0.598958 4.91406 1.01562C3.95573 1.43229 3.10938 2.00781 2.375 2.74219C1.64583 3.47656 1.07292 4.32552 0.65625 5.28906C0.239583 6.2474 0.03125 7.27083 0.03125 8.35938C0.03125 9.44792 0.239583 10.474 0.65625 11.4375C1.07292 12.3958 1.64844 13.2422 2.38281 13.9766C3.11719 14.7109 3.96354 15.2865 4.92188 15.7031C5.88542 16.1198 6.91146 16.3281 8 16.3281ZM8 15C7.07812 15 6.21615 14.8281 5.41406 14.4844C4.61198 14.1406 3.90625 13.6667 3.29688 13.0625C2.69271 12.4531 2.21875 11.7474 1.875 10.9453C1.53646 10.1432 1.36719 9.28125 1.36719 8.35938C1.36719 7.4375 1.53646 6.57552 1.875 5.77344C2.21875 4.97135 2.69271 4.26562 3.29688 3.65625C3.90104 3.04688 4.60417 2.57292 5.40625 2.23438C6.20833 1.89062 7.07031 1.71875 7.99219 1.71875C8.91406 1.71875 9.77604 1.89062 10.5781 2.23438C11.3854 2.57292 12.0911 3.04688 12.6953 3.65625C13.3047 4.26562 13.7812 4.97135 14.125 5.77344C14.4688 6.57552 14.6406 7.4375 14.6406 8.35938C14.6406 9.28125 14.4688 10.1432 14.125 10.9453C13.7865 11.7474 13.3125 12.4531 12.7031 13.0625C12.0938 13.6667 11.388 14.1406 10.5859 14.4844C9.78385 14.8281 8.92188 15 8 15ZM7.89062 12.8828C8.47917 12.8828 9.02865 12.7734 9.53906 12.5547C10.0495 12.3359 10.4896 12.0469 10.8594 11.6875C11.2344 11.3229 11.5104 10.9167 11.6875 10.4688C11.75 10.3229 11.7448 10.2005 11.6719 10.1016C11.599 10.0026 11.4818 9.97917 11.3203 10.0312C11.1693 10.0833 10.9714 10.1328 10.7266 10.1797C10.487 10.2266 10.2396 10.25 9.98438 10.25C9.25 10.25 8.60938 10.1042 8.0625 9.8125C7.52083 9.51562 7.09896 9.09635 6.79688 8.55469C6.5 8.01302 6.35156 7.3724 6.35156 6.63281C6.35156 6.39844 6.3776 6.14062 6.42969 5.85938C6.48177 5.57812 6.54167 5.34896 6.60938 5.17188C6.67188 5.02604 6.65885 4.91146 6.57031 4.82812C6.48177 4.73958 6.35156 4.73177 6.17969 4.80469C5.67448 5.0026 5.23177 5.30208 4.85156 5.70312C4.47656 6.10417 4.18229 6.57031 3.96875 7.10156C3.76042 7.6276 3.65625 8.17708 3.65625 8.75C3.65625 9.35417 3.76302 9.90885 3.97656 10.4141C4.1901 10.9141 4.48698 11.349 4.86719 11.7188C5.2526 12.0885 5.70312 12.375 6.21875 12.5781C6.73438 12.7812 7.29167 12.8828 7.89062 12.8828ZM10.2188 7.89844C10.3229 7.89844 10.3802 7.84115 10.3906 7.72656C10.4323 7.3776 10.4766 7.10417 10.5234 6.90625C10.5755 6.70312 10.6536 6.54948 10.7578 6.44531C10.862 6.34115 11.0156 6.26302 11.2188 6.21094C11.4271 6.15885 11.7083 6.10677 12.0625 6.05469C12.1823 6.04427 12.2422 5.98438 12.2422 5.875C12.2422 5.77083 12.1875 5.71354 12.0781 5.70312C11.724 5.63542 11.4453 5.57292 11.2422 5.51562C11.0391 5.45833 10.8828 5.38021 10.7734 5.28125C10.6693 5.17708 10.5911 5.02865 10.5391 4.83594C10.4922 4.63802 10.4427 4.36719 10.3906 4.02344C10.3802 3.91406 10.3229 3.85938 10.2188 3.85938C10.1198 3.85938 10.0651 3.91406 10.0547 4.02344C10.0026 4.3724 9.95052 4.64844 9.89844 4.85156C9.85156 5.05469 9.77604 5.20833 9.67188 5.3125C9.56771 5.41667 9.41406 5.49479 9.21094 5.54688C9.00781 5.59896 8.72396 5.65104 8.35938 5.70312C8.25 5.71354 8.19531 5.77083 8.19531 5.875C8.19531 5.97917 8.25 6.03906 8.35938 6.05469C8.72396 6.1224 9.00781 6.1849 9.21094 6.24219C9.41927 6.29948 9.57552 6.3776 9.67969 6.47656C9.78385 6.57552 9.85938 6.72396 9.90625 6.92188C9.95833 7.11458 10.0078 7.38281 10.0547 7.72656C10.0651 7.84115 10.1198 7.89844 10.2188 7.89844Z" fill="white"/>
</svg>
