<svg width="16" height="17" viewBox="0 0 16 17" fill="none" xmlns="http://www.w3.org/2000/svg">
<path d="M12.4141 11.0547C10.9818 11.0547 9.74219 10.7812 8.69531 10.2344C7.65365 9.6875 6.84896 8.90885 6.28125 7.89844C5.71875 6.88802 5.4375 5.6875 5.4375 4.29688C5.4375 3.70312 5.48177 3.15885 5.57031 2.66406C5.65885 2.16927 5.77604 1.78125 5.92188 1.5C5.97917 1.38542 6.01562 1.29427 6.03125 1.22656C6.05208 1.15885 6.0625 1.08594 6.0625 1.00781C6.0625 0.877604 6.00781 0.752604 5.89844 0.632812C5.79427 0.507812 5.65885 0.445312 5.49219 0.445312C5.46094 0.445312 5.40885 0.453125 5.33594 0.46875C5.26302 0.479167 5.17188 0.507812 5.0625 0.554688C4.09896 0.945312 3.2474 1.52083 2.50781 2.28125C1.76823 3.04167 1.1875 3.92188 0.765625 4.92188C0.348958 5.91667 0.140625 6.96094 0.140625 8.05469C0.140625 9.24219 0.341146 10.3359 0.742188 11.3359C1.14844 12.3307 1.71875 13.1953 2.45312 13.9297C3.1875 14.6641 4.05208 15.2344 5.04688 15.6406C6.04688 16.0469 7.14062 16.25 8.32812 16.25C9.45833 16.25 10.5078 16.0599 11.4766 15.6797C12.4453 15.3047 13.2943 14.7656 14.0234 14.0625C14.7526 13.3594 15.3281 12.5208 15.75 11.5469C15.7969 11.4427 15.8255 11.3516 15.8359 11.2734C15.8516 11.1901 15.8594 11.1276 15.8594 11.0859C15.8594 10.9245 15.8021 10.7943 15.6875 10.6953C15.5781 10.5964 15.4635 10.5469 15.3438 10.5469C15.2812 10.5469 15.2214 10.5521 15.1641 10.5625C15.1068 10.5729 15.0312 10.5938 14.9375 10.625C14.724 10.7135 14.4792 10.7891 14.2031 10.8516C13.9323 10.9141 13.6432 10.9635 13.3359 11C13.0339 11.0365 12.7266 11.0547 12.4141 11.0547ZM1.36719 8C1.36719 7.19271 1.5 6.40885 1.76562 5.64844C2.03646 4.88802 2.41667 4.19271 2.90625 3.5625C3.40104 2.93229 3.98438 2.40625 4.65625 1.98438C4.53125 2.34375 4.4349 2.72656 4.36719 3.13281C4.30469 3.53385 4.27344 3.95833 4.27344 4.40625C4.27344 6.03125 4.58854 7.42708 5.21875 8.59375C5.85417 9.75521 6.76562 10.6458 7.95312 11.2656C9.14583 11.8854 10.5729 12.1953 12.2344 12.1953C12.6354 12.1953 13.0104 12.1719 13.3594 12.125C13.7083 12.0729 14.0443 11.9896 14.3672 11.875C13.9714 12.526 13.4635 13.0885 12.8438 13.5625C12.2292 14.0365 11.5391 14.3984 10.7734 14.6484C10.013 14.9036 9.21354 15.0312 8.375 15.0312C7.36458 15.0312 6.43229 14.8568 5.57812 14.5078C4.72396 14.1641 3.98177 13.6771 3.35156 13.0469C2.72135 12.4167 2.23177 11.6745 1.88281 10.8203C1.53906 9.96094 1.36719 9.02083 1.36719 8Z" fill="white"/>
</svg>
