<svg xmlns="http://www.w3.org/2000/svg" width="24" height="24"><path style="stroke:none;fill-rule:nonzero;fill:#fff;fill-opacity:1" d="M12 23.05c1.633 0 3.168-.292 4.605-.882a12.22 12.22 0 0 0 3.82-2.438 11.467 11.467 0 0 0 2.59-3.582c.626-1.363.938-2.808.938-4.347a10.2 10.2 0 0 0-.937-4.332 11.53 11.53 0 0 0-2.59-3.598 12.361 12.361 0 0 0-3.82-2.437A12.106 12.106 0 0 0 12 .55c-1.633 0-3.172.293-4.617.883a12.22 12.22 0 0 0-3.82 2.437A11.523 11.523 0 0 0 .983 7.465 10.174 10.174 0 0 0 .047 11.8c0 1.535.312 2.984.937 4.344a11.482 11.482 0 0 0 2.59 3.585 12.307 12.307 0 0 0 3.809 2.438c1.445.59 2.984.883 4.617.883Zm0-1.874V2.426c1.383 0 2.676.242 3.879.73a9.82 9.82 0 0 1 3.164 2.004 9.432 9.432 0 0 1 2.145 2.992 8.685 8.685 0 0 1 .773 3.649c0 1.3-.258 2.52-.773 3.652a9.278 9.278 0 0 1-2.133 2.988 9.994 9.994 0 0 1-3.176 2.008c-1.203.485-2.496.727-3.879.727Zm0 0"/></svg>