<?xml version="1.0" encoding="UTF-8"?>
<svg xmlns="http://www.w3.org/2000/svg" xmlns:xlink="http://www.w3.org/1999/xlink" width="24" height="25.5" viewBox="0 0 24 25.5" version="1.1">
<g id="surface1">
<path style=" stroke:none;fill-rule:nonzero;fill:rgb(100%,100%,100%);fill-opacity:1;" d="M 12 24.492188 C 13.632812 24.492188 15.167969 24.179688 16.605469 23.554688 C 18.050781 22.929688 19.324219 22.066406 20.425781 20.964844 C 21.527344 19.863281 22.390625 18.59375 23.015625 17.15625 C 23.640625 15.710938 23.953125 14.171875 23.953125 12.539062 C 23.953125 10.90625 23.640625 9.371094 23.015625 7.933594 C 22.390625 6.488281 21.527344 5.214844 20.425781 4.113281 C 19.324219 3.011719 18.050781 2.148438 16.605469 1.523438 C 15.160156 0.898438 13.621094 0.585938 11.988281 0.585938 C 10.355469 0.585938 8.816406 0.898438 7.371094 1.523438 C 5.933594 2.148438 4.664062 3.011719 3.5625 4.113281 C 2.46875 5.214844 1.609375 6.488281 0.984375 7.933594 C 0.359375 9.371094 0.046875 10.90625 0.046875 12.539062 C 0.046875 14.171875 0.359375 15.710938 0.984375 17.15625 C 1.609375 18.59375 2.472656 19.863281 3.574219 20.964844 C 4.675781 22.066406 5.945312 22.929688 7.382812 23.554688 C 8.828125 24.179688 10.367188 24.492188 12 24.492188 Z M 12 22.5 C 10.617188 22.5 9.324219 22.242188 8.121094 21.726562 C 6.917969 21.210938 5.859375 20.5 4.945312 19.59375 C 4.039062 18.679688 3.328125 17.621094 2.8125 16.417969 C 2.304688 15.214844 2.050781 13.921875 2.050781 12.539062 C 2.050781 11.15625 2.304688 9.863281 2.8125 8.660156 C 3.328125 7.457031 4.039062 6.398438 4.945312 5.484375 C 5.851562 4.570312 6.90625 3.859375 8.109375 3.351562 C 9.3125 2.835938 10.605469 2.578125 11.988281 2.578125 C 13.371094 2.578125 14.664062 2.835938 15.867188 3.351562 C 17.078125 3.859375 18.136719 4.570312 19.042969 5.484375 C 19.957031 6.398438 20.671875 7.457031 21.1875 8.660156 C 21.703125 9.863281 21.960938 11.15625 21.960938 12.539062 C 21.960938 13.921875 21.703125 15.214844 21.1875 16.417969 C 20.679688 17.621094 19.96875 18.679688 19.054688 19.59375 C 18.140625 20.5 17.082031 21.210938 15.878906 21.726562 C 14.675781 22.242188 13.382812 22.5 12 22.5 Z M 12.304688 19.359375 C 13.242188 19.359375 14.121094 19.1875 14.941406 18.84375 C 15.761719 18.492188 16.46875 18.027344 17.0625 17.449219 C 17.664062 16.863281 18.105469 16.214844 18.386719 15.503906 C 18.417969 15.425781 18.4375 15.355469 18.445312 15.292969 C 18.453125 15.222656 18.457031 15.175781 18.457031 15.152344 C 18.457031 15.027344 18.414062 14.929688 18.328125 14.859375 C 18.25 14.78125 18.164062 14.742188 18.070312 14.742188 C 17.992188 14.742188 17.898438 14.757812 17.789062 14.789062 C 17.546875 14.875 17.234375 14.953125 16.851562 15.023438 C 16.46875 15.09375 16.074219 15.128906 15.667969 15.128906 C 14.480469 15.128906 13.449219 14.894531 12.574219 14.425781 C 11.707031 13.957031 11.035156 13.292969 10.558594 12.433594 C 10.082031 11.566406 9.84375 10.539062 9.84375 9.351562 C 9.84375 8.976562 9.882812 8.5625 9.960938 8.109375 C 10.046875 7.65625 10.144531 7.292969 10.253906 7.019531 C 10.285156 6.941406 10.304688 6.878906 10.3125 6.832031 C 10.320312 6.785156 10.324219 6.746094 10.324219 6.714844 C 10.324219 6.628906 10.289062 6.546875 10.21875 6.46875 C 10.15625 6.382812 10.0625 6.339844 9.9375 6.339844 C 9.898438 6.339844 9.84375 6.34375 9.773438 6.351562 C 9.703125 6.359375 9.632812 6.378906 9.5625 6.410156 C 8.75 6.730469 8.039062 7.214844 7.429688 7.863281 C 6.828125 8.511719 6.355469 9.257812 6.011719 10.101562 C 5.675781 10.945312 5.507812 11.828125 5.507812 12.75 C 5.507812 13.710938 5.679688 14.597656 6.023438 15.410156 C 6.367188 16.214844 6.84375 16.914062 7.453125 17.507812 C 8.070312 18.09375 8.792969 18.550781 9.621094 18.878906 C 10.449219 19.199219 11.34375 19.359375 12.304688 19.359375 Z M 12.304688 19.359375 "/>
</g>
</svg>
