<svg width="16" height="17" viewBox="0 0 16 17" fill="none" xmlns="http://www.w3.org/2000/svg">
<path d="M8 16.3359C9.08854 16.3359 10.112 16.1276 11.0703 15.7109C12.0339 15.2943 12.8828 14.7188 13.6172 13.9844C14.3516 13.25 14.9271 12.4036 15.3438 11.4453C15.7604 10.4818 15.9688 9.45573 15.9688 8.36719C15.9688 7.27865 15.7604 6.25521 15.3438 5.29688C14.9271 4.33333 14.3516 3.48438 13.6172 2.75C12.8828 2.01562 12.0339 1.4401 11.0703 1.02344C10.1068 0.606771 9.08073 0.398438 7.99219 0.398438C6.90365 0.398438 5.8776 0.606771 4.91406 1.02344C3.95573 1.4401 3.10938 2.01562 2.375 2.75C1.64583 3.48438 1.07292 4.33333 0.65625 5.29688C0.239583 6.25521 0.03125 7.27865 0.03125 8.36719C0.03125 9.45573 0.239583 10.4818 0.65625 11.4453C1.07292 12.4036 1.64844 13.25 2.38281 13.9844C3.11719 14.7188 3.96354 15.2943 4.92188 15.7109C5.88542 16.1276 6.91146 16.3359 8 16.3359ZM5.25781 9.07812C5.04427 8.78646 4.8776 8.46354 4.75781 8.10938C4.64323 7.75 4.58594 7.36719 4.58594 6.96094C4.58594 6.21094 4.77865 5.53385 5.16406 4.92969C5.54948 4.32552 6.05469 3.89583 6.67969 3.64062C6.88281 3.55729 7.03385 3.57292 7.13281 3.6875C7.21094 3.8125 7.21094 3.95312 7.13281 4.10938C7.07031 4.23438 7.01823 4.41146 6.97656 4.64062C6.9401 4.86458 6.92188 5.09115 6.92188 5.32031C6.92188 6.1901 7.1849 6.88281 7.71094 7.39844C8.24219 7.90885 8.95312 8.16406 9.84375 8.16406C10.0625 8.16406 10.263 8.15104 10.4453 8.125C10.6328 8.09375 10.8047 8.04427 10.9609 7.97656C11.1224 7.91927 11.2474 7.93229 11.3359 8.01562C11.4349 8.125 11.4479 8.26823 11.375 8.44531C11.3229 8.5599 11.2656 8.67188 11.2031 8.78125C11.1458 8.88542 11.0781 8.98438 11 9.07812H5.25781ZM4.04688 10.2344C3.96354 10.2344 3.89583 10.2083 3.84375 10.1562C3.79167 10.1042 3.76562 10.0365 3.76562 9.95312C3.76562 9.86979 3.79167 9.80208 3.84375 9.75C3.89583 9.69271 3.96354 9.66406 4.04688 9.66406H12.6875C12.7708 9.66406 12.8385 9.69271 12.8906 9.75C12.9479 9.80208 12.9766 9.86979 12.9766 9.95312C12.9766 10.0365 12.9479 10.1042 12.8906 10.1562C12.8385 10.2083 12.7708 10.2344 12.6875 10.2344H4.04688ZM3.29688 11.3438C3.21354 11.3438 3.14323 11.3177 3.08594 11.2656C3.03385 11.2083 3.00781 11.138 3.00781 11.0547C3.00781 10.9766 3.03385 10.9089 3.08594 10.8516C3.14323 10.7943 3.21354 10.7656 3.29688 10.7656H11.9375C12.0208 10.7656 12.0885 10.7943 12.1406 10.8516C12.1927 10.9036 12.2188 10.9714 12.2188 11.0547C12.2188 11.138 12.1927 11.2083 12.1406 11.2656C12.0885 11.3177 12.0208 11.3438 11.9375 11.3438H3.29688ZM4.04688 12.4453C3.96354 12.4453 3.89583 12.4193 3.84375 12.3672C3.79167 12.3151 3.76562 12.2474 3.76562 12.1641C3.76562 12.0807 3.79167 12.013 3.84375 11.9609C3.89583 11.9036 3.96354 11.875 4.04688 11.875H12.6875C12.7708 11.875 12.8385 11.9036 12.8906 11.9609C12.9479 12.013 12.9766 12.0807 12.9766 12.1641C12.9766 12.2474 12.9479 12.3151 12.8906 12.3672C12.8385 12.4193 12.7708 12.4453 12.6875 12.4453H4.04688Z" fill="white"/>
</svg>
