<svg width="126" height="131" viewBox="0 0 126 131" fill="none" xmlns="http://www.w3.org/2000/svg">
<path d="M55.5625 130.75C63.1875 130.75 70.25 129.521 76.75 127.062C83.25 124.604 88.9375 121.042 93.8125 116.375C98.7292 111.75 102.583 106.167 105.375 99.625C105.958 98.2917 106.188 97.125 106.062 96.125C105.938 95.0833 105.562 94.2708 104.938 93.6875C104.396 93.1458 103.667 92.8333 102.75 92.75C101.833 92.625 100.833 92.7708 99.75 93.1875C97.375 94.1458 94.7292 94.8958 91.8125 95.4375C88.9375 95.9375 85.7083 96.1875 82.125 96.1875C72.7917 96.1875 64.6875 94.3542 57.8125 90.6875C50.9375 86.9792 45.6042 81.7708 41.8125 75.0625C38.0625 68.3542 36.1875 60.4375 36.1875 51.3125C36.1875 47.5208 36.5 43.8958 37.125 40.4375C37.7917 36.9375 38.6042 34.2083 39.5625 32.25C40.8125 29.75 40.8125 27.7917 39.5625 26.375C38.9792 25.6667 38.1667 25.2292 37.125 25.0625C36.0833 24.8958 34.8333 25.1042 33.375 25.6875C26.9583 28.3125 21.3125 32.1667 16.4375 37.25C11.6042 42.2917 7.8125 48.2083 5.0625 55C2.3125 61.7917 0.9375 69.0833 0.9375 76.875C0.9375 84.5 2.25 91.5833 4.875 98.125C7.54167 104.625 11.3125 110.333 16.1875 115.25C21.0625 120.125 26.8333 123.917 33.5 126.625C40.1667 129.375 47.5208 130.75 55.5625 130.75ZM55.6875 121.188C49.0208 121.188 42.9167 120.042 37.375 117.75C31.875 115.5 27.1042 112.354 23.0625 108.312C19.0625 104.229 15.9583 99.4583 13.75 94C11.5833 88.5 10.5 82.5417 10.5 76.125C10.5 70.875 11.2708 65.8958 12.8125 61.1875C14.3542 56.4375 16.5417 52.0625 19.375 48.0625C22.2083 44.0625 25.5625 40.5833 29.4375 37.625C28.6458 39.6667 28.0417 42.1458 27.625 45.0625C27.2083 47.9792 27 50.9375 27 53.9375C27 64.2292 29.2083 73.2292 33.625 80.9375C38.0417 88.6458 44.2083 94.6458 52.125 98.9375C60.0417 103.229 69.25 105.375 79.75 105.375C82.5417 105.375 85.125 105.208 87.5 104.875C89.9167 104.542 91.7917 104.167 93.125 103.75C90.5417 107.333 87.3125 110.438 83.4375 113.062C79.6042 115.688 75.3125 117.688 70.5625 119.062C65.8542 120.479 60.8958 121.188 55.6875 121.188ZM101.938 73.625C103.188 73.625 103.896 72.9375 104.062 71.5625C104.562 67.3958 105.104 64.125 105.688 61.75C106.271 59.375 107.167 57.6042 108.375 56.4375C109.625 55.2292 111.458 54.3125 113.875 53.6875C116.292 53.0625 119.625 52.3958 123.875 51.6875C125.292 51.4792 126 50.7917 126 49.625C126 48.4583 125.375 47.75 124.125 47.5C119.875 46.6667 116.5 45.9375 114 45.3125C111.542 44.6875 109.688 43.7917 108.438 42.625C107.188 41.4583 106.271 39.7083 105.688 37.375C105.104 35.0417 104.562 31.7917 104.062 27.625C103.896 26.25 103.188 25.5625 101.938 25.5625C100.688 25.5625 99.9792 26.2292 99.8125 27.5625C99.2708 31.7708 98.7083 35.0833 98.125 37.5C97.5833 39.9167 96.6875 41.75 95.4375 43C94.2292 44.2083 92.3958 45.1042 89.9375 45.6875C87.4792 46.2708 84.0833 46.875 79.75 47.5C79.2083 47.5417 78.75 47.7708 78.375 48.1875C78.0417 48.5625 77.875 49.0417 77.875 49.625C77.875 50.7917 78.5 51.4792 79.75 51.6875C84.0833 52.5208 87.4792 53.2708 89.9375 53.9375C92.3958 54.6042 94.2292 55.5208 95.4375 56.6875C96.6875 57.8542 97.5833 59.6042 98.125 61.9375C98.7083 64.2708 99.2708 67.5208 99.8125 71.6875C99.8958 72.2292 100.125 72.6875 100.5 73.0625C100.875 73.4375 101.354 73.625 101.938 73.625ZM72.0625 31.3125C72.7708 31.3125 73.1875 30.9375 73.3125 30.1875C73.8125 27.5625 74.25 25.5208 74.625 24.0625C75.0417 22.5625 75.6042 21.4375 76.3125 20.6875C77.0625 19.8958 78.1875 19.2917 79.6875 18.875C81.2292 18.4583 83.3542 17.9792 86.0625 17.4375C86.8542 17.2708 87.25 16.8333 87.25 16.125C87.25 15.4167 86.8542 14.9792 86.0625 14.8125C83.3542 14.2708 81.25 13.7708 79.75 13.3125C78.2917 12.8542 77.1875 12.25 76.4375 11.5C75.7292 10.75 75.1667 9.64583 74.75 8.1875C74.375 6.6875 73.8958 4.64583 73.3125 2.0625C73.1875 1.3125 72.7708 0.9375 72.0625 0.9375C71.3542 0.9375 70.9167 1.3125 70.75 2.0625C70.2083 4.64583 69.7292 6.6875 69.3125 8.1875C68.9375 9.64583 68.375 10.75 67.625 11.5C66.9167 12.25 65.8125 12.8542 64.3125 13.3125C62.8542 13.7708 60.7708 14.2708 58.0625 14.8125C57.2708 14.9792 56.875 15.4167 56.875 16.125C56.875 16.8333 57.2708 17.2708 58.0625 17.4375C60.7708 17.9792 62.875 18.4792 64.375 18.9375C65.875 19.3542 67 19.9583 67.75 20.75C68.5 21.5 69.0625 22.6042 69.4375 24.0625C69.8125 25.5208 70.25 27.5625 70.75 30.1875C70.9167 30.9375 71.3542 31.3125 72.0625 31.3125Z" fill="white"/>
</svg>
