<svg xmlns="http://www.w3.org/2000/svg" width="24" height="24"><path style="stroke:none;fill-rule:nonzero;fill:#fff;fill-opacity:1" d="M14.332 22.727h1.887V.852h-1.887Zm-12.586-6.43h20.508v-2.012H1.746Zm6.024 6.426h1.886v-8.438H7.77ZM14.332 9.3h7.922V7.289h-7.922Zm-9.445 14h14.215c1.226 0 2.144-.324 2.753-.977.618-.64.926-1.605.926-2.898V4.164c0-1.293-.308-2.258-.926-2.898-.609-.653-1.527-.977-2.753-.977H4.887c-1.227 0-2.149.324-2.766.977-.61.64-.914 1.605-.914 2.898v15.262c0 1.293.305 2.258.914 2.902.617.649 1.54.973 2.766.973Zm.023-2.012c-.586 0-1.035-.164-1.348-.488-.312-.336-.468-.824-.468-1.477V4.262c0-.649.156-1.137.469-1.461.312-.336.761-.5 1.347-.5h14.168c.578 0 1.024.164 1.336.5.32.324.48.812.48 1.46v15.063c0 .653-.16 1.14-.48 1.477-.312.324-.758.488-1.336.488Zm0 0"/></svg>