<svg xmlns="http://www.w3.org/2000/svg" width="24" height="24"><path style="stroke:none;fill-rule:nonzero;fill:#fff;fill-opacity:1" d="M2.484 8.605h19.032c.406 0 .718-.078.937-.238a1 1 0 0 0 .422-.59 1.062 1.062 0 0 0-.059-.71 1.211 1.211 0 0 0-.503-.594L13.629.867C13.012.48 12.469.285 12 .285c-.469 0-1.012.195-1.629.582L1.687 6.473a1.279 1.279 0 0 0-.515.593 1.167 1.167 0 0 0-.059.711c.063.23.203.426.422.59.227.16.543.238.95.238ZM4.36 7.137c-.14 0-.226-.051-.257-.149-.032-.105.007-.199.117-.277l7.066-4.559c.195-.125.434-.187.715-.18.281 0 .516.06.703.18l7.078 4.559c.11.078.149.172.117.277-.03.098-.117.149-.257.149ZM1.723 12.68h20.554a.993.993 0 0 0 .692-.254.762.762 0 0 0 .304-.602c.004-.23-.109-.445-.304-.605a.995.995 0 0 0-.692-.266H1.723a1.05 1.05 0 0 0-.703.266.8.8 0 0 0-.293.605c0 .23.097.43.293.602.183.164.437.254.703.254Zm.761 2.36c-.406 0-.722.077-.949.237-.219.157-.36.356-.422.59-.054.238-.035.477.059.711.101.238.273.434.516.594l8.683 5.605c.617.387 1.16.582 1.629.582.469 0 1.012-.195 1.629-.582l8.684-5.605c.242-.16.41-.356.503-.594.102-.234.122-.473.059-.71a.969.969 0 0 0-.422-.59c-.219-.16-.531-.239-.937-.239Zm1.875 1.468h15.282c.14 0 .226.055.257.16.032.098-.007.187-.117.266l-7.078 4.558c-.187.121-.422.18-.703.18a1.253 1.253 0 0 1-.715-.18L4.22 16.934c-.11-.079-.149-.168-.117-.266.03-.105.117-.16.257-.16Zm0 0"/></svg>