<svg xmlns="http://www.w3.org/2000/svg" width="24" height="24"><path style="stroke:none;fill-rule:nonzero;fill:#fff;fill-opacity:1" d="m3.738 19.336.836 1.617L12 16.758l7.426 4.195.844-1.617-7.426-4.195V5.25h-1.676v9.89ZM1.2 20.988c-.148.371-.16.676-.043.899.125.238.364.379.719.422l4.313.527c.32.043.582-.004.792-.125a.75.75 0 0 0 .395-.543c.055-.242-.004-.527-.176-.852l-2.574-5.015c-.168-.324-.36-.516-.574-.586a.658.658 0 0 0-.614.105c-.195.14-.355.375-.48.703Zm21.602 0-1.75-4.465c-.13-.328-.297-.562-.5-.703a.635.635 0 0 0-.613-.105c-.208.07-.391.262-.551.586L16.8 21.316c-.172.329-.235.61-.188.852a.815.815 0 0 0 .407.543c.214.121.48.168.793.125l4.312-.527c.355-.043.59-.184.707-.422.125-.223.117-.528-.031-.899ZM11.313 1.84 8.761 5.766c-.196.293-.301.574-.313.843a.874.874 0 0 0 .227.657c.168.171.418.257.75.257h5.136c.34 0 .59-.085.75-.257a.837.837 0 0 0 .231-.657c-.016-.261-.121-.543-.313-.843l-2.562-3.922c-.215-.332-.441-.492-.68-.492-.226-.012-.453.152-.675.492Zm0 0"/></svg>