<svg xmlns="http://www.w3.org/2000/svg" width="24" height="24"><path style="stroke:none;fill-rule:nonzero;fill:#fff;fill-opacity:1" d="M2.016 22.617c.351.383.863.531 1.343.395.25-.07.465-.2.641-.395l8-8.742 8.016 8.742c.547.59 1.422.59 1.968 0 .188-.187.309-.418.36-.68a1.733 1.733 0 0 0 0-.8 1.32 1.32 0 0 0-.36-.684l-8-8.742 8-8.727c.188-.191.309-.421.36-.683a1.667 1.667 0 0 0 0-.785 1.34 1.34 0 0 0-.36-.7 1.322 1.322 0 0 0-1.968 0L12 9.562 4 .816a1.325 1.325 0 0 0-.64-.39 1.328 1.328 0 0 0-1.344.39 1.454 1.454 0 0 0-.375.7c-.051.261-.047.527.015.785.063.261.184.492.36.683l8.015 8.727-8.015 8.742a1.559 1.559 0 0 0-.36.684 1.908 1.908 0 0 0-.015.8c.062.262.187.493.375.68Zm0 0"/></svg>