<svg xmlns="http://www.w3.org/2000/svg" width="24" height="24"><path style="stroke:none;fill-rule:nonzero;fill:#fff;fill-opacity:1" d="M.012 19.906c0 .567.125 1.067.375 1.5.254.438.605.774 1.05 1.016.454.242.965.363 1.543.363.387 0 .801-.078 1.239-.238.445-.164.86-.418 1.25-.762.394-.348.718-.805.968-1.37.25-.567.375-1.25.375-2.052V7.168a.746.746 0 0 0-.207-.52.636.636 0 0 0-.492-.218.68.68 0 0 0-.5.218.746.746 0 0 0-.207.52v8.105c0 .274-.05.497-.156.676a.696.696 0 0 1-.5.317l-1.656.363c-1.047.238-1.828.637-2.332 1.191-.5.555-.75 1.25-.75 2.086Zm9.457-5.625c0 .567.125 1.067.375 1.5.258.43.61.766 1.05 1.016.454.242.965.363 1.543.363.383 0 .797-.078 1.239-.242a3.846 3.846 0 0 0 1.25-.758c.398-.355.719-.812.969-1.37.25-.567.375-1.255.375-2.063V1.543a.698.698 0 0 0-.207-.516.628.628 0 0 0-.489-.218.652.652 0 0 0-.5.218.701.701 0 0 0-.21.516v8.105c0 .274-.052.493-.157.665-.102.167-.27.28-.5.332l-1.656.363c-1.055.234-1.832.629-2.332 1.183-.5.551-.75 1.246-.75 2.09Zm7.719 5.625c0 .567.125 1.067.375 1.5.257.438.609.774 1.05 1.016.446.242.961.363 1.543.363.383 0 .793-.078 1.23-.238.462-.168.887-.426 1.259-.762.398-.348.718-.805.968-1.37.25-.56.375-1.24.375-2.052V7.168a.729.729 0 0 0-.207-.52.666.666 0 0 0-.988 0 .73.73 0 0 0-.211.52v8.105c0 .274-.055.497-.164.676a.698.698 0 0 1-.492.317l-1.664.379c-1.051.226-1.825.62-2.325 1.175-.5.555-.75 1.25-.75 2.086Zm0 0"/></svg>