<svg width="151" height="132" viewBox="0 0 151 132" fill="none" xmlns="http://www.w3.org/2000/svg">
<path d="M20.4375 117.438C20.4375 121.812 21.6667 125.208 24.125 127.625C26.625 130.042 30.0833 131.25 34.5 131.25H116.688C121.062 131.25 124.479 130.042 126.938 127.625C129.438 125.208 130.688 121.812 130.688 117.438V67.9375L79.3125 24.875C76.8125 22.75 74.3125 22.75 71.8125 24.875L20.4375 67.9375V117.438ZM0.9375 61.6875C0.9375 62.9792 1.41667 64.1458 2.375 65.1875C3.33333 66.1875 4.64583 66.6875 6.3125 66.6875C7.1875 66.6875 7.97917 66.4792 8.6875 66.0625C9.4375 65.6458 10.1458 65.1875 10.8125 64.6875L73.375 12.1875C74.0833 11.5625 74.8125 11.25 75.5625 11.25C76.3542 11.25 77.1042 11.5625 77.8125 12.1875L140.375 64.6875C141 65.1875 141.667 65.6458 142.375 66.0625C143.125 66.4792 143.938 66.6875 144.812 66.6875C146.271 66.6875 147.521 66.2708 148.562 65.4375C149.604 64.5625 150.125 63.375 150.125 61.875C150.125 60.125 149.479 58.7083 148.188 57.625L83.125 2.9375C80.7917 0.979167 78.2708 0 75.5625 0C72.8958 0 70.3958 0.979167 68.0625 2.9375L2.9375 57.625C1.60417 58.7083 0.9375 60.0625 0.9375 61.6875ZM115 33.5L130.688 46.75V17.875C130.688 16.5 130.271 15.4167 129.438 14.625C128.646 13.7917 127.562 13.375 126.188 13.375H119.5C118.167 13.375 117.083 13.7917 116.25 14.625C115.417 15.4167 115 16.5 115 17.875V33.5ZM91.625 72.4375L77.375 75.9375C76.7083 76.0625 76.2292 76.3333 75.9375 76.75C75.6458 77.125 75.5 77.8958 75.5 79.0625V99.9375C75.5 104.312 74.1667 107.917 71.5 110.75C68.8333 113.542 65.3333 114.938 61 114.938C57.9583 114.938 55.5208 114.104 53.6875 112.438C51.8958 110.771 51 108.625 51 106C51 103.042 52 100.729 54 99.0625C56 97.3542 58.3958 96.125 61.1875 95.375L66.75 93.9375C68.25 93.5208 69.1667 93.0833 69.5 92.625C69.875 92.125 70.0625 91.2083 70.0625 89.875V62.4375C70.0625 60.6875 70.2917 59.5208 70.75 58.9375C71.2083 58.3542 72.1875 57.875 73.6875 57.5L91.375 53.125C93 52.75 94.0833 52.7917 94.625 53.25C95.1667 53.7083 95.4375 54.5208 95.4375 55.6875V67.5625C95.4375 69.3542 95.1667 70.5417 94.625 71.125C94.0833 71.6667 93.0833 72.1042 91.625 72.4375Z" fill="white"/>
</svg>
