<?xml version="1.0" encoding="UTF-8"?>
<svg xmlns="http://www.w3.org/2000/svg" xmlns:xlink="http://www.w3.org/1999/xlink" width="24" height="20.4" viewBox="0 0 24 20.4" version="1.1">
<g id="surface1">
<path style=" stroke:none;fill-rule:nonzero;fill:rgb(100%,100%,100%);fill-opacity:1;" d="M 2.691406 16.546875 L 21.308594 16.546875 C 22.117188 16.546875 22.71875 16.351562 23.117188 15.964844 C 23.519531 15.570312 23.71875 14.960938 23.71875 14.136719 L 23.71875 3.394531 C 23.71875 2.574219 23.519531 1.972656 23.117188 1.585938 C 22.71875 1.191406 22.117188 0.992188 21.308594 0.992188 L 2.691406 0.992188 C 1.890625 0.992188 1.289062 1.191406 0.882812 1.585938 C 0.480469 1.972656 0.28125 2.574219 0.28125 3.394531 L 0.28125 14.136719 C 0.28125 14.960938 0.480469 15.570312 0.882812 15.964844 C 1.289062 16.351562 1.890625 16.546875 2.691406 16.546875 Z M 7.285156 19.726562 L 16.714844 19.726562 C 16.921875 19.726562 17.101562 19.648438 17.25 19.5 C 17.398438 19.355469 17.476562 19.179688 17.476562 18.964844 C 17.476562 18.757812 17.398438 18.582031 17.25 18.429688 C 17.101562 18.28125 16.921875 18.207031 16.714844 18.207031 L 7.285156 18.207031 C 7.078125 18.207031 6.898438 18.28125 6.75 18.429688 C 6.601562 18.582031 6.523438 18.757812 6.523438 18.964844 C 6.523438 19.179688 6.601562 19.355469 6.75 19.5 C 6.898438 19.648438 7.078125 19.726562 7.285156 19.726562 Z M 14.972656 6.957031 L 12.664062 7.507812 C 12.554688 7.539062 12.472656 7.589844 12.421875 7.660156 C 12.378906 7.722656 12.355469 7.84375 12.355469 8.023438 L 12.355469 11.390625 C 12.355469 12.101562 12.136719 12.6875 11.699219 13.144531 C 11.269531 13.59375 10.703125 13.820312 10.003906 13.820312 C 9.503906 13.820312 9.105469 13.683594 8.8125 13.414062 C 8.523438 13.148438 8.382812 12.804688 8.382812 12.382812 C 8.382812 11.902344 8.542969 11.523438 8.867188 11.25 C 9.195312 10.96875 9.578125 10.769531 10.023438 10.648438 L 10.929688 10.414062 C 11.179688 10.351562 11.332031 10.285156 11.382812 10.210938 C 11.4375 10.128906 11.464844 9.976562 11.464844 9.757812 L 11.464844 5.335938 C 11.464844 5.039062 11.503906 4.851562 11.578125 4.761719 C 11.652344 4.667969 11.8125 4.59375 12.054688 4.539062 L 14.933594 3.816406 C 15.195312 3.746094 15.367188 3.753906 15.449219 3.835938 C 15.539062 3.910156 15.582031 4.039062 15.582031 4.226562 L 15.582031 6.160156 C 15.582031 6.445312 15.539062 6.636719 15.449219 6.730469 C 15.367188 6.820312 15.210938 6.894531 14.972656 6.957031 Z M 14.972656 6.957031 "/>
</g>
</svg>
