<?xml version="1.0" encoding="UTF-8"?>
<svg xmlns="http://www.w3.org/2000/svg" xmlns:xlink="http://www.w3.org/1999/xlink" width="24" height="20.4" viewBox="0 0 24 20.4" version="1.1">
<g id="surface1">
<path style=" stroke:none;fill-rule:nonzero;fill:rgb(100%,100%,100%);fill-opacity:1;" d="M 3.730469 18.214844 C 3.730469 18.871094 3.914062 19.382812 4.285156 19.742188 C 4.660156 20.105469 5.179688 20.289062 5.839844 20.289062 L 18.167969 20.289062 C 18.824219 20.289062 19.335938 20.105469 19.707031 19.742188 C 20.082031 19.382812 20.269531 18.871094 20.269531 18.214844 L 20.269531 10.789062 L 12.5625 4.332031 C 12.1875 4.011719 11.8125 4.011719 11.4375 4.332031 L 3.730469 10.789062 Z M 0.804688 9.851562 C 0.804688 10.046875 0.878906 10.222656 1.023438 10.378906 C 1.164062 10.527344 1.363281 10.601562 1.613281 10.601562 C 1.742188 10.601562 1.863281 10.570312 1.96875 10.507812 C 2.082031 10.445312 2.1875 10.378906 2.289062 10.304688 L 11.671875 2.429688 C 11.777344 2.335938 11.886719 2.289062 12 2.289062 C 12.117188 2.289062 12.230469 2.335938 12.335938 2.429688 L 21.722656 10.304688 C 21.816406 10.378906 21.914062 10.445312 22.023438 10.507812 C 22.132812 10.570312 22.257812 10.601562 22.386719 10.601562 C 22.605469 10.601562 22.792969 10.539062 22.949219 10.414062 C 23.105469 10.285156 23.183594 10.105469 23.183594 9.882812 C 23.183594 9.617188 23.085938 9.40625 22.894531 9.242188 L 13.132812 1.039062 C 12.785156 0.746094 12.40625 0.601562 12 0.601562 C 11.601562 0.601562 11.226562 0.746094 10.875 1.039062 L 1.105469 9.242188 C 0.90625 9.40625 0.804688 9.609375 0.804688 9.851562 Z M 17.914062 5.625 L 20.269531 7.613281 L 20.269531 3.28125 C 20.269531 3.074219 20.207031 2.914062 20.082031 2.792969 C 19.960938 2.667969 19.800781 2.605469 19.59375 2.605469 L 18.589844 2.605469 C 18.390625 2.605469 18.226562 2.667969 18.101562 2.792969 C 17.976562 2.914062 17.914062 3.074219 17.914062 3.28125 Z M 14.410156 11.464844 L 12.273438 11.992188 C 12.171875 12.007812 12.101562 12.050781 12.054688 12.113281 C 12.011719 12.167969 11.992188 12.285156 11.992188 12.460938 L 11.992188 15.589844 C 11.992188 16.246094 11.789062 16.789062 11.390625 17.210938 C 10.992188 17.632812 10.464844 17.839844 9.816406 17.839844 C 9.359375 17.839844 8.992188 17.714844 8.71875 17.464844 C 8.449219 17.214844 8.316406 16.894531 8.316406 16.5 C 8.316406 16.054688 8.464844 15.710938 8.765625 15.460938 C 9.066406 15.203125 9.425781 15.019531 9.84375 14.90625 L 10.679688 14.691406 C 10.902344 14.628906 11.039062 14.5625 11.089844 14.492188 C 11.148438 14.417969 11.175781 14.28125 11.175781 14.082031 L 11.175781 9.964844 C 11.175781 9.703125 11.210938 9.527344 11.277344 9.441406 C 11.347656 9.351562 11.492188 9.28125 11.71875 9.226562 L 14.371094 8.570312 C 14.617188 8.511719 14.777344 8.519531 14.859375 8.585938 C 14.941406 8.65625 14.980469 8.777344 14.980469 8.953125 L 14.980469 10.734375 C 14.980469 11.003906 14.941406 11.179688 14.859375 11.269531 C 14.777344 11.351562 14.628906 11.414062 14.410156 11.464844 Z M 14.410156 11.464844 "/>
</g>
</svg>
