<?xml version="1.0" encoding="UTF-8"?>
<svg xmlns="http://www.w3.org/2000/svg" xmlns:xlink="http://www.w3.org/1999/xlink" width="24" height="25.5" viewBox="0 0 24 25.5" version="1.1">
<g id="surface1">
<path style=" stroke:none;fill-rule:nonzero;fill:rgb(100%,100%,100%);fill-opacity:1;" d="M 23.929688 6.375 L 23.929688 1.96875 C 23.929688 1.65625 23.820312 1.414062 23.601562 1.242188 C 23.390625 1.0625 23.132812 1.003906 22.828125 1.066406 L 16.816406 2.378906 C 16.042969 2.550781 15.65625 2.960938 15.65625 3.609375 L 15.679688 16.640625 C 15.734375 17.234375 15.492188 17.585938 14.953125 17.695312 L 13.089844 18.082031 C 11.917969 18.332031 11.050781 18.75 10.488281 19.335938 C 9.925781 19.921875 9.644531 20.65625 9.644531 21.539062 C 9.644531 22.4375 9.953125 23.167969 10.570312 23.730469 C 11.195312 24.300781 11.996094 24.585938 12.972656 24.585938 C 13.402344 24.585938 13.863281 24.5 14.355469 24.328125 C 14.847656 24.164062 15.316406 23.898438 15.761719 23.53125 C 16.207031 23.164062 16.566406 22.679688 16.839844 22.078125 C 17.121094 21.484375 17.261719 20.761719 17.261719 19.910156 L 17.261719 9.1875 C 17.261719 8.882812 17.304688 8.679688 17.390625 8.578125 C 17.476562 8.46875 17.660156 8.382812 17.941406 8.320312 L 23.296875 7.148438 C 23.492188 7.101562 23.644531 7.011719 23.753906 6.878906 C 23.871094 6.738281 23.929688 6.570312 23.929688 6.375 Z M 0.84375 6.925781 L 11.320312 6.925781 C 11.539062 6.925781 11.726562 6.847656 11.882812 6.691406 C 12.039062 6.535156 12.117188 6.347656 12.117188 6.128906 C 12.117188 5.917969 12.039062 5.734375 11.882812 5.578125 C 11.726562 5.421875 11.539062 5.34375 11.320312 5.34375 L 0.84375 5.34375 C 0.625 5.34375 0.4375 5.421875 0.28125 5.578125 C 0.125 5.734375 0.046875 5.917969 0.046875 6.128906 C 0.046875 6.347656 0.125 6.535156 0.28125 6.691406 C 0.4375 6.847656 0.625 6.925781 0.84375 6.925781 Z M 0.84375 11.097656 L 11.320312 11.097656 C 11.546875 11.097656 11.734375 11.019531 11.882812 10.863281 C 12.039062 10.707031 12.117188 10.515625 12.117188 10.289062 C 12.117188 10.070312 12.039062 9.886719 11.882812 9.738281 C 11.726562 9.589844 11.539062 9.515625 11.320312 9.515625 L 0.84375 9.515625 C 0.625 9.515625 0.4375 9.589844 0.28125 9.738281 C 0.125 9.886719 0.046875 10.070312 0.046875 10.289062 C 0.046875 10.515625 0.121094 10.707031 0.269531 10.863281 C 0.425781 11.019531 0.617188 11.097656 0.84375 11.097656 Z M 0.84375 15.269531 L 11.320312 15.269531 C 11.546875 15.269531 11.734375 15.195312 11.882812 15.046875 C 12.039062 14.890625 12.117188 14.699219 12.117188 14.472656 C 12.117188 14.253906 12.039062 14.070312 11.882812 13.921875 C 11.726562 13.765625 11.539062 13.6875 11.320312 13.6875 L 0.84375 13.6875 C 0.625 13.6875 0.4375 13.765625 0.28125 13.921875 C 0.125 14.070312 0.046875 14.253906 0.046875 14.472656 C 0.046875 14.699219 0.121094 14.890625 0.269531 15.046875 C 0.425781 15.195312 0.617188 15.269531 0.84375 15.269531 Z M 0.84375 15.269531 "/>
</g>
</svg>
