<svg width="151" height="132" viewBox="0 0 151 132" fill="none" xmlns="http://www.w3.org/2000/svg">
<path d="M33.0625 131.25H117.625C122.083 131.25 125.542 130.042 128 127.625C130.458 125.208 131.688 121.812 131.688 117.438V48.375L121.625 41.5V114.875C121.625 116.917 121.104 118.479 120.062 119.562C119.021 120.646 117.5 121.188 115.5 121.188H35.1875C33.1875 121.188 31.6458 120.646 30.5625 119.562C29.5208 118.479 29 116.917 29 114.875V41.5625L18.9375 48.375V117.438C18.9375 121.812 20.1667 125.208 22.625 127.625C25.125 130.042 28.6042 131.25 33.0625 131.25ZM0.9375 61.6875C0.9375 62.9792 1.41667 64.1458 2.375 65.1875C3.33333 66.1875 4.64583 66.6875 6.3125 66.6875C7.1875 66.6875 7.97917 66.4792 8.6875 66.0625C9.4375 65.6458 10.1458 65.1875 10.8125 64.6875L73.375 12.1875C74.0833 11.5625 74.8125 11.25 75.5625 11.25C76.3542 11.25 77.1042 11.5625 77.8125 12.1875L140.375 64.6875C141 65.1875 141.667 65.6458 142.375 66.0625C143.125 66.4792 143.938 66.6875 144.812 66.6875C146.271 66.6875 147.521 66.2708 148.562 65.4375C149.604 64.5625 150.125 63.375 150.125 61.875C150.125 60.125 149.479 58.7083 148.188 57.625L83.125 2.9375C80.7917 0.979167 78.2708 0 75.5625 0C72.8958 0 70.3958 0.979167 68.0625 2.9375L2.9375 57.625C1.60417 58.7083 0.9375 60.0625 0.9375 61.6875ZM116 33.5L131.688 46.75V17.875C131.688 16.5 131.271 15.4167 130.438 14.625C129.646 13.7917 128.562 13.375 127.188 13.375H120.5C119.167 13.375 118.083 13.7917 117.25 14.625C116.417 15.4167 116 16.5 116 17.875V33.5ZM93.25 65.625C94.75 65.25 95.7708 64.7708 96.3125 64.1875C96.8958 63.5625 97.1875 62.3542 97.1875 60.5625V48.125C97.1875 46.9167 96.8958 46.0833 96.3125 45.625C95.7708 45.125 94.6667 45.0833 93 45.5L74.5625 50.0625C73.0208 50.4375 72 50.9375 71.5 51.5625C71.0417 52.1458 70.8125 53.375 70.8125 55.25V83.6875C70.8125 85.1042 70.625 86.0625 70.25 86.5625C69.9167 87.0208 68.9583 87.4583 67.375 87.875L61.5625 89.4375C58.6875 90.1875 56.2083 91.4583 54.125 93.25C52.0417 95 51 97.4167 51 100.5C51 103.167 51.9375 105.375 53.8125 107.125C55.6875 108.875 58.2083 109.75 61.375 109.75C65.875 109.75 69.5208 108.292 72.3125 105.375C75.1042 102.458 76.5 98.7083 76.5 94.125V72.4375C76.5 71.2708 76.6458 70.4792 76.9375 70.0625C77.2292 69.6458 77.7292 69.3542 78.4375 69.1875L93.25 65.625Z" fill="white"/>
</svg>
