<svg xmlns="http://www.w3.org/2000/svg" width="24" height="24"><path style="stroke:none;fill-rule:nonzero;fill:#fff;fill-opacity:1" d="M.898 9.234c0 1.91.153 3.668.454 5.297.3 1.63.718 3.035 1.25 4.242.562 1.247 1.191 2.2 1.859 2.813.734.68 1.496 1.02 2.266 1.008 1.156 0 2.183-.586 3.085-1.758.907-1.184 1.633-2.895 2.18-5.133.551 2.238 1.278 3.95 2.18 5.133.906 1.168 1.933 1.758 3.086 1.758.808 0 1.562-.34 2.265-1.008.668-.613 1.293-1.563 1.852-2.813.516-1.128.945-2.574 1.258-4.242.308-1.629.46-3.39.46-5.297 0-1.312-.066-2.355-.195-3.117-.125-.762-.32-1.148-.585-1.148-.09 0-.18.082-.274.234-.094.16-.172.387-.227.66-.421 1.813-1.066 2.715-1.93 2.715-.468 0-.886-.293-1.25-.867-.359-.574-.698-1.29-1.015-2.133-.316-.855-.644-1.707-.984-2.555-.34-.875-.719-1.597-1.125-2.156C15.09.293 14.602 0 14.039 0c-.707 0-1.293.574-1.758 1.71-.465 1.142-.746 2.708-.851 4.712h1.125c-.098-2.004-.38-3.57-.844-4.711C11.246.574 10.66 0 9.945 0c-.562 0-1.05.293-1.468.871-.407.559-.79 1.285-1.133 2.152-.332.844-.66 1.7-.977 2.555-.316.844-.656 1.559-1.015 2.133-.36.574-.774.867-1.243.867-.808 0-1.457-.914-1.945-2.742a2.394 2.394 0 0 0-.234-.633c-.078-.148-.164-.23-.258-.234-.262 0-.457.39-.586 1.148C.96 6.88.898 7.922.898 9.238Zm0 0"/></svg>