<svg width="16" height="17" viewBox="0 0 16 17" fill="none" xmlns="http://www.w3.org/2000/svg">
<path d="M8 16.3281C9.08854 16.3281 10.112 16.1198 11.0703 15.7031C12.0339 15.2865 12.8828 14.7109 13.6172 13.9766C14.3516 13.2422 14.9271 12.3958 15.3438 11.4375C15.7604 10.474 15.9688 9.44792 15.9688 8.35938C15.9688 7.27083 15.7604 6.2474 15.3438 5.28906C14.9271 4.32552 14.3516 3.47656 13.6172 2.74219C12.8828 2.00781 12.0339 1.43229 11.0703 1.01562C10.1068 0.598958 9.08073 0.390625 7.99219 0.390625C6.90365 0.390625 5.8776 0.598958 4.91406 1.01562C3.95573 1.43229 3.10938 2.00781 2.375 2.74219C1.64583 3.47656 1.07292 4.32552 0.65625 5.28906C0.239583 6.2474 0.03125 7.27083 0.03125 8.35938C0.03125 9.44792 0.239583 10.474 0.65625 11.4375C1.07292 12.3958 1.64844 13.2422 2.38281 13.9766C3.11719 14.7109 3.96354 15.2865 4.92188 15.7031C5.88542 16.1198 6.91146 16.3281 8 16.3281ZM5.57812 12.0547C5.38542 12.0547 5.23698 11.9974 5.13281 11.8828C5.02865 11.763 4.97656 11.6042 4.97656 11.4062V5.19531C4.97656 4.98698 5.03125 4.82292 5.14062 4.70312C5.25 4.57812 5.40365 4.51562 5.60156 4.51562C5.73698 4.51562 5.85417 4.54427 5.95312 4.60156C6.05208 4.65885 6.15104 4.76042 6.25 4.90625L9.75781 9.92969H9.82031V5.16406C9.82031 4.96615 9.8724 4.8099 9.97656 4.69531C10.0807 4.57552 10.2266 4.51562 10.4141 4.51562C10.6068 4.51562 10.7552 4.57292 10.8594 4.6875C10.9688 4.80208 11.0234 4.96094 11.0234 5.16406V11.3828C11.0234 11.5964 10.9661 11.763 10.8516 11.8828C10.7422 11.9974 10.5859 12.0547 10.3828 12.0547C10.2526 12.0547 10.1406 12.026 10.0469 11.9688C9.95312 11.9115 9.85417 11.8099 9.75 11.6641L6.23438 6.72656H6.1875V11.4062C6.1875 11.6146 6.13281 11.776 6.02344 11.8906C5.91406 12 5.76562 12.0547 5.57812 12.0547Z" fill="white"/>
</svg>
