<svg xmlns="http://www.w3.org/2000/svg" width="24" height="24"><path style="stroke:none;fill-rule:nonzero;fill:#fff;fill-opacity:1" d="M4.887 23.3h14.215c1.226 0 2.144-.323 2.753-.976.618-.64.926-1.605.926-2.898V4.164c0-1.293-.308-2.258-.926-2.898-.609-.653-1.527-.977-2.753-.977H4.887c-1.227 0-2.149.324-2.766.977-.61.64-.914 1.605-.914 2.898v15.262c0 1.293.305 2.258.914 2.902.617.649 1.54.973 2.766.973Zm.023-2.01c-.586 0-1.035-.165-1.348-.49-.312-.335-.468-.823-.468-1.476V4.262c0-.649.156-1.137.469-1.461.312-.336.761-.5 1.347-.5h14.168c.578 0 1.024.164 1.336.5.32.324.48.812.48 1.46v15.063c0 .653-.16 1.14-.48 1.477-.312.324-.758.488-1.336.488Zm3.563-3.79c.273 0 .488-.086.644-.262.164-.175.246-.422.246-.738V9.227h.059l5.121 7.671c.156.235.3.395.434.477a.96.96 0 0 0 .492.125c.289 0 .515-.086.68-.262.163-.183.246-.441.246-.773V6.813c0-.317-.079-.563-.235-.739-.156-.176-.37-.261-.644-.261s-.489.09-.645.273c-.148.184-.223.426-.223.726v7.415h-.082L9.457 6.414c-.148-.226-.297-.383-.445-.465a.924.924 0 0 0-.504-.136c-.281 0-.504.097-.668.289-.156.191-.235.445-.235.761V16.5c0 .309.075.555.223.738.156.176.371.262.645.262Zm0 0"/></svg>