<?xml version="1.0" encoding="UTF-8"?>
<svg xmlns="http://www.w3.org/2000/svg" xmlns:xlink="http://www.w3.org/1999/xlink" width="24" height="22.5" viewBox="0 0 24 22.5" version="1.1">
<g id="surface1">
<path style=" stroke:none;fill-rule:nonzero;fill:rgb(100%,100%,100%);fill-opacity:1;" d="M 4.886719 21.84375 L 19.101562 21.84375 C 20.328125 21.84375 21.246094 21.539062 21.855469 20.929688 C 22.472656 20.328125 22.78125 19.421875 22.78125 18.210938 L 22.78125 3.902344 C 22.78125 2.691406 22.472656 1.785156 21.855469 1.183594 C 21.246094 0.574219 20.328125 0.269531 19.101562 0.269531 L 4.886719 0.269531 C 3.660156 0.269531 2.738281 0.574219 2.121094 1.183594 C 1.511719 1.785156 1.207031 2.691406 1.207031 3.902344 L 1.207031 18.210938 C 1.207031 19.421875 1.511719 20.328125 2.121094 20.929688 C 2.738281 21.539062 3.660156 21.84375 4.886719 21.84375 Z M 4.910156 19.957031 C 4.324219 19.957031 3.875 19.804688 3.5625 19.5 C 3.25 19.1875 3.09375 18.726562 3.09375 18.117188 L 3.09375 3.996094 C 3.09375 3.386719 3.25 2.929688 3.5625 2.625 C 3.875 2.3125 4.324219 2.15625 4.910156 2.15625 L 19.078125 2.15625 C 19.65625 2.15625 20.101562 2.3125 20.414062 2.625 C 20.734375 2.929688 20.894531 3.386719 20.894531 3.996094 L 20.894531 18.117188 C 20.894531 18.726562 20.734375 19.1875 20.414062 19.5 C 20.101562 19.804688 19.65625 19.957031 19.078125 19.957031 Z M 8.472656 16.40625 C 8.746094 16.40625 8.960938 16.324219 9.117188 16.160156 C 9.28125 15.996094 9.363281 15.765625 9.363281 15.46875 L 9.363281 8.648438 L 9.421875 8.648438 L 14.542969 15.84375 C 14.699219 16.0625 14.84375 16.210938 14.976562 16.289062 C 15.117188 16.367188 15.28125 16.40625 15.46875 16.40625 C 15.757812 16.40625 15.984375 16.324219 16.148438 16.160156 C 16.3125 15.988281 16.394531 15.746094 16.394531 15.433594 L 16.394531 6.386719 C 16.394531 6.089844 16.316406 5.859375 16.160156 5.695312 C 16.003906 5.53125 15.789062 5.449219 15.515625 5.449219 C 15.242188 5.449219 15.027344 5.535156 14.871094 5.707031 C 14.722656 5.878906 14.648438 6.105469 14.648438 6.386719 L 14.648438 13.335938 L 14.566406 13.335938 L 9.457031 6.011719 C 9.308594 5.800781 9.160156 5.65625 9.011719 5.578125 C 8.871094 5.492188 8.703125 5.449219 8.507812 5.449219 C 8.226562 5.449219 8.003906 5.539062 7.839844 5.71875 C 7.683594 5.898438 7.605469 6.136719 7.605469 6.433594 L 7.605469 15.46875 C 7.605469 15.757812 7.679688 15.988281 7.828125 16.160156 C 7.984375 16.324219 8.199219 16.40625 8.472656 16.40625 Z M 8.472656 16.40625 "/>
</g>
</svg>
