<svg width="116" height="116" viewBox="0 0 116 116" fill="none" xmlns="http://www.w3.org/2000/svg">
<path d="M20.5625 115.5H96.375C102.917 115.5 107.812 113.875 111.062 110.625C114.354 107.417 116 102.583 116 96.125V19.8125C116 13.3542 114.354 8.52083 111.062 5.3125C107.812 2.0625 102.917 0.4375 96.375 0.4375H20.5625C14.0208 0.4375 9.10417 2.0625 5.8125 5.3125C2.5625 8.52083 0.9375 13.3542 0.9375 19.8125V96.125C0.9375 102.583 2.5625 107.417 5.8125 110.625C9.10417 113.875 14.0208 115.5 20.5625 115.5ZM20.6875 105.438C17.5625 105.438 15.1667 104.625 13.5 103C11.8333 101.333 11 98.875 11 95.625V20.3125C11 17.0625 11.8333 14.625 13.5 13C15.1667 11.3333 17.5625 10.5 20.6875 10.5H96.25C99.3333 10.5 101.708 11.3333 103.375 13C105.083 14.625 105.938 17.0625 105.938 20.3125V95.625C105.938 98.875 105.083 101.333 103.375 103C101.708 104.625 99.3333 105.438 96.25 105.438H20.6875ZM39.6875 86.5C41.1458 86.5 42.2917 86.0625 43.125 85.1875C44 84.3125 44.4375 83.0833 44.4375 81.5V45.125H44.75L72.0625 83.5C72.8958 84.6667 73.6667 85.4583 74.375 85.875C75.125 86.2917 76 86.5 77 86.5C78.5417 86.5 79.75 86.0625 80.625 85.1875C81.5 84.2708 81.9375 82.9792 81.9375 81.3125V33.0625C81.9375 31.4792 81.5208 30.25 80.6875 29.375C79.8542 28.5 78.7083 28.0625 77.25 28.0625C75.7917 28.0625 74.6458 28.5208 73.8125 29.4375C73.0208 30.3542 72.625 31.5625 72.625 33.0625V70.125H72.1875L44.9375 31.0625C44.1458 29.9375 43.3542 29.1667 42.5625 28.75C41.8125 28.2917 40.9167 28.0625 39.875 28.0625C38.375 28.0625 37.1875 28.5417 36.3125 29.5C35.4792 30.4583 35.0625 31.7292 35.0625 33.3125V81.5C35.0625 83.0417 35.4583 84.2708 36.25 85.1875C37.0833 86.0625 38.2292 86.5 39.6875 86.5Z" fill="white"/>
</svg>
