<svg width="141" height="135" viewBox="0 0 141 135" fill="none" xmlns="http://www.w3.org/2000/svg">
<path d="M0.9375 61.8125V117.625C0.9375 119.125 1.27083 120.438 1.9375 121.562C2.60417 122.688 3.52083 123.562 4.6875 124.188C5.85417 124.812 7.16667 125.125 8.625 125.125C10.0833 125.083 11.3958 124.75 12.5625 124.125C13.7292 123.542 14.6458 122.688 15.3125 121.562C15.9792 120.438 16.3125 119.125 16.3125 117.625V50.0625H13.25C10.7083 50.0625 8.52083 50.5208 6.6875 51.4375C4.85417 52.3542 3.4375 53.7083 2.4375 55.5C1.4375 57.25 0.9375 59.3542 0.9375 61.8125ZM22.0625 134.875H120.938C127.479 134.875 132.375 133.25 135.625 130C138.917 126.792 140.562 121.979 140.562 115.562V20.25C140.562 13.7917 138.917 8.95833 135.625 5.75C132.375 2.5 127.479 0.875 120.938 0.875H48.125C41.5833 0.875 36.6667 2.5 33.375 5.75C30.125 8.95833 28.5 13.7917 28.5 20.25V121.75C28.5 125.125 28.0417 127.812 27.125 129.812C26.2083 131.854 24.5208 133.542 22.0625 134.875ZM53.5625 38.125C52.4375 38.125 51.5 37.75 50.75 37C50 36.2083 49.625 35.2708 49.625 34.1875C49.625 33.1458 50 32.2708 50.75 31.5625C51.5 30.8125 52.4375 30.4375 53.5625 30.4375H115.625C116.708 30.4375 117.625 30.8125 118.375 31.5625C119.125 32.2708 119.5 33.1458 119.5 34.1875C119.5 35.2708 119.125 36.2083 118.375 37C117.625 37.75 116.708 38.125 115.625 38.125H53.5625ZM53.5625 60.125C52.4375 60.125 51.5 59.7708 50.75 59.0625C50 58.3125 49.625 57.3958 49.625 56.3125C49.625 55.2292 50 54.3125 50.75 53.5625C51.5 52.8125 52.4375 52.4375 53.5625 52.4375H115.625C116.708 52.4375 117.625 52.8125 118.375 53.5625C119.125 54.3125 119.5 55.2292 119.5 56.3125C119.5 57.3958 119.125 58.3125 118.375 59.0625C117.625 59.7708 116.708 60.125 115.625 60.125H53.5625ZM92.3125 82.1875C91.1875 82.1875 90.25 81.8333 89.5 81.125C88.7917 80.375 88.4375 79.4792 88.4375 78.4375C88.4375 77.3125 88.7917 76.375 89.5 75.625C90.25 74.875 91.1875 74.5 92.3125 74.5H115.625C116.708 74.5 117.604 74.875 118.312 75.625C119.062 76.375 119.438 77.3125 119.438 78.4375C119.438 79.4792 119.062 80.375 118.312 81.125C117.604 81.8333 116.708 82.1875 115.625 82.1875H92.3125ZM92.3125 104.688C91.1875 104.688 90.25 104.333 89.5 103.625C88.7917 102.875 88.4375 101.979 88.4375 100.938C88.4375 99.8125 88.7917 98.875 89.5 98.125C90.25 97.375 91.1875 97 92.3125 97H115.625C116.708 97 117.604 97.375 118.312 98.125C119.062 98.875 119.438 99.8125 119.438 100.938C119.438 101.979 119.062 102.875 118.312 103.625C117.604 104.333 116.708 104.688 115.625 104.688H92.3125ZM56.9375 105C54.6042 105 52.7917 104.354 51.5 103.062C50.2083 101.771 49.5625 99.9792 49.5625 97.6875V81.875C49.5625 79.5833 50.2083 77.7917 51.5 76.5C52.7917 75.1667 54.6042 74.5 56.9375 74.5H72.5625C74.8542 74.5 76.6458 75.1667 77.9375 76.5C79.2292 77.7917 79.875 79.5833 79.875 81.875V97.6875C79.875 99.9792 79.2292 101.771 77.9375 103.062C76.6458 104.354 74.8542 105 72.5625 105H56.9375Z" fill="white"/>
</svg>
