<?xml version="1.0" encoding="UTF-8"?>
<svg xmlns="http://www.w3.org/2000/svg" xmlns:xlink="http://www.w3.org/1999/xlink" width="24" height="25.5" viewBox="0 0 24 25.5" version="1.1">
<g id="surface1">
<path style=" stroke:none;fill-rule:nonzero;fill:rgb(100%,100%,100%);fill-opacity:1;" d="M 12 24.492188 C 13.632812 24.492188 15.167969 24.179688 16.605469 23.554688 C 18.050781 22.929688 19.324219 22.066406 20.425781 20.964844 C 21.527344 19.863281 22.390625 18.59375 23.015625 17.15625 C 23.640625 15.710938 23.953125 14.171875 23.953125 12.539062 C 23.953125 10.90625 23.640625 9.371094 23.015625 7.933594 C 22.390625 6.488281 21.527344 5.214844 20.425781 4.113281 C 19.324219 3.011719 18.050781 2.148438 16.605469 1.523438 C 15.160156 0.898438 13.621094 0.585938 11.988281 0.585938 C 10.355469 0.585938 8.816406 0.898438 7.371094 1.523438 C 5.933594 2.148438 4.664062 3.011719 3.5625 4.113281 C 2.46875 5.214844 1.609375 6.488281 0.984375 7.933594 C 0.359375 9.371094 0.046875 10.90625 0.046875 12.539062 C 0.046875 14.171875 0.359375 15.710938 0.984375 17.15625 C 1.609375 18.59375 2.472656 19.863281 3.574219 20.964844 C 4.675781 22.066406 5.945312 22.929688 7.382812 23.554688 C 8.828125 24.179688 10.367188 24.492188 12 24.492188 Z M 12 22.5 C 10.617188 22.5 9.324219 22.242188 8.121094 21.726562 C 6.917969 21.210938 5.859375 20.5 4.945312 19.59375 C 4.039062 18.679688 3.328125 17.621094 2.8125 16.417969 C 2.304688 15.214844 2.050781 13.921875 2.050781 12.539062 C 2.050781 11.15625 2.304688 9.863281 2.8125 8.660156 C 3.328125 7.457031 4.039062 6.398438 4.945312 5.484375 C 5.851562 4.570312 6.90625 3.859375 8.109375 3.351562 C 9.3125 2.835938 10.605469 2.578125 11.988281 2.578125 C 13.371094 2.578125 14.664062 2.835938 15.867188 3.351562 C 17.078125 3.859375 18.136719 4.570312 19.042969 5.484375 C 19.957031 6.398438 20.671875 7.457031 21.1875 8.660156 C 21.703125 9.863281 21.960938 11.15625 21.960938 12.539062 C 21.960938 13.921875 21.703125 15.214844 21.1875 16.417969 C 20.679688 17.621094 19.96875 18.679688 19.054688 19.59375 C 18.140625 20.5 17.082031 21.210938 15.878906 21.726562 C 14.675781 22.242188 13.382812 22.5 12 22.5 Z M 5.8125 12.011719 L 5.8125 16.933594 C 5.8125 17.144531 5.875 17.308594 6 17.425781 C 6.132812 17.542969 6.296875 17.601562 6.492188 17.601562 C 6.6875 17.59375 6.851562 17.53125 6.984375 17.414062 C 7.117188 17.296875 7.183594 17.136719 7.183594 16.933594 L 7.183594 10.96875 L 6.914062 10.96875 C 6.578125 10.96875 6.308594 11.0625 6.105469 11.25 C 5.910156 11.429688 5.8125 11.683594 5.8125 12.011719 Z M 7.675781 18.457031 L 16.417969 18.457031 C 16.996094 18.457031 17.429688 18.316406 17.71875 18.035156 C 18.007812 17.753906 18.152344 17.328125 18.152344 16.757812 L 18.152344 8.332031 C 18.152344 7.761719 18.007812 7.335938 17.71875 7.054688 C 17.429688 6.773438 16.996094 6.632812 16.417969 6.632812 L 9.984375 6.632812 C 9.40625 6.632812 8.972656 6.773438 8.683594 7.054688 C 8.394531 7.335938 8.25 7.761719 8.25 8.332031 L 8.25 17.308594 C 8.25 17.863281 8.058594 18.246094 7.675781 18.457031 Z M 10.5 9.9375 C 10.382812 9.9375 10.289062 9.902344 10.21875 9.832031 C 10.148438 9.761719 10.113281 9.671875 10.113281 9.5625 C 10.113281 9.328125 10.242188 9.210938 10.5 9.210938 L 15.914062 9.210938 C 16.15625 9.210938 16.277344 9.328125 16.277344 9.5625 C 16.277344 9.671875 16.242188 9.761719 16.171875 9.832031 C 16.101562 9.902344 16.015625 9.9375 15.914062 9.9375 Z M 10.5 11.882812 C 10.242188 11.882812 10.113281 11.761719 10.113281 11.519531 C 10.113281 11.277344 10.242188 11.15625 10.5 11.15625 L 15.914062 11.15625 C 16.023438 11.15625 16.109375 11.191406 16.171875 11.261719 C 16.242188 11.324219 16.277344 11.410156 16.277344 11.519531 C 16.277344 11.761719 16.15625 11.882812 15.914062 11.882812 Z M 13.921875 13.863281 C 13.8125 13.863281 13.722656 13.828125 13.652344 13.757812 C 13.582031 13.6875 13.546875 13.605469 13.546875 13.511719 C 13.546875 13.253906 13.671875 13.125 13.921875 13.125 L 15.914062 13.125 C 16.15625 13.125 16.277344 13.253906 16.277344 13.511719 C 16.277344 13.746094 16.15625 13.863281 15.914062 13.863281 Z M 13.921875 15.820312 C 13.671875 15.820312 13.546875 15.699219 13.546875 15.457031 C 13.546875 15.355469 13.582031 15.269531 13.652344 15.199219 C 13.722656 15.128906 13.8125 15.09375 13.921875 15.09375 L 15.914062 15.09375 C 16.015625 15.09375 16.101562 15.128906 16.171875 15.199219 C 16.242188 15.269531 16.277344 15.355469 16.277344 15.457031 C 16.277344 15.699219 16.15625 15.820312 15.914062 15.820312 Z M 10.757812 15.820312 C 10.328125 15.820312 10.113281 15.605469 10.113281 15.175781 L 10.113281 13.78125 C 10.113281 13.34375 10.328125 13.125 10.757812 13.125 L 12.140625 13.125 C 12.578125 13.125 12.796875 13.34375 12.796875 13.78125 L 12.796875 15.175781 C 12.796875 15.605469 12.578125 15.820312 12.140625 15.820312 Z M 10.757812 15.820312 "/>
</g>
</svg>
