<svg width="16" height="16" viewBox="0 0 16 16" fill="none" xmlns="http://www.w3.org/2000/svg">
<path d="M3.59375 15.7656C3.95833 15.7656 4.32031 15.6953 4.67969 15.5547C5.03906 15.4141 5.3776 15.2161 5.69531 14.9609L4.89062 14.1484C4.69792 14.2839 4.49219 14.388 4.27344 14.4609C4.0599 14.5339 3.83594 14.5703 3.60156 14.5703C3.1901 14.5703 2.82031 14.4844 2.49219 14.3125C2.16927 14.1406 1.91406 13.9036 1.72656 13.6016C1.53906 13.2995 1.44531 12.9505 1.44531 12.5547C1.44531 11.9818 1.58594 11.5104 1.86719 11.1406C2.15365 10.7656 2.52865 10.5 2.99219 10.3438C3.45573 10.1875 3.96094 10.151 4.50781 10.2344C4.82031 9.54167 5.09115 8.8099 5.32031 8.03906C5.54948 7.26823 5.7526 6.48958 5.92969 5.70312C6.11198 4.91667 6.29427 4.15104 6.47656 3.40625C6.59115 2.92708 6.76562 2.5599 7 2.30469C7.23958 2.04948 7.57292 1.92188 8 1.92188C8.42188 1.92188 8.75 2.04948 8.98438 2.30469C9.22396 2.5599 9.40104 2.92708 9.51562 3.40625C9.69792 4.15104 9.88021 4.91667 10.0625 5.70312C10.2448 6.48958 10.4479 7.26823 10.6719 8.03906C10.901 8.8099 11.1745 9.54167 11.4922 10.2344C12.0339 10.151 12.5365 10.1875 13 10.3438C13.4688 10.5 13.8438 10.7656 14.125 11.1406C14.4115 11.5104 14.5547 11.9818 14.5547 12.5547C14.5547 12.9505 14.4609 13.2995 14.2734 13.6016C14.0859 13.9036 13.8281 14.1406 13.5 14.3125C13.1771 14.4844 12.8099 14.5703 12.3984 14.5703C12.1641 14.5703 11.9375 14.5339 11.7188 14.4609C11.5052 14.388 11.2995 14.2839 11.1016 14.1484L10.3047 14.9609C10.6172 15.2161 10.9531 15.4141 11.3125 15.5547C11.6771 15.6953 12.0417 15.7656 12.4062 15.7656C13.099 15.7656 13.7031 15.6276 14.2188 15.3516C14.7396 15.0807 15.1432 14.6979 15.4297 14.2031C15.7161 13.7135 15.8594 13.138 15.8594 12.4766C15.8594 11.8516 15.7161 11.2891 15.4297 10.7891C15.1484 10.2839 14.75 9.8724 14.2344 9.55469C13.7188 9.23177 13.1172 9.03385 12.4297 8.96094C12.2526 8.4974 12.0833 8.02344 11.9219 7.53906C11.7604 7.05469 11.6094 6.5651 11.4688 6.07031C11.3281 5.57031 11.1927 5.07292 11.0625 4.57812C10.9375 4.07812 10.8177 3.58333 10.7031 3.09375C10.526 2.29688 10.2135 1.69271 9.76562 1.28125C9.31771 0.869792 8.72917 0.664062 8 0.664062C7.27083 0.664062 6.68229 0.869792 6.23438 1.28125C5.78646 1.69271 5.47396 2.29688 5.29688 3.09375C5.18229 3.58333 5.0599 4.07812 4.92969 4.57812C4.80469 5.07292 4.66927 5.57031 4.52344 6.07031C4.38281 6.5651 4.23177 7.05469 4.07031 7.53906C3.91406 8.02344 3.7474 8.4974 3.57031 8.96094C2.8776 9.03385 2.27344 9.23177 1.75781 9.55469C1.2474 9.8724 0.848958 10.2839 0.5625 10.7891C0.28125 11.2891 0.140625 11.8516 0.140625 12.4766C0.140625 13.138 0.283854 13.7135 0.570312 14.2031C0.856771 14.6979 1.25781 15.0807 1.77344 15.3516C2.29427 15.6276 2.90104 15.7656 3.59375 15.7656ZM8 16C8.63542 16 9.17969 15.9141 9.63281 15.7422C10.0859 15.5703 10.4714 15.3464 10.7891 15.0703C11.1068 14.7995 11.3802 14.513 11.6094 14.2109C11.7812 14.3151 11.9609 14.3672 12.1484 14.3672C12.4609 14.3672 12.7031 14.276 12.875 14.0938C13.0469 13.9115 13.1328 13.7057 13.1328 13.4766C13.1328 13.2526 13.0521 13.0495 12.8906 12.8672C12.7292 12.6797 12.5026 12.5859 12.2109 12.5859C11.9974 12.5859 11.8177 12.6406 11.6719 12.75C11.5312 12.8594 11.3724 13.0078 11.1953 13.1953C10.8724 13.5443 10.5521 13.8281 10.2344 14.0469C9.91667 14.2656 9.57812 14.4271 9.21875 14.5312C8.85938 14.6354 8.45312 14.6875 8 14.6875C7.54688 14.6875 7.13802 14.6354 6.77344 14.5312C6.41406 14.4271 6.07552 14.2656 5.75781 14.0469C5.4401 13.8281 5.1224 13.5443 4.80469 13.1953C4.6276 13.0078 4.46615 12.8594 4.32031 12.75C4.17448 12.6406 3.9974 12.5859 3.78906 12.5859C3.49219 12.5859 3.26302 12.6797 3.10156 12.8672C2.94531 13.0495 2.86719 13.2526 2.86719 13.4766C2.86719 13.7057 2.95312 13.9115 3.125 14.0938C3.29688 14.276 3.53646 14.3672 3.84375 14.3672C4.03125 14.3672 4.21094 14.3151 4.38281 14.2109C4.61719 14.513 4.89323 14.7995 5.21094 15.0703C5.52865 15.3464 5.91406 15.5703 6.36719 15.7422C6.82031 15.9141 7.36458 16 8 16Z" fill="white"/>
</svg>
