<svg width="16" height="15" viewBox="0 0 16 15" fill="none" xmlns="http://www.w3.org/2000/svg">
<path d="M14.1953 1.17188C13.7943 0.770833 13.3177 0.518229 12.7656 0.414062C12.2135 0.304688 11.6042 0.25 10.9375 0.25H5.03906C4.38281 0.25 3.77865 0.304688 3.22656 0.414062C2.67969 0.518229 2.20573 0.770833 1.80469 1.17188C1.40885 1.56771 1.15625 2.03906 1.04688 2.58594C0.942708 3.13281 0.890625 3.73438 0.890625 4.39062V10.2969C0.890625 10.9635 0.942708 11.5729 1.04688 12.125C1.15104 12.6719 1.40365 13.1432 1.80469 13.5391C2.20573 13.9401 2.67969 14.1927 3.22656 14.2969C3.77865 14.4062 4.38802 14.4609 5.05469 14.4609H10.9375C11.6042 14.4609 12.2135 14.4062 12.7656 14.2969C13.3177 14.1927 13.7943 13.9401 14.1953 13.5391C14.5911 13.1432 14.8411 12.6719 14.9453 12.125C15.0547 11.5729 15.1094 10.9635 15.1094 10.2969V4.41406C15.1094 3.7474 15.0547 3.14062 14.9453 2.59375C14.8411 2.04167 14.5911 1.56771 14.1953 1.17188ZM8 11.6875C7.41667 11.6875 6.86458 11.5729 6.34375 11.3438C5.82292 11.1146 5.36198 10.8021 4.96094 10.4062C4.5651 10.0052 4.2526 9.54688 4.02344 9.03125C3.79948 8.51042 3.6875 7.95573 3.6875 7.36719C3.6875 6.77865 3.79948 6.22396 4.02344 5.70312C4.2526 5.18229 4.5651 4.72396 4.96094 4.32812C5.36198 3.92708 5.82031 3.61458 6.33594 3.39062C6.85677 3.16146 7.41146 3.04688 8 3.04688C8.58854 3.04688 9.14323 3.16146 9.66406 3.39062C10.1849 3.61979 10.6432 3.9349 11.0391 4.33594C11.4401 4.73177 11.7526 5.1901 11.9766 5.71094C12.2057 6.23177 12.3203 6.78385 12.3203 7.36719C12.3203 7.95573 12.2057 8.51042 11.9766 9.03125C11.7526 9.55208 11.4401 10.013 11.0391 10.4141C10.6432 10.8099 10.1849 11.1224 9.66406 11.3516C9.14323 11.5755 8.58854 11.6875 8 11.6875ZM4.875 7.36719C4.875 7.9349 5.01823 8.45573 5.30469 8.92969C5.59115 9.40365 5.97135 9.78385 6.44531 10.0703C6.91927 10.3568 7.4375 10.5 8 10.5C8.31771 10.5 8.6224 10.4531 8.91406 10.3594C9.21094 10.2604 9.48177 10.125 9.72656 9.95312L5.41406 5.64062C5.2474 5.89062 5.11458 6.16146 5.01562 6.45312C4.92188 6.74479 4.875 7.04948 4.875 7.36719ZM6.27344 4.78125L10.5938 9.09375C10.7604 8.84375 10.8906 8.57292 10.9844 8.28125C11.0833 7.98958 11.1328 7.6849 11.1328 7.36719C11.1328 6.79948 10.9896 6.27865 10.7031 5.80469C10.4167 5.33073 10.0365 4.95052 9.5625 4.66406C9.08854 4.3776 8.56771 4.23438 8 4.23438C7.68229 4.23438 7.3776 4.28385 7.08594 4.38281C6.79427 4.47656 6.52344 4.60938 6.27344 4.78125Z" fill="white"/>
</svg>
