<?xml version="1.0" encoding="UTF-8"?>
<svg xmlns="http://www.w3.org/2000/svg" xmlns:xlink="http://www.w3.org/1999/xlink" width="24" height="22.5" viewBox="0 0 24 22.5" version="1.1">
<g id="surface1">
<path style=" stroke:none;fill-rule:nonzero;fill:rgb(100%,100%,100%);fill-opacity:1;" d="M 3.996094 21.84375 L 20.003906 21.84375 C 21.230469 21.84375 22.148438 21.539062 22.757812 20.929688 C 23.367188 20.328125 23.671875 19.421875 23.671875 18.210938 L 23.671875 3.902344 C 23.671875 2.691406 23.367188 1.785156 22.757812 1.183594 C 22.148438 0.574219 21.230469 0.269531 20.003906 0.269531 L 3.996094 0.269531 C 2.769531 0.269531 1.847656 0.574219 1.230469 1.183594 C 0.621094 1.785156 0.316406 2.691406 0.316406 3.902344 L 0.316406 18.210938 C 0.316406 19.421875 0.621094 20.328125 1.230469 20.929688 C 1.847656 21.539062 2.769531 21.84375 3.996094 21.84375 Z M 3.820312 19.957031 C 3.304688 19.957031 2.90625 19.816406 2.625 19.535156 C 2.34375 19.261719 2.203125 18.855469 2.203125 18.316406 L 2.203125 7.265625 C 2.203125 6.726562 2.34375 6.320312 2.625 6.046875 C 2.90625 5.765625 3.304688 5.625 3.820312 5.625 L 20.15625 5.625 C 20.679688 5.625 21.082031 5.765625 21.363281 6.046875 C 21.644531 6.320312 21.785156 6.726562 21.785156 7.265625 L 21.785156 18.316406 C 21.785156 18.855469 21.644531 19.261719 21.363281 19.535156 C 21.082031 19.816406 20.679688 19.957031 20.15625 19.957031 Z M 5.859375 9.984375 L 18.164062 9.984375 C 18.375 9.984375 18.546875 9.914062 18.679688 9.773438 C 18.820312 9.632812 18.890625 9.457031 18.890625 9.246094 C 18.890625 9.050781 18.820312 8.886719 18.679688 8.753906 C 18.546875 8.613281 18.375 8.542969 18.164062 8.542969 L 5.859375 8.542969 C 5.648438 8.542969 5.472656 8.613281 5.332031 8.753906 C 5.191406 8.886719 5.121094 9.050781 5.121094 9.246094 C 5.121094 9.457031 5.191406 9.632812 5.332031 9.773438 C 5.472656 9.914062 5.648438 9.984375 5.859375 9.984375 Z M 5.859375 13.511719 L 18.164062 13.511719 C 18.375 13.511719 18.546875 13.445312 18.679688 13.3125 C 18.820312 13.171875 18.890625 13.003906 18.890625 12.808594 C 18.890625 12.605469 18.820312 12.433594 18.679688 12.292969 C 18.546875 12.144531 18.375 12.070312 18.164062 12.070312 L 5.859375 12.070312 C 5.648438 12.070312 5.472656 12.144531 5.332031 12.292969 C 5.191406 12.433594 5.121094 12.605469 5.121094 12.808594 C 5.121094 13.003906 5.191406 13.171875 5.332031 13.3125 C 5.472656 13.445312 5.648438 13.511719 5.859375 13.511719 Z M 5.859375 17.050781 L 13.675781 17.050781 C 13.886719 17.050781 14.058594 16.984375 14.191406 16.851562 C 14.332031 16.710938 14.402344 16.539062 14.402344 16.335938 C 14.402344 16.132812 14.332031 15.960938 14.191406 15.820312 C 14.058594 15.679688 13.886719 15.609375 13.675781 15.609375 L 5.859375 15.609375 C 5.648438 15.609375 5.472656 15.679688 5.332031 15.820312 C 5.191406 15.960938 5.121094 16.132812 5.121094 16.335938 C 5.121094 16.539062 5.191406 16.710938 5.332031 16.851562 C 5.472656 16.984375 5.648438 17.050781 5.859375 17.050781 Z M 5.859375 17.050781 "/>
</g>
</svg>
