<svg width="116" height="116" viewBox="0 0 116 116" fill="none" xmlns="http://www.w3.org/2000/svg">
<path d="M20.5625 115.5H96.375C102.917 115.5 107.812 113.875 111.062 110.625C114.354 107.417 116 102.583 116 96.125V19.8125C116 13.3542 114.354 8.52083 111.062 5.3125C107.812 2.0625 102.917 0.4375 96.375 0.4375H20.5625C14.0208 0.4375 9.10417 2.0625 5.8125 5.3125C2.5625 8.52083 0.9375 13.3542 0.9375 19.8125V96.125C0.9375 102.583 2.5625 107.417 5.8125 110.625C9.10417 113.875 14.0208 115.5 20.5625 115.5ZM20.6875 105.438C17.5625 105.438 15.1667 104.625 13.5 103C11.8333 101.333 11 98.875 11 95.625V20.3125C11 17.0625 11.8333 14.625 13.5 13C15.1667 11.3333 17.5625 10.5 20.6875 10.5H96.25C99.3333 10.5 101.708 11.3333 103.375 13C105.083 14.625 105.938 17.0625 105.938 20.3125V95.625C105.938 98.875 105.083 101.333 103.375 103C101.708 104.625 99.3333 105.438 96.25 105.438H20.6875ZM42.375 88.375C44.8333 88.375 46.3125 87.1875 46.8125 84.8125L49.6875 71.375H61.3125L58.75 83.625C58.4583 84.9167 58.6875 86.0417 59.4375 87C60.2292 87.9167 61.2708 88.375 62.5625 88.375C65.1458 88.375 66.6875 87.1875 67.1875 84.8125L70 71.3125H76.5C77.7083 71.3125 78.7083 70.9167 79.5 70.125C80.2917 69.3333 80.6875 68.3333 80.6875 67.125C80.6875 66.0417 80.3333 65.1667 79.625 64.5C78.9583 63.7917 78.1042 63.4375 77.0625 63.4375H71.625L74.375 50.75H80.9375C82.1458 50.75 83.1458 50.3542 83.9375 49.5625C84.7292 48.7292 85.125 47.7292 85.125 46.5625C85.125 45.4792 84.7917 44.6042 84.125 43.9375C83.4583 43.2292 82.6042 42.875 81.5625 42.875H76L78.4375 31.1875C78.6458 29.8958 78.3542 28.7917 77.5625 27.875C76.7708 26.9167 75.75 26.4375 74.5 26.4375C72 26.4375 70.5 27.6458 70 30.0625L67.3125 42.875H55.625L58.0625 31.1875C58.3542 29.9375 58.1042 28.8333 57.3125 27.875C56.5625 26.9167 55.5208 26.4375 54.1875 26.4375C51.6875 26.4375 50.1875 27.6458 49.6875 30.0625L47 42.875H40.4375C39.2292 42.875 38.2292 43.2917 37.4375 44.125C36.6458 44.9167 36.25 45.8958 36.25 47.0625C36.25 48.1458 36.5833 49.0417 37.25 49.75C37.9167 50.4167 38.7708 50.75 39.8125 50.75H45.3125L42.6875 63.4375H36C34.7917 63.4375 33.7917 63.8542 33 64.6875C32.2083 65.4792 31.8125 66.4583 31.8125 67.625C31.8125 68.7083 32.1458 69.6042 32.8125 70.3125C33.4792 70.9792 34.3333 71.3125 35.375 71.3125H41L38.4375 83.625C38.2292 84.9167 38.5208 86.0417 39.3125 87C40.1042 87.9167 41.125 88.375 42.375 88.375ZM50.8125 64.1875L53.6875 50.125H66.25L63.3125 64.1875H50.8125Z" fill="white"/>
</svg>
