<?xml version="1.0" encoding="UTF-8"?>
<svg xmlns="http://www.w3.org/2000/svg" xmlns:xlink="http://www.w3.org/1999/xlink" width="24" height="22.5" viewBox="0 0 24 22.5" version="1.1">
<g id="surface1">
<path style=" stroke:none;fill-rule:nonzero;fill:rgb(100%,100%,100%);fill-opacity:1;" d="M 4.886719 21.84375 L 19.101562 21.84375 C 20.328125 21.84375 21.246094 21.539062 21.855469 20.929688 C 22.472656 20.328125 22.78125 19.421875 22.78125 18.210938 L 22.78125 3.902344 C 22.78125 2.691406 22.472656 1.785156 21.855469 1.183594 C 21.246094 0.574219 20.328125 0.269531 19.101562 0.269531 L 4.886719 0.269531 C 3.660156 0.269531 2.738281 0.574219 2.121094 1.183594 C 1.511719 1.785156 1.207031 2.691406 1.207031 3.902344 L 1.207031 18.210938 C 1.207031 19.421875 1.511719 20.328125 2.121094 20.929688 C 2.738281 21.539062 3.660156 21.84375 4.886719 21.84375 Z M 4.910156 19.957031 C 4.324219 19.957031 3.875 19.804688 3.5625 19.5 C 3.25 19.1875 3.09375 18.726562 3.09375 18.117188 L 3.09375 3.996094 C 3.09375 3.386719 3.25 2.929688 3.5625 2.625 C 3.875 2.3125 4.324219 2.15625 4.910156 2.15625 L 19.078125 2.15625 C 19.65625 2.15625 20.101562 2.3125 20.414062 2.625 C 20.734375 2.929688 20.894531 3.386719 20.894531 3.996094 L 20.894531 18.117188 C 20.894531 18.726562 20.734375 19.1875 20.414062 19.5 C 20.101562 19.804688 19.65625 19.957031 19.078125 19.957031 Z M 12.011719 16.535156 C 13.003906 16.535156 13.878906 16.300781 14.636719 15.832031 C 15.402344 15.355469 16 14.695312 16.429688 13.851562 C 16.859375 13.007812 17.074219 12.035156 17.074219 10.933594 C 17.074219 9.832031 16.859375 8.859375 16.429688 8.015625 C 16 7.171875 15.402344 6.511719 14.636719 6.035156 C 13.878906 5.558594 13.003906 5.320312 12.011719 5.320312 C 11.011719 5.320312 10.128906 5.558594 9.363281 6.035156 C 8.605469 6.511719 8.011719 7.171875 7.582031 8.015625 C 7.152344 8.859375 6.9375 9.832031 6.9375 10.933594 C 6.9375 12.035156 7.152344 13.007812 7.582031 13.851562 C 8.011719 14.695312 8.605469 15.355469 9.363281 15.832031 C 10.128906 16.300781 11.011719 16.535156 12.011719 16.535156 Z M 12.011719 15.058594 C 11.363281 15.058594 10.796875 14.890625 10.3125 14.554688 C 9.835938 14.210938 9.464844 13.730469 9.199219 13.113281 C 8.941406 12.488281 8.8125 11.761719 8.8125 10.933594 C 8.8125 10.097656 8.941406 9.371094 9.199219 8.753906 C 9.464844 8.136719 9.835938 7.65625 10.3125 7.3125 C 10.796875 6.96875 11.363281 6.796875 12.011719 6.796875 C 12.652344 6.796875 13.210938 6.96875 13.6875 7.3125 C 14.171875 7.65625 14.546875 8.136719 14.8125 8.753906 C 15.078125 9.371094 15.210938 10.097656 15.210938 10.933594 C 15.210938 11.761719 15.078125 12.488281 14.8125 13.113281 C 14.546875 13.730469 14.171875 14.210938 13.6875 14.554688 C 13.210938 14.890625 12.652344 15.058594 12.011719 15.058594 Z M 12.011719 15.058594 "/>
</g>
</svg>
