<?xml version="1.0" encoding="UTF-8"?>
<svg xmlns="http://www.w3.org/2000/svg" xmlns:xlink="http://www.w3.org/1999/xlink" width="24" height="22.5" viewBox="0 0 24 22.5" version="1.1">
<g id="surface1">
<path style=" stroke:none;fill-rule:nonzero;fill:rgb(100%,100%,100%);fill-opacity:1;" d="M 21.082031 2.695312 L 19.007812 0.621094 C 18.875 0.488281 18.71875 0.425781 18.539062 0.433594 C 18.367188 0.433594 18.214844 0.496094 18.082031 0.621094 C 17.957031 0.746094 17.890625 0.898438 17.882812 1.078125 C 17.882812 1.257812 17.949219 1.410156 18.082031 1.535156 L 20.15625 3.621094 C 20.289062 3.753906 20.441406 3.820312 20.613281 3.820312 C 20.792969 3.8125 20.949219 3.746094 21.082031 3.621094 C 21.207031 3.488281 21.269531 3.335938 21.269531 3.164062 C 21.277344 2.984375 21.214844 2.828125 21.082031 2.695312 Z M 6.410156 14.355469 L 7.335938 15.28125 L 20.132812 2.496094 L 19.207031 1.570312 Z M 1.113281 20.589844 C 1.597656 21.074219 2.09375 21.363281 2.601562 21.457031 C 3.117188 21.550781 3.539062 21.429688 3.867188 21.09375 L 8.308594 16.628906 C 8.675781 16.269531 8.953125 15.917969 9.140625 15.574219 C 9.335938 15.230469 9.460938 14.875 9.515625 14.507812 L 9.867188 12.398438 L 9.292969 11.835938 L 7.183594 12.1875 C 6.824219 12.242188 6.472656 12.367188 6.128906 12.5625 C 5.785156 12.75 5.429688 13.023438 5.0625 13.382812 L 0.597656 17.835938 C 0.261719 18.164062 0.140625 18.585938 0.234375 19.101562 C 0.335938 19.609375 0.628906 20.105469 1.113281 20.589844 Z M 2.917969 2.695312 C 2.785156 2.828125 2.71875 2.984375 2.71875 3.164062 C 2.726562 3.335938 2.792969 3.488281 2.917969 3.621094 C 3.050781 3.746094 3.203125 3.8125 3.375 3.820312 C 3.554688 3.820312 3.710938 3.753906 3.84375 3.621094 L 5.917969 1.535156 C 6.050781 1.410156 6.113281 1.257812 6.105469 1.078125 C 6.105469 0.898438 6.042969 0.746094 5.917969 0.621094 C 5.785156 0.496094 5.628906 0.433594 5.449219 0.433594 C 5.277344 0.425781 5.125 0.488281 4.992188 0.621094 Z M 17.589844 14.355469 L 4.792969 1.570312 L 3.867188 2.496094 L 16.664062 15.28125 Z M 22.886719 20.589844 C 23.371094 20.105469 23.660156 19.609375 23.753906 19.101562 C 23.855469 18.585938 23.738281 18.164062 23.402344 17.835938 L 18.9375 13.382812 C 18.578125 13.023438 18.222656 12.75 17.871094 12.5625 C 17.527344 12.367188 17.175781 12.242188 16.816406 12.1875 L 14.707031 11.835938 L 14.144531 12.398438 L 14.484375 14.507812 C 14.539062 14.875 14.660156 15.230469 14.847656 15.574219 C 15.042969 15.917969 15.324219 16.269531 15.691406 16.628906 L 20.132812 21.09375 C 20.460938 21.429688 20.878906 21.550781 21.386719 21.457031 C 21.902344 21.363281 22.402344 21.074219 22.886719 20.589844 Z M 22.886719 20.589844 "/>
</g>
</svg>
