<svg xmlns="http://www.w3.org/2000/svg" width="24" height="24"><path style="stroke:none;fill-rule:nonzero;fill:#fff;fill-opacity:1" d="M8.848 22.621c1.023.285 2.086.43 3.152.43 1.633 0 3.168-.293 4.605-.883a12.22 12.22 0 0 0 3.82-2.438 11.467 11.467 0 0 0 2.59-3.582 10.296 10.296 0 0 0 .82-5.835 9.607 9.607 0 0 0-.315-1.422l-6.235 1.894c.078.332.117.668.117 1.016 0 .941-.242 1.797-.726 2.57a5.477 5.477 0 0 1-1.957 1.844 5.465 5.465 0 0 1-2.707.683c-.407 0-.79-.043-1.149-.12ZM23.19 7.984a11.907 11.907 0 0 0-.562-1.222c-.211-.403-.45-.79-.715-1.157l-5.25 3.66c.063.102.117.208.164.31.055.1.102.21.14.32Zm-1.875-3.14a11.293 11.293 0 0 0-2.296-2.098 11.33 11.33 0 0 0-2.848-1.433L14.145 7.19c.375.137.722.32 1.043.54a4.1 4.1 0 0 1 .867.773Zm-6.093-3.84A11.498 11.498 0 0 0 13.64.672 11.16 11.16 0 0 0 11.988.55c-1.633 0-3.172.293-4.617.883A12.307 12.307 0 0 0 3.562 3.87 11.523 11.523 0 0 0 .985 7.465 10.2 10.2 0 0 0 .047 11.8c0 .531.043 1.054.129 1.578.086.516.207 1.016.363 1.5l6.223-1.91a4.358 4.358 0 0 1-.153-1.168c0-.926.246-1.774.739-2.535a5.415 5.415 0 0 1 1.968-1.832 5.457 5.457 0 0 1 2.707-.684c.391 0 .778.043 1.16.133ZM.879 15.774c.164.41.351.812.562 1.199.22.39.457.77.715 1.136l5.25-3.648a4.3 4.3 0 0 1-.304-.598Zm1.898 3.097a11.01 11.01 0 0 0 2.285 2.05c.864.59 1.817 1.06 2.825 1.392l2.015-5.836a4.805 4.805 0 0 1-1.02-.516 4.257 4.257 0 0 1-.843-.738Zm9.235-3.098a4.243 4.243 0 0 0 2.11-.53 4.135 4.135 0 0 0 1.523-1.446c.375-.602.562-1.27.562-1.996 0-.719-.191-1.375-.574-1.961a4.084 4.084 0 0 0-1.524-1.426 4.166 4.166 0 0 0-2.097-.539c-.766 0-1.469.18-2.11.54A4.18 4.18 0 0 0 8.367 9.84a3.587 3.587 0 0 0-.562 1.96c0 .735.187 1.407.562 2.009.383.597.89 1.074 1.524 1.433.64.352 1.347.531 2.12.531Zm0-1.27a2.927 2.927 0 0 1-1.442-.362 2.867 2.867 0 0 1-1.03-.973 2.466 2.466 0 0 1-.388-1.344c0-.492.13-.941.387-1.347a2.89 2.89 0 0 1 2.473-1.332c.515 0 .988.12 1.418.363.437.242.785.566 1.043.969.257.406.386.851.386 1.335a2.5 2.5 0 0 1-.386 1.356 2.84 2.84 0 0 1-1.043.973c-.43.242-.903.363-1.418.363Zm0-1.222c.406.012.8-.14 1.078-.422.297-.277.46-.652.457-1.046a1.33 1.33 0 0 0-.457-1.016 1.49 1.49 0 0 0-1.067-.43c-.437 0-.808.145-1.113.43-.289.27-.45.637-.445 1.015 0 .407.148.75.445 1.036a1.59 1.59 0 0 0 1.102.43Zm0 0"/></svg>