<svg width="22" height="16" viewBox="0 0 22 16" fill="none" xmlns="http://www.w3.org/2000/svg">
<path d="M0.921875 8.35938C0.921875 9.46354 1.16667 10.4792 1.65625 11.4062C2.15104 12.3333 2.84635 13.138 3.74219 13.8203C4.64323 14.4974 5.70833 15.0208 6.9375 15.3906C8.17188 15.7656 9.52604 15.9531 11 15.9531C12.4792 15.9531 13.8333 15.7656 15.0625 15.3906C16.2917 15.0208 17.3542 14.4974 18.25 13.8203C19.151 13.138 19.8464 12.3333 20.3359 11.4062C20.8307 10.4792 21.0781 9.46354 21.0781 8.35938C21.0781 7.25 20.8307 6.23438 20.3359 5.3125C19.8464 4.38542 19.151 3.58333 18.25 2.90625C17.3542 2.22917 16.2917 1.70573 15.0625 1.33594C13.8333 0.960938 12.4792 0.773438 11 0.773438C9.52604 0.773438 8.17188 0.960938 6.9375 1.33594C5.70833 1.70573 4.64323 2.22917 3.74219 2.90625C2.84635 3.58333 2.15104 4.38542 1.65625 5.3125C1.16667 6.23438 0.921875 7.25 0.921875 8.35938ZM2.17969 8.35938C2.17969 7.4375 2.39323 6.59115 2.82031 5.82031C3.2526 5.04948 3.86198 4.38021 4.64844 3.8125C5.4401 3.24479 6.3724 2.80729 7.44531 2.5C8.52344 2.1875 9.70833 2.03125 11 2.03125C12.2917 2.03125 13.4766 2.1875 14.5547 2.5C15.6328 2.80729 16.5651 3.24479 17.3516 3.8125C18.138 4.38021 18.7448 5.04948 19.1719 5.82031C19.6042 6.59115 19.8203 7.4375 19.8203 8.35938C19.8203 9.28125 19.6042 10.1302 19.1719 10.9062C18.7448 11.6771 18.138 12.3464 17.3516 12.9141C16.5651 13.4818 15.6328 13.9193 14.5547 14.2266C13.4766 14.5391 12.2917 14.6953 11 14.6953C9.70833 14.6953 8.52344 14.5391 7.44531 14.2266C6.3724 13.9193 5.4401 13.4818 4.64844 12.9141C3.86198 12.3464 3.2526 11.6771 2.82031 10.9062C2.39323 10.1302 2.17969 9.28125 2.17969 8.35938Z" fill="white"/>
</svg>
