<svg xmlns="http://www.w3.org/2000/svg" width="24" height="24"><path style="stroke:none;fill-rule:nonzero;fill:#fff;fill-opacity:1" d="M1.004 12.543c0 1.652.27 3.18.805 4.562.539 1.391 1.296 2.602 2.273 3.625a10.258 10.258 0 0 0 3.484 2.356c1.348.562 2.825.84 4.434.84 1.613 0 3.09-.278 4.434-.84 1.34-.555 2.5-1.34 3.476-2.352a10.763 10.763 0 0 0 2.274-3.629c.543-1.402.824-2.972.812-4.562 0-1.664-.273-3.191-.812-4.574a10.511 10.511 0 0 0-2.274-3.606 10.107 10.107 0 0 0-3.476-2.36C15.09 1.442 13.614 1.16 12 1.16c-1.61 0-3.086.281-4.434.844-1.34.55-2.5 1.344-3.484 2.36-.977 1.011-1.734 2.214-2.273 3.605-.536 1.383-.805 2.906-.805 4.57Zm1.375 0c0-1.387.23-2.656.7-3.816A8.972 8.972 0 0 1 5.07 5.719 8.998 8.998 0 0 1 8.121 3.75c1.176-.469 2.469-.703 3.879-.703 1.41 0 2.703.234 3.879.703a8.885 8.885 0 0 1 3.05 1.969 8.856 8.856 0 0 1 1.985 3.008c.473 1.168.715 2.48.707 3.816 0 1.379-.234 2.652-.707 3.816a8.927 8.927 0 0 1-1.984 3.016 8.933 8.933 0 0 1-3.051 1.965c-1.176.469-2.469.703-3.879.703-1.41 0-2.703-.238-3.879-.703a9.047 9.047 0 0 1-3.05-1.965 9.005 9.005 0 0 1-1.993-3.016 10.085 10.085 0 0 1-.7-3.816Zm0 0"/></svg>