<?xml version="1.0" encoding="UTF-8"?>
<svg xmlns="http://www.w3.org/2000/svg" xmlns:xlink="http://www.w3.org/1999/xlink" width="24" height="22.5" viewBox="0 0 24 22.5" version="1.1">
<g id="surface1">
<path style=" stroke:none;fill-rule:nonzero;fill:rgb(100%,100%,100%);fill-opacity:1;" d="M 4.886719 21.84375 L 19.101562 21.84375 C 20.328125 21.84375 21.246094 21.539062 21.855469 20.929688 C 22.472656 20.328125 22.78125 19.421875 22.78125 18.210938 L 22.78125 3.902344 C 22.78125 2.691406 22.472656 1.785156 21.855469 1.183594 C 21.246094 0.574219 20.328125 0.269531 19.101562 0.269531 L 4.886719 0.269531 C 3.660156 0.269531 2.738281 0.574219 2.121094 1.183594 C 1.511719 1.785156 1.207031 2.691406 1.207031 3.902344 L 1.207031 18.210938 C 1.207031 19.421875 1.511719 20.328125 2.121094 20.929688 C 2.738281 21.539062 3.660156 21.84375 4.886719 21.84375 Z M 9.410156 16.582031 C 9.097656 16.582031 8.859375 16.480469 8.695312 16.277344 C 8.53125 16.074219 8.449219 15.808594 8.449219 15.480469 L 8.449219 6.515625 C 8.449219 6.1875 8.527344 5.921875 8.683594 5.71875 C 8.847656 5.515625 9.085938 5.414062 9.398438 5.414062 L 12.773438 5.414062 C 13.945312 5.414062 14.890625 5.757812 15.609375 6.445312 C 16.335938 7.132812 16.699219 8.03125 16.699219 9.140625 C 16.699219 10.25 16.335938 11.144531 15.609375 11.824219 C 14.890625 12.503906 13.941406 12.84375 12.761719 12.84375 L 10.382812 12.84375 L 10.382812 15.480469 C 10.382812 15.816406 10.300781 16.085938 10.136719 16.289062 C 9.972656 16.484375 9.730469 16.582031 9.410156 16.582031 Z M 10.382812 11.367188 L 12.492188 11.367188 C 13.203125 11.367188 13.761719 11.167969 14.167969 10.769531 C 14.582031 10.371094 14.789062 9.828125 14.789062 9.140625 C 14.789062 8.445312 14.582031 7.898438 14.167969 7.5 C 13.753906 7.101562 13.195312 6.902344 12.492188 6.902344 L 10.382812 6.902344 Z M 10.382812 11.367188 "/>
</g>
</svg>
