<?xml version="1.0" encoding="UTF-8"?>
<svg xmlns="http://www.w3.org/2000/svg" xmlns:xlink="http://www.w3.org/1999/xlink" width="24" height="20.4" viewBox="0 0 24 20.4" version="1.1">
<g id="surface1">
<path style=" stroke:none;fill-rule:nonzero;fill:rgb(100%,100%,100%);fill-opacity:1;" d="M 12.835938 19.332031 C 14.152344 19.332031 15.304688 19.183594 16.285156 18.890625 C 17.273438 18.601562 18.039062 18.199219 18.589844 17.679688 C 19.140625 17.164062 19.414062 16.558594 19.414062 15.871094 C 19.414062 15.410156 19.335938 15.023438 19.171875 14.71875 C 19.015625 14.414062 18.835938 14.148438 18.628906 13.921875 C 18.421875 13.691406 18.238281 13.46875 18.074219 13.257812 C 17.917969 13.039062 17.839844 12.792969 17.839844 12.523438 C 17.839844 12.273438 17.972656 12.050781 18.234375 11.851562 C 18.496094 11.644531 18.835938 11.441406 19.246094 11.242188 C 19.660156 11.039062 20.097656 10.820312 20.558594 10.585938 C 21.023438 10.339844 21.460938 10.054688 21.871094 9.722656 C 22.289062 9.390625 22.632812 8.992188 22.894531 8.53125 C 23.15625 8.070312 23.289062 7.515625 23.289062 6.871094 C 23.289062 5.921875 23.054688 5.058594 22.585938 4.285156 C 22.117188 3.507812 21.449219 2.84375 20.585938 2.289062 C 19.730469 1.730469 18.703125 1.304688 17.503906 1.003906 C 16.308594 0.703125 14.984375 0.554688 13.527344 0.554688 C 11.617188 0.554688 9.871094 0.78125 8.296875 1.238281 C 6.726562 1.695312 5.375 2.34375 4.238281 3.1875 C 3.105469 4.023438 2.234375 5.03125 1.621094 6.207031 C 1.007812 7.375 0.703125 8.675781 0.703125 10.105469 C 0.703125 11.480469 0.992188 12.734375 1.574219 13.867188 C 2.15625 14.996094 2.984375 15.972656 4.058594 16.789062 C 5.132812 17.601562 6.414062 18.226562 7.894531 18.664062 C 9.382812 19.109375 11.027344 19.332031 12.835938 19.332031 Z M 12.835938 17.726562 C 11.246094 17.726562 9.804688 17.542969 8.511719 17.175781 C 7.226562 16.8125 6.117188 16.296875 5.183594 15.628906 C 4.257812 14.953125 3.546875 14.148438 3.046875 13.21875 C 2.554688 12.28125 2.304688 11.242188 2.304688 10.105469 C 2.304688 8.914062 2.570312 7.828125 3.09375 6.851562 C 3.625 5.878906 4.382812 5.039062 5.371094 4.339844 C 6.359375 3.640625 7.539062 3.101562 8.914062 2.726562 C 10.296875 2.347656 11.835938 2.15625 13.527344 2.15625 C 15.171875 2.15625 16.601562 2.355469 17.820312 2.757812 C 19.046875 3.148438 19.996094 3.699219 20.671875 4.40625 C 21.347656 5.113281 21.683594 5.933594 21.683594 6.871094 C 21.683594 7.414062 21.550781 7.871094 21.28125 8.242188 C 21.019531 8.601562 20.679688 8.914062 20.257812 9.167969 C 19.847656 9.425781 19.40625 9.660156 18.9375 9.871094 C 18.476562 10.078125 18.035156 10.296875 17.617188 10.527344 C 17.195312 10.757812 16.855469 11.035156 16.59375 11.351562 C 16.332031 11.664062 16.199219 12.058594 16.199219 12.535156 C 16.199219 12.933594 16.28125 13.277344 16.445312 13.566406 C 16.605469 13.847656 16.792969 14.101562 17.007812 14.335938 C 17.21875 14.558594 17.40625 14.785156 17.570312 15.007812 C 17.730469 15.226562 17.8125 15.476562 17.8125 15.75 C 17.8125 16.351562 17.359375 16.828125 16.453125 17.183594 C 15.546875 17.546875 14.339844 17.726562 12.835938 17.726562 Z M 12.066406 15.515625 C 12.539062 15.515625 12.976562 15.398438 13.367188 15.167969 C 13.761719 14.929688 14.074219 14.617188 14.304688 14.222656 C 14.542969 13.828125 14.664062 13.390625 14.664062 12.910156 C 14.664062 12.441406 14.542969 12.007812 14.304688 11.617188 C 14.074219 11.222656 13.761719 10.910156 13.367188 10.679688 C 12.976562 10.441406 12.539062 10.320312 12.066406 10.320312 C 11.589844 10.320312 11.15625 10.441406 10.761719 10.679688 C 10.367188 10.910156 10.054688 11.222656 9.816406 11.617188 C 9.585938 12.007812 9.46875 12.441406 9.46875 12.910156 C 9.46875 13.390625 9.585938 13.828125 9.816406 14.222656 C 10.054688 14.617188 10.367188 14.929688 10.761719 15.167969 C 11.15625 15.398438 11.589844 15.515625 12.066406 15.515625 Z M 12.066406 14.429688 C 11.785156 14.429688 11.527344 14.363281 11.296875 14.230469 C 11.070312 14.09375 10.890625 13.910156 10.753906 13.679688 C 10.621094 13.445312 10.554688 13.191406 10.554688 12.910156 C 10.554688 12.601562 10.625 12.339844 10.761719 12.121094 C 10.90625 11.898438 11.089844 11.726562 11.316406 11.605469 C 11.539062 11.480469 11.785156 11.417969 12.046875 11.417969 C 12.308594 11.414062 12.554688 11.46875 12.789062 11.585938 C 13.023438 11.707031 13.214844 11.878906 13.359375 12.101562 C 13.503906 12.320312 13.574219 12.589844 13.574219 12.910156 C 13.574219 13.191406 13.507812 13.445312 13.367188 13.679688 C 13.238281 13.910156 13.054688 14.09375 12.824219 14.230469 C 12.601562 14.363281 12.347656 14.429688 12.066406 14.429688 Z M 5.4375 11.390625 C 5.867188 11.390625 6.234375 11.238281 6.535156 10.929688 C 6.839844 10.617188 6.992188 10.246094 6.992188 9.816406 C 6.992188 9.382812 6.839844 9.019531 6.535156 8.71875 C 6.234375 8.414062 5.867188 8.257812 5.4375 8.257812 C 5.011719 8.257812 4.648438 8.414062 4.339844 8.71875 C 4.035156 9.019531 3.882812 9.382812 3.882812 9.816406 C 3.882812 10.246094 4.035156 10.617188 4.339844 10.929688 C 4.648438 11.238281 5.011719 11.390625 5.4375 11.390625 Z M 8.859375 8.390625 C 9.402344 8.390625 9.867188 8.199219 10.246094 7.820312 C 10.632812 7.4375 10.828125 6.96875 10.828125 6.414062 C 10.828125 5.875 10.632812 5.417969 10.246094 5.042969 C 9.867188 4.664062 9.402344 4.472656 8.859375 4.472656 C 8.308594 4.472656 7.839844 4.664062 7.453125 5.042969 C 7.070312 5.417969 6.882812 5.875 6.882812 6.414062 C 6.882812 6.96875 7.070312 7.4375 7.453125 7.820312 C 7.839844 8.199219 8.308594 8.390625 8.859375 8.390625 Z M 13.613281 6.871094 C 14.050781 6.871094 14.421875 6.71875 14.726562 6.414062 C 15.035156 6.101562 15.1875 5.726562 15.1875 5.289062 C 15.1875 4.851562 15.035156 4.476562 14.726562 4.171875 C 14.421875 3.867188 14.050781 3.710938 13.613281 3.710938 C 13.179688 3.710938 12.808594 3.867188 12.496094 4.179688 C 12.183594 4.488281 12.027344 4.855469 12.027344 5.289062 C 12.027344 5.726562 12.183594 6.101562 12.496094 6.414062 C 12.808594 6.71875 13.179688 6.871094 13.613281 6.871094 Z M 17.898438 7.472656 C 18.246094 7.472656 18.542969 7.347656 18.789062 7.097656 C 19.039062 6.847656 19.164062 6.542969 19.164062 6.1875 C 19.164062 5.835938 19.039062 5.539062 18.789062 5.289062 C 18.542969 5.039062 18.246094 4.914062 17.898438 4.914062 C 17.539062 4.914062 17.234375 5.039062 16.976562 5.289062 C 16.726562 5.539062 16.601562 5.835938 16.601562 6.1875 C 16.601562 6.542969 16.726562 6.847656 16.976562 7.097656 C 17.234375 7.347656 17.539062 7.472656 17.898438 7.472656 Z M 17.898438 7.472656 "/>
</g>
</svg>
