<svg width="18" height="17" viewBox="0 0 18 17" fill="none" xmlns="http://www.w3.org/2000/svg">
<path d="M0.640625 14.5547C1.00521 15.0443 1.45052 15.4401 1.97656 15.7422C2.50781 16.0495 3.07292 16.2552 3.67188 16.3594C4.27083 16.4635 4.86198 16.4557 5.44531 16.3359C6.02865 16.2214 6.55729 15.9896 7.03125 15.6406C7.57292 15.2396 7.96615 14.776 8.21094 14.25C8.46094 13.7292 8.55208 13.1875 8.48438 12.625C8.42188 12.0573 8.19271 11.5104 7.79688 10.9844C7.42708 10.4844 7.00781 10.1146 6.53906 9.875C6.07031 9.63021 5.59115 9.52344 5.10156 9.55469C4.61719 9.58594 4.15885 9.76562 3.72656 10.0938C3.42448 10.3229 3.20573 10.5703 3.07031 10.8359C2.9401 11.0964 2.84635 11.3568 2.78906 11.6172C2.73177 11.8724 2.67188 12.1068 2.60938 12.3203C2.54688 12.5339 2.42969 12.7031 2.25781 12.8281C2.0599 12.974 1.86719 13.0625 1.67969 13.0938C1.49219 13.125 1.3151 13.1484 1.14844 13.1641C0.981771 13.1797 0.825521 13.2422 0.679688 13.3516C0.523438 13.4766 0.429688 13.6458 0.398438 13.8594C0.372396 14.0729 0.453125 14.3047 0.640625 14.5547ZM2.23438 14.4297C2.18229 14.3776 2.15625 14.3255 2.15625 14.2734C2.15625 14.2214 2.17448 14.1771 2.21094 14.1406C2.2474 14.1094 2.3125 14.0781 2.40625 14.0469C2.50521 14.0208 2.61719 13.9818 2.74219 13.9297C2.86719 13.8724 2.98438 13.7865 3.09375 13.6719C3.28646 13.4844 3.42448 13.2812 3.50781 13.0625C3.59635 12.8385 3.67188 12.612 3.73438 12.3828C3.79688 12.1536 3.88021 11.9323 3.98438 11.7188C4.08854 11.5 4.25 11.3073 4.46875 11.1406C4.71354 10.9479 4.97917 10.8411 5.26562 10.8203C5.55208 10.7995 5.83594 10.8594 6.11719 11C6.39844 11.1406 6.65365 11.3568 6.88281 11.6484C7.13802 11.9818 7.28125 12.3307 7.3125 12.6953C7.34896 13.0547 7.28125 13.4062 7.10938 13.75C6.9375 14.0885 6.67708 14.3932 6.32812 14.6641C6.03125 14.8984 5.70312 15.0703 5.34375 15.1797C4.98958 15.2943 4.625 15.3438 4.25 15.3281C3.875 15.3125 3.51302 15.2318 3.16406 15.0859C2.8151 14.9401 2.50521 14.7214 2.23438 14.4297ZM8.28125 12.6953C8.70312 12.6484 9.10156 12.5182 9.47656 12.3047C9.85156 12.0911 10.237 11.7839 10.6328 11.3828C11.0495 10.9661 11.4948 10.4792 11.9688 9.92188C12.4427 9.36458 12.9193 8.77865 13.3984 8.16406C13.8828 7.54427 14.3438 6.9349 14.7812 6.33594C15.224 5.73698 15.625 5.1875 15.9844 4.6875C16.3438 4.18229 16.638 3.76302 16.8672 3.42969C17.1016 3.09635 17.2474 2.89062 17.3047 2.8125C17.5026 2.54167 17.6016 2.26562 17.6016 1.98438C17.6016 1.70312 17.5312 1.44792 17.3906 1.21875C17.25 0.984375 17.0625 0.796875 16.8281 0.65625C16.599 0.515625 16.3438 0.445312 16.0625 0.445312C15.7812 0.445312 15.5026 0.541667 15.2266 0.734375C15.1484 0.791667 14.9427 0.934896 14.6094 1.16406C14.276 1.39323 13.8568 1.6875 13.3516 2.04688C12.8516 2.40625 12.3021 2.80729 11.7031 3.25C11.1042 3.6875 10.4948 4.14844 9.875 4.63281C9.26042 5.11198 8.67448 5.58854 8.11719 6.0625C7.5599 6.53646 7.07292 6.98438 6.65625 7.40625C6.26562 7.80208 5.96094 8.1849 5.74219 8.55469C5.52865 8.92448 5.39583 9.3151 5.34375 9.72656L6.57031 10.0625C6.58073 9.77604 6.66406 9.48958 6.82031 9.20312C6.97656 8.91667 7.21615 8.61458 7.53906 8.29688C7.95573 7.88542 8.4375 7.45052 8.98438 6.99219C9.53125 6.52865 10.1068 6.0625 10.7109 5.59375C11.3151 5.125 11.9062 4.67708 12.4844 4.25C13.0677 3.81771 13.6016 3.42969 14.0859 3.08594C14.5703 2.73698 14.9661 2.45312 15.2734 2.23438C15.5859 2.01562 15.7708 1.88542 15.8281 1.84375C15.9167 1.77604 16 1.75781 16.0781 1.78906C16.1615 1.8151 16.2161 1.86979 16.2422 1.95312C16.2734 2.03646 16.2552 2.125 16.1875 2.21875C16.1562 2.27083 16.0312 2.45312 15.8125 2.76562C15.599 3.07292 15.3177 3.46875 14.9688 3.95312C14.625 4.4375 14.237 4.97135 13.8047 5.55469C13.3724 6.13802 12.9193 6.73177 12.4453 7.33594C11.9766 7.9401 11.5104 8.51823 11.0469 9.07031C10.5833 9.61719 10.1484 10.0938 9.74219 10.5C9.42448 10.8177 9.13281 11.0495 8.86719 11.1953C8.60677 11.3411 8.34115 11.4297 8.07031 11.4609L8.28125 12.6953ZM9.66406 10.7344L10.6641 10.4766C10.638 10.1068 10.5339 9.74479 10.3516 9.39062C10.1745 9.03125 9.94271 8.70573 9.65625 8.41406C9.36979 8.1224 9.05208 7.88542 8.70312 7.70312C8.35417 7.51562 7.99479 7.40625 7.625 7.375L7.28906 8.375C7.53906 8.36979 7.80208 8.4401 8.07812 8.58594C8.35417 8.73177 8.61198 8.92448 8.85156 9.16406C9.09115 9.40365 9.28646 9.66406 9.4375 9.94531C9.58854 10.2214 9.66406 10.4844 9.66406 10.7344Z" fill="white"/>
</svg>
