<svg xmlns="http://www.w3.org/2000/svg" width="24" height="24"><path style="stroke:none;fill-rule:nonzero;fill:#fff;fill-opacity:1" d="M14.395 23.89c.394 0 .738-.16 1.023-.476.289-.316.535-.738.738-1.266l7.227-18.87c.094-.258.168-.497.219-.72.058-.218.09-.425.09-.617 0-.359-.102-.644-.31-.847-.206-.207-.487-.313-.85-.313a2.561 2.561 0 0 0-.618.09c-.242.059-.48.133-.715.223L2.227 8.359c-.461.176-.852.41-1.168.696-.317.289-.473.629-.473 1.027 0 .508.172.875.516 1.102.347.222.785.41 1.312.574l5.957 1.808c.352.11.645.153.871.133.227-.031.465-.156.707-.375L22.047 2.02c.066-.067.137-.098.21-.09a.32.32 0 0 1 .212.078c.058.05.09.125.086.199a.293.293 0 0 1-.098.219L11.195 14.57c-.215.227-.336.457-.363.684-.031.219.008.516.11.883l1.753 5.824c.16.55.356 1.008.586 1.379.227.367.598.55 1.114.55Zm0 0"/></svg>