<svg xmlns="http://www.w3.org/2000/svg" width="24" height="24"><path style="stroke:none;fill-rule:nonzero;fill:#fff;fill-opacity:1" d="M12 23.05c1.633 0 3.168-.292 4.605-.882a12.22 12.22 0 0 0 3.82-2.438 11.467 11.467 0 0 0 2.59-3.582c.626-1.363.938-2.808.938-4.347a10.2 10.2 0 0 0-.937-4.332 11.53 11.53 0 0 0-2.59-3.598 12.361 12.361 0 0 0-3.82-2.437A12.166 12.166 0 0 0 11.987.55c-1.633 0-3.172.293-4.617.883A12.307 12.307 0 0 0 3.562 3.87 11.523 11.523 0 0 0 .985 7.465 10.2 10.2 0 0 0 .047 11.8c0 1.539.312 2.984.937 4.347a11.467 11.467 0 0 0 2.59 3.582 12.236 12.236 0 0 0 3.809 2.438c1.445.59 2.984.883 4.617.883Zm0-1.874a10.222 10.222 0 0 1-7.055-2.734 9.548 9.548 0 0 1-2.133-2.989 8.83 8.83 0 0 1-.761-3.652c0-1.301.254-2.52.761-3.649A9.52 9.52 0 0 1 4.946 5.16 9.82 9.82 0 0 1 8.11 3.156c1.204-.488 2.496-.73 3.88-.73 1.382 0 2.675.242 3.878.73a9.701 9.701 0 0 1 3.176 2.004 9.432 9.432 0 0 1 2.145 2.992 8.685 8.685 0 0 1 .773 3.649c0 1.3-.258 2.52-.773 3.652a9.22 9.22 0 0 1-2.133 2.988A10.222 10.222 0 0 1 12 21.176Zm-5.191-3.824c.554.511 1.16.851 1.816 1.011.64.164 1.32.157 1.957-.023a4.14 4.14 0 0 0 1.77-1.012l4.793-4.5a.596.596 0 0 0 .187-.43.51.51 0 0 0-.187-.441.617.617 0 0 0-.47-.168.665.665 0 0 0-.468.18l-4.734 4.445c-.547.512-1.168.773-1.864.781-.687.008-1.296-.234-1.828-.726-.547-.508-.816-1.086-.808-1.735.015-.652.297-1.242.843-1.765l6.457-6.074c.344-.325.73-.493 1.16-.508.438-.024.813.11 1.126.394.312.297.457.645.433 1.051-.023.395-.21.762-.562 1.09l-6.305 5.933a.498.498 0 0 1-.352.168.496.496 0 0 1-.328-.132.396.396 0 0 1-.164-.32.476.476 0 0 1 .176-.333l4.406-4.144a.63.63 0 0 0 .211-.43.471.471 0 0 0-.187-.422.639.639 0 0 0-.469-.176.643.643 0 0 0-.445.188L8.566 13.41c-.347.313-.55.742-.562 1.192-.016.441.164.867.492 1.183.344.328.754.492 1.23.485a1.88 1.88 0 0 0 1.266-.543l6.34-5.965c.625-.59.945-1.239.961-1.953.023-.72-.254-1.352-.832-1.899-.594-.543-1.273-.808-2.04-.793-.765.016-1.456.313-2.073.895l-6.504 6.11c-.532.507-.887 1.073-1.067 1.698a3.4 3.4 0 0 0-.011 1.875c.171.617.52 1.168 1.043 1.657Zm0 0"/></svg>