<svg xmlns="http://www.w3.org/2000/svg" width="24" height="24"><path style="stroke:none;fill-rule:nonzero;fill:#fff;fill-opacity:1" d="M12 23.063c1.633 0 3.168-.293 4.605-.883a12.29 12.29 0 0 0 3.82-2.438 11.482 11.482 0 0 0 2.59-3.586c.626-1.36.938-2.804.938-4.343 0-1.536-.312-2.981-.937-4.336a11.514 11.514 0 0 0-2.59-3.594 12.22 12.22 0 0 0-3.82-2.438 12.166 12.166 0 0 0-4.618-.883c-1.633 0-3.172.293-4.617.883a12.307 12.307 0 0 0-3.809 2.438A11.523 11.523 0 0 0 .985 7.477a10.187 10.187 0 0 0-.937 4.335c0 1.54.312 2.985.937 4.344a11.438 11.438 0 0 0 2.59 3.586 12.307 12.307 0 0 0 3.809 2.438c1.445.59 2.984.883 4.617.883Zm-5.332-5.528c-1.043-.933-1.453-2.332-1.066-3.637.187-.648.558-1.234 1.113-1.753l6.703-6.31c.633-.6 1.344-.91 2.133-.913.797-.016 1.5.254 2.11.816.6.563.89 1.219.866 1.961-.023.735-.355 1.406-.996 2.008l-6.539 6.156c-.383.36-.82.547-1.312.559-.48.023-.942-.16-1.266-.496a1.562 1.562 0 0 1-.504-1.223c.016-.476.207-.89.574-1.234l4.536-4.281a.686.686 0 0 1 .468-.2c.18-.004.34.055.48.188a.54.54 0 0 1 .2.441.614.614 0 0 1-.223.434l-4.547 4.277a.518.518 0 0 0-.175.344c0 .125.054.234.164.328.11.09.222.133.34.133a.532.532 0 0 0 .363-.164l6.504-6.121c.367-.348.562-.727.586-1.137.023-.414-.13-.77-.457-1.07a1.474 1.474 0 0 0-1.149-.418c-.445.011-.847.191-1.207.527l-6.644 6.266c-.57.543-.864 1.152-.88 1.82-.007.668.27 1.266.833 1.785.547.508 1.176.762 1.886.762.72-.008 1.36-.278 1.922-.817l4.875-4.578a.704.704 0 0 1 .493-.187.65.65 0 0 1 .492.18c.125.109.183.257.176.449a.548.548 0 0 1-.188.441l-4.945 4.645a4.288 4.288 0 0 1-1.828 1.047 3.918 3.918 0 0 1-2.016.023c-.672-.172-1.297-.52-1.875-1.047Zm0 0"/></svg>