<?xml version="1.0" encoding="UTF-8"?>
<svg xmlns="http://www.w3.org/2000/svg" xmlns:xlink="http://www.w3.org/1999/xlink" width="24" height="36" viewBox="0 0 24 36" version="1.1">
<g id="surface1">
<path style=" stroke:none;fill-rule:nonzero;fill:rgb(100%,100%,100%);fill-opacity:1;" d="M 6.921875 36 C 7.203125 36 7.441406 35.910156 7.640625 35.734375 C 7.839844 35.566406 7.9375 35.359375 7.9375 35.109375 C 7.9375 34.941406 7.90625 34.78125 7.84375 34.625 C 7.792969 34.46875 7.703125 34.292969 7.578125 34.09375 C 6.683594 32.59375 5.921875 30.996094 5.296875 29.296875 C 4.683594 27.589844 4.214844 25.839844 3.890625 24.046875 C 3.578125 22.253906 3.421875 20.480469 3.421875 18.71875 C 3.421875 16.957031 3.578125 15.183594 3.890625 13.390625 C 4.214844 11.597656 4.683594 9.855469 5.296875 8.15625 C 5.921875 6.449219 6.683594 4.84375 7.578125 3.34375 C 7.703125 3.144531 7.792969 2.96875 7.84375 2.8125 C 7.90625 2.65625 7.9375 2.496094 7.9375 2.328125 C 7.9375 2.078125 7.839844 1.863281 7.640625 1.6875 C 7.441406 1.511719 7.203125 1.421875 6.921875 1.421875 C 6.640625 1.421875 6.386719 1.511719 6.15625 1.6875 C 5.9375 1.855469 5.703125 2.125 5.453125 2.5 C 4.339844 4.09375 3.402344 5.785156 2.640625 7.578125 C 1.890625 9.359375 1.324219 11.191406 0.9375 13.078125 C 0.550781 14.964844 0.359375 16.84375 0.359375 18.71875 C 0.359375 20.59375 0.550781 22.472656 0.9375 24.359375 C 1.324219 26.234375 1.890625 28.066406 2.640625 29.859375 C 3.402344 31.640625 4.339844 33.328125 5.453125 34.921875 C 5.703125 35.308594 5.9375 35.582031 6.15625 35.75 C 6.386719 35.917969 6.640625 36 6.921875 36 Z M 17.0625 36 C 17.34375 36 17.59375 35.917969 17.8125 35.75 C 18.042969 35.582031 18.28125 35.308594 18.53125 34.921875 C 19.644531 33.328125 20.578125 31.640625 21.328125 29.859375 C 22.089844 28.066406 22.660156 26.234375 23.046875 24.359375 C 23.433594 22.472656 23.625 20.59375 23.625 18.71875 C 23.625 16.84375 23.433594 14.964844 23.046875 13.078125 C 22.660156 11.191406 22.089844 9.359375 21.328125 7.578125 C 20.578125 5.785156 19.644531 4.09375 18.53125 2.5 C 18.28125 2.125 18.042969 1.855469 17.8125 1.6875 C 17.59375 1.511719 17.34375 1.421875 17.0625 1.421875 C 16.78125 1.421875 16.542969 1.511719 16.34375 1.6875 C 16.144531 1.863281 16.046875 2.078125 16.046875 2.328125 C 16.046875 2.496094 16.074219 2.65625 16.125 2.8125 C 16.1875 2.96875 16.28125 3.144531 16.40625 3.34375 C 17.300781 4.84375 18.058594 6.449219 18.671875 8.15625 C 19.296875 9.855469 19.765625 11.597656 20.078125 13.390625 C 20.402344 15.183594 20.5625 16.957031 20.5625 18.71875 C 20.5625 20.480469 20.402344 22.253906 20.078125 24.046875 C 19.765625 25.839844 19.296875 27.589844 18.671875 29.296875 C 18.058594 30.996094 17.300781 32.59375 16.40625 34.09375 C 16.28125 34.292969 16.1875 34.46875 16.125 34.625 C 16.074219 34.78125 16.046875 34.941406 16.046875 35.109375 C 16.046875 35.359375 16.144531 35.566406 16.34375 35.734375 C 16.542969 35.910156 16.78125 36 17.0625 36 Z M 17.0625 36 "/>
</g>
</svg>
