<?xml version="1.0" encoding="UTF-8"?>
<svg xmlns="http://www.w3.org/2000/svg" xmlns:xlink="http://www.w3.org/1999/xlink" width="24" height="25.5" viewBox="0 0 24 25.5" version="1.1">
<g id="surface1">
<path style=" stroke:none;fill-rule:nonzero;fill:rgb(100%,100%,100%);fill-opacity:1;" d="M 12 24.492188 C 13.632812 24.492188 15.167969 24.179688 16.605469 23.554688 C 18.050781 22.929688 19.324219 22.066406 20.425781 20.964844 C 21.527344 19.863281 22.390625 18.59375 23.015625 17.15625 C 23.640625 15.710938 23.953125 14.171875 23.953125 12.539062 C 23.953125 10.90625 23.640625 9.371094 23.015625 7.933594 C 22.390625 6.488281 21.527344 5.214844 20.425781 4.113281 C 19.324219 3.011719 18.050781 2.148438 16.605469 1.523438 C 15.160156 0.898438 13.621094 0.585938 11.988281 0.585938 C 10.355469 0.585938 8.816406 0.898438 7.371094 1.523438 C 5.933594 2.148438 4.664062 3.011719 3.5625 4.113281 C 2.46875 5.214844 1.609375 6.488281 0.984375 7.933594 C 0.359375 9.371094 0.046875 10.90625 0.046875 12.539062 C 0.046875 14.171875 0.359375 15.710938 0.984375 17.15625 C 1.609375 18.59375 2.472656 19.863281 3.574219 20.964844 C 4.675781 22.066406 5.945312 22.929688 7.382812 23.554688 C 8.828125 24.179688 10.367188 24.492188 12 24.492188 Z M 9.410156 18.082031 C 9.097656 18.082031 8.859375 17.980469 8.695312 17.777344 C 8.53125 17.574219 8.449219 17.308594 8.449219 16.980469 L 8.449219 8.015625 C 8.449219 7.6875 8.527344 7.421875 8.683594 7.21875 C 8.847656 7.015625 9.085938 6.914062 9.398438 6.914062 L 12.773438 6.914062 C 13.945312 6.914062 14.890625 7.257812 15.609375 7.945312 C 16.335938 8.632812 16.699219 9.53125 16.699219 10.640625 C 16.699219 11.75 16.335938 12.644531 15.609375 13.324219 C 14.890625 14.003906 13.941406 14.34375 12.761719 14.34375 L 10.382812 14.34375 L 10.382812 16.980469 C 10.382812 17.316406 10.300781 17.585938 10.136719 17.789062 C 9.972656 17.984375 9.730469 18.082031 9.410156 18.082031 Z M 10.382812 12.867188 L 12.492188 12.867188 C 13.203125 12.867188 13.761719 12.667969 14.167969 12.269531 C 14.582031 11.871094 14.789062 11.328125 14.789062 10.640625 C 14.789062 9.945312 14.582031 9.398438 14.167969 9 C 13.753906 8.601562 13.195312 8.402344 12.492188 8.402344 L 10.382812 8.402344 Z M 10.382812 12.867188 "/>
</g>
</svg>
