<svg width="179" height="146" viewBox="0 0 179 146" fill="none" xmlns="http://www.w3.org/2000/svg">
<path d="M18.125 19.1875C12.3333 26.8958 7.89583 35.3125 4.8125 44.4375C1.72917 53.5625 0.1875 63.0417 0.1875 72.875C0.1875 82.75 1.70833 92.1667 4.75 101.125C7.79167 110.083 12.0417 118.271 17.5 125.688C18.4583 127.021 19.6667 127.75 21.125 127.875C22.625 128.042 24 127.625 25.25 126.625C26.375 125.667 27 124.5 27.125 123.125C27.2917 121.75 26.9167 120.438 26 119.188C21.25 112.729 17.5417 105.562 14.875 97.6875C12.2083 89.8125 10.875 81.5417 10.875 72.875C10.875 64.25 12.1875 56.0417 14.8125 48.25C17.4375 40.4583 21.0833 33.3125 25.75 26.8125L18.125 19.1875ZM89.375 123.188C82.4167 123.188 75.8958 121.896 69.8125 119.312C63.7292 116.729 58.375 113.146 53.75 108.562C49.1667 103.938 45.5833 98.5833 43 92.5C40.4167 86.4167 39.125 79.875 39.125 72.875C39.125 68.125 39.75 63.5625 41 59.1875C42.25 54.8125 44.0208 50.75 46.3125 47L38.625 39.3125C35.4167 44.1875 32.9167 49.4583 31.125 55.125C29.3333 60.7917 28.4375 66.7083 28.4375 72.875C28.4375 81.2083 30.0208 89.0625 33.1875 96.4375C36.3958 103.771 40.7917 110.25 46.375 115.875C52 121.458 58.4792 125.833 65.8125 129C73.1875 132.208 81.0417 133.812 89.375 133.812C95.5417 133.812 101.458 132.917 107.125 131.125C112.792 129.333 118.042 126.812 122.875 123.562L115.312 116C111.521 118.292 107.438 120.062 103.062 121.312C98.6875 122.562 94.125 123.188 89.375 123.188ZM89.3125 22.5C96.3125 22.5 102.854 23.8125 108.938 26.4375C115.021 29.0208 120.354 32.625 124.938 37.25C129.562 41.8333 133.167 47.1667 135.75 53.25C138.375 59.3333 139.708 65.875 139.75 72.875C139.75 77.5833 139.125 82.1042 137.875 86.4375C136.667 90.7708 134.917 94.8125 132.625 98.5625L140.25 106.125C143.417 101.333 145.896 96.125 147.688 90.5C149.479 84.8333 150.375 78.9583 150.375 72.875C150.375 64.5417 148.771 56.7083 145.562 49.375C142.354 42 137.938 35.5208 132.312 29.9375C126.729 24.3125 120.25 19.9167 112.875 16.75C105.5 13.5417 97.6458 11.9375 89.3125 11.9375C83.2292 11.9375 77.375 12.8333 71.75 14.625C66.125 16.375 60.9167 18.8333 56.125 22L63.75 29.625C67.4583 27.375 71.4583 25.625 75.75 24.375C80.0833 23.125 84.6042 22.5 89.3125 22.5ZM160.812 126.375C166.604 118.583 171 110.188 174 101.188C177.042 92.1458 178.562 82.7083 178.562 72.875C178.562 62.9583 177.042 53.5208 174 44.5625C170.958 35.6042 166.708 27.4167 161.25 20C160.292 18.7083 159.062 17.9792 157.562 17.8125C156.104 17.6458 154.75 18.0625 153.5 19.0625C152.333 20.0208 151.688 21.1875 151.562 22.5625C151.479 23.9375 151.875 25.2292 152.75 26.4375C157.542 32.9792 161.25 40.1875 163.875 48.0625C166.542 55.8958 167.875 64.1667 167.875 72.875C167.875 81.4167 166.562 89.5833 163.938 97.375C161.354 105.125 157.75 112.229 153.125 118.688L160.812 126.375ZM78.25 43.8125L85.875 51.4375H92.6875C96.3542 51.4375 99.25 52.4792 101.375 54.5625C103.5 56.6042 104.562 59.4375 104.562 63.0625C104.562 64.1875 104.396 65.2292 104.062 66.1875C103.729 67.1458 103.292 67.9583 102.75 68.625L109.75 75.6875C111.25 74.1042 112.396 72.25 113.188 70.125C114.021 67.9583 114.438 65.6042 114.438 63.0625C114.438 57.3125 112.562 52.6667 108.812 49.125C105.062 45.5833 100.167 43.8125 94.125 43.8125H78.25ZM76.6875 101.5C80.0625 101.5 81.75 99.625 81.75 95.875V82.4375L71.75 72.5V95.875C71.75 97.5417 72.1667 98.8958 73 99.9375C73.875 100.979 75.1042 101.5 76.6875 101.5ZM154 144.125C154.958 145.083 156.104 145.562 157.438 145.562C158.771 145.562 159.896 145.083 160.812 144.125C161.729 143.167 162.188 142.021 162.188 140.688C162.229 139.396 161.771 138.271 160.812 137.312L25.5 2C24.5833 1.04167 23.4375 0.5625 22.0625 0.5625C20.7292 0.5625 19.5833 1.04167 18.625 2C17.7083 2.91667 17.25 4.0625 17.25 5.4375C17.25 6.77083 17.7083 7.89583 18.625 8.8125L154 144.125Z" fill="white"/>
</svg>
