<svg width="16" height="17" viewBox="0 0 16 17" fill="none" xmlns="http://www.w3.org/2000/svg">
<path d="M8 16.3281C9.08854 16.3281 10.112 16.1198 11.0703 15.7031C12.0339 15.2865 12.8828 14.7109 13.6172 13.9766C14.3516 13.2422 14.9271 12.3958 15.3438 11.4375C15.7604 10.474 15.9688 9.44792 15.9688 8.35938C15.9688 7.27083 15.7604 6.2474 15.3438 5.28906C14.9271 4.32552 14.3516 3.47656 13.6172 2.74219C12.8828 2.00781 12.0339 1.43229 11.0703 1.01562C10.1068 0.598958 9.08073 0.390625 7.99219 0.390625C6.90365 0.390625 5.8776 0.598958 4.91406 1.01562C3.95573 1.43229 3.10938 2.00781 2.375 2.74219C1.64583 3.47656 1.07292 4.32552 0.65625 5.28906C0.239583 6.2474 0.03125 7.27083 0.03125 8.35938C0.03125 9.44792 0.239583 10.474 0.65625 11.4375C1.07292 12.3958 1.64844 13.2422 2.38281 13.9766C3.11719 14.7109 3.96354 15.2865 4.92188 15.7031C5.88542 16.1198 6.91146 16.3281 8 16.3281ZM6.27344 12.0547C6.0651 12.0547 5.90625 11.987 5.79688 11.8516C5.6875 11.7161 5.63281 11.5391 5.63281 11.3203V5.34375C5.63281 5.125 5.6849 4.94792 5.78906 4.8125C5.89844 4.67708 6.05729 4.60938 6.26562 4.60938H8.51562C9.29688 4.60938 9.92708 4.83854 10.4062 5.29688C10.8906 5.75521 11.1328 6.35417 11.1328 7.09375C11.1328 7.83333 10.8906 8.42969 10.4062 8.88281C9.92708 9.33594 9.29427 9.5625 8.50781 9.5625H6.92188V11.3203C6.92188 11.5443 6.86719 11.724 6.75781 11.8594C6.64844 11.9896 6.48698 12.0547 6.27344 12.0547ZM6.92188 8.57812H8.32812C8.80208 8.57812 9.17448 8.44531 9.44531 8.17969C9.72135 7.91406 9.85938 7.55208 9.85938 7.09375C9.85938 6.63021 9.72135 6.26562 9.44531 6C9.16927 5.73438 8.79688 5.60156 8.32812 5.60156H6.92188V8.57812Z" fill="white"/>
</svg>
