<svg xmlns="http://www.w3.org/2000/svg" width="24" height="24"><path style="stroke:none;fill-rule:nonzero;fill:#fff;fill-opacity:1" d="M12 23.05c1.633 0 3.168-.292 4.605-.882a12.22 12.22 0 0 0 3.82-2.438 11.467 11.467 0 0 0 2.59-3.582c.626-1.363.938-2.808.938-4.347a10.2 10.2 0 0 0-.937-4.332 11.53 11.53 0 0 0-2.59-3.598 12.361 12.361 0 0 0-3.82-2.437A12.166 12.166 0 0 0 11.987.55c-1.633 0-3.172.293-4.617.883A12.307 12.307 0 0 0 3.562 3.87 11.523 11.523 0 0 0 .985 7.465 10.2 10.2 0 0 0 .047 11.8c0 1.539.312 2.984.937 4.347a11.467 11.467 0 0 0 2.59 3.582 12.236 12.236 0 0 0 3.809 2.438c1.445.59 2.984.883 4.617.883Zm-2.59-6.03c-.312 0-.55-.098-.715-.29-.164-.19-.246-.44-.246-.75V7.543c0-.309.078-.559.235-.75.164-.191.402-.285.714-.285h3.375c1.172 0 2.118.324 2.836.969.727.648 1.09 1.492 1.09 2.539 0 1.043-.363 1.886-1.09 2.523-.718.64-1.668.961-2.847.961h-2.38v2.48c0 .317-.081.57-.245.762-.164.184-.407.278-.727.278Zm.973-4.91h2.11c.71 0 1.269-.188 1.675-.563.414-.375.621-.887.621-1.531 0-.657-.207-1.172-.621-1.547-.414-.371-.973-.563-1.676-.563h-2.11Zm0 0"/></svg>