<?xml version="1.0" encoding="UTF-8"?>
<svg xmlns="http://www.w3.org/2000/svg" xmlns:xlink="http://www.w3.org/1999/xlink" width="24" height="31.2" viewBox="0 0 24 31.2" version="1.1">
<g id="surface1">
<path style=" stroke:none;fill-rule:nonzero;fill:rgb(100%,100%,100%);fill-opacity:1;" d="M 3.054688 30.542969 L 7.332031 30.542969 C 8.144531 30.542969 8.761719 30.332031 9.1875 29.90625 C 9.613281 29.480469 9.824219 28.855469 9.824219 28.03125 L 9.824219 2.492188 C 9.824219 1.644531 9.613281 1.019531 9.1875 0.617188 C 8.761719 0.207031 8.144531 0 7.332031 0 L 3.054688 0 C 2.230469 0 1.605469 0.210938 1.179688 0.636719 C 0.769531 1.0625 0.5625 1.679688 0.5625 2.492188 L 0.5625 28.03125 C 0.5625 28.855469 0.769531 29.480469 1.179688 29.90625 C 1.605469 30.332031 2.230469 30.542969 3.054688 30.542969 Z M 16.6875 30.542969 L 20.945312 30.542969 C 21.769531 30.542969 22.386719 30.332031 22.800781 29.90625 C 23.226562 29.480469 23.4375 28.855469 23.4375 28.03125 L 23.4375 2.492188 C 23.4375 1.644531 23.226562 1.019531 22.800781 0.617188 C 22.386719 0.207031 21.769531 0 20.945312 0 L 16.6875 0 C 15.863281 0 15.238281 0.210938 14.8125 0.636719 C 14.386719 1.0625 14.175781 1.679688 14.175781 2.492188 L 14.175781 28.03125 C 14.175781 28.855469 14.386719 29.480469 14.8125 29.90625 C 15.238281 30.332031 15.863281 30.542969 16.6875 30.542969 Z M 16.6875 30.542969 "/>
</g>
</svg>
