<svg width="16" height="17" viewBox="0 0 16 17" fill="none" xmlns="http://www.w3.org/2000/svg">
<path d="M8 16.3281C9.08854 16.3281 10.112 16.1198 11.0703 15.7031C12.0339 15.2865 12.8828 14.7109 13.6172 13.9766C14.3516 13.2422 14.9271 12.3958 15.3438 11.4375C15.7604 10.474 15.9688 9.44792 15.9688 8.35938C15.9688 7.27083 15.7604 6.2474 15.3438 5.28906C14.9271 4.32552 14.3516 3.47656 13.6172 2.74219C12.8828 2.00781 12.0339 1.43229 11.0703 1.01562C10.1068 0.598958 9.08073 0.390625 7.99219 0.390625C6.90365 0.390625 5.8776 0.598958 4.91406 1.01562C3.95573 1.43229 3.10938 2.00781 2.375 2.74219C1.64583 3.47656 1.07292 4.32552 0.65625 5.28906C0.239583 6.2474 0.03125 7.27083 0.03125 8.35938C0.03125 9.44792 0.239583 10.474 0.65625 11.4375C1.07292 12.3958 1.64844 13.2422 2.38281 13.9766C3.11719 14.7109 3.96354 15.2865 4.92188 15.7031C5.88542 16.1198 6.91146 16.3281 8 16.3281ZM8 15C7.07812 15 6.21615 14.8281 5.41406 14.4844C4.61198 14.1406 3.90625 13.6667 3.29688 13.0625C2.69271 12.4531 2.21875 11.7474 1.875 10.9453C1.53646 10.1432 1.36719 9.28125 1.36719 8.35938C1.36719 7.4375 1.53646 6.57552 1.875 5.77344C2.21875 4.97135 2.69271 4.26562 3.29688 3.65625C3.90104 3.04688 4.60417 2.57292 5.40625 2.23438C6.20833 1.89062 7.07031 1.71875 7.99219 1.71875C8.91406 1.71875 9.77604 1.89062 10.5781 2.23438C11.3854 2.57292 12.0911 3.04688 12.6953 3.65625C13.3047 4.26562 13.7812 4.97135 14.125 5.77344C14.4688 6.57552 14.6406 7.4375 14.6406 8.35938C14.6406 9.28125 14.4688 10.1432 14.125 10.9453C13.7865 11.7474 13.3125 12.4531 12.7031 13.0625C12.0938 13.6667 11.388 14.1406 10.5859 14.4844C9.78385 14.8281 8.92188 15 8 15ZM5.78906 11.3984H6.5625C6.75521 11.3984 6.89583 11.3516 6.98438 11.2578C7.07812 11.1641 7.125 11.0417 7.125 10.8906V5.8125C7.125 5.66146 7.07812 5.53906 6.98438 5.44531C6.89583 5.34635 6.75521 5.29688 6.5625 5.29688H5.78906C5.59635 5.29688 5.45312 5.34635 5.35938 5.44531C5.27083 5.53906 5.22656 5.66146 5.22656 5.8125V10.8906C5.22656 11.0417 5.27083 11.1641 5.35938 11.2578C5.45312 11.3516 5.59635 11.3984 5.78906 11.3984ZM9.44531 11.3984H10.2109C10.3984 11.3984 10.5391 11.3516 10.6328 11.2578C10.7266 11.1641 10.7734 11.0417 10.7734 10.8906V5.8125C10.7734 5.66146 10.7266 5.53906 10.6328 5.44531C10.5391 5.34635 10.3984 5.29688 10.2109 5.29688H9.44531C9.2526 5.29688 9.10938 5.34635 9.01562 5.44531C8.92188 5.53906 8.875 5.66146 8.875 5.8125V10.8906C8.875 11.0417 8.92188 11.1641 9.01562 11.2578C9.10938 11.3516 9.2526 11.3984 9.44531 11.3984Z" fill="white"/>
</svg>
