<svg width="78" height="102" viewBox="0 0 78 102" fill="none" xmlns="http://www.w3.org/2000/svg">
<path d="M9.25 101.812H23.5C26.2083 101.812 28.2708 101.104 29.6875 99.6875C31.1042 98.2708 31.8125 96.1875 31.8125 93.4375V8.3125C31.8125 5.47917 31.1042 3.39583 29.6875 2.0625C28.2708 0.6875 26.2083 0 23.5 0H9.25C6.5 0 4.41667 0.708333 3 2.125C1.625 3.54167 0.9375 5.60417 0.9375 8.3125V93.4375C0.9375 96.1875 1.625 98.2708 3 99.6875C4.41667 101.104 6.5 101.812 9.25 101.812ZM54.6875 101.812H68.875C71.625 101.812 73.6875 101.104 75.0625 99.6875C76.4792 98.2708 77.1875 96.1875 77.1875 93.4375V8.3125C77.1875 5.47917 76.4792 3.39583 75.0625 2.0625C73.6875 0.6875 71.625 0 68.875 0H54.6875C51.9375 0 49.8542 0.708333 48.4375 2.125C47.0208 3.54167 46.3125 5.60417 46.3125 8.3125V93.4375C46.3125 96.1875 47.0208 98.2708 48.4375 99.6875C49.8542 101.104 51.9375 101.812 54.6875 101.812Z" fill="white"/>
</svg>
