<?xml version="1.0" encoding="UTF-8"?>
<svg xmlns="http://www.w3.org/2000/svg" xmlns:xlink="http://www.w3.org/1999/xlink" width="24" height="20.4" viewBox="0 0 24 20.4" version="1.1">
<g id="surface1">
<path style=" stroke:none;fill-rule:nonzero;fill:rgb(100%,100%,100%);fill-opacity:1;" d="M 1.5 19.976562 C 1.707031 19.976562 1.882812 19.902344 2.023438 19.753906 C 2.175781 19.609375 2.25 19.433594 2.25 19.226562 L 2.25 0.835938 C 2.25 0.628906 2.175781 0.453125 2.023438 0.308594 C 1.882812 0.160156 1.707031 0.0859375 1.5 0.0859375 C 1.289062 0.0859375 1.105469 0.160156 0.957031 0.308594 C 0.8125 0.453125 0.742188 0.628906 0.742188 0.835938 L 0.742188 19.226562 C 0.742188 19.433594 0.8125 19.609375 0.957031 19.753906 C 1.105469 19.902344 1.289062 19.976562 1.5 19.976562 Z M 22.5 19.976562 C 22.707031 19.976562 22.882812 19.902344 23.023438 19.753906 C 23.175781 19.609375 23.25 19.433594 23.25 19.226562 L 23.25 0.835938 C 23.25 0.628906 23.175781 0.453125 23.023438 0.308594 C 22.882812 0.160156 22.707031 0.0859375 22.5 0.0859375 C 22.289062 0.0859375 22.105469 0.160156 21.957031 0.308594 C 21.8125 0.453125 21.742188 0.628906 21.742188 0.835938 L 21.742188 19.226562 C 21.742188 19.433594 21.8125 19.609375 21.957031 19.753906 C 22.105469 19.902344 22.289062 19.976562 22.5 19.976562 Z M 10.867188 6.261719 L 19.976562 5.195312 C 20.421875 5.144531 20.644531 4.925781 20.644531 4.539062 L 20.644531 2.222656 C 20.644531 2.023438 20.585938 1.851562 20.464844 1.714844 C 20.347656 1.570312 20.183594 1.523438 19.976562 1.566406 L 10.742188 3.609375 C 10.554688 3.652344 10.417969 3.730469 10.332031 3.84375 C 10.242188 3.957031 10.199219 4.085938 10.199219 4.226562 L 10.199219 5.671875 C 10.199219 5.882812 10.257812 6.042969 10.367188 6.148438 C 10.480469 6.25 10.648438 6.289062 10.867188 6.261719 Z M 10.742188 9.648438 L 19.976562 9.648438 C 20.179688 9.648438 20.335938 9.585938 20.457031 9.46875 C 20.582031 9.34375 20.644531 9.183594 20.644531 8.992188 L 20.644531 6.675781 C 20.644531 6.476562 20.585938 6.308594 20.464844 6.179688 C 20.347656 6.046875 20.183594 5.992188 19.976562 6.019531 L 10.742188 7.097656 C 10.574219 7.117188 10.441406 7.183594 10.339844 7.304688 C 10.246094 7.414062 10.199219 7.558594 10.199219 7.734375 L 10.199219 9.039062 C 10.199219 9.226562 10.25 9.375 10.351562 9.488281 C 10.457031 9.59375 10.585938 9.648438 10.742188 9.648438 Z M 10.742188 13.011719 L 19.976562 14.089844 C 20.183594 14.117188 20.347656 14.0625 20.464844 13.929688 C 20.585938 13.800781 20.644531 13.632812 20.644531 13.433594 L 20.644531 11.117188 C 20.644531 10.925781 20.582031 10.769531 20.457031 10.648438 C 20.335938 10.523438 20.179688 10.460938 19.976562 10.460938 L 10.742188 10.460938 C 10.585938 10.460938 10.457031 10.519531 10.351562 10.632812 C 10.25 10.738281 10.199219 10.882812 10.199219 11.070312 L 10.199219 12.375 C 10.199219 12.550781 10.246094 12.695312 10.339844 12.816406 C 10.441406 12.929688 10.574219 12.992188 10.742188 13.011719 Z M 10.742188 16.5 L 19.976562 18.542969 C 20.183594 18.585938 20.347656 18.539062 20.464844 18.394531 C 20.585938 18.257812 20.644531 18.085938 20.644531 17.886719 L 20.644531 15.5625 C 20.644531 15.179688 20.421875 14.964844 19.976562 14.914062 L 10.867188 13.847656 C 10.648438 13.820312 10.480469 13.863281 10.367188 13.96875 C 10.257812 14.070312 10.199219 14.226562 10.199219 14.4375 L 10.199219 15.882812 C 10.199219 16.023438 10.242188 16.152344 10.332031 16.265625 C 10.417969 16.378906 10.554688 16.457031 10.742188 16.5 Z M 19.996094 4.003906 L 22.5 4.003906 L 22.5 2.773438 L 19.996094 2.773438 Z M 19.996094 8.445312 L 22.5 8.445312 L 22.5 7.21875 L 19.996094 7.21875 Z M 19.996094 12.882812 L 22.5 12.882812 L 22.5 11.652344 L 19.996094 11.652344 Z M 19.996094 17.316406 L 22.5 17.316406 L 22.5 16.085938 L 19.996094 16.085938 Z M 19.996094 17.316406 "/>
</g>
</svg>
