<svg width="151" height="134" viewBox="0 0 151 134" fill="none" xmlns="http://www.w3.org/2000/svg">
<path d="M6 133.188C7.375 133.188 8.54167 132.688 9.5 131.688C10.5 130.729 11 129.562 11 128.188V5.5625C11 4.1875 10.5 3.02083 9.5 2.0625C8.54167 1.0625 7.375 0.5625 6 0.5625C4.58333 0.5625 3.375 1.0625 2.375 2.0625C1.41667 3.02083 0.9375 4.1875 0.9375 5.5625V128.188C0.9375 129.562 1.41667 130.729 2.375 131.688C3.375 132.688 4.58333 133.188 6 133.188ZM146 133.188C147.375 133.188 148.542 132.688 149.5 131.688C150.5 130.729 151 129.562 151 128.188V5.5625C151 4.1875 150.5 3.02083 149.5 2.0625C148.542 1.0625 147.375 0.5625 146 0.5625C144.583 0.5625 143.375 1.0625 142.375 2.0625C141.417 3.02083 140.938 4.1875 140.938 5.5625V128.188C140.938 129.562 141.417 130.729 142.375 131.688C143.375 132.688 144.583 133.188 146 133.188ZM68.4375 41.75L129.188 34.625C132.146 34.2917 133.625 32.8333 133.625 30.25V14.8125C133.625 13.4792 133.229 12.3542 132.438 11.4375C131.646 10.4792 130.562 10.1458 129.188 10.4375L67.625 24.0625C66.375 24.3542 65.4583 24.875 64.875 25.625C64.2917 26.375 64 27.2292 64 28.1875V37.8125C64 39.2292 64.375 40.2917 65.125 41C65.875 41.6667 66.9792 41.9167 68.4375 41.75ZM67.625 64.3125H129.188C130.521 64.3125 131.583 63.9167 132.375 63.125C133.208 62.2917 133.625 61.2292 133.625 59.9375V44.5C133.625 43.1667 133.229 42.0625 132.438 41.1875C131.646 40.3125 130.562 39.9583 129.188 40.125L67.625 47.3125C66.5 47.4375 65.6042 47.8958 64.9375 48.6875C64.3125 49.4375 64 50.3958 64 51.5625V60.25C64 61.5 64.3333 62.5 65 63.25C65.7083 63.9583 66.5833 64.3125 67.625 64.3125ZM67.625 86.75L129.188 93.9375C130.562 94.1042 131.646 93.75 132.438 92.875C133.229 92 133.625 90.8958 133.625 89.5625V74.125C133.625 72.8333 133.208 71.7917 132.375 71C131.583 70.1667 130.521 69.75 129.188 69.75H67.625C66.5833 69.75 65.7083 70.125 65 70.875C64.3333 71.5833 64 72.5625 64 73.8125V82.5C64 83.6667 64.3125 84.6458 64.9375 85.4375C65.6042 86.1875 66.5 86.625 67.625 86.75ZM67.625 110L129.188 123.625C130.562 123.917 131.646 123.583 132.438 122.625C133.229 121.708 133.625 120.583 133.625 119.25V103.75C133.625 101.208 132.146 99.7708 129.188 99.4375L68.4375 92.3125C66.9792 92.1458 65.875 92.4167 65.125 93.125C64.375 93.7917 64 94.8333 64 96.25V105.875C64 106.833 64.2917 107.688 64.875 108.438C65.4583 109.188 66.375 109.708 67.625 110ZM129.312 26.6875H146V18.5H129.312V26.6875ZM129.312 56.3125H146V48.125H129.312V56.3125ZM129.312 85.875H146V77.6875H129.312V85.875ZM129.312 115.438H146V107.25H129.312V115.438Z" fill="white"/>
</svg>
