<svg xmlns="http://www.w3.org/2000/svg" width="24" height="24"><path style="stroke:none;fill-rule:nonzero;fill:#fff;fill-opacity:1" d="M5.293 19.27c.684.69 1.445 1.3 2.27 1.812.796.488 1.582.875 2.355 1.168.777.293 1.5.512 2.164.656.668.153 1.23.25 1.688.293.273.028.48-.027.625-.156a.704.704 0 0 0 .261-.461.802.802 0 0 0-.144-.531c-.121-.164-.309-.266-.563-.301-.418-.055-.93-.152-1.531-.293-.668-.156-1.32-.36-1.961-.602-.7-.257-1.41-.597-2.125-1.023-.707-.43-1.375-.96-2-1.594a12.584 12.584 0 0 1-2.426-3.363c-.597-1.23-.969-2.473-1.113-3.73-.148-1.254-.059-2.446.27-3.57a6.85 6.85 0 0 1 1.75-2.95 6.244 6.244 0 0 1 2.312-1.48 8.126 8.126 0 0 1 2.73-.489c.961-.008 1.918.117 2.844.364.942.25 1.828.597 2.656 1.042l1.082-1.05a13.021 13.021 0 0 0-3.23-1.375 11.813 11.813 0 0 0-3.426-.45 9.695 9.695 0 0 0-3.261.614 7.75 7.75 0 0 0-2.75 1.781 8.18 8.18 0 0 0-1.758 2.625 9.56 9.56 0 0 0-.73 3.156c-.071 1.114.03 2.246.3 3.407a13.64 13.64 0 0 0 1.344 3.398 13.976 13.976 0 0 0 2.367 3.102Zm3.789-3.114a12.275 12.275 0 0 0 4.793 2.95c.875.277 1.742.43 2.605.456a6.972 6.972 0 0 0 2.47-.375 5.564 5.564 0 0 0 2.081-1.332 5.592 5.592 0 0 0 1.356-2.199c.277-.84.386-1.738.332-2.699-.047-.965-.258-1.95-.625-2.957a12.779 12.779 0 0 0-1.563-2.95L19.47 8.114c.707 1.051 1.215 2.117 1.52 3.2.312 1.082.394 2.105.241 3.062a4.3 4.3 0 0 1-1.242 2.438c-.61.609-1.308 1.011-2.093 1.199-.778.187-1.59.199-2.438.039a8.869 8.869 0 0 1-2.508-.914 11.057 11.057 0 0 1-2.273-1.668Zm1.367-1.55 9.352-9.344-1.551-1.543-9.344 9.332-.855 1.992c-.047.102-.031.2.054.289.09.09.192.117.301.074ZM20.563 4.511l.832-.836c.203-.2.304-.43.304-.688a.845.845 0 0 0-.293-.664l-.27-.25a.891.891 0 0 0-.648-.242.878.878 0 0 0-.644.281l-.824.844Zm0 0"/></svg>