<?xml version="1.0" encoding="UTF-8"?>
<svg xmlns="http://www.w3.org/2000/svg" xmlns:xlink="http://www.w3.org/1999/xlink" width="24" height="38.4" viewBox="0 0 24 38.4" version="1.1">
<g id="surface1">
<path style=" stroke:none;fill-rule:nonzero;fill:rgb(100%,100%,100%);fill-opacity:1;" d="M 1.6875 37.78125 C 2.125 37.78125 2.457031 37.667969 2.679688 37.445312 C 2.917969 37.230469 3.074219 36.929688 3.148438 36.542969 L 6.863281 17.644531 L 4.988281 19.164062 L 18.976562 19.164062 L 17.101562 17.644531 L 20.8125 36.542969 C 20.886719 36.929688 21.039062 37.230469 21.261719 37.445312 C 21.5 37.667969 21.835938 37.78125 22.273438 37.78125 C 22.898438 37.78125 23.324219 37.59375 23.550781 37.21875 C 23.789062 36.84375 23.855469 36.40625 23.757812 35.90625 L 20.25 18.054688 C 20.136719 17.46875 19.855469 16.980469 19.40625 16.59375 C 18.957031 16.207031 18.449219 16.011719 17.886719 16.011719 L 6.09375 16.011719 C 5.519531 16.011719 5.007812 16.207031 4.554688 16.59375 C 4.117188 16.980469 3.84375 17.46875 3.730469 18.054688 L 0.226562 35.90625 C 0.113281 36.417969 0.175781 36.855469 0.414062 37.21875 C 0.648438 37.59375 1.074219 37.78125 1.6875 37.78125 Z M 5.679688 17.53125 L 18.300781 17.53125 L 13.632812 3.601562 C 13.34375 2.773438 12.804688 2.363281 12.019531 2.363281 C 11.167969 2.363281 10.605469 2.773438 10.332031 3.601562 Z M 5.679688 17.53125 "/>
</g>
</svg>
