<?xml version="1.0" encoding="UTF-8"?>
<svg xmlns="http://www.w3.org/2000/svg" xmlns:xlink="http://www.w3.org/1999/xlink" width="24" height="25.5" viewBox="0 0 24 25.5" version="1.1">
<g id="surface1">
<path style=" stroke:none;fill-rule:nonzero;fill:rgb(100%,100%,100%);fill-opacity:1;" d="M 12 24.503906 C 13.632812 24.503906 15.167969 24.191406 16.605469 23.566406 C 18.050781 22.941406 19.324219 22.078125 20.425781 20.976562 C 21.527344 19.875 22.390625 18.605469 23.015625 17.167969 C 23.640625 15.722656 23.953125 14.183594 23.953125 12.550781 C 23.953125 10.917969 23.640625 9.382812 23.015625 7.945312 C 22.390625 6.5 21.527344 5.226562 20.425781 4.125 C 19.324219 3.023438 18.050781 2.160156 16.605469 1.535156 C 15.160156 0.910156 13.621094 0.597656 11.988281 0.597656 C 10.355469 0.597656 8.816406 0.910156 7.371094 1.535156 C 5.933594 2.160156 4.664062 3.023438 3.5625 4.125 C 2.46875 5.226562 1.609375 6.5 0.984375 7.945312 C 0.359375 9.382812 0.046875 10.917969 0.046875 12.550781 C 0.046875 14.183594 0.359375 15.722656 0.984375 17.167969 C 1.609375 18.605469 2.472656 19.875 3.574219 20.976562 C 4.675781 22.078125 5.945312 22.941406 7.382812 23.566406 C 8.828125 24.191406 10.367188 24.503906 12 24.503906 Z M 8.132812 17.789062 L 6.457031 18.410156 C 6.324219 18.457031 6.203125 18.429688 6.09375 18.328125 C 5.984375 18.226562 5.964844 18.101562 6.035156 17.953125 L 6.714844 16.347656 L 14.613281 8.460938 L 16.042969 9.890625 Z M 16.769531 9.175781 L 15.339844 7.734375 L 16.230469 6.855469 C 16.425781 6.667969 16.628906 6.566406 16.839844 6.550781 C 17.050781 6.535156 17.25 6.617188 17.4375 6.796875 L 17.707031 7.078125 C 17.894531 7.257812 17.980469 7.457031 17.964844 7.675781 C 17.957031 7.886719 17.855469 8.09375 17.660156 8.296875 Z M 16.769531 9.175781 "/>
</g>
</svg>
