<svg width="14" height="19" viewBox="0 0 14 19" fill="none" xmlns="http://www.w3.org/2000/svg">
<path d="M0.164062 2.57031H2.125V1.45312C2.125 1.17188 2.05469 0.955729 1.91406 0.804688C1.77865 0.648438 1.58333 0.570312 1.32812 0.570312H0.945312C0.695312 0.570312 0.502604 0.648438 0.367188 0.804688C0.231771 0.960938 0.164062 1.17708 0.164062 1.45312V2.57031ZM0.164062 16.1094L0.875 17.8594C0.916667 17.9531 0.992188 18 1.10156 18C1.21094 18.0052 1.28646 17.9609 1.32812 17.8672L2.125 16.1094V3.48438H0.164062V16.1094ZM8.04688 18.0312H11.9219C12.4896 18.0312 12.9505 17.8542 13.3047 17.5C13.6589 17.1458 13.8359 16.6849 13.8359 16.1172V2.60938C13.8359 2.04167 13.6589 1.57812 13.3047 1.21875C12.9505 0.859375 12.4896 0.679688 11.9219 0.679688H8.04688C7.47917 0.679688 7.01823 0.859375 6.66406 1.21875C6.3151 1.57292 6.14062 2.03385 6.14062 2.60156V16.1094C6.14062 16.6823 6.3151 17.1458 6.66406 17.5C7.01823 17.8542 7.47917 18.0312 8.04688 18.0312ZM8.25781 16.8906C7.96094 16.8906 7.72396 16.8021 7.54688 16.625C7.36979 16.4531 7.28125 16.224 7.28125 15.9375V2.78125C7.28125 2.49479 7.36979 2.26562 7.54688 2.09375C7.72396 1.91667 7.96094 1.82812 8.25781 1.82812H11.7188C12.0104 1.82812 12.2448 1.91667 12.4219 2.09375C12.599 2.26562 12.6875 2.49479 12.6875 2.78125V15.9297C12.6875 16.2161 12.599 16.4479 12.4219 16.625C12.2448 16.8021 12.0104 16.8906 11.7188 16.8906H8.25781ZM13.0938 3.39844V2.80469H9.35938C9.28125 2.80469 9.21354 2.83333 9.15625 2.89062C9.09896 2.94271 9.07031 3.01302 9.07031 3.10156C9.07031 3.17969 9.09635 3.25 9.14844 3.3125C9.20573 3.36979 9.27344 3.39844 9.35156 3.39844H13.0938ZM13.0938 4.64062V4.0625H10.6016C10.5182 4.0625 10.4505 4.09115 10.3984 4.14844C10.3464 4.20052 10.3203 4.27083 10.3203 4.35938C10.3203 4.4375 10.3438 4.50521 10.3906 4.5625C10.4427 4.61458 10.5104 4.64062 10.5938 4.64062H13.0938ZM13.0938 5.89844V5.32031H10.6016C10.5182 5.32031 10.4505 5.34896 10.3984 5.40625C10.3464 5.45833 10.3203 5.52865 10.3203 5.61719C10.3203 5.69531 10.3438 5.76302 10.3906 5.82031C10.4427 5.8724 10.5104 5.89844 10.5938 5.89844H13.0938ZM13.0938 7.14844V6.5625H10.6016C10.5182 6.5625 10.4505 6.59115 10.3984 6.64844C10.3464 6.70052 10.3203 6.76823 10.3203 6.85156C10.3203 6.9349 10.3438 7.00521 10.3906 7.0625C10.4427 7.11979 10.5104 7.14844 10.5938 7.14844H13.0938ZM13.0938 8.39844V7.8125H10.6016C10.5182 7.8125 10.4505 7.84115 10.3984 7.89844C10.3464 7.95052 10.3203 8.02344 10.3203 8.11719C10.3203 8.1901 10.3438 8.25521 10.3906 8.3125C10.4427 8.36979 10.5104 8.39844 10.5938 8.39844H13.0938ZM13.0938 9.64062V9.07031H9.35938C9.28125 9.07031 9.21354 9.09635 9.15625 9.14844C9.09896 9.20052 9.07031 9.27083 9.07031 9.35938C9.07031 9.44271 9.09635 9.51042 9.14844 9.5625C9.20573 9.61458 9.27344 9.64062 9.35156 9.64062H13.0938ZM13.0938 10.9062V10.3203H10.6016C10.5182 10.3203 10.4505 10.349 10.3984 10.4062C10.3464 10.4583 10.3203 10.526 10.3203 10.6094C10.3203 10.6927 10.3438 10.763 10.3906 10.8203C10.4427 10.8776 10.5104 10.9062 10.5938 10.9062H13.0938ZM13.0938 12.1562V11.5781H10.6016C10.5182 11.5781 10.4505 11.6042 10.3984 11.6562C10.3464 11.7083 10.3203 11.7786 10.3203 11.8672C10.3203 11.9453 10.3438 12.013 10.3906 12.0703C10.4427 12.1276 10.5104 12.1562 10.5938 12.1562H13.0938ZM13.0938 13.3984V12.8203H10.6016C10.5182 12.8203 10.4505 12.849 10.3984 12.9062C10.3464 12.9583 10.3203 13.026 10.3203 13.1094C10.3203 13.1875 10.3438 13.2552 10.3906 13.3125C10.4427 13.3698 10.5104 13.3984 10.5938 13.3984H13.0938ZM13.0938 14.6484V14.0703H10.6016C10.5182 14.0703 10.4505 14.0964 10.3984 14.1484C10.3464 14.2005 10.3203 14.2682 10.3203 14.3516C10.3203 14.4401 10.3438 14.513 10.3906 14.5703C10.4427 14.6224 10.5104 14.6484 10.5938 14.6484H13.0938ZM13.0938 15.8984V15.3125H9.35938C9.28125 15.3125 9.21354 15.3385 9.15625 15.3906C9.09896 15.4479 9.07031 15.5208 9.07031 15.6094C9.07031 15.6875 9.09635 15.7552 9.14844 15.8125C9.20573 15.8698 9.27344 15.8984 9.35156 15.8984H13.0938Z" fill="white"/>
</svg>
