<svg xmlns="http://www.w3.org/2000/svg" width="24" height="24"><path style="stroke:none;fill-rule:nonzero;fill:#fff;fill-opacity:1" d="m4.98 22.11 7.22-7.774-2.356-2.524-7.219 7.774-1.273 3.203a.443.443 0 0 0 .093.473c.137.156.282.199.442.133Zm10.875-11.7 3.739-4.02-2.344-2.542-3.738 4.039Zm4.918-5.262 1.352-1.425c.34-.368.52-.739.535-1.11.02-.386-.125-.75-.43-1.086l-.453-.476c-.304-.336-.632-.488-.992-.457-.348.023-.691.219-1.031.574l-1.367 1.445Zm-.082 15.997c.184.214.45.335.723.332a.948.948 0 0 0 .738-.332 1.13 1.13 0 0 0 .293-.782c0-.304-.097-.57-.293-.789L5.316 1.441a.972.972 0 0 0-.75-.332.936.936 0 0 0-.722.332c-.196.211-.301.496-.293.793 0 .313.097.567.293.782Zm0 0"/></svg>