<svg xmlns="http://www.w3.org/2000/svg" width="24" height="24"><path style="stroke:none;fill-rule:nonzero;fill:#fff;fill-opacity:1" d="M22.523 4.164c0-1.05-.128-1.789-.386-2.207-.258-.43-.645-.645-1.16-.645-.758 0-1.555.262-2.391.79-.836.52-1.617 1.27-2.344 2.25-.726.972-1.32 2.156-1.781 3.55-.453 1.383-.68 2.946-.68 4.688 0 1.73.227 3.293.68 4.687.46 1.383 1.055 2.567 1.781 3.551.727.973 1.508 1.719 2.344 2.235.836.527 1.633.789 2.39.789.516 0 .903-.211 1.16-.641.259-.422.387-1.156.387-2.211Zm-10.84 8.426c0-.957-.23-1.84-.69-2.652A5.335 5.335 0 0 0 9.14 7.984c-.782-.504-1.657-.754-2.625-.754-.954 0-1.813.25-2.579.75a5.37 5.37 0 0 0-1.804 1.957 5.415 5.415 0 0 0-.668 2.653c0 .957.219 1.84.656 2.648a5.34 5.34 0 0 0 1.793 1.973c.758.492 1.617.734 2.578.734.977 0 1.856-.246 2.637-.734.789-.5 1.41-1.156 1.863-1.969a5.28 5.28 0 0 0 .692-2.652Zm0 0"/></svg>