<?xml version="1.0" encoding="UTF-8"?>
<svg xmlns="http://www.w3.org/2000/svg" xmlns:xlink="http://www.w3.org/1999/xlink" width="24" height="11.25" viewBox="0 0 24 11.25" version="1.1">
<g id="surface1">
<path style=" stroke:none;fill-rule:nonzero;fill:rgb(100%,100%,100%);fill-opacity:1;" d="M 1.746094 11.046875 L 9.109375 11.046875 C 10.070312 11.046875 10.546875 10.734375 10.546875 10.109375 C 10.546875 9.722656 10.429688 9.316406 10.195312 8.882812 C 9.960938 8.449219 9.621094 8.042969 9.175781 7.65625 C 8.734375 7.269531 8.199219 6.957031 7.5625 6.714844 C 6.9375 6.472656 6.226562 6.351562 5.433594 6.351562 C 4.636719 6.351562 3.917969 6.472656 3.285156 6.714844 C 2.65625 6.957031 2.121094 7.269531 1.675781 7.65625 C 1.234375 8.042969 0.894531 8.449219 0.660156 8.882812 C 0.425781 9.316406 0.308594 9.722656 0.308594 10.109375 C 0.308594 10.734375 0.789062 11.046875 1.746094 11.046875 Z M 1.472656 10.160156 C 1.390625 10.160156 1.335938 10.148438 1.300781 10.125 C 1.269531 10.101562 1.253906 10.058594 1.253906 9.996094 C 1.253906 9.757812 1.34375 9.480469 1.523438 9.171875 C 1.707031 8.855469 1.976562 8.546875 2.332031 8.253906 C 2.6875 7.964844 3.125 7.722656 3.644531 7.53125 C 4.164062 7.335938 4.757812 7.238281 5.433594 7.238281 C 6.101562 7.238281 6.699219 7.335938 7.214844 7.53125 C 7.734375 7.722656 8.167969 7.964844 8.527344 8.253906 C 8.878906 8.546875 9.148438 8.855469 9.328125 9.171875 C 9.511719 9.480469 9.605469 9.757812 9.605469 9.996094 C 9.605469 10.058594 9.585938 10.101562 9.550781 10.125 C 9.519531 10.148438 9.46875 10.160156 9.390625 10.160156 Z M 5.433594 5.542969 C 5.890625 5.542969 6.3125 5.417969 6.699219 5.167969 C 7.082031 4.917969 7.390625 4.585938 7.617188 4.171875 C 7.847656 3.753906 7.964844 3.292969 7.964844 2.789062 C 7.964844 2.289062 7.847656 1.835938 7.625 1.433594 C 7.398438 1.03125 7.09375 0.707031 6.707031 0.46875 C 6.328125 0.230469 5.902344 0.113281 5.433594 0.113281 C 4.96875 0.113281 4.542969 0.234375 4.152344 0.472656 C 3.773438 0.714844 3.464844 1.039062 3.234375 1.449219 C 3.007812 1.851562 2.898438 2.304688 2.902344 2.800781 C 2.902344 3.300781 3.015625 3.757812 3.238281 4.175781 C 3.46875 4.59375 3.777344 4.921875 4.160156 5.175781 C 4.542969 5.417969 4.96875 5.542969 5.433594 5.542969 Z M 5.433594 4.660156 C 5.140625 4.660156 4.875 4.574219 4.636719 4.410156 C 4.398438 4.242188 4.203125 4.019531 4.058594 3.738281 C 3.914062 3.457031 3.84375 3.144531 3.84375 2.800781 C 3.839844 2.460938 3.910156 2.15625 4.054688 1.886719 C 4.199219 1.613281 4.390625 1.398438 4.628906 1.238281 C 4.871094 1.078125 5.136719 0.996094 5.433594 0.996094 C 5.71875 0.996094 5.984375 1.074219 6.222656 1.230469 C 6.464844 1.386719 6.65625 1.601562 6.800781 1.875 C 6.945312 2.144531 7.019531 2.449219 7.019531 2.789062 C 7.019531 3.132812 6.945312 3.445312 6.796875 3.730469 C 6.652344 4.011719 6.460938 4.238281 6.214844 4.40625 C 5.976562 4.574219 5.71875 4.660156 5.433594 4.660156 Z M 11.996094 6.351562 C 11.503906 6.351562 11.046875 6.402344 10.617188 6.503906 C 10.1875 6.601562 9.792969 6.734375 9.425781 6.910156 C 9.5625 7.007812 9.695312 7.117188 9.8125 7.222656 C 9.9375 7.335938 10.058594 7.449219 10.167969 7.5625 C 10.425781 7.46875 10.710938 7.386719 11.015625 7.332031 C 11.324219 7.265625 11.652344 7.238281 11.996094 7.238281 C 12.664062 7.238281 13.261719 7.335938 13.78125 7.53125 C 14.300781 7.722656 14.738281 7.964844 15.09375 8.253906 C 15.449219 8.546875 15.714844 8.855469 15.894531 9.171875 C 16.078125 9.480469 16.171875 9.757812 16.171875 9.996094 C 16.171875 10.058594 16.15625 10.101562 16.121094 10.125 C 16.085938 10.148438 16.03125 10.160156 15.953125 10.160156 L 11.273438 10.160156 C 11.269531 10.320312 11.25 10.472656 11.214844 10.617188 C 11.179688 10.765625 11.113281 10.910156 11.019531 11.046875 L 15.671875 11.046875 C 16.636719 11.046875 17.113281 10.734375 17.113281 10.109375 C 17.113281 9.722656 17 9.316406 16.765625 8.882812 C 16.53125 8.449219 16.1875 8.042969 15.746094 7.65625 C 15.300781 7.269531 14.765625 6.957031 14.132812 6.714844 C 13.503906 6.472656 12.792969 6.351562 11.996094 6.351562 Z M 12 5.542969 C 12.464844 5.542969 12.890625 5.417969 13.269531 5.167969 C 13.652344 4.917969 13.960938 4.585938 14.1875 4.171875 C 14.417969 3.753906 14.53125 3.292969 14.53125 2.789062 C 14.53125 2.289062 14.417969 1.835938 14.191406 1.433594 C 13.964844 1.03125 13.660156 0.707031 13.277344 0.46875 C 12.894531 0.230469 12.46875 0.113281 12 0.113281 C 11.535156 0.113281 11.109375 0.234375 10.730469 0.472656 C 10.347656 0.714844 10.039062 1.039062 9.808594 1.449219 C 9.582031 1.851562 9.46875 2.304688 9.46875 2.800781 C 9.46875 3.300781 9.582031 3.757812 9.808594 4.175781 C 10.039062 4.59375 10.347656 4.921875 10.730469 5.175781 C 11.109375 5.417969 11.535156 5.542969 12 5.542969 Z M 12 4.660156 C 11.714844 4.660156 11.449219 4.574219 11.207031 4.410156 C 10.96875 4.242188 10.773438 4.019531 10.628906 3.738281 C 10.484375 3.457031 10.410156 3.144531 10.410156 2.800781 C 10.410156 2.460938 10.484375 2.15625 10.625 1.886719 C 10.769531 1.613281 10.960938 1.398438 11.203125 1.238281 C 11.445312 1.078125 11.710938 0.996094 12 0.996094 C 12.292969 0.996094 12.558594 1.074219 12.796875 1.230469 C 13.039062 1.386719 13.230469 1.601562 13.371094 1.875 C 13.515625 2.144531 13.589844 2.449219 13.589844 2.789062 C 13.589844 3.132812 13.515625 3.445312 13.371094 3.730469 C 13.226562 4.011719 13.03125 4.238281 12.792969 4.40625 C 12.554688 4.574219 12.289062 4.660156 12 4.660156 Z M 18.566406 6.351562 C 18.078125 6.351562 17.617188 6.402344 17.1875 6.503906 C 16.753906 6.605469 16.359375 6.742188 15.996094 6.914062 C 16.132812 7.015625 16.265625 7.121094 16.390625 7.230469 C 16.511719 7.339844 16.628906 7.453125 16.734375 7.578125 C 16.996094 7.472656 17.28125 7.386719 17.582031 7.332031 C 17.894531 7.265625 18.222656 7.238281 18.566406 7.238281 C 19.238281 7.238281 19.835938 7.335938 20.355469 7.53125 C 20.875 7.722656 21.3125 7.964844 21.660156 8.253906 C 22.019531 8.546875 22.285156 8.855469 22.46875 9.171875 C 22.652344 9.480469 22.746094 9.757812 22.746094 9.996094 C 22.746094 10.058594 22.730469 10.101562 22.691406 10.125 C 22.660156 10.148438 22.605469 10.160156 22.53125 10.160156 L 17.84375 10.160156 C 17.839844 10.320312 17.816406 10.472656 17.78125 10.617188 C 17.75 10.765625 17.679688 10.910156 17.582031 11.046875 L 22.25 11.046875 C 23.207031 11.046875 23.6875 10.734375 23.6875 10.109375 C 23.6875 9.722656 23.574219 9.316406 23.339844 8.882812 C 23.105469 8.449219 22.765625 8.042969 22.316406 7.65625 C 21.878906 7.269531 21.339844 6.957031 20.707031 6.714844 C 20.078125 6.472656 19.363281 6.351562 18.566406 6.351562 Z M 18.566406 5.542969 C 19.03125 5.542969 19.457031 5.417969 19.839844 5.167969 C 20.222656 4.917969 20.527344 4.585938 20.753906 4.171875 C 20.984375 3.753906 21.097656 3.292969 21.097656 2.789062 C 21.097656 2.289062 20.988281 1.835938 20.761719 1.433594 C 20.53125 1.03125 20.230469 0.707031 19.84375 0.46875 C 19.460938 0.230469 19.035156 0.113281 18.566406 0.113281 C 18.101562 0.113281 17.679688 0.234375 17.296875 0.472656 C 16.914062 0.714844 16.605469 1.039062 16.375 1.449219 C 16.152344 1.851562 16.035156 2.304688 16.035156 2.800781 C 16.039062 3.300781 16.15625 3.757812 16.382812 4.175781 C 16.609375 4.59375 16.914062 4.921875 17.296875 5.175781 C 17.679688 5.417969 18.101562 5.542969 18.566406 5.542969 Z M 18.566406 4.660156 C 18.28125 4.660156 18.019531 4.574219 17.777344 4.410156 C 17.539062 4.242188 17.34375 4.019531 17.199219 3.738281 C 17.054688 3.457031 16.980469 3.144531 16.980469 2.800781 C 16.980469 2.460938 17.054688 2.15625 17.199219 1.886719 C 17.34375 1.613281 17.53125 1.398438 17.769531 1.238281 C 18.011719 1.078125 18.28125 0.996094 18.566406 0.996094 C 18.859375 0.996094 19.125 1.074219 19.363281 1.230469 C 19.605469 1.386719 19.796875 1.601562 19.9375 1.875 C 20.082031 2.144531 20.15625 2.449219 20.15625 2.789062 C 20.15625 3.132812 20.082031 3.445312 19.9375 3.730469 C 19.792969 4.011719 19.601562 4.238281 19.359375 4.40625 C 19.121094 4.574219 18.855469 4.660156 18.566406 4.660156 Z M 18.566406 4.660156 "/>
</g>
</svg>
