<?xml version="1.0" encoding="UTF-8"?>
<svg xmlns="http://www.w3.org/2000/svg" xmlns:xlink="http://www.w3.org/1999/xlink" width="24" height="18" viewBox="0 0 24 18" version="1.1">
<g id="surface1">
<path style=" stroke:none;fill-rule:nonzero;fill:rgb(100%,100%,100%);fill-opacity:1;" d="M 3.890625 17.464844 L 20.109375 17.464844 C 21.097656 17.464844 21.835938 17.222656 22.320312 16.734375 C 22.808594 16.253906 23.054688 15.53125 23.054688 14.570312 L 23.054688 3.113281 C 23.054688 2.148438 22.808594 1.425781 22.320312 0.9375 C 21.835938 0.449219 21.097656 0.207031 20.109375 0.207031 L 3.890625 0.207031 C 2.910156 0.207031 2.171875 0.449219 1.679688 0.9375 C 1.191406 1.417969 0.945312 2.144531 0.945312 3.113281 L 0.945312 14.570312 C 0.945312 15.53125 1.191406 16.253906 1.679688 16.734375 C 2.171875 17.222656 2.910156 17.464844 3.890625 17.464844 Z M 3.910156 15.957031 C 3.441406 15.957031 3.082031 15.835938 2.832031 15.589844 C 2.582031 15.339844 2.457031 14.972656 2.457031 14.484375 L 2.457031 3.195312 C 2.457031 2.710938 2.582031 2.339844 2.832031 2.089844 C 3.082031 1.839844 3.441406 1.714844 3.910156 1.714844 L 20.089844 1.714844 C 20.554688 1.714844 20.910156 1.839844 21.160156 2.089844 C 21.414062 2.339844 21.542969 2.710938 21.542969 3.195312 L 21.542969 14.484375 C 21.542969 14.972656 21.414062 15.339844 21.160156 15.589844 C 20.910156 15.835938 20.554688 15.957031 20.089844 15.957031 Z M 5.558594 16.519531 L 18.460938 16.519531 C 18.320312 15.863281 18.0625 15.257812 17.679688 14.699219 C 17.300781 14.144531 16.820312 13.664062 16.246094 13.257812 C 15.679688 12.851562 15.035156 12.535156 14.316406 12.308594 C 13.597656 12.085938 12.828125 11.972656 12.007812 11.972656 C 11.195312 11.972656 10.429688 12.085938 9.710938 12.308594 C 8.992188 12.535156 8.347656 12.851562 7.773438 13.257812 C 7.195312 13.664062 6.71875 14.144531 6.335938 14.699219 C 5.957031 15.257812 5.695312 15.863281 5.558594 16.519531 Z M 12.007812 10.40625 C 12.609375 10.414062 13.148438 10.261719 13.632812 9.957031 C 14.117188 9.648438 14.503906 9.230469 14.785156 8.699219 C 15.070312 8.164062 15.214844 7.558594 15.214844 6.890625 C 15.214844 6.265625 15.070312 5.695312 14.785156 5.175781 C 14.503906 4.648438 14.117188 4.230469 13.632812 3.917969 C 13.148438 3.605469 12.609375 3.449219 12.007812 3.449219 C 11.414062 3.449219 10.875 3.605469 10.386719 3.917969 C 9.898438 4.230469 9.511719 4.648438 9.226562 5.175781 C 8.945312 5.695312 8.804688 6.265625 8.804688 6.890625 C 8.808594 7.558594 8.953125 8.160156 9.234375 8.691406 C 9.523438 9.214844 9.90625 9.632812 10.386719 9.9375 C 10.875 10.242188 11.414062 10.398438 12.007812 10.40625 Z M 12.007812 10.40625 "/>
</g>
</svg>
