<?xml version="1.0" encoding="UTF-8"?>
<svg xmlns="http://www.w3.org/2000/svg" xmlns:xlink="http://www.w3.org/1999/xlink" width="24" height="15.111111" viewBox="0 0 24 15.111111" version="1.1">
<g id="surface1">
<path style=" stroke:none;fill-rule:nonzero;fill:rgb(100%,100%,100%);fill-opacity:1;" d="M 9.019531 14.867188 L 17.742188 14.867188 C 18.878906 14.867188 19.445312 14.496094 19.445312 13.757812 C 19.445312 13.304688 19.304688 12.820312 19.027344 12.304688 C 18.75 11.792969 18.347656 11.308594 17.820312 10.855469 C 17.296875 10.394531 16.660156 10.023438 15.910156 9.734375 C 15.164062 9.449219 14.320312 9.304688 13.382812 9.304688 C 12.4375 9.304688 11.589844 9.449219 10.839844 9.734375 C 10.09375 10.023438 9.457031 10.394531 8.929688 10.855469 C 8.40625 11.308594 8.007812 11.792969 7.730469 12.304688 C 7.453125 12.820312 7.3125 13.304688 7.3125 13.757812 C 7.3125 14.496094 7.882812 14.867188 9.019531 14.867188 Z M 8.6875 13.820312 C 8.59375 13.820312 8.527344 13.804688 8.484375 13.777344 C 8.449219 13.75 8.429688 13.699219 8.429688 13.625 C 8.429688 13.34375 8.539062 13.015625 8.757812 12.644531 C 8.972656 12.269531 9.292969 11.910156 9.707031 11.5625 C 10.128906 11.214844 10.648438 10.929688 11.265625 10.703125 C 11.878906 10.46875 12.585938 10.355469 13.382812 10.355469 C 14.179688 10.355469 14.882812 10.46875 15.492188 10.703125 C 16.109375 10.929688 16.628906 11.214844 17.046875 11.5625 C 17.46875 11.910156 17.785156 12.269531 18 12.644531 C 18.21875 13.015625 18.328125 13.34375 18.328125 13.625 C 18.328125 13.699219 18.304688 13.75 18.265625 13.777344 C 18.226562 13.804688 18.164062 13.820312 18.078125 13.820312 Z M 13.382812 8.347656 C 13.933594 8.347656 14.433594 8.199219 14.890625 7.902344 C 15.34375 7.605469 15.703125 7.214844 15.972656 6.722656 C 16.246094 6.226562 16.382812 5.679688 16.382812 5.082031 C 16.382812 4.492188 16.246094 3.957031 15.980469 3.480469 C 15.710938 2.996094 15.347656 2.617188 14.894531 2.332031 C 14.441406 2.050781 13.9375 1.910156 13.382812 1.910156 C 12.832031 1.910156 12.328125 2.054688 11.875 2.339844 C 11.421875 2.628906 11.058594 3.011719 10.785156 3.492188 C 10.515625 3.972656 10.382812 4.507812 10.382812 5.097656 C 10.386719 5.691406 10.523438 6.234375 10.792969 6.730469 C 11.058594 7.21875 11.421875 7.613281 11.875 7.910156 C 12.328125 8.203125 12.832031 8.347656 13.382812 8.347656 Z M 13.382812 7.296875 C 13.042969 7.296875 12.730469 7.203125 12.445312 7.007812 C 12.160156 6.808594 11.933594 6.542969 11.757812 6.207031 C 11.585938 5.875 11.5 5.503906 11.5 5.097656 C 11.5 4.695312 11.585938 4.332031 11.757812 4.015625 C 11.929688 3.691406 12.15625 3.433594 12.4375 3.242188 C 12.722656 3.054688 13.039062 2.957031 13.382812 2.957031 C 13.730469 2.957031 14.042969 3.050781 14.328125 3.234375 C 14.613281 3.421875 14.839844 3.675781 15.007812 4 C 15.179688 4.320312 15.265625 4.679688 15.265625 5.082031 C 15.265625 5.492188 15.179688 5.863281 15.007812 6.203125 C 14.835938 6.535156 14.605469 6.800781 14.320312 7 C 14.035156 7.199219 13.722656 7.296875 13.382812 7.296875 Z M 1.519531 14.867188 L 6.972656 14.867188 C 6.804688 14.777344 6.667969 14.632812 6.554688 14.445312 C 6.449219 14.253906 6.40625 14.054688 6.429688 13.839844 L 1.347656 13.839844 C 1.277344 13.839844 1.222656 13.824219 1.1875 13.792969 C 1.15625 13.765625 1.140625 13.71875 1.140625 13.652344 C 1.140625 13.222656 1.253906 12.808594 1.480469 12.410156 C 1.707031 12.011719 2.015625 11.65625 2.410156 11.339844 C 2.804688 11.027344 3.253906 10.777344 3.765625 10.597656 C 4.273438 10.410156 4.808594 10.320312 5.375 10.320312 C 5.667969 10.320312 5.945312 10.34375 6.214844 10.390625 C 6.488281 10.433594 6.746094 10.503906 6.992188 10.589844 C 7.242188 10.679688 7.480469 10.789062 7.707031 10.921875 C 7.820312 10.785156 7.941406 10.65625 8.070312 10.535156 C 8.199219 10.410156 8.339844 10.292969 8.492188 10.1875 C 8.195312 9.988281 7.878906 9.824219 7.542969 9.695312 C 7.207031 9.558594 6.859375 9.460938 6.492188 9.394531 C 6.132812 9.328125 5.757812 9.292969 5.375 9.292969 C 4.648438 9.292969 3.964844 9.410156 3.328125 9.652344 C 2.691406 9.894531 2.132812 10.222656 1.644531 10.640625 C 1.164062 11.054688 0.785156 11.527344 0.515625 12.054688 C 0.242188 12.582031 0.105469 13.136719 0.105469 13.714844 C 0.105469 14.097656 0.222656 14.386719 0.457031 14.578125 C 0.695312 14.769531 1.046875 14.867188 1.519531 14.867188 Z M 5.382812 8.5 C 5.859375 8.5 6.292969 8.371094 6.6875 8.117188 C 7.085938 7.859375 7.402344 7.515625 7.632812 7.082031 C 7.867188 6.648438 7.984375 6.167969 7.984375 5.640625 C 7.984375 5.125 7.867188 4.65625 7.632812 4.234375 C 7.402344 3.816406 7.089844 3.480469 6.695312 3.230469 C 6.300781 2.980469 5.863281 2.855469 5.382812 2.855469 C 4.90625 2.855469 4.46875 2.980469 4.078125 3.234375 C 3.683594 3.484375 3.367188 3.824219 3.132812 4.25 C 2.894531 4.675781 2.777344 5.144531 2.777344 5.652344 C 2.777344 6.175781 2.894531 6.652344 3.132812 7.082031 C 3.367188 7.515625 3.683594 7.859375 4.078125 8.117188 C 4.46875 8.371094 4.90625 8.5 5.382812 8.5 Z M 5.382812 7.464844 C 5.097656 7.464844 4.839844 7.382812 4.597656 7.222656 C 4.359375 7.058594 4.171875 6.84375 4.027344 6.570312 C 3.882812 6.292969 3.8125 5.984375 3.8125 5.652344 C 3.8125 5.328125 3.882812 5.03125 4.027344 4.765625 C 4.171875 4.496094 4.359375 4.28125 4.597656 4.125 C 4.832031 3.96875 5.09375 3.890625 5.382812 3.890625 C 5.671875 3.890625 5.9375 3.96875 6.171875 4.125 C 6.414062 4.277344 6.605469 4.484375 6.742188 4.75 C 6.886719 5.015625 6.957031 5.308594 6.957031 5.640625 C 6.957031 5.976562 6.886719 6.285156 6.742188 6.5625 C 6.597656 6.839844 6.40625 7.058594 6.167969 7.222656 C 5.929688 7.382812 5.667969 7.464844 5.382812 7.464844 Z M 18.519531 8.042969 C 18.636719 8.125 18.765625 8.152344 18.910156 8.125 C 19.054688 8.097656 19.171875 8.015625 19.265625 7.882812 C 19.53125 7.53125 19.742188 7.109375 19.890625 6.617188 C 20.042969 6.128906 20.117188 5.617188 20.117188 5.082031 C 20.117188 4.550781 20.042969 4.039062 19.890625 3.546875 C 19.742188 3.058594 19.53125 2.636719 19.265625 2.285156 C 19.171875 2.152344 19.054688 2.070312 18.910156 2.046875 C 18.765625 2.019531 18.636719 2.046875 18.519531 2.125 C 18.378906 2.222656 18.292969 2.347656 18.269531 2.507812 C 18.253906 2.660156 18.296875 2.808594 18.410156 2.953125 C 18.613281 3.230469 18.769531 3.554688 18.875 3.921875 C 18.984375 4.292969 19.042969 4.679688 19.042969 5.082031 C 19.042969 5.484375 18.984375 5.871094 18.875 6.242188 C 18.765625 6.609375 18.609375 6.933594 18.410156 7.214844 C 18.304688 7.363281 18.257812 7.515625 18.277344 7.667969 C 18.296875 7.820312 18.378906 7.945312 18.519531 8.042969 Z M 21.089844 9.855469 C 21.21875 9.941406 21.355469 9.972656 21.5 9.945312 C 21.644531 9.917969 21.761719 9.835938 21.855469 9.703125 C 22.296875 9.089844 22.644531 8.382812 22.890625 7.578125 C 23.140625 6.769531 23.265625 5.941406 23.265625 5.082031 C 23.265625 4.226562 23.140625 3.394531 22.894531 2.582031 C 22.652344 1.773438 22.304688 1.066406 21.855469 0.464844 C 21.761719 0.332031 21.644531 0.25 21.5 0.222656 C 21.355469 0.195312 21.21875 0.222656 21.089844 0.3125 C 20.964844 0.402344 20.894531 0.519531 20.875 0.667969 C 20.855469 0.808594 20.894531 0.953125 20.992188 1.097656 C 21.371094 1.632812 21.667969 2.246094 21.875 2.9375 C 22.082031 3.628906 22.1875 4.34375 22.1875 5.082031 C 22.1875 5.824219 22.082031 6.539062 21.867188 7.230469 C 21.660156 7.914062 21.367188 8.527344 20.992188 9.070312 C 20.894531 9.214844 20.855469 9.359375 20.875 9.507812 C 20.894531 9.652344 20.964844 9.765625 21.089844 9.855469 Z M 21.089844 9.855469 "/>
</g>
</svg>
