<?xml version="1.0" encoding="UTF-8"?>
<svg xmlns="http://www.w3.org/2000/svg" xmlns:xlink="http://www.w3.org/1999/xlink" width="24" height="25.714286" viewBox="0 0 24 25.714286" version="1.1">
<g id="surface1">
<path style=" stroke:none;fill-rule:nonzero;fill:rgb(100%,100%,100%);fill-opacity:1;" d="M 3.011719 24.882812 L 20.972656 24.882812 C 21.6875 24.882812 22.246094 24.722656 22.648438 24.402344 C 23.058594 24.089844 23.261719 23.65625 23.261719 23.101562 C 23.261719 22.246094 23 21.339844 22.472656 20.382812 C 21.957031 19.429688 21.207031 18.535156 20.222656 17.707031 C 19.25 16.867188 18.066406 16.1875 16.675781 15.667969 C 15.289062 15.144531 13.726562 14.878906 11.988281 14.878906 C 10.253906 14.878906 8.691406 15.144531 7.300781 15.667969 C 5.914062 16.1875 4.730469 16.867188 3.75 17.707031 C 2.769531 18.535156 2.019531 19.429688 1.5 20.382812 C 0.980469 21.339844 0.722656 22.246094 0.722656 23.101562 C 0.722656 23.65625 0.925781 24.089844 1.324219 24.402344 C 1.738281 24.722656 2.300781 24.882812 3.011719 24.882812 Z M 12 12.480469 C 12.957031 12.480469 13.839844 12.222656 14.652344 11.707031 C 15.464844 11.179688 16.117188 10.46875 16.605469 9.574219 C 17.105469 8.683594 17.355469 7.679688 17.355469 6.5625 C 17.355469 5.464844 17.105469 4.480469 16.605469 3.617188 C 16.117188 2.742188 15.464844 2.054688 14.652344 1.554688 C 13.839844 1.054688 12.957031 0.804688 12 0.804688 C 11.042969 0.804688 10.160156 1.058594 9.347656 1.566406 C 8.535156 2.074219 7.878906 2.769531 7.378906 3.644531 C 6.886719 4.519531 6.644531 5.5 6.644531 6.589844 C 6.644531 7.695312 6.886719 8.695312 7.378906 9.589844 C 7.878906 10.472656 8.535156 11.179688 9.347656 11.707031 C 10.160156 12.222656 11.042969 12.480469 12 12.480469 Z M 12 12.480469 "/>
</g>
</svg>
