<svg width="154" height="114" viewBox="0 0 154 114" fill="none" xmlns="http://www.w3.org/2000/svg">
<path d="M11.625 113.125H95.4375C98.7708 113.125 101.375 112.375 103.25 110.875C105.167 109.417 106.125 107.396 106.125 104.812C106.125 100.812 104.896 96.5833 102.438 92.125C100.021 87.6667 96.5208 83.5 91.9375 79.625C87.3958 75.7083 81.875 72.5417 75.375 70.125C68.9167 67.6667 61.625 66.4375 53.5 66.4375C45.4167 66.4375 38.125 67.6667 31.625 70.125C25.1667 72.5417 19.6458 75.7083 15.0625 79.625C10.4792 83.5 6.97917 87.6667 4.5625 92.125C2.14583 96.5833 0.9375 100.812 0.9375 104.812C0.9375 107.396 1.875 109.417 3.75 110.875C5.66667 112.375 8.29167 113.125 11.625 113.125ZM53.5625 55.25C58.0208 55.25 62.1458 54.0417 65.9375 51.625C69.7292 49.1667 72.7708 45.8542 75.0625 41.6875C77.3958 37.5208 78.5625 32.8333 78.5625 27.625C78.5625 22.5 77.3958 17.9167 75.0625 13.875C72.7708 9.79167 69.7292 6.58333 65.9375 4.25C62.1458 1.91667 58.0208 0.75 53.5625 0.75C49.1042 0.75 44.9792 1.9375 41.1875 4.3125C37.3958 6.6875 34.3333 9.91667 32 14C29.7083 18.0833 28.5625 22.6667 28.5625 27.75C28.5625 32.9167 29.7083 37.5833 32 41.75C34.3333 45.875 37.3958 49.1667 41.1875 51.625C44.9792 54.0417 49.1042 55.25 53.5625 55.25ZM105.875 54.3125C107.333 54.3125 108.542 53.7917 109.5 52.75L127.188 35L145 52.75C146 53.7917 147.188 54.3125 148.562 54.3125C149.938 54.3125 151.104 53.8125 152.062 52.8125C153.062 51.8125 153.562 50.625 153.562 49.25C153.562 47.875 153.062 46.6875 152.062 45.6875L134.312 27.9375L152.125 10.0625C153.125 9.0625 153.625 7.89583 153.625 6.5625C153.625 5.1875 153.125 4.02083 152.125 3.0625C151.167 2.0625 150 1.5625 148.625 1.5625C147.333 1.5625 146.188 2.08333 145.188 3.125L127.188 20.9375L109.375 3.1875C108.458 2.1875 107.292 1.6875 105.875 1.6875C104.5 1.6875 103.312 2.16667 102.312 3.125C101.354 4.08333 100.875 5.25 100.875 6.625C100.875 8 101.375 9.16667 102.375 10.125L120.125 27.9375L102.375 45.75C101.375 46.7083 100.875 47.875 100.875 49.25C100.875 50.625 101.354 51.8125 102.312 52.8125C103.312 53.8125 104.5 54.3125 105.875 54.3125Z" fill="white"/>
</svg>
