<svg xmlns="http://www.w3.org/2000/svg" width="24" height="24"><path style="stroke:none;fill-rule:nonzero;fill:#fff;fill-opacity:1" d="M4.457 23.8h15.074c1.047 0 1.836-.26 2.364-.788.535-.528.804-1.309.804-2.344v-10.48c0-1.036-.27-1.813-.804-2.333-.528-.527-1.317-.793-2.364-.793H4.457c-1.055 0-1.848.266-2.375.793-.527.52-.789 1.297-.789 2.332v10.481c0 1.039.262 1.82.789 2.344.527.527 1.32.789 2.375.789ZM3.281 5.388H20.72c-.082-.473-.25-.836-.5-1.086-.242-.254-.625-.383-1.145-.383H4.926c-.52 0-.906.129-1.156.383-.25.25-.41.613-.489 1.086ZM5.426 2.5h13.148c-.035-.445-.18-.777-.43-1-.25-.23-.617-.344-1.101-.344H6.949c-.48 0-.847.114-1.105.344-.25.223-.39.555-.418 1Zm.543 19.605c.21-.539.511-1.039.886-1.48.395-.453.86-.84 1.375-1.145a6.647 6.647 0 0 1 1.75-.761 7.339 7.339 0 0 1 2.02-.27c.715 0 1.39.09 2.02.27.64.18 1.222.433 1.75.761.527.317.984.7 1.367 1.145.386.453.687.945.894 1.48ZM12 16.925a2.92 2.92 0 0 1-1.574-.445c-.473-.3-.86-.718-1.125-1.21-.27-.512-.41-1.098-.414-1.75 0-.602.133-1.16.406-1.665.262-.5.648-.918 1.125-1.218.477-.301 1.004-.45 1.582-.45.578 0 1.102.149 1.574.45.473.297.848.703 1.125 1.218.278.504.414 1.063.414 1.665 0 .652-.136 1.238-.414 1.75-.261.5-.652.918-1.125 1.218-.472.301-.996.446-1.574.438Zm0 0"/></svg>