<svg width="20" height="20" viewBox="0 0 20 20" fill="none" xmlns="http://www.w3.org/2000/svg">
<path d="M5.73438 15.6484L14.2578 17.1406C14.7578 17.2292 15.1849 17.1901 15.5391 17.0234C15.8932 16.8568 16.1641 16.5833 16.3516 16.2031C16.5443 15.8229 16.6406 15.3542 16.6406 14.7969V5.82812C16.6406 5.23958 16.5495 4.75521 16.3672 4.375C16.1849 3.99479 15.9167 3.72917 15.5625 3.57812C15.2135 3.42188 14.7786 3.38802 14.2578 3.47656L5.73438 4.97656C4.95833 5.11198 4.36719 5.3724 3.96094 5.75781C3.55469 6.14323 3.35156 6.66406 3.35156 7.32031V13.2969C3.35156 13.9479 3.55469 14.4688 3.96094 14.8594C4.36719 15.2448 4.95833 15.5078 5.73438 15.6484ZM5.67188 14.4688C5.30208 14.4062 5.01823 14.2812 4.82031 14.0938C4.6276 13.901 4.53125 13.6406 4.53125 13.3125V7.30469C4.53125 6.97656 4.6276 6.71875 4.82031 6.53125C5.01823 6.33854 5.30208 6.21094 5.67188 6.14844L14.3203 4.65625C14.6901 4.59375 14.9714 4.66406 15.1641 4.86719C15.362 5.0651 15.4609 5.38021 15.4609 5.8125V14.8125C15.4609 15.224 15.3594 15.5339 15.1562 15.7422C14.9583 15.9505 14.6797 16.026 14.3203 15.9688L5.67188 14.4688ZM10 19.6484C10.1771 19.6484 10.3177 19.5938 10.4219 19.4844C10.5312 19.375 10.5859 19.224 10.5859 19.0312V1.59375C10.5859 1.39583 10.5312 1.24219 10.4219 1.13281C10.3177 1.02344 10.1771 0.96875 10 0.96875C9.8125 0.96875 9.66667 1.02344 9.5625 1.13281C9.45833 1.24219 9.40625 1.39583 9.40625 1.59375V19.0312C9.40625 19.224 9.45833 19.375 9.5625 19.4844C9.66667 19.5938 9.8125 19.6484 10 19.6484ZM1.17188 10.8984H18.8203C19.0182 10.8984 19.1719 10.8464 19.2812 10.7422C19.3906 10.6328 19.4453 10.4896 19.4453 10.3125C19.4453 10.125 19.3906 9.97917 19.2812 9.875C19.1719 9.77083 19.0182 9.71875 18.8203 9.71875H1.17188C0.979167 9.71875 0.825521 9.77083 0.710938 9.875C0.601562 9.97917 0.546875 10.125 0.546875 10.3125C0.546875 10.4896 0.601562 10.6328 0.710938 10.7422C0.825521 10.8464 0.979167 10.8984 1.17188 10.8984Z" fill="white"/>
</svg>
