<svg width="210" height="133" viewBox="0 0 210 133" fill="none" xmlns="http://www.w3.org/2000/svg">
<path d="M81.1875 132.812H159.688C169.896 132.812 175 129.479 175 122.812C175 118.729 173.75 114.375 171.25 109.75C168.75 105.125 165.125 100.771 160.375 96.6875C155.667 92.5625 149.938 89.2083 143.188 86.625C136.479 84.0417 128.896 82.75 120.438 82.75C111.938 82.75 104.312 84.0417 97.5625 86.625C90.8542 89.2083 85.125 92.5625 80.375 96.6875C75.6667 100.771 72.0625 105.125 69.5625 109.75C67.0625 114.375 65.8125 118.729 65.8125 122.812C65.8125 129.479 70.9375 132.812 81.1875 132.812ZM78.1875 123.375C77.3542 123.375 76.75 123.25 76.375 123C76.0417 122.75 75.875 122.292 75.875 121.625C75.875 119.083 76.8542 116.146 78.8125 112.812C80.7708 109.438 83.625 106.188 87.375 103.062C91.1667 99.9375 95.8333 97.3542 101.375 95.3125C106.917 93.2292 113.271 92.1875 120.438 92.1875C127.604 92.1875 133.938 93.2292 139.438 95.3125C144.979 97.3542 149.646 99.9375 153.438 103.062C157.229 106.188 160.083 109.438 162 112.812C163.958 116.146 164.938 119.083 164.938 121.625C164.938 122.292 164.75 122.75 164.375 123C164.042 123.25 163.479 123.375 162.688 123.375H78.1875ZM120.438 74.125C125.396 74.125 129.917 72.7917 134 70.125C138.083 67.4583 141.333 63.9167 143.75 59.5C146.208 55.0417 147.438 50.125 147.438 44.75C147.438 39.4167 146.229 34.6042 143.812 30.3125C141.396 25.9792 138.146 22.5417 134.062 20C129.979 17.4583 125.438 16.1875 120.438 16.1875C115.479 16.1875 110.958 17.4792 106.875 20.0625C102.792 22.6458 99.5208 26.1042 97.0625 30.4375C94.6458 34.7708 93.4375 39.5833 93.4375 44.875C93.4792 50.2083 94.7083 55.1042 97.125 59.5625C99.5417 63.9792 102.792 67.5208 106.875 70.1875C110.958 72.8125 115.479 74.125 120.438 74.125ZM120.438 64.6875C117.396 64.6875 114.583 63.8125 112 62.0625C109.458 60.2708 107.396 57.875 105.812 54.875C104.271 51.875 103.5 48.5417 103.5 44.875C103.5 41.25 104.271 38 105.812 35.125C107.354 32.2083 109.396 29.8958 111.938 28.1875C114.521 26.4792 117.354 25.625 120.438 25.625C123.562 25.625 126.396 26.4583 128.938 28.125C131.521 29.7917 133.562 32.0833 135.062 35C136.604 37.875 137.375 41.125 137.375 44.75C137.375 48.4167 136.604 51.7708 135.062 54.8125C133.521 57.8125 131.458 60.2083 128.875 62C126.333 63.7917 123.521 64.6875 120.438 64.6875ZM13.6875 132.812H62.75C61.25 131.979 60 130.708 59 129C58.0417 127.292 57.6667 125.479 57.875 123.562H12.125C11.5 123.562 11.0208 123.417 10.6875 123.125C10.3958 122.875 10.25 122.458 10.25 121.875C10.25 118 11.2708 114.271 13.3125 110.688C15.3542 107.104 18.1458 103.896 21.6875 101.062C25.2292 98.2292 29.2917 96 33.875 94.375C38.4583 92.7083 43.2917 91.875 48.375 91.875C51 91.875 53.5208 92.0833 55.9375 92.5C58.3958 92.9167 60.7292 93.5208 62.9375 94.3125C65.1875 95.1042 67.3333 96.1042 69.375 97.3125C70.375 96.0625 71.4583 94.8958 72.625 93.8125C73.7917 92.6875 75.0625 91.6458 76.4375 90.6875C73.7708 88.8958 70.9167 87.4167 67.875 86.25C64.875 85.0417 61.7292 84.1458 58.4375 83.5625C55.1875 82.9375 51.8333 82.625 48.375 82.625C41.8333 82.625 35.6875 83.7083 29.9375 85.875C24.2292 88.0417 19.1875 91 14.8125 94.75C10.4792 98.5 7.08333 102.75 4.625 107.5C2.16667 112.25 0.9375 117.229 0.9375 122.438C0.9375 125.896 2 128.479 4.125 130.188C6.25 131.938 9.4375 132.812 13.6875 132.812ZM48.4375 75.5C52.7292 75.5 56.6458 74.3542 60.1875 72.0625C63.7708 69.7292 66.6042 66.625 68.6875 62.75C70.8125 58.8333 71.875 54.5 71.875 49.75C71.875 45.125 70.8125 40.9167 68.6875 37.125C66.6042 33.3333 63.7917 30.3125 60.25 28.0625C56.7083 25.8125 52.7708 24.6875 48.4375 24.6875C44.1458 24.6875 40.2292 25.8333 36.6875 28.125C33.1458 30.375 30.3125 33.4167 28.1875 37.25C26.0625 41.0833 25 45.2917 25 49.875C25 54.5833 26.0625 58.875 28.1875 62.75C30.3125 66.625 33.1458 69.7292 36.6875 72.0625C40.2292 74.3542 44.1458 75.5 48.4375 75.5ZM48.4375 66.1875C45.8958 66.1875 43.5417 65.4583 41.375 64C39.25 62.5417 37.5417 60.5833 36.25 58.125C34.9583 55.625 34.3125 52.875 34.3125 49.875C34.3125 46.9583 34.9583 44.2917 36.25 41.875C37.5417 39.4583 39.25 37.5417 41.375 36.125C43.5 34.7083 45.8542 34 48.4375 34C51.0625 34 53.4375 34.7083 55.5625 36.125C57.7292 37.5 59.4375 39.375 60.6875 41.75C61.9792 44.125 62.625 46.7917 62.625 49.75C62.625 52.7917 61.9792 55.5625 60.6875 58.0625C59.3958 60.5625 57.6667 62.5417 55.5 64C53.375 65.4583 51.0208 66.1875 48.4375 66.1875ZM166.688 71.375C167.729 72.125 168.896 72.375 170.188 72.125C171.479 71.875 172.542 71.1458 173.375 69.9375C175.792 66.7708 177.667 62.9792 179 58.5625C180.375 54.1458 181.062 49.5417 181.062 44.75C181.062 39.9583 180.375 35.3542 179 30.9375C177.667 26.5208 175.792 22.7292 173.375 19.5625C172.542 18.3542 171.479 17.6458 170.188 17.4375C168.896 17.1875 167.729 17.4167 166.688 18.125C165.396 19 164.646 20.1458 164.438 21.5625C164.271 22.9375 164.688 24.2708 165.688 25.5625C167.521 28.0625 168.917 30.9792 169.875 34.3125C170.875 37.6458 171.375 41.125 171.375 44.75C171.375 48.375 170.875 51.8542 169.875 55.1875C168.875 58.4792 167.479 61.3958 165.688 63.9375C164.729 65.2708 164.333 66.625 164.5 68C164.667 69.375 165.396 70.5 166.688 71.375ZM189.812 87.6875C190.979 88.4792 192.208 88.75 193.5 88.5C194.792 88.25 195.854 87.5208 196.688 86.3125C200.688 80.8125 203.792 74.4375 206 67.1875C208.25 59.9375 209.375 52.4583 209.375 44.75C209.375 37.0417 208.271 29.5417 206.062 22.25C203.854 14.9583 200.729 8.60417 196.688 3.1875C195.854 1.97917 194.792 1.25 193.5 1C192.208 0.75 190.979 1.02083 189.812 1.8125C188.688 2.60417 188.042 3.66667 187.875 5C187.708 6.29167 188.062 7.58333 188.938 8.875C192.354 13.7083 195 19.2292 196.875 25.4375C198.75 31.6458 199.688 38.0833 199.688 44.75C199.688 51.4167 198.729 57.8542 196.812 64.0625C194.938 70.2292 192.312 75.75 188.938 80.625C188.062 81.9167 187.708 83.2292 187.875 84.5625C188.042 85.8542 188.688 86.8958 189.812 87.6875Z" fill="white"/>
</svg>
