<?xml version="1.0" encoding="UTF-8"?>
<svg xmlns="http://www.w3.org/2000/svg" xmlns:xlink="http://www.w3.org/1999/xlink" width="24" height="16.363636" viewBox="0 0 24 16.363636" version="1.1">
<g id="surface1">
<path style=" stroke:none;fill-rule:nonzero;fill:rgb(100%,100%,100%);fill-opacity:1;" d="M 1.03125 4.636719 L 3.316406 6.332031 C 3.554688 6.515625 3.785156 6.558594 4.015625 6.46875 C 4.242188 6.378906 4.355469 6.1875 4.355469 5.898438 L 4.355469 4.839844 L 6.554688 4.839844 C 6.742188 4.839844 6.902344 4.777344 7.03125 4.652344 C 7.160156 4.523438 7.226562 4.363281 7.226562 4.175781 C 7.226562 3.996094 7.160156 3.839844 7.03125 3.707031 C 6.902344 3.578125 6.742188 3.511719 6.554688 3.511719 L 4.355469 3.511719 L 4.355469 2.480469 C 4.355469 2.171875 4.238281 1.980469 4.003906 1.902344 C 3.773438 1.816406 3.542969 1.859375 3.316406 2.027344 L 1.03125 3.742188 C 0.878906 3.855469 0.800781 4.003906 0.800781 4.191406 C 0.800781 4.375 0.878906 4.523438 1.03125 4.636719 Z M 16.765625 4.175781 C 16.765625 4.363281 16.828125 4.523438 16.953125 4.652344 C 17.082031 4.777344 17.242188 4.839844 17.429688 4.839844 L 19.628906 4.839844 L 19.628906 5.898438 C 19.628906 6.1875 19.742188 6.378906 19.96875 6.46875 C 20.203125 6.558594 20.433594 6.515625 20.667969 6.332031 L 22.953125 4.636719 C 23.109375 4.523438 23.191406 4.375 23.191406 4.191406 C 23.191406 4.003906 23.109375 3.855469 22.953125 3.742188 L 20.667969 2.027344 C 20.441406 1.859375 20.210938 1.816406 19.976562 1.902344 C 19.746094 1.980469 19.628906 2.171875 19.628906 2.480469 L 19.628906 3.511719 L 17.429688 3.511719 C 17.242188 3.511719 17.082031 3.578125 16.953125 3.707031 C 16.828125 3.839844 16.765625 3.996094 16.765625 4.175781 Z M 6.640625 16.066406 L 17.34375 16.066406 C 18.742188 16.066406 19.441406 15.609375 19.441406 14.703125 C 19.441406 14.144531 19.269531 13.550781 18.929688 12.921875 C 18.589844 12.289062 18.09375 11.695312 17.445312 11.140625 C 16.804688 10.578125 16.023438 10.121094 15.101562 9.765625 C 14.1875 9.414062 13.152344 9.238281 11.992188 9.238281 C 10.839844 9.238281 9.800781 9.414062 8.878906 9.765625 C 7.964844 10.121094 7.183594 10.578125 6.535156 11.140625 C 5.890625 11.695312 5.394531 12.289062 5.054688 12.921875 C 4.71875 13.550781 4.550781 14.144531 4.550781 14.703125 C 4.550781 15.609375 5.246094 16.066406 6.640625 16.066406 Z M 6.230469 14.777344 C 6.121094 14.777344 6.042969 14.761719 5.992188 14.726562 C 5.945312 14.691406 5.921875 14.628906 5.921875 14.539062 C 5.921875 14.191406 6.054688 13.792969 6.316406 13.339844 C 6.582031 12.878906 6.972656 12.433594 7.492188 12.007812 C 8.007812 11.582031 8.640625 11.230469 9.390625 10.953125 C 10.148438 10.667969 11.015625 10.527344 11.992188 10.527344 C 12.96875 10.527344 13.835938 10.667969 14.589844 10.953125 C 15.347656 11.230469 15.980469 11.582031 16.492188 12.007812 C 17.007812 12.433594 17.402344 12.878906 17.667969 13.339844 C 17.933594 13.792969 18.066406 14.191406 18.066406 14.539062 C 18.066406 14.628906 18.042969 14.691406 17.992188 14.726562 C 17.945312 14.761719 17.867188 14.777344 17.753906 14.777344 Z M 12 8.183594 C 12.675781 8.183594 13.292969 8 13.847656 7.636719 C 14.40625 7.273438 14.847656 6.789062 15.179688 6.1875 C 15.515625 5.578125 15.683594 4.910156 15.683594 4.175781 C 15.683594 3.449219 15.515625 2.792969 15.1875 2.207031 C 14.859375 1.617188 14.410156 1.148438 13.847656 0.800781 C 13.292969 0.453125 12.675781 0.28125 12 0.28125 C 11.324219 0.28125 10.707031 0.457031 10.152344 0.808594 C 9.59375 1.160156 9.148438 1.632812 8.8125 2.222656 C 8.484375 2.816406 8.316406 3.472656 8.316406 4.191406 C 8.316406 4.921875 8.484375 5.589844 8.8125 6.195312 C 9.148438 6.796875 9.59375 7.28125 10.152344 7.644531 C 10.707031 8.003906 11.324219 8.183594 12 8.183594 Z M 12 6.894531 C 11.585938 6.894531 11.203125 6.777344 10.847656 6.535156 C 10.496094 6.292969 10.214844 5.964844 10.003906 5.558594 C 9.796875 5.148438 9.691406 4.691406 9.691406 4.191406 C 9.691406 3.699219 9.792969 3.253906 9.996094 2.863281 C 10.207031 2.464844 10.488281 2.152344 10.839844 1.917969 C 11.191406 1.683594 11.578125 1.566406 12 1.566406 C 12.421875 1.566406 12.808594 1.683594 13.160156 1.910156 C 13.511719 2.136719 13.789062 2.449219 13.996094 2.847656 C 14.203125 3.238281 14.308594 3.683594 14.308594 4.175781 C 14.308594 4.675781 14.203125 5.132812 13.996094 5.546875 C 13.785156 5.957031 13.503906 6.285156 13.152344 6.527344 C 12.804688 6.773438 12.421875 6.894531 12 6.894531 Z M 12 6.894531 "/>
</g>
</svg>
