<svg width="14" height="19" viewBox="0 0 14 19" fill="none" xmlns="http://www.w3.org/2000/svg">
<path d="M2.60156 18.4531H11.6328C12.3307 18.4531 12.875 18.25 13.2656 17.8438C13.6562 17.4375 13.8516 16.8333 13.8516 16.0312V7.17188C13.8516 6.36458 13.6458 5.76042 13.2344 5.35938C12.8229 4.95312 12.2109 4.75 11.3984 4.75H2.60156C1.78385 4.75 1.16927 4.95312 0.757812 5.35938C0.351562 5.76042 0.148438 6.36458 0.148438 7.17188V16.0312C0.148438 16.8385 0.351562 17.4427 0.757812 17.8438C1.16927 18.25 1.78385 18.4531 2.60156 18.4531ZM1.85156 3.49219H12.1406C12.0833 3.13802 11.9609 2.86719 11.7734 2.67969C11.5859 2.48698 11.2969 2.39062 10.9062 2.39062H3.08594C2.69531 2.39062 2.40625 2.48698 2.21875 2.67969C2.03125 2.86719 1.90885 3.13802 1.85156 3.49219ZM3.21094 1.32812H10.7891C10.763 0.994792 10.6536 0.744792 10.4609 0.578125C10.2734 0.40625 10 0.320312 9.64062 0.320312H4.35156C3.99219 0.320312 3.71615 0.40625 3.52344 0.578125C3.33594 0.744792 3.23177 0.994792 3.21094 1.32812ZM6.10156 17.2109C6.03385 17.1953 5.96094 17.1354 5.88281 17.0312C5.8099 16.9323 5.77344 16.7917 5.77344 16.6094C5.77344 16.2708 5.85417 15.9271 6.01562 15.5781C6.18229 15.2344 6.41927 14.9167 6.72656 14.625C7.03906 14.3281 7.41406 14.0911 7.85156 13.9141C8.29427 13.737 8.79167 13.6484 9.34375 13.6484C10.0521 13.6484 10.6979 13.8099 11.2812 14.1328C11.8646 14.4557 12.3047 14.8698 12.6016 15.375V15.9766C12.6016 16.3828 12.4844 16.6901 12.25 16.8984C12.0156 17.1068 11.7266 17.2109 11.3828 17.2109H6.10156ZM9.34375 12.7812C9.03646 12.7812 8.75 12.6979 8.48438 12.5312C8.22396 12.3594 8.01302 12.1302 7.85156 11.8438C7.6901 11.5573 7.60938 11.237 7.60938 10.8828C7.60938 10.5286 7.6901 10.2109 7.85156 9.92969C8.01302 9.64323 8.22656 9.41927 8.49219 9.25781C8.75781 9.09115 9.04427 9.00781 9.35156 9.00781C9.66406 9.00781 9.95052 9.08854 10.2109 9.25C10.4714 9.41146 10.6797 9.63281 10.8359 9.91406C10.9922 10.1901 11.0703 10.5078 11.0703 10.8672C11.0703 11.2266 10.9896 11.5521 10.8281 11.8438C10.6719 12.1302 10.4635 12.3594 10.2031 12.5312C9.94271 12.6979 9.65625 12.7812 9.34375 12.7812ZM2.625 17.2109C2.23438 17.2109 1.9349 17.1068 1.72656 16.8984C1.51823 16.6901 1.41406 16.3828 1.41406 15.9766V15.2109C1.65365 14.7943 2.02604 14.4271 2.53125 14.1094C3.04167 13.7917 3.64844 13.6328 4.35156 13.6328C4.69531 13.6328 5.00521 13.6719 5.28125 13.75C5.55729 13.8281 5.82031 13.9479 6.07031 14.1094C5.8151 14.2969 5.58854 14.5339 5.39062 14.8203C5.19792 15.1068 5.04427 15.4062 4.92969 15.7188C4.82031 16.0365 4.76562 16.3333 4.76562 16.6094C4.76562 16.8594 4.8099 17.0599 4.89844 17.2109H2.625ZM4.35156 12.8906C3.95052 12.8906 3.59896 12.7292 3.29688 12.4062C2.99479 12.0833 2.84375 11.6875 2.84375 11.2188C2.84375 10.7552 2.99479 10.3698 3.29688 10.0625C3.59896 9.75 3.95052 9.59375 4.35156 9.59375C4.75781 9.59375 5.10938 9.7474 5.40625 10.0547C5.70833 10.362 5.85938 10.7474 5.85938 11.2109C5.85938 11.6849 5.70833 12.0833 5.40625 12.4062C5.10938 12.7292 4.75781 12.8906 4.35156 12.8906Z" fill="white"/>
</svg>
