<svg width="116" height="116" viewBox="0 0 116 116" fill="none" xmlns="http://www.w3.org/2000/svg">
<path d="M20.5625 115.5H96.375C102.917 115.5 107.812 113.875 111.062 110.625C114.354 107.417 116 102.583 116 96.125V19.8125C116 13.3542 114.354 8.52083 111.062 5.3125C107.812 2.0625 102.917 0.4375 96.375 0.4375H20.5625C14.0208 0.4375 9.10417 2.0625 5.8125 5.3125C2.5625 8.52083 0.9375 13.3542 0.9375 19.8125V96.125C0.9375 102.583 2.5625 107.417 5.8125 110.625C9.10417 113.875 14.0208 115.5 20.5625 115.5ZM20.6875 105.438C17.5625 105.438 15.1667 104.625 13.5 103C11.8333 101.333 11 98.875 11 95.625V20.3125C11 17.0625 11.8333 14.625 13.5 13C15.1667 11.3333 17.5625 10.5 20.6875 10.5H96.25C99.3333 10.5 101.708 11.3333 103.375 13C105.083 14.625 105.938 17.0625 105.938 20.3125V95.625C105.938 98.875 105.083 101.333 103.375 103C101.708 104.625 99.3333 105.438 96.25 105.438H20.6875ZM15.5 109.125H101.5C100.583 104.75 98.8542 100.708 96.3125 97C93.7708 93.2917 90.5833 90.0833 86.75 87.375C82.9583 84.6667 78.6667 82.5625 73.875 81.0625C69.0833 79.5625 63.9583 78.8125 58.5 78.8125C53.0833 78.8125 47.9792 79.5625 43.1875 81.0625C38.3958 82.5625 34.0833 84.6667 30.25 87.375C26.4167 90.0833 23.2292 93.2917 20.6875 97C18.1458 100.708 16.4167 104.75 15.5 109.125ZM58.5 68.375C62.4583 68.4167 66.0417 67.4167 69.25 65.375C72.5 63.3333 75.0833 60.5417 77 57C78.9167 53.4167 79.875 49.3958 79.875 44.9375C79.875 40.7708 78.9167 36.9583 77 33.5C75.0833 30 72.5 27.2083 69.25 25.125C66.0417 23.0417 62.4583 22 58.5 22C54.5 22 50.875 23.0417 47.625 25.125C44.4167 27.2083 41.8542 30 39.9375 33.5C38.0625 36.9583 37.125 40.7708 37.125 44.9375C37.1667 49.3958 38.125 53.3958 40 56.9375C41.9167 60.4375 44.4792 63.2083 47.6875 65.25C50.8958 67.2917 54.5 68.3333 58.5 68.375Z" fill="white"/>
</svg>
