<?xml version="1.0" encoding="UTF-8"?>
<svg xmlns="http://www.w3.org/2000/svg" xmlns:xlink="http://www.w3.org/1999/xlink" width="24" height="22.5" viewBox="0 0 24 22.5" version="1.1">
<g id="surface1">
<path style=" stroke:none;fill-rule:nonzero;fill:rgb(100%,100%,100%);fill-opacity:1;" d="M 4.886719 21.84375 L 19.101562 21.84375 C 20.328125 21.84375 21.246094 21.539062 21.855469 20.929688 C 22.472656 20.328125 22.78125 19.421875 22.78125 18.210938 L 22.78125 3.902344 C 22.78125 2.691406 22.472656 1.785156 21.855469 1.183594 C 21.246094 0.574219 20.328125 0.269531 19.101562 0.269531 L 4.886719 0.269531 C 3.660156 0.269531 2.738281 0.574219 2.121094 1.183594 C 1.511719 1.785156 1.207031 2.691406 1.207031 3.902344 L 1.207031 18.210938 C 1.207031 19.421875 1.511719 20.328125 2.121094 20.929688 C 2.738281 21.539062 3.660156 21.84375 4.886719 21.84375 Z M 4.101562 20.085938 C 4.328125 19.34375 4.683594 18.660156 5.167969 18.035156 C 5.660156 17.410156 6.253906 16.871094 6.949219 16.417969 C 7.644531 15.957031 8.417969 15.601562 9.269531 15.351562 C 10.128906 15.09375 11.039062 14.964844 12 14.964844 C 12.960938 14.964844 13.867188 15.09375 14.71875 15.351562 C 15.578125 15.601562 16.355469 15.957031 17.050781 16.417969 C 17.753906 16.871094 18.347656 17.410156 18.832031 18.035156 C 19.324219 18.660156 19.679688 19.34375 19.898438 20.085938 Z M 12 13.007812 C 11.25 13 10.574219 12.804688 9.972656 12.421875 C 9.371094 12.039062 8.890625 11.519531 8.53125 10.863281 C 8.179688 10.199219 8 9.449219 7.992188 8.613281 C 7.992188 7.832031 8.167969 7.117188 8.519531 6.46875 C 8.878906 5.8125 9.359375 5.289062 9.960938 4.898438 C 10.570312 4.507812 11.25 4.3125 12 4.3125 C 12.742188 4.3125 13.414062 4.507812 14.015625 4.898438 C 14.625 5.289062 15.109375 5.8125 15.46875 6.46875 C 15.828125 7.117188 16.007812 7.832031 16.007812 8.613281 C 16.007812 9.449219 15.828125 10.203125 15.46875 10.875 C 15.109375 11.539062 14.625 12.0625 14.015625 12.445312 C 13.414062 12.828125 12.742188 13.015625 12 13.007812 Z M 12 13.007812 "/>
</g>
</svg>
