<svg width="128" height="128" viewBox="0 0 128 128" fill="none" xmlns="http://www.w3.org/2000/svg">
<path d="M63.9375 127.625C72.6458 127.625 80.8333 125.958 88.5 122.625C96.2083 119.292 103 114.688 108.875 108.812C114.75 102.938 119.354 96.1667 122.688 88.5C126.021 80.7917 127.688 72.5833 127.688 63.875C127.688 55.1667 126.021 46.9792 122.688 39.3125C119.354 31.6042 114.75 24.8125 108.875 18.9375C103 13.0625 96.2083 8.45833 88.5 5.125C80.7917 1.79167 72.5833 0.125 63.875 0.125C55.1667 0.125 46.9583 1.79167 39.25 5.125C31.5833 8.45833 24.8125 13.0625 18.9375 18.9375C13.1042 24.8125 8.52083 31.6042 5.1875 39.3125C1.85417 46.9792 0.1875 55.1667 0.1875 63.875C0.1875 72.5833 1.85417 80.7917 5.1875 88.5C8.52083 96.1667 13.125 102.938 19 108.812C24.875 114.688 31.6458 119.292 39.3125 122.625C47.0208 125.958 55.2292 127.625 63.9375 127.625ZM63.9375 117C56.5625 117 49.6667 115.625 43.25 112.875C36.8333 110.125 31.1875 106.333 26.3125 101.5C21.4792 96.625 17.6875 90.9792 14.9375 84.5625C12.2292 78.1458 10.875 71.25 10.875 63.875C10.875 56.5 12.2292 49.6042 14.9375 43.1875C17.6875 36.7708 21.4792 31.125 26.3125 26.25C31.1458 21.375 36.7708 17.5833 43.1875 14.875C49.6042 12.125 56.5 10.75 63.875 10.75C71.25 10.75 78.1458 12.125 84.5625 14.875C91.0208 17.5833 96.6667 21.375 101.5 26.25C106.375 31.125 110.188 36.7708 112.938 43.1875C115.688 49.6042 117.062 56.5 117.062 63.875C117.062 71.25 115.688 78.1458 112.938 84.5625C110.229 90.9792 106.438 96.625 101.562 101.5C96.6875 106.333 91.0417 110.125 84.625 112.875C78.2083 115.625 71.3125 117 63.9375 117ZM60.6875 88.75H98.875C101.292 88.75 102.979 88.4167 103.938 87.75C104.896 87.0417 105.375 86.0208 105.375 84.6875C105.375 82.0625 104.333 79.3125 102.25 76.4375C100.208 73.5625 97.2708 71.125 93.4375 69.125C89.6458 67.0833 85.125 66.0625 79.875 66.0625C74.5833 66.0625 70.0208 67.0833 66.1875 69.125C62.3542 71.125 59.3958 73.5625 57.3125 76.4375C55.2292 79.3125 54.1875 82.0625 54.1875 84.6875C54.1875 86.0208 54.6667 87.0417 55.625 87.75C56.625 88.4167 58.3125 88.75 60.6875 88.75ZM79.875 60.625C83.125 60.625 85.9375 59.3333 88.3125 56.75C90.7292 54.125 91.9375 50.9167 91.9375 47.125C91.9375 43.375 90.7292 40.2708 88.3125 37.8125C85.9375 35.3125 83.125 34.0625 79.875 34.0625C76.5833 34.0625 73.7292 35.3333 71.3125 37.875C68.8958 40.375 67.6875 43.4792 67.6875 47.1875C67.6875 50.9375 68.8958 54.125 71.3125 56.75C73.7292 59.3333 76.5833 60.625 79.875 60.625ZM27.8125 88.75H50.9375C49.8958 87.25 49.5625 85.3333 49.9375 83C50.3542 80.6667 51.2917 78.3333 52.75 76C54.2083 73.625 56.0208 71.6042 58.1875 69.9375C56.4792 68.7708 54.5208 67.8125 52.3125 67.0625C50.1042 66.3125 47.6042 65.9375 44.8125 65.9375C40.2292 65.9375 36.2708 66.8958 32.9375 68.8125C29.6042 70.7292 27.0208 73.125 25.1875 76C23.3958 78.8333 22.5 81.6458 22.5 84.4375C22.5 85.8125 22.8958 86.875 23.6875 87.625C24.5208 88.375 25.8958 88.75 27.8125 88.75ZM44.8125 61.25C47.6458 61.25 50.1042 60.125 52.1875 57.875C54.3125 55.625 55.375 52.8333 55.375 49.5C55.375 46.25 54.3125 43.5625 52.1875 41.4375C50.1042 39.2708 47.6458 38.1875 44.8125 38.1875C41.9792 38.1875 39.5 39.2917 37.375 41.5C35.25 43.6667 34.1875 46.3542 34.1875 49.5625C34.2292 52.8542 35.2917 55.625 37.375 57.875C39.5 60.125 41.9792 61.25 44.8125 61.25Z" fill="white"/>
</svg>
