<svg width="107" height="113" viewBox="0 0 107 113" fill="none" xmlns="http://www.w3.org/2000/svg">
<path d="M14.25 0.625C9.33333 0.625 5.875 1.33333 3.875 2.75C1.91667 4.125 0.9375 6.16667 0.9375 8.875C0.9375 12.9167 2.14583 17.1667 4.5625 21.625C6.97917 26.0833 10.4792 30.25 15.0625 34.125C19.6458 38 25.1667 41.1667 31.625 43.625C38.125 46.0417 45.4167 47.25 53.5 47.25C61.625 47.25 68.9167 46.0417 75.375 43.625C81.875 41.1667 87.3958 38 91.9375 34.125C96.5208 30.25 100.021 26.0833 102.438 21.625C104.896 17.1667 106.125 12.9167 106.125 8.875C106.125 6.16667 105.125 4.125 103.125 2.75C101.167 1.33333 97.7083 0.625 92.75 0.625H14.25ZM53.5625 58.4375C49.1042 58.4375 44.9792 59.6667 41.1875 62.125C37.3958 64.5417 34.3333 67.8333 32 72C29.7083 76.1667 28.5625 80.8333 28.5625 86C28.5625 91.0833 29.7083 95.6667 32 99.75C34.3333 103.792 37.3958 107 41.1875 109.375C44.9792 111.75 49.1042 112.938 53.5625 112.938C58.0208 112.938 62.1458 111.771 65.9375 109.438C69.7292 107.104 72.7708 103.917 75.0625 99.875C77.3958 95.8333 78.5625 91.25 78.5625 86.125C78.5625 80.9167 77.3958 76.2292 75.0625 72.0625C72.7708 67.8542 69.7292 64.5417 65.9375 62.125C62.1458 59.6667 58.0208 58.4375 53.5625 58.4375Z" fill="white"/>
</svg>
