<svg xmlns="http://www.w3.org/2000/svg" width="24" height="24"><path style="stroke:none;fill-rule:nonzero;fill:#fff;fill-opacity:1" d="M5.102 17.035h5.183c.895 0 1.34-.582 1.34-1.75V8.301c0-1.164-.445-1.75-1.34-1.75H5.102c-.895 0-1.344.586-1.344 1.75v6.984c0 1.168.449 1.75 1.344 1.75Zm-.254-1.172c.109-.402.289-.765.523-1.062.258-.332.582-.602.977-.801.43-.215.886-.324 1.347-.313.5 0 .95.106 1.344.313.39.2.719.469.973.8.261.337.441.688.535 1.063Zm2.847-3.062c-.41 0-.761-.207-1.047-.614-.28-.406-.421-.917-.421-1.527 0-.582.14-1.07.421-1.473.286-.406.637-.613 1.047-.613.407 0 .75.207 1.032.614.289.402.433.89.433 1.472 0 .61-.144 1.121-.433 1.527-.282.407-.625.614-1.032.614Zm8.907 4.101c.3 0 .59-.023.863-.062.277-.043.504-.117.683-.215.27-.152.407-.375.407-.676a.682.682 0 0 0-.114-.398c-.078-.11-.187-.172-.3-.164a.442.442 0 0 0-.141.023c-.043.012-.098.024-.16.04a3.176 3.176 0 0 0-.45.124c-.163.051-.39.078-.683.078-.605 0-1.133-.156-1.574-.464-.43-.297-.785-.758-1.016-1.325-.234-.578-.355-1.258-.355-2.05 0-.778.12-1.458.355-2.051.238-.59.567-1.055.985-1.387.425-.332.918-.5 1.472-.5.559 0 1.043.145 1.453.438.418.292.746.699.977 1.222.23.516.348 1.121.348 1.813 0 .625-.067 1.12-.2 1.476-.129.36-.308.54-.535.54-.262 0-.39-.177-.39-.524V9.738a.811.811 0 0 0-.133-.476c-.086-.125-.207-.196-.336-.188-.238 0-.39.149-.453.453v.098a1.221 1.221 0 0 0-.41-.402 1.045 1.045 0 0 0-.575-.149c-.492 0-.898.258-1.218.774-.313.515-.47 1.172-.47 1.964 0 .817.161 1.481.481 1.989.317.508.73.761 1.239.761.46 0 .832-.246 1.113-.738.219.492.574.739 1.07.739.524 0 .945-.301 1.266-.903.316-.598.476-1.394.476-2.383 0-.914-.16-1.71-.476-2.402-.309-.695-.762-1.262-1.305-1.625-.555-.39-1.195-.586-1.922-.586-.75 0-1.41.215-1.988.649-.566.425-1.016 1.027-1.34 1.8-.316.774-.476 1.668-.476 2.688 0 1.015.16 1.91.476 2.672.32.765.766 1.367 1.34 1.789.582.425 1.254.636 2.016.636Zm-.11-3.601c-.238.008-.465-.14-.601-.399-.145-.27-.215-.64-.215-1.117 0-.46.07-.828.215-1.086.14-.261.37-.41.609-.398.238-.012.469.133.61.386.148.262.226.614.226 1.063 0 .484-.078.863-.227 1.137-.14.27-.37.425-.617.414ZM3.891 23.289h16.218c.989 0 1.727-.324 2.211-.973.489-.644.735-1.605.735-2.886V4.152c0-1.289-.246-2.25-.735-2.902-.484-.652-1.222-.973-2.21-.973H3.89c-.98 0-1.718.32-2.21.973-.489.64-.735 1.61-.735 2.902v15.274c0 1.281.246 2.246.735 2.887.492.652 1.23.972 2.21.972Zm.02-2.012c-.47 0-.829-.16-1.079-.488-.25-.336-.375-.824-.375-1.477V4.262c0-.649.125-1.14.375-1.477.25-.332.61-.5 1.078-.5h16.18c.465 0 .82.168 1.07.5.254.336.383.828.383 1.477v15.05c0 .653-.129 1.141-.383 1.473-.25.328-.605.492-1.07.492Zm0 0"/></svg>