<svg xmlns="http://www.w3.org/2000/svg" width="24" height="24"><path style="stroke:none;fill-rule:nonzero;fill:#fff;fill-opacity:1" d="M12 23.063c1.633 0 3.168-.293 4.605-.883a12.29 12.29 0 0 0 3.82-2.438 11.482 11.482 0 0 0 2.59-3.586c.626-1.36.938-2.804.938-4.343 0-1.536-.312-2.981-.937-4.336a11.514 11.514 0 0 0-2.59-3.594 12.22 12.22 0 0 0-3.82-2.438 12.166 12.166 0 0 0-4.618-.883c-1.633 0-3.172.293-4.617.883a12.307 12.307 0 0 0-3.809 2.438A11.523 11.523 0 0 0 .985 7.477a10.187 10.187 0 0 0-.937 4.335c0 1.54.312 2.985.937 4.344a11.438 11.438 0 0 0 2.59 3.586 12.307 12.307 0 0 0 3.809 2.438c1.445.59 2.984.883 4.617.883Zm-8.121-12.41c0-.934.316-1.7.95-2.305.64-.61 1.456-.914 2.448-.914h5.016c.992 0 1.805.304 2.437.914.641.605.961 1.37.961 2.308 0 .934-.32 1.7-.96 2.305-.633.601-1.446.902-2.438.902h-1.605a1.054 1.054 0 0 1-.329-.617 1.273 1.273 0 0 1 .047-.617h1.817c.625 0 1.129-.18 1.511-.54.391-.366.586-.847.586-1.437 0-.578-.195-1.05-.586-1.422-.382-.375-.886-.562-1.511-.562H7.359c-.625 0-1.132.187-1.523.562-.383.368-.574.844-.574 1.422 0 .59.191 1.067.574 1.438.39.36.898.539 1.523.539h.258c-.023.21-.027.426-.012.64.016.243.04.442.07.594h-.398c-.992 0-1.808-.3-2.449-.902-.633-.606-.95-1.371-.95-2.309Zm4.406 2.406c0-.934.317-1.704.95-2.305.64-.602 1.46-.906 2.46-.906h1.594c.191.16.309.382.328.62.031.25.008.454-.07.618h-1.793c-.625 0-1.133.184-1.524.55-.382.36-.574.833-.574 1.423 0 .59.196 1.066.586 1.433.39.367.895.551 1.512.551h4.875c.617 0 1.121-.184 1.512-.55.39-.368.586-.845.586-1.434 0-.59-.196-1.063-.586-1.422-.391-.367-.895-.551-1.512-.551h-.27a3.01 3.01 0 0 0 .012-.695 4.212 4.212 0 0 0-.07-.543h.398c.992 0 1.809.304 2.45.906.64.601.96 1.371.96 2.305 0 .933-.32 1.707-.96 2.316-.641.602-1.458.906-2.45.906h-5.004c-.992 0-1.808-.304-2.449-.906-.64-.61-.96-1.383-.96-2.316Zm0 0"/></svg>