<svg width="14" height="19" viewBox="0 0 14 19" fill="none" xmlns="http://www.w3.org/2000/svg">
<path d="M2.60156 18.4375H11.6328C12.3307 18.4375 12.875 18.2344 13.2656 17.8281C13.6562 17.4219 13.8516 16.8177 13.8516 16.0156V7.15625C13.8516 6.34896 13.6458 5.74479 13.2344 5.34375C12.8229 4.9375 12.2109 4.73438 11.3984 4.73438H2.60156C1.78385 4.73438 1.16927 4.9375 0.757812 5.34375C0.351562 5.74479 0.148438 6.34896 0.148438 7.15625V16.0156C0.148438 16.8229 0.351562 17.4271 0.757812 17.8281C1.16927 18.2344 1.78385 18.4375 2.60156 18.4375ZM2.61719 17.1797C2.22656 17.1797 1.92708 17.0755 1.71875 16.8672C1.51042 16.6589 1.40625 16.3516 1.40625 15.9453V7.21875C1.40625 6.81771 1.51042 6.51302 1.71875 6.30469C1.92708 6.09635 2.22656 5.99219 2.61719 5.99219H11.375C11.7604 5.99219 12.0599 6.09635 12.2734 6.30469C12.487 6.51302 12.5938 6.81771 12.5938 7.21875V15.9453C12.5938 16.3516 12.4974 16.6589 12.3047 16.8672C12.112 17.0755 11.8802 17.1797 11.6094 17.1797H2.61719ZM1.85156 3.47656H12.1406C12.0833 3.1224 11.9609 2.85156 11.7734 2.66406C11.5859 2.47135 11.2969 2.375 10.9062 2.375H3.08594C2.69531 2.375 2.40625 2.47135 2.21875 2.66406C2.03125 2.85156 1.90885 3.1224 1.85156 3.47656ZM3.21094 1.3125H10.7891C10.763 0.979167 10.6536 0.729167 10.4609 0.5625C10.2734 0.390625 10 0.304688 9.64062 0.304688H4.35156C3.99219 0.304688 3.71615 0.390625 3.52344 0.5625C3.33594 0.729167 3.23177 0.979167 3.21094 1.3125ZM6.38281 17.3906H11.9531C12.2448 17.3906 12.4714 17.3411 12.6328 17.2422C12.7995 17.1432 12.9167 17.0156 12.9844 16.8594C13.0521 16.7031 13.0859 16.5391 13.0859 16.3672C13.0391 15.9557 12.8646 15.5443 12.5625 15.1328C12.2656 14.7266 11.8568 14.388 11.3359 14.1172C10.8151 13.8464 10.2005 13.7109 9.49219 13.7109C8.92969 13.7109 8.42188 13.7995 7.96875 13.9766C7.52083 14.1536 7.13802 14.388 6.82031 14.6797C6.5026 14.9661 6.26042 15.276 6.09375 15.6094C5.92708 15.9479 5.84375 16.276 5.84375 16.5938C5.84375 16.8594 5.89323 17.0573 5.99219 17.1875C6.09635 17.3229 6.22656 17.3906 6.38281 17.3906ZM9.49219 12.7656C9.80469 12.7656 10.0911 12.6823 10.3516 12.5156C10.612 12.3438 10.8203 12.1146 10.9766 11.8281C11.138 11.5365 11.2188 11.2109 11.2188 10.8516C11.2188 10.4922 11.138 10.1745 10.9766 9.89844C10.8203 9.61719 10.6094 9.39583 10.3438 9.23438C10.0833 9.07292 9.79948 8.99219 9.49219 8.99219C9.1849 8.99219 8.89844 9.07552 8.63281 9.24219C8.36719 9.40365 8.15365 9.6276 7.99219 9.91406C7.83594 10.1953 7.75781 10.513 7.75781 10.8672C7.75781 11.2214 7.83854 11.5417 8 11.8281C8.16146 12.1146 8.3724 12.3438 8.63281 12.5156C8.89844 12.6823 9.1849 12.7656 9.49219 12.7656ZM4.5 13.6953C3.86458 13.6953 3.30729 13.8281 2.82812 14.0938C2.35417 14.3594 1.98177 14.6927 1.71094 15.0938C1.44531 15.5 1.30469 15.9115 1.28906 16.3281C1.28906 16.6198 1.36719 16.8698 1.52344 17.0781C1.67969 17.2865 1.95312 17.3906 2.34375 17.3906H5.07812C4.97917 17.1406 4.92969 16.875 4.92969 16.5938C4.92969 16.1198 5.03385 15.6667 5.24219 15.2344C5.45573 14.8073 5.7474 14.4271 6.11719 14.0938C5.90365 13.9583 5.66146 13.8594 5.39062 13.7969C5.11979 13.7292 4.82292 13.6953 4.5 13.6953ZM4.5 12.875C4.90625 12.875 5.25781 12.7135 5.55469 12.3906C5.85677 12.0677 6.00781 11.6693 6.00781 11.1953C6.00781 10.7318 5.85677 10.3464 5.55469 10.0391C5.25781 9.73177 4.90625 9.57812 4.5 9.57812C4.09896 9.57812 3.74479 9.73438 3.4375 10.0469C3.13542 10.3542 2.98698 10.7396 2.99219 11.2031C2.99219 11.6719 3.14062 12.0677 3.4375 12.3906C3.73958 12.7135 4.09375 12.875 4.5 12.875Z" fill="white"/>
</svg>
