<svg xmlns="http://www.w3.org/2000/svg" width="24" height="24"><path style="stroke:none;fill-rule:nonzero;fill:#fff;fill-opacity:1" d="M2.645 23.613h12.394c1.613 0 2.418-.586 2.418-1.761 0-.723-.195-1.489-.594-2.305-.386-.817-.957-1.586-1.707-2.305-.742-.73-1.644-1.324-2.71-1.777-1.067-.461-2.27-.688-3.602-.688-1.344 0-2.547.227-3.614.688-1.058.453-1.964 1.047-2.714 1.777-.743.719-1.313 1.488-1.707 2.305-.395.812-.59 1.582-.59 2.305 0 1.171.808 1.761 2.426 1.761Zm-.473-1.668c-.133 0-.227-.02-.285-.062-.055-.047-.082-.125-.082-.242 0-.45.156-.97.465-1.559.308-.594.761-1.164 1.351-1.719.598-.55 1.336-1.004 2.211-1.367.875-.367 1.879-.55 3.012-.55 1.129 0 2.129.183 3 .55.875.363 1.61.817 2.207 1.367.601.555 1.05 1.125 1.355 1.719.309.59.461 1.11.461 1.559 0 .117-.027.195-.086.242-.054.043-.144.062-.27.062Zm6.672-8.687a3.537 3.537 0 0 0 2.14-.707 4.98 4.98 0 0 0 1.54-1.88 5.8 5.8 0 0 0 .581-2.597c0-.941-.19-1.793-.574-2.547a4.735 4.735 0 0 0-1.539-1.82 3.654 3.654 0 0 0-2.148-.672 3.68 3.68 0 0 0-2.145.68c-1.34.953-2.14 2.61-2.12 4.379.007.945.202 1.808.581 2.594.39.78.906 1.406 1.55 1.87a3.532 3.532 0 0 0 2.134.7Zm0-1.668c-.48 0-.926-.152-1.332-.461a3.427 3.427 0 0 1-.98-1.266 4.212 4.212 0 0 1-.364-1.77c0-.636.121-1.214.363-1.718.246-.516.567-.922.969-1.223A2.187 2.187 0 0 1 8.844 4.7c.492 0 .937.149 1.34.442.41.293.73.695.968 1.21.243.508.364 1.083.364 1.723 0 .645-.121 1.239-.364 1.778-.246.527-.57.949-.976 1.27a2.108 2.108 0 0 1-1.332.468Zm7.3 1.18c.157.132.36.183.555.132a.77.77 0 0 0 .5-.386c.383-.559.68-1.227.89-2.004a9.152 9.152 0 0 0 .325-2.438c0-.844-.11-1.66-.324-2.437-.211-.782-.508-1.45-.89-2.008a.732.732 0 0 0-.5-.375.636.636 0 0 0-.555.121.843.843 0 0 0-.344.605c-.028.247.035.477.187.708.29.44.508.957.66 1.542.16.598.239 1.22.239 1.844a7.12 7.12 0 0 1-.239 1.84 5.791 5.791 0 0 1-.66 1.547 1.067 1.067 0 0 0-.187.715c.023.246.14.441.344.594Zm3.653 2.882a.703.703 0 0 0 .582.145.808.808 0 0 0 .504-.39c.629-.97 1.12-2.095 1.469-3.376.355-1.277.535-2.597.535-3.957 0-1.36-.176-2.683-.524-3.969-.351-1.289-.843-2.41-1.48-3.367a.789.789 0 0 0-.504-.386.692.692 0 0 0-.582.148.792.792 0 0 0-.309.563c-.023.226.035.453.18.68.539.855.953 1.827 1.242 2.925.297 1.094.445 2.23.445 3.406 0 1.176-.152 2.313-.453 3.406a11.257 11.257 0 0 1-1.234 2.922 1.09 1.09 0 0 0-.18.7.789.789 0 0 0 .309.55Zm0 0"/></svg>