<?xml version="1.0" encoding="UTF-8"?>
<svg xmlns="http://www.w3.org/2000/svg" xmlns:xlink="http://www.w3.org/1999/xlink" width="24" height="30.857143" viewBox="0 0 24 30.857143" version="1.1">
<g id="surface1">
<path style=" stroke:none;fill-rule:nonzero;fill:rgb(100%,100%,100%);fill-opacity:1;" d="M 0.738281 29.34375 C 0.738281 29.664062 0.835938 29.917969 1.03125 30.105469 C 1.226562 30.304688 1.488281 30.402344 1.808594 30.402344 L 22.191406 30.402344 C 22.511719 30.402344 22.773438 30.304688 22.96875 30.105469 C 23.164062 29.917969 23.261719 29.664062 23.261719 29.34375 L 23.261719 2.757812 C 23.261719 2.4375 23.164062 2.179688 22.96875 1.980469 C 22.773438 1.785156 22.511719 1.6875 22.191406 1.6875 L 1.808594 1.6875 C 1.488281 1.6875 1.226562 1.785156 1.03125 1.980469 C 0.835938 2.179688 0.738281 2.4375 0.738281 2.757812 Z M 2.894531 27.855469 L 2.894531 4.246094 C 2.894531 3.976562 3.023438 3.84375 3.28125 3.84375 L 20.71875 3.84375 C 20.976562 3.84375 21.105469 3.976562 21.105469 4.246094 L 21.105469 27.855469 C 21.105469 28.117188 20.976562 28.246094 20.71875 28.246094 L 3.28125 28.246094 C 3.023438 28.246094 2.894531 28.117188 2.894531 27.855469 Z M 4.339844 26.023438 C 4.339844 26.550781 4.597656 26.8125 5.117188 26.8125 L 18.882812 26.8125 C 19.402344 26.8125 19.660156 26.550781 19.660156 26.023438 L 19.660156 6.082031 C 19.660156 5.554688 19.402344 5.289062 18.882812 5.289062 L 5.117188 5.289062 C 4.597656 5.289062 4.339844 5.554688 4.339844 6.082031 Z M 5.691406 25.152344 L 5.691406 6.949219 C 5.691406 6.746094 5.789062 6.644531 5.988281 6.644531 L 18.011719 6.644531 C 18.210938 6.644531 18.308594 6.746094 18.308594 6.949219 L 18.308594 25.152344 C 18.308594 25.355469 18.210938 25.460938 18.011719 25.460938 L 5.988281 25.460938 C 5.789062 25.460938 5.691406 25.355469 5.691406 25.152344 Z M 5.636719 26.0625 L 18.335938 26.0625 C 18.613281 26.0625 18.8125 25.980469 18.9375 25.820312 C 19.070312 25.660156 19.136719 25.457031 19.136719 25.207031 C 19.136719 24.902344 19.042969 24.523438 18.855469 24.066406 C 18.679688 23.601562 18.402344 23.125 18.027344 22.632812 C 17.652344 22.132812 17.179688 21.664062 16.605469 21.226562 C 16.035156 20.78125 15.367188 20.425781 14.597656 20.15625 C 13.832031 19.878906 12.960938 19.742188 11.988281 19.742188 C 11.011719 19.742188 10.144531 19.878906 9.375 20.15625 C 8.605469 20.425781 7.9375 20.78125 7.367188 21.226562 C 6.792969 21.664062 6.320312 22.132812 5.945312 22.632812 C 5.570312 23.125 5.289062 23.601562 5.101562 24.066406 C 4.925781 24.523438 4.835938 24.902344 4.835938 25.207031 C 4.835938 25.457031 4.902344 25.660156 5.035156 25.820312 C 5.167969 25.980469 5.371094 26.0625 5.636719 26.0625 Z M 11.988281 18.601562 C 12.648438 18.613281 13.246094 18.445312 13.78125 18.105469 C 14.324219 17.769531 14.753906 17.304688 15.066406 16.714844 C 15.386719 16.125 15.550781 15.460938 15.550781 14.71875 C 15.550781 14.023438 15.386719 13.386719 15.066406 12.816406 C 14.753906 12.238281 14.324219 11.773438 13.78125 11.425781 C 13.246094 11.074219 12.648438 10.902344 11.988281 10.902344 C 11.324219 10.902344 10.726562 11.074219 10.191406 11.425781 C 9.65625 11.773438 9.226562 12.238281 8.90625 12.816406 C 8.585938 13.386719 8.425781 14.023438 8.425781 14.71875 C 8.425781 15.460938 8.585938 16.125 8.90625 16.714844 C 9.226562 17.292969 9.65625 17.753906 10.191406 18.09375 C 10.726562 18.433594 11.324219 18.601562 11.988281 18.601562 Z M 11.988281 18.601562 "/>
</g>
</svg>
