<svg width="20" height="16" viewBox="0 0 20 16" fill="none" xmlns="http://www.w3.org/2000/svg">
<path d="M10.0156 9.74219C10.4948 9.74219 10.9375 9.61198 11.3438 9.35156C11.7552 9.08594 12.0859 8.72917 12.3359 8.28125C12.5859 7.82812 12.7109 7.32552 12.7109 6.77344C12.7109 6.21615 12.5859 5.72135 12.3359 5.28906C12.0859 4.85677 11.7552 4.51823 11.3438 4.27344C10.9375 4.02344 10.4948 3.89844 10.0156 3.89844C9.54167 3.89844 9.09896 4.02604 8.6875 4.28125C8.28125 4.53125 7.95312 4.875 7.70312 5.3125C7.45312 5.75 7.32812 6.24219 7.32812 6.78906C7.32812 7.34115 7.45312 7.84115 7.70312 8.28906C7.95312 8.73177 8.28125 9.08594 8.6875 9.35156C9.09896 9.61198 9.54167 9.74219 10.0156 9.74219ZM6.01562 15.6562H14.0156C14.5938 15.6562 14.9896 15.5781 15.2031 15.4219C15.4167 15.2656 15.5234 15.0417 15.5234 14.75C15.5234 14.3281 15.3958 13.8854 15.1406 13.4219C14.8906 12.9531 14.526 12.5156 14.0469 12.1094C13.5677 11.7031 12.9896 11.3724 12.3125 11.1172C11.6354 10.862 10.8698 10.7344 10.0156 10.7344C9.16667 10.7344 8.40365 10.862 7.72656 11.1172C7.04948 11.3724 6.47135 11.7031 5.99219 12.1094C5.51302 12.5156 5.14583 12.9531 4.89062 13.4219C4.64062 13.8854 4.51562 14.3281 4.51562 14.75C4.51562 15.0417 4.61979 15.2656 4.82812 15.4219C5.04167 15.5781 5.4375 15.6562 6.01562 15.6562ZM1.375 2.04688C1.49479 2.04688 1.59635 2.00521 1.67969 1.92188C1.76823 1.83333 1.8125 1.72917 1.8125 1.60938C1.8125 1.48958 1.76823 1.38802 1.67969 1.30469C1.59635 1.21615 1.49479 1.17188 1.375 1.17188C1.25521 1.17188 1.15104 1.21615 1.0625 1.30469C0.979167 1.38802 0.9375 1.48958 0.9375 1.60938C0.9375 1.72917 0.979167 1.83333 1.0625 1.92188C1.15104 2.00521 1.25521 2.04688 1.375 2.04688ZM3.83594 2.04688C3.95573 2.04688 4.05729 2.00521 4.14062 1.92188C4.22917 1.83333 4.27344 1.72917 4.27344 1.60938C4.27344 1.48958 4.22917 1.38802 4.14062 1.30469C4.05729 1.21615 3.95573 1.17188 3.83594 1.17188C3.71615 1.17188 3.61198 1.21615 3.52344 1.30469C3.4401 1.38802 3.39844 1.48958 3.39844 1.60938C3.39844 1.72917 3.4401 1.83333 3.52344 1.92188C3.61198 2.00521 3.71615 2.04688 3.83594 2.04688ZM6.29688 2.04688C6.41667 2.04688 6.51823 2.00521 6.60156 1.92188C6.6901 1.83333 6.73438 1.72917 6.73438 1.60938C6.73438 1.48958 6.6901 1.38802 6.60156 1.30469C6.51823 1.21615 6.41667 1.17188 6.29688 1.17188C6.17708 1.17188 6.07292 1.21615 5.98438 1.30469C5.90104 1.38802 5.85938 1.48958 5.85938 1.60938C5.85938 1.72917 5.90104 1.83333 5.98438 1.92188C6.07292 2.00521 6.17708 2.04688 6.29688 2.04688ZM8.76562 2.24219C8.9375 2.24219 9.08594 2.17969 9.21094 2.05469C9.33594 1.92969 9.39844 1.78125 9.39844 1.60938C9.39844 1.43229 9.33594 1.28125 9.21094 1.15625C9.08594 1.03125 8.9375 0.96875 8.76562 0.96875C8.58854 0.96875 8.4375 1.03125 8.3125 1.15625C8.1875 1.28125 8.125 1.43229 8.125 1.60938C8.125 1.78125 8.1875 1.92969 8.3125 2.05469C8.4375 2.17969 8.58854 2.24219 8.76562 2.24219ZM11.2266 2.24219C11.3984 2.24219 11.5469 2.17969 11.6719 2.05469C11.7969 1.92969 11.8594 1.78125 11.8594 1.60938C11.8594 1.43229 11.7969 1.28125 11.6719 1.15625C11.5469 1.03125 11.3984 0.96875 11.2266 0.96875C11.0495 0.96875 10.8984 1.03125 10.7734 1.15625C10.6484 1.28125 10.5859 1.43229 10.5859 1.60938C10.5859 1.78125 10.6484 1.92969 10.7734 2.05469C10.8984 2.17969 11.0495 2.24219 11.2266 2.24219ZM13.6953 2.04688C13.8151 2.04688 13.9167 2.00521 14 1.92188C14.0885 1.83333 14.1328 1.72917 14.1328 1.60938C14.1328 1.48958 14.0885 1.38802 14 1.30469C13.9167 1.21615 13.8151 1.17188 13.6953 1.17188C13.5755 1.17188 13.4714 1.21615 13.3828 1.30469C13.2995 1.38802 13.2578 1.48958 13.2578 1.60938C13.2578 1.72917 13.2995 1.83333 13.3828 1.92188C13.4714 2.00521 13.5755 2.04688 13.6953 2.04688ZM16.1641 2.04688C16.2839 2.04688 16.3854 2.00521 16.4688 1.92188C16.5573 1.83333 16.6016 1.72917 16.6016 1.60938C16.6016 1.48958 16.5573 1.38802 16.4688 1.30469C16.3854 1.21615 16.2839 1.17188 16.1641 1.17188C16.0443 1.17188 15.9401 1.21615 15.8516 1.30469C15.763 1.38802 15.7188 1.48958 15.7188 1.60938C15.7188 1.72917 15.763 1.83333 15.8516 1.92188C15.9401 2.00521 16.0443 2.04688 16.1641 2.04688ZM18.625 2.04688C18.7448 2.04688 18.8464 2.00521 18.9297 1.92188C19.0182 1.83333 19.0625 1.72917 19.0625 1.60938C19.0625 1.48958 19.0182 1.38802 18.9297 1.30469C18.8464 1.21615 18.7448 1.17188 18.625 1.17188C18.5052 1.17188 18.401 1.21615 18.3125 1.30469C18.2292 1.38802 18.1875 1.48958 18.1875 1.60938C18.1875 1.72917 18.2292 1.83333 18.3125 1.92188C18.401 2.00521 18.5052 2.04688 18.625 2.04688ZM1.375 4.74219C1.49479 4.74219 1.59635 4.69792 1.67969 4.60938C1.76823 4.52083 1.8125 4.41667 1.8125 4.29688C1.8125 4.17708 1.76823 4.07552 1.67969 3.99219C1.59635 3.90365 1.49479 3.85938 1.375 3.85938C1.25521 3.85938 1.15104 3.90365 1.0625 3.99219C0.979167 4.07552 0.9375 4.17708 0.9375 4.29688C0.9375 4.41667 0.979167 4.52083 1.0625 4.60938C1.15104 4.69792 1.25521 4.74219 1.375 4.74219ZM3.83594 4.9375C4.00781 4.9375 4.15625 4.875 4.28125 4.75C4.41146 4.625 4.47656 4.47396 4.47656 4.29688C4.47656 4.125 4.41146 3.97656 4.28125 3.85156C4.15625 3.72656 4.00781 3.66406 3.83594 3.66406C3.65885 3.66406 3.50781 3.72656 3.38281 3.85156C3.25781 3.97656 3.19531 4.125 3.19531 4.29688C3.19531 4.47396 3.25781 4.625 3.38281 4.75C3.50781 4.875 3.65885 4.9375 3.83594 4.9375ZM6.29688 4.9375C6.38542 4.9375 6.48177 4.91406 6.58594 4.86719C6.67969 4.6849 6.79688 4.49479 6.9375 4.29688C6.9375 4.125 6.875 3.97656 6.75 3.85156C6.625 3.72656 6.47396 3.66406 6.29688 3.66406C6.125 3.66406 5.97656 3.72656 5.85156 3.85156C5.72656 3.97656 5.66406 4.125 5.66406 4.29688C5.66406 4.47396 5.72656 4.625 5.85156 4.75C5.97656 4.875 6.125 4.9375 6.29688 4.9375ZM13.6953 4.9375C13.8724 4.9375 14.0234 4.875 14.1484 4.75C14.2734 4.625 14.3359 4.47396 14.3359 4.29688C14.3359 4.125 14.2734 3.97656 14.1484 3.85156C14.0234 3.72656 13.8724 3.66406 13.6953 3.66406C13.5339 3.66406 13.3906 3.71875 13.2656 3.82812C13.1458 3.9375 13.0781 4.07031 13.0625 4.22656C13.224 4.44531 13.362 4.66927 13.4766 4.89844C13.5391 4.92448 13.612 4.9375 13.6953 4.9375ZM16.1641 4.9375C16.3359 4.9375 16.4844 4.875 16.6094 4.75C16.7344 4.625 16.7969 4.47396 16.7969 4.29688C16.7969 4.125 16.7344 3.97656 16.6094 3.85156C16.4844 3.72656 16.3359 3.66406 16.1641 3.66406C15.987 3.66406 15.8359 3.72656 15.7109 3.85156C15.5859 3.97656 15.5234 4.125 15.5234 4.29688C15.5234 4.47396 15.5859 4.625 15.7109 4.75C15.8359 4.875 15.987 4.9375 16.1641 4.9375ZM18.625 4.74219C18.7448 4.74219 18.8464 4.69792 18.9297 4.60938C19.0182 4.52083 19.0625 4.41667 19.0625 4.29688C19.0625 4.17708 19.0182 4.07552 18.9297 3.99219C18.8464 3.90365 18.7448 3.85938 18.625 3.85938C18.5052 3.85938 18.401 3.90365 18.3125 3.99219C18.2292 4.07552 18.1875 4.17708 18.1875 4.29688C18.1875 4.41667 18.2292 4.52083 18.3125 4.60938C18.401 4.69792 18.5052 4.74219 18.625 4.74219ZM1.375 7.63281C1.54688 7.63281 1.69531 7.57031 1.82031 7.44531C1.94531 7.32031 2.00781 7.16927 2.00781 6.99219C2.00781 6.8151 1.94531 6.66406 1.82031 6.53906C1.69531 6.41406 1.54688 6.35156 1.375 6.35156C1.19792 6.35156 1.04688 6.41406 0.921875 6.53906C0.796875 6.66406 0.734375 6.8151 0.734375 6.99219C0.734375 7.16927 0.796875 7.32031 0.921875 7.44531C1.04688 7.57031 1.19792 7.63281 1.375 7.63281ZM3.83594 7.82812C4.0651 7.82812 4.26042 7.7474 4.42188 7.58594C4.58854 7.41927 4.67188 7.22135 4.67188 6.99219C4.67188 6.76302 4.58854 6.56771 4.42188 6.40625C4.26042 6.23958 4.0651 6.15625 3.83594 6.15625C3.60677 6.15625 3.40885 6.23958 3.24219 6.40625C3.08073 6.56771 3 6.76302 3 6.99219C3 7.22135 3.08073 7.41927 3.24219 7.58594C3.40885 7.7474 3.60677 7.82812 3.83594 7.82812ZM5.46094 6.99219C5.46094 7.21615 5.53906 7.40885 5.69531 7.57031C5.85156 7.73177 6.03906 7.81771 6.25781 7.82812C6.17448 7.51042 6.13281 7.16406 6.13281 6.78906C6.13281 6.67969 6.13542 6.57292 6.14062 6.46875C6.15104 6.36458 6.16406 6.26302 6.17969 6.16406C5.97656 6.19531 5.80469 6.28906 5.66406 6.44531C5.52865 6.60156 5.46094 6.78385 5.46094 6.99219ZM14.5391 6.99219C14.5391 6.79427 14.474 6.61979 14.3438 6.46875C14.2135 6.3125 14.0547 6.21354 13.8672 6.17188C13.8932 6.34375 13.9062 6.54427 13.9062 6.77344C13.9062 7.15365 13.8646 7.50521 13.7812 7.82812C13.9896 7.80208 14.1667 7.71094 14.3125 7.55469C14.4635 7.39323 14.5391 7.20573 14.5391 6.99219ZM16.1641 7.82812C16.3932 7.82812 16.5885 7.7474 16.75 7.58594C16.9167 7.41927 17 7.22135 17 6.99219C17 6.76302 16.9167 6.56771 16.75 6.40625C16.5885 6.23958 16.3932 6.15625 16.1641 6.15625C15.9349 6.15625 15.737 6.23958 15.5703 6.40625C15.4036 6.56771 15.3203 6.76302 15.3203 6.99219C15.3203 7.22135 15.4036 7.41927 15.5703 7.58594C15.737 7.7474 15.9349 7.82812 16.1641 7.82812ZM18.625 7.63281C18.7969 7.63281 18.9453 7.57031 19.0703 7.44531C19.2005 7.32031 19.2656 7.16927 19.2656 6.99219C19.2656 6.8151 19.2005 6.66406 19.0703 6.53906C18.9453 6.41406 18.7969 6.35156 18.625 6.35156C18.4479 6.35156 18.2969 6.41406 18.1719 6.53906C18.0469 6.66406 17.9844 6.8151 17.9844 6.99219C17.9844 7.16927 18.0469 7.32031 18.1719 7.44531C18.2969 7.57031 18.4479 7.63281 18.625 7.63281ZM1.375 10.3203C1.54688 10.3203 1.69531 10.2578 1.82031 10.1328C1.94531 10.0078 2.00781 9.85938 2.00781 9.6875C2.00781 9.51042 1.94531 9.35938 1.82031 9.23438C1.69531 9.10938 1.54688 9.04688 1.375 9.04688C1.19792 9.04688 1.04688 9.10938 0.921875 9.23438C0.796875 9.35938 0.734375 9.51042 0.734375 9.6875C0.734375 9.85938 0.796875 10.0078 0.921875 10.1328C1.04688 10.2578 1.19792 10.3203 1.375 10.3203ZM3.83594 10.5234C4.0651 10.5234 4.26042 10.4427 4.42188 10.2812C4.58854 10.1146 4.67188 9.91667 4.67188 9.6875C4.67188 9.45833 4.58854 9.26042 4.42188 9.09375C4.26042 8.92708 4.0651 8.84375 3.83594 8.84375C3.60677 8.84375 3.40885 8.92708 3.24219 9.09375C3.08073 9.26042 3 9.45833 3 9.6875C3 9.91667 3.08073 10.1146 3.24219 10.2812C3.40885 10.4427 3.60677 10.5234 3.83594 10.5234ZM5.9375 10.4453C6.11979 10.3307 6.3099 10.2266 6.50781 10.1328C6.70573 10.0339 6.90885 9.9401 7.11719 9.85156C7.16406 9.59635 7.10417 9.36458 6.9375 9.15625C6.77604 8.94792 6.5625 8.84375 6.29688 8.84375C6.06771 8.84375 5.86979 8.92708 5.70312 9.09375C5.54167 9.26042 5.46094 9.45833 5.46094 9.6875C5.46094 9.84896 5.50521 9.9974 5.59375 10.1328C5.68229 10.2682 5.79688 10.3724 5.9375 10.4453ZM14.0859 10.4219C14.2161 10.3542 14.3229 10.2552 14.4062 10.125C14.4948 9.98958 14.5391 9.84375 14.5391 9.6875C14.5391 9.45833 14.4557 9.26042 14.2891 9.09375C14.1224 8.92708 13.9245 8.84375 13.6953 8.84375C13.4349 8.84375 13.2214 8.94531 13.0547 9.14844C12.888 9.35156 12.8307 9.58333 12.8828 9.84375C13.0964 9.92188 13.3021 10.0104 13.5 10.1094C13.7031 10.2083 13.8984 10.3125 14.0859 10.4219ZM16.1641 10.5234C16.3932 10.5234 16.5885 10.4427 16.75 10.2812C16.9167 10.1146 17 9.91667 17 9.6875C17 9.45833 16.9167 9.26042 16.75 9.09375C16.5885 8.92708 16.3932 8.84375 16.1641 8.84375C15.9349 8.84375 15.737 8.92708 15.5703 9.09375C15.4036 9.26042 15.3203 9.45833 15.3203 9.6875C15.3203 9.91667 15.4036 10.1146 15.5703 10.2812C15.737 10.4427 15.9349 10.5234 16.1641 10.5234ZM18.625 10.3203C18.7969 10.3203 18.9453 10.2578 19.0703 10.1328C19.2005 10.0078 19.2656 9.85938 19.2656 9.6875C19.2656 9.51042 19.2005 9.35938 19.0703 9.23438C18.9453 9.10938 18.7969 9.04688 18.625 9.04688C18.4479 9.04688 18.2969 9.10938 18.1719 9.23438C18.0469 9.35938 17.9844 9.51042 17.9844 9.6875C17.9844 9.85938 18.0469 10.0078 18.1719 10.1328C18.2969 10.2578 18.4479 10.3203 18.625 10.3203ZM1.375 12.8125C1.49479 12.8125 1.59635 12.7708 1.67969 12.6875C1.76823 12.599 1.8125 12.4948 1.8125 12.375C1.8125 12.2552 1.76823 12.1536 1.67969 12.0703C1.59635 11.9818 1.49479 11.9375 1.375 11.9375C1.25521 11.9375 1.15104 11.9818 1.0625 12.0703C0.979167 12.1536 0.9375 12.2552 0.9375 12.375C0.9375 12.4948 0.979167 12.599 1.0625 12.6875C1.15104 12.7708 1.25521 12.8125 1.375 12.8125ZM3.5625 12.9453C3.75 12.5807 3.97656 12.2292 4.24219 11.8906C4.1224 11.7917 3.98698 11.7422 3.83594 11.7422C3.65885 11.7422 3.50781 11.8047 3.38281 11.9297C3.25781 12.0547 3.19531 12.2031 3.19531 12.375C3.19531 12.6458 3.31771 12.8359 3.5625 12.9453ZM16.4688 12.9375C16.6875 12.8073 16.7969 12.6198 16.7969 12.375C16.7969 12.2031 16.7344 12.0547 16.6094 11.9297C16.4844 11.8047 16.3359 11.7422 16.1641 11.7422C16.0234 11.7422 15.8932 11.7839 15.7734 11.8672C16.0391 12.1953 16.2708 12.5521 16.4688 12.9375ZM18.625 12.8125C18.7448 12.8125 18.8464 12.7708 18.9297 12.6875C19.0182 12.599 19.0625 12.4948 19.0625 12.375C19.0625 12.2552 19.0182 12.1536 18.9297 12.0703C18.8464 11.9818 18.7448 11.9375 18.625 11.9375C18.5052 11.9375 18.401 11.9818 18.3125 12.0703C18.2292 12.1536 18.1875 12.2552 18.1875 12.375C18.1875 12.4948 18.2292 12.599 18.3125 12.6875C18.401 12.7708 18.5052 12.8125 18.625 12.8125ZM1.375 15.5078C1.49479 15.5078 1.59635 15.4635 1.67969 15.375C1.76823 15.2917 1.8125 15.1901 1.8125 15.0703C1.8125 14.9505 1.76823 14.8464 1.67969 14.7578C1.59635 14.6745 1.49479 14.6328 1.375 14.6328C1.25521 14.6328 1.15104 14.6745 1.0625 14.7578C0.979167 14.8464 0.9375 14.9505 0.9375 15.0703C0.9375 15.1901 0.979167 15.2917 1.0625 15.375C1.15104 15.4635 1.25521 15.5078 1.375 15.5078ZM18.625 15.5078C18.7448 15.5078 18.8464 15.4635 18.9297 15.375C19.0182 15.2917 19.0625 15.1901 19.0625 15.0703C19.0625 14.9505 19.0182 14.8464 18.9297 14.7578C18.8464 14.6745 18.7448 14.6328 18.625 14.6328C18.5052 14.6328 18.401 14.6745 18.3125 14.7578C18.2292 14.8464 18.1875 14.9505 18.1875 15.0703C18.1875 15.1901 18.2292 15.2917 18.3125 15.375C18.401 15.4635 18.5052 15.5078 18.625 15.5078Z" fill="white"/>
</svg>
