<svg width="124" height="124" viewBox="0 0 124 124" fill="none" xmlns="http://www.w3.org/2000/svg">
<path d="M5.9375 40.5625C9.3125 40.5625 11 38.8542 11 35.4375V20.6875C11 17.4375 11.8333 15 13.5 13.375C15.1667 11.7083 17.5625 10.875 20.6875 10.875H35.8125C39.2292 10.875 40.9375 9.1875 40.9375 5.8125C40.9375 2.47917 39.2292 0.8125 35.8125 0.8125H20.5625C14.0208 0.8125 9.10417 2.4375 5.8125 5.6875C2.5625 8.89583 0.9375 13.7083 0.9375 20.125V35.4375C0.9375 38.8542 2.60417 40.5625 5.9375 40.5625ZM118.25 40.5625C121.625 40.5625 123.312 38.8542 123.312 35.4375V20.125C123.312 13.7083 121.667 8.89583 118.375 5.6875C115.125 2.4375 110.229 0.8125 103.688 0.8125H88.375C85 0.8125 83.3125 2.47917 83.3125 5.8125C83.3125 9.1875 85 10.875 88.375 10.875H103.5C106.583 10.875 108.979 11.7083 110.688 13.375C112.396 15 113.25 17.4375 113.25 20.6875V35.4375C113.25 38.8542 114.917 40.5625 118.25 40.5625ZM20.5625 123.125H35.8125C39.2292 123.125 40.9375 121.458 40.9375 118.125C40.9375 114.75 39.2292 113.062 35.8125 113.062H20.6875C17.5625 113.062 15.1667 112.229 13.5 110.562C11.8333 108.938 11 106.5 11 103.25V88.5C11 85.0833 9.3125 83.375 5.9375 83.375C2.60417 83.375 0.9375 85.0833 0.9375 88.5V103.75C0.9375 110.208 2.5625 115.042 5.8125 118.25C9.10417 121.5 14.0208 123.125 20.5625 123.125ZM88.375 123.125H103.688C110.229 123.125 115.125 121.5 118.375 118.25C121.667 115.042 123.312 110.208 123.312 103.75V88.5C123.312 85.0833 121.625 83.375 118.25 83.375C114.917 83.375 113.25 85.0833 113.25 88.5V103.25C113.25 106.5 112.396 108.938 110.688 110.562C108.979 112.229 106.583 113.062 103.5 113.062H88.375C85 113.062 83.3125 114.75 83.3125 118.125C83.3125 121.458 85 123.125 88.375 123.125ZM30.75 96.8125H93.5625C94.9375 96.8125 95.9583 96.4167 96.625 95.625C97.2917 94.7917 97.625 93.7292 97.625 92.4375C97.625 90.5625 96.8958 88.125 95.4375 85.125C94.0208 82.125 91.8542 79.125 88.9375 76.125C86.0208 73.125 82.3333 70.6042 77.875 68.5625C73.4583 66.4792 68.2083 65.4375 62.125 65.4375C56.0833 65.4375 50.8333 66.4792 46.375 68.5625C41.9583 70.6042 38.2917 73.125 35.375 76.125C32.4583 79.125 30.2708 82.125 28.8125 85.125C27.3958 88.125 26.6875 90.5625 26.6875 92.4375C26.6875 93.7292 27.0208 94.7917 27.6875 95.625C28.3542 96.4167 29.375 96.8125 30.75 96.8125ZM62.125 59.8125C65.375 59.8542 68.3333 59.0208 71 57.3125C73.7083 55.6042 75.8542 53.3125 77.4375 50.4375C79.0208 47.5208 79.8125 44.2292 79.8125 40.5625C79.8125 37.1042 79.0208 33.9583 77.4375 31.125C75.8542 28.25 73.7083 25.9583 71 24.25C68.3333 22.5 65.375 21.625 62.125 21.625C58.875 21.625 55.9167 22.5 53.25 24.25C50.5833 25.9583 48.4583 28.25 46.875 31.125C45.2917 33.9583 44.5 37.1042 44.5 40.5625C44.5 44.2292 45.2917 47.5 46.875 50.375C48.4583 53.25 50.5833 55.5417 53.25 57.25C55.9167 58.9583 58.875 59.8125 62.125 59.8125Z" fill="white"/>
</svg>
