<?xml version="1.0" encoding="UTF-8"?>
<svg xmlns="http://www.w3.org/2000/svg" xmlns:xlink="http://www.w3.org/1999/xlink" width="24" height="18" viewBox="0 0 24 18" version="1.1">
<g id="surface1">
<path style=" stroke:none;fill-rule:nonzero;fill:rgb(100%,100%,100%);fill-opacity:1;" d="M 2.148438 17.417969 L 14.71875 17.417969 C 15.21875 17.417969 15.609375 17.304688 15.890625 17.082031 C 16.179688 16.863281 16.320312 16.558594 16.320312 16.171875 C 16.320312 15.570312 16.136719 14.9375 15.769531 14.269531 C 15.40625 13.601562 14.882812 12.976562 14.195312 12.394531 C 13.511719 11.804688 12.683594 11.332031 11.710938 10.96875 C 10.742188 10.601562 9.648438 10.414062 8.429688 10.414062 C 7.214844 10.414062 6.121094 10.601562 5.148438 10.96875 C 4.179688 11.332031 3.351562 11.804688 2.664062 12.394531 C 1.976562 12.976562 1.449219 13.601562 1.085938 14.269531 C 0.726562 14.9375 0.542969 15.570312 0.542969 16.171875 C 0.542969 16.558594 0.683594 16.863281 0.964844 17.082031 C 1.253906 17.304688 1.648438 17.417969 2.148438 17.417969 Z M 8.4375 8.738281 C 9.105469 8.738281 9.726562 8.554688 10.292969 8.195312 C 10.863281 7.824219 11.320312 7.328125 11.664062 6.703125 C 12.011719 6.078125 12.1875 5.375 12.1875 4.59375 C 12.1875 3.824219 12.011719 3.136719 11.664062 2.53125 C 11.320312 1.917969 10.863281 1.4375 10.292969 1.085938 C 9.726562 0.738281 9.105469 0.5625 8.4375 0.5625 C 7.769531 0.5625 7.148438 0.742188 6.582031 1.097656 C 6.011719 1.453125 5.554688 1.9375 5.203125 2.550781 C 4.859375 3.164062 4.6875 3.851562 4.6875 4.613281 C 4.6875 5.386719 4.859375 6.085938 5.203125 6.710938 C 5.554688 7.332031 6.011719 7.824219 6.582031 8.195312 C 7.148438 8.554688 7.769531 8.738281 8.4375 8.738281 Z M 16.285156 8.597656 C 16.503906 8.597656 16.683594 8.519531 16.828125 8.363281 L 19.480469 5.699219 L 22.152344 8.363281 C 22.304688 8.519531 22.480469 8.597656 22.6875 8.597656 C 22.894531 8.597656 23.070312 8.523438 23.210938 8.371094 C 23.363281 8.222656 23.4375 8.042969 23.4375 7.835938 C 23.4375 7.632812 23.363281 7.453125 23.210938 7.304688 L 20.550781 4.640625 L 23.222656 1.960938 C 23.371094 1.808594 23.445312 1.632812 23.445312 1.433594 C 23.445312 1.226562 23.371094 1.054688 23.222656 0.910156 C 23.078125 0.757812 22.902344 0.683594 22.695312 0.683594 C 22.503906 0.683594 22.332031 0.761719 22.179688 0.917969 L 19.480469 3.589844 L 16.808594 0.929688 C 16.671875 0.777344 16.496094 0.703125 16.285156 0.703125 C 16.078125 0.703125 15.898438 0.773438 15.75 0.917969 C 15.605469 1.0625 15.535156 1.238281 15.535156 1.445312 C 15.535156 1.648438 15.609375 1.824219 15.757812 1.96875 L 18.421875 4.640625 L 15.757812 7.3125 C 15.609375 7.457031 15.535156 7.632812 15.535156 7.835938 C 15.535156 8.042969 15.605469 8.222656 15.75 8.371094 C 15.898438 8.523438 16.078125 8.597656 16.285156 8.597656 Z M 16.285156 8.597656 "/>
</g>
</svg>
