<svg width="30" height="14" viewBox="0 0 30 14" fill="none" xmlns="http://www.w3.org/2000/svg">
<path d="M6.71094 7.17969C7.22135 7.17969 7.69271 7.04167 8.125 6.76562C8.55729 6.48438 8.90365 6.10677 9.16406 5.63281C9.42969 5.15365 9.5625 4.61458 9.5625 4.01562C9.5625 3.43229 9.42969 2.90885 9.16406 2.44531C8.89844 1.98177 8.54948 1.61719 8.11719 1.35156C7.6849 1.08594 7.21615 0.953125 6.71094 0.953125C6.20052 0.953125 5.72656 1.08854 5.28906 1.35938C4.85677 1.63021 4.50781 1.9974 4.24219 2.46094C3.97656 2.92448 3.84635 3.44792 3.85156 4.03125C3.85156 4.625 3.98177 5.15885 4.24219 5.63281C4.50781 6.10677 4.85677 6.48438 5.28906 6.76562C5.72656 7.04167 6.20052 7.17969 6.71094 7.17969ZM1.98438 13.7578H11.4219C11.8125 13.7578 12.1146 13.6719 12.3281 13.5C12.5469 13.3281 12.6562 13.0911 12.6562 12.7891C12.6562 12.3307 12.5182 11.849 12.2422 11.3438C11.9714 10.8333 11.5781 10.3568 11.0625 9.91406C10.5469 9.47135 9.92188 9.11198 9.1875 8.83594C8.45312 8.55469 7.625 8.41406 6.70312 8.41406C5.78125 8.41406 4.95312 8.55469 4.21875 8.83594C3.48438 9.11198 2.85938 9.47135 2.34375 9.91406C1.82812 10.3568 1.43229 10.8333 1.15625 11.3438C0.885417 11.849 0.75 12.3307 0.75 12.7891C0.75 13.0911 0.856771 13.3281 1.07031 13.5C1.28906 13.6719 1.59375 13.7578 1.98438 13.7578ZM23.2969 7.17969C23.8073 7.17969 24.2786 7.04167 24.7109 6.76562C25.1432 6.48438 25.4896 6.10677 25.75 5.63281C26.0156 5.15365 26.1484 4.61458 26.1484 4.01562C26.1484 3.43229 26.0156 2.90885 25.75 2.44531C25.4844 1.98177 25.1354 1.61719 24.7031 1.35156C24.2708 1.08594 23.8021 0.953125 23.2969 0.953125C22.7865 0.953125 22.3125 1.08854 21.875 1.35938C21.4427 1.63021 21.0938 1.9974 20.8281 2.46094C20.5625 2.92448 20.4323 3.44792 20.4375 4.03125C20.4375 4.625 20.5677 5.15885 20.8281 5.63281C21.0938 6.10677 21.4427 6.48438 21.875 6.76562C22.3125 7.04167 22.7865 7.17969 23.2969 7.17969ZM18.5703 13.7578H28.0078C28.3984 13.7578 28.7005 13.6719 28.9141 13.5C29.1328 13.3281 29.2422 13.0911 29.2422 12.7891C29.2422 12.3307 29.1042 11.849 28.8281 11.3438C28.5573 10.8333 28.1641 10.3568 27.6484 9.91406C27.1328 9.47135 26.5078 9.11198 25.7734 8.83594C25.0391 8.55469 24.2109 8.41406 23.2891 8.41406C22.3672 8.41406 21.5391 8.55469 20.8047 8.83594C20.0703 9.11198 19.4453 9.47135 18.9297 9.91406C18.4141 10.3568 18.0182 10.8333 17.7422 11.3438C17.4714 11.849 17.3359 12.3307 17.3359 12.7891C17.3359 13.0911 17.4427 13.3281 17.6562 13.5C17.875 13.6719 18.1797 13.7578 18.5703 13.7578ZM11.9297 7.79688C12.2161 7.79688 12.4609 7.69531 12.6641 7.49219C12.8672 7.28906 12.9688 7.04427 12.9688 6.75781C12.9688 6.47135 12.8672 6.22917 12.6641 6.03125C12.4609 5.82812 12.2161 5.72656 11.9297 5.72656C11.6432 5.72656 11.3984 5.82812 11.1953 6.03125C10.9974 6.22917 10.8984 6.47135 10.8984 6.75781C10.8984 7.04427 10.9974 7.28906 11.1953 7.49219C11.3984 7.69531 11.6432 7.79688 11.9297 7.79688ZM15 7.79688C15.2865 7.79688 15.5286 7.69531 15.7266 7.49219C15.9297 7.28906 16.0312 7.04427 16.0312 6.75781C16.0312 6.47135 15.9297 6.22917 15.7266 6.03125C15.5286 5.82812 15.2865 5.72656 15 5.72656C14.7135 5.72656 14.4688 5.82812 14.2656 6.03125C14.0677 6.22917 13.9688 6.47135 13.9688 6.75781C13.9688 7.04427 14.0677 7.28906 14.2656 7.49219C14.4688 7.69531 14.7135 7.79688 15 7.79688ZM18.0547 7.79688C18.3411 7.79688 18.5859 7.69531 18.7891 7.49219C18.9922 7.28906 19.0938 7.04427 19.0938 6.75781C19.0938 6.47135 18.9922 6.22917 18.7891 6.03125C18.5859 5.82812 18.3411 5.72656 18.0547 5.72656C17.7682 5.72656 17.5234 5.82812 17.3203 6.03125C17.1224 6.22917 17.0234 6.47135 17.0234 6.75781C17.0234 7.04427 17.1224 7.28906 17.3203 7.49219C17.5234 7.69531 17.7682 7.79688 18.0547 7.79688Z" fill="white"/>
</svg>
