<?xml version="1.0" encoding="UTF-8"?>
<svg xmlns="http://www.w3.org/2000/svg" xmlns:xlink="http://www.w3.org/1999/xlink" width="24" height="25.5" viewBox="0 0 24 25.5" version="1.1">
<g id="surface1">
<path style=" stroke:none;fill-rule:nonzero;fill:rgb(100%,100%,100%);fill-opacity:1;" d="M 12 24.492188 C 13.632812 24.492188 15.167969 24.179688 16.605469 23.554688 C 18.050781 22.929688 19.324219 22.066406 20.425781 20.964844 C 21.527344 19.863281 22.390625 18.59375 23.015625 17.15625 C 23.640625 15.710938 23.953125 14.171875 23.953125 12.539062 C 23.953125 10.90625 23.640625 9.371094 23.015625 7.933594 C 22.390625 6.488281 21.527344 5.214844 20.425781 4.113281 C 19.324219 3.011719 18.050781 2.148438 16.605469 1.523438 C 15.160156 0.898438 13.621094 0.585938 11.988281 0.585938 C 10.355469 0.585938 8.816406 0.898438 7.371094 1.523438 C 5.933594 2.148438 4.664062 3.011719 3.5625 4.113281 C 2.46875 5.214844 1.609375 6.488281 0.984375 7.933594 C 0.359375 9.371094 0.046875 10.90625 0.046875 12.539062 C 0.046875 14.171875 0.359375 15.710938 0.984375 17.15625 C 1.609375 18.59375 2.472656 19.863281 3.574219 20.964844 C 4.675781 22.066406 5.945312 22.929688 7.382812 23.554688 C 8.828125 24.179688 10.367188 24.492188 12 24.492188 Z M 7.570312 10.628906 C 7.570312 10.457031 7.625 10.316406 7.734375 10.207031 C 7.851562 10.097656 7.992188 10.042969 8.15625 10.042969 L 8.894531 10.042969 L 8.894531 7.839844 C 8.894531 7.597656 8.964844 7.40625 9.105469 7.265625 C 9.246094 7.117188 9.4375 7.042969 9.679688 7.042969 L 12.597656 7.042969 C 13.597656 7.042969 14.425781 7.316406 15.082031 7.863281 C 15.746094 8.410156 16.148438 9.136719 16.289062 10.042969 L 16.875 10.042969 C 17.265625 10.042969 17.460938 10.238281 17.460938 10.628906 C 17.460938 10.792969 17.40625 10.9375 17.296875 11.0625 C 17.1875 11.179688 17.046875 11.238281 16.875 11.238281 L 16.3125 11.238281 C 16.203125 12.183594 15.808594 12.949219 15.128906 13.535156 C 14.457031 14.113281 13.613281 14.402344 12.597656 14.402344 L 10.488281 14.402344 L 10.488281 17.800781 C 10.488281 18.035156 10.414062 18.226562 10.265625 18.375 C 10.125 18.523438 9.9375 18.597656 9.703125 18.597656 C 9.476562 18.597656 9.285156 18.523438 9.128906 18.375 C 8.972656 18.226562 8.894531 18.035156 8.894531 17.800781 L 8.894531 11.238281 L 8.15625 11.238281 C 7.992188 11.238281 7.851562 11.179688 7.734375 11.0625 C 7.625 10.9375 7.570312 10.792969 7.570312 10.628906 Z M 10.5 12.960938 L 12.339844 12.960938 C 13.003906 12.960938 13.539062 12.8125 13.945312 12.515625 C 14.351562 12.210938 14.601562 11.785156 14.695312 11.238281 L 10.5 11.238281 Z M 10.5 10.042969 L 14.660156 10.042969 C 14.550781 9.535156 14.292969 9.148438 13.886719 8.882812 C 13.488281 8.609375 12.972656 8.472656 12.339844 8.472656 L 10.5 8.472656 Z M 10.5 10.042969 "/>
</g>
</svg>
