<svg width="128" height="128" viewBox="0 0 128 128" fill="none" xmlns="http://www.w3.org/2000/svg">
<path d="M63.9375 127.688C72.6458 127.688 80.8333 126.021 88.5 122.688C96.2083 119.354 103 114.75 108.875 108.875C114.75 103 119.354 96.2292 122.688 88.5625C126.021 80.8542 127.688 72.6458 127.688 63.9375C127.688 55.2292 126.021 47.0417 122.688 39.375C119.354 31.6667 114.75 24.875 108.875 19C103 13.125 96.2083 8.52083 88.5 5.1875C80.7917 1.85417 72.5833 0.1875 63.875 0.1875C55.1667 0.1875 46.9583 1.85417 39.25 5.1875C31.5833 8.52083 24.8125 13.125 18.9375 19C13.1042 24.875 8.52083 31.6667 5.1875 39.375C1.85417 47.0417 0.1875 55.2292 0.1875 63.9375C0.1875 72.6458 1.85417 80.8542 5.1875 88.5625C8.52083 96.2292 13.125 103 19 108.875C24.875 114.75 31.6458 119.354 39.3125 122.688C47.0208 126.021 55.2292 127.688 63.9375 127.688ZM48.25 79.0625C44.5 75.3125 41.1667 71.375 38.25 67.25C35.375 63.125 33.1875 59.0208 31.6875 54.9375C30.2292 50.8542 29.7083 46.9792 30.125 43.3125C30.5417 39.6458 32.1667 36.375 35 33.5C35.0833 33.4167 35.1875 33.3125 35.3125 33.1875C35.4792 33.0208 35.6667 32.8958 35.875 32.8125C37.2917 31.7292 38.6667 30.9583 40 30.5C41.3333 30.0417 42.5625 29.9792 43.6875 30.3125C44.8542 30.6042 45.8958 31.375 46.8125 32.625L54.75 43.875C56.0833 45.75 56.625 47.375 56.375 48.75C56.1667 50.0833 55.3333 51.5208 53.875 53.0625L51.375 55.6875C50.9583 56.1458 50.7708 56.625 50.8125 57.125C50.8958 57.625 51.0417 58.0625 51.25 58.4375C51.875 59.5208 52.9167 60.9583 54.375 62.75C55.8333 64.5417 57.4375 66.3125 59.1875 68.0625C61.0208 69.8958 62.7917 71.5208 64.5 72.9375C66.25 74.3542 67.6875 75.3958 68.8125 76.0625C69.2708 76.3125 69.7708 76.4583 70.3125 76.5C70.8958 76.5 71.375 76.3333 71.75 76L74.25 73.4375C75.7083 71.9792 77.125 71.1458 78.5 70.9375C79.875 70.6875 81.5208 71.2292 83.4375 72.5625C85.1875 73.7708 86.7292 74.8542 88.0625 75.8125C89.3958 76.7708 90.6042 77.6458 91.6875 78.4375C92.8125 79.1875 93.875 79.9167 94.875 80.625C96.75 82.0417 97.5833 83.7292 97.375 85.6875C97.1667 87.6458 96.3333 89.4583 94.875 91.125C94.7083 91.3333 94.5417 91.5417 94.375 91.75C94.2083 91.9583 94.0208 92.1667 93.8125 92.375C90.9792 95.2083 87.7292 96.8333 84.0625 97.25C80.3958 97.625 76.5208 97.0833 72.4375 95.625C68.3542 94.125 64.25 91.9375 60.125 89.0625C56 86.1458 52.0417 82.8125 48.25 79.0625Z" fill="white"/>
</svg>
