<svg width="18" height="17" viewBox="0 0 18 17" fill="none" xmlns="http://www.w3.org/2000/svg">
<path d="M5.19531 16.9453C5.38802 16.9453 5.5651 16.8932 5.72656 16.7891C5.88802 16.6849 6.08594 16.5286 6.32031 16.3203L9.01562 13.9219H14.0312C14.8073 13.9219 15.4609 13.7839 15.9922 13.5078C16.5234 13.2266 16.9245 12.8203 17.1953 12.2891C17.4714 11.7578 17.6094 11.1094 17.6094 10.3438V4.35938C17.6094 3.59375 17.4714 2.94531 17.1953 2.41406C16.9245 1.88281 16.5234 1.47917 15.9922 1.20312C15.4609 0.921875 14.8073 0.78125 14.0312 0.78125H3.96875C3.19271 0.78125 2.53906 0.921875 2.00781 1.20312C1.47656 1.47917 1.07292 1.88281 0.796875 2.41406C0.526042 2.94531 0.390625 3.59375 0.390625 4.35938V10.3438C0.390625 11.1094 0.526042 11.7578 0.796875 12.2891C1.07292 12.8203 1.47656 13.2266 2.00781 13.5078C2.53906 13.7839 3.19271 13.9219 3.96875 13.9219H4.34375V15.9531C4.34375 16.2552 4.41667 16.4948 4.5625 16.6719C4.71354 16.8542 4.92448 16.9453 5.19531 16.9453ZM5.51562 15.5156V13.25C5.51562 13.0365 5.47135 12.8854 5.38281 12.7969C5.29427 12.7083 5.14323 12.6641 4.92969 12.6641H3.96875C3.17708 12.6641 2.59115 12.4688 2.21094 12.0781C1.83594 11.6823 1.64844 11.1016 1.64844 10.3359V4.35938C1.64844 3.59896 1.83594 3.02344 2.21094 2.63281C2.59115 2.23698 3.17708 2.03906 3.96875 2.03906H14.0312C14.8177 2.03906 15.401 2.23698 15.7812 2.63281C16.1615 3.02344 16.3516 3.59896 16.3516 4.35938V10.3359C16.3516 11.1016 16.1615 11.6823 15.7812 12.0781C15.401 12.4688 14.8177 12.6641 14.0312 12.6641H8.96875C8.75 12.6641 8.57292 12.6875 8.4375 12.7344C8.30208 12.7812 8.16146 12.8802 8.01562 13.0312L5.51562 15.5156ZM7.10156 9.1875C7.5599 9.64062 8.03906 10.0443 8.53906 10.3984C9.03906 10.7474 9.53646 11.013 10.0312 11.1953C10.526 11.3724 10.9948 11.4375 11.4375 11.3906C11.8854 11.3385 12.2812 11.1406 12.625 10.7969C12.651 10.7708 12.6745 10.7474 12.6953 10.7266C12.7161 10.7005 12.737 10.6745 12.7578 10.6484C12.9349 10.4453 13.0339 10.2266 13.0547 9.99219C13.0807 9.7526 12.9792 9.54688 12.75 9.375C12.6302 9.28646 12.5052 9.19531 12.375 9.10156C12.2448 9.00781 12.0964 8.90625 11.9297 8.79688C11.7682 8.68229 11.5807 8.54948 11.3672 8.39844C11.138 8.23698 10.9401 8.17188 10.7734 8.20312C10.6068 8.22917 10.4349 8.32812 10.2578 8.5L9.95312 8.8125C9.90625 8.85417 9.84896 8.875 9.78125 8.875C9.71354 8.86979 9.65365 8.85156 9.60156 8.82031C9.46615 8.74219 9.29167 8.61719 9.07812 8.44531C8.86458 8.27344 8.64844 8.07552 8.42969 7.85156C8.21615 7.63802 8.02083 7.42448 7.84375 7.21094C7.66667 6.99219 7.54167 6.81771 7.46875 6.6875C7.44271 6.64062 7.42448 6.58594 7.41406 6.52344C7.40365 6.46094 7.42448 6.40365 7.47656 6.35156L7.78906 6.03125C7.96615 5.84375 8.06771 5.66927 8.09375 5.50781C8.11979 5.34635 8.04948 5.15104 7.88281 4.92188L6.92188 3.55469C6.81771 3.40365 6.69531 3.3099 6.55469 3.27344C6.41406 3.23177 6.26302 3.23958 6.10156 3.29688C5.9401 3.35417 5.77083 3.44792 5.59375 3.57812C5.57292 3.58854 5.55469 3.60417 5.53906 3.625C5.52344 3.64062 5.50781 3.65365 5.49219 3.66406C5.14844 4.01302 4.95052 4.40885 4.89844 4.85156C4.85156 5.29427 4.91667 5.76302 5.09375 6.25781C5.27604 6.7526 5.54167 7.25 5.89062 7.75C6.24479 8.25 6.64844 8.72917 7.10156 9.1875Z" fill="white"/>
</svg>
