<?xml version="1.0" encoding="UTF-8"?>
<svg xmlns="http://www.w3.org/2000/svg" xmlns:xlink="http://www.w3.org/1999/xlink" width="24" height="25.5" viewBox="0 0 24 25.5" version="1.1">
<g id="surface1">
<path style=" stroke:none;fill-rule:nonzero;fill:rgb(100%,100%,100%);fill-opacity:1;" d="M 12 24.492188 C 13.632812 24.492188 15.167969 24.179688 16.605469 23.554688 C 18.050781 22.929688 19.324219 22.066406 20.425781 20.964844 C 21.527344 19.863281 22.390625 18.59375 23.015625 17.15625 C 23.640625 15.710938 23.953125 14.171875 23.953125 12.539062 C 23.953125 10.90625 23.640625 9.371094 23.015625 7.933594 C 22.390625 6.488281 21.527344 5.214844 20.425781 4.113281 C 19.324219 3.011719 18.050781 2.148438 16.605469 1.523438 C 15.160156 0.898438 13.621094 0.585938 11.988281 0.585938 C 10.355469 0.585938 8.816406 0.898438 7.371094 1.523438 C 5.933594 2.148438 4.664062 3.011719 3.5625 4.113281 C 2.46875 5.214844 1.609375 6.488281 0.984375 7.933594 C 0.359375 9.371094 0.046875 10.90625 0.046875 12.539062 C 0.046875 14.171875 0.359375 15.710938 0.984375 17.15625 C 1.609375 18.59375 2.472656 19.863281 3.574219 20.964844 C 4.675781 22.066406 5.945312 22.929688 7.382812 23.554688 C 8.828125 24.179688 10.367188 24.492188 12 24.492188 Z M 12 22.5 C 10.617188 22.5 9.324219 22.242188 8.121094 21.726562 C 6.917969 21.210938 5.859375 20.5 4.945312 19.59375 C 4.039062 18.679688 3.328125 17.621094 2.8125 16.417969 C 2.304688 15.214844 2.050781 13.921875 2.050781 12.539062 C 2.050781 11.15625 2.304688 9.863281 2.8125 8.660156 C 3.328125 7.457031 4.039062 6.398438 4.945312 5.484375 C 5.851562 4.570312 6.90625 3.859375 8.109375 3.351562 C 9.3125 2.835938 10.605469 2.578125 11.988281 2.578125 C 13.371094 2.578125 14.664062 2.835938 15.867188 3.351562 C 17.078125 3.859375 18.136719 4.570312 19.042969 5.484375 C 19.957031 6.398438 20.671875 7.457031 21.1875 8.660156 C 21.703125 9.863281 21.960938 11.15625 21.960938 12.539062 C 21.960938 13.921875 21.703125 15.214844 21.1875 16.417969 C 20.679688 17.621094 19.96875 18.679688 19.054688 19.59375 C 18.140625 20.5 17.082031 21.210938 15.878906 21.726562 C 14.675781 22.242188 13.382812 22.5 12 22.5 Z M 9.128906 15.28125 C 9.816406 15.960938 10.535156 16.566406 11.285156 17.097656 C 12.035156 17.621094 12.78125 18.019531 13.523438 18.292969 C 14.265625 18.558594 14.96875 18.65625 15.632812 18.585938 C 16.304688 18.507812 16.898438 18.210938 17.414062 17.695312 C 17.453125 17.65625 17.488281 17.621094 17.519531 17.589844 C 17.550781 17.550781 17.582031 17.511719 17.613281 17.472656 C 17.878906 17.167969 18.027344 16.839844 18.058594 16.488281 C 18.097656 16.128906 17.945312 15.820312 17.601562 15.5625 C 17.421875 15.429688 17.234375 15.292969 17.039062 15.152344 C 16.84375 15.011719 16.621094 14.859375 16.371094 14.695312 C 16.128906 14.523438 15.847656 14.324219 15.527344 14.097656 C 15.183594 13.855469 14.886719 13.757812 14.636719 13.804688 C 14.386719 13.84375 14.128906 13.992188 13.863281 14.25 L 13.40625 14.71875 C 13.335938 14.78125 13.25 14.8125 13.148438 14.8125 C 13.046875 14.804688 12.957031 14.777344 12.878906 14.730469 C 12.675781 14.613281 12.414062 14.425781 12.09375 14.167969 C 11.773438 13.910156 11.449219 13.613281 11.121094 13.277344 C 10.800781 12.957031 10.507812 12.636719 10.242188 12.316406 C 9.976562 11.988281 9.789062 11.726562 9.679688 11.53125 C 9.640625 11.460938 9.613281 11.378906 9.597656 11.285156 C 9.582031 11.191406 9.613281 11.105469 9.691406 11.027344 L 10.160156 10.546875 C 10.425781 10.265625 10.578125 10.003906 10.617188 9.761719 C 10.65625 9.519531 10.550781 9.226562 10.300781 8.882812 L 8.859375 6.832031 C 8.703125 6.605469 8.519531 6.464844 8.308594 6.410156 C 8.097656 6.347656 7.871094 6.359375 7.628906 6.445312 C 7.386719 6.53125 7.132812 6.671875 6.867188 6.867188 C 6.835938 6.882812 6.808594 6.90625 6.785156 6.9375 C 6.761719 6.960938 6.738281 6.980469 6.714844 6.996094 C 6.199219 7.519531 5.902344 8.113281 5.824219 8.777344 C 5.753906 9.441406 5.851562 10.144531 6.117188 10.886719 C 6.390625 11.628906 6.789062 12.375 7.3125 13.125 C 7.84375 13.875 8.449219 14.59375 9.128906 15.28125 Z M 9.128906 15.28125 "/>
</g>
</svg>
