<svg width="120" height="142" viewBox="0 0 120 142" fill="none" xmlns="http://www.w3.org/2000/svg">
<path d="M0.1875 70.875C0.1875 78.75 0.916667 86.4375 2.375 93.9375C3.875 101.438 6.10417 108.396 9.0625 114.812C12.0625 121.188 15.8125 126.625 20.3125 131.125C23.8542 134.667 27.4583 137.25 31.125 138.875C34.8333 140.542 39.3542 141.375 44.6875 141.375C48.9792 141.375 52.5625 140.625 55.4375 139.125C58.3125 137.667 60.3542 135.458 61.5625 132.5C62.8125 129.583 63.0833 126 62.375 121.75L58.5 99.9375C57.875 96.5625 56.4583 93.7708 54.25 91.5625C52.0833 89.3125 49.1458 88.1875 45.4375 88.1875H39.1875C37.5625 88.1875 36.3542 87.7083 35.5625 86.75C34.8125 85.75 34.3542 84.0833 34.1875 81.75C34.1042 80.8333 34.0417 79.375 34 77.375C33.9583 75.3333 33.9375 73.1667 33.9375 70.875C33.9375 68.5833 33.9583 66.4375 34 64.4375C34.0417 62.3958 34.1042 60.9167 34.1875 60C34.3542 57.6667 34.8125 56.0208 35.5625 55.0625C36.3542 54.0625 37.5625 53.5625 39.1875 53.5625H45.4375C49.1458 53.5625 52.0833 52.4583 54.25 50.25C56.4583 48 57.875 45.1875 58.5 41.8125L62.375 20.0625C63.0833 15.8125 62.8333 12.2292 61.625 9.3125C60.4167 6.39583 58.375 4.1875 55.5 2.6875C52.625 1.14583 49.0208 0.375 44.6875 0.375C39.3542 0.375 34.8333 1.20833 31.125 2.875C27.4583 4.54167 23.8542 7.125 20.3125 10.625C15.8125 15.125 12.0625 20.5833 9.0625 27C6.10417 33.375 3.875 40.3333 2.375 47.875C0.916667 55.375 0.1875 63.0417 0.1875 70.875ZM9.875 70.875C9.875 63.7917 10.5 56.875 11.75 50.125C13.0417 43.375 14.9583 37.1667 17.5 31.5C20.0417 25.8333 23.2292 21.125 27.0625 17.375C29.3542 15.2083 31.8125 13.5208 34.4375 12.3125C37.1042 11.0625 40.0625 10.4375 43.3125 10.4375C46.8542 10.4375 49.5208 11.125 51.3125 12.5C53.1458 13.8333 53.6875 16.125 52.9375 19.375L48.9375 39.5C48.7292 40.6667 48.2292 41.6042 47.4375 42.3125C46.6875 43.0208 45.6458 43.375 44.3125 43.375H37.125C33.7083 43.375 31.125 44.3333 29.375 46.25C27.625 48.1667 26.4583 50.625 25.875 53.625C25.5 55.7083 25.2083 58.2708 25 61.3125C24.8333 64.3542 24.75 67.5417 24.75 70.875C24.75 74.2083 24.8333 77.4167 25 80.5C25.2083 83.5417 25.5 86.1042 25.875 88.1875C26.4583 91.1458 27.625 93.5833 29.375 95.5C31.125 97.4167 33.7083 98.375 37.125 98.375H44.3125C45.6458 98.375 46.6875 98.7292 47.4375 99.4375C48.2292 100.146 48.7292 101.083 48.9375 102.25L52.9375 122.375C53.6458 125.583 53.1042 127.875 51.3125 129.25C49.5625 130.625 46.8958 131.312 43.3125 131.312C40.0625 131.312 37.1042 130.708 34.4375 129.5C31.8125 128.292 29.3542 126.583 27.0625 124.375C23.2292 120.625 20.0417 115.938 17.5 110.312C14.9583 104.646 13.0417 98.4375 11.75 91.6875C10.5 84.8958 9.875 77.9583 9.875 70.875ZM59.0625 75.3125H92.625L105.75 74.6875L92.125 86.9375L85.5625 93.5C85.1458 93.9583 84.8125 94.4792 84.5625 95.0625C84.3542 95.6042 84.25 96.2083 84.25 96.875C84.25 98.125 84.6458 99.1667 85.4375 100C86.2708 100.792 87.2917 101.188 88.5 101.188C89.7917 101.188 90.8958 100.729 91.8125 99.8125L117.5 74.1875C118.583 73.1042 119.125 72 119.125 70.875C119.125 69.75 118.583 68.625 117.5 67.5L91.8125 41.9375C90.8958 41.0208 89.7917 40.5625 88.5 40.5625C87.2917 40.5625 86.2708 40.9583 85.4375 41.75C84.6458 42.5417 84.25 43.5625 84.25 44.8125C84.25 45.5208 84.3542 46.1667 84.5625 46.75C84.8125 47.2917 85.1458 47.7708 85.5625 48.1875L92.125 54.8125L105.75 67L92.625 66.375H59.0625C57.6458 66.375 56.5208 66.8333 55.6875 67.75C54.8958 68.6667 54.5 69.7083 54.5 70.875C54.5 72.0417 54.8958 73.0833 55.6875 74C56.5208 74.875 57.6458 75.3125 59.0625 75.3125Z" fill="white"/>
</svg>
