<svg width="16" height="17" viewBox="0 0 16 17" fill="none" xmlns="http://www.w3.org/2000/svg">
<path d="M8 16.3359C9.08854 16.3359 10.112 16.1276 11.0703 15.7109C12.0339 15.2943 12.8828 14.7188 13.6172 13.9844C14.3516 13.25 14.9271 12.4036 15.3438 11.4453C15.7604 10.4818 15.9688 9.45573 15.9688 8.36719C15.9688 7.27865 15.7604 6.25521 15.3438 5.29688C14.9271 4.33333 14.3516 3.48438 13.6172 2.75C12.8828 2.01562 12.0339 1.4401 11.0703 1.02344C10.1068 0.606771 9.08073 0.398438 7.99219 0.398438C6.90365 0.398438 5.8776 0.606771 4.91406 1.02344C3.95573 1.4401 3.10938 2.01562 2.375 2.75C1.64583 3.48438 1.07292 4.33333 0.65625 5.29688C0.239583 6.25521 0.03125 7.27865 0.03125 8.36719C0.03125 9.45573 0.239583 10.4818 0.65625 11.4453C1.07292 12.4036 1.64844 13.25 2.38281 13.9844C3.11719 14.7188 3.96354 15.2943 4.92188 15.7109C5.88542 16.1276 6.91146 16.3359 8 16.3359ZM6.03906 10.2578C5.57031 9.78906 5.15365 9.29688 4.78906 8.78125C4.42969 8.26562 4.15625 7.7526 3.96875 7.24219C3.78646 6.73177 3.72135 6.2474 3.77344 5.78906C3.82552 5.33073 4.02865 4.92188 4.38281 4.5625C4.39323 4.55208 4.40625 4.53906 4.42188 4.52344C4.44271 4.5026 4.46615 4.48698 4.49219 4.47656C4.66927 4.34115 4.84115 4.24479 5.00781 4.1875C5.17448 4.13021 5.32812 4.1224 5.46875 4.16406C5.61458 4.20052 5.74479 4.29688 5.85938 4.45312L6.85156 5.85938C7.01823 6.09375 7.08594 6.29688 7.05469 6.46875C7.02865 6.63542 6.92448 6.8151 6.74219 7.00781L6.42969 7.33594C6.3776 7.39323 6.35417 7.45312 6.35938 7.51562C6.36979 7.57812 6.38802 7.63281 6.41406 7.67969C6.49219 7.8151 6.6224 7.99479 6.80469 8.21875C6.98698 8.44271 7.1875 8.66406 7.40625 8.88281C7.63542 9.11198 7.85677 9.3151 8.07031 9.49219C8.28906 9.66927 8.46875 9.79948 8.60938 9.88281C8.66667 9.91406 8.72917 9.93229 8.79688 9.9375C8.86979 9.9375 8.92969 9.91667 8.97656 9.875L9.28906 9.55469C9.47135 9.3724 9.64844 9.26823 9.82031 9.24219C9.99219 9.21094 10.1979 9.27865 10.4375 9.44531C10.6562 9.59635 10.849 9.73177 11.0156 9.85156C11.1823 9.97135 11.3333 10.0807 11.4688 10.1797C11.6094 10.2734 11.7422 10.3646 11.8672 10.4531C12.1016 10.6302 12.2057 10.8411 12.1797 11.0859C12.1536 11.3307 12.0495 11.5573 11.8672 11.7656C11.8464 11.7917 11.8255 11.8177 11.8047 11.8438C11.7839 11.8698 11.7604 11.8958 11.7344 11.9219C11.3802 12.276 10.974 12.4792 10.5156 12.5312C10.0573 12.5781 9.57292 12.5104 9.0625 12.3281C8.55208 12.1406 8.03906 11.8672 7.52344 11.5078C7.00781 11.1432 6.51302 10.7266 6.03906 10.2578Z" fill="white"/>
</svg>
