<svg xmlns="http://www.w3.org/2000/svg" width="24" height="24"><path style="stroke:none;fill-rule:nonzero;fill:#fff;fill-opacity:1" d="M12 23.063c1.633 0 3.168-.293 4.605-.883a12.29 12.29 0 0 0 3.82-2.438 11.482 11.482 0 0 0 2.59-3.586c.626-1.36.938-2.804.938-4.343 0-1.536-.312-2.981-.937-4.336a11.514 11.514 0 0 0-2.59-3.594 12.22 12.22 0 0 0-3.82-2.438 12.166 12.166 0 0 0-4.618-.883c-1.633 0-3.172.293-4.617.883a12.307 12.307 0 0 0-3.809 2.438A11.523 11.523 0 0 0 .985 7.477a10.187 10.187 0 0 0-.937 4.335c0 1.54.312 2.985.937 4.344a11.438 11.438 0 0 0 2.59 3.586 12.307 12.307 0 0 0 3.809 2.438c1.445.59 2.984.883 4.617.883ZM9.059 14.48a16.299 16.299 0 0 1-1.875-2.082 9.364 9.364 0 0 1-1.23-2.175c-.274-.72-.372-1.403-.294-2.051.078-.645.383-1.223.914-1.73l.059-.055a.301.301 0 0 1 .105-.067c.266-.191.524-.328.774-.41.25-.078.48-.09.691-.031.219.05.414.187.586.406l1.488 1.988c.25.329.352.618.305.86-.039.234-.195.488-.469.762l-.468.46a.334.334 0 0 0-.106.254c.012.082.04.16.082.235.117.191.313.441.586.758a14.294 14.294 0 0 0 1.898 1.8c.329.25.598.434.81.551.085.043.179.07.28.074.11 0 .2-.027.27-.086l.469-.453c.273-.258.539-.402.796-.441.258-.043.567.05.926.289.524.336 1.04.684 1.547 1.035.211.133.41.262.598.387.351.25.508.547.469.894-.04.344-.196.664-.47.957l-.093.114c-.031.035-.066.07-.105.109-.532.5-1.141.785-1.829.86-.687.066-1.414-.028-2.18-.29-.82-.289-1.593-.68-2.308-1.156A17.403 17.403 0 0 1 9.06 14.48Zm0 0"/></svg>