<?xml version="1.0" encoding="UTF-8"?>
<svg xmlns="http://www.w3.org/2000/svg" xmlns:xlink="http://www.w3.org/1999/xlink" width="24" height="25.5" viewBox="0 0 24 25.5" version="1.1">
<g id="surface1">
<path style=" stroke:none;fill-rule:nonzero;fill:rgb(100%,100%,100%);fill-opacity:1;" d="M 12 24.503906 C 13.632812 24.503906 15.167969 24.191406 16.605469 23.566406 C 18.050781 22.941406 19.324219 22.078125 20.425781 20.976562 C 21.527344 19.875 22.390625 18.605469 23.015625 17.167969 C 23.640625 15.722656 23.953125 14.183594 23.953125 12.550781 C 23.953125 10.917969 23.640625 9.382812 23.015625 7.945312 C 22.390625 6.5 21.527344 5.226562 20.425781 4.125 C 19.324219 3.023438 18.050781 2.160156 16.605469 1.535156 C 15.160156 0.910156 13.621094 0.597656 11.988281 0.597656 C 10.355469 0.597656 8.816406 0.910156 7.371094 1.535156 C 5.933594 2.160156 4.664062 3.023438 3.5625 4.125 C 2.46875 5.226562 1.609375 6.5 0.984375 7.945312 C 0.359375 9.382812 0.046875 10.917969 0.046875 12.550781 C 0.046875 14.183594 0.359375 15.722656 0.984375 17.167969 C 1.609375 18.605469 2.472656 19.875 3.574219 20.976562 C 4.675781 22.078125 5.945312 22.941406 7.382812 23.566406 C 8.828125 24.191406 10.367188 24.503906 12 24.503906 Z M 9.058594 15.386719 C 8.355469 14.683594 7.730469 13.945312 7.183594 13.171875 C 6.644531 12.398438 6.234375 11.628906 5.953125 10.863281 C 5.679688 10.097656 5.582031 9.371094 5.660156 8.683594 C 5.738281 7.996094 6.042969 7.382812 6.574219 6.84375 C 6.589844 6.828125 6.609375 6.808594 6.632812 6.785156 C 6.664062 6.753906 6.699219 6.730469 6.738281 6.714844 C 7.003906 6.511719 7.261719 6.367188 7.511719 6.28125 C 7.761719 6.195312 7.992188 6.183594 8.203125 6.246094 C 8.421875 6.300781 8.617188 6.445312 8.789062 6.679688 L 10.277344 8.789062 C 10.527344 9.140625 10.628906 9.445312 10.582031 9.703125 C 10.542969 9.953125 10.386719 10.222656 10.113281 10.511719 L 9.644531 11.003906 C 9.566406 11.089844 9.53125 11.179688 9.539062 11.273438 C 9.554688 11.367188 9.582031 11.449219 9.621094 11.519531 C 9.738281 11.722656 9.933594 11.992188 10.207031 12.328125 C 10.480469 12.664062 10.78125 12.996094 11.109375 13.324219 C 11.453125 13.667969 11.785156 13.972656 12.105469 14.238281 C 12.433594 14.503906 12.703125 14.699219 12.914062 14.824219 C 13 14.871094 13.09375 14.898438 13.195312 14.90625 C 13.304688 14.90625 13.394531 14.875 13.464844 14.8125 L 13.933594 14.332031 C 14.207031 14.058594 14.472656 13.902344 14.730469 13.863281 C 14.988281 13.816406 15.296875 13.917969 15.65625 14.167969 C 15.984375 14.394531 16.273438 14.597656 16.523438 14.777344 C 16.773438 14.957031 17 15.121094 17.203125 15.269531 C 17.414062 15.410156 17.613281 15.546875 17.800781 15.679688 C 18.152344 15.945312 18.308594 16.261719 18.269531 16.628906 C 18.230469 16.996094 18.074219 17.335938 17.800781 17.648438 C 17.769531 17.6875 17.738281 17.726562 17.707031 17.765625 C 17.675781 17.804688 17.640625 17.84375 17.601562 17.882812 C 17.070312 18.414062 16.460938 18.71875 15.773438 18.796875 C 15.085938 18.867188 14.359375 18.765625 13.59375 18.492188 C 12.828125 18.210938 12.058594 17.800781 11.285156 17.261719 C 10.511719 16.714844 9.769531 16.089844 9.058594 15.386719 Z M 9.058594 15.386719 "/>
</g>
</svg>
