<?xml version="1.0" encoding="UTF-8"?>
<svg xmlns="http://www.w3.org/2000/svg" xmlns:xlink="http://www.w3.org/1999/xlink" width="24" height="20.4" viewBox="0 0 24 20.4" version="1.1">
<g id="surface1">
<path style=" stroke:none;fill-rule:nonzero;fill:rgb(100%,100%,100%);fill-opacity:1;" d="M 22.640625 13.695312 L 17.0625 8.464844 C 16.855469 8.273438 16.632812 8.128906 16.386719 8.035156 C 16.148438 7.941406 15.902344 7.894531 15.648438 7.894531 C 15.390625 7.894531 15.144531 7.941406 14.90625 8.035156 C 14.675781 8.121094 14.453125 8.261719 14.242188 8.457031 L 9.421875 12.757812 L 9.835938 12.757812 L 7.519531 10.667969 C 7.324219 10.492188 7.121094 10.363281 6.910156 10.273438 C 6.695312 10.179688 6.480469 10.132812 6.261719 10.132812 C 6.050781 10.132812 5.839844 10.179688 5.632812 10.265625 C 5.433594 10.351562 5.242188 10.484375 5.054688 10.660156 L 1.472656 13.894531 C 1.472656 14.519531 1.59375 14.992188 1.835938 15.308594 C 2.082031 15.628906 2.445312 15.789062 2.925781 15.789062 L 20.773438 15.789062 C 21.375 15.789062 21.835938 15.605469 22.152344 15.242188 C 22.476562 14.882812 22.640625 14.367188 22.640625 13.695312 Z M 7.921875 8.578125 C 8.320312 8.578125 8.6875 8.476562 9.019531 8.277344 C 9.351562 8.078125 9.617188 7.808594 9.816406 7.472656 C 10.015625 7.132812 10.117188 6.757812 10.117188 6.347656 C 10.117188 5.945312 10.015625 5.582031 9.816406 5.25 C 9.617188 4.914062 9.351562 4.644531 9.019531 4.445312 C 8.6875 4.242188 8.320312 4.144531 7.921875 4.144531 C 7.515625 4.144531 7.144531 4.242188 6.804688 4.445312 C 6.46875 4.644531 6.199219 4.914062 6 5.25 C 5.800781 5.582031 5.699219 5.945312 5.699219 6.347656 C 5.699219 6.757812 5.800781 7.132812 6 7.472656 C 6.199219 7.808594 6.46875 8.078125 6.804688 8.277344 C 7.144531 8.476562 7.515625 8.578125 7.921875 8.578125 Z M 2.691406 16.546875 L 21.308594 16.546875 C 22.101562 16.546875 22.703125 16.34375 23.109375 15.9375 C 23.515625 15.53125 23.71875 14.929688 23.71875 14.136719 L 23.71875 3.394531 C 23.71875 2.605469 23.515625 2.007812 23.109375 1.601562 C 22.703125 1.195312 22.101562 0.992188 21.308594 0.992188 L 2.691406 0.992188 C 1.898438 0.992188 1.296875 1.195312 0.890625 1.601562 C 0.484375 2.007812 0.28125 2.605469 0.28125 3.394531 L 0.28125 14.136719 C 0.28125 14.929688 0.484375 15.53125 0.890625 15.9375 C 1.296875 16.34375 1.898438 16.546875 2.691406 16.546875 Z M 2.71875 15.039062 C 2.414062 15.039062 2.179688 14.960938 2.023438 14.8125 C 1.867188 14.65625 1.789062 14.425781 1.789062 14.117188 L 1.789062 3.421875 C 1.789062 3.117188 1.867188 2.886719 2.023438 2.738281 C 2.179688 2.582031 2.414062 2.503906 2.71875 2.503906 L 21.28125 2.503906 C 21.59375 2.503906 21.824219 2.582031 21.976562 2.738281 C 22.132812 2.886719 22.210938 3.117188 22.210938 3.421875 L 22.210938 14.117188 C 22.210938 14.425781 22.132812 14.65625 21.976562 14.8125 C 21.824219 14.960938 21.59375 15.039062 21.28125 15.039062 Z M 7.285156 19.726562 L 16.714844 19.726562 C 16.921875 19.726562 17.101562 19.648438 17.25 19.5 C 17.398438 19.355469 17.476562 19.179688 17.476562 18.964844 C 17.476562 18.757812 17.398438 18.582031 17.25 18.429688 C 17.101562 18.28125 16.921875 18.207031 16.714844 18.207031 L 7.285156 18.207031 C 7.078125 18.207031 6.898438 18.28125 6.75 18.429688 C 6.601562 18.582031 6.523438 18.757812 6.523438 18.964844 C 6.523438 19.179688 6.601562 19.355469 6.75 19.5 C 6.898438 19.648438 7.078125 19.726562 7.285156 19.726562 Z M 7.285156 19.726562 "/>
</g>
</svg>
