<svg xmlns="http://www.w3.org/2000/svg" width="24" height="24"><path style="stroke:none;fill-rule:nonzero;fill:#fff;fill-opacity:1" d="M4.5 23.707h15.012c.976 0 1.722-.25 2.226-.75.508-.492.762-1.227.762-2.207v-.719l-5.2-4.918a2.114 2.114 0 0 0-.718-.445 2.165 2.165 0 0 0-.8-.156c-.278 0-.544.047-.794.144-.242.09-.48.239-.718.45l-4.532 4-1.812-1.618a2.243 2.243 0 0 0-.656-.437 1.707 1.707 0 0 0-.696-.145c-.222 0-.441.047-.656.145-.211.097-.422.242-.637.43L1.5 20.75c0 .98.254 1.715.762 2.207.511.5 1.258.75 2.238.75Zm4.426-8.344c.437 0 .84-.105 1.199-.32.355-.219.648-.52.863-.875.215-.371.325-.77.325-1.2 0-.429-.11-.827-.325-1.187a2.469 2.469 0 0 0-.863-.863 2.314 2.314 0 0 0-1.2-.324c-.437 0-.835.11-1.195.324-.359.21-.656.508-.867.863-.207.36-.312.758-.312 1.188 0 .43.105.828.312 1.199.215.36.504.652.867.875.36.215.758.32 1.196.32ZM4.356 24h15.28c1.083 0 1.9-.27 2.446-.813.55-.542.824-1.347.824-2.417V10.074c0-1.07-.273-1.875-.824-2.418-.547-.543-1.363-.812-2.445-.812H4.355c-1.09 0-1.91.27-2.46.812-.54.535-.813 1.34-.813 2.418V20.77c0 1.078.273 1.882.813 2.418.55.542 1.37.812 2.46.812Zm.019-1.676c-.52 0-.922-.14-1.2-.418-.277-.277-.413-.687-.413-1.23V10.168c0-.543.136-.953.414-1.23.277-.278.68-.418 1.199-.418h15.23c.512 0 .91.14 1.196.418.285.277.43.687.43 1.23v10.508c0 .543-.145.953-.43 1.23-.285.278-.684.418-1.196.418ZM3.281 5.168H20.72c-.082-.473-.25-.836-.5-1.086-.242-.254-.625-.383-1.145-.383H4.926c-.52 0-.906.13-1.156.383-.25.25-.41.613-.489 1.086Zm2.145-2.887h13.148c-.035-.445-.183-.777-.437-1-.25-.23-.617-.343-1.094-.343H6.949c-.48 0-.847.113-1.105.343-.25.223-.39.555-.418 1Zm0 0"/></svg>