<svg width="21" height="18" viewBox="0 0 21 18" fill="none" xmlns="http://www.w3.org/2000/svg">
<path d="M7.85938 16.8594H18.3203C18.9974 16.8594 19.513 16.6875 19.8672 16.3438C20.2214 16 20.3984 15.487 20.3984 14.8047V14.3047L16.7812 10.8828C16.6302 10.7422 16.4635 10.638 16.2812 10.5703C16.099 10.4974 15.9115 10.4609 15.7188 10.4609C15.526 10.4609 15.3438 10.4948 15.1719 10.5625C15 10.625 14.8307 10.7292 14.6641 10.875L11.5078 13.6719L10.2578 12.5391C10.1068 12.3984 9.95052 12.2969 9.78906 12.2344C9.63281 12.1719 9.47135 12.1406 9.30469 12.1406C9.15365 12.1406 9.0026 12.1745 8.85156 12.2422C8.70573 12.3047 8.55729 12.3984 8.40625 12.5234L5.77344 14.8125C5.77344 15.4896 5.95052 16 6.30469 16.3438C6.65885 16.6875 7.17708 16.8594 7.85938 16.8594ZM10.9453 11.0547C11.4036 11.0547 11.7943 10.8906 12.1172 10.5625C12.4401 10.2344 12.6016 9.84115 12.6016 9.38281C12.6016 9.08594 12.526 8.8125 12.375 8.5625C12.2292 8.30729 12.0312 8.10417 11.7812 7.95312C11.5312 7.80208 11.2526 7.72656 10.9453 7.72656C10.4922 7.72656 10.1042 7.89062 9.78125 8.21875C9.45833 8.54688 9.29688 8.9349 9.29688 9.38281C9.29688 9.84115 9.45833 10.2344 9.78125 10.5625C10.1042 10.8906 10.4922 11.0547 10.9453 11.0547ZM2.38281 12.8516C2.52865 13.6432 2.83594 14.2031 3.30469 14.5312C3.77344 14.8542 4.41146 14.9453 5.21875 14.8047L6.1875 14.6406V13.3672L5.02344 13.5625C4.63802 13.6302 4.32292 13.5807 4.07812 13.4141C3.83854 13.2474 3.68229 12.9661 3.60938 12.5703L2.35156 5.44531C2.27865 5.04427 2.32812 4.72396 2.5 4.48438C2.67188 4.23958 2.95052 4.08333 3.33594 4.01562L13.7188 2.1875C14.099 2.125 14.4115 2.17708 14.6562 2.34375C14.901 2.50521 15.0599 2.78646 15.1328 3.1875L15.5391 5.46094H16.8125L16.3516 2.90625C16.2109 2.11458 15.9036 1.55469 15.4297 1.22656C14.9609 0.898438 14.3255 0.804688 13.5234 0.945312L3.09375 2.78125C2.29167 2.92708 1.72396 3.23438 1.39062 3.70312C1.05729 4.17188 0.960938 4.80208 1.10156 5.59375L2.38281 12.8516ZM7.83594 17.2734H18.5078C19.3203 17.2734 19.9297 17.0703 20.3359 16.6641C20.7474 16.263 20.9531 15.6589 20.9531 14.8516V7.48438C20.9531 6.68229 20.7474 6.07812 20.3359 5.67188C19.9297 5.26562 19.3203 5.0625 18.5078 5.0625H7.83594C7.01302 5.0625 6.39844 5.26562 5.99219 5.67188C5.58594 6.07292 5.38281 6.67708 5.38281 7.48438V14.8516C5.38281 15.6589 5.58594 16.263 5.99219 16.6641C6.39844 17.0703 7.01302 17.2734 7.83594 17.2734ZM7.85156 16.0156C7.46094 16.0156 7.16146 15.9115 6.95312 15.7031C6.74479 15.5 6.64062 15.1953 6.64062 14.7891V7.55469C6.64062 7.14844 6.74479 6.84115 6.95312 6.63281C7.16146 6.42448 7.46094 6.32031 7.85156 6.32031H18.4844C18.8698 6.32031 19.1667 6.42448 19.375 6.63281C19.5885 6.84115 19.6953 7.14844 19.6953 7.55469V14.7891C19.6953 15.1953 19.5885 15.5 19.375 15.7031C19.1667 15.9115 18.8698 16.0156 18.4844 16.0156H7.85156Z" fill="white"/>
</svg>
