<svg xmlns="http://www.w3.org/2000/svg" width="24" height="24"><path style="stroke:none;fill-rule:nonzero;fill:#fff;fill-opacity:1" d="M3.91 21.285c-.45 0-.808-.172-1.07-.508-.254-.351-.383-.828-.383-1.437v-.766l2.879-3.351c.203-.239.418-.422.637-.547.218-.125.43-.184.636-.184.489 0 .938.246 1.352.758l1.789 2.148 4.48-5.3c.457-.532.961-.797 1.512-.797a1.6 1.6 0 0 1 .766.199c.265.133.504.336.722.613l4.313 5.325v1.925c0 .598-.129 1.067-.395 1.41-.253.34-.605.512-1.046.512Zm4.067-9.183a1.82 1.82 0 0 1-1.16-.415 3 3 0 0 1-.844-1.124 3.805 3.805 0 0 1-.309-1.551c0-.563.102-1.086.309-1.547a2.94 2.94 0 0 1 .843-1.117 1.807 1.807 0 0 1 1.16-.422c.422 0 .805.14 1.157.422.347.277.625.648.832 1.117.215.46.32.984.32 1.547 0 .566-.105 1.082-.32 1.55-.203.461-.488.848-.832 1.126-.352.273-.75.417-1.156.41ZM3.89 23.285h16.218c.989 0 1.727-.32 2.211-.973.489-.64.735-1.605.735-2.886V4.152c0-1.289-.246-2.25-.735-2.902-.484-.652-1.222-.973-2.21-.973H3.89c-.98 0-1.718.32-2.21.973-.489.64-.735 1.61-.735 2.902v15.274c0 1.281.246 2.246.735 2.887.492.652 1.23.972 2.21.972Zm0 0"/></svg>