<svg xmlns="http://www.w3.org/2000/svg" width="24" height="24"><path style="stroke:none;fill-rule:nonzero;fill:#fff;fill-opacity:1" d="M8.98 22.48h11.957c.774 0 1.364-.23 1.77-.687.402-.461.605-1.14.605-2.055v-.664l-4.132-4.562a1.6 1.6 0 0 0-.575-.414 1.48 1.48 0 0 0-.64-.149c-.223 0-.43.043-.625.133-.195.086-.39.223-.582.422l-3.606 3.726-1.43-1.507a1.749 1.749 0 0 0-.534-.414 1.364 1.364 0 0 0-.555-.122c-.172 0-.344.047-.516.137a2.076 2.076 0 0 0-.512.375l-3.007 3.055c0 .898.203 1.578.609 2.039.402.457.996.687 1.773.687Zm3.528-7.742c.523 0 .972-.218 1.34-.656.37-.437.554-.96.554-1.57a2.34 2.34 0 0 0-.257-1.094 2.076 2.076 0 0 0-.68-.813 1.625 1.625 0 0 0-.957-.3c-.516 0-.961.218-1.328.656-.36.406-.559.965-.555 1.55 0 .61.184 1.134.555 1.571.367.438.812.656 1.328.656Zm-9.785 2.399c.168 1.058.52 1.797 1.054 2.234.535.438 1.266.559 2.188.367l1.105-.218v-1.696l-1.328.258c-.441.094-.8.023-1.082-.195-.273-.223-.453-.598-.535-1.125l-1.438-9.5c-.082-.535-.027-.965.168-1.282.2-.328.516-.535.958-.625L15.68 2.918c.433-.082.789-.016 1.07.207.281.215.46.59.543 1.129l.465 3.027h1.457l-.527-3.406c-.16-1.055-.512-1.8-1.055-2.238-.535-.438-1.262-.567-2.176-.375L3.535 3.71c-.918.191-1.566.602-1.945 1.223-.383.632-.492 1.468-.332 2.527Zm6.234 5.894h12.195c.93 0 1.625-.27 2.09-.812.469-.535.703-1.34.703-2.418V9.98c0-1.07-.234-1.88-.703-2.422-.465-.536-1.16-.809-2.09-.809H8.957c-.941 0-1.645.273-2.11.809-.464.539-.695 1.347-.695 2.421v9.82c0 1.079.23 1.884.696 2.419.465.543 1.168.816 2.109.816Zm.016-1.676c-.446 0-.79-.14-1.028-.418-.238-.269-.355-.675-.355-1.218V10.07c0-.539.117-.945.355-1.222.239-.282.582-.422 1.028-.422h12.152c.441 0 .781.14 1.02.422.242.277.363.683.363 1.222v9.649c0 .543-.121.949-.363 1.218-.239.278-.579.418-1.02.418Zm0 0"/></svg>