<svg width="149" height="127" viewBox="0 0 149 127" fill="none" xmlns="http://www.w3.org/2000/svg">
<path d="M73.5625 66.9375L93.1875 47.3125C97.0625 43.4375 99.6667 39.2917 101 34.875C102.375 30.4167 102.458 26.0208 101.25 21.6875C100.083 17.3125 97.6458 13.2708 93.9375 9.5625C90.1875 5.85417 86.125 3.41667 81.75 2.25C77.375 1.04167 72.9792 1.125 68.5625 2.5C64.1875 3.83333 60.0625 6.4375 56.1875 10.3125L36.5625 29.9375L73.5625 66.9375ZM67 73.5625L29.9375 36.5L10.3125 56.1875C6.39583 60.0625 3.77083 64.2292 2.4375 68.6875C1.10417 73.1042 1.02083 77.5 2.1875 81.875C3.39583 86.25 5.85417 90.2708 9.5625 93.9375C13.3125 97.6458 17.375 100.104 21.75 101.312C26.125 102.479 30.5 102.396 34.875 101.062C39.2917 99.6875 43.4375 97.0833 47.3125 93.25L67 73.5625ZM148.625 89.625C147.875 84.3333 145.979 79.5625 142.938 75.3125C139.896 71.0625 136.062 67.6875 131.438 65.1875C126.812 62.6875 121.729 61.4375 116.188 61.4375C110.688 61.4375 105.604 62.6875 100.938 65.1875C96.3125 67.6875 92.4792 71.0625 89.4375 75.3125C86.3958 79.5625 84.5208 84.3333 83.8125 89.625H148.625ZM148.625 98.75H83.8125C84.5625 104.042 86.4375 108.812 89.4375 113.062C92.4792 117.354 96.3125 120.75 100.938 123.25C105.562 125.75 110.646 127 116.188 127C121.729 127 126.812 125.75 131.438 123.25C136.104 120.75 139.938 117.375 142.938 113.125C145.979 108.875 147.875 104.083 148.625 98.75Z" fill="white"/>
</svg>
