<svg width="128" height="128" viewBox="0 0 128 128" fill="none" xmlns="http://www.w3.org/2000/svg">
<path d="M63.9375 127.688C72.6458 127.688 80.8333 126.021 88.5 122.688C96.2083 119.354 103 114.75 108.875 108.875C114.75 103 119.354 96.2292 122.688 88.5625C126.021 80.8542 127.688 72.6458 127.688 63.9375C127.688 55.2292 126.021 47.0417 122.688 39.375C119.354 31.6667 114.75 24.875 108.875 19C103 13.125 96.2083 8.52083 88.5 5.1875C80.7917 1.85417 72.5833 0.1875 63.875 0.1875C55.1667 0.1875 46.9583 1.85417 39.25 5.1875C31.5833 8.52083 24.8125 13.125 18.9375 19C13.1042 24.875 8.52083 31.6667 5.1875 39.375C1.85417 47.0417 0.1875 55.2292 0.1875 63.9375C0.1875 72.6458 1.85417 80.8542 5.1875 88.5625C8.52083 96.2292 13.125 103 19 108.875C24.875 114.75 31.6458 119.354 39.3125 122.688C47.0208 126.021 55.2292 127.688 63.9375 127.688ZM63.0625 64.375L43.1875 44.4375L53.625 34C56.7083 30.875 60.1042 29.2917 63.8125 29.25C67.5208 29.1667 70.8958 30.6458 73.9375 33.6875C76.9375 36.6042 78.4167 39.9375 78.375 43.6875C78.3333 47.4375 76.75 50.8542 73.625 53.9375L63.0625 64.375ZM59.375 68.125L48.8125 78.6875C45.6875 81.7708 42.2708 83.3542 38.5625 83.4375C34.8958 83.5208 31.5417 82.0833 28.5 79.125C25.5417 76.125 24.1042 72.7708 24.1875 69.0625C24.2708 65.3125 25.875 61.875 29 58.75L39.4375 48.1875L59.375 68.125ZM101.562 76.5625H66.6875C67.1042 73.7708 68.125 71.25 69.75 69C71.375 66.7083 73.4167 64.8958 75.875 63.5625C78.375 62.2292 81.1042 61.5625 84.0625 61.5625C87.0625 61.5625 89.8125 62.2292 92.3125 63.5625C94.8125 64.8958 96.875 66.7083 98.5 69C100.167 71.25 101.188 73.7708 101.562 76.5625ZM101.562 81.8125C101.188 84.6042 100.167 87.125 98.5 89.375C96.875 91.625 94.8125 93.4167 92.3125 94.75C89.8125 96.0833 87.0625 96.75 84.0625 96.75C81.1042 96.75 78.375 96.0833 75.875 94.75C73.4167 93.4167 71.375 91.625 69.75 89.375C68.125 87.125 67.1042 84.6042 66.6875 81.8125H101.562Z" fill="white"/>
</svg>
