<svg width="124" height="125" viewBox="0 0 124 125" fill="none" xmlns="http://www.w3.org/2000/svg">
<path d="M10.125 114.812C13.4583 118.104 17.0417 120.562 20.875 122.188C24.75 123.854 28.7292 124.646 32.8125 124.562C36.9375 124.521 41.0208 123.562 45.0625 121.688C49.1042 119.854 52.9583 117.104 56.625 113.438L112.812 57.25C116.479 53.5833 119.229 49.75 121.062 45.75C122.896 41.7083 123.833 37.6458 123.875 33.5625C123.958 29.4375 123.167 25.4375 121.5 21.5625C119.875 17.6875 117.417 14.1042 114.125 10.8125C110.833 7.52083 107.25 5.0625 103.375 3.4375C99.5 1.77083 95.5 0.979167 91.375 1.0625C87.2917 1.14583 83.2292 2.10417 79.1875 3.9375C75.1458 5.77083 71.3125 8.52083 67.6875 12.1875L11.5 68.3125C7.83333 71.9792 5.08333 75.8333 3.25 79.875C1.41667 83.9167 0.458333 88 0.375 92.125C0.291667 96.2083 1.0625 100.188 2.6875 104.062C4.35417 107.938 6.83333 111.521 10.125 114.812ZM16.75 108.25C13.625 105.125 11.6458 101.688 10.8125 97.9375C9.97917 94.1458 10.2292 90.3125 11.5625 86.4375C12.9375 82.5208 15.3125 78.8542 18.6875 75.4375L74.75 19.375C78.125 15.9583 81.75 13.5833 85.625 12.25C89.5 10.9167 93.3333 10.6667 97.125 11.5C100.917 12.3333 104.396 14.3125 107.562 17.4375C110.688 20.5208 112.667 23.9583 113.5 27.75C114.375 31.5417 114.125 35.3958 112.75 39.3125C111.417 43.1875 109.021 46.8333 105.562 50.25L49.5625 106.312C46.1875 109.688 42.5625 112.042 38.6875 113.375C34.8125 114.75 30.9583 115.021 27.125 114.188C23.3333 113.354 19.875 111.375 16.75 108.25ZM40.4375 47.75L77.375 84.6875L84.0625 78L47.0625 41.0625L40.4375 47.75Z" fill="white"/>
</svg>
