<?xml version="1.0" encoding="UTF-8"?>
<svg xmlns="http://www.w3.org/2000/svg" xmlns:xlink="http://www.w3.org/1999/xlink" width="24" height="20.4" viewBox="0 0 24 20.4" version="1.1">
<g id="surface1">
<path style=" stroke:none;fill-rule:nonzero;fill:rgb(100%,100%,100%);fill-opacity:1;" d="M 11.785156 10.640625 L 14.726562 7.695312 C 15.308594 7.117188 15.699219 6.492188 15.898438 5.832031 C 16.105469 5.164062 16.117188 4.503906 15.9375 3.851562 C 15.761719 3.195312 15.398438 2.589844 14.839844 2.035156 C 14.277344 1.476562 13.667969 1.113281 13.011719 0.9375 C 12.355469 0.757812 11.695312 0.769531 11.035156 0.976562 C 10.378906 1.175781 9.757812 1.566406 9.179688 2.148438 L 6.234375 5.089844 Z M 10.800781 11.632812 L 5.242188 6.074219 L 2.296875 9.027344 C 1.710938 9.609375 1.316406 10.234375 1.117188 10.902344 C 0.914062 11.566406 0.902344 12.226562 1.078125 12.882812 C 1.257812 13.539062 1.628906 14.140625 2.183594 14.691406 C 2.746094 15.246094 3.355469 15.617188 4.011719 15.796875 C 4.667969 15.972656 5.324219 15.960938 5.980469 15.757812 C 6.644531 15.554688 7.265625 15.164062 7.847656 14.585938 Z M 23.042969 14.042969 C 22.929688 13.25 22.648438 12.535156 22.191406 11.898438 C 21.734375 11.257812 21.160156 10.753906 20.464844 10.378906 C 19.773438 10.003906 19.007812 9.816406 18.179688 9.816406 C 17.351562 9.816406 16.589844 10.003906 15.890625 10.378906 C 15.195312 10.753906 14.621094 11.257812 14.164062 11.898438 C 13.710938 12.535156 13.429688 13.25 13.320312 14.042969 Z M 23.042969 15.414062 L 13.320312 15.414062 C 13.433594 16.207031 13.714844 16.921875 14.164062 17.558594 C 14.621094 18.203125 15.195312 18.710938 15.890625 19.085938 C 16.585938 19.460938 17.347656 19.648438 18.179688 19.648438 C 19.007812 19.648438 19.773438 19.460938 20.464844 19.085938 C 21.164062 18.710938 21.742188 18.207031 22.191406 17.570312 C 22.648438 16.929688 22.929688 16.210938 23.042969 15.414062 Z M 23.042969 15.414062 "/>
</g>
</svg>
