<svg width="16" height="17" viewBox="0 0 16 17" fill="none" xmlns="http://www.w3.org/2000/svg">
<path d="M8 16.3359C9.08854 16.3359 10.112 16.1276 11.0703 15.7109C12.0339 15.2943 12.8828 14.7188 13.6172 13.9844C14.3516 13.25 14.9271 12.4036 15.3438 11.4453C15.7604 10.4818 15.9688 9.45573 15.9688 8.36719C15.9688 7.27865 15.7604 6.25521 15.3438 5.29688C14.9271 4.33333 14.3516 3.48438 13.6172 2.75C12.8828 2.01562 12.0339 1.4401 11.0703 1.02344C10.1068 0.606771 9.08073 0.398438 7.99219 0.398438C6.90365 0.398438 5.8776 0.606771 4.91406 1.02344C3.95573 1.4401 3.10938 2.01562 2.375 2.75C1.64583 3.48438 1.07292 4.33333 0.65625 5.29688C0.239583 6.25521 0.03125 7.27865 0.03125 8.36719C0.03125 9.45573 0.239583 10.4818 0.65625 11.4453C1.07292 12.4036 1.64844 13.25 2.38281 13.9844C3.11719 14.7188 3.96354 15.2943 4.92188 15.7109C5.88542 16.1276 6.91146 16.3359 8 16.3359ZM11.4609 4.90625C11.9297 5.35417 12.1589 5.86198 12.1484 6.42969C12.1432 6.9974 11.8984 7.52083 11.4141 8L9.75 9.65625L6.70312 6.60156L8.35938 4.94531C8.83333 4.46615 9.35156 4.22656 9.91406 4.22656C10.4818 4.22135 10.9974 4.44792 11.4609 4.90625ZM4.52344 11.8438C4.0651 11.3906 3.84115 10.8802 3.85156 10.3125C3.86198 9.74479 4.10677 9.21875 4.58594 8.73438L6.24219 7.07031L9.28906 10.1172L7.63281 11.7734C7.15885 12.2526 6.63802 12.4974 6.07031 12.5078C5.5026 12.5182 4.98698 12.2969 4.52344 11.8438Z" fill="white"/>
</svg>
