<svg width="16" height="15" viewBox="0 0 16 15" fill="none" xmlns="http://www.w3.org/2000/svg">
<path d="M3.25781 14.5625H12.7344C13.5521 14.5625 14.1641 14.3594 14.5703 13.9531C14.9818 13.5521 15.1875 12.9479 15.1875 12.1406V2.60156C15.1875 1.79427 14.9818 1.1901 14.5703 0.789062C14.1641 0.382812 13.5521 0.179688 12.7344 0.179688H3.25781C2.4401 0.179688 1.82552 0.382812 1.41406 0.789062C1.00781 1.1901 0.804688 1.79427 0.804688 2.60156V12.1406C0.804688 12.9479 1.00781 13.5521 1.41406 13.9531C1.82552 14.3594 2.4401 14.5625 3.25781 14.5625ZM4.83594 8.875C4.83594 8.44792 4.9974 8.02865 5.32031 7.61719C5.64844 7.20052 6.10156 6.89062 6.67969 6.6875L6.8125 4.80469C6.52083 4.63802 6.26042 4.46875 6.03125 4.29688C5.80729 4.11979 5.64062 3.96354 5.53125 3.82812C5.41146 3.67188 5.35156 3.52865 5.35156 3.39844C5.35156 3.27344 5.39583 3.16927 5.48438 3.08594C5.57292 3.0026 5.6901 2.96094 5.83594 2.96094H10.1797C10.3255 2.96094 10.4427 3.0026 10.5312 3.08594C10.6198 3.16927 10.6641 3.27344 10.6641 3.39844C10.6641 3.52865 10.6094 3.66927 10.5 3.82031C10.3906 3.95573 10.2214 4.11198 9.99219 4.28906C9.76302 4.46615 9.5026 4.63802 9.21094 4.80469L9.34375 6.6875C9.91667 6.89062 10.3646 7.20052 10.6875 7.61719C11.0156 8.02865 11.1797 8.44792 11.1797 8.875C11.1797 9.05208 11.125 9.19271 11.0156 9.29688C10.9115 9.40104 10.7682 9.45312 10.5859 9.45312H8.50781V10.8906C8.50781 11.1823 8.47656 11.4505 8.41406 11.6953C8.35156 11.9349 8.28125 12.1276 8.20312 12.2734C8.125 12.4193 8.0599 12.4922 8.00781 12.4922C7.95573 12.4922 7.89062 12.4193 7.8125 12.2734C7.73438 12.1276 7.66406 11.9349 7.60156 11.6953C7.53906 11.4505 7.50781 11.1823 7.50781 10.8906V9.45312H5.42969C5.2474 9.45312 5.10156 9.40104 4.99219 9.29688C4.88802 9.19271 4.83594 9.05208 4.83594 8.875Z" fill="white"/>
</svg>
