<?xml version="1.0" encoding="UTF-8"?>
<svg xmlns="http://www.w3.org/2000/svg" xmlns:xlink="http://www.w3.org/1999/xlink" width="24" height="32.571429" viewBox="0 0 24 32.571429" version="1.1">
<g id="surface1">
<path style=" stroke:none;fill-rule:nonzero;fill:rgb(100%,100%,100%);fill-opacity:1;" d="M 12 32.074219 C 12.082031 32.074219 12.183594 31.976562 12.308594 31.78125 C 12.441406 31.585938 12.574219 31.3125 12.710938 30.964844 C 12.84375 30.625 12.957031 30.226562 13.042969 29.773438 C 13.132812 29.316406 13.179688 28.835938 13.179688 28.324219 L 13.179688 20.972656 L 10.808594 20.972656 L 10.808594 28.324219 C 10.808594 28.835938 10.851562 29.316406 10.941406 29.773438 C 11.03125 30.226562 11.144531 30.625 11.277344 30.964844 C 11.410156 31.3125 11.539062 31.585938 11.664062 31.78125 C 11.800781 31.976562 11.910156 32.074219 12 32.074219 Z M 3.5625 22.070312 L 20.425781 22.070312 C 21.03125 22.070312 21.507812 21.902344 21.855469 21.5625 C 22.214844 21.214844 22.394531 20.753906 22.394531 20.183594 C 22.394531 19.199219 22.132812 18.242188 21.617188 17.304688 C 21.105469 16.355469 20.382812 15.507812 19.445312 14.757812 C 18.507812 14 17.40625 13.398438 16.136719 12.949219 C 14.878906 12.496094 13.5 12.269531 12 12.269531 C 10.5 12.269531 9.117188 12.496094 7.847656 12.949219 C 6.582031 13.398438 5.476562 14 4.539062 14.757812 C 3.613281 15.507812 2.886719 16.355469 2.371094 17.304688 C 1.851562 18.242188 1.59375 19.199219 1.59375 20.183594 C 1.59375 20.753906 1.773438 21.214844 2.128906 21.5625 C 2.488281 21.902344 2.964844 22.070312 3.5625 22.070312 Z M 4.097656 20.050781 C 3.785156 20.050781 3.65625 19.871094 3.710938 19.511719 C 3.78125 18.914062 4.023438 18.308594 4.433594 17.691406 C 4.84375 17.066406 5.40625 16.496094 6.121094 15.976562 C 6.835938 15.449219 7.683594 15.027344 8.664062 14.707031 C 9.65625 14.382812 10.769531 14.222656 12 14.222656 C 13.222656 14.222656 14.324219 14.382812 15.308594 14.707031 C 16.300781 15.027344 17.152344 15.449219 17.867188 15.976562 C 18.582031 16.496094 19.144531 17.066406 19.554688 17.691406 C 19.964844 18.308594 20.207031 18.914062 20.277344 19.511719 C 20.332031 19.871094 20.199219 20.050781 19.886719 20.050781 Z M 3.292969 2.277344 C 3.292969 2.707031 3.464844 3.136719 3.804688 3.574219 C 4.027344 3.878906 4.34375 4.214844 4.753906 4.582031 C 5.175781 4.945312 5.644531 5.324219 6.160156 5.71875 C 6.6875 6.101562 7.230469 6.480469 7.792969 6.855469 L 7.300781 13.929688 L 9.441406 13.929688 L 9.9375 5.867188 C 9.945312 5.707031 9.898438 5.597656 9.789062 5.542969 C 9.289062 5.285156 8.820312 5.023438 8.382812 4.753906 C 7.957031 4.488281 7.574219 4.238281 7.246094 4.003906 C 6.914062 3.761719 6.652344 3.558594 6.457031 3.386719 C 6.257812 3.210938 6.148438 3.089844 6.121094 3.027344 C 6.066406 2.9375 6.058594 2.871094 6.09375 2.824219 C 6.136719 2.773438 6.195312 2.746094 6.269531 2.746094 L 17.71875 2.746094 C 17.789062 2.746094 17.84375 2.773438 17.878906 2.824219 C 17.925781 2.871094 17.917969 2.9375 17.867188 3.027344 C 17.839844 3.089844 17.726562 3.210938 17.53125 3.386719 C 17.34375 3.558594 17.085938 3.761719 16.753906 4.003906 C 16.425781 4.238281 16.039062 4.488281 15.601562 4.753906 C 15.164062 5.023438 14.695312 5.285156 14.195312 5.542969 C 14.089844 5.597656 14.042969 5.707031 14.0625 5.867188 L 14.542969 13.929688 L 16.6875 13.929688 L 16.191406 6.855469 C 16.753906 6.480469 17.300781 6.101562 17.824219 5.71875 C 18.351562 5.324219 18.820312 4.945312 19.230469 4.582031 C 19.644531 4.214844 19.960938 3.878906 20.183594 3.574219 C 20.53125 3.136719 20.707031 2.707031 20.707031 2.277344 C 20.707031 1.867188 20.558594 1.527344 20.261719 1.257812 C 19.976562 0.992188 19.601562 0.855469 19.136719 0.855469 L 4.863281 0.855469 C 4.386719 0.855469 4.007812 0.992188 3.722656 1.257812 C 3.4375 1.527344 3.292969 1.867188 3.292969 2.277344 Z M 3.292969 2.277344 "/>
</g>
</svg>
