<?xml version="1.0" encoding="UTF-8"?>
<svg xmlns="http://www.w3.org/2000/svg" xmlns:xlink="http://www.w3.org/1999/xlink" width="24" height="22.5" viewBox="0 0 24 22.5" version="1.1">
<g id="surface1">
<path style=" stroke:none;fill-rule:nonzero;fill:rgb(100%,100%,100%);fill-opacity:1;" d="M 4.886719 21.84375 L 19.101562 21.84375 C 20.328125 21.84375 21.246094 21.539062 21.855469 20.929688 C 22.472656 20.328125 22.78125 19.421875 22.78125 18.210938 L 22.78125 3.902344 C 22.78125 2.691406 22.472656 1.785156 21.855469 1.183594 C 21.246094 0.574219 20.328125 0.269531 19.101562 0.269531 L 4.886719 0.269531 C 3.660156 0.269531 2.738281 0.574219 2.121094 1.183594 C 1.511719 1.785156 1.207031 2.691406 1.207031 3.902344 L 1.207031 18.210938 C 1.207031 19.421875 1.511719 20.328125 2.121094 20.929688 C 2.738281 21.539062 3.660156 21.84375 4.886719 21.84375 Z M 7.253906 13.3125 C 7.253906 12.671875 7.496094 12.042969 7.980469 11.425781 C 8.472656 10.800781 9.152344 10.335938 10.019531 10.03125 L 10.21875 7.207031 C 9.78125 6.957031 9.390625 6.703125 9.046875 6.445312 C 8.710938 6.179688 8.460938 5.945312 8.296875 5.742188 C 8.117188 5.507812 8.027344 5.292969 8.027344 5.097656 C 8.027344 4.910156 8.09375 4.753906 8.226562 4.628906 C 8.359375 4.503906 8.535156 4.441406 8.753906 4.441406 L 15.269531 4.441406 C 15.488281 4.441406 15.664062 4.503906 15.796875 4.628906 C 15.929688 4.753906 15.996094 4.910156 15.996094 5.097656 C 15.996094 5.292969 15.914062 5.503906 15.75 5.730469 C 15.585938 5.933594 15.332031 6.167969 14.988281 6.433594 C 14.644531 6.699219 14.253906 6.957031 13.816406 7.207031 L 14.015625 10.03125 C 14.875 10.335938 15.546875 10.800781 16.03125 11.425781 C 16.523438 12.042969 16.769531 12.671875 16.769531 13.3125 C 16.769531 13.578125 16.6875 13.789062 16.523438 13.945312 C 16.367188 14.101562 16.152344 14.179688 15.878906 14.179688 L 12.761719 14.179688 L 12.761719 16.335938 C 12.761719 16.773438 12.714844 17.175781 12.621094 17.542969 C 12.527344 17.902344 12.421875 18.191406 12.304688 18.410156 C 12.1875 18.628906 12.089844 18.738281 12.011719 18.738281 C 11.933594 18.738281 11.835938 18.628906 11.71875 18.410156 C 11.601562 18.191406 11.496094 17.902344 11.402344 17.542969 C 11.308594 17.175781 11.261719 16.773438 11.261719 16.335938 L 11.261719 14.179688 L 8.144531 14.179688 C 7.871094 14.179688 7.652344 14.101562 7.488281 13.945312 C 7.332031 13.789062 7.253906 13.578125 7.253906 13.3125 Z M 7.253906 13.3125 "/>
</g>
</svg>
