<svg width="14" height="19" viewBox="0 0 14 19" fill="none" xmlns="http://www.w3.org/2000/svg">
<path d="M7 18.7109C7.04688 18.7109 7.10677 18.6536 7.17969 18.5391C7.25781 18.4245 7.33594 18.2656 7.41406 18.0625C7.49219 17.8646 7.55729 17.6328 7.60938 17.3672C7.66146 17.1016 7.6875 16.8203 7.6875 16.5234V12.2344H6.30469V16.5234C6.30469 16.8203 6.33073 17.1016 6.38281 17.3672C6.4349 17.6328 6.5 17.8646 6.57812 18.0625C6.65625 18.2656 6.73177 18.4245 6.80469 18.5391C6.88281 18.6536 6.94792 18.7109 7 18.7109ZM2.07812 12.875H11.9141C12.2682 12.875 12.5469 12.776 12.75 12.5781C12.9583 12.375 13.0625 12.1068 13.0625 11.7734C13.0625 11.2005 12.9115 10.6406 12.6094 10.0938C12.3125 9.54167 11.8906 9.04688 11.3438 8.60938C10.7969 8.16667 10.1536 7.8151 9.41406 7.55469C8.67969 7.28906 7.875 7.15625 7 7.15625C6.125 7.15625 5.31771 7.28906 4.57812 7.55469C3.83854 7.8151 3.19531 8.16667 2.64844 8.60938C2.10677 9.04688 1.6849 9.54167 1.38281 10.0938C1.08073 10.6406 0.929688 11.2005 0.929688 11.7734C0.929688 12.1068 1.03385 12.375 1.24219 12.5781C1.45052 12.776 1.72917 12.875 2.07812 12.875ZM2.39062 11.6953C2.20833 11.6953 2.13281 11.5911 2.16406 11.3828C2.20573 11.0339 2.34635 10.6797 2.58594 10.3203C2.82552 9.95573 3.15365 9.6224 3.57031 9.32031C3.98698 9.01302 4.48177 8.76562 5.05469 8.57812C5.63281 8.39062 6.28125 8.29688 7 8.29688C7.71354 8.29688 8.35677 8.39062 8.92969 8.57812C9.50781 8.76562 10.0052 9.01302 10.4219 9.32031C10.8385 9.6224 11.1667 9.95573 11.4062 10.3203C11.6458 10.6797 11.7865 11.0339 11.8281 11.3828C11.8594 11.5911 11.7839 11.6953 11.6016 11.6953H2.39062ZM1.92188 1.32812C1.92188 1.57812 2.02083 1.83073 2.21875 2.08594C2.34896 2.26302 2.53385 2.45833 2.77344 2.67188C3.01823 2.88542 3.29167 3.10677 3.59375 3.33594C3.90104 3.5599 4.21875 3.78125 4.54688 4L4.25781 8.125H5.50781L5.79688 3.42188C5.80208 3.32812 5.77344 3.26562 5.71094 3.23438C5.41927 3.08333 5.14583 2.92969 4.89062 2.77344C4.64062 2.61719 4.41927 2.47135 4.22656 2.33594C4.03385 2.19531 3.88021 2.07552 3.76562 1.97656C3.65104 1.8724 3.58594 1.80208 3.57031 1.76562C3.53906 1.71354 3.53385 1.67448 3.55469 1.64844C3.58073 1.61719 3.61458 1.60156 3.65625 1.60156H10.3359C10.3776 1.60156 10.4089 1.61719 10.4297 1.64844C10.4557 1.67448 10.4531 1.71354 10.4219 1.76562C10.4062 1.80208 10.3411 1.8724 10.2266 1.97656C10.1172 2.07552 9.96615 2.19531 9.77344 2.33594C9.58073 2.47135 9.35677 2.61719 9.10156 2.77344C8.84635 2.92969 8.57292 3.08333 8.28125 3.23438C8.21875 3.26562 8.19271 3.32812 8.20312 3.42188L8.48438 8.125H9.73438L9.44531 4C9.77344 3.78125 10.0911 3.5599 10.3984 3.33594C10.7057 3.10677 10.9792 2.88542 11.2188 2.67188C11.4583 2.45833 11.6432 2.26302 11.7734 2.08594C11.9766 1.83073 12.0781 1.57812 12.0781 1.32812C12.0781 1.08854 11.9922 0.890625 11.8203 0.734375C11.6536 0.578125 11.4349 0.5 11.1641 0.5H2.83594C2.5599 0.5 2.33854 0.578125 2.17188 0.734375C2.00521 0.890625 1.92188 1.08854 1.92188 1.32812Z" fill="white"/>
</svg>
