<svg width="98" height="146" viewBox="0 0 98 146" fill="none" xmlns="http://www.w3.org/2000/svg">
<path d="M49.375 145.688C49.75 145.688 50.2292 145.229 50.8125 144.312C51.4375 143.396 52.0625 142.125 52.6875 140.5C53.3125 138.917 53.8333 137.062 54.25 134.938C54.6667 132.812 54.875 130.562 54.875 128.188V93.875H43.8125V128.188C43.8125 130.562 44.0208 132.812 44.4375 134.938C44.8542 137.062 45.375 138.917 46 140.5C46.625 142.125 47.2292 143.396 47.8125 144.312C48.4375 145.229 48.9583 145.688 49.375 145.688ZM10 99H88.6875C91.5208 99 93.75 98.2083 95.375 96.625C97.0417 95 97.875 92.8542 97.875 90.1875C97.875 85.6042 96.6667 81.125 94.25 76.75C91.875 72.3333 88.5 68.375 84.125 64.875C79.75 61.3333 74.6042 58.5208 68.6875 56.4375C62.8125 54.3125 56.375 53.25 49.375 53.25C42.375 53.25 35.9167 54.3125 30 56.4375C24.0833 58.5208 18.9375 61.3333 14.5625 64.875C10.2292 68.375 6.85417 72.3333 4.4375 76.75C2.02083 81.125 0.8125 85.6042 0.8125 90.1875C0.8125 92.8542 1.64583 95 3.3125 96.625C4.97917 98.2083 7.20833 99 10 99ZM12.5 89.5625C11.0417 89.5625 10.4375 88.7292 10.6875 87.0625C11.0208 84.2708 12.1458 81.4375 14.0625 78.5625C15.9792 75.6458 18.6042 72.9792 21.9375 70.5625C25.2708 68.1042 29.2292 66.125 33.8125 64.625C38.4375 63.125 43.625 62.375 49.375 62.375C55.0833 62.375 60.2292 63.125 64.8125 64.625C69.4375 66.125 73.4167 68.1042 76.75 70.5625C80.0833 72.9792 82.7083 75.6458 84.625 78.5625C86.5417 81.4375 87.6667 84.2708 88 87.0625C88.25 88.7292 87.6458 89.5625 86.1875 89.5625H12.5ZM8.75 6.625C8.75 8.625 9.54167 10.6458 11.125 12.6875C12.1667 14.1042 13.6458 15.6667 15.5625 17.375C17.5208 19.0833 19.7083 20.8542 22.125 22.6875C24.5833 24.4792 27.125 26.25 29.75 28L27.4375 61H37.4375L39.75 23.375C39.7917 22.625 39.5625 22.125 39.0625 21.875C36.7292 20.6667 34.5417 19.4375 32.5 18.1875C30.5 16.9375 28.7292 15.7708 27.1875 14.6875C25.6458 13.5625 24.4167 12.6042 23.5 11.8125C22.5833 10.9792 22.0625 10.4167 21.9375 10.125C21.6875 9.70833 21.6458 9.39583 21.8125 9.1875C22.0208 8.9375 22.2917 8.8125 22.625 8.8125H76.0625C76.3958 8.8125 76.6458 8.9375 76.8125 9.1875C77.0208 9.39583 77 9.70833 76.75 10.125C76.625 10.4167 76.1042 10.9792 75.1875 11.8125C74.3125 12.6042 73.1042 13.5625 71.5625 14.6875C70.0208 15.7708 68.2292 16.9375 66.1875 18.1875C64.1458 19.4375 61.9583 20.6667 59.625 21.875C59.125 22.125 58.9167 22.625 59 23.375L61.25 61H71.25L68.9375 28C71.5625 26.25 74.1042 24.4792 76.5625 22.6875C79.0208 20.8542 81.2083 19.0833 83.125 17.375C85.0417 15.6667 86.5208 14.1042 87.5625 12.6875C89.1875 10.6458 90 8.625 90 6.625C90 4.70833 89.3125 3.125 87.9375 1.875C86.6042 0.625 84.8542 0 82.6875 0H16.0625C13.8542 0 12.0833 0.625 10.75 1.875C9.41667 3.125 8.75 4.70833 8.75 6.625Z" fill="white"/>
</svg>
