<svg width="16" height="19" viewBox="0 0 16 19" fill="none" xmlns="http://www.w3.org/2000/svg">
<path d="M1.92969 11.7734C1.92969 12.1068 2.03385 12.375 2.24219 12.5781C2.45052 12.776 2.72917 12.875 3.07812 12.875H7.30469V16.5234C7.30469 16.8203 7.33073 17.1016 7.38281 17.3672C7.4349 17.6328 7.5 17.8646 7.57812 18.0625C7.65625 18.2656 7.73177 18.4245 7.80469 18.5391C7.88281 18.6536 7.94792 18.7109 8 18.7109C8.04688 18.7109 8.10677 18.6536 8.17969 18.5391C8.25781 18.4245 8.33594 18.2656 8.41406 18.0625C8.49219 17.8646 8.55729 17.6328 8.60938 17.3672C8.66146 17.1016 8.6875 16.8203 8.6875 16.5234V12.9844H9.14062L4.32812 8.15625C3.82292 8.45312 3.39062 8.79688 3.03125 9.1875C2.67708 9.57812 2.40365 9.99479 2.21094 10.4375C2.02344 10.8802 1.92969 11.3255 1.92969 11.7734ZM3.83594 0.5C3.5599 0.5 3.33854 0.578125 3.17188 0.734375C3.00521 0.890625 2.92188 1.08854 2.92188 1.32812C2.92188 1.57292 3.01823 1.82292 3.21094 2.07812C3.34115 2.25521 3.52865 2.45312 3.77344 2.67188C4.02344 2.88542 4.3125 3.10677 4.64062 3.33594C4.96875 3.5599 5.32292 3.78125 5.70312 4L5.63281 5.02344L13.4062 12.7891C13.8438 12.6172 14.0625 12.2786 14.0625 11.7734C14.0625 11.2214 13.9219 10.6771 13.6406 10.1406C13.3594 9.59896 12.9557 9.10417 12.4297 8.65625C11.9036 8.20833 11.276 7.85156 10.5469 7.58594L10.2891 4C10.862 3.67708 11.3672 3.34635 11.8047 3.00781C12.2422 2.66406 12.5625 2.36198 12.7656 2.10156C12.974 1.83594 13.0781 1.57812 13.0781 1.32812C13.0781 1.08854 12.9922 0.890625 12.8203 0.734375C12.6536 0.578125 12.4349 0.5 12.1641 0.5H3.83594ZM0.195312 2.65625L14.3203 16.7656C14.4401 16.8854 14.5833 16.9453 14.75 16.9453C14.9167 16.9453 15.0573 16.8854 15.1719 16.7656C15.2865 16.6458 15.3438 16.5026 15.3438 16.3359C15.349 16.1745 15.2917 16.0339 15.1719 15.9141L1.05469 1.80469C0.934896 1.6849 0.791667 1.625 0.625 1.625C0.458333 1.625 0.315104 1.6849 0.195312 1.80469C0.0807292 1.91927 0.0234375 2.0625 0.0234375 2.23438C0.0234375 2.40104 0.0807292 2.54167 0.195312 2.65625Z" fill="white"/>
</svg>
