<svg xmlns="http://www.w3.org/2000/svg" width="24" height="24"><path style="stroke:none;fill-rule:nonzero;fill:#fff;fill-opacity:1" d="M12 23.633c.082 0 .184-.07.309-.215.132-.145.265-.344.402-.602.133-.25.246-.543.332-.878.09-.336.137-.692.137-1.067v-5.418h-2.371v5.418a4.17 4.17 0 0 0 .469 1.945c.132.258.261.457.386.602.137.145.246.215.336.215Zm-8.438-7.371h16.864c.605 0 1.082-.125 1.43-.375.359-.254.539-.594.539-1.016 0-.723-.262-1.43-.778-2.121-.512-.7-1.234-1.324-2.172-1.875-.937-.559-2.039-1.004-3.308-1.332-1.258-.336-2.637-.504-4.137-.504-1.5 0-2.883.168-4.152.504-1.266.332-2.371.773-3.309 1.332-.926.55-1.652 1.176-2.168 1.875-.52.691-.777 1.398-.777 2.121 0 .422.18.762.535 1.016.36.25.836.375 1.433.375Zm.536-1.489c-.313 0-.442-.132-.387-.394.07-.441.312-.887.723-1.344.41-.46.972-.879 1.687-1.262.715-.39 1.563-.699 2.543-.937.992-.238 2.106-.356 3.336-.356 1.223 0 2.324.118 3.309.356.992.238 1.843.547 2.558.937.715.383 1.278.801 1.688 1.262.41.457.652.902.722 1.34.055.266-.078.398-.39.398ZM3.293 1.68c0 .316.172.633.512.953.222.226.539.472.949.746.422.266.89.543 1.406.836.527.281 1.07.562 1.633.836l-.492 5.215h2.14l.496-5.942c.008-.117-.039-.199-.148-.238-.5-.191-.969-.383-1.406-.582-.387-.176-.766-.36-1.137-.555-.273-.14-.535-.293-.789-.453-.2-.129-.309-.219-.336-.266-.055-.066-.062-.113-.027-.148a.265.265 0 0 1 .176-.059h11.449c.07 0 .125.02.16.059.047.035.039.082-.012.148-.027.047-.14.137-.336.266-.25.16-.508.313-.777.453-.328.176-.715.36-1.152.555-.438.2-.907.39-1.407.582-.105.039-.152.121-.133.238l.481 5.942h2.145L16.19 5.05c.563-.274 1.11-.555 1.633-.836.528-.293.996-.57 1.406-.836.415-.274.73-.52.954-.746.347-.32.523-.637.523-.953 0-.305-.148-.555-.445-.754-.285-.196-.66-.297-1.125-.297H4.863c-.476 0-.855.101-1.14.297-.285.199-.43.453-.43.754Zm0 0"/></svg>