<svg xmlns="http://www.w3.org/2000/svg" width="24" height="24"><path style="stroke:none;fill-rule:nonzero;fill:#fff;fill-opacity:1" d="M3.629 18.266h6.308v-1.774H3.649c-.425 0-.753-.148-.98-.441-.227-.297-.34-.727-.34-1.305V3.781c0-.57.113-1.004.34-1.3.227-.293.555-.438.98-.438H16.04c.422 0 .746.144.973.437.234.297.347.73.347 1.301v6.39h1.375V3.689c0-1.133-.226-1.989-.675-2.56-.442-.577-1.106-.866-1.993-.866H3.63c-.89 0-1.563.289-2.008.867-.445.566-.668 1.414-.668 2.559v11.16c0 1.136.223 1.996.668 2.566.445.566 1.117.852 2.008.852Zm8.363 5.105h8.38c.882 0 1.55-.285 1.991-.86.45-.57.672-1.425.672-2.558v-7.148c0-1.137-.223-1.992-.672-2.559-.441-.574-1.11-.86-1.992-.86h-8.379c-.894 0-1.562.286-2.012.86-.445.566-.664 1.422-.664 2.559v7.148c0 1.137.22 1.992.664 2.559.45.574 1.118.86 2.012.86ZM4.211 8.547a.618.618 0 0 0 .238.43c.14.117.297.066.461-.157l.945-1.21 1.391 1.808c.149.2.379.258.578.152.2-.105.328-.36.324-.636a.767.767 0 0 0-.152-.489L6.598 6.641l.937-1.227c.168-.203.211-.398.117-.582-.09-.184-.199-.285-.332-.305l-3.074-.62a.395.395 0 0 0-.394.152.684.684 0 0 0-.118.5Zm0 0"/></svg>