<?xml version="1.0" encoding="UTF-8"?>
<svg xmlns="http://www.w3.org/2000/svg" xmlns:xlink="http://www.w3.org/1999/xlink" width="24" height="18.545455" viewBox="0 0 24 18.545455" version="1.1">
<g id="surface1">
<path style=" stroke:none;fill-rule:nonzero;fill:rgb(100%,100%,100%);fill-opacity:1;" d="M 11.992188 18.058594 L 20.371094 18.058594 C 21.253906 18.058594 21.921875 17.839844 22.363281 17.394531 C 22.8125 16.953125 23.035156 16.292969 23.035156 15.417969 L 23.035156 9.894531 C 23.035156 9.015625 22.8125 8.355469 22.363281 7.917969 C 21.921875 7.472656 21.253906 7.253906 20.371094 7.253906 L 11.992188 7.253906 C 11.097656 7.253906 10.429688 7.472656 9.980469 7.917969 C 9.535156 8.355469 9.316406 9.015625 9.316406 9.894531 L 9.316406 15.417969 C 9.316406 16.296875 9.535156 16.957031 9.980469 17.394531 C 10.429688 17.839844 11.097656 18.058594 11.992188 18.058594 Z M 11.992188 6.085938 L 18.734375 6.085938 L 18.734375 2.847656 C 18.734375 1.972656 18.507812 1.3125 18.058594 0.871094 C 17.617188 0.425781 16.953125 0.203125 16.066406 0.203125 L 3.628906 0.203125 C 2.738281 0.203125 2.066406 0.425781 1.621094 0.871094 C 1.175781 1.308594 0.953125 1.964844 0.953125 2.847656 L 0.953125 11.472656 C 0.953125 12.351562 1.175781 13.015625 1.621094 13.457031 C 2.066406 13.894531 2.738281 14.113281 3.628906 14.113281 L 8.148438 14.113281 L 8.148438 9.894531 C 8.148438 9.09375 8.296875 8.410156 8.597656 7.839844 C 8.90625 7.273438 9.34375 6.839844 9.910156 6.535156 C 10.484375 6.234375 11.179688 6.085938 11.992188 6.085938 Z M 11.992188 6.085938 "/>
</g>
</svg>
