<?xml version="1.0" encoding="UTF-8"?>
<svg xmlns="http://www.w3.org/2000/svg" xmlns:xlink="http://www.w3.org/1999/xlink" width="24" height="36" viewBox="0 0 24 36" version="1.1">
<g id="surface1">
<path style=" stroke:none;fill-rule:nonzero;fill:rgb(100%,100%,100%);fill-opacity:1;" d="M 7.070312 0.414062 C 4.820312 0.414062 3.082031 0.992188 1.855469 2.15625 C 0.644531 3.320312 0.0390625 5.023438 0.0390625 7.273438 L 0.0390625 28.03125 C 0.0390625 30.28125 0.644531 31.992188 1.855469 33.167969 C 3.082031 34.34375 4.820312 34.929688 7.070312 34.929688 L 16.988281 34.929688 C 19.238281 34.929688 20.960938 34.34375 22.164062 33.167969 C 23.363281 31.992188 23.960938 30.28125 23.960938 28.03125 L 23.960938 7.273438 C 23.960938 5.023438 23.363281 3.320312 22.164062 2.15625 C 20.960938 0.992188 19.238281 0.414062 16.988281 0.414062 Z M 7.070312 0.414062 "/>
</g>
</svg>
