<svg xmlns="http://www.w3.org/2000/svg" width="24" height="24"><path style="stroke:none;fill-rule:nonzero;fill:#fff;fill-opacity:1" d="M4.5 18.633c0 .515.148.922.45 1.219.3.296.714.445 1.237.445h10.04c.515 0 .921-.149 1.222-.445.301-.297.45-.704.45-1.22V16.57c0-.508-.153-.914-.462-1.218-.308-.305-.71-.457-1.21-.457H6.187c-.507 0-.917.152-1.226.457-.309.304-.461.71-.461 1.218Zm1.938 5.117h9.523c1.168 0 2.168-.21 3-.64a4.547 4.547 0 0 0 1.937-1.84c.454-.797.676-1.754.676-2.872V6.718c0-1.116-.222-2.077-.676-2.874a4.476 4.476 0 0 0-1.937-1.828c-.832-.43-1.832-.645-3-.645H6.437c-1.167 0-2.171.215-3.011.645A4.47 4.47 0 0 0 1.5 3.844c-.45.797-.676 1.754-.676 2.87v11.684c0 1.118.227 2.07.676 2.872a4.518 4.518 0 0 0 1.926 1.84c.84.43 1.844.644 3.011.644Zm-.086-1.883c-1.102 0-1.965-.297-2.59-.89-.617-.602-.926-1.43-.926-2.497V6.691c0-1.062.309-1.89.926-2.484.625-.594 1.488-.89 2.59-.89h9.699c1.097 0 1.957.296 2.574.89.625.594.938 1.422.938 2.484v11.786c0 1.066-.313 1.898-.938 2.5-.617.593-1.477.89-2.574.89Zm15-10.539h.562c.398 0 .715-.113.95-.348.241-.242.363-.566.363-.972V8.05c0-.414-.122-.742-.364-.985-.234-.246-.55-.363-.949-.363h-.562Zm0 0"/></svg>