<svg width="20" height="16" viewBox="0 0 20 16" fill="none" xmlns="http://www.w3.org/2000/svg">
<path d="M7.53125 0.726562C7.98438 0.830729 8.48177 0.958333 9.02344 1.10938C9.57031 1.25521 10.099 1.40625 10.6094 1.5625C11.125 1.71875 11.5625 1.85677 11.9219 1.97656C12.8281 2.27865 13.5495 2.6276 14.0859 3.02344C14.6224 3.41406 15.0078 3.90104 15.2422 4.48438C15.4818 5.06771 15.6016 5.79427 15.6016 6.66406C15.6016 7.61719 15.3984 8.34115 14.9922 8.83594C14.5859 9.33073 14.0573 9.57812 13.4062 9.57812C12.9635 9.57812 12.487 9.45833 11.9766 9.21875V4.46875C11.9766 4.19792 11.9453 3.95312 11.8828 3.73438C11.8203 3.51562 11.6562 3.36458 11.3906 3.28125C11.1719 3.21354 11.0078 3.26042 10.8984 3.42188C10.7891 3.57812 10.7344 3.78646 10.7344 4.04688V15.9766L7.53125 14.9688V0.726562ZM11.3281 13.9062V15.7344L17.875 13.4062C18.8438 13.0573 19.4479 12.7266 19.6875 12.4141C19.8073 12.2578 19.8594 12.0807 19.8438 11.8828C19.8281 11.6797 19.7135 11.4766 19.5 11.2734C19.2865 11.0703 18.9427 10.8854 18.4688 10.7188C17.7396 10.474 16.9714 10.3073 16.1641 10.2188C15.362 10.125 14.6172 10.1068 13.9297 10.1641C13.5078 10.2005 13.0599 10.276 12.5859 10.3906C12.1172 10.5052 11.6979 10.625 11.3281 10.75V12.7188L14.7734 11.4688C15.0599 11.3646 15.3828 11.3073 15.7422 11.2969C16.1068 11.2865 16.4141 11.3229 16.6641 11.4062C16.9036 11.4896 17.0104 11.5911 16.9844 11.7109C16.9583 11.8307 16.7917 11.9453 16.4844 12.0547L11.3281 13.9062ZM1.32031 13.5703C2.04427 13.8255 2.86719 14.0234 3.78906 14.1641C4.71615 14.3047 5.7474 14.2552 6.88281 14.0156V12.3594L5.36719 12.9141C5.15885 12.9922 4.92188 13.0495 4.65625 13.0859C4.39062 13.1172 4.14062 13.1328 3.90625 13.1328C3.67188 13.1276 3.4974 13.1042 3.38281 13.0625C3.13281 12.9792 3.03125 12.8672 3.07812 12.7266C3.125 12.5807 3.3151 12.4479 3.64844 12.3281L6.88281 11.1719V9.33594L2.44531 10.9375C2.14844 11.0521 1.84635 11.1667 1.53906 11.2812C1.23177 11.3906 0.90625 11.5625 0.5625 11.7969C0.1875 12.0521 0.0625 12.3568 0.1875 12.7109C0.3125 13.0599 0.690104 13.3464 1.32031 13.5703Z" fill="white"/>
</svg>
