<?xml version="1.0" encoding="UTF-8"?>
<svg xmlns="http://www.w3.org/2000/svg" xmlns:xlink="http://www.w3.org/1999/xlink" width="24" height="18" viewBox="0 0 24 18" version="1.1">
<g id="surface1">
<path style=" stroke:none;fill-rule:nonzero;fill:rgb(100%,100%,100%);fill-opacity:1;" d="M 3.890625 17.464844 L 20.109375 17.464844 C 21.097656 17.464844 21.835938 17.222656 22.320312 16.734375 C 22.808594 16.253906 23.054688 15.53125 23.054688 14.570312 L 23.054688 3.113281 C 23.054688 2.148438 22.808594 1.425781 22.320312 0.9375 C 21.835938 0.449219 21.097656 0.207031 20.109375 0.207031 L 3.890625 0.207031 C 2.910156 0.207031 2.171875 0.449219 1.679688 0.9375 C 1.191406 1.417969 0.945312 2.144531 0.945312 3.113281 L 0.945312 14.570312 C 0.945312 15.53125 1.191406 16.253906 1.679688 16.734375 C 2.171875 17.222656 2.910156 17.464844 3.890625 17.464844 Z M 3.910156 15.957031 C 3.441406 15.957031 3.082031 15.835938 2.832031 15.589844 C 2.582031 15.339844 2.457031 14.972656 2.457031 14.484375 L 2.457031 3.195312 C 2.457031 2.710938 2.582031 2.339844 2.832031 2.089844 C 3.082031 1.839844 3.441406 1.714844 3.910156 1.714844 L 20.089844 1.714844 C 20.554688 1.714844 20.910156 1.839844 21.160156 2.089844 C 21.414062 2.339844 21.542969 2.710938 21.542969 3.195312 L 21.542969 14.484375 C 21.542969 14.972656 21.414062 15.339844 21.160156 15.589844 C 20.910156 15.835938 20.554688 15.957031 20.089844 15.957031 Z M 10.257812 12.496094 L 15.601562 9.347656 C 15.792969 9.226562 15.886719 9.058594 15.882812 8.839844 C 15.882812 8.621094 15.789062 8.457031 15.601562 8.34375 L 10.257812 5.175781 C 10.054688 5.054688 9.851562 5.039062 9.636719 5.117188 C 9.425781 5.199219 9.320312 5.351562 9.320312 5.578125 L 9.320312 12.09375 C 9.320312 12.324219 9.417969 12.484375 9.617188 12.570312 C 9.824219 12.652344 10.039062 12.628906 10.257812 12.496094 Z M 10.257812 12.496094 "/>
</g>
</svg>
