<svg width="20" height="17" viewBox="0 0 20 17" fill="none" xmlns="http://www.w3.org/2000/svg">
<path d="M2.48438 13.7344H17.5078C18.0703 13.7344 18.5104 13.5755 18.8281 13.2578C19.151 12.9349 19.3125 12.4922 19.3125 11.9297V2.5625C19.3125 2 19.151 1.5599 18.8281 1.24219C18.5104 0.924479 18.0703 0.765625 17.5078 0.765625H2.48438C1.92708 0.765625 1.48698 0.924479 1.16406 1.24219C0.846354 1.5599 0.6875 2 0.6875 2.5625V11.9297C0.6875 12.4922 0.846354 12.9349 1.16406 13.2578C1.48698 13.5755 1.92708 13.7344 2.48438 13.7344ZM2.50781 12.4766C2.33594 12.4766 2.19792 12.4271 2.09375 12.3281C1.99479 12.224 1.94531 12.0859 1.94531 11.9141V2.58594C1.94531 2.40885 1.99479 2.27083 2.09375 2.17188C2.19792 2.07292 2.33594 2.02344 2.50781 2.02344H17.4922C17.6641 2.02344 17.7995 2.07292 17.8984 2.17188C18.0026 2.27083 18.0547 2.40885 18.0547 2.58594V11.9141C18.0547 12.0859 18.0026 12.224 17.8984 12.3281C17.7995 12.4271 17.6641 12.4766 17.4922 12.4766H2.50781ZM7.53125 15.5938H12.4688V13.6328H7.53125V15.5938ZM7.48438 16.5078H12.5156C12.6875 16.5078 12.8333 16.4453 12.9531 16.3203C13.0781 16.2005 13.1406 16.0521 13.1406 15.875C13.1406 15.6979 13.0781 15.5469 12.9531 15.4219C12.8333 15.3021 12.6875 15.2422 12.5156 15.2422H7.48438C7.3125 15.2422 7.16406 15.3021 7.03906 15.4219C6.91406 15.5469 6.85156 15.6979 6.85156 15.875C6.85156 16.0521 6.91406 16.2005 7.03906 16.3203C7.16406 16.4453 7.3125 16.5078 7.48438 16.5078ZM8.0625 9.75C8.0625 9.91146 8.13021 10.0208 8.26562 10.0781C8.40104 10.1302 8.53125 10.1172 8.65625 10.0391L12.8516 7.57031C12.9766 7.4974 13.0365 7.39323 13.0312 7.25781C13.0312 7.11719 12.9688 7.00781 12.8438 6.92969L8.65625 4.46875C8.53125 4.39062 8.40104 4.38021 8.26562 4.4375C8.13021 4.48958 8.0625 4.59635 8.0625 4.75781V9.75Z" fill="white"/>
</svg>
