<svg width="16" height="15" viewBox="0 0 16 15" fill="none" xmlns="http://www.w3.org/2000/svg">
<path d="M3.25781 14.5625H12.7344C13.5521 14.5625 14.1641 14.3594 14.5703 13.9531C14.9818 13.5521 15.1875 12.9479 15.1875 12.1406V2.60156C15.1875 1.79427 14.9818 1.1901 14.5703 0.789062C14.1641 0.382812 13.5521 0.179688 12.7344 0.179688H3.25781C2.4401 0.179688 1.82552 0.382812 1.41406 0.789062C1.00781 1.1901 0.804688 1.79427 0.804688 2.60156V12.1406C0.804688 12.9479 1.00781 13.5521 1.41406 13.9531C1.82552 14.3594 2.4401 14.5625 3.25781 14.5625ZM6.51562 10.5078C6.32812 10.6224 6.14583 10.6432 5.96875 10.5703C5.79688 10.4922 5.71094 10.3568 5.71094 10.1641V4.5625C5.71094 4.36979 5.80208 4.23958 5.98438 4.17188C6.16667 4.10417 6.34375 4.11979 6.51562 4.21875L11.1094 6.9375C11.2708 7.03646 11.3516 7.17969 11.3516 7.36719C11.3568 7.55469 11.276 7.70052 11.1094 7.80469L6.51562 10.5078Z" fill="white"/>
</svg>
