<svg width="160" height="123" viewBox="0 0 160 123" fill="none" xmlns="http://www.w3.org/2000/svg">
<path d="M61.0625 0.8125C64.6875 1.64583 68.6667 2.66667 73 3.875C77.375 5.04167 81.6042 6.25 85.6875 7.5C89.8125 8.75 93.3125 9.85417 96.1875 10.8125C103.438 13.2292 109.208 16.0208 113.5 19.1875C117.792 22.3125 120.875 26.2083 122.75 30.875C124.667 35.5417 125.625 41.3542 125.625 48.3125C125.625 55.9375 124 61.7292 120.75 65.6875C117.5 69.6458 113.271 71.625 108.062 71.625C104.521 71.625 100.708 70.6667 96.625 68.75V30.75C96.625 28.5833 96.375 26.625 95.875 24.875C95.375 23.125 94.0625 21.9167 91.9375 21.25C90.1875 20.7083 88.875 21.0833 88 22.375C87.125 23.625 86.6875 25.2917 86.6875 27.375V122.812L61.0625 114.75V0.8125ZM91.4375 106.25V120.875L143.812 102.25C151.562 99.4583 156.396 96.8125 158.312 94.3125C159.271 93.0625 159.688 91.6458 159.562 90.0625C159.438 88.4375 158.521 86.8125 156.812 85.1875C155.104 83.5625 152.354 82.0833 148.562 80.75C142.729 78.7917 136.583 77.4583 130.125 76.75C123.708 76 117.75 75.8542 112.25 76.3125C108.875 76.6042 105.292 77.2083 101.5 78.125C97.75 79.0417 94.3958 80 91.4375 81V96.75L119 86.75C121.292 85.9167 123.875 85.4583 126.75 85.375C129.667 85.2917 132.125 85.5833 134.125 86.25C136.042 86.9167 136.896 87.7292 136.688 88.6875C136.479 89.6458 135.146 90.5625 132.688 91.4375L91.4375 106.25ZM11.375 103.562C17.1667 105.604 23.75 107.188 31.125 108.312C38.5417 109.438 46.7917 109.042 55.875 107.125V93.875L43.75 98.3125C42.0833 98.9375 40.1875 99.3958 38.0625 99.6875C35.9375 99.9375 33.9375 100.062 32.0625 100.062C30.1875 100.021 28.7917 99.8333 27.875 99.5C25.875 98.8333 25.0625 97.9375 25.4375 96.8125C25.8125 95.6458 27.3333 94.5833 30 93.625L55.875 84.375V69.6875L20.375 82.5C18 83.4167 15.5833 84.3333 13.125 85.25C10.6667 86.125 8.0625 87.5 5.3125 89.375C2.3125 91.4167 1.3125 93.8542 2.3125 96.6875C3.3125 99.4792 6.33333 101.771 11.375 103.562Z" fill="white"/>
</svg>
