<svg width="20" height="15" viewBox="0 0 20 15" fill="none" xmlns="http://www.w3.org/2000/svg">
<path d="M3.24219 14.5547H16.7578C17.5807 14.5547 18.1953 14.3516 18.6016 13.9453C19.0078 13.5443 19.2109 12.9427 19.2109 12.1406V2.59375C19.2109 1.79167 19.0078 1.1875 18.6016 0.78125C18.1953 0.375 17.5807 0.171875 16.7578 0.171875H3.24219C2.42448 0.171875 1.8099 0.375 1.39844 0.78125C0.992188 1.18229 0.789062 1.78646 0.789062 2.59375V12.1406C0.789062 12.9427 0.992188 13.5443 1.39844 13.9453C1.8099 14.3516 2.42448 14.5547 3.24219 14.5547ZM8.51562 10.5156C8.32812 10.6302 8.14583 10.651 7.96875 10.5781C7.79688 10.5 7.71094 10.3646 7.71094 10.1719V4.57031C7.71094 4.3776 7.80208 4.2474 7.98438 4.17969C8.16667 4.11198 8.34375 4.1276 8.51562 4.22656L13.1094 6.94531C13.2708 7.04427 13.3516 7.1875 13.3516 7.375C13.3568 7.5625 13.276 7.70833 13.1094 7.8125L8.51562 10.5156Z" fill="white"/>
</svg>
