<svg width="13" height="14" viewBox="0 0 13 14" fill="none" xmlns="http://www.w3.org/2000/svg">
<path d="M1.90625 13.9844C2.0625 13.9844 2.21094 13.9557 2.35156 13.8984C2.49219 13.8464 2.64062 13.7734 2.79688 13.6797L11.9062 8.41406C12.2344 8.22135 12.4609 8.05208 12.5859 7.90625C12.7161 7.75521 12.7812 7.57552 12.7812 7.36719C12.7812 7.15885 12.7161 6.98177 12.5859 6.83594C12.4609 6.6849 12.2344 6.51562 11.9062 6.32812L2.79688 1.05469C2.64062 0.966146 2.49219 0.895833 2.35156 0.84375C2.21094 0.786458 2.0625 0.757812 1.90625 0.757812C1.61979 0.757812 1.39062 0.859375 1.21875 1.0625C1.05208 1.26562 0.96875 1.53646 0.96875 1.875V12.8594C0.96875 13.1979 1.05208 13.4688 1.21875 13.6719C1.39062 13.8802 1.61979 13.9844 1.90625 13.9844ZM2.30469 12.4922C2.2526 12.4922 2.22656 12.4609 2.22656 12.3984V2.33594C2.22656 2.27344 2.2526 2.24219 2.30469 2.24219C2.33073 2.24219 2.36198 2.25521 2.39844 2.28125L11.0469 7.28125C11.0625 7.29167 11.0781 7.30469 11.0938 7.32031C11.1094 7.33073 11.1172 7.34635 11.1172 7.36719C11.1172 7.38802 11.1094 7.40625 11.0938 7.42188C11.0781 7.43229 11.0625 7.44271 11.0469 7.45312L2.39844 12.4609C2.36198 12.4818 2.33073 12.4922 2.30469 12.4922Z" fill="white"/>
</svg>
