<svg width="20" height="15" viewBox="0 0 20 15" fill="none" xmlns="http://www.w3.org/2000/svg">
<path d="M3.24219 14.5547H16.7578C17.5807 14.5547 18.1953 14.3516 18.6016 13.9453C19.0078 13.5443 19.2109 12.9427 19.2109 12.1406V2.59375C19.2109 1.79167 19.0078 1.1875 18.6016 0.78125C18.1953 0.375 17.5807 0.171875 16.7578 0.171875H3.24219C2.42448 0.171875 1.8099 0.375 1.39844 0.78125C0.992188 1.18229 0.789062 1.78646 0.789062 2.59375V12.1406C0.789062 12.9427 0.992188 13.5443 1.39844 13.9453C1.8099 14.3516 2.42448 14.5547 3.24219 14.5547ZM3.25781 13.2969C2.86719 13.2969 2.56771 13.1953 2.35938 12.9922C2.15104 12.7839 2.04688 12.4766 2.04688 12.0703V2.66406C2.04688 2.25781 2.15104 1.95052 2.35938 1.74219C2.56771 1.53385 2.86719 1.42969 3.25781 1.42969H16.7422C17.1276 1.42969 17.4245 1.53385 17.6328 1.74219C17.8464 1.95052 17.9531 2.25781 17.9531 2.66406V12.0703C17.9531 12.4766 17.8464 12.7839 17.6328 12.9922C17.4245 13.1953 17.1276 13.2969 16.7422 13.2969H3.25781ZM8.54688 10.4141L13 7.78906C13.1615 7.6901 13.2396 7.54948 13.2344 7.36719C13.2344 7.1849 13.1562 7.04688 13 6.95312L8.54688 4.3125C8.38021 4.21354 8.20833 4.19792 8.03125 4.26562C7.85417 4.33333 7.76562 4.46094 7.76562 4.64844V10.0781C7.76562 10.2708 7.84896 10.4036 8.01562 10.4766C8.1875 10.5443 8.36458 10.5234 8.54688 10.4141Z" fill="white"/>
</svg>
