<svg width="116" height="116" viewBox="0 0 116 116" fill="none" xmlns="http://www.w3.org/2000/svg">
<path d="M20.5625 115.5H96.375C102.917 115.5 107.812 113.875 111.062 110.625C114.354 107.417 116 102.583 116 96.125V19.8125C116 13.3542 114.354 8.52083 111.062 5.3125C107.812 2.0625 102.917 0.4375 96.375 0.4375H20.5625C14.0208 0.4375 9.10417 2.0625 5.8125 5.3125C2.5625 8.52083 0.9375 13.3542 0.9375 19.8125V96.125C0.9375 102.583 2.5625 107.417 5.8125 110.625C9.10417 113.875 14.0208 115.5 20.5625 115.5ZM46.625 83.0625C45.125 83.9792 43.6667 84.1458 42.25 83.5625C40.875 82.9375 40.1875 81.8542 40.1875 80.3125V35.5C40.1875 33.9583 40.9167 32.9167 42.375 32.375C43.8333 31.8333 45.25 31.9583 46.625 32.75L83.375 54.5C84.6667 55.2917 85.3125 56.4375 85.3125 57.9375C85.3542 59.4375 84.7083 60.6042 83.375 61.4375L46.625 83.0625Z" fill="white"/>
</svg>
