<svg xmlns="http://www.w3.org/2000/svg" width="24" height="24"><path style="stroke:none;fill-rule:nonzero;fill:#fff;fill-opacity:1" d="M3.52 23.973c.289 0 .562-.047.82-.145.262-.094.535-.215.824-.379l16.816-9.023c.606-.328 1.024-.621 1.254-.871.243-.262.364-.57.364-.926 0-.36-.121-.66-.364-.91-.23-.262-.648-.551-1.254-.871L5.164 1.805a6.167 6.167 0 0 0-.824-.356 2.18 2.18 0 0 0-.82-.148c-.528 0-.954.172-1.27.52-.309.347-.46.812-.46 1.394v18.832c0 .578.151 1.043.46 1.39.316.356.742.536 1.27.536Zm.734-2.559c-.094 0-.145-.055-.145-.156V4.004c0-.11.051-.16.145-.16.05 0 .105.023.176.066l15.965 8.57c.027.02.058.04.085.07.028.02.043.044.043.079 0 .039-.015.066-.043.094a.622.622 0 0 1-.085.05L4.43 21.36a.387.387 0 0 1-.176.055Zm0 0"/></svg>