<svg width="109" height="108" viewBox="0 0 109 108" fill="none" xmlns="http://www.w3.org/2000/svg">
<path d="M66.625 83.4375L13.9375 30.75V98.875C13.9375 101.583 14.6042 103.75 15.9375 105.375C17.3125 107.042 19.1458 107.875 21.4375 107.875C22.6875 107.875 23.875 107.646 25 107.188C26.125 106.771 27.3125 106.188 28.5625 105.438L66.625 83.4375ZM88.6875 70.6875L101.438 63.3125C104.062 61.7708 105.875 60.4167 106.875 59.25C107.917 58.0417 108.438 56.6042 108.438 54.9375C108.438 53.2708 107.917 51.8542 106.875 50.6875C105.875 49.4792 104.062 48.125 101.438 46.625L28.5625 4.4375C27.4375 3.77083 26.375 3.22917 25.375 2.8125C24.4167 2.35417 23.3958 2.125 22.3125 2.125C22.0208 2.125 21.7708 2.25 21.5625 2.5C21.3958 2.70833 21.2917 2.97917 21.25 3.3125L88.6875 70.6875ZM94.4375 100.625C95.3958 101.583 96.5417 102.062 97.875 102.062C99.2083 102.062 100.333 101.583 101.25 100.625C102.167 99.6667 102.625 98.5417 102.625 97.25C102.667 95.9167 102.208 94.7708 101.25 93.8125L8.8125 1.4375C7.85417 0.520833 6.70833 0.0625 5.375 0.0625C4.04167 0.0208333 2.89583 0.479167 1.9375 1.4375C1.02083 2.35417 0.5625 3.5 0.5625 4.875C0.5625 6.20833 1.02083 7.33333 1.9375 8.25L94.4375 100.625Z" fill="white"/>
</svg>
