<svg width="162" height="104" viewBox="0 0 162 104" fill="none" xmlns="http://www.w3.org/2000/svg">
<path d="M115.188 103.562C116.646 103.562 117.896 103.062 118.938 102.062C119.979 101.062 120.5 99.8333 120.5 98.375V5.5625C120.5 4.0625 119.979 2.8125 118.938 1.8125C117.896 0.8125 116.646 0.3125 115.188 0.3125C113.688 0.3125 112.417 0.8125 111.375 1.8125C110.333 2.8125 109.812 4.0625 109.812 5.5625V98.375C109.812 99.8333 110.333 101.062 111.375 102.062C112.417 103.062 113.688 103.562 115.188 103.562ZM156.438 103.562C157.938 103.562 159.208 103.062 160.25 102.062C161.292 101.062 161.812 99.8333 161.812 98.375V5.5625C161.812 4.0625 161.292 2.8125 160.25 1.8125C159.208 0.8125 157.938 0.3125 156.438 0.3125C154.979 0.3125 153.729 0.8125 152.688 1.8125C151.646 2.8125 151.125 4.0625 151.125 5.5625V98.375C151.125 99.8333 151.646 101.062 152.688 102.062C153.729 103.062 154.979 103.562 156.438 103.562ZM9.9375 101.062C11.2292 101.062 12.4375 100.854 13.5625 100.438C14.6875 100.062 15.875 99.5 17.125 98.75L80.8125 61.25C83.0208 59.9167 84.625 58.4792 85.625 56.9375C86.625 55.3958 87.125 53.7292 87.125 51.9375C87.125 50.1458 86.625 48.4792 85.625 46.9375C84.625 45.3958 83.0208 43.9583 80.8125 42.625L17.125 5.125C15.8333 4.375 14.625 3.8125 13.5 3.4375C12.4167 3.02083 11.2292 2.8125 9.9375 2.8125C7.47917 2.8125 5.35417 3.72917 3.5625 5.5625C1.8125 7.39583 0.9375 10.0625 0.9375 13.5625V90.3125C0.9375 93.8125 1.8125 96.4792 3.5625 98.3125C5.35417 100.146 7.47917 101.062 9.9375 101.062ZM12.6875 89.5C12.2292 89.5 11.8125 89.3542 11.4375 89.0625C11.1042 88.7292 10.9375 88.25 10.9375 87.625V16.25C10.9375 15.625 11.1042 15.1667 11.4375 14.875C11.8125 14.5417 12.2292 14.375 12.6875 14.375C12.8958 14.375 13.125 14.4167 13.375 14.5C13.625 14.5833 13.8958 14.7292 14.1875 14.9375L73.625 50.1875C74.5 50.6875 74.9375 51.2708 74.9375 51.9375C74.9375 52.6042 74.5 53.1875 73.625 53.6875L14.1875 88.9375C13.8958 89.1458 13.625 89.2917 13.375 89.375C13.125 89.4583 12.8958 89.5 12.6875 89.5Z" fill="white"/>
</svg>
