<svg width="16" height="17" viewBox="0 0 16 17" fill="none" xmlns="http://www.w3.org/2000/svg">
<path d="M8 16.3281C9.08854 16.3281 10.112 16.1198 11.0703 15.7031C12.0339 15.2865 12.8828 14.7109 13.6172 13.9766C14.3516 13.2422 14.9271 12.3958 15.3438 11.4375C15.7604 10.474 15.9688 9.44792 15.9688 8.35938C15.9688 7.27083 15.7604 6.2474 15.3438 5.28906C14.9271 4.32552 14.3516 3.47656 13.6172 2.74219C12.8828 2.00781 12.0339 1.43229 11.0703 1.01562C10.1068 0.598958 9.08073 0.390625 7.99219 0.390625C6.90365 0.390625 5.8776 0.598958 4.91406 1.01562C3.95573 1.43229 3.10938 2.00781 2.375 2.74219C1.64583 3.47656 1.07292 4.32552 0.65625 5.28906C0.239583 6.2474 0.03125 7.27083 0.03125 8.35938C0.03125 9.44792 0.239583 10.474 0.65625 11.4375C1.07292 12.3958 1.64844 13.2422 2.38281 13.9766C3.11719 14.7109 3.96354 15.2865 4.92188 15.7031C5.88542 16.1198 6.91146 16.3281 8 16.3281ZM3.64844 11.3906C3.47135 11.5052 3.29688 11.526 3.125 11.4531C2.95312 11.3802 2.86719 11.2474 2.86719 11.0547V5.67969C2.86719 5.49219 2.95573 5.36198 3.13281 5.28906C3.3099 5.21615 3.48177 5.23177 3.64844 5.33594L7.67188 7.95312C7.82812 8.05208 7.90625 8.1901 7.90625 8.36719C7.90625 8.53906 7.82812 8.67969 7.67188 8.78906L3.64844 11.3906ZM9.04688 11.3828C8.85417 11.3828 8.71354 11.3359 8.625 11.2422C8.53646 11.1484 8.49219 11.026 8.49219 10.875V5.84375C8.49219 5.50521 8.67708 5.33594 9.04688 5.33594H9.80469C10.1797 5.33594 10.3672 5.50521 10.3672 5.84375V10.875C10.3672 11.026 10.3203 11.1484 10.2266 11.2422C10.138 11.3359 9.9974 11.3828 9.80469 11.3828H9.04688ZM11.8438 11.3828C11.651 11.3828 11.5078 11.3359 11.4141 11.2422C11.3203 11.1484 11.2734 11.026 11.2734 10.875V5.84375C11.2734 5.50521 11.4635 5.33594 11.8438 5.33594H12.6094C12.7917 5.33594 12.9271 5.38281 13.0156 5.47656C13.1094 5.57031 13.1562 5.69271 13.1562 5.84375V10.875C13.1562 11.026 13.1094 11.1484 13.0156 11.2422C12.9271 11.3359 12.7917 11.3828 12.6094 11.3828H11.8438Z" fill="white"/>
</svg>
