<svg xmlns="http://www.w3.org/2000/svg" width="24" height="24"><path style="stroke:none;fill-rule:nonzero;fill:#fff;fill-opacity:1" d="M3.89 23.285h16.22c.988 0 1.726-.32 2.21-.973.489-.64.735-1.605.735-2.886V4.152c0-1.289-.246-2.25-.735-2.902-.484-.652-1.222-.973-2.21-.973H3.89c-.98 0-1.718.32-2.21.973-.489.64-.735 1.61-.735 2.902v15.274c0 1.281.246 2.246.735 2.887.492.652 1.23.972 2.21.972Zm.02-2.008c-.469 0-.828-.164-1.078-.492-.25-.332-.375-.82-.375-1.473V4.262c0-.649.125-1.14.375-1.477.25-.332.61-.5 1.078-.5h16.18c.465 0 .82.168 1.07.5.254.336.383.828.383 1.477v15.05c0 .653-.129 1.141-.383 1.473-.25.328-.605.492-1.07.492Zm6.348-4.613 5.344-4.203c.18-.137.289-.399.28-.676.009-.273-.1-.527-.28-.66l-5.344-4.223a.54.54 0 0 0-.621-.078c-.2.082-.328.336-.317.614v8.687c0 .309.098.52.297.637.207.11.422.078.64-.102Zm0 0"/></svg>