<?xml version="1.0" encoding="UTF-8"?>
<svg xmlns="http://www.w3.org/2000/svg" xmlns:xlink="http://www.w3.org/1999/xlink" width="24" height="20.4" viewBox="0 0 24 20.4" version="1.1">
<g id="surface1">
<path style=" stroke:none;fill-rule:nonzero;fill:rgb(100%,100%,100%);fill-opacity:1;" d="M 7.914062 19.527344 L 20.71875 19.527344 C 21.695312 19.527344 22.429688 19.285156 22.921875 18.796875 C 23.414062 18.316406 23.664062 17.589844 23.664062 16.621094 L 23.664062 7.78125 C 23.664062 6.820312 23.414062 6.09375 22.921875 5.605469 C 22.429688 5.117188 21.695312 4.875 20.71875 4.875 L 7.914062 4.875 C 6.929688 4.875 6.195312 5.117188 5.699219 5.605469 C 5.210938 6.085938 4.96875 6.8125 4.96875 7.78125 L 4.96875 16.621094 C 4.96875 17.589844 5.210938 18.316406 5.699219 18.796875 C 6.195312 19.285156 6.929688 19.527344 7.914062 19.527344 Z M 7.914062 3.601562 L 18.929688 3.601562 L 18.929688 3.441406 C 18.929688 2.476562 18.679688 1.753906 18.1875 1.265625 C 17.695312 0.777344 16.960938 0.535156 15.984375 0.535156 L 3.28125 0.535156 C 2.300781 0.535156 1.5625 0.777344 1.070312 1.265625 C 0.582031 1.746094 0.335938 2.472656 0.335938 3.441406 L 0.335938 12.28125 C 0.335938 13.25 0.582031 13.976562 1.070312 14.464844 C 1.5625 14.945312 2.300781 15.1875 3.28125 15.1875 L 3.683594 15.1875 L 3.683594 7.78125 C 3.683594 6.898438 3.851562 6.148438 4.179688 5.523438 C 4.519531 4.898438 5 4.421875 5.625 4.097656 C 6.257812 3.765625 7.019531 3.601562 7.914062 3.601562 Z M 9.742188 12.214844 C 9.742188 11.972656 9.820312 11.773438 9.976562 11.625 C 10.132812 11.46875 10.332031 11.390625 10.574219 11.390625 L 13.507812 11.390625 L 13.507812 8.457031 C 13.507812 8.210938 13.582031 8.011719 13.726562 7.855469 C 13.875 7.699219 14.070312 7.621094 14.304688 7.621094 C 14.550781 7.621094 14.746094 7.699219 14.898438 7.855469 C 15.054688 8.011719 15.132812 8.210938 15.132812 8.457031 L 15.132812 11.390625 L 18.074219 11.390625 C 18.320312 11.390625 18.515625 11.46875 18.664062 11.625 C 18.820312 11.773438 18.898438 11.972656 18.898438 12.214844 C 18.898438 12.453125 18.820312 12.648438 18.664062 12.796875 C 18.507812 12.941406 18.3125 13.011719 18.074219 13.011719 L 15.132812 13.011719 L 15.132812 15.957031 C 15.132812 16.199219 15.054688 16.398438 14.898438 16.554688 C 14.746094 16.707031 14.550781 16.78125 14.304688 16.78125 C 14.070312 16.78125 13.875 16.707031 13.726562 16.554688 C 13.582031 16.398438 13.507812 16.199219 13.507812 15.957031 L 13.507812 13.011719 L 10.574219 13.011719 C 10.332031 13.011719 10.132812 12.941406 9.976562 12.796875 C 9.820312 12.648438 9.742188 12.453125 9.742188 12.214844 Z M 9.742188 12.214844 "/>
</g>
</svg>
