<svg width="124" height="124" viewBox="0 0 124 124" fill="none" xmlns="http://www.w3.org/2000/svg">
<path d="M5.9375 40.5625C9.3125 40.5625 11 38.8542 11 35.4375V20.6875C11 17.4375 11.8333 15 13.5 13.375C15.1667 11.7083 17.5625 10.875 20.6875 10.875H35.8125C39.2292 10.875 40.9375 9.1875 40.9375 5.8125C40.9375 2.47917 39.2292 0.8125 35.8125 0.8125H20.5625C14.0208 0.8125 9.10417 2.4375 5.8125 5.6875C2.5625 8.89583 0.9375 13.7083 0.9375 20.125V35.4375C0.9375 38.8542 2.60417 40.5625 5.9375 40.5625ZM118.25 40.5625C121.625 40.5625 123.312 38.8542 123.312 35.4375V20.125C123.312 13.7083 121.667 8.89583 118.375 5.6875C115.125 2.4375 110.229 0.8125 103.688 0.8125H88.375C85 0.8125 83.3125 2.47917 83.3125 5.8125C83.3125 9.1875 85 10.875 88.375 10.875H103.5C106.583 10.875 108.979 11.7083 110.688 13.375C112.396 15 113.25 17.4375 113.25 20.6875V35.4375C113.25 38.8542 114.917 40.5625 118.25 40.5625ZM20.5625 123.125H35.8125C39.2292 123.125 40.9375 121.458 40.9375 118.125C40.9375 114.75 39.2292 113.062 35.8125 113.062H20.6875C17.5625 113.062 15.1667 112.229 13.5 110.562C11.8333 108.938 11 106.5 11 103.25V88.5C11 85.0833 9.3125 83.375 5.9375 83.375C2.60417 83.375 0.9375 85.0833 0.9375 88.5V103.75C0.9375 110.208 2.5625 115.042 5.8125 118.25C9.10417 121.5 14.0208 123.125 20.5625 123.125ZM88.375 123.125H103.688C110.229 123.125 115.125 121.5 118.375 118.25C121.667 115.042 123.312 110.208 123.312 103.75V88.5C123.312 85.0833 121.625 83.375 118.25 83.375C114.917 83.375 113.25 85.0833 113.25 88.5V103.25C113.25 106.5 112.396 108.938 110.688 110.562C108.979 112.229 106.583 113.062 103.5 113.062H88.375C85 113.062 83.3125 114.75 83.3125 118.125C83.3125 121.458 85 123.125 88.375 123.125ZM33.1875 62C33.1875 63.5 33.6875 64.7292 34.6875 65.6875C35.6875 66.6458 36.9792 67.125 38.5625 67.125H56.9375V85.5625C56.9375 87.1458 57.4167 88.4375 58.375 89.4375C59.3333 90.3958 60.5625 90.875 62.0625 90.875C63.6458 90.875 64.9167 90.3958 65.875 89.4375C66.875 88.4375 67.375 87.1458 67.375 85.5625V67.125H85.8125C87.3958 67.125 88.6667 66.6458 89.625 65.6875C90.625 64.7292 91.125 63.5 91.125 62C91.125 60.4167 90.625 59.1458 89.625 58.1875C88.6667 57.1875 87.3958 56.6875 85.8125 56.6875H67.375V38.3125C67.375 36.6875 66.875 35.3958 65.875 34.4375C64.9167 33.4375 63.6458 32.9375 62.0625 32.9375C60.5625 32.9375 59.3333 33.4375 58.375 34.4375C57.4167 35.4375 56.9375 36.7292 56.9375 38.3125V56.6875H38.5625C36.9375 56.6875 35.625 57.1875 34.625 58.1875C33.6667 59.1458 33.1875 60.4167 33.1875 62Z" fill="white"/>
</svg>
