<svg width="123" height="124" viewBox="0 0 123 124" fill="none" xmlns="http://www.w3.org/2000/svg">
<path d="M0.375 50.125C0.375 57 1.66667 63.4583 4.25 69.5C6.83333 75.5 10.4167 80.7917 15 85.375C19.5833 89.9583 24.875 93.5417 30.875 96.125C36.9167 98.7083 43.375 100 50.25 100C55.6667 100 60.8333 99.1667 65.75 97.5C70.6667 95.8333 75.1667 93.5417 79.25 90.625L110 121.438C110.75 122.146 111.562 122.667 112.438 123C113.354 123.375 114.312 123.562 115.312 123.562C116.729 123.562 117.979 123.229 119.062 122.562C120.146 121.938 120.979 121.062 121.562 119.938C122.188 118.812 122.5 117.562 122.5 116.188C122.5 115.188 122.312 114.25 121.938 113.375C121.604 112.5 121.104 111.729 120.438 111.062L89.875 80.3125C93.0833 76.1458 95.5833 71.5 97.375 66.375C99.2083 61.25 100.125 55.8333 100.125 50.125C100.125 43.25 98.8333 36.8125 96.25 30.8125C93.6667 24.7708 90.0833 19.4583 85.5 14.875C80.9167 10.2917 75.6042 6.70833 69.5625 4.125C63.5625 1.54167 57.125 0.25 50.25 0.25C43.375 0.25 36.9167 1.54167 30.875 4.125C24.875 6.70833 19.5833 10.2917 15 14.875C10.4167 19.4583 6.83333 24.7708 4.25 30.8125C1.66667 36.8125 0.375 43.25 0.375 50.125ZM11.0625 50.125C11.0625 44.7083 12.0625 39.6458 14.0625 34.9375C16.1042 30.1875 18.9167 26.0208 22.5 22.4375C26.125 18.8125 30.2917 16 35 14C39.75 11.9583 44.8333 10.9375 50.25 10.9375C55.6667 10.9375 60.7292 11.9583 65.4375 14C70.1875 16 74.3542 18.8125 77.9375 22.4375C81.5208 26.0208 84.3333 30.1875 86.375 34.9375C88.4167 39.6458 89.4375 44.7083 89.4375 50.125C89.4375 55.5417 88.4167 60.625 86.375 65.375C84.3333 70.0833 81.5208 74.2292 77.9375 77.8125C74.3542 81.3958 70.1875 84.2083 65.4375 86.25C60.7292 88.2917 55.6667 89.3125 50.25 89.3125C44.8333 89.3125 39.75 88.2917 35 86.25C30.2917 84.2083 26.125 81.3958 22.5 77.8125C18.9167 74.2292 16.1042 70.0833 14.0625 65.375C12.0625 60.625 11.0625 55.5417 11.0625 50.125ZM29.625 50.125C29.625 51.4167 30.0625 52.5 30.9375 53.375C31.8542 54.25 32.9375 54.6875 34.1875 54.6875H45.6875V66.125C45.6875 67.4167 46.125 68.5208 47 69.4375C47.9167 70.3125 49 70.75 50.25 70.75C51.5417 70.75 52.625 70.3125 53.5 69.4375C54.4167 68.5208 54.875 67.4167 54.875 66.125V54.6875H66.3125C67.6042 54.6875 68.6875 54.25 69.5625 53.375C70.4375 52.5 70.875 51.4167 70.875 50.125C70.875 48.8333 70.4375 47.75 69.5625 46.875C68.6875 45.9583 67.6042 45.5 66.3125 45.5H54.875V34.0625C54.875 32.7708 54.4167 31.6875 53.5 30.8125C52.625 29.8958 51.5417 29.4375 50.25 29.4375C49 29.4375 47.9167 29.8958 47 30.8125C46.125 31.6875 45.6875 32.7708 45.6875 34.0625V45.5H34.1875C32.9375 45.5 31.8542 45.9583 30.9375 46.875C30.0625 47.75 29.625 48.8333 29.625 50.125Z" fill="white"/>
</svg>
