<?xml version="1.0" encoding="UTF-8"?>
<svg xmlns="http://www.w3.org/2000/svg" xmlns:xlink="http://www.w3.org/1999/xlink" width="24" height="25.333333" viewBox="0 0 24 25.333333" version="1.1">
<g id="surface1">
<path style=" stroke:none;fill-rule:nonzero;fill:rgb(100%,100%,100%);fill-opacity:1;" d="M 1.355469 14.78125 L 9.699219 23.125 C 10.46875 23.894531 11.234375 24.285156 12 24.292969 C 12.765625 24.296875 13.527344 23.921875 14.292969 23.15625 L 22.675781 14.761719 C 23.441406 14.003906 23.820312 13.242188 23.8125 12.480469 C 23.804688 11.707031 23.417969 10.9375 22.644531 10.167969 L 14.3125 1.832031 C 13.542969 1.0625 12.773438 0.671875 12.011719 0.667969 C 11.246094 0.660156 10.484375 1.039062 9.71875 1.800781 L 1.324219 10.1875 C 0.558594 10.957031 0.179688 11.726562 0.1875 12.488281 C 0.195312 13.246094 0.582031 14.011719 1.355469 14.78125 Z M 6.90625 12.488281 C 6.90625 12.21875 6.992188 12 7.167969 11.832031 C 7.339844 11.660156 7.5625 11.574219 7.832031 11.574219 L 11.09375 11.574219 L 11.09375 8.3125 C 11.09375 8.042969 11.171875 7.820312 11.332031 7.644531 C 11.5 7.472656 11.714844 7.386719 11.980469 7.386719 C 12.25 7.386719 12.46875 7.472656 12.636719 7.644531 C 12.808594 7.820312 12.894531 8.042969 12.894531 8.3125 L 12.894531 11.574219 L 16.167969 11.574219 C 16.4375 11.574219 16.65625 11.660156 16.824219 11.832031 C 16.996094 12 17.082031 12.21875 17.082031 12.488281 C 17.082031 12.753906 16.996094 12.96875 16.824219 13.136719 C 16.648438 13.296875 16.429688 13.375 16.167969 13.375 L 12.894531 13.375 L 12.894531 16.644531 C 12.894531 16.917969 12.808594 17.140625 12.636719 17.3125 C 12.46875 17.480469 12.25 17.5625 11.980469 17.5625 C 11.714844 17.5625 11.5 17.480469 11.332031 17.3125 C 11.171875 17.140625 11.09375 16.917969 11.09375 16.644531 L 11.09375 13.375 L 7.832031 13.375 C 7.5625 13.375 7.339844 13.296875 7.167969 13.136719 C 6.992188 12.96875 6.90625 12.753906 6.90625 12.488281 Z M 6.90625 12.488281 "/>
</g>
</svg>
