<?xml version="1.0" encoding="UTF-8"?>
<svg xmlns="http://www.w3.org/2000/svg" xmlns:xlink="http://www.w3.org/1999/xlink" width="24" height="17.454545" viewBox="0 0 24 17.454545" version="1.1">
<g id="surface1">
<path style=" stroke:none;fill-rule:nonzero;fill:rgb(100%,100%,100%);fill-opacity:1;" d="M 2.8125 16.867188 L 17.070312 16.867188 C 17.832031 16.867188 18.425781 16.644531 18.851562 16.203125 C 19.277344 15.765625 19.492188 15.105469 19.492188 14.222656 L 19.492188 9.996094 L 18.121094 9.996094 L 18.121094 14.164062 C 18.121094 14.601562 18.003906 14.933594 17.769531 15.160156 C 17.535156 15.382812 17.210938 15.496094 16.789062 15.496094 L 2.828125 15.496094 C 2.402344 15.496094 2.078125 15.382812 1.847656 15.160156 C 1.621094 14.933594 1.507812 14.597656 1.507812 14.15625 L 1.507812 3.910156 C 1.507812 3.492188 1.617188 3.171875 1.832031 2.957031 C 2.046875 2.742188 2.359375 2.632812 2.769531 2.632812 L 4.566406 2.632812 C 4.851562 2.632812 5.089844 2.671875 5.285156 2.753906 C 5.484375 2.832031 5.691406 2.964844 5.90625 3.144531 L 6.425781 3.578125 C 6.703125 3.808594 6.976562 3.96875 7.246094 4.066406 C 7.511719 4.15625 7.855469 4.203125 8.277344 4.203125 L 11.183594 4.203125 L 11.183594 2.828125 L 8.632812 2.828125 C 8.441406 2.828125 8.265625 2.816406 8.113281 2.785156 C 7.964844 2.753906 7.824219 2.699219 7.6875 2.625 C 7.558594 2.550781 7.421875 2.453125 7.277344 2.328125 L 6.757812 1.902344 C 6.570312 1.742188 6.390625 1.617188 6.214844 1.527344 C 6.042969 1.433594 5.851562 1.371094 5.640625 1.328125 C 5.4375 1.289062 5.195312 1.269531 4.917969 1.269531 L 2.488281 1.269531 C 1.738281 1.269531 1.160156 1.484375 0.75 1.910156 C 0.339844 2.335938 0.136719 2.976562 0.136719 3.835938 L 0.136719 14.222656 C 0.136719 15.105469 0.359375 15.765625 0.800781 16.203125 C 1.25 16.644531 1.921875 16.867188 2.8125 16.867188 Z M 0.972656 7.320312 L 11.183594 7.320312 L 11.183594 6.035156 L 0.972656 6.035156 Z M 13.160156 10.695312 L 20.480469 10.695312 C 21.367188 10.695312 22.03125 10.476562 22.472656 10.039062 C 22.921875 9.597656 23.148438 8.933594 23.148438 8.054688 L 23.148438 3 C 23.148438 2.125 22.921875 1.46875 22.472656 1.03125 C 22.03125 0.589844 21.367188 0.367188 20.480469 0.367188 L 13.160156 0.367188 C 12.265625 0.367188 11.597656 0.589844 11.148438 1.03125 C 10.703125 1.46875 10.484375 2.125 10.484375 3 L 10.484375 8.054688 C 10.484375 8.933594 10.703125 9.597656 11.148438 10.039062 C 11.597656 10.476562 12.265625 10.695312 13.160156 10.695312 Z M 13.109375 9.410156 C 12.683594 9.410156 12.351562 9.296875 12.121094 9.066406 C 11.886719 8.839844 11.769531 8.503906 11.769531 8.054688 L 11.769531 3.007812 C 11.769531 2.558594 11.886719 2.222656 12.121094 1.996094 C 12.351562 1.765625 12.683594 1.652344 13.109375 1.652344 L 20.523438 1.652344 C 20.953125 1.652344 21.285156 1.765625 21.511719 1.996094 C 21.746094 2.222656 21.859375 2.558594 21.859375 3.007812 L 21.859375 8.054688 C 21.859375 8.503906 21.746094 8.839844 21.511719 9.066406 C 21.285156 9.296875 20.960938 9.410156 20.539062 9.410156 Z M 16.816406 8.257812 C 16.972656 8.257812 17.097656 8.210938 17.191406 8.113281 C 17.285156 8.015625 17.335938 7.890625 17.335938 7.738281 L 17.335938 6.066406 L 19.003906 6.066406 C 19.160156 6.066406 19.285156 6.023438 19.378906 5.933594 C 19.476562 5.835938 19.527344 5.707031 19.527344 5.546875 C 19.527344 5.390625 19.476562 5.265625 19.378906 5.171875 C 19.285156 5.078125 19.160156 5.027344 19.003906 5.027344 L 17.335938 5.027344 L 17.335938 3.359375 C 17.335938 3.203125 17.285156 3.078125 17.191406 2.984375 C 17.097656 2.886719 16.972656 2.839844 16.816406 2.839844 C 16.65625 2.839844 16.527344 2.886719 16.433594 2.984375 C 16.339844 3.078125 16.296875 3.203125 16.296875 3.359375 L 16.296875 5.027344 L 14.625 5.027344 C 14.472656 5.027344 14.347656 5.078125 14.25 5.171875 C 14.152344 5.265625 14.105469 5.390625 14.105469 5.546875 C 14.105469 5.707031 14.152344 5.835938 14.25 5.933594 C 14.347656 6.023438 14.472656 6.066406 14.625 6.066406 L 16.296875 6.066406 L 16.296875 7.738281 C 16.296875 7.890625 16.339844 8.015625 16.433594 8.113281 C 16.527344 8.210938 16.65625 8.257812 16.816406 8.257812 Z M 16.816406 8.257812 "/>
</g>
</svg>
