<svg width="116" height="116" viewBox="0 0 116 116" fill="none" xmlns="http://www.w3.org/2000/svg">
<path d="M20.5625 115.5H96.375C102.917 115.5 107.812 113.875 111.062 110.625C114.354 107.417 116 102.583 116 96.125V19.8125C116 13.3542 114.354 8.52083 111.062 5.3125C107.812 2.0625 102.917 0.4375 96.375 0.4375H20.5625C14.0208 0.4375 9.10417 2.0625 5.8125 5.3125C2.5625 8.52083 0.9375 13.3542 0.9375 19.8125V96.125C0.9375 102.583 2.5625 107.417 5.8125 110.625C9.10417 113.875 14.0208 115.5 20.5625 115.5ZM28 57.9375C28 56.3125 28.5208 55 29.5625 54C30.6042 52.9583 31.9375 52.4375 33.5625 52.4375H53.125V32.875C53.125 31.25 53.6042 29.9167 54.5625 28.875C55.5625 27.8333 56.8542 27.3125 58.4375 27.3125C60.0625 27.3125 61.375 27.8333 62.375 28.875C63.4167 29.9167 63.9375 31.25 63.9375 32.875V52.4375H83.5625C85.1875 52.4375 86.5 52.9583 87.5 54C88.5417 55 89.0625 56.3125 89.0625 57.9375C89.0625 59.5208 88.5417 60.8125 87.5 61.8125C86.4583 62.7708 85.1458 63.25 83.5625 63.25H63.9375V82.875C63.9375 84.5 63.4167 85.8333 62.375 86.875C61.375 87.875 60.0625 88.375 58.4375 88.375C56.8542 88.375 55.5625 87.875 54.5625 86.875C53.6042 85.8333 53.125 84.5 53.125 82.875V63.25H33.5625C31.9375 63.25 30.6042 62.7708 29.5625 61.8125C28.5208 60.8125 28 59.5208 28 57.9375Z" fill="white"/>
</svg>
