<?xml version="1.0" encoding="UTF-8"?>
<svg xmlns="http://www.w3.org/2000/svg" xmlns:xlink="http://www.w3.org/1999/xlink" width="24" height="18" viewBox="0 0 24 18" version="1.1">
<g id="surface1">
<path style=" stroke:none;fill-rule:nonzero;fill:rgb(100%,100%,100%);fill-opacity:1;" d="M 3.890625 17.464844 L 20.109375 17.464844 C 21.097656 17.464844 21.835938 17.222656 22.320312 16.734375 C 22.808594 16.253906 23.054688 15.53125 23.054688 14.570312 L 23.054688 3.113281 C 23.054688 2.148438 22.808594 1.425781 22.320312 0.9375 C 21.835938 0.449219 21.097656 0.207031 20.109375 0.207031 L 3.890625 0.207031 C 2.910156 0.207031 2.171875 0.449219 1.679688 0.9375 C 1.191406 1.417969 0.945312 2.144531 0.945312 3.113281 L 0.945312 14.570312 C 0.945312 15.53125 1.191406 16.253906 1.679688 16.734375 C 2.171875 17.222656 2.910156 17.464844 3.890625 17.464844 Z M 7.425781 8.851562 C 7.425781 8.605469 7.503906 8.410156 7.660156 8.257812 C 7.816406 8.101562 8.015625 8.023438 8.257812 8.023438 L 11.195312 8.023438 L 11.195312 5.089844 C 11.195312 4.847656 11.265625 4.648438 11.410156 4.492188 C 11.558594 4.335938 11.753906 4.257812 11.992188 4.257812 C 12.234375 4.257812 12.429688 4.335938 12.582031 4.492188 C 12.738281 4.648438 12.816406 4.847656 12.816406 5.089844 L 12.816406 8.023438 L 15.757812 8.023438 C 16.003906 8.023438 16.199219 8.101562 16.351562 8.257812 C 16.507812 8.410156 16.585938 8.605469 16.585938 8.851562 C 16.585938 9.085938 16.507812 9.28125 16.351562 9.429688 C 16.195312 9.574219 15.996094 9.648438 15.757812 9.648438 L 12.816406 9.648438 L 12.816406 12.589844 C 12.816406 12.835938 12.738281 13.035156 12.582031 13.191406 C 12.429688 13.339844 12.234375 13.414062 11.992188 13.414062 C 11.753906 13.414062 11.558594 13.339844 11.410156 13.191406 C 11.265625 13.035156 11.195312 12.835938 11.195312 12.589844 L 11.195312 9.648438 L 8.257812 9.648438 C 8.015625 9.648438 7.816406 9.574219 7.660156 9.429688 C 7.503906 9.28125 7.425781 9.085938 7.425781 8.851562 Z M 7.425781 8.851562 "/>
</g>
</svg>
