<svg width="120" height="119" viewBox="0 0 120 119" fill="none" xmlns="http://www.w3.org/2000/svg">
<path d="M0.9375 32.25C0.9375 33.4583 1.35417 34.5 2.1875 35.375C3.0625 36.2083 4.125 36.625 5.375 36.625H18.0625V49.375C18.0625 50.625 18.5 51.6667 19.375 52.5C20.25 53.3333 21.2708 53.75 22.4375 53.75C23.6875 53.75 24.7292 53.3333 25.5625 52.5C26.4375 51.625 26.875 50.5833 26.875 49.375V36.625H39.625C40.875 36.625 41.9167 36.2083 42.75 35.375C43.625 34.5 44.0625 33.4583 44.0625 32.25C44.0625 31 43.625 29.9583 42.75 29.125C41.9167 28.25 40.875 27.8125 39.625 27.8125H26.875V15.0625C26.875 13.8125 26.4375 12.7708 25.5625 11.9375C24.7292 11.0625 23.6875 10.625 22.4375 10.625C21.2292 10.625 20.1875 11.0625 19.3125 11.9375C18.4792 12.7708 18.0625 13.8125 18.0625 15.0625V27.8125H5.375C4.125 27.8125 3.0625 28.25 2.1875 29.125C1.35417 29.9583 0.9375 31 0.9375 32.25ZM64.375 62.4375L100.625 8.8125C101.042 8.1875 101.333 7.60417 101.5 7.0625C101.708 6.52083 101.812 5.9375 101.812 5.3125C101.812 4.0625 101.333 3.02083 100.375 2.1875C99.4583 1.3125 98.3542 0.875 97.0625 0.875C95.9792 0.875 95.0625 1.10417 94.3125 1.5625C93.6042 1.97917 92.8125 2.83333 91.9375 4.125L56.0625 57.375L19.75 110.875C19.3333 111.458 19.0208 112.021 18.8125 112.562C18.6042 113.146 18.5 113.771 18.5 114.438C18.5 115.812 18.9792 116.896 19.9375 117.688C20.9375 118.521 22.125 118.938 23.5 118.938C24.5417 118.938 25.4167 118.688 26.125 118.188C26.8333 117.729 27.5833 116.917 28.375 115.75L64.375 62.4375ZM76.0625 91.875C76.0625 93.125 76.4792 94.1875 77.3125 95.0625C78.1875 95.8958 79.2292 96.3125 80.4375 96.3125H114.75C115.958 96.3125 117 95.8958 117.875 95.0625C118.75 94.1875 119.188 93.125 119.188 91.875C119.188 90.6667 118.75 89.6458 117.875 88.8125C117 87.9375 115.958 87.5 114.75 87.5H80.4375C79.2292 87.5 78.1875 87.9375 77.3125 88.8125C76.4792 89.6458 76.0625 90.6667 76.0625 91.875Z" fill="white"/>
</svg>
