<?xml version="1.0" encoding="UTF-8"?>
<svg xmlns="http://www.w3.org/2000/svg" xmlns:xlink="http://www.w3.org/1999/xlink" width="24" height="22.5" viewBox="0 0 24 22.5" version="1.1">
<g id="surface1">
<path style=" stroke:none;fill-rule:nonzero;fill:rgb(100%,100%,100%);fill-opacity:1;" d="M 21.292969 1.757812 C 20.691406 1.15625 19.976562 0.777344 19.148438 0.621094 C 18.320312 0.457031 17.40625 0.375 16.40625 0.375 L 7.558594 0.375 C 6.574219 0.375 5.667969 0.457031 4.839844 0.621094 C 4.019531 0.777344 3.308594 1.15625 2.707031 1.757812 C 2.113281 2.351562 1.734375 3.058594 1.570312 3.878906 C 1.414062 4.699219 1.335938 5.601562 1.335938 6.585938 L 1.335938 15.445312 C 1.335938 16.445312 1.414062 17.359375 1.570312 18.1875 C 1.726562 19.007812 2.105469 19.714844 2.707031 20.308594 C 3.308594 20.910156 4.019531 21.289062 4.839844 21.445312 C 5.667969 21.609375 6.582031 21.691406 7.582031 21.691406 L 16.40625 21.691406 C 17.40625 21.691406 18.320312 21.609375 19.148438 21.445312 C 19.976562 21.289062 20.691406 20.910156 21.292969 20.308594 C 21.886719 19.714844 22.261719 19.007812 22.417969 18.1875 C 22.582031 17.359375 22.664062 16.445312 22.664062 15.445312 L 22.664062 6.621094 C 22.664062 5.621094 22.582031 4.710938 22.417969 3.890625 C 22.261719 3.0625 21.886719 2.351562 21.292969 1.757812 Z M 6.28125 11.050781 C 6.28125 10.746094 6.378906 10.5 6.574219 10.3125 C 6.769531 10.117188 7.019531 10.019531 7.324219 10.019531 L 10.992188 10.019531 L 10.992188 6.351562 C 10.992188 6.046875 11.082031 5.796875 11.261719 5.601562 C 11.449219 5.40625 11.691406 5.308594 11.988281 5.308594 C 12.292969 5.308594 12.539062 5.40625 12.726562 5.601562 C 12.921875 5.796875 13.019531 6.046875 13.019531 6.351562 L 13.019531 10.019531 L 16.699219 10.019531 C 17.003906 10.019531 17.25 10.117188 17.4375 10.3125 C 17.632812 10.5 17.730469 10.746094 17.730469 11.050781 C 17.730469 11.347656 17.632812 11.589844 17.4375 11.777344 C 17.242188 11.957031 16.996094 12.046875 16.699219 12.046875 L 13.019531 12.046875 L 13.019531 15.726562 C 13.019531 16.03125 12.921875 16.28125 12.726562 16.476562 C 12.539062 16.664062 12.292969 16.757812 11.988281 16.757812 C 11.691406 16.757812 11.449219 16.664062 11.261719 16.476562 C 11.082031 16.28125 10.992188 16.03125 10.992188 15.726562 L 10.992188 12.046875 L 7.324219 12.046875 C 7.019531 12.046875 6.769531 11.957031 6.574219 11.777344 C 6.378906 11.589844 6.28125 11.347656 6.28125 11.050781 Z M 6.28125 11.050781 "/>
</g>
</svg>
