<svg width="16" height="17" viewBox="0 0 16 17" fill="none" xmlns="http://www.w3.org/2000/svg">
<path d="M8 16.3281C9.08854 16.3281 10.112 16.1198 11.0703 15.7031C12.0339 15.2865 12.8828 14.7109 13.6172 13.9766C14.3516 13.2422 14.9271 12.3958 15.3438 11.4375C15.7604 10.474 15.9688 9.44792 15.9688 8.35938C15.9688 7.27083 15.7604 6.2474 15.3438 5.28906C14.9271 4.32552 14.3516 3.47656 13.6172 2.74219C12.8828 2.00781 12.0339 1.43229 11.0703 1.01562C10.1068 0.598958 9.08073 0.390625 7.99219 0.390625C6.90365 0.390625 5.8776 0.598958 4.91406 1.01562C3.95573 1.43229 3.10938 2.00781 2.375 2.74219C1.64583 3.47656 1.07292 4.32552 0.65625 5.28906C0.239583 6.2474 0.03125 7.27083 0.03125 8.35938C0.03125 9.44792 0.239583 10.474 0.65625 11.4375C1.07292 12.3958 1.64844 13.2422 2.38281 13.9766C3.11719 14.7109 3.96354 15.2865 4.92188 15.7031C5.88542 16.1198 6.91146 16.3281 8 16.3281ZM4.1875 8.36719C4.1875 8.16406 4.2526 8 4.38281 7.875C4.51302 7.74479 4.67969 7.67969 4.88281 7.67969H7.32812V5.23438C7.32812 5.03125 7.38802 4.86458 7.50781 4.73438C7.63281 4.60417 7.79427 4.53906 7.99219 4.53906C8.19531 4.53906 8.35938 4.60417 8.48438 4.73438C8.61458 4.86458 8.67969 5.03125 8.67969 5.23438V7.67969H11.1328C11.3359 7.67969 11.5 7.74479 11.625 7.875C11.7552 8 11.8203 8.16406 11.8203 8.36719C11.8203 8.5651 11.7552 8.72656 11.625 8.85156C11.4948 8.97135 11.3307 9.03125 11.1328 9.03125H8.67969V11.4844C8.67969 11.6875 8.61458 11.8542 8.48438 11.9844C8.35938 12.1094 8.19531 12.1719 7.99219 12.1719C7.79427 12.1719 7.63281 12.1094 7.50781 11.9844C7.38802 11.8542 7.32812 11.6875 7.32812 11.4844V9.03125H4.88281C4.67969 9.03125 4.51302 8.97135 4.38281 8.85156C4.2526 8.72656 4.1875 8.5651 4.1875 8.36719Z" fill="white"/>
</svg>
