<svg width="143" height="143" viewBox="0 0 143 143" fill="none" xmlns="http://www.w3.org/2000/svg">
<path d="M7.8125 85.6875L57.875 135.75C62.5 140.375 67.1042 142.708 71.6875 142.75C76.2708 142.792 80.8542 140.521 85.4375 135.938L135.75 85.5625C140.333 81.0208 142.604 76.4583 142.562 71.875C142.521 67.25 140.188 62.625 135.562 58L85.5625 8C80.9375 3.375 76.3333 1.04167 71.75 1C67.1667 0.958333 62.5833 3.22917 58 7.8125L7.625 58.125C3.04167 62.75 0.770833 67.3542 0.8125 71.9375C0.854167 76.4792 3.1875 81.0625 7.8125 85.6875ZM41.125 71.9375C41.125 70.3125 41.6458 69 42.6875 68C43.7292 66.9583 45.0625 66.4375 46.6875 66.4375H66.25V46.875C66.25 45.25 66.7292 43.9167 67.6875 42.875C68.6875 41.8333 69.9792 41.3125 71.5625 41.3125C73.1875 41.3125 74.5 41.8333 75.5 42.875C76.5417 43.9167 77.0625 45.25 77.0625 46.875V66.4375H96.6875C98.3125 66.4375 99.625 66.9583 100.625 68C101.667 69 102.188 70.3125 102.188 71.9375C102.188 73.5208 101.667 74.8125 100.625 75.8125C99.5833 76.7708 98.2708 77.25 96.6875 77.25H77.0625V96.875C77.0625 98.5 76.5417 99.8333 75.5 100.875C74.5 101.875 73.1875 102.375 71.5625 102.375C69.9792 102.375 68.6875 101.875 67.6875 100.875C66.7292 99.8333 66.25 98.5 66.25 96.875V77.25H46.6875C45.0625 77.25 43.7292 76.7708 42.6875 75.8125C41.6458 74.8125 41.125 73.5208 41.125 71.9375Z" fill="white"/>
</svg>
