<svg width="16" height="17" viewBox="0 0 16 17" fill="none" xmlns="http://www.w3.org/2000/svg">
<path d="M0.367188 6.89062C0.367188 7.75 0.528646 8.55729 0.851562 9.3125C1.17448 10.0625 1.6224 10.724 2.19531 11.2969C2.76823 11.8698 3.42969 12.3177 4.17969 12.6406C4.9349 12.9635 5.74219 13.125 6.60156 13.125C7.27865 13.125 7.92448 13.0208 8.53906 12.8125C9.15365 12.6042 9.71615 12.3177 10.2266 11.9531L14.0703 15.8047C14.1641 15.8932 14.2656 15.9583 14.375 16C14.4896 16.0469 14.6094 16.0703 14.7344 16.0703C14.9115 16.0703 15.0677 16.0286 15.2031 15.9453C15.3385 15.8672 15.4427 15.7578 15.5156 15.6172C15.5938 15.4766 15.6328 15.3203 15.6328 15.1484C15.6328 15.0234 15.6094 14.9062 15.5625 14.7969C15.5208 14.6875 15.4583 14.5911 15.375 14.5078L11.5547 10.6641C11.9557 10.1432 12.2682 9.5625 12.4922 8.92188C12.7214 8.28125 12.8359 7.60417 12.8359 6.89062C12.8359 6.03125 12.6745 5.22656 12.3516 4.47656C12.0286 3.72135 11.5807 3.05729 11.0078 2.48438C10.4349 1.91146 9.77083 1.46354 9.01562 1.14062C8.26562 0.817708 7.46094 0.65625 6.60156 0.65625C5.74219 0.65625 4.9349 0.817708 4.17969 1.14062C3.42969 1.46354 2.76823 1.91146 2.19531 2.48438C1.6224 3.05729 1.17448 3.72135 0.851562 4.47656C0.528646 5.22656 0.367188 6.03125 0.367188 6.89062ZM1.70312 6.89062C1.70312 6.21354 1.82812 5.58073 2.07812 4.99219C2.33333 4.39844 2.6849 3.8776 3.13281 3.42969C3.58594 2.97656 4.10677 2.625 4.69531 2.375C5.28906 2.11979 5.92448 1.99219 6.60156 1.99219C7.27865 1.99219 7.91146 2.11979 8.5 2.375C9.09375 2.625 9.61458 2.97656 10.0625 3.42969C10.5104 3.8776 10.862 4.39844 11.1172 4.99219C11.3724 5.58073 11.5 6.21354 11.5 6.89062C11.5 7.56771 11.3724 8.20312 11.1172 8.79688C10.862 9.38542 10.5104 9.90365 10.0625 10.3516C9.61458 10.7995 9.09375 11.151 8.5 11.4062C7.91146 11.6615 7.27865 11.7891 6.60156 11.7891C5.92448 11.7891 5.28906 11.6615 4.69531 11.4062C4.10677 11.151 3.58594 10.7995 3.13281 10.3516C2.6849 9.90365 2.33333 9.38542 2.07812 8.79688C1.82812 8.20312 1.70312 7.56771 1.70312 6.89062ZM4.02344 6.89062C4.02344 7.05208 4.07812 7.1875 4.1875 7.29688C4.30208 7.40625 4.4375 7.46094 4.59375 7.46094H6.03125V8.89062C6.03125 9.05208 6.08594 9.1901 6.19531 9.30469C6.3099 9.41406 6.44531 9.46875 6.60156 9.46875C6.76302 9.46875 6.89844 9.41406 7.00781 9.30469C7.1224 9.1901 7.17969 9.05208 7.17969 8.89062V7.46094H8.60938C8.77083 7.46094 8.90625 7.40625 9.01562 7.29688C9.125 7.1875 9.17969 7.05208 9.17969 6.89062C9.17969 6.72917 9.125 6.59375 9.01562 6.48438C8.90625 6.36979 8.77083 6.3125 8.60938 6.3125H7.17969V4.88281C7.17969 4.72135 7.1224 4.58594 7.00781 4.47656C6.89844 4.36198 6.76302 4.30469 6.60156 4.30469C6.44531 4.30469 6.3099 4.36198 6.19531 4.47656C6.08594 4.58594 6.03125 4.72135 6.03125 4.88281V6.3125H4.59375C4.4375 6.3125 4.30208 6.36979 4.1875 6.48438C4.07812 6.59375 4.02344 6.72917 4.02344 6.89062Z" fill="white"/>
</svg>
