<?xml version="1.0" encoding="UTF-8"?>
<svg xmlns="http://www.w3.org/2000/svg" xmlns:xlink="http://www.w3.org/1999/xlink" width="24" height="22.666667" viewBox="0 0 24 22.666667" version="1.1">
<g id="surface1">
<path style=" stroke:none;fill-rule:nonzero;fill:rgb(100%,100%,100%);fill-opacity:1;" d="M 6.707031 22.65625 C 6.917969 22.65625 7.105469 22.601562 7.269531 22.488281 C 7.445312 22.386719 7.65625 22.21875 7.90625 21.988281 L 11.667969 18.550781 L 18.707031 18.550781 C 19.742188 18.550781 20.613281 18.367188 21.324219 18 C 22.03125 17.632812 22.566406 17.09375 22.925781 16.386719 C 23.296875 15.675781 23.480469 14.8125 23.480469 13.792969 L 23.480469 5.8125 C 23.480469 4.792969 23.296875 3.925781 22.925781 3.21875 C 22.566406 2.511719 22.03125 1.972656 21.324219 1.605469 C 20.613281 1.230469 19.742188 1.042969 18.707031 1.042969 L 5.292969 1.042969 C 4.257812 1.042969 3.386719 1.230469 2.675781 1.605469 C 1.96875 1.972656 1.429688 2.511719 1.0625 3.21875 C 0.703125 3.925781 0.519531 4.792969 0.519531 5.8125 L 0.519531 13.792969 C 0.519531 14.8125 0.703125 15.675781 1.0625 16.386719 C 1.429688 17.09375 1.96875 17.632812 2.675781 18 C 3.386719 18.367188 4.257812 18.550781 5.292969 18.550781 L 5.78125 18.550781 L 5.78125 21.582031 C 5.78125 21.910156 5.859375 22.171875 6.019531 22.363281 C 6.179688 22.558594 6.410156 22.65625 6.707031 22.65625 Z M 6.917969 9.800781 C 6.917969 9.53125 7.003906 9.3125 7.175781 9.144531 C 7.351562 8.972656 7.574219 8.886719 7.84375 8.886719 L 11.105469 8.886719 L 11.105469 5.625 C 11.105469 5.355469 11.183594 5.132812 11.34375 4.957031 C 11.511719 4.785156 11.726562 4.699219 11.988281 4.699219 C 12.261719 4.699219 12.480469 4.785156 12.644531 4.957031 C 12.820312 5.132812 12.90625 5.355469 12.90625 5.625 L 12.90625 8.886719 L 16.175781 8.886719 C 16.449219 8.886719 16.667969 8.972656 16.832031 9.144531 C 17.007812 9.3125 17.09375 9.53125 17.09375 9.800781 C 17.09375 10.066406 17.007812 10.28125 16.832031 10.449219 C 16.660156 10.609375 16.441406 10.6875 16.175781 10.6875 L 12.90625 10.6875 L 12.90625 13.957031 C 12.90625 14.230469 12.820312 14.453125 12.644531 14.625 C 12.480469 14.792969 12.261719 14.875 11.988281 14.875 C 11.726562 14.875 11.511719 14.792969 11.34375 14.625 C 11.183594 14.453125 11.105469 14.230469 11.105469 13.957031 L 11.105469 10.6875 L 7.84375 10.6875 C 7.574219 10.6875 7.351562 10.609375 7.175781 10.449219 C 7.003906 10.28125 6.917969 10.066406 6.917969 9.800781 Z M 6.917969 9.800781 "/>
</g>
</svg>
