<?xml version="1.0" encoding="UTF-8"?>
<svg xmlns="http://www.w3.org/2000/svg" xmlns:xlink="http://www.w3.org/1999/xlink" width="24" height="25.5" viewBox="0 0 24 25.5" version="1.1">
<g id="surface1">
<path style=" stroke:none;fill-rule:nonzero;fill:rgb(100%,100%,100%);fill-opacity:1;" d="M 0.550781 10.335938 C 0.550781 11.625 0.792969 12.835938 1.277344 13.96875 C 1.761719 15.09375 2.433594 16.085938 3.292969 16.945312 C 4.152344 17.804688 5.144531 18.476562 6.269531 18.960938 C 7.402344 19.445312 8.613281 19.6875 9.902344 19.6875 C 10.917969 19.6875 11.886719 19.53125 12.808594 19.21875 C 13.730469 18.90625 14.574219 18.476562 15.339844 17.929688 L 21.105469 23.707031 C 21.246094 23.839844 21.398438 23.9375 21.5625 24 C 21.734375 24.070312 21.914062 24.105469 22.101562 24.105469 C 22.367188 24.105469 22.601562 24.042969 22.804688 23.917969 C 23.007812 23.800781 23.164062 23.636719 23.273438 23.425781 C 23.390625 23.214844 23.449219 22.980469 23.449219 22.722656 C 23.449219 22.535156 23.414062 22.359375 23.34375 22.195312 C 23.28125 22.03125 23.1875 21.886719 23.0625 21.761719 L 17.332031 15.996094 C 17.933594 15.214844 18.402344 14.34375 18.738281 13.382812 C 19.082031 12.421875 19.253906 11.40625 19.253906 10.335938 C 19.253906 9.046875 19.011719 7.839844 18.527344 6.714844 C 18.042969 5.582031 17.371094 4.585938 16.511719 3.726562 C 15.652344 2.867188 14.65625 2.195312 13.523438 1.710938 C 12.398438 1.226562 11.191406 0.984375 9.902344 0.984375 C 8.613281 0.984375 7.402344 1.226562 6.269531 1.710938 C 5.144531 2.195312 4.152344 2.867188 3.292969 3.726562 C 2.433594 4.585938 1.761719 5.582031 1.277344 6.714844 C 0.792969 7.839844 0.550781 9.046875 0.550781 10.335938 Z M 2.554688 10.335938 C 2.554688 9.320312 2.742188 8.371094 3.117188 7.488281 C 3.5 6.597656 4.027344 5.816406 4.699219 5.144531 C 5.378906 4.464844 6.160156 3.9375 7.042969 3.5625 C 7.933594 3.179688 8.886719 2.988281 9.902344 2.988281 C 10.917969 2.988281 11.867188 3.179688 12.75 3.5625 C 13.640625 3.9375 14.421875 4.464844 15.09375 5.144531 C 15.765625 5.816406 16.292969 6.597656 16.675781 7.488281 C 17.058594 8.371094 17.25 9.320312 17.25 10.335938 C 17.25 11.351562 17.058594 12.304688 16.675781 13.195312 C 16.292969 14.078125 15.765625 14.855469 15.09375 15.527344 C 14.421875 16.199219 13.640625 16.726562 12.75 17.109375 C 11.867188 17.492188 10.917969 17.683594 9.902344 17.683594 C 8.886719 17.683594 7.933594 17.492188 7.042969 17.109375 C 6.160156 16.726562 5.378906 16.199219 4.699219 15.527344 C 4.027344 14.855469 3.5 14.078125 3.117188 13.195312 C 2.742188 12.304688 2.554688 11.351562 2.554688 10.335938 Z M 6.035156 10.335938 C 6.035156 10.578125 6.117188 10.78125 6.28125 10.945312 C 6.453125 11.109375 6.65625 11.191406 6.890625 11.191406 L 9.046875 11.191406 L 9.046875 13.335938 C 9.046875 13.578125 9.128906 13.785156 9.292969 13.957031 C 9.464844 14.121094 9.667969 14.203125 9.902344 14.203125 C 10.144531 14.203125 10.347656 14.121094 10.511719 13.957031 C 10.683594 13.785156 10.769531 13.578125 10.769531 13.335938 L 10.769531 11.191406 L 12.914062 11.191406 C 13.15625 11.191406 13.359375 11.109375 13.523438 10.945312 C 13.6875 10.78125 13.769531 10.578125 13.769531 10.335938 C 13.769531 10.09375 13.6875 9.890625 13.523438 9.726562 C 13.359375 9.554688 13.15625 9.46875 12.914062 9.46875 L 10.769531 9.46875 L 10.769531 7.324219 C 10.769531 7.082031 10.683594 6.878906 10.511719 6.714844 C 10.347656 6.542969 10.144531 6.457031 9.902344 6.457031 C 9.667969 6.457031 9.464844 6.542969 9.292969 6.714844 C 9.128906 6.878906 9.046875 7.082031 9.046875 7.324219 L 9.046875 9.46875 L 6.890625 9.46875 C 6.65625 9.46875 6.453125 9.554688 6.28125 9.726562 C 6.117188 9.890625 6.035156 10.09375 6.035156 10.335938 Z M 6.035156 10.335938 "/>
</g>
</svg>
