<svg xmlns="http://www.w3.org/2000/svg" width="24" height="24"><path style="stroke:none;fill-rule:nonzero;fill:#fff;fill-opacity:1" d="M.738 20.387c0 1.09.344 1.906 1.032 2.445.695.543 1.734.813 3.117.813h14.226c1.383 0 2.418-.27 3.106-.813.695-.539 1.043-1.355 1.043-2.445V4.586c0-1.086-.348-1.902-1.043-2.45-.688-.55-1.723-.824-3.106-.824H4.887c-1.383 0-2.422.274-3.117.825C1.082 2.684.738 3.5.738 4.586ZM5.465 12.5c0-.27.11-.492.336-.656.222-.176.508-.258.855-.258h4.192V8.32c0-.27.101-.492.308-.664.215-.172.492-.261.832-.261.348 0 .63.09.844.261a.802.802 0 0 1 .332.664v3.266h4.207c.348 0 .629.082.844.258a.782.782 0 0 1 .336.656c0 .262-.113.48-.336.645a1.41 1.41 0 0 1-.844.242h-4.207v3.27a.81.81 0 0 1-.332.667c-.215.168-.496.25-.844.25-.34 0-.617-.082-.832-.25a.831.831 0 0 1-.308-.668v-3.27H6.656c-.347 0-.633-.081-.855-.241a.762.762 0 0 1-.336-.645Zm0 0"/></svg>