<svg xmlns="http://www.w3.org/2000/svg" width="24" height="24"><path style="stroke:none;fill-rule:nonzero;fill:#fff;fill-opacity:1" d="M4.527 7.95c.793 0 1.516-.153 2.168-.45.64-.297 1.176-.719 1.555-1.219.395-.515.59-1.078.59-1.695 0-.621-.195-1.184-.59-1.691-.375-.5-.91-.915-1.555-1.208a5.056 5.056 0 0 0-2.168-.457c-.797 0-1.52.153-2.172.458-.644.292-1.18.71-1.566 1.207a2.757 2.757 0 0 0-.574 1.69c0 .618.191 1.18.574 1.696.387.5.926.918 1.566 1.219.66.3 1.41.457 2.172.45Zm0-1.638c-.617 0-1.14-.167-1.566-.5-.426-.32-.656-.765-.645-1.226 0-.488.215-.895.645-1.223.426-.332.95-.496 1.566-.496.625 0 1.149.164 1.567.496.43.328.644.735.644 1.223 0 .484-.215.89-.644 1.226-.418.336-.942.5-1.567.5Zm-1.086 2.02c0 1.043.41 1.926 1.235 2.648.82.715 2.031 1.243 3.629 1.582l6.734 1.481c2.223.492 3.336 1.367 3.336 2.625v.73h2.156v-.73c0-1.035-.41-1.91-1.23-2.625-.813-.723-2.02-1.254-3.617-1.594l-6.739-1.48c-2.23-.489-3.347-1.364-3.347-2.637v-.719H3.44Zm16.02 8.73c-.797 0-1.523.153-2.184.461-.648.293-1.187.711-1.566 1.215-.387.512-.586 1.094-.578 1.688 0 .62.191 1.183.578 1.691.39.504.914.906 1.566 1.207.66.297 1.387.446 2.184.446.793 0 1.516-.149 2.168-.446.644-.293 1.18-.707 1.555-1.207a2.71 2.71 0 0 0 0-3.379c-.372-.504-.907-.925-1.555-1.218a5.044 5.044 0 0 0-2.168-.457Zm0 0"/></svg>