<?xml version="1.0" encoding="UTF-8"?>
<svg xmlns="http://www.w3.org/2000/svg" xmlns:xlink="http://www.w3.org/1999/xlink" width="24" height="33.6" viewBox="0 0 24 33.6" version="1.1">
<g id="surface1">
<path style=" stroke:none;fill-rule:nonzero;fill:rgb(100%,100%,100%);fill-opacity:1;" d="M 2.824219 11.226562 L 3.585938 9.539062 C 3.269531 9.445312 3.007812 9.257812 2.800781 8.976562 C 2.589844 8.691406 2.488281 8.367188 2.488281 8 C 2.488281 7.609375 2.613281 7.269531 2.863281 6.988281 C 3.113281 6.703125 3.4375 6.511719 3.835938 6.414062 C 4.238281 6.304688 4.664062 6.320312 5.113281 6.460938 C 5.054688 6.039062 5.136719 5.667969 5.363281 5.351562 C 5.597656 5.035156 5.902344 4.820312 6.289062 4.710938 C 6.679688 4.605469 7.085938 4.652344 7.511719 4.863281 C 7.320312 4.128906 7.402344 3.566406 7.761719 3.175781 C 8.128906 2.773438 8.570312 2.574219 9.085938 2.574219 C 9.597656 2.574219 10.054688 2.765625 10.460938 3.148438 C 10.871094 3.535156 11.023438 4.097656 10.925781 4.835938 C 11.191406 4.664062 11.503906 4.554688 11.863281 4.511719 C 12.230469 4.472656 12.582031 4.488281 12.925781 4.5625 C 13.273438 4.636719 13.5625 4.761719 13.789062 4.9375 C 13.945312 4.5625 14.183594 4.269531 14.5 4.0625 C 14.824219 3.855469 15.183594 3.75 15.574219 3.75 C 16.140625 3.75 16.566406 3.953125 16.851562 4.363281 C 17.132812 4.761719 17.265625 5.273438 17.25 5.898438 C 17.765625 5.816406 18.226562 5.835938 18.625 5.960938 C 19.023438 6.078125 19.335938 6.296875 19.5625 6.613281 C 19.796875 6.921875 19.914062 7.316406 19.914062 7.800781 C 19.914062 8.191406 19.777344 8.550781 19.511719 8.875 C 19.253906 9.191406 18.933594 9.410156 18.550781 9.523438 L 19.5625 11.101562 C 20.195312 10.792969 20.707031 10.332031 21.101562 9.726562 C 21.5 9.109375 21.699219 8.425781 21.699219 7.675781 C 21.699219 6.957031 21.558594 6.324219 21.273438 5.773438 C 20.992188 5.226562 20.597656 4.792969 20.085938 4.476562 C 19.578125 4.148438 18.996094 3.980469 18.335938 3.960938 C 18.078125 3.355469 17.707031 2.867188 17.226562 2.5 C 16.742188 2.125 16.164062 1.9375 15.488281 1.9375 C 15.0625 1.9375 14.660156 2.011719 14.273438 2.164062 C 13.890625 2.304688 13.550781 2.511719 13.25 2.789062 C 13.089844 2.746094 12.914062 2.722656 12.710938 2.710938 C 12.519531 2.695312 12.332031 2.707031 12.148438 2.75 C 11.875 2.140625 11.460938 1.660156 10.914062 1.300781 C 10.363281 0.941406 9.753906 0.761719 9.085938 0.761719 C 8.203125 0.761719 7.484375 0.992188 6.925781 1.449219 C 6.367188 1.898438 6.035156 2.394531 5.925781 2.9375 C 5.609375 2.914062 5.316406 2.980469 5.050781 3.136719 C 4.785156 3.289062 4.570312 3.496094 4.414062 3.761719 C 4.253906 4.019531 4.175781 4.292969 4.175781 4.574219 C 3.542969 4.558594 2.957031 4.703125 2.425781 5.011719 C 1.898438 5.3125 1.480469 5.726562 1.164062 6.25 C 0.855469 6.773438 0.699219 7.359375 0.699219 8 C 0.699219 8.726562 0.894531 9.378906 1.289062 9.960938 C 1.6875 10.546875 2.199219 10.964844 2.824219 11.226562 Z M 6.273438 30.375 L 14.085938 30.375 L 14.011719 28.511719 L 10.074219 28.511719 L 8.648438 12.875 C 8.574219 12.066406 8.765625 11.417969 9.226562 10.925781 C 9.691406 10.433594 10.351562 10.1875 11.199219 10.1875 C 12.042969 10.1875 12.695312 10.433594 13.164062 10.925781 C 13.628906 11.417969 13.824219 12.066406 13.75 12.875 L 12.550781 26.113281 L 14.476562 25.261719 L 15.585938 12.949219 C 15.652344 12.257812 15.886719 11.734375 16.289062 11.375 C 16.695312 11.007812 17.179688 10.824219 17.738281 10.824219 C 18.1875 10.824219 18.605469 10.933594 18.988281 11.148438 C 19.371094 11.359375 19.660156 11.664062 19.851562 12.0625 C 20.042969 12.460938 20.082031 12.941406 19.976562 13.5 L 18.300781 22.1875 L 20.164062 22.273438 L 21.800781 13.601562 C 21.976562 12.675781 21.890625 11.867188 21.550781 11.175781 C 21.207031 10.476562 20.695312 9.933594 20.011719 9.550781 C 19.335938 9.160156 18.578125 8.960938 17.738281 8.960938 C 17.171875 8.960938 16.644531 9.074219 16.164062 9.300781 C 15.6875 9.515625 15.273438 9.824219 14.925781 10.226562 C 14.574219 9.648438 14.074219 9.191406 13.425781 8.851562 C 12.773438 8.5 12.035156 8.324219 11.199219 8.324219 C 10.367188 8.324219 9.625 8.5 8.976562 8.851562 C 8.324219 9.191406 7.824219 9.648438 7.476562 10.226562 C 7.125 9.824219 6.707031 9.515625 6.226562 9.300781 C 5.742188 9.074219 5.222656 8.960938 4.664062 8.960938 C 3.820312 8.960938 3.058594 9.160156 2.375 9.550781 C 1.691406 9.933594 1.179688 10.476562 0.835938 11.175781 C 0.496094 11.867188 0.417969 12.675781 0.601562 13.601562 L 3.238281 27.5625 C 3.414062 28.460938 3.738281 29.152344 4.210938 29.636719 C 4.6875 30.128906 5.375 30.375 6.273438 30.375 Z M 6.335938 28.511719 C 5.996094 28.511719 5.722656 28.425781 5.511719 28.25 C 5.3125 28.074219 5.183594 27.816406 5.125 27.476562 L 2.425781 13.5 C 2.316406 12.941406 2.359375 12.460938 2.550781 12.0625 C 2.742188 11.664062 3.023438 11.359375 3.398438 11.148438 C 3.785156 10.933594 4.203125 10.824219 4.664062 10.824219 C 5.222656 10.824219 5.699219 11.007812 6.101562 11.375 C 6.507812 11.734375 6.742188 12.257812 6.800781 12.949219 L 8.210938 28.511719 Z M 18.023438 32.375 C 18.632812 32.375 19.195312 32.214844 19.710938 31.898438 C 20.230469 31.582031 20.621094 31.164062 20.886719 30.636719 C 21.628906 30.460938 22.234375 30.074219 22.699219 29.476562 C 23.167969 28.882812 23.398438 28.207031 23.398438 27.449219 C 23.398438 26.765625 23.207031 26.148438 22.824219 25.601562 C 22.449219 25.042969 21.976562 24.617188 21.398438 24.324219 C 21.375 23.726562 21.207031 23.199219 20.898438 22.75 C 20.589844 22.300781 20.1875 21.949219 19.6875 21.699219 C 19.1875 21.449219 18.632812 21.324219 18.023438 21.324219 C 17.125 21.324219 16.351562 21.585938 15.699219 22.113281 C 15.058594 22.636719 14.710938 23.332031 14.664062 24.199219 C 13.914062 24.367188 13.289062 24.753906 12.789062 25.363281 C 12.296875 25.972656 12.050781 26.664062 12.050781 27.4375 C 12.050781 28.019531 12.183594 28.554688 12.449219 29.039062 C 12.726562 29.519531 13.097656 29.914062 13.5625 30.210938 C 14.027344 30.519531 14.546875 30.699219 15.113281 30.75 C 15.402344 31.234375 15.808594 31.625 16.324219 31.925781 C 16.851562 32.226562 17.417969 32.375 18.023438 32.375 Z M 18.023438 30.761719 C 17.542969 30.761719 17.113281 30.617188 16.738281 30.324219 C 16.371094 30.035156 16.199219 29.605469 16.226562 29.039062 C 15.800781 29.171875 15.390625 29.191406 15 29.101562 C 14.609375 29.007812 14.285156 28.820312 14.023438 28.539062 C 13.773438 28.253906 13.648438 27.886719 13.648438 27.4375 C 13.648438 26.753906 13.894531 26.238281 14.386719 25.886719 C 14.878906 25.546875 15.515625 25.441406 16.300781 25.574219 C 16.160156 25.183594 16.128906 24.789062 16.210938 24.386719 C 16.304688 23.980469 16.5 23.636719 16.800781 23.363281 C 17.109375 23.078125 17.515625 22.9375 18.023438 22.9375 C 18.515625 22.9375 18.917969 23.074219 19.226562 23.351562 C 19.535156 23.617188 19.738281 23.957031 19.835938 24.375 C 19.945312 24.792969 19.933594 25.222656 19.800781 25.664062 C 20.382812 25.597656 20.855469 25.734375 21.210938 26.074219 C 21.570312 26.425781 21.75 26.902344 21.75 27.511719 C 21.75 28.046875 21.570312 28.457031 21.210938 28.75 C 20.855469 29.050781 20.363281 29.171875 19.738281 29.113281 C 19.753906 29.597656 19.582031 29.992188 19.226562 30.300781 C 18.867188 30.609375 18.464844 30.761719 18.023438 30.761719 Z M 18.023438 30.761719 "/>
</g>
</svg>
