<svg width="15" height="21" viewBox="0 0 15 21" fill="none" xmlns="http://www.w3.org/2000/svg">
<path d="M0.789062 6.17969C1.2526 5.92448 1.75521 5.79688 2.29688 5.79688C2.70833 5.79688 3.10677 5.8776 3.49219 6.03906C3.8776 6.20052 4.20573 6.44792 4.47656 6.78125C4.75781 6.375 5.1224 6.0651 5.57031 5.85156C6.02344 5.63802 6.49219 5.53125 6.97656 5.53125C7.46615 5.53125 7.9349 5.63802 8.38281 5.85156C8.83594 6.0651 9.20052 6.375 9.47656 6.78125C9.7474 6.44792 10.0781 6.20052 10.4688 6.03906C10.8594 5.8776 11.263 5.79688 11.6797 5.79688C12.2057 5.79688 12.6927 5.91927 13.1406 6.16406C13.276 5.96615 13.3828 5.7526 13.4609 5.52344C13.5391 5.29427 13.5781 5.05208 13.5781 4.79688C13.5781 4.34896 13.487 3.95312 13.3047 3.60938C13.1276 3.26562 12.8802 2.99479 12.5625 2.79688C12.25 2.59375 11.888 2.48698 11.4766 2.47656C11.3099 2.09635 11.0755 1.79167 10.7734 1.5625C10.4766 1.32812 10.1172 1.21094 9.69531 1.21094C9.42969 1.21094 9.17448 1.25781 8.92969 1.35156C8.6901 1.4401 8.47656 1.57031 8.28906 1.74219C8.19531 1.71615 8.08594 1.70052 7.96094 1.69531C7.83594 1.6849 7.71875 1.69271 7.60938 1.71875C7.4375 1.33854 7.17969 1.03646 6.83594 0.8125C6.49219 0.588542 6.11198 0.476562 5.69531 0.476562C5.13802 0.476562 4.6849 0.619792 4.33594 0.90625C3.99219 1.1875 3.78646 1.4974 3.71875 1.83594C3.52083 1.82031 3.33854 1.86198 3.17188 1.96094C3.00521 2.05469 2.86979 2.1849 2.76562 2.35156C2.66667 2.51302 2.61719 2.68229 2.61719 2.85938C2.22135 2.84896 1.85938 2.9401 1.53125 3.13281C1.20312 3.32031 0.940104 3.57812 0.742188 3.90625C0.544271 4.23438 0.445312 4.59896 0.445312 5C0.445312 5.20833 0.471354 5.40885 0.523438 5.60156C0.575521 5.79427 0.664062 5.98698 0.789062 6.17969ZM3.91406 18.9844H4.99219L4.03906 8.48438C3.99219 7.93229 3.78906 7.52344 3.42969 7.25781C3.07031 6.98698 2.67969 6.85156 2.25781 6.85156C1.91927 6.85156 1.59635 6.9375 1.28906 7.10938C0.986979 7.28125 0.755208 7.53646 0.59375 7.875C0.4375 8.20833 0.40625 8.625 0.5 9.125L2.03906 17.2266C2.14323 17.7839 2.34115 18.2161 2.63281 18.5234C2.92448 18.8307 3.35156 18.9844 3.91406 18.9844ZM6.01562 18.9844H7.32031V18.9453C7.13802 18.7057 6.9974 18.4401 6.89844 18.1484C6.80469 17.862 6.75781 17.5599 6.75781 17.2422C6.75781 16.6849 6.89583 16.1719 7.17188 15.7031C7.45312 15.2292 7.84115 14.862 8.33594 14.6016L8.875 8.55469C8.91667 8.08594 8.83594 7.70833 8.63281 7.42188C8.4349 7.13542 8.17969 6.92708 7.86719 6.79688C7.55469 6.66146 7.25781 6.59375 6.97656 6.59375C6.69531 6.59375 6.39844 6.66146 6.08594 6.79688C5.77865 6.92708 5.52344 7.13542 5.32031 7.42188C5.11719 7.70833 5.03646 8.08594 5.07812 8.55469L6.01562 18.9844ZM11.2422 12.6172C11.7839 12.6172 12.276 12.7474 12.7188 13.0078L13.4531 9.125C13.5469 8.625 13.513 8.20833 13.3516 7.875C13.1953 7.53646 12.9635 7.28125 12.6562 7.10938C12.3542 6.9375 12.0339 6.85156 11.6953 6.85156C11.2734 6.85156 10.8828 6.98698 10.5234 7.25781C10.1693 7.52344 9.96615 7.93229 9.91406 8.48438L9.47656 13.2734C9.70052 13.0703 9.96354 12.9115 10.2656 12.7969C10.5729 12.6771 10.8984 12.6172 11.2422 12.6172ZM11.2422 20.2344C11.6224 20.2344 11.974 20.1354 12.2969 19.9375C12.6198 19.7396 12.8646 19.4766 13.0312 19.1484C13.5573 19.0339 13.9505 18.7943 14.2109 18.4297C14.4714 18.0651 14.6016 17.6719 14.6016 17.25C14.6016 16.8177 14.4661 16.4193 14.1953 16.0547C13.9297 15.6953 13.5417 15.4766 13.0312 15.3984C13.0156 14.9036 12.8385 14.4948 12.5 14.1719C12.1667 13.849 11.7474 13.6875 11.2422 13.6875C10.7474 13.6875 10.3307 13.8438 9.99219 14.1562C9.65885 14.4635 9.48177 14.8594 9.46094 15.3438C8.9349 15.4271 8.52865 15.6536 8.24219 16.0234C7.96094 16.3984 7.82031 16.8047 7.82031 17.2422C7.82031 17.6797 7.96094 18.0807 8.24219 18.4453C8.52344 18.8151 8.92969 19.0547 9.46094 19.1641C9.61719 19.487 9.85677 19.7448 10.1797 19.9375C10.5026 20.1354 10.8568 20.2344 11.2422 20.2344Z" fill="white"/>
</svg>
