<svg width="18" height="17" viewBox="0 0 18 17" fill="none" xmlns="http://www.w3.org/2000/svg">
<path d="M0.117188 9.79688C0.117188 10.0938 0.208333 10.3333 0.390625 10.5156C0.572917 10.6927 0.8125 10.7812 1.10938 10.7812H1.78906V11.5234C1.78906 12.1953 1.98438 12.8385 2.375 13.4531C2.77083 14.0677 3.30729 14.6172 3.98438 15.1016C4.66667 15.5859 5.4375 15.9661 6.29688 16.2422C7.16146 16.5234 8.0625 16.6641 9 16.6641C9.9375 16.6641 10.8359 16.5234 11.6953 16.2422C12.5599 15.9661 13.3307 15.5859 14.0078 15.1016C14.6901 14.6172 15.2266 14.0677 15.6172 13.4531C16.013 12.8385 16.2109 12.1953 16.2109 11.5234V10.7812H16.8906C17.1875 10.7812 17.4271 10.6927 17.6094 10.5156C17.7917 10.3333 17.8828 10.0938 17.8828 9.79688V6.92188C17.8828 6.625 17.7917 6.38542 17.6094 6.20312C17.4271 6.02083 17.1875 5.92969 16.8906 5.92969H16.2109V5.19531C16.2109 4.52344 16.013 3.88021 15.6172 3.26562C15.2266 2.64583 14.6901 2.09635 14.0078 1.61719C13.3307 1.13281 12.5599 0.75 11.6953 0.46875C10.8359 0.1875 9.9375 0.046875 9 0.046875C8.0625 0.046875 7.16146 0.1875 6.29688 0.46875C5.4375 0.75 4.66667 1.13281 3.98438 1.61719C3.30729 2.09635 2.77083 2.64583 2.375 3.26562C1.98438 3.88021 1.78906 4.52344 1.78906 5.19531V5.92969H1.10938C0.8125 5.92969 0.572917 6.02083 0.390625 6.20312C0.208333 6.38542 0.117188 6.625 0.117188 6.92188V9.79688ZM5.25781 9.88281C4.84115 9.88281 4.48438 9.73438 4.1875 9.4375C3.89062 9.13542 3.74219 8.77604 3.74219 8.35938C3.74219 7.9375 3.89062 7.57812 4.1875 7.28125C4.48438 6.98438 4.84115 6.83594 5.25781 6.83594C5.53906 6.83594 5.79427 6.90625 6.02344 7.04688C6.25781 7.18229 6.44271 7.36458 6.57812 7.59375C6.71354 7.82292 6.78125 8.07812 6.78125 8.35938C6.78125 8.64062 6.71354 8.89583 6.57812 9.125C6.44271 9.35417 6.25781 9.53906 6.02344 9.67969C5.79427 9.8151 5.53906 9.88281 5.25781 9.88281ZM12.7344 9.88281C12.4531 9.88281 12.1979 9.8151 11.9688 9.67969C11.7396 9.53906 11.5573 9.35417 11.4219 9.125C11.2865 8.89583 11.2188 8.64062 11.2188 8.35938C11.2188 8.07812 11.2865 7.82292 11.4219 7.59375C11.5573 7.36458 11.7396 7.18229 11.9688 7.04688C12.1979 6.90625 12.4531 6.83594 12.7344 6.83594C13.1562 6.83594 13.5156 6.98438 13.8125 7.28125C14.1094 7.57812 14.2578 7.9375 14.2578 8.35938C14.2578 8.77604 14.1094 9.13542 13.8125 9.4375C13.5156 9.73438 13.1562 9.88281 12.7344 9.88281Z" fill="white"/>
</svg>
