<svg width="120" height="116" viewBox="0 0 120 116" fill="none" xmlns="http://www.w3.org/2000/svg">
<path d="M20.5625 115.5H100.312C106.854 115.5 111.75 113.875 115 110.625C118.292 107.417 119.938 102.583 119.938 96.125V19.8125C119.938 13.3542 118.292 8.52083 115 5.3125C111.75 2.0625 106.854 0.4375 100.312 0.4375H20.5625C14.0208 0.4375 9.10417 2.0625 5.8125 5.3125C2.5625 8.52083 0.9375 13.3542 0.9375 19.8125V96.125C0.9375 102.583 2.5625 107.417 5.8125 110.625C9.10417 113.875 14.0208 115.5 20.5625 115.5ZM38.0625 57.25C36.4375 57.25 35.0833 56.7083 34 55.625C32.9167 54.5417 32.375 53.1667 32.375 51.5V31.5625C32.375 29.9792 32.9167 28.625 34 27.5C35.0833 26.3333 36.4375 25.75 38.0625 25.75C39.6875 25.75 41.0417 26.3333 42.125 27.5C43.25 28.625 43.8125 29.9792 43.8125 31.5625V51.5C43.8125 53.125 43.25 54.5 42.125 55.625C41.0417 56.7083 39.6875 57.25 38.0625 57.25ZM52.75 93.6875C50.75 93.6875 49.75 92.6875 49.75 90.6875V83.4375C49.75 80.4375 50.7708 77.8958 52.8125 75.8125C54.8542 73.6875 57.3958 72.625 60.4375 72.625C63.4375 72.625 65.9583 73.6875 68 75.8125C70.0833 77.8958 71.125 80.4375 71.125 83.4375V90.6875C71.125 92.6875 70.125 93.6875 68.125 93.6875H52.75ZM82.6875 57.25C81.0625 57.25 79.7083 56.7083 78.625 55.625C77.5417 54.5417 77 53.1667 77 51.5V31.5625C77 29.9792 77.5417 28.625 78.625 27.5C79.7083 26.3333 81.0625 25.75 82.6875 25.75C84.3125 25.75 85.6875 26.3333 86.8125 27.5C87.9375 28.625 88.5 29.9792 88.5 31.5625V51.5C88.5 53.125 87.9375 54.5 86.8125 55.625C85.6875 56.7083 84.3125 57.25 82.6875 57.25Z" fill="white"/>
</svg>
