<svg width="116" height="116" viewBox="0 0 116 116" fill="none" xmlns="http://www.w3.org/2000/svg">
<path d="M38 36C36.0833 36 34.6042 36.3542 33.5625 37.0625C32.5208 37.7292 31.5625 38.625 30.6875 39.75L19.9375 53.875C19.0208 55.0833 18.5417 56.3958 18.5 57.8125C18.5 59.2292 18.9792 60.5417 19.9375 61.75L30.6875 76C31.5625 77.125 32.5833 78.0208 33.75 78.6875C34.9167 79.3542 36.3333 79.6875 38 79.6875H78.9375C80.6042 79.6875 82.0208 79.3542 83.1875 78.6875C84.3542 78.0208 85.375 77.125 86.25 76L97 61.75C97.9583 60.5417 98.4167 59.2292 98.375 57.8125C98.375 56.3958 97.9167 55.0833 97 53.875L86.25 39.75C85.375 38.625 84.4167 37.7292 83.375 37.0625C82.375 36.3542 80.8958 36 78.9375 36H38ZM36.625 51.875C38.25 51.875 39.6458 52.4792 40.8125 53.6875C42.0208 54.8542 42.625 56.25 42.625 57.875C42.625 59.5 42.0208 60.8958 40.8125 62.0625C39.6458 63.2292 38.25 63.8125 36.625 63.8125C35.0417 63.8125 33.6458 63.2292 32.4375 62.0625C31.2708 60.8958 30.6875 59.5 30.6875 57.875C30.6875 56.25 31.2708 54.8542 32.4375 53.6875C33.6458 52.4792 35.0417 51.875 36.625 51.875ZM58.5 59.25C60.125 59.25 61.5208 59.8542 62.6875 61.0625C63.8542 62.2292 64.4375 63.6042 64.4375 65.1875C64.4375 66.8125 63.8542 68.2292 62.6875 69.4375C61.5208 70.6042 60.125 71.1875 58.5 71.1875C56.8333 71.1875 55.4167 70.6042 54.25 69.4375C53.0833 68.2292 52.5 66.8125 52.5 65.1875C52.5 63.6042 53.0833 62.2292 54.25 61.0625C55.4167 59.8542 56.8333 59.25 58.5 59.25ZM80.3125 51.875C81.9375 51.875 83.3333 52.4792 84.5 53.6875C85.6667 54.8542 86.25 56.25 86.25 57.875C86.25 59.5 85.6667 60.8958 84.5 62.0625C83.3333 63.2292 81.9375 63.8125 80.3125 63.8125C78.6875 63.8125 77.2917 63.2292 76.125 62.0625C74.9583 60.8958 74.375 59.5 74.375 57.875C74.375 56.25 74.9583 54.8542 76.125 53.6875C77.2917 52.4792 78.6875 51.875 80.3125 51.875ZM20.5625 115.5H96.375C102.917 115.5 107.812 113.875 111.062 110.625C114.354 107.417 116 102.583 116 96.125V19.8125C116 13.3542 114.354 8.52083 111.062 5.3125C107.812 2.0625 102.917 0.4375 96.375 0.4375H20.5625C14.0208 0.4375 9.10417 2.0625 5.8125 5.3125C2.5625 8.52083 0.9375 13.3542 0.9375 19.8125V96.125C0.9375 102.583 2.5625 107.417 5.8125 110.625C9.10417 113.875 14.0208 115.5 20.5625 115.5ZM20.6875 105.438C17.5625 105.438 15.1667 104.625 13.5 103C11.8333 101.333 11 98.875 11 95.625V20.3125C11 17.0625 11.8333 14.625 13.5 13C15.1667 11.3333 17.5625 10.5 20.6875 10.5H96.25C99.3333 10.5 101.708 11.3333 103.375 13C105.083 14.625 105.938 17.0625 105.938 20.3125V95.625C105.938 98.875 105.083 101.333 103.375 103C101.708 104.625 99.3333 105.438 96.25 105.438H20.6875Z" fill="white"/>
</svg>
