<svg width="16" height="15" viewBox="0 0 16 15" fill="none" xmlns="http://www.w3.org/2000/svg">
<path d="M6.58594 12.0469C6.36719 12.0469 6.1849 11.9766 6.03906 11.8359C5.89844 11.6901 5.82812 11.5052 5.82812 11.2812V3.4375C5.82812 3.21875 5.89844 3.03906 6.03906 2.89844C6.1849 2.7526 6.36719 2.67969 6.58594 2.67969H9.40625C9.625 2.67969 9.80469 2.7526 9.94531 2.89844C10.0911 3.03906 10.1641 3.21875 10.1641 3.4375V11.2812C10.1641 11.5052 10.0911 11.6901 9.94531 11.8359C9.80469 11.9766 9.625 12.0469 9.40625 12.0469H6.58594ZM8 5.54688C8.22396 5.54688 8.41406 5.46875 8.57031 5.3125C8.73177 5.15104 8.8125 4.95833 8.8125 4.73438C8.8125 4.50521 8.73177 4.3125 8.57031 4.15625C8.41406 3.99479 8.22396 3.91406 8 3.91406C7.77083 3.91406 7.57552 3.99479 7.41406 4.15625C7.25781 4.3125 7.17969 4.50521 7.17969 4.73438C7.17969 4.95833 7.25781 5.15104 7.41406 5.3125C7.57552 5.46875 7.77083 5.54688 8 5.54688ZM8 8.17188C8.22396 8.17188 8.41406 8.09375 8.57031 7.9375C8.73177 7.77604 8.8125 7.58333 8.8125 7.35938C8.8125 7.13542 8.73177 6.94531 8.57031 6.78906C8.41406 6.6276 8.22396 6.54688 8 6.54688C7.77083 6.54688 7.57552 6.6276 7.41406 6.78906C7.25781 6.94531 7.17969 7.13542 7.17969 7.35938C7.17969 7.58333 7.25781 7.77604 7.41406 7.9375C7.57552 8.09375 7.77083 8.17188 8 8.17188ZM8 10.8047C8.22396 10.8047 8.41406 10.7266 8.57031 10.5703C8.73177 10.4089 8.8125 10.2135 8.8125 9.98438C8.8125 9.76042 8.73177 9.57031 8.57031 9.41406C8.41406 9.2526 8.22396 9.17188 8 9.17188C7.77083 9.17188 7.57552 9.2526 7.41406 9.41406C7.25781 9.57031 7.17969 9.76042 7.17969 9.98438C7.17969 10.2135 7.25781 10.4089 7.41406 10.5703C7.57552 10.7266 7.77083 10.8047 8 10.8047ZM3.25781 14.5625H12.7344C13.5521 14.5625 14.1641 14.3594 14.5703 13.9531C14.9818 13.5521 15.1875 12.9479 15.1875 12.1406V2.60156C15.1875 1.79427 14.9818 1.1901 14.5703 0.789062C14.1641 0.382812 13.5521 0.179688 12.7344 0.179688H3.25781C2.4401 0.179688 1.82552 0.382812 1.41406 0.789062C1.00781 1.1901 0.804688 1.79427 0.804688 2.60156V12.1406C0.804688 12.9479 1.00781 13.5521 1.41406 13.9531C1.82552 14.3594 2.4401 14.5625 3.25781 14.5625Z" fill="white"/>
</svg>
