<svg xmlns="http://www.w3.org/2000/svg" width="24" height="24"><path style="stroke:none;fill-rule:nonzero;fill:#fff;fill-opacity:1" d="M7.078 13.953a2.28 2.28 0 0 1-1.617-.629 2.067 2.067 0 0 1-.656-1.523c0-.594.218-1.102.656-1.52a2.246 2.246 0 0 1 1.617-.629c.633 0 1.172.207 1.617.63.446.417.668.925.668 1.519 0 .59-.222 1.097-.668 1.523a2.286 2.286 0 0 1-1.617.63Zm9.844 0a2.286 2.286 0 0 1-1.617-.629 2.037 2.037 0 0 1-.668-1.523c0-.594.222-1.102.668-1.52a2.253 2.253 0 0 1 1.617-.629c.633 0 1.168.207 1.605.63.446.417.668.925.668 1.519 0 .59-.222 1.097-.668 1.523-.418.41-1 .637-1.605.63ZM12 23.051c1.633 0 3.168-.293 4.605-.883a12.22 12.22 0 0 0 3.82-2.438 11.467 11.467 0 0 0 2.59-3.582c.626-1.363.938-2.808.938-4.347a10.2 10.2 0 0 0-.937-4.332 11.53 11.53 0 0 0-2.59-3.598 12.361 12.361 0 0 0-3.82-2.437A12.166 12.166 0 0 0 11.987.55c-1.633 0-3.172.293-4.617.883A12.307 12.307 0 0 0 3.562 3.87 11.523 11.523 0 0 0 .985 7.465 10.2 10.2 0 0 0 .047 11.8c0 1.539.312 2.984.937 4.347a11.467 11.467 0 0 0 2.59 3.582 12.236 12.236 0 0 0 3.809 2.438c1.445.59 2.984.883 4.617.883Zm0 0"/></svg>