<svg width="16" height="18" viewBox="0 0 16 18" fill="none" xmlns="http://www.w3.org/2000/svg">
<path d="M8 17.3281C9.08854 17.3281 10.112 17.1198 11.0703 16.7031C12.0339 16.2865 12.8828 15.7109 13.6172 14.9766C14.3516 14.2422 14.9271 13.3958 15.3438 12.4375C15.7604 11.474 15.9688 10.4479 15.9688 9.35938C15.9688 8.5625 15.8568 7.80469 15.6328 7.08594C15.4089 6.36719 15.1016 5.70833 14.7109 5.10938C14.3203 4.50521 13.875 3.97396 13.375 3.51562C13.2396 3.39062 13.099 3.32292 12.9531 3.3125C12.8125 3.29688 12.6849 3.32292 12.5703 3.39062C12.4557 3.45833 12.3672 3.55208 12.3047 3.67188C12.2422 3.79167 12.2214 3.92188 12.2422 4.0625C12.2682 4.20312 12.349 4.33854 12.4844 4.46875C13.151 5.07292 13.6745 5.79688 14.0547 6.64062C14.4401 7.47917 14.6354 8.38542 14.6406 9.35938C14.6406 10.2812 14.4688 11.1432 14.125 11.9453C13.7865 12.7474 13.3125 13.4531 12.7031 14.0625C12.099 14.6667 11.3932 15.1406 10.5859 15.4844C9.78385 15.8281 8.92188 16 8 16C7.07812 16 6.21615 15.8281 5.41406 15.4844C4.61198 15.1406 3.90625 14.6667 3.29688 14.0625C2.69271 13.4531 2.21875 12.7474 1.875 11.9453C1.53646 11.1432 1.36719 10.2812 1.36719 9.35938C1.3724 8.38021 1.5651 7.47135 1.94531 6.63281C2.33073 5.78906 2.85417 5.0651 3.51562 4.46094C3.65104 4.33073 3.72917 4.19531 3.75 4.05469C3.77604 3.91406 3.75781 3.78385 3.69531 3.66406C3.63802 3.54427 3.54948 3.45052 3.42969 3.38281C3.3151 3.3151 3.1849 3.28906 3.03906 3.30469C2.89844 3.3151 2.76042 3.38281 2.625 3.50781C2.125 3.96615 1.67969 4.4974 1.28906 5.10156C0.898438 5.70573 0.591146 6.36719 0.367188 7.08594C0.143229 7.80469 0.03125 8.5625 0.03125 9.35938C0.03125 10.4479 0.239583 11.474 0.65625 12.4375C1.07292 13.3958 1.64844 14.2422 2.38281 14.9766C3.11719 15.7109 3.96354 16.2865 4.92188 16.7031C5.88542 17.1198 6.91146 17.3281 8 17.3281ZM8 9.28125C8.1875 9.28125 8.33854 9.22135 8.45312 9.10156C8.57292 8.97656 8.63281 8.8151 8.63281 8.61719V1.60156C8.63281 1.40365 8.57292 1.24479 8.45312 1.125C8.33854 1 8.1875 0.9375 8 0.9375C7.8125 0.9375 7.66146 1 7.54688 1.125C7.43229 1.24479 7.375 1.40365 7.375 1.60156V8.61719C7.375 8.8151 7.43229 8.97656 7.54688 9.10156C7.66146 9.22135 7.8125 9.28125 8 9.28125Z" fill="white"/>
</svg>
