<svg xmlns="http://www.w3.org/2000/svg" width="24" height="24"><path style="stroke:none;fill-rule:nonzero;fill:#fff;fill-opacity:1" d="M7.277 17.824c-.328 0-.601-.113-.82-.336a1.266 1.266 0 0 1-.316-.875V6.938c0-.352.105-.641.316-.864.219-.234.492-.351.82-.351h9.434c.328 0 .598.117.809.351.218.223.328.512.328.864v9.671c0 .352-.11.645-.328.875-.211.227-.48.34-.81.34Zm4.735-7.36c.336 0 .62-.128.855-.378a1.32 1.32 0 0 0 .363-.938c0-.355-.12-.66-.363-.91a1.117 1.117 0 0 0-.855-.39c-.344 0-.637.132-.88.39-.234.25-.35.555-.35.91 0 .368.116.68.35.938.243.25.536.379.88.379ZM9.363 15.7c.344 0 .633-.125.867-.375a1.32 1.32 0 0 0 .364-.937c0-.36-.121-.66-.364-.91a1.124 1.124 0 0 0-.867-.387c-.336 0-.625.125-.867.387-.234.25-.351.554-.351.91 0 .367.117.68.351.937.242.25.531.375.867.375Zm5.285 0c.336 0 .622-.125.856-.375a1.32 1.32 0 0 0 .363-.937c0-.36-.12-.66-.363-.91a1.1 1.1 0 0 0-.856-.387c-.343 0-.636.125-.878.387-.235.25-.352.554-.352.91 0 .367.117.68.352.937.242.25.535.375.878.375Zm-9.761 7.602h14.215c1.226 0 2.144-.324 2.753-.977.618-.64.926-1.605.926-2.898V4.164c0-1.293-.308-2.258-.926-2.898-.609-.653-1.527-.977-2.753-.977H4.887c-1.227 0-2.149.324-2.766.977-.61.64-.914 1.605-.914 2.898v15.262c0 1.293.305 2.258.914 2.902.617.649 1.54.973 2.766.973Zm0 0"/></svg>