<svg width="116" height="116" viewBox="0 0 116 116" fill="none" xmlns="http://www.w3.org/2000/svg">
<path d="M47.5625 94.1875H69.375C71.0833 94.1875 72.4792 93.6458 73.5625 92.5625C74.6875 91.4375 75.25 90.0208 75.25 88.3125V27.4375C75.25 25.7708 74.6875 24.3958 73.5625 23.3125C72.4792 22.1875 71.0833 21.625 69.375 21.625H47.5625C45.8542 21.625 44.4375 22.1875 43.3125 23.3125C42.2292 24.3958 41.6875 25.7708 41.6875 27.4375V88.3125C41.6875 90.0208 42.2292 91.4375 43.3125 92.5625C44.4375 93.6458 45.8542 94.1875 47.5625 94.1875ZM58.5 43.8125C56.75 43.8125 55.25 43.2083 54 42C52.75 40.75 52.125 39.25 52.125 37.5C52.125 35.75 52.75 34.2708 54 33.0625C55.25 31.8125 56.75 31.1875 58.5 31.1875C60.2083 31.1875 61.6875 31.8125 62.9375 33.0625C64.1875 34.2708 64.8125 35.75 64.8125 37.5C64.8125 39.25 64.1875 40.75 62.9375 42C61.6875 43.2083 60.2083 43.8125 58.5 43.8125ZM58.5 64.1875C56.75 64.1875 55.25 63.5833 54 62.375C52.75 61.125 52.125 59.625 52.125 57.875C52.125 56.125 52.75 54.6458 54 53.4375C55.25 52.1875 56.75 51.5625 58.5 51.5625C60.2083 51.5625 61.6875 52.1875 62.9375 53.4375C64.1875 54.6458 64.8125 56.125 64.8125 57.875C64.8125 59.625 64.1875 61.125 62.9375 62.375C61.6875 63.5833 60.2083 64.1875 58.5 64.1875ZM58.5 84.5625C56.75 84.5625 55.25 83.9583 54 82.75C52.75 81.5 52.125 80 52.125 78.25C52.125 76.5 52.75 75.0208 54 73.8125C55.25 72.5625 56.75 71.9375 58.5 71.9375C60.2083 71.9375 61.6875 72.5625 62.9375 73.8125C64.1875 75.0208 64.8125 76.5 64.8125 78.25C64.8125 80 64.1875 81.5 62.9375 82.75C61.6875 83.9583 60.2083 84.5625 58.5 84.5625ZM20.5625 115.5H96.375C102.917 115.5 107.812 113.875 111.062 110.625C114.354 107.417 116 102.583 116 96.125V19.8125C116 13.3542 114.354 8.52083 111.062 5.3125C107.812 2.0625 102.917 0.4375 96.375 0.4375H20.5625C14.0208 0.4375 9.10417 2.0625 5.8125 5.3125C2.5625 8.52083 0.9375 13.3542 0.9375 19.8125V96.125C0.9375 102.583 2.5625 107.417 5.8125 110.625C9.10417 113.875 14.0208 115.5 20.5625 115.5ZM20.6875 105.438C17.5625 105.438 15.1667 104.625 13.5 103C11.8333 101.333 11 98.875 11 95.625V20.3125C11 17.0625 11.8333 14.625 13.5 13C15.1667 11.3333 17.5625 10.5 20.6875 10.5H96.25C99.3333 10.5 101.708 11.3333 103.375 13C105.083 14.625 105.938 17.0625 105.938 20.3125V95.625C105.938 98.875 105.083 101.333 103.375 103C101.708 104.625 99.3333 105.438 96.25 105.438H20.6875Z" fill="white"/>
</svg>
