<svg width="120" height="116" viewBox="0 0 120 116" fill="none" xmlns="http://www.w3.org/2000/svg">
<path d="M20.5625 115.5H100.312C106.854 115.5 111.75 113.875 115 110.625C118.292 107.417 119.938 102.583 119.938 96.125V19.8125C119.938 13.3542 118.292 8.52083 115 5.3125C111.75 2.0625 106.854 0.4375 100.312 0.4375H20.5625C14.0208 0.4375 9.10417 2.0625 5.8125 5.3125C2.5625 8.52083 0.9375 13.3542 0.9375 19.8125V96.125C0.9375 102.583 2.5625 107.417 5.8125 110.625C9.10417 113.875 14.0208 115.5 20.5625 115.5ZM38.375 88.5625C35.7083 88.5625 33.4167 87.625 31.5 85.75C29.5833 83.8333 28.625 81.5208 28.625 78.8125C28.625 76.1875 29.5833 73.9167 31.5 72C33.4167 70.0833 35.7083 69.125 38.375 69.125C41 69.125 43.25 70.0833 45.125 72C47.0417 73.9167 48 76.1875 48 78.8125C48 81.5208 47.0417 83.8333 45.125 85.75C43.25 87.625 41 88.5625 38.375 88.5625ZM82.5625 88.5625C79.8958 88.5625 77.6042 87.625 75.6875 85.75C73.8125 83.8333 72.875 81.5208 72.875 78.8125C72.875 76.1875 73.8125 73.9167 75.6875 72C77.6042 70.0833 79.8958 69.125 82.5625 69.125C85.1875 69.125 87.4583 70.0833 89.375 72C91.2917 73.9167 92.25 76.1875 92.25 78.8125C92.25 81.5208 91.2917 83.8333 89.375 85.75C87.4583 87.625 85.1875 88.5625 82.5625 88.5625ZM60.4375 46.5625C57.7292 46.5625 55.4167 45.6042 53.5 43.6875C51.625 41.7708 50.6875 39.4792 50.6875 36.8125C50.6875 34.1458 51.625 31.875 53.5 30C55.4167 28.125 57.7292 27.1875 60.4375 27.1875C63.1042 27.1875 65.375 28.125 67.25 30C69.1667 31.875 70.125 34.1458 70.125 36.8125C70.125 39.4792 69.1667 41.7708 67.25 43.6875C65.375 45.6042 63.1042 46.5625 60.4375 46.5625Z" fill="white"/>
</svg>
