<svg xmlns="http://www.w3.org/2000/svg" width="24" height="24"><path style="stroke:none;fill-rule:nonzero;fill:#fff;fill-opacity:1" d="M.152 14.3c0 .923.164 1.622.489 2.087.324.468.8.703 1.437.703h2.985c.425 0 .796.058 1.109.183.316.125.61.336.875.641.27.297.535.715.8 1.262.665 1.336 1.548 2.41 2.567 3.12.992.704 2.078 1.071 3.18 1.067h3.187a.852.852 0 0 0 .742-.402c.188-.27.282-.625.282-1.074V1.586c0-.438-.094-.79-.282-1.047a.868.868 0 0 0-.742-.39h-3.187c-1.11 0-2.172.355-3.188 1.066-1.011.7-1.863 1.742-2.558 3.12-.266.548-.532.97-.801 1.278a2.31 2.31 0 0 1-.875.637c-.363.137-.734.2-1.11.191H2.079c-.637 0-1.113.227-1.437.696-.325.46-.489 1.152-.489 2.074ZM17.48 8.95h4.977c.25 0 .48-.095.691-.278.211-.18.38-.422.504-.719.125-.312.192-.668.188-1.027 0-.38-.063-.715-.188-1.012a1.92 1.92 0 0 0-.504-.742c-.21-.18-.449-.277-.691-.274H17.48Zm0 9.663h4.977c.25 0 .48-.09.691-.273a1.92 1.92 0 0 0 .504-.727c.125-.312.192-.668.188-1.027 0-.367-.063-.707-.188-1.008a1.877 1.877 0 0 0-.504-.738 1.049 1.049 0 0 0-.691-.277H17.48Zm0 0"/></svg>