<?xml version="1.0" encoding="UTF-8"?>
<svg xmlns="http://www.w3.org/2000/svg" xmlns:xlink="http://www.w3.org/1999/xlink" width="24" height="7.5" viewBox="0 0 24 7.5" version="1.1">
<g id="surface1">
<path style=" stroke:none;fill-rule:nonzero;fill:rgb(100%,100%,100%);fill-opacity:1;" d="M 2.273438 6.941406 L 16.921875 6.941406 C 17.402344 6.941406 17.796875 6.789062 18.105469 6.472656 C 18.417969 6.164062 18.574219 5.765625 18.574219 5.292969 L 18.574219 1.886719 C 18.574219 1.40625 18.417969 1.007812 18.105469 0.699219 C 17.796875 0.386719 17.402344 0.230469 16.921875 0.230469 L 2.273438 0.230469 C 1.792969 0.230469 1.398438 0.386719 1.082031 0.699219 C 0.773438 1.007812 0.621094 1.40625 0.621094 1.886719 L 0.621094 5.292969 C 0.621094 5.769531 0.773438 6.167969 1.082031 6.480469 C 1.398438 6.789062 1.792969 6.941406 2.273438 6.941406 Z M 2.273438 6.117188 C 2.027344 6.117188 1.828125 6.042969 1.675781 5.886719 C 1.523438 5.734375 1.449219 5.53125 1.449219 5.292969 L 1.449219 1.886719 C 1.449219 1.640625 1.523438 1.441406 1.675781 1.289062 C 1.828125 1.132812 2.027344 1.054688 2.273438 1.054688 L 16.921875 1.054688 C 17.164062 1.054688 17.359375 1.132812 17.515625 1.289062 C 17.671875 1.441406 17.75 1.640625 17.75 1.886719 L 17.75 5.292969 C 17.75 5.53125 17.671875 5.734375 17.515625 5.886719 C 17.359375 6.042969 17.164062 6.117188 16.921875 6.117188 Z M 2.863281 4.917969 L 3.261719 4.917969 C 3.347656 4.917969 3.414062 4.890625 3.464844 4.839844 C 3.515625 4.785156 3.542969 4.714844 3.542969 4.628906 L 3.542969 2.535156 C 3.542969 2.445312 3.515625 2.375 3.464844 2.324219 C 3.414062 2.273438 3.347656 2.246094 3.261719 2.246094 L 2.863281 2.246094 C 2.78125 2.246094 2.710938 2.273438 2.652344 2.324219 C 2.601562 2.375 2.578125 2.445312 2.578125 2.535156 L 2.578125 4.628906 C 2.578125 4.714844 2.601562 4.785156 2.652344 4.839844 C 2.710938 4.890625 2.78125 4.917969 2.863281 4.917969 Z M 6.386719 5.390625 C 6.71875 5.390625 7.023438 5.3125 7.292969 5.152344 C 7.566406 4.988281 7.785156 4.769531 7.945312 4.5 C 8.109375 4.226562 8.191406 3.921875 8.191406 3.585938 C 8.191406 3.257812 8.109375 2.957031 7.945312 2.683594 C 7.785156 2.40625 7.566406 2.1875 7.292969 2.027344 C 7.023438 1.863281 6.71875 1.78125 6.386719 1.78125 C 6.054688 1.78125 5.75 1.863281 5.480469 2.027344 C 5.203125 2.1875 4.988281 2.40625 4.824219 2.683594 C 4.664062 2.957031 4.582031 3.257812 4.582031 3.585938 C 4.582031 3.921875 4.664062 4.226562 4.824219 4.5 C 4.988281 4.769531 5.203125 4.988281 5.480469 5.152344 C 5.75 5.3125 6.054688 5.390625 6.386719 5.390625 Z M 5.722656 4.535156 C 5.652344 4.535156 5.59375 4.507812 5.542969 4.457031 C 5.492188 4.40625 5.464844 4.351562 5.464844 4.285156 L 5.464844 2.894531 C 5.464844 2.828125 5.492188 2.769531 5.542969 2.71875 C 5.59375 2.664062 5.652344 2.636719 5.722656 2.636719 C 5.792969 2.636719 5.855469 2.664062 5.902344 2.714844 C 5.949219 2.765625 5.972656 2.824219 5.972656 2.894531 L 5.972656 4.285156 C 5.972656 4.355469 5.949219 4.414062 5.902344 4.464844 C 5.855469 4.511719 5.792969 4.535156 5.722656 4.535156 Z M 7.050781 4.535156 C 6.980469 4.535156 6.917969 4.511719 6.867188 4.464844 C 6.816406 4.414062 6.792969 4.355469 6.792969 4.285156 L 6.792969 2.894531 C 6.792969 2.824219 6.816406 2.765625 6.867188 2.714844 C 6.917969 2.664062 6.980469 2.636719 7.050781 2.636719 C 7.121094 2.636719 7.175781 2.664062 7.222656 2.714844 C 7.269531 2.765625 7.292969 2.824219 7.292969 2.894531 L 7.292969 4.285156 C 7.292969 4.355469 7.269531 4.414062 7.222656 4.464844 C 7.175781 4.511719 7.121094 4.535156 7.050781 4.535156 Z M 10.734375 5.390625 C 11.066406 5.390625 11.371094 5.3125 11.640625 5.152344 C 11.914062 4.988281 12.136719 4.769531 12.296875 4.5 C 12.464844 4.226562 12.546875 3.921875 12.546875 3.585938 C 12.546875 3.257812 12.464844 2.957031 12.296875 2.683594 C 12.136719 2.40625 11.914062 2.1875 11.640625 2.027344 C 11.371094 1.863281 11.066406 1.78125 10.734375 1.78125 C 10.402344 1.78125 10.097656 1.863281 9.828125 2.027344 C 9.558594 2.1875 9.339844 2.40625 9.175781 2.683594 C 9.015625 2.957031 8.9375 3.257812 8.9375 3.585938 C 8.9375 3.921875 9.015625 4.226562 9.175781 4.5 C 9.339844 4.769531 9.558594 4.988281 9.828125 5.152344 C 10.097656 5.3125 10.402344 5.390625 10.734375 5.390625 Z M 10.066406 4.535156 C 10 4.535156 9.941406 4.511719 9.890625 4.464844 C 9.839844 4.414062 9.8125 4.355469 9.8125 4.285156 L 9.8125 2.894531 C 9.8125 2.828125 9.839844 2.769531 9.890625 2.71875 C 9.941406 2.664062 10 2.636719 10.066406 2.636719 C 10.140625 2.636719 10.203125 2.664062 10.25 2.714844 C 10.300781 2.765625 10.324219 2.824219 10.324219 2.894531 L 10.324219 4.285156 C 10.324219 4.355469 10.300781 4.414062 10.25 4.464844 C 10.203125 4.511719 10.140625 4.535156 10.066406 4.535156 Z M 11.394531 4.535156 C 11.328125 4.535156 11.265625 4.511719 11.214844 4.464844 C 11.164062 4.414062 11.140625 4.355469 11.140625 4.285156 L 11.140625 2.894531 C 11.140625 2.824219 11.164062 2.765625 11.214844 2.714844 C 11.265625 2.664062 11.328125 2.636719 11.394531 2.636719 C 11.46875 2.636719 11.527344 2.664062 11.574219 2.714844 C 11.625 2.765625 11.648438 2.824219 11.648438 2.894531 L 11.648438 4.285156 C 11.648438 4.355469 11.625 4.414062 11.574219 4.464844 C 11.527344 4.511719 11.46875 4.535156 11.394531 4.535156 Z M 15.082031 5.390625 C 15.414062 5.390625 15.714844 5.3125 15.988281 5.152344 C 16.265625 4.988281 16.480469 4.769531 16.640625 4.5 C 16.804688 4.226562 16.886719 3.921875 16.886719 3.585938 C 16.886719 3.257812 16.804688 2.957031 16.640625 2.683594 C 16.480469 2.40625 16.265625 2.1875 15.988281 2.027344 C 15.714844 1.863281 15.414062 1.78125 15.082031 1.78125 C 14.75 1.78125 14.445312 1.863281 14.171875 2.027344 C 13.902344 2.1875 13.683594 2.40625 13.523438 2.683594 C 13.363281 2.957031 13.28125 3.257812 13.28125 3.585938 C 13.28125 3.921875 13.363281 4.226562 13.523438 4.5 C 13.683594 4.769531 13.902344 4.988281 14.171875 5.152344 C 14.445312 5.3125 14.75 5.390625 15.082031 5.390625 Z M 14.421875 4.535156 C 14.347656 4.535156 14.289062 4.511719 14.238281 4.464844 C 14.1875 4.414062 14.160156 4.355469 14.160156 4.285156 L 14.160156 2.894531 C 14.160156 2.828125 14.1875 2.769531 14.238281 2.71875 C 14.289062 2.664062 14.347656 2.636719 14.421875 2.636719 C 14.488281 2.636719 14.546875 2.664062 14.59375 2.714844 C 14.644531 2.765625 14.671875 2.824219 14.671875 2.894531 L 14.671875 4.285156 C 14.671875 4.355469 14.644531 4.414062 14.59375 4.464844 C 14.542969 4.511719 14.484375 4.535156 14.421875 4.535156 Z M 15.746094 4.535156 C 15.671875 4.535156 15.613281 4.511719 15.5625 4.464844 C 15.511719 4.414062 15.484375 4.355469 15.484375 4.285156 L 15.484375 2.894531 C 15.484375 2.824219 15.511719 2.765625 15.5625 2.714844 C 15.613281 2.664062 15.671875 2.636719 15.746094 2.636719 C 15.8125 2.636719 15.875 2.664062 15.921875 2.714844 C 15.96875 2.765625 15.988281 2.824219 15.988281 2.894531 L 15.988281 4.285156 C 15.988281 4.355469 15.96875 4.414062 15.921875 4.464844 C 15.875 4.511719 15.8125 4.535156 15.746094 4.535156 Z M 18.136719 5.605469 L 19.042969 5.605469 C 19.246094 5.605469 19.414062 5.542969 19.546875 5.414062 C 19.679688 5.28125 19.746094 5.113281 19.746094 4.910156 L 19.746094 2.390625 C 19.746094 2.1875 19.679688 2.019531 19.546875 1.894531 C 19.414062 1.757812 19.246094 1.691406 19.042969 1.691406 L 18.136719 1.691406 L 18.136719 2.34375 L 18.84375 2.34375 C 19.011719 2.34375 19.09375 2.425781 19.09375 2.589844 L 19.09375 4.707031 C 19.09375 4.875 19.011719 4.957031 18.84375 4.957031 L 18.136719 4.957031 Z M 19.578125 4.078125 L 23.378906 4.078125 L 23.378906 3.308594 L 19.578125 3.308594 Z M 19.578125 4.078125 "/>
</g>
</svg>
