<svg width="16" height="15" viewBox="0 0 16 15" fill="none" xmlns="http://www.w3.org/2000/svg">
<path d="M8 11.4609C8.75521 11.4609 9.44271 11.2786 10.0625 10.9141C10.6823 10.5443 11.1745 10.0495 11.5391 9.42969C11.9089 8.80469 12.0938 8.11458 12.0938 7.35938C12.0938 6.59896 11.9089 5.90885 11.5391 5.28906C11.1745 4.66927 10.6823 4.17708 10.0625 3.8125C9.44271 3.44271 8.75521 3.25781 8 3.25781C7.23958 3.25781 6.54948 3.44271 5.92969 3.8125C5.3099 4.17708 4.8151 4.66927 4.44531 5.28906C4.08073 5.90885 3.89844 6.59896 3.89844 7.35938C3.89844 8.11458 4.08073 8.80469 4.44531 9.42969C4.8151 10.0495 5.3099 10.5443 5.92969 10.9141C6.54948 11.2786 7.23958 11.4609 8 11.4609ZM8 5.89062C7.83333 5.89062 7.69271 5.83333 7.57812 5.71875C7.46354 5.59896 7.40625 5.45833 7.40625 5.29688C7.40625 5.13021 7.46354 4.98958 7.57812 4.875C7.69271 4.75521 7.83333 4.69531 8 4.69531C8.16667 4.69531 8.30729 4.75521 8.42188 4.875C8.53646 4.98958 8.59375 5.13021 8.59375 5.29688C8.59375 5.45833 8.53646 5.59896 8.42188 5.71875C8.30729 5.83333 8.16667 5.89062 8 5.89062ZM5.9375 8.28906C5.6875 8.28906 5.47135 8.20052 5.28906 8.02344C5.10677 7.84115 5.01562 7.625 5.01562 7.375C5.01562 7.125 5.10677 6.91146 5.28906 6.73438C5.47135 6.55208 5.6875 6.46094 5.9375 6.46094C6.1875 6.46094 6.40104 6.55208 6.57812 6.73438C6.76042 6.91146 6.85156 7.125 6.85156 7.375C6.85156 7.625 6.76042 7.84115 6.57812 8.02344C6.40104 8.20052 6.1875 8.28906 5.9375 8.28906ZM10.0625 8.27344C9.8125 8.27344 9.59635 8.1849 9.41406 8.00781C9.23177 7.82552 9.14062 7.60938 9.14062 7.35938C9.14062 7.10938 9.23177 6.89583 9.41406 6.71875C9.59635 6.53646 9.8125 6.44531 10.0625 6.44531C10.3073 6.44531 10.5208 6.53646 10.7031 6.71875C10.8854 6.89583 10.9766 7.10938 10.9766 7.35938C10.9766 7.60938 10.8854 7.82552 10.7031 8.00781C10.5208 8.1849 10.3073 8.27344 10.0625 8.27344ZM3.25781 14.5625H12.7344C13.5521 14.5625 14.1641 14.3594 14.5703 13.9531C14.9818 13.5521 15.1875 12.9479 15.1875 12.1406V2.60156C15.1875 1.79427 14.9818 1.1901 14.5703 0.789062C14.1641 0.382812 13.5521 0.179688 12.7344 0.179688H3.25781C2.4401 0.179688 1.82552 0.382812 1.41406 0.789062C1.00781 1.1901 0.804688 1.79427 0.804688 2.60156V12.1406C0.804688 12.9479 1.00781 13.5521 1.41406 13.9531C1.82552 14.3594 2.4401 14.5625 3.25781 14.5625ZM3.27344 13.3047C2.88281 13.3047 2.58333 13.2031 2.375 13C2.16667 12.7917 2.0625 12.4844 2.0625 12.0781V2.66406C2.0625 2.25781 2.16667 1.95312 2.375 1.75C2.58333 1.54167 2.88281 1.4375 3.27344 1.4375H12.7188C13.1042 1.4375 13.401 1.54167 13.6094 1.75C13.8229 1.95312 13.9297 2.25781 13.9297 2.66406V12.0781C13.9297 12.4844 13.8229 12.7917 13.6094 13C13.401 13.2031 13.1042 13.3047 12.7188 13.3047H3.27344Z" fill="white"/>
</svg>
