<svg width="16" height="15" viewBox="0 0 16 15" fill="none" xmlns="http://www.w3.org/2000/svg">
<path d="M3.01562 14.5625H12.9844C13.8021 14.5625 14.4141 14.3594 14.8203 13.9531C15.2318 13.5521 15.4375 12.9479 15.4375 12.1406V2.60156C15.4375 1.79427 15.2318 1.1901 14.8203 0.789062C14.4141 0.382812 13.8021 0.179688 12.9844 0.179688H3.01562C2.19792 0.179688 1.58333 0.382812 1.17188 0.789062C0.765625 1.1901 0.5625 1.79427 0.5625 2.60156V12.1406C0.5625 12.9479 0.765625 13.5521 1.17188 13.9531C1.58333 14.3594 2.19792 14.5625 3.01562 14.5625ZM7.67188 6.41406C7.53646 6.41406 7.42708 6.3724 7.34375 6.28906C7.26042 6.20573 7.21875 6.09375 7.21875 5.95312V3.60156C7.21875 3.46615 7.26042 3.35677 7.34375 3.27344C7.42708 3.1901 7.53646 3.14844 7.67188 3.14844H8.32031C8.45573 3.14844 8.5651 3.1901 8.64844 3.27344C8.73177 3.35677 8.77344 3.46615 8.77344 3.60156V5.95312C8.77344 6.09375 8.73177 6.20573 8.64844 6.28906C8.5651 6.3724 8.45573 6.41406 8.32031 6.41406H7.67188ZM4.13281 11.1641C3.99219 11.1641 3.88021 11.125 3.79688 11.0469C3.71875 10.9635 3.67969 10.8542 3.67969 10.7188V10.0625C3.67969 9.92708 3.71875 9.81771 3.79688 9.73438C3.88021 9.65104 3.99219 9.60938 4.13281 9.60938H6.22656C6.36198 9.60938 6.47135 9.65104 6.55469 9.73438C6.63802 9.81771 6.67969 9.92708 6.67969 10.0625V10.7188C6.67969 10.8542 6.63802 10.9635 6.55469 11.0469C6.47135 11.125 6.36198 11.1641 6.22656 11.1641H4.13281ZM9.77344 11.1641C9.63802 11.1641 9.52604 11.125 9.4375 11.0469C9.35417 10.9635 9.3125 10.8542 9.3125 10.7188V10.0625C9.3125 9.92708 9.35417 9.81771 9.4375 9.73438C9.52604 9.65104 9.63802 9.60938 9.77344 9.60938H11.8594C12 9.60938 12.112 9.65104 12.1953 9.73438C12.2786 9.81771 12.3203 9.92708 12.3203 10.0625V10.7188C12.3203 10.8542 12.2786 10.9635 12.1953 11.0469C12.1172 11.125 12.0052 11.1641 11.8594 11.1641H9.77344Z" fill="white"/>
</svg>
