<?xml version="1.0" encoding="UTF-8"?>
<svg xmlns="http://www.w3.org/2000/svg" xmlns:xlink="http://www.w3.org/1999/xlink" width="24" height="22.5" viewBox="0 0 24 22.5" version="1.1">
<g id="surface1">
<path style=" stroke:none;fill-rule:nonzero;fill:rgb(100%,100%,100%);fill-opacity:1;" d="M 4.523438 21.84375 L 19.476562 21.84375 C 20.703125 21.84375 21.621094 21.539062 22.230469 20.929688 C 22.847656 20.328125 23.15625 19.421875 23.15625 18.210938 L 23.15625 3.902344 C 23.15625 2.691406 22.847656 1.785156 22.230469 1.183594 C 21.621094 0.574219 20.703125 0.269531 19.476562 0.269531 L 4.523438 0.269531 C 3.296875 0.269531 2.375 0.574219 1.757812 1.183594 C 1.148438 1.785156 0.84375 2.691406 0.84375 3.902344 L 0.84375 18.210938 C 0.84375 19.421875 1.148438 20.328125 1.757812 20.929688 C 2.375 21.539062 3.296875 21.84375 4.523438 21.84375 Z M 4.546875 19.957031 C 3.960938 19.957031 3.511719 19.804688 3.199219 19.5 C 2.886719 19.1875 2.730469 18.726562 2.730469 18.117188 L 2.730469 3.996094 C 2.730469 3.386719 2.886719 2.929688 3.199219 2.625 C 3.511719 2.3125 3.960938 2.15625 4.546875 2.15625 L 19.441406 2.15625 C 20.019531 2.15625 20.46875 2.3125 20.789062 2.625 C 21.109375 2.929688 21.269531 3.386719 21.269531 3.996094 L 21.269531 18.117188 C 21.269531 18.726562 21.109375 19.1875 20.789062 19.5 C 20.46875 19.804688 20.019531 19.957031 19.441406 19.957031 Z M 11.519531 9.65625 L 12.46875 9.65625 C 12.671875 9.65625 12.832031 9.597656 12.949219 9.480469 C 13.066406 9.355469 13.125 9.191406 13.125 8.988281 L 13.125 5.566406 C 13.125 5.363281 13.066406 5.203125 12.949219 5.085938 C 12.832031 4.960938 12.671875 4.898438 12.46875 4.898438 L 11.519531 4.898438 C 11.324219 4.898438 11.164062 4.960938 11.039062 5.085938 C 10.921875 5.203125 10.863281 5.363281 10.863281 5.566406 L 10.863281 8.988281 C 10.863281 9.191406 10.921875 9.355469 11.039062 9.480469 C 11.164062 9.597656 11.324219 9.65625 11.519531 9.65625 Z M 6.363281 16.570312 L 9.421875 16.570312 C 9.617188 16.570312 9.773438 16.511719 9.890625 16.394531 C 10.015625 16.269531 10.078125 16.109375 10.078125 15.914062 L 10.078125 14.964844 C 10.078125 14.769531 10.015625 14.613281 9.890625 14.496094 C 9.773438 14.371094 9.617188 14.308594 9.421875 14.308594 L 6.363281 14.308594 C 6.167969 14.308594 6.007812 14.371094 5.882812 14.496094 C 5.765625 14.613281 5.707031 14.769531 5.707031 14.964844 L 5.707031 15.914062 C 5.707031 16.109375 5.765625 16.269531 5.882812 16.394531 C 6.007812 16.511719 6.167969 16.570312 6.363281 16.570312 Z M 14.578125 16.570312 L 17.625 16.570312 C 17.828125 16.570312 17.988281 16.511719 18.105469 16.394531 C 18.230469 16.269531 18.292969 16.109375 18.292969 15.914062 L 18.292969 14.964844 C 18.292969 14.769531 18.230469 14.613281 18.105469 14.496094 C 17.988281 14.371094 17.828125 14.308594 17.625 14.308594 L 14.578125 14.308594 C 14.375 14.308594 14.210938 14.371094 14.085938 14.496094 C 13.96875 14.613281 13.910156 14.769531 13.910156 14.964844 L 13.910156 15.914062 C 13.910156 16.109375 13.96875 16.269531 14.085938 16.394531 C 14.210938 16.511719 14.375 16.570312 14.578125 16.570312 Z M 14.578125 16.570312 "/>
</g>
</svg>
