<svg width="32" height="10" viewBox="0 0 32 10" fill="none" xmlns="http://www.w3.org/2000/svg">
<path d="M3.03125 9.25781H22.5625C23.2031 9.25781 23.7292 9.04948 24.1406 8.63281C24.5573 8.21615 24.7656 7.6901 24.7656 7.05469V2.51562C24.7656 1.875 24.5573 1.34635 24.1406 0.929688C23.7292 0.513021 23.2031 0.304688 22.5625 0.304688H3.03125C2.39062 0.304688 1.86198 0.513021 1.44531 0.929688C1.03385 1.34635 0.828125 1.875 0.828125 2.51562V7.05469C0.828125 7.69531 1.03385 8.22396 1.44531 8.64062C1.86198 9.05208 2.39062 9.25781 3.03125 9.25781ZM3.03125 8.15625C2.70312 8.15625 2.4375 8.05469 2.23438 7.85156C2.03125 7.64323 1.92969 7.3776 1.92969 7.05469V2.51562C1.92969 2.1875 2.03125 1.92188 2.23438 1.71875C2.4375 1.51042 2.70312 1.40625 3.03125 1.40625H22.5625C22.8854 1.40625 23.1484 1.51042 23.3516 1.71875C23.5599 1.92188 23.6641 2.1875 23.6641 2.51562V7.05469C23.6641 7.3776 23.5599 7.64323 23.3516 7.85156C23.1484 8.05469 22.8854 8.15625 22.5625 8.15625H3.03125ZM3.82031 6.55469H4.35156C4.46094 6.55469 4.54948 6.52083 4.61719 6.45312C4.6901 6.38021 4.72656 6.28646 4.72656 6.17188V3.38281C4.72656 3.26302 4.6901 3.16927 4.61719 3.10156C4.54948 3.02865 4.46094 2.99219 4.35156 2.99219H3.82031C3.70573 2.99219 3.61198 3.02865 3.53906 3.10156C3.47135 3.16927 3.4375 3.26302 3.4375 3.38281V6.17188C3.4375 6.28646 3.47135 6.38021 3.53906 6.45312C3.61198 6.52083 3.70573 6.55469 3.82031 6.55469ZM8.51562 7.1875C8.95833 7.1875 9.36198 7.08073 9.72656 6.86719C10.0911 6.64844 10.3802 6.35938 10.5938 6C10.8125 5.63542 10.9219 5.22917 10.9219 4.78125C10.9219 4.34375 10.8125 3.94271 10.5938 3.57812C10.3802 3.20833 10.0911 2.91667 9.72656 2.70312C9.36198 2.48438 8.95833 2.375 8.51562 2.375C8.07292 2.375 7.66927 2.48438 7.30469 2.70312C6.9401 2.91667 6.64844 3.20833 6.42969 3.57812C6.21615 3.94271 6.10938 4.34375 6.10938 4.78125C6.10938 5.22917 6.21615 5.63542 6.42969 6C6.64844 6.35938 6.9401 6.64844 7.30469 6.86719C7.66927 7.08073 8.07292 7.1875 8.51562 7.1875ZM7.63281 6.04688C7.53906 6.04688 7.45833 6.01302 7.39062 5.94531C7.32292 5.8776 7.28906 5.79948 7.28906 5.71094V3.85938C7.28906 3.77083 7.32292 3.69271 7.39062 3.625C7.45833 3.55208 7.53906 3.51562 7.63281 3.51562C7.72656 3.51562 7.80469 3.54948 7.86719 3.61719C7.92969 3.6849 7.96094 3.76562 7.96094 3.85938V5.71094C7.96094 5.80469 7.92969 5.88542 7.86719 5.95312C7.80469 6.01562 7.72656 6.04688 7.63281 6.04688ZM9.39844 6.04688C9.30469 6.04688 9.22396 6.01562 9.15625 5.95312C9.08854 5.88542 9.05469 5.80469 9.05469 5.71094V3.85938C9.05469 3.76562 9.08854 3.6849 9.15625 3.61719C9.22396 3.54948 9.30469 3.51562 9.39844 3.51562C9.49219 3.51562 9.57031 3.54948 9.63281 3.61719C9.69531 3.6849 9.72656 3.76562 9.72656 3.85938V5.71094C9.72656 5.80469 9.69531 5.88542 9.63281 5.95312C9.57031 6.01562 9.49219 6.04688 9.39844 6.04688ZM14.3125 7.1875C14.7552 7.1875 15.1589 7.08073 15.5234 6.86719C15.888 6.64844 16.1797 6.35938 16.3984 6C16.6172 5.63542 16.7266 5.22917 16.7266 4.78125C16.7266 4.34375 16.6172 3.94271 16.3984 3.57812C16.1797 3.20833 15.888 2.91667 15.5234 2.70312C15.1589 2.48438 14.7552 2.375 14.3125 2.375C13.8698 2.375 13.4661 2.48438 13.1016 2.70312C12.7422 2.91667 12.4531 3.20833 12.2344 3.57812C12.0208 3.94271 11.9141 4.34375 11.9141 4.78125C11.9141 5.22917 12.0208 5.63542 12.2344 6C12.4531 6.35938 12.7422 6.64844 13.1016 6.86719C13.4661 7.08073 13.8698 7.1875 14.3125 7.1875ZM13.4219 6.04688C13.3333 6.04688 13.2552 6.01562 13.1875 5.95312C13.1198 5.88542 13.0859 5.80469 13.0859 5.71094V3.85938C13.0859 3.77083 13.1198 3.69271 13.1875 3.625C13.2552 3.55208 13.3333 3.51562 13.4219 3.51562C13.5208 3.51562 13.6016 3.54948 13.6641 3.61719C13.7318 3.6849 13.7656 3.76562 13.7656 3.85938V5.71094C13.7656 5.80469 13.7318 5.88542 13.6641 5.95312C13.6016 6.01562 13.5208 6.04688 13.4219 6.04688ZM15.1953 6.04688C15.1016 6.04688 15.0208 6.01562 14.9531 5.95312C14.8854 5.88542 14.8516 5.80469 14.8516 5.71094V3.85938C14.8516 3.76562 14.8854 3.6849 14.9531 3.61719C15.0208 3.54948 15.1016 3.51562 15.1953 3.51562C15.2891 3.51562 15.3672 3.54948 15.4297 3.61719C15.4974 3.6849 15.5312 3.76562 15.5312 3.85938V5.71094C15.5312 5.80469 15.4974 5.88542 15.4297 5.95312C15.3672 6.01562 15.2891 6.04688 15.1953 6.04688ZM20.1094 7.1875C20.5521 7.1875 20.9557 7.08073 21.3203 6.86719C21.6849 6.64844 21.974 6.35938 22.1875 6C22.4062 5.63542 22.5156 5.22917 22.5156 4.78125C22.5156 4.34375 22.4062 3.94271 22.1875 3.57812C21.974 3.20833 21.6849 2.91667 21.3203 2.70312C20.9557 2.48438 20.5521 2.375 20.1094 2.375C19.6667 2.375 19.263 2.48438 18.8984 2.70312C18.5339 2.91667 18.2448 3.20833 18.0312 3.57812C17.8177 3.94271 17.7109 4.34375 17.7109 4.78125C17.7109 5.22917 17.8177 5.63542 18.0312 6C18.2448 6.35938 18.5339 6.64844 18.8984 6.86719C19.263 7.08073 19.6667 7.1875 20.1094 7.1875ZM19.2266 6.04688C19.1328 6.04688 19.0521 6.01562 18.9844 5.95312C18.9167 5.88542 18.8828 5.80469 18.8828 5.71094V3.85938C18.8828 3.77083 18.9167 3.69271 18.9844 3.625C19.0521 3.55208 19.1328 3.51562 19.2266 3.51562C19.3203 3.51562 19.3984 3.54948 19.4609 3.61719C19.5286 3.6849 19.5625 3.76562 19.5625 3.85938V5.71094C19.5625 5.80469 19.5286 5.88542 19.4609 5.95312C19.3932 6.01562 19.3151 6.04688 19.2266 6.04688ZM20.9922 6.04688C20.8984 6.04688 20.8177 6.01562 20.75 5.95312C20.6823 5.88542 20.6484 5.80469 20.6484 5.71094V3.85938C20.6484 3.76562 20.6823 3.6849 20.75 3.61719C20.8177 3.54948 20.8984 3.51562 20.9922 3.51562C21.0859 3.51562 21.1641 3.54948 21.2266 3.61719C21.2891 3.6849 21.3203 3.76562 21.3203 3.85938V5.71094C21.3203 5.80469 21.2891 5.88542 21.2266 5.95312C21.1641 6.01562 21.0859 6.04688 20.9922 6.04688ZM24.1797 7.47656H25.3906C25.6615 7.47656 25.8854 7.39062 26.0625 7.21875C26.2396 7.04167 26.3281 6.81771 26.3281 6.54688V3.1875C26.3281 2.91667 26.2396 2.69531 26.0625 2.52344C25.8854 2.34635 25.6615 2.25781 25.3906 2.25781H24.1797V3.125H25.125C25.349 3.125 25.4609 3.23438 25.4609 3.45312V6.27344C25.4609 6.4974 25.349 6.60938 25.125 6.60938H24.1797V7.47656ZM26.1016 5.4375H31.1719V4.41406H26.1016V5.4375Z" fill="white"/>
</svg>
