<svg width="128" height="128" viewBox="0 0 128 128" fill="none" xmlns="http://www.w3.org/2000/svg">
<path d="M63.9375 127.625C72.6458 127.625 80.8333 125.958 88.5 122.625C96.2083 119.292 103 114.688 108.875 108.812C114.75 102.938 119.354 96.1667 122.688 88.5C126.021 80.7917 127.688 72.5833 127.688 63.875C127.688 55.1667 126.021 46.9792 122.688 39.3125C119.354 31.6042 114.75 24.8125 108.875 18.9375C103 13.0625 96.2083 8.45833 88.5 5.125C80.7917 1.79167 72.5833 0.125 63.875 0.125C55.1667 0.125 46.9583 1.79167 39.25 5.125C31.5833 8.45833 24.8125 13.0625 18.9375 18.9375C13.1042 24.8125 8.52083 31.6042 5.1875 39.3125C1.85417 46.9792 0.1875 55.1667 0.1875 63.875C0.1875 72.5833 1.85417 80.7917 5.1875 88.5C8.52083 96.1667 13.125 102.938 19 108.812C24.875 114.688 31.6458 119.292 39.3125 122.625C47.0208 125.958 55.2292 127.625 63.9375 127.625ZM63.9375 117C56.5625 117 49.6667 115.625 43.25 112.875C36.8333 110.125 31.1875 106.333 26.3125 101.5C21.4792 96.625 17.6875 90.9792 14.9375 84.5625C12.2292 78.1458 10.875 71.25 10.875 63.875C10.875 56.5 12.2292 49.6042 14.9375 43.1875C17.6875 36.7708 21.4792 31.125 26.3125 26.25C31.1458 21.375 36.7708 17.5833 43.1875 14.875C49.6042 12.125 56.5 10.75 63.875 10.75C71.25 10.75 78.1458 12.125 84.5625 14.875C91.0208 17.5833 96.6667 21.375 101.5 26.25C106.375 31.125 110.188 36.7708 112.938 43.1875C115.688 49.6042 117.062 56.5 117.062 63.875C117.062 71.25 115.688 78.1458 112.938 84.5625C110.229 90.9792 106.438 96.625 101.562 101.5C96.6875 106.333 91.0417 110.125 84.625 112.875C78.2083 115.625 71.3125 117 63.9375 117ZM63.9375 96.5C68.3958 96.5 72.6042 95.6458 76.5625 93.9375C80.5208 92.1875 84 89.8125 87 86.8125C90 83.8125 92.3542 80.3542 94.0625 76.4375C95.8125 72.4792 96.6875 68.2708 96.6875 63.8125C96.6875 59.3125 95.7292 54.9583 93.8125 50.75C91.9375 46.5 89.3125 42.8542 85.9375 39.8125C84.8958 38.8125 83.8125 38.375 82.6875 38.5C81.5625 38.5833 80.6042 39.0417 79.8125 39.875C79.0625 40.6667 78.6667 41.6458 78.625 42.8125C78.5833 43.9375 79.1042 45 80.1875 46C82.6875 48.2917 84.6042 50.9792 85.9375 54.0625C87.3125 57.1042 88.0208 60.3542 88.0625 63.8125C88.0625 68.2708 86.9792 72.3333 84.8125 76C82.6458 79.625 79.7292 82.5208 76.0625 84.6875C72.4375 86.8542 68.3958 87.9375 63.9375 87.9375C59.4375 87.9375 55.375 86.8542 51.75 84.6875C48.125 82.5208 45.2292 79.625 43.0625 76C40.9375 72.3333 39.875 68.2708 39.875 63.8125C39.875 60.3542 40.5417 57.1042 41.875 54.0625C43.2083 50.9792 45.125 48.2708 47.625 45.9375C48.7083 44.9375 49.2292 43.875 49.1875 42.75C49.1458 41.5833 48.75 40.6042 48 39.8125C47.25 39.0208 46.3125 38.5625 45.1875 38.4375C44.0625 38.3125 42.9583 38.7708 41.875 39.8125C38.5 42.8125 35.875 46.4375 34 50.6875C32.125 54.8958 31.1875 59.2708 31.1875 63.8125C31.1875 68.2708 32.0417 72.4792 33.75 76.4375C35.4583 80.3542 37.8125 83.8125 40.8125 86.8125C43.8542 89.8125 47.3333 92.1875 51.25 93.9375C55.2083 95.6458 59.4375 96.5 63.9375 96.5ZM63.9375 65.1875C65.1458 65.1875 66.125 64.7917 66.875 64C67.6667 63.2083 68.0625 62.1875 68.0625 60.9375V33.625C68.0625 32.3333 67.6667 31.2917 66.875 30.5C66.125 29.7083 65.1458 29.3125 63.9375 29.3125C62.6875 29.3125 61.6667 29.7083 60.875 30.5C60.125 31.2917 59.75 32.3333 59.75 33.625V60.9375C59.75 62.1875 60.125 63.2083 60.875 64C61.6667 64.7917 62.6875 65.1875 63.9375 65.1875Z" fill="white"/>
</svg>
