<?xml version="1.0" encoding="UTF-8"?>
<svg xmlns="http://www.w3.org/2000/svg" xmlns:xlink="http://www.w3.org/1999/xlink" width="24" height="20" viewBox="0 0 24 20" version="1.1">
<g id="surface1">
<path style=" stroke:none;fill-rule:nonzero;fill:rgb(100%,100%,100%);fill-opacity:1;" d="M 6.355469 18.761719 L 17.625 18.761719 C 18.007812 18.761719 18.367188 18.695312 18.707031 18.5625 C 19.046875 18.4375 19.351562 18.25 19.613281 18 C 20.359375 17.296875 20.992188 16.503906 21.519531 15.613281 C 22.046875 14.726562 22.453125 13.789062 22.730469 12.800781 C 23.015625 11.808594 23.15625 10.8125 23.15625 9.8125 C 23.15625 8.804688 23.015625 7.808594 22.730469 6.824219 C 22.453125 5.835938 22.046875 4.898438 21.519531 4.011719 C 20.992188 3.121094 20.359375 2.328125 19.613281 1.625 C 19.359375 1.375 19.054688 1.183594 18.707031 1.050781 C 18.367188 0.921875 18.007812 0.855469 17.625 0.855469 L 6.355469 0.855469 C 5.957031 0.855469 5.578125 0.925781 5.21875 1.074219 C 4.859375 1.21875 4.542969 1.429688 4.269531 1.707031 C 3.554688 2.410156 2.941406 3.203125 2.425781 4.082031 C 1.914062 4.957031 1.515625 5.886719 1.238281 6.863281 C 0.96875 7.835938 0.832031 8.820312 0.832031 9.8125 C 0.832031 10.8125 0.972656 11.808594 1.25 12.800781 C 1.535156 13.789062 1.941406 14.726562 2.46875 15.613281 C 2.996094 16.503906 3.632812 17.296875 4.375 18 C 4.632812 18.25 4.929688 18.4375 5.269531 18.5625 C 5.617188 18.695312 5.980469 18.761719 6.355469 18.761719 Z M 6.355469 17.136719 C 6.007812 17.136719 5.734375 17.035156 5.53125 16.832031 C 4.898438 16.234375 4.359375 15.5625 3.90625 14.8125 C 3.460938 14.054688 3.117188 13.257812 2.875 12.417969 C 2.632812 11.578125 2.511719 10.726562 2.511719 9.863281 C 2.511719 9.003906 2.632812 8.148438 2.875 7.300781 C 3.117188 6.453125 3.464844 5.652344 3.917969 4.894531 C 4.375 4.140625 4.921875 3.464844 5.550781 2.875 C 5.753906 2.679688 6.019531 2.582031 6.355469 2.582031 L 17.625 2.582031 C 17.972656 2.582031 18.25 2.6875 18.457031 2.894531 C 19.082031 3.484375 19.621094 4.160156 20.074219 4.917969 C 20.523438 5.671875 20.871094 6.472656 21.113281 7.3125 C 21.359375 8.152344 21.480469 9.003906 21.480469 9.863281 C 21.480469 10.726562 21.359375 11.578125 21.113281 12.417969 C 20.871094 13.257812 20.523438 14.054688 20.074219 14.8125 C 19.621094 15.5625 19.082031 16.234375 18.457031 16.832031 C 18.257812 17.035156 17.980469 17.136719 17.625 17.136719 Z M 7.644531 14.019531 C 7.902344 14.019531 8.121094 13.933594 8.300781 13.761719 C 8.484375 13.585938 8.574219 13.371094 8.574219 13.113281 L 8.574219 6.625 C 8.574219 6.367188 8.484375 6.148438 8.300781 5.96875 C 8.121094 5.78125 7.902344 5.6875 7.644531 5.6875 C 7.382812 5.6875 7.164062 5.78125 6.988281 5.96875 C 6.824219 6.148438 6.738281 6.367188 6.738281 6.625 L 6.738281 13.113281 C 6.738281 13.371094 6.828125 13.585938 7 13.761719 C 7.171875 13.933594 7.390625 14.019531 7.644531 14.019531 Z M 16.332031 14.019531 C 16.589844 14.019531 16.804688 13.933594 16.980469 13.761719 C 17.160156 13.578125 17.25 13.359375 17.25 13.105469 L 17.25 6.625 C 17.25 6.367188 17.160156 6.148438 16.980469 5.96875 C 16.804688 5.78125 16.589844 5.6875 16.332031 5.6875 C 16.078125 5.6875 15.859375 5.78125 15.675781 5.96875 C 15.503906 6.148438 15.417969 6.367188 15.417969 6.625 L 15.417969 13.105469 C 15.417969 13.359375 15.503906 13.578125 15.675781 13.761719 C 15.859375 13.933594 16.078125 14.019531 16.332031 14.019531 Z M 16.332031 14.019531 "/>
</g>
</svg>
