<?xml version="1.0" encoding="UTF-8"?>
<svg xmlns="http://www.w3.org/2000/svg" xmlns:xlink="http://www.w3.org/1999/xlink" width="24" height="22.5" viewBox="0 0 24 22.5" version="1.1">
<g id="surface1">
<path style=" stroke:none;fill-rule:nonzero;fill:rgb(100%,100%,100%);fill-opacity:1;" d="M 12 17.191406 C 13.132812 17.191406 14.164062 16.917969 15.09375 16.371094 C 16.023438 15.816406 16.761719 15.074219 17.308594 14.144531 C 17.863281 13.207031 18.140625 12.171875 18.140625 11.039062 C 18.140625 9.898438 17.863281 8.863281 17.308594 7.933594 C 16.761719 7.003906 16.023438 6.265625 15.09375 5.71875 C 14.164062 5.164062 13.132812 4.886719 12 4.886719 C 10.859375 4.886719 9.824219 5.164062 8.894531 5.71875 C 7.964844 6.265625 7.222656 7.003906 6.667969 7.933594 C 6.121094 8.863281 5.847656 9.898438 5.847656 11.039062 C 5.847656 12.171875 6.121094 13.207031 6.667969 14.144531 C 7.222656 15.074219 7.964844 15.816406 8.894531 16.371094 C 9.824219 16.917969 10.859375 17.191406 12 17.191406 Z M 12 8.835938 C 11.75 8.835938 11.539062 8.75 11.367188 8.578125 C 11.195312 8.398438 11.109375 8.1875 11.109375 7.945312 C 11.109375 7.695312 11.195312 7.484375 11.367188 7.3125 C 11.539062 7.132812 11.75 7.042969 12 7.042969 C 12.25 7.042969 12.460938 7.132812 12.632812 7.3125 C 12.804688 7.484375 12.890625 7.695312 12.890625 7.945312 C 12.890625 8.1875 12.804688 8.398438 12.632812 8.578125 C 12.460938 8.75 12.25 8.835938 12 8.835938 Z M 8.90625 12.433594 C 8.53125 12.433594 8.207031 12.300781 7.933594 12.035156 C 7.660156 11.761719 7.523438 11.4375 7.523438 11.0625 C 7.523438 10.6875 7.660156 10.367188 7.933594 10.101562 C 8.207031 9.828125 8.53125 9.691406 8.90625 9.691406 C 9.28125 9.691406 9.601562 9.828125 9.867188 10.101562 C 10.140625 10.367188 10.277344 10.6875 10.277344 11.0625 C 10.277344 11.4375 10.140625 11.761719 9.867188 12.035156 C 9.601562 12.300781 9.28125 12.433594 8.90625 12.433594 Z M 15.09375 12.410156 C 14.71875 12.410156 14.394531 12.277344 14.121094 12.011719 C 13.847656 11.738281 13.710938 11.414062 13.710938 11.039062 C 13.710938 10.664062 13.847656 10.34375 14.121094 10.078125 C 14.394531 9.804688 14.71875 9.667969 15.09375 9.667969 C 15.460938 9.667969 15.78125 9.804688 16.054688 10.078125 C 16.328125 10.34375 16.464844 10.664062 16.464844 11.039062 C 16.464844 11.414062 16.328125 11.738281 16.054688 12.011719 C 15.78125 12.277344 15.460938 12.410156 15.09375 12.410156 Z M 4.886719 21.84375 L 19.101562 21.84375 C 20.328125 21.84375 21.246094 21.539062 21.855469 20.929688 C 22.472656 20.328125 22.78125 19.421875 22.78125 18.210938 L 22.78125 3.902344 C 22.78125 2.691406 22.472656 1.785156 21.855469 1.183594 C 21.246094 0.574219 20.328125 0.269531 19.101562 0.269531 L 4.886719 0.269531 C 3.660156 0.269531 2.738281 0.574219 2.121094 1.183594 C 1.511719 1.785156 1.207031 2.691406 1.207031 3.902344 L 1.207031 18.210938 C 1.207031 19.421875 1.511719 20.328125 2.121094 20.929688 C 2.738281 21.539062 3.660156 21.84375 4.886719 21.84375 Z M 4.910156 19.957031 C 4.324219 19.957031 3.875 19.804688 3.5625 19.5 C 3.25 19.1875 3.09375 18.726562 3.09375 18.117188 L 3.09375 3.996094 C 3.09375 3.386719 3.25 2.929688 3.5625 2.625 C 3.875 2.3125 4.324219 2.15625 4.910156 2.15625 L 19.078125 2.15625 C 19.65625 2.15625 20.101562 2.3125 20.414062 2.625 C 20.734375 2.929688 20.894531 3.386719 20.894531 3.996094 L 20.894531 18.117188 C 20.894531 18.726562 20.734375 19.1875 20.414062 19.5 C 20.101562 19.804688 19.65625 19.957031 19.078125 19.957031 Z M 4.910156 19.957031 "/>
</g>
</svg>
