<svg width="16" height="15" viewBox="0 0 16 15" fill="none" xmlns="http://www.w3.org/2000/svg">
<path d="M5.27344 4.875H10.7188C10.9792 4.875 11.1745 4.92448 11.3047 5.02344C11.4349 5.1224 11.5651 5.23958 11.6953 5.375L13.125 6.82031C13.2656 6.96615 13.3359 7.14323 13.3359 7.35156C13.3411 7.5599 13.2708 7.73698 13.125 7.88281L11.6953 9.34375C11.5651 9.47917 11.4245 9.59635 11.2734 9.69531C11.1224 9.79427 10.9375 9.84375 10.7188 9.84375H5.27344C5.05469 9.84375 4.86979 9.79427 4.71875 9.69531C4.57292 9.59635 4.43229 9.47917 4.29688 9.34375L2.86719 7.88281C2.72656 7.73698 2.65625 7.5599 2.65625 7.35156C2.65625 7.14323 2.72656 6.96615 2.86719 6.82031L4.29688 5.375C4.43229 5.23958 4.5651 5.1224 4.69531 5.02344C4.82552 4.92448 5.01823 4.875 5.27344 4.875ZM5.09375 6.5625C4.88021 6.5625 4.69271 6.64323 4.53125 6.80469C4.375 6.96094 4.29688 7.14583 4.29688 7.35938C4.29688 7.57292 4.375 7.75781 4.53125 7.91406C4.69271 8.07031 4.88021 8.14844 5.09375 8.14844C5.30729 8.14844 5.49219 8.07031 5.64844 7.91406C5.8099 7.75781 5.89062 7.57292 5.89062 7.35938C5.89062 7.14583 5.8099 6.96094 5.64844 6.80469C5.49219 6.64323 5.30729 6.5625 5.09375 6.5625ZM8 7.14062C7.78125 7.14062 7.59375 7.22135 7.4375 7.38281C7.28125 7.53906 7.20312 7.72396 7.20312 7.9375C7.20312 8.15104 7.28125 8.33854 7.4375 8.5C7.59375 8.65625 7.78125 8.73438 8 8.73438C8.21354 8.73438 8.39844 8.65625 8.55469 8.5C8.71094 8.33854 8.78906 8.15104 8.78906 7.9375C8.78906 7.72396 8.71094 7.53906 8.55469 7.38281C8.39844 7.22135 8.21354 7.14062 8 7.14062ZM10.8984 6.5625C10.6849 6.5625 10.5 6.64323 10.3438 6.80469C10.1875 6.96094 10.1094 7.14583 10.1094 7.35938C10.1094 7.57292 10.1875 7.75781 10.3438 7.91406C10.5 8.07031 10.6849 8.14844 10.8984 8.14844C11.1172 8.14844 11.3047 8.07031 11.4609 7.91406C11.6172 7.75781 11.6953 7.57292 11.6953 7.35938C11.6953 7.14583 11.6172 6.96094 11.4609 6.80469C11.3047 6.64323 11.1172 6.5625 10.8984 6.5625ZM3.25781 14.5625H12.7344C13.5521 14.5625 14.1641 14.3594 14.5703 13.9531C14.9818 13.5521 15.1875 12.9479 15.1875 12.1406V2.60156C15.1875 1.79427 14.9818 1.1901 14.5703 0.789062C14.1641 0.382812 13.5521 0.179688 12.7344 0.179688H3.25781C2.4401 0.179688 1.82552 0.382812 1.41406 0.789062C1.00781 1.1901 0.804688 1.79427 0.804688 2.60156V12.1406C0.804688 12.9479 1.00781 13.5521 1.41406 13.9531C1.82552 14.3594 2.4401 14.5625 3.25781 14.5625Z" fill="white"/>
</svg>
