<?xml version="1.0" encoding="UTF-8"?>
<svg xmlns="http://www.w3.org/2000/svg" xmlns:xlink="http://www.w3.org/1999/xlink" width="24" height="24" viewBox="0 0 24 24" version="1.1">
<g id="surface1">
<path style=" stroke:none;fill-rule:nonzero;fill:rgb(100%,100%,100%);fill-opacity:1;" d="M 7.007812 6.550781 C 7.007812 5.535156 7.128906 4.554688 7.371094 3.609375 C 7.621094 2.65625 7.980469 1.757812 8.449219 0.914062 C 8.519531 0.789062 8.535156 0.675781 8.496094 0.574219 C 8.464844 0.464844 8.394531 0.390625 8.285156 0.351562 C 8.183594 0.3125 8.058594 0.332031 7.910156 0.410156 C 6.621094 1.066406 5.480469 1.933594 4.488281 3.011719 C 3.503906 4.089844 2.734375 5.3125 2.179688 6.679688 C 1.625 8.046875 1.347656 9.5 1.347656 11.039062 C 1.347656 12.671875 1.660156 14.210938 2.285156 15.65625 C 2.910156 17.09375 3.773438 18.363281 4.875 19.464844 C 5.976562 20.566406 7.246094 21.429688 8.683594 22.054688 C 10.128906 22.679688 11.667969 22.992188 13.300781 22.992188 C 14.535156 22.992188 15.71875 22.804688 16.851562 22.429688 C 17.984375 22.0625 19.03125 21.542969 19.992188 20.871094 C 20.960938 20.207031 21.808594 19.421875 22.535156 18.515625 C 22.652344 18.382812 22.683594 18.246094 22.628906 18.105469 C 22.574219 17.964844 22.429688 17.925781 22.195312 17.988281 C 21.679688 18.160156 21.152344 18.289062 20.613281 18.375 C 20.074219 18.460938 19.523438 18.503906 18.960938 18.503906 C 17.328125 18.503906 15.789062 18.191406 14.34375 17.566406 C 12.90625 16.941406 11.636719 16.078125 10.535156 14.976562 C 9.433594 13.875 8.570312 12.605469 7.945312 11.167969 C 7.320312 9.722656 7.007812 8.183594 7.007812 6.550781 Z M 7.007812 6.550781 "/>
</g>
</svg>
