<svg xmlns="http://www.w3.org/2000/svg" width="24" height="24"><path style="stroke:none;fill-rule:nonzero;fill:#fff;fill-opacity:1" d="M5.297 12.938c0 .234.07.425.21.574.141.144.321.215.54.215h.516v.597c0 .719.257 1.39.773 2.028.516.625 1.184 1.132 2.004 1.523.84.387 1.746.582 2.66.574.938 0 1.816-.191 2.637-.574.828-.39 1.5-.898 2.015-1.523.516-.637.774-1.309.774-2.028v-.597h.515c.227 0 .407-.07.54-.215a.805.805 0 0 0 .21-.575v-2.312c0-.242-.07-.434-.21-.574-.133-.14-.313-.211-.54-.211h-.515v-.613c0-.711-.258-1.375-.774-2-.515-.633-1.187-1.141-2.015-1.528A6.067 6.067 0 0 0 12 5.113c-.945 0-1.832.196-2.66.586-.82.387-1.488.895-2.004 1.528-.516.625-.774 1.289-.774 2v.613h-.515a.72.72 0 0 0-.54.21c-.14.141-.21.333-.21.575Zm3.785.3c-.375 0-.7-.144-.973-.425a1.46 1.46 0 0 1-.398-1.04c0-.398.133-.738.398-1.023a1.3 1.3 0 0 1 .973-.426c.375 0 .695.14.961.426.273.285.41.625.41 1.023 0 .41-.137.754-.41 1.04-.25.277-.598.43-.961.425Zm5.824 0c-.375 0-.699-.144-.972-.425a1.46 1.46 0 0 1-.399-1.04c0-.398.133-.738.399-1.023a1.3 1.3 0 0 1 .972-.426c.375 0 .696.14.961.426.274.285.41.625.41 1.023 0 .41-.136.754-.41 1.04-.25.277-.597.43-.96.425ZM4.886 23.301h14.216c1.226 0 2.144-.324 2.753-.977.618-.64.926-1.605.926-2.898V4.164c0-1.293-.308-2.258-.926-2.898-.609-.653-1.527-.977-2.753-.977H4.887c-1.227 0-2.149.324-2.766.977-.61.64-.914 1.605-.914 2.898v15.262c0 1.293.305 2.258.914 2.902.617.649 1.54.973 2.766.973Zm.024-2.012c-.586 0-1.035-.164-1.348-.488-.312-.336-.468-.824-.468-1.477V4.262c0-.649.156-1.137.469-1.461.312-.336.761-.5 1.347-.5h14.168c.578 0 1.024.164 1.336.5.32.324.48.812.48 1.46v15.063c0 .653-.16 1.14-.48 1.477-.312.324-.758.488-1.336.488Zm0 0"/></svg>