<svg xmlns="http://www.w3.org/2000/svg" width="24" height="24"><path style="stroke:none;fill-rule:nonzero;fill:#fff;fill-opacity:1" d="M2.273 22.21h14.649c.48 0 .875-.483 1.183-1.495.313-.988.47-2.262.47-3.777V6.039c0-1.535-.157-2.816-.47-3.8-.308-1-.703-1.505-1.183-1.505H2.273c-.48 0-.875.504-1.191 1.504C.773 3.227.622 4.5.622 6.04v10.898c0 1.528.151 2.801.46 3.797.316.993.711 1.477 1.191 1.477Zm.375-6.347c-.078.012-.156-.078-.214-.25-.059-.16-.086-.402-.086-.687V8.012c0-.301.027-.535.086-.7.058-.18.132-.277.214-.261h.41c.087 0 .157.086.212.261.054.16.082.399.082.7v6.914c0 .285-.028.523-.082.687-.06.168-.133.258-.211.25Zm3.633 1.575c-.343 0-.656-.262-.937-.801-.278-.528-.512-1.274-.676-2.164a16.455 16.455 0 0 1-.25-2.996c0-1.09.082-2.086.25-2.989.164-.898.398-1.648.676-2.18.281-.53.593-.796.937-.796.664-.008 1.282 1.129 1.61 2.976.171.903.254 1.899.254 2.989 0 1.097-.082 2.097-.254 2.996-.164.902-.391 1.625-.676 2.164-.281.539-.594.8-.934.8Zm4.485 0c-.344 0-.653-.262-.934-.801-.277-.532-.512-1.274-.676-2.164-.164-.91-.25-1.946-.246-2.996 0-1.09.086-2.086.246-2.989.172-.914.395-1.636.676-2.18.281-.53.59-.796.934-.796.668-.012 1.28 1.125 1.613 2.976.172.903.254 1.899.254 2.989 0 1.097-.082 2.097-.254 2.996-.164.902-.39 1.625-.676 2.164-.281.539-.594.8-.937.8Zm4.484 0c-.344 0-.656-.262-.938-.801-.277-.528-.507-1.274-.671-2.164-.164-.91-.25-1.946-.246-2.996 0-1.09.082-2.086.246-2.989.168-.914.39-1.636.671-2.18.282-.53.594-.796.938-.796s.652.265.934.797c.285.543.511 1.265.68 2.18.167.902.25 1.898.25 2.988 0 1.097-.083 2.097-.25 2.996-.165.894-.4 1.64-.68 2.164-.282.539-.59.8-.934.8Zm-9.652-2.829c.07 0 .129-.086.18-.246.05-.16.077-.355.077-.578V9.191c0-.218-.027-.43-.078-.578-.043-.175-.109-.277-.18-.273-.074-.004-.14.098-.187.273-.05.153-.078.36-.078.578v4.602c0 .21.027.398.078.574.05.16.117.246.188.246Zm1.367 0c.07.004.133-.086.18-.246.05-.16.074-.355.074-.578V9.191c0-.218-.024-.425-.074-.578-.043-.175-.11-.277-.18-.273-.074-.004-.145.098-.192.273-.05.153-.074.36-.074.578v4.602c0 .223.028.41.078.574.059.16.118.246.188.246Zm3.113 0c.078 0 .14-.086.188-.246.05-.16.078-.355.078-.578V9.191c0-.218-.028-.43-.078-.578-.043-.183-.114-.285-.188-.273-.07 0-.14.101-.187.273-.051.153-.079.36-.079.578v4.602c.004.457.122.816.266.824Zm1.371 0c.07 0 .13-.086.18-.246.05-.16.078-.355.078-.578V9.191c0-.218-.027-.43-.078-.578-.043-.18-.11-.281-.18-.273-.074-.004-.14.098-.187.273-.051.153-.075.36-.075.578v4.602c0 .223.024.41.075.574.05.16.113.246.187.246Zm3.117 0c.07 0 .133-.086.184-.246.05-.148.078-.36.078-.578V9.191c0-.218-.023-.425-.074-.578-.047-.18-.117-.277-.188-.273-.074-.004-.14.098-.187.273-.05.153-.078.36-.078.578v4.602c0 .223.027.41.078.574.05.16.113.246.187.246Zm1.371 0c.07 0 .13-.086.176-.246.051-.16.075-.355.075-.578V9.191c0-.218-.024-.425-.075-.578-.043-.175-.105-.277-.175-.273-.075-.008-.145.094-.192.273-.05.149-.078.36-.078.578v4.602c0 .223.027.41.082.574.05.156.117.246.188.246Zm2.2 3.329h.906c.187.023.367-.2.504-.614.133-.426.2-.96.2-1.613V7.648c.007-.593-.067-1.171-.2-1.585-.133-.434-.317-.672-.504-.653h-.906Zm1.441-4.887h3.8v-2.465h-3.8Zm0 0"/></svg>