<?xml version="1.0" encoding="UTF-8"?>
<svg xmlns="http://www.w3.org/2000/svg" xmlns:xlink="http://www.w3.org/1999/xlink" width="24" height="43.2" viewBox="0 0 24 43.2" version="1.1">
<g id="surface1">
<path style=" stroke:none;fill-rule:nonzero;fill:rgb(100%,100%,100%);fill-opacity:1;" d="M 7.367188 42.917969 L 16.632812 42.917969 C 18.53125 42.917969 19.96875 42.4375 20.945312 41.476562 C 21.917969 40.511719 22.40625 39.09375 22.40625 37.21875 L 22.40625 7.726562 C 22.40625 5.851562 21.917969 4.429688 20.945312 3.46875 C 19.96875 2.492188 18.53125 2.007812 16.632812 2.007812 L 7.367188 2.007812 C 5.480469 2.007812 4.042969 2.492188 3.054688 3.46875 C 2.082031 4.429688 1.59375 5.851562 1.59375 7.726562 L 1.59375 37.21875 C 1.59375 39.09375 2.082031 40.511719 3.054688 41.476562 C 4.042969 42.4375 5.480469 42.917969 7.367188 42.917969 Z M 7.425781 39.898438 C 6.539062 39.898438 5.84375 39.65625 5.34375 39.167969 C 4.855469 38.679688 4.613281 37.980469 4.613281 37.070312 L 4.613281 7.875 C 4.613281 6.960938 4.855469 6.261719 5.34375 5.773438 C 5.84375 5.273438 6.539062 5.023438 7.425781 5.023438 L 16.574219 5.023438 C 17.460938 5.023438 18.148438 5.273438 18.636719 5.773438 C 19.136719 6.261719 19.386719 6.960938 19.386719 7.875 L 19.386719 37.070312 C 19.386719 37.980469 19.136719 38.679688 18.636719 39.167969 C 18.148438 39.65625 17.460938 39.898438 16.574219 39.898438 Z M 12.019531 15.167969 C 12.792969 15.167969 13.457031 14.894531 14.007812 14.34375 C 14.554688 13.792969 14.832031 13.125 14.832031 12.335938 C 14.832031 11.574219 14.554688 10.917969 14.007812 10.367188 C 13.457031 9.820312 12.792969 9.542969 12.019531 9.542969 C 11.242188 9.542969 10.574219 9.820312 10.011719 10.367188 C 9.460938 10.917969 9.1875 11.574219 9.1875 12.335938 C 9.1875 13.125 9.460938 13.792969 10.011719 14.34375 C 10.574219 14.894531 11.242188 15.167969 12.019531 15.167969 Z M 12.019531 25.273438 C 12.792969 25.273438 13.457031 25 14.007812 24.449219 C 14.554688 23.898438 14.832031 23.238281 14.832031 22.460938 C 14.832031 21.6875 14.554688 21.023438 14.007812 20.476562 C 13.457031 19.925781 12.792969 19.648438 12.019531 19.648438 C 11.242188 19.648438 10.574219 19.925781 10.011719 20.476562 C 9.460938 21.023438 9.1875 21.6875 9.1875 22.460938 C 9.1875 23.238281 9.460938 23.898438 10.011719 24.449219 C 10.574219 25 11.242188 25.273438 12.019531 25.273438 Z M 12.019531 35.398438 C 12.792969 35.398438 13.457031 35.125 14.007812 34.574219 C 14.554688 34.023438 14.832031 33.355469 14.832031 32.570312 C 14.832031 31.804688 14.554688 31.148438 14.007812 30.601562 C 13.457031 30.050781 12.792969 29.773438 12.019531 29.773438 C 11.242188 29.773438 10.574219 30.050781 10.011719 30.601562 C 9.460938 31.148438 9.1875 31.804688 9.1875 32.570312 C 9.1875 33.355469 9.460938 34.023438 10.011719 34.574219 C 10.574219 35.125 11.242188 35.398438 12.019531 35.398438 Z M 12.019531 35.398438 "/>
</g>
</svg>
