<svg width="116" height="116" viewBox="0 0 116 116" fill="none" xmlns="http://www.w3.org/2000/svg">
<path d="M36.6875 38H80.25C82.3333 38 83.8958 38.3958 84.9375 39.1875C85.9792 39.9792 87.0208 40.9167 88.0625 42L99.5 53.5625C100.625 54.7292 101.188 56.1458 101.188 57.8125C101.229 59.4792 100.667 60.8958 99.5 62.0625L88.0625 73.75C87.0208 74.8333 85.8958 75.7708 84.6875 76.5625C83.4792 77.3542 82 77.75 80.25 77.75H36.6875C34.9375 77.75 33.4583 77.3542 32.25 76.5625C31.0833 75.7708 29.9583 74.8333 28.875 73.75L17.4375 62.0625C16.3125 60.8958 15.75 59.4792 15.75 57.8125C15.75 56.1458 16.3125 54.7292 17.4375 53.5625L28.875 42C29.9583 40.9167 31.0208 39.9792 32.0625 39.1875C33.1042 38.3958 34.6458 38 36.6875 38ZM35.25 51.5C33.5417 51.5 32.0417 52.1458 30.75 53.4375C29.5 54.6875 28.875 56.1667 28.875 57.875C28.875 59.5833 29.5 61.0625 30.75 62.3125C32.0417 63.5625 33.5417 64.1875 35.25 64.1875C36.9583 64.1875 38.4375 63.5625 39.6875 62.3125C40.9792 61.0625 41.625 59.5833 41.625 57.875C41.625 56.1667 40.9792 54.6875 39.6875 53.4375C38.4375 52.1458 36.9583 51.5 35.25 51.5ZM58.5 56.125C56.75 56.125 55.25 56.7708 54 58.0625C52.75 59.3125 52.125 60.7917 52.125 62.5C52.125 64.2083 52.75 65.7083 54 67C55.25 68.25 56.75 68.875 58.5 68.875C60.2083 68.875 61.6875 68.25 62.9375 67C64.1875 65.7083 64.8125 64.2083 64.8125 62.5C64.8125 60.7917 64.1875 59.3125 62.9375 58.0625C61.6875 56.7708 60.2083 56.125 58.5 56.125ZM81.6875 51.5C79.9792 51.5 78.5 52.1458 77.25 53.4375C76 54.6875 75.375 56.1667 75.375 57.875C75.375 59.5833 76 61.0625 77.25 62.3125C78.5 63.5625 79.9792 64.1875 81.6875 64.1875C83.4375 64.1875 84.9375 63.5625 86.1875 62.3125C87.4375 61.0625 88.0625 59.5833 88.0625 57.875C88.0625 56.1667 87.4375 54.6875 86.1875 53.4375C84.9375 52.1458 83.4375 51.5 81.6875 51.5ZM20.5625 115.5H96.375C102.917 115.5 107.812 113.875 111.062 110.625C114.354 107.417 116 102.583 116 96.125V19.8125C116 13.3542 114.354 8.52083 111.062 5.3125C107.812 2.0625 102.917 0.4375 96.375 0.4375H20.5625C14.0208 0.4375 9.10417 2.0625 5.8125 5.3125C2.5625 8.52083 0.9375 13.3542 0.9375 19.8125V96.125C0.9375 102.583 2.5625 107.417 5.8125 110.625C9.10417 113.875 14.0208 115.5 20.5625 115.5Z" fill="white"/>
</svg>
