<?xml version="1.0" encoding="UTF-8"?>
<svg xmlns="http://www.w3.org/2000/svg" xmlns:xlink="http://www.w3.org/1999/xlink" width="24" height="22.5" viewBox="0 0 24 22.5" version="1.1">
<g id="surface1">
<path style=" stroke:none;fill-rule:nonzero;fill:rgb(100%,100%,100%);fill-opacity:1;" d="M 4.523438 21.84375 L 19.476562 21.84375 C 20.703125 21.84375 21.621094 21.539062 22.230469 20.929688 C 22.847656 20.328125 23.15625 19.421875 23.15625 18.210938 L 23.15625 3.902344 C 23.15625 2.691406 22.847656 1.785156 22.230469 1.183594 C 21.621094 0.574219 20.703125 0.269531 19.476562 0.269531 L 4.523438 0.269531 C 3.296875 0.269531 2.375 0.574219 1.757812 1.183594 C 1.148438 1.785156 0.84375 2.691406 0.84375 3.902344 L 0.84375 18.210938 C 0.84375 19.421875 1.148438 20.328125 1.757812 20.929688 C 2.375 21.539062 3.296875 21.84375 4.523438 21.84375 Z M 7.804688 10.921875 C 7.5 10.921875 7.246094 10.820312 7.042969 10.617188 C 6.839844 10.414062 6.738281 10.15625 6.738281 9.84375 L 6.738281 6.105469 C 6.738281 5.808594 6.839844 5.554688 7.042969 5.34375 C 7.246094 5.125 7.5 5.015625 7.804688 5.015625 C 8.109375 5.015625 8.363281 5.125 8.566406 5.34375 C 8.777344 5.554688 8.882812 5.808594 8.882812 6.105469 L 8.882812 9.84375 C 8.882812 10.148438 8.777344 10.40625 8.566406 10.617188 C 8.363281 10.820312 8.109375 10.921875 7.804688 10.921875 Z M 10.558594 17.753906 C 10.183594 17.753906 9.996094 17.566406 9.996094 17.191406 L 9.996094 15.832031 C 9.996094 15.269531 10.1875 14.792969 10.570312 14.402344 C 10.953125 14.003906 11.429688 13.804688 12 13.804688 C 12.5625 13.804688 13.035156 14.003906 13.417969 14.402344 C 13.808594 14.792969 14.003906 15.269531 14.003906 15.832031 L 14.003906 17.191406 C 14.003906 17.566406 13.816406 17.753906 13.441406 17.753906 Z M 16.171875 10.921875 C 15.867188 10.921875 15.613281 10.820312 15.410156 10.617188 C 15.207031 10.414062 15.105469 10.15625 15.105469 9.84375 L 15.105469 6.105469 C 15.105469 5.808594 15.207031 5.554688 15.410156 5.34375 C 15.613281 5.125 15.867188 5.015625 16.171875 5.015625 C 16.476562 5.015625 16.734375 5.125 16.945312 5.34375 C 17.15625 5.554688 17.261719 5.808594 17.261719 6.105469 L 17.261719 9.84375 C 17.261719 10.148438 17.15625 10.40625 16.945312 10.617188 C 16.734375 10.820312 16.476562 10.921875 16.171875 10.921875 Z M 16.171875 10.921875 "/>
</g>
</svg>
