<svg xmlns="http://www.w3.org/2000/svg" width="24" height="24"><path style="stroke:none;fill-rule:nonzero;fill:#fff;fill-opacity:1" d="M7.383 17.836a1.09 1.09 0 0 1-.82-.336 1.266 1.266 0 0 1-.317-.875V6.949c0-.351.106-.636.316-.863.22-.23.493-.348.82-.348h9.294c.328 0 .597.117.808.348.22.226.328.512.328.863v9.676c0 .352-.109.64-.328.875-.21.227-.48.336-.808.336Zm.644-6.688.434.454c.094.117.2.171.316.171a.441.441 0 0 0 .34-.171l1.723-1.825a.463.463 0 0 0 .164-.351.529.529 0 0 0-.164-.375l-.422-.45c-.219-.234-.438-.23-.656.012L8.027 10.45a.51.51 0 0 0-.152.352c0 .125.05.242.152.347Zm7.57.454.434-.454a.501.501 0 0 0 .153-.347.503.503 0 0 0-.153-.352l-1.734-1.851c-.227-.239-.445-.243-.656-.012l-.434.465c-.234.25-.234.492 0 .722l1.734 1.829c.102.117.211.171.329.171.128 0 .25-.066.328-.171ZM11.72 15.96h.61c.14 0 .253-.04.339-.125a.48.48 0 0 0 .14-.36v-2.289a.495.495 0 0 0-.14-.363.442.442 0 0 0-.34-.148h-.61c-.312 0-.468.172-.468.511v2.29a.5.5 0 0 0 .129.359.477.477 0 0 0 .34.125ZM4.887 23.3h14.215c1.226 0 2.144-.324 2.753-.977.618-.64.926-1.605.926-2.898V4.164c0-1.293-.308-2.258-.926-2.898-.609-.653-1.527-.977-2.753-.977H4.887c-1.227 0-2.149.324-2.766.977-.61.64-.914 1.605-.914 2.898v15.262c0 1.293.305 2.258.914 2.902.617.649 1.54.973 2.766.973Zm0 0"/></svg>