<?xml version="1.0" encoding="UTF-8"?>
<svg xmlns="http://www.w3.org/2000/svg" xmlns:xlink="http://www.w3.org/1999/xlink" width="24" height="27" viewBox="0 0 24 27" version="1.1">
<g id="surface1">
<path style=" stroke:none;fill-rule:nonzero;fill:rgb(100%,100%,100%);fill-opacity:1;" d="M 12 25.992188 C 13.632812 25.992188 15.167969 25.679688 16.605469 25.054688 C 18.050781 24.429688 19.324219 23.566406 20.425781 22.464844 C 21.527344 21.363281 22.390625 20.09375 23.015625 18.65625 C 23.640625 17.210938 23.953125 15.671875 23.953125 14.039062 C 23.953125 12.84375 23.785156 11.707031 23.449219 10.628906 C 23.113281 9.550781 22.652344 8.5625 22.066406 7.664062 C 21.480469 6.757812 20.8125 5.960938 20.0625 5.273438 C 19.859375 5.085938 19.648438 4.984375 19.429688 4.96875 C 19.21875 4.945312 19.027344 4.984375 18.855469 5.085938 C 18.683594 5.1875 18.550781 5.328125 18.457031 5.507812 C 18.363281 5.6875 18.332031 5.882812 18.363281 6.09375 C 18.402344 6.304688 18.523438 6.507812 18.726562 6.703125 C 19.726562 7.609375 20.511719 8.695312 21.082031 9.960938 C 21.660156 11.21875 21.953125 12.578125 21.960938 14.039062 C 21.960938 15.421875 21.703125 16.714844 21.1875 17.917969 C 20.679688 19.121094 19.96875 20.179688 19.054688 21.09375 C 18.148438 22 17.089844 22.710938 15.878906 23.226562 C 14.675781 23.742188 13.382812 24 12 24 C 10.617188 24 9.324219 23.742188 8.121094 23.226562 C 6.917969 22.710938 5.859375 22 4.945312 21.09375 C 4.039062 20.179688 3.328125 19.121094 2.8125 17.917969 C 2.304688 16.714844 2.050781 15.421875 2.050781 14.039062 C 2.058594 12.570312 2.347656 11.207031 2.917969 9.949219 C 3.496094 8.683594 4.28125 7.597656 5.273438 6.691406 C 5.476562 6.496094 5.59375 6.292969 5.625 6.082031 C 5.664062 5.871094 5.636719 5.675781 5.542969 5.496094 C 5.457031 5.316406 5.324219 5.175781 5.144531 5.074219 C 4.972656 4.972656 4.777344 4.933594 4.558594 4.957031 C 4.347656 4.972656 4.140625 5.074219 3.9375 5.261719 C 3.1875 5.949219 2.519531 6.746094 1.933594 7.652344 C 1.347656 8.558594 0.886719 9.550781 0.550781 10.628906 C 0.214844 11.707031 0.046875 12.84375 0.046875 14.039062 C 0.046875 15.671875 0.359375 17.210938 0.984375 18.65625 C 1.609375 20.09375 2.472656 21.363281 3.574219 22.464844 C 4.675781 23.566406 5.945312 24.429688 7.382812 25.054688 C 8.828125 25.679688 10.367188 25.992188 12 25.992188 Z M 12 13.921875 C 12.28125 13.921875 12.507812 13.832031 12.679688 13.652344 C 12.859375 13.464844 12.949219 13.222656 12.949219 12.925781 L 12.949219 2.402344 C 12.949219 2.105469 12.859375 1.867188 12.679688 1.6875 C 12.507812 1.5 12.28125 1.40625 12 1.40625 C 11.71875 1.40625 11.492188 1.5 11.320312 1.6875 C 11.148438 1.867188 11.0625 2.105469 11.0625 2.402344 L 11.0625 12.925781 C 11.0625 13.222656 11.148438 13.464844 11.320312 13.652344 C 11.492188 13.832031 11.71875 13.921875 12 13.921875 Z M 12 13.921875 "/>
</g>
</svg>
