<svg xmlns="http://www.w3.org/2000/svg" width="24" height="24"><path style="stroke:none;fill-rule:nonzero;fill:#fff;fill-opacity:1" d="M4.523 23.3h14.954c1.226 0 2.144-.323 2.753-.976.618-.64.926-1.605.926-2.898V4.164c0-1.293-.308-2.258-.926-2.898-.609-.653-1.527-.977-2.753-.977H4.523c-1.226 0-2.148.324-2.765.977-.61.64-.914 1.605-.914 2.898v15.262c0 1.293.304 2.258.914 2.902.617.649 1.539.973 2.765.973Zm.024-2.01c-.586 0-1.035-.165-1.348-.49-.312-.335-.469-.823-.469-1.476V4.262c0-.649.157-1.137.47-1.461.312-.336.76-.5 1.347-.5H19.44c.579 0 1.028.164 1.348.5.32.324.48.812.48 1.46v15.063c0 .653-.16 1.14-.48 1.477-.32.324-.77.488-1.348.488Zm6.973-3.24h.949a.627.627 0 0 0 .48-.187.77.77 0 0 0 .176-.527v-3.648c0-.215-.059-.387-.176-.512a.6.6 0 0 0-.48-.2h-.95a.618.618 0 0 0-.48.2c-.117.125-.176.297-.176.511v3.649a.77.77 0 0 0 .176.527.656.656 0 0 0 .48.188Zm-5.567-7.386.68.711c.14.148.297.227.469.227a.636.636 0 0 0 .468-.227l2.742-2.926c.149-.156.22-.324.211-.5a.713.713 0 0 0-.21-.5l-.668-.726a.647.647 0 0 0-.47-.211c-.163 0-.316.074-.456.226L5.965 9.664a.713.713 0 0 0-.211.5.74.74 0 0 0 .2.5Zm11.414.711.68-.727a.662.662 0 0 0 .2-.472.732.732 0 0 0-.224-.512l-2.742-2.926a.636.636 0 0 0-.469-.226c-.164-.008-.316.062-.457.215l-.668.722a.7.7 0 0 0-.222.5c0 .176.074.344.223.5l2.742 2.926c.14.148.293.227.457.227.172 0 .332-.079.48-.227Zm0 0"/></svg>