<svg width="166" height="98" viewBox="0 0 166 98" fill="none" xmlns="http://www.w3.org/2000/svg">
<path d="M44.9375 0C40.6458 0 36.9583 0.8125 33.875 2.4375C30.8333 4.02083 27.9583 6.52083 25.25 9.9375L5 36.4375C3.125 38.8958 1.85417 41.5625 1.1875 44.4375C0.5625 47.2708 0.5625 50.1042 1.1875 52.9375C1.85417 55.7708 3.10417 58.4167 4.9375 60.875L25.1875 87.625C27.6875 90.9167 30.6042 93.4167 33.9375 95.125C37.2708 96.8333 40.9375 97.6875 44.9375 97.6875H120.688C124.688 97.6875 128.354 96.8333 131.688 95.125C135.021 93.4167 137.938 90.9167 140.438 87.625L160.688 60.875C162.562 58.4167 163.812 55.7708 164.438 52.9375C165.062 50.1042 165.062 47.2708 164.438 44.4375C163.812 41.5625 162.542 38.8958 160.625 36.4375L140.375 9.9375C137.667 6.52083 134.771 4.02083 131.688 2.4375C128.646 0.8125 124.979 0 120.688 0H44.9375ZM44.9375 10.0625H120.688C123.438 10.0625 125.625 10.5 127.25 11.375C128.917 12.2083 130.646 13.7708 132.438 16.0625L152.688 42.5625C154.188 44.4375 154.917 46.4792 154.875 48.6875C154.875 50.8542 154.167 52.875 152.75 54.75L132.438 81.5625C129.312 85.6042 125.396 87.625 120.688 87.625H44.9375C40.2292 87.625 36.3125 85.6042 33.1875 81.5625L12.875 54.75C11.4583 52.875 10.7292 50.8542 10.6875 48.6875C10.6875 46.4792 11.4375 44.4375 12.9375 42.5625L33.1875 16.0625C34.9792 13.7708 36.6875 12.2083 38.3125 11.375C39.9792 10.5 42.1875 10.0625 44.9375 10.0625ZM41.25 37.9375C38.25 37.9375 35.6875 39 33.5625 41.125C31.4375 43.25 30.375 45.8125 30.375 48.8125C30.375 51.7708 31.4375 54.3333 33.5625 56.5C35.6875 58.625 38.25 59.6875 41.25 59.6875C44.2083 59.6875 46.75 58.625 48.875 56.5C51 54.3333 52.0625 51.7708 52.0625 48.8125C52.0625 45.8125 51 43.25 48.875 41.125C46.75 39 44.2083 37.9375 41.25 37.9375ZM82.8125 52.8125C79.8542 52.8125 77.2917 53.875 75.125 56C73 58.125 71.9375 60.6667 71.9375 63.625C71.9375 66.625 73 69.1875 75.125 71.3125C77.2917 73.4375 79.8542 74.5 82.8125 74.5C85.8125 74.5 88.375 73.4375 90.5 71.3125C92.625 69.1875 93.6875 66.625 93.6875 63.625C93.6875 60.6667 92.625 58.125 90.5 56C88.375 53.875 85.8125 52.8125 82.8125 52.8125ZM124.375 37.9375C121.417 37.9375 118.875 39 116.75 41.125C114.625 43.25 113.562 45.8125 113.562 48.8125C113.562 51.7708 114.625 54.3333 116.75 56.5C118.875 58.625 121.417 59.6875 124.375 59.6875C127.375 59.6875 129.938 58.625 132.062 56.5C134.188 54.3333 135.25 51.7708 135.25 48.8125C135.25 45.8125 134.188 43.25 132.062 41.125C129.938 39 127.375 37.9375 124.375 37.9375Z" fill="white"/>
</svg>
