<svg width="120" height="116" viewBox="0 0 120 116" fill="none" xmlns="http://www.w3.org/2000/svg">
<path d="M20.5625 115.5H100.312C106.854 115.5 111.75 113.875 115 110.625C118.292 107.417 119.938 102.583 119.938 96.125V19.8125C119.938 13.3542 118.292 8.52083 115 5.3125C111.75 2.0625 106.854 0.4375 100.312 0.4375H20.5625C14.0208 0.4375 9.10417 2.0625 5.8125 5.3125C2.5625 8.52083 0.9375 13.3542 0.9375 19.8125V96.125C0.9375 102.583 2.5625 107.417 5.8125 110.625C9.10417 113.875 14.0208 115.5 20.5625 115.5ZM57.8125 50.3125C56.7292 50.3125 55.8542 49.9792 55.1875 49.3125C54.5208 48.6458 54.1875 47.75 54.1875 46.625V27.8125C54.1875 26.7292 54.5208 25.8542 55.1875 25.1875C55.8542 24.5208 56.7292 24.1875 57.8125 24.1875H63C64.0833 24.1875 64.9583 24.5208 65.625 25.1875C66.2917 25.8542 66.625 26.7292 66.625 27.8125V46.625C66.625 47.75 66.2917 48.6458 65.625 49.3125C64.9583 49.9792 64.0833 50.3125 63 50.3125H57.8125ZM29.5 88.3125C28.375 88.3125 27.4792 88 26.8125 87.375C26.1875 86.7083 25.875 85.8333 25.875 84.75V79.5C25.875 78.4167 26.1875 77.5417 26.8125 76.875C27.4792 76.2083 28.375 75.875 29.5 75.875H46.25C47.3333 75.875 48.2083 76.2083 48.875 76.875C49.5417 77.5417 49.875 78.4167 49.875 79.5V84.75C49.875 85.8333 49.5417 86.7083 48.875 87.375C48.2083 88 47.3333 88.3125 46.25 88.3125H29.5ZM74.625 88.3125C73.5417 88.3125 72.6458 88 71.9375 87.375C71.2708 86.7083 70.9375 85.8333 70.9375 84.75V79.5C70.9375 78.4167 71.2708 77.5417 71.9375 76.875C72.6458 76.2083 73.5417 75.875 74.625 75.875H91.3125C92.4375 75.875 93.3333 76.2083 94 76.875C94.6667 77.5417 95 78.4167 95 79.5V84.75C95 85.8333 94.6667 86.7083 94 87.375C93.375 88 92.4792 88.3125 91.3125 88.3125H74.625Z" fill="white"/>
</svg>
