<svg width="22" height="12" viewBox="0 0 22 12" fill="none" xmlns="http://www.w3.org/2000/svg">
<path d="M6.25781 0.890625C5.72135 0.890625 5.27344 1 4.91406 1.21875C4.55469 1.43229 4.18229 1.73958 3.79688 2.14062L1.10938 4.99219C0.838542 5.27344 0.658854 5.56771 0.570312 5.875C0.486979 6.17708 0.489583 6.48177 0.578125 6.78906C0.666667 7.09115 0.841146 7.38281 1.10156 7.66406L3.78906 10.5625C4.13802 10.9323 4.51042 11.2344 4.90625 11.4688C5.30729 11.7031 5.75781 11.8203 6.25781 11.8203H15.7422C16.2422 11.8203 16.6901 11.7031 17.0859 11.4688C17.487 11.2344 17.862 10.9323 18.2109 10.5625L20.8906 7.66406C21.1562 7.38281 21.3333 7.09115 21.4219 6.78906C21.5104 6.48177 21.5104 6.17708 21.4219 5.875C21.3333 5.56771 21.1562 5.27344 20.8906 4.99219L18.2031 2.14062C17.8177 1.73958 17.4453 1.43229 17.0859 1.21875C16.7266 1 16.2786 0.890625 15.7422 0.890625H6.25781ZM5.64062 4.92969C6.02604 4.92969 6.35677 5.06771 6.63281 5.34375C6.90885 5.61458 7.04688 5.94271 7.04688 6.32812C7.04688 6.71354 6.90885 7.04427 6.63281 7.32031C6.35677 7.59635 6.02604 7.73438 5.64062 7.73438C5.26042 7.73438 4.93229 7.59635 4.65625 7.32031C4.38542 7.04427 4.25 6.71354 4.25 6.32812C4.25 5.94271 4.38542 5.61458 4.65625 5.34375C4.93229 5.06771 5.26042 4.92969 5.64062 4.92969ZM11.0078 6.35938C11.388 6.35938 11.7135 6.4974 11.9844 6.77344C12.2604 7.04948 12.3984 7.38021 12.3984 7.76562C12.3984 8.15104 12.2604 8.48177 11.9844 8.75781C11.7135 9.02865 11.388 9.16406 11.0078 9.16406C10.6224 9.16406 10.2917 9.02865 10.0156 8.75781C9.74479 8.48177 9.60938 8.15104 9.60938 7.76562C9.60938 7.38021 9.74479 7.04948 10.0156 6.77344C10.2917 6.4974 10.6224 6.35938 11.0078 6.35938ZM16.3672 4.92969C16.7526 4.92969 17.0807 5.06771 17.3516 5.34375C17.6276 5.61458 17.7656 5.94271 17.7656 6.32812C17.7656 6.71354 17.6276 7.04427 17.3516 7.32031C17.0807 7.59635 16.7526 7.73438 16.3672 7.73438C15.9818 7.73438 15.651 7.59635 15.375 7.32031C15.099 7.04427 14.9609 6.71354 14.9609 6.32812C14.9609 5.94271 15.099 5.61458 15.375 5.34375C15.651 5.06771 15.9818 4.92969 16.3672 4.92969Z" fill="white"/>
</svg>
