<svg width="16" height="15" viewBox="0 0 16 15" fill="none" xmlns="http://www.w3.org/2000/svg">
<path d="M4.94531 11.0234H11.0469C11.2552 11.0234 11.4297 10.9557 11.5703 10.8203C11.7109 10.6797 11.7812 10.5026 11.7812 10.2891V4.42969C11.7812 4.21615 11.7109 4.04167 11.5703 3.90625C11.4297 3.76562 11.2552 3.69531 11.0469 3.69531H4.94531C4.73698 3.69531 4.5625 3.76562 4.42188 3.90625C4.28125 4.04167 4.21094 4.21615 4.21094 4.42969V10.2891C4.21094 10.5026 4.28125 10.6797 4.42188 10.8203C4.5625 10.9557 4.73698 11.0234 4.94531 11.0234ZM8.00781 6.82812C7.78906 6.82812 7.60156 6.7526 7.44531 6.60156C7.28906 6.44531 7.21094 6.25781 7.21094 6.03906C7.21094 5.82031 7.28906 5.63542 7.44531 5.48438C7.60156 5.33333 7.78906 5.25781 8.00781 5.25781C8.22135 5.25781 8.40625 5.33333 8.5625 5.48438C8.71875 5.63542 8.79688 5.82031 8.79688 6.03906C8.79688 6.25781 8.71875 6.44531 8.5625 6.60156C8.40625 6.7526 8.22135 6.82812 8.00781 6.82812ZM6.29688 9.46094C6.08333 9.46094 5.89844 9.38542 5.74219 9.23438C5.58594 9.08333 5.50781 8.89844 5.50781 8.67969C5.50781 8.45573 5.58594 8.26823 5.74219 8.11719C5.89844 7.96094 6.08333 7.88281 6.29688 7.88281C6.51562 7.88281 6.70312 7.96094 6.85938 8.11719C7.01562 8.26823 7.09375 8.45573 7.09375 8.67969C7.09375 8.89844 7.01562 9.08333 6.85938 9.23438C6.70312 9.38542 6.51562 9.46094 6.29688 9.46094ZM9.71094 9.46094C9.49219 9.46094 9.30469 9.38542 9.14844 9.23438C8.99219 9.08333 8.91406 8.89844 8.91406 8.67969C8.91406 8.45573 8.99219 8.26823 9.14844 8.11719C9.30469 7.96094 9.49219 7.88281 9.71094 7.88281C9.92969 7.88281 10.1146 7.96094 10.2656 8.11719C10.4219 8.26823 10.5 8.45573 10.5 8.67969C10.5 8.89844 10.4219 9.08333 10.2656 9.23438C10.1146 9.38542 9.92969 9.46094 9.71094 9.46094ZM3.25781 14.5625H12.7344C13.5521 14.5625 14.1641 14.3594 14.5703 13.9531C14.9818 13.5521 15.1875 12.9479 15.1875 12.1406V2.60156C15.1875 1.79427 14.9818 1.1901 14.5703 0.789062C14.1641 0.382812 13.5521 0.179688 12.7344 0.179688H3.25781C2.4401 0.179688 1.82552 0.382812 1.41406 0.789062C1.00781 1.1901 0.804688 1.79427 0.804688 2.60156V12.1406C0.804688 12.9479 1.00781 13.5521 1.41406 13.9531C1.82552 14.3594 2.4401 14.5625 3.25781 14.5625ZM3.27344 13.3047C2.88281 13.3047 2.58333 13.2031 2.375 13C2.16667 12.7917 2.0625 12.4844 2.0625 12.0781V2.66406C2.0625 2.25781 2.16667 1.95312 2.375 1.75C2.58333 1.54167 2.88281 1.4375 3.27344 1.4375H12.7188C13.1042 1.4375 13.401 1.54167 13.6094 1.75C13.8229 1.95312 13.9297 2.25781 13.9297 2.66406V12.0781C13.9297 12.4844 13.8229 12.7917 13.6094 13C13.401 13.2031 13.1042 13.3047 12.7188 13.3047H3.27344Z" fill="white"/>
</svg>
