<svg width="120" height="116" viewBox="0 0 120 116" fill="none" xmlns="http://www.w3.org/2000/svg">
<path d="M20.5625 115.5H100.312C106.854 115.5 111.75 113.875 115 110.625C118.292 107.417 119.938 102.583 119.938 96.125V19.8125C119.938 13.3542 118.292 8.52083 115 5.3125C111.75 2.0625 106.854 0.4375 100.312 0.4375H20.5625C14.0208 0.4375 9.10417 2.0625 5.8125 5.3125C2.5625 8.52083 0.9375 13.3542 0.9375 19.8125V96.125C0.9375 102.583 2.5625 107.417 5.8125 110.625C9.10417 113.875 14.0208 115.5 20.5625 115.5ZM20.6875 105.438C17.5625 105.438 15.1667 104.625 13.5 103C11.8333 101.333 11 98.875 11 95.625V20.3125C11 17.0625 11.8333 14.625 13.5 13C15.1667 11.3333 17.5625 10.5 20.6875 10.5H100.125C103.208 10.5 105.604 11.3333 107.312 13C109.021 14.625 109.875 17.0625 109.875 20.3125V95.625C109.875 98.875 109.021 101.333 107.312 103C105.604 104.625 103.208 105.438 100.125 105.438H20.6875ZM57.875 50.5H62.9375C64.0208 50.5 64.875 50.1875 65.5 49.5625C66.125 48.8958 66.4375 48.0208 66.4375 46.9375V28.6875C66.4375 27.6042 66.125 26.75 65.5 26.125C64.875 25.4583 64.0208 25.125 62.9375 25.125H57.875C56.8333 25.125 55.9792 25.4583 55.3125 26.125C54.6875 26.75 54.375 27.6042 54.375 28.6875V46.9375C54.375 48.0208 54.6875 48.8958 55.3125 49.5625C55.9792 50.1875 56.8333 50.5 57.875 50.5ZM30.375 87.375H46.6875C47.7292 87.375 48.5625 87.0625 49.1875 86.4375C49.8542 85.7708 50.1875 84.9167 50.1875 83.875V78.8125C50.1875 77.7708 49.8542 76.9375 49.1875 76.3125C48.5625 75.6458 47.7292 75.3125 46.6875 75.3125H30.375C29.3333 75.3125 28.4792 75.6458 27.8125 76.3125C27.1875 76.9375 26.875 77.7708 26.875 78.8125V83.875C26.875 84.9167 27.1875 85.7708 27.8125 86.4375C28.4792 87.0625 29.3333 87.375 30.375 87.375ZM74.1875 87.375H90.4375C91.5208 87.375 92.375 87.0625 93 86.4375C93.6667 85.7708 94 84.9167 94 83.875V78.8125C94 77.7708 93.6667 76.9375 93 76.3125C92.375 75.6458 91.5208 75.3125 90.4375 75.3125H74.1875C73.1042 75.3125 72.2292 75.6458 71.5625 76.3125C70.9375 76.9375 70.625 77.7708 70.625 78.8125V83.875C70.625 84.9167 70.9375 85.7708 71.5625 86.4375C72.2292 87.0625 73.1042 87.375 74.1875 87.375Z" fill="white"/>
</svg>
