<svg xmlns="http://www.w3.org/2000/svg" width="24" height="24"><path style="stroke:none;fill-rule:nonzero;fill:#fff;fill-opacity:1" d="M6.773 13.348a2.28 2.28 0 0 1-1.617-.63 2.067 2.067 0 0 1-.656-1.523c0-.398.102-.758.305-1.082a2.22 2.22 0 0 1 .82-.781 2.302 2.302 0 0 1 1.148-.289c.422 0 .805.098 1.149.289.351.191.629.45.832.781.203.325.305.684.305 1.082 0 .59-.223 1.094-.668 1.524a2.28 2.28 0 0 1-1.618.629Zm10.454 0a2.28 2.28 0 0 1-1.618-.63 2.044 2.044 0 0 1-.668-1.523c0-.398.102-.758.305-1.082a2.314 2.314 0 0 1 1.98-1.07c.422 0 .805.098 1.149.289.344.191.617.45.82.781.203.325.305.684.305 1.082 0 .59-.223 1.094-.668 1.524-.418.41-1 .636-1.605.629ZM12 18.64a2.351 2.351 0 0 1-1.98-1.059 2.017 2.017 0 0 1-.305-1.082c0-.598.223-1.102.668-1.523a2.32 2.32 0 0 1 1.617-.63c.625 0 1.16.212 1.605.63.454.421.68.925.68 1.523 0 .398-.105.758-.316 1.082A2.302 2.302 0 0 1 12 18.641Zm0 4.41c1.633 0 3.168-.293 4.605-.883a12.22 12.22 0 0 0 3.82-2.438 11.467 11.467 0 0 0 2.59-3.582c.626-1.363.938-2.808.938-4.347a10.2 10.2 0 0 0-.937-4.332 11.53 11.53 0 0 0-2.59-3.598 12.361 12.361 0 0 0-3.82-2.437A12.166 12.166 0 0 0 11.987.55c-1.633 0-3.172.293-4.617.883A12.307 12.307 0 0 0 3.562 3.87 11.523 11.523 0 0 0 .985 7.465 10.2 10.2 0 0 0 .047 11.8c0 1.539.312 2.984.937 4.347a11.467 11.467 0 0 0 2.59 3.582 12.236 12.236 0 0 0 3.809 2.438c1.445.59 2.984.883 4.617.883Zm0 0"/></svg>