<svg width="16" height="15" viewBox="0 0 16 15" fill="none" xmlns="http://www.w3.org/2000/svg">
<path d="M5.52344 10.9375H10.4688C10.7188 10.9375 10.9219 10.8594 11.0781 10.7031C11.5156 10.2969 11.8672 9.80208 12.1328 9.21875C12.4036 8.63021 12.5391 8.01302 12.5391 7.36719C12.5391 6.72135 12.4036 6.10677 12.1328 5.52344C11.8672 4.9349 11.5156 4.4401 11.0781 4.03906C10.9219 3.88281 10.7188 3.80469 10.4688 3.80469H5.52344C5.40885 3.80469 5.29948 3.82292 5.19531 3.85938C5.09635 3.89062 5.00521 3.94271 4.92188 4.01562C4.48958 4.42188 4.13542 4.91927 3.85938 5.50781C3.58854 6.09635 3.45312 6.71615 3.45312 7.36719C3.45312 8.01302 3.58854 8.63021 3.85938 9.21875C4.13021 9.80208 4.48177 10.2969 4.91406 10.7031C5.07031 10.8594 5.27344 10.9375 5.52344 10.9375ZM6.09375 9.1875C5.96875 9.1875 5.86458 9.14583 5.78125 9.0625C5.69792 8.97396 5.65625 8.86719 5.65625 8.74219V5.98438C5.65625 5.85938 5.69792 5.75521 5.78125 5.67188C5.86458 5.58854 5.96875 5.54688 6.09375 5.54688C6.21875 5.54688 6.32292 5.58854 6.40625 5.67188C6.49479 5.75521 6.53906 5.85938 6.53906 5.98438V8.74219C6.53906 8.86719 6.49479 8.97396 6.40625 9.0625C6.32292 9.14583 6.21875 9.1875 6.09375 9.1875ZM9.89844 9.1875C9.77344 9.1875 9.66927 9.14583 9.58594 9.0625C9.5026 8.97396 9.46094 8.86719 9.46094 8.74219V5.98438C9.46094 5.85938 9.5026 5.75521 9.58594 5.67188C9.66927 5.58854 9.77344 5.54688 9.89844 5.54688C10.0234 5.54688 10.1276 5.58854 10.2109 5.67188C10.2943 5.75521 10.3359 5.85938 10.3359 5.98438V8.74219C10.3359 8.86719 10.2943 8.97396 10.2109 9.0625C10.1276 9.14583 10.0234 9.1875 9.89844 9.1875ZM3.25781 14.5625H12.7344C13.5521 14.5625 14.1641 14.3594 14.5703 13.9531C14.9818 13.5521 15.1875 12.9479 15.1875 12.1406V2.60156C15.1875 1.79427 14.9818 1.1901 14.5703 0.789062C14.1641 0.382812 13.5521 0.179688 12.7344 0.179688H3.25781C2.4401 0.179688 1.82552 0.382812 1.41406 0.789062C1.00781 1.1901 0.804688 1.79427 0.804688 2.60156V12.1406C0.804688 12.9479 1.00781 13.5521 1.41406 13.9531C1.82552 14.3594 2.4401 14.5625 3.25781 14.5625ZM3.27344 13.3047C2.88281 13.3047 2.58333 13.2031 2.375 13C2.16667 12.7917 2.0625 12.4844 2.0625 12.0781V2.66406C2.0625 2.25781 2.16667 1.95312 2.375 1.75C2.58333 1.54167 2.88281 1.4375 3.27344 1.4375H12.7188C13.1042 1.4375 13.401 1.54167 13.6094 1.75C13.8229 1.95312 13.9297 2.25781 13.9297 2.66406V12.0781C13.9297 12.4844 13.8229 12.7917 13.6094 13C13.401 13.2031 13.1042 13.3047 12.7188 13.3047H3.27344Z" fill="white"/>
</svg>
