<?xml version="1.0" encoding="UTF-8"?>
<svg xmlns="http://www.w3.org/2000/svg" xmlns:xlink="http://www.w3.org/1999/xlink" width="24" height="22.5" viewBox="0 0 24 22.5" version="1.1">
<g id="surface1">
<path style=" stroke:none;fill-rule:nonzero;fill:rgb(100%,100%,100%);fill-opacity:1;" d="M 9.878906 18.070312 C 9.550781 18.070312 9.277344 17.964844 9.058594 17.753906 C 8.847656 17.535156 8.742188 17.257812 8.742188 16.921875 L 8.742188 5.15625 C 8.742188 4.828125 8.847656 4.558594 9.058594 4.347656 C 9.277344 4.128906 9.550781 4.019531 9.878906 4.019531 L 14.109375 4.019531 C 14.4375 4.019531 14.707031 4.128906 14.917969 4.347656 C 15.136719 4.558594 15.246094 4.828125 15.246094 5.15625 L 15.246094 16.921875 C 15.246094 17.257812 15.136719 17.535156 14.917969 17.753906 C 14.707031 17.964844 14.4375 18.070312 14.109375 18.070312 Z M 12 8.320312 C 12.335938 8.320312 12.621094 8.203125 12.855469 7.96875 C 13.097656 7.726562 13.21875 7.4375 13.21875 7.101562 C 13.21875 6.757812 13.097656 6.46875 12.855469 6.234375 C 12.621094 5.992188 12.335938 5.871094 12 5.871094 C 11.65625 5.871094 11.363281 5.992188 11.121094 6.234375 C 10.886719 6.46875 10.769531 6.757812 10.769531 7.101562 C 10.769531 7.4375 10.886719 7.726562 11.121094 7.96875 C 11.363281 8.203125 11.65625 8.320312 12 8.320312 Z M 12 12.257812 C 12.335938 12.257812 12.621094 12.140625 12.855469 11.90625 C 13.097656 11.664062 13.21875 11.375 13.21875 11.039062 C 13.21875 10.703125 13.097656 10.417969 12.855469 10.183594 C 12.621094 9.941406 12.335938 9.820312 12 9.820312 C 11.65625 9.820312 11.363281 9.941406 11.121094 10.183594 C 10.886719 10.417969 10.769531 10.703125 10.769531 11.039062 C 10.769531 11.375 10.886719 11.664062 11.121094 11.90625 C 11.363281 12.140625 11.65625 12.257812 12 12.257812 Z M 12 16.207031 C 12.335938 16.207031 12.621094 16.089844 12.855469 15.855469 C 13.097656 15.613281 13.21875 15.320312 13.21875 14.976562 C 13.21875 14.640625 13.097656 14.355469 12.855469 14.121094 C 12.621094 13.878906 12.335938 13.757812 12 13.757812 C 11.65625 13.757812 11.363281 13.878906 11.121094 14.121094 C 10.886719 14.355469 10.769531 14.640625 10.769531 14.976562 C 10.769531 15.320312 10.886719 15.613281 11.121094 15.855469 C 11.363281 16.089844 11.65625 16.207031 12 16.207031 Z M 4.886719 21.84375 L 19.101562 21.84375 C 20.328125 21.84375 21.246094 21.539062 21.855469 20.929688 C 22.472656 20.328125 22.78125 19.421875 22.78125 18.210938 L 22.78125 3.902344 C 22.78125 2.691406 22.472656 1.785156 21.855469 1.183594 C 21.246094 0.574219 20.328125 0.269531 19.101562 0.269531 L 4.886719 0.269531 C 3.660156 0.269531 2.738281 0.574219 2.121094 1.183594 C 1.511719 1.785156 1.207031 2.691406 1.207031 3.902344 L 1.207031 18.210938 C 1.207031 19.421875 1.511719 20.328125 2.121094 20.929688 C 2.738281 21.539062 3.660156 21.84375 4.886719 21.84375 Z M 4.886719 21.84375 "/>
</g>
</svg>
