<svg xmlns="http://www.w3.org/2000/svg" width="24" height="24"><path style="stroke:none;fill-rule:nonzero;fill:#fff;fill-opacity:1" d="M3.332 20.594h2.063v-1.668H3.313c-.465 0-.817-.125-1.051-.375-.23-.25-.344-.617-.344-1.102V6.95c0-.484.113-.851.344-1.105.234-.246.586-.371 1.05-.371h17.375c.458 0 .805.125 1.043.37.235.255.352.622.352 1.106v10.5c0 .485-.117.852-.352 1.102-.238.25-.585.375-1.043.375h-1.949v1.668h1.93c1.012 0 1.781-.274 2.3-.82.528-.532.794-1.34.794-2.415V7.035c0-1.07-.266-1.879-.793-2.414-.52-.543-1.29-.816-2.301-.816H3.332c-.965 0-1.723.273-2.281.816-.547.535-.82 1.344-.82 2.414V17.36c0 1.075.261 1.883.789 2.414.527.547 1.3.82 2.312.82Zm3.086 3.273h11.156c.66 0 1.156-.168 1.488-.508.333-.336.5-.87.5-1.601v-9c0-.73-.167-1.266-.5-1.594-.332-.34-.828-.508-1.488-.508H6.418c-.633 0-1.121.168-1.469.508-.347.328-.523.863-.523 1.594v9c0 .73.168 1.262.5 1.601.336.34.832.508 1.492.508Zm.52-1.664c-.278 0-.485-.074-.625-.219-.141-.14-.208-.363-.208-.664v-8.129c0-.296.067-.511.207-.652.141-.148.348-.219.625-.219h10.125c.278 0 .485.07.614.22.14.14.21.355.21.651v8.13c0 .3-.07.523-.21.663-.13.145-.336.22-.613.22ZM4.354 4.797H5.97v-1.7c0-.464.11-.804.324-1.034.223-.227.55-.344.988-.344h9.426c.438 0 .766.117.98.343.223.231.333.575.333 1.036v1.68h1.617V3.222c0-1.078-.25-1.864-.75-2.364-.496-.5-1.227-.75-2.2-.75H7.302c-.914 0-1.637.25-2.164.75-.524.5-.782 1.286-.782 2.364Zm4.032 11.215h7.25c.18 0 .328-.067.445-.2a.687.687 0 0 0 .188-.492.633.633 0 0 0-.188-.465.572.572 0 0 0-.445-.199h-7.25a.615.615 0 0 0-.469.2.618.618 0 0 0-.188.464.7.7 0 0 0 .188.496.611.611 0 0 0 .469.196Zm0 3.851h7.25c.18 0 .328-.062.445-.191a.676.676 0 0 0 .188-.48.679.679 0 0 0-.188-.485.572.572 0 0 0-.445-.2h-7.25a.602.602 0 0 0-.469.2.663.663 0 0 0-.188.484.67.67 0 0 0 .188.48.624.624 0 0 0 .469.192Zm8.656-11.777c0 .387.129.715.383.98.258.254.566.383.93.383.347 0 .648-.133.906-.394.254-.266.383-.59.383-.97 0-.37-.13-.69-.383-.96a1.23 1.23 0 0 0-1.836 0c-.25.25-.387.598-.383.96Zm0 0"/></svg>