<svg width="18" height="17" viewBox="0 0 18 17" fill="none" xmlns="http://www.w3.org/2000/svg">
<path d="M2.5 14.5859H4.04688V13.4062H2.48438C2.13542 13.4062 1.8724 13.3177 1.69531 13.1406C1.52344 12.9635 1.4375 12.7031 1.4375 12.3594V4.92188C1.4375 4.57812 1.52344 4.31771 1.69531 4.14062C1.8724 3.96354 2.13542 3.875 2.48438 3.875H15.5156C15.8594 3.875 16.1198 3.96354 16.2969 4.14062C16.474 4.31771 16.5625 4.57812 16.5625 4.92188V12.3594C16.5625 12.7031 16.474 12.9635 16.2969 13.1406C16.1198 13.3177 15.8594 13.4062 15.5156 13.4062H14.0547V14.5859H15.5C16.2604 14.5859 16.8359 14.3932 17.2266 14.0078C17.6224 13.6276 17.8203 13.0573 17.8203 12.2969V4.98438C17.8203 4.22396 17.6224 3.65365 17.2266 3.27344C16.8359 2.88802 16.2604 2.69531 15.5 2.69531H2.5C1.77604 2.69531 1.20573 2.88802 0.789062 3.27344C0.377604 3.65365 0.171875 4.22396 0.171875 4.98438V12.2969C0.171875 13.0573 0.369792 13.6276 0.765625 14.0078C1.16146 14.3932 1.73958 14.5859 2.5 14.5859ZM4.8125 16.9062H13.1797C13.6745 16.9062 14.0469 16.7865 14.2969 16.5469C14.5469 16.3073 14.6719 15.9297 14.6719 15.4141V9.03906C14.6719 8.51823 14.5469 8.14062 14.2969 7.90625C14.0469 7.66667 13.6745 7.54688 13.1797 7.54688H4.8125C4.33854 7.54688 3.97135 7.66667 3.71094 7.90625C3.45052 8.14062 3.32031 8.51823 3.32031 9.03906V15.4141C3.32031 15.9297 3.44531 16.3073 3.69531 16.5469C3.94531 16.7865 4.31771 16.9062 4.8125 16.9062ZM5.20312 15.7266C4.99479 15.7266 4.83854 15.6745 4.73438 15.5703C4.63021 15.4714 4.57812 15.3151 4.57812 15.1016V9.34375C4.57812 9.13542 4.63021 8.98177 4.73438 8.88281C4.83854 8.77865 4.99479 8.72656 5.20312 8.72656H12.7969C13.0052 8.72656 13.1589 8.77865 13.2578 8.88281C13.362 8.98177 13.4141 9.13542 13.4141 9.34375V15.1016C13.4141 15.3151 13.362 15.4714 13.2578 15.5703C13.1589 15.6745 13.0052 15.7266 12.7969 15.7266H5.20312ZM3.26562 3.39844H4.47656V2.19531C4.47656 1.86719 4.55729 1.6224 4.71875 1.46094C4.88542 1.29948 5.13281 1.21875 5.46094 1.21875H12.5312C12.8594 1.21875 13.1042 1.29948 13.2656 1.46094C13.4323 1.6224 13.5156 1.86719 13.5156 2.19531V3.38281H14.7266V2.28125C14.7266 1.52083 14.5391 0.963542 14.1641 0.609375C13.7943 0.255208 13.2448 0.078125 12.5156 0.078125H5.47656C4.78906 0.078125 4.2474 0.255208 3.85156 0.609375C3.46094 0.963542 3.26562 1.52083 3.26562 2.28125V3.39844ZM6.28906 11.3438H11.7266C11.862 11.3438 11.974 11.2969 12.0625 11.2031C12.1562 11.1094 12.2031 10.9922 12.2031 10.8516C12.2031 10.7214 12.1562 10.612 12.0625 10.5234C11.974 10.4297 11.862 10.3828 11.7266 10.3828H6.28906C6.14844 10.3828 6.03125 10.4297 5.9375 10.5234C5.84375 10.612 5.79688 10.7214 5.79688 10.8516C5.79688 10.9922 5.84375 11.1094 5.9375 11.2031C6.03125 11.2969 6.14844 11.3438 6.28906 11.3438ZM6.28906 14.0703H11.7266C11.862 14.0703 11.974 14.026 12.0625 13.9375C12.1562 13.8438 12.2031 13.7292 12.2031 13.5938C12.2031 13.4583 12.1562 13.3438 12.0625 13.25C11.974 13.1562 11.862 13.1094 11.7266 13.1094H6.28906C6.14844 13.1094 6.03125 13.1562 5.9375 13.25C5.84375 13.3438 5.79688 13.4583 5.79688 13.5938C5.79688 13.7292 5.84375 13.8438 5.9375 13.9375C6.03125 14.026 6.14844 14.0703 6.28906 14.0703ZM12.7812 5.72656C12.7812 6.0026 12.8776 6.23438 13.0703 6.42188C13.263 6.60417 13.4948 6.69531 13.7656 6.69531C14.026 6.69531 14.2526 6.60156 14.4453 6.41406C14.638 6.22656 14.7344 5.9974 14.7344 5.72656C14.7344 5.46615 14.638 5.23958 14.4453 5.04688C14.2526 4.85417 14.026 4.75781 13.7656 4.75781C13.4948 4.75781 13.263 4.85417 13.0703 5.04688C12.8776 5.23958 12.7812 5.46615 12.7812 5.72656Z" fill="white"/>
</svg>
