<?xml version="1.0" encoding="UTF-8"?>
<svg xmlns="http://www.w3.org/2000/svg" xmlns:xlink="http://www.w3.org/1999/xlink" width="24" height="22.666667" viewBox="0 0 24 22.666667" version="1.1">
<g id="surface1">
<path style=" stroke:none;fill-rule:nonzero;fill:rgb(100%,100%,100%);fill-opacity:1;" d="M 3.332031 19.449219 L 5.394531 19.449219 L 5.394531 17.875 L 3.3125 17.875 C 2.847656 17.875 2.496094 17.757812 2.261719 17.519531 C 2.03125 17.285156 1.917969 16.9375 1.917969 16.480469 L 1.917969 6.5625 C 1.917969 6.105469 2.03125 5.757812 2.261719 5.519531 C 2.496094 5.285156 2.847656 5.167969 3.3125 5.167969 L 20.6875 5.167969 C 21.144531 5.167969 21.492188 5.285156 21.730469 5.519531 C 21.964844 5.757812 22.082031 6.105469 22.082031 6.5625 L 22.082031 16.480469 C 22.082031 16.9375 21.964844 17.285156 21.730469 17.519531 C 21.492188 17.757812 21.144531 17.875 20.6875 17.875 L 18.738281 17.875 L 18.738281 19.449219 L 20.667969 19.449219 C 21.679688 19.449219 22.449219 19.191406 22.96875 18.675781 C 23.496094 18.171875 23.761719 17.410156 23.761719 16.394531 L 23.761719 6.644531 C 23.761719 5.632812 23.496094 4.871094 22.96875 4.363281 C 22.449219 3.851562 21.679688 3.59375 20.667969 3.59375 L 3.332031 3.59375 C 2.367188 3.59375 1.609375 3.851562 1.050781 4.363281 C 0.503906 4.871094 0.230469 5.632812 0.230469 6.644531 L 0.230469 16.394531 C 0.230469 17.410156 0.492188 18.171875 1.019531 18.675781 C 1.546875 19.191406 2.320312 19.449219 3.332031 19.449219 Z M 6.417969 22.542969 L 17.574219 22.542969 C 18.234375 22.542969 18.730469 22.382812 19.0625 22.0625 C 19.394531 21.742188 19.5625 21.238281 19.5625 20.550781 L 19.5625 12.050781 C 19.5625 11.359375 19.394531 10.855469 19.0625 10.542969 C 18.730469 10.222656 18.234375 10.0625 17.574219 10.0625 L 6.417969 10.0625 C 5.785156 10.0625 5.296875 10.222656 4.949219 10.542969 C 4.601562 10.855469 4.425781 11.359375 4.425781 12.050781 L 4.425781 20.550781 C 4.425781 21.238281 4.59375 21.742188 4.925781 22.0625 C 5.261719 22.382812 5.757812 22.542969 6.417969 22.542969 Z M 6.9375 20.96875 C 6.660156 20.96875 6.453125 20.898438 6.3125 20.761719 C 6.171875 20.628906 6.105469 20.421875 6.105469 20.136719 L 6.105469 12.457031 C 6.105469 12.179688 6.171875 11.976562 6.3125 11.84375 C 6.453125 11.703125 6.660156 11.636719 6.9375 11.636719 L 17.0625 11.636719 C 17.339844 11.636719 17.546875 11.703125 17.675781 11.84375 C 17.816406 11.976562 17.886719 12.179688 17.886719 12.457031 L 17.886719 20.136719 C 17.886719 20.421875 17.816406 20.628906 17.675781 20.761719 C 17.546875 20.898438 17.339844 20.96875 17.0625 20.96875 Z M 4.355469 4.53125 L 5.96875 4.53125 L 5.96875 2.925781 C 5.96875 2.488281 6.078125 2.164062 6.292969 1.949219 C 6.515625 1.734375 6.84375 1.625 7.28125 1.625 L 16.707031 1.625 C 17.144531 1.625 17.472656 1.734375 17.6875 1.949219 C 17.910156 2.164062 18.019531 2.488281 18.019531 2.925781 L 18.019531 4.511719 L 19.636719 4.511719 L 19.636719 3.042969 C 19.636719 2.027344 19.386719 1.285156 18.886719 0.8125 C 18.390625 0.339844 17.660156 0.105469 16.6875 0.105469 L 7.300781 0.105469 C 6.386719 0.105469 5.664062 0.339844 5.136719 0.8125 C 4.613281 1.285156 4.355469 2.027344 4.355469 3.042969 Z M 8.386719 15.125 L 15.636719 15.125 C 15.816406 15.125 15.964844 15.0625 16.082031 14.9375 C 16.207031 14.8125 16.269531 14.65625 16.269531 14.46875 C 16.269531 14.296875 16.207031 14.148438 16.082031 14.03125 C 15.964844 13.90625 15.816406 13.84375 15.636719 13.84375 L 8.386719 13.84375 C 8.199219 13.84375 8.042969 13.90625 7.917969 14.03125 C 7.792969 14.148438 7.730469 14.296875 7.730469 14.46875 C 7.730469 14.65625 7.792969 14.8125 7.917969 14.9375 C 8.042969 15.0625 8.199219 15.125 8.386719 15.125 Z M 8.386719 18.761719 L 15.636719 18.761719 C 15.816406 18.761719 15.964844 18.703125 16.082031 18.582031 C 16.207031 18.457031 16.269531 18.304688 16.269531 18.125 C 16.269531 17.945312 16.207031 17.792969 16.082031 17.667969 C 15.964844 17.542969 15.816406 17.480469 15.636719 17.480469 L 8.386719 17.480469 C 8.199219 17.480469 8.042969 17.542969 7.917969 17.667969 C 7.792969 17.792969 7.730469 17.945312 7.730469 18.125 C 7.730469 18.304688 7.792969 18.457031 7.917969 18.582031 C 8.042969 18.703125 8.199219 18.761719 8.386719 18.761719 Z M 17.042969 7.636719 C 17.042969 8.003906 17.171875 8.3125 17.425781 8.5625 C 17.683594 8.804688 17.992188 8.925781 18.355469 8.925781 C 18.703125 8.925781 19.003906 8.800781 19.261719 8.550781 C 19.515625 8.300781 19.644531 7.996094 19.644531 7.636719 C 19.644531 7.289062 19.515625 6.984375 19.261719 6.730469 C 19.003906 6.472656 18.703125 6.34375 18.355469 6.34375 C 17.992188 6.34375 17.683594 6.472656 17.425781 6.730469 C 17.171875 6.984375 17.042969 7.289062 17.042969 7.636719 Z M 17.042969 7.636719 "/>
</g>
</svg>
