<svg xmlns="http://www.w3.org/2000/svg" width="24" height="24"><path style="stroke:none;fill-rule:nonzero;fill:#fff;fill-opacity:1" d="M6.105 23.855h11.782c.66 0 1.156-.168 1.488-.507.332-.332.5-.86.5-1.59V19.64h.719c1.015 0 1.785-.27 2.312-.801.528-.547.793-1.352.793-2.43V7.434c0-1.075-.265-1.883-.793-2.426-.527-.547-1.297-.817-2.312-.817H3.387c-.961 0-1.715.27-2.274.817-.547.543-.82 1.351-.82 2.426v8.976c0 1.078.262 1.883.789 2.43.527.531 1.297.8 2.305.8h.726v2.118c0 .73.168 1.258.5 1.59.336.34.832.507 1.492.507Zm.52-1.652c-.277 0-.484-.074-.625-.219-.14-.14-.207-.363-.207-.664v-8.195c0-.297.066-.508.207-.652.14-.149.348-.22.625-.22h10.75c.277 0 .484.071.613.22.14.14.211.355.211.652v8.195c0 .301-.07.524-.21.664-.13.145-.337.22-.614.22ZM4.418 2.727h15.156v-.192c0-.543-.125-.988-.375-1.332A2.095 2.095 0 0 0 18.176.43c-.43-.168-.926-.25-1.488-.25H7.3a4.03 4.03 0 0 0-1.457.25c-.414.14-.778.41-1.043.773-.254.344-.383.79-.383 1.332Zm3.969 13.289h7.238a.58.58 0 0 0 .457-.2.703.703 0 0 0 .188-.496.64.64 0 0 0-.188-.465.59.59 0 0 0-.457-.199H8.387a.646.646 0 0 0-.48.2.646.646 0 0 0-.177.464c0 .2.06.364.176.496.13.133.301.204.48.2Zm0 3.851h7.238c.188 0 .34-.062.457-.191a.675.675 0 0 0 .188-.485.663.663 0 0 0-.188-.484.578.578 0 0 0-.457-.2H8.387a.632.632 0 0 0-.48.2.7.7 0 0 0-.177.484c0 .192.06.352.176.485.13.129.301.195.48.191Zm8.675-12.039c0-.371.133-.695.395-.98.273-.285.59-.43.961-.43.352 0 .66.144.926.43.27.28.406.609.406.98 0 .399-.137.73-.406 1.008-.242.262-.578.41-.926.406a1.288 1.288 0 0 1-.961-.394 1.451 1.451 0 0 1-.395-1.02Zm0 0"/></svg>