<svg width="143" height="136" viewBox="0 0 143 136" fill="none" xmlns="http://www.w3.org/2000/svg">
<path d="M19.5625 116.688H31.9375V107.25H19.4375C16.6458 107.25 14.5417 106.542 13.125 105.125C11.75 103.708 11.0625 101.625 11.0625 98.875V39.375C11.0625 36.625 11.75 34.5417 13.125 33.125C14.5417 31.7083 16.6458 31 19.4375 31H123.688C126.438 31 128.521 31.7083 129.938 33.125C131.354 34.5417 132.062 36.625 132.062 39.375V98.875C132.062 101.625 131.354 103.708 129.938 105.125C128.521 106.542 126.438 107.25 123.688 107.25H112V116.688H123.562C129.646 116.688 134.25 115.146 137.375 112.062C140.542 109.021 142.125 104.458 142.125 98.375V39.875C142.125 33.7917 140.542 29.2292 137.375 26.1875C134.25 23.1042 129.646 21.5625 123.562 21.5625H19.5625C13.7708 21.5625 9.20833 23.1042 5.875 26.1875C2.58333 29.2292 0.9375 33.7917 0.9375 39.875V98.375C0.9375 104.458 2.52083 109.021 5.6875 112.062C8.85417 115.146 13.4792 116.688 19.5625 116.688ZM38.0625 135.25H105C108.958 135.25 111.938 134.292 113.938 132.375C115.938 130.458 116.938 127.438 116.938 123.312V72.3125C116.938 68.1458 115.938 65.125 113.938 63.25C111.938 61.3333 108.958 60.375 105 60.375H38.0625C34.2708 60.375 31.3333 61.3333 29.25 63.25C27.1667 65.125 26.125 68.1458 26.125 72.3125V123.312C26.125 127.438 27.125 130.458 29.125 132.375C31.125 134.292 34.1042 135.25 38.0625 135.25ZM41.1875 125.812C39.5208 125.812 38.2708 125.396 37.4375 124.562C36.6042 123.771 36.1875 122.521 36.1875 120.812V74.75C36.1875 73.0833 36.6042 71.8542 37.4375 71.0625C38.2708 70.2292 39.5208 69.8125 41.1875 69.8125H101.938C103.604 69.8125 104.833 70.2292 105.625 71.0625C106.458 71.8542 106.875 73.0833 106.875 74.75V120.812C106.875 122.521 106.458 123.771 105.625 124.562C104.833 125.396 103.604 125.812 101.938 125.812H41.1875ZM25.6875 27.1875H35.375V17.5625C35.375 14.9375 36.0208 12.9792 37.3125 11.6875C38.6458 10.3958 40.625 9.75 43.25 9.75H99.8125C102.438 9.75 104.396 10.3958 105.688 11.6875C107.021 12.9792 107.688 14.9375 107.688 17.5625V27.0625H117.375V18.25C117.375 12.1667 115.875 7.70833 112.875 4.875C109.917 2.04167 105.521 0.625 99.6875 0.625H43.375C37.875 0.625 33.5417 2.04167 30.375 4.875C27.25 7.70833 25.6875 12.1667 25.6875 18.25V27.1875ZM49.875 90.75H93.375C94.4583 90.75 95.3542 90.375 96.0625 89.625C96.8125 88.875 97.1875 87.9375 97.1875 86.8125C97.1875 85.7708 96.8125 84.8958 96.0625 84.1875C95.3542 83.4375 94.4583 83.0625 93.375 83.0625H49.875C48.75 83.0625 47.8125 83.4375 47.0625 84.1875C46.3125 84.8958 45.9375 85.7708 45.9375 86.8125C45.9375 87.9375 46.3125 88.875 47.0625 89.625C47.8125 90.375 48.75 90.75 49.875 90.75ZM49.875 112.562H93.375C94.4583 112.562 95.3542 112.208 96.0625 111.5C96.8125 110.75 97.1875 109.833 97.1875 108.75C97.1875 107.667 96.8125 106.75 96.0625 106C95.3542 105.25 94.4583 104.875 93.375 104.875H49.875C48.75 104.875 47.8125 105.25 47.0625 106C46.3125 106.75 45.9375 107.667 45.9375 108.75C45.9375 109.833 46.3125 110.75 47.0625 111.5C47.8125 112.208 48.75 112.562 49.875 112.562ZM101.812 45.8125C101.812 48.0208 102.583 49.875 104.125 51.375C105.667 52.8333 107.521 53.5625 109.688 53.5625C111.771 53.5625 113.583 52.8125 115.125 51.3125C116.667 49.8125 117.438 47.9792 117.438 45.8125C117.438 43.7292 116.667 41.9167 115.125 40.375C113.583 38.8333 111.771 38.0625 109.688 38.0625C107.521 38.0625 105.667 38.8333 104.125 40.375C102.583 41.9167 101.812 43.7292 101.812 45.8125Z" fill="white"/>
</svg>
