<svg xmlns="http://www.w3.org/2000/svg" width="24" height="24"><path style="stroke:none;fill-rule:nonzero;fill:#fff;fill-opacity:1" d="M1.582 22.05c.176 0 .336-.038.48-.116.145-.086.278-.211.387-.372L12.816 6.711h-1.648l10.367 14.852c.11.164.238.285.39.37.15.079.313.118.481.118.23 0 .442-.078.63-.227.187-.152.331-.347.429-.601.105-.262.16-.555.16-.88 0-.253-.031-.472-.094-.655a2.084 2.084 0 0 0-.27-.563L12.899 4.258a1.345 1.345 0 0 0-.418-.399.87.87 0 0 0-.48-.148c-.34 0-.645.184-.91.543L.723 19.125a1.85 1.85 0 0 0-.266.543 2.26 2.26 0 0 0-.094.676c0 .32.051.617.16.883.106.25.25.445.426.597a.997.997 0 0 0 .633.227ZM1.93 3.767H22.03c.348 0 .63-.153.844-.47.223-.323.344-.76.336-1.214 0-.492-.113-.89-.336-1.203C22.66.57 22.379.41 22.031.41H1.93c-.34 0-.617.16-.832.469-.215.312-.32.71-.32 1.207 0 .484.105.89.32 1.21.214.317.492.47.832.47Zm0 0"/></svg>