<svg width="24" height="16" viewBox="0 0 24 16" fill="none" xmlns="http://www.w3.org/2000/svg">
<path d="M7.63281 15.8984H10.2266C10.5495 15.8984 10.8073 15.8047 11 15.6172C11.1927 15.4297 11.2891 15.2005 11.2891 14.9297C11.2891 14.7839 11.2552 14.6328 11.1875 14.4766C11.125 14.3255 11.0234 14.1745 10.8828 14.0234C10.7109 13.8359 10.5755 13.6354 10.4766 13.4219C10.3776 13.2083 10.3281 12.987 10.3281 12.7578C10.3281 12.3047 10.4792 11.9167 10.7812 11.5938C11.0833 11.2708 11.4896 11.1094 12 11.1094C12.5104 11.1094 12.9167 11.2708 13.2188 11.5938C13.5208 11.9167 13.6719 12.3047 13.6719 12.7578C13.6719 12.987 13.6198 13.2083 13.5156 13.4219C13.4167 13.6354 13.2812 13.8359 13.1094 14.0234C12.974 14.1745 12.8724 14.3255 12.8047 14.4766C12.7422 14.6328 12.7109 14.7839 12.7109 14.9297C12.7109 15.2005 12.8073 15.4297 13 15.6172C13.1927 15.8047 13.4505 15.8984 13.7734 15.8984H16.3594C17.1458 15.8984 17.7396 15.7005 18.1406 15.3047C18.5469 14.9089 18.75 14.3229 18.75 13.5469V10.7891C18.75 10.7266 18.7708 10.6849 18.8125 10.6641C18.8542 10.638 18.9089 10.651 18.9766 10.7031C19.1432 10.8177 19.3177 10.9219 19.5 11.0156C19.6823 11.1042 19.8724 11.1745 20.0703 11.2266C20.2734 11.2786 20.4818 11.3047 20.6953 11.3047C21.1901 11.3047 21.6484 11.1823 22.0703 10.9375C22.4974 10.6875 22.8411 10.3438 23.1016 9.90625C23.3672 9.46875 23.5 8.95833 23.5 8.375C23.5 7.79688 23.3672 7.28906 23.1016 6.85156C22.8411 6.40885 22.4974 6.0651 22.0703 5.82031C21.6484 5.57552 21.1901 5.45312 20.6953 5.45312C20.4818 5.45312 20.2734 5.47917 20.0703 5.53125C19.8724 5.58333 19.6823 5.65625 19.5 5.75C19.3177 5.83854 19.1432 5.9401 18.9766 6.05469C18.9089 6.10677 18.8542 6.1224 18.8125 6.10156C18.7708 6.07552 18.75 6.03125 18.75 5.96875V3.14844C18.75 2.3776 18.5469 1.79427 18.1406 1.39844C17.7396 0.997396 17.1458 0.796875 16.3594 0.796875H13.7734C13.4505 0.796875 13.1927 0.890625 13 1.07812C12.8073 1.26562 12.7109 1.49479 12.7109 1.76562C12.7109 1.91146 12.7422 2.0625 12.8047 2.21875C12.8724 2.36979 12.974 2.52083 13.1094 2.67188C13.2812 2.85938 13.4167 3.0599 13.5156 3.27344C13.6198 3.48698 13.6719 3.71094 13.6719 3.94531C13.6719 4.38802 13.5182 4.77344 13.2109 5.10156C12.9089 5.42448 12.5052 5.58594 12 5.58594C11.4948 5.58594 11.0885 5.42448 10.7812 5.10156C10.4792 4.77344 10.3281 4.38802 10.3281 3.94531C10.3281 3.71094 10.3776 3.48698 10.4766 3.27344C10.5755 3.0599 10.7109 2.85938 10.8828 2.67188C11.0234 2.52083 11.125 2.36979 11.1875 2.21875C11.2552 2.0625 11.2891 1.91146 11.2891 1.76562C11.2891 1.49479 11.1927 1.26562 11 1.07812C10.8073 0.890625 10.5495 0.796875 10.2266 0.796875H7.63281C6.85156 0.796875 6.25781 0.997396 5.85156 1.39844C5.45052 1.79427 5.25 2.3776 5.25 3.14844V5.96875C5.25 6.03125 5.22917 6.07552 5.1875 6.10156C5.14583 6.1224 5.09115 6.10677 5.02344 6.05469C4.85677 5.9401 4.68229 5.83854 4.5 5.75C4.31771 5.65625 4.125 5.58333 3.92188 5.53125C3.72396 5.47917 3.51562 5.45312 3.29688 5.45312C2.80729 5.45312 2.34896 5.57552 1.92188 5.82031C1.49479 6.0651 1.15104 6.40885 0.890625 6.85156C0.630208 7.28906 0.5 7.79688 0.5 8.375C0.5 8.95833 0.630208 9.46875 0.890625 9.90625C1.15104 10.3438 1.49479 10.6875 1.92188 10.9375C2.34896 11.1823 2.80729 11.3047 3.29688 11.3047C3.51562 11.3047 3.72396 11.2786 3.92188 11.2266C4.125 11.1745 4.31771 11.1042 4.5 11.0156C4.68229 10.9219 4.85677 10.8177 5.02344 10.7031C5.09115 10.651 5.14583 10.638 5.1875 10.6641C5.22917 10.6849 5.25 10.7266 5.25 10.7891V13.5469C5.25 14.3229 5.45052 14.9089 5.85156 15.3047C6.25781 15.7005 6.85156 15.8984 7.63281 15.8984ZM7.65625 14.6406C7.29688 14.6406 7.01562 14.5417 6.8125 14.3438C6.60938 14.1458 6.50781 13.8594 6.50781 13.4844V10.1562C6.50781 9.82812 6.41406 9.56771 6.22656 9.375C6.03906 9.18229 5.8099 9.08594 5.53906 9.08594C5.39323 9.08594 5.24219 9.11979 5.08594 9.1875C4.9349 9.25 4.78385 9.35156 4.63281 9.49219C4.44531 9.66406 4.24219 9.80208 4.02344 9.90625C3.8099 10.0052 3.58854 10.0547 3.35938 10.0547C2.91667 10.0547 2.53125 9.90104 2.20312 9.59375C1.88021 9.28646 1.71875 8.88021 1.71875 8.375C1.71875 7.875 1.88021 7.47135 2.20312 7.16406C2.53125 6.85677 2.91667 6.70312 3.35938 6.70312C3.58854 6.70312 3.8099 6.75521 4.02344 6.85938C4.24219 6.95833 4.44531 7.09375 4.63281 7.26562C4.78385 7.40625 4.9349 7.51042 5.08594 7.57812C5.24219 7.64062 5.39323 7.67188 5.53906 7.67188C5.8099 7.67188 6.03906 7.57552 6.22656 7.38281C6.41406 7.1901 6.50781 6.92969 6.50781 6.60156V3.21094C6.50781 2.84115 6.60938 2.55729 6.8125 2.35938C7.01562 2.15625 7.29688 2.05469 7.65625 2.05469H9.45312C9.63542 2.05469 9.71875 2.09375 9.70312 2.17188C9.6875 2.24479 9.65625 2.31771 9.60938 2.39062C9.50521 2.55208 9.41146 2.71875 9.32812 2.89062C9.25 3.05729 9.1875 3.23438 9.14062 3.42188C9.09896 3.60417 9.07812 3.79948 9.07812 4.00781C9.07812 4.4974 9.20052 4.95573 9.44531 5.38281C9.6901 5.80469 10.0312 6.14844 10.4688 6.41406C10.9115 6.67448 11.4219 6.80469 12 6.80469C12.5781 6.80469 13.0859 6.67448 13.5234 6.41406C13.9661 6.14844 14.3099 5.80469 14.5547 5.38281C14.7995 4.95573 14.9219 4.4974 14.9219 4.00781C14.9219 3.79948 14.8984 3.60417 14.8516 3.42188C14.8047 3.23438 14.7422 3.05729 14.6641 2.89062C14.5859 2.71875 14.4948 2.55208 14.3906 2.39062C14.3438 2.31771 14.3099 2.24479 14.2891 2.17188C14.2734 2.09375 14.3594 2.05469 14.5469 2.05469H16.3438C16.7031 2.05469 16.9844 2.15625 17.1875 2.35938C17.3906 2.55729 17.4922 2.84115 17.4922 3.21094V6.60156C17.4922 6.92969 17.5859 7.1901 17.7734 7.38281C17.9609 7.57552 18.1901 7.67188 18.4609 7.67188C18.6068 7.67188 18.7552 7.64062 18.9062 7.57812C19.0625 7.51042 19.2161 7.40625 19.3672 7.26562C19.5547 7.09375 19.7552 6.95833 19.9688 6.85938C20.1823 6.75521 20.4036 6.70312 20.6328 6.70312C21.0807 6.70312 21.4661 6.85677 21.7891 7.16406C22.1172 7.47135 22.2812 7.875 22.2812 8.375C22.2812 8.88021 22.1172 9.28646 21.7891 9.59375C21.4661 9.90104 21.0807 10.0547 20.6328 10.0547C20.4036 10.0547 20.1823 10.0052 19.9688 9.90625C19.7552 9.80208 19.5547 9.66406 19.3672 9.49219C19.2161 9.35156 19.0625 9.25 18.9062 9.1875C18.7552 9.11979 18.6068 9.08594 18.4609 9.08594C18.1901 9.08594 17.9609 9.18229 17.7734 9.375C17.5859 9.56771 17.4922 9.82812 17.4922 10.1562V13.4844C17.4922 13.8594 17.3906 14.1458 17.1875 14.3438C16.9844 14.5417 16.7031 14.6406 16.3438 14.6406H14.5469C14.3594 14.6406 14.2734 14.6016 14.2891 14.5234C14.3099 14.4505 14.3438 14.3776 14.3906 14.3047C14.4948 14.1484 14.5859 13.9844 14.6641 13.8125C14.7422 13.6406 14.8047 13.4635 14.8516 13.2812C14.8984 13.0938 14.9219 12.8984 14.9219 12.6953C14.9219 12.1953 14.7995 11.7344 14.5547 11.3125C14.3151 10.8854 13.974 10.5417 13.5312 10.2812C13.0938 10.0208 12.5833 9.89062 12 9.89062C11.4167 9.89062 10.9036 10.0208 10.4609 10.2812C10.0234 10.5417 9.68229 10.8854 9.4375 11.3125C9.19792 11.7344 9.07812 12.1953 9.07812 12.6953C9.07812 12.8984 9.09896 13.0938 9.14062 13.2812C9.1875 13.4635 9.25 13.6406 9.32812 13.8125C9.41146 13.9844 9.50521 14.1484 9.60938 14.3047C9.65625 14.3776 9.6875 14.4505 9.70312 14.5234C9.71875 14.6016 9.63542 14.6406 9.45312 14.6406H7.65625Z" fill="white"/>
</svg>
