<svg xmlns="http://www.w3.org/2000/svg" width="24" height="24"><path style="stroke:none;fill-rule:nonzero;fill:#fff;fill-opacity:1" d="M12 23.05c1.633 0 3.168-.292 4.605-.882a12.22 12.22 0 0 0 3.82-2.438 11.467 11.467 0 0 0 2.59-3.582c.626-1.363.938-2.808.938-4.347a10.2 10.2 0 0 0-.937-4.332 11.53 11.53 0 0 0-2.59-3.598 12.361 12.361 0 0 0-3.82-2.437A12.166 12.166 0 0 0 11.987.55c-1.633 0-3.172.293-4.617.883A12.307 12.307 0 0 0 3.562 3.87 11.523 11.523 0 0 0 .985 7.465 10.2 10.2 0 0 0 .047 11.8c0 1.539.312 2.984.937 4.347a11.467 11.467 0 0 0 2.59 3.582 12.236 12.236 0 0 0 3.809 2.438c1.445.59 2.984.883 4.617.883Zm0-1.874a10.222 10.222 0 0 1-7.055-2.734 9.548 9.548 0 0 1-2.133-2.989 8.83 8.83 0 0 1-.761-3.652c0-1.301.254-2.52.761-3.649A9.52 9.52 0 0 1 4.946 5.16 9.82 9.82 0 0 1 8.11 3.156c1.204-.488 2.496-.73 3.88-.73 1.382 0 2.675.242 3.878.73a9.701 9.701 0 0 1 3.176 2.004 9.432 9.432 0 0 1 2.145 2.992 8.685 8.685 0 0 1 .773 3.649c0 1.3-.258 2.52-.773 3.652a9.22 9.22 0 0 1-2.133 2.988A10.222 10.222 0 0 1 12 21.176Zm-.012-4.203c.688 0 1.313-.106 1.875-.32l.809 1.038c.117.149.234.25.351.309.118.059.25.09.387.09a.71.71 0 0 0 .504-.18.62.62 0 0 0 .2-.473c0-.167-.098-.37-.294-.605l-.691-.883a4.7 4.7 0 0 0 1.418-1.777c.344-.735.515-1.559.515-2.469 0-1.039-.214-1.953-.644-2.746a4.721 4.721 0 0 0-1.793-1.863c-.758-.45-1.637-.676-2.637-.676s-1.883.227-2.648.672a4.739 4.739 0 0 0-1.781 1.867c-.43.793-.645 1.707-.645 2.746 0 1.035.215 1.953.645 2.746a4.767 4.767 0 0 0 1.78 1.852c.766.449 1.65.672 2.65.672Zm0-1.387c-.648 0-1.215-.16-1.699-.477-.476-.324-.848-.773-1.113-1.355-.258-.59-.387-1.274-.387-2.05 0-.79.129-1.474.387-2.056.265-.585.636-1.039 1.113-1.355.484-.32 1.05-.484 1.7-.484.648 0 1.21.164 1.687.484.476.316.847.77 1.113 1.36.266.577.399 1.261.399 2.05 0 .64-.094 1.215-.282 1.73-.18.508-.437.926-.773 1.258l-.668-.847a.795.795 0 0 0-.633-.313.736.736 0 0 0-.504.192.557.557 0 0 0-.2.437c0 .172.075.356.224.555l.574.738a3.197 3.197 0 0 1-.938.133Zm0 0"/></svg>