<svg width="16" height="17" viewBox="0 0 16 17" fill="none" xmlns="http://www.w3.org/2000/svg">
<path d="M8 16.3281C9.08854 16.3281 10.112 16.1198 11.0703 15.7031C12.0339 15.2865 12.8828 14.7109 13.6172 13.9766C14.3516 13.2422 14.9271 12.3958 15.3438 11.4375C15.7604 10.474 15.9688 9.44792 15.9688 8.35938C15.9688 7.27083 15.7604 6.2474 15.3438 5.28906C14.9271 4.32552 14.3516 3.47656 13.6172 2.74219C12.8828 2.00781 12.0339 1.43229 11.0703 1.01562C10.1068 0.598958 9.08073 0.390625 7.99219 0.390625C6.90365 0.390625 5.8776 0.598958 4.91406 1.01562C3.95573 1.43229 3.10938 2.00781 2.375 2.74219C1.64583 3.47656 1.07292 4.32552 0.65625 5.28906C0.239583 6.2474 0.03125 7.27083 0.03125 8.35938C0.03125 9.44792 0.239583 10.474 0.65625 11.4375C1.07292 12.3958 1.64844 13.2422 2.38281 13.9766C3.11719 14.7109 3.96354 15.2865 4.92188 15.7031C5.88542 16.1198 6.91146 16.3281 8 16.3281ZM8 12.1406C7.3125 12.1406 6.70573 11.9766 6.17969 11.6484C5.65365 11.3203 5.24219 10.8672 4.94531 10.2891C4.65365 9.70573 4.50781 9.03646 4.50781 8.28125C4.50781 7.52083 4.65365 6.85156 4.94531 6.27344C5.24219 5.69531 5.65365 5.24219 6.17969 4.91406C6.70573 4.58594 7.3125 4.42188 8 4.42188C8.6875 4.42188 9.29167 4.58594 9.8125 4.91406C10.3385 5.24219 10.75 5.69531 11.0469 6.27344C11.3438 6.85156 11.4922 7.52083 11.4922 8.28125C11.4922 8.95312 11.3724 9.55469 11.1328 10.0859C10.8984 10.6172 10.5755 11.0495 10.1641 11.3828L10.6406 12.0312C10.7708 12.2031 10.8359 12.3516 10.8359 12.4766C10.8359 12.6172 10.7917 12.7318 10.7031 12.8203C10.6146 12.9089 10.4974 12.9531 10.3516 12.9531C10.2526 12.9531 10.1641 12.9323 10.0859 12.8906C10.0078 12.8438 9.92708 12.7656 9.84375 12.6562L9.28906 11.9062C8.88281 12.0625 8.45312 12.1406 8 12.1406ZM8 11.1172C8.23438 11.1172 8.44792 11.0859 8.64062 11.0234L8.25 10.4844C8.14583 10.349 8.09375 10.2135 8.09375 10.0781C8.09375 9.94792 8.14062 9.83854 8.23438 9.75C8.32812 9.66146 8.44271 9.61719 8.57812 9.61719C8.75521 9.61719 8.90104 9.69271 9.01562 9.84375L9.47656 10.4609C9.70573 10.2161 9.88281 9.90885 10.0078 9.53906C10.1328 9.16927 10.1953 8.75 10.1953 8.28125C10.1953 7.70833 10.1042 7.21094 9.92188 6.78906C9.74479 6.36198 9.48958 6.03125 9.15625 5.79688C8.82812 5.5625 8.44271 5.44531 8 5.44531C7.55729 5.44531 7.16927 5.5625 6.83594 5.79688C6.50781 6.03125 6.2526 6.36198 6.07031 6.78906C5.89323 7.21094 5.80469 7.70833 5.80469 8.28125C5.80469 8.85417 5.89323 9.35417 6.07031 9.78125C6.2526 10.2031 6.50781 10.5312 6.83594 10.7656C7.16927 11 7.55729 11.1172 8 11.1172Z" fill="white"/>
</svg>
