<?xml version="1.0" encoding="UTF-8"?>
<svg xmlns="http://www.w3.org/2000/svg" xmlns:xlink="http://www.w3.org/1999/xlink" width="24" height="22.5" viewBox="0 0 24 22.5" version="1.1">
<g id="surface1">
<path style=" stroke:none;fill-rule:nonzero;fill:rgb(100%,100%,100%);fill-opacity:1;" d="M 4.886719 21.84375 L 19.101562 21.84375 C 20.328125 21.84375 21.246094 21.539062 21.855469 20.929688 C 22.472656 20.328125 22.78125 19.421875 22.78125 18.210938 L 22.78125 3.902344 C 22.78125 2.691406 22.472656 1.785156 21.855469 1.183594 C 21.246094 0.574219 20.328125 0.269531 19.101562 0.269531 L 4.886719 0.269531 C 3.660156 0.269531 2.738281 0.574219 2.121094 1.183594 C 1.511719 1.785156 1.207031 2.691406 1.207031 3.902344 L 1.207031 18.210938 C 1.207031 19.421875 1.511719 20.328125 2.121094 20.929688 C 2.738281 21.539062 3.660156 21.84375 4.886719 21.84375 Z M 4.910156 19.957031 C 4.324219 19.957031 3.875 19.804688 3.5625 19.5 C 3.25 19.1875 3.09375 18.726562 3.09375 18.117188 L 3.09375 3.996094 C 3.09375 3.386719 3.25 2.929688 3.5625 2.625 C 3.875 2.3125 4.324219 2.15625 4.910156 2.15625 L 19.078125 2.15625 C 19.65625 2.15625 20.101562 2.3125 20.414062 2.625 C 20.734375 2.929688 20.894531 3.386719 20.894531 3.996094 L 20.894531 18.117188 C 20.894531 18.726562 20.734375 19.1875 20.414062 19.5 C 20.101562 19.804688 19.65625 19.957031 19.078125 19.957031 Z M 12 16.535156 C 12.6875 16.535156 13.3125 16.421875 13.875 16.195312 L 14.683594 17.296875 C 14.800781 17.453125 14.917969 17.5625 15.035156 17.625 C 15.152344 17.6875 15.28125 17.71875 15.421875 17.71875 C 15.632812 17.71875 15.800781 17.65625 15.925781 17.53125 C 16.058594 17.398438 16.125 17.230469 16.125 17.027344 C 16.125 16.847656 16.027344 16.632812 15.832031 16.382812 L 15.140625 15.445312 C 15.742188 14.960938 16.214844 14.332031 16.558594 13.558594 C 16.902344 12.777344 17.074219 11.902344 17.074219 10.933594 C 17.074219 9.832031 16.859375 8.859375 16.429688 8.015625 C 16 7.171875 15.402344 6.511719 14.636719 6.035156 C 13.878906 5.558594 13 5.320312 12 5.320312 C 11 5.320312 10.117188 5.558594 9.351562 6.035156 C 8.59375 6.511719 8 7.171875 7.570312 8.015625 C 7.140625 8.859375 6.925781 9.832031 6.925781 10.933594 C 6.925781 12.035156 7.140625 13.007812 7.570312 13.851562 C 8 14.6875 8.59375 15.34375 9.351562 15.820312 C 10.117188 16.296875 11 16.535156 12 16.535156 Z M 12 15.058594 C 11.351562 15.058594 10.785156 14.890625 10.300781 14.554688 C 9.824219 14.210938 9.453125 13.730469 9.1875 13.113281 C 8.929688 12.488281 8.800781 11.761719 8.800781 10.933594 C 8.800781 10.097656 8.929688 9.371094 9.1875 8.753906 C 9.453125 8.128906 9.824219 7.648438 10.300781 7.3125 C 10.785156 6.96875 11.351562 6.796875 12 6.796875 C 12.648438 6.796875 13.210938 6.96875 13.6875 7.3125 C 14.164062 7.648438 14.535156 8.128906 14.800781 8.753906 C 15.066406 9.371094 15.199219 10.097656 15.199219 10.933594 C 15.199219 11.613281 15.105469 12.226562 14.917969 12.773438 C 14.738281 13.3125 14.480469 13.757812 14.144531 14.109375 L 13.476562 13.207031 C 13.304688 12.988281 13.09375 12.878906 12.84375 12.878906 C 12.648438 12.878906 12.480469 12.945312 12.339844 13.078125 C 12.207031 13.203125 12.140625 13.359375 12.140625 13.546875 C 12.140625 13.726562 12.214844 13.921875 12.363281 14.132812 L 12.9375 14.917969 C 12.65625 15.011719 12.34375 15.058594 12 15.058594 Z M 12 15.058594 "/>
</g>
</svg>
