<svg width="16" height="17" viewBox="0 0 16 17" fill="none" xmlns="http://www.w3.org/2000/svg">
<path d="M8 16.3281C9.08854 16.3281 10.112 16.1198 11.0703 15.7031C12.0339 15.2865 12.8828 14.7109 13.6172 13.9766C14.3516 13.2422 14.9271 12.3958 15.3438 11.4375C15.7604 10.474 15.9688 9.44792 15.9688 8.35938C15.9688 7.27083 15.7604 6.2474 15.3438 5.28906C14.9271 4.32552 14.3516 3.47656 13.6172 2.74219C12.8828 2.00781 12.0339 1.43229 11.0703 1.01562C10.1068 0.598958 9.08073 0.390625 7.99219 0.390625C6.90365 0.390625 5.8776 0.598958 4.91406 1.01562C3.95573 1.43229 3.10938 2.00781 2.375 2.74219C1.64583 3.47656 1.07292 4.32552 0.65625 5.28906C0.239583 6.2474 0.03125 7.27083 0.03125 8.35938C0.03125 9.44792 0.239583 10.474 0.65625 11.4375C1.07292 12.3958 1.64844 13.2422 2.38281 13.9766C3.11719 14.7109 3.96354 15.2865 4.92188 15.7031C5.88542 16.1198 6.91146 16.3281 8 16.3281ZM8 15C7.07812 15 6.21615 14.8281 5.41406 14.4844C4.61198 14.1406 3.90625 13.6667 3.29688 13.0625C2.69271 12.4531 2.21875 11.7474 1.875 10.9453C1.53646 10.1432 1.36719 9.28125 1.36719 8.35938C1.36719 7.4375 1.53646 6.57552 1.875 5.77344C2.21875 4.97135 2.69271 4.26562 3.29688 3.65625C3.90104 3.04688 4.60417 2.57292 5.40625 2.23438C6.20833 1.89062 7.07031 1.71875 7.99219 1.71875C8.91406 1.71875 9.77604 1.89062 10.5781 2.23438C11.3854 2.57292 12.0911 3.04688 12.6953 3.65625C13.3047 4.26562 13.7812 4.97135 14.125 5.77344C14.4688 6.57552 14.6406 7.4375 14.6406 8.35938C14.6406 9.28125 14.4688 10.1432 14.125 10.9453C13.7865 11.7474 13.3125 12.4531 12.7031 13.0625C12.0938 13.6667 11.388 14.1406 10.5859 14.4844C9.78385 14.8281 8.92188 15 8 15ZM7.84375 9.97656C8.03646 9.97656 8.1875 9.92188 8.29688 9.8125C8.41146 9.70312 8.46875 9.57292 8.46875 9.42188C8.46875 9.40625 8.46875 9.39062 8.46875 9.375C8.46875 9.35417 8.46875 9.33854 8.46875 9.32812C8.46875 9.10938 8.53385 8.92188 8.66406 8.76562C8.79427 8.60417 8.9974 8.43229 9.27344 8.25C9.64844 8 9.95833 7.73958 10.2031 7.46875C10.4479 7.19792 10.5703 6.82812 10.5703 6.35938C10.5703 5.92708 10.4531 5.5625 10.2188 5.26562C9.98958 4.96875 9.6875 4.74479 9.3125 4.59375C8.9375 4.4375 8.52865 4.35938 8.08594 4.35938C7.41406 4.35938 6.86458 4.4974 6.4375 4.77344C6.01562 5.04427 5.75 5.35938 5.64062 5.71875C5.61979 5.78125 5.60417 5.84375 5.59375 5.90625C5.58333 5.96875 5.57812 6.03385 5.57812 6.10156C5.57812 6.27865 5.63542 6.41406 5.75 6.50781C5.86458 6.59635 5.98698 6.64062 6.11719 6.64062C6.2474 6.64062 6.35677 6.61198 6.44531 6.55469C6.53906 6.4974 6.61979 6.42188 6.6875 6.32812L6.82812 6.14062C6.92188 5.98958 7.02865 5.86198 7.14844 5.75781C7.26823 5.64844 7.40104 5.5651 7.54688 5.50781C7.69792 5.45052 7.85938 5.42188 8.03125 5.42188C8.39062 5.42188 8.67708 5.51562 8.89062 5.70312C9.10417 5.88542 9.21094 6.125 9.21094 6.42188C9.21094 6.6875 9.1276 6.90625 8.96094 7.07812C8.79427 7.24479 8.53906 7.44792 8.19531 7.6875C7.91406 7.88021 7.67969 8.09375 7.49219 8.32812C7.3099 8.5625 7.21875 8.8724 7.21875 9.25781C7.21875 9.27344 7.21875 9.29167 7.21875 9.3125C7.21875 9.32812 7.21875 9.34375 7.21875 9.35938C7.21875 9.77083 7.42708 9.97656 7.84375 9.97656ZM7.82031 12.3047C8.04948 12.3047 8.2474 12.2266 8.41406 12.0703C8.58073 11.9141 8.66406 11.7214 8.66406 11.4922C8.66406 11.263 8.58073 11.0703 8.41406 10.9141C8.2474 10.7578 8.04948 10.6797 7.82031 10.6797C7.59115 10.6797 7.39323 10.7604 7.22656 10.9219C7.0651 11.0781 6.98438 11.2682 6.98438 11.4922C6.98438 11.7161 7.06771 11.9089 7.23438 12.0703C7.40104 12.2266 7.59635 12.3047 7.82031 12.3047Z" fill="white"/>
</svg>
