<svg xmlns="http://www.w3.org/2000/svg" width="24" height="24"><path style="stroke:none;fill-rule:nonzero;fill:#fff;fill-opacity:1" d="M21.293 1.875A3.967 3.967 0 0 0 19.148.66a13.48 13.48 0 0 0-2.742-.262H7.56c-.985 0-1.891.09-2.72.262a3.974 3.974 0 0 0-2.132 1.215A4.442 4.442 0 0 0 1.57 4.137a16.454 16.454 0 0 0-.234 2.886v9.454c0 1.066.078 2.039.234 2.921a4.31 4.31 0 0 0 1.137 2.262 3.974 3.974 0 0 0 2.133 1.215c.828.172 1.742.262 2.742.262h8.824c1 0 1.914-.09 2.742-.262a3.929 3.929 0 0 0 2.145-1.215 4.351 4.351 0 0 0 1.125-2.262c.164-.882.246-1.859.246-2.925v-9.41a15.8 15.8 0 0 0-.246-2.91 4.34 4.34 0 0 0-1.125-2.278Zm-9.527 12.574c-.649 0-.973-.34-.973-1.023v-.164c0-.64.145-1.153.434-1.535.289-.387.648-.739 1.078-1.063.53-.394.925-.726 1.183-1 .258-.285.387-.648.387-1.09 0-.488-.168-.886-.504-1.187-.328-.297-.766-.45-1.312-.45-.266 0-.512.047-.739.137a2.043 2.043 0 0 0-.62.403 2.766 2.766 0 0 0-.505.636l-.21.313c-.11.148-.235.273-.376.375a.93.93 0 0 1-.515.136.878.878 0 0 1-.574-.226c-.18-.156-.27-.379-.27-.66 0-.11.008-.219.023-.324.024-.11.051-.215.082-.313.172-.601.582-1.121 1.23-1.566.657-.442 1.509-.66 2.556-.66.687 0 1.32.125 1.898.375a3.336 3.336 0 0 1 1.418 1.113c.36.484.54 1.082.54 1.8 0 .774-.192 1.387-.575 1.836-.375.45-.856.88-1.442 1.29-.421.289-.734.57-.937.835a1.483 1.483 0 0 0-.305.938v.148c0 .262-.086.48-.258.665-.171.175-.41.261-.714.261Zm-.036 3.84c-.343 0-.648-.133-.914-.39a1.3 1.3 0 0 1-.386-.95c0-.367.129-.683.386-.949.243-.258.57-.402.914-.398.36 0 .668.132.926.398.258.258.387.574.387.95 0 .374-.133.695-.398.948a1.254 1.254 0 0 1-.915.391Zm0 0"/></svg>