<svg xmlns="http://www.w3.org/2000/svg" width="24" height="24"><path style="stroke:none;fill-rule:nonzero;fill:#fff;fill-opacity:1" d="M12 23.05c1.633 0 3.168-.292 4.605-.882a12.22 12.22 0 0 0 3.82-2.438 11.467 11.467 0 0 0 2.59-3.582c.626-1.363.938-2.808.938-4.347a10.2 10.2 0 0 0-.937-4.332 11.53 11.53 0 0 0-2.59-3.598 12.361 12.361 0 0 0-3.82-2.437A12.166 12.166 0 0 0 11.987.55c-1.633 0-3.172.293-4.617.883A12.307 12.307 0 0 0 3.562 3.87 11.523 11.523 0 0 0 .985 7.465 10.2 10.2 0 0 0 .047 11.8c0 1.539.312 2.984.937 4.347a11.467 11.467 0 0 0 2.59 3.582 12.236 12.236 0 0 0 3.809 2.438c1.445.59 2.984.883 4.617.883Zm0-1.874a10.222 10.222 0 0 1-7.055-2.734 9.548 9.548 0 0 1-2.133-2.989 8.83 8.83 0 0 1-.761-3.652c0-1.301.254-2.52.761-3.649A9.52 9.52 0 0 1 4.946 5.16 9.82 9.82 0 0 1 8.11 3.156c1.204-.488 2.496-.73 3.88-.73 1.382 0 2.675.242 3.878.73a9.701 9.701 0 0 1 3.176 2.004 9.432 9.432 0 0 1 2.145 2.992 8.685 8.685 0 0 1 .773 3.649c0 1.3-.258 2.52-.773 3.652a9.22 9.22 0 0 1-2.133 2.988A10.222 10.222 0 0 1 12 21.176Zm-.234-7.09c.289 0 .515-.078.68-.234a.724.724 0 0 0 .257-.551v-.133c0-.309.098-.57.293-.793.195-.227.5-.473.914-.727.512-.312.98-.683 1.395-1.105.367-.383.55-.902.55-1.566 0-.61-.175-1.125-.527-1.543a3.194 3.194 0 0 0-1.36-.95 5.01 5.01 0 0 0-1.84-.328c-1.007 0-1.831.192-2.472.582-.633.383-1.031.828-1.195 1.336a1.581 1.581 0 0 0-.094.54c0 .25.086.44.258.573a.92.92 0 0 0 .55.188.92.92 0 0 0 .493-.121c.14-.082.262-.188.363-.32l.211-.266c.13-.2.293-.383.48-.54.18-.155.38-.273.598-.35.227-.083.47-.126.727-.126.539 0 .969.133 1.289.399.32.258.48.597.48 1.015 0 .375-.125.684-.375.926-.25.235-.632.524-1.148.86a4.755 4.755 0 0 0-1.055.906c-.273.332-.41.77-.41 1.312v.145c0 .578.313.87.938.87Zm-.036 3.285c.344 0 .641-.11.891-.332.25-.219.375-.492.375-.816 0-.32-.125-.594-.375-.817a1.308 1.308 0 0 0-.89-.328c-.344 0-.641.113-.891.34a1.056 1.056 0 0 0-.363.805c0 .316.125.59.375.816.25.223.543.332.878.332Zm0 0"/></svg>