<?xml version="1.0" encoding="UTF-8"?>
<svg xmlns="http://www.w3.org/2000/svg" xmlns:xlink="http://www.w3.org/1999/xlink" width="24" height="25.5" viewBox="0 0 24 25.5" version="1.1">
<g id="surface1">
<path style=" stroke:none;fill-rule:nonzero;fill:rgb(100%,100%,100%);fill-opacity:1;" d="M 12 24.492188 C 13.632812 24.492188 15.167969 24.179688 16.605469 23.554688 C 18.050781 22.929688 19.324219 22.066406 20.425781 20.964844 C 21.527344 19.863281 22.390625 18.59375 23.015625 17.15625 C 23.640625 15.710938 23.953125 14.171875 23.953125 12.539062 C 23.953125 10.90625 23.640625 9.371094 23.015625 7.933594 C 22.390625 6.488281 21.527344 5.214844 20.425781 4.113281 C 19.324219 3.011719 18.050781 2.148438 16.605469 1.523438 C 15.160156 0.898438 13.621094 0.585938 11.988281 0.585938 C 10.355469 0.585938 8.816406 0.898438 7.371094 1.523438 C 5.933594 2.148438 4.664062 3.011719 3.5625 4.113281 C 2.46875 5.214844 1.609375 6.488281 0.984375 7.933594 C 0.359375 9.371094 0.046875 10.90625 0.046875 12.539062 C 0.046875 14.171875 0.359375 15.710938 0.984375 17.15625 C 1.609375 18.59375 2.472656 19.863281 3.574219 20.964844 C 4.675781 22.066406 5.945312 22.929688 7.382812 23.554688 C 8.828125 24.179688 10.367188 24.492188 12 24.492188 Z M 12 22.5 C 10.617188 22.5 9.324219 22.242188 8.121094 21.726562 C 6.917969 21.210938 5.859375 20.5 4.945312 19.59375 C 4.039062 18.679688 3.328125 17.621094 2.8125 16.417969 C 2.304688 15.214844 2.050781 13.921875 2.050781 12.539062 C 2.050781 11.15625 2.304688 9.863281 2.8125 8.660156 C 3.328125 7.457031 4.039062 6.398438 4.945312 5.484375 C 5.851562 4.570312 6.90625 3.859375 8.109375 3.351562 C 9.3125 2.835938 10.605469 2.578125 11.988281 2.578125 C 13.371094 2.578125 14.664062 2.835938 15.867188 3.351562 C 17.078125 3.859375 18.136719 4.570312 19.042969 5.484375 C 19.957031 6.398438 20.671875 7.457031 21.1875 8.660156 C 21.703125 9.863281 21.960938 11.15625 21.960938 12.539062 C 21.960938 13.921875 21.703125 15.214844 21.1875 16.417969 C 20.679688 17.621094 19.96875 18.679688 19.054688 19.59375 C 18.140625 20.5 17.082031 21.210938 15.878906 21.726562 C 14.675781 22.242188 13.382812 22.5 12 22.5 Z M 11.765625 14.964844 C 12.054688 14.964844 12.28125 14.882812 12.445312 14.71875 C 12.617188 14.554688 12.703125 14.359375 12.703125 14.132812 C 12.703125 14.109375 12.703125 14.085938 12.703125 14.0625 C 12.703125 14.03125 12.703125 14.007812 12.703125 13.992188 C 12.703125 13.664062 12.800781 13.382812 12.996094 13.148438 C 13.191406 12.90625 13.496094 12.648438 13.910156 12.375 C 14.472656 12 14.9375 11.609375 15.304688 11.203125 C 15.671875 10.796875 15.855469 10.242188 15.855469 9.539062 C 15.855469 8.890625 15.679688 8.34375 15.328125 7.898438 C 14.984375 7.453125 14.53125 7.117188 13.96875 6.890625 C 13.40625 6.65625 12.792969 6.539062 12.128906 6.539062 C 11.121094 6.539062 10.296875 6.746094 9.65625 7.160156 C 9.023438 7.566406 8.625 8.039062 8.460938 8.578125 C 8.429688 8.671875 8.40625 8.765625 8.390625 8.859375 C 8.375 8.953125 8.367188 9.050781 8.367188 9.152344 C 8.367188 9.417969 8.453125 9.621094 8.625 9.761719 C 8.796875 9.894531 8.980469 9.960938 9.175781 9.960938 C 9.371094 9.960938 9.535156 9.917969 9.667969 9.832031 C 9.808594 9.746094 9.929688 9.632812 10.03125 9.492188 L 10.242188 9.210938 C 10.382812 8.984375 10.542969 8.792969 10.722656 8.636719 C 10.902344 8.472656 11.101562 8.347656 11.320312 8.261719 C 11.546875 8.175781 11.789062 8.132812 12.046875 8.132812 C 12.585938 8.132812 13.015625 8.273438 13.335938 8.554688 C 13.65625 8.828125 13.816406 9.1875 13.816406 9.632812 C 13.816406 10.03125 13.691406 10.359375 13.441406 10.617188 C 13.191406 10.867188 12.808594 11.171875 12.292969 11.53125 C 11.871094 11.820312 11.519531 12.140625 11.238281 12.492188 C 10.964844 12.84375 10.828125 13.308594 10.828125 13.886719 C 10.828125 13.910156 10.828125 13.9375 10.828125 13.96875 C 10.828125 13.992188 10.828125 14.015625 10.828125 14.039062 C 10.828125 14.65625 11.140625 14.964844 11.765625 14.964844 Z M 11.730469 18.457031 C 12.074219 18.457031 12.371094 18.339844 12.621094 18.105469 C 12.871094 17.871094 12.996094 17.582031 12.996094 17.238281 C 12.996094 16.894531 12.871094 16.605469 12.621094 16.371094 C 12.371094 16.136719 12.074219 16.019531 11.730469 16.019531 C 11.386719 16.019531 11.089844 16.140625 10.839844 16.382812 C 10.597656 16.617188 10.476562 16.902344 10.476562 17.238281 C 10.476562 17.574219 10.601562 17.863281 10.851562 18.105469 C 11.101562 18.339844 11.394531 18.457031 11.730469 18.457031 Z M 11.730469 18.457031 "/>
</g>
</svg>
