<svg width="128" height="128" viewBox="0 0 128 128" fill="none" xmlns="http://www.w3.org/2000/svg">
<path d="M63.9375 127.625C72.6458 127.625 80.8333 125.958 88.5 122.625C96.2083 119.292 103 114.688 108.875 108.812C114.75 102.938 119.354 96.1667 122.688 88.5C126.021 80.7917 127.688 72.5833 127.688 63.875C127.688 55.1667 126.021 46.9792 122.688 39.3125C119.354 31.6042 114.75 24.8125 108.875 18.9375C103 13.0625 96.2083 8.45833 88.5 5.125C80.7917 1.79167 72.5833 0.125 63.875 0.125C55.1667 0.125 46.9583 1.79167 39.25 5.125C31.5833 8.45833 24.8125 13.0625 18.9375 18.9375C13.1042 24.8125 8.52083 31.6042 5.1875 39.3125C1.85417 46.9792 0.1875 55.1667 0.1875 63.875C0.1875 72.5833 1.85417 80.7917 5.1875 88.5C8.52083 96.1667 13.125 102.938 19 108.812C24.875 114.688 31.6458 119.292 39.3125 122.625C47.0208 125.958 55.2292 127.625 63.9375 127.625ZM63.9375 117C56.5625 117 49.6667 115.625 43.25 112.875C36.8333 110.125 31.1875 106.333 26.3125 101.5C21.4792 96.625 17.6875 90.9792 14.9375 84.5625C12.2292 78.1458 10.875 71.25 10.875 63.875C10.875 56.5 12.2292 49.6042 14.9375 43.1875C17.6875 36.7708 21.4792 31.125 26.3125 26.25C31.1458 21.375 36.7708 17.5833 43.1875 14.875C49.6042 12.125 56.5 10.75 63.875 10.75C71.25 10.75 78.1458 12.125 84.5625 14.875C91.0208 17.5833 96.6667 21.375 101.5 26.25C106.375 31.125 110.188 36.7708 112.938 43.1875C115.688 49.6042 117.062 56.5 117.062 63.875C117.062 71.25 115.688 78.1458 112.938 84.5625C110.229 90.9792 106.438 96.625 101.562 101.5C96.6875 106.333 91.0417 110.125 84.625 112.875C78.2083 115.625 71.3125 117 63.9375 117ZM62.6875 76.8125C64.2292 76.8125 65.4375 76.375 66.3125 75.5C67.2292 74.625 67.6875 73.5833 67.6875 72.375C67.6875 72.25 67.6875 72.125 67.6875 72C67.6875 71.8333 67.6875 71.7083 67.6875 71.625C67.6875 69.875 68.2083 68.375 69.25 67.125C70.2917 65.8333 71.9167 64.4583 74.125 63C77.125 61 79.6042 58.9167 81.5625 56.75C83.5208 54.5833 84.5 51.625 84.5 47.875C84.5 44.4167 83.5625 41.5 81.6875 39.125C79.8542 36.75 77.4375 34.9583 74.4375 33.75C71.4375 32.5 68.1667 31.875 64.625 31.875C59.25 31.875 54.8542 32.9792 51.4375 35.1875C48.0625 37.3542 45.9375 39.875 45.0625 42.75C44.8958 43.25 44.7708 43.75 44.6875 44.25C44.6042 44.75 44.5625 45.2708 44.5625 45.8125C44.5625 47.2292 45.0208 48.3125 45.9375 49.0625C46.8542 49.7708 47.8333 50.125 48.875 50.125C49.9167 50.125 50.7917 49.8958 51.5 49.4375C52.25 48.9792 52.8958 48.375 53.4375 47.625L54.5625 46.125C55.3125 44.9167 56.1667 43.8958 57.125 43.0625C58.0833 42.1875 59.1458 41.5208 60.3125 41.0625C61.5208 40.6042 62.8125 40.375 64.1875 40.375C67.0625 40.375 69.3542 41.125 71.0625 42.625C72.7708 44.0833 73.625 46 73.625 48.375C73.625 50.5 72.9583 52.25 71.625 53.625C70.2917 54.9583 68.25 56.5833 65.5 58.5C63.25 60.0417 61.375 61.75 59.875 63.625C58.4167 65.5 57.6875 67.9792 57.6875 71.0625C57.6875 71.1875 57.6875 71.3333 57.6875 71.5C57.6875 71.625 57.6875 71.75 57.6875 71.875C57.6875 75.1667 59.3542 76.8125 62.6875 76.8125ZM62.5 95.4375C64.3333 95.4375 65.9167 94.8125 67.25 93.5625C68.5833 92.3125 69.25 90.7708 69.25 88.9375C69.25 87.1042 68.5833 85.5625 67.25 84.3125C65.9167 83.0625 64.3333 82.4375 62.5 82.4375C60.6667 82.4375 59.0833 83.0833 57.75 84.375C56.4583 85.625 55.8125 87.1458 55.8125 88.9375C55.8125 90.7292 56.4792 92.2708 57.8125 93.5625C59.1458 94.8125 60.7083 95.4375 62.5 95.4375Z" fill="white"/>
</svg>
