<svg width="16" height="15" viewBox="0 0 16 15" fill="none" xmlns="http://www.w3.org/2000/svg">
<path d="M14.2891 1.125C13.888 0.723958 13.4115 0.471354 12.8594 0.367188C12.3073 0.257812 11.6979 0.203125 11.0312 0.203125H4.94531C4.28906 0.203125 3.6849 0.257812 3.13281 0.367188C2.58594 0.471354 2.11198 0.723958 1.71094 1.125C1.3151 1.52083 1.0625 1.99219 0.953125 2.53906C0.848958 3.08594 0.796875 3.6875 0.796875 4.34375V10.375C0.796875 11.0417 0.848958 11.651 0.953125 12.2031C1.05729 12.75 1.3099 13.2214 1.71094 13.6172C2.11198 14.0182 2.58594 14.2708 3.13281 14.375C3.6849 14.4844 4.29427 14.5391 4.96094 14.5391H11.0312C11.6979 14.5391 12.3073 14.4844 12.8594 14.375C13.4115 14.2708 13.888 14.0182 14.2891 13.6172C14.6849 13.2214 14.9349 12.75 15.0391 12.2031C15.1484 11.651 15.2031 11.0417 15.2031 10.375V4.36719C15.2031 3.70052 15.1484 3.09375 15.0391 2.54688C14.9349 1.99479 14.6849 1.52083 14.2891 1.125ZM13.9453 4.14844V10.5859C13.9453 10.9922 13.9062 11.388 13.8281 11.7734C13.7552 12.1536 13.6016 12.4635 13.3672 12.7031C13.1328 12.9375 12.8203 13.0911 12.4297 13.1641C12.0443 13.2422 11.651 13.2812 11.25 13.2812H4.75C4.34896 13.2812 3.95312 13.2422 3.5625 13.1641C3.17708 13.0911 2.86458 12.9375 2.625 12.7031C2.39062 12.4635 2.23698 12.1536 2.16406 11.7734C2.09115 11.388 2.05469 10.9922 2.05469 10.5859V4.17188C2.05469 3.76042 2.09115 3.36198 2.16406 2.97656C2.23698 2.58594 2.39062 2.27344 2.625 2.03906C2.85938 1.79948 3.17188 1.64323 3.5625 1.57031C3.95833 1.4974 4.36198 1.46094 4.77344 1.46094H11.25C11.651 1.46094 12.0443 1.5 12.4297 1.57812C12.8203 1.65104 13.1328 1.80469 13.3672 2.03906C13.6068 2.27865 13.763 2.59115 13.8359 2.97656C13.9089 3.35677 13.9453 3.7474 13.9453 4.14844ZM7.85156 8.97656C8.04427 8.97656 8.19531 8.92188 8.30469 8.8125C8.41927 8.70312 8.47656 8.57292 8.47656 8.42188C8.47656 8.40625 8.47656 8.39062 8.47656 8.375C8.47656 8.35417 8.47656 8.33854 8.47656 8.32812C8.47656 8.10938 8.54167 7.92188 8.67188 7.76562C8.80208 7.60417 9.00521 7.43229 9.28125 7.25C9.65625 7 9.96615 6.73958 10.2109 6.46875C10.4557 6.19792 10.5781 5.82812 10.5781 5.35938C10.5781 4.92708 10.4609 4.5625 10.2266 4.26562C9.9974 3.96875 9.69531 3.74479 9.32031 3.59375C8.94531 3.4375 8.53646 3.35938 8.09375 3.35938C7.42188 3.35938 6.8724 3.4974 6.44531 3.77344C6.02344 4.04427 5.75781 4.35938 5.64844 4.71875C5.6276 4.78125 5.61198 4.84375 5.60156 4.90625C5.59115 4.96875 5.58594 5.03385 5.58594 5.10156C5.58594 5.27865 5.64323 5.41406 5.75781 5.50781C5.8724 5.59635 5.99479 5.64062 6.125 5.64062C6.25521 5.64062 6.36458 5.61198 6.45312 5.55469C6.54688 5.4974 6.6276 5.42188 6.69531 5.32812L6.83594 5.14062C6.92969 4.98958 7.03646 4.86198 7.15625 4.75781C7.27604 4.64844 7.40885 4.5651 7.55469 4.50781C7.70573 4.45052 7.86719 4.42188 8.03906 4.42188C8.39844 4.42188 8.6849 4.51562 8.89844 4.70312C9.11198 4.88542 9.21875 5.125 9.21875 5.42188C9.21875 5.6875 9.13542 5.90625 8.96875 6.07812C8.80208 6.24479 8.54688 6.44792 8.20312 6.6875C7.92188 6.88021 7.6875 7.09375 7.5 7.32812C7.31771 7.5625 7.22656 7.8724 7.22656 8.25781C7.22656 8.27344 7.22656 8.29167 7.22656 8.3125C7.22656 8.32812 7.22656 8.34375 7.22656 8.35938C7.22656 8.77083 7.4349 8.97656 7.85156 8.97656ZM7.82812 11.3047C8.05729 11.3047 8.25521 11.2266 8.42188 11.0703C8.58854 10.9141 8.67188 10.7214 8.67188 10.4922C8.67188 10.263 8.58854 10.0703 8.42188 9.91406C8.25521 9.75781 8.05729 9.67969 7.82812 9.67969C7.59896 9.67969 7.40104 9.76042 7.23438 9.92188C7.07292 10.0781 6.99219 10.2682 6.99219 10.4922C6.99219 10.7161 7.07552 10.9089 7.24219 11.0703C7.40885 11.2266 7.60417 11.3047 7.82812 11.3047Z" fill="white"/>
</svg>
