<svg width="116" height="116" viewBox="0 0 116 116" fill="none" xmlns="http://www.w3.org/2000/svg">
<path d="M20.5625 115.5H96.375C102.917 115.5 107.812 113.875 111.062 110.625C114.354 107.417 116 102.583 116 96.125V19.8125C116 13.3542 114.354 8.52083 111.062 5.3125C107.812 2.0625 102.917 0.4375 96.375 0.4375H20.5625C14.0208 0.4375 9.10417 2.0625 5.8125 5.3125C2.5625 8.52083 0.9375 13.3542 0.9375 19.8125V96.125C0.9375 102.583 2.5625 107.417 5.8125 110.625C9.10417 113.875 14.0208 115.5 20.5625 115.5ZM20.6875 105.438C17.5625 105.438 15.1667 104.625 13.5 103C11.8333 101.333 11 98.875 11 95.625V20.3125C11 17.0625 11.8333 14.625 13.5 13C15.1667 11.3333 17.5625 10.5 20.6875 10.5H96.25C99.3333 10.5 101.708 11.3333 103.375 13C105.083 14.625 105.938 17.0625 105.938 20.3125V95.625C105.938 98.875 105.083 101.333 103.375 103C101.708 104.625 99.3333 105.438 96.25 105.438H20.6875ZM57.3125 70.8125C58.8542 70.8125 60.0625 70.375 60.9375 69.5C61.8542 68.625 62.3125 67.5833 62.3125 66.375C62.3125 66.25 62.3125 66.125 62.3125 66C62.3125 65.8333 62.3125 65.7083 62.3125 65.625C62.3125 63.875 62.8333 62.375 63.875 61.125C64.9167 59.8333 66.5417 58.4583 68.75 57C71.75 55 74.2292 52.9167 76.1875 50.75C78.1458 48.5833 79.125 45.625 79.125 41.875C79.125 38.4167 78.1875 35.5 76.3125 33.125C74.4792 30.75 72.0625 28.9583 69.0625 27.75C66.0625 26.5 62.7917 25.875 59.25 25.875C53.875 25.875 49.4792 26.9792 46.0625 29.1875C42.6875 31.3542 40.5625 33.875 39.6875 36.75C39.5208 37.25 39.3958 37.75 39.3125 38.25C39.2292 38.75 39.1875 39.2708 39.1875 39.8125C39.1875 41.2292 39.6458 42.3125 40.5625 43.0625C41.4792 43.7708 42.4583 44.125 43.5 44.125C44.5417 44.125 45.4167 43.8958 46.125 43.4375C46.875 42.9792 47.5208 42.375 48.0625 41.625L49.1875 40.125C49.9375 38.9167 50.7917 37.8958 51.75 37.0625C52.7083 36.1875 53.7708 35.5208 54.9375 35.0625C56.1458 34.6042 57.4375 34.375 58.8125 34.375C61.6875 34.375 63.9792 35.125 65.6875 36.625C67.3958 38.0833 68.25 40 68.25 42.375C68.25 44.5 67.5833 46.25 66.25 47.625C64.9167 48.9583 62.875 50.5833 60.125 52.5C57.875 54.0417 56 55.75 54.5 57.625C53.0417 59.5 52.3125 61.9792 52.3125 65.0625C52.3125 65.1875 52.3125 65.3333 52.3125 65.5C52.3125 65.625 52.3125 65.75 52.3125 65.875C52.3125 69.1667 53.9792 70.8125 57.3125 70.8125ZM57.125 89.4375C58.9583 89.4375 60.5417 88.8125 61.875 87.5625C63.2083 86.3125 63.875 84.7708 63.875 82.9375C63.875 81.1042 63.2083 79.5625 61.875 78.3125C60.5417 77.0625 58.9583 76.4375 57.125 76.4375C55.2917 76.4375 53.7083 77.0833 52.375 78.375C51.0833 79.625 50.4375 81.1458 50.4375 82.9375C50.4375 84.7292 51.1042 86.2708 52.4375 87.5625C53.7708 88.8125 55.3333 89.4375 57.125 89.4375Z" fill="white"/>
</svg>
