<svg xmlns="http://www.w3.org/2000/svg" width="24" height="24"><path style="stroke:none;fill-rule:nonzero;fill:#fff;fill-opacity:1" d="M6.707 23.988c.211 0 .398-.058.563-.18.23-.152.44-.328.636-.527l3.762-3.64h7.039c1.035 0 1.906-.196 2.617-.582a3.77 3.77 0 0 0 1.602-1.707c.37-.754.554-1.668.554-2.747V6.156c0-1.082-.183-2-.554-2.746a3.76 3.76 0 0 0-1.602-1.71c-.71-.4-1.582-.595-2.617-.595H5.293c-1.035 0-1.906.196-2.617.594A3.806 3.806 0 0 0 1.062 3.41C.704 4.156.52 5.074.52 6.156v8.45c0 1.078.183 1.992.542 2.746a3.816 3.816 0 0 0 1.614 1.707c.71.386 1.582.582 2.617.582h.488v3.21c0 .348.078.626.239.829.16.207.39.308.687.308ZM6.813 9.18c0-.68.214-1.23.644-1.657.438-.433.98-.652 1.625-.652.461 0 .863.121 1.211.363.352.235.629.559.82.973.203.41.305.875.305 1.39 0 .72-.121 1.348-.355 1.883-.231.532-.52.973-.876 1.325a3.869 3.869 0 0 1-1.074.793c-.367.172-.687.254-.957.254a.533.533 0 0 1-.386-.153.534.534 0 0 1-.145-.379.515.515 0 0 1 .105-.336c.075-.097.215-.171.415-.226.23-.067.464-.172.71-.328.25-.153.477-.348.688-.582.21-.246.383-.524.508-.828h-.082a.993.993 0 0 1-.52.363c-.21.058-.426.086-.648.086-.61 0-1.098-.219-1.457-.66-.356-.442-.532-.985-.532-1.63Zm5.8 0c0-.68.215-1.23.649-1.657.43-.433.968-.652 1.613-.652.457 0 .863.121 1.219.363.355.235.629.559.824.973.2.41.3.875.3 1.39 0 .72-.116 1.348-.355 1.883-.226.532-.52.973-.875 1.325a4.045 4.045 0 0 1-1.082.793c-.36.172-.676.254-.949.254a.495.495 0 0 1-.383-.153.538.538 0 0 1-.148-.379.515.515 0 0 1 .105-.336c.07-.097.203-.171.406-.226.235-.067.477-.172.72-.328.25-.153.48-.348.687-.582a3.11 3.11 0 0 0 .511-.828h-.085a.965.965 0 0 1-.532.363c-.21.058-.425.086-.644.086-.61 0-1.094-.219-1.45-.66-.351-.442-.53-.985-.53-1.63Zm0 0"/></svg>