<?xml version="1.0" encoding="UTF-8"?>
<svg xmlns="http://www.w3.org/2000/svg" xmlns:xlink="http://www.w3.org/1999/xlink" width="24" height="16" viewBox="0 0 24 16" version="1.1">
<g id="surface1">
<path style=" stroke:none;fill-rule:nonzero;fill:rgb(100%,100%,100%);fill-opacity:1;" d="M 0.53125 6.28125 C 0.53125 7.203125 0.738281 8.046875 1.15625 8.800781 C 1.574219 9.550781 2.136719 10.148438 2.84375 10.59375 C 3.550781 11.039062 4.347656 11.261719 5.230469 11.261719 C 5.847656 11.261719 6.441406 11.140625 7.011719 10.894531 C 7.578125 10.652344 8.078125 10.292969 8.511719 9.8125 L 8.792969 9.8125 C 8.640625 10.304688 8.414062 10.773438 8.113281 11.21875 C 7.824219 11.664062 7.472656 12.074219 7.0625 12.449219 C 6.652344 12.816406 6.195312 13.140625 5.6875 13.425781 C 5.1875 13.710938 4.652344 13.9375 4.082031 14.105469 C 3.917969 14.160156 3.769531 14.210938 3.644531 14.261719 C 3.527344 14.308594 3.433594 14.363281 3.363281 14.425781 C 3.28125 14.488281 3.21875 14.566406 3.175781 14.65625 C 3.136719 14.746094 3.113281 14.851562 3.113281 14.96875 C 3.113281 15.183594 3.1875 15.359375 3.332031 15.5 C 3.480469 15.640625 3.671875 15.707031 3.917969 15.707031 C 4.089844 15.707031 4.25 15.691406 4.394531 15.65625 C 4.542969 15.621094 4.730469 15.570312 4.957031 15.5 C 5.671875 15.265625 6.347656 14.949219 6.980469 14.550781 C 7.617188 14.148438 8.1875 13.683594 8.6875 13.15625 C 9.382812 12.425781 9.929688 11.578125 10.332031 10.613281 C 10.742188 9.648438 10.949219 8.589844 10.949219 7.4375 C 10.949219 6.140625 10.703125 5.03125 10.207031 4.113281 C 9.714844 3.191406 9.058594 2.484375 8.238281 2 C 7.425781 1.515625 6.535156 1.269531 5.5625 1.269531 C 4.605469 1.269531 3.746094 1.492188 2.988281 1.9375 C 2.234375 2.382812 1.632812 2.984375 1.1875 3.738281 C 0.75 4.488281 0.53125 5.335938 0.53125 6.28125 Z M 13.042969 6.28125 C 13.042969 7.203125 13.25 8.046875 13.667969 8.800781 C 14.082031 9.550781 14.644531 10.148438 15.355469 10.59375 C 16.0625 11.039062 16.859375 11.261719 17.738281 11.261719 C 18.359375 11.261719 18.949219 11.140625 19.511719 10.894531 C 20.078125 10.652344 20.582031 10.292969 21.019531 9.8125 L 21.292969 9.8125 C 21.144531 10.304688 20.921875 10.773438 20.625 11.21875 C 20.332031 11.664062 19.984375 12.074219 19.574219 12.449219 C 19.164062 12.816406 18.703125 13.140625 18.199219 13.425781 C 17.691406 13.710938 17.152344 13.9375 16.582031 14.105469 C 16.417969 14.160156 16.273438 14.210938 16.15625 14.261719 C 16.039062 14.308594 15.945312 14.363281 15.875 14.425781 C 15.792969 14.488281 15.726562 14.566406 15.675781 14.65625 C 15.636719 14.746094 15.613281 14.851562 15.613281 14.96875 C 15.613281 15.183594 15.691406 15.359375 15.84375 15.5 C 15.996094 15.640625 16.195312 15.707031 16.4375 15.707031 C 16.597656 15.707031 16.75 15.691406 16.894531 15.65625 C 17.046875 15.621094 17.234375 15.570312 17.457031 15.5 C 18.171875 15.265625 18.847656 14.949219 19.480469 14.550781 C 20.117188 14.148438 20.683594 13.683594 21.175781 13.15625 C 21.886719 12.425781 22.441406 11.578125 22.84375 10.613281 C 23.253906 9.648438 23.457031 8.589844 23.457031 7.4375 C 23.457031 6.140625 23.210938 5.03125 22.71875 4.113281 C 22.226562 3.191406 21.570312 2.484375 20.75 2 C 19.9375 1.515625 19.046875 1.269531 18.074219 1.269531 C 17.113281 1.269531 16.257812 1.492188 15.5 1.9375 C 14.742188 2.382812 14.140625 2.984375 13.699219 3.738281 C 13.261719 4.488281 13.042969 5.335938 13.042969 6.28125 Z M 13.042969 6.28125 "/>
</g>
</svg>
