<svg width="139" height="130" viewBox="0 0 139 130" fill="none" xmlns="http://www.w3.org/2000/svg">
<path d="M39.375 129.562C40.9167 129.562 42.3333 129.146 43.625 128.312C44.9167 127.479 46.5 126.229 48.375 124.562L69.9375 105.375H110.062C116.271 105.375 121.5 104.271 125.75 102.062C130 99.8125 133.208 96.5625 135.375 92.3125C137.583 88.0625 138.688 82.875 138.688 76.75V28.875C138.688 22.75 137.583 17.5625 135.375 13.3125C133.208 9.0625 130 5.83333 125.75 3.625C121.5 1.375 116.271 0.25 110.062 0.25H29.5625C23.3542 0.25 18.125 1.375 13.875 3.625C9.625 5.83333 6.39583 9.0625 4.1875 13.3125C2.02083 17.5625 0.9375 22.75 0.9375 28.875V76.75C0.9375 82.875 2.02083 88.0625 4.1875 92.3125C6.39583 96.5625 9.625 99.8125 13.875 102.062C18.125 104.271 23.3542 105.375 29.5625 105.375H32.5625V121.625C32.5625 124.042 33.1458 125.958 34.3125 127.375C35.5208 128.833 37.2083 129.562 39.375 129.562ZM41.9375 118.125V100C41.9375 98.2917 41.5833 97.0833 40.875 96.375C40.1667 95.6667 38.9583 95.3125 37.25 95.3125H29.5625C23.2292 95.3125 18.5417 93.75 15.5 90.625C12.5 87.4583 11 82.8125 11 76.6875V28.875C11 22.7917 12.5 18.1875 15.5 15.0625C18.5417 11.8958 23.2292 10.3125 29.5625 10.3125H110.062C116.354 10.3125 121.021 11.8958 124.062 15.0625C127.104 18.1875 128.625 22.7917 128.625 28.875V76.6875C128.625 82.8125 127.104 87.4583 124.062 90.625C121.021 93.75 116.354 95.3125 110.062 95.3125H69.5625C67.8125 95.3125 66.3958 95.5 65.3125 95.875C64.2292 96.25 63.1042 97.0417 61.9375 98.25L41.9375 118.125ZM39.625 46.125C39.625 49.6667 40.6667 52.6667 42.75 55.125C44.8333 57.5417 47.6458 58.75 51.1875 58.75C52.4792 58.75 53.7292 58.6042 54.9375 58.3125C56.1875 57.9792 57.2083 57.2917 58 56.25H58.5C57.75 58 56.75 59.5208 55.5 60.8125C54.2917 62.1042 52.9583 63.1667 51.5 64C50.0833 64.8333 48.7083 65.4375 47.375 65.8125C46.2083 66.1042 45.4167 66.5208 45 67.0625C44.5833 67.5625 44.375 68.1875 44.375 68.9375C44.375 69.7292 44.6458 70.4167 45.1875 71C45.7708 71.5417 46.5208 71.8125 47.4375 71.8125C49.0208 71.8125 50.875 71.3333 53 70.375C55.125 69.4167 57.2083 67.9792 59.25 66.0625C61.3333 64.1458 63.0417 61.7292 64.375 58.8125C65.75 55.8542 66.4375 52.3958 66.4375 48.4375C66.4375 44.1875 65.1667 40.6458 62.625 37.8125C60.125 34.9375 56.8542 33.5 52.8125 33.5C49.0625 33.5 45.9167 34.6875 43.375 37.0625C40.875 39.3958 39.625 42.4167 39.625 46.125ZM73.375 46.125C73.375 49.6667 74.4167 52.6667 76.5 55.125C78.5833 57.5417 81.3958 58.75 84.9375 58.75C86.2292 58.75 87.4792 58.6042 88.6875 58.3125C89.9375 57.9792 90.9583 57.2917 91.75 56.25H92.25C91.5 58 90.5 59.5208 89.25 60.8125C88.0417 62.1042 86.7083 63.1667 85.25 64C83.8333 64.8333 82.4583 65.4375 81.125 65.8125C79.9583 66.1042 79.1667 66.5208 78.75 67.0625C78.3333 67.5625 78.125 68.1875 78.125 68.9375C78.125 69.7292 78.3958 70.4167 78.9375 71C79.5208 71.5417 80.2708 71.8125 81.1875 71.8125C82.7292 71.8125 84.5625 71.3333 86.6875 70.375C88.8542 69.4167 90.9583 67.9792 93 66.0625C95.0833 64.1458 96.7917 61.7292 98.125 58.8125C99.5 55.8542 100.188 52.3958 100.188 48.4375C100.188 44.1875 98.9167 40.6458 96.375 37.8125C93.875 34.9375 90.6042 33.5 86.5625 33.5C82.8125 33.5 79.6667 34.6875 77.125 37.0625C74.625 39.3958 73.375 42.4167 73.375 46.125Z" fill="white"/>
</svg>
