<svg xmlns="http://www.w3.org/2000/svg" width="24" height="24"><path style="stroke:none;fill-rule:nonzero;fill:#fff;fill-opacity:1" d="M6.926 23.922c.258 0 .496-.074.71-.219.216-.148.477-.367.79-.66l3.594-3.39h6.687c1.035 0 1.906-.192 2.617-.583a3.798 3.798 0 0 0 1.602-1.718c.37-.754.554-1.668.554-2.747V6.156c0-1.082-.183-2-.554-2.746a3.76 3.76 0 0 0-1.602-1.71c-.71-.4-1.582-.595-2.617-.595H5.293c-1.035 0-1.906.196-2.617.594A3.806 3.806 0 0 0 1.062 3.41C.704 4.156.52 5.074.52 6.156v8.45c0 1.078.183 1.992.542 2.746a3.884 3.884 0 0 0 1.614 1.718c.71.39 1.582.582 2.617.582h.5v2.868c0 .425.098.765.289 1.02.203.253.484.382.844.382Zm.43-2.02v-3.195c0-.3-.06-.516-.18-.64-.117-.126-.317-.188-.602-.188H5.293c-1.059 0-1.84-.277-2.344-.828-.5-.559-.75-1.38-.75-2.461V6.152c0-1.074.25-1.882.75-2.433.504-.559 1.285-.84 2.344-.84h13.414c1.05 0 1.828.281 2.336.84.504.55.758 1.36.758 2.433v8.442c0 1.078-.254 1.898-.758 2.457-.508.55-1.285.828-2.336.828h-6.75c-.289 0-.527.035-.707.101-.18.067-.367.204-.563.418ZM6.968 9.2c0 .625.172 1.153.52 1.586.347.426.816.64 1.406.64.214 0 .425-.027.625-.077a.92.92 0 0 0 .511-.364h.082c-.125.313-.289.579-.5.809a3.006 3.006 0 0 1-1.351.879c-.196.05-.328.125-.399.219a.53.53 0 0 0-.101.332c0 .14.043.261.133.363a.506.506 0 0 0 .375.144c.265 0 .574-.082.93-.25a3.99 3.99 0 0 0 1.038-.761c.348-.34.633-.766.856-1.281.23-.524.344-1.133.344-1.829 0-.754-.211-1.379-.637-1.879-.414-.503-.961-.761-1.633-.761-.625 0-1.152.21-1.574.629-.418.414-.625.945-.625 1.601Zm5.625 0c0 .625.172 1.153.52 1.586.347.426.816.64 1.406.64.214 0 .425-.027.625-.077a.92.92 0 0 0 .511-.364h.082c-.125.313-.289.579-.5.809a3.006 3.006 0 0 1-1.351.879c-.196.05-.328.125-.399.219a.53.53 0 0 0-.101.332c0 .14.043.261.133.363a.506.506 0 0 0 .375.144c.257 0 .562-.082.918-.25a3.91 3.91 0 0 0 1.05-.761c.348-.34.633-.766.856-1.281.23-.524.343-1.133.343-1.829 0-.754-.21-1.379-.636-1.879-.414-.503-.961-.761-1.633-.761-.625 0-1.152.21-1.574.629-.418.414-.625.945-.625 1.601Zm0 0"/></svg>