<svg width="18" height="12" viewBox="0 0 18 12" fill="none" xmlns="http://www.w3.org/2000/svg">
<path d="M0.398438 4.71094C0.398438 5.40365 0.554688 6.03385 0.867188 6.60156C1.17969 7.16406 1.60156 7.61198 2.13281 7.94531C2.66406 8.27865 3.26042 8.44531 3.92188 8.44531C4.38542 8.44531 4.83073 8.35417 5.25781 8.17188C5.6849 7.98958 6.0599 7.71875 6.38281 7.35938H6.59375C6.47917 7.72917 6.3099 8.08073 6.08594 8.41406C5.86719 8.7474 5.60417 9.05469 5.29688 9.33594C4.98958 9.61198 4.64583 9.85677 4.26562 10.0703C3.89062 10.2839 3.48958 10.4531 3.0625 10.5781C2.9375 10.6198 2.82812 10.6589 2.73438 10.6953C2.64583 10.7318 2.57552 10.7734 2.52344 10.8203C2.46094 10.8672 2.41406 10.9245 2.38281 10.9922C2.35156 11.0599 2.33594 11.138 2.33594 11.2266C2.33594 11.388 2.39062 11.5208 2.5 11.625C2.60938 11.7292 2.75521 11.7812 2.9375 11.7812C3.06771 11.7812 3.1875 11.7682 3.29688 11.7422C3.40625 11.7161 3.54688 11.6771 3.71875 11.625C4.25521 11.4479 4.76042 11.2109 5.23438 10.9141C5.71354 10.612 6.14062 10.263 6.51562 9.86719C7.03646 9.32031 7.44792 8.6849 7.75 7.96094C8.05729 7.23698 8.21094 6.44271 8.21094 5.57812C8.21094 4.60417 8.02604 3.77344 7.65625 3.08594C7.28646 2.39323 6.79427 1.86458 6.17969 1.5C5.57031 1.13542 4.90104 0.953125 4.17188 0.953125C3.45312 0.953125 2.8099 1.11979 2.24219 1.45312C1.67448 1.78646 1.22396 2.23698 0.890625 2.80469C0.5625 3.36719 0.398438 4.0026 0.398438 4.71094ZM9.78125 4.71094C9.78125 5.40365 9.9375 6.03385 10.25 6.60156C10.5625 7.16406 10.9844 7.61198 11.5156 7.94531C12.0469 8.27865 12.6432 8.44531 13.3047 8.44531C13.7682 8.44531 14.2109 8.35417 14.6328 8.17188C15.0599 7.98958 15.4375 7.71875 15.7656 7.35938H15.9688C15.8594 7.72917 15.6927 8.08073 15.4688 8.41406C15.25 8.7474 14.987 9.05469 14.6797 9.33594C14.3724 9.61198 14.0286 9.85677 13.6484 10.0703C13.2682 10.2839 12.8646 10.4531 12.4375 10.5781C12.3125 10.6198 12.2057 10.6589 12.1172 10.6953C12.0286 10.7318 11.9583 10.7734 11.9062 10.8203C11.8438 10.8672 11.7943 10.9245 11.7578 10.9922C11.7266 11.0599 11.7109 11.138 11.7109 11.2266C11.7109 11.388 11.7682 11.5208 11.8828 11.625C11.9974 11.7292 12.1458 11.7812 12.3281 11.7812C12.4479 11.7812 12.5625 11.7682 12.6719 11.7422C12.7865 11.7161 12.9271 11.6771 13.0938 11.625C13.6302 11.4479 14.1354 11.2109 14.6094 10.9141C15.0885 10.612 15.513 10.263 15.8828 9.86719C16.4141 9.32031 16.8307 8.6849 17.1328 7.96094C17.4401 7.23698 17.5938 6.44271 17.5938 5.57812C17.5938 4.60417 17.4089 3.77344 17.0391 3.08594C16.6693 2.39323 16.1771 1.86458 15.5625 1.5C14.9531 1.13542 14.2839 0.953125 13.5547 0.953125C12.8359 0.953125 12.1927 1.11979 11.625 1.45312C11.0573 1.78646 10.6068 2.23698 10.2734 2.80469C9.94531 3.36719 9.78125 4.0026 9.78125 4.71094Z" fill="white"/>
</svg>
