<?xml version="1.0" encoding="UTF-8"?>
<svg xmlns="http://www.w3.org/2000/svg" xmlns:xlink="http://www.w3.org/1999/xlink" width="24" height="28.5" viewBox="0 0 24 28.5" version="1.1">
<g id="surface1">
<path style=" stroke:none;fill-rule:nonzero;fill:rgb(100%,100%,100%);fill-opacity:1;" d="M 12 21.691406 C 13.875 21.691406 15.550781 21.496094 17.027344 21.105469 C 18.511719 20.714844 19.769531 20.171875 20.800781 19.476562 C 21.839844 18.78125 22.628906 17.980469 23.167969 17.074219 C 23.714844 16.160156 23.988281 15.179688 23.988281 14.132812 C 23.988281 13.09375 23.714844 12.117188 23.167969 11.203125 C 22.628906 10.289062 21.839844 9.488281 20.800781 8.800781 C 19.761719 8.105469 18.5 7.5625 17.015625 7.171875 C 15.539062 6.78125 13.863281 6.585938 11.988281 6.585938 C 10.121094 6.585938 8.445312 6.78125 6.960938 7.171875 C 5.484375 7.5625 4.226562 8.105469 3.1875 8.800781 C 2.15625 9.488281 1.367188 10.289062 0.820312 11.203125 C 0.28125 12.117188 0.0117188 13.09375 0.0117188 14.132812 C 0.0117188 15.179688 0.28125 16.160156 0.820312 17.074219 C 1.367188 17.980469 2.15625 18.78125 3.1875 19.476562 C 4.226562 20.171875 5.484375 20.714844 6.960938 21.105469 C 8.445312 21.496094 10.125 21.691406 12 21.691406 Z M 12 27.011719 C 13.421875 27.011719 14.53125 26.695312 15.328125 26.0625 C 16.132812 25.429688 16.535156 24.550781 16.535156 23.425781 L 16.535156 22.839844 C 15.824219 22.980469 15.089844 23.089844 14.332031 23.167969 C 13.582031 23.246094 12.804688 23.285156 12 23.285156 C 11.203125 23.285156 10.425781 23.246094 9.667969 23.167969 C 8.910156 23.089844 8.179688 22.980469 7.476562 22.839844 L 7.476562 23.425781 C 7.476562 24.550781 7.875 25.429688 8.671875 26.0625 C 9.46875 26.695312 10.578125 27.011719 12 27.011719 Z M 10.078125 17.742188 C 9.59375 17.742188 9.351562 17.472656 9.351562 16.933594 L 9.351562 11.226562 C 9.351562 10.671875 9.59375 10.394531 10.078125 10.394531 L 12.28125 10.394531 C 13.085938 10.394531 13.730469 10.613281 14.214844 11.050781 C 14.699219 11.480469 14.941406 12.058594 14.941406 12.785156 C 14.941406 13.261719 14.8125 13.6875 14.554688 14.0625 C 14.304688 14.4375 13.960938 14.714844 13.523438 14.894531 L 14.613281 16.59375 C 14.667969 16.679688 14.707031 16.765625 14.730469 16.851562 C 14.761719 16.929688 14.777344 17.015625 14.777344 17.109375 C 14.777344 17.304688 14.707031 17.464844 14.566406 17.589844 C 14.433594 17.707031 14.273438 17.765625 14.085938 17.765625 C 13.929688 17.765625 13.796875 17.730469 13.6875 17.660156 C 13.585938 17.582031 13.484375 17.460938 13.382812 17.296875 L 12.058594 15.140625 L 10.828125 15.140625 L 10.828125 16.933594 C 10.828125 17.175781 10.757812 17.371094 10.617188 17.519531 C 10.484375 17.667969 10.304688 17.742188 10.078125 17.742188 Z M 10.828125 13.992188 L 12.105469 13.992188 C 12.542969 13.992188 12.878906 13.890625 13.113281 13.6875 C 13.347656 13.476562 13.464844 13.183594 13.464844 12.808594 C 13.464844 12.433594 13.347656 12.136719 13.113281 11.917969 C 12.878906 11.699219 12.550781 11.589844 12.128906 11.589844 L 10.828125 11.589844 Z M 9.128906 1.828125 L 11.472656 4.96875 C 11.628906 5.1875 11.832031 5.296875 12.082031 5.296875 C 12.339844 5.296875 12.546875 5.1875 12.703125 4.96875 L 15.046875 1.828125 C 15.28125 1.515625 15.339844 1.199219 15.222656 0.878906 C 15.113281 0.558594 14.851562 0.398438 14.4375 0.398438 L 9.738281 0.398438 C 9.339844 0.398438 9.078125 0.558594 8.953125 0.878906 C 8.828125 1.191406 8.886719 1.507812 9.128906 1.828125 Z M 9.128906 1.828125 "/>
</g>
</svg>
