<svg xmlns="http://www.w3.org/2000/svg" width="24" height="24"><path style="stroke:none;fill-rule:nonzero;fill:#fff;fill-opacity:1" d="M10.91 19.68c1.031 0 2-.203 2.906-.61 1.801-.8 3.23-2.3 3.996-4.187.391-.945.59-1.961.59-3.043 0-1.086-.199-2.102-.59-3.047-.765-1.883-2.195-3.383-3.996-4.184a6.928 6.928 0 0 0-2.906-.617c-1-.012-1.988.2-2.906.617-.906.403-1.7.965-2.387 1.684a8.013 8.013 0 0 0-1.62 2.5c-.392.965-.587 2-.579 3.047 0 1.082.191 2.098.578 3.043a8.083 8.083 0 0 0 1.621 2.5 7.484 7.484 0 0 0 2.387 1.687 6.98 6.98 0 0 0 2.906.61Zm0-19.172C8.61.5 6.367 1.266 4.516 2.699a11.278 11.278 0 0 0-2.344 2.453A11.668 11.668 0 0 0 .094 11.84c0 1.25.183 2.441.547 3.582.355 1.11.87 2.156 1.53 3.105a11.097 11.097 0 0 0 2.345 2.453 10.375 10.375 0 0 0 6.394 2.192c1.188 0 2.317-.192 3.39-.574A10.336 10.336 0 0 0 17.267 21a10.892 10.892 0 0 0 2.343-2.445 11.287 11.287 0 0 0 1.543-3.082 1.636 1.636 0 0 1-1.328-.375 9.883 9.883 0 0 1-3.402 4.77 9.045 9.045 0 0 1-2.574 1.374c-.93.328-1.91.492-2.938.492-1.3 0-2.523-.257-3.664-.77a9.433 9.433 0 0 1-3.02-2.136 10.067 10.067 0 0 1-2.762-6.988A10.082 10.082 0 0 1 2.2 8a9.967 9.967 0 0 1 2.028-3.148 9.476 9.476 0 0 1 3.02-2.137 8.811 8.811 0 0 1 3.663-.766c1.031 0 2.016.164 2.95.492a8.871 8.871 0 0 1 2.574 1.383c.78.59 1.468 1.301 2.043 2.106a9.798 9.798 0 0 1 1.347 2.668 1.699 1.699 0 0 1 1.336-.375 11.114 11.114 0 0 0-1.531-3.086 11.202 11.202 0 0 0-2.352-2.45 10.424 10.424 0 0 0-2.968-1.605A9.988 9.988 0 0 0 10.91.508Zm10.48 9.078c-.23-.18-.464-.227-.699-.129-.226.094-.34.297-.34.598v3.582c0 .312.118.515.352.605.23.082.461.035.688-.144l2.285-1.786a.561.561 0 0 0 .23-.464.546.546 0 0 0-.23-.473ZM8.77 15.852c-.215 0-.38-.075-.493-.22-.109-.144-.164-.331-.164-.566V8.562c0-.238.055-.425.164-.57.114-.152.274-.226.485-.226h2.402c.848 0 1.52.238 2.02.71.5.461.75 1.086.75 1.872 0 .543-.149 1.027-.442 1.453-.289.426-.68.722-1.168.886l1.242 2.051c.098.168.149.336.149.516a.562.562 0 0 1-.172.422.552.552 0 0 1-.426.172.637.637 0 0 1-.375-.098 1.306 1.306 0 0 1-.3-.367l-1.438-2.488H9.44v2.168c0 .242-.054.437-.168.582-.113.136-.28.203-.503.203Zm.671-3.98h1.528c.5 0 .898-.134 1.191-.388.297-.261.445-.632.445-1.101 0-.492-.148-.871-.445-1.133-.293-.266-.68-.402-1.156-.402H9.44Zm0 0"/></svg>