<svg width="175" height="160" viewBox="0 0 175 160" fill="none" xmlns="http://www.w3.org/2000/svg">
<path d="M95.5 134.75C103.083 134.75 110.188 133.333 116.812 130.5C123.438 127.667 129.271 123.729 134.312 118.688C139.354 113.646 143.292 107.812 146.125 101.188C149 94.5625 150.438 87.4583 150.438 79.875C150.438 72.2917 149 65.1875 146.125 58.5625C143.292 51.8958 139.354 46.0625 134.312 41.0625C129.271 36.0208 123.438 32.0833 116.812 29.25C110.188 26.375 103.083 24.9375 95.5 24.9375C87.9167 24.9375 80.8125 26.375 74.1875 29.25C67.5625 32.0833 61.7292 36.0208 56.6875 41.0625C51.6458 46.0625 47.6875 51.8958 44.8125 58.5625C41.9792 65.1875 40.5625 72.2917 40.5625 79.875C40.5625 87.4583 41.9792 94.5625 44.8125 101.188C47.6875 107.812 51.6458 113.646 56.6875 118.688C61.7292 123.729 67.5625 127.667 74.1875 130.5C80.8125 133.333 87.9167 134.75 95.5 134.75ZM95.5 0.5625C86.75 0.5625 78.4167 1.89583 70.5 4.5625C62.625 7.1875 55.375 10.9375 48.75 15.8125C42.1667 20.6458 36.4375 26.3542 31.5625 32.9375C26.6875 39.5208 22.9375 46.7292 20.3125 54.5625C22.1042 54.3125 23.8542 54.4167 25.5625 54.875C27.2708 55.3333 28.7917 56.1042 30.125 57.1875C32.4583 50.3958 35.75 44.1667 40 38.5C44.25 32.8333 49.2292 27.9167 54.9375 23.75C60.6875 19.5417 66.9792 16.3125 73.8125 14.0625C80.6875 11.7708 87.9167 10.625 95.5 10.625C105.042 10.625 114 12.4167 122.375 16C130.75 19.5833 138.104 24.5625 144.438 30.9375C150.812 37.2708 155.792 44.625 159.375 53C162.958 61.3333 164.75 70.2917 164.75 79.875C164.75 89.4167 162.958 98.375 159.375 106.75C155.792 115.125 150.812 122.479 144.438 128.812C138.104 135.188 130.75 140.167 122.375 143.75C114 147.333 105.042 149.125 95.5 149.125C87.9583 149.125 80.75 147.979 73.875 145.688C67.0417 143.438 60.75 140.229 55 136.062C49.2917 131.896 44.3125 126.979 40.0625 121.312C35.8125 115.646 32.5 109.438 30.125 102.688C28.8333 103.771 27.3333 104.542 25.625 105C23.9167 105.458 22.1667 105.562 20.375 105.312C23.0417 113.146 26.7917 120.333 31.625 126.875C36.5 133.458 42.2292 139.167 48.8125 144C55.4375 148.833 62.6875 152.562 70.5625 155.188C78.4792 157.854 86.7917 159.188 95.5 159.188C104.25 159.188 112.583 157.854 120.5 155.188C128.458 152.521 135.729 148.75 142.312 143.875C148.938 139.042 154.667 133.312 159.5 126.688C164.375 120.104 168.146 112.854 170.812 104.938C173.479 96.9792 174.812 88.625 174.812 79.875C174.812 71.125 173.479 62.7917 170.812 54.875C168.146 46.9167 164.375 39.6458 159.5 33.0625C154.667 26.4375 148.938 20.7083 142.312 15.875C135.729 11 128.458 7.22917 120.5 4.5625C112.583 1.89583 104.25 0.5625 95.5 0.5625ZM18.625 64.125L1.875 76.625C0.708333 77.4583 0.145833 78.5625 0.1875 79.9375C0.1875 81.2708 0.75 82.3542 1.875 83.1875L18.625 95.6875C20.2917 96.9375 21.9792 97.2708 23.6875 96.6875C25.3958 96.0625 26.25 94.6458 26.25 92.4375V67.375C26.25 65.25 25.3958 63.8542 23.6875 63.1875C22.0208 62.5208 20.3333 62.8333 18.625 64.125ZM79.8125 107.938C78.2292 107.938 77.0208 107.438 76.1875 106.438C75.3958 105.438 75 104.104 75 102.438V56.9375C75 55.2708 75.3958 53.9375 76.1875 52.9375C77.0208 51.8958 78.2083 51.375 79.75 51.375H97.375C103.583 51.375 108.521 53.0208 112.188 56.3125C115.854 59.5625 117.688 63.9375 117.688 69.4375C117.688 73.2292 116.604 76.625 114.438 79.625C112.312 82.5833 109.458 84.6458 105.875 85.8125L115 100.188C115.708 101.354 116.062 102.542 116.062 103.75C116.062 104.958 115.646 105.958 114.812 106.75C114.021 107.542 112.979 107.938 111.688 107.938C110.562 107.938 109.646 107.708 108.938 107.25C108.229 106.75 107.5 105.896 106.75 104.688L96.1875 87.25H84.75V102.438C84.75 104.146 84.3333 105.5 83.5 106.5C82.6667 107.458 81.4375 107.938 79.8125 107.938ZM84.75 80.0625H95.9375C99.6042 80.0625 102.521 79.1667 104.688 77.375C106.854 75.5417 107.938 72.9792 107.938 69.6875C107.938 66.2292 106.854 63.5833 104.688 61.75C102.521 59.875 99.6875 58.9375 96.1875 58.9375H84.75V80.0625Z" fill="white"/>
</svg>
