<svg width="130" height="112" viewBox="0 0 130 112" fill="none" xmlns="http://www.w3.org/2000/svg">
<path d="M64.625 84.5625C74.375 84.5625 83.2083 83.5417 91.125 81.5C99.0417 79.4583 105.812 76.5625 111.438 72.8125C117.104 69.0625 121.458 64.625 124.5 59.5C127.542 54.3333 129.062 48.625 129.062 42.375C129.062 36.1667 127.542 30.5 124.5 25.375C121.458 20.2083 117.104 15.75 111.438 12C105.771 8.25 98.9792 5.35417 91.0625 3.3125C83.1458 1.27083 74.3125 0.25 64.5625 0.25C54.8125 0.25 45.9792 1.27083 38.0625 3.3125C30.1875 5.35417 23.4167 8.25 17.75 12C12.125 15.75 7.79167 20.2083 4.75 25.375C1.70833 30.5 0.1875 36.1667 0.1875 42.375C0.1875 48.625 1.70833 54.3333 4.75 59.5C7.79167 64.625 12.125 69.0625 17.75 72.8125C23.4167 76.5625 30.2083 79.4583 38.125 81.5C46.0417 83.5417 54.875 84.5625 64.625 84.5625ZM64.625 73.8125C54.0417 73.8125 44.75 72.5 36.75 69.875C28.7917 67.2083 22.5833 63.5208 18.125 58.8125C13.7083 54.1042 11.5 48.625 11.5 42.375C11.5 36.1667 13.7083 30.7083 18.125 26C22.5833 21.25 28.7917 17.5625 36.75 14.9375C44.7083 12.3125 53.9792 11 64.5625 11C75.1458 11 84.4375 12.3125 92.4375 14.9375C100.438 17.5625 106.646 21.25 111.062 26C115.521 30.7083 117.75 36.1667 117.75 42.375C117.75 48.625 115.521 54.1042 111.062 58.8125C106.646 63.5208 100.438 67.2083 92.4375 69.875C84.4792 72.5 75.2083 73.8125 64.625 73.8125ZM64.625 111.062C72.2083 111.062 78.125 109.375 82.375 106C86.6667 102.625 88.8125 97.9375 88.8125 91.9375V89.4375C85.1042 90.2292 81.2292 90.8333 77.1875 91.25C73.1458 91.625 68.9583 91.8125 64.625 91.8125C60.2917 91.8125 56.1042 91.625 52.0625 91.25C48.0625 90.8333 44.2083 90.2292 40.5 89.4375V91.9375C40.5 97.9375 42.625 102.625 46.875 106C51.125 109.375 57.0417 111.062 64.625 111.062ZM54.1875 61.0625C55.3958 61.0625 56.3333 60.6875 57 59.9375C57.7083 59.1458 58.0625 58.125 58.0625 56.875V47.5625H64.4375L71.3125 58.75C71.8542 59.625 72.3958 60.25 72.9375 60.625C73.4792 60.9583 74.1458 61.125 74.9375 61.125C75.8958 61.125 76.7292 60.8125 77.4375 60.1875C78.1458 59.5625 78.5 58.75 78.5 57.75C78.5 57.25 78.4167 56.7917 78.25 56.375C78.125 55.9583 77.9167 55.5417 77.625 55.125L72 46.3125C74.2917 45.3958 76.0833 43.9583 77.375 42C78.6667 40.0417 79.3125 37.8333 79.3125 35.375C79.3125 31.625 78.0625 28.6458 75.5625 26.4375C73.0625 24.1875 69.75 23.0625 65.625 23.0625H54.1875C51.7292 23.0625 50.5 24.4792 50.5 27.3125V56.875C50.5 59.6667 51.7292 61.0625 54.1875 61.0625ZM58.0625 41.625V29.1875H64.8125C66.9792 29.1875 68.6667 29.75 69.875 30.875C71.125 32 71.75 33.5417 71.75 35.5C71.75 37.4583 71.125 38.9792 69.875 40.0625C68.6667 41.1042 66.9375 41.625 64.6875 41.625H58.0625Z" fill="white"/>
</svg>
