<svg width="16" height="15" viewBox="0 0 16 15" fill="none" xmlns="http://www.w3.org/2000/svg">
<path d="M3.25781 14.5625H12.7344C13.5521 14.5625 14.1641 14.3594 14.5703 13.9531C14.9818 13.5521 15.1875 12.9479 15.1875 12.1406V2.60156C15.1875 1.79427 14.9818 1.1901 14.5703 0.789062C14.1641 0.382812 13.5521 0.179688 12.7344 0.179688H3.25781C2.4401 0.179688 1.82552 0.382812 1.41406 0.789062C1.00781 1.1901 0.804688 1.79427 0.804688 2.60156V12.1406C0.804688 12.9479 1.00781 13.5521 1.41406 13.9531C1.82552 14.3594 2.4401 14.5625 3.25781 14.5625ZM3.27344 13.3047C2.88281 13.3047 2.58333 13.2031 2.375 13C2.16667 12.7917 2.0625 12.4844 2.0625 12.0781V2.66406C2.0625 2.25781 2.16667 1.95312 2.375 1.75C2.58333 1.54167 2.88281 1.4375 3.27344 1.4375H12.7188C13.1042 1.4375 13.401 1.54167 13.6094 1.75C13.8229 1.95312 13.9297 2.25781 13.9297 2.66406V12.0781C13.9297 12.4844 13.8229 12.7917 13.6094 13C13.401 13.2031 13.1042 13.3047 12.7188 13.3047H3.27344ZM6 10.9375C6.20312 10.9375 6.35677 10.8776 6.46094 10.7578C6.57031 10.6328 6.625 10.4609 6.625 10.2422V8.29688H8.08594L9.4375 10.5234C9.53125 10.6745 9.6224 10.7812 9.71094 10.8438C9.80469 10.9062 9.92188 10.9375 10.0625 10.9375C10.2292 10.9375 10.3646 10.888 10.4688 10.7891C10.5729 10.6901 10.625 10.5625 10.625 10.4062C10.625 10.2552 10.5781 10.1042 10.4844 9.95312L9.3125 8.11719C9.77083 7.96615 10.138 7.70052 10.4141 7.32031C10.6901 6.9401 10.8281 6.50781 10.8281 6.02344C10.8281 5.32031 10.5938 4.76302 10.125 4.35156C9.66146 3.9349 9.03125 3.72656 8.23438 3.72656H5.99219C5.79427 3.72656 5.64323 3.79167 5.53906 3.92188C5.4349 4.05208 5.38281 4.22135 5.38281 4.42969V10.2422C5.38281 10.4505 5.4349 10.6198 5.53906 10.75C5.64323 10.875 5.79688 10.9375 6 10.9375ZM6.625 7.38281V4.67969H8.08594C8.53385 4.67969 8.89583 4.79948 9.17188 5.03906C9.44792 5.27865 9.58594 5.61719 9.58594 6.05469C9.58594 6.48177 9.44792 6.8099 9.17188 7.03906C8.90104 7.26823 8.52865 7.38281 8.05469 7.38281H6.625Z" fill="white"/>
</svg>
