<svg xmlns="http://www.w3.org/2000/svg" width="24" height="24"><path style="stroke:none;fill-rule:nonzero;fill:#fff;fill-opacity:1" d="M9.3 23.36h10.462c1.09 0 1.906-.286 2.445-.86.543-.566.813-1.418.813-2.559V8.781c0-1.133-.27-1.98-.813-2.547-.539-.574-1.355-.863-2.445-.863h-2.649v1.777h2.617c.52 0 .918.149 1.196.442.277.285.418.715.418 1.289v10.973c0 .574-.14 1.007-.418 1.293-.278.293-.676.44-1.196.44H9.324c-.515 0-.914-.148-1.199-.44-.277-.286-.418-.72-.418-1.293v-2.426H6.031v2.515c0 1.141.27 1.993.813 2.559.547.574 1.367.86 2.457.86Zm-5.05-5.11h10.457c1.09 0 1.906-.277 2.45-.844.542-.578.812-1.433.812-2.57V3.684c0-1.141-.27-1.993-.813-2.559-.543-.574-1.36-.86-2.449-.86H4.25c-1.09 0-1.91.286-2.457.86C1.25 1.691.98 2.543.98 3.684v11.152c0 1.137.27 1.992.813 2.566.547.57 1.367.848 2.457.848Zm.02-1.773c-.512 0-.91-.145-1.196-.43-.277-.293-.418-.727-.418-1.3V3.77c0-.57.14-1.004.418-1.29.285-.292.684-.44 1.196-.44h10.406c.523 0 .922.147 1.199.44.277.29.418.72.418 1.293v10.973c0 .574-.14 1.008-.418 1.3-.277.286-.676.43-1.2.43Zm2.543-2.16c.269 0 .476-.087.613-.255.148-.18.219-.417.219-.726V10.59h1.949l1.8 3.14c.126.215.247.368.368.454a.78.78 0 0 0 .468.132c.2.008.391-.066.54-.207.14-.14.214-.34.21-.543 0-.214-.062-.425-.187-.64l-1.563-2.59c.59-.2 1.106-.594 1.47-1.125.366-.54.55-1.149.55-1.832 0-.992-.313-1.777-.938-2.36-.617-.59-1.457-.882-2.519-.882H6.801c-.262 0-.465.09-.602.277-.14.18-.21.422-.21.715v8.207c0 .293.07.531.21.715.137.176.344.265.614.265Zm.832-5.02V5.48h1.949c.597 0 1.078.168 1.449.508.367.34.55.817.55 1.438 0 .597-.183 1.062-.55 1.386-.363.325-.86.485-1.492.485Zm0 0"/></svg>