<svg width="16" height="15" viewBox="0 0 16 15" fill="none" xmlns="http://www.w3.org/2000/svg">
<path d="M3.25781 14.5625H12.7344C13.5521 14.5625 14.1641 14.3594 14.5703 13.9531C14.9818 13.5521 15.1875 12.9479 15.1875 12.1406V2.60156C15.1875 1.79427 14.9818 1.1901 14.5703 0.789062C14.1641 0.382812 13.5521 0.179688 12.7344 0.179688H3.25781C2.4401 0.179688 1.82552 0.382812 1.41406 0.789062C1.00781 1.1901 0.804688 1.79427 0.804688 2.60156V12.1406C0.804688 12.9479 1.00781 13.5521 1.41406 13.9531C1.82552 14.3594 2.4401 14.5625 3.25781 14.5625ZM5.92969 11.0547C5.72135 11.0547 5.5625 10.9896 5.45312 10.8594C5.34896 10.724 5.29688 10.5469 5.29688 10.3281V4.34375C5.29688 4.125 5.34896 3.94792 5.45312 3.8125C5.5625 3.67708 5.71875 3.60938 5.92188 3.60938H8.24219C9.0599 3.60938 9.70833 3.82552 10.1875 4.25781C10.6719 4.6849 10.9141 5.26042 10.9141 5.98438C10.9141 6.48438 10.7734 6.92969 10.4922 7.32031C10.2109 7.71094 9.83333 7.98438 9.35938 8.14062L10.5625 10.0312C10.6562 10.1875 10.7031 10.3438 10.7031 10.5C10.7031 10.6615 10.6484 10.7943 10.5391 10.8984C10.4349 11.0026 10.2969 11.0547 10.125 11.0547C9.97917 11.0547 9.85938 11.0234 9.76562 10.9609C9.67188 10.8932 9.57552 10.7812 9.47656 10.625L8.08594 8.32812H6.57812V10.3281C6.57812 10.5521 6.52344 10.7292 6.41406 10.8594C6.30469 10.9896 6.14323 11.0547 5.92969 11.0547ZM6.57812 7.38281H8.05469C8.53906 7.38281 8.92188 7.26562 9.20312 7.03125C9.48958 6.79167 9.63281 6.45312 9.63281 6.01562C9.63281 5.5625 9.48958 5.21354 9.20312 4.96875C8.91667 4.72396 8.54427 4.60156 8.08594 4.60156H6.57812V7.38281Z" fill="white"/>
</svg>
