<svg width="152" height="116" viewBox="0 0 152 116" fill="none" xmlns="http://www.w3.org/2000/svg">
<path d="M53.9375 0.4375C41.5208 0.4375 31.3542 2.35417 23.4375 6.1875C15.5208 9.97917 9.66667 15.7292 5.875 23.4375C2.08333 31.1458 0.1875 40.8333 0.1875 52.5V96.125C0.1875 102.583 1.8125 107.417 5.0625 110.625C8.35417 113.875 13.2708 115.5 19.8125 115.5H131.688C138.229 115.5 143.125 113.875 146.375 110.625C149.667 107.417 151.312 102.583 151.312 96.125V52.5C151.312 40.8333 149.417 31.1458 145.625 23.4375C141.875 15.7292 136.021 9.97917 128.062 6.1875C120.146 2.35417 110 0.4375 97.625 0.4375H53.9375ZM53.9375 10.625H97.5625C107.688 10.625 115.958 12.125 122.375 15.125C128.833 18.0833 133.583 22.625 136.625 28.75C139.708 34.875 141.25 42.6042 141.25 51.9375V95.625C141.25 98.875 140.396 101.333 138.688 103C137.021 104.625 134.646 105.438 131.562 105.438H19.9375C13.4792 105.438 10.25 102.167 10.25 95.625V51.9375C10.25 42.6042 11.7708 34.875 14.8125 28.75C17.8958 22.625 22.6458 18.0833 29.0625 15.125C35.5208 12.125 43.8125 10.625 53.9375 10.625ZM36.75 86.8125C38.375 86.8125 39.625 86.3333 40.5 85.375C41.375 84.375 41.8125 83 41.8125 81.25V65.6875H53.4375L64.25 83.5C65 84.7083 65.7292 85.5625 66.4375 86.0625C67.1875 86.5625 68.125 86.8125 69.25 86.8125C70.5833 86.8125 71.6667 86.4167 72.5 85.625C73.375 84.8333 73.8125 83.8125 73.8125 82.5625C73.8125 81.3542 73.4167 80.1458 72.625 78.9375L63.25 64.25C66.9167 63.0417 69.8542 60.9167 72.0625 57.875C74.2708 54.8333 75.375 51.375 75.375 47.5C75.375 41.875 73.5 37.4167 69.75 34.125C66.0417 30.7917 61 29.125 54.625 29.125H36.6875C35.1042 29.125 33.8958 29.6458 33.0625 30.6875C32.2292 31.7292 31.8125 33.0833 31.8125 34.75V81.25C31.8125 82.9167 32.2292 84.2708 33.0625 85.3125C33.8958 86.3125 35.125 86.8125 36.75 86.8125ZM41.8125 58.375V36.75H53.4375C57.0208 36.75 59.9167 37.7083 62.125 39.625C64.375 41.5417 65.5 44.25 65.5 47.75C65.5 51.1667 64.3958 53.7917 62.1875 55.625C59.9792 57.4583 56.9792 58.375 53.1875 58.375H41.8125ZM87.9375 86.0625H119.5C120.708 86.0625 121.688 85.7083 122.438 85C123.229 84.25 123.625 83.25 123.625 82C123.625 80.7083 123.229 79.7083 122.438 79C121.688 78.25 120.708 77.875 119.5 77.875H97.3125V77.4375L112.125 62.0625C114.917 59.1458 117.188 56.3125 118.938 53.5625C120.688 50.8125 121.562 47.7083 121.562 44.25C121.562 39.4583 119.792 35.625 116.25 32.75C112.75 29.8333 108.125 28.375 102.375 28.375C97.9167 28.375 93.9167 29.5833 90.375 32C86.875 34.375 84.625 37.3125 83.625 40.8125C83.5 41.2708 83.3958 41.7083 83.3125 42.125C83.2708 42.5 83.25 42.8958 83.25 43.3125C83.25 44.5208 83.625 45.5 84.375 46.25C85.125 46.9583 86.1042 47.3125 87.3125 47.3125C88.4375 47.3125 89.3125 47.0208 89.9375 46.4375C90.6042 45.8125 91.2083 45.0417 91.75 44.125C92.625 42.25 93.9167 40.4792 95.625 38.8125C97.375 37.1458 99.7708 36.3125 102.812 36.3125C105.771 36.3125 108.146 37.1042 109.938 38.6875C111.771 40.2708 112.688 42.3542 112.688 44.9375C112.688 47.2292 111.896 49.375 110.312 51.375C108.729 53.3333 107.021 55.2917 105.188 57.25L85.1875 78.3125C84.6458 78.8958 84.2292 79.5 83.9375 80.125C83.6875 80.7083 83.5625 81.3333 83.5625 82C83.5625 83.25 83.9375 84.25 84.6875 85C85.4792 85.7083 86.5625 86.0625 87.9375 86.0625Z" fill="white"/>
</svg>
