<svg width="152" height="116" viewBox="0 0 152 116" fill="none" xmlns="http://www.w3.org/2000/svg">
<path d="M53.9375 115.5H97.625C110 115.5 120.146 113.583 128.062 109.75C136.021 105.958 141.875 100.208 145.625 92.5C149.417 84.7917 151.312 75.0833 151.312 63.375V19.8125C151.312 13.3542 149.667 8.52083 146.375 5.3125C143.125 2.0625 138.229 0.4375 131.688 0.4375H19.8125C13.2708 0.4375 8.35417 2.0625 5.0625 5.3125C1.8125 8.52083 0.1875 13.3542 0.1875 19.8125V63.375C0.1875 75.0833 2.08333 84.7917 5.875 92.5C9.66667 100.208 15.5208 105.958 23.4375 109.75C31.3542 113.583 41.5208 115.5 53.9375 115.5ZM53.9375 105.312C43.8125 105.312 35.5208 103.812 29.0625 100.812C22.6458 97.8125 17.8958 93.2708 14.8125 87.1875C11.7708 81.0625 10.25 73.3333 10.25 64V20.3125C10.25 13.7708 13.4792 10.5 19.9375 10.5H131.562C134.646 10.5 137.021 11.3333 138.688 13C140.396 14.625 141.25 17.0625 141.25 20.3125V64C141.25 73.3333 139.708 81.0625 136.625 87.1875C133.583 93.2708 128.833 97.8125 122.375 100.812C115.958 103.812 107.688 105.312 97.5625 105.312H53.9375ZM34.3125 86.6875C35.9375 86.6875 37.1875 86.2083 38.0625 85.25C38.9375 84.25 39.375 82.875 39.375 81.125V65.5625H51L61.8125 83.375C62.5625 84.5833 63.2917 85.4375 64 85.9375C64.75 86.4375 65.6875 86.6875 66.8125 86.6875C68.1458 86.6875 69.2292 86.2917 70.0625 85.5C70.9375 84.7083 71.375 83.6875 71.375 82.4375C71.375 81.2292 70.9792 80.0208 70.1875 78.8125L60.8125 64.125C64.4792 62.9167 67.4167 60.7917 69.625 57.75C71.8333 54.7083 72.9375 51.25 72.9375 47.375C72.9375 41.75 71.0625 37.2917 67.3125 34C63.6042 30.6667 58.5625 29 52.1875 29H34.25C32.6667 29 31.4583 29.5208 30.625 30.5625C29.7917 31.6042 29.375 32.9583 29.375 34.625V81.125C29.375 82.7917 29.7917 84.1458 30.625 85.1875C31.4583 86.1875 32.6875 86.6875 34.3125 86.6875ZM39.375 58.25V36.625H51C54.5833 36.625 57.4792 37.5833 59.6875 39.5C61.9375 41.4167 63.0625 44.125 63.0625 47.625C63.0625 51.0417 61.9583 53.6667 59.75 55.5C57.5417 57.3333 54.5417 58.25 50.75 58.25H39.375ZM88.3125 86.0625H106.562C113.021 86.0625 118.167 84.625 122 81.75C125.875 78.8333 127.812 74.9167 127.812 70C127.812 66.1667 126.604 63 124.188 60.5C121.812 58 118.562 56.5 114.438 56V55.625C117.521 54.875 119.958 53.375 121.75 51.125C123.542 48.8333 124.438 46.125 124.438 43C124.438 38.7083 122.812 35.2917 119.562 32.75C116.354 30.1667 112.062 28.875 106.688 28.875H88.3125C84.6458 28.875 82.8125 30.75 82.8125 34.5V80.5C82.8125 84.2083 84.6458 86.0625 88.3125 86.0625ZM92.5 53.1875V36.25H104.688C107.854 36.25 110.333 37 112.125 38.5C113.958 39.9583 114.875 41.9792 114.875 44.5625C114.875 47.3125 113.75 49.4375 111.5 50.9375C109.292 52.4375 106.083 53.1875 101.875 53.1875H92.5ZM92.5 78.6875V60.0625H105.75C109.583 60.0625 112.562 60.8958 114.688 62.5625C116.812 64.2292 117.875 66.5625 117.875 69.5625C117.875 75.6458 112.812 78.6875 102.688 78.6875H92.5Z" fill="white"/>
</svg>
