<?xml version="1.0" encoding="UTF-8"?>
<svg xmlns="http://www.w3.org/2000/svg" xmlns:xlink="http://www.w3.org/1999/xlink" width="24" height="11" viewBox="0 0 24 11" version="1.1">
<g id="surface1">
<path style=" stroke:none;fill-rule:nonzero;fill:rgb(100%,100%,100%);fill-opacity:1;" d="M 0.382812 5.359375 C 0.382812 6.0625 0.511719 6.722656 0.773438 7.335938 C 1.039062 7.949219 1.402344 8.492188 1.867188 8.960938 C 2.335938 9.429688 2.878906 9.796875 3.492188 10.0625 C 4.113281 10.324219 4.773438 10.453125 5.476562 10.453125 L 18.515625 10.453125 C 19.21875 10.453125 19.878906 10.324219 20.492188 10.0625 C 21.113281 9.796875 21.652344 9.429688 22.117188 8.960938 C 22.585938 8.492188 22.949219 7.949219 23.210938 7.335938 C 23.476562 6.722656 23.609375 6.0625 23.609375 5.359375 C 23.609375 4.65625 23.476562 3.996094 23.210938 3.382812 C 22.949219 2.761719 22.585938 2.222656 22.117188 1.757812 C 21.652344 1.289062 21.113281 0.925781 20.492188 0.664062 C 19.878906 0.398438 19.21875 0.265625 18.515625 0.265625 C 17.8125 0.265625 17.152344 0.398438 16.539062 0.664062 C 15.925781 0.925781 15.382812 1.289062 14.914062 1.757812 C 14.445312 2.222656 14.078125 2.761719 13.8125 3.382812 C 13.550781 3.996094 13.421875 4.65625 13.421875 5.359375 C 13.421875 5.859375 13.492188 6.339844 13.632812 6.804688 C 13.777344 7.261719 13.980469 7.6875 14.242188 8.078125 C 14.503906 8.46875 14.816406 8.816406 15.179688 9.117188 L 8.8125 9.117188 C 9.175781 8.816406 9.488281 8.46875 9.75 8.078125 C 10.011719 7.6875 10.210938 7.261719 10.351562 6.804688 C 10.496094 6.339844 10.570312 5.859375 10.570312 5.359375 C 10.570312 4.65625 10.4375 3.996094 10.171875 3.382812 C 9.910156 2.761719 9.546875 2.222656 9.078125 1.757812 C 8.609375 1.289062 8.066406 0.925781 7.453125 0.664062 C 6.839844 0.398438 6.179688 0.265625 5.476562 0.265625 C 4.773438 0.265625 4.113281 0.398438 3.492188 0.664062 C 2.878906 0.925781 2.335938 1.289062 1.867188 1.757812 C 1.402344 2.222656 1.039062 2.761719 0.773438 3.382812 C 0.511719 3.996094 0.382812 4.65625 0.382812 5.359375 Z M 1.71875 5.351562 C 1.71875 4.832031 1.816406 4.34375 2.007812 3.890625 C 2.207031 3.4375 2.476562 3.039062 2.820312 2.695312 C 3.164062 2.351562 3.5625 2.082031 4.015625 1.890625 C 4.472656 1.691406 4.964844 1.59375 5.484375 1.59375 C 6 1.59375 6.484375 1.691406 6.9375 1.890625 C 7.394531 2.082031 7.796875 2.351562 8.140625 2.695312 C 8.484375 3.039062 8.753906 3.4375 8.945312 3.890625 C 9.136719 4.34375 9.234375 4.832031 9.234375 5.351562 C 9.234375 5.871094 9.136719 6.359375 8.945312 6.8125 C 8.753906 7.265625 8.484375 7.667969 8.140625 8.015625 C 7.796875 8.359375 7.394531 8.628906 6.9375 8.828125 C 6.484375 9.019531 6 9.117188 5.484375 9.117188 C 4.964844 9.117188 4.472656 9.019531 4.015625 8.828125 C 3.5625 8.628906 3.164062 8.359375 2.820312 8.015625 C 2.476562 7.667969 2.207031 7.265625 2.007812 6.8125 C 1.816406 6.359375 1.71875 5.871094 1.71875 5.351562 Z M 14.757812 5.351562 C 14.757812 4.832031 14.855469 4.34375 15.046875 3.890625 C 15.238281 3.4375 15.507812 3.039062 15.851562 2.695312 C 16.199219 2.351562 16.601562 2.082031 17.054688 1.890625 C 17.507812 1.691406 17.992188 1.59375 18.507812 1.59375 C 19.027344 1.59375 19.515625 1.691406 19.96875 1.890625 C 20.425781 2.082031 20.828125 2.351562 21.171875 2.695312 C 21.515625 3.039062 21.785156 3.4375 21.976562 3.890625 C 22.175781 4.34375 22.273438 4.832031 22.273438 5.351562 C 22.273438 5.871094 22.175781 6.359375 21.976562 6.8125 C 21.785156 7.265625 21.515625 7.667969 21.171875 8.015625 C 20.828125 8.359375 20.425781 8.628906 19.96875 8.828125 C 19.515625 9.019531 19.027344 9.117188 18.507812 9.117188 C 17.992188 9.117188 17.507812 9.019531 17.054688 8.828125 C 16.601562 8.628906 16.199219 8.359375 15.851562 8.015625 C 15.507812 7.667969 15.238281 7.265625 15.046875 6.8125 C 14.855469 6.359375 14.757812 5.871094 14.757812 5.351562 Z M 14.757812 5.351562 "/>
</g>
</svg>
