<svg width="149" height="116" viewBox="0 0 149 116" fill="none" xmlns="http://www.w3.org/2000/svg">
<path d="M25 96.875H69.125C71.0833 96.875 72.4792 96.4375 73.3125 95.5625C74.1875 94.6875 74.625 93.25 74.625 91.25V63.5C74.625 61.5 74.1875 60.0625 73.3125 59.1875C72.4792 58.3125 71.0833 57.875 69.125 57.875H25C23.0417 57.875 21.6458 58.3125 20.8125 59.1875C19.9792 60.0625 19.5625 61.5 19.5625 63.5V91.25C19.5625 93.25 19.9792 94.6875 20.8125 95.5625C21.6458 96.4375 23.0417 96.875 25 96.875ZM20.5625 115.438H128.688C135.271 115.438 140.188 113.812 143.438 110.562C146.688 107.354 148.312 102.542 148.312 96.125V19.75C148.312 13.3333 146.688 8.5 143.438 5.25C140.188 2 135.271 0.375 128.688 0.375H20.5625C14.0208 0.375 9.10417 2 5.8125 5.25C2.5625 8.45833 0.9375 13.2917 0.9375 19.75V96.125C0.9375 102.542 2.5625 107.354 5.8125 110.562C9.10417 113.812 14.0208 115.438 20.5625 115.438ZM20.6875 105.375C17.5625 105.375 15.1667 104.562 13.5 102.938C11.8333 101.271 11 98.8125 11 95.5625V20.3125C11 17.0625 11.8333 14.6042 13.5 12.9375C15.1667 11.2708 17.5625 10.4375 20.6875 10.4375H128.562C131.646 10.4375 134.021 11.2708 135.688 12.9375C137.396 14.6042 138.25 17.0625 138.25 20.3125V95.5625C138.25 98.8125 137.396 101.271 135.688 102.938C134.021 104.562 131.646 105.375 128.562 105.375H20.6875Z" fill="white"/>
</svg>
