<?xml version="1.0" encoding="UTF-8"?>
<svg xmlns="http://www.w3.org/2000/svg" xmlns:xlink="http://www.w3.org/1999/xlink" width="24" height="20" viewBox="0 0 24 20" version="1.1">
<g id="surface1">
<path style=" stroke:none;fill-rule:nonzero;fill:rgb(100%,100%,100%);fill-opacity:1;" d="M 2.40625 8.96875 L 9.144531 8.96875 C 9.804688 8.96875 10.300781 8.800781 10.636719 8.46875 C 10.96875 8.128906 11.136719 7.613281 11.136719 6.925781 L 11.136719 2.269531 C 11.136719 1.582031 10.96875 1.074219 10.636719 0.738281 C 10.300781 0.40625 9.804688 0.238281 9.144531 0.238281 L 2.40625 0.238281 C 1.746094 0.238281 1.25 0.40625 0.917969 0.738281 C 0.582031 1.074219 0.417969 1.582031 0.417969 2.269531 L 0.417969 6.925781 C 0.417969 7.613281 0.582031 8.128906 0.917969 8.46875 C 1.25 8.800781 1.746094 8.96875 2.40625 8.96875 Z M 14.855469 8.96875 L 21.59375 8.96875 C 22.253906 8.96875 22.75 8.800781 23.082031 8.46875 C 23.417969 8.128906 23.582031 7.613281 23.582031 6.925781 L 23.582031 2.269531 C 23.582031 1.582031 23.417969 1.074219 23.082031 0.738281 C 22.75 0.40625 22.253906 0.238281 21.59375 0.238281 L 14.855469 0.238281 C 14.195312 0.238281 13.699219 0.40625 13.363281 0.738281 C 13.03125 1.074219 12.863281 1.582031 12.863281 2.269531 L 12.863281 6.925781 C 12.863281 7.613281 13.03125 8.128906 13.363281 8.46875 C 13.699219 8.800781 14.195312 8.96875 14.855469 8.96875 Z M 2.40625 19.417969 L 9.144531 19.417969 C 9.804688 19.417969 10.300781 19.25 10.636719 18.917969 C 10.96875 18.582031 11.136719 18.074219 11.136719 17.386719 L 11.136719 12.71875 C 11.136719 12.039062 10.96875 11.53125 10.636719 11.199219 C 10.300781 10.859375 9.804688 10.6875 9.144531 10.6875 L 2.40625 10.6875 C 1.746094 10.6875 1.25 10.859375 0.917969 11.199219 C 0.582031 11.53125 0.417969 12.039062 0.417969 12.71875 L 0.417969 17.386719 C 0.417969 18.074219 0.582031 18.582031 0.917969 18.917969 C 1.25 19.25 1.746094 19.417969 2.40625 19.417969 Z M 14.855469 19.417969 L 21.59375 19.417969 C 22.253906 19.417969 22.75 19.25 23.082031 18.917969 C 23.417969 18.582031 23.582031 18.074219 23.582031 17.386719 L 23.582031 12.71875 C 23.582031 12.039062 23.417969 11.53125 23.082031 11.199219 C 22.75 10.859375 22.253906 10.6875 21.59375 10.6875 L 14.855469 10.6875 C 14.195312 10.6875 13.699219 10.859375 13.363281 11.199219 C 13.03125 11.53125 12.863281 12.039062 12.863281 12.71875 L 12.863281 17.386719 C 12.863281 18.074219 13.03125 18.582031 13.363281 18.917969 C 13.699219 19.25 14.195312 19.417969 14.855469 19.417969 Z M 14.855469 19.417969 "/>
</g>
</svg>
