<svg xmlns="http://www.w3.org/2000/svg" width="24" height="24"><path style="stroke:none;fill-rule:nonzero;fill:#fff;fill-opacity:1" d="M3.281 17.867h2.324v-1.773H3.301c-.469 0-.828-.149-1.078-.43-.25-.297-.375-.73-.375-1.305V4.145c0-.57.125-1.004.375-1.301.25-.293.609-.442 1.078-.442h12.656c.461 0 .82.149 1.078.442.254.297.383.73.383 1.3v2.31h1.512V4.046c0-1.133-.25-1.984-.742-2.559-.493-.574-1.227-.86-2.204-.86H3.281c-.98 0-1.719.286-2.21.86C.581 2.055.335 2.91.335 4.047v10.402c0 1.14.246 1.996.734 2.57.492.563 1.23.848 2.211.848Zm4.633 5.106H20.72c.976 0 1.71-.285 2.203-.86.492-.562.742-1.418.742-2.558V9.152c0-1.129-.25-1.984-.742-2.558-.492-.574-1.227-.86-2.203-.86H7.914c-.984 0-1.719.286-2.215.86-.488.566-.73 1.422-.73 2.558v10.403c0 1.14.242 1.992.73 2.558.496.575 1.23.86 2.215.86Zm.016-1.774c-.47 0-.828-.144-1.078-.441-.25-.29-.375-.715-.375-1.29V9.255c0-.574.125-1.012.375-1.305.25-.293.609-.441 1.078-.441H20.69c.461 0 .82.148 1.079.441.253.297.382.73.382 1.309v10.21c0 .575-.129 1-.382 1.29-.258.297-.618.441-1.079.441Zm.656-1.504h11.469c.293 0 .5-.07.625-.226.133-.157.199-.41.199-.766v-8.687c0-.356-.067-.61-.2-.762-.124-.156-.331-.234-.624-.234H8.585c-.292 0-.503.078-.636.238-.125.148-.187.402-.187.758v8.687c0 .356.062.61.187.766.133.156.344.226.637.226Zm0 0"/></svg>