<?xml version="1.0" encoding="UTF-8"?>
<svg xmlns="http://www.w3.org/2000/svg" xmlns:xlink="http://www.w3.org/1999/xlink" width="24" height="18" viewBox="0 0 24 18" version="1.1">
<g id="surface1">
<path style=" stroke:none;fill-rule:nonzero;fill:rgb(100%,100%,100%);fill-opacity:1;" d="M 4.554688 8.832031 L 11.175781 8.832031 C 11.46875 8.832031 11.679688 8.765625 11.804688 8.632812 C 11.933594 8.503906 12 8.289062 12 7.988281 L 12 3.84375 C 12 3.542969 11.933594 3.328125 11.804688 3.195312 C 11.679688 3.066406 11.46875 3 11.175781 3 L 4.554688 3 C 4.261719 3 4.054688 3.066406 3.929688 3.195312 C 3.804688 3.328125 3.742188 3.542969 3.742188 3.84375 L 3.742188 7.988281 C 3.742188 8.289062 3.804688 8.503906 3.929688 8.632812 C 4.054688 8.765625 4.261719 8.832031 4.554688 8.832031 Z M 3.890625 17.578125 L 20.109375 17.578125 C 21.097656 17.578125 21.835938 17.335938 22.320312 16.847656 C 22.808594 16.367188 23.054688 15.640625 23.054688 14.671875 L 23.054688 3.226562 C 23.054688 2.257812 22.808594 1.53125 22.320312 1.050781 C 21.835938 0.5625 21.097656 0.320312 20.109375 0.320312 L 3.890625 0.320312 C 2.910156 0.320312 2.171875 0.5625 1.679688 1.050781 C 1.191406 1.53125 0.945312 2.257812 0.945312 3.226562 L 0.945312 14.671875 C 0.945312 15.640625 1.191406 16.367188 1.679688 16.847656 C 2.171875 17.335938 2.910156 17.578125 3.890625 17.578125 Z M 3.910156 16.070312 C 3.441406 16.070312 3.082031 15.945312 2.832031 15.695312 C 2.582031 15.445312 2.457031 15.078125 2.457031 14.597656 L 2.457031 3.300781 C 2.457031 2.8125 2.582031 2.445312 2.832031 2.203125 C 3.082031 1.953125 3.441406 1.828125 3.910156 1.828125 L 20.089844 1.828125 C 20.554688 1.828125 20.910156 1.953125 21.160156 2.203125 C 21.414062 2.445312 21.542969 2.8125 21.542969 3.300781 L 21.542969 14.597656 C 21.542969 15.078125 21.414062 15.445312 21.160156 15.695312 C 20.910156 15.945312 20.554688 16.070312 20.089844 16.070312 Z M 3.910156 16.070312 "/>
</g>
</svg>
