<svg width="20" height="15" viewBox="0 0 20 15" fill="none" xmlns="http://www.w3.org/2000/svg">
<path d="M7.27344 0.179688C5.72135 0.179688 4.45052 0.419271 3.46094 0.898438C2.47135 1.3724 1.73958 2.09115 1.26562 3.05469C0.791667 4.01823 0.554688 5.22917 0.554688 6.6875V12.1406C0.554688 12.9479 0.757812 13.5521 1.16406 13.9531C1.57552 14.3594 2.1901 14.5625 3.00781 14.5625H16.9922C17.8099 14.5625 18.4219 14.3594 18.8281 13.9531C19.2396 13.5521 19.4453 12.9479 19.4453 12.1406V6.6875C19.4453 5.22917 19.2083 4.01823 18.7344 3.05469C18.2656 2.09115 17.5339 1.3724 16.5391 0.898438C15.5495 0.419271 14.2812 0.179688 12.7344 0.179688H7.27344Z" fill="white"/>
</svg>
