<svg width="20" height="15" viewBox="0 0 20 15" fill="none" xmlns="http://www.w3.org/2000/svg">
<path d="M3.79688 12.2344H9.32812C9.57292 12.2344 9.7474 12.1797 9.85156 12.0703C9.96094 11.9609 10.0156 11.7812 10.0156 11.5312V3.20312C10.0156 2.95312 9.96094 2.77344 9.85156 2.66406C9.7474 2.55469 9.57292 2.5 9.32812 2.5H3.79688C3.55208 2.5 3.3776 2.55469 3.27344 2.66406C3.16927 2.77344 3.11719 2.95312 3.11719 3.20312V11.5312C3.11719 11.7812 3.16927 11.9609 3.27344 12.0703C3.3776 12.1797 3.55208 12.2344 3.79688 12.2344ZM16.5703 7.35938C16.5703 7.21875 16.5182 7.09635 16.4141 6.99219C16.3099 6.88802 16.1901 6.83594 16.0547 6.83594H13.8672L12.7109 6.875L13.3594 6.25781L14.2031 5.42969C14.3073 5.33073 14.3594 5.20833 14.3594 5.0625C14.3594 4.92188 14.3151 4.80729 14.2266 4.71875C14.138 4.625 14.026 4.57812 13.8906 4.57812C13.8125 4.57812 13.7422 4.59375 13.6797 4.625C13.6224 4.65625 13.5677 4.70052 13.5156 4.75781L11.4453 6.97656C11.3255 7.10156 11.2656 7.22917 11.2656 7.35938C11.2656 7.48958 11.3255 7.61719 11.4453 7.74219L13.5156 9.96094C13.5677 10.0234 13.6224 10.0703 13.6797 10.1016C13.7422 10.1328 13.8125 10.1484 13.8906 10.1484C14.026 10.1484 14.138 10.1042 14.2266 10.0156C14.3151 9.92188 14.3594 9.80469 14.3594 9.66406C14.3594 9.51302 14.3073 9.39062 14.2031 9.29688L13.3594 8.46094L12.7109 7.84375L13.8672 7.89062H16.0547C16.1901 7.89062 16.3073 7.83854 16.4062 7.73438C16.5104 7.625 16.5651 7.5 16.5703 7.35938ZM3.24219 14.5547H16.7578C17.5807 14.5547 18.1953 14.3516 18.6016 13.9453C19.0078 13.5443 19.2109 12.9427 19.2109 12.1406V2.59375C19.2109 1.79167 19.0078 1.1875 18.6016 0.78125C18.1953 0.375 17.5807 0.171875 16.7578 0.171875H3.24219C2.42448 0.171875 1.8099 0.375 1.39844 0.78125C0.992188 1.18229 0.789062 1.78646 0.789062 2.59375V12.1406C0.789062 12.9427 0.992188 13.5443 1.39844 13.9453C1.8099 14.3516 2.42448 14.5547 3.24219 14.5547ZM3.25781 13.2969C2.86719 13.2969 2.56771 13.1953 2.35938 12.9922C2.15104 12.7839 2.04688 12.4766 2.04688 12.0703V2.66406C2.04688 2.25781 2.15104 1.95052 2.35938 1.74219C2.56771 1.53385 2.86719 1.42969 3.25781 1.42969H16.7422C17.1276 1.42969 17.4245 1.53385 17.6328 1.74219C17.8464 1.95052 17.9531 2.25781 17.9531 2.66406V12.0703C17.9531 12.4766 17.8464 12.7839 17.6328 12.9922C17.4245 13.1953 17.1276 13.2969 16.7422 13.2969H3.25781Z" fill="white"/>
</svg>
