<?xml version="1.0" encoding="UTF-8"?>
<svg xmlns="http://www.w3.org/2000/svg" xmlns:xlink="http://www.w3.org/1999/xlink" width="24" height="18" viewBox="0 0 24 18" version="1.1">
<g id="surface1">
<path style=" stroke:none;fill-rule:nonzero;fill:rgb(100%,100%,100%);fill-opacity:1;" d="M 12.824219 14.679688 L 19.445312 14.679688 C 19.738281 14.679688 19.945312 14.617188 20.070312 14.484375 C 20.203125 14.351562 20.269531 14.136719 20.269531 13.835938 L 20.269531 9.675781 C 20.269531 9.375 20.203125 9.160156 20.070312 9.027344 C 19.945312 8.898438 19.738281 8.832031 19.445312 8.832031 L 12.824219 8.832031 C 12.53125 8.832031 12.320312 8.898438 12.1875 9.027344 C 12.0625 9.160156 12 9.375 12 9.675781 L 12 13.835938 C 12 14.136719 12.0625 14.351562 12.1875 14.484375 C 12.320312 14.617188 12.53125 14.679688 12.824219 14.679688 Z M 3.890625 17.464844 L 20.109375 17.464844 C 21.097656 17.464844 21.835938 17.222656 22.320312 16.734375 C 22.808594 16.253906 23.054688 15.53125 23.054688 14.570312 L 23.054688 3.113281 C 23.054688 2.148438 22.808594 1.425781 22.320312 0.9375 C 21.835938 0.449219 21.097656 0.207031 20.109375 0.207031 L 3.890625 0.207031 C 2.910156 0.207031 2.171875 0.449219 1.679688 0.9375 C 1.191406 1.417969 0.945312 2.144531 0.945312 3.113281 L 0.945312 14.570312 C 0.945312 15.53125 1.191406 16.253906 1.679688 16.734375 C 2.171875 17.222656 2.910156 17.464844 3.890625 17.464844 Z M 3.910156 15.957031 C 3.441406 15.957031 3.082031 15.835938 2.832031 15.589844 C 2.582031 15.339844 2.457031 14.972656 2.457031 14.484375 L 2.457031 3.195312 C 2.457031 2.710938 2.582031 2.339844 2.832031 2.089844 C 3.082031 1.839844 3.441406 1.714844 3.910156 1.714844 L 20.089844 1.714844 C 20.554688 1.714844 20.910156 1.839844 21.160156 2.089844 C 21.414062 2.339844 21.542969 2.710938 21.542969 3.195312 L 21.542969 14.484375 C 21.542969 14.972656 21.414062 15.339844 21.160156 15.589844 C 20.910156 15.835938 20.554688 15.957031 20.089844 15.957031 Z M 3.910156 15.957031 "/>
</g>
</svg>
