<svg xmlns="http://www.w3.org/2000/svg" width="24" height="24"><path style="stroke:none;fill-rule:nonzero;fill:#fff;fill-opacity:1" d="M6.836 9.418v10.723c0 .937.238 1.636.719 2.097.488.473 1.218.707 2.187.707h8.84c.816 0 1.445-.18 1.883-.543ZM2.492 5.285v10.348c0 .937.242 1.637.723 2.11.488.464 1.215.695 2.183.695h.153V8.194ZM7.07 4.68a3.672 3.672 0 0 1 1.18-.567c.45-.12.945-.183 1.492-.183h7.406v-.395c0-.933-.246-1.633-.734-2.098-.48-.468-1.203-.703-2.172-.703H5.398c-.796 0-1.437.18-1.91.543Zm14.418 13.738V7.945c0-.933-.246-1.633-.73-2.097-.485-.47-1.207-.707-2.176-.707h-8.84c-.719 0-1.3.144-1.746.433Zm.336 3.777c.137.13.324.2.516.196a.692.692 0 0 0 .715-.688.607.607 0 0 0-.207-.48L2.164 1.508a.733.733 0 0 0-.516-.196.726.726 0 0 0-.515.196A.646.646 0 0 0 .93 2c0 .195.066.36.203.48Zm0 0"/></svg>