<svg width="127" height="135" viewBox="0 0 127 135" fill="none" xmlns="http://www.w3.org/2000/svg">
<path d="M17.625 4.6875L58.5 45.5625V0.875H30.3125C24.8542 0.875 20.625 2.14583 17.625 4.6875ZM10.9375 32.75V115.312C10.9375 121.854 12.5417 126.75 15.75 130C19 133.25 23.8542 134.875 30.3125 134.875H58.5V80.25L10.9375 32.75ZM68.5 55.625L116.062 103.188V20.5C116.062 14 114.438 9.10417 111.188 5.8125C107.979 2.52083 103.146 0.875 96.6875 0.875H68.5V55.625ZM68.5 90.3125V134.875H96.6875C102.146 134.875 106.354 133.625 109.312 131.125L68.5 90.3125ZM118.75 129.875C119.708 130.833 120.854 131.312 122.188 131.312C123.521 131.312 124.646 130.833 125.562 129.875C126.479 128.958 126.938 127.812 126.938 126.438C126.979 125.104 126.521 123.958 125.562 123L8.375 5.875C7.41667 4.95833 6.27083 4.5 4.9375 4.5C3.60417 4.5 2.45833 4.95833 1.5 5.875C0.583333 6.79167 0.125 7.9375 0.125 9.3125C0.125 10.6458 0.583333 11.7708 1.5 12.6875L118.75 129.875Z" fill="white"/>
</svg>
