<svg width="20" height="15" viewBox="0 0 20 15" fill="none" xmlns="http://www.w3.org/2000/svg">
<path d="M3.79688 7.35938H9.3125C9.55729 7.35938 9.73177 7.30469 9.83594 7.19531C9.94531 7.08594 10 6.90625 10 6.65625V3.20312C10 2.95312 9.94531 2.77344 9.83594 2.66406C9.73177 2.55469 9.55729 2.5 9.3125 2.5H3.79688C3.55208 2.5 3.3776 2.55469 3.27344 2.66406C3.16927 2.77344 3.11719 2.95312 3.11719 3.20312V6.65625C3.11719 6.90625 3.16927 7.08594 3.27344 7.19531C3.3776 7.30469 3.55208 7.35938 3.79688 7.35938ZM3.24219 14.6484H16.7578C17.5807 14.6484 18.1953 14.4453 18.6016 14.0391C19.0078 13.638 19.2109 13.0339 19.2109 12.2266V2.6875C19.2109 1.88021 19.0078 1.27604 18.6016 0.875C18.1953 0.46875 17.5807 0.265625 16.7578 0.265625H3.24219C2.42448 0.265625 1.8099 0.46875 1.39844 0.875C0.992188 1.27604 0.789062 1.88021 0.789062 2.6875V12.2266C0.789062 13.0339 0.992188 13.638 1.39844 14.0391C1.8099 14.4453 2.42448 14.6484 3.24219 14.6484ZM3.25781 13.3906C2.86719 13.3906 2.56771 13.2865 2.35938 13.0781C2.15104 12.8698 2.04688 12.5651 2.04688 12.1641V2.75C2.04688 2.34375 2.15104 2.03906 2.35938 1.83594C2.56771 1.6276 2.86719 1.52344 3.25781 1.52344H16.7422C17.1276 1.52344 17.4245 1.6276 17.6328 1.83594C17.8464 2.03906 17.9531 2.34375 17.9531 2.75V12.1641C17.9531 12.5651 17.8464 12.8698 17.6328 13.0781C17.4245 13.2865 17.1276 13.3906 16.7422 13.3906H3.25781Z" fill="white"/>
</svg>
