<svg xmlns="http://www.w3.org/2000/svg" width="24" height="24"><path style="stroke:none;fill-rule:nonzero;fill:#fff;fill-opacity:1" d="M1.96 11.266H9.8c.653 0 1.141-.239 1.466-.704.332-.472.496-1.187.496-2.152V3.227c0-.95-.164-1.66-.496-2.125C10.94.625 10.453.39 9.8.39H1.96C1.309.39.816.625.484 1.1.16 1.564 0 2.274 0 3.228V8.41c0 .965.16 1.68.484 2.156.332.461.825.7 1.477.7Zm.103-1.895c-.25 0-.442-.09-.579-.285-.132-.2-.199-.492-.199-.875V3.437c0-.39.067-.683.2-.874a.67.67 0 0 1 .577-.29H9.7c.25 0 .442.098.57.29.137.19.204.484.204.874v4.774c0 .383-.067.676-.203.875-.13.195-.32.289-.57.289Zm2.07 13.738h6.726c.653 0 1.141-.234 1.465-.71.328-.47.492-1.176.492-2.137v-3.528c0-.957-.164-1.668-.492-2.136-.324-.465-.812-.7-1.465-.7H4.133c-.649 0-1.137.235-1.465.7-.328.468-.496 1.18-.496 2.136v3.528c0 .96.168 1.668.496 2.136.328.477.816.711 1.465.711Zm.101-1.882a.656.656 0 0 1-.578-.305c-.129-.192-.195-.477-.195-.86v-3.128c0-.387.066-.676.195-.86.137-.195.328-.285.578-.285h6.512c.258 0 .45.09.582.285.137.184.203.473.203.86v3.128c0 .383-.066.672-.203.86a.657.657 0 0 1-.582.305Zm12.239.425h5.566c.652 0 1.145-.242 1.465-.715.332-.468.496-1.175.496-2.14V4.91c0-.957-.164-1.668-.496-2.137-.32-.464-.813-.699-1.465-.699h-5.566c-.653 0-1.145.235-1.473.7-.324.468-.484 1.18-.484 2.136v13.887c0 .965.16 1.672.484 2.14.328.473.82.715 1.473.715Zm.093-1.894c-.25 0-.437-.09-.57-.285-.129-.188-.195-.48-.195-.871V5.129c0-.399.066-.688.195-.879a.648.648 0 0 1 .57-.285h5.364c.254 0 .449.094.578.285.137.191.207.484.207.879v13.473c0 .39-.07.683-.207.87-.13.196-.324.29-.578.29Zm0 0"/></svg>