<svg xmlns="http://www.w3.org/2000/svg" width="24" height="24"><path style="stroke:none;fill-rule:nonzero;fill:#fff;fill-opacity:1" d="M.945 19.426c0 1.281.246 2.246.735 2.887.492.652 1.23.972 2.21.972h16.22c.988 0 1.726-.32 2.21-.973.489-.64.735-1.605.735-2.886V4.152c0-1.289-.246-2.25-.735-2.902-.484-.652-1.222-.973-2.21-.973H3.89c-.98 0-1.718.32-2.21.973-.489.64-.735 1.61-.735 2.902Zm1.512-.113V4.261c0-.649.125-1.14.375-1.477.25-.332.61-.5 1.078-.5h8.11v18.992H3.91c-.469 0-.828-.164-1.078-.492-.25-.332-.375-.82-.375-1.473Zm0 0"/></svg>