<svg xmlns="http://www.w3.org/2000/svg" width="24" height="24"><path style="stroke:none;fill-rule:nonzero;fill:#fff;fill-opacity:1" d="M3.492 17.016H8.98l-1.07-1.532a1.401 1.401 0 0 1-.265-.8c0-.27.109-.524.293-.7l.269-.277a.907.907 0 0 1 .758-.305c.285.02.55.16.793.414l1.59 1.696.562-.5-2.84-8.746c-.101-.309-.105-.559-.015-.75a.792.792 0 0 1 .402-.403l.793-.355c.285-.133.512-.137.68-.024.164.114.293.301.383.555l1.437 4.137 1.063-.492c.273-.125.519-.168.742-.121.226.046.418.144.578.296.16.153.285.32.367.516.18-.145.379-.258.59-.34.195-.074.402-.117.617-.117h1.32V4.086c0-.984-.226-1.727-.68-2.219-.445-.496-1.12-.738-2.027-.738H3.492c-.91 0-1.594.242-2.047.734C1 2.355.777 3.093.777 4.086v9.977c0 .992.223 1.738.668 2.218.453.489 1.137.735 2.047.735ZM18.59 22.68c1.183-.477 2.129-1.176 2.828-2.094.71-.914 1.137-1.996 1.289-3.238.152-1.243-.008-2.586-.484-4.035l-.668-2.024c-.352-1.066-.844-1.809-1.473-2.23-.633-.418-1.34-.48-2.117-.176a1.419 1.419 0 0 0-.777-.594c-.31-.098-.641-.078-.993.063-.246.105-.48.25-.687.43a1.693 1.693 0 0 0-.848-.66c-.332-.114-.68-.09-1.043.058a1.9 1.9 0 0 0-.562.34l-1.02-3.094c-.195-.582-.512-.992-.945-1.219-.434-.234-.899-.246-1.395-.039-.5.191-.851.539-1.05 1.02-.204.492-.207 1.023-.012 1.613l2.547 7.734c.015.055.004.086-.035.11-.028.007-.055-.008-.09-.04L10 13.355c-.258-.312-.535-.515-.84-.605a1.318 1.318 0 0 0-.89.04 1.806 1.806 0 0 0-.938.85c-.215.391-.238.844-.074 1.36.105.332.265.64.472.91l2.993 3.992c1.132 1.516 2.355 2.5 3.672 2.965 1.32.465 2.718.406 4.195-.187Zm-.375-1.293c-1.172.465-2.309.547-3.41.234-1.098-.308-2.16-1.152-3.188-2.523l-2.992-3.993c-.09-.109-.16-.242-.207-.382a.736.736 0 0 1 .012-.485.572.572 0 0 1 .347-.332.453.453 0 0 1 .383-.011c.133.062.25.156.348.273l2.074 2.363c.172.196.336.317.488.356a.87.87 0 0 0 .457-.04.603.603 0 0 0 .368-.374.885.885 0 0 0-.012-.594l-3.16-9.613a.797.797 0 0 1 0-.555.625.625 0 0 1 .367-.352.51.51 0 0 1 .48.02c.149.078.258.215.325.414l2.257 6.855c.047.16.153.286.293.348.282.133.61.004.75-.293a.648.648 0 0 0 .02-.476l-.813-2.465c.13-.153.286-.262.465-.328.207-.086.39-.082.551.007.168.098.293.266.375.508l.707 2.16a.58.58 0 0 0 .305.356c.14.058.285.058.425 0a.563.563 0 0 0 .313-.309.603.603 0 0 0 .027-.472l-.578-1.758c.13-.153.281-.258.453-.324.215-.086.403-.082.563.007.168.098.293.262.375.508l.472 1.45a.557.557 0 0 0 .735.355.632.632 0 0 0 .312-.309.614.614 0 0 0 .016-.484l-.348-1.05c.375-.153.73-.071 1.063.253.34.324.633.852.875 1.59l.555 1.695c.41 1.242.57 2.38.472 3.406-.094 1.02-.426 1.903-.992 2.645-.563.746-1.34 1.316-2.328 1.719Zm0 0"/></svg>