<svg width="169" height="144" viewBox="0 0 169 144" fill="none" xmlns="http://www.w3.org/2000/svg">
<path d="M20.5625 62.875H65.125C71.6667 62.875 76.5625 61.25 79.8125 58C83.1042 54.75 84.75 49.9167 84.75 43.5V19.6875C84.75 13.2708 83.1042 8.45833 79.8125 5.25C76.5625 2 71.6667 0.375 65.125 0.375H20.5625C14.0208 0.375 9.10417 1.97917 5.8125 5.1875C2.5625 8.39583 0.9375 13.2292 0.9375 19.6875V43.5C0.9375 49.9583 2.5625 54.8125 5.8125 58.0625C9.10417 61.2708 14.0208 62.875 20.5625 62.875ZM20.6875 52.8125C17.5625 52.8125 15.1667 51.9792 13.5 50.3125C11.8333 48.6458 11 46.1875 11 42.9375V20.25C11 17 11.8333 14.5625 13.5 12.9375C15.1667 11.2708 17.5625 10.4375 20.6875 10.4375H65C68.0833 10.4375 70.4583 11.2708 72.125 12.9375C73.8333 14.5625 74.6875 17 74.6875 20.25V42.9375C74.6875 46.1875 73.8333 48.6458 72.125 50.3125C70.4583 51.9792 68.0833 52.8125 65 52.8125H20.6875ZM104.375 143.375H149C155.5 143.375 160.396 141.75 163.688 138.5C166.979 135.292 168.625 130.458 168.625 124V100.25C168.625 93.7917 166.979 88.9583 163.688 85.75C160.396 82.5 155.5 80.875 149 80.875H104.375C97.875 80.875 92.9792 82.5 89.6875 85.75C86.3958 88.9583 84.75 93.7917 84.75 100.25V124C84.75 130.458 86.3958 135.292 89.6875 138.5C92.9792 141.75 97.875 143.375 104.375 143.375ZM104.562 133.312C101.438 133.312 99.0208 132.479 97.3125 130.812C95.6458 129.188 94.8125 126.75 94.8125 123.5V100.75C94.8125 97.5417 95.6458 95.1042 97.3125 93.4375C99.0208 91.7708 101.438 90.9375 104.562 90.9375H148.812C151.896 90.9375 154.292 91.7708 156 93.4375C157.708 95.1042 158.562 97.5417 158.562 100.75V123.5C158.562 126.75 157.708 129.188 156 130.812C154.292 132.479 151.896 133.312 148.812 133.312H104.562ZM134.625 69.1875C135.583 70.5208 136.583 71.1875 137.625 71.1875C138.708 71.1458 139.729 70.4792 140.688 69.1875L152.312 53.375C153.604 51.6667 153.979 50.0833 153.438 48.625C152.938 47.1667 151.542 46.4375 149.25 46.4375H141V45.125C141 39.125 139.75 33.8958 137.25 29.4375C134.75 24.9375 131.25 21.4583 126.75 19C122.25 16.5 117.021 15.25 111.062 15.25H101.688C100.646 15.25 99.7292 15.6458 98.9375 16.4375C98.1875 17.1875 97.8125 18.1042 97.8125 19.1875C97.8125 20.2292 98.1875 21.1458 98.9375 21.9375C99.7292 22.6875 100.646 23.0625 101.688 23.0625H111C115.458 23.0625 119.396 23.9792 122.812 25.8125C126.229 27.6042 128.896 30.1667 130.812 33.5C132.771 36.7917 133.75 40.6875 133.75 45.1875V46.4375H126.125C123.875 46.4375 122.479 47.1667 121.938 48.625C121.438 50.0833 121.833 51.6667 123.125 53.375L134.625 69.1875ZM58.4375 128.5H67.8125C68.8958 128.5 69.8125 128.104 70.5625 127.312C71.3542 126.562 71.75 125.646 71.75 124.562C71.75 123.521 71.3542 122.604 70.5625 121.812C69.8125 121.062 68.8958 120.688 67.8125 120.688H58.5C54.0417 120.688 50.1042 119.771 46.6875 117.938C43.2708 116.146 40.5833 113.604 38.625 110.312C36.7083 106.979 35.75 103.042 35.75 98.5V97.3125H43.4375C45.6875 97.3125 47.0625 96.5833 47.5625 95.125C48.0625 93.6667 47.6875 92.0625 46.4375 90.3125L34.875 74.5625C33.9167 73.2292 32.8958 72.5833 31.8125 72.625C30.7708 72.625 29.7708 73.2708 28.8125 74.5625L17.25 90.3125C15.9167 92.0625 15.5 93.6667 16 95.125C16.5417 96.5833 17.9583 97.3125 20.25 97.3125H28.5V98.5625C28.5 104.562 29.75 109.812 32.25 114.312C34.7917 118.771 38.2917 122.25 42.75 124.75C47.25 127.25 52.4792 128.5 58.4375 128.5Z" fill="white"/>
</svg>
