<?xml version="1.0" encoding="UTF-8"?>
<svg xmlns="http://www.w3.org/2000/svg" xmlns:xlink="http://www.w3.org/1999/xlink" width="24" height="18" viewBox="0 0 24 18" version="1.1">
<g id="surface1">
<path style=" stroke:none;fill-rule:nonzero;fill:rgb(100%,100%,100%);fill-opacity:1;" d="M 4.554688 14.679688 L 11.195312 14.679688 C 11.488281 14.679688 11.695312 14.617188 11.820312 14.484375 C 11.953125 14.351562 12.019531 14.136719 12.019531 13.835938 L 12.019531 3.84375 C 12.019531 3.542969 11.953125 3.328125 11.820312 3.195312 C 11.695312 3.066406 11.488281 3 11.195312 3 L 4.554688 3 C 4.261719 3 4.054688 3.066406 3.929688 3.195312 C 3.804688 3.328125 3.742188 3.542969 3.742188 3.84375 L 3.742188 13.835938 C 3.742188 14.136719 3.804688 14.351562 3.929688 14.484375 C 4.054688 14.617188 4.261719 14.679688 4.554688 14.679688 Z M 19.882812 8.832031 C 19.882812 8.664062 19.820312 8.515625 19.695312 8.390625 C 19.570312 8.265625 19.429688 8.203125 19.265625 8.203125 L 16.640625 8.203125 L 15.253906 8.25 L 16.03125 7.507812 L 17.042969 6.515625 C 17.167969 6.398438 17.230469 6.25 17.230469 6.074219 C 17.230469 5.90625 17.179688 5.769531 17.070312 5.664062 C 16.964844 5.550781 16.832031 5.492188 16.667969 5.492188 C 16.574219 5.492188 16.492188 5.511719 16.414062 5.550781 C 16.347656 5.585938 16.28125 5.640625 16.21875 5.710938 L 13.734375 8.371094 C 13.589844 8.523438 13.519531 8.675781 13.519531 8.832031 C 13.519531 8.988281 13.589844 9.140625 13.734375 9.289062 L 16.21875 11.953125 C 16.28125 12.027344 16.347656 12.085938 16.414062 12.121094 C 16.492188 12.160156 16.574219 12.179688 16.667969 12.179688 C 16.832031 12.179688 16.964844 12.125 17.070312 12.019531 C 17.179688 11.90625 17.230469 11.765625 17.230469 11.597656 C 17.230469 11.414062 17.167969 11.269531 17.042969 11.15625 L 16.03125 10.152344 L 15.253906 9.414062 L 16.640625 9.46875 L 19.265625 9.46875 C 19.429688 9.46875 19.570312 9.40625 19.6875 9.28125 C 19.8125 9.148438 19.878906 9 19.882812 8.832031 Z M 3.890625 17.464844 L 20.109375 17.464844 C 21.097656 17.464844 21.835938 17.222656 22.320312 16.734375 C 22.808594 16.253906 23.054688 15.53125 23.054688 14.570312 L 23.054688 3.113281 C 23.054688 2.148438 22.808594 1.425781 22.320312 0.9375 C 21.835938 0.449219 21.097656 0.207031 20.109375 0.207031 L 3.890625 0.207031 C 2.910156 0.207031 2.171875 0.449219 1.679688 0.9375 C 1.191406 1.417969 0.945312 2.144531 0.945312 3.113281 L 0.945312 14.570312 C 0.945312 15.53125 1.191406 16.253906 1.679688 16.734375 C 2.171875 17.222656 2.910156 17.464844 3.890625 17.464844 Z M 3.910156 15.957031 C 3.441406 15.957031 3.082031 15.835938 2.832031 15.589844 C 2.582031 15.339844 2.457031 14.972656 2.457031 14.484375 L 2.457031 3.195312 C 2.457031 2.710938 2.582031 2.339844 2.832031 2.089844 C 3.082031 1.839844 3.441406 1.714844 3.910156 1.714844 L 20.089844 1.714844 C 20.554688 1.714844 20.910156 1.839844 21.160156 2.089844 C 21.414062 2.339844 21.542969 2.710938 21.542969 3.195312 L 21.542969 14.484375 C 21.542969 14.972656 21.414062 15.339844 21.160156 15.589844 C 20.910156 15.835938 20.554688 15.957031 20.089844 15.957031 Z M 3.910156 15.957031 "/>
</g>
</svg>
