<svg width="135" height="159" viewBox="0 0 135 159" fill="none" xmlns="http://www.w3.org/2000/svg">
<path d="M134.125 53.625C134.125 47.0833 132.5 42.1875 129.25 38.9375C126.042 35.6458 121.208 34 114.75 34H55.8125C49.3542 34 44.5 35.6458 41.25 38.9375C38.0417 42.1875 36.4375 47.0833 36.4375 53.625V139C36.4375 145.542 38.0625 150.438 41.3125 153.688C44.5625 156.979 49.3958 158.625 55.8125 158.625H114.75C121.208 158.625 126.042 156.979 129.25 153.688C132.5 150.438 134.125 145.542 134.125 139V53.625ZM124.062 53.8125V138.875C124.062 141.958 123.229 144.333 121.562 146C119.938 147.708 117.5 148.562 114.25 148.562H56.375C53.125 148.562 50.6667 147.708 49 146C47.3333 144.333 46.5 141.958 46.5 138.875V53.8125C46.5 50.6875 47.3333 48.2917 49 46.625C50.6667 44.9167 53.125 44.0625 56.375 44.0625H114.25C117.5 44.0625 119.938 44.9167 121.562 46.625C123.229 48.2917 124.062 50.6875 124.062 53.8125ZM45.1875 123.5L38.375 124.688C35.2083 125.271 32.6458 124.875 30.6875 123.5C28.7708 122.083 27.5417 119.854 27 116.812L12.375 33.75C11.8333 30.6667 12.2292 28.1667 13.5625 26.25C14.8958 24.3333 17.1667 23.0833 20.375 22.5L77.375 12.4375C80.5833 11.8958 83.125 12.3125 85 13.6875C86.9167 15.0208 88.1458 17.2292 88.6875 20.3125L92.5625 41.6875L102.375 39.9375L98.625 18.4375C97.5 11.9375 95.0625 7.375 91.3125 4.75C87.5625 2.125 82.5 1.35417 76.125 2.4375L18.125 12.625C11.75 13.75 7.25 16.2083 4.625 20C2.04167 23.7917 1.3125 28.9167 2.4375 35.375L17.125 118.75C18.25 125.167 20.6875 129.708 24.4375 132.375C28.2292 135.042 33.2917 135.812 39.625 134.688L45.1875 133.688V123.5Z" fill="white"/>
</svg>
