<svg width="128" height="156" viewBox="0 0 128 156" fill="none" xmlns="http://www.w3.org/2000/svg">
<path d="M127.562 50.625C127.562 44.0833 125.938 39.1875 122.688 35.9375C119.479 32.6458 114.646 31 108.188 31H49.25C42.7917 31 37.9375 32.6458 34.6875 35.9375C31.4792 39.1875 29.875 44.0833 29.875 50.625V136C29.875 142.542 31.4792 147.438 34.6875 150.688C37.9375 153.979 42.7917 155.625 49.25 155.625H108.188C114.646 155.625 119.479 153.979 122.688 150.688C125.938 147.438 127.562 142.542 127.562 136V50.625ZM117.5 50.8125V135.875C117.5 138.958 116.667 141.333 115 143C113.375 144.708 110.938 145.562 107.688 145.562H49.75C46.5 145.562 44.0417 144.708 42.375 143C40.75 141.333 39.9375 138.958 39.9375 135.875V50.8125C39.9375 47.6875 40.75 45.2917 42.375 43.625C44.0417 41.9167 46.5 41.0625 49.75 41.0625H107.688C110.938 41.0625 113.375 41.9167 115 43.625C116.667 45.2917 117.5 47.6875 117.5 50.8125ZM98.625 19.75C98.625 13.2083 97 8.3125 93.75 5.0625C90.5417 1.77083 85.7083 0.125 79.25 0.125H20.3125C13.8542 0.125 9 1.77083 5.75 5.0625C2.54167 8.3125 0.9375 13.2083 0.9375 19.75V104.438C0.9375 110.979 2.54167 115.896 5.75 119.188C9 122.438 13.8542 124.062 20.3125 124.062H33.9375V114H20.8125C17.5625 114 15.1042 113.167 13.4375 111.5C11.8125 109.792 11 107.396 11 104.312V19.9375C11 16.8125 11.8125 14.4167 13.4375 12.75C15.1042 11.0417 17.5625 10.1875 20.8125 10.1875H78.75C82 10.1875 84.4375 11.0417 86.0625 12.75C87.7292 14.4167 88.5625 16.8125 88.5625 19.9375V35.25H98.625V19.75Z" fill="white"/>
</svg>
