<svg width="132" height="139" viewBox="0 0 132 139" fill="none" xmlns="http://www.w3.org/2000/svg">
<path d="M20.5625 139H112.25C118.75 139 123.646 137.375 126.938 134.125C130.229 130.875 131.875 126.042 131.875 119.625V55.4375C131.875 49.0208 130.229 44.1875 126.938 40.9375C123.646 37.6875 118.75 36.0625 112.25 36.0625H20.5625C14.0208 36.0625 9.10417 37.6875 5.8125 40.9375C2.5625 44.1458 0.9375 48.9792 0.9375 55.4375V119.625C0.9375 126.083 2.5625 130.917 5.8125 134.125C9.10417 137.375 14.0208 139 20.5625 139ZM20.6875 128.938C17.5625 128.938 15.1667 128.104 13.5 126.438C11.8333 124.771 11 122.312 11 119.062V56C11 52.75 11.8333 50.2917 13.5 48.625C15.1667 46.9583 17.5625 46.125 20.6875 46.125H112.062C115.146 46.125 117.542 46.9583 119.25 48.625C120.958 50.2917 121.812 52.75 121.812 56V119.062C121.812 122.312 120.958 124.771 119.25 126.438C117.542 128.104 115.146 128.938 112.062 128.938H20.6875ZM14.125 26H118.75C118.25 23.1667 117.25 21 115.75 19.5C114.292 17.9583 112 17.1875 108.875 17.1875H24C20.875 17.1875 18.5625 17.9583 17.0625 19.5C15.5625 21 14.5833 23.1667 14.125 26ZM27 8.6875H105.875C105.667 6.02083 104.792 4.02083 103.25 2.6875C101.75 1.3125 99.5625 0.625 96.6875 0.625H36.125C33.25 0.625 31.0417 1.3125 29.5 2.6875C28 4.02083 27.1667 6.02083 27 8.6875Z" fill="white"/>
</svg>
