<svg width="20" height="15" viewBox="0 0 20 15" fill="none" xmlns="http://www.w3.org/2000/svg">
<path d="M10.6875 7.35938H16.2031C16.4479 7.35938 16.6224 7.30469 16.7266 7.19531C16.8359 7.08594 16.8906 6.90625 16.8906 6.65625V3.20312C16.8906 2.95312 16.8359 2.77344 16.7266 2.66406C16.6224 2.55469 16.4479 2.5 16.2031 2.5H10.6875C10.4427 2.5 10.2656 2.55469 10.1562 2.66406C10.0521 2.77344 10 2.95312 10 3.20312V6.65625C10 6.90625 10.0521 7.08594 10.1562 7.19531C10.2656 7.30469 10.4427 7.35938 10.6875 7.35938ZM3.24219 14.5547H16.7578C17.5807 14.5547 18.1953 14.3516 18.6016 13.9453C19.0078 13.5443 19.2109 12.9427 19.2109 12.1406V2.59375C19.2109 1.79167 19.0078 1.1875 18.6016 0.78125C18.1953 0.375 17.5807 0.171875 16.7578 0.171875H3.24219C2.42448 0.171875 1.8099 0.375 1.39844 0.78125C0.992188 1.18229 0.789062 1.78646 0.789062 2.59375V12.1406C0.789062 12.9427 0.992188 13.5443 1.39844 13.9453C1.8099 14.3516 2.42448 14.5547 3.24219 14.5547ZM3.25781 13.2969C2.86719 13.2969 2.56771 13.1953 2.35938 12.9922C2.15104 12.7839 2.04688 12.4766 2.04688 12.0703V2.66406C2.04688 2.25781 2.15104 1.95052 2.35938 1.74219C2.56771 1.53385 2.86719 1.42969 3.25781 1.42969H16.7422C17.1276 1.42969 17.4245 1.53385 17.6328 1.74219C17.8464 1.95052 17.9531 2.25781 17.9531 2.66406V12.0703C17.9531 12.4766 17.8464 12.7839 17.6328 12.9922C17.4245 13.1953 17.1276 13.2969 16.7422 13.2969H3.25781Z" fill="white"/>
</svg>
