<svg xmlns="http://www.w3.org/2000/svg" width="24" height="24"><path style="stroke:none;fill-rule:nonzero;fill:#fff;fill-opacity:1" d="M12.824 11.777h6.621c.293 0 .5-.09.625-.27.133-.167.2-.456.2-.855V5.125c0-.402-.067-.688-.2-.863-.125-.172-.332-.262-.625-.262h-6.62c-.294 0-.505.09-.637.262-.126.176-.188.46-.188.863v5.527c0 .399.063.688.188.86.132.175.343.265.636.265ZM3.891 23.285h16.218c.989 0 1.727-.32 2.211-.973.489-.64.735-1.605.735-2.886V4.152c0-1.289-.246-2.25-.735-2.902-.484-.652-1.222-.973-2.21-.973H3.89c-.98 0-1.718.32-2.21.973-.489.64-.735 1.61-.735 2.902v15.274c0 1.281.246 2.246.735 2.887.492.652 1.23.972 2.21.972Zm.02-2.008c-.47 0-.829-.164-1.079-.492-.25-.332-.375-.82-.375-1.473V4.262c0-.649.125-1.14.375-1.477.25-.332.61-.5 1.078-.5h16.18c.465 0 .82.168 1.07.5.254.336.383.828.383 1.477v15.05c0 .653-.129 1.141-.383 1.473-.25.328-.605.492-1.07.492Zm0 0"/></svg>