<svg width="149" height="136" viewBox="0 0 149 136" fill="none" xmlns="http://www.w3.org/2000/svg">
<path d="M128.688 10.375H34.4375L44.5 20.4375H128.562C131.646 20.4375 134.021 21.2708 135.688 22.9375C137.396 24.6042 138.25 27.0625 138.25 30.3125V105.562C138.25 108.396 137.417 110.438 135.75 111.688L143.75 119.625C146.792 116.583 148.312 112.083 148.312 106.125V29.75C148.312 23.3333 146.688 18.5 143.438 15.25C140.188 12 135.271 10.375 128.688 10.375ZM20.5625 125.438H115.312L105.25 115.375H20.6875C17.5625 115.375 15.1667 114.562 13.5 112.938C11.8333 111.271 11 108.812 11 105.562V30.3125C11 27.3542 11.875 25.2292 13.625 23.9375L5.75 16.0625C2.54167 19.0625 0.9375 23.625 0.9375 29.75V106.125C0.9375 112.542 2.5625 117.354 5.8125 120.562C9.10417 123.812 14.0208 125.438 20.5625 125.438ZM134.312 134.188C135.271 135.146 136.417 135.625 137.75 135.625C139.083 135.625 140.208 135.146 141.125 134.188C142.083 133.229 142.562 132.083 142.562 130.75C142.562 129.458 142.083 128.333 141.125 127.375L15.4375 1.75C14.4792 0.791667 13.3333 0.3125 12 0.3125C10.6667 0.3125 9.52083 0.791667 8.5625 1.75C7.64583 2.625 7.1875 3.75 7.1875 5.125C7.1875 6.5 7.64583 7.64583 8.5625 8.5625L134.312 134.188Z" fill="white"/>
</svg>
