<?xml version="1.0" encoding="UTF-8"?>
<svg xmlns="http://www.w3.org/2000/svg" xmlns:xlink="http://www.w3.org/1999/xlink" width="24" height="30.857143" viewBox="0 0 24 30.857143" version="1.1">
<g id="surface1">
<path style=" stroke:none;fill-rule:nonzero;fill:rgb(100%,100%,100%);fill-opacity:1;" d="M 13.070312 30.402344 L 10.929688 30.402344 L 10.929688 1.6875 L 13.070312 1.6875 Z M 0.738281 26.210938 C 0.738281 27.613281 1.082031 28.660156 1.769531 29.355469 C 2.464844 30.054688 3.503906 30.402344 4.886719 30.402344 L 19.113281 30.402344 C 20.496094 30.402344 21.53125 30.054688 22.21875 29.355469 C 22.914062 28.660156 23.261719 27.613281 23.261719 26.210938 L 23.261719 5.894531 C 23.261719 4.5 22.914062 3.449219 22.21875 2.746094 C 21.53125 2.039062 20.496094 1.6875 19.113281 1.6875 L 4.886719 1.6875 C 3.503906 1.6875 2.464844 2.039062 1.769531 2.746094 C 1.082031 3.449219 0.738281 4.5 0.738281 5.894531 Z M 0.738281 26.210938 "/>
</g>
</svg>
