<svg width="149" height="116" viewBox="0 0 149 116" fill="none" xmlns="http://www.w3.org/2000/svg">
<path d="M25 56.875H69.125C71.0833 56.875 72.4792 56.4375 73.3125 55.5625C74.1875 54.6875 74.625 53.25 74.625 51.25V23.625C74.625 21.625 74.1875 20.1875 73.3125 19.3125C72.4792 18.4375 71.0833 18 69.125 18H25C23.0417 18 21.6458 18.4375 20.8125 19.3125C19.9792 20.1875 19.5625 21.625 19.5625 23.625V51.25C19.5625 53.25 19.9792 54.6875 20.8125 55.5625C21.6458 56.4375 23.0417 56.875 25 56.875ZM20.5625 115.188H128.688C135.271 115.188 140.188 113.562 143.438 110.312C146.688 107.104 148.312 102.271 148.312 95.8125V19.5C148.312 13.0417 146.688 8.20833 143.438 5C140.188 1.75 135.271 0.125 128.688 0.125H20.5625C14.0208 0.125 9.10417 1.75 5.8125 5C2.5625 8.20833 0.9375 13.0417 0.9375 19.5V95.8125C0.9375 102.271 2.5625 107.104 5.8125 110.312C9.10417 113.562 14.0208 115.188 20.5625 115.188ZM20.6875 105.125C17.5625 105.125 15.1667 104.292 13.5 102.625C11.8333 100.958 11 98.5208 11 95.3125V20C11 16.75 11.8333 14.3125 13.5 12.6875C15.1667 11.0208 17.5625 10.1875 20.6875 10.1875H128.562C131.646 10.1875 134.021 11.0208 135.688 12.6875C137.396 14.3125 138.25 16.75 138.25 20V95.3125C138.25 98.5208 137.396 100.958 135.688 102.625C134.021 104.292 131.646 105.125 128.562 105.125H20.6875Z" fill="white"/>
</svg>
