<svg xmlns="http://www.w3.org/2000/svg" width="24" height="24"><path style="stroke:none;fill-rule:nonzero;fill:#fff;fill-opacity:1" d="M.945 19.426c0 1.281.246 2.246.735 2.887.492.652 1.23.972 2.21.972h16.22c.988 0 1.726-.32 2.21-.973.489-.64.735-1.605.735-2.886V4.152c0-1.289-.246-2.25-.735-2.902-.484-.652-1.222-.973-2.21-.973H3.89c-.98 0-1.718.32-2.21.973-.489.64-.735 1.61-.735 2.902Zm11.075 1.851V2.285h8.07c.465 0 .82.168 1.07.5.254.336.383.828.383 1.477v15.05c0 .653-.129 1.141-.383 1.473-.25.328-.605.492-1.07.492Zm0 0"/></svg>