<svg width="135" height="159" viewBox="0 0 135 159" fill="none" xmlns="http://www.w3.org/2000/svg">
<path d="M134.125 53.625C134.125 47.0833 132.5 42.1875 129.25 38.9375C126.042 35.6458 121.208 34 114.75 34H55.8125C49.3542 34 44.5 35.6458 41.25 38.9375C38.0417 42.1875 36.4375 47.0833 36.4375 53.625V139C36.4375 145.542 38.0625 150.438 41.3125 153.688C44.5625 156.979 49.3958 158.625 55.8125 158.625H114.75C121.208 158.625 126.042 156.979 129.25 153.688C132.5 150.438 134.125 145.542 134.125 139V53.625ZM55.8125 25.5H99.8125L98.625 18.4375C97.5 11.9375 95.0625 7.375 91.3125 4.75C87.5625 2.125 82.5 1.35417 76.125 2.4375L18.125 12.625C11.75 13.75 7.25 16.2083 4.625 20C2.04167 23.7917 1.3125 28.9167 2.4375 35.375L17.125 118.75C17.8333 122.833 19.0833 126.146 20.875 128.688C22.7083 131.229 25.0625 133 27.9375 134V53.625C27.9375 47.7083 29.0208 42.6458 31.1875 38.4375C33.3958 34.2292 36.5833 31.0208 40.75 28.8125C44.9167 26.6042 49.9375 25.5 55.8125 25.5Z" fill="white"/>
</svg>
