<svg width="136" height="116" viewBox="0 0 136 116" fill="none" xmlns="http://www.w3.org/2000/svg">
<path d="M12.875 52.8125H27C30.9583 52.8125 33.9375 51.8125 35.9375 49.8125C37.9375 47.7708 38.9375 44.6875 38.9375 40.5625V12.625C38.9375 8.5 37.9375 5.4375 35.9375 3.4375C33.9375 1.4375 30.9583 0.4375 27 0.4375H12.875C8.91667 0.4375 5.9375 1.4375 3.9375 3.4375C1.9375 5.4375 0.9375 8.5 0.9375 12.625V40.5625C0.9375 44.6875 1.9375 47.7708 3.9375 49.8125C5.9375 51.8125 8.91667 52.8125 12.875 52.8125ZM61.25 52.8125H75.375C79.3333 52.8125 82.3125 51.8125 84.3125 49.8125C86.3125 47.7708 87.3125 44.6875 87.3125 40.5625V12.625C87.3125 8.5 86.3125 5.4375 84.3125 3.4375C82.3125 1.4375 79.3333 0.4375 75.375 0.4375H61.25C57.25 0.4375 54.25 1.4375 52.25 3.4375C50.2917 5.4375 49.3125 8.5 49.3125 12.625V40.5625C49.3125 44.6875 50.2917 47.7708 52.25 49.8125C54.25 51.8125 57.25 52.8125 61.25 52.8125ZM109.625 52.8125H123.688C127.688 52.8125 130.667 51.8125 132.625 49.8125C134.625 47.7708 135.625 44.6875 135.625 40.5625V12.625C135.625 8.5 134.625 5.4375 132.625 3.4375C130.667 1.4375 127.688 0.4375 123.688 0.4375H109.625C105.625 0.4375 102.625 1.4375 100.625 3.4375C98.625 5.4375 97.625 8.5 97.625 12.625V40.5625C97.625 44.6875 98.625 47.7708 100.625 49.8125C102.625 51.8125 105.625 52.8125 109.625 52.8125ZM12.875 115.5H27C30.9583 115.5 33.9375 114.5 35.9375 112.5C37.9375 110.5 38.9375 107.438 38.9375 103.312V75.3125C38.9375 71.2292 37.9375 68.1875 35.9375 66.1875C33.9375 64.1458 30.9583 63.125 27 63.125H12.875C8.91667 63.125 5.9375 64.1458 3.9375 66.1875C1.9375 68.1875 0.9375 71.2292 0.9375 75.3125V103.312C0.9375 107.438 1.9375 110.5 3.9375 112.5C5.9375 114.5 8.91667 115.5 12.875 115.5ZM61.25 115.5H75.375C79.3333 115.5 82.3125 114.5 84.3125 112.5C86.3125 110.5 87.3125 107.438 87.3125 103.312V75.3125C87.3125 71.2292 86.3125 68.1875 84.3125 66.1875C82.3125 64.1458 79.3333 63.125 75.375 63.125H61.25C57.25 63.125 54.25 64.1458 52.25 66.1875C50.2917 68.1875 49.3125 71.2292 49.3125 75.3125V103.312C49.3125 107.438 50.2917 110.5 52.25 112.5C54.25 114.5 57.25 115.5 61.25 115.5ZM109.625 115.5H123.688C127.688 115.5 130.667 114.5 132.625 112.5C134.625 110.5 135.625 107.438 135.625 103.312V75.3125C135.625 71.2292 134.625 68.1875 132.625 66.1875C130.667 64.1458 127.688 63.125 123.688 63.125H109.625C105.625 63.125 102.625 64.1458 100.625 66.1875C98.625 68.1875 97.625 71.2292 97.625 75.3125V103.312C97.625 107.438 98.625 110.5 100.625 112.5C102.625 114.5 105.625 115.5 109.625 115.5Z" fill="white"/>
</svg>
