<svg width="136" height="116" viewBox="0 0 136 116" fill="none" xmlns="http://www.w3.org/2000/svg">
<path d="M15.3125 52.8125H121.625C126.417 52.8125 130 51.6458 132.375 49.3125C134.792 46.9375 136 43.3333 136 38.5V14.625C136 9.83333 134.792 6.27083 132.375 3.9375C130 1.60417 126.417 0.4375 121.625 0.4375H15.3125C10.5208 0.4375 6.91667 1.60417 4.5 3.9375C2.125 6.27083 0.9375 9.83333 0.9375 14.625V38.5C0.9375 43.3333 2.125 46.9375 4.5 49.3125C6.91667 51.6458 10.5208 52.8125 15.3125 52.8125ZM16.0625 43.375C14.2292 43.375 12.8125 42.8958 11.8125 41.9375C10.8542 40.9375 10.375 39.4792 10.375 37.5625V15.6875C10.375 13.6875 10.8542 12.2292 11.8125 11.3125C12.8125 10.3542 14.2292 9.875 16.0625 9.875H120.812C122.688 9.875 124.104 10.3542 125.062 11.3125C126.062 12.2292 126.562 13.6875 126.562 15.6875V37.5625C126.562 39.4792 126.062 40.9375 125.062 41.9375C124.104 42.8958 122.688 43.375 120.812 43.375H16.0625ZM15.3125 115.5H121.625C126.417 115.5 130 114.312 132.375 111.938C134.792 109.604 136 106.042 136 101.25V77.3125C136 72.5625 134.792 69.0208 132.375 66.6875C130 64.3125 126.417 63.125 121.625 63.125H15.3125C10.5208 63.125 6.91667 64.3125 4.5 66.6875C2.125 69.0208 0.9375 72.5625 0.9375 77.3125V101.25C0.9375 106.042 2.125 109.604 4.5 111.938C6.91667 114.312 10.5208 115.5 15.3125 115.5ZM16.0625 106.062C14.2292 106.062 12.8125 105.583 11.8125 104.625C10.8542 103.667 10.375 102.208 10.375 100.25V78.375C10.375 76.4167 10.8542 74.9583 11.8125 74C12.8125 73.0417 14.2292 72.5625 16.0625 72.5625H120.812C122.688 72.5625 124.104 73.0417 125.062 74C126.062 74.9583 126.562 76.4167 126.562 78.375V100.25C126.562 102.208 126.062 103.667 125.062 104.625C124.104 105.583 122.688 106.062 120.812 106.062H16.0625Z" fill="white"/>
</svg>
