<?xml version="1.0" encoding="UTF-8"?>
<svg xmlns="http://www.w3.org/2000/svg" xmlns:xlink="http://www.w3.org/1999/xlink" width="24" height="30.857143" viewBox="0 0 24 30.857143" version="1.1">
<g id="surface1">
<path style=" stroke:none;fill-rule:nonzero;fill:rgb(100%,100%,100%);fill-opacity:1;" d="M 6.789062 9.335938 L 6.789062 22.769531 C 6.789062 23.230469 6.894531 23.570312 7.097656 23.785156 C 7.3125 23.992188 7.660156 24.09375 8.144531 24.09375 L 15.855469 24.09375 C 16.339844 24.09375 16.683594 23.992188 16.886719 23.785156 C 17.101562 23.570312 17.210938 23.230469 17.210938 22.769531 L 17.210938 9.335938 C 17.210938 8.871094 17.101562 8.535156 16.886719 8.332031 C 16.683594 8.117188 16.339844 8.007812 15.855469 8.007812 L 8.144531 8.007812 C 7.660156 8.007812 7.3125 8.117188 7.097656 8.332031 C 6.894531 8.535156 6.789062 8.871094 6.789062 9.335938 Z M 0.738281 26.210938 C 0.738281 27.613281 1.082031 28.660156 1.769531 29.355469 C 2.464844 30.054688 3.503906 30.402344 4.886719 30.402344 L 19.113281 30.402344 C 20.496094 30.402344 21.53125 30.054688 22.21875 29.355469 C 22.914062 28.660156 23.261719 27.613281 23.261719 26.210938 L 23.261719 5.894531 C 23.261719 4.5 22.914062 3.449219 22.21875 2.746094 C 21.53125 2.039062 20.496094 1.6875 19.113281 1.6875 L 4.886719 1.6875 C 3.503906 1.6875 2.464844 2.039062 1.769531 2.746094 C 1.082031 3.449219 0.738281 4.5 0.738281 5.894531 Z M 2.894531 26.167969 L 2.894531 5.933594 C 2.894531 5.261719 3.066406 4.75 3.414062 4.394531 C 3.773438 4.027344 4.300781 3.84375 4.996094 3.84375 L 19.003906 3.84375 C 19.699219 3.84375 20.222656 4.027344 20.570312 4.394531 C 20.929688 4.75 21.105469 5.261719 21.105469 5.933594 L 21.105469 26.167969 C 21.105469 26.839844 20.929688 27.351562 20.570312 27.710938 C 20.222656 28.066406 19.699219 28.246094 19.003906 28.246094 L 4.996094 28.246094 C 4.300781 28.246094 3.773438 28.066406 3.414062 27.710938 C 3.066406 27.351562 2.894531 26.839844 2.894531 26.167969 Z M 2.894531 26.167969 "/>
</g>
</svg>
