<?xml version="1.0" encoding="UTF-8"?>
<svg xmlns="http://www.w3.org/2000/svg" xmlns:xlink="http://www.w3.org/1999/xlink" width="24" height="18" viewBox="0 0 24 18" version="1.1">
<g id="surface1">
<path style=" stroke:none;fill-rule:nonzero;fill:rgb(100%,100%,100%);fill-opacity:1;" d="M 6.863281 13.117188 L 17.136719 13.117188 C 17.460938 13.117188 17.695312 13.042969 17.839844 12.898438 C 17.992188 12.75 18.066406 12.507812 18.066406 12.167969 L 18.066406 5.511719 C 18.066406 5.175781 17.992188 4.929688 17.839844 4.78125 C 17.695312 4.632812 17.460938 4.554688 17.136719 4.554688 L 6.863281 4.554688 C 6.539062 4.554688 6.300781 4.632812 6.148438 4.78125 C 6.007812 4.929688 5.933594 5.175781 5.933594 5.511719 L 5.933594 12.167969 C 5.933594 12.507812 6.007812 12.75 6.148438 12.898438 C 6.300781 13.042969 6.539062 13.117188 6.863281 13.117188 Z M 3.890625 17.464844 L 20.109375 17.464844 C 21.097656 17.464844 21.835938 17.222656 22.320312 16.734375 C 22.808594 16.253906 23.054688 15.53125 23.054688 14.570312 L 23.054688 3.113281 C 23.054688 2.148438 22.808594 1.425781 22.320312 0.9375 C 21.835938 0.449219 21.097656 0.207031 20.109375 0.207031 L 3.890625 0.207031 C 2.910156 0.207031 2.171875 0.449219 1.679688 0.9375 C 1.191406 1.417969 0.945312 2.144531 0.945312 3.113281 L 0.945312 14.570312 C 0.945312 15.53125 1.191406 16.253906 1.679688 16.734375 C 2.171875 17.222656 2.910156 17.464844 3.890625 17.464844 Z M 3.910156 15.957031 C 3.441406 15.957031 3.082031 15.835938 2.832031 15.589844 C 2.582031 15.339844 2.457031 14.972656 2.457031 14.484375 L 2.457031 3.195312 C 2.457031 2.710938 2.582031 2.339844 2.832031 2.089844 C 3.082031 1.839844 3.441406 1.714844 3.910156 1.714844 L 20.089844 1.714844 C 20.554688 1.714844 20.910156 1.839844 21.160156 2.089844 C 21.414062 2.339844 21.542969 2.710938 21.542969 3.195312 L 21.542969 14.484375 C 21.542969 14.972656 21.414062 15.339844 21.160156 15.589844 C 20.910156 15.835938 20.554688 15.957031 20.089844 15.957031 Z M 3.910156 15.957031 "/>
</g>
</svg>
