<svg xmlns="http://www.w3.org/2000/svg" width="24" height="24"><path style="stroke:none;fill-rule:nonzero;fill:#fff;fill-opacity:1" d="M2.762 10.762h2.351c.66 0 1.157-.2 1.492-.598.332-.41.5-1.027.5-1.851v-5.59c0-.825-.168-1.434-.5-1.836C6.27.488 5.773.285 5.113.285H2.762c-.66 0-1.157.203-1.492.602-.333.402-.5 1.011-.5 1.836v5.59c0 .824.167 1.44.5 1.851.335.399.832.598 1.492.598ZM2.782 9c-.18 0-.317-.055-.407-.176-.09-.113-.137-.289-.137-.515V2.723c0-.223.047-.387.137-.496.09-.118.227-.18.406-.18h2.301c.184 0 .316.062.406.18.098.109.149.273.149.496v5.59c0 .222-.051.398-.149.515-.09.117-.222.172-.406.172Zm8.042 1.762h2.352c.66 0 1.156-.2 1.492-.598.332-.41.5-1.027.5-1.851v-5.59c0-.825-.168-1.434-.5-1.836-.336-.399-.832-.602-1.492-.602h-2.352c-.668 0-1.168.203-1.5.602-.328.402-.492 1.011-.492 1.836v5.59c0 .824.164 1.44.492 1.851.332.399.832.598 1.5.598ZM10.844 9c-.18 0-.317-.055-.406-.176-.09-.113-.137-.289-.137-.515V2.723c0-.223.047-.387.136-.496.09-.118.227-.18.407-.18h2.312c.18 0 .317.062.406.18.09.109.137.273.137.496v5.59c0 .222-.047.398-.136.515-.09.117-.227.172-.407.172Zm8.043 1.762h2.343c.665 0 1.16-.2 1.489-.598.332-.41.5-1.027.5-1.851v-5.59c0-.825-.168-1.434-.5-1.836-.328-.399-.824-.602-1.489-.602h-2.343c-.668 0-1.168.203-1.5.602-.336.402-.5 1.011-.5 1.836v5.59c0 .824.164 1.44.5 1.851.332.399.832.598 1.5.598ZM18.895 9c-.18 0-.317-.055-.407-.176-.09-.113-.133-.289-.133-.515V2.723c0-.223.043-.387.133-.496.09-.118.227-.18.407-.18h2.312c.184 0 .316.062.406.18.09.109.137.273.137.496v5.59c0 .222-.047.398-.137.515-.09.117-.222.172-.406.172ZM2.762 23.3h2.351c.66 0 1.157-.198 1.492-.597.332-.406.5-1.015.5-1.84v-5.601c0-.817-.168-1.426-.5-1.825-.335-.406-.832-.613-1.492-.613H2.762c-.66 0-1.157.207-1.492.614-.333.398-.5 1.007-.5 1.824v5.601c0 .825.167 1.434.5 1.84.335.399.832.598 1.492.598Zm.02-1.76c-.18 0-.317-.06-.407-.18-.09-.106-.137-.27-.137-.497v-5.586c0-.234.047-.41.137-.515.09-.117.227-.176.406-.176h2.301c.184 0 .316.059.406.176.098.11.149.281.149.515v5.586c0 .227-.051.39-.149.496-.09.118-.222.18-.406.18Zm8.042 1.76h2.352c.66 0 1.156-.198 1.492-.597.332-.406.5-1.015.5-1.84v-5.601c0-.817-.168-1.426-.5-1.825-.336-.406-.832-.613-1.492-.613h-2.352c-.668 0-1.168.207-1.5.614-.328.398-.492 1.007-.492 1.824v5.601c0 .825.164 1.434.492 1.84.332.399.832.598 1.5.598Zm.02-1.76c-.18 0-.317-.06-.406-.18-.09-.106-.137-.27-.137-.497v-5.586c0-.234.047-.41.136-.515.09-.117.227-.176.407-.176h2.312c.18 0 .317.059.406.176.09.11.137.281.137.515v5.586c0 .227-.047.39-.136.496-.09.118-.227.18-.407.18Zm8.043 1.76h2.343c.665 0 1.16-.198 1.489-.597.332-.406.5-1.015.5-1.84v-5.601c0-.817-.168-1.426-.5-1.825-.328-.406-.824-.613-1.489-.613h-2.343c-.668 0-1.168.207-1.5.614-.336.398-.5 1.007-.5 1.824v5.601c0 .825.164 1.434.5 1.84.332.399.832.598 1.5.598Zm.008-1.76c-.18 0-.317-.06-.407-.18-.09-.106-.133-.27-.133-.497v-5.586c0-.234.043-.41.133-.515.09-.117.227-.176.407-.176h2.312c.184 0 .316.059.406.176.09.11.137.281.137.515v5.586c0 .227-.047.39-.137.496-.09.118-.222.18-.406.18Zm0 0"/></svg>