<svg xmlns="http://www.w3.org/2000/svg" width="24" height="24"><path style="stroke:none;fill-rule:nonzero;fill:#fff;fill-opacity:1" d="M4.023 23.645h9.954c.968 0 1.695-.27 2.175-.81.489-.542.73-1.358.73-2.448V15.55h-1.507v4.804c0 .524-.125.922-.375 1.2-.242.277-.61.414-1.098.414H4.098c-.489 0-.856-.137-1.106-.414-.246-.278-.367-.68-.367-1.2V4.613c0-.52.121-.922.367-1.199.25-.281.617-.426 1.106-.426h9.804c.489 0 .856.145 1.098.426.25.277.375.68.375 1.2v4.792h1.508V4.582c0-1.086-.242-1.898-.73-2.445-.481-.547-1.208-.825-2.176-.825H4.023c-.968 0-1.699.278-2.187.825-.48.547-.719 1.36-.719 2.445v15.805c0 1.09.238 1.906.719 2.449.488.539 1.219.809 2.187.809Zm5.766-10.34h9.625l1.406-.067-.664.711-1.508 1.57a.745.745 0 0 0-.226.567c0 .21.058.394.18.539a.6.6 0 0 0 .476.219c.18 0 .348-.082.496-.239l3.059-3.523a.87.87 0 0 0 0-1.207l-3.059-3.52a.655.655 0 0 0-.496-.253.62.62 0 0 0-.473.222.755.755 0 0 0-.183.531c0 .23.074.426.226.57l1.508 1.587.664.707-1.406-.074H9.79a.648.648 0 0 0-.508.253.866.866 0 0 0-.215.579c0 .222.07.418.215.585a.678.678 0 0 0 .508.243Zm0 0"/></svg>