<svg width="14" height="18" viewBox="0 0 14 18" fill="none" xmlns="http://www.w3.org/2000/svg">
<path d="M3.45312 15.4141H6.29688C6.54688 15.4141 6.72656 15.3594 6.83594 15.25C6.94531 15.1458 7 14.9714 7 14.7266V10.0469C7 9.80208 6.94531 9.6276 6.83594 9.52344C6.72656 9.41406 6.54688 9.35938 6.29688 9.35938H3.45312C3.20312 9.35938 3.02344 9.41406 2.91406 9.52344C2.8099 9.6276 2.75781 9.80208 2.75781 10.0469V14.7266C2.75781 14.9714 2.8099 15.1458 2.91406 15.25C3.02344 15.3594 3.20312 15.4141 3.45312 15.4141ZM0.429688 15.2891C0.429688 16.1068 0.630208 16.7188 1.03125 17.125C1.4375 17.5312 2.04427 17.7344 2.85156 17.7344H11.1484C11.9557 17.7344 12.5599 17.5312 12.9609 17.125C13.3672 16.7188 13.5703 16.1068 13.5703 15.2891V3.4375C13.5703 2.625 13.3672 2.01302 12.9609 1.60156C12.5599 1.1901 11.9557 0.984375 11.1484 0.984375H2.85156C2.04427 0.984375 1.4375 1.1901 1.03125 1.60156C0.630208 2.01302 0.429688 2.625 0.429688 3.4375V15.2891ZM1.6875 15.2656V3.46094C1.6875 3.07031 1.78906 2.77083 1.99219 2.5625C2.20052 2.34896 2.50781 2.24219 2.91406 2.24219H11.0859C11.4922 2.24219 11.7969 2.34896 12 2.5625C12.2083 2.77083 12.3125 3.07031 12.3125 3.46094V15.2656C12.3125 15.6562 12.2083 15.9557 12 16.1641C11.7969 16.3724 11.4922 16.4766 11.0859 16.4766H2.91406C2.50781 16.4766 2.20052 16.3724 1.99219 16.1641C1.78906 15.9557 1.6875 15.6562 1.6875 15.2656Z" fill="white"/>
</svg>
