<svg width="16" height="17" viewBox="0 0 16 17" fill="none" xmlns="http://www.w3.org/2000/svg">
<path d="M8 16.3281C9.08854 16.3281 10.112 16.1198 11.0703 15.7031C12.0339 15.2865 12.8828 14.7109 13.6172 13.9766C14.3516 13.2422 14.9271 12.3958 15.3438 11.4375C15.7604 10.474 15.9688 9.44792 15.9688 8.35938C15.9688 7.27083 15.7604 6.2474 15.3438 5.28906C14.9271 4.32552 14.3516 3.47656 13.6172 2.74219C12.8828 2.00781 12.0339 1.43229 11.0703 1.01562C10.1068 0.598958 9.08073 0.390625 7.99219 0.390625C6.90365 0.390625 5.8776 0.598958 4.91406 1.01562C3.95573 1.43229 3.10938 2.00781 2.375 2.74219C1.64583 3.47656 1.07292 4.32552 0.65625 5.28906C0.239583 6.2474 0.03125 7.27083 0.03125 8.35938C0.03125 9.44792 0.239583 10.474 0.65625 11.4375C1.07292 12.3958 1.64844 13.2422 2.38281 13.9766C3.11719 14.7109 3.96354 15.2865 4.92188 15.7031C5.88542 16.1198 6.91146 16.3281 8 16.3281ZM6.1875 12.1172C5.81771 12.1172 5.53906 12.026 5.35156 11.8438C5.16927 11.6615 5.07812 11.3854 5.07812 11.0156V7.24219C5.07812 6.88281 5.16927 6.61198 5.35156 6.42969C5.53906 6.2474 5.81771 6.15625 6.1875 6.15625H11.5703C11.9401 6.15625 12.2161 6.2474 12.3984 6.42969C12.5859 6.61198 12.6797 6.88281 12.6797 7.24219V11.0156C12.6797 11.3854 12.5859 11.6615 12.3984 11.8438C12.2161 12.026 11.9401 12.1172 11.5703 12.1172H6.1875ZM4.60156 7.19531V10.4062H4.41406C4.04427 10.4062 3.76823 10.3177 3.58594 10.1406C3.40365 9.95833 3.3125 9.6849 3.3125 9.32031V5.57812C3.3125 5.20833 3.40365 4.9349 3.58594 4.75781C3.76823 4.57552 4.04427 4.48438 4.41406 4.48438H9.80469C10.1745 4.48438 10.4505 4.57552 10.6328 4.75781C10.8151 4.9349 10.9062 5.20833 10.9062 5.57812V5.67188H6.14062C5.63021 5.67188 5.24479 5.80208 4.98438 6.0625C4.72917 6.31771 4.60156 6.69531 4.60156 7.19531Z" fill="white"/>
</svg>
