<svg width="107" height="135" viewBox="0 0 107 135" fill="none" xmlns="http://www.w3.org/2000/svg">
<path d="M25.125 67.875H47.875C49.875 67.875 51.3125 67.4583 52.1875 66.625C53.0625 65.75 53.5 64.3333 53.5 62.375V25C53.5 23.0417 53.0625 21.6458 52.1875 20.8125C51.3125 19.9375 49.875 19.5 47.875 19.5H25.125C23.125 19.5 21.6875 19.9375 20.8125 20.8125C19.9792 21.6458 19.5625 23.0417 19.5625 25V62.375C19.5625 64.3333 19.9792 65.75 20.8125 66.625C21.6875 67.4583 23.125 67.875 25.125 67.875ZM0.9375 115.312C0.9375 121.854 2.54167 126.75 5.75 130C9 133.25 13.8542 134.875 20.3125 134.875H86.6875C93.1458 134.875 97.9792 133.25 101.188 130C104.438 126.75 106.062 121.854 106.062 115.312V20.5C106.062 14 104.438 9.10417 101.188 5.8125C97.9792 2.52083 93.1458 0.875 86.6875 0.875H20.3125C13.8542 0.875 9 2.52083 5.75 5.8125C2.54167 9.10417 0.9375 14 0.9375 20.5V115.312ZM11 115.125V20.6875C11 17.5625 11.8125 15.1667 13.4375 13.5C15.1042 11.7917 17.5625 10.9375 20.8125 10.9375H86.1875C89.4375 10.9375 91.875 11.7917 93.5 13.5C95.1667 15.1667 96 17.5625 96 20.6875V115.125C96 118.25 95.1667 120.646 93.5 122.312C91.875 123.979 89.4375 124.812 86.1875 124.812H20.8125C17.5625 124.812 15.1042 123.979 13.4375 122.312C11.8125 120.646 11 118.25 11 115.125Z" fill="white"/>
</svg>
