<svg width="107" height="135" viewBox="0 0 107 135" fill="none" xmlns="http://www.w3.org/2000/svg">
<path d="M25.125 116.312H81.875C83.875 116.312 85.2917 115.875 86.125 115C87 114.167 87.4375 112.771 87.4375 110.812V89.5C87.4375 87.5417 87 86.1458 86.125 85.3125C85.2917 84.4375 83.875 84 81.875 84H25.125C23.125 84 21.6875 84.4375 20.8125 85.3125C19.9792 86.1458 19.5625 87.5417 19.5625 89.5V110.812C19.5625 112.771 19.9792 114.167 20.8125 115C21.6875 115.875 23.125 116.312 25.125 116.312ZM0.9375 115.312C0.9375 121.854 2.54167 126.75 5.75 130C9 133.25 13.8542 134.875 20.3125 134.875H86.6875C93.1458 134.875 97.9792 133.25 101.188 130C104.438 126.75 106.062 121.854 106.062 115.312V20.5C106.062 14 104.438 9.10417 101.188 5.8125C97.9792 2.52083 93.1458 0.875 86.6875 0.875H20.3125C13.8542 0.875 9 2.52083 5.75 5.8125C2.54167 9.10417 0.9375 14 0.9375 20.5V115.312ZM11 115.125V20.6875C11 17.5625 11.8125 15.1667 13.4375 13.5C15.1042 11.7917 17.5625 10.9375 20.8125 10.9375H86.1875C89.4375 10.9375 91.875 11.7917 93.5 13.5C95.1667 15.1667 96 17.5625 96 20.6875V115.125C96 118.25 95.1667 120.646 93.5 122.312C91.875 123.979 89.4375 124.812 86.1875 124.812H20.8125C17.5625 124.812 15.1042 123.979 13.4375 122.312C11.8125 120.646 11 118.25 11 115.125Z" fill="white"/>
</svg>
