<svg width="127" height="135" viewBox="0 0 127 135" fill="none" xmlns="http://www.w3.org/2000/svg">
<path d="M30.3125 134.875H96.6875C102.146 134.875 106.354 133.646 109.312 131.188L101.25 123.062C100.083 124.229 98.3958 124.812 96.1875 124.812H30.8125C27.5625 124.812 25.1042 123.979 23.4375 122.312C21.8125 120.646 21 118.25 21 115.125V42.8125L10.9375 32.75V115.312C10.9375 121.854 12.5417 126.75 15.75 130C19 133.25 23.8542 134.875 30.3125 134.875ZM25.75 12.75C26.875 11.5417 28.5625 10.9375 30.8125 10.9375H96.1875C99.4375 10.9375 101.875 11.7917 103.5 13.5C105.167 15.1667 106 17.5625 106 20.6875V93.125L116.062 103.188V20.5C116.062 14 114.438 9.10417 111.188 5.8125C107.979 2.52083 103.146 0.875 96.6875 0.875H30.3125C24.8958 0.875 20.6875 2.14583 17.6875 4.6875L25.75 12.75ZM68.5 55.625V7.375H58.5V45.5625L68.5 55.625ZM58.5 129.375H68.5V90.3125L58.5 80.25V129.375ZM118.75 129.875C119.708 130.833 120.854 131.312 122.188 131.312C123.521 131.312 124.646 130.833 125.562 129.875C126.479 128.958 126.938 127.812 126.938 126.438C126.979 125.104 126.521 123.958 125.562 123L8.375 5.875C7.41667 4.95833 6.27083 4.5 4.9375 4.5C3.60417 4.5 2.45833 4.95833 1.5 5.875C0.583333 6.79167 0.125 7.9375 0.125 9.3125C0.125 10.6458 0.583333 11.7708 1.5 12.6875L118.75 129.875Z" fill="white"/>
</svg>
