<?xml version="1.0" encoding="UTF-8"?>
<svg xmlns="http://www.w3.org/2000/svg" xmlns:xlink="http://www.w3.org/1999/xlink" width="24" height="18" viewBox="0 0 24 18" version="1.1">
<g id="surface1">
<path style=" stroke:none;fill-rule:nonzero;fill:rgb(100%,100%,100%);fill-opacity:1;" d="M 8.726562 0.214844 C 6.867188 0.214844 5.339844 0.503906 4.152344 1.078125 C 2.964844 1.648438 2.085938 2.507812 1.519531 3.664062 C 0.949219 4.820312 0.664062 6.273438 0.664062 8.023438 L 0.664062 14.570312 C 0.664062 15.539062 0.910156 16.261719 1.398438 16.742188 C 1.890625 17.230469 2.628906 17.476562 3.609375 17.476562 L 20.390625 17.476562 C 21.371094 17.476562 22.105469 17.230469 22.59375 16.742188 C 23.085938 16.261719 23.335938 15.539062 23.335938 14.570312 L 23.335938 8.023438 C 23.335938 6.273438 23.050781 4.820312 22.480469 3.664062 C 21.917969 2.507812 21.039062 1.648438 19.847656 1.078125 C 18.660156 0.503906 17.136719 0.214844 15.28125 0.214844 Z M 8.726562 1.742188 L 15.273438 1.742188 C 16.789062 1.742188 18.03125 1.96875 18.992188 2.417969 C 19.960938 2.863281 20.675781 3.542969 21.132812 4.460938 C 21.59375 5.382812 21.824219 6.539062 21.824219 7.941406 L 21.824219 14.492188 C 21.824219 14.980469 21.695312 15.351562 21.441406 15.601562 C 21.191406 15.84375 20.835938 15.964844 20.371094 15.964844 L 3.628906 15.964844 C 2.660156 15.964844 2.175781 15.476562 2.175781 14.492188 L 2.175781 7.941406 C 2.175781 6.539062 2.402344 5.382812 2.859375 4.460938 C 3.320312 3.542969 4.035156 2.863281 4.996094 2.417969 C 5.964844 1.96875 7.210938 1.742188 8.726562 1.742188 Z M 8.726562 1.742188 "/>
</g>
</svg>
