<svg xmlns="http://www.w3.org/2000/svg" width="24" height="24"><path style="stroke:none;fill-rule:nonzero;fill:#fff;fill-opacity:1" d="M3.375 23.29h9.465a3.742 3.742 0 0 1-.149-.966 7.86 7.86 0 0 1 .059-1.05H3.398c-.406 0-.722-.16-.945-.485-.215-.336-.324-.828-.324-1.477V4.262c0-.653.11-1.145.324-1.48.223-.329.54-.497.945-.497h14.063c.402 0 .715.168.937.496.223.34.336.828.336 1.48v1.2c.227.004.45.043.66.101.211.047.43.153.653.301v-1.71c0-1.286-.215-2.255-.645-2.9-.425-.655-1.062-.976-1.914-.976H3.375c-.848 0-1.488.32-1.914.973-.43.64-.645 1.605-.645 2.902v15.274c0 1.281.215 2.246.645 2.887.426.652 1.066.972 1.914.972Zm.586-3.716h9.187a7.066 7.066 0 0 1 .801-1.762c.34-.542.739-1.019 1.188-1.425.457-.418.949-.75 1.476-.989-.414-.503-.75-1.144-.976-1.875a8.213 8.213 0 0 1-.367-2.496 8.131 8.131 0 0 1 .293-2.277c.207-.703.488-1.316.84-1.824.359-.516.761-.895 1.214-1.13V5.13c0-.754-.238-1.129-.719-1.129H3.961c-.477 0-.715.375-.715 1.129v13.32c0 .754.238 1.125.715 1.125Zm10.828 3.711h7.867c.309 0 .551-.098.723-.308.18-.207.281-.532.27-.875 0-.586-.114-1.192-.34-1.825a6.574 6.574 0 0 0-.989-1.8c-.457-.598-.98-1.067-1.547-1.375a4.052 4.052 0 0 0-2.046-.528c-.762 0-1.446.18-2.055.528-.57.312-1.098.777-1.559 1.375a6.438 6.438 0 0 0-.984 1.8 5.482 5.482 0 0 0-.336 1.825c0 .37.086.664.262.875.18.21.422.312.734.312Zm3.938-8.308c.418 0 .804-.176 1.156-.524.355-.351.64-.828.855-1.426a5.85 5.85 0 0 0 .328-2.023c0-.738-.109-1.395-.328-1.98-.203-.567-.504-1.04-.863-1.376-.344-.328-.742-.5-1.148-.496-.418 0-.809.168-1.168.508-.352.336-.637.797-.856 1.39a5.659 5.659 0 0 0-.324 1.977c0 .743.11 1.414.324 2.012.219.586.504 1.059.856 1.414.359.348.75.524 1.168.524Zm0 0"/></svg>