<svg xmlns="http://www.w3.org/2000/svg" width="24" height="24"><path style="stroke:none;fill-rule:nonzero;fill:#fff;fill-opacity:1" d="M5.918 9.793h12.164c.426 0 .73-.07.91-.211.188-.137.281-.371.281-.695V5.332c0-.324-.093-.559-.28-.695-.18-.149-.485-.219-.911-.219H5.918c-.426 0-.734.07-.922.219-.18.136-.27.37-.27.695v3.555c0 .324.09.558.27.695.188.14.496.211.922.211ZM.738 20.387c0 1.09.344 1.906 1.032 2.445.695.543 1.734.813 3.117.813h14.226c1.383 0 2.418-.27 3.106-.813.695-.539 1.043-1.355 1.043-2.445V4.586c0-1.086-.348-1.902-1.043-2.45-.688-.55-1.723-.824-3.106-.824H4.887c-1.383 0-2.422.274-3.117.825C1.082 2.684.738 3.5.738 4.586Zm2.157-.035V4.617c0-.523.171-.922.52-1.199.358-.285.886-.43 1.581-.43h14.008c.695 0 1.219.145 1.566.43.36.277.535.676.535 1.2v15.734c0 .523-.175.921-.535 1.203-.347.273-.87.414-1.566.414H4.996c-.695 0-1.223-.14-1.582-.414-.348-.282-.52-.68-.52-1.203Zm0 0"/></svg>