<svg xmlns="http://www.w3.org/2000/svg" width="24" height="24"><path style="stroke:none;fill-rule:nonzero;fill:#fff;fill-opacity:1" d="M4.555 11.777h6.62c.294 0 .505-.09.63-.27.129-.167.195-.456.195-.855V5.125c0-.402-.066-.688-.195-.863-.125-.172-.336-.262-.63-.262h-6.62c-.293 0-.5.09-.625.262-.125.176-.188.46-.188.863v5.527c0 .399.063.688.188.86.125.175.332.265.625.265Zm-.664 11.66h16.218c.989 0 1.727-.324 2.211-.972.489-.64.735-1.61.735-2.902V4.3c0-1.293-.246-2.258-.735-2.899C21.836.75 21.098.43 20.11.43H3.89c-.98 0-1.718.32-2.21.972-.489.641-.735 1.61-.735 2.899v15.261c0 1.293.246 2.262.735 2.903.492.648 1.23.973 2.21.973Zm.02-2.011c-.47 0-.829-.164-1.079-.5-.25-.332-.375-.82-.375-1.461V4.398c0-.652.125-1.14.375-1.46.25-.336.61-.5 1.078-.5h16.18c.465 0 .82.164 1.07.5.254.32.383.812.383 1.46v15.063c0 .64-.129 1.133-.383 1.465-.25.332-.605.5-1.07.5Zm0 0"/></svg>