<svg width="149" height="116" viewBox="0 0 149 116" fill="none" xmlns="http://www.w3.org/2000/svg">
<path d="M106.625 96.875H124.25C126.208 96.875 127.604 96.4375 128.438 95.5625C129.312 94.6875 129.75 93.25 129.75 91.25V24.625C129.75 22.625 129.312 21.1875 128.438 20.3125C127.604 19.4375 126.208 19 124.25 19H106.625C104.667 19 103.25 19.4375 102.375 20.3125C101.542 21.1875 101.125 22.625 101.125 24.625V91.25C101.125 93.25 101.542 94.6875 102.375 95.5625C103.25 96.4375 104.667 96.875 106.625 96.875ZM20.5625 115.438H128.688C135.271 115.438 140.188 113.812 143.438 110.562C146.688 107.354 148.312 102.542 148.312 96.125V19.75C148.312 13.3333 146.688 8.5 143.438 5.25C140.188 2 135.271 0.375 128.688 0.375H20.5625C14.0208 0.375 9.10417 2 5.8125 5.25C2.5625 8.45833 0.9375 13.2917 0.9375 19.75V96.125C0.9375 102.542 2.5625 107.354 5.8125 110.562C9.10417 113.812 14.0208 115.438 20.5625 115.438ZM20.6875 105.375C17.5625 105.375 15.1667 104.562 13.5 102.938C11.8333 101.271 11 98.8125 11 95.5625V20.3125C11 17.0625 11.8333 14.6042 13.5 12.9375C15.1667 11.2708 17.5625 10.4375 20.6875 10.4375H128.562C131.646 10.4375 134.021 11.2708 135.688 12.9375C137.396 14.6042 138.25 17.0625 138.25 20.3125V95.5625C138.25 98.8125 137.396 101.271 135.688 102.938C134.021 104.562 131.646 105.375 128.562 105.375H20.6875Z" fill="white"/>
</svg>
