<svg width="20" height="17" viewBox="0 0 20 17" fill="none" xmlns="http://www.w3.org/2000/svg">
<path d="M6.59375 16.2734H17.2656C18.0781 16.2734 18.6901 16.0703 19.1016 15.6641C19.513 15.263 19.7188 14.6589 19.7188 13.8516V6.48438C19.7188 5.68229 19.513 5.07812 19.1016 4.67188C18.6901 4.26562 18.0781 4.0625 17.2656 4.0625H6.59375C5.77604 4.0625 5.16146 4.26562 4.75 4.67188C4.34375 5.07292 4.14062 5.67708 4.14062 6.48438V13.8516C4.14062 14.6589 4.34375 15.263 4.75 15.6641C5.16146 16.0703 5.77604 16.2734 6.59375 16.2734ZM6.59375 3H15.7734V2.86719C15.7734 2.0651 15.5677 1.46094 15.1562 1.05469C14.7448 0.648438 14.1328 0.445312 13.3203 0.445312H2.73438C1.91667 0.445312 1.30208 0.648438 0.890625 1.05469C0.484375 1.45573 0.28125 2.0599 0.28125 2.86719V10.2344C0.28125 11.0417 0.484375 11.6484 0.890625 12.0547C1.30208 12.4557 1.91667 12.6562 2.73438 12.6562H3.07031V6.48438C3.07031 5.75 3.20833 5.1224 3.48438 4.60156C3.76562 4.08073 4.16667 3.6849 4.6875 3.41406C5.21354 3.13802 5.84896 3 6.59375 3Z" fill="white"/>
</svg>
