<svg width="149" height="116" viewBox="0 0 149 116" fill="none" xmlns="http://www.w3.org/2000/svg">
<path d="M0.9375 96.125C0.9375 102.542 2.5625 107.354 5.8125 110.562C9.10417 113.812 14.0208 115.438 20.5625 115.438H128.688C135.271 115.438 140.188 113.812 143.438 110.562C146.688 107.354 148.312 102.542 148.312 96.125V19.75C148.312 13.3333 146.688 8.5 143.438 5.25C140.188 2 135.271 0.375 128.688 0.375H20.5625C14.0208 0.375 9.10417 2 5.8125 5.25C2.5625 8.45833 0.9375 13.2917 0.9375 19.75V96.125ZM74.75 105.375V10.4375H128.562C131.646 10.4375 134.021 11.2708 135.688 12.9375C137.396 14.6042 138.25 17.0625 138.25 20.3125V95.5625C138.25 98.8125 137.396 101.271 135.688 102.938C134.021 104.562 131.646 105.375 128.562 105.375H74.75Z" fill="white"/>
</svg>
