<svg width="20" height="15" viewBox="0 0 20 15" fill="none" xmlns="http://www.w3.org/2000/svg">
<path d="M0.789062 12.1406C0.789062 12.9427 0.992188 13.5443 1.39844 13.9453C1.8099 14.3516 2.42448 14.5547 3.24219 14.5547H16.7578C17.5807 14.5547 18.1953 14.3516 18.6016 13.9453C19.0078 13.5443 19.2109 12.9427 19.2109 12.1406V2.59375C19.2109 1.79167 19.0078 1.1875 18.6016 0.78125C18.1953 0.375 17.5807 0.171875 16.7578 0.171875H3.24219C2.42448 0.171875 1.8099 0.375 1.39844 0.78125C0.992188 1.18229 0.789062 1.78646 0.789062 2.59375V12.1406ZM2.04688 12.0703V2.66406C2.04688 2.25781 2.15104 1.95052 2.35938 1.74219C2.56771 1.53385 2.86719 1.42969 3.25781 1.42969H10.0156V13.2969H3.25781C2.86719 13.2969 2.56771 13.1953 2.35938 12.9922C2.15104 12.7839 2.04688 12.4766 2.04688 12.0703Z" fill="white"/>
</svg>
