<svg width="12" height="19" viewBox="0 0 12 19" fill="none" xmlns="http://www.w3.org/2000/svg">
<path d="M0.570312 6.39844H11.4297V2.15625C11.4297 1.66667 11.2839 1.27344 10.9922 0.976562C10.7057 0.674479 10.3255 0.523438 9.85156 0.523438H2.14062C1.67188 0.523438 1.29167 0.674479 1 0.976562C0.713542 1.27344 0.570312 1.66667 0.570312 2.15625V6.39844ZM2.73438 4.92969C2.61979 4.92969 2.52344 4.89323 2.44531 4.82031C2.3724 4.7474 2.33594 4.65104 2.33594 4.53125V2.75C2.33594 2.64062 2.3724 2.54948 2.44531 2.47656C2.51823 2.39844 2.61458 2.35938 2.73438 2.35938C2.84375 2.35938 2.9349 2.39583 3.00781 2.46875C3.08594 2.54167 3.125 2.63542 3.125 2.75V4.53125C3.125 4.64583 3.08854 4.74219 3.01562 4.82031C2.94271 4.89323 2.84896 4.92969 2.73438 4.92969ZM0.570312 15.0703H11.4297V7.3125H0.570312V15.0703ZM2.73438 11.0469C2.61979 11.0469 2.52344 11.0104 2.44531 10.9375C2.3724 10.8646 2.33594 10.7708 2.33594 10.6562V8.875C2.33594 8.76042 2.3724 8.66667 2.44531 8.59375C2.51823 8.52083 2.61458 8.48438 2.73438 8.48438C2.84375 8.48438 2.9349 8.52083 3.00781 8.59375C3.08594 8.66667 3.125 8.76042 3.125 8.875V10.6562C3.125 10.7708 3.08854 10.8646 3.01562 10.9375C2.94271 11.0104 2.84896 11.0469 2.73438 11.0469ZM0.570312 15.9844V16.5703C0.570312 17.0599 0.713542 17.4531 1 17.75C1.29167 18.0521 1.67188 18.2031 2.14062 18.2031H9.85156C10.3255 18.2031 10.7057 18.0521 10.9922 17.75C11.2839 17.4531 11.4297 17.0599 11.4297 16.5703V15.9844H0.570312Z" fill="white"/>
</svg>
