<svg xmlns="http://www.w3.org/2000/svg" width="24" height="24"><path style="stroke:none;fill-rule:nonzero;fill:#fff;fill-opacity:1" d="M4.36 22.984h15.265c1.082 0 1.957-.218 2.625-.652.668-.426 1-.996 1-1.707V3.012c0-.711-.332-1.282-1-1.711-.668-.434-1.543-.649-2.625-.649H4.359c-1.074 0-1.941.215-2.609.649-.668.43-1 1-1 1.71v17.614c0 .71.332 1.281 1 1.707.668.434 1.535.652 2.61.652Zm.124-1.59c-.363 0-.66-.07-.89-.218-.219-.137-.328-.324-.328-.559V3.031c0-.238.109-.43.328-.574.23-.144.527-.219.89-.219h15.032c.363 0 .656.075.875.219.23.145.343.336.343.574v17.582c0 .239-.113.426-.343.563-.22.144-.512.219-.875.219ZM6.172 6.583c.23 0 .418-.047.562-.137.149-.097.227-.23.22-.367v-2.18c.007-.136-.071-.27-.22-.367a1.072 1.072 0 0 0-.562-.136 1.102 1.102 0 0 0-.578.136c-.149.098-.227.23-.219.367v2.18c0 .152.074.274.219.367.144.09.34.137.578.137ZM2.609 9.395h18.797V8.102H2.61Zm3.563 4.125c.23 0 .418-.047.562-.137.149-.094.227-.223.22-.356v-2.191c.007-.133-.071-.262-.22-.356a1.004 1.004 0 0 0-.562-.136 1.067 1.067 0 0 0-.578.136c-.149.094-.227.223-.219.356v2.191c0 .145.074.262.219.356.144.09.34.137.578.137Zm-3.563 6.433h18.797V18.66H2.61Zm0 0"/></svg>