<svg width="16" height="17" viewBox="0 0 16 17" fill="none" xmlns="http://www.w3.org/2000/svg">
<path d="M8 16.3281C9.08854 16.3281 10.112 16.1198 11.0703 15.7031C12.0339 15.2865 12.8828 14.7109 13.6172 13.9766C14.3516 13.2422 14.9271 12.3958 15.3438 11.4375C15.7604 10.474 15.9688 9.44792 15.9688 8.35938C15.9688 7.27083 15.7604 6.2474 15.3438 5.28906C14.9271 4.32552 14.3516 3.47656 13.6172 2.74219C12.8828 2.00781 12.0339 1.43229 11.0703 1.01562C10.1068 0.598958 9.08073 0.390625 7.99219 0.390625C6.90365 0.390625 5.8776 0.598958 4.91406 1.01562C3.95573 1.43229 3.10938 2.00781 2.375 2.74219C1.64583 3.47656 1.07292 4.32552 0.65625 5.28906C0.239583 6.2474 0.03125 7.27083 0.03125 8.35938C0.03125 9.44792 0.239583 10.474 0.65625 11.4375C1.07292 12.3958 1.64844 13.2422 2.38281 13.9766C3.11719 14.7109 3.96354 15.2865 4.92188 15.7031C5.88542 16.1198 6.91146 16.3281 8 16.3281ZM2.82031 8.33594V7.85938C2.82031 7.20312 3.03385 6.68229 3.46094 6.29688C3.88802 5.91146 4.46094 5.71875 5.17969 5.71875H7.14844V4.73438C7.14844 4.61458 7.18229 4.52083 7.25 4.45312C7.31771 4.38542 7.41406 4.35156 7.53906 4.35156C7.64844 4.35156 7.74479 4.38542 7.82812 4.45312L9.58594 5.91406C9.6901 5.9974 9.74219 6.09635 9.74219 6.21094C9.74219 6.32031 9.6901 6.41667 9.58594 6.5L7.82812 7.96094C7.74479 8.02865 7.64844 8.0625 7.53906 8.0625C7.41406 8.0625 7.31771 8.02865 7.25 7.96094C7.18229 7.89323 7.14844 7.80208 7.14844 7.6875V6.67969H5.08594C4.6901 6.67969 4.3724 6.79688 4.13281 7.03125C3.89844 7.26042 3.78125 7.5599 3.78125 7.92969V8.33594C3.78125 8.47135 3.73438 8.58594 3.64062 8.67969C3.54688 8.77344 3.43229 8.82031 3.29688 8.82031C3.16146 8.82031 3.04688 8.77344 2.95312 8.67969C2.86458 8.58594 2.82031 8.47135 2.82031 8.33594ZM12.4453 8.82031V9.29688C12.4453 9.94792 12.2318 10.4688 11.8047 10.8594C11.3776 11.2448 10.8021 11.4375 10.0781 11.4375H7.11719V12.4375C7.11719 12.5521 7.08333 12.6432 7.01562 12.7109C6.94792 12.7786 6.85156 12.8125 6.72656 12.8125C6.61198 12.8125 6.51302 12.7786 6.42969 12.7109L4.67188 11.2578C4.57292 11.1745 4.52083 11.0755 4.51562 10.9609C4.51562 10.8464 4.5651 10.75 4.66406 10.6719L6.42969 9.21094C6.51823 9.14323 6.61719 9.10938 6.72656 9.10938C6.84635 9.10938 6.9401 9.14323 7.00781 9.21094C7.08073 9.27344 7.11719 9.36458 7.11719 9.48438V10.4766H10.1719C10.5677 10.4766 10.8828 10.362 11.1172 10.1328C11.3568 9.90365 11.4766 9.60156 11.4766 9.22656V8.82031C11.4766 8.6849 11.5234 8.57292 11.6172 8.48438C11.7109 8.39062 11.8255 8.34375 11.9609 8.34375C12.0964 8.34375 12.2109 8.39062 12.3047 8.48438C12.3984 8.57292 12.4453 8.6849 12.4453 8.82031ZM11.9609 7.49219C11.8047 7.49219 11.6797 7.44531 11.5859 7.35156C11.4922 7.25781 11.4453 7.13281 11.4453 6.97656V5.30469H11.5234L11.0391 5.6875C10.9609 5.74479 10.8802 5.77344 10.7969 5.77344C10.6875 5.77344 10.599 5.74219 10.5312 5.67969C10.4688 5.61198 10.4375 5.53125 10.4375 5.4375C10.4375 5.30729 10.4896 5.20052 10.5938 5.11719L11.2188 4.64844C11.4375 4.48177 11.6536 4.39844 11.8672 4.39844C12.0443 4.39844 12.1875 4.45312 12.2969 4.5625C12.4062 4.67188 12.4609 4.81771 12.4609 5V6.97656C12.4609 7.13281 12.4141 7.25781 12.3203 7.35156C12.2318 7.44531 12.112 7.49219 11.9609 7.49219Z" fill="white"/>
</svg>
