<svg xmlns="http://www.w3.org/2000/svg" width="24" height="24"><path style="stroke:none;fill-rule:nonzero;fill:#fff;fill-opacity:1" d="M12 23.05c1.633 0 3.168-.292 4.605-.882a12.22 12.22 0 0 0 3.82-2.438 11.467 11.467 0 0 0 2.59-3.582c.626-1.363.938-2.808.938-4.347a10.2 10.2 0 0 0-.937-4.332 11.53 11.53 0 0 0-2.59-3.598 12.361 12.361 0 0 0-3.82-2.437A12.166 12.166 0 0 0 11.987.55c-1.633 0-3.172.293-4.617.883A12.307 12.307 0 0 0 3.562 3.87 11.523 11.523 0 0 0 .985 7.465 10.2 10.2 0 0 0 .047 11.8c0 1.539.312 2.984.937 4.347a11.467 11.467 0 0 0 2.59 3.582 12.236 12.236 0 0 0 3.809 2.438c1.445.59 2.984.883 4.617.883Zm0-1.874a10.222 10.222 0 0 1-7.055-2.734 9.548 9.548 0 0 1-2.133-2.989 8.83 8.83 0 0 1-.761-3.652c0-1.301.254-2.52.761-3.649A9.52 9.52 0 0 1 4.946 5.16 9.82 9.82 0 0 1 8.11 3.156c1.204-.488 2.496-.73 3.88-.73 1.382 0 2.675.242 3.878.73a9.701 9.701 0 0 1 3.176 2.004 9.432 9.432 0 0 1 2.145 2.992 8.685 8.685 0 0 1 .773 3.649c0 1.3-.258 2.52-.773 3.652a9.22 9.22 0 0 1-2.133 2.988A10.222 10.222 0 0 1 12 21.176ZM4.441 11.78c0 .184.067.34.2.473a.69.69 0 0 0 .492.187.69.69 0 0 0 .492-.187c.14-.133.21-.29.21-.473v-.554c0-.512.173-.93.517-1.247.351-.316.812-.472 1.382-.472h3v1.379c0 .16.047.289.141.386.102.086.242.13.422.13a.654.654 0 0 0 .422-.141l2.554-1.996c.157-.118.235-.25.235-.399 0-.152-.078-.285-.235-.398L11.72 6.465a.67.67 0 0 0-.422-.133c-.18 0-.32.047-.422.14a.495.495 0 0 0-.14.376v1.359h-2.86c-1.047 0-1.883.266-2.508.793-.617.523-.926 1.234-.926 2.129Zm13.993.66a.605.605 0 0 0-.211-.464.704.704 0 0 0-.493-.188.759.759 0 0 0-.503.188.618.618 0 0 0-.2.464v.551c0 .516-.172.93-.515 1.246-.344.317-.805.477-1.383.477h-4.441v-1.36c0-.16-.051-.285-.153-.375a.593.593 0 0 0-.41-.144.66.66 0 0 0-.434.144l-2.566 1.997a.475.475 0 0 0-.21.398c.007.156.089.3.222.395l2.554 1.996a.69.69 0 0 0 .434.132c.18 0 .316-.043.41-.132.102-.086.152-.211.152-.375v-1.375h4.301c1.055 0 1.89-.262 2.508-.786.625-.527.938-1.242.938-2.14Zm-.704-1.82c.227 0 .403-.062.528-.187a.703.703 0 0 0 .199-.52v-2.7c0-.253-.082-.448-.246-.597-.156-.152-.363-.23-.621-.23-.313 0-.625.113-.938.34l-.902.652a.503.503 0 0 0-.234.43c0 .125.046.234.14.332a.58.58 0 0 0 .387.132.625.625 0 0 0 .352-.12l.703-.52h-.118v2.281a.7.7 0 0 0 .2.52c.14.125.324.187.55.187Zm0 0"/></svg>