<svg width="18" height="15" viewBox="0 0 18 15" fill="none" xmlns="http://www.w3.org/2000/svg">
<path d="M1.32031 7.64844C1.50781 7.64844 1.66406 7.58594 1.78906 7.46094C1.91927 7.33073 1.98438 7.17188 1.98438 6.98438V6.24219C1.98438 5.57031 2.19531 5.03385 2.61719 4.63281C3.03906 4.22656 3.60417 4.02344 4.3125 4.02344H10.4062V5.85938C10.4062 6.01562 10.4505 6.13802 10.5391 6.22656C10.6276 6.3099 10.7526 6.35156 10.9141 6.35156C10.987 6.35156 11.0573 6.33854 11.125 6.3125C11.1927 6.28646 11.2552 6.25 11.3125 6.20312L14.2656 3.75781C14.3906 3.65365 14.4557 3.53125 14.4609 3.39062C14.4661 3.25 14.401 3.125 14.2656 3.01562L11.3125 0.5625C11.2552 0.515625 11.1927 0.481771 11.125 0.460938C11.0573 0.434896 10.987 0.421875 10.9141 0.421875C10.7526 0.421875 10.6276 0.463542 10.5391 0.546875C10.4505 0.630208 10.4062 0.752604 10.4062 0.914062V2.72656H4.4375C3.67188 2.72656 3.00521 2.86458 2.4375 3.14062C1.875 3.41667 1.4375 3.8099 1.125 4.32031C0.8125 4.83073 0.65625 5.4401 0.65625 6.14844V6.98438C0.65625 7.17188 0.71875 7.33073 0.84375 7.46094C0.96875 7.58594 1.1276 7.64844 1.32031 7.64844ZM16.6719 7.09375C16.4792 7.09375 16.3203 7.15625 16.1953 7.28125C16.0703 7.40625 16.0078 7.5651 16.0078 7.75781V8.5C16.0078 9.17188 15.7969 9.70833 15.375 10.1094C14.9531 10.5104 14.3854 10.7109 13.6719 10.7109H7.57812V8.89844C7.57812 8.73698 7.53385 8.61458 7.44531 8.53125C7.36198 8.44792 7.23958 8.40625 7.07812 8.40625C7.00521 8.40625 6.93229 8.41927 6.85938 8.44531C6.79167 8.46615 6.72917 8.5 6.67188 8.54688L3.71875 10.9922C3.59375 11.1016 3.52865 11.2266 3.52344 11.3672C3.52344 11.5078 3.58854 11.6302 3.71875 11.7344L6.67188 14.1875C6.72917 14.2344 6.79167 14.2708 6.85938 14.2969C6.93229 14.3229 7.00521 14.3359 7.07812 14.3359C7.23958 14.3359 7.36198 14.2917 7.44531 14.2031C7.53385 14.1198 7.57812 14 7.57812 13.8438V12.0156H13.5469C14.3125 12.0156 14.9792 11.8776 15.5469 11.6016C16.1146 11.3255 16.5547 10.9323 16.8672 10.4219C17.1797 9.90625 17.3359 9.29688 17.3359 8.59375V7.75781C17.3359 7.5651 17.2708 7.40625 17.1406 7.28125C17.0156 7.15625 16.8594 7.09375 16.6719 7.09375Z" fill="white"/>
</svg>
