<svg xmlns="http://www.w3.org/2000/svg" width="24" height="24"><path style="stroke:none;fill-rule:nonzero;fill:#fff;fill-opacity:1" d="M8.113 22.734c.278 0 .5-.097.668-.293.176-.191.27-.46.262-.738 0-.137-.023-.273-.074-.398a1.136 1.136 0 0 0-.176-.317l-3.012-3.293-2.574-2.484-.187.539 3.23.164h13.3c1.216 0 2.09-.316 2.626-.95.543-.64.812-1.624.812-2.952V5.086c0-1.367-.27-2.352-.812-2.953-.535-.61-1.41-.914-2.625-.914h-5.832a.857.857 0 0 0-.688.304 1.11 1.11 0 0 0-.261.739c0 .289.085.531.25.738a.875.875 0 0 0 .699.305h5.832c.55 0 .949.14 1.199.422.25.28.375.734.375 1.359v6.926c0 .64-.125 1.105-.375 1.394-.25.281-.648.422-1.2.422H6.25l-3.23.152.187.54 2.574-2.473 3.012-3.293c.074-.094.133-.2.176-.316.05-.13.074-.27.074-.41a1.064 1.064 0 0 0-.262-.739.837.837 0 0 0-.668-.293.86.86 0 0 0-.664.328l-6.125 6.762a1.16 1.16 0 0 0-.242.363 1.266 1.266 0 0 0 0 .832c.059.137.137.258.242.375l6.125 6.762a.872.872 0 0 0 .664.316Zm0 0"/></svg>