<svg width="24" height="13" viewBox="0 0 24 13" fill="none" xmlns="http://www.w3.org/2000/svg">
<path d="M1.38281 12.2188H2.39844C2.63281 12.2188 2.8125 12.1667 2.9375 12.0625C3.06771 11.9583 3.16667 11.8229 3.23438 11.6562C3.95312 9.88542 4.67188 8.11198 5.39062 6.33594C6.10938 4.5599 6.82812 2.78385 7.54688 1.00781C7.59896 0.877604 7.59635 0.765625 7.53906 0.671875C7.48698 0.572917 7.39323 0.523438 7.25781 0.523438H6.75C6.61458 0.523438 6.5 0.554688 6.40625 0.617188C6.31771 0.679688 6.24479 0.770833 6.1875 0.890625C5.29688 2.63021 4.40365 4.3724 3.50781 6.11719C2.61719 7.86198 1.72656 9.60677 0.835938 11.3516C0.763021 11.487 0.731771 11.6224 0.742188 11.7578C0.757812 11.888 0.817708 11.9974 0.921875 12.0859C1.02604 12.1745 1.17969 12.2188 1.38281 12.2188ZM21.6016 12.2188H22.625C22.8229 12.2188 22.974 12.1745 23.0781 12.0859C23.1823 11.9974 23.2396 11.888 23.25 11.7578C23.2656 11.6224 23.237 11.487 23.1641 11.3516C22.2786 9.60677 21.388 7.86198 20.4922 6.11719C19.6016 4.3724 18.7109 2.63021 17.8203 0.890625C17.7578 0.770833 17.6797 0.679688 17.5859 0.617188C17.4974 0.554688 17.3854 0.523438 17.25 0.523438H16.7422C16.6068 0.523438 16.5104 0.572917 16.4531 0.671875C16.401 0.765625 16.401 0.877604 16.4531 1.00781C17.1719 2.78385 17.8906 4.5599 18.6094 6.33594C19.3333 8.11198 20.0521 9.88542 20.7656 11.6562C20.8333 11.8229 20.9297 11.9583 21.0547 12.0625C21.1849 12.1667 21.3672 12.2188 21.6016 12.2188ZM11.8203 2.65625H12.1641C12.3255 2.65625 12.4609 2.60417 12.5703 2.5C12.6797 2.39062 12.7344 2.2526 12.7344 2.08594C12.7344 1.92448 12.7344 1.76042 12.7344 1.59375C12.7344 1.42188 12.7344 1.25521 12.7344 1.09375C12.7344 0.927083 12.6797 0.791667 12.5703 0.6875C12.4609 0.578125 12.3255 0.523438 12.1641 0.523438H11.8203C11.6589 0.523438 11.5234 0.578125 11.4141 0.6875C11.3047 0.791667 11.25 0.927083 11.25 1.09375C11.25 1.25521 11.25 1.42188 11.25 1.59375C11.25 1.76042 11.25 1.92448 11.25 2.08594C11.25 2.2526 11.3047 2.39062 11.4141 2.5C11.5234 2.60417 11.6589 2.65625 11.8203 2.65625ZM11.8203 7.10938H12.1641C12.3255 7.10938 12.4609 7.05729 12.5703 6.95312C12.6797 6.84375 12.7344 6.70833 12.7344 6.54688C12.7344 6.27083 12.7344 5.99479 12.7344 5.71875C12.7344 5.44271 12.7344 5.16667 12.7344 4.89062C12.7344 4.72917 12.6797 4.59635 12.5703 4.49219C12.4609 4.38281 12.3255 4.32812 12.1641 4.32812H11.8203C11.6589 4.32812 11.5234 4.38281 11.4141 4.49219C11.3047 4.59635 11.25 4.72917 11.25 4.89062C11.25 5.16667 11.25 5.44271 11.25 5.71875C11.25 5.99479 11.25 6.27083 11.25 6.54688C11.25 6.70833 11.3047 6.84375 11.4141 6.95312C11.5234 7.05729 11.6589 7.10938 11.8203 7.10938ZM11.8203 12.2188H12.1641C12.3255 12.2188 12.4609 12.1641 12.5703 12.0547C12.6797 11.9505 12.7344 11.8151 12.7344 11.6484C12.7344 11.2786 12.7344 10.9062 12.7344 10.5312C12.7344 10.1562 12.7344 9.78125 12.7344 9.40625C12.7344 9.24479 12.6797 9.11198 12.5703 9.00781C12.4609 8.89844 12.3255 8.84375 12.1641 8.84375H11.8203C11.6589 8.84375 11.5234 8.89844 11.4141 9.00781C11.3047 9.11198 11.25 9.24479 11.25 9.40625C11.25 9.78125 11.25 10.1562 11.25 10.5312C11.25 10.9062 11.25 11.2786 11.25 11.6484C11.25 11.8151 11.3047 11.9505 11.4141 12.0547C11.5234 12.1641 11.6589 12.2188 11.8203 12.2188Z" fill="white"/>
</svg>
