<svg width="133" height="128" viewBox="0 0 133 128" fill="none" xmlns="http://www.w3.org/2000/svg">
<path d="M0.125 5.0625C0.125 6.4375 0.625 7.625 1.625 8.625C2.625 9.625 3.8125 10.125 5.1875 10.125H127.75C129.125 10.125 130.312 9.625 131.312 8.625C132.312 7.625 132.812 6.4375 132.812 5.0625C132.812 3.6875 132.312 2.52083 131.312 1.5625C130.312 0.5625 129.125 0.0625 127.75 0.0625H5.1875C3.8125 0.0625 2.625 0.5625 1.625 1.5625C0.625 2.52083 0.125 3.6875 0.125 5.0625ZM5.1875 24.625C6.35417 24.625 7.35417 24.2083 8.1875 23.375C9.02083 22.5 9.4375 21.5 9.4375 20.375C9.4375 19.2083 9.02083 18.2083 8.1875 17.375C7.35417 16.5417 6.35417 16.125 5.1875 16.125C3.97917 16.125 2.95833 16.5417 2.125 17.375C1.29167 18.2083 0.875 19.2083 0.875 20.375C0.875 21.5 1.29167 22.5 2.125 23.375C2.95833 24.2083 3.97917 24.625 5.1875 24.625ZM5.1875 39.125C6.35417 39.125 7.35417 38.7083 8.1875 37.875C9.02083 37 9.4375 35.9792 9.4375 34.8125C9.4375 33.6458 9.02083 32.6458 8.1875 31.8125C7.35417 30.9792 6.35417 30.5625 5.1875 30.5625C3.97917 30.5625 2.95833 30.9792 2.125 31.8125C1.29167 32.6458 0.875 33.6458 0.875 34.8125C0.875 35.9792 1.29167 37 2.125 37.875C2.95833 38.7083 3.97917 39.125 5.1875 39.125ZM5.1875 53.5625C6.35417 53.5625 7.35417 53.1458 8.1875 52.3125C9.02083 51.4375 9.4375 50.4375 9.4375 49.3125C9.4375 48.1458 9.02083 47.1458 8.1875 46.3125C7.35417 45.4792 6.35417 45.0625 5.1875 45.0625C3.97917 45.0625 2.95833 45.4792 2.125 46.3125C1.29167 47.1458 0.875 48.1458 0.875 49.3125C0.875 50.4375 1.29167 51.4375 2.125 52.3125C2.95833 53.1458 3.97917 53.5625 5.1875 53.5625ZM5.1875 68.0625C6.35417 68.0625 7.35417 67.6458 8.1875 66.8125C9.02083 65.9375 9.4375 64.9167 9.4375 63.75C9.4375 62.5833 9.02083 61.5833 8.1875 60.75C7.35417 59.9167 6.35417 59.5 5.1875 59.5C3.97917 59.5 2.95833 59.9167 2.125 60.75C1.29167 61.5833 0.875 62.5833 0.875 63.75C0.875 64.9167 1.29167 65.9375 2.125 66.8125C2.95833 67.6458 3.97917 68.0625 5.1875 68.0625ZM5.1875 82.5C6.35417 82.5 7.35417 82.0833 8.1875 81.25C9.02083 80.4167 9.4375 79.4167 9.4375 78.25C9.4375 77.0833 9.02083 76.0833 8.1875 75.25C7.35417 74.4167 6.35417 74 5.1875 74C3.97917 74 2.95833 74.4167 2.125 75.25C1.29167 76.0833 0.875 77.0833 0.875 78.25C0.875 79.4167 1.29167 80.4167 2.125 81.25C2.95833 82.0833 3.97917 82.5 5.1875 82.5ZM5.1875 97C6.35417 97 7.35417 96.5833 8.1875 95.75C9.02083 94.875 9.4375 93.8542 9.4375 92.6875C9.4375 91.5208 9.02083 90.5208 8.1875 89.6875C7.35417 88.8542 6.35417 88.4375 5.1875 88.4375C3.97917 88.4375 2.95833 88.8542 2.125 89.6875C1.29167 90.5208 0.875 91.5208 0.875 92.6875C0.875 93.8542 1.29167 94.875 2.125 95.75C2.95833 96.5833 3.97917 97 5.1875 97ZM5.1875 127.688C6.52083 127.688 7.6875 127.188 8.6875 126.188C9.6875 125.229 10.1875 124.062 10.1875 122.688V107.938C10.1875 106.562 9.6875 105.396 8.6875 104.438C7.72917 103.438 6.5625 102.938 5.1875 102.938C3.8125 102.938 2.625 103.438 1.625 104.438C0.625 105.396 0.125 106.562 0.125 107.938V122.688C0.125 124.062 0.625 125.229 1.625 126.188C2.625 127.188 3.8125 127.688 5.1875 127.688ZM21.5625 36.5625H123.25C124.542 36.5625 125.604 36.1458 126.438 35.3125C127.312 34.4375 127.75 33.3542 127.75 32.0625V21.3125C127.75 20.0208 127.312 18.9583 126.438 18.125C125.604 17.25 124.542 16.8125 123.25 16.8125H21.5625C20.2292 16.8125 19.125 17.25 18.25 18.125C17.4167 18.9583 17 20.0208 17 21.3125V32.0625C17 33.3542 17.4167 34.4375 18.25 35.3125C19.125 36.1458 20.2292 36.5625 21.5625 36.5625ZM27.5625 63.5625H117.188C118.521 63.5625 119.604 63.1458 120.438 62.3125C121.312 61.4375 121.75 60.3542 121.75 59.0625V45.0625H23.0625V59.0625C23.0625 60.3542 23.4792 61.4375 24.3125 62.3125C25.1875 63.1458 26.2708 63.5625 27.5625 63.5625Z" fill="white"/>
</svg>
