<svg xmlns="http://www.w3.org/2000/svg" width="24" height="24"><path style="stroke:none;fill-rule:nonzero;fill:#fff;fill-opacity:1" d="M3.188 23.418H14.8c1.008 0 1.761-.219 2.261-.656.5-.438.75-1.114.75-2.024v-10.3c0-.91-.25-1.583-.75-2.02-.5-.438-1.253-.656-2.261-.656H3.187c-1 0-1.753.218-2.261.656-.5.437-.75 1.11-.75 2.02v10.3c0 .91.25 1.586.75 2.024.508.437 1.261.656 2.262.656ZM22.922 9.75a.748.748 0 0 0 .515-.188.6.6 0 0 0 .223-.457V7.543c0-.996-.234-1.867-.703-2.617-.45-.739-1.129-1.344-1.957-1.75-.844-.414-1.824-.625-2.941-.625h-.247V1.176c0-.383-.136-.613-.41-.696-.273-.093-.574-.027-.902.188l-2.953 1.926c-.25.16-.375.328-.375.511 0 .18.125.352.375.508L16.5 5.531c.328.215.629.282.902.2.274-.09.41-.325.41-.7v-1.27h.235c.844 0 1.574.16 2.191.489.625.32 1.106.766 1.442 1.332.343.57.515 1.227.515 1.969v1.554c0 .172.07.325.211.457.149.126.32.188.516.188Zm0 0"/></svg>