<?xml version="1.0" encoding="UTF-8"?>
<svg xmlns="http://www.w3.org/2000/svg" xmlns:xlink="http://www.w3.org/1999/xlink" width="24" height="27" viewBox="0 0 24 27" version="1.1">
<g id="surface1">
<path style=" stroke:none;fill-rule:nonzero;fill:rgb(100%,100%,100%);fill-opacity:1;" d="M 9.1875 26.34375 L 20.800781 26.34375 C 21.808594 26.34375 22.5625 26.097656 23.0625 25.605469 C 23.5625 25.113281 23.8125 24.355469 23.8125 23.332031 L 23.8125 11.742188 C 23.8125 10.71875 23.5625 9.960938 23.0625 9.46875 C 22.5625 8.976562 21.808594 8.730469 20.800781 8.730469 L 9.1875 8.730469 C 8.1875 8.730469 7.433594 8.976562 6.925781 9.46875 C 6.425781 9.960938 6.175781 10.71875 6.175781 11.742188 L 6.175781 23.332031 C 6.175781 24.355469 6.425781 25.113281 6.925781 25.605469 C 7.433594 26.097656 8.1875 26.34375 9.1875 26.34375 Z M 1.066406 10.96875 C 1.269531 10.96875 1.445312 10.898438 1.59375 10.757812 C 1.734375 10.609375 1.804688 10.4375 1.804688 10.242188 L 1.804688 8.496094 C 1.804688 7.660156 1.972656 6.921875 2.308594 6.28125 C 2.644531 5.640625 3.121094 5.140625 3.738281 4.78125 C 4.363281 4.414062 5.101562 4.230469 5.953125 4.230469 L 6.175781 4.230469 L 6.175781 5.660156 C 6.175781 6.082031 6.3125 6.34375 6.585938 6.445312 C 6.859375 6.539062 7.160156 6.464844 7.488281 6.222656 L 10.441406 4.066406 C 10.691406 3.886719 10.816406 3.699219 10.816406 3.503906 C 10.816406 3.300781 10.691406 3.105469 10.441406 2.917969 L 7.488281 0.75 C 7.160156 0.507812 6.859375 0.4375 6.585938 0.539062 C 6.3125 0.632812 6.175781 0.894531 6.175781 1.324219 L 6.175781 2.871094 L 5.941406 2.871094 C 4.816406 2.871094 3.835938 3.105469 3 3.574219 C 2.15625 4.042969 1.503906 4.699219 1.042969 5.542969 C 0.574219 6.386719 0.339844 7.367188 0.339844 8.484375 L 0.339844 10.242188 C 0.339844 10.4375 0.414062 10.609375 0.5625 10.757812 C 0.703125 10.898438 0.871094 10.96875 1.066406 10.96875 Z M 1.066406 10.96875 "/>
</g>
</svg>
