<svg width="152" height="116" viewBox="0 0 152 116" fill="none" xmlns="http://www.w3.org/2000/svg">
<path d="M53.9375 0.4375C41.5208 0.4375 31.3542 2.35417 23.4375 6.1875C15.5208 9.97917 9.66667 15.7292 5.875 23.4375C2.08333 31.1458 0.1875 40.8333 0.1875 52.5V96.125C0.1875 102.583 1.8125 107.417 5.0625 110.625C8.35417 113.875 13.2708 115.5 19.8125 115.5H131.688C138.229 115.5 143.125 113.875 146.375 110.625C149.667 107.417 151.312 102.583 151.312 96.125V52.5C151.312 40.8333 149.417 31.1458 145.625 23.4375C141.875 15.7292 136.021 9.97917 128.062 6.1875C120.146 2.35417 110 0.4375 97.625 0.4375H53.9375ZM32.625 87.75C30.9583 87.75 29.6875 87.2292 28.8125 86.1875C27.9375 85.1042 27.5 83.6875 27.5 81.9375V34.0625C27.5 32.3125 27.9167 30.8958 28.75 29.8125C29.625 28.7292 30.8958 28.1875 32.5625 28.1875H51.0625C57.6458 28.1875 62.8542 29.9167 66.6875 33.375C70.5625 36.7917 72.5 41.3958 72.5 47.1875C72.5 51.1875 71.3542 54.75 69.0625 57.875C66.8125 61 63.7917 63.1875 60 64.4375L69.6875 79.5625C70.4792 80.8125 70.875 82.0625 70.875 83.3125C70.875 84.6042 70.4375 85.6667 69.5625 86.5C68.6875 87.3333 67.5625 87.75 66.1875 87.75C65.0208 87.75 64.0625 87.5 63.3125 87C62.5625 86.4583 61.7917 85.5625 61 84.3125L49.875 65.9375H37.875V81.9375C37.875 83.7292 37.4167 85.1458 36.5 86.1875C35.625 87.2292 34.3333 87.75 32.625 87.75ZM37.875 58.375H49.5625C53.4792 58.375 56.5625 57.4375 58.8125 55.5625C61.1042 53.6458 62.25 50.9375 62.25 47.4375C62.25 43.8125 61.1042 41.0208 58.8125 39.0625C56.5208 37.1042 53.5417 36.125 49.875 36.125H37.875V58.375ZM104 87.75C102.333 87.75 101.062 87.2083 100.188 86.125C99.3125 85.0417 98.875 83.625 98.875 81.875V36.6875H83C81.7917 36.6875 80.7708 36.3125 79.9375 35.5625C79.1042 34.7708 78.6875 33.7292 78.6875 32.4375C78.6875 31.1042 79.1042 30.0625 79.9375 29.3125C80.7708 28.5625 81.7917 28.1875 83 28.1875H125.188C126.479 28.1875 127.521 28.5625 128.312 29.3125C129.146 30.0625 129.562 31.1042 129.562 32.4375C129.562 33.7292 129.146 34.7708 128.312 35.5625C127.521 36.3125 126.479 36.6875 125.188 36.6875H109.25V81.875C109.25 83.6667 108.792 85.1042 107.875 86.1875C107 87.2292 105.708 87.75 104 87.75Z" fill="white"/>
</svg>
