<svg width="152" height="116" viewBox="0 0 152 116" fill="none" xmlns="http://www.w3.org/2000/svg">
<path d="M53.9375 0.4375C41.5208 0.4375 31.3542 2.35417 23.4375 6.1875C15.5208 9.97917 9.66667 15.7292 5.875 23.4375C2.08333 31.1458 0.1875 40.8333 0.1875 52.5V96.125C0.1875 102.583 1.8125 107.417 5.0625 110.625C8.35417 113.875 13.2708 115.5 19.8125 115.5H131.688C138.229 115.5 143.125 113.875 146.375 110.625C149.667 107.417 151.312 102.583 151.312 96.125V52.5C151.312 40.8333 149.417 31.1458 145.625 23.4375C141.875 15.7292 136.021 9.97917 128.062 6.1875C120.146 2.35417 110 0.4375 97.625 0.4375H53.9375ZM53.9375 10.625H97.5625C107.688 10.625 115.958 12.125 122.375 15.125C128.833 18.0833 133.583 22.625 136.625 28.75C139.708 34.875 141.25 42.6042 141.25 51.9375V95.625C141.25 98.875 140.396 101.333 138.688 103C137.021 104.625 134.646 105.438 131.562 105.438H19.9375C13.4792 105.438 10.25 102.167 10.25 95.625V51.9375C10.25 42.6042 11.7708 34.875 14.8125 28.75C17.8958 22.625 22.6458 18.0833 29.0625 15.125C35.5208 12.125 43.8125 10.625 53.9375 10.625ZM34 86.8125C35.625 86.8125 36.875 86.3333 37.75 85.375C38.625 84.375 39.0625 83 39.0625 81.25V65.6875H50.6875L61.5 83.5C62.25 84.7083 62.9792 85.5625 63.6875 86.0625C64.4375 86.5625 65.375 86.8125 66.5 86.8125C67.8333 86.8125 68.9167 86.4167 69.75 85.625C70.625 84.8333 71.0625 83.8125 71.0625 82.5625C71.0625 81.3542 70.6667 80.1458 69.875 78.9375L60.5 64.25C64.1667 63.0417 67.1042 60.9167 69.3125 57.875C71.5208 54.8333 72.625 51.375 72.625 47.5C72.625 41.875 70.75 37.4167 67 34.125C63.2917 30.7917 58.25 29.125 51.875 29.125H33.9375C32.3542 29.125 31.1458 29.6458 30.3125 30.6875C29.4792 31.7292 29.0625 33.0833 29.0625 34.75V81.25C29.0625 82.9167 29.4792 84.2708 30.3125 85.3125C31.1458 86.3125 32.375 86.8125 34 86.8125ZM39.0625 58.375V36.75H50.6875C54.2708 36.75 57.1667 37.7083 59.375 39.625C61.625 41.5417 62.75 44.25 62.75 47.75C62.75 51.1667 61.6458 53.7917 59.4375 55.625C57.2292 57.4583 54.2292 58.375 50.4375 58.375H39.0625ZM103.125 86.8125C104.75 86.8125 106 86.3125 106.875 85.3125C107.75 84.3125 108.188 82.9375 108.188 81.1875V37.3125H123.75C124.917 37.3125 125.896 36.9375 126.688 36.1875C127.479 35.4375 127.875 34.4375 127.875 33.1875C127.875 31.8958 127.479 30.8958 126.688 30.1875C125.896 29.4792 124.917 29.125 123.75 29.125H82.8125C81.6042 29.125 80.6042 29.4792 79.8125 30.1875C79.0208 30.8958 78.625 31.8958 78.625 33.1875C78.625 34.4375 79.0208 35.4375 79.8125 36.1875C80.6042 36.9375 81.6042 37.3125 82.8125 37.3125H98.1875V81.1875C98.1875 82.8542 98.6042 84.2083 99.4375 85.25C100.271 86.2917 101.5 86.8125 103.125 86.8125Z" fill="white"/>
</svg>
