<svg xmlns="http://www.w3.org/2000/svg" width="24" height="24"><path style="stroke:none;fill-rule:nonzero;fill:#fff;fill-opacity:1" d="M12 23.05c1.633 0 3.168-.292 4.605-.882a12.22 12.22 0 0 0 3.82-2.438 11.467 11.467 0 0 0 2.59-3.582c.626-1.363.938-2.808.938-4.347a10.2 10.2 0 0 0-.937-4.332 11.53 11.53 0 0 0-2.59-3.598 12.361 12.361 0 0 0-3.82-2.437A12.166 12.166 0 0 0 11.987.55c-1.633 0-3.172.293-4.617.883A12.307 12.307 0 0 0 3.562 3.87 11.523 11.523 0 0 0 .985 7.465 10.2 10.2 0 0 0 .047 11.8c0 1.539.312 2.984.937 4.347a11.467 11.467 0 0 0 2.59 3.582 12.236 12.236 0 0 0 3.809 2.438c1.445.59 2.984.883 4.617.883Zm-2.04-5.558a.789.789 0 0 1-.573-.21.705.705 0 0 1-.223-.54v-1.148H8.098a.576.576 0 0 1-.422-.153.557.557 0 0 1-.164-.406c0-.164.054-.297.164-.398a.577.577 0 0 1 .422-.168h1.066v-1.102H8.086a.585.585 0 0 1-.434-.164.595.595 0 0 1-.152-.41c0-.16.05-.293.152-.395a.589.589 0 0 1 .434-.168h1.078V7.348c0-.23.07-.414.211-.555.14-.14.332-.207.574-.207h2.871c1.125 0 2.016.32 2.672.957.664.64.996 1.45.996 2.43 0 .984-.332 1.797-.996 2.437-.664.63-1.558.945-2.683.945h-2.063v1.114h2.813c.18 0 .32.058.421.168.11.101.165.234.165.398a.557.557 0 0 1-.165.406.57.57 0 0 1-.421.153h-2.813v1.148a.705.705 0 0 1-.223.54.762.762 0 0 1-.562.21Zm.798-5.469 1.781.02c.774 0 1.36-.184 1.758-.55.398-.376.598-.88.598-1.513 0-.625-.2-1.117-.598-1.476-.39-.367-.977-.55-1.758-.55h-1.781Zm0 0"/></svg>