<svg width="16" height="15" viewBox="0 0 16 15" fill="none" xmlns="http://www.w3.org/2000/svg">
<path d="M3.25781 14.5625H12.7344C13.5521 14.5625 14.1641 14.3594 14.5703 13.9531C14.9818 13.5521 15.1875 12.9479 15.1875 12.1406V2.60156C15.1875 1.79427 14.9818 1.1901 14.5703 0.789062C14.1641 0.382812 13.5521 0.179688 12.7344 0.179688H3.25781C2.4401 0.179688 1.82552 0.382812 1.41406 0.789062C1.00781 1.1901 0.804688 1.79427 0.804688 2.60156V12.1406C0.804688 12.9479 1.00781 13.5521 1.41406 13.9531C1.82552 14.3594 2.4401 14.5625 3.25781 14.5625ZM3.27344 13.3047C2.88281 13.3047 2.58333 13.2031 2.375 13C2.16667 12.7917 2.0625 12.4844 2.0625 12.0781V2.66406C2.0625 2.25781 2.16667 1.95312 2.375 1.75C2.58333 1.54167 2.88281 1.4375 3.27344 1.4375H12.7188C13.1042 1.4375 13.401 1.54167 13.6094 1.75C13.8229 1.95312 13.9297 2.25781 13.9297 2.66406V12.0781C13.9297 12.4844 13.8229 12.7917 13.6094 13C13.401 13.2031 13.1042 13.3047 12.7188 13.3047H3.27344ZM5.60938 11.2578C5.74479 11.2578 5.85417 11.2135 5.9375 11.125C6.02083 11.0365 6.0625 10.9141 6.0625 10.7578V8.10938H6.42188L7.39062 10.9375C7.46354 11.151 7.60938 11.2578 7.82812 11.2578C7.95312 11.2578 8.05469 11.2135 8.13281 11.125C8.21615 11.0365 8.25781 10.9297 8.25781 10.8047C8.25781 10.7526 8.2526 10.7057 8.24219 10.6641C8.23177 10.6172 8.21615 10.5651 8.19531 10.5078L7.28125 7.92188C7.59375 7.76042 7.83594 7.49479 8.00781 7.125C8.17969 6.75 8.26562 6.33073 8.26562 5.86719C8.26562 4.40885 7.6901 3.67969 6.53906 3.67969H5.625C5.32292 3.67969 5.17188 3.85156 5.17188 4.19531V10.7344C5.17188 10.8958 5.21094 11.0234 5.28906 11.1172C5.3724 11.2109 5.47917 11.2578 5.60938 11.2578ZM6.0625 7.21875V4.57812H6.48438C6.78125 4.57812 7 4.6901 7.14062 4.91406C7.28646 5.13281 7.35938 5.45833 7.35938 5.89062C7.35938 6.33333 7.28646 6.66667 7.14062 6.89062C6.99479 7.10938 6.76823 7.21875 6.46094 7.21875H6.0625ZM9.94531 11.2656C10.3776 11.2656 10.724 11.1224 10.9844 10.8359C11.2448 10.5443 11.375 10.1562 11.375 9.67188C11.375 9.28125 11.2995 8.96094 11.1484 8.71094C10.9974 8.45573 10.7318 8.22396 10.3516 8.01562L10.0547 7.85156C9.84635 7.73698 9.69531 7.61719 9.60156 7.49219C9.50781 7.36719 9.46094 7.21094 9.46094 7.02344C9.46094 6.8099 9.5026 6.64583 9.58594 6.53125C9.66927 6.41146 9.78646 6.35156 9.9375 6.35156C10.1198 6.35156 10.2448 6.41667 10.3125 6.54688C10.3802 6.67708 10.4245 6.86979 10.4453 7.125C10.4609 7.27604 10.5026 7.39583 10.5703 7.48438C10.638 7.57292 10.7396 7.61719 10.875 7.61719C11.0104 7.61719 11.1146 7.57292 11.1875 7.48438C11.2656 7.39062 11.3047 7.26562 11.3047 7.10938C11.3047 7.06771 11.3021 7.02865 11.2969 6.99219C11.2969 6.95573 11.2943 6.91927 11.2891 6.88281C11.2474 6.49219 11.112 6.16406 10.8828 5.89844C10.6589 5.63281 10.3464 5.5 9.94531 5.5C9.53906 5.5 9.21094 5.64323 8.96094 5.92969C8.71094 6.21094 8.58594 6.58594 8.58594 7.05469C8.58594 7.42969 8.66667 7.7474 8.82812 8.00781C8.98958 8.26823 9.2526 8.49479 9.61719 8.6875L9.92969 8.85156C10.1276 8.95573 10.2708 9.07812 10.3594 9.21875C10.4479 9.35938 10.4922 9.53125 10.4922 9.73438C10.4922 10.1979 10.3099 10.4297 9.94531 10.4297C9.76302 10.4297 9.625 10.362 9.53125 10.2266C9.44271 10.0859 9.39062 9.89323 9.375 9.64844C9.35938 9.49219 9.3151 9.3724 9.24219 9.28906C9.16927 9.20052 9.06771 9.15625 8.9375 9.15625C8.80208 9.15625 8.69792 9.20312 8.625 9.29688C8.55208 9.38542 8.51562 9.50781 8.51562 9.66406C8.51562 9.71094 8.51562 9.75781 8.51562 9.80469C8.51562 9.84635 8.51823 9.88802 8.52344 9.92969C8.57552 10.3307 8.72396 10.6536 8.96875 10.8984C9.21354 11.1432 9.53906 11.2656 9.94531 11.2656Z" fill="white"/>
</svg>
