<?xml version="1.0" encoding="UTF-8"?>
<svg xmlns="http://www.w3.org/2000/svg" xmlns:xlink="http://www.w3.org/1999/xlink" width="24" height="25.5" viewBox="0 0 24 25.5" version="1.1">
<g id="surface1">
<path style=" stroke:none;fill-rule:nonzero;fill:rgb(100%,100%,100%);fill-opacity:1;" d="M 0.585938 21.070312 C 0.28125 22.289062 0.371094 23.234375 0.855469 23.90625 C 1.347656 24.578125 2.183594 24.914062 3.363281 24.914062 L 20.636719 24.914062 C 21.816406 24.914062 22.648438 24.578125 23.132812 23.90625 C 23.625 23.234375 23.71875 22.289062 23.414062 21.070312 L 20.824219 10.605469 C 20.613281 9.746094 20.207031 9.078125 19.605469 8.601562 C 19.011719 8.125 18.277344 7.886719 17.402344 7.886719 L 6.597656 7.886719 C 5.722656 7.886719 4.984375 8.125 4.382812 8.601562 C 3.789062 9.078125 3.386719 9.746094 3.175781 10.605469 Z M 11.050781 9.257812 L 12.9375 9.257812 L 12.9375 5.917969 L 11.050781 5.917969 Z M 12 6.832031 C 12.609375 6.832031 13.167969 6.683594 13.675781 6.386719 C 14.183594 6.082031 14.589844 5.679688 14.894531 5.179688 C 15.199219 4.671875 15.351562 4.113281 15.351562 3.503906 C 15.351562 2.894531 15.195312 2.335938 14.882812 1.828125 C 14.578125 1.320312 14.171875 0.914062 13.664062 0.609375 C 13.15625 0.304688 12.601562 0.152344 12 0.152344 C 11.390625 0.152344 10.832031 0.304688 10.324219 0.609375 C 9.816406 0.914062 9.410156 1.320312 9.105469 1.828125 C 8.800781 2.335938 8.648438 2.894531 8.648438 3.503906 C 8.648438 4.113281 8.800781 4.671875 9.105469 5.179688 C 9.410156 5.679688 9.816406 6.082031 10.324219 6.386719 C 10.832031 6.683594 11.390625 6.832031 12 6.832031 Z M 12 5.203125 C 11.53125 5.203125 11.128906 5.035156 10.792969 4.699219 C 10.457031 4.363281 10.289062 3.964844 10.289062 3.503906 C 10.289062 3.042969 10.457031 2.640625 10.792969 2.296875 C 11.128906 1.953125 11.53125 1.78125 12 1.78125 C 12.460938 1.78125 12.859375 1.953125 13.195312 2.296875 C 13.539062 2.640625 13.710938 3.042969 13.710938 3.503906 C 13.710938 3.964844 13.542969 4.363281 13.207031 4.699219 C 12.871094 5.035156 12.46875 5.203125 12 5.203125 Z M 12 5.203125 "/>
</g>
</svg>
