<?xml version="1.0" encoding="UTF-8"?>
<svg xmlns="http://www.w3.org/2000/svg" xmlns:xlink="http://www.w3.org/1999/xlink" width="24" height="25.5" viewBox="0 0 24 25.5" version="1.1">
<g id="surface1">
<path style=" stroke:none;fill-rule:nonzero;fill:rgb(100%,100%,100%);fill-opacity:1;" d="M 12 24.503906 C 13.632812 24.503906 15.167969 24.191406 16.605469 23.566406 C 18.050781 22.941406 19.324219 22.078125 20.425781 20.976562 C 21.527344 19.875 22.390625 18.605469 23.015625 17.167969 C 23.640625 15.722656 23.953125 14.183594 23.953125 12.550781 C 23.953125 10.917969 23.640625 9.382812 23.015625 7.945312 C 22.390625 6.5 21.527344 5.226562 20.425781 4.125 C 19.324219 3.023438 18.050781 2.160156 16.605469 1.535156 C 15.160156 0.910156 13.621094 0.597656 11.988281 0.597656 C 10.355469 0.597656 8.816406 0.910156 7.371094 1.535156 C 5.933594 2.160156 4.664062 3.023438 3.5625 4.125 C 2.46875 5.226562 1.609375 6.5 0.984375 7.945312 C 0.359375 9.382812 0.046875 10.917969 0.046875 12.550781 C 0.046875 14.183594 0.359375 15.722656 0.984375 17.167969 C 1.609375 18.605469 2.472656 19.875 3.574219 20.976562 C 4.675781 22.078125 5.945312 22.941406 7.382812 23.566406 C 8.828125 24.191406 10.367188 24.503906 12 24.503906 Z M 7.3125 18.070312 C 6.671875 18.070312 6.128906 17.847656 5.683594 17.402344 C 5.238281 16.949219 5.015625 16.402344 5.015625 15.761719 C 5.015625 15.128906 5.238281 14.589844 5.683594 14.144531 C 6.128906 13.699219 6.671875 13.476562 7.3125 13.476562 C 7.664062 13.476562 7.933594 13.511719 8.121094 13.582031 C 8.308594 13.652344 8.464844 13.722656 8.589844 13.792969 C 8.714844 13.863281 8.855469 13.898438 9.011719 13.898438 C 9.113281 13.898438 9.214844 13.871094 9.316406 13.816406 L 10.207031 13.347656 C 10.425781 13.230469 10.578125 13.128906 10.664062 13.042969 C 10.757812 12.957031 10.824219 12.839844 10.863281 12.691406 L 10.96875 12.28125 C 11.054688 11.96875 11.1875 11.71875 11.367188 11.53125 C 11.546875 11.34375 11.800781 11.1875 12.128906 11.0625 L 16.980469 9.328125 C 17.707031 9.0625 18.289062 8.976562 18.726562 9.070312 C 19.164062 9.15625 19.441406 9.410156 19.558594 9.832031 L 9.960938 14.917969 C 9.789062 15.011719 9.683594 15.117188 9.644531 15.234375 C 9.613281 15.34375 9.597656 15.519531 9.597656 15.761719 C 9.597656 16.402344 9.375 16.949219 8.929688 17.402344 C 8.484375 17.847656 7.945312 18.070312 7.3125 18.070312 Z M 7.3125 17.121094 C 7.679688 17.121094 7.996094 16.992188 8.261719 16.734375 C 8.527344 16.46875 8.660156 16.144531 8.660156 15.761719 C 8.660156 15.386719 8.527344 15.070312 8.261719 14.8125 C 7.996094 14.546875 7.679688 14.414062 7.3125 14.414062 C 6.945312 14.414062 6.628906 14.546875 6.363281 14.8125 C 6.097656 15.070312 5.964844 15.386719 5.964844 15.761719 C 5.964844 16.144531 6.097656 16.46875 6.363281 16.734375 C 6.628906 16.992188 6.945312 17.121094 7.3125 17.121094 Z M 12.269531 12.703125 C 12.394531 12.703125 12.5 12.660156 12.585938 12.574219 C 12.679688 12.488281 12.726562 12.378906 12.726562 12.246094 C 12.726562 12.113281 12.679688 12.003906 12.585938 11.917969 C 12.5 11.832031 12.394531 11.789062 12.269531 11.789062 C 12.144531 11.789062 12.035156 11.832031 11.941406 11.917969 C 11.847656 12.003906 11.800781 12.113281 11.800781 12.246094 C 11.800781 12.371094 11.847656 12.480469 11.941406 12.574219 C 12.035156 12.660156 12.144531 12.703125 12.269531 12.703125 Z M 11.109375 10.78125 C 10.9375 10.914062 10.789062 11.066406 10.664062 11.238281 C 10.539062 11.402344 10.433594 11.59375 10.347656 11.8125 L 9.316406 11.285156 C 9.191406 11.222656 9.089844 11.191406 9.011719 11.191406 C 8.855469 11.191406 8.714844 11.230469 8.589844 11.308594 C 8.464844 11.378906 8.308594 11.449219 8.121094 11.519531 C 7.933594 11.589844 7.664062 11.625 7.3125 11.625 C 6.671875 11.625 6.128906 11.402344 5.683594 10.957031 C 5.238281 10.511719 5.015625 9.972656 5.015625 9.339844 C 5.015625 8.699219 5.238281 8.15625 5.683594 7.710938 C 6.128906 7.257812 6.671875 7.03125 7.3125 7.03125 C 7.945312 7.03125 8.484375 7.253906 8.929688 7.699219 C 9.375 8.144531 9.597656 8.691406 9.597656 9.339844 C 9.597656 9.589844 9.621094 9.773438 9.667969 9.890625 C 9.714844 10 9.835938 10.105469 10.03125 10.207031 Z M 7.3125 10.6875 C 7.679688 10.6875 7.996094 10.558594 8.261719 10.300781 C 8.527344 10.035156 8.660156 9.714844 8.660156 9.339844 C 8.660156 8.957031 8.527344 8.636719 8.261719 8.378906 C 7.996094 8.113281 7.679688 7.980469 7.3125 7.980469 C 6.945312 7.980469 6.628906 8.113281 6.363281 8.378906 C 6.097656 8.636719 5.964844 8.957031 5.964844 9.339844 C 5.964844 9.714844 6.097656 10.035156 6.363281 10.300781 C 6.628906 10.558594 6.945312 10.6875 7.3125 10.6875 Z M 12.84375 14.238281 L 15.222656 12.972656 L 19.558594 15.257812 C 19.449219 15.695312 19.171875 15.960938 18.726562 16.054688 C 18.28125 16.148438 17.699219 16.058594 16.980469 15.785156 Z M 12.84375 14.238281 "/>
</g>
</svg>
