<svg width="16" height="17" viewBox="0 0 16 17" fill="none" xmlns="http://www.w3.org/2000/svg">
<path d="M8 16.3359C9.08854 16.3359 10.112 16.1276 11.0703 15.7109C12.0339 15.2943 12.8828 14.7188 13.6172 13.9844C14.3516 13.25 14.9271 12.4036 15.3438 11.4453C15.7604 10.4818 15.9688 9.45573 15.9688 8.36719C15.9688 7.27865 15.7604 6.25521 15.3438 5.29688C14.9271 4.33333 14.3516 3.48438 13.6172 2.75C12.8828 2.01562 12.0339 1.4401 11.0703 1.02344C10.1068 0.606771 9.08073 0.398438 7.99219 0.398438C6.90365 0.398438 5.8776 0.606771 4.91406 1.02344C3.95573 1.4401 3.10938 2.01562 2.375 2.75C1.64583 3.48438 1.07292 4.33333 0.65625 5.29688C0.239583 6.25521 0.03125 7.27865 0.03125 8.36719C0.03125 9.45573 0.239583 10.4818 0.65625 11.4453C1.07292 12.4036 1.64844 13.25 2.38281 13.9844C3.11719 14.7188 3.96354 15.2943 4.92188 15.7109C5.88542 16.1276 6.91146 16.3359 8 16.3359ZM4.875 12.0469C4.44792 12.0469 4.08594 11.8984 3.78906 11.6016C3.49219 11.2995 3.34375 10.9349 3.34375 10.5078C3.34375 10.0859 3.49219 9.72656 3.78906 9.42969C4.08594 9.13281 4.44792 8.98438 4.875 8.98438C5.10938 8.98438 5.28906 9.00781 5.41406 9.05469C5.53906 9.10156 5.64323 9.14844 5.72656 9.19531C5.8099 9.24219 5.90365 9.26562 6.00781 9.26562C6.07552 9.26562 6.14323 9.2474 6.21094 9.21094L6.80469 8.89844C6.95052 8.82031 7.05208 8.7526 7.10938 8.69531C7.17188 8.63802 7.21615 8.5599 7.24219 8.46094L7.3125 8.1875C7.36979 7.97917 7.45833 7.8125 7.57812 7.6875C7.69792 7.5625 7.86719 7.45833 8.08594 7.375L11.3203 6.21875C11.8047 6.04167 12.1927 5.98438 12.4844 6.04688C12.776 6.10417 12.9609 6.27344 13.0391 6.55469L6.64062 9.94531C6.52604 10.0078 6.45573 10.0781 6.42969 10.1562C6.40885 10.2292 6.39844 10.3464 6.39844 10.5078C6.39844 10.9349 6.25 11.2995 5.95312 11.6016C5.65625 11.8984 5.29688 12.0469 4.875 12.0469ZM4.875 11.4141C5.11979 11.4141 5.33073 11.3281 5.50781 11.1562C5.6849 10.9792 5.77344 10.763 5.77344 10.5078C5.77344 10.2578 5.6849 10.0469 5.50781 9.875C5.33073 9.69792 5.11979 9.60938 4.875 9.60938C4.63021 9.60938 4.41927 9.69792 4.24219 9.875C4.0651 10.0469 3.97656 10.2578 3.97656 10.5078C3.97656 10.763 4.0651 10.9792 4.24219 11.1562C4.41927 11.3281 4.63021 11.4141 4.875 11.4141ZM8.17969 8.46875C8.26302 8.46875 8.33333 8.4401 8.39062 8.38281C8.45312 8.32552 8.48438 8.2526 8.48438 8.16406C8.48438 8.07552 8.45312 8.0026 8.39062 7.94531C8.33333 7.88802 8.26302 7.85938 8.17969 7.85938C8.09635 7.85938 8.02344 7.88802 7.96094 7.94531C7.89844 8.0026 7.86719 8.07552 7.86719 8.16406C7.86719 8.2474 7.89844 8.32031 7.96094 8.38281C8.02344 8.4401 8.09635 8.46875 8.17969 8.46875ZM7.40625 7.1875C7.29167 7.27604 7.19271 7.3776 7.10938 7.49219C7.02604 7.60156 6.95573 7.72917 6.89844 7.875L6.21094 7.52344C6.1276 7.48177 6.0599 7.46094 6.00781 7.46094C5.90365 7.46094 5.8099 7.48698 5.72656 7.53906C5.64323 7.58594 5.53906 7.63281 5.41406 7.67969C5.28906 7.72656 5.10938 7.75 4.875 7.75C4.44792 7.75 4.08594 7.60156 3.78906 7.30469C3.49219 7.00781 3.34375 6.64844 3.34375 6.22656C3.34375 5.79948 3.49219 5.4375 3.78906 5.14062C4.08594 4.83854 4.44792 4.6875 4.875 4.6875C5.29688 4.6875 5.65625 4.83594 5.95312 5.13281C6.25 5.42969 6.39844 5.79427 6.39844 6.22656C6.39844 6.39323 6.41406 6.51562 6.44531 6.59375C6.47656 6.66667 6.55729 6.73698 6.6875 6.80469L7.40625 7.1875ZM4.875 7.125C5.11979 7.125 5.33073 7.03906 5.50781 6.86719C5.6849 6.6901 5.77344 6.47656 5.77344 6.22656C5.77344 5.97135 5.6849 5.75781 5.50781 5.58594C5.33073 5.40885 5.11979 5.32031 4.875 5.32031C4.63021 5.32031 4.41927 5.40885 4.24219 5.58594C4.0651 5.75781 3.97656 5.97135 3.97656 6.22656C3.97656 6.47656 4.0651 6.6901 4.24219 6.86719C4.41927 7.03906 4.63021 7.125 4.875 7.125ZM8.5625 9.49219L10.1484 8.64844L13.0391 10.1719C12.9661 10.4635 12.7812 10.6406 12.4844 10.7031C12.1875 10.7656 11.7995 10.7057 11.3203 10.5234L8.5625 9.49219Z" fill="white"/>
</svg>
