<svg width="16" height="17" viewBox="0 0 16 17" fill="none" xmlns="http://www.w3.org/2000/svg">
<path d="M8 16.3281C9.08854 16.3281 10.112 16.1198 11.0703 15.7031C12.0339 15.2865 12.8828 14.7109 13.6172 13.9766C14.3516 13.2422 14.9271 12.3958 15.3438 11.4375C15.7604 10.474 15.9688 9.44792 15.9688 8.35938C15.9688 7.27083 15.7604 6.2474 15.3438 5.28906C14.9271 4.32552 14.3516 3.47656 13.6172 2.74219C12.8828 2.00781 12.0339 1.43229 11.0703 1.01562C10.1068 0.598958 9.08073 0.390625 7.99219 0.390625C6.90365 0.390625 5.8776 0.598958 4.91406 1.01562C3.95573 1.43229 3.10938 2.00781 2.375 2.74219C1.64583 3.47656 1.07292 4.32552 0.65625 5.28906C0.239583 6.2474 0.03125 7.27083 0.03125 8.35938C0.03125 9.44792 0.239583 10.474 0.65625 11.4375C1.07292 12.3958 1.64844 13.2422 2.38281 13.9766C3.11719 14.7109 3.96354 15.2865 4.92188 15.7031C5.88542 16.1198 6.91146 16.3281 8 16.3281ZM8 15C7.07812 15 6.21615 14.8281 5.41406 14.4844C4.61198 14.1406 3.90625 13.6667 3.29688 13.0625C2.69271 12.4531 2.21875 11.7474 1.875 10.9453C1.53646 10.1432 1.36719 9.28125 1.36719 8.35938C1.36719 7.4375 1.53646 6.57552 1.875 5.77344C2.21875 4.97135 2.69271 4.26562 3.29688 3.65625C3.90104 3.04688 4.60417 2.57292 5.40625 2.23438C6.20833 1.89062 7.07031 1.71875 7.99219 1.71875C8.91406 1.71875 9.77604 1.89062 10.5781 2.23438C11.3854 2.57292 12.0911 3.04688 12.6953 3.65625C13.3047 4.26562 13.7812 4.97135 14.125 5.77344C14.4688 6.57552 14.6406 7.4375 14.6406 8.35938C14.6406 9.28125 14.4688 10.1432 14.125 10.9453C13.7865 11.7474 13.3125 12.4531 12.7031 13.0625C12.0938 13.6667 11.388 14.1406 10.5859 14.4844C9.78385 14.8281 8.92188 15 8 15ZM4.97656 11.9297C5.38281 11.9297 5.72917 11.7865 6.01562 11.5C6.30729 11.2083 6.45312 10.8542 6.45312 10.4375C6.45312 10.2812 6.46354 10.1667 6.48438 10.0938C6.51042 10.0156 6.57812 9.94792 6.6875 9.89062L12.8906 6.60156C12.8177 6.33073 12.638 6.16667 12.3516 6.10938C12.0703 6.05208 11.6953 6.10677 11.2266 6.27344L8.09375 7.39844C7.875 7.47656 7.70833 7.57552 7.59375 7.69531C7.48438 7.8151 7.40104 7.97917 7.34375 8.1875L7.27344 8.45312C7.2474 8.54688 7.20573 8.6224 7.14844 8.67969C7.09635 8.73698 6.9974 8.80208 6.85156 8.875L6.27344 9.17969C6.20573 9.21615 6.13802 9.23438 6.07031 9.23438C5.97135 9.23438 5.88021 9.21354 5.79688 9.17188C5.71875 9.125 5.61719 9.07812 5.49219 9.03125C5.3724 8.98438 5.20052 8.96094 4.97656 8.96094C4.5599 8.96094 4.20833 9.10417 3.92188 9.39062C3.63542 9.67708 3.49219 10.026 3.49219 10.4375C3.49219 10.849 3.63542 11.2005 3.92188 11.4922C4.20833 11.7839 4.5599 11.9297 4.97656 11.9297ZM4.97656 11.3203C4.73177 11.3203 4.52344 11.2344 4.35156 11.0625C4.1849 10.8906 4.10156 10.6823 4.10156 10.4375C4.10156 10.1979 4.1875 9.99219 4.35938 9.82031C4.53125 9.64844 4.73698 9.5625 4.97656 9.5625C5.21615 9.5625 5.41927 9.64844 5.58594 9.82031C5.75781 9.99219 5.84375 10.1979 5.84375 10.4375C5.84375 10.6823 5.75781 10.8906 5.58594 11.0625C5.41927 11.2344 5.21615 11.3203 4.97656 11.3203ZM8.17969 8.46094C8.10156 8.46094 8.03125 8.43229 7.96875 8.375C7.91146 8.31771 7.88281 8.2474 7.88281 8.16406C7.88281 8.08073 7.91146 8.01042 7.96875 7.95312C8.03125 7.89583 8.10156 7.86719 8.17969 7.86719C8.26302 7.86719 8.33333 7.89583 8.39062 7.95312C8.44792 8.01042 8.47656 8.08073 8.47656 8.16406C8.47656 8.2474 8.44792 8.31771 8.39062 8.375C8.33333 8.43229 8.26302 8.46094 8.17969 8.46094ZM7.42969 7.21875L6.73438 6.84375C6.60417 6.77604 6.52344 6.70573 6.49219 6.63281C6.46615 6.5599 6.45312 6.44271 6.45312 6.28125C6.45312 5.86458 6.30729 5.51302 6.01562 5.22656C5.72917 4.9349 5.38281 4.78906 4.97656 4.78906C4.5599 4.78906 4.20833 4.9349 3.92188 5.22656C3.63542 5.51302 3.49219 5.86458 3.49219 6.28125C3.49219 6.69271 3.63542 7.04167 3.92188 7.32812C4.20833 7.61458 4.5599 7.75781 4.97656 7.75781C5.20052 7.75781 5.3724 7.73438 5.49219 7.6875C5.61719 7.64062 5.71875 7.59375 5.79688 7.54688C5.88021 7.5 5.97135 7.47656 6.07031 7.47656C6.1224 7.47656 6.1901 7.4974 6.27344 7.53906L6.9375 7.88281C7.04688 7.60156 7.21094 7.38021 7.42969 7.21875ZM4.97656 7.15625C4.73698 7.15625 4.53125 7.07031 4.35938 6.89844C4.1875 6.72656 4.10156 6.52083 4.10156 6.28125C4.10156 6.03646 4.1849 5.82812 4.35156 5.65625C4.52344 5.48438 4.73177 5.39844 4.97656 5.39844C5.21615 5.39844 5.41927 5.48438 5.58594 5.65625C5.75781 5.82812 5.84375 6.03646 5.84375 6.28125C5.84375 6.52083 5.75781 6.72656 5.58594 6.89844C5.41927 7.07031 5.21615 7.15625 4.97656 7.15625ZM8.55469 9.44531L11.2266 10.4531C11.6901 10.625 12.0651 10.6823 12.3516 10.625C12.638 10.5625 12.8177 10.3906 12.8906 10.1094L10.0859 8.63281L8.55469 9.44531Z" fill="white"/>
</svg>
