<svg xmlns="http://www.w3.org/2000/svg" width="24" height="24"><path style="stroke:none;fill-rule:nonzero;fill:#fff;fill-opacity:1" d="M8.531 9.957c-.242.234-.367.492-.367.766.008.265.129.515.367.742l4.04 3.848c.238.226.5.34.78.34.286 0 .551-.118.797-.348l1.516-1.438a1.028 1.028 0 0 1-.262-.695.97.97 0 0 1 .32-.672c.18-.188.434-.297.704-.305.27-.004.508.078.722.254l5.52-5.254c.7-.668 1.055-1.347 1.059-2.043.007-.703-.332-1.382-1.02-2.047l-1.371-1.292c-.691-.66-1.406-.989-2.137-.973-.73.004-1.449.344-2.156 1.008l-5.504 5.257c.184.204.266.43.254.688a.92.92 0 0 1-.309.668 1.1 1.1 0 0 1-.71.309 1.076 1.076 0 0 1-.723-.262Zm1.2.453.59-.562c.35.07.683.054.995-.043.317-.11.618-.297.899-.563.281-.27.476-.55.582-.847a1.63 1.63 0 0 0 .039-.938l5.125-4.875c.406-.383.828-.574 1.258-.574.43-.008.843.183 1.238.562l1.453 1.38c.395.378.59.777.59 1.183 0 .41-.2.812-.602 1.199l-5.117 4.879a1.913 1.913 0 0 0-.984.039 2.248 2.248 0 0 0-.899.555c-.28.265-.476.55-.582.847a1.811 1.811 0 0 0-.058.957l-.578.551a.497.497 0 0 1-.328.152c-.114.008-.223-.042-.329-.14l-3.3-3.145c-.102-.097-.149-.203-.141-.312a.438.438 0 0 1 .148-.305Zm5.062-2.777a.327.327 0 0 0-.121.262c.008.101.05.19.133.265a.365.365 0 0 0 .25.098.324.324 0 0 0 .273-.098L19.2 4.437a.311.311 0 0 0 .113-.242.302.302 0 0 0-.113-.258.359.359 0 0 0-.262-.097.325.325 0 0 0-.261.098Zm1.258 1.207a.346.346 0 0 0-.113.262c.003.093.042.18.113.246.074.07.168.109.27.109.109 0 .199-.039.273-.11l3.883-3.683c.07-.066.109-.16.109-.254a.378.378 0 0 0-.11-.27.35.35 0 0 0-.273-.097.395.395 0 0 0-.262.098ZM2.559 17.633.402 20.688a.688.688 0 0 0-.14.34.37.37 0 0 0 .12.292l1.829 1.754c.09.078.191.117.312.102a.745.745 0 0 0 .364-.121L6.094 21c.293-.191.465-.441.515-.75l.149-.938 5.437-5.167-.804-.77-5.774 5.508-.207 1.097-2.738 1.985-1.133-1.078 2.078-2.61 1.164-.191 5.774-5.504-.805-.77L4.32 17l-.984.145c-.324.039-.582.203-.777.488Zm0 0"/></svg>