<svg width="155" height="155" viewBox="0 0 155 155" fill="none" xmlns="http://www.w3.org/2000/svg">
<path d="M56.1875 62.3125C54.6875 63.8542 53.9167 65.5417 53.875 67.375C53.875 69.2083 54.6458 70.8958 56.1875 72.4375L82.3125 98.625C83.8542 100.167 85.5417 100.917 87.375 100.875C89.2083 100.792 90.8958 99.9792 92.4375 98.4375L99.25 91.5625C98.0833 89.8542 97.5833 88 97.75 86C97.9167 84 98.75 82.25 100.25 80.75C101.792 79.25 103.542 78.4167 105.5 78.25C107.5 78.0833 109.354 78.6042 111.062 79.8125L147.438 43.375C151.979 38.7917 154.25 34.1875 154.25 29.5625C154.292 24.8958 152.125 20.3542 147.75 15.9375L138.75 7C134.333 2.58333 129.771 0.395833 125.062 0.4375C120.396 0.479167 115.792 2.75 111.25 7.25L74.875 43.625C76.0833 45.2917 76.6042 47.1458 76.4375 49.1875C76.3125 51.1875 75.4792 52.9583 73.9375 54.5C72.4375 55.9583 70.6875 56.7708 68.6875 56.9375C66.6875 57.0625 64.8125 56.5625 63.0625 55.4375L56.1875 62.3125ZM91.25 49.25L121.125 19.25C121.583 18.75 122.188 18.5208 122.938 18.5625C123.688 18.6042 124.333 18.8333 124.875 19.25C125.417 19.7083 125.646 20.3125 125.562 21.0625C125.521 21.7708 125.271 22.3542 124.812 22.8125L94.8125 52.8125C94.2708 53.3125 93.6667 53.5625 93 53.5625C92.3333 53.5208 91.7917 53.2917 91.375 52.875C90.8333 52.3333 90.5417 51.7292 90.5 51.0625C90.5 50.3542 90.75 49.75 91.25 49.25ZM102 59.8125L131.812 30.0625C132.354 29.5625 132.979 29.3125 133.688 29.3125C134.396 29.2708 134.979 29.5208 135.438 30.0625C135.896 30.5625 136.125 31.1667 136.125 31.875C136.125 32.5417 135.896 33.1042 135.438 33.5625L105.562 63.5625C105.062 64.1042 104.458 64.3542 103.75 64.3125C103.042 64.2708 102.458 64.0208 102 63.5625C101.417 62.9792 101.125 62.375 101.125 61.75C101.125 61.0833 101.417 60.4375 102 59.8125ZM12.75 120.25L1.25 141.312C0.75 142.271 0.458333 143.125 0.375 143.875C0.291667 144.625 0.5625 145.312 1.1875 145.938L8.5625 153.375C9.22917 154 9.9375 154.271 10.6875 154.188C11.4375 154.104 12.2708 153.833 13.1875 153.375L34.375 141.812C35.4167 141.229 36.25 140.438 36.875 139.438C37.5 138.479 37.8333 137.542 37.875 136.625L38.1875 129.812L69.875 98.125L56.5 84.6875L24.75 116.375L18.0625 116.75C17.0625 116.75 16.0625 117.062 15.0625 117.688C14.1042 118.312 13.3333 119.167 12.75 120.25Z" fill="white"/>
</svg>
