<svg xmlns="http://www.w3.org/2000/svg" width="24" height="24"><path style="stroke:none;fill-rule:nonzero;fill:#fff;fill-opacity:1" d="M4.887 23.656h14.226c1.383 0 2.418-.27 3.106-.812.695-.54 1.043-1.36 1.043-2.45v-15.8c0-1.086-.348-1.899-1.043-2.45-.688-.546-1.723-.824-3.106-.824h-8.949c-.605 0-1.121.067-1.539.203-.418.125-.82.34-1.207.645L1.727 6.582c-.375.3-.633.602-.778.906-.14.309-.21.719-.21 1.23v11.677c0 1.085.343 1.898 1.03 2.437.696.55 1.735.824 3.118.824Zm.11-1.676c-.696 0-1.224-.14-1.583-.418-.348-.277-.52-.675-.52-1.199V8.843c0-.331.043-.6.133-.8.102-.215.266-.414.48-.574L8.493 3.55C8.945 3.184 9.532 3 10.246 3h8.758c.695 0 1.219.14 1.566.426.36.289.535.687.535 1.199v15.742c0 .52-.175.918-.535 1.195-.347.282-.863.418-1.55.418ZM8.972 5.605v3.282a.6.6 0 0 0 .242.476c.168.125.375.188.617.188.23 0 .426-.063.586-.188a.588.588 0 0 0 .242-.476V5.605a.58.58 0 0 0-.242-.48.939.939 0 0 0-.586-.188.967.967 0 0 0-.617.2.564.564 0 0 0-.242.468Zm2.746 0v3.282a.59.59 0 0 0 .254.476.993.993 0 0 0 .601.188c.235 0 .43-.063.59-.188a.59.59 0 0 0 .254-.476V5.605a.56.56 0 0 0-.238-.468.92.92 0 0 0-.606-.2.963.963 0 0 0-.613.2.564.564 0 0 0-.242.468Zm2.758 0v3.282a.6.6 0 0 0 .242.476.985.985 0 0 0 .601.188.91.91 0 0 0 .59-.196.602.602 0 0 0 .242-.468V5.605c.008-.18-.082-.351-.242-.48a.95.95 0 0 0-.59-.188.902.902 0 0 0-.601.2.564.564 0 0 0-.242.468Zm2.761 0v3.27c0 .188.078.344.239.48.156.125.375.2.605.196a.906.906 0 0 0 .586-.196.6.6 0 0 0 .242-.48v-3.27a.58.58 0 0 0-.242-.48.939.939 0 0 0-.586-.188.913.913 0 0 0-.605.2.56.56 0 0 0-.239.468Zm0 0"/></svg>