<svg xmlns="http://www.w3.org/2000/svg" width="24" height="24"><path style="stroke:none;fill-rule:nonzero;fill:#fff;fill-opacity:1" d="M4.887 23.656h14.226c1.383 0 2.418-.27 3.106-.812.695-.54 1.043-1.36 1.043-2.45v-15.8c0-1.086-.348-1.899-1.043-2.45-.688-.546-1.723-.824-3.106-.824h-8.949c-.605 0-1.121.067-1.539.203-.418.125-.82.34-1.207.645L1.727 6.582c-.375.3-.633.602-.778.906-.14.309-.21.719-.21 1.23v11.677c0 1.085.343 1.898 1.03 2.437.696.55 1.735.824 3.118.824ZM9.293 5.551c0-.196.086-.356.258-.489a.992.992 0 0 1 .629-.199c.238 0 .441.067.601.2a.6.6 0 0 1 .254.488v3.386c0 .188-.086.352-.254.493a.928.928 0 0 1-.601.195.985.985 0 0 1-.63-.2.616.616 0 0 1-.257-.488Zm2.828 0c0-.196.086-.356.254-.489.172-.132.406-.203.645-.199.23 0 .453.07.613.2.168.128.262.304.254.488v3.386c.004.184-.09.36-.254.493a.984.984 0 0 1-.613.195 1.037 1.037 0 0 1-.645-.2.622.622 0 0 1-.254-.488Zm2.852 0a.618.618 0 0 1 .25-.489c.164-.128.386-.199.62-.199.25 0 .458.067.618.2a.6.6 0 0 1 .254.488l.012 3.386c0 .188-.09.352-.266.493-.164.125-.387.199-.617.195a.982.982 0 0 1-.617-.2.622.622 0 0 1-.254-.488Zm2.851 0a.61.61 0 0 1 .242-.489.992.992 0 0 1 .63-.199c.23-.004.449.07.605.2a.6.6 0 0 1 .254.488v3.375a.627.627 0 0 1-.254.5.92.92 0 0 1-.606.199.963.963 0 0 1-.613-.2.626.626 0 0 1-.258-.5Zm0 0"/></svg>