<?xml version="1.0" encoding="UTF-8"?>
<svg xmlns="http://www.w3.org/2000/svg" xmlns:xlink="http://www.w3.org/1999/xlink" width="24" height="25.333333" viewBox="0 0 24 25.333333" version="1.1">
<g id="surface1">
<path style=" stroke:none;fill-rule:nonzero;fill:rgb(100%,100%,100%);fill-opacity:1;" d="M 5.6875 21.511719 L 7.949219 21.511719 C 8.15625 21.511719 8.328125 21.582031 8.46875 21.730469 L 10.074219 23.324219 C 10.734375 23.984375 11.375 24.308594 12 24.300781 C 12.625 24.300781 13.265625 23.976562 13.917969 23.324219 L 15.519531 21.730469 C 15.667969 21.582031 15.84375 21.511719 16.050781 21.511719 L 18.300781 21.511719 C 19.234375 21.511719 19.921875 21.289062 20.363281 20.84375 C 20.808594 20.40625 21.03125 19.71875 21.03125 18.78125 L 21.03125 16.53125 C 21.03125 16.324219 21.105469 16.144531 21.25 16 L 22.84375 14.394531 C 23.503906 13.742188 23.828125 13.105469 23.824219 12.480469 C 23.824219 11.855469 23.496094 11.210938 22.84375 10.550781 L 21.25 8.949219 C 21.105469 8.800781 21.03125 8.628906 21.03125 8.425781 L 21.03125 6.167969 C 21.03125 5.242188 20.808594 4.558594 20.363281 4.113281 C 19.925781 3.664062 19.238281 3.4375 18.300781 3.4375 L 16.050781 3.4375 C 15.84375 3.4375 15.667969 3.367188 15.519531 3.230469 L 13.917969 1.636719 C 13.265625 0.96875 12.625 0.640625 12 0.644531 C 11.375 0.644531 10.734375 0.976562 10.074219 1.636719 L 8.46875 3.230469 C 8.328125 3.367188 8.15625 3.4375 7.949219 3.4375 L 5.6875 3.4375 C 4.757812 3.4375 4.070312 3.660156 3.625 4.105469 C 3.179688 4.542969 2.957031 5.230469 2.957031 6.167969 L 2.957031 8.425781 C 2.957031 8.628906 2.890625 8.800781 2.75 8.949219 L 1.15625 10.550781 C 0.496094 11.210938 0.167969 11.855469 0.167969 12.480469 C 0.167969 13.105469 0.496094 13.742188 1.15625 14.394531 L 2.75 16 C 2.890625 16.144531 2.957031 16.324219 2.957031 16.53125 L 2.957031 18.78125 C 2.957031 19.710938 3.179688 20.398438 3.625 20.84375 C 4.070312 21.289062 4.757812 21.511719 5.6875 21.511719 Z M 5.6875 21.511719 "/>
</g>
</svg>
