<svg width="22" height="15" viewBox="0 0 22 15" fill="none" xmlns="http://www.w3.org/2000/svg">
<path d="M7.4375 14.2109C8.36979 14.2109 9.2474 14.0312 10.0703 13.6719C10.8984 13.3125 11.6276 12.8177 12.2578 12.1875C12.8932 11.5573 13.3906 10.8281 13.75 10C14.1094 9.17188 14.2891 8.29167 14.2891 7.35938C14.2891 6.42188 14.1094 5.54167 13.75 4.71875C13.3906 3.89062 12.8932 3.16146 12.2578 2.53125C11.6276 1.89583 10.8984 1.39844 10.0703 1.03906C9.24219 0.679688 8.35938 0.5 7.42188 0.5C6.48958 0.5 5.60938 0.679688 4.78125 1.03906C3.95833 1.39844 3.23177 1.89583 2.60156 2.53125C1.97135 3.16146 1.47656 3.89062 1.11719 4.71875C0.757812 5.54167 0.578125 6.42188 0.578125 7.35938C0.578125 8.29167 0.757812 9.17188 1.11719 10C1.47656 10.8281 1.97135 11.5573 2.60156 12.1875C3.23698 12.8177 3.96615 13.3125 4.78906 13.6719C5.61719 14.0312 6.5 14.2109 7.4375 14.2109ZM7.42188 12.9609C6.64583 12.9609 5.91927 12.8177 5.24219 12.5312C4.5651 12.2448 3.97135 11.8464 3.46094 11.3359C2.95052 10.8203 2.55208 10.224 2.26562 9.54688C1.97917 8.86979 1.83594 8.14062 1.83594 7.35938C1.83594 6.57812 1.97917 5.84896 2.26562 5.17188C2.55208 4.49479 2.95052 3.90104 3.46094 3.39062C3.97135 2.88021 4.5625 2.48177 5.23438 2.19531C5.91146 1.90365 6.63802 1.75781 7.41406 1.75781C8.19531 1.75781 8.92448 1.90365 9.60156 2.19531C10.2786 2.48177 10.8724 2.88021 11.3828 3.39062C11.8984 3.90104 12.2995 4.49479 12.5859 5.17188C12.8776 5.84896 13.0234 6.57812 13.0234 7.35938C13.0234 8.14062 12.8802 8.86979 12.5938 9.54688C12.3073 10.224 11.9089 10.8203 11.3984 11.3359C10.888 11.8464 10.2917 12.2448 9.60938 12.5312C8.93229 12.8177 8.20312 12.9609 7.42188 12.9609ZM7.44531 5.30469C7.77865 5.30469 8.0651 5.1875 8.30469 4.95312C8.54427 4.71354 8.66406 4.42448 8.66406 4.08594C8.66406 3.74219 8.54427 3.45312 8.30469 3.21875C8.0651 2.97917 7.77865 2.85938 7.44531 2.85938C7.10156 2.85938 6.8099 2.97917 6.57031 3.21875C6.33073 3.45312 6.21094 3.74219 6.21094 4.08594C6.21094 4.42448 6.33073 4.71354 6.57031 4.95312C6.8099 5.1875 7.10156 5.30469 7.44531 5.30469ZM16.2031 10.4766C16.3333 10.6224 16.4974 10.6953 16.6953 10.6953C16.8984 10.6901 17.0703 10.599 17.2109 10.4219C17.5495 10 17.8125 9.52865 18 9.00781C18.1875 8.48177 18.2812 7.93229 18.2812 7.35938C18.2812 6.78646 18.1875 6.23958 18 5.71875C17.8125 5.19271 17.5495 4.71875 17.2109 4.29688C17.0703 4.11979 16.8984 4.03125 16.6953 4.03125C16.4974 4.02604 16.3333 4.09635 16.2031 4.24219C16.0781 4.38281 16.0339 4.53646 16.0703 4.70312C16.1068 4.86979 16.1849 5.03906 16.3047 5.21094C16.5391 5.5026 16.7135 5.83333 16.8281 6.20312C16.9479 6.56771 17.0078 6.95312 17.0078 7.35938C17.0078 7.76562 16.9479 8.15365 16.8281 8.52344C16.7135 8.88802 16.5391 9.21615 16.3047 9.50781C16.1849 9.67448 16.1068 9.84375 16.0703 10.0156C16.0339 10.1823 16.0781 10.3359 16.2031 10.4766ZM18.3906 12.7031C18.5208 12.849 18.6797 12.9193 18.8672 12.9141C19.0599 12.9089 19.2318 12.8255 19.3828 12.6641C20.0339 11.9557 20.5339 11.1484 20.8828 10.2422C21.237 9.33073 21.4141 8.36979 21.4141 7.35938C21.4141 6.34896 21.237 5.38802 20.8828 4.47656C20.5339 3.5651 20.0339 2.75781 19.3828 2.05469C19.2318 1.88802 19.0599 1.80469 18.8672 1.80469C18.6797 1.79948 18.5208 1.86979 18.3906 2.01562C18.2656 2.15625 18.2161 2.3125 18.2422 2.48438C18.2734 2.65625 18.362 2.82292 18.5078 2.98438C19.0286 3.56771 19.4297 4.23177 19.7109 4.97656C19.9974 5.72135 20.1406 6.51562 20.1406 7.35938C20.1406 8.19792 19.9974 8.99219 19.7109 9.74219C19.4297 10.487 19.0286 11.151 18.5078 11.7344C18.362 11.8958 18.2734 12.0625 18.2422 12.2344C18.2161 12.4062 18.2656 12.5625 18.3906 12.7031Z" fill="white"/>
</svg>
