<svg width="20" height="15" viewBox="0 0 20 15" fill="none" xmlns="http://www.w3.org/2000/svg">
<path d="M15.2031 4.02344C15.474 4.01823 15.7057 3.91927 15.8984 3.72656C16.0964 3.52865 16.1953 3.29427 16.1953 3.02344C16.1953 2.7526 16.0964 2.51823 15.8984 2.32031C15.7057 2.11719 15.474 2.01562 15.2031 2.01562C14.9375 2.01562 14.7057 2.11719 14.5078 2.32031C14.3099 2.51823 14.2109 2.7526 14.2109 3.02344C14.2109 3.29427 14.3099 3.53125 14.5078 3.73438C14.7057 3.93229 14.9375 4.02865 15.2031 4.02344ZM15.2031 8.35156C15.474 8.34635 15.7057 8.2474 15.8984 8.05469C16.0964 7.85677 16.1953 7.6224 16.1953 7.35156C16.1953 7.08073 16.0964 6.84635 15.8984 6.64844C15.7057 6.44531 15.474 6.34375 15.2031 6.34375C14.9375 6.34375 14.7057 6.44531 14.5078 6.64844C14.3099 6.84635 14.2109 7.08073 14.2109 7.35156C14.2109 7.6224 14.3099 7.85938 14.5078 8.0625C14.7057 8.26042 14.9375 8.35677 15.2031 8.35156ZM15.2031 12.6797C15.474 12.6745 15.7057 12.5755 15.8984 12.3828C16.0964 12.1849 16.1953 11.9505 16.1953 11.6797C16.1953 11.4089 16.0964 11.1745 15.8984 10.9766C15.7057 10.7734 15.474 10.6719 15.2031 10.6719C14.9375 10.6719 14.7057 10.7734 14.5078 10.9766C14.3099 11.1745 14.2109 11.4089 14.2109 11.6797C14.2109 11.9505 14.3099 12.1875 14.5078 12.3906C14.7057 12.5885 14.9375 12.6849 15.2031 12.6797ZM18.5312 5.78906V4.60938H1.49219V5.78906H18.5312ZM18.5312 10.1328V8.95312H1.49219V10.1328H18.5312ZM3.24219 14.5547H16.7578C17.5807 14.5547 18.1953 14.3516 18.6016 13.9453C19.0078 13.5443 19.2109 12.9427 19.2109 12.1406V2.59375C19.2109 1.79167 19.0078 1.1875 18.6016 0.78125C18.1953 0.375 17.5807 0.171875 16.7578 0.171875H3.24219C2.42448 0.171875 1.8099 0.375 1.39844 0.78125C0.992188 1.18229 0.789062 1.78646 0.789062 2.59375V12.1406C0.789062 12.9427 0.992188 13.5443 1.39844 13.9453C1.8099 14.3516 2.42448 14.5547 3.24219 14.5547ZM3.25781 13.2969C2.86719 13.2969 2.56771 13.1953 2.35938 12.9922C2.15104 12.7839 2.04688 12.4766 2.04688 12.0703V2.66406C2.04688 2.25781 2.15104 1.95052 2.35938 1.74219C2.56771 1.53385 2.86719 1.42969 3.25781 1.42969H16.7422C17.1276 1.42969 17.4245 1.53385 17.6328 1.74219C17.8464 1.95052 17.9531 2.25781 17.9531 2.66406V12.0703C17.9531 12.4766 17.8464 12.7839 17.6328 12.9922C17.4245 13.1953 17.1276 13.2969 16.7422 13.2969H3.25781Z" fill="white"/>
</svg>
