<svg xmlns="http://www.w3.org/2000/svg" width="24" height="24"><path style="stroke:none;fill-rule:nonzero;fill:#fff;fill-opacity:1" d="M18.242 6.438c.328-.012.606-.168.836-.473.238-.32.356-.695.356-1.125 0-.434-.118-.809-.356-1.125-.21-.32-.515-.496-.836-.492-.316 0-.594.164-.832.492-.238.316-.355.691-.355 1.125 0 .43.117.812.355 1.133.238.32.516.476.832.465Zm0 6.925c.328-.008.606-.164.836-.476.23-.293.36-.703.356-1.125 0-.434-.118-.809-.356-1.125-.215-.317-.52-.492-.836-.485-.316 0-.594.16-.832.485-.238.316-.355.691-.355 1.125 0 .437.117.812.355 1.14.238.317.516.47.832.461Zm0 6.922c.328-.004.606-.164.836-.473.238-.316.356-.695.356-1.125 0-.433-.118-.808-.356-1.125-.215-.316-.52-.492-.836-.488-.316 0-.594.164-.832.488a1.824 1.824 0 0 0-.355 1.125c0 .434.117.813.355 1.137.238.317.516.473.832.461Zm3.996-11.023V7.375H1.79v1.887Zm0 6.953v-1.89H1.79v1.89Zm-18.347 7.07h16.218c.989 0 1.727-.32 2.211-.973.489-.64.735-1.605.735-2.886V4.152c0-1.289-.246-2.25-.735-2.902-.484-.652-1.222-.973-2.21-.973H3.89c-.98 0-1.718.32-2.21.973-.489.64-.735 1.61-.735 2.902v15.274c0 1.281.246 2.246.735 2.887.492.652 1.23.972 2.21.972Zm.02-2.008c-.47 0-.829-.164-1.079-.492-.25-.332-.375-.82-.375-1.473V4.262c0-.649.125-1.14.375-1.477.25-.332.61-.5 1.078-.5h16.18c.465 0 .82.168 1.07.5.254.336.383.828.383 1.477v15.05c0 .653-.129 1.141-.383 1.473-.25.328-.605.492-1.07.492Zm0 0"/></svg>