<svg xmlns="http://www.w3.org/2000/svg" width="24" height="24"><path style="stroke:none;fill-rule:nonzero;fill:#fff;fill-opacity:1" d="m1.203 22.43 3.938.965c.832.199 1.484.148 1.953-.16.468-.305.703-.837.703-1.587V16.73h6.984v-4.023H2.671v8.379c0 .402-.136.734-.405.98-.262.243-.614.36-1.063.36Zm1.469-12.117h5.125V4.516c0-.684-.168-1.2-.5-1.547-.332-.356-.832-.614-1.5-.778L2.063 1.27c.187.113.332.27.437.46.113.184.172.403.172.665ZM16.203 22.43l3.938.965c.832.199 1.484.148 1.953-.16.468-.305.703-.837.703-1.587V4.516c0-.684-.172-1.204-.516-1.559-.332-.36-.832-.617-1.5-.781l-3.718-.906c.187.113.332.27.437.46.113.184.172.407.172.665v18.69c0 .403-.137.735-.406.981-.262.243-.614.36-1.063.36Zm0 0"/></svg>