<?xml version="1.0" encoding="UTF-8"?>
<svg xmlns="http://www.w3.org/2000/svg" xmlns:xlink="http://www.w3.org/1999/xlink" width="24" height="26" viewBox="0 0 24 26" version="1.1">
<g id="surface1">
<path style=" stroke:none;fill-rule:nonzero;fill:rgb(100%,100%,100%);fill-opacity:1;" d="M 1.203125 24.296875 L 5.140625 25.34375 C 5.972656 25.5625 6.625 25.503906 7.09375 25.171875 C 7.5625 24.839844 7.796875 24.265625 7.796875 23.453125 L 7.796875 18.125 L 14.78125 18.125 L 14.78125 13.765625 L 2.671875 13.765625 L 2.671875 22.84375 C 2.671875 23.28125 2.535156 23.636719 2.265625 23.90625 C 2.003906 24.167969 1.652344 24.296875 1.203125 24.296875 Z M 2.671875 11.171875 L 7.796875 11.171875 L 7.796875 4.890625 C 7.796875 4.152344 7.628906 3.59375 7.296875 3.21875 C 6.964844 2.832031 6.464844 2.550781 5.796875 2.375 L 2.0625 1.375 C 2.25 1.5 2.394531 1.667969 2.5 1.875 C 2.613281 2.074219 2.671875 2.3125 2.671875 2.59375 Z M 16.203125 24.296875 L 20.140625 25.34375 C 20.972656 25.5625 21.625 25.503906 22.09375 25.171875 C 22.5625 24.839844 22.796875 24.265625 22.796875 23.453125 L 22.796875 4.890625 C 22.796875 4.152344 22.625 3.589844 22.28125 3.203125 C 21.949219 2.816406 21.449219 2.535156 20.78125 2.359375 L 17.0625 1.375 C 17.25 1.5 17.394531 1.667969 17.5 1.875 C 17.613281 2.074219 17.671875 2.3125 17.671875 2.59375 L 17.671875 22.84375 C 17.671875 23.28125 17.535156 23.636719 17.265625 23.90625 C 17.003906 24.167969 16.652344 24.296875 16.203125 24.296875 Z M 16.203125 24.296875 "/>
</g>
</svg>
