<svg width="156" height="120" viewBox="0 0 156 120" fill="none" xmlns="http://www.w3.org/2000/svg">
<path d="M48.3125 119.062H117.375C120.125 119.062 122.271 118.458 123.812 117.25C125.396 116.042 126.188 114.375 126.188 112.25C126.188 108.917 125.188 105.417 123.188 101.75C121.188 98.0833 118.292 94.6458 114.5 91.4375C110.75 88.2292 106.208 85.625 100.875 83.625C95.5417 81.5833 89.5417 80.5625 82.875 80.5625C76.2083 80.5625 70.1875 81.5833 64.8125 83.625C59.4792 85.625 54.9167 88.2292 51.125 91.4375C47.375 94.6458 44.5 98.0833 42.5 101.75C40.5 105.417 39.5 108.917 39.5 112.25C39.5 114.375 40.2708 116.042 41.8125 117.25C43.3958 118.458 45.5625 119.062 48.3125 119.062ZM82.875 71.375C86.5417 71.375 89.9375 70.375 93.0625 68.375C96.1875 66.375 98.6875 63.6667 100.562 60.25C102.479 56.7917 103.438 52.9167 103.438 48.625C103.438 44.375 102.479 40.5833 100.562 37.25C98.6875 33.9167 96.1875 31.2917 93.0625 29.375C89.9375 27.4583 86.5417 26.5 82.875 26.5C79.2083 26.5 75.8125 27.4792 72.6875 29.4375C69.5625 31.3958 67.0417 34.0625 65.125 37.4375C63.2083 40.7708 62.25 44.5417 62.25 48.75C62.25 53 63.2083 56.8333 65.125 60.25C67.0417 63.6667 69.5625 66.375 72.6875 68.375C75.8125 70.375 79.2083 71.375 82.875 71.375ZM9.875 93.625H22.5C25.4583 93.625 27.6875 92.8958 29.1875 91.4375C30.6875 89.9375 31.4375 87.7292 31.4375 84.8125V71.875C31.4375 68.9583 30.6875 66.7708 29.1875 65.3125C27.6875 63.8542 25.4583 63.125 22.5 63.125H9.875C6.91667 63.125 4.6875 63.8542 3.1875 65.3125C1.6875 66.7708 0.9375 68.9583 0.9375 71.875V84.8125C0.9375 87.7708 1.6875 89.9792 3.1875 91.4375C4.6875 92.8958 6.91667 93.625 9.875 93.625ZM26.5 48.5H53.75C53.7917 43.125 55.0208 38.2083 57.4375 33.75C59.8542 29.25 63.1042 25.6042 67.1875 22.8125C71.2708 20.0208 75.8333 18.4375 80.875 18.0625V9.375C80.875 6.45833 80.125 4.27083 78.625 2.8125C77.125 1.35417 74.875 0.625 71.875 0.625H26.5C23.5417 0.625 21.3125 1.35417 19.8125 2.8125C18.3125 4.27083 17.5625 6.45833 17.5625 9.375V39.75C17.5625 42.6667 18.3125 44.8542 19.8125 46.3125C21.3125 47.7708 23.5417 48.5 26.5 48.5ZM127.75 81.75H146.188C149.188 81.75 151.438 81.0208 152.938 79.5625C154.438 78.1042 155.188 75.9167 155.188 73V36.5625C155.188 33.6458 154.438 31.4583 152.938 30C151.438 28.5417 149.188 27.8125 146.188 27.8125H127.75C124.75 27.8125 122.5 28.5417 121 30C119.542 31.4583 118.812 33.6458 118.812 36.5625V73C118.812 75.9167 119.542 78.1042 121 79.5625C122.5 81.0208 124.75 81.75 127.75 81.75Z" fill="white"/>
</svg>
