<svg width="187" height="108" viewBox="0 0 187 108" fill="none" xmlns="http://www.w3.org/2000/svg">
<path d="M93.5 64.125C96.9167 64.125 100.083 63.1875 103 61.3125C105.958 59.4375 108.333 56.8958 110.125 53.6875C111.917 50.4792 112.812 46.875 112.812 42.875C112.812 38.9167 111.917 35.375 110.125 32.25C108.333 29.125 105.958 26.6667 103 24.875C100.083 23.0417 96.9167 22.125 93.5 22.125C90.0417 22.125 86.8333 23.0417 83.875 24.875C80.9583 26.7083 78.6042 29.2083 76.8125 32.375C75.0625 35.5417 74.1875 39.0833 74.1875 43C74.1875 46.9583 75.0625 50.5417 76.8125 53.75C78.6042 56.9167 80.9583 59.4375 83.875 61.3125C86.8333 63.1875 90.0417 64.125 93.5 64.125ZM61.9375 107.625H124.938C127.562 107.625 129.646 107.021 131.188 105.812C132.729 104.646 133.5 103.021 133.5 100.938C133.5 97.8125 132.562 94.5417 130.688 91.125C128.854 87.7083 126.188 84.5208 122.688 81.5625C119.229 78.5625 115.021 76.1458 110.062 74.3125C105.146 72.4375 99.625 71.5 93.5 71.5C87.3333 71.5 81.7708 72.4375 76.8125 74.3125C71.8958 76.1458 67.6875 78.5625 64.1875 81.5625C60.7292 84.5208 58.0625 87.7083 56.1875 91.125C54.3542 94.5417 53.4375 97.8125 53.4375 100.938C53.4375 103.021 54.1875 104.646 55.6875 105.812C57.1875 107.021 59.2708 107.625 61.9375 107.625ZM5.25 106.125C6.625 106.125 7.79167 105.646 8.75 104.688C9.75 103.729 10.25 102.542 10.25 101.125C10.25 91.1667 11.6458 81.6875 14.4375 72.6875C17.2292 63.6875 21.1667 55.4375 26.25 47.9375C31.375 40.4375 37.3958 33.9167 44.3125 28.375C51.2292 22.8333 58.8333 18.5417 67.125 15.5C75.4583 12.4583 84.2083 10.9375 93.375 10.9375C102.542 10.9375 111.271 12.4583 119.562 15.5C127.854 18.5417 135.458 22.8333 142.375 28.375C149.333 33.9167 155.354 40.4375 160.438 47.9375C165.562 55.4375 169.521 63.6875 172.312 72.6875C175.146 81.6875 176.562 91.1667 176.562 101.125C176.562 102.542 177.042 103.729 178 104.688C178.958 105.646 180.125 106.125 181.5 106.125C182.917 106.125 184.125 105.646 185.125 104.688C186.125 103.729 186.625 102.542 186.625 101.125C186.625 90.0833 185.042 79.5625 181.875 69.5625C178.75 59.5625 174.312 50.3958 168.562 42.0625C162.854 33.6875 156.104 26.4167 148.312 20.25C140.562 14.0833 132.021 9.3125 122.688 5.9375C113.396 2.5625 103.625 0.875 93.375 0.875C83.0833 0.875 73.2917 2.5625 64 5.9375C54.7083 9.3125 46.1667 14.0833 38.375 20.25C30.625 26.4167 23.8958 33.6875 18.1875 42.0625C12.4792 50.3958 8.04167 59.5625 4.875 69.5625C1.75 79.5625 0.1875 90.0833 0.1875 101.125C0.1875 102.542 0.666667 103.729 1.625 104.688C2.625 105.646 3.83333 106.125 5.25 106.125ZM34.1875 106.125C35.5625 106.125 36.7708 105.646 37.8125 104.688C38.8542 103.729 39.375 102.562 39.375 101.188C39.375 94.1875 40.4792 87.5208 42.6875 81.1875C44.9375 74.8542 48.1042 69.125 52.1875 64C56.3125 58.8333 61.1458 54.5208 66.6875 51.0625C66.1875 49.1875 65.875 47.3542 65.75 45.5625C65.6667 43.7292 65.75 41.875 66 40C58.625 43.6667 52.1667 48.625 46.625 54.875C41.125 61.0833 36.8333 68.1667 33.75 76.125C30.7083 84.0417 29.1875 92.3958 29.1875 101.188C29.1875 102.562 29.6667 103.729 30.625 104.688C31.625 105.646 32.8125 106.125 34.1875 106.125ZM152.625 106.125C154 106.125 155.188 105.646 156.188 104.688C157.188 103.729 157.688 102.562 157.688 101.188C157.688 92.4375 156.167 84.1042 153.125 76.1875C150.083 68.2708 145.812 61.2083 140.312 55C134.854 48.7917 128.458 43.8333 121.125 40.125C121.292 41.9167 121.312 43.75 121.188 45.625C121.062 47.4583 120.771 49.3125 120.312 51.1875C125.854 54.6042 130.646 58.8958 134.688 64.0625C138.771 69.2292 141.917 74.9792 144.125 81.3125C146.375 87.6042 147.5 94.2292 147.5 101.188C147.5 102.562 148 103.729 149 104.688C150.042 105.646 151.25 106.125 152.625 106.125Z" fill="white"/>
</svg>
