<svg xmlns="http://www.w3.org/2000/svg" width="24" height="24"><path style="stroke:none;fill-rule:nonzero;fill:#fff;fill-opacity:1" d="M12 23.05c1.633 0 3.168-.292 4.605-.882a12.22 12.22 0 0 0 3.82-2.438 11.467 11.467 0 0 0 2.59-3.582c.626-1.363.938-2.808.938-4.347a10.2 10.2 0 0 0-.937-4.332 11.53 11.53 0 0 0-2.59-3.598 12.361 12.361 0 0 0-3.82-2.437A12.166 12.166 0 0 0 11.987.55c-1.633 0-3.172.293-4.617.883A12.307 12.307 0 0 0 3.562 3.87 11.523 11.523 0 0 0 .985 7.465 10.2 10.2 0 0 0 .047 11.8c0 1.539.312 2.984.937 4.347a11.467 11.467 0 0 0 2.59 3.582 12.236 12.236 0 0 0 3.809 2.438c1.445.59 2.984.883 4.617.883Zm-4.64-6.265V7.512c0-.274.085-.492.257-.653.188-.164.438-.25.692-.242h2.46c1.008 0 1.754.235 2.239.707.492.461.738 1.207.738 2.239v4.156a.703.703 0 0 1-.2.52.682.682 0 0 1-.503.187.761.761 0 0 1-.527-.188.687.687 0 0 1-.211-.52V9.763c0-.657-.153-1.098-.457-1.325-.297-.234-.778-.351-1.442-.351H8.812v8.691a.732.732 0 0 1-.199.516.665.665 0 0 1-.504.2.752.752 0 0 1-.539-.2.662.662 0 0 1-.21-.508Zm2.507-.308v-6.243c0-.21.067-.382.2-.507a.765.765 0 0 1 .527-.188c.21 0 .383.063.515.188.133.125.2.296.2.507v5.66h1.699c.672 0 1.137-.105 1.394-.308.266-.207.399-.676.399-1.402v-6.98c0-.216.066-.384.199-.509a.718.718 0 0 1 .527-.199c.211 0 .383.066.516.2.133.132.2.3.2.507v6.98c0 1.141-.235 1.958-.704 2.45-.469.484-1.215.726-2.238.726h-2.52c-.281 0-.504-.078-.668-.23-.164-.164-.246-.379-.246-.652Zm0 0"/></svg>