<svg width="14" height="17" viewBox="0 0 14 17" fill="none" xmlns="http://www.w3.org/2000/svg">
<path d="M7 16.25C7.0625 16.25 7.13802 16.237 7.22656 16.2109C7.32031 16.1901 7.41667 16.1536 7.51562 16.1016C8.63021 15.5182 9.5625 14.9922 10.3125 14.5234C11.0677 14.0547 11.6693 13.5911 12.1172 13.1328C12.5703 12.6745 12.8958 12.1823 13.0938 11.6562C13.2917 11.125 13.3906 10.5078 13.3906 9.80469V3.91406C13.3906 3.51302 13.3047 3.22396 13.1328 3.04688C12.9661 2.86979 12.7188 2.71354 12.3906 2.57812C12.2083 2.5 11.9583 2.40104 11.6406 2.28125C11.3229 2.16146 10.9714 2.03125 10.5859 1.89062C10.2057 1.75 9.82292 1.60938 9.4375 1.46875C9.05729 1.32812 8.70833 1.20312 8.39062 1.09375C8.07812 0.979167 7.83073 0.890625 7.64844 0.828125C7.54427 0.796875 7.4375 0.770833 7.32812 0.75C7.21875 0.729167 7.10938 0.71875 7 0.71875C6.89062 0.71875 6.78125 0.729167 6.67188 0.75C6.56771 0.770833 6.46354 0.796875 6.35938 0.828125C6.17708 0.890625 5.92708 0.979167 5.60938 1.09375C5.29167 1.20312 4.9401 1.32812 4.55469 1.46875C4.17448 1.60417 3.79167 1.74479 3.40625 1.89062C3.02604 2.03125 2.67708 2.16406 2.35938 2.28906C2.04167 2.40885 1.79167 2.50521 1.60938 2.57812C1.28646 2.70833 1.03906 2.86458 0.867188 3.04688C0.695312 3.22396 0.609375 3.51302 0.609375 3.91406V9.80469C0.609375 10.5078 0.710938 11.1198 0.914062 11.6406C1.1224 12.1562 1.45312 12.638 1.90625 13.0859C2.36458 13.5286 2.96875 13.987 3.71875 14.4609C4.47396 14.9349 5.39583 15.4818 6.48438 16.1016C6.58333 16.1536 6.67708 16.1901 6.76562 16.2109C6.85938 16.237 6.9375 16.25 7 16.25Z" fill="white"/>
</svg>
