<svg width="105" height="127" viewBox="0 0 105 127" fill="none" xmlns="http://www.w3.org/2000/svg">
<path d="M104.688 74.25V26.4375C104.688 23.1458 104 20.7917 102.625 19.375C101.25 17.9167 99.2292 16.6458 96.5625 15.5625C95.1042 14.9375 93.0833 14.125 90.5 13.125C87.9167 12.125 85.0625 11.0417 81.9375 9.875C78.8542 8.70833 75.75 7.5625 72.625 6.4375C69.5 5.27083 66.6458 4.25 64.0625 3.375C61.4792 2.45833 59.4583 1.79167 58 1.375C57.1667 1.16667 56.2917 0.958333 55.375 0.75C54.5 0.541667 53.625 0.4375 52.75 0.4375C51.875 0.4375 51 0.541667 50.125 0.75C49.25 0.916667 48.3958 1.125 47.5625 1.375C46.0625 1.875 44.0208 2.58333 41.4375 3.5C38.8542 4.41667 36 5.4375 32.875 6.5625C29.7917 7.6875 26.6875 8.83333 23.5625 10C20.4375 11.125 17.5833 12.1875 15 13.1875C12.4167 14.1458 10.3958 14.9375 8.9375 15.5625C6.3125 16.6875 4.29167 17.9583 2.875 19.375C1.5 20.7917 0.8125 23.1458 0.8125 26.4375V74.25C0.8125 79.9583 1.64583 84.9375 3.3125 89.1875C4.97917 93.3958 7.66667 97.3125 11.375 100.938C15.0833 104.562 19.9792 108.292 26.0625 112.125C32.1875 116 39.6875 120.438 48.5625 125.438C49.3542 125.854 50.125 126.167 50.875 126.375C51.625 126.583 52.25 126.688 52.75 126.688C53.25 126.688 53.875 126.583 54.625 126.375C55.375 126.167 56.1458 125.854 56.9375 125.438C65.8125 120.438 73.2917 116 79.375 112.125C85.5 108.25 90.4167 104.5 94.125 100.875C97.8333 97.25 100.521 93.3333 102.188 89.125C103.854 84.9167 104.688 79.9583 104.688 74.25ZM51.4375 115.125C51.0625 115 50.6667 114.833 50.25 114.625C49.8333 114.417 49.375 114.167 48.875 113.875C41.6667 109.5 35.6042 105.729 30.6875 102.562C25.8125 99.3958 21.9167 96.3958 19 93.5625C16.0833 90.7292 13.9792 87.625 12.6875 84.25C11.3958 80.875 10.75 76.7708 10.75 71.9375V28.375C10.75 27.3333 10.875 26.5417 11.125 26C11.4167 25.4583 12 25.0417 12.875 24.75C14.7917 24.0833 17 23.3125 19.5 22.4375C22.0417 21.5208 24.7083 20.5625 27.5 19.5625C30.2917 18.5625 33.0625 17.5625 35.8125 16.5625C38.6042 15.5208 41.2292 14.5417 43.6875 13.625C46.1875 12.6667 48.375 11.8125 50.25 11.0625C50.5 10.9375 50.7083 10.8542 50.875 10.8125C51.0833 10.7708 51.2708 10.7292 51.4375 10.6875V115.125Z" fill="white"/>
</svg>
