<?xml version="1.0" encoding="UTF-8"?>
<svg xmlns="http://www.w3.org/2000/svg" xmlns:xlink="http://www.w3.org/1999/xlink" width="24" height="29.142857" viewBox="0 0 24 29.142857" version="1.1">
<g id="surface1">
<path style=" stroke:none;fill-rule:nonzero;fill:rgb(100%,100%,100%);fill-opacity:1;" d="M 12 27.855469 C 12.105469 27.855469 12.238281 27.835938 12.386719 27.789062 C 12.550781 27.753906 12.714844 27.691406 12.882812 27.601562 C 14.792969 26.601562 16.394531 25.699219 17.679688 24.898438 C 18.972656 24.09375 20.003906 23.300781 20.773438 22.511719 C 21.550781 21.726562 22.105469 20.882812 22.445312 19.980469 C 22.785156 19.070312 22.957031 18.011719 22.957031 16.808594 L 22.957031 6.710938 C 22.957031 6.023438 22.808594 5.527344 22.511719 5.222656 C 22.226562 4.917969 21.804688 4.652344 21.242188 4.417969 C 20.929688 4.285156 20.5 4.117188 19.957031 3.910156 C 19.410156 3.707031 18.808594 3.480469 18.148438 3.242188 C 17.496094 3 16.839844 2.757812 16.179688 2.519531 C 15.527344 2.277344 14.929688 2.0625 14.382812 1.875 C 13.847656 1.679688 13.425781 1.527344 13.113281 1.417969 C 12.933594 1.367188 12.75 1.320312 12.5625 1.285156 C 12.375 1.25 12.1875 1.230469 12 1.230469 C 11.8125 1.230469 11.625 1.25 11.4375 1.285156 C 11.257812 1.320312 11.082031 1.367188 10.902344 1.417969 C 10.589844 1.527344 10.160156 1.679688 9.617188 1.875 C 9.070312 2.0625 8.46875 2.277344 7.808594 2.519531 C 7.15625 2.75 6.5 2.992188 5.839844 3.242188 C 5.1875 3.480469 4.589844 3.710938 4.042969 3.925781 C 3.5 4.128906 3.070312 4.292969 2.757812 4.417969 C 2.207031 4.644531 1.78125 4.910156 1.488281 5.222656 C 1.191406 5.527344 1.042969 6.023438 1.042969 6.710938 L 1.042969 16.808594 C 1.042969 18.011719 1.21875 19.0625 1.566406 19.957031 C 1.925781 20.839844 2.492188 21.664062 3.269531 22.433594 C 4.054688 23.191406 5.089844 23.976562 6.375 24.789062 C 7.667969 25.601562 9.25 26.539062 11.117188 27.601562 C 11.285156 27.691406 11.445312 27.753906 11.597656 27.789062 C 11.757812 27.835938 11.894531 27.855469 12 27.855469 Z M 12 27.855469 "/>
</g>
</svg>
