<?xml version="1.0" encoding="UTF-8"?>
<svg xmlns="http://www.w3.org/2000/svg" xmlns:xlink="http://www.w3.org/1999/xlink" width="24" height="29.142857" viewBox="0 0 24 29.142857" version="1.1">
<g id="surface1">
<path style=" stroke:none;fill-rule:nonzero;fill:rgb(100%,100%,100%);fill-opacity:1;" d="M 23.128906 16.980469 L 23.128906 6.738281 C 23.128906 6.03125 22.980469 5.527344 22.6875 5.222656 C 22.394531 4.910156 21.960938 4.636719 21.386719 4.40625 C 21.074219 4.273438 20.644531 4.097656 20.089844 3.882812 C 19.535156 3.667969 18.925781 3.4375 18.253906 3.1875 C 17.59375 2.9375 16.929688 2.691406 16.257812 2.449219 C 15.589844 2.199219 14.976562 1.980469 14.425781 1.792969 C 13.871094 1.597656 13.4375 1.457031 13.125 1.367188 C 12.945312 1.320312 12.757812 1.277344 12.5625 1.230469 C 12.375 1.1875 12.1875 1.164062 12 1.164062 C 11.8125 1.164062 11.625 1.1875 11.4375 1.230469 C 11.25 1.269531 11.066406 1.3125 10.886719 1.367188 C 10.566406 1.472656 10.128906 1.625 9.574219 1.820312 C 9.023438 2.019531 8.410156 2.238281 7.742188 2.476562 C 7.082031 2.71875 6.414062 2.964844 5.746094 3.214844 C 5.074219 3.457031 4.464844 3.683594 3.910156 3.898438 C 3.355469 4.101562 2.925781 4.273438 2.613281 4.40625 C 2.050781 4.648438 1.617188 4.917969 1.3125 5.222656 C 1.019531 5.527344 0.871094 6.03125 0.871094 6.738281 L 0.871094 16.980469 C 0.871094 18.207031 1.050781 19.273438 1.40625 20.183594 C 1.761719 21.085938 2.339844 21.925781 3.132812 22.699219 C 3.929688 23.476562 4.976562 24.277344 6.28125 25.097656 C 7.59375 25.929688 9.199219 26.878906 11.101562 27.949219 C 11.273438 28.039062 11.4375 28.105469 11.597656 28.152344 C 11.757812 28.195312 11.894531 28.21875 12 28.21875 C 12.105469 28.21875 12.242188 28.195312 12.402344 28.152344 C 12.5625 28.105469 12.726562 28.039062 12.898438 27.949219 C 14.800781 26.878906 16.402344 25.929688 17.707031 25.097656 C 19.019531 24.269531 20.070312 23.464844 20.867188 22.6875 C 21.660156 21.910156 22.238281 21.070312 22.59375 20.167969 C 22.949219 19.269531 23.128906 18.207031 23.128906 16.980469 Z M 11.71875 25.742188 C 11.636719 25.714844 11.554688 25.679688 11.464844 25.632812 C 11.375 25.589844 11.277344 25.535156 11.167969 25.472656 C 9.625 24.535156 8.324219 23.726562 7.273438 23.050781 C 6.226562 22.371094 5.394531 21.726562 4.769531 21.121094 C 4.144531 20.511719 3.691406 19.847656 3.414062 19.125 C 3.136719 18.402344 3 17.523438 3 16.488281 L 3 7.152344 C 3 6.929688 3.027344 6.757812 3.082031 6.644531 C 3.144531 6.527344 3.269531 6.4375 3.457031 6.375 C 3.867188 6.230469 4.339844 6.066406 4.875 5.878906 C 5.417969 5.683594 5.992188 5.476562 6.589844 5.261719 C 7.1875 5.050781 7.78125 4.835938 8.371094 4.621094 C 8.96875 4.398438 9.53125 4.1875 10.058594 3.992188 C 10.59375 3.785156 11.0625 3.601562 11.464844 3.441406 C 11.519531 3.414062 11.5625 3.398438 11.597656 3.386719 C 11.644531 3.378906 11.683594 3.371094 11.71875 3.363281 Z M 11.71875 25.742188 "/>
</g>
</svg>
