<svg width="18" height="15" viewBox="0 0 18 15" fill="none" xmlns="http://www.w3.org/2000/svg">
<path d="M6.58594 14.5625H11.4062C11.9531 14.5625 12.3698 14.4115 12.6562 14.1094C12.9427 13.8125 13.0859 13.4062 13.0859 12.8906V9.39062H16.2578C16.5755 9.39062 16.8438 9.30208 17.0625 9.125C17.2865 8.94271 17.3984 8.70312 17.3984 8.40625C17.3984 8.22396 17.3542 8.0599 17.2656 7.91406C17.1823 7.76823 17.0703 7.625 16.9297 7.48438L9.96094 0.539062C9.8099 0.382812 9.65365 0.265625 9.49219 0.1875C9.33594 0.104167 9.16927 0.0625 8.99219 0.0625C8.82031 0.0625 8.65365 0.104167 8.49219 0.1875C8.33594 0.265625 8.18229 0.382812 8.03125 0.539062L1.0625 7.48438C0.911458 7.63542 0.794271 7.78125 0.710938 7.92188C0.632812 8.0625 0.59375 8.22396 0.59375 8.40625C0.59375 8.70312 0.703125 8.94271 0.921875 9.125C1.14062 9.30208 1.40885 9.39062 1.72656 9.39062H4.90625V12.8906C4.90625 13.4062 5.04948 13.8125 5.33594 14.1094C5.6224 14.4115 6.03906 14.5625 6.58594 14.5625Z" fill="white"/>
</svg>
