<svg width="128" height="128" viewBox="0 0 128 128" fill="none" xmlns="http://www.w3.org/2000/svg">
<path d="M63.9375 127.625C72.6458 127.625 80.8333 125.958 88.5 122.625C96.2083 119.292 103 114.688 108.875 108.812C114.75 102.938 119.354 96.1667 122.688 88.5C126.021 80.7917 127.688 72.5833 127.688 63.875C127.688 55.1667 126.021 46.9792 122.688 39.3125C119.354 31.6042 114.75 24.8125 108.875 18.9375C103 13.0625 96.2083 8.45833 88.5 5.125C80.7917 1.79167 72.5833 0.125 63.875 0.125C55.1667 0.125 46.9583 1.79167 39.25 5.125C31.5833 8.45833 24.8125 13.0625 18.9375 18.9375C13.1042 24.8125 8.52083 31.6042 5.1875 39.3125C1.85417 46.9792 0.1875 55.1667 0.1875 63.875C0.1875 72.5833 1.85417 80.7917 5.1875 88.5C8.52083 96.1667 13.125 102.938 19 108.812C24.875 114.688 31.6458 119.292 39.3125 122.625C47.0208 125.958 55.2292 127.625 63.9375 127.625ZM63.9375 117C56.5625 117 49.6667 115.625 43.25 112.875C36.8333 110.125 31.1875 106.333 26.3125 101.5C21.4792 96.625 17.6875 90.9792 14.9375 84.5625C12.2292 78.1458 10.875 71.25 10.875 63.875C10.875 56.5 12.2292 49.6042 14.9375 43.1875C17.6875 36.7708 21.4792 31.125 26.3125 26.25C31.1458 21.375 36.7708 17.5833 43.1875 14.875C49.6042 12.125 56.5 10.75 63.875 10.75C71.25 10.75 78.1458 12.125 84.5625 14.875C91.0208 17.5833 96.6667 21.375 101.5 26.25C106.375 31.125 110.188 36.7708 112.938 43.1875C115.688 49.6042 117.062 56.5 117.062 63.875C117.062 71.25 115.688 78.1458 112.938 84.5625C110.229 90.9792 106.438 96.625 101.562 101.5C96.6875 106.333 91.0417 110.125 84.625 112.875C78.2083 115.625 71.3125 117 63.9375 117ZM66.1875 99.375C66.3542 99.3333 66.5625 99.2292 66.8125 99.0625L92.4375 84.5C93.9375 83.625 95.0833 82.625 95.875 81.5C96.7083 80.375 97.125 78.6458 97.125 76.3125V50.8125C97.125 49.7708 97.0208 48.9583 96.8125 48.375L66.1875 65.875V99.375ZM61.75 99.375V65.875L31.125 48.375C31 48.75 30.9167 49.1458 30.875 49.5625C30.875 49.9375 30.875 50.3542 30.875 50.8125V76.3125C30.875 78.6458 31.2708 80.375 32.0625 81.5C32.8542 82.625 34 83.625 35.5 84.5L61.125 99.0625C61.375 99.2292 61.5833 99.3333 61.75 99.375ZM63.9375 62L77.875 54.0625L47 36.4375L35 43.3125C34.25 43.6458 33.6458 44.0625 33.1875 44.5625L63.9375 62ZM82.5 51.5L94.75 44.5625C94.2917 44.0625 93.6875 43.6458 92.9375 43.3125L69.875 30.125C67.9583 28.9583 65.9792 28.375 63.9375 28.375C61.9375 28.375 59.9792 28.9583 58.0625 30.125L51.4375 33.875L82.5 51.5Z" fill="white"/>
</svg>
