<svg width="128" height="137" viewBox="0 0 128 137" fill="none" xmlns="http://www.w3.org/2000/svg">
<path d="M68.625 136.625C68.8333 136.583 69.0417 136.5 69.25 136.375C69.4583 136.292 69.6667 136.188 69.875 136.062L118.812 108.188C121.729 106.521 123.938 104.625 125.438 102.5C126.979 100.333 127.75 96.9792 127.75 92.4375V43.75C127.75 41.8333 127.583 40.25 127.25 39L68.625 72.5V136.625ZM60.0625 136.625V72.5L1.4375 39C1.10417 40.25 0.9375 41.8333 0.9375 43.75V92.4375C0.9375 96.9792 1.70833 100.333 3.25 102.5C4.79167 104.625 7 106.521 9.875 108.188L58.875 136.062C59.0833 136.188 59.2708 136.292 59.4375 136.375C59.6458 136.5 59.8542 136.583 60.0625 136.625ZM64.375 65L91.0625 49.875L31.875 16.0625L8.9375 29.125C7.52083 29.9167 6.35417 30.7292 5.4375 31.5625L64.375 65ZM99.75 44.9375L123.25 31.5625C122.333 30.7292 121.188 29.9167 119.812 29.125L75.6875 4C71.8125 1.75 68.0417 0.625 64.375 0.625C60.6667 0.625 56.875 1.75 53 4L40.3125 11.1875L99.75 44.9375Z" fill="white"/>
</svg>
