<?xml version="1.0" encoding="UTF-8"?>
<svg xmlns="http://www.w3.org/2000/svg" xmlns:xlink="http://www.w3.org/1999/xlink" width="24" height="18" viewBox="0 0 24 18" version="1.1">
<g id="surface1">
<path style=" stroke:none;fill-rule:nonzero;fill:rgb(100%,100%,100%);fill-opacity:1;" d="M 7.367188 11.734375 L 7.367188 12.351562 C 7.367188 12.910156 7.460938 13.320312 7.648438 13.585938 C 7.835938 13.851562 8.105469 14.085938 8.460938 14.289062 L 14.609375 17.773438 C 14.828125 17.898438 15.042969 17.960938 15.25 17.960938 C 15.464844 17.960938 15.683594 17.898438 15.90625 17.773438 L 22.046875 14.289062 C 22.40625 14.085938 22.675781 13.851562 22.859375 13.585938 C 23.046875 13.320312 23.140625 12.910156 23.140625 12.351562 L 23.140625 6.164062 C 23.140625 5.757812 23.0625 5.421875 22.90625 5.15625 C 22.753906 4.886719 22.515625 4.65625 22.1875 4.46875 L 16.65625 1.328125 C 16.1875 1.058594 15.722656 0.921875 15.257812 0.921875 C 14.792969 0.921875 14.324219 1.058594 13.851562 1.328125 L 8.328125 4.46875 C 7.996094 4.65625 7.75 4.886719 7.59375 5.15625 C 7.441406 5.421875 7.367188 5.757812 7.367188 6.164062 L 7.367188 8.765625 L 8.554688 8.765625 L 8.554688 6.414062 L 14.640625 9.890625 L 14.640625 16.375 L 9.164062 13.257812 C 8.933594 13.132812 8.777344 12.996094 8.6875 12.851562 C 8.597656 12.707031 8.554688 12.527344 8.554688 12.3125 L 8.554688 11.734375 Z M 21.351562 13.257812 L 15.867188 16.375 L 15.867188 9.890625 L 21.953125 6.414062 L 21.953125 12.3125 C 21.953125 12.527344 21.910156 12.707031 21.820312 12.851562 C 21.730469 12.996094 21.574219 13.132812 21.351562 13.257812 Z M 15.257812 8.796875 L 9.226562 5.382812 L 11.640625 4 L 17.671875 7.429688 Z M 18.929688 6.71875 L 12.875 3.296875 L 14.375 2.445312 C 14.96875 2.105469 15.558594 2.105469 16.140625 2.445312 L 21.289062 5.382812 Z M 10.328125 10.25 C 10.328125 10.046875 10.261719 9.878906 10.132812 9.75 C 10.003906 9.621094 9.839844 9.554688 9.640625 9.554688 L 4.390625 9.554688 L 1.984375 9.632812 L 1.984375 10.070312 L 4.117188 8.132812 L 5.195312 7.179688 C 5.285156 7.105469 5.34375 7.023438 5.375 6.929688 C 5.40625 6.835938 5.421875 6.742188 5.421875 6.648438 C 5.421875 6.457031 5.355469 6.296875 5.21875 6.171875 C 5.089844 6.042969 4.925781 5.976562 4.734375 5.976562 C 4.550781 5.976562 4.386719 6.046875 4.234375 6.1875 L 0.6875 9.726562 C 0.527344 9.878906 0.445312 10.050781 0.445312 10.25 C 0.445312 10.449219 0.527344 10.621094 0.6875 10.773438 L 4.210938 14.289062 C 4.300781 14.371094 4.386719 14.433594 4.46875 14.46875 C 4.558594 14.503906 4.644531 14.523438 4.734375 14.523438 C 4.925781 14.523438 5.089844 14.460938 5.21875 14.335938 C 5.355469 14.207031 5.421875 14.042969 5.421875 13.851562 C 5.421875 13.757812 5.40625 13.664062 5.375 13.570312 C 5.34375 13.476562 5.285156 13.394531 5.195312 13.320312 L 4.117188 12.367188 L 1.984375 10.429688 L 1.984375 10.867188 L 4.390625 10.945312 L 9.640625 10.945312 C 9.839844 10.945312 10.003906 10.878906 10.132812 10.75 C 10.261719 10.621094 10.328125 10.453125 10.328125 10.25 Z M 10.328125 10.25 "/>
</g>
</svg>
