<svg width="24" height="18" viewBox="0 0 24 18" fill="none" xmlns="http://www.w3.org/2000/svg">
<path d="M7.375 5.75C7.33333 5.90625 7.3125 6.10417 7.3125 6.34375V8.83594H9.64062C10.1042 8.83594 10.4635 8.96615 10.7188 9.22656C10.9792 9.48698 11.1094 9.85417 11.1094 10.3281C11.1094 10.8021 10.9792 11.1693 10.7188 11.4297C10.4635 11.6901 10.1042 11.8203 9.64062 11.8203H7.3125V12.4297C7.3125 12.9974 7.40885 13.4167 7.60156 13.6875C7.79427 13.9531 8.07031 14.1901 8.42969 14.3984L14.5547 17.8828C14.5807 17.8984 14.6042 17.9115 14.625 17.9219C14.651 17.9375 14.6771 17.9479 14.7031 17.9531V9.9375L7.375 5.75ZM15.7734 17.9531C15.7995 17.9479 15.8255 17.9375 15.8516 17.9219C15.8776 17.9115 15.9036 17.8984 15.9297 17.8828L22.0469 14.3984C22.4115 14.1901 22.6875 13.9531 22.875 13.6875C23.0677 13.4167 23.1641 12.9974 23.1641 12.4297V6.34375C23.1641 6.10417 23.1432 5.90625 23.1016 5.75L15.7734 9.9375V17.9531ZM15.2422 9L18.5781 7.10938L11.1797 2.88281L8.3125 4.51562C8.13542 4.61458 7.98958 4.71615 7.875 4.82031L15.2422 9ZM19.6641 6.49219L22.6016 4.82031C22.487 4.71615 22.3438 4.61458 22.1719 4.51562L16.6562 1.375C16.1719 1.09375 15.7005 0.953125 15.2422 0.953125C14.7786 0.953125 14.3047 1.09375 13.8203 1.375L12.2344 2.27344L19.6641 6.49219ZM10.3125 10.3281C10.3125 10.125 10.2474 9.95833 10.1172 9.82812C9.98698 9.69792 9.82292 9.63281 9.625 9.63281H4.375L1.96875 9.71094V10.1484L4.10156 8.21094L5.17969 7.25781C5.26823 7.1849 5.32812 7.10156 5.35938 7.00781C5.39062 6.91406 5.40625 6.82031 5.40625 6.72656C5.40625 6.53385 5.33854 6.375 5.20312 6.25C5.07292 6.11979 4.91146 6.05469 4.71875 6.05469C4.53646 6.05469 4.36979 6.125 4.21875 6.26562L0.671875 9.80469C0.510417 9.95573 0.429688 10.1302 0.429688 10.3281C0.429688 10.526 0.510417 10.7005 0.671875 10.8516L4.19531 14.3672C4.28385 14.4505 4.36979 14.5104 4.45312 14.5469C4.54167 14.5833 4.63021 14.6016 4.71875 14.6016C4.91146 14.6016 5.07292 14.5391 5.20312 14.4141C5.33854 14.2839 5.40625 14.1224 5.40625 13.9297C5.40625 13.8359 5.39062 13.7422 5.35938 13.6484C5.32812 13.5547 5.26823 13.4714 5.17969 13.3984L4.10156 12.4453L1.96875 10.5078V10.9453L4.375 11.0234H9.625C9.82292 11.0234 9.98698 10.9583 10.1172 10.8281C10.2474 10.6979 10.3125 10.5312 10.3125 10.3281Z" fill="white"/>
</svg>
