<svg width="16" height="19" viewBox="0 0 16 19" fill="none" xmlns="http://www.w3.org/2000/svg">
<path d="M3.98438 0.257812C3.5625 0.257812 3.15625 0.401042 2.76562 0.6875C2.38021 0.96875 2.03646 1.33854 1.73438 1.79688C1.43229 2.25 1.19271 2.74219 1.01562 3.27344C0.84375 3.80469 0.757812 4.32031 0.757812 4.82031C0.757812 5.13802 0.794271 5.54167 0.867188 6.03125C0.945312 6.51562 1.0625 7.03385 1.21875 7.58594C1.375 8.13281 1.57812 8.65625 1.82812 9.15625H6.14844C6.39844 8.65625 6.60156 8.13281 6.75781 7.58594C6.91406 7.03385 7.02865 6.51562 7.10156 6.03125C7.17969 5.54167 7.21875 5.13802 7.21875 4.82031C7.21875 4.32031 7.13021 3.80469 6.95312 3.27344C6.78125 2.74219 6.54167 2.25 6.23438 1.79688C5.93229 1.33854 5.58854 0.96875 5.20312 0.6875C4.81771 0.401042 4.41146 0.257812 3.98438 0.257812ZM3.99219 13.75C4.39844 13.75 4.73958 13.625 5.01562 13.375C5.29688 13.125 5.50781 12.7812 5.64844 12.3438C5.79427 11.901 5.86719 11.3932 5.86719 10.8203C5.86719 10.737 5.86198 10.6406 5.85156 10.5312C5.84635 10.4219 5.83594 10.3203 5.82031 10.2266H2.16406C2.14844 10.3203 2.13542 10.4219 2.125 10.5312C2.11979 10.6406 2.11719 10.737 2.11719 10.8203C2.11719 11.6797 2.27604 12.3828 2.59375 12.9297C2.91667 13.4766 3.38281 13.75 3.99219 13.75ZM13.4766 5.39062C13.0807 5.24479 12.651 5.23958 12.1875 5.375C11.7292 5.51042 11.2786 5.73958 10.8359 6.0625C10.3984 6.38542 10.0052 6.76823 9.65625 7.21094C9.3125 7.64844 9.05469 8.10156 8.88281 8.57031C8.77344 8.86719 8.66927 9.25781 8.57031 9.74219C8.47656 10.2266 8.40885 10.7552 8.36719 11.3281C8.33073 11.8958 8.34115 12.4583 8.39844 13.0156L12.4609 14.4922C12.8672 14.1016 13.237 13.6771 13.5703 13.2188C13.9089 12.7552 14.1953 12.3099 14.4297 11.8828C14.6693 11.4505 14.8438 11.0807 14.9531 10.7734C15.125 10.3099 15.2188 9.79948 15.2344 9.24219C15.25 8.67969 15.1927 8.13281 15.0625 7.60156C14.9375 7.07031 14.7422 6.60677 14.4766 6.21094C14.2109 5.8099 13.8776 5.53646 13.4766 5.39062ZM8.86719 18.0703C9.4401 18.2786 9.97135 18.1797 10.4609 17.7734C10.9505 17.3672 11.3411 16.763 11.6328 15.9609C11.6641 15.8828 11.6927 15.7891 11.7188 15.6797C11.75 15.5755 11.776 15.4766 11.7969 15.3828L8.35938 14.125C8.3125 14.2083 8.26562 14.3021 8.21875 14.4062C8.17188 14.5052 8.13542 14.5938 8.10938 14.6719C7.81771 15.4792 7.72656 16.1927 7.83594 16.8125C7.95052 17.4375 8.29427 17.8568 8.86719 18.0703Z" fill="white"/>
</svg>
