<svg width="16" height="17" viewBox="0 0 16 17" fill="none" xmlns="http://www.w3.org/2000/svg">
<path d="M8 16.3281C9.08854 16.3281 10.112 16.1198 11.0703 15.7031C12.0339 15.2865 12.8828 14.7109 13.6172 13.9766C14.3516 13.2422 14.9271 12.3958 15.3438 11.4375C15.7604 10.474 15.9688 9.44792 15.9688 8.35938C15.9688 7.27083 15.7604 6.2474 15.3438 5.28906C14.9271 4.32552 14.3516 3.47656 13.6172 2.74219C12.8828 2.00781 12.0339 1.43229 11.0703 1.01562C10.1068 0.598958 9.08073 0.390625 7.99219 0.390625C6.90365 0.390625 5.8776 0.598958 4.91406 1.01562C3.95573 1.43229 3.10938 2.00781 2.375 2.74219C1.64583 3.47656 1.07292 4.32552 0.65625 5.28906C0.239583 6.2474 0.03125 7.27083 0.03125 8.35938C0.03125 9.44792 0.239583 10.474 0.65625 11.4375C1.07292 12.3958 1.64844 13.2422 2.38281 13.9766C3.11719 14.7109 3.96354 15.2865 4.92188 15.7031C5.88542 16.1198 6.91146 16.3281 8 16.3281ZM3.02344 10.5156C3.02344 10.3854 3.07031 10.2734 3.16406 10.1797C3.26302 10.0859 3.38542 10.0391 3.53125 10.0391H4.50781C4.70573 10.0391 4.875 10.0026 5.01562 9.92969C5.16146 9.85156 5.32031 9.71094 5.49219 9.50781L6.46875 8.35938L5.49219 7.21094C5.32552 7.00781 5.16927 6.86979 5.02344 6.79688C4.8776 6.71875 4.70573 6.67969 4.50781 6.67969H3.53125C3.38542 6.67969 3.26302 6.63281 3.16406 6.53906C3.07031 6.44531 3.02344 6.33333 3.02344 6.20312C3.02344 6.0625 3.07031 5.94792 3.16406 5.85938C3.25781 5.77083 3.38021 5.72656 3.53125 5.72656H4.49219C4.85156 5.72656 5.15625 5.78646 5.40625 5.90625C5.66146 6.02604 5.92448 6.23958 6.19531 6.54688L7.10938 7.61719L8.02344 6.54688C8.28906 6.23958 8.54948 6.02604 8.80469 5.90625C9.0599 5.78646 9.36979 5.72656 9.73438 5.72656H10.4766V4.83594C10.4766 4.71615 10.5104 4.6224 10.5781 4.55469C10.651 4.48177 10.7474 4.44531 10.8672 4.44531C10.987 4.44531 11.0885 4.47917 11.1719 4.54688L12.7656 5.86719C12.8646 5.95052 12.9115 6.05208 12.9062 6.17188C12.9062 6.29167 12.8568 6.39062 12.7578 6.46875L11.1797 7.76562C11.1068 7.84375 11.0026 7.88281 10.8672 7.88281C10.7526 7.88281 10.6589 7.84635 10.5859 7.77344C10.513 7.70052 10.4766 7.60417 10.4766 7.48438V6.67969H9.76562C9.54167 6.67969 9.35417 6.71875 9.20312 6.79688C9.05729 6.86979 8.90104 7.00781 8.73438 7.21094L7.74219 8.35938L8.73438 9.50781C8.90104 9.71094 9.05729 9.85156 9.20312 9.92969C9.35417 10.0026 9.54167 10.0391 9.76562 10.0391H10.4766V9.25781C10.4766 9.13802 10.513 9.04167 10.5859 8.96875C10.6589 8.89583 10.7526 8.85938 10.8672 8.85938C11.0026 8.85938 11.1068 8.89844 11.1797 8.97656L12.7656 10.2891C12.8646 10.3672 12.9115 10.4661 12.9062 10.5859C12.9062 10.7005 12.8568 10.7995 12.7578 10.8828L11.1719 12.1953C11.0885 12.263 10.987 12.2969 10.8672 12.2969C10.7474 12.2969 10.651 12.263 10.5781 12.1953C10.5104 12.1224 10.4766 12.026 10.4766 11.9062V10.9922H9.73438C9.36979 10.9922 9.0599 10.9323 8.80469 10.8125C8.54948 10.6927 8.28906 10.4792 8.02344 10.1719L7.10938 9.10156L6.19531 10.1719C5.92448 10.4792 5.66146 10.6927 5.40625 10.8125C5.15625 10.9323 4.85156 10.9922 4.49219 10.9922H3.53125C3.38021 10.9922 3.25781 10.9479 3.16406 10.8594C3.07031 10.7708 3.02344 10.6562 3.02344 10.5156Z" fill="white"/>
</svg>
