<svg width="149" height="116" viewBox="0 0 149 116" fill="none" xmlns="http://www.w3.org/2000/svg">
<path d="M20.5625 115.5H128.688C135.271 115.5 140.188 113.875 143.438 110.625C146.688 107.417 148.312 102.583 148.312 96.125V19.8125C148.312 13.3542 146.688 8.52083 143.438 5.3125C140.188 2.0625 135.271 0.4375 128.688 0.4375H20.5625C14.0208 0.4375 9.10417 2.0625 5.8125 5.3125C2.5625 8.52083 0.9375 13.3542 0.9375 19.8125V96.125C0.9375 102.583 2.5625 107.417 5.8125 110.625C9.10417 113.875 14.0208 115.5 20.5625 115.5ZM20.6875 105.438C17.5625 105.438 15.1667 104.625 13.5 103C11.8333 101.333 11 98.875 11 95.625V20.3125C11 17.0625 11.8333 14.625 13.5 13C15.1667 11.3333 17.5625 10.5 20.6875 10.5H128.562C131.646 10.5 134.021 11.3333 135.688 13C137.396 14.625 138.25 17.0625 138.25 20.3125V95.625C138.25 98.875 137.396 101.333 135.688 103C134.021 104.625 131.646 105.438 128.562 105.438H20.6875ZM48.5625 107.375H58.375V8.625H48.5625V107.375ZM23.9375 40.375H35.75C36.5417 40.375 37.2083 40.125 37.75 39.625C38.2917 39.0833 38.5625 38.3958 38.5625 37.5625V25.875C38.5625 23.9583 37.625 23 35.75 23H23.9375C22.0208 23 21.0625 23.9583 21.0625 25.875V37.5625C21.0625 39.4375 22.0208 40.375 23.9375 40.375ZM23.9375 66.625H35.75C36.5417 66.625 37.2083 66.3542 37.75 65.8125C38.2917 65.2708 38.5625 64.6042 38.5625 63.8125V52C38.5625 51.2083 38.2917 50.5417 37.75 50C37.25 49.4167 36.5833 49.125 35.75 49.125H23.9375C23.0625 49.125 22.3542 49.4167 21.8125 50C21.3125 50.5417 21.0625 51.2083 21.0625 52V63.8125C21.0625 64.6042 21.3333 65.2708 21.875 65.8125C22.4167 66.3542 23.1042 66.625 23.9375 66.625ZM23.9375 92.75H35.75C36.5417 92.75 37.2083 92.5 37.75 92C38.2917 91.4583 38.5625 90.7708 38.5625 89.9375V78.25C38.5625 76.3333 37.625 75.375 35.75 75.375H23.9375C22.0208 75.375 21.0625 76.3333 21.0625 78.25V89.9375C21.0625 91.8125 22.0208 92.75 23.9375 92.75Z" fill="white"/>
</svg>
