<svg xmlns="http://www.w3.org/2000/svg" width="24" height="24"><path style="stroke:none;fill-rule:nonzero;fill:#fff;fill-opacity:1" d="M3.89 23.3h16.22c.988 0 1.726-.327 2.21-.976.489-.64.735-1.605.735-2.898V4.16c0-1.289-.246-2.254-.735-2.898-.484-.649-1.222-.977-2.21-.977H3.89c-.98 0-1.718.328-2.21.977-.489.644-.735 1.61-.735 2.898v15.27c0 1.289.246 2.25.735 2.894.492.649 1.23.977 2.21.977Zm.02-2.015c-.469 0-.828-.16-1.078-.484-.25-.332-.375-.828-.375-1.477V4.262c0-.649.125-1.137.375-1.461.25-.332.61-.5 1.078-.5h16.18c.465 0 .82.168 1.07.5.254.324.383.812.383 1.46v15.063c0 .649-.129 1.145-.383 1.477-.25.324-.605.484-1.07.484Zm4.18.39h1.473V1.926H8.09ZM4.398 8.278h1.77c.11 0 .219-.05.3-.152a.662.662 0 0 0 .122-.41v-2.34c0-.387-.14-.574-.422-.574h-1.77c-.289 0-.433.187-.433.574v2.34c0 .375.144.562.433.562Zm0 5.25h1.77a.383.383 0 0 0 .3-.164.652.652 0 0 0 .122-.398v-2.367a.652.652 0 0 0-.121-.399.348.348 0 0 0-.301-.176h-1.77a.379.379 0 0 0-.32.176.712.712 0 0 0-.113.399v2.367c0 .156.043.289.12.398.083.11.196.168.313.164Zm0 5.223h1.77c.11.004.219-.05.3-.152a.654.654 0 0 0 .122-.41v-2.34c0-.38-.14-.57-.422-.57h-1.77c-.289 0-.433.19-.433.57v2.34c0 .375.144.562.433.562Zm0 0"/></svg>