<svg xmlns="http://www.w3.org/2000/svg" width="24" height="24"><path style="stroke:none;fill-rule:nonzero;fill:#fff;fill-opacity:1" d="M3.89 23.3h16.22c.988 0 1.726-.327 2.21-.976.489-.64.735-1.605.735-2.898V4.16c0-1.289-.246-2.254-.735-2.898-.484-.649-1.222-.977-2.21-.977H3.89c-.98 0-1.718.328-2.21.977-.489.644-.735 1.61-.735 2.898v15.27c0 1.289.246 2.25.735 2.894.492.649 1.23.977 2.21.977Zm.02-2.015c-.469 0-.828-.16-1.078-.484-.25-.332-.375-.828-.375-1.477V4.262c0-.649.125-1.137.375-1.461.25-.332.61-.5 1.078-.5h16.18c.465 0 .82.168 1.07.5.254.324.383.812.383 1.46v15.063c0 .649-.129 1.145-.383 1.477-.25.324-.605.484-1.07.484Zm4.18.39h1.473V1.926H8.09ZM6.29 6.938c.14 0 .26-.074.366-.214a.788.788 0 0 0 .168-.485.733.733 0 0 0-.168-.488.447.447 0 0 0-.367-.21H4.273a.456.456 0 0 0-.363.21.788.788 0 0 0-.16.488c0 .172.055.336.16.485.106.14.227.215.363.215Zm0 3.239c.14 0 .26-.07.366-.211a.773.773 0 0 0 .168-.5.722.722 0 0 0-.168-.477c-.093-.136-.226-.215-.367-.21H4.273c-.136-.005-.27.074-.363.21a.746.746 0 0 0-.16.477c0 .191.055.36.16.5.106.14.227.21.363.21Zm0 3.226c.14 0 .26-.07.366-.203a.762.762 0 0 0 .168-.488.762.762 0 0 0-.168-.488.457.457 0 0 0-.367-.211H4.273a.456.456 0 0 0-.363.21.79.79 0 0 0-.16.493c0 .18.055.344.16.484a.457.457 0 0 0 .363.203Zm0 0"/></svg>