<svg xmlns="http://www.w3.org/2000/svg" width="24" height="24"><path style="stroke:none;fill-rule:nonzero;fill:#fff;fill-opacity:1" d="M3.89 23.3h16.22c.988 0 1.726-.327 2.21-.976.489-.64.735-1.605.735-2.898V4.16c0-1.289-.246-2.254-.735-2.898-.484-.649-1.222-.977-2.21-.977H3.89c-.98 0-1.718.328-2.21.977-.489.644-.735 1.61-.735 2.898v15.27c0 1.289.246 2.25.735 2.894.492.649 1.23.977 2.21.977Zm.02-2.015c-.469 0-.828-.16-1.078-.484-.25-.332-.375-.828-.375-1.477V4.262c0-.649.125-1.137.375-1.461.25-.332.61-.5 1.078-.5h16.18c.465 0 .82.168 1.07.5.254.324.383.812.383 1.46v15.063c0 .649-.129 1.145-.383 1.477-.25.324-.605.484-1.07.484Zm10.555.39h1.473V1.926h-1.473Zm5.168-13.398c.285 0 .43-.187.43-.562v-2.34c0-.387-.145-.574-.43-.574h-1.774c-.28 0-.422.187-.422.574v2.34c0 .164.04.3.122.41a.399.399 0 0 0 .3.152Zm0 5.25a.376.376 0 0 0 .308-.164.652.652 0 0 0 .122-.398v-2.367a.652.652 0 0 0-.122-.399c-.078-.117-.191-.18-.308-.176h-1.774a.378.378 0 0 0-.308.176.712.712 0 0 0-.113.399v2.367c0 .156.039.289.12.398a.378.378 0 0 0 .301.164Zm0 5.223c.285 0 .43-.188.43-.563v-2.34c0-.378-.145-.57-.43-.57h-1.774c-.28 0-.422.192-.422.57v2.34c0 .168.04.301.122.41a.375.375 0 0 0 .3.153Zm0 0"/></svg>