<?xml version="1.0" encoding="UTF-8"?>
<svg xmlns="http://www.w3.org/2000/svg" xmlns:xlink="http://www.w3.org/1999/xlink" width="24" height="18" viewBox="0 0 24 18" version="1.1">
<g id="surface1">
<path style=" stroke:none;fill-rule:nonzero;fill:rgb(100%,100%,100%);fill-opacity:1;" d="M 3.890625 17.476562 L 20.109375 17.476562 C 21.097656 17.476562 21.835938 17.230469 22.320312 16.742188 C 22.808594 16.261719 23.054688 15.539062 23.054688 14.570312 L 23.054688 3.121094 C 23.054688 2.152344 22.808594 1.429688 22.320312 0.945312 C 21.835938 0.460938 21.097656 0.214844 20.109375 0.214844 L 3.890625 0.214844 C 2.910156 0.214844 2.171875 0.460938 1.679688 0.945312 C 1.191406 1.429688 0.945312 2.152344 0.945312 3.121094 L 0.945312 14.570312 C 0.945312 15.539062 1.191406 16.261719 1.679688 16.742188 C 2.171875 17.230469 2.910156 17.476562 3.890625 17.476562 Z M 3.910156 15.964844 C 3.441406 15.964844 3.082031 15.84375 2.832031 15.601562 C 2.582031 15.351562 2.457031 14.980469 2.457031 14.492188 L 2.457031 3.195312 C 2.457031 2.710938 2.582031 2.34375 2.832031 2.101562 C 3.082031 1.851562 3.441406 1.726562 3.910156 1.726562 L 20.089844 1.726562 C 20.554688 1.726562 20.910156 1.851562 21.160156 2.101562 C 21.414062 2.34375 21.542969 2.710938 21.542969 3.195312 L 21.542969 14.492188 C 21.542969 14.980469 21.414062 15.351562 21.160156 15.601562 C 20.910156 15.84375 20.554688 15.964844 20.089844 15.964844 Z M 8.089844 16.257812 L 9.5625 16.257812 L 9.5625 1.445312 L 8.089844 1.445312 Z M 4.398438 6.207031 L 6.167969 6.207031 C 6.289062 6.207031 6.386719 6.167969 6.46875 6.09375 C 6.550781 6.011719 6.589844 5.910156 6.589844 5.785156 L 6.589844 4.03125 C 6.589844 3.742188 6.449219 3.601562 6.167969 3.601562 L 4.398438 3.601562 C 4.109375 3.601562 3.964844 3.742188 3.964844 4.03125 L 3.964844 5.785156 C 3.964844 6.066406 4.109375 6.207031 4.398438 6.207031 Z M 4.398438 10.144531 L 6.167969 10.144531 C 6.289062 10.144531 6.386719 10.101562 6.46875 10.023438 C 6.550781 9.941406 6.589844 9.839844 6.589844 9.722656 L 6.589844 7.949219 C 6.589844 7.832031 6.550781 7.730469 6.46875 7.648438 C 6.394531 7.5625 6.292969 7.519531 6.167969 7.519531 L 4.398438 7.519531 C 4.265625 7.519531 4.160156 7.5625 4.078125 7.648438 C 4.003906 7.730469 3.964844 7.832031 3.964844 7.949219 L 3.964844 9.722656 C 3.964844 9.839844 4.007812 9.941406 4.085938 10.023438 C 4.167969 10.101562 4.273438 10.144531 4.398438 10.144531 Z M 4.398438 14.0625 L 6.167969 14.0625 C 6.289062 14.0625 6.386719 14.023438 6.46875 13.949219 C 6.550781 13.867188 6.589844 13.765625 6.589844 13.640625 L 6.589844 11.886719 C 6.589844 11.601562 6.449219 11.457031 6.167969 11.457031 L 4.398438 11.457031 C 4.109375 11.457031 3.964844 11.601562 3.964844 11.886719 L 3.964844 13.640625 C 3.964844 13.921875 4.109375 14.0625 4.398438 14.0625 Z M 4.398438 14.0625 "/>
</g>
</svg>
