<svg width="149" height="116" viewBox="0 0 149 116" fill="none" xmlns="http://www.w3.org/2000/svg">
<path d="M20.5625 115.5H128.688C135.271 115.5 140.188 113.875 143.438 110.625C146.688 107.417 148.312 102.583 148.312 96.125V19.8125C148.312 13.3542 146.688 8.52083 143.438 5.3125C140.188 2.0625 135.271 0.4375 128.688 0.4375H20.5625C14.0208 0.4375 9.10417 2.0625 5.8125 5.3125C2.5625 8.52083 0.9375 13.3542 0.9375 19.8125V96.125C0.9375 102.583 2.5625 107.417 5.8125 110.625C9.10417 113.875 14.0208 115.5 20.5625 115.5ZM20.6875 105.438C17.5625 105.438 15.1667 104.625 13.5 103C11.8333 101.333 11 98.875 11 95.625V20.3125C11 17.0625 11.8333 14.625 13.5 13C15.1667 11.3333 17.5625 10.5 20.6875 10.5H128.562C131.646 10.5 134.021 11.3333 135.688 13C137.396 14.625 138.25 17.0625 138.25 20.3125V95.625C138.25 98.875 137.396 101.333 135.688 103C134.021 104.625 131.646 105.438 128.562 105.438H20.6875ZM91.0625 107.375H100.875V8.625H91.0625V107.375ZM112.875 33.6875H126.25C127.208 33.6875 128.042 33.3333 128.75 32.625C129.458 31.875 129.812 31.0625 129.812 30.1875C129.812 29.2292 129.458 28.4167 128.75 27.75C128.042 27.0417 127.208 26.6875 126.25 26.6875H112.875C111.917 26.6875 111.083 27.0417 110.375 27.75C109.667 28.4167 109.312 29.2292 109.312 30.1875C109.312 31.0625 109.667 31.875 110.375 32.625C111.083 33.3333 111.917 33.6875 112.875 33.6875ZM112.875 49.875H126.25C127.208 49.875 128.042 49.5208 128.75 48.8125C129.458 48.1042 129.812 47.2708 129.812 46.3125C129.812 45.3958 129.458 44.6042 128.75 43.9375C128.042 43.2292 127.208 42.875 126.25 42.875H112.875C111.917 42.875 111.083 43.2292 110.375 43.9375C109.667 44.6042 109.312 45.3958 109.312 46.3125C109.312 47.2708 109.667 48.1042 110.375 48.8125C111.083 49.5208 111.917 49.875 112.875 49.875ZM112.875 66H126.25C127.208 66 128.042 65.6667 128.75 65C129.458 64.2917 129.812 63.4792 129.812 62.5625C129.812 61.6042 129.458 60.7917 128.75 60.125C128.042 59.4167 127.208 59.0625 126.25 59.0625H112.875C111.917 59.0625 111.083 59.4167 110.375 60.125C109.667 60.7917 109.312 61.6042 109.312 62.5625C109.312 63.4792 109.667 64.2917 110.375 65C111.083 65.6667 111.917 66 112.875 66Z" fill="white"/>
</svg>
