<svg width="130" height="133" viewBox="0 0 130 133" fill="none" xmlns="http://www.w3.org/2000/svg">
<path d="M53.6875 27.25H63.75V5.625C63.75 4.25 63.25 3.0625 62.25 2.0625C61.25 1.0625 60.0625 0.5625 58.6875 0.5625C57.3125 0.5625 56.125 1.0625 55.125 2.0625C54.1667 3.0625 53.6875 4.25 53.6875 5.625V27.25ZM14.1875 80.25L95.75 80.125C98.5833 80.125 100.792 79.7292 102.375 78.9375C104 78.1458 105.604 76.9792 107.188 75.4375L123.875 59.5C127.25 56.2917 128.958 53.0833 129 49.875C129.042 46.6667 127.312 43.375 123.812 40L107.188 24.125C105.604 22.5833 104 21.4167 102.375 20.625C100.792 19.7917 98.6042 19.375 95.8125 19.375H14.1875C9.9375 19.375 6.66667 20.5 4.375 22.75C2.08333 25 0.9375 28.2083 0.9375 32.375V67.1875C0.9375 71.3958 2.08333 74.625 4.375 76.875C6.66667 79.125 9.9375 80.25 14.1875 80.25ZM53.6875 76.6875V131.812H63.75V76.6875H53.6875ZM29.625 127.125C29.625 128.5 30.125 129.667 31.125 130.625C32.125 131.625 33.3125 132.125 34.6875 132.125H82.8125C84.1875 132.125 85.375 131.625 86.375 130.625C87.375 129.667 87.875 128.5 87.875 127.125C87.875 125.75 87.375 124.562 86.375 123.562C85.375 122.562 84.1875 122.062 82.8125 122.062H34.6875C33.3125 122.062 32.125 122.562 31.125 123.562C30.125 124.562 29.625 125.75 29.625 127.125Z" fill="white"/>
</svg>
