<svg xmlns="http://www.w3.org/2000/svg" width="24" height="24"><path style="stroke:none;fill-rule:nonzero;fill:#fff;fill-opacity:1" d="M6.516 20.7c0 .972.277 1.706.832 2.206.554.5 1.375.75 2.46.75h10.829c1.078 0 1.894-.25 2.449-.75.555-.5.832-1.234.832-2.207V10.543c0-.457-.059-.828-.176-1.105-.117-.286-.324-.56-.62-.825l-4.337-3.851a2.894 2.894 0 0 0-.96-.582c-.329-.121-.731-.18-1.208-.18H9.81c-1.086 0-1.907.25-2.461.75-.555.5-.832 1.238-.832 2.219Zm3.761-1.407v-3.148h2.707c.118 0 .176.05.176.148v4.312h-1.406c-.445 0-.805-.12-1.078-.355-.266-.234-.399-.555-.399-.957Zm0-4.2v-1.198c0-.41.133-.73.399-.97.273-.234.633-.35 1.078-.35h4.57v8.03h-1.98v-4.937c0-.184-.059-.32-.176-.418-.11-.105-.27-.156-.48-.156Zm7.23 5.512v-8.03h1.15c.452 0 .808.116 1.066.35.265.24.398.56.398.97v5.398c0 .402-.133.723-.398.957-.258.234-.614.355-1.067.355ZM.083 17.7c0 .973.273 1.707.82 2.207.555.492 1.375.739 2.461.739h1.559v-3.04H4.09c-.445 0-.8-.12-1.067-.355-.265-.242-.398-.566-.398-.969v-3.144h2.297v-1.055H2.625v-1.195c0-.41.133-.73.398-.961.266-.235.622-.352 1.067-.352h.832V6.52c0-.79.18-1.48.539-2.07.36-.59.867-1.052 1.523-1.376.657-.328 1.426-.488 2.309-.488h3.75l-.691-.629c-.27-.25-.598-.45-.961-.582-.336-.117-.743-.176-1.22-.176H3.364c-1.086 0-1.906.25-2.46.75-.548.5-.821 1.238-.821 2.219Zm0 0"/></svg>