<svg xmlns="http://www.w3.org/2000/svg" width="24" height="24"><path style="stroke:none;fill-rule:nonzero;fill:#fff;fill-opacity:1" d="M.738 20.395c0 1.09.344 1.91 1.032 2.449.695.543 1.734.812 3.117.812h14.226c1.383 0 2.418-.273 3.106-.824.695-.539 1.043-1.352 1.043-2.437V8.719c0-.512-.07-.922-.211-1.23-.145-.305-.403-.606-.778-.907l-5.691-4.418c-.387-.3-.789-.52-1.207-.644-.418-.133-.934-.2-1.54-.2H4.888c-1.383 0-2.422.278-3.117.825-.688.55-1.032 1.363-1.032 2.449Zm2.157-.032V4.625c0-.512.171-.91.52-1.2C3.772 3.142 4.3 3 4.995 3h8.758c.715 0 1.3.184 1.754.55l4.984 3.919c.211.16.375.36.48.574.09.2.133.469.133.8v11.524c0 .52-.175.918-.535 1.195-.347.282-.87.418-1.566.418H4.98c-.687 0-1.207-.136-1.566-.418-.348-.277-.52-.675-.52-1.195Zm2.718-1.593c0 .445.164.8.492 1.062.34.258.797.387 1.368.387h1.82V15.05c0-.102-.07-.156-.211-.156H5.613Zm0-5.032h4.352c.258 0 .46.059.601.168a.549.549 0 0 1 .215.457v5.856h2.559V10.98H7.473c-.57 0-1.028.13-1.368.395-.328.258-.492.61-.492 1.063Zm9.211 6.48h1.742c.563 0 1.008-.128 1.34-.386.34-.262.508-.617.508-1.062v-6.332c0-.454-.168-.805-.508-1.063-.332-.266-.777-.395-1.34-.395h-1.742Zm0 0"/></svg>