<svg width="16" height="19" viewBox="0 0 16 19" fill="none" xmlns="http://www.w3.org/2000/svg">
<path d="M4.28125 9.08594H8.1875V8.05469H4.28125C4.13021 8.05469 4.0026 8.10677 3.89844 8.21094C3.79948 8.3099 3.75 8.42969 3.75 8.57031C3.75 8.71094 3.79948 8.83333 3.89844 8.9375C4.0026 9.03646 4.13021 9.08594 4.28125 9.08594ZM9.28125 10.1484C9.56771 10.1484 9.83073 10.0781 10.0703 9.9375C10.3099 9.79167 10.5 9.59896 10.6406 9.35938C10.7865 9.11979 10.8594 8.85417 10.8594 8.5625C10.8594 8.27083 10.7865 8.00781 10.6406 7.77344C10.5 7.53385 10.3099 7.34375 10.0703 7.20312C9.83073 7.05729 9.56771 6.98438 9.28125 6.98438C8.98958 6.98438 8.72396 7.05729 8.48438 7.20312C8.24479 7.34375 8.05208 7.53385 7.90625 7.77344C7.76562 8.00781 7.69531 8.27083 7.69531 8.5625C7.69531 8.85417 7.76562 9.11979 7.90625 9.35938C8.05208 9.59896 8.24479 9.79167 8.48438 9.9375C8.72396 10.0781 8.98958 10.1484 9.28125 10.1484ZM9.28125 9.34375C9.05729 9.34375 8.8724 9.26823 8.72656 9.11719C8.58073 8.96615 8.50781 8.78125 8.50781 8.5625C8.50781 8.34375 8.58073 8.16146 8.72656 8.01562C8.8724 7.86458 9.05729 7.78906 9.28125 7.78906C9.49479 7.78906 9.67708 7.86458 9.82812 8.01562C9.97917 8.16146 10.0547 8.34375 10.0547 8.5625C10.0547 8.78125 9.97917 8.96615 9.82812 9.11719C9.67708 9.26823 9.49479 9.34375 9.28125 9.34375ZM10.3047 9.08594H11.75C11.8854 9.08594 12.0026 9.03646 12.1016 8.9375C12.2005 8.83333 12.25 8.71094 12.25 8.57031C12.25 8.42969 12.2005 8.3099 12.1016 8.21094C12.0026 8.10677 11.8854 8.05469 11.75 8.05469H10.3047V9.08594ZM4.25 13.3125H5.69531V12.2812H4.25C4.11458 12.2812 3.9974 12.3307 3.89844 12.4297C3.79948 12.5286 3.75 12.6484 3.75 12.7891C3.75 12.9349 3.79948 13.0599 3.89844 13.1641C3.9974 13.263 4.11458 13.3125 4.25 13.3125ZM6.71875 14.375C7.01562 14.375 7.28385 14.3047 7.52344 14.1641C7.76302 14.0182 7.95312 13.8255 8.09375 13.5859C8.23958 13.3464 8.3125 13.0807 8.3125 12.7891C8.3125 12.4974 8.23958 12.2318 8.09375 11.9922C7.95312 11.7526 7.76302 11.5625 7.52344 11.4219C7.28385 11.276 7.01562 11.2031 6.71875 11.2031C6.43229 11.2031 6.16927 11.276 5.92969 11.4219C5.6901 11.5625 5.4974 11.7526 5.35156 11.9922C5.21094 12.2318 5.14062 12.4974 5.14062 12.7891C5.14062 13.0807 5.21094 13.3464 5.35156 13.5859C5.4974 13.8255 5.6901 14.0182 5.92969 14.1641C6.16927 14.3047 6.43229 14.375 6.71875 14.375ZM6.71875 13.5703C6.50521 13.5703 6.32292 13.4948 6.17188 13.3438C6.02083 13.1927 5.94531 13.0052 5.94531 12.7812C5.94531 12.5625 6.02083 12.3802 6.17188 12.2344C6.32292 12.0833 6.50521 12.0078 6.71875 12.0078C6.94271 12.0078 7.13021 12.0833 7.28125 12.2344C7.43229 12.3802 7.50781 12.5625 7.50781 12.7812C7.50781 13.0052 7.43229 13.1927 7.28125 13.3438C7.13021 13.4948 6.94271 13.5703 6.71875 13.5703ZM7.8125 13.3125H11.7188C11.8698 13.3125 11.9948 13.263 12.0938 13.1641C12.1979 13.0599 12.25 12.9349 12.25 12.7891C12.25 12.6484 12.1979 12.5286 12.0938 12.4297C11.9948 12.3307 11.8698 12.2812 11.7188 12.2812H7.8125V13.3125ZM0.03125 10.3594C0.03125 11.4479 0.239583 12.474 0.65625 13.4375C1.07292 14.401 1.64844 15.25 2.38281 15.9844C3.11719 16.7135 3.96354 17.2865 4.92188 17.7031C5.88542 18.1198 6.91146 18.3281 8 18.3281C9.08854 18.3281 10.112 18.1198 11.0703 17.7031C12.0339 17.2865 12.8828 16.7135 13.6172 15.9844C14.3516 15.25 14.9271 14.401 15.3438 13.4375C15.7604 12.474 15.9688 11.4479 15.9688 10.3594C15.9688 9.40104 15.8047 8.48958 15.4766 7.625C15.1484 6.76042 14.6901 5.97917 14.1016 5.28125C13.5182 4.57812 12.8333 3.99219 12.0469 3.52344C11.2656 3.04948 10.4193 2.72135 9.50781 2.53906V1.42969C9.50781 1.14844 9.42708 0.973958 9.26562 0.90625C9.10417 0.838542 8.91667 0.880208 8.70312 1.03125L6.21094 2.77344C6.02865 2.89844 5.9375 3.04427 5.9375 3.21094C5.9375 3.3776 6.02865 3.52604 6.21094 3.65625L8.69531 5.40625C8.90885 5.5625 9.09635 5.60677 9.25781 5.53906C9.42448 5.46615 9.50781 5.28906 9.50781 5.00781V3.89844C10.2474 4.0651 10.9271 4.34635 11.5469 4.74219C12.1719 5.13802 12.7135 5.6224 13.1719 6.19531C13.6354 6.76823 13.9948 7.40885 14.25 8.11719C14.5052 8.82031 14.6328 9.56771 14.6328 10.3594C14.6328 11.2812 14.4609 12.1458 14.1172 12.9531C13.7786 13.7552 13.3047 14.4609 12.6953 15.0703C12.0911 15.6745 11.388 16.1458 10.5859 16.4844C9.78385 16.8281 8.92188 17 8 17C7.07812 17 6.21354 16.8281 5.40625 16.4844C4.60417 16.1458 3.89844 15.6745 3.28906 15.0703C2.6849 14.4609 2.21094 13.7552 1.86719 12.9531C1.52865 12.1458 1.35938 11.2812 1.35938 10.3594C1.35938 9.61979 1.47396 8.91667 1.70312 8.25C1.93229 7.57812 2.2526 6.96615 2.66406 6.41406C3.07552 5.86198 3.55729 5.38802 4.10938 4.99219C4.27083 4.8724 4.3724 4.72656 4.41406 4.55469C4.46094 4.38281 4.4349 4.21615 4.33594 4.05469C4.23698 3.89844 4.09375 3.80469 3.90625 3.77344C3.71875 3.73698 3.53906 3.78385 3.36719 3.91406C2.69531 4.39844 2.10938 4.97656 1.60938 5.64844C1.10938 6.3151 0.721354 7.04948 0.445312 7.85156C0.169271 8.64844 0.03125 9.48438 0.03125 10.3594Z" fill="white"/>
</svg>
