<svg width="116" height="111" viewBox="0 0 116 111" fill="none" xmlns="http://www.w3.org/2000/svg">
<path d="M0.9375 73.4375C0.9375 76.1875 1.60417 78.7083 2.9375 81C4.3125 83.25 6.125 85.0625 8.375 86.4375C10.6667 87.7708 13.1875 88.4375 15.9375 88.4375C18.6875 88.4375 21.1875 87.7708 23.4375 86.4375C25.7292 85.0625 27.5625 83.25 28.9375 81C30.3125 78.7083 31 76.1875 31 73.4375C31 70.6875 30.3125 68.1875 28.9375 65.9375C27.5625 63.6458 25.7292 61.8333 23.4375 60.5C21.1875 59.125 18.6875 58.4375 15.9375 58.4375C13.1875 58.4375 10.6667 59.125 8.375 60.5C6.125 61.8333 4.3125 63.6458 2.9375 65.9375C1.60417 68.1875 0.9375 70.6875 0.9375 73.4375ZM8.625 73.4375C8.625 71.3958 9.33333 69.6667 10.75 68.25C12.2083 66.8333 13.9583 66.125 16 66.125C18.0417 66.125 19.7708 66.8333 21.1875 68.25C22.6042 69.6667 23.3125 71.3958 23.3125 73.4375C23.3125 75.5208 22.6042 77.2708 21.1875 78.6875C19.7708 80.0625 18.0417 80.75 16 80.75C13.9583 80.75 12.2083 80.0625 10.75 78.6875C9.33333 77.2708 8.625 75.5208 8.625 73.4375ZM16 0.875C14.5833 0.875 13.375 1.375 12.375 2.375C11.4167 3.33333 10.9375 4.52083 10.9375 5.9375V63.5H21V5.9375C21 4.52083 20.5 3.33333 19.5 2.375C18.5417 1.375 17.375 0.875 16 0.875ZM16 110.875C17.375 110.875 18.5417 110.396 19.5 109.438C20.5 108.479 21 107.354 21 106.062V84.3125H10.9375V106.062C10.9375 107.354 11.4167 108.479 12.375 109.438C13.375 110.396 14.5833 110.875 16 110.875ZM43.0625 37.3125C43.0625 40.0625 43.75 42.5833 45.125 44.875C46.5 47.125 48.3125 48.9375 50.5625 50.3125C52.8542 51.6458 55.375 52.3125 58.125 52.3125C60.875 52.3125 63.375 51.6458 65.625 50.3125C67.9167 48.9375 69.7292 47.125 71.0625 44.875C72.4375 42.5833 73.125 40.0625 73.125 37.3125C73.125 34.5625 72.4375 32.0625 71.0625 29.8125C69.7292 27.5208 67.9167 25.7083 65.625 24.375C63.375 23 60.875 22.3125 58.125 22.3125C55.375 22.3125 52.8542 23 50.5625 24.375C48.3125 25.7083 46.5 27.5208 45.125 29.8125C43.75 32.0625 43.0625 34.5625 43.0625 37.3125ZM50.8125 37.3125C50.8125 35.2708 51.5208 33.5417 52.9375 32.125C54.3542 30.7083 56.0833 30 58.125 30C60.2083 30 61.9375 30.7083 63.3125 32.125C64.7292 33.5417 65.4375 35.2708 65.4375 37.3125C65.4375 39.3958 64.7292 41.1458 63.3125 42.5625C61.9375 43.9375 60.2083 44.625 58.125 44.625C56.0833 44.625 54.3542 43.9375 52.9375 42.5625C51.5208 41.1458 50.8125 39.3958 50.8125 37.3125ZM58.125 0.875C56.7083 0.875 55.5208 1.35417 54.5625 2.3125C53.6042 3.27083 53.125 4.39583 53.125 5.6875V26.5625H63.1875V5.6875C63.1875 4.39583 62.6875 3.27083 61.6875 2.3125C60.7292 1.35417 59.5417 0.875 58.125 0.875ZM58.125 110.875C59.5417 110.875 60.7292 110.375 61.6875 109.375C62.6875 108.417 63.1875 107.229 63.1875 105.812V47.25H53.125V105.812C53.125 107.229 53.6042 108.417 54.5625 109.375C55.5208 110.375 56.7083 110.875 58.125 110.875ZM85.3125 73.4375C85.3125 76.1875 85.9792 78.7083 87.3125 81C88.6875 83.25 90.5 85.0625 92.75 86.4375C95.0417 87.7708 97.5625 88.4375 100.312 88.4375C103.062 88.4375 105.562 87.7708 107.812 86.4375C110.104 85.0625 111.917 83.25 113.25 81C114.625 78.7083 115.312 76.1875 115.312 73.4375C115.312 70.6875 114.625 68.1875 113.25 65.9375C111.917 63.6458 110.104 61.8333 107.812 60.5C105.562 59.125 103.062 58.4375 100.312 58.4375C97.5625 58.4375 95.0417 59.125 92.75 60.5C90.5 61.8333 88.6875 63.6458 87.3125 65.9375C85.9792 68.1875 85.3125 70.6875 85.3125 73.4375ZM93 73.4375C93 71.3958 93.7083 69.6667 95.125 68.25C96.5417 66.8333 98.2708 66.125 100.312 66.125C102.396 66.125 104.125 66.8333 105.5 68.25C106.917 69.6667 107.625 71.3958 107.625 73.4375C107.625 75.5208 106.917 77.2708 105.5 78.6875C104.125 80.0625 102.396 80.75 100.312 80.75C98.2708 80.75 96.5417 80.0625 95.125 78.6875C93.7083 77.2708 93 75.5208 93 73.4375ZM100.312 0.875C98.8958 0.875 97.6875 1.375 96.6875 2.375C95.7292 3.33333 95.25 4.52083 95.25 5.9375V63.8125H105.312V5.9375C105.312 4.52083 104.812 3.33333 103.812 2.375C102.854 1.375 101.688 0.875 100.312 0.875ZM100.312 110.875C101.688 110.875 102.854 110.396 103.812 109.438C104.812 108.479 105.312 107.354 105.312 106.062V83.4375H95.25V106.062C95.25 107.354 95.7292 108.479 96.6875 109.438C97.6875 110.396 98.8958 110.875 100.312 110.875Z" fill="white"/>
</svg>
