<svg width="154" height="115" viewBox="0 0 154 115" fill="none" xmlns="http://www.w3.org/2000/svg">
<path d="M15.75 70.625H56.0625C60.7708 70.625 64.4375 69.3542 67.0625 66.8125C69.6875 64.2292 71 60.6042 71 55.9375V15.625C71 10.9583 69.6875 7.35417 67.0625 4.8125C64.4375 2.22917 60.7708 0.9375 56.0625 0.9375H15.75C11.0833 0.9375 7.4375 2.22917 4.8125 4.8125C2.22917 7.35417 0.9375 10.9583 0.9375 15.625V55.9375C0.9375 60.6458 2.22917 64.2708 4.8125 66.8125C7.4375 69.3542 11.0833 70.625 15.75 70.625ZM97 71.4375H138.125C143 71.4375 146.771 70.125 149.438 67.5C152.104 64.875 153.438 61.1875 153.438 56.4375V15.1875C153.438 10.3958 152.104 6.6875 149.438 4.0625C146.771 1.4375 143 0.125 138.125 0.125H97C92.1667 0.125 88.4167 1.4375 85.75 4.0625C83.0833 6.6875 81.75 10.3958 81.75 15.1875V56.4375C81.75 61.1875 83.0833 64.875 85.75 67.5C88.4167 70.125 92.1667 71.4375 97 71.4375ZM97.125 61.5625C95.2917 61.5625 93.9167 61.1042 93 60.1875C92.0833 59.2708 91.625 57.875 91.625 56V15.5625C91.625 13.6875 92.0833 12.2917 93 11.375C93.9167 10.4583 95.2917 10 97.125 10H138C139.917 10 141.312 10.4583 142.188 11.375C143.104 12.2917 143.562 13.6875 143.562 15.5625V56C143.562 57.875 143.104 59.2708 142.188 60.1875C141.312 61.1042 139.917 61.5625 138 61.5625H97.125ZM5.6875 94C4.4375 94 3.33333 94.5 2.375 95.5C1.41667 96.4583 0.9375 97.6458 0.9375 99.0625C0.9375 100.438 1.41667 101.604 2.375 102.562C3.33333 103.562 4.4375 104.062 5.6875 104.062H25.875V94H5.6875ZM36.75 114.062C39.5 114.062 42 113.375 44.25 112C46.5417 110.667 48.3542 108.854 49.6875 106.562C51.0625 104.312 51.75 101.812 51.75 99.0625C51.75 96.3125 51.0625 93.7917 49.6875 91.5C48.3542 89.2083 46.5417 87.3958 44.25 86.0625C42 84.6875 39.5 84 36.75 84C34 84 31.4792 84.6875 29.1875 86.0625C26.9375 87.3958 25.125 89.2083 23.75 91.5C22.4167 93.7917 21.75 96.3125 21.75 99.0625C21.75 101.812 22.4167 104.312 23.75 106.562C25.125 108.854 26.9375 110.667 29.1875 112C31.4792 113.375 34 114.062 36.75 114.062ZM36.75 106.375C34.6667 106.375 32.9167 105.646 31.5 104.188C30.125 102.771 29.4375 101.042 29.4375 99C29.4375 96.9583 30.125 95.2292 31.5 93.8125C32.9167 92.3958 34.6667 91.6875 36.75 91.6875C38.7917 91.6875 40.5208 92.3958 41.9375 93.8125C43.3542 95.2292 44.0625 96.9583 44.0625 99C44.0625 101.042 43.3542 102.771 41.9375 104.188C40.5208 105.646 38.7917 106.375 36.75 106.375ZM46.6875 94V104.062H148.375C149.792 104.062 150.979 103.562 151.938 102.562C152.938 101.604 153.438 100.438 153.438 99.0625C153.438 97.6458 152.938 96.4583 151.938 95.5C150.979 94.5 149.792 94 148.375 94H46.6875Z" fill="white"/>
</svg>
