<svg width="142" height="142" viewBox="0 0 142 142" fill="none" xmlns="http://www.w3.org/2000/svg">
<path d="M70.625 0.5C69.375 0.5 68.3125 0.9375 67.4375 1.8125C66.6042 2.6875 66.1875 3.75 66.1875 5V27.1875C66.1875 28.4375 66.6042 29.5 67.4375 30.375C68.3125 31.25 69.375 31.6875 70.625 31.6875C71.9167 31.6875 72.9792 31.25 73.8125 30.375C74.6875 29.5 75.125 28.4375 75.125 27.1875V5C75.125 3.75 74.6875 2.6875 73.8125 1.8125C72.9792 0.9375 71.9167 0.5 70.625 0.5ZM105.938 9.9375C104.812 9.3125 103.667 9.16667 102.5 9.5C101.333 9.79167 100.417 10.4792 99.75 11.5625L88.6875 30.875C88.0625 31.9583 87.8958 33.0833 88.1875 34.25C88.4792 35.4167 89.1875 36.3333 90.3125 37C91.4375 37.5833 92.5625 37.7292 93.6875 37.4375C94.8542 37.1042 95.7708 36.3958 96.4375 35.3125L107.562 16.0625C108.146 14.9792 108.292 13.8542 108 12.6875C107.708 11.4792 107.021 10.5625 105.938 9.9375ZM131.75 35.75C131.125 34.625 130.208 33.9167 129 33.625C127.792 33.3333 126.646 33.4792 125.562 34.0625L106.312 45.1875C105.229 45.8125 104.521 46.7292 104.188 47.9375C103.854 49.1042 104.042 50.25 104.75 51.375C105.375 52.4583 106.25 53.1458 107.375 53.4375C108.542 53.7292 109.667 53.5833 110.75 53L130.062 41.875C131.146 41.2083 131.854 40.2917 132.188 39.125C132.521 37.9583 132.375 36.8333 131.75 35.75ZM141.125 70.9375C141.125 69.6875 140.688 68.6458 139.812 67.8125C138.979 66.9375 137.917 66.5 136.625 66.5H114.438C113.188 66.5 112.125 66.9375 111.25 67.8125C110.375 68.6458 109.938 69.6875 109.938 70.9375C109.938 72.2292 110.375 73.3125 111.25 74.1875C112.125 75.0208 113.188 75.4375 114.438 75.4375H136.625C137.917 75.4375 138.979 75.0208 139.812 74.1875C140.688 73.3125 141.125 72.2292 141.125 70.9375ZM131.688 106.188C132.354 105.104 132.521 103.979 132.188 102.812C131.854 101.646 131.146 100.729 130.062 100.062L110.75 88.9375C109.667 88.3542 108.542 88.2083 107.375 88.5C106.208 88.7917 105.312 89.4792 104.688 90.5625C104.062 91.6875 103.896 92.8333 104.188 94C104.521 95.1667 105.229 96.0833 106.312 96.75L125.562 107.875C126.646 108.458 127.771 108.604 128.938 108.312C130.146 108.021 131.062 107.312 131.688 106.188ZM105.875 132C107 131.375 107.708 130.458 108 129.25C108.292 128.083 108.146 126.958 107.562 125.875L96.4375 106.625C95.8125 105.542 94.9167 104.833 93.75 104.5C92.5833 104.167 91.4375 104.312 90.3125 104.938C89.1875 105.604 88.4792 106.521 88.1875 107.688C87.8958 108.854 88.0625 109.979 88.6875 111.062L99.75 130.312C100.417 131.396 101.333 132.104 102.5 132.438C103.667 132.771 104.792 132.625 105.875 132ZM70.625 141.438C71.9167 141.438 72.9792 141 73.8125 140.125C74.6875 139.25 75.125 138.188 75.125 136.938V114.75C75.125 113.5 74.6875 112.438 73.8125 111.562C72.9792 110.688 71.9167 110.25 70.625 110.25C69.375 110.25 68.3125 110.688 67.4375 111.562C66.6042 112.438 66.1875 113.5 66.1875 114.75V136.938C66.1875 138.188 66.6042 139.25 67.4375 140.125C68.3125 141 69.375 141.438 70.625 141.438ZM35.4375 132C36.5625 132.625 37.6875 132.771 38.8125 132.438C39.9792 132.104 40.8958 131.396 41.5625 130.312L52.6875 111.062C53.2708 109.979 53.4167 108.854 53.125 107.688C52.8333 106.521 52.1458 105.625 51.0625 105C49.9375 104.375 48.7917 104.229 47.625 104.562C46.4583 104.854 45.5417 105.542 44.875 106.625L33.8125 125.875C33.1875 126.958 33.0208 128.083 33.3125 129.25C33.6042 130.458 34.3125 131.375 35.4375 132ZM9.6875 106.188C10.2708 107.312 11.1458 108.021 12.3125 108.312C13.5208 108.604 14.6667 108.458 15.75 107.875L35 96.75C36.0833 96.0833 36.7917 95.1667 37.125 94C37.4583 92.8333 37.3125 91.7083 36.6875 90.625C36.0208 89.5 35.1042 88.7917 33.9375 88.5C32.7708 88.2083 31.6458 88.3542 30.5625 88.9375L11.3125 100.062C10.2292 100.729 9.52083 101.646 9.1875 102.812C8.85417 103.979 9.02083 105.104 9.6875 106.188ZM0.1875 70.9375C0.1875 72.2292 0.625 73.3125 1.5 74.1875C2.375 75.0208 3.4375 75.4375 4.6875 75.4375H26.875C28.1667 75.4375 29.2292 75.0208 30.0625 74.1875C30.9375 73.3125 31.375 72.2292 31.375 70.9375C31.375 69.6875 30.9375 68.6458 30.0625 67.8125C29.2292 66.9375 28.1667 66.5 26.875 66.5H4.6875C3.4375 66.5 2.375 66.9375 1.5 67.8125C0.625 68.6458 0.1875 69.6875 0.1875 70.9375ZM9.6875 35.6875C9.02083 36.8125 8.85417 37.9583 9.1875 39.125C9.52083 40.2917 10.2292 41.2083 11.3125 41.875L30.5625 53C31.6458 53.5833 32.7708 53.7292 33.9375 53.4375C35.1042 53.1458 36.0208 52.4583 36.6875 51.375C37.3125 50.25 37.4583 49.1042 37.125 47.9375C36.7917 46.7708 36.0833 45.8542 35 45.1875L15.75 34.0625C14.6667 33.4792 13.5208 33.3333 12.3125 33.625C11.1458 33.9167 10.2708 34.6042 9.6875 35.6875ZM35.4375 9.875C34.3125 10.5 33.6042 11.4167 33.3125 12.625C33.0208 13.8333 33.1875 14.9792 33.8125 16.0625L44.875 35.3125C45.5417 36.3958 46.4583 37.1042 47.625 37.4375C48.7917 37.7708 49.9167 37.6042 51 36.9375C52.125 36.3125 52.8333 35.4167 53.125 34.25C53.4167 33.0833 53.2708 31.9583 52.6875 30.875L41.5625 11.5625C40.8958 10.4792 39.9792 9.77083 38.8125 9.4375C37.6875 9.10417 36.5625 9.25 35.4375 9.875Z" fill="white"/>
</svg>
