<svg width="16" height="17" viewBox="0 0 16 17" fill="none" xmlns="http://www.w3.org/2000/svg">
<path d="M8 16.3281C9.08854 16.3281 10.112 16.1198 11.0703 15.7031C12.0339 15.2865 12.8828 14.7109 13.6172 13.9766C14.3516 13.2422 14.9271 12.3958 15.3438 11.4375C15.7604 10.474 15.9688 9.44792 15.9688 8.35938C15.9688 7.27083 15.7604 6.2474 15.3438 5.28906C14.9271 4.32552 14.3516 3.47656 13.6172 2.74219C12.8828 2.00781 12.0339 1.43229 11.0703 1.01562C10.1068 0.598958 9.08073 0.390625 7.99219 0.390625C6.90365 0.390625 5.8776 0.598958 4.91406 1.01562C3.95573 1.43229 3.10938 2.00781 2.375 2.74219C1.64583 3.47656 1.07292 4.32552 0.65625 5.28906C0.239583 6.2474 0.03125 7.27083 0.03125 8.35938C0.03125 9.44792 0.239583 10.474 0.65625 11.4375C1.07292 12.3958 1.64844 13.2422 2.38281 13.9766C3.11719 14.7109 3.96354 15.2865 4.92188 15.7031C5.88542 16.1198 6.91146 16.3281 8 16.3281ZM8.02344 10.8672C7.5599 10.8672 7.13802 10.7526 6.75781 10.5234C6.3776 10.2943 6.07292 9.98958 5.84375 9.60938C5.61458 9.22917 5.5 8.80729 5.5 8.34375C5.5 7.88542 5.61458 7.46875 5.84375 7.09375C6.07292 6.71354 6.3776 6.41146 6.75781 6.1875C7.13802 5.95833 7.5599 5.84375 8.02344 5.84375C8.48177 5.84375 8.90104 5.95833 9.28125 6.1875C9.66146 6.41146 9.96354 6.71354 10.1875 7.09375C10.4167 7.46875 10.5312 7.88542 10.5312 8.34375C10.5312 8.80729 10.4167 9.22917 10.1875 9.60938C9.96354 9.98958 9.66146 10.2943 9.28125 10.5234C8.90104 10.7526 8.48177 10.8672 8.02344 10.8672Z" fill="white"/>
</svg>
