<svg width="16" height="17" viewBox="0 0 16 17" fill="none" xmlns="http://www.w3.org/2000/svg">
<path d="M8 16.3281C9.08854 16.3281 10.112 16.1198 11.0703 15.7031C12.0339 15.2865 12.8828 14.7109 13.6172 13.9766C14.3516 13.2422 14.9271 12.3958 15.3438 11.4375C15.7604 10.474 15.9688 9.44792 15.9688 8.35938C15.9688 7.27083 15.7604 6.2474 15.3438 5.28906C14.9271 4.32552 14.3516 3.47656 13.6172 2.74219C12.8828 2.00781 12.0339 1.43229 11.0703 1.01562C10.1068 0.598958 9.08073 0.390625 7.99219 0.390625C6.90365 0.390625 5.8776 0.598958 4.91406 1.01562C3.95573 1.43229 3.10938 2.00781 2.375 2.74219C1.64583 3.47656 1.07292 4.32552 0.65625 5.28906C0.239583 6.2474 0.03125 7.27083 0.03125 8.35938C0.03125 9.44792 0.239583 10.474 0.65625 11.4375C1.07292 12.3958 1.64844 13.2422 2.38281 13.9766C3.11719 14.7109 3.96354 15.2865 4.92188 15.7031C5.88542 16.1198 6.91146 16.3281 8 16.3281ZM8 11.4453C7.43229 11.4453 6.91406 11.3073 6.44531 11.0312C5.97656 10.75 5.60156 10.375 5.32031 9.90625C5.04427 9.4375 4.90625 8.91927 4.90625 8.35156C4.90625 7.78906 5.04427 7.27604 5.32031 6.8125C5.60156 6.34375 5.97656 5.97135 6.44531 5.69531C6.91406 5.41406 7.43229 5.27344 8 5.27344C8.5625 5.27344 9.07552 5.41406 9.53906 5.69531C10.0078 5.97135 10.3828 6.34375 10.6641 6.8125C10.9453 7.27604 11.0859 7.78906 11.0859 8.35156C11.0859 8.91927 10.9453 9.4375 10.6641 9.90625C10.3828 10.375 10.0078 10.75 9.53906 11.0312C9.07552 11.3073 8.5625 11.4453 8 11.4453ZM8.00781 10.1641C8.33594 10.1641 8.63542 10.0833 8.90625 9.92188C9.17708 9.75521 9.39323 9.53646 9.55469 9.26562C9.71615 8.98958 9.79688 8.6849 9.79688 8.35156C9.79688 8.02344 9.71615 7.72396 9.55469 7.45312C9.39323 7.18229 9.17708 6.96615 8.90625 6.80469C8.63542 6.63802 8.33594 6.55469 8.00781 6.55469C7.67969 6.55469 7.3776 6.63802 7.10156 6.80469C6.83073 6.96615 6.61198 7.18229 6.44531 7.45312C6.28385 7.72396 6.20312 8.02344 6.20312 8.35156C6.20312 8.6849 6.28385 8.98958 6.44531 9.26562C6.60677 9.53646 6.82292 9.75521 7.09375 9.92188C7.36979 10.0833 7.67448 10.1641 8.00781 10.1641Z" fill="white"/>
</svg>
