<svg xmlns="http://www.w3.org/2000/svg" width="24" height="24"><path style="stroke:none;fill-rule:nonzero;fill:#fff;fill-opacity:1" d="M12 22.953c.293 0 .523-.078.684-.23a.746.746 0 0 0 .254-.586v-2.395l2.304 1.082c.238.11.477.149.707.121a.821.821 0 0 0 .578-.34.566.566 0 0 0 .067-.543c-.07-.19-.23-.347-.48-.46l-3.177-1.493v-1.398l-.269-3.938 4.031 2.153 1.488.691-.027 3.012a.76.76 0 0 0 .227.598.892.892 0 0 0 .605.222c.285 0 .5-.078.64-.234a.801.801 0 0 0 .231-.586l.012-2.207 2.531 1.215c.258.125.504.168.739.12a.88.88 0 0 0 .562-.374c.14-.207.176-.406.105-.606-.062-.207-.218-.363-.468-.476l-2.532-1.2 2.305-1.117c.238-.12.406-.273.496-.449.086-.176.063-.363-.082-.562a.816.816 0 0 0-.562-.32 1.13 1.13 0 0 0-.711.109l-3.145 1.523-1.488-.695-4.324-1.785 4.336-1.79 1.46-.703 3.15 1.52c.25.117.495.156.733.121a.846.846 0 0 0 .563-.32c.137-.2.156-.387.07-.563-.09-.183-.258-.336-.496-.465l-2.305-1.101 2.532-1.2c.258-.124.418-.284.48-.476.074-.191.04-.394-.105-.605a.879.879 0 0 0-.574-.364 1.08 1.08 0 0 0-.727.11l-2.543 1.187-.027-2.191c0-.235-.07-.43-.215-.574-.14-.153-.352-.23-.63-.23a.869.869 0 0 0-.616.23.706.706 0 0 0-.227.574l.016 2.996-1.477.71-4.031 2.161.27-3.95V5.48l3.175-1.476c.25-.125.41-.277.48-.461a.6.6 0 0 0-.066-.555.795.795 0 0 0-.578-.34c-.246-.027-.5.02-.707.133L12.937 3.86V1.457a.727.727 0 0 0-.253-.574c-.16-.156-.391-.23-.684-.23-.277 0-.5.074-.668.23a.718.718 0 0 0-.258.574v2.402L8.73 2.781a1.216 1.216 0 0 0-.707-.133.818.818 0 0 0-.562.34.578.578 0 0 0-.066.555c.078.184.242.332.492.45l3.187 1.487v1.403l.258 3.949-4.031-2.164-1.489-.707.028-2.996a.706.706 0 0 0-.227-.574.84.84 0 0 0-.605-.23c-.293 0-.512.077-.656.23a.797.797 0 0 0-.215.574l-.012 2.191L1.582 5.97a1.14 1.14 0 0 0-.738-.11.807.807 0 0 0-.563.364c-.152.21-.191.418-.12.617.081.187.245.344.495.46l2.52 1.204L.883 9.605c-.238.125-.406.278-.496.454-.086.168-.067.359.07.574.105.172.305.289.535.32.25.035.504-.008.762-.121L4.887 9.32l1.476.696 4.324 1.789-4.324 1.785-1.476.703-3.145-1.531a1.181 1.181 0 0 0-.738-.11.747.747 0 0 0-.524.309c-.14.21-.171.406-.093.582.09.172.258.32.496.441l2.304 1.118L.658 16.3c-.25.117-.41.277-.481.476-.074.2-.04.395.105.594.145.211.336.34.574.387.254.035.512-.008.727-.121l2.543-1.192.012 2.184c0 .234.074.43.215.586.144.156.359.23.644.23a.849.849 0 0 0 .602-.222.722.722 0 0 0 .242-.594l-.016-3.012 1.477-.683 4.031-2.164-.258 3.937v1.402l-3.187 1.493c-.25.113-.414.27-.492.46a.555.555 0 0 0 .066.543c.152.196.34.31.562.34.223.028.457-.011.707-.12l2.344-1.09v2.402c0 .242.086.437.258.582.168.156.39.234.668.234Zm0 0"/></svg>