<?xml version="1.0" encoding="UTF-8"?>
<svg xmlns="http://www.w3.org/2000/svg" xmlns:xlink="http://www.w3.org/1999/xlink" width="24" height="25.5" viewBox="0 0 24 25.5" version="1.1">
<g id="surface1">
<path style=" stroke:none;fill-rule:nonzero;fill:rgb(100%,100%,100%);fill-opacity:1;" d="M 12 24.492188 C 13.632812 24.492188 15.167969 24.179688 16.605469 23.554688 C 18.050781 22.929688 19.324219 22.066406 20.425781 20.964844 C 21.527344 19.863281 22.390625 18.59375 23.015625 17.15625 C 23.640625 15.710938 23.953125 14.171875 23.953125 12.539062 C 23.953125 10.90625 23.640625 9.371094 23.015625 7.933594 C 22.390625 6.488281 21.527344 5.214844 20.425781 4.113281 C 19.324219 3.011719 18.050781 2.148438 16.605469 1.523438 C 15.160156 0.898438 13.621094 0.585938 11.988281 0.585938 C 10.355469 0.585938 8.816406 0.898438 7.371094 1.523438 C 5.933594 2.148438 4.664062 3.011719 3.5625 4.113281 C 2.46875 5.214844 1.609375 6.488281 0.984375 7.933594 C 0.359375 9.371094 0.046875 10.90625 0.046875 12.539062 C 0.046875 14.171875 0.359375 15.710938 0.984375 17.15625 C 1.609375 18.59375 2.472656 19.863281 3.574219 20.964844 C 4.675781 22.066406 5.945312 22.929688 7.382812 23.554688 C 8.828125 24.179688 10.367188 24.492188 12 24.492188 Z M 12 22.5 C 10.617188 22.5 9.324219 22.242188 8.121094 21.726562 C 6.917969 21.210938 5.859375 20.5 4.945312 19.59375 C 4.039062 18.679688 3.328125 17.621094 2.8125 16.417969 C 2.304688 15.214844 2.050781 13.921875 2.050781 12.539062 C 2.050781 11.15625 2.304688 9.863281 2.8125 8.660156 C 3.328125 7.457031 4.039062 6.398438 4.945312 5.484375 C 5.851562 4.570312 6.90625 3.859375 8.109375 3.351562 C 9.3125 2.835938 10.605469 2.578125 11.988281 2.578125 C 13.371094 2.578125 14.664062 2.835938 15.867188 3.351562 C 17.078125 3.859375 18.136719 4.570312 19.042969 5.484375 C 19.957031 6.398438 20.671875 7.457031 21.1875 8.660156 C 21.703125 9.863281 21.960938 11.15625 21.960938 12.539062 C 21.960938 13.921875 21.703125 15.214844 21.1875 16.417969 C 20.679688 17.621094 19.96875 18.679688 19.054688 19.59375 C 18.140625 20.5 17.082031 21.210938 15.878906 21.726562 C 14.675781 22.242188 13.382812 22.5 12 22.5 Z M 11.976562 19.863281 C 12.164062 19.863281 12.316406 19.804688 12.433594 19.6875 C 12.558594 19.5625 12.621094 19.398438 12.621094 19.195312 L 12.621094 17.90625 L 13.628906 18.480469 C 13.800781 18.574219 13.964844 18.605469 14.121094 18.574219 C 14.285156 18.535156 14.414062 18.4375 14.507812 18.28125 C 14.59375 18.132812 14.609375 17.980469 14.554688 17.824219 C 14.507812 17.660156 14.402344 17.527344 14.238281 17.425781 L 12.621094 16.523438 L 12.621094 15.703125 L 12.492188 13.441406 L 14.414062 14.671875 L 15.105469 15.082031 L 15.09375 16.945312 C 15.09375 17.132812 15.148438 17.289062 15.257812 17.414062 C 15.367188 17.539062 15.507812 17.601562 15.679688 17.601562 C 15.867188 17.601562 16.015625 17.542969 16.125 17.425781 C 16.234375 17.300781 16.289062 17.140625 16.289062 16.945312 L 16.300781 15.75 L 17.425781 16.417969 C 17.589844 16.519531 17.753906 16.550781 17.917969 16.511719 C 18.082031 16.472656 18.214844 16.371094 18.316406 16.207031 C 18.410156 16.035156 18.433594 15.867188 18.386719 15.703125 C 18.339844 15.539062 18.230469 15.40625 18.058594 15.304688 L 16.933594 14.660156 L 17.941406 14.074219 C 18.105469 13.972656 18.214844 13.847656 18.269531 13.699219 C 18.324219 13.542969 18.308594 13.386719 18.222656 13.230469 C 18.128906 13.074219 17.996094 12.980469 17.824219 12.949219 C 17.660156 12.910156 17.496094 12.9375 17.332031 13.03125 L 15.738281 13.96875 L 15.035156 13.546875 L 12.996094 12.539062 L 15.035156 11.519531 L 15.738281 11.097656 L 17.332031 12.046875 C 17.496094 12.132812 17.664062 12.160156 17.835938 12.128906 C 18.007812 12.097656 18.136719 12.007812 18.222656 11.859375 C 18.308594 11.695312 18.324219 11.539062 18.269531 11.390625 C 18.214844 11.234375 18.105469 11.101562 17.941406 10.992188 L 16.933594 10.40625 L 18.058594 9.773438 C 18.230469 9.671875 18.339844 9.539062 18.386719 9.375 C 18.433594 9.210938 18.410156 9.042969 18.316406 8.871094 C 18.222656 8.707031 18.089844 8.605469 17.917969 8.566406 C 17.753906 8.527344 17.589844 8.554688 17.425781 8.648438 L 16.300781 9.304688 L 16.289062 8.132812 C 16.289062 7.9375 16.234375 7.777344 16.125 7.652344 C 16.015625 7.527344 15.871094 7.464844 15.691406 7.464844 C 15.511719 7.464844 15.367188 7.53125 15.257812 7.664062 C 15.148438 7.789062 15.09375 7.945312 15.09375 8.132812 L 15.105469 9.984375 L 14.414062 10.394531 L 12.492188 11.625 L 12.621094 9.375 L 12.621094 8.554688 L 14.238281 7.652344 C 14.402344 7.550781 14.507812 7.417969 14.554688 7.253906 C 14.609375 7.089844 14.59375 6.9375 14.507812 6.796875 C 14.414062 6.640625 14.285156 6.542969 14.121094 6.503906 C 13.964844 6.464844 13.800781 6.496094 13.628906 6.597656 L 12.621094 7.171875 L 12.621094 5.882812 C 12.621094 5.679688 12.558594 5.519531 12.433594 5.402344 C 12.316406 5.277344 12.164062 5.214844 11.976562 5.214844 C 11.796875 5.214844 11.644531 5.277344 11.519531 5.402344 C 11.402344 5.527344 11.34375 5.6875 11.34375 5.882812 L 11.34375 7.183594 L 10.324219 6.597656 C 10.144531 6.503906 9.976562 6.476562 9.820312 6.515625 C 9.664062 6.546875 9.539062 6.640625 9.445312 6.796875 C 9.359375 6.945312 9.34375 7.101562 9.398438 7.265625 C 9.453125 7.421875 9.558594 7.546875 9.714844 7.640625 L 11.34375 8.554688 L 11.34375 9.375 L 11.472656 11.625 L 9.5625 10.40625 L 8.847656 9.984375 L 8.859375 8.132812 C 8.859375 7.945312 8.804688 7.789062 8.695312 7.664062 C 8.585938 7.53125 8.445312 7.464844 8.273438 7.464844 C 8.085938 7.464844 7.9375 7.527344 7.828125 7.652344 C 7.726562 7.769531 7.675781 7.929688 7.675781 8.132812 L 7.664062 9.304688 L 6.527344 8.648438 C 6.363281 8.554688 6.195312 8.53125 6.023438 8.578125 C 5.859375 8.617188 5.730469 8.714844 5.636719 8.871094 C 5.542969 9.042969 5.519531 9.210938 5.566406 9.375 C 5.613281 9.539062 5.722656 9.671875 5.894531 9.773438 L 7.019531 10.40625 L 6.011719 10.992188 C 5.839844 11.101562 5.726562 11.234375 5.671875 11.390625 C 5.625 11.539062 5.644531 11.695312 5.730469 11.859375 C 5.816406 12.007812 5.945312 12.101562 6.117188 12.140625 C 6.289062 12.171875 6.457031 12.140625 6.621094 12.046875 L 8.214844 11.109375 L 8.917969 11.519531 L 10.957031 12.539062 L 8.917969 13.546875 L 8.214844 13.96875 L 6.621094 13.03125 C 6.457031 12.9375 6.289062 12.910156 6.117188 12.949219 C 5.945312 12.980469 5.820312 13.066406 5.742188 13.207031 C 5.65625 13.371094 5.636719 13.53125 5.683594 13.6875 C 5.730469 13.84375 5.839844 13.972656 6.011719 14.074219 L 7.019531 14.660156 L 5.894531 15.304688 C 5.722656 15.40625 5.613281 15.539062 5.566406 15.703125 C 5.519531 15.867188 5.542969 16.035156 5.636719 16.207031 C 5.738281 16.371094 5.871094 16.472656 6.035156 16.511719 C 6.199219 16.550781 6.363281 16.519531 6.527344 16.417969 L 7.664062 15.773438 L 7.675781 16.945312 C 7.675781 17.140625 7.726562 17.300781 7.828125 17.425781 C 7.9375 17.542969 8.085938 17.601562 8.273438 17.601562 C 8.445312 17.601562 8.585938 17.539062 8.695312 17.414062 C 8.804688 17.289062 8.859375 17.132812 8.859375 16.945312 L 8.847656 15.082031 L 9.5625 14.671875 L 11.472656 13.441406 L 11.34375 15.703125 L 11.34375 16.523438 L 9.714844 17.425781 C 9.558594 17.527344 9.453125 17.660156 9.398438 17.824219 C 9.34375 17.980469 9.359375 18.132812 9.445312 18.28125 C 9.539062 18.4375 9.664062 18.53125 9.820312 18.5625 C 9.976562 18.59375 10.144531 18.566406 10.324219 18.480469 L 11.34375 17.894531 L 11.34375 19.195312 C 11.34375 19.390625 11.402344 19.550781 11.519531 19.675781 C 11.644531 19.800781 11.796875 19.863281 11.976562 19.863281 Z M 11.976562 19.863281 "/>
</g>
</svg>
