<svg width="16" height="17" viewBox="0 0 16 17" fill="none" xmlns="http://www.w3.org/2000/svg">
<path d="M8 16.3281C9.08854 16.3281 10.112 16.1198 11.0703 15.7031C12.0339 15.2865 12.8828 14.7109 13.6172 13.9766C14.3516 13.2422 14.9271 12.3958 15.3438 11.4375C15.7604 10.474 15.9688 9.44792 15.9688 8.35938C15.9688 7.27083 15.7604 6.2474 15.3438 5.28906C14.9271 4.32552 14.3516 3.47656 13.6172 2.74219C12.8828 2.00781 12.0339 1.43229 11.0703 1.01562C10.1068 0.598958 9.08073 0.390625 7.99219 0.390625C6.90365 0.390625 5.8776 0.598958 4.91406 1.01562C3.95573 1.43229 3.10938 2.00781 2.375 2.74219C1.64583 3.47656 1.07292 4.32552 0.65625 5.28906C0.239583 6.2474 0.03125 7.27083 0.03125 8.35938C0.03125 9.44792 0.239583 10.474 0.65625 11.4375C1.07292 12.3958 1.64844 13.2422 2.38281 13.9766C3.11719 14.7109 3.96354 15.2865 4.92188 15.7031C5.88542 16.1198 6.91146 16.3281 8 16.3281ZM8 15C7.07812 15 6.21615 14.8281 5.41406 14.4844C4.61198 14.1406 3.90625 13.6667 3.29688 13.0625C2.69271 12.4531 2.21875 11.7474 1.875 10.9453C1.53646 10.1432 1.36719 9.28125 1.36719 8.35938C1.36719 7.4375 1.53646 6.57552 1.875 5.77344C2.21875 4.97135 2.69271 4.26562 3.29688 3.65625C3.90104 3.04688 4.60417 2.57292 5.40625 2.23438C6.20833 1.89062 7.07031 1.71875 7.99219 1.71875C8.91406 1.71875 9.77604 1.89062 10.5781 2.23438C11.3854 2.57292 12.0911 3.04688 12.6953 3.65625C13.3047 4.26562 13.7812 4.97135 14.125 5.77344C14.4688 6.57552 14.6406 7.4375 14.6406 8.35938C14.6406 9.28125 14.4688 10.1432 14.125 10.9453C13.7865 11.7474 13.3125 12.4531 12.7031 13.0625C12.0938 13.6667 11.388 14.1406 10.5859 14.4844C9.78385 14.8281 8.92188 15 8 15ZM7.98438 13.2422C8.10938 13.2422 8.21094 13.2031 8.28906 13.125C8.3724 13.0417 8.41406 12.9323 8.41406 12.7969V11.9375L9.08594 12.3203C9.20052 12.3828 9.3099 12.4036 9.41406 12.3828C9.52344 12.3568 9.60938 12.2917 9.67188 12.1875C9.72917 12.0885 9.73958 11.987 9.70312 11.8828C9.67188 11.7734 9.60156 11.6849 9.49219 11.6172L8.41406 11.0156V10.4688L8.32812 8.96094L9.60938 9.78125L10.0703 10.0547L10.0625 11.2969C10.0625 11.4219 10.099 11.526 10.1719 11.6094C10.2448 11.6927 10.3385 11.7344 10.4531 11.7344C10.5781 11.7344 10.6771 11.6953 10.75 11.6172C10.8229 11.5339 10.8594 11.4271 10.8594 11.2969L10.8672 10.5L11.6172 10.9453C11.7266 11.013 11.8359 11.0339 11.9453 11.0078C12.0547 10.9818 12.1432 10.9141 12.2109 10.8047C12.2734 10.6901 12.2891 10.5781 12.2578 10.4688C12.2266 10.3594 12.1536 10.2708 12.0391 10.2031L11.2891 9.77344L11.9609 9.38281C12.0703 9.3151 12.1432 9.23177 12.1797 9.13281C12.2161 9.02865 12.2057 8.92448 12.1484 8.82031C12.0859 8.71615 11.9974 8.65365 11.8828 8.63281C11.7734 8.60677 11.6641 8.625 11.5547 8.6875L10.4922 9.3125L10.0234 9.03125L8.66406 8.35938L10.0234 7.67969L10.4922 7.39844L11.5547 8.03125C11.6641 8.08854 11.776 8.10677 11.8906 8.08594C12.0052 8.0651 12.0911 8.00521 12.1484 7.90625C12.2057 7.79688 12.2161 7.69271 12.1797 7.59375C12.1432 7.48958 12.0703 7.40104 11.9609 7.32812L11.2891 6.9375L12.0391 6.51562C12.1536 6.44792 12.2266 6.35938 12.2578 6.25C12.2891 6.14062 12.2734 6.02865 12.2109 5.91406C12.1484 5.80469 12.0599 5.73698 11.9453 5.71094C11.8359 5.6849 11.7266 5.70312 11.6172 5.76562L10.8672 6.20312L10.8594 5.42188C10.8594 5.29167 10.8229 5.1849 10.75 5.10156C10.6771 5.01823 10.5807 4.97656 10.4609 4.97656C10.3411 4.97656 10.2448 5.02083 10.1719 5.10938C10.099 5.19271 10.0625 5.29688 10.0625 5.42188L10.0703 6.65625L9.60938 6.92969L8.32812 7.75L8.41406 6.25V5.70312L9.49219 5.10156C9.60156 5.03385 9.67188 4.94531 9.70312 4.83594C9.73958 4.72656 9.72917 4.625 9.67188 4.53125C9.60938 4.42708 9.52344 4.36198 9.41406 4.33594C9.3099 4.3099 9.20052 4.33073 9.08594 4.39844L8.41406 4.78125V3.92188C8.41406 3.78646 8.3724 3.67969 8.28906 3.60156C8.21094 3.51823 8.10938 3.47656 7.98438 3.47656C7.86458 3.47656 7.76302 3.51823 7.67969 3.60156C7.60156 3.6849 7.5625 3.79167 7.5625 3.92188V4.78906L6.88281 4.39844C6.76302 4.33594 6.65104 4.31771 6.54688 4.34375C6.44271 4.36458 6.35938 4.42708 6.29688 4.53125C6.23958 4.63021 6.22917 4.73438 6.26562 4.84375C6.30208 4.94792 6.3724 5.03125 6.47656 5.09375L7.5625 5.70312V6.25L7.64844 7.75L6.375 6.9375L5.89844 6.65625L5.90625 5.42188C5.90625 5.29688 5.86979 5.19271 5.79688 5.10938C5.72396 5.02083 5.63021 4.97656 5.51562 4.97656C5.39062 4.97656 5.29167 5.01823 5.21875 5.10156C5.15104 5.17969 5.11719 5.28646 5.11719 5.42188L5.10938 6.20312L4.35156 5.76562C4.24219 5.70312 4.13021 5.6875 4.01562 5.71875C3.90625 5.74479 3.82031 5.8099 3.75781 5.91406C3.69531 6.02865 3.67969 6.14062 3.71094 6.25C3.74219 6.35938 3.8151 6.44792 3.92969 6.51562L4.67969 6.9375L4.00781 7.32812C3.89323 7.40104 3.81771 7.48958 3.78125 7.59375C3.75 7.69271 3.76302 7.79688 3.82031 7.90625C3.8776 8.00521 3.96354 8.06771 4.07812 8.09375C4.19271 8.11458 4.30469 8.09375 4.41406 8.03125L5.47656 7.40625L5.94531 7.67969L7.30469 8.35938L5.94531 9.03125L5.47656 9.3125L4.41406 8.6875C4.30469 8.625 4.19271 8.60677 4.07812 8.63281C3.96354 8.65365 3.88021 8.71094 3.82812 8.80469C3.77083 8.91406 3.75781 9.02083 3.78906 9.125C3.82031 9.22917 3.89323 9.3151 4.00781 9.38281L4.67969 9.77344L3.92969 10.2031C3.8151 10.2708 3.74219 10.3594 3.71094 10.4688C3.67969 10.5781 3.69531 10.6901 3.75781 10.8047C3.82552 10.9141 3.91406 10.9818 4.02344 11.0078C4.13281 11.0339 4.24219 11.013 4.35156 10.9453L5.10938 10.5156L5.11719 11.2969C5.11719 11.4271 5.15104 11.5339 5.21875 11.6172C5.29167 11.6953 5.39062 11.7344 5.51562 11.7344C5.63021 11.7344 5.72396 11.6927 5.79688 11.6094C5.86979 11.526 5.90625 11.4219 5.90625 11.2969L5.89844 10.0547L6.375 9.78125L7.64844 8.96094L7.5625 10.4688V11.0156L6.47656 11.6172C6.3724 11.6849 6.30208 11.7734 6.26562 11.8828C6.22917 11.987 6.23958 12.0885 6.29688 12.1875C6.35938 12.2917 6.44271 12.3542 6.54688 12.375C6.65104 12.3958 6.76302 12.3776 6.88281 12.3203L7.5625 11.9297V12.7969C7.5625 12.9271 7.60156 13.0339 7.67969 13.1172C7.76302 13.2005 7.86458 13.2422 7.98438 13.2422Z" fill="white"/>
</svg>
