<svg width="16" height="17" viewBox="0 0 16 17" fill="none" xmlns="http://www.w3.org/2000/svg">
<path d="M8 16.3281C9.08854 16.3281 10.112 16.1198 11.0703 15.7031C12.0339 15.2865 12.8828 14.7109 13.6172 13.9766C14.3516 13.2422 14.9271 12.3958 15.3438 11.4375C15.7604 10.474 15.9688 9.44792 15.9688 8.35938C15.9688 7.27083 15.7604 6.2474 15.3438 5.28906C14.9271 4.32552 14.3516 3.47656 13.6172 2.74219C12.8828 2.00781 12.0339 1.43229 11.0703 1.01562C10.1068 0.598958 9.08073 0.390625 7.99219 0.390625C6.90365 0.390625 5.8776 0.598958 4.91406 1.01562C3.95573 1.43229 3.10938 2.00781 2.375 2.74219C1.64583 3.47656 1.07292 4.32552 0.65625 5.28906C0.239583 6.2474 0.03125 7.27083 0.03125 8.35938C0.03125 9.44792 0.239583 10.474 0.65625 11.4375C1.07292 12.3958 1.64844 13.2422 2.38281 13.9766C3.11719 14.7109 3.96354 15.2865 4.92188 15.7031C5.88542 16.1198 6.91146 16.3281 8 16.3281ZM8 12.6875C7.41667 12.6875 6.86458 12.5729 6.34375 12.3438C5.82292 12.1146 5.36198 11.8021 4.96094 11.4062C4.5651 11.0052 4.2526 10.5469 4.02344 10.0312C3.79948 9.51042 3.6875 8.95573 3.6875 8.36719C3.6875 7.77865 3.79948 7.22396 4.02344 6.70312C4.2526 6.18229 4.5651 5.72396 4.96094 5.32812C5.36198 4.92708 5.82031 4.61458 6.33594 4.39062C6.85677 4.16146 7.41146 4.04688 8 4.04688C8.58854 4.04688 9.14323 4.16146 9.66406 4.39062C10.1849 4.61979 10.6432 4.9349 11.0391 5.33594C11.4401 5.73177 11.7526 6.1901 11.9766 6.71094C12.2057 7.23177 12.3203 7.78385 12.3203 8.36719C12.3203 8.95573 12.2057 9.51042 11.9766 10.0312C11.7526 10.5521 11.4401 11.013 11.0391 11.4141C10.6432 11.8099 10.1849 12.1224 9.66406 12.3516C9.14323 12.5755 8.58854 12.6875 8 12.6875ZM4.92969 10.3594L6.17188 10.3359L6.8125 9.50781L6.4375 8.33594L5.26562 7.85938L4.34375 8.39062C4.34896 8.75521 4.40104 9.10156 4.5 9.42969C4.60417 9.75781 4.7474 10.0677 4.92969 10.3594ZM5.125 6.08594L5.45312 7.17969L6.63281 7.65625L7.66406 6.86719V5.63281L6.75 4.91406C6.42708 5.02865 6.1276 5.1875 5.85156 5.39062C5.58073 5.58854 5.33854 5.82031 5.125 6.08594ZM10.8906 6.08594C10.4635 5.53385 9.91927 5.14323 9.25781 4.91406L8.36719 5.61719V6.86719L9.39062 7.65625L10.5703 7.17969L10.8906 6.08594ZM11.0781 10.375C11.2656 10.0885 11.4115 9.77865 11.5156 9.44531C11.6198 9.10677 11.6745 8.75521 11.6797 8.39062L10.7578 7.85938L9.58594 8.33594L9.21094 9.51562L9.84375 10.3516L11.0781 10.375ZM8.00781 12.0234C8.1849 12.0234 8.35938 12.013 8.53125 11.9922C8.70312 11.9661 8.86979 11.9271 9.03125 11.875L9.28906 10.7734L8.71094 10.0234H7.28906L6.73438 10.75L6.99219 11.875C7.32552 11.974 7.66406 12.0234 8.00781 12.0234Z" fill="white"/>
</svg>
