<svg xmlns="http://www.w3.org/2000/svg" width="24" height="24"><path style="stroke:none;fill-rule:nonzero;fill:#fff;fill-opacity:1" d="M12 23.05c1.633 0 3.168-.292 4.605-.882a12.22 12.22 0 0 0 3.82-2.438 11.467 11.467 0 0 0 2.59-3.582c.626-1.363.938-2.808.938-4.347a10.2 10.2 0 0 0-.937-4.332 11.53 11.53 0 0 0-2.59-3.598 12.361 12.361 0 0 0-3.82-2.437A12.166 12.166 0 0 0 11.987.55c-1.633 0-3.172.293-4.617.883A12.307 12.307 0 0 0 3.562 3.87 11.523 11.523 0 0 0 .985 7.465 10.2 10.2 0 0 0 .047 11.8c0 1.539.312 2.984.937 4.347a11.467 11.467 0 0 0 2.59 3.582 12.236 12.236 0 0 0 3.809 2.438c1.445.59 2.984.883 4.617.883Zm0-1.874a10.222 10.222 0 0 1-7.055-2.734 9.548 9.548 0 0 1-2.133-2.989 8.83 8.83 0 0 1-.761-3.652c0-1.301.254-2.52.761-3.649A9.52 9.52 0 0 1 4.946 5.16 9.82 9.82 0 0 1 8.11 3.156c1.204-.488 2.496-.73 3.88-.73 1.382 0 2.675.242 3.878.73a9.701 9.701 0 0 1 3.176 2.004 9.432 9.432 0 0 1 2.145 2.992 8.685 8.685 0 0 1 .773 3.649c0 1.3-.258 2.52-.773 3.652a9.22 9.22 0 0 1-2.133 2.988A10.222 10.222 0 0 1 12 21.176Zm-.012-3.453c.86 0 1.668-.153 2.426-.461a6.625 6.625 0 0 0 2.004-1.29 6.087 6.087 0 0 0 1.36-1.874c.331-.723.495-1.5.492-2.286a5.299 5.299 0 0 0-.504-2.273 5.95 5.95 0 0 0-1.36-1.883 6.413 6.413 0 0 0-2.004-1.281 6.143 6.143 0 0 0-2.414-.473 6.214 6.214 0 0 0-2.414.473c-.75.3-1.43.738-2.004 1.281A5.95 5.95 0 0 0 6.21 9.54a5.403 5.403 0 0 0-.491 2.274c0 .8.164 1.558.492 2.273.32.703.785 1.344 1.36 1.887.581.539 1.257.976 2.003 1.289a6.349 6.349 0 0 0 2.414.46Zm-4.465-3.188a4.884 4.884 0 0 1-.855-2.691l1.348-.727 1.699.653.55 1.609-.937 1.125Zm.282-5.844c.304-.359.66-.683 1.054-.96a5.076 5.076 0 0 1 1.313-.649l1.324.992v1.688l-1.5 1.082-1.71-.653Zm8.39 0-.468 1.5-1.711.653-1.5-1.082V8.05l1.3-.969c.477.152.914.371 1.313.648.406.282.762.602 1.066.961Zm.282 5.868-1.805-.032-.926-1.136.55-1.621 1.7-.653 1.348.727c-.008.488-.09.972-.246 1.433-.141.453-.352.883-.621 1.282ZM12 16.82c-.258 0-.512-.02-.762-.054a8.572 8.572 0 0 1-.715-.145l-.375-1.543.809-.996h2.063l.843 1.027-.375 1.512c-.46.133-.957.2-1.488.2Zm0 0"/></svg>