<svg width="195" height="110" viewBox="0 0 195 110" fill="none" xmlns="http://www.w3.org/2000/svg">
<path d="M20 36.75H30.5625V15.625C30.5625 14.0833 31.0208 12.8542 31.9375 11.9375C32.8958 10.9792 34.1042 10.5 35.5625 10.5H87.3125C88.8125 10.5 90.0208 10.9792 90.9375 11.9375C91.8542 12.8542 92.3125 14.0833 92.3125 15.625V65.25H102.875V15.5625C102.875 10.8542 101.479 7.08333 98.6875 4.25C95.9375 1.41667 92.3125 0 87.8125 0H35.125C30.5833 0 26.9167 1.41667 24.125 4.25C21.375 7.08333 20 10.8542 20 15.5625V36.75ZM176.562 36.75V15.5625C176.562 10.8542 175.167 7.08333 172.375 4.25C169.625 1.41667 165.979 0 161.438 0H107.375C102.875 0 99.2292 1.41667 96.4375 4.25C93.6875 7.08333 92.3125 10.8542 92.3125 15.5625V65.25H102.875V15.625C102.875 14.0833 103.333 12.8542 104.25 11.9375C105.167 10.9792 106.375 10.5 107.875 10.5H161C162.5 10.5 163.708 10.9792 164.625 11.9375C165.542 12.8542 166 14.0833 166 15.625V36.75H176.562ZM0.9375 82C0.9375 86.5 2.29167 90.125 5 92.875C7.75 95.5833 11.3333 96.9375 15.75 96.9375H179.438C183.896 96.9375 187.479 95.5833 190.188 92.875C192.896 90.125 194.25 86.5 194.25 82V44C194.25 39.5 192.896 35.8958 190.188 33.1875C187.479 30.4375 183.896 29.0625 179.438 29.0625H170.812C166.396 29.0625 162.833 30.4375 160.125 33.1875C157.417 35.8958 156.062 39.5 156.062 44V59H39.1875V44C39.1875 39.5 37.8125 35.8958 35.0625 33.1875C32.3542 30.4375 28.7917 29.0625 24.375 29.0625H15.75C11.3333 29.0625 7.75 30.4375 5 33.1875C2.29167 35.8958 0.9375 39.5 0.9375 44V82ZM11.5625 81.875V44.125C11.5625 42.75 11.9792 41.6458 12.8125 40.8125C13.6875 39.9792 14.8333 39.5625 16.25 39.5625H23.8125C25.2292 39.5625 26.375 39.9792 27.25 40.8125C28.125 41.6458 28.5625 42.75 28.5625 44.125V69.5H166.625V44.125C166.625 42.75 167.062 41.6458 167.938 40.8125C168.812 39.9792 169.958 39.5625 171.375 39.5625H178.938C180.354 39.5625 181.5 39.9792 182.375 40.8125C183.25 41.6458 183.688 42.75 183.688 44.125V81.875C183.688 83.25 183.25 84.3542 182.375 85.1875C181.5 86.0208 180.354 86.4375 178.938 86.4375H16.25C14.8333 86.4375 13.6875 86.0208 12.8125 85.1875C11.9792 84.3542 11.5625 83.25 11.5625 81.875ZM23.6875 109.688H27.5625C29.2292 109.688 30.5625 109.188 31.5625 108.188C32.6042 107.188 33.125 105.854 33.125 104.188V90.9375H18.125V104.188C18.125 105.854 18.625 107.188 19.625 108.188C20.6667 109.188 22.0208 109.688 23.6875 109.688ZM167.625 109.688H171.5C173.167 109.688 174.5 109.188 175.5 108.188C176.542 107.188 177.062 105.854 177.062 104.188V90.9375H162.062V104.188C162.062 105.854 162.562 107.188 163.562 108.188C164.604 109.188 165.958 109.688 167.625 109.688Z" fill="white"/>
</svg>
