<svg xmlns="http://www.w3.org/2000/svg" width="24" height="24"><path style="stroke:none;fill-rule:nonzero;fill:#fff;fill-opacity:1" d="M.555 14.688c0 2.054.168 3.699.504 4.91.343 1.183.843 1.78 1.5 1.78H21.44c.657 0 1.153-.597 1.489-1.78.343-1.211.515-2.856.515-4.91V3.905c0-.687-.082-1.344-.234-1.808-.14-.508-.336-.793-.543-.782-.215-.011-.418.274-.563.782-.148.476-.226 1.129-.222 1.808V14.56c0 .586-.059 1.066-.172 1.445-.113.36-.266.55-.422.531H2.711c-.16.02-.316-.172-.434-.531-.109-.395-.164-.914-.16-1.445V3.906c.004-.687-.082-1.344-.234-1.808-.14-.512-.344-.797-.551-.782-.21-.007-.41.274-.555.782-.144.476-.226 1.129-.222 1.808Zm0 0"/></svg>