<svg xmlns="http://www.w3.org/2000/svg" width="24" height="24"><path style="stroke:none;fill-rule:nonzero;fill:#fff;fill-opacity:1" d="M4.355 24h15.282c1.082 0 1.898-.27 2.445-.813.55-.542.824-1.347.824-2.417V10.074c0-1.07-.273-1.875-.824-2.418-.547-.543-1.363-.812-2.445-.812H4.355c-1.09 0-1.91.27-2.46.812-.54.535-.813 1.34-.813 2.418V20.77c0 1.078.273 1.882.813 2.418.55.542 1.37.812 2.46.812Zm.02-1.676c-.52 0-.922-.14-1.2-.418-.277-.277-.413-.687-.413-1.23V10.168c0-.543.136-.953.414-1.23.277-.278.68-.418 1.199-.418h15.23c.512 0 .91.14 1.196.418.285.277.43.687.43 1.23v10.508c0 .543-.145.953-.43 1.23-.285.278-.684.418-1.196.418ZM3.281 5.168H20.72c-.082-.473-.25-.836-.5-1.086-.242-.254-.625-.383-1.145-.383H4.926c-.52 0-.906.13-1.156.383-.25.25-.41.613-.489 1.086Zm2.145-2.887h13.148c-.035-.445-.183-.777-.437-1-.25-.23-.617-.343-1.094-.343H6.949c-.48 0-.847.113-1.105.343-.25.223-.39.555-.418 1Zm7.086 17.356c.191 0 .316-.114.375-.336.11-.617.222-1.137.332-1.563.11-.43.25-.785.418-1.07.16-.281.379-.52.644-.7.27-.179.617-.327 1.043-.437.43-.117.965-.219 1.602-.3.23-.028.344-.153.344-.376 0-.214-.114-.34-.344-.375-.54-.07-1.074-.171-1.602-.304-.433-.117-.785-.266-1.062-.446a2.234 2.234 0 0 1-.68-.699c-.164-.285-.3-.64-.406-1.062a18.24 18.24 0 0 1-.29-1.531c-.042-.235-.167-.356-.374-.356-.215 0-.348.117-.399.344-.11.613-.222 1.133-.343 1.562-.11.426-.25.778-.415 1.063-.16.285-.375.52-.648.699-.262.172-.61.316-1.039.426-.426.113-.953.215-1.586.304-.234.036-.352.16-.352.375s.118.34.352.375c.8.082 1.438.2 1.918.352.484.148.86.367 1.125.656.27.285.477.676.613 1.168.14.492.266 1.121.375 1.887.043.227.176.344.399.344Zm-4.106 1.687c.153 0 .246-.078.281-.23.067-.371.149-.742.25-1.106a.72.72 0 0 1 .438-.476c.223-.09.61-.18 1.156-.262.168-.02.25-.113.25-.281 0-.168-.082-.262-.25-.282-.547-.097-.933-.19-1.156-.28a.717.717 0 0 1-.438-.47c-.07-.222-.152-.578-.25-1.074-.035-.172-.128-.258-.28-.258-.153 0-.25.086-.294.258-.097.496-.18.852-.25 1.075a.684.684 0 0 1-.426.468c-.214.09-.601.184-1.156.282-.16.019-.238.113-.238.28 0 .169.086.262.258.282.55.082.933.172 1.148.262.215.09.352.25.414.476.07.223.153.582.25 1.075.043.171.14.261.293.261Zm0 0"/></svg>