<svg width="16" height="16" viewBox="0 0 16 16" fill="none" xmlns="http://www.w3.org/2000/svg">
<path d="M8 15.9609C8.14583 15.9609 8.27083 15.9115 8.375 15.8125C8.47917 15.7188 8.54427 15.5938 8.57031 15.4375C8.70573 14.3958 8.85677 13.5208 9.02344 12.8125C9.1901 12.099 9.40885 11.5156 9.67969 11.0625C9.95573 10.6042 10.3177 10.2396 10.7656 9.96875C11.2188 9.69792 11.7943 9.48698 12.4922 9.33594C13.1901 9.17969 14.0469 9.04427 15.0625 8.92969C15.2188 8.91406 15.349 8.85417 15.4531 8.75C15.5573 8.64062 15.6094 8.51042 15.6094 8.35938C15.6094 8.20833 15.5573 8.08073 15.4531 7.97656C15.349 7.86719 15.2188 7.80208 15.0625 7.78125C14.0469 7.67188 13.1901 7.54167 12.4922 7.39062C11.7943 7.23438 11.2188 7.02083 10.7656 6.75C10.3177 6.47917 9.95573 6.11719 9.67969 5.66406C9.40885 5.20573 9.1901 4.61979 9.02344 3.90625C8.85677 3.19271 8.70573 2.3151 8.57031 1.27344C8.54427 1.11719 8.47917 0.992188 8.375 0.898438C8.27083 0.804688 8.14583 0.757812 8 0.757812C7.85417 0.757812 7.72917 0.804688 7.625 0.898438C7.52083 0.992188 7.45573 1.11719 7.42969 1.27344C7.29427 2.3151 7.14323 3.19271 6.97656 3.90625C6.8099 4.61979 6.58854 5.20573 6.3125 5.66406C6.03646 6.11719 5.67188 6.47917 5.21875 6.75C4.77083 7.02083 4.19792 7.23438 3.5 7.39062C2.80729 7.54167 1.95312 7.67188 0.9375 7.78125C0.776042 7.80208 0.643229 7.86719 0.539062 7.97656C0.440104 8.08073 0.390625 8.20833 0.390625 8.35938C0.390625 8.51042 0.440104 8.64062 0.539062 8.75C0.643229 8.85417 0.776042 8.91406 0.9375 8.92969C1.78646 9.04427 2.52083 9.16667 3.14062 9.29688C3.76042 9.42188 4.28906 9.57812 4.72656 9.76562C5.16406 9.95312 5.52865 10.1953 5.82031 10.4922C6.11719 10.7839 6.36198 11.151 6.55469 11.5938C6.7474 12.0312 6.91146 12.5651 7.04688 13.1953C7.18229 13.8255 7.3099 14.5729 7.42969 15.4375C7.45573 15.5938 7.52083 15.7188 7.625 15.8125C7.72917 15.9115 7.85417 15.9609 8 15.9609Z" fill="white"/>
</svg>
