<svg width="10" height="15" viewBox="0 0 10 15" fill="none" xmlns="http://www.w3.org/2000/svg">
<path d="M8.85938 14.2578C9.11979 14.2578 9.33073 14.1745 9.49219 14.0078C9.65885 13.8411 9.74219 13.6328 9.74219 13.3828V1.39844C9.74219 1.14323 9.65885 0.927083 9.49219 0.75C9.32552 0.567708 9.10938 0.476562 8.84375 0.476562C8.66146 0.476562 8.4974 0.518229 8.35156 0.601562C8.20573 0.684896 8.03385 0.822917 7.83594 1.01562L4.50781 4.14062C4.45573 4.1875 4.39062 4.21094 4.3125 4.21094H2.07031C1.54427 4.21094 1.14062 4.35677 0.859375 4.64844C0.578125 4.9349 0.4375 5.35938 0.4375 5.92188V8.82812C0.4375 9.39583 0.578125 9.82292 0.859375 10.1094C1.14062 10.3958 1.54427 10.5391 2.07031 10.5391H4.3125C4.39062 10.5391 4.45573 10.5625 4.50781 10.6094L7.83594 13.7656C8.01302 13.9375 8.18229 14.0625 8.34375 14.1406C8.50521 14.2188 8.67708 14.2578 8.85938 14.2578Z" fill="white"/>
</svg>
