<svg width="168" height="122" viewBox="0 0 168 122" fill="none" xmlns="http://www.w3.org/2000/svg">
<path d="M12.8125 86.3125H30.6875C31.2708 86.3125 31.7708 86.5 32.1875 86.875L60.375 112.125C61.875 113.458 63.25 114.438 64.5 115.062C65.7917 115.729 67.1875 116.062 68.6875 116.062C70.7292 116.062 72.4167 115.396 73.75 114.062C75.0833 112.729 75.75 111.062 75.75 109.062V13.1875C75.75 11.1458 75.0625 9.41667 73.6875 8C72.3542 6.54167 70.6458 5.8125 68.5625 5.8125C67.0625 5.8125 65.7292 6.16667 64.5625 6.875C63.4375 7.58333 62.0417 8.66667 60.375 10.125L32.1875 35.125C31.8125 35.5 31.3125 35.6875 30.6875 35.6875H12.8125C8.5625 35.6875 5.375 36.7917 3.25 39C1.125 41.1667 0.0625 44.5208 0.0625 49.0625V73C0.0625 77.5 1.125 80.8542 3.25 83.0625C5.375 85.2292 8.5625 86.3125 12.8125 86.3125ZM13.25 77.1875C12.0833 77.1875 11.2083 76.9167 10.625 76.375C10.0833 75.8333 9.8125 74.9792 9.8125 73.8125V48.25C9.8125 47.0833 10.0833 46.2292 10.625 45.6875C11.2083 45.1042 12.0833 44.8125 13.25 44.8125H33.25C34.0417 44.8125 34.7708 44.7083 35.4375 44.5C36.1042 44.2917 36.7917 43.8542 37.5 43.1875L64.125 19C64.2917 18.8333 64.4583 18.7083 64.625 18.625C64.7917 18.5417 64.9792 18.5 65.1875 18.5C65.7292 18.5 66 18.7917 66 19.375V102.438C66 103.062 65.7292 103.375 65.1875 103.375C64.8542 103.375 64.5208 103.208 64.1875 102.875L37.5 78.8125C36.7917 78.1875 36.1042 77.7708 35.4375 77.5625C34.7708 77.3125 34.0417 77.1875 33.25 77.1875H13.25ZM96.8125 87.5C97.8958 88.2083 99.0833 88.4583 100.375 88.25C101.667 88 102.729 87.2708 103.562 86.0625C105.979 82.8958 107.854 79.1042 109.188 74.6875C110.562 70.2708 111.25 65.6667 111.25 60.875C111.25 56.0833 110.562 51.4792 109.188 47.0625C107.854 42.6458 105.979 38.8542 103.562 35.6875C102.729 34.4792 101.667 33.75 100.375 33.5C99.0833 33.25 97.8958 33.5 96.8125 34.25C95.5625 35.125 94.8333 36.2708 94.625 37.6875C94.4583 39.0625 94.875 40.3958 95.875 41.6875C97.7083 44.1875 99.1042 47.1042 100.062 50.4375C101.062 53.7708 101.562 57.25 101.562 60.875C101.562 64.5 101.062 67.9792 100.062 71.3125C99.0625 74.6042 97.6667 77.5208 95.875 80.0625C94.9167 81.3958 94.5208 82.75 94.6875 84.125C94.8542 85.5 95.5625 86.625 96.8125 87.5ZM120 103.812C121.167 104.562 122.396 104.833 123.688 104.625C124.979 104.375 126.042 103.646 126.875 102.438C130.875 96.9375 133.979 90.5625 136.188 83.3125C138.438 76.0625 139.562 68.5833 139.562 60.875C139.562 53.1667 138.458 45.6667 136.25 38.375C134.042 31.0833 130.917 24.7292 126.875 19.3125C126.042 18.1042 124.979 17.375 123.688 17.125C122.396 16.875 121.167 17.1458 120 17.9375C118.875 18.7292 118.208 19.7917 118 21.125C117.833 22.4167 118.208 23.7083 119.125 25C122.542 29.8333 125.188 35.3542 127.062 41.5625C128.938 47.7708 129.875 54.2083 129.875 60.875C129.875 67.5417 128.917 73.9792 127 80.1875C125.125 86.3542 122.5 91.875 119.125 96.75C118.25 98.0417 117.896 99.3542 118.062 100.688C118.229 101.979 118.875 103.021 120 103.812ZM143.438 120.375C144.521 121.167 145.729 121.417 147.062 121.125C148.396 120.833 149.479 120.062 150.312 118.812C153.979 113.521 157.104 107.812 159.688 101.688C162.312 95.5208 164.312 89.0208 165.688 82.1875C167.104 75.3542 167.812 68.25 167.812 60.875C167.812 53.5 167.104 46.3958 165.688 39.5625C164.271 32.7292 162.25 26.25 159.625 20.125C157 13.9583 153.896 8.22917 150.312 2.9375C149.479 1.64583 148.396 0.875 147.062 0.625C145.729 0.333333 144.521 0.583333 143.438 1.375C142.271 2.16667 141.604 3.22917 141.438 4.5625C141.271 5.89583 141.625 7.20833 142.5 8.5C145.708 13.2917 148.479 18.4583 150.812 24C153.188 29.5 155.021 35.3542 156.312 41.5625C157.604 47.7292 158.25 54.1667 158.25 60.875C158.25 67.5417 157.604 73.9792 156.312 80.1875C155.021 86.3542 153.188 92.2292 150.812 97.8125C148.479 103.354 145.708 108.5 142.5 113.25C141.625 114.5 141.271 115.792 141.438 117.125C141.604 118.5 142.271 119.583 143.438 120.375Z" fill="white"/>
</svg>
