<?xml version="1.0" encoding="UTF-8"?>
<svg xmlns="http://www.w3.org/2000/svg" xmlns:xlink="http://www.w3.org/1999/xlink" width="24" height="22.666667" viewBox="0 0 24 22.666667" version="1.1">
<g id="surface1">
<path style=" stroke:none;fill-rule:nonzero;fill:rgb(100%,100%,100%);fill-opacity:1;" d="M 6.707031 22.65625 C 6.917969 22.65625 7.105469 22.601562 7.269531 22.488281 C 7.445312 22.386719 7.65625 22.21875 7.90625 21.988281 L 11.667969 18.550781 L 18.707031 18.550781 C 19.742188 18.550781 20.613281 18.367188 21.324219 18 C 22.03125 17.632812 22.566406 17.09375 22.925781 16.386719 C 23.296875 15.675781 23.480469 14.8125 23.480469 13.792969 L 23.480469 5.8125 C 23.480469 4.792969 23.296875 3.925781 22.925781 3.21875 C 22.566406 2.511719 22.03125 1.972656 21.324219 1.605469 C 20.613281 1.230469 19.742188 1.042969 18.707031 1.042969 L 5.292969 1.042969 C 4.257812 1.042969 3.386719 1.230469 2.675781 1.605469 C 1.96875 1.972656 1.429688 2.511719 1.0625 3.21875 C 0.703125 3.925781 0.519531 4.792969 0.519531 5.8125 L 0.519531 13.792969 C 0.519531 14.8125 0.703125 15.675781 1.0625 16.386719 C 1.429688 17.09375 1.96875 17.632812 2.675781 18 C 3.386719 18.367188 4.257812 18.550781 5.292969 18.550781 L 5.78125 18.550781 L 5.78125 21.582031 C 5.78125 21.910156 5.859375 22.171875 6.019531 22.363281 C 6.179688 22.558594 6.410156 22.65625 6.707031 22.65625 Z M 11.65625 14.636719 C 11.523438 14.636719 11.402344 14.609375 11.292969 14.550781 C 11.179688 14.496094 11.058594 14.410156 10.925781 14.292969 L 8.59375 12.074219 C 8.558594 12.039062 8.515625 12.019531 8.457031 12.019531 L 6.875 12.019531 C 6.515625 12.019531 6.234375 11.921875 6.03125 11.71875 C 5.828125 11.511719 5.730469 11.210938 5.730469 10.824219 L 5.730469 8.769531 C 5.730469 8.382812 5.828125 8.085938 6.03125 7.886719 C 6.234375 7.675781 6.515625 7.574219 6.875 7.574219 L 8.457031 7.574219 C 8.519531 7.574219 8.566406 7.558594 8.59375 7.53125 L 10.925781 5.332031 C 11.074219 5.203125 11.195312 5.109375 11.292969 5.050781 C 11.394531 4.988281 11.511719 4.957031 11.636719 4.957031 C 11.824219 4.957031 11.976562 5.019531 12.09375 5.144531 C 12.210938 5.269531 12.269531 5.421875 12.269531 5.605469 L 12.269531 14.019531 C 12.269531 14.195312 12.210938 14.339844 12.09375 14.457031 C 11.984375 14.578125 11.835938 14.636719 11.65625 14.636719 Z M 14.09375 12.207031 C 13.796875 11.980469 13.75 11.703125 13.957031 11.386719 C 14.269531 10.949219 14.425781 10.417969 14.425781 9.792969 C 14.425781 9.125 14.273438 8.59375 13.96875 8.199219 C 13.863281 8.050781 13.824219 7.902344 13.84375 7.75 C 13.871094 7.597656 13.953125 7.46875 14.09375 7.363281 C 14.210938 7.273438 14.34375 7.246094 14.488281 7.28125 C 14.640625 7.308594 14.765625 7.386719 14.863281 7.511719 C 15.078125 7.800781 15.246094 8.148438 15.363281 8.550781 C 15.488281 8.953125 15.550781 9.367188 15.550781 9.792969 C 15.550781 10.230469 15.492188 10.648438 15.375 11.050781 C 15.257812 11.449219 15.085938 11.789062 14.863281 12.074219 C 14.765625 12.199219 14.640625 12.277344 14.488281 12.3125 C 14.34375 12.339844 14.210938 12.304688 14.09375 12.207031 Z M 15.988281 13.636719 C 15.851562 13.550781 15.769531 13.433594 15.75 13.28125 C 15.734375 13.121094 15.777344 12.96875 15.875 12.824219 C 16.167969 12.433594 16.390625 11.972656 16.550781 11.4375 C 16.710938 10.902344 16.792969 10.355469 16.792969 9.792969 C 16.792969 8.605469 16.484375 7.585938 15.875 6.738281 C 15.777344 6.601562 15.738281 6.453125 15.761719 6.300781 C 15.78125 6.148438 15.859375 6.027344 15.988281 5.9375 C 16.121094 5.847656 16.261719 5.816406 16.40625 5.84375 C 16.550781 5.871094 16.671875 5.953125 16.761719 6.082031 C 17.136719 6.605469 17.421875 7.183594 17.613281 7.824219 C 17.808594 8.460938 17.90625 9.117188 17.90625 9.792969 C 17.90625 10.480469 17.804688 11.140625 17.605469 11.78125 C 17.402344 12.414062 17.121094 12.984375 16.761719 13.5 C 16.671875 13.617188 16.550781 13.691406 16.40625 13.71875 C 16.265625 13.746094 16.128906 13.71875 15.988281 13.636719 Z M 15.988281 13.636719 "/>
</g>
</svg>
