<?xml version="1.0" encoding="UTF-8"?>
<svg xmlns="http://www.w3.org/2000/svg" xmlns:xlink="http://www.w3.org/1999/xlink" width="24" height="25.5" viewBox="0 0 24 25.5" version="1.1">
<g id="surface1">
<path style=" stroke:none;fill-rule:nonzero;fill:rgb(100%,100%,100%);fill-opacity:1;" d="M 12 24.503906 C 13.632812 24.503906 15.167969 24.191406 16.605469 23.566406 C 18.050781 22.941406 19.324219 22.078125 20.425781 20.976562 C 21.527344 19.875 22.390625 18.605469 23.015625 17.167969 C 23.640625 15.722656 23.953125 14.183594 23.953125 12.550781 C 23.953125 10.917969 23.640625 9.382812 23.015625 7.945312 C 22.390625 6.5 21.527344 5.226562 20.425781 4.125 C 19.324219 3.023438 18.050781 2.160156 16.605469 1.535156 C 15.160156 0.910156 13.621094 0.597656 11.988281 0.597656 C 10.355469 0.597656 8.816406 0.910156 7.371094 1.535156 C 5.933594 2.160156 4.664062 3.023438 3.5625 4.125 C 2.46875 5.226562 1.609375 6.5 0.984375 7.945312 C 0.359375 9.382812 0.046875 10.917969 0.046875 12.550781 C 0.046875 14.183594 0.359375 15.722656 0.984375 17.167969 C 1.609375 18.605469 2.472656 19.875 3.574219 20.976562 C 4.675781 22.078125 5.945312 22.941406 7.382812 23.566406 C 8.828125 24.191406 10.367188 24.503906 12 24.503906 Z M 14.238281 18.339844 C 13.933594 18.339844 13.644531 18.203125 13.371094 17.929688 L 10.59375 15.28125 C 10.546875 15.242188 10.484375 15.222656 10.40625 15.222656 L 8.53125 15.222656 C 8.085938 15.222656 7.746094 15.105469 7.511719 14.871094 C 7.277344 14.628906 7.160156 14.269531 7.160156 13.792969 L 7.160156 11.34375 C 7.160156 10.867188 7.277344 10.511719 7.511719 10.277344 C 7.746094 10.035156 8.085938 9.914062 8.53125 9.914062 L 10.40625 9.914062 C 10.492188 9.914062 10.554688 9.894531 10.59375 9.855469 L 13.371094 7.21875 C 13.691406 6.921875 13.976562 6.773438 14.226562 6.773438 C 14.445312 6.773438 14.625 6.851562 14.765625 7.007812 C 14.90625 7.15625 14.976562 7.335938 14.976562 7.546875 L 14.976562 17.613281 C 14.976562 17.824219 14.90625 18 14.765625 18.140625 C 14.625 18.273438 14.449219 18.339844 14.238281 18.339844 Z M 14.238281 18.339844 "/>
</g>
</svg>
