<svg xmlns="http://www.w3.org/2000/svg" width="24" height="24"><path style="stroke:none;fill-rule:nonzero;fill:#fff;fill-opacity:1" d="M10.79 22.813c.312 0 .565-.137.76-.403.2-.265.302-.598.302-1V2.238c0-.41-.102-.754-.301-1.039-.2-.293-.461-.437-.778-.437a.928.928 0 0 0-.593.21c-.223.192-.43.41-.617.653l-3.993 5c-.066.074-.148.117-.234.113H2.645c-.633 0-1.118.23-1.454.7-.34.457-.507 1.136-.507 2.035v4.652c0 .906.168 1.594.507 2.05.336.462.82.688 1.454.688h2.69c.095 0 .173.04.235.11l3.992 5.054c.211.274.415.473.61.598.191.125.402.188.617.188Zm12-14h-2.22v-.075l2.285-4.015c.102-.172.172-.317.215-.438a.996.996 0 0 0 .067-.36.672.672 0 0 0-.168-.487.5.5 0 0 0-.395-.176h-3.148a.477.477 0 0 0-.387.183.778.778 0 0 0-.14.493c0 .207.046.374.14.5.102.125.23.187.387.187h2.097v.05l-2.312 4.013c-.11.175-.18.324-.219.449a1.451 1.451 0 0 0-.055.39c0 .18.051.336.149.461a.493.493 0 0 0 .406.188h3.297a.458.458 0 0 0 .375-.176.781.781 0 0 0 .152-.512.76.76 0 0 0-.152-.488.445.445 0 0 0-.375-.188Zm-5.513 5h-1.566v-.051l1.625-2.825c.094-.167.16-.308.203-.425a.954.954 0 0 0 .066-.352.59.59 0 0 0-.16-.445.479.479 0 0 0-.383-.16h-2.39a.442.442 0 0 0-.356.168.733.733 0 0 0-.132.453c0 .21.043.37.132.484a.423.423 0 0 0 .356.18h1.406v.047l-1.613 2.812c-.074.133-.14.278-.195.426-.04.113-.06.238-.06.363 0 .172.052.332.142.45a.45.45 0 0 0 .367.175h2.558a.418.418 0 0 0 .348-.164.756.756 0 0 0 .14-.484.739.739 0 0 0-.14-.465c-.09-.125-.219-.195-.348-.188Zm4.239 4.597h-1.332v-.047l1.37-2.437c.094-.176.157-.313.196-.414a.99.99 0 0 0 .055-.325c0-.19-.047-.34-.14-.437a.434.434 0 0 0-.356-.16h-2.11c-.137 0-.25.05-.336.16a.69.69 0 0 0-.133.45c0 .202.043.35.133.46a.43.43 0 0 0 .336.152h1.164v.055l-1.36 2.434a4.16 4.16 0 0 0-.198.398 1.062 1.062 0 0 0-.055.336c0 .18.047.324.14.438.094.109.212.164.356.164h2.27c.12.008.234-.051.32-.164a.735.735 0 0 0 .129-.461.662.662 0 0 0-.13-.422.374.374 0 0 0-.32-.18Zm0 0"/></svg>