<svg width="20" height="15" viewBox="0 0 20 15" fill="none" xmlns="http://www.w3.org/2000/svg">
<path d="M2.16406 10.5391H4.39844C4.47135 10.5391 4.53385 10.5625 4.58594 10.6094L8.10938 13.7656C8.29688 13.9323 8.46875 14.0547 8.625 14.1328C8.78646 14.2161 8.96094 14.2578 9.14844 14.2578C9.40365 14.2578 9.61458 14.1745 9.78125 14.0078C9.94792 13.8411 10.0312 13.6328 10.0312 13.3828V1.39844C10.0312 1.14323 9.94531 0.927083 9.77344 0.75C9.60677 0.567708 9.39323 0.476562 9.13281 0.476562C8.94531 0.476562 8.77865 0.520833 8.63281 0.609375C8.49219 0.697917 8.31771 0.833333 8.10938 1.01562L4.58594 4.14062C4.53906 4.1875 4.47656 4.21094 4.39844 4.21094H2.16406C1.63281 4.21094 1.23438 4.34896 0.96875 4.625C0.703125 4.89583 0.570312 5.3151 0.570312 5.88281V8.875C0.570312 9.4375 0.703125 9.85677 0.96875 10.1328C1.23438 10.4036 1.63281 10.5391 2.16406 10.5391ZM2.21875 9.39844C2.07292 9.39844 1.96354 9.36458 1.89062 9.29688C1.82292 9.22917 1.78906 9.1224 1.78906 8.97656V5.78125C1.78906 5.63542 1.82292 5.52865 1.89062 5.46094C1.96354 5.38802 2.07292 5.35156 2.21875 5.35156H4.71875C4.81771 5.35156 4.90885 5.33854 4.99219 5.3125C5.07552 5.28646 5.16146 5.23177 5.25 5.14844L8.57812 2.125C8.59896 2.10417 8.61979 2.08854 8.64062 2.07812C8.66146 2.06771 8.6849 2.0625 8.71094 2.0625C8.77865 2.0625 8.8125 2.09896 8.8125 2.17188V12.5547C8.8125 12.6328 8.77865 12.6719 8.71094 12.6719C8.66927 12.6719 8.6276 12.651 8.58594 12.6094L5.25 9.60156C5.16146 9.52344 5.07552 9.47135 4.99219 9.44531C4.90885 9.41406 4.81771 9.39844 4.71875 9.39844H2.21875ZM18.9922 5.50781H17.1406V5.46094L19.0469 2.95312C19.1302 2.84375 19.1901 2.7526 19.2266 2.67969C19.263 2.60156 19.2812 2.52604 19.2812 2.45312C19.2812 2.32292 19.2344 2.22135 19.1406 2.14844C19.0521 2.07552 18.9427 2.03906 18.8125 2.03906H16.1875C16.0573 2.03906 15.9505 2.07812 15.8672 2.15625C15.7891 2.22917 15.75 2.33073 15.75 2.46094C15.75 2.59115 15.7891 2.69531 15.8672 2.77344C15.9505 2.85156 16.0573 2.89062 16.1875 2.89062H17.9375V2.92188L16.0078 5.42969C15.9193 5.53906 15.8594 5.63281 15.8281 5.71094C15.7969 5.78385 15.7812 5.86458 15.7812 5.95312C15.7812 6.06771 15.8229 6.16406 15.9062 6.24219C15.9896 6.32031 16.1016 6.35938 16.2422 6.35938H18.9922C19.1224 6.35938 19.2266 6.32292 19.3047 6.25C19.388 6.17188 19.4297 6.0651 19.4297 5.92969C19.4297 5.80469 19.388 5.70312 19.3047 5.625C19.2266 5.54688 19.1224 5.50781 18.9922 5.50781ZM14.3984 8.63281H13.0938V8.60156L14.4453 6.83594C14.5234 6.73177 14.5807 6.64323 14.6172 6.57031C14.6536 6.4974 14.6719 6.42448 14.6719 6.35156C14.6719 6.23177 14.6276 6.13802 14.5391 6.07031C14.4557 6.0026 14.349 5.96875 14.2188 5.96875H12.2266C12.1068 5.96875 12.0078 6.00521 11.9297 6.07812C11.8568 6.15104 11.8203 6.24479 11.8203 6.35938C11.8203 6.48958 11.8568 6.59115 11.9297 6.66406C12.0078 6.73698 12.1068 6.77344 12.2266 6.77344H13.3984V6.80469L12.0547 8.5625C11.9818 8.66146 11.9271 8.75 11.8906 8.82812C11.8594 8.90104 11.8438 8.97656 11.8438 9.05469C11.8438 9.16406 11.8828 9.25781 11.9609 9.33594C12.0391 9.40885 12.1406 9.44531 12.2656 9.44531H14.3984C14.5182 9.44531 14.6146 9.41146 14.6875 9.34375C14.7656 9.27083 14.8047 9.16927 14.8047 9.03906C14.8047 8.91927 14.7656 8.82292 14.6875 8.75C14.6146 8.67188 14.5182 8.63281 14.3984 8.63281ZM17.9297 11.5078H16.8203V11.4766L17.9609 9.95312C18.0391 9.84375 18.0938 9.75781 18.125 9.69531C18.1562 9.6276 18.1719 9.5599 18.1719 9.49219C18.1719 9.3724 18.1328 9.28125 18.0547 9.21875C17.9766 9.15104 17.8776 9.11719 17.7578 9.11719H16C15.8854 9.11719 15.7917 9.15104 15.7188 9.21875C15.6458 9.28646 15.6094 9.38021 15.6094 9.5C15.6094 9.625 15.6458 9.72135 15.7188 9.78906C15.7917 9.85156 15.8854 9.88281 16 9.88281H16.9688V9.91406L15.8359 11.4375C15.763 11.5365 15.7083 11.6198 15.6719 11.6875C15.6406 11.7552 15.625 11.8255 15.625 11.8984C15.625 12.0078 15.6641 12.099 15.7422 12.1719C15.8203 12.2396 15.9193 12.2734 16.0391 12.2734H17.9297C18.0391 12.2734 18.1276 12.2396 18.1953 12.1719C18.2682 12.099 18.3047 12.0026 18.3047 11.8828C18.3047 11.7734 18.2682 11.6849 18.1953 11.6172C18.1276 11.5443 18.0391 11.5078 17.9297 11.5078Z" fill="white"/>
</svg>
