<svg width="156" height="112" viewBox="0 0 156 112" fill="none" xmlns="http://www.w3.org/2000/svg">
<path d="M13.6875 81.3125H31.5625C32.1458 81.3125 32.6458 81.5 33.0625 81.875L61.25 107.125C62.75 108.458 64.125 109.438 65.375 110.062C66.6667 110.729 68.0625 111.062 69.5625 111.062C71.6042 111.062 73.2917 110.396 74.625 109.062C75.9583 107.729 76.625 106.062 76.625 104.062V8.1875C76.625 6.14583 75.9375 4.41667 74.5625 3C73.2292 1.54167 71.5208 0.8125 69.4375 0.8125C67.9375 0.8125 66.6042 1.16667 65.4375 1.875C64.3125 2.58333 62.9167 3.66667 61.25 5.125L33.0625 30.125C32.6875 30.5 32.1875 30.6875 31.5625 30.6875H13.6875C9.4375 30.6875 6.25 31.7917 4.125 34C2 36.1667 0.9375 39.5208 0.9375 44.0625V68C0.9375 72.5 2 75.8542 4.125 78.0625C6.25 80.2292 9.4375 81.3125 13.6875 81.3125ZM14.125 72.1875C12.9583 72.1875 12.0833 71.9167 11.5 71.375C10.9583 70.8333 10.6875 69.9792 10.6875 68.8125V43.25C10.6875 42.0833 10.9583 41.2292 11.5 40.6875C12.0833 40.1042 12.9583 39.8125 14.125 39.8125H34.125C34.9167 39.8125 35.6458 39.7083 36.3125 39.5C36.9792 39.2917 37.6667 38.8542 38.375 38.1875L65 14C65.1667 13.8333 65.3333 13.7083 65.5 13.625C65.6667 13.5417 65.8542 13.5 66.0625 13.5C66.6042 13.5 66.875 13.7917 66.875 14.375V97.4375C66.875 98.0625 66.6042 98.375 66.0625 98.375C65.7292 98.375 65.3958 98.2083 65.0625 97.875L38.375 73.8125C37.6667 73.1875 36.9792 72.7708 36.3125 72.5625C35.6458 72.3125 34.9167 72.1875 34.125 72.1875H14.125ZM100.625 61.125H149.625C151.375 61.125 152.792 60.6875 153.875 59.8125C155 58.8958 155.562 57.6042 155.562 55.9375C155.562 54.2708 155.021 52.9792 153.938 52.0625C152.896 51.1042 151.458 50.625 149.625 50.625H100.625C98.7917 50.625 97.3333 51.1042 96.25 52.0625C95.1667 52.9792 94.625 54.2708 94.625 55.9375C94.625 57.6042 95.1875 58.8958 96.3125 59.8125C97.4375 60.6875 98.875 61.125 100.625 61.125Z" fill="white"/>
</svg>
