<svg xmlns="http://www.w3.org/2000/svg" width="24" height="24"><path style="stroke:none;fill-rule:nonzero;fill:#fff;fill-opacity:1" d="M12 23.063c1.633 0 3.168-.293 4.605-.883a12.29 12.29 0 0 0 3.82-2.438 11.482 11.482 0 0 0 2.59-3.586c.626-1.36.938-2.804.938-4.343 0-1.536-.312-2.981-.937-4.336a11.514 11.514 0 0 0-2.59-3.594 12.22 12.22 0 0 0-3.82-2.438 12.166 12.166 0 0 0-4.618-.883c-1.633 0-3.172.293-4.617.883a12.307 12.307 0 0 0-3.809 2.438A11.523 11.523 0 0 0 .985 7.477a10.187 10.187 0 0 0-.937 4.335c0 1.54.312 2.985.937 4.344a11.438 11.438 0 0 0 2.59 3.586 12.307 12.307 0 0 0 3.809 2.438c1.445.59 2.984.883 4.617.883Zm-.387-6.122a.936.936 0 0 1-.41-.09 2.084 2.084 0 0 1-.41-.273l-2.625-2.351a.227.227 0 0 0-.152-.055H6.234c-.406 0-.722-.106-.949-.32-.226-.22-.34-.536-.34-.946V10.73c0-.41.114-.722.34-.937.227-.219.543-.328.95-.328h1.78c.07 0 .122-.016.153-.047l2.625-2.328c.164-.137.3-.238.41-.297a.78.78 0 0 1 .387-.098c.21 0 .383.067.515.2.133.128.2.293.2.484v8.91c0 .184-.067.34-.2.465a.67.67 0 0 1-.492.187Zm2.742-2.57c-.335-.242-.386-.531-.152-.871.352-.46.527-1.027.527-1.688 0-.707-.171-1.269-.515-1.687a.632.632 0 0 1-.14-.473.644.644 0 0 1 .28-.41.528.528 0 0 1 .446-.086c.168.028.32.114.422.242.242.309.43.676.562 1.102.14.426.211.863.211 1.313 0 .464-.066.91-.2 1.335-.116.391-.312.758-.573 1.079a.719.719 0 0 1-.422.253.533.533 0 0 1-.446-.109Zm2.133 1.512a.495.495 0 0 1-.27-.375.702.702 0 0 1 .141-.485c.328-.414.582-.902.762-1.468.18-.567.27-1.145.27-1.742 0-1.258-.344-2.333-1.032-3.231a.61.61 0 0 1-.129-.465.53.53 0 0 1 .258-.387.618.618 0 0 1 .469-.097.602.602 0 0 1 .398.254 6.08 6.08 0 0 1 .961 1.84 6.75 6.75 0 0 1-.011 4.191 6.427 6.427 0 0 1-.95 1.82.667.667 0 0 1-.867.145Zm0 0"/></svg>