<svg width="16" height="17" viewBox="0 0 16 17" fill="none" xmlns="http://www.w3.org/2000/svg">
<path d="M8 16.3359C9.08854 16.3359 10.112 16.1276 11.0703 15.7109C12.0339 15.2943 12.8828 14.7188 13.6172 13.9844C14.3516 13.25 14.9271 12.4036 15.3438 11.4453C15.7604 10.4818 15.9688 9.45573 15.9688 8.36719C15.9688 7.27865 15.7604 6.25521 15.3438 5.29688C14.9271 4.33333 14.3516 3.48438 13.6172 2.75C12.8828 2.01562 12.0339 1.4401 11.0703 1.02344C10.1068 0.606771 9.08073 0.398438 7.99219 0.398438C6.90365 0.398438 5.8776 0.606771 4.91406 1.02344C3.95573 1.4401 3.10938 2.01562 2.375 2.75C1.64583 3.48438 1.07292 4.33333 0.65625 5.29688C0.239583 6.25521 0.03125 7.27865 0.03125 8.36719C0.03125 9.45573 0.239583 10.4818 0.65625 11.4453C1.07292 12.4036 1.64844 13.25 2.38281 13.9844C3.11719 14.7188 3.96354 15.2943 4.92188 15.7109C5.88542 16.1276 6.91146 16.3359 8 16.3359ZM7.74219 12C7.64323 12 7.55208 11.9792 7.46875 11.9375C7.38542 11.8958 7.29427 11.8307 7.19531 11.7422L5.44531 10.0781C5.41927 10.0521 5.38542 10.0391 5.34375 10.0391H4.15625C3.88542 10.0391 3.67448 9.96354 3.52344 9.8125C3.3724 9.65625 3.29688 9.43229 3.29688 9.14062V7.60156C3.29688 7.3099 3.3724 7.08854 3.52344 6.9375C3.67448 6.78125 3.88542 6.70312 4.15625 6.70312H5.34375C5.39062 6.70312 5.42448 6.69271 5.44531 6.67188L7.19531 5.02344C7.30469 4.92448 7.39583 4.85417 7.46875 4.8125C7.54688 4.76562 7.63281 4.74219 7.72656 4.74219C7.86719 4.74219 7.98177 4.78906 8.07031 4.88281C8.15885 4.97656 8.20312 5.09115 8.20312 5.22656V11.5391C8.20312 11.6693 8.15885 11.7786 8.07031 11.8672C7.98698 11.9557 7.8776 12 7.74219 12ZM9.57031 10.1797C9.34635 10.0078 9.3125 9.80208 9.46875 9.5625C9.70312 9.23438 9.82031 8.83594 9.82031 8.36719C9.82031 7.86719 9.70573 7.46875 9.47656 7.17188C9.39844 7.0625 9.36719 6.95052 9.38281 6.83594C9.40365 6.72135 9.46615 6.625 9.57031 6.54688C9.65885 6.47917 9.75781 6.45833 9.86719 6.48438C9.98177 6.50521 10.0755 6.5625 10.1484 6.65625C10.3099 6.875 10.4349 7.13542 10.5234 7.4375C10.6172 7.73958 10.6641 8.04948 10.6641 8.36719C10.6641 8.69531 10.6198 9.01042 10.5312 9.3125C10.4427 9.60938 10.3151 9.86458 10.1484 10.0781C10.0755 10.1719 9.98177 10.2318 9.86719 10.2578C9.75781 10.2786 9.65885 10.2526 9.57031 10.1797ZM10.9922 11.25C10.888 11.1875 10.8281 11.099 10.8125 10.9844C10.8021 10.8646 10.8333 10.75 10.9062 10.6406C11.125 10.349 11.2943 10.0026 11.4141 9.60156C11.5339 9.20052 11.5938 8.78906 11.5938 8.36719C11.5938 7.47656 11.3646 6.71354 10.9062 6.07812C10.8333 5.97396 10.8047 5.86458 10.8203 5.75C10.8359 5.63542 10.8932 5.54427 10.9922 5.47656C11.0911 5.40885 11.1953 5.38542 11.3047 5.40625C11.4141 5.42708 11.5026 5.48698 11.5703 5.58594C11.8516 5.97656 12.0651 6.41146 12.2109 6.89062C12.3568 7.36979 12.4297 7.86198 12.4297 8.36719C12.4297 8.88281 12.3542 9.38021 12.2031 9.85938C12.0521 10.3333 11.8411 10.763 11.5703 11.1484C11.5026 11.237 11.4141 11.2917 11.3047 11.3125C11.2005 11.3333 11.0964 11.3125 10.9922 11.25Z" fill="white"/>
</svg>
