<svg xmlns="http://www.w3.org/2000/svg" width="24" height="24"><path style="stroke:none;fill-rule:nonzero;fill:#fff;fill-opacity:1" d="M10.508 22.813c.312 0 .566-.137.762-.403.199-.265.3-.598.3-1V2.238c0-.41-.101-.754-.3-1.039-.2-.293-.461-.437-.778-.437a.943.943 0 0 0-.594.203 3.561 3.561 0 0 0-.617.66l-3.992 5a.295.295 0 0 1-.234.113H2.363c-.633 0-1.117.23-1.453.7-.34.457-.508 1.136-.508 2.035v4.652c0 .906.168 1.594.508 2.05.336.462.82.688 1.453.688h2.692c.093 0 .172.04.234.11l3.992 5.054c.211.274.414.473.61.598.191.125.402.188.617.188Zm4.847-9.989h7.352a.828.828 0 0 0 .637-.261c.168-.184.254-.442.254-.778 0-.332-.082-.586-.246-.773a.8.8 0 0 0-.645-.29h-7.352a.835.835 0 0 0-.656.29c-.16.187-.242.441-.242.773 0 .336.082.594.254.777a.85.85 0 0 0 .644.262Zm0 0"/></svg>