<svg width="151" height="112" viewBox="0 0 151 112" fill="none" xmlns="http://www.w3.org/2000/svg">
<path d="M67.4375 111.062C69.5208 111.062 71.2083 110.396 72.5 109.062C73.8333 107.729 74.5 106.062 74.5 104.062V8.1875C74.5 6.14583 73.8333 4.41667 72.5 3C71.1667 1.54167 69.4375 0.8125 67.3125 0.8125C65.8542 0.8125 64.5417 1.16667 63.375 1.875C62.25 2.54167 60.875 3.625 59.25 5.125L32.625 30.125C32.2083 30.5 31.6875 30.6875 31.0625 30.6875H13.125C8.91667 30.6875 5.6875 31.8542 3.4375 34.1875C1.1875 36.4792 0.0625 39.875 0.0625 44.375V67.625C0.0625 72.1667 1.1875 75.5833 3.4375 77.875C5.6875 80.1667 8.91667 81.3125 13.125 81.3125H31.0625C31.6875 81.3125 32.2083 81.5 32.625 81.875L59.25 107.125C60.6667 108.5 62.0208 109.5 63.3125 110.125C64.6042 110.75 65.9792 111.062 67.4375 111.062ZM147.438 41.0625H132.625V40.6875L147.875 20.625C148.542 19.75 149.021 19.0208 149.312 18.4375C149.604 17.8125 149.75 17.2083 149.75 16.625C149.75 15.5833 149.375 14.7708 148.625 14.1875C147.917 13.6042 147.042 13.3125 146 13.3125H125C123.958 13.3125 123.104 13.625 122.438 14.25C121.812 14.8333 121.5 15.6458 121.5 16.6875C121.5 17.7292 121.812 18.5625 122.438 19.1875C123.104 19.8125 123.958 20.125 125 20.125H139V20.375L123.562 40.4375C122.854 41.3125 122.375 42.0625 122.125 42.6875C121.875 43.2708 121.75 43.9167 121.75 44.625C121.75 45.5417 122.083 46.3125 122.75 46.9375C123.417 47.5625 124.312 47.875 125.438 47.875H147.438C148.479 47.875 149.312 47.5833 149.938 47C150.604 46.375 150.938 45.5208 150.938 44.4375C150.938 43.4375 150.604 42.625 149.938 42C149.312 41.375 148.479 41.0625 147.438 41.0625ZM110.688 66.0625H100.25V65.8125L111.062 51.6875C111.688 50.8542 112.146 50.1458 112.438 49.5625C112.729 48.9792 112.875 48.3958 112.875 47.8125C112.875 46.8542 112.521 46.1042 111.812 45.5625C111.146 45.0208 110.292 44.75 109.25 44.75H93.3125C92.3542 44.75 91.5625 45.0417 90.9375 45.625C90.3542 46.2083 90.0625 46.9583 90.0625 47.875C90.0625 48.9167 90.3542 49.7292 90.9375 50.3125C91.5625 50.8958 92.3542 51.1875 93.3125 51.1875H102.688V51.4375L91.9375 65.5C91.3542 66.2917 90.9167 67 90.625 67.625C90.375 68.2083 90.25 68.8125 90.25 69.4375C90.25 70.3125 90.5625 71.0625 91.1875 71.6875C91.8125 72.2708 92.625 72.5625 93.625 72.5625H110.688C111.646 72.5625 112.417 72.2917 113 71.75C113.625 71.1667 113.938 70.3542 113.938 69.3125C113.938 68.3542 113.625 67.5833 113 67C112.417 66.375 111.646 66.0625 110.688 66.0625ZM138.938 89.0625H130.062V88.8125L139.188 76.625C139.812 75.75 140.25 75.0625 140.5 74.5625C140.75 74.0208 140.875 73.4792 140.875 72.9375C140.875 71.9792 140.562 71.25 139.938 70.75C139.312 70.2083 138.521 69.9375 137.562 69.9375H123.5C122.583 69.9375 121.833 70.2083 121.25 70.75C120.667 71.2917 120.375 72.0417 120.375 73C120.375 74 120.667 74.7708 121.25 75.3125C121.833 75.8125 122.583 76.0625 123.5 76.0625H131.25V76.3125L122.188 88.5C121.604 89.2917 121.167 89.9583 120.875 90.5C120.625 91.0417 120.5 91.6042 120.5 92.1875C120.5 93.0625 120.812 93.7917 121.438 94.375C122.062 94.9167 122.854 95.1875 123.812 95.1875H138.938C139.812 95.1875 140.521 94.9167 141.062 94.375C141.646 93.7917 141.938 93.0208 141.938 92.0625C141.938 91.1875 141.646 90.4792 141.062 89.9375C140.521 89.3542 139.812 89.0625 138.938 89.0625Z" fill="white"/>
</svg>
