<svg xmlns="http://www.w3.org/2000/svg" width="24" height="24"><path style="stroke:none;fill-rule:nonzero;fill:#fff;fill-opacity:1" d="M9.75 22.887c.285 0 .516-.125.691-.38.18-.245.282-.581.274-.933V3.598c0-.38-.094-.707-.274-.973-.18-.273-.437-.422-.707-.41-.199 0-.379.062-.539.187a3.313 3.313 0 0 0-.562.621l-3.63 4.688a.267.267 0 0 1-.214.105H2.344c-.574 0-1.016.22-1.32.653-.31.43-.462 1.07-.462 1.914v4.36c0 .85.153 1.495.461 1.921.305.434.747.648 1.32.648H4.79c.086 0 .156.032.215.102l3.629 4.734c.195.258.379.45.555.559.175.121.363.18.562.18Zm3.996-5.356a.54.54 0 0 0 .488.14c.18-.05.336-.198.434-.41.328-.597.586-1.304.766-2.132.187-.828.28-1.691.28-2.586 0-.902-.093-1.762-.28-2.598a7.838 7.838 0 0 0-.766-2.129c-.098-.21-.254-.359-.434-.41a.483.483 0 0 0-.488.14c-.16.15-.27.38-.297.645-.023.258.035.508.172.75.25.47.438 1.016.57 1.641.137.625.204 1.277.204 1.961 0 .676-.067 1.332-.204 1.953a6.76 6.76 0 0 1-.57 1.637 1.358 1.358 0 0 0-.164.765.987.987 0 0 0 .29.633Zm3.172 3.055c.16.144.328.195.504.156.18-.05.336-.199.433-.41.547-1.031.97-2.227 1.27-3.586.309-1.36.465-2.777.46-4.203a19.56 19.56 0 0 0-.452-4.223c-.301-1.363-.727-2.558-1.278-3.574-.097-.21-.253-.36-.433-.41-.176-.047-.36.012-.504.156a.922.922 0 0 0-.273.594 1.29 1.29 0 0 0 .152.726c.469.907.828 1.946 1.082 3.102.258 1.176.39 2.399.387 3.629 0 1.242-.133 2.453-.395 3.617a13.252 13.252 0 0 1-1.074 3.106c-.113.21-.164.472-.145.734.024.242.118.453.266.586Zm3.195 3.11c.149.148.313.195.496.14.184-.055.344-.215.442-.434.5-.996.926-2.062 1.277-3.21.36-1.157.633-2.376.82-3.657.192-1.281.29-2.613.29-3.992a26.664 26.664 0 0 0-.29-3.996 24.871 24.871 0 0 0-.828-3.649 22.294 22.294 0 0 0-1.27-3.222c-.097-.223-.257-.383-.44-.438a.48.48 0 0 0-.497.14.905.905 0 0 0-.273.602c-.024.25.027.497.144.739.91 1.883 1.551 3.984 1.887 6.199.176 1.156.262 2.36.262 3.625 0 1.242-.086 2.453-.262 3.617a23.748 23.748 0 0 1-.75 3.305 19.93 19.93 0 0 1-1.137 2.894 1.33 1.33 0 0 0-.144.727c.02.25.12.473.273.61Zm0 0"/></svg>