<?xml version="1.0" encoding="UTF-8"?>
<svg xmlns="http://www.w3.org/2000/svg" xmlns:xlink="http://www.w3.org/1999/xlink" width="24" height="19.2" viewBox="0 0 24 19.2" version="1.1">
<g id="surface1">
<path style=" stroke:none;fill-rule:nonzero;fill:rgb(100%,100%,100%);fill-opacity:1;" d="M 11.054688 2.035156 L 6.226562 1.507812 C 5.800781 1.460938 5.449219 1.554688 5.175781 1.800781 C 4.90625 2.039062 4.773438 2.355469 4.773438 2.757812 C 4.773438 3.164062 4.90625 3.488281 5.175781 3.730469 C 5.449219 3.96875 5.800781 4.066406 6.226562 4.023438 L 11.054688 3.488281 Z M 11.90625 4.5 C 12.230469 4.5 12.523438 4.421875 12.789062 4.265625 C 13.050781 4.109375 13.257812 3.898438 13.414062 3.636719 C 13.570312 3.375 13.648438 3.082031 13.648438 2.757812 C 13.648438 2.4375 13.570312 2.148438 13.414062 1.882812 C 13.257812 1.621094 13.050781 1.414062 12.789062 1.257812 C 12.523438 1.101562 12.230469 1.023438 11.90625 1.023438 C 11.585938 1.023438 11.296875 1.101562 11.035156 1.257812 C 10.773438 1.414062 10.5625 1.621094 10.40625 1.882812 C 10.25 2.148438 10.171875 2.4375 10.171875 2.757812 C 10.171875 3.082031 10.25 3.375 10.40625 3.636719 C 10.5625 3.898438 10.773438 4.109375 11.035156 4.265625 C 11.296875 4.421875 11.585938 4.5 11.90625 4.5 Z M 12.757812 2.035156 L 12.757812 3.488281 L 17.597656 4.023438 C 18.015625 4.066406 18.359375 3.96875 18.628906 3.730469 C 18.902344 3.488281 19.039062 3.164062 19.039062 2.757812 C 19.039062 2.355469 18.902344 2.039062 18.628906 1.800781 C 18.359375 1.554688 18.015625 1.460938 17.597656 1.507812 Z M 11.082031 3.824219 L 11.082031 6.046875 L 12.742188 6.046875 L 12.742188 3.824219 Z M 9.289062 7.847656 L 14.503906 7.847656 L 14.503906 6.617188 C 14.503906 6.25 14.394531 5.960938 14.175781 5.746094 C 13.960938 5.527344 13.671875 5.417969 13.304688 5.417969 L 10.480469 5.417969 C 10.113281 5.417969 9.820312 5.527344 9.609375 5.746094 C 9.398438 5.960938 9.289062 6.25 9.289062 6.617188 Z M 11.898438 17.195312 C 12.414062 17.195312 12.878906 17.125 13.285156 16.988281 C 13.691406 16.855469 14.066406 16.671875 14.410156 16.433594 C 14.757812 16.191406 15.109375 15.910156 15.460938 15.589844 C 15.671875 15.378906 15.90625 15.21875 16.164062 15.113281 C 16.425781 15.007812 16.679688 14.953125 16.921875 14.953125 C 17.382812 14.953125 17.777344 15.117188 18.101562 15.449219 C 18.429688 15.78125 18.589844 16.257812 18.589844 16.875 L 18.589844 18.179688 C 18.589844 18.378906 18.632812 18.523438 18.722656 18.609375 C 18.816406 18.703125 18.960938 18.75 19.164062 18.75 L 22.59375 18.75 C 22.792969 18.75 22.941406 18.703125 23.035156 18.609375 C 23.128906 18.523438 23.175781 18.378906 23.175781 18.179688 L 23.175781 17.304688 C 23.175781 15.96875 22.996094 14.847656 22.640625 13.941406 C 22.289062 13.027344 21.816406 12.296875 21.214844 11.746094 C 20.621094 11.191406 19.960938 10.789062 19.226562 10.546875 C 18.496094 10.304688 17.75 10.179688 16.988281 10.179688 L 16.585938 10.179688 C 16.453125 10.179688 16.34375 10.148438 16.257812 10.085938 C 16.167969 10.019531 16.105469 9.929688 16.070312 9.824219 L 15.496094 8.277344 C 15.410156 8.039062 15.316406 7.882812 15.214844 7.808594 C 15.117188 7.726562 14.960938 7.6875 14.757812 7.6875 L 9.027344 7.6875 C 8.820312 7.6875 8.667969 7.726562 8.570312 7.808594 C 8.46875 7.882812 8.375 8.039062 8.289062 8.277344 L 7.726562 9.824219 C 7.679688 9.929688 7.617188 10.019531 7.527344 10.085938 C 7.441406 10.148438 7.335938 10.179688 7.210938 10.179688 L 1.695312 10.179688 L 1.695312 14.898438 L 6.890625 14.898438 C 7.179688 14.898438 7.414062 14.929688 7.59375 15 C 7.773438 15.0625 7.96875 15.210938 8.175781 15.449219 C 8.480469 15.78125 8.820312 16.078125 9.195312 16.339844 C 9.570312 16.601562 9.984375 16.808594 10.433594 16.960938 C 10.882812 17.117188 11.371094 17.195312 11.898438 17.195312 Z M 1.574219 17.257812 C 1.789062 17.257812 1.964844 17.183594 2.109375 17.035156 C 2.257812 16.882812 2.335938 16.707031 2.335938 16.5 L 2.335938 8.839844 C 2.335938 8.632812 2.257812 8.457031 2.109375 8.304688 C 1.964844 8.15625 1.789062 8.082031 1.574219 8.082031 C 1.367188 8.082031 1.191406 8.15625 1.039062 8.304688 C 0.898438 8.457031 0.824219 8.632812 0.824219 8.839844 L 0.824219 16.5 C 0.824219 16.707031 0.898438 16.882812 1.039062 17.035156 C 1.191406 17.183594 1.367188 17.257812 1.574219 17.257812 Z M 1.574219 17.257812 "/>
</g>
</svg>
