<?xml version="1.0" encoding="UTF-8"?>
<svg xmlns="http://www.w3.org/2000/svg" xmlns:xlink="http://www.w3.org/1999/xlink" width="24" height="18.666667" viewBox="0 0 24 18.666667" version="1.1">
<g id="surface1">
<path style=" stroke:none;fill-rule:nonzero;fill:rgb(100%,100%,100%);fill-opacity:1;" d="M 9.59375 5.730469 L 14.394531 5.730469 C 14.785156 5.730469 15.097656 5.609375 15.332031 5.363281 C 15.578125 5.121094 15.699219 4.804688 15.699219 4.417969 L 15.699219 3.53125 C 15.699219 2.878906 15.484375 2.347656 15.050781 1.9375 C 14.628906 1.527344 14.074219 1.324219 13.386719 1.324219 L 10.605469 1.324219 C 9.917969 1.324219 9.359375 1.527344 8.925781 1.9375 C 8.503906 2.347656 8.292969 2.878906 8.292969 3.53125 L 8.292969 4.417969 C 8.292969 4.804688 8.414062 5.121094 8.65625 5.363281 C 8.898438 5.609375 9.210938 5.730469 9.59375 5.730469 Z M 9.949219 4.25 C 9.824219 4.25 9.761719 4.191406 9.761719 4.074219 L 9.761719 3.53125 C 9.761719 3.289062 9.832031 3.105469 9.980469 2.980469 C 10.125 2.855469 10.332031 2.792969 10.605469 2.792969 L 13.386719 2.792969 C 13.65625 2.792969 13.863281 2.855469 14.011719 2.980469 C 14.15625 3.105469 14.230469 3.289062 14.230469 3.53125 L 14.230469 4.074219 C 14.230469 4.191406 14.171875 4.25 14.050781 4.25 Z M 9.605469 11.792969 L 14.394531 11.792969 C 14.785156 11.792969 15.097656 11.671875 15.332031 11.425781 C 15.578125 11.183594 15.699219 10.867188 15.699219 10.480469 L 15.699219 8.59375 C 15.699219 8.210938 15.578125 7.898438 15.332031 7.65625 C 15.097656 7.414062 14.785156 7.292969 14.394531 7.292969 L 9.605469 7.292969 C 9.214844 7.292969 8.898438 7.414062 8.65625 7.65625 C 8.414062 7.898438 8.292969 8.210938 8.292969 8.59375 L 8.292969 10.480469 C 8.292969 10.867188 8.414062 11.183594 8.65625 11.425781 C 8.898438 11.671875 9.214844 11.792969 9.605469 11.792969 Z M 9.949219 10.324219 C 9.824219 10.324219 9.761719 10.261719 9.761719 10.136719 L 9.761719 8.9375 C 9.761719 8.820312 9.824219 8.761719 9.949219 8.761719 L 14.050781 8.761719 C 14.171875 8.761719 14.230469 8.820312 14.230469 8.9375 L 14.230469 10.136719 C 14.230469 10.261719 14.171875 10.324219 14.050781 10.324219 Z M 9.957031 8.136719 L 11.425781 8.136719 L 11.425781 5.113281 L 9.957031 5.113281 Z M 12.574219 8.136719 L 14.042969 8.136719 L 14.042969 5.113281 L 12.574219 5.113281 Z M 9.957031 17.324219 L 11.425781 17.324219 L 11.425781 11.375 L 9.957031 11.375 Z M 12.574219 17.324219 L 14.042969 17.324219 L 14.042969 11.375 L 12.574219 11.375 Z M 1.875 18.324219 L 22.113281 18.324219 C 22.34375 18.324219 22.542969 18.238281 22.707031 18.074219 C 22.875 17.914062 22.957031 17.714844 22.957031 17.480469 C 22.957031 17.25 22.875 17.054688 22.707031 16.894531 C 22.542969 16.730469 22.34375 16.644531 22.113281 16.644531 L 1.875 16.644531 C 1.644531 16.644531 1.449219 16.730469 1.28125 16.894531 C 1.121094 17.054688 1.042969 17.25 1.042969 17.480469 C 1.042969 17.714844 1.121094 17.914062 1.28125 18.074219 C 1.449219 18.238281 1.644531 18.324219 1.875 18.324219 Z M 1.875 18.324219 "/>
</g>
</svg>
