<svg width="16" height="15" viewBox="0 0 16 15" fill="none" xmlns="http://www.w3.org/2000/svg">
<path d="M1.64844 6.74219V8H14.3672V6.74219H1.64844ZM0.804688 2.63281V12.1094C0.804688 12.9271 1.00521 13.5391 1.40625 13.9453C1.8125 14.3568 2.41927 14.5625 3.22656 14.5625H12.7656C13.5729 14.5625 14.1771 14.3568 14.5781 13.9453C14.9844 13.5391 15.1875 12.9271 15.1875 12.1094V2.63281C15.1875 1.8151 14.9844 1.20312 14.5781 0.796875C14.1771 0.385417 13.5729 0.179688 12.7656 0.179688H3.22656C2.41927 0.179688 1.8125 0.385417 1.40625 0.796875C1.00521 1.20312 0.804688 1.8151 0.804688 2.63281ZM2.0625 2.64844C2.0625 2.25781 2.16406 1.95833 2.36719 1.75C2.57552 1.54167 2.88281 1.4375 3.28906 1.4375H12.7031C13.1094 1.4375 13.4141 1.54167 13.6172 1.75C13.8255 1.95833 13.9297 2.25781 13.9297 2.64844V12.0938C13.9297 12.4792 13.8255 12.7786 13.6172 12.9922C13.4141 13.2005 13.1094 13.3047 12.7031 13.3047H3.28906C2.88281 13.3047 2.57552 13.2005 2.36719 12.9922C2.16406 12.7786 2.0625 12.4792 2.0625 12.0938V2.64844Z" fill="white"/>
</svg>
