<svg width="16" height="15" viewBox="0 0 16 15" fill="none" xmlns="http://www.w3.org/2000/svg">
<path d="M3.25781 14.5625H12.7344C13.5521 14.5625 14.1641 14.3594 14.5703 13.9531C14.9818 13.5521 15.1875 12.9479 15.1875 12.1406V2.60156C15.1875 1.79427 14.9818 1.1901 14.5703 0.789062C14.1641 0.382812 13.5521 0.179688 12.7344 0.179688H3.25781C2.4401 0.179688 1.82552 0.382812 1.41406 0.789062C1.00781 1.1901 0.804688 1.79427 0.804688 2.60156V12.1406C0.804688 12.9479 1.00781 13.5521 1.41406 13.9531C1.82552 14.3594 2.4401 14.5625 3.25781 14.5625ZM3.69531 9.5C3.55469 9.5 3.4375 9.45312 3.34375 9.35938C3.25 9.26562 3.20312 9.15104 3.20312 9.01562C3.20312 8.88021 3.25 8.76823 3.34375 8.67969C3.4375 8.58594 3.55469 8.53906 3.69531 8.53906H11.5469C11.6823 8.53906 11.7943 8.58594 11.8828 8.67969C11.9766 8.76823 12.0234 8.88021 12.0234 9.01562C12.0234 9.15104 11.9766 9.26562 11.8828 9.35938C11.7943 9.45312 11.6823 9.5 11.5469 9.5H3.69531ZM3.69531 12.1719C3.55469 12.1719 3.4375 12.1276 3.34375 12.0391C3.25 11.9453 3.20312 11.8307 3.20312 11.6953C3.20312 11.5599 3.25 11.4453 3.34375 11.3516C3.4375 11.2578 3.55469 11.2109 3.69531 11.2109H9.48438C9.625 11.2109 9.73958 11.2578 9.82812 11.3516C9.92188 11.4453 9.96875 11.5599 9.96875 11.6953C9.96875 11.8307 9.92188 11.9453 9.82812 12.0391C9.73958 12.1276 9.625 12.1719 9.48438 12.1719H3.69531ZM3.28125 3.10156C3.28125 2.85677 3.35156 2.66406 3.49219 2.52344C3.63802 2.3776 3.83594 2.30469 4.08594 2.30469H6.03906C6.28906 2.30469 6.48438 2.3776 6.625 2.52344C6.77083 2.66406 6.84375 2.85677 6.84375 3.10156V5.07031C6.84375 5.3151 6.77083 5.51042 6.625 5.65625C6.48438 5.79688 6.28906 5.86719 6.03906 5.86719H4.08594C3.83594 5.86719 3.63802 5.79688 3.49219 5.65625C3.35156 5.51042 3.28125 5.3151 3.28125 5.07031V3.10156Z" fill="white"/>
</svg>
