<svg width="16" height="17" viewBox="0 0 16 17" fill="none" xmlns="http://www.w3.org/2000/svg">
<path d="M10.7578 8.14062L8.00781 9.66406L5.22656 8.14844L0.890625 10.6562C0.578125 10.8438 0.354167 11.0182 0.21875 11.1797C0.0833333 11.3411 0.015625 11.5286 0.015625 11.7422C0.015625 11.9557 0.0833333 12.1432 0.21875 12.3047C0.354167 12.4661 0.578125 12.638 0.890625 12.8203L7.00781 16.375C7.19531 16.4844 7.36719 16.5651 7.52344 16.6172C7.67969 16.6693 7.83854 16.6953 8 16.6953C8.15625 16.6953 8.3125 16.6693 8.46875 16.6172C8.63021 16.5651 8.80469 16.4844 8.99219 16.375L15.1016 12.8203C15.4193 12.638 15.6458 12.4661 15.7812 12.3047C15.9167 12.1432 15.9844 11.9557 15.9844 11.7422C15.9844 11.5286 15.9167 11.3411 15.7812 11.1797C15.6458 11.0182 15.4193 10.8438 15.1016 10.6562L10.7578 8.14062ZM8 10.2891C8.15625 10.2891 8.3125 10.263 8.46875 10.2109C8.63021 10.1589 8.80469 10.0781 8.99219 9.96875L15.1016 6.42188C15.4193 6.23438 15.6458 6.0599 15.7812 5.89844C15.9167 5.73698 15.9844 5.54948 15.9844 5.33594C15.9844 5.1224 15.9167 4.9349 15.7812 4.77344C15.6458 4.61198 15.4193 4.4401 15.1016 4.25781L8.99219 0.703125C8.80469 0.59375 8.63021 0.513021 8.46875 0.460938C8.3125 0.408854 8.15625 0.382812 8 0.382812C7.83854 0.382812 7.67969 0.408854 7.52344 0.460938C7.36719 0.513021 7.19531 0.59375 7.00781 0.703125L0.890625 4.25781C0.578125 4.4401 0.354167 4.61198 0.21875 4.77344C0.0833333 4.9349 0.015625 5.1224 0.015625 5.33594C0.015625 5.54948 0.0833333 5.73698 0.21875 5.89844C0.354167 6.0599 0.578125 6.23438 0.890625 6.42188L7.00781 9.96875C7.19531 10.0781 7.36719 10.1589 7.52344 10.2109C7.67969 10.263 7.83854 10.2891 8 10.2891ZM8 8.92188C7.89583 8.92188 7.77865 8.88542 7.64844 8.8125L1.70312 5.41406C1.66667 5.39323 1.64844 5.36719 1.64844 5.33594C1.64844 5.30469 1.66667 5.27865 1.70312 5.25781L7.64844 1.85938C7.77865 1.78646 7.89583 1.75 8 1.75C8.09896 1.75 8.21354 1.78646 8.34375 1.85938L14.2891 5.25781C14.3307 5.27865 14.3516 5.30469 14.3516 5.33594C14.3516 5.36719 14.3307 5.39323 14.2891 5.41406L8.34375 8.8125C8.21354 8.88542 8.09896 8.92188 8 8.92188Z" fill="white"/>
</svg>
