<svg width="24" height="15" viewBox="0 0 24 15" fill="none" xmlns="http://www.w3.org/2000/svg">
<path d="M2.375 6.72656H5.9375C6.43229 6.72656 6.80469 6.60156 7.05469 6.35156C7.30469 6.09635 7.42969 5.71094 7.42969 5.19531V1.70312C7.42969 1.1875 7.30469 0.804688 7.05469 0.554688C6.80469 0.304688 6.43229 0.179688 5.9375 0.179688H2.375C1.88021 0.179688 1.50781 0.304688 1.25781 0.554688C1.00781 0.804688 0.882812 1.1875 0.882812 1.70312V5.19531C0.882812 5.71094 1.00781 6.09635 1.25781 6.35156C1.50781 6.60156 1.88021 6.72656 2.375 6.72656ZM2.39062 5.625C2.25521 5.625 2.15365 5.58854 2.08594 5.51562C2.01823 5.44271 1.98438 5.33594 1.98438 5.19531V1.70312C1.98438 1.5625 2.01823 1.45833 2.08594 1.39062C2.15365 1.31771 2.25521 1.28125 2.39062 1.28125H5.91406C6.04948 1.28125 6.15104 1.31771 6.21875 1.39062C6.29167 1.45833 6.32812 1.5625 6.32812 1.70312V5.19531C6.32812 5.33594 6.29167 5.44271 6.21875 5.51562C6.15104 5.58854 6.04948 5.625 5.91406 5.625H2.39062ZM10.2188 6.72656H13.7734C14.2682 6.72656 14.6406 6.60156 14.8906 6.35156C15.1406 6.09635 15.2656 5.71094 15.2656 5.19531V1.70312C15.2656 1.1875 15.1406 0.804688 14.8906 0.554688C14.6406 0.304688 14.2682 0.179688 13.7734 0.179688H10.2188C9.71875 0.179688 9.34375 0.304688 9.09375 0.554688C8.84375 0.804688 8.71875 1.1875 8.71875 1.70312V5.19531C8.71875 5.71094 8.84375 6.09635 9.09375 6.35156C9.34375 6.60156 9.71875 6.72656 10.2188 6.72656ZM10.2344 5.625C10.0938 5.625 9.98958 5.58854 9.92188 5.51562C9.85417 5.44271 9.82031 5.33594 9.82031 5.19531V1.70312C9.82031 1.5625 9.85417 1.45833 9.92188 1.39062C9.98958 1.31771 10.0938 1.28125 10.2344 1.28125H13.7578C13.8984 1.28125 14 1.31771 14.0625 1.39062C14.1302 1.45833 14.1641 1.5625 14.1641 1.70312V5.19531C14.1641 5.33594 14.1302 5.44271 14.0625 5.51562C14 5.58854 13.8984 5.625 13.7578 5.625H10.2344ZM18.0547 6.72656H21.6172C22.112 6.72656 22.4844 6.60156 22.7344 6.35156C22.9844 6.09635 23.1094 5.71094 23.1094 5.19531V1.70312C23.1094 1.1875 22.9844 0.804688 22.7344 0.554688C22.4844 0.304688 22.112 0.179688 21.6172 0.179688H18.0547C17.5599 0.179688 17.1875 0.304688 16.9375 0.554688C16.6875 0.804688 16.5625 1.1875 16.5625 1.70312V5.19531C16.5625 5.71094 16.6875 6.09635 16.9375 6.35156C17.1875 6.60156 17.5599 6.72656 18.0547 6.72656ZM18.0703 5.625C17.9349 5.625 17.8333 5.58854 17.7656 5.51562C17.6979 5.44271 17.6641 5.33594 17.6641 5.19531V1.70312C17.6641 1.5625 17.6979 1.45833 17.7656 1.39062C17.8333 1.31771 17.9349 1.28125 18.0703 1.28125H21.5938C21.7344 1.28125 21.8385 1.31771 21.9062 1.39062C21.974 1.45833 22.0078 1.5625 22.0078 1.70312V5.19531C22.0078 5.33594 21.974 5.44271 21.9062 5.51562C21.8385 5.58854 21.7344 5.625 21.5938 5.625H18.0703ZM2.375 14.5625H5.9375C6.43229 14.5625 6.80469 14.4375 7.05469 14.1875C7.30469 13.9375 7.42969 13.5547 7.42969 13.0391V9.53906C7.42969 9.02865 7.30469 8.64844 7.05469 8.39844C6.80469 8.14323 6.43229 8.01562 5.9375 8.01562H2.375C1.88021 8.01562 1.50781 8.14323 1.25781 8.39844C1.00781 8.64844 0.882812 9.02865 0.882812 9.53906V13.0391C0.882812 13.5547 1.00781 13.9375 1.25781 14.1875C1.50781 14.4375 1.88021 14.5625 2.375 14.5625ZM2.39062 13.4609C2.25521 13.4609 2.15365 13.4245 2.08594 13.3516C2.01823 13.2839 1.98438 13.1797 1.98438 13.0391V9.54688C1.98438 9.40104 2.01823 9.29427 2.08594 9.22656C2.15365 9.15365 2.25521 9.11719 2.39062 9.11719H5.91406C6.04948 9.11719 6.15104 9.15365 6.21875 9.22656C6.29167 9.29427 6.32812 9.40104 6.32812 9.54688V13.0391C6.32812 13.1797 6.29167 13.2839 6.21875 13.3516C6.15104 13.4245 6.04948 13.4609 5.91406 13.4609H2.39062ZM10.2188 14.5625H13.7734C14.2682 14.5625 14.6406 14.4375 14.8906 14.1875C15.1406 13.9375 15.2656 13.5547 15.2656 13.0391V9.53906C15.2656 9.02865 15.1406 8.64844 14.8906 8.39844C14.6406 8.14323 14.2682 8.01562 13.7734 8.01562H10.2188C9.71875 8.01562 9.34375 8.14323 9.09375 8.39844C8.84375 8.64844 8.71875 9.02865 8.71875 9.53906V13.0391C8.71875 13.5547 8.84375 13.9375 9.09375 14.1875C9.34375 14.4375 9.71875 14.5625 10.2188 14.5625ZM10.2344 13.4609C10.0938 13.4609 9.98958 13.4245 9.92188 13.3516C9.85417 13.2839 9.82031 13.1797 9.82031 13.0391V9.54688C9.82031 9.40104 9.85417 9.29427 9.92188 9.22656C9.98958 9.15365 10.0938 9.11719 10.2344 9.11719H13.7578C13.8984 9.11719 14 9.15365 14.0625 9.22656C14.1302 9.29427 14.1641 9.40104 14.1641 9.54688V13.0391C14.1641 13.1797 14.1302 13.2839 14.0625 13.3516C14 13.4245 13.8984 13.4609 13.7578 13.4609H10.2344ZM18.0547 14.5625H21.6172C22.112 14.5625 22.4844 14.4375 22.7344 14.1875C22.9844 13.9375 23.1094 13.5547 23.1094 13.0391V9.53906C23.1094 9.02865 22.9844 8.64844 22.7344 8.39844C22.4844 8.14323 22.112 8.01562 21.6172 8.01562H18.0547C17.5599 8.01562 17.1875 8.14323 16.9375 8.39844C16.6875 8.64844 16.5625 9.02865 16.5625 9.53906V13.0391C16.5625 13.5547 16.6875 13.9375 16.9375 14.1875C17.1875 14.4375 17.5599 14.5625 18.0547 14.5625ZM18.0703 13.4609C17.9349 13.4609 17.8333 13.4245 17.7656 13.3516C17.6979 13.2839 17.6641 13.1797 17.6641 13.0391V9.54688C17.6641 9.40104 17.6979 9.29427 17.7656 9.22656C17.8333 9.15365 17.9349 9.11719 18.0703 9.11719H21.5938C21.7344 9.11719 21.8385 9.15365 21.9062 9.22656C21.974 9.29427 22.0078 9.40104 22.0078 9.54688V13.0391C22.0078 13.1797 21.974 13.2839 21.9062 13.3516C21.8385 13.4245 21.7344 13.4609 21.5938 13.4609H18.0703Z" fill="white"/>
</svg>
