<svg width="16" height="16" viewBox="0 0 16 16" fill="none" xmlns="http://www.w3.org/2000/svg">
<path d="M2.53125 15.5391H11.7031C12.4062 15.5391 12.9505 15.3359 13.3359 14.9297C13.7266 14.5286 13.9219 13.9245 13.9219 13.1172V4.76562L12.6641 6.02344V13.0547C12.6641 13.4609 12.5677 13.7682 12.375 13.9766C12.1823 14.1797 11.9531 14.2812 11.6875 14.2812H2.55469C2.16406 14.2812 1.86198 14.1797 1.64844 13.9766C1.4401 13.7682 1.33594 13.4609 1.33594 13.0547V4.1875C1.33594 3.78125 1.4401 3.47396 1.64844 3.26562C1.86198 3.05729 2.16406 2.95312 2.55469 2.95312H9.67188L10.9297 1.69531H2.53125C1.71875 1.69531 1.10677 1.89844 0.695312 2.30469C0.283854 2.70573 0.078125 3.3099 0.078125 4.11719V13.1172C0.078125 13.9245 0.283854 14.5286 0.695312 14.9297C1.10677 15.3359 1.71875 15.5391 2.53125 15.5391ZM5.375 10.4766L6.89844 9.8125L14.1953 2.52344L13.125 1.46875L5.83594 8.75781L5.13281 10.2266C5.10156 10.2943 5.11458 10.362 5.17188 10.4297C5.23438 10.4922 5.30208 10.5078 5.375 10.4766ZM14.7734 1.95312L15.3359 1.375C15.4661 1.23438 15.5312 1.08073 15.5312 0.914062C15.5365 0.742188 15.4714 0.591146 15.3359 0.460938L15.1562 0.273438C15.0365 0.153646 14.8906 0.0989583 14.7188 0.109375C14.5521 0.119792 14.4036 0.1875 14.2734 0.3125L13.7031 0.875L14.7734 1.95312Z" fill="white"/>
</svg>
