<svg width="16" height="15" viewBox="0 0 16 15" fill="none" xmlns="http://www.w3.org/2000/svg">
<path d="M1.48438 14.5469C1.66667 14.5469 1.82292 14.4818 1.95312 14.3516C2.08333 14.2214 2.14844 14.0651 2.14844 13.8828C2.14844 13.6953 2.08333 13.5365 1.95312 13.4062C1.82292 13.2812 1.66667 13.2188 1.48438 13.2188C1.30208 13.2188 1.14583 13.2812 1.01562 13.4062C0.885417 13.5365 0.820312 13.6953 0.820312 13.8828C0.820312 14.0651 0.885417 14.2214 1.01562 14.3516C1.14583 14.4818 1.30208 14.5469 1.48438 14.5469ZM1.48438 12.3594C1.66667 12.3594 1.82292 12.2943 1.95312 12.1641C2.08333 12.0339 2.14844 11.8776 2.14844 11.6953C2.14844 11.513 2.08333 11.3568 1.95312 11.2266C1.82292 11.0964 1.66667 11.0312 1.48438 11.0312C1.30208 11.0312 1.14583 11.0964 1.01562 11.2266C0.885417 11.3568 0.820312 11.513 0.820312 11.6953C0.820312 11.8776 0.885417 12.0339 1.01562 12.1641C1.14583 12.2943 1.30208 12.3594 1.48438 12.3594ZM1.48438 10.1953C1.66667 10.1953 1.82292 10.1302 1.95312 10C2.08333 9.86979 2.14844 9.71354 2.14844 9.53125C2.14844 9.34896 2.08333 9.19271 1.95312 9.0625C1.82292 8.93229 1.66667 8.86719 1.48438 8.86719C1.30208 8.86719 1.14583 8.93229 1.01562 9.0625C0.885417 9.19271 0.820312 9.34896 0.820312 9.53125C0.820312 9.71354 0.885417 9.86979 1.01562 10C1.14583 10.1302 1.30208 10.1953 1.48438 10.1953ZM1.48438 8.02344C1.66667 8.02344 1.82292 7.95833 1.95312 7.82812C2.08333 7.69792 2.14844 7.54167 2.14844 7.35938C2.14844 7.17708 2.08333 7.02083 1.95312 6.89062C1.82292 6.76042 1.66667 6.69531 1.48438 6.69531C1.30208 6.69531 1.14583 6.76042 1.01562 6.89062C0.885417 7.02083 0.820312 7.17708 0.820312 7.35938C0.820312 7.54167 0.885417 7.69792 1.01562 7.82812C1.14583 7.95833 1.30208 8.02344 1.48438 8.02344ZM1.48438 5.84375C1.66667 5.84375 1.82292 5.78125 1.95312 5.65625C2.08333 5.52604 2.14844 5.36979 2.14844 5.1875C2.14844 5 2.08333 4.84375 1.95312 4.71875C1.82292 4.58854 1.66667 4.52344 1.48438 4.52344C1.30208 4.52344 1.14583 4.58854 1.01562 4.71875C0.885417 4.84375 0.820312 5 0.820312 5.1875C0.820312 5.36979 0.885417 5.52604 1.01562 5.65625C1.14583 5.78125 1.30208 5.84375 1.48438 5.84375ZM1.48438 3.69531C1.66667 3.69531 1.82292 3.63021 1.95312 3.5C2.08333 3.36979 2.14844 3.21354 2.14844 3.03125C2.14844 2.84896 2.08333 2.69271 1.95312 2.5625C1.82292 2.43229 1.66667 2.36719 1.48438 2.36719C1.30208 2.36719 1.14583 2.43229 1.01562 2.5625C0.885417 2.69271 0.820312 2.84896 0.820312 3.03125C0.820312 3.21354 0.885417 3.36979 1.01562 3.5C1.14583 3.63021 1.30208 3.69531 1.48438 3.69531ZM1.48438 1.52344C1.66667 1.52344 1.82292 1.45833 1.95312 1.32812C2.08333 1.19792 2.14844 1.04167 2.14844 0.859375C2.14844 0.677083 2.08333 0.520833 1.95312 0.390625C1.82292 0.260417 1.66667 0.195312 1.48438 0.195312C1.30208 0.195312 1.14583 0.260417 1.01562 0.390625C0.885417 0.520833 0.820312 0.677083 0.820312 0.859375C0.820312 1.04167 0.885417 1.19792 1.01562 1.32812C1.14583 1.45833 1.30208 1.52344 1.48438 1.52344ZM3.65625 1.52344C3.83854 1.52344 3.99479 1.45833 4.125 1.32812C4.25521 1.19792 4.32031 1.04167 4.32031 0.859375C4.32031 0.677083 4.25521 0.520833 4.125 0.390625C3.99479 0.260417 3.83854 0.195312 3.65625 0.195312C3.47396 0.195312 3.31771 0.260417 3.1875 0.390625C3.05729 0.520833 2.99219 0.677083 2.99219 0.859375C2.99219 1.04167 3.05729 1.19792 3.1875 1.32812C3.31771 1.45833 3.47396 1.52344 3.65625 1.52344ZM5.82031 1.52344C6.0026 1.52344 6.15885 1.45833 6.28906 1.32812C6.41927 1.19792 6.48438 1.04167 6.48438 0.859375C6.48438 0.677083 6.41927 0.520833 6.28906 0.390625C6.15885 0.260417 6.0026 0.195312 5.82031 0.195312C5.63802 0.195312 5.48177 0.260417 5.35156 0.390625C5.22135 0.520833 5.15625 0.677083 5.15625 0.859375C5.15625 1.04167 5.22135 1.19792 5.35156 1.32812C5.48177 1.45833 5.63802 1.52344 5.82031 1.52344ZM7.99219 1.52344C8.17969 1.52344 8.33594 1.45833 8.46094 1.32812C8.59115 1.19792 8.65625 1.04167 8.65625 0.859375C8.65625 0.677083 8.59115 0.520833 8.46094 0.390625C8.33594 0.260417 8.17969 0.195312 7.99219 0.195312C7.8099 0.195312 7.65365 0.260417 7.52344 0.390625C7.39323 0.520833 7.32812 0.677083 7.32812 0.859375C7.32812 1.04167 7.39323 1.19792 7.52344 1.32812C7.65365 1.45833 7.8099 1.52344 7.99219 1.52344ZM10.1719 1.52344C10.3542 1.52344 10.5104 1.45833 10.6406 1.32812C10.7708 1.19792 10.8359 1.04167 10.8359 0.859375C10.8359 0.677083 10.7708 0.520833 10.6406 0.390625C10.5104 0.260417 10.3542 0.195312 10.1719 0.195312C9.98438 0.195312 9.82552 0.260417 9.69531 0.390625C9.57031 0.520833 9.50781 0.677083 9.50781 0.859375C9.50781 1.04167 9.57031 1.19792 9.69531 1.32812C9.82552 1.45833 9.98438 1.52344 10.1719 1.52344ZM12.3359 1.52344C12.5182 1.52344 12.6719 1.45833 12.7969 1.32812C12.9271 1.19792 12.9922 1.04167 12.9922 0.859375C12.9922 0.677083 12.9271 0.520833 12.7969 0.390625C12.6719 0.260417 12.5182 0.195312 12.3359 0.195312C12.1484 0.195312 11.9896 0.260417 11.8594 0.390625C11.7344 0.520833 11.6719 0.677083 11.6719 0.859375C11.6719 1.04167 11.7344 1.19792 11.8594 1.32812C11.9896 1.45833 12.1484 1.52344 12.3359 1.52344ZM14.5078 1.52344C14.6901 1.52344 14.8464 1.45833 14.9766 1.32812C15.1068 1.19792 15.1719 1.04167 15.1719 0.859375C15.1719 0.677083 15.1068 0.520833 14.9766 0.390625C14.8464 0.260417 14.6901 0.195312 14.5078 0.195312C14.3255 0.195312 14.1693 0.260417 14.0391 0.390625C13.9089 0.520833 13.8438 0.677083 13.8438 0.859375C13.8438 1.04167 13.9089 1.19792 14.0391 1.32812C14.1693 1.45833 14.3255 1.52344 14.5078 1.52344ZM14.5078 3.70312C14.6901 3.70312 14.8464 3.63802 14.9766 3.50781C15.1068 3.3776 15.1719 3.22135 15.1719 3.03906C15.1719 2.85677 15.1068 2.70052 14.9766 2.57031C14.8464 2.4401 14.6901 2.375 14.5078 2.375C14.3255 2.375 14.1693 2.4401 14.0391 2.57031C13.9089 2.70052 13.8438 2.85677 13.8438 3.03906C13.8438 3.22135 13.9089 3.3776 14.0391 3.50781C14.1693 3.63802 14.3255 3.70312 14.5078 3.70312ZM14.5078 5.85156C14.6901 5.85156 14.8464 5.78906 14.9766 5.66406C15.1068 5.53385 15.1719 5.3776 15.1719 5.19531C15.1719 5.00781 15.1068 4.85156 14.9766 4.72656C14.8464 4.59635 14.6901 4.53125 14.5078 4.53125C14.3255 4.53125 14.1693 4.59635 14.0391 4.72656C13.9089 4.85156 13.8438 5.00781 13.8438 5.19531C13.8438 5.3776 13.9089 5.53385 14.0391 5.66406C14.1693 5.78906 14.3255 5.85156 14.5078 5.85156ZM14.5078 8.03125C14.6901 8.03125 14.8464 7.96615 14.9766 7.83594C15.1068 7.70573 15.1719 7.54948 15.1719 7.36719C15.1719 7.1849 15.1068 7.02865 14.9766 6.89844C14.8464 6.76823 14.6901 6.70312 14.5078 6.70312C14.3255 6.70312 14.1693 6.76823 14.0391 6.89844C13.9089 7.02865 13.8438 7.1849 13.8438 7.36719C13.8438 7.54948 13.9089 7.70573 14.0391 7.83594C14.1693 7.96615 14.3255 8.03125 14.5078 8.03125ZM14.5078 10.2031C14.6901 10.2031 14.8464 10.138 14.9766 10.0078C15.1068 9.8776 15.1719 9.72135 15.1719 9.53906C15.1719 9.35677 15.1068 9.20052 14.9766 9.07031C14.8464 8.9401 14.6901 8.875 14.5078 8.875C14.3255 8.875 14.1693 8.9401 14.0391 9.07031C13.9089 9.20052 13.8438 9.35677 13.8438 9.53906C13.8438 9.72135 13.9089 9.8776 14.0391 10.0078C14.1693 10.138 14.3255 10.2031 14.5078 10.2031ZM14.5078 12.3672C14.6901 12.3672 14.8464 12.3021 14.9766 12.1719C15.1068 12.0417 15.1719 11.8854 15.1719 11.7031C15.1719 11.5208 15.1068 11.3646 14.9766 11.2344C14.8464 11.1042 14.6901 11.0391 14.5078 11.0391C14.3255 11.0391 14.1693 11.1042 14.0391 11.2344C13.9089 11.3646 13.8438 11.5208 13.8438 11.7031C13.8438 11.8854 13.9089 12.0417 14.0391 12.1719C14.1693 12.3021 14.3255 12.3672 14.5078 12.3672ZM14.5078 14.5469C14.6901 14.5469 14.8464 14.4818 14.9766 14.3516C15.1068 14.2214 15.1719 14.0651 15.1719 13.8828C15.1719 13.6953 15.1068 13.5365 14.9766 13.4062C14.8464 13.2812 14.6901 13.2188 14.5078 13.2188C14.3255 13.2188 14.1693 13.2812 14.0391 13.4062C13.9089 13.5365 13.8438 13.6953 13.8438 13.8828C13.8438 14.0651 13.9089 14.2214 14.0391 14.3516C14.1693 14.4818 14.3255 14.5469 14.5078 14.5469ZM12.3359 14.5469C12.5182 14.5469 12.6719 14.4818 12.7969 14.3516C12.9271 14.2214 12.9922 14.0651 12.9922 13.8828C12.9922 13.6953 12.9271 13.5365 12.7969 13.4062C12.6719 13.2812 12.5182 13.2188 12.3359 13.2188C12.1484 13.2188 11.9896 13.2812 11.8594 13.4062C11.7344 13.5365 11.6719 13.6953 11.6719 13.8828C11.6719 14.0651 11.7344 14.2214 11.8594 14.3516C11.9896 14.4818 12.1484 14.5469 12.3359 14.5469ZM10.1719 14.5469C10.3542 14.5469 10.5104 14.4818 10.6406 14.3516C10.7708 14.2214 10.8359 14.0651 10.8359 13.8828C10.8359 13.6953 10.7708 13.5365 10.6406 13.4062C10.5104 13.2812 10.3542 13.2188 10.1719 13.2188C9.98438 13.2188 9.82552 13.2812 9.69531 13.4062C9.57031 13.5365 9.50781 13.6953 9.50781 13.8828C9.50781 14.0651 9.57031 14.2214 9.69531 14.3516C9.82552 14.4818 9.98438 14.5469 10.1719 14.5469ZM7.99219 14.5469C8.17969 14.5469 8.33594 14.4818 8.46094 14.3516C8.59115 14.2214 8.65625 14.0651 8.65625 13.8828C8.65625 13.6953 8.59115 13.5365 8.46094 13.4062C8.33594 13.2812 8.17969 13.2188 7.99219 13.2188C7.8099 13.2188 7.65365 13.2812 7.52344 13.4062C7.39323 13.5365 7.32812 13.6953 7.32812 13.8828C7.32812 14.0651 7.39323 14.2214 7.52344 14.3516C7.65365 14.4818 7.8099 14.5469 7.99219 14.5469ZM5.82031 14.5469C6.0026 14.5469 6.15885 14.4818 6.28906 14.3516C6.41927 14.2214 6.48438 14.0651 6.48438 13.8828C6.48438 13.6953 6.41927 13.5365 6.28906 13.4062C6.15885 13.2812 6.0026 13.2188 5.82031 13.2188C5.63802 13.2188 5.48177 13.2812 5.35156 13.4062C5.22135 13.5365 5.15625 13.6953 5.15625 13.8828C5.15625 14.0651 5.22135 14.2214 5.35156 14.3516C5.48177 14.4818 5.63802 14.5469 5.82031 14.5469ZM3.65625 14.5469C3.83854 14.5469 3.99479 14.4818 4.125 14.3516C4.25521 14.2214 4.32031 14.0651 4.32031 13.8828C4.32031 13.6953 4.25521 13.5365 4.125 13.4062C3.99479 13.2812 3.83854 13.2188 3.65625 13.2188C3.47396 13.2188 3.31771 13.2812 3.1875 13.4062C3.05729 13.5365 2.99219 13.6953 2.99219 13.8828C2.99219 14.0651 3.05729 14.2214 3.1875 14.3516C3.31771 14.4818 3.47396 14.5469 3.65625 14.5469ZM3.625 11.0781C3.625 11.2656 3.68229 11.4167 3.79688 11.5312C3.91146 11.6458 4.0625 11.7031 4.25 11.7031H11.7578C11.9453 11.7031 12.0964 11.6458 12.2109 11.5312C12.3255 11.4167 12.3828 11.2656 12.3828 11.0781V3.63281C12.3828 3.44531 12.3255 3.29688 12.2109 3.1875C12.0964 3.07292 11.9453 3.01562 11.7578 3.01562H4.25C4.0625 3.01562 3.91146 3.07292 3.79688 3.1875C3.68229 3.29688 3.625 3.44531 3.625 3.63281V11.0781ZM4.88281 10.2188V4.5C4.88281 4.34896 4.95833 4.27344 5.10938 4.27344H10.8984C11.0495 4.27344 11.125 4.34896 11.125 4.5V10.2188C11.125 10.3698 11.0495 10.4453 10.8984 10.4453H5.10938C4.95833 10.4453 4.88281 10.3698 4.88281 10.2188Z" fill="white"/>
</svg>
