<?xml version="1.0" encoding="UTF-8"?>
<svg xmlns="http://www.w3.org/2000/svg" xmlns:xlink="http://www.w3.org/1999/xlink" width="24" height="22.5" viewBox="0 0 24 22.5" version="1.1">
<g id="surface1">
<path style=" stroke:none;fill-rule:nonzero;fill:rgb(100%,100%,100%);fill-opacity:1;" d="M 1.207031 20.90625 C 1.207031 21.1875 1.292969 21.414062 1.464844 21.585938 C 1.636719 21.757812 1.863281 21.84375 2.144531 21.84375 L 21.855469 21.84375 C 22.136719 21.84375 22.359375 21.757812 22.523438 21.585938 C 22.695312 21.414062 22.78125 21.1875 22.78125 20.90625 L 22.78125 1.195312 C 22.78125 0.914062 22.695312 0.691406 22.523438 0.527344 C 22.359375 0.355469 22.136719 0.269531 21.855469 0.269531 L 2.144531 0.269531 C 1.863281 0.269531 1.636719 0.355469 1.464844 0.527344 C 1.292969 0.691406 1.207031 0.914062 1.207031 1.195312 Z M 1.207031 20.90625 "/>
</g>
</svg>
