<svg width="116" height="116" viewBox="0 0 116 116" fill="none" xmlns="http://www.w3.org/2000/svg">
<path d="M58.5 11.4375C60 11.4375 61.2917 10.8958 62.375 9.8125C63.4583 8.72917 64 7.41667 64 5.875C64 4.375 63.4583 3.08333 62.375 2C61.2917 0.916667 60 0.375 58.5 0.375C56.9583 0.375 55.6458 0.916667 54.5625 2C53.4792 3.08333 52.9375 4.375 52.9375 5.875C52.9375 7.41667 53.4792 8.72917 54.5625 9.8125C55.6458 10.8958 56.9583 11.4375 58.5 11.4375ZM58.5 28.75C60 28.75 61.2917 28.2292 62.375 27.1875C63.4583 26.1042 64 24.7917 64 23.25C64 21.7083 63.4583 20.3958 62.375 19.3125C61.2917 18.2292 60 17.6875 58.5 17.6875C56.9583 17.6875 55.6458 18.2292 54.5625 19.3125C53.4792 20.3958 52.9375 21.7083 52.9375 23.25C52.9375 24.7917 53.4792 26.1042 54.5625 27.1875C55.6458 28.2292 56.9583 28.75 58.5 28.75ZM58.5 46.0625C60 46.0625 61.2917 45.5417 62.375 44.5C63.4583 43.4167 64 42.1042 64 40.5625C64 39.0208 63.4583 37.7083 62.375 36.625C61.2917 35.5417 60 35 58.5 35C56.9583 35 55.6458 35.5417 54.5625 36.625C53.4792 37.7083 52.9375 39.0208 52.9375 40.5625C52.9375 42.1042 53.4792 43.4167 54.5625 44.5C55.6458 45.5417 56.9583 46.0625 58.5 46.0625ZM58.5 63.4375C60 63.4375 61.2917 62.8958 62.375 61.8125C63.4583 60.7292 64 59.4167 64 57.875C64 56.375 63.4583 55.0833 62.375 54C61.2917 52.9167 60 52.375 58.5 52.375C56.9583 52.375 55.6458 52.9167 54.5625 54C53.4792 55.0833 52.9375 56.375 52.9375 57.875C52.9375 59.4167 53.4792 60.7292 54.5625 61.8125C55.6458 62.8958 56.9583 63.4375 58.5 63.4375ZM58.5 80.75C60 80.75 61.2917 80.2083 62.375 79.125C63.4583 78.0417 64 76.75 64 75.25C64 73.7083 63.4583 72.3958 62.375 71.3125C61.2917 70.2292 60 69.6875 58.5 69.6875C56.9583 69.6875 55.6458 70.2292 54.5625 71.3125C53.4792 72.3958 52.9375 73.7083 52.9375 75.25C52.9375 76.75 53.4792 78.0417 54.5625 79.125C55.6458 80.2083 56.9583 80.75 58.5 80.75ZM58.5 98.0625C60 98.0625 61.2917 97.5417 62.375 96.5C63.4583 95.4167 64 94.1042 64 92.5625C64 91.0208 63.4583 89.7083 62.375 88.625C61.2917 87.5417 60 87 58.5 87C56.9583 87 55.6458 87.5417 54.5625 88.625C53.4792 89.7083 52.9375 91.0208 52.9375 92.5625C52.9375 94.1042 53.4792 95.4167 54.5625 96.5C55.6458 97.5417 56.9583 98.0625 58.5 98.0625ZM58.5 115.438C60 115.438 61.2917 114.896 62.375 113.812C63.4583 112.729 64 111.417 64 109.875C64 108.375 63.4583 107.083 62.375 106C61.2917 104.917 60 104.375 58.5 104.375C56.9583 104.375 55.6458 104.917 54.5625 106C53.4792 107.083 52.9375 108.375 52.9375 109.875C52.9375 111.417 53.4792 112.729 54.5625 113.812C55.6458 114.896 56.9583 115.438 58.5 115.438ZM6.5625 63.4375C8.0625 63.4375 9.35417 62.8958 10.4375 61.8125C11.5208 60.7292 12.0625 59.4167 12.0625 57.875C12.0625 56.375 11.5208 55.0833 10.4375 54C9.35417 52.9167 8.0625 52.375 6.5625 52.375C5.02083 52.375 3.70833 52.9167 2.625 54C1.54167 55.0833 1 56.375 1 57.875C1 59.4167 1.54167 60.7292 2.625 61.8125C3.70833 62.8958 5.02083 63.4375 6.5625 63.4375ZM23.8125 63.4375C25.3542 63.4375 26.6667 62.8958 27.75 61.8125C28.8333 60.7292 29.375 59.4167 29.375 57.875C29.375 56.375 28.8333 55.0833 27.75 54C26.6667 52.9167 25.3542 52.375 23.8125 52.375C22.2708 52.375 20.9583 52.9167 19.875 54C18.8333 55.0833 18.3125 56.375 18.3125 57.875C18.3125 59.4167 18.8333 60.7292 19.875 61.8125C20.9583 62.8958 22.2708 63.4375 23.8125 63.4375ZM41.125 63.4375C42.6667 63.4375 43.9792 62.8958 45.0625 61.8125C46.1458 60.7292 46.6875 59.4167 46.6875 57.875C46.6875 56.375 46.1458 55.0833 45.0625 54C43.9792 52.9167 42.6667 52.375 41.125 52.375C39.625 52.375 38.3333 52.9167 37.25 54C36.1667 55.0833 35.625 56.375 35.625 57.875C35.625 59.4167 36.1667 60.7292 37.25 61.8125C38.3333 62.8958 39.625 63.4375 41.125 63.4375ZM75.8125 63.4375C77.3542 63.4375 78.6667 62.8958 79.75 61.8125C80.8333 60.7292 81.375 59.4167 81.375 57.875C81.375 56.375 80.8333 55.0833 79.75 54C78.6667 52.9167 77.3542 52.375 75.8125 52.375C74.2708 52.375 72.9583 52.9167 71.875 54C70.8333 55.0833 70.3125 56.375 70.3125 57.875C70.3125 59.4167 70.8333 60.7292 71.875 61.8125C72.9583 62.8958 74.2708 63.4375 75.8125 63.4375ZM93.125 63.4375C94.6667 63.4375 95.9792 62.8958 97.0625 61.8125C98.1458 60.7292 98.6875 59.4167 98.6875 57.875C98.6875 56.375 98.1458 55.0833 97.0625 54C95.9792 52.9167 94.6667 52.375 93.125 52.375C91.5833 52.375 90.2708 52.9167 89.1875 54C88.1458 55.0833 87.625 56.375 87.625 57.875C87.625 59.4167 88.1458 60.7292 89.1875 61.8125C90.2708 62.8958 91.5833 63.4375 93.125 63.4375ZM110.438 63.4375C111.938 63.4375 113.229 62.8958 114.312 61.8125C115.396 60.7292 115.938 59.4167 115.938 57.875C115.938 56.375 115.396 55.0833 114.312 54C113.229 52.9167 111.938 52.375 110.438 52.375C108.896 52.375 107.583 52.9167 106.5 54C105.417 55.0833 104.875 56.375 104.875 57.875C104.875 59.4167 105.417 60.7292 106.5 61.8125C107.583 62.8958 108.896 63.4375 110.438 63.4375ZM0.9375 110.5C0.9375 112 1.39583 113.208 2.3125 114.125C3.22917 115.042 4.4375 115.5 5.9375 115.5H111.062C112.562 115.5 113.75 115.042 114.625 114.125C115.542 113.208 116 112 116 110.5V5.375C116 3.875 115.542 2.6875 114.625 1.8125C113.75 0.895833 112.562 0.4375 111.062 0.4375H5.9375C4.4375 0.4375 3.22917 0.895833 2.3125 1.8125C1.39583 2.6875 0.9375 3.875 0.9375 5.375V110.5ZM11 103.625V12.3125C11 11.1042 11.6042 10.5 12.8125 10.5H104.125C105.333 10.5 105.938 11.1042 105.938 12.3125V103.625C105.938 104.833 105.333 105.438 104.125 105.438H12.8125C11.6042 105.438 11 104.833 11 103.625Z" fill="white"/>
</svg>
