<?xml version="1.0" encoding="UTF-8"?>
<svg xmlns="http://www.w3.org/2000/svg" xmlns:xlink="http://www.w3.org/1999/xlink" width="24" height="28" viewBox="0 0 24 28" version="1.1">
<g id="surface1">
<path style=" stroke:none;fill-rule:nonzero;fill:rgb(100%,100%,100%);fill-opacity:1;" d="M 3.425781 23.15625 L 15.375 23.15625 C 16.464844 23.15625 17.28125 22.886719 17.824219 22.34375 C 18.371094 21.808594 18.644531 21.003906 18.644531 19.925781 L 18.644531 9.542969 C 18.644531 8.464844 18.371094 7.660156 17.824219 7.125 C 17.28125 6.582031 16.464844 6.3125 15.375 6.3125 L 12.46875 6.3125 L 12.46875 7.988281 L 15.34375 7.988281 C 15.859375 7.988281 16.257812 8.128906 16.542969 8.40625 C 16.828125 8.675781 16.96875 9.082031 16.96875 9.625 L 16.96875 19.84375 C 16.96875 20.386719 16.828125 20.796875 16.542969 21.074219 C 16.257812 21.34375 15.859375 21.480469 15.34375 21.480469 L 3.449219 21.480469 C 2.925781 21.480469 2.527344 21.34375 2.25 21.074219 C 1.972656 20.796875 1.832031 20.386719 1.832031 19.84375 L 1.832031 9.625 C 1.832031 9.082031 1.972656 8.675781 2.25 8.40625 C 2.527344 8.128906 2.925781 7.988281 3.449219 7.988281 L 6.332031 7.988281 L 6.332031 6.3125 L 3.425781 6.3125 C 2.335938 6.3125 1.515625 6.582031 0.96875 7.125 C 0.425781 7.660156 0.15625 8.464844 0.15625 9.542969 L 0.15625 19.925781 C 0.15625 21.003906 0.425781 21.808594 0.96875 22.34375 C 1.515625 22.886719 2.335938 23.15625 3.425781 23.15625 Z M 9.511719 27.980469 L 20.574219 27.980469 C 21.664062 27.980469 22.480469 27.707031 23.019531 27.167969 C 23.570312 26.632812 23.84375 25.828125 23.84375 24.75 L 23.84375 14.363281 C 23.84375 13.289062 23.570312 12.484375 23.019531 11.949219 C 22.480469 11.40625 21.664062 11.136719 20.574219 11.136719 L 18.105469 11.136719 L 18.105469 12.8125 L 20.550781 12.8125 C 21.074219 12.8125 21.472656 12.953125 21.75 13.230469 C 22.027344 13.5 22.167969 13.90625 22.167969 14.449219 L 22.167969 24.667969 C 22.167969 25.207031 22.027344 25.613281 21.75 25.886719 C 21.472656 26.164062 21.074219 26.300781 20.550781 26.300781 L 9.542969 26.300781 C 9.027344 26.300781 8.628906 26.164062 8.34375 25.886719 C 8.058594 25.613281 7.917969 25.207031 7.917969 24.667969 L 7.917969 22.3125 L 6.238281 22.3125 L 6.238281 24.75 C 6.238281 25.828125 6.511719 26.632812 7.050781 27.167969 C 7.601562 27.707031 8.421875 27.980469 9.511719 27.980469 Z M 9.394531 16.3125 C 9.507812 16.3125 9.609375 16.292969 9.699219 16.25 C 9.796875 16.207031 9.894531 16.136719 10 16.03125 L 13.519531 12.636719 C 13.6875 12.46875 13.769531 12.285156 13.769531 12.082031 C 13.769531 11.875 13.699219 11.703125 13.550781 11.5625 C 13.40625 11.421875 13.226562 11.355469 13.011719 11.355469 C 12.78125 11.355469 12.59375 11.4375 12.449219 11.605469 L 10.863281 13.292969 L 10.167969 14.019531 L 10.230469 12.46875 L 10.230469 1.480469 C 10.230469 1.265625 10.144531 1.078125 9.980469 0.917969 C 9.820312 0.757812 9.625 0.675781 9.394531 0.675781 C 9.171875 0.675781 8.980469 0.757812 8.8125 0.917969 C 8.652344 1.078125 8.574219 1.265625 8.574219 1.480469 L 8.574219 12.46875 L 8.636719 14.03125 L 7.925781 13.292969 L 6.355469 11.605469 C 6.207031 11.4375 6.015625 11.355469 5.78125 11.355469 C 5.558594 11.355469 5.378906 11.421875 5.238281 11.5625 C 5.101562 11.703125 5.03125 11.875 5.03125 12.082031 C 5.03125 12.285156 5.109375 12.46875 5.269531 12.636719 L 8.792969 16.03125 C 8.902344 16.136719 9.003906 16.207031 9.09375 16.25 C 9.191406 16.292969 9.292969 16.3125 9.394531 16.3125 Z M 9.394531 16.3125 "/>
</g>
</svg>
