<?xml version="1.0" encoding="UTF-8"?>
<svg xmlns="http://www.w3.org/2000/svg" xmlns:xlink="http://www.w3.org/1999/xlink" width="24" height="22.5" viewBox="0 0 24 22.5" version="1.1">
<g id="surface1">
<path style=" stroke:none;fill-rule:nonzero;fill:rgb(100%,100%,100%);fill-opacity:1;" d="M 4.886719 21.84375 L 19.101562 21.84375 C 20.328125 21.84375 21.246094 21.539062 21.855469 20.929688 C 22.472656 20.328125 22.78125 19.421875 22.78125 18.210938 L 22.78125 3.902344 C 22.78125 2.691406 22.472656 1.785156 21.855469 1.183594 C 21.246094 0.574219 20.328125 0.269531 19.101562 0.269531 L 4.886719 0.269531 C 3.660156 0.269531 2.738281 0.574219 2.121094 1.183594 C 1.511719 1.785156 1.207031 2.691406 1.207031 3.902344 L 1.207031 18.210938 C 1.207031 19.421875 1.511719 20.328125 2.121094 20.929688 C 2.738281 21.539062 3.660156 21.84375 4.886719 21.84375 Z M 4.910156 19.957031 C 4.324219 19.957031 3.875 19.804688 3.5625 19.5 C 3.25 19.1875 3.09375 18.726562 3.09375 18.117188 L 3.09375 3.996094 C 3.09375 3.386719 3.25 2.929688 3.5625 2.625 C 3.875 2.3125 4.324219 2.15625 4.910156 2.15625 L 19.078125 2.15625 C 19.65625 2.15625 20.101562 2.3125 20.414062 2.625 C 20.734375 2.929688 20.894531 3.386719 20.894531 3.996094 L 20.894531 18.117188 C 20.894531 18.726562 20.734375 19.1875 20.414062 19.5 C 20.101562 19.804688 19.65625 19.957031 19.078125 19.957031 Z M 4.863281 6.703125 C 4.863281 6.953125 4.9375 7.152344 5.085938 7.300781 C 5.234375 7.449219 5.433594 7.523438 5.683594 7.523438 L 7.640625 7.523438 C 7.898438 7.523438 8.097656 7.449219 8.238281 7.300781 C 8.386719 7.152344 8.460938 6.953125 8.460938 6.703125 L 8.460938 4.734375 C 8.460938 4.484375 8.386719 4.285156 8.238281 4.136719 C 8.097656 3.988281 7.898438 3.914062 7.640625 3.914062 L 5.683594 3.914062 C 5.433594 3.914062 5.234375 3.988281 5.085938 4.136719 C 4.9375 4.285156 4.863281 4.484375 4.863281 4.734375 Z M 10.207031 6.703125 C 10.207031 6.953125 10.28125 7.152344 10.429688 7.300781 C 10.578125 7.449219 10.777344 7.523438 11.027344 7.523438 L 12.984375 7.523438 C 13.242188 7.523438 13.445312 7.449219 13.59375 7.300781 C 13.742188 7.152344 13.816406 6.953125 13.816406 6.703125 L 13.816406 4.734375 C 13.816406 4.484375 13.742188 4.285156 13.59375 4.136719 C 13.445312 3.988281 13.242188 3.914062 12.984375 3.914062 L 11.027344 3.914062 C 10.777344 3.914062 10.578125 3.988281 10.429688 4.136719 C 10.28125 4.285156 10.207031 4.484375 10.207031 4.734375 Z M 15.539062 6.703125 C 15.539062 6.953125 15.613281 7.152344 15.761719 7.300781 C 15.910156 7.449219 16.109375 7.523438 16.359375 7.523438 L 18.316406 7.523438 C 18.574219 7.523438 18.773438 7.449219 18.914062 7.300781 C 19.0625 7.152344 19.136719 6.953125 19.136719 6.703125 L 19.136719 4.734375 C 19.136719 4.484375 19.0625 4.285156 18.914062 4.136719 C 18.773438 3.988281 18.574219 3.914062 18.316406 3.914062 L 16.359375 3.914062 C 16.109375 3.914062 15.910156 3.988281 15.761719 4.136719 C 15.613281 4.285156 15.539062 4.484375 15.539062 4.734375 Z M 4.863281 12.035156 C 4.863281 12.285156 4.9375 12.484375 5.085938 12.632812 C 5.234375 12.78125 5.433594 12.855469 5.683594 12.855469 L 7.640625 12.855469 C 7.898438 12.855469 8.097656 12.78125 8.238281 12.632812 C 8.386719 12.484375 8.460938 12.285156 8.460938 12.035156 L 8.460938 10.066406 C 8.460938 9.816406 8.386719 9.617188 8.238281 9.46875 C 8.097656 9.320312 7.898438 9.246094 7.640625 9.246094 L 5.683594 9.246094 C 5.433594 9.246094 5.234375 9.320312 5.085938 9.46875 C 4.9375 9.617188 4.863281 9.816406 4.863281 10.066406 Z M 10.207031 12.035156 C 10.207031 12.285156 10.28125 12.484375 10.429688 12.632812 C 10.578125 12.78125 10.777344 12.855469 11.027344 12.855469 L 12.984375 12.855469 C 13.242188 12.855469 13.445312 12.78125 13.59375 12.632812 C 13.742188 12.484375 13.816406 12.285156 13.816406 12.035156 L 13.816406 10.066406 C 13.816406 9.816406 13.742188 9.617188 13.59375 9.46875 C 13.445312 9.320312 13.242188 9.246094 12.984375 9.246094 L 11.027344 9.246094 C 10.777344 9.246094 10.578125 9.320312 10.429688 9.46875 C 10.28125 9.617188 10.207031 9.816406 10.207031 10.066406 Z M 15.539062 12.035156 C 15.539062 12.285156 15.613281 12.484375 15.761719 12.632812 C 15.910156 12.78125 16.109375 12.855469 16.359375 12.855469 L 18.316406 12.855469 C 18.574219 12.855469 18.773438 12.78125 18.914062 12.632812 C 19.0625 12.484375 19.136719 12.285156 19.136719 12.035156 L 19.136719 10.066406 C 19.136719 9.816406 19.0625 9.617188 18.914062 9.46875 C 18.773438 9.320312 18.574219 9.246094 18.316406 9.246094 L 16.359375 9.246094 C 16.109375 9.246094 15.910156 9.320312 15.761719 9.46875 C 15.613281 9.617188 15.539062 9.816406 15.539062 10.066406 Z M 4.863281 17.367188 C 4.863281 17.617188 4.9375 17.816406 5.085938 17.964844 C 5.234375 18.113281 5.433594 18.1875 5.683594 18.1875 L 7.640625 18.1875 C 7.898438 18.1875 8.097656 18.113281 8.238281 17.964844 C 8.386719 17.816406 8.460938 17.617188 8.460938 17.367188 L 8.460938 15.398438 C 8.460938 15.148438 8.386719 14.949219 8.238281 14.800781 C 8.097656 14.652344 7.898438 14.578125 7.640625 14.578125 L 5.683594 14.578125 C 5.433594 14.578125 5.234375 14.652344 5.085938 14.800781 C 4.9375 14.949219 4.863281 15.148438 4.863281 15.398438 Z M 10.207031 17.367188 C 10.207031 17.617188 10.28125 17.816406 10.429688 17.964844 C 10.578125 18.113281 10.777344 18.1875 11.027344 18.1875 L 12.984375 18.1875 C 13.242188 18.1875 13.445312 18.113281 13.59375 17.964844 C 13.742188 17.816406 13.816406 17.617188 13.816406 17.367188 L 13.816406 15.398438 C 13.816406 15.148438 13.742188 14.949219 13.59375 14.800781 C 13.445312 14.652344 13.242188 14.578125 12.984375 14.578125 L 11.027344 14.578125 C 10.777344 14.578125 10.578125 14.652344 10.429688 14.800781 C 10.28125 14.949219 10.207031 15.148438 10.207031 15.398438 Z M 15.539062 17.367188 C 15.539062 17.617188 15.613281 17.816406 15.761719 17.964844 C 15.910156 18.113281 16.109375 18.1875 16.359375 18.1875 L 18.316406 18.1875 C 18.574219 18.1875 18.773438 18.113281 18.914062 17.964844 C 19.0625 17.816406 19.136719 17.617188 19.136719 17.367188 L 19.136719 15.398438 C 19.136719 15.148438 19.0625 14.949219 18.914062 14.800781 C 18.773438 14.652344 18.574219 14.578125 18.316406 14.578125 L 16.359375 14.578125 C 16.109375 14.578125 15.910156 14.652344 15.761719 14.800781 C 15.613281 14.949219 15.539062 15.148438 15.539062 15.398438 Z M 15.539062 17.367188 "/>
</g>
</svg>
