<svg xmlns="http://www.w3.org/2000/svg" width="24" height="24"><path style="stroke:none;fill-rule:nonzero;fill:#fff;fill-opacity:1" d="M3.445 10.762H8.79c.742 0 1.3-.2 1.676-.598.375-.41.562-1.027.562-1.851V2.726c0-.829-.187-1.438-.562-1.84C10.09.488 9.53.289 8.789.289H3.445c-.742 0-1.3.2-1.675.598-.375.402-.563 1.015-.563 1.84v5.586c0 .824.188 1.44.563 1.851.375.399.933.598 1.675.598ZM3.47 9c-.203 0-.356-.059-.457-.176-.102-.117-.153-.289-.153-.511V2.726c0-.227.051-.395.153-.504.101-.114.254-.172.457-.172h5.285c.203 0 .355.058.457.176.11.105.164.273.164.5v5.586c0 .222-.055.394-.164.511-.102.117-.254.176-.457.176Zm11.742 1.762h5.332c.742 0 1.3-.2 1.676-.598.375-.41.562-1.027.562-1.851V2.726c0-.829-.187-1.438-.562-1.84-.375-.399-.934-.598-1.676-.598h-5.332c-.75 0-1.313.2-1.688.598-.375.402-.562 1.015-.562 1.84v5.586c0 .824.187 1.44.562 1.851.375.399.938.598 1.688.598ZM15.234 9c-.21 0-.367-.059-.468-.176-.102-.117-.153-.289-.153-.511V2.726c0-.227.051-.395.153-.504.101-.114.257-.172.468-.172h5.286c.21 0 .363.058.457.176.101.105.152.273.152.5v5.586c0 .222-.05.394-.152.511-.094.117-.247.176-.457.176ZM3.445 23.3H8.79c.742 0 1.3-.202 1.676-.6.375-.403.562-1.012.562-1.837v-5.601c0-.817-.187-1.426-.562-1.825-.375-.41-.934-.613-1.676-.613H3.445c-.742 0-1.3.203-1.675.614-.375.398-.563 1.007-.563 1.824v5.597c0 .828.188 1.438.563 1.84.375.399.933.602 1.675.602Zm.024-1.765c-.203 0-.356-.058-.457-.176-.102-.105-.153-.273-.153-.496v-5.59c0-.23.051-.402.153-.511.101-.117.254-.176.457-.176h5.285c.203 0 .355.059.457.176.11.11.164.281.164.511v5.59c0 .223-.055.39-.164.5-.102.117-.254.172-.457.172Zm11.742 1.766h5.332c.742 0 1.3-.203 1.676-.602.375-.402.562-1.012.562-1.836v-5.601c0-.817-.187-1.426-.562-1.825-.375-.41-.934-.613-1.676-.613h-5.332c-.75 0-1.313.203-1.688.614-.375.398-.562 1.007-.562 1.824v5.597c0 .828.187 1.438.562 1.84.375.399.938.602 1.688.602Zm.023-1.766c-.21 0-.367-.058-.468-.176-.102-.105-.153-.273-.153-.496v-5.59c0-.23.051-.402.153-.511.101-.117.257-.176.468-.176h5.286c.21 0 .363.059.457.176.101.11.152.281.152.511v5.59c0 .223-.05.39-.152.5-.094.117-.247.172-.457.172Zm0 0"/></svg>