<svg width="125" height="143" viewBox="0 0 125 143" fill="none" xmlns="http://www.w3.org/2000/svg">
<path d="M52.4375 74.5625V131.25C52.4375 134.75 53.0833 137.438 54.375 139.312C55.6667 141.188 57.4375 142.188 59.6875 142.312C61.9792 142.479 64.5833 141.729 67.5 140.062L116.438 111.75C118.479 110.583 120.062 109.375 121.188 108.125C122.312 106.875 123.104 105.438 123.562 103.812C124.021 102.188 124.25 100.271 124.25 98.0625V39.8125C124.25 36.8958 123.5 34.6875 122 33.1875C120.542 31.6458 118.729 30.8125 116.562 30.6875C114.396 30.5625 112.271 31.0833 110.188 32.25L60.125 61.1875C58.2917 62.2708 56.7917 63.4375 55.625 64.6875C54.5 65.9375 53.6875 67.375 53.1875 69C52.6875 70.5833 52.4375 72.4375 52.4375 74.5625ZM65.375 70.1875L113 42.6875C113.333 42.5208 113.583 42.5 113.75 42.625C113.958 42.75 114.062 42.9583 114.062 43.25V97.875C114.062 99.125 113.875 100.083 113.5 100.75C113.167 101.375 112.479 102 111.438 102.625L63.5625 130.25C63.2708 130.375 63.0417 130.396 62.875 130.312C62.7083 130.229 62.625 130.021 62.625 129.688V74.9375C62.625 73.6042 62.8333 72.625 63.25 72C63.6667 71.375 64.375 70.7708 65.375 70.1875ZM57.9375 114.562V102.5L37 114.562C36.7083 114.729 36.4792 114.771 36.3125 114.688C36.1458 114.562 36.0625 114.354 36.0625 114.062V59.3125C36.0625 57.9792 36.2708 57 36.6875 56.375C37.1042 55.75 37.8125 55.1458 38.8125 54.5625L86.4375 27.0625C86.7292 26.8958 86.9792 26.875 87.1875 27C87.3958 27.125 87.5 27.3333 87.5 27.625V51.0625L97.6875 45.75V24.1875C97.6875 21.2292 96.9375 19 95.4375 17.5C93.9792 16 92.1667 15.1875 90 15.0625C87.8333 14.8958 85.7083 15.4167 83.625 16.625L33.5625 45.5C31.6875 46.5833 30.1875 47.75 29.0625 49C27.9375 50.25 27.125 51.6875 26.625 53.3125C26.125 54.8958 25.875 56.7708 25.875 58.9375V115.625C25.875 119.083 26.5208 121.75 27.8125 123.625C29.1042 125.5 30.875 126.521 33.125 126.688C35.4167 126.854 38.0208 126.104 40.9375 124.438L57.9375 114.562ZM30.875 101.438V89.3125L12.0625 100.188C11.7708 100.354 11.5417 100.396 11.375 100.312C11.2083 100.188 11.125 99.9792 11.125 99.6875V44.9375C11.125 43.6042 11.3333 42.625 11.75 42C12.1667 41.375 12.875 40.7708 13.875 40.1875L61.5 12.6875C61.7917 12.4792 62.0417 12.4583 62.25 12.625C62.4583 12.75 62.5625 12.9583 62.5625 13.25V34.625L72.75 29.5625V9.8125C72.75 6.85417 72 4.625 70.5 3.125C69.0417 1.625 67.2292 0.8125 65.0625 0.6875C62.8958 0.520833 60.7708 1.02083 58.6875 2.1875L8.625 31.125C6.75 32.2083 5.25 33.375 4.125 34.625C3 35.875 2.1875 37.3125 1.6875 38.9375C1.1875 40.5208 0.9375 42.3958 0.9375 44.5625V101.188C0.9375 104.688 1.58333 107.375 2.875 109.25C4.16667 111.125 5.9375 112.146 8.1875 112.312C10.4792 112.479 13.0833 111.708 16 110L30.875 101.438Z" fill="white"/>
</svg>
