<svg width="116" height="116" viewBox="0 0 116 116" fill="none" xmlns="http://www.w3.org/2000/svg">
<path d="M20.5625 115.5H96.375C102.917 115.5 107.812 113.875 111.062 110.625C114.354 107.417 116 102.583 116 96.125V19.8125C116 13.3542 114.354 8.52083 111.062 5.3125C107.812 2.0625 102.917 0.4375 96.375 0.4375H20.5625C14.0208 0.4375 9.10417 2.0625 5.8125 5.3125C2.5625 8.52083 0.9375 13.3542 0.9375 19.8125V96.125C0.9375 102.583 2.5625 107.417 5.8125 110.625C9.10417 113.875 14.0208 115.5 20.5625 115.5ZM20.6875 105.438C17.5625 105.438 15.1667 104.625 13.5 103C11.8333 101.333 11 98.875 11 95.625V20.3125C11 17.0625 11.8333 14.625 13.5 13C15.1667 11.3333 17.5625 10.5 20.6875 10.5H96.25C99.3333 10.5 101.708 11.3333 103.375 13C105.083 14.625 105.938 17.0625 105.938 20.3125V95.625C105.938 98.875 105.083 101.333 103.375 103C101.708 104.625 99.3333 105.438 96.25 105.438H20.6875ZM27.4375 70.375H89C90.0833 70.375 90.9792 70 91.6875 69.25C92.4375 68.5 92.8125 67.5833 92.8125 66.5C92.8125 65.4167 92.4375 64.5208 91.6875 63.8125C90.9792 63.0625 90.0833 62.6875 89 62.6875H27.4375C26.3125 62.6875 25.375 63.0625 24.625 63.8125C23.875 64.5208 23.5 65.4167 23.5 66.5C23.5 67.5833 23.875 68.5 24.625 69.25C25.375 70 26.3125 70.375 27.4375 70.375ZM27.4375 91.75H72.5C73.625 91.75 74.5417 91.3958 75.25 90.6875C76 89.9375 76.375 89.0208 76.375 87.9375C76.375 86.8542 76 85.9375 75.25 85.1875C74.5417 84.4375 73.625 84.0625 72.5 84.0625H27.4375C26.3125 84.0625 25.375 84.4375 24.625 85.1875C23.875 85.9375 23.5 86.8542 23.5 87.9375C23.5 89.0208 23.875 89.9375 24.625 90.6875C25.375 91.3958 26.3125 91.75 27.4375 91.75ZM23.6875 27.375V42.625C23.6875 44.5833 24.2292 46.1042 25.3125 47.1875C26.3958 48.2708 27.9167 48.8125 29.875 48.8125H45.125C47.0833 48.8125 48.6042 48.2708 49.6875 47.1875C50.7708 46.1042 51.3125 44.5833 51.3125 42.625V27.375C51.3125 25.4167 50.7708 23.8958 49.6875 22.8125C48.6042 21.7292 47.0833 21.1875 45.125 21.1875H29.875C27.9167 21.1875 26.3958 21.7292 25.3125 22.8125C24.2292 23.8958 23.6875 25.4167 23.6875 27.375Z" fill="white"/>
</svg>
