<svg width="116" height="116" viewBox="0 0 116 116" fill="none" xmlns="http://www.w3.org/2000/svg">
<path d="M72.5625 24.5V91.4375C72.5625 93.3958 73 94.7917 73.875 95.625C74.75 96.4583 76.1875 96.875 78.1875 96.875H91.8125C93.8125 96.875 95.25 96.4583 96.125 95.625C97 94.7917 97.4375 93.3958 97.4375 91.4375V24.5C97.4375 22.5417 97 21.1458 96.125 20.3125C95.25 19.4375 93.8125 19 91.8125 19H78.1875C76.1875 19 74.75 19.4375 73.875 20.3125C73 21.1458 72.5625 22.5417 72.5625 24.5ZM20.5625 115.5H96.375C102.917 115.5 107.812 113.875 111.062 110.625C114.354 107.417 116 102.583 116 96.125V19.8125C116 13.3542 114.354 8.52083 111.062 5.3125C107.812 2.0625 102.917 0.4375 96.375 0.4375H20.5625C14.0208 0.4375 9.10417 2.0625 5.8125 5.3125C2.5625 8.52083 0.9375 13.3542 0.9375 19.8125V96.125C0.9375 102.583 2.5625 107.417 5.8125 110.625C9.10417 113.875 14.0208 115.5 20.5625 115.5ZM20.6875 105.438C17.5625 105.438 15.1667 104.625 13.5 103C11.8333 101.333 11 98.875 11 95.625V20.3125C11 17.0625 11.8333 14.625 13.5 13C15.1667 11.3333 17.5625 10.5 20.6875 10.5H96.25C99.3333 10.5 101.708 11.3333 103.375 13C105.083 14.625 105.938 17.0625 105.938 20.3125V95.625C105.938 98.875 105.083 101.333 103.375 103C101.708 104.625 99.3333 105.438 96.25 105.438H20.6875Z" fill="white"/>
</svg>
