<svg width="16" height="19" viewBox="0 0 16 19" fill="none" xmlns="http://www.w3.org/2000/svg">
<path d="M7.58594 18.3906C7.86198 18.3906 8.19271 18.2812 8.57812 18.0625L14.7031 14.5469C14.9427 14.4062 15.1328 14.2604 15.2734 14.1094C15.4193 13.9531 15.5234 13.7734 15.5859 13.5703C15.6484 13.3672 15.6797 13.1198 15.6797 12.8281V5.75C15.6797 5.28125 15.599 4.92969 15.4375 4.69531C15.2812 4.45573 15.0573 4.33594 14.7656 4.33594C14.4948 4.33594 14.1771 4.4401 13.8125 4.64844L7.67188 8.1875C7.42708 8.33333 7.23177 8.48438 7.08594 8.64062C6.9401 8.79688 6.83594 8.97656 6.77344 9.17969C6.71094 9.38281 6.67969 9.625 6.67969 9.90625V16.9844C6.67969 17.4375 6.75521 17.7839 6.90625 18.0234C7.0625 18.2682 7.28906 18.3906 7.58594 18.3906ZM8.00781 16.8672C7.97135 16.862 7.95312 16.8333 7.95312 16.7812L8.00781 9.92969C8.00781 9.66406 8.1224 9.46354 8.35156 9.32812L14.2656 5.85156C14.2969 5.83594 14.3229 5.83333 14.3438 5.84375C14.3802 5.84896 14.3984 5.8776 14.3984 5.92969L14.375 12.8047C14.375 12.9349 14.349 13.0495 14.2969 13.1484C14.25 13.2474 14.1615 13.3359 14.0312 13.4141L8.08594 16.8594C8.05469 16.875 8.02865 16.8776 8.00781 16.8672ZM4.23438 16.4844C4.39062 16.4844 4.54427 16.4323 4.69531 16.3281V7.96875C4.69531 7.86458 4.70312 7.78385 4.71875 7.72656C4.73438 7.66927 4.76302 7.61979 4.80469 7.57812C4.84635 7.53646 4.91146 7.49219 5 7.44531L12.2422 3.26562C12.2526 3.01042 12.1849 2.80729 12.0391 2.65625C11.8984 2.50521 11.7135 2.42969 11.4844 2.42969C11.2812 2.42969 11.0651 2.49219 10.8359 2.61719L4.28125 6.39062C4.02604 6.53646 3.83594 6.66667 3.71094 6.78125C3.59115 6.89062 3.51302 7.02604 3.47656 7.1875C3.4401 7.34896 3.42188 7.57552 3.42188 7.86719V15.3516C3.42188 15.6849 3.4974 15.9557 3.64844 16.1641C3.80469 16.3776 4 16.4844 4.23438 16.4844ZM1.11719 14.6797C1.27344 14.6797 1.42708 14.6276 1.57812 14.5234V6.16406C1.57812 6.07031 1.58594 5.99479 1.60156 5.9375C1.61719 5.875 1.64583 5.82292 1.6875 5.78125C1.73438 5.73438 1.79688 5.6875 1.875 5.64062L9.11719 1.46875C9.13281 1.20833 9.06771 1.00521 8.92188 0.859375C8.77604 0.708333 8.59375 0.632812 8.375 0.632812C8.27083 0.632812 8.16406 0.648438 8.05469 0.679688C7.94531 0.710938 7.83333 0.760417 7.71875 0.828125L1.16406 4.59375C0.908854 4.74479 0.721354 4.875 0.601562 4.98438C0.481771 5.09375 0.403646 5.22917 0.367188 5.39062C0.330729 5.54688 0.3125 5.77344 0.3125 6.07031V13.5469C0.3125 13.8802 0.385417 14.1536 0.53125 14.3672C0.682292 14.5755 0.877604 14.6797 1.11719 14.6797Z" fill="white"/>
</svg>
