<svg width="134" height="132" viewBox="0 0 134 132" fill="none" xmlns="http://www.w3.org/2000/svg">
<path d="M0.9375 73.3125V83.125C0.9375 89.5833 2.5625 94.4375 5.8125 97.6875C9.10417 100.896 14.0208 102.5 20.5625 102.5H36.375V92.4375H20.6875C17.5625 92.4375 15.1667 91.6042 13.5 89.9375C11.8333 88.2708 11 85.8125 11 82.5625V73.3125H0.9375ZM11 64.75V36.375H0.9375V64.75H11ZM11 27.875V20.4375C11 17.1875 11.8333 14.7292 13.5 13.0625C15.1667 11.3958 17.5625 10.5625 20.6875 10.5625H29.75V0.5H20.5625C14.0208 0.5 9.10417 2.125 5.8125 5.375C2.5625 8.58333 0.9375 13.4167 0.9375 19.875V27.875H11ZM66.625 0.5H38.25V10.5625H66.625V0.5ZM75.125 10.5625H83.125C86.2083 10.5625 88.5833 11.3958 90.25 13.0625C91.9583 14.7292 92.8125 17.1875 92.8125 20.4375V34.125H102.875V19.875C102.875 13.4583 101.229 8.625 97.9375 5.375C94.6875 2.125 89.8125 0.5 83.3125 0.5H75.125V10.5625ZM50.875 131.438H113.625C120.125 131.438 125 129.812 128.25 126.562C131.542 123.312 133.188 118.479 133.188 112.062V48.8125C133.188 42.3958 131.542 37.5625 128.25 34.3125C125 31.0625 120.125 29.4375 113.625 29.4375H50.875C44.3333 29.4375 39.4167 31.0625 36.125 34.3125C32.875 37.5208 31.25 42.3542 31.25 48.8125V112.062C31.25 118.521 32.875 123.354 36.125 126.562C39.4167 129.812 44.3333 131.438 50.875 131.438ZM51 121.375C47.875 121.375 45.4792 120.542 43.8125 118.875C42.1458 117.208 41.3125 114.75 41.3125 111.5V49.375C41.3125 46.125 42.1458 43.6667 43.8125 42C45.4792 40.3333 47.875 39.5 51 39.5H113.438C116.521 39.5 118.896 40.3333 120.562 42C122.271 43.6667 123.125 46.125 123.125 49.375V111.5C123.125 114.75 122.271 117.208 120.562 118.875C118.896 120.542 116.521 121.375 113.438 121.375H51Z" fill="white"/>
</svg>
