<svg xmlns="http://www.w3.org/2000/svg" width="24" height="24"><path style="stroke:none;fill-rule:nonzero;fill:#fff;fill-opacity:1" d="M3.797 23.309h13.758c1.054 0 1.87-.305 2.449-.914.586-.602.879-1.508.879-2.72V7.149l-1.887 1.887v10.547c0 .61-.144 1.07-.433 1.383-.29.305-.633.457-1.032.457H3.832c-.586 0-1.039-.152-1.36-.457-.312-.313-.468-.774-.468-1.383v-13.3c0-.61.156-1.071.469-1.384.32-.312.773-.468 1.359-.468h10.676l1.887-1.887H3.797c-1.219 0-2.137.305-2.754.914-.617.602-.926 1.508-.926 2.719v13.5c0 1.21.309 2.117.926 2.719.617.609 1.535.914 2.754.914Zm4.265-7.594 2.286-.996L21.293 3.785l-1.605-1.582L8.754 13.137 7.699 15.34c-.047.101-.027.203.059.305.094.093.195.117.304.07ZM22.16 2.93l.844-.868c.195-.21.293-.44.293-.69a.87.87 0 0 0-.293-.68l-.27-.282a.823.823 0 0 0-.656-.246c-.25.016-.473.117-.668.305l-.855.844Zm0 0"/></svg>