<svg width="16" height="19" viewBox="0 0 16 19" fill="none" xmlns="http://www.w3.org/2000/svg">
<path d="M6.72656 9.69531V16.7812C6.72656 17.2188 6.80729 17.5547 6.96875 17.7891C7.13021 18.0234 7.35156 18.1484 7.63281 18.1641C7.91927 18.1849 8.24479 18.0911 8.60938 17.8828L14.7266 14.3438C14.9818 14.1979 15.1797 14.0469 15.3203 13.8906C15.4609 13.7344 15.5599 13.5547 15.6172 13.3516C15.6745 13.1484 15.7031 12.9089 15.7031 12.6328V5.35156C15.7031 4.98698 15.6094 4.71094 15.4219 4.52344C15.2396 4.33073 15.013 4.22656 14.7422 4.21094C14.4714 4.19531 14.2057 4.26042 13.9453 4.40625L7.6875 8.02344C7.45833 8.15885 7.27083 8.30469 7.125 8.46094C6.98438 8.61719 6.88281 8.79688 6.82031 9C6.75781 9.19792 6.72656 9.42969 6.72656 9.69531ZM8.34375 9.14844L14.2969 5.71094C14.3385 5.6901 14.3698 5.6875 14.3906 5.70312C14.4167 5.71875 14.4297 5.74479 14.4297 5.78125V12.6094C14.4297 12.7656 14.4062 12.8854 14.3594 12.9688C14.3177 13.0469 14.2318 13.125 14.1016 13.2031L8.11719 16.6562C8.08073 16.6719 8.05208 16.6745 8.03125 16.6641C8.01042 16.6536 8 16.6276 8 16.5859V9.74219C8 9.57552 8.02604 9.45312 8.07812 9.375C8.13021 9.29688 8.21875 9.22135 8.34375 9.14844ZM7.41406 14.6953V13.1875L4.79688 14.6953C4.76042 14.7161 4.73177 14.7214 4.71094 14.7109C4.6901 14.6953 4.67969 14.6693 4.67969 14.6328V7.78906C4.67969 7.6224 4.70573 7.5 4.75781 7.42188C4.8099 7.34375 4.89844 7.26823 5.02344 7.19531L10.9766 3.75781C11.013 3.73698 11.0443 3.73438 11.0703 3.75C11.0964 3.76562 11.1094 3.79167 11.1094 3.82812V6.75781L12.3828 6.09375V3.39844C12.3828 3.02865 12.2891 2.75 12.1016 2.5625C11.9193 2.375 11.6927 2.27344 11.4219 2.25781C11.151 2.23698 10.8854 2.30208 10.625 2.45312L4.36719 6.0625C4.13281 6.19792 3.94531 6.34375 3.80469 6.5C3.66406 6.65625 3.5625 6.83594 3.5 7.03906C3.4375 7.23698 3.40625 7.47135 3.40625 7.74219V14.8281C3.40625 15.2604 3.48698 15.5938 3.64844 15.8281C3.8099 16.0625 4.03125 16.1901 4.3125 16.2109C4.59896 16.2318 4.92448 16.138 5.28906 15.9297L7.41406 14.6953ZM4.03125 13.0547V11.5391L1.67969 12.8984C1.64323 12.9193 1.61458 12.9245 1.59375 12.9141C1.57292 12.8984 1.5625 12.8724 1.5625 12.8359V5.99219C1.5625 5.82552 1.58854 5.70312 1.64062 5.625C1.69271 5.54688 1.78125 5.47135 1.90625 5.39844L7.85938 1.96094C7.89583 1.9349 7.92708 1.93229 7.95312 1.95312C7.97917 1.96875 7.99219 1.99479 7.99219 2.03125V4.70312L9.26562 4.07031V1.60156C9.26562 1.23177 9.17188 0.953125 8.98438 0.765625C8.80208 0.578125 8.57552 0.476562 8.30469 0.460938C8.03385 0.440104 7.76823 0.502604 7.50781 0.648438L1.25 4.26562C1.01562 4.40104 0.828125 4.54688 0.6875 4.70312C0.546875 4.85938 0.445312 5.03906 0.382812 5.24219C0.320312 5.4401 0.289062 5.67448 0.289062 5.94531V13.0234C0.289062 13.4609 0.369792 13.7969 0.53125 14.0312C0.692708 14.2656 0.914062 14.3932 1.19531 14.4141C1.48177 14.4349 1.80729 14.3385 2.17188 14.125L4.03125 13.0547Z" fill="white"/>
</svg>
