<svg width="143" height="142" viewBox="0 0 143 142" fill="none" xmlns="http://www.w3.org/2000/svg">
<path d="M49.9375 63.875C52.6042 63.875 55.0208 63.2292 57.1875 61.9375C59.3958 60.6458 61.1458 58.8958 62.4375 56.6875C63.7292 54.4792 64.375 52.0417 64.375 49.375C64.375 46.7083 63.7292 44.2917 62.4375 42.125C61.1458 39.9167 59.3958 38.1667 57.1875 36.875C55.0208 35.5833 52.6042 34.9375 49.9375 34.9375C47.2292 34.9375 44.7708 35.5833 42.5625 36.875C40.3958 38.1667 38.6667 39.9167 37.375 42.125C36.0833 44.2917 35.4375 46.7083 35.4375 49.375C35.4375 52.0417 36.0833 54.4792 37.375 56.6875C38.6667 58.8958 40.3958 60.6458 42.5625 61.9375C44.7708 63.2292 47.2292 63.875 49.9375 63.875ZM49.9375 54.4375H127.75V44.375H49.9375V54.4375ZM127.75 63.875C130.417 63.875 132.833 63.2292 135 61.9375C137.208 60.6458 138.958 58.8958 140.25 56.6875C141.583 54.4792 142.25 52.0417 142.25 49.375C142.25 46.7083 141.583 44.2917 140.25 42.125C138.958 39.9167 137.208 38.1667 135 36.875C132.833 35.5833 130.417 34.9375 127.75 34.9375C125.083 34.9375 122.646 35.5833 120.438 36.875C118.271 38.1667 116.521 39.9167 115.188 42.125C113.896 44.2917 113.25 46.7083 113.25 49.375C113.25 52.0417 113.896 54.4792 115.188 56.6875C116.521 58.8958 118.271 60.6458 120.438 61.9375C122.646 63.2292 125.083 63.875 127.75 63.875ZM122.75 127.125H132.812V49.375H122.75V127.125ZM127.75 141.562C130.417 141.562 132.833 140.917 135 139.625C137.208 138.333 138.958 136.583 140.25 134.375C141.583 132.208 142.25 129.792 142.25 127.125C142.25 124.458 141.583 122.021 140.25 119.812C138.958 117.646 137.208 115.917 135 114.625C132.833 113.292 130.417 112.625 127.75 112.625C125.083 112.625 122.646 113.292 120.438 114.625C118.271 115.917 116.521 117.646 115.188 119.812C113.896 122.021 113.25 124.458 113.25 127.125C113.25 129.792 113.896 132.208 115.188 134.375C116.521 136.583 118.271 138.333 120.438 139.625C122.646 140.917 125.083 141.562 127.75 141.562ZM49.9375 132.125H127.75V122.062H49.9375V132.125ZM49.9375 141.562C52.6042 141.562 55.0208 140.917 57.1875 139.625C59.3958 138.333 61.1458 136.583 62.4375 134.375C63.7292 132.208 64.375 129.792 64.375 127.125C64.375 124.458 63.7292 122.021 62.4375 119.812C61.1458 117.646 59.3958 115.917 57.1875 114.625C55.0208 113.292 52.6042 112.625 49.9375 112.625C47.2292 112.625 44.7708 113.292 42.5625 114.625C40.3958 115.917 38.6667 117.646 37.375 119.812C36.0833 122.021 35.4375 124.458 35.4375 127.125C35.4375 129.792 36.0833 132.208 37.375 134.375C38.6667 136.583 40.3958 138.333 42.5625 139.625C44.7708 140.917 47.2292 141.562 49.9375 141.562ZM44.875 127.125H54.9375V49.375H44.875V127.125ZM15.4375 97.5H49.5625V87.4375H15.4375V97.5ZM15.4375 107C18.2292 107 20.7083 106.354 22.875 105.062C25.0417 103.729 26.75 101.979 28 99.8125C29.25 97.6042 29.875 95.1667 29.875 92.5C29.875 89.8333 29.2292 87.4167 27.9375 85.25C26.6458 83.0417 24.8958 81.2917 22.6875 80C20.5208 78.6667 18.1042 78 15.4375 78C12.7708 78 10.3333 78.6667 8.125 80C5.91667 81.2917 4.16667 83.0417 2.875 85.25C1.58333 87.4167 0.9375 89.8333 0.9375 92.5C0.9375 95.1667 1.58333 97.6042 2.875 99.8125C4.16667 101.979 5.91667 103.729 8.125 105.062C10.3333 106.354 12.7708 107 15.4375 107ZM10.375 92.5H20.4375V14.75H10.375V92.5ZM15.4375 29.25C18.1042 29.25 20.5208 28.6042 22.6875 27.3125C24.8958 26.0208 26.6458 24.2917 27.9375 22.125C29.2292 19.9167 29.875 17.4583 29.875 14.75C29.875 12.0833 29.2292 9.66667 27.9375 7.5C26.6458 5.29167 24.8958 3.54167 22.6875 2.25C20.5208 0.958333 18.1042 0.3125 15.4375 0.3125C12.7708 0.3125 10.3333 0.958333 8.125 2.25C5.91667 3.54167 4.16667 5.29167 2.875 7.5C1.58333 9.66667 0.9375 12.0833 0.9375 14.75C0.9375 17.4583 1.58333 19.9167 2.875 22.125C4.16667 24.2917 5.91667 26.0208 8.125 27.3125C10.3333 28.6042 12.7708 29.25 15.4375 29.25ZM15.4375 19.8125H93.25V9.75H15.4375V19.8125ZM93.25 29.25C95.9167 29.25 98.3333 28.6042 100.5 27.3125C102.708 26.0208 104.458 24.2917 105.75 22.125C107.083 19.9167 107.75 17.4583 107.75 14.75C107.75 12.0833 107.083 9.66667 105.75 7.5C104.458 5.29167 102.708 3.54167 100.5 2.25C98.3333 0.958333 95.9167 0.3125 93.25 0.3125C90.5833 0.3125 88.1458 0.958333 85.9375 2.25C83.7708 3.54167 82.0208 5.29167 80.6875 7.5C79.3958 9.66667 78.75 12.0833 78.75 14.75C78.75 17.4583 79.3958 19.9167 80.6875 22.125C82.0208 24.2917 83.7708 26.0208 85.9375 27.3125C88.1458 28.6042 90.5833 29.25 93.25 29.25ZM88.25 50.25H98.3125V14.75H88.25V50.25Z" fill="white"/>
</svg>
