<svg width="18" height="17" viewBox="0 0 18 17" fill="none" xmlns="http://www.w3.org/2000/svg">
<path d="M3.1875 12.9375H5.16406V11.6797H3.20312C2.8125 11.6797 2.51302 11.5755 2.30469 11.3672C2.09635 11.1589 1.99219 10.8516 1.99219 10.4453V2.67969C1.99219 2.27344 2.09635 1.96615 2.30469 1.75781C2.51302 1.54948 2.8125 1.44531 3.20312 1.44531H11.0078C11.3932 1.44531 11.6901 1.54948 11.8984 1.75781C12.112 1.96615 12.2188 2.27344 12.2188 2.67969V4.39062H13.4766V2.60938C13.4766 1.80729 13.2708 1.20312 12.8594 0.796875C12.4531 0.390625 11.8438 0.1875 11.0312 0.1875H3.1875C2.36979 0.1875 1.75521 0.390625 1.34375 0.796875C0.9375 1.19792 0.734375 1.80208 0.734375 2.60938V10.5156C0.734375 11.3229 0.9375 11.9297 1.34375 12.3359C1.75521 12.737 2.36979 12.9375 3.1875 12.9375ZM6.97656 16.5547H14.8203C15.6328 16.5547 16.2422 16.3516 16.6484 15.9453C17.0599 15.5391 17.2656 14.9349 17.2656 14.1328V6.22656C17.2656 5.42448 17.0599 4.82031 16.6484 4.41406C16.2422 4.00781 15.6328 3.80469 14.8203 3.80469H6.97656C6.15885 3.80469 5.54427 4.00781 5.13281 4.41406C4.72656 4.8151 4.52344 5.41927 4.52344 6.22656V14.1328C4.52344 14.9401 4.72656 15.5443 5.13281 15.9453C5.54427 16.3516 6.15885 16.5547 6.97656 16.5547Z" fill="white"/>
</svg>
