<?xml version="1.0" encoding="UTF-8"?>
<svg xmlns="http://www.w3.org/2000/svg" xmlns:xlink="http://www.w3.org/1999/xlink" width="24" height="22.5" viewBox="0 0 24 22.5" version="1.1">
<g id="surface1">
<path style=" stroke:none;fill-rule:nonzero;fill:rgb(100%,100%,100%);fill-opacity:1;" d="M 1.207031 20.90625 C 1.207031 21.1875 1.292969 21.414062 1.464844 21.585938 C 1.636719 21.757812 1.863281 21.84375 2.144531 21.84375 L 21.855469 21.84375 C 22.136719 21.84375 22.359375 21.757812 22.523438 21.585938 C 22.695312 21.414062 22.78125 21.1875 22.78125 20.90625 L 22.78125 1.195312 C 22.78125 0.914062 22.695312 0.691406 22.523438 0.527344 C 22.359375 0.355469 22.136719 0.269531 21.855469 0.269531 L 2.144531 0.269531 C 1.863281 0.269531 1.636719 0.355469 1.464844 0.527344 C 1.292969 0.691406 1.207031 0.914062 1.207031 1.195312 Z M 3.09375 19.617188 L 3.09375 2.496094 C 3.09375 2.269531 3.207031 2.15625 3.433594 2.15625 L 20.554688 2.15625 C 20.78125 2.15625 20.894531 2.269531 20.894531 2.496094 L 20.894531 19.617188 C 20.894531 19.84375 20.78125 19.957031 20.554688 19.957031 L 3.433594 19.957031 C 3.207031 19.957031 3.09375 19.84375 3.09375 19.617188 Z M 6.082031 17.871094 C 6.332031 17.871094 6.546875 17.785156 6.726562 17.613281 C 6.90625 17.433594 6.996094 17.21875 6.996094 16.96875 C 6.996094 16.710938 6.90625 16.496094 6.726562 16.324219 C 6.546875 16.144531 6.332031 16.054688 6.082031 16.054688 C 5.832031 16.054688 5.617188 16.144531 5.4375 16.324219 C 5.257812 16.496094 5.167969 16.710938 5.167969 16.96875 C 5.167969 17.21875 5.257812 17.433594 5.4375 17.613281 C 5.617188 17.785156 5.832031 17.871094 6.082031 17.871094 Z M 6.082031 14.917969 C 6.332031 14.917969 6.546875 14.828125 6.726562 14.648438 C 6.90625 14.46875 6.996094 14.253906 6.996094 14.003906 C 6.996094 13.753906 6.90625 13.539062 6.726562 13.359375 C 6.546875 13.179688 6.332031 13.089844 6.082031 13.089844 C 5.832031 13.089844 5.617188 13.179688 5.4375 13.359375 C 5.257812 13.539062 5.167969 13.753906 5.167969 14.003906 C 5.167969 14.253906 5.257812 14.46875 5.4375 14.648438 C 5.617188 14.828125 5.832031 14.917969 6.082031 14.917969 Z M 6.082031 11.953125 C 6.332031 11.953125 6.546875 11.867188 6.726562 11.695312 C 6.90625 11.515625 6.996094 11.296875 6.996094 11.039062 C 6.996094 10.789062 6.90625 10.578125 6.726562 10.40625 C 6.546875 10.226562 6.332031 10.136719 6.082031 10.136719 C 5.832031 10.136719 5.617188 10.226562 5.4375 10.40625 C 5.257812 10.578125 5.167969 10.789062 5.167969 11.039062 C 5.167969 11.296875 5.257812 11.515625 5.4375 11.695312 C 5.617188 11.867188 5.832031 11.953125 6.082031 11.953125 Z M 6.082031 9 C 6.332031 9 6.546875 8.910156 6.726562 8.730469 C 6.90625 8.550781 6.996094 8.335938 6.996094 8.085938 C 6.996094 7.835938 6.90625 7.621094 6.726562 7.441406 C 6.546875 7.261719 6.332031 7.171875 6.082031 7.171875 C 5.832031 7.171875 5.617188 7.261719 5.4375 7.441406 C 5.257812 7.621094 5.167969 7.835938 5.167969 8.085938 C 5.167969 8.335938 5.257812 8.550781 5.4375 8.730469 C 5.617188 8.910156 5.832031 9 6.082031 9 Z M 6.082031 6.035156 C 6.332031 6.035156 6.546875 5.945312 6.726562 5.765625 C 6.90625 5.585938 6.996094 5.371094 6.996094 5.121094 C 6.996094 4.871094 6.90625 4.65625 6.726562 4.476562 C 6.546875 4.296875 6.332031 4.207031 6.082031 4.207031 C 5.832031 4.207031 5.617188 4.296875 5.4375 4.476562 C 5.257812 4.65625 5.167969 4.871094 5.167969 5.121094 C 5.167969 5.371094 5.257812 5.585938 5.4375 5.765625 C 5.617188 5.945312 5.832031 6.035156 6.082031 6.035156 Z M 9.035156 6.035156 C 9.292969 6.035156 9.507812 5.945312 9.679688 5.765625 C 9.859375 5.585938 9.949219 5.371094 9.949219 5.121094 C 9.949219 4.871094 9.859375 4.65625 9.679688 4.476562 C 9.507812 4.296875 9.292969 4.207031 9.035156 4.207031 C 8.785156 4.207031 8.570312 4.296875 8.390625 4.476562 C 8.21875 4.65625 8.132812 4.871094 8.132812 5.121094 C 8.132812 5.371094 8.21875 5.585938 8.390625 5.765625 C 8.570312 5.945312 8.785156 6.035156 9.035156 6.035156 Z M 12 6.035156 C 12.25 6.035156 12.464844 5.945312 12.644531 5.765625 C 12.824219 5.585938 12.914062 5.371094 12.914062 5.121094 C 12.914062 4.871094 12.824219 4.65625 12.644531 4.476562 C 12.464844 4.296875 12.25 4.207031 12 4.207031 C 11.75 4.207031 11.535156 4.296875 11.355469 4.476562 C 11.175781 4.65625 11.085938 4.871094 11.085938 5.121094 C 11.085938 5.371094 11.175781 5.585938 11.355469 5.765625 C 11.535156 5.945312 11.75 6.035156 12 6.035156 Z M 14.964844 6.035156 C 15.214844 6.035156 15.429688 5.945312 15.609375 5.765625 C 15.789062 5.585938 15.878906 5.371094 15.878906 5.121094 C 15.878906 4.871094 15.789062 4.65625 15.609375 4.476562 C 15.429688 4.296875 15.214844 4.207031 14.964844 4.207031 C 14.714844 4.207031 14.5 4.296875 14.320312 4.476562 C 14.140625 4.65625 14.050781 4.871094 14.050781 5.121094 C 14.050781 5.371094 14.140625 5.585938 14.320312 5.765625 C 14.5 5.945312 14.714844 6.035156 14.964844 6.035156 Z M 17.929688 6.035156 C 18.179688 6.035156 18.390625 5.945312 18.5625 5.765625 C 18.742188 5.585938 18.832031 5.371094 18.832031 5.121094 C 18.832031 4.871094 18.742188 4.65625 18.5625 4.476562 C 18.390625 4.296875 18.179688 4.207031 17.929688 4.207031 C 17.671875 4.207031 17.453125 4.296875 17.273438 4.476562 C 17.101562 4.65625 17.015625 4.871094 17.015625 5.121094 C 17.015625 5.371094 17.101562 5.585938 17.273438 5.765625 C 17.453125 5.945312 17.671875 6.035156 17.929688 6.035156 Z M 17.929688 9 C 18.179688 9 18.390625 8.910156 18.5625 8.730469 C 18.742188 8.550781 18.832031 8.335938 18.832031 8.085938 C 18.832031 7.835938 18.742188 7.621094 18.5625 7.441406 C 18.390625 7.261719 18.179688 7.171875 17.929688 7.171875 C 17.671875 7.171875 17.453125 7.261719 17.273438 7.441406 C 17.101562 7.621094 17.015625 7.835938 17.015625 8.085938 C 17.015625 8.335938 17.101562 8.550781 17.273438 8.730469 C 17.453125 8.910156 17.671875 9 17.929688 9 Z M 17.929688 11.953125 C 18.179688 11.953125 18.390625 11.867188 18.5625 11.695312 C 18.742188 11.515625 18.832031 11.296875 18.832031 11.039062 C 18.832031 10.789062 18.742188 10.578125 18.5625 10.40625 C 18.390625 10.226562 18.179688 10.136719 17.929688 10.136719 C 17.671875 10.136719 17.453125 10.226562 17.273438 10.40625 C 17.101562 10.578125 17.015625 10.789062 17.015625 11.039062 C 17.015625 11.296875 17.101562 11.515625 17.273438 11.695312 C 17.453125 11.867188 17.671875 11.953125 17.929688 11.953125 Z M 17.929688 14.917969 C 18.179688 14.917969 18.390625 14.828125 18.5625 14.648438 C 18.742188 14.46875 18.832031 14.253906 18.832031 14.003906 C 18.832031 13.753906 18.742188 13.539062 18.5625 13.359375 C 18.390625 13.179688 18.179688 13.089844 17.929688 13.089844 C 17.671875 13.089844 17.453125 13.179688 17.273438 13.359375 C 17.101562 13.539062 17.015625 13.753906 17.015625 14.003906 C 17.015625 14.253906 17.101562 14.46875 17.273438 14.648438 C 17.453125 14.828125 17.671875 14.917969 17.929688 14.917969 Z M 17.929688 17.871094 C 18.179688 17.871094 18.390625 17.785156 18.5625 17.613281 C 18.742188 17.433594 18.832031 17.21875 18.832031 16.96875 C 18.832031 16.710938 18.742188 16.496094 18.5625 16.324219 C 18.390625 16.144531 18.179688 16.054688 17.929688 16.054688 C 17.671875 16.054688 17.453125 16.144531 17.273438 16.324219 C 17.101562 16.496094 17.015625 16.710938 17.015625 16.96875 C 17.015625 17.21875 17.101562 17.433594 17.273438 17.613281 C 17.453125 17.785156 17.671875 17.871094 17.929688 17.871094 Z M 14.964844 17.871094 C 15.214844 17.871094 15.429688 17.785156 15.609375 17.613281 C 15.789062 17.433594 15.878906 17.21875 15.878906 16.96875 C 15.878906 16.710938 15.789062 16.496094 15.609375 16.324219 C 15.429688 16.144531 15.214844 16.054688 14.964844 16.054688 C 14.714844 16.054688 14.5 16.144531 14.320312 16.324219 C 14.140625 16.496094 14.050781 16.710938 14.050781 16.96875 C 14.050781 17.21875 14.140625 17.433594 14.320312 17.613281 C 14.5 17.785156 14.714844 17.871094 14.964844 17.871094 Z M 12 17.871094 C 12.25 17.871094 12.464844 17.785156 12.644531 17.613281 C 12.824219 17.433594 12.914062 17.21875 12.914062 16.96875 C 12.914062 16.710938 12.824219 16.496094 12.644531 16.324219 C 12.464844 16.144531 12.25 16.054688 12 16.054688 C 11.75 16.054688 11.535156 16.144531 11.355469 16.324219 C 11.175781 16.496094 11.085938 16.710938 11.085938 16.96875 C 11.085938 17.21875 11.175781 17.433594 11.355469 17.613281 C 11.535156 17.785156 11.75 17.871094 12 17.871094 Z M 9.035156 17.871094 C 9.292969 17.871094 9.507812 17.785156 9.679688 17.613281 C 9.859375 17.433594 9.949219 17.21875 9.949219 16.96875 C 9.949219 16.710938 9.859375 16.496094 9.679688 16.324219 C 9.507812 16.144531 9.292969 16.054688 9.035156 16.054688 C 8.785156 16.054688 8.570312 16.144531 8.390625 16.324219 C 8.21875 16.496094 8.132812 16.710938 8.132812 16.96875 C 8.132812 17.21875 8.21875 17.433594 8.390625 17.613281 C 8.570312 17.785156 8.785156 17.871094 9.035156 17.871094 Z M 9.035156 17.871094 "/>
</g>
</svg>
