<svg width="116" height="116" viewBox="0 0 116 116" fill="none" xmlns="http://www.w3.org/2000/svg">
<path d="M6.25 115.375C7.70833 115.375 8.95833 114.854 10 113.812C11.0417 112.771 11.5625 111.521 11.5625 110.062C11.5625 108.562 11.0417 107.292 10 106.25C8.95833 105.25 7.70833 104.75 6.25 104.75C4.79167 104.75 3.54167 105.25 2.5 106.25C1.45833 107.292 0.9375 108.562 0.9375 110.062C0.9375 111.521 1.45833 112.771 2.5 113.812C3.54167 114.854 4.79167 115.375 6.25 115.375ZM6.25 97.875C7.70833 97.875 8.95833 97.3542 10 96.3125C11.0417 95.2708 11.5625 94.0208 11.5625 92.5625C11.5625 91.1042 11.0417 89.8542 10 88.8125C8.95833 87.7708 7.70833 87.25 6.25 87.25C4.79167 87.25 3.54167 87.7708 2.5 88.8125C1.45833 89.8542 0.9375 91.1042 0.9375 92.5625C0.9375 94.0208 1.45833 95.2708 2.5 96.3125C3.54167 97.3542 4.79167 97.875 6.25 97.875ZM6.25 80.5625C7.70833 80.5625 8.95833 80.0417 10 79C11.0417 77.9583 11.5625 76.7083 11.5625 75.25C11.5625 73.7917 11.0417 72.5417 10 71.5C8.95833 70.4583 7.70833 69.9375 6.25 69.9375C4.79167 69.9375 3.54167 70.4583 2.5 71.5C1.45833 72.5417 0.9375 73.7917 0.9375 75.25C0.9375 76.7083 1.45833 77.9583 2.5 79C3.54167 80.0417 4.79167 80.5625 6.25 80.5625ZM6.25 63.1875C7.70833 63.1875 8.95833 62.6667 10 61.625C11.0417 60.5833 11.5625 59.3333 11.5625 57.875C11.5625 56.4167 11.0417 55.1667 10 54.125C8.95833 53.0833 7.70833 52.5625 6.25 52.5625C4.79167 52.5625 3.54167 53.0833 2.5 54.125C1.45833 55.1667 0.9375 56.4167 0.9375 57.875C0.9375 59.3333 1.45833 60.5833 2.5 61.625C3.54167 62.6667 4.79167 63.1875 6.25 63.1875ZM6.25 45.75C7.70833 45.75 8.95833 45.25 10 44.25C11.0417 43.2083 11.5625 41.9583 11.5625 40.5C11.5625 39 11.0417 37.75 10 36.75C8.95833 35.7083 7.70833 35.1875 6.25 35.1875C4.79167 35.1875 3.54167 35.7083 2.5 36.75C1.45833 37.75 0.9375 39 0.9375 40.5C0.9375 41.9583 1.45833 43.2083 2.5 44.25C3.54167 45.25 4.79167 45.75 6.25 45.75ZM6.25 28.5625C7.70833 28.5625 8.95833 28.0417 10 27C11.0417 25.9583 11.5625 24.7083 11.5625 23.25C11.5625 21.7917 11.0417 20.5417 10 19.5C8.95833 18.4583 7.70833 17.9375 6.25 17.9375C4.79167 17.9375 3.54167 18.4583 2.5 19.5C1.45833 20.5417 0.9375 21.7917 0.9375 23.25C0.9375 24.7083 1.45833 25.9583 2.5 27C3.54167 28.0417 4.79167 28.5625 6.25 28.5625ZM6.25 11.1875C7.70833 11.1875 8.95833 10.6667 10 9.625C11.0417 8.58333 11.5625 7.33333 11.5625 5.875C11.5625 4.41667 11.0417 3.16667 10 2.125C8.95833 1.08333 7.70833 0.5625 6.25 0.5625C4.79167 0.5625 3.54167 1.08333 2.5 2.125C1.45833 3.16667 0.9375 4.41667 0.9375 5.875C0.9375 7.33333 1.45833 8.58333 2.5 9.625C3.54167 10.6667 4.79167 11.1875 6.25 11.1875ZM23.625 11.1875C25.0833 11.1875 26.3333 10.6667 27.375 9.625C28.4167 8.58333 28.9375 7.33333 28.9375 5.875C28.9375 4.41667 28.4167 3.16667 27.375 2.125C26.3333 1.08333 25.0833 0.5625 23.625 0.5625C22.1667 0.5625 20.9167 1.08333 19.875 2.125C18.8333 3.16667 18.3125 4.41667 18.3125 5.875C18.3125 7.33333 18.8333 8.58333 19.875 9.625C20.9167 10.6667 22.1667 11.1875 23.625 11.1875ZM40.9375 11.1875C42.3958 11.1875 43.6458 10.6667 44.6875 9.625C45.7292 8.58333 46.25 7.33333 46.25 5.875C46.25 4.41667 45.7292 3.16667 44.6875 2.125C43.6458 1.08333 42.3958 0.5625 40.9375 0.5625C39.4792 0.5625 38.2292 1.08333 37.1875 2.125C36.1458 3.16667 35.625 4.41667 35.625 5.875C35.625 7.33333 36.1458 8.58333 37.1875 9.625C38.2292 10.6667 39.4792 11.1875 40.9375 11.1875ZM58.3125 11.1875C59.8125 11.1875 61.0625 10.6667 62.0625 9.625C63.1042 8.58333 63.625 7.33333 63.625 5.875C63.625 4.41667 63.1042 3.16667 62.0625 2.125C61.0625 1.08333 59.8125 0.5625 58.3125 0.5625C56.8542 0.5625 55.6042 1.08333 54.5625 2.125C53.5208 3.16667 53 4.41667 53 5.875C53 7.33333 53.5208 8.58333 54.5625 9.625C55.6042 10.6667 56.8542 11.1875 58.3125 11.1875ZM75.75 11.1875C77.2083 11.1875 78.4583 10.6667 79.5 9.625C80.5417 8.58333 81.0625 7.33333 81.0625 5.875C81.0625 4.41667 80.5417 3.16667 79.5 2.125C78.4583 1.08333 77.2083 0.5625 75.75 0.5625C74.25 0.5625 72.9792 1.08333 71.9375 2.125C70.9375 3.16667 70.4375 4.41667 70.4375 5.875C70.4375 7.33333 70.9375 8.58333 71.9375 9.625C72.9792 10.6667 74.25 11.1875 75.75 11.1875ZM93.0625 11.1875C94.5208 11.1875 95.75 10.6667 96.75 9.625C97.7917 8.58333 98.3125 7.33333 98.3125 5.875C98.3125 4.41667 97.7917 3.16667 96.75 2.125C95.75 1.08333 94.5208 0.5625 93.0625 0.5625C91.5625 0.5625 90.2917 1.08333 89.25 2.125C88.25 3.16667 87.75 4.41667 87.75 5.875C87.75 7.33333 88.25 8.58333 89.25 9.625C90.2917 10.6667 91.5625 11.1875 93.0625 11.1875ZM110.438 11.1875C111.896 11.1875 113.146 10.6667 114.188 9.625C115.229 8.58333 115.75 7.33333 115.75 5.875C115.75 4.41667 115.229 3.16667 114.188 2.125C113.146 1.08333 111.896 0.5625 110.438 0.5625C108.979 0.5625 107.729 1.08333 106.688 2.125C105.646 3.16667 105.125 4.41667 105.125 5.875C105.125 7.33333 105.646 8.58333 106.688 9.625C107.729 10.6667 108.979 11.1875 110.438 11.1875ZM110.438 28.625C111.896 28.625 113.146 28.1042 114.188 27.0625C115.229 26.0208 115.75 24.7708 115.75 23.3125C115.75 21.8542 115.229 20.6042 114.188 19.5625C113.146 18.5208 111.896 18 110.438 18C108.979 18 107.729 18.5208 106.688 19.5625C105.646 20.6042 105.125 21.8542 105.125 23.3125C105.125 24.7708 105.646 26.0208 106.688 27.0625C107.729 28.1042 108.979 28.625 110.438 28.625ZM110.438 45.8125C111.896 45.8125 113.146 45.3125 114.188 44.3125C115.229 43.2708 115.75 42.0208 115.75 40.5625C115.75 39.0625 115.229 37.8125 114.188 36.8125C113.146 35.7708 111.896 35.25 110.438 35.25C108.979 35.25 107.729 35.7708 106.688 36.8125C105.646 37.8125 105.125 39.0625 105.125 40.5625C105.125 42.0208 105.646 43.2708 106.688 44.3125C107.729 45.3125 108.979 45.8125 110.438 45.8125ZM110.438 63.25C111.896 63.25 113.146 62.7292 114.188 61.6875C115.229 60.6458 115.75 59.3958 115.75 57.9375C115.75 56.4792 115.229 55.2292 114.188 54.1875C113.146 53.1458 111.896 52.625 110.438 52.625C108.979 52.625 107.729 53.1458 106.688 54.1875C105.646 55.2292 105.125 56.4792 105.125 57.9375C105.125 59.3958 105.646 60.6458 106.688 61.6875C107.729 62.7292 108.979 63.25 110.438 63.25ZM110.438 80.625C111.896 80.625 113.146 80.1042 114.188 79.0625C115.229 78.0208 115.75 76.7708 115.75 75.3125C115.75 73.8542 115.229 72.6042 114.188 71.5625C113.146 70.5208 111.896 70 110.438 70C108.979 70 107.729 70.5208 106.688 71.5625C105.646 72.6042 105.125 73.8542 105.125 75.3125C105.125 76.7708 105.646 78.0208 106.688 79.0625C107.729 80.1042 108.979 80.625 110.438 80.625ZM110.438 97.9375C111.896 97.9375 113.146 97.4167 114.188 96.375C115.229 95.3333 115.75 94.0833 115.75 92.625C115.75 91.1667 115.229 89.9167 114.188 88.875C113.146 87.8333 111.896 87.3125 110.438 87.3125C108.979 87.3125 107.729 87.8333 106.688 88.875C105.646 89.9167 105.125 91.1667 105.125 92.625C105.125 94.0833 105.646 95.3333 106.688 96.375C107.729 97.4167 108.979 97.9375 110.438 97.9375ZM110.438 115.375C111.896 115.375 113.146 114.854 114.188 113.812C115.229 112.771 115.75 111.521 115.75 110.062C115.75 108.562 115.229 107.292 114.188 106.25C113.146 105.25 111.896 104.75 110.438 104.75C108.979 104.75 107.729 105.25 106.688 106.25C105.646 107.292 105.125 108.562 105.125 110.062C105.125 111.521 105.646 112.771 106.688 113.812C107.729 114.854 108.979 115.375 110.438 115.375ZM93.0625 115.375C94.5208 115.375 95.75 114.854 96.75 113.812C97.7917 112.771 98.3125 111.521 98.3125 110.062C98.3125 108.562 97.7917 107.292 96.75 106.25C95.75 105.25 94.5208 104.75 93.0625 104.75C91.5625 104.75 90.2917 105.25 89.25 106.25C88.25 107.292 87.75 108.562 87.75 110.062C87.75 111.521 88.25 112.771 89.25 113.812C90.2917 114.854 91.5625 115.375 93.0625 115.375ZM75.75 115.375C77.2083 115.375 78.4583 114.854 79.5 113.812C80.5417 112.771 81.0625 111.521 81.0625 110.062C81.0625 108.562 80.5417 107.292 79.5 106.25C78.4583 105.25 77.2083 104.75 75.75 104.75C74.25 104.75 72.9792 105.25 71.9375 106.25C70.9375 107.292 70.4375 108.562 70.4375 110.062C70.4375 111.521 70.9375 112.771 71.9375 113.812C72.9792 114.854 74.25 115.375 75.75 115.375ZM58.3125 115.375C59.8125 115.375 61.0625 114.854 62.0625 113.812C63.1042 112.771 63.625 111.521 63.625 110.062C63.625 108.562 63.1042 107.292 62.0625 106.25C61.0625 105.25 59.8125 104.75 58.3125 104.75C56.8542 104.75 55.6042 105.25 54.5625 106.25C53.5208 107.292 53 108.562 53 110.062C53 111.521 53.5208 112.771 54.5625 113.812C55.6042 114.854 56.8542 115.375 58.3125 115.375ZM40.9375 115.375C42.3958 115.375 43.6458 114.854 44.6875 113.812C45.7292 112.771 46.25 111.521 46.25 110.062C46.25 108.562 45.7292 107.292 44.6875 106.25C43.6458 105.25 42.3958 104.75 40.9375 104.75C39.4792 104.75 38.2292 105.25 37.1875 106.25C36.1458 107.292 35.625 108.562 35.625 110.062C35.625 111.521 36.1458 112.771 37.1875 113.812C38.2292 114.854 39.4792 115.375 40.9375 115.375ZM23.625 115.375C25.0833 115.375 26.3333 114.854 27.375 113.812C28.4167 112.771 28.9375 111.521 28.9375 110.062C28.9375 108.562 28.4167 107.292 27.375 106.25C26.3333 105.25 25.0833 104.75 23.625 104.75C22.1667 104.75 20.9167 105.25 19.875 106.25C18.8333 107.292 18.3125 108.562 18.3125 110.062C18.3125 111.521 18.8333 112.771 19.875 113.812C20.9167 114.854 22.1667 115.375 23.625 115.375ZM23.375 87.625C23.375 89.125 23.8333 90.3333 24.75 91.25C25.6667 92.1667 26.875 92.625 28.375 92.625H88.4375C89.9375 92.625 91.1458 92.1667 92.0625 91.25C92.9792 90.3333 93.4375 89.125 93.4375 87.625V28.0625C93.4375 26.5625 92.9792 25.375 92.0625 24.5C91.1458 23.5833 89.9375 23.125 88.4375 23.125H28.375C26.875 23.125 25.6667 23.5833 24.75 24.5C23.8333 25.375 23.375 26.5625 23.375 28.0625V87.625ZM33.4375 80.75V35C33.4375 33.7917 34.0417 33.1875 35.25 33.1875H81.5625C82.7708 33.1875 83.375 33.7917 83.375 35V80.75C83.375 81.9583 82.7708 82.5625 81.5625 82.5625H35.25C34.0417 82.5625 33.4375 81.9583 33.4375 80.75Z" fill="white"/>
</svg>
