<?xml version="1.0" encoding="UTF-8"?>
<svg xmlns="http://www.w3.org/2000/svg" xmlns:xlink="http://www.w3.org/1999/xlink" width="24" height="22.5" viewBox="0 0 24 22.5" version="1.1">
<g id="surface1">
<path style=" stroke:none;fill-rule:nonzero;fill:rgb(100%,100%,100%);fill-opacity:1;" d="M 3.445312 10.089844 L 8.789062 10.089844 C 9.53125 10.089844 10.089844 9.902344 10.464844 9.527344 C 10.839844 9.144531 11.027344 8.566406 11.027344 7.792969 L 11.027344 2.554688 C 11.027344 1.78125 10.839844 1.207031 10.464844 0.832031 C 10.089844 0.457031 9.53125 0.269531 8.789062 0.269531 L 3.445312 0.269531 C 2.703125 0.269531 2.144531 0.457031 1.769531 0.832031 C 1.394531 1.207031 1.207031 1.78125 1.207031 2.554688 L 1.207031 7.792969 C 1.207031 8.566406 1.394531 9.144531 1.769531 9.527344 C 2.144531 9.902344 2.703125 10.089844 3.445312 10.089844 Z M 3.46875 8.4375 C 3.265625 8.4375 3.113281 8.382812 3.011719 8.273438 C 2.910156 8.164062 2.859375 8.003906 2.859375 7.792969 L 2.859375 2.554688 C 2.859375 2.34375 2.910156 2.1875 3.011719 2.085938 C 3.113281 1.976562 3.265625 1.921875 3.46875 1.921875 L 8.753906 1.921875 C 8.957031 1.921875 9.109375 1.976562 9.210938 2.085938 C 9.320312 2.1875 9.375 2.34375 9.375 2.554688 L 9.375 7.792969 C 9.375 8.003906 9.320312 8.164062 9.210938 8.273438 C 9.109375 8.382812 8.957031 8.4375 8.753906 8.4375 Z M 15.210938 10.089844 L 20.542969 10.089844 C 21.285156 10.089844 21.84375 9.902344 22.21875 9.527344 C 22.59375 9.144531 22.78125 8.566406 22.78125 7.792969 L 22.78125 2.554688 C 22.78125 1.78125 22.59375 1.207031 22.21875 0.832031 C 21.84375 0.457031 21.285156 0.269531 20.542969 0.269531 L 15.210938 0.269531 C 14.460938 0.269531 13.898438 0.457031 13.523438 0.832031 C 13.148438 1.207031 12.960938 1.78125 12.960938 2.554688 L 12.960938 7.792969 C 12.960938 8.566406 13.148438 9.144531 13.523438 9.527344 C 13.898438 9.902344 14.460938 10.089844 15.210938 10.089844 Z M 15.234375 8.4375 C 15.023438 8.4375 14.867188 8.382812 14.765625 8.273438 C 14.664062 8.164062 14.613281 8.003906 14.613281 7.792969 L 14.613281 2.554688 C 14.613281 2.34375 14.664062 2.1875 14.765625 2.085938 C 14.867188 1.976562 15.023438 1.921875 15.234375 1.921875 L 20.519531 1.921875 C 20.730469 1.921875 20.882812 1.976562 20.976562 2.085938 C 21.078125 2.1875 21.128906 2.34375 21.128906 2.554688 L 21.128906 7.792969 C 21.128906 8.003906 21.078125 8.164062 20.976562 8.273438 C 20.882812 8.382812 20.730469 8.4375 20.519531 8.4375 Z M 3.445312 21.84375 L 8.789062 21.84375 C 9.53125 21.84375 10.089844 21.65625 10.464844 21.28125 C 10.839844 20.90625 11.027344 20.332031 11.027344 19.558594 L 11.027344 14.308594 C 11.027344 13.542969 10.839844 12.972656 10.464844 12.597656 C 10.089844 12.214844 9.53125 12.023438 8.789062 12.023438 L 3.445312 12.023438 C 2.703125 12.023438 2.144531 12.214844 1.769531 12.597656 C 1.394531 12.972656 1.207031 13.542969 1.207031 14.308594 L 1.207031 19.558594 C 1.207031 20.332031 1.394531 20.90625 1.769531 21.28125 C 2.144531 21.65625 2.703125 21.84375 3.445312 21.84375 Z M 3.46875 20.191406 C 3.265625 20.191406 3.113281 20.136719 3.011719 20.027344 C 2.910156 19.925781 2.859375 19.769531 2.859375 19.558594 L 2.859375 14.320312 C 2.859375 14.101562 2.910156 13.941406 3.011719 13.839844 C 3.113281 13.730469 3.265625 13.675781 3.46875 13.675781 L 8.753906 13.675781 C 8.957031 13.675781 9.109375 13.730469 9.210938 13.839844 C 9.320312 13.941406 9.375 14.101562 9.375 14.320312 L 9.375 19.558594 C 9.375 19.769531 9.320312 19.925781 9.210938 20.027344 C 9.109375 20.136719 8.957031 20.191406 8.753906 20.191406 Z M 15.210938 21.84375 L 20.542969 21.84375 C 21.285156 21.84375 21.84375 21.65625 22.21875 21.28125 C 22.59375 20.90625 22.78125 20.332031 22.78125 19.558594 L 22.78125 14.308594 C 22.78125 13.542969 22.59375 12.972656 22.21875 12.597656 C 21.84375 12.214844 21.285156 12.023438 20.542969 12.023438 L 15.210938 12.023438 C 14.460938 12.023438 13.898438 12.214844 13.523438 12.597656 C 13.148438 12.972656 12.960938 13.542969 12.960938 14.308594 L 12.960938 19.558594 C 12.960938 20.332031 13.148438 20.90625 13.523438 21.28125 C 13.898438 21.65625 14.460938 21.84375 15.210938 21.84375 Z M 15.234375 20.191406 C 15.023438 20.191406 14.867188 20.136719 14.765625 20.027344 C 14.664062 19.925781 14.613281 19.769531 14.613281 19.558594 L 14.613281 14.320312 C 14.613281 14.101562 14.664062 13.941406 14.765625 13.839844 C 14.867188 13.730469 15.023438 13.675781 15.234375 13.675781 L 20.519531 13.675781 C 20.730469 13.675781 20.882812 13.730469 20.976562 13.839844 C 21.078125 13.941406 21.128906 14.101562 21.128906 14.320312 L 21.128906 19.558594 C 21.128906 19.769531 21.078125 19.925781 20.976562 20.027344 C 20.882812 20.136719 20.730469 20.191406 20.519531 20.191406 Z M 15.234375 20.191406 "/>
</g>
</svg>
