<svg width="16" height="19" viewBox="0 0 16 19" fill="none" xmlns="http://www.w3.org/2000/svg">
<path d="M12.0234 11.8906L14.2891 13.1875C14.3307 13.2083 14.3516 13.2318 14.3516 13.2578C14.3516 13.2891 14.3307 13.3151 14.2891 13.3359L8.34375 16.7422C8.21354 16.8151 8.09896 16.8516 8 16.8516C7.89583 16.8516 7.77865 16.8151 7.64844 16.7422L1.70312 13.3359C1.66667 13.3151 1.64844 13.2891 1.64844 13.2578C1.64844 13.2318 1.66667 13.2083 1.70312 13.1875L4.15625 11.7891L2.84375 11.0469L0.890625 12.1797C0.578125 12.3672 0.354167 12.5417 0.21875 12.7031C0.0833333 12.8594 0.015625 13.0443 0.015625 13.2578C0.015625 13.4766 0.0833333 13.6667 0.21875 13.8281C0.354167 13.9844 0.578125 14.1562 0.890625 14.3438L7.00781 17.8906C7.19531 18 7.36719 18.0807 7.52344 18.1328C7.67969 18.1849 7.83854 18.2109 8 18.2109C8.15625 18.2109 8.3125 18.1849 8.46875 18.1328C8.63021 18.0807 8.80469 18 8.99219 17.8906L15.1016 14.3438C15.4193 14.1562 15.6458 13.9844 15.7812 13.8281C15.9167 13.6667 15.9844 13.4766 15.9844 13.2578C15.9844 13.0443 15.9167 12.8594 15.7812 12.7031C15.6458 12.5417 15.4193 12.3672 15.1016 12.1797L13.2422 11.0938L12.0234 11.8906ZM11.8516 8.19531L14.2891 9.58594C14.3307 9.60677 14.3516 9.63281 14.3516 9.66406C14.3516 9.69531 14.3307 9.72135 14.2891 9.74219L8.34375 13.1406C8.21354 13.2135 8.09896 13.25 8 13.25C7.89583 13.25 7.77865 13.2135 7.64844 13.1406L1.70312 9.74219C1.66667 9.72135 1.64844 9.69531 1.64844 9.66406C1.64844 9.63281 1.66667 9.60677 1.70312 9.58594L4.33594 8.07812L3.08594 7.3125L0.890625 8.57812C0.578125 8.76562 0.354167 8.9401 0.21875 9.10156C0.0833333 9.26302 0.015625 9.45052 0.015625 9.66406C0.015625 9.8776 0.0833333 10.0651 0.21875 10.2266C0.354167 10.388 0.578125 10.5599 0.890625 10.7422L7.00781 14.2969C7.19531 14.4062 7.36719 14.487 7.52344 14.5391C7.67969 14.5911 7.83854 14.6172 8 14.6172C8.15625 14.6172 8.3125 14.5911 8.46875 14.5391C8.63021 14.487 8.80469 14.4062 8.99219 14.2969L15.1016 10.7422C15.4193 10.5599 15.6458 10.388 15.7812 10.2266C15.9167 10.0651 15.9844 9.8776 15.9844 9.66406C15.9844 9.45052 15.9167 9.26302 15.7812 9.10156C15.6458 8.9401 15.4193 8.76562 15.1016 8.57812L13.0625 7.39062L11.8516 8.19531ZM8 10.7656C8.15625 10.7656 8.3125 10.7396 8.46875 10.6875C8.63021 10.6354 8.80469 10.5547 8.99219 10.4453L15.1016 6.89844C15.4193 6.71094 15.6458 6.53906 15.7812 6.38281C15.9167 6.22135 15.9844 6.03125 15.9844 5.8125C15.9844 5.59896 15.9167 5.41406 15.7812 5.25781C15.6458 5.09635 15.4193 4.92188 15.1016 4.73438L8.99219 1.1875C8.80469 1.07812 8.63021 0.997396 8.46875 0.945312C8.3125 0.893229 8.15625 0.867188 8 0.867188C7.83854 0.867188 7.67969 0.893229 7.52344 0.945312C7.36719 0.997396 7.19531 1.07812 7.00781 1.1875L0.890625 4.73438C0.578125 4.92188 0.354167 5.09635 0.21875 5.25781C0.0833333 5.41406 0.015625 5.59896 0.015625 5.8125C0.015625 6.03125 0.0833333 6.22135 0.21875 6.38281C0.354167 6.53906 0.578125 6.71094 0.890625 6.89844L7.00781 10.4453C7.19531 10.5547 7.36719 10.6354 7.52344 10.6875C7.67969 10.7396 7.83854 10.7656 8 10.7656Z" fill="white"/>
</svg>
