<svg width="20" height="15" viewBox="0 0 20 15" fill="none" xmlns="http://www.w3.org/2000/svg">
<path d="M0.632812 3.70312H2.80469C3.10156 3.70312 3.25 3.55469 3.25 3.25781V1.10156C3.25 0.799479 3.10156 0.648438 2.80469 0.648438H0.632812C0.341146 0.648438 0.195312 0.799479 0.195312 1.10156V3.25781C0.195312 3.38802 0.234375 3.49479 0.3125 3.57812C0.395833 3.66146 0.502604 3.70312 0.632812 3.70312ZM0.632812 8.88281H2.80469C3.10156 8.88281 3.25 8.73698 3.25 8.44531V6.28906C3.25 5.98177 3.10156 5.82812 2.80469 5.82812H0.632812C0.341146 5.82812 0.195312 5.98177 0.195312 6.28906V8.44531C0.195312 8.57031 0.234375 8.67448 0.3125 8.75781C0.395833 8.84115 0.502604 8.88281 0.632812 8.88281ZM0.632812 14.0625H2.8125C3.10417 14.0625 3.25 13.9167 3.25 13.625V11.4688C3.25 11.1615 3.10417 11.0078 2.8125 11.0078H0.632812C0.341146 11.0078 0.195312 11.1615 0.195312 11.4688V13.625C0.195312 13.7552 0.234375 13.8594 0.3125 13.9375C0.395833 14.0208 0.502604 14.0625 0.632812 14.0625ZM7.9375 13.8438H17.4219C18.2135 13.8438 18.8073 13.6484 19.2031 13.2578C19.599 12.8672 19.7969 12.2839 19.7969 11.5078V3.21094C19.7969 2.4349 19.599 1.85156 19.2031 1.46094C18.8073 1.07031 18.2135 0.875 17.4219 0.875H7.9375C7.15104 0.875 6.5599 1.07031 6.16406 1.46094C5.76823 1.84635 5.57031 2.42969 5.57031 3.21094V11.5078C5.57031 12.2839 5.76823 12.8672 6.16406 13.2578C6.5599 13.6484 7.15104 13.8438 7.9375 13.8438ZM7.95312 12.6016C7.58854 12.6016 7.30729 12.5052 7.10938 12.3125C6.91146 12.1146 6.8125 11.8229 6.8125 11.4375V3.28125C6.8125 2.89583 6.91146 2.60677 7.10938 2.41406C7.30729 2.21615 7.58854 2.11719 7.95312 2.11719H17.4062C17.7708 2.11719 18.0521 2.21615 18.25 2.41406C18.4531 2.60677 18.5547 2.89583 18.5547 3.28125V11.4375C18.5547 11.8229 18.4531 12.1146 18.25 12.3125C18.0521 12.5052 17.7708 12.6016 17.4062 12.6016H7.95312Z" fill="white"/>
</svg>
