<svg width="125" height="125" viewBox="0 0 125 125" fill="none" xmlns="http://www.w3.org/2000/svg">
<path d="M20 124.312H93.375C99 124.312 103.354 122.688 106.438 119.438C109.562 116.229 111.125 111.396 111.125 104.938V38.125L101.062 48.1875V104.438C101.062 107.688 100.292 110.146 98.75 111.812C97.2083 113.438 95.375 114.25 93.25 114.25H20.1875C17.0625 114.25 14.6458 113.438 12.9375 111.812C11.2708 110.146 10.4375 107.688 10.4375 104.438V33.5C10.4375 30.25 11.2708 27.7917 12.9375 26.125C14.6458 24.4583 17.0625 23.625 20.1875 23.625H77.125L87.1875 13.5625H20C13.5 13.5625 8.60417 15.1875 5.3125 18.4375C2.02083 21.6458 0.375 26.4792 0.375 32.9375V104.938C0.375 111.396 2.02083 116.229 5.3125 119.438C8.60417 122.688 13.5 124.312 20 124.312ZM42.75 83.8125L54.9375 78.5L113.312 20.1875L104.75 11.75L46.4375 70.0625L40.8125 81.8125C40.5625 82.3542 40.6667 82.8958 41.125 83.4375C41.625 83.9375 42.1667 84.0625 42.75 83.8125ZM117.938 15.625L122.438 11C123.479 9.875 124 8.64583 124 7.3125C124.042 5.9375 123.521 4.72917 122.438 3.6875L121 2.1875C120.042 1.22917 118.875 0.791667 117.5 0.875C116.167 0.958333 114.979 1.5 113.938 2.5L109.375 7L117.938 15.625Z" fill="white"/>
</svg>
