<svg xmlns="http://www.w3.org/2000/svg" width="24" height="24"><path style="stroke:none;fill-rule:nonzero;fill:#fff;fill-opacity:1" d="M11.04 23.3v-9.136c0-1.059.292-1.89.878-2.488.594-.602 1.41-.899 2.45-.899h8.413v2.012h-8.39c-.461 0-.82.129-1.079.387-.257.25-.386.61-.386 1.074v9.05Zm-6.153 0h14.215c1.226 0 2.144-.323 2.753-.976.618-.64.926-1.605.926-2.898V4.164c0-1.293-.308-2.258-.926-2.898-.609-.653-1.527-.977-2.753-.977H4.887c-1.227 0-2.149.324-2.766.977-.61.64-.914 1.605-.914 2.898v15.262c0 1.293.305 2.258.914 2.902.617.649 1.54.973 2.766.973Zm0 0"/></svg>