<?xml version="1.0" encoding="UTF-8"?>
<svg xmlns="http://www.w3.org/2000/svg" xmlns:xlink="http://www.w3.org/1999/xlink" width="24" height="29.333333" viewBox="0 0 24 29.333333" version="1.1">
<g id="surface1">
<path style=" stroke:none;fill-rule:nonzero;fill:rgb(100%,100%,100%);fill-opacity:1;" d="M 3.425781 24.488281 L 15.375 24.488281 C 16.464844 24.488281 17.28125 24.21875 17.824219 23.675781 C 18.371094 23.140625 18.644531 22.335938 18.644531 21.261719 L 18.644531 10.875 C 18.644531 9.796875 18.371094 8.992188 17.824219 8.457031 C 17.28125 7.917969 16.464844 7.644531 15.375 7.644531 L 12.46875 7.644531 L 12.46875 9.324219 L 15.34375 9.324219 C 15.859375 9.324219 16.257812 9.460938 16.542969 9.738281 C 16.828125 10.011719 16.96875 10.417969 16.96875 10.957031 L 16.96875 21.175781 C 16.96875 21.71875 16.828125 22.128906 16.542969 22.40625 C 16.257812 22.675781 15.859375 22.8125 15.34375 22.8125 L 3.449219 22.8125 C 2.925781 22.8125 2.527344 22.675781 2.25 22.40625 C 1.972656 22.128906 1.832031 21.71875 1.832031 21.175781 L 1.832031 10.957031 C 1.832031 10.417969 1.972656 10.011719 2.25 9.738281 C 2.527344 9.460938 2.925781 9.324219 3.449219 9.324219 L 6.332031 9.324219 L 6.332031 7.644531 L 3.425781 7.644531 C 2.335938 7.644531 1.515625 7.917969 0.96875 8.457031 C 0.425781 8.992188 0.15625 9.796875 0.15625 10.875 L 0.15625 21.261719 C 0.15625 22.335938 0.425781 23.140625 0.96875 23.675781 C 1.515625 24.21875 2.335938 24.488281 3.425781 24.488281 Z M 9.511719 29.3125 L 20.574219 29.3125 C 21.664062 29.3125 22.480469 29.042969 23.019531 28.5 C 23.570312 27.964844 23.84375 27.160156 23.84375 26.082031 L 23.84375 15.699219 C 23.84375 14.621094 23.570312 13.816406 23.019531 13.28125 C 22.480469 12.738281 21.664062 12.46875 20.574219 12.46875 L 18.105469 12.46875 L 18.105469 14.144531 L 20.550781 14.144531 C 21.074219 14.144531 21.472656 14.285156 21.75 14.5625 C 22.027344 14.832031 22.167969 15.238281 22.167969 15.78125 L 22.167969 26 C 22.167969 26.542969 22.027344 26.949219 21.75 27.21875 C 21.472656 27.496094 21.074219 27.636719 20.550781 27.636719 L 9.542969 27.636719 C 9.027344 27.636719 8.628906 27.496094 8.34375 27.21875 C 8.058594 26.949219 7.917969 26.542969 7.917969 26 L 7.917969 23.644531 L 6.238281 23.644531 L 6.238281 26.082031 C 6.238281 27.160156 6.511719 27.964844 7.050781 28.5 C 7.601562 29.042969 8.421875 29.3125 9.511719 29.3125 Z M 9.394531 16.332031 C 9.625 16.332031 9.820312 16.253906 9.980469 16.09375 C 10.144531 15.933594 10.230469 15.746094 10.230469 15.53125 L 10.230469 4.824219 L 10.167969 3.269531 L 10.863281 4.011719 L 12.449219 5.6875 C 12.59375 5.855469 12.78125 5.9375 13.011719 5.9375 C 13.226562 5.9375 13.40625 5.867188 13.550781 5.730469 C 13.699219 5.589844 13.769531 5.417969 13.769531 5.207031 C 13.769531 5.007812 13.6875 4.824219 13.519531 4.65625 L 10 1.261719 C 9.894531 1.15625 9.796875 1.085938 9.699219 1.050781 C 9.609375 1.011719 9.507812 0.988281 9.394531 0.988281 C 9.292969 0.988281 9.191406 1.011719 9.09375 1.050781 C 9.003906 1.085938 8.902344 1.15625 8.792969 1.261719 L 5.269531 4.65625 C 5.109375 4.824219 5.03125 5.007812 5.03125 5.207031 C 5.03125 5.417969 5.101562 5.589844 5.238281 5.730469 C 5.378906 5.867188 5.558594 5.9375 5.78125 5.9375 C 6.015625 5.9375 6.207031 5.855469 6.355469 5.6875 L 7.925781 4.011719 L 8.636719 3.269531 L 8.574219 4.824219 L 8.574219 15.53125 C 8.574219 15.746094 8.652344 15.933594 8.8125 16.09375 C 8.980469 16.253906 9.171875 16.332031 9.394531 16.332031 Z M 9.394531 16.332031 "/>
</g>
</svg>
