<svg width="20" height="15" viewBox="0 0 20 15" fill="none" xmlns="http://www.w3.org/2000/svg">
<path d="M3.98438 10.75C3.59896 10.75 3.3099 10.6562 3.11719 10.4688C2.92969 10.276 2.83594 9.99219 2.83594 9.61719V5.125C2.83594 4.75 2.92969 4.46875 3.11719 4.28125C3.3099 4.08854 3.59896 3.99219 3.98438 3.99219H8.4375C8.82812 3.99219 9.11719 4.08854 9.30469 4.28125C9.4974 4.46875 9.59375 4.75 9.59375 5.125V9.61719C9.59375 9.99219 9.4974 10.276 9.30469 10.4688C9.11719 10.6562 8.82812 10.75 8.4375 10.75H3.98438ZM4.07031 9.85156H8.35938C8.58333 9.85156 8.69531 9.7474 8.69531 9.53906V5.20312C8.69531 4.99479 8.58333 4.89062 8.35938 4.89062H4.07031C3.95573 4.89062 3.86979 4.91667 3.8125 4.96875C3.76042 5.01562 3.73438 5.09375 3.73438 5.20312V9.53906C3.73438 9.64323 3.76042 9.72135 3.8125 9.77344C3.86979 9.82552 3.95573 9.85156 4.07031 9.85156ZM14.1641 10.6641C13.5078 10.6641 12.9323 10.5286 12.4375 10.2578C11.9479 9.98177 11.5651 9.59635 11.2891 9.10156C11.013 8.60677 10.875 8.03125 10.875 7.375C10.875 6.71875 11.013 6.14323 11.2891 5.64844C11.5651 5.14844 11.9479 4.76042 12.4375 4.48438C12.9271 4.20312 13.4948 4.0625 14.1406 4.0625C14.7656 4.0625 15.3177 4.1875 15.7969 4.4375C16.276 4.6875 16.6484 5.03646 16.9141 5.48438C17.1849 5.93229 17.3203 6.45052 17.3203 7.03906C17.3203 7.67969 17.1823 8.19271 16.9062 8.57812C16.6354 8.96354 16.2734 9.15625 15.8203 9.15625C15.3932 9.15625 15.0885 8.9974 14.9062 8.67969C14.6667 8.9974 14.349 9.15625 13.9531 9.15625C13.5104 9.15625 13.151 8.99219 12.875 8.66406C12.6042 8.33594 12.4688 7.90885 12.4688 7.38281C12.4688 6.8724 12.6042 6.45052 12.875 6.11719C13.151 5.78385 13.5026 5.61719 13.9297 5.61719C14.1172 5.61719 14.2786 5.64844 14.4141 5.71094C14.5547 5.77344 14.6719 5.85938 14.7656 5.96875V5.90625C14.8229 5.71354 14.9531 5.61719 15.1562 5.61719C15.276 5.61719 15.3724 5.65885 15.4453 5.74219C15.5234 5.82031 15.5625 5.92188 15.5625 6.04688V8.04688C15.5625 8.26562 15.6745 8.375 15.8984 8.375C16.0911 8.375 16.2422 8.26042 16.3516 8.03125C16.4661 7.80208 16.5234 7.48698 16.5234 7.08594C16.5234 6.63802 16.4219 6.2474 16.2188 5.91406C16.0208 5.58073 15.7422 5.32031 15.3828 5.13281C15.0286 4.94531 14.6146 4.85156 14.1406 4.85156C13.6667 4.85156 13.2474 4.95833 12.8828 5.17188C12.5234 5.38542 12.2396 5.68229 12.0312 6.0625C11.8281 6.44271 11.7266 6.88281 11.7266 7.38281C11.7266 7.89323 11.8281 8.33333 12.0312 8.70312C12.2396 9.07292 12.5312 9.35677 12.9062 9.55469C13.2865 9.7526 13.737 9.85156 14.2578 9.85156C14.5078 9.85156 14.7005 9.83594 14.8359 9.80469C14.9766 9.76823 15.1068 9.73958 15.2266 9.71875C15.2839 9.70833 15.3307 9.70052 15.3672 9.69531C15.4089 9.6849 15.4505 9.67969 15.4922 9.67969C15.5964 9.67969 15.6823 9.71615 15.75 9.78906C15.8177 9.85677 15.8516 9.94271 15.8516 10.0469C15.8516 10.2344 15.7318 10.3802 15.4922 10.4844C15.3359 10.5469 15.1406 10.5938 14.9062 10.625C14.6719 10.651 14.4245 10.6641 14.1641 10.6641ZM14.0781 8.33594C14.2969 8.33594 14.4688 8.2474 14.5938 8.07031C14.724 7.89323 14.7891 7.65104 14.7891 7.34375C14.7891 7.05729 14.724 6.83073 14.5938 6.66406C14.4688 6.4974 14.2995 6.41406 14.0859 6.41406C13.862 6.41406 13.6849 6.4974 13.5547 6.66406C13.4297 6.83073 13.3672 7.0651 13.3672 7.36719C13.3672 7.66927 13.4297 7.90625 13.5547 8.07812C13.6849 8.25 13.8594 8.33594 14.0781 8.33594ZM3.24219 14.5547H16.7578C17.5807 14.5547 18.1953 14.3516 18.6016 13.9453C19.0078 13.5443 19.2109 12.9427 19.2109 12.1406V2.59375C19.2109 1.79167 19.0078 1.1875 18.6016 0.78125C18.1953 0.375 17.5807 0.171875 16.7578 0.171875H3.24219C2.42448 0.171875 1.8099 0.375 1.39844 0.78125C0.992188 1.18229 0.789062 1.78646 0.789062 2.59375V12.1406C0.789062 12.9427 0.992188 13.5443 1.39844 13.9453C1.8099 14.3516 2.42448 14.5547 3.24219 14.5547Z" fill="white"/>
</svg>
