<?xml version="1.0" encoding="UTF-8"?>
<svg xmlns="http://www.w3.org/2000/svg" xmlns:xlink="http://www.w3.org/1999/xlink" width="24" height="22.736842" viewBox="0 0 24 22.736842" version="1.1">
<g id="surface1">
<path style=" stroke:none;fill-rule:nonzero;fill:rgb(100%,100%,100%);fill-opacity:1;" d="M 7.371094 19.222656 C 7.371094 20.242188 7.628906 21.007812 8.140625 21.511719 C 8.660156 22.027344 9.4375 22.28125 10.46875 22.28125 L 20.378906 22.28125 C 21.410156 22.28125 22.183594 22.027344 22.699219 21.511719 C 23.21875 21.007812 23.476562 20.242188 23.476562 19.222656 L 23.476562 9.238281 C 23.476562 8.21875 23.21875 7.453125 22.699219 6.949219 C 22.183594 6.433594 21.410156 6.175781 20.378906 6.175781 L 10.46875 6.175781 C 9.4375 6.175781 8.660156 6.433594 8.140625 6.949219 C 7.628906 7.453125 7.371094 8.21875 7.371094 9.238281 Z M 10.46875 4.835938 L 16.292969 4.835938 C 15.84375 3.96875 15.261719 3.203125 14.535156 2.546875 C 13.8125 1.886719 12.988281 1.375 12.058594 1.007812 C 11.136719 0.632812 10.15625 0.445312 9.117188 0.445312 C 8 0.445312 6.949219 0.65625 5.96875 1.074219 C 4.996094 1.496094 4.136719 2.078125 3.394531 2.824219 C 2.652344 3.558594 2.070312 4.417969 1.648438 5.398438 C 1.234375 6.371094 1.027344 7.417969 1.027344 8.535156 C 1.027344 9.660156 1.238281 10.71875 1.65625 11.703125 C 2.085938 12.691406 2.675781 13.554688 3.425781 14.300781 C 4.179688 15.042969 5.050781 15.617188 6.03125 16.027344 L 6.03125 9.238281 C 6.03125 8.308594 6.203125 7.515625 6.550781 6.859375 C 6.902344 6.199219 7.40625 5.699219 8.074219 5.359375 C 8.738281 5.011719 9.535156 4.835938 10.46875 4.835938 Z M 10.46875 4.835938 "/>
</g>
</svg>
