<svg width="116" height="116" viewBox="0 0 116 116" fill="none" xmlns="http://www.w3.org/2000/svg">
<path d="M25 72.0625C23.0417 72.0625 21.6458 72.5 20.8125 73.375C19.9792 74.25 19.5625 75.6875 19.5625 77.6875V91.3125C19.5625 93.3125 19.9792 94.75 20.8125 95.625C21.6458 96.5 23.0417 96.9375 25 96.9375H91.9375C93.8958 96.9375 95.2917 96.5 96.125 95.625C97 94.75 97.4375 93.3125 97.4375 91.3125V77.6875C97.4375 75.6875 97 74.25 96.125 73.375C95.2917 72.5 93.8958 72.0625 91.9375 72.0625H25ZM20.5625 115.5H96.375C102.917 115.5 107.812 113.875 111.062 110.625C114.354 107.417 116 102.583 116 96.125V19.8125C116 13.3542 114.354 8.52083 111.062 5.3125C107.812 2.0625 102.917 0.4375 96.375 0.4375H20.5625C14.0208 0.4375 9.10417 2.0625 5.8125 5.3125C2.5625 8.52083 0.9375 13.3542 0.9375 19.8125V96.125C0.9375 102.583 2.5625 107.417 5.8125 110.625C9.10417 113.875 14.0208 115.5 20.5625 115.5ZM20.6875 105.438C17.5625 105.438 15.1667 104.625 13.5 103C11.8333 101.333 11 98.875 11 95.625V20.3125C11 17.0625 11.8333 14.625 13.5 13C15.1667 11.3333 17.5625 10.5 20.6875 10.5H96.25C99.3333 10.5 101.708 11.3333 103.375 13C105.083 14.625 105.938 17.0625 105.938 20.3125V95.625C105.938 98.875 105.083 101.333 103.375 103C101.708 104.625 99.3333 105.438 96.25 105.438H20.6875Z" fill="white"/>
</svg>
