<svg width="16" height="15" viewBox="0 0 16 15" fill="none" xmlns="http://www.w3.org/2000/svg">
<path d="M3.25781 14.5625H12.7344C13.5521 14.5625 14.1641 14.3594 14.5703 13.9531C14.9818 13.5521 15.1875 12.9479 15.1875 12.1406V2.60156C15.1875 1.79427 14.9818 1.1901 14.5703 0.789062C14.1641 0.382812 13.5521 0.179688 12.7344 0.179688H3.25781C2.4401 0.179688 1.82552 0.382812 1.41406 0.789062C1.00781 1.1901 0.804688 1.79427 0.804688 2.60156V12.1406C0.804688 12.9479 1.00781 13.5521 1.41406 13.9531C1.82552 14.3594 2.4401 14.5625 3.25781 14.5625ZM3.27344 13.3047C2.88281 13.3047 2.58333 13.2031 2.375 13C2.16667 12.7917 2.0625 12.4844 2.0625 12.0781V2.66406C2.0625 2.25781 2.16667 1.95312 2.375 1.75C2.58333 1.54167 2.88281 1.4375 3.27344 1.4375H12.7188C13.1042 1.4375 13.401 1.54167 13.6094 1.75C13.8229 1.95312 13.9297 2.25781 13.9297 2.66406V12.0781C13.9297 12.4844 13.8229 12.7917 13.6094 13C13.401 13.2031 13.1042 13.3047 12.7188 13.3047H3.27344ZM4.11719 8.92188H11.8125C11.9479 8.92188 12.0599 8.875 12.1484 8.78125C12.2422 8.6875 12.2891 8.57292 12.2891 8.4375C12.2891 8.30208 12.2422 8.1901 12.1484 8.10156C12.0599 8.00781 11.9479 7.96094 11.8125 7.96094H4.11719C3.97656 7.96094 3.85938 8.00781 3.76562 8.10156C3.67188 8.1901 3.625 8.30208 3.625 8.4375C3.625 8.57292 3.67188 8.6875 3.76562 8.78125C3.85938 8.875 3.97656 8.92188 4.11719 8.92188ZM4.11719 11.5938H9.75C9.89062 11.5938 10.0052 11.5495 10.0938 11.4609C10.1875 11.3672 10.2344 11.2526 10.2344 11.1172C10.2344 10.9818 10.1875 10.8672 10.0938 10.7734C10.0052 10.6797 9.89062 10.6328 9.75 10.6328H4.11719C3.97656 10.6328 3.85938 10.6797 3.76562 10.7734C3.67188 10.8672 3.625 10.9818 3.625 11.1172C3.625 11.2526 3.67188 11.3672 3.76562 11.4609C3.85938 11.5495 3.97656 11.5938 4.11719 11.5938ZM3.64844 3.54688V5.45312C3.64844 5.69792 3.71615 5.88802 3.85156 6.02344C3.98698 6.15885 4.17708 6.22656 4.42188 6.22656H6.32812C6.57292 6.22656 6.76302 6.15885 6.89844 6.02344C7.03385 5.88802 7.10156 5.69792 7.10156 5.45312V3.54688C7.10156 3.30208 7.03385 3.11198 6.89844 2.97656C6.76302 2.84115 6.57292 2.77344 6.32812 2.77344H4.42188C4.17708 2.77344 3.98698 2.84115 3.85156 2.97656C3.71615 3.11198 3.64844 3.30208 3.64844 3.54688Z" fill="white"/>
</svg>
