<?xml version="1.0" encoding="UTF-8"?>
<svg xmlns="http://www.w3.org/2000/svg" xmlns:xlink="http://www.w3.org/1999/xlink" width="24" height="22.5" viewBox="0 0 24 22.5" version="1.1">
<g id="surface1">
<path style=" stroke:none;fill-rule:nonzero;fill:rgb(100%,100%,100%);fill-opacity:1;" d="M 22.78125 10.113281 L 22.78125 12 L 1.207031 12 L 1.207031 10.113281 Z M 1.207031 3.949219 L 1.207031 18.164062 C 1.207031 19.390625 1.507812 20.308594 2.109375 20.917969 C 2.71875 21.535156 3.628906 21.84375 4.839844 21.84375 L 19.148438 21.84375 C 20.359375 21.84375 21.265625 21.535156 21.867188 20.917969 C 22.476562 20.308594 22.78125 19.390625 22.78125 18.164062 L 22.78125 3.949219 C 22.78125 2.722656 22.476562 1.804688 21.867188 1.195312 C 21.265625 0.578125 20.359375 0.269531 19.148438 0.269531 L 4.839844 0.269531 C 3.628906 0.269531 2.71875 0.578125 2.109375 1.195312 C 1.507812 1.804688 1.207031 2.722656 1.207031 3.949219 Z M 1.207031 3.949219 "/>
</g>
</svg>
