<svg xmlns="http://www.w3.org/2000/svg" width="24" height="24"><path style="stroke:none;fill-rule:nonzero;fill:#fff;fill-opacity:1" d="M11.379 23.23c.414 0 .91-.136 1.488-.414l9.188-4.441c.36-.176.644-.363.855-.55.219-.2.375-.427.469-.684.094-.254.14-.567.14-.938V7.262c0-.59-.12-1.035-.363-1.332-.234-.301-.57-.453-1.008-.453-.406 0-.882.132-1.43.394l-9.21 4.473c-.367.183-.66.375-.88.57a1.643 1.643 0 0 0-.468.684 2.623 2.623 0 0 0-.14.918v8.937c0 .574.113 1.012.34 1.313.234.308.574.464 1.019.464Zm.633-1.925c-.055-.004-.082-.043-.082-.11l.082-8.652c0-.336.172-.59.515-.762l8.871-4.39c.047-.02.086-.024.118-.008.054.004.082.043.082.11l-.035 8.683a.8.8 0 0 1-.118.433c-.07.125-.203.235-.398.336l-8.918 4.352c-.047.02-.086.023-.117.008Zm-5.66-.48c.234 0 .464-.067.691-.2V10.066c0-.132.012-.234.035-.304a.418.418 0 0 1 .129-.192c.086-.066.188-.12.293-.164l10.863-5.281c.016-.32-.086-.578-.304-.77-.211-.19-.489-.285-.832-.285-.305 0-.63.078-.973.235l-9.832 4.77c-.383.183-.668.347-.856.491a.94.94 0 0 0-.351.512c-.055.203-.082.492-.082.86v9.453c0 .422.113.765.34 1.027.234.27.527.406.879.406Zm-4.676-2.282c.234 0 .465-.066.691-.2V7.786c0-.117.012-.215.035-.285a.383.383 0 0 1 .13-.195c.07-.063.163-.121.28-.18l10.864-5.27c.023-.328-.074-.585-.293-.77a1.2 1.2 0 0 0-.82-.284c-.157 0-.317.02-.481.058a2.227 2.227 0 0 0-.504.188L1.746 5.805c-.383.187-.664.351-.844.492a.94.94 0 0 0-.351.512c-.055.199-.082.484-.082.859v9.445c0 .418.11.766.328 1.035.226.262.52.395.879.395Zm0 0"/></svg>