<svg xmlns="http://www.w3.org/2000/svg" width="24" height="24"><path style="stroke:none;fill-rule:nonzero;fill:#fff;fill-opacity:1" d="M2.473 10.79v2.01H21.55v-2.01ZM1.207 4.214v15.16c0 1.309.3 2.29.902 2.938.61.66 1.52.988 2.73.988h14.31c1.21 0 2.117-.328 2.718-.988.61-.649.914-1.63.914-2.938V4.215c0-1.309-.304-2.29-.914-2.938C21.266.617 20.36.29 19.148.29H4.84c-1.211 0-2.121.328-2.73.984-.602.653-.903 1.633-.903 2.938Zm1.887.023c0-.625.152-1.101.457-1.437.312-.332.773-.5 1.383-.5h14.12c.61 0 1.067.168 1.372.5.312.336.469.812.469 1.437v15.11c0 .617-.157 1.097-.47 1.437-.304.336-.76.5-1.37.5H4.934c-.61 0-1.07-.164-1.383-.5-.305-.34-.457-.82-.457-1.437Zm0 0"/></svg>