<svg xmlns="http://www.w3.org/2000/svg" width="24" height="24"><path style="stroke:none;fill-rule:nonzero;fill:#fff;fill-opacity:1" d="M4.313 23.469h15.363c1.398 0 2.449-.274 3.144-.813.707-.539 1.059-1.347 1.059-2.418V9.844c0-1.07-.352-1.875-1.059-2.414-.695-.547-1.746-.817-3.144-.817h-3.738v1.68h3.695c.66 0 1.176.137 1.543.414.363.281.547.691.547 1.23v10.208c0 .543-.184.953-.547 1.23-.367.277-.883.418-1.543.418H4.34c-.672 0-1.184-.14-1.54-.418-.359-.277-.538-.688-.538-1.23V9.938c0-.54.18-.95.539-1.231.355-.277.867-.414 1.539-.414h3.71v-1.68H4.313c-1.402 0-2.457.274-3.16.817C.457 7.965.105 8.77.105 9.844v10.394c0 1.078.352 1.883 1.047 2.418.703.54 1.758.813 3.16.813Zm7.675-6.852c.14 0 .27-.02.387-.055.125-.039.254-.113.387-.218l4.527-3.407c.215-.16.324-.34.324-.542a.608.608 0 0 0-.281-.52 1.147 1.147 0 0 0-.7-.207 1.054 1.054 0 0 0-.722.246l-2.035 1.68-.898.742.082-1.566V1.793c0-.223-.11-.414-.32-.574a1.214 1.214 0 0 0-.75-.242c-.29 0-.54.082-.75.242-.2.148-.313.355-.31.574V12.77l.079 1.566-.91-.742-2.024-1.68a1.066 1.066 0 0 0-.734-.246c-.285 0-.52.07-.695.207a.616.616 0 0 0-.27.52c0 .203.102.382.309.543l4.527 3.406c.14.105.27.18.387.218.125.036.254.055.39.055Zm0 0"/></svg>