<svg xmlns="http://www.w3.org/2000/svg" width="24" height="24"><path style="stroke:none;fill-rule:nonzero;fill:#fff;fill-opacity:1" d="M12 23.05c1.633 0 3.168-.292 4.605-.882a12.22 12.22 0 0 0 3.82-2.438 11.467 11.467 0 0 0 2.59-3.582c.626-1.363.938-2.808.938-4.347a10.2 10.2 0 0 0-.937-4.332 11.53 11.53 0 0 0-2.59-3.598 12.361 12.361 0 0 0-3.82-2.437A12.166 12.166 0 0 0 11.987.55c-1.633 0-3.172.293-4.617.883A12.307 12.307 0 0 0 3.562 3.87 11.523 11.523 0 0 0 .985 7.465 10.2 10.2 0 0 0 .047 11.8c0 1.539.312 2.984.937 4.347a11.467 11.467 0 0 0 2.59 3.582 12.236 12.236 0 0 0 3.809 2.438c1.445.59 2.984.883 4.617.883Zm0-1.874a10.222 10.222 0 0 1-7.055-2.734 9.548 9.548 0 0 1-2.133-2.989 8.83 8.83 0 0 1-.761-3.652c0-1.301.254-2.52.761-3.649A9.52 9.52 0 0 1 4.946 5.16 9.82 9.82 0 0 1 8.11 3.156c1.204-.488 2.496-.73 3.88-.73 1.382 0 2.675.242 3.878.73a9.701 9.701 0 0 1 3.176 2.004 9.432 9.432 0 0 1 2.145 2.992 8.685 8.685 0 0 1 .773 3.649c0 1.3-.258 2.52-.773 3.652a9.22 9.22 0 0 1-2.133 2.988A10.222 10.222 0 0 1 12 21.176ZM8.672 17.16h6.644c.633 0 1.114-.148 1.442-.45.336-.308.504-.76.504-1.358V9.914c0-.594-.164-1.043-.492-1.344-.329-.3-.813-.453-1.454-.453H13.57V9.23h1.723c.523 0 .785.247.785.743v5.347c0 .492-.262.739-.785.739h-6.61c-.507 0-.761-.247-.761-.739V9.973c0-.496.254-.743.762-.743h1.734V8.117H8.672c-.633 0-1.113.156-1.442.465-.328.3-.492.746-.492 1.332v5.438c0 .597.164 1.05.492 1.359.329.3.81.45 1.442.45Zm3.316-4.332c.157 0 .29-.05.399-.156a.484.484 0 0 0 .175-.375V6.715l-.023-.516.516.516.539.52a.542.542 0 0 0 .41.156.54.54 0 0 0 .375-.133.439.439 0 0 0 .152-.352.536.536 0 0 0-.035-.191.438.438 0 0 0-.129-.176l-1.969-1.785c-.132-.125-.27-.188-.41-.188a.61.61 0 0 0-.422.188L9.61 6.527a.498.498 0 0 0-.175.38c0 .144.05.261.152.35.101.09.226.134.375.134a.556.556 0 0 0 .41-.157l.54-.515.527-.52-.024.516v5.582c0 .144.059.281.168.383.11.097.254.152.406.148Zm0 0"/></svg>