<svg width="16" height="15" viewBox="0 0 16 15" fill="none" xmlns="http://www.w3.org/2000/svg">
<path d="M7.35938 14.5625V8.85156C7.35938 8.1901 7.55469 7.67188 7.94531 7.29688C8.34115 6.92188 8.88542 6.73438 9.57812 6.73438H15.1875V7.99219H9.59375C9.28646 7.99219 9.04688 8.07292 8.875 8.23438C8.70312 8.39062 8.61719 8.61458 8.61719 8.90625V14.5625H7.35938ZM3.25781 14.5625H12.7344C13.5521 14.5625 14.1641 14.3594 14.5703 13.9531C14.9818 13.5521 15.1875 12.9479 15.1875 12.1406V2.60156C15.1875 1.79427 14.9818 1.1901 14.5703 0.789062C14.1641 0.382812 13.5521 0.179688 12.7344 0.179688H3.25781C2.4401 0.179688 1.82552 0.382812 1.41406 0.789062C1.00781 1.1901 0.804688 1.79427 0.804688 2.60156V12.1406C0.804688 12.9479 1.00781 13.5521 1.41406 13.9531C1.82552 14.3594 2.4401 14.5625 3.25781 14.5625Z" fill="white"/>
</svg>
