<svg xmlns="http://www.w3.org/2000/svg" width="24" height="24"><path style="stroke:none;fill-rule:nonzero;fill:#fff;fill-opacity:1" d="M1.488 1.809H22.5c.215 0 .39-.075.52-.235a.88.88 0 0 0 .21-.601.853.853 0 0 0-.21-.598.642.642 0 0 0-.52-.23H1.488a.679.679 0 0 0-.531.23.91.91 0 0 0-.195.598c0 .238.066.441.195.601a.67.67 0 0 0 .531.235Zm1.305 8.78h2.27c.632 0 1.109-.171 1.425-.51.32-.333.48-.86.48-1.563V6.207c0-.7-.16-1.215-.48-1.555-.316-.336-.793-.504-1.426-.504H2.793c-.64 0-1.121.168-1.438.504-.312.34-.468.856-.468 1.555v2.309c0 .703.156 1.23.468 1.562.317.34.797.512 1.438.512Zm8.062 0h2.27c.633 0 1.11-.171 1.426-.51.32-.333.48-.86.48-1.563V6.207c0-.7-.16-1.215-.48-1.555-.317-.336-.793-.504-1.426-.504h-2.27c-.64 0-1.12.168-1.437.504-.313.34-.469.856-.469 1.555v2.309c0 .703.156 1.23.469 1.562.316.34.797.512 1.437.512Zm8.063 0h2.258c.64 0 1.117-.171 1.43-.51.316-.333.476-.86.476-1.563V6.207c0-.7-.16-1.215-.477-1.555-.312-.336-.789-.504-1.43-.504h-2.257c-.64 0-1.121.168-1.438.504-.32.34-.48.856-.48 1.555v2.309c0 .703.16 1.23.48 1.562.317.34.797.512 1.438.512Zm-17.43 3.884H22.5c.215 0 .39-.078.52-.235a.86.86 0 0 0 .21-.593.86.86 0 0 0-.21-.598.636.636 0 0 0-.52-.242H1.488a.688.688 0 0 0-.531.242.91.91 0 0 0-.195.598c0 .238.066.437.195.593a.686.686 0 0 0 .531.235Zm1.313 8.777h2.273c.637 0 1.114-.172 1.426-.508.32-.336.48-.855.48-1.555v-2.316c0-.7-.16-1.219-.48-1.555-.313-.34-.79-.507-1.426-.507H2.801c-.63 0-1.106.168-1.426.507-.32.336-.48.86-.48 1.559v2.313c0 .699.16 1.218.48 1.554.32.336.797.508 1.426.508Zm8.062 0h2.274c.629 0 1.105-.172 1.425-.508.32-.336.481-.855.481-1.555v-2.316c0-.7-.16-1.219-.48-1.555-.32-.34-.797-.507-1.426-.507h-2.274c-.636 0-1.117.168-1.437.507-.313.336-.469.86-.469 1.559v2.313c0 .699.156 1.218.469 1.554.32.336.8.508 1.437.508Zm8.063 0h2.262c.64 0 1.117-.172 1.437-.508.32-.336.48-.855.48-1.555v-2.316c0-.7-.16-1.219-.48-1.555-.32-.34-.797-.507-1.438-.507h-2.261c-.637 0-1.117.168-1.438.507-.312.336-.468.86-.468 1.559v2.313c0 .699.156 1.218.468 1.554.32.336.801.508 1.438.508Zm0 0"/></svg>