<svg width="116" height="116" viewBox="0 0 116 116" fill="none" xmlns="http://www.w3.org/2000/svg">
<path d="M53.375 115.5V69.8125C53.375 64.5208 54.9375 60.375 58.0625 57.375C61.2292 54.375 65.5833 52.875 71.125 52.875H116V62.9375H71.25C68.7917 62.9375 66.875 63.5833 65.5 64.875C64.125 66.125 63.4375 67.9167 63.4375 70.25V115.5H53.375ZM20.5625 115.5H96.375C102.917 115.5 107.812 113.875 111.062 110.625C114.354 107.417 116 102.583 116 96.125V19.8125C116 13.3542 114.354 8.52083 111.062 5.3125C107.812 2.0625 102.917 0.4375 96.375 0.4375H20.5625C14.0208 0.4375 9.10417 2.0625 5.8125 5.3125C2.5625 8.52083 0.9375 13.3542 0.9375 19.8125V96.125C0.9375 102.583 2.5625 107.417 5.8125 110.625C9.10417 113.875 14.0208 115.5 20.5625 115.5Z" fill="white"/>
</svg>
