<?xml version="1.0" encoding="UTF-8"?>
<svg xmlns="http://www.w3.org/2000/svg" xmlns:xlink="http://www.w3.org/1999/xlink" width="24" height="28.5" viewBox="0 0 24 28.5" version="1.1">
<g id="surface1">
<path style=" stroke:none;fill-rule:nonzero;fill:rgb(100%,100%,100%);fill-opacity:1;" d="M 10.089844 14.542969 L 10.089844 25.171875 C 10.089844 25.828125 10.210938 26.332031 10.453125 26.683594 C 10.695312 27.035156 11.027344 27.222656 11.449219 27.246094 C 11.878906 27.277344 12.367188 27.136719 12.914062 26.824219 L 22.089844 21.515625 C 22.472656 21.296875 22.769531 21.070312 22.980469 20.835938 C 23.191406 20.601562 23.339844 20.332031 23.425781 20.027344 C 23.511719 19.722656 23.554688 19.363281 23.554688 18.949219 L 23.554688 8.027344 C 23.554688 7.480469 23.414062 7.066406 23.132812 6.785156 C 22.859375 6.496094 22.519531 6.339844 22.113281 6.316406 C 21.707031 6.292969 21.308594 6.390625 20.917969 6.609375 L 11.53125 12.035156 C 11.1875 12.238281 10.90625 12.457031 10.6875 12.691406 C 10.476562 12.925781 10.324219 13.195312 10.230469 13.5 C 10.136719 13.796875 10.089844 14.144531 10.089844 14.542969 Z M 12.515625 13.722656 L 21.445312 8.566406 C 21.507812 8.535156 21.554688 8.53125 21.585938 8.554688 C 21.625 8.578125 21.644531 8.617188 21.644531 8.671875 L 21.644531 18.914062 C 21.644531 19.148438 21.609375 19.328125 21.539062 19.453125 C 21.476562 19.570312 21.347656 19.6875 21.152344 19.804688 L 12.175781 24.984375 C 12.121094 25.007812 12.078125 25.011719 12.046875 24.996094 C 12.015625 24.980469 12 24.941406 12 24.878906 L 12 14.613281 C 12 14.363281 12.039062 14.179688 12.117188 14.0625 C 12.195312 13.945312 12.328125 13.832031 12.515625 13.722656 Z M 11.121094 22.042969 L 11.121094 19.78125 L 7.195312 22.042969 C 7.140625 22.074219 7.097656 22.082031 7.066406 22.066406 C 7.035156 22.042969 7.019531 22.003906 7.019531 21.949219 L 7.019531 11.683594 C 7.019531 11.433594 7.058594 11.25 7.136719 11.132812 C 7.214844 11.015625 7.347656 10.902344 7.535156 10.792969 L 16.464844 5.636719 C 16.519531 5.605469 16.566406 5.601562 16.605469 5.625 C 16.644531 5.648438 16.664062 5.6875 16.664062 5.742188 L 16.664062 10.136719 L 18.574219 9.140625 L 18.574219 5.097656 C 18.574219 4.542969 18.433594 4.125 18.152344 3.84375 C 17.878906 3.5625 17.539062 3.410156 17.132812 3.386719 C 16.726562 3.355469 16.328125 3.453125 15.9375 3.679688 L 6.550781 9.09375 C 6.199219 9.296875 5.917969 9.515625 5.707031 9.75 C 5.496094 9.984375 5.34375 10.253906 5.25 10.558594 C 5.15625 10.855469 5.109375 11.207031 5.109375 11.613281 L 5.109375 22.242188 C 5.109375 22.890625 5.230469 23.390625 5.472656 23.742188 C 5.714844 24.09375 6.046875 24.285156 6.46875 24.316406 C 6.898438 24.347656 7.386719 24.207031 7.933594 23.894531 Z M 6.046875 19.582031 L 6.046875 17.308594 L 2.519531 19.347656 C 2.464844 19.378906 2.421875 19.386719 2.390625 19.371094 C 2.359375 19.347656 2.34375 19.308594 2.34375 19.253906 L 2.34375 8.988281 C 2.34375 8.738281 2.382812 8.554688 2.460938 8.4375 C 2.539062 8.320312 2.671875 8.207031 2.859375 8.097656 L 11.789062 2.941406 C 11.84375 2.902344 11.890625 2.898438 11.929688 2.929688 C 11.96875 2.953125 11.988281 2.992188 11.988281 3.046875 L 11.988281 7.054688 L 13.898438 6.105469 L 13.898438 2.402344 C 13.898438 1.847656 13.757812 1.429688 13.476562 1.148438 C 13.203125 0.867188 12.863281 0.714844 12.457031 0.691406 C 12.050781 0.660156 11.652344 0.753906 11.261719 0.972656 L 1.875 6.398438 C 1.523438 6.601562 1.242188 6.820312 1.03125 7.054688 C 0.820312 7.289062 0.667969 7.558594 0.574219 7.863281 C 0.480469 8.160156 0.433594 8.511719 0.433594 8.917969 L 0.433594 19.535156 C 0.433594 20.191406 0.554688 20.695312 0.796875 21.046875 C 1.039062 21.398438 1.371094 21.589844 1.792969 21.621094 C 2.222656 21.652344 2.710938 21.507812 3.257812 21.1875 Z M 6.046875 19.582031 "/>
</g>
</svg>
