<svg width="116" height="116" viewBox="0 0 116 116" fill="none" xmlns="http://www.w3.org/2000/svg">
<path d="M20.5625 115.5H96.375C102.917 115.5 107.812 113.875 111.062 110.625C114.354 107.417 116 102.583 116 96.125V19.8125C116 13.3542 114.354 8.52083 111.062 5.3125C107.812 2.0625 102.917 0.4375 96.375 0.4375H20.5625C14.0208 0.4375 9.10417 2.0625 5.8125 5.3125C2.5625 8.52083 0.9375 13.3542 0.9375 19.8125V96.125C0.9375 102.583 2.5625 107.417 5.8125 110.625C9.10417 113.875 14.0208 115.5 20.5625 115.5ZM20.6875 105.438C17.5625 105.438 15.1667 104.625 13.5 103C11.8333 101.333 11 98.875 11 95.625V20.3125C11 17.0625 11.8333 14.625 13.5 13C15.1667 11.3333 17.5625 10.5 20.6875 10.5H96.25C99.3333 10.5 101.708 11.3333 103.375 13C105.083 14.625 105.938 17.0625 105.938 20.3125V95.625C105.938 98.875 105.083 101.333 103.375 103C101.708 104.625 99.3333 105.438 96.25 105.438H20.6875ZM20.4375 34.75C20.4375 36.0833 20.8333 37.1458 21.625 37.9375C22.4167 38.7292 23.4792 39.125 24.8125 39.125H35.25C36.625 39.125 37.6875 38.7292 38.4375 37.9375C39.2292 37.1458 39.625 36.0833 39.625 34.75V24.25C39.625 22.9167 39.2292 21.8542 38.4375 21.0625C37.6875 20.2708 36.625 19.875 35.25 19.875H24.8125C23.4792 19.875 22.4167 20.2708 21.625 21.0625C20.8333 21.8542 20.4375 22.9167 20.4375 24.25V34.75ZM48.9375 34.75C48.9375 36.0833 49.3333 37.1458 50.125 37.9375C50.9167 38.7292 51.9792 39.125 53.3125 39.125H63.75C65.125 39.125 66.2083 38.7292 67 37.9375C67.7917 37.1458 68.1875 36.0833 68.1875 34.75V24.25C68.1875 22.9167 67.7917 21.8542 67 21.0625C66.2083 20.2708 65.125 19.875 63.75 19.875H53.3125C51.9792 19.875 50.9167 20.2708 50.125 21.0625C49.3333 21.8542 48.9375 22.9167 48.9375 24.25V34.75ZM77.375 34.75C77.375 36.0833 77.7708 37.1458 78.5625 37.9375C79.3542 38.7292 80.4167 39.125 81.75 39.125H92.1875C93.5625 39.125 94.625 38.7292 95.375 37.9375C96.1667 37.1458 96.5625 36.0833 96.5625 34.75V24.25C96.5625 22.9167 96.1667 21.8542 95.375 21.0625C94.625 20.2708 93.5625 19.875 92.1875 19.875H81.75C80.4167 19.875 79.3542 20.2708 78.5625 21.0625C77.7708 21.8542 77.375 22.9167 77.375 24.25V34.75ZM20.4375 63.1875C20.4375 64.5208 20.8333 65.5833 21.625 66.375C22.4167 67.1667 23.4792 67.5625 24.8125 67.5625H35.25C36.625 67.5625 37.6875 67.1667 38.4375 66.375C39.2292 65.5833 39.625 64.5208 39.625 63.1875V52.6875C39.625 51.3542 39.2292 50.2917 38.4375 49.5C37.6875 48.7083 36.625 48.3125 35.25 48.3125H24.8125C23.4792 48.3125 22.4167 48.7083 21.625 49.5C20.8333 50.2917 20.4375 51.3542 20.4375 52.6875V63.1875ZM48.9375 63.1875C48.9375 64.5208 49.3333 65.5833 50.125 66.375C50.9167 67.1667 51.9792 67.5625 53.3125 67.5625H63.75C65.125 67.5625 66.2083 67.1667 67 66.375C67.7917 65.5833 68.1875 64.5208 68.1875 63.1875V52.6875C68.1875 51.3542 67.7917 50.2917 67 49.5C66.2083 48.7083 65.125 48.3125 63.75 48.3125H53.3125C51.9792 48.3125 50.9167 48.7083 50.125 49.5C49.3333 50.2917 48.9375 51.3542 48.9375 52.6875V63.1875ZM77.375 63.1875C77.375 64.5208 77.7708 65.5833 78.5625 66.375C79.3542 67.1667 80.4167 67.5625 81.75 67.5625H92.1875C93.5625 67.5625 94.625 67.1667 95.375 66.375C96.1667 65.5833 96.5625 64.5208 96.5625 63.1875V52.6875C96.5625 51.3542 96.1667 50.2917 95.375 49.5C94.625 48.7083 93.5625 48.3125 92.1875 48.3125H81.75C80.4167 48.3125 79.3542 48.7083 78.5625 49.5C77.7708 50.2917 77.375 51.3542 77.375 52.6875V63.1875ZM20.4375 91.625C20.4375 92.9583 20.8333 94.0208 21.625 94.8125C22.4167 95.6042 23.4792 96 24.8125 96H35.25C36.625 96 37.6875 95.6042 38.4375 94.8125C39.2292 94.0208 39.625 92.9583 39.625 91.625V81.125C39.625 79.7917 39.2292 78.7292 38.4375 77.9375C37.6875 77.1458 36.625 76.75 35.25 76.75H24.8125C23.4792 76.75 22.4167 77.1458 21.625 77.9375C20.8333 78.7292 20.4375 79.7917 20.4375 81.125V91.625ZM48.9375 91.625C48.9375 92.9583 49.3333 94.0208 50.125 94.8125C50.9167 95.6042 51.9792 96 53.3125 96H63.75C65.125 96 66.2083 95.6042 67 94.8125C67.7917 94.0208 68.1875 92.9583 68.1875 91.625V81.125C68.1875 79.7917 67.7917 78.7292 67 77.9375C66.2083 77.1458 65.125 76.75 63.75 76.75H53.3125C51.9792 76.75 50.9167 77.1458 50.125 77.9375C49.3333 78.7292 48.9375 79.7917 48.9375 81.125V91.625ZM77.375 91.625C77.375 92.9583 77.7708 94.0208 78.5625 94.8125C79.3542 95.6042 80.4167 96 81.75 96H92.1875C93.5625 96 94.625 95.6042 95.375 94.8125C96.1667 94.0208 96.5625 92.9583 96.5625 91.625V81.125C96.5625 79.7917 96.1667 78.7292 95.375 77.9375C94.625 77.1458 93.5625 76.75 92.1875 76.75H81.75C80.4167 76.75 79.3542 77.1458 78.5625 77.9375C77.7708 78.7292 77.375 79.7917 77.375 81.125V91.625Z" fill="white"/>
</svg>
