<svg width="18" height="18" viewBox="0 0 18 18" fill="none" xmlns="http://www.w3.org/2000/svg">
<path d="M3.64844 16.9531C3.8099 17.0781 3.99219 17.1198 4.19531 17.0781C4.39844 17.0417 4.61979 16.9375 4.85938 16.7656L8.99219 13.7266L13.1328 16.7656C13.3724 16.9375 13.5911 17.0417 13.7891 17.0781C13.9922 17.1146 14.1771 17.0729 14.3438 16.9531C14.4115 16.9062 14.5052 16.7943 14.625 16.6172L9.39062 12.5234C9.26562 12.4245 9.13281 12.375 8.99219 12.375C8.85677 12.375 8.72656 12.4245 8.60156 12.5234L4.84375 15.3906C4.80729 15.4167 4.78385 15.4219 4.77344 15.4062C4.76302 15.3958 4.76302 15.3724 4.77344 15.3359L6.32812 10.8672C6.38021 10.7161 6.38802 10.5807 6.35156 10.4609C6.32031 10.3359 6.23698 10.2266 6.10156 10.1328L2.21094 7.44531C2.17448 7.42448 2.16146 7.40365 2.17188 7.38281C2.17708 7.36719 2.20052 7.35938 2.24219 7.35938L5.44531 7.41406L4.27344 6.25L1.45312 6.23438C1.15104 6.22917 0.908854 6.27344 0.726562 6.36719C0.544271 6.46094 0.421875 6.60156 0.359375 6.78906C0.296875 6.98177 0.3125 7.16927 0.40625 7.35156C0.5 7.53385 0.669271 7.71094 0.914062 7.88281L5.08594 10.8828L3.45312 15.7422C3.35417 16.0234 3.32031 16.2656 3.35156 16.4688C3.38802 16.6719 3.48698 16.8333 3.64844 16.9531ZM13.125 10.7266L17.0781 7.88281C17.3229 7.71094 17.4922 7.53385 17.5859 7.35156C17.6797 7.16927 17.6953 6.98177 17.6328 6.78906C17.5703 6.60156 17.4479 6.46094 17.2656 6.36719C17.0833 6.27344 16.8411 6.22917 16.5391 6.23438L11.4219 6.26562L9.86719 1.38281C9.77344 1.09635 9.65365 0.880208 9.50781 0.734375C9.36719 0.588542 9.19531 0.515625 8.99219 0.515625C8.79427 0.515625 8.6224 0.588542 8.47656 0.734375C8.33594 0.880208 8.21875 1.09635 8.125 1.38281L7.07031 4.69531L8 5.625L8.95312 2.47656C8.96354 2.4349 8.97656 2.41406 8.99219 2.41406C9.01302 2.41406 9.02865 2.4349 9.03906 2.47656L10.3984 7C10.4453 7.16146 10.5208 7.27865 10.625 7.35156C10.7292 7.41927 10.862 7.45052 11.0234 7.44531L15.75 7.35938C15.7917 7.35938 15.8151 7.36719 15.8203 7.38281C15.8307 7.40365 15.8177 7.42448 15.7812 7.44531L12.2656 9.875L13.125 10.7266ZM15.75 16.3672C15.8698 16.4818 16.013 16.5391 16.1797 16.5391C16.3464 16.5391 16.487 16.4818 16.6016 16.3672C16.7161 16.2474 16.7734 16.1042 16.7734 15.9375C16.7786 15.7708 16.7214 15.6302 16.6016 15.5156L3.95312 2.90625C3.83333 2.78646 3.6901 2.72656 3.52344 2.72656C3.35677 2.72656 3.21354 2.78646 3.09375 2.90625C2.97917 3.02083 2.92188 3.16406 2.92188 3.33594C2.92188 3.5026 2.97917 3.64323 3.09375 3.75781L15.75 16.3672Z" fill="white"/>
</svg>
