<svg width="140" height="134" viewBox="0 0 140 134" fill="none" xmlns="http://www.w3.org/2000/svg">
<path d="M27.375 131.625C28.6667 132.625 30.125 132.958 31.75 132.625C33.375 132.333 35.1458 131.5 37.0625 130.125L70.125 105.812L103.25 130.125C105.167 131.5 106.938 132.333 108.562 132.625C110.188 132.958 111.646 132.625 112.938 131.625C114.229 130.667 115 129.375 115.25 127.75C115.542 126.125 115.292 124.188 114.5 121.938L101.438 83.0625L134.812 59.0625C136.771 57.6875 138.125 56.2708 138.875 54.8125C139.625 53.3542 139.75 51.8542 139.25 50.3125C138.75 48.8125 137.771 47.6875 136.312 46.9375C134.854 46.1875 132.917 45.8333 130.5 45.875L89.5625 46.125L77.125 7.0625C76.375 4.77083 75.4167 3.04167 74.25 1.875C73.125 0.708333 71.75 0.125 70.125 0.125C68.5417 0.125 67.1667 0.708333 66 1.875C64.875 3.04167 63.9375 4.77083 63.1875 7.0625L50.75 46.125L9.8125 45.875C7.39583 45.8333 5.45833 46.1875 4 46.9375C2.54167 47.6875 1.5625 48.8125 1.0625 50.3125C0.5625 51.8542 0.6875 53.3542 1.4375 54.8125C2.1875 56.2708 3.54167 57.6875 5.5 59.0625L38.875 83.0625L25.8125 121.938C25.0208 124.188 24.75 126.125 25 127.75C25.2917 129.375 26.0833 130.667 27.375 131.625ZM70.125 95.0625V15.3125C70.2917 15.3125 70.4167 15.4792 70.5 15.8125L81.375 52C81.75 53.2917 82.3542 54.2292 83.1875 54.8125C84.0208 55.3542 85.0833 55.6042 86.375 55.5625L124.188 54.875C124.521 54.875 124.708 54.9375 124.75 55.0625C124.833 55.2292 124.729 55.3958 124.438 55.5625L93.3125 77.0625C92.6042 77.5625 92.0625 78.125 91.6875 78.75C91.3125 79.3333 91.1042 79.9792 91.0625 80.6875C91.0625 81.3958 91.2083 82.1458 91.5 82.9375L103.938 118.688C103.979 118.979 103.979 119.167 103.938 119.25C103.854 119.375 103.667 119.333 103.375 119.125L73.3125 96.1875C72.2708 95.3542 71.2083 94.9792 70.125 95.0625Z" fill="white"/>
</svg>
