<?xml version="1.0" encoding="UTF-8"?>
<svg xmlns="http://www.w3.org/2000/svg" xmlns:xlink="http://www.w3.org/1999/xlink" width="24" height="25.5" viewBox="0 0 24 25.5" version="1.1">
<g id="surface1">
<path style=" stroke:none;fill-rule:nonzero;fill:rgb(100%,100%,100%);fill-opacity:1;" d="M 12 24.503906 C 13.632812 24.503906 15.167969 24.191406 16.605469 23.566406 C 18.050781 22.941406 19.324219 22.078125 20.425781 20.976562 C 21.527344 19.875 22.390625 18.605469 23.015625 17.167969 C 23.640625 15.722656 23.953125 14.183594 23.953125 12.550781 C 23.953125 10.917969 23.640625 9.382812 23.015625 7.945312 C 22.390625 6.5 21.527344 5.226562 20.425781 4.125 C 19.324219 3.023438 18.050781 2.160156 16.605469 1.535156 C 15.160156 0.910156 13.621094 0.597656 11.988281 0.597656 C 10.355469 0.597656 8.816406 0.910156 7.371094 1.535156 C 5.933594 2.160156 4.664062 3.023438 3.5625 4.125 C 2.46875 5.226562 1.609375 6.5 0.984375 7.945312 C 0.359375 9.382812 0.046875 10.917969 0.046875 12.550781 C 0.046875 14.183594 0.359375 15.722656 0.984375 17.167969 C 1.609375 18.605469 2.472656 19.875 3.574219 20.976562 C 4.675781 22.078125 5.945312 22.941406 7.382812 23.566406 C 8.828125 24.191406 10.367188 24.503906 12 24.503906 Z M 6.386719 9.375 L 6.433594 9.292969 C 6.621094 8.917969 6.824219 8.703125 7.042969 8.648438 C 7.261719 8.585938 7.558594 8.660156 7.933594 8.871094 L 10.839844 10.582031 L 10.839844 7.183594 C 10.839844 6.785156 10.921875 6.507812 11.085938 6.351562 C 11.257812 6.1875 11.554688 6.105469 11.976562 6.105469 L 12.058594 6.105469 C 12.472656 6.105469 12.761719 6.1875 12.925781 6.351562 C 13.089844 6.507812 13.171875 6.785156 13.171875 7.183594 L 13.171875 10.582031 L 16.078125 8.871094 C 16.460938 8.652344 16.761719 8.574219 16.980469 8.636719 C 17.199219 8.691406 17.398438 8.910156 17.578125 9.292969 L 17.625 9.375 C 17.8125 9.75 17.875 10.046875 17.8125 10.265625 C 17.757812 10.476562 17.558594 10.671875 17.214844 10.851562 L 14.179688 12.503906 L 17.238281 14.261719 C 17.566406 14.457031 17.753906 14.664062 17.800781 14.882812 C 17.855469 15.09375 17.792969 15.386719 17.613281 15.761719 L 17.578125 15.808594 C 17.390625 16.191406 17.1875 16.414062 16.96875 16.476562 C 16.757812 16.53125 16.46875 16.449219 16.101562 16.230469 L 13.171875 14.53125 L 13.171875 17.929688 C 13.171875 18.335938 13.089844 18.617188 12.925781 18.773438 C 12.761719 18.929688 12.472656 19.007812 12.058594 19.007812 L 11.976562 19.007812 C 11.554688 19.007812 11.257812 18.929688 11.085938 18.773438 C 10.921875 18.617188 10.839844 18.335938 10.839844 17.929688 L 10.839844 14.53125 L 7.910156 16.230469 C 7.558594 16.441406 7.273438 16.519531 7.054688 16.464844 C 6.84375 16.402344 6.636719 16.183594 6.433594 15.808594 L 6.410156 15.761719 C 6.207031 15.394531 6.132812 15.105469 6.1875 14.894531 C 6.242188 14.675781 6.441406 14.464844 6.785156 14.261719 L 9.84375 12.503906 L 6.796875 10.851562 C 6.453125 10.671875 6.25 10.476562 6.1875 10.265625 C 6.132812 10.046875 6.199219 9.75 6.386719 9.375 Z M 6.386719 9.375 "/>
</g>
</svg>
