<svg xmlns="http://www.w3.org/2000/svg" width="24" height="24"><path style="stroke:none;fill-rule:nonzero;fill:#fff;fill-opacity:1" d="M4.863 22.605c.215.165.461.223.73.165.27-.047.567-.188.887-.415l5.508-4.054 5.524 4.054c.316.227.61.368.875.415.27.05.515-.004.738-.165.09-.062.215-.214.375-.449L12.52 16.7a.85.85 0 0 0-.532-.199.841.841 0 0 0-.52.2l-5.011 3.82c-.047.035-.078.043-.094.023-.011-.016-.011-.047 0-.094l2.074-5.96c.07-.2.079-.38.032-.54-.043-.168-.153-.312-.332-.437L2.949 9.926c-.05-.028-.066-.055-.054-.082.007-.02.039-.031.093-.031l4.274.074-1.563-1.555-3.761-.02c-.403-.007-.727.051-.97.176a.94.94 0 0 0-.488.563.932.932 0 0 0 .063.75c.125.246.348.48.676.71l5.562 4-2.176 6.477c-.132.375-.18.7-.136.969.047.273.18.488.394.648ZM17.5 14.301l5.27-3.79c.328-.23.554-.464.68-.71a.96.96 0 0 0-.43-1.313c-.243-.125-.567-.183-.97-.175l-6.82.042-2.074-6.511c-.125-.383-.285-.672-.48-.864a.912.912 0 0 0-.688-.292.955.955 0 0 0-.687.292c-.188.192-.344.48-.469.864L9.426 6.262 10.668 7.5l1.27-4.2c.015-.054.03-.081.05-.081.028 0 .051.027.063.082l1.812 6.031c.063.215.164.371.305.469.137.09.316.133.531.125L21 9.812c.055 0 .086.012.094.032.015.027-.004.054-.051.082l-4.688 3.242Zm3.5 7.523c.16.153.352.227.574.227.223 0 .41-.074.563-.227a.802.802 0 0 0 .226-.574.713.713 0 0 0-.226-.563L5.27 3.875a.767.767 0 0 0-.57-.238.782.782 0 0 0-.575.238.79.79 0 0 0-.23.574c0 .223.078.41.23.563Zm0 0"/></svg>