<svg width="16" height="17" viewBox="0 0 16 17" fill="none" xmlns="http://www.w3.org/2000/svg">
<path d="M8 16.3359C9.08854 16.3359 10.112 16.1276 11.0703 15.7109C12.0339 15.2943 12.8828 14.7188 13.6172 13.9844C14.3516 13.25 14.9271 12.4036 15.3438 11.4453C15.7604 10.4818 15.9688 9.45573 15.9688 8.36719C15.9688 7.27865 15.7604 6.25521 15.3438 5.29688C14.9271 4.33333 14.3516 3.48438 13.6172 2.75C12.8828 2.01562 12.0339 1.4401 11.0703 1.02344C10.1068 0.606771 9.08073 0.398438 7.99219 0.398438C6.90365 0.398438 5.8776 0.606771 4.91406 1.02344C3.95573 1.4401 3.10938 2.01562 2.375 2.75C1.64583 3.48438 1.07292 4.33333 0.65625 5.29688C0.239583 6.25521 0.03125 7.27865 0.03125 8.36719C0.03125 9.45573 0.239583 10.4818 0.65625 11.4453C1.07292 12.4036 1.64844 13.25 2.38281 13.9844C3.11719 14.7188 3.96354 15.2943 4.92188 15.7109C5.88542 16.1276 6.91146 16.3359 8 16.3359ZM4.25781 6.25L4.28906 6.19531C4.41406 5.94531 4.54948 5.80208 4.69531 5.76562C4.84115 5.72396 5.03906 5.77344 5.28906 5.91406L7.22656 7.05469V4.78906C7.22656 4.52344 7.28125 4.33854 7.39062 4.23438C7.50521 4.125 7.70312 4.07031 7.98438 4.07031H8.03906C8.3151 4.07031 8.50781 4.125 8.61719 4.23438C8.72656 4.33854 8.78125 4.52344 8.78125 4.78906V7.05469L10.7188 5.91406C10.974 5.76823 11.1745 5.71615 11.3203 5.75781C11.4661 5.79427 11.599 5.9401 11.7188 6.19531L11.75 6.25C11.875 6.5 11.9167 6.69792 11.875 6.84375C11.8385 6.98438 11.7057 7.11458 11.4766 7.23438L9.45312 8.33594L11.4922 9.50781C11.7109 9.63802 11.8359 9.77604 11.8672 9.92188C11.9036 10.0625 11.862 10.2578 11.7422 10.5078L11.7188 10.5391C11.5938 10.7943 11.4583 10.9427 11.3125 10.9844C11.1719 11.0208 10.9792 10.9661 10.7344 10.8203L8.78125 9.6875V11.9531C8.78125 12.224 8.72656 12.4115 8.61719 12.5156C8.50781 12.6198 8.3151 12.6719 8.03906 12.6719H7.98438C7.70312 12.6719 7.50521 12.6198 7.39062 12.5156C7.28125 12.4115 7.22656 12.224 7.22656 11.9531V9.6875L5.27344 10.8203C5.03906 10.9609 4.84896 11.013 4.70312 10.9766C4.5625 10.9349 4.42448 10.7891 4.28906 10.5391L4.27344 10.5078C4.13802 10.263 4.08854 10.0703 4.125 9.92969C4.16146 9.78385 4.29427 9.64323 4.52344 9.50781L6.5625 8.33594L4.53125 7.23438C4.30208 7.11458 4.16667 6.98438 4.125 6.84375C4.08854 6.69792 4.13281 6.5 4.25781 6.25Z" fill="white"/>
</svg>
