<?xml version="1.0" encoding="UTF-8"?>
<svg xmlns="http://www.w3.org/2000/svg" xmlns:xlink="http://www.w3.org/1999/xlink" width="24" height="25.5" viewBox="0 0 24 25.5" version="1.1">
<g id="surface1">
<path style=" stroke:none;fill-rule:nonzero;fill:rgb(100%,100%,100%);fill-opacity:1;" d="M 12 24.492188 C 13.632812 24.492188 15.167969 24.179688 16.605469 23.554688 C 18.050781 22.929688 19.324219 22.066406 20.425781 20.964844 C 21.527344 19.863281 22.390625 18.59375 23.015625 17.15625 C 23.640625 15.710938 23.953125 14.171875 23.953125 12.539062 C 23.953125 10.90625 23.640625 9.371094 23.015625 7.933594 C 22.390625 6.488281 21.527344 5.214844 20.425781 4.113281 C 19.324219 3.011719 18.050781 2.148438 16.605469 1.523438 C 15.160156 0.898438 13.621094 0.585938 11.988281 0.585938 C 10.355469 0.585938 8.816406 0.898438 7.371094 1.523438 C 5.933594 2.148438 4.664062 3.011719 3.5625 4.113281 C 2.46875 5.214844 1.609375 6.488281 0.984375 7.933594 C 0.359375 9.371094 0.046875 10.90625 0.046875 12.539062 C 0.046875 14.171875 0.359375 15.710938 0.984375 17.15625 C 1.609375 18.59375 2.472656 19.863281 3.574219 20.964844 C 4.675781 22.066406 5.945312 22.929688 7.382812 23.554688 C 8.828125 24.179688 10.367188 24.492188 12 24.492188 Z M 12 22.5 C 10.617188 22.5 9.324219 22.242188 8.121094 21.726562 C 6.917969 21.210938 5.859375 20.5 4.945312 19.59375 C 4.039062 18.679688 3.328125 17.621094 2.8125 16.417969 C 2.304688 15.214844 2.050781 13.921875 2.050781 12.539062 C 2.050781 11.15625 2.304688 9.863281 2.8125 8.660156 C 3.328125 7.457031 4.039062 6.398438 4.945312 5.484375 C 5.851562 4.570312 6.90625 3.859375 8.109375 3.351562 C 9.3125 2.835938 10.605469 2.578125 11.988281 2.578125 C 13.371094 2.578125 14.664062 2.835938 15.867188 3.351562 C 17.078125 3.859375 18.136719 4.570312 19.042969 5.484375 C 19.957031 6.398438 20.671875 7.457031 21.1875 8.660156 C 21.703125 9.863281 21.960938 11.15625 21.960938 12.539062 C 21.960938 13.921875 21.703125 15.214844 21.1875 16.417969 C 20.679688 17.621094 19.96875 18.679688 19.054688 19.59375 C 18.140625 20.5 17.082031 21.210938 15.878906 21.726562 C 14.675781 22.242188 13.382812 22.5 12 22.5 Z M 8.625 18.574219 L 11.988281 16.113281 L 15.351562 18.574219 C 15.585938 18.746094 15.804688 18.8125 16.007812 18.773438 C 16.21875 18.734375 16.375 18.621094 16.476562 18.433594 C 16.578125 18.246094 16.585938 18.019531 16.5 17.753906 L 15.164062 13.78125 L 18.5625 11.355469 C 18.773438 11.207031 18.894531 11.027344 18.925781 10.816406 C 18.957031 10.597656 18.902344 10.40625 18.761719 10.242188 C 18.628906 10.078125 18.417969 10 18.128906 10.007812 L 13.957031 10.042969 L 12.679688 6.046875 C 12.601562 5.789062 12.464844 5.617188 12.269531 5.53125 C 12.082031 5.445312 11.894531 5.445312 11.707031 5.53125 C 11.519531 5.617188 11.382812 5.789062 11.296875 6.046875 L 10.03125 10.042969 L 5.859375 10.007812 C 5.570312 10 5.355469 10.078125 5.214844 10.242188 C 5.082031 10.40625 5.03125 10.597656 5.0625 10.816406 C 5.09375 11.027344 5.214844 11.210938 5.425781 11.367188 L 8.824219 13.78125 L 7.488281 17.753906 C 7.402344 18.019531 7.410156 18.246094 7.511719 18.433594 C 7.613281 18.621094 7.765625 18.734375 7.96875 18.773438 C 8.179688 18.8125 8.398438 18.746094 8.625 18.574219 Z M 8.625 18.574219 "/>
</g>
</svg>
