<svg width="16" height="17" viewBox="0 0 16 17" fill="none" xmlns="http://www.w3.org/2000/svg">
<path d="M8 16.3281C9.08854 16.3281 10.112 16.1198 11.0703 15.7031C12.0339 15.2865 12.8828 14.7109 13.6172 13.9766C14.3516 13.2422 14.9271 12.3958 15.3438 11.4375C15.7604 10.474 15.9688 9.44792 15.9688 8.35938C15.9688 7.27083 15.7604 6.2474 15.3438 5.28906C14.9271 4.32552 14.3516 3.47656 13.6172 2.74219C12.8828 2.00781 12.0339 1.43229 11.0703 1.01562C10.1068 0.598958 9.08073 0.390625 7.99219 0.390625C6.90365 0.390625 5.8776 0.598958 4.91406 1.01562C3.95573 1.43229 3.10938 2.00781 2.375 2.74219C1.64583 3.47656 1.07292 4.32552 0.65625 5.28906C0.239583 6.2474 0.03125 7.27083 0.03125 8.35938C0.03125 9.44792 0.239583 10.474 0.65625 11.4375C1.07292 12.3958 1.64844 13.2422 2.38281 13.9766C3.11719 14.7109 3.96354 15.2865 4.92188 15.7031C5.88542 16.1198 6.91146 16.3281 8 16.3281ZM5.6875 12.5234C5.53125 12.6432 5.38021 12.6901 5.23438 12.6641C5.09375 12.638 4.98698 12.5599 4.91406 12.4297C4.84635 12.2995 4.84375 12.1432 4.90625 11.9609L5.82031 9.23438L3.48438 7.57031C3.33854 7.46094 3.25521 7.33333 3.23438 7.1875C3.21354 7.03646 3.25 6.90625 3.34375 6.79688C3.4375 6.68229 3.58594 6.6276 3.78906 6.63281L6.65625 6.65625L7.52344 3.91406C7.58073 3.73177 7.67448 3.61198 7.80469 3.55469C7.9349 3.49219 8.0651 3.49219 8.19531 3.55469C8.32552 3.61198 8.41927 3.73177 8.47656 3.91406L9.35156 6.65625L12.2188 6.63281C12.4219 6.6276 12.5703 6.68229 12.6641 6.79688C12.7578 6.91146 12.7943 7.04427 12.7734 7.19531C12.7526 7.34115 12.6693 7.46354 12.5234 7.5625L10.1875 9.23438L11.1016 11.9609C11.1641 12.1432 11.1589 12.2995 11.0859 12.4297C11.0182 12.5599 10.9115 12.638 10.7656 12.6641C10.625 12.6901 10.474 12.6432 10.3125 12.5234L8 10.8359L5.6875 12.5234Z" fill="white"/>
</svg>
