<svg width="16" height="15" viewBox="0 0 16 15" fill="none" xmlns="http://www.w3.org/2000/svg">
<path d="M3.25781 14.5625H12.7344C13.5521 14.5625 14.1641 14.3594 14.5703 13.9531C14.9818 13.5521 15.1875 12.9479 15.1875 12.1406V2.60156C15.1875 1.79427 14.9818 1.1901 14.5703 0.789062C14.1641 0.382812 13.5521 0.179688 12.7344 0.179688H3.25781C2.4401 0.179688 1.82552 0.382812 1.41406 0.789062C1.00781 1.1901 0.804688 1.79427 0.804688 2.60156V12.1406C0.804688 12.9479 1.00781 13.5521 1.41406 13.9531C1.82552 14.3594 2.4401 14.5625 3.25781 14.5625ZM3.27344 13.3047C2.88281 13.3047 2.58333 13.2031 2.375 13C2.16667 12.7917 2.0625 12.4844 2.0625 12.0781V2.66406C2.0625 2.25781 2.16667 1.95312 2.375 1.75C2.58333 1.54167 2.88281 1.4375 3.27344 1.4375H12.7188C13.1042 1.4375 13.401 1.54167 13.6094 1.75C13.8229 1.95312 13.9297 2.25781 13.9297 2.66406V12.0781C13.9297 12.4844 13.8229 12.7917 13.6094 13C13.401 13.2031 13.1042 13.3047 12.7188 13.3047H3.27344ZM5.75781 11.3828L8 9.74219L10.2422 11.3828C10.3984 11.4974 10.5443 11.5417 10.6797 11.5156C10.8203 11.4896 10.9245 11.4141 10.9922 11.2891C11.0599 11.1641 11.0651 11.013 11.0078 10.8359L10.1172 8.1875L12.3828 6.57031C12.5234 6.47135 12.6042 6.35156 12.625 6.21094C12.6458 6.0651 12.6094 5.9375 12.5156 5.82812C12.4271 5.71875 12.2865 5.66667 12.0938 5.67188L9.3125 5.69531L8.46094 3.03125C8.40885 2.85938 8.31771 2.74479 8.1875 2.6875C8.0625 2.63021 7.9375 2.63021 7.8125 2.6875C7.6875 2.74479 7.59635 2.85938 7.53906 3.03125L6.69531 5.69531L3.91406 5.67188C3.72135 5.66667 3.57812 5.71875 3.48438 5.82812C3.39583 5.9375 3.36198 6.0651 3.38281 6.21094C3.40365 6.35156 3.48438 6.47396 3.625 6.57812L5.89062 8.1875L5 10.8359C4.94271 11.013 4.94792 11.1641 5.01562 11.2891C5.08333 11.4141 5.1849 11.4896 5.32031 11.5156C5.46094 11.5417 5.60677 11.4974 5.75781 11.3828Z" fill="white"/>
</svg>
