<svg width="139" height="130" viewBox="0 0 139 130" fill="none" xmlns="http://www.w3.org/2000/svg">
<path d="M38.0625 129.938C39.3125 129.938 40.4375 129.604 41.4375 128.938C42.4792 128.312 43.75 127.312 45.25 125.938L67.8125 105.312H110.062C116.271 105.312 121.5 104.208 125.75 102C130 99.7917 133.208 96.5625 135.375 92.3125C137.583 88.0625 138.688 82.875 138.688 76.75V28.875C138.688 22.75 137.583 17.5625 135.375 13.3125C133.208 9.0625 130 5.83333 125.75 3.625C121.5 1.375 116.271 0.25 110.062 0.25H29.5625C23.3542 0.25 18.125 1.375 13.875 3.625C9.625 5.83333 6.39583 9.0625 4.1875 13.3125C2.02083 17.5625 0.9375 22.75 0.9375 28.875V76.75C0.9375 82.875 2.02083 88.0625 4.1875 92.3125C6.39583 96.5625 9.625 99.7917 13.875 102C18.125 104.208 23.3542 105.312 29.5625 105.312H32.5V123.5C32.5 125.458 32.9792 127.021 33.9375 128.188C34.8958 129.354 36.2708 129.938 38.0625 129.938ZM56.125 77.1875C55.2083 77.8125 54.3125 78.0625 53.4375 77.9375C52.5625 77.8125 51.9167 77.375 51.5 76.625C51.0833 75.875 51.0833 74.9167 51.5 73.75L56.875 57.6875L42.75 47.5C41.7917 46.875 41.2708 46.1458 41.1875 45.3125C41.1042 44.4375 41.3542 43.7083 41.9375 43.125C42.5208 42.5 43.3542 42.1875 44.4375 42.1875H61.8125L67.0625 26.1875C67.5208 24.5625 68.4583 23.75 69.875 23.75C71.2917 23.75 72.25 24.5625 72.75 26.1875L77.9375 42.1875H95.25C96.3333 42.1875 97.1667 42.5 97.75 43.125C98.3333 43.7083 98.5625 44.4375 98.4375 45.3125C98.3542 46.1458 97.8333 46.875 96.875 47.5L82.875 57.6875L88.25 73.75C88.625 74.9167 88.6042 75.875 88.1875 76.625C87.7708 77.375 87.125 77.8125 86.25 77.9375C85.375 78.0625 84.4792 77.8125 83.5625 77.1875L69.875 67.125L56.125 77.1875Z" fill="white"/>
</svg>
