<svg xmlns="http://www.w3.org/2000/svg" width="24" height="24"><path style="stroke:none;fill-rule:nonzero;fill:#fff;fill-opacity:1" d="M12 23.05c1.633 0 3.168-.292 4.605-.882a12.22 12.22 0 0 0 3.82-2.438 11.467 11.467 0 0 0 2.59-3.582c.626-1.363.938-2.808.938-4.347a10.2 10.2 0 0 0-.937-4.332 11.53 11.53 0 0 0-2.59-3.598 12.361 12.361 0 0 0-3.82-2.437A12.166 12.166 0 0 0 11.987.55c-1.633 0-3.172.293-4.617.883A12.307 12.307 0 0 0 3.562 3.87 11.523 11.523 0 0 0 .985 7.465 10.2 10.2 0 0 0 .047 11.8c0 1.539.312 2.984.937 4.347a11.467 11.467 0 0 0 2.59 3.582 12.236 12.236 0 0 0 3.809 2.438c1.445.59 2.984.883 4.617.883Zm-3.82-6.097a.76.76 0 0 1-.516-.176.651.651 0 0 1-.2-.496c0-.191.052-.347.153-.465.102-.117.262-.21.48-.277a2.332 2.332 0 0 0 1.184-.75c.336-.387.504-.887.504-1.488 0-.184-.015-.371-.047-.563a5.053 5.053 0 0 0-.129-.574H8.18A.693.693 0 0 1 7.7 12a.61.61 0 0 1-.187-.453c0-.184.062-.328.187-.442a.693.693 0 0 1 .48-.164h1.114a6.456 6.456 0 0 1-.152-.66 5.083 5.083 0 0 1-.047-.687c0-1.07.355-1.926 1.066-2.555.719-.633 1.7-.95 2.942-.95.375 0 .73.024 1.066.075.336.047.645.113.926.211.226.082.383.184.469.309.093.117.14.253.14.406a.6.6 0 0 1-.164.441c-.101.106-.266.157-.492.157-.164 0-.387-.04-.668-.122-.274-.09-.668-.132-1.184-.132-.789 0-1.406.191-1.851.574-.446.383-.668.879-.668 1.488 0 .281.02.535.058.774.047.234.098.457.153.671h3.328c.195 0 .355.055.48.164a.55.55 0 0 1 .2.442.57.57 0 0 1-.2.453.68.68 0 0 1-.48.164h-3.012c.04.172.07.344.094.52.023.175.035.363.035.562 0 .477-.098.93-.293 1.356-.187.43-.437.765-.75 1.015h5.25c.211 0 .383.063.516.188a.586.586 0 0 1 .21.476.64.64 0 0 1-.21.496.76.76 0 0 1-.516.176Zm0 0"/></svg>