<svg width="87" height="114" viewBox="0 0 87 114" fill="none" xmlns="http://www.w3.org/2000/svg">
<path d="M6.3125 113.5H80.875C82.4167 113.5 83.7083 113.021 84.75 112.062C85.7917 111.146 86.3125 109.896 86.3125 108.312C86.3125 106.729 85.7917 105.479 84.75 104.562C83.7083 103.646 82.4167 103.188 80.875 103.188H20.75V102.875C23.75 101.875 26.3958 100.062 28.6875 97.4375C31.0208 94.8125 32.8542 91.625 34.1875 87.875C35.5208 84.0833 36.1875 79.9167 36.1875 75.375C36.1875 71.4583 35.8542 67.8958 35.1875 64.6875C34.5208 61.4375 33.75 58.3125 32.875 55.3125C32 52.2708 31.2292 49.125 30.5625 45.875C29.8958 42.625 29.5625 39.0208 29.5625 35.0625C29.5625 30.2292 30.6458 26 32.8125 22.375C34.9792 18.7083 38.1042 15.8542 42.1875 13.8125C46.3125 11.7292 51.2708 10.6875 57.0625 10.6875C60.6042 10.6875 63.5625 10.9375 65.9375 11.4375C68.3125 11.8958 70.2917 12.375 71.875 12.875C73.4583 13.3333 74.8125 13.5625 75.9375 13.5625C77.5208 13.5625 78.6875 13.1458 79.4375 12.3125C80.2292 11.4375 80.625 10.3125 80.625 8.9375C80.625 7.64583 80.2083 6.52083 79.375 5.5625C78.5833 4.60417 77.3125 3.77083 75.5625 3.0625C72.8125 1.97917 69.8125 1.20833 66.5625 0.75C63.3542 0.291667 59.875 0.0625 56.125 0.0625C48.125 0.0625 41.2292 1.54167 35.4375 4.5C29.6458 7.41667 25.1667 11.5625 22 16.9375C18.875 22.3125 17.3125 28.6458 17.3125 35.9375C17.3125 39.4375 17.6667 42.9375 18.375 46.4375C19.125 49.9375 19.9583 53.3958 20.875 56.8125C21.7917 60.1875 22.6042 63.4792 23.3125 66.6875C24.0625 69.8958 24.4375 72.9583 24.4375 75.875C24.4375 80.5833 23.5833 84.7292 21.875 88.3125C20.1667 91.8958 17.8958 94.8542 15.0625 97.1875C12.2708 99.5208 9.20833 101.146 5.875 102.062C4.16667 102.604 2.91667 103.354 2.125 104.312C1.33333 105.271 0.9375 106.542 0.9375 108.125C0.9375 109.708 1.4375 111 2.4375 112C3.4375 113 4.72917 113.5 6.3125 113.5ZM1.75 56.8125C1.75 58.1042 2.1875 59.1875 3.0625 60.0625C3.97917 60.9375 5.08333 61.375 6.375 61.375H67.5C68.7917 61.375 69.875 60.9375 70.75 60.0625C71.625 59.1875 72.0625 58.1042 72.0625 56.8125C72.0625 55.5625 71.625 54.5 70.75 53.625C69.875 52.7083 68.7917 52.25 67.5 52.25H6.375C5.08333 52.25 3.97917 52.7083 3.0625 53.625C2.1875 54.5 1.75 55.5625 1.75 56.8125Z" fill="white"/>
</svg>
