<svg width="169" height="136" viewBox="0 0 169 136" fill="none" xmlns="http://www.w3.org/2000/svg">
<path d="M0.9375 25.6875C0.9375 30.8125 1.79167 36.2708 3.5 42.0625C5.20833 47.8125 7.52083 53.4792 10.4375 59.0625C13.3958 64.6042 16.7708 69.6458 20.5625 74.1875C24.3958 78.7292 28.4583 82.3542 32.75 85.0625C37.0833 87.7708 41.4167 89.125 45.75 89.125H48.5625C52.8958 89.125 57.2083 87.7708 61.5 85.0625C65.7917 82.3542 69.8542 78.7292 73.6875 74.1875C77.5208 69.6458 80.8958 64.6042 83.8125 59.0625C86.7708 53.4792 89.1042 47.8125 90.8125 42.0625C92.5208 36.2708 93.375 30.8125 93.375 25.6875C93.375 18.7708 91.6875 13.5625 88.3125 10.0625C84.9792 6.5625 80 4.8125 73.375 4.8125H66.75V14.875H73.875C77.0417 14.875 79.3958 15.7917 80.9375 17.625C82.5208 19.4583 83.3125 22.1042 83.3125 25.5625C83.3125 29.5208 82.625 33.8958 81.25 38.6875C79.9167 43.4375 78.0625 48.1875 75.6875 52.9375C73.3542 57.6875 70.6458 62.0417 67.5625 66C64.4792 69.9167 61.1875 73.0833 57.6875 75.5C54.2292 77.875 50.7083 79.0625 47.125 79.0625C43.5833 79.0625 40.0625 77.875 36.5625 75.5C33.1042 73.0833 29.8333 69.9167 26.75 66C23.6667 62.0417 20.9375 57.6875 18.5625 52.9375C16.2292 48.1875 14.375 43.4375 13 38.6875C11.6667 33.8958 11 29.5208 11 25.5625C11 22.1042 11.7708 19.4583 13.3125 17.625C14.8958 15.7917 17.25 14.875 20.375 14.875H27.5V4.8125H20.875C14.2917 4.8125 9.3125 6.5625 5.9375 10.0625C2.60417 13.5625 0.9375 18.7708 0.9375 25.6875ZM73.75 135.562C80.0833 135.562 85.4583 133.875 89.875 130.5C94.3333 127.125 98 122.062 100.875 115.312C103.792 108.562 106.125 100.104 107.875 89.9375C109.208 82.3542 110.729 76.3958 112.438 72.0625C114.188 67.6875 116.208 64.6042 118.5 62.8125C120.792 60.9792 123.458 60.0625 126.5 60.0625C130 60.0625 132.917 61.25 135.25 63.625C137.583 66 139.375 69.5833 140.625 74.375C141.917 79.1667 142.708 85.1875 143 92.4375H153.062C152.438 83.0208 151.104 75.1667 149.062 68.875C147.062 62.5833 144.208 57.875 140.5 54.75C136.792 51.5833 132.125 50 126.5 50C121.417 50 117.062 51.25 113.438 53.75C109.812 56.25 106.75 60.2708 104.25 65.8125C101.75 71.3125 99.6667 78.6042 98 87.6875C96.875 93.8125 95.6458 99.2292 94.3125 103.938C92.9792 108.646 91.375 112.583 89.5 115.75C87.625 118.958 85.3542 121.375 82.6875 123C80.0208 124.667 76.8333 125.5 73.125 125.5C66.375 125.5 61.1667 121.979 57.5 114.938C53.8333 107.938 52.0208 97.9792 52.0625 85.0625H42C41.9583 101.271 44.6875 113.729 50.1875 122.438C55.7292 131.188 63.5833 135.562 73.75 135.562ZM30.625 19.1875C33.2083 19.1875 35.4167 18.2708 37.25 16.4375C39.0833 14.5625 40 12.3333 40 9.75C40 7.16667 39.0833 4.95833 37.25 3.125C35.4167 1.25 33.2083 0.3125 30.625 0.3125C28.0417 0.3125 25.8125 1.25 23.9375 3.125C22.1042 4.95833 21.1875 7.16667 21.1875 9.75C21.1875 12.3333 22.1042 14.5625 23.9375 16.4375C25.8125 18.2708 28.0417 19.1875 30.625 19.1875ZM63.5625 19.1875C66.1458 19.1875 68.3542 18.2708 70.1875 16.4375C72.0625 14.5625 73 12.3333 73 9.75C73 7.16667 72.0625 4.95833 70.1875 3.125C68.3542 1.25 66.1458 0.3125 63.5625 0.3125C60.9792 0.3125 58.7708 1.25 56.9375 3.125C55.1042 4.95833 54.1875 7.16667 54.1875 9.75C54.1875 12.3333 55.1042 14.5625 56.9375 16.4375C58.7708 18.2708 60.9792 19.1875 63.5625 19.1875ZM148.438 127.25C152.062 127.25 155.354 126.354 158.312 124.562C161.312 122.812 163.708 120.438 165.5 117.438C167.292 114.438 168.188 111.104 168.188 107.438C168.188 103.812 167.292 100.521 165.5 97.5625C163.708 94.5625 161.312 92.1875 158.312 90.4375C155.354 88.6458 152.062 87.7292 148.438 87.6875C144.771 87.6875 141.438 88.5833 138.438 90.375C135.479 92.125 133.104 94.5 131.312 97.5C129.521 100.5 128.625 103.812 128.625 107.438C128.625 111.104 129.521 114.438 131.312 117.438C133.104 120.438 135.479 122.812 138.438 124.562C141.438 126.354 144.771 127.25 148.438 127.25ZM148.438 118.438C146.396 118.438 144.542 117.938 142.875 116.938C141.208 115.979 139.875 114.646 138.875 112.938C137.875 111.271 137.375 109.438 137.375 107.438C137.375 105.396 137.875 103.542 138.875 101.875C139.875 100.208 141.208 98.8958 142.875 97.9375C144.542 96.9375 146.396 96.4375 148.438 96.4375C150.479 96.4375 152.312 96.9375 153.938 97.9375C155.604 98.8958 156.938 100.208 157.938 101.875C158.938 103.542 159.438 105.396 159.438 107.438C159.438 109.438 158.938 111.271 157.938 112.938C156.938 114.646 155.604 115.979 153.938 116.938C152.312 117.938 150.479 118.438 148.438 118.438Z" fill="white"/>
</svg>
