<?xml version="1.0" encoding="UTF-8"?>
<svg xmlns="http://www.w3.org/2000/svg" xmlns:xlink="http://www.w3.org/1999/xlink" width="24" height="18.545455" viewBox="0 0 24 18.545455" version="1.1">
<g id="surface1">
<path style=" stroke:none;fill-rule:nonzero;fill:rgb(100%,100%,100%);fill-opacity:1;" d="M 1.082031 3.503906 C 1.082031 4.203125 1.199219 4.945312 1.433594 5.734375 C 1.664062 6.519531 1.980469 7.292969 2.378906 8.054688 C 2.78125 8.808594 3.242188 9.496094 3.757812 10.117188 C 4.28125 10.734375 4.835938 11.230469 5.421875 11.597656 C 6.011719 11.96875 6.601562 12.152344 7.191406 12.152344 L 7.578125 12.152344 C 8.167969 12.152344 8.753906 11.96875 9.339844 11.597656 C 9.925781 11.230469 10.480469 10.734375 11.003906 10.117188 C 11.527344 9.496094 11.984375 8.808594 12.382812 8.054688 C 12.785156 7.292969 13.105469 6.519531 13.339844 5.734375 C 13.570312 4.945312 13.6875 4.203125 13.6875 3.503906 C 13.6875 2.558594 13.457031 1.847656 12.996094 1.371094 C 12.542969 0.894531 11.863281 0.65625 10.960938 0.65625 L 10.058594 0.65625 L 10.058594 2.027344 L 11.027344 2.027344 C 11.460938 2.027344 11.78125 2.152344 11.992188 2.402344 C 12.207031 2.652344 12.316406 3.015625 12.316406 3.484375 C 12.316406 4.027344 12.222656 4.621094 12.035156 5.277344 C 11.851562 5.921875 11.597656 6.570312 11.277344 7.21875 C 10.957031 7.867188 10.589844 8.460938 10.167969 9 C 9.746094 9.535156 9.296875 9.964844 8.820312 10.296875 C 8.347656 10.621094 7.871094 10.78125 7.378906 10.78125 C 6.898438 10.78125 6.417969 10.621094 5.941406 10.296875 C 5.46875 9.964844 5.023438 9.535156 4.601562 9 C 4.183594 8.460938 3.808594 7.867188 3.484375 7.21875 C 3.167969 6.570312 2.914062 5.921875 2.726562 5.277344 C 2.546875 4.621094 2.453125 4.027344 2.453125 3.484375 C 2.453125 3.015625 2.558594 2.652344 2.769531 2.402344 C 2.984375 2.152344 3.308594 2.027344 3.734375 2.027344 L 4.703125 2.027344 L 4.703125 0.65625 L 3.800781 0.65625 C 2.902344 0.65625 2.222656 0.894531 1.765625 1.371094 C 1.308594 1.847656 1.082031 2.558594 1.082031 3.503906 Z M 11.011719 18.484375 C 11.875 18.484375 12.609375 18.253906 13.210938 17.796875 C 13.816406 17.335938 14.316406 16.644531 14.710938 15.722656 C 15.109375 14.804688 15.425781 13.652344 15.664062 12.265625 C 15.847656 11.230469 16.054688 10.417969 16.285156 9.828125 C 16.527344 9.230469 16.800781 8.808594 17.113281 8.566406 C 17.425781 8.316406 17.789062 8.191406 18.203125 8.191406 C 18.683594 8.191406 19.078125 8.351562 19.398438 8.675781 C 19.714844 9 19.960938 9.488281 20.128906 10.140625 C 20.308594 10.796875 20.414062 11.617188 20.453125 12.605469 L 21.828125 12.605469 C 21.742188 11.320312 21.558594 10.25 21.28125 9.390625 C 21.007812 8.535156 20.621094 7.890625 20.113281 7.464844 C 19.609375 7.035156 18.972656 6.816406 18.203125 6.816406 C 17.511719 6.816406 16.917969 6.988281 16.421875 7.328125 C 15.929688 7.671875 15.511719 8.21875 15.171875 8.972656 C 14.828125 9.722656 14.546875 10.71875 14.316406 11.957031 C 14.164062 12.792969 13.996094 13.53125 13.816406 14.171875 C 13.632812 14.816406 13.414062 15.351562 13.160156 15.785156 C 12.902344 16.222656 12.59375 16.550781 12.230469 16.773438 C 11.867188 17 11.433594 17.113281 10.925781 17.113281 C 10.003906 17.113281 9.296875 16.632812 8.796875 15.671875 C 8.296875 14.71875 8.046875 13.359375 8.054688 11.597656 L 6.683594 11.597656 C 6.675781 13.808594 7.046875 15.507812 7.796875 16.695312 C 8.554688 17.890625 9.625 18.484375 11.011719 18.484375 Z M 5.128906 2.617188 C 5.484375 2.617188 5.785156 2.492188 6.035156 2.242188 C 6.285156 1.984375 6.410156 1.683594 6.410156 1.328125 C 6.410156 0.976562 6.285156 0.675781 6.035156 0.425781 C 5.785156 0.171875 5.484375 0.0429688 5.128906 0.0429688 C 4.777344 0.0429688 4.472656 0.171875 4.21875 0.425781 C 3.96875 0.675781 3.84375 0.976562 3.84375 1.328125 C 3.84375 1.683594 3.96875 1.984375 4.21875 2.242188 C 4.472656 2.492188 4.777344 2.617188 5.128906 2.617188 Z M 9.621094 2.617188 C 9.972656 2.617188 10.277344 2.492188 10.527344 2.242188 C 10.78125 1.984375 10.910156 1.683594 10.910156 1.328125 C 10.910156 0.976562 10.78125 0.675781 10.527344 0.425781 C 10.277344 0.171875 9.972656 0.0429688 9.621094 0.0429688 C 9.269531 0.0429688 8.96875 0.171875 8.71875 0.425781 C 8.46875 0.675781 8.34375 0.976562 8.34375 1.328125 C 8.34375 1.683594 8.46875 1.984375 8.71875 2.242188 C 8.96875 2.492188 9.269531 2.617188 9.621094 2.617188 Z M 21.195312 17.351562 C 21.691406 17.351562 22.140625 17.230469 22.542969 16.984375 C 22.953125 16.746094 23.277344 16.421875 23.523438 16.015625 C 23.765625 15.605469 23.890625 15.152344 23.890625 14.652344 C 23.890625 14.15625 23.765625 13.707031 23.523438 13.304688 C 23.277344 12.894531 22.953125 12.570312 22.542969 12.332031 C 22.140625 12.089844 21.691406 11.964844 21.195312 11.957031 C 20.695312 11.957031 20.242188 12.078125 19.832031 12.324219 C 19.429688 12.5625 19.105469 12.886719 18.859375 13.296875 C 18.617188 13.703125 18.496094 14.15625 18.496094 14.652344 C 18.496094 15.152344 18.617188 15.605469 18.859375 16.015625 C 19.105469 16.421875 19.429688 16.746094 19.832031 16.984375 C 20.242188 17.230469 20.695312 17.351562 21.195312 17.351562 Z M 21.195312 16.152344 C 20.917969 16.152344 20.664062 16.082031 20.4375 15.945312 C 20.210938 15.816406 20.027344 15.632812 19.890625 15.402344 C 19.753906 15.171875 19.6875 14.921875 19.6875 14.652344 C 19.6875 14.371094 19.753906 14.121094 19.890625 13.890625 C 20.027344 13.664062 20.210938 13.484375 20.4375 13.355469 C 20.664062 13.21875 20.917969 13.152344 21.195312 13.152344 C 21.472656 13.152344 21.722656 13.21875 21.945312 13.355469 C 22.171875 13.484375 22.355469 13.664062 22.492188 13.890625 C 22.628906 14.121094 22.695312 14.371094 22.695312 14.652344 C 22.695312 14.921875 22.628906 15.171875 22.492188 15.402344 C 22.355469 15.632812 22.171875 15.816406 21.945312 15.945312 C 21.722656 16.082031 21.472656 16.152344 21.195312 16.152344 Z M 21.195312 16.152344 "/>
</g>
</svg>
