<?xml version="1.0" encoding="UTF-8"?>
<svg xmlns="http://www.w3.org/2000/svg" xmlns:xlink="http://www.w3.org/1999/xlink" width="24" height="24" viewBox="0 0 24 24" version="1.1">
<g id="surface1">
<path style=" stroke:none;fill-rule:nonzero;fill:rgb(100%,100%,100%);fill-opacity:1;" d="M 1.085938 20.570312 C 1.085938 21.5 1.347656 22.222656 1.875 22.742188 C 2.410156 23.269531 3.148438 23.53125 4.085938 23.53125 L 19.902344 23.53125 C 20.847656 23.53125 21.585938 23.269531 22.113281 22.742188 C 22.636719 22.222656 22.902344 21.5 22.902344 20.570312 L 22.902344 4.660156 C 22.902344 3.722656 22.636719 2.996094 22.113281 2.476562 C 21.585938 1.960938 20.847656 1.699219 19.902344 1.699219 L 4.085938 1.699219 C 3.148438 1.699219 2.410156 1.960938 1.875 2.476562 C 1.347656 2.996094 1.085938 3.722656 1.085938 4.660156 Z M 3.242188 20.0625 L 3.242188 5.167969 C 3.242188 4.757812 3.351562 4.4375 3.574219 4.207031 C 3.808594 3.972656 4.125 3.855469 4.527344 3.855469 L 19.460938 3.855469 C 19.871094 3.855469 20.1875 3.972656 20.410156 4.207031 C 20.632812 4.4375 20.746094 4.757812 20.746094 5.167969 L 20.746094 20.0625 C 20.746094 20.472656 20.632812 20.792969 20.410156 21.027344 C 20.1875 21.257812 19.871094 21.375 19.460938 21.375 L 4.527344 21.375 C 4.125 21.375 3.808594 21.257812 3.574219 21.027344 C 3.351562 20.792969 3.242188 20.472656 3.242188 20.0625 Z M 3.242188 20.0625 "/>
</g>
</svg>
