<svg xmlns="http://www.w3.org/2000/svg" width="24" height="24"><path style="stroke:none;fill-rule:nonzero;fill:#fff;fill-opacity:1" d="M3.246 20.637H20.73c.829 0 1.497-.239 2.004-.719.508-.469.762-1.094.762-1.875V3.563c0-.782-.254-1.407-.762-1.876C22.227 1.212 21.56.97 20.73.97H3.246c-.828 0-1.496.242-2.004.719-.5.468-.75 1.093-.75 1.875v14.48c0 .781.25 1.406.75 1.875.508.48 1.176.719 2.004.719Zm.024-1.778a.865.865 0 0 1-.645-.242c-.164-.16-.246-.379-.246-.648V3.64c0-.266.082-.48.246-.641a.868.868 0 0 1 .645-.254h17.449c.265 0 .48.086.644.254.164.16.246.375.246.64V17.97c0 .27-.082.488-.246.648a.865.865 0 0 1-.644.242ZM5.906 5.836c.313 0 .582-.106.809-.309.226-.199.355-.48.351-.773a.977.977 0 0 0-.351-.77 1.136 1.136 0 0 0-.809-.32c-.32 0-.597.106-.832.32a.99.99 0 0 0-.34.77c0 .3.114.559.34.773.235.207.512.309.832.309Zm4.055 0c.32 0 .594-.106.82-.309.227-.215.34-.472.34-.773a.99.99 0 0 0-.34-.77c-.226-.214-.5-.32-.82-.32-.32 0-.598.106-.832.32a.99.99 0 0 0-.34.77c0 .3.113.559.34.773.234.207.512.309.832.309Zm4.055 0c.32 0 .593-.106.82-.309.226-.215.34-.472.34-.773a.99.99 0 0 0-.34-.77c-.227-.214-.5-.32-.82-.32-.32 0-.598.106-.832.32a.99.99 0 0 0-.34.77c0 .3.113.559.34.773.234.207.511.309.832.309Zm4.054 0c.32 0 .594-.106.82-.309.227-.199.356-.48.352-.773a.977.977 0 0 0-.351-.77c-.227-.214-.5-.32-.82-.32-.321 0-.594.106-.821.32a.99.99 0 0 0-.34.77c0 .3.113.559.34.773.227.207.5.309.82.309ZM1.63 8.215H22.37V6.773H1.63Zm3.445 9.344h13.84c.336 0 .602-.09.797-.278.203-.191.305-.437.305-.75v-5.976c0-.309-.102-.559-.305-.75-.195-.192-.461-.285-.797-.285H5.074c-.336 0-.601.093-.797.285-.195.191-.293.441-.293.75v5.976c0 .313.098.559.293.75.196.188.461.278.797.278Zm.516-1.223c-.203 0-.305-.098-.305-.29V11.04c0-.195.102-.297.305-.297h12.82c.203 0 .305.102.305.297v5.008c0 .191-.102.289-.305.289ZM3.844 22.62c.281 0 .508-.082.68-.242a.842.842 0 0 0 .257-.64V19.53H2.895v2.207c0 .266.085.477.257.64.188.165.438.25.692.243Zm16.3 0c.282 0 .508-.082.68-.242a.842.842 0 0 0 .258-.64V19.53h-1.887v2.207c0 .266.086.477.258.64.188.165.438.25.692.243Zm0 0"/></svg>