<?xml version="1.0" encoding="UTF-8"?>
<svg xmlns="http://www.w3.org/2000/svg" xmlns:xlink="http://www.w3.org/1999/xlink" width="24" height="27" viewBox="0 0 24 27" version="1.1">
<g id="surface1">
<path style=" stroke:none;fill-rule:nonzero;fill:rgb(100%,100%,100%);fill-opacity:1;" d="M 4.710938 26.707031 C 4.984375 26.707031 5.183594 26.636719 5.308594 26.496094 C 5.441406 26.355469 5.542969 26.15625 5.613281 25.898438 L 6.597656 22.171875 L 17.460938 22.171875 L 18.445312 25.898438 C 18.515625 26.15625 18.621094 26.355469 18.761719 26.496094 C 18.902344 26.636719 19.097656 26.707031 19.347656 26.707031 C 19.652344 26.707031 19.878906 26.625 20.027344 26.460938 C 20.183594 26.304688 20.261719 26.097656 20.261719 25.839844 C 20.261719 25.707031 20.246094 25.585938 20.214844 25.476562 L 18.339844 18.457031 L 19.019531 18.457031 C 19.402344 18.457031 19.71875 18.351562 19.96875 18.140625 C 20.226562 17.921875 20.355469 17.644531 20.355469 17.308594 C 20.355469 16.941406 20.238281 16.652344 20.003906 16.441406 C 19.769531 16.222656 19.460938 16.113281 19.078125 16.113281 L 5.695312 16.113281 C 5.257812 16.113281 4.917969 16.003906 4.675781 15.785156 C 4.433594 15.558594 4.3125 15.234375 4.3125 14.8125 L 4.3125 11.601562 L 6.117188 11.601562 L 6.117188 12.46875 C 6.117188 13.132812 6.285156 13.625 6.621094 13.945312 C 6.957031 14.265625 7.464844 14.425781 8.144531 14.425781 L 15.996094 14.425781 C 16.675781 14.425781 17.179688 14.265625 17.507812 13.945312 C 17.84375 13.625 18.011719 13.132812 18.011719 12.46875 L 18.011719 11.601562 L 22.230469 11.601562 C 22.542969 11.601562 22.792969 11.523438 22.980469 11.367188 C 23.167969 11.203125 23.261719 10.980469 23.261719 10.699219 C 23.261719 10.417969 23.171875 10.195312 22.992188 10.03125 C 22.8125 9.867188 22.574219 9.785156 22.277344 9.785156 L 1.652344 9.785156 C 1.371094 9.785156 1.144531 9.871094 0.972656 10.042969 C 0.808594 10.207031 0.726562 10.425781 0.726562 10.699219 C 0.726562 10.980469 0.816406 11.203125 0.996094 11.367188 C 1.175781 11.523438 1.414062 11.601562 1.710938 11.601562 L 2.496094 11.601562 L 2.496094 15.996094 C 2.496094 16.769531 2.71875 17.375 3.164062 17.8125 C 3.609375 18.242188 4.21875 18.457031 4.992188 18.457031 L 5.71875 18.457031 L 3.855469 25.476562 C 3.839844 25.53125 3.824219 25.589844 3.808594 25.652344 C 3.800781 25.714844 3.796875 25.78125 3.796875 25.851562 C 3.796875 26.09375 3.867188 26.296875 4.007812 26.460938 C 4.15625 26.625 4.390625 26.707031 4.710938 26.707031 Z M 7.089844 20.34375 L 7.582031 18.457031 L 16.476562 18.457031 L 16.96875 20.34375 Z M 8.097656 8.039062 L 16.042969 8.039062 C 17.402344 8.039062 18.082031 7.378906 18.082031 6.058594 L 18.082031 2.742188 C 18.082031 1.421875 17.402344 0.761719 16.042969 0.761719 L 8.097656 0.761719 C 6.738281 0.761719 6.058594 1.421875 6.058594 2.742188 L 6.058594 6.058594 C 6.058594 7.378906 6.738281 8.039062 8.097656 8.039062 Z M 8.097656 8.039062 "/>
</g>
</svg>
