<svg width="14" height="17" viewBox="0 0 14 17" fill="none" xmlns="http://www.w3.org/2000/svg">
<path d="M6.99219 16.3594C7.20573 16.3594 7.38542 16.2865 7.53125 16.1406C7.67708 15.9948 7.85938 15.7734 8.07812 15.4766L12.7422 9.25C12.8464 9.10417 12.9271 8.95833 12.9844 8.8125C13.0469 8.66667 13.0781 8.51562 13.0781 8.35938C13.0781 8.20312 13.0469 8.05208 12.9844 7.90625C12.9271 7.75521 12.8464 7.60938 12.7422 7.46875L8.07812 1.23438C7.85938 0.942708 7.67708 0.723958 7.53125 0.578125C7.38542 0.432292 7.20573 0.359375 6.99219 0.359375C6.77865 0.359375 6.59896 0.432292 6.45312 0.578125C6.3125 0.723958 6.13281 0.942708 5.91406 1.23438L1.25 7.46875C1.14062 7.60938 1.05729 7.75521 1 7.90625C0.942708 8.05208 0.914062 8.20312 0.914062 8.35938C0.914062 8.51562 0.942708 8.66667 1 8.8125C1.05729 8.95833 1.14062 9.10417 1.25 9.25L5.91406 15.4766C6.13281 15.7734 6.3125 15.9948 6.45312 16.1406C6.59896 16.2865 6.77865 16.3594 6.99219 16.3594ZM6.99219 14.7109C6.97656 14.7109 6.96094 14.7031 6.94531 14.6875C6.9349 14.6771 6.92448 14.6641 6.91406 14.6484L2.39844 8.57031C2.34635 8.5026 2.32031 8.43229 2.32031 8.35938C2.32031 8.28646 2.34635 8.21615 2.39844 8.14844L6.91406 2.0625C6.92448 2.04688 6.9349 2.03385 6.94531 2.02344C6.96094 2.01302 6.97656 2.00781 6.99219 2.00781C7.01302 2.00781 7.02865 2.01302 7.03906 2.02344C7.04948 2.03385 7.0599 2.04688 7.07031 2.0625L11.5938 8.14844C11.6458 8.21615 11.6719 8.28646 11.6719 8.35938C11.6719 8.43229 11.6458 8.5026 11.5938 8.57031L7.07031 14.6484C7.0599 14.6641 7.04948 14.6771 7.03906 14.6875C7.02865 14.7031 7.01302 14.7109 6.99219 14.7109Z" fill="white"/>
</svg>
