<svg xmlns="http://www.w3.org/2000/svg" width="24" height="24"><path style="stroke:none;fill-rule:nonzero;fill:#fff;fill-opacity:1" d="M11.988 23.094c.364 0 .672-.102.922-.309.25-.207.563-.52.938-.937l7.996-8.79c.18-.206.316-.413.414-.62.11-.204.16-.415.16-.633 0-.223-.05-.438-.16-.64a2.282 2.282 0 0 0-.414-.618l-7.996-8.805c-.375-.41-.688-.719-.938-.926a1.42 1.42 0 0 0-.922-.308c-.367 0-.675.101-.925.308-.243.207-.551.516-.926.926l-7.992 8.805a2.28 2.28 0 0 0-.43.617c-.195.41-.195.863 0 1.274.097.207.242.414.43.62l7.992 8.79c.375.418.683.73.925.937.25.207.56.309.926.309Zm0-2.324a.127.127 0 0 1-.082-.036c-.02-.015-.035-.035-.054-.054l-7.739-8.582a.429.429 0 0 1-.136-.293c0-.106.046-.203.136-.301l7.739-8.594c.015-.02.035-.035.054-.055a.252.252 0 0 1 .082-.023c.035 0 .063.008.078.023l.055.055 7.754 8.594c.09.098.133.195.133.3 0 .106-.047.212-.133.294l-7.754 8.582c-.02.02-.035.039-.055.058-.015.02-.043.032-.078.032Zm0 0"/></svg>