<svg width="146" height="122" viewBox="0 0 146 122" fill="none" xmlns="http://www.w3.org/2000/svg">
<path d="M27.375 27.4375V116.062H37.4375V27.4375H27.375ZM109.062 27.4375V116.062H119.125V27.4375H109.062ZM20.25 121.312H126.312C132.771 121.312 137.604 119.729 140.812 116.562C144.021 113.396 145.625 108.625 145.625 102.25V41.4375C145.625 35.0208 144.021 30.25 140.812 27.125C137.604 23.9583 132.771 22.375 126.312 22.375H20.25C13.8333 22.375 9 23.9583 5.75 27.125C2.54167 30.25 0.9375 35.0208 0.9375 41.4375V102.25C0.9375 108.625 2.54167 113.396 5.75 116.562C9 119.729 13.8333 121.312 20.25 121.312ZM20.375 111.312C17.3333 111.312 15 110.521 13.375 108.938C11.7917 107.354 11 104.958 11 101.75V41.9375C11 38.7292 11.7917 36.3333 13.375 34.75C15 33.1667 17.3333 32.375 20.375 32.375H126.188C129.229 32.375 131.542 33.1667 133.125 34.75C134.75 36.3333 135.562 38.7292 135.562 41.9375V101.75C135.562 104.958 134.75 107.354 133.125 108.938C131.542 110.521 129.229 111.312 126.188 111.312H20.375ZM41.5625 27.8125H51.25V16.75C51.25 14.375 51.9167 12.5417 53.25 11.25C54.5833 9.95833 56.4792 9.3125 58.9375 9.3125H87.625C90.0417 9.3125 91.9167 9.95833 93.25 11.25C94.5833 12.5417 95.25 14.375 95.25 16.75V27.6875H104.938V17.4375C104.938 11.5625 103.438 7.22917 100.438 4.4375C97.4375 1.60417 93.1042 0.1875 87.4375 0.1875H59.0625C53.7292 0.1875 49.4792 1.60417 46.3125 4.4375C43.1458 7.22917 41.5625 11.5625 41.5625 17.4375V27.8125Z" fill="white"/>
</svg>
