<?xml version="1.0" encoding="UTF-8"?>
<svg xmlns="http://www.w3.org/2000/svg" xmlns:xlink="http://www.w3.org/1999/xlink" width="24" height="22.8" viewBox="0 0 24 22.8" version="1.1">
<g id="surface1">
<path style=" stroke:none;fill-rule:nonzero;fill:rgb(100%,100%,100%);fill-opacity:1;" d="M 1.453125 17.484375 L 18.308594 17.484375 C 19.191406 17.484375 19.835938 17.28125 20.25 16.875 C 20.667969 16.460938 20.878906 15.820312 20.878906 14.953125 L 20.878906 5.632812 C 20.878906 4.839844 21.269531 4.445312 22.050781 4.445312 L 22.929688 4.445312 C 23.132812 4.445312 23.304688 4.367188 23.457031 4.21875 C 23.605469 4.070312 23.679688 3.890625 23.679688 3.683594 C 23.679688 3.484375 23.605469 3.308594 23.457031 3.160156 C 23.304688 3.007812 23.132812 2.933594 22.929688 2.933594 L 21.9375 2.933594 C 21.054688 2.933594 20.40625 3.140625 19.988281 3.554688 C 19.574219 3.960938 19.367188 4.597656 19.367188 5.464844 L 19.367188 14.785156 C 19.367188 15.578125 18.976562 15.976562 18.195312 15.976562 L 1.453125 15.976562 C 1.246094 15.976562 1.070312 16.046875 0.917969 16.191406 C 0.769531 16.335938 0.695312 16.511719 0.695312 16.726562 C 0.695312 16.9375 0.769531 17.117188 0.917969 17.269531 C 1.070312 17.414062 1.246094 17.484375 1.453125 17.484375 Z M 4.773438 22.3125 C 5.085938 22.3125 5.371094 22.230469 5.632812 22.070312 C 5.898438 21.914062 6.105469 21.703125 6.261719 21.441406 C 6.425781 21.179688 6.507812 20.890625 6.507812 20.578125 C 6.507812 20.257812 6.425781 19.964844 6.261719 19.695312 C 6.105469 19.433594 5.898438 19.222656 5.632812 19.058594 C 5.371094 18.902344 5.085938 18.824219 4.773438 18.824219 C 4.453125 18.824219 4.164062 18.902344 3.898438 19.058594 C 3.636719 19.222656 3.425781 19.433594 3.261719 19.695312 C 3.105469 19.964844 3.027344 20.257812 3.027344 20.578125 C 3.027344 20.890625 3.105469 21.179688 3.261719 21.441406 C 3.425781 21.703125 3.636719 21.914062 3.898438 22.070312 C 4.164062 22.230469 4.453125 22.3125 4.773438 22.3125 Z M 14.820312 22.3125 C 15.132812 22.3125 15.421875 22.230469 15.683594 22.070312 C 15.953125 21.914062 16.164062 21.703125 16.320312 21.441406 C 16.476562 21.179688 16.554688 20.890625 16.554688 20.578125 C 16.554688 20.257812 16.476562 19.964844 16.320312 19.695312 C 16.164062 19.433594 15.953125 19.222656 15.683594 19.058594 C 15.421875 18.902344 15.132812 18.824219 14.820312 18.824219 C 14.507812 18.824219 14.21875 18.902344 13.949219 19.058594 C 13.6875 19.222656 13.476562 19.433594 13.320312 19.695312 C 13.164062 19.964844 13.085938 20.257812 13.085938 20.578125 C 13.085938 20.890625 13.164062 21.179688 13.320312 21.441406 C 13.476562 21.703125 13.6875 21.914062 13.949219 22.070312 C 14.21875 22.230469 14.507812 22.3125 14.820312 22.3125 Z M 0.703125 12.46875 C 0.703125 13.8125 1.414062 14.484375 2.839844 14.484375 L 15.636719 14.484375 C 17.070312 14.484375 17.785156 13.8125 17.785156 12.46875 L 17.785156 4.855469 C 17.785156 3.511719 17.070312 2.839844 15.636719 2.839844 L 2.839844 2.839844 C 1.414062 2.839844 0.703125 3.511719 0.703125 4.855469 Z M 3.488281 14.484375 L 3.488281 2.839844 L 4.660156 2.839844 L 4.660156 14.484375 Z M 13.820312 14.484375 L 13.820312 2.839844 L 14.992188 2.839844 L 14.992188 14.484375 Z M 5.382812 3.609375 L 6.703125 3.609375 L 6.703125 2.203125 C 6.703125 1.671875 6.976562 1.40625 7.527344 1.40625 L 10.949219 1.40625 C 11.507812 1.40625 11.785156 1.671875 11.785156 2.203125 L 11.785156 3.589844 L 13.105469 3.589844 L 13.105469 2.289062 C 13.105469 0.863281 12.378906 0.148438 10.921875 0.148438 L 7.554688 0.148438 C 6.851562 0.148438 6.308594 0.335938 5.933594 0.703125 C 5.566406 1.066406 5.382812 1.59375 5.382812 2.289062 Z M 5.382812 3.609375 "/>
</g>
</svg>
