<svg width="16" height="15" viewBox="0 0 16 15" fill="none" xmlns="http://www.w3.org/2000/svg">
<path d="M8 14.7734C8.08333 14.7734 8.17708 14.75 8.28125 14.7031C8.39062 14.6615 8.48698 14.6146 8.57031 14.5625C10.0391 13.625 11.3099 12.6432 12.3828 11.6172C13.4609 10.5859 14.2917 9.52865 14.875 8.44531C15.4635 7.35677 15.7578 6.25781 15.7578 5.14844C15.7578 4.45573 15.6458 3.82292 15.4219 3.25C15.2031 2.67188 14.8958 2.17188 14.5 1.75C14.1094 1.32812 13.6484 1.0026 13.1172 0.773438C12.5911 0.544271 12.0208 0.429688 11.4062 0.429688C10.6458 0.429688 9.97656 0.625 9.39844 1.01562C8.82031 1.40104 8.35417 1.91667 8 2.5625C7.65104 1.92188 7.1875 1.40625 6.60938 1.01562C6.03125 0.625 5.35938 0.429688 4.59375 0.429688C3.97917 0.429688 3.40885 0.544271 2.88281 0.773438C2.35677 1.0026 1.89583 1.32812 1.5 1.75C1.10417 2.17188 0.794271 2.67188 0.570312 3.25C0.351562 3.82292 0.242188 4.45573 0.242188 5.14844C0.242188 6.25781 0.533854 7.35677 1.11719 8.44531C1.70573 9.52865 2.53906 10.5859 3.61719 11.6172C4.69531 12.6432 5.96875 13.625 7.4375 14.5625C7.52083 14.6146 7.61458 14.6615 7.71875 14.7031C7.82812 14.75 7.92188 14.7734 8 14.7734Z" fill="white"/>
</svg>
