<?xml version="1.0" encoding="UTF-8"?>
<svg xmlns="http://www.w3.org/2000/svg" xmlns:xlink="http://www.w3.org/1999/xlink" width="24" height="25.5" viewBox="0 0 24 25.5" version="1.1">
<g id="surface1">
<path style=" stroke:none;fill-rule:nonzero;fill:rgb(100%,100%,100%);fill-opacity:1;" d="M 12 24.503906 C 13.632812 24.503906 15.167969 24.191406 16.605469 23.566406 C 18.050781 22.941406 19.324219 22.078125 20.425781 20.976562 C 21.527344 19.875 22.390625 18.605469 23.015625 17.167969 C 23.640625 15.722656 23.953125 14.183594 23.953125 12.550781 C 23.953125 10.917969 23.640625 9.382812 23.015625 7.945312 C 22.390625 6.5 21.527344 5.226562 20.425781 4.125 C 19.324219 3.023438 18.050781 2.160156 16.605469 1.535156 C 15.160156 0.910156 13.621094 0.597656 11.988281 0.597656 C 10.355469 0.597656 8.816406 0.910156 7.371094 1.535156 C 5.933594 2.160156 4.664062 3.023438 3.5625 4.125 C 2.46875 5.226562 1.609375 6.5 0.984375 7.945312 C 0.359375 9.382812 0.046875 10.917969 0.046875 12.550781 C 0.046875 14.183594 0.359375 15.722656 0.984375 17.167969 C 1.609375 18.605469 2.472656 19.875 3.574219 20.976562 C 4.675781 22.078125 5.945312 22.941406 7.382812 23.566406 C 8.828125 24.191406 10.367188 24.503906 12 24.503906 Z M 5.238281 14.4375 C 5.027344 14.4375 4.851562 14.371094 4.710938 14.238281 C 4.578125 14.105469 4.511719 13.945312 4.511719 13.757812 C 4.511719 13.578125 4.578125 13.421875 4.710938 13.289062 C 4.851562 13.15625 5.027344 13.089844 5.238281 13.089844 L 6.785156 13.089844 C 6.996094 13.089844 7.171875 13.15625 7.3125 13.289062 C 7.460938 13.414062 7.535156 13.570312 7.535156 13.757812 C 7.535156 13.953125 7.460938 14.117188 7.3125 14.25 C 7.171875 14.375 6.996094 14.4375 6.785156 14.4375 Z M 7.851562 10.722656 L 6.75 9.621094 C 6.59375 9.464844 6.511719 9.296875 6.503906 9.117188 C 6.503906 8.929688 6.5625 8.769531 6.679688 8.636719 C 6.820312 8.511719 6.980469 8.445312 7.160156 8.4375 C 7.347656 8.429688 7.519531 8.503906 7.675781 8.660156 L 8.800781 9.785156 C 8.941406 9.925781 9.015625 10.09375 9.023438 10.289062 C 9.039062 10.476562 8.976562 10.636719 8.835938 10.769531 C 8.703125 10.902344 8.539062 10.964844 8.34375 10.957031 C 8.15625 10.941406 7.992188 10.863281 7.851562 10.722656 Z M 15.152344 10.769531 C 15.011719 10.636719 14.941406 10.476562 14.941406 10.289062 C 14.949219 10.101562 15.027344 9.933594 15.175781 9.785156 L 16.300781 8.660156 C 16.441406 8.511719 16.605469 8.4375 16.792969 8.4375 C 16.988281 8.429688 17.152344 8.496094 17.285156 8.636719 C 17.410156 8.769531 17.46875 8.929688 17.460938 9.117188 C 17.453125 9.296875 17.375 9.464844 17.226562 9.621094 L 16.136719 10.722656 C 15.988281 10.871094 15.820312 10.949219 15.632812 10.957031 C 15.445312 10.957031 15.285156 10.894531 15.152344 10.769531 Z M 17.191406 14.4375 C 16.980469 14.4375 16.800781 14.371094 16.652344 14.238281 C 16.511719 14.105469 16.441406 13.945312 16.441406 13.757812 C 16.441406 13.570312 16.511719 13.414062 16.652344 13.289062 C 16.800781 13.15625 16.980469 13.089844 17.191406 13.089844 L 18.738281 13.089844 C 18.949219 13.089844 19.121094 13.15625 19.253906 13.289062 C 19.394531 13.421875 19.464844 13.578125 19.464844 13.757812 C 19.464844 13.945312 19.394531 14.105469 19.253906 14.238281 C 19.121094 14.371094 18.949219 14.4375 18.738281 14.4375 Z M 15.585938 13.921875 C 15.585938 14.109375 15.566406 14.296875 15.527344 14.484375 C 15.488281 14.671875 15.441406 14.851562 15.386719 15.023438 L 8.589844 15.023438 C 8.527344 14.851562 8.476562 14.671875 8.4375 14.484375 C 8.40625 14.296875 8.390625 14.109375 8.390625 13.921875 C 8.390625 13.257812 8.554688 12.652344 8.882812 12.105469 C 9.210938 11.558594 9.644531 11.121094 10.183594 10.792969 C 10.730469 10.464844 11.332031 10.300781 11.988281 10.300781 C 12.644531 10.300781 13.246094 10.464844 13.792969 10.792969 C 14.339844 11.121094 14.773438 11.558594 15.09375 12.105469 C 15.421875 12.652344 15.585938 13.257812 15.585938 13.921875 Z M 5.226562 17.226562 C 5.039062 17.226562 4.871094 17.164062 4.722656 17.039062 C 4.582031 16.914062 4.511719 16.753906 4.511719 16.558594 C 4.511719 16.371094 4.582031 16.214844 4.722656 16.089844 C 4.863281 15.964844 5.03125 15.902344 5.226562 15.902344 L 18.75 15.902344 C 18.945312 15.902344 19.113281 15.964844 19.253906 16.089844 C 19.394531 16.214844 19.464844 16.371094 19.464844 16.558594 C 19.464844 16.753906 19.390625 16.914062 19.242188 17.039062 C 19.101562 17.164062 18.9375 17.226562 18.75 17.226562 Z M 12.65625 8.332031 C 12.65625 8.535156 12.589844 8.710938 12.457031 8.859375 C 12.332031 9 12.175781 9.070312 11.988281 9.070312 C 11.800781 9.070312 11.640625 9 11.507812 8.859375 C 11.375 8.710938 11.308594 8.535156 11.308594 8.332031 L 11.308594 6.785156 C 11.308594 6.566406 11.375 6.390625 11.507812 6.257812 C 11.640625 6.125 11.800781 6.058594 11.988281 6.058594 C 12.167969 6.058594 12.324219 6.125 12.457031 6.257812 C 12.589844 6.390625 12.65625 6.566406 12.65625 6.785156 Z M 12.65625 8.332031 "/>
</g>
</svg>
