<svg xmlns="http://www.w3.org/2000/svg" width="24" height="24"><path style="stroke:none;fill-rule:nonzero;fill:#fff;fill-opacity:1" d="M12 23.05c1.633 0 3.168-.292 4.605-.882a12.22 12.22 0 0 0 3.82-2.438 11.467 11.467 0 0 0 2.59-3.582c.626-1.363.938-2.808.938-4.347a10.2 10.2 0 0 0-.937-4.332 11.53 11.53 0 0 0-2.59-3.598 12.361 12.361 0 0 0-3.82-2.437A12.166 12.166 0 0 0 11.987.55c-1.633 0-3.172.293-4.617.883A12.307 12.307 0 0 0 3.562 3.87 11.523 11.523 0 0 0 .985 7.465 10.2 10.2 0 0 0 .047 11.8c0 1.539.312 2.984.937 4.347a11.467 11.467 0 0 0 2.59 3.582 12.236 12.236 0 0 0 3.809 2.438c1.445.59 2.984.883 4.617.883Zm0-1.874a10.222 10.222 0 0 1-7.055-2.734 9.548 9.548 0 0 1-2.133-2.989 8.83 8.83 0 0 1-.761-3.652c0-1.301.254-2.52.761-3.649A9.52 9.52 0 0 1 4.946 5.16 9.82 9.82 0 0 1 8.11 3.156c1.204-.488 2.496-.73 3.88-.73 1.382 0 2.675.242 3.878.73a9.701 9.701 0 0 1 3.176 2.004 9.432 9.432 0 0 1 2.145 2.992 8.685 8.685 0 0 1 .773 3.649c0 1.3-.258 2.52-.773 3.652a9.22 9.22 0 0 1-2.133 2.988A10.222 10.222 0 0 1 12 21.176ZM5.437 13.5H6.95a.73.73 0 0 0 .504-.176.553.553 0 0 0 .211-.441.536.536 0 0 0-.21-.43.712.712 0 0 0-.505-.176H5.438a.698.698 0 0 0-.504.188.537.537 0 0 0-.2.418.59.59 0 0 0 .2.441c.132.117.3.176.503.176Zm2.543-3.387a.698.698 0 0 0 .48.211.609.609 0 0 0 .47-.176.53.53 0 0 0 .187-.441.627.627 0 0 0-.222-.453l-1.09-1.027a.65.65 0 0 0-.492-.196.661.661 0 0 0-.47.176.61.61 0 0 0-.175.441.646.646 0 0 0 .234.45Zm7.079.035a.65.65 0 0 0 .457.176.736.736 0 0 0 .492-.21l1.066-1.016a.672.672 0 0 0 .223-.45.561.561 0 0 0-.176-.441.673.673 0 0 0-.95.02l-1.089 1.027a.603.603 0 0 0-.223.46c0 .173.067.313.2.434Zm1.968 3.352h1.512a.73.73 0 0 0 .504-.176.59.59 0 0 0 .2-.441.548.548 0 0 0-.2-.43.712.712 0 0 0-.504-.176h-1.512a.74.74 0 0 0-.515.176.548.548 0 0 0-.2.43c0 .176.07.324.211.441.141.117.309.176.504.176Zm-1.547-.473c0-.605-.16-1.152-.48-1.644a3.498 3.498 0 0 0-1.266-1.203 3.487 3.487 0 0 0-1.746-.453c-.633 0-1.215.152-1.746.453-.531.3-.957.703-1.277 1.203a3.01 3.01 0 0 0-.469 1.644c0 .176.016.348.047.516.039.172.09.336.152.496h6.586c.055-.16.102-.324.14-.496.04-.168.06-.34.06-.516Zm-10.054 3.02H18.55a.73.73 0 0 0 .48-.176.554.554 0 0 0 .211-.43.52.52 0 0 0-.21-.43.736.736 0 0 0-.481-.167H5.426a.742.742 0 0 0-.492.18.541.541 0 0 0 .012.848c.14.116.3.175.48.175Zm7.207-8.117V6.508a.637.637 0 0 0-.645-.664.665.665 0 0 0-.468.187.647.647 0 0 0-.188.477V7.93a.653.653 0 0 0 .656.672c.18 0 .332-.067.457-.196a.67.67 0 0 0 .188-.476Zm0 0"/></svg>