<svg width="16" height="17" viewBox="0 0 16 17" fill="none" xmlns="http://www.w3.org/2000/svg">
<path d="M8 16.3281C9.08854 16.3281 10.112 16.1198 11.0703 15.7031C12.0339 15.2865 12.8828 14.7109 13.6172 13.9766C14.3516 13.2422 14.9271 12.3958 15.3438 11.4375C15.7604 10.474 15.9688 9.44792 15.9688 8.35938C15.9688 7.27083 15.7604 6.2474 15.3438 5.28906C14.9271 4.32552 14.3516 3.47656 13.6172 2.74219C12.8828 2.00781 12.0339 1.43229 11.0703 1.01562C10.1068 0.598958 9.08073 0.390625 7.99219 0.390625C6.90365 0.390625 5.8776 0.598958 4.91406 1.01562C3.95573 1.43229 3.10938 2.00781 2.375 2.74219C1.64583 3.47656 1.07292 4.32552 0.65625 5.28906C0.239583 6.2474 0.03125 7.27083 0.03125 8.35938C0.03125 9.44792 0.239583 10.474 0.65625 11.4375C1.07292 12.3958 1.64844 13.2422 2.38281 13.9766C3.11719 14.7109 3.96354 15.2865 4.92188 15.7031C5.88542 16.1198 6.91146 16.3281 8 16.3281ZM8 15C7.07812 15 6.21615 14.8281 5.41406 14.4844C4.61198 14.1406 3.90625 13.6667 3.29688 13.0625C2.69271 12.4531 2.21875 11.7474 1.875 10.9453C1.53646 10.1432 1.36719 9.28125 1.36719 8.35938C1.36719 7.4375 1.53646 6.57552 1.875 5.77344C2.21875 4.97135 2.69271 4.26562 3.29688 3.65625C3.90104 3.04688 4.60417 2.57292 5.40625 2.23438C6.20833 1.89062 7.07031 1.71875 7.99219 1.71875C8.91406 1.71875 9.77604 1.89062 10.5781 2.23438C11.3854 2.57292 12.0911 3.04688 12.6953 3.65625C13.3047 4.26562 13.7812 4.97135 14.125 5.77344C14.4688 6.57552 14.6406 7.4375 14.6406 8.35938C14.6406 9.28125 14.4688 10.1432 14.125 10.9453C13.7865 11.7474 13.3125 12.4531 12.7031 13.0625C12.0938 13.6667 11.388 14.1406 10.5859 14.4844C9.78385 14.8281 8.92188 15 8 15ZM5.10938 8.22656C5.10938 8.10677 5.0625 8.00521 4.96875 7.92188C4.88021 7.83333 4.76823 7.78906 4.63281 7.78906H3.625C3.48958 7.78906 3.3776 7.83333 3.28906 7.92188C3.20052 8.00521 3.15625 8.10677 3.15625 8.22656C3.15625 8.34635 3.20052 8.44792 3.28906 8.53125C3.3776 8.61458 3.48958 8.65625 3.625 8.65625H4.63281C4.76823 8.65625 4.88021 8.61719 4.96875 8.53906C5.0625 8.45573 5.10938 8.35156 5.10938 8.22656ZM5.95312 6.28906C6.04167 6.20052 6.08333 6.09635 6.07812 5.97656C6.07292 5.85156 6.02344 5.74219 5.92969 5.64844L5.20312 4.92188C5.10417 4.82292 4.99219 4.77604 4.86719 4.78125C4.7474 4.78125 4.64583 4.82292 4.5625 4.90625C4.47917 4.99479 4.4401 5.09896 4.44531 5.21875C4.45052 5.33333 4.5026 5.4401 4.60156 5.53906L5.32031 6.25781C5.41406 6.35156 5.52083 6.40365 5.64062 6.41406C5.76562 6.41927 5.86979 6.3776 5.95312 6.28906ZM7.99219 5.19531C8.11198 5.19531 8.21354 5.14844 8.29688 5.05469C8.38021 4.96094 8.42188 4.84896 8.42188 4.71875V3.70312C8.42188 3.56771 8.38021 3.45833 8.29688 3.375C8.21354 3.28646 8.11198 3.24219 7.99219 3.24219C7.8724 3.24219 7.76823 3.28646 7.67969 3.375C7.59635 3.45833 7.55469 3.56771 7.55469 3.70312V4.71875C7.55469 4.84896 7.59635 4.96094 7.67969 5.05469C7.76823 5.14844 7.8724 5.19531 7.99219 5.19531ZM10.0391 6.28906C10.1224 6.3724 10.224 6.41406 10.3438 6.41406C10.4688 6.40885 10.5781 6.35677 10.6719 6.25781L11.3828 5.53906C11.4766 5.4401 11.526 5.33333 11.5312 5.21875C11.5365 5.09896 11.4974 4.99479 11.4141 4.90625C11.3307 4.82292 11.2266 4.78125 11.1016 4.78125C10.9818 4.78125 10.875 4.82812 10.7812 4.92188L10.0547 5.64844C9.95573 5.7474 9.90625 5.85677 9.90625 5.97656C9.90625 6.09635 9.95052 6.20052 10.0391 6.28906ZM10.875 8.22656C10.875 8.34635 10.9219 8.44792 11.0156 8.53125C11.1094 8.61458 11.2214 8.65625 11.3516 8.65625H12.3594C12.4948 8.65625 12.6068 8.61458 12.6953 8.53125C12.7839 8.44792 12.8281 8.34635 12.8281 8.22656C12.8281 8.10677 12.7839 8.00521 12.6953 7.92188C12.6068 7.83333 12.4948 7.78906 12.3594 7.78906H11.3516C11.2161 7.78906 11.1016 7.83333 11.0078 7.92188C10.9193 8.00521 10.875 8.10677 10.875 8.22656ZM5.79688 9.04688H10.1875C10.224 8.93229 10.2552 8.8151 10.2812 8.69531C10.3073 8.57031 10.3203 8.44792 10.3203 8.32812C10.3203 7.90104 10.2135 7.51042 10 7.15625C9.79167 6.80208 9.51042 6.52083 9.15625 6.3125C8.80729 6.09896 8.41927 5.99219 7.99219 5.99219C7.57031 5.99219 7.18229 6.09896 6.82812 6.3125C6.47396 6.52083 6.1901 6.80208 5.97656 7.15625C5.76823 7.51042 5.66406 7.90104 5.66406 8.32812C5.66406 8.44792 5.67448 8.57031 5.69531 8.69531C5.72135 8.8151 5.75521 8.93229 5.79688 9.04688ZM4.16406 10.1641H12.5469C12.6302 10.1641 12.6979 10.138 12.75 10.0859C12.8021 10.0339 12.8281 9.96875 12.8281 9.89062C12.8281 9.80729 12.8021 9.73958 12.75 9.6875C12.6979 9.63542 12.6302 9.60938 12.5469 9.60938H4.16406C4.08594 9.60938 4.02083 9.63802 3.96875 9.69531C3.91667 9.7474 3.89062 9.8125 3.89062 9.89062C3.89062 9.96875 3.91667 10.0339 3.96875 10.0859C4.02083 10.138 4.08594 10.1641 4.16406 10.1641ZM3.4375 11.2344H11.8203C11.8984 11.2344 11.9635 11.2083 12.0156 11.1562C12.0677 11.1042 12.0938 11.0391 12.0938 10.9609C12.0938 10.8776 12.0677 10.8099 12.0156 10.7578C11.9635 10.7057 11.8984 10.6797 11.8203 10.6797H3.4375C3.35417 10.6797 3.28646 10.7083 3.23438 10.7656C3.18229 10.8177 3.15625 10.8828 3.15625 10.9609C3.15625 11.0391 3.18229 11.1042 3.23438 11.1562C3.28646 11.2083 3.35417 11.2344 3.4375 11.2344ZM4.16406 12.3047H12.5469C12.6302 12.3047 12.6979 12.2786 12.75 12.2266C12.8021 12.1745 12.8281 12.1094 12.8281 12.0312C12.8281 11.9479 12.8021 11.8802 12.75 11.8281C12.6979 11.776 12.6302 11.75 12.5469 11.75H4.16406C4.08594 11.75 4.02083 11.7786 3.96875 11.8359C3.91667 11.888 3.89062 11.9531 3.89062 12.0312C3.89062 12.1094 3.91667 12.1745 3.96875 12.2266C4.02083 12.2786 4.08594 12.3047 4.16406 12.3047Z" fill="white"/>
</svg>
