<svg width="18" height="18" viewBox="0 0 18 18" fill="none" xmlns="http://www.w3.org/2000/svg">
<path d="M8.99219 5.36719C8.44531 5.36719 7.93229 5.47135 7.45312 5.67969C6.97396 5.88802 6.54948 6.17708 6.17969 6.54688C5.8151 6.91146 5.52865 7.33594 5.32031 7.82031C5.11198 8.29948 5.00781 8.8125 5.00781 9.35938C5.00781 9.90625 5.11198 10.4193 5.32031 10.8984C5.52865 11.3776 5.8151 11.8021 6.17969 12.1719C6.54948 12.5365 6.97396 12.8229 7.45312 13.0312C7.93229 13.2396 8.44531 13.3438 8.99219 13.3438C9.53385 13.3438 10.0443 13.2396 10.5234 13.0312C11.0078 12.8229 11.4323 12.5365 11.7969 12.1719C12.1615 11.8021 12.4479 11.3776 12.6562 10.8984C12.8646 10.4193 12.9688 9.90625 12.9688 9.35938C12.9688 8.8125 12.8646 8.29948 12.6562 7.82031C12.4479 7.33594 12.1615 6.91146 11.7969 6.54688C11.4323 6.17708 11.0078 5.88802 10.5234 5.67969C10.0443 5.47135 9.53385 5.36719 8.99219 5.36719ZM9.67969 1.5625C9.67969 1.375 9.61198 1.21354 9.47656 1.07812C9.34115 0.942708 9.17969 0.875 8.99219 0.875C8.8099 0.875 8.65104 0.942708 8.51562 1.07812C8.38021 1.21354 8.3125 1.375 8.3125 1.5625V3.20312C8.3125 3.38542 8.38021 3.54427 8.51562 3.67969C8.65104 3.8151 8.8099 3.88281 8.99219 3.88281C9.17969 3.88281 9.34115 3.8151 9.47656 3.67969C9.61198 3.54427 9.67969 3.38542 9.67969 3.20312V1.5625ZM12.8516 4.53906C12.7214 4.66927 12.6562 4.83073 12.6562 5.02344C12.6562 5.21094 12.7214 5.36979 12.8516 5.5C12.9818 5.63021 13.1406 5.69792 13.3281 5.70312C13.5208 5.70312 13.6849 5.63542 13.8203 5.5L14.9844 4.33594C15.1146 4.20573 15.1797 4.04427 15.1797 3.85156C15.1797 3.65885 15.1146 3.4974 14.9844 3.36719C14.8542 3.23698 14.6953 3.17188 14.5078 3.17188C14.3203 3.17188 14.1615 3.23698 14.0312 3.36719L12.8516 4.53906ZM16.7656 10.0391C16.9531 10.0391 17.1146 9.97135 17.25 9.83594C17.3854 9.70052 17.4531 9.54167 17.4531 9.35938C17.4531 9.17188 17.3854 9.01302 17.25 8.88281C17.1146 8.7474 16.9531 8.67969 16.7656 8.67969H15.1328C14.9505 8.67969 14.7917 8.7474 14.6562 8.88281C14.5208 9.01302 14.4531 9.17188 14.4531 9.35938C14.4531 9.54167 14.5208 9.70052 14.6562 9.83594C14.7917 9.97135 14.9505 10.0391 15.1328 10.0391H16.7656ZM13.8125 13.2266C13.6823 13.0964 13.5208 13.0312 13.3281 13.0312C13.1406 13.0312 12.9818 13.0964 12.8516 13.2266C12.7214 13.3568 12.6562 13.5156 12.6562 13.7031C12.6562 13.8906 12.7214 14.0521 12.8516 14.1875L14.0312 15.3594C14.1615 15.4896 14.3203 15.5521 14.5078 15.5469C14.6953 15.5469 14.8542 15.4818 14.9844 15.3516C15.1146 15.2214 15.1797 15.0625 15.1797 14.875C15.1797 14.6823 15.1146 14.5208 14.9844 14.3906L13.8125 13.2266ZM9.67969 15.5156C9.67969 15.3281 9.61198 15.1667 9.47656 15.0312C9.34115 14.8958 9.17969 14.8281 8.99219 14.8281C8.8099 14.8281 8.65104 14.8958 8.51562 15.0312C8.38021 15.1667 8.3125 15.3281 8.3125 15.5156V17.1562C8.3125 17.3385 8.38021 17.4974 8.51562 17.6328C8.65104 17.7682 8.8099 17.8359 8.99219 17.8359C9.17969 17.8359 9.34115 17.7682 9.47656 17.6328C9.61198 17.4974 9.67969 17.3385 9.67969 17.1562V15.5156ZM3 14.3828C2.86979 14.513 2.80469 14.6745 2.80469 14.8672C2.80469 15.0547 2.86719 15.2135 2.99219 15.3438C3.1224 15.474 3.28385 15.5391 3.47656 15.5391C3.66927 15.5443 3.83073 15.4818 3.96094 15.3516L5.125 14.1875C5.25521 14.0573 5.32031 13.8984 5.32031 13.7109C5.32552 13.5182 5.26302 13.3568 5.13281 13.2266C5.0026 13.0964 4.84115 13.0312 4.64844 13.0312C4.45573 13.0312 4.29427 13.0964 4.16406 13.2266L3 14.3828ZM1.21875 8.67969C1.03646 8.67969 0.877604 8.7474 0.742188 8.88281C0.606771 9.01302 0.539062 9.17188 0.539062 9.35938C0.539062 9.54167 0.606771 9.70052 0.742188 9.83594C0.877604 9.97135 1.03646 10.0391 1.21875 10.0391H2.85156C3.03906 10.0391 3.20052 9.97135 3.33594 9.83594C3.47135 9.70052 3.53906 9.54167 3.53906 9.35938C3.53906 9.17188 3.47135 9.01302 3.33594 8.88281C3.20052 8.7474 3.03906 8.67969 2.85156 8.67969H1.21875ZM4.16406 5.5C4.29427 5.63021 4.45312 5.69531 4.64062 5.69531C4.83333 5.69531 4.99479 5.63021 5.125 5.5C5.25521 5.375 5.32031 5.21615 5.32031 5.02344C5.32552 4.82552 5.26302 4.66406 5.13281 4.53906L3.96875 3.36719C3.84375 3.24219 3.6849 3.17969 3.49219 3.17969C3.30469 3.17448 3.14323 3.23698 3.00781 3.36719C2.8776 3.4974 2.8125 3.65885 2.8125 3.85156C2.8125 4.03906 2.875 4.19792 3 4.32812L4.16406 5.5Z" fill="white"/>
</svg>
