<svg xmlns="http://www.w3.org/2000/svg" width="24" height="24"><path style="stroke:none;fill-rule:nonzero;fill:#fff;fill-opacity:1" d="M12 23.063c1.633 0 3.168-.293 4.605-.883a12.29 12.29 0 0 0 3.82-2.438 11.482 11.482 0 0 0 2.59-3.586c.626-1.36.938-2.804.938-4.343 0-1.536-.312-2.981-.937-4.336a11.514 11.514 0 0 0-2.59-3.594 12.22 12.22 0 0 0-3.82-2.438 12.166 12.166 0 0 0-4.618-.883c-1.633 0-3.172.293-4.617.883a12.307 12.307 0 0 0-3.809 2.438A11.523 11.523 0 0 0 .985 7.477a10.187 10.187 0 0 0-.937 4.335c0 1.54.312 2.985.937 4.344a11.438 11.438 0 0 0 2.59 3.586 12.307 12.307 0 0 0 3.809 2.438c1.445.59 2.984.883 4.617.883Zm-6.316-8.856a.704.704 0 0 1-.493-.18.55.55 0 0 1 0-.824.7.7 0 0 1 .493-.176h1.453a.7.7 0 0 1 .492.176c.133.11.2.246.2.406a.548.548 0 0 1-.2.43.746.746 0 0 1-.492.168Zm2.449-3.254-1.043-.98a.637.637 0 0 1-.223-.434c0-.156.063-.312.176-.43a.661.661 0 0 1 .445-.164.66.66 0 0 1 .48.188l1.032.98a.68.68 0 0 1 .223.442c.02.16-.047.32-.176.43a.549.549 0 0 1-.445.175.74.74 0 0 1-.47-.207Zm3.855-1.457a.616.616 0 0 1-.457-.187.61.61 0 0 1-.176-.442V6.781l.024-.383-.059.067-.808.758a1.366 1.366 0 0 1-.211.125.61.61 0 0 1-.621-.102.481.481 0 0 1-.153-.363c0-.07.012-.14.036-.211a.788.788 0 0 1 .152-.207l1.851-1.61c.141-.12.282-.18.422-.18a.66.66 0 0 1 .422.177l1.84 1.613c.07.07.117.14.14.207a.49.49 0 0 1 .047.21c0 .15-.05.27-.152.364a.564.564 0 0 1-.398.145.778.778 0 0 1-.235-.043.48.48 0 0 1-.187-.125l-.727-.715-.152-.145.035.418v2.086a.6.6 0 0 1-.187.442.604.604 0 0 1-.446.187Zm2.942 1.488a.557.557 0 0 1-.188-.418.656.656 0 0 1 .223-.453l1.043-.98a.72.72 0 0 1 .469-.2.597.597 0 0 1 .457.176.579.579 0 0 1 .164.43.637.637 0 0 1-.223.434l-1.02.98a.706.706 0 0 1-.48.207.622.622 0 0 1-.445-.176Zm1.898 3.223a.715.715 0 0 1-.48-.168.548.548 0 0 1-.2-.43.515.515 0 0 1 .188-.406.7.7 0 0 1 .492-.176h1.465a.656.656 0 0 1 .48.176c.122.102.192.25.188.406a.55.55 0 0 1-.188.418.676.676 0 0 1-.48.18Zm-1.488-.465c0 .172-.016.34-.047.508a2.474 2.474 0 0 1-.14.484H8.823a2.679 2.679 0 0 1-.152-.484 2.883 2.883 0 0 1 .41-2.086c.305-.477.711-.86 1.219-1.144a3.33 3.33 0 0 1 1.687-.442c.61 0 1.168.149 1.676.442.508.285.914.668 1.219 1.144.305.48.457 1.004.457 1.578Zm-9.668 2.856a.742.742 0 0 1-.469-.153.525.525 0 0 1-.2-.418c0-.164.067-.3.2-.41a.679.679 0 0 1 .469-.176h12.633a.67.67 0 0 1 .457.164c.133.11.199.25.199.422a.52.52 0 0 1-.2.418.71.71 0 0 1-.456.153Zm0 0"/></svg>