<svg xmlns="http://www.w3.org/2000/svg" width="24" height="24"><path style="stroke:none;fill-rule:nonzero;fill:#fff;fill-opacity:1" d="M8.445 21.906h2.242c-.582-.32-1.078-.847-1.433-1.523a4.957 4.957 0 0 1-.55-2.34c0-.777.144-1.492.44-2.14.301-.645.704-1.16 1.204-1.54.5-.39 1.05-.586 1.652-.586.578-.007 1.148.196 1.645.586.5.38.898.895 1.195 1.54.3.648.45 1.359.45 2.14 0 .863-.188 1.64-.563 2.34-.368.699-.844 1.207-1.422 1.523h2.242a6.605 6.605 0 0 0 .808-1.777c.2-.656.297-1.348.297-2.086 0-.828-.12-1.61-.367-2.336a6.246 6.246 0 0 0-1.004-1.922c-.433-.555-.93-.996-1.492-1.308a3.607 3.607 0 0 0-3.586 0 4.91 4.91 0 0 0-1.492 1.308 6.35 6.35 0 0 0-1.016 1.922 7.525 7.525 0 0 0-.355 2.336c0 .738.094 1.43.289 2.086.2.664.469 1.254.816 1.773Zm-5.523-3.258H5.02c.199.012.398-.078.546-.253.141-.16.223-.391.22-.637a1.025 1.025 0 0 0-.22-.633.682.682 0 0 0-.546-.262H2.922a.68.68 0 0 0-.543.262.999.999 0 0 0-.215.633c0 .25.07.46.215.637a.66.66 0 0 0 .543.253Zm4.68-6.293c.132-.171.199-.41.187-.652 0-.258-.078-.484-.238-.683L6.066 9.098c-.136-.196-.324-.305-.527-.309-.184-.004-.36.09-.492.254a.986.986 0 0 0-.207.64c.008.25.09.477.25.684l1.48 1.922a.71.71 0 0 0 .528.316.57.57 0 0 0 .504-.25Zm8.789 0a.621.621 0 0 0 .5.254c.199-.011.375-.117.53-.32l1.481-1.922a1.09 1.09 0 0 0 .239-.683.97.97 0 0 0-.196-.641c-.125-.176-.308-.27-.492-.25-.203 0-.394.113-.531.305l-1.48 1.922c-.153.18-.243.43-.25.695a.967.967 0 0 0 .199.64Zm2.582 6.293h2.093a.661.661 0 0 0 .547-.253.983.983 0 0 0 .215-.633.991.991 0 0 0-.215-.633c-.148-.18-.343-.277-.547-.266h-2.093a.682.682 0 0 0-.547.262.967.967 0 0 0-.223.633c.008.242.086.472.223.637.152.171.347.265.547.253ZM1.816 23.305h20.36c.199 0 .37-.086.52-.262a.918.918 0 0 0 .222-.617.967.967 0 0 0-.223-.633.677.677 0 0 0-.52-.25H1.817a.677.677 0 0 0-.52.25.967.967 0 0 0-.222.633c0 .242.074.445.223.617.144.176.32.262.52.262ZM12 9.285c.188 0 .348-.09.484-.27.137-.19.211-.44.207-.699V4.18l-.101-1.668.629.941 1.066 1.399c.063.078.133.14.211.187a.505.505 0 0 0 .656-.14.865.865 0 0 0 .172-.532.826.826 0 0 0-.05-.308 1.12 1.12 0 0 0-.153-.278l-2.66-3.21C12.297.382 12.14.288 12 .288c-.148 0-.305.094-.469.281l-2.66 3.211a1.12 1.12 0 0 0-.152.278.826.826 0 0 0-.051.308c0 .211.055.39.16.531a.536.536 0 0 0 .426.207.503.503 0 0 0 .242-.066.793.793 0 0 0 .211-.187l1.152-1.512.543-.828-.101 1.668v4.136c0 .274.07.504.203.7.129.175.309.273.496.27Zm0 0"/></svg>