<svg width="162" height="132" viewBox="0 0 162 132" fill="none" xmlns="http://www.w3.org/2000/svg">
<path d="M55 123.125H71.4375C67.1875 121.333 63.6875 118.458 60.9375 114.5C58.2292 110.542 56.875 106.125 56.875 101.25C56.875 96.8333 57.9583 92.7917 60.125 89.125C62.3333 85.4583 65.2708 82.5417 68.9375 80.375C72.6042 78.1667 76.6458 77.0625 81.0625 77.0625C85.4375 77.0625 89.4583 78.1667 93.125 80.375C96.7917 82.5417 99.7083 85.4583 101.875 89.125C104.083 92.7917 105.188 96.8333 105.188 101.25C105.188 106.125 103.812 110.542 101.062 114.5C98.3542 118.458 94.875 121.333 90.625 123.125H107.062C109.604 120.167 111.583 116.812 113 113.062C114.458 109.354 115.188 105.417 115.188 101.25C115.188 96.5417 114.292 92.125 112.5 88C110.75 83.875 108.292 80.25 105.125 77.125C101.958 73.9583 98.3125 71.4792 94.1875 69.6875C90.0625 67.8958 85.6875 67 81.0625 67C76.3958 67 72 67.8958 67.875 69.6875C63.75 71.4792 60.1042 73.9583 56.9375 77.125C53.7708 80.25 51.2917 83.875 49.5 88C47.75 92.125 46.875 96.5417 46.875 101.25C46.875 105.417 47.5833 109.354 49 113.062C50.4583 116.812 52.4583 120.167 55 123.125ZM14.5 104.688H29.875C31.5 104.688 32.8333 104.208 33.875 103.25C34.9583 102.25 35.5 101.042 35.5 99.625C35.4583 98.25 34.9167 97.0625 33.875 96.0625C32.8333 95.0625 31.5 94.5625 29.875 94.5625H14.5C12.875 94.5625 11.5417 95.0625 10.5 96.0625C9.45833 97.0625 8.9375 98.25 8.9375 99.625C8.9375 101.042 9.45833 102.25 10.5 103.25C11.5417 104.208 12.875 104.688 14.5 104.688ZM48.8125 69C49.7708 68 50.2292 66.7708 50.1875 65.3125C50.1875 63.8542 49.6042 62.5625 48.4375 61.4375L37.5625 50.5625C36.3958 49.3958 35.1042 48.8125 33.6875 48.8125C32.2708 48.8125 31.0625 49.2917 30.0625 50.25C29.0625 51.2083 28.5625 52.4167 28.5625 53.875C28.6042 55.2917 29.2083 56.5833 30.375 57.75L41.25 68.625C42.375 69.7917 43.6667 70.3958 45.125 70.4375C46.625 70.4792 47.8542 70 48.8125 69ZM113.25 69C114.25 69.9583 115.479 70.4375 116.938 70.4375C118.396 70.3958 119.688 69.7917 120.812 68.625L131.688 57.75C132.854 56.5833 133.438 55.2917 133.438 53.875C133.479 52.4583 133 51.25 132 50.25C131.042 49.25 129.833 48.7708 128.375 48.8125C126.958 48.8125 125.667 49.3958 124.5 50.5625L113.625 61.4375C112.458 62.5625 111.854 63.875 111.812 65.375C111.771 66.8333 112.25 68.0417 113.25 69ZM132.188 104.688H147.562C149.188 104.688 150.521 104.208 151.562 103.25C152.604 102.25 153.125 101.042 153.125 99.625C153.125 98.25 152.604 97.0625 151.562 96.0625C150.521 95.0625 149.188 94.5625 147.562 94.5625H132.188C130.604 94.5625 129.271 95.0625 128.188 96.0625C127.104 97.0625 126.562 98.25 126.562 99.625C126.604 101.042 127.146 102.25 128.188 103.25C129.271 104.208 130.604 104.688 132.188 104.688ZM6.375 131.062H155.688C157.146 131.062 158.417 130.562 159.5 129.562C160.583 128.604 161.125 127.438 161.125 126.062C161.125 124.688 160.583 123.5 159.5 122.5C158.417 121.542 157.146 121.062 155.688 121.062H6.375C4.91667 121.062 3.64583 121.542 2.5625 122.5C1.47917 123.5 0.9375 124.688 0.9375 126.062C0.9375 127.438 1.47917 128.604 2.5625 129.562C3.64583 130.562 4.91667 131.062 6.375 131.062ZM81.0625 51.625C82.4375 51.625 83.625 51.1042 84.625 50.0625C85.625 48.9792 86.125 47.6667 86.125 46.125V22.6875L85.375 13.25L90 18.5625L97.8125 26.5C98.2708 26.9167 98.7917 27.2708 99.375 27.5625C99.9583 27.8125 100.542 27.9375 101.125 27.9375C102.375 27.9375 103.396 27.5417 104.188 26.75C105.021 25.9583 105.438 24.9583 105.438 23.75C105.438 23.0833 105.312 22.5 105.062 22C104.812 21.4583 104.438 20.9375 103.938 20.4375L84.4375 2.25C83.2292 1.16667 82.1042 0.625 81.0625 0.625C79.9792 0.625 78.8333 1.16667 77.625 2.25L58.125 20.4375C57.625 20.9375 57.25 21.4583 57 22C56.75 22.5 56.625 23.0833 56.625 23.75C56.625 24.9583 57.0208 25.9583 57.8125 26.75C58.6458 27.5417 59.6875 27.9375 60.9375 27.9375C61.5208 27.9375 62.1042 27.8125 62.6875 27.5625C63.2708 27.2708 63.7917 26.9167 64.25 26.5L72.6875 17.9375L76.6875 13.25L75.9375 22.6875V46.125C75.9375 47.6667 76.4375 48.9792 77.4375 50.0625C78.4375 51.1042 79.6458 51.625 81.0625 51.625Z" fill="white"/>
</svg>
