<svg width="128" height="128" viewBox="0 0 128 128" fill="none" xmlns="http://www.w3.org/2000/svg">
<path d="M63.9375 127.688C72.6458 127.688 80.8333 126.021 88.5 122.688C96.2083 119.354 103 114.75 108.875 108.875C114.75 103 119.354 96.2292 122.688 88.5625C126.021 80.8542 127.688 72.6458 127.688 63.9375C127.688 55.2292 126.021 47.0417 122.688 39.375C119.354 31.6667 114.75 24.875 108.875 19C103 13.125 96.2083 8.52083 88.5 5.1875C80.7917 1.85417 72.5833 0.1875 63.875 0.1875C55.1667 0.1875 46.9583 1.85417 39.25 5.1875C31.5833 8.52083 24.8125 13.125 18.9375 19C13.1042 24.875 8.52083 31.6667 5.1875 39.375C1.85417 47.0417 0.1875 55.2292 0.1875 63.9375C0.1875 72.6458 1.85417 80.8542 5.1875 88.5625C8.52083 96.2292 13.125 103 19 108.875C24.875 114.75 31.6458 119.354 39.3125 122.688C47.0208 126.021 55.2292 127.688 63.9375 127.688ZM30.3125 77.5C29.2708 77.5 28.3958 77.1667 27.6875 76.5C27.0208 75.8333 26.6875 75.0417 26.6875 74.125C26.6875 73.25 27.0208 72.4792 27.6875 71.8125C28.3958 71.1458 29.2708 70.8125 30.3125 70.8125H38.0625C39.1042 70.8125 39.9792 71.1458 40.6875 71.8125C41.3958 72.4375 41.75 73.2083 41.75 74.125C41.75 75.0833 41.3958 75.8958 40.6875 76.5625C39.9792 77.1875 39.1042 77.5 38.0625 77.5H30.3125ZM43.375 59.0625L37.8125 53.5C37.0625 52.75 36.6667 51.9375 36.625 51.0625C36.625 50.1458 36.9375 49.3333 37.5625 48.625C38.2292 48 39.0208 47.6875 39.9375 47.6875C40.8542 47.6458 41.7083 48 42.5 48.75L48 54.3125C48.7083 55.0208 49.1042 55.8542 49.1875 56.8125C49.2708 57.7708 48.9583 58.5833 48.25 59.25C47.625 59.9583 46.8333 60.2917 45.875 60.25C44.9167 60.1667 44.0833 59.7708 43.375 59.0625ZM63.9375 23.5C64.8542 23.5 65.6458 23.8542 66.3125 24.5625C66.9792 25.2708 67.3125 26.1042 67.3125 27.0625V38.8125L67.125 41.1875L67.9375 40.4375L71.8125 36.375C72.0625 36.0833 72.3958 35.8542 72.8125 35.6875C73.2708 35.5208 73.6875 35.4375 74.0625 35.4375C74.9375 35.4375 75.6458 35.7083 76.1875 36.25C76.7292 36.7917 77 37.4792 77 38.3125C77 38.7292 76.9167 39.125 76.75 39.5C76.625 39.875 76.375 40.25 76 40.625L66.1875 49.8125C65.4375 50.4792 64.6875 50.8125 63.9375 50.8125C63.1875 50.8125 62.4375 50.4792 61.6875 49.8125L51.8125 40.625C51.4375 40.25 51.1667 39.875 51 39.5C50.875 39.125 50.8125 38.7292 50.8125 38.3125C50.8125 37.4792 51.0833 36.7917 51.625 36.25C52.2083 35.7083 52.9167 35.4375 53.75 35.4375C54.1667 35.4375 54.5625 35.5208 54.9375 35.6875C55.3542 35.8542 55.7292 36.0833 56.0625 36.375L60.375 40.6875L60.6875 41L60.5625 38.8125V27.0625C60.5625 26.1042 60.875 25.2708 61.5 24.5625C62.1667 23.8542 62.9792 23.5 63.9375 23.5ZM79.625 59.25C78.9583 58.5833 78.625 57.7917 78.625 56.875C78.6667 55.9167 79.0625 55.0625 79.8125 54.3125L85.375 48.75C86.0833 48.0417 86.9167 47.6667 87.875 47.625C88.8333 47.5833 89.6458 47.9167 90.3125 48.625C90.9375 49.3333 91.2292 50.1458 91.1875 51.0625C91.1458 51.9375 90.75 52.75 90 53.5L84.5625 59.0625C83.8125 59.8125 82.9583 60.2083 82 60.25C81.0833 60.25 80.2917 59.9167 79.625 59.25ZM89.75 77.5C88.75 77.5 87.8958 77.1875 87.1875 76.5625C86.4792 75.8958 86.125 75.0833 86.125 74.125C86.125 73.2083 86.4583 72.4375 87.125 71.8125C87.8333 71.1458 88.7083 70.8125 89.75 70.8125H97.5625C98.6042 70.8125 99.4583 71.1458 100.125 71.8125C100.792 72.4375 101.125 73.2083 101.125 74.125C101.125 75.0417 100.792 75.8333 100.125 76.5C99.4583 77.1667 98.6042 77.5 97.5625 77.5H89.75ZM81.8125 74.875C81.8125 75.8333 81.7292 76.7917 81.5625 77.75C81.3958 78.7083 81.1458 79.625 80.8125 80.5H47.0625C46.7292 79.625 46.4583 78.7083 46.25 77.75C46.0833 76.7917 46 75.8333 46 74.875C46 71.625 46.8125 68.6458 48.4375 65.9375C50.0625 63.2292 52.2292 61.0625 54.9375 59.4375C57.6875 57.7708 60.6875 56.9375 63.9375 56.9375C67.1875 56.9375 70.1667 57.7708 72.875 59.4375C75.5833 61.0625 77.75 63.2292 79.375 65.9375C81 68.6458 81.8125 71.625 81.8125 74.875ZM30.25 91.0625C29.3333 91.0625 28.5 90.7708 27.75 90.1875C27.0417 89.5625 26.6875 88.7708 26.6875 87.8125C26.6875 86.8958 27.0417 86.125 27.75 85.5C28.4583 84.8333 29.2917 84.5 30.25 84.5H97.625C98.5833 84.5 99.3958 84.8125 100.062 85.4375C100.771 86.0625 101.125 86.8542 101.125 87.8125C101.125 88.7708 100.771 89.5625 100.062 90.1875C99.3542 90.7708 98.5417 91.0625 97.625 91.0625H30.25Z" fill="white"/>
</svg>
