<svg width="138" height="145" viewBox="0 0 138 145" fill="none" xmlns="http://www.w3.org/2000/svg">
<path d="M0.9375 43.375H54.5V16.3125C54.5 11.5625 53.0625 7.79167 50.1875 5C47.3542 2.16667 43.5 0.75 38.625 0.75H17.4375C12.3542 0.75 8.33333 2.16667 5.375 5C2.41667 7.79167 0.9375 11.5625 0.9375 16.3125V43.375ZM0.9375 93.8125H54.5V51.875H0.9375V93.8125ZM17.4375 145H38.625C43.5 145 47.3542 143.583 50.1875 140.75C53.0625 137.958 54.5 134.167 54.5 129.375V102.375H0.9375V129.375C0.9375 134.167 2.41667 137.958 5.375 140.75C8.33333 143.583 12.3542 145 17.4375 145ZM63 50.375L92.875 67.625L106.375 44.1875C108.75 40.0625 109.396 36.0625 108.312 32.1875C107.271 28.3125 104.625 25.1667 100.375 22.75L82.125 12.1875C78.625 10.1458 75.25 9.25 72 9.5C68.75 9.70833 65.9167 10.9792 63.5 13.3125C63.4583 14.0208 63.3958 14.75 63.3125 15.5C63.2292 16.2083 63.125 16.9375 63 17.6875V50.375ZM63 119.312L88.625 75L63 60.25V119.312ZM104.75 107.812L128.125 94.3125C132.25 91.9375 134.812 88.8125 135.812 84.9375C136.812 81.0208 136.083 76.9375 133.625 72.6875L123.125 54.4375C120.917 50.5625 118.083 48.0417 114.625 46.875C114.417 47.25 114.208 47.625 114 48C113.833 48.375 113.646 48.75 113.438 49.125L92.1875 86L104.75 107.812ZM66.9375 129.625L97.3125 112.062L87.1875 94.5L66.9375 129.625Z" fill="white"/>
</svg>
