<svg width="143" height="145" viewBox="0 0 143 145" fill="none" xmlns="http://www.w3.org/2000/svg">
<path d="M18.6875 145H42.3125C47.9792 145 52.25 143.583 55.125 140.75C58.0417 137.917 59.5 133.708 59.5 128.125V17.5625C59.5 12.0208 58.0417 7.83333 55.125 5C52.25 2.16667 47.9792 0.75 42.3125 0.75H18.6875C12.8542 0.75 8.4375 2.16667 5.4375 5C2.4375 7.83333 0.9375 12.0208 0.9375 17.5625V128.125C0.9375 133.708 2.4375 137.917 5.4375 140.75C8.4375 143.583 12.8542 145 18.6875 145ZM18.8125 134.938C16.5625 134.938 14.6875 134.25 13.1875 132.875C11.7292 131.5 11 129.75 11 127.625V18.0625C11 15.9792 11.7292 14.25 13.1875 12.875C14.6875 11.5 16.5625 10.8125 18.8125 10.8125H42.1875C44.2708 10.8125 46 11.5 47.375 12.875C48.75 14.25 49.4375 15.9792 49.4375 18.0625V127.625C49.4375 129.75 48.75 131.5 47.375 132.875C46 134.25 44.2708 134.938 42.1875 134.938H18.8125ZM6.125 55.5625H54.3125V45.5H6.125V55.5625ZM6.125 100.25H54.3125V90.1875H6.125V100.25ZM53.875 26.8125L56.75 41.875L68.5625 21.4375C69.6042 19.6458 71.1042 18.5208 73.0625 18.0625C75.0625 17.6042 77.0417 17.9375 79 19.0625L99.25 30.75C101.042 31.7917 102.167 33.25 102.625 35.125C103.125 37 102.854 38.8542 101.812 40.6875L48.4375 133.125L57.1875 138.125L110.75 45.25C113.542 40.4583 114.396 36.125 113.312 32.25C112.229 28.3333 109.25 24.9792 104.375 22.1875L83.875 10.3125C78.8333 7.39583 74.3125 6.41667 70.3125 7.375C66.3125 8.29167 62.9167 11.1667 60.125 16L53.875 26.8125ZM57.3125 58.1875L87.375 75.5625L92.375 66.875L57.3125 46.625V58.1875ZM55.75 108.875L65 114.312L70.0625 105.562L55.75 97.3125V108.875ZM106.062 42.9375L101.5 56.625L107.375 53.25C109.167 52.2083 111.042 51.9792 113 52.5625C114.958 53.1458 116.5 54.4167 117.625 56.375L129.312 76.5625C130.312 78.3958 130.562 80.2708 130.062 82.1875C129.562 84.0625 128.417 85.5 126.625 86.5L65.5 121.75L56.0625 138.812L132.062 95C136.854 92.2083 139.75 88.8542 140.75 84.9375C141.792 80.9792 140.896 76.5625 138.062 71.6875L126.25 51.25C123.833 47.0417 121.021 44.1667 117.812 42.625C114.646 41.0833 111.208 40.9583 107.5 42.25L106.062 42.9375ZM83.875 87.375L96.625 109.438L105.312 104.438L89.6875 77.3125L83.875 87.375Z" fill="white"/>
</svg>
