<svg width="93" height="139" viewBox="0 0 93 139" fill="none" xmlns="http://www.w3.org/2000/svg">
<path d="M20.3125 139H73.1875C79.6458 139 84.4792 137.375 87.6875 134.125C90.9375 130.875 92.5625 125.979 92.5625 119.438V20.375C92.5625 13.875 90.9375 8.97917 87.6875 5.6875C84.4792 2.39583 79.6458 0.75 73.1875 0.75H20.3125C13.8542 0.75 9 2.39583 5.75 5.6875C2.54167 8.97917 0.9375 13.875 0.9375 20.375V119.438C0.9375 125.979 2.54167 130.875 5.75 134.125C9 137.375 13.8542 139 20.3125 139ZM20.8125 128.938C17.5625 128.938 15.1042 128.104 13.4375 126.438C11.8125 124.771 11 122.375 11 119.25V20.5625C11 17.4375 11.8125 15.0417 13.4375 13.375C15.1042 11.6667 17.5625 10.8125 20.8125 10.8125H72.625C75.875 10.8125 78.3333 11.6667 80 13.375C81.6667 15.0417 82.5 17.4375 82.5 20.5625V119.25C82.5 122.375 81.6667 124.771 80 126.438C78.3333 128.104 75.875 128.938 72.625 128.938H20.8125ZM25 58.75H68.1875C70.1875 58.75 71.625 58.3333 72.5 57.5C73.375 56.625 73.8125 55.2083 73.8125 53.25V24.875C73.8125 22.9167 73.375 21.5208 72.5 20.6875C71.625 19.8125 70.1875 19.375 68.1875 19.375H25C23 19.375 21.5625 19.8125 20.6875 20.6875C19.8542 21.5208 19.4375 22.9167 19.4375 24.875V53.25C19.4375 55.2083 19.8542 56.625 20.6875 57.5C21.5625 58.3333 23 58.75 25 58.75ZM25 120.438H68.1875C70.1875 120.438 71.625 120 72.5 119.125C73.375 118.292 73.8125 116.896 73.8125 114.938V86.5625C73.8125 84.6042 73.375 83.2083 72.5 82.375C71.625 81.5 70.1875 81.0625 68.1875 81.0625H25C23 81.0625 21.5625 81.5 20.6875 82.375C19.8542 83.2083 19.4375 84.6042 19.4375 86.5625V114.938C19.4375 116.896 19.8542 118.292 20.6875 119.125C21.5625 120 23 120.438 25 120.438Z" fill="white"/>
</svg>
