<svg width="16" height="15" viewBox="0 0 16 15" fill="none" xmlns="http://www.w3.org/2000/svg">
<path d="M3.25781 14.5625H12.7344C13.5521 14.5625 14.1641 14.3594 14.5703 13.9531C14.9818 13.5521 15.1875 12.9479 15.1875 12.1406V2.60156C15.1875 1.79427 14.9818 1.1901 14.5703 0.789062C14.1641 0.382812 13.5521 0.179688 12.7344 0.179688H3.25781C2.4401 0.179688 1.82552 0.382812 1.41406 0.789062C1.00781 1.1901 0.804688 1.79427 0.804688 2.60156V12.1406C0.804688 12.9479 1.00781 13.5521 1.41406 13.9531C1.82552 14.3594 2.4401 14.5625 3.25781 14.5625ZM7.98438 11.0859C7.77604 11.0859 7.61719 11.0182 7.50781 10.8828C7.39844 10.7474 7.34375 10.5703 7.34375 10.3516V4.70312H5.36719C5.20573 4.70312 5.07292 4.65625 4.96875 4.5625C4.86979 4.46354 4.82031 4.33333 4.82031 4.17188C4.82031 4.00521 4.86979 3.875 4.96875 3.78125C5.07292 3.6875 5.20573 3.64062 5.36719 3.64062H10.6328C10.7891 3.64062 10.9193 3.6875 11.0234 3.78125C11.1276 3.875 11.1797 4.00521 11.1797 4.17188C11.1797 4.33333 11.1276 4.46354 11.0234 4.5625C10.9193 4.65625 10.7891 4.70312 10.6328 4.70312H8.63281V10.3516C8.63281 10.5755 8.57552 10.7552 8.46094 10.8906C8.35156 11.0208 8.19271 11.0859 7.98438 11.0859Z" fill="white"/>
</svg>
