<?xml version="1.0" encoding="UTF-8"?>
<svg xmlns="http://www.w3.org/2000/svg" xmlns:xlink="http://www.w3.org/1999/xlink" width="24" height="22.5" viewBox="0 0 24 22.5" version="1.1">
<g id="surface1">
<path style=" stroke:none;fill-rule:nonzero;fill:rgb(100%,100%,100%);fill-opacity:1;" d="M 4.886719 21.84375 L 19.101562 21.84375 C 20.328125 21.84375 21.246094 21.539062 21.855469 20.929688 C 22.472656 20.328125 22.78125 19.421875 22.78125 18.210938 L 22.78125 3.902344 C 22.78125 2.691406 22.472656 1.785156 21.855469 1.183594 C 21.246094 0.574219 20.328125 0.269531 19.101562 0.269531 L 4.886719 0.269531 C 3.660156 0.269531 2.738281 0.574219 2.121094 1.183594 C 1.511719 1.785156 1.207031 2.691406 1.207031 3.902344 L 1.207031 18.210938 C 1.207031 19.421875 1.511719 20.328125 2.121094 20.929688 C 2.738281 21.539062 3.660156 21.84375 4.886719 21.84375 Z M 11.976562 16.628906 C 11.664062 16.628906 11.425781 16.527344 11.261719 16.324219 C 11.097656 16.121094 11.015625 15.855469 11.015625 15.527344 L 11.015625 7.054688 L 8.050781 7.054688 C 7.808594 7.054688 7.609375 6.984375 7.453125 6.84375 C 7.304688 6.695312 7.230469 6.5 7.230469 6.257812 C 7.230469 6.007812 7.304688 5.8125 7.453125 5.671875 C 7.609375 5.53125 7.808594 5.460938 8.050781 5.460938 L 15.949219 5.460938 C 16.183594 5.460938 16.378906 5.53125 16.535156 5.671875 C 16.691406 5.8125 16.769531 6.007812 16.769531 6.257812 C 16.769531 6.5 16.691406 6.695312 16.535156 6.84375 C 16.378906 6.984375 16.183594 7.054688 15.949219 7.054688 L 12.949219 7.054688 L 12.949219 15.527344 C 12.949219 15.863281 12.863281 16.132812 12.691406 16.335938 C 12.527344 16.53125 12.289062 16.628906 11.976562 16.628906 Z M 11.976562 16.628906 "/>
</g>
</svg>
