<svg width="20" height="19" viewBox="0 0 20 19" fill="none" xmlns="http://www.w3.org/2000/svg">
<path d="M2.53906 17.1094H11.0469C11.0417 17.0729 11.0365 17.0365 11.0312 17C11.0312 16.9635 11.0286 16.9271 11.0234 16.8906L10.2109 8.38281C10.1745 8.03385 10.224 7.71615 10.3594 7.42969C10.5 7.14323 10.7031 6.91406 10.9688 6.74219C11.2396 6.57031 11.5495 6.48438 11.8984 6.48438H14.0156C14.0156 6.24479 13.9922 6.05208 13.9453 5.90625C13.8984 5.76042 13.8151 5.60677 13.6953 5.44531L12.2031 3.46875V1.98438C12.2031 1.43229 12.0443 1.00781 11.7266 0.710938C11.4141 0.414062 10.9635 0.265625 10.375 0.265625H3.79688C3.20833 0.265625 2.75521 0.414062 2.4375 0.710938C2.125 1.00781 1.96875 1.43229 1.96875 1.98438V3.46875L0.484375 5.44531C0.354167 5.61719 0.265625 5.78125 0.21875 5.9375C0.177083 6.08854 0.15625 6.29948 0.15625 6.57031V14.7578C0.15625 15.5391 0.354167 16.125 0.75 16.5156C1.15104 16.9115 1.7474 17.1094 2.53906 17.1094ZM4.96875 3.32031C4.83333 3.32031 4.71615 3.27083 4.61719 3.17188C4.51823 3.07292 4.46875 2.95312 4.46875 2.8125C4.46875 2.67188 4.51823 2.55208 4.61719 2.45312C4.71615 2.34896 4.83333 2.29688 4.96875 2.29688H9.17969C9.3151 2.29688 9.43229 2.34896 9.53125 2.45312C9.63021 2.55208 9.67969 2.67188 9.67969 2.8125C9.67969 2.95312 9.63021 3.07292 9.53125 3.17188C9.43229 3.27083 9.3151 3.32031 9.17969 3.32031H4.96875ZM13.7422 18.4375H17.3594C17.875 18.4375 18.2656 18.3021 18.5312 18.0312C18.7969 17.7656 18.9583 17.3516 19.0156 16.7891L19.8359 8.28125C19.8568 8.0625 19.8073 7.88802 19.6875 7.75781C19.5729 7.6224 19.4089 7.55469 19.1953 7.55469H11.8984C11.6901 7.55469 11.526 7.6224 11.4062 7.75781C11.2917 7.89323 11.2448 8.06771 11.2656 8.28125L12.0859 16.7891C12.138 17.3516 12.2969 17.7656 12.5625 18.0312C12.8281 18.3021 13.2214 18.4375 13.7422 18.4375ZM15.0391 7.95312H16.1172L16.1641 7.21875C16.1797 7.02083 16.2188 6.85938 16.2812 6.73438C16.349 6.60938 16.4557 6.49479 16.6016 6.39062L19.2109 4.51562C19.362 4.41146 19.4427 4.28906 19.4531 4.14844C19.4635 4.0026 19.4245 3.8724 19.3359 3.75781C19.2526 3.64323 19.138 3.57031 18.9922 3.53906C18.8516 3.5026 18.7031 3.54167 18.5469 3.65625L16.0312 5.47656C15.7292 5.69531 15.5078 5.9349 15.3672 6.19531C15.2266 6.45052 15.138 6.77083 15.1016 7.15625L15.0391 7.95312Z" fill="white"/>
</svg>
