<svg xmlns="http://www.w3.org/2000/svg" width="24" height="24"><path style="stroke:none;fill-rule:nonzero;fill:#fff;fill-opacity:1" d="M12 23.05c1.633 0 3.168-.292 4.605-.882a12.22 12.22 0 0 0 3.82-2.438 11.467 11.467 0 0 0 2.59-3.582c.626-1.363.938-2.808.938-4.347a10.2 10.2 0 0 0-.937-4.332 11.53 11.53 0 0 0-2.59-3.598 12.361 12.361 0 0 0-3.82-2.437A12.166 12.166 0 0 0 11.987.55c-1.633 0-3.172.293-4.617.883A12.307 12.307 0 0 0 3.562 3.87 11.523 11.523 0 0 0 .985 7.465 10.2 10.2 0 0 0 .047 11.8c0 1.539.312 2.984.937 4.347a11.467 11.467 0 0 0 2.59 3.582 12.236 12.236 0 0 0 3.809 2.438c1.445.59 2.984.883 4.617.883Zm0-1.874a10.222 10.222 0 0 1-7.055-2.734 9.548 9.548 0 0 1-2.133-2.989 8.83 8.83 0 0 1-.761-3.652c0-1.301.254-2.52.761-3.649A9.52 9.52 0 0 1 4.946 5.16 9.82 9.82 0 0 1 8.11 3.156c1.204-.488 2.496-.73 3.88-.73 1.382 0 2.675.242 3.878.73a9.916 9.916 0 0 1 3.176 2.004 9.432 9.432 0 0 1 2.145 2.992 8.685 8.685 0 0 1 .773 3.649c0 1.3-.258 2.52-.773 3.652a9.22 9.22 0 0 1-2.133 2.988 9.994 9.994 0 0 1-3.176 2.008c-1.203.485-2.496.727-3.879.727Zm0-2.383a7.423 7.423 0 0 0 2.871-.55c1.781-.723 3.203-2.06 3.973-3.74a6.36 6.36 0 0 0 .586-2.702 6.312 6.312 0 0 0-.586-2.703 7.054 7.054 0 0 0-1.617-2.227 7.45 7.45 0 0 0-2.368-1.52A7.44 7.44 0 0 0 12 4.798a7.5 7.5 0 0 0-2.871.555c-1.785.726-3.211 2.066-3.984 3.746A6.491 6.491 0 0 0 4.57 11.8c0 .957.196 1.86.586 2.703.39.836.926 1.582 1.606 2.226a7.776 7.776 0 0 0 2.367 1.512c.898.367 1.855.551 2.871.551Zm0-1.773c-.734 0-1.46-.137-2.133-.41a5.968 5.968 0 0 1-1.77-1.137 5.59 5.59 0 0 1-1.206-1.664 4.764 4.764 0 0 1-.434-2.008c0-.711.145-1.387.434-2.016.574-1.258 1.632-2.258 2.964-2.805A5.656 5.656 0 0 1 12 6.574c.75 0 1.457.14 2.121.418a5.59 5.59 0 0 1 1.77 1.137 5.181 5.181 0 0 1 1.207 1.664c.297.625.445 1.297.445 2.008 0 .715-.145 1.386-.434 2.02-.578 1.253-1.644 2.25-2.976 2.788a5.587 5.587 0 0 1-2.133.41Zm.012-2.364a3.076 3.076 0 0 0 1.523-.383c.453-.253.836-.609 1.102-1.039.273-.433.41-.914.41-1.445.008-.5-.137-.992-.41-1.422a3.017 3.017 0 0 0-1.102-1.035 3.08 3.08 0 0 0-1.523-.387 3.09 3.09 0 0 0-2.637 1.422c-.273.43-.414.922-.41 1.422 0 .531.137 1.012.41 1.445.27.43.648.786 1.102 1.04.468.257.98.382 1.535.382Zm0 0"/></svg>