<svg xmlns="http://www.w3.org/2000/svg" width="24" height="24"><path style="stroke:none;fill-rule:nonzero;fill:#fff;fill-opacity:1" d="M11.988 13.484c1 0 1.938-.16 2.813-.484a7.595 7.595 0 0 0 2.304-1.34 6.31 6.31 0 0 0 1.563-1.98c.379-.75.57-1.555.57-2.41 0-.051-.004-.106-.008-.172a1.688 1.688 0 0 1-.011-.196 3.645 3.645 0 0 0 1.55-.511 3.261 3.261 0 0 0 1.094-1.07c.266-.438.403-.926.399-1.419 0-.562-.164-1.074-.492-1.535a3.281 3.281 0 0 0-1.301-1.117 3.83 3.83 0 0 0-1.801-.418c-.563 0-1.09.106-1.586.32-.484.2-.906.496-1.227.868a8.28 8.28 0 0 0-1.867-.715 7.995 7.995 0 0 0-2-.25c-.68 0-1.347.082-2.008.25a8.009 8.009 0 0 0-1.855.715 3.288 3.288 0 0 0-1.23-.868 3.871 3.871 0 0 0-1.582-.32c-.66 0-1.266.14-1.813.418a3.392 3.392 0 0 0-1.3 1.117c-.321.465-.49.996-.481 1.535 0 .512.133.985.394 1.418.266.43.625.785 1.086 1.07.465.282.985.454 1.563.512 0 .059-.004.125-.012.196a1.464 1.464 0 0 0-.012.172c0 .855.188 1.66.563 2.41a6.53 6.53 0 0 0 1.562 1.98A7.765 7.765 0 0 0 9.176 13c.89.324 1.847.488 2.812.484Zm0-1.289a6.386 6.386 0 0 1-2.226-.383c-1.387-.503-2.489-1.449-3.075-2.636a4.194 4.194 0 0 1-.406-2.496c.028-.239.106-.555.23-.938l-.116-.09c-.18.04-.364.07-.551.09a8.2 8.2 0 0 1-.532.016 2.342 2.342 0 0 1-1.074-.242 2.216 2.216 0 0 1-.77-.657 1.656 1.656 0 0 1 0-1.843c.196-.27.454-.489.77-.649a2.289 2.289 0 0 1 1.074-.25c.555 0 1.036.164 1.438.492.402.32.621.707.656 1.168v.133a.677.677 0 0 1-.011.125l.218.055a6.019 6.019 0 0 1 1.969-1.305 6.275 6.275 0 0 1 2.406-.453 6.27 6.27 0 0 1 2.399.453 5.91 5.91 0 0 1 1.976 1.305l.219-.055c-.004-.043-.008-.082-.008-.125v-.133c.035-.46.254-.847.656-1.168.383-.324.903-.5 1.438-.492.387 0 .742.082 1.062.25.325.16.582.38.77.649a1.595 1.595 0 0 1 0 1.844 2.12 2.12 0 0 1-.77.66c-.32.16-.675.238-1.062.238-.176 0-.355-.004-.543-.016a5.076 5.076 0 0 1-.543-.09l-.113.09c.125.387.203.7.23.938.028.238.04.433.04.59 0 .675-.15 1.316-.446 1.906a4.994 4.994 0 0 1-1.242 1.574 5.886 5.886 0 0 1-1.832 1.063 6.503 6.503 0 0 1-2.23.386Zm.024 1.035a3.792 3.792 0 0 0 1.77-.41c.534-.27.96-.64 1.28-1.097.329-.461.497-.989.489-1.528 0-.558-.16-1.07-.477-1.527a3.45 3.45 0 0 0-1.281-1.098 3.9 3.9 0 0 0-1.781-.41c-.653 0-1.246.137-1.782.422A3.385 3.385 0 0 0 8.95 8.68c-.321.457-.485.98-.481 1.515 0 .559.156 1.07.469 1.54.32.456.746.82 1.28 1.093.544.27 1.165.41 1.794.406Zm0-1.105a2.502 2.502 0 0 1-1.137-.258 2.184 2.184 0 0 1-.813-.699 1.636 1.636 0 0 1-.3-.973c0-.351.097-.672.3-.965.204-.289.473-.523.813-.695.34-.172.719-.258 1.137-.258.41 0 .785.086 1.125.258.34.172.61.406.812.695.2.293.301.614.301.965 0 .36-.102.684-.3.973a2.184 2.184 0 0 1-.813.7c-.34.171-.715.257-1.125.257ZM9.48 6.867c.25 0 .461-.078.633-.222a.704.704 0 0 0 .274-.555.679.679 0 0 0-.274-.547.928.928 0 0 0-.633-.23.94.94 0 0 0-.625.23.679.679 0 0 0-.273.547c0 .215.09.398.273.555a.97.97 0 0 0 .625.222Zm5.032 0a.987.987 0 0 0 .625-.222.706.706 0 0 0 .27-.555.691.691 0 0 0-.27-.547.947.947 0 0 0-.625-.23.983.983 0 0 0-.649.23.709.709 0 0 0-.258.547.724.724 0 0 0 .258.555c.172.144.407.222.649.222Zm-2.524 3.606c.196 0 .407-.063.637-.188a3.58 3.58 0 0 0 .613-.418c.176-.156.262-.265.262-.332 0-.172-.145-.351-.438-.535-.285-.184-.64-.277-1.074-.277-.437 0-.804.093-1.101.277-.293.184-.438.363-.438.535 0 .067.086.176.258.332.195.156.41.297.637.418.242.125.457.188.644.188Zm-4.644 12.59c.722 0 1.375-.2 1.957-.59a4.155 4.155 0 0 0 1.406-1.563c.348-.652.523-1.383.523-2.187 0-.797-.175-1.524-.523-2.18a4.143 4.143 0 0 0-1.406-1.559 3.424 3.424 0 0 0-1.957-.582c-.73 0-1.39.192-1.98.582a4.18 4.18 0 0 0-1.395 1.559 4.67 4.67 0 0 0-.512 2.18c0 .804.172 1.535.512 2.187a4.192 4.192 0 0 0 1.394 1.563c.59.39 1.25.59 1.98.59Zm0-1.348c-.418 0-.801-.14-1.157-.41a2.921 2.921 0 0 1-.843-1.082 3.518 3.518 0 0 1-.313-1.5c0-.547.106-1.043.313-1.489.215-.453.496-.816.843-1.082.356-.27.739-.402 1.157-.402.418 0 .797.133 1.144.402.356.266.637.63.844 1.082.215.446.324.942.324 1.489 0 .55-.11 1.047-.324 1.5a2.77 2.77 0 0 1-.844 1.082c-.347.27-.726.41-1.144.41Zm9.312 1.348c.723 0 1.38-.2 1.969-.59a4.063 4.063 0 0 0 1.395-1.563c.347-.652.523-1.383.523-2.187 0-.797-.176-1.524-.523-2.18a4.051 4.051 0 0 0-1.395-1.559 3.491 3.491 0 0 0-1.969-.582c-.722 0-1.379.192-1.968.582a4.18 4.18 0 0 0-1.395 1.559 4.584 4.584 0 0 0-.523 2.18c0 .804.175 1.535.523 2.187a4.192 4.192 0 0 0 1.395 1.563c.59.39 1.246.59 1.968.59Zm0-1.348c-.418 0-.8-.14-1.156-.41a2.921 2.921 0 0 1-.844-1.082 3.518 3.518 0 0 1-.312-1.5c0-.547.105-1.043.312-1.489.215-.453.496-.816.844-1.082.355-.27.738-.402 1.156-.402.418 0 .797.133 1.145.402.355.266.637.63.844 1.082.214.446.324.942.324 1.489 0 .55-.11 1.047-.324 1.5a2.77 2.77 0 0 1-.844 1.082c-.348.27-.727.41-1.145.41ZM4.574 17.93l.04-1.258c-.415.004-.821-.09-1.176-.27a1.847 1.847 0 0 1-.825-.785 1.583 1.583 0 0 1-.187-.93c.031-.308.16-.609.367-.867.207-.261.496-.465.863-.605l3.813-1.5-.625-1.152-3.824 1.48a3.422 3.422 0 0 0-1.446 1.039c-.36.441-.578.961-.637 1.5-.062.543.051 1.086.325 1.578.289.547.765 1.004 1.363 1.313.605.308 1.254.46 1.95.457Zm14.852 0a4.153 4.153 0 0 0 1.949-.457c.598-.309 1.074-.766 1.363-1.313a2.608 2.608 0 0 0 .325-1.578 2.882 2.882 0 0 0-.637-1.5 3.422 3.422 0 0 0-1.446-1.039l-3.824-1.48-.625 1.152 3.813 1.5c.367.14.656.344.863.605.211.262.332.551.367.867.035.317-.027.626-.187.93-.172.328-.461.606-.825.785-.355.18-.761.274-1.175.27Zm-10.25 3.953c.965.183 1.898.277 2.793.277.894 0 1.828-.094 2.8-.277l-.289-1.27c-1.644.36-3.367.36-5.011 0Zm0 0"/></svg>