<svg xmlns="http://www.w3.org/2000/svg" width="24" height="24"><path style="stroke:none;fill-rule:nonzero;fill:#fff;fill-opacity:1" d="M12 23.063c1.633 0 3.168-.293 4.605-.883a12.29 12.29 0 0 0 3.82-2.438 11.482 11.482 0 0 0 2.59-3.586c.626-1.36.938-2.804.938-4.343 0-1.536-.312-2.981-.937-4.336a11.514 11.514 0 0 0-2.59-3.594 12.22 12.22 0 0 0-3.82-2.438 12.166 12.166 0 0 0-4.618-.883c-1.633 0-3.172.293-4.617.883a12.307 12.307 0 0 0-3.809 2.438A11.523 11.523 0 0 0 .985 7.477a10.187 10.187 0 0 0-.937 4.335c0 1.54.312 2.985.937 4.344a11.438 11.438 0 0 0 2.59 3.586 12.307 12.307 0 0 0 3.809 2.438c1.445.59 2.984.883 4.617.883Zm0-14.536c-.938 0-1.625.063-2.063.188-.43.117-.644.293-.644.527v.164c0 .309-.066.567-.2.762-.124.2-.394.316-.808.355l-2.25.207c-.437.051-.773.012-1.008-.12-.234-.141-.351-.422-.351-.848V9.75c0-.8.32-1.469.96-2.008.641-.535 1.512-.937 2.614-1.203 1.11-.27 2.36-.406 3.75-.406 1.398 0 2.648.137 3.75.406 1.11.266 1.984.668 2.625 1.203.64.54.96 1.211.96 2.02 0 .425-.116.707-.35.847-.235.133-.563.172-.985.121l-2.273-.207c-.415-.039-.684-.156-.809-.355-.125-.195-.188-.45-.188-.762v-.152c0-.266-.199-.453-.597-.563-.399-.109-1.11-.164-2.133-.164Zm-5.52 5.536c-.484 0-.726-.22-.726-.653v-1.078c0-.437.242-.652.726-.652h1.125c.211 0 .375.058.493.175a.646.646 0 0 1 .175.477v1.078c0 .434-.222.652-.668.652Zm3.293 0c-.46 0-.691-.22-.691-.653v-1.078c0-.437.23-.652.691-.652h1.137c.469 0 .703.215.703.652v1.078c0 .434-.234.652-.703.652Zm3.317 0c-.469 0-.703-.22-.703-.653v-1.078c0-.437.234-.652.703-.652h1.125c.46 0 .691.215.691.652v1.078c0 .434-.23.652-.691.652Zm3.305 0c-.47 0-.704-.22-.704-.653v-1.078c0-.437.235-.652.704-.652h1.125c.468 0 .703.215.703.652v1.078c0 .434-.235.652-.703.652Zm-9.938 3.109c-.469 0-.703-.215-.703-.652v-1.067c0-.437.234-.652.703-.652h1.137c.218 0 .386.058.504.176.117.109.175.27.175.476v1.067c0 .433-.226.652-.68.652Zm3.305 0c-.453 0-.68-.215-.68-.652v-1.067c0-.437.227-.652.68-.652h4.476c.446 0 .668.215.668.652v1.067c0 .433-.222.652-.668.652Zm6.644 0c-.476 0-.715-.215-.715-.652v-1.067c0-.437.239-.652.715-.652h1.125c.227 0 .399.058.516.176.117.109.176.27.176.476v1.067c0 .433-.23.652-.692.652Zm0 0"/></svg>