<?xml version="1.0" encoding="UTF-8"?>
<svg xmlns="http://www.w3.org/2000/svg" xmlns:xlink="http://www.w3.org/1999/xlink" width="24" height="15" viewBox="0 0 24 15" version="1.1">
<g id="surface1">
<path style=" stroke:none;fill-rule:nonzero;fill:rgb(100%,100%,100%);fill-opacity:1;" d="M 14.65625 13.585938 C 15.074219 13.175781 15.238281 12.800781 15.148438 12.46875 C 15.066406 12.140625 14.8125 11.804688 14.390625 11.460938 L 12.203125 9.6875 C 11.792969 9.355469 11.441406 9.230469 11.148438 9.3125 C 10.855469 9.394531 10.5625 9.574219 10.265625 9.84375 L 10.132812 9.976562 C 9.957031 10.136719 9.742188 10.195312 9.492188 10.148438 C 9.242188 10.097656 8.917969 9.917969 8.523438 9.617188 C 8.132812 9.316406 7.640625 8.867188 7.046875 8.273438 C 6.496094 7.714844 6.066406 7.238281 5.757812 6.835938 C 5.457031 6.429688 5.269531 6.09375 5.203125 5.828125 C 5.136719 5.558594 5.179688 5.34375 5.335938 5.1875 L 5.46875 5.046875 C 5.765625 4.753906 5.949219 4.464844 6.015625 4.171875 C 6.089844 3.875 5.960938 3.523438 5.632812 3.117188 L 3.851562 0.914062 C 3.511719 0.496094 3.175781 0.246094 2.84375 0.164062 C 2.515625 0.0742188 2.144531 0.238281 1.734375 0.648438 C 1.167969 1.214844 0.832031 1.875 0.734375 2.625 C 0.636719 3.375 0.738281 4.183594 1.039062 5.054688 C 1.339844 5.925781 1.8125 6.824219 2.453125 7.75 C 3.097656 8.675781 3.878906 9.597656 4.796875 10.515625 C 5.535156 11.25 6.277344 11.898438 7.015625 12.460938 C 7.761719 13.023438 8.488281 13.480469 9.203125 13.835938 C 9.921875 14.191406 10.613281 14.425781 11.273438 14.539062 C 11.933594 14.660156 12.550781 14.644531 13.125 14.492188 C 13.699219 14.339844 14.207031 14.039062 14.65625 13.585938 Z M 8.445312 3.601562 L 9.851562 3.601562 C 10.425781 3.601562 10.710938 3.3125 10.710938 2.734375 L 10.710938 1.320312 C 10.710938 0.742188 10.425781 0.453125 9.851562 0.453125 L 8.445312 0.453125 C 7.855469 0.453125 7.5625 0.742188 7.5625 1.320312 L 7.5625 2.734375 C 7.5625 3.3125 7.855469 3.601562 8.445312 3.601562 Z M 12.570312 3.601562 L 13.976562 3.601562 C 14.253906 3.601562 14.464844 3.527344 14.617188 3.375 C 14.769531 3.222656 14.84375 3.011719 14.84375 2.734375 L 14.84375 1.320312 C 14.84375 1.042969 14.769531 0.832031 14.617188 0.679688 C 14.464844 0.527344 14.253906 0.453125 13.976562 0.453125 L 12.570312 0.453125 C 11.980469 0.453125 11.6875 0.742188 11.6875 1.320312 L 11.6875 2.734375 C 11.6875 3.3125 11.980469 3.601562 12.570312 3.601562 Z M 16.6875 3.601562 L 18.09375 3.601562 C 18.371094 3.601562 18.582031 3.527344 18.734375 3.375 C 18.890625 3.222656 18.96875 3.011719 18.96875 2.734375 L 18.96875 1.320312 C 18.96875 1.042969 18.890625 0.832031 18.734375 0.679688 C 18.582031 0.527344 18.371094 0.453125 18.09375 0.453125 L 16.6875 0.453125 C 16.109375 0.453125 15.820312 0.742188 15.820312 1.320312 L 15.820312 2.734375 C 15.820312 3.3125 16.109375 3.601562 16.6875 3.601562 Z M 20.804688 3.601562 L 22.21875 3.601562 C 22.496094 3.601562 22.710938 3.527344 22.867188 3.375 C 23.023438 3.222656 23.101562 3.011719 23.101562 2.734375 L 23.101562 1.320312 C 23.101562 1.042969 23.023438 0.832031 22.867188 0.679688 C 22.710938 0.527344 22.496094 0.453125 22.21875 0.453125 L 20.804688 0.453125 C 20.238281 0.453125 19.953125 0.742188 19.953125 1.320312 L 19.953125 2.734375 C 19.953125 3.3125 20.238281 3.601562 20.804688 3.601562 Z M 8.421875 7.734375 L 9.828125 7.734375 C 10.109375 7.734375 10.324219 7.660156 10.476562 7.507812 C 10.632812 7.355469 10.710938 7.144531 10.710938 6.867188 L 10.710938 5.445312 C 10.710938 5.175781 10.632812 4.964844 10.476562 4.8125 C 10.324219 4.65625 10.109375 4.578125 9.828125 4.578125 L 8.421875 4.578125 C 7.847656 4.578125 7.5625 4.867188 7.5625 5.445312 L 7.5625 6.867188 C 7.5625 7.445312 7.847656 7.734375 8.421875 7.734375 Z M 12.546875 7.734375 L 18.117188 7.734375 C 18.691406 7.734375 18.976562 7.445312 18.976562 6.867188 L 18.976562 5.445312 C 18.976562 4.867188 18.691406 4.578125 18.117188 4.578125 L 12.546875 4.578125 C 11.972656 4.578125 11.6875 4.867188 11.6875 5.445312 L 11.6875 6.867188 C 11.6875 7.445312 11.972656 7.734375 12.546875 7.734375 Z M 20.835938 7.734375 L 22.242188 7.734375 C 22.816406 7.734375 23.101562 7.445312 23.101562 6.867188 L 23.101562 5.445312 C 23.101562 4.867188 22.816406 4.578125 22.242188 4.578125 L 20.835938 4.578125 C 20.558594 4.578125 20.34375 4.65625 20.1875 4.8125 C 20.035156 4.964844 19.960938 5.175781 19.960938 5.445312 L 19.960938 6.867188 C 19.960938 7.144531 20.035156 7.355469 20.1875 7.507812 C 20.34375 7.660156 20.558594 7.734375 20.835938 7.734375 Z M 20.835938 7.734375 "/>
</g>
</svg>
