<svg xmlns="http://www.w3.org/2000/svg" width="24" height="24"><path style="stroke:none;fill-rule:nonzero;fill:#fff;fill-opacity:1" d="M12 23.05c1.633 0 3.168-.292 4.605-.882a12.22 12.22 0 0 0 3.82-2.438 11.467 11.467 0 0 0 2.59-3.582c.626-1.363.938-2.808.938-4.347a10.2 10.2 0 0 0-.937-4.332 11.53 11.53 0 0 0-2.59-3.598 12.361 12.361 0 0 0-3.82-2.437A12.166 12.166 0 0 0 11.987.55c-1.633 0-3.172.293-4.617.883A12.307 12.307 0 0 0 3.562 3.87 11.523 11.523 0 0 0 .985 7.465 10.2 10.2 0 0 0 .047 11.8c0 1.539.312 2.984.937 4.347a11.467 11.467 0 0 0 2.59 3.582 12.236 12.236 0 0 0 3.809 2.438c1.445.59 2.984.883 4.617.883Zm0-1.874a10.222 10.222 0 0 1-7.055-2.734 9.548 9.548 0 0 1-2.133-2.989 8.83 8.83 0 0 1-.761-3.652c0-1.301.254-2.52.761-3.649A9.52 9.52 0 0 1 4.946 5.16 9.82 9.82 0 0 1 8.11 3.156c1.204-.488 2.496-.73 3.88-.73 1.382 0 2.675.242 3.878.73a9.701 9.701 0 0 1 3.176 2.004 9.432 9.432 0 0 1 2.145 2.992 8.685 8.685 0 0 1 .773 3.649c0 1.3-.258 2.52-.773 3.652a9.22 9.22 0 0 1-2.133 2.988A10.222 10.222 0 0 1 12 21.176Zm-.012-12.574c.992 0 1.68.058 2.063.168.39.101.586.28.586.539v.144c0 .3.062.547.187.738.125.192.387.305.785.34l2.204.211c.414.043.73.004.949-.12.226-.134.34-.407.34-.829 0-.777-.313-1.43-.938-1.95-.617-.523-1.46-.913-2.531-1.171-1.07-.262-2.285-.395-3.645-.395-1.351 0-2.562.13-3.633.395-1.07.258-1.918.648-2.543 1.172-.617.511-.925 1.16-.925 1.941v.008c0 .422.113.695.34.828.226.125.55.164.972.121l2.18-.21c.406-.036.672-.15.797-.34.125-.192.187-.438.187-.739v-.156c0-.235.211-.406.633-.516.422-.12 1.086-.18 1.992-.18Zm-5.355 5.363h1.09c.437 0 .656-.211.656-.63v-1.05c0-.418-.219-.625-.656-.625h-1.09c-.469 0-.703.207-.703.625v1.05c0 .419.234.63.703.63Zm3.199 0h1.102c.453 0 .68-.211.68-.63v-1.05c0-.418-.227-.625-.68-.625H9.832c-.445 0-.668.207-.668.625v1.05c0 .419.223.63.668.63Zm3.211 0h1.09c.453 0 .68-.211.68-.63v-1.05c0-.418-.227-.625-.68-.625h-1.09c-.453 0-.68.207-.68.625v1.05c0 .419.227.63.68.63Zm3.21 0h1.09c.454 0 .68-.211.68-.63v-1.05c0-.418-.226-.625-.68-.625h-1.09c-.452 0-.679.207-.679.625v1.05c0 .419.227.63.68.63Zm-9.644 3.02h1.102c.445 0 .668-.208.668-.63V15.32c0-.425-.223-.64-.668-.64H6.609c-.453 0-.68.215-.68.64v1.035c0 .422.227.63.68.63Zm3.211 0h4.336c.438 0 .656-.208.656-.63V15.32c0-.425-.218-.64-.656-.64H9.82c-.437 0-.656.215-.656.64v1.035c0 .422.219.63.656.63Zm6.446 0h1.09c.445 0 .667-.208.667-.63V15.32c0-.425-.222-.64-.668-.64h-1.09c-.46 0-.69.215-.69.64v1.035c0 .422.23.63.69.63Zm0 0"/></svg>