<svg width="116" height="116" viewBox="0 0 116 116" fill="none" xmlns="http://www.w3.org/2000/svg">
<path d="M20.5625 115.5H96.375C102.917 115.5 107.812 113.875 111.062 110.625C114.354 107.417 116 102.583 116 96.125V19.8125C116 13.3542 114.354 8.52083 111.062 5.3125C107.812 2.0625 102.917 0.4375 96.375 0.4375H20.5625C14.0208 0.4375 9.10417 2.0625 5.8125 5.3125C2.5625 8.52083 0.9375 13.3542 0.9375 19.8125V96.125C0.9375 102.583 2.5625 107.417 5.8125 110.625C9.10417 113.875 14.0208 115.5 20.5625 115.5ZM35.5 44.0625C35.5 42.9792 35.8333 42.1042 36.5 41.4375C37.2083 40.7292 38.1458 40.375 39.3125 40.375H77.75C78.9167 40.375 79.8333 40.7292 80.5 41.4375C81.1667 42.1042 81.5 42.9792 81.5 44.0625C81.5 45.1875 81.1667 46.1042 80.5 46.8125C79.8333 47.5208 78.9167 47.875 77.75 47.875H62.75V86.125C62.75 87.4583 62.3542 88.5 61.5625 89.25C60.8125 90 59.8125 90.375 58.5625 90.375C57.3542 90.375 56.3542 90 55.5625 89.25C54.7708 88.5 54.375 87.4583 54.375 86.125V47.875H39.3125C38.1458 47.875 37.2083 47.5208 36.5 46.8125C35.8333 46.1042 35.5 45.1875 35.5 44.0625ZM35.375 31.6875C35.375 30.7708 35.6667 30.0208 36.25 29.4375C36.8333 28.8542 37.5833 28.5625 38.5 28.5625H78.5C80.5417 28.5625 81.5625 29.6042 81.5625 31.6875C81.5625 32.6042 81.2708 33.375 80.6875 34C80.1458 34.625 79.4167 34.9375 78.5 34.9375H38.5C37.5833 34.9375 36.8333 34.625 36.25 34C35.6667 33.375 35.375 32.6042 35.375 31.6875Z" fill="white"/>
</svg>
