<svg width="128" height="128" viewBox="0 0 128 128" fill="none" xmlns="http://www.w3.org/2000/svg">
<path d="M63.9375 127.625C72.6458 127.625 80.8333 125.958 88.5 122.625C96.2083 119.292 103 114.688 108.875 108.812C114.75 102.938 119.354 96.1667 122.688 88.5C126.021 80.7917 127.688 72.5833 127.688 63.875C127.688 55.1667 126.021 46.9792 122.688 39.3125C119.354 31.6042 114.75 24.8125 108.875 18.9375C103 13.0625 96.2083 8.45833 88.5 5.125C80.7917 1.79167 72.5833 0.125 63.875 0.125C55.1667 0.125 46.9583 1.79167 39.25 5.125C31.5833 8.45833 24.8125 13.0625 18.9375 18.9375C13.1042 24.8125 8.52083 31.6042 5.1875 39.3125C1.85417 46.9792 0.1875 55.1667 0.1875 63.875C0.1875 72.5833 1.85417 80.7917 5.1875 88.5C8.52083 96.1667 13.125 102.938 19 108.812C24.875 114.688 31.6458 119.292 39.3125 122.625C47.0208 125.958 55.2292 127.625 63.9375 127.625ZM40.9375 50.0625C40.9375 48.9792 41.2708 48.1042 41.9375 47.4375C42.6458 46.7292 43.5833 46.375 44.75 46.375H83.1875C84.3542 46.375 85.2708 46.7292 85.9375 47.4375C86.6042 48.1042 86.9375 48.9792 86.9375 50.0625C86.9375 51.1875 86.6042 52.1042 85.9375 52.8125C85.2708 53.5208 84.3542 53.875 83.1875 53.875H68.1875V92.125C68.1875 93.4583 67.7917 94.5 67 95.25C66.25 96 65.25 96.375 64 96.375C62.7917 96.375 61.7917 96 61 95.25C60.2083 94.5 59.8125 93.4583 59.8125 92.125V53.875H44.75C43.5833 53.875 42.6458 53.5208 41.9375 52.8125C41.2708 52.1042 40.9375 51.1875 40.9375 50.0625ZM40.8125 37.6875C40.8125 36.7708 41.1042 36.0208 41.6875 35.4375C42.2708 34.8542 43.0208 34.5625 43.9375 34.5625H83.9375C85.9792 34.5625 87 35.6042 87 37.6875C87 38.6042 86.7083 39.375 86.125 40C85.5833 40.625 84.8542 40.9375 83.9375 40.9375H43.9375C43.0208 40.9375 42.2708 40.625 41.6875 40C41.1042 39.375 40.8125 38.6042 40.8125 37.6875Z" fill="white"/>
</svg>
