<svg width="16" height="17" viewBox="0 0 16 17" fill="none" xmlns="http://www.w3.org/2000/svg">
<path d="M8 16.3281C9.08854 16.3281 10.112 16.1198 11.0703 15.7031C12.0339 15.2865 12.8828 14.7109 13.6172 13.9766C14.3516 13.2422 14.9271 12.3958 15.3438 11.4375C15.7604 10.474 15.9688 9.44792 15.9688 8.35938C15.9688 7.27083 15.7604 6.2474 15.3438 5.28906C14.9271 4.32552 14.3516 3.47656 13.6172 2.74219C12.8828 2.00781 12.0339 1.43229 11.0703 1.01562C10.1068 0.598958 9.08073 0.390625 7.99219 0.390625C6.90365 0.390625 5.8776 0.598958 4.91406 1.01562C3.95573 1.43229 3.10938 2.00781 2.375 2.74219C1.64583 3.47656 1.07292 4.32552 0.65625 5.28906C0.239583 6.2474 0.03125 7.27083 0.03125 8.35938C0.03125 9.44792 0.239583 10.474 0.65625 11.4375C1.07292 12.3958 1.64844 13.2422 2.38281 13.9766C3.11719 14.7109 3.96354 15.2865 4.92188 15.7031C5.88542 16.1198 6.91146 16.3281 8 16.3281ZM8 15C7.07812 15 6.21615 14.8281 5.41406 14.4844C4.61198 14.1406 3.90625 13.6667 3.29688 13.0625C2.69271 12.4531 2.21875 11.7474 1.875 10.9453C1.53646 10.1432 1.36719 9.28125 1.36719 8.35938C1.36719 7.4375 1.53646 6.57552 1.875 5.77344C2.21875 4.97135 2.69271 4.26562 3.29688 3.65625C3.90104 3.04688 4.60417 2.57292 5.40625 2.23438C6.20833 1.89062 7.07031 1.71875 7.99219 1.71875C8.91406 1.71875 9.77604 1.89062 10.5781 2.23438C11.3854 2.57292 12.0911 3.04688 12.6953 3.65625C13.3047 4.26562 13.7812 4.97135 14.125 5.77344C14.4688 6.57552 14.6406 7.4375 14.6406 8.35938C14.6406 9.28125 14.4688 10.1432 14.125 10.9453C13.7865 11.7474 13.3125 12.4531 12.7031 13.0625C12.0938 13.6667 11.388 14.1406 10.5859 14.4844C9.78385 14.8281 8.92188 15 8 15ZM11.6641 4.66406C11.3255 4.33073 10.9245 4.1224 10.4609 4.03906C10.0026 3.95052 9.53385 3.98438 9.05469 4.14062C8.57552 4.29688 8.14323 4.5651 7.75781 4.94531C7.42448 5.28385 7.18229 5.65885 7.03125 6.07031C6.88542 6.47656 6.8099 6.88281 6.80469 7.28906C6.79948 7.69531 6.77083 8.05469 6.71875 8.36719C6.66667 8.67969 6.55208 8.98698 6.375 9.28906C6.19792 9.59115 5.91927 9.92708 5.53906 10.2969L6.03125 10.7812C6.40104 10.4062 6.73438 10.1328 7.03125 9.96094C7.33333 9.78385 7.64062 9.66927 7.95312 9.61719C8.26562 9.5651 8.6224 9.53385 9.02344 9.52344C9.4401 9.50781 9.85156 9.42969 10.2578 9.28906C10.6641 9.14323 11.0365 8.90104 11.375 8.5625C11.7604 8.17188 12.0286 7.73698 12.1797 7.25781C12.3359 6.77865 12.3724 6.3099 12.2891 5.85156C12.2057 5.39323 11.9974 4.9974 11.6641 4.66406ZM11.1719 5.14844C11.4219 5.39844 11.5755 5.69531 11.6328 6.03906C11.6901 6.3776 11.6562 6.72656 11.5312 7.08594C11.4062 7.4401 11.1901 7.76823 10.8828 8.07031C10.5755 8.3776 10.2422 8.59375 9.88281 8.71875C9.52865 8.84375 9.18229 8.8776 8.84375 8.82031C8.50521 8.76302 8.21094 8.60938 7.96094 8.35938C7.71094 8.10938 7.55729 7.8151 7.5 7.47656C7.44271 7.13802 7.47656 6.79167 7.60156 6.4375C7.73177 6.07812 7.95052 5.74479 8.25781 5.4375C8.5599 5.13021 8.88802 4.91406 9.24219 4.78906C9.60156 4.66406 9.95052 4.63021 10.2891 4.6875C10.6276 4.74479 10.9219 4.89844 11.1719 5.14844ZM3.82812 12.2188L4.08594 12.4922C4.17969 12.5859 4.28906 12.6328 4.41406 12.6328C4.53906 12.6328 4.64844 12.5859 4.74219 12.4922L6.28906 10.9375C6.38281 10.8385 6.42969 10.7318 6.42969 10.6172C6.42969 10.4974 6.38281 10.388 6.28906 10.2891L6.02344 10.0234C5.92969 9.92969 5.82031 9.88281 5.69531 9.88281C5.57552 9.88281 5.47135 9.92969 5.38281 10.0234L3.82812 11.5859C3.73438 11.6797 3.6875 11.7865 3.6875 11.9062C3.6875 12.0208 3.73438 12.125 3.82812 12.2188ZM11.4141 7.89062L11.8047 7.48438L8.88281 4.55469L8.47656 4.95312L11.4141 7.89062ZM10.3125 8.97656L10.7188 8.59375L7.78125 5.65625L7.39062 6.04688L10.3125 8.97656ZM7.35156 7.57812L7.60156 8.13281L10.8906 4.83594L10.4141 4.52344L7.35156 7.57812ZM8.3125 8.75L8.82031 9.01562L11.8516 5.99219L11.5312 5.50781L8.3125 8.75Z" fill="white"/>
</svg>
