<svg width="16" height="17" viewBox="0 0 16 17" fill="none" xmlns="http://www.w3.org/2000/svg">
<path d="M8 16.3281C9.08854 16.3281 10.112 16.1198 11.0703 15.7031C12.0339 15.2865 12.8828 14.7109 13.6172 13.9766C14.3516 13.2422 14.9271 12.3958 15.3438 11.4375C15.7604 10.474 15.9688 9.44792 15.9688 8.35938C15.9688 7.27083 15.7604 6.2474 15.3438 5.28906C14.9271 4.32552 14.3516 3.47656 13.6172 2.74219C12.8828 2.00781 12.0339 1.43229 11.0703 1.01562C10.1068 0.598958 9.08073 0.390625 7.99219 0.390625C6.90365 0.390625 5.8776 0.598958 4.91406 1.01562C3.95573 1.43229 3.10938 2.00781 2.375 2.74219C1.64583 3.47656 1.07292 4.32552 0.65625 5.28906C0.239583 6.2474 0.03125 7.27083 0.03125 8.35938C0.03125 9.44792 0.239583 10.474 0.65625 11.4375C1.07292 12.3958 1.64844 13.2422 2.38281 13.9766C3.11719 14.7109 3.96354 15.2865 4.92188 15.7031C5.88542 16.1198 6.91146 16.3281 8 16.3281ZM11.7734 4.55469C12.1224 4.89844 12.3385 5.30729 12.4219 5.78125C12.5104 6.25521 12.474 6.73958 12.3125 7.23438C12.1562 7.72396 11.8802 8.16927 11.4844 8.57031C11.1354 8.91406 10.75 9.16146 10.3281 9.3125C9.91146 9.46354 9.48958 9.54688 9.0625 9.5625C8.69271 9.57292 8.36198 9.59896 8.07031 9.64062C7.77865 9.67708 7.4974 9.76302 7.22656 9.89844C6.95573 10.0286 6.66146 10.2318 6.34375 10.5078C6.42708 10.6901 6.39062 10.8594 6.23438 11.0156L4.64062 12.6172C4.54688 12.7109 4.4349 12.7578 4.30469 12.7578C4.17969 12.7578 4.07031 12.7109 3.97656 12.6172L3.70312 12.3359C3.60938 12.237 3.5625 12.1276 3.5625 12.0078C3.5625 11.888 3.60938 11.7812 3.70312 11.6875L5.30469 10.0781C5.46615 9.91146 5.64323 9.88021 5.83594 9.98438C6.11198 9.66667 6.3151 9.3724 6.44531 9.10156C6.57552 8.82552 6.66146 8.54167 6.70312 8.25C6.74479 7.95833 6.76823 7.6276 6.77344 7.25781C6.77344 6.83594 6.85156 6.41667 7.00781 6C7.16927 5.57812 7.41927 5.19271 7.75781 4.84375C8.15365 4.44792 8.59896 4.17188 9.09375 4.01562C9.58854 3.85417 10.0729 3.81771 10.5469 3.90625C11.0208 3.99479 11.4297 4.21094 11.7734 4.55469ZM9.19531 4.72656L9.6875 5.21094L10.3281 4.57812C9.95833 4.51562 9.58073 4.5651 9.19531 4.72656ZM10.0938 5.625L10.7656 6.29688L11.5781 5.47656C11.5 5.32552 11.3958 5.1849 11.2656 5.05469C11.1562 4.94531 11.0443 4.85677 10.9297 4.78906L10.0938 5.625ZM11.1797 6.71094L11.6094 7.14062C11.75 6.79167 11.7995 6.45573 11.7578 6.13281L11.1797 6.71094ZM7.94531 5.72656L8.5625 6.33594L9.28125 5.625L8.67188 5.02344C8.52604 5.1224 8.39323 5.23177 8.27344 5.35156C8.21094 5.41406 8.15104 5.47656 8.09375 5.53906C8.04167 5.60156 7.99219 5.66406 7.94531 5.72656ZM8.96875 6.75L9.64844 7.42969L10.3672 6.71094L9.6875 6.03906L8.96875 6.75ZM10.0547 7.83594L10.6016 8.38281C10.6641 8.33594 10.7266 8.28646 10.7891 8.23438C10.8516 8.18229 10.9141 8.125 10.9766 8.0625C11.0391 8 11.099 7.9349 11.1562 7.86719C11.2135 7.79948 11.2656 7.73177 11.3125 7.66406L10.7734 7.11719L10.0547 7.83594ZM7.49219 7.41406L8.14844 6.75L7.65625 6.25781C7.47917 6.64323 7.42448 7.02865 7.49219 7.41406ZM7.70312 8.01562C7.76042 8.125 7.84896 8.23958 7.96875 8.35938C8.08854 8.48438 8.23438 8.58854 8.40625 8.67188L9.23438 7.83594L8.5625 7.15625L7.70312 8.01562ZM9.04688 8.84375C9.36979 8.88542 9.71354 8.83073 10.0781 8.67969L9.64844 8.24219L9.04688 8.84375Z" fill="white"/>
</svg>
