<svg xmlns="http://www.w3.org/2000/svg" width="24" height="24"><path style="stroke:none;fill-rule:nonzero;fill:#fff;fill-opacity:1" d="M4.977 9.938a.816.816 0 0 0-.317.55c-.027.219.004.442.094.625.086.188.21.32.375.387.16.059.344.004.543-.16l2.7-2.25c.171-.133.296-.348.347-.602a1.623 1.623 0 0 0-.008-.75 1.05 1.05 0 0 0-.34-.586l-2.7-2.25c-.198-.168-.382-.218-.554-.152a.666.666 0 0 0-.375.375 1.25 1.25 0 0 0-.082.625.852.852 0 0 0 .317.55l2.261 1.813Zm3.957 1.386a.924.924 0 0 0 .171.57c.114.153.27.239.43.231h3.57c.16.004.313-.082.422-.238a.882.882 0 0 0 .18-.563.908.908 0 0 0-.18-.574.52.52 0 0 0-.422-.242h-3.57a.54.54 0 0 0-.433.242.996.996 0 0 0-.168.574ZM3.89 23.285h16.218c.989 0 1.727-.324 2.211-.973.489-.64.735-1.605.735-2.886V4.152c0-1.289-.246-2.25-.735-2.902-.484-.652-1.222-.973-2.21-.973H3.89c-.98 0-1.718.32-2.21.973-.489.64-.735 1.61-.735 2.902v15.274c0 1.281.246 2.246.735 2.887.492.652 1.23.972 2.21.972Zm.02-2.012c-.47 0-.829-.16-1.079-.488-.25-.332-.375-.824-.375-1.473V4.262c0-.649.125-1.14.375-1.477.25-.332.61-.5 1.078-.5h16.18c.465 0 .82.168 1.07.5.254.336.383.828.383 1.477v15.05c0 .653-.129 1.141-.383 1.473-.25.328-.605.492-1.07.492Zm0 0"/></svg>