<svg width="127" height="109" viewBox="0 0 127 109" fill="none" xmlns="http://www.w3.org/2000/svg">
<path d="M5.625 10.3125H122.062C123.396 10.3125 124.521 9.85417 125.438 8.9375C126.396 8.02083 126.875 6.89583 126.875 5.5625C126.875 4.27083 126.396 3.16667 125.438 2.25C124.521 1.33333 123.396 0.875 122.062 0.875H5.625C4.33333 0.875 3.22917 1.33333 2.3125 2.25C1.39583 3.16667 0.9375 4.27083 0.9375 5.5625C0.9375 6.89583 1.39583 8.02083 2.3125 8.9375C3.22917 9.85417 4.33333 10.3125 5.625 10.3125ZM28.75 43.0625H99C100.333 43.0625 101.458 42.6042 102.375 41.6875C103.292 40.7708 103.75 39.6458 103.75 38.3125C103.75 36.9792 103.292 35.875 102.375 35C101.458 34.0833 100.333 33.625 99 33.625H28.75C27.4167 33.625 26.2917 34.0833 25.375 35C24.4583 35.875 24 36.9792 24 38.3125C24 39.6458 24.4583 40.7708 25.375 41.6875C26.2917 42.6042 27.4167 43.0625 28.75 43.0625ZM5.625 75.8125H122.062C123.396 75.8125 124.521 75.3542 125.438 74.4375C126.396 73.5208 126.875 72.3958 126.875 71.0625C126.875 69.7292 126.396 68.625 125.438 67.75C124.521 66.8333 123.396 66.375 122.062 66.375H5.625C4.33333 66.375 3.22917 66.8333 2.3125 67.75C1.39583 68.625 0.9375 69.7292 0.9375 71.0625C0.9375 72.3958 1.39583 73.5208 2.3125 74.4375C3.22917 75.3542 4.33333 75.8125 5.625 75.8125ZM28.75 108.5H99C100.333 108.5 101.458 108.042 102.375 107.125C103.292 106.25 103.75 105.146 103.75 103.812C103.75 102.479 103.292 101.354 102.375 100.438C101.458 99.5208 100.333 99.0625 99 99.0625H28.75C27.4167 99.0625 26.2917 99.5208 25.375 100.438C24.4583 101.354 24 102.479 24 103.812C24 105.146 24.4583 106.25 25.375 107.125C26.2917 108.042 27.4167 108.5 28.75 108.5Z" fill="white"/>
</svg>
