<svg width="166" height="122" viewBox="0 0 166 122" fill="none" xmlns="http://www.w3.org/2000/svg">
<path d="M44.625 9.75H161.062C162.354 9.75 163.458 9.29167 164.375 8.375C165.333 7.45833 165.812 6.35417 165.812 5.0625C165.812 3.72917 165.333 2.60417 164.375 1.6875C163.458 0.770833 162.354 0.3125 161.062 0.3125H44.625C43.2917 0.3125 42.1667 0.770833 41.25 1.6875C40.375 2.60417 39.9375 3.72917 39.9375 5.0625C39.9375 6.35417 40.375 7.45833 41.25 8.375C42.1667 9.29167 43.2917 9.75 44.625 9.75ZM44.625 41.875H161.062C162.354 41.875 163.458 41.4167 164.375 40.5C165.333 39.5833 165.812 38.4792 165.812 37.1875C165.812 35.8542 165.333 34.7292 164.375 33.8125C163.458 32.8958 162.354 32.4375 161.062 32.4375H44.625C43.2917 32.4375 42.1667 32.8958 41.25 33.8125C40.375 34.7292 39.9375 35.8542 39.9375 37.1875C39.9375 38.4792 40.375 39.5833 41.25 40.5C42.1667 41.4167 43.2917 41.875 44.625 41.875ZM44.625 74H161.062C162.354 74 163.458 73.5417 164.375 72.625C165.333 71.7083 165.812 70.6042 165.812 69.3125C165.812 67.9792 165.333 66.8542 164.375 65.9375C163.458 65.0208 162.354 64.5625 161.062 64.5625H44.625C43.2917 64.5625 42.1667 65.0208 41.25 65.9375C40.375 66.8542 39.9375 67.9792 39.9375 69.3125C39.9375 70.6042 40.375 71.7083 41.25 72.625C42.1667 73.5417 43.2917 74 44.625 74ZM47.8125 113.438H157.938C160.562 113.438 162.521 112.792 163.812 111.5C165.146 110.208 165.812 108.271 165.812 105.688V101.062C165.812 98.4375 165.146 96.4792 163.812 95.1875C162.521 93.8542 160.562 93.1875 157.938 93.1875H47.8125C45.1875 93.1875 43.2083 93.8542 41.875 95.1875C40.5833 96.4792 39.9375 98.4375 39.9375 101.062V105.688C39.9375 108.271 40.5833 110.208 41.875 111.5C43.2083 112.792 45.1875 113.438 47.8125 113.438ZM7.0625 119.875L27.9375 107.188C29.5625 106.229 30.375 104.958 30.375 103.375C30.4167 101.792 29.6042 100.521 27.9375 99.5625L7.0625 86.875C5.4375 85.8333 3.9375 85.6667 2.5625 86.375C1.1875 87.0417 0.5 88.3542 0.5 90.3125V116.375C0.5 118.292 1.1875 119.604 2.5625 120.312C3.89583 121.021 5.39583 120.875 7.0625 119.875Z" fill="white"/>
</svg>
