<svg xmlns="http://www.w3.org/2000/svg" width="24" height="24"><path style="stroke:none;fill-rule:nonzero;fill:#fff;fill-opacity:1" d="M2.195 22.387c.5 0 .887-.086 1.16-.246.278-.164.5-.45.676-.852l2.418-5.094h11.063l2.418 5.094c.175.402.402.688.675.852.278.16.657.246 1.145.246.5 0 .895-.11 1.18-.32.3-.212.453-.497.453-.864 0-.223-.07-.48-.207-.777L14.383 2.41c-.227-.445-.531-.777-.922-.996-.387-.223-.879-.332-1.48-.332-1.16 0-1.95.438-2.364 1.313L.824 20.438c-.136.296-.207.558-.207.78 0 .364.14.653.414.864.29.203.676.305 1.164.305Zm5.172-8.383 4.559-9.707h.094l4.554 9.707Zm0 0"/></svg>