<svg width="16" height="17" viewBox="0 0 16 17" fill="none" xmlns="http://www.w3.org/2000/svg">
<path d="M3.82031 5.36719C3.82031 5.51302 3.8724 5.63802 3.97656 5.74219C4.08073 5.84115 4.20573 5.89062 4.35156 5.89062H11.6484C11.7943 5.89062 11.9193 5.84115 12.0234 5.74219C12.1276 5.63802 12.1797 5.51302 12.1797 5.36719C12.1797 5.22135 12.1276 5.09635 12.0234 4.99219C11.9193 4.88802 11.7943 4.83594 11.6484 4.83594H4.35156C4.20573 4.83594 4.08073 4.88802 3.97656 4.99219C3.8724 5.09635 3.82031 5.22135 3.82031 5.36719ZM3.82031 8.36719C3.82031 8.51302 3.8724 8.63802 3.97656 8.74219C4.08073 8.84115 4.20573 8.89062 4.35156 8.89062H11.6484C11.7943 8.89062 11.9193 8.84115 12.0234 8.74219C12.1276 8.63802 12.1797 8.51302 12.1797 8.36719C12.1797 8.22135 12.1276 8.09635 12.0234 7.99219C11.9193 7.88802 11.7943 7.83594 11.6484 7.83594H4.35156C4.20573 7.83594 4.08073 7.88802 3.97656 7.99219C3.8724 8.09635 3.82031 8.22135 3.82031 8.36719ZM3.82031 11.3672C3.82031 11.513 3.8724 11.638 3.97656 11.7422C4.08073 11.8464 4.20573 11.8984 4.35156 11.8984H9.14844C9.29427 11.8984 9.41927 11.8464 9.52344 11.7422C9.6276 11.638 9.67969 11.513 9.67969 11.3672C9.67969 11.2214 9.6276 11.099 9.52344 11C9.41927 10.8958 9.29427 10.8438 9.14844 10.8438H4.35156C4.20573 10.8438 4.08073 10.8958 3.97656 11C3.8724 11.099 3.82031 11.2214 3.82031 11.3672ZM0.976562 5.69531C1.39844 5.69531 1.60938 5.48177 1.60938 5.05469V3.21094C1.60938 2.80469 1.71354 2.5 1.92188 2.29688C2.13021 2.08854 2.42969 1.98438 2.82031 1.98438H4.71094C5.13802 1.98438 5.35156 1.77344 5.35156 1.35156C5.35156 0.934896 5.13802 0.726562 4.71094 0.726562H2.80469C1.98698 0.726562 1.3724 0.929688 0.960938 1.33594C0.554688 1.73698 0.351562 2.33854 0.351562 3.14062V5.05469C0.351562 5.48177 0.559896 5.69531 0.976562 5.69531ZM15.0156 5.69531C15.4375 5.69531 15.6484 5.48177 15.6484 5.05469V3.14062C15.6484 2.33854 15.4427 1.73698 15.0312 1.33594C14.625 0.929688 14.013 0.726562 13.1953 0.726562H11.2812C10.8594 0.726562 10.6484 0.934896 10.6484 1.35156C10.6484 1.77344 10.8594 1.98438 11.2812 1.98438H13.1719C13.5573 1.98438 13.8568 2.08854 14.0703 2.29688C14.2839 2.5 14.3906 2.80469 14.3906 3.21094V5.05469C14.3906 5.48177 14.599 5.69531 15.0156 5.69531ZM2.80469 16.0156H4.71094C5.13802 16.0156 5.35156 15.8073 5.35156 15.3906C5.35156 14.9688 5.13802 14.7578 4.71094 14.7578H2.82031C2.42969 14.7578 2.13021 14.6536 1.92188 14.4453C1.71354 14.2422 1.60938 13.9375 1.60938 13.5312V11.6875C1.60938 11.2604 1.39844 11.0469 0.976562 11.0469C0.559896 11.0469 0.351562 11.2604 0.351562 11.6875V13.5938C0.351562 14.401 0.554688 15.0052 0.960938 15.4062C1.3724 15.8125 1.98698 16.0156 2.80469 16.0156ZM11.2812 16.0156H13.1953C14.013 16.0156 14.625 15.8125 15.0312 15.4062C15.4427 15.0052 15.6484 14.401 15.6484 13.5938V11.6875C15.6484 11.2604 15.4375 11.0469 15.0156 11.0469C14.599 11.0469 14.3906 11.2604 14.3906 11.6875V13.5312C14.3906 13.9375 14.2839 14.2422 14.0703 14.4453C13.8568 14.6536 13.5573 14.7578 13.1719 14.7578H11.2812C10.8594 14.7578 10.6484 14.9688 10.6484 15.3906C10.6484 15.8073 10.8594 16.0156 11.2812 16.0156Z" fill="white"/>
</svg>
