<svg width="10" height="13" viewBox="0 0 10 13" fill="none" xmlns="http://www.w3.org/2000/svg">
<path d="M0.914062 12.125C1.1224 12.125 1.28385 12.0807 1.39844 11.9922C1.51302 11.9036 1.60677 11.75 1.67969 11.5312L2.6875 8.77344H7.29688L8.30469 11.5312C8.3776 11.75 8.47135 11.9036 8.58594 11.9922C8.70052 12.0807 8.85938 12.125 9.0625 12.125C9.27083 12.125 9.4349 12.0677 9.55469 11.9531C9.67969 11.8385 9.74219 11.6823 9.74219 11.4844C9.74219 11.3646 9.71354 11.224 9.65625 11.0625L5.99219 1.30469C5.89844 1.0651 5.77083 0.885417 5.60938 0.765625C5.44792 0.645833 5.24219 0.585938 4.99219 0.585938C4.50781 0.585938 4.17969 0.822917 4.00781 1.29688L0.34375 11.0703C0.286458 11.2318 0.257812 11.3724 0.257812 11.4922C0.257812 11.6901 0.315104 11.8464 0.429688 11.9609C0.549479 12.0703 0.710938 12.125 0.914062 12.125ZM3.07031 7.58594L4.96875 2.32812H5.00781L6.90625 7.58594H3.07031Z" fill="white"/>
</svg>
