<svg xmlns="http://www.w3.org/2000/svg" width="24" height="24"><path style="stroke:none;fill-rule:nonzero;fill:#fff;fill-opacity:1" d="M12.094 22.387c.277 0 .492-.082.644-.25.153-.16.278-.442.375-.848l1.344-5.09h6.148l1.344 5.09c.098.406.223.688.375.848.153.168.363.25.633.25a.79.79 0 0 0 .656-.317c.168-.215.25-.5.25-.867 0-.223-.035-.48-.113-.781L18.863 2.406c-.125-.437-.293-.773-.508-.992a1.098 1.098 0 0 0-.824-.332c-.644 0-1.082.438-1.312 1.316l-4.887 18.04a3.46 3.46 0 0 0-.113.78c0 .364.078.657.23.864.16.203.375.305.645.305Zm2.875-8.383L17.5 4.3h.05l2.532 9.703ZM1 22.344c.215 0 .39-.082.531-.23.145-.165.262-.427.344-.782l.863-3.531h4.074l.864 3.531c.086.367.199.629.344.781.16.157.347.239.543.23a.78.78 0 0 0 .636-.304c.16-.203.246-.492.239-.793 0-.148-.016-.281-.043-.418-.02-.152-.051-.3-.094-.45L6.062 8.466c-.117-.438-.289-.774-.511-.996-.223-.235-.5-.356-.781-.344-.297 0-.555.113-.77.336-.215.207-.387.543-.512 1.004L.25 20.383a2.543 2.543 0 0 0-.094.43c-.015.148-.02.289-.02.433 0 .336.075.606.227.809.16.191.371.289.637.289Zm2.2-6.422L4.655 9.91h.239l1.46 6.012Zm0 0"/></svg>