<?xml version="1.0" encoding="UTF-8"?>
<svg xmlns="http://www.w3.org/2000/svg" xmlns:xlink="http://www.w3.org/1999/xlink" width="24" height="22.5" viewBox="0 0 24 22.5" version="1.1">
<g id="surface1">
<path style=" stroke:none;fill-rule:nonzero;fill:rgb(100%,100%,100%);fill-opacity:1;" d="M 16.289062 2.683594 L 22.898438 2.683594 C 23.148438 2.683594 23.359375 2.597656 23.53125 2.425781 C 23.710938 2.253906 23.800781 2.042969 23.800781 1.792969 C 23.800781 1.550781 23.710938 1.34375 23.53125 1.171875 C 23.359375 1 23.148438 0.914062 22.898438 0.914062 L 16.289062 0.914062 C 16.039062 0.914062 15.828125 1 15.65625 1.171875 C 15.492188 1.34375 15.410156 1.550781 15.410156 1.792969 C 15.410156 2.042969 15.492188 2.253906 15.65625 2.425781 C 15.828125 2.597656 16.039062 2.683594 16.289062 2.683594 Z M 16.289062 8.824219 L 22.898438 8.824219 C 23.148438 8.824219 23.359375 8.738281 23.53125 8.566406 C 23.710938 8.394531 23.800781 8.183594 23.800781 7.933594 C 23.800781 7.683594 23.710938 7.476562 23.53125 7.3125 C 23.359375 7.140625 23.148438 7.054688 22.898438 7.054688 L 16.289062 7.054688 C 16.039062 7.054688 15.828125 7.140625 15.65625 7.3125 C 15.492188 7.476562 15.410156 7.683594 15.410156 7.933594 C 15.410156 8.183594 15.492188 8.394531 15.65625 8.566406 C 15.828125 8.738281 16.039062 8.824219 16.289062 8.824219 Z M 1.066406 14.964844 L 22.898438 14.964844 C 23.148438 14.964844 23.359375 14.878906 23.53125 14.707031 C 23.710938 14.535156 23.800781 14.324219 23.800781 14.074219 C 23.800781 13.824219 23.710938 13.617188 23.53125 13.453125 C 23.359375 13.28125 23.148438 13.195312 22.898438 13.195312 L 1.066406 13.195312 C 0.824219 13.195312 0.617188 13.28125 0.445312 13.453125 C 0.273438 13.617188 0.1875 13.824219 0.1875 14.074219 C 0.1875 14.324219 0.273438 14.535156 0.445312 14.707031 C 0.617188 14.878906 0.824219 14.964844 1.066406 14.964844 Z M 1.066406 21.09375 L 22.898438 21.09375 C 23.148438 21.09375 23.359375 21.007812 23.53125 20.835938 C 23.710938 20.671875 23.800781 20.464844 23.800781 20.214844 C 23.800781 19.964844 23.710938 19.753906 23.53125 19.582031 C 23.359375 19.410156 23.148438 19.324219 22.898438 19.324219 L 1.066406 19.324219 C 0.824219 19.324219 0.617188 19.410156 0.445312 19.582031 C 0.273438 19.753906 0.1875 19.964844 0.1875 20.214844 C 0.1875 20.464844 0.273438 20.671875 0.445312 20.835938 C 0.617188 21.007812 0.824219 21.09375 1.066406 21.09375 Z M 3.421875 9.585938 C 3.914062 9.585938 4.367188 9.480469 4.78125 9.269531 C 5.195312 9.058594 5.523438 8.761719 5.765625 8.378906 C 6.015625 7.988281 6.140625 7.53125 6.140625 7.007812 C 6.140625 6.257812 5.910156 5.65625 5.449219 5.203125 C 4.996094 4.75 4.421875 4.523438 3.726562 4.523438 C 3.242188 4.523438 2.835938 4.652344 2.507812 4.910156 C 2.179688 5.160156 1.957031 5.539062 1.839844 6.046875 L 2.027344 6.070312 C 2.066406 5.382812 2.234375 4.777344 2.53125 4.253906 C 2.828125 3.730469 3.226562 3.316406 3.726562 3.011719 C 4.226562 2.707031 4.800781 2.539062 5.449219 2.507812 C 5.667969 2.5 5.851562 2.421875 6 2.273438 C 6.148438 2.125 6.222656 1.941406 6.222656 1.722656 C 6.222656 1.457031 6.125 1.253906 5.929688 1.113281 C 5.734375 0.972656 5.492188 0.902344 5.203125 0.902344 C 4.320312 0.902344 3.5 1.132812 2.742188 1.59375 C 1.992188 2.046875 1.382812 2.667969 0.914062 3.457031 C 0.453125 4.246094 0.222656 5.132812 0.222656 6.117188 C 0.222656 7.171875 0.53125 8.015625 1.148438 8.648438 C 1.773438 9.273438 2.53125 9.585938 3.421875 9.585938 Z M 10.59375 9.585938 C 11.085938 9.585938 11.539062 9.480469 11.953125 9.269531 C 12.367188 9.058594 12.699219 8.761719 12.949219 8.378906 C 13.199219 7.988281 13.324219 7.53125 13.324219 7.007812 C 13.324219 6.257812 13.09375 5.65625 12.632812 5.203125 C 12.179688 4.75 11.601562 4.523438 10.898438 4.523438 C 10.421875 4.523438 10.015625 4.652344 9.679688 4.910156 C 9.351562 5.160156 9.128906 5.539062 9.011719 6.046875 L 9.199219 6.070312 C 9.238281 5.382812 9.40625 4.777344 9.703125 4.253906 C 10 3.722656 10.398438 3.308594 10.898438 3.011719 C 11.398438 2.707031 11.96875 2.539062 12.609375 2.507812 C 12.84375 2.5 13.035156 2.421875 13.183594 2.273438 C 13.332031 2.125 13.40625 1.941406 13.40625 1.722656 C 13.40625 1.457031 13.308594 1.253906 13.113281 1.113281 C 12.917969 0.972656 12.671875 0.902344 12.375 0.902344 C 11.5 0.902344 10.683594 1.132812 9.925781 1.59375 C 9.167969 2.046875 8.554688 2.667969 8.085938 3.457031 C 7.625 4.246094 7.394531 5.132812 7.394531 6.117188 C 7.394531 7.171875 7.703125 8.015625 8.320312 8.648438 C 8.945312 9.273438 9.703125 9.585938 10.59375 9.585938 Z M 10.59375 9.585938 "/>
</g>
</svg>
