<svg width="77" height="93" viewBox="0 0 77 93" fill="none" xmlns="http://www.w3.org/2000/svg">
<path d="M6.1875 93C7.85417 93 9.14583 92.6458 10.0625 91.9375C10.9792 91.2292 11.7292 90 12.3125 88.25L20.375 66.1875H57.25L65.3125 88.25C65.8958 90 66.6458 91.2292 67.5625 91.9375C68.4792 92.6458 69.75 93 71.375 93C73.0417 93 74.3542 92.5417 75.3125 91.625C76.3125 90.7083 76.8125 89.4583 76.8125 87.875C76.8125 86.9167 76.5833 85.7917 76.125 84.5L46.8125 6.4375C46.0625 4.52083 45.0417 3.08333 43.75 2.125C42.4583 1.16667 40.8125 0.6875 38.8125 0.6875C34.9375 0.6875 32.3125 2.58333 30.9375 6.375L1.625 84.5625C1.16667 85.8542 0.9375 86.9792 0.9375 87.9375C0.9375 89.5208 1.39583 90.7708 2.3125 91.6875C3.27083 92.5625 4.5625 93 6.1875 93ZM23.4375 56.6875L38.625 14.625H38.9375L54.125 56.6875H23.4375Z" fill="white"/>
</svg>
