<svg width="16" height="15" viewBox="0 0 16 15" fill="none" xmlns="http://www.w3.org/2000/svg">
<path d="M0.710938 1.84375H15.2656C15.4323 1.84375 15.5729 1.78646 15.6875 1.67188C15.8073 1.55729 15.8672 1.41667 15.8672 1.25C15.8672 1.08333 15.8073 0.945312 15.6875 0.835938C15.5729 0.721354 15.4323 0.664062 15.2656 0.664062H0.710938C0.549479 0.664062 0.411458 0.721354 0.296875 0.835938C0.182292 0.945312 0.125 1.08333 0.125 1.25C0.125 1.41667 0.182292 1.55729 0.296875 1.67188C0.411458 1.78646 0.549479 1.84375 0.710938 1.84375ZM0.710938 5.92969H15.2656C15.4323 5.92969 15.5729 5.875 15.6875 5.76562C15.8073 5.65104 15.8672 5.51042 15.8672 5.34375C15.8672 5.17708 15.8073 5.03646 15.6875 4.92188C15.5729 4.80729 15.4323 4.75 15.2656 4.75H0.710938C0.549479 4.75 0.411458 4.80729 0.296875 4.92188C0.182292 5.03646 0.125 5.17708 0.125 5.34375C0.125 5.51042 0.182292 5.65104 0.296875 5.76562C0.411458 5.875 0.549479 5.92969 0.710938 5.92969ZM9.92188 10.0234H15.2656C15.4323 10.0234 15.5729 9.96875 15.6875 9.85938C15.8073 9.74479 15.8672 9.60417 15.8672 9.4375C15.8672 9.27083 15.8073 9.13021 15.6875 9.01562C15.5729 8.90104 15.4323 8.84375 15.2656 8.84375H9.92188C9.76042 8.84375 9.6224 8.90104 9.50781 9.01562C9.39323 9.13021 9.33594 9.27083 9.33594 9.4375C9.33594 9.60417 9.39323 9.74479 9.50781 9.85938C9.6224 9.96875 9.76042 10.0234 9.92188 10.0234ZM9.92188 14.1172H15.2656C15.4323 14.1172 15.5729 14.0599 15.6875 13.9453C15.8073 13.8307 15.8672 13.6927 15.8672 13.5312C15.8672 13.3646 15.8073 13.224 15.6875 13.1094C15.5729 12.9948 15.4323 12.9375 15.2656 12.9375H9.92188C9.76042 12.9375 9.6224 12.9948 9.50781 13.1094C9.39323 13.224 9.33594 13.3646 9.33594 13.5312C9.33594 13.6927 9.39323 13.8307 9.50781 13.9453C9.6224 14.0599 9.76042 14.1172 9.92188 14.1172ZM0.132812 8.77344V10.5469C0.132812 11.099 0.309896 11.5339 0.664062 11.8516C1.01823 12.1693 1.46875 12.3281 2.01562 12.3281H4.32031V13.1406C4.32031 13.3542 4.3776 13.5182 4.49219 13.6328C4.60677 13.7526 4.7474 13.8125 4.91406 13.8125C5.08594 13.8177 5.2526 13.7552 5.41406 13.625L7.53125 11.9297C7.69271 11.7995 7.77344 11.6406 7.77344 11.4531C7.77344 11.2604 7.69271 11.1016 7.53125 10.9766L5.41406 9.28906C5.25781 9.15885 5.09375 9.09635 4.92188 9.10156C4.75521 9.10677 4.61198 9.16667 4.49219 9.28125C4.3776 9.39583 4.32031 9.55469 4.32031 9.75781V10.5391H2.1875C2.01042 10.5391 1.92188 10.4505 1.92188 10.2734V8.77344C1.92188 8.46094 1.84375 8.21354 1.6875 8.03125C1.53125 7.84375 1.3125 7.75 1.03125 7.75C0.744792 7.75 0.523438 7.84375 0.367188 8.03125C0.210938 8.21354 0.132812 8.46094 0.132812 8.77344Z" fill="white"/>
</svg>
