<svg xmlns="http://www.w3.org/2000/svg" width="24" height="24"><path style="stroke:none;fill-rule:nonzero;fill:#fff;fill-opacity:1" d="M1.066 2.863h13.172a.833.833 0 0 0 .633-.277.958.958 0 0 0 .258-.672.933.933 0 0 0-.258-.664.83.83 0 0 0-.633-.273H1.066a.819.819 0 0 0-.62.273.933.933 0 0 0-.259.664c0 .266.086.488.258.672.164.18.387.281.621.277Zm16.676 0h5.156a.833.833 0 0 0 .633-.277.922.922 0 0 0 .27-.672c0-.258-.09-.48-.27-.664a.83.83 0 0 0-.633-.273h-5.156a.818.818 0 0 0-.62.273.933.933 0 0 0-.259.664c0 .266.086.488.258.672.164.18.387.281.621.277ZM1.078 9.414h2.473a.841.841 0 0 0 .633-.277.958.958 0 0 0 .257-.672.895.895 0 0 0-.257-.664.833.833 0 0 0-.633-.278H1.078a.861.861 0 0 0-.633.278.892.892 0 0 0-.258.66c0 .27.086.492.258.676a.86.86 0 0 0 .633.277Zm5.988 0h6.164a.847.847 0 0 0 .633-.277.958.958 0 0 0 .258-.672.895.895 0 0 0-.258-.664.833.833 0 0 0-.633-.278H7.066a.847.847 0 0 0-.632.278.892.892 0 0 0-.258.66c0 .27.086.492.258.676.168.18.394.281.632.277Zm9.68 0h6.164a.847.847 0 0 0 .633-.277.958.958 0 0 0 .258-.672.895.895 0 0 0-.258-.664.833.833 0 0 0-.633-.278h-6.164a.887.887 0 0 0-.644.278.907.907 0 0 0-.258.66c0 .27.086.492.258.676.171.18.402.281.644.277ZM1.078 15.961h5.156a.83.83 0 0 0 .633-.274.96.96 0 0 0 .258-.675.892.892 0 0 0-.258-.66.833.833 0 0 0-.633-.278H1.078a.861.861 0 0 0-.633.278.886.886 0 0 0-.258.66c0 .265.086.492.258.675.18.184.39.274.633.274Zm8.672 0h13.16a.83.83 0 0 0 .633-.274.96.96 0 0 0 .258-.675.892.892 0 0 0-.258-.66.833.833 0 0 0-.633-.278H9.75a.858.858 0 0 0-.645.278.892.892 0 0 0-.257.66c0 .265.086.492.257.675.172.18.403.278.645.274ZM1.066 22.5h12.54c.242 0 .449-.09.62-.273a.898.898 0 0 0 .27-.665.931.931 0 0 0-.27-.675.818.818 0 0 0-.62-.274H1.065a.813.813 0 0 0-.62.274.934.934 0 0 0-.259.675c0 .266.086.489.258.66.16.18.387.282.621.278Zm0 0"/></svg>