<svg xmlns="http://www.w3.org/2000/svg" width="24" height="24"><path style="stroke:none;fill-rule:nonzero;fill:#fff;fill-opacity:1" d="M14.883 2.863h8.015a.833.833 0 0 0 .633-.277.922.922 0 0 0 .27-.672c0-.258-.09-.48-.27-.664a.83.83 0 0 0-.633-.273h-8.015a.819.819 0 0 0-.621.273.933.933 0 0 0-.258.664c0 .266.086.488.258.672.164.18.386.281.62.277Zm0 6.551h8.015a.847.847 0 0 0 .633-.277.922.922 0 0 0 .27-.672c0-.27-.09-.488-.27-.664a.833.833 0 0 0-.633-.278h-8.015a.836.836 0 0 0-.621.278.892.892 0 0 0-.258.66c0 .27.086.492.258.676.164.18.386.277.62.277ZM1.066 15.961h21.832a.83.83 0 0 0 .633-.274.925.925 0 0 0 .27-.675.877.877 0 0 0-.27-.66.833.833 0 0 0-.633-.278H1.066a.822.822 0 0 0-.62.278.886.886 0 0 0-.259.66c0 .265.086.492.258.675.164.18.387.278.621.274Zm0 6.539h21.832a.843.843 0 0 0 .633-.273.884.884 0 0 0 .27-.665.931.931 0 0 0-.27-.675.83.83 0 0 0-.633-.274H1.066a.819.819 0 0 0-.62.274.967.967 0 0 0-.259.675c0 .266.086.489.258.66.16.18.387.282.621.278ZM.2 9.535c0 .504.117.902.352 1.2.234.292.566.437.996.437.422 0 .75-.145.984-.438.235-.296.352-.699.352-1.199V7.137c0-.285.133-.426.398-.426h3.2v1.25c0 .324.085.578.257.762.18.183.395.28.645.289.258 0 .504-.102.738-.301l3.176-2.7a.944.944 0 0 0 .363-.761.934.934 0 0 0-.363-.762L8.12 1.773c-.242-.207-.492-.308-.75-.296-.25 0-.46.093-.633.285-.172.183-.258.441-.258.777v1.309H3.023c-.82 0-1.496.257-2.027.765C.465 5.121.2 5.816.2 6.7Zm0 0"/></svg>