<svg width="18" height="21" viewBox="0 0 18 21" fill="none" xmlns="http://www.w3.org/2000/svg">
<path d="M3.13281 12.9844H14.8594C15.5833 12.9844 16.125 12.8073 16.4844 12.4531C16.849 12.0938 17.0312 11.5599 17.0312 10.8516V2.5625C17.0312 1.84896 16.849 1.3125 16.4844 0.953125C16.125 0.59375 15.5833 0.414062 14.8594 0.414062H3.13281C2.41406 0.414062 1.8724 0.596354 1.50781 0.960938C1.14323 1.32031 0.960938 1.85417 0.960938 2.5625V10.8516C0.960938 11.5599 1.14062 12.0938 1.5 12.4531C1.86458 12.8073 2.40885 12.9844 3.13281 12.9844ZM3.14844 11.7969C2.82031 11.7969 2.57031 11.7135 2.39844 11.5469C2.22656 11.375 2.14062 11.1198 2.14062 10.7812V2.625C2.14062 2.29167 2.22656 2.03646 2.39844 1.85938C2.57031 1.68229 2.82031 1.59375 3.14844 1.59375H14.8516C15.1745 1.59375 15.4219 1.68229 15.5938 1.85938C15.7656 2.03646 15.8516 2.29167 15.8516 2.625V10.7812C15.8516 11.1094 15.7656 11.362 15.5938 11.5391C15.4219 11.7109 15.1745 11.7969 14.8516 11.7969H3.14844ZM16.2891 10.4766L12.2656 6.6875C12.1146 6.55208 11.9505 6.45052 11.7734 6.38281C11.5964 6.3099 11.4167 6.27344 11.2344 6.27344C11.0521 6.27344 10.8776 6.30729 10.7109 6.375C10.5443 6.44271 10.3802 6.54427 10.2188 6.67969L7.15625 9.42188L5.90625 8.28125C5.76562 8.15104 5.61719 8.05469 5.46094 7.99219C5.30469 7.92448 5.14323 7.89062 4.97656 7.89062C4.83073 7.89062 4.6849 7.92448 4.53906 7.99219C4.39844 8.05469 4.25521 8.15104 4.10938 8.28125L1.53906 10.6094C1.5599 11.2188 1.69531 11.6797 1.94531 11.9922C2.20052 12.2995 2.58333 12.4531 3.09375 12.4531H14.4531C15.0625 12.4531 15.5208 12.2865 15.8281 11.9531C16.1354 11.6146 16.2891 11.1224 16.2891 10.4766ZM6.04688 6.76562C6.48438 6.76562 6.85938 6.60938 7.17188 6.29688C7.48958 5.97917 7.64844 5.59896 7.64844 5.15625C7.64844 4.86458 7.57552 4.59896 7.42969 4.35938C7.28385 4.11458 7.08854 3.92188 6.84375 3.78125C6.60417 3.63542 6.33854 3.5625 6.04688 3.5625C5.75521 3.5625 5.48698 3.63542 5.24219 3.78125C5.0026 3.92188 4.8099 4.11458 4.66406 4.35938C4.52344 4.59896 4.45312 4.86458 4.45312 5.15625C4.45312 5.45312 4.52344 5.72396 4.66406 5.96875C4.8099 6.20833 5.0026 6.40104 5.24219 6.54688C5.48698 6.69271 5.75521 6.76562 6.04688 6.76562ZM1.54688 16.6562H16.4375C16.599 16.6562 16.737 16.599 16.8516 16.4844C16.9714 16.3698 17.0312 16.2292 17.0312 16.0625C17.0312 15.901 16.9714 15.763 16.8516 15.6484C16.737 15.5339 16.599 15.4766 16.4375 15.4766H1.54688C1.38542 15.4766 1.2474 15.5339 1.13281 15.6484C1.01823 15.763 0.960938 15.901 0.960938 16.0625C0.960938 16.2292 1.01823 16.3698 1.13281 16.4844C1.2474 16.599 1.38542 16.6562 1.54688 16.6562ZM1.54688 20.3203H11.1797C11.3464 20.3203 11.487 20.263 11.6016 20.1484C11.7161 20.0391 11.7734 19.901 11.7734 19.7344C11.7734 19.5677 11.7161 19.4271 11.6016 19.3125C11.487 19.1979 11.3464 19.1406 11.1797 19.1406H1.54688C1.38542 19.1406 1.2474 19.1979 1.13281 19.3125C1.01823 19.4271 0.960938 19.5677 0.960938 19.7344C0.960938 19.901 1.01823 20.0391 1.13281 20.1484C1.2474 20.263 1.38542 20.3203 1.54688 20.3203Z" fill="white"/>
</svg>
