<svg width="16" height="15" viewBox="0 0 16 15" fill="none" xmlns="http://www.w3.org/2000/svg">
<path d="M0.710938 1.78906H15.2656C15.4323 1.78906 15.5729 1.73177 15.6875 1.61719C15.8073 1.5026 15.8672 1.36198 15.8672 1.19531C15.8672 1.03385 15.8073 0.895833 15.6875 0.78125C15.5729 0.666667 15.4323 0.609375 15.2656 0.609375H0.710938C0.549479 0.609375 0.411458 0.666667 0.296875 0.78125C0.182292 0.895833 0.125 1.03385 0.125 1.19531C0.125 1.36198 0.182292 1.5026 0.296875 1.61719C0.411458 1.73177 0.549479 1.78906 0.710938 1.78906ZM0.710938 5.88281H15.2656C15.4323 5.88281 15.5729 5.82552 15.6875 5.71094C15.8073 5.59635 15.8672 5.45573 15.8672 5.28906C15.8672 5.1224 15.8073 4.98438 15.6875 4.875C15.5729 4.76042 15.4323 4.70312 15.2656 4.70312H0.710938C0.549479 4.70312 0.411458 4.76042 0.296875 4.875C0.182292 4.98438 0.125 5.1224 0.125 5.28906C0.125 5.45573 0.182292 5.59635 0.296875 5.71094C0.411458 5.82552 0.549479 5.88281 0.710938 5.88281ZM0.710938 9.97656H15.2656C15.4323 9.97656 15.5729 9.91927 15.6875 9.80469C15.8073 9.6901 15.8672 9.54948 15.8672 9.38281C15.8672 9.21615 15.8073 9.07812 15.6875 8.96875C15.5729 8.85417 15.4323 8.79688 15.2656 8.79688H0.710938C0.549479 8.79688 0.411458 8.85417 0.296875 8.96875C0.182292 9.07812 0.125 9.21615 0.125 9.38281C0.125 9.54948 0.182292 9.6901 0.296875 9.80469C0.411458 9.91927 0.549479 9.97656 0.710938 9.97656ZM0.710938 14.0625H15.2656C15.4323 14.0625 15.5729 14.0052 15.6875 13.8906C15.8073 13.7812 15.8672 13.6432 15.8672 13.4766C15.8672 13.3099 15.8073 13.1693 15.6875 13.0547C15.5729 12.9401 15.4323 12.8828 15.2656 12.8828H0.710938C0.549479 12.8828 0.411458 12.9401 0.296875 13.0547C0.182292 13.1693 0.125 13.3099 0.125 13.4766C0.125 13.6432 0.182292 13.7812 0.296875 13.8906C0.411458 14.0052 0.549479 14.0625 0.710938 14.0625Z" fill="white"/>
</svg>
