<svg xmlns="http://www.w3.org/2000/svg" width="24" height="24"><path style="stroke:none;fill-rule:nonzero;fill:#fff;fill-opacity:1" d="M8.777 19.715a5.74 5.74 0 0 0 2.653-2.082c.664-.938 1.113-2.156 1.293-3.485.203-1.375.148-2.906-.16-4.605l-1.258-6.906c-.172-.938-.461-1.57-.871-1.907-.41-.343-.938-.386-1.582-.125l-6.637 2.59C1.57 3.45 1.129 3.871.89 4.473.66 5.07.629 5.843.797 6.785l1.246 6.91c.305 1.692.773 3.063 1.414 4.11.61 1.015 1.414 1.734 2.309 2.058.906.336 1.91.29 3.011-.148Zm-.285-1.567c-.875.34-1.676.375-2.398.106-.715-.274-1.356-.856-1.84-1.676-.512-.84-.887-1.945-1.133-3.305L1.875 6.438c-.082-.446-.066-.801.04-1.079.108-.277.308-.48.605-.605L9.12 2.152c.293-.12.54-.093.73.075.192.168.325.472.403.91l1.238 6.836c.25 1.37.297 2.609.14 3.714-.144 1.063-.503 2.04-1.03 2.793a4.592 4.592 0 0 1-2.11 1.668Zm-.363-2.023c.707-.29 1.27-.8 1.695-1.531.422-.739.649-1.598.668-2.574.004-.247-.05-.415-.172-.497-.12-.074-.254-.035-.394.133-.41.438-.864.79-1.34 1.043-.434.219-.766.375-.992.465-.227.094-.57.203-1.024.336-.453.133-.957.16-1.52.078-.179-.035-.308.031-.39.188-.074.16-.066.336.027.535.352.832.836 1.414 1.454 1.742.617.32 1.277.352 1.988.082ZM4.855 9.84c.243-.094.43-.094.563 0 .133.082.25.105.355.066.07-.023.122-.101.145-.222a1.199 1.199 0 0 0-.004-.457c-.066-.43-.258-.797-.523-1.008-.254-.227-.567-.281-.852-.149-.297.117-.527.371-.687.762-.16.395-.2.809-.114 1.242.024.156.078.297.153.414.066.086.136.114.207.094a.694.694 0 0 0 .273-.34c.086-.176.246-.312.484-.402ZM8.82 8.25c.239-.094.426-.094.563 0 .133.086.25.113.355.078.07-.031.117-.113.145-.234a1.043 1.043 0 0 0-.004-.453c-.066-.426-.254-.79-.516-.996-.258-.23-.566-.286-.851-.153-.305.106-.535.356-.696.762-.164.398-.199.805-.117 1.23.028.157.082.297.156.414.067.094.137.122.207.094a.66.66 0 0 0 .274-.34c.086-.172.246-.312.484-.402Zm6.395 14.008c1.098.433 2.098.48 3 .14.894-.328 1.7-1.05 2.305-2.074.636-1.035 1.109-2.398 1.418-4.09l1.257-6.898c.172-.938.137-1.703-.105-2.3-.238-.606-.68-1.04-1.328-1.29l-6.63-2.621c-.64-.246-1.167-.203-1.573.14-.407.344-.696.985-.868 1.926l-.55 2.961.457 3.809 1.144-6.285c.078-.442.215-.742.403-.899.187-.168.425-.191.722-.07l6.602 2.598a1 1 0 0 1 .601.597c.11.285.121.653.043 1.094l-1.246 6.832c-.246 1.367-.625 2.473-1.133 3.305-.484.82-1.125 1.402-1.84 1.672-.718.27-1.523.23-2.406-.11-1.023-.414-1.812-1.117-2.37-2.113-.552-.996-.829-2.21-.825-3.648l-.91 2.433c.246 1.188.719 2.246 1.36 3.051a5.829 5.829 0 0 0 2.472 1.84ZM15 11.84c.246.101.48.058.703-.125.219-.18.379-.48.442-.84a1.893 1.893 0 0 0-.094-1.047c-.121-.328-.328-.566-.574-.656-.239-.106-.493-.055-.704.14-.218.184-.378.485-.441.84-.07.371-.039.723.094 1.051.125.317.332.547.574.637Zm3.93 1.547c.25.093.488.047.71-.14.215-.184.372-.485.434-.84.07-.356.04-.735-.094-1.048-.12-.32-.324-.554-.566-.64-.238-.102-.496-.051-.71.136-.216.172-.376.477-.43.832-.07.352-.04.735.09 1.051.12.32.327.555.566.649Zm-2.817 3.785c.367.144.711.351 1.032.621.32.266.656.621 1.003 1.082.133.18.266.227.403.133.133-.086.195-.258.187-.524-.02-.855-.246-1.672-.636-2.304-.403-.668-.926-1.125-1.567-1.371-.644-.25-1.254-.239-1.828.043-.55.257-1.027.796-1.336 1.52-.094.214-.098.41-.012.593.09.183.223.246.403.183a3.82 3.82 0 0 1 1.23-.207c.375 0 .75.082 1.121.23Zm0 0"/></svg>