<svg width="128" height="128" viewBox="0 0 128 128" fill="none" xmlns="http://www.w3.org/2000/svg">
<path d="M63.9375 127.688C72.6458 127.688 80.8333 126.021 88.5 122.688C96.2083 119.354 103 114.75 108.875 108.875C114.75 103 119.354 96.2292 122.688 88.5625C126.021 80.8542 127.688 72.6458 127.688 63.9375C127.688 55.2292 126.021 47.0417 122.688 39.375C119.354 31.6667 114.75 24.875 108.875 19C103 13.125 96.2083 8.52083 88.5 5.1875C80.7917 1.85417 72.5833 0.1875 63.875 0.1875C55.1667 0.1875 46.9583 1.85417 39.25 5.1875C31.5833 8.52083 24.8125 13.125 18.9375 19C13.1042 24.875 8.52083 31.6667 5.1875 39.375C1.85417 47.0417 0.1875 55.2292 0.1875 63.9375C0.1875 72.6458 1.85417 80.8542 5.1875 88.5625C8.52083 96.2292 13.125 103 19 108.875C24.875 114.75 31.6458 119.354 39.3125 122.688C47.0208 126.021 55.2292 127.688 63.9375 127.688ZM51.75 106.75C48.4167 106.75 45.375 105.958 42.625 104.375C39.9167 102.75 37.75 100.583 36.125 97.875C34.5417 95.1667 33.75 92.1667 33.75 88.875C33.75 86.2917 34.2708 83.8542 35.3125 81.5625C36.3542 79.2708 37.9167 77.2083 40 75.375C40.3333 75.0833 40.5417 74.8125 40.625 74.5625C40.75 74.2708 40.8125 73.8958 40.8125 73.4375V42.625C40.8125 39.125 41.8125 36.2708 43.8125 34.0625C45.8125 31.8542 48.4583 30.75 51.75 30.75C54.9583 30.75 57.5625 31.8542 59.5625 34.0625C61.6042 36.2708 62.625 39.125 62.625 42.625L62.5625 73.4375C62.5625 74.2708 62.8333 74.9167 63.375 75.375C67.5833 79.125 69.6875 83.625 69.6875 88.875C69.6875 92.1667 68.875 95.1667 67.25 97.875C65.6667 100.583 63.5 102.75 60.75 104.375C58.0417 105.958 55.0417 106.75 51.75 106.75ZM51.75 101.5C55.2083 101.5 58.1667 100.271 60.625 97.8125C63.0833 95.3542 64.3125 92.375 64.3125 88.875C64.3125 86.75 63.8333 84.7917 62.875 83C61.9167 81.2083 60.5417 79.6875 58.75 78.4375C57.7083 77.8125 57.1875 76.8542 57.1875 75.5625V42.875C57.1875 40.8333 56.6875 39.2083 55.6875 38C54.6875 36.7917 53.375 36.1875 51.75 36.1875C50.0417 36.1875 48.6667 36.7917 47.625 38C46.625 39.2083 46.125 40.8333 46.125 42.875V75.5625C46.125 76.8542 45.6042 77.8125 44.5625 78.4375C42.8125 79.6875 41.4583 81.2083 40.5 83C39.5833 84.7917 39.125 86.75 39.125 88.875C39.125 92.375 40.3333 95.3542 42.75 97.8125C45.2083 100.271 48.2083 101.5 51.75 101.5ZM51.6875 97.25C49.3542 97.25 47.375 96.4375 45.75 94.8125C44.125 93.1875 43.3125 91.1875 43.3125 88.8125C43.3125 87.1875 43.7292 85.75 44.5625 84.5C45.3958 83.2083 46.4583 82.1875 47.75 81.4375C48.375 81.1875 48.7708 80.9167 48.9375 80.625C49.1458 80.2917 49.25 79.7292 49.25 78.9375V45.75C49.25 44.875 49.4792 44.1875 49.9375 43.6875C50.3958 43.1875 50.9792 42.9375 51.6875 42.9375C52.3958 42.9375 52.9792 43.1875 53.4375 43.6875C53.9375 44.1875 54.1875 44.875 54.1875 45.75V78.9375C54.1875 79.7292 54.2708 80.2917 54.4375 80.625C54.6458 80.9167 55.0208 81.1875 55.5625 81.4375C56.8958 82.1875 57.9792 83.2083 58.8125 84.5C59.6875 85.75 60.125 87.1875 60.125 88.8125C60.125 91.1458 59.2917 93.1458 57.625 94.8125C56 96.4375 54.0208 97.25 51.6875 97.25ZM68 32.5625C67.0417 32.5625 66.2292 32.2292 65.5625 31.5625C64.8958 30.8958 64.5625 30.1042 64.5625 29.1875V21.8125C64.5625 20.9375 64.8958 20.1667 65.5625 19.5C66.2292 18.8333 67.0417 18.5 68 18.5C68.9583 18.5 69.75 18.8333 70.375 19.5C71 20.1667 71.3125 20.9375 71.3125 21.8125V29.1875C71.3125 30.0625 71 30.8542 70.375 31.5625C69.75 32.2292 68.9583 32.5625 68 32.5625ZM83.3125 38.9375C82.6875 38.2708 82.3542 37.4792 82.3125 36.5625C82.3125 35.6042 82.6458 34.8125 83.3125 34.1875L88.5625 28.9375C89.1875 28.2708 89.9583 27.9375 90.875 27.9375C91.7917 27.9375 92.5833 28.2708 93.25 28.9375C93.9167 29.5625 94.2292 30.3542 94.1875 31.3125C94.1875 32.2708 93.875 33.0625 93.25 33.6875L88.125 38.9375C87.4583 39.5625 86.6458 39.875 85.6875 39.875C84.7292 39.875 83.9375 39.5625 83.3125 38.9375ZM93 57.625C92.0833 57.625 91.2917 57.2917 90.625 56.625C89.9583 55.9583 89.625 55.1875 89.625 54.3125C89.625 53.3958 89.9375 52.6042 90.5625 51.9375C91.2292 51.2292 92.0417 50.875 93 50.875H100.312C101.229 50.875 102 51.2292 102.625 51.9375C103.292 52.6042 103.625 53.3958 103.625 54.3125C103.625 55.1875 103.292 55.9583 102.625 56.625C102 57.2917 101.229 57.625 100.312 57.625H93ZM88.5625 79.6875L83.3125 74.375C82.6458 73.7917 82.3125 73.0208 82.3125 72.0625C82.3542 71.1042 82.6875 70.3125 83.3125 69.6875C83.9792 69.0625 84.7708 68.75 85.6875 68.75C86.6042 68.75 87.3958 69.0625 88.0625 69.6875L93.25 74.9375C93.9167 75.5208 94.25 76.2917 94.25 77.25C94.25 78.2083 93.9167 79.0208 93.25 79.6875C92.5833 80.3125 91.7917 80.625 90.875 80.625C89.9583 80.5833 89.1875 80.2708 88.5625 79.6875ZM67.375 71.25L67.4375 42.625C67.4375 40.75 67.1458 39 66.5625 37.375C67.1042 37.2917 67.5833 37.25 68 37.25C71.125 37.25 73.9583 38.0208 76.5 39.5625C79.0833 41.0625 81.125 43.1042 82.625 45.6875C84.1667 48.2708 84.9375 51.1458 84.9375 54.3125C84.9375 57.5625 84.1458 60.4792 82.5625 63.0625C80.9792 65.6458 78.8542 67.6875 76.1875 69.1875C73.5625 70.6458 70.625 71.3333 67.375 71.25Z" fill="white"/>
</svg>
