<?xml version="1.0" encoding="UTF-8"?>
<svg xmlns="http://www.w3.org/2000/svg" xmlns:xlink="http://www.w3.org/1999/xlink" width="24" height="31.058824" viewBox="0 0 24 31.058824" version="1.1">
<g id="surface1">
<path style=" stroke:none;fill-rule:nonzero;fill:rgb(100%,100%,100%);fill-opacity:1;" d="M 6.804688 29.703125 C 7.597656 29.703125 8.34375 29.550781 9.03125 29.25 C 9.730469 28.957031 10.34375 28.542969 10.863281 28.015625 C 11.394531 27.484375 11.804688 26.871094 12.097656 26.171875 C 12.402344 25.480469 12.550781 24.738281 12.550781 23.945312 C 12.550781 23.105469 12.382812 22.324219 12.042969 21.59375 C 11.707031 20.867188 11.207031 20.207031 10.542969 19.609375 C 10.425781 19.5 10.347656 19.402344 10.3125 19.3125 C 10.277344 19.222656 10.257812 19.097656 10.257812 18.9375 L 10.269531 8.96875 C 10.269531 8.21875 10.121094 7.558594 9.828125 6.992188 C 9.539062 6.425781 9.136719 5.984375 8.613281 5.667969 C 8.09375 5.351562 7.488281 5.195312 6.804688 5.195312 C 6.113281 5.195312 5.503906 5.351562 4.972656 5.667969 C 4.453125 5.984375 4.042969 6.425781 3.75 6.992188 C 3.457031 7.558594 3.308594 8.21875 3.308594 8.96875 L 3.320312 18.9375 C 3.320312 19.097656 3.300781 19.222656 3.265625 19.3125 C 3.226562 19.402344 3.152344 19.5 3.03125 19.609375 C 2.378906 20.207031 1.878906 20.867188 1.53125 21.59375 C 1.195312 22.324219 1.027344 23.105469 1.027344 23.945312 C 1.027344 24.738281 1.171875 25.480469 1.46875 26.171875 C 1.769531 26.871094 2.183594 27.484375 2.714844 28.015625 C 3.242188 28.542969 3.855469 28.957031 4.554688 29.25 C 5.253906 29.550781 6.003906 29.703125 6.804688 29.703125 Z M 6.804688 28.101562 C 6.03125 28.101562 5.332031 27.914062 4.699219 27.539062 C 4.074219 27.164062 3.574219 26.660156 3.199219 26.03125 C 2.832031 25.398438 2.648438 24.703125 2.648438 23.945312 C 2.648438 23.253906 2.804688 22.609375 3.121094 22.015625 C 3.4375 21.417969 3.886719 20.925781 4.46875 20.535156 C 4.636719 20.417969 4.757812 20.296875 4.832031 20.171875 C 4.90625 20.046875 4.941406 19.871094 4.941406 19.644531 L 4.941406 9.03125 C 4.941406 8.371094 5.113281 7.839844 5.460938 7.433594 C 5.804688 7.023438 6.253906 6.816406 6.804688 6.816406 C 7.34375 6.816406 7.78125 7.023438 8.128906 7.433594 C 8.472656 7.839844 8.648438 8.371094 8.648438 9.03125 L 8.648438 19.644531 C 8.648438 19.871094 8.679688 20.046875 8.746094 20.171875 C 8.820312 20.296875 8.945312 20.417969 9.121094 20.535156 C 9.703125 20.925781 10.152344 21.417969 10.46875 22.015625 C 10.78125 22.609375 10.941406 23.253906 10.941406 23.945312 C 10.941406 24.703125 10.753906 25.398438 10.378906 26.03125 C 10.003906 26.660156 9.503906 27.164062 8.878906 27.539062 C 8.253906 27.914062 7.5625 28.101562 6.804688 28.101562 Z M 6.792969 26.613281 C 7.285156 26.613281 7.730469 26.492188 8.128906 26.25 C 8.53125 26.007812 8.855469 25.683594 9.097656 25.28125 C 9.34375 24.875 9.464844 24.425781 9.464844 23.933594 C 9.464844 23.417969 9.332031 22.960938 9.066406 22.554688 C 8.800781 22.144531 8.457031 21.820312 8.03125 21.585938 C 7.851562 21.488281 7.726562 21.390625 7.65625 21.285156 C 7.589844 21.175781 7.554688 20.988281 7.554688 20.722656 L 7.554688 9.96875 C 7.554688 9.707031 7.480469 9.496094 7.335938 9.34375 C 7.1875 9.179688 7.007812 9.097656 6.792969 9.097656 C 6.582031 9.097656 6.402344 9.179688 6.253906 9.34375 C 6.105469 9.496094 6.03125 9.707031 6.03125 9.96875 L 6.03125 20.722656 C 6.03125 20.988281 5.996094 21.175781 5.921875 21.285156 C 5.855469 21.390625 5.734375 21.488281 5.558594 21.585938 C 5.132812 21.820312 4.785156 22.144531 4.523438 22.554688 C 4.257812 22.960938 4.125 23.417969 4.125 23.933594 C 4.125 24.425781 4.242188 24.875 4.476562 25.28125 C 4.71875 25.683594 5.042969 26.007812 5.449219 26.25 C 5.851562 26.492188 6.300781 26.613281 6.792969 26.613281 Z M 12.054688 5.503906 C 12.304688 5.503906 12.519531 5.410156 12.695312 5.226562 C 12.878906 5.042969 12.96875 4.832031 12.96875 4.589844 L 12.96875 2.207031 C 12.96875 1.957031 12.878906 1.742188 12.695312 1.566406 C 12.519531 1.382812 12.304688 1.289062 12.054688 1.289062 C 11.804688 1.289062 11.589844 1.382812 11.40625 1.566406 C 11.226562 1.742188 11.140625 1.957031 11.140625 2.207031 L 11.140625 4.589844 C 11.140625 4.832031 11.226562 5.042969 11.40625 5.226562 C 11.589844 5.410156 11.804688 5.503906 12.054688 5.503906 Z M 17.152344 7.632812 C 17.320312 7.808594 17.53125 7.902344 17.789062 7.90625 C 18.046875 7.90625 18.269531 7.816406 18.453125 7.632812 L 20.128906 5.933594 C 20.3125 5.757812 20.402344 5.542969 20.394531 5.292969 C 20.394531 5.035156 20.304688 4.820312 20.128906 4.644531 C 19.960938 4.46875 19.746094 4.378906 19.488281 4.378906 C 19.238281 4.378906 19.027344 4.46875 18.847656 4.644531 L 17.152344 6.351562 C 16.972656 6.53125 16.886719 6.742188 16.886719 6.992188 C 16.894531 7.242188 16.980469 7.457031 17.152344 7.632812 Z M 20.160156 13.644531 L 22.542969 13.644531 C 22.792969 13.644531 23.007812 13.554688 23.183594 13.378906 C 23.359375 13.195312 23.449219 12.976562 23.449219 12.726562 C 23.449219 12.46875 23.359375 12.253906 23.183594 12.078125 C 23.007812 11.902344 22.792969 11.8125 22.542969 11.8125 L 20.160156 11.8125 C 19.917969 11.8125 19.707031 11.902344 19.523438 12.078125 C 19.339844 12.253906 19.246094 12.46875 19.246094 12.726562 C 19.246094 12.976562 19.339844 13.195312 19.523438 13.378906 C 19.707031 13.554688 19.917969 13.644531 20.160156 13.644531 Z M 18.847656 20.824219 C 19.027344 21 19.238281 21.089844 19.488281 21.089844 C 19.746094 21.082031 19.960938 20.988281 20.128906 20.8125 C 20.304688 20.636719 20.394531 20.421875 20.394531 20.171875 C 20.402344 19.914062 20.3125 19.703125 20.128906 19.53125 L 18.429688 17.835938 C 18.253906 17.664062 18.039062 17.582031 17.789062 17.582031 C 17.539062 17.574219 17.328125 17.65625 17.152344 17.835938 C 16.972656 18.011719 16.886719 18.226562 16.886719 18.484375 C 16.886719 18.734375 16.972656 18.949219 17.152344 19.125 Z M 12.054688 18.1875 C 12.8125 18.1875 13.519531 18.046875 14.171875 17.769531 C 14.835938 17.488281 15.414062 17.097656 15.914062 16.597656 C 16.414062 16.097656 16.804688 15.519531 17.085938 14.855469 C 17.363281 14.195312 17.503906 13.484375 17.503906 12.726562 C 17.503906 11.714844 17.261719 10.792969 16.777344 9.96875 C 16.289062 9.140625 15.632812 8.480469 14.800781 7.996094 C 13.976562 7.503906 13.0625 7.257812 12.054688 7.257812 C 11.929688 7.257812 11.808594 7.265625 11.691406 7.28125 C 11.574219 7.292969 11.453125 7.316406 11.328125 7.34375 C 11.40625 7.601562 11.46875 7.875 11.503906 8.160156 C 11.539062 8.441406 11.558594 8.730469 11.558594 9.03125 L 11.546875 18.132812 C 11.628906 18.15625 11.710938 18.167969 11.789062 18.175781 C 11.878906 18.183594 11.96875 18.1875 12.054688 18.1875 Z M 12.054688 18.1875 "/>
</g>
</svg>
