<svg width="128" height="128" viewBox="0 0 128 128" fill="none" xmlns="http://www.w3.org/2000/svg">
<path d="M63.9375 127.625C72.6458 127.625 80.8333 125.958 88.5 122.625C96.2083 119.292 103 114.688 108.875 108.812C114.75 102.938 119.354 96.1667 122.688 88.5C126.021 80.7917 127.688 72.5833 127.688 63.875C127.688 55.1667 126.021 46.9792 122.688 39.3125C119.354 31.6042 114.75 24.8125 108.875 18.9375C103.042 13.0625 96.2708 8.45833 88.5625 5.125C80.8958 1.79167 72.7083 0.125 64 0.125C62.3333 0.125 61.0833 0.604167 60.25 1.5625C59.4583 2.47917 59.0625 3.75 59.0625 5.375V29.5625C59.0625 30.9375 59.4792 32.1042 60.3125 33.0625C61.1875 33.9792 62.2917 34.4375 63.625 34.4375C65 34.4375 66.1042 33.9792 66.9375 33.0625C67.8125 32.1042 68.25 30.9375 68.25 29.5625V5.25L63.875 10.75C71.2917 10.75 78.2083 12.125 84.625 14.875C91.0417 17.5833 96.6667 21.375 101.5 26.25C106.375 31.0833 110.167 36.7292 112.875 43.1875C115.625 49.6042 117 56.5 117 63.875C117 71.25 115.625 78.1458 112.875 84.5625C110.167 90.9792 106.375 96.625 101.5 101.5C96.6667 106.333 91.0417 110.125 84.625 112.875C78.2083 115.625 71.3125 117 63.9375 117C56.5625 117 49.6458 115.625 43.1875 112.875C36.7708 110.125 31.125 106.333 26.25 101.5C21.4167 96.625 17.625 90.9792 14.875 84.5625C12.1667 78.1458 10.8125 71.25 10.8125 63.875C10.8542 57.2917 11.9792 51.0833 14.1875 45.25C16.3958 39.375 19.4792 34.1458 23.4375 29.5625C24.3542 28.3542 24.8333 27.0625 24.875 25.6875C24.9167 24.3125 24.4167 23.0833 23.375 22C22.3333 20.9167 21.0417 20.4375 19.5 20.5625C18 20.6458 16.6875 21.375 15.5625 22.75C10.8125 28.3333 7.0625 34.6458 4.3125 41.6875C1.5625 48.6875 0.1875 56.0833 0.1875 63.875C0.1875 72.5833 1.85417 80.7917 5.1875 88.5C8.52083 96.1667 13.125 102.938 19 108.812C24.875 114.688 31.6458 119.292 39.3125 122.625C47.0208 125.958 55.2292 127.625 63.9375 127.625ZM73.9375 72.875C75.6042 71.125 76.6042 69.2708 76.9375 67.3125C77.2708 65.3125 77 63.375 76.125 61.5C75.2917 59.625 73.8958 58 71.9375 56.625L38.875 33.5C37.8333 32.7917 36.8542 32.6042 35.9375 32.9375C35.0208 33.2708 34.3958 33.8958 34.0625 34.8125C33.7708 35.6875 33.9792 36.6458 34.6875 37.6875L57.75 70.75C59.125 72.75 60.75 74.1875 62.625 75.0625C64.5 75.8958 66.4375 76.1458 68.4375 75.8125C70.4375 75.4792 72.2708 74.5 73.9375 72.875Z" fill="white"/>
</svg>
