<svg width="28" height="15" viewBox="0 0 28 15" fill="none" xmlns="http://www.w3.org/2000/svg">
<path d="M8.10938 14.5625H19.8828C20.7005 14.5625 21.3125 14.3594 21.7188 13.9531C22.1302 13.5521 22.3359 12.9479 22.3359 12.1406V2.60156C22.3359 1.79427 22.1302 1.1901 21.7188 0.789062C21.3125 0.382812 20.7005 0.179688 19.8828 0.179688H8.10938C7.29688 0.179688 6.6849 0.382812 6.27344 0.789062C5.86719 1.1901 5.66406 1.79427 5.66406 2.60156V12.1406C5.66406 12.9479 5.86719 13.5521 6.27344 13.9531C6.6849 14.3594 7.29688 14.5625 8.10938 14.5625ZM7.10156 9.86719V4.875C7.10156 4.74479 7.14844 4.63542 7.24219 4.54688C7.33594 4.45312 7.44792 4.40625 7.57812 4.40625C7.70312 4.40625 7.8125 4.45312 7.90625 4.54688C8 4.63542 8.04688 4.74479 8.04688 4.875V9.86719C8.04688 9.9974 8 10.1094 7.90625 10.2031C7.8125 10.2917 7.70312 10.3359 7.57812 10.3359C7.44792 10.3359 7.33594 10.2917 7.24219 10.2031C7.14844 10.1094 7.10156 9.9974 7.10156 9.86719ZM9.49219 13.3047V1.4375H18.5078V13.3047H9.49219ZM19.9453 9.86719V4.875C19.9453 4.74479 19.9922 4.63542 20.0859 4.54688C20.1797 4.45312 20.2917 4.40625 20.4219 4.40625C20.5521 4.40625 20.6615 4.45312 20.75 4.54688C20.8438 4.63542 20.8906 4.74479 20.8906 4.875V9.86719C20.8906 9.9974 20.8438 10.1094 20.75 10.2031C20.6615 10.2917 20.5521 10.3359 20.4219 10.3359C20.2917 10.3359 20.1797 10.2917 20.0859 10.2031C19.9922 10.1094 19.9453 9.9974 19.9453 9.86719ZM1.875 9.76562L3.99219 8.03906C4.20573 7.86198 4.3099 7.64844 4.30469 7.39844C4.29948 7.14844 4.19531 6.9349 3.99219 6.75781L1.875 4.99219C1.6875 4.84115 1.5 4.76823 1.3125 4.77344C1.125 4.77344 0.966146 4.84115 0.835938 4.97656C0.710938 5.10677 0.648438 5.29167 0.648438 5.53125V9.24219C0.648438 9.47135 0.713542 9.65104 0.84375 9.78125C0.973958 9.91146 1.13281 9.97917 1.32031 9.98438C1.51302 9.98438 1.69792 9.91146 1.875 9.76562ZM26.1172 9.76562C26.2943 9.91146 26.4766 9.98438 26.6641 9.98438C26.8568 9.97917 27.0182 9.91146 27.1484 9.78125C27.2786 9.65104 27.3438 9.47135 27.3438 9.24219V5.53125C27.3438 5.29167 27.2786 5.10677 27.1484 4.97656C27.0234 4.84115 26.8672 4.77344 26.6797 4.77344C26.4922 4.76823 26.3047 4.84115 26.1172 4.99219L24 6.75781C23.7969 6.9349 23.6927 7.14844 23.6875 7.39844C23.6823 7.64844 23.7865 7.86198 24 8.03906L26.1172 9.76562Z" fill="white"/>
</svg>
