<?xml version="1.0" encoding="UTF-8"?>
<svg xmlns="http://www.w3.org/2000/svg" xmlns:xlink="http://www.w3.org/1999/xlink" width="24" height="25.5" viewBox="0 0 24 25.5" version="1.1">
<g id="surface1">
<path style=" stroke:none;fill-rule:nonzero;fill:rgb(100%,100%,100%);fill-opacity:1;" d="M 12 24.492188 C 13.632812 24.492188 15.167969 24.179688 16.605469 23.554688 C 18.050781 22.929688 19.324219 22.066406 20.425781 20.964844 C 21.527344 19.863281 22.390625 18.59375 23.015625 17.15625 C 23.640625 15.710938 23.953125 14.171875 23.953125 12.539062 C 23.953125 10.90625 23.640625 9.371094 23.015625 7.933594 C 22.390625 6.488281 21.527344 5.214844 20.425781 4.113281 C 19.332031 3.011719 18.0625 2.148438 16.617188 1.523438 C 15.179688 0.898438 13.644531 0.585938 12.011719 0.585938 C 11.699219 0.585938 11.464844 0.675781 11.308594 0.855469 C 11.160156 1.027344 11.085938 1.265625 11.085938 1.570312 L 11.085938 6.105469 C 11.085938 6.363281 11.164062 6.582031 11.320312 6.761719 C 11.484375 6.933594 11.691406 7.019531 11.941406 7.019531 C 12.199219 7.019531 12.40625 6.933594 12.5625 6.761719 C 12.726562 6.582031 12.808594 6.363281 12.808594 6.105469 L 12.808594 1.546875 L 11.988281 2.578125 C 13.378906 2.578125 14.675781 2.835938 15.878906 3.351562 C 17.082031 3.859375 18.136719 4.570312 19.042969 5.484375 C 19.957031 6.390625 20.667969 7.449219 21.175781 8.660156 C 21.691406 9.863281 21.949219 11.15625 21.949219 12.539062 C 21.949219 13.921875 21.691406 15.214844 21.175781 16.417969 C 20.667969 17.621094 19.957031 18.679688 19.042969 19.59375 C 18.136719 20.5 17.082031 21.210938 15.878906 21.726562 C 14.675781 22.242188 13.382812 22.5 12 22.5 C 10.617188 22.5 9.320312 22.242188 8.109375 21.726562 C 6.90625 21.210938 5.847656 20.5 4.933594 19.59375 C 4.027344 18.679688 3.316406 17.621094 2.800781 16.417969 C 2.292969 15.214844 2.039062 13.921875 2.039062 12.539062 C 2.046875 11.304688 2.257812 10.140625 2.671875 9.046875 C 3.085938 7.945312 3.664062 6.964844 4.40625 6.105469 C 4.578125 5.878906 4.667969 5.636719 4.675781 5.378906 C 4.683594 5.121094 4.589844 4.890625 4.394531 4.6875 C 4.199219 4.484375 3.957031 4.394531 3.667969 4.417969 C 3.386719 4.433594 3.140625 4.570312 2.929688 4.828125 C 2.039062 5.875 1.335938 7.058594 0.820312 8.378906 C 0.304688 9.691406 0.046875 11.078125 0.046875 12.539062 C 0.046875 14.171875 0.359375 15.710938 0.984375 17.15625 C 1.609375 18.59375 2.472656 19.863281 3.574219 20.964844 C 4.675781 22.066406 5.945312 22.929688 7.382812 23.554688 C 8.828125 24.179688 10.367188 24.492188 12 24.492188 Z M 13.875 14.226562 C 14.1875 13.898438 14.375 13.550781 14.4375 13.183594 C 14.5 12.808594 14.449219 12.445312 14.285156 12.09375 C 14.128906 11.742188 13.867188 11.4375 13.5 11.179688 L 7.300781 6.84375 C 7.105469 6.710938 6.921875 6.675781 6.75 6.738281 C 6.578125 6.800781 6.460938 6.917969 6.398438 7.089844 C 6.34375 7.253906 6.382812 7.433594 6.515625 7.628906 L 10.839844 13.828125 C 11.097656 14.203125 11.402344 14.472656 11.753906 14.636719 C 12.105469 14.792969 12.46875 14.839844 12.84375 14.777344 C 13.21875 14.714844 13.5625 14.53125 13.875 14.226562 Z M 13.875 14.226562 "/>
</g>
</svg>
