<svg width="16" height="17" viewBox="0 0 16 17" fill="none" xmlns="http://www.w3.org/2000/svg">
<path d="M8 16.3281C9.08854 16.3281 10.112 16.1198 11.0703 15.7031C12.0339 15.2865 12.8828 14.7109 13.6172 13.9766C14.3516 13.2422 14.9271 12.3958 15.3438 11.4375C15.7604 10.474 15.9688 9.44792 15.9688 8.35938C15.9688 7.27083 15.7604 6.2474 15.3438 5.28906C14.9271 4.32552 14.3516 3.47656 13.6172 2.74219C12.888 2.00781 12.0417 1.43229 11.0781 1.01562C10.1198 0.598958 9.09635 0.390625 8.00781 0.390625C7.79948 0.390625 7.64323 0.450521 7.53906 0.570312C7.4401 0.684896 7.39062 0.84375 7.39062 1.04688V4.07031C7.39062 4.24219 7.44271 4.38802 7.54688 4.50781C7.65625 4.6224 7.79427 4.67969 7.96094 4.67969C8.13281 4.67969 8.27083 4.6224 8.375 4.50781C8.48438 4.38802 8.53906 4.24219 8.53906 4.07031V1.03125L7.99219 1.71875C8.91927 1.71875 9.78385 1.89062 10.5859 2.23438C11.388 2.57292 12.0911 3.04688 12.6953 3.65625C13.3047 4.26042 13.7786 4.96615 14.1172 5.77344C14.4609 6.57552 14.6328 7.4375 14.6328 8.35938C14.6328 9.28125 14.4609 10.1432 14.1172 10.9453C13.7786 11.7474 13.3047 12.4531 12.6953 13.0625C12.0911 13.6667 11.388 14.1406 10.5859 14.4844C9.78385 14.8281 8.92188 15 8 15C7.07812 15 6.21354 14.8281 5.40625 14.4844C4.60417 14.1406 3.89844 13.6667 3.28906 13.0625C2.6849 12.4531 2.21094 11.7474 1.86719 10.9453C1.52865 10.1432 1.35938 9.28125 1.35938 8.35938C1.36458 7.53646 1.50521 6.76042 1.78125 6.03125C2.05729 5.29688 2.44271 4.64323 2.9375 4.07031C3.05208 3.91927 3.11198 3.75781 3.11719 3.58594C3.1224 3.41406 3.0599 3.26042 2.92969 3.125C2.79948 2.98958 2.63802 2.92969 2.44531 2.94531C2.25781 2.95573 2.09375 3.04688 1.95312 3.21875C1.35938 3.91667 0.890625 4.70573 0.546875 5.58594C0.203125 6.46094 0.03125 7.38542 0.03125 8.35938C0.03125 9.44792 0.239583 10.474 0.65625 11.4375C1.07292 12.3958 1.64844 13.2422 2.38281 13.9766C3.11719 14.7109 3.96354 15.2865 4.92188 15.7031C5.88542 16.1198 6.91146 16.3281 8 16.3281ZM9.25 9.48438C9.45833 9.26562 9.58333 9.03385 9.625 8.78906C9.66667 8.53906 9.63281 8.29688 9.52344 8.0625C9.41927 7.82812 9.24479 7.625 9 7.45312L4.86719 4.5625C4.73698 4.47396 4.61458 4.45052 4.5 4.49219C4.38542 4.53385 4.30729 4.61198 4.26562 4.72656C4.22917 4.83594 4.25521 4.95573 4.34375 5.08594L7.22656 9.21875C7.39844 9.46875 7.60156 9.64844 7.83594 9.75781C8.07031 9.86198 8.3125 9.89323 8.5625 9.85156C8.8125 9.8099 9.04167 9.6875 9.25 9.48438Z" fill="white"/>
</svg>
