<svg width="142" height="142" viewBox="0 0 142 142" fill="none" xmlns="http://www.w3.org/2000/svg">
<path d="M70.625 0.5C69.625 0.5 68.75 0.875 68 1.625C67.2917 2.33333 66.9375 3.20833 66.9375 4.25V27.4375C66.9375 28.5208 67.2917 29.4167 68 30.125C68.75 30.8333 69.625 31.1875 70.625 31.1875C71.7083 31.1875 72.6042 30.8333 73.3125 30.125C74.0208 29.4167 74.375 28.5208 74.375 27.4375V4.25C74.375 3.20833 74.0208 2.33333 73.3125 1.625C72.6042 0.875 71.7083 0.5 70.625 0.5ZM89.125 2.375C88.125 2.04167 87.1875 2.10417 86.3125 2.5625C85.4375 3.02083 84.8542 3.83333 84.5625 5L82.4375 12.6875C82.1458 13.6875 82.25 14.6458 82.75 15.5625C83.25 16.4375 84 17 85 17.25C86 17.5 86.9375 17.3958 87.8125 16.9375C88.7292 16.4375 89.3125 15.6667 89.5625 14.625L91.625 6.9375C91.9167 5.85417 91.8125 4.89583 91.3125 4.0625C90.8542 3.22917 90.125 2.66667 89.125 2.375ZM105.938 9.9375C105.021 9.4375 104.062 9.3125 103.062 9.5625C102.104 9.8125 101.354 10.375 100.812 11.25L89.25 31.4375C88.6667 32.3542 88.5208 33.3125 88.8125 34.3125C89.1042 35.2708 89.6875 36 90.5625 36.5C91.4375 37.0417 92.375 37.1875 93.375 36.9375C94.375 36.6458 95.125 36.0417 95.625 35.125L107.25 15C107.75 14.0833 107.875 13.1458 107.625 12.1875C107.375 11.2292 106.812 10.4792 105.938 9.9375ZM121 20.75C120.25 20 119.354 19.6458 118.312 19.6875C117.312 19.6875 116.458 20.0417 115.75 20.75L110.062 26.375C109.312 27.1667 108.917 28.0625 108.875 29.0625C108.875 30.0208 109.271 30.875 110.062 31.625C110.812 32.4167 111.688 32.8125 112.688 32.8125C113.688 32.8125 114.542 32.4375 115.25 31.6875L120.812 26.0625C121.604 25.2292 122.021 24.3333 122.062 23.375C122.104 22.375 121.75 21.5 121 20.75ZM131.75 35.75C131.208 34.8333 130.438 34.25 129.438 34C128.479 33.75 127.542 33.875 126.625 34.375L106.5 46C105.583 46.5 104.979 47.25 104.688 48.25C104.438 49.25 104.583 50.2083 105.125 51.125C105.625 52 106.354 52.5833 107.312 52.875C108.312 53.125 109.271 52.9792 110.188 52.4375L130.375 40.8125C131.25 40.2708 131.812 39.5208 132.062 38.5625C132.354 37.6042 132.25 36.6667 131.75 35.75ZM139.375 52.625C139.125 51.5833 138.542 50.8125 137.625 50.3125C136.708 49.8125 135.792 49.6875 134.875 49.9375L127.062 52.0625C126.062 52.3542 125.312 52.9375 124.812 53.8125C124.312 54.6875 124.229 55.7083 124.562 56.875C124.812 57.6667 125.333 58.3333 126.125 58.875C126.958 59.4167 127.938 59.5417 129.062 59.25L136.625 57.125C137.708 56.8333 138.5 56.25 139 55.375C139.5 54.5 139.625 53.5833 139.375 52.625ZM141.125 70.9375C141.125 69.8958 140.75 69.0208 140 68.3125C139.292 67.6042 138.417 67.25 137.375 67.25H114.188C113.104 67.25 112.208 67.6042 111.5 68.3125C110.792 69.0208 110.438 69.8958 110.438 70.9375C110.438 71.9792 110.792 72.875 111.5 73.625C112.208 74.3333 113.104 74.6875 114.188 74.6875H137.375C138.417 74.6875 139.292 74.3333 140 73.625C140.75 72.875 141.125 71.9792 141.125 70.9375ZM139.375 89.5625C139.667 88.5208 139.583 87.5625 139.125 86.6875C138.667 85.8125 137.896 85.2083 136.812 84.875L129.062 82.6875C128.021 82.4375 127.062 82.5625 126.188 83.0625C125.312 83.5625 124.75 84.3125 124.5 85.3125C124.25 86.3542 124.354 87.3333 124.812 88.25C125.312 89.1667 126.062 89.75 127.062 90L134.75 92C135.833 92.25 136.792 92.1458 137.625 91.6875C138.5 91.1875 139.083 90.4792 139.375 89.5625ZM131.688 106.188C132.188 105.312 132.312 104.375 132.062 103.375C131.812 102.375 131.25 101.625 130.375 101.125L110.188 89.5C109.271 88.9583 108.312 88.8333 107.312 89.125C106.354 89.375 105.625 89.9375 105.125 90.8125C104.583 91.7292 104.438 92.6875 104.688 93.6875C104.979 94.6458 105.583 95.3958 106.5 95.9375L126.625 107.562C127.542 108.062 128.479 108.188 129.438 107.938C130.396 107.646 131.146 107.062 131.688 106.188ZM120.938 121.312C121.729 120.521 122.104 119.604 122.062 118.562C122.062 117.521 121.729 116.667 121.062 116L115.312 110.375C114.562 109.667 113.667 109.292 112.625 109.25C111.625 109.208 110.729 109.583 109.938 110.375C109.229 111.167 108.875 112.042 108.875 113C108.917 113.958 109.312 114.812 110.062 115.562L115.688 121.188C116.479 121.979 117.354 122.375 118.312 122.375C119.312 122.417 120.188 122.062 120.938 121.312ZM105.875 132C106.792 131.5 107.375 130.75 107.625 129.75C107.875 128.75 107.75 127.812 107.25 126.938L95.625 106.812C95.125 105.854 94.375 105.25 93.375 105C92.375 104.75 91.4375 104.875 90.5625 105.375C89.6875 105.917 89.1042 106.688 88.8125 107.688C88.5208 108.646 88.6667 109.583 89.25 110.5L100.812 130.625C101.354 131.542 102.104 132.125 103.062 132.375C104.021 132.625 104.958 132.5 105.875 132ZM89.125 139.75C90.2917 139.458 91.0625 138.854 91.4375 137.938C91.8542 137.062 91.9375 136.146 91.6875 135.188L89.6875 127.312C89.4375 126.312 88.8333 125.562 87.875 125.062C86.9583 124.562 86 124.458 85 124.75C83.9167 125.042 83.1458 125.625 82.6875 126.5C82.2292 127.417 82.1458 128.354 82.4375 129.312L84.6875 136.938C84.9792 137.979 85.5 138.75 86.25 139.25C87.0417 139.792 88 139.958 89.125 139.75ZM70.625 141.438C71.7083 141.438 72.6042 141.062 73.3125 140.312C74.0208 139.604 74.375 138.729 74.375 137.688V114.5C74.375 113.417 74.0208 112.521 73.3125 111.812C72.6042 111.104 71.7083 110.75 70.625 110.75C69.625 110.75 68.75 111.104 68 111.812C67.2917 112.521 66.9375 113.417 66.9375 114.5V137.688C66.9375 138.729 67.2917 139.604 68 140.312C68.75 141.062 69.625 141.438 70.625 141.438ZM51.875 139.688C53.0417 140.062 54.0833 139.958 55 139.375C55.9167 138.833 56.5 138.083 56.75 137.125L58.875 129.438C59.1667 128.438 59.0625 127.479 58.5625 126.562C58.0625 125.688 57.3125 125.125 56.3125 124.875C55.3125 124.625 54.3542 124.729 53.4375 125.188C52.5625 125.688 52 126.458 51.75 127.5L49.6875 135.188C49.3958 136.271 49.4167 137.208 49.75 138C50.125 138.792 50.8333 139.354 51.875 139.688ZM35.4375 132C36.3125 132.5 37.25 132.625 38.25 132.375C39.25 132.125 40 131.542 40.5 130.625L52.125 110.5C52.6667 109.583 52.7917 108.646 52.5 107.688C52.25 106.688 51.6875 105.917 50.8125 105.375C49.8958 104.875 48.9375 104.75 47.9375 105C46.9792 105.25 46.2292 105.854 45.6875 106.812L34.125 126.938C33.5833 127.812 33.4375 128.729 33.6875 129.688C33.9792 130.688 34.5625 131.458 35.4375 132ZM20.375 121.25C21.1667 122 22.0417 122.375 23 122.375C24 122.417 24.8542 122.083 25.5625 121.375L31.25 115.75C32 114.917 32.3958 114.021 32.4375 113.062C32.4792 112.104 32.1042 111.25 31.3125 110.5C30.6042 109.75 29.7292 109.375 28.6875 109.375C27.6458 109.333 26.7708 109.688 26.0625 110.438L20.5 116.062C19.7083 116.896 19.2917 117.771 19.25 118.688C19.25 119.646 19.625 120.5 20.375 121.25ZM9.625 106.188C10.125 107.062 10.875 107.646 11.875 107.938C12.875 108.188 13.8125 108.062 14.6875 107.562L34.8125 95.9375C35.7708 95.3958 36.375 94.6458 36.625 93.6875C36.875 92.6875 36.75 91.75 36.25 90.875C35.7083 89.9583 34.9375 89.375 33.9375 89.125C32.9792 88.8333 32.0417 88.9583 31.125 89.5L11 101.125C10.0833 101.625 9.5 102.375 9.25 103.375C9 104.333 9.125 105.271 9.625 106.188ZM1.9375 89.375C2.1875 90.375 2.77083 91.125 3.6875 91.625C4.60417 92.0833 5.54167 92.2083 6.5 92L14.25 90.0625C15.2917 89.7708 16.0625 89.2083 16.5625 88.375C17.0625 87.5 17.1667 86.5417 16.875 85.5C16.5833 84.5 16 83.75 15.125 83.25C14.25 82.7083 13.2917 82.5625 12.25 82.8125L4.75 84.875C3.58333 85.2083 2.75 85.8125 2.25 86.6875C1.79167 87.5208 1.6875 88.4167 1.9375 89.375ZM0.1875 70.9375C0.1875 71.9792 0.541667 72.875 1.25 73.625C2 74.3333 2.89583 74.6875 3.9375 74.6875H27.125C28.2083 74.6875 29.1042 74.3333 29.8125 73.625C30.5208 72.875 30.875 71.9792 30.875 70.9375C30.875 69.8958 30.5208 69.0208 29.8125 68.3125C29.1042 67.6042 28.2083 67.25 27.125 67.25H3.9375C2.89583 67.25 2 67.6042 1.25 68.3125C0.541667 69.0208 0.1875 69.8958 0.1875 70.9375ZM1.875 52.5625C1.66667 53.5625 1.83333 54.5 2.375 55.375C2.91667 56.25 3.64583 56.8333 4.5625 57.125L12.25 59.3125C13.2917 59.5625 14.25 59.4375 15.125 58.9375C16.0417 58.4375 16.6042 57.6667 16.8125 56.625C17.0625 55.625 16.9583 54.6667 16.5 53.75C16.0417 52.8333 15.2917 52.25 14.25 52L6.5625 50.0625C5.4375 49.7708 4.41667 49.875 3.5 50.375C2.625 50.875 2.08333 51.6042 1.875 52.5625ZM9.6875 35.6875C9.14583 36.6042 9 37.5625 9.25 38.5625C9.5 39.5208 10.0833 40.2708 11 40.8125L31.125 52.4375C32.0417 52.9792 32.9792 53.125 33.9375 52.875C34.9375 52.5833 35.7083 52 36.25 51.125C36.75 50.2083 36.875 49.25 36.625 48.25C36.375 47.25 35.7708 46.5 34.8125 46L14.6875 34.375C13.8125 33.875 12.875 33.75 11.875 34C10.9167 34.25 10.1875 34.8125 9.6875 35.6875ZM20.3125 20.6875C19.5625 21.3958 19.2083 22.2708 19.25 23.3125C19.3333 24.3542 19.7083 25.2292 20.375 25.9375L25.9375 31.5625C26.7292 32.3542 27.6042 32.7708 28.5625 32.8125C29.5625 32.8125 30.4583 32.4167 31.25 31.625C31.9583 30.9167 32.3125 30.0625 32.3125 29.0625C32.3542 28.0208 31.9792 27.1042 31.1875 26.3125L25.625 20.75C24.8333 19.9167 23.9375 19.5208 22.9375 19.5625C21.9792 19.5625 21.1042 19.9375 20.3125 20.6875ZM35.4375 9.875C34.5625 10.4167 33.9792 11.1875 33.6875 12.1875C33.4375 13.1458 33.5833 14.0833 34.125 15L45.6875 35.125C46.2292 36.0417 46.9792 36.6458 47.9375 36.9375C48.9375 37.1875 49.875 37.0417 50.75 36.5C51.6667 36 52.25 35.2708 52.5 34.3125C52.7917 33.3125 52.6667 32.3542 52.125 31.4375L40.5 11.25C39.9583 10.375 39.2083 9.8125 38.25 9.5625C37.2917 9.27083 36.3542 9.375 35.4375 9.875ZM52.1875 2.1875C51.1458 2.39583 50.375 2.9375 49.875 3.8125C49.4167 4.64583 49.3333 5.64583 49.625 6.8125L51.6875 14.6875C51.9375 15.6458 52.5 16.3542 53.375 16.8125C54.2917 17.2708 55.3333 17.3333 56.5 17C57.625 16.6667 58.375 16.1042 58.75 15.3125C59.1667 14.4792 59.2292 13.5625 58.9375 12.5625L56.75 5C56.4583 3.875 55.875 3.08333 55 2.625C54.1667 2.125 53.2292 1.97917 52.1875 2.1875Z" fill="white"/>
</svg>
