<svg xmlns="http://www.w3.org/2000/svg" width="24" height="24"><path style="stroke:none;fill-rule:nonzero;fill:#fff;fill-opacity:1" d="M12 23.05c1.633 0 3.168-.292 4.605-.882a12.22 12.22 0 0 0 3.82-2.438 11.467 11.467 0 0 0 2.59-3.582c.626-1.363.938-2.808.938-4.347a10.2 10.2 0 0 0-.937-4.332 11.53 11.53 0 0 0-2.59-3.598 12.078 12.078 0 0 0-3.809-2.437A12.106 12.106 0 0 0 12.012.55c-.313 0-.547.086-.703.254-.149.16-.223.386-.223.672v4.27c0 .241.078.448.234.616.16.16.387.25.621.242a.812.812 0 0 0 .621-.242.845.845 0 0 0 .247-.617V1.457l-.82.969c1.39 0 2.687.242 3.89.73a9.82 9.82 0 0 1 3.164 2.004 9.136 9.136 0 0 1 2.133 2.992 8.685 8.685 0 0 1 .773 3.649c0 1.3-.258 2.52-.773 3.652a9.278 9.278 0 0 1-2.133 2.988 10.009 10.009 0 0 1-3.164 2.008c-1.203.485-2.496.727-3.879.727a10.222 10.222 0 0 1-7.066-2.734A9.548 9.548 0 0 1 2.8 15.452a8.83 8.83 0 0 1-.762-3.652c0-1.121.215-2.235.633-3.285a8.983 8.983 0 0 1 1.734-2.77c.172-.215.262-.441.27-.684a.831.831 0 0 0-.281-.648.892.892 0 0 0-.727-.258c-.281.016-.527.145-.738.387A11.516 11.516 0 0 0 .82 7.887 10.009 10.009 0 0 0 .047 11.8c0 1.539.312 2.984.937 4.347a11.467 11.467 0 0 0 2.59 3.582 12.236 12.236 0 0 0 3.809 2.438c1.445.59 2.984.883 4.617.883Zm1.875-9.66c.313-.308.5-.636.563-.98a1.615 1.615 0 0 0-.153-1.027c-.156-.332-.418-.617-.785-.86L7.3 6.441c-.195-.125-.378-.156-.55-.101a.551.551 0 0 0-.352.332c-.054.156-.015.324.118.508l4.324 5.836c.258.351.562.605.914.761a1.963 1.963 0 0 0 2.121-.387Zm0 0"/></svg>