<svg width="128" height="128" viewBox="0 0 128 128" fill="none" xmlns="http://www.w3.org/2000/svg">
<path d="M63.9375 127.625C72.6458 127.625 80.8333 125.958 88.5 122.625C96.2083 119.292 103 114.688 108.875 108.812C114.75 102.938 119.354 96.1667 122.688 88.5C126.021 80.7917 127.688 72.5833 127.688 63.875C127.688 55.1667 126.021 46.9792 122.688 39.3125C119.354 31.6042 114.75 24.8125 108.875 18.9375C103 13.0625 96.2083 8.45833 88.5 5.125C80.7917 1.79167 72.5833 0.125 63.875 0.125C55.1667 0.125 46.9583 1.79167 39.25 5.125C31.5833 8.45833 24.8125 13.0625 18.9375 18.9375C13.1042 24.8125 8.52083 31.6042 5.1875 39.3125C1.85417 46.9792 0.1875 55.1667 0.1875 63.875C0.1875 72.5833 1.85417 80.7917 5.1875 88.5C8.52083 96.1667 13.125 102.938 19 108.812C24.875 114.688 31.6458 119.292 39.3125 122.625C47.0208 125.958 55.2292 127.625 63.9375 127.625ZM63.9375 117C56.5625 117 49.6667 115.625 43.25 112.875C36.8333 110.125 31.1875 106.333 26.3125 101.5C21.4792 96.625 17.6875 90.9792 14.9375 84.5625C12.2292 78.1458 10.875 71.25 10.875 63.875C10.875 56.5 12.2292 49.6042 14.9375 43.1875C17.6875 36.7708 21.4792 31.125 26.3125 26.25C31.1458 21.375 36.7708 17.5833 43.1875 14.875C49.6042 12.125 56.5 10.75 63.875 10.75C71.25 10.75 78.1458 12.125 84.5625 14.875C91.0208 17.5833 96.6667 21.375 101.5 26.25C106.375 31.125 110.188 36.7708 112.938 43.1875C115.688 49.6042 117.062 56.5 117.062 63.875C117.062 71.25 115.688 78.1458 112.938 84.5625C110.229 90.9792 106.438 96.625 101.562 101.5C96.6875 106.333 91.0417 110.125 84.625 112.875C78.2083 115.625 71.3125 117 63.9375 117ZM63.375 58.1875C70.3333 58.1875 76.3125 57.6458 81.3125 56.5625C86.3125 55.4375 90.1458 53.8958 92.8125 51.9375C95.4792 49.9792 96.8125 47.7083 96.8125 45.125C96.8125 41.5833 94.5625 38.8333 90.0625 36.875C85.6042 34.875 79.9167 33.875 73 33.875C67.875 33.875 63.2708 34.3333 59.1875 35.25C55.1458 36.125 51.625 37.2708 48.625 38.6875C47.625 39.1875 47 39.875 46.75 40.75C46.5 41.625 46.5625 42.4167 46.9375 43.125C47.3125 43.9167 47.9375 44.4375 48.8125 44.6875C49.7292 44.8958 50.6042 44.8125 51.4375 44.4375C54.1458 43.3125 57.2292 42.2917 60.6875 41.375C64.1458 40.4583 68.1667 40 72.75 40C78.375 40 82.6875 40.5208 85.6875 41.5625C88.6875 42.6042 90.1875 43.7708 90.1875 45.0625C90.1875 46.0625 89.125 47.1042 87 48.1875C84.875 49.2292 81.7917 50.1042 77.75 50.8125C73.7083 51.5208 68.8333 51.875 63.125 51.875C54.625 51.875 48.2292 51.0833 43.9375 49.5C39.6875 47.9167 37.5625 45.6458 37.5625 42.6875C37.5625 40.8958 38.5 39.1042 40.375 37.3125C42.25 35.5208 45.6042 33.875 50.4375 32.375C51.3958 32.0417 52.0833 31.5 52.5 30.75C52.9583 29.9583 53.0625 29.125 52.8125 28.25C52.1458 26.4583 50.6667 25.875 48.375 26.5C42.5833 28.25 38.2292 30.5833 35.3125 33.5C32.4375 36.375 31 39.4792 31 42.8125C31 47.8542 33.7708 51.6875 39.3125 54.3125C44.8542 56.8958 52.875 58.1875 63.375 58.1875ZM64.375 69.375C69.75 69.375 74.8125 68.9583 79.5625 68.125C84.3542 67.2917 88.5 66.1458 92 64.6875C92.7917 64.3542 93.3542 63.8125 93.6875 63.0625C94.0208 62.3125 94 61.5417 93.625 60.75C93.25 60.0417 92.6667 59.6042 91.875 59.4375C91.125 59.2292 90.3125 59.2917 89.4375 59.625C86.3125 60.875 82.5625 61.8542 78.1875 62.5625C73.8542 63.2708 69.25 63.625 64.375 63.625C60.7083 63.625 56.9375 63.4167 53.0625 63C49.1875 62.5417 45.6042 61.8333 42.3125 60.875C41.4375 60.625 40.625 60.6458 39.875 60.9375C39.1667 61.2292 38.6667 61.7917 38.375 62.625C38.1667 63.4167 38.2708 64.1875 38.6875 64.9375C39.1042 65.6458 39.7917 66.125 40.75 66.375C44.25 67.375 48.1042 68.125 52.3125 68.625C56.5625 69.125 60.5833 69.375 64.375 69.375ZM66.6875 80.375C71.1875 80.375 75.5417 80.0625 79.75 79.4375C83.9583 78.7708 88 77.7917 91.875 76.5C92.9167 76.0833 93.5625 75.4792 93.8125 74.6875C94.1042 73.8958 94.1042 73.1667 93.8125 72.5C93.5625 71.75 93.0417 71.25 92.25 71C91.5 70.75 90.625 70.7917 89.625 71.125C85.9167 72.3333 82.1667 73.25 78.375 73.875C74.5833 74.4583 70.6875 74.75 66.6875 74.75C64.9792 74.75 63.2708 74.6875 61.5625 74.5625C59.8958 74.4375 58.3542 74.2917 56.9375 74.125C55.9792 74 55.1875 74.1458 54.5625 74.5625C53.9375 74.9375 53.5417 75.5 53.375 76.25C53.2083 77.0417 53.3333 77.7708 53.75 78.4375C54.2083 79.1042 54.9792 79.5417 56.0625 79.75C57.3958 79.9583 58.9792 80.125 60.8125 80.25C62.6458 80.375 64.6042 80.4167 66.6875 80.375ZM63.5 90.875C66.625 91.25 69.9792 91.375 73.5625 91.25C77.1458 91.0833 80.5625 90.5417 83.8125 89.625C84.7708 89.3333 85.4167 88.8333 85.75 88.125C86.125 87.375 86.2083 86.6458 86 85.9375C85.7083 85.1042 85.2083 84.5417 84.5 84.25C83.7917 83.9167 82.9375 83.8958 81.9375 84.1875C79.2292 84.8958 76.3542 85.3542 73.3125 85.5625C70.2708 85.7708 67.3125 85.6667 64.4375 85.25C63.4375 85.2083 62.6042 85.3958 61.9375 85.8125C61.3125 86.2292 60.9375 86.8542 60.8125 87.6875C60.7292 88.4375 60.8958 89.125 61.3125 89.75C61.7708 90.375 62.5 90.75 63.5 90.875ZM61.125 101.625C62.2917 101.75 63.4792 101.812 64.6875 101.812C65.8958 101.812 67.0833 101.75 68.25 101.625C69.2083 101.458 69.9167 101.083 70.375 100.5C70.8333 99.9167 71.0208 99.25 70.9375 98.5C70.8542 97.7917 70.5208 97.2083 69.9375 96.75C69.3542 96.25 68.5625 96.0625 67.5625 96.1875C66.6042 96.3125 65.625 96.3958 64.625 96.4375C63.6667 96.4375 62.7083 96.3542 61.75 96.1875C60.7917 96.0625 60.0208 96.25 59.4375 96.75C58.8542 97.2083 58.5 97.7708 58.375 98.4375C58.2917 99.1875 58.4583 99.875 58.875 100.5C59.3333 101.125 60.0833 101.5 61.125 101.625Z" fill="white"/>
</svg>
