<svg width="207" height="104" viewBox="0 0 207 104" fill="none" xmlns="http://www.w3.org/2000/svg">
<path d="M76.1875 40.8125C84.8125 40.7708 92.6875 39.2292 99.8125 36.1875C106.979 33.1458 113.396 28.5208 119.062 22.3125C115.229 17.4375 111.229 13.4167 107.062 10.25C102.896 7.04167 98.3333 4.66667 93.375 3.125C88.4583 1.54167 82.875 0.75 76.625 0.75C70.4167 0.708333 64.8333 1.41667 59.875 2.875C54.9583 4.29167 50.375 6.60417 46.125 9.8125C41.9167 13.0208 37.7917 17.2708 33.75 22.5625C39.5 28.7708 46 33.375 53.25 36.375C60.5 39.3333 68.1458 40.8125 76.1875 40.8125ZM35.625 78.75C38.75 75.75 41.6042 72.2917 44.1875 68.375C46.8125 64.4583 48.9583 60.4375 50.625 56.3125C52.3333 52.1458 53.3958 48.2292 53.8125 44.5625C49.6042 43.0208 45.1875 40.8542 40.5625 38.0625C35.9792 35.2708 32.1875 32.25 29.1875 29C27.6875 31.25 26.1875 33.625 24.6875 36.125C23.1875 38.625 21.75 41.25 20.375 44C18.4167 47.875 16.4167 51.125 14.375 53.75C12.375 56.375 10.4375 58.5833 8.5625 60.375C6.72917 62.125 5.10417 63.6667 3.6875 65C2.85417 65.7917 2.1875 66.6667 1.6875 67.625C1.1875 68.5417 0.9375 69.6042 0.9375 70.8125C0.9375 72.6458 1.875 74.0417 3.75 75C5.625 75.9583 8.25 76.4375 11.625 76.4375H19.125C22.6667 76.4375 25.7083 76.6458 28.25 77.0625C30.8333 77.4792 33.2917 78.0417 35.625 78.75ZM76.0625 93.125C80.8125 93.125 85.1458 92.4375 89.0625 91.0625C92.9792 89.6875 96.5625 88.0833 99.8125 86.25C103.062 84.4167 106.083 82.8125 108.875 81.4375C105.708 78.4375 102.938 75.0208 100.562 71.1875C98.1875 67.3542 96.2708 63.3542 94.8125 59.1875C93.3958 54.9792 92.5417 50.8125 92.25 46.6875C87.125 48.1042 81.8333 48.8125 76.375 48.8125C73.6667 48.8542 71 48.7083 68.375 48.375C65.75 48 63.1667 47.4792 60.625 46.8125C60.2917 50.6458 59.3958 54.6667 57.9375 58.875C56.5208 63.0417 54.6042 67.1042 52.1875 71.0625C49.8125 75.0208 47.0208 78.5833 43.8125 81.75C46.5208 82.7917 49.4375 84.2292 52.5625 86.0625C55.7292 87.8542 59.2292 89.4792 63.0625 90.9375C66.9375 92.3958 71.2708 93.125 76.0625 93.125ZM116.188 78.4375C119.021 77.7708 121.812 77.25 124.562 76.875C127.312 76.4583 130.521 76.25 134.188 76.25C137.188 76.25 140.021 76.0417 142.688 75.625C145.396 75.1667 147.458 74.5208 148.875 73.6875C147.5 71.8958 145.938 69.5208 144.188 66.5625C142.479 63.6042 140.667 60.3542 138.75 56.8125C136.833 53.2292 134.938 49.6458 133.062 46.0625C131.188 42.4792 129.396 39.1458 127.688 36.0625C126.021 32.9375 124.542 30.375 123.25 28.375C121.083 30.5833 118.583 32.75 115.75 34.875C112.917 36.9583 110.042 38.8333 107.125 40.5C104.25 42.1667 101.604 43.4583 99.1875 44.375C99.5625 48.125 100.479 52 101.938 56C103.396 60 105.312 63.9375 107.688 67.8125C110.104 71.6458 112.938 75.1875 116.188 78.4375ZM18.4375 103.75C23.8958 103.75 29.1458 102.646 34.1875 100.438C39.2292 98.2292 43.0625 95.2917 45.6875 91.625C42.6042 89.5833 39.2083 87.75 35.5 86.125C31.7917 84.5 28.1042 83.6042 24.4375 83.4375C22.7708 83.8958 21.0208 84.2292 19.1875 84.4375C17.3958 84.6042 15.5417 84.875 13.625 85.25C10.9583 85.75 8.58333 86.625 6.5 87.875C4.41667 89.125 3.375 91.0417 3.375 93.625C3.375 96.875 4.8125 99.375 7.6875 101.125C10.6042 102.875 14.1875 103.75 18.4375 103.75ZM131.562 103.875C135.812 103.875 139.375 103 142.25 101.25C145.167 99.5417 146.625 97.0417 146.625 93.75C146.625 92.0417 146.146 90.4792 145.188 89.0625C144.229 87.6458 142.958 86.5 141.375 85.625C139.833 84.75 138.167 84.25 136.375 84.125C134.417 84.0417 132.604 83.9792 130.938 83.9375C129.312 83.8542 127.521 83.75 125.562 83.625C123.146 83.75 120.708 84.2083 118.25 85C115.792 85.7917 113.375 86.7708 111 87.9375C108.667 89.1458 106.438 90.4167 104.312 91.75C106.062 94.2083 108.375 96.3333 111.25 98.125C114.167 99.9583 117.375 101.375 120.875 102.375C124.375 103.375 127.938 103.875 131.562 103.875ZM155.062 70.9375C158.021 69.6042 160.604 68.2292 162.812 66.8125C165.062 65.3958 167.479 64.2083 170.062 63.25C172.646 62.2917 175.938 61.8125 179.938 61.8125C185.354 61.8125 190.083 61.2083 194.125 60C198.167 58.75 201.292 57 203.5 54.75C205.75 52.4583 206.875 49.7708 206.875 46.6875C206.875 39.6042 205.688 33.375 203.312 28C200.979 22.625 197.688 18.4375 193.438 15.4375C189.188 12.3958 184.229 10.875 178.562 10.875C173.646 10.875 169.354 11.8125 165.688 13.6875C162.021 15.5208 158.958 18.1667 156.5 21.625C154.042 25.0833 152.229 29.1667 151.062 33.875C150.188 37.1667 149.229 39.8333 148.188 41.875C147.188 43.9167 146.146 45.5625 145.062 46.8125C143.979 48.0625 142.896 49.1458 141.812 50.0625C143.312 52.2292 145.25 55.3125 147.625 59.3125C150.042 63.3125 152.521 67.1875 155.062 70.9375ZM180.062 40.4375C178.562 40.4375 177.292 39.9167 176.25 38.875C175.208 37.8333 174.688 36.5625 174.688 35.0625C174.688 33.6042 175.208 32.3542 176.25 31.3125C177.292 30.2708 178.562 29.75 180.062 29.75C181.479 29.75 182.708 30.2708 183.75 31.3125C184.833 32.3542 185.375 33.6042 185.375 35.0625C185.375 36.5625 184.833 37.8333 183.75 38.875C182.708 39.9167 181.479 40.4375 180.062 40.4375Z" fill="white"/>
</svg>
