<?xml version="1.0" encoding="UTF-8"?>
<svg xmlns="http://www.w3.org/2000/svg" xmlns:xlink="http://www.w3.org/1999/xlink" width="24" height="12.923077" viewBox="0 0 24 12.923077" version="1.1">
<g id="surface1">
<path style=" stroke:none;fill-rule:nonzero;fill:rgb(100%,100%,100%);fill-opacity:1;" d="M 8.796875 4.824219 C 9.792969 4.820312 10.703125 4.640625 11.523438 4.289062 C 12.351562 3.941406 13.089844 3.40625 13.746094 2.691406 C 13.304688 2.128906 12.839844 1.664062 12.359375 1.296875 C 11.878906 0.929688 11.351562 0.652344 10.78125 0.476562 C 10.214844 0.292969 9.570312 0.203125 8.847656 0.203125 C 8.132812 0.195312 7.488281 0.277344 6.914062 0.445312 C 6.347656 0.609375 5.820312 0.878906 5.328125 1.246094 C 4.84375 1.617188 4.367188 2.109375 3.902344 2.71875 C 4.566406 3.433594 5.316406 3.964844 6.152344 4.3125 C 6.988281 4.652344 7.871094 4.824219 8.796875 4.824219 Z M 4.117188 9.203125 C 4.476562 8.855469 4.808594 8.457031 5.105469 8.003906 C 5.410156 7.554688 5.65625 7.089844 5.847656 6.613281 C 6.046875 6.132812 6.167969 5.679688 6.214844 5.257812 C 5.730469 5.078125 5.222656 4.828125 4.6875 4.507812 C 4.160156 4.183594 3.722656 3.835938 3.375 3.460938 C 3.203125 3.722656 3.027344 3.996094 2.855469 4.285156 C 2.683594 4.570312 2.515625 4.875 2.359375 5.191406 C 2.132812 5.640625 1.902344 6.015625 1.664062 6.316406 C 1.433594 6.621094 1.210938 6.875 0.996094 7.082031 C 0.785156 7.285156 0.597656 7.460938 0.433594 7.617188 C 0.335938 7.707031 0.257812 7.808594 0.203125 7.917969 C 0.144531 8.023438 0.117188 8.148438 0.117188 8.285156 C 0.117188 8.496094 0.222656 8.660156 0.441406 8.769531 C 0.65625 8.878906 0.960938 8.933594 1.347656 8.933594 L 2.214844 8.933594 C 2.621094 8.933594 2.972656 8.960938 3.265625 9.007812 C 3.566406 9.054688 3.847656 9.121094 4.117188 9.203125 Z M 8.785156 10.859375 C 9.332031 10.859375 9.832031 10.78125 10.285156 10.621094 C 10.734375 10.464844 11.148438 10.277344 11.523438 10.066406 C 11.898438 9.855469 12.246094 9.671875 12.570312 9.511719 C 12.203125 9.164062 11.882812 8.773438 11.609375 8.328125 C 11.335938 7.886719 11.117188 7.425781 10.945312 6.945312 C 10.785156 6.460938 10.683594 5.976562 10.652344 5.503906 C 10.058594 5.664062 9.449219 5.746094 8.820312 5.746094 C 8.507812 5.753906 8.199219 5.734375 7.898438 5.695312 C 7.59375 5.652344 7.296875 5.59375 7.003906 5.515625 C 6.964844 5.960938 6.859375 6.421875 6.691406 6.910156 C 6.527344 7.390625 6.308594 7.859375 6.027344 8.316406 C 5.753906 8.773438 5.433594 9.183594 5.0625 9.546875 C 5.375 9.667969 5.710938 9.835938 6.070312 10.046875 C 6.4375 10.253906 6.839844 10.441406 7.285156 10.609375 C 7.730469 10.777344 8.230469 10.859375 8.785156 10.859375 Z M 13.414062 9.164062 C 13.742188 9.089844 14.0625 9.027344 14.378906 8.984375 C 14.695312 8.9375 15.066406 8.914062 15.492188 8.914062 C 15.835938 8.914062 16.164062 8.890625 16.472656 8.839844 C 16.785156 8.789062 17.023438 8.714844 17.183594 8.617188 C 17.027344 8.410156 16.847656 8.136719 16.644531 7.796875 C 16.445312 7.453125 16.238281 7.078125 16.015625 6.671875 C 15.796875 6.257812 15.578125 5.84375 15.359375 5.429688 C 15.144531 5.015625 14.9375 4.632812 14.742188 4.277344 C 14.546875 3.914062 14.378906 3.621094 14.226562 3.390625 C 13.976562 3.644531 13.691406 3.894531 13.363281 4.140625 C 13.035156 4.378906 12.703125 4.597656 12.367188 4.789062 C 12.035156 4.980469 11.730469 5.128906 11.453125 5.234375 C 11.496094 5.667969 11.601562 6.117188 11.769531 6.578125 C 11.9375 7.039062 12.160156 7.492188 12.433594 7.941406 C 12.710938 8.382812 13.039062 8.789062 13.414062 9.164062 Z M 2.132812 12.085938 C 2.765625 12.085938 3.371094 11.960938 3.953125 11.703125 C 4.535156 11.449219 4.976562 11.109375 5.277344 10.6875 C 4.921875 10.453125 4.53125 10.242188 4.101562 10.054688 C 3.675781 9.867188 3.25 9.761719 2.828125 9.742188 C 2.632812 9.796875 2.433594 9.835938 2.222656 9.859375 C 2.015625 9.878906 1.800781 9.910156 1.578125 9.953125 C 1.273438 10.007812 0.996094 10.109375 0.757812 10.253906 C 0.515625 10.398438 0.398438 10.621094 0.398438 10.917969 C 0.398438 11.292969 0.5625 11.582031 0.894531 11.785156 C 1.230469 11.984375 1.644531 12.085938 2.132812 12.085938 Z M 15.1875 12.101562 C 15.679688 12.101562 16.089844 12 16.421875 11.796875 C 16.757812 11.601562 16.925781 11.3125 16.925781 10.933594 C 16.925781 10.734375 16.871094 10.554688 16.757812 10.390625 C 16.648438 10.226562 16.503906 10.097656 16.320312 9.996094 C 16.140625 9.894531 15.949219 9.835938 15.742188 9.820312 C 15.515625 9.8125 15.308594 9.804688 15.117188 9.800781 C 14.929688 9.789062 14.722656 9.777344 14.496094 9.765625 C 14.214844 9.777344 13.933594 9.832031 13.652344 9.921875 C 13.367188 10.015625 13.089844 10.128906 12.816406 10.261719 C 12.546875 10.402344 12.289062 10.546875 12.042969 10.703125 C 12.246094 10.984375 12.511719 11.230469 12.84375 11.4375 C 13.179688 11.648438 13.550781 11.8125 13.953125 11.929688 C 14.359375 12.042969 14.769531 12.101562 15.1875 12.101562 Z M 17.898438 8.300781 C 18.242188 8.148438 18.539062 7.988281 18.792969 7.824219 C 19.054688 7.660156 19.332031 7.523438 19.628906 7.414062 C 19.929688 7.304688 20.308594 7.246094 20.769531 7.246094 C 21.394531 7.246094 21.941406 7.179688 22.40625 7.039062 C 22.871094 6.894531 23.234375 6.691406 23.488281 6.433594 C 23.746094 6.167969 23.878906 5.859375 23.878906 5.503906 C 23.878906 4.683594 23.742188 3.964844 23.464844 3.347656 C 23.195312 2.726562 22.816406 2.242188 22.328125 1.898438 C 21.835938 1.546875 21.265625 1.371094 20.609375 1.371094 C 20.042969 1.371094 19.546875 1.476562 19.125 1.695312 C 18.703125 1.90625 18.347656 2.210938 18.066406 2.609375 C 17.78125 3.007812 17.570312 3.480469 17.4375 4.023438 C 17.335938 4.402344 17.226562 4.710938 17.105469 4.945312 C 16.992188 5.183594 16.871094 5.371094 16.746094 5.515625 C 16.621094 5.660156 16.496094 5.785156 16.371094 5.890625 C 16.542969 6.140625 16.765625 6.496094 17.039062 6.960938 C 17.320312 7.421875 17.605469 7.867188 17.898438 8.300781 Z M 20.785156 4.78125 C 20.609375 4.78125 20.464844 4.722656 20.34375 4.601562 C 20.222656 4.480469 20.164062 4.335938 20.164062 4.160156 C 20.164062 3.992188 20.222656 3.847656 20.34375 3.726562 C 20.464844 3.609375 20.609375 3.546875 20.785156 3.546875 C 20.945312 3.546875 21.089844 3.609375 21.210938 3.726562 C 21.335938 3.847656 21.398438 3.992188 21.398438 4.160156 C 21.398438 4.335938 21.335938 4.480469 21.210938 4.601562 C 21.089844 4.722656 20.945312 4.78125 20.785156 4.78125 Z M 20.785156 4.78125 "/>
</g>
</svg>
