<svg width="18" height="18" viewBox="0 0 18 18" fill="none" xmlns="http://www.w3.org/2000/svg">
<path d="M1.28906 12C1.40365 11.9635 1.48438 11.8932 1.53125 11.7891C1.58333 11.6797 1.59375 11.5599 1.5625 11.4297C1.46354 11.0339 1.38802 10.6198 1.33594 10.1875C1.28385 9.75 1.26823 9.25781 1.28906 8.71094C1.29427 8.5651 1.26042 8.45312 1.1875 8.375C1.11458 8.29688 1.02083 8.25521 0.90625 8.25C0.755208 8.23958 0.638021 8.27344 0.554688 8.35156C0.476562 8.42969 0.429688 8.53125 0.414062 8.65625C0.382812 9.09375 0.388021 9.57292 0.429688 10.0938C0.471354 10.6094 0.567708 11.138 0.71875 11.6797C0.760417 11.8151 0.835938 11.9115 0.945312 11.9688C1.05469 12.026 1.16927 12.0365 1.28906 12ZM0.945312 7.34375C1.0599 7.38542 1.17969 7.38281 1.30469 7.33594C1.42969 7.28385 1.51823 7.18229 1.57031 7.03125C1.99219 5.85938 2.58333 4.88542 3.34375 4.10938C4.10417 3.32812 4.96354 2.74219 5.92188 2.35156C6.88542 1.96094 7.875 1.76562 8.89062 1.76562C9.58333 1.76562 10.2083 1.83594 10.7656 1.97656C11.3281 2.11198 11.8411 2.3125 12.3047 2.57812C12.4401 2.65625 12.5729 2.69271 12.7031 2.6875C12.8333 2.67708 12.9271 2.60677 12.9844 2.47656C13.0469 2.34115 13.0521 2.22917 13 2.14062C12.9479 2.04688 12.8724 1.96875 12.7734 1.90625C12.1797 1.53125 11.5703 1.26823 10.9453 1.11719C10.3203 0.966146 9.63542 0.890625 8.89062 0.890625C8.01042 0.890625 7.15625 1.00781 6.32812 1.24219C5.50521 1.47656 4.73438 1.83333 4.01562 2.3125C3.30208 2.78646 2.66406 3.38021 2.10156 4.09375C1.53906 4.80729 1.07812 5.64323 0.71875 6.60156C0.645833 6.79948 0.638021 6.96354 0.695312 7.09375C0.752604 7.21875 0.835938 7.30208 0.945312 7.34375ZM17.1953 10.1797C17.3203 10.1797 17.4219 10.1354 17.5 10.0469C17.5781 9.95312 17.612 9.83854 17.6016 9.70312C17.4818 8.64062 17.2839 7.70052 17.0078 6.88281C16.737 6.0599 16.3828 5.32812 15.9453 4.6875C15.513 4.04688 14.9974 3.46354 14.3984 2.9375C14.2839 2.83854 14.1667 2.79688 14.0469 2.8125C13.9271 2.82812 13.8333 2.875 13.7656 2.95312C13.6927 3.03646 13.6562 3.13802 13.6562 3.25781C13.6615 3.3724 13.7214 3.48177 13.8359 3.58594C14.6068 4.30469 15.2526 5.15365 15.7734 6.13281C16.2995 7.10677 16.6276 8.30208 16.7578 9.71875C16.7734 9.84896 16.8177 9.95833 16.8906 10.0469C16.9688 10.1354 17.0703 10.1797 17.1953 10.1797ZM2.19531 14.2656C2.26823 14.3698 2.36979 14.4323 2.5 14.4531C2.63021 14.4688 2.75 14.4297 2.85938 14.3359C3.14062 14.1016 3.35156 13.8021 3.49219 13.4375C3.63281 13.0729 3.70312 12.6927 3.70312 12.2969C3.70312 11.9375 3.66406 11.6198 3.58594 11.3438C3.50781 11.0625 3.42969 10.7682 3.35156 10.4609C3.27344 10.1536 3.23438 9.77604 3.23438 9.32812C3.23438 8.5625 3.38021 7.84375 3.67188 7.17188C3.96875 6.49479 4.375 5.89844 4.89062 5.38281C5.40625 4.86198 6.0026 4.45573 6.67969 4.16406C7.35677 3.86719 8.07812 3.71875 8.84375 3.71875C10.0781 3.71875 11.1484 4.03385 12.0547 4.66406C12.9661 5.28906 13.6719 6.16406 14.1719 7.28906C14.6719 8.40885 14.9245 9.71354 14.9297 11.2031C14.9297 12.0729 14.8698 12.8177 14.75 13.4375C14.6302 14.0521 14.4974 14.5365 14.3516 14.8906C14.2995 15.0156 14.2943 15.1354 14.3359 15.25C14.3776 15.3646 14.4479 15.4479 14.5469 15.5C14.6562 15.5469 14.7734 15.5495 14.8984 15.5078C15.0286 15.4661 15.1172 15.3828 15.1641 15.2578C15.3151 14.8411 15.4583 14.2943 15.5938 13.6172C15.7344 12.9401 15.8047 12.1328 15.8047 11.1953C15.8047 9.95052 15.6406 8.81771 15.3125 7.79688C14.9844 6.77604 14.5156 5.89583 13.9062 5.15625C13.2969 4.41667 12.5651 3.84635 11.7109 3.44531C10.8568 3.04427 9.90104 2.84375 8.84375 2.84375C7.95833 2.84375 7.1224 3.01562 6.33594 3.35938C5.55469 3.69792 4.86458 4.16667 4.26562 4.76562C3.67188 5.35938 3.20573 6.04688 2.86719 6.82812C2.52865 7.60938 2.35938 8.44271 2.35938 9.32812C2.35938 9.75521 2.39844 10.1406 2.47656 10.4844C2.5599 10.8281 2.64062 11.1484 2.71875 11.4453C2.80208 11.737 2.84635 12.0182 2.85156 12.2891C2.85156 12.5547 2.80208 12.8073 2.70312 13.0469C2.60938 13.2865 2.47135 13.487 2.28906 13.6484C2.19531 13.7266 2.14062 13.8255 2.125 13.9453C2.10938 14.0651 2.13281 14.1719 2.19531 14.2656ZM4.03906 15.7188C4.23177 15.6198 4.4375 15.4531 4.65625 15.2188C4.875 14.9896 5.07292 14.7318 5.25 14.4453C5.42708 14.1536 5.55208 13.8724 5.625 13.6016C5.65625 13.4922 5.64844 13.3828 5.60156 13.2734C5.55469 13.1589 5.46875 13.0807 5.34375 13.0391C5.23438 13.0026 5.1276 13.013 5.02344 13.0703C4.91927 13.1276 4.84635 13.2188 4.80469 13.3438C4.70052 13.6875 4.55208 13.9896 4.35938 14.25C4.17188 14.5104 3.9349 14.7396 3.64844 14.9375C3.50781 15.0365 3.42188 15.1406 3.39062 15.25C3.36458 15.3646 3.3724 15.4661 3.41406 15.5547C3.46094 15.6536 3.54167 15.724 3.65625 15.7656C3.77083 15.8073 3.89844 15.7917 4.03906 15.7188ZM5.71094 11.4844C5.61198 11.2188 5.5 10.9141 5.375 10.5703C5.25521 10.2266 5.19531 9.82812 5.19531 9.375C5.19531 8.68229 5.35938 8.05729 5.6875 7.5C6.01562 6.94271 6.45833 6.5 7.01562 6.17188C7.57292 5.84375 8.19792 5.67969 8.89062 5.67969C9.15625 5.67969 9.375 5.69271 9.54688 5.71875C9.71875 5.73958 9.88281 5.78125 10.0391 5.84375C10.2005 5.90625 10.3984 5.99219 10.6328 6.10156C10.7526 6.15885 10.862 6.17448 10.9609 6.14844C11.0651 6.11719 11.138 6.05729 11.1797 5.96875C11.2422 5.85938 11.2552 5.74479 11.2188 5.625C11.1823 5.50521 11.099 5.40625 10.9688 5.32812C10.7083 5.17708 10.3932 5.05208 10.0234 4.95312C9.65365 4.84896 9.27604 4.79688 8.89062 4.79688C8.25 4.79688 7.65104 4.91406 7.09375 5.14844C6.54167 5.38281 6.05729 5.70833 5.64062 6.125C5.22396 6.54167 4.89844 7.02865 4.66406 7.58594C4.42969 8.13802 4.3125 8.73438 4.3125 9.375C4.3125 9.86979 4.36719 10.3177 4.47656 10.7188C4.59115 11.1198 4.71615 11.487 4.85156 11.8203C4.90885 11.9505 4.99219 12.0417 5.10156 12.0938C5.21094 12.1458 5.33594 12.1432 5.47656 12.0859C5.59115 12.0391 5.66927 11.9583 5.71094 11.8438C5.7526 11.7292 5.7526 11.6094 5.71094 11.4844ZM11.8594 7.14844C12.2344 7.70052 12.5156 8.35417 12.7031 9.10938C12.8958 9.85938 12.9922 10.6953 12.9922 11.6172C12.9922 12.6016 12.8646 13.5312 12.6094 14.4062C12.3594 15.276 12.0208 15.9766 11.5938 16.5078C11.526 16.6016 11.4896 16.7083 11.4844 16.8281C11.4792 16.9479 11.5208 17.0495 11.6094 17.1328C11.7031 17.2214 11.8177 17.2604 11.9531 17.25C12.0885 17.2448 12.1953 17.1901 12.2734 17.0859C12.7474 16.4401 13.1276 15.6328 13.4141 14.6641C13.7057 13.6953 13.8516 12.6693 13.8516 11.5859C13.8516 10.7995 13.7995 10.1094 13.6953 9.51562C13.5911 8.91667 13.4453 8.39062 13.2578 7.9375C13.0755 7.47917 12.8672 7.0599 12.6328 6.67969C12.5495 6.55469 12.4453 6.47396 12.3203 6.4375C12.2005 6.40104 12.0859 6.41146 11.9766 6.46875C11.862 6.53125 11.7917 6.6276 11.7656 6.75781C11.7396 6.88281 11.7708 7.01302 11.8594 7.14844ZM5.67969 16.75C6.32031 16.2344 6.8099 15.5833 7.14844 14.7969C7.49219 14.0104 7.66146 13.1641 7.65625 12.2578C7.65104 11.7995 7.60677 11.3932 7.52344 11.0391C7.4401 10.6849 7.35677 10.3672 7.27344 10.0859C7.19531 9.79948 7.15625 9.53125 7.15625 9.28125C7.15625 8.78646 7.3125 8.39062 7.625 8.09375C7.94271 7.79167 8.35677 7.64062 8.86719 7.64062C9.38802 7.64062 9.79948 7.81771 10.1016 8.17188C10.4036 8.52604 10.6224 9 10.7578 9.59375C10.8932 10.1823 10.9688 10.8281 10.9844 11.5312C11.0104 12.3438 10.9375 13.1068 10.7656 13.8203C10.599 14.5286 10.362 15.1589 10.0547 15.7109C9.7474 16.263 9.40104 16.7083 9.01562 17.0469C8.92188 17.125 8.86458 17.2188 8.84375 17.3281C8.82812 17.4375 8.85156 17.5417 8.91406 17.6406C8.98698 17.7448 9.08854 17.8047 9.21875 17.8203C9.34896 17.8359 9.46615 17.7969 9.57031 17.7031C9.97656 17.3333 10.349 16.8307 10.6875 16.1953C11.0312 15.5599 11.3047 14.8385 11.5078 14.0312C11.7109 13.2188 11.8099 12.3646 11.8047 11.4688C11.8047 10.5938 11.7109 9.80208 11.5234 9.09375C11.3359 8.38021 11.0286 7.8151 10.6016 7.39844C10.1745 6.97656 9.59635 6.76562 8.86719 6.76562C8.38281 6.76562 7.94531 6.86719 7.55469 7.07031C7.16927 7.27344 6.86198 7.55729 6.63281 7.92188C6.40885 8.28646 6.29688 8.71354 6.29688 9.20312C6.29688 9.5 6.33594 9.8151 6.41406 10.1484C6.49219 10.4818 6.57031 10.8281 6.64844 11.1875C6.72656 11.5417 6.76823 11.8984 6.77344 12.2578C6.77865 13.0339 6.64062 13.7526 6.35938 14.4141C6.07812 15.0755 5.66927 15.625 5.13281 16.0625C5.02865 16.151 4.96615 16.25 4.94531 16.3594C4.92969 16.474 4.95573 16.5807 5.02344 16.6797C5.10156 16.7943 5.20312 16.8568 5.32812 16.8672C5.45833 16.8776 5.57552 16.8385 5.67969 16.75ZM7.50781 17.375C7.8151 17.151 8.13542 16.8073 8.46875 16.3438C8.80208 15.8854 9.04167 15.4062 9.1875 14.9062C9.21354 14.8177 9.21094 14.7161 9.17969 14.6016C9.15365 14.4818 9.07812 14.401 8.95312 14.3594C8.82292 14.3125 8.70573 14.3151 8.60156 14.3672C8.4974 14.4193 8.42708 14.4974 8.39062 14.6016C8.19271 15.1224 7.97135 15.5469 7.72656 15.875C7.48698 16.2031 7.23698 16.4688 6.97656 16.6719C6.8776 16.75 6.8151 16.8464 6.78906 16.9609C6.76823 17.0807 6.79167 17.1901 6.85938 17.2891C6.92188 17.3984 7.01823 17.4609 7.14844 17.4766C7.27865 17.4922 7.39844 17.4583 7.50781 17.375ZM9.63281 13.0859C9.70573 12.7318 9.74479 12.3542 9.75 11.9531C9.75521 11.5469 9.72656 11.1354 9.66406 10.7188C9.60156 10.3021 9.50781 9.89844 9.38281 9.50781C9.33073 9.36198 9.2526 9.26042 9.14844 9.20312C9.04427 9.14583 8.93229 9.13542 8.8125 9.17188C8.69792 9.20833 8.61198 9.27865 8.55469 9.38281C8.4974 9.48177 8.48958 9.59896 8.53125 9.73438C8.65104 10.1094 8.73698 10.4844 8.78906 10.8594C8.84635 11.2292 8.8724 11.5911 8.86719 11.9453C8.86719 12.2995 8.83594 12.6406 8.77344 12.9688C8.7474 13.0833 8.76042 13.1901 8.8125 13.2891C8.86458 13.388 8.95833 13.4479 9.09375 13.4688C9.21875 13.4948 9.33333 13.474 9.4375 13.4062C9.54167 13.3333 9.60677 13.2266 9.63281 13.0859Z" fill="white"/>
</svg>
