<svg width="107" height="155" viewBox="0 0 107 155" fill="none" xmlns="http://www.w3.org/2000/svg">
<path d="M18.4375 127.5H88.5625C92.2708 127.5 95.4167 126.708 98 125.125C100.625 123.583 102.625 121.438 104 118.688C105.375 115.938 106.062 112.771 106.062 109.188V64.375C106.062 58.8333 105.833 53.4167 105.375 48.125C104.958 42.7917 104.396 37.8333 103.688 33.25C102.979 28.625 102.208 24.6042 101.375 21.1875C100.542 17.6458 99.1875 14.4583 97.3125 11.625C95.4375 8.79167 93.0833 6.47917 90.25 4.6875C87.4583 2.89583 84.2292 1.8125 80.5625 1.4375C78.5625 1.22917 75.125 0.979167 70.25 0.6875C65.4167 0.354167 59.8333 0.1875 53.5 0.1875C47.1667 0.1875 41.5625 0.354167 36.6875 0.6875C31.8542 0.979167 28.4375 1.22917 26.4375 1.4375C22.7292 1.8125 19.4583 2.89583 16.625 4.6875C13.8333 6.47917 11.5 8.79167 9.625 11.625C7.79167 14.4583 6.45833 17.6458 5.625 21.1875C4.75 24.6042 3.95833 28.625 3.25 33.25C2.54167 37.8333 1.97917 42.7917 1.5625 48.125C1.14583 53.4167 0.9375 58.8333 0.9375 64.375V109.188C0.9375 112.771 1.625 115.938 3 118.688C4.375 121.438 6.35417 123.583 8.9375 125.125C11.5625 126.708 14.7292 127.5 18.4375 127.5ZM37.5 19.625C36.3333 19.625 35.3958 19.2708 34.6875 18.5625C34.0208 17.8542 33.6875 16.9167 33.6875 15.75C33.6875 14.625 34.0208 13.7292 34.6875 13.0625C35.3958 12.3542 36.3333 12 37.5 12H69.4375C70.6042 12 71.5417 12.3542 72.25 13.0625C72.9583 13.7292 73.3125 14.625 73.3125 15.75C73.3125 16.9167 72.9583 17.8542 72.25 18.5625C71.5417 19.2708 70.6042 19.625 69.4375 19.625H37.5ZM53.5 86.25C46.25 86.2083 39.5208 86.0417 33.3125 85.75C27.1042 85.4583 22.3125 85.1042 18.9375 84.6875C17.0625 84.4375 15.7292 83.75 14.9375 82.625C14.1458 81.4583 13.75 80 13.75 78.25V63.875C13.75 59.6667 13.875 55.7708 14.125 52.1875C14.375 48.6042 14.6875 45.4792 15.0625 42.8125C15.4375 40.1458 15.7917 38.0833 16.125 36.625C16.4583 35.25 17.0417 34.1042 17.875 33.1875C18.7083 32.2708 19.7917 31.7292 21.125 31.5625C24.6667 31.1458 28.875 30.8333 33.75 30.625C38.625 30.375 45.2083 30.2292 53.5 30.1875C61.7917 30.1458 68.3542 30.2708 73.1875 30.5625C78.0208 30.8125 82.1667 31.1458 85.625 31.5625C87.0417 31.7292 88.1667 32.2708 89 33.1875C89.875 34.1042 90.4792 35.25 90.8125 36.625C91.1458 38.0833 91.5 40.1458 91.875 42.8125C92.25 45.4792 92.5625 48.6042 92.8125 52.1875C93.0625 55.7708 93.1875 59.6667 93.1875 63.875V78.25C93.1875 80.0417 92.7917 81.5208 92 82.6875C91.2083 83.8125 89.875 84.4792 88 84.6875C82.9583 85.2292 77.3333 85.625 71.125 85.875C64.9167 86.125 59.0417 86.25 53.5 86.25ZM24.4375 114.375C21.9792 114.375 19.9375 113.583 18.3125 112C16.7292 110.375 15.9375 108.312 15.9375 105.812C15.9375 103.312 16.7292 101.271 18.3125 99.6875C19.9375 98.0625 21.9792 97.25 24.4375 97.25C26.9375 97.25 29 98.0625 30.625 99.6875C32.25 101.271 33.0625 103.312 33.0625 105.812C33.0625 108.312 32.2292 110.375 30.5625 112C28.9375 113.583 26.8958 114.375 24.4375 114.375ZM82.4375 114.438C79.9792 114.438 77.9167 113.625 76.25 112C74.5833 110.333 73.75 108.271 73.75 105.812C73.75 103.354 74.5833 101.312 76.25 99.6875C77.9167 98.0208 79.9792 97.1875 82.4375 97.1875C84.8958 97.1875 86.9375 98.0208 88.5625 99.6875C90.2292 101.312 91.0625 103.354 91.0625 105.812C91.0625 108.271 90.2292 110.333 88.5625 112C86.8958 113.625 84.8542 114.438 82.4375 114.438ZM10.4375 155H13.9375C15.5208 155 16.7292 154.292 17.5625 152.875L35.3125 124.25H23.375L7.625 149.562C7.08333 150.438 6.85417 151.292 6.9375 152.125C7.0625 152.958 7.41667 153.646 8 154.188C8.625 154.729 9.4375 155 10.4375 155ZM15.9375 147.125H91.25V137.75H15.9375V147.125ZM93.3125 155H96.8125C97.7708 155 98.5417 154.708 99.125 154.125C99.7083 153.583 100.042 152.896 100.125 152.062C100.208 151.271 99.9792 150.438 99.4375 149.562L83.8125 124.25H71.875L89.625 152.875C90.5 154.292 91.7292 155 93.3125 155Z" fill="white"/>
</svg>
