<?xml version="1.0" encoding="UTF-8"?>
<svg xmlns="http://www.w3.org/2000/svg" xmlns:xlink="http://www.w3.org/1999/xlink" width="24" height="26.666667" viewBox="0 0 24 26.666667" version="1.1">
<g id="surface1">
<path style=" stroke:none;fill-rule:nonzero;fill:rgb(100%,100%,100%);fill-opacity:1;" d="M 1.46875 19.488281 C 1.261719 20.324219 1.355469 20.984375 1.75 21.46875 C 2.144531 21.953125 2.808594 22.199219 3.738281 22.199219 L 20.25 22.199219 C 21.1875 22.199219 21.851562 21.953125 22.238281 21.46875 C 22.636719 20.984375 22.734375 20.324219 22.53125 19.488281 L 19.636719 7.730469 C 19.441406 6.945312 19.109375 6.347656 18.644531 5.9375 C 18.1875 5.527344 17.535156 5.324219 16.6875 5.324219 L 7.3125 5.324219 C 6.464844 5.324219 5.808594 5.527344 5.34375 5.9375 C 4.878906 6.347656 4.546875 6.945312 4.355469 7.730469 Z M 3.050781 19.488281 L 5.855469 7.949219 C 6.019531 7.246094 6.484375 6.894531 7.238281 6.894531 L 16.761719 6.894531 C 17.511719 6.894531 17.972656 7.246094 18.144531 7.949219 L 20.9375 19.488281 C 21.019531 19.835938 20.984375 20.113281 20.832031 20.324219 C 20.679688 20.523438 20.433594 20.625 20.09375 20.625 L 3.894531 20.625 C 3.5625 20.625 3.316406 20.523438 3.15625 20.324219 C 3.003906 20.113281 2.96875 19.835938 3.050781 19.488281 Z M 12.011719 26.21875 C 12.253906 26.21875 12.445312 26.140625 12.582031 25.988281 C 12.722656 25.84375 12.792969 25.640625 12.792969 25.386719 L 12.792969 2.136719 C 12.792969 1.878906 12.722656 1.675781 12.582031 1.53125 C 12.445312 1.378906 12.253906 1.300781 12.011719 1.300781 C 11.761719 1.300781 11.566406 1.378906 11.425781 1.53125 C 11.289062 1.675781 11.21875 1.878906 11.21875 2.136719 L 11.21875 25.386719 C 11.21875 25.640625 11.289062 25.84375 11.425781 25.988281 C 11.566406 26.140625 11.761719 26.21875 12.011719 26.21875 Z M 12.011719 26.21875 "/>
</g>
</svg>
