<svg width="16" height="17" viewBox="0 0 16 17" fill="none" xmlns="http://www.w3.org/2000/svg">
<path d="M8 16.3281C9.08854 16.3281 10.112 16.1198 11.0703 15.7031C12.0339 15.2865 12.8828 14.7109 13.6172 13.9766C14.3516 13.2422 14.9271 12.3958 15.3438 11.4375C15.7604 10.474 15.9688 9.44792 15.9688 8.35938C15.9688 7.27083 15.7604 6.2474 15.3438 5.28906C14.9271 4.32552 14.3516 3.47656 13.6172 2.74219C12.8828 2.00781 12.0339 1.43229 11.0703 1.01562C10.1068 0.598958 9.08073 0.390625 7.99219 0.390625C6.90365 0.390625 5.8776 0.598958 4.91406 1.01562C3.95573 1.43229 3.10938 2.00781 2.375 2.74219C1.64583 3.47656 1.07292 4.32552 0.65625 5.28906C0.239583 6.2474 0.03125 7.27083 0.03125 8.35938C0.03125 9.44792 0.239583 10.474 0.65625 11.4375C1.07292 12.3958 1.64844 13.2422 2.38281 13.9766C3.11719 14.7109 3.96354 15.2865 4.92188 15.7031C5.88542 16.1198 6.91146 16.3281 8 16.3281ZM8 15C7.07812 15 6.21615 14.8281 5.41406 14.4844C4.61198 14.1406 3.90625 13.6667 3.29688 13.0625C2.69271 12.4531 2.21875 11.7474 1.875 10.9453C1.53646 10.1432 1.36719 9.28125 1.36719 8.35938C1.36719 7.4375 1.53646 6.57552 1.875 5.77344C2.21875 4.97135 2.69271 4.26562 3.29688 3.65625C3.90104 3.04688 4.60417 2.57292 5.40625 2.23438C6.20833 1.89062 7.07031 1.71875 7.99219 1.71875C8.91406 1.71875 9.77604 1.89062 10.5781 2.23438C11.3854 2.57292 12.0911 3.04688 12.6953 3.65625C13.3047 4.26562 13.7812 4.97135 14.125 5.77344C14.4688 6.57552 14.6406 7.4375 14.6406 8.35938C14.6406 9.28125 14.4688 10.1432 14.125 10.9453C13.7865 11.7474 13.3125 12.4531 12.7031 13.0625C12.0938 13.6667 11.388 14.1406 10.5859 14.4844C9.78385 14.8281 8.92188 15 8 15ZM5.97656 12.9609H10.0156C10.1927 12.9609 10.3464 12.9245 10.4766 12.8516C10.612 12.7734 10.7057 12.6719 10.7578 12.5469L10.7812 12.4688L9.60938 11.3047L9.58594 11.5391C9.5599 11.6797 9.46875 11.75 9.3125 11.75C9.125 11.75 9.03385 11.6615 9.03906 11.4844L9.0625 10.7578L8.27344 9.96875V11.4844C8.27344 11.6615 8.17448 11.75 7.97656 11.75C7.78906 11.75 7.69531 11.6615 7.69531 11.4844V9.38281L6.8125 8.50781L6.92188 11.4844C6.92188 11.6615 6.83073 11.75 6.64844 11.75C6.46094 11.75 6.36719 11.6615 6.36719 11.4844L6.23438 7.92188L4.875 6.5625L5.11719 12.1406C5.1276 12.401 5.20573 12.6042 5.35156 12.75C5.5026 12.8906 5.71094 12.9609 5.97656 12.9609ZM11.4922 12.3359C11.5651 12.4089 11.6484 12.4453 11.7422 12.4453C11.8359 12.4401 11.9167 12.401 11.9844 12.3281C12.0573 12.2604 12.0938 12.1797 12.0938 12.0859C12.0938 11.987 12.0573 11.901 11.9844 11.8281L4.625 4.46875C4.55729 4.39583 4.47396 4.35938 4.375 4.35938C4.27604 4.35938 4.19271 4.39583 4.125 4.46875C4.05208 4.53646 4.01562 4.61979 4.01562 4.71875C4.02083 4.8125 4.05729 4.89583 4.125 4.96875L11.4922 12.3359ZM10.9688 9.95312L11.1406 5.96094H11.7578C11.8516 5.96094 11.9297 5.92969 11.9922 5.86719C12.0599 5.79948 12.0964 5.72135 12.1016 5.63281C12.1068 5.53906 12.0729 5.46094 12 5.39844C11.9323 5.33073 11.8516 5.29688 11.7578 5.29688H9.89062V4.66406C9.89062 4.34115 9.78906 4.08594 9.58594 3.89844C9.38802 3.70573 9.11719 3.60938 8.77344 3.60938H7.19531C6.85677 3.60938 6.58594 3.70573 6.38281 3.89844C6.1849 4.08594 6.08594 4.34115 6.08594 4.66406C6.08594 4.70573 6.08594 4.7474 6.08594 4.78906C6.08594 4.82552 6.08594 4.86719 6.08594 4.91406H5.92969L7.85938 6.84375V6.69531C7.89062 6.66406 7.92969 6.64844 7.97656 6.64844C8.17448 6.64844 8.27344 6.73958 8.27344 6.92188V7.25781L9.14062 8.125L9.1875 6.92188C9.1875 6.73958 9.28385 6.64844 9.47656 6.64844C9.66406 6.64844 9.75781 6.73958 9.75781 6.92188L9.6875 8.66406L10.9688 9.95312ZM6.875 5.29688V4.70312C6.875 4.60417 6.90885 4.52344 6.97656 4.46094C7.04427 4.39844 7.13021 4.36719 7.23438 4.36719H8.72656C8.83073 4.36719 8.91667 4.39844 8.98438 4.46094C9.05208 4.52344 9.08594 4.60417 9.08594 4.70312V5.29688H6.875Z" fill="white"/>
</svg>
