<?xml version="1.0" encoding="UTF-8"?>
<svg xmlns="http://www.w3.org/2000/svg" xmlns:xlink="http://www.w3.org/1999/xlink" width="24" height="25.5" viewBox="0 0 24 25.5" version="1.1">
<g id="surface1">
<path style=" stroke:none;fill-rule:nonzero;fill:rgb(100%,100%,100%);fill-opacity:1;" d="M 12 24.503906 C 13.632812 24.503906 15.167969 24.191406 16.605469 23.566406 C 18.050781 22.941406 19.324219 22.078125 20.425781 20.976562 C 21.527344 19.875 22.390625 18.605469 23.015625 17.167969 C 23.640625 15.722656 23.953125 14.183594 23.953125 12.550781 C 23.953125 10.917969 23.640625 9.382812 23.015625 7.945312 C 22.390625 6.5 21.527344 5.226562 20.425781 4.125 C 19.324219 3.023438 18.050781 2.160156 16.605469 1.535156 C 15.160156 0.910156 13.621094 0.597656 11.988281 0.597656 C 10.355469 0.597656 8.816406 0.910156 7.371094 1.535156 C 5.933594 2.160156 4.664062 3.023438 3.5625 4.125 C 2.46875 5.226562 1.609375 6.5 0.984375 7.945312 C 0.359375 9.382812 0.046875 10.917969 0.046875 12.550781 C 0.046875 14.183594 0.359375 15.722656 0.984375 17.167969 C 1.609375 18.605469 2.472656 19.875 3.574219 20.976562 C 4.675781 22.078125 5.945312 22.941406 7.382812 23.566406 C 8.828125 24.191406 10.367188 24.503906 12 24.503906 Z M 8.976562 19.453125 C 8.578125 19.453125 8.265625 19.347656 8.039062 19.136719 C 7.820312 18.917969 7.703125 18.613281 7.6875 18.222656 L 7.324219 9.855469 L 9.363281 11.894531 L 9.5625 17.238281 C 9.5625 17.503906 9.703125 17.636719 9.984375 17.636719 C 10.117188 17.636719 10.21875 17.601562 10.289062 17.53125 C 10.359375 17.453125 10.394531 17.355469 10.394531 17.238281 L 10.230469 12.773438 L 11.554688 14.085938 L 11.554688 17.238281 C 11.554688 17.503906 11.695312 17.636719 11.976562 17.636719 C 12.273438 17.636719 12.421875 17.503906 12.421875 17.238281 L 12.421875 14.964844 L 13.605469 16.148438 L 13.570312 17.238281 C 13.5625 17.503906 13.699219 17.636719 13.980469 17.636719 C 14.214844 17.636719 14.351562 17.53125 14.390625 17.320312 L 14.425781 16.96875 L 16.183594 18.714844 L 16.148438 18.832031 C 16.070312 19.019531 15.929688 19.171875 15.726562 19.289062 C 15.53125 19.398438 15.300781 19.453125 15.035156 19.453125 Z M 17.25 18.515625 L 6.199219 7.464844 C 6.097656 7.355469 6.042969 7.230469 6.035156 7.089844 C 6.035156 6.941406 6.089844 6.816406 6.199219 6.714844 C 6.300781 6.605469 6.425781 6.550781 6.574219 6.550781 C 6.722656 6.550781 6.847656 6.605469 6.949219 6.714844 L 17.988281 17.753906 C 18.097656 17.863281 18.152344 17.992188 18.152344 18.140625 C 18.152344 18.28125 18.097656 18.402344 17.988281 18.503906 C 17.886719 18.613281 17.765625 18.671875 17.625 18.679688 C 17.484375 18.679688 17.359375 18.625 17.25 18.515625 Z M 16.464844 14.941406 L 14.542969 13.007812 L 14.648438 10.394531 C 14.648438 10.121094 14.507812 9.984375 14.226562 9.984375 C 13.9375 9.984375 13.792969 10.121094 13.792969 10.394531 L 13.722656 12.199219 L 12.421875 10.898438 L 12.421875 10.394531 C 12.421875 10.121094 12.273438 9.984375 11.976562 9.984375 C 11.90625 9.984375 11.847656 10.007812 11.800781 10.054688 L 11.800781 10.277344 L 8.90625 7.382812 L 9.140625 7.382812 C 9.140625 7.3125 9.140625 7.25 9.140625 7.195312 C 9.140625 7.132812 9.140625 7.070312 9.140625 7.007812 C 9.140625 6.523438 9.289062 6.140625 9.585938 5.859375 C 9.890625 5.570312 10.296875 5.425781 10.804688 5.425781 L 13.171875 5.425781 C 13.6875 5.425781 14.09375 5.570312 14.390625 5.859375 C 14.695312 6.140625 14.847656 6.523438 14.847656 7.007812 L 14.847656 7.957031 L 17.648438 7.957031 C 17.789062 7.957031 17.910156 8.007812 18.011719 8.109375 C 18.121094 8.203125 18.171875 8.320312 18.164062 8.460938 C 18.15625 8.59375 18.101562 8.710938 18 8.8125 C 17.90625 8.90625 17.789062 8.953125 17.648438 8.953125 L 16.722656 8.953125 Z M 10.324219 7.957031 L 13.640625 7.957031 L 13.640625 7.066406 C 13.640625 6.917969 13.589844 6.796875 13.488281 6.703125 C 13.386719 6.609375 13.257812 6.5625 13.101562 6.5625 L 10.863281 6.5625 C 10.707031 6.5625 10.578125 6.609375 10.476562 6.703125 C 10.375 6.796875 10.324219 6.917969 10.324219 7.066406 Z M 10.324219 7.957031 "/>
</g>
</svg>
