<?xml version="1.0" encoding="UTF-8"?>
<svg xmlns="http://www.w3.org/2000/svg" xmlns:xlink="http://www.w3.org/1999/xlink" width="24" height="25.5" viewBox="0 0 24 25.5" version="1.1">
<g id="surface1">
<path style=" stroke:none;fill-rule:nonzero;fill:rgb(100%,100%,100%);fill-opacity:1;" d="M 12 24.492188 C 13.632812 24.492188 15.167969 24.179688 16.605469 23.554688 C 18.050781 22.929688 19.324219 22.066406 20.425781 20.964844 C 21.527344 19.863281 22.390625 18.59375 23.015625 17.15625 C 23.640625 15.710938 23.953125 14.171875 23.953125 12.539062 C 23.953125 10.90625 23.640625 9.371094 23.015625 7.933594 C 22.390625 6.488281 21.527344 5.214844 20.425781 4.113281 C 19.324219 3.011719 18.050781 2.148438 16.605469 1.523438 C 15.160156 0.898438 13.621094 0.585938 11.988281 0.585938 C 10.355469 0.585938 8.816406 0.898438 7.371094 1.523438 C 5.933594 2.148438 4.664062 3.011719 3.5625 4.113281 C 2.46875 5.214844 1.609375 6.488281 0.984375 7.933594 C 0.359375 9.371094 0.046875 10.90625 0.046875 12.539062 C 0.046875 14.171875 0.359375 15.710938 0.984375 17.15625 C 1.609375 18.59375 2.472656 19.863281 3.574219 20.964844 C 4.675781 22.066406 5.945312 22.929688 7.382812 23.554688 C 8.828125 24.179688 10.367188 24.492188 12 24.492188 Z M 12 22.5 C 10.617188 22.5 9.324219 22.242188 8.121094 21.726562 C 6.917969 21.210938 5.859375 20.5 4.945312 19.59375 C 4.039062 18.679688 3.328125 17.621094 2.8125 16.417969 C 2.304688 15.214844 2.050781 13.921875 2.050781 12.539062 C 2.050781 11.15625 2.304688 9.863281 2.8125 8.660156 C 3.328125 7.457031 4.039062 6.398438 4.945312 5.484375 C 5.851562 4.570312 6.90625 3.859375 8.109375 3.351562 C 9.3125 2.835938 10.605469 2.578125 11.988281 2.578125 C 13.371094 2.578125 14.664062 2.835938 15.867188 3.351562 C 17.078125 3.859375 18.136719 4.570312 19.042969 5.484375 C 19.957031 6.398438 20.671875 7.457031 21.1875 8.660156 C 21.703125 9.863281 21.960938 11.15625 21.960938 12.539062 C 21.960938 13.921875 21.703125 15.214844 21.1875 16.417969 C 20.679688 17.621094 19.96875 18.679688 19.054688 19.59375 C 18.140625 20.5 17.082031 21.210938 15.878906 21.726562 C 14.675781 22.242188 13.382812 22.5 12 22.5 Z M 8.964844 19.441406 L 15.023438 19.441406 C 15.414062 19.441406 15.722656 19.335938 15.949219 19.125 C 16.183594 18.90625 16.304688 18.601562 16.3125 18.210938 L 16.710938 8.941406 L 17.636719 8.941406 C 17.777344 8.941406 17.894531 8.894531 17.988281 8.800781 C 18.089844 8.699219 18.144531 8.582031 18.152344 8.449219 C 18.160156 8.308594 18.109375 8.191406 18 8.097656 C 17.898438 7.996094 17.777344 7.945312 17.636719 7.945312 L 14.835938 7.945312 L 14.835938 6.996094 C 14.835938 6.511719 14.683594 6.128906 14.378906 5.847656 C 14.082031 5.558594 13.675781 5.414062 13.160156 5.414062 L 10.792969 5.414062 C 10.285156 5.414062 9.882812 5.558594 9.585938 5.847656 C 9.289062 6.128906 9.140625 6.511719 9.140625 6.996094 L 9.140625 7.945312 L 6.316406 7.945312 C 6.175781 7.945312 6.054688 7.996094 5.953125 8.097656 C 5.859375 8.191406 5.8125 8.308594 5.8125 8.449219 C 5.8125 8.582031 5.859375 8.699219 5.953125 8.800781 C 6.054688 8.894531 6.175781 8.941406 6.316406 8.941406 L 7.277344 8.941406 L 7.675781 18.210938 C 7.691406 18.601562 7.808594 18.90625 8.027344 19.125 C 8.253906 19.335938 8.566406 19.441406 8.964844 19.441406 Z M 9.972656 17.625 C 9.691406 17.625 9.550781 17.492188 9.550781 17.226562 L 9.304688 10.382812 C 9.304688 10.109375 9.449219 9.972656 9.738281 9.972656 C 10.011719 9.972656 10.152344 10.109375 10.160156 10.382812 L 10.382812 17.226562 C 10.382812 17.492188 10.246094 17.625 9.972656 17.625 Z M 11.964844 17.625 C 11.683594 17.625 11.542969 17.492188 11.542969 17.226562 L 11.542969 10.382812 C 11.542969 10.109375 11.683594 9.972656 11.964844 9.972656 C 12.261719 9.972656 12.410156 10.109375 12.410156 10.382812 L 12.410156 17.226562 C 12.410156 17.492188 12.261719 17.625 11.964844 17.625 Z M 13.96875 17.625 C 13.695312 17.625 13.558594 17.492188 13.558594 17.226562 L 13.78125 10.382812 C 13.789062 10.109375 13.933594 9.972656 14.214844 9.972656 C 14.496094 9.972656 14.636719 10.109375 14.636719 10.382812 L 14.390625 17.226562 C 14.390625 17.492188 14.25 17.625 13.96875 17.625 Z M 10.324219 7.945312 L 10.324219 7.054688 C 10.324219 6.90625 10.371094 6.785156 10.464844 6.691406 C 10.566406 6.597656 10.695312 6.550781 10.851562 6.550781 L 13.089844 6.550781 C 13.246094 6.550781 13.375 6.597656 13.476562 6.691406 C 13.578125 6.785156 13.628906 6.90625 13.628906 7.054688 L 13.628906 7.945312 Z M 10.324219 7.945312 "/>
</g>
</svg>
