<svg width="16" height="19" viewBox="0 0 16 19" fill="none" xmlns="http://www.w3.org/2000/svg">
<path d="M4.57031 4.53906H5.8125V2.86719C5.8125 2.64844 5.88281 2.47135 6.02344 2.33594C6.16927 2.20052 6.35938 2.13281 6.59375 2.13281H9.39062C9.625 2.13281 9.8125 2.20052 9.95312 2.33594C10.099 2.47135 10.1719 2.64844 10.1719 2.86719V4.53906H11.4141V2.78906C11.4141 2.22656 11.2396 1.78385 10.8906 1.46094C10.5469 1.13281 10.0755 0.96875 9.47656 0.96875H6.50781C5.90885 0.96875 5.4349 1.13281 5.08594 1.46094C4.74219 1.78385 4.57031 2.22656 4.57031 2.78906V4.53906ZM1.02344 5.16406H14.9844C15.1458 5.16406 15.2812 5.10677 15.3906 4.99219C15.5052 4.8724 15.5625 4.73177 15.5625 4.57031C15.5625 4.40885 15.5052 4.27083 15.3906 4.15625C15.276 4.04167 15.1406 3.98438 14.9844 3.98438H1.02344C0.867188 3.98438 0.729167 4.04427 0.609375 4.16406C0.494792 4.27865 0.4375 4.41406 0.4375 4.57031C0.4375 4.73177 0.494792 4.8724 0.609375 4.99219C0.729167 5.10677 0.867188 5.16406 1.02344 5.16406ZM4.42188 18.3672H11.5859C12.1432 18.3672 12.5964 18.2005 12.9453 17.8672C13.2943 17.5339 13.4818 17.0859 13.5078 16.5234L14.0547 5.01562H12.7969L12.2734 16.3906C12.263 16.625 12.1823 16.8151 12.0312 16.9609C11.8802 17.112 11.6901 17.1875 11.4609 17.1875H4.53125C4.30729 17.1875 4.11979 17.112 3.96875 16.9609C3.81771 16.8099 3.73698 16.6198 3.72656 16.3906L3.17188 5.01562H1.94531L2.5 16.5312C2.52604 17.0938 2.71094 17.5391 3.05469 17.8672C3.40365 18.2005 3.85938 18.3672 4.42188 18.3672ZM5.6875 15.8516C5.83333 15.8516 5.95052 15.8099 6.03906 15.7266C6.1276 15.638 6.17188 15.526 6.17188 15.3906L5.92969 7.03125C5.92969 6.89583 5.88281 6.78646 5.78906 6.70312C5.70052 6.61979 5.58594 6.57812 5.44531 6.57812C5.29948 6.57812 5.17969 6.6224 5.08594 6.71094C4.9974 6.79427 4.95573 6.90365 4.96094 7.03906L5.19531 15.3906C5.20052 15.5312 5.2474 15.6432 5.33594 15.7266C5.42448 15.8099 5.54167 15.8516 5.6875 15.8516ZM8 15.8516C8.15104 15.8516 8.27344 15.8099 8.36719 15.7266C8.46094 15.638 8.50781 15.526 8.50781 15.3906V7.03906C8.50781 6.90365 8.46094 6.79427 8.36719 6.71094C8.27344 6.6224 8.15104 6.57812 8 6.57812C7.85417 6.57812 7.73438 6.6224 7.64062 6.71094C7.54688 6.79427 7.5 6.90365 7.5 7.03906V15.3906C7.5 15.526 7.54688 15.638 7.64062 15.7266C7.73438 15.8099 7.85417 15.8516 8 15.8516ZM10.3203 15.8516C10.4609 15.8516 10.5755 15.8099 10.6641 15.7266C10.7526 15.6432 10.7995 15.5312 10.8047 15.3906L11.0391 7.03906C11.0443 6.90365 11.0026 6.79427 10.9141 6.71094C10.8255 6.6224 10.7057 6.57812 10.5547 6.57812C10.4141 6.57812 10.2995 6.61979 10.2109 6.70312C10.1224 6.78646 10.0755 6.89844 10.0703 7.03906L9.83594 15.3906C9.83073 15.526 9.8724 15.638 9.96094 15.7266C10.0495 15.8099 10.1693 15.8516 10.3203 15.8516Z" fill="white"/>
</svg>
