<?xml version="1.0" encoding="UTF-8"?>
<svg xmlns="http://www.w3.org/2000/svg" xmlns:xlink="http://www.w3.org/1999/xlink" width="24" height="22.5" viewBox="0 0 24 22.5" version="1.1">
<g id="surface1">
<path style=" stroke:none;fill-rule:nonzero;fill:rgb(100%,100%,100%);fill-opacity:1;" d="M 4.886719 21.84375 L 19.101562 21.84375 C 20.328125 21.84375 21.246094 21.539062 21.855469 20.929688 C 22.472656 20.328125 22.78125 19.421875 22.78125 18.210938 L 22.78125 3.902344 C 22.78125 2.691406 22.472656 1.785156 21.855469 1.183594 C 21.246094 0.574219 20.328125 0.269531 19.101562 0.269531 L 4.886719 0.269531 C 3.660156 0.269531 2.738281 0.574219 2.121094 1.183594 C 1.511719 1.785156 1.207031 2.691406 1.207031 3.902344 L 1.207031 18.210938 C 1.207031 19.421875 1.511719 20.328125 2.121094 20.929688 C 2.738281 21.539062 3.660156 21.84375 4.886719 21.84375 Z M 8.976562 17.941406 C 8.578125 17.941406 8.265625 17.835938 8.039062 17.625 C 7.820312 17.40625 7.703125 17.101562 7.6875 16.710938 L 7.324219 8.34375 L 9.363281 10.382812 L 9.5625 15.726562 C 9.5625 15.992188 9.703125 16.125 9.984375 16.125 C 10.117188 16.125 10.21875 16.089844 10.289062 16.019531 C 10.359375 15.941406 10.394531 15.84375 10.394531 15.726562 L 10.230469 11.261719 L 11.554688 12.574219 L 11.554688 15.726562 C 11.554688 15.992188 11.695312 16.125 11.976562 16.125 C 12.273438 16.125 12.421875 15.992188 12.421875 15.726562 L 12.421875 13.453125 L 13.605469 14.636719 L 13.570312 15.726562 C 13.5625 15.992188 13.699219 16.125 13.980469 16.125 C 14.214844 16.125 14.351562 16.019531 14.390625 15.808594 L 14.425781 15.457031 L 16.183594 17.203125 L 16.148438 17.320312 C 16.070312 17.507812 15.929688 17.660156 15.726562 17.777344 C 15.53125 17.886719 15.300781 17.941406 15.035156 17.941406 Z M 17.25 17.003906 L 6.199219 5.953125 C 6.097656 5.84375 6.042969 5.71875 6.035156 5.578125 C 6.035156 5.429688 6.089844 5.304688 6.199219 5.203125 C 6.300781 5.09375 6.425781 5.039062 6.574219 5.039062 C 6.722656 5.039062 6.847656 5.09375 6.949219 5.203125 L 17.988281 16.242188 C 18.097656 16.351562 18.152344 16.480469 18.152344 16.628906 C 18.152344 16.769531 18.097656 16.890625 17.988281 16.992188 C 17.886719 17.101562 17.765625 17.160156 17.625 17.167969 C 17.484375 17.167969 17.359375 17.113281 17.25 17.003906 Z M 16.464844 13.429688 L 14.542969 11.496094 L 14.648438 8.882812 C 14.648438 8.609375 14.507812 8.472656 14.226562 8.472656 C 13.9375 8.472656 13.792969 8.609375 13.792969 8.882812 L 13.722656 10.6875 L 12.421875 9.386719 L 12.421875 8.882812 C 12.421875 8.609375 12.273438 8.472656 11.976562 8.472656 C 11.90625 8.472656 11.847656 8.496094 11.800781 8.542969 L 11.800781 8.765625 L 8.90625 5.871094 L 9.140625 5.871094 C 9.140625 5.800781 9.140625 5.738281 9.140625 5.683594 C 9.140625 5.621094 9.140625 5.558594 9.140625 5.496094 C 9.140625 5.011719 9.289062 4.628906 9.585938 4.347656 C 9.890625 4.058594 10.296875 3.914062 10.804688 3.914062 L 13.171875 3.914062 C 13.6875 3.914062 14.09375 4.058594 14.390625 4.347656 C 14.695312 4.628906 14.847656 5.011719 14.847656 5.496094 L 14.847656 6.445312 L 17.648438 6.445312 C 17.789062 6.445312 17.910156 6.496094 18.011719 6.597656 C 18.121094 6.691406 18.171875 6.808594 18.164062 6.949219 C 18.15625 7.082031 18.101562 7.199219 18 7.300781 C 17.90625 7.394531 17.789062 7.441406 17.648438 7.441406 L 16.722656 7.441406 Z M 10.324219 6.445312 L 13.640625 6.445312 L 13.640625 5.554688 C 13.640625 5.40625 13.589844 5.285156 13.488281 5.191406 C 13.386719 5.097656 13.257812 5.050781 13.101562 5.050781 L 10.863281 5.050781 C 10.707031 5.050781 10.578125 5.097656 10.476562 5.191406 C 10.375 5.285156 10.324219 5.40625 10.324219 5.554688 Z M 10.324219 6.445312 "/>
</g>
</svg>
