<svg width="149" height="108" viewBox="0 0 149 108" fill="none" xmlns="http://www.w3.org/2000/svg">
<path d="M20.5625 107.312H128.688C135.271 107.312 140.188 105.688 143.438 102.438C146.688 99.2292 148.312 94.3958 148.312 87.9375V53.4375C148.312 51.5625 148.188 49.9583 147.938 48.625C147.729 47.2917 147.354 46.0833 146.812 45C146.312 43.9167 145.625 42.7708 144.75 41.5625L123.188 12.375C120.896 9.25 118.812 6.85417 116.938 5.1875C115.062 3.47917 112.938 2.29167 110.562 1.625C108.229 0.958333 105.208 0.625 101.5 0.625H47.75C44.0417 0.625 41 0.958333 38.625 1.625C36.2917 2.29167 34.1875 3.47917 32.3125 5.1875C30.4375 6.85417 28.375 9.25 26.125 12.375L4.5 41.5625C3.625 42.7708 2.91667 43.9167 2.375 45C1.875 46.0833 1.5 47.2917 1.25 48.625C1.04167 49.9583 0.9375 51.5625 0.9375 53.4375V87.9375C0.9375 94.3958 2.5625 99.2292 5.8125 102.438C9.10417 105.688 14.0208 107.312 20.5625 107.312ZM74.625 71.125C71.5 71.125 68.7708 70.3542 66.4375 68.8125C64.1458 67.2292 62.375 65.2292 61.125 62.8125C59.875 60.3958 59.25 57.8958 59.25 55.3125V55.125C59.25 53.7083 58.8125 52.4583 57.9375 51.375C57.1042 50.25 55.8125 49.6875 54.0625 49.6875H14.25C13.2083 49.6875 12.5625 49.3542 12.3125 48.6875C12.1042 47.9792 12.25 47.2708 12.75 46.5625L35.875 14.8125C37.3333 12.8125 38.9792 11.4167 40.8125 10.625C42.6875 9.79167 44.75 9.375 47 9.375H102.25C104.542 9.375 106.604 9.79167 108.438 10.625C110.271 11.4167 111.917 12.8125 113.375 14.8125L136.5 46.5625C136.958 47.2708 137.062 47.9792 136.812 48.6875C136.604 49.3542 136 49.6875 135 49.6875H95.1875C93.4375 49.6875 92.1458 50.25 91.3125 51.375C90.4792 52.4583 90.0625 53.7083 90.0625 55.125V55.3125C90.0625 57.8958 89.4167 60.3958 88.125 62.8125C86.875 65.2292 85.0833 67.2292 82.75 68.8125C80.4583 70.3542 77.75 71.125 74.625 71.125Z" fill="white"/>
</svg>
