<svg width="20" height="18" viewBox="0 0 20 18" fill="none" xmlns="http://www.w3.org/2000/svg">
<path d="M3.24219 17.6016H16.7578C17.5807 17.6016 18.1953 17.3984 18.6016 16.9922C19.0078 16.5859 19.2109 15.9818 19.2109 15.1797V10.5547C19.2109 10.2005 19.1797 9.91927 19.1172 9.71094C19.0599 9.4974 18.9427 9.28385 18.7656 9.07031L16.0703 5.72656C15.763 5.35156 15.4792 5.03125 15.2188 4.76562C14.9635 4.5 14.6797 4.29688 14.3672 4.15625C14.0547 4.01562 13.6693 3.94531 13.2109 3.94531H12.0625V5.04688H13.2969C13.5833 5.04688 13.8646 5.15104 14.1406 5.35938C14.4167 5.56771 14.651 5.79167 14.8438 6.03125L17.6172 9.52344C17.7734 9.72656 17.8281 9.86979 17.7812 9.95312C17.7344 10.0365 17.6042 10.0781 17.3906 10.0781H12.4141C12.2109 10.0781 12.0599 10.1432 11.9609 10.2734C11.8672 10.4036 11.8203 10.5495 11.8203 10.7109V10.7422C11.8203 11.0443 11.7448 11.3385 11.5938 11.625C11.4427 11.9062 11.2318 12.1406 10.9609 12.3281C10.6901 12.5104 10.3698 12.6016 10 12.6016C9.63021 12.6016 9.3099 12.5104 9.03906 12.3281C8.76823 12.1406 8.55729 11.9062 8.40625 11.625C8.26042 11.3385 8.1875 11.0443 8.1875 10.7422V10.7109C8.1875 10.5495 8.13802 10.4036 8.03906 10.2734C7.9401 10.1432 7.78906 10.0781 7.58594 10.0781H2.625C2.40104 10.0781 2.26823 10.0339 2.22656 9.94531C2.1849 9.85156 2.23958 9.71094 2.39062 9.52344L5.15625 6.03125C5.34896 5.79167 5.58333 5.56771 5.85938 5.35938C6.14062 5.15104 6.42188 5.04688 6.70312 5.04688H7.94531V3.94531H6.79688C6.33333 3.94531 5.94531 4.01562 5.63281 4.15625C5.32552 4.29688 5.04167 4.5 4.78125 4.76562C4.52083 5.03125 4.23958 5.35156 3.9375 5.72656L1.23438 9.07031C1.0625 9.28385 0.945312 9.4974 0.882812 9.71094C0.820312 9.91927 0.789062 10.2005 0.789062 10.5547V15.1797C0.789062 15.987 0.992188 16.5911 1.39844 16.9922C1.8099 17.3984 2.42448 17.6016 3.24219 17.6016ZM3.25781 16.3438C2.86719 16.3438 2.56771 16.2396 2.35938 16.0312C2.15104 15.8229 2.04688 15.5156 2.04688 15.1094V11.2266H7C7.0625 11.7109 7.23177 12.1458 7.50781 12.5312C7.78385 12.9115 8.13542 13.2135 8.5625 13.4375C8.99479 13.6562 9.47396 13.7656 10 13.7656C10.5312 13.7656 11.0104 13.6562 11.4375 13.4375C11.8698 13.2135 12.2214 12.9115 12.4922 12.5312C12.7682 12.1458 12.9375 11.7109 13 11.2266H17.9531V15.1094C17.9531 15.5156 17.8464 15.8229 17.6328 16.0312C17.4245 16.2396 17.1276 16.3438 16.7422 16.3438H3.25781ZM10 9.98438C10.0781 9.98438 10.1536 9.97135 10.2266 9.94531C10.2995 9.91406 10.375 9.85938 10.4531 9.78125L13.0938 7.23438C13.2135 7.10938 13.2734 6.97135 13.2734 6.82031C13.2734 6.65885 13.2188 6.52865 13.1094 6.42969C13.0052 6.32552 12.8724 6.27344 12.7109 6.27344C12.5339 6.27344 12.3906 6.33594 12.2812 6.46094L11.1016 7.71875L10.5703 8.27344L10.625 7.10156V0.921875C10.625 0.760417 10.5625 0.619792 10.4375 0.5C10.3125 0.380208 10.1667 0.320312 10 0.320312C9.83333 0.320312 9.6875 0.380208 9.5625 0.5C9.44271 0.619792 9.38281 0.760417 9.38281 0.921875V7.10156L9.42969 8.27344L8.89844 7.71875L7.71875 6.46094C7.60938 6.33594 7.46354 6.27344 7.28125 6.27344C7.11979 6.27344 6.98698 6.32552 6.88281 6.42969C6.77865 6.52865 6.72656 6.65885 6.72656 6.82031C6.72656 6.97135 6.78646 7.10938 6.90625 7.23438L9.54688 9.78125C9.625 9.85938 9.70052 9.91406 9.77344 9.94531C9.84635 9.97135 9.92188 9.98438 10 9.98438Z" fill="white"/>
</svg>
