<?xml version="1.0" encoding="UTF-8"?>
<svg xmlns="http://www.w3.org/2000/svg" xmlns:xlink="http://www.w3.org/1999/xlink" width="24" height="25.5" viewBox="0 0 24 25.5" version="1.1">
<g id="surface1">
<path style=" stroke:none;fill-rule:nonzero;fill:rgb(100%,100%,100%);fill-opacity:1;" d="M 12 24.503906 C 13.632812 24.503906 15.167969 24.191406 16.605469 23.566406 C 18.050781 22.941406 19.324219 22.078125 20.425781 20.976562 C 21.527344 19.875 22.390625 18.605469 23.015625 17.167969 C 23.640625 15.722656 23.953125 14.183594 23.953125 12.550781 C 23.953125 10.917969 23.640625 9.382812 23.015625 7.945312 C 22.390625 6.5 21.527344 5.226562 20.425781 4.125 C 19.324219 3.023438 18.050781 2.160156 16.605469 1.535156 C 15.160156 0.910156 13.621094 0.597656 11.988281 0.597656 C 10.355469 0.597656 8.816406 0.910156 7.371094 1.535156 C 5.933594 2.160156 4.664062 3.023438 3.5625 4.125 C 2.46875 5.226562 1.609375 6.5 0.984375 7.945312 C 0.359375 9.382812 0.046875 10.917969 0.046875 12.550781 C 0.046875 14.183594 0.359375 15.722656 0.984375 17.167969 C 1.609375 18.605469 2.472656 19.875 3.574219 20.976562 C 4.675781 22.078125 5.945312 22.941406 7.382812 23.566406 C 8.828125 24.191406 10.367188 24.503906 12 24.503906 Z M 6.820312 17.460938 C 6.195312 17.460938 5.722656 17.304688 5.402344 16.992188 C 5.089844 16.671875 4.933594 16.207031 4.933594 15.597656 L 4.933594 12.28125 C 4.933594 12.007812 4.957031 11.792969 5.003906 11.636719 C 5.058594 11.480469 5.152344 11.316406 5.285156 11.144531 L 7.40625 8.261719 C 7.632812 7.941406 7.84375 7.699219 8.039062 7.535156 C 8.234375 7.363281 8.449219 7.246094 8.683594 7.183594 C 8.925781 7.113281 9.222656 7.078125 9.574219 7.078125 L 14.449219 7.078125 C 14.800781 7.078125 15.09375 7.113281 15.328125 7.183594 C 15.5625 7.246094 15.777344 7.363281 15.972656 7.535156 C 16.167969 7.699219 16.382812 7.941406 16.617188 8.261719 L 18.738281 11.144531 C 18.863281 11.316406 18.953125 11.480469 19.007812 11.636719 C 19.0625 11.792969 19.089844 12.007812 19.089844 12.28125 L 19.089844 15.597656 C 19.089844 16.207031 18.933594 16.671875 18.621094 16.992188 C 18.308594 17.304688 17.835938 17.460938 17.203125 17.460938 Z M 6.632812 11.894531 L 10.101562 11.894531 C 10.257812 11.894531 10.375 11.945312 10.453125 12.046875 C 10.539062 12.148438 10.582031 12.257812 10.582031 12.375 L 10.582031 12.527344 C 10.582031 12.949219 10.710938 13.28125 10.96875 13.523438 C 11.226562 13.765625 11.574219 13.886719 12.011719 13.886719 C 12.449219 13.886719 12.796875 13.765625 13.054688 13.523438 C 13.320312 13.28125 13.453125 12.949219 13.453125 12.527344 L 13.453125 12.375 C 13.453125 12.257812 13.488281 12.148438 13.558594 12.046875 C 13.636719 11.945312 13.757812 11.894531 13.921875 11.894531 L 17.390625 11.894531 C 17.484375 11.894531 17.542969 11.859375 17.566406 11.789062 C 17.589844 11.71875 17.582031 11.65625 17.542969 11.601562 L 15.445312 8.753906 C 15.328125 8.589844 15.199219 8.472656 15.058594 8.402344 C 14.917969 8.324219 14.742188 8.285156 14.53125 8.285156 L 9.503906 8.285156 C 9.292969 8.285156 9.113281 8.324219 8.964844 8.402344 C 8.824219 8.472656 8.695312 8.589844 8.578125 8.753906 L 6.492188 11.601562 C 6.445312 11.671875 6.433594 11.738281 6.457031 11.800781 C 6.480469 11.863281 6.539062 11.894531 6.632812 11.894531 Z M 6.632812 11.894531 "/>
</g>
</svg>
