<svg width="18" height="16" viewBox="0 0 18 16" fill="none" xmlns="http://www.w3.org/2000/svg">
<path d="M0.828125 13.5859C0.828125 13.987 0.914062 14.349 1.08594 14.6719C1.26302 15 1.51302 15.2604 1.83594 15.4531C2.15885 15.6458 2.54167 15.7422 2.98438 15.7422H15.0078C15.4505 15.7422 15.8333 15.6458 16.1562 15.4531C16.4792 15.2604 16.7266 15 16.8984 14.6719C17.0755 14.349 17.1641 13.987 17.1641 13.5859C17.1641 13.2161 17.0677 12.8646 16.875 12.5312L10.8516 2.03125C10.6484 1.67188 10.3776 1.40104 10.0391 1.21875C9.70573 1.03125 9.35677 0.9375 8.99219 0.9375C8.6276 0.9375 8.27865 1.03125 7.94531 1.21875C7.61198 1.40104 7.34375 1.67188 7.14062 2.03125L1.11719 12.5234C1.02344 12.6901 0.950521 12.8646 0.898438 13.0469C0.851562 13.2292 0.828125 13.4089 0.828125 13.5859ZM2.09375 13.5859C2.09375 13.4245 2.13281 13.2708 2.21094 13.125L8.21875 2.625C8.30729 2.47396 8.41927 2.36458 8.55469 2.29688C8.69531 2.22396 8.84115 2.1875 8.99219 2.1875V14.5156H3C2.72917 14.5156 2.51042 14.4193 2.34375 14.2266C2.17708 14.0391 2.09375 13.8255 2.09375 13.5859Z" fill="white"/>
</svg>
