<svg width="16" height="17" viewBox="0 0 16 17" fill="none" xmlns="http://www.w3.org/2000/svg">
<path d="M8 16.3281C9.08854 16.3281 10.112 16.1198 11.0703 15.7031C12.0339 15.2865 12.8828 14.7109 13.6172 13.9766C14.3516 13.2422 14.9271 12.3958 15.3438 11.4375C15.7604 10.474 15.9688 9.44792 15.9688 8.35938C15.9688 7.27083 15.7604 6.2474 15.3438 5.28906C14.9271 4.32552 14.3516 3.47656 13.6172 2.74219C12.8828 2.00781 12.0339 1.43229 11.0703 1.01562C10.1068 0.598958 9.08073 0.390625 7.99219 0.390625C6.90365 0.390625 5.8776 0.598958 4.91406 1.01562C3.95573 1.43229 3.10938 2.00781 2.375 2.74219C1.64583 3.47656 1.07292 4.32552 0.65625 5.28906C0.239583 6.2474 0.03125 7.27083 0.03125 8.35938C0.03125 9.44792 0.239583 10.474 0.65625 11.4375C1.07292 12.3958 1.64844 13.2422 2.38281 13.9766C3.11719 14.7109 3.96354 15.2865 4.92188 15.7031C5.88542 16.1198 6.91146 16.3281 8 16.3281ZM8 15C7.07812 15 6.21615 14.8281 5.41406 14.4844C4.61198 14.1406 3.90625 13.6667 3.29688 13.0625C2.69271 12.4531 2.21875 11.7474 1.875 10.9453C1.53646 10.1432 1.36719 9.28125 1.36719 8.35938C1.36719 7.4375 1.53646 6.57552 1.875 5.77344C2.21875 4.97135 2.69271 4.26562 3.29688 3.65625C3.90104 3.04688 4.60417 2.57292 5.40625 2.23438C6.20833 1.89062 7.07031 1.71875 7.99219 1.71875C8.91406 1.71875 9.77604 1.89062 10.5781 2.23438C11.3854 2.57292 12.0911 3.04688 12.6953 3.65625C13.3047 4.26562 13.7812 4.97135 14.125 5.77344C14.4688 6.57552 14.6406 7.4375 14.6406 8.35938C14.6406 9.28125 14.4688 10.1432 14.125 10.9453C13.7865 11.7474 13.3125 12.4531 12.7031 13.0625C12.0938 13.6667 11.388 14.1406 10.5859 14.4844C9.78385 14.8281 8.92188 15 8 15ZM5.50781 8.35938C5.50781 8.8125 5.61979 9.22917 5.84375 9.60938C6.07292 9.98958 6.3776 10.2943 6.75781 10.5234C7.13802 10.7474 7.55208 10.8594 8 10.8594C8.19271 10.8594 8.3776 10.8359 8.55469 10.7891C8.73177 10.737 8.89844 10.6667 9.05469 10.5781C8.8099 10.9792 8.5026 11.3229 8.13281 11.6094C7.76302 11.8906 7.34375 12.1068 6.875 12.2578C6.40625 12.4089 5.90104 12.4844 5.35938 12.4844C5.22917 12.4844 5.11979 12.5286 5.03125 12.6172C4.94792 12.7057 4.90625 12.8099 4.90625 12.9297C4.90625 13.0495 4.94792 13.1536 5.03125 13.2422C5.11979 13.3307 5.22917 13.375 5.35938 13.375C6.07812 13.375 6.7474 13.2578 7.36719 13.0234C7.99219 12.7839 8.53906 12.4453 9.00781 12.0078C9.47656 11.5703 9.84115 11.0443 10.1016 10.4297C10.3672 9.8099 10.5 9.11979 10.5 8.35938C10.5 7.90104 10.3854 7.48438 10.1562 7.10938C9.92708 6.72917 9.6224 6.42708 9.24219 6.20312C8.86719 5.97396 8.45312 5.85938 8 5.85938C7.8125 5.85938 7.63021 5.88542 7.45312 5.9375C7.27604 5.98438 7.10938 6.05208 6.95312 6.14062C7.19792 5.73958 7.50521 5.39844 7.875 5.11719C8.24479 4.83073 8.66406 4.61198 9.13281 4.46094C9.60156 4.3099 10.1068 4.23438 10.6484 4.23438C10.7786 4.23438 10.8854 4.1901 10.9688 4.10156C11.0573 4.01302 11.1016 3.90625 11.1016 3.78125C11.1016 3.66146 11.0573 3.5599 10.9688 3.47656C10.8802 3.38802 10.7734 3.34375 10.6484 3.34375C9.92969 3.34375 9.25781 3.46094 8.63281 3.69531C8.01302 3.92969 7.46875 4.26823 7 4.71094C6.53125 5.14844 6.16406 5.67708 5.89844 6.29688C5.63802 6.91146 5.50781 7.59896 5.50781 8.35938ZM6.39844 8.35938C6.39844 8.0625 6.46875 7.79427 6.60938 7.55469C6.75521 7.3099 6.94792 7.11719 7.1875 6.97656C7.43229 6.83073 7.70312 6.75781 8 6.75781C8.29688 6.75781 8.5651 6.83073 8.80469 6.97656C9.04948 7.11719 9.24479 7.3099 9.39062 7.55469C9.53646 7.79427 9.60938 8.0625 9.60938 8.35938C9.60938 8.65625 9.53646 8.92708 9.39062 9.17188C9.24479 9.41146 9.04948 9.60417 8.80469 9.75C8.5651 9.89062 8.29688 9.96094 8 9.96094C7.70312 9.96094 7.43229 9.89062 7.1875 9.75C6.94792 9.60417 6.75521 9.41146 6.60938 9.17188C6.46875 8.92708 6.39844 8.65625 6.39844 8.35938ZM7.22656 8.35938C7.22656 8.56771 7.30208 8.75 7.45312 8.90625C7.60938 9.05729 7.79167 9.13281 8 9.13281C8.21354 9.13281 8.39583 9.05729 8.54688 8.90625C8.70312 8.75 8.78125 8.56771 8.78125 8.35938C8.78125 8.14583 8.70312 7.96354 8.54688 7.8125C8.39583 7.66146 8.21354 7.58594 8 7.58594C7.79167 7.58594 7.60938 7.66146 7.45312 7.8125C7.30208 7.96354 7.22656 8.14583 7.22656 8.35938Z" fill="white"/>
</svg>
