<svg width="167" height="138" viewBox="0 0 167 138" fill="none" xmlns="http://www.w3.org/2000/svg">
<path d="M51.8125 137.438H115.312C120.688 137.438 124.958 135.875 128.125 132.75C131.292 129.625 132.917 125.396 133 120.062L133.812 59.0625L148.75 62.5C151.75 63.1667 154.208 62.8958 156.125 61.6875C158.042 60.4375 159.396 58.2708 160.188 55.1875L165.688 33C166.479 29.9583 166.292 27.375 165.125 25.25C164 23.0833 162 21.3958 159.125 20.1875L115.625 1.625C114 0.916667 112.562 0.583333 111.312 0.625C110.104 0.625 108.833 0.9375 107.5 1.5625C104.792 2.85417 102.188 3.9375 99.6875 4.8125C97.2292 5.64583 94.6875 6.29167 92.0625 6.75C89.4792 7.20833 86.6458 7.4375 83.5625 7.4375C80.4792 7.4375 77.625 7.20833 75 6.75C72.4167 6.29167 69.875 5.64583 67.375 4.8125C64.9167 3.9375 62.3125 2.85417 59.5625 1.5625C58.2708 0.9375 57 0.625 55.75 0.625C54.5 0.583333 53.0625 0.916667 51.4375 1.625L8 20.1875C5.08333 21.3958 3.0625 23.0833 1.9375 25.25C0.8125 27.375 0.625 29.9583 1.375 33L6.9375 55.1875C7.6875 58.2708 9.02083 60.4375 10.9375 61.6875C12.8958 62.8958 15.375 63.1667 18.375 62.5L33.3125 59.0625L34.125 120.062C34.2083 125.396 35.8125 129.625 38.9375 132.75C42.1042 135.875 46.3958 137.438 51.8125 137.438ZM51.9375 127.812C49.3958 127.812 47.3958 127.083 45.9375 125.625C44.5208 124.167 43.7917 122.146 43.75 119.562L42.875 49.875C42.875 49.125 42.6042 48.5417 42.0625 48.125C41.5625 47.6667 40.875 47.5208 40 47.6875L18.125 52.5625C16.9167 52.8542 16.1667 52.4375 15.875 51.3125L10.9375 31.625C10.7292 30.875 10.7292 30.3125 10.9375 29.9375C11.1875 29.5625 11.625 29.25 12.25 29L57.1875 9.8125C61.3958 12.0208 65.6042 13.6875 69.8125 14.8125C74.0625 15.9375 78.6458 16.5 83.5625 16.5C88.4792 16.5 93.0417 15.9375 97.25 14.8125C101.5 13.6875 105.729 12.0208 109.938 9.8125L154.875 29C155.458 29.25 155.875 29.5625 156.125 29.9375C156.375 30.3125 156.396 30.875 156.188 31.625L151.188 51.3125C150.938 52.4375 150.208 52.8542 149 52.5625L127.125 47.6875C126.25 47.5208 125.542 47.6667 125 48.125C124.5 48.5417 124.25 49.125 124.25 49.875L123.375 119.562C123.333 122.146 122.583 124.167 121.125 125.625C119.708 127.083 117.729 127.812 115.188 127.812H51.9375ZM83.5625 35.25C88.4792 35.25 93.0833 34.1875 97.375 32.0625C101.708 29.8958 105.354 26.9375 108.312 23.1875C111.271 19.3958 113.208 15.0833 114.125 10.25L105 6.25C104.583 9.91667 103.354 13.2292 101.312 16.1875C99.2708 19.1042 96.6875 21.4167 93.5625 23.125C90.4792 24.7917 87.1458 25.625 83.5625 25.625C79.9792 25.625 76.625 24.7917 73.5 23.125C70.4167 21.4167 67.8542 19.1042 65.8125 16.1875C63.7708 13.2292 62.5417 9.91667 62.125 6.25L53 10.25C53.9167 15.0833 55.8542 19.3958 58.8125 23.1875C61.7708 26.9375 65.3958 29.8958 69.6875 32.0625C74.0208 34.1875 78.6458 35.25 83.5625 35.25Z" fill="white"/>
</svg>
