<svg width="167" height="138" viewBox="0 0 167 138" fill="none" xmlns="http://www.w3.org/2000/svg">
<path d="M51.5 137.125H115.062C120.854 137.125 125.167 135.708 128 132.875C130.875 130.083 132.354 125.812 132.438 120.062L133.25 58.6875L148.562 62.1875C151.479 62.8125 153.854 62.5417 155.688 61.375C157.562 60.2083 158.854 58.125 159.562 55.125L165.125 32.9375C165.875 29.9792 165.708 27.4792 164.625 25.4375C163.542 23.3542 161.562 21.7083 158.688 20.5L114.688 1.75C113.438 1.20833 112.229 0.958333 111.062 1C109.896 1 108.729 1.27083 107.562 1.8125C104.812 3.10417 102.167 4.1875 99.625 5.0625C97.125 5.9375 94.5417 6.60417 91.875 7.0625C89.25 7.52083 86.3958 7.75 83.3125 7.75C80.1875 7.75 77.2917 7.52083 74.625 7.0625C72 6.60417 69.4167 5.9375 66.875 5.0625C64.375 4.1875 61.75 3.10417 59 1.8125C57.8333 1.27083 56.6667 1 55.5 1C54.3333 0.958333 53.125 1.20833 51.875 1.75L7.875 20.5C5.04167 21.7083 3.0625 23.3542 1.9375 25.4375C0.854167 27.4792 0.6875 29.9792 1.4375 32.9375L7 55.125C7.70833 58.125 8.97917 60.2083 10.8125 61.375C12.6875 62.5417 15.0833 62.8125 18 62.1875L33.375 58.6875L34.125 120.062C34.2083 125.812 35.6667 130.083 38.5 132.875C41.375 135.708 45.7083 137.125 51.5 137.125ZM83.3125 27.25C79.7292 27.25 76.5208 26.6667 73.6875 25.5C70.8958 24.3333 68.5 22.6667 66.5 20.5C64.5417 18.3333 63.0208 15.7292 61.9375 12.6875C65.1875 13.9375 68.625 14.8958 72.25 15.5625C75.9167 16.2292 79.6042 16.5625 83.3125 16.5625C86.9792 16.5625 90.625 16.2292 94.25 15.5625C97.9167 14.8958 101.375 13.9375 104.625 12.6875C103.583 15.6875 102.083 18.2708 100.125 20.4375C98.1667 22.6042 95.7708 24.2917 92.9375 25.5C90.1042 26.6667 86.8958 27.25 83.3125 27.25Z" fill="white"/>
</svg>
