<svg width="16" height="15" viewBox="0 0 16 15" fill="none" xmlns="http://www.w3.org/2000/svg">
<path d="M3.25781 14.5625H12.7344C13.5521 14.5625 14.1641 14.3594 14.5703 13.9531C14.9818 13.5521 15.1875 12.9479 15.1875 12.1406V2.60156C15.1875 1.79427 14.9818 1.1901 14.5703 0.789062C14.1641 0.382812 13.5521 0.179688 12.7344 0.179688H3.25781C2.4401 0.179688 1.82552 0.382812 1.41406 0.789062C1.00781 1.1901 0.804688 1.79427 0.804688 2.60156V12.1406C0.804688 12.9479 1.00781 13.5521 1.41406 13.9531C1.82552 14.3594 2.4401 14.5625 3.25781 14.5625ZM3.27344 13.3047C2.88281 13.3047 2.58333 13.2031 2.375 13C2.16667 12.7917 2.0625 12.4844 2.0625 12.0781V2.66406C2.0625 2.25781 2.16667 1.95312 2.375 1.75C2.58333 1.54167 2.88281 1.4375 3.27344 1.4375H12.7188C13.1042 1.4375 13.401 1.54167 13.6094 1.75C13.8229 1.95312 13.9297 2.25781 13.9297 2.66406V12.0781C13.9297 12.4844 13.8229 12.7917 13.6094 13C13.401 13.2031 13.1042 13.3047 12.7188 13.3047H3.27344ZM8 11.2188C8.15104 11.2188 8.27344 11.1719 8.36719 11.0781C8.46094 10.9844 8.50781 10.8568 8.50781 10.6953V8.94531L9.83594 8.35156C10.013 8.26823 10.1016 8.14323 10.1016 7.97656C10.1016 7.86719 10.0651 7.77865 9.99219 7.71094C9.92448 7.63802 9.83594 7.60156 9.72656 7.60156C9.66406 7.60156 9.59635 7.61719 9.52344 7.64844L8.50781 8.11719V7.375L9.83594 6.77344C10.013 6.69531 10.1016 6.57292 10.1016 6.40625C10.1016 6.29688 10.0651 6.20573 9.99219 6.13281C9.92448 6.0599 9.83594 6.02344 9.72656 6.02344C9.66927 6.02344 9.60417 6.03906 9.53125 6.07031L8.50781 6.54688V4.71875H10.3672C10.5078 4.71875 10.625 4.67448 10.7188 4.58594C10.8125 4.4974 10.8594 4.38281 10.8594 4.24219C10.8594 4.10156 10.8125 3.98958 10.7188 3.90625C10.625 3.81771 10.5078 3.77344 10.3672 3.77344H5.625C5.47917 3.77344 5.35938 3.81771 5.26562 3.90625C5.17708 3.98958 5.13281 4.10156 5.13281 4.24219C5.13281 4.38281 5.17708 4.4974 5.26562 4.58594C5.35938 4.67448 5.47917 4.71875 5.625 4.71875H7.48438V6.96875L6.17188 7.55469C5.99479 7.63802 5.90625 7.76042 5.90625 7.92188C5.90625 8.03125 5.9401 8.1224 6.00781 8.19531C6.07552 8.26823 6.16406 8.30469 6.27344 8.30469C6.3099 8.30469 6.34375 8.29948 6.375 8.28906C6.41146 8.27865 6.44531 8.26823 6.47656 8.25781L7.48438 7.78906V8.53906L6.17188 9.13281C5.99479 9.21615 5.90625 9.33854 5.90625 9.5C5.90625 9.60938 5.9401 9.70052 6.00781 9.77344C6.07552 9.84115 6.16406 9.875 6.27344 9.875C6.3099 9.875 6.34375 9.8724 6.375 9.86719C6.41146 9.85677 6.44531 9.84375 6.47656 9.82812L7.48438 9.36719V10.6953C7.48438 10.8568 7.53125 10.9844 7.625 11.0781C7.72396 11.1719 7.84896 11.2188 8 11.2188Z" fill="white"/>
</svg>
