<svg width="133" height="133" viewBox="0 0 133 133" fill="none" xmlns="http://www.w3.org/2000/svg">
<path d="M34.375 65.375V89.0625L9.5625 113.938L18.5 122.812L42.875 98.5L67.5 98.4375C69.5 98.4375 71.5 98.0833 73.5 97.375C75.5 96.6667 77.2292 95.5833 78.6875 94.125L130.438 43.125C131.688 41.875 132.292 40.375 132.25 38.625C132.208 36.875 131.604 35.3958 130.438 34.1875C129.229 32.9375 127.729 32.3125 125.938 32.3125C124.188 32.3125 122.708 32.9375 121.5 34.1875L71.75 84C70.8333 84.875 69.8333 85.5625 68.75 86.0625C67.6667 86.5625 66.4792 86.8125 65.1875 86.8125H47.75L46.8125 85.6875V66.9375C46.8125 65.6458 47.0417 64.4583 47.5 63.375C48 62.25 48.6875 61.25 49.5625 60.375L98.6875 11.375C99.8958 10.125 100.479 8.625 100.438 6.875C100.438 5.125 99.8542 3.625 98.6875 2.375C97.4792 1.16667 95.9792 0.5625 94.1875 0.5625C92.4375 0.520833 90.9583 1.14583 89.75 2.4375L38.75 54.1875C37.2083 55.7292 36.1042 57.4792 35.4375 59.4375C34.7708 61.3542 34.4167 63.3333 34.375 65.375ZM12.0625 132.125C14.2292 132.125 16.1875 131.583 17.9375 130.5C19.7292 129.458 21.1458 128.042 22.1875 126.25C23.2708 124.5 23.8125 122.542 23.8125 120.375C23.8125 118.208 23.2708 116.229 22.1875 114.438C21.1458 112.646 19.7292 111.229 17.9375 110.188C16.1875 109.146 14.2292 108.625 12.0625 108.625C9.89583 108.625 7.9375 109.167 6.1875 110.25C4.4375 111.292 3.02083 112.688 1.9375 114.438C0.895833 116.229 0.375 118.208 0.375 120.375C0.375 122.542 0.895833 124.5 1.9375 126.25C3.02083 128.042 4.4375 129.458 6.1875 130.5C7.97917 131.583 9.9375 132.125 12.0625 132.125Z" fill="white"/>
</svg>
