<svg width="18" height="17" viewBox="0 0 18 17" fill="none" xmlns="http://www.w3.org/2000/svg">
<path d="M5.00781 8.29688V11.2578L1.90625 14.3672L3.02344 15.4766L6.07031 12.4375L9.14844 12.4297C9.39844 12.4297 9.64844 12.3854 9.89844 12.2969C10.1484 12.2083 10.3646 12.0729 10.5469 11.8906L17.0156 5.51562C17.1719 5.35938 17.2474 5.17188 17.2422 4.95312C17.237 4.73438 17.1615 4.54948 17.0156 4.39844C16.8646 4.24219 16.6771 4.16406 16.4531 4.16406C16.2344 4.16406 16.0495 4.24219 15.8984 4.39844L9.67969 10.625C9.5651 10.7344 9.4401 10.8203 9.30469 10.8828C9.16927 10.9453 9.02083 10.9766 8.85938 10.9766H6.67969L6.5625 10.8359V8.49219C6.5625 8.33073 6.59115 8.18229 6.64844 8.04688C6.71094 7.90625 6.79688 7.78125 6.90625 7.67188L13.0469 1.54688C13.1979 1.39062 13.2708 1.20312 13.2656 0.984375C13.2656 0.765625 13.1927 0.578125 13.0469 0.421875C12.8958 0.270833 12.7083 0.195312 12.4844 0.195312C12.2656 0.190104 12.0807 0.268229 11.9297 0.429688L5.55469 6.89844C5.36198 7.09115 5.22396 7.3099 5.14062 7.55469C5.05729 7.79427 5.01302 8.04167 5.00781 8.29688ZM2.21875 16.6406C2.48958 16.6406 2.73438 16.5729 2.95312 16.4375C3.17708 16.3073 3.35417 16.1302 3.48438 15.9062C3.61979 15.6875 3.6875 15.4427 3.6875 15.1719C3.6875 14.901 3.61979 14.6536 3.48438 14.4297C3.35417 14.2057 3.17708 14.0286 2.95312 13.8984C2.73438 13.7682 2.48958 13.7031 2.21875 13.7031C1.94792 13.7031 1.70312 13.7708 1.48438 13.9062C1.26562 14.0365 1.08854 14.2109 0.953125 14.4297C0.822917 14.6536 0.757812 14.901 0.757812 15.1719C0.757812 15.4427 0.822917 15.6875 0.953125 15.9062C1.08854 16.1302 1.26562 16.3073 1.48438 16.4375C1.70833 16.5729 1.95312 16.6406 2.21875 16.6406Z" fill="white"/>
</svg>
