<svg width="24" height="18" viewBox="0 0 24 18" fill="none" xmlns="http://www.w3.org/2000/svg">
<path d="M2.90625 13.7891H13.6406V12.5312H2.92969C2.65885 12.5312 2.46094 12.474 2.33594 12.3594C2.21615 12.2396 2.15625 12.0417 2.15625 11.7656V2.85156C2.15625 2.57552 2.21615 2.38021 2.33594 2.26562C2.46094 2.14583 2.65885 2.08594 2.92969 2.08594H18.3828C18.6484 2.08594 18.8411 2.14583 18.9609 2.26562C19.0859 2.38021 19.1484 2.57552 19.1484 2.85156V5.21094H20.4062V2.82812C20.4062 2.14583 20.2396 1.64323 19.9062 1.32031C19.5729 0.992188 19.0729 0.828125 18.4062 0.828125H2.90625C2.23958 0.828125 1.73698 0.992188 1.39844 1.32031C1.0651 1.64323 0.898438 2.14583 0.898438 2.82812V11.7812C0.898438 12.4688 1.0651 12.9766 1.39844 13.3047C1.73698 13.6276 2.23958 13.7891 2.90625 13.7891ZM6.29688 16.4375H13.7578C13.7318 16.349 13.7109 16.25 13.6953 16.1406C13.6797 16.0365 13.6667 15.9062 13.6562 15.75C13.6458 15.599 13.6406 15.4062 13.6406 15.1719H6.29688C6.11979 15.1719 5.96875 15.2344 5.84375 15.3594C5.72396 15.4844 5.66406 15.6328 5.66406 15.8047C5.66406 15.9818 5.72396 16.1302 5.84375 16.25C5.96875 16.375 6.11979 16.4375 6.29688 16.4375ZM16.3594 17.1641H21.4375C21.9844 17.1641 22.3958 17.0234 22.6719 16.7422C22.9531 16.4661 23.0938 16.0495 23.0938 15.4922V7.95312C23.0938 7.39583 22.9531 6.97656 22.6719 6.69531C22.3958 6.41406 21.9844 6.27344 21.4375 6.27344H16.3594C15.8021 6.27344 15.3854 6.41406 15.1094 6.69531C14.8385 6.97656 14.7031 7.39583 14.7031 7.95312V15.4922C14.7031 16.0495 14.8385 16.4661 15.1094 16.7422C15.3854 17.0234 15.8021 17.1641 16.3594 17.1641ZM18.8984 10.2578C18.5234 10.2578 18.2031 10.1276 17.9375 9.86719C17.6771 9.60156 17.5495 9.27865 17.5547 8.89844C17.5599 8.52344 17.6901 8.20833 17.9453 7.95312C18.2057 7.69271 18.5234 7.5625 18.8984 7.5625C19.2734 7.5625 19.5911 7.69271 19.8516 7.95312C20.112 8.20833 20.2422 8.52344 20.2422 8.89844C20.2422 9.27865 20.112 9.60156 19.8516 9.86719C19.5911 10.1276 19.2734 10.2578 18.8984 10.2578ZM18.8906 15.8125C18.4479 15.8125 18.0469 15.7031 17.6875 15.4844C17.3281 15.2708 17.0417 14.9818 16.8281 14.6172C16.6146 14.2578 16.5078 13.8568 16.5078 13.4141C16.5078 12.9661 16.6146 12.5625 16.8281 12.2031C17.0417 11.8385 17.3281 11.5495 17.6875 11.3359C18.0469 11.1224 18.4479 11.013 18.8906 11.0078C19.3333 11.0078 19.7344 11.1146 20.0938 11.3281C20.4583 11.5417 20.7474 11.8307 20.9609 12.1953C21.1797 12.5599 21.2891 12.9661 21.2891 13.4141C21.2891 13.8568 21.1797 14.2578 20.9609 14.6172C20.7474 14.9818 20.4583 15.2708 20.0938 15.4844C19.7344 15.7031 19.3333 15.8125 18.8906 15.8125ZM18.8906 9.57031C19.0781 9.57031 19.2344 9.50521 19.3594 9.375C19.4896 9.24479 19.5547 9.08594 19.5547 8.89844C19.5547 8.71094 19.4896 8.55469 19.3594 8.42969C19.2344 8.30469 19.0781 8.24219 18.8906 8.24219C18.7135 8.24219 18.5599 8.30729 18.4297 8.4375C18.2995 8.56771 18.2344 8.72135 18.2344 8.89844C18.2344 9.08594 18.2969 9.24479 18.4219 9.375C18.5521 9.50521 18.7083 9.57031 18.8906 9.57031ZM18.8906 14.4141C19.1719 14.4141 19.4115 14.3151 19.6094 14.1172C19.8073 13.9245 19.9062 13.6901 19.9062 13.4141C19.9062 13.1224 19.8073 12.8802 19.6094 12.6875C19.4167 12.4896 19.1771 12.3906 18.8906 12.3906C18.6146 12.3906 18.3776 12.4896 18.1797 12.6875C17.987 12.8802 17.8906 13.1224 17.8906 13.4141C17.8906 13.6901 17.987 13.9245 18.1797 14.1172C18.3776 14.3151 18.6146 14.4141 18.8906 14.4141Z" fill="white"/>
</svg>
