<svg width="128" height="128" viewBox="0 0 128 128" fill="none" xmlns="http://www.w3.org/2000/svg">
<path d="M63.9375 127.625C72.6458 127.625 80.8333 125.958 88.5 122.625C96.2083 119.292 103 114.688 108.875 108.812C114.75 102.938 119.354 96.1667 122.688 88.5C126.021 80.7917 127.688 72.5833 127.688 63.875C127.688 55.1667 126.021 46.9792 122.688 39.3125C119.354 31.6042 114.75 24.8125 108.875 18.9375C103 13.0625 96.2083 8.45833 88.5 5.125C80.7917 1.79167 72.5833 0.125 63.875 0.125C55.1667 0.125 46.9583 1.79167 39.25 5.125C31.5833 8.45833 24.8125 13.0625 18.9375 18.9375C13.1042 24.8125 8.52083 31.6042 5.1875 39.3125C1.85417 46.9792 0.1875 55.1667 0.1875 63.875C0.1875 72.5833 1.85417 80.7917 5.1875 88.5C8.52083 96.1667 13.125 102.938 19 108.812C24.875 114.688 31.6458 119.292 39.3125 122.625C47.0208 125.958 55.2292 127.625 63.9375 127.625ZM63.9375 117C56.5625 117 49.6667 115.625 43.25 112.875C36.8333 110.125 31.1875 106.333 26.3125 101.5C21.4792 96.625 17.6875 90.9792 14.9375 84.5625C12.2292 78.1458 10.875 71.25 10.875 63.875C10.875 56.5 12.2292 49.6042 14.9375 43.1875C17.6875 36.7708 21.4792 31.125 26.3125 26.25C31.1458 21.375 36.7708 17.5833 43.1875 14.875C49.6042 12.125 56.5 10.75 63.875 10.75C71.25 10.75 78.1458 12.125 84.5625 14.875C91.0208 17.5833 96.6667 21.375 101.5 26.25C106.375 31.125 110.188 36.7708 112.938 43.1875C115.688 49.6042 117.062 56.5 117.062 63.875C117.062 71.25 115.688 78.1458 112.938 84.5625C110.229 90.9792 106.438 96.625 101.562 101.5C96.6875 106.333 91.0417 110.125 84.625 112.875C78.2083 115.625 71.3125 117 63.9375 117ZM36.0625 85.6875H91.625C94.4583 85.6875 96.6458 84.9167 98.1875 83.375C99.7708 81.8333 100.562 79.6458 100.562 76.8125V44.9375C100.562 42.1042 99.7917 39.9167 98.25 38.375C96.7083 36.8333 94.5 36.0625 91.625 36.0625H36.0625C33.1875 36.0625 30.9792 36.8333 29.4375 38.375C27.8958 39.9167 27.125 42.1042 27.125 44.9375V76.8125C27.125 79.6458 27.8958 81.8333 29.4375 83.375C31.0208 84.9167 33.2292 85.6875 36.0625 85.6875ZM36.75 77.8125C36.0833 77.8125 35.625 77.6875 35.375 77.4375C35.1667 77.1875 35.0625 76.75 35.0625 76.125V45.625C35.0625 44.9583 35.1667 44.5208 35.375 44.3125C35.625 44.0625 36.0833 43.9375 36.75 43.9375H90.9375C91.5625 43.9375 92 44.0625 92.25 44.3125C92.5417 44.5625 92.6875 45 92.6875 45.625V76.125C92.6875 76.7083 92.5417 77.1458 92.25 77.4375C92 77.6875 91.5625 77.8125 90.9375 77.8125H36.75ZM47.6875 98.375H80.1875C81.2708 98.375 82.1875 97.9792 82.9375 97.1875C83.6875 96.3958 84.0625 95.4375 84.0625 94.3125C84.0625 93.3125 83.6667 92.4375 82.875 91.6875C82.125 90.8958 81.2292 90.5 80.1875 90.5H47.6875C46.6042 90.5 45.6667 90.8958 44.875 91.6875C44.0833 92.4375 43.6875 93.3125 43.6875 94.3125C43.6875 95.4375 44.0625 96.3958 44.8125 97.1875C45.6042 97.9792 46.5625 98.375 47.6875 98.375Z" fill="white"/>
</svg>
