<?xml version="1.0" encoding="UTF-8"?>
<svg xmlns="http://www.w3.org/2000/svg" xmlns:xlink="http://www.w3.org/1999/xlink" width="24" height="25.5" viewBox="0 0 24 25.5" version="1.1">
<g id="surface1">
<path style=" stroke:none;fill-rule:nonzero;fill:rgb(100%,100%,100%);fill-opacity:1;" d="M 12 24.492188 C 13.632812 24.492188 15.167969 24.179688 16.605469 23.554688 C 18.050781 22.929688 19.324219 22.066406 20.425781 20.964844 C 21.527344 19.863281 22.390625 18.59375 23.015625 17.15625 C 23.640625 15.710938 23.953125 14.171875 23.953125 12.539062 C 23.953125 10.90625 23.640625 9.371094 23.015625 7.933594 C 22.390625 6.488281 21.527344 5.214844 20.425781 4.113281 C 19.324219 3.011719 18.050781 2.148438 16.605469 1.523438 C 15.160156 0.898438 13.621094 0.585938 11.988281 0.585938 C 10.355469 0.585938 8.816406 0.898438 7.371094 1.523438 C 5.933594 2.148438 4.664062 3.011719 3.5625 4.113281 C 2.46875 5.214844 1.609375 6.488281 0.984375 7.933594 C 0.359375 9.371094 0.046875 10.90625 0.046875 12.539062 C 0.046875 14.171875 0.359375 15.710938 0.984375 17.15625 C 1.609375 18.59375 2.472656 19.863281 3.574219 20.964844 C 4.675781 22.066406 5.945312 22.929688 7.382812 23.554688 C 8.828125 24.179688 10.367188 24.492188 12 24.492188 Z M 6.621094 16.734375 C 6.074219 16.734375 5.648438 16.585938 5.34375 16.289062 C 5.046875 15.992188 4.898438 15.570312 4.898438 15.023438 L 4.898438 8.859375 C 4.898438 8.304688 5.046875 7.878906 5.34375 7.582031 C 5.640625 7.285156 6.066406 7.136719 6.621094 7.136719 L 17.367188 7.136719 C 17.921875 7.136719 18.347656 7.285156 18.644531 7.582031 C 18.941406 7.878906 19.089844 8.304688 19.089844 8.859375 L 19.089844 15.023438 C 19.089844 15.570312 18.9375 15.992188 18.632812 16.289062 C 18.335938 16.585938 17.914062 16.734375 17.367188 16.734375 Z M 6.761719 15.210938 L 17.226562 15.210938 C 17.351562 15.210938 17.4375 15.1875 17.484375 15.140625 C 17.539062 15.085938 17.566406 15 17.566406 14.882812 L 17.566406 8.988281 C 17.566406 8.871094 17.539062 8.789062 17.484375 8.742188 C 17.4375 8.695312 17.351562 8.671875 17.226562 8.671875 L 6.761719 8.671875 C 6.636719 8.671875 6.550781 8.695312 6.503906 8.742188 C 6.457031 8.78125 6.433594 8.863281 6.433594 8.988281 L 6.433594 14.882812 C 6.433594 15.007812 6.457031 15.09375 6.503906 15.140625 C 6.550781 15.1875 6.636719 15.210938 6.761719 15.210938 Z M 8.871094 19.195312 C 8.660156 19.195312 8.476562 19.117188 8.320312 18.960938 C 8.171875 18.804688 8.097656 18.617188 8.097656 18.398438 C 8.097656 18.203125 8.171875 18.03125 8.320312 17.882812 C 8.476562 17.734375 8.660156 17.660156 8.871094 17.660156 L 15.152344 17.660156 C 15.355469 17.660156 15.53125 17.734375 15.679688 17.882812 C 15.828125 18.03125 15.902344 18.203125 15.902344 18.398438 C 15.902344 18.617188 15.828125 18.804688 15.679688 18.960938 C 15.539062 19.117188 15.363281 19.195312 15.152344 19.195312 Z M 8.871094 19.195312 "/>
</g>
</svg>
