<svg width="16" height="17" viewBox="0 0 16 17" fill="none" xmlns="http://www.w3.org/2000/svg">
<path d="M8 16.3281C9.08854 16.3281 10.112 16.1198 11.0703 15.7031C12.0339 15.2865 12.8828 14.7109 13.6172 13.9766C14.3516 13.2422 14.9271 12.3958 15.3438 11.4375C15.7604 10.474 15.9688 9.44792 15.9688 8.35938C15.9688 7.27083 15.7604 6.2474 15.3438 5.28906C14.9271 4.32552 14.3516 3.47656 13.6172 2.74219C12.8828 2.00781 12.0339 1.43229 11.0703 1.01562C10.1068 0.598958 9.08073 0.390625 7.99219 0.390625C6.90365 0.390625 5.8776 0.598958 4.91406 1.01562C3.95573 1.43229 3.10938 2.00781 2.375 2.74219C1.64583 3.47656 1.07292 4.32552 0.65625 5.28906C0.239583 6.2474 0.03125 7.27083 0.03125 8.35938C0.03125 9.44792 0.239583 10.474 0.65625 11.4375C1.07292 12.3958 1.64844 13.2422 2.38281 13.9766C3.11719 14.7109 3.96354 15.2865 4.92188 15.7031C5.88542 16.1198 6.91146 16.3281 8 16.3281ZM4.41406 11.1562C4.04948 11.1562 3.76562 11.0573 3.5625 10.8594C3.36458 10.6615 3.26562 10.3802 3.26562 10.0156V5.90625C3.26562 5.53646 3.36458 5.2526 3.5625 5.05469C3.76042 4.85677 4.04427 4.75781 4.41406 4.75781H11.5781C11.9479 4.75781 12.2318 4.85677 12.4297 5.05469C12.6276 5.2526 12.7266 5.53646 12.7266 5.90625V10.0156C12.7266 10.3802 12.625 10.6615 12.4219 10.8594C12.224 11.0573 11.9427 11.1562 11.5781 11.1562H4.41406ZM4.50781 10.1406H11.4844C11.5677 10.1406 11.625 10.125 11.6562 10.0938C11.6927 10.0573 11.7109 10 11.7109 9.92188V5.99219C11.7109 5.91406 11.6927 5.85938 11.6562 5.82812C11.625 5.79688 11.5677 5.78125 11.4844 5.78125H4.50781C4.42448 5.78125 4.36719 5.79688 4.33594 5.82812C4.30469 5.85417 4.28906 5.90885 4.28906 5.99219V9.92188C4.28906 10.0052 4.30469 10.0625 4.33594 10.0938C4.36719 10.125 4.42448 10.1406 4.50781 10.1406ZM5.91406 12.7969C5.77344 12.7969 5.65104 12.7448 5.54688 12.6406C5.44792 12.5365 5.39844 12.4115 5.39844 12.2656C5.39844 12.1354 5.44792 12.0208 5.54688 11.9219C5.65104 11.8229 5.77344 11.7734 5.91406 11.7734H10.1016C10.237 11.7734 10.3542 11.8229 10.4531 11.9219C10.5521 12.0208 10.6016 12.1354 10.6016 12.2656C10.6016 12.4115 10.5521 12.5365 10.4531 12.6406C10.3594 12.7448 10.2422 12.7969 10.1016 12.7969H5.91406Z" fill="white"/>
</svg>
