<svg width="16" height="19" viewBox="0 0 16 19" fill="none" xmlns="http://www.w3.org/2000/svg">
<path d="M7.35156 2.46094H8.64844V0.78125C8.64844 0.598958 8.58594 0.445312 8.46094 0.320312C8.33594 0.190104 8.18229 0.125 8 0.125C7.81771 0.125 7.66406 0.190104 7.53906 0.320312C7.41406 0.445312 7.35156 0.598958 7.35156 0.78125V2.46094ZM0.859375 10.0391C0.973958 10.0391 1.08333 10.0052 1.1875 9.9375C1.29688 9.86458 1.39323 9.76302 1.47656 9.63281C1.73698 9.23698 2.01042 8.95312 2.29688 8.78125C2.58854 8.60417 2.91927 8.51562 3.28906 8.51562C3.65365 8.51562 3.96615 8.60417 4.22656 8.78125C4.48698 8.95312 4.72917 9.23438 4.95312 9.625C5.11458 9.90104 5.29948 10.0391 5.50781 10.0391C5.72656 10.0391 5.91146 9.90104 6.0625 9.625C6.27083 9.26562 6.55208 8.98438 6.90625 8.78125C7.26042 8.57292 7.625 8.46875 8 8.46875C8.375 8.46875 8.73958 8.57292 9.09375 8.78125C9.44792 8.98438 9.72917 9.26562 9.9375 9.625C10.0833 9.90104 10.2682 10.0391 10.4922 10.0391C10.7005 10.0391 10.8828 9.90104 11.0391 9.625C11.2682 9.23438 11.513 8.95312 11.7734 8.78125C12.0339 8.60417 12.3464 8.51562 12.7109 8.51562C13.0807 8.51562 13.4089 8.60417 13.6953 8.78125C13.987 8.95312 14.2604 9.23698 14.5156 9.63281C14.6042 9.76302 14.7005 9.86458 14.8047 9.9375C14.9141 10.0052 15.026 10.0391 15.1406 10.0391C15.3333 10.0391 15.4896 9.96875 15.6094 9.82812C15.7292 9.6875 15.7891 9.51042 15.7891 9.29688C15.7891 8.67708 15.6875 8.02604 15.4844 7.34375C15.2865 6.65625 14.9844 5.98698 14.5781 5.33594C14.1771 4.6849 13.6667 4.09635 13.0469 3.57031C12.4271 3.04427 11.6979 2.625 10.8594 2.3125C10.0208 2 9.06771 1.84375 8 1.84375C6.93229 1.84375 5.97656 2 5.13281 2.3125C4.29427 2.625 3.5651 3.04427 2.94531 3.57031C2.33073 4.09635 1.82031 4.6849 1.41406 5.33594C1.00781 5.98698 0.705729 6.65625 0.507812 7.34375C0.309896 8.02604 0.210938 8.67708 0.210938 9.29688C0.210938 9.51042 0.268229 9.6875 0.382812 9.82812C0.502604 9.96875 0.661458 10.0391 0.859375 10.0391ZM6.16406 18.1875C6.63281 18.1875 7.05469 18.0781 7.42969 17.8594C7.80469 17.6406 8.10156 17.3438 8.32031 16.9688C8.53906 16.5938 8.64844 16.1693 8.64844 15.6953V8.09375H7.35156V15.6953C7.35156 16.0391 7.23958 16.3203 7.01562 16.5391C6.79688 16.7578 6.51302 16.8672 6.16406 16.8672C5.82552 16.8672 5.54688 16.7578 5.32812 16.5391C5.10938 16.3203 5 16.0391 5 15.6953C5 15.4714 4.9375 15.2891 4.8125 15.1484C4.6875 15.0078 4.52604 14.9375 4.32812 14.9375C4.13542 14.9375 3.97917 15.0078 3.85938 15.1484C3.73958 15.2891 3.67969 15.4714 3.67969 15.6953C3.67969 16.1693 3.78906 16.5938 4.00781 16.9688C4.22656 17.3438 4.52344 17.6406 4.89844 17.8594C5.27344 18.0781 5.69531 18.1875 6.16406 18.1875Z" fill="white"/>
</svg>
