<?xml version="1.0" encoding="UTF-8"?>
<svg xmlns="http://www.w3.org/2000/svg" xmlns:xlink="http://www.w3.org/1999/xlink" width="24" height="36" viewBox="0 0 24 36" version="1.1">
<g id="surface1">
<path style=" stroke:none;fill-rule:nonzero;fill:rgb(100%,100%,100%);fill-opacity:1;" d="M 11.980469 29.15625 C 14.230469 29.15625 16.175781 28.738281 17.8125 27.898438 C 19.449219 27.0625 20.707031 25.898438 21.582031 24.414062 C 22.46875 22.914062 22.914062 21.179688 22.914062 19.21875 L 22.914062 3.113281 C 22.914062 2.585938 22.75 2.167969 22.425781 1.855469 C 22.113281 1.53125 21.6875 1.367188 21.148438 1.367188 C 20.625 1.367188 20.207031 1.53125 19.894531 1.855469 C 19.59375 2.167969 19.445312 2.585938 19.445312 3.113281 L 19.445312 18.9375 C 19.445312 21.023438 18.789062 22.71875 17.476562 24.019531 C 16.164062 25.320312 14.332031 25.96875 11.980469 25.96875 C 10.417969 25.96875 9.082031 25.675781 7.96875 25.085938 C 6.855469 24.488281 6.007812 23.664062 5.417969 22.613281 C 4.832031 21.5625 4.539062 20.335938 4.539062 18.9375 L 4.539062 3.113281 C 4.539062 2.585938 4.375 2.167969 4.050781 1.855469 C 3.738281 1.53125 3.3125 1.367188 2.773438 1.367188 C 2.25 1.367188 1.832031 1.53125 1.519531 1.855469 C 1.21875 2.167969 1.070312 2.585938 1.070312 3.113281 L 1.070312 19.21875 C 1.070312 21.179688 1.507812 22.914062 2.382812 24.414062 C 3.269531 25.898438 4.523438 27.0625 6.148438 27.898438 C 7.789062 28.738281 9.730469 29.15625 11.980469 29.15625 Z M 2.175781 34.914062 L 21.789062 34.914062 C 22.101562 34.914062 22.363281 34.804688 22.574219 34.59375 C 22.800781 34.382812 22.914062 34.117188 22.914062 33.804688 C 22.914062 33.480469 22.800781 33.210938 22.574219 33 C 22.363281 32.789062 22.101562 32.679688 21.789062 32.679688 L 2.175781 32.679688 C 1.875 32.679688 1.613281 32.789062 1.386719 33 C 1.175781 33.210938 1.070312 33.480469 1.070312 33.804688 C 1.070312 34.117188 1.175781 34.382812 1.386719 34.59375 C 1.613281 34.804688 1.875 34.914062 2.175781 34.914062 Z M 2.175781 34.914062 "/>
</g>
</svg>
