<svg width="44" height="12" viewBox="0 0 44 12" fill="none" xmlns="http://www.w3.org/2000/svg">
<path d="M0.078125 9H1.13281V5.6543H3.1543C3.16211 5.6543 3.17188 5.6543 3.18359 5.6543C3.19531 5.6543 3.20508 5.6543 3.21289 5.6543L5.02344 9H6.25977L4.30273 5.49023C4.83398 5.32227 5.25 5.02344 5.55078 4.59375C5.85156 4.16406 6.00195 3.65625 6.00195 3.07031V3.05859C6.00195 2.55078 5.89062 2.10938 5.66797 1.73438C5.44531 1.35938 5.13086 1.06836 4.72461 0.861328C4.32227 0.650391 3.84961 0.544922 3.30664 0.544922H0.078125V9ZM1.13281 4.7168V1.48242H3.16602C3.71289 1.48242 4.14062 1.625 4.44922 1.91016C4.75781 2.19531 4.91211 2.58984 4.91211 3.09375V3.10547C4.91211 3.62109 4.76367 4.01953 4.4668 4.30078C4.17383 4.57812 3.75586 4.7168 3.21289 4.7168H1.13281ZM9.52344 9.11133C9.80859 9.11133 10.0703 9.07227 10.3086 8.99414C10.5469 8.91211 10.7598 8.79297 10.9473 8.63672C11.1387 8.48047 11.3008 8.29102 11.4336 8.06836H11.5273V9H12.5469V4.67578C12.5469 4.23828 12.4531 3.86328 12.2656 3.55078C12.082 3.23438 11.8105 2.99219 11.4512 2.82422C11.0957 2.65625 10.6602 2.57227 10.1445 2.57227C9.69531 2.57227 9.29492 2.64258 8.94336 2.7832C8.5918 2.91992 8.30469 3.11328 8.08203 3.36328C7.86328 3.60938 7.72656 3.89844 7.67188 4.23047L7.66602 4.26562H8.68555L8.69141 4.24805C8.77344 4.00195 8.93555 3.8125 9.17773 3.67969C9.41992 3.54297 9.73047 3.47461 10.1094 3.47461C10.582 3.47461 10.9355 3.57812 11.1699 3.78516C11.4082 3.98828 11.5273 4.28516 11.5273 4.67578V6.64453C11.5273 6.94531 11.4492 7.21484 11.293 7.45312C11.1406 7.69141 10.9297 7.88086 10.6602 8.02148C10.3906 8.1582 10.082 8.22656 9.73438 8.22656C9.36719 8.22656 9.0625 8.13867 8.82031 7.96289C8.57812 7.7832 8.45703 7.5332 8.45703 7.21289V7.20117C8.45703 6.88867 8.56641 6.64648 8.78516 6.47461C9.00781 6.30273 9.35938 6.20312 9.83984 6.17578L12.0371 6.03516V5.2207L9.7168 5.36133C9.22852 5.38867 8.8125 5.47852 8.46875 5.63086C8.125 5.7832 7.86328 5.99414 7.68359 6.26367C7.50391 6.5293 7.41406 6.84961 7.41406 7.22461V7.23633C7.41406 7.61914 7.50586 7.95117 7.68945 8.23242C7.87695 8.51367 8.12891 8.73047 8.44531 8.88281C8.76562 9.03516 9.125 9.11133 9.52344 9.11133ZM17.0117 11.2266C17.5859 11.2266 18.084 11.1309 18.5059 10.9395C18.9277 10.752 19.252 10.4844 19.4785 10.1367C19.709 9.78906 19.8242 9.38086 19.8242 8.91211V2.68359H18.8047V3.72656H18.7344C18.6055 3.48828 18.4434 3.2832 18.248 3.11133C18.0566 2.93945 17.8359 2.80664 17.5859 2.71289C17.3359 2.61914 17.0625 2.57227 16.7656 2.57227C16.2148 2.57227 15.7402 2.70508 15.3418 2.9707C14.9434 3.23242 14.6348 3.59375 14.416 4.05469C14.2012 4.51172 14.0938 5.03516 14.0938 5.625V5.63672C14.0938 6.22656 14.2012 6.75 14.416 7.20703C14.6309 7.66406 14.9355 8.02344 15.3301 8.28516C15.7285 8.54297 16.1992 8.67188 16.7422 8.67188C17.0312 8.67188 17.3008 8.63086 17.5508 8.54883C17.8008 8.46289 18.0254 8.33789 18.2246 8.17383C18.4238 8.00977 18.5898 7.8125 18.7227 7.58203H18.8164V8.85938C18.8164 9.32422 18.6562 9.68359 18.3359 9.9375C18.0195 10.1953 17.5781 10.3242 17.0117 10.3242C16.5586 10.3242 16.1953 10.2461 15.9219 10.0898C15.6484 9.9375 15.4844 9.74219 15.4297 9.50391L15.4238 9.49805H14.3691L14.3574 9.50391C14.4121 9.84766 14.5508 10.1484 14.7734 10.4062C15 10.668 15.3027 10.8691 15.6816 11.0098C16.0605 11.1543 16.5039 11.2266 17.0117 11.2266ZM16.9648 7.76953C16.5742 7.76953 16.2422 7.67969 15.9688 7.5C15.6992 7.31641 15.4922 7.06445 15.3477 6.74414C15.207 6.42383 15.1367 6.05469 15.1367 5.63672V5.625C15.1367 5.20703 15.207 4.83594 15.3477 4.51172C15.4922 4.1875 15.6992 3.93359 15.9688 3.75C16.2422 3.56641 16.5742 3.47461 16.9648 3.47461C17.3555 3.47461 17.6895 3.56641 17.9668 3.75C18.248 3.93359 18.4629 4.1875 18.6113 4.51172C18.7637 4.83594 18.8398 5.20703 18.8398 5.625V5.63672C18.8398 6.05469 18.7637 6.42383 18.6113 6.74414C18.4629 7.06445 18.248 7.31641 17.9668 7.5C17.6895 7.67969 17.3555 7.76953 16.9648 7.76953ZM27.1602 9H28.2148V0.544922H27.166L24.916 2.16211V3.27539L27.0664 1.7168H27.1602V9ZM30.6582 9H36.1309V8.05078H31.8652L32.123 8.22656V7.74023L31.8594 8.22656L34.0449 5.9707C34.5566 5.44336 34.9531 5 35.2344 4.64062C35.5156 4.27734 35.7109 3.94727 35.8203 3.65039C35.9336 3.35352 35.9902 3.04492 35.9902 2.72461V2.71289C35.9902 2.25586 35.875 1.84961 35.6445 1.49414C35.418 1.13867 35.1074 0.859375 34.7129 0.65625C34.3184 0.449219 33.875 0.345703 33.3828 0.345703C32.8438 0.345703 32.3652 0.457031 31.9473 0.679688C31.5293 0.898437 31.2012 1.20312 30.9629 1.59375C30.7246 1.98047 30.6035 2.42383 30.5996 2.92383L30.6113 2.92969L31.6191 2.93555L31.625 2.92383C31.625 2.5918 31.6953 2.30273 31.8359 2.05664C31.9766 1.80664 32.1738 1.61328 32.4277 1.47656C32.6816 1.33594 32.9766 1.26562 33.3125 1.26562C33.6445 1.26562 33.9297 1.33398 34.168 1.4707C34.4062 1.60742 34.5898 1.79297 34.7188 2.02734C34.8477 2.26172 34.9121 2.52734 34.9121 2.82422V2.83594C34.9121 3.08203 34.8711 3.30859 34.7891 3.51562C34.707 3.72266 34.5645 3.95508 34.3613 4.21289C34.1582 4.4668 33.877 4.78906 33.5176 5.17969L30.6582 8.27344V9ZM40.7773 9.14062C41.3438 9.14062 41.8477 9.03516 42.2891 8.82422C42.7305 8.60938 43.0781 8.31641 43.332 7.94531C43.5859 7.57422 43.7129 7.1543 43.7129 6.68555V6.67383C43.7129 6.07227 43.5215 5.58984 43.1387 5.22656C42.7598 4.85938 42.2617 4.65039 41.6445 4.59961V4.57617C41.9961 4.50195 42.3066 4.375 42.5762 4.19531C42.8457 4.01562 43.0566 3.79102 43.209 3.52148C43.3613 3.25195 43.4375 2.94336 43.4375 2.5957V2.58398C43.4375 2.1543 43.3262 1.77734 43.1035 1.45312C42.8848 1.125 42.5742 0.869141 42.1719 0.685547C41.7734 0.498047 41.3047 0.404297 40.7656 0.404297C40.2383 0.404297 39.7715 0.5 39.3652 0.691406C38.9629 0.882813 38.6387 1.15039 38.3926 1.49414C38.1504 1.83789 38.0059 2.24023 37.959 2.70117L37.9531 2.75977H38.9668L38.9727 2.70117C39.0039 2.41602 39.0977 2.16992 39.2539 1.96289C39.4102 1.75586 39.6172 1.59766 39.875 1.48828C40.1367 1.375 40.4336 1.31836 40.7656 1.31836C41.1094 1.31836 41.4004 1.37305 41.6387 1.48242C41.8809 1.5918 42.0645 1.75 42.1895 1.95703C42.3145 2.16406 42.377 2.41602 42.377 2.71289V2.72461C42.377 3.00586 42.3047 3.25781 42.1602 3.48047C42.0156 3.69922 41.8145 3.87305 41.5566 4.00195C41.2988 4.12695 41.002 4.18945 40.666 4.18945H39.6523V5.08008H40.7129C41.3066 5.08008 41.7754 5.2207 42.1191 5.50195C42.4668 5.7793 42.6406 6.17773 42.6406 6.69727V6.70898C42.6406 7.00586 42.5625 7.26953 42.4062 7.5C42.25 7.72656 42.0312 7.9043 41.75 8.0332C41.4727 8.16211 41.1484 8.22656 40.7773 8.22656C40.4023 8.22656 40.0703 8.16797 39.7812 8.05078C39.4961 7.92969 39.2676 7.76367 39.0957 7.55273C38.9277 7.3418 38.8301 7.09766 38.8027 6.82031L38.7969 6.76172H37.7832L37.7891 6.83203C37.8281 7.27734 37.9727 7.67383 38.2227 8.02148C38.4766 8.36914 38.8203 8.64258 39.2539 8.8418C39.6875 9.04102 40.1953 9.14062 40.7773 9.14062Z" fill="black"/>
</svg>
