<?xml version="1.0" encoding="UTF-8"?>
<svg xmlns="http://www.w3.org/2000/svg" xmlns:xlink="http://www.w3.org/1999/xlink" width="24" height="6.545455" viewBox="0 0 24 6.545455" version="1.1">
<g id="surface1">
<path style=" stroke:none;fill-rule:nonzero;fill:rgb(0%,0%,0%);fill-opacity:1;" d="M 0.0429688 4.910156 L 0.617188 4.910156 L 0.617188 3.085938 L 1.71875 3.085938 C 1.726562 3.085938 1.730469 3.085938 1.738281 3.085938 C 1.742188 3.085938 1.75 3.085938 1.753906 3.085938 L 2.738281 4.910156 L 3.414062 4.910156 L 2.347656 2.996094 C 2.636719 2.902344 2.863281 2.738281 3.027344 2.503906 C 3.191406 2.269531 3.273438 1.996094 3.273438 1.675781 L 3.273438 1.667969 C 3.273438 1.390625 3.214844 1.152344 3.089844 0.945312 C 2.96875 0.742188 2.796875 0.582031 2.578125 0.46875 C 2.359375 0.355469 2.101562 0.296875 1.804688 0.296875 L 0.0429688 0.296875 Z M 0.617188 2.574219 L 0.617188 0.808594 L 1.726562 0.808594 C 2.023438 0.808594 2.257812 0.886719 2.425781 1.042969 C 2.59375 1.199219 2.679688 1.414062 2.679688 1.6875 L 2.679688 1.695312 C 2.679688 1.976562 2.597656 2.191406 2.4375 2.347656 C 2.277344 2.496094 2.046875 2.574219 1.753906 2.574219 Z M 5.195312 4.96875 C 5.351562 4.96875 5.492188 4.949219 5.621094 4.90625 C 5.753906 4.859375 5.867188 4.796875 5.972656 4.710938 C 6.074219 4.625 6.164062 4.523438 6.238281 4.402344 L 6.289062 4.402344 L 6.289062 4.910156 L 6.84375 4.910156 L 6.84375 2.550781 C 6.84375 2.3125 6.792969 2.105469 6.691406 1.9375 C 6.589844 1.765625 6.441406 1.632812 6.246094 1.539062 C 6.050781 1.449219 5.816406 1.402344 5.535156 1.402344 C 5.289062 1.402344 5.070312 1.441406 4.878906 1.519531 C 4.6875 1.59375 4.53125 1.699219 4.410156 1.835938 C 4.289062 1.96875 4.214844 2.125 4.183594 2.308594 L 4.179688 2.328125 L 4.738281 2.328125 L 4.742188 2.316406 C 4.785156 2.183594 4.875 2.078125 5.007812 2.007812 C 5.136719 1.933594 5.308594 1.894531 5.515625 1.894531 C 5.773438 1.894531 5.964844 1.953125 6.09375 2.066406 C 6.222656 2.175781 6.289062 2.335938 6.289062 2.550781 L 6.289062 3.625 C 6.289062 3.789062 6.246094 3.933594 6.160156 4.066406 C 6.078125 4.195312 5.960938 4.296875 5.816406 4.375 C 5.667969 4.449219 5.5 4.488281 5.308594 4.488281 C 5.109375 4.488281 4.941406 4.4375 4.8125 4.34375 C 4.679688 4.246094 4.613281 4.109375 4.613281 3.933594 L 4.613281 3.929688 C 4.613281 3.757812 4.671875 3.625 4.792969 3.53125 C 4.914062 3.4375 5.105469 3.382812 5.367188 3.367188 L 6.566406 3.292969 L 6.566406 2.847656 L 5.300781 2.925781 C 5.035156 2.9375 4.808594 2.988281 4.621094 3.070312 C 4.433594 3.15625 4.289062 3.269531 4.191406 3.417969 C 4.09375 3.5625 4.042969 3.734375 4.042969 3.941406 L 4.042969 3.945312 C 4.042969 4.15625 4.09375 4.335938 4.195312 4.492188 C 4.296875 4.644531 4.433594 4.761719 4.605469 4.84375 C 4.78125 4.929688 4.976562 4.96875 5.195312 4.96875 Z M 9.277344 6.125 C 9.59375 6.125 9.863281 6.070312 10.09375 5.96875 C 10.324219 5.863281 10.5 5.71875 10.625 5.527344 C 10.75 5.339844 10.8125 5.117188 10.8125 4.859375 L 10.8125 1.464844 L 10.257812 1.464844 L 10.257812 2.03125 L 10.21875 2.03125 C 10.148438 1.902344 10.058594 1.789062 9.953125 1.695312 C 9.847656 1.601562 9.730469 1.53125 9.59375 1.480469 C 9.457031 1.429688 9.308594 1.402344 9.144531 1.402344 C 8.84375 1.402344 8.585938 1.476562 8.367188 1.621094 C 8.152344 1.761719 7.984375 1.960938 7.863281 2.210938 C 7.746094 2.460938 7.6875 2.746094 7.6875 3.066406 L 7.6875 3.074219 C 7.6875 3.394531 7.746094 3.683594 7.863281 3.929688 C 7.980469 4.179688 8.148438 4.375 8.363281 4.519531 C 8.578125 4.660156 8.835938 4.730469 9.132812 4.730469 C 9.289062 4.730469 9.4375 4.707031 9.574219 4.664062 C 9.710938 4.617188 9.832031 4.546875 9.941406 4.457031 C 10.050781 4.367188 10.140625 4.261719 10.210938 4.136719 L 10.261719 4.136719 L 10.261719 4.832031 C 10.261719 5.085938 10.175781 5.28125 10 5.421875 C 9.828125 5.5625 9.589844 5.632812 9.277344 5.632812 C 9.03125 5.632812 8.832031 5.589844 8.683594 5.503906 C 8.535156 5.421875 8.445312 5.3125 8.417969 5.183594 L 8.414062 5.179688 L 7.835938 5.179688 L 7.832031 5.183594 C 7.859375 5.371094 7.9375 5.535156 8.058594 5.675781 C 8.183594 5.820312 8.347656 5.929688 8.554688 6.003906 C 8.761719 6.085938 9.003906 6.125 9.277344 6.125 Z M 9.253906 4.238281 C 9.039062 4.238281 8.859375 4.1875 8.710938 4.089844 C 8.5625 3.992188 8.449219 3.851562 8.371094 3.679688 C 8.292969 3.503906 8.257812 3.300781 8.257812 3.074219 L 8.257812 3.066406 C 8.257812 2.839844 8.292969 2.636719 8.371094 2.460938 C 8.449219 2.285156 8.5625 2.144531 8.710938 2.046875 C 8.859375 1.945312 9.039062 1.894531 9.253906 1.894531 C 9.464844 1.894531 9.648438 1.945312 9.800781 2.046875 C 9.953125 2.144531 10.070312 2.285156 10.152344 2.460938 C 10.234375 2.636719 10.277344 2.839844 10.277344 3.066406 L 10.277344 3.074219 C 10.277344 3.300781 10.234375 3.503906 10.152344 3.679688 C 10.070312 3.851562 9.953125 3.992188 9.800781 4.089844 C 9.648438 4.1875 9.464844 4.238281 9.253906 4.238281 Z M 14.816406 4.910156 L 15.390625 4.910156 L 15.390625 0.296875 L 14.816406 0.296875 L 13.589844 1.179688 L 13.589844 1.785156 L 14.761719 0.9375 L 14.816406 0.9375 Z M 16.722656 4.910156 L 19.707031 4.910156 L 19.707031 4.390625 L 17.382812 4.390625 L 17.523438 4.488281 L 17.523438 4.222656 L 17.378906 4.488281 L 18.570312 3.257812 C 18.847656 2.96875 19.066406 2.726562 19.21875 2.53125 C 19.371094 2.332031 19.480469 2.152344 19.539062 1.992188 C 19.601562 1.828125 19.632812 1.660156 19.632812 1.484375 L 19.632812 1.480469 C 19.632812 1.230469 19.566406 1.007812 19.441406 0.816406 C 19.320312 0.621094 19.148438 0.46875 18.933594 0.359375 C 18.71875 0.246094 18.476562 0.1875 18.207031 0.1875 C 17.914062 0.1875 17.652344 0.25 17.425781 0.371094 C 17.199219 0.488281 17.019531 0.65625 16.890625 0.871094 C 16.757812 1.082031 16.691406 1.320312 16.691406 1.59375 L 16.695312 1.597656 L 17.246094 1.601562 L 17.25 1.59375 C 17.25 1.414062 17.289062 1.257812 17.363281 1.121094 C 17.441406 0.984375 17.550781 0.878906 17.6875 0.804688 C 17.828125 0.730469 17.988281 0.691406 18.171875 0.691406 C 18.351562 0.691406 18.507812 0.726562 18.636719 0.800781 C 18.765625 0.875 18.867188 0.976562 18.9375 1.105469 C 19.007812 1.234375 19.042969 1.378906 19.042969 1.539062 L 19.042969 1.546875 C 19.042969 1.679688 19.019531 1.804688 18.976562 1.917969 C 18.929688 2.03125 18.851562 2.15625 18.742188 2.296875 C 18.632812 2.4375 18.476562 2.613281 18.28125 2.824219 L 16.722656 4.511719 Z M 22.242188 4.984375 C 22.550781 4.984375 22.824219 4.929688 23.066406 4.8125 C 23.308594 4.695312 23.496094 4.535156 23.636719 4.332031 C 23.773438 4.132812 23.84375 3.902344 23.84375 3.648438 L 23.84375 3.640625 C 23.84375 3.3125 23.738281 3.050781 23.53125 2.851562 C 23.324219 2.652344 23.050781 2.535156 22.714844 2.507812 L 22.714844 2.496094 C 22.90625 2.457031 23.078125 2.386719 23.222656 2.289062 C 23.371094 2.191406 23.484375 2.066406 23.570312 1.921875 C 23.652344 1.773438 23.691406 1.605469 23.691406 1.414062 L 23.691406 1.410156 C 23.691406 1.175781 23.632812 0.96875 23.511719 0.792969 C 23.390625 0.613281 23.222656 0.472656 23.003906 0.375 C 22.785156 0.273438 22.53125 0.21875 22.234375 0.21875 C 21.949219 0.21875 21.695312 0.273438 21.472656 0.378906 C 21.253906 0.480469 21.074219 0.628906 20.941406 0.816406 C 20.808594 1.003906 20.730469 1.222656 20.703125 1.472656 L 20.703125 1.503906 L 21.253906 1.503906 L 21.257812 1.472656 C 21.273438 1.316406 21.324219 1.183594 21.410156 1.070312 C 21.496094 0.957031 21.609375 0.871094 21.75 0.8125 C 21.894531 0.75 22.054688 0.71875 22.234375 0.71875 C 22.421875 0.71875 22.582031 0.75 22.710938 0.808594 C 22.84375 0.867188 22.945312 0.953125 23.011719 1.066406 C 23.082031 1.179688 23.113281 1.316406 23.113281 1.480469 L 23.113281 1.484375 C 23.113281 1.640625 23.074219 1.777344 22.996094 1.898438 C 22.917969 2.019531 22.808594 2.113281 22.667969 2.183594 C 22.527344 2.25 22.363281 2.285156 22.179688 2.285156 L 21.628906 2.285156 L 21.628906 2.769531 L 22.207031 2.769531 C 22.53125 2.769531 22.785156 2.847656 22.972656 3 C 23.164062 3.152344 23.257812 3.371094 23.257812 3.652344 L 23.257812 3.660156 C 23.257812 3.820312 23.214844 3.964844 23.128906 4.089844 C 23.046875 4.214844 22.925781 4.3125 22.773438 4.382812 C 22.621094 4.453125 22.445312 4.488281 22.242188 4.488281 C 22.039062 4.488281 21.855469 4.457031 21.699219 4.390625 C 21.542969 4.324219 21.417969 4.234375 21.324219 4.121094 C 21.234375 4.003906 21.179688 3.871094 21.164062 3.71875 L 21.160156 3.6875 L 20.609375 3.6875 L 20.613281 3.726562 C 20.632812 3.96875 20.710938 4.1875 20.847656 4.375 C 20.988281 4.566406 21.175781 4.714844 21.410156 4.824219 C 21.648438 4.929688 21.925781 4.984375 22.242188 4.984375 Z M 22.242188 4.984375 "/>
</g>
</svg>
