<svg width="116" height="116" viewBox="0 0 116 116" fill="none" xmlns="http://www.w3.org/2000/svg">
<path d="M20.5625 115.5H96.375C102.917 115.5 107.812 113.875 111.062 110.625C114.354 107.417 116 102.583 116 96.125V19.8125C116 13.3542 114.354 8.52083 111.062 5.3125C107.812 2.0625 102.917 0.4375 96.375 0.4375H20.5625C14.0208 0.4375 9.10417 2.0625 5.8125 5.3125C2.5625 8.52083 0.9375 13.3542 0.9375 19.8125V96.125C0.9375 102.583 2.5625 107.417 5.8125 110.625C9.10417 113.875 14.0208 115.5 20.5625 115.5ZM58.5 88.0625C56.5833 88.0625 55.0417 87.6042 53.875 86.6875C52.7083 85.7708 51.7083 84.2083 50.875 82L32.75 34.8125C32.4167 33.8542 32.25 32.9583 32.25 32.125C32.25 30.6667 32.7292 29.4792 33.6875 28.5625C34.6875 27.6458 35.9583 27.1875 37.5 27.1875C38.9167 27.1875 40.0417 27.5417 40.875 28.25C41.75 28.9583 42.4583 30.0833 43 31.625L58.25 75.6875H58.6875L73.9375 31.625C74.4792 30.0833 75.1667 28.9583 76 28.25C76.875 27.5417 78.0208 27.1875 79.4375 27.1875C80.9792 27.1875 82.2292 27.6458 83.1875 28.5625C84.1875 29.4792 84.6875 30.6667 84.6875 32.125C84.6875 32.5833 84.6458 33.0208 84.5625 33.4375C84.4792 33.8542 84.3542 34.3125 84.1875 34.8125L66.125 81.875C65.3333 84 64.3333 85.5625 63.125 86.5625C61.9167 87.5625 60.375 88.0625 58.5 88.0625Z" fill="white"/>
</svg>
