<?xml version="1.0" encoding="UTF-8"?>
<svg xmlns="http://www.w3.org/2000/svg" xmlns:xlink="http://www.w3.org/1999/xlink" width="24" height="25.5" viewBox="0 0 24 25.5" version="1.1">
<g id="surface1">
<path style=" stroke:none;fill-rule:nonzero;fill:rgb(100%,100%,100%);fill-opacity:1;" d="M 1.464844 8.542969 C 2.097656 8.542969 2.414062 8.222656 2.414062 7.582031 L 2.414062 4.816406 C 2.414062 4.207031 2.570312 3.75 2.882812 3.445312 C 3.195312 3.132812 3.644531 2.976562 4.230469 2.976562 L 7.066406 2.976562 C 7.707031 2.976562 8.027344 2.660156 8.027344 2.027344 C 8.027344 1.402344 7.707031 1.089844 7.066406 1.089844 L 4.207031 1.089844 C 2.980469 1.089844 2.058594 1.394531 1.441406 2.003906 C 0.832031 2.605469 0.527344 3.507812 0.527344 4.710938 L 0.527344 7.582031 C 0.527344 8.222656 0.839844 8.542969 1.464844 8.542969 Z M 22.523438 8.542969 C 23.15625 8.542969 23.472656 8.222656 23.472656 7.582031 L 23.472656 4.710938 C 23.472656 3.507812 23.164062 2.605469 22.546875 2.003906 C 21.9375 1.394531 21.019531 1.089844 19.792969 1.089844 L 16.921875 1.089844 C 16.289062 1.089844 15.972656 1.402344 15.972656 2.027344 C 15.972656 2.660156 16.289062 2.976562 16.921875 2.976562 L 19.757812 2.976562 C 20.335938 2.976562 20.785156 3.132812 21.105469 3.445312 C 21.425781 3.75 21.585938 4.207031 21.585938 4.816406 L 21.585938 7.582031 C 21.585938 8.222656 21.898438 8.542969 22.523438 8.542969 Z M 4.207031 24.023438 L 7.066406 24.023438 C 7.707031 24.023438 8.027344 23.710938 8.027344 23.085938 C 8.027344 22.453125 7.707031 22.136719 7.066406 22.136719 L 4.230469 22.136719 C 3.644531 22.136719 3.195312 21.980469 2.882812 21.667969 C 2.570312 21.363281 2.414062 20.90625 2.414062 20.296875 L 2.414062 17.53125 C 2.414062 16.890625 2.097656 16.570312 1.464844 16.570312 C 0.839844 16.570312 0.527344 16.890625 0.527344 17.53125 L 0.527344 20.390625 C 0.527344 21.601562 0.832031 22.507812 1.441406 23.109375 C 2.058594 23.71875 2.980469 24.023438 4.207031 24.023438 Z M 16.921875 24.023438 L 19.792969 24.023438 C 21.019531 24.023438 21.9375 23.71875 22.546875 23.109375 C 23.164062 22.507812 23.472656 21.601562 23.472656 20.390625 L 23.472656 17.53125 C 23.472656 16.890625 23.15625 16.570312 22.523438 16.570312 C 21.898438 16.570312 21.585938 16.890625 21.585938 17.53125 L 21.585938 20.296875 C 21.585938 20.90625 21.425781 21.363281 21.105469 21.667969 C 20.785156 21.980469 20.335938 22.136719 19.757812 22.136719 L 16.921875 22.136719 C 16.289062 22.136719 15.972656 22.453125 15.972656 23.085938 C 15.972656 23.710938 16.289062 24.023438 16.921875 24.023438 Z M 9.832031 7.804688 L 14.167969 7.804688 C 14.519531 7.804688 14.789062 7.707031 14.976562 7.511719 C 15.171875 7.308594 15.269531 7.027344 15.269531 6.667969 L 15.269531 5.988281 C 15.269531 5.628906 15.171875 5.351562 14.976562 5.15625 C 14.789062 4.953125 14.519531 4.851562 14.167969 4.851562 L 9.832031 4.851562 C 9.488281 4.851562 9.21875 4.953125 9.023438 5.15625 C 8.828125 5.351562 8.730469 5.628906 8.730469 5.988281 L 8.730469 6.667969 C 8.730469 7.027344 8.828125 7.308594 9.023438 7.511719 C 9.21875 7.707031 9.488281 7.804688 9.832031 7.804688 Z M 9.925781 8.976562 L 14.074219 8.976562 L 14.074219 7.441406 L 9.925781 7.441406 Z M 9.65625 20.273438 L 14.34375 20.273438 C 14.96875 20.273438 15.46875 20.082031 15.84375 19.699219 C 16.226562 19.316406 16.417969 18.804688 16.417969 18.164062 L 16.417969 10.839844 C 16.417969 10.199219 16.226562 9.691406 15.84375 9.316406 C 15.46875 8.933594 14.96875 8.742188 14.34375 8.742188 L 9.65625 8.742188 C 9.03125 8.742188 8.527344 8.933594 8.144531 9.316406 C 7.769531 9.691406 7.582031 10.199219 7.582031 10.839844 L 7.582031 18.164062 C 7.582031 18.804688 7.769531 19.316406 8.144531 19.699219 C 8.527344 20.082031 9.03125 20.273438 9.65625 20.273438 Z M 9.65625 20.273438 "/>
</g>
</svg>
