<svg width="188" height="84" viewBox="0 0 188 84" fill="none" xmlns="http://www.w3.org/2000/svg">
<path d="M94.0625 72.9375C99.1875 72.9375 103.938 72.0208 108.312 70.1875C112.729 68.3125 116.583 65.7292 119.875 62.4375C123.208 59.1458 125.792 55.3125 127.625 50.9375C129.458 46.5208 130.375 41.7708 130.375 36.6875C130.375 31.5625 129.458 26.8125 127.625 22.4375C125.792 18.0208 123.208 14.1667 119.875 10.875C116.583 7.58333 112.729 5.02083 108.312 3.1875C103.938 1.3125 99.1875 0.375 94.0625 0.375C88.9792 0.375 84.2292 1.3125 79.8125 3.1875C75.4375 5.02083 71.6042 7.58333 68.3125 10.875C65.0208 14.1667 62.4583 18.0208 60.625 22.4375C58.7917 26.8125 57.875 31.5625 57.875 36.6875C57.875 41.7708 58.7917 46.5208 60.625 50.9375C62.4583 55.3125 65.0208 59.1458 68.3125 62.4375C71.6042 65.7292 75.4375 68.3125 79.8125 70.1875C84.2292 72.0208 88.9792 72.9375 94.0625 72.9375ZM94.0625 62.4375C89.2708 62.4375 84.9167 61.2917 81 59C77.125 56.7083 74.0417 53.625 71.75 49.75C69.4583 45.8333 68.3125 41.4792 68.3125 36.6875C68.3125 31.8958 69.4583 27.5417 71.75 23.625C74.0417 19.7083 77.125 16.6042 81 14.3125C84.9167 12.0208 89.2708 10.875 94.0625 10.875C98.8958 10.875 103.25 12.0208 107.125 14.3125C111.042 16.6042 114.146 19.7083 116.438 23.625C118.729 27.5417 119.875 31.8958 119.875 36.6875C119.875 41.4792 118.729 45.8333 116.438 49.75C114.146 53.625 111.042 56.7083 107.125 59C103.25 61.2917 98.8958 62.4375 94.0625 62.4375ZM94.0625 57.1875C97.8958 57.1875 101.375 56.2917 104.5 54.5C107.625 52.6667 110.083 50.2083 111.875 47.125C113.708 44 114.625 40.5208 114.625 36.6875C114.625 32.8542 113.708 29.3958 111.875 26.3125C110.083 23.1875 107.625 20.7083 104.5 18.875C101.375 17.0417 97.8958 16.125 94.0625 16.125C90.2292 16.125 86.7708 17.0417 83.6875 18.875C80.6042 20.7083 78.1458 23.1875 76.3125 26.3125C74.4792 29.3958 73.5625 32.8542 73.5625 36.6875C73.5625 40.5208 74.4792 44 76.3125 47.125C78.1458 50.2083 80.6042 52.6667 83.6875 54.5C86.7708 56.2917 90.2292 57.1875 94.0625 57.1875ZM50.5625 36.6875C50.5625 28.9792 52.3125 21.9375 55.8125 15.5625C59.3542 9.1875 64.0625 4.08333 69.9375 0.25H20.25C13.9167 0.25 9.10417 1.85417 5.8125 5.0625C2.5625 8.27083 0.9375 13.0208 0.9375 19.3125V53.9375C0.9375 60.2292 2.5625 64.9792 5.8125 68.1875C9.10417 71.3958 13.9167 73 20.25 73H69.75C63.9167 69.125 59.25 64.0208 55.75 57.6875C52.2917 51.3542 50.5625 44.3542 50.5625 36.6875ZM168 0.25H118.312C124.188 4.08333 128.875 9.1875 132.375 15.5625C135.917 21.9375 137.688 28.9792 137.688 36.6875C137.688 44.3542 135.938 51.3542 132.438 57.6875C128.938 64.0208 124.271 69.125 118.438 73H168C174.417 73 179.25 71.3958 182.5 68.1875C185.75 64.9792 187.375 60.2292 187.375 53.9375V19.3125C187.375 13.0208 185.75 8.27083 182.5 5.0625C179.25 1.85417 174.417 0.25 168 0.25ZM149 24C149 22.7083 149.396 21.6458 150.188 20.8125C151.021 19.9792 152.083 19.5625 153.375 19.5625H169.062C170.354 19.5625 171.417 19.9792 172.25 20.8125C173.083 21.6458 173.5 22.7083 173.5 24C173.5 25.2917 173.083 26.3542 172.25 27.1875C171.417 27.9792 170.354 28.375 169.062 28.375H153.375C152.083 28.375 151.021 27.9792 150.188 27.1875C149.396 26.3542 149 25.2917 149 24ZM149 39.1875C149 37.8958 149.396 36.8542 150.188 36.0625C151.021 35.2292 152.083 34.8125 153.375 34.8125H169.062C170.354 34.8125 171.417 35.2292 172.25 36.0625C173.083 36.8542 173.5 37.8958 173.5 39.1875C173.5 40.4792 173.083 41.5417 172.25 42.375C171.417 43.2083 170.354 43.625 169.062 43.625H153.375C152.083 43.625 151.021 43.2083 150.188 42.375C149.396 41.5417 149 40.4792 149 39.1875ZM47.25 69.1875H14.8125V78.375C14.8125 79.9167 15.2708 81.1667 16.1875 82.125C17.1458 83.0417 18.3958 83.5 19.9375 83.5H42.125C43.6667 83.5 44.8958 83.0417 45.8125 82.125C46.7708 81.1667 47.25 79.9167 47.25 78.375V69.1875ZM141.062 69.1875V78.375C141.062 79.9167 141.521 81.1667 142.438 82.125C143.354 83.0417 144.604 83.5 146.188 83.5H168.312C169.896 83.5 171.146 83.0417 172.062 82.125C173.021 81.1667 173.5 79.9167 173.5 78.375V69.1875H141.062Z" fill="white"/>
</svg>
