<svg xmlns="http://www.w3.org/2000/svg" width="24" height="24"><path style="stroke:none;fill-rule:nonzero;fill:#fff;fill-opacity:1" d="m11.016 20.5-1.72-2.516H2.759c-.356 0-.637-.203-.844-.609-.207-.406-.312-.953-.312-1.64V7.077c0-.687.105-1.23.312-1.637.207-.406.488-.613.844-.613h6.414l1.547-2.516H2.758c-.793 0-1.395.403-1.805 1.208-.406.8-.61 1.992-.61 3.558v8.656c0 1.57.204 2.762.61 3.563.41.808 1.012 1.207 1.805 1.207Zm3.421-2.516-1.46 2.516h8.25c.8 0 1.406-.398 1.812-1.203.406-.805.61-1.992.61-3.563v-8.66c0-1.566-.204-2.758-.61-3.558-.406-.809-1.012-1.207-1.812-1.207h-7.938l1.234 2.515h6.704c.355 0 .636.207.843.614.215.406.32.949.32 1.636v8.656c0 .692-.105 1.235-.32 1.641-.207.41-.488.61-.843.61Zm-2.453 3.11c.653.011 1.301-.239 1.907-.735 1.16-.968 2.082-2.808 2.57-5.125.25-1.21.375-2.504.367-3.812 0-1.367-.121-2.633-.367-3.797-.238-1.152-.59-2.2-1.031-3.078-.438-.887-.961-1.586-1.54-2.063-.605-.504-1.253-.761-1.906-.75-1.289-.02-2.527.993-3.437 2.813-.902 1.828-1.402 4.305-1.39 6.875 0 1.367.12 2.633.366 3.812.239 1.145.586 2.184 1.024 3.063.441.875.957 1.562 1.539 2.062.601.496 1.246.746 1.898.735Zm0-2.36c-.687 0-1.308-.32-1.859-.968-.54-.637-.988-1.54-1.305-2.625-.324-1.102-.484-2.344-.484-3.72 0-1.374.16-2.616.484-3.718.313-1.09.762-2 1.305-2.64.55-.649 1.172-.97 1.86-.97.69 0 1.316.321 1.867.97.55.648.988 1.523 1.312 2.64.324 1.102.484 2.344.484 3.719s-.16 2.617-.484 3.719c-.324 1.101-.762 1.976-1.312 2.625-.551.648-1.176.968-1.868.968Zm0-1.672c.5.012.996-.246 1.43-.75.875-1 1.41-2.875 1.399-4.89.015-2.02-.524-3.89-1.399-4.89-.434-.512-.926-.778-1.43-.766-.504-.012-.996.254-1.43.765-.421.5-.761 1.18-1.015 2.032a10.043 10.043 0 0 0-.375 2.859c0 1.055.125 2.008.375 2.86.254.85.594 1.53 1.016 2.03.425.5.902.75 1.43.75Zm0-2.046c-.32.007-.636-.157-.914-.47-.265-.316-.492-.76-.648-1.296a6.549 6.549 0 0 1-.235-1.828c-.007-.957.18-1.883.52-2.563.336-.68.797-1.054 1.277-1.046.34 0 .645.164.914.484.278.32.493.758.649 1.312.16.54.242 1.149.242 1.813 0 .68-.082 1.289-.242 1.828-.156.54-.379.988-.649 1.297-.27.312-.574.469-.914.469Zm-5.851 4.53H2.078v2.298c-.008.347.055.683.172.937.129.235.297.356.469.344h2.773c.172.016.336-.11.461-.344.121-.25.188-.59.18-.937Zm11.726 0v2.298c-.007.347.055.683.172.937.114.227.27.344.469.344h2.766c.199 0 .355-.117.468-.344.121-.25.188-.59.18-.937v-2.297Zm.047-11.296c0 .32.051.586.157.797.105.195.246.305.39.297h1.961c.16 0 .293-.102.398-.297.106-.211.16-.5.157-.797.004-.297-.051-.586-.157-.793-.105-.21-.25-.324-.398-.316h-1.96c-.145-.012-.29.105-.392.312-.105.211-.16.5-.156.797Zm0 3.797c0 .32.051.586.157.797.101.207.246.32.39.312h1.961c.16 0 .293-.101.398-.312.106-.211.16-.5.157-.797a1.662 1.662 0 0 0-.157-.781c-.105-.207-.25-.32-.398-.313h-1.96c-.145-.008-.29.106-.392.313a1.662 1.662 0 0 0-.156.78Zm0 0"/></svg>