<svg width="18" height="17" viewBox="0 0 18 17" fill="none" xmlns="http://www.w3.org/2000/svg">
<path d="M5.19531 16.9453C5.38802 16.9453 5.5651 16.8932 5.72656 16.7891C5.88802 16.6849 6.08594 16.5286 6.32031 16.3203L9.01562 13.9219H14.0312C14.8073 13.9219 15.4609 13.7839 15.9922 13.5078C16.5234 13.2266 16.9245 12.8203 17.1953 12.2891C17.4714 11.7578 17.6094 11.1094 17.6094 10.3438V4.35938C17.6094 3.59375 17.4714 2.94531 17.1953 2.41406C16.9245 1.88281 16.5234 1.47917 15.9922 1.20312C15.4609 0.921875 14.8073 0.78125 14.0312 0.78125H3.96875C3.19271 0.78125 2.53906 0.921875 2.00781 1.20312C1.47656 1.47917 1.07292 1.88281 0.796875 2.41406C0.526042 2.94531 0.390625 3.59375 0.390625 4.35938V10.3438C0.390625 11.1094 0.526042 11.7578 0.796875 12.2891C1.07292 12.8203 1.47656 13.2266 2.00781 13.5078C2.53906 13.7839 3.19271 13.9219 3.96875 13.9219H4.34375V15.9531C4.34375 16.2552 4.41667 16.4948 4.5625 16.6719C4.71354 16.8542 4.92448 16.9453 5.19531 16.9453ZM5.51562 15.5156V13.25C5.51562 13.0365 5.47135 12.8854 5.38281 12.7969C5.29427 12.7083 5.14323 12.6641 4.92969 12.6641H3.96875C3.17708 12.6641 2.59115 12.4688 2.21094 12.0781C1.83594 11.6823 1.64844 11.1016 1.64844 10.3359V4.35938C1.64844 3.59896 1.83594 3.02344 2.21094 2.63281C2.59115 2.23698 3.17708 2.03906 3.96875 2.03906H14.0312C14.8177 2.03906 15.401 2.23698 15.7812 2.63281C16.1615 3.02344 16.3516 3.59896 16.3516 4.35938V10.3359C16.3516 11.1016 16.1615 11.6823 15.7812 12.0781C15.401 12.4688 14.8177 12.6641 14.0312 12.6641H8.96875C8.75 12.6641 8.57292 12.6875 8.4375 12.7344C8.30208 12.7812 8.16146 12.8802 8.01562 13.0312L5.51562 15.5156ZM5.73438 10.5078H9.86719C10.2578 10.5078 10.5625 10.401 10.7812 10.1875C11 9.96875 11.1094 9.66667 11.1094 9.28125V5.4375C11.1094 5.05208 11.0052 4.7526 10.7969 4.53906C10.5938 4.32552 10.2969 4.21875 9.90625 4.21875H5.73438C5.36458 4.21875 5.0651 4.32552 4.83594 4.53906C4.60677 4.7526 4.49219 5.05208 4.49219 5.4375V9.28125C4.49219 9.66667 4.60156 9.96875 4.82031 10.1875C5.04427 10.401 5.34896 10.5078 5.73438 10.5078ZM11.5469 8.42969L13.0703 9.71875C13.138 9.77604 13.2083 9.82292 13.2812 9.85938C13.3594 9.89583 13.4323 9.91406 13.5 9.91406C13.651 9.91406 13.7708 9.86458 13.8594 9.76562C13.9531 9.66667 14 9.53385 14 9.36719V5.34375C14 5.18229 13.9531 5.05208 13.8594 4.95312C13.7708 4.85417 13.651 4.80469 13.5 4.80469C13.4323 4.80469 13.3594 4.82292 13.2812 4.85938C13.2083 4.89583 13.138 4.9401 13.0703 4.99219L11.5469 6.28906V8.42969Z" fill="white"/>
</svg>
