<svg xmlns="http://www.w3.org/2000/svg" width="24" height="24"><path style="stroke:none;fill-rule:nonzero;fill:#fff;fill-opacity:1" d="M4.977 20.758h9.503L2.402 5.128a3.167 3.167 0 0 0-.109.552 5.88 5.88 0 0 0-.043.695v10.863c0 1.114.238 1.977.715 2.594.484.617 1.156.922 2.012.922Zm9.238-17.91H5.344l11.43 14.789c.03-.211.05-.426.066-.64.02-.243.027-.481.027-.72V6.328c0-1.101-.226-1.957-.683-2.566-.454-.614-1.11-.914-1.97-.914Zm3.812 12.207 3.102 3.472c.148.16.3.297.46.399a.921.921 0 0 0 1.27-.278c.203-.28.305-.656.305-1.113V6.066c0-.453-.102-.824-.305-1.101-.199-.29-.464-.43-.793-.43a.93.93 0 0 0-.476.145 1.86 1.86 0 0 0-.461.398L18.027 8.54Zm-.12 8.285a.593.593 0 0 0 .468.254c.176.004.34-.09.46-.254.122-.16.188-.38.188-.606a.934.934 0 0 0-.187-.597L2.004.363a.58.58 0 0 0-.469-.242C1.36.11 1.188.2 1.066.363A.964.964 0 0 0 .88.97c0 .238.062.437.187.597Zm0 0"/></svg>