<svg width="16" height="15" viewBox="0 0 16 15" fill="none" xmlns="http://www.w3.org/2000/svg">
<path d="M3.25781 14.5625H12.7344C13.5521 14.5625 14.1641 14.3594 14.5703 13.9531C14.9818 13.5521 15.1875 12.9479 15.1875 12.1406V2.60156C15.1875 1.79427 14.9818 1.1901 14.5703 0.789062C14.1641 0.382812 13.5521 0.179688 12.7344 0.179688H3.25781C2.4401 0.179688 1.82552 0.382812 1.41406 0.789062C1.00781 1.1901 0.804688 1.79427 0.804688 2.60156V12.1406C0.804688 12.9479 1.00781 13.5521 1.41406 13.9531C1.82552 14.3594 2.4401 14.5625 3.25781 14.5625ZM4.64062 10.6094C4.23958 10.6094 3.92448 10.4974 3.69531 10.2734C3.47135 10.0495 3.35938 9.73958 3.35938 9.34375V5.375C3.35938 4.97396 3.47656 4.66406 3.71094 4.44531C3.94531 4.22656 4.25521 4.11719 4.64062 4.11719H8.9375C9.34375 4.11719 9.65104 4.22656 9.85938 4.44531C10.0677 4.66406 10.1719 4.97396 10.1719 5.375V9.34375C10.1719 9.73958 10.0599 10.0495 9.83594 10.2734C9.61198 10.4974 9.29948 10.6094 8.89844 10.6094H4.64062ZM10.6328 8.46094V6.25781L12.2031 4.91406C12.2708 4.86198 12.3438 4.81771 12.4219 4.78125C12.5 4.74479 12.5755 4.72656 12.6484 4.72656C12.7995 4.72656 12.9219 4.77865 13.0156 4.88281C13.1146 4.98177 13.1641 5.11458 13.1641 5.28125V9.42969C13.1641 9.60156 13.1146 9.73958 13.0156 9.84375C12.9219 9.94271 12.7995 9.99219 12.6484 9.99219C12.5755 9.99219 12.5 9.97396 12.4219 9.9375C12.349 9.90104 12.276 9.85417 12.2031 9.79688L10.6328 8.46094Z" fill="white"/>
</svg>
