<svg xmlns="http://www.w3.org/2000/svg" width="24" height="24"><path style="stroke:none;fill-rule:nonzero;fill:#fff;fill-opacity:1" d="M5.605 22.414c.957 0 1.805-.262 2.543-.789.743-.531 1.329-1.254 1.75-2.168.426-.922.641-1.969.641-3.145 0-1.421-.312-2.574-.937-3.464-.622-.883-1.465-1.375-2.532-1.485v-.05c.887-.239 1.59-.786 2.11-1.649.515-.867.777-1.937.777-3.215 0-1.039-.191-1.965-.574-2.77-.375-.808-.89-1.445-1.555-1.906-.664-.46-1.418-.691-2.27-.691-.96 0-1.812.309-2.55.926-.735.601-1.27 1.441-1.602 2.523-.082.254-.148.52-.195.793-.04.246-.059.512-.059.793 0 .336.067.61.2.817.136.207.312.308.53.308.216 0 .376-.066.481-.207.114-.144.203-.383.27-.719a5.373 5.373 0 0 1 .61-1.597c.269-.453.593-.793.976-1.032a2.45 2.45 0 0 1 1.285-.34c.562 0 1.05.145 1.46.434.415.278.731.676.958 1.196.226.507.336 1.117.336 1.812 0 .719-.117 1.34-.356 1.879-.246.55-.59.988-.992 1.254-.426.3-.918.45-1.48.45H4.398c-.226 0-.406.097-.546.304a1.388 1.388 0 0 0-.196.777c0 .324.067.59.196.793.14.195.32.29.546.29h1.047c1.047 0 1.86.323 2.438.98.59.656.883 1.578.883 2.78 0 .74-.133 1.403-.403 1.977a3.269 3.269 0 0 1-1.105 1.344c-.477.317-1.024.473-1.64.473-.54 0-1.024-.121-1.454-.36-.41-.218-.781-.566-1.098-1.023a4.825 4.825 0 0 1-.648-1.629c-.055-.265-.16-.5-.3-.68a.581.581 0 0 0-.477-.214c-.239 0-.43.109-.582.332-.145.21-.215.504-.215.875 0 .254.023.5.066.738.043.242.11.488.195.734.262.766.614 1.407 1.051 1.938.438.527.946.93 1.528 1.207a4.466 4.466 0 0 0 1.921.406Zm7.606-.36h3.71c1.259 0 2.352-.429 3.282-1.296.938-.863 1.692-2.121 2.176-3.625.512-1.555.77-3.371.77-5.438 0-2.054-.258-3.851-.77-5.39-.484-1.496-1.242-2.742-2.176-3.594a4.686 4.686 0 0 0-3.281-1.281H13.21c-.266 0-.473.12-.629.36-.152.241-.227.558-.227.964V20.71c0 .414.075.742.227.984.156.239.363.36.629.36Zm.851-2.366V3.765h2.739c.937 0 1.75.336 2.437.996.692.66 1.227 1.593 1.602 2.781.383 1.195.574 2.586.574 4.172 0 1.59-.191 2.992-.574 4.195-.348 1.145-.902 2.113-1.602 2.781-.687.668-1.5.997-2.437.997Zm0 0"/></svg>