<?xml version="1.0" encoding="UTF-8"?>
<svg xmlns="http://www.w3.org/2000/svg" xmlns:xlink="http://www.w3.org/1999/xlink" width="24" height="25.5" viewBox="0 0 24 25.5" version="1.1">
<g id="surface1">
<path style=" stroke:none;fill-rule:nonzero;fill:rgb(100%,100%,100%);fill-opacity:1;" d="M 12 24.492188 C 13.632812 24.492188 15.167969 24.179688 16.605469 23.554688 C 18.050781 22.929688 19.324219 22.066406 20.425781 20.964844 C 21.527344 19.863281 22.390625 18.59375 23.015625 17.15625 C 23.640625 15.710938 23.953125 14.171875 23.953125 12.539062 C 23.953125 10.90625 23.640625 9.371094 23.015625 7.933594 C 22.390625 6.488281 21.527344 5.214844 20.425781 4.113281 C 19.324219 3.011719 18.050781 2.148438 16.605469 1.523438 C 15.160156 0.898438 13.621094 0.585938 11.988281 0.585938 C 10.355469 0.585938 8.816406 0.898438 7.371094 1.523438 C 5.933594 2.148438 4.664062 3.011719 3.5625 4.113281 C 2.46875 5.214844 1.609375 6.488281 0.984375 7.933594 C 0.359375 9.371094 0.046875 10.90625 0.046875 12.539062 C 0.046875 14.171875 0.359375 15.710938 0.984375 17.15625 C 1.609375 18.59375 2.472656 19.863281 3.574219 20.964844 C 4.675781 22.066406 5.945312 22.929688 7.382812 23.554688 C 8.828125 24.179688 10.367188 24.492188 12 24.492188 Z M 12 22.5 C 10.617188 22.5 9.324219 22.242188 8.121094 21.726562 C 6.917969 21.210938 5.859375 20.5 4.945312 19.59375 C 4.039062 18.679688 3.328125 17.621094 2.8125 16.417969 C 2.304688 15.214844 2.050781 13.921875 2.050781 12.539062 C 2.050781 11.15625 2.304688 9.863281 2.8125 8.660156 C 3.328125 7.457031 4.039062 6.398438 4.945312 5.484375 C 5.851562 4.570312 6.90625 3.859375 8.109375 3.351562 C 9.3125 2.835938 10.605469 2.578125 11.988281 2.578125 C 13.371094 2.578125 14.664062 2.835938 15.867188 3.351562 C 17.078125 3.859375 18.136719 4.570312 19.042969 5.484375 C 19.957031 6.398438 20.671875 7.457031 21.1875 8.660156 C 21.703125 9.863281 21.960938 11.15625 21.960938 12.539062 C 21.960938 13.921875 21.703125 15.214844 21.1875 16.417969 C 20.679688 17.621094 19.96875 18.679688 19.054688 19.59375 C 18.140625 20.5 17.082031 21.210938 15.878906 21.726562 C 14.675781 22.242188 13.382812 22.5 12 22.5 Z M 14.074219 9.421875 C 14.347656 8.921875 14.519531 8.445312 14.589844 7.992188 C 14.667969 7.539062 14.621094 7.125 14.449219 6.75 C 14.066406 6.59375 13.671875 6.472656 13.265625 6.386719 C 12.859375 6.292969 12.4375 6.246094 12 6.246094 C 11.109375 6.246094 10.269531 6.425781 9.480469 6.785156 C 8.691406 7.144531 8.011719 7.625 7.441406 8.226562 C 7.996094 8.015625 8.578125 7.90625 9.1875 7.898438 C 9.804688 7.882812 10.414062 7.941406 11.015625 8.074219 C 11.617188 8.207031 12.179688 8.394531 12.703125 8.636719 C 13.234375 8.871094 13.691406 9.132812 14.074219 9.421875 Z M 11.578125 12.421875 C 11.992188 12.046875 12.371094 11.671875 12.714844 11.296875 C 13.058594 10.914062 13.359375 10.535156 13.617188 10.160156 C 13.1875 9.824219 12.664062 9.53125 12.046875 9.28125 C 11.429688 9.03125 10.773438 8.863281 10.078125 8.777344 C 9.390625 8.691406 8.71875 8.722656 8.0625 8.871094 C 7.414062 9.019531 6.84375 9.320312 6.351562 9.773438 C 5.992188 10.484375 5.78125 11.25 5.71875 12.070312 C 6.210938 11.742188 6.789062 11.566406 7.453125 11.542969 C 8.117188 11.519531 8.808594 11.59375 9.527344 11.765625 C 10.246094 11.9375 10.929688 12.15625 11.578125 12.421875 Z M 7.722656 12.363281 C 7.300781 12.355469 6.914062 12.410156 6.5625 12.527344 C 6.21875 12.636719 5.941406 12.828125 5.730469 13.101562 C 5.808594 13.945312 6.042969 14.734375 6.433594 15.46875 C 6.832031 16.195312 7.347656 16.824219 7.980469 17.355469 C 8.613281 17.886719 9.324219 18.277344 10.113281 18.527344 C 9.730469 18.082031 9.359375 17.539062 9 16.898438 C 8.640625 16.25 8.34375 15.542969 8.109375 14.777344 C 7.875 14.003906 7.746094 13.199219 7.722656 12.363281 Z M 11.296875 13.242188 C 10.851562 13.046875 10.398438 12.882812 9.9375 12.75 C 9.476562 12.609375 9.027344 12.507812 8.589844 12.445312 C 8.621094 13.265625 8.757812 14.042969 9 14.777344 C 9.25 15.503906 9.546875 16.15625 9.890625 16.734375 C 10.242188 17.3125 10.59375 17.785156 10.945312 18.152344 C 11.296875 18.519531 11.601562 18.746094 11.859375 18.832031 C 12.289062 18.832031 12.679688 18.800781 13.03125 18.738281 C 13.382812 18.675781 13.71875 18.589844 14.039062 18.480469 C 13.53125 18.175781 13.074219 17.734375 12.667969 17.15625 C 12.269531 16.570312 11.949219 15.929688 11.707031 15.234375 C 11.464844 14.539062 11.328125 13.875 11.296875 13.242188 Z M 15.152344 17.976562 C 16.082031 17.429688 16.835938 16.675781 17.414062 15.714844 C 17.992188 14.746094 18.28125 13.6875 18.28125 12.539062 C 18.28125 11.828125 18.160156 11.136719 17.917969 10.464844 C 17.777344 11.019531 17.53125 11.644531 17.179688 12.339844 C 16.828125 13.027344 16.34375 13.746094 15.726562 14.496094 C 15.109375 15.238281 14.332031 15.972656 13.394531 16.699219 C 13.644531 17.066406 13.921875 17.363281 14.226562 17.589844 C 14.53125 17.816406 14.839844 17.945312 15.152344 17.976562 Z M 12.9375 15.960938 C 13.84375 15.25 14.585938 14.539062 15.164062 13.828125 C 15.742188 13.117188 16.1875 12.449219 16.5 11.824219 C 16.820312 11.191406 17.035156 10.636719 17.144531 10.160156 C 17.253906 9.683594 17.285156 9.328125 17.238281 9.09375 C 16.746094 8.359375 16.140625 7.757812 15.421875 7.289062 C 15.484375 7.890625 15.378906 8.523438 15.105469 9.1875 C 14.832031 9.851562 14.433594 10.519531 13.910156 11.191406 C 13.394531 11.855469 12.804688 12.484375 12.140625 13.078125 C 12.15625 13.5625 12.234375 14.054688 12.375 14.554688 C 12.523438 15.054688 12.710938 15.523438 12.9375 15.960938 Z M 12.9375 15.960938 "/>
</g>
</svg>
