<svg width="128" height="128" viewBox="0 0 128 128" fill="none" xmlns="http://www.w3.org/2000/svg">
<path d="M63.9375 127.625C72.6458 127.625 80.8333 125.958 88.5 122.625C96.2083 119.292 103 114.688 108.875 108.812C114.75 102.938 119.354 96.1667 122.688 88.5C126.021 80.7917 127.688 72.5833 127.688 63.875C127.688 55.1667 126.021 46.9792 122.688 39.3125C119.354 31.6042 114.75 24.8125 108.875 18.9375C103 13.0625 96.2083 8.45833 88.5 5.125C80.7917 1.79167 72.5833 0.125 63.875 0.125C55.1667 0.125 46.9583 1.79167 39.25 5.125C31.5833 8.45833 24.8125 13.0625 18.9375 18.9375C13.1042 24.8125 8.52083 31.6042 5.1875 39.3125C1.85417 46.9792 0.1875 55.1667 0.1875 63.875C0.1875 72.5833 1.85417 80.7917 5.1875 88.5C8.52083 96.1667 13.125 102.938 19 108.812C24.875 114.688 31.6458 119.292 39.3125 122.625C47.0208 125.958 55.2292 127.625 63.9375 127.625ZM63.9375 117C56.5625 117 49.6667 115.625 43.25 112.875C36.8333 110.125 31.1875 106.333 26.3125 101.5C21.4792 96.625 17.6875 90.9792 14.9375 84.5625C12.2292 78.1458 10.875 71.25 10.875 63.875C10.875 56.5 12.2292 49.6042 14.9375 43.1875C17.6875 36.7708 21.4792 31.125 26.3125 26.25C31.1458 21.375 36.7708 17.5833 43.1875 14.875C49.6042 12.125 56.5 10.75 63.875 10.75C71.25 10.75 78.1458 12.125 84.5625 14.875C91.0208 17.5833 96.6667 21.375 101.5 26.25C106.375 31.125 110.188 36.7708 112.938 43.1875C115.688 49.6042 117.062 56.5 117.062 63.875C117.062 71.25 115.688 78.1458 112.938 84.5625C110.229 90.9792 106.438 96.625 101.562 101.5C96.6875 106.333 91.0417 110.125 84.625 112.875C78.2083 115.625 71.3125 117 63.9375 117ZM25.375 63.875C25.375 69.125 26.375 74.0833 28.375 78.75C30.4167 83.4167 33.2083 87.5208 36.75 91.0625C40.2917 94.6042 44.375 97.3958 49 99.4375C53.6667 101.438 58.625 102.438 63.875 102.438C69.1667 102.438 74.125 101.438 78.75 99.4375C83.4167 97.3958 87.5208 94.6042 91.0625 91.0625C94.6458 87.5208 97.4375 83.4167 99.4375 78.75C101.479 74.0833 102.5 69.125 102.5 63.875C102.5 58.5833 101.5 53.625 99.5 49C97.5 44.3333 94.7083 40.2292 91.125 36.6875C87.5833 33.1042 83.4792 30.3125 78.8125 28.3125C74.1875 26.3125 69.2292 25.3125 63.9375 25.3125C58.6875 25.3125 53.7292 26.3125 49.0625 28.3125C44.3958 30.3125 40.2917 33.1042 36.75 36.6875C33.2083 40.2292 30.4167 44.3333 28.375 49C26.375 53.625 25.375 58.5833 25.375 63.875ZM34.375 63.875C34.375 62.125 34.5208 60.4167 34.8125 58.75C35.1458 57.0417 35.6042 55.3958 36.1875 53.8125H91.8125C92.3958 55.3958 92.8333 57.0417 93.125 58.75C93.4167 60.4167 93.5625 62.125 93.5625 63.875C93.5625 68 92.7917 71.8542 91.25 75.4375C89.7083 79.0208 87.5833 82.1667 84.875 84.875C82.1667 87.5833 79.0208 89.7083 75.4375 91.25C71.8542 92.75 68 93.5 63.875 93.5C59.7917 93.5 55.9583 92.75 52.375 91.25C48.7917 89.7083 45.6458 87.5833 42.9375 84.875C40.2708 82.1667 38.1667 79.0208 36.625 75.4375C35.125 71.8542 34.375 68 34.375 63.875ZM40.75 45.5625C43.4167 42.1042 46.75 39.3542 50.75 37.3125C54.7917 35.2708 59.1875 34.25 63.9375 34.25C68.6875 34.25 73.0833 35.2708 77.125 37.3125C81.1667 39.3542 84.5417 42.1042 87.25 45.5625H40.75Z" fill="white"/>
</svg>
