<svg width="107" height="135" viewBox="0 0 107 135" fill="none" xmlns="http://www.w3.org/2000/svg">
<path d="M20.3125 134.875H86.6875C93.1458 134.875 97.9792 133.229 101.188 129.938C104.438 126.688 106.062 121.812 106.062 115.312V20.5C106.062 13.9583 104.438 9.0625 101.188 5.8125C97.9792 2.52083 93.1458 0.875 86.6875 0.875H68.125C65.7917 0.875 64.625 2.125 64.625 4.625C64.625 7.875 63.6042 10.5417 61.5625 12.625C59.5208 14.6667 56.8333 15.6875 53.5 15.6875C50.1667 15.6875 47.4583 14.6667 45.375 12.625C43.3333 10.5417 42.3125 7.875 42.3125 4.625C42.3125 2.125 41.1458 0.875 38.8125 0.875H20.3125C13.8542 0.875 9 2.52083 5.75 5.8125C2.54167 9.0625 0.9375 13.9583 0.9375 20.5V115.312C0.9375 121.812 2.54167 126.688 5.75 129.938C9 133.229 13.8542 134.875 20.3125 134.875ZM20.8125 124.812C17.5625 124.812 15.1042 123.958 13.4375 122.25C11.8125 120.583 11 118.208 11 115.125V20.6875C11 17.5625 11.8125 15.1667 13.4375 13.5C15.1042 11.7917 17.5625 10.9375 20.8125 10.9375H38.625L32.8125 7.375C33.3542 12.8333 35.5 17.2083 39.25 20.5C43.0417 23.7917 47.7917 25.4375 53.5 25.4375C59.2083 25.4375 63.9375 23.7917 67.6875 20.5C71.4792 17.2083 73.6667 12.8333 74.25 7.375L68.375 10.9375H86.1875C89.4375 10.9375 91.875 11.7917 93.5 13.5C95.1667 15.1667 96 17.5625 96 20.6875V115.125C96 118.208 95.1667 120.583 93.5 122.25C91.875 123.958 89.4375 124.812 86.1875 124.812H20.8125ZM29.8125 47.4375H77.25C78.3333 47.4375 79.2292 47.0625 79.9375 46.3125C80.6875 45.5625 81.0625 44.625 81.0625 43.5C81.0625 42.4167 80.6875 41.5208 79.9375 40.8125C79.2292 40.0625 78.3333 39.6875 77.25 39.6875H29.8125C28.6875 39.6875 27.75 40.0625 27 40.8125C26.2917 41.5208 25.9375 42.4167 25.9375 43.5C25.9375 44.625 26.2917 45.5625 27 46.3125C27.75 47.0625 28.6875 47.4375 29.8125 47.4375ZM29.8125 69.625H52.25C53.375 69.625 54.2917 69.2708 55 68.5625C55.75 67.8125 56.125 66.8958 56.125 65.8125C56.125 64.7292 55.75 63.8125 55 63.0625C54.2917 62.3125 53.375 61.9375 52.25 61.9375H29.8125C28.6875 61.9375 27.75 62.3125 27 63.0625C26.2917 63.8125 25.9375 64.7292 25.9375 65.8125C25.9375 66.8958 26.2917 67.8125 27 68.5625C27.75 69.2708 28.6875 69.625 29.8125 69.625Z" fill="white"/>
</svg>
