<?xml version="1.0" encoding="UTF-8"?>
<svg xmlns="http://www.w3.org/2000/svg" xmlns:xlink="http://www.w3.org/1999/xlink" width="24" height="22.666667" viewBox="0 0 24 22.666667" version="1.1">
<g id="surface1">
<path style=" stroke:none;fill-rule:nonzero;fill:rgb(100%,100%,100%);fill-opacity:1;" d="M 8.5625 21.394531 C 8.769531 21.394531 8.886719 21.285156 8.90625 21.0625 C 8.996094 20.367188 9.085938 19.824219 9.175781 19.425781 C 9.273438 19.03125 9.421875 18.734375 9.625 18.53125 C 9.832031 18.328125 10.140625 18.175781 10.542969 18.074219 C 10.945312 17.96875 11.5 17.859375 12.207031 17.75 C 12.453125 17.707031 12.574219 17.589844 12.574219 17.394531 C 12.574219 17.203125 12.464844 17.082031 12.25 17.042969 C 11.542969 16.910156 10.984375 16.792969 10.574219 16.6875 C 10.164062 16.578125 9.851562 16.421875 9.636719 16.230469 C 9.425781 16.035156 9.273438 15.742188 9.175781 15.355469 C 9.085938 14.964844 8.996094 14.421875 8.90625 13.730469 C 8.886719 13.507812 8.769531 13.394531 8.5625 13.394531 C 8.355469 13.394531 8.234375 13.503906 8.207031 13.71875 C 8.117188 14.425781 8.023438 14.984375 7.925781 15.386719 C 7.828125 15.78125 7.675781 16.082031 7.46875 16.292969 C 7.265625 16.492188 6.960938 16.644531 6.550781 16.75 C 6.140625 16.847656 5.578125 16.945312 4.863281 17.042969 C 4.773438 17.054688 4.699219 17.09375 4.636719 17.15625 C 4.574219 17.21875 4.542969 17.296875 4.542969 17.394531 C 4.542969 17.589844 4.648438 17.707031 4.863281 17.75 C 5.578125 17.882812 6.140625 18.003906 6.550781 18.113281 C 6.960938 18.226562 7.265625 18.382812 7.46875 18.582031 C 7.675781 18.777344 7.828125 19.070312 7.917969 19.457031 C 8.015625 19.847656 8.109375 20.390625 8.207031 21.082031 C 8.214844 21.171875 8.25 21.246094 8.3125 21.300781 C 8.382812 21.363281 8.464844 21.394531 8.5625 21.394531 Z M 3.613281 12.324219 C 3.753906 12.324219 3.835938 12.242188 3.863281 12.082031 C 3.953125 11.589844 4.039062 11.203125 4.113281 10.917969 C 4.191406 10.625 4.300781 10.402344 4.449219 10.25 C 4.59375 10.089844 4.8125 9.96875 5.105469 9.886719 C 5.394531 9.800781 5.804688 9.714844 6.332031 9.625 C 6.492188 9.597656 6.574219 9.511719 6.574219 9.363281 C 6.574219 9.21875 6.492188 9.132812 6.332031 9.105469 C 5.804688 9.015625 5.394531 8.925781 5.105469 8.84375 C 4.8125 8.753906 4.59375 8.632812 4.449219 8.480469 C 4.300781 8.328125 4.191406 8.109375 4.113281 7.824219 C 4.039062 7.53125 3.953125 7.136719 3.863281 6.636719 C 3.835938 6.484375 3.753906 6.40625 3.613281 6.40625 C 3.46875 6.40625 3.382812 6.484375 3.355469 6.636719 C 3.265625 7.136719 3.179688 7.53125 3.105469 7.824219 C 3.027344 8.109375 2.917969 8.328125 2.769531 8.480469 C 2.625 8.632812 2.40625 8.753906 2.113281 8.84375 C 1.824219 8.925781 1.417969 9.015625 0.894531 9.105469 C 0.734375 9.132812 0.65625 9.21875 0.65625 9.363281 C 0.65625 9.511719 0.734375 9.597656 0.894531 9.625 C 1.417969 9.714844 1.824219 9.800781 2.113281 9.886719 C 2.40625 9.96875 2.625 10.089844 2.769531 10.25 C 2.917969 10.402344 3.027344 10.625 3.105469 10.917969 C 3.179688 11.203125 3.265625 11.589844 3.355469 12.082031 C 3.367188 12.152344 3.394531 12.210938 3.4375 12.261719 C 3.480469 12.300781 3.539062 12.324219 3.613281 12.324219 Z M 9.324219 5.65625 C 9.433594 5.65625 9.503906 5.59375 9.53125 5.46875 C 9.621094 5.050781 9.699219 4.726562 9.761719 4.488281 C 9.828125 4.246094 9.921875 4.0625 10.042969 3.9375 C 10.167969 3.804688 10.351562 3.703125 10.59375 3.636719 C 10.835938 3.558594 11.171875 3.476562 11.605469 3.386719 C 11.734375 3.363281 11.800781 3.296875 11.800781 3.175781 C 11.800781 3.058594 11.734375 2.984375 11.605469 2.957031 C 11.171875 2.867188 10.835938 2.789062 10.59375 2.71875 C 10.351562 2.640625 10.167969 2.542969 10.042969 2.417969 C 9.921875 2.285156 9.828125 2.101562 9.761719 1.863281 C 9.699219 1.628906 9.621094 1.300781 9.53125 0.886719 C 9.503906 0.753906 9.433594 0.6875 9.324219 0.6875 C 9.203125 0.6875 9.132812 0.753906 9.105469 0.886719 C 9.019531 1.300781 8.945312 1.628906 8.875 1.863281 C 8.804688 2.101562 8.707031 2.285156 8.582031 2.417969 C 8.464844 2.542969 8.285156 2.640625 8.042969 2.71875 C 7.804688 2.789062 7.46875 2.867188 7.03125 2.957031 C 6.898438 2.984375 6.832031 3.058594 6.832031 3.175781 C 6.832031 3.296875 6.898438 3.363281 7.03125 3.386719 C 7.46875 3.476562 7.804688 3.558594 8.042969 3.636719 C 8.285156 3.703125 8.464844 3.804688 8.582031 3.9375 C 8.707031 4.0625 8.804688 4.246094 8.875 4.488281 C 8.945312 4.726562 9.019531 5.050781 9.105469 5.46875 C 9.132812 5.59375 9.203125 5.65625 9.324219 5.65625 Z M 17.925781 9.332031 C 18.066406 9.332031 18.148438 9.257812 18.175781 9.105469 C 18.265625 8.605469 18.351562 8.210938 18.425781 7.925781 C 18.503906 7.636719 18.613281 7.414062 18.761719 7.261719 C 18.90625 7.109375 19.125 6.988281 19.417969 6.90625 C 19.714844 6.816406 20.125 6.726562 20.644531 6.636719 C 20.804688 6.609375 20.886719 6.519531 20.886719 6.375 C 20.886719 6.230469 20.804688 6.140625 20.644531 6.113281 C 20.125 6.023438 19.714844 5.9375 19.417969 5.855469 C 19.125 5.769531 18.90625 5.652344 18.761719 5.5 C 18.613281 5.339844 18.503906 5.117188 18.425781 4.832031 C 18.351562 4.542969 18.265625 4.148438 18.175781 3.65625 C 18.148438 3.496094 18.066406 3.417969 17.925781 3.417969 C 17.78125 3.417969 17.695312 3.496094 17.667969 3.65625 C 17.578125 4.148438 17.492188 4.542969 17.417969 4.832031 C 17.339844 5.117188 17.230469 5.339844 17.082031 5.5 C 16.9375 5.652344 16.71875 5.769531 16.425781 5.855469 C 16.136719 5.9375 15.730469 6.023438 15.207031 6.113281 C 15.140625 6.128906 15.078125 6.160156 15.03125 6.207031 C 14.988281 6.25 14.96875 6.304688 14.96875 6.375 C 14.96875 6.519531 15.046875 6.609375 15.207031 6.636719 C 15.730469 6.726562 16.136719 6.816406 16.425781 6.90625 C 16.71875 6.988281 16.9375 7.109375 17.082031 7.261719 C 17.230469 7.414062 17.339844 7.636719 17.417969 7.925781 C 17.492188 8.210938 17.578125 8.605469 17.667969 9.105469 C 17.695312 9.257812 17.78125 9.332031 17.925781 9.332031 Z M 21.394531 21.230469 C 21.617188 21.453125 21.890625 21.5625 22.207031 21.5625 C 22.535156 21.5625 22.800781 21.453125 23.011719 21.230469 C 23.226562 21 23.328125 20.730469 23.324219 20.417969 C 23.324219 20.109375 23.21875 19.847656 23.011719 19.625 L 13.105469 9.6875 C 12.890625 9.464844 12.617188 9.355469 12.292969 9.355469 C 11.972656 9.355469 11.707031 9.464844 11.5 9.6875 C 11.285156 9.917969 11.175781 10.1875 11.175781 10.5 C 11.175781 10.8125 11.285156 11.078125 11.5 11.300781 Z M 21.769531 20.511719 L 15.34375 14.074219 L 15.863281 13.574219 L 22.292969 20.011719 C 22.382812 20.101562 22.433594 20.195312 22.449219 20.292969 C 22.46875 20.390625 22.433594 20.484375 22.34375 20.582031 C 22.261719 20.667969 22.167969 20.699219 22.0625 20.675781 C 21.964844 20.664062 21.867188 20.609375 21.769531 20.511719 Z M 21.769531 20.511719 "/>
</g>
</svg>
