<svg width="16" height="17" viewBox="0 0 16 17" fill="none" xmlns="http://www.w3.org/2000/svg">
<path d="M11.9688 0.0703125H2.03125C1.48958 0.0703125 1.05208 0.242188 0.71875 0.585938C0.385417 0.929688 0.21875 1.38021 0.21875 1.9375V4.01562H13.7734V1.9375C13.7734 1.38021 13.6068 0.929688 13.2734 0.585938C12.9453 0.242188 12.5104 0.0703125 11.9688 0.0703125ZM3.04688 3.125C2.84896 3.125 2.67969 3.05469 2.53906 2.91406C2.40365 2.77344 2.33594 2.60677 2.33594 2.41406C2.33594 2.21615 2.40365 2.04688 2.53906 1.90625C2.67969 1.76562 2.84896 1.69531 3.04688 1.69531C3.23958 1.69531 3.40365 1.76562 3.53906 1.90625C3.67969 2.04688 3.75 2.21615 3.75 2.41406C3.75 2.60677 3.67969 2.77344 3.53906 2.91406C3.40365 3.05469 3.23958 3.125 3.04688 3.125ZM5.10156 3.125C4.90365 3.125 4.73698 3.05469 4.60156 2.91406C4.46615 2.77344 4.39844 2.60677 4.39844 2.41406C4.39844 2.21615 4.46615 2.04688 4.60156 1.90625C4.73698 1.76562 4.90365 1.69531 5.10156 1.69531C5.29427 1.69531 5.45833 1.76562 5.59375 1.90625C5.73438 2.04688 5.80469 2.21615 5.80469 2.41406C5.80469 2.60677 5.73438 2.77344 5.59375 2.91406C5.45833 3.05469 5.29427 3.125 5.10156 3.125ZM9.46875 2.82031C9.34896 2.82031 9.2526 2.78385 9.17969 2.71094C9.10677 2.63281 9.07031 2.53385 9.07031 2.41406C9.07031 2.28906 9.10677 2.1901 9.17969 2.11719C9.2526 2.03906 9.34896 2 9.46875 2H11.3906C11.5156 2 11.6146 2.03906 11.6875 2.11719C11.7604 2.1901 11.7969 2.28906 11.7969 2.41406C11.7969 2.53385 11.7604 2.63281 11.6875 2.71094C11.6146 2.78385 11.5156 2.82031 11.3906 2.82031H9.46875ZM2.03125 16.4766H8C7.97396 16.4297 7.94792 16.3802 7.92188 16.3281C7.89583 16.276 7.8724 16.224 7.85156 16.1719L7.30469 14.7031C7.25781 14.7083 7.20573 14.7109 7.14844 14.7109C7.09635 14.7109 7.04688 14.7109 7 14.7109C6.41667 14.7109 5.86979 14.6016 5.35938 14.3828C4.84896 14.1641 4.39844 13.862 4.00781 13.4766C3.6224 13.0911 3.32031 12.6432 3.10156 12.1328C2.88281 11.6224 2.77344 11.0755 2.77344 10.4922C2.77344 9.90885 2.88281 9.36198 3.10156 8.85156C3.32031 8.34115 3.6224 7.89323 4.00781 7.50781C4.39844 7.11719 4.84896 6.8125 5.35938 6.59375C5.86979 6.375 6.41667 6.26562 7 6.26562C7.57812 6.26562 8.1224 6.375 8.63281 6.59375C9.14323 6.8125 9.59115 7.11719 9.97656 7.50781C10.3672 7.89323 10.6719 8.34115 10.8906 8.85156C11.1094 9.36198 11.2188 9.90885 11.2188 10.4922C11.2188 10.5182 11.2161 10.5469 11.2109 10.5781C11.2109 10.6094 11.2109 10.6406 11.2109 10.6719C11.2266 10.6771 11.2396 10.6797 11.25 10.6797C11.2656 10.6797 11.2839 10.6797 11.3047 10.6797C11.3984 10.6797 11.5286 10.6328 11.6953 10.5391C11.8672 10.4453 12.0703 10.3516 12.3047 10.2578C12.5443 10.1641 12.8099 10.1172 13.1016 10.1172C13.2422 10.1172 13.3698 10.1276 13.4844 10.1484C13.599 10.1693 13.6953 10.1927 13.7734 10.2188V5.07812H0.21875V14.6172C0.21875 15.1745 0.385417 15.6224 0.71875 15.9609C1.05208 16.3047 1.48958 16.4766 2.03125 16.4766ZM3.64844 10.4922C3.64844 10.9766 3.74219 11.4245 3.92969 11.8359C4.11719 12.2474 4.36979 12.6042 4.6875 12.9062C5.00521 13.2031 5.36198 13.4349 5.75781 13.6016C6.15885 13.763 6.56771 13.8411 6.98438 13.8359L6.26562 11.8984C6.16667 11.6276 6.13802 11.3672 6.17969 11.1172C6.22656 10.862 6.32812 10.638 6.48438 10.4453C6.64583 10.2526 6.84635 10.112 7.08594 10.0234C7.33594 9.9349 7.59115 9.91667 7.85156 9.96875C8.11719 10.0156 8.34635 10.1302 8.53906 10.3125C8.66406 10.2604 8.80469 10.2161 8.96094 10.1797C9.1224 10.138 9.30208 10.1172 9.5 10.1172C9.64062 10.1172 9.77865 10.1354 9.91406 10.1719C10.0547 10.2031 10.1901 10.2474 10.3203 10.3047C10.3203 10.2474 10.3177 10.1901 10.3125 10.1328C10.3073 10.0703 10.3021 10.0104 10.2969 9.95312C10.2135 9.42188 10.0156 8.94531 9.70312 8.52344C9.39062 8.09635 9 7.76042 8.53125 7.51562C8.06771 7.26562 7.55729 7.14062 7 7.14062C6.38021 7.14062 5.8151 7.29167 5.30469 7.59375C4.79948 7.89583 4.39583 8.29948 4.09375 8.80469C3.79688 9.3099 3.64844 9.8724 3.64844 10.4922ZM11.3047 12.3516C11.6016 12.3516 11.8385 12.3021 12.0156 12.2031C12.1927 12.1042 12.3594 12.0078 12.5156 11.9141C12.6719 11.8151 12.8646 11.7656 13.0938 11.7656C13.2969 11.7656 13.4714 11.8073 13.6172 11.8906C13.763 11.9688 13.9167 12.0547 14.0781 12.1484C14.2448 12.237 14.4609 12.2969 14.7266 12.3281L14.7812 11.6172C14.5885 11.5807 14.4115 11.5156 14.25 11.4219C14.0885 11.3281 13.9193 11.2396 13.7422 11.1562C13.5651 11.0729 13.349 11.0312 13.0938 11.0312C12.8021 11.0312 12.5599 11.0807 12.3672 11.1797C12.1797 11.2734 12.0052 11.3698 11.8438 11.4688C11.6875 11.5677 11.5078 11.6172 11.3047 11.6172C11.0964 11.6172 10.9115 11.5677 10.75 11.4688C10.5938 11.3698 10.4219 11.2734 10.2344 11.1797C10.0469 11.0807 9.80469 11.0312 9.50781 11.0312C9.25781 11.0312 9.04167 11.0729 8.85938 11.1562C8.68229 11.2396 8.51302 11.3281 8.35156 11.4219C8.19531 11.5156 8.01823 11.5807 7.82031 11.6172L7.875 12.3281C8.14062 12.2969 8.35677 12.237 8.52344 12.1484C8.6901 12.0547 8.84375 11.9688 8.98438 11.8906C9.13021 11.8073 9.30469 11.7656 9.50781 11.7656C9.74219 11.7656 9.9349 11.8151 10.0859 11.9141C10.2422 12.0078 10.4089 12.1042 10.5859 12.2031C10.7682 12.3021 11.0078 12.3516 11.3047 12.3516ZM9.60156 16.4922H13C13.1979 16.4922 13.3776 16.4375 13.5391 16.3281C13.7005 16.2188 13.8203 16.0599 13.8984 15.8516L15.4844 11.5781C15.5469 11.4062 15.5443 11.2578 15.4766 11.1328C15.4141 11.0078 15.3229 10.9245 15.2031 10.8828C15.0833 10.8359 14.9557 10.8385 14.8203 10.8906C14.6849 10.9375 14.5859 11.0469 14.5234 11.2188L13.0156 15.2578C12.9896 15.3307 12.9531 15.3828 12.9062 15.4141C12.8594 15.4505 12.8047 15.4688 12.7422 15.4688H9.85938C9.79688 15.4688 9.74219 15.4505 9.69531 15.4141C9.64844 15.3828 9.61198 15.3307 9.58594 15.2578L8.07812 11.2188C8.01562 11.0469 7.91667 10.9375 7.78125 10.8906C7.65104 10.8385 7.52604 10.8359 7.40625 10.8828C7.28646 10.9245 7.19271 11.0078 7.125 11.1328C7.0625 11.2578 7.0625 11.4062 7.125 11.5781L8.71094 15.8516C8.78385 16.0599 8.90104 16.2188 9.0625 16.3281C9.22396 16.4375 9.40365 16.4922 9.60156 16.4922Z" fill="white"/>
</svg>
