<svg width="124" height="132" viewBox="0 0 124 132" fill="none" xmlns="http://www.w3.org/2000/svg">
<path d="M94.9375 0.5625H15.4375C11.1042 0.5625 7.60417 1.9375 4.9375 4.6875C2.27083 7.4375 0.9375 11.0417 0.9375 15.5V32.125H109.375V15.5C109.375 11.0417 108.042 7.4375 105.375 4.6875C102.75 1.9375 99.2708 0.5625 94.9375 0.5625ZM23.5625 25C21.9792 25 20.625 24.4375 19.5 23.3125C18.4167 22.1875 17.875 20.8542 17.875 19.3125C17.875 17.7292 18.4167 16.375 19.5 15.25C20.625 14.125 21.9792 13.5625 23.5625 13.5625C25.1042 13.5625 26.4167 14.125 27.5 15.25C28.625 16.375 29.1875 17.7292 29.1875 19.3125C29.1875 20.8542 28.625 22.1875 27.5 23.3125C26.4167 24.4375 25.1042 25 23.5625 25ZM40 25C38.4167 25 37.0833 24.4375 36 23.3125C34.9167 22.1875 34.375 20.8542 34.375 19.3125C34.375 17.7292 34.9167 16.375 36 15.25C37.0833 14.125 38.4167 13.5625 40 13.5625C41.5417 13.5625 42.8542 14.125 43.9375 15.25C45.0625 16.375 45.625 17.7292 45.625 19.3125C45.625 20.8542 45.0625 22.1875 43.9375 23.3125C42.8542 24.4375 41.5417 25 40 25ZM74.9375 22.5625C73.9792 22.5625 73.2083 22.2708 72.625 21.6875C72.0417 21.0625 71.75 20.2708 71.75 19.3125C71.75 18.3125 72.0417 17.5208 72.625 16.9375C73.2083 16.3125 73.9792 16 74.9375 16H90.3125C91.3125 16 92.1042 16.3125 92.6875 16.9375C93.2708 17.5208 93.5625 18.3125 93.5625 19.3125C93.5625 20.2708 93.2708 21.0625 92.6875 21.6875C92.1042 22.2708 91.3125 22.5625 90.3125 22.5625H74.9375ZM15.4375 131.812H63.1875C62.9792 131.438 62.7708 131.042 62.5625 130.625C62.3542 130.208 62.1667 129.792 62 129.375L57.625 117.625C57.25 117.667 56.8333 117.688 56.375 117.688C55.9583 117.688 55.5625 117.688 55.1875 117.688C50.5208 117.688 46.1458 116.812 42.0625 115.062C37.9792 113.312 34.375 110.896 31.25 107.812C28.1667 104.729 25.75 101.146 24 97.0625C22.25 92.9792 21.375 88.6042 21.375 83.9375C21.375 79.2708 22.25 74.8958 24 70.8125C25.75 66.7292 28.1667 63.1458 31.25 60.0625C34.375 56.9375 37.9792 54.5 42.0625 52.75C46.1458 51 50.5208 50.125 55.1875 50.125C59.8125 50.125 64.1667 51 68.25 52.75C72.3333 54.5 75.9167 56.9375 79 60.0625C82.125 63.1458 84.5625 66.7292 86.3125 70.8125C88.0625 74.8958 88.9375 79.2708 88.9375 83.9375C88.9375 84.1458 88.9167 84.375 88.875 84.625C88.875 84.875 88.875 85.125 88.875 85.375C89 85.4167 89.1042 85.4375 89.1875 85.4375C89.3125 85.4375 89.4583 85.4375 89.625 85.4375C90.375 85.4375 91.4167 85.0625 92.75 84.3125C94.125 83.5625 95.75 82.8125 97.625 82.0625C99.5417 81.3125 101.667 80.9375 104 80.9375C105.125 80.9375 106.146 81.0208 107.062 81.1875C107.979 81.3542 108.75 81.5417 109.375 81.75V40.625H0.9375V116.938C0.9375 121.396 2.27083 124.979 4.9375 127.688C7.60417 130.438 11.1042 131.812 15.4375 131.812ZM28.375 83.9375C28.375 87.8125 29.125 91.3958 30.625 94.6875C32.125 97.9792 34.1458 100.833 36.6875 103.25C39.2292 105.625 42.0833 107.479 45.25 108.812C48.4583 110.104 51.7292 110.729 55.0625 110.688L49.3125 95.1875C48.5208 93.0208 48.2917 90.9375 48.625 88.9375C49 86.8958 49.8125 85.1042 51.0625 83.5625C52.3542 82.0208 53.9583 80.8958 55.875 80.1875C57.875 79.4792 59.9167 79.3333 62 79.75C64.125 80.125 65.9583 81.0417 67.5 82.5C68.5 82.0833 69.625 81.7292 70.875 81.4375C72.1667 81.1042 73.6042 80.9375 75.1875 80.9375C76.3125 80.9375 77.4167 81.0833 78.5 81.375C79.625 81.625 80.7083 81.9792 81.75 82.4375C81.75 81.9792 81.7292 81.5208 81.6875 81.0625C81.6458 80.5625 81.6042 80.0833 81.5625 79.625C80.8958 75.375 79.3125 71.5625 76.8125 68.1875C74.3125 64.7708 71.1875 62.0833 67.4375 60.125C63.7292 58.125 59.6458 57.125 55.1875 57.125C50.2292 57.125 45.7083 58.3333 41.625 60.75C37.5833 63.1667 34.3542 66.3958 31.9375 70.4375C29.5625 74.4792 28.375 78.9792 28.375 83.9375ZM89.625 98.8125C92 98.8125 93.8958 98.4167 95.3125 97.625C96.7292 96.8333 98.0625 96.0625 99.3125 95.3125C100.562 94.5208 102.104 94.125 103.938 94.125C105.562 94.125 106.958 94.4583 108.125 95.125C109.292 95.75 110.521 96.4375 111.812 97.1875C113.146 97.8958 114.875 98.375 117 98.625L117.438 92.9375C115.896 92.6458 114.479 92.125 113.188 91.375C111.896 90.625 110.542 89.9167 109.125 89.25C107.708 88.5833 105.979 88.25 103.938 88.25C101.604 88.25 99.6667 88.6458 98.125 89.4375C96.625 90.1875 95.2292 90.9583 93.9375 91.75C92.6875 92.5417 91.25 92.9375 89.625 92.9375C87.9583 92.9375 86.4792 92.5417 85.1875 91.75C83.9375 90.9583 82.5625 90.1875 81.0625 89.4375C79.5625 88.6458 77.625 88.25 75.25 88.25C73.25 88.25 71.5208 88.5833 70.0625 89.25C68.6458 89.9167 67.2917 90.625 66 91.375C64.75 92.125 63.3333 92.6458 61.75 92.9375L62.1875 98.625C64.3125 98.375 66.0417 97.8958 67.375 97.1875C68.7083 96.4375 69.9375 95.75 71.0625 95.125C72.2292 94.4583 73.625 94.125 75.25 94.125C77.125 94.125 78.6667 94.5208 79.875 95.3125C81.125 96.0625 82.4583 96.8333 83.875 97.625C85.3333 98.4167 87.25 98.8125 89.625 98.8125ZM76 131.938H103.188C104.771 131.938 106.208 131.5 107.5 130.625C108.792 129.75 109.75 128.479 110.375 126.812L123.062 92.625C123.562 91.25 123.542 90.0625 123 89.0625C122.5 88.0625 121.771 87.3958 120.812 87.0625C119.854 86.6875 118.833 86.7083 117.75 87.125C116.667 87.5 115.875 88.375 115.375 89.75L103.312 122.062C103.104 122.646 102.812 123.062 102.438 123.312C102.062 123.604 101.625 123.75 101.125 123.75H78.0625C77.5625 123.75 77.125 123.604 76.75 123.312C76.375 123.062 76.0833 122.646 75.875 122.062L63.8125 89.75C63.3125 88.375 62.5208 87.5 61.4375 87.125C60.3958 86.7083 59.3958 86.6875 58.4375 87.0625C57.4792 87.3958 56.7292 88.0625 56.1875 89.0625C55.6875 90.0625 55.6875 91.25 56.1875 92.625L68.875 126.812C69.4583 128.479 70.3958 129.75 71.6875 130.625C72.9792 131.5 74.4167 131.938 76 131.938Z" fill="white"/>
</svg>
