<svg width="124" height="132" viewBox="0 0 124 132" fill="none" xmlns="http://www.w3.org/2000/svg">
<path d="M15.4375 131.812H63.1875C63.0208 131.479 62.8333 131.125 62.625 130.75C62.4583 130.417 62.2917 130.042 62.125 129.625L59.1875 121.75H15.875C14.4167 121.75 13.2292 121.292 12.3125 120.375C11.4375 119.5 11 118.312 11 116.812V15.625C11 14.125 11.4375 12.9167 12.3125 12C13.2292 11.0833 14.4167 10.625 15.875 10.625H94.4375C95.8958 10.625 97.0625 11.0833 97.9375 12C98.8542 12.9167 99.3125 14.125 99.3125 15.625V81.5625C101.021 81.1458 102.75 80.9583 104.5 81C106.25 81 107.875 81.25 109.375 81.75V15.5C109.375 11.0417 108.042 7.4375 105.375 4.6875C102.75 1.9375 99.2708 0.5625 94.9375 0.5625H15.4375C11.1042 0.5625 7.60417 1.9375 4.9375 4.6875C2.27083 7.4375 0.9375 11.0417 0.9375 15.5V116.938C0.9375 121.396 2.27083 124.979 4.9375 127.688C7.60417 130.438 11.1042 131.812 15.4375 131.812ZM24.5 27.4375C26.0417 27.4375 27.3333 26.8958 28.375 25.8125C29.4583 24.7292 30 23.4167 30 21.875C30 20.375 29.4583 19.0833 28.375 18C27.3333 16.9167 26.0417 16.375 24.5 16.375C23 16.375 21.7083 16.9167 20.625 18C19.5417 19.0833 19 20.375 19 21.875C19 23.4167 19.5417 24.7292 20.625 25.8125C21.7083 26.8958 23 27.4375 24.5 27.4375ZM40.4375 27.4375C41.9792 27.4375 43.2708 26.8958 44.3125 25.8125C45.3958 24.7292 45.9375 23.4167 45.9375 21.875C45.9375 20.375 45.3958 19.0833 44.3125 18C43.2708 16.9167 41.9792 16.375 40.4375 16.375C38.9375 16.375 37.6458 16.9167 36.5625 18C35.5208 19.0833 35 20.375 35 21.875C35 23.4167 35.5208 24.7292 36.5625 25.8125C37.6458 26.8958 38.9375 27.4375 40.4375 27.4375ZM73.125 25.0625H88.0625C88.9792 25.0625 89.7292 24.7708 90.3125 24.1875C90.8958 23.6042 91.1875 22.8333 91.1875 21.875C91.1875 20.9583 90.8958 20.2083 90.3125 19.625C89.7292 19.0417 88.9792 18.75 88.0625 18.75H73.125C72.2083 18.75 71.4583 19.0417 70.875 19.625C70.2917 20.2083 70 20.9583 70 21.875C70 22.8333 70.2917 23.6042 70.875 24.1875C71.4583 24.7708 72.2083 25.0625 73.125 25.0625ZM6.4375 41.375H103.812V33.1875H6.4375V41.375ZM22.4375 81.5625C22.4375 86.0625 23.2708 90.2917 24.9375 94.25C26.6458 98.2083 29 101.688 32 104.688C35 107.688 38.4792 110.042 42.4375 111.75C46.3958 113.417 50.6458 114.25 55.1875 114.25C55.3958 114.25 55.5833 114.25 55.75 114.25C55.9583 114.25 56.1667 114.25 56.375 114.25C55.9583 113.125 55.5625 112 55.1875 110.875C54.8125 109.75 54.4167 108.625 54 107.5C53.9583 107.5 53.875 107.5 53.75 107.5C53.6667 107.5 53.5833 107.5 53.5 107.5C50.7917 107.5 48.0208 106.896 45.1875 105.688C42.3542 104.438 39.7292 102.667 37.3125 100.375C34.8958 98.0417 32.9375 95.2917 31.4375 92.125C29.9375 88.9583 29.1875 85.4375 29.1875 81.5625C29.1875 76.7708 30.3542 72.4167 32.6875 68.5C35.0208 64.5417 38.1458 61.3958 42.0625 59.0625C45.9792 56.7292 50.3542 55.5625 55.1875 55.5625C59.9375 55.5625 64.2708 56.7292 68.1875 59.0625C72.1458 61.3958 75.2917 64.5208 77.625 68.4375C79.9583 72.3125 81.125 76.6042 81.125 81.3125C81.125 81.4792 81.125 81.6458 81.125 81.8125C81.125 81.9792 81.1042 82.1458 81.0625 82.3125C82.3542 82.6042 83.5833 83 84.75 83.5C85.9167 83.9583 86.9167 84.3958 87.75 84.8125C87.7917 84.2708 87.8125 83.7292 87.8125 83.1875C87.8542 82.6458 87.875 82.1042 87.875 81.5625C87.875 75.5208 86.3958 70.0417 83.4375 65.125C80.5208 60.1667 76.5833 56.2083 71.625 53.25C66.6667 50.2917 61.1875 48.8125 55.1875 48.8125C49.1458 48.8125 43.6458 50.2917 38.6875 53.25C33.7292 56.2083 29.7708 60.1667 26.8125 65.125C23.8958 70.0417 22.4375 75.5208 22.4375 81.5625ZM89.625 98.8125C92 98.8125 93.8958 98.4167 95.3125 97.625C96.7292 96.8333 98.0625 96.0625 99.3125 95.3125C100.562 94.5208 102.104 94.125 103.938 94.125C105.562 94.125 106.958 94.4583 108.125 95.125C109.292 95.75 110.521 96.4375 111.812 97.1875C113.146 97.8958 114.875 98.375 117 98.625L117.438 92.9375C115.896 92.6458 114.479 92.125 113.188 91.375C111.896 90.625 110.542 89.9167 109.125 89.25C107.708 88.5833 105.979 88.25 103.938 88.25C101.604 88.25 99.6667 88.6458 98.125 89.4375C96.625 90.1875 95.2292 90.9583 93.9375 91.75C92.6875 92.5417 91.25 92.9375 89.625 92.9375C87.9583 92.9375 86.4792 92.5417 85.1875 91.75C83.9375 90.9583 82.5625 90.1875 81.0625 89.4375C79.5625 88.6458 77.625 88.25 75.25 88.25C73.25 88.25 71.5208 88.5833 70.0625 89.25C68.6458 89.9167 67.2917 90.625 66 91.375C64.75 92.125 63.3333 92.6458 61.75 92.9375L62.1875 98.625C64.3125 98.375 66.0417 97.8958 67.375 97.1875C68.7083 96.4375 69.9375 95.75 71.0625 95.125C72.2292 94.4583 73.625 94.125 75.25 94.125C77.125 94.125 78.6667 94.5208 79.875 95.3125C81.125 96.0625 82.4583 96.8333 83.875 97.625C85.3333 98.4167 87.25 98.8125 89.625 98.8125ZM76 131.938H103.188C104.771 131.938 106.208 131.5 107.5 130.625C108.792 129.75 109.75 128.479 110.375 126.812L123.062 92.625C123.562 91.25 123.542 90.0625 123 89.0625C122.5 88.0625 121.771 87.3958 120.812 87.0625C119.854 86.6875 118.833 86.7083 117.75 87.125C116.667 87.5 115.875 88.375 115.375 89.75L103.312 122.062C103.104 122.646 102.812 123.062 102.438 123.312C102.062 123.604 101.625 123.75 101.125 123.75H78.0625C77.5625 123.75 77.125 123.604 76.75 123.312C76.375 123.062 76.0833 122.646 75.875 122.062L63.8125 89.75C63.3125 88.375 62.5208 87.5 61.4375 87.125C60.3958 86.7083 59.3958 86.6875 58.4375 87.0625C57.4792 87.3958 56.7292 88.0625 56.1875 89.0625C55.6875 90.0625 55.6875 91.25 56.1875 92.625L68.875 126.812C69.4583 128.479 70.3958 129.75 71.6875 130.625C72.9792 131.5 74.4167 131.938 76 131.938Z" fill="white"/>
</svg>
