<?xml version="1.0" encoding="UTF-8"?>
<svg xmlns="http://www.w3.org/2000/svg" xmlns:xlink="http://www.w3.org/1999/xlink" width="24" height="25.6" viewBox="0 0 24 25.6" version="1.1">
<g id="surface1">
<path style=" stroke:none;fill-rule:nonzero;fill:rgb(100%,100%,100%);fill-opacity:1;" d="M 9.851562 14.273438 C 10.160156 14.535156 10.457031 14.664062 10.75 14.664062 C 11.050781 14.664062 11.351562 14.535156 11.648438 14.273438 L 16.8125 9.773438 C 16.996094 9.609375 17.085938 9.398438 17.085938 9.148438 C 17.097656 8.890625 17.007812 8.667969 16.824219 8.476562 C 16.648438 8.292969 16.4375 8.199219 16.1875 8.199219 C 15.9375 8.199219 15.707031 8.292969 15.5 8.476562 L 10.738281 12.601562 L 7.835938 10.136719 C 7.644531 9.972656 7.421875 9.902344 7.164062 9.9375 C 6.914062 9.960938 6.703125 10.066406 6.539062 10.25 C 6.371094 10.449219 6.300781 10.679688 6.324219 10.9375 C 6.351562 11.195312 6.460938 11.410156 6.664062 11.574219 Z M 6.4375 25.335938 L 15.960938 25.335938 C 17.128906 25.335938 18.128906 25.109375 18.960938 24.648438 C 19.804688 24.191406 20.449219 23.539062 20.898438 22.6875 C 21.351562 21.835938 21.574219 20.816406 21.574219 19.625 L 21.574219 7.164062 C 21.574219 5.972656 21.351562 4.949219 20.898438 4.101562 C 20.449219 3.25 19.804688 2.601562 18.960938 2.148438 C 18.128906 1.691406 17.128906 1.460938 15.960938 1.460938 L 6.4375 1.460938 C 5.269531 1.460938 4.265625 1.691406 3.425781 2.148438 C 2.589844 2.601562 1.949219 3.25 1.5 4.101562 C 1.050781 4.949219 0.824219 5.972656 0.824219 7.164062 L 0.824219 19.625 C 0.824219 20.816406 1.050781 21.835938 1.5 22.6875 C 1.949219 23.539062 2.589844 24.191406 3.425781 24.648438 C 4.265625 25.109375 5.269531 25.335938 6.4375 25.335938 Z M 6.351562 23.324219 C 5.25 23.324219 4.386719 23.007812 3.761719 22.375 C 3.144531 21.734375 2.835938 20.847656 2.835938 19.710938 L 2.835938 7.136719 C 2.835938 6.003906 3.144531 5.121094 3.761719 4.488281 C 4.386719 3.855469 5.25 3.539062 6.351562 3.539062 L 16.050781 3.539062 C 17.148438 3.539062 18.007812 3.855469 18.625 4.488281 C 19.25 5.121094 19.5625 6.003906 19.5625 7.136719 L 19.5625 19.710938 C 19.5625 20.847656 19.25 21.734375 18.625 22.375 C 18.007812 23.007812 17.148438 23.324219 16.050781 23.324219 Z M 21.351562 12.085938 L 21.914062 12.085938 C 22.3125 12.085938 22.628906 11.960938 22.863281 11.710938 C 23.105469 11.453125 23.226562 11.109375 23.226562 10.675781 L 23.226562 8.585938 C 23.226562 8.144531 23.105469 7.796875 22.863281 7.539062 C 22.628906 7.277344 22.3125 7.148438 21.914062 7.148438 L 21.351562 7.148438 Z M 21.351562 12.085938 "/>
</g>
</svg>
