<?xml version="1.0" encoding="UTF-8"?>
<svg xmlns="http://www.w3.org/2000/svg" xmlns:xlink="http://www.w3.org/1999/xlink" width="24" height="17.333333" viewBox="0 0 24 17.333333" version="1.1">
<g id="surface1">
<path style=" stroke:none;fill-rule:nonzero;fill:rgb(100%,100%,100%);fill-opacity:1;" d="M 12 3.957031 C 12.570312 3.957031 13.050781 3.890625 13.449219 3.75 C 13.851562 3.605469 14.199219 3.425781 14.488281 3.21875 C 14.789062 3.003906 15.058594 2.792969 15.300781 2.582031 C 15.550781 2.375 15.804688 2.203125 16.0625 2.0625 C 16.320312 1.917969 16.613281 1.84375 16.949219 1.84375 C 17.28125 1.84375 17.574219 1.917969 17.824219 2.0625 C 18.078125 2.203125 18.328125 2.375 18.574219 2.582031 C 18.816406 2.792969 19.089844 3.003906 19.394531 3.21875 C 19.707031 3.425781 20.082031 3.605469 20.519531 3.75 C 20.957031 3.890625 21.503906 3.957031 22.15625 3.957031 L 22.207031 3.957031 C 22.410156 3.957031 22.582031 3.890625 22.730469 3.75 C 22.875 3.605469 22.949219 3.425781 22.949219 3.21875 C 22.949219 3.015625 22.875 2.847656 22.730469 2.707031 C 22.582031 2.5625 22.410156 2.488281 22.207031 2.488281 L 22.15625 2.488281 C 21.59375 2.488281 21.128906 2.390625 20.761719 2.1875 C 20.390625 1.984375 20.015625 1.746094 19.625 1.46875 C 19.285156 1.21875 18.894531 0.976562 18.457031 0.738281 C 18.027344 0.496094 17.523438 0.375 16.949219 0.375 C 16.351562 0.375 15.828125 0.503906 15.386719 0.761719 C 14.949219 1.011719 14.558594 1.265625 14.21875 1.519531 C 13.859375 1.792969 13.515625 2.019531 13.1875 2.207031 C 12.859375 2.394531 12.464844 2.488281 12 2.488281 C 11.535156 2.488281 11.136719 2.394531 10.800781 2.207031 C 10.476562 2.019531 10.136719 1.792969 9.78125 1.519531 C 9.441406 1.265625 9.046875 1.011719 8.605469 0.761719 C 8.167969 0.503906 7.648438 0.375 7.050781 0.375 C 6.476562 0.375 5.96875 0.496094 5.53125 0.738281 C 5.101562 0.976562 4.714844 1.21875 4.375 1.46875 C 3.980469 1.746094 3.597656 1.984375 3.230469 2.1875 C 2.859375 2.390625 2.398438 2.488281 1.84375 2.488281 L 1.792969 2.488281 C 1.582031 2.488281 1.40625 2.5625 1.261719 2.707031 C 1.121094 2.847656 1.050781 3.015625 1.050781 3.21875 C 1.050781 3.425781 1.121094 3.605469 1.261719 3.75 C 1.40625 3.890625 1.582031 3.957031 1.792969 3.957031 L 1.84375 3.957031 C 2.488281 3.957031 3.03125 3.890625 3.46875 3.75 C 3.914062 3.605469 4.289062 3.425781 4.59375 3.21875 C 4.898438 3.003906 5.171875 2.792969 5.417969 2.582031 C 5.660156 2.375 5.90625 2.203125 6.15625 2.0625 C 6.414062 1.917969 6.710938 1.84375 7.050781 1.84375 C 7.386719 1.84375 7.679688 1.917969 7.9375 2.0625 C 8.195312 2.203125 8.445312 2.375 8.6875 2.582031 C 8.9375 2.792969 9.207031 3.003906 9.5 3.21875 C 9.796875 3.425781 10.144531 3.605469 10.542969 3.75 C 10.945312 3.890625 11.429688 3.957031 12 3.957031 Z M 12 10.25 C 12.570312 10.25 13.050781 10.179688 13.449219 10.042969 C 13.851562 9.894531 14.199219 9.71875 14.488281 9.511719 C 14.789062 9.300781 15.058594 9.09375 15.300781 8.886719 C 15.550781 8.671875 15.804688 8.492188 16.0625 8.355469 C 16.320312 8.207031 16.613281 8.136719 16.949219 8.136719 C 17.28125 8.136719 17.574219 8.207031 17.824219 8.355469 C 18.078125 8.492188 18.328125 8.671875 18.574219 8.886719 C 18.816406 9.09375 19.089844 9.300781 19.394531 9.511719 C 19.707031 9.71875 20.082031 9.894531 20.519531 10.042969 C 20.957031 10.179688 21.503906 10.25 22.15625 10.25 L 22.207031 10.25 C 22.410156 10.25 22.582031 10.179688 22.730469 10.042969 C 22.875 9.894531 22.949219 9.722656 22.949219 9.519531 C 22.949219 9.3125 22.875 9.140625 22.730469 9 C 22.582031 8.855469 22.410156 8.78125 22.207031 8.78125 L 22.15625 8.78125 C 21.59375 8.78125 21.128906 8.679688 20.761719 8.480469 C 20.390625 8.277344 20.015625 8.039062 19.625 7.761719 C 19.285156 7.515625 18.894531 7.273438 18.457031 7.03125 C 18.027344 6.789062 17.523438 6.667969 16.949219 6.667969 C 16.351562 6.667969 15.828125 6.796875 15.386719 7.050781 C 14.949219 7.308594 14.558594 7.5625 14.21875 7.8125 C 13.859375 8.082031 13.515625 8.3125 13.1875 8.5 C 12.859375 8.6875 12.464844 8.78125 12 8.78125 C 11.535156 8.78125 11.136719 8.6875 10.800781 8.5 C 10.476562 8.3125 10.136719 8.082031 9.78125 7.8125 C 9.441406 7.5625 9.046875 7.308594 8.605469 7.050781 C 8.167969 6.796875 7.648438 6.667969 7.050781 6.667969 C 6.476562 6.667969 5.96875 6.789062 5.53125 7.03125 C 5.101562 7.273438 4.714844 7.515625 4.375 7.761719 C 3.980469 8.039062 3.597656 8.277344 3.230469 8.480469 C 2.859375 8.679688 2.398438 8.78125 1.84375 8.78125 L 1.792969 8.78125 C 1.582031 8.78125 1.40625 8.855469 1.261719 9 C 1.121094 9.140625 1.050781 9.3125 1.050781 9.519531 C 1.050781 9.722656 1.121094 9.894531 1.261719 10.042969 C 1.40625 10.179688 1.582031 10.25 1.792969 10.25 L 1.84375 10.25 C 2.488281 10.25 3.03125 10.179688 3.46875 10.042969 C 3.914062 9.894531 4.289062 9.71875 4.59375 9.511719 C 4.898438 9.300781 5.171875 9.09375 5.417969 8.886719 C 5.660156 8.671875 5.90625 8.492188 6.15625 8.355469 C 6.414062 8.207031 6.710938 8.136719 7.050781 8.136719 C 7.386719 8.136719 7.679688 8.207031 7.9375 8.355469 C 8.195312 8.492188 8.445312 8.671875 8.6875 8.886719 C 8.9375 9.09375 9.207031 9.300781 9.5 9.511719 C 9.796875 9.71875 10.144531 9.894531 10.542969 10.042969 C 10.945312 10.179688 11.429688 10.25 12 10.25 Z M 12 16.550781 C 12.570312 16.550781 13.050781 16.480469 13.449219 16.332031 C 13.851562 16.195312 14.199219 16.019531 14.488281 15.8125 C 14.789062 15.597656 15.058594 15.386719 15.300781 15.175781 C 15.550781 14.96875 15.804688 14.796875 16.0625 14.65625 C 16.320312 14.511719 16.613281 14.4375 16.949219 14.4375 C 17.28125 14.4375 17.574219 14.511719 17.824219 14.65625 C 18.078125 14.796875 18.328125 14.96875 18.574219 15.175781 C 18.816406 15.386719 19.089844 15.597656 19.394531 15.8125 C 19.707031 16.019531 20.082031 16.195312 20.519531 16.332031 C 20.957031 16.480469 21.503906 16.550781 22.15625 16.550781 L 22.207031 16.550781 C 22.410156 16.550781 22.582031 16.480469 22.730469 16.332031 C 22.875 16.1875 22.949219 16.015625 22.949219 15.8125 C 22.949219 15.609375 22.875 15.441406 22.730469 15.300781 C 22.582031 15.15625 22.410156 15.082031 22.207031 15.082031 L 22.15625 15.082031 C 21.59375 15.082031 21.128906 14.984375 20.761719 14.78125 C 20.390625 14.578125 20.015625 14.339844 19.625 14.0625 C 19.285156 13.8125 18.894531 13.570312 18.457031 13.332031 C 18.027344 13.089844 17.523438 12.96875 16.949219 12.96875 C 16.351562 12.96875 15.828125 13.097656 15.386719 13.355469 C 14.949219 13.605469 14.558594 13.855469 14.21875 14.105469 C 13.859375 14.382812 13.515625 14.613281 13.1875 14.800781 C 12.859375 14.988281 12.464844 15.082031 12 15.082031 C 11.535156 15.082031 11.136719 14.988281 10.800781 14.800781 C 10.476562 14.613281 10.136719 14.382812 9.78125 14.105469 C 9.441406 13.855469 9.046875 13.605469 8.605469 13.355469 C 8.167969 13.097656 7.648438 12.96875 7.050781 12.96875 C 6.476562 12.96875 5.96875 13.089844 5.53125 13.332031 C 5.101562 13.570312 4.714844 13.8125 4.375 14.0625 C 3.980469 14.339844 3.597656 14.578125 3.230469 14.78125 C 2.859375 14.984375 2.398438 15.082031 1.84375 15.082031 L 1.792969 15.082031 C 1.582031 15.082031 1.40625 15.15625 1.261719 15.300781 C 1.121094 15.441406 1.050781 15.609375 1.050781 15.8125 C 1.050781 16.015625 1.121094 16.1875 1.261719 16.332031 C 1.40625 16.480469 1.582031 16.550781 1.792969 16.550781 L 1.84375 16.550781 C 2.488281 16.550781 3.03125 16.480469 3.46875 16.332031 C 3.914062 16.195312 4.289062 16.019531 4.59375 15.8125 C 4.898438 15.597656 5.171875 15.386719 5.417969 15.175781 C 5.660156 14.96875 5.90625 14.796875 6.15625 14.65625 C 6.414062 14.511719 6.710938 14.4375 7.050781 14.4375 C 7.386719 14.4375 7.679688 14.511719 7.9375 14.65625 C 8.195312 14.796875 8.445312 14.96875 8.6875 15.175781 C 8.9375 15.386719 9.207031 15.597656 9.5 15.8125 C 9.796875 16.019531 10.144531 16.195312 10.542969 16.332031 C 10.945312 16.480469 11.429688 16.550781 12 16.550781 Z M 12 16.550781 "/>
</g>
</svg>
