<?xml version="1.0" encoding="UTF-8"?>
<svg xmlns="http://www.w3.org/2000/svg" xmlns:xlink="http://www.w3.org/1999/xlink" width="24" height="25.5" viewBox="0 0 24 25.5" version="1.1">
<g id="surface1">
<path style=" stroke:none;fill-rule:nonzero;fill:rgb(100%,100%,100%);fill-opacity:1;" d="M 1.101562 14.8125 L 6.292969 14.8125 C 6.824219 14.8125 7.144531 14.578125 7.253906 14.109375 L 9.515625 3.703125 L 8.625 3.703125 L 12.09375 24.539062 C 12.125 24.75 12.214844 24.90625 12.363281 25.007812 C 12.519531 25.109375 12.691406 25.160156 12.878906 25.160156 C 13.074219 25.160156 13.25 25.109375 13.40625 25.007812 C 13.5625 24.90625 13.660156 24.75 13.699219 24.539062 L 17.0625 8.753906 L 16.324219 8.742188 L 17.378906 14.015625 C 17.480469 14.546875 17.800781 14.8125 18.339844 14.8125 L 22.886719 14.8125 C 23.121094 14.8125 23.320312 14.734375 23.484375 14.578125 C 23.648438 14.414062 23.730469 14.21875 23.730469 13.992188 C 23.730469 13.757812 23.648438 13.5625 23.484375 13.40625 C 23.328125 13.242188 23.128906 13.160156 22.886719 13.160156 L 17.355469 13.160156 L 19.042969 14.53125 L 17.390625 7.195312 C 17.34375 6.992188 17.246094 6.84375 17.097656 6.75 C 16.949219 6.648438 16.785156 6.597656 16.605469 6.597656 C 16.425781 6.597656 16.257812 6.652344 16.101562 6.761719 C 15.953125 6.863281 15.855469 7.019531 15.808594 7.230469 L 12.386719 22.523438 L 13.21875 22.523438 L 9.785156 1.699219 C 9.753906 1.496094 9.667969 1.34375 9.527344 1.242188 C 9.386719 1.132812 9.226562 1.078125 9.046875 1.078125 C 8.875 1.070312 8.714844 1.121094 8.566406 1.230469 C 8.417969 1.332031 8.320312 1.488281 8.273438 1.699219 L 5.496094 14.53125 L 7.183594 13.160156 L 1.101562 13.160156 C 0.859375 13.160156 0.65625 13.242188 0.492188 13.40625 C 0.335938 13.570312 0.257812 13.765625 0.257812 13.992188 C 0.257812 14.21875 0.335938 14.414062 0.492188 14.578125 C 0.65625 14.734375 0.859375 14.8125 1.101562 14.8125 Z M 1.101562 14.8125 "/>
</g>
</svg>
