<svg width="128" height="128" viewBox="0 0 128 128" fill="none" xmlns="http://www.w3.org/2000/svg">
<path d="M63.9375 127.688C72.6458 127.688 80.8333 126.021 88.5 122.688C96.2083 119.354 103 114.75 108.875 108.875C114.75 103 119.354 96.2292 122.688 88.5625C126.021 80.8542 127.688 72.6458 127.688 63.9375C127.688 55.2292 126.021 47.0417 122.688 39.375C119.354 31.6667 114.75 24.875 108.875 19C103 13.125 96.2083 8.52083 88.5 5.1875C80.7917 1.85417 72.5833 0.1875 63.875 0.1875C55.1667 0.1875 46.9583 1.85417 39.25 5.1875C31.5833 8.52083 24.8125 13.125 18.9375 19C13.1042 24.875 8.52083 31.6667 5.1875 39.375C1.85417 47.0417 0.1875 55.2292 0.1875 63.9375C0.1875 72.6458 1.85417 80.8542 5.1875 88.5625C8.52083 96.2292 13.125 103 19 108.875C24.875 114.75 31.6458 119.354 39.3125 122.688C47.0208 126.021 55.2292 127.688 63.9375 127.688ZM50.6875 63.9375C50.6875 67.3125 50.2083 70.5833 49.25 73.75C48.2917 76.9167 46.9583 79.625 45.25 81.875C44.5833 82.875 43.6458 83.5 42.4375 83.75C41.2292 84 40.125 83.7708 39.125 83.0625C38.0417 82.2708 37.3958 81.2708 37.1875 80.0625C37.0208 78.8125 37.3542 77.6042 38.1875 76.4375C40.6458 73.0625 41.875 68.8958 41.875 63.9375C41.875 58.8125 40.6458 54.625 38.1875 51.375C37.3125 50.25 36.9583 49.0625 37.125 47.8125C37.3333 46.5208 38 45.5 39.125 44.75C40.125 44.0833 41.2083 43.875 42.375 44.125C43.5833 44.3333 44.5417 44.9375 45.25 45.9375C48.875 50.9792 50.6875 56.9792 50.6875 63.9375ZM70.875 63.9375C70.875 69.3125 70.1042 74.5208 68.5625 79.5625C67.0208 84.6042 64.8125 89.125 61.9375 93.125C61.1458 94.1667 60.1667 94.8125 59 95.0625C57.875 95.2708 56.7917 95 55.75 94.25C54.7917 93.5833 54.2083 92.6458 54 91.4375C53.7917 90.1875 54.0833 89.0208 54.875 87.9375C57.125 84.7292 58.875 81.0417 60.125 76.875C61.4167 72.7083 62.0625 68.3958 62.0625 63.9375C62.0625 59.4375 61.4167 55.1042 60.125 50.9375C58.875 46.7708 57.125 43.1042 54.875 39.9375C54.0833 38.8125 53.7917 37.6458 54 36.4375C54.2083 35.2292 54.7917 34.2708 55.75 33.5625C56.7917 32.8542 57.875 32.625 59 32.875C60.1667 33.0833 61.1458 33.7083 61.9375 34.75C64.8125 38.6667 67.0208 43.1458 68.5625 48.1875C70.1042 53.2292 70.875 58.4792 70.875 63.9375ZM91 63.9375C91 71.3125 89.9375 78.4792 87.8125 85.4375C85.7292 92.3958 82.7083 98.6875 78.75 104.312C77.9583 105.396 76.9583 106.062 75.75 106.312C74.5833 106.562 73.5 106.333 72.5 105.625C71.5 104.875 70.9167 103.917 70.75 102.75C70.5833 101.542 70.875 100.396 71.625 99.3125C75.0417 94.4375 77.6667 88.9375 79.5 82.8125C81.375 76.6875 82.3125 70.3958 82.3125 63.9375C82.3125 57.3958 81.3958 51.0833 79.5625 45C77.7292 38.9167 75.0833 33.4375 71.625 28.5625C70.875 27.4792 70.5833 26.3542 70.75 25.1875C70.9167 23.9792 71.5 23 72.5 22.25C73.5417 21.5 74.6458 21.25 75.8125 21.5C77.0208 21.75 78 22.4375 78.75 23.5625C82.7083 29.2292 85.7292 35.5417 87.8125 42.5C89.9375 49.4167 91 56.5625 91 63.9375Z" fill="white"/>
</svg>
