<svg width="16" height="17" viewBox="0 0 16 17" fill="none" xmlns="http://www.w3.org/2000/svg">
<path d="M8 16.3281C9.08854 16.3281 10.112 16.1198 11.0703 15.7031C12.0339 15.2865 12.8828 14.7109 13.6172 13.9766C14.3516 13.2422 14.9271 12.3958 15.3438 11.4375C15.7604 10.474 15.9688 9.44792 15.9688 8.35938C15.9688 7.27083 15.7604 6.2474 15.3438 5.28906C14.9271 4.32552 14.3516 3.47656 13.6172 2.74219C12.8828 2.00781 12.0339 1.43229 11.0703 1.01562C10.1068 0.598958 9.08073 0.390625 7.99219 0.390625C6.90365 0.390625 5.8776 0.598958 4.91406 1.01562C3.95573 1.43229 3.10938 2.00781 2.375 2.74219C1.64583 3.47656 1.07292 4.32552 0.65625 5.28906C0.239583 6.2474 0.03125 7.27083 0.03125 8.35938C0.03125 9.44792 0.239583 10.474 0.65625 11.4375C1.07292 12.3958 1.64844 13.2422 2.38281 13.9766C3.11719 14.7109 3.96354 15.2865 4.92188 15.7031C5.88542 16.1198 6.91146 16.3281 8 16.3281ZM8 15C7.07812 15 6.21615 14.8281 5.41406 14.4844C4.61198 14.1406 3.90625 13.6667 3.29688 13.0625C2.69271 12.4531 2.21875 11.7474 1.875 10.9453C1.53646 10.1432 1.36719 9.28125 1.36719 8.35938C1.36719 7.4375 1.53646 6.57552 1.875 5.77344C2.21875 4.97135 2.69271 4.26562 3.29688 3.65625C3.90104 3.04688 4.60417 2.57292 5.40625 2.23438C6.20833 1.89062 7.07031 1.71875 7.99219 1.71875C8.91406 1.71875 9.77604 1.89062 10.5781 2.23438C11.3854 2.57292 12.0911 3.04688 12.6953 3.65625C13.3047 4.26562 13.7812 4.97135 14.125 5.77344C14.4688 6.57552 14.6406 7.4375 14.6406 8.35938C14.6406 9.28125 14.4688 10.1432 14.125 10.9453C13.7865 11.7474 13.3125 12.4531 12.7031 13.0625C12.0938 13.6667 11.388 14.1406 10.5859 14.4844C9.78385 14.8281 8.92188 15 8 15ZM4.74219 8.35156C4.74219 9.2474 4.86979 10.1172 5.125 10.9609C5.38021 11.8047 5.7474 12.5677 6.22656 13.25C6.32031 13.3802 6.4375 13.4609 6.57812 13.4922C6.72396 13.5182 6.85677 13.4896 6.97656 13.4062C7.10156 13.3125 7.17448 13.1953 7.19531 13.0547C7.21615 12.9089 7.17969 12.7708 7.08594 12.6406C6.67448 12.0521 6.35417 11.388 6.125 10.6484C5.90104 9.90365 5.78906 9.13802 5.78906 8.35156C5.78906 7.5599 5.90104 6.79427 6.125 6.05469C6.34896 5.3151 6.66927 4.65104 7.08594 4.0625C7.17969 3.93229 7.21615 3.79427 7.19531 3.64844C7.17448 3.5026 7.10156 3.38542 6.97656 3.29688C6.85677 3.20833 6.72396 3.17969 6.57812 3.21094C6.4375 3.23698 6.32031 3.3151 6.22656 3.44531C5.7474 4.13802 5.38021 4.90625 5.125 5.75C4.86979 6.59375 4.74219 7.46094 4.74219 8.35156ZM7.1875 8.35156C7.1875 9.0026 7.27865 9.63542 7.46094 10.25C7.64844 10.8594 7.91667 11.4062 8.26562 11.8906C8.35938 12.0156 8.47656 12.0911 8.61719 12.1172C8.75781 12.1432 8.88802 12.112 9.00781 12.0234C9.1276 11.9453 9.19792 11.8333 9.21875 11.6875C9.24479 11.5417 9.21094 11.401 9.11719 11.2656C8.53906 10.4583 8.25 9.48698 8.25 8.35156C8.25 7.21615 8.53906 6.24479 9.11719 5.4375C9.21094 5.30208 9.24479 5.16146 9.21875 5.01562C9.19792 4.86979 9.1276 4.75521 9.00781 4.67188C8.88802 4.58333 8.75781 4.55469 8.61719 4.58594C8.47656 4.61198 8.35938 4.6875 8.26562 4.8125C7.91667 5.28646 7.64844 5.83073 7.46094 6.44531C7.27865 7.05469 7.1875 7.6901 7.1875 8.35156ZM9.63281 8.35156C9.63281 8.76302 9.6901 9.16146 9.80469 9.54688C9.91927 9.92708 10.0807 10.2526 10.2891 10.5234C10.3724 10.6484 10.4844 10.7266 10.625 10.7578C10.7708 10.7839 10.9062 10.7552 11.0312 10.6719C11.1615 10.5781 11.237 10.4557 11.2578 10.3047C11.2786 10.1536 11.2396 10.0078 11.1406 9.86719C10.8438 9.46615 10.6953 8.96094 10.6953 8.35156C10.6953 7.72656 10.8438 7.21875 11.1406 6.82812C11.2448 6.6875 11.2865 6.54167 11.2656 6.39062C11.2448 6.23958 11.1667 6.11719 11.0312 6.02344C10.9062 5.94531 10.7734 5.92188 10.6328 5.95312C10.4922 5.97917 10.3776 6.05208 10.2891 6.17188C9.85156 6.78125 9.63281 7.50781 9.63281 8.35156Z" fill="white"/>
</svg>
