<svg width="12" height="19" viewBox="0 0 12 19" fill="none" xmlns="http://www.w3.org/2000/svg">
<path d="M8.85938 9.36719C8.85938 10.1693 8.99219 10.9375 9.25781 11.6719C9.52344 12.401 9.90365 13.0573 10.3984 13.6406C10.5234 13.7917 10.6562 13.8854 10.7969 13.9219C10.9427 13.9531 11.0755 13.9453 11.1953 13.8984C11.3203 13.8464 11.4219 13.7682 11.5 13.6641C11.5833 13.5547 11.6276 13.4349 11.6328 13.3047C11.6432 13.1745 11.6016 13.0469 11.5078 12.9219C11.0339 12.3281 10.6953 11.7604 10.4922 11.2188C10.2943 10.6719 10.1953 10.0547 10.1953 9.36719C10.1953 8.67969 10.2943 8.0651 10.4922 7.52344C10.6953 6.97656 11.0339 6.40625 11.5078 5.8125C11.6016 5.6875 11.6458 5.5599 11.6406 5.42969C11.6354 5.29427 11.5911 5.17448 11.5078 5.07031C11.4297 4.96094 11.3281 4.88281 11.2031 4.83594C11.0781 4.78385 10.9453 4.77604 10.8047 4.8125C10.6641 4.84375 10.5286 4.9349 10.3984 5.08594C9.90365 5.66927 9.52344 6.32812 9.25781 7.0625C8.99219 7.79167 8.85938 8.5599 8.85938 9.36719ZM4.61719 9.36719C4.61719 10.5911 4.80208 11.7682 5.17188 12.8984C5.54688 14.0234 6.08333 15.0521 6.78125 15.9844C6.90104 16.1562 7.03385 16.2656 7.17969 16.3125C7.33073 16.3594 7.47396 16.3594 7.60938 16.3125C7.74479 16.2708 7.85417 16.1953 7.9375 16.0859C8.02604 15.9766 8.07031 15.849 8.07031 15.7031C8.07552 15.5573 8.01823 15.4089 7.89844 15.2578C7.26302 14.4193 6.77865 13.5 6.44531 12.5C6.11719 11.5 5.95312 10.4557 5.95312 9.36719C5.95312 8.27865 6.11719 7.23438 6.44531 6.23438C6.77865 5.22917 7.26302 4.3099 7.89844 3.47656C8.01823 3.32031 8.07552 3.16927 8.07031 3.02344C8.07031 2.8776 8.02604 2.7526 7.9375 2.64844C7.85417 2.53906 7.74479 2.46354 7.60938 2.42188C7.47396 2.375 7.33073 2.375 7.17969 2.42188C7.03385 2.46875 6.90104 2.57552 6.78125 2.74219C6.08333 3.67969 5.54688 4.71094 5.17188 5.83594C4.80208 6.96094 4.61719 8.13802 4.61719 9.36719ZM0.359375 9.36719C0.359375 11.0182 0.606771 12.6016 1.10156 14.1172C1.60156 15.6276 2.30729 17.0208 3.21875 18.2969C3.33854 18.4583 3.47135 18.5625 3.61719 18.6094C3.76302 18.6615 3.90104 18.6667 4.03125 18.625C4.16667 18.5885 4.27604 18.5156 4.35938 18.4062C4.44792 18.3021 4.49479 18.1771 4.5 18.0312C4.50521 17.8854 4.44792 17.7318 4.32812 17.5703C3.47396 16.3932 2.82292 15.1094 2.375 13.7188C1.92708 12.3281 1.70312 10.8776 1.70312 9.36719C1.70312 7.85156 1.92708 6.39844 2.375 5.00781C2.82292 3.61719 3.47396 2.33333 4.32812 1.15625C4.44792 0.994792 4.50521 0.841146 4.5 0.695312C4.5 0.549479 4.45573 0.427083 4.36719 0.328125C4.27865 0.223958 4.16667 0.153646 4.03125 0.117188C3.89583 0.0755208 3.75521 0.078125 3.60938 0.125C3.46354 0.171875 3.33333 0.276042 3.21875 0.4375C2.30208 1.71354 1.59635 3.10938 1.10156 4.625C0.606771 6.13542 0.359375 7.71615 0.359375 9.36719Z" fill="white"/>
</svg>
