<svg width="91" height="150" viewBox="0 0 91 150" fill="none" xmlns="http://www.w3.org/2000/svg">
<path d="M68.1875 74.9375C68.1875 81.3542 69.25 87.5 71.375 93.375C73.5 99.2083 76.5417 104.458 80.5 109.125C81.5 110.333 82.5625 111.083 83.6875 111.375C84.8542 111.625 85.9167 111.562 86.875 111.188C87.875 110.771 88.6875 110.146 89.3125 109.312C89.9792 108.438 90.3333 107.479 90.375 106.438C90.4583 105.396 90.125 104.375 89.375 103.375C85.5833 98.625 82.875 94.0833 81.25 89.75C79.6667 85.375 78.875 80.4375 78.875 74.9375C78.875 69.4375 79.6667 64.5208 81.25 60.1875C82.875 55.8125 85.5833 51.25 89.375 46.5C90.125 45.5 90.4792 44.4792 90.4375 43.4375C90.3958 42.3542 90.0417 41.3958 89.375 40.5625C88.75 39.6875 87.9375 39.0625 86.9375 38.6875C85.9375 38.2708 84.875 38.2083 83.75 38.5C82.625 38.75 81.5417 39.4792 80.5 40.6875C76.5417 45.3542 73.5 50.625 71.375 56.5C69.25 62.3333 68.1875 68.4792 68.1875 74.9375ZM34.25 74.9375C34.25 84.7292 35.7292 94.1458 38.6875 103.188C41.6875 112.188 45.9792 120.417 51.5625 127.875C52.5208 129.25 53.5833 130.125 54.75 130.5C55.9583 130.875 57.1042 130.875 58.1875 130.5C59.2708 130.167 60.1458 129.562 60.8125 128.688C61.5208 127.812 61.875 126.792 61.875 125.625C61.9167 124.458 61.4583 123.271 60.5 122.062C55.4167 115.354 51.5417 108 48.875 100C46.25 92 44.9375 83.6458 44.9375 74.9375C44.9375 66.2292 46.25 57.875 48.875 49.875C51.5417 41.8333 55.4167 34.4792 60.5 27.8125C61.4583 26.5625 61.9167 25.3542 61.875 24.1875C61.875 23.0208 61.5208 22.0208 60.8125 21.1875C60.1458 20.3125 59.2708 19.7083 58.1875 19.375C57.1042 19 55.9583 19 54.75 19.375C53.5833 19.75 52.5208 20.6042 51.5625 21.9375C45.9792 29.4375 41.6875 37.6875 38.6875 46.6875C35.7292 55.6875 34.25 65.1042 34.25 74.9375ZM0.1875 74.9375C0.1875 88.1458 2.16667 100.812 6.125 112.938C10.125 125.021 15.7708 136.167 23.0625 146.375C24.0208 147.667 25.0833 148.5 26.25 148.875C27.4167 149.292 28.5208 149.333 29.5625 149C30.6458 148.708 31.5208 148.125 32.1875 147.25C32.8958 146.417 33.2708 145.417 33.3125 144.25C33.3542 143.083 32.8958 141.854 31.9375 140.562C25.1042 131.146 19.8958 120.875 16.3125 109.75C12.7292 98.625 10.9375 87.0208 10.9375 74.9375C10.9375 62.8125 12.7292 51.1875 16.3125 40.0625C19.8958 28.9375 25.1042 18.6667 31.9375 9.25C32.8958 7.95833 33.3542 6.72917 33.3125 5.5625C33.3125 4.39583 32.9583 3.41667 32.25 2.625C31.5417 1.79167 30.6458 1.22917 29.5625 0.9375C28.4792 0.604167 27.3542 0.625 26.1875 1C25.0208 1.375 23.9792 2.20833 23.0625 3.5C15.7292 13.7083 10.0833 24.875 6.125 37C2.16667 49.0833 0.1875 61.7292 0.1875 74.9375Z" fill="white"/>
</svg>
