<svg width="117" height="132" viewBox="0 0 117 132" fill="none" xmlns="http://www.w3.org/2000/svg">
<path d="M5.875 80.4375C7.33333 80.4375 8.54167 79.9375 9.5 78.9375C10.5 77.9375 11 76.75 11 75.375V56.4375C11 55.0625 10.5 53.875 9.5 52.875C8.54167 51.8333 7.33333 51.3125 5.875 51.3125C4.5 51.3125 3.33333 51.8333 2.375 52.875C1.41667 53.875 0.9375 55.0625 0.9375 56.4375V75.375C0.9375 76.75 1.41667 77.9375 2.375 78.9375C3.33333 79.9375 4.5 80.4375 5.875 80.4375ZM26.9375 106C28.3958 106 29.6042 105.521 30.5625 104.562C31.5208 103.562 32 102.354 32 100.938V30.875C32 29.4583 31.5208 28.25 30.5625 27.25C29.6042 26.25 28.3958 25.75 26.9375 25.75C25.5208 25.75 24.3333 26.25 23.375 27.25C22.4167 28.25 21.9375 29.4583 21.9375 30.875V100.938C21.9375 102.354 22.4167 103.562 23.375 104.562C24.3333 105.521 25.5208 106 26.9375 106ZM47.9375 131.188C49.3958 131.188 50.6042 130.688 51.5625 129.688C52.5625 128.729 53.0625 127.542 53.0625 126.125V5.6875C53.0625 4.27083 52.5625 3.08333 51.5625 2.125C50.6042 1.125 49.3958 0.625 47.9375 0.625C46.5208 0.625 45.3333 1.125 44.375 2.125C43.4583 3.08333 43 4.27083 43 5.6875V126.125C43 127.542 43.4583 128.729 44.375 129.688C45.3333 130.688 46.5208 131.188 47.9375 131.188ZM69 98.375C70.4167 98.375 71.6042 97.8958 72.5625 96.9375C73.5625 95.9792 74.0625 94.7917 74.0625 93.375V38.4375C74.0625 37.0208 73.5625 35.8333 72.5625 34.875C71.6042 33.875 70.4167 33.375 69 33.375C67.5833 33.375 66.3958 33.875 65.4375 34.875C64.4792 35.8333 64 37.0208 64 38.4375V93.375C64 94.7917 64.4792 95.9792 65.4375 96.9375C66.3958 97.8958 67.5833 98.375 69 98.375ZM90.0625 117.312C91.4792 117.312 92.6667 116.812 93.625 115.812C94.5833 114.854 95.0625 113.688 95.0625 112.312V19.5C95.0625 18.125 94.5833 16.9375 93.625 15.9375C92.6667 14.9375 91.4792 14.4375 90.0625 14.4375C88.6042 14.4375 87.3958 14.9375 86.4375 15.9375C85.4792 16.9375 85 18.125 85 19.5V112.312C85 113.688 85.4792 114.854 86.4375 115.812C87.3958 116.812 88.6042 117.312 90.0625 117.312ZM111.062 85.8125C112.479 85.8125 113.667 85.3333 114.625 84.375C115.625 83.375 116.125 82.1875 116.125 80.8125V51C116.125 49.625 115.625 48.4375 114.625 47.4375C113.667 46.4375 112.479 45.9375 111.062 45.9375C109.604 45.9375 108.396 46.4375 107.438 47.4375C106.521 48.4375 106.062 49.625 106.062 51V80.8125C106.062 82.1875 106.521 83.375 107.438 84.375C108.396 85.3333 109.604 85.8125 111.062 85.8125Z" fill="white"/>
</svg>
