<svg width="149" height="132" viewBox="0 0 149 132" fill="none" xmlns="http://www.w3.org/2000/svg">
<path d="M5.875 80.4375C7.33333 80.4375 8.54167 79.9375 9.5 78.9375C10.5 77.9375 11 76.75 11 75.375V56.4375C11 55.0625 10.5 53.875 9.5 52.875C8.54167 51.8333 7.33333 51.3125 5.875 51.3125C4.5 51.3125 3.33333 51.8333 2.375 52.875C1.41667 53.875 0.9375 55.0625 0.9375 56.4375V75.375C0.9375 76.75 1.41667 77.9375 2.375 78.9375C3.33333 79.9375 4.5 80.4375 5.875 80.4375ZM26.9375 106C28.3958 106 29.6042 105.521 30.5625 104.562C31.5208 103.562 32 102.354 32 100.938V30.875C32 29.4583 31.5208 28.25 30.5625 27.25C29.6042 26.25 28.3958 25.75 26.9375 25.75C25.5208 25.75 24.3333 26.25 23.375 27.25C22.4167 28.25 21.9375 29.4583 21.9375 30.875V100.938C21.9375 102.354 22.4167 103.562 23.375 104.562C24.3333 105.521 25.5208 106 26.9375 106ZM47.9375 131.188C49.3958 131.188 50.6042 130.688 51.5625 129.688C52.5625 128.729 53.0625 127.542 53.0625 126.125V5.6875C53.0625 4.27083 52.5625 3.08333 51.5625 2.125C50.6042 1.125 49.3958 0.625 47.9375 0.625C46.5208 0.625 45.3333 1.125 44.375 2.125C43.4583 3.08333 43 4.27083 43 5.6875V126.125C43 127.542 43.4583 128.729 44.375 129.688C45.3333 130.688 46.5208 131.188 47.9375 131.188ZM69 98.375C70.4167 98.375 71.6042 97.8958 72.5625 96.9375C73.5625 95.9792 74.0625 94.7917 74.0625 93.375V38.4375C74.0625 37.0208 73.5625 35.8333 72.5625 34.875C71.6042 33.875 70.4167 33.375 69 33.375C67.5833 33.375 66.3958 33.875 65.4375 34.875C64.4792 35.8333 64 37.0208 64 38.4375V93.375C64 94.7917 64.4792 95.9792 65.4375 96.9375C66.3958 97.8958 67.5833 98.375 69 98.375ZM85 70.625C86.4167 68.9583 87.9583 67.4583 89.625 66.125C91.3333 64.7917 93.1458 63.6458 95.0625 62.6875V19.5C95.0625 18.125 94.5833 16.9375 93.625 15.9375C92.6667 14.9375 91.4792 14.4375 90.0625 14.4375C88.6042 14.4375 87.3958 14.9375 86.4375 15.9375C85.4792 16.9375 85 18.125 85 19.5V70.625ZM106.062 59.375C107.771 59.1667 109.438 59.0833 111.062 59.125C112.729 59.1667 114.417 59.3333 116.125 59.625V51C116.125 49.625 115.625 48.4375 114.625 47.4375C113.667 46.4375 112.479 45.9375 111.062 45.9375C109.604 45.9375 108.396 46.4375 107.438 47.4375C106.521 48.4375 106.062 49.625 106.062 51V59.375ZM110.062 117.562C114.729 117.562 118.958 116.417 122.75 114.125C126.583 111.875 129.625 108.854 131.875 105.062C134.167 101.229 135.312 96.9792 135.312 92.3125C135.312 87.6875 134.167 83.4792 131.875 79.6875C129.625 75.8542 126.583 72.8125 122.75 70.5625C118.958 68.2708 114.729 67.125 110.062 67.125C105.479 67.125 101.271 68.2708 97.4375 70.5625C93.6042 72.8125 90.5417 75.8542 88.25 79.6875C86 83.5208 84.875 87.7292 84.875 92.3125C84.875 96.9375 86 101.167 88.25 105C90.5417 108.833 93.6042 111.875 97.4375 114.125C101.271 116.417 105.479 117.562 110.062 117.562ZM110.062 109.188C107.021 109.188 104.229 108.438 101.688 106.938C99.1458 105.396 97.1042 103.354 95.5625 100.812C94.0208 98.2292 93.25 95.3958 93.25 92.3125C93.25 89.2708 94.0208 86.4792 95.5625 83.9375C97.1042 81.3958 99.1458 79.375 101.688 77.875C104.229 76.3333 107.021 75.5625 110.062 75.5625C113.146 75.5625 115.958 76.3333 118.5 77.875C121.083 79.375 123.125 81.3958 124.625 83.9375C126.125 86.4375 126.875 89.2292 126.875 92.3125C126.875 95.3958 126.125 98.2292 124.625 100.812C123.125 103.354 121.083 105.396 118.5 106.938C115.958 108.438 113.146 109.188 110.062 109.188ZM143.062 130.812C144.521 130.812 145.729 130.312 146.688 129.312C147.646 128.354 148.125 127.104 148.125 125.562C148.125 124.854 147.958 124.188 147.625 123.562C147.292 122.938 146.875 122.354 146.375 121.812L127.438 102.75L119.562 109.875L138.75 128.938C140.042 130.188 141.479 130.812 143.062 130.812Z" fill="white"/>
</svg>
