<svg xmlns="http://www.w3.org/2000/svg" width="24" height="24"><path style="stroke:none;fill-rule:nonzero;fill:#fff;fill-opacity:1" d="M12 23.05c1.633 0 3.168-.292 4.605-.882a12.22 12.22 0 0 0 3.82-2.438 11.467 11.467 0 0 0 2.59-3.582c.626-1.363.938-2.808.938-4.347a10.2 10.2 0 0 0-.937-4.332 11.53 11.53 0 0 0-2.59-3.598 12.361 12.361 0 0 0-3.82-2.437A12.166 12.166 0 0 0 11.987.55c-1.633 0-3.172.293-4.617.883A12.307 12.307 0 0 0 3.562 3.87 11.523 11.523 0 0 0 .985 7.465 10.2 10.2 0 0 0 .047 11.8c0 1.539.312 2.984.937 4.347a11.467 11.467 0 0 0 2.59 3.582 12.236 12.236 0 0 0 3.809 2.438c1.445.59 2.984.883 4.617.883Zm0-1.874a10.222 10.222 0 0 1-7.055-2.734 9.548 9.548 0 0 1-2.133-2.989 8.83 8.83 0 0 1-.761-3.652c0-1.301.254-2.52.761-3.649A9.52 9.52 0 0 1 4.946 5.16 9.82 9.82 0 0 1 8.11 3.156c1.204-.488 2.496-.73 3.88-.73 1.382 0 2.675.242 3.878.73a9.701 9.701 0 0 1 3.176 2.004 9.432 9.432 0 0 1 2.145 2.992 8.685 8.685 0 0 1 .773 3.649c0 1.3-.258 2.52-.773 3.652a9.22 9.22 0 0 1-2.133 2.988A10.222 10.222 0 0 1 12 21.176Zm-2.426-9.387c0-1.191-.328-2.215-.984-3.078a.856.856 0 0 0-.527-.305.771.771 0 0 0-.586.098.736.736 0 0 0-.352.516.813.813 0 0 0 .176.62c.453.551.68 1.27.68 2.15 0 .858-.227 1.573-.68 2.14a.808.808 0 0 0-.176.617c.031.215.16.402.352.52.168.113.378.16.585.12a.854.854 0 0 0 .528-.332c.305-.382.543-.84.715-1.378.18-.543.27-1.106.27-1.688Zm3.668 0c0-.934-.14-1.828-.422-2.691a7.486 7.486 0 0 0-1.207-2.305.802.802 0 0 0-.515-.32.756.756 0 0 0-.598.125.715.715 0 0 0-.328.484.766.766 0 0 0 .164.594c.875 1.14 1.312 2.511 1.312 4.113 0 1.606-.437 2.977-1.312 4.113a.775.775 0 0 0-.164.598c.039.207.148.363.328.473a.789.789 0 0 0 .598.132.787.787 0 0 0 .515-.32 7.672 7.672 0 0 0 1.207-2.316c.282-.867.422-1.77.422-2.68Zm3.656 0c0-1.258-.191-2.48-.574-3.672a11.094 11.094 0 0 0-1.64-3.254.838.838 0 0 0-.54-.332.772.772 0 0 0-.597.125.7.7 0 0 0-.328.496.78.78 0 0 0 .176.582 9.202 9.202 0 0 1 1.43 2.813 10.688 10.688 0 0 1 0 6.488 9.64 9.64 0 0 1-1.43 2.809.789.789 0 0 0-.176.586c.031.199.14.363.328.496.168.117.383.16.586.12a.92.92 0 0 0 .55-.339 10.76 10.76 0 0 0 1.641-3.234c.383-1.188.574-2.418.574-3.684Zm0 0"/></svg>