<svg width="16" height="17" viewBox="0 0 16 17" fill="none" xmlns="http://www.w3.org/2000/svg">
<path d="M8 16.3281C9.08854 16.3281 10.112 16.1198 11.0703 15.7031C12.0339 15.2865 12.8828 14.7109 13.6172 13.9766C14.3516 13.2422 14.9271 12.3958 15.3438 11.4375C15.7604 10.474 15.9688 9.44792 15.9688 8.35938C15.9688 7.27083 15.7604 6.2474 15.3438 5.28906C14.9271 4.32552 14.3516 3.47656 13.6172 2.74219C12.8828 2.00781 12.0339 1.43229 11.0703 1.01562C10.1068 0.598958 9.08073 0.390625 7.99219 0.390625C6.90365 0.390625 5.8776 0.598958 4.91406 1.01562C3.95573 1.43229 3.10938 2.00781 2.375 2.74219C1.64583 3.47656 1.07292 4.32552 0.65625 5.28906C0.239583 6.2474 0.03125 7.27083 0.03125 8.35938C0.03125 9.44792 0.239583 10.474 0.65625 11.4375C1.07292 12.3958 1.64844 13.2422 2.38281 13.9766C3.11719 14.7109 3.96354 15.2865 4.92188 15.7031C5.88542 16.1198 6.91146 16.3281 8 16.3281ZM8 15C7.07812 15 6.21615 14.8281 5.41406 14.4844C4.61198 14.1406 3.90625 13.6667 3.29688 13.0625C2.69271 12.4531 2.21875 11.7474 1.875 10.9453C1.53646 10.1432 1.36719 9.28125 1.36719 8.35938C1.36719 7.4375 1.53646 6.57552 1.875 5.77344C2.21875 4.97135 2.69271 4.26562 3.29688 3.65625C3.90104 3.04688 4.60417 2.57292 5.40625 2.23438C6.20833 1.89062 7.07031 1.71875 7.99219 1.71875C8.91406 1.71875 9.77604 1.89062 10.5781 2.23438C11.3854 2.57292 12.0911 3.04688 12.6953 3.65625C13.3047 4.26562 13.7812 4.97135 14.125 5.77344C14.4688 6.57552 14.6406 7.4375 14.6406 8.35938C14.6406 9.28125 14.4688 10.1432 14.125 10.9453C13.7865 11.7474 13.3125 12.4531 12.7031 13.0625C12.0938 13.6667 11.388 14.1406 10.5859 14.4844C9.78385 14.8281 8.92188 15 8 15ZM4.03125 9.5C4.16146 9.5 4.27083 9.45573 4.35938 9.36719C4.45312 9.27865 4.5 9.16927 4.5 9.03906V7.65625C4.5 7.52604 4.45312 7.41667 4.35938 7.32812C4.27083 7.23958 4.16146 7.19531 4.03125 7.19531C3.90104 7.19531 3.78906 7.23958 3.69531 7.32812C3.60677 7.41667 3.5625 7.52604 3.5625 7.65625V9.03906C3.5625 9.16927 3.60677 9.27865 3.69531 9.36719C3.78906 9.45573 3.90104 9.5 4.03125 9.5ZM5.61719 10.8359C5.7474 10.8359 5.85677 10.7917 5.94531 10.7031C6.03906 10.6094 6.08594 10.4974 6.08594 10.3672V6.32031C6.08594 6.1901 6.03906 6.08073 5.94531 5.99219C5.85677 5.90365 5.7474 5.85938 5.61719 5.85938C5.48698 5.85938 5.375 5.90365 5.28125 5.99219C5.19271 6.08073 5.14844 6.1901 5.14844 6.32031V10.3672C5.14844 10.4974 5.19271 10.6094 5.28125 10.7031C5.375 10.7917 5.48698 10.8359 5.61719 10.8359ZM7.20312 12.6797C7.33333 12.6797 7.44271 12.6354 7.53125 12.5469C7.625 12.4531 7.67188 12.3385 7.67188 12.2031V4.5C7.67188 4.36458 7.625 4.2526 7.53125 4.16406C7.44271 4.07031 7.33333 4.02344 7.20312 4.02344C7.06771 4.02344 6.95573 4.07031 6.86719 4.16406C6.77865 4.2526 6.73438 4.36458 6.73438 4.5V12.2031C6.73438 12.3385 6.77865 12.4531 6.86719 12.5469C6.95573 12.6354 7.06771 12.6797 7.20312 12.6797ZM8.78125 10.125C8.91667 10.125 9.02865 10.0807 9.11719 9.99219C9.21094 9.90365 9.25781 9.79427 9.25781 9.66406V7.03125C9.25781 6.90104 9.21094 6.79167 9.11719 6.70312C9.02865 6.61458 8.91667 6.57031 8.78125 6.57031C8.65104 6.57031 8.54167 6.61458 8.45312 6.70312C8.36458 6.79167 8.32031 6.90104 8.32031 7.03125V9.66406C8.32031 9.79427 8.36458 9.90365 8.45312 9.99219C8.54167 10.0807 8.65104 10.125 8.78125 10.125ZM10.3672 11.5781C10.4974 11.5781 10.6068 11.5339 10.6953 11.4453C10.7891 11.3568 10.8359 11.2474 10.8359 11.1172V5.57812C10.8359 5.44792 10.7891 5.33854 10.6953 5.25C10.6068 5.16146 10.4974 5.11719 10.3672 5.11719C10.237 5.11719 10.125 5.16146 10.0312 5.25C9.94271 5.33854 9.89844 5.44792 9.89844 5.57812V11.1172C9.89844 11.2474 9.94271 11.3568 10.0312 11.4453C10.125 11.5339 10.237 11.5781 10.3672 11.5781ZM11.9609 9.8125C12.0911 9.8125 12.2005 9.77083 12.2891 9.6875C12.3776 9.59896 12.4219 9.48698 12.4219 9.35156V7.34375C12.4219 7.20833 12.3776 7.09896 12.2891 7.01562C12.2005 6.92708 12.0911 6.88281 11.9609 6.88281C11.8255 6.88281 11.7109 6.92708 11.6172 7.01562C11.5286 7.10417 11.4844 7.21354 11.4844 7.34375V9.35156C11.4844 9.48177 11.5286 9.59115 11.6172 9.67969C11.7109 9.76823 11.8255 9.8125 11.9609 9.8125Z" fill="white"/>
</svg>
