<svg width="16" height="17" viewBox="0 0 16 17" fill="none" xmlns="http://www.w3.org/2000/svg">
<path d="M8 16.3281C9.08854 16.3281 10.112 16.1198 11.0703 15.7031C12.0339 15.2865 12.8828 14.7109 13.6172 13.9766C14.3516 13.2422 14.9271 12.3958 15.3438 11.4375C15.7604 10.474 15.9688 9.44792 15.9688 8.35938C15.9688 7.27083 15.7604 6.2474 15.3438 5.28906C14.9271 4.32552 14.3516 3.47656 13.6172 2.74219C12.8828 2.00781 12.0339 1.43229 11.0703 1.01562C10.1068 0.598958 9.08073 0.390625 7.99219 0.390625C6.90365 0.390625 5.8776 0.598958 4.91406 1.01562C3.95573 1.43229 3.10938 2.00781 2.375 2.74219C1.64583 3.47656 1.07292 4.32552 0.65625 5.28906C0.239583 6.2474 0.03125 7.27083 0.03125 8.35938C0.03125 9.44792 0.239583 10.474 0.65625 11.4375C1.07292 12.3958 1.64844 13.2422 2.38281 13.9766C3.11719 14.7109 3.96354 15.2865 4.92188 15.7031C5.88542 16.1198 6.91146 16.3281 8 16.3281ZM8 15C7.07812 15 6.21615 14.8281 5.41406 14.4844C4.61198 14.1406 3.90625 13.6667 3.29688 13.0625C2.69271 12.4531 2.21875 11.7474 1.875 10.9453C1.53646 10.1432 1.36719 9.28125 1.36719 8.35938C1.36719 7.4375 1.53646 6.57552 1.875 5.77344C2.21875 4.97135 2.69271 4.26562 3.29688 3.65625C3.90104 3.04688 4.60417 2.57292 5.40625 2.23438C6.20833 1.89062 7.07031 1.71875 7.99219 1.71875C8.91406 1.71875 9.77604 1.89062 10.5781 2.23438C11.3854 2.57292 12.0911 3.04688 12.6953 3.65625C13.3047 4.26562 13.7812 4.97135 14.125 5.77344C14.4688 6.57552 14.6406 7.4375 14.6406 8.35938C14.6406 9.28125 14.4688 10.1432 14.125 10.9453C13.7865 11.7474 13.3125 12.4531 12.7031 13.0625C12.0938 13.6667 11.388 14.1406 10.5859 14.4844C9.78385 14.8281 8.92188 15 8 15ZM6.38281 8.35156C6.38281 7.50781 6.16406 6.78125 5.72656 6.17188C5.63281 6.05208 5.51562 5.97917 5.375 5.95312C5.23438 5.92188 5.10417 5.94531 4.98438 6.02344C4.84896 6.11719 4.77083 6.23958 4.75 6.39062C4.72917 6.54167 4.76823 6.6875 4.86719 6.82812C5.16927 7.21875 5.32031 7.72656 5.32031 8.35156C5.32031 8.96094 5.16927 9.46615 4.86719 9.86719C4.76823 10.0078 4.72917 10.1536 4.75 10.3047C4.77083 10.4557 4.84896 10.5781 4.98438 10.6719C5.10417 10.7552 5.23438 10.7839 5.375 10.7578C5.52083 10.7266 5.63802 10.6484 5.72656 10.5234C5.92969 10.2526 6.08854 9.92708 6.20312 9.54688C6.32292 9.16146 6.38281 8.76302 6.38281 8.35156ZM8.82812 8.35156C8.82812 7.6901 8.73438 7.05469 8.54688 6.44531C8.35938 5.83073 8.09115 5.28646 7.74219 4.8125C7.65365 4.6875 7.53906 4.61198 7.39844 4.58594C7.25781 4.55469 7.125 4.58333 7 4.67188C6.88021 4.75521 6.80729 4.86979 6.78125 5.01562C6.76042 5.16146 6.79688 5.30208 6.89062 5.4375C7.47396 6.24479 7.76562 7.21615 7.76562 8.35156C7.76562 9.48698 7.47396 10.4583 6.89062 11.2656C6.79688 11.401 6.76042 11.5417 6.78125 11.6875C6.80729 11.8333 6.88021 11.9453 7 12.0234C7.125 12.112 7.25781 12.1432 7.39844 12.1172C7.53906 12.0911 7.65365 12.0156 7.74219 11.8906C8.09115 11.4062 8.35938 10.8594 8.54688 10.25C8.73438 9.63542 8.82812 9.0026 8.82812 8.35156ZM11.2656 8.35156C11.2656 7.46094 11.138 6.59375 10.8828 5.75C10.6328 4.90625 10.2682 4.13802 9.78906 3.44531C9.69531 3.3151 9.57552 3.23698 9.42969 3.21094C9.28906 3.17969 9.15625 3.20833 9.03125 3.29688C8.90625 3.38542 8.83333 3.5026 8.8125 3.64844C8.79688 3.79427 8.83594 3.93229 8.92969 4.0625C9.34635 4.65104 9.66406 5.3151 9.88281 6.05469C10.1068 6.79427 10.2188 7.5599 10.2188 8.35156C10.2188 9.13802 10.1068 9.90365 9.88281 10.6484C9.65885 11.388 9.34115 12.0521 8.92969 12.6406C8.83594 12.7708 8.79688 12.9089 8.8125 13.0547C8.83333 13.1953 8.90625 13.3125 9.03125 13.4062C9.15104 13.4896 9.28125 13.5182 9.42188 13.4922C9.56771 13.4609 9.6901 13.3802 9.78906 13.25C10.2682 12.5677 10.6328 11.8047 10.8828 10.9609C11.138 10.1172 11.2656 9.2474 11.2656 8.35156Z" fill="white"/>
</svg>
