<svg width="91" height="150" viewBox="0 0 91 150" fill="none" xmlns="http://www.w3.org/2000/svg">
<path d="M22.4375 74.9375C22.4375 68.4792 21.375 62.3333 19.25 56.5C17.125 50.625 14.0833 45.3542 10.125 40.6875C9.08333 39.4792 7.97917 38.75 6.8125 38.5C5.6875 38.2083 4.625 38.2708 3.625 38.6875C2.66667 39.0625 1.85417 39.6875 1.1875 40.5625C0.5625 41.3958 0.208333 42.3542 0.125 43.4375C0.0833333 44.4792 0.458333 45.5 1.25 46.5C5 51.25 7.66667 55.8125 9.25 60.1875C10.875 64.5208 11.6875 69.4375 11.6875 74.9375C11.6875 80.4375 10.875 85.375 9.25 89.75C7.66667 94.0833 5 98.625 1.25 103.375C0.5 104.375 0.145833 105.396 0.1875 106.438C0.270833 107.479 0.625 108.438 1.25 109.312C1.875 110.146 2.6875 110.771 3.6875 111.188C4.6875 111.562 5.75 111.625 6.875 111.375C8 111.083 9.08333 110.333 10.125 109.125C14.0833 104.458 17.125 99.2083 19.25 93.375C21.375 87.5 22.4375 81.3542 22.4375 74.9375ZM56.375 74.9375C56.375 65.1042 54.875 55.6875 51.875 46.6875C48.9167 37.6875 44.6458 29.4375 39.0625 21.9375C38.0625 20.6042 36.9583 19.75 35.75 19.375C34.5833 19 33.4583 19 32.375 19.375C31.3333 19.7083 30.4583 20.3125 29.75 21.1875C29.0833 22.0208 28.7292 23.0208 28.6875 24.1875C28.6875 25.3542 29.1458 26.5625 30.0625 27.8125C35.1458 34.4792 39.0208 41.8333 41.6875 49.875C44.3542 57.875 45.6875 66.2292 45.6875 74.9375C45.6875 83.6458 44.3542 92 41.6875 100C39.0208 108 35.1458 115.354 30.0625 122.062C29.1458 123.271 28.6875 124.458 28.6875 125.625C28.7292 126.792 29.0833 127.812 29.75 128.688C30.4583 129.562 31.3333 130.167 32.375 130.5C33.4583 130.875 34.5833 130.875 35.75 130.5C36.9583 130.125 38.0625 129.25 39.0625 127.875C44.6458 120.417 48.9167 112.188 51.875 103.188C54.875 94.1458 56.375 84.7292 56.375 74.9375ZM90.4375 74.9375C90.4375 61.7292 88.4375 49.0833 84.4375 37C80.4792 24.875 74.8333 13.7083 67.5 3.5C66.625 2.20833 65.6042 1.375 64.4375 1C63.2708 0.625 62.1458 0.604167 61.0625 0.9375C59.9792 1.22917 59.0833 1.79167 58.375 2.625C57.6667 3.41667 57.2917 4.39583 57.25 5.5625C57.2083 6.72917 57.6875 7.95833 58.6875 9.25C65.5208 18.6667 70.7292 28.9375 74.3125 40.0625C77.8958 51.1875 79.6875 62.8125 79.6875 74.9375C79.6875 87.0208 77.8958 98.625 74.3125 109.75C70.7292 120.875 65.5208 131.146 58.6875 140.562C57.7292 141.854 57.25 143.083 57.25 144.25C57.2917 145.417 57.6667 146.417 58.375 147.25C59.0833 148.125 59.9583 148.708 61 149C62.0833 149.333 63.2083 149.292 64.375 148.875C65.5417 148.5 66.5833 147.667 67.5 146.375C74.8333 136.167 80.4792 125.021 84.4375 112.938C88.4375 100.812 90.4375 88.1458 90.4375 74.9375Z" fill="white"/>
</svg>
