<svg xmlns="http://www.w3.org/2000/svg" width="24" height="24"><path style="stroke:none;fill-rule:nonzero;fill:#fff;fill-opacity:1" d="M17.719 11.832c0 1.016.265 1.984.797 2.91.52.91 1.293 1.75 2.28 2.488.25.192.517.31.798.356.293.039.558.031.797-.031.25-.067.453-.164.609-.293.168-.14.254-.29.266-.457.02-.164-.063-.325-.25-.48-.95-.755-1.625-1.47-2.032-2.153-.394-.692-.593-1.473-.593-2.34 0-.867.199-1.645.593-2.328.407-.691 1.082-1.414 2.032-2.16.187-.16.277-.32.265-.485-.008-.168-.101-.324-.265-.453a1.332 1.332 0 0 0-.61-.297 1.89 1.89 0 0 0-.797-.03c-.28.038-.55.155-.812.347-.992.738-1.762 1.582-2.281 2.496-.536.933-.805 1.918-.797 2.91Zm-8.485 0c0 1.547.371 3.031 1.11 4.461.734 1.398 1.82 2.715 3.219 3.898.238.215.503.356.796.414.301.06.59.06.86 0 .27-.05.488-.148.656-.285.176-.14.266-.3.266-.484.011-.188-.106-.375-.344-.563-1.266-1.054-2.246-2.23-2.906-3.484a8.468 8.468 0 0 1-.985-3.957c0-1.375.328-2.695.985-3.957.656-1.254 1.636-2.434 2.906-3.484.238-.196.355-.387.344-.57 0-.188-.09-.344-.266-.477a1.467 1.467 0 0 0-.656-.285 2.123 2.123 0 0 0-.86 0 1.69 1.69 0 0 0-.796.406c-1.399 1.183-2.485 2.504-3.22 3.906-.745 1.441-1.12 2.945-1.109 4.461Zm-8.515 0c0 2.086.496 4.086 1.484 6 1 1.906 2.41 3.668 4.235 5.281.238.203.503.336.796.395.293.066.567.07.829.02.269-.048.488-.141.656-.278.176-.133.27-.29.281-.473.012-.187-.105-.379-.344-.582-1.703-1.48-3.023-3.125-3.906-4.867-.898-1.777-1.355-3.629-1.344-5.496 0-1.914.45-3.75 1.344-5.508.883-1.742 2.203-3.383 3.906-4.863.239-.207.356-.399.344-.582 0-.184-.09-.34-.266-.465a1.577 1.577 0 0 0-.671-.266 2.116 2.116 0 0 0-.844.008 1.69 1.69 0 0 0-.782.395C4.603 2.168 3.172 3.953 2.204 5.844 1.215 7.75.72 9.746.72 11.832Zm0 0"/></svg>