<?xml version="1.0" encoding="UTF-8"?>
<svg xmlns="http://www.w3.org/2000/svg" xmlns:xlink="http://www.w3.org/1999/xlink" width="24" height="38" viewBox="0 0 24 38" version="1.1">
<g id="surface1">
<path style=" stroke:none;fill-rule:nonzero;fill:rgb(100%,100%,100%);fill-opacity:1;" d="M 17.71875 18.734375 C 17.71875 20.339844 17.984375 21.875 18.515625 23.34375 C 19.046875 24.800781 19.808594 26.113281 20.796875 27.28125 C 21.046875 27.582031 21.3125 27.769531 21.59375 27.84375 C 21.886719 27.90625 22.152344 27.890625 22.390625 27.796875 C 22.640625 27.691406 22.84375 27.535156 23 27.328125 C 23.167969 27.109375 23.253906 26.871094 23.265625 26.609375 C 23.285156 26.347656 23.203125 26.09375 23.015625 25.84375 C 22.066406 24.65625 21.390625 23.519531 20.984375 22.4375 C 20.589844 21.34375 20.390625 20.109375 20.390625 18.734375 C 20.390625 17.359375 20.589844 16.128906 20.984375 15.046875 C 21.390625 13.953125 22.066406 12.8125 23.015625 11.625 C 23.203125 11.375 23.292969 11.121094 23.28125 10.859375 C 23.269531 10.589844 23.183594 10.347656 23.015625 10.140625 C 22.859375 9.921875 22.65625 9.765625 22.40625 9.671875 C 22.15625 9.566406 21.890625 9.550781 21.609375 9.625 C 21.328125 9.6875 21.058594 9.871094 20.796875 10.171875 C 19.808594 11.339844 19.046875 12.65625 18.515625 14.125 C 17.984375 15.582031 17.71875 17.121094 17.71875 18.734375 Z M 9.234375 18.734375 C 9.234375 21.183594 9.605469 23.535156 10.34375 25.796875 C 11.09375 28.046875 12.167969 30.105469 13.5625 31.96875 C 13.800781 32.3125 14.066406 32.53125 14.359375 32.625 C 14.660156 32.71875 14.949219 32.71875 15.21875 32.625 C 15.488281 32.542969 15.707031 32.390625 15.875 32.171875 C 16.050781 31.953125 16.140625 31.699219 16.140625 31.40625 C 16.152344 31.113281 16.035156 30.816406 15.796875 30.515625 C 14.527344 28.839844 13.558594 27 12.890625 25 C 12.234375 23 11.90625 20.910156 11.90625 18.734375 C 11.90625 16.558594 12.234375 14.46875 12.890625 12.46875 C 13.558594 10.457031 14.527344 8.621094 15.796875 6.953125 C 16.035156 6.640625 16.152344 6.339844 16.140625 6.046875 C 16.140625 5.753906 16.050781 5.503906 15.875 5.296875 C 15.707031 5.078125 15.488281 4.925781 15.21875 4.84375 C 14.949219 4.75 14.660156 4.75 14.359375 4.84375 C 14.066406 4.9375 13.800781 5.152344 13.5625 5.484375 C 12.167969 7.359375 11.09375 9.421875 10.34375 11.671875 C 9.605469 13.921875 9.234375 16.277344 9.234375 18.734375 Z M 0.71875 18.734375 C 0.71875 22.035156 1.214844 25.203125 2.203125 28.234375 C 3.203125 31.253906 4.613281 34.042969 6.4375 36.59375 C 6.675781 36.917969 6.941406 37.125 7.234375 37.21875 C 7.527344 37.324219 7.800781 37.332031 8.0625 37.25 C 8.332031 37.175781 8.550781 37.03125 8.71875 36.8125 C 8.894531 36.605469 8.988281 36.355469 9 36.0625 C 9.011719 35.769531 8.894531 35.464844 8.65625 35.140625 C 6.949219 32.785156 5.644531 30.21875 4.75 27.4375 C 3.855469 24.65625 3.40625 21.753906 3.40625 18.734375 C 3.40625 15.703125 3.855469 12.796875 4.75 10.015625 C 5.644531 7.234375 6.949219 4.667969 8.65625 2.3125 C 8.894531 1.988281 9.011719 1.683594 9 1.390625 C 9 1.097656 8.910156 0.855469 8.734375 0.65625 C 8.558594 0.449219 8.332031 0.308594 8.0625 0.234375 C 7.792969 0.152344 7.511719 0.15625 7.21875 0.25 C 6.925781 0.34375 6.667969 0.550781 6.4375 0.875 C 4.605469 3.425781 3.191406 6.21875 2.203125 9.25 C 1.214844 12.269531 0.71875 15.433594 0.71875 18.734375 Z M 0.71875 18.734375 "/>
</g>
</svg>
