<?xml version="1.0" encoding="UTF-8"?>
<svg xmlns="http://www.w3.org/2000/svg" xmlns:xlink="http://www.w3.org/1999/xlink" width="24" height="25.5" viewBox="0 0 24 25.5" version="1.1">
<g id="surface1">
<path style=" stroke:none;fill-rule:nonzero;fill:rgb(100%,100%,100%);fill-opacity:1;" d="M 12 24.492188 C 13.632812 24.492188 15.167969 24.179688 16.605469 23.554688 C 18.050781 22.929688 19.324219 22.066406 20.425781 20.964844 C 21.527344 19.863281 22.390625 18.59375 23.015625 17.15625 C 23.640625 15.710938 23.953125 14.171875 23.953125 12.539062 C 23.953125 10.90625 23.640625 9.371094 23.015625 7.933594 C 22.390625 6.488281 21.527344 5.214844 20.425781 4.113281 C 19.324219 3.011719 18.050781 2.148438 16.605469 1.523438 C 15.160156 0.898438 13.621094 0.585938 11.988281 0.585938 C 10.355469 0.585938 8.816406 0.898438 7.371094 1.523438 C 5.933594 2.148438 4.664062 3.011719 3.5625 4.113281 C 2.46875 5.214844 1.609375 6.488281 0.984375 7.933594 C 0.359375 9.371094 0.046875 10.90625 0.046875 12.539062 C 0.046875 14.171875 0.359375 15.710938 0.984375 17.15625 C 1.609375 18.59375 2.472656 19.863281 3.574219 20.964844 C 4.675781 22.066406 5.945312 22.929688 7.382812 23.554688 C 8.828125 24.179688 10.367188 24.492188 12 24.492188 Z M 12 22.5 C 10.617188 22.5 9.324219 22.242188 8.121094 21.726562 C 6.917969 21.210938 5.859375 20.5 4.945312 19.59375 C 4.039062 18.679688 3.328125 17.621094 2.8125 16.417969 C 2.304688 15.214844 2.050781 13.921875 2.050781 12.539062 C 2.050781 11.15625 2.304688 9.863281 2.8125 8.660156 C 3.328125 7.457031 4.039062 6.398438 4.945312 5.484375 C 5.851562 4.570312 6.90625 3.859375 8.109375 3.351562 C 9.3125 2.835938 10.605469 2.578125 11.988281 2.578125 C 13.371094 2.578125 14.664062 2.835938 15.867188 3.351562 C 17.078125 3.859375 18.136719 4.570312 19.042969 5.484375 C 19.957031 6.398438 20.671875 7.457031 21.1875 8.660156 C 21.703125 9.863281 21.960938 11.15625 21.960938 12.539062 C 21.960938 13.921875 21.703125 15.214844 21.1875 16.417969 C 20.679688 17.621094 19.96875 18.679688 19.054688 19.59375 C 18.140625 20.5 17.082031 21.210938 15.878906 21.726562 C 14.675781 22.242188 13.382812 22.5 12 22.5 Z M 9.574219 12.527344 C 9.574219 11.261719 9.246094 10.171875 8.589844 9.257812 C 8.449219 9.078125 8.273438 8.96875 8.0625 8.929688 C 7.851562 8.882812 7.65625 8.917969 7.476562 9.035156 C 7.273438 9.175781 7.15625 9.359375 7.125 9.585938 C 7.09375 9.8125 7.152344 10.03125 7.300781 10.242188 C 7.753906 10.828125 7.980469 11.589844 7.980469 12.527344 C 7.980469 13.441406 7.753906 14.199219 7.300781 14.800781 C 7.152344 15.011719 7.09375 15.230469 7.125 15.457031 C 7.15625 15.683594 7.273438 15.867188 7.476562 16.007812 C 7.65625 16.132812 7.851562 16.175781 8.0625 16.136719 C 8.28125 16.089844 8.457031 15.972656 8.589844 15.785156 C 8.894531 15.378906 9.132812 14.890625 9.304688 14.320312 C 9.484375 13.742188 9.574219 13.144531 9.574219 12.527344 Z M 13.242188 12.527344 C 13.242188 11.535156 13.101562 10.582031 12.820312 9.667969 C 12.539062 8.746094 12.136719 7.929688 11.613281 7.21875 C 11.480469 7.03125 11.308594 6.917969 11.097656 6.878906 C 10.886719 6.832031 10.6875 6.875 10.5 7.007812 C 10.320312 7.132812 10.210938 7.304688 10.171875 7.523438 C 10.140625 7.742188 10.195312 7.953125 10.335938 8.15625 C 11.210938 9.367188 11.648438 10.824219 11.648438 12.527344 C 11.648438 14.230469 11.210938 15.6875 10.335938 16.898438 C 10.195312 17.101562 10.140625 17.3125 10.171875 17.53125 C 10.210938 17.75 10.320312 17.917969 10.5 18.035156 C 10.6875 18.167969 10.886719 18.214844 11.097656 18.175781 C 11.308594 18.136719 11.480469 18.023438 11.613281 17.835938 C 12.136719 17.109375 12.539062 16.289062 12.820312 15.375 C 13.101562 14.453125 13.242188 13.503906 13.242188 12.527344 Z M 16.898438 12.527344 C 16.898438 11.191406 16.707031 9.890625 16.324219 8.625 C 15.949219 7.359375 15.402344 6.207031 14.683594 5.167969 C 14.542969 4.972656 14.363281 4.855469 14.144531 4.816406 C 13.933594 4.769531 13.734375 4.8125 13.546875 4.945312 C 13.359375 5.078125 13.25 5.253906 13.21875 5.472656 C 13.195312 5.691406 13.253906 5.898438 13.394531 6.09375 C 14.019531 6.976562 14.496094 7.972656 14.824219 9.082031 C 15.160156 10.191406 15.328125 11.339844 15.328125 12.527344 C 15.328125 13.707031 15.160156 14.855469 14.824219 15.972656 C 14.488281 17.082031 14.011719 18.078125 13.394531 18.960938 C 13.253906 19.15625 13.195312 19.363281 13.21875 19.582031 C 13.25 19.792969 13.359375 19.96875 13.546875 20.109375 C 13.726562 20.234375 13.921875 20.277344 14.132812 20.238281 C 14.351562 20.191406 14.535156 20.070312 14.683594 19.875 C 15.402344 18.851562 15.949219 17.707031 16.324219 16.441406 C 16.707031 15.175781 16.898438 13.871094 16.898438 12.527344 Z M 16.898438 12.527344 "/>
</g>
</svg>
