<svg xmlns="http://www.w3.org/2000/svg" width="24" height="24"><path style="stroke:none;fill-rule:nonzero;fill:#fff;fill-opacity:1" d="M12 23.063c1.633 0 3.168-.293 4.605-.883a12.29 12.29 0 0 0 3.82-2.438 11.482 11.482 0 0 0 2.59-3.586c.626-1.36.938-2.804.938-4.343 0-1.536-.312-2.981-.937-4.336a11.514 11.514 0 0 0-2.59-3.594 12.22 12.22 0 0 0-3.82-2.438 12.166 12.166 0 0 0-4.618-.883c-1.633 0-3.172.293-4.617.883a12.307 12.307 0 0 0-3.809 2.438A11.523 11.523 0 0 0 .985 7.477a10.187 10.187 0 0 0-.937 4.335c0 1.54.312 2.985.937 4.344a11.438 11.438 0 0 0 2.59 3.586 12.307 12.307 0 0 0 3.809 2.438c1.445.59 2.984.883 4.617.883Zm-2.484-11.25c0 .593-.09 1.171-.27 1.73a4.347 4.347 0 0 1-.75 1.434.812.812 0 0 1-.527.332.81.81 0 0 1-.621-.121.815.815 0 0 1-.364-.532.84.84 0 0 1 .188-.64c.46-.594.691-1.329.691-2.204 0-.906-.23-1.644-.691-2.218a.78.78 0 0 1-.2-.63.77.77 0 0 1 .376-.538.796.796 0 0 1 .609-.11c.227.036.406.141.54.32.679.887 1.019 1.946 1.019 3.177Zm3.785 0a8.847 8.847 0 0 1-.434 2.757 7.976 7.976 0 0 1-1.242 2.39.925.925 0 0 1-.55.345.803.803 0 0 1-.61-.145.713.713 0 0 1-.328-.496.757.757 0 0 1 .164-.617c.422-.567.75-1.215.984-1.953a7.243 7.243 0 0 0 .363-2.281c0-.797-.12-1.56-.363-2.297a6.484 6.484 0 0 0-.984-1.938.774.774 0 0 1 .773-1.246c.223.04.422.156.551.328a7.66 7.66 0 0 1 1.242 2.371c.29.89.434 1.817.434 2.781Zm3.773 0c0 1.3-.199 2.566-.597 3.792a11.158 11.158 0 0 1-1.7 3.332.917.917 0 0 1-.562.352.782.782 0 0 1-.61-.121.752.752 0 0 1-.328-.508.793.793 0 0 1 .164-.605 9.84 9.84 0 0 0 1.477-2.91 10.71 10.71 0 0 0 .527-3.332c0-1.157-.172-2.27-.515-3.344A9.674 9.674 0 0 0 13.44 5.57a.775.775 0 0 1-.164-.597.746.746 0 0 1 .328-.516.777.777 0 0 1 .622-.133.85.85 0 0 1 .55.364 11.246 11.246 0 0 1 1.7 3.34c.398 1.226.601 2.503.597 3.784Zm0 0"/></svg>