<svg width="17" height="17" viewBox="0 0 17 17" fill="none" xmlns="http://www.w3.org/2000/svg">
<path d="M1.42188 10.1797C1.60417 10.1797 1.75521 10.1172 1.875 9.99219C1.99479 9.86719 2.05469 9.71875 2.05469 9.54688V7.17969C2.05469 7.00781 1.99479 6.85938 1.875 6.73438C1.75521 6.60417 1.60417 6.53906 1.42188 6.53906C1.24479 6.53906 1.09635 6.60417 0.976562 6.73438C0.856771 6.85938 0.796875 7.00781 0.796875 7.17969V9.54688C0.796875 9.71875 0.856771 9.86719 0.976562 9.99219C1.09635 10.1172 1.24479 10.1797 1.42188 10.1797ZM4.04688 13.375C4.22917 13.375 4.38021 13.3151 4.5 13.1953C4.625 13.0703 4.6875 12.9193 4.6875 12.7422V6.66406L3.42969 5.40625V12.7422C3.42969 12.9193 3.48698 13.0703 3.60156 13.1953C3.72135 13.3151 3.86979 13.375 4.04688 13.375ZM6.67188 0.203125C6.49479 0.203125 6.34635 0.265625 6.22656 0.390625C6.11198 0.510417 6.05469 0.658854 6.05469 0.835938V3.30469L7.3125 4.5625V0.835938C7.3125 0.658854 7.25 0.510417 7.125 0.390625C7.00521 0.265625 6.85417 0.203125 6.67188 0.203125ZM6.67188 16.5234C6.85417 16.5234 7.00521 16.4609 7.125 16.3359C7.25 16.2161 7.3125 16.0677 7.3125 15.8906V9.28906L6.05469 8.03906V15.8906C6.05469 16.0677 6.11198 16.2161 6.22656 16.3359C6.34635 16.4609 6.49479 16.5234 6.67188 16.5234ZM9.3125 4.29688C9.13021 4.29688 8.97917 4.35938 8.85938 4.48438C8.73958 4.60417 8.67969 4.7526 8.67969 4.92969V5.9375L9.9375 7.19531V4.92969C9.9375 4.7526 9.8776 4.60417 9.75781 4.48438C9.63802 4.35938 9.48958 4.29688 9.3125 4.29688ZM9.3125 13.1016C9.48958 13.1016 9.63802 13.0417 9.75781 12.9219C9.8776 12.7969 9.9375 12.6458 9.9375 12.4688V11.9141L8.67969 10.6562V12.4688C8.67969 12.6458 8.73958 12.7969 8.85938 12.9219C8.98438 13.0417 9.13542 13.1016 9.3125 13.1016ZM11.9375 1.92969C11.7552 1.92969 11.6042 1.99219 11.4844 2.11719C11.3698 2.24219 11.3125 2.39062 11.3125 2.5625V8.5625L12.5703 9.82031V2.5625C12.5703 2.39062 12.5078 2.24219 12.3828 2.11719C12.263 1.99219 12.1146 1.92969 11.9375 1.92969ZM14.5625 5.86719C14.3854 5.86719 14.237 5.92969 14.1172 6.05469C13.9974 6.17969 13.9375 6.32812 13.9375 6.5V10.2266C13.9375 10.3984 13.9974 10.5469 14.1172 10.6719C14.237 10.7917 14.3854 10.8516 14.5625 10.8516C14.7396 10.8516 14.888 10.7917 15.0078 10.6719C15.1328 10.5469 15.1953 10.3984 15.1953 10.2266V6.5C15.1953 6.32812 15.1328 6.17969 15.0078 6.05469C14.888 5.92969 14.7396 5.86719 14.5625 5.86719ZM15.3203 15.7891C15.4401 15.9036 15.5833 15.9609 15.75 15.9609C15.9167 15.9609 16.0573 15.9036 16.1719 15.7891C16.2865 15.6693 16.3438 15.526 16.3438 15.3594C16.349 15.1927 16.2917 15.0521 16.1719 14.9375L2.16406 0.921875C2.04427 0.807292 1.89844 0.75 1.72656 0.75C1.5599 0.744792 1.41927 0.802083 1.30469 0.921875C1.1901 1.03646 1.13281 1.17969 1.13281 1.35156C1.13281 1.51823 1.1901 1.65885 1.30469 1.77344L15.3203 15.7891Z" fill="white"/>
</svg>
