<?xml version="1.0" encoding="UTF-8"?>
<svg xmlns="http://www.w3.org/2000/svg" xmlns:xlink="http://www.w3.org/1999/xlink" width="24" height="29.142857" viewBox="0 0 24 29.142857" version="1.1">
<g id="surface1">
<path style=" stroke:none;fill-rule:nonzero;fill:rgb(100%,100%,100%);fill-opacity:1;" d="M 12 22.378906 C 13.480469 22.378906 14.871094 22.101562 16.164062 21.550781 C 17.46875 20.988281 18.613281 20.214844 19.59375 19.230469 C 20.585938 18.242188 21.355469 17.09375 21.910156 15.789062 C 22.472656 14.488281 22.753906 13.089844 22.753906 11.597656 C 22.753906 10.117188 22.472656 8.722656 21.910156 7.417969 C 21.355469 6.117188 20.585938 4.972656 19.59375 3.992188 C 18.613281 3 17.46875 2.226562 16.164062 1.675781 C 14.871094 1.113281 13.480469 0.832031 12 0.832031 C 10.519531 0.832031 9.125 1.113281 7.820312 1.675781 C 6.519531 2.226562 5.371094 3 4.378906 3.992188 C 3.398438 4.972656 2.625 6.117188 2.0625 7.417969 C 1.507812 8.722656 1.230469 10.117188 1.230469 11.597656 C 1.230469 13.089844 1.507812 14.488281 2.0625 15.789062 C 2.625 17.09375 3.398438 18.242188 4.378906 19.230469 C 5.371094 20.214844 6.519531 20.988281 7.820312 21.550781 C 9.125 22.101562 10.519531 22.378906 12 22.378906 Z M 12 18.054688 C 10.804688 18.054688 9.71875 17.769531 8.746094 17.195312 C 7.773438 16.617188 6.996094 15.839844 6.414062 14.867188 C 5.84375 13.894531 5.558594 12.804688 5.558594 11.597656 C 5.558594 10.402344 5.84375 9.316406 6.414062 8.34375 C 6.996094 7.371094 7.773438 6.597656 8.746094 6.027344 C 9.71875 5.445312 10.804688 5.15625 12 5.15625 C 13.195312 5.15625 14.28125 5.445312 15.253906 6.027344 C 16.226562 6.597656 17 7.371094 17.570312 8.34375 C 18.144531 9.316406 18.429688 10.402344 18.429688 11.597656 C 18.429688 12.804688 18.144531 13.894531 17.570312 14.867188 C 17 15.839844 16.226562 16.617188 15.253906 17.195312 C 14.28125 17.769531 13.195312 18.054688 12 18.054688 Z M 12 14.597656 C 12.839844 14.597656 13.542969 14.308594 14.117188 13.726562 C 14.695312 13.148438 14.988281 12.4375 14.988281 11.597656 C 14.988281 10.757812 14.695312 10.050781 14.117188 9.46875 C 13.542969 8.886719 12.839844 8.597656 12 8.597656 C 11.160156 8.597656 10.449219 8.886719 9.871094 9.46875 C 9.289062 10.050781 9 10.757812 9 11.597656 C 9 12.4375 9.289062 13.148438 9.871094 13.726562 C 10.449219 14.308594 11.160156 14.597656 12 14.597656 Z M 10.929688 26.746094 L 13.085938 26.746094 L 13.085938 21.386719 L 10.929688 21.386719 Z M 7.3125 27.816406 L 16.6875 27.816406 C 16.980469 27.816406 17.230469 27.710938 17.4375 27.496094 C 17.652344 27.289062 17.757812 27.039062 17.757812 26.746094 C 17.757812 26.449219 17.652344 26.195312 17.4375 25.980469 C 17.230469 25.769531 16.980469 25.660156 16.6875 25.660156 L 7.324219 25.660156 C 7.03125 25.660156 6.777344 25.769531 6.5625 25.980469 C 6.347656 26.195312 6.242188 26.449219 6.242188 26.746094 C 6.242188 27.039062 6.34375 27.289062 6.550781 27.496094 C 6.761719 27.710938 7.019531 27.816406 7.3125 27.816406 Z M 7.3125 27.816406 "/>
</g>
</svg>
