<svg xmlns="http://www.w3.org/2000/svg" width="24" height="24"><path style="stroke:none;fill-rule:nonzero;fill:#fff;fill-opacity:1" d="M3.016 23.695h17.96c.669 0 1.196-.289 1.587-.867.39-.582.585-1.36.585-2.344v-3.738c0-.988-.195-1.777-.585-2.344-.391-.578-.918-.867-1.586-.867H3.016c-.668 0-1.196.29-1.586.867-.39.567-.586 1.356-.586 2.344v3.738c0 .985.195 1.762.586 2.344.39.578.918.867 1.586.867Zm0-1.886c-.282 0-.504-.125-.672-.364-.16-.234-.242-.554-.242-.96v-3.739c0-.414.082-.738.242-.973a.785.785 0 0 1 .672-.351h17.96c.282 0 .504.117.665.351.168.235.25.555.25.973v3.738c0 .407-.082.727-.25.961a.765.765 0 0 1-.664.364Zm1.039-2.86h2.648c.16 0 .293-.078.399-.222.105-.16.16-.375.156-.598 0-.238-.051-.438-.156-.598-.106-.156-.25-.242-.399-.234H4.055c-.145-.008-.285.078-.39.234-.106.157-.161.375-.157.598 0 .238.05.441.156.598.106.148.246.226.39.222Zm6.61 1.184c.265.004.519-.156.702-.445.2-.286.309-.68.305-1.09 0-.403-.11-.782-.305-1.055-.183-.293-.437-.457-.703-.457-.273-.004-.535.16-.726.457-.192.273-.301.656-.297 1.055-.004.406.101.8.296 1.09.192.289.454.453.727.445Zm2.952 0c.27.008.524-.156.711-.445.195-.29.3-.68.297-1.09.004-.399-.105-.782-.297-1.055-.183-.297-.441-.461-.71-.457-.274-.004-.536.16-.727.457-.192.273-.301.656-.297 1.055-.004.41.101.8.297 1.09.191.289.453.453.726.445Zm2.953 0c.27.008.524-.156.711-.445.196-.29.301-.68.297-1.09.004-.399-.105-.782-.297-1.055-.183-.297-.441-.461-.71-.457-.274-.004-.536.16-.727.457-.192.273-.301.656-.297 1.055-.004.41.101.8.297 1.09.191.289.453.453.726.445Zm2.953 0c.266.008.524-.156.711-.445.2-.282.309-.672.305-1.079.004-.402-.11-.789-.305-1.066-.183-.293-.441-.461-.71-.457-.274-.004-.536.16-.727.457-.2.3-.297.652-.297 1.066 0 .422.098.782.297 1.078.191.29.453.454.726.446ZM11.984 1.359c-.894 0-1.765.196-2.609.575-.816.363-1.59.921-2.29 1.652a1.06 1.06 0 0 0-.233.55c-.032.204-.004.419.078.587.093.187.21.3.351.328.149.023.297-.04.414-.176.61-.633 1.285-1.117 2-1.43 1.496-.683 3.094-.687 4.594-.011.711.316 1.383.8 1.992 1.441.117.133.262.2.407.176.144-.031.269-.149.351-.328.086-.172.117-.391.086-.598a.953.953 0 0 0-.234-.54c-.703-.73-1.485-1.288-2.305-1.651a6.26 6.26 0 0 0-2.602-.575Zm.008 3.668a4.46 4.46 0 0 0-1.89.422c-.61.274-1.16.672-1.649 1.196a.95.95 0 0 0-.226.527c-.028.21.007.43.093.598.082.18.2.285.344.316.149.027.3-.031.422-.164.8-.867 1.77-1.3 2.906-1.3 1.137 0 2.106.433 2.914 1.3.121.133.274.191.422.164.14-.024.266-.14.344-.316a1.05 1.05 0 0 0 .094-.598.929.929 0 0 0-.235-.527 4.95 4.95 0 0 0-1.625-1.196 4.497 4.497 0 0 0-1.914-.422Zm-.008 3.668c-.406 0-.8.086-1.187.258a2.764 2.764 0 0 0-.985.727.962.962 0 0 0-.226.527c-.031.203-.004.418.078.586.086.184.219.305.367.34.156.031.313-.031.438-.164.402-.45.906-.68 1.515-.68.63 0 1.137.23 1.524.68.125.14.281.203.437.176.153-.032.29-.16.375-.352.078-.172.102-.383.07-.586a.929.929 0 0 0-.218-.527c-.61-.657-1.34-.985-2.188-.985Zm0 0"/></svg>