<?xml version="1.0" encoding="UTF-8"?>
<svg xmlns="http://www.w3.org/2000/svg" xmlns:xlink="http://www.w3.org/1999/xlink" width="24" height="22.5" viewBox="0 0 24 22.5" version="1.1">
<g id="surface1">
<path style=" stroke:none;fill-rule:nonzero;fill:rgb(100%,100%,100%);fill-opacity:1;" d="M 4.886719 21.84375 L 19.101562 21.84375 C 20.328125 21.84375 21.246094 21.539062 21.855469 20.929688 C 22.472656 20.328125 22.78125 19.421875 22.78125 18.210938 L 22.78125 3.902344 C 22.78125 2.691406 22.472656 1.785156 21.855469 1.183594 C 21.246094 0.574219 20.328125 0.269531 19.101562 0.269531 L 4.886719 0.269531 C 3.660156 0.269531 2.738281 0.574219 2.121094 1.183594 C 1.511719 1.785156 1.207031 2.691406 1.207031 3.902344 L 1.207031 18.210938 C 1.207031 19.421875 1.511719 20.328125 2.121094 20.929688 C 2.738281 21.539062 3.660156 21.84375 4.886719 21.84375 Z M 12.011719 16.664062 C 11.917969 16.664062 11.828125 16.640625 11.742188 16.59375 C 11.65625 16.546875 11.546875 16.453125 11.414062 16.3125 L 9.796875 14.753906 C 9.648438 14.605469 9.625 14.457031 9.726562 14.308594 C 9.976562 13.964844 10.308594 13.6875 10.722656 13.476562 C 11.136719 13.265625 11.566406 13.160156 12.011719 13.160156 C 12.449219 13.160156 12.875 13.261719 13.289062 13.464844 C 13.703125 13.667969 14.03125 13.929688 14.273438 14.25 C 14.40625 14.421875 14.390625 14.589844 14.226562 14.753906 L 12.621094 16.3125 C 12.480469 16.453125 12.367188 16.546875 12.28125 16.59375 C 12.195312 16.640625 12.105469 16.664062 12.011719 16.664062 Z M 8.0625 13.019531 L 7.054688 11.988281 C 6.890625 11.816406 6.875 11.648438 7.007812 11.484375 C 7.5625 10.820312 8.289062 10.289062 9.1875 9.890625 C 10.085938 9.492188 11.027344 9.292969 12.011719 9.292969 C 12.996094 9.292969 13.9375 9.492188 14.835938 9.890625 C 15.734375 10.289062 16.457031 10.820312 17.003906 11.484375 C 17.074219 11.554688 17.105469 11.640625 17.097656 11.742188 C 17.097656 11.835938 17.058594 11.917969 16.980469 11.988281 L 15.960938 13.019531 C 15.867188 13.113281 15.765625 13.160156 15.65625 13.160156 C 15.546875 13.160156 15.445312 13.109375 15.351562 13.007812 C 14.9375 12.546875 14.429688 12.183594 13.828125 11.917969 C 13.226562 11.644531 12.621094 11.511719 12.011719 11.519531 C 11.394531 11.511719 10.789062 11.644531 10.195312 11.917969 C 9.601562 12.183594 9.101562 12.542969 8.695312 12.996094 C 8.492188 13.222656 8.28125 13.230469 8.0625 13.019531 Z M 5.308594 10.253906 L 4.40625 9.328125 C 4.234375 9.15625 4.222656 8.980469 4.371094 8.800781 C 4.917969 8.128906 5.597656 7.542969 6.410156 7.042969 C 7.222656 6.535156 8.109375 6.144531 9.070312 5.871094 C 10.039062 5.589844 11.019531 5.449219 12.011719 5.449219 C 13.003906 5.449219 13.980469 5.589844 14.941406 5.871094 C 15.910156 6.144531 16.800781 6.535156 17.613281 7.042969 C 18.425781 7.542969 19.105469 8.128906 19.652344 8.800781 C 19.792969 8.980469 19.78125 9.15625 19.617188 9.328125 L 18.714844 10.242188 C 18.511719 10.445312 18.3125 10.449219 18.117188 10.253906 C 17.328125 9.402344 16.410156 8.757812 15.363281 8.320312 C 14.324219 7.875 13.207031 7.652344 12.011719 7.652344 C 10.816406 7.652344 9.699219 7.875 8.660156 8.320312 C 7.621094 8.757812 6.707031 9.398438 5.917969 10.242188 C 5.824219 10.34375 5.714844 10.394531 5.589844 10.394531 C 5.472656 10.394531 5.378906 10.347656 5.308594 10.253906 Z M 5.308594 10.253906 "/>
</g>
</svg>
