<svg width="22" height="14" viewBox="0 0 22 14" fill="none" xmlns="http://www.w3.org/2000/svg">
<path d="M0.90625 13.2031C0.90625 13.3802 0.96875 13.5312 1.09375 13.6562C1.22396 13.7865 1.3776 13.8516 1.55469 13.8516H20.4453C20.6224 13.8516 20.7734 13.7865 20.8984 13.6562C21.0286 13.5312 21.0938 13.3802 21.0938 13.2031C21.0938 13.026 21.0286 12.875 20.8984 12.75C20.7734 12.6198 20.6224 12.5547 20.4453 12.5547H20.0234V2.02344C20.0234 1.67969 19.9141 1.40104 19.6953 1.1875C19.4766 0.96875 19.1849 0.859375 18.8203 0.859375H3.15625C2.79688 0.859375 2.50521 0.96875 2.28125 1.1875C2.0625 1.40104 1.95312 1.67969 1.95312 2.02344V12.5547H1.55469C1.3776 12.5547 1.22396 12.6198 1.09375 12.75C0.96875 12.875 0.90625 13.026 0.90625 13.2031ZM3.21875 6.71094V2.33594C3.21875 2.1901 3.28385 2.11719 3.41406 2.11719H10.4766V6.71094H3.21875ZM11.5 6.71094V2.11719H18.5703C18.7005 2.11719 18.7656 2.1901 18.7656 2.33594V6.71094H11.5ZM3.21875 12.5547V8.00781H18.7656V12.5547H3.21875Z" fill="white"/>
</svg>
