<svg xmlns="http://www.w3.org/2000/svg" width="24" height="24"><path style="stroke:none;fill-rule:nonzero;fill:#fff;fill-opacity:1" d="M3.46 17.426h17.08c.983 0 1.718-.285 2.202-.848.496-.574.742-1.43.742-2.57v-8.45c0-1.132-.246-1.984-.742-2.558-.484-.574-1.219-.86-2.203-.86H3.461c-.984 0-1.719.286-2.215.86-.488.566-.73 1.422-.73 2.563v8.445c0 1.14.242 1.996.73 2.57.496.563 1.23.848 2.215.848Zm.017-1.774c-.47 0-.829-.144-1.079-.43-.25-.296-.375-.73-.375-1.3V5.656c0-.574.125-1.004.375-1.3.25-.293.61-.442 1.079-.442h17.035c.468 0 .828.148 1.078.441.258.297.387.727.387 1.301v8.266c0 .57-.13 1.004-.387 1.297-.25.289-.61.433-1.078.433Zm8.503 7.532c.383 0 .73-.114 1.051-.344.324-.219.586-.516.778-.89.195-.38.293-.794.293-1.247 0-.453-.098-.875-.293-1.246a2.332 2.332 0 0 0-.77-.906 1.797 1.797 0 0 0-2.117.004c-.32.218-.574.515-.77.902a2.762 2.762 0 0 0-.28 1.246c0 .453.093.867.28 1.246.196.375.45.668.77.89.32.231.672.345 1.058.345Zm0-1.465a.814.814 0 0 1-.617-.297 1.085 1.085 0 0 1-.254-.719c0-.289.086-.531.254-.738.16-.2.383-.313.617-.309.239 0 .446.102.622.309.168.191.265.46.261.738 0 .281-.09.52-.261.719a.803.803 0 0 1-.622.297Zm.16-2.89L3.282.968a.748.748 0 0 0-.46-.406.653.653 0 0 0-.59.09.909.909 0 0 0-.348.55 1.02 1.02 0 0 0 .086.664l8.84 17.797Zm0 0"/></svg>