<?xml version="1.0" encoding="UTF-8"?>
<svg xmlns="http://www.w3.org/2000/svg" xmlns:xlink="http://www.w3.org/1999/xlink" width="24" height="17" viewBox="0 0 24 17" version="1.1">
<g id="surface1">
<path style=" stroke:none;fill-rule:nonzero;fill:rgb(100%,100%,100%);fill-opacity:1;" d="M 12 12.210938 C 12.488281 12.210938 13.007812 12.261719 13.554688 12.359375 C 14.101562 12.457031 14.636719 12.597656 15.15625 12.773438 C 15.683594 12.949219 16.15625 13.152344 16.578125 13.382812 C 16.761719 13.476562 16.941406 13.507812 17.117188 13.476562 C 17.300781 13.441406 17.449219 13.347656 17.570312 13.195312 L 22.984375 6.28125 C 23.246094 5.949219 23.355469 5.613281 23.3125 5.28125 C 23.277344 4.941406 23.089844 4.644531 22.757812 4.382812 C 22.332031 4.050781 21.828125 3.734375 21.25 3.4375 C 20.675781 3.140625 20.050781 2.871094 19.375 2.625 C 19.480469 2.832031 19.570312 3.039062 19.648438 3.242188 C 19.730469 3.441406 19.800781 3.636719 19.851562 3.835938 C 19.902344 4.035156 19.941406 4.226562 19.960938 4.414062 C 20.261719 4.542969 20.554688 4.683594 20.835938 4.835938 C 21.117188 4.980469 21.386719 5.140625 21.648438 5.3125 C 21.753906 5.378906 21.808594 5.460938 21.820312 5.554688 C 21.835938 5.644531 21.804688 5.738281 21.726562 5.835938 L 17.007812 11.851562 C 16.933594 11.949219 16.867188 12.007812 16.804688 12.023438 C 16.746094 12.039062 16.667969 12.027344 16.570312 11.984375 C 15.800781 11.660156 15.015625 11.410156 14.21875 11.234375 C 13.421875 11.050781 12.683594 10.960938 12 10.960938 C 11.3125 10.960938 10.570312 11.050781 9.773438 11.234375 C 8.980469 11.410156 8.199219 11.660156 7.421875 11.984375 C 7.324219 12.027344 7.246094 12.039062 7.1875 12.023438 C 7.128906 12.007812 7.0625 11.949219 6.984375 11.851562 L 2.265625 5.835938 C 2.191406 5.738281 2.160156 5.644531 2.171875 5.554688 C 2.1875 5.460938 2.246094 5.378906 2.351562 5.3125 C 3.246094 4.746094 4.214844 4.261719 5.257812 3.867188 C 6.304688 3.472656 7.394531 3.167969 8.53125 2.960938 C 9.671875 2.753906 10.828125 2.648438 12 2.648438 C 12.238281 2.648438 12.480469 2.65625 12.71875 2.671875 C 12.964844 2.683594 13.207031 2.699219 13.453125 2.71875 C 13.472656 2.652344 13.519531 2.542969 13.59375 2.390625 C 13.671875 2.238281 13.753906 2.082031 13.84375 1.914062 C 13.9375 1.746094 14.019531 1.605469 14.085938 1.492188 C 13.738281 1.460938 13.386719 1.4375 13.039062 1.421875 C 12.695312 1.402344 12.347656 1.390625 12 1.390625 C 10.902344 1.390625 9.824219 1.46875 8.773438 1.625 C 7.722656 1.777344 6.722656 1.988281 5.78125 2.257812 C 4.84375 2.527344 3.988281 2.847656 3.210938 3.210938 C 2.441406 3.570312 1.78125 3.960938 1.234375 4.382812 C 0.90625 4.644531 0.722656 4.941406 0.679688 5.28125 C 0.636719 5.613281 0.75 5.949219 1.015625 6.28125 L 6.429688 13.195312 C 6.542969 13.347656 6.691406 13.441406 6.875 13.476562 C 7.058594 13.507812 7.238281 13.476562 7.414062 13.382812 C 7.835938 13.152344 8.308594 12.949219 8.835938 12.773438 C 9.363281 12.597656 9.894531 12.457031 10.4375 12.359375 C 10.984375 12.261719 11.503906 12.210938 12 12.210938 Z M 12.132812 13.601562 L 4.742188 0.953125 C 4.660156 0.808594 4.53125 0.714844 4.359375 0.671875 C 4.191406 0.625 4.027344 0.644531 3.867188 0.726562 C 3.722656 0.816406 3.628906 0.945312 3.585938 1.117188 C 3.542969 1.285156 3.566406 1.441406 3.65625 1.59375 L 11.015625 14.195312 Z M 12 16.6875 C 12.316406 16.6875 12.609375 16.605469 12.875 16.445312 C 13.140625 16.289062 13.355469 16.078125 13.515625 15.8125 C 13.675781 15.546875 13.757812 15.253906 13.757812 14.929688 C 13.757812 14.605469 13.675781 14.308594 13.515625 14.039062 C 13.359375 13.773438 13.144531 13.5625 12.875 13.40625 C 12.609375 13.246094 12.316406 13.164062 12 13.164062 C 11.675781 13.164062 11.382812 13.246094 11.117188 13.40625 C 10.851562 13.5625 10.636719 13.773438 10.476562 14.039062 C 10.316406 14.308594 10.234375 14.605469 10.234375 14.929688 C 10.234375 15.253906 10.3125 15.546875 10.46875 15.8125 C 10.628906 16.078125 10.84375 16.289062 11.109375 16.445312 C 11.375 16.605469 11.671875 16.6875 12 16.6875 Z M 12 15.648438 C 11.796875 15.648438 11.625 15.578125 11.484375 15.4375 C 11.34375 15.296875 11.273438 15.128906 11.273438 14.929688 C 11.273438 14.726562 11.34375 14.550781 11.484375 14.40625 C 11.625 14.261719 11.796875 14.1875 12 14.1875 C 12.199219 14.1875 12.371094 14.261719 12.515625 14.40625 C 12.660156 14.558594 12.734375 14.730469 12.734375 14.929688 C 12.734375 15.128906 12.660156 15.296875 12.515625 15.4375 C 12.371094 15.578125 12.199219 15.648438 12 15.648438 Z M 16.429688 7.507812 C 17.195312 7.507812 17.808594 7.28125 18.273438 6.828125 C 18.742188 6.375 18.976562 5.777344 18.976562 5.03125 C 18.976562 4.660156 18.917969 4.316406 18.796875 4 C 18.675781 3.683594 18.5625 3.40625 18.453125 3.171875 C 18.25 2.734375 17.996094 2.261719 17.6875 1.75 C 17.386719 1.238281 17.09375 0.765625 16.8125 0.328125 C 16.703125 0.160156 16.574219 0.078125 16.429688 0.078125 C 16.285156 0.078125 16.15625 0.160156 16.046875 0.328125 C 15.765625 0.765625 15.472656 1.238281 15.164062 1.75 C 14.863281 2.261719 14.613281 2.734375 14.414062 3.171875 C 14.304688 3.40625 14.1875 3.683594 14.0625 4 C 13.941406 4.316406 13.882812 4.660156 13.882812 5.03125 C 13.882812 5.777344 14.113281 6.375 14.578125 6.828125 C 15.046875 7.28125 15.664062 7.507812 16.429688 7.507812 Z M 16.429688 7.507812 "/>
</g>
</svg>
