<svg xmlns="http://www.w3.org/2000/svg" width="24" height="24"><path style="stroke:none;fill-rule:nonzero;fill:#fff;fill-opacity:1" d="M2.594 22.73h14.105c.5 0 .91-.14 1.238-.418.333-.28.563-.664.688-1.156L23.25 3.52c.14-.524.152-.98.043-1.368a1.493 1.493 0 0 0-.648-.914c-.325-.226-.743-.332-1.25-.332H7.293c-.5 0-.918.137-1.25.418-.328.281-.555.66-.68 1.145L.738 20.117c-.136.52-.156.977-.05 1.371.109.395.328.696.656.91.328.223.742.332 1.25.332Zm-.188-2.46 2.043-7.73h6.469L8.699 20.94H2.918c-.215 0-.371-.054-.461-.175-.09-.106-.105-.274-.05-.496Zm2.489-9.48 1.96-7.403c.04-.2.137-.383.282-.52a.77.77 0 0 1 .52-.176h5.855l-2.137 8.098Zm5.53 10.155 2.212-8.406h6.531l-2.031 7.711a.968.968 0 0 1-.293.508.712.712 0 0 1-.512.187Zm2.657-10.156 2.148-8.098h5.844c.215 0 .367.059.457.176.09.11.11.278.051.496l-1.957 7.422Zm0 0"/></svg>