<svg width="18" height="17" viewBox="0 0 18 17" fill="none" xmlns="http://www.w3.org/2000/svg">
<path d="M0.34375 9.04688C0.130208 9.41667 0.0390625 9.77604 0.0703125 10.125C0.106771 10.4688 0.244792 10.763 0.484375 11.0078C0.723958 11.2474 1.04688 11.3958 1.45312 11.4531L1.6875 11.4609L0.914062 14.25C0.809896 14.6198 0.799479 14.9427 0.882812 15.2188C0.966146 15.5 1.1276 15.7161 1.36719 15.8672C1.61198 16.0234 1.92448 16.1016 2.30469 16.1016H12.8906C13.25 16.1016 13.5547 16.0026 13.8047 15.8047C14.0547 15.6068 14.2292 15.3333 14.3281 14.9844L17.8203 2.84375C17.9401 2.42708 17.9583 2.05208 17.875 1.71875C17.7917 1.38542 17.6146 1.1224 17.3438 0.929688C17.0781 0.736979 16.7266 0.640625 16.2891 0.640625H6.23438C5.89062 0.640625 5.61719 0.684896 5.41406 0.773438C5.21094 0.861979 5.03906 0.997396 4.89844 1.17969C4.75781 1.35677 4.60938 1.58073 4.45312 1.85156L0.34375 9.04688ZM1.55469 9.38281L3.15625 6.60156H8.07031L6.00781 10.2188H2.03125C1.74479 10.2188 1.55729 10.1432 1.46875 9.99219C1.38542 9.83594 1.41406 9.63281 1.55469 9.38281ZM3.85938 5.38281L5.64062 2.27344C5.72396 2.13281 5.8099 2.03646 5.89844 1.98438C5.98698 1.92708 6.10677 1.89844 6.25781 1.89844H10.7656L8.78125 5.38281H3.85938ZM7.4375 10.2188L9.5 6.60156H14.2656L12.4062 9.85156C12.3281 9.99219 12.2422 10.0885 12.1484 10.1406C12.0599 10.1927 11.9375 10.2188 11.7812 10.2188H7.4375ZM10.2031 5.38281L12.1797 1.89844H16.0156C16.2969 1.89844 16.4792 1.97917 16.5625 2.14062C16.651 2.29688 16.625 2.4974 16.4844 2.74219L14.9766 5.38281H10.2031ZM2.16406 14.3594L2.96875 11.4766H11.8047C12.1536 11.4766 12.4297 11.4323 12.6328 11.3438C12.8359 11.2552 13.0052 11.1224 13.1406 10.9453C13.2812 10.7682 13.4297 10.5443 13.5859 10.2734L15.2578 7.32031L13.2188 14.3438C13.1198 14.6719 12.9167 14.8359 12.6094 14.8359H2.54688C2.38542 14.8359 2.27083 14.7943 2.20312 14.7109C2.13542 14.6328 2.1224 14.5156 2.16406 14.3594ZM12.5312 15.6562L13.6562 15.0859L11.8125 10.6875L10.6719 11.2188L12.5312 15.6562Z" fill="white"/>
</svg>
