<svg width="131" height="134" viewBox="0 0 131 134" fill="none" xmlns="http://www.w3.org/2000/svg">
<path d="M9.3125 80.375H121.5C124.292 80.375 126.438 79.375 127.938 77.375C129.479 75.375 130 72.75 129.5 69.5L120.688 10.0625C120.229 7.22917 119.188 4.9375 117.562 3.1875C115.938 1.4375 113.646 0.5625 110.688 0.5625H20.125C17.1667 0.5625 14.8542 1.4375 13.1875 3.1875C11.5625 4.9375 10.5417 7.22917 10.125 10.0625L1.3125 69.5C0.8125 72.75 1.3125 75.375 2.8125 77.375C4.35417 79.375 6.52083 80.375 9.3125 80.375ZM12.1875 68.0625L15.5625 44.5H60.4375L60.3125 70.3125H14.125C13.5 70.3125 12.9792 70.1042 12.5625 69.6875C12.1875 69.2292 12.0625 68.6875 12.1875 68.0625ZM16.8125 36L20.1875 12.5625C20.3958 11.2708 21.0417 10.625 22.125 10.625H60.75L60.5 36H16.8125ZM69.875 10.625H108.688C109.771 10.625 110.417 11.2708 110.625 12.5625L114 36H70.0625L69.875 10.625ZM70.125 44.5H115.188L118.625 68.0625C118.75 68.6875 118.604 69.2292 118.188 69.6875C117.771 70.1042 117.25 70.3125 116.625 70.3125H70.3125L70.125 44.5ZM9.5625 75.25V128H19.625V75.25H9.5625ZM110.188 75.25V128H120.25V75.25H110.188ZM1.1875 128C1.1875 129.417 1.6875 130.625 2.6875 131.625C3.72917 132.667 4.95833 133.188 6.375 133.188H123.625C125.042 133.188 126.25 132.667 127.25 131.625C128.292 130.625 128.812 129.417 128.812 128C128.812 126.583 128.292 125.354 127.25 124.312C126.25 123.312 125.042 122.812 123.625 122.812H6.375C4.95833 122.812 3.72917 123.312 2.6875 124.312C1.6875 125.354 1.1875 126.583 1.1875 128Z" fill="white"/>
</svg>
