<?xml version="1.0" encoding="UTF-8"?>
<svg xmlns="http://www.w3.org/2000/svg" xmlns:xlink="http://www.w3.org/1999/xlink" width="24" height="25.5" viewBox="0 0 24 25.5" version="1.1">
<g id="surface1">
<path style=" stroke:none;fill-rule:nonzero;fill:rgb(100%,100%,100%);fill-opacity:1;" d="M 12 24.503906 C 13.632812 24.503906 15.167969 24.191406 16.605469 23.566406 C 18.050781 22.941406 19.324219 22.078125 20.425781 20.976562 C 21.527344 19.875 22.390625 18.605469 23.015625 17.167969 C 23.640625 15.722656 23.953125 14.183594 23.953125 12.550781 C 23.953125 10.917969 23.640625 9.382812 23.015625 7.945312 C 22.390625 6.5 21.527344 5.226562 20.425781 4.125 C 19.324219 3.023438 18.050781 2.160156 16.605469 1.535156 C 15.160156 0.910156 13.621094 0.597656 11.988281 0.597656 C 10.355469 0.597656 8.816406 0.910156 7.371094 1.535156 C 5.933594 2.160156 4.664062 3.023438 3.5625 4.125 C 2.46875 5.226562 1.609375 6.5 0.984375 7.945312 C 0.359375 9.382812 0.046875 10.917969 0.046875 12.550781 C 0.046875 14.183594 0.359375 15.722656 0.984375 17.167969 C 1.609375 18.605469 2.472656 19.875 3.574219 20.976562 C 4.675781 22.078125 5.945312 22.941406 7.382812 23.566406 C 8.828125 24.191406 10.367188 24.503906 12 24.503906 Z M 5.320312 10.59375 C 5.125 10.65625 4.949219 10.648438 4.792969 10.570312 C 4.644531 10.492188 4.546875 10.371094 4.5 10.207031 C 4.445312 10.042969 4.453125 9.886719 4.523438 9.738281 C 4.601562 9.589844 4.738281 9.488281 4.933594 9.433594 C 5.480469 9.261719 6.050781 9.121094 6.644531 9.011719 C 7.246094 8.902344 7.847656 8.847656 8.449219 8.847656 C 8.910156 8.847656 9.339844 8.867188 9.738281 8.90625 C 10.136719 8.945312 10.519531 8.984375 10.886719 9.023438 C 11.261719 9.0625 11.652344 9.082031 12.058594 9.082031 C 12.378906 9.082031 12.628906 8.996094 12.808594 8.824219 C 12.996094 8.652344 13.089844 8.417969 13.089844 8.121094 C 13.089844 7.816406 13 7.582031 12.820312 7.417969 C 12.640625 7.246094 12.417969 7.160156 12.152344 7.160156 C 11.941406 7.160156 11.757812 7.21875 11.601562 7.335938 C 11.445312 7.445312 11.328125 7.585938 11.25 7.757812 C 11.164062 7.945312 11.039062 8.066406 10.875 8.121094 C 10.71875 8.167969 10.566406 8.152344 10.417969 8.074219 C 10.246094 7.996094 10.140625 7.875 10.101562 7.710938 C 10.0625 7.546875 10.082031 7.390625 10.160156 7.242188 C 10.316406 6.875 10.574219 6.566406 10.933594 6.316406 C 11.300781 6.066406 11.707031 5.941406 12.152344 5.941406 C 12.746094 5.941406 13.257812 6.148438 13.6875 6.5625 C 14.117188 6.96875 14.332031 7.488281 14.332031 8.121094 C 14.332031 8.738281 14.125 9.257812 13.710938 9.679688 C 13.296875 10.09375 12.746094 10.300781 12.058594 10.300781 C 11.636719 10.300781 11.234375 10.285156 10.851562 10.253906 C 10.46875 10.214844 10.082031 10.179688 9.691406 10.148438 C 9.308594 10.109375 8.894531 10.089844 8.449219 10.089844 C 7.925781 10.089844 7.402344 10.132812 6.878906 10.21875 C 6.355469 10.296875 5.835938 10.421875 5.320312 10.59375 Z M 16.699219 14.027344 C 15.863281 14.027344 15.050781 13.921875 14.261719 13.710938 C 13.480469 13.492188 12.671875 13.277344 11.835938 13.066406 C 11.007812 12.855469 10.113281 12.75 9.152344 12.75 C 8.433594 12.75 7.761719 12.800781 7.136719 12.902344 C 6.511719 13.003906 5.90625 13.167969 5.320312 13.394531 C 5.125 13.464844 4.949219 13.460938 4.792969 13.382812 C 4.644531 13.296875 4.546875 13.171875 4.5 13.007812 C 4.445312 12.851562 4.457031 12.699219 4.535156 12.550781 C 4.613281 12.402344 4.742188 12.292969 4.921875 12.222656 C 5.578125 11.996094 6.257812 11.820312 6.960938 11.695312 C 7.664062 11.570312 8.394531 11.507812 9.152344 11.507812 C 10.136719 11.507812 11.0625 11.613281 11.929688 11.824219 C 12.796875 12.035156 13.625 12.25 14.414062 12.46875 C 15.203125 12.679688 15.964844 12.785156 16.699219 12.785156 C 17.261719 12.785156 17.703125 12.652344 18.023438 12.386719 C 18.351562 12.113281 18.515625 11.746094 18.515625 11.285156 C 18.515625 10.839844 18.371094 10.484375 18.082031 10.21875 C 17.800781 9.945312 17.449219 9.808594 17.027344 9.808594 C 16.675781 9.808594 16.371094 9.917969 16.113281 10.136719 C 15.863281 10.347656 15.707031 10.632812 15.644531 10.992188 C 15.613281 11.195312 15.527344 11.347656 15.386719 11.449219 C 15.246094 11.550781 15.089844 11.589844 14.917969 11.566406 C 14.761719 11.542969 14.632812 11.464844 14.53125 11.332031 C 14.429688 11.191406 14.394531 11.019531 14.425781 10.816406 C 14.511719 10.183594 14.792969 9.652344 15.269531 9.222656 C 15.753906 8.792969 16.339844 8.578125 17.027344 8.578125 C 17.777344 8.578125 18.417969 8.835938 18.949219 9.351562 C 19.480469 9.859375 19.746094 10.503906 19.746094 11.285156 C 19.746094 12.082031 19.460938 12.738281 18.890625 13.253906 C 18.320312 13.769531 17.589844 14.027344 16.699219 14.027344 Z M 12.070312 19.160156 C 11.46875 19.160156 10.976562 18.972656 10.59375 18.597656 C 10.210938 18.222656 9.988281 17.765625 9.925781 17.226562 C 9.902344 17.054688 9.933594 16.890625 10.019531 16.734375 C 10.105469 16.570312 10.261719 16.480469 10.488281 16.464844 C 10.683594 16.449219 10.839844 16.503906 10.957031 16.628906 C 11.082031 16.753906 11.15625 16.894531 11.179688 17.050781 C 11.273438 17.644531 11.570312 17.941406 12.070312 17.941406 C 12.320312 17.941406 12.53125 17.863281 12.703125 17.707031 C 12.882812 17.542969 12.972656 17.308594 12.972656 17.003906 C 12.972656 16.511719 12.644531 16.121094 11.988281 15.832031 C 11.339844 15.542969 10.359375 15.398438 9.046875 15.398438 C 8.398438 15.398438 7.757812 15.457031 7.125 15.574219 C 6.5 15.683594 5.898438 15.84375 5.320312 16.054688 C 5.125 16.125 4.949219 16.117188 4.792969 16.03125 C 4.644531 15.9375 4.546875 15.808594 4.5 15.644531 C 4.4375 15.496094 4.445312 15.347656 4.523438 15.199219 C 4.609375 15.050781 4.742188 14.945312 4.921875 14.882812 C 5.554688 14.664062 6.230469 14.492188 6.949219 14.367188 C 7.675781 14.242188 8.375 14.179688 9.046875 14.179688 C 10.703125 14.179688 11.976562 14.421875 12.867188 14.90625 C 13.757812 15.390625 14.203125 16.089844 14.203125 17.003906 C 14.203125 17.636719 13.996094 18.15625 13.582031 18.5625 C 13.167969 18.960938 12.664062 19.160156 12.070312 19.160156 Z M 12.070312 19.160156 "/>
</g>
</svg>
