<?xml version="1.0" encoding="UTF-8"?>
<svg xmlns="http://www.w3.org/2000/svg" xmlns:xlink="http://www.w3.org/1999/xlink" width="24" height="25.5" viewBox="0 0 24 25.5" version="1.1">
<g id="surface1">
<path style=" stroke:none;fill-rule:nonzero;fill:rgb(100%,100%,100%);fill-opacity:1;" d="M 0.0234375 24 C 0.0234375 24.265625 0.117188 24.492188 0.304688 24.679688 C 0.5 24.875 0.730469 24.972656 0.996094 24.972656 L 22.992188 24.972656 C 23.257812 24.972656 23.484375 24.875 23.671875 24.679688 C 23.867188 24.492188 23.964844 24.265625 23.964844 24 C 23.964844 23.734375 23.867188 23.503906 23.671875 23.308594 C 23.484375 23.121094 23.257812 23.027344 22.992188 23.027344 L 22.359375 23.027344 L 22.359375 1.851562 C 22.359375 1.328125 22.191406 0.90625 21.855469 0.585938 C 21.527344 0.265625 21.09375 0.105469 20.554688 0.105469 L 3.398438 0.105469 C 2.859375 0.105469 2.421875 0.265625 2.085938 0.585938 C 1.757812 0.90625 1.59375 1.328125 1.59375 1.851562 L 1.59375 23.027344 L 0.996094 23.027344 C 0.730469 23.027344 0.5 23.121094 0.304688 23.308594 C 0.117188 23.503906 0.0234375 23.734375 0.0234375 24 Z M 3.492188 11.589844 L 3.492188 2.308594 C 3.492188 2.097656 3.589844 1.992188 3.785156 1.992188 L 11.214844 1.992188 L 11.214844 11.589844 Z M 12.75 11.589844 L 12.75 1.992188 L 20.167969 1.992188 C 20.363281 1.992188 20.460938 2.097656 20.460938 2.308594 L 20.460938 11.589844 Z M 3.492188 23.027344 L 3.492188 13.476562 L 11.214844 13.476562 L 11.214844 23.027344 Z M 12.75 23.027344 L 12.75 13.476562 L 20.460938 13.476562 L 20.460938 23.027344 Z M 12.75 23.027344 "/>
</g>
</svg>
