<svg width="16" height="17" viewBox="0 0 16 17" fill="none" xmlns="http://www.w3.org/2000/svg">
<path d="M8 16.3281C9.08854 16.3281 10.112 16.1198 11.0703 15.7031C12.0339 15.2865 12.8828 14.7109 13.6172 13.9766C14.3516 13.2422 14.9271 12.3958 15.3438 11.4375C15.7604 10.474 15.9688 9.44792 15.9688 8.35938C15.9688 7.27083 15.7604 6.2474 15.3438 5.28906C14.9271 4.32552 14.3516 3.47656 13.6172 2.74219C12.8828 2.00781 12.0339 1.43229 11.0703 1.01562C10.1068 0.598958 9.08073 0.390625 7.99219 0.390625C6.90365 0.390625 5.8776 0.598958 4.91406 1.01562C3.95573 1.43229 3.10938 2.00781 2.375 2.74219C1.64583 3.47656 1.07292 4.32552 0.65625 5.28906C0.239583 6.2474 0.03125 7.27083 0.03125 8.35938C0.03125 9.44792 0.239583 10.474 0.65625 11.4375C1.07292 12.3958 1.64844 13.2422 2.38281 13.9766C3.11719 14.7109 3.96354 15.2865 4.92188 15.7031C5.88542 16.1198 6.91146 16.3281 8 16.3281ZM8 15C7.07812 15 6.21615 14.8281 5.41406 14.4844C4.61198 14.1406 3.90625 13.6667 3.29688 13.0625C2.69271 12.4531 2.21875 11.7474 1.875 10.9453C1.53646 10.1432 1.36719 9.28125 1.36719 8.35938C1.36719 7.4375 1.53646 6.57552 1.875 5.77344C2.21875 4.97135 2.69271 4.26562 3.29688 3.65625C3.90104 3.04688 4.60417 2.57292 5.40625 2.23438C6.20833 1.89062 7.07031 1.71875 7.99219 1.71875C8.91406 1.71875 9.77604 1.89062 10.5781 2.23438C11.3854 2.57292 12.0911 3.04688 12.6953 3.65625C13.3047 4.26562 13.7812 4.97135 14.125 5.77344C14.4688 6.57552 14.6406 7.4375 14.6406 8.35938C14.6406 9.28125 14.4688 10.1432 14.125 10.9453C13.7865 11.7474 13.3125 12.4531 12.7031 13.0625C12.0938 13.6667 11.388 14.1406 10.5859 14.4844C9.78385 14.8281 8.92188 15 8 15ZM3.38281 7.46094C3.71615 7.35156 4.05208 7.27083 4.39062 7.21875C4.73438 7.16146 5.07292 7.13281 5.40625 7.13281C5.69792 7.13281 5.96875 7.14583 6.21875 7.17188C6.46875 7.19271 6.71615 7.21615 6.96094 7.24219C7.21094 7.26302 7.47396 7.27344 7.75 7.27344C8.19792 7.27344 8.55469 7.13802 8.82031 6.86719C9.08594 6.59635 9.21875 6.26042 9.21875 5.85938C9.21875 5.44792 9.08073 5.11198 8.80469 4.85156C8.52865 4.58594 8.19792 4.45312 7.8125 4.45312C7.52083 4.45312 7.25781 4.53385 7.02344 4.69531C6.78906 4.85677 6.61979 5.05729 6.51562 5.29688C6.47396 5.39062 6.46354 5.49219 6.48438 5.60156C6.51042 5.70573 6.57812 5.78385 6.6875 5.83594C6.78646 5.88281 6.88542 5.89062 6.98438 5.85938C7.08854 5.82292 7.16927 5.74479 7.22656 5.625C7.27865 5.51562 7.35417 5.42448 7.45312 5.35156C7.55729 5.27865 7.67708 5.24219 7.8125 5.24219C7.98438 5.24219 8.1276 5.29688 8.24219 5.40625C8.36198 5.51042 8.42188 5.66146 8.42188 5.85938C8.42188 6.05729 8.36198 6.21094 8.24219 6.32031C8.1224 6.42969 7.95833 6.48438 7.75 6.48438C7.48958 6.48438 7.23698 6.47396 6.99219 6.45312C6.7526 6.42708 6.50521 6.40104 6.25 6.375C5.99479 6.34896 5.71354 6.33594 5.40625 6.33594C5.02083 6.33594 4.63281 6.36979 4.24219 6.4375C3.85677 6.50521 3.48958 6.59635 3.14062 6.71094C3.01042 6.7474 2.92188 6.8151 2.875 6.91406C2.82812 7.00781 2.82292 7.10677 2.85938 7.21094C2.88542 7.3151 2.94792 7.39323 3.04688 7.44531C3.14583 7.4974 3.25781 7.5026 3.38281 7.46094ZM10.75 9.67969C11.3229 9.67969 11.7943 9.51302 12.1641 9.17969C12.5391 8.84635 12.7266 8.42188 12.7266 7.90625C12.7266 7.40104 12.5547 6.98438 12.2109 6.65625C11.8672 6.32292 11.4531 6.15625 10.9688 6.15625C10.5208 6.15625 10.1406 6.29688 9.82812 6.57812C9.51562 6.85417 9.33333 7.19792 9.28125 7.60938C9.26042 7.73438 9.28125 7.84375 9.34375 7.9375C9.41146 8.02604 9.4974 8.07552 9.60156 8.08594C9.71094 8.10156 9.8099 8.07812 9.89844 8.01562C9.98698 7.94792 10.0443 7.84635 10.0703 7.71094C10.1068 7.48177 10.2057 7.29948 10.3672 7.16406C10.5339 7.02344 10.7344 6.95312 10.9688 6.95312C11.2396 6.95312 11.4661 7.03906 11.6484 7.21094C11.8307 7.38281 11.9219 7.61458 11.9219 7.90625C11.9219 8.20312 11.8177 8.4401 11.6094 8.61719C11.401 8.78906 11.1146 8.875 10.75 8.875C10.276 8.875 9.78385 8.80729 9.27344 8.67188C8.76302 8.53646 8.22656 8.40104 7.66406 8.26562C7.10156 8.125 6.5 8.05469 5.85938 8.05469C5.375 8.05469 4.90365 8.09635 4.44531 8.17969C3.99219 8.25781 3.55469 8.36979 3.13281 8.51562C3.01302 8.55729 2.92708 8.6276 2.875 8.72656C2.82812 8.82552 2.82292 8.92448 2.85938 9.02344C2.88542 9.1276 2.94792 9.20573 3.04688 9.25781C3.14583 9.3099 3.26042 9.3151 3.39062 9.27344C3.77083 9.1276 4.16146 9.02083 4.5625 8.95312C4.96354 8.88542 5.39583 8.85156 5.85938 8.85156C6.48438 8.85156 7.0651 8.92188 7.60156 9.0625C8.14323 9.19792 8.66667 9.33594 9.17188 9.47656C9.68229 9.61198 10.2083 9.67969 10.75 9.67969ZM7.75 13C8.13542 13 8.46094 12.8698 8.72656 12.6094C8.9974 12.349 9.13281 12.013 9.13281 11.6016C9.13281 11.013 8.84375 10.5625 8.26562 10.25C7.69271 9.93229 6.8724 9.77344 5.80469 9.77344C5.36719 9.77344 4.91406 9.8151 4.44531 9.89844C3.97656 9.97656 3.53646 10.0859 3.125 10.2266C3.01042 10.2734 2.92708 10.3464 2.875 10.4453C2.82812 10.5391 2.82292 10.6328 2.85938 10.7266C2.88542 10.8307 2.94792 10.9115 3.04688 10.9688C3.14583 11.026 3.26042 11.0339 3.39062 10.9922C3.76042 10.8568 4.14844 10.7526 4.55469 10.6797C4.96094 10.6016 5.3776 10.5625 5.80469 10.5625C6.65365 10.5625 7.28646 10.6562 7.70312 10.8438C8.125 11.0312 8.33594 11.2839 8.33594 11.6016C8.33594 11.7995 8.27865 11.9505 8.16406 12.0547C8.05469 12.1536 7.91667 12.2031 7.75 12.2031C7.43229 12.2031 7.24219 12.013 7.17969 11.6328C7.15885 11.5339 7.10938 11.4453 7.03125 11.3672C6.95312 11.2839 6.85156 11.2474 6.72656 11.2578C6.58594 11.2682 6.48698 11.3255 6.42969 11.4297C6.3724 11.5286 6.35156 11.6354 6.36719 11.75C6.41406 12.0938 6.5599 12.388 6.80469 12.6328C7.04948 12.8776 7.36458 13 7.75 13ZM10.9688 5.57812C11.0312 5.57812 11.0807 5.55469 11.1172 5.50781C11.1589 5.45573 11.1771 5.39844 11.1719 5.33594L11.1484 4.86719L11.5391 5.13281C11.5859 5.16927 11.6406 5.18229 11.7031 5.17188C11.7656 5.15625 11.8125 5.1224 11.8438 5.07031C11.8802 5.02344 11.8906 4.96615 11.875 4.89844C11.8594 4.83073 11.8177 4.78125 11.75 4.75L11.3281 4.54688L11.75 4.32812C11.8125 4.29688 11.8516 4.2526 11.8672 4.19531C11.8828 4.13802 11.8776 4.08073 11.8516 4.02344C11.8255 3.96615 11.7786 3.93229 11.7109 3.92188C11.6432 3.91146 11.5859 3.92188 11.5391 3.95312L11.1484 4.22656L11.1719 3.76562C11.1771 3.69271 11.1589 3.63281 11.1172 3.58594C11.0807 3.53906 11.0312 3.51562 10.9688 3.51562C10.901 3.51562 10.8464 3.53906 10.8047 3.58594C10.763 3.63281 10.7448 3.6901 10.75 3.75781L10.7734 4.22656L10.375 3.95312C10.3281 3.92188 10.2734 3.91146 10.2109 3.92188C10.1484 3.93229 10.1042 3.96615 10.0781 4.02344C10.0469 4.07031 10.0365 4.125 10.0469 4.1875C10.0625 4.25 10.1042 4.29948 10.1719 4.33594L10.5859 4.54688L10.1719 4.75C10.1042 4.78125 10.0625 4.82812 10.0469 4.89062C10.0365 4.95312 10.0443 5.01042 10.0703 5.0625C10.0964 5.11979 10.1406 5.15625 10.2031 5.17188C10.2708 5.18229 10.3281 5.16927 10.375 5.13281L10.7734 4.86719L10.7578 5.33594C10.7526 5.39844 10.7682 5.45573 10.8047 5.50781C10.8464 5.55469 10.901 5.57812 10.9688 5.57812ZM10.8125 11.9219C10.8542 11.9219 10.888 11.9062 10.9141 11.875C10.9401 11.8438 10.9531 11.8073 10.9531 11.7656L10.9297 11.5547L11.1016 11.6875C11.1328 11.7083 11.1693 11.7135 11.2109 11.7031C11.2578 11.6927 11.2891 11.6745 11.3047 11.6484C11.3307 11.6172 11.3385 11.5781 11.3281 11.5312C11.3229 11.4792 11.2969 11.4427 11.25 11.4219L11.0469 11.3359L11.25 11.2344C11.2969 11.2135 11.3229 11.1849 11.3281 11.1484C11.3333 11.1068 11.3307 11.0703 11.3203 11.0391C11.2995 10.9974 11.2656 10.9714 11.2188 10.9609C11.1719 10.9505 11.1328 10.9557 11.1016 10.9766L10.9297 11.125L10.9531 10.9062C10.9531 10.8594 10.9401 10.8229 10.9141 10.7969C10.888 10.7656 10.8542 10.75 10.8125 10.75C10.7656 10.75 10.7266 10.7656 10.6953 10.7969C10.6693 10.8229 10.6562 10.8568 10.6562 10.8984L10.6797 11.125L10.5 10.9766C10.4688 10.9557 10.4323 10.9505 10.3906 10.9609C10.349 10.9714 10.3177 10.9974 10.2969 11.0391C10.2812 11.0599 10.2734 11.0938 10.2734 11.1406C10.2786 11.1823 10.3073 11.2161 10.3594 11.2422L10.5547 11.3359L10.3594 11.4219C10.3073 11.4427 10.2786 11.4766 10.2734 11.5234C10.2734 11.5651 10.2786 11.6016 10.2891 11.6328C10.3047 11.6745 10.3359 11.7005 10.3828 11.7109C10.4297 11.7161 10.4688 11.7083 10.5 11.6875L10.6797 11.5547L10.6641 11.7656C10.6641 11.8073 10.6771 11.8438 10.7031 11.875C10.7292 11.9062 10.7656 11.9219 10.8125 11.9219Z" fill="white"/>
</svg>
