<svg width="93" height="150" viewBox="0 0 93 150" fill="none" xmlns="http://www.w3.org/2000/svg">
<path d="M46.5625 149.312C57.8958 149.312 66.7708 147.958 73.1875 145.25C79.6042 142.583 82.8125 138.854 82.8125 134.062C82.8125 129.646 80.0208 126.125 74.4375 123.5C68.8958 120.875 61.1875 119.354 51.3125 118.938V92.125C59.5625 91.5417 66.75 89.4792 72.875 85.9375C79.0417 82.3958 83.8125 77.6667 87.1875 71.75C90.6042 65.8333 92.3125 59 92.3125 51.25C92.3125 46.9583 91.75 42.3542 90.625 37.4375C89.5 32.4792 87.9375 27.5833 85.9375 22.75C83.9375 17.875 81.625 13.4167 79 9.375C77.1667 6.5 73.3958 4.29167 67.6875 2.75C62.0208 1.20833 55 0.4375 46.625 0.4375C38.2083 0.4375 31.1458 1.20833 25.4375 2.75C19.7708 4.29167 16 6.5 14.125 9.375C11.5 13.4167 9.1875 17.875 7.1875 22.75C5.22917 27.5833 3.6875 32.4792 2.5625 37.4375C1.47917 42.3542 0.9375 46.9583 0.9375 51.25C0.9375 59.0417 2.625 65.8958 6 71.8125C9.41667 77.7292 14.1875 82.4583 20.3125 86C26.4375 89.5 33.6458 91.5417 41.9375 92.125V118.938C32.0208 119.312 24.2708 120.812 18.6875 123.438C13.1458 126.104 10.375 129.646 10.375 134.062C10.375 138.896 13.5625 142.646 19.9375 145.312C26.3542 147.979 35.2292 149.312 46.5625 149.312ZM46.625 15.875C41.875 15.875 37.7083 15.7292 34.125 15.4375C30.5417 15.1042 27.75 14.6667 25.75 14.125C23.7917 13.5833 22.8125 13 22.8125 12.375C22.8125 11.7917 23.8125 11.25 25.8125 10.75C27.8125 10.2083 30.5833 9.79167 34.125 9.5C37.7083 9.16667 41.875 9 46.625 9C51.3333 9 55.4792 9.16667 59.0625 9.5C62.6458 9.79167 65.4375 10.2083 67.4375 10.75C69.4375 11.25 70.4375 11.7917 70.4375 12.375C70.4375 13 69.4375 13.5833 67.4375 14.125C65.4375 14.6667 62.6458 15.1042 59.0625 15.4375C55.4792 15.7292 51.3333 15.875 46.625 15.875Z" fill="white"/>
</svg>
