<svg width="16" height="15" viewBox="0 0 16 15" fill="none" xmlns="http://www.w3.org/2000/svg">
<path d="M3.25781 14.5625H12.7344C13.5521 14.5625 14.1641 14.3594 14.5703 13.9531C14.9818 13.5521 15.1875 12.9479 15.1875 12.1406V2.60156C15.1875 1.79427 14.9818 1.1901 14.5703 0.789062C14.1641 0.382812 13.5521 0.179688 12.7344 0.179688H3.25781C2.4401 0.179688 1.82552 0.382812 1.41406 0.789062C1.00781 1.1901 0.804688 1.79427 0.804688 2.60156V12.1406C0.804688 12.9479 1.00781 13.5521 1.41406 13.9531C1.82552 14.3594 2.4401 14.5625 3.25781 14.5625ZM3.27344 13.3047C2.88281 13.3047 2.58333 13.2031 2.375 13C2.16667 12.7917 2.0625 12.4844 2.0625 12.0781V2.66406C2.0625 2.25781 2.16667 1.95312 2.375 1.75C2.58333 1.54167 2.88281 1.4375 3.27344 1.4375H12.7188C13.1042 1.4375 13.401 1.54167 13.6094 1.75C13.8229 1.95312 13.9297 2.25781 13.9297 2.66406V12.0781C13.9297 12.4844 13.8229 12.7917 13.6094 13C13.401 13.2031 13.1042 13.3047 12.7188 13.3047H3.27344ZM4.64844 7.21094C4.64844 7.32031 4.6849 7.41406 4.75781 7.49219C4.83073 7.5651 4.92188 7.60156 5.03125 7.60156H5.50781L6.00781 10.7578C6.03385 10.9089 6.09896 11.026 6.20312 11.1094C6.30729 11.1927 6.42969 11.2344 6.57031 11.2344C6.71094 11.2344 6.83073 11.1953 6.92969 11.1172C7.03385 11.0391 7.09896 10.9219 7.125 10.7656L7.64844 7.59375H8.35156L8.89844 10.7656C8.92448 10.9219 8.98698 11.0391 9.08594 11.1172C9.1901 11.1953 9.3125 11.2344 9.45312 11.2344C9.59375 11.2344 9.71615 11.1953 9.82031 11.1172C9.92448 11.0339 9.98958 10.9141 10.0156 10.7578L10.5078 7.59375H10.9688C11.0833 7.59375 11.1745 7.55729 11.2422 7.48438C11.3151 7.40625 11.3516 7.3125 11.3516 7.20312C11.3516 7.09375 11.3151 7.0026 11.2422 6.92969C11.1745 6.85677 11.0833 6.82031 10.9688 6.82031H10.6328L11.0156 4.35156C11.0208 4.3099 11.026 4.27344 11.0312 4.24219C11.0365 4.20573 11.0391 4.16667 11.0391 4.125C11.0391 3.98958 10.9922 3.88281 10.8984 3.80469C10.8099 3.72656 10.6979 3.6875 10.5625 3.6875C10.4427 3.6875 10.3333 3.72135 10.2344 3.78906C10.1406 3.85677 10.0859 3.96094 10.0703 4.10156L9.71875 6.82031H9.03125L8.58594 4.19531C8.5599 4.03385 8.48958 3.91146 8.375 3.82812C8.26562 3.73958 8.13802 3.69531 7.99219 3.69531C7.84635 3.69531 7.71875 3.73958 7.60938 3.82812C7.50521 3.91146 7.4401 4.03646 7.41406 4.20312L6.96094 6.82812H6.30469L5.96094 4.10938C5.94531 3.97396 5.89062 3.8724 5.79688 3.80469C5.70312 3.73177 5.59375 3.69531 5.46875 3.69531C5.32292 3.69531 5.20312 3.73698 5.10938 3.82031C5.01562 3.89844 4.96875 4.00521 4.96875 4.14062C4.96875 4.1875 4.97135 4.23177 4.97656 4.27344C4.98698 4.3099 4.99479 4.34635 5 4.38281L5.38281 6.82812H5.03125C4.92188 6.82812 4.83073 6.86458 4.75781 6.9375C4.6849 7.01042 4.64844 7.10156 4.64844 7.21094ZM6.39844 7.58594H6.85938L6.59375 9.42188L6.39844 7.58594ZM7.78906 6.82812L8.00781 5.29688L8.23438 6.82812H7.78906ZM9.14844 7.58594H9.64062L9.42969 9.46875L9.14844 7.58594Z" fill="white"/>
</svg>
