<svg xmlns="http://www.w3.org/2000/svg" width="24" height="24"><path style="stroke:none;fill-rule:nonzero;fill:#fff;fill-opacity:1" d="M4.887 23.3h14.215c1.226 0 2.144-.323 2.753-.976.618-.64.926-1.605.926-2.898V4.164c0-1.293-.308-2.258-.926-2.898-.609-.653-1.527-.977-2.753-.977H4.887c-1.227 0-2.149.324-2.766.977-.61.64-.914 1.605-.914 2.898v15.262c0 1.293.305 2.258.914 2.902.617.649 1.54.973 2.766.973Zm1.922-11.777c0-.18.054-.332.164-.449a.577.577 0 0 1 .433-.187h.54l-.587-4.024-.046-.187A1.98 1.98 0 0 1 7.3 6.46c0-.23.074-.414.222-.547.16-.14.36-.21.563-.203.187 0 .355.059.504.176.148.117.234.289.258.511l.527 4.489h1.02l.69-4.325c.04-.273.142-.484.306-.625a.875.875 0 0 1 .597-.222c.227 0 .426.074.598.223.18.14.289.347.328.613l.68 4.324h1.066l.54-4.488a.704.704 0 0 1 .257-.512.8.8 0 0 1 .504-.176c.219 0 .398.067.539.2.14.124.21.3.21.527 0 .074-.003.14-.01.199l-.024.176-.598 4.074h.516c.18 0 .324.063.433.188a.63.63 0 0 1 .164.449.733.733 0 0 1-.164.465.563.563 0 0 1-.433.187h-.715l-.762 5.211a.963.963 0 0 1-.305.602.856.856 0 0 1-.562.199.886.886 0 0 1-.574-.2c-.156-.132-.254-.331-.293-.59l-.844-5.222h-1.078l-.809 5.223c-.039.27-.14.468-.304.601a.896.896 0 0 1-.563.188.886.886 0 0 1-.574-.2c-.156-.144-.254-.343-.293-.601l-.773-5.2h-.739a.577.577 0 0 1-.433-.187.733.733 0 0 1-.164-.465Zm2.718.63.293 3.023.41-3.024Zm2.145-1.266h.691l-.351-2.524Zm2.11 1.265.433 3.098.316-3.098Zm0 0"/></svg>