<svg xmlns="http://www.w3.org/2000/svg" width="24" height="24"><path style="stroke:none;fill-rule:nonzero;fill:#fff;fill-opacity:1" d="M4.887 23.3h14.215c1.226 0 2.144-.323 2.753-.976.618-.64.926-1.605.926-2.898V4.164c0-1.293-.308-2.258-.926-2.898-.609-.653-1.527-.977-2.753-.977H4.887c-1.227 0-2.149.324-2.766.977-.61.64-.914 1.605-.914 2.898v15.262c0 1.293.305 2.258.914 2.902.617.649 1.54.973 2.766.973Zm.023-2.01c-.586 0-1.035-.165-1.348-.49-.312-.335-.468-.823-.468-1.476V4.262c0-.649.156-1.137.469-1.461.312-.336.761-.5 1.347-.5h14.168c.578 0 1.024.164 1.336.5.32.324.48.812.48 1.46v15.063c0 .653-.16 1.14-.48 1.477-.312.324-.758.488-1.336.488Zm2.063-9.75c0 .17.054.323.164.448.11.117.246.176.41.176h.715l.75 5.047c.039.242.136.43.293.562.156.137.34.204.55.204.211 0 .391-.063.54-.188.156-.125.253-.312.293-.566l.785-5.07h1.054l.82 5.07c.04.254.133.437.282.566.156.125.34.188.55.188.212 0 .395-.063.551-.188a.92.92 0 0 0 .293-.578l.739-5.059h.691a.536.536 0 0 0 .41-.175.655.655 0 0 0 .164-.454.605.605 0 0 0-.164-.433.526.526 0 0 0-.41-.18h-.504l.574-3.95c.008-.065.016-.124.024-.17.008-.06.012-.122.012-.192a.659.659 0 0 0-.211-.512.735.735 0 0 0-.504-.188.81.81 0 0 0-.492.165c-.141.109-.223.273-.247.5l-.527 4.347h-1.031l-.668-4.2a.885.885 0 0 0-.316-.585.843.843 0 0 0-.575-.21.843.843 0 0 0-.574.21c-.156.133-.254.332-.293.602l-.68 4.199h-.984l-.516-4.352c-.023-.215-.105-.379-.246-.488a.757.757 0 0 0-.492-.172.737.737 0 0 0-.539.2.653.653 0 0 0-.21.511c0 .074.003.145.01.21a1.4 1.4 0 0 1 .036.177l.574 3.914h-.527c-.164 0-.3.058-.41.176a.608.608 0 0 0-.164.433Zm2.625.597h.691l-.398 2.937Zm2.086-1.211.328-2.45.34 2.45Zm2.039 1.21h.738l-.316 3.012Zm0 0"/></svg>