<svg width="148" height="151" viewBox="0 0 148 151" fill="none" xmlns="http://www.w3.org/2000/svg">
<path d="M9.0625 141.75C12.4792 145.167 16.2917 147.438 20.5 148.562C24.75 149.729 29 149.625 33.25 148.25C37.5 146.917 41.375 144.271 44.875 140.312C47.6667 137.104 50.6042 133.271 53.6875 128.812C56.7708 124.354 60.0417 119.604 63.5 114.562C66.9583 109.521 70.6458 104.458 74.5625 99.375C78.4792 94.25 82.6875 89.4583 87.1875 85C89.4792 82.6667 91.8333 81 94.25 80C96.7083 78.9583 99.2083 78.2917 101.75 78C104.333 77.6667 106.979 77.4375 109.688 77.3125C112.396 77.1458 115.167 76.7917 118 76.25C120.875 75.6667 123.812 74.625 126.812 73.125C129.854 71.625 132.958 69.3333 136.125 66.25C138.708 63.7917 140.854 61.0833 142.562 58.125C144.312 55.1667 145.521 52.1875 146.188 49.1875C146.896 46.1458 147 43.3542 146.5 40.8125L122.5 47.375C120.5 47.9167 118.792 47.625 117.375 46.5C116 45.375 115 43.7292 114.375 41.5625L112.562 35.25C111.938 33.0833 111.979 31.1875 112.688 29.5625C113.438 27.8958 114.812 26.7917 116.812 26.25L140.75 19.75C140.417 18.6667 139.771 17.4375 138.812 16.0625C137.854 14.6458 136.729 13.2708 135.438 11.9375C131.812 8.22917 127.708 5.45833 123.125 3.625C118.542 1.75 113.812 0.791667 108.938 0.75C104.104 0.666667 99.4167 1.45833 94.875 3.125C90.375 4.79167 86.375 7.27083 82.875 10.5625C79.4167 13.8958 76.8333 17.2292 75.125 20.5625C73.4583 23.8542 72.3333 27.1458 71.75 30.4375C71.2083 33.7292 70.8958 36.9583 70.8125 40.125C70.7708 43.25 70.6667 46.2917 70.5 49.25C70.3333 52.1667 69.7917 54.9583 68.875 57.625C68 60.25 66.4167 62.7083 64.125 65C60.0417 69.0833 55.5625 73 50.6875 76.75C45.8125 80.4583 40.8958 84 35.9375 87.375C30.9792 90.75 26.2917 93.9792 21.875 97.0625C17.4583 100.146 13.6458 103.104 10.4375 105.938C6.4375 109.396 3.77083 113.25 2.4375 117.5C1.10417 121.75 1 125.979 2.125 130.188C3.29167 134.438 5.60417 138.292 9.0625 141.75ZM15 135.75C12.75 133.458 11.2708 130.875 10.5625 128C9.85417 125.167 9.95833 122.333 10.875 119.5C11.7917 116.625 13.5625 114.042 16.1875 111.75C19.4375 108.917 23.3542 105.896 27.9375 102.688C32.5208 99.4792 37.3542 96.1458 42.4375 92.6875C47.5208 89.1875 52.4792 85.625 57.3125 82C62.1458 78.3333 66.4167 74.6458 70.125 70.9375C72.7917 68.2292 74.6667 65.4375 75.75 62.5625C76.875 59.6875 77.5625 56.75 77.8125 53.75C78.0625 50.7083 78.1875 47.625 78.1875 44.5C78.1875 41.375 78.3958 38.25 78.8125 35.125C79.2708 32 80.25 28.875 81.75 25.75C83.25 22.625 85.6458 19.5417 88.9375 16.5C91.6042 14.0417 94.7083 12.2083 98.25 11C101.833 9.75 105.542 9.16667 109.375 9.25C113.208 9.33333 116.938 10.0833 120.562 11.5C124.188 12.9167 127.438 15.0417 130.312 17.875L132.375 14.125L115.125 18.625C110.542 19.8333 107.312 22.1042 105.438 25.4375C103.604 28.7708 103.375 32.8125 104.75 37.5625L106.5 43.625C108 48.9167 110.25 52.3958 113.25 54.0625C116.292 55.7292 119.896 56 124.062 54.875L141.875 50.0625L138.125 48.0625C137.458 50.3125 136.5 52.5625 135.25 54.8125C134.042 57.0208 132.458 59.1042 130.5 61.0625C127.375 64.0625 124.167 66.1458 120.875 67.3125C117.625 68.4375 114.333 69.125 111 69.375C107.667 69.625 104.312 69.8958 100.938 70.1875C97.5625 70.4792 94.2292 71.2292 90.9375 72.4375C87.6458 73.6458 84.3958 75.8333 81.1875 79C77.1042 83.0833 73.1458 87.6458 69.3125 92.6875C65.4792 97.6875 61.7917 102.792 58.25 108C54.7083 113.208 51.3333 118.125 48.125 122.75C44.9167 127.375 41.8958 131.312 39.0625 134.562C36.6875 137.271 34.0625 139.083 31.1875 140C28.3125 140.958 25.4583 141.062 22.625 140.312C19.7917 139.562 17.25 138.042 15 135.75ZM89.75 62.0625L103.312 58.4375C103.854 58.3125 104.271 57.9792 104.562 57.4375C104.896 56.8542 104.979 56.2708 104.812 55.6875C104.688 55.1042 104.354 54.6667 103.812 54.375C103.312 54.0417 102.75 53.9792 102.125 54.1875L88.625 57.8125C87.2917 58.1458 86.7708 59.0208 87.0625 60.4375C87.1458 61.1042 87.4583 61.5833 88 61.875C88.5833 62.1667 89.1667 62.2292 89.75 62.0625ZM88.125 55.1875L101.5 51.625C102.083 51.4583 102.521 51.125 102.812 50.625C103.146 50.0833 103.229 49.4792 103.062 48.8125C102.896 48.2292 102.542 47.7917 102 47.5C101.5 47.2083 100.958 47.125 100.375 47.25L86.875 50.9375C86.2917 51.0625 85.8333 51.3958 85.5 51.9375C85.2083 52.4792 85.1458 53.0208 85.3125 53.5625C85.7292 55.0625 86.6667 55.6042 88.125 55.1875ZM86.4375 48.3125L99.875 44.75C100.458 44.5833 100.896 44.2292 101.188 43.6875C101.521 43.1458 101.583 42.5625 101.375 41.9375C101.25 41.3542 100.917 40.9167 100.375 40.625C99.8333 40.2917 99.2917 40.2083 98.75 40.375L85.1875 44C84.6042 44.1667 84.1667 44.5208 83.875 45.0625C83.5833 45.6042 83.5208 46.1458 83.6875 46.6875C83.8542 47.3542 84.1875 47.8333 84.6875 48.125C85.1875 48.4167 85.7708 48.4792 86.4375 48.3125ZM114.312 72.125L119.938 70.875L112.125 42.5L106.5 43.625L114.312 72.125ZM26.75 131.812C28.875 131.812 30.6875 131.062 32.1875 129.562C33.6875 128.062 34.4375 126.25 34.4375 124.125C34.4375 122 33.6875 120.188 32.1875 118.688C30.6875 117.146 28.875 116.375 26.75 116.375C24.625 116.375 22.7917 117.146 21.25 118.688C19.75 120.188 19 122 19 124.125C19 126.25 19.75 128.062 21.25 129.562C22.7917 131.062 24.625 131.812 26.75 131.812Z" fill="white"/>
</svg>
