<svg xmlns="http://www.w3.org/2000/svg" width="24" height="24"><path style="stroke:none;fill-rule:nonzero;fill:#fff;fill-opacity:1" d="M2.242 22.383c.512.535 1.082.898 1.715 1.074a3.101 3.101 0 0 0 1.91-.047c.64-.21 1.219-.629 1.746-1.254.418-.508.86-1.113 1.32-1.82.465-.703.954-1.45 1.473-2.246.52-.797 1.07-1.598 1.66-2.399a20.754 20.754 0 0 1 1.895-2.27c.344-.37.695-.632 1.059-.788a3.81 3.81 0 0 1 1.125-.317c.386-.054.785-.09 1.19-.109a9.51 9.51 0 0 0 1.247-.168c.461-.101.902-.266 1.32-.492.457-.238.922-.602 1.399-1.086a5.68 5.68 0 0 0 .965-1.285c.261-.469.445-.938.543-1.41.105-.48.12-.918.046-1.325l-3.597 1.04c-.301.085-.559.039-.77-.137-.207-.18-.355-.442-.449-.782l-.273-.996c-.094-.343-.086-.64.02-.898.112-.266.316-.438.616-.523l3.59-1.028a2.11 2.11 0 0 0-.289-.578 4.9 4.9 0 0 0-.508-.656A5.37 5.37 0 0 0 19.352.57a5.494 5.494 0 0 0-2.13-.453 5.58 5.58 0 0 0-2.109.375 5.266 5.266 0 0 0-1.8 1.176c-.52.527-.907 1.055-1.165 1.582a5.688 5.688 0 0 0-.503 1.555c-.082.52-.13 1.03-.141 1.53-.008.493-.024.974-.047 1.442-.023.45-.105.895-.246 1.325a2.95 2.95 0 0 1-.711 1.16 20.447 20.447 0 0 1-2.016 1.855c-.73.59-1.468 1.149-2.21 1.676-.747.535-1.45 1.047-2.11 1.531a19.64 19.64 0 0 0-1.719 1.403c-.597.546-1 1.156-1.199 1.824a3.716 3.716 0 0 0-.047 2.004c.176.672.524 1.277 1.043 1.828Zm.89-.95a2.597 2.597 0 0 1-.667-1.222c-.106-.445-.09-.91.047-1.34.136-.457.402-.863.797-1.226A21.22 21.22 0 0 1 5.07 16.21c.688-.504 1.414-1.031 2.176-1.578a65.368 65.368 0 0 0 2.23-1.684 18.901 18.901 0 0 0 1.922-1.75c.403-.426.684-.867.844-1.324.172-.45.274-.914.313-1.387.035-.484.054-.968.054-1.46 0-.493.032-.989.094-1.481a5.3 5.3 0 0 1 .442-1.48c.222-.493.582-.981 1.078-1.462.402-.39.875-.687 1.394-.87a4.514 4.514 0 0 1 1.672-.274c.574.012 1.14.133 1.676.355A4.36 4.36 0 0 1 20.43 2.82l.308-.593-2.59.714c-.687.192-1.171.551-1.453 1.075-.273.527-.308 1.164-.101 1.914l.261.957c.227.836.563 1.386 1.012 1.648.457.266 1 .305 1.625.13l2.672-.763-.562-.312c-.11.37-.254.726-.434 1.066-.18.348-.418.676-.711.985-.469.476-.95.804-1.445.988-.489.176-.98.285-1.48.324-.5.043-1.005.082-1.509.129a5.386 5.386 0 0 0-1.5.355c-.496.192-.984.536-1.464 1.04a20.553 20.553 0 0 0-1.782 2.156 54.002 54.002 0 0 0-1.66 2.418c-.504.781-1.008 1.558-1.515 2.332a22.714 22.714 0 0 1-1.36 1.863c-.36.426-.75.715-1.183.86-.43.152-.86.167-1.286.05a2.462 2.462 0 0 1-1.14-.722ZM14.345 9.802l2.035-.574a.279.279 0 0 0 .187-.157.345.345 0 0 0 .036-.277.284.284 0 0 0-.149-.207.267.267 0 0 0-.254-.027l-2.023.57c-.2.055-.278.191-.235.414a.275.275 0 0 0 .141.227.326.326 0 0 0 .262.03Zm-.242-1.086 2.003-.563a.32.32 0 0 0 .2-.156.375.375 0 0 0 .035-.289.318.318 0 0 0-.16-.207.345.345 0 0 0-.242-.043l-2.024.586a.332.332 0 0 0-.207.156.348.348 0 0 0-.027.258c.062.238.203.324.422.258Zm-.254-1.086 2.015-.563a.315.315 0 0 0 .196-.164.325.325 0 0 0 .027-.28.292.292 0 0 0-.148-.208.269.269 0 0 0-.243-.039l-2.035.574a.33.33 0 0 0-.2.164.356.356 0 0 0-.026.262c.027.102.074.18.152.227a.325.325 0 0 0 .262.027Zm4.18 3.762.843-.196L17.7 6.711l-.844.176ZM4.894 20.812c.316 0 .59-.117.816-.355.223-.234.336-.523.336-.86 0-.331-.113-.62-.336-.855a1.073 1.073 0 0 0-.816-.367c-.32 0-.594.121-.825.367a1.17 1.17 0 0 0-.34.856c0 .336.114.625.34.859.23.238.504.36.825.36Zm0 0"/></svg>