<svg xmlns="http://www.w3.org/2000/svg" width="24" height="24"><path style="stroke:none;fill-rule:nonzero;fill:#fff;fill-opacity:1" d="m8.008 14.035.898-.93-6.215-6.57c-.34-.363-.507-.73-.507-1.098 0-.367.168-.734.507-1.093l1.32-1.403c.333-.355.676-.53 1.032-.523.363 0 .715.176 1.05.535l6.696 7.035.938-.883-6.649-7.043c-.656-.687-1.328-1.035-2.016-1.035-.687-.007-1.351.328-1.996 1.004L1.82 3.348C1.18 4.02.863 4.723.863 5.449c0 .715.328 1.418.985 2.11Zm-.61-4.394c.137.144.36.144.497 0a.363.363 0 0 0 .101-.258.36.36 0 0 0-.101-.254L4.387 5.438a.346.346 0 0 0-.242-.09.325.325 0 0 0-.254.09.473.473 0 0 0-.102.277c0 .101.031.191.102.254Zm1.153-1.204a.323.323 0 0 0 .254.106c.09 0 .175-.04.242-.105a.411.411 0 0 0 .101-.278.37.37 0 0 0-.093-.258L5.55 4.222a.314.314 0 0 0-.254-.097.3.3 0 0 0-.234.098.374.374 0 0 0 0 .515Zm12.066 15.141 1.676-1.77a.505.505 0 0 0 .133-.394.949.949 0 0 0-.153-.445l-1.957-3.078c-.214-.328-.492-.52-.836-.57l-.843-.141-4.547-4.785-.871 1.054 4.875 5.114 1.05.187 1.79 2.508-.852.898-2.371-1.886-.188-1.106-4.828-5.094-.883 1.047 4.399 4.621.129.887c.02.176.078.34.18.492.097.153.222.278.363.375l2.937 2.094a.691.691 0 0 0 .43.148.529.529 0 0 0 .367-.156ZM2.324 22.41c.543.57 1.133.945 1.762 1.137.64.195 1.273.2 1.906.012.637-.188 1.219-.559 1.75-1.13.344-.359.64-.741.883-1.14.242-.394.484-.832.723-1.305.238-.468.515-.996.832-1.578.328-.586.734-1.242 1.23-1.976a34.122 34.122 0 0 1 1.863-2.485 52.923 52.923 0 0 1 2.778-3.129l-.817-.867a67.346 67.346 0 0 0-2.992 3.332 37.755 37.755 0 0 0-1.902 2.5c-.48.703-.867 1.32-1.16 1.856-.297.531-.551 1.008-.77 1.433-.207.407-.437.805-.683 1.192a7.83 7.83 0 0 1-.938 1.183c-.52.555-1.105.832-1.754.832-.644 0-1.238-.277-1.781-.84-.54-.582-.809-1.21-.809-1.89 0-.672.262-1.285.782-1.832.39-.406.765-.738 1.125-.988.359-.254.742-.497 1.14-.72.406-.23.86-.5 1.36-.808a22.53 22.53 0 0 0 1.773-1.226c.676-.508 1.46-1.18 2.363-2.004.907-.824 1.961-1.88 3.168-3.145l-.816-.86a52.418 52.418 0 0 1-2.973 2.923c-.875.789-1.66 1.441-2.36 1.965a27.35 27.35 0 0 1-1.874 1.28c-.559.333-1.063.63-1.512.891-.441.25-.855.5-1.238.758-.39.262-.754.57-1.078.918-.535.563-.895 1.18-1.078 1.848a3.778 3.778 0 0 0 .011 2c.188.672.551 1.293 1.086 1.863Zm2.672-1.566c.32 0 .59-.121.816-.367.231-.239.348-.52.348-.86 0-.332-.117-.62-.348-.86a1.097 1.097 0 0 0-.816-.35c-.316 0-.59.116-.816.35a1.22 1.22 0 0 0-.336.86c0 .34.113.621.336.86.226.242.5.367.816.367Zm8.992-10.719a5.469 5.469 0 0 0 1.801 1.281c.649.29 1.344.446 2.05.465.7.012 1.38-.11 2.036-.375a4.943 4.943 0 0 0 1.762-1.21 5.267 5.267 0 0 0 1.21-2.052c.25-.777.333-1.582.255-2.41a6.022 6.022 0 0 0-.743-2.39l-.91.968c.262.567.41 1.149.442 1.758.03.59-.051 1.18-.243 1.735-.445 1.289-1.48 2.25-2.75 2.558-1.457.344-2.98-.129-4.03-1.246a4.617 4.617 0 0 1-1.134-2 4.715 4.715 0 0 1-.054-2.25 3.999 3.999 0 0 1 1.047-1.945 3.709 3.709 0 0 1 2.214-1.157 3.821 3.821 0 0 1 2.473.438l.922-.969a5.19 5.19 0 0 0-2.25-.781 5.073 5.073 0 0 0-2.29.27 4.8 4.8 0 0 0-1.94 1.28 5.256 5.256 0 0 0-1.16 1.848 5.922 5.922 0 0 0-.36 2.137 6.24 6.24 0 0 0 .434 2.156c.273.692.68 1.329 1.218 1.891Zm2.84-4.43 1.387 1.453c.351.368.73.555 1.137.559.406.008.773-.164 1.105-.512l1.969-2.082-.824-.86-1.793 1.868c-.282.305-.563.305-.844 0L17.82 4.906c-.297-.324-.312-.625-.047-.91l1.813-1.883-.856-.87-1.949 2.062c-.351.363-.52.757-.508 1.187.016.426.2.828.555 1.203Zm0 0"/></svg>