<svg xmlns="http://www.w3.org/2000/svg" width="24" height="24"><path style="stroke:none;fill-rule:nonzero;fill:#fff;fill-opacity:1" d="M12 23.05c1.633 0 3.168-.292 4.605-.882a12.22 12.22 0 0 0 3.82-2.438 11.467 11.467 0 0 0 2.59-3.582c.626-1.363.938-2.808.938-4.347a10.2 10.2 0 0 0-.937-4.332 11.53 11.53 0 0 0-2.59-3.598 12.361 12.361 0 0 0-3.82-2.437A12.166 12.166 0 0 0 11.987.55c-1.633 0-3.172.293-4.617.883A12.307 12.307 0 0 0 3.562 3.87 11.523 11.523 0 0 0 .985 7.465 10.2 10.2 0 0 0 .047 11.8c0 1.539.312 2.984.937 4.347a11.467 11.467 0 0 0 2.59 3.582 12.236 12.236 0 0 0 3.809 2.438c1.445.59 2.984.883 4.617.883Zm-3.598-6.03a.915.915 0 0 1-.632-.235.723.723 0 0 1-.258-.562c0-.203.07-.403.21-.594l3.071-3.992-2.895-3.75c-.171-.219-.257-.442-.257-.66a.76.76 0 0 1 .28-.598.97.97 0 0 1 .669-.254.982.982 0 0 1 .504.121c.14.074.281.203.422.387l2.566 3.508h.059l2.53-3.496c.126-.192.255-.325.388-.399a.978.978 0 0 1 .492-.121c.258 0 .472.078.644.234a.72.72 0 0 1 .27.57.949.949 0 0 1-.235.61l-3.046 3.902 3.023 3.895c.148.168.23.375.234.594a.77.77 0 0 1-.27.61c-.179.151-.41.23-.69.23a1.02 1.02 0 0 1-.481-.11 1.988 1.988 0 0 1-.422-.418l-2.601-3.5h-.047l-2.614 3.496c-.156.2-.296.34-.421.422a.969.969 0 0 1-.493.11Zm0 0"/></svg>