<svg width="128" height="128" viewBox="0 0 128 128" fill="none" xmlns="http://www.w3.org/2000/svg">
<path d="M63.9375 127.625C72.6458 127.625 80.8333 125.958 88.5 122.625C96.2083 119.292 103 114.688 108.875 108.812C114.75 102.938 119.354 96.1667 122.688 88.5C126.021 80.7917 127.688 72.5833 127.688 63.875C127.688 55.1667 126.021 46.9792 122.688 39.3125C119.354 31.6042 114.75 24.8125 108.875 18.9375C103 13.0625 96.2083 8.45833 88.5 5.125C80.7917 1.79167 72.5833 0.125 63.875 0.125C55.1667 0.125 46.9583 1.79167 39.25 5.125C31.5833 8.45833 24.8125 13.0625 18.9375 18.9375C13.1042 24.8125 8.52083 31.6042 5.1875 39.3125C1.85417 46.9792 0.1875 55.1667 0.1875 63.875C0.1875 72.5833 1.85417 80.7917 5.1875 88.5C8.52083 96.1667 13.125 102.938 19 108.812C24.875 114.688 31.6458 119.292 39.3125 122.625C47.0208 125.958 55.2292 127.625 63.9375 127.625ZM44.75 93.4375C43.4167 93.4375 42.2917 93 41.375 92.125C40.4583 91.25 40 90.1875 40 88.9375C40 87.7708 40.375 86.6458 41.125 85.5625L57.5 62.9375L42.0625 41.6875C41.1458 40.4375 40.6875 39.1875 40.6875 37.9375C40.6875 36.6042 41.1875 35.4792 42.1875 34.5625C43.1875 33.6042 44.375 33.125 45.75 33.125C46.8333 33.125 47.7292 33.3542 48.4375 33.8125C49.1875 34.2292 49.9375 34.9583 50.6875 36L64.375 55.875H64.6875L78.1875 36.0625C78.8542 34.9792 79.5417 34.2292 80.25 33.8125C81 33.3542 81.875 33.125 82.875 33.125C84.25 33.125 85.3958 33.5625 86.3125 34.4375C87.2708 35.3125 87.75 36.3958 87.75 37.6875C87.75 38.8958 87.3333 40.0417 86.5 41.125L70.25 63.25L86.375 85.3125C87.2083 86.3542 87.625 87.4792 87.625 88.6875C87.625 90.1042 87.1458 91.25 86.1875 92.125C85.2292 93 84 93.4375 82.5 93.4375C81.5 93.4375 80.6458 93.2292 79.9375 92.8125C79.2708 92.3542 78.5208 91.5625 77.6875 90.4375L63.8125 70.625H63.5625L49.625 90.4375C48.7917 91.5625 48.0417 92.3542 47.375 92.8125C46.7083 93.2292 45.8333 93.4375 44.75 93.4375Z" fill="white"/>
</svg>
