<svg width="18" height="17" viewBox="0 0 18 17" fill="none" xmlns="http://www.w3.org/2000/svg">
<path d="M4.08594 8.58594C4.52865 7.8776 4.96094 7.21354 5.38281 6.59375C5.8099 5.97396 6.27083 5.36458 6.76562 4.76562C6.78646 4.74479 6.78646 4.72135 6.76562 4.69531C6.53125 4.46615 6.3099 4.25781 6.10156 4.07031C5.89844 3.8776 5.70573 3.71094 5.52344 3.57031C5.34635 3.42969 5.14323 3.28125 4.91406 3.125C4.6901 2.96354 4.45833 2.82812 4.21875 2.71875C3.98438 2.60417 3.76302 2.54688 3.55469 2.54688C3.4349 2.54688 3.35417 2.5651 3.3125 2.60156C2.94792 2.95573 2.61458 3.35677 2.3125 3.80469C2.01042 4.2474 1.75521 4.70833 1.54688 5.1875C1.11458 6.23438 0.898438 7.29167 0.898438 8.35938C0.898438 10.1562 1.44792 11.7891 2.54688 13.2578C2.55729 13.2682 2.56771 13.2708 2.57812 13.2656C2.59375 13.2604 2.59896 13.25 2.59375 13.2344C2.57292 13.1771 2.55729 13.1042 2.54688 13.0156C2.53646 12.9271 2.53125 12.8359 2.53125 12.7422C2.53125 12.3255 2.59896 11.9089 2.73438 11.4922C2.92708 10.9245 3.13281 10.4089 3.35156 9.94531C3.57031 9.47656 3.8151 9.02344 4.08594 8.58594ZM11.2266 4.76562C11.7214 5.36458 12.1797 5.97396 12.6016 6.59375C13.0286 7.21354 13.4609 7.8776 13.8984 8.58594C14.1745 9.02344 14.4219 9.47656 14.6406 9.94531C14.8594 10.4089 15.0651 10.9245 15.2578 11.4922C15.3932 11.9089 15.4609 12.3255 15.4609 12.7422C15.4609 12.8359 15.4557 12.9271 15.4453 13.0156C15.4349 13.1042 15.4193 13.1771 15.3984 13.2344C15.3932 13.25 15.3958 13.2604 15.4062 13.2656C15.4219 13.2708 15.4349 13.2682 15.4453 13.2578C16.5443 11.7891 17.0938 10.1562 17.0938 8.35938C17.0938 7.29167 16.8776 6.23438 16.4453 5.1875C16.237 4.70833 15.9818 4.2474 15.6797 3.80469C15.3776 3.35677 15.0443 2.95573 14.6797 2.60156C14.638 2.5651 14.5573 2.54688 14.4375 2.54688C14.2292 2.54688 14.0052 2.60417 13.7656 2.71875C13.5312 2.82812 13.2995 2.96354 13.0703 3.125C12.8464 3.28125 12.6458 3.42969 12.4688 3.57031C12.2865 3.71094 12.0911 3.8776 11.8828 4.07031C11.6745 4.25781 11.4557 4.46615 11.2266 4.69531C11.2057 4.72135 11.2057 4.74479 11.2266 4.76562ZM4.80469 1.42969C4.78906 1.4401 4.78125 1.45573 4.78125 1.47656C4.78646 1.4974 4.80208 1.50521 4.82812 1.5C5.00521 1.46354 5.1849 1.44531 5.36719 1.44531C5.70573 1.44531 6.04167 1.48958 6.375 1.57812C6.71354 1.66146 7.08073 1.78125 7.47656 1.9375C7.8151 2.06771 8.11979 2.20312 8.39062 2.34375C8.51562 2.40625 8.6224 2.46354 8.71094 2.51562C8.80469 2.5625 8.88021 2.60156 8.9375 2.63281C8.97396 2.65365 9.01302 2.65365 9.05469 2.63281C9.11198 2.60156 9.1849 2.5625 9.27344 2.51562C9.36719 2.46354 9.47656 2.40625 9.60156 2.34375C9.8724 2.20312 10.1745 2.06771 10.5078 1.9375C10.9089 1.78125 11.276 1.66146 11.6094 1.57812C11.9479 1.48958 12.2865 1.44531 12.625 1.44531C12.8073 1.44531 12.987 1.46354 13.1641 1.5C13.1901 1.50521 13.2031 1.4974 13.2031 1.47656C13.2083 1.45573 13.2031 1.4401 13.1875 1.42969C12.875 1.2474 12.5573 1.08594 12.2344 0.945312C11.9167 0.804688 11.5885 0.6875 11.25 0.59375C10.5625 0.369792 9.8099 0.257812 8.99219 0.257812C8.17969 0.257812 7.42969 0.369792 6.74219 0.59375C6.40365 0.6875 6.07292 0.804688 5.75 0.945312C5.43229 1.08594 5.11719 1.2474 4.80469 1.42969ZM3.42188 13.8125C3.42188 13.9375 3.44531 14.0547 3.49219 14.1641C3.54427 14.2734 3.64323 14.3958 3.78906 14.5312C4.40885 15.1042 5.17969 15.5677 6.10156 15.9219C7.02344 16.276 7.98698 16.4531 8.99219 16.4531C10.0026 16.4531 10.9688 16.276 11.8906 15.9219C12.8125 15.5677 13.5833 15.1042 14.2031 14.5312C14.3438 14.3958 14.4401 14.2734 14.4922 14.1641C14.5443 14.0547 14.5703 13.9375 14.5703 13.8125C14.5703 13.5052 14.4766 13.1667 14.2891 12.7969C14.1068 12.375 13.8568 11.9401 13.5391 11.4922C13.2266 11.0391 12.9089 10.6198 12.5859 10.2344C12.0339 9.59375 11.4609 8.97656 10.8672 8.38281C10.2786 7.78385 9.6849 7.26302 9.08594 6.82031C9.03906 6.78906 9.00781 6.77344 8.99219 6.77344C8.97656 6.77344 8.94792 6.78906 8.90625 6.82031C8.30729 7.26302 7.71094 7.78385 7.11719 8.38281C6.52865 8.97656 5.95833 9.59375 5.40625 10.2344C5.08333 10.6198 4.76302 11.0391 4.44531 11.4922C4.13281 11.9401 3.88542 12.375 3.70312 12.7969C3.51562 13.1667 3.42188 13.5052 3.42188 13.8125Z" fill="white"/>
</svg>
