<svg xmlns="http://www.w3.org/2000/svg" width="24" height="24"><path style="stroke:none;fill-rule:nonzero;fill:#fff;fill-opacity:1" d="M3.89 23.285h16.22c.988 0 1.726-.32 2.21-.973.489-.64.735-1.605.735-2.886V4.152c0-1.289-.246-2.25-.735-2.902-.484-.652-1.222-.973-2.21-.973H3.89c-.98 0-1.718.32-2.21.973-.489.64-.735 1.61-.735 2.902v15.274c0 1.281.246 2.246.735 2.887.492.652 1.23.972 2.21.972Zm4.962-6.25c-.204.004-.403-.101-.547-.297A1.225 1.225 0 0 1 8.082 16c0-.281.074-.527.223-.723l2.61-3.476-2.61-3.461a1.224 1.224 0 0 1-.223-.727c0-.289.074-.535.223-.726.144-.196.343-.305.547-.297.203 0 .386.09.543.285l2.613 3.473 2.637-3.485c.14-.195.332-.304.535-.3.21 0 .39.097.543.3.144.192.226.453.222.727 0 .281-.074.523-.222.734l-2.618 3.477 2.606 3.46c.152.184.226.43.226.739 0 .277-.078.54-.226.734-.145.196-.344.305-.55.301-.208.012-.411-.098-.556-.297l-2.597-3.476-2.586 3.476c-.152.196-.36.305-.57.297Zm0 0"/></svg>