<?xml version="1.0" encoding="UTF-8"?>
<svg xmlns="http://www.w3.org/2000/svg" xmlns:xlink="http://www.w3.org/1999/xlink" width="24" height="18" viewBox="0 0 24 18" version="1.1">
<g id="surface1">
<path style=" stroke:none;fill-rule:nonzero;fill:rgb(100%,100%,100%);fill-opacity:1;" d="M 7.070312 17.476562 L 16.914062 17.476562 C 17.835938 17.476562 18.523438 17.253906 18.976562 16.808594 C 19.425781 16.371094 19.71875 15.695312 19.855469 14.773438 L 21.367188 4.574219 L 19.855469 4.667969 L 18.355469 14.757812 C 18.289062 15.21875 18.128906 15.550781 17.878906 15.75 C 17.632812 15.957031 17.304688 16.058594 16.894531 16.058594 L 7.097656 16.058594 C 6.679688 16.058594 6.347656 15.957031 6.101562 15.75 C 5.859375 15.550781 5.703125 15.21875 5.632812 14.757812 L 4.132812 4.667969 L 2.625 4.574219 L 4.132812 14.773438 C 4.273438 15.699219 4.566406 16.382812 5.015625 16.820312 C 5.464844 17.257812 6.148438 17.476562 7.070312 17.476562 Z M 2.53125 5.371094 L 21.460938 5.371094 C 22.035156 5.371094 22.476562 5.203125 22.78125 4.867188 C 23.085938 4.527344 23.242188 4.074219 23.242188 3.507812 L 23.242188 2.082031 C 23.242188 1.507812 23.085938 1.054688 22.78125 0.722656 C 22.476562 0.382812 22.035156 0.214844 21.460938 0.214844 L 2.53125 0.214844 C 1.980469 0.214844 1.546875 0.382812 1.226562 0.722656 C 0.910156 1.054688 0.75 1.507812 0.75 2.082031 L 0.75 3.507812 C 0.75 4.074219 0.902344 4.527344 1.210938 4.867188 C 1.515625 5.203125 1.957031 5.371094 2.53125 5.371094 Z M 2.914062 3.957031 C 2.679688 3.957031 2.507812 3.902344 2.410156 3.796875 C 2.308594 3.691406 2.257812 3.523438 2.257812 3.289062 L 2.257812 2.296875 C 2.257812 2.058594 2.308594 1.890625 2.410156 1.789062 C 2.507812 1.683594 2.679688 1.632812 2.914062 1.632812 L 21.085938 1.632812 C 21.316406 1.632812 21.480469 1.683594 21.582031 1.789062 C 21.679688 1.890625 21.730469 2.058594 21.730469 2.296875 L 21.730469 3.289062 C 21.730469 3.523438 21.679688 3.691406 21.582031 3.796875 C 21.480469 3.902344 21.316406 3.957031 21.085938 3.957031 Z M 9.273438 14.089844 C 9.460938 14.089844 9.625 14.015625 9.769531 13.867188 L 11.992188 11.652344 L 14.210938 13.867188 C 14.28125 13.929688 14.355469 13.980469 14.4375 14.023438 C 14.519531 14.070312 14.613281 14.089844 14.71875 14.089844 C 14.917969 14.089844 15.085938 14.019531 15.226562 13.875 C 15.367188 13.730469 15.441406 13.5625 15.441406 13.367188 C 15.441406 13.261719 15.417969 13.167969 15.375 13.085938 C 15.332031 13.007812 15.277344 12.929688 15.214844 12.863281 L 13.003906 10.640625 L 15.226562 8.410156 C 15.375 8.253906 15.449219 8.089844 15.449219 7.921875 C 15.449219 7.714844 15.378906 7.542969 15.234375 7.40625 C 15.097656 7.261719 14.925781 7.191406 14.71875 7.191406 C 14.550781 7.191406 14.386719 7.265625 14.230469 7.414062 L 11.992188 9.648438 L 9.757812 7.425781 C 9.609375 7.28125 9.445312 7.210938 9.273438 7.210938 C 9.070312 7.210938 8.898438 7.277344 8.757812 7.414062 C 8.617188 7.554688 8.550781 7.722656 8.550781 7.921875 C 8.550781 8.101562 8.625 8.269531 8.773438 8.417969 L 10.976562 10.640625 L 8.773438 12.871094 C 8.625 13.015625 8.550781 13.179688 8.550781 13.367188 C 8.550781 13.5625 8.617188 13.730469 8.757812 13.875 C 8.898438 14.019531 9.070312 14.089844 9.273438 14.089844 Z M 9.273438 14.089844 "/>
</g>
</svg>
