<?xml version="1.0" encoding="UTF-8"?>
<svg xmlns="http://www.w3.org/2000/svg" xmlns:xlink="http://www.w3.org/1999/xlink" width="24" height="22.5" viewBox="0 0 24 22.5" version="1.1">
<g id="surface1">
<path style=" stroke:none;fill-rule:nonzero;fill:rgb(100%,100%,100%);fill-opacity:1;" d="M 21.433594 1.6875 C 20.832031 1.085938 20.117188 0.707031 19.289062 0.550781 C 18.460938 0.386719 17.546875 0.304688 16.546875 0.304688 L 7.417969 0.304688 C 6.433594 0.304688 5.527344 0.386719 4.699219 0.550781 C 3.878906 0.707031 3.167969 1.085938 2.566406 1.6875 C 1.972656 2.28125 1.59375 2.988281 1.429688 3.808594 C 1.273438 4.628906 1.195312 5.53125 1.195312 6.515625 L 1.195312 15.5625 C 1.195312 16.5625 1.273438 17.476562 1.429688 18.304688 C 1.585938 19.125 1.964844 19.832031 2.566406 20.425781 C 3.167969 21.027344 3.878906 21.40625 4.699219 21.5625 C 5.527344 21.726562 6.441406 21.808594 7.441406 21.808594 L 16.546875 21.808594 C 17.546875 21.808594 18.460938 21.726562 19.289062 21.5625 C 20.117188 21.40625 20.832031 21.027344 21.433594 20.425781 C 22.027344 19.832031 22.402344 19.125 22.558594 18.304688 C 22.722656 17.476562 22.804688 16.5625 22.804688 15.5625 L 22.804688 6.550781 C 22.804688 5.550781 22.722656 4.640625 22.558594 3.820312 C 22.402344 2.992188 22.027344 2.28125 21.433594 1.6875 Z M 20.917969 6.222656 L 20.917969 15.878906 C 20.917969 16.488281 20.859375 17.082031 20.742188 17.660156 C 20.632812 18.230469 20.402344 18.695312 20.050781 19.054688 C 19.699219 19.40625 19.230469 19.636719 18.644531 19.746094 C 18.066406 19.863281 17.476562 19.921875 16.875 19.921875 L 7.125 19.921875 C 6.523438 19.921875 5.929688 19.863281 5.34375 19.746094 C 4.765625 19.636719 4.296875 19.40625 3.9375 19.054688 C 3.585938 18.695312 3.355469 18.230469 3.246094 17.660156 C 3.136719 17.082031 3.082031 16.488281 3.082031 15.878906 L 3.082031 6.257812 C 3.082031 5.640625 3.136719 5.042969 3.246094 4.464844 C 3.355469 3.878906 3.585938 3.410156 3.9375 3.058594 C 4.289062 2.699219 4.757812 2.464844 5.34375 2.355469 C 5.9375 2.246094 6.542969 2.191406 7.160156 2.191406 L 16.875 2.191406 C 17.476562 2.191406 18.066406 2.25 18.644531 2.367188 C 19.230469 2.476562 19.699219 2.707031 20.050781 3.058594 C 20.410156 3.417969 20.644531 3.886719 20.753906 4.464844 C 20.863281 5.035156 20.917969 5.621094 20.917969 6.222656 Z M 8.003906 15.996094 C 8.277344 15.996094 8.503906 15.898438 8.683594 15.703125 L 12 12.375 L 15.339844 15.703125 C 15.527344 15.898438 15.75 15.996094 16.007812 15.996094 C 16.265625 15.996094 16.484375 15.902344 16.664062 15.714844 C 16.851562 15.527344 16.945312 15.304688 16.945312 15.046875 C 16.945312 14.789062 16.851562 14.566406 16.664062 14.378906 L 13.335938 11.050781 L 16.675781 7.699219 C 16.863281 7.511719 16.957031 7.292969 16.957031 7.042969 C 16.957031 6.785156 16.863281 6.566406 16.675781 6.386719 C 16.496094 6.199219 16.277344 6.105469 16.019531 6.105469 C 15.777344 6.105469 15.5625 6.203125 15.375 6.398438 L 12 9.738281 L 8.660156 6.410156 C 8.488281 6.222656 8.269531 6.128906 8.003906 6.128906 C 7.746094 6.128906 7.523438 6.21875 7.335938 6.398438 C 7.15625 6.578125 7.066406 6.796875 7.066406 7.054688 C 7.066406 7.3125 7.160156 7.53125 7.347656 7.710938 L 10.675781 11.050781 L 7.347656 14.390625 C 7.160156 14.570312 7.066406 14.789062 7.066406 15.046875 C 7.066406 15.304688 7.15625 15.527344 7.335938 15.714844 C 7.523438 15.902344 7.746094 15.996094 8.003906 15.996094 Z M 8.003906 15.996094 "/>
</g>
</svg>
