<svg xmlns="http://www.w3.org/2000/svg" width="24" height="24"><path style="stroke:none;fill-rule:nonzero;fill:#fff;fill-opacity:1" d="M3.89 23.285h16.22c.988 0 1.726-.32 2.21-.973.489-.64.735-1.605.735-2.886V4.152c0-1.289-.246-2.25-.735-2.902-.484-.652-1.222-.973-2.21-.973H3.89c-.98 0-1.718.32-2.21.973-.489.64-.735 1.61-.735 2.902v15.274c0 1.281.246 2.246.735 2.887.492.652 1.23.972 2.21.972Zm.02-2.008c-.469 0-.828-.164-1.078-.492-.25-.332-.375-.82-.375-1.473V4.262c0-.649.125-1.14.375-1.477.25-.332.61-.5 1.078-.5h16.18c.465 0 .82.168 1.07.5.254.336.383.828.383 1.477v15.05c0 .653-.129 1.141-.383 1.473-.25.328-.605.492-1.07.492Zm4.902-4.215c.208.008.407-.109.543-.312l2.653-3.55 2.672 3.55c.136.2.332.313.535.313.2.003.39-.106.527-.301.145-.188.223-.442.223-.707a1.155 1.155 0 0 0-.223-.715l-2.664-3.555 2.672-3.57c.145-.184.227-.438.227-.703 0-.266-.082-.52-.227-.7-.137-.195-.324-.304-.523-.3-.196 0-.387.113-.516.312l-2.703 3.563L9.336 6.84c-.133-.2-.324-.309-.524-.3-.199-.005-.39.1-.535.284-.14.184-.218.442-.214.703-.004.266.078.52.226.7l2.66 3.562-2.66 3.563c-.148.18-.23.433-.226.703 0 .27.07.508.214.707.141.195.332.304.536.3Zm0 0"/></svg>