<?xml version="1.0" encoding="UTF-8"?>
<svg xmlns="http://www.w3.org/2000/svg" xmlns:xlink="http://www.w3.org/1999/xlink" width="24" height="25.5" viewBox="0 0 24 25.5" version="1.1">
<g id="surface1">
<path style=" stroke:none;fill-rule:nonzero;fill:rgb(100%,100%,100%);fill-opacity:1;" d="M 12 24.503906 C 13.632812 24.503906 15.167969 24.191406 16.605469 23.566406 C 18.050781 22.941406 19.324219 22.078125 20.425781 20.976562 C 21.527344 19.875 22.390625 18.605469 23.015625 17.167969 C 23.640625 15.722656 23.953125 14.183594 23.953125 12.550781 C 23.953125 10.917969 23.640625 9.382812 23.015625 7.945312 C 22.390625 6.5 21.527344 5.226562 20.425781 4.125 C 19.324219 3.023438 18.050781 2.160156 16.605469 1.535156 C 15.160156 0.910156 13.621094 0.597656 11.988281 0.597656 C 10.355469 0.597656 8.816406 0.910156 7.371094 1.535156 C 5.933594 2.160156 4.664062 3.023438 3.5625 4.125 C 2.46875 5.226562 1.609375 6.5 0.984375 7.945312 C 0.359375 9.382812 0.046875 10.917969 0.046875 12.550781 C 0.046875 14.183594 0.359375 15.722656 0.984375 17.167969 C 1.609375 18.605469 2.472656 19.875 3.574219 20.976562 C 4.675781 22.078125 5.945312 22.941406 7.382812 23.566406 C 8.828125 24.191406 10.367188 24.503906 12 24.503906 Z M 8.636719 19.277344 C 8.011719 19.277344 7.554688 19.117188 7.265625 18.796875 C 6.976562 18.46875 6.785156 17.988281 6.691406 17.355469 L 5.835938 11.378906 L 18.175781 11.378906 L 17.308594 17.355469 C 17.214844 17.988281 17.023438 18.46875 16.734375 18.796875 C 16.445312 19.117188 15.988281 19.277344 15.363281 19.277344 Z M 10.160156 17.542969 C 10.292969 17.542969 10.414062 17.492188 10.523438 17.390625 L 11.988281 15.914062 L 13.476562 17.390625 C 13.523438 17.429688 13.574219 17.464844 13.628906 17.496094 C 13.691406 17.527344 13.761719 17.542969 13.839844 17.542969 C 13.980469 17.542969 14.101562 17.492188 14.203125 17.390625 C 14.304688 17.28125 14.355469 17.160156 14.355469 17.027344 C 14.355469 16.894531 14.308594 16.773438 14.214844 16.664062 L 12.738281 15.175781 L 14.214844 13.699219 C 14.316406 13.589844 14.367188 13.46875 14.367188 13.335938 C 14.367188 13.1875 14.316406 13.0625 14.214844 12.960938 C 14.113281 12.859375 13.988281 12.808594 13.839844 12.808594 C 13.714844 12.808594 13.597656 12.863281 13.488281 12.972656 L 11.988281 14.449219 L 10.511719 12.972656 C 10.410156 12.871094 10.292969 12.820312 10.160156 12.820312 C 10.011719 12.820312 9.886719 12.871094 9.785156 12.972656 C 9.683594 13.074219 9.632812 13.195312 9.632812 13.335938 C 9.632812 13.46875 9.6875 13.589844 9.796875 13.699219 L 11.261719 15.175781 L 9.796875 16.664062 C 9.6875 16.765625 9.632812 16.886719 9.632812 17.027344 C 9.632812 17.160156 9.683594 17.28125 9.785156 17.390625 C 9.886719 17.492188 10.011719 17.542969 10.160156 17.542969 Z M 5.484375 10.394531 C 5.117188 10.394531 4.839844 10.296875 4.652344 10.101562 C 4.472656 9.898438 4.382812 9.617188 4.382812 9.257812 L 4.382812 8.648438 C 4.382812 8.289062 4.480469 8.007812 4.675781 7.804688 C 4.871094 7.601562 5.140625 7.5 5.484375 7.5 L 18.515625 7.5 C 18.882812 7.5 19.15625 7.601562 19.335938 7.804688 C 19.523438 8.007812 19.617188 8.289062 19.617188 8.648438 L 19.617188 9.257812 C 19.617188 9.617188 19.523438 9.898438 19.335938 10.101562 C 19.15625 10.296875 18.882812 10.394531 18.515625 10.394531 Z M 5.484375 10.394531 "/>
</g>
</svg>
