<svg width="105" height="127" viewBox="0 0 105 127" fill="none" xmlns="http://www.w3.org/2000/svg">
<path d="M52.75 126.688C53.25 126.688 53.875 126.583 54.625 126.375C55.375 126.167 56.1458 125.854 56.9375 125.438C65.8542 120.438 73.3542 116 79.4375 112.125C85.5625 108.292 90.4792 104.562 94.1875 100.938C97.8958 97.3125 100.562 93.3958 102.188 89.1875C103.854 84.9375 104.688 79.9583 104.688 74.25V26.4375C104.688 23.1458 104 20.7917 102.625 19.375C101.25 17.9583 99.2292 16.6875 96.5625 15.5625C95.1042 14.9375 93.0833 14.1458 90.5 13.1875C87.9167 12.1875 85.0625 11.125 81.9375 10C78.8542 8.83333 75.75 7.6875 72.625 6.5625C69.5 5.4375 66.6458 4.41667 64.0625 3.5C61.4792 2.58333 59.4583 1.875 58 1.375C57.1667 1.125 56.2917 0.916667 55.375 0.75C54.5 0.541667 53.625 0.4375 52.75 0.4375C51.875 0.4375 51 0.541667 50.125 0.75C49.25 0.958333 48.3958 1.16667 47.5625 1.375C46.0625 1.79167 44.0208 2.45833 41.4375 3.375C38.8542 4.25 36 5.27083 32.875 6.4375C29.7917 7.5625 26.6875 8.70833 23.5625 9.875C20.4375 11.0417 17.5833 12.125 15 13.125C12.4167 14.125 10.3958 14.9375 8.9375 15.5625C6.3125 16.6458 4.29167 17.9167 2.875 19.375C1.5 20.7917 0.8125 23.1458 0.8125 26.4375V74.25C0.8125 79.9583 1.64583 84.9167 3.3125 89.125C4.97917 93.3333 7.66667 97.25 11.375 100.875C15.0833 104.5 19.9792 108.25 26.0625 112.125C32.1875 116 39.6875 120.438 48.5625 125.438C49.3542 125.854 50.125 126.167 50.875 126.375C51.625 126.583 52.25 126.688 52.75 126.688ZM52.75 115.375C52.25 115.375 51.7083 115.25 51.125 115C50.5417 114.792 49.7917 114.417 48.875 113.875C41.6667 109.5 35.6042 105.75 30.6875 102.625C25.8125 99.4583 21.9167 96.4583 19 93.625C16.0833 90.75 13.9792 87.625 12.6875 84.25C11.3958 80.875 10.75 76.7708 10.75 71.9375V28.375C10.75 27.3333 10.875 26.5625 11.125 26.0625C11.4167 25.5208 12 25.0833 12.875 24.75C14.75 24 16.9375 23.1667 19.4375 22.25C21.9375 21.3333 24.5833 20.375 27.375 19.375C30.1667 18.375 32.9583 17.3958 35.75 16.4375C38.5417 15.4375 41.1875 14.4792 43.6875 13.5625C46.1875 12.6458 48.375 11.8125 50.25 11.0625C50.75 10.8542 51.2083 10.7083 51.625 10.625C52.0417 10.5417 52.4167 10.5 52.75 10.5C53.0833 10.5 53.4583 10.5417 53.875 10.625C54.2917 10.7083 54.75 10.8542 55.25 11.0625C57.125 11.8125 59.3125 12.6667 61.8125 13.625C64.3125 14.5417 66.9375 15.5208 69.6875 16.5625C72.4792 17.5625 75.25 18.5625 78 19.5625C80.7917 20.5625 83.4375 21.5208 85.9375 22.4375C88.4792 23.3125 90.7292 24.0833 92.6875 24.75C93.5208 25.0417 94.0625 25.4583 94.3125 26C94.6042 26.5417 94.75 27.3333 94.75 28.375V71.9375C94.75 76.7708 94.1042 80.875 92.8125 84.25C91.5625 87.625 89.4583 90.7292 86.5 93.5625C83.5833 96.3958 79.6667 99.3958 74.75 102.562C69.875 105.729 63.8333 109.5 56.625 113.875C55.7083 114.417 54.9583 114.792 54.375 115C53.7917 115.25 53.25 115.375 52.75 115.375ZM31.4375 87C32.8958 87 34.1042 86.4792 35.0625 85.4375L52.75 67.6875L70.5625 85.4375C71.5625 86.4792 72.75 87 74.125 87C75.5 87 76.6667 86.5 77.625 85.5C78.625 84.5 79.125 83.3125 79.125 81.9375C79.125 80.5625 78.625 79.375 77.625 78.375L59.875 60.625L77.6875 42.75C78.6875 41.75 79.1875 40.5833 79.1875 39.25C79.1875 37.875 78.6875 36.7083 77.6875 35.75C76.7292 34.75 75.5625 34.25 74.1875 34.25C72.8958 34.25 71.75 34.7708 70.75 35.8125L52.75 53.625L34.9375 35.875C34.0208 34.875 32.8542 34.375 31.4375 34.375C30.0625 34.375 28.875 34.8542 27.875 35.8125C26.9167 36.7708 26.4375 37.9375 26.4375 39.3125C26.4375 40.6875 26.9375 41.8542 27.9375 42.8125L45.6875 60.625L27.9375 78.4375C26.9375 79.3958 26.4375 80.5625 26.4375 81.9375C26.4375 83.3125 26.9167 84.5 27.875 85.5C28.875 86.5 30.0625 87 31.4375 87Z" fill="white"/>
</svg>
