<svg xmlns="http://www.w3.org/2000/svg" width="24" height="24"><path style="stroke:none;fill-rule:nonzero;fill:#fff;fill-opacity:1" d="M12 23.063c1.633 0 3.168-.293 4.605-.883a12.29 12.29 0 0 0 3.82-2.438 11.482 11.482 0 0 0 2.59-3.586c.626-1.36.938-2.804.938-4.343 0-1.536-.312-2.981-.937-4.336a11.514 11.514 0 0 0-2.59-3.594 12.22 12.22 0 0 0-3.82-2.438 12.166 12.166 0 0 0-4.618-.883c-1.633 0-3.172.293-4.617.883a12.307 12.307 0 0 0-3.809 2.438A11.523 11.523 0 0 0 .985 7.477a10.187 10.187 0 0 0-.937 4.335c0 1.54.312 2.985.937 4.344a11.438 11.438 0 0 0 2.59 3.586 12.307 12.307 0 0 0 3.809 2.438c1.445.59 2.984.883 4.617.883Zm-3.363-4.918c-.625 0-1.082-.153-1.371-.454-.29-.308-.48-.761-.575-1.355l-.855-5.625h12.34l-.867 5.625c-.094.594-.286 1.047-.575 1.355-.289.301-.746.454-1.37.454Zm1.523-1.633a.53.53 0 0 0 .363-.145l1.465-1.39 1.489 1.39c.046.04.097.07.152.102a.526.526 0 0 0 .684-.258.468.468 0 0 0-.098-.527l-1.477-1.399 1.477-1.39a.475.475 0 0 0 .11-.54.526.526 0 0 0-.485-.3.514.514 0 0 0-.352.156l-1.5 1.387-1.476-1.387a.514.514 0 0 0-.364-.145.52.52 0 0 0-.363.145.454.454 0 0 0-.152.344c.004.129.062.25.164.34l1.465 1.39-1.465 1.399a.44.44 0 0 0-.164.343c.004.27.238.489.527.485ZM5.484 9.785c-.367 0-.644-.094-.832-.277-.18-.192-.27-.457-.27-.793V8.14c0-.34.098-.606.294-.793.195-.192.465-.29.808-.29h13.032c.367 0 .64.098.82.29.187.187.281.453.281.793v.574c0 .336-.094.601-.281.793-.18.183-.453.277-.82.277Zm0 0"/></svg>