<svg width="18" height="19" viewBox="0 0 18 19" fill="none" xmlns="http://www.w3.org/2000/svg">
<path d="M1.01562 11.0859L7.27344 17.3438C7.85156 17.9219 8.42708 18.2135 9 18.2188C9.57292 18.224 10.1458 17.9401 10.7188 17.3672L17.0078 11.0703C17.5807 10.5026 17.8646 9.93229 17.8594 9.35938C17.8542 8.78125 17.5625 8.20312 16.9844 7.625L10.7344 1.375C10.1562 0.796875 9.58073 0.505208 9.00781 0.5C8.4349 0.494792 7.86198 0.778646 7.28906 1.35156L0.992188 7.64062C0.419271 8.21875 0.135417 8.79427 0.140625 9.36719C0.145833 9.9349 0.4375 10.5078 1.01562 11.0859ZM6.36719 12.6406C6.1901 12.6406 6.03906 12.5781 5.91406 12.4531C5.78906 12.3229 5.72656 12.1693 5.72656 11.9922C5.72656 11.8151 5.78906 11.6641 5.91406 11.5391L8.08594 9.36719L5.91406 7.20312C5.78906 7.07292 5.72656 6.92188 5.72656 6.75C5.72656 6.56771 5.78906 6.41667 5.91406 6.29688C6.03906 6.17188 6.1901 6.10938 6.36719 6.10938C6.53906 6.10938 6.6901 6.16927 6.82031 6.28906L9 8.46094L11.1953 6.28125C11.3203 6.15625 11.4688 6.09375 11.6406 6.09375C11.8177 6.09375 11.9688 6.15625 12.0938 6.28125C12.2188 6.40625 12.2812 6.55729 12.2812 6.73438C12.2812 6.91146 12.2188 7.0651 12.0938 7.19531L9.91406 9.36719L12.0859 11.5312C12.2109 11.6458 12.2734 11.7995 12.2734 11.9922C12.2734 12.1693 12.2109 12.3229 12.0859 12.4531C11.9609 12.5781 11.8073 12.6406 11.625 12.6406C11.4375 12.6406 11.2839 12.5781 11.1641 12.4531L9 10.2812L6.84375 12.4531C6.71354 12.5781 6.55469 12.6406 6.36719 12.6406Z" fill="white"/>
</svg>
