<svg width="130" height="124" viewBox="0 0 130 124" fill="none" xmlns="http://www.w3.org/2000/svg">
<path d="M46.1875 123.688H84.125C86.75 123.688 88.9792 123.417 90.8125 122.875C92.6875 122.333 94.3333 121.521 95.75 120.438C97.1667 119.396 98.5625 118.146 99.9375 116.688L124.188 89.9375C125.562 88.4375 126.625 87.0417 127.375 85.75C128.125 84.4167 128.646 83.0208 128.938 81.5625C129.229 80.0625 129.375 78.2708 129.375 76.1875V47.625C129.375 45.5417 129.229 43.75 128.938 42.25C128.646 40.75 128.125 39.3542 127.375 38.0625C126.625 36.7708 125.562 35.375 124.188 33.875L99.9375 7.125C98.5625 5.625 97.1667 4.35417 95.75 3.3125C94.3333 2.27083 92.6875 1.47917 90.8125 0.9375C88.9792 0.354167 86.75 0.0625 84.125 0.0625H46.1875C43.5208 0.0625 41.2708 0.354167 39.4375 0.9375C37.6042 1.47917 35.9792 2.27083 34.5625 3.3125C33.1458 4.35417 31.75 5.625 30.375 7.125L6.125 33.875C4.75 35.375 3.6875 36.7708 2.9375 38.0625C2.1875 39.3542 1.66667 40.75 1.375 42.25C1.08333 43.75 0.9375 45.5417 0.9375 47.625V76.1875C0.9375 78.2708 1.08333 80.0625 1.375 81.5625C1.66667 83.0208 2.1875 84.4167 2.9375 85.75C3.6875 87.0417 4.75 88.4375 6.125 89.9375L30.375 116.688C31.75 118.146 33.1458 119.396 34.5625 120.438C35.9792 121.521 37.6042 122.333 39.4375 122.875C41.2708 123.417 43.5208 123.688 46.1875 123.688ZM44.125 88.125C42.7083 88.125 41.5 87.625 40.5 86.625C39.5 85.5833 39 84.3542 39 82.9375C39 81.5208 39.5 80.3125 40.5 79.3125L57.875 61.9375L40.5 44.625C39.5 43.5833 39 42.375 39 41C39 39.5417 39.5 38.3333 40.5 37.375C41.5 36.375 42.7083 35.875 44.125 35.875C45.5 35.875 46.7083 36.3542 47.75 37.3125L65.1875 54.6875L82.75 37.25C83.75 36.25 84.9375 35.75 86.3125 35.75C87.7292 35.75 88.9375 36.25 89.9375 37.25C90.9375 38.25 91.4375 39.4583 91.4375 40.875C91.4375 42.2917 90.9375 43.5208 89.9375 44.5625L72.5 61.9375L89.875 79.25C90.875 80.1667 91.375 81.3958 91.375 82.9375C91.375 84.3542 90.875 85.5833 89.875 86.625C88.875 87.625 87.6458 88.125 86.1875 88.125C84.6875 88.125 83.4583 87.625 82.5 86.625L65.1875 69.25L47.9375 86.625C46.8958 87.625 45.625 88.125 44.125 88.125Z" fill="white"/>
</svg>
