<svg width="149" height="108" viewBox="0 0 149 108" fill="none" xmlns="http://www.w3.org/2000/svg">
<path d="M26.3125 91.25C27.2708 91.25 28.1042 90.9375 28.8125 90.3125C29.5208 89.6458 29.875 88.8333 29.875 87.875V61.25C29.875 60.2917 29.5208 59.4792 28.8125 58.8125C28.1042 58.1458 27.2708 57.8125 26.3125 57.8125C25.3542 57.8125 24.5417 58.1458 23.875 58.8125C23.2083 59.4792 22.875 60.2917 22.875 61.25V87.875C22.875 88.8333 23.2083 89.6458 23.875 90.3125C24.5417 90.9375 25.3542 91.25 26.3125 91.25ZM41 91.25C41.9583 91.25 42.7917 90.9375 43.5 90.3125C44.2083 89.6458 44.5625 88.8333 44.5625 87.875V61.25C44.5625 60.2917 44.2083 59.4792 43.5 58.8125C42.7917 58.1458 41.9583 57.8125 41 57.8125C40.0417 57.8125 39.2292 58.1458 38.5625 58.8125C37.9375 59.4792 37.625 60.2917 37.625 61.25V87.875C37.625 88.8333 37.9375 89.6458 38.5625 90.3125C39.2292 90.9375 40.0417 91.25 41 91.25ZM55.6875 91.25C56.6458 91.25 57.4792 90.9375 58.1875 90.3125C58.8958 89.6458 59.25 88.8333 59.25 87.875V61.25C59.25 60.2917 58.8958 59.4792 58.1875 58.8125C57.4792 58.1458 56.6458 57.8125 55.6875 57.8125C54.7292 57.8125 53.9167 58.1458 53.25 58.8125C52.625 59.4792 52.3125 60.2917 52.3125 61.25V87.875C52.3125 88.8333 52.625 89.6458 53.25 90.3125C53.9167 90.9375 54.7292 91.25 55.6875 91.25ZM74.75 91.625C76 91.5833 77.0833 91.125 78 90.25C78.9583 89.3333 79.4375 88.2083 79.4375 86.875C79.4375 85.5833 78.9583 84.4792 78 83.5625C77.0833 82.6458 76 82.1875 74.75 82.1875C73.4167 82.1875 72.2708 82.6458 71.3125 83.5625C70.3958 84.4792 69.9375 85.5833 69.9375 86.875C69.9375 88.2083 70.3958 89.3333 71.3125 90.25C72.2708 91.1667 73.4167 91.625 74.75 91.625ZM74.75 79.25C76 79.2083 77.0833 78.75 78 77.875C78.9583 76.9583 79.4375 75.8333 79.4375 74.5C79.4375 73.2083 78.9583 72.1042 78 71.1875C77.0833 70.2292 76 69.75 74.75 69.75C73.4167 69.75 72.2708 70.2292 71.3125 71.1875C70.3958 72.1042 69.9375 73.2083 69.9375 74.5C69.9375 75.8333 70.3958 76.9583 71.3125 77.875C72.2708 78.75 73.4167 79.2083 74.75 79.25ZM74.75 66.8125C76 66.7708 77.0833 66.3125 78 65.4375C78.9583 64.5208 79.4375 63.375 79.4375 62C79.4375 60.75 78.9583 59.6667 78 58.75C77.0833 57.7917 76 57.3125 74.75 57.3125C73.4167 57.3125 72.2708 57.7917 71.3125 58.75C70.3958 59.6667 69.9375 60.75 69.9375 62C69.9375 63.375 70.3958 64.5208 71.3125 65.4375C72.2708 66.3125 73.4167 66.7708 74.75 66.8125ZM92.9375 91.25C93.8958 91.25 94.7292 90.9375 95.4375 90.3125C96.1458 89.6458 96.5 88.8333 96.5 87.875V61.25C96.5 60.2917 96.1458 59.4792 95.4375 58.8125C94.7292 58.1458 93.8958 57.8125 92.9375 57.8125C91.9792 57.8125 91.1667 58.1458 90.5 58.8125C89.875 59.4792 89.5625 60.2917 89.5625 61.25V87.875C89.5625 88.8333 89.875 89.6458 90.5 90.3125C91.1667 90.9375 91.9792 91.25 92.9375 91.25ZM107.625 91.25C108.583 91.25 109.417 90.9375 110.125 90.3125C110.875 89.6458 111.25 88.8333 111.25 87.875V61.25C111.25 60.2917 110.875 59.4792 110.125 58.8125C109.417 58.1458 108.583 57.8125 107.625 57.8125C106.667 57.8125 105.854 58.1458 105.188 58.8125C104.562 59.4792 104.25 60.2917 104.25 61.25V87.875C104.25 88.8333 104.562 89.6458 105.188 90.3125C105.854 90.9375 106.667 91.25 107.625 91.25ZM122.375 91.25C123.333 91.25 124.167 90.9375 124.875 90.3125C125.583 89.6458 125.938 88.8333 125.938 87.875V61.25C125.938 60.2917 125.583 59.4792 124.875 58.8125C124.167 58.1458 123.333 57.8125 122.375 57.8125C121.417 57.8125 120.604 58.1458 119.938 58.8125C119.271 59.4792 118.938 60.2917 118.938 61.25V87.875C118.938 88.8333 119.271 89.6458 119.938 90.3125C120.604 90.9375 121.417 91.25 122.375 91.25ZM20.5625 107.312H128.688C135.229 107.312 140.125 105.688 143.375 102.438C146.667 99.2292 148.312 94.3958 148.312 87.9375V50.25C148.312 45.9583 147.75 42.3333 146.625 39.375C145.542 36.4167 143.708 33.625 141.125 31L120.375 9.5625C118.375 7.47917 116.396 5.79167 114.438 4.5C112.521 3.16667 110.479 2.1875 108.312 1.5625C106.146 0.9375 103.667 0.625 100.875 0.625H48.375C45.625 0.625 43.1458 0.9375 40.9375 1.5625C38.7708 2.1875 36.7292 3.16667 34.8125 4.5C32.8958 5.79167 30.9375 7.47917 28.9375 9.5625L8.125 31C5.54167 33.625 3.6875 36.4167 2.5625 39.375C1.47917 42.3333 0.9375 45.9583 0.9375 50.25V87.9375C0.9375 94.3958 2.5625 99.2292 5.8125 102.438C9.10417 105.688 14.0208 107.312 20.5625 107.312ZM20.6875 97.25C14.2292 97.25 11 93.9792 11 87.4375V57.5625C11 53.7292 12.8542 51.8125 16.5625 51.8125H132.688C136.396 51.8125 138.25 53.7292 138.25 57.5625V87.4375C138.25 93.9792 135.021 97.25 128.562 97.25H20.6875ZM15.6875 42.75C14.5625 42.75 13.8542 42.3542 13.5625 41.5625C13.3125 40.7708 13.5208 40.0417 14.1875 39.375L37.125 15.125C39.0417 13.0833 40.8333 11.6667 42.5 10.875C44.2083 10.0833 46.3333 9.6875 48.875 9.6875H100.375C102.958 9.6875 105.083 10.0833 106.75 10.875C108.417 11.625 110.208 13.0417 112.125 15.125L135.125 39.375C135.75 40.0417 135.917 40.7708 135.625 41.5625C135.375 42.3542 134.688 42.75 133.562 42.75H15.6875Z" fill="white"/>
</svg>
