<svg width="128" height="128" viewBox="0 0 128 128" fill="none" xmlns="http://www.w3.org/2000/svg">
<path d="M63.9375 127.625C72.6458 127.625 80.8333 125.958 88.5 122.625C96.2083 119.292 103 114.688 108.875 108.812C114.75 102.938 119.354 96.1667 122.688 88.5C126.021 80.7917 127.688 72.5833 127.688 63.875C127.688 55.1667 126.021 46.9792 122.688 39.3125C119.354 31.6042 114.75 24.8125 108.875 18.9375C103 13.0625 96.2083 8.45833 88.5 5.125C80.7917 1.79167 72.5833 0.125 63.875 0.125C55.1667 0.125 46.9583 1.79167 39.25 5.125C31.5833 8.45833 24.8125 13.0625 18.9375 18.9375C13.1042 24.8125 8.52083 31.6042 5.1875 39.3125C1.85417 46.9792 0.1875 55.1667 0.1875 63.875C0.1875 72.5833 1.85417 80.7917 5.1875 88.5C8.52083 96.1667 13.125 102.938 19 108.812C24.875 114.688 31.6458 119.292 39.3125 122.625C47.0208 125.958 55.2292 127.625 63.9375 127.625ZM63.9375 93.4375C62.2708 93.4375 61 92.8958 60.125 91.8125C59.25 90.7292 58.8125 89.3125 58.8125 87.5625V70.9375L40.625 40.6875C40.0417 39.6875 39.75 38.6875 39.75 37.6875C39.75 36.4375 40.2083 35.375 41.125 34.5C42.0417 33.5833 43.1667 33.125 44.5 33.125C45.6667 33.125 46.6042 33.375 47.3125 33.875C48.0625 34.3333 48.7708 35.1667 49.4375 36.375L63.875 61.125H64.25L78.75 36.375C79.375 35.2083 80.0417 34.375 80.75 33.875C81.4583 33.375 82.3542 33.125 83.4375 33.125C84.8125 33.125 85.9375 33.5625 86.8125 34.4375C87.7292 35.3125 88.1875 36.4375 88.1875 37.8125C88.1875 38.8542 87.875 39.8125 87.25 40.6875L69.1875 70.8125V87.5625C69.1875 89.3958 68.7292 90.8333 67.8125 91.875C66.9375 92.9167 65.6458 93.4375 63.9375 93.4375Z" fill="white"/>
</svg>
