<svg xmlns="http://www.w3.org/2000/svg" width="24" height="24"><path style="stroke:none;fill-rule:nonzero;fill:#fff;fill-opacity:1" d="M4.887 23.3h14.215c1.226 0 2.144-.323 2.753-.976.618-.64.926-1.605.926-2.898V4.164c0-1.293-.308-2.258-.926-2.898-.609-.653-1.527-.977-2.753-.977H4.887c-1.227 0-2.149.324-2.766.977-.61.64-.914 1.605-.914 2.898v15.262c0 1.293.305 2.258.914 2.902.617.649 1.54.973 2.766.973Zm.023-2.01c-.586 0-1.035-.165-1.348-.49-.312-.335-.468-.823-.468-1.476V4.262c0-.649.156-1.137.469-1.461.312-.336.761-.5 1.347-.5h14.168c.578 0 1.024.164 1.336.5.32.324.48.812.48 1.46v15.063c0 .653-.16 1.14-.48 1.477-.312.324-.758.488-1.336.488Zm7.102-3.188c.21 0 .386-.075.527-.227.14-.148.211-.352.211-.602v-1.812h2.168a.52.52 0 0 0 .41-.172.655.655 0 0 0 .164-.453.621.621 0 0 0-.164-.438.52.52 0 0 0-.41-.171H12.75v-.965h2.168a.52.52 0 0 0 .41-.172.623.623 0 0 0 .164-.438.655.655 0 0 0-.164-.453.523.523 0 0 0-.41-.176h-1.629l2.848-4.886c.09-.153.136-.332.14-.512a.701.701 0 0 0-.21-.512.698.698 0 0 0-.528-.226.703.703 0 0 0-.375.101.706.706 0 0 0-.281.313l-2.871 5.136L9.14 6.29a.781.781 0 0 0-.293-.312.64.64 0 0 0-.364-.102.736.736 0 0 0-.539.21.713.713 0 0 0-.21.528c0 .09.011.18.035.262.023.082.058.168.105.25l2.86 4.898H9.128a.517.517 0 0 0-.41.176.648.648 0 0 0-.153.45c0 .175.051.32.153.437.11.117.246.176.41.176h2.144v.965H9.13a.524.524 0 0 0-.41.171.657.657 0 0 0-.153.438c0 .176.051.328.153.453.11.117.246.172.41.172h2.144v1.8c0 .25.067.454.2.614a.71.71 0 0 0 .539.223Zm0 0"/></svg>