<svg width="16" height="17" viewBox="0 0 16 17" fill="none" xmlns="http://www.w3.org/2000/svg">
<path d="M8 16.3281C9.08854 16.3281 10.112 16.1198 11.0703 15.7031C12.0339 15.2865 12.8828 14.7109 13.6172 13.9766C14.3516 13.2422 14.9271 12.3958 15.3438 11.4375C15.7604 10.474 15.9688 9.44792 15.9688 8.35938C15.9688 7.27083 15.7604 6.2474 15.3438 5.28906C14.9271 4.32552 14.3516 3.47656 13.6172 2.74219C12.8828 2.00781 12.0339 1.43229 11.0703 1.01562C10.1068 0.598958 9.08073 0.390625 7.99219 0.390625C6.90365 0.390625 5.8776 0.598958 4.91406 1.01562C3.95573 1.43229 3.10938 2.00781 2.375 2.74219C1.64583 3.47656 1.07292 4.32552 0.65625 5.28906C0.239583 6.2474 0.03125 7.27083 0.03125 8.35938C0.03125 9.44792 0.239583 10.474 0.65625 11.4375C1.07292 12.3958 1.64844 13.2422 2.38281 13.9766C3.11719 14.7109 3.96354 15.2865 4.92188 15.7031C5.88542 16.1198 6.91146 16.3281 8 16.3281ZM5.67969 11.9531C5.5026 11.9531 5.35938 11.9036 5.25 11.8047C5.14583 11.7005 5.09375 11.5677 5.09375 11.4062C5.09375 11.2604 5.16667 11.0807 5.3125 10.8672L9.01562 5.74219V5.67188H5.60938C5.45312 5.67188 5.32292 5.6276 5.21875 5.53906C5.11979 5.44531 5.07031 5.3125 5.07031 5.14062C5.07031 4.98438 5.11979 4.85938 5.21875 4.76562C5.32292 4.66667 5.45312 4.61719 5.60938 4.61719H10.0781C10.2552 4.61719 10.3984 4.67188 10.5078 4.78125C10.6224 4.88542 10.6797 5.02083 10.6797 5.1875C10.6797 5.28125 10.6667 5.36458 10.6406 5.4375C10.6146 5.50521 10.5625 5.59375 10.4844 5.70312L6.78906 10.8281V10.8984H10.3984C10.5547 10.8984 10.6849 10.9453 10.7891 11.0391C10.8932 11.1328 10.9453 11.263 10.9453 11.4297C10.9453 11.5911 10.8932 11.7188 10.7891 11.8125C10.6849 11.9062 10.5547 11.9531 10.3984 11.9531H5.67969Z" fill="white"/>
</svg>
