<?xml version="1.0" encoding="UTF-8"?>
<svg xmlns="http://www.w3.org/2000/svg" xmlns:xlink="http://www.w3.org/1999/xlink" width="24" height="25.5" viewBox="0 0 24 25.5" version="1.1">
<g id="surface1">
<path style=" stroke:none;fill-rule:nonzero;fill:rgb(100%,100%,100%);fill-opacity:1;" d="M 12 24.492188 C 13.632812 24.492188 15.167969 24.179688 16.605469 23.554688 C 18.050781 22.929688 19.324219 22.066406 20.425781 20.964844 C 21.527344 19.863281 22.390625 18.59375 23.015625 17.15625 C 23.640625 15.710938 23.953125 14.171875 23.953125 12.539062 C 23.953125 10.90625 23.640625 9.371094 23.015625 7.933594 C 22.390625 6.488281 21.527344 5.214844 20.425781 4.113281 C 19.324219 3.011719 18.050781 2.148438 16.605469 1.523438 C 15.160156 0.898438 13.621094 0.585938 11.988281 0.585938 C 10.355469 0.585938 8.816406 0.898438 7.371094 1.523438 C 5.933594 2.148438 4.664062 3.011719 3.5625 4.113281 C 2.46875 5.214844 1.609375 6.488281 0.984375 7.933594 C 0.359375 9.371094 0.046875 10.90625 0.046875 12.539062 C 0.046875 14.171875 0.359375 15.710938 0.984375 17.15625 C 1.609375 18.59375 2.472656 19.863281 3.574219 20.964844 C 4.675781 22.066406 5.945312 22.929688 7.382812 23.554688 C 8.828125 24.179688 10.367188 24.492188 12 24.492188 Z M 8.519531 17.929688 C 8.253906 17.929688 8.039062 17.855469 7.875 17.707031 C 7.71875 17.550781 7.640625 17.351562 7.640625 17.109375 C 7.640625 16.890625 7.75 16.621094 7.96875 16.300781 L 13.523438 8.613281 L 13.523438 8.507812 L 8.414062 8.507812 C 8.179688 8.507812 7.984375 8.441406 7.828125 8.308594 C 7.679688 8.167969 7.605469 7.96875 7.605469 7.710938 C 7.605469 7.476562 7.679688 7.289062 7.828125 7.148438 C 7.984375 7 8.179688 6.925781 8.414062 6.925781 L 15.117188 6.925781 C 15.382812 6.925781 15.597656 7.007812 15.761719 7.171875 C 15.933594 7.328125 16.019531 7.53125 16.019531 7.78125 C 16.019531 7.921875 16 8.046875 15.960938 8.15625 C 15.921875 8.257812 15.84375 8.390625 15.726562 8.554688 L 10.183594 16.242188 L 10.183594 16.347656 L 15.597656 16.347656 C 15.832031 16.347656 16.027344 16.417969 16.183594 16.558594 C 16.339844 16.699219 16.417969 16.894531 16.417969 17.144531 C 16.417969 17.386719 16.339844 17.578125 16.183594 17.71875 C 16.027344 17.859375 15.832031 17.929688 15.597656 17.929688 Z M 8.519531 17.929688 "/>
</g>
</svg>
