<svg xmlns="http://www.w3.org/2000/svg" width="24" height="24"><path style="stroke:none;fill-rule:nonzero;fill:#fff;fill-opacity:1" d="M8.727.285c-1.86 0-3.387.387-4.575 1.153-1.187.761-2.066 1.906-2.632 3.449-.57 1.539-.856 3.48-.856 5.812v8.727c0 1.293.246 2.258.734 2.898.493.649 1.23.977 2.211.977h16.782c.98 0 1.714-.328 2.203-.977.492-.64.742-1.605.742-2.898v-8.727c0-2.336-.285-4.273-.856-5.812-.562-1.543-1.44-2.688-2.632-3.45C18.66.672 17.137.286 15.28.286Zm-2.801 17.3c-.188.013-.367-.073-.508-.237a1.019 1.019 0 0 1-.195-.653c0-.226.086-.52.261-.86L9.93 7.638v-.102H5.852a.59.59 0 0 1-.48-.223c-.118-.152-.177-.363-.177-.636 0-.25.059-.453.176-.602a.576.576 0 0 1 .48-.234h5.352c.192-.012.379.082.516.258.136.168.207.386.207.652 0 .137-.016.273-.047.402a2.42 2.42 0 0 1-.188.438l-4.433 8.195v.102h4.328c.187 0 .344.078.469.226.125.149.187.356.187.625a.99.99 0 0 1-.187.625.596.596 0 0 1-.47.227Zm8.586 0a.624.624 0 0 1-.57-.327c-.133-.211-.2-.492-.2-.832V6.848c0-.336.067-.618.2-.84a.62.62 0 0 1 .57-.332c.258 0 .449.105.582.324.136.207.207.488.207.848v9.039h3.664c.187 0 .34.078.46.226.126.149.188.356.188.625a.96.96 0 0 1-.187.625.581.581 0 0 1-.461.227Zm0 0"/></svg>