<?xml version="1.0" encoding="UTF-8"?>
<svg xmlns="http://www.w3.org/2000/svg" xmlns:xlink="http://www.w3.org/1999/xlink" width="24" height="29.142857" viewBox="0 0 24 29.142857" version="1.1">
<g id="surface1">
<path style=" stroke:none;fill-rule:nonzero;fill:rgb(100%,100%,100%);fill-opacity:1;" d="M 6.441406 28.324219 L 11.867188 28.324219 C 12.152344 28.324219 12.371094 28.25 12.523438 28.097656 C 12.683594 27.957031 12.761719 27.75 12.761719 27.480469 C 12.761719 27.222656 12.683594 27.023438 12.523438 26.878906 C 12.371094 26.738281 12.152344 26.664062 11.867188 26.664062 L 7.621094 26.664062 L 7.621094 26.613281 L 12.066406 21.1875 C 12.28125 20.929688 12.429688 20.710938 12.507812 20.53125 C 12.589844 20.34375 12.628906 20.15625 12.628906 19.96875 C 12.628906 19.648438 12.527344 19.398438 12.320312 19.21875 C 12.117188 19.039062 11.835938 18.949219 11.476562 18.949219 L 6.105469 18.949219 C 5.820312 18.949219 5.597656 19.027344 5.4375 19.179688 C 5.285156 19.332031 5.210938 19.535156 5.210938 19.792969 C 5.210938 20.0625 5.285156 20.269531 5.4375 20.410156 C 5.597656 20.554688 5.820312 20.625 6.105469 20.625 L 10.40625 20.625 L 10.40625 20.679688 L 5.757812 26.304688 C 5.589844 26.5 5.472656 26.667969 5.410156 26.8125 C 5.355469 26.957031 5.332031 27.121094 5.332031 27.308594 C 5.332031 27.601562 5.429688 27.84375 5.625 28.03125 C 5.832031 28.226562 6.101562 28.324219 6.441406 28.324219 Z M 16.113281 20.894531 L 22.875 20.894531 C 23.1875 20.894531 23.429688 20.8125 23.597656 20.652344 C 23.769531 20.492188 23.851562 20.269531 23.851562 19.980469 C 23.851562 19.707031 23.769531 19.492188 23.597656 19.339844 C 23.429688 19.179688 23.1875 19.097656 22.875 19.097656 L 17.371094 19.097656 L 17.371094 19.042969 L 23.101562 12.132812 C 23.335938 11.855469 23.492188 11.628906 23.570312 11.449219 C 23.660156 11.273438 23.707031 11.089844 23.707031 10.902344 C 23.707031 10.535156 23.589844 10.25 23.355469 10.042969 C 23.132812 9.839844 22.808594 9.738281 22.378906 9.738281 L 15.789062 9.738281 C 15.488281 9.738281 15.25 9.816406 15.082031 9.976562 C 14.910156 10.128906 14.824219 10.347656 14.824219 10.632812 C 14.824219 10.917969 14.910156 11.144531 15.082031 11.304688 C 15.25 11.457031 15.488281 11.53125 15.789062 11.53125 L 21.28125 11.53125 L 21.28125 11.585938 L 15.386719 18.710938 C 15.066406 19.085938 14.90625 19.4375 14.90625 19.769531 C 14.90625 20.105469 15.011719 20.378906 15.226562 20.585938 C 15.449219 20.789062 15.746094 20.894531 16.113281 20.894531 Z M 2.503906 13.6875 L 11.023438 13.6875 C 11.34375 13.6875 11.589844 13.605469 11.757812 13.445312 C 11.9375 13.277344 12.027344 13.039062 12.027344 12.738281 C 12.027344 12.449219 11.9375 12.226562 11.757812 12.066406 C 11.589844 11.90625 11.34375 11.824219 11.023438 11.824219 L 3.871094 11.824219 L 3.871094 11.773438 L 11.371094 2.730469 C 11.585938 2.472656 11.726562 2.253906 11.800781 2.074219 C 11.871094 1.898438 11.90625 1.710938 11.90625 1.511719 C 11.90625 1.148438 11.785156 0.855469 11.542969 0.644531 C 11.304688 0.429688 10.960938 0.320312 10.511719 0.320312 L 2.183594 0.320312 C 1.863281 0.320312 1.613281 0.402344 1.433594 0.5625 C 1.261719 0.722656 1.179688 0.949219 1.179688 1.246094 C 1.179688 1.539062 1.261719 1.773438 1.433594 1.941406 C 1.613281 2.101562 1.863281 2.183594 2.183594 2.183594 L 9.335938 2.183594 L 9.335938 2.222656 L 1.660156 11.503906 C 1.5 11.683594 1.394531 11.847656 1.339844 12 C 1.292969 12.152344 1.273438 12.324219 1.273438 12.523438 C 1.273438 12.871094 1.382812 13.152344 1.605469 13.367188 C 1.832031 13.582031 2.128906 13.6875 2.503906 13.6875 Z M 2.503906 13.6875 "/>
</g>
</svg>
