<svg width="14" height="17" viewBox="0 0 14 17" fill="none" xmlns="http://www.w3.org/2000/svg">
<path d="M3.75781 16.5234H6.92188C7.08854 16.5234 7.21615 16.4792 7.30469 16.3906C7.39844 16.3073 7.44531 16.1875 7.44531 16.0312C7.44531 15.8802 7.39844 15.763 7.30469 15.6797C7.21615 15.5964 7.08854 15.5547 6.92188 15.5547H4.44531V15.5234L7.03906 12.3594C7.16406 12.2083 7.25 12.0807 7.29688 11.9766C7.34375 11.8672 7.36719 11.7578 7.36719 11.6484C7.36719 11.4609 7.30729 11.3151 7.1875 11.2109C7.06771 11.1068 6.90365 11.0547 6.69531 11.0547H3.5625C3.39583 11.0547 3.26562 11.099 3.17188 11.1875C3.08333 11.276 3.03906 11.3958 3.03906 11.5469C3.03906 11.7031 3.08333 11.8229 3.17188 11.9062C3.26562 11.9896 3.39583 12.0312 3.5625 12.0312H6.07031V12.0625L3.35938 15.3438C3.26042 15.4583 3.19271 15.5573 3.15625 15.6406C3.125 15.724 3.10938 15.8203 3.10938 15.9297C3.10938 16.1016 3.16667 16.2422 3.28125 16.3516C3.40104 16.4661 3.5599 16.5234 3.75781 16.5234ZM9.39844 12.1875H13.3438C13.526 12.1875 13.6667 12.1406 13.7656 12.0469C13.8646 11.9531 13.9141 11.8229 13.9141 11.6562C13.9141 11.4948 13.8646 11.3698 13.7656 11.2812C13.6667 11.1875 13.526 11.1406 13.3438 11.1406H10.1328V11.1094L13.4766 7.07812C13.612 6.91667 13.7031 6.78385 13.75 6.67969C13.8021 6.57552 13.8281 6.46875 13.8281 6.35938C13.8281 6.14583 13.7604 5.97917 13.625 5.85938C13.4948 5.73958 13.3047 5.67969 13.0547 5.67969H9.21094C9.03385 5.67969 8.89583 5.72656 8.79688 5.82031C8.69792 5.90885 8.64844 6.03646 8.64844 6.20312C8.64844 6.36979 8.69792 6.5 8.79688 6.59375C8.89583 6.68229 9.03385 6.72656 9.21094 6.72656H12.4141V6.75781L8.97656 10.9141C8.78906 11.1328 8.69531 11.3385 8.69531 11.5312C8.69531 11.7292 8.75781 11.888 8.88281 12.0078C9.01302 12.1276 9.1849 12.1875 9.39844 12.1875ZM1.46094 7.98438H6.42969C6.61719 7.98438 6.76042 7.9375 6.85938 7.84375C6.96354 7.74479 7.01562 7.60677 7.01562 7.42969C7.01562 7.26302 6.96354 7.13281 6.85938 7.03906C6.76042 6.94531 6.61719 6.89844 6.42969 6.89844H2.25781V6.86719L6.63281 1.59375C6.75781 1.44271 6.84115 1.3151 6.88281 1.21094C6.92448 1.10677 6.94531 0.997396 6.94531 0.882812C6.94531 0.669271 6.875 0.5 6.73438 0.375C6.59375 0.25 6.39323 0.1875 6.13281 0.1875H1.27344C1.08594 0.1875 0.940104 0.234375 0.835938 0.328125C0.736979 0.421875 0.6875 0.554688 0.6875 0.726562C0.6875 0.898438 0.736979 1.03385 0.835938 1.13281C0.940104 1.22656 1.08594 1.27344 1.27344 1.27344H5.44531V1.29688L0.96875 6.71094C0.875 6.8151 0.8125 6.91146 0.78125 7C0.755208 7.08854 0.742188 7.1901 0.742188 7.30469C0.742188 7.50781 0.807292 7.67188 0.9375 7.79688C1.06771 7.92188 1.24219 7.98438 1.46094 7.98438Z" fill="white"/>
</svg>
