<svg xmlns="http://www.w3.org/2000/svg" width="24" height="24"><path style="stroke:none;fill-rule:nonzero;fill:#fff;fill-opacity:1" d="M6.441 23.324h5.426c.285 0 .504-.058.656-.183.16-.118.239-.29.239-.512a.573.573 0 0 0-.239-.492c-.152-.117-.37-.18-.656-.18H7.621v-.039l4.445-4.469c.215-.21.364-.394.442-.543a.967.967 0 0 0 .12-.46.712.712 0 0 0-.308-.618c-.203-.148-.484-.223-.843-.223H6.105c-.285 0-.507.063-.668.188a.624.624 0 0 0-.226.508c0 .222.074.39.226.508.16.117.383.175.668.175h4.301v.047l-4.648 4.633c-.14.125-.258.266-.348.418a.978.978 0 0 0-.078.406.732.732 0 0 0 .293.598c.207.16.477.238.816.238Zm9.672-6.117h6.762c.313 0 .555-.066.723-.2.172-.132.254-.316.254-.554a.616.616 0 0 0-.254-.527c-.168-.13-.41-.2-.723-.2h-5.504v-.042l5.73-5.692c.235-.23.391-.414.47-.562a.852.852 0 0 0 .136-.453c0-.301-.117-.536-.352-.707-.222-.168-.546-.25-.976-.25h-6.59c-.3 0-.539.062-.707.195-.172.125-.258.305-.258.543 0 .234.086.422.258.55.168.126.406.188.707.188h5.492v.047l-5.894 5.867c-.32.309-.48.598-.48.871 0 .278.105.5.32.672.222.168.52.254.886.254Zm-13.61-5.934h8.52c.32 0 .567-.07.735-.199.18-.14.27-.336.27-.586a.647.647 0 0 0-.27-.55c-.168-.133-.414-.2-.735-.2H3.871v-.043l7.5-7.445c.215-.215.356-.395.43-.543a1.06 1.06 0 0 0 .105-.46c0-.302-.12-.544-.363-.716-.238-.176-.582-.27-1.031-.27H2.184c-.32 0-.57.071-.75.2-.172.133-.254.32-.254.566 0 .239.082.434.254.57.18.133.43.2.75.2h7.152v.035L1.66 9.472c-.16.15-.265.286-.32.41a1.25 1.25 0 0 0-.067.43c0 .286.11.52.332.696.227.176.524.265.899.265Zm0 0"/></svg>